<svg width="193" height="295" viewBox="0 0 193 295" fill="none" xmlns="http://www.w3.org/2000/svg">
<path d="M67.4578 19.5727C66.3445 18.7727 65.7444 17.6894 65.6578 16.3227C65.4278 12.6927 64.9078 6.71269 66.2778 3.51269C67.8978 -0.287306 72.5678 -0.917303 75.6778 1.2027C81.4778 5.1527 74.9278 24.9527 67.4578 19.5727Z" fill="#151E30"/>
<path d="M12.2476 35.2522C11.221 35.0388 10.4043 34.5021 9.79764 33.6421C7.51097 30.4021 5.95097 26.6155 5.11764 22.2822C4.29764 18.0622 6.07764 15.6422 10.0076 14.5322C11.7143 14.0455 13.2376 14.3821 14.5776 15.5421C18.7776 19.1521 18.8276 27.0922 17.8776 32.0322C17.2376 35.3922 15.2876 35.8722 12.2476 35.2522Z" fill="#131825"/>
<path d="M114.36 33.0924C111.04 33.9324 103.97 35.5423 101.56 33.0823C100.36 28.9223 99.7567 24.6657 99.75 20.3124C99.7434 18.8657 100.407 17.8623 101.74 17.3023C107.71 14.7923 111.74 17.7823 113.65 23.4423C114.697 26.5557 114.933 29.7724 114.36 33.0924Z" fill="#151E30"/>
<path d="M68.2173 45.3219C64.0973 46.3819 60.3739 46.2052 57.0473 44.7919L56.4273 31.0519C56.4145 30.6933 56.484 30.3665 56.6273 30.1119C59.9273 24.2719 69.2173 25.5619 69.6673 32.6319C69.8539 35.4986 69.3706 39.7286 68.2173 45.3219Z" fill="#151E30"/>
<path d="M101.558 33.082C103.968 35.542 111.038 33.932 114.358 33.092C114.798 43.192 113.198 52.012 107.968 61.002C99.9949 74.702 90.4949 87.5054 79.4682 99.412C78.5549 100.399 77.4249 100.879 76.0782 100.852C68.6482 100.702 96.3682 54.882 98.4482 51.482C101.638 46.262 101.798 38.992 101.558 33.082Z" fill="#FE6E59"/>
<path d="M147.02 63.1224C143.793 62.9291 140.71 62.1524 137.77 60.7924C141.23 55.0191 144.176 49.2758 146.61 43.5624C147.416 41.6624 148.803 41.0091 150.77 41.6024C161.72 44.9024 151.3 59.2224 147.02 63.1224Z" fill="#151E30"/>
<path d="M27.7283 59.8328C23.8616 61.1994 19.9716 61.2828 16.0583 60.0828L13.1383 47.1928C12.7783 45.5994 13.4383 44.5328 15.1183 43.9928C24.2083 41.0728 29.4383 52.6528 27.7283 59.8328Z" fill="#151E30"/>
<path d="M57.0484 44.793C60.3751 46.2063 64.0984 46.383 68.2184 45.323C66.8284 56.233 64.6884 66.843 64.3284 77.973C63.9151 90.8863 62.6051 104.15 60.3984 117.763C59.3651 124.136 58.7384 131.23 58.5184 139.043C56.7051 140.356 54.9251 140.803 53.1784 140.383C50.8918 122.296 49.5451 107.55 49.1384 96.143C48.6451 82.3563 50.1451 69.6097 53.6384 57.903C55.5318 51.5563 56.6684 47.1863 57.0484 44.793Z" fill="#FE6E59"/>
<path d="M27.7297 59.832C27.6197 71.182 28.6797 81.072 31.6097 92.712C33.9797 102.152 35.9697 111.692 38.9797 120.882C42.0397 130.252 44.0697 135.682 45.2797 143.732C44.5331 144.519 43.3597 145.119 41.7597 145.532C33.4331 133.885 26.9564 121.325 22.3297 107.852C19.0197 98.222 16.7397 91.842 16.1897 83.132C15.7031 75.4587 15.6597 67.7754 16.0597 60.082C19.9731 61.282 23.8631 61.1987 27.7297 59.832Z" fill="#FE6E59"/>
<path d="M137.77 60.793C140.71 62.153 143.793 62.9297 147.02 63.123C137.44 86.203 119.74 102.533 98.0195 114.623L96.9695 113.693C96.9221 113.651 96.8834 113.6 96.856 113.543C96.8286 113.486 96.813 113.425 96.8102 113.363C96.8073 113.301 96.8174 113.24 96.8397 113.183C96.8619 113.126 96.8959 113.075 96.9395 113.033C99.1395 110.913 102.44 109.493 104.27 108.293C111.71 103.403 118.8 99.003 125.55 92.283C133.12 84.733 138.94 75.383 143.96 65.953C143.995 65.8884 144.019 65.8181 144.031 65.7469C144.042 65.6756 144.04 65.605 144.025 65.5397C144.009 65.4744 143.982 65.416 143.943 65.3683C143.904 65.3206 143.855 65.2847 143.8 65.263L139.04 63.283C138.917 63.233 138.765 63.2379 138.604 63.2969C138.443 63.356 138.281 63.4663 138.14 63.613C133.25 68.653 128.82 74.673 124.24 79.173C117.306 85.9796 110.093 92.4797 102.6 98.673C101.24 99.7997 99.7662 100.763 98.1795 101.563C98.1324 101.587 98.08 101.599 98.0252 101.599C97.9705 101.599 97.9145 101.587 97.8606 101.562C97.8067 101.538 97.7558 101.503 97.711 101.458C97.6662 101.414 97.6283 101.361 97.5995 101.303C97.3729 100.843 96.8462 100.673 96.0195 100.793C112.32 88.993 124.61 75.823 137.77 60.793Z" fill="#D86E5E"/>
<path d="M98.0181 114.622C92.4781 117.956 86.9181 121.262 81.3381 124.542C74.6381 128.492 71.8781 131.722 70.5081 139.082L64.5481 138.502C64.4218 138.492 64.3044 138.434 64.2205 138.341C64.1366 138.248 64.0927 138.126 64.0981 138.002L64.2281 135.832C65.5748 130.566 67.5048 126.482 70.0181 123.582C76.6514 115.922 85.3181 108.326 96.0181 100.792C96.8448 100.672 97.3714 100.842 97.5981 101.302C97.6269 101.36 97.6648 101.413 97.7096 101.458C97.7544 101.502 97.8052 101.537 97.8592 101.562C97.9131 101.586 97.9691 101.598 98.0238 101.598C98.0786 101.599 98.131 101.586 98.1781 101.562C99.7648 100.762 101.238 99.7989 102.598 98.6723C110.091 92.4789 117.305 85.9789 124.238 79.1722C128.818 74.6722 133.248 68.6522 138.138 63.6122C138.279 63.4656 138.441 63.3552 138.602 63.2962C138.764 63.2372 138.916 63.2323 139.038 63.2823L143.798 65.2622C143.854 65.2839 143.903 65.3198 143.941 65.3676C143.98 65.4153 144.008 65.4737 144.023 65.539C144.038 65.6042 144.04 65.6749 144.029 65.7461C144.018 65.8174 143.994 65.8876 143.958 65.9522C138.938 75.3822 133.118 84.7323 125.548 92.2823C118.798 99.0023 111.708 103.402 104.268 108.292C102.438 109.492 99.1381 110.912 96.9381 113.032C96.8945 113.074 96.8605 113.125 96.8382 113.182C96.816 113.239 96.8059 113.3 96.8087 113.362C96.8115 113.424 96.8272 113.486 96.8546 113.542C96.882 113.599 96.9207 113.65 96.9681 113.692L98.0181 114.622Z" fill="#FE6E59"/>
<path d="M172.82 99.3024C169.96 93.0524 183.66 91.4324 187.04 91.1024C193.44 90.4924 194.81 99.3124 187.34 101.092C183.42 102.022 174.87 103.792 172.82 99.3024Z" fill="#151E30"/>
<path d="M89.9905 145.973L85.4805 143.333C89.6405 137.133 94.9871 132.203 101.52 128.543L102.7 129.513C102.821 129.61 102.957 129.675 103.091 129.7C103.225 129.725 103.35 129.709 103.45 129.653C109.27 126.463 114.55 122.253 120.21 119.423C131.77 113.653 141.1 107.953 151.76 103.303C154.42 102.143 158.14 103.133 157.52 98.1227C160.494 96.876 163.58 96.016 166.78 95.5427C168.494 95.2894 169.494 95.8094 169.78 97.1027L170.82 101.843C171.054 102.909 170.55 103.746 169.31 104.353C161.357 108.286 153.807 112.856 146.66 118.063C133.04 127.973 119.19 135.043 103.09 140.173C98.6638 141.586 94.2971 143.519 89.9905 145.973Z" fill="#FE6E59"/>
<path d="M157.52 98.123C158.14 103.133 154.42 102.143 151.76 103.303C141.1 107.953 131.77 113.653 120.21 119.423C114.55 122.253 109.27 126.463 103.45 129.653C103.349 129.709 103.224 129.725 103.09 129.7C102.956 129.675 102.82 129.61 102.7 129.513L101.52 128.543C119.7 117.503 138.366 107.363 157.52 98.123Z" fill="#D86E5E"/>
<path d="M64.2295 135.832L64.0995 138.002C64.0942 138.126 64.138 138.247 64.2219 138.341C64.3058 138.434 64.4232 138.492 64.5495 138.502L70.5095 139.082L85.4795 143.332L89.9895 145.972C91.1029 148.919 92.7329 151.349 94.8795 153.262C98.7129 156.689 101.73 160.485 103.93 164.652C104.05 164.885 104.27 165.122 104.59 165.362C105.13 165.772 107.08 172.692 107.61 174.022C107.85 174.642 107.36 180.302 108.19 181.232C108.422 181.49 108.556 181.792 108.57 182.082C108.86 188.302 109.99 194.462 109.93 200.432C109.87 207.752 111.2 218.382 108.33 225.032C108.278 225.158 108.186 225.27 108.064 225.359C107.942 225.448 107.792 225.511 107.63 225.542C106.81 225.689 106.263 226.262 105.99 227.262C82.5095 224.982 59.9095 223.742 35.8295 217.862C27.3195 215.782 17.8095 212.682 8.76953 210.042C9.36953 203.442 10.7829 197.535 13.0095 192.322C19.5695 176.982 25.5695 164.322 34.6095 152.732C36.6595 150.102 39.8795 148.562 41.7595 145.532C43.3595 145.119 44.5329 144.519 45.2795 143.732C48.2929 143.592 50.9262 142.475 53.1795 140.382C54.9262 140.802 56.7062 140.355 58.5195 139.042C61.0995 139.269 63.0029 138.199 64.2295 135.832ZM45.5826 173.457C46.566 173.689 47.6131 173.472 48.4935 172.854C49.3739 172.235 50.0156 171.266 50.2773 170.159C50.5391 169.051 50.3994 167.897 49.8892 166.95C49.3789 166.002 48.5398 165.34 47.5564 165.107C46.5731 164.875 45.526 165.092 44.6456 165.71C43.7652 166.329 43.1235 167.298 42.8617 168.406C42.6 169.513 42.7396 170.667 43.2499 171.614C43.7601 172.562 44.5993 173.224 45.5826 173.457ZM89.1718 182.91C90.0266 182.799 90.7934 182.285 91.3036 181.481C91.8139 180.677 92.0257 179.649 91.8924 178.623C91.7592 177.598 91.2919 176.658 90.5933 176.011C89.8947 175.364 89.022 175.064 88.1672 175.175C87.3125 175.286 86.5456 175.799 86.0354 176.603C85.5252 177.407 85.3134 178.435 85.4466 179.461C85.5799 180.486 86.0472 181.426 86.7458 182.073C87.4444 182.72 88.3171 183.021 89.1718 182.91ZM38.6395 188.502C36.1495 192.702 48.7195 195.112 51.1095 195.162C53.1295 195.209 56.1295 194.585 60.1095 193.292C64.6829 191.819 69.3195 190.592 74.0195 189.612C75.5395 189.292 75.7762 188.615 74.7295 187.582C72.9495 185.822 70.7795 185.279 68.2195 185.952C58.1695 188.592 51.2595 192.842 40.6795 187.872C40.3237 187.704 39.9174 187.675 39.54 187.791C39.1627 187.908 38.8416 188.161 38.6395 188.502Z" fill="#FDCD4A"/>
<path d="M8.76974 210.043C17.8097 212.683 27.3197 215.783 35.8297 217.863C59.9097 223.743 82.5097 224.983 105.99 227.263C107.396 227.383 108.96 227.849 110.68 228.663C116 231.173 113.34 237.973 109.18 239.783C106.16 241.103 99.7397 240.783 96.1497 240.373C86.4564 239.279 76.6764 238.499 66.8097 238.033C65.9897 237.999 65.8597 238.279 66.4197 238.873C76.8297 250.023 86.2097 265.573 76.2597 280.973C70.1297 290.463 53.6597 294.553 43.2897 294.293C34.1197 294.063 25.7197 289.753 20.9297 281.703C17.5597 276.023 15.6097 270.033 16.6797 263.323C18.7597 250.203 25.8297 243.443 36.2097 236.023C37.2431 235.283 37.1364 234.789 35.8897 234.543C24.3297 232.213 14.0497 229.843 3.87974 222.963C-0.480264 220.013 -0.580264 216.383 0.749736 211.653C0.792784 211.504 0.870517 211.367 0.976554 211.254C1.08259 211.141 1.21391 211.055 1.35974 211.003C3.75307 210.129 6.22307 209.809 8.76974 210.043ZM53.4718 238.887C53.3994 238.148 52.9367 237.477 52.1855 237.023C51.4344 236.569 50.4563 236.369 49.4665 236.466C48.4767 236.563 47.5563 236.95 46.9076 237.541C46.2589 238.132 45.9352 238.879 46.0076 239.618C46.0801 240.357 46.5428 241.028 47.2939 241.482C48.0451 241.936 49.0231 242.136 50.0129 242.039C51.0027 241.942 51.9232 241.555 52.5719 240.964C53.2206 240.373 53.5443 239.626 53.4718 238.887ZM27.0151 267.749C27.3597 267.888 27.7427 267.922 28.1422 267.85C28.5417 267.778 28.9499 267.601 29.3434 267.328C29.737 267.055 30.1083 266.693 30.436 266.261C30.7638 265.83 31.0416 265.337 31.2536 264.813C31.6818 263.753 31.8161 262.625 31.6268 261.676C31.4375 260.728 30.9402 260.038 30.2443 259.756C29.8998 259.617 29.5168 259.583 29.1173 259.655C28.7178 259.727 28.3096 259.905 27.916 260.177C27.5224 260.45 27.1512 260.812 26.8234 261.244C26.4957 261.675 26.2179 262.168 26.0058 262.692C25.5776 263.752 25.4434 264.88 25.6327 265.829C25.822 266.777 26.3192 267.468 27.0151 267.749ZM63.4301 272.341C64.1565 272.362 64.8626 272.043 65.3931 271.456C65.9235 270.868 66.2349 270.06 66.2586 269.209C66.2824 268.358 66.0166 267.534 65.5198 266.918C65.0229 266.302 64.3357 265.944 63.6093 265.924C62.8829 265.904 62.1769 266.222 61.6464 266.81C61.116 267.397 60.8046 268.205 60.7808 269.056C60.7571 269.907 61.0229 270.731 61.5197 271.347C62.0165 271.963 62.7037 272.321 63.4301 272.341ZM43.6497 276.653C43.7986 276.809 44.0227 276.882 44.2735 276.855C44.5243 276.829 44.7817 276.706 44.9897 276.513C47.4164 274.259 48.1797 271.439 47.2797 268.052C46.8864 266.572 46.0397 266.239 44.7397 267.052C40.4597 269.752 40.0964 272.953 43.6497 276.653Z" fill="#151E30"/>
<path d="M45.5844 173.457C44.601 173.225 43.7619 172.562 43.2516 171.615C42.7414 170.668 42.6017 169.513 42.8635 168.406C43.1252 167.299 43.7669 166.329 44.6473 165.711C45.5277 165.092 46.5748 164.875 47.5582 165.108C48.5415 165.34 49.3807 166.003 49.8909 166.95C50.4012 167.898 50.5408 169.052 50.2791 170.159C50.0173 171.266 49.3757 172.236 48.4952 172.854C47.6148 173.473 46.5677 173.69 45.5844 173.457Z" fill="#2D2206"/>
<path d="M89.1743 182.91C88.3195 183.021 87.4468 182.72 86.7482 182.073C86.0496 181.426 85.5823 180.487 85.4491 179.461C85.3159 178.435 85.5277 177.407 86.0379 176.604C86.5481 175.8 87.3149 175.286 88.1697 175.175C89.0244 175.064 89.8971 175.365 90.5957 176.012C91.2943 176.658 91.7617 177.598 91.8949 178.624C92.0281 179.65 91.8163 180.677 91.3061 181.481C90.7959 182.285 90.029 182.799 89.1743 182.91Z" fill="#2D2206"/>
<path d="M51.1112 195.162C48.7212 195.112 36.1512 192.702 38.6412 188.502C38.8432 188.162 39.1643 187.908 39.5417 187.792C39.919 187.675 40.3254 187.704 40.6812 187.872C51.2612 192.842 58.1712 188.592 68.2212 185.952C70.7812 185.279 72.9512 185.822 74.7312 187.582C75.7778 188.616 75.5412 189.292 74.0212 189.612C69.3212 190.592 64.6845 191.819 60.1112 193.292C56.1312 194.586 53.1312 195.209 51.1112 195.162Z" fill="#2D2206"/>
</svg>
