<svg width="112" height="109" viewBox="0 0 112 109" fill="none" xmlns="http://www.w3.org/2000/svg">
<path d="M29.1255 62.1843C29.6455 62.131 29.7188 62.291 29.3455 62.6643C22.9855 69.0243 2.59548 86.0043 15.3455 95.0643C27.8055 103.914 36.7655 85.3743 47.3455 82.0343C48.4721 81.681 48.7855 82.0376 48.2855 83.1043C45.9055 88.2243 42.8055 95.4143 44.2355 100.694C46.1255 107.694 53.9755 108.324 59.6155 105.534C67.4655 101.644 71.4455 89.4543 75.6755 81.5743C75.7249 81.4835 75.794 81.405 75.8779 81.3445C75.9617 81.284 76.0581 81.2431 76.1599 81.2249C76.2616 81.2066 76.3662 81.2115 76.4658 81.2391C76.5654 81.2667 76.6576 81.3163 76.7355 81.3843C82.2955 86.2343 89.0155 89.5043 96.7355 87.7743C102.935 86.3843 104.895 80.4543 104.455 74.5343C103.869 66.7476 100.205 60.531 93.4655 55.8843C91.5188 54.5443 91.6288 53.401 93.7955 52.4543C100.725 49.4243 114.685 43.9943 109.755 33.2443C104.495 21.8143 83.5955 25.2843 75.5655 29.6543C73.5855 30.7343 72.6488 30.1477 72.7555 27.8944C73.0955 20.6444 74.3555 10.6343 69.7855 4.63434C65.4155 -1.11566 58.1055 0.39431 54.4955 6.10431C51.1255 11.4343 50.9155 19.1943 50.5455 25.3743C50.5255 25.6343 50.3321 25.8543 49.9655 26.0343C49.8393 26.0964 49.692 26.1134 49.5434 26.0829C49.3949 26.0525 49.2525 25.9762 49.1355 25.8643C42.4755 19.4543 25.8955 7.5443 18.1955 16.6543C10.7355 25.4743 17.4755 35.4543 22.0755 43.2343C22.1054 43.2841 22.1231 43.3401 22.1273 43.398C22.1315 43.4559 22.122 43.514 22.0996 43.5675C22.0772 43.621 22.0425 43.6686 21.9984 43.7062C21.9543 43.7439 21.9019 43.7706 21.8455 43.7843C15.1355 45.4243 5.17547 47.9443 2.18547 53.0043C0.785472 55.3643 0.625492 57.5943 1.70549 59.6943C5.70549 67.4543 22.6155 62.8443 29.1255 62.1843Z" stroke="#FEA9A0" stroke-width="2"/>
<path d="M31.298 42.4839C31.298 42.1683 31.1726 41.8657 30.9494 41.6425C30.7263 41.4193 30.4236 41.2939 30.108 41.2939C29.7924 41.2939 29.4897 41.4193 29.2665 41.6425C29.0433 41.8657 28.918 42.1683 28.918 42.4839C28.918 42.7996 29.0433 43.1023 29.2665 43.3254C29.4897 43.5486 29.7924 43.674 30.108 43.674C30.4236 43.674 30.7263 43.5486 30.9494 43.3254C31.1726 43.1023 31.298 42.7996 31.298 42.4839Z" stroke="#FC6453" stroke-width="2"/>
<path d="M73.1901 50.3781C73.4048 50.1177 73.5573 49.8103 73.6389 49.4735C73.7205 49.1367 73.7297 48.777 73.6658 48.4151C73.6019 48.0532 73.4663 47.696 73.2667 47.3641C73.067 47.0321 72.8073 46.7318 72.5022 46.4804C71.8863 45.9726 71.1233 45.6946 70.3812 45.7075C69.639 45.7203 68.9785 46.023 68.5449 46.5489C68.3303 46.8094 68.1778 47.1167 68.0962 47.4536C68.0146 47.7904 68.0054 48.15 68.0693 48.512C68.1332 48.8739 68.2688 49.231 68.4685 49.563C68.6681 49.8949 68.9279 50.1952 69.2329 50.4467C69.8489 50.9544 70.6118 51.2324 71.354 51.2196C72.0961 51.2068 72.7566 50.9041 73.1901 50.3781Z" stroke="#99382D" stroke-width="2"/>
<path d="M48.8998 48.1929C48.8429 47.8416 48.7097 47.5062 48.5078 47.2058C48.3059 46.9054 48.0393 46.646 47.7231 46.4422C47.407 46.2385 47.0475 46.0945 46.6652 46.0185C46.283 45.9424 45.8854 45.9358 45.4952 45.999C44.7072 46.1266 43.9971 46.5309 43.5211 47.1228C43.0452 47.7147 42.8423 48.4458 42.9572 49.1553C43.0141 49.5066 43.1473 49.842 43.3492 50.1424C43.5511 50.4428 43.8177 50.7023 44.1339 50.906C44.45 51.1097 44.8095 51.2537 45.1918 51.3297C45.574 51.4058 45.9716 51.4124 46.3618 51.3492C47.1498 51.2216 47.8599 50.8174 48.3359 50.2254C48.8118 49.6335 49.0147 48.9024 48.8998 48.1929Z" stroke="#99382D" stroke-width="2"/>
<path d="M49.0735 65.8211C49.8293 65.9314 50.6029 65.7035 51.2239 65.1876C51.845 64.6718 52.2627 63.9101 52.3852 63.0703C52.5077 62.2305 52.325 61.3813 51.8772 60.7095C51.4294 60.0378 50.7532 59.5984 49.9973 59.4881C49.2415 59.3779 48.468 59.6058 47.8469 60.1217C47.2259 60.6375 46.8081 61.3992 46.6856 62.239C46.5631 63.0788 46.7459 63.928 47.1937 64.5997C47.6415 65.2715 48.3177 65.7109 49.0735 65.8211Z" stroke="#99382D" stroke-width="2"/>
<path d="M68.8886 61.914C68.8886 61.373 68.6737 60.8541 68.2911 60.4715C67.9085 60.0889 67.3896 59.874 66.8486 59.874C66.3076 59.874 65.7887 60.0889 65.4061 60.4715C65.0235 60.8541 64.8086 61.373 64.8086 61.914C64.8086 62.455 65.0235 62.9739 65.4061 63.3565C65.7887 63.7391 66.3076 63.954 66.8486 63.954C67.3896 63.954 67.9085 63.7391 68.2911 63.3565C68.6737 62.9739 68.8886 62.455 68.8886 61.914Z" stroke="#AD2F28" stroke-width="2"/>
<path d="M29.1294 62.1843C22.6194 62.8443 5.7094 67.4543 1.7094 59.6943C0.629398 57.5943 0.789379 55.3643 2.18938 53.0043C5.17938 47.9443 15.1394 45.4243 21.8494 43.7843C21.9058 43.7706 21.9582 43.7439 22.0023 43.7062C22.0464 43.6686 22.0811 43.621 22.1035 43.5675C22.1259 43.514 22.1354 43.4559 22.1312 43.398C22.127 43.3401 22.1093 43.2841 22.0794 43.2343C17.4794 35.4543 10.7394 25.4743 18.1994 16.6543C25.8994 7.5443 42.4794 19.4543 49.1394 25.8643C49.2564 25.9762 49.3988 26.0525 49.5473 26.0829C49.6959 26.1134 49.8432 26.0964 49.9694 26.0343C50.336 25.8543 50.5294 25.6343 50.5494 25.3743C50.9194 19.1943 51.1294 11.4343 54.4994 6.10431C58.1094 0.39431 65.4194 -1.11566 69.7894 4.63434C74.3594 10.6343 73.0994 20.6444 72.7594 27.8944C72.6527 30.1477 73.5894 30.7343 75.5694 29.6543C83.5994 25.2843 104.499 21.8143 109.759 33.2443C114.689 43.9943 100.729 49.4243 93.7994 52.4543C91.6327 53.401 91.5227 54.5443 93.4694 55.8843C100.209 60.531 103.873 66.7476 104.459 74.5343C104.899 80.4543 102.939 86.3843 96.7394 87.7743C89.0194 89.5043 82.2994 86.2343 76.7394 81.3843C76.6615 81.3163 76.5693 81.2667 76.4697 81.2391C76.3701 81.2115 76.2655 81.2066 76.1638 81.2249C76.062 81.2431 75.9656 81.284 75.8818 81.3445C75.798 81.405 75.7288 81.4835 75.6794 81.5743C71.4494 89.4543 67.4694 101.644 59.6194 105.534C53.9794 108.324 46.1294 107.694 44.2394 100.694C42.8094 95.4143 45.9094 88.2243 48.2894 83.1043C48.7894 82.0376 48.476 81.681 47.3494 82.0343C36.7694 85.3743 27.8094 103.914 15.3494 95.0643C2.59938 86.0043 22.9894 69.0243 29.3494 62.6643C29.7227 62.291 29.6494 62.131 29.1294 62.1843ZM31.2994 42.4843C31.2994 42.1687 31.174 41.8661 30.9509 41.6429C30.7277 41.4197 30.425 41.2943 30.1094 41.2943C29.7938 41.2943 29.4911 41.4197 29.2679 41.6429C29.0448 41.8661 28.9194 42.1687 28.9194 42.4843C28.9194 42.7999 29.0448 43.1026 29.2679 43.3258C29.4911 43.549 29.7938 43.6743 30.1094 43.6743C30.425 43.6743 30.7277 43.549 30.9509 43.3258C31.174 43.1026 31.2994 42.7999 31.2994 42.4843ZM73.192 50.3789C73.4066 50.1185 73.5592 49.8111 73.6408 49.4743C73.7224 49.1375 73.7315 48.7778 73.6676 48.4159C73.6038 48.054 73.4681 47.6968 73.2685 47.3649C73.0688 47.0329 72.8091 46.7326 72.5041 46.4812C71.8881 45.9734 71.1251 45.6954 70.383 45.7083C69.6408 45.7211 68.9803 46.0238 68.5468 46.5497C68.3321 46.8102 68.1796 47.1175 68.098 47.4543C68.0164 47.7912 68.0072 48.1508 68.0711 48.5128C68.135 48.8747 68.2706 49.2318 68.4703 49.5638C68.6699 49.8957 68.9297 50.196 69.2347 50.4474C69.8507 50.9552 70.6137 51.2332 71.3558 51.2204C72.0979 51.2076 72.7584 50.9049 73.192 50.3789ZM48.9007 48.1931C48.8438 47.8418 48.7106 47.5064 48.5087 47.206C48.3068 46.9056 48.0402 46.6462 47.724 46.4424C47.4079 46.2387 47.0484 46.0947 46.6661 46.0187C46.2839 45.9426 45.8863 45.936 45.4961 45.9992C44.7081 46.1268 43.998 46.5311 43.522 47.123C43.0461 47.7149 42.8432 48.446 42.9581 49.1555C43.015 49.5068 43.1482 49.8423 43.3501 50.1426C43.552 50.443 43.8186 50.7025 44.1348 50.9062C44.4509 51.1099 44.8104 51.2539 45.1926 51.33C45.5749 51.406 45.9725 51.4126 46.3627 51.3494C47.1507 51.2218 47.8608 50.8176 48.3367 50.2256C48.8127 49.6337 49.0156 48.9026 48.9007 48.1931ZM49.0775 65.8208C49.8333 65.931 50.6068 65.7032 51.2279 65.1873C51.849 64.6714 52.2667 63.9098 52.3892 63.07C52.5117 62.2302 52.3289 61.381 51.8811 60.7092C51.4333 60.0374 50.7571 59.5981 50.0013 59.4878C49.2455 59.3776 48.4719 59.6055 47.8509 60.1213C47.2298 60.6372 46.8121 61.3988 46.6896 62.2386C46.5671 63.0784 46.7498 63.9276 47.1976 64.5994C47.6455 65.2712 48.3217 65.7105 49.0775 65.8208ZM68.8894 61.9143C68.8894 61.3733 68.6745 60.8544 68.2919 60.4718C67.9093 60.0892 67.3904 59.8743 66.8494 59.8743C66.3083 59.8743 65.7895 60.0892 65.4069 60.4718C65.0243 60.8544 64.8094 61.3733 64.8094 61.9143C64.8094 62.4553 65.0243 62.9742 65.4069 63.3568C65.7895 63.7394 66.3083 63.9543 66.8494 63.9543C67.3904 63.9543 67.9093 63.7394 68.2919 63.3568C68.6745 62.9742 68.8894 62.4553 68.8894 61.9143Z" fill="#FD5441"/>
<path d="M31.298 42.4849C31.298 42.8005 31.1726 43.1032 30.9494 43.3264C30.7263 43.5496 30.4236 43.6749 30.108 43.6749C29.7924 43.6749 29.4897 43.5496 29.2665 43.3264C29.0433 43.1032 28.918 42.8005 28.918 42.4849C28.918 42.1693 29.0433 41.8667 29.2665 41.6435C29.4897 41.4203 29.7924 41.2949 30.108 41.2949C30.4236 41.2949 30.7263 41.4203 30.9494 41.6435C31.1726 41.8667 31.298 42.1693 31.298 42.4849Z" fill="#FA7464"/>
<path d="M73.1901 50.3791C72.7566 50.905 72.0961 51.2077 71.354 51.2206C70.6118 51.2334 69.8489 50.9554 69.2329 50.4476C68.9279 50.1962 68.6681 49.8959 68.4685 49.564C68.2688 49.232 68.1332 48.8749 68.0693 48.5129C68.0054 48.151 68.0146 47.7913 68.0962 47.4545C68.1778 47.1177 68.3303 46.8103 68.5449 46.5499C68.9785 46.024 69.639 45.7213 70.3812 45.7084C71.1233 45.6956 71.8863 45.9736 72.5022 46.4814C72.8073 46.7328 73.067 47.0331 73.2667 47.3651C73.4663 47.697 73.6019 48.0541 73.6658 48.4161C73.7297 48.778 73.7205 49.1377 73.6389 49.4745C73.5573 49.8113 73.4048 50.1187 73.1901 50.3791Z" fill="#351B18"/>
<path d="M48.8998 48.1939C49.0147 48.9034 48.8118 49.6345 48.3359 50.2264C47.8599 50.8183 47.1498 51.2226 46.3618 51.3502C45.9716 51.4134 45.574 51.4068 45.1918 51.3307C44.8095 51.2547 44.45 51.1107 44.1339 50.907C43.8177 50.7032 43.5511 50.4438 43.3492 50.1434C43.1473 49.843 43.0141 49.5076 42.9572 49.1563C42.8423 48.4468 43.0452 47.7157 43.5211 47.1238C43.9971 46.5318 44.7072 46.1276 45.4952 46C45.8854 45.9368 46.283 45.9434 46.6652 46.0194C47.0475 46.0955 47.407 46.2395 47.7231 46.4432C48.0393 46.6469 48.3059 46.9064 48.5078 47.2068C48.7097 47.5071 48.8429 47.8426 48.8998 48.1939Z" fill="#351B18"/>
<path d="M49.0774 65.8211C48.3216 65.7109 47.6454 65.2715 47.1976 64.5997C46.7498 63.928 46.567 63.0788 46.6895 62.239C46.812 61.3992 47.2298 60.6375 47.8508 60.1217C48.4719 59.6058 49.2454 59.3779 50.0013 59.4881C50.7571 59.5984 51.4333 60.0378 51.8811 60.7095C52.3289 61.3813 52.5116 62.2305 52.3891 63.0703C52.2666 63.9101 51.8489 64.6718 51.2278 65.1876C50.6068 65.7035 49.8332 65.9314 49.0774 65.8211Z" fill="#351B18"/>
<path d="M68.8886 61.915C68.8886 62.456 68.6737 62.9749 68.2911 63.3575C67.9085 63.7401 67.3896 63.955 66.8486 63.955C66.3076 63.955 65.7887 63.7401 65.4061 63.3575C65.0235 62.9749 64.8086 62.456 64.8086 61.915C64.8086 61.3739 65.0235 60.855 65.4061 60.4725C65.7887 60.0899 66.3076 59.875 66.8486 59.875C67.3896 59.875 67.9085 60.0899 68.2911 60.4725C68.6737 60.855 68.8886 61.3739 68.8886 61.915Z" fill="#5D090F"/>
</svg>
