<svg width="100" height="114" viewBox="0 0 100 114" fill="none" xmlns="http://www.w3.org/2000/svg">
<path d="M55.7871 5.77422C54.6138 7.15422 53.3571 8.54089 52.0171 9.93422C51.9114 10.0431 51.7806 10.1259 51.6349 10.1762C51.4892 10.2265 51.3326 10.2429 51.1771 10.2242C42.5771 9.18422 30.5671 9.56422 23.2171 14.2342C18.0471 17.5242 12.6071 24.6742 15.0171 31.0942C16.2171 34.3042 20.0371 37.7842 22.5771 40.6942C24.1971 42.5542 23.9471 44.1076 21.8271 45.3542C11.5471 51.4142 4.53704 55.0442 1.86704 67.3642C-2.02296 85.3342 7.29707 102.074 27.3971 99.6542C37.2071 98.4742 30.2071 112.194 39.7371 112.794C48.5871 113.334 56.647 103.224 59.497 95.9742C59.5452 95.8496 59.6182 95.736 59.7114 95.6403C59.8047 95.5447 59.9163 95.4688 60.0396 95.4174C60.163 95.3661 60.2954 95.3402 60.4291 95.3413C60.5627 95.3425 60.6946 95.3707 60.8171 95.4242C73.0571 100.844 84.1771 96.6642 92.3971 86.6442C99.1471 78.4242 100.657 66.7642 93.1071 58.6642C91.7071 57.1576 90.4004 55.7742 89.187 54.5142C88.9852 54.3053 88.8715 54.0267 88.8697 53.7362C88.8678 53.4457 88.9779 53.1657 89.1771 52.9542C94.6071 47.1942 99.4671 39.9142 95.8571 31.8242C92.8971 25.1842 84.087 21.0442 77.187 20.0642C75.4137 19.8176 74.5538 18.7976 74.6071 17.0042C74.7071 13.3709 74.1471 10.0876 72.9271 7.15422C69.3671 -1.37578 60.9271 -0.265779 55.7871 5.77422Z" stroke="#FEE493" stroke-width="2"/>
<path d="M54.8672 44.7476C54.9464 44.2243 54.913 43.6892 54.7689 43.173C54.6249 42.6567 54.3731 42.1693 54.0278 41.7386C53.6825 41.3079 53.2506 40.9423 52.7566 40.6628C52.2627 40.3832 51.7164 40.1952 51.1489 40.1094C50.003 39.9361 48.8405 40.1897 47.9171 40.8144C46.9938 41.4391 46.3853 42.3838 46.2254 43.4406C46.1463 43.9639 46.1797 44.4989 46.3237 45.0152C46.4677 45.5315 46.7196 46.0189 47.0648 46.4496C47.4101 46.8803 47.8421 47.2459 48.336 47.5254C48.83 47.8049 49.3763 47.993 49.9437 48.0788C51.0897 48.2521 52.2522 47.9985 53.1756 47.3738C54.0989 46.7491 54.7074 45.8044 54.8672 44.7476Z" stroke="#F99D2A" stroke-width="2"/>
<path d="M38.0999 48.6608C38.598 47.8996 38.7477 46.955 38.5161 46.0348C38.2846 45.1145 37.6907 44.2941 36.8651 43.7538C36.4564 43.4864 36.003 43.2957 35.531 43.1928C35.0589 43.0899 34.5774 43.0768 34.114 43.1542C33.6505 43.2315 33.2142 43.3979 32.8299 43.6437C32.4456 43.8896 32.1209 44.2101 31.8742 44.587C31.3761 45.3482 31.2264 46.2929 31.458 47.2131C31.6895 48.1333 32.2834 48.9538 33.109 49.494C33.5177 49.7615 33.9711 49.9522 34.4431 50.0551C34.9152 50.158 35.3967 50.1711 35.8601 50.0937C36.3236 50.0163 36.7599 49.85 37.1442 49.6041C37.5285 49.3583 37.8532 49.0377 38.0999 48.6608Z" stroke="#F99D2A" stroke-width="2"/>
<path d="M50.7351 57.4054C50.3779 56.6796 49.873 56.0353 49.249 55.5094C48.625 54.9835 47.8943 54.5862 47.0985 54.3403C46.3028 54.0944 45.4575 54.0046 44.611 54.0761C43.7646 54.1476 42.9336 54.3789 42.1653 54.7569C40.6138 55.5204 39.4123 56.8349 38.8252 58.4113C38.2382 59.9876 38.3136 61.6968 39.0349 63.1626C39.392 63.8885 39.897 64.5327 40.521 65.0587C41.1449 65.5846 41.8757 65.9818 42.6715 66.2278C43.4673 66.4737 44.3125 66.5635 45.1589 66.492C46.0053 66.4205 46.8365 66.1892 47.6047 65.8111C49.1562 65.0477 50.3577 63.7332 50.9447 62.1568C51.5318 60.5804 51.4564 58.8713 50.7351 57.4054Z" stroke="#F99D2A" stroke-width="2"/>
<path d="M32.997 62.2143C32.997 61.546 32.7316 60.905 32.259 60.4324C31.7864 59.9598 31.1454 59.6943 30.4771 59.6943C30.1461 59.6943 29.8184 59.7595 29.5127 59.8862C29.207 60.0128 28.9291 60.1984 28.6951 60.4324C28.4611 60.6664 28.2755 60.9442 28.1489 61.25C28.0222 61.5557 27.957 61.8834 27.957 62.2143C27.957 62.5453 28.0222 62.873 28.1489 63.1787C28.2755 63.4844 28.4611 63.7622 28.6951 63.9962C28.9291 64.2302 29.207 64.4159 29.5127 64.5425C29.8184 64.6692 30.1461 64.7343 30.4771 64.7343C31.1454 64.7343 31.7864 64.4688 32.259 63.9962C32.7316 63.5237 32.997 62.8827 32.997 62.2143Z" stroke="#FAA222" stroke-width="2"/>
<path d="M55.7871 5.77422C60.9271 -0.265779 69.3671 -1.37578 72.9271 7.15422C74.1471 10.0876 74.7071 13.3709 74.6071 17.0042C74.5538 18.7976 75.4137 19.8176 77.187 20.0642C84.0871 21.0442 92.8971 25.1842 95.8571 31.8242C99.4671 39.9142 94.6071 47.1942 89.1771 52.9542C88.9779 53.1657 88.8678 53.4457 88.8697 53.7362C88.8715 54.0267 88.9852 54.3053 89.187 54.5142C90.4004 55.7742 91.7071 57.1576 93.1071 58.6642C100.657 66.7642 99.1471 78.4242 92.3971 86.6442C84.1771 96.6642 73.0571 100.844 60.8171 95.4242C60.6946 95.3707 60.5627 95.3425 60.4291 95.3413C60.2954 95.3402 60.163 95.3661 60.0396 95.4174C59.9163 95.4688 59.8047 95.5447 59.7114 95.6403C59.6182 95.736 59.5452 95.8496 59.497 95.9742C56.647 103.224 48.5871 113.334 39.7371 112.794C30.2071 112.194 37.2071 98.4742 27.3971 99.6542C7.29707 102.074 -2.02296 85.3342 1.86704 67.3642C4.53704 55.0442 11.5471 51.4142 21.8271 45.3542C23.9471 44.1076 24.1971 42.5542 22.5771 40.6942C20.0371 37.7842 16.2171 34.3042 15.0171 31.0942C12.6071 24.6742 18.0471 17.5242 23.2171 14.2342C30.5671 9.56422 42.5771 9.18422 51.1771 10.2242C51.3326 10.2429 51.4892 10.2265 51.6349 10.1762C51.7806 10.1259 51.9114 10.0431 52.0171 9.93422C53.3571 8.54089 54.6138 7.15422 55.7871 5.77422ZM54.868 44.7477C54.9471 44.2244 54.9137 43.6894 54.7697 43.1731C54.6257 42.6568 54.3738 42.1694 54.0285 41.7387C53.6833 41.308 53.2513 40.9424 52.7574 40.6629C52.2634 40.3834 51.7171 40.1953 51.1497 40.1095C50.0037 39.9362 48.8412 40.1898 47.9179 40.8145C46.9945 41.4392 46.386 42.3839 46.2262 43.4407C46.147 43.964 46.1804 44.4991 46.3244 45.0154C46.4685 45.5317 46.7203 46.0191 47.0656 46.4498C47.4109 46.8805 47.8428 47.246 48.3368 47.5255C48.8307 47.8051 49.3771 47.9931 49.9445 48.0789C51.0905 48.2522 52.253 47.9986 53.1763 47.3739C54.0996 46.7492 54.7081 45.8045 54.868 44.7477ZM38.0999 48.6611C38.598 47.8999 38.7477 46.9553 38.5162 46.0351C38.2846 45.1148 37.6907 44.2943 36.8652 43.7541C36.4564 43.4866 36.003 43.296 35.531 43.1931C35.0589 43.0902 34.5774 43.0771 34.114 43.1544C33.6505 43.2318 33.2142 43.3982 32.8299 43.644C32.4456 43.8899 32.1209 44.2104 31.8742 44.5873C31.3762 45.3485 31.2264 46.2932 31.458 47.2134C31.6895 48.1336 32.2834 48.9541 33.109 49.4943C33.5178 49.7618 33.9711 49.9524 34.4432 50.0553C34.9152 50.1582 35.3967 50.1714 35.8601 50.094C36.3236 50.0166 36.7599 49.8503 37.1442 49.6044C37.5285 49.3586 37.8533 49.038 38.0999 48.6611ZM50.7372 57.4056C50.38 56.6798 49.875 56.0355 49.2511 55.5096C48.6271 54.9837 47.8964 54.5864 47.1006 54.3405C46.3048 54.0946 45.4596 54.0048 44.6131 54.0763C43.7667 54.1477 42.9356 54.3791 42.1674 54.7571C40.6159 55.5206 39.4144 56.8351 38.8273 58.4115C38.2402 59.9878 38.3157 61.6969 39.037 63.1628C39.3941 63.8886 39.8991 64.5329 40.523 65.0588C41.147 65.5848 41.8778 65.982 42.6736 66.228C43.4693 66.4739 44.3145 66.5637 45.161 66.4922C46.0074 66.4207 46.8385 66.1893 47.6068 65.8113C49.1583 65.0479 50.3598 63.7333 50.9468 62.157C51.5339 60.5806 51.4585 58.8715 50.7372 57.4056ZM32.997 62.2142C32.997 61.5459 32.7316 60.9049 32.259 60.4323C31.7864 59.9597 31.1454 59.6942 30.4771 59.6942C30.1462 59.6942 29.8185 59.7594 29.5127 59.8861C29.207 60.0127 28.9292 60.1983 28.6952 60.4323C28.4612 60.6663 28.2755 60.9441 28.1489 61.2499C28.0223 61.5556 27.9571 61.8833 27.9571 62.2142C27.9571 62.5452 28.0223 62.8728 28.1489 63.1786C28.2755 63.4843 28.4612 63.7621 28.6952 63.9961C28.9292 64.2301 29.207 64.4158 29.5127 64.5424C29.8185 64.669 30.1462 64.7342 30.4771 64.7342C31.1454 64.7342 31.7864 64.4687 32.259 63.9961C32.7316 63.5235 32.997 62.8826 32.997 62.2142Z" fill="#FDCA27"/>
<path d="M54.8672 44.7476C54.7074 45.8044 54.0989 46.7491 53.1756 47.3738C52.2522 47.9985 51.0897 48.2521 49.9437 48.0788C49.3763 47.993 48.83 47.8049 48.336 47.5254C47.8421 47.2459 47.4101 46.8803 47.0648 46.4496C46.7196 46.0189 46.4677 45.5315 46.3237 45.0152C46.1797 44.4989 46.1463 43.9639 46.2254 43.4406C46.3853 42.3838 46.9938 41.4391 47.9171 40.8144C48.8405 40.1897 50.003 39.9361 51.1489 40.1094C51.7164 40.1952 52.2627 40.3832 52.7566 40.6628C53.2506 40.9423 53.6825 41.3079 54.0278 41.7386C54.3731 42.1693 54.6249 42.6567 54.7689 43.173C54.913 43.6892 54.9464 44.2243 54.8672 44.7476Z" fill="#F56F2D"/>
<path d="M38.0999 48.6608C37.8532 49.0377 37.5285 49.3583 37.1442 49.6041C36.7599 49.85 36.3236 50.0163 35.8601 50.0937C35.3967 50.1711 34.9152 50.158 34.4431 50.0551C33.9711 49.9522 33.5177 49.7615 33.109 49.494C32.2834 48.9538 31.6895 48.1333 31.458 47.2131C31.2264 46.2929 31.3761 45.3482 31.8742 44.587C32.1209 44.2101 32.4456 43.8896 32.8299 43.6437C33.2142 43.3979 33.6505 43.2315 34.114 43.1542C34.5774 43.0768 35.0589 43.0899 35.531 43.1928C36.003 43.2957 36.4564 43.4864 36.8651 43.7538C37.6907 44.2941 38.2846 45.1145 38.5161 46.0348C38.7477 46.955 38.598 47.8996 38.0999 48.6608Z" fill="#F56F2D"/>
<path d="M50.739 57.4054C51.4603 58.8713 51.5357 60.5804 50.9486 62.1568C50.3616 63.7332 49.1601 65.0477 47.6086 65.8111C46.8404 66.1892 46.0093 66.4205 45.1628 66.492C44.3164 66.5635 43.4712 66.4737 42.6754 66.2278C41.8796 65.9818 41.1488 65.5846 40.5249 65.0587C39.9009 64.5327 39.3959 63.8885 39.0388 63.1626C38.3175 61.6968 38.2421 59.9876 38.8291 58.4113C39.4162 56.8349 40.6177 55.5204 42.1692 54.7569C42.9375 54.3789 43.7685 54.1476 44.615 54.0761C45.4614 54.0046 46.3067 54.0944 47.1024 54.3403C47.8982 54.5862 48.6289 54.9835 49.2529 55.5094C49.8769 56.0353 50.3818 56.6796 50.739 57.4054Z" fill="#F56F2D"/>
<path d="M32.997 62.2143C32.997 62.8827 32.7316 63.5237 32.259 63.9962C31.7864 64.4688 31.1454 64.7343 30.4771 64.7343C30.1461 64.7343 29.8184 64.6692 29.5127 64.5425C29.207 64.4159 28.9291 64.2302 28.6951 63.9962C28.4611 63.7622 28.2755 63.4844 28.1489 63.1787C28.0222 62.873 27.957 62.5453 27.957 62.2143C27.957 61.8834 28.0222 61.5557 28.1489 61.25C28.2755 60.9442 28.4611 60.6664 28.6951 60.4324C28.9291 60.1984 29.207 60.0128 29.5127 59.8862C29.8184 59.7595 30.1461 59.6943 30.4771 59.6943C31.1454 59.6943 31.7864 59.9598 32.259 60.4324C32.7316 60.905 32.997 61.546 32.997 62.2143Z" fill="#F67A1D"/>
</svg>
