<svg width="119" height="224" viewBox="0 0 119 224" fill="none" xmlns="http://www.w3.org/2000/svg">
<path d="M57.1894 39.9038C46.456 43.0105 38.6794 49.4705 33.8594 59.2838" stroke="#8D94AE" stroke-width="2"/>
<path d="M33.8574 59.2837L23.9374 79.3537C23.2107 80.827 22.1707 81.8837 20.8174 82.5237C15.1274 85.1937 5.3774 85.8537 5.1974 93.8237C5.18925 94.0889 5.20515 94.3406 5.24204 94.5307C5.27894 94.7207 5.33427 94.8357 5.39741 94.8537L8.4474 95.6837C8.53992 95.7087 8.62874 95.7443 8.70851 95.7884C8.78828 95.8325 8.85734 95.8841 8.91154 95.9402C8.96573 95.9962 9.00393 96.0555 9.02384 96.1146C9.04376 96.1736 9.04499 96.2312 9.02741 96.2837C8.75408 97.117 8.83407 97.907 9.26741 98.6537C9.32887 98.7626 9.46766 98.8264 9.65541 98.832C9.84315 98.8376 10.0657 98.7845 10.2774 98.6837C12.9107 97.4104 15.5107 96.0537 18.0774 94.6137C20.2074 93.4237 21.6674 90.7937 23.7374 89.0237C30.9374 82.8837 36.0374 68.9137 40.3574 60.3637" stroke="#FAB4A8" stroke-width="2"/>
<path d="M40.3594 60.364C41.1727 60.2573 41.8994 60.3506 42.5394 60.644C42.6615 60.6958 42.7585 60.7967 42.812 60.9277C42.8655 61.0586 42.8717 61.2103 42.8294 61.3539C39.0594 73.8139 37.5894 87.2739 41.0294 99.8739C43.3094 108.204 48.3894 115.034 50.8094 123.054C50.9147 123.392 50.9217 123.754 50.8297 124.097C50.7377 124.441 50.5504 124.752 50.2894 124.994C41.1427 133.541 31.7494 141.804 22.1094 149.784" stroke="#8D94AE" stroke-width="2"/>
<path d="M22.1094 149.784C20.5427 150.27 19.4594 151.27 18.8594 152.784" stroke="#F7E7AF" stroke-width="2"/>
<path d="M18.8569 152.784C14.2369 156.944 1.78688 166.254 1.29688 172.464" stroke="#8D94AE" stroke-width="2"/>
<path d="M1.29688 172.464C1.35687 175.351 2.31688 177.781 4.17688 179.754C4.40526 179.989 4.5615 180.287 4.62686 180.614C5.61686 185.454 15.0069 191.664 19.8569 193.034" stroke="#9DA2B6" stroke-width="2"/>
<path d="M19.8572 193.034C21.2839 193.574 22.7739 193.727 24.3272 193.494C25.6805 193.287 26.0806 192.54 25.5272 191.254C23.8272 187.294 21.5039 183.75 18.5572 180.624C18.5219 180.585 18.4974 180.538 18.4853 180.484C18.4732 180.431 18.4737 180.372 18.4867 180.311C18.4998 180.251 18.5251 180.19 18.5613 180.132C18.5974 180.074 18.6436 180.02 18.6972 179.974L36.3172 165.074" stroke="#8D94AE" stroke-width="2"/>
<path d="M36.3203 165.074L39.8603 161.864" stroke="#F7E7AF" stroke-width="2"/>
<path d="M39.8594 161.864C49.8394 154.314 63.3194 143.284 72.2994 132.584C84.2094 118.384 68.6994 97.2936 67.7094 82.5536C67.256 75.8803 68.4794 69.4036 71.3794 63.1236C71.4118 63.0507 71.4624 62.9873 71.5261 62.9393C71.5899 62.8914 71.6648 62.8604 71.7439 62.8494C71.8229 62.8384 71.9034 62.8477 71.9779 62.8764C72.0523 62.9052 72.1182 62.9524 72.1694 63.0136C74.9594 66.2436 88.9394 83.4936 92.1094 83.6036C97.176 83.7836 102.253 84.2736 107.339 85.0736C107.591 85.1133 107.825 85.1278 108.021 85.1155C108.216 85.1033 108.367 85.0648 108.459 85.0036L116.709 79.6936C116.992 79.5111 117.189 79.2193 117.259 78.8787C117.33 78.538 117.269 78.1746 117.089 77.8636C111.789 68.8436 97.4394 80.3736 92.6694 73.7736C85.6094 64.0136 78.8594 47.2636 66.7194 39.9536" stroke="#8D94AE" stroke-width="2"/>
<path d="M66.7182 39.9538C77.8382 39.2638 87.3282 32.1638 83.5982 19.7838C83.1982 18.4338 82.2182 17.7938 81.5482 16.5638C81.5142 16.5001 81.4937 16.4293 81.4885 16.3578C81.4833 16.2862 81.4935 16.2161 81.5182 16.1538C81.543 16.0914 81.5815 16.0387 81.6304 16.0003C81.6792 15.9619 81.7369 15.939 81.7982 15.9338L84.9282 15.7038C85.0829 15.6943 85.2346 15.6521 85.374 15.5798C85.5134 15.5075 85.6374 15.4068 85.7382 15.2838C88.6282 11.8338 82.0982 12.7238 80.8182 12.8138C80.4513 12.8398 80.1241 12.7687 79.8982 12.6138C79.1248 12.0805 79.3715 11.5805 80.6382 11.1138C83.7515 9.9538 85.7915 8.0038 86.7582 5.2638C87.2382 3.8838 85.9182 -0.0462184 84.4582 3.18378C82.3382 7.85378 74.6682 8.7838 70.2782 8.1138C62.3782 6.9238 55.3482 7.8638 50.1482 13.9838C45.4982 19.4538 44.7182 26.9638 48.7182 33.0038C50.5915 35.8238 53.4148 38.1238 57.1882 39.9038" stroke="#FEB2A7" stroke-width="2"/>
<path d="M66.7175 39.9538L57.1875 39.9038" stroke="#8C4756" stroke-width="2"/>
<path d="M39.8594 161.864L22.1094 149.784" stroke="#847C5E" stroke-width="2"/>
<path d="M40.3594 60.3639C38.2994 59.3772 36.1327 59.0172 33.8594 59.2838" stroke="#874857" stroke-width="2"/>
<path d="M36.3194 165.074L18.8594 152.784" stroke="#847C5E" stroke-width="2"/>
<path d="M19.8603 193.034C19.6203 191.114 17.0403 190.874 17.8003 189.314C17.8635 189.181 17.9692 189.073 18.1011 189.006C18.2329 188.94 18.3838 188.918 18.5303 188.944C20.7303 189.35 21.2337 188.694 20.0403 186.974C20.0061 186.929 19.8773 186.902 19.6764 186.897C19.4754 186.891 19.215 186.908 18.9403 186.944C17.367 187.144 15.977 187.73 14.7703 188.704C14.6397 188.81 14.4838 188.877 14.3219 188.897C14.1601 188.916 13.9996 188.887 13.8603 188.814C11.6537 187.654 11.5803 186.514 13.6403 185.394C13.8046 185.307 13.9454 185.194 14.0514 185.064C14.1573 184.934 14.2255 184.79 14.2503 184.644C14.397 183.777 14.3503 182.934 14.1103 182.114" stroke="#2B3765" stroke-width="2"/>
<path d="M14.1079 182.114C16.1579 180.674 10.3479 176.554 12.8979 182.074" stroke="#3E4978" stroke-width="2"/>
<path d="M12.8969 182.074C11.4435 185.347 9.82022 185.691 8.02689 183.104C7.77355 182.737 7.80021 182.557 8.10687 182.564C8.27354 182.571 8.35687 182.491 8.35687 182.324C8.35687 182.194 8.41061 182.069 8.50626 181.977C8.6019 181.885 8.73162 181.834 8.86688 181.834C9.82688 181.841 10.1235 181.357 9.75687 180.384C9.70316 180.238 9.68083 180.079 9.69113 179.916C9.70143 179.753 9.74417 179.589 9.81686 179.434C11.4069 176.064 8.32688 177.504 6.86688 177.344C4.05355 177.024 2.19687 175.397 1.29688 172.464" stroke="#2B3765" stroke-width="2"/>
<path d="M12.8984 182.074L14.1084 182.114" stroke="#4E5780" stroke-width="2"/>
<path d="M87.8203 221.324L86.8203 222.324" stroke="#DBE4D9" stroke-width="2"/>
<path d="M53.1563 70.7407C53.2788 70.5483 53.2133 70.2472 52.9741 69.9036C52.7349 69.56 52.3417 69.2021 51.881 68.9086C51.6528 68.7632 51.4149 68.638 51.1809 68.5402C50.9469 68.4424 50.7213 68.3738 50.5171 68.3383C50.3128 68.3029 50.1339 68.3013 49.9905 68.3337C49.8472 68.3661 49.7421 68.4318 49.6815 68.5271C49.559 68.7194 49.6245 69.0205 49.8636 69.3641C50.1028 69.7077 50.496 70.0656 50.9568 70.3592C51.1849 70.5045 51.4228 70.6297 51.6568 70.7275C51.8909 70.8254 52.1164 70.894 52.3207 70.9294C52.5249 70.9648 52.7038 70.9664 52.8472 70.934C52.9906 70.9016 53.0956 70.8359 53.1563 70.7407Z" stroke="#313D6B" stroke-width="2"/>
<path d="M50.0377 76.3139C54.8777 75.4839 45.5578 72.7039 49.1778 76.0639C49.2896 76.1692 49.4256 76.2467 49.575 76.2902C49.7243 76.3336 49.8828 76.3417 50.0377 76.3139Z" stroke="#3E4978" stroke-width="2"/>
<path d="M54.0194 80.734C53.3728 79.9406 52.9228 80.0439 52.6694 81.0439C52.5094 81.6773 52.5061 82.3706 52.6594 83.1239C52.6716 83.1881 52.6977 83.2489 52.7356 83.3018C52.7735 83.3547 52.8223 83.3981 52.8782 83.429C52.9341 83.4598 52.9957 83.4772 53.0583 83.4798C53.1209 83.4824 53.1828 83.4701 53.2394 83.4439C54.6661 82.7439 54.9261 81.8406 54.0194 80.734Z" stroke="#374373" stroke-width="2"/>
<path d="M56.0687 110.804C55.4753 110.857 55.0753 111.207 54.8687 111.854C54.8538 111.904 54.8568 111.957 54.8774 112.01C54.898 112.063 54.9357 112.115 54.9879 112.162C55.0402 112.208 55.1057 112.249 55.1801 112.28C55.2544 112.311 55.3358 112.333 55.4187 112.344C56.752 112.517 57.252 112.22 56.9187 111.454C56.8325 111.249 56.7026 111.074 56.5491 110.957C56.3955 110.839 56.2267 110.786 56.0687 110.804Z" stroke="#313D6B" stroke-width="2"/>
<path d="M53.4503 112.594C49.1203 111.114 53.5603 115.414 53.9203 113.264C53.9434 113.13 53.9088 112.99 53.8227 112.867C53.7366 112.744 53.6046 112.647 53.4503 112.594Z" stroke="#313D6B" stroke-width="2"/>
<path d="M61.3607 114.103C61.4078 114.025 61.4272 113.932 61.4179 113.828C61.4086 113.725 61.3707 113.613 61.3063 113.499C61.242 113.385 61.1526 113.271 61.0431 113.164C60.9336 113.056 60.8062 112.958 60.6682 112.874C60.5302 112.79 60.3842 112.722 60.2387 112.674C60.0932 112.627 59.9509 112.6 59.82 112.595C59.6891 112.59 59.5722 112.608 59.4759 112.648C59.3796 112.687 59.3057 112.747 59.2587 112.825C59.2116 112.902 59.1922 112.995 59.2015 113.099C59.2108 113.203 59.2487 113.315 59.313 113.429C59.3773 113.543 59.4668 113.657 59.5763 113.764C59.6858 113.871 59.8132 113.969 59.9512 114.053C60.0892 114.137 60.2352 114.205 60.3807 114.253C60.5262 114.301 60.6685 114.328 60.7994 114.333C60.9303 114.337 61.0472 114.319 61.1435 114.28C61.2398 114.24 61.3136 114.18 61.3607 114.103Z" stroke="#2B3765" stroke-width="2"/>
<path d="M52.2067 116.384C52.6267 115.404 52.2633 115.06 51.1167 115.354C50.9205 115.407 50.7453 115.504 50.6122 115.634C50.4791 115.764 50.3938 115.92 50.3667 116.084C50.2667 116.63 50.3433 117.127 50.5967 117.574C50.714 117.781 50.8299 117.973 50.9209 118.112C51.0118 118.251 51.0711 118.327 51.0867 118.324C51.8933 118.43 52.18 118.157 51.9467 117.504C51.9174 117.423 51.9263 117.274 51.9724 117.076C52.0184 116.877 52.0998 116.637 52.2067 116.384Z" stroke="#3E4978" stroke-width="2"/>
<path d="M71.4723 118.028C71.5896 117.946 71.6501 117.793 71.6405 117.603C71.6309 117.413 71.5521 117.201 71.4212 117.014C71.2904 116.827 71.1184 116.681 70.9429 116.607C70.7675 116.533 70.603 116.537 70.4857 116.619C70.3684 116.701 70.3078 116.854 70.3174 117.045C70.327 117.235 70.4058 117.447 70.5367 117.633C70.6675 117.82 70.8395 117.967 71.015 118.041C71.1904 118.115 71.3549 118.11 71.4723 118.028Z" stroke="#313D6B" stroke-width="2"/>
<path d="M55.2996 131.564C59.7496 131.964 53.8796 127.934 53.2096 131.214C53.1882 131.32 53.1823 131.43 53.1921 131.535C53.202 131.64 53.2274 131.738 53.2666 131.821C53.3058 131.904 53.3577 131.971 53.4187 132.016C53.4798 132.062 53.5484 132.085 53.6196 132.084C53.8796 132.077 54.1262 131.99 54.3596 131.824C54.6365 131.624 54.9709 131.531 55.2996 131.564Z" stroke="#313D6B" stroke-width="2"/>
<path d="M56.5334 134.703C56.4893 134.644 56.4298 134.597 56.3581 134.566C56.2864 134.535 56.204 134.519 56.1156 134.521C56.0271 134.522 55.9345 134.54 55.8428 134.573C55.7511 134.606 55.6622 134.655 55.5813 134.715C55.4178 134.838 55.2963 135.002 55.2436 135.173C55.1909 135.343 55.2112 135.506 55.3002 135.625C55.3442 135.684 55.4038 135.73 55.4755 135.762C55.5472 135.793 55.6296 135.808 55.718 135.807C55.8064 135.806 55.8991 135.788 55.9907 135.755C56.0824 135.721 56.1713 135.673 56.2523 135.612C56.4158 135.49 56.5372 135.325 56.59 135.155C56.6427 134.984 56.6223 134.822 56.5334 134.703Z" stroke="#2B3765" stroke-width="2"/>
<path d="M41.3773 137.764C40.3273 140.244 45.6674 142.454 42.6074 137.664C42.134 136.924 41.724 136.957 41.3773 137.764Z" stroke="#374373" stroke-width="2"/>
<path d="M50.6068 138.814C50.0001 138.467 49.3535 138.254 48.6668 138.174C48.6077 138.166 48.5493 138.178 48.4964 138.21C48.4434 138.242 48.3974 138.293 48.3623 138.358C48.3271 138.424 48.3037 138.502 48.2941 138.586C48.2844 138.671 48.2888 138.759 48.3068 138.844C48.6201 140.257 49.4101 140.521 50.6768 139.634C50.7429 139.589 50.7953 139.527 50.8291 139.454C50.8629 139.382 50.877 139.301 50.87 139.219C50.863 139.137 50.8352 139.056 50.7891 138.986C50.7431 138.915 50.6803 138.856 50.6068 138.814Z" stroke="#374373" stroke-width="2"/>
<path d="M45.8396 142.194C44.3196 143.667 44.4996 144.17 46.3796 143.704C46.5212 143.669 46.6492 143.591 46.7472 143.48C46.8453 143.37 46.9088 143.232 46.9296 143.084C47.5596 138.454 46.2196 141.814 45.8396 142.194Z" stroke="#313D6B" stroke-width="2"/>
<path d="M66.7182 39.9538L57.1882 39.9038C53.4148 38.1238 50.5915 35.8238 48.7182 33.0038C44.7182 26.9638 45.4982 19.4538 50.1482 13.9838C55.3482 7.8638 62.3782 6.9238 70.2782 8.1138C74.6682 8.7838 82.3382 7.85378 84.4582 3.18378C85.9182 -0.0462184 87.2382 3.8838 86.7582 5.2638C85.7915 8.0038 83.7515 9.9538 80.6382 11.1138C79.3715 11.5805 79.1248 12.0805 79.8982 12.6138C80.1241 12.7687 80.4513 12.8398 80.8182 12.8138C82.0982 12.7238 88.6282 11.8338 85.7382 15.2838C85.6374 15.4068 85.5134 15.5075 85.374 15.5798C85.2346 15.6521 85.0829 15.6943 84.9282 15.7038L81.7982 15.9338C81.7369 15.939 81.6792 15.9619 81.6304 16.0003C81.5815 16.0387 81.543 16.0914 81.5182 16.1538C81.4935 16.2161 81.4833 16.2862 81.4885 16.3578C81.4937 16.4293 81.5142 16.5001 81.5482 16.5638C82.2182 17.7938 83.1982 18.4338 83.5982 19.7838C87.3282 32.1638 77.8382 39.2638 66.7182 39.9538Z" fill="#FD654F"/>
<path d="M57.1894 39.9038L66.7194 39.9538C78.8594 47.2638 85.6094 64.0138 92.6694 73.7738C97.4394 80.3738 111.789 68.8438 117.089 77.8638C117.269 78.1748 117.33 78.5383 117.259 78.8789C117.189 79.2196 116.992 79.5113 116.709 79.6938L108.459 85.0038C108.367 85.065 108.216 85.1035 108.021 85.1158C107.825 85.128 107.591 85.1136 107.339 85.0738C102.253 84.2738 97.176 83.7838 92.1094 83.6038C88.9394 83.4938 74.9594 66.2438 72.1694 63.0138C72.1182 62.9526 72.0523 62.9054 71.9779 62.8766C71.9034 62.8479 71.8229 62.8386 71.7439 62.8496C71.6648 62.8606 71.5899 62.8916 71.5261 62.9395C71.4624 62.9875 71.4118 63.0509 71.3794 63.1238C68.4794 69.4038 67.256 75.8805 67.7094 82.5538C68.6994 97.2938 84.2094 118.384 72.2994 132.584C63.3194 143.284 49.8394 154.314 39.8594 161.864L22.1094 149.784C31.7494 141.804 41.1427 133.541 50.2894 124.994C50.5504 124.751 50.7377 124.441 50.8297 124.097C50.9217 123.754 50.9147 123.392 50.8094 123.054C48.3894 115.034 43.3094 108.204 41.0294 99.8738C37.5894 87.2738 39.0594 73.8138 42.8294 61.3538C42.8717 61.2102 42.8655 61.0585 42.812 60.9276C42.7585 60.7966 42.6615 60.6956 42.5394 60.6438C41.8994 60.3505 41.1727 60.2572 40.3594 60.3638C38.2994 59.3772 36.1327 59.0171 33.8594 59.2838C38.6794 49.4705 46.456 43.0105 57.1894 39.9038ZM53.1568 70.7406C53.2793 70.5483 53.2138 70.2471 52.9746 69.9036C52.7354 69.56 52.3422 69.2021 51.8815 68.9085C51.6533 68.7632 51.4154 68.638 51.1814 68.5402C50.9474 68.4423 50.7218 68.3737 50.5176 68.3383C50.3133 68.3029 50.1344 68.3013 49.991 68.3337C49.8477 68.3661 49.7426 68.4317 49.682 68.527C49.5595 68.7194 49.625 69.0205 49.8641 69.3641C50.1033 69.7077 50.4965 70.0656 50.9573 70.3591C51.1854 70.5045 51.4233 70.6296 51.6573 70.7275C51.8914 70.8253 52.1169 70.8939 52.3212 70.9294C52.5254 70.9648 52.7043 70.9663 52.8477 70.934C52.9911 70.9016 53.0961 70.8359 53.1568 70.7406ZM50.0394 76.3138C54.8794 75.4838 45.5594 72.7038 49.1794 76.0638C49.2912 76.1692 49.4272 76.2467 49.5766 76.2901C49.726 76.3335 49.8844 76.3416 50.0394 76.3138ZM54.0194 80.7338C53.3727 79.9405 52.9227 80.0438 52.6694 81.0438C52.5094 81.6772 52.506 82.3705 52.6594 83.1238C52.6716 83.188 52.6976 83.2488 52.7355 83.3017C52.7734 83.3545 52.8222 83.398 52.8781 83.4289C52.9341 83.4597 52.9956 83.4771 53.0582 83.4797C53.1208 83.4823 53.1828 83.47 53.2394 83.4438C54.666 82.7438 54.926 81.8405 54.0194 80.7338ZM56.0694 110.804C55.476 110.857 55.076 111.207 54.8694 111.854C54.8545 111.904 54.8575 111.957 54.8781 112.01C54.8987 112.063 54.9364 112.115 54.9886 112.162C55.0409 112.208 55.1064 112.249 55.1808 112.28C55.2551 112.311 55.3365 112.333 55.4194 112.344C56.7527 112.517 57.2527 112.22 56.9194 111.454C56.8332 111.249 56.7033 111.074 56.5498 110.957C56.3962 110.839 56.2274 110.786 56.0694 110.804ZM53.4494 112.594C49.1194 111.114 53.5594 115.414 53.9194 113.264C53.9424 113.13 53.9078 112.99 53.8217 112.867C53.7357 112.744 53.6037 112.648 53.4494 112.594ZM61.3604 114.103C61.4075 114.025 61.4269 113.932 61.4176 113.829C61.4082 113.725 61.3703 113.613 61.306 113.499C61.2417 113.385 61.1523 113.271 61.0428 113.164C60.9333 113.056 60.8059 112.958 60.6679 112.874C60.5299 112.79 60.3839 112.722 60.2384 112.675C60.0928 112.627 59.9506 112.6 59.8197 112.595C59.6888 112.59 59.5719 112.608 59.4756 112.648C59.3792 112.687 59.3054 112.747 59.2584 112.825C59.2113 112.902 59.1918 112.995 59.2012 113.099C59.2105 113.203 59.2484 113.315 59.3127 113.429C59.377 113.543 59.4665 113.657 59.576 113.764C59.6855 113.871 59.8128 113.97 59.9509 114.053C60.0889 114.137 60.2348 114.205 60.3804 114.253C60.5259 114.301 60.6682 114.328 60.7991 114.333C60.93 114.337 61.0469 114.319 61.1432 114.28C61.2395 114.24 61.3133 114.18 61.3604 114.103ZM52.2094 116.384C52.6294 115.404 52.2661 115.06 51.1194 115.354C50.9232 115.407 50.748 115.504 50.6149 115.634C50.4818 115.764 50.3965 115.92 50.3694 116.084C50.2694 116.631 50.346 117.127 50.5994 117.574C50.7167 117.781 50.8326 117.973 50.9236 118.112C51.0145 118.251 51.0738 118.327 51.0894 118.324C51.8961 118.43 52.1827 118.157 51.9494 117.504C51.9201 117.423 51.929 117.274 51.9751 117.076C52.0211 116.877 52.1025 116.637 52.2094 116.384ZM71.4727 118.028C71.59 117.946 71.6505 117.793 71.6409 117.603C71.6314 117.413 71.5525 117.201 71.4217 117.014C71.2908 116.827 71.1188 116.681 70.9433 116.607C70.7679 116.533 70.6034 116.537 70.4861 116.619C70.3688 116.701 70.3082 116.854 70.3178 117.045C70.3274 117.235 70.4063 117.447 70.5371 117.634C70.6679 117.82 70.84 117.967 71.0154 118.041C71.1909 118.115 71.3554 118.11 71.4727 118.028ZM55.2994 131.564C59.7494 131.964 53.8794 127.934 53.2094 131.214C53.188 131.321 53.1821 131.43 53.1919 131.535C53.2018 131.64 53.2272 131.738 53.2664 131.821C53.3056 131.904 53.3575 131.971 53.4185 132.016C53.4796 132.062 53.5482 132.085 53.6194 132.084C53.8794 132.077 54.126 131.99 54.3594 131.824C54.6363 131.624 54.9707 131.531 55.2994 131.564ZM56.536 134.703C56.4919 134.644 56.4324 134.597 56.3607 134.566C56.289 134.535 56.2066 134.519 56.1182 134.521C56.0298 134.522 55.9371 134.54 55.8454 134.573C55.7537 134.606 55.6648 134.655 55.5839 134.715C55.4204 134.838 55.2989 135.002 55.2462 135.173C55.1935 135.343 55.2138 135.506 55.3028 135.625C55.3468 135.684 55.4064 135.73 55.4781 135.762C55.5498 135.793 55.6322 135.808 55.7206 135.807C55.809 135.806 55.9017 135.788 55.9933 135.755C56.085 135.721 56.1739 135.673 56.2549 135.612C56.4184 135.49 56.5398 135.325 56.5926 135.155C56.6453 134.984 56.6249 134.822 56.536 134.703ZM41.3794 137.764C40.3294 140.244 45.6694 142.454 42.6094 137.664C42.136 136.924 41.726 136.957 41.3794 137.764ZM50.6094 138.814C50.0027 138.467 49.356 138.254 48.6694 138.174C48.6103 138.165 48.5519 138.178 48.4989 138.21C48.446 138.242 48.4 138.293 48.3648 138.358C48.3297 138.424 48.3063 138.502 48.2966 138.586C48.287 138.671 48.2914 138.759 48.3094 138.844C48.6227 140.257 49.4127 140.52 50.6794 139.634C50.7455 139.589 50.7979 139.527 50.8317 139.454C50.8655 139.382 50.8796 139.301 50.8726 139.219C50.8656 139.136 50.8377 139.056 50.7917 138.986C50.7456 138.915 50.6829 138.856 50.6094 138.814ZM45.8394 142.194C44.3194 143.667 44.4994 144.17 46.3794 143.704C46.5209 143.669 46.649 143.591 46.747 143.481C46.845 143.37 46.9086 143.232 46.9294 143.084C47.5594 138.454 46.2194 141.814 45.8394 142.194Z" fill="#1A285D"/>
<path d="M40.3613 60.3639C36.0413 68.9139 30.9413 82.8839 23.7413 89.0239C21.6713 90.7939 20.2113 93.4239 18.0813 94.6139C15.5146 96.0539 12.9147 97.4105 10.2813 98.6838C10.0696 98.7847 9.84705 98.8377 9.65931 98.8321C9.47157 98.8266 9.33277 98.7628 9.27131 98.6538C8.83798 97.9072 8.75799 97.1172 9.03132 96.2838C9.04889 96.2313 9.04766 96.1738 9.02775 96.1147C9.00784 96.0557 8.96964 95.9964 8.91545 95.9403C8.86125 95.8842 8.79218 95.8326 8.71241 95.7885C8.63264 95.7445 8.54383 95.7088 8.4513 95.6838L5.40132 94.8538C5.33817 94.8359 5.28285 94.7208 5.24595 94.5308C5.20905 94.3408 5.19316 94.0891 5.2013 93.8238C5.3813 85.8538 15.1313 85.1939 20.8213 82.5239C22.1746 81.8839 23.2146 80.8272 23.9413 79.3538L33.8613 59.2838C36.1346 59.0172 38.3013 59.3772 40.3613 60.3639Z" fill="#F46851"/>
<path d="M50.9578 70.3592C51.9173 70.9705 52.902 71.1413 53.1572 70.7407C53.4124 70.3402 52.8414 69.5199 51.8819 68.9086C50.9224 68.2973 49.9377 68.1265 49.6825 68.5271C49.4273 68.9277 49.9982 69.7479 50.9578 70.3592Z" fill="#475179"/>
<path d="M49.1778 76.0639C45.5578 72.7039 54.8777 75.4839 50.0377 76.3139C49.8828 76.3417 49.7243 76.3336 49.575 76.2902C49.4256 76.2467 49.2896 76.1692 49.1778 76.0639Z" fill="#616993"/>
<path d="M54.0194 80.734C54.9261 81.8406 54.6661 82.7439 53.2394 83.4439C53.1828 83.4701 53.1209 83.4824 53.0583 83.4798C52.9957 83.4772 52.9341 83.4598 52.8782 83.429C52.8223 83.3981 52.7735 83.3547 52.7356 83.3018C52.6977 83.2489 52.6716 83.1881 52.6594 83.1239C52.5061 82.3706 52.5094 81.6773 52.6694 81.0439C52.9228 80.0439 53.3728 79.9406 54.0194 80.734Z" fill="#535E88"/>
<path d="M56.9187 111.454C57.252 112.22 56.752 112.517 55.4187 112.344C55.3358 112.333 55.2544 112.311 55.1801 112.28C55.1057 112.249 55.0402 112.208 54.9879 112.162C54.9357 112.115 54.898 112.063 54.8774 112.01C54.8568 111.957 54.8538 111.904 54.8687 111.854C55.0753 111.207 55.4753 110.857 56.0687 110.804C56.2267 110.786 56.3955 110.839 56.5491 110.957C56.7026 111.074 56.8325 111.249 56.9187 111.454Z" fill="#475179"/>
<path d="M53.9203 113.264C53.5603 115.414 49.1203 111.114 53.4503 112.594C53.6046 112.647 53.7366 112.744 53.8227 112.867C53.9088 112.99 53.9434 113.13 53.9203 113.264Z" fill="#475179"/>
<path d="M59.9512 114.054C60.5317 114.406 61.1627 114.429 61.3607 114.103C61.5587 113.777 61.2486 113.227 60.6682 112.874C60.0877 112.521 59.4567 112.499 59.2587 112.825C59.0607 113.151 59.3708 113.701 59.9512 114.054Z" fill="#3B456D"/>
<path d="M51.9506 117.504C52.1839 118.157 51.8972 118.43 51.0906 118.324C51.075 118.327 51.0157 118.251 50.9248 118.112C50.8338 117.973 50.7179 117.781 50.6006 117.574C50.3472 117.127 50.2706 116.63 50.3706 116.084C50.3977 115.92 50.483 115.764 50.6161 115.634C50.7492 115.504 50.9244 115.407 51.1206 115.354C52.2672 115.06 52.6306 115.404 52.2106 116.384C52.1037 116.637 52.0223 116.877 51.9763 117.076C51.9302 117.274 51.9213 117.423 51.9506 117.504Z" fill="#616993"/>
<path d="M70.5383 117.634C70.8107 118.023 71.2296 118.199 71.4739 118.028C71.7182 117.857 71.6954 117.403 71.423 117.014C71.1505 116.625 70.7316 116.448 70.4873 116.619C70.243 116.79 70.2659 117.244 70.5383 117.634Z" fill="#475179"/>
<path d="M53.2096 131.214C53.8796 127.934 59.7496 131.964 55.2996 131.564C54.9709 131.531 54.6365 131.624 54.3596 131.824C54.1262 131.99 53.8796 132.077 53.6196 132.084C53.5484 132.085 53.4798 132.062 53.4187 132.016C53.3577 131.971 53.3058 131.904 53.2666 131.821C53.2274 131.738 53.202 131.64 53.1921 131.535C53.1823 131.43 53.1882 131.32 53.2096 131.214Z" fill="#475179"/>
<path d="M56.2562 135.612C56.5967 135.358 56.7226 134.95 56.5373 134.703C56.3521 134.455 55.9258 134.461 55.5853 134.716C55.2448 134.97 55.1189 135.378 55.3042 135.625C55.4895 135.873 55.9157 135.867 56.2562 135.612Z" fill="#3B456D"/>
<path d="M42.6113 137.664C45.6713 142.454 40.3312 140.244 41.3812 137.764C41.7279 136.957 42.1379 136.924 42.6113 137.664Z" fill="#535E88"/>
<path d="M50.6107 138.814C50.6842 138.856 50.747 138.915 50.793 138.986C50.8391 139.056 50.8669 139.137 50.8739 139.219C50.8809 139.301 50.8669 139.382 50.8331 139.454C50.7993 139.527 50.7468 139.589 50.6807 139.634C49.414 140.521 48.624 140.257 48.3107 138.844C48.2927 138.759 48.2883 138.671 48.298 138.586C48.3076 138.502 48.331 138.424 48.3662 138.358C48.4013 138.293 48.4473 138.242 48.5003 138.21C48.5532 138.178 48.6116 138.166 48.6707 138.174C49.3574 138.254 50.004 138.467 50.6107 138.814Z" fill="#535E88"/>
<path d="M45.8396 142.194C46.2196 141.814 47.5596 138.454 46.9296 143.084C46.9088 143.232 46.8453 143.37 46.7472 143.48C46.6492 143.591 46.5212 143.669 46.3796 143.704C44.4996 144.17 44.3196 143.667 45.8396 142.194Z" fill="#475179"/>
<path d="M22.1094 149.784L39.8594 161.864L36.3194 165.074L18.8594 152.784C19.4594 151.27 20.5427 150.27 22.1094 149.784Z" fill="#EECF5E"/>
<path d="M18.8608 152.784L36.3208 165.074L18.7008 179.974C18.6472 180.02 18.601 180.074 18.5648 180.132C18.5287 180.19 18.5033 180.251 18.4903 180.311C18.4772 180.372 18.4768 180.431 18.4889 180.484C18.501 180.538 18.5254 180.585 18.5608 180.624C21.5075 183.75 23.8308 187.294 25.5308 191.254C26.0841 192.54 25.6841 193.287 24.3308 193.494C22.7774 193.727 21.2874 193.574 19.8608 193.034C19.6208 191.114 17.0408 190.874 17.8008 189.314C17.864 189.181 17.9696 189.073 18.1015 189.006C18.2334 188.94 18.3842 188.918 18.5308 188.944C20.7308 189.35 21.2341 188.694 20.0408 186.974C20.0065 186.929 19.8777 186.902 19.6768 186.897C19.4759 186.891 19.2155 186.908 18.9408 186.944C17.3674 187.144 15.9774 187.73 14.7708 188.704C14.6402 188.81 14.4842 188.877 14.3224 188.896C14.1606 188.916 14 188.887 13.8608 188.814C11.6541 187.654 11.5808 186.514 13.6408 185.394C13.8051 185.307 13.9459 185.194 14.0518 185.064C14.1578 184.933 14.226 184.79 14.2508 184.644C14.3975 183.777 14.3508 182.934 14.1108 182.114C16.1608 180.674 10.3508 176.554 12.9008 182.074C11.4475 185.347 9.82413 185.69 8.03079 183.104C7.77746 182.737 7.80411 182.557 8.11078 182.564C8.27745 182.57 8.36078 182.49 8.36078 182.324C8.36078 182.194 8.41452 182.069 8.51016 181.977C8.60581 181.885 8.73553 181.834 8.87079 181.834C9.83079 181.84 10.1274 181.357 9.76077 180.384C9.70707 180.238 9.68473 180.079 9.69504 179.916C9.70534 179.753 9.74807 179.589 9.82077 179.434C11.4108 176.064 8.33079 177.504 6.87079 177.344C4.05746 177.024 2.20078 175.397 1.30078 172.464C1.79078 166.254 14.2408 156.944 18.8608 152.784Z" fill="#1A285D"/>
<path d="M1.30078 172.464C2.20078 175.397 4.05746 177.024 6.87079 177.344C8.33079 177.504 11.4108 176.064 9.82077 179.434C9.74807 179.589 9.70534 179.753 9.69504 179.916C9.68473 180.079 9.70707 180.238 9.76077 180.384C10.1274 181.357 9.83079 181.841 8.87079 181.834C8.73553 181.834 8.60581 181.885 8.51016 181.977C8.41452 182.069 8.36078 182.194 8.36078 182.324C8.36078 182.491 8.27745 182.571 8.11078 182.564C7.80411 182.557 7.77746 182.737 8.03079 183.104C9.82413 185.691 11.4475 185.347 12.9008 182.074L14.1108 182.114C14.3508 182.934 14.3975 183.777 14.2508 184.644C14.226 184.79 14.1578 184.934 14.0518 185.064C13.9459 185.194 13.8051 185.307 13.6408 185.394C11.5808 186.514 11.6541 187.654 13.8608 188.814C14 188.887 14.1606 188.916 14.3224 188.897C14.4842 188.877 14.6402 188.81 14.7708 188.704C15.9774 187.731 17.3674 187.144 18.9408 186.944C19.2155 186.908 19.4759 186.891 19.6768 186.897C19.8777 186.902 20.0065 186.93 20.0408 186.974C21.2341 188.694 20.7308 189.351 18.5308 188.944C18.3842 188.918 18.2334 188.94 18.1015 189.007C17.9696 189.073 17.864 189.181 17.8008 189.314C17.0408 190.874 19.6208 191.114 19.8608 193.034C15.0108 191.664 5.62077 185.454 4.63077 180.614C4.56541 180.287 4.40917 179.989 4.18079 179.754C2.32079 177.781 1.36078 175.351 1.30078 172.464Z" fill="#3B456D"/>
<path d="M14.1079 182.114L12.8979 182.074C10.3479 176.554 16.1579 180.674 14.1079 182.114Z" fill="#616993"/>
</svg>
