<svg width="145" height="139" viewBox="0 0 145 139" fill="none" xmlns="http://www.w3.org/2000/svg">
<path d="M48.789 2.13255C48.4609 2.4813 48.2308 2.91089 48.122 3.37795C48.0131 3.845 48.0293 4.33297 48.169 4.79255C53.179 21.0225 57.639 35.1025 57.379 53.2325C57.309 58.3125 61.589 57.6325 62.979 53.6625C69.089 36.1325 69.439 15.7725 54.339 2.53255C52.1724 0.632548 50.3223 0.499213 48.789 2.13255Z" stroke="#FEB7A6" stroke-width="2"/>
<path d="M43.7295 53.9828C44.9195 51.9328 44.5096 50.3928 43.9596 47.7728C41.1329 34.1861 33.9829 23.1195 22.5096 14.5728C20.7296 13.2428 -0.710474 -1.9872 1.10953 6.8428C1.17418 7.14689 1.35407 7.43258 1.61954 7.6528C17.6195 20.8728 33.7295 33.9228 41.3095 53.7928C41.9829 55.5461 42.7895 55.6095 43.7295 53.9828Z" stroke="#FCB5A5" stroke-width="2"/>
<path d="M84.4696 38.9626C83.5496 40.4426 82.9296 41.9093 82.6096 43.3626C81.0896 50.2293 79.1963 56.9826 76.9296 63.6226C76.2629 65.5826 76.9096 66.3193 78.8696 65.8326C80.1796 65.5026 82.2596 63.3326 82.9996 62.6826C89.3863 57.0826 92.4663 49.8993 92.2396 41.1326C92.1996 39.6926 91.8129 38.6493 91.0796 38.0026C88.4929 35.7026 86.2896 36.0226 84.4696 38.9626Z" stroke="#FEB7A6" stroke-width="2"/>
<path d="M3.59236 43.8828C2.85236 45.1295 2.67566 46.4495 3.06233 47.8428C5.02233 54.8628 14.7723 58.6328 21.8123 61.3828C23.7457 62.1428 25.3923 62.5461 26.7523 62.5928C28.2257 62.6528 28.6524 62.0161 28.0324 60.6828C24.8857 53.9028 20.5257 48.3995 14.9523 44.1728C11.8123 41.7928 6.19236 39.5228 3.59236 43.8828Z" stroke="#FCB5A5" stroke-width="2"/>
<path d="M104.129 60.5726C100.036 65.866 94.5657 71.3093 87.7191 76.9026C84.8657 79.236 85.3591 80.0793 89.1991 79.4326C94.0191 78.6126 102.849 74.2226 106.249 71.4426C109.029 69.1693 110.929 66.1293 111.949 62.3226C112.034 62.0028 112.027 61.6666 111.929 61.3526C110.262 56.2593 107.662 55.9993 104.129 60.5726Z" stroke="#FCB5A5" stroke-width="2"/>
<path d="M138.462 64.9125C128.429 76.2858 116.099 83.9325 101.472 87.8525C99.3421 88.4225 97.372 89.4025 95.492 90.3925C95.4231 90.4283 95.3635 90.4797 95.3178 90.5427C95.2722 90.6056 95.2419 90.6783 95.2293 90.7549C95.2167 90.8316 95.2221 90.9102 95.2452 90.9844C95.2682 91.0586 95.3082 91.1264 95.362 91.1825C96.712 92.6025 98.0121 93.2825 100.082 93.3625C112.452 93.8725 126.722 90.1725 135.412 81.1725C139.272 77.1625 144.792 69.4025 143.662 63.3825C143.329 61.6025 142.452 61.2725 141.032 62.3925C140.285 62.9791 139.429 63.8191 138.462 64.9125Z" stroke="#FCB5A5" stroke-width="2"/>
<path d="M18.4415 136.883C20.8115 138.123 31.7415 134.613 34.5915 133.683C42.9515 130.933 91.8515 111.833 82.5915 97.8428C80.8115 95.1528 75.8915 93.0728 72.8315 91.2328C71.7515 90.5861 71.2415 89.6328 71.3015 88.3728C71.6715 80.4728 70.9115 69.5228 63.6015 64.7228C54.0615 58.4628 40.2515 71.8328 33.1415 77.3628C31.5282 78.6161 29.7015 79.2094 27.6615 79.1428C22.1715 78.9728 14.1615 77.3028 10.4815 82.9528C6.21148 89.5228 7.03152 95.7728 7.77152 105.023C8.27152 111.233 9.4015 136.733 18.4415 136.883Z" stroke="#FCB5A5" stroke-width="2"/>
<path d="M18.4407 136.883C18.994 136.723 19.3907 136.533 19.6307 136.313C28.204 128.273 37.304 120.883 46.9307 114.143C53.1607 109.783 58.3507 108.593 64.6807 106.163C66.6907 105.393 68.2807 104.183 69.8707 102.843C71.1107 101.809 71.1407 100.743 69.9607 99.6427C67.3307 97.2027 59.0907 97.7827 55.2607 97.5227C53.694 97.4161 53.264 96.6594 53.9707 95.2527C55.6307 91.9627 68.6407 67.4628 57.4007 67.8428C49.6407 68.1128 41.8207 88.5627 38.1407 94.4227C38.0508 94.5654 37.9317 94.6873 37.791 94.7807C37.6503 94.8741 37.491 94.9369 37.3234 94.9652C37.1558 94.9934 36.9837 94.9865 36.8179 94.9447C36.6521 94.903 36.4963 94.8274 36.3606 94.7227C32.5073 91.7827 28.3573 89.3527 23.9106 87.4327C22.8573 86.9794 22.0107 87.2761 21.3707 88.3227C19.3907 91.6027 21.4007 96.7028 22.4507 100.153C26.4107 113.273 22.4207 121.173 17.3907 132.863C16.6407 134.583 16.9107 135.873 18.4407 136.883Z" stroke="#904E5B" stroke-width="2"/>
<path d="M100.141 114.003C106.121 125.593 120.951 114.343 109.991 106.113C106.231 103.286 101.934 101.859 97.1008 101.833C97.0023 101.833 96.905 101.854 96.8157 101.896C96.7263 101.937 96.647 101.998 96.5833 102.073C96.5196 102.148 96.4729 102.236 96.4466 102.331C96.4203 102.426 96.4149 102.525 96.4308 102.623C97.0975 106.703 98.3342 110.496 100.141 114.003Z" stroke="#FEB7A6" stroke-width="2"/>
<path d="M48.7929 2.13255C50.3262 0.499213 52.1763 0.632548 54.3429 2.53255C69.4429 15.7725 69.0929 36.1325 62.9829 53.6625C61.5929 57.6325 57.3129 58.3125 57.3829 53.2325C57.6429 35.1025 53.1829 21.0225 48.1729 4.79255C48.0332 4.33297 48.017 3.845 48.1259 3.37795C48.2348 2.91089 48.4648 2.4813 48.7929 2.13255Z" fill="#FE725E"/>
<path d="M43.7295 53.9823C42.7895 55.609 41.9829 55.5457 41.3095 53.7923C33.7295 33.9223 17.6195 20.8723 1.61954 7.65231C1.35407 7.43209 1.17418 7.14641 1.10953 6.84231C-0.710474 -1.98769 20.7295 13.2423 22.5096 14.5723C33.9829 23.119 41.1329 34.1856 43.9596 47.7723C44.5096 50.3923 44.9195 51.9323 43.7295 53.9823Z" fill="#FA6F5C"/>
<path d="M84.4696 38.9621C86.2896 36.0221 88.4929 35.7021 91.0796 38.0021C91.8129 38.6488 92.1996 39.6921 92.2396 41.1321C92.4663 49.8988 89.3863 57.0821 82.9996 62.6821C82.2596 63.3321 80.1796 65.5021 78.8696 65.8321C76.9096 66.3188 76.2629 65.5821 76.9296 63.6221C79.1963 56.9821 81.0896 50.2288 82.6096 43.3621C82.9296 41.9088 83.5496 40.4421 84.4696 38.9621Z" fill="#FE725E"/>
<path d="M3.59236 43.8823C6.19236 39.5223 11.8123 41.7923 14.9523 44.1723C20.5257 48.399 24.8857 53.9023 28.0324 60.6823C28.6524 62.0156 28.2257 62.6523 26.7523 62.5923C25.3923 62.5456 23.7457 62.1423 21.8123 61.3823C14.7723 58.6323 5.02233 54.8623 3.06233 47.8423C2.67566 46.449 2.85236 45.129 3.59236 43.8823Z" fill="#FA6F5C"/>
<path d="M104.133 60.5722C107.666 55.9988 110.266 56.2588 111.933 61.3521C112.031 61.6661 112.038 62.0023 111.953 62.3222C110.933 66.1288 109.033 69.1688 106.253 71.4421C102.853 74.2221 94.023 78.6122 89.203 79.4322C85.363 80.0788 84.8697 79.2355 87.723 76.9022C94.5697 71.3088 100.04 65.8655 104.133 60.5722Z" fill="#FA6F5C"/>
<path d="M138.462 64.9125C139.429 63.8191 140.285 62.9791 141.032 62.3925C142.452 61.2725 143.329 61.6025 143.662 63.3825C144.792 69.4025 139.272 77.1625 135.412 81.1725C126.722 90.1725 112.452 93.8725 100.082 93.3625C98.0121 93.2825 96.712 92.6025 95.362 91.1825C95.3082 91.1264 95.2682 91.0586 95.2452 90.9844C95.2221 90.9102 95.2167 90.8316 95.2293 90.7549C95.2419 90.6783 95.2722 90.6056 95.3178 90.5427C95.3635 90.4797 95.4231 90.4283 95.492 90.3925C97.372 89.4025 99.3421 88.4225 101.472 87.8525C116.099 83.9325 128.429 76.2858 138.462 64.9125Z" fill="#FA6F5C"/>
<path d="M18.4415 136.882C18.9948 136.722 19.3915 136.532 19.6315 136.312C28.2048 128.272 37.3048 120.882 46.9315 114.142C53.1615 109.782 58.3515 108.592 64.6815 106.162C66.6915 105.392 68.2815 104.182 69.8715 102.842C71.1115 101.809 71.1415 100.742 69.9615 99.6423C67.3315 97.2023 59.0915 97.7823 55.2615 97.5223C53.6948 97.4156 53.2649 96.6589 53.9715 95.2523C55.6315 91.9623 68.6415 67.4623 57.4015 67.8423C49.6415 68.1123 41.8215 88.5623 38.1415 94.4223C38.0517 94.5649 37.9326 94.6868 37.7918 94.7802C37.6511 94.8736 37.4918 94.9365 37.3243 94.9647C37.1567 94.993 36.9845 94.986 36.8187 94.9442C36.6529 94.9025 36.4972 94.8269 36.3615 94.7223C32.5082 91.7823 28.3581 89.3523 23.9115 87.4323C22.8581 86.979 22.0115 87.2756 21.3715 88.3223C19.3915 91.6023 21.4015 96.7023 22.4515 100.152C26.4115 113.272 22.4215 121.172 17.3915 132.862C16.6415 134.582 16.9115 135.872 18.4415 136.882C9.4015 136.732 8.27152 111.232 7.77152 105.022C7.03152 95.7723 6.21148 89.5223 10.4815 82.9523C14.1615 77.3023 22.1715 78.9723 27.6615 79.1423C29.7015 79.2089 31.5282 78.6156 33.1415 77.3623C40.2515 71.8323 54.0615 58.4623 63.6015 64.7223C70.9115 69.5223 71.6715 80.4723 71.3015 88.3723C71.2415 89.6323 71.7515 90.5856 72.8315 91.2323C75.8915 93.0723 80.8115 95.1523 82.5915 97.8423C91.8515 111.832 42.9515 130.932 34.5915 133.682C31.7415 134.612 20.8115 138.122 18.4415 136.882Z" fill="#FA6F5C"/>
<path d="M18.4407 136.882C16.9107 135.872 16.6407 134.582 17.3907 132.862C22.4207 121.172 26.4107 113.272 22.4507 100.152C21.4007 96.7023 19.3907 91.6023 21.3707 88.3223C22.0107 87.2756 22.8573 86.9789 23.9106 87.4323C28.3573 89.3523 32.5073 91.7823 36.3606 94.7223C36.4963 94.8269 36.6521 94.9025 36.8179 94.9442C36.9837 94.986 37.1558 94.9929 37.3234 94.9647C37.491 94.9365 37.6503 94.8736 37.791 94.7802C37.9317 94.6868 38.0508 94.5649 38.1407 94.4223C41.8207 88.5623 49.6407 68.1123 57.4007 67.8423C68.6407 67.4623 55.6307 91.9623 53.9707 95.2523C53.264 96.6589 53.694 97.4156 55.2607 97.5223C59.0907 97.7823 67.3307 97.2023 69.9607 99.6423C71.1407 100.742 71.1107 101.809 69.8707 102.842C68.2807 104.182 66.6907 105.392 64.6807 106.162C58.3507 108.592 53.1607 109.782 46.9307 114.142C37.304 120.882 28.204 128.272 19.6307 136.312C19.3907 136.532 18.994 136.722 18.4407 136.882Z" fill="#252C59"/>
<path d="M109.991 106.113C120.951 114.343 106.121 125.593 100.141 114.003C98.3342 110.496 97.0975 106.703 96.4308 102.623C96.4149 102.525 96.4203 102.426 96.4466 102.331C96.4729 102.236 96.5196 102.148 96.5833 102.073C96.647 101.998 96.7263 101.937 96.8157 101.896C96.905 101.854 97.0023 101.833 97.1008 101.833C101.934 101.859 106.231 103.286 109.991 106.113Z" fill="#FE725E"/>
</svg>
