<svg width="25" height="29" viewBox="0 0 25 29" fill="none" xmlns="http://www.w3.org/2000/svg">
<path d="M8.41392 22.8977L10.1639 27.3977C10.2198 27.5398 10.3349 27.6535 10.4867 27.7165C10.6385 27.7794 10.8159 27.787 10.9839 27.7377C13.7939 26.9177 15.0839 22.5077 16.1039 19.9777C16.1397 19.889 16.1869 19.805 16.2422 19.7315C16.2976 19.6579 16.3598 19.5967 16.4245 19.552C16.4893 19.5072 16.5549 19.4801 16.617 19.4725C16.6791 19.4648 16.736 19.4769 16.7839 19.5077L20.4839 21.8477C20.7569 22.0233 21.0483 22.1111 21.3139 22.0977C24.9639 21.8877 19.7039 14.1978 19.0639 12.7778C18.9978 12.6297 18.9658 12.4746 18.9711 12.3286C18.9763 12.1827 19.0187 12.0512 19.0939 11.9477L23.454 6.01774C24.434 4.67774 24.1039 3.88441 22.4639 3.63774C20.1739 3.28774 18.9739 3.68775 17.4839 5.58775C14.0239 10.0278 15.7339 2.45774 12.4339 1.60774C12.2164 1.55309 12.002 1.54108 11.8221 1.57347C11.6421 1.60585 11.5061 1.68093 11.4339 1.78773C10.0806 3.7144 8.2973 5.00108 6.08397 5.64775C5.92082 5.69628 5.77429 5.78506 5.65989 5.90474C5.5455 6.02441 5.46746 6.17053 5.43394 6.32774C4.98061 8.47441 5.20727 10.5277 6.11393 12.4877C6.16724 12.6078 6.18148 12.7422 6.15464 12.8728C6.12781 13.0034 6.06119 13.1238 5.96391 13.2178C3.63391 15.4278 -0.266088 18.8377 1.40391 22.3977C1.99058 23.6511 3.00729 24.0111 4.45396 23.4777L7.72392 22.2677C7.82759 22.2289 7.95823 22.2732 8.08745 22.3912C8.21666 22.5092 8.33401 22.6912 8.41392 22.8977Z" stroke="#FBB5A0" stroke-width="2"/>
<path d="M7.72392 22.2682L4.45396 23.4782C3.00729 24.0116 1.99058 23.6516 1.40391 22.3982C-0.266088 18.8382 3.63391 15.4282 5.96391 13.2182C6.06119 13.1243 6.12781 13.0039 6.15464 12.8733C6.18148 12.7427 6.16724 12.6083 6.11393 12.4882C5.20727 10.5282 4.98061 8.4749 5.43394 6.32823C5.46746 6.17102 5.5455 6.0249 5.65989 5.90522C5.77429 5.78555 5.92082 5.69677 6.08397 5.64824C8.2973 5.00157 10.0806 3.71489 11.4339 1.78822C11.5061 1.68142 11.6421 1.60634 11.8221 1.57396C12.002 1.54157 12.2164 1.55358 12.4339 1.60823C15.7339 2.45823 14.0239 10.0282 17.4839 5.58824C18.9739 3.68824 20.1739 3.28823 22.4639 3.63823C24.1039 3.88489 24.434 4.67823 23.454 6.01823L19.0939 11.9482C19.0187 12.0516 18.9763 12.1832 18.9711 12.3291C18.9658 12.4751 18.9978 12.6302 19.0639 12.7782C19.7039 14.1982 24.9639 21.8882 21.3139 22.0982C21.0483 22.1115 20.7569 22.0238 20.4839 21.8482L16.7839 19.5082C16.736 19.4773 16.6791 19.4653 16.617 19.4729C16.5549 19.4806 16.4893 19.5077 16.4245 19.5524C16.3598 19.5972 16.2976 19.6584 16.2422 19.7319C16.1869 19.8055 16.1397 19.8895 16.1039 19.9782C15.0839 22.5082 13.7939 26.9182 10.9839 27.7382C10.8159 27.7875 10.6385 27.7799 10.4867 27.717C10.3349 27.654 10.2198 27.5403 10.1639 27.3982L8.41392 22.8982C8.33401 22.6917 8.21666 22.5097 8.08745 22.3917C7.95823 22.2737 7.82759 22.2293 7.72392 22.2682Z" fill="#F76A40"/>
</svg>
