<svg width="66" height="67" viewBox="0 0 66 67" fill="none" xmlns="http://www.w3.org/2000/svg">
<path d="M52.9881 24.5922C54.8548 19.4655 56.9915 14.4422 59.3981 9.52221C63.4381 1.27221 39.9281 12.6922 38.6981 13.2522C38.4589 13.3628 38.1954 13.4116 37.9316 13.3941C37.6679 13.3767 37.4123 13.2935 37.1881 13.1522C32.6781 10.2922 18.5581 0.472212 13.7581 1.02221C13.6481 1.0335 13.5417 1.0685 13.4452 1.12515C13.3486 1.18181 13.2639 1.25898 13.1959 1.35214C13.1278 1.44529 13.078 1.55255 13.0492 1.66762C13.0204 1.78269 13.0132 1.90325 13.0281 2.02221C13.8548 8.74888 15.9348 15.0889 19.2681 21.0422C19.9415 22.2489 19.8281 23.4455 18.9281 24.6322C13.6615 31.5189 8.38815 37.7522 3.10815 43.3322C-2.28185 49.0322 3.92814 49.5622 7.66814 49.3122C14.7215 48.8322 21.9415 48.5789 29.3281 48.5522C29.5678 48.5521 29.8038 48.6114 30.015 48.7249C30.2262 48.8383 30.4059 49.0023 30.5381 49.2022C33.3715 53.5222 36.1915 57.9155 38.9981 62.3822C42.5681 68.0722 44.7681 64.7722 45.0481 60.1122C45.2615 56.5589 45.6715 53.0189 46.2781 49.4922C46.3585 49.0192 46.5978 48.5871 46.9572 48.2658C47.3165 47.9446 47.7749 47.753 48.2581 47.7222L62.7681 46.7922C64.4815 46.6855 64.8915 45.8255 63.9981 44.2122C60.6381 38.0922 55.4081 31.7622 52.9981 25.5322C52.8821 25.2362 52.8785 24.9024 52.9881 24.5922Z" stroke="#FBB5A0" stroke-width="2"/>
<path d="M52.9981 25.5322C55.4081 31.7622 60.6381 38.0922 63.9981 44.2122C64.8915 45.8255 64.4815 46.6855 62.7681 46.7922L48.2581 47.7222C47.7749 47.753 47.3165 47.9446 46.9572 48.2658C46.5978 48.5871 46.3585 49.0192 46.2781 49.4922C45.6715 53.0189 45.2615 56.5589 45.0481 60.1122C44.7681 64.7722 42.5681 68.0722 38.9981 62.3822C36.1915 57.9155 33.3715 53.5222 30.5381 49.2022C30.4059 49.0023 30.2262 48.8383 30.015 48.7249C29.8038 48.6114 29.5678 48.5521 29.3281 48.5522C21.9415 48.5789 14.7215 48.8322 7.66814 49.3122C3.92814 49.5622 -2.28185 49.0322 3.10815 43.3322C8.38815 37.7522 13.6615 31.5189 18.9281 24.6322C19.8281 23.4455 19.9415 22.2489 19.2681 21.0422C15.9348 15.0889 13.8548 8.74888 13.0281 2.02221C13.0132 1.90325 13.0204 1.78269 13.0492 1.66762C13.078 1.55255 13.1278 1.44529 13.1959 1.35214C13.2639 1.25898 13.3486 1.18181 13.4452 1.12515C13.5417 1.0685 13.6481 1.0335 13.7581 1.02221C18.5581 0.472212 32.6781 10.2922 37.1881 13.1522C37.4123 13.2935 37.6679 13.3767 37.9316 13.3941C38.1954 13.4116 38.4589 13.3628 38.6981 13.2522C39.9281 12.6922 63.4381 1.27221 59.3981 9.52221C56.9915 14.4422 54.8548 19.4655 52.9881 24.5922C52.8785 24.9024 52.8821 25.2362 52.9981 25.5322Z" fill="#F76A40"/>
</svg>
