<svg width="26" height="59" viewBox="0 0 26 59" fill="none" xmlns="http://www.w3.org/2000/svg">
<path d="M7.79005 8.73896C8.15147 8.65818 8.48878 8.48608 8.78267 8.23243C9.07656 7.97878 9.32129 7.64856 9.50291 7.26066C9.68454 6.87276 9.79947 6.43475 9.84117 5.97166C9.88287 5.50856 9.85052 5.02944 9.74596 4.56165C9.53478 3.61693 9.04231 2.77574 8.37688 2.22309C7.71144 1.67044 6.92757 1.4516 6.19768 1.61475C5.83626 1.69553 5.49895 1.86767 5.20506 2.12131C4.91117 2.37496 4.66644 2.70516 4.48482 3.09305C4.30319 3.48095 4.18826 3.91896 4.14656 4.38206C4.10486 4.84515 4.13721 5.32427 4.24178 5.79206C4.45295 6.73678 4.94542 7.578 5.61086 8.13065C6.27629 8.6833 7.06016 8.90211 7.79005 8.73896Z" stroke="#989899" stroke-width="2"/>
<path d="M17.4288 14.7595C18.0267 14.8024 18.6217 14.5408 19.0831 14.0324C19.5444 13.524 19.8343 12.8104 19.8889 12.0485C19.9435 11.2867 19.7584 10.539 19.3743 9.96994C18.9901 9.40091 18.4384 9.05717 17.8406 9.01431C17.2427 8.97146 16.6477 9.23301 16.1863 9.74142C15.725 10.2498 15.4351 10.9635 15.3805 11.7253C15.3259 12.4872 15.511 13.2349 15.8951 13.8039C16.2793 14.3729 16.831 14.7167 17.4288 14.7595Z" stroke="#8A8C8F" stroke-width="2"/>
<path d="M5.96823 27.7472C6.52266 27.8232 7.1004 27.5599 7.5744 27.0154C8.0484 26.4708 8.37982 25.6895 8.49573 24.8434C8.55312 24.4245 8.55588 24.0022 8.50384 23.6008C8.45181 23.1993 8.34599 22.8265 8.19244 22.5037C8.0389 22.1809 7.84065 21.9143 7.60898 21.7193C7.37731 21.5242 7.11675 21.4044 6.84222 21.3668C6.2878 21.2909 5.71002 21.5541 5.23602 22.0987C4.76202 22.6433 4.43064 23.4245 4.31473 24.2706C4.25734 24.6896 4.25457 25.1118 4.30661 25.5133C4.35865 25.9147 4.46447 26.2875 4.61801 26.6104C4.77155 26.9332 4.9698 27.1998 5.20148 27.3948C5.43315 27.5899 5.6937 27.7096 5.96823 27.7472Z" stroke="#8F8F90" stroke-width="2"/>
<path d="M22.7268 26.3572C22.9828 26.3581 23.2366 26.2969 23.4737 26.1771C23.7107 26.0573 23.9263 25.8813 24.1081 25.659C24.29 25.4368 24.4345 25.1727 24.5335 24.8819C24.6325 24.591 24.684 24.2791 24.6851 23.9639C24.6874 23.3274 24.4841 22.7163 24.12 22.2649C23.7558 21.8135 23.2607 21.5589 22.7435 21.5571C22.4875 21.5562 22.2337 21.6174 21.9967 21.7372C21.7597 21.857 21.5441 22.033 21.3622 22.2553C21.1803 22.4775 21.0358 22.7416 20.9368 23.0324C20.8378 23.3233 20.7863 23.6352 20.7852 23.9504C20.783 24.5869 20.9862 25.198 21.3504 25.6494C21.7145 26.1008 22.2096 26.3553 22.7268 26.3572Z" stroke="#8A8C8F" stroke-width="2"/>
<path d="M2.86811 42.6976C3.11316 42.7623 3.37561 42.7514 3.64051 42.6654C3.90541 42.5795 4.16756 42.4202 4.412 42.1966C4.65643 41.9731 4.87835 41.6896 5.0651 41.3625C5.25185 41.0354 5.39977 40.671 5.50041 40.2901C5.60105 39.9092 5.65242 39.5192 5.65162 39.1425C5.65082 38.7659 5.59785 38.4098 5.49574 38.0947C5.39362 37.7796 5.24435 37.5116 5.05647 37.306C4.86858 37.1004 4.64576 36.9613 4.40071 36.8966C4.15566 36.8318 3.89321 36.8428 3.62831 36.9287C3.3634 37.0147 3.10125 37.174 2.85682 37.3975C2.61239 37.6211 2.39046 37.9045 2.20371 38.2316C2.01697 38.5588 1.86905 38.9232 1.76841 39.3041C1.66777 39.685 1.6164 40.0749 1.6172 40.4516C1.618 40.8283 1.67096 41.1843 1.77308 41.4995C1.8752 41.8146 2.02446 42.0826 2.21235 42.2881C2.40024 42.4937 2.62306 42.6328 2.86811 42.6976Z" stroke="#8F8F90" stroke-width="2"/>
<path d="M21.2234 40.0868C21.2234 39.5962 21.0285 39.1256 20.6816 38.7787C20.3346 38.4317 19.8641 38.2368 19.3734 38.2368C18.8828 38.2368 18.4122 38.4317 18.0652 38.7787C17.7183 39.1256 17.5234 39.5962 17.5234 40.0868C17.5234 40.5775 17.7183 41.048 18.0652 41.395C18.4122 41.7419 18.8828 41.9368 19.3734 41.9368C19.8641 41.9368 20.3346 41.7419 20.6816 41.395C21.0285 41.048 21.2234 40.5775 21.2234 40.0868Z" stroke="#8A8C8F" stroke-width="2"/>
<path d="M18.9438 55.5368C18.9438 55.0594 18.7541 54.6016 18.4165 54.264C18.079 53.9265 17.6212 53.7368 17.1438 53.7368C16.6664 53.7368 16.2085 53.9265 15.8709 54.264C15.5334 54.6016 15.3438 55.0594 15.3438 55.5368C15.3438 56.0142 15.5334 56.4721 15.8709 56.8096C16.2085 57.1472 16.6664 57.3368 17.1438 57.3368C17.6212 57.3368 18.079 57.1472 18.4165 56.8096C18.7541 56.4721 18.9438 56.0142 18.9438 55.5368Z" stroke="#8A8C8F" stroke-width="2"/>
<path d="M4.24127 5.79242C4.68101 7.75972 6.26964 9.0791 7.78958 8.73936C9.30951 8.39961 10.1852 6.52939 9.74544 4.5621C9.3057 2.5948 7.71707 1.27542 6.19713 1.61516C4.6772 1.95491 3.80153 3.82513 4.24127 5.79242Z" fill="#303132"/>
<path d="M15.3794 11.7257C15.2657 13.3122 16.1827 14.6707 17.4277 14.7599C18.6727 14.8492 19.7741 13.6354 19.8878 12.0489C20.0016 10.4624 19.0845 9.10393 17.8395 9.01469C16.5946 8.92544 15.4931 10.1392 15.3794 11.7257Z" fill="#14181E"/>
<path d="M4.31173 24.2708C4.07038 26.0327 4.81066 27.5892 5.9652 27.7474C7.11974 27.9055 8.25133 26.6054 8.49268 24.8435C8.73403 23.0816 7.99375 21.5251 6.83921 21.367C5.68467 21.2088 4.55308 22.5089 4.31173 24.2708Z" fill="#1E1E21"/>
<path d="M20.7831 23.9503C20.7784 25.2758 21.6477 26.3534 22.7247 26.3571C23.8016 26.3609 24.6784 25.2894 24.683 23.964C24.6877 22.6385 23.8184 21.5609 22.7414 21.5572C21.6645 21.5534 20.7877 22.6249 20.7831 23.9503Z" fill="#14181E"/>
<path d="M1.76735 39.3041C1.34411 40.906 1.83643 42.4253 2.86698 42.6976C3.89753 42.9699 5.07605 41.892 5.49929 40.2901C5.92252 38.6882 5.4302 37.1689 4.39966 36.8966C3.36911 36.6244 2.19059 37.7022 1.76735 39.3041Z" fill="#1E1E21"/>
<path d="M19.3734 41.9373C20.3951 41.9373 21.2234 41.109 21.2234 40.0873C21.2234 39.0656 20.3951 38.2373 19.3734 38.2373C18.3517 38.2373 17.5234 39.0656 17.5234 40.0873C17.5234 41.109 18.3517 41.9373 19.3734 41.9373Z" fill="#14181E"/>
<path d="M17.1438 57.3373C18.1379 57.3373 18.9438 56.5314 18.9438 55.5373C18.9438 54.5432 18.1379 53.7373 17.1438 53.7373C16.1497 53.7373 15.3438 54.5432 15.3438 55.5373C15.3438 56.5314 16.1497 57.3373 17.1438 57.3373Z" fill="#14181E"/>
</svg>
