<svg width="63" height="163" viewBox="0 0 63 163" fill="none" xmlns="http://www.w3.org/2000/svg">
<path d="M35.4676 1.74344C21.7276 -3.47655 16.0876 20.1834 13.7476 29.3334C13.1176 31.7734 12.8876 34.6134 12.1976 37.2334C11.3176 40.5934 10.8243 42.5268 10.7176 43.0334C7.74762 57.6934 4.27762 72.5334 3.09762 87.3034C2.01762 100.823 1.32427 114.367 1.0176 127.933C0.930937 131.567 1.16428 134.48 1.71762 136.673C5.54762 151.893 25.5176 166.463 41.2176 159.813C58.0176 152.693 61.7576 140.703 61.8676 123.713C61.9142 117.4 61.6209 112.04 60.9876 107.633C57.1876 81.0134 48.9976 50.6134 46.7676 22.3334C46.1876 14.9534 42.9476 4.58344 35.4676 1.74344Z" stroke="#88868E" stroke-width="2"/>
<path d="M32.0845 30.2824C33.7552 30.3028 35.3676 29.507 36.5667 28.07C37.7658 26.6331 38.4535 24.6726 38.4786 22.62C38.5037 20.5674 37.8641 18.5907 36.7004 17.1249C35.5368 15.659 33.9444 14.824 32.2737 14.8036C30.603 14.7832 28.9907 15.579 27.7916 17.016C26.5925 18.453 25.9047 20.4134 25.8796 22.466C25.8545 24.5186 26.4942 26.4953 27.6578 27.9611C28.8215 29.427 30.4138 30.262 32.0845 30.2824Z" stroke="#87808A" stroke-width="2"/>
<path d="M36.3251 48.6545C36.4342 48.4921 36.4992 48.3023 36.5162 48.0959C36.5331 47.8895 36.5019 47.6706 36.4241 47.4517C36.3464 47.2327 36.2237 47.0181 36.063 46.8199C35.9024 46.6217 35.7069 46.444 35.4878 46.2967C35.0454 45.9994 34.5335 45.8446 34.0648 45.8663C33.5961 45.8879 33.2089 46.0844 32.9885 46.4123C32.8794 46.5748 32.8144 46.7646 32.7975 46.971C32.7805 47.1773 32.8118 47.3963 32.8895 47.6152C32.9673 47.8341 33.09 48.0488 33.2506 48.247C33.4113 48.4452 33.6067 48.6229 33.8258 48.7701C34.2682 49.0674 34.7801 49.2223 35.2488 49.2006C35.7175 49.1789 36.1047 48.9825 36.3251 48.6545Z" stroke="#1C1934" stroke-width="2"/>
<path d="M33.6892 51.523C32.9559 52.5964 32.5493 53.7797 32.4693 55.073C32.4619 55.2071 32.5362 55.3537 32.6799 55.4883C32.8236 55.6229 33.028 55.7375 33.2592 55.813L36.8292 57.003C36.9752 57.0517 37.1302 57.0626 37.2792 57.0345C37.4282 57.0065 37.566 56.9405 37.6792 56.843C38.6092 56.043 35.9992 52.493 35.6492 51.803C35.5547 51.6171 35.4166 51.4546 35.2485 51.3314C35.0804 51.2082 34.8881 51.1286 34.6904 51.1003C34.4928 51.0721 34.2965 51.0962 34.121 51.1703C33.9455 51.2444 33.7967 51.366 33.6892 51.523Z" stroke="#1C1934" stroke-width="2"/>
<path d="M31.7345 79.0172C33.0154 79.0619 34.2932 78.8379 35.4948 78.3579C36.6965 77.8779 37.7984 77.1513 38.7378 76.2196C39.6772 75.288 40.4357 74.1695 40.9698 72.928C41.5039 71.6865 41.8033 70.3464 41.8509 68.984C41.8985 67.6218 41.6933 66.264 41.247 64.9883C40.8008 63.7126 40.1222 62.5439 39.2501 61.549C38.378 60.5541 37.3295 59.7524 36.1643 59.1898C34.999 58.6271 33.74 58.3145 32.4591 58.2698C31.1781 58.225 29.9004 58.449 28.6987 58.929C27.4971 59.409 26.3952 60.1356 25.4558 61.0673C24.5164 61.9989 23.7579 63.1174 23.2238 64.3589C22.6896 65.6004 22.3902 66.9405 22.3427 68.3029C22.2951 69.6651 22.5003 71.0229 22.9465 72.2986C23.3928 73.5743 24.0713 74.743 24.9434 75.7379C25.8155 76.7328 26.8642 77.5345 28.0294 78.0972C29.1946 78.6598 30.4536 78.9724 31.7345 79.0172Z" stroke="#857D88" stroke-width="2"/>
<path d="M26.9623 145.003C28.194 145.516 29.5199 145.769 30.8642 145.747C32.2085 145.725 33.5448 145.429 34.7969 144.876C36.049 144.323 37.1924 143.524 38.1617 142.524C39.1311 141.524 39.9074 140.343 40.4464 139.048C41.5349 136.433 41.5906 133.514 40.6012 130.932C39.6119 128.351 37.6585 126.319 35.1709 125.283C33.9391 124.771 32.6132 124.518 31.269 124.54C29.9247 124.562 28.5883 124.858 27.3362 125.411C26.0841 125.964 24.9407 126.763 23.9714 127.763C23.0021 128.763 22.2257 129.944 21.6867 131.239C20.5982 133.854 20.5426 136.773 21.5319 139.355C22.5212 141.936 24.4746 143.968 26.9623 145.003Z" stroke="#857D88" stroke-width="2"/>
<path d="M35.6863 19.0605C35.3553 18.6942 34.945 18.4059 34.4788 18.2123C34.0126 18.0187 33.4997 17.9235 32.9694 17.9322C32.4391 17.9408 31.9016 18.0531 31.3879 18.2627C30.8741 18.4722 30.394 18.7749 29.975 19.1535C29.1289 19.9181 28.583 20.9453 28.4574 22.0091C28.3318 23.0729 28.6368 24.0862 29.3053 24.8261C29.6364 25.1925 30.0467 25.4807 30.5129 25.6743C30.979 25.8679 31.492 25.9631 32.0223 25.9545C32.5527 25.9458 33.09 25.8335 33.6038 25.624C34.1176 25.4144 34.5977 25.1117 35.0166 24.7331C35.8628 23.9686 36.4087 22.9414 36.5343 21.8776C36.6599 20.8138 36.3549 19.8004 35.6863 19.0605Z" stroke="#FABFBC" stroke-width="2"/>
<path d="M37.439 70.4818C38.0646 69.1582 38.0988 67.6214 37.5341 66.2094C36.9693 64.7975 35.852 63.626 34.4277 62.9528C33.7224 62.6194 32.9631 62.4184 32.193 62.3612C31.4229 62.304 30.6571 62.3918 29.9394 62.6194C29.2217 62.8471 28.566 63.2103 28.01 63.6882C27.4539 64.1661 27.0082 64.7494 26.6984 65.4048C26.0727 66.7284 26.0386 68.2652 26.6033 69.6771C27.168 71.0891 28.2854 72.2605 29.7097 72.9338C30.4149 73.2671 31.1742 73.4682 31.9443 73.5254C32.7144 73.5825 33.4802 73.4948 34.1979 73.2671C34.9157 73.0394 35.5714 72.6763 36.1274 72.1983C36.6835 71.7204 37.1292 71.1371 37.439 70.4818Z" stroke="#F8BDBA" stroke-width="2"/>
<path d="M37.4623 136.135C37.695 135.329 37.7576 134.482 37.6467 133.643C37.5358 132.804 37.2535 131.989 36.8158 131.246C36.3781 130.502 35.7937 129.843 35.0959 129.307C34.3981 128.772 33.6006 128.37 32.749 128.124C31.029 127.627 29.1927 127.798 27.6442 128.598C26.0956 129.399 24.9616 130.763 24.4916 132.391C24.2589 133.198 24.1963 134.044 24.3072 134.883C24.4181 135.722 24.7004 136.537 25.1381 137.281C25.5758 138.025 26.1602 138.683 26.858 139.219C27.5558 139.755 28.3533 140.157 29.2049 140.403C30.9249 140.899 32.7612 140.728 34.3097 139.928C35.8583 139.128 36.9923 137.763 37.4623 136.135Z" stroke="#FBB9B4" stroke-width="2"/>
<path d="M13.7476 29.3334C16.0876 20.1834 21.7276 -3.47655 35.4676 1.74344C42.9476 4.58344 46.1876 14.9534 46.7676 22.3334C48.9976 50.6134 57.1876 81.0134 60.9876 107.633C61.6209 112.04 61.9142 117.4 61.8676 123.713C61.7576 140.703 58.0176 152.693 41.2176 159.813C25.5176 166.463 5.54762 151.893 1.71762 136.673C1.16428 134.48 0.930937 131.567 1.0176 127.933C1.32427 114.367 2.01762 100.823 3.09762 87.3034C4.27762 72.5334 7.74762 57.6934 10.7176 43.0334C10.8243 42.5268 11.3176 40.5934 12.1976 37.2334C12.8876 34.6134 13.1176 31.7734 13.7476 29.3334ZM32.083 30.2828C33.7537 30.3033 35.366 29.5074 36.5652 28.0705C37.7643 26.6335 38.452 24.6731 38.4771 22.6204C38.5022 20.5678 37.8625 18.5912 36.6989 17.1253C35.5352 15.6595 33.9429 14.8245 32.2722 14.804C30.6014 14.7836 28.9892 15.5794 27.7901 17.0164C26.5909 18.4534 25.9032 20.4138 25.8781 22.4664C25.853 24.5191 26.4926 26.4957 27.6563 27.9616C28.8199 29.4274 30.4122 30.2624 32.083 30.2828ZM36.3259 48.6545C36.435 48.4921 36.4999 48.3023 36.5169 48.0959C36.5339 47.8895 36.5026 47.6706 36.4249 47.4517C36.3471 47.2328 36.2245 47.0181 36.0638 46.8199C35.9032 46.6217 35.7077 46.444 35.4886 46.2967C35.0462 45.9994 34.5343 45.8446 34.0656 45.8663C33.5969 45.8879 33.2097 46.0844 32.9893 46.4123C32.8801 46.5748 32.8152 46.7646 32.7982 46.971C32.7813 47.1773 32.8125 47.3963 32.8903 47.6152C32.968 47.8341 33.0908 48.0488 33.2514 48.247C33.4121 48.4452 33.6075 48.6229 33.8266 48.7701C34.269 49.0675 34.7809 49.2223 35.2496 49.2006C35.7183 49.1789 36.1055 48.9825 36.3259 48.6545ZM33.6876 51.5234C32.9543 52.5968 32.5476 53.7801 32.4676 55.0734C32.4602 55.2076 32.5345 55.3541 32.6782 55.4887C32.8219 55.6233 33.0264 55.7379 33.2576 55.8134L36.8276 57.0034C36.9735 57.0522 37.1285 57.063 37.2776 57.035C37.4266 57.0069 37.5644 56.9409 37.6776 56.8434C38.6076 56.0434 35.9976 52.4934 35.6476 51.8034C35.5531 51.6175 35.4149 51.455 35.2469 51.3318C35.0788 51.2086 34.8865 51.129 34.6888 51.1008C34.4911 51.0725 34.2949 51.0966 34.1194 51.1707C33.9438 51.2448 33.7951 51.3664 33.6876 51.5234ZM31.7353 79.0171C33.0162 79.0619 34.294 78.8379 35.4956 78.3579C36.6973 77.8779 37.7992 77.1513 38.7386 76.2196C39.678 75.288 40.4365 74.1695 40.9706 72.928C41.5047 71.6865 41.8041 70.3463 41.8517 68.984C41.8993 67.6217 41.6941 66.264 41.2478 64.9883C40.8016 63.7126 40.1231 62.5439 39.2509 61.549C38.3788 60.5541 37.3303 59.7524 36.1651 59.1897C34.9999 58.6271 33.7408 58.3145 32.4599 58.2697C31.1789 58.225 29.9012 58.449 28.6995 58.929C27.4979 59.409 26.396 60.1356 25.4566 61.0672C24.5172 61.9989 23.7587 63.1174 23.2246 64.3589C22.6904 65.6004 22.391 66.9405 22.3435 68.3028C22.2959 69.6651 22.5011 71.0229 22.9474 72.2986C23.3936 73.5743 24.0721 74.743 24.9442 75.7379C25.8163 76.7328 26.865 77.5345 28.0302 78.0971C29.1954 78.6598 30.4544 78.9724 31.7353 79.0171ZM26.9633 145.003C28.1951 145.516 29.5209 145.769 30.8652 145.747C32.2095 145.725 33.5458 145.429 34.7979 144.876C36.0501 144.323 37.1934 143.524 38.1627 142.524C39.1321 141.524 39.9084 140.343 40.4474 139.048C41.5359 136.433 41.5916 133.514 40.6023 130.932C39.6129 128.351 37.6596 126.319 35.1719 125.284C33.9401 124.771 32.6143 124.518 31.27 124.54C29.9257 124.562 28.5894 124.858 27.3372 125.411C26.0851 125.964 24.9418 126.763 23.9724 127.763C23.0031 128.763 22.2267 129.944 21.6878 131.239C20.5993 133.854 20.5436 136.773 21.5329 139.355C22.5223 141.936 24.4756 143.968 26.9633 145.003Z" fill="#120F29"/>
<path d="M32.0845 30.2829C30.4138 30.2625 28.8215 29.4275 27.6578 27.9616C26.4942 26.4958 25.8545 24.5191 25.8796 22.4665C25.9047 20.4139 26.5925 18.4534 27.7916 17.0165C28.9907 15.5795 30.603 14.7837 32.2737 14.8041C33.9444 14.8245 35.5368 15.6595 36.7004 17.1254C37.8641 18.5912 38.5037 20.5679 38.4786 22.6205C38.4535 24.6731 37.7658 26.6335 36.5667 28.0705C35.3676 29.5075 33.7552 30.3033 32.0845 30.2829ZM35.6896 19.0607C35.3586 18.6943 34.9483 18.4061 34.4821 18.2125C34.0159 18.0189 33.503 17.9237 32.9727 17.9323C32.4424 17.941 31.9049 18.0533 31.3912 18.2628C30.8774 18.4724 30.3973 18.7751 29.9783 19.1537C29.1322 19.9183 28.5863 20.9454 28.4607 22.0093C28.3351 23.0731 28.6401 24.0864 29.3086 24.8263C29.6397 25.1927 30.05 25.4809 30.5162 25.6745C30.9823 25.8681 31.4953 25.9633 32.0256 25.9546C32.556 25.946 33.0933 25.8337 33.6071 25.6241C34.1209 25.4146 34.601 25.1119 35.0199 24.7333C35.8661 23.9687 36.412 22.9416 36.5376 21.8777C36.6632 20.8139 36.3582 19.8006 35.6896 19.0607Z" fill="#FBF0EB"/>
<path d="M35.0173 24.7334C36.7793 23.1413 37.0792 20.6016 35.687 19.0608C34.2948 17.52 31.7377 17.5616 29.9757 19.1538C28.2136 20.7459 27.9138 23.2857 29.306 24.8265C30.6982 26.3672 33.2552 26.3256 35.0173 24.7334Z" fill="#F88E8D"/>
<path d="M33.8266 48.7703C34.7479 49.3894 35.867 49.3377 36.3259 48.6546C36.7849 47.9716 36.41 46.916 35.4886 46.2968C34.5672 45.6777 33.4482 45.7295 32.9893 46.4125C32.5303 47.0955 32.9052 48.1511 33.8266 48.7703Z" fill="#25223E"/>
<path d="M33.6892 51.5235C33.7967 51.3665 33.9455 51.2449 34.121 51.1708C34.2965 51.0967 34.4928 51.0726 34.6904 51.1008C34.8881 51.1291 35.0804 51.2087 35.2485 51.3319C35.4166 51.4551 35.5547 51.6176 35.6492 51.8035C35.9992 52.4935 38.6092 56.0435 37.6792 56.8435C37.566 56.941 37.4282 57.007 37.2792 57.035C37.1302 57.0631 36.9752 57.0522 36.8292 57.0035L33.2592 55.8135C33.028 55.738 32.8236 55.6234 32.6799 55.4888C32.5362 55.3542 32.4619 55.2076 32.4693 55.0735C32.5493 53.7802 32.9559 52.5968 33.6892 51.5235Z" fill="#25223E"/>
<path d="M31.7345 79.0172C30.4536 78.9724 29.1946 78.6598 28.0294 78.0972C26.8642 77.5345 25.8155 76.7328 24.9434 75.7379C24.0713 74.743 23.3928 73.5743 22.9465 72.2986C22.5003 71.0229 22.2951 69.6651 22.3427 68.3029C22.3902 66.9405 22.6896 65.6004 23.2238 64.3589C23.7579 63.1174 24.5164 61.9989 25.4558 61.0673C26.3952 60.1356 27.4971 59.409 28.6987 58.929C29.9004 58.449 31.1781 58.225 32.4591 58.2698C33.74 58.3145 34.999 58.6271 36.1643 59.1898C37.3295 59.7524 38.378 60.5541 39.2501 61.549C40.1222 62.5439 40.8008 63.7126 41.247 64.9883C41.6933 66.264 41.8985 67.6218 41.8509 68.984C41.8033 70.3464 41.5039 71.6865 40.9698 72.928C40.4357 74.1695 39.6772 75.288 38.7378 76.2196C37.7984 77.1513 36.6965 77.8779 35.4948 78.3579C34.2932 78.8379 33.0154 79.0619 31.7345 79.0172ZM37.4371 70.482C38.0627 69.1584 38.0969 67.6216 37.5322 66.2096C36.9674 64.7977 35.8501 63.6262 34.4258 62.953C33.7206 62.6196 32.9612 62.4186 32.1911 62.3614C31.421 62.3042 30.6552 62.3919 29.9375 62.6196C29.2198 62.8473 28.5642 63.2105 28.0081 63.6884C27.452 64.1663 27.0063 64.7496 26.6965 65.405C26.0709 66.7285 26.0367 68.2653 26.6014 69.6773C27.1661 71.0893 28.2835 72.2607 29.7078 72.934C30.413 73.2673 31.1724 73.4683 31.9425 73.5255C32.7126 73.5827 33.4783 73.495 34.1961 73.2673C34.9138 73.0396 35.5695 72.6764 36.1256 72.1985C36.6817 71.7206 37.1273 71.1373 37.4371 70.482Z" fill="#F8EBE6"/>
<path d="M29.7069 72.9341C32.6728 74.3361 36.1333 73.2383 37.4362 70.4821C38.739 67.7259 37.3908 64.355 34.4249 62.9531C31.459 61.5511 27.9985 62.6489 26.6957 65.4051C25.3928 68.1613 26.741 71.5321 29.7069 72.9341Z" fill="#F88E8D"/>
<path d="M26.9623 145.003C24.4746 143.968 22.5212 141.936 21.5319 139.355C20.5426 136.773 20.5982 133.854 21.6867 131.239C22.2257 129.944 23.0021 128.763 23.9714 127.763C24.9407 126.763 26.0841 125.964 27.3362 125.411C28.5883 124.858 29.9247 124.562 31.269 124.54C32.6132 124.518 33.9391 124.771 35.1709 125.283C37.6585 126.319 39.6119 128.351 40.6012 130.932C41.5906 133.514 41.5349 136.433 40.4464 139.048C39.9074 140.343 39.1311 141.524 38.1617 142.524C37.1924 143.524 36.049 144.323 34.7969 144.876C33.5448 145.429 32.2085 145.725 30.8642 145.747C29.5199 145.769 28.194 145.516 26.9623 145.003ZM37.4619 136.135C37.6946 135.329 37.7573 134.482 37.6463 133.643C37.5354 132.804 37.2531 131.99 36.8154 131.246C36.3777 130.502 35.7933 129.843 35.0955 129.308C34.3977 128.772 33.6002 128.37 32.7486 128.124C31.0286 127.628 29.1923 127.798 27.6438 128.599C26.0952 129.399 24.9612 130.763 24.4913 132.391C24.2585 133.198 24.1959 134.044 24.3068 134.883C24.4177 135.722 24.7001 136.537 25.1377 137.281C25.5754 138.025 26.1599 138.683 26.8576 139.219C27.5554 139.755 28.3529 140.157 29.2046 140.403C30.9246 140.899 32.7608 140.729 34.3094 139.928C35.8579 139.128 36.9919 137.764 37.4619 136.135Z" fill="#F8EBE6"/>
<path d="M29.2068 140.403C32.7885 141.437 36.4854 139.526 37.4641 136.136C38.4428 132.745 36.3326 129.158 32.7509 128.124C29.1692 127.091 25.4723 129.001 24.4936 132.392C23.5149 135.783 25.6251 139.369 29.2068 140.403Z" fill="#FD8681"/>
</svg>
