<svg width="93" height="99" viewBox="0 0 93 99" fill="none" xmlns="http://www.w3.org/2000/svg">
<path d="M2.00391 55.2734C4.25391 75.3334 21.2239 91.0135 39.924 95.6635C56.444 99.7635 68.084 96.3234 79.364 84.0934" stroke="#8D94AE" stroke-width="2"/>
<path d="M79.363 84.0928C86.883 76.9628 90.563 64.9228 91.613 54.9428C93.953 32.5228 79.363 9.1928 57.463 2.9828C54.023 2.00946 49.8263 1.57613 44.8729 1.68279C28.1129 2.02279 14.213 8.41279 6.35298 23.4328C1.23964 33.1928 -0.210393 43.8061 2.00294 55.2728" stroke="#BCE8DB" stroke-width="2"/>
<path d="M79.364 84.0926C71.484 75.0026 64.9639 69.2125 54.7539 64.7625C38.3339 57.6025 19.0439 50.6125 2.00391 55.2725" stroke="#497D8A" stroke-width="2"/>
<path d="M46.0329 20.4033C48.2529 21.5933 55.9629 18.0733 58.4329 17.1433C58.5857 17.0874 58.7228 17.0007 58.8337 16.8898C58.9446 16.7789 59.0264 16.6467 59.0729 16.5033C60.6029 11.9533 55.9629 11.7333 53.1929 12.8533C53.051 12.9094 52.9292 13.0033 52.8436 13.1229C52.7579 13.2424 52.7124 13.382 52.7129 13.5233V16.0233C52.7123 16.1498 52.6599 16.2982 52.5604 16.4553C52.461 16.6124 52.3175 16.7731 52.1429 16.9233C50.4296 18.41 48.4562 19.29 46.2229 19.5633C45.2696 19.6833 45.2062 19.9633 46.0329 20.4033Z" stroke="#487878" stroke-width="2"/>
<path d="M37.475 39.6527C36.205 43.5227 55.195 35.8226 56.565 35.1026C57.925 34.3893 58.1917 33.406 57.365 32.1527C55.605 29.486 53.2983 28.9293 50.445 30.4826C50.2875 30.5674 50.1484 30.6876 50.0365 30.8357C49.9245 30.9838 49.8423 31.1564 49.795 31.3427L48.965 34.5227C48.9236 34.687 48.842 34.8462 48.7251 34.9906C48.6082 35.135 48.4585 35.2616 48.285 35.3626C45.1583 37.196 41.805 38.4293 38.225 39.0627C38.0475 39.0926 37.8837 39.1635 37.7514 39.2675C37.6192 39.3716 37.5235 39.5048 37.475 39.6527Z" stroke="#477B7D" stroke-width="2"/>
<path d="M47.0596 49.6259C46.8485 49.2932 46.5406 49.0266 46.1533 48.8413C45.7661 48.656 45.3072 48.5555 44.8027 48.5457C44.2983 48.5359 43.7582 48.6169 43.2134 48.7841C42.6685 48.9513 42.1296 49.2014 41.6273 49.5202C41.125 49.839 40.6693 50.2201 40.286 50.6419C39.9027 51.0637 39.5995 51.5179 39.3936 51.9785C39.1877 52.4391 39.0832 52.8971 39.086 53.3264C39.0888 53.7557 39.1989 54.1479 39.41 54.4805C39.6211 54.8131 39.9291 55.0797 40.3163 55.2651C40.7036 55.4504 41.1626 55.5509 41.667 55.5607C42.1714 55.5705 42.7114 55.4895 43.2563 55.3223C43.8011 55.1551 44.3401 54.9049 44.8423 54.5862C45.3446 54.2674 45.8004 53.8863 46.1836 53.4645C46.5669 53.0427 46.8701 52.5885 47.076 52.1279C47.2819 51.6673 47.3865 51.2093 47.3837 50.78C47.3808 50.3507 47.2707 49.9585 47.0596 49.6259Z" stroke="#487878" stroke-width="2"/>
<path d="M49.8434 69.3331C51.1034 70.4798 51.74 70.3031 51.7533 68.8031C51.7565 68.5819 51.7768 68.3786 51.8128 68.2051C51.8489 68.0317 51.9 67.8917 51.9633 67.7931C52.75 66.5998 52.0333 66.3065 49.8133 66.9132C48.4533 67.2865 48.4634 68.0931 49.8434 69.3331Z" stroke="#3E4978" stroke-width="2"/>
<path d="M44.7853 71.0361C44.7708 70.8765 44.7118 70.7226 44.6118 70.583C44.5118 70.4435 44.3728 70.3211 44.2025 70.2228C44.0323 70.1246 43.8342 70.0524 43.6196 70.0103C43.405 69.9683 43.178 69.9573 42.9518 69.9778C42.7255 69.9984 42.5044 70.0503 42.3009 70.1303C42.0974 70.2104 41.9157 70.3172 41.7659 70.4446C41.6162 70.572 41.5015 70.7175 41.4283 70.8728C41.3552 71.0281 41.325 71.1901 41.3395 71.3497C41.354 71.5092 41.4129 71.6632 41.5129 71.8027C41.6129 71.9422 41.752 72.0646 41.9223 72.1629C42.0926 72.2611 42.2907 72.3334 42.5053 72.3754C42.7198 72.4174 42.9467 72.4285 43.173 72.4079C43.3992 72.3873 43.6204 72.3355 43.8239 72.2554C44.0274 72.1753 44.2092 72.0685 44.3589 71.9411C44.5086 71.8137 44.6233 71.6682 44.6965 71.5129C44.7696 71.3577 44.7998 71.1956 44.7853 71.0361Z" stroke="#374373" stroke-width="2"/>
<path d="M49.4833 72.9028C47.2733 75.7128 49.2633 79.5028 52.7633 79.1828C54.6433 79.0028 55.3233 79.1928 56.2033 80.7628C56.2807 80.9029 56.393 81.0158 56.522 81.083C56.6509 81.1502 56.7889 81.1677 56.9133 81.1328C57.6867 80.9195 57.9933 80.3328 57.8333 79.3728C57.8015 79.2032 57.7224 79.0499 57.6094 78.9387C57.4964 78.8276 57.3565 78.7654 57.2133 78.7628C55.9667 78.7228 54.89 78.3095 53.9833 77.5228C53.87 77.425 53.722 77.3701 53.5615 77.3665C53.4011 77.3629 53.2368 77.4108 53.0933 77.5028C52.5433 77.8628 50.5833 78.9428 50.2333 77.8228C50.2011 77.7248 50.2234 77.5982 50.2972 77.4615C50.3709 77.3248 50.4922 77.1851 50.6433 77.0628C51.7133 76.1728 48.5133 71.4428 52.1133 74.4728C52.2804 74.6125 52.4596 74.7199 52.6178 74.775C52.776 74.8302 52.9023 74.8294 52.9733 74.7728C53.2867 74.5262 53.4533 74.1928 53.4733 73.7728C53.4868 73.5468 53.4358 73.3268 53.3294 73.1526C53.223 72.9784 53.0684 72.8614 52.8933 72.8228L50.2133 72.2528C50.1617 72.2396 50.0603 72.2975 49.9268 72.4163C49.7933 72.5352 49.6363 72.7075 49.4833 72.9028Z" stroke="#374373" stroke-width="2"/>
<path d="M46.5136 75.3852C46.5718 75.2748 46.5999 75.15 46.5963 75.0178C46.5927 74.8856 46.5576 74.7486 46.4927 74.6147C46.4279 74.4808 46.3347 74.3526 46.2186 74.2374C46.1024 74.1221 45.9655 74.0222 45.8156 73.9431C45.6658 73.8641 45.5059 73.8076 45.3452 73.7769C45.1845 73.7461 45.026 73.7417 44.8789 73.7639C44.7318 73.7861 44.5989 73.8344 44.4878 73.9061C44.3767 73.9779 44.2896 74.0716 44.2314 74.1819C44.1733 74.2923 44.1452 74.4172 44.1487 74.5493C44.1523 74.6815 44.1875 74.8185 44.2523 74.9524C44.3171 75.0863 44.4103 75.2145 44.5265 75.3297C44.6427 75.445 44.7796 75.545 44.9294 75.624C45.0793 75.703 45.2391 75.7595 45.3998 75.7902C45.5606 75.821 45.719 75.8254 45.8661 75.8032C46.0133 75.781 46.1461 75.7327 46.2572 75.661C46.3683 75.5892 46.4554 75.4955 46.5136 75.3852Z" stroke="#374373" stroke-width="2"/>
<path d="M58.9827 82.9729C57.8294 83.1796 57.0493 83.8663 56.6427 85.0329C56.496 85.4463 56.5993 85.5996 56.9527 85.4929C57.9793 85.1796 58.8227 84.6162 59.4827 83.8029C60.076 83.0762 59.9094 82.7996 58.9827 82.9729Z" stroke="#313D6B" stroke-width="2"/>
<path d="M47.0847 84.3019C47.0978 84.1725 47.073 84.0406 47.0116 83.9136C46.9502 83.7866 46.8536 83.6671 46.7271 83.5619C46.6005 83.4566 46.4466 83.3677 46.2742 83.3002C46.1018 83.2327 45.9142 83.1879 45.7222 83.1684C45.3343 83.129 44.9518 83.1949 44.6588 83.3518C44.3657 83.5086 44.1862 83.7435 44.1597 84.0047C44.1465 84.134 44.1714 84.2659 44.2327 84.3929C44.2941 84.5199 44.3908 84.6394 44.5173 84.7446C44.6438 84.8499 44.7977 84.9388 44.9701 85.0064C45.1425 85.0739 45.3301 85.1187 45.5222 85.1382C45.91 85.1776 46.2925 85.1116 46.5855 84.9547C46.8785 84.7979 47.0581 84.5631 47.0847 84.3019Z" stroke="#313D6B" stroke-width="2"/>
<path d="M79.363 84.0928C71.483 75.0028 64.9629 69.2128 54.7529 64.7628C38.3329 57.6028 19.0429 50.6128 2.00294 55.2728C-0.210393 43.8061 1.23964 33.1928 6.35298 23.4328C14.213 8.41279 28.1129 2.02279 44.8729 1.68279C49.8263 1.57613 54.023 2.00946 57.463 2.9828C79.363 9.1928 93.953 32.5228 91.613 54.9428C90.563 64.9228 86.883 76.9628 79.363 84.0928ZM46.033 20.4028C48.253 21.5928 55.9629 18.0728 58.4329 17.1428C58.5857 17.0869 58.7228 17.0001 58.8338 16.8892C58.9447 16.7783 59.0264 16.6462 59.0729 16.5028C60.6029 11.9528 55.9629 11.7328 53.1929 12.8528C53.051 12.9088 52.9293 13.0028 52.8436 13.1223C52.758 13.2419 52.7125 13.3815 52.713 13.5228V16.0228C52.7123 16.1493 52.66 16.2977 52.5605 16.4548C52.461 16.6118 52.3176 16.7726 52.143 16.9228C50.4296 18.4095 48.4563 19.2895 46.223 19.5628C45.2696 19.6828 45.2063 19.9628 46.033 20.4028ZM37.473 39.6528C36.203 43.5228 55.1929 35.8228 56.5629 35.1028C57.9229 34.3894 58.1897 33.4061 57.363 32.1528C55.603 29.4861 53.2963 28.9294 50.4429 30.4828C50.2855 30.5675 50.1463 30.6878 50.0344 30.8358C49.9225 30.9839 49.8403 31.1566 49.793 31.3428L48.963 34.5228C48.9216 34.6871 48.84 34.8463 48.7231 34.9907C48.6062 35.1351 48.4565 35.2617 48.283 35.3628C45.1563 37.1961 41.803 38.4295 38.223 39.0628C38.0455 39.0928 37.8817 39.1636 37.7494 39.2677C37.6171 39.3717 37.5215 39.5049 37.473 39.6528ZM47.0578 49.6255C46.8467 49.2928 46.5387 49.0262 46.1514 48.8409C45.7642 48.6556 45.3053 48.5551 44.8009 48.5453C44.2964 48.5355 43.7563 48.6165 43.2115 48.7837C42.6667 48.9509 42.1277 49.201 41.6254 49.5198C41.1232 49.8386 40.6674 50.2197 40.2841 50.6415C39.9009 51.0633 39.5976 51.5174 39.3917 51.9781C39.1858 52.4387 39.0813 52.8967 39.0841 53.326C39.0869 53.7553 39.197 54.1475 39.4082 54.4801C39.6192 54.8127 39.9272 55.0793 40.3145 55.2647C40.7017 55.45 41.1607 55.5505 41.6651 55.5603C42.1695 55.5701 42.7096 55.4891 43.2544 55.3219C43.7992 55.1547 44.3382 54.9045 44.8405 54.5858C45.3427 54.267 45.7985 53.8859 46.1818 53.4641C46.565 53.0423 46.8683 52.5881 47.0742 52.1275C47.2801 51.6669 47.3846 51.2089 47.3818 50.7796C47.379 50.3503 47.2689 49.9581 47.0578 49.6255Z" fill="#78D1B7"/>
<path d="M46.0329 20.4033C45.2062 19.9633 45.2696 19.6833 46.2229 19.5633C48.4562 19.29 50.4296 18.41 52.1429 16.9233C52.3175 16.7731 52.461 16.6124 52.5604 16.4553C52.6599 16.2982 52.7123 16.1498 52.7129 16.0233V13.5233C52.7124 13.382 52.7579 13.2424 52.8436 13.1229C52.9292 13.0033 53.051 12.9094 53.1929 12.8533C55.9629 11.7333 60.6029 11.9533 59.0729 16.5033C59.0264 16.6467 58.9446 16.7789 58.8337 16.8898C58.7228 17.0007 58.5857 17.0874 58.4329 17.1433C55.9629 18.0733 48.2529 21.5933 46.0329 20.4033Z" fill="#171E38"/>
<path d="M56.565 35.1026C55.195 35.8226 36.205 43.5227 37.475 39.6527C37.5235 39.5048 37.6192 39.3716 37.7514 39.2675C37.8837 39.1635 38.0475 39.0926 38.225 39.0627C41.805 38.4293 45.1583 37.196 48.285 35.3626C48.4585 35.2616 48.6082 35.135 48.7251 34.9906C48.842 34.8462 48.9236 34.687 48.965 34.5227L49.795 31.3427C49.8423 31.1564 49.9245 30.9838 50.0365 30.8357C50.1484 30.6876 50.2875 30.5674 50.445 30.4826C53.2983 28.9293 55.605 29.486 57.365 32.1527C58.1917 33.406 57.925 34.3893 56.565 35.1026Z" fill="#162543"/>
<path d="M44.8405 54.5859C46.9529 53.2454 47.9457 51.0246 47.0579 49.6257C46.1701 48.2267 43.738 48.1794 41.6256 49.52C39.5132 50.8605 38.5205 53.0813 39.4083 54.4802C40.296 55.8792 42.7282 55.9265 44.8405 54.5859Z" fill="#171E38"/>
<path d="M79.364 84.0926C68.084 96.3226 56.444 99.7626 39.924 95.6626C21.2239 91.0126 4.25391 75.3325 2.00391 55.2725C19.0439 50.6125 38.3339 57.6025 54.7539 64.7625C64.9639 69.2125 71.484 75.0026 79.364 84.0926ZM49.8439 69.3325C51.1039 70.4792 51.7406 70.3025 51.7539 68.8025C51.7571 68.5813 51.7774 68.378 51.8134 68.2046C51.8495 68.0311 51.9006 67.8911 51.9639 67.7925C52.7506 66.5992 52.0339 66.3059 49.8139 66.9126C48.4539 67.2859 48.4639 68.0925 49.8439 69.3325ZM44.7868 71.0358C44.7723 70.8762 44.7133 70.7223 44.6133 70.5827C44.5133 70.4432 44.3743 70.3208 44.204 70.2225C44.0338 70.1243 43.8357 70.0521 43.6211 70.01C43.4065 69.968 43.1796 69.9569 42.9533 69.9775C42.7271 69.9981 42.5059 70.0499 42.3024 70.13C42.099 70.2101 41.9172 70.3169 41.7675 70.4443C41.6177 70.5717 41.503 70.7172 41.4299 70.8725C41.3567 71.0278 41.3265 71.1898 41.341 71.3494C41.3555 71.5089 41.4145 71.6629 41.5145 71.8024C41.6145 71.9419 41.7536 72.0643 41.9238 72.1626C42.0941 72.2608 42.2922 72.3331 42.5068 72.3751C42.7214 72.4171 42.9482 72.4282 43.1745 72.4076C43.4008 72.387 43.622 72.3351 43.8254 72.2551C44.0289 72.175 44.2107 72.0682 44.3604 71.9408C44.5101 71.8134 44.6248 71.6679 44.698 71.5126C44.7712 71.3573 44.8013 71.1953 44.7868 71.0358ZM49.4839 72.9026C47.2739 75.7126 49.2639 79.5026 52.7639 79.1826C54.6439 79.0026 55.3239 79.1925 56.2039 80.7625C56.2813 80.9027 56.3936 81.0155 56.5226 81.0827C56.6515 81.1499 56.7895 81.1675 56.9139 81.1325C57.6873 80.9192 57.9939 80.3326 57.8339 79.3726C57.8021 79.2029 57.723 79.0496 57.61 78.9384C57.497 78.8273 57.3571 78.7651 57.2139 78.7625C55.9673 78.7225 54.8906 78.3092 53.9839 77.5225C53.8706 77.4247 53.7226 77.3698 53.5621 77.3662C53.4017 77.3626 53.2374 77.4105 53.0939 77.5026C52.5439 77.8626 50.5839 78.9425 50.2339 77.8225C50.2017 77.7245 50.224 77.5979 50.2978 77.4612C50.3715 77.3245 50.4928 77.1848 50.6439 77.0626C51.7139 76.1726 48.514 71.4426 52.114 74.4726C52.281 74.6122 52.4602 74.7196 52.6184 74.7748C52.7766 74.83 52.9029 74.8292 52.9739 74.7725C53.2873 74.5259 53.4539 74.1925 53.4739 73.7725C53.4874 73.5465 53.4364 73.3266 53.33 73.1523C53.2237 72.9781 53.069 72.8611 52.8939 72.8225L50.2139 72.2526C50.1623 72.2393 50.0609 72.2972 49.9274 72.4161C49.7939 72.5349 49.6369 72.7072 49.4839 72.9026ZM46.515 75.3841C46.5732 75.2738 46.6013 75.149 46.5977 75.0168C46.5941 74.8846 46.559 74.7476 46.4941 74.6137C46.4293 74.4798 46.3361 74.3516 46.22 74.2364C46.1038 74.1211 45.9669 74.0211 45.817 73.9421C45.6672 73.8631 45.5073 73.8066 45.3466 73.7759C45.1859 73.7451 45.0274 73.7407 44.8803 73.7629C44.7332 73.785 44.6003 73.8334 44.4892 73.9051C44.3781 73.9768 44.291 74.0706 44.2328 74.1809C44.1747 74.2913 44.1466 74.4161 44.1501 74.5483C44.1537 74.6805 44.1889 74.8175 44.2537 74.9514C44.3185 75.0853 44.4117 75.2135 44.5279 75.3287C44.6441 75.444 44.781 75.5439 44.9308 75.6229C45.0807 75.702 45.2405 75.7584 45.4012 75.7892C45.562 75.82 45.7204 75.8244 45.8676 75.8022C46.0147 75.78 46.1475 75.7317 46.2586 75.66C46.3697 75.5882 46.4568 75.4945 46.515 75.3841ZM58.9839 82.9726C57.8306 83.1792 57.0506 83.8659 56.6439 85.0326C56.4973 85.4459 56.6006 85.5992 56.9539 85.4925C57.9806 85.1792 58.8239 84.6159 59.4839 83.8025C60.0773 83.0759 59.9106 82.7992 58.9839 82.9726ZM47.0864 84.3011C47.0996 84.1718 47.0747 84.0399 47.0134 83.9129C46.952 83.7859 46.8553 83.6664 46.7288 83.5612C46.6023 83.4559 46.4484 83.367 46.276 83.2995C46.1036 83.2319 45.916 83.1872 45.7239 83.1677C45.3361 83.1283 44.9535 83.1942 44.6605 83.3511C44.3675 83.5079 44.188 83.7428 44.1614 84.004C44.1483 84.1333 44.1731 84.2652 44.2345 84.3922C44.2959 84.5191 44.3925 84.6387 44.519 84.7439C44.6456 84.8492 44.7994 84.9381 44.9719 85.0056C45.1443 85.0732 45.3319 85.1179 45.5239 85.1374C45.9118 85.1768 46.2943 85.1109 46.5873 84.954C46.8803 84.7972 47.0599 84.5623 47.0864 84.3011Z" fill="#1A285D"/>
<path d="M49.8434 69.3331C48.4634 68.0931 48.4533 67.2865 49.8133 66.9132C52.0333 66.3065 52.75 66.5998 51.9633 67.7931C51.9 67.8917 51.8489 68.0317 51.8128 68.2051C51.7768 68.3786 51.7565 68.5819 51.7533 68.8031C51.74 70.3031 51.1034 70.4798 49.8434 69.3331Z" fill="#616993"/>
<path d="M43.1745 72.4079C44.126 72.3213 44.8479 71.7072 44.7868 71.0362C44.7257 70.3651 43.9049 69.8914 42.9533 69.978C42.0018 70.0646 41.28 70.6787 41.341 71.3497C41.4021 72.0208 42.223 72.4945 43.1745 72.4079Z" fill="#535E88"/>
<path d="M52.7633 79.1828C49.2633 79.5028 47.2733 75.7128 49.4833 72.9028C49.6363 72.7075 49.7933 72.5352 49.9268 72.4163C50.0603 72.2975 50.1617 72.2396 50.2133 72.2528L52.8933 72.8228C53.0684 72.8614 53.223 72.9784 53.3294 73.1526C53.4358 73.3268 53.4868 73.5468 53.4733 73.7728C53.4533 74.1928 53.2867 74.5262 52.9733 74.7728C52.9023 74.8294 52.776 74.8302 52.6178 74.775C52.4596 74.7199 52.2804 74.6125 52.1133 74.4728C48.5133 71.4428 51.7133 76.1728 50.6433 77.0628C50.4922 77.1851 50.3709 77.3248 50.2972 77.4615C50.2234 77.5982 50.2011 77.7248 50.2333 77.8228C50.5833 78.9428 52.5433 77.8628 53.0933 77.5028C53.2368 77.4108 53.4011 77.3629 53.5615 77.3665C53.722 77.3701 53.87 77.425 53.9833 77.5228C54.89 78.3095 55.9667 78.7228 57.2133 78.7628C57.3565 78.7654 57.4964 78.8276 57.6094 78.9387C57.7224 79.0499 57.8015 79.2032 57.8333 79.3728C57.9933 80.3328 57.6867 80.9195 56.9133 81.1328C56.7889 81.1677 56.6509 81.1502 56.522 81.083C56.393 81.0158 56.2807 80.9029 56.2033 80.7628C55.3233 79.1928 54.6433 79.0028 52.7633 79.1828Z" fill="#535E88"/>
<path d="M44.9308 75.6232C45.561 75.9554 46.2702 75.8486 46.5149 75.3844C46.7596 74.9203 46.4471 74.2747 45.8169 73.9425C45.1867 73.6102 44.4774 73.7171 44.2327 74.1812C43.988 74.6453 44.3005 75.2909 44.9308 75.6232Z" fill="#535E88"/>
<path d="M58.9866 82.9729C59.9133 82.7996 60.0799 83.0762 59.4866 83.8029C58.8266 84.6162 57.9832 85.1796 56.9566 85.4929C56.6032 85.5996 56.4999 85.4463 56.6466 85.0329C57.0532 83.8663 57.8333 83.1796 58.9866 82.9729Z" fill="#475179"/>
<path d="M45.5241 85.1379C46.3318 85.22 47.0314 84.8455 47.0866 84.3016C47.1419 83.7576 46.5319 83.2501 45.7242 83.1681C44.9165 83.086 44.2169 83.4605 44.1617 84.0045C44.1064 84.5484 44.7164 85.0559 45.5241 85.1379Z" fill="#475179"/>
</svg>
