<svg width="104" height="116" viewBox="0 0 104 116" fill="none" xmlns="http://www.w3.org/2000/svg">
<path d="M33.2986 78.533C33.9653 80.873 34.5453 82.5896 35.0386 83.683C39.5853 93.723 43.9853 103.83 48.2386 114.003C48.572 114.803 48.9486 114.853 49.3686 114.153L70.8786 78.413C70.9651 78.2685 71.1126 78.1647 71.2944 78.1207C71.4762 78.0766 71.68 78.0952 71.8686 78.173L99.8286 89.6029C100.669 89.9496 100.979 89.663 100.759 88.743C97.9286 76.823 92.0186 66.083 86.5686 55.143C86.4972 54.9978 86.4723 54.8322 86.4972 54.6668C86.5221 54.5014 86.5956 54.3435 86.7086 54.213C92.3153 47.6596 97.6119 40.8663 102.599 33.833C102.645 33.7668 102.679 33.6923 102.697 33.6144C102.715 33.5366 102.718 33.4572 102.705 33.3815C102.692 33.3058 102.663 33.2356 102.62 33.1755C102.578 33.1154 102.523 33.0668 102.459 33.033C100.552 32.0463 98.0519 31.5463 94.9586 31.533C86.7586 31.493 78.5186 31.4763 70.2386 31.483C70.079 31.4831 69.9222 31.4395 69.7848 31.3567C69.6474 31.2739 69.5346 31.1551 69.4586 31.013C64.1653 21.013 58.5686 11.193 52.6686 1.55296C52.5745 1.39712 52.4441 1.2645 52.29 1.16802C52.1358 1.07155 51.9632 1.0145 51.789 1.00242C51.6149 0.990338 51.445 1.02364 51.2959 1.09908C51.1469 1.17453 51.0238 1.28956 50.9386 1.43296L32.8886 31.913C32.7509 32.144 32.5417 32.3264 32.2895 32.4355C32.0373 32.5447 31.7542 32.5752 31.4786 32.523L4.97861 27.233C4.09861 27.0596 3.86861 27.3763 4.28861 28.183C8.83528 36.8963 13.052 45.7663 16.9386 54.7929C16.9956 54.9214 17.0117 55.0675 16.9852 55.2143C16.9587 55.3612 16.8905 55.5029 16.7886 55.623C9.99861 63.693 2.68862 73.163 1.04862 83.583C0.795285 85.2096 1.53197 85.803 3.25864 85.363L32.7186 77.923C32.8213 77.9009 32.9387 77.9519 33.0465 78.0653C33.1544 78.1788 33.2447 78.3462 33.2986 78.533Z" stroke="#807E7C" stroke-width="2"/>
<path d="M68.5781 80.2433C69.0781 79.4933 70.1881 78.5933 70.6181 77.6333C70.6912 77.4699 70.7968 77.3229 70.9287 77.201C71.0606 77.0791 71.2163 76.9847 71.3866 76.9233C71.5569 76.8619 71.7384 76.8347 71.9207 76.8433C72.1029 76.8519 72.2822 76.8961 72.4481 76.9733C80.3748 80.6933 88.4948 83.9133 96.8081 86.6333C98.3081 87.1267 98.7748 86.64 98.2081 85.1733C96.7281 81.3233 95.6381 77.2833 93.7381 73.5233C90.7448 67.61 87.9382 61.5933 85.3182 55.4733C85.2589 55.3293 85.2318 55.1749 85.2387 55.021C85.2456 54.8671 85.2864 54.7177 85.3581 54.5833C89.1581 47.6733 95.0882 41.1933 100.008 35.0233C100.855 33.9633 100.571 33.46 99.1581 33.5133C90.0381 33.8867 80.9148 33.8333 71.7881 33.3533C69.7215 33.24 68.2048 32.2767 67.2381 30.4633C62.6981 21.91 58.0281 13.4233 53.2281 5.00332C52.5081 3.73665 51.7448 3.70665 50.9381 4.91332C45.8581 12.5067 40.9181 20.5867 36.1181 29.1533C35.1848 30.8267 34.1114 32.26 32.8981 33.4533C32.5388 33.8062 32.106 34.0653 31.6394 34.2068C31.1728 34.3484 30.6875 34.3678 30.2281 34.2633L8.79813 29.4133C8.4048 29.3267 8.05481 29.3267 7.74814 29.4133L7.23813 29.5533C7.18216 29.5677 7.13015 29.5948 7.08628 29.6323C7.04241 29.6697 7.00788 29.7166 6.98551 29.7691C6.96315 29.8216 6.95357 29.8783 6.9575 29.9346C6.96142 29.9909 6.97878 30.0453 7.00815 30.0933C11.6182 37.7833 14.8781 46.3433 18.1781 54.6333C18.2787 54.8895 18.3112 55.167 18.2727 55.4387C18.2341 55.7104 18.1257 55.967 17.9581 56.1833C11.7081 64.2833 6.12811 71.6133 2.45811 81.3433C1.77811 83.15 2.36144 83.7667 4.20811 83.1933C13.3148 80.3733 22.5715 78.2133 31.9781 76.7133C32.3235 76.6555 32.6822 76.7234 32.9974 76.9064C33.3126 77.0894 33.5663 77.3769 33.7181 77.7233L48.0181 110.273C48.7114 111.84 49.4515 111.91 50.2381 110.483C55.9248 100.137 62.0381 90.0567 68.5781 80.2433Z" stroke="#141732" stroke-width="2"/>
<path d="M59.718 53.5763C59.708 52.858 59.5364 52.149 59.2131 51.4898C58.8897 50.8306 58.421 50.2341 57.8336 49.7343C57.2462 49.2345 56.5516 48.8413 55.7896 48.577C55.0275 48.3127 54.2129 48.1826 53.3922 48.1941C52.5715 48.2055 51.7608 48.3583 51.0064 48.6438C50.2521 48.9293 49.5688 49.3418 48.9956 49.8578C48.4224 50.3738 47.9705 50.9831 47.6657 51.6511C47.3609 52.3191 47.2092 53.0326 47.2192 53.7508C47.2292 54.4691 47.4008 55.1781 47.7242 55.8373C48.0475 56.4965 48.5162 57.093 49.1036 57.5928C49.691 58.0926 50.3856 58.4858 51.1477 58.7501C51.9097 59.0144 52.7243 59.1445 53.545 59.1331C54.3657 59.1216 55.1764 58.9688 55.9308 58.6833C56.6851 58.3979 57.3684 57.9854 57.9416 57.4694C58.5148 56.9534 58.9668 56.344 59.2716 55.676C59.5764 55.008 59.728 54.2945 59.718 53.5763Z" stroke="#507282" stroke-width="2"/>
<path d="M32.7186 77.923L3.25864 85.363C1.53197 85.803 0.795285 85.2096 1.04862 83.583C2.68862 73.163 9.99861 63.693 16.7886 55.623C16.8905 55.5029 16.9587 55.3612 16.9852 55.2143C17.0117 55.0675 16.9956 54.9214 16.9386 54.7929C13.052 45.7663 8.83528 36.8963 4.28861 28.183C3.86861 27.3763 4.09861 27.0596 4.97861 27.233L31.4786 32.523C31.7542 32.5752 32.0373 32.5447 32.2895 32.4355C32.5417 32.3264 32.7509 32.144 32.8886 31.913L50.9386 1.43296C51.0238 1.28956 51.1469 1.17453 51.2959 1.09908C51.445 1.02364 51.6149 0.990338 51.789 1.00242C51.9632 1.0145 52.1358 1.07155 52.29 1.16802C52.4441 1.2645 52.5745 1.39712 52.6686 1.55296C58.5686 11.193 64.1653 21.013 69.4586 31.013C69.5346 31.1551 69.6474 31.2739 69.7848 31.3567C69.9222 31.4395 70.079 31.4831 70.2386 31.483C78.5186 31.4763 86.7586 31.493 94.9586 31.533C98.0519 31.5463 100.552 32.0463 102.459 33.033C102.523 33.0668 102.578 33.1154 102.62 33.1755C102.663 33.2356 102.692 33.3058 102.705 33.3815C102.718 33.4572 102.715 33.5366 102.697 33.6144C102.679 33.6923 102.645 33.7668 102.599 33.833C97.6119 40.8663 92.3153 47.6596 86.7086 54.213C86.5956 54.3435 86.5221 54.5014 86.4972 54.6668C86.4723 54.8322 86.4972 54.9978 86.5686 55.143C92.0186 66.083 97.9286 76.823 100.759 88.743C100.979 89.663 100.669 89.9496 99.8286 89.6029L71.8686 78.173C71.68 78.0952 71.4762 78.0766 71.2944 78.1207C71.1126 78.1647 70.9651 78.2685 70.8786 78.413L49.3686 114.153C48.9486 114.853 48.572 114.803 48.2386 114.003C43.9853 103.83 39.5853 93.723 35.0386 83.683C34.5453 82.5896 33.9653 80.873 33.2986 78.533C33.2447 78.3462 33.1544 78.1788 33.0465 78.0653C32.9387 77.9519 32.8213 77.9009 32.7186 77.923ZM68.5786 80.243C69.0786 79.493 70.1886 78.593 70.6186 77.633C70.6917 77.4695 70.7972 77.3226 70.9292 77.2007C71.0611 77.0788 71.2168 76.9844 71.3871 76.923C71.5574 76.8615 71.7389 76.8343 71.9212 76.8429C72.1034 76.8515 72.2827 76.8957 72.4486 76.973C80.3753 80.693 88.4953 83.913 96.8086 86.633C98.3086 87.1263 98.7753 86.6396 98.2086 85.173C96.7286 81.323 95.6386 77.283 93.7386 73.523C90.7453 67.6096 87.9386 61.593 85.3186 55.473C85.2594 55.329 85.2323 55.1745 85.2392 55.0206C85.2461 54.8668 85.2869 54.7173 85.3586 54.583C89.1586 47.673 95.0886 41.193 100.009 35.023C100.855 33.963 100.572 33.4596 99.1586 33.513C90.0386 33.8863 80.9153 33.833 71.7886 33.353C69.7219 33.2396 68.2053 32.2763 67.2386 30.463C62.6986 21.9096 58.0286 13.423 53.2286 5.00295C52.5086 3.73629 51.7453 3.70629 50.9386 4.91296C45.8586 12.5063 40.9186 20.5863 36.1186 29.153C35.1853 30.8263 34.1119 32.2596 32.8986 33.453C32.5393 33.8058 32.1064 34.0649 31.6399 34.2064C31.1733 34.348 30.688 34.3674 30.2286 34.263L8.79862 29.413C8.40528 29.3263 8.0553 29.3263 7.74863 29.413L7.23862 29.553C7.18264 29.5674 7.13063 29.5944 7.08677 29.6319C7.0429 29.6694 7.00836 29.7163 6.986 29.7688C6.96363 29.8213 6.95406 29.878 6.95798 29.9343C6.9619 29.9906 6.97927 30.0449 7.00864 30.093C11.6186 37.783 14.8786 46.343 18.1786 54.633C18.2792 54.8891 18.3117 55.1666 18.2732 55.4383C18.2346 55.71 18.1262 55.9666 17.9586 56.183C11.7086 64.283 6.12859 71.613 2.45859 81.343C1.77859 83.1496 2.36193 83.7663 4.20859 83.193C13.3153 80.373 22.5719 78.213 31.9786 76.713C32.324 76.6551 32.6827 76.7231 32.9979 76.906C33.3131 77.089 33.5668 77.3765 33.7186 77.723L48.0186 110.273C48.7119 111.84 49.452 111.91 50.2386 110.483C55.9253 100.136 62.0386 90.0563 68.5786 80.243Z" fill="#02010A"/>
<path d="M68.582 80.2433C62.042 90.0567 55.9287 100.137 50.242 110.483C49.4554 111.91 48.7153 111.84 48.022 110.273L33.722 77.7233C33.5702 77.3769 33.3165 77.0894 33.0013 76.9064C32.6861 76.7234 32.3274 76.6555 31.982 76.7133C22.5754 78.2133 13.3187 80.3733 4.21201 83.1933C2.36535 83.7667 1.78201 83.15 2.46201 81.3433C6.13201 71.6133 11.712 64.2833 17.962 56.1833C18.1296 55.967 18.238 55.7104 18.2766 55.4387C18.3152 55.167 18.2826 54.8895 18.182 54.6333C14.882 46.3433 11.6221 37.7833 7.01206 30.0933C6.98269 30.0453 6.96532 29.9909 6.9614 29.9346C6.95748 29.8783 6.96705 29.8216 6.98942 29.7691C7.01178 29.7166 7.04632 29.6697 7.09019 29.6323C7.13405 29.5948 7.18606 29.5677 7.24204 29.5533L7.75205 29.4133C8.05872 29.3267 8.40871 29.3267 8.80204 29.4133L30.232 34.2633C30.6914 34.3678 31.1767 34.3484 31.6433 34.2068C32.1099 34.0653 32.5427 33.8062 32.902 33.4533C34.1153 32.26 35.1887 30.8267 36.122 29.1533C40.922 20.5867 45.8621 12.5067 50.9421 4.91332C51.7487 3.70665 52.512 3.73665 53.232 5.00332C58.032 13.4233 62.702 21.91 67.242 30.4633C68.2087 32.2767 69.7254 33.24 71.792 33.3533C80.9187 33.8333 90.042 33.8867 99.162 33.5133C100.575 33.46 100.859 33.9633 100.012 35.0233C95.0921 41.1933 89.162 47.6733 85.362 54.5833C85.2903 54.7177 85.2495 54.8671 85.2426 55.021C85.2357 55.1749 85.2628 55.3293 85.3221 55.4733C87.9421 61.5933 90.7487 67.61 93.742 73.5233C95.642 77.2833 96.732 81.3233 98.212 85.1733C98.7787 86.64 98.312 87.1267 96.812 86.6333C88.4987 83.9133 80.3787 80.6933 72.452 76.9733C72.2861 76.8961 72.1068 76.8519 71.9246 76.8433C71.7423 76.8347 71.5608 76.8619 71.3905 76.9233C71.2202 76.9847 71.0645 77.0791 70.9326 77.201C70.8007 77.3229 70.6951 77.4699 70.622 77.6333C70.192 78.5933 69.082 79.4933 68.582 80.2433ZM59.7214 53.576C59.7114 52.8578 59.5398 52.1488 59.2165 51.4896C58.8931 50.8304 58.4244 50.2339 57.837 49.7341C57.2496 49.2343 56.5551 48.841 55.793 48.5768C55.031 48.3125 54.2163 48.1824 53.3956 48.1938C52.5749 48.2053 51.7642 48.3581 51.0099 48.6436C50.2555 48.929 49.5722 49.3415 48.999 49.8575C48.4258 50.3735 47.9739 50.9829 47.6691 51.6509C47.3643 52.3189 47.2126 53.0324 47.2226 53.7506C47.2327 54.4689 47.4042 55.1779 47.7276 55.8371C48.0509 56.4963 48.5196 57.0928 49.107 57.5926C49.6944 58.0924 50.389 58.4856 51.1511 58.7499C51.9132 59.0142 52.7278 59.1443 53.5484 59.1328C54.3691 59.1214 55.1798 58.9685 55.9342 58.6831C56.6886 58.3976 57.3718 57.9851 57.945 57.4691C58.5183 56.9531 58.9702 56.3437 59.275 55.6758C59.5798 55.0078 59.7315 54.2943 59.7214 53.576Z" fill="#252C59"/>
<path d="M53.5467 59.1329C56.9981 59.0847 59.7619 56.5969 59.7197 53.5762C59.6775 50.5555 56.8454 48.1458 53.3939 48.194C49.9425 48.2422 47.1787 50.73 47.2209 53.7507C47.2631 56.7714 50.0952 59.1811 53.5467 59.1329Z" fill="#7AB8AB"/>
</svg>
