<svg width="58" height="97" viewBox="0 0 58 97" fill="none" xmlns="http://www.w3.org/2000/svg">
<path d="M23.2315 3.70848C22.8941 3.339 22.4605 3.06401 21.9555 2.8992C21.4505 2.7344 20.8838 2.68301 20.288 2.74797C19.6922 2.81294 19.0788 2.99297 18.4829 3.27782C17.887 3.56266 17.3203 3.94672 16.815 4.40808C15.7946 5.33981 15.0867 6.5298 14.847 7.71626C14.6073 8.90273 14.8554 9.98848 15.5367 10.7347C15.8741 11.1042 16.3077 11.3792 16.8127 11.544C17.3178 11.7088 17.8844 11.7602 18.4802 11.6952C19.076 11.6302 19.6894 11.4502 20.2853 11.1653C20.8812 10.8805 21.448 10.4964 21.9532 10.0351C22.9736 9.10335 23.6815 7.91336 23.9212 6.7269C24.161 5.54043 23.9129 4.45468 23.2315 3.70848Z" stroke="#959399" stroke-width="2"/>
<path d="M34.1687 24.8142C35.0586 25.3965 36.2045 25.5081 37.3544 25.1242C38.5043 24.7404 39.5639 23.8927 40.3002 22.7675C41.0365 21.6424 41.3891 20.332 41.2804 19.1246C41.1718 17.9172 40.6108 16.9118 39.7209 16.3294C38.831 15.7471 37.685 15.6356 36.5352 16.0194C35.3853 16.4033 34.3257 17.251 33.5894 18.3761C32.8531 19.5013 32.5005 20.8117 32.6092 22.0191C32.7178 23.2264 33.2788 24.2319 34.1687 24.8142Z" stroke="#959399" stroke-width="2"/>
<path d="M3.26004 32.3587C3.68047 32.5601 4.15066 32.6471 4.64375 32.6148C5.13684 32.5825 5.64317 32.4314 6.13386 32.1702C6.62454 31.909 7.08996 31.5428 7.50353 31.0925C7.91711 30.6422 8.27074 30.1166 8.54424 29.5458C9.09659 28.3929 9.28902 27.1257 9.0792 26.0229C8.86939 24.92 8.27452 24.0719 7.42545 23.6651C7.00502 23.4636 6.53483 23.3766 6.04174 23.4089C5.54865 23.4413 5.04231 23.5924 4.55163 23.8536C4.06094 24.1148 3.59553 24.481 3.18195 24.9313C2.76838 25.3815 2.41474 25.9071 2.14124 26.478C1.5889 27.6308 1.39647 28.898 1.60629 30.0009C1.8161 31.1037 2.41097 31.9518 3.26004 32.3587Z" stroke="#959399" stroke-width="2"/>
<path d="M49.8621 31.4328C49.6388 31.0861 49.3369 30.7949 48.9738 30.5757C48.6107 30.3564 48.1935 30.2135 47.746 30.155C47.2985 30.0965 46.8294 30.1237 46.3655 30.2349C45.9017 30.3461 45.4522 30.5391 45.0427 30.8031C44.2156 31.3361 43.6016 32.1253 43.3358 32.9972C43.0699 33.8691 43.174 34.7522 43.6251 35.4522C43.8485 35.7988 44.1504 36.09 44.5134 36.3093C44.8765 36.5285 45.2938 36.6714 45.7413 36.7299C46.1888 36.7884 46.6579 36.7612 47.1218 36.65C47.5856 36.5389 48.0351 36.3458 48.4446 36.0819C49.2717 35.5488 49.8857 34.7596 50.1515 33.8877C50.4174 33.0158 50.3133 32.1328 49.8621 31.4328Z" stroke="#959399" stroke-width="2"/>
<path d="M21.4573 36.6182C21.1722 36.2329 20.7925 35.9233 20.3401 35.7073C19.8876 35.4912 19.3712 35.3728 18.8202 35.3588C18.2693 35.3449 17.6946 35.4356 17.1291 35.6259C16.5635 35.8162 16.0181 36.1023 15.5241 36.4679C15.0301 36.8335 14.597 37.2713 14.2497 37.7565C13.9023 38.2417 13.6475 38.7648 13.4998 39.2957C13.352 39.8267 13.3143 40.3552 13.3886 40.8511C13.463 41.3469 13.648 41.8005 13.9331 42.1858C14.2182 42.5711 14.5978 42.8806 15.0503 43.0967C15.5028 43.3128 16.0192 43.4312 16.5702 43.4452C17.1211 43.4591 17.6958 43.3684 18.2614 43.1781C18.8269 42.9878 19.3723 42.7017 19.8663 42.3361C20.3604 41.9705 20.7934 41.5326 21.1407 41.0474C21.4881 40.5622 21.7429 40.0392 21.8906 39.5083C22.0384 38.9773 22.0761 38.4488 22.0018 37.9529C21.9274 37.4571 21.7424 37.0035 21.4573 36.6182Z" stroke="#959399" stroke-width="2"/>
<path d="M50.3054 44.1716C50.332 46.205 51.2854 47.4216 53.1654 47.8216C53.316 47.853 53.4771 47.8478 53.6377 47.8064C53.7982 47.765 53.9543 47.6883 54.0954 47.5816C55.1887 46.735 55.9554 45.6683 56.3954 44.3816C56.9287 42.835 56.462 42.015 54.9954 41.9216C53.3887 41.8283 51.9454 42.2216 50.6654 43.1016C50.5513 43.1777 50.4573 43.318 50.3938 43.5068C50.3302 43.6957 50.2996 43.9258 50.3054 44.1716Z" stroke="#959399" stroke-width="2"/>
<path d="M7.90358 63.8224C8.80806 64.3404 9.95247 64.3535 11.0851 63.8589C12.2176 63.3643 13.2456 62.4024 13.9429 61.185C14.2881 60.5821 14.5418 59.9347 14.6894 59.2796C14.837 58.6245 14.8756 57.9746 14.803 57.367C14.7305 56.7593 14.5482 56.2059 14.2665 55.7382C13.9849 55.2706 13.6094 54.8979 13.1616 54.6414C12.2571 54.1234 11.1127 54.1103 9.98011 54.6049C8.84753 55.0995 7.81953 56.0613 7.12229 57.2788C6.77704 57.8816 6.52339 58.529 6.3758 59.1841C6.22822 59.8392 6.1896 60.4892 6.26215 61.0968C6.3347 61.7044 6.517 62.2579 6.79864 62.7255C7.08028 63.1932 7.45573 63.5659 7.90358 63.8224Z" stroke="#959399" stroke-width="2"/>
<path d="M41.7967 64.4293C42.1967 64.5781 42.6248 64.6393 43.0566 64.6095C43.4883 64.5798 43.9153 64.4596 44.3131 64.2558C44.7108 64.052 45.0716 63.7686 45.3748 63.4219C45.678 63.0751 45.9178 62.6717 46.0803 62.2348C46.2428 61.7978 46.3249 61.3358 46.3219 60.8752C46.319 60.4146 46.231 59.9643 46.0631 59.5501C45.8951 59.1359 45.6504 58.7659 45.343 58.4613C45.0356 58.1566 44.6715 57.9232 44.2715 57.7745C43.8714 57.6257 43.4433 57.5645 43.0115 57.5942C42.5798 57.624 42.1528 57.7442 41.7551 57.948C41.3573 58.1518 40.9965 58.4351 40.6933 58.7819C40.3901 59.1286 40.1504 59.532 39.9879 59.969C39.8253 60.406 39.7432 60.8679 39.7462 61.3286C39.7491 61.7892 39.8371 62.2395 40.0051 62.6536C40.173 63.0678 40.4177 63.4378 40.7251 63.7425C41.0325 64.0471 41.3966 64.2805 41.7967 64.4293Z" stroke="#959399" stroke-width="2"/>
<path d="M20.3594 77.2478C20.6899 77.5136 21.08 77.6988 21.5073 77.7928C21.9346 77.8868 22.3907 77.8877 22.8496 77.7956C23.3086 77.7035 23.7613 77.5201 24.182 77.2558C24.6028 76.9916 24.9832 76.6518 25.3017 76.2557C25.9448 75.4558 26.2963 74.4754 26.279 73.5303C26.2617 72.5851 25.877 71.7526 25.2094 71.2158C24.8788 70.95 24.4887 70.7648 24.0614 70.6708C23.6342 70.5768 23.178 70.5759 22.7191 70.668C22.2602 70.7601 21.8074 70.9435 21.3867 71.2077C20.966 71.472 20.5855 71.8118 20.2671 72.2079C19.6239 73.0078 19.2724 73.9882 19.2897 74.9333C19.307 75.8785 19.6918 76.711 20.3594 77.2478Z" stroke="#959399" stroke-width="2"/>
<path d="M15.7949 89.8918C7.56487 86.4118 10.4549 99.0018 15.5249 94.0418C17.5515 92.0551 17.6415 90.6718 15.7949 89.8918Z" stroke="#959399" stroke-width="2"/>
<path d="M21.9543 10.0358C24.0791 8.09555 24.6514 5.26302 23.2325 3.70916C21.8137 2.1553 18.9409 2.46852 16.8161 4.40876C14.6913 6.349 14.119 9.18153 15.5378 10.7354C16.9567 12.2893 19.8295 11.976 21.9543 10.0358Z" fill="#2C2737"/>
<path d="M33.5872 18.3763C32.054 20.7193 32.3134 23.6018 34.1665 24.8145C36.0197 26.0271 38.7649 25.1108 40.2981 22.7678C41.8313 20.4248 41.5719 17.5423 39.7188 16.3297C37.8656 15.117 35.1204 16.0333 33.5872 18.3763Z" fill="#2C2737"/>
<path d="M2.14324 26.4782C0.993024 28.8789 1.49395 31.5118 3.26209 32.359C5.03024 33.2061 7.39604 31.9467 8.54625 29.5461C9.69647 27.1454 9.19554 24.5125 7.4274 23.6653C5.65926 22.8182 3.29346 24.0776 2.14324 26.4782Z" fill="#2C2737"/>
<path d="M48.4462 36.0815C50.1685 34.9716 50.8032 32.8901 49.8637 31.4324C48.9243 29.9747 46.7666 29.6928 45.0443 30.8028C43.322 31.9127 42.6873 33.9942 43.6267 35.4519C44.5662 36.9096 46.7239 37.1915 48.4462 36.0815Z" fill="#2C2737"/>
<path d="M19.866 42.3363C21.9437 40.7989 22.656 38.2389 21.4569 36.6185C20.2579 34.998 17.6015 34.9307 15.5238 36.4682C13.446 38.0056 12.7338 40.5656 13.9328 42.186C15.1319 43.8065 17.7883 43.8738 19.866 42.3363Z" fill="#2C2737"/>
<path d="M50.6654 43.1016C51.9454 42.2216 53.3887 41.8283 54.9954 41.9216C56.462 42.015 56.9287 42.835 56.3954 44.3816C55.9554 45.6683 55.1887 46.735 54.0954 47.5816C53.9543 47.6883 53.7982 47.765 53.6377 47.8064C53.4771 47.8478 53.316 47.853 53.1654 47.8216C51.2854 47.4216 50.332 46.205 50.3054 44.1716C50.2996 43.9258 50.3302 43.6957 50.3938 43.5068C50.4573 43.318 50.5513 43.1777 50.6654 43.1016Z" fill="#2C2737"/>
<path d="M7.12459 57.279C5.67264 59.8142 6.02245 62.7439 7.90592 63.8226C9.78938 64.9012 12.4933 63.7205 13.9452 61.1852C15.3972 58.65 15.0474 55.7203 13.1639 54.6416C11.2804 53.5629 8.57654 54.7437 7.12459 57.279Z" fill="#2C2737"/>
<path d="M39.9866 59.9689C39.3032 61.8065 40.113 63.8034 41.7954 64.4291C43.4777 65.0547 45.3956 64.0722 46.079 62.2346C46.7624 60.3969 45.9526 58.4 44.2702 57.7744C42.5879 57.1487 40.6701 58.1312 39.9866 59.9689Z" fill="#2C2737"/>
<path d="M20.2671 72.2084C18.9278 73.8741 18.9691 76.1306 20.3594 77.2484C21.7496 78.3662 23.9623 77.922 25.3016 76.2563C26.6409 74.5906 26.5995 72.3341 25.2093 71.2163C23.8191 70.0985 21.6063 70.5427 20.2671 72.2084Z" fill="#2C2737"/>
<path d="M15.7949 89.8918C17.6415 90.6718 17.5515 92.0551 15.5249 94.0418C10.4549 99.0018 7.56487 86.4118 15.7949 89.8918Z" fill="#2C2737"/>
</svg>
