<svg width="74" height="81" viewBox="0 0 74 81" fill="none" xmlns="http://www.w3.org/2000/svg">
<path d="M35.2098 79.8412C45.1016 80.4812 53.4487 77.7845 60.251 71.7512C67.6197 65.2212 72.0529 57.1712 72.3042 47.2712C72.9677 20.9112 56.24 -0.57881 28.1226 1.09119C15.3155 1.85119 8.40932 12.4011 3.89566 22.9211C-1.79416 36.1911 1.45286 50.8412 8.84158 62.6412C14.1494 71.1112 21.3572 75.8612 30.9273 78.1312" stroke="#F6B1A6" stroke-width="2"/>
<path d="M35.2142 79.8414L35.2041 73.9114C35.2043 73.6165 35.3079 73.3284 35.4987 73.0916C35.6895 72.8548 35.9569 72.6825 36.2596 72.6014C38.813 71.9014 40.7934 70.5414 42.2008 68.5214C46.7647 61.9714 51.5598 55.8014 55.782 48.9814C56.5996 47.6547 56.1472 46.928 54.4248 46.8014C51.1276 46.5514 42.9145 59.5014 40.8638 62.4614C40.2338 63.3747 39.4966 64.1947 38.6522 64.9214C37.5129 65.908 36.6115 66.1281 35.948 65.5814C35.8448 65.4946 35.762 65.3709 35.7062 65.2199C35.6504 65.0689 35.623 64.8949 35.6263 64.7114C35.8475 53.8214 37.2146 41.4514 34.8824 35.2114C34.8249 35.0596 34.7324 34.9261 34.6142 34.8243C34.4959 34.7225 34.3562 34.656 34.2089 34.6314C32.701 34.3914 31.9269 35.2314 31.8163 36.7514C31.1864 45.1314 30.868 53.398 30.8613 61.5514C30.8613 62.3314 30.5531 62.4714 29.9365 61.9714C24.0791 57.2914 20.3127 51.3014 18.6373 44.0014C18.6116 43.8894 18.5343 43.7902 18.4186 43.7207C18.3029 43.6513 18.1562 43.6162 18.004 43.6214C15.4807 43.7014 15.0284 45.8314 15.5712 47.9614C17.8632 56.9414 22.6985 62.7414 29.5746 68.7014C29.823 68.9159 29.9986 69.2024 30.0772 69.5214C30.801 72.4481 31.0858 75.3181 30.9317 78.1314" stroke="#8D5353" stroke-width="2"/>
<path d="M35.2098 79.8412L35.1997 73.9112C35.2 73.6163 35.3035 73.3282 35.4943 73.0914C35.6851 72.8546 35.9525 72.6823 36.2553 72.6012C38.8086 71.9012 40.789 70.5412 42.1964 68.5212C46.7603 61.9712 51.5555 55.8011 55.7776 48.9811C56.5952 47.6545 56.1428 46.9278 54.4205 46.8012C51.1232 46.5512 42.9101 59.5012 40.8594 62.4612C40.2294 63.3745 39.4922 64.1945 38.6478 64.9211C37.5085 65.9078 36.6071 66.1278 35.9436 65.5812C35.8404 65.4944 35.7576 65.3706 35.7018 65.2197C35.646 65.0687 35.6187 64.8946 35.622 64.7112C35.8431 53.8212 37.2103 41.4512 34.878 35.2112C34.8205 35.0594 34.728 34.9259 34.6098 34.8241C34.4916 34.7223 34.3518 34.6557 34.2045 34.6312C32.6966 34.3912 31.9226 35.2312 31.812 36.7512C31.182 45.1312 30.8637 53.3978 30.857 61.5512C30.857 62.3312 30.5487 62.4712 29.9321 61.9712C24.0748 57.2912 20.3083 51.3012 18.6329 44.0012C18.6073 43.8892 18.5299 43.7899 18.4142 43.7205C18.2985 43.6511 18.1518 43.616 17.9996 43.6212C15.4764 43.7012 15.024 45.8312 15.5668 47.9612C17.8588 56.9412 22.6942 62.7412 29.5702 68.7012C29.8187 68.9157 29.9943 69.2022 30.0729 69.5212C30.7966 72.4478 31.0815 75.3178 30.9273 78.1312C21.3572 75.8612 14.1494 71.1112 8.84158 62.6412C1.45286 50.8412 -1.79416 36.1911 3.89566 22.9211C8.40932 12.4011 15.3155 1.85119 28.1226 1.09119C56.24 -0.57881 72.9677 20.9112 72.3042 47.2712C72.0529 57.1712 67.6197 65.2212 60.251 71.7512C53.4487 77.7845 45.1016 80.4812 35.2098 79.8412Z" fill="#ED6A5B"/>
<path d="M35.2142 79.8409C33.465 79.7343 32.0375 79.1642 30.9317 78.1309C31.0858 75.3176 30.801 72.4476 30.0772 69.5209C29.9986 69.2019 29.823 68.9154 29.5746 68.7009C22.6985 62.7409 17.8632 56.9409 15.5712 47.9609C15.0284 45.8309 15.4807 43.7009 18.004 43.6209C18.1562 43.6157 18.3029 43.6508 18.4186 43.7203C18.5343 43.7897 18.6116 43.889 18.6373 44.0009C20.3127 51.3009 24.0791 57.2909 29.9365 61.9709C30.5531 62.4709 30.8613 62.3309 30.8613 61.5509C30.868 53.3975 31.1864 45.1309 31.8163 36.7509C31.9269 35.2309 32.701 34.3909 34.2089 34.6309C34.3562 34.6555 34.4959 34.722 34.6142 34.8238C34.7324 34.9256 34.8249 35.0591 34.8824 35.2109C37.2146 41.4509 35.8475 53.8209 35.6263 64.7109C35.623 64.8944 35.6504 65.0684 35.7062 65.2194C35.762 65.3704 35.8448 65.4941 35.948 65.5809C36.6115 66.1276 37.5129 65.9075 38.6522 64.9209C39.4966 64.1942 40.2338 63.3743 40.8638 62.4609C42.9145 59.5009 51.1276 46.5509 54.4248 46.8009C56.1472 46.9275 56.5996 47.6542 55.782 48.9809C51.5598 55.8009 46.7647 61.9709 42.2008 68.5209C40.7934 70.5409 38.813 71.9009 36.2596 72.6009C35.9569 72.682 35.6895 72.8543 35.4987 73.0911C35.3079 73.3279 35.2043 73.616 35.2041 73.9109L35.2142 79.8409Z" fill="#2D3B4B"/>
</svg>
