<svg width="114" height="149" viewBox="0 0 114 149" fill="none" xmlns="http://www.w3.org/2000/svg">
<path d="M57.5586 129.886C66.9453 130.066 75.9519 128.363 84.5786 124.776C84.6324 124.755 84.6921 124.751 84.7543 124.764C84.8165 124.777 84.8799 124.807 84.9405 124.853C85.0012 124.899 85.058 124.959 85.1075 125.03C85.157 125.101 85.1982 125.181 85.2286 125.266C87.3153 131 90.1886 136.313 93.8486 141.206C94.0209 141.437 94.2629 141.624 94.5538 141.749C94.8447 141.875 95.1758 141.935 95.5186 141.926C100.059 141.806 93.4986 125.426 92.5786 123.476C92.5189 123.348 92.5042 123.204 92.5369 123.067C92.5697 122.931 92.6479 122.811 92.7586 122.726C106.279 112.64 112.692 99.0663 111.999 82.0063C110.979 56.9663 91.5286 44.9862 72.5286 33.0762C65.3186 28.5562 61.8386 24.6363 56.4886 18.3063C52.8819 14.0196 47.7586 9.6396 41.1186 5.16627C29.5486 -2.62373 10.9386 0.836259 3.54859 12.8463C-0.111407 18.7963 1.00859 34.7963 1.84859 40.4263C3.16859 49.2663 8.48859 58.9863 8.99859 69.1163C9.41859 77.5163 10.5219 85.8196 12.3086 94.0263C16.1386 111.576 31.2386 124.346 48.2586 128.526C48.3954 128.558 48.5204 128.645 48.6156 128.774C48.7108 128.903 48.7713 129.069 48.7886 129.246C49.2686 134.586 50.5253 139.746 52.5586 144.726C52.8688 145.483 53.4521 146.119 54.2086 146.526C61.7786 150.626 57.9086 132.936 57.2686 130.536C57.2468 130.458 57.2373 130.377 57.2409 130.298C57.2445 130.219 57.2611 130.145 57.2893 130.082C57.3175 130.019 57.3565 129.968 57.4033 129.934C57.45 129.9 57.5032 129.884 57.5586 129.886Z" stroke="#8F929F" stroke-width="2"/>
<path d="M47.5556 31.9958C47.4313 31.9479 47.2912 31.9383 47.1504 31.9682C47.0096 31.9982 46.8731 32.0665 46.7556 32.1658L44.7356 33.8858C44.4823 34.0991 44.2889 34.3825 44.1556 34.7358C42.1489 40.0025 39.1056 44.5558 35.0256 48.3958C34.1189 49.2491 33.6456 50.2792 33.6056 51.4858C33.604 51.5432 33.6164 51.5999 33.6419 51.6514C33.6674 51.7029 33.7052 51.7477 33.7521 51.7819C33.7991 51.8161 33.8538 51.8389 33.9118 51.8482C33.9698 51.8576 34.0294 51.8534 34.0856 51.8358C43.8056 48.6858 44.3856 41.8658 49.0056 34.5858C49.099 34.4336 49.1602 34.2706 49.1845 34.1093C49.2088 33.948 49.1955 33.7929 49.1456 33.6558C48.8656 32.8558 48.3356 32.3025 47.5556 31.9958Z" stroke="#252A44" stroke-width="2"/>
<path d="M28.8272 73.0561C29.9972 72.3761 30.8472 69.296 31.3972 67.956C33.4372 63.006 38.0172 62.996 41.0072 59.016C45.2606 53.3627 49.7906 47.9094 54.5972 42.656C54.7346 42.5067 54.8738 42.3815 55.0016 42.2922C55.1294 42.2029 55.2415 42.1526 55.3272 42.146C57.7072 41.926 57.9139 40.8627 55.9472 38.956C55.91 38.9204 55.8649 38.8941 55.8147 38.8788C55.7645 38.8635 55.7104 38.8594 55.6559 38.867C55.6013 38.8745 55.5474 38.8934 55.4977 38.9225C55.448 38.9516 55.4036 38.9903 55.3672 39.036C53.0272 41.906 49.9572 43.976 47.7472 46.716C44.1472 51.1894 40.3072 55.4627 36.2272 59.536C32.3572 63.406 29.1572 63.526 27.4172 69.596C26.7839 71.8027 25.5739 73.656 23.7872 75.156C23.2539 75.6027 23.3172 75.8394 23.9772 75.8661C25.7839 75.9394 27.2006 75.2761 28.2272 73.8761C28.6272 73.3294 28.8272 73.0561 28.8272 73.0561Z" stroke="#252A44" stroke-width="2"/>
<path d="M32.0867 73.4165L31.4267 73.7165C31.0473 73.8837 30.7618 74.0872 30.6267 74.2865C29.0333 76.6931 27.0767 78.7531 24.7567 80.4665C24.625 80.5634 24.5165 80.6827 24.4387 80.8158C24.3609 80.9489 24.3158 81.0925 24.3067 81.2365L24.1067 83.9865C24.0979 84.1336 24.1379 84.2786 24.2199 84.3971C24.3019 84.5155 24.4208 84.6001 24.5567 84.6364C25.4967 84.8864 26.1667 84.3565 26.6267 83.4765C27.9867 80.8831 29.8 78.5898 32.0667 76.5965C32.237 76.4475 32.3738 76.283 32.4633 76.1198C32.5529 75.9565 32.5919 75.8002 32.5767 75.6665C32.3167 73.5331 33.3067 72.8431 35.5467 73.5965C35.9083 73.7174 36.2989 73.7195 36.6607 73.6024C37.0226 73.4854 37.3367 73.2554 37.5567 72.9464C44.4467 63.2864 51.9167 56.6965 61.0167 49.1765C61.5767 48.7065 68.9067 44.1664 62.9767 44.1964C62.2377 44.2025 61.4444 44.5491 60.7567 45.1665C57.8367 47.7798 55.2167 50.6565 52.8967 53.7965C52.7008 54.0644 52.4235 54.2759 52.0967 54.4065C50.5567 55.0365 49.4867 55.1365 48.2867 56.4365C45.8667 59.0632 43.2767 61.5064 40.5167 63.7664C38.1267 65.7064 37.1167 67.7865 35.5867 70.3065C35.497 70.4546 35.3866 70.5793 35.2647 70.6698C35.1428 70.7604 35.0131 70.8141 34.8867 70.8264C33.7667 70.9531 33.0567 71.5698 32.7567 72.6765C32.7133 72.8357 32.6306 72.985 32.5145 73.1131C32.3985 73.2413 32.2522 73.345 32.0867 73.4165Z" stroke="#252A44" stroke-width="2"/>
<path d="M67.6693 51.2962C65.3693 53.8562 64.9793 55.2761 61.6693 56.9061C61.5356 56.9716 61.4182 57.0706 61.3262 57.1956C61.2342 57.3205 61.1702 57.468 61.1393 57.6262C60.966 58.4795 60.5993 59.0895 60.0393 59.4561C56.386 61.8495 53.206 64.7328 50.4993 68.1062C48.7093 70.3362 46.0493 71.6762 44.5493 74.5562C44.515 74.6211 44.4928 74.6919 44.4844 74.7638C44.4759 74.8356 44.4813 74.907 44.5002 74.9732C44.5191 75.0393 44.5511 75.0988 44.594 75.1475C44.637 75.1963 44.6899 75.2334 44.7493 75.2562C46.6893 76.0162 52.9593 67.8162 54.4493 66.5662C59.736 62.1262 64.8293 57.4628 69.7293 52.5761C69.8046 52.5001 69.8696 52.4134 69.9195 52.3224C69.9693 52.2314 70.0027 52.1386 70.0172 52.051C70.0316 51.9634 70.0267 51.8832 70.0028 51.8165C69.979 51.7499 69.9367 51.6985 69.8793 51.6662L68.5793 50.9561C68.4657 50.8946 68.3135 50.8948 68.148 50.9567C67.9824 51.0185 67.8135 51.1383 67.6693 51.2962Z" stroke="#272D4A" stroke-width="2"/>
<path d="M62.7279 67.446C57.5879 71.236 52.2079 74.9261 47.7279 79.5061C45.1979 82.0861 45.5279 85.0761 40.8979 85.7561C40.822 85.766 40.75 85.7944 40.6873 85.8392C40.6247 85.8839 40.573 85.9438 40.5363 86.0143C40.4996 86.0848 40.4789 86.1639 40.4757 86.2457C40.4725 86.3275 40.4869 86.4097 40.5178 86.4861C41.3245 88.4928 40.9512 90.1761 39.3979 91.5361C39.2485 91.668 39.1324 91.82 39.0633 91.9741C38.9942 92.1283 38.9749 92.2782 39.0078 92.4061C39.1278 92.8961 39.9478 92.7861 40.2778 92.5561C42.1245 91.3161 43.1912 89.5394 43.4779 87.2261C43.5232 86.8887 43.664 86.5896 43.8778 86.3761C49.7445 80.4561 55.3945 75.4094 60.8279 71.2361C62.8279 69.7028 64.3912 68.3294 65.5178 67.1161C65.7312 66.8828 65.9978 66.7027 66.3178 66.5761C68.6478 65.6561 69.2179 63.5261 70.7279 62.3461C71.8479 61.4727 73.0245 60.6727 74.2579 59.946C76.6779 58.536 74.7279 57.1461 73.0779 58.4061C69.4279 61.1961 66.1779 64.906 62.7279 67.446Z" stroke="#252A44" stroke-width="2"/>
<path d="M57.2647 130.535C57.9047 132.935 61.7747 150.625 54.2047 146.525C53.4482 146.118 52.8649 145.482 52.5547 144.725C50.5214 139.745 49.2647 134.585 48.7847 129.245C48.7674 129.068 48.7069 128.902 48.6117 128.773C48.5164 128.644 48.3915 128.557 48.2547 128.525C31.2347 124.345 16.1347 111.575 12.3047 94.0253C10.518 85.8186 9.41469 77.5153 8.99469 69.1153C8.48469 58.9853 3.16469 49.2653 1.84469 40.4253C1.00469 34.7953 -0.115313 18.7953 3.54469 12.8453C10.9347 0.835282 29.5447 -2.62471 41.1147 5.16529C47.7547 9.63862 52.878 14.0186 56.4847 18.3053C61.8347 24.6353 65.3147 28.5553 72.5247 33.0753C91.5247 44.9853 110.975 56.9653 111.995 82.0053C112.688 99.0653 106.275 112.639 92.7547 122.725C92.644 122.81 92.5658 122.93 92.533 123.066C92.5003 123.203 92.515 123.347 92.5747 123.475C93.4947 125.425 100.055 141.805 95.5147 141.925C95.1719 141.934 94.8408 141.874 94.5499 141.748C94.259 141.623 94.017 141.436 93.8447 141.205C90.1847 136.312 87.3114 130.999 85.2247 125.265C85.1943 125.18 85.1531 125.1 85.1036 125.029C85.0541 124.958 84.9973 124.898 84.9366 124.852C84.8759 124.806 84.8126 124.776 84.7504 124.763C84.6882 124.75 84.6285 124.754 84.5747 124.775C75.948 128.362 66.9414 130.065 57.5547 129.885C57.4993 129.883 57.4461 129.899 57.3994 129.933C57.3526 129.967 57.3135 130.018 57.2854 130.081C57.2572 130.144 57.2406 130.218 57.237 130.297C57.2334 130.376 57.2429 130.458 57.2647 130.535ZM47.5547 31.9953C47.4303 31.9473 47.2903 31.9378 47.1495 31.9677C47.0086 31.9976 46.8722 32.0659 46.7547 32.1653L44.7347 33.8853C44.4813 34.0986 44.288 34.382 44.1547 34.7353C42.148 40.002 39.1047 44.5553 35.0247 48.3953C34.118 49.2486 33.6447 50.2786 33.6047 51.4853C33.6031 51.5426 33.6155 51.5994 33.641 51.6509C33.6665 51.7024 33.7043 51.7471 33.7512 51.7814C33.7982 51.8156 33.8529 51.8383 33.9109 51.8477C33.9689 51.8571 34.0285 51.8528 34.0847 51.8353C43.8047 48.6853 44.3847 41.8653 49.0047 34.5853C49.0981 34.4331 49.1593 34.27 49.1836 34.1088C49.2079 33.9475 49.1945 33.7924 49.1447 33.6553C48.8647 32.8553 48.3347 32.302 47.5547 31.9953ZM28.8247 73.0553C29.9947 72.3753 30.8447 69.2953 31.3947 67.9553C33.4347 63.0053 38.0147 62.9953 41.0047 59.0153C45.258 53.3619 49.788 47.9086 54.5947 42.6553C54.732 42.506 54.8713 42.3807 54.999 42.2915C55.1268 42.2022 55.2389 42.1518 55.3247 42.1453C57.7047 41.9253 57.9114 40.8619 55.9447 38.9553C55.9075 38.9197 55.8623 38.8934 55.8122 38.8781C55.762 38.8627 55.7079 38.8587 55.6533 38.8662C55.5987 38.8737 55.5449 38.8926 55.4952 38.9218C55.4455 38.9509 55.401 38.9895 55.3647 39.0353C53.0247 41.9053 49.9547 43.9753 47.7447 46.7153C44.1447 51.1886 40.3047 55.462 36.2247 59.5353C32.3547 63.4053 29.1547 63.5253 27.4147 69.5953C26.7814 71.8019 25.5714 73.6553 23.7847 75.1553C23.2514 75.6019 23.3147 75.8386 23.9747 75.8653C25.7814 75.9386 27.198 75.2753 28.2247 73.8753C28.6247 73.3286 28.8247 73.0553 28.8247 73.0553ZM32.0847 73.4153L31.4247 73.7153C31.0454 73.8826 30.7599 74.086 30.6247 74.2853C29.0314 76.692 27.0747 78.7519 24.7547 80.4653C24.6231 80.5622 24.5145 80.6815 24.4367 80.8146C24.3589 80.9477 24.3138 81.0913 24.3047 81.2353L24.1047 83.9853C24.0959 84.1324 24.1359 84.2774 24.2179 84.3959C24.2999 84.5143 24.4189 84.5989 24.5547 84.6353C25.4947 84.8853 26.1647 84.3553 26.6247 83.4753C27.9847 80.882 29.798 78.5886 32.0647 76.5953C32.235 76.4463 32.3718 76.2819 32.4614 76.1186C32.5509 75.9553 32.59 75.799 32.5747 75.6653C32.3147 73.532 33.3047 72.8419 35.5447 73.5953C35.9064 73.7162 36.2969 73.7183 36.6588 73.6013C37.0206 73.4842 37.3347 73.2542 37.5547 72.9453C44.4447 63.2853 51.9147 56.6953 61.0147 49.1753C61.5747 48.7053 68.9047 44.1653 62.9747 44.1953C62.2358 44.2013 61.4424 44.548 60.7547 45.1653C57.8347 47.7786 55.2147 50.6553 52.8947 53.7953C52.6989 54.0632 52.4215 54.2747 52.0947 54.4053C50.5547 55.0353 49.4847 55.1353 48.2847 56.4353C45.8647 59.062 43.2747 61.5053 40.5147 63.7653C38.1247 65.7053 37.1147 67.7853 35.5847 70.3053C35.4951 70.4534 35.3846 70.5781 35.2627 70.6686C35.1408 70.7592 35.0111 70.8129 34.8847 70.8253C33.7647 70.9519 33.0547 71.5686 32.7547 72.6753C32.7114 72.8345 32.6286 72.9838 32.5126 73.1119C32.3965 73.2401 32.2503 73.3438 32.0847 73.4153ZM67.6647 51.2953C65.3647 53.8553 64.9747 55.2753 61.6647 56.9053C61.531 56.9707 61.4135 57.0698 61.3215 57.1947C61.2296 57.3197 61.1656 57.4671 61.1347 57.6253C60.9614 58.4786 60.5947 59.0886 60.0347 59.4553C56.3814 61.8486 53.2014 64.732 50.4947 68.1053C48.7047 70.3353 46.0447 71.6753 44.5447 74.5553C44.5103 74.6203 44.4882 74.691 44.4797 74.7629C44.4712 74.8348 44.4766 74.9061 44.4955 74.9723C44.5144 75.0385 44.5464 75.0979 44.5894 75.1467C44.6323 75.1954 44.6852 75.2325 44.7447 75.2553C46.6847 76.0153 52.9547 67.8153 54.4447 66.5653C59.7313 62.1253 64.8247 57.4619 69.7247 52.5753C69.8 52.4992 69.865 52.4125 69.9148 52.3215C69.9647 52.2306 69.9981 52.1377 70.0126 52.0501C70.027 51.9625 70.0221 51.8823 69.9982 51.8157C69.9743 51.749 69.9321 51.6976 69.8747 51.6653L68.5747 50.9553C68.4611 50.8938 68.3089 50.894 68.1433 50.9558C67.9778 51.0177 67.8089 51.1375 67.6647 51.2953ZM62.7247 67.4453C57.5847 71.2353 52.2047 74.9253 47.7247 79.5053C45.1947 82.0853 45.5247 85.0753 40.8947 85.7553C40.8189 85.7652 40.7468 85.7936 40.6842 85.8384C40.6215 85.8831 40.5699 85.943 40.5332 86.0135C40.4965 86.084 40.4757 86.1632 40.4725 86.2449C40.4693 86.3267 40.4838 86.4089 40.5147 86.4853C41.3214 88.492 40.948 90.1753 39.3947 91.5353C39.2453 91.6672 39.1292 91.8192 39.0601 91.9733C38.991 92.1275 38.9718 92.2774 39.0047 92.4053C39.1247 92.8953 39.9447 92.7853 40.2747 92.5553C42.1214 91.3153 43.188 89.5386 43.4747 87.2253C43.5201 86.8879 43.6608 86.5889 43.8747 86.3753C49.7413 80.4553 55.3914 75.4086 60.8247 71.2353C62.8247 69.702 64.388 68.3286 65.5147 67.1153C65.728 66.882 65.9947 66.7019 66.3147 66.5753C68.6447 65.6553 69.2147 63.5253 70.7247 62.3453C71.8447 61.472 73.0214 60.6719 74.2547 59.9453C76.6747 58.5353 74.7247 57.1453 73.0747 58.4053C69.4247 61.1953 66.1747 64.9053 62.7247 67.4453Z" fill="#202641"/>
<path d="M47.5556 31.9958C48.3356 32.3025 48.8656 32.8558 49.1456 33.6558C49.1955 33.7929 49.2088 33.948 49.1845 34.1093C49.1602 34.2706 49.099 34.4336 49.0056 34.5858C44.3856 41.8658 43.8056 48.6858 34.0856 51.8358C34.0294 51.8534 33.9698 51.8576 33.9118 51.8482C33.8538 51.8389 33.7991 51.8161 33.7521 51.7819C33.7052 51.7477 33.6674 51.7029 33.6419 51.6514C33.6164 51.5999 33.604 51.5432 33.6056 51.4858C33.6456 50.2792 34.1189 49.2491 35.0256 48.3958C39.1056 44.5558 42.1489 40.0025 44.1556 34.7358C44.2889 34.3825 44.4823 34.0991 44.7356 33.8858L46.7556 32.1658C46.8731 32.0665 47.0096 31.9982 47.1504 31.9682C47.2912 31.9383 47.4313 31.9479 47.5556 31.9958Z" fill="#292D47"/>
<path d="M28.2272 73.8761C27.2006 75.2761 25.7839 75.9394 23.9772 75.8661C23.3172 75.8394 23.2539 75.6027 23.7872 75.156C25.5739 73.656 26.7839 71.8027 27.4172 69.596C29.1572 63.526 32.3572 63.406 36.2272 59.536C40.3072 55.4627 44.1472 51.1894 47.7472 46.716C49.9572 43.976 53.0272 41.906 55.3672 39.036C55.4036 38.9903 55.448 38.9516 55.4977 38.9225C55.5474 38.8934 55.6013 38.8745 55.6559 38.867C55.7104 38.8594 55.7645 38.8635 55.8147 38.8788C55.8649 38.8941 55.91 38.9204 55.9472 38.956C57.9139 40.8627 57.7072 41.926 55.3272 42.146C55.2415 42.1526 55.1294 42.2029 55.0016 42.2922C54.8738 42.3815 54.7346 42.5067 54.5972 42.656C49.7906 47.9094 45.2606 53.3627 41.0072 59.016C38.0172 62.996 33.4372 63.006 31.3972 67.956C30.8472 69.296 29.9972 72.3761 28.8272 73.0561C28.8272 73.0561 28.6272 73.3294 28.2272 73.8761Z" fill="#292D47"/>
<path d="M32.7567 72.6755C33.0567 71.5688 33.7667 70.9521 34.8867 70.8255C35.0131 70.8131 35.1428 70.7594 35.2647 70.6688C35.3866 70.5783 35.497 70.4536 35.5867 70.3055C37.1167 67.7855 38.1267 65.7055 40.5167 63.7655C43.2767 61.5055 45.8667 59.0622 48.2867 56.4355C49.4867 55.1355 50.5567 55.0355 52.0967 54.4055C52.4235 54.2749 52.7008 54.0634 52.8967 53.7955C55.2167 50.6555 57.8367 47.7788 60.7567 45.1655C61.4444 44.5482 62.2377 44.2015 62.9767 44.1955C68.9067 44.1655 61.5767 48.7055 61.0167 49.1755C51.9167 56.6955 44.4467 63.2855 37.5567 72.9455C37.3367 73.2544 37.0226 73.4844 36.6607 73.6015C36.2989 73.7185 35.9083 73.7164 35.5467 73.5955C33.3067 72.8422 32.3167 73.5322 32.5767 75.6655C32.5919 75.7992 32.5529 75.9555 32.4633 76.1188C32.3738 76.2821 32.237 76.4465 32.0667 76.5955C29.8 78.5888 27.9867 80.8822 26.6267 83.4755C26.1667 84.3555 25.4967 84.8855 24.5567 84.6355C24.4208 84.5991 24.3019 84.5145 24.2199 84.3961C24.1379 84.2776 24.0979 84.1326 24.1067 83.9855L24.3067 81.2355C24.3158 81.0915 24.3609 80.9479 24.4387 80.8148C24.5165 80.6817 24.625 80.5624 24.7567 80.4655C27.0767 78.7521 29.0333 76.6922 30.6267 74.2855C30.7618 74.0862 31.0473 73.8828 31.4267 73.7155L32.0867 73.4155C32.2522 73.344 32.3985 73.2403 32.5145 73.1121C32.6306 72.984 32.7133 72.8347 32.7567 72.6755Z" fill="#292D47"/>
<path d="M61.6654 56.9052C64.9754 55.2752 65.3654 53.8552 67.6654 51.2952C67.8096 51.1374 67.9785 51.0176 68.1441 50.9557C68.3096 50.8939 68.4618 50.8937 68.5754 50.9552L69.8754 51.6652C69.9328 51.6975 69.9751 51.7489 69.9989 51.8156C70.0228 51.8822 70.0277 51.9624 70.0133 52.05C69.9988 52.1376 69.9654 52.2305 69.9156 52.3214C69.8657 52.4124 69.8007 52.4991 69.7254 52.5752C64.8254 57.4618 59.7321 62.1252 54.4454 66.5652C52.9554 67.8152 46.6854 76.0152 44.7454 75.2552C44.686 75.2324 44.6331 75.1953 44.5901 75.1466C44.5472 75.0978 44.5152 75.0383 44.4963 74.9722C44.4774 74.906 44.472 74.8347 44.4805 74.7628C44.4889 74.6909 44.5111 74.6202 44.5454 74.5552C46.0454 71.6752 48.7054 70.3352 50.4954 68.1052C53.2021 64.7318 56.3821 61.8485 60.0354 59.4552C60.5954 59.0885 60.9621 58.4785 61.1354 57.6252C61.1663 57.467 61.2303 57.3195 61.3223 57.1946C61.4143 57.0696 61.5317 56.9706 61.6654 56.9052Z" fill="#2E3352"/>
<path d="M62.7279 67.446C66.1779 64.906 69.4279 61.1961 73.0779 58.4061C74.7279 57.1461 76.6778 58.536 74.2579 59.946C73.0245 60.6727 71.8479 61.4727 70.7279 62.3461C69.2179 63.5261 68.6478 65.6561 66.3178 66.5761C65.9978 66.7027 65.7312 66.8828 65.5178 67.1161C64.3912 68.3294 62.8279 69.7028 60.8279 71.2361C55.3945 75.4094 49.7445 80.4561 43.8778 86.3761C43.664 86.5896 43.5232 86.8887 43.4779 87.2261C43.1912 89.5394 42.1245 91.3161 40.2778 92.5561C39.9478 92.7861 39.1278 92.8961 39.0078 92.4061C38.9749 92.2782 38.9942 92.1283 39.0633 91.9741C39.1324 91.82 39.2485 91.668 39.3979 91.5361C40.9512 90.1761 41.3245 88.4928 40.5178 86.4861C40.4869 86.4097 40.4725 86.3275 40.4757 86.2457C40.4789 86.1639 40.4996 86.0848 40.5363 86.0143C40.573 85.9438 40.6247 85.8839 40.6873 85.8392C40.75 85.7944 40.822 85.766 40.8979 85.7561C45.5279 85.0761 45.1979 82.0861 47.7279 79.5061C52.2079 74.9261 57.5879 71.236 62.7279 67.446Z" fill="#292D47"/>
</svg>
