<svg width="101" height="76" viewBox="0 0 101 76" fill="none" xmlns="http://www.w3.org/2000/svg">
<path d="M59.6052 13.9126C59.502 13.8527 59.4136 13.7704 59.3463 13.6718C59.279 13.5733 59.2346 13.4609 59.2164 13.343C59.1982 13.225 59.2066 13.1046 59.241 12.9903C59.2754 12.876 59.3349 12.7709 59.4152 12.6826C62.4485 9.41594 65.4152 5.96928 68.3152 2.34261C72.2552 -2.59739 76.9952 7.27259 78.9652 9.88259C79.0022 9.93272 79.0281 9.9902 79.0412 10.0508C79.0542 10.1114 79.0541 10.1736 79.0407 10.233C79.0273 10.2924 79.001 10.3473 78.9637 10.394C78.9264 10.4406 78.8791 10.4777 78.8252 10.5026C77.3552 11.2126 75.7852 11.4926 74.4752 12.4326C68.8752 16.4626 66.0052 17.6526 59.6052 13.9126Z" fill="#78D1B7"/>
<path d="M96.4736 69.3218C90.7136 64.9518 86.7535 61.9618 79.1235 64.1918C79.014 64.225 78.899 64.2357 78.7851 64.2234C78.6712 64.2111 78.5607 64.176 78.4601 64.1201C78.3596 64.0643 78.2709 63.9888 78.1994 63.898C78.1279 63.8073 78.0749 63.7032 78.0436 63.5918C75.3836 54.0618 83.8836 53.7618 90.3536 53.7318C90.4748 53.7319 90.5947 53.7075 90.7065 53.66C90.8182 53.6125 90.9194 53.543 91.0042 53.4554C91.089 53.3679 91.1556 53.264 91.2001 53.1501C91.2447 53.0361 91.2662 52.9143 91.2635 52.7918C91.2235 51.2918 91.7836 44.4418 94.9836 46.6218C95.1197 46.7135 95.2384 46.8384 95.3327 46.9894C95.4271 47.1404 95.4954 47.3146 95.5336 47.5018C96.5802 52.4885 98.0669 57.3385 99.9936 62.0518C100.129 62.3853 100.136 62.7407 100.014 63.0418L97.5735 69.1218C97.5365 69.2153 97.4755 69.2968 97.3953 69.3598C97.3152 69.4228 97.218 69.4657 97.1115 69.485C97.005 69.5044 96.892 69.4997 96.7813 69.4714C96.6706 69.4431 96.5653 69.3919 96.4736 69.3218Z" fill="#78D1B7"/>
<path d="M3.40583 74.082C-4.08417 69.312 6.17585 57.012 12.4858 59.882C20.2458 63.412 12.6758 80.002 3.40583 74.082Z" fill="#78D1B7"/>
</svg>
