<svg width="81" height="52" viewBox="0 0 81 52" fill="none" xmlns="http://www.w3.org/2000/svg">
<path d="M3.71923 36.6236C24.0892 28.8136 34.1192 8.39358 59.9392 16.4636C77.4992 21.9536 74.7692 44.2136 58.2992 49.0236C58.1362 49.0708 57.9915 49.1557 57.883 49.2677C57.7745 49.3797 57.7071 49.5139 57.6892 49.6536C57.5759 50.4936 58.1859 50.7969 59.5192 50.5636C86.1192 45.9436 84.8492 11.3036 62.0692 2.94356C52.6592 -0.506442 43.6092 1.00356 34.2092 4.60356C19.2026 10.3502 8.4859 20.3869 2.05923 34.7136C1.42923 36.1136 2.20923 37.2036 3.71923 36.6236Z" stroke="#C3EBD9" stroke-width="2"/>
<path d="M59.9392 16.4636C34.1192 8.39358 24.0892 28.8136 3.71923 36.6236C2.20923 37.2036 1.42923 36.1136 2.05923 34.7136C8.4859 20.3869 19.2026 10.3502 34.2092 4.60356C43.6092 1.00356 52.6592 -0.506442 62.0692 2.94356C84.8492 11.3036 86.1192 45.9436 59.5192 50.5636C58.1859 50.7969 57.5759 50.4936 57.6892 49.6536C57.7071 49.5139 57.7745 49.3797 57.883 49.2677C57.9915 49.1557 58.1362 49.0708 58.2992 49.0236C74.7692 44.2136 77.4992 21.9536 59.9392 16.4636Z" fill="#86D7B2"/>
</svg>
