<svg width="41" height="101" viewBox="0 0 41 101" fill="none" xmlns="http://www.w3.org/2000/svg">
<path d="M13.3217 98.3039C14.7617 99.3039 16.2217 99.3406 17.7017 98.4139C25.6017 93.4639 17.1617 83.4039 24.0717 77.4939C24.326 77.279 24.5072 77.0038 24.5918 76.704C25.2718 74.364 25.1617 72.064 26.2517 70.014C27.9717 66.784 31.0017 63.474 31.3617 59.264C31.7717 54.454 35.1718 53.6539 36.8518 49.8639C37.5718 48.2306 37.8151 46.9039 37.5817 45.8839C36.7151 42.1039 37.2251 38.5073 39.1117 35.094C39.2096 34.9169 39.2627 34.7257 39.2645 34.5443C39.2663 34.363 39.2166 34.1994 39.1217 34.074C36.2284 30.314 35.0318 26.0206 35.5318 21.1939C35.5636 20.9036 35.4602 20.5367 35.2417 20.1639C34.2551 18.5106 32.9517 17.1473 31.3317 16.074C31.2071 15.9933 31.1 15.874 31.0186 15.7251C30.9372 15.5761 30.8835 15.4014 30.8617 15.214C30.2517 10.484 31.8218 6.73397 27.4118 3.21397C20.9218 -1.96603 8.50177 2.35397 9.85177 11.904C10.0518 13.324 9.4984 14.324 8.19173 14.904C2.36173 17.474 2.99172 23.9639 4.24172 28.9439C4.33808 29.3234 4.34584 29.7195 4.2643 30.1011C4.18277 30.4828 4.01418 30.8397 3.77175 31.144C-0.45825 36.564 1.06171 39.994 2.42171 45.974C2.49317 46.2862 2.46526 46.6145 2.34176 46.9139C0.781757 50.7539 1.0751 54.314 3.22176 57.594C4.64176 59.754 4.79176 61.6039 5.34176 63.9339C6.17176 67.4139 8.14175 69.7939 9.96175 72.7939C10.1252 73.0689 10.2115 73.3868 10.2118 73.714C10.2318 81.594 6.16174 93.3239 13.3217 98.3039Z" stroke="#FEE493" stroke-width="2"/>
<path d="M22.4909 9.21446C20.0509 22.9545 16.8009 38.0344 15.4309 50.6244C14.0776 63.1111 13.7309 75.6445 14.3909 88.2245C14.4809 90.0245 14.351 91.7845 14.971 93.7145C15.411 95.0745 16.0176 95.1544 16.791 93.9544C17.751 92.4744 17.251 91.4044 17.231 89.9244C17.051 75.1577 17.0443 66.4178 17.211 63.7044C18.081 49.7344 22.411 28.8744 25.091 9.26445C25.1429 8.92018 25.0937 8.58967 24.9509 8.32444C23.7909 6.06444 22.7409 7.79446 22.4909 9.21446Z" stroke="#926E16" stroke-width="2"/>
<path d="M13.3217 98.3044C6.16174 93.3244 10.2318 81.5945 10.2118 73.7145C10.2115 73.3872 10.1252 73.0694 9.96175 72.7944C8.14175 69.7944 6.17176 67.4144 5.34176 63.9344C4.79176 61.6044 4.64176 59.7545 3.22176 57.5945C1.0751 54.3145 0.781757 50.7544 2.34176 46.9144C2.46526 46.615 2.49317 46.2866 2.42171 45.9745C1.06171 39.9945 -0.45825 36.5644 3.77175 31.1444C4.01418 30.8402 4.18277 30.4833 4.2643 30.1016C4.34584 29.7199 4.33808 29.3239 4.24172 28.9444C2.99172 23.9644 2.36173 17.4745 8.19173 14.9045C9.4984 14.3245 10.0518 13.3245 9.85177 11.9045C8.50177 2.35446 20.9218 -1.96554 27.4118 3.21446C31.8218 6.73446 30.2517 10.4845 30.8617 15.2145C30.8835 15.4019 30.9372 15.5766 31.0186 15.7256C31.1 15.8745 31.2071 15.9938 31.3317 16.0744C32.9517 17.1478 34.2551 18.5111 35.2417 20.1644C35.4602 20.5372 35.5636 20.9041 35.5318 21.1944C35.0318 26.0211 36.2284 30.3144 39.1217 34.0744C39.2166 34.1999 39.2663 34.3635 39.2645 34.5448C39.2627 34.7262 39.2096 34.9174 39.1117 35.0945C37.2251 38.5078 36.7151 42.1044 37.5817 45.8844C37.8151 46.9044 37.5718 48.2311 36.8518 49.8644C35.1718 53.6544 31.7717 54.4544 31.3617 59.2644C31.0017 63.4744 27.9717 66.7844 26.2517 70.0144C25.1617 72.0644 25.2718 74.3644 24.5918 76.7044C24.5072 77.0043 24.326 77.2795 24.0717 77.4944C17.1617 83.4044 25.6017 93.4644 17.7017 98.4144C16.2217 99.3411 14.7617 99.3044 13.3217 98.3044ZM22.4917 9.21446C20.0517 22.9545 16.8017 38.0344 15.4317 50.6244C14.0784 63.1111 13.7317 75.6445 14.3917 88.2245C14.4817 90.0245 14.3518 91.7845 14.9718 93.7145C15.4118 95.0745 16.0184 95.1544 16.7918 93.9544C17.7518 92.4744 17.2518 91.4044 17.2318 89.9244C17.0518 75.1577 17.0451 66.4178 17.2118 63.7044C18.0818 49.7344 22.4118 28.8744 25.0918 9.26444C25.1437 8.92018 25.0945 8.58966 24.9517 8.32444C23.7917 6.06444 22.7417 7.79446 22.4917 9.21446Z" fill="#FDCA27"/>
<path d="M22.4948 9.21446C22.7448 7.79446 23.7949 6.06444 24.9549 8.32444C25.0976 8.58967 25.1468 8.92018 25.0949 9.26445C22.4149 28.8744 18.0849 49.7344 17.2149 63.7044C17.0482 66.4178 17.0549 75.1577 17.2349 89.9244C17.2549 91.4044 17.7549 92.4744 16.7949 93.9544C16.0215 95.1544 15.4149 95.0745 14.9749 93.7145C14.3549 91.7845 14.4849 90.0245 14.3949 88.2245C13.7349 75.6445 14.0815 63.1111 15.4348 50.6244C16.8048 38.0344 20.0548 22.9545 22.4948 9.21446Z" fill="#271104"/>
</svg>
