<svg width="75" height="41" viewBox="0 0 75 41" fill="none" xmlns="http://www.w3.org/2000/svg">
<path d="M1.14095 37.6967C-0.179054 41.3867 8.45096 37.7667 9.28096 37.3567C22.6343 30.8034 35.9176 24.1001 49.1309 17.2467C49.3026 17.1573 49.4913 17.1056 49.6849 17.0949C49.8785 17.0842 50.0726 17.1147 50.2546 17.1845C50.4366 17.2543 50.6024 17.3617 50.7413 17.5C50.8803 17.6382 50.9891 17.804 51.0609 17.9867L53.1809 23.4167C53.2455 23.5852 53.3374 23.7326 53.4478 23.8447C53.5581 23.9568 53.6832 24.0298 53.8109 24.0567C55.3043 24.3834 56.7143 24.1901 58.041 23.4767C58.1467 23.418 58.2264 23.2914 58.268 23.1162C58.3095 22.941 58.3106 22.7269 58.271 22.5067L57.0009 15.4967C56.7276 14.0101 57.1476 12.9234 58.2609 12.2367C62.7076 9.47005 67.1043 6.91673 71.4509 4.57673C73.4909 3.47673 73.681 2.3534 72.021 1.20673C71.7636 1.03326 71.4349 0.965367 71.101 1.01673C65.601 1.82673 60.251 4.78673 55.171 6.88673C54.9189 6.99005 54.6333 6.98782 54.3705 6.88047C54.1077 6.77312 53.8867 6.56844 53.7509 6.30672L51.7009 2.39672C51.611 2.22651 51.4852 2.08059 51.3339 1.97103C51.1826 1.86147 51.0102 1.79144 50.8309 1.76673C49.2576 1.5734 48.0543 2.11672 47.221 3.39672C47.1462 3.51228 47.1002 3.67044 47.0863 3.85926C47.0725 4.04808 47.0911 4.26264 47.1409 4.48673L48.0509 8.51672C48.3509 9.84338 47.931 10.8301 46.791 11.4767L1.84096 36.9767C1.48822 37.1755 1.23665 37.4343 1.14095 37.6967Z" stroke="#FDE0A0" stroke-width="2"/>
<path d="M9.27705 37.3577C8.44705 37.7677 -0.18296 41.3877 1.13704 37.6977C1.23275 37.4353 1.48431 37.1765 1.83705 36.9777L46.7871 11.4777C47.9271 10.831 48.347 9.84436 48.047 8.51769L47.137 4.48771C47.0872 4.26361 47.0686 4.04906 47.0824 3.86024C47.0963 3.67142 47.1423 3.51325 47.2171 3.3977C48.0504 2.1177 49.2537 1.57437 50.827 1.76771C51.0063 1.79241 51.1787 1.86245 51.33 1.97201C51.4813 2.08157 51.6071 2.22748 51.697 2.3977L53.747 6.3077C53.8828 6.56942 54.1038 6.7741 54.3666 6.88145C54.6294 6.98879 54.915 6.99102 55.1671 6.8877C60.2471 4.7877 65.5971 1.82771 71.0971 1.01771C71.431 0.966344 71.7597 1.03424 72.017 1.20771C73.677 2.35438 73.487 3.47771 71.447 4.5777C67.1004 6.9177 62.7037 9.47103 58.257 12.2377C57.1437 12.9244 56.7237 14.011 56.997 15.4977L58.267 22.5077C58.3067 22.7279 58.3056 22.942 58.2641 23.1171C58.2225 23.2923 58.1428 23.419 58.0371 23.4777C56.7104 24.191 55.3004 24.3844 53.807 24.0577C53.6793 24.0308 53.5542 23.9578 53.4439 23.8457C53.3335 23.7335 53.2416 23.5862 53.177 23.4177L51.057 17.9877C50.9852 17.805 50.8764 17.6392 50.7374 17.5009C50.5985 17.3627 50.4327 17.2552 50.2507 17.1854C50.0687 17.1157 49.8746 17.0852 49.681 17.0959C49.4874 17.1066 49.2987 17.1583 49.127 17.2477C35.9137 24.101 22.6304 30.8044 9.27705 37.3577Z" fill="#FBC243"/>
</svg>
