<svg width="88" height="165" viewBox="0 0 88 165" fill="none" xmlns="http://www.w3.org/2000/svg">
<path d="M24.2043 141.171C31.0043 155.641 55.2442 169.221 70.4942 160.661C89.7342 149.861 88.5743 128.921 82.0443 110.571C74.8576 90.3644 67.6843 70.1544 60.5243 49.9411C60.0043 48.4744 59.5609 46.7844 59.1943 44.8711C56.0743 28.6511 51.0643 15.5511 36.8343 5.82109C26.5143 -1.23891 13.6543 -1.33891 7.23426 10.8811C-6.66574 37.3111 6.12426 58.8511 12.4243 84.4411C16.0843 99.3344 19.0343 114.361 21.2743 129.521C22.0543 134.788 23.0309 138.671 24.2043 141.171Z" stroke="#88868E" stroke-width="2"/>
<path d="M27.3295 40.451C28.7705 40.5846 30.2254 40.4149 31.6111 39.9514C32.9969 39.4879 34.2863 38.7398 35.4059 37.7497C36.5254 36.7597 37.4531 35.5471 38.136 34.1812C38.8189 32.8153 39.2436 31.3228 39.3859 29.7889C39.5282 28.2551 39.3852 26.71 38.9653 25.2418C38.5453 23.7735 37.8565 22.411 36.9382 21.2319C36.0198 20.0528 34.89 19.0802 33.6132 18.3698C32.3363 17.6593 30.9375 17.2248 29.4965 17.0911C28.0555 16.9575 26.6006 17.1272 25.2149 17.5907C23.8291 18.0542 22.5396 18.8023 21.4201 19.7923C20.3006 20.7824 19.3729 21.995 18.69 23.3609C18.0071 24.7268 17.5824 26.2193 17.4401 27.7532C17.2978 29.287 17.4407 30.8321 17.8607 32.3003C18.2807 33.7686 18.9695 35.1311 19.8878 36.3102C20.8061 37.4893 21.936 38.4619 23.2128 39.1723C24.4897 39.8828 25.8885 40.3173 27.3295 40.451Z" stroke="#87808A" stroke-width="2"/>
<path d="M20.7926 56.2912C19.4326 53.4445 17.5893 53.1245 15.2626 55.3311C14.6026 55.9578 14.7226 56.3312 15.6226 56.4512L19.8726 57.0211C20.7793 57.1478 21.0859 56.9045 20.7926 56.2912Z" stroke="#15112A" stroke-width="2"/>
<path d="M30.261 89.1311C33.931 92.1711 39.891 92.2811 44.291 91.2111C62.531 86.7511 49.821 54.4311 31.371 65.1611C22.321 70.4311 22.421 82.6411 30.261 89.1311Z" stroke="#87808A" stroke-width="2"/>
<path d="M68.8995 133.817C68.439 130.91 66.6976 128.327 64.0585 126.638C61.4194 124.948 58.0987 124.29 54.8269 124.808C51.5552 125.326 48.6003 126.978 46.6125 129.401C44.6246 131.823 43.7666 134.818 44.2271 137.725C44.6877 140.633 46.429 143.216 49.0682 144.905C51.7073 146.595 55.028 147.253 58.2997 146.735C61.5715 146.216 64.5263 144.564 66.5141 142.142C68.502 139.72 69.36 136.725 68.8995 133.817Z" stroke="#857D88" stroke-width="2"/>
<path d="M25.7867 35.5175C27.6517 36.1199 29.6972 35.9026 31.4731 34.9134C33.249 33.9242 34.6098 32.2441 35.2563 30.2428C35.5763 29.2518 35.7114 28.2118 35.6537 27.1821C35.596 26.1524 35.3467 25.1532 34.92 24.2415C34.4933 23.3299 33.8976 22.5237 33.1669 21.8689C32.4362 21.2141 31.5848 20.7235 30.6613 20.4253C28.7962 19.8229 26.7507 20.0402 24.9748 21.0294C23.1989 22.0186 21.8381 23.6986 21.1917 25.6999C20.8716 26.6909 20.7365 27.731 20.7942 28.7606C20.8519 29.7903 21.1012 30.7895 21.5279 31.7012C21.9546 32.6128 22.5503 33.419 23.281 34.0738C24.0117 34.7286 24.8632 35.2192 25.7867 35.5175Z" stroke="#FCBBB6" stroke-width="2"/>
<path d="M45.4267 85.7346C47.4918 84.0202 48.7407 81.4948 48.8988 78.7141C49.0568 75.9333 48.1111 73.125 46.2696 70.9069C44.4281 68.6888 41.8417 67.2426 39.0793 66.8865C36.317 66.5303 33.6049 67.2934 31.5399 69.0078C29.4748 70.7223 28.2259 73.2476 28.0678 76.0284C27.9098 78.8091 28.8555 81.6174 30.697 83.8355C32.5385 86.0536 35.1249 87.4998 37.8873 87.856C40.6496 88.2121 43.3616 87.449 45.4267 85.7346Z" stroke="#FCBBB6" stroke-width="2"/>
<path d="M65.7135 134.439C65.6298 133.398 65.305 132.387 64.7578 131.463C64.2106 130.54 63.4516 129.722 62.5242 129.056C61.5967 128.39 60.5191 127.889 59.3526 127.582C58.1862 127.275 56.954 127.168 55.7261 127.267C54.4983 127.365 53.299 127.668 52.1966 128.158C51.0943 128.647 50.1105 129.314 49.3015 130.12C48.4925 130.925 47.8741 131.854 47.4816 132.853C47.0891 133.853 46.9302 134.903 47.0139 135.943C47.0976 136.984 47.4224 137.995 47.9696 138.919C48.5169 139.842 49.2759 140.66 50.2033 141.326C51.1307 141.992 52.2084 142.493 53.3748 142.8C54.5412 143.107 55.7735 143.214 57.0013 143.115C58.2292 143.017 59.4285 142.714 60.5308 142.224C61.6331 141.735 62.6169 141.068 63.4259 140.262C64.2349 139.457 64.8533 138.528 65.2458 137.528C65.6383 136.529 65.7973 135.479 65.7135 134.439Z" stroke="#FBB9B4" stroke-width="2"/>
<path d="M70.4942 160.662C55.2442 169.222 31.0043 155.642 24.2043 141.172C23.0309 138.672 22.0543 134.788 21.2743 129.522C19.0343 114.362 16.0843 99.3349 12.4243 84.4416C6.12426 58.8516 -6.66574 37.3116 7.23426 10.8816C13.6543 -1.33842 26.5143 -1.23842 36.8343 5.82158C51.0643 15.5516 56.0743 28.6516 59.1943 44.8716C59.5609 46.7849 60.0043 48.4749 60.5243 49.9416C67.6843 70.1549 74.8576 90.3649 82.0443 110.572C88.5743 128.922 89.7342 149.862 70.4942 160.662ZM27.3308 40.4515C28.7717 40.5852 30.2267 40.4154 31.6124 39.9519C32.9982 39.4885 34.2876 38.7403 35.4071 37.7503C36.5267 36.7602 37.4544 35.5476 38.1373 34.1817C38.8202 32.8158 39.2449 31.3233 39.3872 29.7895C39.5294 28.2557 39.3865 26.7105 38.9665 25.2423C38.5465 23.7741 37.8577 22.4115 36.9394 21.2324C36.0211 20.0533 34.8913 19.0808 33.6144 18.3703C32.3376 17.6598 30.9387 17.2253 29.4977 17.0917C28.0568 16.958 26.6019 17.1277 25.2161 17.5912C23.8304 18.0547 22.5409 18.8028 21.4214 19.7929C20.3018 20.7829 19.3741 21.9955 18.6912 23.3615C18.0083 24.7274 17.5836 26.2199 17.4414 27.7537C17.2991 29.2875 17.442 30.8326 17.862 32.3009C18.282 33.7691 18.9708 35.1316 19.8891 36.3107C20.8074 37.4898 21.9372 38.4624 23.2141 39.1729C24.4909 39.8833 25.8898 40.3178 27.3308 40.4515ZM20.7943 56.2916C19.4343 53.4449 17.5909 53.1249 15.2643 55.3316C14.6043 55.9582 14.7242 56.3316 15.6242 56.4516L19.8742 57.0216C20.7809 57.1482 21.0876 56.9049 20.7943 56.2916ZM30.2643 89.1316C33.9343 92.1716 39.8943 92.2816 44.2943 91.2116C62.5343 86.7516 49.8242 54.4316 31.3742 65.1616C22.3242 70.4316 22.4243 82.6416 30.2643 89.1316ZM68.9005 133.818C68.4399 130.91 66.6985 128.327 64.0594 126.638C61.4203 124.948 58.0996 124.29 54.8279 124.808C51.5561 125.326 48.6013 126.979 46.6134 129.401C44.6256 131.823 43.7675 134.818 44.2281 137.725C44.6886 140.633 46.43 143.216 49.0691 144.905C51.7082 146.595 55.0289 147.253 58.3007 146.735C61.5724 146.217 64.5272 144.565 66.5151 142.142C68.5029 139.72 69.361 136.725 68.9005 133.818Z" fill="#120F29"/>
<path d="M27.3295 40.4514C25.8885 40.3178 24.4897 39.8833 23.2128 39.1728C21.936 38.4623 20.8061 37.4898 19.8878 36.3107C18.9695 35.1316 18.2807 33.769 17.8607 32.3008C17.4407 30.8326 17.2978 29.2875 17.4401 27.7536C17.5824 26.2198 18.0071 24.7273 18.69 23.3614C19.3729 21.9955 20.3006 20.7829 21.4201 19.7928C22.5396 18.8028 23.8291 18.0547 25.2149 17.5912C26.6006 17.1277 28.0555 16.958 29.4965 17.0916C30.9375 17.2253 32.3363 17.6598 33.6132 18.3702C34.89 19.0807 36.0198 20.0533 36.9382 21.2324C37.8565 22.4115 38.5453 23.774 38.9653 25.2423C39.3852 26.7105 39.5282 28.2556 39.3859 29.7894C39.2436 31.3233 38.8189 32.8157 38.136 34.1817C37.4531 35.5476 36.5254 36.7602 35.4059 37.7502C34.2863 38.7403 32.9969 39.4884 31.6111 39.9519C30.2254 40.4154 28.7705 40.5851 27.3295 40.4514ZM25.7857 35.5176C27.6508 36.12 29.6962 35.9027 31.4721 34.9135C33.248 33.9243 34.6089 32.2443 35.2553 30.2429C35.5754 29.252 35.7104 28.2119 35.6527 27.1822C35.595 26.1526 35.3457 25.1534 34.919 24.2417C34.4923 23.3301 33.8966 22.5239 33.1659 21.8691C32.4352 21.2143 31.5838 20.7237 30.6603 20.4254C28.7952 19.823 26.7498 20.0403 24.9739 21.0295C23.198 22.0187 21.8371 23.6988 21.1907 25.7001C20.8706 26.6911 20.7356 27.7311 20.7933 28.7608C20.851 29.7905 21.1003 30.7897 21.527 31.7013C21.9537 32.613 22.5493 33.4192 23.2801 34.074C24.0108 34.7288 24.8622 35.2194 25.7857 35.5176Z" fill="#FBF0EB"/>
<path d="M21.1895 25.7002C19.8434 29.8678 21.9006 34.2633 25.7844 35.5177C29.6683 36.7721 33.908 34.4105 35.2541 30.2429C36.6002 26.0753 34.5429 21.6799 30.6591 20.4254C26.7753 19.171 22.5356 21.5326 21.1895 25.7002Z" fill="#FD8681"/>
<path d="M20.7926 56.2916C21.0859 56.905 20.7793 57.1483 19.8726 57.0216L15.6226 56.4516C14.7226 56.3316 14.6026 55.9583 15.2626 55.3316C17.5893 53.125 19.4326 53.445 20.7926 56.2916Z" fill="#18132B"/>
<path d="M30.261 89.1316C22.421 82.6416 22.321 70.4316 31.371 65.1616C49.821 54.4316 62.531 86.7516 44.291 91.2116C39.891 92.2816 33.931 92.1716 30.261 89.1316ZM45.4244 85.735C47.4894 84.0206 48.7384 81.4952 48.8965 78.7145C49.0545 75.9338 48.1088 73.1254 46.2673 70.9073C44.4258 68.6892 41.8394 67.243 39.077 66.8869C36.3147 66.5307 33.6026 67.2938 31.5376 69.0082C29.4725 70.7227 28.2236 73.2481 28.0655 76.0288C27.9074 78.8095 28.8532 81.6178 30.6947 83.8359C32.5362 86.054 35.1226 87.5002 37.8849 87.8564C40.6473 88.2125 43.3593 87.4495 45.4244 85.735Z" fill="#FBF0EB"/>
<path d="M30.695 83.836C34.5297 88.4549 41.1244 89.3052 45.4247 85.735C49.725 82.1649 50.1024 75.5263 46.2676 70.9073C42.4329 66.2884 35.8382 65.4381 31.5379 69.0083C27.2376 72.5784 26.8602 79.217 30.695 83.836Z" fill="#FD8681"/>
<path d="M68.8995 133.817C69.36 136.725 68.502 139.72 66.5141 142.142C64.5263 144.564 61.5715 146.216 58.2997 146.735C55.028 147.253 51.7073 146.595 49.0682 144.905C46.429 143.216 44.6877 140.633 44.2271 137.725C43.7666 134.818 44.6246 131.823 46.6125 129.401C48.6003 126.978 51.5552 125.326 54.8269 124.808C58.0987 124.29 61.4194 124.948 64.0585 126.638C66.6976 128.327 68.439 130.91 68.8995 133.817ZM65.7131 134.439C65.6294 133.398 65.3046 132.387 64.7574 131.464C64.2102 130.54 63.4512 129.722 62.5238 129.056C61.5963 128.39 60.5187 127.889 59.3523 127.582C58.1858 127.275 56.9536 127.168 55.7257 127.267C54.4979 127.366 53.2986 127.669 52.1962 128.158C51.0939 128.648 50.1101 129.314 49.3011 130.12C48.4921 130.926 47.8737 131.855 47.4812 132.854C47.0887 133.853 46.9298 134.903 47.0135 135.944C47.0972 136.984 47.422 137.995 47.9692 138.919C48.5165 139.843 49.2755 140.661 50.2029 141.327C51.1303 141.993 52.208 142.493 53.3744 142.8C54.5408 143.107 55.7731 143.215 57.0009 143.116C58.2288 143.017 59.4281 142.714 60.5304 142.225C61.6327 141.735 62.6165 141.068 63.4255 140.263C64.2345 139.457 64.8529 138.528 65.2454 137.529C65.6379 136.53 65.7969 135.48 65.7131 134.439Z" fill="#F8EBE6"/>
<path d="M56.9999 143.116C62.1637 142.701 66.0643 138.816 65.7122 134.439C65.36 130.063 60.8885 126.852 55.7248 127.267C50.561 127.683 46.6605 131.567 47.0126 135.944C47.3647 140.32 51.8362 143.532 56.9999 143.116Z" fill="#FD8681"/>
</svg>
