<svg width="31" height="44" viewBox="0 0 31 44" fill="none" xmlns="http://www.w3.org/2000/svg">
<path d="M1.79819 28.7401L6.7482 30C7.2682 30.1333 7.57151 30.2334 7.65818 30.3C11.4248 33.3 14.7182 37.0167 17.5382 41.45C20.4582 46.04 18.5982 31.85 18.5082 31.48C17.5682 27.82 18.8782 25.52 21.8182 23.59C22.2382 23.32 33.4682 17.98 27.8782 17.77C24.4849 17.6367 21.0748 17.4401 17.6482 17.1801C17.4972 17.1685 17.3537 17.1137 17.2361 17.0228C17.1185 16.9319 17.0322 16.8091 16.9882 16.67C15.8082 13.03 14.8915 8.40003 14.2382 2.78003C14.1582 2.0867 13.7815 1.8367 13.1082 2.03003C12.9658 2.06947 12.8358 2.16265 12.7343 2.29785C12.6329 2.43306 12.5647 2.60428 12.5382 2.79004L10.2882 18.03C10.0615 19.5834 9.3915 20.7534 8.27817 21.54C6.17817 23.01 1.94819 25.0901 1.29819 27.6801C1.24022 27.9125 1.26019 28.1541 1.35379 28.3526C1.4474 28.5511 1.6071 28.6903 1.79819 28.7401Z" stroke="#8D94AE" stroke-width="2"/>
<path d="M1.79819 28.7396C1.6071 28.6898 1.4474 28.5506 1.35379 28.3521C1.26019 28.1537 1.24022 27.912 1.29819 27.6796C1.94819 25.0896 6.17817 23.0096 8.27817 21.5396C9.39151 20.7529 10.0615 19.5829 10.2882 18.0295L12.5382 2.78955C12.5647 2.60379 12.6329 2.43257 12.7343 2.29736C12.8358 2.16216 12.9658 2.06898 13.1082 2.02954C13.7815 1.83621 14.1582 2.08621 14.2382 2.77954C14.8915 8.39954 15.8082 13.0296 16.9882 16.6696C17.0322 16.8086 17.1185 16.9315 17.2361 17.0223C17.3537 17.1132 17.4972 17.168 17.6482 17.1796C21.0748 17.4396 24.4849 17.6362 27.8782 17.7695C33.4682 17.9795 22.2382 23.3195 21.8182 23.5895C18.8782 25.5195 17.5682 27.8196 18.5082 31.4796C18.5982 31.8496 20.4582 46.0395 17.5382 41.4495C14.7182 37.0162 11.4248 33.2996 7.65818 30.2996C7.57151 30.2329 7.2682 30.1328 6.7482 29.9995L1.79819 28.7396Z" fill="#1A285D"/>
</svg>
