<svg width="94" height="94" viewBox="0 0 94 94" fill="none" xmlns="http://www.w3.org/2000/svg">
<path d="M41.4708 68.3109C40.3608 74.5709 35.5109 83.3909 39.8909 89.3709C43.9809 94.9409 53.3609 90.8409 56.8909 86.5509C60.0109 82.7509 62.2508 75.3309 64.5908 70.0709C64.7352 69.7461 64.994 69.485 65.3195 69.3361C65.6449 69.1872 66.0149 69.1605 66.3609 69.2609C75.2075 71.8676 83.1575 70.3076 90.2108 64.5809C91.7508 63.3276 92.3409 61.7376 91.9809 59.8109C90.4909 51.7909 80.9408 46.5409 74.0808 43.3409C72.7008 42.6942 72.6009 41.8876 73.7809 40.9209C77.8109 37.6109 84.3909 32.8709 85.1709 27.7809C86.3409 20.2209 81.3608 16.7209 74.4408 18.2509C68.7608 19.5009 64.3108 22.9809 59.9708 26.5109C59.3042 27.0576 58.9775 26.8976 58.9909 26.0309C59.0642 20.1842 58.3008 14.4909 56.7008 8.95092C53.9308 -0.619075 43.6408 -1.91908 38.8408 7.07092C36.0708 12.2509 35.3309 19.0009 34.6509 24.7809C34.4642 26.3742 33.6809 26.7609 32.3009 25.9409C24.7009 21.4209 12.1208 15.0809 4.56081 22.4109C-6.66919 33.2809 11.5108 45.3109 19.8408 49.3009C19.9953 49.3753 20.13 49.485 20.234 49.6212C20.3381 49.7574 20.4087 49.9162 20.4398 50.0847C20.471 50.2532 20.4619 50.4268 20.4135 50.5912C20.365 50.7556 20.2785 50.9062 20.1609 51.0309C14.6009 56.9609 7.62088 63.0809 5.63088 71.2909C2.87088 82.6809 16.5709 85.4709 23.9309 81.6609C29.8109 78.6209 34.1208 68.4209 41.0608 67.8409C41.1201 67.8366 41.1795 67.8463 41.2345 67.8691C41.2895 67.892 41.3386 67.9274 41.3782 67.9728C41.4177 68.0181 41.4467 68.0722 41.4628 68.1308C41.4788 68.1894 41.4815 68.251 41.4708 68.3109Z" stroke="#FEA9A0" stroke-width="2"/>
<path d="M48.6117 41.4663C48.9495 41.3145 49.2472 41.0823 49.4878 40.783C49.7284 40.4837 49.9072 40.1232 50.0139 39.7219C50.1207 39.3207 50.1533 38.8866 50.11 38.4445C50.0667 38.0024 49.9483 37.5609 49.7615 37.1452C49.3842 36.3058 48.7515 35.6226 48.0023 35.2458C47.2532 34.869 46.4491 34.8295 45.7669 35.1361C45.4291 35.2879 45.1314 35.5201 44.8908 35.8194C44.6502 36.1188 44.4714 36.4793 44.3646 36.8806C44.2579 37.2818 44.2253 37.7159 44.2686 38.158C44.3119 38.6001 44.4303 39.0416 44.6171 39.4572C44.9943 40.2967 45.6271 40.9799 46.3762 41.3567C47.1254 41.7335 47.9295 41.7729 48.6117 41.4663Z" stroke="#FE8264" stroke-width="2"/>
<path d="M36.7756 42.2898C37.4747 41.9887 38.0118 41.3903 38.2688 40.6263C38.5257 39.8622 38.4815 38.9951 38.1459 38.2156C37.8102 37.4361 37.2106 36.8082 36.4789 36.4699C35.7472 36.1317 34.9433 36.1107 34.2442 36.4118C33.5452 36.7129 33.008 37.3112 32.7511 38.0753C32.4941 38.8394 32.5384 39.7065 32.8741 40.486C33.2098 41.2654 33.8094 41.8934 34.5411 42.2316C35.2728 42.5699 36.0765 42.5908 36.7756 42.2898Z" stroke="#FE876A" stroke-width="2"/>
<path d="M58.7417 53.4323C59.0688 53.2642 59.3543 53.0233 59.582 52.7232C59.8098 52.4231 59.9753 52.0697 60.069 51.6833C60.1627 51.2968 60.1828 50.8849 60.1283 50.4709C60.0738 50.057 59.9456 49.6492 59.7511 49.2707C59.5566 48.8923 59.2996 48.5507 58.9948 48.2654C58.6899 47.98 58.3433 47.7567 57.9745 47.6079C57.6057 47.4592 57.2221 47.388 56.8455 47.3985C56.4689 47.4089 56.1068 47.5008 55.7798 47.6689C55.4528 47.837 55.1672 48.078 54.9395 48.3781C54.7117 48.6782 54.5463 49.0315 54.4525 49.4179C54.3588 49.8044 54.3387 50.2163 54.3932 50.6303C54.4477 51.0442 54.5759 51.4521 54.7704 51.8305C54.9649 52.2089 55.2218 52.5506 55.5266 52.8359C55.8315 53.1212 56.1782 53.3446 56.547 53.4933C56.9158 53.6421 57.2995 53.7132 57.676 53.7028C58.0526 53.6923 58.4147 53.6004 58.7417 53.4323Z" stroke="#FE876A" stroke-width="2"/>
<path d="M41.766 54.3882C42.472 54.2278 43.0713 53.7318 43.4322 53.0094C43.7931 52.287 43.8859 51.3974 43.6903 50.5362C43.5934 50.1097 43.4286 49.7031 43.2053 49.3395C42.982 48.9759 42.7046 48.6625 42.3889 48.4171C42.0732 48.1718 41.7254 47.9992 41.3653 47.9094C41.0053 47.8196 40.64 47.8143 40.2904 47.8938C39.5844 48.0542 38.9849 48.5501 38.624 49.2725C38.2631 49.9949 38.1703 50.8846 38.366 51.7458C38.4628 52.1722 38.6276 52.5788 38.8509 52.9424C39.0742 53.306 39.3516 53.6194 39.6673 53.8648C39.9831 54.1102 40.331 54.2827 40.691 54.3725C41.0511 54.4623 41.4164 54.4676 41.766 54.3882Z" stroke="#FE876A" stroke-width="2"/>
<path d="M41.0608 67.8409C34.1208 68.4209 29.8109 78.6209 23.9309 81.6609C16.5709 85.4709 2.87088 82.6809 5.63088 71.2909C7.62088 63.0809 14.6009 56.9609 20.1609 51.0309C20.2785 50.9062 20.365 50.7556 20.4135 50.5912C20.4619 50.4268 20.471 50.2533 20.4398 50.0847C20.4087 49.9162 20.3381 49.7574 20.234 49.6212C20.13 49.485 19.9953 49.3753 19.8408 49.3009C11.5108 45.3109 -6.66919 33.2809 4.56081 22.4109C12.1208 15.0809 24.7009 21.4209 32.3009 25.9409C33.6809 26.7609 34.4642 26.3742 34.6509 24.7809C35.3309 19.0009 36.0708 12.2509 38.8408 7.07092C43.6408 -1.91908 53.9308 -0.619075 56.7008 8.95092C58.3008 14.4909 59.0642 20.1842 58.9909 26.0309C58.9775 26.8976 59.3042 27.0576 59.9708 26.5109C64.3108 22.9809 68.7608 19.5009 74.4408 18.2509C81.3608 16.7209 86.3409 20.2209 85.1709 27.7809C84.3909 32.8709 77.8109 37.6109 73.7809 40.9209C72.6009 41.8876 72.7008 42.6942 74.0808 43.3409C80.9408 46.5409 90.4909 51.7909 91.9809 59.8109C92.3409 61.7376 91.7508 63.3276 90.2108 64.5809C83.1575 70.3076 75.2075 71.8676 66.3609 69.2609C66.0149 69.1605 65.6449 69.1872 65.3195 69.3361C64.994 69.485 64.7352 69.7461 64.5908 70.0709C62.2508 75.3309 60.0109 82.7509 56.8909 86.5509C53.3609 90.8409 43.9809 94.9409 39.8909 89.3709C35.5109 83.3909 40.3608 74.5709 41.4708 68.3109C41.4815 68.251 41.4788 68.1894 41.4628 68.1308C41.4467 68.0722 41.4177 68.0181 41.3782 67.9728C41.3386 67.9274 41.2895 67.892 41.2345 67.8691C41.1795 67.8463 41.1201 67.8366 41.0608 67.8409ZM48.6133 41.466C48.9511 41.3142 49.2488 41.082 49.4894 40.7827C49.73 40.4834 49.9088 40.1228 50.0155 39.7216C50.1223 39.3203 50.1549 38.8863 50.1116 38.4441C50.0683 38.002 49.9499 37.5606 49.7631 37.1449C49.3858 36.3055 48.7531 35.6222 48.0039 35.2454C47.2548 34.8687 46.4506 34.8292 45.7685 35.1358C45.4307 35.2876 45.1329 35.5198 44.8924 35.8191C44.6518 36.1184 44.473 36.479 44.3662 36.8802C44.2595 37.2815 44.2268 37.7156 44.2702 38.1577C44.3135 38.5998 44.4319 39.0413 44.6187 39.4569C44.9959 40.2963 45.6287 40.9796 46.3778 41.3564C47.127 41.7332 47.9311 41.7726 48.6133 41.466ZM36.7765 42.2899C37.4756 41.9888 38.0127 41.3905 38.2697 40.6264C38.5266 39.8623 38.4824 38.9952 38.1467 38.2157C37.8111 37.4363 37.2114 36.8083 36.4798 36.4701C35.7481 36.1318 34.9442 36.1109 34.2451 36.4119C33.5461 36.713 33.0089 37.3114 32.752 38.0754C32.495 38.8395 32.5393 39.7066 32.875 40.4861C33.2107 41.2656 33.8103 41.8935 34.542 42.2318C35.2737 42.5701 36.0774 42.591 36.7765 42.2899ZM58.7418 53.4326C59.0689 53.2645 59.3545 53.0236 59.5822 52.7235C59.8099 52.4234 59.9754 52.07 60.0691 51.6836C60.1628 51.2971 60.183 50.8852 60.1284 50.4712C60.0739 50.0573 59.9457 49.6495 59.7512 49.271C59.5568 48.8926 59.2997 48.551 58.9949 48.2657C58.6901 47.9803 58.3434 47.757 57.9746 47.6082C57.6059 47.4595 57.2222 47.3883 56.8456 47.3988C56.469 47.4092 56.107 47.5011 55.7799 47.6692C55.4529 47.8373 55.1673 48.0783 54.9396 48.3784C54.7119 48.6785 54.5464 49.0318 54.4527 49.4182C54.3589 49.8047 54.3388 50.2166 54.3933 50.6306C54.4479 51.0445 54.576 51.4524 54.7705 51.8308C54.965 52.2092 55.2219 52.5509 55.5268 52.8362C55.8316 53.1215 56.1784 53.3449 56.5471 53.4936C56.9159 53.6424 57.2996 53.7135 57.6762 53.7031C58.0527 53.6926 58.4148 53.6007 58.7418 53.4326ZM41.7687 54.3881C42.4747 54.2277 43.0741 53.7318 43.435 53.0094C43.7958 52.287 43.8887 51.3973 43.693 50.5361C43.5961 50.1097 43.4313 49.7031 43.208 49.3395C42.9847 48.9759 42.7073 48.6624 42.3916 48.4171C42.0759 48.1717 41.7281 47.9992 41.3681 47.9094C41.008 47.8196 40.6427 47.8143 40.2931 47.8937C39.5871 48.0541 38.9876 48.5501 38.6267 49.2725C38.2658 49.9948 38.173 50.8845 38.3687 51.7457C38.4656 52.1722 38.6304 52.5788 38.8537 52.9423C39.077 53.3059 39.3543 53.6194 39.6701 53.8647C39.9858 54.1101 40.3337 54.2826 40.6937 54.3724C41.0538 54.4622 41.4191 54.4676 41.7687 54.3881Z" fill="#FD5441"/>
<path d="M48.6117 41.4663C47.9295 41.7729 47.1254 41.7335 46.3762 41.3567C45.6271 40.9799 44.9943 40.2967 44.6171 39.4572C44.4303 39.0416 44.3119 38.6001 44.2686 38.158C44.2253 37.7159 44.2579 37.2818 44.3646 36.8806C44.4714 36.4793 44.6502 36.1188 44.8908 35.8194C45.1314 35.5201 45.4291 35.2879 45.7669 35.1361C46.4491 34.8295 47.2532 34.869 48.0023 35.2458C48.7515 35.6226 49.3842 36.3058 49.7615 37.1452C49.9483 37.5609 50.0667 38.0024 50.11 38.4445C50.1533 38.8866 50.1207 39.3207 50.0139 39.7219C49.9072 40.1232 49.7284 40.4837 49.4878 40.783C49.2472 41.0823 48.9495 41.3145 48.6117 41.4663Z" fill="#FEAF87"/>
<path d="M36.7756 42.2898C36.0765 42.5908 35.2728 42.5699 34.5411 42.2316C33.8094 41.8934 33.2098 41.2654 32.8741 40.486C32.5384 39.7065 32.4941 38.8394 32.7511 38.0753C33.008 37.3112 33.5452 36.7129 34.2442 36.4118C34.9433 36.1107 35.7472 36.1317 36.4789 36.4699C37.2106 36.8082 37.8102 37.4361 38.1459 38.2156C38.4815 38.9951 38.5257 39.8622 38.2688 40.6263C38.0118 41.3903 37.4747 41.9887 36.7756 42.2898Z" fill="#FEB993"/>
<path d="M58.7417 53.4333C58.4147 53.6014 58.0526 53.6933 57.676 53.7037C57.2995 53.7142 56.9158 53.643 56.547 53.4943C56.1782 53.3456 55.8315 53.1222 55.5266 52.8369C55.2218 52.5515 54.9649 52.2099 54.7704 51.8315C54.5759 51.453 54.4477 51.0452 54.3932 50.6313C54.3387 50.2173 54.3588 49.8054 54.4525 49.4189C54.5463 49.0325 54.7117 48.6791 54.9395 48.379C55.1672 48.0789 55.4528 47.838 55.7798 47.6699C56.1068 47.5018 56.4689 47.4099 56.8455 47.3994C57.2221 47.389 57.6057 47.4601 57.9745 47.6089C58.3433 47.7576 58.6899 47.981 58.9948 48.2663C59.2996 48.5516 59.5566 48.8933 59.7511 49.2717C59.9456 49.6501 60.0738 50.0579 60.1283 50.4719C60.1828 50.8858 60.1627 51.2978 60.069 51.6842C59.9753 52.0707 59.8098 52.4241 59.582 52.7242C59.3543 53.0243 59.0688 53.2652 58.7417 53.4333Z" fill="#FEB993"/>
<path d="M41.766 54.3882C41.4164 54.4676 41.0511 54.4623 40.691 54.3725C40.331 54.2827 39.9831 54.1102 39.6673 53.8648C39.3516 53.6194 39.0742 53.306 38.8509 52.9424C38.6276 52.5788 38.4628 52.1722 38.366 51.7458C38.1703 50.8846 38.2631 49.9949 38.624 49.2725C38.9849 48.5501 39.5844 48.0542 40.2904 47.8938C40.64 47.8143 41.0053 47.8196 41.3653 47.9094C41.7254 47.9992 42.0732 48.1718 42.3889 48.4171C42.7046 48.6625 42.982 48.9759 43.2053 49.3395C43.4286 49.7031 43.5934 50.1097 43.6903 50.5362C43.8859 51.3974 43.7931 52.287 43.4322 53.0094C43.0713 53.7318 42.472 54.2278 41.766 54.3882Z" fill="#FEB993"/>
</svg>
