<svg width="107" height="159" viewBox="0 0 107 159" fill="none" xmlns="http://www.w3.org/2000/svg">
<path d="M94.0925 28.5226C87.9125 16.5926 77.5924 6.60261 64.5524 2.91261C42.6824 -3.27739 17.9724 5.7326 8.76245 27.4026C3.49578 39.7959 0.909104 53.7226 1.00244 69.1826C1.01244 70.5026 2.27244 71.5026 2.33244 73.0026C2.65244 80.296 3.35577 85.5026 4.44244 88.6226C5.97244 93.0326 6.77245 98.0426 8.48245 101.873C12.7424 111.423 18.2324 116.673 26.0224 123.813C30.2824 127.733 36.4024 128.953 41.9524 129.573C42.0622 129.586 42.1681 129.621 42.2636 129.677C42.3591 129.733 42.4422 129.807 42.5078 129.896C42.5733 129.985 42.62 130.087 42.6449 130.195C42.6698 130.302 42.6723 130.414 42.6524 130.523C41.2191 138.329 39.5591 146.079 37.6724 153.773C36.8624 157.093 38.5725 158.583 41.8125 157.413C65.4625 148.883 84.7325 135.013 97.2825 113.863C109.292 93.6226 106.362 64.2626 99.9624 42.8826C99.2524 40.5026 98.5925 36.3426 96.8725 33.3626C95.0925 30.276 94.1658 28.6626 94.0925 28.5226Z" stroke="#BBE5DA" stroke-width="2"/>
<path d="M50.9313 9.04238C48.2513 7.14238 48.3813 14.8624 48.5313 16.1424C48.5454 16.2781 48.598 16.4037 48.679 16.4958C48.76 16.5879 48.8639 16.64 48.9713 16.6424C49.9613 16.6724 50.9213 10.9024 51.1913 9.84237C51.2298 9.68657 51.2256 9.52644 51.1791 9.38344C51.1327 9.24045 51.0462 9.12145 50.9313 9.04238Z" stroke="#42847E" stroke-width="2"/>
<path d="M77.0379 15.276C77.153 15.2662 77.2633 15.2125 77.3623 15.1183C77.4614 15.0241 77.5474 14.891 77.6153 14.7268C77.6833 14.5625 77.7319 14.3702 77.7583 14.1609C77.7847 13.9516 77.7885 13.7294 77.7695 13.507C77.7309 13.0578 77.6016 12.6349 77.41 12.3313C77.2183 12.0278 76.98 11.8684 76.7475 11.8884C76.6323 11.8983 76.5221 11.9519 76.423 12.0461C76.3239 12.1403 76.2379 12.2734 76.17 12.4376C76.102 12.6019 76.0535 12.7942 76.027 13.0035C76.0006 13.2128 75.9968 13.435 76.0159 13.6574C76.0544 14.1067 76.1837 14.5295 76.3753 14.8331C76.567 15.1366 76.8053 15.296 77.0379 15.276Z" stroke="#75BCB7" stroke-width="2"/>
<path d="M39.0367 26.2297C39.1608 26.2522 39.3015 26.1758 39.451 26.0048C39.6005 25.8338 39.7557 25.5715 39.9078 25.233C40.0599 24.8944 40.206 24.4863 40.3376 24.0318C40.4693 23.5772 40.5839 23.0852 40.675 22.5839C40.859 21.5714 40.936 20.5824 40.889 19.8343C40.8419 19.0862 40.6748 18.6403 40.4243 18.5947C40.3003 18.5721 40.1595 18.6486 40.0101 18.8196C39.8606 18.9906 39.7054 19.2528 39.5532 19.5914C39.4011 19.9299 39.2551 20.3381 39.1234 20.7927C38.9918 21.2472 38.8771 21.7392 38.786 22.2405C38.602 23.2529 38.5251 24.242 38.5721 24.9901C38.6191 25.7382 38.7862 26.1841 39.0367 26.2297Z" stroke="#42847E" stroke-width="2"/>
<path d="M66.1307 30.4713C66.2672 30.4742 66.405 30.3517 66.5363 30.1106C66.6676 29.8696 66.7897 29.5149 66.8957 29.0666C67.0017 28.6184 67.0894 28.0854 67.154 27.4982C67.2186 26.911 67.2587 26.281 67.2721 25.6442C67.299 24.3582 67.2153 23.1226 67.0393 22.2092C66.8634 21.2957 66.6096 20.7793 66.3339 20.7735C66.1973 20.7706 66.0595 20.8932 65.9282 21.1342C65.797 21.3752 65.6748 21.73 65.5688 22.1782C65.4629 22.6265 65.3751 23.1594 65.3105 23.7466C65.2459 24.3338 65.2058 24.9638 65.1925 25.6006C65.1655 26.8866 65.2492 28.1223 65.4252 29.0357C65.6011 29.9491 65.8549 30.4655 66.1307 30.4713Z" stroke="#42847E" stroke-width="2"/>
<path d="M15.7265 34.324C16.0318 34.3928 16.399 34.1288 16.7472 33.5902C17.0954 33.0516 17.3962 32.2824 17.5833 31.4519C17.7705 30.6214 17.8287 29.7976 17.7452 29.1617C17.6617 28.5257 17.4432 28.1298 17.1379 28.061C16.8326 27.9922 16.4655 28.2562 16.1173 28.7948C15.7691 29.3335 15.4683 30.1026 15.2811 30.9331C15.094 31.7637 15.0358 32.5875 15.1193 33.2234C15.2028 33.8593 15.4212 34.2552 15.7265 34.324Z" stroke="#4C8C89" stroke-width="2"/>
<path d="M93.9179 41.6352C94.0572 41.6618 94.2108 41.6063 94.3698 41.4719C94.5288 41.3375 94.6902 41.1269 94.8448 40.8519C94.9993 40.577 95.144 40.2432 95.2705 39.8696C95.397 39.496 95.503 39.09 95.5822 38.6746C95.6614 38.2592 95.7124 37.8427 95.7323 37.4487C95.7522 37.0548 95.7406 36.6912 95.6981 36.3787C95.6556 36.0662 95.5831 35.8109 95.4847 35.6274C95.3864 35.4439 95.264 35.3358 95.1247 35.3092C94.9854 35.2826 94.8318 35.3381 94.6728 35.4725C94.5137 35.6069 94.3523 35.8175 94.1978 36.0924C94.0432 36.3673 93.8986 36.7011 93.772 37.0747C93.6455 37.4483 93.5396 37.8544 93.4604 38.2698C93.3811 38.6852 93.3301 39.1017 93.3102 39.4956C93.2903 39.8895 93.3019 40.2532 93.3444 40.5657C93.3869 40.8782 93.4594 41.1335 93.5578 41.317C93.6562 41.5005 93.7786 41.6086 93.9179 41.6352Z" stroke="#4C8C89" stroke-width="2"/>
<path d="M52.3196 44.5464C52.6535 44.5903 53.0318 44.1916 53.3713 43.4381C53.7107 42.6846 53.9834 41.6378 54.1295 40.5282C54.2018 39.9788 54.2409 39.4305 54.2445 38.9145C54.248 38.3986 54.216 37.9251 54.1502 37.5212C54.0844 37.1173 53.9862 36.7909 53.8611 36.5605C53.736 36.3302 53.5866 36.2003 53.4212 36.1786C53.0873 36.1347 52.709 36.5333 52.3696 37.2868C52.0301 38.0404 51.7574 39.0871 51.6113 40.1967C51.539 40.7461 51.4999 41.2945 51.4964 41.8104C51.4928 42.3264 51.5248 42.7998 51.5906 43.2037C51.6564 43.6076 51.7546 43.934 51.8797 44.1644C52.0048 44.3948 52.1543 44.5246 52.3196 44.5464Z" stroke="#4C8486" stroke-width="2"/>
<path d="M5.19144 70.1821C5.30075 70.2286 5.41901 70.2501 5.53785 70.2452C5.65668 70.2403 5.77318 70.2091 5.87909 70.1537C5.98501 70.0984 6.07774 70.0203 6.15073 69.925C6.22372 69.8296 6.27517 69.7194 6.30144 69.6021C8.27144 60.3421 14.8814 45.0121 27.3914 48.3121C33.1114 49.8188 38.3714 52.2821 43.1714 55.7021C44.0814 56.3521 45.1714 56.3621 45.7714 55.3721C46.4181 54.3121 45.8881 53.0788 44.1814 51.6721C36.9014 45.6921 25.6815 40.0721 17.0615 45.4121C9.37478 50.1654 4.88478 57.3255 3.59145 66.8921C3.37145 68.4921 3.72144 69.5421 5.19144 70.1821Z" stroke="#467C7D" stroke-width="2"/>
<path d="M69.8927 59.0823C75.5627 58.6023 82.5827 58.4124 87.9527 60.6524C93.1227 62.8024 94.3527 67.8824 95.2227 72.8824C95.2509 73.0427 95.3167 73.1941 95.4147 73.324C95.5126 73.454 95.64 73.5589 95.7864 73.6301C95.9328 73.7014 96.094 73.7369 96.2567 73.7338C96.4195 73.7307 96.5791 73.6891 96.7227 73.6124C97.9127 72.9924 98.3527 71.4724 98.2427 70.1024C97.676 62.5557 93.6227 57.9924 86.0827 56.4124C82.8027 55.7324 71.1127 54.5923 69.0727 57.7123C68.4127 58.7257 68.686 59.1823 69.8927 59.0823Z" stroke="#467C7D" stroke-width="2"/>
<path d="M31.2406 64.1423C31.2406 63.5448 31.1229 62.9532 30.8943 62.4011C30.6656 61.8491 30.3305 61.3475 29.908 60.925C29.4855 60.5025 28.9839 60.1673 28.4318 59.9387C27.8798 59.71 27.2881 59.5923 26.6906 59.5923C25.4839 59.5923 24.3266 60.0717 23.4733 60.925C22.62 61.7783 22.1406 62.9356 22.1406 64.1423C22.1406 65.3491 22.62 66.5063 23.4733 67.3596C24.3266 68.2129 25.4839 68.6923 26.6906 68.6923C27.2881 68.6923 27.8798 68.5746 28.4318 68.3459C28.9839 68.1173 29.4855 67.7821 29.908 67.3596C30.3305 66.9371 30.6656 66.4355 30.8943 65.8835C31.1229 65.3315 31.2406 64.7398 31.2406 64.1423Z" stroke="#4A8083" stroke-width="2"/>
<path d="M77.2603 72.0925C77.2603 70.7081 76.7104 69.3804 75.7314 68.4014C74.7525 67.4225 73.4247 66.8726 72.0403 66.8726C70.6559 66.8726 69.3282 67.4225 68.3492 68.4014C67.3703 69.3804 66.8203 70.7081 66.8203 72.0925C66.8203 73.477 67.3703 74.8047 68.3492 75.7836C69.3282 76.7626 70.6559 77.3126 72.0403 77.3126C73.4247 77.3126 74.7525 76.7626 75.7314 75.7836C76.7104 74.8047 77.2603 73.477 77.2603 72.0925Z" stroke="#467C7D" stroke-width="2"/>
<path d="M37.4218 85.2525C45.7318 86.2225 53.7418 87.1824 60.1418 93.0824C60.186 93.1228 60.2389 93.1528 60.296 93.17C60.3531 93.1871 60.4128 93.191 60.4703 93.1812C60.5279 93.1715 60.5816 93.1484 60.627 93.1138C60.6724 93.0793 60.7083 93.0343 60.7318 92.9825C64.5518 84.7525 39.2918 78.7724 36.2418 83.3124C35.4951 84.4258 35.8884 85.0725 37.4218 85.2525Z" stroke="#467C7D" stroke-width="2"/>
<path d="M93.4401 94.1921C93.8079 94.2844 94.2461 94.0327 94.6584 93.4924C95.0706 92.952 95.423 92.1673 95.6382 91.3107C95.7447 90.8866 95.8143 90.4576 95.8431 90.0483C95.8718 89.6389 95.8591 89.2572 95.8056 88.925C95.7521 88.5927 95.659 88.3163 95.5315 88.1117C95.404 87.9072 95.2446 87.7783 95.0625 87.7326C94.6946 87.6402 94.2564 87.892 93.8442 88.4323C93.432 88.9726 93.0795 89.7574 92.8644 90.6139C92.7578 91.0381 92.6882 91.467 92.6595 91.8764C92.6308 92.2858 92.6435 92.6675 92.697 92.9998C92.7504 93.3321 92.8436 93.6083 92.9711 93.8129C93.0986 94.0175 93.2579 94.1463 93.4401 94.1921Z" stroke="#478582" stroke-width="2"/>
<path d="M27.7688 88.6197C27.7676 88.5225 27.7473 88.4265 27.709 88.3372C27.6707 88.2479 27.6152 88.1669 27.5456 88.0991C27.4761 88.0312 27.3939 87.9777 27.3036 87.9416C27.2134 87.9055 27.1169 87.8875 27.0198 87.8887L26.3599 87.8969C26.1636 87.8993 25.9764 87.9795 25.8393 88.1199C25.7023 88.2604 25.6266 88.4496 25.629 88.6458L25.7174 95.8853C25.7186 95.9825 25.7389 96.0785 25.7772 96.1678C25.8154 96.2571 25.8709 96.3379 25.9405 96.4058C26.01 96.4737 26.0923 96.5272 26.1825 96.5633C26.2727 96.5994 26.3692 96.6173 26.4664 96.6161L27.1263 96.6081C27.3225 96.6057 27.5097 96.5254 27.6468 96.3849C27.7839 96.2445 27.8595 96.0554 27.8572 95.8592L27.7688 88.6197Z" stroke="#478582" stroke-width="2"/>
<path d="M71.586 99.178C71.778 99.2494 72.0205 99.1794 72.2997 98.9717C72.5789 98.764 72.8892 98.4228 73.2131 97.9677C73.5369 97.5125 73.8679 96.9522 74.1871 96.3189C74.5063 95.6855 74.8074 94.9914 75.0734 94.2763C75.3394 93.5611 75.5649 92.8389 75.7371 92.1509C75.9094 91.4629 76.0249 90.8224 76.0772 90.2662C76.1295 89.7101 76.1174 89.2491 76.0418 88.9094C75.9662 88.5698 75.8284 88.3583 75.6364 88.2869C75.4444 88.2154 75.2019 88.2855 74.9227 88.4932C74.6435 88.7009 74.3332 89.042 74.0093 89.4972C73.6855 89.9524 73.3545 90.5126 73.0353 91.146C72.7161 91.7794 72.415 92.4735 72.149 93.1886C71.883 93.9038 71.6575 94.6259 71.4853 95.314C71.3131 96.002 71.1975 96.6425 71.1452 97.1986C71.0929 97.7548 71.1049 98.2158 71.1806 98.5554C71.2562 98.8951 71.394 99.1066 71.586 99.178Z" stroke="#4C8C89" stroke-width="2"/>
<path d="M43.9156 103.209C44.2462 103.258 44.626 102.874 44.9714 102.144C45.3167 101.413 45.5993 100.396 45.7571 99.3145C45.8352 98.7791 45.8803 98.2443 45.8898 97.7405C45.8993 97.2367 45.873 96.7739 45.8124 96.3784C45.7519 95.983 45.6582 95.6626 45.5369 95.4357C45.4155 95.2088 45.2687 95.0797 45.105 95.0558C44.7743 95.0076 44.3945 95.3908 44.0492 96.1212C43.7039 96.8517 43.4212 97.8695 43.2635 98.9507C43.1854 99.4861 43.1403 100.021 43.1308 100.525C43.1213 101.028 43.1476 101.491 43.2081 101.887C43.2687 102.282 43.3623 102.603 43.4837 102.829C43.6051 103.056 43.7518 103.186 43.9156 103.209Z" stroke="#478582" stroke-width="2"/>
<path d="M16.1503 98.4424C12.5403 98.3424 14.5903 105.922 15.7203 107.412C16.0136 107.792 16.1736 107.772 16.2003 107.352L16.7403 99.1224C16.7472 99.0371 16.7372 98.9513 16.7109 98.8702C16.6846 98.7892 16.6425 98.7145 16.5873 98.6509C16.5321 98.5872 16.4649 98.536 16.3897 98.5001C16.3146 98.4643 16.2331 98.4446 16.1503 98.4424Z" stroke="#42847E" stroke-width="2"/>
<path d="M84.8399 114.111C84.9927 114.184 85.1875 114.166 85.4131 114.057C85.6387 113.949 85.8908 113.752 86.1549 113.478C86.419 113.204 86.69 112.858 86.9523 112.46C87.2147 112.063 87.4634 111.621 87.6841 111.16C87.9049 110.7 88.0934 110.229 88.2388 109.775C88.3843 109.322 88.4839 108.894 88.5319 108.516C88.5799 108.139 88.5755 107.819 88.5188 107.575C88.4621 107.331 88.3543 107.168 88.2015 107.095C88.0487 107.022 87.854 107.04 87.6284 107.149C87.4028 107.257 87.1507 107.454 86.8866 107.728C86.6225 108.002 86.3515 108.348 86.0891 108.745C85.8267 109.143 85.5781 109.585 85.3573 110.045C85.1366 110.506 84.9481 110.977 84.8027 111.43C84.6572 111.884 84.5576 112.312 84.5096 112.689C84.4615 113.067 84.466 113.387 84.5227 113.631C84.5793 113.875 84.6872 114.038 84.8399 114.111Z" stroke="#4C8C89" stroke-width="2"/>
<path d="M48.5305 112.193C45.8905 114.203 44.5205 117.953 45.1005 121.243C45.1111 121.31 45.1356 121.374 45.1724 121.432C45.2092 121.489 45.2573 121.537 45.3135 121.573C45.3696 121.609 45.4324 121.632 45.4975 121.641C45.5626 121.649 45.6285 121.643 45.6905 121.623C47.4505 121.063 48.5805 114.633 48.8905 112.423C48.9438 112.049 48.8238 111.973 48.5305 112.193Z" stroke="#4C8486" stroke-width="2"/>
<path d="M31.1097 124.608C31.4696 124.675 31.8656 124.464 32.2106 124.023C32.5556 123.581 32.8214 122.945 32.9495 122.254C33.0129 121.912 33.0406 121.566 33.031 121.238C33.0214 120.909 32.9747 120.603 32.8936 120.338C32.8124 120.072 32.6984 119.853 32.558 119.691C32.4177 119.53 32.2537 119.43 32.0755 119.397C31.7156 119.33 31.3196 119.541 30.9746 119.982C30.6296 120.424 30.3638 121.06 30.2357 121.751C30.1723 122.093 30.1446 122.438 30.1542 122.767C30.1638 123.096 30.2105 123.402 30.2917 123.667C30.3728 123.932 30.4868 124.152 30.6272 124.314C30.7676 124.475 30.9315 124.575 31.1097 124.608Z" stroke="#457475" stroke-width="2"/>
<path d="M59.8316 127.665C60.0052 127.721 60.2094 127.677 60.4326 127.536C60.6557 127.396 60.8934 127.16 61.1321 126.843C61.3708 126.526 61.6058 126.134 61.8237 125.689C62.0416 125.245 62.2381 124.756 62.402 124.252C62.566 123.747 62.6941 123.236 62.7792 122.749C62.8642 122.261 62.9044 121.806 62.8976 121.409C62.8908 121.012 62.837 120.682 62.7393 120.437C62.6417 120.192 62.502 120.036 62.3284 119.98C62.1548 119.924 61.9506 119.967 61.7275 120.108C61.5044 120.249 61.2667 120.485 61.028 120.802C60.7893 121.119 60.5543 121.51 60.3364 121.955C60.1185 122.4 59.922 122.888 59.758 123.393C59.5941 123.897 59.4659 124.408 59.3809 124.896C59.2959 125.384 59.2556 125.839 59.2625 126.236C59.2693 126.632 59.3231 126.963 59.4207 127.208C59.5184 127.453 59.658 127.608 59.8316 127.665Z" stroke="#42847E" stroke-width="2"/>
<path d="M96.8725 33.3626C98.5925 36.3426 99.2524 40.5026 99.9624 42.8826C106.362 64.2626 109.292 93.6226 97.2825 113.863C84.7325 135.013 65.4624 148.883 41.8125 157.413C38.5724 158.583 36.8624 157.093 37.6724 153.773C39.5591 146.079 41.2191 138.329 42.6524 130.523C42.6723 130.414 42.6698 130.302 42.6449 130.195C42.62 130.087 42.5733 129.985 42.5078 129.896C42.4422 129.807 42.3591 129.733 42.2636 129.677C42.1681 129.621 42.0622 129.586 41.9524 129.573C36.4025 128.953 30.2824 127.733 26.0224 123.813C18.2324 116.673 12.7424 111.423 8.48245 101.873C6.77245 98.0426 5.97244 93.0326 4.44244 88.6226C3.35577 85.5026 2.65244 80.296 2.33244 73.0026C2.27244 71.5026 1.01244 70.5026 1.00244 69.1826C0.909104 53.7226 3.49578 39.7959 8.76245 27.4026C17.9724 5.7326 42.6824 -3.27739 64.5524 2.91261C77.5924 6.60261 87.9125 16.5926 94.0925 28.5226C94.1658 28.6626 95.0925 30.276 96.8725 33.3626ZM50.9324 9.04261C48.2524 7.14261 48.3824 14.8626 48.5324 16.1426C48.5466 16.2783 48.5991 16.404 48.6801 16.496C48.7612 16.5881 48.8651 16.6403 48.9724 16.6426C49.9624 16.6726 50.9224 10.9026 51.1924 9.8426C51.231 9.68681 51.2268 9.52667 51.1803 9.38368C51.1338 9.24068 51.0473 9.12168 50.9324 9.04261ZM77.0376 15.2764C77.1528 15.2666 77.2631 15.213 77.3621 15.1187C77.4612 15.0245 77.5472 14.8915 77.6151 14.7272C77.6831 14.5629 77.7316 14.3706 77.7581 14.1613C77.7845 13.952 77.7883 13.7298 77.7692 13.5074C77.7307 13.0582 77.6014 12.6353 77.4098 12.3317C77.2181 12.0282 76.9798 11.8689 76.7473 11.8888C76.6321 11.8987 76.5218 11.9523 76.4228 12.0465C76.3237 12.1408 76.2377 12.2738 76.1698 12.4381C76.1018 12.6023 76.0533 12.7946 76.0268 13.0039C76.0004 13.2132 75.9966 13.4354 76.0156 13.6578C76.0542 14.1071 76.1835 14.53 76.3751 14.8335C76.5668 15.1371 76.8051 15.2964 77.0376 15.2764ZM39.0386 26.2301C39.1627 26.2527 39.3034 26.1763 39.4529 26.0053C39.6024 25.8342 39.7576 25.572 39.9097 25.2334C40.0619 24.8949 40.2079 24.4867 40.3396 24.0322C40.4712 23.5776 40.5858 23.0856 40.6769 22.5843C40.8609 21.5719 40.9379 20.5828 40.8909 19.8347C40.8439 19.0866 40.6767 18.6407 40.4263 18.5951C40.3022 18.5725 40.1614 18.649 40.012 18.82C39.8625 18.991 39.7073 19.2533 39.5552 19.5918C39.403 19.9304 39.257 20.3386 39.1253 20.7931C38.9937 21.2476 38.8791 21.7396 38.7879 22.2409C38.604 23.2533 38.527 24.2424 38.574 24.9905C38.621 25.7387 38.7882 26.1845 39.0386 26.2301ZM66.1308 30.4715C66.2674 30.4744 66.4052 30.3519 66.5365 30.1108C66.6678 29.8698 66.7899 29.5151 66.8959 29.0668C67.0018 28.6186 67.0896 28.0856 67.1542 27.4984C67.2188 26.9112 67.2589 26.2812 67.2722 25.6444C67.2992 24.3584 67.2155 23.1228 67.0395 22.2094C66.8636 21.2959 66.6098 20.7795 66.334 20.7737C66.1975 20.7708 66.0597 20.8934 65.9284 21.1344C65.7971 21.3754 65.675 21.7302 65.569 22.1784C65.463 22.6267 65.3753 23.1596 65.3107 23.7468C65.2461 24.3341 65.206 24.9641 65.1926 25.6008C65.1657 26.8869 65.2494 28.1225 65.4254 29.0359C65.6013 29.9493 65.8551 30.4657 66.1308 30.4715ZM15.7267 34.3241C16.032 34.3929 16.3992 34.1289 16.7474 33.5903C17.0956 33.0517 17.3964 32.2825 17.5835 31.452C17.7707 30.6215 17.8289 29.7977 17.7454 29.1618C17.6619 28.5258 17.4434 28.1299 17.1381 28.0611C16.8328 27.9923 16.4657 28.2563 16.1175 28.7949C15.7693 29.3336 15.4685 30.1027 15.2813 30.9332C15.0942 31.7637 15.036 32.5875 15.1195 33.2235C15.203 33.8594 15.4214 34.2553 15.7267 34.3241ZM93.9191 41.6356C94.0584 41.6622 94.2119 41.6068 94.371 41.4724C94.53 41.338 94.6914 41.1273 94.8459 40.8524C95.0005 40.5774 95.1452 40.2437 95.2717 39.8701C95.3982 39.4965 95.5041 39.0904 95.5834 38.675C95.6626 38.2596 95.7136 37.8431 95.7335 37.4492C95.7534 37.0552 95.7418 36.6917 95.6993 36.3792C95.6568 36.0667 95.5843 35.8113 95.4859 35.6278C95.3875 35.4443 95.2652 35.3362 95.1258 35.3096C94.9865 35.283 94.833 35.3385 94.6739 35.4729C94.5149 35.6073 94.3535 35.8179 94.199 36.0928C94.0444 36.3678 93.8997 36.7016 93.7732 37.0751C93.6467 37.4487 93.5408 37.8548 93.4615 38.2702C93.3823 38.6856 93.3313 39.1021 93.3114 39.496C93.2915 39.89 93.3031 40.2536 93.3456 40.5661C93.3881 40.8786 93.4606 41.1339 93.559 41.3174C93.6574 41.5009 93.7797 41.6091 93.9191 41.6356ZM52.3216 44.5465C52.6556 44.5904 53.0339 44.1918 53.3733 43.4382C53.7127 42.6847 53.9855 41.638 54.1315 40.5284C54.2039 39.979 54.2429 39.4306 54.2465 38.9147C54.25 38.3987 54.218 37.9253 54.1522 37.5214C54.0865 37.1175 53.9882 36.7911 53.8632 36.5607C53.7381 36.3303 53.5886 36.2005 53.4232 36.1787C53.0893 36.1348 52.711 36.5335 52.3716 37.287C52.0322 38.0405 51.7594 39.0872 51.6133 40.1968C51.541 40.7463 51.5019 41.2946 51.4984 41.8106C51.4948 42.3265 51.5269 42.8 51.5926 43.2039C51.6584 43.6078 51.7566 43.9342 51.8817 44.1646C52.0068 44.3949 52.1563 44.5247 52.3216 44.5465ZM5.19244 70.1826C5.30175 70.2291 5.42001 70.2506 5.53885 70.2457C5.65768 70.2408 5.77418 70.2096 5.88009 70.1542C5.98601 70.0989 6.07874 70.0208 6.15173 69.9255C6.22472 69.8302 6.27617 69.7199 6.30244 69.6026C8.27244 60.3426 14.8824 45.0126 27.3924 48.3126C33.1124 49.8193 38.3724 52.2826 43.1724 55.7026C44.0824 56.3526 45.1724 56.3626 45.7724 55.3726C46.4191 54.3126 45.8891 53.0793 44.1824 51.6726C36.9024 45.6926 25.6824 40.0726 17.0625 45.4126C9.37578 50.1659 4.88578 57.326 3.59245 66.8926C3.37245 68.4926 3.72244 69.5426 5.19244 70.1826ZM69.8924 59.0826C75.5624 58.6026 82.5824 58.4126 87.9524 60.6526C93.1224 62.8026 94.3525 67.8826 95.2225 72.8826C95.2506 73.043 95.3164 73.1943 95.4144 73.3243C95.5124 73.4543 95.6398 73.5592 95.7861 73.6304C95.9325 73.7016 96.0937 73.7372 96.2565 73.7341C96.4192 73.731 96.5789 73.6894 96.7225 73.6126C97.9125 72.9926 98.3524 71.4726 98.2424 70.1026C97.6758 62.5559 93.6224 57.9926 86.0824 56.4126C82.8024 55.7326 71.1124 54.5926 69.0724 57.7126C68.4124 58.7259 68.6858 59.1826 69.8924 59.0826ZM31.2424 64.1427C31.2424 63.5451 31.1248 62.9535 30.8961 62.4014C30.6674 61.8494 30.3323 61.3478 29.9098 60.9253C29.4873 60.5028 28.9857 60.1676 28.4337 59.939C27.8816 59.7103 27.29 59.5926 26.6924 59.5926C25.4857 59.5926 24.3284 60.072 23.4751 60.9253C22.6218 61.7786 22.1424 62.9359 22.1424 64.1427C22.1424 65.3494 22.6218 66.5066 23.4751 67.3599C24.3284 68.2132 25.4857 68.6926 26.6924 68.6926C27.29 68.6926 27.8816 68.5749 28.4337 68.3463C28.9857 68.1176 29.4873 67.7824 29.9098 67.3599C30.3323 66.9374 30.6674 66.4358 30.8961 65.8838C31.1248 65.3318 31.2424 64.7402 31.2424 64.1427ZM77.2625 72.0926C77.2625 70.7082 76.7125 69.3804 75.7336 68.4015C74.7546 67.4226 73.4269 66.8726 72.0424 66.8726C70.658 66.8726 69.3303 67.4226 68.3513 68.4015C67.3724 69.3804 66.8224 70.7082 66.8224 72.0926C66.8224 73.477 67.3724 74.8048 68.3513 75.7837C69.3303 76.7626 70.658 77.3126 72.0424 77.3126C73.4269 77.3126 74.7546 76.7626 75.7336 75.7837C76.7125 74.8048 77.2625 73.477 77.2625 72.0926ZM37.4224 85.2526C45.7324 86.2226 53.7424 87.1826 60.1424 93.0826C60.1867 93.1229 60.2395 93.153 60.2966 93.1701C60.3537 93.1873 60.4135 93.1911 60.471 93.1813C60.5285 93.1716 60.5822 93.1485 60.6277 93.114C60.6731 93.0794 60.709 93.0344 60.7324 92.9826C64.5524 84.7526 39.2924 78.7726 36.2424 83.3126C35.4958 84.4259 35.8891 85.0726 37.4224 85.2526ZM93.4412 94.1923C93.8091 94.2847 94.2473 94.033 94.6595 93.4926C95.0718 92.9523 95.4242 92.1675 95.6394 91.311C95.7459 90.8868 95.8155 90.4579 95.8442 90.0485C95.8729 89.6392 95.8602 89.2575 95.8068 88.9252C95.7533 88.593 95.6602 88.3166 95.5327 88.112C95.4052 87.9074 95.2458 87.7786 95.0636 87.7329C94.6958 87.6405 94.2576 87.8922 93.8454 88.4326C93.4332 88.9729 93.0807 89.7577 92.8656 90.6142C92.759 91.0383 92.6894 91.4673 92.6607 91.8767C92.6319 92.286 92.6447 92.6678 92.6981 93.0001C92.7516 93.3323 92.8447 93.6086 92.9722 93.8132C93.0997 94.0178 93.2591 94.1466 93.4412 94.1923ZM27.7681 88.6198C27.767 88.5226 27.7466 88.4267 27.7084 88.3373C27.6701 88.248 27.6146 88.1671 27.545 88.0992C27.4755 88.0313 27.3932 87.9778 27.303 87.9417C27.2128 87.9056 27.1163 87.8877 27.0191 87.8889L26.3592 87.897C26.163 87.8994 25.9758 87.9796 25.8387 88.1201C25.7016 88.2605 25.626 88.4497 25.6283 88.6459L25.7167 95.8854C25.7179 95.9826 25.7382 96.0786 25.7765 96.1679C25.8148 96.2572 25.8703 96.3381 25.9399 96.406C26.0094 96.4738 26.0917 96.5273 26.1819 96.5634C26.2721 96.5995 26.3686 96.6175 26.4657 96.6163L27.1256 96.6082C27.3219 96.6058 27.5091 96.5255 27.6462 96.3851C27.7832 96.2446 27.8589 96.0555 27.8565 95.8593L27.7681 88.6198ZM71.5872 99.1782C71.7793 99.2496 72.0218 99.1796 72.3009 98.9719C72.5801 98.7642 72.8905 98.423 73.2143 97.9678C73.5382 97.5127 73.8691 96.9524 74.1883 96.319C74.5075 95.6857 74.8087 94.9916 75.0746 94.2764C75.3406 93.5613 75.5661 92.8391 75.7384 92.1511C75.9106 91.463 76.0262 90.8226 76.0784 90.2664C76.1307 89.7103 76.1187 89.2492 76.0431 88.9096C75.9674 88.57 75.8297 88.3584 75.6376 88.2871C75.4456 88.2156 75.2031 88.2857 74.924 88.4934C74.6448 88.701 74.3344 89.0422 74.0106 89.4974C73.6867 89.9526 73.3558 90.5128 73.0366 91.1462C72.7174 91.7796 72.4162 92.4736 72.1503 93.1888C71.8843 93.9039 71.6588 94.6261 71.4865 95.3142C71.3143 96.0022 71.1987 96.6426 71.1465 97.1988C71.0942 97.755 71.1062 98.216 71.1818 98.5556C71.2575 98.8952 71.3952 99.1068 71.5872 99.1782ZM43.9177 103.209C44.2484 103.258 44.6282 102.874 44.9735 102.144C45.3189 101.413 45.6015 100.396 45.7592 99.3145C45.8373 98.7791 45.8824 98.2443 45.8919 97.7405C45.9014 97.2368 45.8752 96.7739 45.8146 96.3785C45.754 95.983 45.6604 95.6627 45.539 95.4357C45.4176 95.2088 45.2709 95.0797 45.1071 95.0559C44.7765 95.0077 44.3967 95.3909 44.0514 96.1213C43.706 96.8517 43.4234 97.8695 43.2656 98.9508C43.1875 99.4861 43.1425 100.021 43.133 100.525C43.1235 101.028 43.1497 101.491 43.2103 101.887C43.2708 102.282 43.3645 102.603 43.4859 102.83C43.6073 103.056 43.754 103.186 43.9177 103.209ZM16.1524 98.4426C12.5424 98.3426 14.5924 105.923 15.7224 107.413C16.0158 107.793 16.1758 107.773 16.2024 107.353L16.7424 99.1226C16.7493 99.0373 16.7393 98.9515 16.7131 98.8704C16.6868 98.7894 16.6447 98.7147 16.5895 98.6511C16.5343 98.5874 16.4671 98.5362 16.3919 98.5003C16.3168 98.4645 16.2353 98.4448 16.1524 98.4426ZM84.8417 114.111C84.9944 114.184 85.1892 114.166 85.4148 114.057C85.6404 113.948 85.8925 113.751 86.1566 113.477C86.4207 113.203 86.6917 112.858 86.9541 112.46C87.2165 112.063 87.4651 111.621 87.6858 111.16C87.9066 110.699 88.0951 110.229 88.2405 109.775C88.386 109.321 88.4856 108.894 88.5336 108.516C88.5817 108.139 88.5772 107.819 88.5205 107.575C88.4638 107.331 88.356 107.168 88.2032 107.095C88.0505 107.021 87.8557 107.04 87.6301 107.148C87.4045 107.257 87.1524 107.454 86.8883 107.728C86.6242 108.002 86.3532 108.348 86.0908 108.745C85.8284 109.143 85.5798 109.585 85.3591 110.045C85.1383 110.506 84.9499 110.976 84.8044 111.43C84.6589 111.884 84.5593 112.312 84.5113 112.689C84.4632 113.067 84.4677 113.387 84.5244 113.63C84.5811 113.874 84.6889 114.037 84.8417 114.111ZM48.5324 112.193C45.8924 114.203 44.5224 117.953 45.1024 121.243C45.1131 121.31 45.1376 121.374 45.1744 121.431C45.2112 121.489 45.2593 121.537 45.3155 121.573C45.3716 121.609 45.4344 121.632 45.4995 121.641C45.5646 121.649 45.6304 121.643 45.6924 121.623C47.4524 121.063 48.5824 114.633 48.8924 112.423C48.9458 112.049 48.8258 111.973 48.5324 112.193ZM31.1095 124.608C31.4694 124.675 31.8654 124.464 32.2104 124.023C32.5555 123.581 32.8213 122.945 32.9493 122.254C33.0128 121.912 33.0405 121.567 33.0309 121.238C33.0213 120.909 32.9745 120.603 32.8934 120.338C32.8122 120.073 32.6982 119.853 32.5579 119.692C32.4175 119.53 32.2535 119.43 32.0753 119.397C31.7155 119.33 31.3195 119.541 30.9744 119.982C30.6294 120.424 30.3636 121.06 30.2355 121.751C30.1721 122.093 30.1444 122.439 30.154 122.767C30.1636 123.096 30.2103 123.402 30.2915 123.667C30.3727 123.932 30.4867 124.152 30.627 124.314C30.7674 124.475 30.9313 124.575 31.1095 124.608ZM59.834 127.665C60.0076 127.721 60.2118 127.678 60.435 127.537C60.6581 127.396 60.8958 127.16 61.1345 126.843C61.3732 126.526 61.6082 126.134 61.8261 125.69C62.044 125.245 62.2405 124.757 62.4044 124.252C62.5684 123.748 62.6965 123.237 62.7816 122.749C62.8666 122.261 62.9068 121.806 62.9 121.409C62.8932 121.013 62.8394 120.682 62.7417 120.437C62.6441 120.192 62.5045 120.037 62.3308 119.98C62.1572 119.924 61.953 119.967 61.7299 120.108C61.5068 120.249 61.2691 120.485 61.0304 120.802C60.7917 121.119 60.5567 121.511 60.3388 121.955C60.1209 122.4 59.9244 122.889 59.7604 123.393C59.5965 123.898 59.4683 124.408 59.3833 124.896C59.2983 125.384 59.258 125.839 59.2649 126.236C59.2717 126.633 59.3255 126.963 59.4232 127.208C59.5208 127.453 59.6604 127.608 59.834 127.665Z" fill="#77D0C4"/>
<path d="M48.5313 16.1424C48.3813 14.8624 48.2513 7.14238 50.9313 9.04238C51.0462 9.12145 51.1327 9.24045 51.1791 9.38344C51.2256 9.52644 51.2298 9.68657 51.1913 9.84237C50.9213 10.9024 49.9613 16.6724 48.9713 16.6424C48.8639 16.64 48.76 16.5879 48.679 16.4958C48.598 16.4037 48.5454 16.2781 48.5313 16.1424Z" fill="#0C3737"/>
<path d="M77.0379 15.276C76.8053 15.296 76.567 15.1366 76.3753 14.8331C76.1837 14.5295 76.0544 14.1067 76.0159 13.6574C75.9968 13.435 76.0006 13.2128 76.027 13.0035C76.0535 12.7942 76.102 12.6019 76.17 12.4376C76.2379 12.2734 76.3239 12.1403 76.423 12.0461C76.5221 11.9519 76.6323 11.8983 76.7475 11.8884C76.98 11.8684 77.2183 12.0278 77.41 12.3313C77.6016 12.6349 77.7309 13.0578 77.7695 13.507C77.7885 13.7294 77.7847 13.9516 77.7583 14.1609C77.7319 14.3702 77.6833 14.5625 77.6153 14.7268C77.5474 14.891 77.4614 15.0241 77.3623 15.1183C77.2633 15.2125 77.153 15.2662 77.0379 15.276Z" fill="#72A7A9"/>
<path d="M39.0367 26.2297C38.7862 26.1841 38.6191 25.7382 38.5721 24.9901C38.5251 24.242 38.602 23.2529 38.786 22.2405C38.8771 21.7392 38.9918 21.2472 39.1234 20.7927C39.2551 20.3381 39.4011 19.9299 39.5532 19.5914C39.7054 19.2528 39.8606 18.9906 40.0101 18.8196C40.1595 18.6486 40.3003 18.5721 40.4243 18.5947C40.6748 18.6403 40.8419 19.0862 40.889 19.8343C40.936 20.5824 40.859 21.5714 40.675 22.5839C40.5839 23.0852 40.4693 23.5772 40.3376 24.0318C40.206 24.4863 40.0599 24.8944 39.9078 25.233C39.7557 25.5715 39.6005 25.8338 39.451 26.0048C39.3015 26.1758 39.1608 26.2522 39.0367 26.2297Z" fill="#0C3737"/>
<path d="M66.1307 30.4713C65.8549 30.4655 65.6011 29.9491 65.4252 29.0357C65.2492 28.1223 65.1655 26.8867 65.1925 25.6006C65.2058 24.9638 65.2459 24.3338 65.3105 23.7466C65.3751 23.1594 65.4629 22.6265 65.5688 22.1782C65.6748 21.73 65.797 21.3752 65.9282 21.1342C66.0595 20.8932 66.1973 20.7706 66.3339 20.7735C66.6096 20.7793 66.8634 21.2957 67.0393 22.2092C67.2153 23.1226 67.299 24.3582 67.2721 25.6442C67.2587 26.281 67.2186 26.911 67.154 27.4982C67.0894 28.0854 67.0017 28.6184 66.8957 29.0666C66.7897 29.5149 66.6676 29.8696 66.5363 30.1106C66.405 30.3517 66.2672 30.4742 66.1307 30.4713Z" fill="#0C3737"/>
<path d="M15.7265 34.324C15.4212 34.2552 15.2028 33.8593 15.1193 33.2234C15.0358 32.5875 15.094 31.7637 15.2811 30.9331C15.4683 30.1026 15.7691 29.3335 16.1173 28.7948C16.4655 28.2562 16.8326 27.9922 17.1379 28.061C17.4432 28.1298 17.6617 28.5257 17.7452 29.1617C17.8287 29.7976 17.7705 30.6214 17.5833 31.4519C17.3962 32.2824 17.0954 33.0516 16.7472 33.5902C16.399 34.1288 16.0318 34.3928 15.7265 34.324Z" fill="#21474D"/>
<path d="M93.9179 41.6352C93.7786 41.6086 93.6562 41.5005 93.5578 41.317C93.4594 41.1335 93.3869 40.8782 93.3444 40.5657C93.3019 40.2532 93.2903 39.8895 93.3102 39.4956C93.3301 39.1017 93.3811 38.6852 93.4604 38.2698C93.5396 37.8544 93.6455 37.4483 93.772 37.0747C93.8986 36.7011 94.0432 36.3673 94.1978 36.0924C94.3523 35.8175 94.5137 35.6069 94.6728 35.4725C94.8318 35.3381 94.9854 35.2826 95.1247 35.3092C95.264 35.3358 95.3864 35.4439 95.4847 35.6274C95.5831 35.8109 95.6556 36.0662 95.6981 36.3787C95.7406 36.6912 95.7522 37.0548 95.7323 37.4487C95.7124 37.8427 95.6614 38.2592 95.5822 38.6746C95.503 39.09 95.397 39.496 95.2705 39.8696C95.144 40.2432 94.9993 40.577 94.8448 40.8519C94.6902 41.1269 94.5288 41.3375 94.3698 41.4719C94.2108 41.6063 94.0572 41.6618 93.9179 41.6352Z" fill="#21474D"/>
<path d="M52.3196 44.5464C52.1543 44.5246 52.0048 44.3948 51.8797 44.1644C51.7546 43.934 51.6564 43.6076 51.5906 43.2037C51.5248 42.7998 51.4928 42.3264 51.4964 41.8104C51.4999 41.2945 51.539 40.7461 51.6113 40.1967C51.7574 39.0871 52.0301 38.0404 52.3696 37.2868C52.709 36.5333 53.0873 36.1347 53.4212 36.1786C53.5866 36.2003 53.736 36.3302 53.8611 36.5605C53.9862 36.7909 54.0844 37.1173 54.1502 37.5212C54.216 37.9251 54.248 38.3986 54.2445 38.9145C54.2409 39.4305 54.2018 39.9788 54.1295 40.5282C53.9834 41.6378 53.7107 42.6846 53.3713 43.4381C53.0318 44.1916 52.6535 44.5903 52.3196 44.5464Z" fill="#203847"/>
<path d="M5.19144 70.1821C3.72144 69.5421 3.37145 68.4921 3.59145 66.8921C4.88478 57.3255 9.37478 50.1654 17.0615 45.4121C25.6814 40.0721 36.9014 45.6921 44.1814 51.6721C45.8881 53.0788 46.4181 54.3121 45.7714 55.3721C45.1714 56.3621 44.0814 56.3521 43.1714 55.7021C38.3714 52.2821 33.1114 49.8188 27.3914 48.3121C14.8814 45.0121 8.27144 60.3421 6.30144 69.6021C6.27517 69.7194 6.22372 69.8296 6.15073 69.925C6.07774 70.0203 5.98501 70.0984 5.87909 70.1537C5.77318 70.2091 5.65668 70.2403 5.53785 70.2452C5.41901 70.2501 5.30075 70.2286 5.19144 70.1821Z" fill="#142735"/>
<path d="M87.9527 60.6524C82.5827 58.4124 75.5627 58.6023 69.8927 59.0823C68.686 59.1823 68.4127 58.7257 69.0727 57.7123C71.1127 54.5923 82.8027 55.7324 86.0827 56.4124C93.6227 57.9924 97.676 62.5557 98.2427 70.1024C98.3527 71.4724 97.9127 72.9924 96.7227 73.6124C96.5791 73.6891 96.4195 73.7307 96.2567 73.7338C96.094 73.7369 95.9328 73.7014 95.7864 73.6301C95.64 73.5589 95.5126 73.454 95.4147 73.324C95.3167 73.1941 95.2509 73.0427 95.2227 72.8824C94.3527 67.8824 93.1227 62.8024 87.9527 60.6524Z" fill="#142735"/>
<path d="M31.2406 64.1423C31.2406 64.7398 31.1229 65.3315 30.8943 65.8835C30.6656 66.4355 30.3305 66.9371 29.908 67.3596C29.4855 67.7821 28.9839 68.1173 28.4318 68.3459C27.8798 68.5746 27.2881 68.6923 26.6906 68.6923C25.4839 68.6923 24.3266 68.2129 23.4733 67.3596C22.62 66.5063 22.1406 65.3491 22.1406 64.1423C22.1406 62.9356 22.62 61.7783 23.4733 60.925C24.3266 60.0717 25.4839 59.5923 26.6906 59.5923C27.2881 59.5923 27.8798 59.71 28.4318 59.9387C28.9839 60.1673 29.4855 60.5025 29.908 60.925C30.3305 61.3475 30.6656 61.8491 30.8943 62.4011C31.1229 62.9532 31.2406 63.5448 31.2406 64.1423Z" fill="#1C3041"/>
<path d="M77.2603 72.0925C77.2603 73.477 76.7104 74.8047 75.7314 75.7836C74.7525 76.7626 73.4247 77.3126 72.0403 77.3126C70.6559 77.3126 69.3282 76.7626 68.3492 75.7836C67.3703 74.8047 66.8203 73.477 66.8203 72.0925C66.8203 70.7081 67.3703 69.3804 68.3492 68.4014C69.3282 67.4225 70.6559 66.8726 72.0403 66.8726C73.4247 66.8726 74.7525 67.4225 75.7314 68.4014C76.7104 69.3804 77.2603 70.7081 77.2603 72.0925Z" fill="#142735"/>
<path d="M37.4218 85.2525C35.8884 85.0725 35.4951 84.4258 36.2418 83.3124C39.2918 78.7724 64.5518 84.7525 60.7318 92.9825C60.7083 93.0343 60.6724 93.0793 60.627 93.1138C60.5816 93.1484 60.5279 93.1715 60.4703 93.1812C60.4128 93.191 60.3531 93.1871 60.296 93.17C60.2389 93.1528 60.186 93.1228 60.1418 93.0824C53.7418 87.1824 45.7318 86.2225 37.4218 85.2525Z" fill="#142735"/>
<path d="M93.4401 94.1921C93.2579 94.1463 93.0986 94.0175 92.9711 93.8129C92.8436 93.6083 92.7504 93.3321 92.697 92.9998C92.6435 92.6675 92.6308 92.2858 92.6595 91.8764C92.6882 91.467 92.7578 91.0381 92.8644 90.6139C93.0795 89.7574 93.432 88.9726 93.8442 88.4323C94.2564 87.892 94.6946 87.6402 95.0625 87.7326C95.2446 87.7783 95.404 87.9072 95.5315 88.1117C95.659 88.3163 95.7521 88.5927 95.8056 88.925C95.8591 89.2572 95.8718 89.6389 95.8431 90.0483C95.8143 90.4576 95.7447 90.8866 95.6382 91.3107C95.423 92.1673 95.0706 92.952 94.6584 93.4924C94.2461 94.0327 93.8079 94.2844 93.4401 94.1921Z" fill="#173940"/>
<path d="M27.8572 95.8592C27.8595 96.0554 27.7839 96.2445 27.6468 96.3849C27.5097 96.5254 27.3225 96.6057 27.1263 96.6081L26.4664 96.6161C26.3692 96.6173 26.2727 96.5994 26.1825 96.5633C26.0923 96.5272 26.01 96.4737 25.9405 96.4058C25.8709 96.3379 25.8154 96.2571 25.7772 96.1678C25.7389 96.0785 25.7186 95.9825 25.7174 95.8853L25.629 88.6458C25.6266 88.4496 25.7023 88.2604 25.8393 88.1199C25.9764 87.9795 26.1636 87.8993 26.3599 87.8969L27.0198 87.8887C27.1169 87.8875 27.2134 87.9055 27.3036 87.9416C27.3939 87.9777 27.4761 88.0312 27.5456 88.0991C27.6152 88.1669 27.6707 88.2479 27.709 88.3372C27.7473 88.4265 27.7676 88.5225 27.7688 88.6197L27.8572 95.8592Z" fill="#173940"/>
<path d="M71.586 99.178C71.394 99.1066 71.2562 98.8951 71.1806 98.5554C71.1049 98.2158 71.0929 97.7548 71.1452 97.1986C71.1975 96.6425 71.3131 96.002 71.4853 95.314C71.6575 94.6259 71.883 93.9038 72.149 93.1886C72.415 92.4735 72.7161 91.7794 73.0353 91.146C73.3545 90.5126 73.6855 89.9524 74.0093 89.4972C74.3332 89.042 74.6435 88.7009 74.9227 88.4932C75.2019 88.2855 75.4444 88.2154 75.6364 88.2869C75.8284 88.3583 75.9662 88.5698 76.0418 88.9094C76.1174 89.2491 76.1295 89.7101 76.0772 90.2662C76.0249 90.8224 75.9094 91.4629 75.7371 92.1509C75.5649 92.8389 75.3394 93.5611 75.0734 94.2763C74.8074 94.9914 74.5063 95.6855 74.1871 96.3189C73.8679 96.9522 73.5369 97.5125 73.2131 97.9677C72.8892 98.4228 72.5789 98.764 72.2997 98.9717C72.0205 99.1794 71.778 99.2494 71.586 99.178Z" fill="#21474D"/>
<path d="M43.9156 103.209C43.7518 103.186 43.6051 103.056 43.4837 102.829C43.3623 102.603 43.2687 102.282 43.2081 101.887C43.1476 101.491 43.1213 101.028 43.1308 100.525C43.1403 100.021 43.1854 99.4861 43.2635 98.9507C43.4212 97.8695 43.7039 96.8517 44.0492 96.1212C44.3945 95.3908 44.7743 95.0076 45.105 95.0558C45.2687 95.0797 45.4155 95.2088 45.5369 95.4357C45.6582 95.6626 45.7519 95.983 45.8124 96.3784C45.873 96.7739 45.8993 97.2367 45.8898 97.7405C45.8803 98.2443 45.8352 98.7791 45.7571 99.3145C45.5993 100.396 45.3167 101.413 44.9714 102.144C44.626 102.874 44.2462 103.258 43.9156 103.209Z" fill="#173940"/>
<path d="M15.7203 107.412C14.5903 105.922 12.5403 98.3424 16.1503 98.4424C16.2331 98.4446 16.3146 98.4643 16.3897 98.5001C16.4649 98.536 16.5321 98.5872 16.5873 98.6509C16.6425 98.7145 16.6846 98.7892 16.7109 98.8702C16.7372 98.9513 16.7472 99.0371 16.7403 99.1224L16.2003 107.352C16.1736 107.772 16.0136 107.792 15.7203 107.412Z" fill="#0C3737"/>
<path d="M84.8399 114.111C84.6872 114.038 84.5793 113.875 84.5227 113.631C84.466 113.387 84.4615 113.067 84.5096 112.689C84.5576 112.312 84.6572 111.884 84.8027 111.43C84.9481 110.977 85.1366 110.506 85.3573 110.045C85.5781 109.585 85.8267 109.143 86.0891 108.745C86.3515 108.348 86.6225 108.002 86.8866 107.728C87.1507 107.454 87.4028 107.257 87.6284 107.149C87.854 107.04 88.0487 107.022 88.2015 107.095C88.3543 107.168 88.4621 107.331 88.5188 107.575C88.5755 107.819 88.5799 108.139 88.5319 108.516C88.4839 108.894 88.3843 109.322 88.2388 109.775C88.0934 110.229 87.9049 110.7 87.6841 111.16C87.4634 111.621 87.2147 112.063 86.9523 112.46C86.69 112.858 86.419 113.204 86.1549 113.478C85.8908 113.752 85.6387 113.949 85.4131 114.057C85.1875 114.166 84.9927 114.184 84.8399 114.111Z" fill="#21474D"/>
<path d="M45.1005 121.243C44.5205 117.953 45.8905 114.203 48.5305 112.193C48.8238 111.973 48.9438 112.049 48.8905 112.423C48.5805 114.633 47.4505 121.063 45.6905 121.623C45.6285 121.643 45.5626 121.649 45.4975 121.641C45.4324 121.632 45.3696 121.609 45.3135 121.573C45.2573 121.537 45.2092 121.489 45.1724 121.432C45.1356 121.374 45.1111 121.31 45.1005 121.243Z" fill="#203847"/>
<path d="M31.1097 124.608C30.9315 124.575 30.7676 124.475 30.6272 124.314C30.4868 124.152 30.3728 123.932 30.2917 123.667C30.2105 123.402 30.1638 123.096 30.1542 122.767C30.1446 122.438 30.1723 122.093 30.2357 121.751C30.3638 121.06 30.6296 120.424 30.9746 119.982C31.3196 119.541 31.7156 119.33 32.0755 119.397C32.2537 119.43 32.4177 119.53 32.558 119.691C32.6984 119.853 32.8124 120.072 32.8936 120.338C32.9747 120.603 33.0214 120.909 33.031 121.238C33.0406 121.566 33.0129 121.912 32.9495 122.254C32.8214 122.945 32.5556 123.581 32.2106 124.023C31.8656 124.464 31.4696 124.675 31.1097 124.608Z" fill="#131825"/>
<path d="M59.8316 127.665C59.658 127.608 59.5184 127.453 59.4207 127.208C59.3231 126.963 59.2693 126.632 59.2625 126.236C59.2556 125.839 59.2959 125.384 59.3809 124.896C59.4659 124.408 59.5941 123.897 59.758 123.393C59.922 122.888 60.1185 122.4 60.3364 121.955C60.5543 121.51 60.7893 121.119 61.028 120.802C61.2667 120.485 61.5044 120.249 61.7275 120.108C61.9506 119.967 62.1548 119.924 62.3284 119.98C62.502 120.036 62.6417 120.192 62.7393 120.437C62.837 120.682 62.8908 121.012 62.8976 121.409C62.9044 121.806 62.8642 122.261 62.7792 122.749C62.6941 123.236 62.566 123.747 62.402 124.252C62.2381 124.756 62.0416 125.245 61.8237 125.689C61.6058 126.134 61.3708 126.526 61.1321 126.843C60.8934 127.16 60.6557 127.396 60.4326 127.536C60.2094 127.677 60.0052 127.721 59.8316 127.665Z" fill="#0C3737"/>
</svg>
