<svg width="180" height="194" viewBox="0 0 180 194" fill="none" xmlns="http://www.w3.org/2000/svg">
<path d="M164.282 6.7373C159.362 13.724 154.822 20.954 150.662 28.4273C141.689 44.5406 132.882 60.7406 124.242 77.0273" stroke="#F7A89C" stroke-width="2"/>
<path d="M124.242 77.0273C123.009 78.8407 122.259 80.8407 121.992 83.0273" stroke="#FFB5A8" stroke-width="2"/>
<path d="M121.994 83.0271L121.604 83.2371C121.56 83.2624 121.511 83.2772 121.461 83.2804C121.41 83.2836 121.36 83.2751 121.314 83.2556C121.268 83.2361 121.228 83.2061 121.197 83.1681C121.166 83.1301 121.144 83.0853 121.134 83.0372C119.794 76.1905 118.024 69.5371 115.824 63.0771" stroke="#D0F0EA" stroke-width="2"/>
<path d="M115.822 63.0773C115.549 60.0573 115.046 57.1173 114.312 54.2573C111.102 41.8073 108.882 29.1173 106.262 16.5273C105.856 14.5673 105.122 12.6673 104.062 10.8273C104.032 10.7742 103.991 10.7285 103.94 10.6935C103.89 10.6584 103.832 10.6348 103.771 10.6243C103.711 10.6139 103.648 10.6168 103.587 10.6328C103.527 10.6489 103.471 10.6777 103.422 10.7173C102.002 11.8773 100.912 13.0306 100.152 14.1773C90.5325 28.7173 81.8358 43.774 74.0625 59.3473" stroke="#FDE897" stroke-width="2"/>
<path d="M74.0643 59.3472C71.7709 63.4205 69.3242 68.5438 66.7242 74.7172C66.5109 75.2238 66.0442 75.4105 65.3242 75.2772" stroke="#D0F0EA" stroke-width="2"/>
<path d="M65.3242 75.2773L63.5742 72.2773" stroke="#FFB5A8" stroke-width="2"/>
<path d="M63.5757 72.2771C49.7657 46.5671 41.7958 30.0071 25.4258 11.5171" stroke="#F7A89C" stroke-width="2"/>
<path d="M25.4254 11.517C23.3454 8.29704 20.7421 6.09705 17.6154 4.91705C15.7821 4.23038 14.6654 4.84371 14.2654 6.75705C13.412 10.7837 12.8654 14.8504 12.6254 18.957C11.2154 42.847 11.0754 65.367 5.7354 90.097C3.0954 102.337 1.41539 114.907 1.03539 125.277C0.41539 142.257 7.98541 153.267 20.3054 164.657C42.1754 184.877 78.4354 196.357 107.785 191.237" stroke="#FFB5A8" stroke-width="2"/>
<path d="M107.785 191.237C119.125 189.551 129.878 187.067 140.045 183.787C160.215 177.287 172.295 160.887 175.995 140.277" stroke="#F9AB9F" stroke-width="2"/>
<path d="M175.995 140.277C179.745 121.237 178.345 98.3371 177.115 78.3571C175.895 58.4671 174.875 38.5071 172.975 18.6671C172.502 13.7671 172.132 8.85044 171.865 3.91711C171.485 -3.05289 165.635 4.34711 164.285 6.73711" stroke="#FFB5A8" stroke-width="2"/>
<path d="M175.995 140.277L172.785 139.857C172.721 139.849 172.656 139.852 172.594 139.867C172.532 139.883 172.474 139.91 172.422 139.947C172.371 139.984 172.329 140.03 172.296 140.084C172.264 140.137 172.243 140.196 172.235 140.257C171.825 143.777 172.395 147.107 169.455 149.997C169.214 150.232 169.047 150.521 168.975 150.827C168.335 153.447 168.345 156.157 167.095 158.517C161.795 168.537 155.145 176.227 144.275 180.467C139.105 182.477 133.805 184.727 128.345 185.797C124.815 186.497 122.005 187.957 118.515 188.177C115.508 188.357 112.518 188.567 109.545 188.807C108.458 188.901 107.872 189.711 107.785 191.237" stroke="#F96148" stroke-width="2"/>
<path d="M25.4258 11.5171C25.9391 14.1771 27.1791 16.3938 29.1458 18.1671C30.6724 19.5538 31.7224 20.6604 32.2958 21.4871C33.2891 22.9404 34.3024 24.3838 35.3358 25.8171C37.6358 29.0171 39.0458 32.7671 41.6258 36.0871C44.9058 40.2871 46.6158 46.0271 49.2858 50.5771C50.9258 53.3571 51.8757 56.4071 53.7557 59.0271C55.0157 60.7771 55.3158 62.9771 57.3558 64.5071C57.6208 64.7074 57.8076 64.9788 57.8857 65.2771C58.5757 67.8271 60.3557 74.9871 63.5757 72.2771" stroke="#F75E45" stroke-width="2"/>
<path d="M65.3225 75.2773C65.5425 75.8073 65.6225 76.6573 65.3825 77.2273C58.1725 93.8073 57.6826 112.777 60.2826 130.027C63.2726 149.917 81.5226 153.317 98.4726 151.437C112.663 149.857 120.793 140.687 123.233 126.967C125.813 112.447 125.399 97.8007 121.993 83.0273" stroke="#D0A593" stroke-width="2"/>
<path d="M124.246 77.0273C124.059 78.2806 124.546 78.7573 125.706 78.4573C126.145 78.3456 126.555 78.1299 126.905 77.8267C127.255 77.5234 127.536 77.1406 127.726 76.7073C134.006 62.4073 141.199 48.5906 149.306 35.2573C151.256 32.0473 153.216 27.6473 155.696 24.0873C158.056 20.7073 158.956 17.2973 161.676 13.7973C162.446 12.8073 166.676 7.6073 164.286 6.7373" stroke="#F75E45" stroke-width="2"/>
<path d="M115.822 63.0772C110.862 62.1572 105.996 60.9905 101.222 59.5772C91.7825 56.7872 83.6525 58.7572 74.0625 59.3472" stroke="#CED882" stroke-width="2"/>
<path d="M26.5465 91.3034C27.4464 92.1544 28.6917 92.5664 30.0084 92.4487C31.3251 92.331 32.6053 91.6933 33.5674 90.6758C34.5296 89.6584 35.0949 88.3445 35.1389 87.0233C35.1829 85.7021 34.7021 84.4818 33.8022 83.6308C32.9022 82.7798 31.657 82.3679 30.3403 82.4856C29.0236 82.6033 27.7434 83.241 26.7812 84.2584C25.8191 85.2759 25.2538 86.5897 25.2098 87.9109C25.1658 89.2321 25.6466 90.4524 26.5465 91.3034Z" stroke="#894038" stroke-width="2"/>
<path d="M156.245 96.1773C156.245 95.5339 156.119 94.8967 155.872 94.3022C155.626 93.7077 155.265 93.1675 154.81 92.7125C154.355 92.2575 153.815 91.8966 153.22 91.6503C152.626 91.4041 151.989 91.2773 151.345 91.2773C150.046 91.2773 148.799 91.7936 147.88 92.7125C146.962 93.6314 146.445 94.8778 146.445 96.1773C146.445 97.4769 146.962 98.7232 147.88 99.6422C148.799 100.561 150.046 101.077 151.345 101.077C151.989 101.077 152.626 100.951 153.22 100.704C153.815 100.458 154.355 100.097 154.81 99.6422C155.265 99.1872 155.626 98.647 155.872 98.0525C156.119 97.458 156.245 96.8208 156.245 96.1773Z" stroke="#894038" stroke-width="2"/>
<path d="M22.722 110.222C23.861 110.859 25.2264 110.981 26.5176 110.562C27.8088 110.143 28.9203 109.217 29.6073 107.987C29.9475 107.379 30.1733 106.714 30.2718 106.031C30.3702 105.348 30.3394 104.66 30.1812 104.007C30.0229 103.353 29.7403 102.747 29.3494 102.223C28.9585 101.699 28.467 101.267 27.903 100.952C26.7639 100.315 25.3986 100.193 24.1074 100.612C22.8161 101.031 21.7048 101.957 21.0177 103.187C20.6775 103.795 20.4517 104.46 20.3532 105.143C20.2548 105.826 20.2855 106.514 20.4438 107.167C20.6021 107.821 20.8847 108.427 21.2756 108.951C21.6665 109.475 22.158 109.907 22.722 110.222Z" stroke="#894038" stroke-width="2"/>
<path d="M152.287 119.466C152.814 119.798 153.409 120.009 154.039 120.089C154.668 120.168 155.32 120.114 155.957 119.929C156.594 119.743 157.203 119.431 157.749 119.01C158.296 118.589 158.77 118.066 159.144 117.473C159.898 116.275 160.2 114.859 159.981 113.538C159.762 112.217 159.042 111.098 157.978 110.429C157.452 110.097 156.856 109.885 156.227 109.806C155.597 109.727 154.945 109.781 154.309 109.966C153.672 110.151 153.063 110.463 152.516 110.884C151.969 111.306 151.495 111.828 151.122 112.421C150.367 113.62 150.066 115.035 150.284 116.356C150.503 117.678 151.223 118.796 152.287 119.466Z" stroke="#894038" stroke-width="2"/>
<path d="M99.8927 65.3371C100.813 64.1904 100.593 63.3437 99.2327 62.7971C96.0461 61.5171 92.7561 61.1504 89.3627 61.6971C83.5727 62.6171 90.2927 67.1571 91.5427 68.3371C91.7869 68.5683 92.0949 68.6972 92.4027 68.6971C95.5894 68.7037 98.086 67.5837 99.8927 65.3371Z" stroke="#5A7976" stroke-width="2"/>
<path d="M92.0245 72.877C89.3245 75.847 83.9545 77.227 83.6345 81.017C83.624 81.1644 83.6641 81.3107 83.7479 81.431C83.8318 81.5513 83.9542 81.6382 84.0945 81.677C86.5345 82.407 89.7645 79.577 91.3545 78.147C91.4702 78.0447 91.6061 77.9677 91.7531 77.921C91.9002 77.8743 92.0551 77.8589 92.2079 77.8759C92.3608 77.8929 92.508 77.9418 92.6401 78.0196C92.7721 78.0973 92.8861 78.202 92.9745 78.327L96.7845 83.777C97.0106 84.1064 97.291 84.3372 97.5745 84.427C105.924 87.137 93.1045 73.537 92.5445 72.887C92.511 72.8506 92.4704 72.8213 92.4255 72.8009C92.3806 72.7806 92.3322 72.7696 92.2834 72.7686C92.2346 72.7677 92.1865 72.7768 92.1419 72.7955C92.0973 72.8141 92.0574 72.8419 92.0245 72.877Z" stroke="#5E8085" stroke-width="2"/>
<path d="M175.995 140.277L172.785 139.857C172.722 139.848 172.657 139.852 172.594 139.867C172.532 139.882 172.474 139.909 172.423 139.947C172.372 139.984 172.329 140.03 172.297 140.084C172.264 140.137 172.244 140.196 172.235 140.257C171.825 143.777 172.395 147.107 169.455 149.997C169.214 150.232 169.047 150.52 168.975 150.827C168.335 153.447 168.345 156.157 167.095 158.517C161.795 168.537 155.145 176.227 144.275 180.467C139.105 182.477 133.805 184.727 128.345 185.797C124.815 186.497 122.005 187.957 118.515 188.177C115.509 188.357 112.519 188.567 109.545 188.807C108.459 188.9 107.872 189.71 107.785 191.237C78.4354 196.357 42.1754 184.877 20.3054 164.657C7.98541 153.267 0.41539 142.257 1.03539 125.277C1.41539 114.907 3.0954 102.337 5.7354 90.0971C11.0754 65.3671 11.2154 42.8471 12.6254 18.9571C12.8654 14.8504 13.412 10.7838 14.2654 6.75711C14.6654 4.84377 15.7821 4.23044 17.6154 4.91711C20.7421 6.09711 23.3454 8.29711 25.4254 11.5171C25.9387 14.1771 27.1787 16.3938 29.1454 18.1671C30.672 19.5538 31.7221 20.6604 32.2954 21.4871C33.2887 22.9404 34.302 24.3838 35.3354 25.8171C37.6354 29.0171 39.0454 32.7671 41.6254 36.0871C44.9054 40.2871 46.6154 46.0271 49.2854 50.5771C50.9254 53.3571 51.8754 56.4071 53.7554 59.0271C55.0154 60.7771 55.3154 62.9771 57.3554 64.5071C57.6205 64.7074 57.8073 64.9788 57.8854 65.2771C58.5754 67.8271 60.3554 74.9871 63.5754 72.2771L65.3254 75.2771C65.5454 75.8071 65.6254 76.6571 65.3854 77.2271C58.1754 93.8071 57.6854 112.777 60.2854 130.027C63.2754 149.917 81.5254 153.317 98.4754 151.437C112.665 149.857 120.795 140.687 123.235 126.967C125.815 112.447 125.402 97.8004 121.995 83.0271C122.262 80.8404 123.012 78.8404 124.245 77.0271C124.059 78.2804 124.545 78.7571 125.705 78.4571C126.144 78.3454 126.554 78.1297 126.904 77.8265C127.254 77.5232 127.535 77.1404 127.725 76.7071C134.005 62.4071 141.199 48.5904 149.305 35.2571C151.255 32.0471 153.215 27.6471 155.695 24.0871C158.055 20.7071 158.955 17.2971 161.675 13.7971C162.445 12.8071 166.675 7.60711 164.285 6.73711C165.635 4.34711 171.485 -3.05289 171.865 3.91711C172.132 8.85044 172.502 13.7671 172.975 18.6671C174.875 38.5071 175.895 58.4671 177.115 78.3571C178.345 98.3371 179.745 121.237 175.995 140.277ZM26.5476 91.3034C27.4475 92.1544 28.6928 92.5664 30.0095 92.4487C31.3261 92.331 32.6063 91.6932 33.5685 90.6758C34.5306 89.6583 35.0959 88.3445 35.1399 87.0233C35.184 85.7021 34.7031 84.4818 33.8032 83.6308C32.9033 82.7798 31.658 82.3679 30.3414 82.4855C29.0247 82.6032 27.7444 83.241 26.7823 84.2584C25.8201 85.2759 25.2549 86.5897 25.2109 87.9109C25.1669 89.2321 25.6477 90.4524 26.5476 91.3034ZM156.245 96.1771C156.245 95.5336 156.119 94.8965 155.872 94.302C155.626 93.7075 155.265 93.1673 154.81 92.7123C154.355 92.2573 153.815 91.8963 153.221 91.6501C152.626 91.4039 151.989 91.2771 151.345 91.2771C150.046 91.2771 148.799 91.7934 147.881 92.7123C146.962 93.6312 146.445 94.8775 146.445 96.1771C146.445 97.4767 146.962 98.723 147.881 99.6419C148.799 100.561 150.046 101.077 151.345 101.077C151.989 101.077 152.626 100.95 153.221 100.704C153.815 100.458 154.355 100.097 154.81 99.6419C155.265 99.1869 155.626 98.6468 155.872 98.0523C156.119 97.4578 156.245 96.8206 156.245 96.1771ZM22.7249 110.222C23.8639 110.859 25.2293 110.981 26.5205 110.562C27.8117 110.143 28.9232 109.217 29.6102 107.987C29.9504 107.379 30.1762 106.714 30.2746 106.031C30.3731 105.348 30.3423 104.66 30.1841 104.007C30.0258 103.353 29.7432 102.747 29.3523 102.223C28.9614 101.699 28.4699 101.267 27.9059 100.952C26.7668 100.315 25.4015 100.193 24.1103 100.612C22.819 101.031 21.7077 101.957 21.0206 103.187C20.6804 103.796 20.4546 104.46 20.3561 105.143C20.2577 105.826 20.2884 106.514 20.4467 107.167C20.605 107.821 20.8876 108.427 21.2785 108.951C21.6694 109.475 22.1609 109.907 22.7249 110.222ZM152.29 119.466C152.817 119.798 153.412 120.009 154.041 120.088C154.671 120.168 155.323 120.113 155.959 119.928C156.596 119.743 157.205 119.431 157.752 119.01C158.299 118.589 158.773 118.066 159.146 117.473C159.901 116.274 160.202 114.859 159.984 113.538C159.765 112.217 159.045 111.098 157.981 110.428C157.454 110.097 156.859 109.885 156.229 109.806C155.6 109.726 154.948 109.781 154.311 109.966C153.675 110.151 153.065 110.463 152.519 110.884C151.972 111.306 151.498 111.828 151.124 112.421C150.37 113.62 150.068 115.035 150.287 116.356C150.506 117.677 151.226 118.796 152.29 119.466Z" fill="#FF6A51"/>
<path d="M164.286 6.7373C166.676 7.6073 162.446 12.8073 161.676 13.7973C158.956 17.2973 158.056 20.7073 155.696 24.0873C153.216 27.6473 151.256 32.0473 149.306 35.2573C141.199 48.5906 134.006 62.4073 127.726 76.7073C127.536 77.1406 127.255 77.5234 126.905 77.8267C126.555 78.1299 126.145 78.3456 125.706 78.4573C124.546 78.7573 124.059 78.2806 124.246 77.0273C132.886 60.7406 141.692 44.5406 150.666 28.4273C154.826 20.954 159.366 13.724 164.286 6.7373Z" fill="#EF5138"/>
<path d="M115.826 63.0773C110.866 62.1573 106 60.9907 101.226 59.5773C91.7864 56.7873 83.6564 58.7573 74.0664 59.3473C81.8397 43.774 90.5364 28.7173 100.156 14.1773C100.916 13.0306 102.006 11.8773 103.426 10.7173C103.475 10.6777 103.531 10.6489 103.591 10.6328C103.652 10.6168 103.714 10.6139 103.775 10.6243C103.836 10.6348 103.894 10.6584 103.944 10.6935C103.994 10.7285 104.036 10.7742 104.066 10.8273C105.126 12.6673 105.86 14.5673 106.266 16.5273C108.886 29.1173 111.106 41.8073 114.316 54.2573C115.05 57.1173 115.553 60.0573 115.826 63.0773Z" fill="#FBD02F"/>
<path d="M25.4258 11.5171C41.7958 30.0071 49.7657 46.5671 63.5757 72.2771C60.3557 74.9871 58.5757 67.8271 57.8857 65.2771C57.8076 64.9788 57.6208 64.7074 57.3558 64.5071C55.3158 62.9771 55.0157 60.7771 53.7557 59.0271C51.8757 56.4071 50.9258 53.3571 49.2858 50.5771C46.6158 46.0271 44.9058 40.2871 41.6258 36.0871C39.0458 32.7671 37.6358 29.0171 35.3358 25.8171C34.3024 24.3838 33.2891 22.9404 32.2958 21.4871C31.7224 20.6604 30.6724 19.5538 29.1458 18.1671C27.1791 16.3938 25.9391 14.1771 25.4258 11.5171Z" fill="#EF5138"/>
<path d="M115.826 63.0772C118.026 69.5372 119.796 76.1905 121.136 83.0372C121.146 83.0853 121.168 83.1302 121.199 83.1681C121.23 83.2061 121.271 83.2361 121.317 83.2556C121.362 83.2751 121.413 83.2836 121.463 83.2804C121.513 83.2772 121.563 83.2624 121.606 83.2372L121.996 83.0272C125.403 97.8005 125.816 112.447 123.236 126.967C120.796 140.687 112.666 149.857 98.4765 151.437C81.5265 153.317 63.2765 149.917 60.2865 130.027C57.6865 112.777 58.1764 93.8072 65.3864 77.2272C65.6264 76.6572 65.5464 75.8072 65.3264 75.2772C66.0464 75.4105 66.5131 75.2238 66.7265 74.7172C69.3265 68.5438 71.7732 63.4205 74.0665 59.3472C83.6565 58.7572 91.7865 56.7872 101.226 59.5772C106 60.9905 110.866 62.1572 115.826 63.0772ZM99.8964 65.3372C100.816 64.1905 100.596 63.3438 99.2365 62.7972C96.0498 61.5172 92.7598 61.1505 89.3665 61.6972C83.5765 62.6172 90.2965 67.1572 91.5465 68.3372C91.7906 68.5684 92.0986 68.6973 92.4065 68.6972C95.5931 68.7038 98.0898 67.5838 99.8964 65.3372ZM92.0265 72.8772C89.3265 75.8472 83.9564 77.2272 83.6364 81.0172C83.6259 81.1646 83.666 81.3109 83.7499 81.4312C83.8338 81.5515 83.9562 81.6384 84.0965 81.6772C86.5365 82.4072 89.7665 79.5772 91.3565 78.1472C91.4722 78.0449 91.608 77.9679 91.7551 77.9212C91.9021 77.8745 92.0571 77.8591 92.2099 77.8761C92.3627 77.8931 92.51 77.942 92.6421 78.0197C92.7741 78.0975 92.8881 78.2022 92.9765 78.3272L96.7865 83.7772C97.0126 84.1066 97.293 84.3373 97.5764 84.4272C105.926 87.1372 93.1065 73.5372 92.5465 72.8872C92.5129 72.8508 92.4724 72.8215 92.4275 72.8011C92.3826 72.7807 92.3342 72.7697 92.2854 72.7688C92.2366 72.7679 92.1884 72.777 92.1439 72.7956C92.0993 72.8143 92.0593 72.842 92.0265 72.8772Z" fill="#A1E0D5"/>
<path d="M175.995 140.277C172.295 160.887 160.215 177.287 140.045 183.787C129.878 187.067 119.125 189.551 107.785 191.237C107.872 189.711 108.458 188.901 109.545 188.807C112.518 188.567 115.508 188.357 118.515 188.177C122.005 187.957 124.815 186.497 128.345 185.797C133.805 184.727 139.105 182.477 144.275 180.467C155.145 176.227 161.795 168.537 167.095 158.517C168.345 156.157 168.335 153.447 168.975 150.827C169.047 150.521 169.214 150.232 169.455 149.997C172.395 147.107 171.825 143.777 172.235 140.257C172.243 140.196 172.264 140.137 172.296 140.084C172.329 140.03 172.371 139.984 172.422 139.947C172.474 139.91 172.532 139.883 172.594 139.867C172.656 139.852 172.721 139.849 172.785 139.857L175.995 140.277Z" fill="#F2573F"/>
<path d="M26.5504 91.3034C25.6505 90.4524 25.1697 89.2321 25.2137 87.9109C25.2577 86.5897 25.823 85.2759 26.7851 84.2584C27.7473 83.241 29.0275 82.6033 30.3442 82.4856C31.6609 82.3679 32.9062 82.7798 33.8061 83.6308C34.706 84.4818 35.1868 85.7021 35.1428 87.0233C35.0988 88.3445 34.5335 89.6584 33.5713 90.6758C32.6092 91.6933 31.329 92.331 30.0123 92.4487C28.6956 92.5664 27.4503 92.1544 26.5504 91.3034Z" fill="#13151E"/>
<path d="M156.245 96.1773C156.245 96.8208 156.119 97.458 155.872 98.0525C155.626 98.647 155.265 99.1872 154.81 99.6422C154.355 100.097 153.815 100.458 153.22 100.704C152.626 100.951 151.989 101.077 151.345 101.077C150.046 101.077 148.799 100.561 147.88 99.6422C146.962 98.7232 146.445 97.4769 146.445 96.1773C146.445 94.8778 146.962 93.6314 147.88 92.7125C148.799 91.7936 150.046 91.2773 151.345 91.2773C151.989 91.2773 152.626 91.4041 153.22 91.6503C153.815 91.8966 154.355 92.2575 154.81 92.7125C155.265 93.1675 155.626 93.7077 155.872 94.3022C156.119 94.8967 156.245 95.5339 156.245 96.1773Z" fill="#13151E"/>
<path d="M22.7259 110.222C22.1619 109.907 21.6704 109.475 21.2795 108.951C20.8886 108.427 20.606 107.821 20.4477 107.167C20.2895 106.514 20.2587 105.826 20.3571 105.143C20.4556 104.46 20.6814 103.795 21.0216 103.187C21.7087 101.957 22.82 101.031 24.1113 100.612C25.4025 100.193 26.7678 100.315 27.9069 100.952C28.4709 101.267 28.9624 101.699 29.3533 102.223C29.7442 102.747 30.0268 103.353 30.1851 104.007C30.3433 104.66 30.3741 105.348 30.2757 106.031C30.1772 106.714 29.9514 107.379 29.6112 107.987C28.9242 109.217 27.8127 110.143 26.5215 110.562C25.2303 110.981 23.865 110.859 22.7259 110.222Z" fill="#13151E"/>
<path d="M152.291 119.466C151.227 118.796 150.507 117.678 150.288 116.356C150.07 115.035 150.371 113.62 151.126 112.421C151.499 111.828 151.973 111.306 152.52 110.884C153.067 110.463 153.676 110.151 154.313 109.966C154.949 109.781 155.601 109.727 156.231 109.806C156.86 109.885 157.456 110.097 157.982 110.429C159.046 111.098 159.766 112.217 159.985 113.538C160.204 114.859 159.902 116.275 159.148 117.473C158.774 118.066 158.3 118.589 157.753 119.01C157.207 119.431 156.597 119.743 155.961 119.929C155.324 120.114 154.672 120.168 154.043 120.089C153.413 120.009 152.818 119.798 152.291 119.466Z" fill="#13151E"/>
<path d="M99.8927 65.3375C98.086 67.5842 95.5894 68.7042 92.4027 68.6975C92.0949 68.6977 91.7869 68.5688 91.5427 68.3375C90.2927 67.1575 83.5727 62.6175 89.3627 61.6975C92.7561 61.1509 96.0461 61.5176 99.2327 62.7976C100.593 63.3442 100.813 64.1909 99.8927 65.3375Z" fill="#121116"/>
<path d="M92.0245 72.8775C92.0574 72.8424 92.0973 72.8146 92.1419 72.796C92.1865 72.7773 92.2346 72.7682 92.2834 72.7691C92.3322 72.77 92.3806 72.781 92.4255 72.8014C92.4704 72.8218 92.511 72.8511 92.5445 72.8875C93.1045 73.5375 105.924 87.1375 97.5745 84.4275C97.291 84.3376 97.0106 84.1069 96.7845 83.7775L92.9745 78.3275C92.8861 78.2025 92.7721 78.0978 92.6401 78.0201C92.508 77.9423 92.3608 77.8934 92.2079 77.8764C92.0551 77.8594 91.9002 77.8748 91.7531 77.9215C91.6061 77.9682 91.4702 78.0452 91.3545 78.1475C89.7645 79.5775 86.5345 82.4075 84.0945 81.6775C83.9542 81.6387 83.8318 81.5518 83.7479 81.4315C83.6641 81.3112 83.624 81.1649 83.6345 81.0175C83.9545 77.2275 89.3245 75.8475 92.0245 72.8775Z" fill="#1B2035"/>
</svg>
