<svg width="57" height="110" viewBox="0 0 57 110" fill="none" xmlns="http://www.w3.org/2000/svg">
<path d="M17.1218 107.224C21.6418 111.204 19.3818 106.234 18.8218 104.754C15.3551 95.6939 12.7818 87.0606 11.1018 78.8539C7.97178 63.5539 14.1418 48.944 23.4718 37.114C32.5918 25.564 42.9618 13.4339 54.8118 3.41394C55.8218 2.56394 56.1918 1.44394 54.4618 1.13394C54.1578 1.08269 53.8218 1.14988 53.5118 1.32394C42.0118 7.53394 32.0318 17.564 22.4518 27.844C0.981773 50.884 -10.1482 83.1739 17.1218 107.224Z" stroke="#FDF2AB" stroke-width="2"/>
<path d="M17.1179 107.224C-10.1521 83.1739 0.977867 50.884 22.4479 27.844C32.0279 17.564 42.0079 7.53394 53.5079 1.32394C53.8179 1.14988 54.1539 1.08269 54.4579 1.13394C56.1879 1.44394 55.8179 2.56394 54.8079 3.41394C42.9579 13.4339 32.5879 25.564 23.4679 37.114C14.1379 48.944 7.96787 63.5539 11.0979 78.8539C12.7779 87.0606 15.3512 95.6939 18.8179 104.754C19.3779 106.234 21.6379 111.204 17.1179 107.224Z" fill="#FBE456"/>
</svg>
