<svg width="86" height="104" viewBox="0 0 86 104" fill="none" xmlns="http://www.w3.org/2000/svg">
<path d="M54.5 1C43.3616 3.13 39.4486 14.72 37.8704 25.23C36.3826 35.16 28.9235 20.76 27.6367 19" stroke="#8B8B91" stroke-width="2"/>
<path d="M27.6384 19.0003C25.782 15.4403 23.0041 12.6169 19.3047 10.5303" stroke="#88868B" stroke-width="2"/>
<path d="M19.3032 10.5303L14.5684 6.81029C12.8929 5.49029 11.0198 5.52029 8.94895 6.90029C3.68134 10.4103 1.22849 14.5803 1.03749 21.1803C0.809626 29.2336 1.62054 37.187 3.47024 45.0403" stroke="#8B8B91" stroke-width="2"/>
<path d="M3.47266 45.04C6.22039 56.3 10.4057 66.9434 16.0285 76.97C23.4373 90.2 38.1444 105.96 55.0631 102.48" stroke="#828181" stroke-width="2"/>
<path d="M55.0583 102.48C59.7831 102.66 63.8544 101.143 67.2723 97.93C83.0249 83.12 82.7635 59.11 79.1747 39.18C76.3197 23.41 73.7261 4.77 54.043 1" stroke="#8B8B91" stroke-width="2"/>
<path d="M55.0631 102.48C52.188 101.94 49.3062 101.45 46.4177 101.01C44.0453 100.657 41.9812 100.003 40.2253 99.0498C31.0874 94.1198 23.9801 88.0298 18.803 78.7398C12.2487 66.9898 9.0519 57.1298 5.17156 45.7098C5.11222 45.5396 5.02541 45.3888 4.9186 45.2704C4.8118 45.152 4.68818 45.0694 4.55835 45.0298C4.20986 44.9165 3.84796 44.9198 3.47266 45.0398" stroke="#0F1421" stroke-width="2"/>
<path d="M19.3047 10.5303C20.3904 14.5369 22.6723 17.5069 26.1506 19.4403C26.613 19.7003 27.1089 19.5536 27.6384 19.0003" stroke="#15192C" stroke-width="2"/>
<path d="M56.2165 1H58.9665C78.5465 4.77 81.1265 23.41 83.9665 39.18C87.5365 59.11 87.7965 83.12 72.1265 97.93C68.7265 101.143 64.6765 102.66 59.9765 102.48C57.1165 101.94 54.2498 101.45 51.3765 101.01C49.0165 100.657 46.9632 100.003 45.2165 99.05C36.1265 94.12 29.0565 88.03 23.9065 78.74C17.3865 66.99 14.2065 57.13 10.3465 45.71C10.2875 45.5398 10.2011 45.389 10.0949 45.2706C9.98863 45.1521 9.86566 45.0696 9.73651 45.03C9.38984 44.9167 9.02984 44.92 8.65651 45.04C6.81651 37.1867 6.00984 29.2333 6.23651 21.18C6.42651 14.58 8.8665 10.41 14.1065 6.9C16.1665 5.52 18.0298 5.49 19.6965 6.81L24.4065 10.53C25.4865 14.5367 27.7565 17.5067 31.2165 19.44C31.6765 19.7 32.1698 19.5533 32.6965 19C33.9765 20.76 41.3965 35.16 42.8765 25.23C44.4465 14.72 45.1365 3.13 56.2165 1Z" fill="#181D31"/>
<path d="M24.4062 10.5303C28.0863 12.6169 30.8496 15.4403 32.6962 19.0003C32.1696 19.5536 31.6762 19.7003 31.2162 19.4403C27.7562 17.5069 25.4863 14.5369 24.4062 10.5303Z" fill="#121426"/>
<path d="M8.65625 45.0398C9.02958 44.9198 9.38959 44.9165 9.73625 45.0298C9.8654 45.0694 9.98837 45.152 10.0946 45.2704C10.2009 45.3888 10.2872 45.5396 10.3463 45.7098C14.2063 57.1298 17.3862 66.9898 23.9062 78.7398C29.0562 88.0298 36.1262 94.1198 45.2162 99.0498C46.9629 100.003 49.0163 100.657 51.3763 101.01C54.2496 101.45 57.1163 101.94 59.9763 102.48C43.1463 105.96 28.5163 90.1998 21.1463 76.9698C15.5529 66.9432 11.3896 56.2998 8.65625 45.0398Z" fill="#060A11"/>
</svg>
