<svg width="24" height="19" viewBox="0 0 24 19" fill="none" xmlns="http://www.w3.org/2000/svg">
<path d="M2.68592 9.44325L12.3159 16.3732C14.0959 17.6532 15.5959 17.4533 16.8159 15.7733L22.1759 8.36326C22.2479 8.26462 22.2601 8.12492 22.2099 7.97261C22.1598 7.82029 22.0511 7.66678 21.9059 7.54325C19.0326 5.04992 15.8559 3.04658 12.3759 1.53325C12.2221 1.46848 12.0547 1.44912 11.8959 1.47767C11.7371 1.50623 11.5942 1.58136 11.4859 1.69325C9.21928 4.01992 6.51593 5.55325 3.37593 6.29325C0.835927 6.89325 0.605924 7.94325 2.68592 9.44325Z" stroke="#BCE8DB" stroke-width="2"/>
<path d="M2.68983 9.44325C0.609831 7.94325 0.839833 6.89325 3.37983 6.29325C6.51983 5.55326 9.22318 4.01992 11.4898 1.69325C11.5981 1.58136 11.741 1.50623 11.8998 1.47767C12.0587 1.44912 12.226 1.46848 12.3798 1.53325C15.8598 3.04658 19.0365 5.04992 21.9098 7.54325C22.055 7.66678 22.1637 7.82029 22.2138 7.97261C22.264 8.12492 22.2519 8.26462 22.1799 8.36326L16.8198 15.7733C15.5998 17.4533 14.0998 17.6532 12.3198 16.3732L2.68983 9.44325Z" fill="#78D1B7"/>
</svg>
