<svg width="77" height="225" viewBox="0 0 77 225" fill="none" xmlns="http://www.w3.org/2000/svg">
<path d="M19.1027 222.932C23.0927 225.052 29.7227 224.182 25.8727 217.842C20.5527 209.062 17.7728 204.022 11.9628 198.112C9.27276 195.382 8.2727 192.742 7.7827 189.172C7.76086 189.02 7.77469 188.863 7.82317 188.714C7.87165 188.565 7.95356 188.428 8.06273 188.312C10.6827 185.572 13.5861 183.686 16.7728 182.652C25.0228 179.992 34.0727 174.872 39.0627 168.282C44.4527 161.152 42.7527 150.132 37.5527 143.222C32.2127 136.122 29.7627 131.532 29.0327 122.772C28.3994 115.279 26.2928 107.776 22.7128 100.262C12.4728 78.8122 37.1127 79.5523 47.7527 72.6523C57.9927 66.0123 66.8027 54.6022 64.1227 41.8222C62.6327 34.7122 54.1827 25.3923 55.1027 18.2723C56.8027 5.17226 75.4827 11.2523 75.8527 6.72225C75.8652 6.56868 75.8412 6.41187 75.7824 6.26316C75.7236 6.11445 75.6315 5.97754 75.5127 5.86225C67.0227 -2.47775 51.8227 3.23225 48.6727 14.1222C44.1527 29.7322 64.1227 38.7523 53.8727 55.2723C48.8227 63.4223 43.4627 67.1522 34.2227 69.5422C27.4027 71.3022 18.9627 73.6423 14.7027 78.8323C8.83275 85.9923 11.5228 94.5622 15.9628 101.882C20.2328 108.942 22.2527 115.132 21.8527 123.272C21.4527 131.662 23.7927 136.342 28.5527 143.102C32.2227 148.312 33.7527 152.672 34.0727 158.712C34.1661 160.432 33.676 161.966 32.6027 163.312C25.9227 171.712 18.9427 174.592 9.55272 178.942C4.21272 181.412 0.512705 187.152 1.53271 193.112C2.52271 198.942 11.2028 205.402 15.5228 212.172C17.2528 214.892 16.9627 218.142 17.7527 221.222C17.8441 221.584 18.0115 221.923 18.244 222.218C18.4766 222.512 18.7691 222.756 19.1027 222.932Z" stroke="#FAB4A8" stroke-width="2"/>
<path d="M19.1027 222.932C18.7691 222.756 18.4766 222.512 18.244 222.218C18.0115 221.923 17.8441 221.584 17.7527 221.222C16.9627 218.142 17.2528 214.892 15.5228 212.172C11.2028 205.402 2.52271 198.942 1.53271 193.112C0.512705 187.152 4.21272 181.412 9.55272 178.942C18.9427 174.592 25.9227 171.712 32.6027 163.312C33.676 161.966 34.1661 160.432 34.0727 158.712C33.7527 152.672 32.2227 148.312 28.5527 143.102C23.7927 136.342 21.4527 131.662 21.8527 123.272C22.2527 115.132 20.2328 108.942 15.9628 101.882C11.5228 94.5622 8.83275 85.9922 14.7027 78.8323C18.9627 73.6423 27.4027 71.3022 34.2227 69.5422C43.4627 67.1522 48.8227 63.4223 53.8727 55.2723C64.1227 38.7523 44.1527 29.7322 48.6727 14.1222C51.8227 3.23225 67.0228 -2.47775 75.5127 5.86225C75.6315 5.97754 75.7236 6.11445 75.7824 6.26316C75.8412 6.41187 75.8652 6.56868 75.8527 6.72225C75.4827 11.2523 56.8027 5.17226 55.1027 18.2723C54.1827 25.3923 62.6327 34.7122 64.1227 41.8222C66.8027 54.6022 57.9927 66.0123 47.7527 72.6523C37.1127 79.5523 12.4728 78.8122 22.7128 100.262C26.2928 107.776 28.3994 115.279 29.0327 122.772C29.7627 131.532 32.2127 136.122 37.5527 143.222C42.7527 150.132 44.4527 161.152 39.0627 168.282C34.0727 174.872 25.0228 179.992 16.7728 182.652C13.5861 183.686 10.6827 185.572 8.06273 188.312C7.95356 188.428 7.87165 188.565 7.82317 188.714C7.77469 188.863 7.76086 189.02 7.7827 189.172C8.27271 192.742 9.27276 195.382 11.9628 198.112C17.7728 204.022 20.5527 209.062 25.8727 217.842C29.7227 224.182 23.0927 225.052 19.1027 222.932Z" fill="#F46851"/>
</svg>
