<svg width="145" height="98" viewBox="0 0 145 98" fill="none" xmlns="http://www.w3.org/2000/svg">
<path d="M21.7548 67.1416C12.6148 71.7516 6.26476 76.2216 2.17475 84.8016C-2.15525 93.8616 6.34476 97.7116 13.6748 96.5216C20.9814 95.3283 27.9314 92.835 34.5248 89.0416" stroke="#D29A99" stroke-width="2"/>
<path d="M34.5278 89.0418C55.7178 77.3418 78.0678 66.0618 101.528 59.9018C114.088 56.6018 126.731 53.5718 139.458 50.8118C147.238 49.1218 143.518 45.5418 138.438 44.7818C129.684 43.4751 120.551 41.8051 111.038 39.7718C109.151 39.3718 108.708 38.3451 109.708 36.6918C110.481 35.4051 111.814 33.7718 113.708 31.7918C120.654 24.5251 127.588 17.2451 134.508 9.95174C136.028 8.35174 134.558 7.39177 132.908 8.17177C121.378 13.6618 109.688 19.7317 97.6978 24.0817C96.4111 24.5417 95.9811 24.1251 96.4078 22.8317C98.5945 16.1384 101.338 9.68175 104.638 3.46175C105.198 2.40175 105.478 0.941791 103.698 1.00179C103.402 1.00831 103.095 1.14775 102.838 1.39175C93.4845 10.1651 84.2845 19.0918 75.2378 28.1718C59.1978 44.2718 42.2278 57.0517 21.7578 67.1417" stroke="#FFB0A4" stroke-width="2"/>
<path d="M34.526 89.0416C32.0527 81.0083 27.7793 74.1217 21.706 68.3817C21.426 68.115 21.4427 67.7016 21.756 67.1416" stroke="#D34C40" stroke-width="2"/>
<path d="M34.5221 89.0423C32.0488 81.0089 27.7754 74.1223 21.7021 68.3823C21.4221 68.1156 21.4388 67.7022 21.7521 67.1422C42.2221 57.0522 59.1921 44.2723 75.2321 28.1723C84.2788 19.0923 93.4788 10.1656 102.832 1.39223C103.089 1.14823 103.397 1.0088 103.692 1.00228C105.472 0.94228 105.192 2.40224 104.632 3.46224C101.332 9.68224 98.5888 16.1389 96.4021 22.8322C95.9754 24.1256 96.4054 24.5422 97.6921 24.0822C109.682 19.7322 121.372 13.6623 132.902 8.17226C134.552 7.39226 136.022 8.35223 134.502 9.95223C127.582 17.2456 120.649 24.5256 113.702 31.7923C111.809 33.7723 110.475 35.4056 109.702 36.6923C108.702 38.3456 109.145 39.3722 111.032 39.7722C120.545 41.8056 129.679 43.4756 138.432 44.7822C143.512 45.5422 147.232 49.1223 139.452 50.8123C126.725 53.5723 114.082 56.6022 101.522 59.9022C78.0621 66.0622 55.7121 77.3423 34.5221 89.0423Z" fill="#FF624B"/>
<path d="M21.7548 67.1426C21.4414 67.7026 21.4248 68.116 21.7048 68.3826C27.7781 74.1226 32.0514 81.0093 34.5248 89.0426C27.9314 92.8359 20.9814 95.3293 13.6748 96.5226C6.34476 97.7126 -2.15525 93.8626 2.17475 84.8026C6.26476 76.2226 12.6148 71.7526 21.7548 67.1426Z" fill="#A63635"/>
</svg>
