<svg width="27" height="29" viewBox="0 0 27 29" fill="none" xmlns="http://www.w3.org/2000/svg">
<path d="M21.4858 16.2397C18.9658 13.8864 16.1958 11.8664 13.1758 10.1797" stroke="#9BA0B6" stroke-width="2"/>
<path d="M13.1774 10.1797C11.9574 8.15968 6.3574 0.56964 3.8574 1.32964C3.72496 1.37188 3.61167 1.46277 3.5369 1.58678C3.46213 1.71079 3.43054 1.86022 3.44743 2.00963C4.33743 10.4896 2.62739 17.2896 1.03739 25.0696C0.96587 25.407 0.997527 25.7409 1.12742 26.0196C2.01408 27.913 3.3941 28.1763 5.26743 26.8097C11.6174 22.1897 16.1674 22.0697 24.7674 21.3697C24.9295 21.3573 25.0827 21.3058 25.2099 21.2211C25.3371 21.1363 25.4332 21.0215 25.4874 20.8896C26.3174 18.8796 23.1074 16.9997 21.4874 16.2397" stroke="#8D94AE" stroke-width="2"/>
<path d="M13.1771 10.1797C13.2571 10.2997 13.2571 10.4597 13.1771 10.6597C13.1174 10.8068 13.0892 10.9626 13.0944 11.1163C13.0995 11.2701 13.138 11.418 13.2071 11.5497L15.0971 15.1996C15.2721 15.537 15.5149 15.7939 15.7871 15.9297C17.6471 16.863 19.5471 16.9664 21.4871 16.2397" stroke="#283465" stroke-width="2"/>
<path d="M10.9121 18.6865C11.0589 18.5771 11.1063 18.3472 11.0442 18.0474C10.9821 17.7475 10.8154 17.4022 10.5808 17.0875C10.4647 16.9317 10.3353 16.788 10.2002 16.6648C10.0651 16.5415 9.92687 16.4411 9.79336 16.3693C9.65986 16.2974 9.53371 16.2554 9.42215 16.2458C9.31058 16.2362 9.2158 16.2591 9.14315 16.3133C8.99644 16.4227 8.94888 16.6526 9.01101 16.9524C9.07314 17.2523 9.23987 17.5976 9.47445 17.9123C9.59061 18.0681 9.71989 18.2118 9.85501 18.335C9.99012 18.4583 10.1284 18.5587 10.2619 18.6305C10.3954 18.7024 10.5215 18.7444 10.6331 18.754C10.7447 18.7636 10.8395 18.7407 10.9121 18.6865Z" stroke="#2B3765" stroke-width="2"/>
<path d="M13.1774 10.1797C13.2574 10.2997 13.2574 10.4597 13.1774 10.6597C13.1177 10.8067 13.0895 10.9626 13.0946 11.1163C13.0998 11.2701 13.1383 11.418 13.2074 11.5497L15.0974 15.1996C15.2724 15.537 15.5152 15.7939 15.7874 15.9297C17.6474 16.863 19.5474 16.9663 21.4874 16.2397C23.1074 16.9997 26.3174 18.8796 25.4874 20.8896C25.4332 21.0215 25.3371 21.1363 25.2099 21.2211C25.0827 21.3058 24.9295 21.3573 24.7674 21.3697C16.1674 22.0697 11.6174 22.1897 5.26743 26.8097C3.3941 28.1763 2.01408 27.913 1.12742 26.0196C0.997527 25.7409 0.96587 25.407 1.03739 25.0696C2.62739 17.2896 4.33743 10.4896 3.44743 2.00963C3.43054 1.86022 3.46213 1.71079 3.5369 1.58678C3.61167 1.46277 3.72496 1.37188 3.8574 1.32964C6.3574 0.56964 11.9574 8.15968 13.1774 10.1797ZM10.9119 18.6863C11.0586 18.5769 11.1061 18.347 11.044 18.0471C10.9819 17.7472 10.8152 17.402 10.5806 17.0873C10.4644 16.9314 10.3351 16.7878 10.2 16.6645C10.0649 16.5413 9.92663 16.4409 9.79313 16.369C9.65963 16.2971 9.53348 16.2551 9.42191 16.2455C9.31035 16.2359 9.21557 16.2589 9.14292 16.313C8.99621 16.4224 8.94865 16.6523 9.01078 16.9522C9.07291 17.2521 9.23964 17.5973 9.47422 17.912C9.59037 18.0679 9.71966 18.2115 9.85477 18.3348C9.98989 18.458 10.1282 18.5584 10.2617 18.6303C10.3952 18.7022 10.5213 18.7442 10.6328 18.7538C10.7444 18.7634 10.8393 18.7404 10.9119 18.6863Z" fill="#1A285D"/>
<path d="M13.1771 10.1797C16.1971 11.8664 18.9671 13.8864 21.4871 16.2397C19.5471 16.9664 17.6471 16.863 15.7871 15.9297C15.5149 15.7939 15.2721 15.537 15.0971 15.1996L13.2071 11.5497C13.138 11.418 13.0995 11.2701 13.0944 11.1163C13.0892 10.9626 13.1174 10.8068 13.1771 10.6597C13.2571 10.4597 13.2571 10.2997 13.1771 10.1797Z" fill="#36406C"/>
<path d="M9.47335 17.9122C9.96184 18.5676 10.6055 18.9142 10.9111 18.6865C11.2166 18.4588 11.0683 17.7429 10.5798 17.0875C10.0913 16.4322 9.44763 16.0855 9.14209 16.3132C8.83655 16.541 8.98486 17.2569 9.47335 17.9122Z" fill="#3B456D"/>
</svg>
