<svg width="81" height="160" viewBox="0 0 81 160" fill="none" xmlns="http://www.w3.org/2000/svg">
<path d="M35.6603 1.91797C23.9003 2.95797 14.5903 11.878 10.0203 22.248C6.51028 30.208 8.82028 41.968 11.6003 49.938C11.6517 50.0828 11.664 50.238 11.6359 50.3876C11.6077 50.5371 11.5402 50.6754 11.4403 50.788C1.64027 62.168 3.41027 77.398 8.97027 90.218C9.63027 91.738 9.9836 93.3813 10.0303 95.148C10.0365 95.3023 10.0096 95.4576 9.95106 95.6039C9.89254 95.7501 9.80375 95.8843 9.69027 95.998C4.92027 100.828 -1.39972 111.208 1.93028 118.098C7.15028 128.908 15.7703 140.048 29.4303 142.408" stroke="#8A8C90" stroke-width="2"/>
<path d="M29.4314 142.407C27.8114 147.381 28.3781 151.211 31.1314 153.897C36.0914 158.727 49.3114 158.917 55.9914 158.217C62.2314 157.567 63.8514 152.887 63.9214 146.807C64.0014 140.817 61.0714 134.777 57.8114 129.947C57.7069 129.792 57.6643 129.604 57.6921 129.42C57.72 129.237 57.8162 129.071 57.9614 128.957C62.5014 125.277 70.4314 120.597 71.1714 114.387C71.6814 110.107 72.6614 101.197 69.8414 97.9475C66.4814 94.0675 63.0214 90.2741 59.4614 86.5675C59.4169 86.5203 59.384 86.4636 59.3651 86.4016C59.3462 86.3396 59.3419 86.2741 59.3526 86.2102C59.3632 86.1462 59.3885 86.0857 59.4265 86.0331C59.4644 85.9806 59.514 85.9376 59.5714 85.9075C65.6814 82.6975 75.3314 78.3275 76.7114 70.7075C78.3014 61.9375 74.4014 58.2175 70.0314 51.2775C69.9552 51.1549 69.9191 51.0114 69.928 50.8664C69.937 50.7214 69.9905 50.5821 70.0814 50.4675C72.2514 47.7775 74.7714 45.1675 76.2814 42.3475C86.9514 22.3675 67.8014 9.75746 52.6414 3.13746C51.288 2.54413 50.4614 2.20413 50.1614 2.11746C45.3481 0.697462 40.5147 0.630797 35.6614 1.91746" stroke="#FEB4A4" stroke-width="2"/>
<path d="M29.4297 142.408C31.803 139.988 33.463 137.075 34.4097 133.668" stroke="#8A4645" stroke-width="2"/>
<path d="M34.4083 133.668L38.8583 126.518C38.9376 126.386 38.9847 126.241 38.9951 126.096C39.0056 125.951 38.9792 125.81 38.9183 125.688L33.4883 115.168" stroke="#FEB4A4" stroke-width="2"/>
<path d="M33.4911 115.167C34.0044 108.107 33.6311 101.094 32.3711 94.127" stroke="#8A4645" stroke-width="2"/>
<path d="M32.3702 94.1279C35.4768 91.7546 38.1468 88.9746 40.3802 85.7879C40.4661 85.664 40.5131 85.5175 40.5148 85.3677C40.5166 85.2178 40.4732 85.0715 40.3902 84.9479L31.6602 71.8379" stroke="#FEB4A4" stroke-width="2"/>
<path d="M31.6602 71.837C35.3802 66.7903 36.9535 61.137 36.3802 54.877" stroke="#8A4645" stroke-width="2"/>
<path d="M36.3789 54.8771C39.6922 51.3504 42.7756 47.4871 45.6289 43.2871C45.7101 43.1708 45.7551 43.0317 45.7587 42.8863C45.7622 42.741 45.7241 42.5955 45.6489 42.4671L41.9789 36.2871" stroke="#FDB1A2" stroke-width="2"/>
<path d="M41.9805 36.2875C44.7671 34.8608 45.8205 32.6475 45.1405 29.6475" stroke="#8A4645" stroke-width="2"/>
<path d="M45.1378 29.6477C49.0378 28.9877 52.3178 23.1077 53.6078 19.7677C54.3545 17.8343 53.8045 16.391 51.9578 15.4377C47.5378 13.171 42.8045 11.5577 37.7578 10.5977" stroke="#FEB4A4" stroke-width="2"/>
<path d="M37.7602 10.598L35.6602 1.91797" stroke="#8A4645" stroke-width="2"/>
<path d="M37.7582 10.5977L31.3282 13.5577C31.2423 13.598 31.1688 13.6598 31.1139 13.7377C31.0589 13.8157 31.024 13.9076 31.0123 14.0056C31.0005 14.1036 31.0121 14.205 31.0462 14.3011C31.0803 14.3971 31.1359 14.4851 31.2082 14.5577C33.3548 16.711 35.5682 18.851 37.8482 20.9777C41.0482 23.9777 40.9382 28.1477 45.1382 29.6477" stroke="#8A8C90" stroke-width="2"/>
<path d="M41.978 36.2871C38.918 40.9338 35.0147 44.7271 30.268 47.6671C30.211 47.7018 30.1614 47.7474 30.1221 47.801C30.0829 47.8546 30.055 47.915 30.04 47.9787C30.025 48.0424 30.0233 48.1079 30.035 48.1713C30.0467 48.2346 30.0716 48.2945 30.108 48.3471C31.768 50.7871 33.858 52.9638 36.378 54.8771" stroke="#89898E" stroke-width="2"/>
<path d="M31.6604 71.8379C25.9804 75.8679 20.7904 78.6079 15.8304 84.5079C15.7344 84.621 15.6767 84.761 15.6659 84.9069C15.6551 85.0528 15.6917 85.197 15.7704 85.3179C19.1504 90.5479 25.6404 95.6979 32.3704 94.1279" stroke="#8A8C90" stroke-width="2"/>
<path d="M33.4901 115.168L24.4101 125.908C24.2895 126.051 24.2019 126.218 24.1533 126.399C24.1047 126.58 24.0963 126.769 24.1286 126.955C24.161 127.14 24.2333 127.317 24.3406 127.473C24.4479 127.629 24.5876 127.76 24.7501 127.858L34.4101 133.668" stroke="#8A8C90" stroke-width="2"/>
<path d="M60.3704 40.9478C61.237 41.7745 62.167 41.9311 63.1603 41.4178C70.2203 37.7778 71.0404 33.1211 65.6204 27.4478C65.544 27.3697 65.4526 27.3077 65.3527 27.2661C65.2529 27.2245 65.147 27.2044 65.0428 27.2073C64.9386 27.2102 64.8386 27.2359 64.75 27.2827C64.6614 27.3295 64.5864 27.3961 64.5303 27.4778C62.1003 31.1378 55.7904 36.5678 60.3704 40.9478Z" stroke="#FEB4A4" stroke-width="2"/>
<path d="M67.0576 63.2978C65.3676 60.8778 60.0676 57.3479 57.3576 55.9979C57.2019 55.9217 57.0388 55.8746 56.8775 55.8591C56.7161 55.8437 56.5599 55.8602 56.4176 55.9078C51.8376 57.4745 47.8509 59.9845 44.4576 63.4378C43.1709 64.7378 42.8243 66.2978 43.4176 68.1178C44.7109 72.0778 47.1243 75.1712 50.6576 77.3978C50.8883 77.5444 51.1612 77.6332 51.4557 77.6575C51.7502 77.6817 52.0586 77.6408 52.3576 77.5379C57.9776 75.6445 62.7243 72.4945 66.5976 68.0878C68.0109 66.4812 68.1643 64.8845 67.0576 63.2978Z" stroke="#FEB4A4" stroke-width="2"/>
<path d="M59.7214 101.807C57.6747 99.7541 55.3281 98.0908 52.6814 96.8175C51.4681 96.2308 50.2781 96.3341 49.1114 97.1275C42.6714 101.487 38.6714 109.807 46.0214 115.927C47.4747 117.141 49.0548 117.337 50.7614 116.517C55.0414 114.477 67.5714 110.477 61.4914 103.697C60.7981 102.924 60.2081 102.294 59.7214 101.807Z" stroke="#FEB4A4" stroke-width="2"/>
<path d="M46.6981 138.438C44.1514 139.812 42.1981 141.765 40.8381 144.298C40.6191 144.707 40.5333 145.174 40.5924 145.634C40.6516 146.095 40.8527 146.526 41.1681 146.868C43.3681 149.248 52.2381 152.898 53.3981 148.208C54.2281 144.868 50.0281 140.588 47.6181 138.628C47.4676 138.507 47.2994 138.424 47.1352 138.39C46.9711 138.356 46.8188 138.373 46.6981 138.438Z" stroke="#FDB1A2" stroke-width="2"/>
<path d="M29.8879 29.3578C26.8179 27.2878 23.9879 25.1778 20.6179 23.5278C20.4731 23.4565 20.3154 23.4202 20.1586 23.4219C20.0018 23.4237 19.8505 23.4634 19.7179 23.5378C15.2979 26.0178 16.8179 33.9478 17.7179 38.1478C18.0579 39.7145 19.0079 40.3211 20.5679 39.9678C23.1479 39.3778 35.9179 33.4178 29.8879 29.3578Z" stroke="#8A8C90" stroke-width="2"/>
<path d="M23.0212 61.5181C21.3746 59.6715 19.8279 58.5615 18.3812 58.1881C18.2183 58.1491 18.0482 58.1577 17.8918 58.2128C17.7355 58.2678 17.5997 58.367 17.5012 58.4981C14.8612 62.0715 13.1079 66.0415 12.2412 70.4081C12.1079 71.0748 12.3646 71.2815 13.0112 71.0281C16.9912 69.4681 20.3746 67.0915 23.1612 63.8981C23.4325 63.59 23.568 63.1778 23.5422 62.7394C23.5164 62.3009 23.3311 61.8665 23.0212 61.5181Z" stroke="#898D94" stroke-width="2"/>
<path d="M23.2287 108.308L17.9987 104.018C17.7774 103.837 17.4786 103.757 17.156 103.794C16.8334 103.831 16.5082 103.981 16.2387 104.218C11.0987 108.678 7.74871 114.948 14.7187 120.078C14.8277 120.157 14.9666 120.186 15.1053 120.158C15.2439 120.129 15.371 120.047 15.4587 119.928L23.2287 109.708C23.404 109.475 23.5018 109.2 23.5018 108.939C23.5018 108.678 23.404 108.452 23.2287 108.308Z" stroke="#898D94" stroke-width="2"/>
<path d="M29.4314 142.407C31.8047 139.987 33.4647 137.074 34.4114 133.667L38.8614 126.517C38.9407 126.386 38.9878 126.24 38.9983 126.095C39.0087 125.95 38.9823 125.81 38.9214 125.687L33.4914 115.167C34.0047 108.107 33.6314 101.094 32.3714 94.1275C35.4781 91.7541 38.1481 88.9741 40.3814 85.7875C40.4674 85.6636 40.5143 85.5171 40.5161 85.3673C40.5179 85.2174 40.4744 85.0711 40.3914 84.9475L31.6614 71.8375C35.3814 66.7908 36.9547 61.1375 36.3814 54.8775C39.6947 51.3508 42.7781 47.4875 45.6314 43.2875C45.7126 43.1711 45.7576 43.032 45.7611 42.8867C45.7647 42.7414 45.7266 42.5959 45.6514 42.4675L41.9814 36.2875C44.7681 34.8608 45.8214 32.6475 45.1414 29.6475C49.0414 28.9875 52.3214 23.1075 53.6114 19.7675C54.358 17.8341 53.8081 16.3908 51.9614 15.4375C47.5414 13.1708 42.8081 11.5575 37.7614 10.5975L35.6614 1.91746C40.5147 0.630797 45.3481 0.697462 50.1614 2.11746C50.4614 2.20413 51.288 2.54413 52.6414 3.13746C67.8014 9.75746 86.9514 22.3675 76.2814 42.3475C74.7714 45.1675 72.2514 47.7775 70.0814 50.4675C69.9905 50.5821 69.937 50.7214 69.928 50.8664C69.9191 51.0114 69.9552 51.1549 70.0314 51.2775C74.4014 58.2175 78.3014 61.9375 76.7114 70.7075C75.3314 78.3275 65.6814 82.6975 59.5714 85.9075C59.514 85.9376 59.4644 85.9806 59.4265 86.0331C59.3885 86.0857 59.3632 86.1462 59.3526 86.2102C59.3419 86.2741 59.3462 86.3396 59.3651 86.4016C59.384 86.4636 59.4169 86.5203 59.4614 86.5675C63.0214 90.2741 66.4814 94.0675 69.8414 97.9475C72.6614 101.197 71.6814 110.107 71.1714 114.387C70.4314 120.597 62.5014 125.277 57.9614 128.957C57.8162 129.071 57.72 129.237 57.6921 129.42C57.6643 129.604 57.7069 129.792 57.8114 129.947C61.0714 134.777 64.0014 140.817 63.9214 146.807C63.8514 152.887 62.2314 157.567 55.9914 158.217C49.3114 158.917 36.0914 158.727 31.1314 153.897C28.3781 151.211 27.8114 147.381 29.4314 142.407ZM60.3714 40.9475C61.2381 41.7741 62.1681 41.9308 63.1614 41.4175C70.2214 37.7775 71.0414 33.1208 65.6214 27.4475C65.545 27.3694 65.4536 27.3073 65.3538 27.2658C65.2539 27.2242 65.148 27.2041 65.0438 27.207C64.9396 27.2098 64.8396 27.2356 64.751 27.2823C64.6624 27.3291 64.5874 27.3958 64.5314 27.4775C62.1014 31.1375 55.7914 36.5675 60.3714 40.9475ZM67.0614 63.2975C65.3714 60.8775 60.0714 57.3475 57.3614 55.9975C57.2057 55.9213 57.0425 55.8742 56.8812 55.8587C56.7199 55.8433 56.5636 55.8598 56.4214 55.9075C51.8414 57.4741 47.8547 59.9841 44.4614 63.4375C43.1747 64.7375 42.828 66.2975 43.4214 68.1175C44.7147 72.0775 47.1281 75.1708 50.6614 77.3975C50.892 77.5441 51.165 77.6328 51.4595 77.6571C51.754 77.6814 52.0624 77.6404 52.3614 77.5375C57.9814 75.6441 62.7281 72.4941 66.6014 68.0875C68.0147 66.4808 68.168 64.8841 67.0614 63.2975ZM59.7214 101.807C57.6747 99.7541 55.3281 98.0908 52.6814 96.8175C51.4681 96.2308 50.278 96.3341 49.1114 97.1275C42.6714 101.487 38.6714 109.807 46.0214 115.927C47.4747 117.141 49.0547 117.337 50.7614 116.517C55.0414 114.477 67.5714 110.477 61.4914 103.697C60.7981 102.924 60.208 102.294 59.7214 101.807ZM46.7014 138.437C44.1547 139.811 42.2014 141.764 40.8414 144.297C40.6224 144.706 40.5366 145.173 40.5957 145.633C40.6549 146.094 40.8561 146.525 41.1714 146.867C43.3714 149.247 52.2414 152.897 53.4014 148.207C54.2314 144.867 50.0314 140.587 47.6214 138.627C47.4709 138.506 47.3027 138.423 47.1386 138.389C46.9744 138.355 46.8221 138.372 46.7014 138.437Z" fill="#FE6E59"/>
<path d="M35.6603 1.91797L37.7603 10.598L31.3303 13.558C31.2444 13.5983 31.1709 13.6601 31.116 13.738C31.061 13.816 31.0261 13.9079 31.0144 14.0059C31.0026 14.104 31.0143 14.2053 31.0484 14.3014C31.0824 14.3975 31.138 14.4855 31.2103 14.558C33.3569 16.7113 35.5703 18.8513 37.8503 20.978C41.0503 23.978 40.9403 28.148 45.1403 29.648C45.8203 32.648 44.7669 34.8613 41.9803 36.288C38.9203 40.9346 35.0169 44.728 30.2703 47.668C30.2132 47.7027 30.1636 47.7482 30.1244 47.8018C30.0852 47.8554 30.0572 47.9159 30.0422 47.9796C30.0273 48.0433 30.0256 48.1088 30.0373 48.1721C30.049 48.2355 30.0738 48.2953 30.1103 48.348C31.7703 50.788 33.8603 52.9646 36.3803 54.878C36.9536 61.138 35.3803 66.7913 31.6603 71.838C25.9803 75.868 20.7903 78.608 15.8303 84.508C15.7343 84.6211 15.6766 84.7611 15.6658 84.907C15.655 85.0529 15.6916 85.197 15.7703 85.318C19.1503 90.548 25.6403 95.698 32.3703 94.128C33.6303 101.095 34.0036 108.108 33.4903 115.168L24.4103 125.908C24.2897 126.051 24.2021 126.218 24.1535 126.399C24.1049 126.58 24.0965 126.769 24.1288 126.955C24.1611 127.14 24.2335 127.317 24.3408 127.473C24.4481 127.629 24.5878 127.76 24.7503 127.858L34.4103 133.668C33.4636 137.075 31.8036 139.988 29.4303 142.408C15.7703 140.048 7.15028 128.908 1.93028 118.098C-1.39972 111.208 4.92027 100.828 9.69027 95.998C9.80375 95.8843 9.89254 95.7501 9.95106 95.6039C10.0096 95.4576 10.0365 95.3023 10.0303 95.148C9.9836 93.3813 9.63027 91.738 8.97027 90.218C3.41027 77.398 1.64027 62.168 11.4403 50.788C11.5402 50.6754 11.6077 50.5371 11.6359 50.3876C11.664 50.238 11.6517 50.0828 11.6003 49.938C8.82028 41.968 6.51027 30.208 10.0203 22.248C14.5903 11.878 23.9003 2.95797 35.6603 1.91797ZM29.8903 29.358C26.8203 27.288 23.9903 25.178 20.6203 23.528C20.4754 23.4567 20.3178 23.4204 20.161 23.4221C20.0042 23.4239 19.8529 23.4636 19.7203 23.538C15.3003 26.018 16.8203 33.948 17.7203 38.148C18.0603 39.7146 19.0103 40.3213 20.5703 39.968C23.1503 39.378 35.9203 33.418 29.8903 29.358ZM23.0203 61.518C21.3736 59.6713 19.8269 58.5613 18.3803 58.188C18.2173 58.149 18.0472 58.1575 17.8909 58.2126C17.7345 58.2677 17.5988 58.3669 17.5003 58.498C14.8603 62.0713 13.1069 66.0413 12.2403 70.408C12.1069 71.0746 12.3636 71.2813 13.0103 71.028C16.9903 69.468 20.3736 67.0913 23.1603 63.898C23.4315 63.5898 23.5671 63.1777 23.5413 62.7392C23.5155 62.3008 23.3302 61.8664 23.0203 61.518ZM23.2303 108.308L18.0003 104.018C17.7789 103.837 17.4801 103.757 17.1576 103.794C16.835 103.831 16.5098 103.981 16.2403 104.218C11.1003 108.678 7.75027 114.948 14.7203 120.078C14.8292 120.157 14.9682 120.186 15.1068 120.158C15.2455 120.13 15.3725 120.047 15.4603 119.928L23.2303 109.708C23.4055 109.475 23.5034 109.2 23.5034 108.939C23.5034 108.678 23.4055 108.452 23.2303 108.308Z" fill="#151E30"/>
<path d="M37.7582 10.5977C42.8048 11.5577 47.5382 13.171 51.9582 15.4377C53.8048 16.391 54.3548 17.8343 53.6082 19.7677C52.3182 23.1077 49.0382 28.9877 45.1382 29.6477C40.9382 28.1477 41.0482 23.9777 37.8482 20.9777C35.5682 18.851 33.3548 16.711 31.2082 14.5577C31.1359 14.4851 31.0803 14.3971 31.0462 14.3011C31.0121 14.205 31.0005 14.1036 31.0123 14.0056C31.024 13.9076 31.0589 13.8157 31.1139 13.7377C31.1688 13.6598 31.2423 13.598 31.3282 13.5577L37.7582 10.5977Z" fill="#FEF9EF"/>
<path d="M41.978 36.2871L45.648 42.4671C45.7232 42.5955 45.7613 42.741 45.7578 42.8863C45.7542 43.0317 45.7092 43.1708 45.628 43.2871C42.7747 47.4871 39.6914 51.3504 36.378 54.8771C33.858 52.9638 31.768 50.7871 30.108 48.3471C30.0716 48.2945 30.0467 48.2346 30.035 48.1713C30.0233 48.1079 30.025 48.0424 30.04 47.9787C30.055 47.915 30.0829 47.8546 30.1221 47.801C30.1614 47.7474 30.211 47.7018 30.268 47.6671C35.0147 44.7271 38.918 40.9338 41.978 36.2871Z" fill="#FCF3EB"/>
<path d="M31.6604 71.8379L40.3904 84.9479C40.4734 85.0715 40.5169 85.2178 40.5151 85.3677C40.5133 85.5175 40.4663 85.664 40.3804 85.7879C38.147 88.9746 35.4771 91.7546 32.3704 94.1279C25.6404 95.6979 19.1504 90.5479 15.7704 85.3179C15.6917 85.197 15.6551 85.0528 15.6659 84.9069C15.6767 84.761 15.7344 84.621 15.8304 84.5079C20.7904 78.6079 25.9804 75.8679 31.6604 71.8379Z" fill="#FEF9EF"/>
<path d="M33.4901 115.168L38.9201 125.688C38.981 125.81 39.0075 125.951 38.997 126.096C38.9865 126.241 38.9394 126.386 38.8601 126.518L34.4101 133.668L24.7501 127.858C24.5876 127.76 24.4479 127.629 24.3406 127.473C24.2333 127.317 24.161 127.14 24.1286 126.955C24.0963 126.769 24.1047 126.58 24.1533 126.399C24.2019 126.218 24.2895 126.051 24.4101 125.908L33.4901 115.168Z" fill="#FEF9EF"/>
<path d="M60.3704 40.9478C55.7904 36.5678 62.1003 31.1378 64.5303 27.4778C64.5864 27.3961 64.6614 27.3295 64.75 27.2827C64.8386 27.2359 64.9386 27.2102 65.0428 27.2073C65.147 27.2044 65.2529 27.2245 65.3527 27.2661C65.4526 27.3077 65.544 27.3697 65.6204 27.4478C71.0404 33.1211 70.2203 37.7778 63.1603 41.4178C62.167 41.9311 61.237 41.7745 60.3704 40.9478Z" fill="#FEF9EF"/>
<path d="M57.3615 55.9979C60.0715 57.3479 65.3715 60.8778 67.0615 63.2978C68.1682 64.8845 68.0149 66.4812 66.6015 68.0878C62.7282 72.4945 57.9815 75.6445 52.3615 77.5379C52.0625 77.6408 51.7541 77.6817 51.4596 77.6575C51.1651 77.6332 50.8922 77.5444 50.6615 77.3978C47.1282 75.1712 44.7148 72.0778 43.4215 68.1178C42.8282 66.2978 43.1749 64.7378 44.4615 63.4378C47.8549 59.9845 51.8415 57.4745 56.4215 55.9078C56.5638 55.8602 56.7201 55.8437 56.8814 55.8591C57.0427 55.8746 57.2058 55.9217 57.3615 55.9979Z" fill="#FEF9EF"/>
<path d="M59.7214 101.807C60.2081 102.294 60.7981 102.924 61.4914 103.697C67.5714 110.477 55.0414 114.477 50.7614 116.517C49.0548 117.337 47.4747 117.141 46.0214 115.927C38.6714 109.807 42.6714 101.487 49.1114 97.1275C50.2781 96.3341 51.4681 96.2308 52.6814 96.8175C55.3281 98.0908 57.6747 99.7541 59.7214 101.807Z" fill="#FEF9EF"/>
<path d="M47.622 138.628C50.032 140.588 54.232 144.868 53.402 148.208C52.242 152.898 43.372 149.248 41.172 146.868C40.8567 146.526 40.6555 146.095 40.5963 145.634C40.5372 145.174 40.623 144.707 40.842 144.298C42.202 141.765 44.1553 139.812 46.702 138.438C46.8227 138.373 46.975 138.356 47.1391 138.39C47.3033 138.424 47.4715 138.507 47.622 138.628Z" fill="#FCF3EB"/>
<path d="M29.8879 29.3578C35.9179 33.4178 23.1479 39.3778 20.5679 39.9678C19.0079 40.3211 18.0579 39.7145 17.7179 38.1478C16.8179 33.9478 15.2979 26.0178 19.7179 23.5378C19.8505 23.4634 20.0018 23.4237 20.1586 23.4219C20.3154 23.4202 20.4731 23.4565 20.6179 23.5278C23.9879 25.1778 26.8179 27.2878 29.8879 29.3578Z" fill="#FEF9EF"/>
<path d="M23.0173 61.5181C23.3272 61.8665 23.5125 62.3009 23.5383 62.7394C23.5641 63.1778 23.4286 63.59 23.1573 63.8981C20.3706 67.0915 16.9873 69.4681 13.0073 71.0281C12.3607 71.2815 12.104 71.0748 12.2373 70.4081C13.104 66.0415 14.8573 62.0715 17.4973 58.4981C17.5958 58.367 17.7316 58.2678 17.8879 58.2128C18.0443 58.1577 18.2144 58.1491 18.3773 58.1881C19.824 58.5615 21.3706 59.6715 23.0173 61.5181Z" fill="#FCFCF8"/>
<path d="M23.2287 108.308C23.404 108.452 23.5018 108.678 23.5018 108.939C23.5018 109.2 23.404 109.475 23.2287 109.708L15.4587 119.928C15.371 120.047 15.2439 120.129 15.1053 120.158C14.9666 120.186 14.8277 120.157 14.7187 120.078C7.74871 114.948 11.0987 108.678 16.2387 104.218C16.5082 103.981 16.8334 103.831 17.156 103.794C17.4786 103.757 17.7774 103.837 17.9987 104.018L23.2287 108.308Z" fill="#FCFCF8"/>
</svg>
