<svg width="40" height="40" viewBox="0 0 40 40" fill="none" xmlns="http://www.w3.org/2000/svg">
<path d="M6.14149 34.5954C3.95149 35.6154 -0.978509 35.8654 0.171491 32.0154C0.218425 31.8548 0.300604 31.705 0.412611 31.5757C0.524617 31.4465 0.663956 31.3407 0.821516 31.2654C4.36818 29.5387 7.3315 27.0987 9.7115 23.9454C9.95658 23.6218 10.0912 23.2245 10.0965 22.8087C10.1019 22.3929 9.97781 21.9793 9.7415 21.6254L0.831495 8.27539C0.669619 8.02905 0.595667 7.72265 0.621503 7.40539C0.78817 5.67873 1.82151 5.42873 3.72151 6.65539C9.16151 10.1754 16.8215 17.5654 22.7715 10.5254C23.4649 9.70539 25.1382 7.21204 27.7915 3.04538C29.4415 0.455376 31.8015 -1.82462 33.9715 2.14538C34.1318 2.44679 34.1821 2.76288 34.1115 3.02539L30.2815 16.7954C30.2656 16.856 30.2654 16.9195 30.2806 16.9819C30.2958 17.0442 30.3261 17.1039 30.3697 17.1569C30.4132 17.2099 30.4689 17.255 30.533 17.2892C30.5971 17.3234 30.6682 17.346 30.7415 17.3554C33.3615 17.7054 41.5415 17.2754 39.3915 22.1354C38.8982 23.242 38.0382 23.8987 36.8115 24.1054L29.5415 25.3354C27.6415 25.6621 27.1015 26.722 27.9215 28.5154C28.9615 30.7954 31.9315 35.3654 31.7615 37.7554C31.5315 41.0554 28.0915 39.7054 26.4915 38.3154C23.2015 35.4754 19.7915 31.8954 15.5515 30.6154C15.2435 30.5188 14.9046 30.5438 14.6015 30.6854C11.7548 31.9987 8.93483 33.3021 6.14149 34.5954Z" fill="#151E30"/>
</svg>
