<svg width="134" height="104" viewBox="0 0 134 104" fill="none" xmlns="http://www.w3.org/2000/svg">
<path d="M43.2465 30.3459C43.5012 30.2867 43.7282 30.1426 43.89 29.9372C44.0517 29.7317 44.1387 29.4773 44.1365 29.2159C44.0165 20.2692 44.4398 11.7192 45.4065 3.56589C45.8265 0.00588655 48.0765 -1.51415 50.7065 1.96585C60.0198 14.2592 68.6565 27.0325 76.6165 40.2859C77.3032 41.4325 78.2131 42.3592 79.3465 43.0659C82.3465 44.9259 85.6731 46.5292 89.3265 47.8759C100.573 52.0359 111.893 55.9925 123.286 59.7459C127.793 61.2259 130.4 62.2292 131.106 62.7558C138.726 68.4458 126.776 73.3859 122.856 74.7859C95.8698 84.4125 68.8665 93.9959 41.8465 103.536C38.2465 104.806 35.8665 102.176 34.0565 99.0859C22.3665 79.2559 14.6165 59.9158 4.83649 40.3258C3.21649 37.0658 1.69649 32.9125 0.276488 27.8659C-1.86351 20.2659 9.01648 23.4459 12.3665 24.2159C21.0532 26.2292 29.7365 28.2292 38.4165 30.2159C40.2231 30.6292 41.8332 30.6725 43.2465 30.3459ZM17.4665 48.2459C23.9565 63.7859 33.4565 79.0359 42.5765 92.5759C42.6561 92.6937 42.7731 92.7808 42.9078 92.8227C43.0426 92.8646 43.1868 92.8587 43.3165 92.8059C64.4365 84.4759 86.9265 80.8059 108.036 71.9559C109.89 71.1826 111.323 70.3359 112.336 69.4159C113.196 68.6359 113.066 68.0892 111.946 67.7758C84.8398 60.1825 58.2665 51.8492 32.2265 42.7758C27.2531 41.0425 22.0531 40.0158 16.6265 39.6958C15.2265 39.6092 14.5931 40.2659 14.7265 41.6659C14.9065 43.6759 16.7765 46.5859 17.4665 48.2459Z" fill="#151E30"/>
<path d="M17.4644 48.2451C16.7744 46.5851 14.9044 43.6751 14.7244 41.6651C14.5911 40.2651 15.2244 39.6084 16.6244 39.6951C22.0511 40.0151 27.2511 41.0418 32.2244 42.7751C58.2644 51.8484 84.8378 60.1818 111.944 67.7751C113.064 68.0884 113.194 68.6351 112.334 69.4151C111.321 70.3351 109.888 71.1818 108.034 71.9552C86.9244 80.8052 64.4344 84.4751 43.3144 92.8051C43.1848 92.8579 43.0405 92.8638 42.9058 92.822C42.7711 92.7801 42.6541 92.693 42.5744 92.5751C33.4544 79.0351 23.9544 63.7851 17.4644 48.2451ZM25.2944 59.8451C27.3044 62.8451 28.6444 66.7751 30.6944 69.8951C34.2478 75.2951 38.1544 81.1751 42.4144 87.5351C42.6451 87.8779 42.9493 88.164 43.3044 88.3718C43.6594 88.5796 44.056 88.7037 44.4644 88.7351C47.3544 88.9651 50.5344 86.8251 53.0244 86.2551C56.9844 85.3551 60.3944 84.7351 64.6144 83.3051C65.8611 82.8851 67.4378 82.4417 69.3444 81.975C79.2444 79.5684 91.2111 75.8585 105.244 70.8452C105.398 70.7907 105.533 70.7 105.634 70.5833C105.734 70.4667 105.797 70.3288 105.814 70.1851C105.968 68.8585 105.418 68.1151 104.164 67.9551C94.2844 66.6951 85.2244 62.4451 75.6444 60.1551C70.5044 58.9151 65.0044 55.9451 59.6044 56.0051C59.2961 56.0049 58.9909 55.8757 58.7544 55.6451C57.4478 54.3718 55.9011 53.8351 54.1144 54.0351C53.7692 54.0744 53.4312 54.0151 53.1444 53.8651C51.8344 53.1751 50.8544 52.0651 49.4644 51.6551C43.3744 49.8451 36.9444 46.8951 31.6744 45.2951C28.6744 44.3884 25.6478 43.5518 22.5944 42.7851C14.7444 40.8051 19.4344 46.0151 20.0944 48.6251C21.0544 52.3851 22.7878 56.1251 25.2944 59.8451Z" fill="#F3D262"/>
<path d="M25.2958 59.8456C22.7892 56.1256 21.0558 52.3857 20.0958 48.6257C19.4358 46.0157 14.7458 40.8056 22.5958 42.7856C25.6491 43.5523 28.6758 44.389 31.6758 45.2957C36.9458 46.8956 43.3758 49.8456 49.4658 51.6556C50.8558 52.0656 51.8358 53.1757 53.1458 53.8657C53.4326 54.0157 53.7706 54.0749 54.1158 54.0356C55.9025 53.8356 57.4491 54.3723 58.7558 55.6456C58.9923 55.8762 59.2975 56.0054 59.6058 56.0056C65.0058 55.9456 70.5058 58.9156 75.6458 60.1556C85.2258 62.4456 94.2858 66.6956 104.166 67.9556C105.419 68.1156 105.969 68.859 105.816 70.1857C105.798 70.3293 105.736 70.4672 105.635 70.5839C105.534 70.7005 105.4 70.7912 105.246 70.8457C91.2125 75.859 79.2458 79.5689 69.3458 81.9756C67.4391 82.4422 65.8625 82.8857 64.6158 83.3057C60.3958 84.7357 56.9858 85.3556 53.0258 86.2556C50.5358 86.8256 47.3558 88.9656 44.4658 88.7356C44.0574 88.7043 43.6608 88.5801 43.3058 88.3723C42.9507 88.1645 42.6465 87.8784 42.4158 87.5356C38.1558 81.1756 34.2491 75.2956 30.6958 69.8956C28.6458 66.7756 27.3058 62.8456 25.2958 59.8456Z" fill="#FDCD4A"/>
</svg>
