<svg width="75" height="85" viewBox="0 0 75 85" fill="none" xmlns="http://www.w3.org/2000/svg">
<path d="M33.1837 7.32489C31.0971 6.12489 29.4837 6.46156 28.3438 8.33489" stroke="#D9948E" stroke-width="2"/>
<path d="M28.3414 8.33496C28.0414 8.60163 27.6481 8.77829 27.1614 8.86496C27.002 8.89299 26.8528 8.95242 26.7248 9.03893C26.5967 9.12544 26.4931 9.23683 26.4214 9.36496C24.5114 12.695 20.4614 14.765 16.9114 12.375C16.7789 12.2864 16.6315 12.2257 16.4784 12.1964C16.3252 12.1672 16.1697 12.1701 16.0214 12.205C11.9414 13.195 7.53141 13.475 4.55141 16.805C4.34369 17.0386 4.21714 17.3479 4.19141 17.685C4.01807 20.2383 3.43474 22.6716 2.44141 24.985" stroke="#FCF6E9" stroke-width="2"/>
<path d="M2.44289 24.9849C0.782892 26.3049 0.632896 27.8115 1.9929 29.5049" stroke="#E79F98" stroke-width="2"/>
<path d="M1.9928 29.5049C0.646132 32.9782 0.669465 36.4482 2.0628 39.9149C2.5228 41.0549 12.7328 49.2549 4.9528 48.9849C3.82613 48.9449 3.63947 49.4082 4.3928 50.3749C5.87947 52.2949 6.4928 54.5149 6.2328 57.0349C6.22084 57.1384 6.25433 57.2652 6.32988 57.4022C6.40543 57.5393 6.52032 57.6817 6.6628 57.8149C11.6928 62.5249 17.7428 69.4149 21.2428 75.3349C21.4101 75.6251 21.6658 75.8417 21.9628 75.9449C23.6928 76.5649 30.0828 78.7749 31.5328 76.2149" stroke="#FCF6E9" stroke-width="2"/>
<path d="M31.5312 76.2153L32.7413 76.1753" stroke="#E79F98" stroke-width="2"/>
<path d="M32.7422 76.1752C36.2322 76.6952 38.6222 76.9852 41.5822 79.3452C44.2955 81.5052 47.4322 82.7686 50.9922 83.1352C57.2189 83.7819 61.8622 81.4419 64.9222 76.1152" stroke="#FCF6E9" stroke-width="2"/>
<path d="M64.9219 76.115L69.1919 74.765C69.3459 74.7174 69.4821 74.6342 69.5834 74.5258C69.6847 74.4174 69.7468 74.2885 69.7619 74.155C69.8886 72.9883 69.5319 71.9783 68.6919 71.125" stroke="#E9B2A7" stroke-width="2"/>
<path d="M68.6931 71.1248C67.9398 66.4115 67.7898 62.5215 68.2431 59.4548C68.5165 57.6282 69.6298 56.3048 71.5831 55.4848C71.9039 55.3473 72.1698 55.147 72.3531 54.9048C75.8131 50.2948 72.9131 42.6048 69.0131 39.1248C68.7869 38.9175 68.6352 38.6247 68.5831 38.2948C68.4431 37.2615 68.0665 36.3182 67.4531 35.4648" stroke="#FCF6E9" stroke-width="2"/>
<path d="M67.4531 35.465C68.1531 34.4717 68.2098 33.4484 67.6231 32.395" stroke="#E69891" stroke-width="2"/>
<path d="M67.6236 32.3949C67.5303 29.9216 66.8069 27.6616 65.4536 25.6149C64.1636 23.6649 56.6836 19.4649 59.1536 16.7349C59.259 16.6171 59.3366 16.4814 59.3801 16.339C59.4235 16.1965 59.4316 16.0512 59.4036 15.9149C58.9103 13.4883 59.0436 11.1083 59.8036 8.77493C60.5436 6.50493 60.3236 4.63494 57.8036 4.06494C57.6587 4.03071 57.5244 3.96074 57.4128 3.86127C57.3011 3.7618 57.2155 3.63594 57.1636 3.49494C56.1236 0.604936 53.8536 0.584935 51.2436 1.63494C45.3836 3.99494 39.3636 5.8916 33.1836 7.32494" stroke="#FCF6E9" stroke-width="2"/>
<path d="M67.6219 32.3953C63.5819 30.7553 62.2453 31.6853 63.6119 35.1853C63.671 35.3404 63.7613 35.4789 63.8757 35.5899C63.9902 35.7009 64.1258 35.7814 64.2719 35.8253C65.3453 36.1453 66.4053 36.0253 67.4519 35.4653" stroke="#E49187" stroke-width="2"/>
<path d="M68.6931 71.125C67.7197 71.145 67.1764 71.535 67.0631 72.295C67.0114 72.6488 66.8686 72.9452 66.6631 73.125C66.4631 73.295 61.363 76.955 64.923 76.115" stroke="#E7AB9D" stroke-width="2"/>
<path d="M32.7444 76.175C36.2144 73.915 29.1244 73.095 31.5344 76.215" stroke="#E5988E" stroke-width="2"/>
<path d="M1.99219 29.5051C3.23219 29.2985 4.15552 28.6818 4.76218 27.6552C4.84446 27.5163 4.89751 27.3614 4.91814 27.1998C4.93876 27.0383 4.92653 26.8734 4.88219 26.7151C4.54219 25.4485 3.72885 24.8718 2.44218 24.9852" stroke="#E5988E" stroke-width="2"/>
<path d="M28.3438 8.3352C29.8238 10.4152 34.4137 10.1352 33.1837 7.3252" stroke="#D78D84" stroke-width="2"/>
<path d="M51.3419 19.2226C51.971 19.478 52.7051 19.4008 53.3827 19.0081C54.0603 18.6153 54.626 17.9391 54.9553 17.1282C55.2846 16.3173 55.3504 15.4381 55.1385 14.6841C54.9265 13.9301 54.454 13.363 53.8249 13.1076C53.1958 12.8521 52.4617 12.9293 51.7841 13.3221C51.1065 13.7149 50.5408 14.3911 50.2115 15.202C49.8822 16.0129 49.8164 16.892 50.0284 17.646C50.2404 18.4 50.7128 18.9671 51.3419 19.2226Z" stroke="#EDA093" stroke-width="2"/>
<path d="M40.1148 19.3767C40.6482 19.2711 41.1077 18.9073 41.3923 18.3653C41.6769 17.8234 41.7633 17.1477 41.6324 16.4869C41.5676 16.1596 41.4514 15.8459 41.2905 15.5636C41.1296 15.2813 40.9271 15.036 40.6945 14.8416C40.462 14.6472 40.2039 14.5076 39.9351 14.4307C39.6664 14.3538 39.3921 14.3411 39.128 14.3935C38.5947 14.4991 38.1352 14.8628 37.8506 15.4048C37.566 15.9467 37.4796 16.6224 37.6104 17.2833C37.6752 17.6105 37.7914 17.9242 37.9523 18.2065C38.1132 18.4888 38.3158 18.7341 38.5483 18.9285C38.7809 19.1229 39.0389 19.2625 39.3077 19.3394C39.5765 19.4163 39.8507 19.429 40.1148 19.3767Z" stroke="#E5988E" stroke-width="2"/>
<path d="M16.6047 16.0951C15.758 15.8617 14.9514 15.8717 14.1847 16.1251C14.0325 16.1736 13.901 16.2843 13.8105 16.4398C13.7201 16.5954 13.6758 16.7871 13.6847 16.9851C13.838 20.8051 15.1214 21.2951 17.5347 18.4551C18.5014 17.3217 18.1914 16.5351 16.6047 16.0951Z" stroke="#E49187" stroke-width="2"/>
<path d="M27.2132 24.1551C24.7799 24.2151 23.9532 25.4751 24.7332 27.9351C24.7595 28.017 24.7985 28.094 24.848 28.1616C24.8975 28.2291 24.9565 28.286 25.0216 28.3287C25.0867 28.3715 25.1566 28.3994 25.2273 28.4108C25.2979 28.4222 25.3679 28.4169 25.4332 28.3951C26.6599 27.9551 27.6399 27.1718 28.3732 26.0451C29.2132 24.7451 28.8266 24.1151 27.2132 24.1551Z" stroke="#E49187" stroke-width="2"/>
<path d="M45.4832 29.455C44.6432 28.5817 44.0332 28.8116 43.6532 30.145C43.0465 32.305 43.8198 33.425 45.9731 33.505C46.1679 33.5132 46.3573 33.4603 46.501 33.3577C46.6448 33.255 46.7316 33.1106 46.7431 32.955C46.8498 31.6017 46.4298 30.435 45.4832 29.455Z" stroke="#E5988E" stroke-width="2"/>
<path d="M36.7944 31.7951C36.7944 31.3231 36.6068 30.8703 36.273 30.5365C35.9392 30.2027 35.4865 30.0151 35.0144 30.0151C34.5423 30.0151 34.0895 30.2027 33.7557 30.5365C33.4219 30.8703 33.2344 31.3231 33.2344 31.7951C33.2344 32.2672 33.4219 32.72 33.7557 33.0538C34.0895 33.3876 34.5423 33.5751 35.0144 33.5751C35.4865 33.5751 35.9392 33.3876 36.273 33.0538C36.6068 32.72 36.7944 32.2672 36.7944 31.7951Z" stroke="#E49187" stroke-width="2"/>
<path d="M11.1454 38.5693C11.3352 38.5032 11.5038 38.3826 11.6418 38.2143C11.7797 38.046 11.8843 37.8333 11.9495 37.5884C12.0146 37.3435 12.0391 37.0711 12.0215 36.7869C12.004 36.5026 11.9447 36.2121 11.8471 35.9318C11.65 35.3658 11.3087 34.8759 10.8984 34.57C10.488 34.2642 10.0422 34.1673 9.659 34.3007C9.46924 34.3668 9.30058 34.4874 9.16262 34.6557C9.02466 34.824 8.92011 35.0367 8.85495 35.2816C8.78979 35.5265 8.76529 35.7989 8.78286 36.0831C8.80042 36.3674 8.8597 36.6579 8.95731 36.9382C9.15443 37.5042 9.49569 37.9941 9.90604 38.3C10.3164 38.6059 10.7622 38.7027 11.1454 38.5693Z" stroke="#E49187" stroke-width="2"/>
<path d="M26.4822 41.7253C26.5641 41.5552 26.6097 41.369 26.6153 41.1816C26.6209 40.9943 26.5863 40.8111 26.5143 40.6467C26.4424 40.4824 26.335 40.3414 26.2009 40.2352C26.0668 40.129 25.9097 40.0606 25.7422 40.0353C21.8222 39.442 20.7722 40.7986 22.5922 44.1053C22.6781 44.2612 22.7941 44.3991 22.9318 44.5087C23.0695 44.6184 23.2254 44.6972 23.3882 44.7393C23.551 44.7814 23.7166 44.7859 23.873 44.7523C24.0294 44.7188 24.1726 44.6481 24.2922 44.5453C25.2388 43.732 25.9688 42.792 26.4822 41.7253Z" stroke="#EDA093" stroke-width="2"/>
<path d="M41.7329 45.365C41.9268 45.2948 42.0981 45.1681 42.237 44.9923C42.3759 44.8164 42.4797 44.5947 42.5425 44.3399C42.6053 44.0851 42.6259 43.8021 42.603 43.5072C42.5802 43.2122 42.5143 42.911 42.4093 42.6209C42.3043 42.3307 42.1621 42.0571 41.9908 41.8159C41.8196 41.5747 41.6226 41.3704 41.4113 41.2149C41.1999 41.0593 40.9783 40.9554 40.7589 40.9092C40.5396 40.863 40.327 40.8754 40.1331 40.9456C39.9392 41.0157 39.7679 41.1424 39.629 41.3183C39.4901 41.4941 39.3863 41.7158 39.3235 41.9706C39.2607 42.2254 39.2401 42.5084 39.263 42.8033C39.2858 43.0983 39.3516 43.3995 39.4567 43.6897C39.5617 43.9798 39.7039 44.2534 39.8752 44.4946C40.0464 44.7359 40.2433 44.9401 40.4547 45.0957C40.6661 45.2512 40.8877 45.3551 41.1071 45.4013C41.3264 45.4475 41.539 45.4351 41.7329 45.365Z" stroke="#E49187" stroke-width="2"/>
<path d="M56.047 50.2032C56.2698 50.0998 56.4468 49.9036 56.5679 49.6257C56.6891 49.3479 56.7521 48.9938 56.7532 48.5838C56.7543 48.1738 56.6936 47.7158 56.5745 47.236C56.4554 46.7563 56.2803 46.2641 56.0591 45.7876C55.6125 44.8254 55.0054 43.9855 54.3715 43.4527C53.7375 42.92 53.1287 42.738 52.6788 42.9467C52.4561 43.0501 52.2791 43.2463 52.1579 43.5242C52.0367 43.802 51.9738 44.1561 51.9727 44.5661C51.9715 44.9761 52.0323 45.4341 52.1513 45.9138C52.2704 46.3936 52.4456 46.8858 52.6667 47.3622C53.1134 48.3245 53.7204 49.1644 54.3544 49.6972C54.9883 50.2299 55.5972 50.4119 56.047 50.2032Z" stroke="#EDA093" stroke-width="2"/>
<path d="M67.8881 53.787C68.3582 53.8843 68.8791 53.6393 69.3362 53.1057C69.7934 52.5722 70.1493 51.7939 70.3256 50.9421C70.413 50.5203 70.4536 50.0931 70.4453 49.685C70.4369 49.2769 70.3797 48.8958 70.2768 48.5634C70.174 48.2311 70.0276 47.954 69.846 47.7481C69.6644 47.5422 69.4511 47.4114 69.2183 47.3632C68.7483 47.2659 68.2274 47.5109 67.7703 48.0444C67.3132 48.578 66.9572 49.3562 66.7808 50.2081C66.6935 50.6299 66.6529 51.057 66.6612 51.4652C66.6696 51.8733 66.7268 52.2544 66.8297 52.5867C66.9325 52.9191 67.0789 53.1961 67.2605 53.4021C67.4421 53.608 67.6554 53.7388 67.8881 53.787Z" stroke="#E49187" stroke-width="2"/>
<path d="M17.6638 50.7926C17.7418 50.8706 17.8405 50.9264 17.9541 50.9569C18.0677 50.9874 18.1942 50.9919 18.3261 50.9703C18.4581 50.9486 18.5931 50.9012 18.7233 50.8306C18.8535 50.7601 18.9765 50.6679 19.0851 50.5592C19.1938 50.4506 19.286 50.3277 19.3565 50.1974C19.427 50.0672 19.4745 49.9322 19.4961 49.8003C19.5178 49.6683 19.5133 49.5419 19.4828 49.4282C19.4523 49.3146 19.3964 49.2159 19.3184 49.1379C19.2404 49.0599 19.1418 49.0041 19.0282 48.9736C18.9145 48.9431 18.7881 48.9386 18.6561 48.9602C18.5241 48.9819 18.3892 49.0293 18.259 49.0999C18.1287 49.1704 18.0058 49.2626 17.8971 49.3713C17.7885 49.4799 17.6963 49.6028 17.6257 49.7331C17.5552 49.8633 17.5078 49.9983 17.4861 50.1302C17.4644 50.2622 17.469 50.3886 17.4995 50.5023C17.53 50.6159 17.5858 50.7146 17.6638 50.7926Z" stroke="#FCC4BE" stroke-width="2"/>
<path d="M10.8895 57.8004C11.2907 57.9117 11.7253 57.8387 12.0978 57.5976C12.4702 57.3564 12.7499 56.9668 12.8754 56.5144C12.9375 56.2905 12.9599 56.0578 12.9412 55.8298C12.9226 55.6018 12.8633 55.3828 12.7667 55.1855C12.6702 54.9881 12.5382 54.8163 12.3784 54.6796C12.2186 54.543 12.0341 54.4443 11.8355 54.3892C11.4342 54.278 10.9996 54.3509 10.6272 54.5921C10.2547 54.8333 9.97503 55.2229 9.84957 55.6752C9.78745 55.8992 9.76507 56.1319 9.78371 56.3599C9.80235 56.5879 9.86165 56.8068 9.95821 57.0042C10.0548 57.2015 10.1867 57.3734 10.3465 57.51C10.5063 57.6467 10.6908 57.7453 10.8895 57.8004Z" stroke="#EDA093" stroke-width="2"/>
<path d="M40.102 61.7146C40.3024 61.6356 40.4776 61.4985 40.6176 61.311C40.7576 61.1236 40.8597 60.8894 40.918 60.6219C40.9763 60.3544 40.9897 60.0588 40.9575 59.7521C40.9252 59.4453 40.8479 59.1333 40.73 58.834C40.4918 58.2294 40.1027 57.7129 39.6481 57.3982C39.1936 57.0834 38.7109 56.9961 38.3062 57.1556C38.1058 57.2345 37.9306 57.3716 37.7906 57.5591C37.6506 57.7466 37.5485 57.9807 37.4902 58.2482C37.4319 58.5157 37.4185 58.8113 37.4507 59.1181C37.483 59.4248 37.5603 59.7368 37.6782 60.0362C37.9163 60.6407 38.3055 61.1572 38.76 61.4719C39.2146 61.7867 39.6973 61.874 40.102 61.7146Z" stroke="#E5988E" stroke-width="2"/>
<path d="M55.9135 60.0452L52.4235 58.8252C51.5502 58.5186 51.2435 58.8452 51.5035 59.8052C51.9735 61.5752 55.2335 65.6552 56.6135 62.0052C56.687 61.8077 56.7272 61.5999 56.7317 61.394C56.7362 61.1881 56.705 60.9881 56.6399 60.8057C56.5747 60.6233 56.477 60.4622 56.3523 60.3316C56.2276 60.2011 56.0785 60.1037 55.9135 60.0452Z" stroke="#EDA093" stroke-width="2"/>
<path d="M30.4272 62.0361C30.5786 61.7653 30.6162 61.4454 30.5317 61.1468C30.4472 60.8482 30.2476 60.5954 29.9767 60.444L29.7498 60.3171C29.4789 60.1658 29.159 60.1282 28.8605 60.2127C28.5619 60.2971 28.3091 60.4968 28.1577 60.7676L25.0354 66.3543C24.884 66.6252 24.8464 66.9451 24.9309 67.2437C25.0154 67.5423 25.215 67.7951 25.4859 67.9464L25.7128 68.0733C25.9837 68.2247 26.3036 68.2623 26.6022 68.1778C26.9007 68.0933 27.1535 67.8937 27.3049 67.6228L30.4272 62.0361Z" stroke="#EDA093" stroke-width="2"/>
<path d="M47.9505 75.3158C47.9967 75.1817 47.9921 75.0316 47.9369 74.8739C47.8816 74.7163 47.7769 74.5544 47.6287 74.3972C47.4805 74.2401 47.2917 74.091 47.073 73.9583C46.8543 73.8256 46.6101 73.712 46.3543 73.6239C46.0986 73.5358 45.8362 73.475 45.5822 73.445C45.3282 73.4149 45.0876 73.4162 44.8741 73.4487C44.6605 73.4813 44.4783 73.5445 44.3378 73.6346C44.1972 73.7248 44.1011 73.8403 44.0549 73.9744C44.0087 74.1085 44.0134 74.2586 44.0686 74.4162C44.1238 74.5738 44.2285 74.7358 44.3768 74.8929C44.525 75.05 44.7138 75.1992 44.9325 75.3319C45.1511 75.4646 45.3953 75.5782 45.6511 75.6663C45.9069 75.7544 46.1693 75.8152 46.4233 75.8452C46.6773 75.8753 46.9179 75.874 47.1314 75.8414C47.3449 75.8089 47.5272 75.7457 47.6677 75.6555C47.8083 75.5653 47.9044 75.4499 47.9505 75.3158Z" stroke="#E49187" stroke-width="2"/>
<path d="M67.6228 32.3954C63.5828 30.7554 62.2461 31.6854 63.6128 35.1854C63.6718 35.3406 63.7621 35.4791 63.8766 35.5901C63.9911 35.7011 64.1266 35.7816 64.2728 35.8254C65.3461 36.1454 66.4061 36.0254 67.4528 35.4654C68.0661 36.3188 68.4428 37.2621 68.5828 38.2954C68.6349 38.6252 68.7866 38.918 69.0128 39.1254C72.9128 42.6054 75.8128 50.2954 72.3528 54.9054C72.1695 55.1476 71.9035 55.3479 71.5828 55.4854C69.6295 56.3054 68.5161 57.6288 68.2428 59.4554C67.7895 62.5221 67.9395 66.4121 68.6928 71.1254C67.7195 71.1454 67.1761 71.5354 67.0628 72.2954C67.0112 72.6493 66.8683 72.9457 66.6628 73.1254C66.4628 73.2954 61.3628 76.9554 64.9228 76.1154C61.8628 81.4421 57.2195 83.7821 50.9928 83.1354C47.4328 82.7688 44.2961 81.5054 41.5828 79.3454C38.6228 76.9854 36.2328 76.6954 32.7428 76.1754C36.2128 73.9154 29.1228 73.0954 31.5328 76.2154C30.0828 78.7754 23.6928 76.5654 21.9628 75.9454C21.6658 75.8422 21.4101 75.6256 21.2428 75.3354C17.7428 69.4154 11.6928 62.5254 6.6628 57.8154C6.52032 57.6822 6.40543 57.5398 6.32988 57.4028C6.25433 57.2657 6.22084 57.139 6.2328 57.0354C6.4928 54.5154 5.87947 52.2954 4.3928 50.3754C3.63947 49.4088 3.82613 48.9454 4.9528 48.9854C12.7328 49.2554 2.5228 41.0554 2.0628 39.9154C0.669465 36.4488 0.646132 32.9788 1.9928 29.5054C3.2328 29.2988 4.15613 28.6821 4.76279 27.6554C4.84507 27.5166 4.89812 27.3617 4.91875 27.2001C4.93937 27.0385 4.92714 26.8737 4.8828 26.7154C4.5428 25.4488 3.72946 24.8721 2.4428 24.9854C3.43613 22.6721 4.01946 20.2388 4.1928 17.6854C4.21853 17.3484 4.34508 17.039 4.5528 16.8054C7.5328 13.4754 11.9428 13.1954 16.0228 12.2054C16.1711 12.1705 16.3266 12.1676 16.4798 12.1969C16.6329 12.2261 16.7803 12.2869 16.9128 12.3754C20.4628 14.7654 24.5128 12.6954 26.4228 9.36543C26.4945 9.2373 26.5981 9.12591 26.7262 9.0394C26.8542 8.95289 27.0034 8.89345 27.1628 8.86543C27.6495 8.77876 28.0428 8.6021 28.3428 8.33543C29.8228 10.4154 34.4128 10.1354 33.1828 7.32543C39.3628 5.89209 45.3828 3.99542 51.2428 1.63542C53.8528 0.585424 56.1228 0.605424 57.1628 3.49542C57.2147 3.63643 57.3003 3.76229 57.412 3.86176C57.5236 3.96123 57.6579 4.0312 57.8028 4.06542C60.3228 4.63542 60.5428 6.50542 59.8028 8.77542C59.0428 11.1088 58.9095 13.4888 59.4028 15.9154C59.4308 16.0517 59.4227 16.197 59.3793 16.3395C59.3358 16.4819 59.2582 16.6176 59.1528 16.7354C56.6828 19.4654 64.1628 23.6654 65.4528 25.6154C66.8061 27.6621 67.5295 29.9221 67.6228 32.3954ZM51.3413 19.2229C51.9704 19.4784 52.7045 19.4012 53.3821 19.0084C54.0597 18.6156 54.6254 17.9394 54.9547 17.1285C55.284 16.3176 55.3498 15.4385 55.1378 14.6845C54.9259 13.9305 54.4534 13.3634 53.8243 13.1079C53.1952 12.8525 52.4611 12.9297 51.7835 13.3224C51.1059 13.7152 50.5402 14.3914 50.2109 15.2023C49.8816 16.0132 49.8158 16.8924 50.0278 17.6464C50.2397 18.4004 50.7122 18.9675 51.3413 19.2229ZM40.1162 19.377C40.6495 19.2714 41.1091 18.9076 41.3937 18.3657C41.6783 17.8238 41.7646 17.148 41.6338 16.4872C41.569 16.16 41.4528 15.8463 41.2919 15.564C41.131 15.2817 40.9285 15.0364 40.6959 14.842C40.4634 14.6476 40.2053 14.508 39.9365 14.4311C39.6677 14.3542 39.3935 14.3415 39.1294 14.3938C38.5961 14.4994 38.1366 14.8632 37.8519 15.4052C37.5673 15.9471 37.481 16.6228 37.6118 17.2836C37.6766 17.6108 37.7928 17.9245 37.9537 18.2068C38.1146 18.4891 38.3171 18.7345 38.5497 18.9289C38.7823 19.1233 39.0403 19.2629 39.3091 19.3398C39.5778 19.4167 39.8521 19.4293 40.1162 19.377ZM16.6028 16.0954C15.7561 15.8621 14.9495 15.8721 14.1828 16.1254C14.0306 16.174 13.8991 16.2846 13.8086 16.4402C13.7182 16.5958 13.6739 16.7875 13.6828 16.9854C13.8361 20.8054 15.1195 21.2954 17.5328 18.4554C18.4995 17.3221 18.1895 16.5354 16.6028 16.0954ZM27.2128 24.1554C24.7795 24.2154 23.9528 25.4754 24.7328 27.9354C24.7591 28.0173 24.798 28.0943 24.8475 28.1619C24.8971 28.2295 24.9561 28.2863 25.0212 28.3291C25.0863 28.3718 25.1562 28.3997 25.2269 28.4111C25.2975 28.4225 25.3675 28.4172 25.4328 28.3954C26.6595 27.9554 27.6395 27.1721 28.3728 26.0454C29.2128 24.7454 28.8261 24.1154 27.2128 24.1554ZM45.4828 29.4554C44.6428 28.5821 44.0328 28.8121 43.6528 30.1454C43.0461 32.3054 43.8195 33.4254 45.9728 33.5054C46.1676 33.5136 46.3569 33.4608 46.5007 33.3581C46.6444 33.2554 46.7313 33.111 46.7428 32.9554C46.8495 31.6021 46.4295 30.4354 45.4828 29.4554ZM36.7928 31.7954C36.7928 31.3233 36.6053 30.8706 36.2715 30.5368C35.9376 30.203 35.4849 30.0154 35.0128 30.0154C34.5407 30.0154 34.088 30.203 33.7542 30.5368C33.4203 30.8706 33.2328 31.3233 33.2328 31.7954C33.2328 32.2675 33.4203 32.7203 33.7542 33.0541C34.088 33.3879 34.5407 33.5754 35.0128 33.5754C35.4849 33.5754 35.9376 33.3879 36.2715 33.0541C36.6053 32.7203 36.7928 32.2675 36.7928 31.7954ZM11.146 38.5697C11.3358 38.5036 11.5044 38.383 11.6424 38.2147C11.7803 38.0464 11.8849 37.8337 11.95 37.5888C12.0152 37.3439 12.0397 37.0715 12.0221 36.7873C12.0046 36.5031 11.9453 36.2125 11.8477 35.9322C11.6506 35.3662 11.3093 34.8764 10.899 34.5705C10.4886 34.2646 10.0428 34.1677 9.65959 34.3011C9.46984 34.3672 9.30117 34.4878 9.16321 34.6561C9.02525 34.8244 8.9207 35.0371 8.85555 35.282C8.79039 35.5269 8.76589 35.7993 8.78345 36.0835C8.80101 36.3678 8.86029 36.6583 8.9579 36.9386C9.15502 37.5047 9.49629 37.9945 9.90663 38.3004C10.317 38.6063 10.7628 38.7032 11.146 38.5697ZM26.4828 41.7254C26.5648 41.5553 26.6103 41.3691 26.6159 41.1818C26.6215 40.9944 26.5869 40.8112 26.515 40.6469C26.443 40.4825 26.3356 40.3416 26.2015 40.2354C26.0674 40.1292 25.9103 40.0607 25.7428 40.0354C21.8228 39.4421 20.7728 40.7988 22.5928 44.1054C22.6787 44.2614 22.7947 44.3992 22.9324 44.5089C23.0702 44.6185 23.2261 44.6973 23.3889 44.7394C23.5517 44.7816 23.7173 44.786 23.8736 44.7525C24.03 44.7189 24.1732 44.6482 24.2928 44.5454C25.2395 43.7321 25.9695 42.7921 26.4828 41.7254ZM41.7327 45.3651C41.9266 45.295 42.0979 45.1683 42.2368 44.9924C42.3757 44.8166 42.4795 44.5949 42.5423 44.3401C42.6051 44.0852 42.6257 43.8023 42.6028 43.5073C42.58 43.2124 42.5141 42.9112 42.4091 42.621C42.3041 42.3308 42.1619 42.0573 41.9906 41.8161C41.8194 41.5748 41.6225 41.3706 41.4111 41.215C41.1997 41.0595 40.9781 40.9556 40.7587 40.9094C40.5394 40.8632 40.3268 40.8755 40.1329 40.9457C39.939 41.0159 39.7677 41.1425 39.6288 41.3184C39.4899 41.4943 39.3861 41.716 39.3233 41.9708C39.2605 42.2256 39.2399 42.5086 39.2628 42.8035C39.2856 43.0985 39.3515 43.3996 39.4565 43.6898C39.5615 43.98 39.7037 44.2535 39.875 44.4948C40.0462 44.736 40.2431 44.9403 40.4545 45.0958C40.6659 45.2514 40.8875 45.3552 41.1069 45.4014C41.3262 45.4477 41.5388 45.4353 41.7327 45.3651ZM56.0469 50.2036C56.2696 50.1002 56.4467 49.904 56.5678 49.6262C56.689 49.3483 56.7519 48.9943 56.7531 48.5843C56.7542 48.1742 56.6935 47.7163 56.5744 47.2365C56.4553 46.7567 56.2802 46.2646 56.059 45.7881C55.6123 44.8259 55.0053 43.986 54.3714 43.4532C53.7374 42.9204 53.1286 42.7384 52.6787 42.9472C52.4559 43.0506 52.2789 43.2468 52.1578 43.5247C52.0366 43.8025 51.9737 44.1566 51.9725 44.5666C51.9714 44.9766 52.0321 45.4346 52.1512 45.9143C52.2703 46.3941 52.4454 46.8862 52.6666 47.3627C53.1133 48.325 53.7203 49.1649 54.3542 49.6976C54.9882 50.2304 55.597 50.4124 56.0469 50.2036ZM67.8877 53.7873C68.3578 53.8846 68.8787 53.6396 69.3358 53.1061C69.7929 52.5725 70.1488 51.7943 70.3252 50.9424C70.4125 50.5206 70.4532 50.0935 70.4448 49.6853C70.4364 49.2772 70.3792 48.8961 70.2764 48.5638C70.1736 48.2314 70.0272 47.9544 69.8456 47.7484C69.6639 47.5425 69.4507 47.4117 69.2179 47.3635C68.7478 47.2662 68.2269 47.5113 67.7698 48.0448C67.3127 48.5783 66.9568 49.3566 66.7804 50.2084C66.693 50.6302 66.6524 51.0574 66.6608 51.4655C66.6692 51.8736 66.7264 52.2547 66.8292 52.5871C66.932 52.9194 67.0784 53.1965 67.26 53.4024C67.4417 53.6083 67.6549 53.7391 67.8877 53.7873ZM17.6655 50.7927C17.7435 50.8707 17.8421 50.9266 17.9558 50.9571C18.0694 50.9876 18.1958 50.9921 18.3278 50.9704C18.4598 50.9488 18.5947 50.9013 18.725 50.8308C18.8552 50.7603 18.9781 50.6681 19.0868 50.5594C19.1954 50.4508 19.2877 50.3278 19.3582 50.1976C19.4287 50.0674 19.4762 49.9324 19.4978 49.8004C19.5195 49.6684 19.5149 49.542 19.4845 49.4284C19.454 49.3148 19.3981 49.2161 19.3201 49.1381C19.2421 49.0601 19.1435 49.0043 19.0298 48.9738C18.9162 48.9433 18.7898 48.9387 18.6578 48.9604C18.5258 48.9821 18.3908 49.0295 18.2606 49.1C18.1304 49.1706 18.0075 49.2628 17.8988 49.3714C17.7902 49.4801 17.6979 49.603 17.6274 49.7332C17.5569 49.8635 17.5094 49.9984 17.4878 50.1304C17.4661 50.2624 17.4707 50.3888 17.5011 50.5025C17.5316 50.6161 17.5875 50.7147 17.6655 50.7927ZM10.8898 57.801C11.291 57.9123 11.7257 57.8393 12.0981 57.5982C12.4705 57.357 12.7502 56.9674 12.8757 56.515C12.9378 56.291 12.9602 56.0584 12.9415 55.8304C12.9229 55.6023 12.8636 55.3834 12.767 55.1861C12.6705 54.9887 12.5385 54.8168 12.3788 54.6802C12.219 54.5436 12.0345 54.4449 11.8358 54.3898C11.4346 54.2785 10.9999 54.3515 10.6275 54.5927C10.2551 54.8339 9.97536 55.2235 9.8499 55.6758C9.78778 55.8998 9.7654 56.1325 9.78404 56.3605C9.80268 56.5885 9.86198 56.8074 9.95854 57.0048C10.0551 57.2021 10.187 57.374 10.3468 57.5106C10.5066 57.6473 10.6911 57.7459 10.8898 57.801ZM40.1007 61.7149C40.3011 61.636 40.4763 61.4989 40.6163 61.3114C40.7563 61.1239 40.8584 60.8898 40.9167 60.6223C40.975 60.3548 40.9884 60.0592 40.9562 59.7524C40.9239 59.4457 40.8466 59.1337 40.7287 58.8343C40.4905 58.2298 40.1014 57.7133 39.6468 57.3985C39.1923 57.0838 38.7096 56.9965 38.3049 57.1559C38.1045 57.2349 37.9293 57.372 37.7893 57.5594C37.6493 57.7469 37.5472 57.9811 37.4889 58.2486C37.4306 58.5161 37.4172 58.8116 37.4494 59.1184C37.4817 59.4252 37.559 59.7372 37.6769 60.0365C37.915 60.6411 38.3042 61.1575 38.7588 61.4723C39.2133 61.7871 39.696 61.8743 40.1007 61.7149ZM55.9128 60.0454L52.4228 58.8254C51.5495 58.5188 51.2428 58.8454 51.5028 59.8054C51.9728 61.5754 55.2328 65.6554 56.6128 62.0054C56.6863 61.8079 56.7264 61.6001 56.731 61.3942C56.7355 61.1883 56.7043 60.9883 56.6391 60.8059C56.574 60.6235 56.4762 60.4624 56.3515 60.3318C56.2269 60.2013 56.0777 60.1039 55.9128 60.0454ZM30.4287 62.0363C30.5801 61.7655 30.6177 61.4455 30.5332 61.147C30.4487 60.8484 30.2491 60.5956 29.9782 60.4442L29.7513 60.3173C29.4804 60.1659 29.1605 60.1284 28.862 60.2128C28.5634 60.2973 28.3106 60.497 28.1592 60.7678L25.0369 66.3545C24.8855 66.6254 24.8479 66.9453 24.9324 67.2439C25.0169 67.5424 25.2165 67.7952 25.4874 67.9466L25.7143 68.0735C25.9852 68.2249 26.3051 68.2625 26.6037 68.178C26.9022 68.0935 27.155 67.8939 27.3064 67.623L30.4287 62.0363ZM47.9506 75.3161C47.9968 75.182 47.9921 75.0319 47.9369 74.8743C47.8817 74.7167 47.777 74.5547 47.6288 74.3976C47.4805 74.2405 47.2917 74.0913 47.0731 73.9586C46.8544 73.8259 46.6102 73.7123 46.3544 73.6242C46.0986 73.5361 45.8362 73.4753 45.5822 73.4453C45.3283 73.4152 45.0876 73.4165 44.8741 73.4491C44.6606 73.4816 44.4784 73.5448 44.3378 73.635C44.1973 73.7252 44.1012 73.8406 44.055 73.9747C44.0088 74.1088 44.0135 74.259 44.0687 74.4166C44.1239 74.5742 44.2286 74.7362 44.3768 74.8933C44.5251 75.0504 44.7139 75.1995 44.9325 75.3322C45.1512 75.4649 45.3954 75.5786 45.6512 75.6666C45.907 75.7547 46.1694 75.8155 46.4234 75.8456C46.6773 75.8756 46.918 75.8743 47.1315 75.8418C47.345 75.8092 47.5272 75.7461 47.6678 75.6559C47.8083 75.5657 47.9044 75.4502 47.9506 75.3161Z" fill="#FAEFDF"/>
<path d="M33.1837 7.32538C34.4137 10.1354 29.8238 10.4154 28.3438 8.33538C29.4837 6.46205 31.0971 6.12538 33.1837 7.32538Z" fill="#B42A28"/>
<path d="M50.2099 15.2021C49.5243 16.8907 50.0303 18.6908 51.3403 19.2228C52.6503 19.7547 54.2681 18.817 54.9538 17.1283C55.6395 15.4397 55.1334 13.6396 53.8234 13.1077C52.5134 12.5757 50.8956 13.5134 50.2099 15.2021Z" fill="#DF5047"/>
<path d="M37.6121 17.2836C37.8845 18.6597 39.0058 19.5969 40.1164 19.377C41.227 19.1571 41.9065 17.8633 41.634 16.4872C41.3615 15.1111 40.2403 14.1739 39.1297 14.3938C38.019 14.6137 37.3396 15.9075 37.6121 17.2836Z" fill="#D0413D"/>
<path d="M16.6008 16.0955C18.1875 16.5355 18.4975 17.3222 17.5308 18.4555C15.1175 21.2955 13.8341 20.8055 13.6808 16.9855C13.6719 16.7876 13.7162 16.5959 13.8066 16.4403C13.8971 16.2847 14.0286 16.1741 14.1808 16.1255C14.9475 15.8722 15.7541 15.8622 16.6008 16.0955Z" fill="#CE322F"/>
<path d="M27.2132 24.1551C28.8266 24.1151 29.2132 24.7451 28.3732 26.0451C27.6399 27.1718 26.6599 27.9551 25.4332 28.3951C25.3679 28.4169 25.2979 28.4222 25.2273 28.4108C25.1566 28.3994 25.0867 28.3715 25.0216 28.3287C24.9565 28.286 24.8975 28.2291 24.848 28.1616C24.7985 28.094 24.7595 28.017 24.7332 27.9351C23.9532 25.4751 24.7799 24.2151 27.2132 24.1551Z" fill="#CE322F"/>
<path d="M2.44289 24.9852C3.72956 24.8718 4.5429 25.4485 4.88289 26.7151C4.92724 26.8734 4.93947 27.0383 4.91884 27.1998C4.89822 27.3614 4.84516 27.5163 4.76289 27.6552C4.15623 28.6818 3.2329 29.2985 1.9929 29.5051C0.632896 27.8118 0.782892 26.3052 2.44289 24.9852Z" fill="#D0413D"/>
<path d="M45.4832 29.4555C46.4298 30.4355 46.8498 31.6021 46.7431 32.9555C46.7316 33.111 46.6448 33.2555 46.501 33.3581C46.3573 33.4608 46.1679 33.5136 45.9731 33.5055C43.8198 33.4255 43.0465 32.3055 43.6532 30.1455C44.0332 28.8121 44.6432 28.5821 45.4832 29.4555Z" fill="#D0413D"/>
<path d="M35.0105 33.5751C35.9935 33.5751 36.7905 32.7782 36.7905 31.7951C36.7905 30.8121 35.9935 30.0151 35.0105 30.0151C34.0274 30.0151 33.2305 30.8121 33.2305 31.7951C33.2305 32.7782 34.0274 33.5751 35.0105 33.5751Z" fill="#CE322F"/>
<path d="M67.6219 32.3953C68.2086 33.4486 68.1519 34.4719 67.4519 35.4653C66.4053 36.0253 65.3453 36.1453 64.2719 35.8253C64.1258 35.7814 63.9902 35.7009 63.8757 35.5899C63.7613 35.4789 63.671 35.3404 63.6119 35.1853C62.2453 31.6853 63.5819 30.7553 67.6219 32.3953Z" fill="#CE322F"/>
<path d="M8.95892 36.9385C9.3694 38.1172 10.3491 38.8475 11.1471 38.5696C11.945 38.2917 12.2592 37.1109 11.8487 35.9321C11.4382 34.7534 10.4586 34.0231 9.66057 34.301C8.86258 34.5789 8.54844 35.7597 8.95892 36.9385Z" fill="#CE322F"/>
<path d="M26.4822 41.7253C25.9688 42.792 25.2388 43.732 24.2922 44.5453C24.1726 44.6481 24.0294 44.7188 23.873 44.7523C23.7166 44.7859 23.551 44.7814 23.3882 44.7393C23.2254 44.6972 23.0695 44.6184 22.9318 44.5087C22.7941 44.3991 22.6781 44.2612 22.5922 44.1053C20.7722 40.7986 21.8222 39.442 25.7422 40.0353C25.9097 40.0606 26.0668 40.129 26.2009 40.2352C26.335 40.3414 26.4424 40.4824 26.5143 40.6467C26.5863 40.8111 26.6209 40.9943 26.6153 41.1816C26.6097 41.369 26.5641 41.5552 26.4822 41.7253Z" fill="#DF5047"/>
<path d="M39.4568 43.6896C39.8985 44.91 40.9176 45.66 41.7329 45.3649C42.5482 45.0697 42.851 43.8412 42.4093 42.6208C41.9675 41.4004 40.9484 40.6504 40.1331 40.9455C39.3178 41.2407 39.015 42.4692 39.4568 43.6896Z" fill="#CE322F"/>
<path d="M52.6668 47.3625C53.5969 49.3663 55.1103 50.6382 56.0471 50.2034C56.9839 49.7685 56.9893 47.7916 56.0591 45.7878C55.129 43.7841 53.6156 42.5122 52.6788 42.947C51.7421 43.3818 51.7367 45.3587 52.6668 47.3625Z" fill="#DF5047"/>
<path d="M66.7784 50.2082C66.411 51.9821 66.9067 53.5844 67.8856 53.7871C68.8645 53.9898 69.9558 52.7162 70.3231 50.9423C70.6905 49.1685 70.1948 47.5661 69.2159 47.3634C68.237 47.1607 67.1457 48.4344 66.7784 50.2082Z" fill="#CE322F"/>
<path d="M17.8988 49.3713C17.4419 49.8282 17.3374 50.4646 17.6655 50.7926C17.9935 51.1206 18.6298 51.0162 19.0867 50.5592C19.5437 50.1023 19.6481 49.466 19.3201 49.138C18.9921 48.8099 18.3557 48.9144 17.8988 49.3713Z" fill="#FD999C"/>
<path d="M9.84884 55.6756C9.58761 56.6176 10.0532 57.5691 10.8887 57.8008C11.7243 58.0325 12.6134 57.4567 12.8746 56.5147C13.1359 55.5727 12.6703 54.6212 11.8348 54.3895C10.9992 54.1578 10.1101 54.7336 9.84884 55.6756Z" fill="#DF5047"/>
<path d="M37.6782 60.0363C38.1741 61.2953 39.2593 62.0468 40.102 61.7148C40.9447 61.3828 41.2259 60.0932 40.73 58.8342C40.234 57.5753 39.1489 56.8238 38.3061 57.1557C37.4634 57.4877 37.1823 58.7774 37.6782 60.0363Z" fill="#D0413D"/>
<path d="M55.9135 60.0452C56.0785 60.1037 56.2276 60.2011 56.3523 60.3316C56.477 60.4622 56.5747 60.6233 56.6399 60.8057C56.705 60.9881 56.7362 61.1881 56.7317 61.394C56.7272 61.5999 56.687 61.8077 56.6135 62.0052C55.2335 65.6552 51.9735 61.5752 51.5035 59.8052C51.2435 58.8452 51.5502 58.5186 52.4235 58.8252L55.9135 60.0452Z" fill="#DF5047"/>
<path d="M29.9787 60.4442L29.7518 60.3174C29.1877 60.0021 28.4749 60.2038 28.1597 60.7679L25.0374 66.3546C24.7221 66.9187 24.9238 67.6315 25.4879 67.9467L25.7149 68.0736C26.2789 68.3888 26.9917 68.1871 27.307 67.623L30.4293 62.0363C30.7445 61.4723 30.5428 60.7595 29.9787 60.4442Z" fill="#DF5047"/>
<path d="M68.6931 71.1255C69.5331 71.9788 69.8897 72.9888 69.7631 74.1555C69.7479 74.2889 69.6859 74.4179 69.5845 74.5263C69.4832 74.6347 69.3471 74.7179 69.1931 74.7655L64.923 76.1155C61.363 76.9555 66.4631 73.2955 66.6631 73.1255C66.8686 72.9457 67.0114 72.6493 67.0631 72.2955C67.1764 71.5355 67.7197 71.1455 68.6931 71.1255Z" fill="#D3665A"/>
<path d="M45.6508 75.6666C46.7265 76.037 47.756 75.8801 47.9502 75.3161C48.1444 74.7521 47.4297 73.9947 46.354 73.6243C45.2783 73.2539 44.2488 73.4108 44.0546 73.9748C43.8604 74.5387 44.5751 75.2962 45.6508 75.6666Z" fill="#CE322F"/>
<path d="M32.7405 76.1755L31.5305 76.2155C29.1205 73.0955 36.2105 73.9155 32.7405 76.1755Z" fill="#D0413D"/>
</svg>
