<svg width="78" height="90" viewBox="0 0 78 90" fill="none" xmlns="http://www.w3.org/2000/svg">
<path d="M30.5039 70.0225C31.0972 69.4825 31.7573 69.1058 32.4839 68.8925C32.7555 68.8087 33.0885 68.8335 33.424 68.9625L50.7139 75.4825" stroke="#9DA2B6" stroke-width="2"/>
<path d="M50.7143 75.4831L73.5343 85.5731C73.8601 85.7165 74.1919 85.7654 74.4843 85.7131C76.3443 85.3465 76.8409 84.1898 75.9743 82.2431C70.6276 70.1898 63.3843 58.2465 54.2443 46.4131C54.1517 46.2923 54.1027 46.1416 54.1045 45.9832C54.1063 45.8248 54.1588 45.6671 54.2542 45.5331L74.1842 17.7531C76.2576 14.8665 75.5376 13.7298 72.0243 14.3431C66.9576 15.2165 62.1642 16.6431 57.6442 18.6231C49.3976 22.2298 40.8309 25.9731 31.9442 29.8531C31.6469 29.9846 31.321 30.038 30.9972 30.0082C30.6735 29.9785 30.3627 29.8666 30.0943 29.6831C19.6943 22.4931 12.3243 12.1831 4.61428 2.18314C3.49428 0.736474 2.57762 0.616474 1.86428 1.82314C1.7882 1.94703 1.73839 2.09123 1.7178 2.24743C1.6972 2.40362 1.70622 2.56871 1.74429 2.73314C6.25429 22.1531 9.36427 35.9231 11.3543 52.2331C12.7443 63.5931 7.79428 75.1032 5.30428 85.9132C5.01428 87.1832 5.64427 89.1431 7.28427 88.1231C14.7376 83.4698 22.4776 77.4365 30.5042 70.0231" stroke="#9197AF" stroke-width="2"/>
<path d="M50.7133 75.4832L50.7433 72.7732C50.7438 72.7198 50.7299 72.6677 50.7029 72.6209C50.676 72.5741 50.6366 72.534 50.588 72.5039C50.5393 72.4737 50.4828 72.4543 50.4229 72.4473C50.363 72.4402 50.3016 72.4457 50.2433 72.4632C49.3833 72.7232 48.7566 72.4132 48.3633 71.5332" stroke="#2F3A66" stroke-width="2"/>
<path d="M48.3633 71.5323C49.3833 70.8057 49.8866 70.0123 49.8732 69.1523" stroke="#424C79" stroke-width="2"/>
<path d="M49.875 69.1534C50.955 67.9868 51.2217 66.5268 50.675 64.7734" stroke="#2F3A66" stroke-width="2"/>
<path d="M50.6719 64.7734C51.2719 64.1268 51.3552 63.3768 50.9219 62.5234" stroke="#424C79" stroke-width="2"/>
<path d="M50.9219 62.5225L52.2119 60.8125" stroke="#2F3A66" stroke-width="2"/>
<path d="M52.2119 60.8134C53.9419 59.7734 51.0119 57.7934 50.2819 57.1134C50.1872 57.023 50.0607 56.9713 49.9251 56.9676C49.7895 56.964 49.6536 57.0086 49.5419 57.0934C48.7219 57.7134 48.0152 57.5234 47.4219 56.5234" stroke="#4C5580" stroke-width="2"/>
<path d="M47.424 56.5234C47.724 55.5368 47.5006 54.7868 46.7539 54.2734" stroke="#2D3866" stroke-width="2"/>
<path d="M46.7548 54.2736C46.2348 53.2636 47.1848 51.5736 46.9048 51.3536C46.8676 51.3256 46.8214 51.3132 46.7695 51.3171C46.7175 51.3211 46.6611 51.3413 46.6041 51.3765C46.547 51.4117 46.4907 51.461 46.439 51.5209C46.3874 51.5808 46.3416 51.65 46.3049 51.7236C45.7782 52.7903 44.9148 53.4603 43.7148 53.7337" stroke="#4C5580" stroke-width="2"/>
<path d="M43.7148 53.7334C42.9482 53.1134 42.1115 52.9167 41.2048 53.1434C41.1459 53.1556 41.0878 53.1565 41.0356 53.1461C40.9833 53.1356 40.9385 53.1141 40.9048 53.0834L40.7748 52.9734C40.6693 52.8791 40.5652 52.7962 40.481 52.7394C40.3967 52.6827 40.3379 52.6557 40.3148 52.6634L37.2148 53.7334" stroke="#2D3866" stroke-width="2"/>
<path d="M37.2139 53.7328C37.0073 53.2128 36.6039 53.0594 36.0039 53.2728" stroke="#424C79" stroke-width="2"/>
<path d="M36.0048 53.2737C35.9915 52.4404 35.6448 52.0371 34.9648 52.0637" stroke="#2D3866" stroke-width="2"/>
<path d="M34.9648 52.0625L32.4648 50.3125" stroke="#4C5580" stroke-width="2"/>
<path d="M32.4639 50.3124C31.0306 49.7057 30.2939 50.109 30.2539 51.5224" stroke="#2D3866" stroke-width="2"/>
<path d="M30.2531 51.5234L28.6131 53.3634C28.5005 53.4879 28.4291 53.6405 28.4109 53.7954C28.3926 53.9502 28.4287 54.0979 28.5131 54.2134C29.0998 55.0068 29.2931 55.8868 29.0931 56.8534C29.079 56.9193 29.0743 56.9866 29.0793 57.0513C29.0843 57.116 29.0989 57.1768 29.1223 57.23C29.1456 57.2832 29.1772 57.3278 29.2152 57.3611C29.2531 57.3943 29.2966 57.4155 29.3431 57.4234C30.4564 57.5901 31.2464 58.3034 31.7131 59.5634" stroke="#424C79" stroke-width="2"/>
<path d="M31.7148 59.5625L30.9648 60.4825" stroke="#2F3A66" stroke-width="2"/>
<path d="M30.9619 60.4824L29.1719 62.5224" stroke="#424C79" stroke-width="2"/>
<path d="M29.1754 62.5236C26.6354 63.5236 27.1454 59.7436 25.8254 60.9736C25.7442 61.0517 25.6898 61.1673 25.6686 61.3071C25.6474 61.4468 25.6601 61.605 25.7054 61.7636L25.9854 62.7636C26.0183 62.8883 25.9854 63.0324 25.8922 63.1712C25.7991 63.3099 25.6517 63.4345 25.4754 63.5236C24.2754 64.1369 23.6054 65.1136 23.4654 66.4536C23.4577 66.5108 23.5344 66.6029 23.6814 66.7132C23.8283 66.8234 24.0356 66.9442 24.2654 67.0536L30.5053 70.0236" stroke="#2F3A66" stroke-width="2"/>
<path d="M50.9242 62.5234C49.6509 63.2034 49.5676 63.9534 50.6742 64.7734" stroke="#4E5780" stroke-width="2"/>
<path d="M49.8735 69.1529C48.8602 68.9262 48.4735 68.4795 48.7135 67.8128C48.7659 67.6703 48.7864 67.5252 48.772 67.399C48.7576 67.2729 48.709 67.1725 48.6335 67.1128C48.0135 66.6128 47.4302 66.6395 46.8835 67.1928C46.8391 67.2375 46.8095 67.2954 46.7966 67.3632C46.7836 67.431 46.7875 67.5072 46.808 67.5874C46.8285 67.6676 46.8652 67.7502 46.916 67.8301C46.9668 67.9101 47.0306 67.9858 47.1036 68.0529C48.0902 68.9462 48.5102 70.1062 48.3636 71.5328" stroke="#4E5780" stroke-width="2"/>
<path d="M29.1719 62.5227C29.1852 63.2627 29.5185 63.626 30.1719 63.6127C30.315 63.6063 30.4546 63.645 30.5662 63.7218C30.6777 63.7986 30.7541 63.9087 30.7819 64.0327C31.0319 65.1227 32.6619 67.7327 33.3019 65.6227C33.3474 65.4717 33.351 65.3152 33.312 65.1852C33.273 65.0551 33.1943 64.9612 33.0919 64.9227C31.4252 64.3227 30.9418 63.2893 31.6418 61.8227C31.7383 61.618 31.8045 61.4168 31.8314 61.2467C31.8582 61.0766 31.8444 60.946 31.7919 60.8727C31.6052 60.606 31.3285 60.476 30.9619 60.4827" stroke="#4E5780" stroke-width="2"/>
<path d="M32.4617 50.3125C32.0217 52.6192 32.855 53.2025 34.9617 52.0625" stroke="#565D86" stroke-width="2"/>
<path d="M36.0018 53.2734C34.8751 53.9134 33.9851 54.7534 33.3318 55.7934C33.2475 55.9272 33.2011 56.0767 33.1993 56.2205C33.1975 56.3642 33.2404 56.4948 33.3218 56.5934C34.7818 58.3201 35.3251 58.1568 34.9518 56.1034C34.9213 55.927 34.9127 55.7606 34.9268 55.6204C34.9408 55.4802 34.977 55.371 35.0318 55.3034C35.5518 54.6501 36.2785 54.1268 37.2118 53.7334" stroke="#4C5580" stroke-width="2"/>
<path d="M43.713 53.7324C43.1797 54.1058 43.0463 54.4424 43.313 54.7424C43.3671 54.8043 43.4785 54.8442 43.6322 54.8567C43.7859 54.8692 43.9746 54.8538 44.1731 54.8124L46.753 54.2724" stroke="#565D86" stroke-width="2"/>
<path d="M47.4249 56.5234L44.9949 58.8534C44.9027 58.9412 44.7855 58.9961 44.6633 59.0089C44.5411 59.0217 44.4215 58.9915 44.3248 58.9234C40.9715 56.4901 40.7515 56.9768 43.6649 60.3834C43.7318 60.4645 43.7639 60.5634 43.7584 60.6709C43.7528 60.7784 43.7097 60.891 43.6331 60.9986C43.5564 61.1061 43.4486 61.205 43.3196 61.2863C43.1906 61.3675 43.0445 61.4284 42.8948 61.4634L39.2148 62.3134" stroke="#565D86" stroke-width="2"/>
<path d="M39.2148 62.3124L34.7148 61.2324" stroke="#39436D" stroke-width="2"/>
<path d="M34.712 61.2334L32.332 57.5034C32.27 57.4066 32.1773 57.3317 32.0664 57.2888C31.9555 57.2458 31.8318 57.237 31.712 57.2634C30.9787 57.4301 30.4187 57.2468 30.032 56.7134C29.8895 56.5155 29.7772 56.3173 29.7108 56.1469C29.6444 55.9765 29.6274 55.8424 29.662 55.7634C29.9954 54.9968 30.0221 54.2501 29.7421 53.5234C29.7006 53.4159 29.7268 53.2752 29.8162 53.1256C29.9056 52.976 30.0527 52.8267 30.232 52.7034C30.812 52.3034 30.8187 51.9101 30.252 51.5234" stroke="#4C5580" stroke-width="2"/>
<path d="M52.2128 60.8124C50.4528 58.1391 48.1794 57.6491 45.3928 59.3424C45.2319 59.4433 45.0945 59.5587 44.9894 59.681C44.8843 59.8033 44.8139 59.9298 44.7828 60.0524C44.4628 61.4257 43.5695 62.1157 42.1028 62.1224C42.1046 62.1137 42.0842 62.1249 42.0429 62.1555C42.0016 62.186 41.9401 62.2352 41.862 62.3003C41.7839 62.3653 41.6908 62.445 41.588 62.5346C41.4851 62.6242 41.3746 62.722 41.2628 62.8224L38.4728 65.2824C38.3561 65.3841 38.2048 65.4537 38.0322 65.485C37.8597 65.5164 37.6711 65.5086 37.4828 65.4624C35.4428 64.9424 38.7828 63.0924 39.2128 62.3124" stroke="#586087" stroke-width="2"/>
<path d="M34.7148 61.2325C32.8648 62.2025 33.3548 59.9925 31.7148 59.5625" stroke="#4E5780" stroke-width="2"/>
<path d="M19.9952 29.5531C22.6052 24.5631 18.0351 30.2131 17.6851 30.9731C17.6602 31.0274 17.6492 31.0871 17.6531 31.1467C17.657 31.2063 17.6757 31.264 17.7074 31.3146C17.7392 31.3651 17.783 31.407 17.8349 31.4365C17.8869 31.4659 17.9454 31.4819 18.0051 31.4831C19.5651 31.5131 19.4252 30.6531 19.9952 29.5531Z" stroke="#35406C" stroke-width="2"/>
<path d="M49.6502 30.3783C49.7062 30.261 49.7131 30.1216 49.6705 29.9682C49.6279 29.8148 49.5366 29.6503 49.4018 29.4842C49.2671 29.3181 49.0915 29.1535 48.8851 29C48.6787 28.8464 48.4456 28.7068 48.1991 28.5892C47.9525 28.4717 47.6973 28.3783 47.4481 28.3146C47.1989 28.2508 46.9606 28.218 46.7467 28.2178C46.5328 28.2176 46.3475 28.2501 46.2014 28.3136C46.0554 28.377 45.9514 28.47 45.8955 28.5873C45.8395 28.7047 45.8326 28.844 45.8752 28.9975C45.9178 29.1509 46.0091 29.3154 46.1439 29.4815C46.2786 29.6476 46.4542 29.8122 46.6606 29.9657C46.867 30.1193 47.1001 30.2589 47.3466 30.3765C47.5932 30.494 47.8484 30.5874 48.0976 30.6511C48.3468 30.7148 48.5851 30.7477 48.799 30.7479C49.0129 30.7481 49.1982 30.7155 49.3443 30.6521C49.4903 30.5887 49.5943 30.4957 49.6502 30.3783Z" stroke="#3B4774" stroke-width="2"/>
<path d="M42.8638 29.8136C38.2138 35.0836 47.1338 35.4436 46.9638 31.4536C46.9564 31.2602 46.9031 31.0773 46.8144 30.9405C46.7257 30.8037 46.6078 30.7229 46.4838 30.7136C45.4105 30.6269 44.4638 30.2602 43.6438 29.6136C43.5466 29.5374 43.4113 29.5157 43.2661 29.5529C43.1208 29.5902 42.9768 29.6835 42.8638 29.8136Z" stroke="#2D3866" stroke-width="2"/>
<path d="M25.5805 31.3535C25.4739 31.1919 25.3075 31.0792 25.1179 31.0403C24.9283 31.0014 24.7309 31.0394 24.5693 31.1459L22.6992 32.379C22.5376 32.4856 22.4249 32.652 22.386 32.8416C22.3471 33.0313 22.3851 33.2286 22.4916 33.3902L22.5467 33.4737C22.6533 33.6353 22.8197 33.748 23.0093 33.7869C23.1989 33.8259 23.3963 33.7879 23.5579 33.6813L25.428 32.4482C25.5896 32.3416 25.7022 32.1752 25.7412 31.9856C25.7801 31.796 25.7421 31.5986 25.6356 31.437L25.5805 31.3535Z" stroke="#3B4774" stroke-width="2"/>
<path d="M15.9223 32.9568C15.9965 32.8648 16.0481 32.7561 16.074 32.6367C16.0999 32.5173 16.0998 32.3897 16.0735 32.2611C16.0472 32.1325 15.9953 32.0054 15.9208 31.8872C15.8463 31.7689 15.7506 31.6618 15.6392 31.5719C15.5278 31.482 15.4029 31.4111 15.2716 31.3633C15.1402 31.3154 15.0051 31.2916 14.8738 31.293C14.7425 31.2945 14.6178 31.3213 14.5066 31.3719C14.3954 31.4225 14.3 31.4958 14.2257 31.5878C14.1515 31.6798 14.0999 31.7886 14.074 31.908C14.0481 32.0273 14.0483 32.155 14.0745 32.2836C14.1008 32.4122 14.1527 32.5392 14.2272 32.6575C14.3017 32.7757 14.3974 32.8828 14.5088 32.9727C14.6202 33.0626 14.7452 33.1335 14.8765 33.1814C15.0078 33.2292 15.1429 33.2531 15.2742 33.2516C15.4055 33.2501 15.5302 33.2233 15.6414 33.1728C15.7526 33.1222 15.8481 33.0488 15.9223 32.9568Z" stroke="#424C79" stroke-width="2"/>
<path d="M19.463 35.2329C17.3764 35.2596 17.2497 35.8395 19.083 36.9729C19.1874 37.039 19.3283 37.0522 19.4828 37.0104C19.6372 36.9686 19.796 36.8743 19.933 36.7429L21.313 35.3829C21.4218 35.2779 21.499 35.143 21.536 34.9931C21.5731 34.8431 21.5685 34.6839 21.523 34.5329C21.1897 33.3929 20.723 33.3862 20.123 34.5129C20.0105 34.7201 19.8856 34.902 19.7667 35.0316C19.6479 35.1613 19.5414 35.2319 19.463 35.2329Z" stroke="#424C79" stroke-width="2"/>
<path d="M34.6236 35.5731L32.3836 37.5131C32.1766 37.6873 32.0281 37.956 31.9636 38.2731C31.897 38.5798 31.9803 38.7498 32.2136 38.7831C32.3386 38.8032 32.4784 38.7647 32.613 38.6731C32.7477 38.5815 32.8704 38.4415 32.9636 38.2731C34.0303 36.2931 35.697 35.4631 37.9636 35.7831C38.1302 35.8082 38.2971 35.7838 38.4345 35.7142C38.5719 35.6446 38.6709 35.5343 38.7136 35.4031C38.9203 34.7831 38.2637 34.5364 36.7437 34.6631C35.9704 34.7279 35.2276 35.0467 34.6236 35.5731Z" stroke="#35406C" stroke-width="2"/>
<path d="M25.1181 37.524C25.1992 37.5403 25.2868 37.52 25.3761 37.4642C25.4653 37.4084 25.5544 37.3181 25.6382 37.1986C25.7219 37.0791 25.7988 36.9326 25.8644 36.7676C25.9299 36.6026 25.9829 36.4223 26.0203 36.2369C26.0577 36.0515 26.0787 35.8647 26.0822 35.6872C26.0857 35.5097 26.0715 35.3449 26.0406 35.2022C26.0097 35.0596 25.9626 34.9419 25.9019 34.8559C25.8413 34.7698 25.7684 34.7171 25.6873 34.7008C25.6062 34.6844 25.5185 34.7048 25.4293 34.7606C25.3401 34.8164 25.251 34.9067 25.1672 35.0262C25.0834 35.1457 25.0066 35.2922 24.941 35.4572C24.8754 35.6222 24.8224 35.8025 24.7851 35.9879C24.7477 36.1733 24.7267 36.3601 24.7232 36.5376C24.7197 36.7151 24.7338 36.8799 24.7647 37.0225C24.7957 37.1652 24.8428 37.2829 24.9034 37.3689C24.964 37.455 25.037 37.5077 25.1181 37.524Z" stroke="#35406C" stroke-width="2"/>
<path d="M25.3929 38.8231C24.8929 38.9098 24.8563 39.0898 25.283 39.3631L26.223 39.9531C26.3568 40.0411 26.5149 40.0854 26.6759 40.0801C26.8369 40.0747 26.9929 40.0199 27.1229 39.9231L29.423 38.2431C29.5378 38.1604 29.6452 38.0671 29.7377 37.9697C29.8303 37.8723 29.9058 37.7732 29.9591 37.679C30.0123 37.5849 30.042 37.4981 30.0461 37.4245C30.0503 37.351 30.0287 37.2925 29.983 37.2531C29.6896 36.9798 29.3496 36.9098 28.963 37.0431C28.7163 37.1231 28.4763 37.2764 28.243 37.5031C27.583 38.1631 26.6329 38.6031 25.3929 38.8231Z" stroke="#35406C" stroke-width="2"/>
<path d="M11.874 37.9529C11.694 42.2429 15.174 36.5129 12.364 37.2929C12.2283 37.3297 12.1077 37.4135 12.0196 37.5322C11.9314 37.6508 11.8804 37.7982 11.874 37.9529Z" stroke="#424C79" stroke-width="2"/>
<path d="M45.9522 38.0028C46.2389 37.3228 45.9889 37.0728 45.2022 37.2528L42.7223 37.8028C42.1623 37.9295 42.1356 38.1261 42.6422 38.3928C44.3689 39.2661 45.4722 39.1361 45.9522 38.0028Z" stroke="#35406C" stroke-width="2"/>
<path d="M36.7824 40.5734C37.0424 40.2068 36.9224 40.1068 36.4224 40.2734L31.4324 41.9334C31.2721 41.9869 31.1016 41.9946 30.9417 41.9555C30.7819 41.9164 30.6396 41.8323 30.5324 41.7134C30.0458 41.1801 29.4391 40.9468 28.7124 41.0134C28.6493 41.0206 28.5888 41.0431 28.5364 41.0789C28.484 41.1147 28.4414 41.1627 28.4126 41.2184C28.3837 41.2741 28.3695 41.3358 28.3712 41.3979C28.373 41.4599 28.3906 41.5203 28.4224 41.5734C28.7624 42.1468 29.2758 42.4868 29.9624 42.5934C31.9491 42.9001 33.4158 42.8568 34.3624 42.4634C35.3824 42.0434 36.1891 41.4134 36.7824 40.5734Z" stroke="#35406C" stroke-width="2"/>
<path d="M21.2642 42.1933C20.4142 45.8133 28.3042 36.6133 21.8142 41.4033C21.5244 41.6159 21.3282 41.8977 21.2642 42.1933Z" stroke="#424C79" stroke-width="2"/>
<path d="M27.9028 45.1232C27.9535 45.0421 27.9908 44.9536 28.0123 44.863C28.0338 44.7724 28.0391 44.6817 28.0279 44.5964C28.0166 44.5111 27.9891 44.4331 27.9469 44.3672C27.9048 44.3013 27.8489 44.2489 27.7828 44.2132C27.0361 43.7998 26.4261 43.2365 25.9528 42.5232C25.8901 42.4309 25.81 42.3566 25.7216 42.3089C25.6332 42.2611 25.54 42.2418 25.4528 42.2532C24.8528 42.3432 26.8328 45.0632 26.9528 45.4232C27.1395 45.9565 27.4561 45.8565 27.9028 45.1232Z" stroke="#3B4774" stroke-width="2"/>
<path d="M31.0432 45.3437C31.1732 47.5237 26.1932 50.3037 30.4532 48.6037C30.6599 48.5237 30.9932 48.4937 31.4532 48.5137L32.2732 48.5637C32.3602 48.5657 32.4431 48.5364 32.5153 48.4782C32.5876 48.4199 32.6474 48.3343 32.6899 48.2279C32.7325 48.1215 32.7567 47.9972 32.7607 47.8647C32.7648 47.7322 32.7485 47.595 32.7132 47.4637C32.2799 45.8437 31.8599 44.9371 31.4532 44.7437C31.404 44.7214 31.3514 44.7208 31.3002 44.7421C31.249 44.7634 31.2008 44.8057 31.1601 44.8654C31.1193 44.925 31.0873 45.0001 31.0669 45.0836C31.0465 45.1672 31.0383 45.2566 31.0432 45.3437Z" stroke="#4C5580" stroke-width="2"/>
<path d="M18.6627 46.1832C16.9927 48.1632 23.7326 48.6032 19.4526 46.0832C19.3216 46.0043 19.1698 45.9709 19.0248 45.9893C18.8799 46.0076 18.7514 46.0765 18.6627 46.1832Z" stroke="#35406C" stroke-width="2"/>
<path d="M25.1648 47.813C25.9348 45.743 22.3447 46.913 22.1347 47.903C22.119 47.9762 22.1224 48.0521 22.1448 48.1251C22.1671 48.1982 22.2079 48.2668 22.2642 48.326C22.3205 48.3851 22.3909 48.4335 22.4705 48.4675C22.5501 48.5015 22.6369 48.5205 22.7248 48.523C23.9914 48.5496 24.7881 49.1596 25.1148 50.353C25.1706 50.5598 25.2641 50.7452 25.3769 50.8728C25.4898 51.0004 25.6138 51.0611 25.7248 51.043C26.1448 50.983 26.3847 50.723 26.4447 50.263C26.4711 50.0603 26.4579 49.8643 26.4065 49.6978C26.3552 49.5313 26.2678 49.4013 26.1548 49.323L25.2648 48.713C25.1682 48.6492 25.1056 48.5251 25.0874 48.3613C25.0692 48.1975 25.0966 48.004 25.1648 47.813Z" stroke="#4C5580" stroke-width="2"/>
<path d="M50.0123 48.6579C50.0808 48.5681 50.1264 48.4622 50.1464 48.3463C50.1665 48.2304 50.1607 48.1068 50.1293 47.9825C50.0979 47.8582 50.0416 47.7356 49.9636 47.6219C49.8855 47.5081 49.7873 47.4053 49.6745 47.3193C49.5616 47.2334 49.4365 47.1659 49.306 47.1209C49.1756 47.0759 49.0425 47.0541 48.9143 47.0569C48.7862 47.0596 48.6654 47.0868 48.559 47.1369C48.4526 47.187 48.3626 47.2591 48.2941 47.3489C48.2257 47.4387 48.1802 47.5446 48.1601 47.6605C48.1401 47.7764 48.1459 47.9 48.1773 48.0243C48.2086 48.1486 48.2649 48.2712 48.343 48.385C48.421 48.4988 48.5193 48.6016 48.6321 48.6875C48.7449 48.7735 48.8701 48.8409 49.0005 48.8859C49.1309 48.9309 49.2641 48.9527 49.3922 48.95C49.5204 48.9472 49.6411 48.92 49.7475 48.8699C49.8539 48.8198 49.9439 48.7478 50.0123 48.6579Z" stroke="#35406C" stroke-width="2"/>
<path d="M17.8738 49.3529C18.7338 44.8729 13.7738 51.4929 17.3238 50.0329C17.4652 49.9749 17.5897 49.8821 17.6858 49.7633C17.782 49.6444 17.8466 49.5033 17.8738 49.3529Z" stroke="#3B4774" stroke-width="2"/>
<path d="M37.1978 49.9813C37.2168 49.9295 37.2166 49.8713 37.1973 49.8099C37.178 49.7486 37.14 49.6854 37.0853 49.6239C37.0307 49.5624 36.9606 49.5037 36.879 49.4514C36.7973 49.3991 36.7058 49.354 36.6096 49.3188C36.4154 49.2477 36.2139 49.2211 36.0494 49.2448C35.885 49.2685 35.7712 49.3405 35.7329 49.4451C35.7139 49.4969 35.714 49.5551 35.7333 49.6164C35.7526 49.6778 35.7907 49.741 35.8453 49.8025C35.9 49.864 35.9701 49.9226 36.0517 49.975C36.1333 50.0273 36.2249 50.0724 36.321 50.1076C36.5153 50.1787 36.7168 50.2053 36.8812 50.1816C37.0457 50.1579 37.1595 50.0859 37.1978 49.9813Z" stroke="#35406C" stroke-width="2"/>
<path d="M21.4721 52.1581C21.4237 52.0634 21.2977 52.0096 21.1012 51.9997C20.9048 51.9898 20.6419 52.0241 20.3274 52.1005C20.0129 52.177 19.653 52.2941 19.2683 52.4452C18.8836 52.5963 18.4816 52.7785 18.0853 52.9813C17.689 53.1841 17.3061 53.4036 16.9585 53.6272C16.6109 53.8508 16.3054 54.0742 16.0594 54.2845C15.8135 54.4949 15.6319 54.6881 15.525 54.8532C15.4181 55.0183 15.3881 55.152 15.4366 55.2467C15.485 55.3414 15.611 55.3952 15.8074 55.4051C16.0038 55.415 16.2668 55.3807 16.5813 55.3043C16.8958 55.2279 17.2557 55.1107 17.6404 54.9596C18.025 54.8085 18.427 54.6263 18.8233 54.4235C19.2197 54.2207 19.6026 54.0012 19.9502 53.7776C20.2978 53.554 20.6033 53.3307 20.8492 53.1203C21.0952 52.9099 21.2768 52.7167 21.3836 52.5516C21.4905 52.3865 21.5206 52.2528 21.4721 52.1581Z" stroke="#3B4774" stroke-width="2"/>
<path d="M53.5751 52.383C52.4451 50.223 50.4551 53.823 50.3851 54.783C50.3651 55.043 50.4784 55.0863 50.7251 54.913L53.3051 53.043C53.43 52.9533 53.5263 52.8367 53.576 52.7151C53.6258 52.5935 53.6254 52.4754 53.5751 52.383Z" stroke="#3B4774" stroke-width="2"/>
<path d="M55.284 56.6132C54.3507 56.8465 53.6406 57.3798 53.154 58.2132C52.8806 58.6798 52.9907 58.8998 53.484 58.8732C54.924 58.7932 56.1273 58.2132 57.094 57.1332C57.225 56.9874 57.3271 56.8331 57.3862 56.6917C57.4453 56.5502 57.4585 56.4285 57.424 56.3432C56.504 54.0832 55.8807 53.9465 55.554 55.9332C55.5258 56.1127 55.4835 56.2786 55.4343 56.4026C55.3851 56.5265 55.332 56.6009 55.284 56.6132Z" stroke="#3B4774" stroke-width="2"/>
<path d="M20.0546 56.1925C19.8613 57.3791 20.1812 57.8125 21.0146 57.4925C21.152 57.4396 21.2663 57.3386 21.3376 57.207C21.4088 57.0755 21.4325 56.9217 21.4046 56.7725C21.2913 56.1058 21.0413 55.7358 20.6546 55.6625C20.5895 55.6509 20.5223 55.6555 20.4568 55.6759C20.3913 55.6964 20.3288 55.7323 20.273 55.7816C20.2172 55.8309 20.1691 55.8926 20.1316 55.9631C20.0942 56.0336 20.068 56.1116 20.0546 56.1925Z" stroke="#35406C" stroke-width="2"/>
<path d="M59.1634 68.3235C57.6534 68.0735 57.0333 71.2035 58.4433 70.6835C58.7192 70.5802 58.9778 70.3253 59.1634 69.9735C59.4767 69.3668 59.9033 68.8768 60.4433 68.5035C60.5892 68.4049 60.7196 68.3027 60.8099 68.216C60.9003 68.1294 60.9442 68.0644 60.9333 68.0335L60.2434 64.0235C60.213 63.8568 60.1215 63.7058 59.9847 63.5963C59.8478 63.4869 59.6742 63.4257 59.4934 63.4235C57.7001 63.4035 56.7601 62.5301 56.6734 60.8035C56.6679 60.7268 56.6431 60.6551 56.604 60.603C56.5649 60.5509 56.5146 60.5224 56.4634 60.5235H56.2234C56.1473 60.5237 56.0716 60.5377 56.0018 60.5644C55.932 60.5911 55.8699 60.6298 55.82 60.6778C55.7701 60.7258 55.7337 60.7817 55.7136 60.8415C55.6934 60.9013 55.6899 60.9635 55.7034 61.0235L56.2034 63.2835C56.2317 63.426 56.323 63.551 56.4587 63.6328C56.5944 63.7146 56.7642 63.747 56.9333 63.7235C59.1833 63.3935 60.1234 66.4635 59.7934 67.9835C59.768 68.0974 59.6888 68.1959 59.5718 68.259C59.4549 68.3222 59.3089 68.3452 59.1634 68.3235Z" stroke="#35406C" stroke-width="2"/>
<path d="M22.4551 62.5134C22.7284 62.0134 22.5618 61.8533 21.9551 62.0333C20.9684 62.3267 19.9751 62.3034 18.9751 61.9634C18.9046 61.9391 18.8287 61.9349 18.7523 61.9511C18.6759 61.9672 18.6008 62.0034 18.5319 62.0572C18.463 62.111 18.4019 62.1812 18.3525 62.2632C18.303 62.3453 18.2665 62.4373 18.2452 62.5333C18.0452 63.4533 18.2151 64.2634 18.7551 64.9634C18.8836 65.134 19.054 65.2617 19.2343 65.3224C19.4147 65.3832 19.5927 65.3728 19.7351 65.2934C20.9085 64.6334 21.8151 63.7067 22.4551 62.5134Z" stroke="#3B4774" stroke-width="2"/>
<path d="M53.6018 65.2128C54.2118 66.7328 52.8118 69.0528 54.3418 69.1328C54.4311 69.1384 54.5207 69.1258 54.6043 69.0959C54.688 69.066 54.7639 69.0196 54.8266 68.9597C54.8893 68.8999 54.9374 68.828 54.9676 68.7491C54.9979 68.6703 55.0095 68.5862 55.0017 68.5028L54.7018 65.0228C54.6904 64.8912 54.6347 64.7682 54.5447 64.6764C54.4547 64.5846 54.3365 64.5301 54.2118 64.5228L53.9618 64.5128C53.8922 64.5072 53.8242 64.5234 53.7641 64.5599C53.704 64.5964 53.6537 64.6521 53.6179 64.7218C53.582 64.7915 53.5618 64.8731 53.5589 64.9589C53.5561 65.0447 53.5709 65.132 53.6018 65.2128Z" stroke="#424C79" stroke-width="2"/>
<path d="M17.2338 72.4824C17.4288 72.2717 17.5298 71.9896 17.5148 71.6975C17.4998 71.4054 17.3701 71.1269 17.1537 70.9224C14.5937 68.4624 13.9538 68.4791 15.2338 70.9724C15.2671 71.0391 15.3204 71.4058 15.3937 72.0724C15.5604 73.5058 16.1738 73.6424 17.2338 72.4824Z" stroke="#3B4774" stroke-width="2"/>
<path d="M56.2124 74.5632C55.5324 74.1699 54.8824 74.1665 54.2624 74.5532C53.6824 74.9132 53.7224 75.1999 54.3824 75.4132L58.6424 76.8232C59.0757 76.9632 59.1824 76.8366 58.9624 76.4432C57.5724 73.9532 63.0024 75.2732 63.5824 71.6232C63.6203 71.3892 63.6224 71.1655 63.5883 70.9828C63.5543 70.8002 63.4858 70.6676 63.3924 70.6032C62.8991 70.2699 62.3591 70.1799 61.7724 70.3332C61.7187 70.3483 61.6752 70.382 61.6463 70.431C61.6173 70.4801 61.6036 70.543 61.6066 70.6139C61.6096 70.6848 61.6292 70.7613 61.6634 70.8364C61.6976 70.9115 61.7455 70.9826 61.8024 71.0432C64.5024 73.9332 58.7924 73.7532 57.7524 73.6132C57.6977 73.6085 57.6119 73.6391 57.5054 73.7012C57.399 73.7633 57.2763 73.8543 57.1524 73.9632C57.0124 74.0899 56.9257 74.2599 56.8924 74.4732C56.8851 74.5239 56.8594 74.568 56.8175 74.6016C56.7757 74.6352 56.7189 74.6574 56.6521 74.6663C56.5852 74.6751 56.5103 74.6704 56.4337 74.6524C56.3572 74.6345 56.2812 74.6039 56.2124 74.5632Z" stroke="#35406C" stroke-width="2"/>
<path d="M55.5243 72.0041C55.522 71.8556 55.3238 71.7163 54.9733 71.6167C54.6229 71.5172 54.149 71.4657 53.6557 71.4734C53.1625 71.4812 52.6904 71.5476 52.3433 71.6581C51.9962 71.7685 51.8024 71.914 51.8047 72.0625C51.8071 72.211 52.0052 72.3504 52.3557 72.4499C52.7061 72.5494 53.1801 72.601 53.6733 72.5932C54.1665 72.5855 54.6386 72.519 54.9857 72.4086C55.3329 72.2981 55.5266 72.1526 55.5243 72.0041Z" stroke="#424C79" stroke-width="2"/>
<path d="M11.5446 77.0637C11.0513 78.8703 11.4846 79.4103 12.8446 78.6837C12.9584 78.6247 13.0555 78.5076 13.1247 78.3463C13.1938 78.1851 13.232 77.9863 13.2346 77.7737C13.248 76.3403 12.8646 75.8137 12.0846 76.1937C11.9808 76.2417 11.8767 76.3468 11.7822 76.4991C11.6877 76.6514 11.6059 76.8457 11.5446 77.0637Z" stroke="#35406C" stroke-width="2"/>
<path d="M66.3046 78.1828C67.1046 79.0828 67.9713 79.1862 68.9046 78.4928C69.2979 78.1995 69.178 77.9728 68.5446 77.8128L66.6646 77.3428C65.718 77.1028 65.598 77.3828 66.3046 78.1828Z" stroke="#35406C" stroke-width="2"/>
<path d="M41.0028 55.5117C41.04 55.4498 41.0647 55.3812 41.0754 55.3097C41.0861 55.2383 41.0826 55.1654 41.0651 55.0953C41.0476 55.0252 41.0165 54.9593 40.9735 54.9012C40.9306 54.8431 40.8766 54.7941 40.8147 54.7569L40.7632 54.726C40.6382 54.6509 40.4884 54.6285 40.3469 54.6638C40.2053 54.6991 40.0836 54.7892 40.0085 54.9142L37.4848 59.1143C37.4476 59.1762 37.423 59.2449 37.4123 59.3163C37.4016 59.3878 37.4051 59.4606 37.4226 59.5307C37.44 59.6008 37.4711 59.6667 37.5141 59.7248C37.5571 59.7829 37.6111 59.8319 37.6731 59.8691L37.7244 59.9C37.8495 59.9751 37.9992 59.9975 38.1408 59.9622C38.2823 59.9269 38.404 59.8368 38.4791 59.7118L41.0028 55.5117Z" stroke="#565D86" stroke-width="2"/>
<path d="M46.4417 61.2932C45.8284 61.1132 45.6117 61.3332 45.7917 61.9532C45.9384 62.4398 46.215 62.8265 46.6217 63.1132C47.135 63.4798 47.4184 63.3632 47.4717 62.7632C47.5384 62.0098 47.195 61.5198 46.4417 61.2932Z" stroke="#717092" stroke-width="2"/>
<path d="M43.7726 67.8332C44.0593 67.5332 44.2493 67.2066 44.3426 66.8532C44.3588 66.7956 44.3614 66.735 44.3502 66.6752C44.339 66.6154 44.3143 66.5578 44.2776 66.506C44.2409 66.4543 44.193 66.4095 44.137 66.3746C44.0811 66.3397 44.0183 66.3154 43.9526 66.3032C42.8526 66.1032 41.8359 65.6932 40.9026 65.0732C40.839 65.0335 40.7672 65.0129 40.6984 65.0148C40.6297 65.0166 40.5679 65.0407 40.5226 65.0832L40.2626 65.3432C40.2508 65.3523 40.251 65.3727 40.2633 65.4034C40.2756 65.4341 40.2997 65.4745 40.3342 65.522C40.3687 65.5696 40.4129 65.6234 40.4641 65.6803C40.5154 65.7372 40.5727 65.796 40.6326 65.8532L43.0326 68.2032C43.0774 68.2466 43.1294 68.2819 43.185 68.3068C43.2406 68.3318 43.2986 68.3457 43.3547 68.3476C43.4108 68.3495 43.4638 68.3393 43.5101 68.3179C43.5564 68.2964 43.5947 68.2641 43.6226 68.2232C43.7159 68.0966 43.7659 67.9666 43.7726 67.8332Z" stroke="#586087" stroke-width="2"/>
<path d="M50.7143 75.4831L50.7443 72.7731C50.7448 72.7198 50.7309 72.6676 50.7039 72.6208C50.677 72.574 50.6376 72.534 50.589 72.5038C50.5403 72.4737 50.4838 72.4543 50.4239 72.4472C50.364 72.4401 50.3026 72.4456 50.2443 72.4631C49.3843 72.7231 48.7576 72.4131 48.3643 71.5331C49.3843 70.8065 49.8876 70.0131 49.8742 69.1531C50.9542 67.9865 51.2209 66.5265 50.6743 64.7731C51.2743 64.1265 51.3576 63.3765 50.9243 62.5231L52.2143 60.8131C53.9443 59.7731 51.0143 57.7931 50.2843 57.1131C50.1896 57.0227 50.0631 56.971 49.9275 56.9673C49.7919 56.9637 49.656 57.0083 49.5443 57.0931C48.7243 57.7131 48.0176 57.5231 47.4243 56.5231C47.7243 55.5365 47.5009 54.7865 46.7542 54.2731C46.2342 53.2631 47.1843 51.5731 46.9043 51.3531C46.867 51.3251 46.8208 51.3127 46.7689 51.3166C46.7169 51.3206 46.6605 51.3408 46.6035 51.376C46.5464 51.4112 46.4901 51.4604 46.4384 51.5204C46.3868 51.5803 46.341 51.6495 46.3043 51.7231C45.7776 52.7898 44.9143 53.4598 43.7143 53.7331C42.9476 53.1131 42.1109 52.9165 41.2042 53.1431C41.1453 53.1553 41.0873 53.1563 41.035 53.1458C40.9827 53.1354 40.9379 53.1139 40.9043 53.0831L40.7743 52.9731C40.6687 52.8788 40.5646 52.7959 40.4804 52.7392C40.3961 52.6824 40.3373 52.6555 40.3142 52.6631L37.2143 53.7331C37.0076 53.2131 36.6042 53.0598 36.0042 53.2731C35.9909 52.4398 35.6443 52.0365 34.9643 52.0631L32.4643 50.3131C31.0309 49.7065 30.2942 50.1098 30.2542 51.5231L28.6143 53.3631C28.5017 53.4876 28.4302 53.6402 28.412 53.7951C28.3938 53.9499 28.4299 54.0976 28.5142 54.2131C29.1009 55.0065 29.2943 55.8865 29.0943 56.8531C29.0801 56.919 29.0755 56.9863 29.0805 57.051C29.0855 57.1157 29.1001 57.1765 29.1234 57.2297C29.1468 57.2829 29.1784 57.3275 29.2163 57.3608C29.2543 57.394 29.2978 57.4152 29.3443 57.4231C30.4576 57.5898 31.2476 58.3031 31.7143 59.5631L30.9643 60.4831L29.1743 62.5231C26.6343 63.5231 27.1442 59.7431 25.8242 60.9731C25.7431 61.0513 25.6887 61.1669 25.6675 61.3066C25.6463 61.4464 25.659 61.6046 25.7042 61.7631L25.9843 62.7631C26.0172 62.8878 25.9842 63.032 25.8911 63.1707C25.798 63.3095 25.6506 63.4341 25.4743 63.5231C24.2743 64.1365 23.6043 65.1131 23.4643 66.4531C23.4566 66.5103 23.5333 66.6025 23.6803 66.7127C23.8272 66.8229 24.0345 66.9438 24.2642 67.0531L30.5042 70.0231C22.4776 77.4365 14.7376 83.4698 7.28427 88.1231C5.64427 89.1431 5.01428 87.1832 5.30428 85.9132C7.79428 75.1032 12.7443 63.5931 11.3543 52.2331C9.36427 35.9231 6.25429 22.1531 1.74429 2.73314C1.70622 2.56871 1.6972 2.40362 1.7178 2.24743C1.73839 2.09123 1.7882 1.94703 1.86428 1.82314C2.57762 0.616474 3.49428 0.736474 4.61428 2.18314C12.3243 12.1831 19.6943 22.4931 30.0943 29.6831C30.3627 29.8666 30.6735 29.9785 30.9972 30.0082C31.321 30.038 31.6469 29.9846 31.9442 29.8531C40.8309 25.9731 49.3976 22.2298 57.6442 18.6231C62.1642 16.6431 66.9576 15.2165 72.0243 14.3431C75.5376 13.7298 76.2576 14.8665 74.1842 17.7531L54.2542 45.5331C54.1588 45.6671 54.1063 45.8248 54.1045 45.9832C54.1027 46.1416 54.1517 46.2923 54.2443 46.4131C63.3843 58.2465 70.6276 70.1898 75.9743 82.2431C76.8409 84.1898 76.3443 85.3465 74.4843 85.7131C74.1919 85.7654 73.8601 85.7165 73.5343 85.5731L50.7143 75.4831ZM19.9943 29.5531C22.6043 24.5631 18.0342 30.2131 17.6842 30.9731C17.6593 31.0274 17.6484 31.0871 17.6522 31.1467C17.6561 31.2063 17.6748 31.264 17.7066 31.3146C17.7383 31.3651 17.7821 31.407 17.8341 31.4365C17.886 31.4659 17.9445 31.4819 18.0042 31.4831C19.5642 31.5131 19.4243 30.6531 19.9943 29.5531ZM49.6516 30.3786C49.7076 30.2613 49.7145 30.1219 49.6719 29.9685C49.6293 29.8151 49.538 29.6506 49.4032 29.4845C49.2685 29.3184 49.0929 29.1538 48.8865 29.0002C48.6801 28.8467 48.447 28.7071 48.2005 28.5895C47.9539 28.4719 47.6987 28.3786 47.4495 28.3149C47.2004 28.2511 46.962 28.2182 46.7481 28.2181C46.5342 28.2179 46.3489 28.2504 46.2028 28.3138C46.0568 28.3773 45.9528 28.4703 45.8969 28.5876C45.8409 28.705 45.834 28.8443 45.8766 28.9978C45.9192 29.1512 46.0105 29.3157 46.1453 29.4818C46.28 29.6479 46.4556 29.8125 46.662 29.966C46.8684 30.1196 47.1015 30.2591 47.348 30.3767C47.5946 30.4943 47.8498 30.5877 48.099 30.6514C48.3482 30.7151 48.5865 30.748 48.8004 30.7482C49.0143 30.7484 49.1996 30.7158 49.3457 30.6524C49.4917 30.589 49.5957 30.496 49.6516 30.3786ZM42.8643 29.8131C38.2143 35.0831 47.1343 35.4431 46.9643 31.4531C46.9568 31.2597 46.9036 31.0769 46.8149 30.9401C46.7262 30.8033 46.6083 30.7224 46.4843 30.7131C45.4109 30.6265 44.4642 30.2598 43.6442 29.6131C43.5471 29.537 43.4118 29.5153 43.2666 29.5525C43.1213 29.5898 42.9773 29.6831 42.8643 29.8131ZM25.5811 31.353C25.4746 31.1914 25.3082 31.0788 25.1186 31.0398C24.9289 31.0009 24.7316 31.0389 24.57 31.1454L22.6999 32.3785C22.5382 32.4851 22.4256 32.6515 22.3867 32.8411C22.3478 33.0308 22.3857 33.2281 22.4923 33.3897L22.5474 33.4732C22.654 33.6348 22.8203 33.7475 23.01 33.7864C23.1996 33.8254 23.3969 33.7874 23.5586 33.6808L25.4287 32.4477C25.5903 32.3412 25.7029 32.1748 25.7418 31.9851C25.7808 31.7955 25.7428 31.5982 25.6363 31.4365L25.5811 31.353ZM15.9226 32.9576C15.9968 32.8657 16.0483 32.7569 16.0742 32.6375C16.1002 32.5181 16.1 32.3905 16.0738 32.2619C16.0475 32.1333 15.9956 32.0062 15.921 31.888C15.8465 31.7697 15.7508 31.6626 15.6394 31.5727C15.528 31.4828 15.4031 31.4119 15.2718 31.3641C15.1405 31.3162 15.0053 31.2924 14.874 31.2938C14.7428 31.2953 14.618 31.3221 14.5068 31.3727C14.3956 31.4233 14.3002 31.4967 14.226 31.5886C14.1518 31.6806 14.1002 31.7894 14.0742 31.9088C14.0483 32.0282 14.0485 32.1558 14.0748 32.2844C14.1011 32.413 14.1529 32.54 14.2274 32.6583C14.302 32.7765 14.3977 32.8836 14.5091 32.9735C14.6205 33.0634 14.7454 33.1343 14.8767 33.1822C15.0081 33.23 15.1432 33.2539 15.2744 33.2524C15.4057 33.251 15.5305 33.2242 15.6417 33.1736C15.7529 33.123 15.8483 33.0496 15.9226 32.9576ZM19.4643 35.2331C17.3776 35.2598 17.2509 35.8398 19.0843 36.9731C19.1886 37.0392 19.3296 37.0524 19.484 37.0106C19.6385 36.9688 19.7972 36.8745 19.9342 36.7431L21.3142 35.3831C21.423 35.2782 21.5002 35.1433 21.5373 34.9933C21.5743 34.8434 21.5698 34.6841 21.5243 34.5331C21.1909 33.3931 20.7242 33.3865 20.1242 34.5131C20.0117 34.7204 19.8868 34.9022 19.768 35.0319C19.6491 35.1615 19.5427 35.2321 19.4643 35.2331ZM34.6242 35.5731L32.3842 37.5131C32.1772 37.6873 32.0287 37.9561 31.9643 38.2731C31.8976 38.5798 31.9809 38.7498 32.2143 38.7831C32.3392 38.8032 32.479 38.7648 32.6137 38.6732C32.7484 38.5816 32.8711 38.4416 32.9643 38.2731C34.0309 36.2931 35.6976 35.4631 37.9643 35.7831C38.1308 35.8083 38.2977 35.7838 38.4351 35.7142C38.5726 35.6446 38.6715 35.5343 38.7143 35.4031C38.9209 34.7831 38.2643 34.5365 36.7443 34.6631C35.9711 34.7279 35.2282 35.0468 34.6242 35.5731ZM25.1197 37.5247C25.2008 37.5411 25.2884 37.5208 25.3776 37.4649C25.4669 37.4091 25.556 37.3188 25.6397 37.1993C25.7235 37.0798 25.8004 36.9334 25.8659 36.7684C25.9315 36.6034 25.9845 36.423 26.0219 36.2376C26.0593 36.0522 26.0803 35.8655 26.0838 35.6879C26.0873 35.5104 26.0731 35.3456 26.0422 35.203C26.0113 35.0603 25.9642 34.9426 25.9035 34.8566C25.8429 34.7706 25.77 34.7179 25.6889 34.7015C25.6078 34.6852 25.5201 34.7055 25.4309 34.7613C25.3416 34.8172 25.2526 34.9074 25.1688 35.027C25.085 35.1465 25.0082 35.2929 24.9426 35.4579C24.877 35.6229 24.824 35.8033 24.7866 35.9886C24.7493 36.174 24.7283 36.3608 24.7248 36.5383C24.7213 36.7159 24.7354 36.8806 24.7663 37.0233C24.7972 37.1659 24.8444 37.2836 24.905 37.3697C24.9656 37.4557 25.0385 37.5084 25.1197 37.5247ZM25.3943 38.8231C24.8943 38.9098 24.8576 39.0898 25.2843 39.3631L26.2243 39.9531C26.3581 40.0411 26.5162 40.0855 26.6772 40.0801C26.8382 40.0747 26.9942 40.0199 27.1242 39.9231L29.4243 38.2431C29.5391 38.1604 29.6465 38.0672 29.739 37.9698C29.8316 37.8724 29.9071 37.7732 29.9604 37.6791C30.0136 37.5849 30.0433 37.4981 30.0474 37.4246C30.0516 37.351 30.03 37.2925 29.9843 37.2531C29.6909 36.9798 29.3509 36.9098 28.9643 37.0431C28.7176 37.1231 28.4776 37.2765 28.2443 37.5031C27.5843 38.1631 26.6343 38.6031 25.3943 38.8231ZM11.8742 37.9531C11.6942 42.2431 15.1743 36.5131 12.3643 37.2931C12.2286 37.3299 12.1079 37.4137 12.0198 37.5324C11.9317 37.6511 11.8807 37.7985 11.8742 37.9531ZM45.9542 38.0031C46.2409 37.3231 45.9909 37.0731 45.2042 37.2531L42.7243 37.8031C42.1643 37.9298 42.1376 38.1265 42.6442 38.3931C44.3709 39.2665 45.4742 39.1365 45.9542 38.0031ZM36.7843 40.5731C37.0443 40.2065 36.9243 40.1065 36.4243 40.2731L31.4342 41.9331C31.2739 41.9866 31.1034 41.9943 30.9436 41.9552C30.7837 41.9161 30.6414 41.832 30.5343 41.7131C30.0476 41.1798 29.4409 40.9465 28.7143 41.0131C28.6511 41.0203 28.5906 41.0428 28.5382 41.0786C28.4858 41.1144 28.4433 41.1624 28.4144 41.2181C28.3855 41.2738 28.3714 41.3355 28.3731 41.3976C28.3748 41.4596 28.3924 41.52 28.4243 41.5731C28.7643 42.1465 29.2776 42.4865 29.9643 42.5931C31.9509 42.8998 33.4176 42.8565 34.3643 42.4631C35.3843 42.0431 36.1909 41.4131 36.7843 40.5731ZM21.2642 42.1931C20.4142 45.8131 28.3042 36.6131 21.8142 41.4031C21.5244 41.6158 21.3283 41.8976 21.2642 42.1931ZM27.9043 45.1231C27.955 45.0421 27.9922 44.9535 28.0138 44.8629C28.0353 44.7724 28.0406 44.6816 28.0293 44.5964C28.0181 44.5111 27.9905 44.4331 27.9484 44.3672C27.9062 44.3013 27.8504 44.2489 27.7843 44.2131C27.0376 43.7998 26.4276 43.2365 25.9542 42.5231C25.8916 42.4309 25.8115 42.3566 25.723 42.3089C25.6346 42.2611 25.5414 42.2418 25.4542 42.2531C24.8542 42.3431 26.8342 45.0631 26.9542 45.4231C27.1409 45.9565 27.4576 45.8565 27.9043 45.1231ZM31.0443 45.3431C31.1743 47.5231 26.1942 50.3031 30.4542 48.6031C30.6609 48.5231 30.9942 48.4931 31.4542 48.5131L32.2743 48.5631C32.3613 48.5651 32.4441 48.5358 32.5164 48.4776C32.5886 48.4193 32.6484 48.3337 32.6909 48.2273C32.7335 48.1209 32.7577 47.9967 32.7617 47.8641C32.7658 47.7316 32.7496 47.5944 32.7143 47.4631C32.2809 45.8431 31.8609 44.9365 31.4542 44.7431C31.4051 44.7208 31.3524 44.7203 31.3012 44.7415C31.25 44.7628 31.2019 44.8052 31.1611 44.8648C31.1203 44.9245 31.0883 44.9995 31.0679 45.083C31.0475 45.1666 31.0394 45.256 31.0443 45.3431ZM18.6643 46.1831C16.9943 48.1631 23.7342 48.6031 19.4542 46.0831C19.3232 46.0042 19.1714 45.9708 19.0265 45.9892C18.8815 46.0075 18.753 46.0763 18.6643 46.1831ZM25.1643 47.8131C25.9343 45.7431 22.3442 46.9131 22.1342 47.9031C22.1184 47.9764 22.1219 48.0522 22.1443 48.1253C22.1666 48.1984 22.2074 48.267 22.2637 48.3261C22.32 48.3853 22.3904 48.4336 22.47 48.4677C22.5496 48.5017 22.6364 48.5206 22.7243 48.5231C23.9909 48.5498 24.7876 49.1598 25.1143 50.3531C25.1701 50.5599 25.2636 50.7453 25.3764 50.873C25.4893 51.0006 25.6133 51.0613 25.7243 51.0431C26.1443 50.9831 26.3842 50.7231 26.4442 50.2631C26.4706 50.0605 26.4574 49.8644 26.406 49.6979C26.3547 49.5315 26.2673 49.4014 26.1543 49.3231L25.2642 48.7131C25.1677 48.6494 25.1051 48.5253 25.0869 48.3615C25.0687 48.1977 25.0961 48.0041 25.1643 47.8131ZM50.0133 48.6576C50.0818 48.5678 50.1274 48.4619 50.1474 48.346C50.1675 48.2301 50.1616 48.1065 50.1303 47.9822C50.0989 47.8579 50.0426 47.7354 49.9646 47.6216C49.8865 47.5078 49.7883 47.405 49.6754 47.319C49.5626 47.2331 49.4375 47.1657 49.307 47.1206C49.1766 47.0756 49.0435 47.0538 48.9153 47.0566C48.7871 47.0593 48.6664 47.0866 48.56 47.1367C48.4536 47.1868 48.3636 47.2588 48.2951 47.3486C48.2267 47.4385 48.1812 47.5444 48.1611 47.6603C48.141 47.7761 48.1469 47.8998 48.1782 48.0241C48.2096 48.1484 48.2659 48.2709 48.344 48.3847C48.422 48.4985 48.5203 48.6013 48.6331 48.6872C48.7459 48.7732 48.8711 48.8406 49.0015 48.8856C49.1319 48.9307 49.265 48.9524 49.3932 48.9497C49.5214 48.9469 49.6421 48.9197 49.7485 48.8696C49.8549 48.8195 49.9449 48.7475 50.0133 48.6576ZM17.8742 49.3531C18.7342 44.8731 13.7742 51.4931 17.3242 50.0331C17.4657 49.9751 17.5902 49.8824 17.6863 49.7635C17.7824 49.6447 17.847 49.5036 17.8742 49.3531ZM37.1967 49.9812C37.2157 49.9294 37.2156 49.8712 37.1963 49.8099C37.1769 49.7486 37.1389 49.6853 37.0843 49.6238C37.0296 49.5623 36.9595 49.5037 36.8779 49.4513C36.7963 49.399 36.7047 49.3539 36.6085 49.3187C36.4143 49.2476 36.2128 49.221 36.0484 49.2447C35.8839 49.2684 35.7701 49.3405 35.7318 49.445C35.7128 49.4968 35.713 49.5551 35.7323 49.6164C35.7516 49.6777 35.7896 49.7409 35.8443 49.8025C35.8989 49.864 35.969 49.9226 36.0506 49.9749C36.1322 50.0273 36.2238 50.0723 36.32 50.1075C36.5142 50.1786 36.7157 50.2053 36.8801 50.1816C37.0446 50.1579 37.1584 50.0858 37.1967 49.9812ZM21.4721 52.1588C21.4236 52.0641 21.2976 52.0103 21.1012 52.0004C20.9047 51.9906 20.6418 52.0248 20.3273 52.1012C20.0128 52.1777 19.6529 52.2948 19.2682 52.4459C18.8835 52.5971 18.4815 52.7792 18.0852 52.982C17.6889 53.1848 17.3061 53.4043 16.9585 53.6279C16.6109 53.8515 16.3053 54.0749 16.0594 54.2853C15.8134 54.4956 15.6318 54.6889 15.5249 54.8539C15.418 55.019 15.388 55.1528 15.4365 55.2474C15.4849 55.3421 15.6109 55.396 15.8073 55.4058C16.0038 55.4157 16.2668 55.3815 16.5813 55.305C16.8958 55.2286 17.2556 55.1115 17.6403 54.9603C18.025 54.8092 18.427 54.627 18.8233 54.4242C19.2196 54.2214 19.6025 54.002 19.9501 53.7784C20.2977 53.5547 20.6032 53.3314 20.8491 53.121C21.0951 52.9107 21.2767 52.7174 21.3836 52.5523C21.4904 52.3872 21.5205 52.2535 21.4721 52.1588ZM53.5742 52.3831C52.4442 50.2231 50.4542 53.8231 50.3842 54.7831C50.3642 55.0431 50.4776 55.0865 50.7243 54.9131L53.3043 53.0431C53.4291 52.9535 53.5255 52.8368 53.5752 52.7152C53.625 52.5936 53.6246 52.4755 53.5742 52.3831ZM55.2843 56.6131C54.3509 56.8465 53.6409 57.3798 53.1543 58.2131C52.8809 58.6798 52.9909 58.8998 53.4843 58.8731C54.9243 58.7931 56.1276 58.2131 57.0943 57.1331C57.2253 56.9873 57.3274 56.8331 57.3865 56.6917C57.4456 56.5502 57.4588 56.4285 57.4243 56.3431C56.5043 54.0831 55.881 53.9465 55.5543 55.9331C55.5261 56.1127 55.4838 56.2786 55.4346 56.4025C55.3854 56.5265 55.3323 56.6009 55.2843 56.6131ZM20.0543 56.1931C19.861 57.3798 20.1809 57.8131 21.0142 57.4931C21.1517 57.4402 21.266 57.3392 21.3372 57.2077C21.4085 57.0762 21.4322 56.9224 21.4043 56.7731C21.2909 56.1065 21.0409 55.7365 20.6543 55.6631C20.5892 55.6516 20.5219 55.6562 20.4564 55.6766C20.3909 55.6971 20.3285 55.733 20.2727 55.7823C20.2169 55.8316 20.1688 55.8933 20.1313 55.9638C20.0938 56.0343 20.0677 56.1123 20.0543 56.1931ZM59.1643 68.3231C57.6543 68.0731 57.0342 71.2031 58.4442 70.6831C58.7201 70.5799 58.9787 70.325 59.1643 69.9731C59.4776 69.3665 59.9042 68.8765 60.4442 68.5031C60.59 68.4046 60.7205 68.3023 60.8108 68.2157C60.9011 68.1291 60.9451 68.0641 60.9342 68.0331L60.2443 64.0231C60.2139 63.8564 60.1224 63.7054 59.9856 63.596C59.8487 63.4865 59.6751 63.4254 59.4943 63.4231C57.701 63.4031 56.7609 62.5298 56.6743 60.8031C56.6688 60.7265 56.644 60.6548 56.6049 60.6027C56.5658 60.5506 56.5155 60.5221 56.4643 60.5231H56.2243C56.1482 60.5233 56.0725 60.5373 56.0027 60.564C55.9329 60.5907 55.8708 60.6295 55.8209 60.6775C55.771 60.7254 55.7346 60.7814 55.7144 60.8412C55.6943 60.901 55.6908 60.9632 55.7042 61.0231L56.2042 63.2831C56.2325 63.4257 56.3239 63.5507 56.4596 63.6325C56.5952 63.7143 56.765 63.7467 56.9342 63.7231C59.1842 63.3931 60.1243 66.4632 59.7943 67.9831C59.7689 68.0971 59.6897 68.1956 59.5727 68.2587C59.4557 68.3218 59.3098 68.3449 59.1643 68.3231ZM22.4542 62.5131C22.7276 62.0131 22.5609 61.8531 21.9542 62.0331C20.9676 62.3265 19.9743 62.3031 18.9743 61.9631C18.9037 61.9389 18.8278 61.9347 18.7514 61.9508C18.6751 61.967 18.5999 62.0032 18.531 62.0569C18.4621 62.1107 18.401 62.181 18.3516 62.263C18.3022 62.3451 18.2656 62.4371 18.2443 62.5331C18.0443 63.4531 18.2142 64.2631 18.7542 64.9631C18.8828 65.1338 19.0531 65.2615 19.2335 65.3222C19.4138 65.3829 19.5919 65.3726 19.7343 65.2931C20.9076 64.6331 21.8142 63.7065 22.4542 62.5131ZM53.6043 65.2131C54.2143 66.7331 52.8143 69.0531 54.3443 69.1331C54.4336 69.1387 54.5231 69.1261 54.6068 69.0963C54.6905 69.0664 54.7663 69.0199 54.8291 68.9601C54.8918 68.9002 54.9399 68.8283 54.9701 68.7495C55.0004 68.6706 55.012 68.5866 55.0042 68.5031L54.7042 65.0231C54.6929 64.8915 54.6372 64.7685 54.5472 64.6767C54.4572 64.5849 54.339 64.5304 54.2143 64.5231L53.9643 64.5131C53.8947 64.5075 53.8267 64.5237 53.7666 64.5602C53.7065 64.5968 53.6562 64.6524 53.6204 64.7222C53.5845 64.7919 53.5642 64.8734 53.5614 64.9592C53.5586 65.045 53.5734 65.1323 53.6043 65.2131ZM17.2343 72.4831C17.4293 72.2724 17.5303 71.9903 17.5153 71.6982C17.5004 71.4062 17.3706 71.1276 17.1543 70.9231C14.5943 68.4631 13.9543 68.4798 15.2343 70.9731C15.2676 71.0398 15.3209 71.4065 15.3943 72.0731C15.5609 73.5065 16.1743 73.6432 17.2343 72.4831ZM56.2143 74.5631C55.5343 74.1698 54.8842 74.1665 54.2642 74.5531C53.6842 74.9131 53.7242 75.1998 54.3842 75.4132L58.6442 76.8231C59.0776 76.9631 59.1843 76.8365 58.9643 76.4432C57.5743 73.9532 63.0042 75.2731 63.5843 71.6231C63.6221 71.3892 63.6242 71.1654 63.5902 70.9828C63.5561 70.8001 63.4877 70.6675 63.3942 70.6031C62.9009 70.2698 62.3609 70.1798 61.7743 70.3331C61.7205 70.3482 61.6771 70.3819 61.6481 70.431C61.6191 70.4801 61.6055 70.543 61.6085 70.6139C61.6115 70.6847 61.631 70.7613 61.6652 70.8363C61.6995 70.9114 61.7473 70.9826 61.8043 71.0431C64.5043 73.9331 58.7942 73.7531 57.7542 73.6131C57.6995 73.6084 57.6138 73.639 57.5073 73.7011C57.4008 73.7632 57.2782 73.8542 57.1543 73.9631C57.0143 74.0898 56.9276 74.2598 56.8942 74.4732C56.8869 74.5239 56.8612 74.5679 56.8194 74.6015C56.7775 74.6352 56.7207 74.6574 56.6539 74.6662C56.5871 74.675 56.5121 74.6703 56.4356 74.6524C56.359 74.6344 56.2831 74.6038 56.2143 74.5631ZM55.5241 72.0039C55.5217 71.8554 55.3235 71.7161 54.9731 71.6166C54.6227 71.517 54.1487 71.4655 53.6555 71.4732C53.1623 71.481 52.6902 71.5474 52.343 71.6579C51.9959 71.7683 51.8022 71.9138 51.8045 72.0623C51.8068 72.2108 52.005 72.3502 52.3554 72.4497C52.7059 72.5492 53.1798 72.6008 53.6731 72.593C54.1663 72.5853 54.6384 72.5189 54.9855 72.4084C55.3326 72.2979 55.5264 72.1524 55.5241 72.0039ZM11.5443 77.0631C11.0509 78.8698 11.4843 79.4098 12.8443 78.6831C12.958 78.6242 13.0552 78.5071 13.1243 78.3458C13.1934 78.1845 13.2316 77.9858 13.2343 77.7731C13.2476 76.3398 12.8643 75.8132 12.0843 76.1932C11.9804 76.2412 11.8763 76.3463 11.7818 76.4986C11.6873 76.6509 11.6055 76.8452 11.5443 77.0631ZM66.3043 78.1831C67.1043 79.0831 67.9709 79.1865 68.9043 78.4931C69.2976 78.1998 69.1776 77.9732 68.5443 77.8131L66.6643 77.3431C65.7176 77.1031 65.5976 77.3831 66.3043 78.1831Z" fill="#232F5F"/>
<path d="M17.6851 30.9731C18.0351 30.2131 22.6052 24.5631 19.9952 29.5531C19.4252 30.6531 19.5651 31.5131 18.0051 31.4831C17.9454 31.4819 17.8869 31.4659 17.8349 31.4365C17.783 31.407 17.7392 31.3651 17.7074 31.3146C17.6757 31.264 17.657 31.2063 17.6531 31.1467C17.6492 31.0871 17.6602 31.0274 17.6851 30.9731Z" fill="#475179"/>
<path d="M47.3492 30.3759C48.386 30.8705 49.4174 30.8713 49.6528 30.3778C49.8882 29.8843 49.2384 29.0834 48.2016 28.5888C47.1647 28.0943 46.1334 28.0934 45.898 28.5869C45.6626 29.0804 46.3123 29.8814 47.3492 30.3759Z" fill="#535E88"/>
<path d="M46.9638 31.4536C47.1338 35.4436 38.2138 35.0836 42.8638 29.8136C42.9768 29.6835 43.1208 29.5902 43.2661 29.5529C43.4113 29.5157 43.5466 29.5374 43.6438 29.6136C44.4638 30.2602 45.4105 30.6269 46.4838 30.7136C46.6078 30.7229 46.7257 30.8037 46.8144 30.9405C46.9031 31.0773 46.9564 31.2602 46.9638 31.4536Z" fill="#36406C"/>
<path d="M24.5693 31.1453L22.6993 32.3784C22.3627 32.6004 22.2698 33.0531 22.4917 33.3897L22.5467 33.4732C22.7687 33.8098 23.2214 33.9027 23.558 33.6808L25.4281 32.4477C25.7647 32.2258 25.8576 31.773 25.6357 31.4364L25.5806 31.3529C25.3587 31.0163 24.9059 30.9234 24.5693 31.1453Z" fill="#535E88"/>
<path d="M14.5109 32.974C14.9794 33.352 15.6122 33.3449 15.9244 32.9581C16.2365 32.5712 16.1097 31.9512 15.6413 31.5732C15.1728 31.1951 14.5399 31.2023 14.2278 31.5891C13.9157 31.9759 14.0424 32.596 14.5109 32.974Z" fill="#616993"/>
<path d="M20.123 34.5129C20.723 33.3862 21.1897 33.3929 21.523 34.5329C21.5685 34.6839 21.5731 34.8431 21.536 34.9931C21.499 35.143 21.4218 35.2779 21.313 35.3829L19.933 36.7429C19.796 36.8743 19.6372 36.9686 19.4828 37.0104C19.3283 37.0522 19.1874 37.0389 19.083 36.9729C17.2497 35.8395 17.3764 35.2596 19.463 35.2329C19.5414 35.2319 19.6479 35.1613 19.7667 35.0316C19.8856 34.902 20.0105 34.7201 20.123 34.5129Z" fill="#616993"/>
<path d="M34.6236 35.5731C35.2276 35.0467 35.9704 34.7279 36.7437 34.6631C38.2637 34.5364 38.9203 34.7831 38.7136 35.4031C38.6709 35.5343 38.5719 35.6446 38.4345 35.7142C38.2971 35.7838 38.1302 35.8082 37.9636 35.7831C35.697 35.4631 34.0303 36.2931 32.9636 38.2731C32.8704 38.4415 32.7477 38.5815 32.613 38.6731C32.4784 38.7647 32.3386 38.8032 32.2136 38.7831C31.9803 38.7498 31.897 38.5798 31.9636 38.2731C32.0281 37.956 32.1766 37.6873 32.3836 37.5131L34.6236 35.5731Z" fill="#475179"/>
<path d="M24.7888 35.9887C24.6316 36.7683 24.7807 37.4561 25.1218 37.5248C25.4628 37.5936 25.8668 37.0174 26.024 36.2378C26.1812 35.4582 26.0321 34.7704 25.691 34.7016C25.3499 34.6329 24.946 35.2091 24.7888 35.9887Z" fill="#475179"/>
<path d="M25.3929 38.8231C26.6329 38.6031 27.583 38.1631 28.243 37.5031C28.4763 37.2764 28.7163 37.1231 28.963 37.0431C29.3496 36.9098 29.6896 36.9798 29.983 37.2531C30.0287 37.2925 30.0503 37.351 30.0461 37.4245C30.042 37.4981 30.0123 37.5849 29.9591 37.679C29.9058 37.7732 29.8303 37.8723 29.7377 37.9697C29.6452 38.0671 29.5378 38.1604 29.423 38.2431L27.1229 39.9231C26.9929 40.0199 26.8369 40.0747 26.6759 40.0801C26.5149 40.0854 26.3568 40.0411 26.223 39.9531L25.283 39.3631C24.8563 39.0898 24.8929 38.9098 25.3929 38.8231Z" fill="#475179"/>
<path d="M12.364 37.2929C15.174 36.5129 11.694 42.2429 11.874 37.9529C11.8804 37.7982 11.9314 37.6508 12.0196 37.5322C12.1077 37.4135 12.2283 37.3297 12.364 37.2929Z" fill="#616993"/>
<path d="M45.9561 38.0028C45.4761 39.1361 44.3728 39.2661 42.6461 38.3928C42.1395 38.1261 42.1662 37.9295 42.7262 37.8028L45.2061 37.2528C45.9928 37.0728 46.2428 37.3228 45.9561 38.0028Z" fill="#475179"/>
<path d="M36.7863 40.5734C36.193 41.4134 35.3864 42.0434 34.3664 42.4634C33.4197 42.8568 31.953 42.9001 29.9663 42.5934C29.2797 42.4868 28.7663 42.1468 28.4263 41.5734C28.3945 41.5203 28.3769 41.4599 28.3751 41.3979C28.3734 41.3358 28.3876 41.2741 28.4165 41.2184C28.4453 41.1627 28.4879 41.1147 28.5403 41.0789C28.5927 41.0431 28.6532 41.0206 28.7163 41.0134C29.443 40.9468 30.0497 41.1801 30.5363 41.7134C30.6435 41.8323 30.7858 41.9164 30.9456 41.9555C31.1055 41.9946 31.276 41.9869 31.4363 41.9334L36.4263 40.2734C36.9263 40.1068 37.0463 40.2068 36.7863 40.5734Z" fill="#475179"/>
<path d="M21.8142 41.4023C28.3042 36.6123 20.4142 45.8123 21.2642 42.1923C21.3282 41.8967 21.5244 41.6149 21.8142 41.4023Z" fill="#616993"/>
<path d="M27.9067 45.1232C27.4601 45.8565 27.1434 45.9565 26.9567 45.4232C26.8367 45.0632 24.8567 42.3432 25.4567 42.2532C25.5439 42.2418 25.6371 42.2611 25.7255 42.3089C25.8139 42.3566 25.894 42.4309 25.9567 42.5232C26.43 43.2365 27.0401 43.7998 27.7867 44.2132C27.8528 44.2489 27.9087 44.3013 27.9508 44.3672C27.993 44.4331 28.0205 44.5111 28.0318 44.5964C28.043 44.6817 28.0377 44.7724 28.0162 44.863C27.9947 44.9536 27.9574 45.0421 27.9067 45.1232Z" fill="#535E88"/>
<path d="M30.4532 48.6027C26.1932 50.3027 31.1732 47.5227 31.0432 45.3427C31.0383 45.2556 31.0465 45.1662 31.0669 45.0826C31.0873 44.9991 31.1193 44.9241 31.1601 44.8644C31.2008 44.8048 31.249 44.7624 31.3002 44.7411C31.3514 44.7199 31.404 44.7204 31.4532 44.7427C31.8599 44.9361 32.2799 45.8427 32.7132 47.4627C32.7485 47.594 32.7648 47.7312 32.7607 47.8637C32.7567 47.9963 32.7325 48.1205 32.6899 48.2269C32.6474 48.3333 32.5876 48.4189 32.5153 48.4772C32.4431 48.5354 32.3602 48.5647 32.2732 48.5627L31.4532 48.5127C30.9932 48.4927 30.6599 48.5227 30.4532 48.6027Z" fill="#757AA0"/>
<path d="M19.4566 46.0832C23.7366 48.6032 16.9966 48.1632 18.6666 46.1832C18.7553 46.0765 18.8838 46.0076 19.0288 45.9893C19.1737 45.9709 19.3255 46.0043 19.4566 46.0832Z" fill="#475179"/>
<path d="M25.2648 48.713L26.1548 49.323C26.2678 49.4013 26.3552 49.5313 26.4065 49.6978C26.4579 49.8643 26.4711 50.0603 26.4447 50.263C26.3847 50.723 26.1448 50.983 25.7248 51.043C25.6138 51.0611 25.4898 51.0004 25.3769 50.8728C25.2641 50.7452 25.1706 50.5598 25.1148 50.353C24.7881 49.1596 23.9914 48.5496 22.7248 48.523C22.6369 48.5205 22.5501 48.5015 22.4705 48.4675C22.3909 48.4335 22.3205 48.3851 22.2642 48.326C22.2079 48.2668 22.1671 48.1982 22.1448 48.1251C22.1224 48.0521 22.119 47.9762 22.1347 47.903C22.3447 46.913 25.9348 45.743 25.1648 47.813C25.0966 48.004 25.0692 48.1975 25.0874 48.3613C25.1056 48.5251 25.1682 48.6492 25.2648 48.713Z" fill="#757AA0"/>
<path d="M48.6332 48.6867C49.1077 49.0482 49.7257 49.0349 50.0135 48.6571C50.3013 48.2793 50.15 47.68 49.6755 47.3185C49.201 46.9571 48.5831 46.9703 48.2953 47.3482C48.0074 47.726 48.1587 48.3253 48.6332 48.6867Z" fill="#475179"/>
<path d="M17.3238 50.0329C13.7738 51.4929 18.7338 44.8729 17.8738 49.3529C17.8466 49.5033 17.782 49.6444 17.6858 49.7633C17.5897 49.8821 17.4652 49.9749 17.3238 50.0329Z" fill="#535E88"/>
<path d="M36.3188 50.1077C36.7234 50.2557 37.1159 50.1991 37.1956 49.9813C37.2754 49.7635 37.012 49.4669 36.6075 49.3188C36.2029 49.1708 35.8104 49.2274 35.7307 49.4452C35.6509 49.663 35.9143 49.9596 36.3188 50.1077Z" fill="#475179"/>
<path d="M32.4659 50.3124C32.0259 52.619 32.8593 53.2024 34.9659 52.0624C35.6459 52.0357 35.9926 52.439 36.0059 53.2724C34.8792 53.9124 33.9893 54.7524 33.3359 55.7924C33.2516 55.9261 33.2052 56.0756 33.2034 56.2194C33.2016 56.3632 33.2445 56.4938 33.3259 56.5924C34.7859 58.319 35.3293 58.1557 34.9559 56.1024C34.9255 55.9259 34.9169 55.7595 34.9309 55.6193C34.9449 55.4792 34.9811 55.37 35.0359 55.3024C35.5559 54.649 36.2826 54.1257 37.2159 53.7324L40.3159 52.6624C40.3389 52.6547 40.3978 52.6816 40.482 52.7384C40.5663 52.7951 40.6704 52.8781 40.7759 52.9724L40.9059 53.0824C40.9395 53.1131 40.9844 53.1346 41.0367 53.145C41.0889 53.1555 41.147 53.1546 41.2059 53.1424C42.1126 52.9157 42.9493 53.1124 43.7159 53.7324C43.1826 54.1057 43.0492 54.4424 43.3159 54.7424C43.37 54.8043 43.4814 54.8442 43.6351 54.8567C43.7888 54.8692 43.9775 54.8537 44.176 54.8124L46.7559 54.2724C47.5026 54.7857 47.726 55.5357 47.426 56.5224L44.996 58.8524C44.9038 58.9401 44.7865 58.9951 44.6644 59.0078C44.5422 59.0206 44.4226 58.9904 44.3259 58.9224C40.9726 56.489 40.7526 56.9757 43.6659 60.3824C43.7329 60.4635 43.765 60.5623 43.7594 60.6698C43.7539 60.7773 43.7108 60.89 43.6341 60.9975C43.5575 61.105 43.4497 61.204 43.3207 61.2852C43.1917 61.3664 43.0456 61.4274 42.8959 61.4624L39.2159 62.3124L34.7159 61.2324L32.3359 57.5024C32.2739 57.4055 32.1812 57.3306 32.0703 57.2877C31.9594 57.2448 31.8357 57.2359 31.7159 57.2624C30.9826 57.429 30.4226 57.2457 30.0359 56.7124C29.8935 56.5144 29.7811 56.3163 29.7147 56.1458C29.6483 55.9754 29.6313 55.8413 29.6659 55.7624C29.9993 54.9957 30.026 54.249 29.746 53.5224C29.7045 53.4148 29.7307 53.2742 29.8201 53.1245C29.9095 52.9749 30.0566 52.8256 30.236 52.7024C30.816 52.3024 30.8226 51.909 30.2559 51.5224C30.2959 50.109 31.0326 49.7057 32.4659 50.3124ZM41.0049 55.5111C41.0421 55.4491 41.0668 55.3805 41.0775 55.3091C41.0882 55.2376 41.0847 55.1648 41.0672 55.0947C41.0497 55.0246 41.0186 54.9586 40.9756 54.9006C40.9327 54.8425 40.8787 54.7935 40.8168 54.7563L40.7653 54.7254C40.6403 54.6502 40.4905 54.6279 40.349 54.6632C40.2075 54.6985 40.0857 54.7885 40.0106 54.9136L37.4869 59.1137C37.4497 59.1756 37.4251 59.2442 37.4144 59.3157C37.4037 59.3871 37.4072 59.46 37.4247 59.5301C37.4421 59.6002 37.4733 59.6661 37.5162 59.7242C37.5592 59.7822 37.6132 59.8313 37.6752 59.8685L37.7266 59.8994C37.8516 59.9745 38.0013 59.9969 38.1429 59.9616C38.2844 59.9263 38.4061 59.8362 38.4813 59.7112L41.0049 55.5111Z" fill="#36406C"/>
<path d="M32.4656 50.3125L34.9656 52.0625C32.8589 53.2025 32.0256 52.6192 32.4656 50.3125Z" fill="#757AA0"/>
<path d="M46.753 54.2736L44.1731 54.8136C43.9746 54.855 43.7859 54.8705 43.6322 54.858C43.4785 54.8454 43.3671 54.8056 43.313 54.7436C43.0463 54.4436 43.1797 54.107 43.713 53.7337C44.913 53.4603 45.7764 52.7903 46.3031 51.7236C46.3398 51.65 46.3856 51.5808 46.4372 51.5209C46.4889 51.461 46.5452 51.4117 46.6023 51.3765C46.6593 51.3413 46.7157 51.3211 46.7677 51.3171C46.8196 51.3132 46.8658 51.3256 46.903 51.3536C47.183 51.5736 46.233 53.2636 46.753 54.2736Z" fill="#757AA0"/>
<path d="M30.2531 51.5234C30.8198 51.9101 30.8131 52.3034 30.2331 52.7034C30.0538 52.8267 29.9067 52.976 29.8173 53.1256C29.7279 53.2752 29.7017 53.4159 29.7431 53.5234C30.0231 54.2501 29.9965 54.9968 29.6631 55.7634C29.6285 55.8424 29.6455 55.9765 29.7119 56.1469C29.7783 56.3173 29.8906 56.5155 30.0331 56.7134C30.4198 57.2468 30.9798 57.4301 31.7131 57.2634C31.8329 57.237 31.9566 57.2458 32.0675 57.2888C32.1784 57.3317 32.2711 57.4066 32.3331 57.5034L34.7131 61.2334C32.8631 62.2034 33.3531 59.9934 31.7131 59.5634C31.2464 58.3034 30.4564 57.5901 29.3431 57.4234C29.2966 57.4155 29.2531 57.3943 29.2152 57.3611C29.1772 57.3278 29.1456 57.2832 29.1223 57.23C29.0989 57.1768 29.0843 57.116 29.0793 57.0513C29.0743 56.9866 29.079 56.9193 29.0931 56.8534C29.2931 55.8868 29.0998 55.0068 28.5131 54.2134C28.4287 54.0979 28.3926 53.9502 28.4109 53.7954C28.4291 53.6405 28.5005 53.4879 28.6131 53.3634L30.2531 51.5234Z" fill="#616993"/>
<path d="M18.8222 54.4242C20.4889 53.5713 21.6748 52.5571 21.471 52.1588C21.2673 51.7606 19.7509 52.1292 18.0842 52.9821C16.4175 53.835 15.2316 54.8492 15.4354 55.2474C15.6392 55.6457 17.1555 55.2771 18.8222 54.4242Z" fill="#535E88"/>
<path d="M50.3851 54.783C50.4551 53.823 52.4451 50.223 53.5751 52.383C53.6254 52.4754 53.6258 52.5935 53.576 52.7151C53.5263 52.8367 53.43 52.9533 53.3051 53.043L50.7251 54.913C50.4784 55.0863 50.3651 55.043 50.3851 54.783Z" fill="#535E88"/>
<path d="M36.0057 53.2728C36.6057 53.0594 37.009 53.2128 37.2157 53.7328C36.2824 54.1261 35.5557 54.6494 35.0357 55.3028C34.9809 55.3704 34.9447 55.4796 34.9307 55.6197C34.9166 55.7599 34.9252 55.9263 34.9557 56.1028C35.329 58.1561 34.7857 58.3195 33.3257 56.5928C33.2443 56.4942 33.2014 56.3636 33.2032 56.2198C33.205 56.076 33.2514 55.9265 33.3357 55.7928C33.989 54.7528 34.879 53.9128 36.0057 53.2728Z" fill="#616993"/>
<path d="M40.8158 54.7575L40.7644 54.7266C40.504 54.5702 40.1661 54.6544 40.0097 54.9148L37.486 59.1149C37.3296 59.3753 37.4138 59.7132 37.6742 59.8696L37.7256 59.9005C37.986 60.057 38.3239 59.9727 38.4803 59.7124L41.004 55.5122C41.1605 55.2519 41.0762 54.914 40.8158 54.7575Z" fill="#757AA0"/>
<path d="M55.554 55.9332C55.8807 53.9465 56.504 54.0832 57.424 56.3432C57.4585 56.4285 57.4453 56.5502 57.3862 56.6917C57.3271 56.8331 57.225 56.9874 57.094 57.1332C56.1273 58.2132 54.924 58.7932 53.484 58.8732C52.9907 58.8998 52.8806 58.6798 53.154 58.2132C53.6406 57.3798 54.3507 56.8465 55.284 56.6132C55.332 56.6009 55.3851 56.5265 55.4343 56.4026C55.4835 56.2786 55.5258 56.1127 55.554 55.9332Z" fill="#535E88"/>
<path d="M20.6546 55.6625C21.0413 55.7358 21.2913 56.1058 21.4046 56.7725C21.4325 56.9217 21.4088 57.0755 21.3376 57.207C21.2663 57.3386 21.152 57.4396 21.0146 57.4925C20.1812 57.8125 19.8613 57.3791 20.0546 56.1925C20.068 56.1116 20.0942 56.0336 20.1316 55.9631C20.1691 55.8926 20.2172 55.8309 20.273 55.7816C20.3288 55.7323 20.3913 55.6964 20.4568 55.6759C20.5223 55.6555 20.5895 55.6509 20.6546 55.6625Z" fill="#475179"/>
<path d="M47.4267 56.5234C48.02 57.5234 48.7267 57.7134 49.5467 57.0934C49.6584 57.0086 49.7943 56.964 49.9299 56.9676C50.0656 56.9713 50.192 57.023 50.2867 57.1134C51.0167 57.7934 53.9467 59.7734 52.2167 60.8134C50.4567 58.1401 48.1833 57.6501 45.3967 59.3434C45.2358 59.4444 45.0984 59.5597 44.9933 59.682C44.8882 59.8043 44.8178 59.9309 44.7867 60.0534C44.4667 61.4268 43.5734 62.1168 42.1067 62.1234C42.1085 62.1147 42.0881 62.126 42.0468 62.1565C42.0055 62.187 41.944 62.2362 41.8659 62.3013C41.7878 62.3664 41.6947 62.446 41.5919 62.5356C41.489 62.6252 41.3785 62.7231 41.2667 62.8234L38.4767 65.2834C38.36 65.3851 38.2087 65.4547 38.0361 65.4861C37.8636 65.5175 37.675 65.5097 37.4867 65.4634C35.4467 64.9434 38.7867 63.0934 39.2167 62.3134L42.8967 61.4634C43.0464 61.4284 43.1924 61.3675 43.3214 61.2863C43.4504 61.205 43.5582 61.1061 43.6349 60.9986C43.7116 60.891 43.7546 60.7784 43.7602 60.6709C43.7657 60.5634 43.7336 60.4645 43.6667 60.3834C40.7534 56.9768 40.9733 56.4901 44.3267 58.9234C44.4233 58.9915 44.5429 59.0217 44.6651 59.0089C44.7873 58.9961 44.9045 58.9412 44.9967 58.8534L47.4267 56.5234Z" fill="#757AA0"/>
<path d="M52.2154 60.8124L50.9254 62.5224C49.6521 63.2024 49.5687 63.9524 50.6754 64.7724C51.2221 66.5257 50.9553 67.9857 49.8753 69.1524C48.862 68.9257 48.4754 68.4791 48.7154 67.8124C48.7677 67.6698 48.7883 67.5247 48.7738 67.3986C48.7594 67.2725 48.7108 67.1721 48.6353 67.1124C48.0153 66.6124 47.432 66.6391 46.8853 67.1924C46.8409 67.237 46.8114 67.2949 46.7984 67.3627C46.7854 67.4305 46.7893 67.5068 46.8098 67.587C46.8304 67.6672 46.8671 67.7497 46.9178 67.8297C46.9686 67.9096 47.0324 67.9854 47.1054 68.0524C48.092 68.9457 48.5121 70.1057 48.3654 71.5324C48.7587 72.4124 49.3854 72.7224 50.2454 72.4624C50.3037 72.4449 50.3652 72.4394 50.425 72.4465C50.4849 72.4535 50.5414 72.4729 50.5901 72.5031C50.6387 72.5332 50.6781 72.5733 50.7051 72.6201C50.732 72.6668 50.7459 72.719 50.7454 72.7724L50.7154 75.4824L33.4254 68.9624C33.0899 68.8334 32.7569 68.8086 32.4854 68.8924C31.7587 69.1057 31.0987 69.4824 30.5053 70.0224L24.2654 67.0524C24.0356 66.9431 23.8283 66.8222 23.6814 66.712C23.5344 66.6018 23.4577 66.5096 23.4654 66.4524C23.6054 65.1124 24.2754 64.1357 25.4754 63.5224C25.6517 63.4334 25.7991 63.3087 25.8922 63.17C25.9854 63.0312 26.0183 62.8871 25.9854 62.7624L25.7054 61.7624C25.6601 61.6038 25.6474 61.4456 25.6686 61.3059C25.6898 61.1662 25.7442 61.0506 25.8254 60.9724C27.1454 59.7424 26.6354 63.5224 29.1754 62.5224C29.1887 63.2624 29.5221 63.6257 30.1754 63.6124C30.3185 63.6061 30.4581 63.6447 30.5697 63.7215C30.6812 63.7983 30.7576 63.9084 30.7854 64.0324C31.0354 65.1224 32.6654 67.7324 33.3054 65.6224C33.351 65.4714 33.3545 65.315 33.3155 65.1849C33.2765 65.0549 33.1978 64.961 33.0954 64.9224C31.4287 64.3224 30.9454 63.2891 31.6454 61.8224C31.7418 61.6177 31.808 61.4166 31.8349 61.2465C31.8617 61.0764 31.8479 60.9457 31.7954 60.8724C31.6087 60.6057 31.332 60.4757 30.9654 60.4824L31.7154 59.5624C33.3554 59.9924 32.8654 62.2024 34.7154 61.2324L39.2154 62.3124C38.7854 63.0924 35.4454 64.9424 37.4854 65.4624C37.6736 65.5086 37.8623 65.5164 38.0348 65.485C38.2074 65.4537 38.3587 65.3841 38.4754 65.2824L41.2654 62.8224C41.3772 62.722 41.4877 62.6242 41.5905 62.5346C41.6934 62.445 41.7865 62.3653 41.8646 62.3003C41.9427 62.2352 42.0042 62.186 42.0455 62.1555C42.0868 62.1249 42.1072 62.1137 42.1054 62.1224C43.572 62.1157 44.4654 61.4257 44.7854 60.0524C44.8165 59.9298 44.8869 59.8033 44.992 59.681C45.0971 59.5587 45.2345 59.4433 45.3954 59.3424C48.182 57.6491 50.4554 58.1391 52.2154 60.8124ZM46.4453 61.2924C45.832 61.1124 45.6154 61.3324 45.7954 61.9524C45.9421 62.4391 46.2187 62.8257 46.6253 63.1124C47.1387 63.4791 47.422 63.3624 47.4754 62.7624C47.542 62.0091 47.1987 61.5191 46.4453 61.2924ZM43.7754 67.8324C44.062 67.5324 44.252 67.2057 44.3454 66.8524C44.3616 66.7948 44.3642 66.7341 44.353 66.6744C44.3418 66.6146 44.3171 66.557 44.2804 66.5052C44.2437 66.4534 44.1958 66.4086 44.1398 66.3737C44.0838 66.3388 44.021 66.3145 43.9554 66.3024C42.8554 66.1024 41.8387 65.6924 40.9054 65.0724C40.8418 65.0327 40.77 65.0121 40.7012 65.0139C40.6324 65.0157 40.5706 65.0398 40.5254 65.0824L40.2654 65.3424C40.2535 65.3514 40.2538 65.3719 40.2661 65.4026C40.2784 65.4333 40.3025 65.4736 40.3369 65.5212C40.3714 65.5687 40.4156 65.6225 40.4669 65.6794C40.5181 65.7363 40.5754 65.7951 40.6353 65.8524L43.0354 68.2024C43.0802 68.2457 43.1322 68.2811 43.1878 68.306C43.2434 68.3309 43.3013 68.3448 43.3575 68.3467C43.4136 68.3486 43.4666 68.3385 43.5129 68.317C43.5591 68.2956 43.5975 68.2633 43.6253 68.2224C43.7187 68.0957 43.7687 67.9657 43.7754 67.8324Z" fill="#3B456D"/>
<path d="M30.9658 60.4827C31.3324 60.476 31.6091 60.606 31.7958 60.8727C31.8483 60.946 31.8621 61.0766 31.8353 61.2467C31.8084 61.4168 31.7422 61.618 31.6458 61.8227C30.9458 63.2893 31.4291 64.3227 33.0958 64.9227C33.1982 64.9612 33.2769 65.0551 33.3159 65.1852C33.3549 65.3152 33.3513 65.4717 33.3058 65.6227C32.6658 67.7327 31.0358 65.1227 30.7858 64.0327C30.758 63.9087 30.6816 63.7986 30.5701 63.7218C30.4585 63.645 30.3189 63.6063 30.1758 63.6127C29.5224 63.626 29.1891 63.2627 29.1758 62.5227L30.9658 60.4827Z" fill="#616993"/>
<path d="M59.7934 67.9835C60.1234 66.4635 59.1833 63.3935 56.9333 63.7235C56.7642 63.747 56.5944 63.7146 56.4587 63.6328C56.323 63.551 56.2317 63.426 56.2034 63.2835L55.7034 61.0235C55.6899 60.9635 55.6934 60.9013 55.7136 60.8415C55.7337 60.7817 55.7701 60.7258 55.82 60.6778C55.8699 60.6298 55.932 60.5911 56.0018 60.5644C56.0716 60.5377 56.1473 60.5237 56.2234 60.5235H56.4634C56.5146 60.5224 56.5649 60.5509 56.604 60.603C56.6431 60.6551 56.6679 60.7268 56.6734 60.8035C56.7601 62.5301 57.7001 63.4035 59.4934 63.4235C59.6742 63.4257 59.8478 63.4869 59.9847 63.5963C60.1215 63.7058 60.213 63.8568 60.2434 64.0235L60.9333 68.0335C60.9442 68.0644 60.9003 68.1294 60.8099 68.216C60.7196 68.3027 60.5892 68.4049 60.4433 68.5035C59.9033 68.8768 59.4767 69.3668 59.1634 69.9735C58.9778 70.3253 58.7192 70.5802 58.4433 70.6835C57.0333 71.2035 57.6534 68.0735 59.1634 68.3235C59.3089 68.3452 59.4549 68.3222 59.5718 68.259C59.6888 68.1959 59.768 68.0974 59.7934 67.9835Z" fill="#475179"/>
<path d="M46.4456 61.2932C47.1989 61.5198 47.5423 62.0098 47.4756 62.7632C47.4223 63.3632 47.1389 63.4798 46.6256 63.1132C46.2189 62.8265 45.9423 62.4398 45.7956 61.9532C45.6156 61.3332 45.8323 61.1132 46.4456 61.2932Z" fill="#A69AB7"/>
<path d="M22.4551 62.5134C21.8151 63.7067 20.9085 64.6334 19.7351 65.2934C19.5927 65.3728 19.4147 65.3832 19.2343 65.3224C19.054 65.2617 18.8836 65.134 18.7551 64.9634C18.2151 64.2634 18.0452 63.4533 18.2452 62.5333C18.2665 62.4373 18.303 62.3453 18.3525 62.2632C18.4019 62.1812 18.463 62.111 18.5319 62.0572C18.6008 62.0034 18.6759 61.9672 18.7523 61.9511C18.8287 61.9349 18.9046 61.9391 18.9751 61.9634C19.9751 62.3034 20.9684 62.3267 21.9551 62.0333C22.5618 61.8533 22.7284 62.0134 22.4551 62.5134Z" fill="#535E88"/>
<path d="M50.9242 62.5234C51.3576 63.3768 51.2742 64.1268 50.6742 64.7734C49.5676 63.9534 49.6509 63.2034 50.9242 62.5234Z" fill="#616993"/>
<path d="M54.3457 69.1328C52.8157 69.0528 54.2157 66.7328 53.6057 65.2128C53.5748 65.132 53.56 65.0447 53.5628 64.9589C53.5657 64.8731 53.5859 64.7915 53.6218 64.7218C53.6577 64.6521 53.7079 64.5964 53.768 64.5599C53.8281 64.5234 53.8961 64.5072 53.9657 64.5128L54.2157 64.5228C54.3404 64.5301 54.4586 64.5846 54.5486 64.6764C54.6386 64.7682 54.6943 64.8912 54.7057 65.0228L55.0056 68.5028C55.0134 68.5862 55.0018 68.6703 54.9715 68.7491C54.9413 68.828 54.8932 68.8999 54.8305 68.9597C54.7678 69.0196 54.6919 69.066 54.6082 69.0959C54.5246 69.1258 54.435 69.1384 54.3457 69.1328Z" fill="#616993"/>
<path d="M43.7765 67.8323C43.7698 67.9656 43.7198 68.0956 43.6265 68.2223C43.5986 68.2631 43.5603 68.2954 43.514 68.3169C43.4677 68.3384 43.4147 68.3485 43.3586 68.3466C43.3025 68.3447 43.2445 68.3308 43.1889 68.3059C43.1333 68.2809 43.0813 68.2456 43.0365 68.2023L40.6365 65.8523C40.5766 65.795 40.5193 65.7362 40.468 65.6793C40.4168 65.6224 40.3726 65.5686 40.3381 65.521C40.3036 65.4735 40.2795 65.4332 40.2672 65.4025C40.2549 65.3717 40.2547 65.3513 40.2665 65.3423L40.5265 65.0823C40.5718 65.0397 40.6336 65.0156 40.7024 65.0138C40.7711 65.012 40.8429 65.0325 40.9065 65.0723C41.8398 65.6923 42.8565 66.1023 43.9565 66.3023C44.0222 66.3144 44.085 66.3387 44.141 66.3736C44.1969 66.4085 44.2448 66.4533 44.2815 66.5051C44.3182 66.5568 44.343 66.6144 44.3541 66.6742C44.3653 66.734 44.3627 66.7947 44.3465 66.8523C44.2532 67.2056 44.0632 67.5323 43.7765 67.8323Z" fill="#757AA0"/>
<path d="M49.8735 69.1529C49.8868 70.0129 49.3836 70.8062 48.3636 71.5328C48.5102 70.1062 48.0902 68.9462 47.1036 68.0529C47.0306 67.9858 46.9668 67.9101 46.916 67.8301C46.8652 67.7502 46.8285 67.6676 46.808 67.5874C46.7875 67.5072 46.7836 67.431 46.7966 67.3632C46.8095 67.2954 46.8391 67.2375 46.8835 67.1928C47.4302 66.6395 48.0135 66.6128 48.6335 67.1128C48.709 67.1725 48.7576 67.2729 48.772 67.399C48.7864 67.5252 48.7659 67.6703 48.7135 67.8128C48.4735 68.4795 48.8602 68.9262 49.8735 69.1529Z" fill="#616993"/>
<path d="M17.2338 72.4824C16.1738 73.6424 15.5604 73.5058 15.3937 72.0724C15.3204 71.4058 15.2671 71.0391 15.2338 70.9724C13.9538 68.4791 14.5937 68.4624 17.1537 70.9224C17.3701 71.1269 17.4998 71.4054 17.5148 71.6975C17.5298 71.9896 17.4288 72.2717 17.2338 72.4824Z" fill="#535E88"/>
<path d="M56.8963 74.4722C56.9297 74.2589 57.0163 74.0889 57.1563 73.9622C57.2802 73.8533 57.4029 73.7623 57.5094 73.7002C57.6158 73.6381 57.7016 73.6075 57.7563 73.6122C58.7963 73.7522 64.5064 73.9322 61.8064 71.0422C61.7494 70.9816 61.7015 70.9105 61.6673 70.8354C61.6331 70.7604 61.6135 70.6838 61.6106 70.6129C61.6076 70.5421 61.6212 70.4792 61.6502 70.4301C61.6791 70.381 61.7226 70.3473 61.7763 70.3322C62.363 70.1789 62.903 70.2689 63.3963 70.6022C63.4898 70.6666 63.5582 70.7992 63.5922 70.9819C63.6263 71.1645 63.6242 71.3882 63.5863 71.6222C63.0063 75.2722 57.5763 73.9522 58.9663 76.4422C59.1863 76.8356 59.0797 76.9622 58.6463 76.8222L54.3863 75.4122C53.7263 75.1989 53.6863 74.9122 54.2663 74.5522C54.8863 74.1656 55.5363 74.1689 56.2163 74.5622C56.2851 74.6029 56.3611 74.6335 56.4376 74.6514C56.5142 74.6694 56.5891 74.6741 56.656 74.6653C56.7228 74.6565 56.7796 74.6343 56.8214 74.6006C56.8633 74.567 56.889 74.523 56.8963 74.4722Z" fill="#475179"/>
<path d="M53.6742 72.5926C54.7014 72.5765 55.5301 72.3127 55.5252 72.0035C55.5204 71.6942 54.6838 71.4566 53.6566 71.4727C52.6295 71.4889 51.8008 71.7526 51.8057 72.0619C51.8105 72.3711 52.6471 72.6087 53.6742 72.5926Z" fill="#616993"/>
<path d="M12.0846 76.1937C12.8646 75.8137 13.248 76.3403 13.2346 77.7737C13.232 77.9863 13.1938 78.1851 13.1247 78.3463C13.0555 78.5076 12.9584 78.6247 12.8446 78.6837C11.4846 79.4103 11.0513 78.8703 11.5446 77.0637C11.6059 76.8457 11.6877 76.6514 11.7822 76.4991C11.8767 76.3468 11.9808 76.2417 12.0846 76.1937Z" fill="#475179"/>
<path d="M66.3046 78.1828C65.598 77.3828 65.718 77.1028 66.6646 77.3428L68.5446 77.8128C69.178 77.9728 69.2979 78.1995 68.9046 78.4928C67.9713 79.1862 67.1046 79.0828 66.3046 78.1828Z" fill="#475179"/>
</svg>
