<svg width="140" height="134" viewBox="0 0 140 134" fill="none" xmlns="http://www.w3.org/2000/svg">
<path d="M18.8233 20.7026C9.74995 28.956 4.09661 39.136 1.86328 51.2426" stroke="#FAAD9C" stroke-width="2"/>
<path d="M1.8655 51.2424C-0.681163 68.2491 2.39217 84.0091 11.0855 98.5224C25.3655 122.352 53.9755 136.942 81.8255 131.482C123.335 123.342 149.716 79.1224 133.646 38.9524C127.576 23.7624 118.035 11.9624 102.495 6.29244C75.6655 -3.51756 40.1655 -0.227552 18.8255 20.7024" stroke="#FEB7A6" stroke-width="2"/>
<path d="M1.86328 51.2426C2.49661 51.3293 3.07995 51.2326 3.61328 50.9526C3.74071 50.8847 3.8523 50.7797 3.93913 50.646C4.02595 50.5123 4.08559 50.3536 4.11328 50.1826C5.95328 38.6026 11.8433 31.2126 19.2833 21.7126C19.5833 21.326 19.4299 20.9893 18.8233 20.7026" stroke="#FA6854" stroke-width="2"/>
<path d="M70.4909 15.5056C70.4359 15.382 70.3148 15.2893 70.1345 15.2328C69.9543 15.1762 69.7183 15.157 69.4402 15.1761C69.1621 15.1952 68.8472 15.2524 68.5136 15.3443C68.18 15.4361 67.8342 15.5609 67.4958 15.7115C67.1575 15.8622 66.8333 16.0357 66.5418 16.2221C66.2503 16.4086 65.9972 16.6043 65.7968 16.7982C65.5965 16.9921 65.4529 17.1803 65.3743 17.3522C65.2957 17.524 65.2835 17.676 65.3385 17.7996C65.3935 17.9231 65.5146 18.0158 65.6949 18.0723C65.8752 18.1289 66.1112 18.1481 66.3893 18.129C66.6674 18.1099 66.9823 18.0527 67.3159 17.9609C67.6495 17.869 67.9953 17.7442 68.3336 17.5935C68.672 17.4429 68.9961 17.2694 69.2877 17.083C69.5792 16.8965 69.8323 16.7008 70.0326 16.5069C70.233 16.313 70.3766 16.1248 70.4552 15.953C70.5338 15.7811 70.546 15.6291 70.4909 15.5056Z" stroke="#FB9570" stroke-width="2"/>
<path d="M90.432 19.4192C90.5248 19.2822 90.5453 19.0982 90.4925 18.8778C90.4396 18.6574 90.3144 18.4049 90.1239 18.1346C89.9335 17.8644 89.6815 17.5817 89.3825 17.3027C89.0834 17.0238 88.7431 16.754 88.381 16.5089C88.0189 16.2637 87.642 16.0479 87.272 15.8739C86.9019 15.6998 86.5459 15.5708 86.2243 15.4944C85.9027 15.4179 85.6217 15.3954 85.3974 15.4282C85.1731 15.461 85.01 15.5483 84.9172 15.6854C84.8244 15.8224 84.8039 16.0063 84.8567 16.2268C84.9096 16.4472 85.0348 16.6997 85.2253 16.9699C85.4157 17.2402 85.6677 17.5229 85.9667 17.8018C86.2658 18.0807 86.6061 18.3505 86.9682 18.5957C87.3303 18.8408 87.7072 19.0566 88.0772 19.2307C88.4472 19.4047 88.8033 19.5337 89.1249 19.6102C89.4465 19.6866 89.7275 19.7091 89.9518 19.6764C90.1761 19.6436 90.3392 19.5562 90.432 19.4192Z" stroke="#FC8D67" stroke-width="2"/>
<path d="M60.8854 24.4322C60.3188 23.9522 59.6921 23.8556 59.0054 24.1422C58.7979 24.2314 58.6173 24.3442 58.4859 24.4668C58.3544 24.5894 58.2778 24.7164 58.2654 24.8322C57.8588 29.0322 58.8354 29.3222 61.1954 25.7022C61.3112 25.5223 61.3436 25.2943 61.2865 25.0606C61.2295 24.8269 61.0869 24.6036 60.8854 24.4322Z" stroke="#FB9570" stroke-width="2"/>
<path d="M42.094 31.5646C42.2201 31.6012 42.3646 31.5699 42.5192 31.4725C42.6739 31.3751 42.8356 31.2135 42.9953 30.9968C43.1549 30.7802 43.3093 30.5128 43.4496 30.2099C43.59 29.907 43.7135 29.5746 43.8132 29.2315C44.0144 28.5388 44.1063 27.8451 44.0685 27.3029C44.0307 26.7607 43.8664 26.4146 43.6118 26.3406C43.4857 26.3039 43.3412 26.3352 43.1865 26.4326C43.0319 26.53 42.8701 26.6916 42.7105 26.9083C42.5508 27.1249 42.3964 27.3923 42.2561 27.6952C42.1157 27.9981 41.9922 28.3305 41.8926 28.6735C41.6913 29.3663 41.5995 30.06 41.6372 30.6022C41.675 31.1444 41.8393 31.4905 42.094 31.5646Z" stroke="#FDAB7E" stroke-width="2"/>
<path d="M103.991 31.7067C104.29 31.8563 104.677 31.7992 105.067 31.5478C105.457 31.2965 105.818 30.8715 106.071 30.3664C106.324 29.8613 106.448 29.3174 106.416 28.8545C106.383 28.3915 106.197 28.0474 105.899 27.8977C105.6 27.7481 105.213 27.8053 104.823 28.0566C104.432 28.308 104.071 28.7329 103.818 29.238C103.565 29.7431 103.441 30.287 103.474 30.75C103.506 31.2129 103.692 31.5571 103.991 31.7067Z" stroke="#FB9570" stroke-width="2"/>
<path d="M77.6497 32.018C77.5516 31.9067 77.4099 31.8356 77.233 31.8089C77.056 31.7821 76.847 31.8002 76.6181 31.8622C76.3892 31.9241 76.1448 32.0286 75.8988 32.1697C75.6529 32.3109 75.4102 32.4859 75.1846 32.6848C74.729 33.0864 74.3708 33.5609 74.1888 34.0038C74.0068 34.4468 74.0159 34.822 74.2141 35.0468C74.3122 35.1581 74.4538 35.2292 74.6308 35.2559C74.8078 35.2826 75.0167 35.2645 75.2456 35.2026C75.4745 35.1407 75.7189 35.0362 75.9649 34.895C76.2109 34.7539 76.4536 34.5789 76.6792 34.38C77.1347 33.9783 77.4929 33.5039 77.6749 33.0609C77.8569 32.6179 77.8479 32.2428 77.6497 32.018Z" stroke="#FB9570" stroke-width="2"/>
<path d="M26.4954 40.5817C26.7373 40.6839 27.084 40.5101 27.4594 40.0986C27.8347 39.6872 28.2079 39.0717 28.4969 38.3877C28.64 38.0489 28.7581 37.7035 28.8444 37.3712C28.9308 37.0389 28.9837 36.7262 29.0002 36.451C29.0167 36.1757 28.9964 35.9432 28.9405 35.7669C28.8846 35.5905 28.7942 35.4737 28.6744 35.4231C28.4325 35.321 28.0858 35.4948 27.7104 35.9062C27.3351 36.3177 26.9619 36.9332 26.6729 37.6172C26.5298 37.956 26.4117 38.3014 26.3254 38.6337C26.239 38.966 26.1861 39.2787 26.1696 39.5539C26.1531 39.8292 26.1734 40.0617 26.2293 40.238C26.2852 40.4144 26.3756 40.5312 26.4954 40.5817Z" stroke="#FB9570" stroke-width="2"/>
<path d="M52.1235 44.5227C52.2901 44.5705 52.4753 44.5474 52.6684 44.4548C52.8616 44.3623 53.0589 44.202 53.2492 43.9832C53.4395 43.7644 53.6189 43.4912 53.7774 43.1795C53.9358 42.8677 54.07 42.5233 54.1725 42.1661C54.3794 41.4446 54.4441 40.7143 54.3524 40.1359C54.2607 39.5575 54.0202 39.1784 53.6837 39.0819C53.517 39.0341 53.3318 39.0571 53.1387 39.1497C52.9455 39.2422 52.7482 39.4025 52.5579 39.6213C52.3677 39.8402 52.1882 40.1133 52.0298 40.4251C51.8714 40.7368 51.7371 41.0812 51.6347 41.4385C51.4278 42.1599 51.3631 42.8902 51.4547 43.4686C51.5464 44.047 51.7869 44.4261 52.1235 44.5227Z" stroke="#FB9570" stroke-width="2"/>
<path d="M82.9423 43.9523C84.5823 46.4823 86.3123 42.3124 86.0223 40.9124C85.9023 40.3657 85.689 40.249 85.3823 40.5624L82.8823 43.0523C82.792 43.1414 82.7485 43.2801 82.7595 43.4445C82.7704 43.6089 82.8351 43.7886 82.9423 43.9523Z" stroke="#FB9570" stroke-width="2"/>
<path d="M115.153 41.9523C112.773 39.9723 112.933 44.9523 113.213 46.1223C113.233 46.2057 113.268 46.286 113.317 46.356C113.365 46.426 113.424 46.4835 113.488 46.5232C113.553 46.563 113.621 46.5837 113.686 46.5835C113.752 46.5834 113.812 46.5623 113.863 46.5223C115.036 45.5623 115.61 44.299 115.583 42.7323C115.58 42.598 115.54 42.4585 115.466 42.3237C115.392 42.1889 115.285 42.0621 115.153 41.9523Z" stroke="#FB9570" stroke-width="2"/>
<path d="M66.1552 49.7888C66.4947 49.8311 66.8432 49.6877 67.124 49.39C67.4049 49.0924 67.5951 48.6649 67.6528 48.2018C67.7104 47.7386 67.6309 47.2775 67.4316 46.9201C67.2324 46.5627 66.9297 46.3381 66.5902 46.2958C66.2507 46.2536 65.9022 46.397 65.6213 46.6947C65.3404 46.9923 65.1503 47.4197 65.0926 47.8829C65.0349 48.3461 65.1144 48.8072 65.3137 49.1646C65.513 49.522 65.8157 49.7466 66.1552 49.7888Z" stroke="#FB9570" stroke-width="2"/>
<path d="M38.926 52.4594C39.2932 52.3759 39.5955 52.0761 39.7663 51.6257C39.937 51.1754 39.9623 50.6114 39.8366 50.058C39.7108 49.5045 39.4444 49.0069 39.0958 48.6746C38.7472 48.3422 38.345 48.2024 37.9778 48.2858C37.6105 48.3692 37.3083 48.6691 37.1375 49.1194C36.9668 49.5698 36.9415 50.1337 37.0672 50.6872C37.1929 51.2406 37.4594 51.7383 37.808 52.0706C38.1566 52.403 38.5587 52.5428 38.926 52.4594Z" stroke="#FB9570" stroke-width="2"/>
<path d="M18.0243 58.7112C18.3557 58.7205 18.6818 58.4302 18.931 57.9044C19.1802 57.3785 19.332 56.6601 19.3531 55.9072C19.3741 55.1543 19.2626 54.4285 19.0432 53.8896C18.8237 53.3506 18.5143 53.0427 18.1829 53.0334C17.8515 53.0242 17.5253 53.3144 17.2761 53.8402C17.0269 54.3661 16.8751 55.0845 16.8541 55.8374C16.833 56.5903 16.9445 57.3161 17.164 57.855C17.3834 58.394 17.6929 58.7019 18.0243 58.7112Z" stroke="#FB9570" stroke-width="2"/>
<path d="M101.603 57.6508C101.487 57.287 101.187 56.9983 100.769 56.8483C100.351 56.6982 99.8497 56.6991 99.3747 56.8506C98.8997 57.0022 98.4903 57.2922 98.2365 57.6566C97.9827 58.0211 97.9054 58.4302 98.0215 58.7941C98.1376 59.1579 98.4377 59.4466 98.8556 59.5966C99.2736 59.7467 99.7753 59.7459 100.25 59.5943C100.725 59.4427 101.135 59.1528 101.388 58.7883C101.642 58.4238 101.72 58.0147 101.603 57.6508Z" stroke="#FB9570" stroke-width="2"/>
<path d="M51.5077 60.6466C51.8331 60.5991 52.1225 60.3983 52.3123 60.0882C52.5021 59.7781 52.5766 59.3843 52.5196 58.9932C52.4914 58.7996 52.4316 58.6125 52.3439 58.4426C52.2561 58.2728 52.142 58.1234 52.0081 58.0031C51.8742 57.8828 51.7231 57.7939 51.5634 57.7416C51.4037 57.6892 51.2386 57.6743 51.0775 57.6978C50.7521 57.7453 50.4626 57.9462 50.2729 58.2563C50.0831 58.5664 50.0085 58.9602 50.0656 59.3512C50.0938 59.5449 50.1536 59.732 50.2413 59.9018C50.3291 60.0717 50.4432 60.2211 50.5771 60.3414C50.711 60.4617 50.8621 60.5505 51.0218 60.6029C51.1814 60.6553 51.3466 60.6701 51.5077 60.6466Z" stroke="#FB9570" stroke-width="2"/>
<path d="M118.751 66.6116C119.153 66.7384 119.615 66.6188 120.034 66.2792C120.454 65.9396 120.797 65.4078 120.989 64.8008C121.18 64.1937 121.204 63.5612 121.055 63.0423C120.906 62.5234 120.596 62.1606 120.194 62.0338C119.792 61.907 119.33 62.0265 118.91 62.3661C118.491 62.7057 118.147 63.2375 117.956 63.8446C117.765 64.4516 117.741 65.0842 117.89 65.6031C118.039 66.122 118.348 66.4848 118.751 66.6116Z" stroke="#FC8D67" stroke-width="2"/>
<path d="M81.298 65.6052C81.4669 65.58 81.628 65.5146 81.7723 65.4128C81.9166 65.3109 82.0411 65.1746 82.1388 65.0117C82.2365 64.8487 82.3055 64.6623 82.3417 64.4631C82.378 64.2638 82.3809 64.0556 82.3502 63.8504C82.2883 63.436 82.0934 63.0588 81.8085 62.8018C81.5236 62.5448 81.172 62.4291 80.8311 62.48C80.6622 62.5053 80.501 62.5707 80.3568 62.6725C80.2125 62.7743 80.088 62.9106 79.9903 63.0736C79.8926 63.2365 79.8236 63.423 79.7873 63.6222C79.7511 63.8215 79.7482 64.0296 79.7789 64.2348C79.8408 64.6492 80.0357 65.0264 80.3206 65.2834C80.6055 65.5404 80.9571 65.6562 81.298 65.6052Z" stroke="#FAA96C" stroke-width="2"/>
<path d="M68.4788 65.9081C68.7014 65.7545 68.8019 65.4433 68.7581 65.0429C68.7143 64.6425 68.5298 64.1858 68.2452 63.7732C67.9605 63.3606 67.5991 63.0259 67.2404 62.8428C66.8817 62.6597 66.5551 62.6431 66.3324 62.7967C66.1097 62.9503 66.0092 63.2615 66.053 63.6619C66.0968 64.0623 66.2813 64.519 66.566 64.9316C66.8506 65.3442 67.2121 65.6789 67.5708 65.862C67.9295 66.0451 68.2561 66.0617 68.4788 65.9081Z" stroke="#FB9570" stroke-width="2"/>
<path d="M22.8847 70.1623C22.8749 70.3118 22.903 70.4611 22.9663 70.5969C23.0296 70.7327 23.1262 70.8507 23.2473 70.94C23.3685 71.0294 23.5103 71.0874 23.66 71.1087C23.8097 71.1301 23.9626 71.1141 24.1047 71.0623C25.6547 70.5023 24.3847 65.2223 23.4647 65.7223C23.3551 65.7832 23.2614 65.8863 23.1929 66.0215C23.1245 66.1566 23.0837 66.3189 23.0747 66.4923L22.8847 70.1623Z" stroke="#FB9570" stroke-width="2"/>
<path d="M37.143 69.8851C37.4413 69.9345 37.7621 69.7719 38.0349 69.4331C38.3077 69.0942 38.5101 68.607 38.5976 68.0784C38.6409 67.8167 38.6547 67.5527 38.6382 67.3016C38.6217 67.0504 38.5753 66.817 38.5015 66.6147C38.4276 66.4123 38.328 66.245 38.2081 66.1222C38.0882 65.9995 37.9505 65.9238 37.8028 65.8993C37.5045 65.8499 37.1837 66.0125 36.9109 66.3514C36.6381 66.6902 36.4357 67.1775 36.3482 67.706C36.3048 67.9677 36.291 68.2317 36.3075 68.4828C36.324 68.734 36.3705 68.9674 36.4443 69.1698C36.5181 69.3721 36.6178 69.5394 36.7377 69.6622C36.8576 69.7849 36.9953 69.8607 37.143 69.8851Z" stroke="#FB9570" stroke-width="2"/>
<path d="M101.245 75.0072C101.325 74.8981 101.353 74.7521 101.326 74.5776C101.299 74.4032 101.219 74.2037 101.089 73.9905C100.96 73.7773 100.784 73.5546 100.572 73.3351C100.36 73.1156 100.115 72.9037 99.8524 72.7113C99.5895 72.519 99.3136 72.35 99.0402 72.2141C98.7668 72.0781 98.5014 71.9779 98.259 71.9191C98.0167 71.8602 97.8022 71.844 97.6279 71.8712C97.4535 71.8985 97.3226 71.9687 97.2427 72.0778C97.1629 72.187 97.1355 72.333 97.1623 72.5074C97.1891 72.6819 97.2694 72.8814 97.3988 73.0946C97.5281 73.3078 97.7039 73.5305 97.9162 73.7499C98.1284 73.9694 98.3729 74.1814 98.6358 74.3737C98.8986 74.5661 99.1745 74.735 99.4479 74.871C99.7213 75.0069 99.9867 75.1072 100.229 75.166C100.471 75.2248 100.686 75.2411 100.86 75.2138C101.035 75.1866 101.165 75.1164 101.245 75.0072Z" stroke="#FB9570" stroke-width="2"/>
<path d="M44.5853 80.7123C44.6332 80.7193 44.6823 80.7139 44.7296 80.6965C44.7769 80.679 44.8215 80.6498 44.8607 80.6106C44.8999 80.5714 44.9329 80.523 44.9577 80.4683C44.9826 80.4136 44.9988 80.3537 45.0053 80.2923C45.4053 76.4189 44.7053 75.6423 42.9053 77.9623C42.802 78.0936 42.7412 78.281 42.7289 78.5056C42.7166 78.7303 42.7533 78.9843 42.8353 79.2423C43.1087 80.0956 43.692 80.5856 44.5853 80.7123Z" stroke="#FDAB7E" stroke-width="2"/>
<path d="M23.963 86.2876C24.252 86.1422 24.4294 85.8041 24.4559 85.3478C24.4825 84.8915 24.3562 84.3543 24.1048 83.8544C23.9803 83.6068 23.8288 83.3759 23.659 83.1747C23.4892 82.9736 23.3044 82.8062 23.1151 82.682C22.9259 82.5579 22.7359 82.4795 22.556 82.4512C22.3762 82.423 22.2099 82.4456 22.0668 82.5176C21.7777 82.663 21.6004 83.001 21.5738 83.4573C21.5472 83.9136 21.6735 84.4508 21.925 84.9508C22.0495 85.1983 22.201 85.4293 22.3708 85.6304C22.5406 85.8316 22.7254 85.999 22.9146 86.1231C23.1039 86.2473 23.2938 86.3256 23.4737 86.3539C23.6536 86.3821 23.8199 86.3596 23.963 86.2876Z" stroke="#FB9570" stroke-width="2"/>
<path d="M57.9117 83.1631C57.8057 82.8856 57.5388 82.6826 57.1695 82.5988C56.8002 82.515 56.3589 82.5572 55.9427 82.7161C55.5265 82.8751 55.1693 83.1377 54.9499 83.4463C54.7305 83.755 54.6668 84.0842 54.7727 84.3617C54.8787 84.6392 55.1456 84.8422 55.5149 84.9261C55.8842 85.0099 56.3254 84.9677 56.7417 84.8087C57.1579 84.6498 57.5151 84.3871 57.7345 84.0785C57.9539 83.7699 58.0176 83.4406 57.9117 83.1631Z" stroke="#FDAB7E" stroke-width="2"/>
<path d="M73.523 85.6743C73.5924 85.5491 73.6265 85.406 73.6234 85.253C73.6203 85.1001 73.5799 84.9403 73.5047 84.7829C73.4295 84.6255 73.3209 84.4735 73.1851 84.3356C73.0493 84.1977 72.889 84.0766 72.7132 83.9792C72.3584 83.7825 71.9623 83.6942 71.6123 83.7339C71.2622 83.7736 70.9868 83.9379 70.8466 84.1907C70.7773 84.3159 70.7432 84.4591 70.7463 84.612C70.7494 84.765 70.7898 84.9247 70.865 85.0821C70.9402 85.2395 71.0488 85.3915 71.1846 85.5294C71.3204 85.6673 71.4807 85.7884 71.6564 85.8858C72.0113 86.0825 72.4074 86.1708 72.7574 86.1311C73.1075 86.0915 73.3829 85.9271 73.523 85.6743Z" stroke="#FDAB7E" stroke-width="2"/>
<path d="M40.5659 100.38C40.6765 100.273 40.739 100.119 40.75 99.926C40.761 99.733 40.7202 99.5051 40.63 99.2553C40.5398 99.0055 40.4019 98.7387 40.2242 98.47C40.0465 98.2014 39.8325 97.9362 39.5944 97.6896C39.3563 97.4431 39.0988 97.22 38.8365 97.033C38.5743 96.8461 38.3124 96.699 38.0659 96.6001C37.8194 96.5012 37.593 96.4525 37.3998 96.4568C37.2066 96.4611 37.0502 96.5182 36.9397 96.625C36.8292 96.7317 36.7667 96.8859 36.7557 97.0789C36.7447 97.2719 36.7854 97.4998 36.8757 97.7496C36.9659 97.9994 37.1037 98.2663 37.2814 98.5349C37.4591 98.8035 37.6731 99.0687 37.9112 99.3153C38.1493 99.5618 38.4069 99.7849 38.6691 99.9719C38.9314 100.159 39.1933 100.306 39.4398 100.405C39.6863 100.504 39.9126 100.552 40.1058 100.548C40.2991 100.544 40.4554 100.487 40.5659 100.38Z" stroke="#FB9570" stroke-width="2"/>
<path d="M103.784 98.1728C103.691 98.054 103.53 97.99 103.311 97.9847C103.091 97.9794 102.818 98.0328 102.506 98.1419C102.193 98.2509 101.849 98.4135 101.491 98.6203C101.134 98.8271 100.771 99.0741 100.422 99.3472C100.074 99.6203 99.7476 99.9141 99.4616 100.212C99.1755 100.51 98.9354 100.806 98.755 101.083C98.5746 101.36 98.4575 101.613 98.4103 101.827C98.3631 102.041 98.3868 102.213 98.48 102.332C98.5732 102.45 98.734 102.514 98.9534 102.52C99.1728 102.525 99.4463 102.472 99.7585 102.363C100.071 102.253 100.415 102.091 100.773 101.884C101.13 101.677 101.493 101.43 101.842 101.157C102.19 100.884 102.516 100.59 102.802 100.293C103.089 99.9948 103.329 99.6989 103.509 99.4218C103.689 99.1446 103.807 98.8917 103.854 98.6774C103.901 98.4631 103.877 98.2917 103.784 98.1728Z" stroke="#FB9570" stroke-width="2"/>
<path d="M70.1789 102.559C70.3764 102.337 70.3654 101.946 70.148 101.471C69.9307 100.996 69.525 100.476 69.0201 100.026C68.77 99.8035 68.5032 99.6045 68.2347 99.4407C67.9663 99.2769 67.7015 99.1515 67.4555 99.0716C67.2096 98.9918 66.9872 98.959 66.8011 98.9752C66.615 98.9914 66.4689 99.0563 66.3711 99.1661C66.1735 99.3879 66.1845 99.7793 66.4019 100.254C66.6192 100.729 67.0249 101.249 67.5299 101.699C67.7799 101.921 68.0467 102.12 68.3152 102.284C68.5836 102.448 68.8484 102.573 69.0944 102.653C69.3403 102.733 69.5627 102.766 69.7488 102.75C69.9349 102.733 70.081 102.669 70.1789 102.559Z" stroke="#FB9570" stroke-width="2"/>
<path d="M1.8655 51.242C2.49884 51.3286 3.08217 51.2319 3.6155 50.9519C3.74293 50.884 3.85452 50.779 3.94135 50.6453C4.02817 50.5116 4.08782 50.3529 4.1155 50.182C5.9555 38.602 11.8455 31.212 19.2855 21.712C19.5855 21.3253 19.4322 20.9886 18.8255 20.702C40.1655 -0.228041 75.6655 -3.51804 102.495 6.29196C118.035 11.962 127.576 23.762 133.646 38.952C149.716 79.122 123.335 123.342 81.8255 131.482C53.9755 136.942 25.3655 122.352 11.0855 98.5219C2.39217 84.0086 -0.681163 68.2486 1.8655 51.242ZM70.4917 15.505C70.4367 15.3814 70.3156 15.2887 70.1353 15.2322C69.955 15.1756 69.7191 15.1564 69.4409 15.1755C69.1628 15.1946 68.848 15.2518 68.5144 15.3437C68.1807 15.4355 67.8349 15.5603 67.4966 15.7109C67.1583 15.8616 66.8341 16.0351 66.5426 16.2215C66.2511 16.408 65.9979 16.6037 65.7976 16.7976C65.5973 16.9915 65.4537 17.1797 65.3751 17.3516C65.2964 17.5234 65.2843 17.6754 65.3393 17.799C65.3943 17.9225 65.5154 18.0152 65.6957 18.0717C65.876 18.1283 66.1119 18.1475 66.39 18.1284C66.6682 18.1093 66.983 18.0521 67.3166 17.9603C67.6502 17.8684 67.9961 17.7436 68.3344 17.593C68.6727 17.4423 68.9969 17.2688 69.2884 17.0824C69.5799 16.8959 69.8331 16.7002 70.0334 16.5063C70.2337 16.3124 70.3773 16.1242 70.4559 15.9524C70.5346 15.7805 70.5467 15.6285 70.4917 15.505ZM90.4329 19.4188C90.5257 19.2818 90.5462 19.0979 90.4934 18.8775C90.4405 18.6571 90.3153 18.4045 90.1248 18.1343C89.9344 17.864 89.6824 17.5814 89.3834 17.3024C89.0843 17.0235 88.744 16.7537 88.3819 16.5086C88.0198 16.2634 87.643 16.0476 87.2729 15.8735C86.9029 15.6995 86.5468 15.5705 86.2252 15.4941C85.9036 15.4176 85.6226 15.3951 85.3983 15.4279C85.174 15.4606 85.0109 15.548 84.9181 15.6851C84.8253 15.8221 84.8048 16.006 84.8576 16.2264C84.9105 16.4468 85.0357 16.6994 85.2262 16.9696C85.4166 17.2399 85.6686 17.5225 85.9676 17.8015C86.2667 18.0804 86.607 18.3502 86.9691 18.5953C87.3312 18.8405 87.7081 19.0563 88.0781 19.2304C88.4482 19.4044 88.8042 19.5334 89.1258 19.6098C89.4474 19.6863 89.7284 19.7088 89.9527 19.676C90.177 19.6433 90.3401 19.5559 90.4329 19.4188ZM60.8855 24.432C60.3188 23.952 59.6922 23.8553 59.0055 24.1419C58.798 24.2312 58.6174 24.344 58.486 24.4665C58.3545 24.5891 58.2779 24.7161 58.2655 24.8319C57.8588 29.0319 58.8355 29.322 61.1955 25.702C61.3112 25.5221 61.3436 25.294 61.2866 25.0603C61.2295 24.8266 61.087 24.6033 60.8855 24.432ZM42.0966 31.564C42.2227 31.6006 42.3672 31.5693 42.5219 31.4719C42.6765 31.3745 42.8383 31.2129 42.9979 30.9962C43.1576 30.7796 43.312 30.5122 43.4523 30.2093C43.5926 29.9064 43.7161 29.574 43.8158 29.231C44.0171 28.5382 44.1089 27.8445 44.0711 27.3023C44.0334 26.7601 43.8691 26.414 43.6144 26.34C43.4883 26.3033 43.3438 26.3346 43.1892 26.432C43.0345 26.5294 42.8727 26.691 42.7131 26.9077C42.5534 27.1243 42.3991 27.3917 42.2587 27.6946C42.1184 27.9975 41.9949 28.3299 41.8952 28.673C41.6939 29.3657 41.6021 30.0594 41.6399 30.6016C41.6776 31.1438 41.8419 31.4899 42.0966 31.564ZM103.992 31.7064C104.291 31.8561 104.678 31.7989 105.068 31.5476C105.458 31.2962 105.819 30.8713 106.072 30.3662C106.325 29.861 106.449 29.3172 106.416 28.8542C106.384 28.3912 106.198 28.0471 105.899 27.8975C105.6 27.7478 105.213 27.805 104.823 28.0563C104.433 28.3077 104.072 28.7327 103.819 29.2378C103.566 29.7429 103.442 30.2867 103.475 30.7497C103.507 31.2127 103.693 31.5568 103.992 31.7064ZM77.6533 32.0176C77.5552 31.9062 77.4136 31.8352 77.2366 31.8084C77.0596 31.7817 76.8507 31.7998 76.6217 31.8617C76.3928 31.9237 76.1484 32.0282 75.9025 32.1693C75.6565 32.3105 75.4138 32.4855 75.1882 32.6844C74.7326 33.086 74.3745 33.5605 74.1924 34.0034C74.0104 34.4464 74.0195 34.8215 74.2177 35.0463C74.3158 35.1577 74.4574 35.2287 74.6344 35.2555C74.8114 35.2822 75.0203 35.2641 75.2493 35.2022C75.4782 35.1403 75.7226 35.0357 75.9685 34.8946C76.2145 34.7534 76.4572 34.5784 76.6828 34.3796C77.1384 33.9779 77.4966 33.5034 77.6786 33.0605C77.8606 32.6175 77.8515 32.2424 77.6533 32.0176ZM26.496 40.5812C26.7379 40.6834 27.0846 40.5096 27.46 40.0982C27.8353 39.6867 28.2085 39.0712 28.4975 38.3872C28.6406 38.0484 28.7587 37.703 28.845 37.3708C28.9314 37.0385 28.9843 36.7257 29.0008 36.4505C29.0173 36.1752 28.997 35.9427 28.9411 35.7664C28.8852 35.59 28.7948 35.4732 28.675 35.4226C28.4331 35.3205 28.0864 35.4943 27.711 35.9057C27.3357 36.3172 26.9625 36.9327 26.6735 37.6168C26.5304 37.9555 26.4123 38.3009 26.326 38.6332C26.2396 38.9655 26.1867 39.2782 26.1702 39.5534C26.1537 39.8287 26.174 40.0612 26.2299 40.2375C26.2858 40.4139 26.3762 40.5307 26.496 40.5812ZM52.1254 44.5223C52.292 44.5701 52.4772 44.5471 52.6704 44.4545C52.8635 44.362 53.0609 44.2017 53.2511 43.9829C53.4414 43.7641 53.6209 43.4909 53.7793 43.1791C53.9377 42.8674 54.072 42.523 54.1744 42.1657C54.3813 41.4443 54.446 40.714 54.3543 40.1356C54.2627 39.5572 54.0221 39.1781 53.6856 39.0816C53.519 39.0338 53.3338 39.0568 53.1406 39.1494C52.9475 39.2419 52.7501 39.4022 52.5599 39.621C52.3696 39.8399 52.1901 40.113 52.0317 40.4248C51.8733 40.7365 51.739 41.0809 51.6366 41.4381C51.4297 42.1596 51.365 42.8899 51.4567 43.4683C51.5483 44.0467 51.7889 44.4258 52.1254 44.5223ZM82.9455 43.9519C84.5855 46.4819 86.3155 42.312 86.0255 40.912C85.9055 40.3653 85.6922 40.2486 85.3855 40.562L82.8855 43.0519C82.7951 43.141 82.7517 43.2797 82.7626 43.4441C82.7736 43.6085 82.8383 43.7882 82.9455 43.9519ZM115.156 41.9519C112.776 39.9719 112.936 44.952 113.215 46.122C113.235 46.2053 113.271 46.2856 113.319 46.3557C113.367 46.4257 113.426 46.4832 113.491 46.5229C113.555 46.5626 113.623 46.5833 113.689 46.5832C113.754 46.583 113.815 46.562 113.865 46.5219C115.039 45.562 115.612 44.2986 115.585 42.7319C115.583 42.5977 115.543 42.4582 115.468 42.3234C115.394 42.1885 115.287 42.0617 115.156 41.9519ZM66.158 49.7885C66.4975 49.8307 66.846 49.6873 67.1269 49.3896C67.4077 49.092 67.5979 48.6646 67.6556 48.2014C67.7133 47.7382 67.6337 47.2771 67.4345 46.9197C67.2352 46.5623 66.9325 46.3377 66.593 46.2954C66.2535 46.2532 65.905 46.3966 65.6241 46.6943C65.3433 46.9919 65.1531 47.4193 65.0954 47.8825C65.0377 48.3457 65.1173 48.8068 65.3165 49.1642C65.5158 49.5216 65.8185 49.7462 66.158 49.7885ZM38.9296 52.4587C39.2968 52.3753 39.5991 52.0754 39.7699 51.6251C39.9406 51.1748 39.9659 50.6108 39.8402 50.0574C39.7145 49.5039 39.448 49.0063 39.0994 48.6739C38.7508 48.3416 38.3486 48.2017 37.9814 48.2852C37.6142 48.3686 37.3119 48.6685 37.1411 49.1188C36.9704 49.5692 36.9451 50.1331 37.0708 50.6866C37.1965 51.24 37.463 51.7376 37.8116 52.07C38.1602 52.4023 38.5624 52.5422 38.9296 52.4587ZM18.0262 58.7109C18.3576 58.7201 18.6838 58.4299 18.933 57.904C19.1822 57.3782 19.334 56.6598 19.355 55.9068C19.376 55.1539 19.2646 54.4282 19.0451 53.8892C18.8257 53.3503 18.5162 53.0423 18.1848 53.0331C17.8534 53.0238 17.5272 53.314 17.278 53.8399C17.0288 54.3657 16.877 55.0841 16.856 55.837C16.835 56.59 16.9464 57.3157 17.1659 57.8547C17.3853 58.3936 17.6948 58.7016 18.0262 58.7109ZM101.607 57.6503C101.49 57.2865 101.19 56.9978 100.772 56.8478C100.354 56.6977 99.8527 56.6985 99.3777 56.8501C98.9027 57.0017 98.4933 57.2916 98.2395 57.6561C97.9857 58.0206 97.9084 58.4297 98.0245 58.7936C98.1406 59.1574 98.4407 59.4461 98.8587 59.5961C99.2766 59.7462 99.7783 59.7453 100.253 59.5938C100.728 59.4422 101.138 59.1522 101.391 58.7878C101.645 58.4233 101.723 58.0142 101.607 57.6503ZM51.5106 60.6463C51.836 60.5989 52.1255 60.398 52.3152 60.0879C52.505 59.7779 52.5796 59.384 52.5225 58.993C52.4943 58.7993 52.4345 58.6122 52.3468 58.4424C52.259 58.2725 52.1449 58.1231 52.011 58.0028C51.8771 57.8825 51.726 57.7937 51.5663 57.7413C51.4067 57.6889 51.2415 57.674 51.0804 57.6975C50.755 57.745 50.4656 57.9459 50.2758 58.256C50.086 58.5661 50.0115 58.9599 50.0685 59.351C50.0967 59.5446 50.1565 59.7317 50.2442 59.9016C50.332 60.0714 50.4461 60.2208 50.58 60.3411C50.7139 60.4614 50.865 60.5502 51.0247 60.6026C51.1844 60.655 51.3495 60.6698 51.5106 60.6463ZM118.754 66.6108C119.156 66.7376 119.618 66.6181 120.037 66.2785C120.457 65.9389 120.8 65.4071 120.992 64.8001C121.183 64.193 121.207 63.5605 121.058 63.0415C120.909 62.5226 120.599 62.1599 120.197 62.0331C119.795 61.9063 119.333 62.0258 118.914 62.3654C118.494 62.705 118.151 63.2368 117.959 63.8438C117.768 64.4509 117.744 65.0835 117.893 65.6024C118.042 66.1213 118.352 66.484 118.754 66.6108ZM81.299 65.6046C81.4678 65.5793 81.629 65.5139 81.7733 65.4121C81.9175 65.3102 82.042 65.1739 82.1398 65.011C82.2375 64.848 82.3064 64.6616 82.3427 64.4624C82.379 64.2631 82.3819 64.055 82.3512 63.8497C82.2892 63.4353 82.0944 63.0582 81.8095 62.8012C81.5246 62.5442 81.173 62.4284 80.832 62.4793C80.6632 62.5046 80.502 62.57 80.3577 62.6718C80.2135 62.7737 80.089 62.91 79.9912 63.0729C79.8935 63.2359 79.8246 63.4223 79.7883 63.6215C79.752 63.8208 79.7491 64.0289 79.7798 64.2341C79.8418 64.6485 80.0366 65.0258 80.3215 65.2828C80.6064 65.5397 80.958 65.6555 81.299 65.6046ZM68.4787 65.9077C68.7014 65.7541 68.8019 65.4428 68.7581 65.0425C68.7142 64.6421 68.5297 64.1853 68.2451 63.7727C67.9605 63.3601 67.599 63.0255 67.2403 62.8424C66.8816 62.6592 66.555 62.6426 66.3323 62.7962C66.1096 62.9499 66.0091 63.2611 66.0529 63.6614C66.0968 64.0618 66.2813 64.5186 66.5659 64.9312C66.8505 65.3438 67.212 65.6784 67.5707 65.8615C67.9294 66.0447 68.256 66.0613 68.4787 65.9077ZM22.8855 70.162C22.8757 70.3114 22.9037 70.4608 22.967 70.5966C23.0304 70.7324 23.127 70.8503 23.2481 70.9397C23.3692 71.029 23.5111 71.087 23.6608 71.1084C23.8105 71.1297 23.9634 71.1138 24.1055 71.062C25.6555 70.502 24.3855 65.222 23.4655 65.722C23.3559 65.7828 23.2622 65.886 23.1937 66.0211C23.1253 66.1562 23.0845 66.3186 23.0755 66.492L22.8855 70.162ZM37.1456 69.8849C37.4439 69.9342 37.7647 69.7716 38.0375 69.4328C38.3103 69.094 38.5127 68.6067 38.6002 68.0782C38.6435 67.8165 38.6574 67.5525 38.6409 67.3013C38.6244 67.0502 38.5779 66.8168 38.5041 66.6144C38.4303 66.4121 38.3306 66.2447 38.2107 66.122C38.0908 65.9992 37.9531 65.9235 37.8054 65.8991C37.5071 65.8497 37.1863 66.0123 36.9135 66.3511C36.6407 66.6899 36.4383 67.1772 36.3508 67.7058C36.3075 67.9675 36.2937 68.2314 36.3102 68.4826C36.3266 68.7337 36.3731 68.9672 36.4469 69.1695C36.5207 69.3718 36.6204 69.5392 36.7403 69.6619C36.8602 69.7846 36.9979 69.8604 37.1456 69.8849ZM101.247 75.0067C101.327 74.8975 101.354 74.7515 101.327 74.5771C101.3 74.4026 101.22 74.2031 101.091 73.9899C100.961 73.7767 100.786 73.554 100.573 73.3345C100.361 73.1151 100.117 72.9031 99.8538 72.7108C99.591 72.5184 99.315 72.3494 99.0416 72.2135C98.7682 72.0776 98.5028 71.9773 98.2605 71.9185C98.0182 71.8597 97.8037 71.8434 97.6293 71.8706C97.4549 71.8979 97.3241 71.9681 97.2442 72.0772C97.1643 72.1864 97.137 72.3324 97.1638 72.5068C97.1905 72.6813 97.2709 72.8808 97.4002 73.094C97.5296 73.3072 97.7054 73.5299 97.9176 73.7494C98.1299 73.9688 98.3744 74.1808 98.6372 74.3731C98.9 74.5655 99.176 74.7345 99.4494 74.8704C99.7228 75.0063 99.9882 75.1066 100.231 75.1654C100.473 75.2242 100.687 75.2405 100.862 75.2133C101.036 75.186 101.167 75.1158 101.247 75.0067ZM44.5855 80.712C44.6334 80.719 44.6824 80.7136 44.7297 80.6961C44.777 80.6786 44.8216 80.6494 44.8608 80.6102C44.9 80.571 44.933 80.5227 44.9579 80.468C44.9827 80.4133 44.9989 80.3534 45.0055 80.2919C45.4055 76.4186 44.7055 75.642 42.9055 77.962C42.8022 78.0932 42.7413 78.2806 42.729 78.5053C42.7168 78.7299 42.7535 78.984 42.8355 79.242C43.1088 80.0953 43.6922 80.5853 44.5855 80.712ZM23.9636 86.287C24.2527 86.1416 24.43 85.8035 24.4566 85.3472C24.4832 84.8909 24.3569 84.3537 24.1054 83.8537C23.9809 83.6062 23.8294 83.3753 23.6596 83.1741C23.4898 82.973 23.305 82.8055 23.1158 82.6814C22.9265 82.5573 22.7365 82.4788 22.5567 82.4506C22.3768 82.4224 22.2105 82.4449 22.0674 82.5169C21.7783 82.6623 21.601 83.0004 21.5744 83.4567C21.5478 83.913 21.6742 84.4502 21.9256 84.9501C22.0501 85.1977 22.2016 85.4286 22.3714 85.6298C22.5412 85.8309 22.726 85.9984 22.9152 86.1225C23.1045 86.2466 23.2945 86.325 23.4744 86.3532C23.6542 86.3815 23.8205 86.359 23.9636 86.287ZM57.915 83.1626C57.809 82.8851 57.5421 82.6822 57.1728 82.5983C56.8036 82.5145 56.3623 82.5567 55.946 82.7156C55.5298 82.8746 55.1726 83.1373 54.9532 83.4459C54.7338 83.7545 54.6701 84.0837 54.776 84.3612C54.882 84.6387 55.1489 84.8417 55.5182 84.9256C55.8875 85.0094 56.3288 84.9672 56.745 84.8083C57.1612 84.6493 57.5184 84.3867 57.7378 84.078C57.9572 83.7694 58.0209 83.4401 57.915 83.1626ZM73.5237 85.6737C73.5931 85.5485 73.6272 85.4054 73.6241 85.2524C73.6209 85.0995 73.5806 84.9398 73.5054 84.7824C73.4302 84.625 73.3216 84.473 73.1858 84.3351C73.05 84.1972 72.8896 84.076 72.7139 83.9786C72.359 83.7819 71.963 83.6937 71.6129 83.7333C71.2629 83.773 70.9875 83.9373 70.8473 84.1902C70.7779 84.3154 70.7438 84.4585 70.7469 84.6115C70.7501 84.7644 70.7904 84.9241 70.8656 85.0815C70.9408 85.2389 71.0494 85.3909 71.1852 85.5288C71.321 85.6667 71.4814 85.7879 71.6571 85.8853C72.012 86.082 72.408 86.1702 72.7581 86.1306C73.1081 86.0909 73.3835 85.9266 73.5237 85.6737ZM40.5686 100.379C40.6791 100.273 40.7417 100.118 40.7527 99.9255C40.7637 99.7325 40.7229 99.5046 40.6327 99.2548C40.5425 99.005 40.4046 98.7382 40.2269 98.4695C40.0492 98.2009 39.8352 97.9357 39.5971 97.6892C39.359 97.4426 39.1015 97.2195 38.8392 97.0325C38.5769 96.8456 38.3151 96.6985 38.0685 96.5996C37.822 96.5007 37.5957 96.452 37.4025 96.4563C37.2093 96.4606 37.0529 96.5177 36.9424 96.6245C36.8319 96.7312 36.7693 96.8854 36.7583 97.0784C36.7473 97.2714 36.7881 97.4993 36.8783 97.7491C36.9685 97.9989 37.1064 98.2658 37.2841 98.5344C37.4618 98.803 37.6758 99.0682 37.9139 99.3148C38.152 99.5613 38.4095 99.7844 38.6718 99.9714C38.9341 100.158 39.1959 100.305 39.4425 100.404C39.689 100.503 39.9153 100.552 40.1085 100.548C40.3018 100.543 40.4581 100.486 40.5686 100.379ZM103.788 98.1726C103.694 98.0537 103.533 97.9898 103.314 97.9845C103.095 97.9792 102.821 98.0326 102.509 98.1416C102.197 98.2507 101.852 98.4133 101.495 98.6201C101.137 98.8269 100.774 99.0739 100.426 99.347C100.078 99.62 99.7511 99.9138 99.465 100.212C99.1789 100.509 98.9389 100.805 98.7585 101.082C98.5781 101.36 98.461 101.612 98.4138 101.827C98.3666 102.041 98.3903 102.212 98.4835 102.331C98.5767 102.45 98.7375 102.514 98.9569 102.519C99.1763 102.525 99.4498 102.471 99.762 102.362C100.074 102.253 100.419 102.091 100.776 101.884C101.134 101.677 101.497 101.43 101.845 101.157C102.193 100.884 102.52 100.59 102.806 100.292C103.092 99.9945 103.332 99.6986 103.513 99.4215C103.693 99.1444 103.81 98.8915 103.857 98.6772C103.904 98.4629 103.881 98.2914 103.788 98.1726ZM70.1794 102.558C70.377 102.336 70.3659 101.945 70.1486 101.47C69.9313 100.995 69.5255 100.476 69.0206 100.026C68.7706 99.803 68.5037 99.604 68.2353 99.4403C67.9668 99.2765 67.7021 99.151 67.4561 99.0712C67.2101 98.9913 66.9877 98.9586 66.8017 98.9748C66.6156 98.991 66.4694 99.0558 66.3716 99.1657C66.174 99.3874 66.1851 99.7788 66.4024 100.254C66.6197 100.729 67.0255 101.248 67.5304 101.698C67.7804 101.921 68.0473 102.12 68.3157 102.284C68.5842 102.447 68.8489 102.573 69.0949 102.653C69.3409 102.733 69.5633 102.765 69.7494 102.749C69.9354 102.733 70.0816 102.668 70.1794 102.558Z" fill="#FE725E"/>
<path d="M68.332 17.5933C69.7548 16.9598 70.7207 16.025 70.4893 15.5054C70.2579 14.9857 68.917 15.0779 67.4942 15.7114C66.0714 16.3449 65.1055 17.2797 65.3369 17.7994C65.5683 18.319 66.9092 18.2268 68.332 17.5933Z" fill="#F8B782"/>
<path d="M86.9696 18.5957C88.4925 19.6268 90.0433 19.9955 90.4335 19.4193C90.8236 18.8431 89.9053 17.5401 88.3824 16.509C86.8595 15.4779 85.3087 15.1092 84.9186 15.6854C84.5285 16.2617 85.4467 17.5647 86.9696 18.5957Z" fill="#F9A870"/>
<path d="M18.8233 20.7021C19.4299 20.9888 19.5833 21.3255 19.2833 21.7121C11.8433 31.2121 5.95328 38.6021 4.11328 50.1821C4.08559 50.3531 4.02595 50.5118 3.93913 50.6455C3.8523 50.7792 3.74071 50.8842 3.61328 50.9521C3.07995 51.2321 2.49661 51.3288 1.86328 51.2421C4.09661 39.1355 9.74995 28.9555 18.8233 20.7021Z" fill="#F65E4A"/>
<path d="M60.8854 24.4322C61.0869 24.6036 61.2295 24.8269 61.2865 25.0606C61.3436 25.2943 61.3112 25.5223 61.1954 25.7022C58.8354 29.3222 57.8588 29.0322 58.2654 24.8322C58.2778 24.7164 58.3544 24.5894 58.4859 24.4668C58.6173 24.3442 58.7979 24.2314 59.0054 24.1422C59.6921 23.8556 60.3188 23.9522 60.8854 24.4322Z" fill="#F8B782"/>
<path d="M41.8948 28.6732C41.4757 30.1157 41.5659 31.4101 42.0962 31.5641C42.6266 31.7182 43.3963 30.6737 43.8154 29.2311C44.2345 27.7886 44.1443 26.4942 43.6139 26.3401C43.0836 26.1861 42.3139 27.2306 41.8948 28.6732Z" fill="#FCE49E"/>
<path d="M103.816 29.2381C103.29 30.29 103.367 31.3952 103.989 31.7068C104.612 32.0184 105.543 31.4183 106.07 30.3665C106.596 29.3146 106.519 28.2093 105.897 27.8977C105.275 27.5862 104.343 28.1863 103.816 29.2381Z" fill="#F8B782"/>
<path d="M76.6811 34.3796C77.6298 33.5432 78.0643 32.4857 77.6515 32.0175C77.2388 31.5494 76.1352 31.8479 75.1865 32.6843C74.2378 33.5207 73.8033 34.5782 74.216 35.0464C74.6287 35.5145 75.7324 35.216 76.6811 34.3796Z" fill="#F8B782"/>
<path d="M26.6724 37.617C26.0707 39.0415 25.9912 40.3688 26.4949 40.5815C26.9985 40.7943 27.8947 39.8119 28.4964 38.3874C29.0981 36.9629 29.1776 35.6356 28.674 35.4229C28.1703 35.2101 27.2742 36.1924 26.6724 37.617Z" fill="#F8B782"/>
<path d="M51.6353 41.4385C51.2045 42.9409 51.4234 44.3218 52.1242 44.5227C52.8249 44.7236 53.7423 43.6686 54.1731 42.1662C54.6039 40.6638 54.385 39.2829 53.6843 39.082C52.9835 38.881 52.0662 39.9361 51.6353 41.4385Z" fill="#F8B782"/>
<path d="M86.0223 40.9124C86.3123 42.3124 84.5823 46.4823 82.9423 43.9523C82.8351 43.7886 82.7704 43.6089 82.7595 43.4445C82.7485 43.2801 82.792 43.1414 82.8823 43.0523L85.3823 40.5624C85.689 40.249 85.9023 40.3657 86.0223 40.9124Z" fill="#F8B782"/>
<path d="M113.213 46.1223C112.933 44.9523 112.773 39.9723 115.153 41.9523C115.285 42.0621 115.392 42.1889 115.466 42.3237C115.54 42.4585 115.58 42.598 115.583 42.7323C115.61 44.299 115.036 45.5623 113.863 46.5223C113.812 46.5623 113.752 46.5834 113.686 46.5835C113.621 46.5837 113.553 46.563 113.488 46.5232C113.424 46.4835 113.365 46.426 113.317 46.356C113.268 46.286 113.233 46.2057 113.213 46.1223Z" fill="#F8B782"/>
<path d="M65.0933 47.8827C64.9732 48.8473 65.4489 49.7006 66.1559 49.7886C66.8629 49.8767 67.5334 49.1661 67.6536 48.2016C67.7737 47.237 67.298 46.3837 66.591 46.2956C65.884 46.2076 65.2135 46.9181 65.0933 47.8827Z" fill="#F8B782"/>
<path d="M37.068 50.6867C37.3298 51.8392 38.162 52.6327 38.9268 52.4589C39.6916 52.2852 40.0992 51.21 39.8374 50.0575C39.5755 48.905 38.7433 48.1116 37.9786 48.2853C37.2138 48.4591 36.8061 49.5342 37.068 50.6867Z" fill="#F8B782"/>
<path d="M16.8553 55.8374C16.8115 57.4053 17.3354 58.692 18.0255 58.7112C18.7156 58.7305 19.3105 57.4751 19.3543 55.9073C19.3981 54.3394 18.8742 53.0527 18.1841 53.0335C17.494 53.0142 16.8991 54.2696 16.8553 55.8374Z" fill="#F8B782"/>
<path d="M100.253 59.594C101.242 59.2783 101.848 58.4082 101.606 57.6505C101.364 56.8929 100.366 56.5346 99.3769 56.8503C98.3878 57.166 97.782 58.0361 98.0237 58.7937C98.2655 59.5513 99.2634 59.9096 100.253 59.594Z" fill="#F8B782"/>
<path d="M50.0658 59.351C50.1845 60.1652 50.8302 60.7452 51.5079 60.6463C52.1855 60.5475 52.6386 59.8072 52.5198 58.9929C52.401 58.1787 51.7553 57.5987 51.0777 57.6976C50.4 57.7964 49.947 58.5367 50.0658 59.351Z" fill="#F8B782"/>
<path d="M117.956 63.8439C117.558 65.108 117.914 66.3469 118.751 66.6109C119.589 66.875 120.591 66.0643 120.989 64.8002C121.388 63.536 121.032 62.2972 120.195 62.0331C119.357 61.769 118.355 62.5798 117.956 63.8439Z" fill="#F9A870"/>
<path d="M79.7793 64.2345C79.9083 65.0976 80.5885 65.7112 81.2985 65.605C82.0086 65.4989 82.4797 64.7133 82.3507 63.8502C82.2217 62.9872 81.5416 62.3736 80.8315 62.4797C80.1214 62.5859 79.6503 63.3715 79.7793 64.2345Z" fill="#F6DF7A"/>
<path d="M66.5659 64.9314C67.1586 65.7906 68.015 66.2278 68.4787 65.9079C68.9424 65.5881 68.8378 64.6322 68.2451 63.773C67.6524 62.9138 66.796 62.4766 66.3323 62.7965C65.8686 63.1164 65.9732 64.0722 66.5659 64.9314Z" fill="#F8B782"/>
<path d="M22.8847 70.1623L23.0747 66.4923C23.0837 66.3189 23.1245 66.1566 23.1929 66.0215C23.2614 65.8863 23.3551 65.7832 23.4647 65.7223C24.3847 65.2223 25.6547 70.5023 24.1047 71.0623C23.9626 71.1141 23.8097 71.1301 23.66 71.1087C23.5103 71.0874 23.3685 71.0294 23.2473 70.94C23.1262 70.8507 23.0296 70.7327 22.9663 70.5969C22.903 70.4611 22.8749 70.3118 22.8847 70.1623Z" fill="#F8B782"/>
<path d="M36.3504 67.7059C36.1682 68.8066 36.524 69.7822 37.1452 69.885C37.7663 69.9878 38.4176 69.179 38.5998 68.0783C38.782 66.9777 38.4261 66.0021 37.805 65.8993C37.1838 65.7964 36.5326 66.6053 36.3504 67.7059Z" fill="#F8B782"/>
<path d="M98.6362 74.3731C99.7414 75.1821 100.91 75.4657 101.246 75.0067C101.582 74.5476 100.958 73.5197 99.8528 72.7108C98.7476 71.9019 97.5792 71.6182 97.2432 72.0773C96.9073 72.5363 97.5309 73.5642 98.6362 74.3731Z" fill="#F8B782"/>
<path d="M44.5853 80.7123C43.692 80.5856 43.1087 80.0956 42.8353 79.2423C42.7533 78.9843 42.7166 78.7303 42.7289 78.5056C42.7412 78.281 42.802 78.0936 42.9053 77.9623C44.7053 75.6423 45.4053 76.4189 45.0053 80.2923C44.9988 80.3537 44.9826 80.4136 44.9577 80.4683C44.9329 80.523 44.8999 80.5714 44.8607 80.6106C44.8215 80.6498 44.7769 80.679 44.7296 80.6965C44.6823 80.7139 44.6332 80.7193 44.5853 80.7123Z" fill="#FCE49E"/>
<path d="M21.9245 84.9501C22.4481 85.9912 23.3605 86.5897 23.9625 86.2869C24.5644 85.9842 24.6279 84.8948 24.1043 83.8538C23.5807 82.8127 22.6683 82.2142 22.0663 82.5169C21.4644 82.8197 21.4009 83.909 21.9245 84.9501Z" fill="#F8B782"/>
<path d="M56.7436 84.8087C57.6103 84.4777 58.1341 83.741 57.9135 83.1631C57.6928 82.5852 56.8113 82.3851 55.9445 82.7161C55.0777 83.0471 54.5539 83.7839 54.7745 84.3617C54.9952 84.9396 55.8768 85.1397 56.7436 84.8087Z" fill="#FCE49E"/>
<path d="M71.6563 85.8857C72.3953 86.2954 73.231 86.2007 73.5229 85.6742C73.8147 85.1476 73.4522 84.3887 72.7132 83.9791C71.9741 83.5694 71.1384 83.6641 70.8466 84.1906C70.5547 84.7172 70.9172 85.4761 71.6563 85.8857Z" fill="#FCE49E"/>
<path d="M37.9111 99.315C38.9124 100.352 40.1009 100.829 40.5657 100.38C41.0306 99.9308 40.5956 98.7264 39.5943 97.6895C38.593 96.6526 37.4044 96.1759 36.9396 96.6248C36.4748 97.0736 36.9097 98.2781 37.9111 99.315Z" fill="#F8B782"/>
<path d="M101.845 101.157C103.309 100.009 104.179 98.6727 103.787 98.1729C103.395 97.6731 101.89 98.1989 100.425 99.3473C98.9608 100.496 98.0911 101.832 98.483 102.332C98.8749 102.832 100.38 102.306 101.845 101.157Z" fill="#F8B782"/>
<path d="M67.531 101.698C68.5825 102.635 69.7685 103.02 70.18 102.558C70.5915 102.097 70.0726 100.963 69.0211 100.026C67.9696 99.0891 66.7836 98.704 66.3721 99.1658C65.9606 99.6277 66.4795 100.762 67.531 101.698Z" fill="#F8B782"/>
</svg>
