<svg width="85" height="163" viewBox="0 0 85 163" fill="none" xmlns="http://www.w3.org/2000/svg">
<path d="M30.2897 41.4085C27.2697 41.5585 19.3698 36.8385 16.2998 35.3585C11.7798 33.1785 7.33647 33.3052 2.9698 35.7385C2.80319 35.8309 2.65728 35.9565 2.54109 36.1077C2.4249 36.2589 2.34083 36.4324 2.29402 36.6178C2.24721 36.8031 2.23866 36.9964 2.26887 37.1856C2.29909 37.3749 2.36749 37.5562 2.4698 37.7185C9.8098 49.2285 21.0298 53.6985 34.1798 55.1485C34.5649 55.1922 34.9275 55.3526 35.2188 55.6082C35.5102 55.8638 35.7164 56.2024 35.8098 56.5785C38.8798 69.0185 42.8598 81.8785 44.6998 94.6985C44.7238 94.8696 44.7026 95.044 44.6384 95.2043C44.5741 95.3647 44.4691 95.5054 44.3336 95.6126C44.1981 95.7197 44.0369 95.7896 43.866 95.8152C43.6952 95.8408 43.5206 95.8213 43.3597 95.7585C35.1297 92.5185 21.2598 85.4385 12.9198 85.6585C5.49975 85.8485 0.649753 91.0385 4.41975 98.2885C4.56673 98.5705 4.82126 98.7856 5.12971 98.8885C9.29971 100.269 13.1897 101.379 17.1497 103.469C28.2197 109.329 36.2697 112.009 46.7597 113.059C48.1664 113.205 48.9698 114.015 49.1698 115.489L53.3997 145.949C53.6197 147.535 52.9564 148.035 51.4097 147.449C46.2231 145.482 40.8131 143.345 35.1798 141.039C30.3598 139.059 18.0397 135.159 19.3697 144.879C20.8197 155.459 41.8498 162.719 50.4198 161.139C59.8798 159.399 58.2497 152.889 57.6397 144.419C56.8664 133.745 55.5631 123.279 53.7298 113.019C53.4965 111.692 53.8665 110.562 54.8398 109.629C62.1098 102.649 98.3798 68.0885 77.1798 59.4585C76.885 59.3432 76.5511 59.3504 76.2497 59.4785C72.9764 60.8718 70.513 62.7619 68.8597 65.1485C63.4797 72.9485 57.8197 82.7985 51.0297 89.3185C50.9886 89.3589 50.9376 89.3879 50.8818 89.4024C50.826 89.417 50.7673 89.4166 50.7116 89.4015C50.656 89.3863 50.6053 89.3568 50.5647 89.3159C50.524 89.2751 50.4947 89.2242 50.4798 89.1685C47.1731 77.1885 44.2197 65.1152 41.6197 52.9485C41.5565 52.6475 41.555 52.3351 41.6151 52.0295C41.6752 51.7239 41.7957 51.4313 41.9698 51.1685C50.2598 38.6385 60.6397 26.5085 57.6097 10.0785C56.9097 6.30852 56.6997 3.66852 52.9097 2.90852C52.7569 2.88068 52.5983 2.8887 52.446 2.93198C52.2937 2.97525 52.1514 3.05268 52.0297 3.15852C48.6164 6.23852 45.9731 10.4785 44.0998 15.8785C41.8198 22.4585 39.2231 28.7685 36.3098 34.8085C35.9098 35.6352 35.6031 35.6019 35.3897 34.7085C32.3597 21.7685 23.4497 8.47853 11.0397 2.84853C7.62975 1.30853 3.5097 -0.541482 1.3697 3.16852C0.743037 4.26185 0.913047 5.20853 1.87971 6.00853C11.2797 13.7885 19.7064 22.4385 27.1597 31.9585C29.0931 34.4252 30.4364 37.1685 31.1898 40.1885C31.2252 40.3281 31.2291 40.4738 31.2012 40.6153C31.1734 40.7568 31.1143 40.8905 31.0284 41.007C30.9425 41.1235 30.8317 41.2198 30.7041 41.2892C30.5764 41.3586 30.4349 41.3994 30.2897 41.4085Z" stroke="#B8DAD7" stroke-width="2"/>
<path d="M30.2937 41.4085C30.4388 41.3994 30.5803 41.3586 30.708 41.2892C30.8356 41.2198 30.9464 41.1235 31.0323 41.007C31.1182 40.8905 31.1773 40.7568 31.2052 40.6153C31.233 40.4738 31.2291 40.3281 31.1937 40.1885C30.4403 37.1685 29.097 34.4252 27.1636 31.9585C19.7103 22.4385 11.2836 13.7885 1.88362 6.00853C0.916953 5.20853 0.746943 4.26185 1.37361 3.16852C3.51361 -0.541482 7.63365 1.30853 11.0437 2.84853C23.4537 8.47853 32.3636 21.7685 35.3936 34.7085C35.607 35.6019 35.9137 35.6352 36.3137 34.8085C39.227 28.7685 41.8237 22.4585 44.1037 15.8785C45.977 10.4785 48.6203 6.23852 52.0336 3.15852C52.1553 3.05268 52.2976 2.97525 52.4499 2.93198C52.6022 2.8887 52.7608 2.88068 52.9137 2.90852C56.7037 3.66852 56.9136 6.30852 57.6136 10.0785C60.6436 26.5085 50.2637 38.6385 41.9737 51.1685C41.7996 51.4313 41.6791 51.7239 41.619 52.0295C41.5589 52.3351 41.5604 52.6475 41.6236 52.9485C44.2236 65.1152 47.1771 77.1885 50.4837 89.1685C50.4986 89.2242 50.5279 89.2751 50.5686 89.3159C50.6092 89.3568 50.6599 89.3863 50.7155 89.4015C50.7712 89.4166 50.8299 89.417 50.8857 89.4024C50.9415 89.3879 50.9925 89.3589 51.0336 89.3185C57.8236 82.7985 63.4836 72.9485 68.8636 65.1485C70.5169 62.7619 72.9803 60.8718 76.2536 59.4785C76.555 59.3504 76.8889 59.3432 77.1837 59.4585C98.3837 68.0885 62.1137 102.649 54.8437 109.629C53.8704 110.562 53.5004 111.692 53.7337 113.019C55.5671 123.279 56.8703 133.745 57.6436 144.419C58.2536 152.889 59.8837 159.399 50.4237 161.139C41.8537 162.719 20.8236 155.459 19.3736 144.879C18.0436 135.159 30.3637 139.059 35.1837 141.039C40.817 143.345 46.227 145.482 51.4137 147.449C52.9603 148.035 53.6236 147.535 53.4036 145.949L49.1737 115.489C48.9737 114.015 48.1703 113.205 46.7636 113.059C36.2736 112.009 28.2236 109.329 17.1536 103.469C13.1936 101.379 9.30362 100.269 5.13362 98.8885C4.82517 98.7856 4.57064 98.5705 4.42366 98.2885C0.653659 91.0385 5.50366 85.8485 12.9237 85.6585C21.2637 85.4385 35.1336 92.5185 43.3636 95.7585C43.5245 95.8213 43.6991 95.8408 43.8699 95.8152C44.0408 95.7896 44.202 95.7197 44.3375 95.6126C44.473 95.5054 44.578 95.3647 44.6423 95.2043C44.7065 95.044 44.7277 94.8696 44.7037 94.6985C42.8637 81.8785 38.8837 69.0185 35.8137 56.5785C35.7203 56.2024 35.5141 55.8638 35.2227 55.6082C34.9314 55.3526 34.5688 55.1922 34.1837 55.1485C21.0337 53.6985 9.81371 49.2285 2.47371 37.7185C2.3714 37.5562 2.303 37.3749 2.27278 37.1856C2.24256 36.9964 2.25112 36.8031 2.29793 36.6178C2.34473 36.4324 2.42881 36.2589 2.545 36.1077C2.66119 35.9565 2.80709 35.8309 2.97371 35.7385C7.34037 33.3052 11.7837 33.1785 16.3037 35.3585C19.3737 36.8385 27.2737 41.5585 30.2937 41.4085Z" fill="#72B5B0"/>
</svg>
