<svg width="69" height="23" viewBox="0 0 69 23" fill="none" xmlns="http://www.w3.org/2000/svg">
<path d="M67.5026 6.61165C67.3872 5.87472 67.0971 5.17253 66.6489 4.54518C66.2007 3.91784 65.6031 3.37759 64.8903 2.95534C64.1775 2.53309 63.3635 2.23711 62.4947 2.08425C61.6259 1.93138 60.7192 1.92462 59.8266 2.06441C58.0239 2.34671 56.3876 3.20866 55.2777 4.46065C54.1677 5.71264 53.6751 7.25215 53.9082 8.74043C54.0236 9.47737 54.3137 10.1796 54.7619 10.8069C55.2101 11.4342 55.8077 11.9744 56.5205 12.3967C57.2332 12.8189 58.0472 13.115 58.9161 13.2678C59.7849 13.4207 60.6916 13.4274 61.5842 13.2876C63.3869 13.0053 65.0232 12.1434 66.1331 10.8914C67.243 9.63938 67.7357 8.09994 67.5026 6.61165Z" stroke="#8B888F" stroke-width="2"/>
<path d="M28.2938 12.4563C32.7138 20.3463 47.3238 13.5763 42.3438 7.43633C39.3305 3.72299 35.8205 2.51299 31.8138 3.80632C27.9338 5.05632 26.3638 9.01628 28.2938 12.4563Z" stroke="#88868E" stroke-width="2"/>
<path d="M18.326 15.4181C18.4664 14.5416 18.3822 13.6378 18.0782 12.7585C17.7742 11.8792 17.2564 11.0416 16.5543 10.2934C15.8522 9.54519 14.9796 8.90114 13.9863 8.39799C12.9929 7.89484 11.8984 7.5424 10.7651 7.36088C8.47626 6.99428 6.16859 7.34598 4.34966 8.33854C2.53073 9.33109 1.34953 10.8832 1.06597 12.6535C0.925569 13.53 1.00978 14.4338 1.31377 15.3131C1.61776 16.1924 2.1356 17.0301 2.8377 17.7782C3.53979 18.5264 4.41238 19.1705 5.40569 19.6736C6.399 20.1768 7.49357 20.5292 8.62688 20.7107C10.9157 21.0773 13.2234 20.7256 15.0423 19.7331C16.8613 18.7405 18.0424 17.1884 18.326 15.4181Z" stroke="#88868E" stroke-width="2"/>
<path d="M61.5859 13.2877C65.3399 12.6999 67.9897 9.71091 67.5043 6.6117C67.019 3.5125 63.5824 1.47664 59.8284 2.0645C56.0744 2.65235 53.4247 5.64131 53.91 8.74052C54.3953 11.8397 57.832 13.8756 61.5859 13.2877Z" fill="#18132B"/>
<path d="M28.2977 12.4563C26.3677 9.01628 27.9377 5.05632 31.8177 3.80632C35.8244 2.51299 39.3344 3.72299 42.3477 7.43633C47.3277 13.5763 32.7177 20.3463 28.2977 12.4563Z" fill="#120F29"/>
<path d="M8.62842 20.7111C13.3946 21.4746 17.7371 19.105 18.3276 15.4185C18.918 11.7321 15.5329 8.12473 10.7667 7.36131C6.0005 6.59788 1.65804 8.96747 1.06757 12.6539C0.477096 16.3404 3.8622 19.9477 8.62842 20.7111Z" fill="#120F29"/>
</svg>
