<svg width="65" height="138" viewBox="0 0 65 138" fill="none" xmlns="http://www.w3.org/2000/svg">
<path d="M15.3895 85.8335C13.4527 84.7335 11.5494 84.9268 9.67956 86.4135C6.59339 88.8735 7.29708 91.1335 9.0563 94.3835C11.7169 99.3102 14.1128 104.36 16.2439 109.533C19.8026 118.183 24.6078 124.354 30.4082 131.864C37.3948 140.914 41.3154 133.943 45.5677 127.963C49.3743 122.603 52.1756 116.733 53.9717 110.353C54.3436 109.003 53.7908 107.903 54.4241 106.523C56.8468 101.273 59.762 95.9535 61.6117 90.6135C63.381 85.5535 65.6328 78.7235 58.2943 77.9135C57.98 77.8806 57.6542 77.9468 57.3594 78.1035C54.5313 79.6302 51.9243 81.6068 49.5384 84.0335" stroke="#828181" stroke-width="2"/>
<path d="M49.5399 84.0334C48.6686 85.1134 47.5897 85.9535 46.3029 86.5535C45.3111 87.0135 44.8855 86.7401 45.0262 85.7335L45.5088 82.2935" stroke="#8B8B91" stroke-width="2"/>
<path d="M45.5075 82.2935C46.4726 74.6869 47.7123 67.1235 49.227 59.6035C49.6793 57.3135 51.2576 55.3135 51.2677 52.5135C51.2677 52.1668 51.3447 51.8568 51.4989 51.5835C53.4893 48.0535 53.8914 42.2535 54.0824 37.5035C54.2433 33.2335 53.1676 30.3535 49.991 27.7735C49.8555 27.6648 49.7018 27.5921 49.5507 27.5653C49.3997 27.5385 49.2586 27.5588 49.1466 27.6235L45.0551 29.9835C43.641 30.8035 42.6726 30.5135 42.1499 29.1135C41.9153 28.4735 41.3758 27.5369 40.5314 26.3035C35.9139 19.5435 30.7367 13.2202 25 7.3335" stroke="#848485" stroke-width="2"/>
<path d="M24.9995 7.33355C20.0435 3.12355 7.06547 -2.55645 1.78781 3.95355C0.862959 5.09355 0.752424 6.31024 1.45611 7.60357C4.56239 13.2636 9.05595 18.0036 12.2728 23.6736C13.8511 26.4536 25.7736 52.8036 17.2288 48.0336C13.6433 46.0402 9.84338 44.5402 5.82901 43.5336C3.77156 43.0136 2.68588 43.7736 2.57195 45.8136C2.44461 48.0936 2.97071 50.2136 4.15022 52.1736C8.60692 59.6002 13.0368 67.0403 17.4398 74.4936C19.2694 77.6036 25.2408 90.0535 15.3891 85.8335" stroke="#8B8B91" stroke-width="2"/>
<path d="M25.0004 7.3335C24.8395 9.12683 25.6538 10.7869 27.4432 12.3135C29.132 13.7469 31.3637 16.6735 34.1383 21.0935C36.3499 24.6235 39.5366 27.4935 41.8386 30.9535C42.8238 32.4468 44.0502 32.6202 45.5179 31.4735C47.4145 29.9935 49.157 30.1069 50.7453 31.8135C51.9114 33.0735 52.3705 34.6468 52.1225 36.5335C51.5394 41.0135 52.032 47.8035 49.5591 51.3935C49.358 51.6802 49.2408 51.9802 49.2073 52.2935C48.8052 55.9335 46.9454 58.5435 46.5533 61.9535C45.4743 71.3935 44.5495 77.4002 43.7788 79.9735C43.1622 82.0135 43.7386 82.7869 45.5079 82.2935" stroke="#111625" stroke-width="2"/>
<path d="M49.5383 84.0336C52.2592 83.6336 54.6015 82.4936 56.5651 80.6136C56.6888 80.4967 56.83 80.4054 56.9803 80.3452C57.1306 80.2851 57.2869 80.2573 57.4397 80.2636C64.3962 80.5736 59.3396 92.3736 57.5402 95.5536C55.6403 98.9036 54.8863 102.314 52.9763 105.704C51.4282 108.444 51.4785 112.044 50.9155 114.044C48.9653 120.964 43.386 128.344 38.802 133.854C37.3276 135.627 35.8197 135.654 34.2783 133.934C23.6325 122.094 17.611 108.294 10.4434 94.7536C8.50323 91.0936 7.27679 86.0236 13.8814 86.7936C14.069 86.815 14.249 86.8032 14.4041 86.7594C14.5592 86.7155 14.6839 86.6412 14.766 86.5436L15.3893 85.8336" stroke="#0F1421" stroke-width="2"/>
<path d="M24.9995 7.33355C24.8386 9.12689 25.6529 10.7869 27.4423 12.3136C29.1311 13.7469 31.3629 16.6736 34.1374 21.0936C36.349 24.6236 39.5357 27.4935 41.8377 30.9535C42.8229 32.4469 44.0493 32.6202 45.517 31.4736C47.4136 29.9936 49.1561 30.1069 50.7444 31.8136C51.9105 33.0736 52.3696 34.6469 52.1216 36.5336C51.5386 41.0136 52.0312 47.8036 49.5582 51.3936C49.3571 51.6802 49.2399 51.9802 49.2064 52.2936C48.8043 55.9336 46.9445 58.5435 46.5524 61.9535C45.4735 71.3935 44.5486 77.4002 43.7779 79.9736C43.1613 82.0136 43.7377 82.7869 45.507 82.2936L45.0244 85.7336C44.8837 86.7402 45.3093 87.0136 46.3011 86.5536C47.5879 85.9536 48.6668 85.1136 49.5381 84.0336C52.259 83.6336 54.6013 82.4936 56.5649 80.6136C56.6886 80.4967 56.8298 80.4054 56.9801 80.3452C57.1304 80.2851 57.2867 80.2573 57.4395 80.2635C64.396 80.5735 59.3395 92.3736 57.54 95.5536C55.6401 98.9036 54.8861 102.314 52.9761 105.704C51.428 108.444 51.4783 112.044 50.9153 114.044C48.9651 120.964 43.3858 128.344 38.8018 133.854C37.3274 135.627 35.8195 135.654 34.2781 133.934C23.6323 122.094 17.6108 108.294 10.4432 94.7536C8.50305 91.0936 7.2766 86.0236 13.8812 86.7936C14.0688 86.8149 14.2489 86.8031 14.4039 86.7593C14.559 86.7155 14.6837 86.6412 14.7659 86.5436L15.3891 85.8335C25.2408 90.0536 19.2694 77.6036 17.4398 74.4936C13.0368 67.0403 8.60692 59.6002 4.15022 52.1736C2.97071 50.2136 2.44461 48.0936 2.57195 45.8136C2.68588 43.7736 3.77156 43.0136 5.82901 43.5336C9.84338 44.5402 13.6433 46.0402 17.2288 48.0336C25.7736 52.8036 13.8511 26.4536 12.2728 23.6736C9.05595 18.0036 4.56239 13.2636 1.45611 7.60357C0.752424 6.31024 0.862959 5.09355 1.78781 3.95355C7.06547 -2.55645 20.0435 3.12355 24.9995 7.33355Z" fill="#181D31"/>
<path d="M25.0004 7.3335C30.7371 13.2202 35.9142 19.5435 40.5318 26.3035C41.3762 27.5369 41.9157 28.4735 42.1503 29.1135C42.673 30.5135 43.6414 30.8035 45.0555 29.9835L49.1469 27.6235C49.259 27.5588 49.4 27.5385 49.5511 27.5653C49.7022 27.5921 49.8559 27.6648 49.9913 27.7735C53.168 30.3535 54.2436 33.2335 54.0828 37.5035C53.8918 42.2535 53.4897 48.0535 51.4992 51.5835C51.3451 51.8568 51.268 52.1668 51.268 52.5135C51.258 55.3135 49.6797 57.3135 49.2273 59.6035C47.7127 67.1235 46.4729 74.6869 45.5079 82.2935C43.7386 82.7868 43.1622 82.0135 43.7788 79.9735C44.5495 77.4002 45.4743 71.3935 46.5533 61.9535C46.9454 58.5435 48.8052 55.9335 49.2073 52.2935C49.2408 51.9802 49.358 51.6802 49.5591 51.3935C52.032 47.8035 51.5394 41.0135 52.1225 36.5335C52.3705 34.6468 51.9114 33.0735 50.7453 31.8135C49.157 30.1069 47.4145 29.9935 45.5179 31.4735C44.0502 32.6202 42.8238 32.4468 41.8386 30.9535C39.5366 27.4935 36.3499 24.6235 34.1383 21.0935C31.3637 16.6735 29.132 13.7469 27.4432 12.3135C25.6538 10.7869 24.8395 9.12683 25.0004 7.3335Z" fill="#090F19"/>
<path d="M15.3895 85.8335L14.7662 86.5435C14.684 86.6411 14.5593 86.7154 14.4043 86.7593C14.2492 86.8031 14.0691 86.8149 13.8816 86.7935C7.27696 86.0235 8.50341 91.0935 10.4436 94.7535C17.6111 108.294 23.6327 122.094 34.2785 133.934C35.8199 135.654 37.3278 135.627 38.8022 133.853C43.3862 128.343 48.9655 120.964 50.9157 114.043C51.4787 112.043 51.4284 108.443 52.9765 105.703C54.8865 102.313 55.6404 98.9035 57.5404 95.5535C59.3398 92.3735 64.3963 80.5735 57.4399 80.2635C57.2871 80.2572 57.1308 80.285 56.9804 80.3451C56.8301 80.4053 56.6889 80.4966 56.5653 80.6135C54.6017 82.4935 52.2594 83.6335 49.5384 84.0335C51.9243 81.6068 54.5313 79.6302 57.3594 78.1035C57.6542 77.9468 57.98 77.8806 58.2943 77.9135C65.6328 78.7235 63.381 85.5535 61.6117 90.6135C59.762 95.9535 56.8468 101.273 54.4241 106.523C53.7908 107.903 54.3436 109.003 53.9717 110.353C52.1756 116.733 49.3743 122.603 45.5677 127.963C41.3154 133.943 37.3948 140.914 30.4082 131.864C24.6078 124.354 19.8026 118.183 16.2439 109.533C14.1128 104.36 11.7169 99.3102 9.0563 94.3835C7.29708 91.1335 6.59339 88.8735 9.67956 86.4135C11.5494 84.9268 13.4527 84.7335 15.3895 85.8335Z" fill="#060A11"/>
</svg>
