<svg width="198" height="244" viewBox="0 0 198 244" fill="none" xmlns="http://www.w3.org/2000/svg">
<path d="M134.303 111.083C128.123 111.453 119.533 111.453 114.053 114.553C112.753 115.287 112.513 116.277 113.333 117.523C117.503 123.903 125.083 129.803 130.203 135.683C130.453 135.973 130.622 136.322 130.694 136.696C130.766 137.07 130.738 137.455 130.613 137.813C125.453 152.463 112.983 163.843 96.6835 162.483C80.6135 161.153 69.0934 154.963 56.2634 145.853C55.9775 145.652 55.659 145.544 55.3534 145.543C49.2234 145.533 52.1034 160.653 52.8934 164.133C52.9191 164.248 52.9178 164.366 52.8895 164.48C52.8612 164.593 52.8068 164.698 52.7306 164.786C52.6545 164.874 52.5589 164.942 52.4516 164.985C52.3443 165.028 52.2284 165.045 52.1135 165.033C38.3935 163.833 24.5368 162.603 10.5434 161.343C8.23345 161.133 5.47342 160.773 3.51342 161.593C1.59342 162.393 0.773456 163.827 1.05346 165.893C4.84346 193.483 23.0835 216.903 47.0635 229.943C77.2035 246.333 113.183 247.763 143.083 230.343C169.013 215.243 187.013 197.183 193.583 166.853C197.717 147.793 197.987 129.373 194.393 111.593C186.713 73.5834 168.903 43.4234 144.913 13.3134C141.24 8.70011 137.52 5.02678 133.753 2.29344C128.123 -1.78656 127.973 4.78344 128.123 8.27344C128.797 23.5334 128.8 38.5534 128.133 53.3334C128.123 53.5541 128.069 53.7706 127.975 53.9702C127.88 54.1697 127.747 54.3483 127.583 54.4954C127.419 54.6426 127.228 54.7554 127.02 54.8271C126.812 54.8989 126.593 54.9283 126.373 54.9135C123.133 54.7235 109.923 54.9635 113.643 60.5735C113.65 60.5801 114.733 61.8101 116.893 64.2635C128.467 77.3701 134.43 92.8034 134.783 110.563C134.786 110.697 134.738 110.826 134.648 110.924C134.558 111.021 134.434 111.078 134.303 111.083Z" stroke="#FEB7A6" stroke-width="2"/>
<path d="M133.683 182.573C116.163 197.247 95.7065 204.623 72.3131 204.703C55.0331 204.763 38.7231 197.953 22.6431 192.523C21.7898 192.237 20.9532 192.403 20.1332 193.023C20.022 193.106 19.9483 193.23 19.9277 193.368C19.9071 193.506 19.9414 193.648 20.0231 193.763C24.7431 200.503 36.0731 206.643 42.6831 209.263C49.5031 211.963 56.4531 214.273 63.5331 216.193C102.563 226.783 145.973 212.403 164.113 174.603C170.123 162.073 171.463 149.603 168.623 136.233C168.173 134.103 166.733 128.063 164.833 129.793C164.033 130.52 163.52 131.413 163.293 132.473C158.943 153.223 149.613 169.233 133.683 182.573Z" stroke="#9A5663" stroke-width="2"/>
<path d="M134.787 110.563C134.434 92.803 128.471 77.3696 116.897 64.263C114.737 61.8096 113.654 60.5796 113.647 60.573C109.927 54.963 123.137 54.723 126.377 54.913C126.596 54.9278 126.816 54.8984 127.024 54.8267C127.232 54.7549 127.423 54.6421 127.587 54.4949C127.751 54.3478 127.884 54.1692 127.979 53.9697C128.073 53.7701 128.127 53.5537 128.137 53.3329C128.804 38.5529 128.801 23.533 128.127 8.27295C127.977 4.78295 128.127 -1.78704 133.757 2.29296C137.524 5.02629 141.244 8.69963 144.917 13.313C168.907 43.423 186.717 73.583 194.397 111.593C197.991 129.373 197.721 147.793 193.587 166.853C187.017 197.183 169.017 215.243 143.087 230.343C113.187 247.763 77.2074 246.333 47.0674 229.943C23.0874 216.903 4.84736 193.483 1.05736 165.893C0.777363 163.826 1.59732 162.393 3.51732 161.593C5.47732 160.773 8.23735 161.133 10.5474 161.343C24.5407 162.603 38.3974 163.833 52.1174 165.033C52.2323 165.044 52.3482 165.027 52.4555 164.984C52.5628 164.941 52.6584 164.873 52.7345 164.785C52.8107 164.697 52.8651 164.593 52.8934 164.479C52.9217 164.366 52.923 164.247 52.8973 164.133C52.1073 160.653 49.2273 145.533 55.3573 145.543C55.6629 145.543 55.9814 145.651 56.2673 145.853C69.0973 154.963 80.6174 161.153 96.6874 162.483C112.987 163.843 125.457 152.463 130.617 137.813C130.742 137.455 130.77 137.07 130.698 136.696C130.626 136.322 130.457 135.973 130.207 135.683C125.087 129.803 117.507 123.903 113.337 117.523C112.517 116.276 112.757 115.286 114.057 114.553C119.537 111.453 128.127 111.453 134.307 111.083C134.438 111.078 134.562 111.02 134.652 110.923C134.741 110.826 134.79 110.697 134.787 110.563ZM133.687 182.573C116.167 197.246 95.7107 204.623 72.3174 204.703C55.0374 204.763 38.7273 197.953 22.6473 192.523C21.794 192.236 20.9574 192.403 20.1374 193.023C20.0263 193.106 19.9525 193.229 19.9319 193.368C19.9114 193.506 19.9456 193.648 20.0273 193.763C24.7473 200.503 36.0774 206.643 42.6874 209.263C49.5074 211.963 56.4573 214.273 63.5373 216.193C102.567 226.783 145.977 212.403 164.117 174.603C170.127 162.073 171.467 149.603 168.627 136.233C168.177 134.103 166.737 128.063 164.837 129.793C164.037 130.52 163.524 131.413 163.297 132.473C158.947 153.223 149.617 169.233 133.687 182.573Z" fill="#FE725E"/>
<path d="M133.687 182.573C149.617 169.233 158.947 153.223 163.297 132.473C163.524 131.413 164.037 130.519 164.837 129.793C166.737 128.063 168.177 134.103 168.627 136.233C171.467 149.603 170.127 162.073 164.117 174.603C145.977 212.403 102.567 226.783 63.537 216.193C56.457 214.273 49.507 211.963 42.687 209.263C36.077 206.643 24.747 200.503 20.027 193.763C19.9453 193.648 19.9111 193.506 19.9316 193.368C19.9522 193.229 20.0259 193.105 20.1371 193.023C20.9571 192.403 21.7937 192.236 22.647 192.523C38.727 197.953 55.037 204.763 72.3171 204.703C95.7104 204.623 116.167 197.246 133.687 182.573Z" fill="#363A67"/>
</svg>
