<svg width="114" height="137" viewBox="0 0 114 137" fill="none" xmlns="http://www.w3.org/2000/svg">
<path d="M32.827 5.50435C11.927 28.2844 1.53696 58.5144 1.00696 88.9644C0.636958 109.724 15.0669 125.584 33.8669 132.024C39.3736 133.911 45.9269 134.988 53.5269 135.254C72.7369 135.934 91.0369 132.124 103.287 116.144C112.507 104.114 116.667 90.1244 108.327 76.1744C104.734 70.1677 99.7936 65.5944 93.5069 62.4544C86.9369 59.1744 75.787 56.9944 68.697 52.4844C61.3503 47.811 55.7803 41.571 51.9869 33.7644C46.8269 23.151 42.1636 12.3144 37.9969 1.25435C37.9751 1.19538 37.9392 1.14257 37.8925 1.10044C37.8458 1.0583 37.7897 1.02809 37.7288 1.01237C37.6679 0.996656 37.604 0.9959 37.5428 1.01018C37.4815 1.02445 37.4246 1.05333 37.377 1.09435C35.817 2.42102 34.3003 3.89102 32.827 5.50435Z" stroke="#FEA9A0" stroke-width="2"/>
<path d="M33.2357 36.8842C32.5357 41.0242 33.2757 44.9009 35.4557 48.5142C42.1657 59.6542 55.3657 82.1842 70.0957 82.2142C70.7157 82.2142 81.3457 82.8842 77.2557 79.3642C74.9457 77.3642 67.7557 78.0042 64.1557 76.0642C52.4257 69.7342 40.6157 48.4742 34.4157 36.7042C33.8357 35.6042 33.4423 35.6642 33.2357 36.8842Z" stroke="#FE9346" stroke-width="2"/>
<path d="M29.1165 63.6442C28.8231 65.1042 29.1031 66.7308 29.9564 68.5242C38.8564 87.1442 53.6365 100.164 75.2465 98.1442C78.3731 97.8575 81.4832 97.4308 84.5765 96.8642C85.6832 96.6642 85.8998 95.9908 85.2265 94.8442C85.0289 94.5078 84.754 94.224 84.425 94.0169C84.096 93.8098 83.7226 93.6853 83.3364 93.6542C78.9464 93.3242 74.0265 94.0742 70.2865 93.7742C50.7365 92.2542 41.9365 79.0642 32.3665 63.9642C31.5531 62.6708 30.6464 62.3042 29.6464 62.8642C29.5116 62.9427 29.3945 63.0531 29.303 63.1877C29.2115 63.3223 29.1479 63.478 29.1165 63.6442Z" stroke="#FE9346" stroke-width="2"/>
<path d="M77.3753 109.654C76.1419 109.201 74.8719 109.017 73.5653 109.104C53.8653 110.464 39.1953 99.224 28.1253 84.114C27.3053 82.9873 26.8486 83.1207 26.7553 84.514C26.4753 88.6073 27.8053 92.194 30.7453 95.274C39.3353 104.274 49.3852 111.774 62.4052 113.244C68.1752 113.894 72.9252 114.174 77.5352 111.424C78.7086 110.724 78.6553 110.134 77.3753 109.654Z" stroke="#FE9346" stroke-width="2"/>
<path d="M22.7906 102.72C22.9206 102.66 22.9981 102.49 23.0189 102.22C23.0397 101.949 23.0032 101.584 22.9117 101.145C22.8201 100.705 22.6752 100.2 22.4852 99.6583C22.2953 99.1166 22.064 98.5488 21.8046 97.9873C21.5451 97.4258 21.2626 96.8817 20.9732 96.3859C20.6838 95.8901 20.3931 95.4525 20.1177 95.0979C19.8424 94.7433 19.5878 94.4788 19.3685 94.3194C19.1491 94.16 18.9693 94.1089 18.8394 94.1689C18.7095 94.2289 18.6319 94.399 18.6111 94.6693C18.5904 94.9396 18.6268 95.305 18.7184 95.7445C18.8099 96.1839 18.9549 96.689 19.1448 97.2307C19.3348 97.7724 19.5661 98.3402 19.8256 98.9017C20.085 99.4632 20.3675 100.007 20.6569 100.503C20.9463 100.999 21.237 101.437 21.5123 101.791C21.7877 102.146 22.0423 102.41 22.2616 102.57C22.4809 102.729 22.6607 102.78 22.7906 102.72Z" stroke="#FC6453" stroke-width="2"/>
<path d="M32.827 5.50435C34.3003 3.89102 35.817 2.42102 37.377 1.09435C37.4246 1.05333 37.4815 1.02445 37.5428 1.01018C37.604 0.9959 37.6679 0.996656 37.7288 1.01237C37.7897 1.02809 37.8458 1.0583 37.8925 1.10044C37.9392 1.14257 37.9751 1.19538 37.9969 1.25435C42.1636 12.3144 46.8269 23.151 51.9869 33.7644C55.7803 41.571 61.3503 47.811 68.697 52.4844C75.787 56.9944 86.9369 59.1744 93.5069 62.4544C99.7936 65.5944 104.734 70.1677 108.327 76.1744C116.667 90.1244 112.507 104.114 103.287 116.144C91.0369 132.124 72.7369 135.934 53.5269 135.254C45.9269 134.988 39.3736 133.911 33.8669 132.024C15.0669 125.584 0.636958 109.724 1.00696 88.9644C1.53696 58.5144 11.927 28.2844 32.827 5.50435ZM33.2369 36.8844C32.5369 41.0244 33.2769 44.901 35.4569 48.5144C42.1669 59.6544 55.3669 82.1844 70.0969 82.2144C70.7169 82.2144 81.347 82.8843 77.257 79.3643C74.947 77.3643 67.7569 78.0044 64.1569 76.0644C52.4269 69.7344 40.6169 48.4744 34.4169 36.7044C33.8369 35.6044 33.4436 35.6644 33.2369 36.8844ZM29.1169 63.6443C28.8236 65.1043 29.1036 66.731 29.9569 68.5244C38.8569 87.1444 53.6369 100.164 75.2469 98.1443C78.3736 97.8577 81.4836 97.431 84.577 96.8643C85.6836 96.6644 85.9003 95.991 85.2269 94.8444C85.0294 94.508 84.7545 94.2242 84.4255 94.0171C84.0965 93.81 83.7231 93.6855 83.3369 93.6544C78.9469 93.3244 74.0269 94.0744 70.2869 93.7744C50.7369 92.2544 41.9369 79.0644 32.3669 63.9644C31.5536 62.671 30.6469 62.3043 29.6469 62.8643C29.512 62.9429 29.3949 63.0532 29.3035 63.1879C29.212 63.3225 29.1484 63.4782 29.1169 63.6443ZM77.377 109.654C76.1436 109.201 74.8736 109.018 73.567 109.104C53.867 110.464 39.197 99.2243 28.127 84.1143C27.307 82.9877 26.8503 83.121 26.757 84.5144C26.477 88.6077 27.8069 92.1944 30.7469 95.2744C39.3369 104.274 49.3869 111.774 62.4069 113.244C68.1769 113.894 72.9269 114.174 77.5369 111.424C78.7103 110.724 78.657 110.134 77.377 109.654ZM22.7925 102.72C22.9225 102.66 23 102.49 23.0208 102.22C23.0416 101.949 23.0051 101.584 22.9136 101.144C22.822 100.705 22.6771 100.2 22.4871 99.6582C22.2972 99.1165 22.0659 98.5486 21.8065 97.9872C21.547 97.4257 21.2645 96.8815 20.9751 96.3857C20.6857 95.89 20.395 95.4523 20.1196 95.0977C19.8443 94.7432 19.5897 94.4786 19.3704 94.3192C19.151 94.1598 18.9712 94.1087 18.8413 94.1688C18.7114 94.2288 18.6338 94.3988 18.613 94.6692C18.5923 94.9395 18.6287 95.3048 18.7203 95.7443C18.8118 96.1838 18.9568 96.6888 19.1467 97.2305C19.3367 97.7723 19.568 98.3401 19.8275 98.9016C20.0869 99.463 20.3694 100.007 20.6588 100.503C20.9482 100.999 21.2389 101.436 21.5142 101.791C21.7896 102.146 22.0442 102.41 22.2635 102.569C22.4828 102.729 22.6626 102.78 22.7925 102.72Z" fill="#FD5441"/>
<path d="M33.2357 36.8842C33.4423 35.6642 33.8357 35.6042 34.4157 36.7042C40.6157 48.4742 52.4257 69.7342 64.1557 76.0642C67.7557 78.0042 74.9457 77.3642 77.2557 79.3642C81.3457 82.8842 70.7157 82.2142 70.0957 82.2142C55.3657 82.1842 42.1657 59.6542 35.4557 48.5142C33.2757 44.9009 32.5357 41.0242 33.2357 36.8842Z" fill="#FFD24B"/>
<path d="M29.6464 62.8642C30.6464 62.3042 31.5531 62.6708 32.3665 63.9642C41.9365 79.0642 50.7365 92.2542 70.2865 93.7742C74.0265 94.0742 78.9464 93.3242 83.3364 93.6542C83.7226 93.6853 84.096 93.8098 84.425 94.0169C84.754 94.224 85.0289 94.5078 85.2265 94.8442C85.8998 95.9908 85.6832 96.6642 84.5765 96.8642C81.4832 97.4308 78.3731 97.8575 75.2465 98.1442C53.6365 100.164 38.8564 87.1442 29.9564 68.5242C29.1031 66.7308 28.8231 65.1042 29.1165 63.6442C29.1479 63.478 29.2115 63.3223 29.303 63.1877C29.3945 63.0531 29.5116 62.9427 29.6464 62.8642Z" fill="#FFD24B"/>
<path d="M77.3753 109.654C78.6553 110.134 78.7086 110.724 77.5352 111.424C72.9252 114.174 68.1752 113.894 62.4052 113.244C49.3852 111.774 39.3353 104.274 30.7453 95.274C27.8053 92.194 26.4753 88.6073 26.7553 84.514C26.8486 83.1207 27.3053 82.9873 28.1253 84.114C39.1953 99.224 53.8653 110.464 73.5653 109.104C74.8719 109.017 76.1419 109.201 77.3753 109.654Z" fill="#FFD24B"/>
<path d="M22.7906 102.72C22.6607 102.78 22.4809 102.729 22.2616 102.57C22.0423 102.41 21.7877 102.146 21.5123 101.791C21.237 101.437 20.9463 100.999 20.6569 100.503C20.3675 100.007 20.085 99.4632 19.8256 98.9017C19.5661 98.3402 19.3348 97.7724 19.1448 97.2307C18.9549 96.689 18.8099 96.1839 18.7184 95.7445C18.6268 95.305 18.5904 94.9396 18.6111 94.6693C18.6319 94.399 18.7095 94.2289 18.8394 94.1689C18.9693 94.1089 19.1491 94.16 19.3685 94.3194C19.5878 94.4788 19.8424 94.7433 20.1177 95.0979C20.3931 95.4525 20.6838 95.8901 20.9732 96.3859C21.2626 96.8817 21.5451 97.4258 21.8046 97.9873C22.064 98.5488 22.2953 99.1166 22.4852 99.6583C22.6752 100.2 22.8201 100.705 22.9117 101.145C23.0032 101.584 23.0397 101.949 23.0189 102.22C22.9981 102.49 22.9206 102.66 22.7906 102.72Z" fill="#FA7464"/>
</svg>
