<svg width="103" height="49" viewBox="0 0 103 49" fill="none" xmlns="http://www.w3.org/2000/svg">
<path d="M24.9418 6.48189C24.7818 15.7919 24.4118 25.0919 26.1518 34.2919C26.4852 36.0586 27.5152 36.6986 29.2418 36.2119C40.9018 32.9119 50.6918 22.5119 56.2518 12.1419C56.5852 11.5219 56.8352 11.5519 57.0018 12.2319C59.1618 21.1719 60.4518 29.6919 64.8618 37.9319C65.9885 40.0319 67.2152 40.3919 68.5418 39.0119C73.4218 33.9419 75.9318 25.2919 78.6118 18.8419C79.3918 16.9619 80.0385 17.0086 80.5518 18.9819C82.8818 27.9919 84.8218 38.2319 88.7018 46.6419C88.7967 46.8441 88.9047 47.021 89.0163 47.1571C89.1279 47.2931 89.2397 47.384 89.3418 47.4219C90.2152 47.7352 91.0785 47.7352 91.9318 47.4219C92.164 47.337 92.4041 47.1642 92.6355 46.9156C92.8669 46.667 93.084 46.3483 93.2718 45.9819C96.3785 39.9219 99.0418 33.6786 101.262 27.2519C101.302 27.1331 101.284 26.9996 101.214 26.8787C101.143 26.7578 101.024 26.6587 100.882 26.6019C99.4818 26.0352 98.4618 26.5519 97.8218 28.1519C95.8952 32.9586 93.8918 37.6952 91.8118 42.3619C91.1318 43.8886 90.5285 43.8586 90.0018 42.2719C86.7918 32.4819 85.0618 22.4319 81.4718 12.7119C81.4117 12.5508 81.3248 12.4055 81.2165 12.2852C81.1082 12.1648 80.9807 12.0718 80.8418 12.0119C77.5218 10.6319 70.3618 29.6819 68.7418 33.9619C66.3518 40.2319 59.9718 9.61188 59.8118 8.60188C59.4218 6.12188 57.7218 5.49189 56.1418 7.67189C48.5118 18.1719 41.8318 27.2719 30.2618 32.8219C30.1104 32.895 29.9443 32.9321 29.776 32.9303C29.6078 32.9285 29.442 32.8879 29.2913 32.8117C29.1407 32.7354 29.0093 32.6254 28.9071 32.4902C28.8049 32.3551 28.7347 32.1983 28.7018 32.0319C26.7218 21.7119 27.5718 12.3719 27.2218 2.04189C27.2156 1.87102 27.1717 1.7082 27.0945 1.56959C27.0173 1.43099 26.9095 1.32147 26.7818 1.25191C25.6118 0.611907 24.4918 1.27188 23.7518 2.35188C18.9718 9.32188 13.4518 17.4219 7.02185 22.9019C6.21518 23.5886 5.76183 23.3952 5.66183 22.3219L4.23184 6.50191C4.21688 6.32424 4.1577 6.15571 4.06072 6.01466C3.96375 5.87362 3.83273 5.76546 3.68185 5.70192C1.77518 4.89525 0.885169 5.57857 1.01184 7.75191C1.24517 11.6919 1.79851 16.3586 2.67184 21.7519C3.08184 24.3019 3.43185 27.9019 6.90185 25.9219C13.6419 22.0919 19.6118 13.0319 24.2718 6.27193C24.7318 5.60526 24.9552 5.67522 24.9418 6.48189Z" stroke="#FAAD9C" stroke-width="2"/>
<path d="M24.9418 6.4814C24.9552 5.67473 24.7318 5.60477 24.2718 6.27144C19.6118 13.0314 13.6419 22.0914 6.90185 25.9214C3.43185 27.9014 3.08184 24.3014 2.67184 21.7514C1.79851 16.3581 1.24517 11.6914 1.01184 7.75142C0.885169 5.57808 1.77518 4.89476 3.68185 5.70143C3.83273 5.76497 3.96375 5.87313 4.06072 6.01417C4.1577 6.15522 4.21688 6.32375 4.23184 6.50142L5.66183 22.3214C5.76183 23.3948 6.21518 23.5881 7.02185 22.9014C13.4518 17.4214 18.9718 9.32139 23.7518 2.35139C24.4918 1.27139 25.6118 0.611419 26.7818 1.25142C26.9095 1.32098 27.0173 1.43051 27.0945 1.56911C27.1717 1.70771 27.2156 1.87053 27.2218 2.0414C27.5718 12.3714 26.7218 21.7114 28.7018 32.0314C28.7347 32.1978 28.8049 32.3546 28.9071 32.4898C29.0093 32.6249 29.1407 32.7349 29.2913 32.8112C29.442 32.8875 29.6078 32.928 29.776 32.9298C29.9443 32.9316 30.1104 32.8945 30.2618 32.8214C41.8318 27.2714 48.5118 18.1714 56.1418 7.6714C57.7218 5.4914 59.4218 6.12139 59.8118 8.60139C59.9718 9.61139 66.3518 40.2314 68.7418 33.9614C70.3618 29.6814 77.5218 10.6314 80.8418 12.0114C80.9807 12.0714 81.1082 12.1643 81.2165 12.2847C81.3248 12.4051 81.4117 12.5503 81.4718 12.7114C85.0618 22.4314 86.7918 32.4814 90.0018 42.2714C90.5285 43.8581 91.1318 43.8881 91.8118 42.3614C93.8918 37.6947 95.8952 32.9581 97.8218 28.1514C98.4618 26.5514 99.4818 26.0347 100.882 26.6014C101.024 26.6582 101.143 26.7573 101.214 26.8782C101.284 26.9991 101.302 27.1326 101.262 27.2514C99.0418 33.6781 96.3785 39.9214 93.2718 45.9814C93.084 46.3479 92.8669 46.6665 92.6355 46.9151C92.4041 47.1638 92.164 47.3365 91.9318 47.4214C91.0785 47.7347 90.2152 47.7347 89.3418 47.4214C89.2397 47.3836 89.1279 47.2926 89.0163 47.1566C88.9047 47.0205 88.7967 46.8436 88.7018 46.6414C84.8218 38.2314 82.8818 27.9914 80.5518 18.9814C80.0385 17.0081 79.3918 16.9614 78.6118 18.8414C75.9318 25.2914 73.4218 33.9414 68.5418 39.0114C67.2152 40.3914 65.9885 40.0314 64.8618 37.9314C60.4518 29.6914 59.1618 21.1714 57.0018 12.2314C56.8352 11.5514 56.5852 11.5214 56.2518 12.1414C50.6918 22.5114 40.9018 32.9114 29.2418 36.2114C27.5152 36.6981 26.4852 36.0581 26.1518 34.2914C24.4118 25.0914 24.7818 15.7914 24.9418 6.4814Z" fill="#F65E4A"/>
</svg>
