<svg width="141" height="146" viewBox="0 0 141 146" fill="none" xmlns="http://www.w3.org/2000/svg">
<path d="M25.2351 127.253C36.7856 136.573 49.8139 132.493 58.6603 122.093C63.6565 116.213 66.5416 130.453 67.567 132.133C78.3635 149.703 98.6599 147.673 109.788 132.043C117.79 120.813 114.091 111.573 110.663 99.8329C109.919 97.3029 110.733 94.4828 113.478 94.1228C143.716 90.0828 148.32 58.0829 126.104 40.6529C118.497 34.6862 109.47 32.3029 99.0219 33.5029C81.108 35.5629 89.2406 24.9929 83.7819 15.2229C79.972 8.39286 71.6785 3.35287 64.32 1.86287C52.116 -0.597128 41.5037 2.20286 32.4831 10.2629C29.6181 12.8229 27.698 16.1829 25.5769 19.4729C20.8622 26.8129 14.7904 33.3429 9.02011 39.8629C3.26998 46.3729 0.304407 51.3629 1.13878 59.5629C1.85252 66.5529 9.29157 71.7828 12.5084 77.7728C15.675 83.6928 15.5443 88.3329 15.1623 96.3829C14.4988 110.053 13.6242 117.893 25.2351 127.253Z" stroke="#F6B1A6" stroke-width="2"/>
<path d="M51.3707 95.0028C58.622 100.556 66.9691 102.756 76.4119 101.603C89.9931 99.9528 98.2061 85.9028 97.1607 73.9528C96.0046 60.6328 87.1985 50.2428 73.939 47.2328C50.5464 41.9328 31.0844 79.4828 51.3707 95.0028Z" stroke="#F68F49" stroke-width="2"/>
<path d="M25.2351 127.253C13.6242 117.893 14.4988 110.053 15.1623 96.3829C15.5443 88.3329 15.675 83.6928 12.5084 77.7728C9.29157 71.7828 1.85252 66.5529 1.13878 59.5629C0.304407 51.3629 3.26998 46.3729 9.02011 39.8629C14.7904 33.3429 20.8622 26.8129 25.5769 19.4729C27.698 16.1829 29.6181 12.8229 32.4831 10.2629C41.5037 2.20286 52.116 -0.597128 64.32 1.86287C71.6785 3.35287 79.972 8.39286 83.7819 15.2229C89.2406 24.9929 81.108 35.5629 99.0219 33.5029C109.47 32.3029 118.497 34.6862 126.104 40.6529C148.32 58.0829 143.716 90.0828 113.478 94.1228C110.733 94.4828 109.919 97.3029 110.663 99.8329C114.091 111.573 117.79 120.813 109.788 132.043C98.6599 147.673 78.3635 149.703 67.567 132.133C66.5416 130.453 63.6565 116.213 58.6603 122.093C49.8139 132.493 36.7856 136.573 25.2351 127.253ZM51.3721 95.0029C58.6234 100.556 66.9705 102.756 76.4133 101.603C89.9945 99.9529 98.2075 85.9029 97.1621 73.9529C96.006 60.6329 87.1999 50.2429 73.9404 47.2329C50.5478 41.9329 31.0858 79.4828 51.3721 95.0029Z" fill="#ED6A5B"/>
<path d="M54.5566 95.0028C34.3766 79.4828 53.7366 41.9328 77.0066 47.2328C90.1966 50.2428 98.9566 60.6328 100.107 73.9528C101.147 85.9028 92.9766 99.9528 79.4666 101.603C70.0733 102.756 61.77 100.556 54.5566 95.0028Z" fill="#FEB436"/>
</svg>
