<svg width="14" height="12" viewBox="0 0 14 12" fill="none" xmlns="http://www.w3.org/2000/svg">
<path d="M11.162 2.34946C10.042 1.32279 8.82203 1.20278 7.50203 1.98944C7.21537 2.16278 6.88203 2.25611 6.50203 2.26944L3.19204 2.38947C1.26537 2.4628 0.798693 3.2328 1.79203 4.69947L4.93203 9.33945C5.70536 10.4795 6.6187 10.4961 7.67203 9.38947L11.552 5.29944C12.432 4.37944 12.302 3.39613 11.162 2.34946Z" stroke="#EFBAA6" stroke-width="2"/>
<path d="M11.1581 2.35044C12.2981 3.3971 12.4281 4.38042 11.5481 5.30042L7.66812 9.39045C6.61479 10.4971 5.70145 10.4804 4.92812 9.34043L1.78812 4.70044C0.794786 3.23378 1.26146 2.46378 3.18813 2.39045L6.49813 2.27042C6.87813 2.25709 7.21146 2.16375 7.49813 1.99042C8.81813 1.20375 10.0381 1.32377 11.1581 2.35044Z" fill="#DF744D"/>
</svg>
