<svg width="89" height="145" viewBox="0 0 89 145" fill="none" xmlns="http://www.w3.org/2000/svg">
<path d="M18.9647 52.2202C-5.04529 64.9202 -4.21528 95.8302 16.8447 110.79C16.9582 110.871 17.0391 110.988 17.0723 111.121C17.1054 111.254 17.0885 111.392 17.0247 111.51C12.7447 119.46 5.83473 129.56 4.54473 138.46C4.49262 138.786 4.5379 139.117 4.67473 139.41C7.2414 144.95 10.548 145.31 14.5947 140.49C20.9147 132.97 26.3114 124.85 30.7847 116.13C30.848 116.005 30.9495 115.903 31.0751 115.839C31.2007 115.774 31.344 115.75 31.4847 115.77C36.1847 116.49 40.918 116.664 45.6847 116.29C71.6547 114.26 86.5047 89.1903 74.6947 65.2603C74.5117 64.887 74.4353 64.4708 74.4742 64.0577C74.513 63.6446 74.6655 63.2509 74.9147 62.9202C88.7947 44.5102 95.5547 16.7202 69.1847 4.84022C55.8447 -1.17978 38.0847 -0.969748 29.2947 11.6203C21.1147 23.3403 20.2047 36.4603 19.4347 51.5003C19.4291 51.6464 19.3827 51.7899 19.3003 51.9163C19.2178 52.0426 19.102 52.1475 18.9647 52.2202Z" stroke="#8B8EA0" stroke-width="2"/>
<path d="M31.2947 49.5902C43.2147 48.0702 55.0847 50.2302 65.4047 55.9602C65.6931 56.1213 66.0322 56.1655 66.3509 56.0834C66.6696 56.0014 66.9433 55.7996 67.1147 55.5202C73.1047 45.7802 77.9947 35.2302 75.0547 23.7802C73.0647 16.0202 58.0747 12.1502 51.4547 12.0302C33.4047 11.7302 29.6247 34.9303 30.0147 48.5003C30.0189 48.6578 30.0563 48.8128 30.1245 48.9551C30.1927 49.0974 30.2902 49.224 30.4108 49.3266C30.5313 49.4293 30.6722 49.5058 30.8245 49.5512C30.9767 49.5966 31.1369 49.6099 31.2947 49.5902Z" stroke="#776E97" stroke-width="2"/>
<path d="M20.4163 100.61C31.4563 109.22 46.4963 108.21 57.0663 99.5102C62.5263 95.0102 68.4163 86.7802 67.5863 79.1202C67.0763 74.4202 67.0263 67.9701 60.9763 68.2401C50.223 68.7268 40.0097 67.0268 30.3363 63.1402C26.9863 61.8002 25.1963 61.9801 22.4163 63.9801C9.77634 73.0601 7.58634 90.6101 20.4163 100.61Z" stroke="#776E97" stroke-width="2"/>
<path d="M19.4347 51.5003C20.2047 36.4603 21.1147 23.3403 29.2947 11.6203C38.0847 -0.969748 55.8447 -1.17978 69.1847 4.84022C95.5547 16.7202 88.7947 44.5102 74.9147 62.9202C74.6655 63.2509 74.513 63.6446 74.4742 64.0577C74.4353 64.4708 74.5117 64.887 74.6947 65.2603C86.5047 89.1903 71.6547 114.26 45.6847 116.29C40.918 116.664 36.1847 116.49 31.4847 115.77C31.344 115.75 31.2007 115.774 31.0751 115.839C30.9495 115.903 30.848 116.005 30.7847 116.13C26.3114 124.85 20.9147 132.97 14.5947 140.49C10.548 145.31 7.2414 144.95 4.67473 139.41C4.5379 139.117 4.49262 138.786 4.54473 138.46C5.83473 129.56 12.7447 119.46 17.0247 111.51C17.0885 111.392 17.1054 111.254 17.0723 111.121C17.0391 110.988 16.9582 110.871 16.8447 110.79C-4.21528 95.8302 -5.04529 64.9202 18.9647 52.2202C19.102 52.1475 19.2178 52.0426 19.3003 51.9163C19.3827 51.7899 19.4291 51.6465 19.4347 51.5003ZM31.2947 49.5902C43.2147 48.0702 55.0847 50.2302 65.4047 55.9602C65.6932 56.1213 66.0322 56.1655 66.3509 56.0834C66.6696 56.0014 66.9433 55.7996 67.1147 55.5202C73.1047 45.7802 77.9947 35.2302 75.0547 23.7802C73.0647 16.0202 58.0747 12.1502 51.4547 12.0302C33.4047 11.7302 29.6247 34.9303 30.0147 48.5003C30.0189 48.6578 30.0563 48.8128 30.1245 48.9551C30.1927 49.0974 30.2903 49.224 30.4108 49.3266C30.5314 49.4293 30.6723 49.5058 30.8245 49.5512C30.9767 49.5966 31.1369 49.6099 31.2947 49.5902ZM20.4147 100.61C31.4547 109.22 46.4947 108.21 57.0647 99.5103C62.5247 95.0103 68.4147 86.7803 67.5847 79.1203C67.0747 74.4203 67.0247 67.9703 60.9747 68.2402C50.2214 68.7269 40.008 67.0269 30.3347 63.1403C26.9847 61.8003 25.1947 61.9802 22.4147 63.9802C9.77472 73.0602 7.58472 90.6102 20.4147 100.61Z" fill="#181D42"/>
<path d="M65.4047 55.9602C55.0847 50.2302 43.2147 48.0702 31.2947 49.5902C31.1369 49.6099 30.9767 49.5966 30.8245 49.5512C30.6722 49.5058 30.5313 49.4293 30.4108 49.3266C30.2902 49.224 30.1927 49.0974 30.1245 48.9551C30.0563 48.8128 30.0189 48.6578 30.0147 48.5003C29.6247 34.9303 33.4047 11.7302 51.4547 12.0302C58.0747 12.1502 73.0647 16.0202 75.0547 23.7802C77.9947 35.2302 73.1047 45.7802 67.1147 55.5202C66.9433 55.7996 66.6696 56.0014 66.3509 56.0834C66.0322 56.1655 65.6931 56.1213 65.4047 55.9602Z" fill="#D6BEEC"/>
<path d="M20.4163 100.61C7.58634 90.6101 9.77634 73.0601 22.4163 63.9801C25.1963 61.9801 26.9863 61.8002 30.3363 63.1402C40.0097 67.0268 50.223 68.7268 60.9763 68.2401C67.0263 67.9701 67.0763 74.4202 67.5863 79.1202C68.4163 86.7802 62.5263 95.0102 57.0663 99.5102C46.4963 108.21 31.4563 109.22 20.4163 100.61Z" fill="#D6BEEC"/>
</svg>
