<svg width="118" height="126" viewBox="0 0 118 126" fill="none" xmlns="http://www.w3.org/2000/svg">
<path d="M47.2789 79.4547C38.9889 66.1747 33.3989 52.5547 31.3789 37.0547" stroke="#878A9B" stroke-width="2"/>
<path d="M31.3779 37.0544C30.2979 25.3411 29.6312 13.6244 29.3779 1.90442C29.3758 1.77733 29.3473 1.65207 29.2943 1.53653C29.2413 1.42099 29.1649 1.31769 29.07 1.23312C28.9751 1.14856 28.8638 1.08459 28.7429 1.04523C28.622 1.00586 28.4944 0.991974 28.3679 1.00443C17.5679 2.02443 6.56795 22.8144 3.79795 31.8244C-0.732049 46.5144 -0.102137 62.4344 8.20786 75.7744C14.6079 86.0544 21.9779 96.3544 31.6579 103.154C42.9479 111.084 59.7779 115.594 73.5779 118.614C77.4379 119.464 120.838 128.514 116.368 121.694C115.708 120.674 114.801 119.971 113.648 119.584C98.1346 114.364 83.6813 108.498 70.2879 101.984C60.1146 97.0378 52.4446 89.5277 47.2779 79.4544" stroke="#8F91A5" stroke-width="2"/>
<path d="M31.3755 37.0544C30.3688 36.6078 29.5288 36.7377 28.8555 37.4444C28.7537 37.5491 28.6796 37.6838 28.6395 37.837C28.5995 37.9902 28.5947 38.1574 28.6255 38.3244C31.6055 54.2344 36.6655 68.2144 45.7955 81.9644C45.8318 82.0181 45.8788 82.0639 45.9332 82.0983C45.9876 82.1327 46.048 82.1551 46.1101 82.1637C46.1722 82.1723 46.2345 82.1669 46.2925 82.148C46.3505 82.1292 46.4027 82.0972 46.4454 82.0544C47.0788 81.3944 47.3555 80.5277 47.2755 79.4544" stroke="#181D42" stroke-width="2"/>
<path d="M44.2853 17.7851C43.7786 18.9918 43.5653 20.2651 43.6453 21.6051C43.6538 21.7381 43.695 21.8666 43.7659 21.9804C43.8367 22.0942 43.9352 22.1902 44.0535 22.261C44.1717 22.3318 44.3065 22.3753 44.4474 22.3881C44.5883 22.401 44.7313 22.3828 44.8652 22.3351L48.3752 21.0851C48.5278 21.0296 48.6595 20.9278 48.7526 20.7937C48.8456 20.6595 48.8954 20.4993 48.8953 20.3351C48.9019 18.8418 48.4153 17.4718 47.4353 16.2251C46.342 14.8384 45.292 15.3584 44.2853 17.7851Z" stroke="#87878F" stroke-width="2"/>
<path d="M31.3779 37.0554C30.3712 36.6088 29.5312 36.7387 28.8579 37.4454C28.7561 37.5501 28.682 37.6848 28.6419 37.838C28.6019 37.9912 28.5971 38.1584 28.6279 38.3254C31.6079 54.2354 36.6679 68.2154 45.798 81.9654C45.8342 82.0191 45.8812 82.0649 45.9356 82.0993C45.99 82.1338 46.0504 82.1561 46.1125 82.1647C46.1746 82.1733 46.2369 82.1679 46.2949 82.149C46.3529 82.1302 46.4051 82.0982 46.4479 82.0554C47.0812 81.3954 47.3579 80.5287 47.2779 79.4554C52.4446 89.5287 60.1146 97.0387 70.2879 101.985C83.6813 108.499 98.1346 114.365 113.648 119.585C114.801 119.972 115.708 120.675 116.368 121.695C120.838 128.515 77.4379 119.465 73.5779 118.615C59.7779 115.595 42.9479 111.085 31.6579 103.155C21.9779 96.3554 14.6079 86.0554 8.20786 75.7754C-0.102137 62.4354 -0.732049 46.5154 3.79795 31.8254C6.56795 22.8154 17.5679 2.0254 28.3679 1.0054C28.4944 0.99295 28.622 1.00684 28.7429 1.0462C28.8638 1.08557 28.9751 1.14954 29.07 1.2341C29.1649 1.31866 29.2413 1.42197 29.2943 1.53751C29.3473 1.65305 29.3758 1.77831 29.3779 1.9054C29.6312 13.6254 30.2979 25.3421 31.3779 37.0554Z" fill="#1F244B"/>
<path d="M44.2892 17.7851C45.2959 15.3584 46.3459 14.8384 47.4392 16.2251C48.4192 17.4718 48.9058 18.8418 48.8992 20.3351C48.8993 20.4993 48.8495 20.6595 48.7565 20.7937C48.6634 20.9278 48.5317 21.0296 48.3792 21.0851L44.8691 22.3351C44.7352 22.3828 44.5922 22.401 44.4513 22.3881C44.3104 22.3753 44.1756 22.3318 44.0574 22.261C43.9391 22.1902 43.8406 22.0942 43.7698 21.9804C43.699 21.8666 43.6577 21.7381 43.6492 21.6051C43.5692 20.2651 43.7825 18.9918 44.2892 17.7851Z" fill="#0F101F"/>
<path d="M31.3794 37.0544C33.3994 52.5544 38.9894 66.1744 47.2794 79.4544C47.3594 80.5277 47.0827 81.3944 46.4493 82.0544C46.4066 82.0972 46.3544 82.1292 46.2964 82.148C46.2384 82.1669 46.1761 82.1723 46.114 82.1637C46.0519 82.1551 45.9915 82.1327 45.9371 82.0983C45.8827 82.0639 45.8357 82.0181 45.7994 81.9644C36.6694 68.2144 31.6094 54.2344 28.6294 38.3244C28.5986 38.1574 28.6034 37.9902 28.6434 37.837C28.6835 37.6838 28.7576 37.5491 28.8594 37.4444C29.5327 36.7377 30.3727 36.6078 31.3794 37.0544Z" fill="#101638"/>
</svg>
