<svg width="122" height="246" viewBox="0 0 122 246" fill="none" xmlns="http://www.w3.org/2000/svg">
<path d="M43.1453 10.355C40.2387 10.5416 38.552 11.7983 38.0853 14.125C38.0583 14.267 38.0771 14.4165 38.1392 14.555C38.2014 14.6936 38.3043 14.8152 38.4353 14.905C40.8153 16.5383 40.5686 17.645 37.6953 18.225" stroke="#8D94AE" stroke-width="2"/>
<path d="M37.6923 18.2251C35.2523 18.4984 33.659 17.6251 32.9123 15.6051C32.8618 15.4711 32.7672 15.36 32.649 15.2962C32.5309 15.2325 32.399 15.2213 32.2823 15.2651C31.529 15.5651 30.9857 16.1218 30.6523 16.9351" stroke="#D3CDDB" stroke-width="2"/>
<path d="M30.6523 16.9351C29.019 17.8484 28.019 19.3251 27.6523 21.3651" stroke="#F7ECF1" stroke-width="2"/>
<path d="M27.656 21.3652C20.1426 27.0386 12.6826 32.7586 5.27595 38.5252C-0.0507126 42.6719 -0.4007 47.2119 4.22597 52.1452C10.1793 58.4852 17.0159 63.6419 24.7359 67.6152C24.8844 67.6891 25.008 67.807 25.0914 67.9545C25.1749 68.1019 25.2148 68.2725 25.2059 68.4452C24.5526 83.4052 20.8493 97.5552 14.096 110.895C14.016 111.042 13.9693 111.289 13.9559 111.635L13.9259 112.035" stroke="#BCE8DB" stroke-width="2"/>
<path d="M13.9236 112.035C-1.14644 134.425 2.04358 159.835 7.32358 184.775C8.93692 192.388 10.9469 200.078 13.3536 207.845C13.8336 209.392 14.6702 209.828 15.8636 209.155L20.3736 206.605C20.5949 206.481 20.7724 206.258 20.883 205.964C20.9935 205.67 21.032 205.318 20.9936 204.955C19.3869 189.622 17.9636 174.285 16.7236 158.945C16.1136 151.435 17.2136 146.655 22.3936 141.035C26.5803 136.488 30.6769 131.992 34.6836 127.545C34.7549 127.466 34.8436 127.404 34.943 127.365C35.0423 127.325 35.1496 127.309 35.2567 127.318C35.3638 127.327 35.4679 127.36 35.5609 127.415C35.654 127.47 35.7335 127.545 35.7936 127.635C50.8336 150.415 66.3036 172.842 82.2036 194.915C82.5103 195.342 83.0769 195.515 83.9035 195.435" stroke="#8D94AE" stroke-width="2"/>
<path d="M83.9023 195.435C85.0357 198.888 87.0124 201.798 89.8324 204.165C89.9902 204.298 90.1624 204.396 90.317 204.442C90.4716 204.488 90.5979 204.479 90.6724 204.415L94.0924 201.585C94.1658 201.521 94.2028 201.4 94.1974 201.242C94.1919 201.084 94.1443 200.898 94.0624 200.715C92.6824 197.582 90.879 194.738 88.6523 192.185" stroke="#F9E7E5" stroke-width="2"/>
<path d="M88.6528 192.185L91.8028 189.105C91.9018 189.009 91.9626 188.878 91.9753 188.732C91.988 188.587 91.9519 188.437 91.8729 188.305C76.2229 163.595 62.1828 137.265 53.9428 109.075C53.8972 108.917 53.8179 108.775 53.7127 108.663C53.6075 108.551 53.4801 108.472 53.3428 108.435C52.6895 108.268 52.1195 108.375 51.6328 108.755" stroke="#8D94AE" stroke-width="2"/>
<path d="M51.6328 108.755C52.6128 105.888 53.1261 102.972 53.1728 100.005C53.3328 89.4751 54.0628 79.0351 53.9428 68.4751C53.9396 68.1604 54.0382 67.8532 54.2238 67.5991C54.4094 67.345 54.6721 67.1577 54.9728 67.0651C59.5728 65.6551 89.5628 54.6251 83.3928 46.4951C77.8394 39.1817 70.4528 31.4117 61.2328 23.1851" stroke="#BCE8DB" stroke-width="2"/>
<path d="M59.2045 18.155C64.6112 13.9483 64.1878 11.995 57.9345 12.295C57.8042 12.3016 57.6741 12.2981 57.5522 12.2849C57.4304 12.2717 57.3192 12.2489 57.2256 12.218C57.132 12.1871 57.0579 12.1488 57.0079 12.1053C56.9578 12.0618 56.9328 12.014 56.9345 11.965L56.9445 11.435C56.9448 11.3118 56.9888 11.1779 57.0725 11.0453C57.1562 10.9128 57.2771 10.7856 57.4245 10.675L63.3545 6.08499C63.4863 5.98226 63.5815 5.84183 63.625 5.68601C63.6685 5.53018 63.6578 5.36791 63.5945 5.22499C62.6445 3.13499 56.5145 6.685 55.1445 7.345C54.3579 7.71834 54.1245 7.50166 54.4445 6.69499C54.8445 5.65499 57.3845 1.22501 55.2345 1.00501C55.075 0.9867 54.9124 1.01885 54.768 1.09731C54.6236 1.17576 54.5039 1.29689 54.4245 1.44499C53.5112 3.14499 52.2045 4.42166 50.5045 5.27499C50.3892 5.33446 50.239 5.33098 50.08 5.26518C49.9209 5.19939 49.7633 5.07545 49.6345 4.91499C46.4745 0.994994 44.1945 8.695 43.1445 10.355" stroke="#C6F0E3" stroke-width="2"/>
<path d="M59.1553 32.5752C55.222 39.7685 49.2353 43.0685 41.1953 42.4752" stroke="#8D94AE" stroke-width="2"/>
<path d="M41.1944 42.4751C38.9077 41.8017 36.8377 40.7051 34.9844 39.1851" stroke="#497D8A" stroke-width="2"/>
<path d="M34.9851 39.1851C32.3385 35.6784 31.3118 31.6784 31.9052 27.1851" stroke="#8D94AE" stroke-width="2"/>
<path d="M31.9047 27.1851C31.658 26.1517 31.8346 25.4517 32.4346 25.0851C32.5473 25.0165 32.6895 24.9773 32.8506 24.9704C33.0117 24.9635 33.1874 24.989 33.3646 25.0451C34.8746 25.5251 37.7647 26.4051 37.7147 24.2251C37.7085 24.0623 37.6666 23.9035 37.5922 23.7599C37.5179 23.6164 37.4128 23.4917 37.2847 23.3951L34.6547 21.4351" stroke="#8480A0" stroke-width="2"/>
<path d="M31.9053 27.185L31.1953 27.145" stroke="#F7ECF1" stroke-width="2"/>
<path d="M31.1942 27.145C30.2342 28.3384 29.5509 29.0917 29.1442 29.405C23.2242 34.0117 17.5875 38.9883 12.2342 44.335C12.1876 44.38 12.1509 44.4341 12.1261 44.4941C12.1013 44.554 12.089 44.6187 12.0899 44.6841C12.0908 44.7495 12.105 44.8143 12.1315 44.8746C12.158 44.9349 12.1963 44.9895 12.2442 45.035C16.1742 48.695 24.7742 54.285 30.4042 53.165C32.4576 52.7517 33.6142 51.3817 33.8742 49.055L34.9842 39.185" stroke="#BCE8DB" stroke-width="2"/>
<path d="M41.1952 42.4752C40.6886 46.0485 40.6652 49.5285 41.1252 52.9152C41.1677 53.241 41.3173 53.5447 41.5517 53.7808C41.786 54.017 42.0925 54.1728 42.4252 54.2252C52.1052 55.7385 61.5952 55.0652 70.8952 52.2052C71.0711 52.1512 71.2331 52.0582 71.3678 51.9339C71.5026 51.8095 71.6064 51.6574 71.6707 51.4897C71.735 51.3221 71.758 51.1437 71.7379 50.9692C71.7179 50.7946 71.6553 50.6288 71.5552 50.4852L59.1552 32.5752" stroke="#BCE8DB" stroke-width="2"/>
<path d="M51.6358 108.755C39.2358 110.985 26.4858 111.135 13.9258 112.035" stroke="#497D8A" stroke-width="2"/>
<path d="M88.6523 192.185L83.9023 195.435" stroke="#877B94" stroke-width="2"/>
<path d="M90.9252 206.945C91.7752 219.555 101.455 231.065 114.785 230.395C121.435 230.065 122.015 224.575 116.955 221.145C112.595 218.185 108.332 214.045 104.165 208.725C102.359 206.425 99.5185 204.475 95.6452 202.875C95.466 202.803 95.2816 202.771 95.1133 202.784C94.9451 202.796 94.8001 202.852 94.6952 202.945L91.2553 206.005C91.1402 206.107 91.0504 206.246 90.9931 206.409C90.9358 206.572 90.9126 206.755 90.9252 206.945Z" stroke="#FEB2A7" stroke-width="2"/>
<path d="M16.6156 237.945C27.5856 252.515 49.2056 239.865 40.9656 224.125C37.1656 216.875 30.4456 214.165 22.6156 212.915C20.0556 212.505 16.9456 214.495 15.7456 216.705C11.5322 224.499 11.8222 231.579 16.6156 237.945Z" stroke="#FEB2A7" stroke-width="2"/>
<path d="M59.2045 18.155C55.3912 12.6217 50.0379 10.0217 43.1445 10.355C44.1945 8.695 46.4745 0.994994 49.6345 4.91499C49.7633 5.07545 49.9209 5.19939 50.08 5.26518C50.239 5.33098 50.3892 5.33446 50.5045 5.27499C52.2045 4.42166 53.5112 3.14499 54.4245 1.44499C54.5039 1.29689 54.6236 1.17576 54.768 1.09731C54.9124 1.01885 55.075 0.9867 55.2345 1.00501C57.3845 1.22501 54.8445 5.65499 54.4445 6.69499C54.1245 7.50166 54.3579 7.71834 55.1445 7.345C56.5145 6.685 62.6445 3.13499 63.5945 5.22499C63.6578 5.36791 63.6685 5.53018 63.625 5.68601C63.5815 5.84183 63.4863 5.98226 63.3545 6.08499L57.4245 10.675C57.2771 10.7856 57.1562 10.9128 57.0725 11.0453C56.9888 11.1779 56.9448 11.3118 56.9445 11.435L56.9345 11.965C56.9328 12.014 56.9578 12.0618 57.0079 12.1053C57.0579 12.1488 57.132 12.1871 57.2256 12.218C57.3192 12.2489 57.4304 12.2717 57.5522 12.2849C57.6741 12.2981 57.8042 12.3016 57.9345 12.295C64.1878 11.995 64.6112 13.9483 59.2045 18.155Z" fill="#8DE0C6"/>
<path d="M43.1452 10.3551C50.0385 10.0217 55.3918 12.6217 59.2052 18.1551C60.2385 19.7884 60.9151 21.4651 61.2351 23.1851C60.9551 26.5584 60.2618 29.6884 59.1552 32.5751C55.2218 39.7684 49.2352 43.0684 41.1952 42.4751C38.9085 41.8017 36.8385 40.7051 34.9851 39.1851C32.3385 35.6784 31.3118 31.6784 31.9052 27.1851C31.6585 26.1517 31.8351 25.4517 32.4351 25.0851C32.5478 25.0165 32.69 24.9773 32.8511 24.9704C33.0122 24.9635 33.1879 24.989 33.3651 25.0451C34.8751 25.5251 37.7652 26.4051 37.7152 24.2251C37.7089 24.0624 37.6671 23.9035 37.5927 23.7599C37.5184 23.6164 37.4133 23.4917 37.2852 23.3951L34.6552 21.4351C35.2085 19.9484 36.2218 18.8784 37.6952 18.2251C40.5685 17.6451 40.8151 16.5384 38.4351 14.9051C38.3041 14.8153 38.2012 14.6937 38.1391 14.5551C38.0769 14.4166 38.0582 14.2671 38.0852 14.1251C38.5518 11.7984 40.2385 10.5417 43.1452 10.3551Z" fill="#1A285D"/>
<path d="M37.6962 18.2251C36.2229 18.8784 35.2096 19.9484 34.6562 21.4351C33.6962 20.8818 32.9629 20.0951 32.4562 19.0751C32.3162 18.7884 32.1162 18.5451 31.8562 18.3451C31.3495 17.9584 30.9496 17.4884 30.6562 16.9351C30.9896 16.1218 31.5329 15.5651 32.2863 15.2651C32.4029 15.2213 32.5348 15.2325 32.653 15.2962C32.7711 15.36 32.8657 15.4711 32.9162 15.6051C33.6629 17.6251 35.2562 18.4984 37.6962 18.2251Z" fill="#A69AB7"/>
<path d="M30.6562 16.9351C30.9496 17.4884 31.3495 17.9584 31.8562 18.3451C32.1162 18.5451 32.3162 18.7884 32.4562 19.0751C32.9629 20.0951 33.6962 20.8817 34.6562 21.4351L37.2863 23.3951C37.4144 23.4917 37.5194 23.6164 37.5938 23.7599C37.6682 23.9035 37.71 24.0623 37.7162 24.2251C37.7662 26.4051 34.8762 25.5251 33.3662 25.0451C33.189 24.989 33.0133 24.9635 32.8522 24.9704C32.6911 24.9773 32.5489 25.0165 32.4362 25.0851C31.8362 25.4517 31.6596 26.1517 31.9062 27.1851L31.1962 27.1451L30.9962 25.9851C30.9708 25.8436 30.9094 25.7052 30.8162 25.5793C30.723 25.4533 30.6003 25.3427 30.4562 25.2551C28.8296 24.2751 27.8962 22.9784 27.6562 21.3651C28.0229 19.3251 29.0229 17.8484 30.6562 16.9351Z" fill="#EED8E2"/>
<path d="M27.656 21.3652C27.896 22.9786 28.8293 24.2752 30.4559 25.2552C30.6 25.3429 30.7228 25.4535 30.8159 25.5795C30.9091 25.7054 30.9705 25.8438 30.9959 25.9852L31.1959 27.1452C30.2359 28.3386 29.5526 29.0919 29.146 29.4052C23.226 34.0119 17.5892 38.9886 12.2359 44.3352C12.1894 44.3802 12.1526 44.4343 12.1278 44.4943C12.103 44.5543 12.0907 44.6189 12.0916 44.6843C12.0926 44.7497 12.1067 44.8145 12.1333 44.8748C12.1598 44.9351 12.1981 44.9897 12.2459 45.0352C16.1759 48.6952 24.776 54.2852 30.406 53.1652C32.4593 52.7519 33.6159 51.3819 33.8759 49.0552L34.9859 39.1852C36.8392 40.7052 38.9093 41.8019 41.1959 42.4752C40.6893 46.0486 40.6659 49.5286 41.1259 52.9152C41.1684 53.241 41.318 53.5447 41.5524 53.7809C41.7867 54.017 42.0932 54.1729 42.4259 54.2252C52.1059 55.7386 61.5959 55.0652 70.8959 52.2052C71.0718 52.1512 71.2338 52.0582 71.3685 51.9339C71.5033 51.8096 71.6071 51.6574 71.6714 51.4898C71.7357 51.3221 71.7587 51.1438 71.7387 50.9692C71.7186 50.7947 71.656 50.6288 71.5559 50.4852L59.156 32.5752C60.2626 29.6886 60.9559 26.5586 61.2359 23.1852C70.4559 31.4119 77.8426 39.1819 83.3959 46.4952C89.5659 54.6252 59.576 65.6552 54.976 67.0652C54.6753 67.1579 54.4125 67.3452 54.2269 67.5993C54.0413 67.8534 53.9428 68.1606 53.9459 68.4752C54.0659 79.0352 53.3359 89.4753 53.1759 100.005C53.1293 102.972 52.6159 105.889 51.6359 108.755C39.2359 110.985 26.4859 111.135 13.9259 112.035L13.9559 111.635C13.9693 111.289 14.016 111.042 14.096 110.895C20.8493 97.5552 24.5526 83.4052 25.2059 68.4452C25.2148 68.2725 25.1749 68.1019 25.0914 67.9545C25.008 67.807 24.8844 67.6891 24.7359 67.6152C17.0159 63.6419 10.1793 58.4852 4.22597 52.1452C-0.4007 47.2119 -0.0507126 42.6719 5.27595 38.5252C12.6826 32.7586 20.1426 27.0386 27.656 21.3652Z" fill="#78D1B7"/>
<path d="M31.1942 27.145L31.9042 27.185C31.3109 31.6783 32.3375 35.6783 34.9842 39.185L33.8742 49.055C33.6142 51.3817 32.4576 52.7517 30.4042 53.165C24.7742 54.285 16.1742 48.695 12.2442 45.035C12.1963 44.9895 12.158 44.9349 12.1315 44.8746C12.105 44.8143 12.0908 44.7495 12.0899 44.6841C12.089 44.6187 12.1013 44.5541 12.1261 44.4941C12.1509 44.4341 12.1876 44.38 12.2342 44.335C17.5875 38.9883 23.2242 34.0117 29.1442 29.405C29.5509 29.0917 30.2342 28.3384 31.1942 27.145Z" fill="white"/>
<path d="M59.1552 32.5752L71.5552 50.4852C71.6553 50.6288 71.7179 50.7946 71.7379 50.9692C71.758 51.1437 71.735 51.3221 71.6707 51.4897C71.6064 51.6574 71.5026 51.8095 71.3678 51.9339C71.2331 52.0582 71.0711 52.1512 70.8952 52.2052C61.5952 55.0652 52.1052 55.7385 42.4252 54.2252C42.0925 54.1728 41.786 54.017 41.5517 53.7808C41.3173 53.5447 41.1677 53.241 41.1252 52.9152C40.6652 49.5285 40.6886 46.0485 41.1952 42.4752C49.2352 43.0685 55.2219 39.7685 59.1552 32.5752Z" fill="white"/>
<path d="M88.6535 192.185L83.9035 195.435C83.0769 195.515 82.5103 195.342 82.2036 194.915C66.3036 172.842 50.8336 150.415 35.7936 127.635C35.7335 127.545 35.654 127.47 35.5609 127.415C35.4679 127.36 35.3638 127.327 35.2567 127.318C35.1496 127.309 35.0423 127.325 34.943 127.365C34.8436 127.404 34.7549 127.466 34.6836 127.545C30.6769 131.992 26.5803 136.488 22.3936 141.035C17.2136 146.655 16.1136 151.435 16.7236 158.945C17.9636 174.285 19.3869 189.622 20.9936 204.955C21.032 205.318 20.9935 205.67 20.883 205.964C20.7724 206.258 20.5949 206.481 20.3736 206.605L15.8636 209.155C14.6702 209.828 13.8336 209.392 13.3536 207.845C10.9469 200.078 8.93692 192.388 7.32358 184.775C2.04358 159.835 -1.14644 134.425 13.9236 112.035C26.4836 111.135 39.2336 110.985 51.6336 108.755C52.1202 108.375 52.6903 108.268 53.3436 108.435C53.4809 108.472 53.6083 108.551 53.7135 108.663C53.8186 108.775 53.8979 108.917 53.9436 109.075C62.1836 137.265 76.2236 163.595 91.8736 188.305C91.9527 188.437 91.9888 188.587 91.9761 188.732C91.9633 188.878 91.9025 189.009 91.8036 189.105L88.6535 192.185Z" fill="#1A285D"/>
<path d="M88.6562 192.185C90.8829 194.738 92.6863 197.582 94.0663 200.715C94.1482 200.898 94.1958 201.084 94.2013 201.242C94.2067 201.4 94.1697 201.521 94.0963 201.585L90.6763 204.415C90.6018 204.479 90.4755 204.488 90.3209 204.442C90.1663 204.396 89.9941 204.298 89.8363 204.165C87.0163 201.798 85.0396 198.888 83.9062 195.435L88.6562 192.185Z" fill="#F3CECA"/>
<path d="M114.785 230.395C101.455 231.065 91.7752 219.555 90.9252 206.945C90.9126 206.755 90.9358 206.572 90.9931 206.409C91.0504 206.246 91.1402 206.107 91.2553 206.005L94.6952 202.945C94.8001 202.852 94.9451 202.796 95.1133 202.784C95.2816 202.771 95.466 202.803 95.6452 202.875C99.5185 204.475 102.359 206.425 104.165 208.725C108.332 214.045 112.595 218.185 116.955 221.145C122.015 224.575 121.435 230.065 114.785 230.395Z" fill="#FD654F"/>
<path d="M16.6156 237.945C11.8222 231.578 11.5322 224.498 15.7456 216.705C16.9456 214.495 20.0556 212.505 22.6156 212.915C30.4456 214.165 37.1656 216.875 40.9656 224.125C49.2056 239.865 27.5856 252.515 16.6156 237.945Z" fill="#FD654F"/>
</svg>
