<svg width="62" height="64" viewBox="0 0 62 64" fill="none" xmlns="http://www.w3.org/2000/svg">
<path d="M13.9102 56.2386C18.0968 58.7253 22.5135 60.6486 27.1602 62.0086C31.6802 63.3286 40.4601 62.8186 44.5901 60.5086C49.3035 57.8686 53.0202 54.1353 55.7402 49.3086" stroke="#8F929F" stroke-width="2"/>
<path d="M55.7405 49.3086C59.6872 42.3353 61.0738 35.2387 59.9005 28.0187C57.6071 13.952 49.5338 5.22865 35.6805 1.84865C33.1605 1.22865 30.2205 1.61865 27.4105 1.03865C27.085 0.967277 26.7499 0.995209 26.4505 1.11867C19.6305 3.97867 13.5605 5.19866 8.30049 10.8287C-3.50951 23.4887 -0.529525 46.5086 13.9105 56.2386" stroke="#85868F" stroke-width="2"/>
<path d="M55.7425 49.3085C57.1425 42.3485 57.8692 35.3118 57.9225 28.1985C57.9525 24.2485 52.4825 10.6085 46.8925 9.06848C46.4925 8.95515 46.1959 8.80182 46.0025 8.60849C43.9025 6.51516 41.3658 5.57849 38.3925 5.79849C38.2831 5.80823 38.1481 5.78474 37.9964 5.72958C37.8447 5.67442 37.6798 5.58883 37.5125 5.47848C29.8525 0.308484 22.9725 4.18849 14.1725 8.20849C11.9525 9.21849 7.51252 13.9685 6.60252 17.2885C4.97252 23.2485 1.31251 26.7485 2.65251 33.4585C4.25917 41.5118 8.16253 48.5385 14.3625 54.5385C14.4895 54.6624 14.5876 54.8034 14.6485 54.9496C14.7094 55.0959 14.7314 55.2429 14.7125 55.3785C14.6525 55.8718 14.3859 56.1585 13.9125 56.2385" stroke="#161A31" stroke-width="2"/>
<path d="M55.7405 49.3086C57.1405 42.3486 57.8671 35.312 57.9205 28.1987C57.9505 24.2487 52.4805 10.6087 46.8905 9.06865C46.4905 8.95532 46.1938 8.80199 46.0005 8.60866C43.9005 6.51533 41.3638 5.57866 38.3905 5.79866C38.2811 5.8084 38.1461 5.78491 37.9944 5.72975C37.8427 5.67459 37.6778 5.589 37.5104 5.47865C29.8504 0.308654 22.9705 4.18866 14.1705 8.20866C11.9505 9.21867 7.51048 13.9687 6.60048 17.2887C4.97048 23.2486 1.31046 26.7487 2.65046 33.4587C4.25713 41.512 8.16049 48.5387 14.3605 54.5387C14.4875 54.6626 14.5855 54.8036 14.6464 54.9498C14.7074 55.096 14.7293 55.2431 14.7105 55.3786C14.6505 55.872 14.3838 56.1586 13.9105 56.2386C-0.529525 46.5086 -3.50951 23.4887 8.30049 10.8287C13.5605 5.19866 19.6305 3.97867 26.4505 1.11867C26.7499 0.995209 27.085 0.967277 27.4105 1.03865C30.2205 1.61865 33.1605 1.22865 35.6805 1.84865C49.5338 5.22865 57.6071 13.952 59.9005 28.0187C61.0738 35.2387 59.6872 42.3353 55.7405 49.3086Z" fill="#0B0E21"/>
<path d="M55.7386 49.3085C53.0186 54.1351 49.3019 57.8685 44.5886 60.5085C40.4586 62.8185 31.6786 63.3285 27.1586 62.0085C22.5119 60.6485 18.0953 58.7251 13.9086 56.2385C14.3819 56.1585 14.6486 55.8718 14.7086 55.3785C14.7275 55.2429 14.7055 55.0959 14.6446 54.9496C14.5837 54.8034 14.4856 54.6624 14.3586 54.5385C8.15862 48.5385 4.25527 41.5118 2.6486 33.4585C1.3086 26.7485 4.96861 23.2485 6.59861 17.2885C7.50861 13.9685 11.9486 9.21849 14.1686 8.20849C22.9686 4.18849 29.8486 0.308484 37.5086 5.47848C37.6759 5.58883 37.8408 5.67442 37.9925 5.72958C38.1442 5.78474 38.2792 5.80823 38.3886 5.79849C41.3619 5.57849 43.8986 6.51516 45.9986 8.60849C46.192 8.80182 46.4886 8.95515 46.8886 9.06848C52.4786 10.6085 57.9486 24.2485 57.9186 28.1985C57.8653 35.3118 57.1386 42.3485 55.7386 49.3085Z" fill="#202641"/>
</svg>
