<svg width="121" height="172" viewBox="0 0 121 172" fill="none" xmlns="http://www.w3.org/2000/svg">
<path d="M39.2988 4.38673C29.8988 7.44673 20.5488 16.3167 23.2488 26.9667C24.9188 33.5267 31.2488 39.1367 36.7988 43.4467C50.4088 54.0267 46.3288 68.6367 35.8788 79.5467C18.4388 97.7267 -6.08122 117.057 2.92878 146.037C6.98878 159.097 17.3588 170.357 31.3088 170.877C83.8688 172.857 117.539 129.967 119.169 80.7167C119.429 72.9167 119.252 63.9834 118.639 53.9167C117.499 35.0067 107.039 19.6367 91.5588 9.70673C76.1888 -0.153265 56.5388 -1.21327 39.2988 4.38673Z" stroke="#8B8EA0" stroke-width="2"/>
<path d="M74.9108 75.6868C73.8775 86.1602 69.6541 95.0635 62.2408 102.397C61.3341 103.29 60.2541 103.747 59.0008 103.767C52.8208 103.847 47.2308 102.107 42.2308 98.5468C40.9408 97.6268 39.4208 97.6868 39.1108 99.4568C39.0822 99.6045 39.0879 99.7609 39.1275 99.9159C39.1671 100.071 39.2398 100.221 39.3408 100.357C42.8508 105.127 50.2808 106.527 55.7508 107.317C56.4641 107.417 56.5375 107.687 55.9708 108.127C44.3408 117.257 36.7608 125.407 20.8708 121.087C19.3441 120.673 18.7108 121.247 18.9708 122.807C19.3108 124.86 20.3175 125.923 21.9908 125.997C26.3375 126.177 30.7341 126.06 35.1808 125.647C35.2441 125.641 35.3079 125.649 35.3679 125.669C35.428 125.689 35.483 125.722 35.5293 125.764C35.5756 125.807 35.6121 125.858 35.6365 125.916C35.6609 125.973 35.6726 126.035 35.6708 126.097C35.5808 128.567 34.5108 130.777 34.4508 133.137C34.2775 140.037 33.1741 146.797 31.1408 153.417C31.1199 153.481 31.1116 153.55 31.1164 153.617C31.1213 153.684 31.1391 153.75 31.1689 153.809C31.1987 153.869 31.2399 153.922 31.29 153.964C31.3402 154.007 31.3982 154.038 31.4608 154.057C38.4408 156.217 38.6108 131.767 38.8108 127.807C38.8975 125.953 39.6908 124.553 41.1908 123.607C47.0975 119.853 52.6875 115.687 57.9608 111.107C58.7408 110.433 59.1941 110.63 59.3208 111.697C60.0275 117.67 60.5008 123.653 60.7408 129.647C60.8908 133.337 62.1608 140.447 67.0408 140.237C67.098 140.235 67.1539 140.219 67.2036 140.191C67.2533 140.163 67.2953 140.122 67.3259 140.074C67.3565 140.026 67.3747 139.971 67.3791 139.914C67.3834 139.857 67.3737 139.799 67.3508 139.747C65.5041 135.413 64.5675 132.153 64.5408 129.967C64.4608 122.627 63.6908 115.373 62.2308 108.207C62.2009 108.06 62.2132 107.908 62.2663 107.768C62.3194 107.628 62.4111 107.507 62.5308 107.417C71.5008 100.757 77.8508 88.9868 78.2708 77.5268C78.2975 76.8335 78.4975 76.7768 78.8708 77.3568C86.2108 88.7268 88.4208 101.727 87.5108 114.967C87.4441 116.027 87.8375 116.247 88.6908 115.627C90.4508 114.347 91.3808 112.623 91.4808 110.457C92.0675 97.5568 88.9241 85.8302 82.0508 75.2768C79.8008 71.8168 79.2508 68.5068 79.5508 64.7168C80.0375 58.4102 80.3908 52.1135 80.6108 45.8268C80.6128 45.75 80.6355 45.6755 80.6768 45.6104C80.718 45.5452 80.7765 45.4912 80.8471 45.4535C80.9176 45.4158 80.9979 45.3954 81.0806 45.3942C81.1633 45.393 81.2459 45.4111 81.3208 45.4468L86.7908 47.9968C87.9108 48.5235 88.8808 48.2535 89.7008 47.1868C91.4808 44.8735 91.1675 44.0302 88.7608 44.6568C88.571 44.7068 88.391 44.7337 88.2349 44.7354C88.0787 44.7371 87.9507 44.7137 87.8608 44.6668L84.2408 42.7568C84.1427 42.7062 84.0109 42.6731 83.8531 42.6593C83.6952 42.6456 83.5143 42.6515 83.3208 42.6768C81.3341 42.9502 80.2108 42.0235 79.9508 39.8968C79.3441 34.7835 76.9841 30.3535 72.8708 26.6068C72.5908 26.3535 72.6608 26.1635 73.0808 26.0368L87.8108 21.5068C87.9549 21.4632 88.0822 21.3847 88.1766 21.2814C88.271 21.178 88.3282 21.0546 88.3408 20.9268C88.4741 19.5668 88.0241 18.6701 86.9908 18.2368C84.5508 17.2168 72.9308 22.3868 70.3208 23.5668C70.0004 23.7129 69.6508 23.7834 69.2988 23.773C68.9469 23.7626 68.602 23.6715 68.2908 23.5068C63.5708 21.0202 58.9141 18.4235 54.3208 15.7168C52.8275 14.8435 51.9375 15.2435 51.6508 16.9168C51.4441 18.1035 51.8875 18.9868 52.9808 19.5668L62.9008 24.8568C63.0379 24.9288 63.1538 25.035 63.2374 25.1654C63.321 25.2959 63.3696 25.4463 63.3786 25.6024C63.3876 25.7585 63.3567 25.9153 63.2888 26.0578C63.221 26.2003 63.1184 26.3238 62.9908 26.4168L52.0908 34.4968C51.9217 34.6219 51.7868 34.7736 51.7045 34.9311C51.6221 35.0886 51.5964 35.2442 51.6308 35.3768C51.9041 36.4235 52.5375 37.1402 53.5308 37.5268C53.6237 37.5622 53.7665 37.5509 53.942 37.4941C54.1176 37.4374 54.3185 37.3376 54.5208 37.2068C58.8608 34.3668 62.8808 31.1302 66.5808 27.4968C66.7519 27.3251 66.9779 27.2183 67.2204 27.1946C67.4628 27.1709 67.7067 27.2318 67.9108 27.3668C73.0375 30.8402 75.9541 35.7002 76.6608 41.9468C76.6761 42.1023 76.6561 42.2583 76.6023 42.4024C76.5485 42.5464 76.4624 42.6746 76.3508 42.7768C72.8641 45.9435 69.0241 48.5935 64.8308 50.7268C64.5991 50.8495 64.4068 51.081 64.2908 51.3768C60.9808 59.7868 76.0808 48.1968 76.8308 47.7068C77.3575 47.3602 77.5708 47.5268 77.4708 48.2068C76.3642 55.3335 75.7608 62.5068 75.6608 69.7268C75.6548 70.1572 75.5249 70.571 75.2895 70.9088C75.0541 71.2465 74.7255 71.4909 74.3508 71.6068L62.6008 75.1968C61.2675 75.6035 60.5775 76.3868 60.5308 77.5468C60.3908 80.8268 72.9308 75.9468 74.5108 75.4368C74.5587 75.4223 74.6095 75.4178 74.6588 75.4235C74.7081 75.4292 74.7545 75.4451 74.7938 75.4697C74.8332 75.4943 74.8644 75.5269 74.8848 75.5648C74.9052 75.6026 74.9141 75.6445 74.9108 75.6868Z" stroke="#81869C" stroke-width="2"/>
<path d="M23.2527 26.9667C20.5527 16.3167 29.9027 7.44673 39.3027 4.38673C56.5427 -1.21327 76.1927 -0.153265 91.5627 9.70673C107.043 19.6367 117.503 35.0067 118.643 53.9167C119.256 63.9834 119.433 72.9167 119.173 80.7167C117.543 129.967 83.8727 172.857 31.3127 170.877C17.3627 170.357 6.99269 159.097 2.93269 146.037C-6.07731 117.057 18.4427 97.7267 35.8827 79.5467C46.3327 68.6367 50.4127 54.0267 36.8027 43.4467C31.2527 39.1367 24.9227 33.5267 23.2527 26.9667ZM74.9127 75.6867C73.8793 86.1601 69.656 95.0634 62.2427 102.397C61.336 103.29 60.256 103.747 59.0027 103.767C52.8227 103.847 47.2327 102.107 42.2327 98.5467C40.9427 97.6267 39.4227 97.6867 39.1127 99.4567C39.0841 99.6044 39.0898 99.7608 39.1294 99.9159C39.169 100.071 39.2417 100.221 39.3427 100.357C42.8527 105.127 50.2827 106.527 55.7527 107.317C56.466 107.417 56.5394 107.687 55.9727 108.127C44.3427 117.257 36.7627 125.407 20.8727 121.087C19.346 120.673 18.7127 121.247 18.9727 122.807C19.3127 124.86 20.3194 125.923 21.9927 125.997C26.3394 126.177 30.736 126.06 35.1827 125.647C35.246 125.641 35.3098 125.649 35.3698 125.669C35.4299 125.689 35.4849 125.722 35.5312 125.764C35.5775 125.807 35.614 125.858 35.6384 125.916C35.6628 125.973 35.6745 126.035 35.6727 126.097C35.5827 128.567 34.5127 130.777 34.4527 133.137C34.2793 140.037 33.176 146.797 31.1427 153.417C31.1218 153.481 31.1135 153.549 31.1183 153.617C31.1232 153.684 31.141 153.75 31.1708 153.809C31.2006 153.869 31.2418 153.922 31.2919 153.964C31.342 154.007 31.4001 154.038 31.4627 154.057C38.4427 156.217 38.6127 131.767 38.8127 127.807C38.8994 125.953 39.6927 124.553 41.1927 123.607C47.0994 119.853 52.6894 115.687 57.9627 111.107C58.7427 110.433 59.196 110.63 59.3227 111.697C60.0293 117.67 60.5027 123.653 60.7427 129.647C60.8927 133.337 62.1627 140.447 67.0427 140.237C67.0999 140.235 67.1558 140.219 67.2055 140.191C67.2552 140.163 67.2971 140.122 67.3277 140.074C67.3583 140.026 67.3766 139.971 67.381 139.913C67.3853 139.856 67.3756 139.799 67.3527 139.747C65.506 135.413 64.5693 132.153 64.5427 129.967C64.4627 122.627 63.6927 115.373 62.2327 108.207C62.2028 108.06 62.2151 107.908 62.2682 107.768C62.3213 107.628 62.413 107.507 62.5327 107.417C71.5027 100.757 77.8527 88.9867 78.2727 77.5267C78.2994 76.8334 78.4994 76.7767 78.8727 77.3567C86.2127 88.7267 88.4227 101.727 87.5127 114.967C87.446 116.027 87.8394 116.247 88.6927 115.627C90.4527 114.347 91.3827 112.623 91.4827 110.457C92.0694 97.5567 88.926 85.8301 82.0527 75.2767C79.8027 71.8167 79.2527 68.5067 79.5527 64.7167C80.0394 58.4101 80.3927 52.1134 80.6127 45.8267C80.6147 45.7499 80.6374 45.6755 80.6786 45.6103C80.7199 45.5451 80.7784 45.4912 80.849 45.4534C80.9195 45.4157 80.9997 45.3953 81.0825 45.3941C81.1652 45.393 81.2478 45.411 81.3227 45.4467L86.7927 47.9967C87.9127 48.5234 88.8827 48.2534 89.7027 47.1867C91.4827 44.8734 91.1693 44.0301 88.7627 44.6567C88.5729 44.7067 88.3929 44.7336 88.2367 44.7353C88.0806 44.737 87.9526 44.7136 87.8627 44.6667L84.2427 42.7567C84.1446 42.7061 84.0128 42.673 83.8549 42.6593C83.697 42.6455 83.5161 42.6515 83.3227 42.6767C81.336 42.9501 80.2127 42.0234 79.9527 39.8967C79.346 34.7834 76.986 30.3534 72.8727 26.6067C72.5927 26.3534 72.6627 26.1634 73.0827 26.0367L87.8127 21.5067C87.9567 21.4631 88.0841 21.3846 88.1785 21.2813C88.2729 21.178 88.3301 21.0545 88.3427 20.9267C88.476 19.5667 88.026 18.6701 86.9927 18.2367C84.5527 17.2167 72.9327 22.3867 70.3227 23.5667C70.0023 23.7128 69.6527 23.7833 69.3007 23.7729C68.9488 23.7625 68.6039 23.6715 68.2927 23.5067C63.5727 21.0201 58.916 18.4234 54.3227 15.7167C52.8293 14.8434 51.9394 15.2434 51.6527 16.9167C51.446 18.1034 51.8893 18.9867 52.9827 19.5667L62.9027 24.8567C63.0398 24.9287 63.1556 25.0349 63.2392 25.1653C63.3228 25.2958 63.3714 25.4462 63.3804 25.6023C63.3895 25.7585 63.3586 25.9152 63.2907 26.0577C63.2229 26.2002 63.1203 26.3237 62.9927 26.4167L52.0927 34.4967C51.9236 34.6218 51.7887 34.7735 51.7063 34.931C51.624 35.0885 51.5983 35.2442 51.6327 35.3767C51.906 36.4234 52.5394 37.1401 53.5327 37.5267C53.6256 37.5621 53.7683 37.5508 53.9439 37.494C54.1194 37.4373 54.3204 37.3376 54.5227 37.2067C58.8627 34.3667 62.8827 31.1301 66.5827 27.4967C66.7538 27.325 66.9798 27.2182 67.2222 27.1945C67.4647 27.1708 67.7086 27.2317 67.9127 27.3667C73.0393 30.8401 75.956 35.7001 76.6627 41.9467C76.678 42.1022 76.658 42.2582 76.6042 42.4023C76.5504 42.5464 76.4642 42.6746 76.3527 42.7767C72.866 45.9434 69.026 48.5934 64.8327 50.7267C64.601 50.8495 64.4087 51.0809 64.2927 51.3767C60.9827 59.7867 76.0827 48.1967 76.8327 47.7067C77.3594 47.3601 77.5727 47.5267 77.4727 48.2067C76.366 55.3334 75.7627 62.5067 75.6627 69.7267C75.6567 70.1571 75.5267 70.5709 75.2914 70.9087C75.056 71.2465 74.7273 71.4909 74.3527 71.6067L62.6027 75.1967C61.2693 75.6034 60.5794 76.3867 60.5327 77.5467C60.3927 80.8267 72.9327 75.9467 74.5127 75.4367C74.5606 75.4223 74.6114 75.4177 74.6607 75.4234C74.71 75.4291 74.7564 75.445 74.7957 75.4696C74.8351 75.4942 74.8663 75.5268 74.8867 75.5647C74.9071 75.6025 74.916 75.6444 74.9127 75.6867Z" fill="#181D42"/>
<path d="M74.5108 75.4368C72.9308 75.9468 60.3908 80.8268 60.5308 77.5468C60.5775 76.3868 61.2675 75.6035 62.6008 75.1968L74.3508 71.6068C74.7255 71.4909 75.0541 71.2465 75.2895 70.9088C75.5249 70.571 75.6548 70.1572 75.6608 69.7268C75.7608 62.5068 76.3642 55.3335 77.4708 48.2068C77.5708 47.5268 77.3575 47.3601 76.8308 47.7068C76.0808 48.1968 60.9808 59.7868 64.2908 51.3768C64.4068 51.081 64.5991 50.8495 64.8308 50.7268C69.0241 48.5935 72.8641 45.9435 76.3508 42.7768C76.4624 42.6746 76.5485 42.5464 76.6023 42.4024C76.6561 42.2583 76.6761 42.1023 76.6608 41.9468C75.9541 35.7002 73.0375 30.8402 67.9108 27.3668C67.7067 27.2318 67.4628 27.1709 67.2204 27.1946C66.9779 27.2183 66.7519 27.3251 66.5808 27.4968C62.8808 31.1302 58.8608 34.3668 54.5208 37.2068C54.3185 37.3376 54.1176 37.4374 53.942 37.4941C53.7665 37.5509 53.6237 37.5622 53.5308 37.5268C52.5375 37.1402 51.9041 36.4235 51.6308 35.3768C51.5964 35.2442 51.6221 35.0886 51.7045 34.9311C51.7868 34.7736 51.9217 34.6219 52.0908 34.4968L62.9908 26.4168C63.1184 26.3238 63.221 26.2003 63.2888 26.0578C63.3567 25.9153 63.3876 25.7585 63.3786 25.6024C63.3696 25.4463 63.321 25.2959 63.2374 25.1654C63.1538 25.035 63.0379 24.9288 62.9008 24.8568L52.9808 19.5668C51.8875 18.9868 51.4441 18.1035 51.6508 16.9168C51.9375 15.2435 52.8275 14.8435 54.3208 15.7168C58.9141 18.4235 63.5708 21.0202 68.2908 23.5068C68.602 23.6715 68.9469 23.7626 69.2988 23.773C69.6508 23.7834 70.0004 23.7129 70.3208 23.5668C72.9308 22.3868 84.5508 17.2168 86.9908 18.2368C88.0241 18.6701 88.4741 19.5668 88.3408 20.9268C88.3282 21.0546 88.271 21.178 88.1766 21.2814C88.0822 21.3847 87.9548 21.4632 87.8108 21.5068L73.0808 26.0368C72.6608 26.1635 72.5908 26.3535 72.8708 26.6068C76.9841 30.3535 79.3441 34.7835 79.9508 39.8968C80.2108 42.0235 81.3341 42.9502 83.3208 42.6768C83.5143 42.6515 83.6952 42.6456 83.8531 42.6593C84.0109 42.6731 84.1427 42.7062 84.2408 42.7568L87.8608 44.6668C87.9507 44.7137 88.0787 44.7371 88.2349 44.7354C88.391 44.7337 88.571 44.7068 88.7608 44.6568C91.1675 44.0302 91.4808 44.8735 89.7008 47.1868C88.8808 48.2535 87.9108 48.5235 86.7908 47.9968L81.3208 45.4468C81.2459 45.4111 81.1633 45.393 81.0806 45.3942C80.9979 45.3954 80.9176 45.4158 80.8471 45.4535C80.7765 45.4912 80.718 45.5452 80.6768 45.6104C80.6355 45.6755 80.6128 45.75 80.6108 45.8268C80.3908 52.1135 80.0375 58.4102 79.5508 64.7168C79.2508 68.5068 79.8008 71.8168 82.0508 75.2768C88.9241 85.8302 92.0675 97.5568 91.4808 110.457C91.3808 112.623 90.4508 114.347 88.6908 115.627C87.8375 116.247 87.4441 116.027 87.5108 114.967C88.4208 101.727 86.2108 88.7268 78.8708 77.3568C78.4975 76.7768 78.2975 76.8335 78.2708 77.5268C77.8508 88.9868 71.5008 100.757 62.5308 107.417C62.4111 107.507 62.3194 107.628 62.2663 107.768C62.2132 107.908 62.2009 108.06 62.2308 108.207C63.6908 115.373 64.4608 122.627 64.5408 129.967C64.5675 132.153 65.5041 135.413 67.3508 139.747C67.3737 139.799 67.3834 139.857 67.3791 139.914C67.3747 139.971 67.3565 140.026 67.3259 140.074C67.2953 140.122 67.2533 140.163 67.2036 140.191C67.1539 140.219 67.098 140.235 67.0408 140.237C62.1608 140.447 60.8908 133.337 60.7408 129.647C60.5008 123.653 60.0275 117.67 59.3208 111.697C59.1941 110.63 58.7408 110.433 57.9608 111.107C52.6875 115.687 47.0975 119.853 41.1908 123.607C39.6908 124.553 38.8975 125.953 38.8108 127.807C38.6108 131.767 38.4408 156.217 31.4608 154.057C31.3982 154.038 31.3402 154.007 31.29 153.964C31.2399 153.922 31.1987 153.869 31.1689 153.809C31.1391 153.75 31.1213 153.684 31.1164 153.617C31.1116 153.55 31.1199 153.481 31.1408 153.417C33.1741 146.797 34.2775 140.037 34.4508 133.137C34.5108 130.777 35.5808 128.567 35.6708 126.097C35.6726 126.035 35.6609 125.973 35.6365 125.916C35.6121 125.858 35.5756 125.807 35.5293 125.764C35.483 125.722 35.428 125.689 35.3679 125.669C35.3079 125.649 35.2441 125.641 35.1808 125.647C30.7341 126.06 26.3375 126.177 21.9908 125.997C20.3175 125.923 19.3108 124.86 18.9708 122.807C18.7108 121.247 19.3441 120.673 20.8708 121.087C36.7608 125.407 44.3408 117.257 55.9708 108.127C56.5375 107.687 56.4641 107.417 55.7508 107.317C50.2808 106.527 42.8508 105.127 39.3408 100.357C39.2398 100.221 39.1671 100.071 39.1275 99.9159C39.0879 99.7609 39.0822 99.6045 39.1108 99.4568C39.4208 97.6868 40.9408 97.6268 42.2308 98.5468C47.2308 102.107 52.8208 103.847 59.0008 103.767C60.2542 103.747 61.3341 103.29 62.2408 102.397C69.6541 95.0635 73.8775 86.1602 74.9108 75.6868C74.9141 75.6445 74.9052 75.6026 74.8848 75.5648C74.8644 75.5269 74.8332 75.4943 74.7938 75.4697C74.7545 75.4451 74.7081 75.4292 74.6588 75.4235C74.6095 75.4178 74.5587 75.4223 74.5108 75.4368Z" fill="#EAEFF6"/>
</svg>
