<svg width="60" height="22" viewBox="0 0 60 22" fill="none" xmlns="http://www.w3.org/2000/svg">
<path d="M5.57494 19.6649C6.11489 19.9576 6.73073 20.0731 7.33495 19.9949C16.695 18.7649 26.2749 18.9949 35.7449 16.8749C41.4149 15.6049 49.1949 17.0049 53.7249 14.1449C58.0249 11.4349 61.5649 1.93491 53.2949 1.96491C42.5749 2.00491 29.555 4.48495 20.085 5.18495C14.4783 5.60495 8.98163 5.93494 3.59496 6.17494C3.18795 6.19124 2.8001 6.35227 2.50128 6.6291C2.20245 6.90592 2.01228 7.28036 1.96496 7.68495C1.49496 11.6649 1.61494 17.4849 5.57494 19.6649Z" stroke="#808080" stroke-width="2"/>
<path d="M51.6957 5.91435C41.8457 5.45435 34.7657 7.49434 26.1257 8.34434C19.3991 9.01101 12.6691 9.341 5.93574 9.33433C5.81274 9.33407 5.691 9.35905 5.57819 9.40764C5.46539 9.45623 5.36397 9.52735 5.28034 9.61662C5.19671 9.70589 5.13267 9.81133 5.09229 9.92625C5.05191 10.0412 5.03606 10.1631 5.04572 10.2843L5.41572 14.7043C5.44844 15.1064 5.64433 15.4809 5.96369 15.752C6.28305 16.0231 6.70203 16.1705 7.13575 16.1643C17.1057 16.0443 26.2257 15.2344 36.0357 13.4144C39.969 12.6877 44.2958 12.3477 49.0158 12.3943C52.7358 12.4343 59.2357 6.27435 51.6957 5.91435Z" stroke="#0E101B" stroke-width="2"/>
<path d="M5.57885 19.6649C1.61885 17.4849 1.49887 11.6649 1.96887 7.68495C2.01618 7.28036 2.20636 6.90592 2.50518 6.6291C2.80401 6.35227 3.19185 6.19124 3.59887 6.17494C8.98554 5.93494 14.4822 5.60495 20.0889 5.18495C29.5589 4.48495 42.5788 2.00491 53.2988 1.96491C61.5688 1.93491 58.0288 11.4349 53.7288 14.1449C49.1988 17.0049 41.4188 15.6049 35.7488 16.8749C26.2788 18.9949 16.6989 18.7649 7.33886 19.9949C6.73464 20.0731 6.11879 19.9576 5.57885 19.6649ZM51.6988 5.91493C41.8488 5.45493 34.7688 7.49492 26.1288 8.34492C19.4022 9.01159 12.6722 9.34158 5.93884 9.33491C5.81584 9.33465 5.6941 9.35962 5.58129 9.40821C5.46849 9.4568 5.36707 9.52793 5.28344 9.6172C5.19981 9.70646 5.13577 9.81191 5.09539 9.92683C5.05501 10.0417 5.03916 10.1637 5.04882 10.2849L5.41882 14.7049C5.45154 15.107 5.64743 15.4815 5.96679 15.7526C6.28615 16.0237 6.70513 16.171 7.13885 16.1649C17.1088 16.0449 26.2288 15.2349 36.0388 13.4149C39.9721 12.6883 44.2989 12.3482 49.0189 12.3949C52.7389 12.4349 59.2388 6.27493 51.6988 5.91493Z" fill="black"/>
<path d="M26.1257 8.34532C34.7657 7.49532 41.8457 5.45533 51.6957 5.91533C59.2357 6.27533 52.7358 12.4353 49.0158 12.3953C44.2957 12.3486 39.969 12.6887 36.0357 13.4153C26.2257 15.2353 17.1057 16.0453 7.13575 16.1653C6.70203 16.1714 6.28305 16.0241 5.96369 15.753C5.64433 15.4819 5.44844 15.1074 5.41572 14.7053L5.04572 10.2853C5.03606 10.1641 5.05191 10.0422 5.09229 9.92723C5.13267 9.81231 5.19671 9.70686 5.28034 9.6176C5.36397 9.52833 5.46539 9.4572 5.57819 9.40861C5.691 9.36002 5.81274 9.33505 5.93574 9.33531C12.6691 9.34198 19.3991 9.01199 26.1257 8.34532Z" fill="#1B2035"/>
</svg>
