<svg width="160" height="190" viewBox="0 0 160 190" fill="none" xmlns="http://www.w3.org/2000/svg">
<path d="M80.7227 59.8984L82.5726 60.1284" stroke="#9498AC" stroke-width="2"/>
<path d="M82.5735 60.1289C78.9535 68.2156 74.8135 75.9622 70.1535 83.3689C60.7135 98.3989 50.3735 113.979 29.8835 111.669C21.9835 110.776 15.1835 108.852 9.48351 105.899C7.43018 104.839 5.55016 104.592 3.8435 105.159C-2.7365 107.359 3.89349 121.599 5.89349 125.319C22.9035 156.989 62.2635 174.529 95.6535 156.419C101.98 152.986 108.563 148.132 115.403 141.859" stroke="#83858F" stroke-width="2"/>
<path d="M115.402 141.859C116.476 142.819 116.986 143.846 116.932 144.939" stroke="#9498AC" stroke-width="2"/>
<path d="M116.933 144.939C118.866 153.779 119.496 162.552 118.823 171.259C118.513 175.179 117.593 182.949 120.173 185.939C125.103 191.639 145.273 185.879 149.773 180.019C151.873 177.286 152.593 173.839 151.933 169.679C149.583 154.989 146.093 140.079 143.403 127.109C138.783 104.889 135.983 84.2691 137.063 63.2491C137.683 51.1224 137.37 39.9391 136.123 29.6991C136.105 29.553 136.131 29.405 136.197 29.2734C136.262 29.1418 136.366 29.0325 136.493 28.9591C142.623 25.4591 165.353 14.7591 156.823 6.56905C155.85 5.62905 154.75 5.43572 153.523 5.98905L131.433 15.9091C131.313 15.9639 131.174 15.971 131.036 15.9294C130.898 15.8877 130.771 15.7996 130.673 15.6791C119.363 1.92905 104.343 -3.92095 88.063 5.85905C81.653 9.70905 76.7629 15.7291 71.5729 21.0291C63.4729 29.2991 53.213 34.7791 41.623 35.7391C39.2563 35.9324 36.8563 36.1291 34.423 36.3291C34.0847 36.3618 33.7777 36.4839 33.543 36.6791C31.163 38.7191 30.8196 41.3991 32.5129 44.7191C40.1329 59.6291 66.5429 60.5191 80.7229 59.8991" stroke="#878997" stroke-width="2"/>
<path d="M116.934 144.939C117.047 144.232 117.45 144.006 118.144 144.259C118.977 144.566 119.477 146.149 119.644 149.009C119.994 154.909 120.804 160.779 120.674 166.599C120.584 170.399 119.464 181.059 121.064 184.089C124.124 189.929 144.334 183.849 148.904 178.879C149.997 177.686 150.43 176.286 150.204 174.679C149.844 172.199 150.104 169.539 149.604 167.129C145.977 149.382 142.274 131.649 138.494 113.929C132.314 85.009 136.854 57.489 134.504 29.049C134.485 28.8364 134.534 28.623 134.644 28.4385C134.753 28.254 134.917 28.1074 135.114 28.0191C140.454 25.6091 157.774 16.549 156.254 9.18905C155.974 7.82238 155.204 7.40238 153.944 7.92905L131.764 17.269C131.487 17.3843 131.184 17.4163 130.89 17.3612C130.597 17.3061 130.327 17.1663 130.114 16.959C125.614 12.649 120.594 7.80905 115.164 5.64905C105.394 1.76905 93.9036 4.35905 85.2736 9.94905C83.2936 11.2357 80.9202 13.4224 78.1536 16.509C69.7736 25.879 61.4236 33.029 48.9936 36.319C48.7612 36.3839 48.4979 36.5796 48.2536 36.869L46.9336 38.439" stroke="#1D224A" stroke-width="2"/>
<path d="M46.9337 38.4395L40.1337 39.5395C39.9817 39.5635 39.8441 39.6381 39.7492 39.7479C39.6542 39.8577 39.6093 39.9943 39.6237 40.1295C39.8571 42.9361 40.8037 45.4528 42.4637 47.6795C43.5637 49.1661 44.4271 48.9661 45.0537 47.0795L46.7337 42.0195" stroke="#6C4157" stroke-width="2"/>
<path d="M46.7333 42.0195C48.5233 45.2995 45.7333 49.0795 43.9433 51.8195C43.9105 51.8686 43.8896 51.9245 43.8821 51.9834C43.8745 52.0422 43.8805 52.1024 43.8996 52.1597C43.9188 52.2171 43.9505 52.2701 43.9927 52.315C44.0348 52.3599 44.0862 52.3956 44.1433 52.4195C45.9533 53.1995 47.3233 54.3995 49.2233 54.7895C59.5433 56.9195 66.1733 57.7095 79.9833 58.3795C80.77 58.4129 81.0166 58.9195 80.7233 59.8995" stroke="#1D224A" stroke-width="2"/>
<path d="M115.404 141.859C112.284 143.046 108.824 145.176 105.024 148.249C100.577 151.836 94.3804 155.199 86.4338 158.339C76.2271 162.373 65.9471 162.603 55.5938 159.029" stroke="#191E42" stroke-width="2"/>
<path d="M55.5936 159.029C62.6136 156.929 68.6202 153.432 73.6136 148.539C73.8715 148.288 74.0283 147.985 74.0536 147.689C74.1469 146.702 73.6969 146.342 72.7035 146.609C65.4302 148.555 58.0769 150.135 50.6436 151.349C50.5013 151.373 50.375 151.46 50.2912 151.59C50.2073 151.721 50.1724 151.885 50.1935 152.049L50.9736 158.149" stroke="#8D5168" stroke-width="2"/>
<path d="M50.975 158.149C50.1417 158.749 49.245 158.902 48.285 158.609C27.0317 152.209 12.3517 138.846 4.24502 118.519C2.88502 115.089 -0.63503 103.289 7.94497 107.059C26.365 115.169 45.865 117.739 60.005 100.219C68.0917 90.1989 75.2183 78.9089 81.385 66.3489C81.4116 66.2889 81.795 65.6622 82.535 64.4689C83.395 63.0889 83.4083 61.6422 82.575 60.1289" stroke="#191E42" stroke-width="2"/>
<path d="M46.7344 42.0195L46.9344 38.4395" stroke="#7A506C" stroke-width="2"/>
<path d="M50.9727 158.148C52.5393 158.815 54.0793 159.108 55.5927 159.028" stroke="#7B3E4A" stroke-width="2"/>
<path d="M89.1327 27.9388C99.5327 37.1488 114.043 18.5188 99.7427 11.5188C98.0227 10.6788 95.6127 10.9888 93.5727 9.79883C93.4356 9.72114 93.2852 9.67448 93.1328 9.66235C92.9803 9.65023 92.8298 9.67296 92.6927 9.72883C84.5927 13.0688 82.1927 21.7888 89.1327 27.9388Z" stroke="#1F264E" stroke-width="2"/>
<path d="M116.543 60.2095L113.403 71.1695C112.896 72.9228 113.073 73.9995 113.933 74.3995C114.686 74.7462 115.399 74.7962 116.073 74.5495C116.793 74.2828 117.253 73.3095 117.453 71.6295C118.019 66.8295 118.17 62.0162 117.903 57.1895C117.898 57.1377 117.878 57.0901 117.842 57.0512C117.807 57.0124 117.759 56.9836 117.702 56.9675C117.645 56.9515 117.581 56.9488 117.516 56.9596C117.452 56.9705 117.388 56.9945 117.333 57.0295C116.646 57.4762 116.386 58.1828 116.553 59.1495C116.626 59.5828 116.623 59.9362 116.543 60.2095Z" stroke="#86566D" stroke-width="2"/>
<path d="M112.314 83.7686L106.114 98.8486C106.073 98.9478 106.042 99.0505 106.024 99.1507C106.005 99.251 106 99.3467 106.007 99.4323C106.015 99.5179 106.035 99.5917 106.067 99.6495C106.099 99.7072 106.142 99.7477 106.194 99.7686L110.224 101.199C110.285 101.219 110.352 101.22 110.421 101.202C110.49 101.184 110.559 101.148 110.624 101.095C110.689 101.042 110.749 100.973 110.8 100.893C110.852 100.813 110.894 100.723 110.924 100.629C112.617 95.2153 113.427 89.6719 113.354 83.9986C113.327 82.2186 112.98 82.1419 112.314 83.7686Z" stroke="#86566D" stroke-width="2"/>
<path d="M105.114 112.108C101.854 109.958 96.4739 119.648 95.6839 121.388C95.6069 121.558 95.5669 121.734 95.5705 121.887C95.5742 122.039 95.6211 122.16 95.7039 122.228L98.8139 124.668C99.7073 125.362 100.627 124.892 101.574 123.258C103.447 120.045 104.714 116.598 105.374 112.918C105.407 112.752 105.399 112.585 105.353 112.441C105.306 112.296 105.223 112.18 105.114 112.108Z" stroke="#8D5168" stroke-width="2"/>
<path d="M82.0519 137.769C81.7429 138.18 81.5592 138.665 81.5253 139.158C81.4913 139.651 81.6087 140.129 81.8619 140.529C82.4952 141.529 83.3385 142.282 84.3918 142.789C84.5643 142.872 84.7562 142.903 84.9443 142.88C85.1325 142.857 85.3087 142.78 85.4518 142.659C88.1718 140.325 90.4485 137.602 92.2819 134.489C93.1419 133.029 92.7852 132.389 91.2118 132.569C87.3785 133.009 84.3252 134.742 82.0519 137.769Z" stroke="#86566D" stroke-width="2"/>
<path d="M104.031 18.9513C103.708 16.739 102.484 14.7507 100.626 13.4241C98.7685 12.0974 96.4304 11.5409 94.1262 11.877C91.822 12.2132 89.7405 13.4144 88.3394 15.2165C86.9383 17.0185 86.3324 19.2738 86.6552 21.4861C86.9779 23.6985 88.2027 25.6867 90.0602 27.0134C91.9178 28.3401 94.2559 28.8965 96.5601 28.5604C98.8643 28.2243 100.946 27.023 102.347 25.221C103.748 23.4189 104.354 21.1637 104.031 18.9513Z" stroke="#7F8597" stroke-width="2"/>
<path d="M99.8836 17.991C99.642 17.5498 99.3085 17.1646 98.902 16.8574C98.4955 16.5502 98.0239 16.327 97.5143 16.2005C97.0047 16.0741 96.4669 16.0469 95.9318 16.1204C95.3966 16.194 94.8746 16.3668 94.3954 16.6292C93.4277 17.159 92.6933 18.0211 92.354 19.0258C92.0146 20.0304 92.098 21.0954 92.5858 21.9864C92.8273 22.4276 93.1609 22.8127 93.5674 23.1199C93.9739 23.4271 94.4455 23.6503 94.9551 23.7768C95.4647 23.9033 96.0025 23.9305 96.5376 23.8569C97.0728 23.7834 97.5948 23.6105 98.074 23.3482C99.0417 22.8183 99.7761 21.9563 100.115 20.9516C100.455 19.9469 100.371 18.882 99.8836 17.991Z" stroke="#82888D" stroke-width="2"/>
<path d="M116.933 144.939C117.046 144.232 117.45 144.006 118.143 144.259C118.976 144.566 119.476 146.149 119.643 149.009C119.993 154.909 120.803 160.779 120.673 166.599C120.583 170.399 119.463 181.059 121.063 184.089C124.123 189.929 144.333 183.849 148.903 178.879C149.996 177.686 150.43 176.286 150.203 174.679C149.843 172.199 150.103 169.539 149.603 167.129C145.976 149.382 142.273 131.649 138.493 113.929C132.313 85.0091 136.853 57.4891 134.503 29.0491C134.485 28.8364 134.534 28.623 134.643 28.4385C134.752 28.254 134.916 28.1074 135.113 28.0191C140.453 25.6091 157.773 16.5491 156.253 9.18905C155.973 7.82239 155.203 7.40239 153.943 7.92905L131.763 17.2691C131.487 17.3843 131.183 17.4163 130.89 17.3612C130.597 17.3061 130.326 17.1663 130.113 16.9591C125.613 12.6491 120.593 7.80905 115.163 5.64905C105.393 1.76905 93.9029 4.35905 85.2729 9.94905C83.2929 11.2357 80.9196 13.4224 78.1529 16.5091C69.7729 25.8791 61.423 33.0291 48.993 36.3191C48.7606 36.3839 48.4973 36.5796 48.253 36.8691L46.933 38.4391L40.1329 39.5391C39.9809 39.563 39.8433 39.6377 39.7484 39.7475C39.6535 39.8573 39.6086 39.9939 39.623 40.1291C39.8563 42.9357 40.8029 45.4524 42.4629 47.6791C43.5629 49.1657 44.4263 48.9657 45.053 47.0791L46.733 42.0191C48.523 45.2991 45.7329 49.0791 43.9429 51.8191C43.9102 51.8681 43.8893 51.9241 43.8817 51.9829C43.8742 52.0417 43.8802 52.1019 43.8993 52.1593C43.9184 52.2166 43.9502 52.2696 43.9923 52.3145C44.0344 52.3595 44.0858 52.3951 44.1429 52.4191C45.9529 53.1991 47.323 54.3991 49.2229 54.7891C59.5429 56.9191 66.173 57.7091 79.983 58.3791C80.7696 58.4124 81.0163 58.9191 80.7229 59.8991C66.5429 60.5191 40.1329 59.6291 32.5129 44.7191C30.8196 41.3991 31.163 38.7191 33.543 36.6791C33.7777 36.4839 34.0847 36.3618 34.423 36.3291C36.8563 36.1291 39.2563 35.9324 41.623 35.7391C53.213 34.7791 63.4729 29.2991 71.5729 21.0291C76.7629 15.7291 81.653 9.70905 88.063 5.85905C104.343 -3.92095 119.363 1.92905 130.673 15.6791C130.771 15.7996 130.898 15.8877 131.036 15.9294C131.174 15.971 131.313 15.9639 131.433 15.9091L153.523 5.98905C154.75 5.43572 155.85 5.62905 156.823 6.56905C165.353 14.7591 142.623 25.4591 136.493 28.9591C136.366 29.0325 136.262 29.1418 136.197 29.2734C136.131 29.405 136.105 29.553 136.123 29.6991C137.37 39.9391 137.683 51.1224 137.063 63.2491C135.983 84.2691 138.783 104.889 143.403 127.109C146.093 140.079 149.583 154.989 151.933 169.679C152.593 173.839 151.873 177.286 149.773 180.019C145.273 185.879 125.103 191.639 120.173 185.939C117.593 182.949 118.513 175.179 118.823 171.259C119.496 162.552 118.866 153.779 116.933 144.939Z" fill="#0F1334"/>
<path d="M116.931 144.939C116.984 143.846 116.474 142.819 115.401 141.859C112.281 143.046 108.821 145.176 105.021 148.249C100.574 151.836 94.3778 155.199 86.4311 158.339C76.2244 162.372 65.9444 162.602 55.5911 159.029C62.6111 156.929 68.6178 153.432 73.6111 148.539C73.869 148.288 74.0258 147.985 74.0511 147.689C74.1444 146.702 73.6944 146.342 72.7011 146.609C65.4277 148.556 58.0744 150.136 50.6411 151.349C50.4988 151.374 50.3726 151.46 50.2887 151.591C50.2049 151.721 50.1699 151.885 50.1911 152.049L50.9711 158.149C50.1378 158.749 49.2411 158.902 48.2811 158.609C27.0278 152.209 12.3478 138.846 4.24111 118.519C2.88111 115.089 -0.638937 103.289 7.94106 107.059C26.3611 115.169 45.8611 117.739 60.0011 100.219C68.0878 90.1991 75.2144 78.909 81.3811 66.3491C81.4077 66.2891 81.7911 65.6624 82.5311 64.469C83.3911 63.089 83.4044 61.6424 82.5711 60.1291L80.7211 59.899C81.0144 58.919 80.7678 58.4124 79.9811 58.379C66.1711 57.709 59.5411 56.919 49.2211 54.789C47.3211 54.399 45.9511 53.199 44.1411 52.419C44.084 52.3951 44.0326 52.3595 43.9904 52.3145C43.9483 52.2696 43.9165 52.2166 43.8974 52.1593C43.8783 52.1019 43.8723 52.0417 43.8798 51.9829C43.8874 51.9241 43.9083 51.8681 43.9411 51.819C45.7311 49.079 48.5211 45.299 46.7311 42.0191L46.9311 38.439L48.2511 36.869C48.4955 36.5796 48.7587 36.3839 48.9911 36.319C61.4211 33.029 69.7711 25.879 78.1511 16.509C80.9178 13.4224 83.2911 11.2357 85.2711 9.94905C93.9011 4.35905 105.391 1.76905 115.161 5.64905C120.591 7.80905 125.611 12.649 130.111 16.959C130.325 17.1663 130.595 17.3061 130.888 17.3612C131.181 17.4163 131.485 17.3843 131.761 17.269L153.941 7.92905C155.201 7.40238 155.971 7.82238 156.251 9.18905C157.771 16.549 140.451 25.6091 135.111 28.0191C134.915 28.1074 134.75 28.254 134.641 28.4385C134.532 28.623 134.483 28.8364 134.501 29.049C136.851 57.4891 132.311 85.009 138.491 113.929C142.271 131.649 145.974 149.382 149.601 167.129C150.101 169.539 149.841 172.199 150.201 174.679C150.428 176.286 149.994 177.686 148.901 178.879C144.331 183.849 124.121 189.929 121.061 184.089C119.461 181.059 120.581 170.399 120.671 166.599C120.801 160.779 119.991 154.909 119.641 149.009C119.474 146.149 118.974 144.566 118.141 144.259C117.448 144.006 117.044 144.232 116.931 144.939ZM89.1311 27.939C99.5311 37.149 114.041 18.519 99.7411 11.519C98.0211 10.679 95.6111 10.989 93.5711 9.79905C93.434 9.72136 93.2836 9.6747 93.1311 9.66257C92.9787 9.65045 92.8282 9.67318 92.6911 9.72905C84.5911 13.069 82.1911 21.789 89.1311 27.939ZM116.541 60.209L113.401 71.1691C112.894 72.9224 113.071 73.999 113.931 74.399C114.684 74.7457 115.398 74.7957 116.071 74.549C116.791 74.2824 117.251 73.3091 117.451 71.6291C118.018 66.8291 118.168 62.0157 117.901 57.189C117.897 57.1372 117.876 57.0896 117.841 57.0508C117.805 57.0119 117.757 56.9831 117.7 56.9671C117.643 56.9511 117.579 56.9483 117.514 56.9592C117.45 56.97 117.387 56.9941 117.331 57.029C116.644 57.4757 116.384 58.1824 116.551 59.149C116.624 59.5824 116.621 59.9357 116.541 60.209ZM112.311 83.7691L106.111 98.8491C106.07 98.9483 106.039 99.051 106.021 99.1512C106.003 99.2514 105.997 99.3471 106.004 99.4327C106.012 99.5183 106.032 99.5922 106.064 99.6499C106.096 99.7077 106.139 99.7482 106.191 99.7691L110.221 101.199C110.283 101.219 110.35 101.22 110.419 101.203C110.487 101.185 110.556 101.148 110.621 101.095C110.686 101.042 110.746 100.974 110.798 100.894C110.849 100.814 110.891 100.724 110.921 100.629C112.614 95.2157 113.424 89.6724 113.351 83.999C113.324 82.219 112.978 82.1424 112.311 83.7691ZM105.111 112.109C101.851 109.959 96.4711 119.649 95.6811 121.389C95.604 121.559 95.5641 121.735 95.5677 121.887C95.5713 122.04 95.6183 122.16 95.7011 122.229L98.8111 124.669C99.7045 125.362 100.624 124.892 101.571 123.259C103.444 120.046 104.711 116.599 105.371 112.919C105.404 112.752 105.396 112.586 105.35 112.441C105.303 112.297 105.22 112.181 105.111 112.109ZM82.0511 137.769C81.7421 138.181 81.5584 138.665 81.5245 139.158C81.4906 139.652 81.608 140.13 81.8611 140.529C82.4944 141.529 83.3377 142.282 84.3911 142.789C84.5635 142.872 84.7554 142.904 84.9436 142.881C85.1317 142.858 85.308 142.781 85.4511 142.659C88.1711 140.326 90.4478 137.602 92.2811 134.489C93.1411 133.029 92.7844 132.389 91.2111 132.569C87.3777 133.009 84.3244 134.742 82.0511 137.769Z" fill="#2A315F"/>
<path d="M99.7427 11.5188C114.043 18.5188 99.5327 37.1488 89.1327 27.9388C82.1927 21.7888 84.5927 13.0688 92.6927 9.72883C92.8298 9.67296 92.9803 9.65023 93.1328 9.66235C93.2852 9.67448 93.4356 9.72114 93.5727 9.79883C95.6127 10.9888 98.0227 10.6788 99.7427 11.5188ZM104.031 18.9514C103.708 16.7391 102.483 14.7509 100.626 13.4242C98.7681 12.0975 96.43 11.541 94.1258 11.8771C91.8216 12.2133 89.74 13.4145 88.3389 15.2166C86.9378 17.0186 86.332 19.2739 86.6547 21.4862C86.9775 23.6986 88.2023 25.6868 90.0598 27.0135C91.9173 28.3402 94.2554 28.8967 96.5596 28.5605C98.8638 28.2244 100.945 27.0231 102.347 25.2211C103.748 23.419 104.353 21.1638 104.031 18.9514Z" fill="#141A3C"/>
<path d="M104.031 18.9513C104.354 21.1637 103.748 23.4189 102.347 25.221C100.946 27.023 98.8643 28.2243 96.5601 28.5604C94.2559 28.8965 91.9178 28.3401 90.0602 27.0134C88.2027 25.6867 86.9779 23.6985 86.6552 21.4861C86.3324 19.2738 86.9383 17.0185 88.3394 15.2165C89.7405 13.4144 91.822 12.2132 94.1262 11.877C96.4304 11.5409 98.7685 12.0974 100.626 13.4241C102.484 14.7507 103.708 16.739 104.031 18.9513ZM99.882 17.991C99.6405 17.5498 99.307 17.1646 98.9005 16.8574C98.4939 16.5502 98.0224 16.327 97.5128 16.2006C97.0031 16.0741 96.4654 16.0469 95.9302 16.1204C95.3951 16.194 94.873 16.3669 94.3939 16.6292C93.4261 17.1591 92.6918 18.0211 92.3524 19.0258C92.0131 20.0305 92.0964 21.0954 92.5842 21.9864C92.8258 22.4276 93.1593 22.8128 93.5659 23.12C93.9724 23.4272 94.4439 23.6504 94.9536 23.7768C95.4632 23.9033 96.0009 23.9305 96.5361 23.857C97.0712 23.7834 97.5933 23.6106 98.0724 23.3482C99.0402 22.8184 99.7745 21.9563 100.114 20.9516C100.453 19.947 100.37 18.882 99.882 17.991Z" fill="#EAF0F1"/>
<path d="M98.0735 23.3482C100.089 22.2448 100.899 19.8463 99.8832 17.991C98.8674 16.1356 96.4103 15.5259 94.395 16.6292C92.3798 17.7325 91.5696 20.131 92.5853 21.9864C93.6011 23.8418 96.0583 24.4515 98.0735 23.3482Z" fill="#1A1F29"/>
<path d="M46.9337 38.4395L46.7337 42.0195L45.0537 47.0795C44.4271 48.9661 43.5637 49.1661 42.4637 47.6795C40.8037 45.4528 39.8571 42.9361 39.6237 40.1295C39.6093 39.9943 39.6542 39.8577 39.7492 39.7479C39.8441 39.6381 39.9817 39.5635 40.1337 39.5395L46.9337 38.4395Z" fill="#C96F79"/>
<path d="M116.553 59.1495C116.386 58.1828 116.646 57.4762 117.333 57.0295C117.388 56.9945 117.452 56.9705 117.516 56.9596C117.581 56.9488 117.645 56.9515 117.702 56.9675C117.759 56.9836 117.807 57.0124 117.842 57.0512C117.878 57.0901 117.898 57.1377 117.903 57.1895C118.17 62.0162 118.019 66.8295 117.453 71.6295C117.253 73.3095 116.793 74.2828 116.073 74.5495C115.399 74.7962 114.686 74.7462 113.933 74.3995C113.073 73.9995 112.896 72.9228 113.403 71.1695L116.543 60.2095C116.623 59.9362 116.626 59.5828 116.553 59.1495Z" fill="#E27B7B"/>
<path d="M82.5735 60.1289C83.4068 61.6422 83.3935 63.0889 82.5335 64.4689C81.7935 65.6622 81.4101 66.2889 81.3835 66.3489C75.2168 78.9089 68.0902 90.1989 60.0035 100.219C45.8635 117.739 26.3635 115.169 7.94347 107.059C-0.636527 103.289 2.88352 115.089 4.24352 118.519C12.3502 138.846 27.0302 152.209 48.2835 158.609C49.2435 158.902 50.1402 158.749 50.9735 158.149C52.5402 158.816 54.0802 159.109 55.5935 159.029C65.9468 162.602 76.2269 162.372 86.4335 158.339C94.3802 155.199 100.577 151.836 105.023 148.249C108.823 145.176 112.283 143.046 115.403 141.859C108.563 148.132 101.98 152.986 95.6535 156.419C62.2635 174.529 22.9035 156.989 5.89349 125.319C3.89349 121.599 -2.7365 107.359 3.8435 105.159C5.55016 104.592 7.43018 104.839 9.48351 105.899C15.1835 108.852 21.9835 110.776 29.8835 111.669C50.3735 113.979 60.7135 98.3989 70.1535 83.3689C74.8135 75.9622 78.9535 68.2156 82.5735 60.1289Z" fill="#070B24"/>
<path d="M112.314 83.7686C112.98 82.1419 113.327 82.2186 113.354 83.9986C113.427 89.6719 112.617 95.2153 110.924 100.629C110.894 100.723 110.852 100.813 110.8 100.893C110.749 100.973 110.689 101.042 110.624 101.095C110.559 101.148 110.49 101.184 110.421 101.202C110.352 101.22 110.285 101.219 110.224 101.199L106.194 99.7686C106.142 99.7477 106.099 99.7072 106.067 99.6495C106.035 99.5917 106.015 99.5179 106.007 99.4323C106 99.3467 106.005 99.251 106.024 99.1507C106.042 99.0505 106.073 98.9478 106.114 98.8486L112.314 83.7686Z" fill="#E27B7B"/>
<path d="M95.6839 121.388C96.4739 119.648 101.854 109.958 105.114 112.108C105.223 112.18 105.306 112.296 105.353 112.441C105.399 112.585 105.407 112.752 105.374 112.918C104.714 116.598 103.447 120.045 101.574 123.258C100.627 124.892 99.7073 125.362 98.8139 124.668L95.7039 122.228C95.6211 122.16 95.5742 122.039 95.5705 121.887C95.5669 121.734 95.6069 121.558 95.6839 121.388Z" fill="#EF7070"/>
<path d="M82.0519 137.769C84.3252 134.742 87.3785 133.009 91.2118 132.569C92.7852 132.389 93.1419 133.029 92.2819 134.489C90.4485 137.602 88.1718 140.325 85.4518 142.659C85.3087 142.78 85.1325 142.857 84.9443 142.88C84.7562 142.903 84.5643 142.872 84.3918 142.789C83.3385 142.282 82.4952 141.529 81.8619 140.529C81.6087 140.129 81.4913 139.651 81.5253 139.158C81.5592 138.665 81.7429 138.18 82.0519 137.769Z" fill="#E27B7B"/>
<path d="M55.5936 159.029C54.0802 159.109 52.5402 158.815 50.9736 158.149L50.1935 152.049C50.1724 151.885 50.2073 151.721 50.2912 151.59C50.375 151.46 50.5013 151.373 50.6436 151.349C58.0769 150.135 65.4302 148.555 72.7035 146.609C73.6969 146.342 74.1469 146.702 74.0536 147.689C74.0283 147.985 73.8715 148.288 73.6136 148.539C68.6202 153.432 62.6136 156.929 55.5936 159.029Z" fill="#EF7070"/>
</svg>
