<svg width="105" height="216" viewBox="0 0 105 216" fill="none" xmlns="http://www.w3.org/2000/svg">
<path d="M23.086 127.922C29.246 129.772 43.936 130.192 42.346 119.742C41.376 113.382 40.666 105.832 37.946 100.052C34.3926 92.4988 32.3793 87.5054 31.906 85.0721C26.726 58.2721 33.576 32.3021 60.936 21.8121C72.696 17.3021 82.796 27.9421 94.436 26.3921C104.796 25.0221 105.116 12.9621 101.816 5.8721C101.673 5.56618 101.442 5.31453 101.156 5.15209C94.406 1.37209 79.596 1.25209 74.196 1.05209C49.406 0.132088 20.476 11.4021 9.33597 34.6221C-3.43403 61.2221 7.52597 90.1821 18.156 114.832C19.566 118.092 19.816 121.752 20.656 125.342C20.9693 126.669 21.7793 127.529 23.086 127.922Z" stroke="#FFB89D" stroke-width="2"/>
<path d="M40.7254 141.852C36.2854 142.892 24.3154 143.902 18.5254 141.952C18.3776 141.902 18.2416 141.821 18.1263 141.714C18.0109 141.607 17.9186 141.477 17.8554 141.332C16.9454 139.272 16.7954 136.102 13.5954 136.772C10.1854 137.492 6.73539 145.452 6.14539 148.312C5.14539 153.146 4.87206 158.416 5.32539 164.122C5.33025 164.188 5.34846 164.251 5.37894 164.31C5.40942 164.368 5.45156 164.42 5.50286 164.462C5.55415 164.504 5.61355 164.535 5.67755 164.554C5.74154 164.573 5.80882 164.579 5.87539 164.572C14.3621 163.826 22.8621 163.586 31.3754 163.852C36.7454 164.022 43.3054 156.672 46.3154 154.172C51.5054 149.862 50.4854 144.512 49.4254 137.912C49.0954 135.922 47.7354 135.192 45.9254 135.932C45.7878 135.987 45.6652 136.081 45.569 136.205C45.4729 136.33 45.4063 136.48 45.3754 136.642C44.7954 139.522 43.2454 141.259 40.7254 141.852Z" stroke="#FFB89D" stroke-width="2"/>
<path d="M18.135 214.112C36.075 214.852 46.875 196.012 36.315 181.092C34.575 178.632 31.565 176.662 28.705 176.562C21.3783 176.295 13.5083 177.345 5.09497 179.712C4.77548 179.803 4.49393 179.98 4.28497 180.222C-4.04503 189.762 4.52497 213.552 18.135 214.112Z" stroke="#FFB89D" stroke-width="2"/>
<path d="M23.086 127.922C21.7793 127.529 20.9693 126.669 20.656 125.342C19.816 121.752 19.566 118.092 18.156 114.832C7.52597 90.1821 -3.43403 61.2221 9.33597 34.6221C20.476 11.4021 49.406 0.132088 74.196 1.05209C79.596 1.25209 94.406 1.37209 101.156 5.15209C101.442 5.31453 101.673 5.56618 101.816 5.8721C105.116 12.9621 104.796 25.0221 94.436 26.3921C82.796 27.9421 72.696 17.3021 60.936 21.8121C33.576 32.3021 26.726 58.2721 31.906 85.0721C32.3793 87.5054 34.3926 92.4987 37.946 100.052C40.666 105.832 41.376 113.382 42.346 119.742C43.936 130.192 29.246 129.772 23.086 127.922Z" fill="#FF7347"/>
<path d="M18.5254 141.952C24.3154 143.902 36.2854 142.892 40.7254 141.852C43.2454 141.259 44.7954 139.522 45.3754 136.642C45.4063 136.48 45.4729 136.33 45.569 136.205C45.6652 136.081 45.7878 135.987 45.9254 135.932C47.7354 135.192 49.0954 135.922 49.4254 137.912C50.4854 144.512 51.5054 149.862 46.3154 154.172C43.3054 156.672 36.7454 164.022 31.3754 163.852C22.8621 163.586 14.3621 163.826 5.87539 164.572C5.80882 164.579 5.74154 164.573 5.67755 164.554C5.61355 164.535 5.55415 164.504 5.50286 164.462C5.45156 164.42 5.40942 164.368 5.37894 164.31C5.34846 164.251 5.33025 164.188 5.32539 164.122C4.87206 158.416 5.14539 153.146 6.14539 148.312C6.73539 145.452 10.1854 137.492 13.5954 136.772C16.7954 136.102 16.9454 139.272 17.8554 141.332C17.9186 141.477 18.0109 141.607 18.1263 141.714C18.2416 141.821 18.3776 141.902 18.5254 141.952Z" fill="#FF7347"/>
<path d="M18.135 214.112C4.52497 213.552 -4.04503 189.762 4.28497 180.222C4.49393 179.981 4.77548 179.804 5.09497 179.712C13.5083 177.346 21.3783 176.296 28.705 176.562C31.565 176.662 34.575 178.632 36.315 181.092C46.875 196.012 36.075 214.852 18.135 214.112Z" fill="#FF7347"/>
</svg>
