<svg width="135" height="218" viewBox="0 0 135 218" fill="none" xmlns="http://www.w3.org/2000/svg">
<path d="M35.8094 52.4062L34.8594 56.6362" stroke="#8C8A91" stroke-width="2"/>
<path d="M34.86 56.6363C32.38 63.5163 29.9733 68.763 27.64 72.3763C16.95 88.9063 8.49 107.466 4.65 126.836C1.66 141.916 -1.58 161.856 4.2 176.456C17.19 209.276 50.96 223.436 83.93 213.206C104.28 206.896 125.36 196.376 131.09 173.616C138.84 142.846 128.22 116.456 106.84 94.6963C92.38 79.9763 77.48 65.1663 67.36 46.7363" stroke="#A6BAC3" stroke-width="2"/>
<path d="M67.3594 46.7362L65.3594 42.8862" stroke="#8C8A91" stroke-width="2"/>
<path d="M65.3607 42.8864C61.754 33.5264 58.4507 24.0598 55.4507 14.4864C53.7607 9.07644 48.7607 -3.42356 41.6907 2.60644C35.1907 8.14644 35.7607 43.4664 35.8107 52.4064" stroke="#A5B5C0" stroke-width="2"/>
<path d="M65.3586 42.8862C55.7719 47.1396 45.9219 50.3129 35.8086 52.4062" stroke="#334155" stroke-width="2"/>
<path d="M67.3594 46.7363C56.666 50.7097 45.8327 54.0097 34.8594 56.6363" stroke="#344558" stroke-width="2"/>
<path d="M76.2203 114.936C92.1903 94.5465 74.0303 71.9265 58.2603 58.9865C57.2203 58.1331 56.1037 58.0031 54.9103 58.5965C43.8637 64.0765 35.4537 72.1298 29.6803 82.7565C13.1703 113.116 54.7203 142.386 76.2203 114.936Z" stroke="#344558" stroke-width="2"/>
<path d="M93.2206 122.536C94.5273 123.27 95.854 123.35 97.2006 122.776C97.2739 122.747 97.3329 122.644 97.3675 122.483C97.4022 122.322 97.4104 122.115 97.3906 121.896C97.064 118.523 96.474 115.776 95.6206 113.656C94.6606 111.256 93.0006 112.546 92.8106 114.326C92.524 117.026 92.6173 119.673 93.0906 122.266C93.1028 122.333 93.1213 122.393 93.1441 122.44C93.167 122.488 93.1934 122.521 93.2206 122.536Z" stroke="#A3BAC5" stroke-width="2"/>
<path d="M107.588 120.026C108.718 120.386 113.058 115.986 109.138 114.756C106.478 113.906 103.358 115.016 105.708 118.596C106.148 119.281 106.814 119.788 107.588 120.026Z" stroke="#A3BAC5" stroke-width="2"/>
<path d="M94.0597 144.046C96.8797 144.926 97.943 143.933 97.2497 141.066C96.7097 138.873 96.4164 137.713 96.3697 137.586C95.8497 136.3 95.1197 135.77 94.1797 135.996C94.048 136.027 93.9253 136.103 93.8261 136.217C93.7268 136.33 93.6552 136.476 93.6197 136.636C93.1797 138.71 93.0697 140.796 93.2897 142.896C93.3197 143.175 93.4089 143.433 93.546 143.638C93.6831 143.842 93.8618 143.985 94.0597 144.046Z" stroke="#A6BAC3" stroke-width="2"/>
<path d="M109.971 144.826C110.26 145.006 110.608 145.088 110.968 145.061C111.328 145.034 111.684 144.9 111.991 144.676C114.344 142.949 116.114 140.496 117.301 137.316C118.821 133.246 111.771 139.826 111.651 139.916C111.346 140.136 110.966 140.225 110.595 140.165C110.223 140.106 109.891 139.901 109.671 139.596C108.821 138.396 106.041 135.266 104.781 138.156C104.712 138.319 104.679 138.496 104.684 138.673C104.689 138.851 104.732 139.026 104.811 139.186C105.984 141.559 107.704 143.439 109.971 144.826Z" stroke="#A6BAC3" stroke-width="2"/>
<path d="M48.7103 142.836L55.0503 148.756C55.3453 149.034 55.752 149.168 56.1812 149.131C56.6105 149.093 57.0273 148.887 57.3403 148.556C59.827 145.963 61.517 143.3 62.4103 140.566C64.1203 135.306 58.4203 143.026 58.3603 143.106C57.4336 144.46 56.2936 144.673 54.9403 143.746C53.6903 142.886 50.2003 139.176 48.7003 141.386C48.534 141.631 48.4435 141.912 48.4453 142.178C48.4472 142.444 48.5412 142.677 48.7103 142.836Z" stroke="#A3BAC5" stroke-width="2"/>
<path d="M20.0191 151.596C20.1972 151.765 20.4348 151.857 20.6802 151.851C20.9256 151.846 21.1589 151.743 21.3291 151.566C22.0791 150.776 32.9091 139.786 27.9391 139.416C27.7919 139.407 27.6369 139.436 27.4849 139.501C27.3329 139.567 27.1875 139.668 27.0591 139.796L21.7091 145.206C21.5532 145.363 21.3648 145.485 21.1549 145.563C20.945 145.642 20.7179 145.676 20.4868 145.664C20.2558 145.652 20.0255 145.594 19.8095 145.493C19.5935 145.392 19.3962 145.25 19.2291 145.076C18.1291 143.946 15.0891 140.456 13.6791 140.186C7.83905 139.066 19.5091 151.106 20.0191 151.596Z" stroke="#A3BAC5" stroke-width="2"/>
<path d="M109.281 164.236C109.622 164.501 110.046 164.649 110.496 164.662C110.947 164.674 111.402 164.55 111.801 164.306C114.834 162.426 116.394 159.713 116.481 156.166C116.501 155.266 116.214 155.156 115.621 155.836L112.351 159.576C112.199 159.749 112.012 159.888 111.804 159.983C111.595 160.079 111.369 160.128 111.142 160.128C110.915 160.128 110.691 160.079 110.488 159.983C110.284 159.888 110.104 159.749 109.961 159.576L107.821 156.956C107.612 156.702 107.323 156.514 106.991 156.416C99.501 154.136 107.861 163.136 109.281 164.236Z" stroke="#A6BAC3" stroke-width="2"/>
<path d="M94.6101 157.156C93.9234 157.123 93.3534 157.399 92.9001 157.986C92.7128 158.224 92.6169 158.551 92.6301 158.906C93.3301 173.106 100.98 157.406 94.6101 157.156Z" stroke="#A3BAC5" stroke-width="2"/>
<path d="M26.7011 171.806C25.1311 171.056 19.5311 165.276 18.2611 168.416C18.1947 168.579 18.1726 168.755 18.1973 168.926C18.222 169.097 18.2924 169.256 18.4011 169.386C20.9677 172.493 23.8877 175.243 27.1611 177.636C27.4144 177.822 27.7337 177.906 28.0641 177.873C28.3944 177.84 28.7152 177.693 28.9711 177.456C31.9177 174.709 34.0477 171.429 35.3611 167.616C35.4281 167.417 35.4414 167.204 35.3996 166.999C35.3579 166.793 35.2626 166.601 35.1229 166.441C34.9832 166.281 34.8039 166.159 34.6021 166.086C34.4003 166.014 34.183 165.993 33.9711 166.026C32.7911 166.213 31.1544 167.919 29.0611 171.146C28.8159 171.525 28.4407 171.801 28.006 171.923C27.5713 172.044 27.1072 172.003 26.7011 171.806Z" stroke="#A3BAC5" stroke-width="2"/>
<path d="M98.9192 189.876C100.613 191.189 102.113 191.109 103.419 189.636L108.809 183.546C108.984 183.346 109.138 183.148 109.242 182.987C109.346 182.826 109.395 182.712 109.379 182.666C108.899 181.446 108.013 180.859 106.719 180.906C106.622 180.908 106.5 180.959 106.365 181.051C106.23 181.144 106.087 181.277 105.949 181.436L102.099 185.846C102.003 185.956 101.883 186.042 101.747 186.101C101.611 186.159 101.461 186.189 101.307 186.187C101.153 186.185 100.997 186.152 100.85 186.09C100.702 186.028 100.566 185.938 100.449 185.826L94.5692 180.216C94.4445 180.094 94.2923 180.008 94.1309 179.969C93.9694 179.93 93.8056 179.939 93.6592 179.996C90.4292 181.216 97.8092 189.006 98.9192 189.876Z" stroke="#A6BAC3" stroke-width="2"/>
<path d="M80.24 186.016C72.03 182.576 78.38 193.096 83.22 189.926C83.4663 189.764 83.6636 189.497 83.78 189.166C84.25 187.806 87.94 181.506 83.36 182.536C83.2156 182.568 83.0757 182.637 82.9497 182.739C82.8236 182.841 82.7146 182.973 82.63 183.126L81.12 185.836C81.0509 185.959 80.9228 186.045 80.7603 186.078C80.5979 186.112 80.4125 186.089 80.24 186.016Z" stroke="#A6BAC3" stroke-width="2"/>
<path d="M55.7586 190.326C57.292 192.126 59.1953 193.463 61.4686 194.336C62.522 194.743 63.4286 194.44 64.1886 193.426C65.822 191.26 66.9153 188.836 67.4686 186.156C67.4839 186.076 67.479 185.993 67.4543 185.915C67.4296 185.837 67.3858 185.765 67.3264 185.706C67.267 185.647 67.1937 185.601 67.1124 185.573C67.0312 185.546 66.9442 185.536 66.8586 185.546C64.8653 185.786 63.652 186.916 63.2186 188.936C63.1755 189.138 63.0891 189.329 62.9661 189.494C62.8432 189.659 62.6872 189.793 62.5104 189.885C62.3337 189.977 62.1412 190.025 61.9482 190.025C61.7552 190.026 61.567 189.978 61.3986 189.886C59.8586 189.033 58.192 188.59 56.3986 188.556C54.9453 188.536 54.732 189.126 55.7586 190.326Z" stroke="#A6BAC3" stroke-width="2"/>
<path d="M31.66 190.736C31.82 192.756 38.72 197.236 40.24 198.436C40.4535 198.606 40.7305 198.679 41.0123 198.639C41.2941 198.6 41.5587 198.452 41.75 198.226L49.08 189.566C49.1739 189.456 49.2422 189.326 49.2802 189.184C49.3183 189.043 49.325 188.893 49.3 188.746C48.3 182.626 42.48 191.376 41.7 192.486C41.4573 192.835 41.0818 193.072 40.6528 193.146C40.2238 193.221 39.7746 193.128 39.4 192.886L33.93 189.396C32.2633 188.329 31.5067 188.776 31.66 190.736Z" stroke="#A3BAC5" stroke-width="2"/>
<path d="M57.3688 69.6863C57.1009 69.4507 56.7708 69.2971 56.4179 69.2439C56.0651 69.1907 55.7044 69.2402 55.3788 69.3863C44.8088 74.1163 34.4788 89.8363 35.0288 101.116C35.2788 106.196 39.4988 117.386 46.7488 115.416C46.9711 115.355 47.176 115.243 47.3468 115.089C47.5177 114.934 47.6499 114.741 47.7326 114.526C47.8153 114.311 47.8463 114.08 47.8231 113.85C47.7998 113.621 47.723 113.4 47.5988 113.206C45.6088 110.076 42.7988 106.886 42.1888 103.326C40.8488 95.6163 45.4288 88.2563 50.2988 82.7763C51.5522 81.3696 52.5988 80.493 53.4388 80.1463C54.9522 79.5263 56.2788 79.8063 57.4188 80.9863C61.8922 85.6396 64.8322 90.643 66.2388 95.9963C68.0888 102.996 65.7188 106.176 62.2788 111.686C62.1906 111.828 62.1318 111.983 62.1059 112.141C62.0801 112.3 62.0879 112.458 62.1288 112.606C62.5088 114.08 63.3655 114.973 64.6988 115.286C67.8088 116.016 70.1988 112.036 71.4588 109.666C79.8088 93.9563 69.0288 79.8763 57.3688 69.6863Z" stroke="#8C8A91" stroke-width="2"/>
<path d="M65.3568 42.8869C55.7701 47.1403 45.9201 50.3136 35.8068 52.4069C35.7568 43.4669 35.1868 8.14693 41.6868 2.60693C48.7568 -3.42307 53.7568 9.07693 55.4468 14.4869C58.4468 24.0603 61.7501 33.5269 65.3568 42.8869Z" fill="#4C6C83"/>
<path d="M65.3594 42.8867L67.3594 46.7367C56.666 50.7101 45.8327 54.0101 34.8594 56.6367L35.8094 52.4067C45.9227 50.3134 55.7727 47.1401 65.3594 42.8867Z" fill="#1A1526"/>
<path d="M67.36 46.7368C77.48 65.1668 92.38 79.9768 106.84 94.6968C128.22 116.457 138.84 142.847 131.09 173.617C125.36 196.377 104.28 206.897 83.93 213.207C50.96 223.437 17.19 209.277 4.2 176.457C-1.58 161.857 1.66 141.917 4.65 126.837C8.49 107.467 16.95 88.9068 27.64 72.3768C29.9733 68.7635 32.38 63.5168 34.86 56.6368C45.8333 54.0101 56.6667 50.7101 67.36 46.7368ZM76.22 114.937C92.19 94.5468 74.03 71.9268 58.26 58.9868C57.22 58.1335 56.1033 58.0035 54.91 58.5968C43.8633 64.0768 35.4533 72.1301 29.68 82.7568C13.17 113.117 54.72 142.387 76.22 114.937ZM93.22 122.537C94.5267 123.27 95.8533 123.35 97.2 122.777C97.2732 122.748 97.3322 122.644 97.3669 122.483C97.4016 122.323 97.4097 122.115 97.39 121.897C97.0633 118.523 96.4733 115.777 95.62 113.657C94.66 111.257 93 112.547 92.81 114.327C92.5233 117.027 92.6167 119.673 93.09 122.267C93.1022 122.333 93.1207 122.393 93.1435 122.441C93.1664 122.488 93.1928 122.521 93.22 122.537ZM107.59 120.027C108.72 120.387 113.06 115.987 109.14 114.757C106.48 113.907 103.36 115.017 105.71 118.597C106.15 119.281 106.815 119.788 107.59 120.027ZM94.06 144.047C96.88 144.927 97.9433 143.933 97.25 141.067C96.71 138.873 96.4167 137.713 96.37 137.587C95.85 136.3 95.12 135.77 94.18 135.997C94.0483 136.027 93.9256 136.104 93.8264 136.217C93.7271 136.331 93.6555 136.476 93.62 136.637C93.18 138.71 93.07 140.797 93.29 142.897C93.32 143.175 93.4092 143.433 93.5463 143.638C93.6834 143.843 93.8621 143.985 94.06 144.047ZM109.97 144.827C110.26 145.007 110.607 145.089 110.967 145.062C111.327 145.035 111.683 144.901 111.99 144.677C114.343 142.95 116.113 140.497 117.3 137.317C118.82 133.247 111.77 139.827 111.65 139.917C111.345 140.136 110.965 140.226 110.594 140.166C110.223 140.106 109.89 139.901 109.67 139.597C108.82 138.397 106.04 135.267 104.78 138.157C104.711 138.32 104.678 138.497 104.683 138.674C104.689 138.852 104.732 139.027 104.81 139.187C105.983 141.56 107.703 143.44 109.97 144.827ZM48.71 142.837L55.05 148.757C55.345 149.034 55.7516 149.169 56.1809 149.132C56.6102 149.094 57.027 148.887 57.34 148.557C59.8267 145.963 61.5167 143.3 62.41 140.567C64.12 135.307 58.42 143.027 58.36 143.107C57.4333 144.46 56.2933 144.673 54.94 143.747C53.69 142.887 50.2 139.177 48.7 141.387C48.5336 141.632 48.4432 141.912 48.445 142.178C48.4469 142.444 48.5409 142.678 48.71 142.837ZM20.02 151.597C20.1981 151.766 20.4358 151.857 20.6812 151.852C20.9266 151.846 21.1598 151.744 21.33 151.567C22.08 150.777 32.91 139.787 27.94 139.417C27.7929 139.407 27.6378 139.436 27.4858 139.502C27.3338 139.567 27.1885 139.668 27.06 139.797L21.71 145.207C21.5541 145.364 21.3657 145.485 21.1558 145.564C20.9459 145.642 20.7188 145.676 20.4878 145.664C20.2567 145.652 20.0265 145.594 19.8105 145.493C19.5945 145.392 19.3971 145.251 19.23 145.077C18.13 143.947 15.09 140.457 13.68 140.187C7.83999 139.067 19.51 151.107 20.02 151.597ZM109.28 164.237C109.621 164.501 110.045 164.65 110.495 164.662C110.946 164.675 111.401 164.551 111.8 164.307C114.833 162.427 116.393 159.713 116.48 156.167C116.5 155.267 116.213 155.157 115.62 155.837L112.35 159.577C112.198 159.75 112.011 159.889 111.803 159.984C111.594 160.079 111.368 160.128 111.141 160.128C110.914 160.128 110.69 160.079 110.487 159.984C110.283 159.889 110.103 159.75 109.96 159.577L107.82 156.957C107.611 156.703 107.322 156.514 106.99 156.417C99.5 154.137 107.86 163.137 109.28 164.237ZM94.61 157.157C93.9233 157.123 93.3533 157.4 92.9 157.987C92.7127 158.225 92.6167 158.552 92.63 158.907C93.33 173.107 100.98 157.407 94.61 157.157ZM26.7 171.807C25.13 171.057 19.53 165.277 18.26 168.417C18.1936 168.58 18.1716 168.756 18.1963 168.927C18.2209 169.098 18.2914 169.257 18.4 169.387C20.9667 172.493 23.8867 175.243 27.16 177.637C27.4133 177.823 27.7326 177.907 28.063 177.874C28.3934 177.841 28.7141 177.694 28.97 177.457C31.9167 174.71 34.0467 171.43 35.36 167.617C35.427 167.418 35.4403 167.205 35.3986 166.999C35.3569 166.793 35.2616 166.601 35.1219 166.442C34.9822 166.282 34.8028 166.16 34.601 166.087C34.3993 166.014 34.1819 165.994 33.97 166.027C32.79 166.213 31.1533 167.92 29.06 171.147C28.8148 171.526 28.4396 171.802 28.0049 171.924C27.5703 172.045 27.1062 172.004 26.7 171.807ZM98.92 189.877C100.613 191.19 102.113 191.11 103.42 189.637L108.81 183.547C108.985 183.347 109.138 183.148 109.243 182.987C109.347 182.826 109.396 182.713 109.38 182.667C108.9 181.447 108.013 180.86 106.72 180.907C106.623 180.909 106.501 180.959 106.366 181.052C106.231 181.145 106.088 181.278 105.95 181.437L102.1 185.847C102.004 185.956 101.884 186.043 101.748 186.102C101.612 186.16 101.462 186.189 101.308 186.188C101.154 186.186 100.998 186.153 100.851 186.091C100.703 186.029 100.567 185.939 100.45 185.827L94.57 180.217C94.4453 180.095 94.2931 180.009 94.1317 179.97C93.9702 179.931 93.8064 179.94 93.66 179.997C90.43 181.217 97.81 189.007 98.92 189.877ZM80.24 186.017C72.03 182.577 78.38 193.097 83.22 189.927C83.4663 189.765 83.6637 189.497 83.78 189.167C84.25 187.807 87.94 181.507 83.36 182.537C83.2157 182.569 83.0757 182.638 82.9497 182.74C82.8237 182.841 82.7146 182.973 82.63 183.127L81.12 185.837C81.0509 185.96 80.9228 186.046 80.7603 186.079C80.5979 186.112 80.4125 186.09 80.24 186.017ZM55.76 190.327C57.2933 192.127 59.1967 193.463 61.47 194.337C62.5233 194.743 63.43 194.44 64.19 193.427C65.8233 191.26 66.9167 188.837 67.47 186.157C67.4853 186.077 67.4804 185.994 67.4557 185.916C67.4309 185.837 67.3871 185.766 67.3277 185.706C67.2684 185.647 67.1951 185.602 67.1138 185.574C67.0326 185.546 66.9456 185.537 66.86 185.547C64.8667 185.787 63.6533 186.917 63.22 188.937C63.1769 189.139 63.0905 189.33 62.9675 189.495C62.8446 189.659 62.6885 189.793 62.5118 189.885C62.3351 189.977 62.1426 190.026 61.9496 190.026C61.7565 190.026 61.5684 189.979 61.4 189.887C59.86 189.033 58.1933 188.59 56.4 188.557C54.9467 188.537 54.7333 189.127 55.76 190.327ZM31.66 190.737C31.82 192.757 38.72 197.237 40.24 198.437C40.4535 198.606 40.7305 198.679 41.0123 198.64C41.2941 198.601 41.5587 198.453 41.75 198.227L49.08 189.567C49.1739 189.457 49.2422 189.327 49.2802 189.185C49.3183 189.043 49.325 188.894 49.3 188.747C48.3 182.627 42.48 191.377 41.7 192.487C41.4573 192.836 41.0818 193.072 40.6528 193.147C40.2237 193.222 39.7746 193.128 39.4 192.887L33.93 189.397C32.2633 188.33 31.5067 188.777 31.66 190.737Z" fill="#4E758A"/>
<path d="M58.2603 58.987C74.0303 71.927 92.1903 94.5469 76.2203 114.937C54.7203 142.387 13.1703 113.117 29.6803 82.7569C35.4537 72.1303 43.8637 64.077 54.9103 58.597C56.1037 58.0036 57.2203 58.1336 58.2603 58.987ZM57.3703 69.687C57.1024 69.4513 56.7723 69.2978 56.4194 69.2446C56.0666 69.1914 55.7059 69.2408 55.3803 69.387C44.8103 74.117 34.4803 89.8369 35.0303 101.117C35.2803 106.197 39.5003 117.387 46.7503 115.417C46.9726 115.356 47.1775 115.244 47.3483 115.089C47.5192 114.935 47.6514 114.742 47.7341 114.527C47.8168 114.312 47.8478 114.08 47.8246 113.851C47.8013 113.622 47.7245 113.401 47.6003 113.207C45.6103 110.077 42.8003 106.887 42.1903 103.327C40.8503 95.617 45.4303 88.2569 50.3003 82.7769C51.5537 81.3703 52.6003 80.4936 53.4403 80.1469C54.9537 79.5269 56.2803 79.807 57.4203 80.987C61.8937 85.6403 64.8337 90.6436 66.2403 95.997C68.0903 102.997 65.7203 106.177 62.2803 111.687C62.1921 111.829 62.1333 111.984 62.1074 112.142C62.0816 112.301 62.0894 112.459 62.1303 112.607C62.5103 114.08 63.367 114.974 64.7003 115.287C67.8103 116.017 70.2003 112.037 71.4603 109.667C79.8103 93.957 69.0303 79.877 57.3703 69.687Z" fill="#1A1526"/>
<path d="M57.3688 69.6868C69.0288 79.8768 79.8088 93.9568 71.4588 109.667C70.1988 112.037 67.8088 116.017 64.6988 115.287C63.3655 114.973 62.5088 114.08 62.1288 112.607C62.0879 112.459 62.0801 112.3 62.1059 112.142C62.1318 111.984 62.1906 111.829 62.2788 111.687C65.7188 106.177 68.0888 102.997 66.2388 95.9968C64.8322 90.6435 61.8922 85.6401 57.4188 80.9868C56.2788 79.8068 54.9522 79.5268 53.4388 80.1468C52.5988 80.4935 51.5522 81.3701 50.2988 82.7768C45.4288 88.2568 40.8488 95.6168 42.1888 103.327C42.7988 106.887 45.6088 110.077 47.5988 113.207C47.723 113.401 47.7998 113.622 47.8231 113.851C47.8463 114.08 47.8153 114.312 47.7326 114.527C47.6499 114.742 47.5177 114.934 47.3468 115.089C47.176 115.244 46.9711 115.356 46.7488 115.417C39.4988 117.387 35.2788 106.197 35.0288 101.117C34.4788 89.8368 44.8088 74.1168 55.3788 69.3868C55.7044 69.2406 56.0651 69.1912 56.4179 69.2444C56.7708 69.2976 57.1009 69.4512 57.3688 69.6868Z" fill="#FEFEFC"/>
<path d="M93.2167 122.537C93.1895 122.522 93.1631 122.488 93.1402 122.441C93.1174 122.393 93.0989 122.333 93.0867 122.267C92.6134 119.674 92.5201 117.027 92.8067 114.327C92.9967 112.547 94.6567 111.257 95.6167 113.657C96.4701 115.777 97.0601 118.524 97.3867 121.897C97.4065 122.116 97.3983 122.323 97.3636 122.483C97.329 122.644 97.27 122.748 97.1967 122.777C95.8501 123.35 94.5234 123.27 93.2167 122.537Z" fill="#F8FEFF"/>
<path d="M107.588 120.027C106.814 119.788 106.148 119.281 105.708 118.597C103.358 115.017 106.478 113.907 109.138 114.757C113.058 115.987 108.718 120.387 107.588 120.027Z" fill="#F8FEFF"/>
<path d="M94.0597 144.047C93.8618 143.985 93.6831 143.843 93.546 143.638C93.4089 143.433 93.3197 143.175 93.2897 142.897C93.0697 140.797 93.1797 138.71 93.6197 136.637C93.6552 136.476 93.7268 136.33 93.8261 136.217C93.9253 136.104 94.048 136.027 94.1797 135.997C95.1197 135.77 95.8497 136.3 96.3697 137.587C96.4164 137.713 96.7097 138.873 97.2497 141.067C97.943 143.933 96.8797 144.927 94.0597 144.047Z" fill="#FEFEFC"/>
<path d="M109.967 144.827C107.7 143.44 105.98 141.56 104.807 139.187C104.729 139.026 104.685 138.852 104.68 138.674C104.675 138.496 104.708 138.32 104.777 138.157C106.037 135.267 108.817 138.397 109.667 139.597C109.887 139.901 110.219 140.106 110.591 140.166C110.962 140.226 111.342 140.136 111.647 139.917C111.767 139.827 118.817 133.247 117.297 137.317C116.11 140.497 114.34 142.95 111.987 144.677C111.68 144.901 111.324 145.035 110.964 145.062C110.604 145.088 110.257 145.006 109.967 144.827Z" fill="#FEFEFC"/>
<path d="M48.7103 142.837C48.5412 142.678 48.4472 142.444 48.4453 142.178C48.4435 141.912 48.534 141.631 48.7003 141.387C50.2003 139.177 53.6903 142.887 54.9403 143.747C56.2936 144.673 57.4336 144.46 58.3603 143.107C58.4203 143.027 64.1203 135.307 62.4103 140.567C61.517 143.3 59.827 145.963 57.3403 148.557C57.0273 148.887 56.6105 149.094 56.1812 149.131C55.752 149.169 55.3453 149.034 55.0503 148.757L48.7103 142.837Z" fill="#F8FEFF"/>
<path d="M20.0191 151.597C19.5091 151.107 7.83905 139.067 13.6791 140.187C15.0891 140.457 18.1291 143.947 19.2291 145.077C19.3962 145.251 19.5935 145.392 19.8095 145.493C20.0255 145.594 20.2558 145.652 20.4868 145.664C20.7179 145.676 20.945 145.642 21.1549 145.564C21.3648 145.485 21.5532 145.364 21.7091 145.207L27.0591 139.797C27.1875 139.668 27.3329 139.567 27.4849 139.502C27.6369 139.436 27.7919 139.407 27.9391 139.417C32.9091 139.787 22.0791 150.777 21.3291 151.567C21.1589 151.744 20.9256 151.846 20.6802 151.852C20.4348 151.857 20.1972 151.766 20.0191 151.597Z" fill="#F8FEFF"/>
<path d="M109.277 164.237C107.857 163.137 99.4971 154.137 106.987 156.417C107.319 156.514 107.608 156.703 107.817 156.957L109.957 159.577C110.1 159.75 110.28 159.889 110.484 159.984C110.687 160.079 110.911 160.128 111.138 160.128C111.365 160.128 111.591 160.079 111.8 159.984C112.009 159.889 112.195 159.75 112.347 159.577L115.617 155.837C116.21 155.157 116.497 155.267 116.477 156.167C116.39 159.714 114.83 162.427 111.797 164.307C111.398 164.551 110.943 164.675 110.493 164.662C110.042 164.65 109.618 164.502 109.277 164.237Z" fill="#FEFEFC"/>
<path d="M94.6101 157.156C100.98 157.406 93.3301 173.106 92.6301 158.906C92.6169 158.551 92.7128 158.225 92.9001 157.987C93.3534 157.4 93.9234 157.123 94.6101 157.156Z" fill="#F8FEFF"/>
<path d="M26.6972 171.807C27.1033 172.003 27.5674 172.045 28.0021 171.923C28.4368 171.802 28.812 171.526 29.0572 171.147C31.1505 167.92 32.7872 166.213 33.9672 166.027C34.1791 165.993 34.3964 166.014 34.5982 166.087C34.7999 166.159 34.9793 166.282 35.119 166.441C35.2587 166.601 35.354 166.793 35.3957 166.999C35.4375 167.205 35.4242 167.418 35.3572 167.617C34.0438 171.43 31.9138 174.71 28.9672 177.457C28.7113 177.693 28.3905 177.841 28.0602 177.874C27.7298 177.907 27.4105 177.823 27.1571 177.637C23.8838 175.243 20.9638 172.493 18.3972 169.387C18.2885 169.257 18.2181 169.098 18.1934 168.927C18.1687 168.756 18.1908 168.579 18.2572 168.417C19.5272 165.277 25.1272 171.057 26.6972 171.807Z" fill="#F8FEFF"/>
<path d="M98.9192 189.877C97.8092 189.007 90.4292 181.217 93.6592 179.997C93.8056 179.94 93.9694 179.93 94.1309 179.969C94.2923 180.008 94.4445 180.094 94.5692 180.217L100.449 185.827C100.566 185.939 100.702 186.028 100.85 186.09C100.997 186.152 101.153 186.185 101.307 186.187C101.461 186.189 101.611 186.16 101.747 186.101C101.883 186.043 102.003 185.956 102.099 185.847L105.949 181.437C106.087 181.277 106.23 181.145 106.365 181.052C106.5 180.959 106.622 180.909 106.719 180.907C108.013 180.86 108.899 181.447 109.379 182.667C109.395 182.712 109.346 182.826 109.242 182.987C109.138 183.148 108.984 183.346 108.809 183.547L103.419 189.637C102.113 191.11 100.613 191.19 98.9192 189.877Z" fill="#FEFEFC"/>
<path d="M83.22 189.927C78.38 193.097 72.03 182.577 80.24 186.017C80.4125 186.09 80.5979 186.112 80.7603 186.079C80.9228 186.046 81.0509 185.959 81.12 185.837L82.63 183.127C82.7146 182.973 82.8236 182.841 82.9497 182.739C83.0757 182.637 83.2156 182.568 83.36 182.537C87.94 181.507 84.25 187.807 83.78 189.167C83.6636 189.497 83.4663 189.765 83.22 189.927Z" fill="#FEFEFC"/>
<path d="M55.7586 190.327C54.732 189.127 54.9453 188.537 56.3986 188.557C58.192 188.59 59.8586 189.033 61.3986 189.887C61.567 189.979 61.7552 190.026 61.9482 190.026C62.1412 190.026 62.3337 189.977 62.5104 189.885C62.6872 189.793 62.8432 189.659 62.9661 189.495C63.0891 189.33 63.1755 189.139 63.2186 188.937C63.652 186.917 64.8653 185.787 66.8586 185.547C66.9442 185.537 67.0312 185.546 67.1124 185.574C67.1937 185.602 67.267 185.647 67.3264 185.706C67.3858 185.766 67.4296 185.837 67.4543 185.916C67.479 185.994 67.4839 186.077 67.4686 186.157C66.9153 188.837 65.822 191.26 64.1886 193.427C63.4286 194.44 62.522 194.744 61.4686 194.337C59.1953 193.464 57.292 192.127 55.7586 190.327Z" fill="#FEFEFC"/>
<path d="M40.24 198.437C38.72 197.237 31.82 192.757 31.66 190.737C31.5067 188.777 32.2633 188.33 33.93 189.397L39.4 192.887C39.7746 193.128 40.2238 193.221 40.6528 193.147C41.0818 193.072 41.4573 192.835 41.7 192.487C42.48 191.377 48.3 182.627 49.3 188.747C49.325 188.893 49.3183 189.043 49.2802 189.185C49.2422 189.326 49.1739 189.457 49.08 189.567L41.75 198.227C41.5587 198.452 41.2941 198.601 41.0123 198.64C40.7305 198.679 40.4535 198.606 40.24 198.437Z" fill="#F8FEFF"/>
</svg>
