<svg width="229" height="155" viewBox="0 0 229 155" fill="none" xmlns="http://www.w3.org/2000/svg">
<path d="M224.062 2.12696C222.735 1.16696 221.262 0.820289 219.642 1.08696C203.842 3.70696 192.672 17.567 177.132 21.027C161.252 24.557 146.502 16.157 131.002 13.637C115.029 11.037 98.7354 10.6036 82.1221 12.337C58.2621 14.827 45.1521 26.517 33.4321 45.927C22.0121 64.847 11.7421 84.877 1.95209 102.467C-2.60791 110.657 10.5321 106.927 13.5221 105.667C26.6321 100.127 41.3421 95.447 52.9521 87.507C61.9121 81.387 72.8321 76.347 82.4221 85.437C91.7721 94.297 90.8021 108.647 91.3221 120.407C91.5721 126.137 92.2221 138.527 98.0821 138.317C99.8821 138.257 103.182 136.317 104.182 135.137C115.542 121.807 126.872 107.347 140.582 96.357C148.115 90.3036 154.835 90.9403 160.742 98.267C175.855 117.007 192.502 134.264 210.682 150.037C212.255 151.404 213.909 152.454 215.642 153.187C217.329 153.9 218.702 153.51 219.762 152.017C223.012 147.427 223.182 143.767 223.742 137.297C225.972 111.437 221.382 90.797 209.882 67.567C207.309 62.3803 205.892 58.7203 205.632 56.587C204.412 46.627 210.822 40.337 217.142 32.367C221.732 26.577 232.332 8.09696 224.062 2.12696Z" stroke="#ACCED0" stroke-width="2"/>
<path d="M177.364 51.2674C180.704 54.4074 184.964 57.2574 187.224 60.5074C192.454 68.0574 195.584 76.9574 195.534 85.6074C195.527 85.9407 195.577 85.9474 195.684 85.6274C198.384 77.2874 195.634 72.0574 192.754 64.4774C190.694 59.0674 186.444 55.4874 181.984 52.1474C179.394 50.2074 177.224 47.0574 180.484 44.6174C181.197 44.0907 182.847 43.6007 185.434 43.1474C194.234 41.6274 199.304 33.8474 203.554 27.6274C206.144 23.8274 209.074 21.5974 212.614 19.0574C213.854 18.1707 213.774 17.8541 212.374 18.1074C202.884 19.8174 199.404 28.7874 193.704 35.1674C190.484 38.7674 185.914 39.4274 181.674 40.7274C178.454 41.7274 172.974 45.3374 175.704 49.3274C176.184 50.0341 176.737 50.6807 177.364 51.2674Z" stroke="#A9CED2" stroke-width="2"/>
<path d="M70.8111 24.427C66.9111 24.1603 63.9311 25.7303 61.8711 29.137" stroke="#3A5965" stroke-width="2"/>
<path d="M61.871 29.1372C53.861 28.9972 46.431 42.7172 44.161 49.0372C43.841 49.9172 43.701 50.8238 43.741 51.7572C43.7944 52.8372 44.1977 53.2605 44.951 53.0272C45.0845 52.9863 45.2111 52.9043 45.3206 52.7879C45.4301 52.6714 45.5194 52.5238 45.581 52.3572C48.941 43.2872 52.221 37.6372 59.251 31.8672C59.5044 31.6605 59.6577 31.7172 59.711 32.0372C60.711 38.0872 65.501 41.3972 71.521 39.8772C82.011 37.2372 82.541 20.2272 70.811 24.4272" stroke="#ACCED0" stroke-width="2"/>
<path d="M61.8711 29.1373C64.6011 40.7973 81.4011 33.3272 70.8111 24.4272" stroke="#8C8A91" stroke-width="2"/>
<path d="M108.344 40.6069C104.857 41.4736 102.58 43.4503 101.514 46.5369C101.007 47.9903 101.12 49.4936 101.854 51.0469C106.904 61.7269 120.724 62.3469 126.864 52.2369C128.257 49.9369 128.677 47.5769 128.124 45.1569C127.144 40.8969 124.077 38.7069 118.924 38.5869" stroke="#ACCED0" stroke-width="2"/>
<path d="M118.924 38.5874C114.87 37.5541 111.344 38.2274 108.344 40.6074" stroke="#3A5965" stroke-width="2"/>
<path d="M118.924 38.5869C133.594 54.5269 99.314 61.0369 108.344 40.6069" stroke="#8C8A91" stroke-width="2"/>
<path d="M38.8026 83.7172C39.7426 84.2238 40.8659 84.3272 42.1726 84.0272C47.9826 82.6972 51.5426 80.6772 57.1826 76.7972C62.0826 73.4272 69.1026 68.8972 75.1826 69.2272C83.6526 69.6972 93.0626 74.1172 96.9726 82.1172C98.8726 86.0038 101.183 89.8438 103.903 93.6372C105.009 95.1772 106.509 95.9238 108.403 95.8772C122.343 95.5572 141.153 60.6272 154.453 73.2772C157.093 75.7905 160.379 79.9105 164.313 85.6372C176.073 102.747 190.093 117.217 205.883 130.647C207.003 131.597 209.053 133.397 209.653 131.277C209.993 130.057 209.706 129.007 208.793 128.127C198.626 118.227 188.893 107.977 179.593 97.3772C175.003 92.1472 168.833 82.5272 161.533 74.2872C150.293 61.6072 142.493 64.4172 130.933 74.4172C126.353 78.3705 121.786 82.3338 117.233 86.3072C104.583 97.3372 104.033 80.9572 98.2826 74.9472C85.0426 61.1372 70.7026 61.4172 55.7226 71.8772C50.4092 75.5972 44.5859 78.3238 38.2526 80.0572C38.0483 80.1164 37.8653 80.1917 37.7265 80.2736C37.5878 80.3554 37.4994 80.4401 37.4726 80.5172C37.0126 81.9239 37.4559 82.9905 38.8026 83.7172Z" stroke="#ACCED0" stroke-width="2"/>
<path d="M224.062 2.12745C232.332 8.09745 221.732 26.5774 217.142 32.3674C210.822 40.3374 204.412 46.6274 205.632 56.5874C205.892 58.7208 207.309 62.3808 209.882 67.5675C221.382 90.7975 225.972 111.437 223.742 137.297C223.182 143.767 223.012 147.427 219.762 152.017C218.702 153.511 217.329 153.901 215.642 153.187C213.909 152.454 212.255 151.404 210.682 150.037C192.502 134.264 175.855 117.007 160.742 98.2675C154.835 90.9408 148.115 90.3041 140.582 96.3575C126.872 107.347 115.542 121.807 104.182 135.137C103.182 136.317 99.8821 138.257 98.0821 138.317C92.2221 138.527 91.5721 126.137 91.3221 120.407C90.8021 108.647 91.7721 94.2974 82.4221 85.4374C72.8321 76.3474 61.9121 81.3875 52.9521 87.5075C41.3421 95.4475 26.6321 100.127 13.5221 105.667C10.5321 106.927 -2.60791 110.657 1.95209 102.467C11.7421 84.8774 22.0121 64.8474 33.4321 45.9274C45.1521 26.5174 58.2621 14.8274 82.1221 12.3374C98.7354 10.6041 115.029 11.0375 131.002 13.6375C146.502 16.1575 161.252 24.5574 177.132 21.0274C192.672 17.5674 203.842 3.70744 219.642 1.08744C221.262 0.820777 222.735 1.16745 224.062 2.12745ZM177.362 51.2675C180.702 54.4075 184.962 57.2575 187.222 60.5075C192.452 68.0575 195.582 76.9575 195.532 85.6075C195.525 85.9408 195.575 85.9474 195.682 85.6274C198.382 77.2874 195.632 72.0575 192.752 64.4775C190.692 59.0675 186.442 55.4874 181.982 52.1474C179.392 50.2074 177.222 47.0574 180.482 44.6174C181.195 44.0908 182.845 43.6008 185.432 43.1474C194.232 41.6274 199.302 33.8475 203.552 27.6275C206.142 23.8275 209.072 21.5974 212.612 19.0574C213.852 18.1708 213.772 17.8541 212.372 18.1075C202.882 19.8175 199.402 28.7875 193.702 35.1675C190.482 38.7675 185.912 39.4275 181.672 40.7275C178.452 41.7275 172.972 45.3375 175.702 49.3275C176.182 50.0341 176.735 50.6808 177.362 51.2675ZM70.8121 24.4274C66.9121 24.1608 63.9321 25.7308 61.8721 29.1375C53.8621 28.9975 46.4321 42.7175 44.1621 49.0375C43.8421 49.9175 43.7021 50.8241 43.7421 51.7575C43.7954 52.8375 44.1987 53.2608 44.9521 53.0274C45.0855 52.9866 45.2122 52.9046 45.3217 52.7882C45.4312 52.6717 45.5204 52.5241 45.5821 52.3575C48.9421 43.2875 52.2221 37.6374 59.2521 31.8674C59.5054 31.6608 59.6587 31.7175 59.7121 32.0375C60.7121 38.0875 65.5021 41.3975 71.5221 39.8775C82.0121 37.2375 82.5421 20.2274 70.8121 24.4274ZM108.342 40.6075C104.855 41.4741 102.579 43.4508 101.512 46.5375C101.005 47.9908 101.119 49.4941 101.852 51.0475C106.902 61.7275 120.722 62.3475 126.862 52.2375C128.255 49.9375 128.675 47.5775 128.122 45.1575C127.142 40.8975 124.075 38.7074 118.922 38.5874C114.869 37.5541 111.342 38.2275 108.342 40.6075ZM38.8021 83.7174C39.7421 84.2241 40.8654 84.3274 42.1721 84.0274C47.9821 82.6974 51.5421 80.6775 57.1821 76.7975C62.0821 73.4275 69.1021 68.8975 75.1821 69.2275C83.6521 69.6975 93.0621 74.1174 96.9721 82.1174C98.8721 86.0041 101.182 89.8441 103.902 93.6375C105.009 95.1775 106.509 95.9241 108.402 95.8774C122.342 95.5574 141.152 60.6274 154.452 73.2774C157.092 75.7908 160.379 79.9108 164.312 85.6375C176.072 102.747 190.092 117.217 205.882 130.647C207.002 131.597 209.052 133.397 209.652 131.277C209.992 130.057 209.705 129.007 208.792 128.127C198.625 118.227 188.892 107.977 179.592 97.3774C175.002 92.1474 168.832 82.5275 161.532 74.2875C150.292 61.6075 142.492 64.4175 130.932 74.4175C126.352 78.3708 121.785 82.3341 117.232 86.3074C104.582 97.3374 104.032 80.9575 98.2821 74.9475C85.0421 61.1375 70.7021 61.4174 55.7221 71.8774C50.4087 75.5975 44.5854 78.3241 38.2521 80.0574C38.0478 80.1167 37.8648 80.192 37.726 80.2738C37.5873 80.3557 37.4989 80.4404 37.4721 80.5175C37.0121 81.9241 37.4554 82.9908 38.8021 83.7174Z" fill="#599DA4"/>
<path d="M177.36 51.2679C176.733 50.6812 176.18 50.0345 175.7 49.3279C172.97 45.3379 178.45 41.7279 181.67 40.7279C185.91 39.4279 190.48 38.7679 193.7 35.1679C199.4 28.7879 202.88 19.8179 212.37 18.1079C213.77 17.8546 213.85 18.1712 212.61 19.0579C209.07 21.5979 206.14 23.8279 203.55 27.6279C199.3 33.8479 194.23 41.6279 185.43 43.1479C182.843 43.6012 181.193 44.0912 180.48 44.6179C177.22 47.0579 179.39 50.2079 181.98 52.1479C186.44 55.4879 190.69 59.0679 192.75 64.4779C195.63 72.0579 198.38 77.2879 195.68 85.6279C195.573 85.9479 195.523 85.9412 195.53 85.6079C195.58 76.9579 192.45 68.0579 187.22 60.5079C184.96 57.2579 180.7 54.4079 177.36 51.2679Z" fill="#F8FEFF"/>
<path d="M61.871 29.1377C64.601 40.7977 81.401 33.3276 70.811 24.4276C82.541 20.2276 82.011 37.2377 71.521 39.8777C65.501 41.3977 60.711 38.0877 59.711 32.0377C59.6577 31.7177 59.5044 31.661 59.251 31.8677C52.221 37.6377 48.941 43.2877 45.581 52.3577C45.5194 52.5243 45.4301 52.6719 45.3206 52.7884C45.2111 52.9048 45.0845 52.9868 44.951 53.0277C44.1977 53.261 43.7944 52.8377 43.741 51.7577C43.701 50.8243 43.841 49.9177 44.161 49.0377C46.431 42.7177 53.861 28.9977 61.871 29.1377Z" fill="#FEFEFC"/>
<path d="M70.8111 24.4275C81.4011 33.3275 64.6011 40.7975 61.8711 29.1375C63.9311 25.7308 66.9111 24.1608 70.8111 24.4275Z" fill="#1A1526"/>
<path d="M118.92 38.5874C133.59 54.5274 99.31 61.0374 108.34 40.6074C111.34 38.2274 114.867 37.5541 118.92 38.5874Z" fill="#1A1526"/>
<path d="M108.34 40.6079C99.3098 61.0379 133.59 54.5279 118.92 38.5879C124.073 38.7079 127.14 40.8979 128.12 45.1579C128.673 47.5779 128.253 49.9379 126.86 52.2379C120.72 62.3479 106.9 61.7279 101.85 51.0479C101.116 49.4946 101.003 47.9912 101.51 46.5379C102.576 43.4512 104.853 41.4746 108.34 40.6079Z" fill="#FEFEFC"/>
<path d="M38.8026 83.7177C37.4559 82.991 37.0126 81.9243 37.4726 80.5177C37.4994 80.4406 37.5878 80.3559 37.7265 80.2741C37.8653 80.1922 38.0483 80.1169 38.2526 80.0577C44.5859 78.3243 50.4092 75.5977 55.7226 71.8777C70.7026 61.4177 85.0426 61.1377 98.2826 74.9477C104.033 80.9577 104.583 97.3377 117.233 86.3077C121.786 82.3343 126.353 78.371 130.933 74.4177C142.493 64.4177 150.293 61.6077 161.533 74.2877C168.833 82.5277 175.003 92.1477 179.593 97.3777C188.893 107.978 198.626 118.228 208.793 128.128C209.706 129.008 209.993 130.058 209.653 131.278C209.053 133.398 207.003 131.598 205.883 130.648C190.093 117.218 176.073 102.748 164.313 85.6377C160.379 79.911 157.093 75.791 154.453 73.2777C141.153 60.6277 122.343 95.5577 108.403 95.8777C106.509 95.9243 105.009 95.1777 103.903 93.6377C101.183 89.8443 98.8726 86.0043 96.9726 82.1176C93.0626 74.1176 83.6526 69.6977 75.1826 69.2277C69.1026 68.8977 62.0826 73.4277 57.1826 76.7977C51.5426 80.6777 47.9826 82.6977 42.1726 84.0277C40.8659 84.3277 39.7426 84.2243 38.8026 83.7177Z" fill="#FEFEFC"/>
</svg>
