<svg width="132" height="129" viewBox="0 0 132 129" fill="none" xmlns="http://www.w3.org/2000/svg">
<path d="M10.3389 8.54211C-10.7011 15.3921 9.51888 50.0221 15.6789 60.4421C23.8689 74.3221 18.0689 84.3121 14.5489 98.0121C12.4989 105.972 10.9989 128.182 24.5989 127.562C28.7656 127.375 32.5589 126.095 35.9789 123.722C42.9189 118.909 49.8522 114.082 56.7789 109.242C72.0689 98.5621 80.8789 104.542 94.6789 112.912C104.532 118.892 115.109 120.372 126.409 117.352C127.816 116.979 128.979 116.015 129.899 114.462C130.055 114.201 130.129 113.88 130.109 113.542C129.869 109.392 130.379 104.892 128.689 101.122C124.489 91.7221 116.429 83.6121 110.289 75.3821C104.799 68.0221 102.429 64.3121 108.489 55.6221C116.899 43.5521 128.919 27.9221 125.999 11.9221C124.779 5.26211 123.319 0.172109 115.409 1.11211C107.162 2.09878 99.5655 4.34544 92.6189 7.85211C77.2189 15.6321 56.6889 27.6721 39.5989 17.0821C30.8089 11.6421 21.2789 4.98211 10.3389 8.54211Z" stroke="#8B8EA0" stroke-width="2"/>
<path d="M65.6084 51.1299C66.2585 50.9435 66.798 50.472 67.1083 49.8192C67.4186 49.1664 67.4742 48.3858 67.263 47.649C67.0517 46.9122 66.5908 46.2797 65.9817 45.8905C65.3726 45.5014 64.6653 45.3875 64.0152 45.5739C63.3651 45.7603 62.8255 46.2318 62.5152 46.8846C62.2049 47.5373 62.1493 48.318 62.3606 49.0548C62.5718 49.7915 63.0327 50.4241 63.6418 50.8132C64.2509 51.2024 64.9583 51.3163 65.6084 51.1299Z" stroke="#6E4F79" stroke-width="2"/>
<path d="M81.6309 53.712C81.6309 53.0595 81.3717 52.4338 80.9104 51.9725C80.4491 51.5111 79.8234 51.252 79.171 51.252C78.5185 51.252 77.8928 51.5111 77.4315 51.9725C76.9701 52.4338 76.7109 53.0595 76.7109 53.712C76.7109 54.3644 76.9701 54.9901 77.4315 55.4514C77.8928 55.9128 78.5185 56.172 79.171 56.172C79.8234 56.172 80.4491 55.9128 80.9104 55.4514C81.3717 54.9901 81.6309 54.3644 81.6309 53.712Z" stroke="#6E4F79" stroke-width="2"/>
<path d="M54.6938 59.83C55.0115 59.7792 55.3123 59.6427 55.579 59.4285C55.8458 59.2142 56.0732 58.9264 56.2483 58.5814C56.4235 58.2364 56.5429 57.8411 56.5998 57.4179C56.6567 56.9947 56.65 56.5519 56.58 56.1149C56.51 55.6779 56.3781 55.2553 56.1919 54.871C56.0056 54.4868 55.7687 54.1485 55.4946 53.8754C55.2204 53.6024 54.9145 53.4 54.5942 53.2798C54.2739 53.1596 53.9455 53.1239 53.6278 53.1748C53.3101 53.2257 53.0093 53.3622 52.7426 53.5764C52.4759 53.7906 52.2484 54.0785 52.0733 54.4235C51.8981 54.7684 51.7787 55.1638 51.7218 55.587C51.6649 56.0102 51.6716 56.4529 51.7416 56.8899C51.8116 57.3269 51.9435 57.7496 52.1297 58.1339C52.316 58.5181 52.5529 58.8564 52.8271 59.1294C53.1012 59.4024 53.4072 59.6048 53.7275 59.725C54.0478 59.8452 54.3761 59.8809 54.6938 59.83Z" stroke="#6E4F79" stroke-width="2"/>
<path d="M66.2962 64.9984C66.9825 64.8896 67.5831 64.4222 67.966 63.6989C68.3489 62.9756 68.4827 62.0557 68.3379 61.1415C68.193 60.2273 67.7816 59.3937 67.1939 58.8241C66.6062 58.2546 65.8905 57.9957 65.2042 58.1044C64.5179 58.2131 63.9172 58.6805 63.5343 59.4038C63.1514 60.1271 63.0176 61.0471 63.1624 61.9613C63.3073 62.8755 63.7188 63.709 64.3065 64.2786C64.8942 64.8482 65.6099 65.1071 66.2962 64.9984Z" stroke="#78547F" stroke-width="2"/>
<path d="M69.5497 76.0203C70.4944 76.4669 71.608 76.456 72.6455 75.9902C73.683 75.5244 74.5594 74.6417 75.0819 73.5363C75.3406 72.989 75.5047 72.4035 75.5647 71.8132C75.6247 71.2229 75.5795 70.6394 75.4317 70.096C75.2839 69.5527 75.0363 69.06 74.7031 68.6463C74.3699 68.2326 73.9577 67.9058 73.4899 67.6847C72.5452 67.2381 71.4316 67.249 70.3941 67.7148C69.3566 68.1806 68.4803 69.0633 67.9577 70.1687C67.699 70.716 67.535 71.3015 67.475 71.8918C67.4149 72.4821 67.4601 73.0656 67.608 73.609C67.7558 74.1523 68.0034 74.645 68.3365 75.0587C68.6697 75.4724 69.0819 75.7992 69.5497 76.0203Z" stroke="#78547F" stroke-width="2"/>
<path d="M55.8333 75.8652C56.5614 75.9071 57.2827 75.5498 57.8383 74.8718C58.394 74.1938 58.7386 73.2506 58.7963 72.2498C58.854 71.2489 58.6201 70.2724 58.146 69.535C57.672 68.7976 56.9966 68.3598 56.2685 68.3178C55.5404 68.2758 54.8191 68.6331 54.2634 69.3111C53.7078 69.9892 53.3632 70.9323 53.3055 71.9332C53.2478 72.934 53.4817 73.9105 53.9558 74.6479C54.4298 75.3853 55.1051 75.8232 55.8333 75.8652Z" stroke="#6E4F79" stroke-width="2"/>
<path d="M15.6828 60.4421C9.52278 50.0221 -10.6972 15.3921 10.3428 8.54211C21.2828 4.98211 30.8128 11.6421 39.6028 17.0821C56.6928 27.6721 77.2228 15.6321 92.6228 7.85211C99.5695 4.34544 107.166 2.09878 115.413 1.11211C123.323 0.172109 124.783 5.26211 126.003 11.9221C128.923 27.9221 116.903 43.5521 108.493 55.6221C102.433 64.3121 104.803 68.0221 110.293 75.3821C116.433 83.6121 124.493 91.7221 128.693 101.122C130.383 104.892 129.873 109.392 130.113 113.542C130.133 113.88 130.059 114.201 129.903 114.462C128.983 116.015 127.819 116.979 126.413 117.352C115.113 120.372 104.536 118.892 94.6828 112.912C80.8828 104.542 72.0728 98.5621 56.7828 109.242C49.8562 114.082 42.9228 118.909 35.9828 123.722C32.5628 126.095 28.7695 127.375 24.6028 127.562C11.0028 128.182 12.5028 105.972 14.5528 98.0121C18.0728 84.3121 23.8728 74.3221 15.6828 60.4421ZM65.6094 51.1301C66.2595 50.9437 66.7991 50.4722 67.1094 49.8194C67.4197 49.1666 67.4753 48.386 67.264 47.6492C67.0527 46.9124 66.5919 46.2799 65.9828 45.8908C65.3737 45.5016 64.6663 45.3877 64.0162 45.5741C63.3661 45.7605 62.8266 46.232 62.5163 46.8848C62.206 47.5376 62.1504 48.3182 62.3616 49.055C62.5729 49.7918 63.0338 50.4243 63.6429 50.8135C64.2519 51.2026 64.9593 51.3165 65.6094 51.1301ZM81.6328 53.7121C81.6328 53.0597 81.3736 52.434 80.9123 51.9726C80.4509 51.5113 79.8253 51.2521 79.1728 51.2521C78.5204 51.2521 77.8947 51.5113 77.4333 51.9726C76.972 52.434 76.7128 53.0597 76.7128 53.7121C76.7128 54.3645 76.972 54.9902 77.4333 55.4516C77.8947 55.9129 78.5204 56.1721 79.1728 56.1721C79.8253 56.1721 80.4509 55.9129 80.9123 55.4516C81.3736 54.9902 81.6328 54.3645 81.6328 53.7121ZM54.6958 59.8297C55.0135 59.7788 55.3143 59.6424 55.581 59.4281C55.8478 59.2139 56.0752 58.9261 56.2504 58.5811C56.4255 58.2361 56.5449 57.8407 56.6019 57.4175C56.6588 56.9943 56.652 56.5516 56.582 56.1146C56.512 55.6776 56.3801 55.2549 56.1939 54.8707C56.0077 54.4864 55.7707 54.1481 55.4966 53.8751C55.2224 53.6021 54.9165 53.3997 54.5962 53.2795C54.2759 53.1593 53.9475 53.1236 53.6298 53.1745C53.3121 53.2254 53.0113 53.3618 52.7446 53.5761C52.4779 53.7903 52.2505 54.0782 52.0753 54.4231C51.9002 54.7681 51.7807 55.1635 51.7238 55.5867C51.6669 56.0099 51.6736 56.4526 51.7436 56.8896C51.8136 57.3266 51.9455 57.7493 52.1318 58.1335C52.318 58.5178 52.5549 58.8561 52.8291 59.1291C53.1032 59.4021 53.4092 59.6045 53.7295 59.7247C54.0498 59.8449 54.3781 59.8806 54.6958 59.8297ZM66.2988 64.9991C66.9851 64.8904 67.5858 64.4229 67.9687 63.6996C68.3516 62.9763 68.4853 62.0564 68.3405 61.1422C68.1957 60.228 67.7842 59.3944 67.1965 58.8249C66.6088 58.2553 65.8931 57.9964 65.2068 58.1051C64.5205 58.2138 63.9199 58.6813 63.537 59.4046C63.1541 60.1279 63.0203 61.0478 63.1651 61.962C63.3099 62.8762 63.7214 63.7098 64.3091 64.2793C64.8968 64.8489 65.6125 65.1078 66.2988 64.9991ZM69.5527 76.0199C70.4974 76.4665 71.611 76.4557 72.6485 75.9898C73.686 75.524 74.5624 74.6413 75.0849 73.5359C75.3436 72.9886 75.5077 72.4031 75.5677 71.8128C75.6277 71.2225 75.5825 70.639 75.4347 70.0956C75.2868 69.5523 75.0393 69.0596 74.7061 68.6459C74.3729 68.2322 73.9607 67.9054 73.4929 67.6843C72.5482 67.2377 71.4346 67.2486 70.3971 67.7144C69.3596 68.1802 68.4833 69.0629 67.9607 70.1683C67.702 70.7156 67.538 71.3012 67.478 71.8914C67.4179 72.4817 67.4631 73.0652 67.6109 73.6086C67.7588 74.1519 68.0064 74.6446 68.3395 75.0583C68.6727 75.472 69.0849 75.7988 69.5527 76.0199ZM55.8352 75.8658C56.5633 75.9078 57.2846 75.5505 57.8403 74.8724C58.3959 74.1944 58.7405 73.2512 58.7982 72.2504C58.8559 71.2496 58.622 70.273 58.1479 69.5357C57.6739 68.7983 56.9986 68.3604 56.2704 68.3184C55.5423 68.2764 54.821 68.6338 54.2654 69.3118C53.7097 69.9898 53.3651 70.933 53.3074 71.9338C53.2497 72.9346 53.4836 73.9112 53.9577 74.6486C54.4317 75.3859 55.1071 75.8238 55.8352 75.8658Z" fill="#181D42"/>
<path d="M65.6084 51.1299C64.9583 51.3163 64.2509 51.2024 63.6418 50.8132C63.0327 50.4241 62.5718 49.7915 62.3606 49.0548C62.1493 48.318 62.2049 47.5373 62.5152 46.8846C62.8255 46.2318 63.3651 45.7603 64.0152 45.5739C64.6653 45.3875 65.3726 45.5014 65.9817 45.8905C66.5908 46.2797 67.0517 46.9122 67.263 47.649C67.4742 48.3858 67.4186 49.1664 67.1083 49.8192C66.798 50.472 66.2585 50.9435 65.6084 51.1299Z" fill="#C381B0"/>
<path d="M81.6309 53.712C81.6309 54.3644 81.3717 54.9901 80.9104 55.4514C80.4491 55.9128 79.8234 56.172 79.171 56.172C78.5185 56.172 77.8928 55.9128 77.4315 55.4514C76.9701 54.9901 76.7109 54.3644 76.7109 53.712C76.7109 53.0595 76.9701 52.4338 77.4315 51.9725C77.8928 51.5111 78.5185 51.252 79.171 51.252C79.8234 51.252 80.4491 51.5111 80.9104 51.9725C81.3717 52.4338 81.6309 53.0595 81.6309 53.712Z" fill="#C381B0"/>
<path d="M54.6938 59.8291C54.3761 59.88 54.0478 59.8443 53.7275 59.7241C53.4072 59.6039 53.1012 59.4015 52.8271 59.1284C52.5529 58.8554 52.316 58.5171 52.1297 58.1329C51.9435 57.7486 51.8116 57.3259 51.7416 56.889C51.6716 56.452 51.6649 56.0092 51.7218 55.586C51.7787 55.1628 51.8981 54.7675 52.0733 54.4225C52.2484 54.0775 52.4759 53.7897 52.7426 53.5754C53.0093 53.3612 53.3101 53.2247 53.6278 53.1739C53.9455 53.123 54.2739 53.1586 54.5942 53.2788C54.9145 53.3991 55.2204 53.6015 55.4946 53.8745C55.7687 54.1475 56.0056 54.4858 56.1919 54.87C56.3781 55.2543 56.51 55.677 56.58 56.114C56.65 56.5509 56.6567 56.9937 56.5998 57.4169C56.5429 57.8401 56.4235 58.2355 56.2483 58.5804C56.0732 58.9254 55.8458 59.2132 55.579 59.4275C55.3123 59.6417 55.0115 59.7782 54.6938 59.8291Z" fill="#C381B0"/>
<path d="M66.2962 64.9994C65.6099 65.1081 64.8942 64.8491 64.3065 64.2796C63.7188 63.71 63.3073 62.8765 63.1624 61.9623C63.0176 61.0481 63.1514 60.1281 63.5343 59.4048C63.9172 58.6815 64.5179 58.2141 65.2042 58.1053C65.8905 57.9966 66.6062 58.2556 67.1939 58.8251C67.7816 59.3947 68.193 60.2283 68.3379 61.1425C68.4827 62.0566 68.3489 62.9766 67.966 63.6999C67.5831 64.4232 66.9825 64.8906 66.2962 64.9994Z" fill="#D78BBC"/>
<path d="M69.5497 76.0193C69.0819 75.7982 68.6697 75.4715 68.3365 75.0577C68.0034 74.644 67.7558 74.1514 67.608 73.608C67.4601 73.0646 67.4149 72.4811 67.475 71.8909C67.535 71.3006 67.699 70.7151 67.9577 70.1677C68.4803 69.0624 69.3566 68.1797 70.3941 67.7138C71.4316 67.248 72.5452 67.2372 73.4899 67.6837C73.9577 67.9048 74.3699 68.2316 74.7031 68.6453C75.0363 69.0591 75.2839 69.5517 75.4317 70.0951C75.5795 70.6384 75.6247 71.2219 75.5647 71.8122C75.5047 72.4025 75.3406 72.988 75.0819 73.5353C74.5594 74.6407 73.683 75.5234 72.6455 75.9892C71.608 76.4551 70.4944 76.4659 69.5497 76.0193Z" fill="#D78BBC"/>
<path d="M55.8333 75.8652C55.1051 75.8232 54.4298 75.3853 53.9558 74.6479C53.4817 73.9105 53.2478 72.934 53.3055 71.9332C53.3632 70.9323 53.7078 69.9892 54.2634 69.3111C54.8191 68.6331 55.5404 68.2758 56.2685 68.3178C56.9966 68.3598 57.672 68.7976 58.146 69.535C58.6201 70.2724 58.854 71.2489 58.7963 72.2498C58.7386 73.2506 58.394 74.1938 57.8383 74.8718C57.2827 75.5498 56.5614 75.9071 55.8333 75.8652Z" fill="#C381B0"/>
</svg>
