<svg width="61" height="204" viewBox="0 0 61 204" fill="none" xmlns="http://www.w3.org/2000/svg">
<path d="M46.3188 43.5551C42.4188 29.6751 38.0955 15.9184 33.3488 2.28508C32.7488 0.558409 32.2554 0.571744 31.8688 2.32508C30.2088 9.81174 28.3922 17.2617 26.4188 24.6751C24.6122 31.4284 23.0221 36.0384 21.6488 38.5051C12.2021 55.4051 5.37215 73.3084 1.15882 92.2151C0.298821 96.0751 3.08878 95.7751 5.73878 95.9851C23.4688 97.3551 41.0288 99.6051 58.8088 100.155C59.0628 100.163 59.3098 100.071 59.4968 99.8994C59.6838 99.7274 59.7958 99.4889 59.8088 99.2351C60.5188 83.2351 56.7488 69.5451 50.4488 55.0551C48.7555 51.1617 47.3788 47.3284 46.3188 43.5551Z" stroke="#FED594" stroke-width="2"/>
<path d="M12.9291 201.055C25.7591 175.505 42.2091 152.375 56.3191 127.545C56.3481 127.494 56.3663 127.437 56.3724 127.378C56.3785 127.32 56.3725 127.26 56.3547 127.204C56.3368 127.148 56.3076 127.096 56.2688 127.051C56.23 127.007 56.1824 126.971 56.1291 126.945C47.7557 122.925 39.1024 120.475 30.1691 119.595C23.0291 118.885 14.0191 119.695 6.02909 119.835C5.93758 119.836 5.84726 119.856 5.76371 119.894C5.68016 119.931 5.60515 119.985 5.54331 120.053C5.48147 120.12 5.43412 120.199 5.40415 120.286C5.37419 120.372 5.36222 120.464 5.36906 120.555C6.15906 131.885 6.95907 141.495 8.37907 154.355C10.0991 169.975 10.3391 185.575 11.4291 200.765C11.5691 202.672 12.0691 202.769 12.9291 201.055Z" stroke="#FED594" stroke-width="2"/>
<path d="M34.461 21.265C32.131 17.855 29.141 26.235 33.961 23.485C34.1459 23.3779 34.3067 23.2337 34.4332 23.0615C34.5597 22.8892 34.6493 22.6927 34.6963 22.4843C34.7432 22.2758 34.7465 22.0598 34.706 21.85C34.6656 21.6402 34.5821 21.441 34.461 21.265Z" stroke="#88571B" stroke-width="2"/>
<path d="M32.5807 34.8705C32.522 34.4958 32.2878 34.1644 31.9295 33.949C31.5712 33.7337 31.1182 33.6522 30.6701 33.7223C30.4483 33.757 30.2343 33.828 30.0404 33.9311C29.8466 34.0342 29.6767 34.1674 29.5403 34.3232C29.404 34.4789 29.3039 34.6542 29.2458 34.8389C29.1878 35.0236 29.1729 35.2142 29.2019 35.3997C29.2606 35.7744 29.4949 36.1058 29.8532 36.3212C30.2115 36.5365 30.6645 36.6181 31.1125 36.5479C31.3344 36.5132 31.5484 36.4422 31.7422 36.3391C31.9361 36.236 32.106 36.1028 32.2423 35.947C32.3787 35.7913 32.4788 35.616 32.5368 35.4313C32.5949 35.2466 32.6098 35.056 32.5807 34.8705Z" stroke="#88571B" stroke-width="2"/>
<path d="M35.9213 35.5653C35.8838 35.6402 35.8616 35.722 35.8566 35.8051C35.8515 35.8883 35.8636 35.971 35.892 36.0476C35.9204 36.1242 35.9645 36.1931 36.0213 36.2496C36.078 36.3061 36.1462 36.349 36.2213 36.3753C38.2013 37.0687 39.3313 36.552 39.6113 34.8253C39.6279 34.7147 39.631 34.603 39.6204 34.4968C39.6098 34.3906 39.5856 34.2919 39.5494 34.2064C39.5132 34.121 39.4655 34.0504 39.4092 33.9987C39.3529 33.947 39.2891 33.9153 39.2213 33.9053C37.6747 33.6853 36.5747 34.2387 35.9213 35.5653Z" stroke="#88571B" stroke-width="2"/>
<path d="M25.9521 47.0451C25.9726 47.2453 26.0776 47.4313 26.2472 47.5677C26.4168 47.7041 26.6392 47.7815 26.8721 47.7851C29.0721 47.8184 29.6621 46.9117 28.6421 45.0651C28.5348 44.8739 28.4007 44.713 28.2589 44.6052C28.117 44.4975 27.9747 44.4485 27.8521 44.4651C26.4321 44.6518 25.7988 45.5118 25.9521 47.0451Z" stroke="#88571B" stroke-width="2"/>
<path d="M38.6921 46.0363C38.5693 45.6163 38.2574 45.2703 37.8249 45.0743C37.3925 44.8784 36.8749 44.8486 36.3862 44.9915C36.1442 45.0623 35.9165 45.1733 35.7162 45.3183C35.5159 45.4633 35.3469 45.6393 35.2188 45.8364C35.0907 46.0335 35.006 46.2478 34.9696 46.467C34.9332 46.6863 34.9457 46.9061 35.0065 47.1141C35.1293 47.5341 35.4413 47.8802 35.8737 48.0761C36.3061 48.272 36.8237 48.3018 37.3124 48.1589C37.5544 48.0881 37.7821 47.9771 37.9824 47.8321C38.1827 47.6872 38.3517 47.5111 38.4798 47.314C38.6079 47.1169 38.6927 46.9026 38.7291 46.6834C38.7655 46.4642 38.7529 46.2443 38.6921 46.0363Z" stroke="#88571B" stroke-width="2"/>
<path d="M29.7786 59.4752C29.7786 58.9819 29.5826 58.5088 29.2338 58.16C28.885 57.8112 28.4119 57.6152 27.9186 57.6152C27.4253 57.6152 26.9522 57.8112 26.6034 58.16C26.2546 58.5088 26.0586 58.9819 26.0586 59.4752C26.0586 59.9685 26.2546 60.4416 26.6034 60.7905C26.9522 61.1393 27.4253 61.3352 27.9186 61.3352C28.4119 61.3352 28.885 61.1393 29.2338 60.7905C29.5826 60.4416 29.7786 59.9685 29.7786 59.4752Z" stroke="#88571B" stroke-width="2"/>
<path d="M38.33 60.4952C38.3719 60.2995 38.3716 60.097 38.3292 59.9014C38.2868 59.7058 38.2031 59.5214 38.0839 59.3606C37.9648 59.1998 37.8127 59.0662 37.6378 58.9687C37.463 58.8712 37.2694 58.8121 37.07 58.7952C31.34 58.3052 37.12 66.1252 38.33 60.4952Z" stroke="#88571B" stroke-width="2"/>
<path d="M18.5916 73.6153C16.1816 70.7853 13.1816 77.7753 17.5816 76.0353C19.115 75.4353 19.4516 74.6286 18.5916 73.6153Z" stroke="#88571B" stroke-width="2"/>
<path d="M31.0396 76.3352C31.0396 75.8684 30.8541 75.4207 30.524 75.0907C30.194 74.7606 29.7463 74.5752 29.2795 74.5752C28.8128 74.5752 28.3651 74.7606 28.035 75.0907C27.705 75.4207 27.5195 75.8684 27.5195 76.3352C27.5195 76.802 27.705 77.2496 28.035 77.5797C28.3651 77.9098 28.8128 78.0952 29.2795 78.0952C29.7463 78.0952 30.194 77.9098 30.524 77.5797C30.8541 77.2496 31.0396 76.802 31.0396 76.3352Z" stroke="#955D1C" stroke-width="2"/>
<path d="M36.6418 76.5651L37.0618 78.3451C37.0889 78.4643 37.1928 78.5738 37.3564 78.6556C37.52 78.7374 37.7335 78.7866 37.9618 78.7951C40.5118 78.8951 42.9019 73.8651 37.7319 75.4451C37.3902 75.5494 37.0863 75.724 36.8834 75.9325C36.6804 76.1411 36.5939 76.3676 36.6418 76.5651Z" stroke="#955D1C" stroke-width="2"/>
<path d="M30.2143 130.02C30.1127 129.836 29.9642 129.681 29.7771 129.562C29.59 129.444 29.368 129.365 29.1239 129.33C28.8797 129.295 28.6181 129.305 28.3541 129.359C28.0901 129.413 27.8287 129.51 27.585 129.644C27.0928 129.916 26.7022 130.324 26.4991 130.779C26.2961 131.234 26.2972 131.698 26.5023 132.07C26.6038 132.254 26.7524 132.409 26.9395 132.528C27.1266 132.646 27.3485 132.725 27.5927 132.76C27.8368 132.795 28.0984 132.785 28.3625 132.731C28.6265 132.677 28.8878 132.58 29.1316 132.446C29.6238 132.174 30.0144 131.766 30.2174 131.311C30.4205 130.856 30.4194 130.392 30.2143 130.02Z" stroke="#955D1C" stroke-width="2"/>
<path d="M16.8289 131.465C16.77 131.643 16.7419 131.831 16.7466 132.014C16.7512 132.197 16.7885 132.373 16.8558 132.528C16.9232 132.684 17.019 132.816 17.1368 132.915C17.2547 133.015 17.3919 133.08 17.5389 133.105C19.8323 133.525 20.7456 132.649 20.2789 130.475C20.2378 130.295 20.1526 130.133 20.0348 130.009C19.917 129.886 19.772 129.808 19.6189 129.785C18.2056 129.572 17.2756 130.132 16.8289 131.465Z" stroke="#955D1C" stroke-width="2"/>
<path d="M34.2495 133.085C34.2063 133.152 34.1766 133.227 34.1622 133.305C34.1479 133.383 34.1492 133.463 34.1659 133.541C34.1827 133.618 34.2147 133.691 34.2599 133.755C34.3052 133.819 34.3628 133.874 34.4295 133.915C40.9395 137.945 39.5895 124.845 34.2495 133.085Z" stroke="#955D1C" stroke-width="2"/>
<path d="M17.3117 147.503C17.5064 147.625 17.7353 147.688 17.9854 147.689C18.2355 147.69 18.5018 147.629 18.7693 147.508C19.0367 147.387 19.3 147.21 19.544 146.987C19.7881 146.763 20.0082 146.498 20.1917 146.205C20.5624 145.614 20.7617 144.949 20.7458 144.357C20.7298 143.765 20.5 143.294 20.1068 143.047C19.9122 142.925 19.6832 142.862 19.4331 142.861C19.183 142.86 18.9166 142.922 18.6492 143.042C18.3818 143.163 18.1185 143.34 17.8744 143.563C17.6304 143.787 17.4103 144.053 17.2268 144.345C16.8561 144.936 16.6568 145.601 16.6728 146.193C16.6887 146.785 16.9185 147.256 17.3117 147.503Z" stroke="#955D1C" stroke-width="2"/>
<path d="M28.7078 144.753C28.4114 144.417 27.962 144.24 27.4584 144.262C26.9549 144.283 26.4383 144.501 26.0225 144.867C25.6067 145.234 25.3257 145.719 25.2413 146.216C25.1569 146.713 25.2761 147.181 25.5725 147.517C25.8689 147.853 26.3183 148.03 26.8218 148.009C27.3254 147.987 27.842 147.769 28.2578 147.403C28.6735 147.036 28.9545 146.551 29.0389 146.054C29.1234 145.557 29.0042 145.089 28.7078 144.753Z" stroke="#9E601E" stroke-width="2"/>
<path d="M15.8104 159.705C11.3604 162.465 18.0404 163.695 17.2904 160.325C17.2568 160.171 17.1867 160.028 17.086 159.907C16.9852 159.786 16.8568 159.691 16.7116 159.63C16.5664 159.569 16.4087 159.545 16.2519 159.558C16.095 159.571 15.9435 159.621 15.8104 159.705Z" stroke="#88571B" stroke-width="2"/>
<path d="M23.0104 159.961C22.7676 159.697 22.3915 159.577 21.9648 159.627C21.5382 159.676 21.0959 159.89 20.7353 160.223C20.3747 160.556 20.1254 160.979 20.0421 161.401C19.9588 161.822 20.0484 162.207 20.2912 162.47C20.534 162.733 20.9101 162.853 21.3368 162.804C21.7634 162.755 22.2057 162.54 22.5663 162.207C22.9268 161.875 23.1762 161.451 23.2595 161.03C23.3428 160.608 23.2532 160.224 23.0104 159.961Z" stroke="#88571B" stroke-width="2"/>
<path d="M15.494 173.213C15.7386 173.425 16.0897 173.493 16.4701 173.403C16.8505 173.314 17.2291 173.073 17.5226 172.734C17.6679 172.566 17.7879 172.38 17.8759 172.184C17.9638 171.989 18.0178 171.79 18.035 171.597C18.0521 171.404 18.0319 171.222 17.9756 171.061C17.9194 170.9 17.8281 170.763 17.707 170.658C17.4625 170.446 17.1113 170.377 16.7309 170.467C16.3505 170.557 15.9719 170.798 15.6784 171.136C15.5331 171.304 15.413 171.491 15.3251 171.686C15.2372 171.881 15.1832 172.081 15.1661 172.274C15.149 172.466 15.1691 172.649 15.2253 172.81C15.2816 172.971 15.3729 173.108 15.494 173.213Z" stroke="#88571B" stroke-width="2"/>
<path d="M50.4488 55.0556C56.7488 69.5456 60.5188 83.2356 59.8088 99.2356C59.7958 99.4893 59.6838 99.7279 59.4968 99.8999C59.3098 100.072 59.0628 100.164 58.8088 100.156C41.0288 99.6056 23.4688 97.3556 5.73878 95.9856C3.08878 95.7756 0.298821 96.0756 1.15882 92.2156C5.37215 73.3089 12.2021 55.4056 21.6488 38.5056C23.0221 36.0389 24.6122 31.4289 26.4188 24.6756C28.3922 17.2622 30.2088 9.81223 31.8688 2.32557C32.2554 0.572232 32.7488 0.558898 33.3488 2.28556C38.0955 15.9189 42.4188 29.6756 46.3188 43.5556C47.3788 47.3289 48.7555 51.1622 50.4488 55.0556ZM34.4588 21.2656C32.1288 17.8556 29.1388 26.2356 33.9588 23.4856C34.1437 23.3785 34.3045 23.2343 34.431 23.0621C34.5576 22.8899 34.6471 22.6933 34.6941 22.4849C34.7411 22.2764 34.7444 22.0604 34.7039 21.8506C34.6634 21.6408 34.58 21.4416 34.4588 21.2656ZM32.5782 34.871C32.5195 34.4963 32.2853 34.1648 31.9269 33.9495C31.5686 33.7342 31.1157 33.6526 30.6676 33.7228C30.4457 33.7575 30.2318 33.8285 30.0379 33.9316C29.8441 34.0347 29.6741 34.1679 29.5378 34.3236C29.4015 34.4794 29.3013 34.6546 29.2433 34.8394C29.1852 35.0241 29.1703 35.2146 29.1994 35.4002C29.2581 35.7748 29.4923 36.1063 29.8507 36.3216C30.209 36.537 30.6619 36.6185 31.11 36.5484C31.3319 36.5136 31.5458 36.4427 31.7397 36.3396C31.9336 36.2365 32.1035 36.1032 32.2398 35.9475C32.3762 35.7917 32.4763 35.6165 32.5343 35.4318C32.5924 35.2471 32.6073 35.0565 32.5782 34.871ZM35.9188 35.5656C35.8812 35.6405 35.8591 35.7222 35.8541 35.8054C35.849 35.8885 35.8611 35.9712 35.8895 36.0478C35.9179 36.1245 35.962 36.1933 36.0187 36.2499C36.0755 36.3064 36.1437 36.3492 36.2188 36.3756C38.1988 37.0689 39.3288 36.5522 39.6088 34.8256C39.6254 34.7149 39.6285 34.6032 39.6179 34.497C39.6072 34.3908 39.5831 34.2921 39.5469 34.2067C39.5106 34.1212 39.463 34.0506 39.4067 33.9989C39.3504 33.9473 39.2866 33.9155 39.2188 33.9056C37.6722 33.6856 36.5722 34.2389 35.9188 35.5656ZM25.9488 47.0456C25.9693 47.2458 26.0743 47.4317 26.2439 47.5682C26.4135 47.7046 26.6359 47.782 26.8688 47.7856C29.0688 47.8189 29.6588 46.9122 28.6388 45.0656C28.5315 44.8744 28.3974 44.7135 28.2556 44.6057C28.1137 44.498 27.9714 44.4489 27.8488 44.4656C26.4288 44.6522 25.7955 45.5122 25.9488 47.0456ZM38.6916 46.0367C38.5688 45.6166 38.2568 45.2706 37.8244 45.0747C37.392 44.8787 36.8744 44.8489 36.3857 44.9919C36.1437 45.0626 35.916 45.1737 35.7157 45.3186C35.5154 45.4636 35.3464 45.6397 35.2183 45.8368C35.0902 46.0339 35.0055 46.2482 34.9691 46.4674C34.9326 46.6866 34.9452 46.9065 35.006 47.1145C35.1288 47.5345 35.4407 47.8805 35.8732 48.0765C36.3056 48.2724 36.8232 48.3022 37.3119 48.1593C37.5539 48.0885 37.7816 47.9774 37.9819 47.8325C38.1822 47.6875 38.3512 47.5115 38.4793 47.3144C38.6074 47.1172 38.6922 46.903 38.7286 46.6837C38.765 46.4645 38.7524 46.2446 38.6916 46.0367ZM29.7788 59.4756C29.7788 58.9823 29.5828 58.5092 29.234 58.1603C28.8852 57.8115 28.4121 57.6156 27.9188 57.6156C27.4255 57.6156 26.9524 57.8115 26.6036 58.1603C26.2548 58.5092 26.0588 58.9823 26.0588 59.4756C26.0588 59.9689 26.2548 60.442 26.6036 60.7908C26.9524 61.1396 27.4255 61.3356 27.9188 61.3356C28.4121 61.3356 28.8852 61.1396 29.234 60.7908C29.5828 60.442 29.7788 59.9689 29.7788 59.4756ZM38.3288 60.4956C38.3707 60.2998 38.3704 60.0974 38.328 59.9018C38.2856 59.7061 38.202 59.5218 38.0828 59.361C37.9636 59.2001 37.8115 59.0665 37.6367 58.9691C37.4618 58.8716 37.2683 58.8124 37.0688 58.7956C31.3388 58.3056 37.1188 66.1256 38.3288 60.4956ZM18.5888 73.6156C16.1788 70.7856 13.1788 77.7756 17.5788 76.0356C19.1121 75.4356 19.4488 74.6289 18.5888 73.6156ZM31.0388 76.3356C31.0388 75.8688 30.8534 75.4211 30.5233 75.0911C30.1933 74.761 29.7456 74.5756 29.2788 74.5756C28.812 74.5756 28.3644 74.761 28.0343 75.0911C27.7042 75.4211 27.5188 75.8688 27.5188 76.3356C27.5188 76.8023 27.7042 77.25 28.0343 77.5801C28.3644 77.9101 28.812 78.0956 29.2788 78.0956C29.7456 78.0956 30.1933 77.9101 30.5233 77.5801C30.8534 77.25 31.0388 76.8023 31.0388 76.3356ZM36.6388 76.5656L37.0588 78.3456C37.0859 78.4648 37.1897 78.5743 37.3533 78.6561C37.5169 78.7379 37.7305 78.7871 37.9588 78.7956C40.5088 78.8956 42.8988 73.8656 37.7288 75.4456C37.3871 75.5499 37.0833 75.7245 36.8803 75.933C36.6774 76.1416 36.5908 76.3681 36.6388 76.5656Z" fill="#FEAD34"/>
<path d="M33.961 23.4854C29.141 26.2354 32.131 17.8554 34.461 21.2654C34.5821 21.4415 34.6656 21.6407 34.706 21.8505C34.7465 22.0603 34.7432 22.2763 34.6963 22.4847C34.6493 22.6932 34.5597 22.8897 34.4332 23.0619C34.3067 23.2342 34.1459 23.3783 33.961 23.4854Z" fill="#110101"/>
<path d="M31.1124 36.5483C32.0454 36.4022 32.7027 35.6512 32.5805 34.871C32.4583 34.0907 31.6029 33.5766 30.6699 33.7227C29.7368 33.8689 29.0795 34.6198 29.2017 35.4001C29.3239 36.1803 30.1793 36.6944 31.1124 36.5483Z" fill="#110101"/>
<path d="M35.9213 35.5653C36.5747 34.2387 37.6747 33.6853 39.2213 33.9053C39.2891 33.9153 39.3529 33.947 39.4092 33.9987C39.4655 34.0504 39.5132 34.121 39.5494 34.2064C39.5856 34.2919 39.6098 34.3906 39.6204 34.4968C39.631 34.603 39.6279 34.7147 39.6113 34.8253C39.3313 36.552 38.2013 37.0687 36.2213 36.3753C36.1462 36.349 36.078 36.3061 36.0213 36.2496C35.9645 36.1931 35.9204 36.1242 35.892 36.0476C35.8636 35.971 35.8515 35.8883 35.8566 35.8051C35.8616 35.722 35.8838 35.6402 35.9213 35.5653Z" fill="#110101"/>
<path d="M25.9521 47.0456C25.7988 45.5122 26.4321 44.6522 27.8521 44.4656C27.9747 44.4489 28.117 44.498 28.2589 44.6057C28.4007 44.7135 28.5348 44.8744 28.6421 45.0656C29.6621 46.9122 29.0721 47.8189 26.8721 47.7856C26.6392 47.782 26.4168 47.7046 26.2472 47.5682C26.0776 47.4318 25.9726 47.2458 25.9521 47.0456Z" fill="#110101"/>
<path d="M37.312 48.1592C38.3298 47.8616 38.9475 46.9113 38.6917 46.0367C38.436 45.162 37.4036 44.6943 36.3858 44.9919C35.368 45.2895 34.7503 46.2398 35.0061 47.1144C35.2618 47.9891 36.2942 48.4569 37.312 48.1592Z" fill="#110101"/>
<path d="M27.9225 61.3352C28.9498 61.3352 29.7825 60.5025 29.7825 59.4752C29.7825 58.448 28.9498 57.6152 27.9225 57.6152C26.8953 57.6152 26.0625 58.448 26.0625 59.4752C26.0625 60.5025 26.8953 61.3352 27.9225 61.3352Z" fill="#110101"/>
<path d="M38.33 60.4952C37.12 66.1252 31.34 58.3052 37.07 58.7952C37.2694 58.8121 37.463 58.8712 37.6378 58.9687C37.8127 59.0662 37.9648 59.1998 38.0839 59.3606C38.2031 59.5214 38.2868 59.7058 38.3292 59.9014C38.3716 60.097 38.3719 60.2995 38.33 60.4952Z" fill="#110101"/>
<path d="M17.5816 76.0353C13.1816 77.7753 16.1816 70.7853 18.5916 73.6153C19.4516 74.6286 19.115 75.4353 17.5816 76.0353Z" fill="#110101"/>
<path d="M29.2795 78.0952C30.2516 78.0952 31.0396 77.3072 31.0396 76.3352C31.0396 75.3632 30.2516 74.5752 29.2795 74.5752C28.3075 74.5752 27.5195 75.3632 27.5195 76.3352C27.5195 77.3072 28.3075 78.0952 29.2795 78.0952Z" fill="#2C0D04"/>
<path d="M36.6418 76.5656C36.5939 76.3681 36.6804 76.1416 36.8834 75.933C37.0863 75.7245 37.3902 75.5499 37.7319 75.4456C42.9019 73.8656 40.5118 78.8956 37.9618 78.7956C37.7335 78.7871 37.52 78.7379 37.3564 78.6561C37.1928 78.5743 37.0889 78.4648 37.0618 78.3456L36.6418 76.5656Z" fill="#2C0D04"/>
<path d="M56.3191 127.545C42.2091 152.375 25.7591 175.505 12.9291 201.055C12.0691 202.769 11.5691 202.672 11.4291 200.765C10.3391 185.575 10.0991 169.975 8.37907 154.355C6.95907 141.495 6.15906 131.885 5.36906 120.555C5.36222 120.464 5.37419 120.372 5.40415 120.286C5.43412 120.199 5.48147 120.12 5.54331 120.053C5.60515 119.985 5.68016 119.931 5.76371 119.894C5.84726 119.856 5.93758 119.836 6.02909 119.835C14.0191 119.695 23.0291 118.885 30.1691 119.595C39.1024 120.475 47.7557 122.925 56.1291 126.945C56.1824 126.971 56.23 127.007 56.2688 127.051C56.3076 127.096 56.3368 127.148 56.3547 127.204C56.3725 127.26 56.3785 127.32 56.3724 127.378C56.3663 127.437 56.3481 127.494 56.3191 127.545ZM30.2151 130.021C30.1135 129.837 29.965 129.681 29.7779 129.563C29.5908 129.444 29.3688 129.365 29.1247 129.33C28.8805 129.295 28.6189 129.305 28.3549 129.359C28.0909 129.413 27.8295 129.51 27.5858 129.645C27.0936 129.916 26.703 130.325 26.4999 130.779C26.2969 131.234 26.298 131.698 26.5031 132.07C26.6046 132.254 26.7532 132.41 26.9403 132.528C27.1274 132.646 27.3493 132.725 27.5935 132.76C27.8376 132.795 28.0992 132.785 28.3633 132.732C28.6273 132.678 28.8886 132.581 29.1324 132.446C29.6246 132.174 30.0152 131.766 30.2182 131.311C30.4213 130.856 30.4201 130.392 30.2151 130.021ZM16.8291 131.465C16.7702 131.643 16.7421 131.831 16.7467 132.014C16.7514 132.197 16.7887 132.373 16.856 132.528C16.9233 132.684 17.0191 132.816 17.137 132.915C17.2549 133.015 17.392 133.08 17.5391 133.105C19.8324 133.525 20.7458 132.649 20.2791 130.475C20.2379 130.295 20.1528 130.133 20.035 130.009C19.9171 129.886 19.7721 129.808 19.6191 129.785C18.2057 129.572 17.2757 130.132 16.8291 131.465ZM34.2491 133.085C34.2058 133.152 34.1762 133.227 34.1618 133.305C34.1475 133.384 34.1487 133.464 34.1655 133.541C34.1823 133.618 34.2142 133.691 34.2595 133.756C34.3048 133.82 34.3624 133.874 34.4291 133.915C40.9391 137.945 39.5891 124.845 34.2491 133.085ZM17.3115 147.503C17.5062 147.625 17.7351 147.689 17.9852 147.69C18.2353 147.69 18.5016 147.629 18.7691 147.508C19.0365 147.388 19.2998 147.211 19.5439 146.987C19.7879 146.764 20.008 146.498 20.1916 146.205C20.5622 145.614 20.7615 144.95 20.7456 144.358C20.7297 143.765 20.4998 143.294 20.1067 143.047C19.912 142.925 19.6831 142.862 19.433 142.861C19.1829 142.86 18.9165 142.922 18.649 143.042C18.3816 143.163 18.1183 143.34 17.8742 143.564C17.6302 143.787 17.4101 144.053 17.2266 144.345C16.856 144.936 16.6567 145.601 16.6726 146.193C16.6885 146.785 16.9183 147.257 17.3115 147.503ZM28.7068 144.753C28.4104 144.417 27.961 144.24 27.4574 144.262C26.9538 144.283 26.4373 144.501 26.0215 144.868C25.6057 145.234 25.3247 145.719 25.2403 146.216C25.1559 146.713 25.275 147.181 25.5714 147.517C25.8678 147.854 26.3172 148.03 26.8208 148.009C27.3244 147.988 27.8409 147.77 28.2567 147.403C28.6725 147.036 28.9535 146.551 29.0379 146.054C29.1223 145.558 29.0032 145.089 28.7068 144.753ZM15.8091 159.705C11.3591 162.465 18.0391 163.695 17.2891 160.325C17.2555 160.172 17.1854 160.028 17.0846 159.907C16.9839 159.786 16.8555 159.691 16.7103 159.631C16.5651 159.57 16.4074 159.545 16.2505 159.558C16.0937 159.571 15.9422 159.621 15.8091 159.705ZM23.0087 159.961C22.7659 159.698 22.3898 159.577 21.9631 159.627C21.5364 159.676 21.0941 159.891 20.7336 160.223C20.373 160.556 20.1237 160.98 20.0404 161.401C19.9571 161.822 20.0467 162.207 20.2895 162.47C20.5323 162.733 20.9084 162.853 21.3351 162.804C21.7617 162.755 22.204 162.54 22.5646 162.207C22.9251 161.875 23.1745 161.451 23.2578 161.03C23.3411 160.608 23.2515 160.224 23.0087 159.961ZM15.4926 173.213C15.7372 173.425 16.0882 173.493 16.4687 173.403C16.8491 173.314 17.2277 173.073 17.5212 172.734C17.6665 172.566 17.7865 172.38 17.8744 172.185C17.9623 171.989 18.0164 171.79 18.0335 171.597C18.0507 171.404 18.0305 171.222 17.9742 171.061C17.9179 170.9 17.8267 170.763 17.7056 170.658C17.461 170.446 17.1099 170.378 16.7295 170.467C16.349 170.557 15.9704 170.798 15.677 171.137C15.5317 171.304 15.4116 171.491 15.3237 171.686C15.2358 171.881 15.1818 172.081 15.1646 172.274C15.1475 172.467 15.1676 172.649 15.2239 172.81C15.2802 172.971 15.3715 173.108 15.4926 173.213Z" fill="#FEAD34"/>
<path d="M29.133 132.446C30.158 131.881 30.6427 130.795 30.2157 130.021C29.7886 129.247 28.6115 129.079 27.5865 129.645C26.5614 130.211 26.0767 131.297 26.5037 132.07C26.9308 132.844 28.1079 133.012 29.133 132.446Z" fill="#2C0D04"/>
<path d="M16.8289 131.465C17.2756 130.132 18.2056 129.572 19.6189 129.785C19.772 129.808 19.917 129.886 20.0348 130.009C20.1526 130.133 20.2378 130.295 20.2789 130.475C20.7456 132.649 19.8323 133.525 17.5389 133.105C17.3919 133.08 17.2547 133.015 17.1368 132.915C17.019 132.816 16.9232 132.684 16.8558 132.528C16.7885 132.373 16.7512 132.197 16.7466 132.014C16.7419 131.831 16.77 131.643 16.8289 131.465Z" fill="#2C0D04"/>
<path d="M34.2495 133.086C39.5895 124.846 40.9395 137.946 34.4295 133.916C34.3628 133.874 34.3052 133.82 34.2599 133.756C34.2147 133.691 34.1827 133.619 34.1659 133.541C34.1492 133.464 34.1479 133.384 34.1622 133.306C34.1766 133.227 34.2063 133.153 34.2495 133.086Z" fill="#2C0D04"/>
<path d="M17.2273 144.346C16.4555 145.576 16.4935 146.99 17.3122 147.503C18.131 148.017 19.4204 147.436 20.1923 146.205C20.9641 144.975 20.9261 143.561 20.1074 143.048C19.2886 142.534 17.9992 143.115 17.2273 144.346Z" fill="#2C0D04"/>
<path d="M28.26 147.403C29.1258 146.64 29.3274 145.454 28.7101 144.753C28.0929 144.053 26.8906 144.105 26.0248 144.868C25.1589 145.631 24.9574 146.818 25.5746 147.518C26.1919 148.218 27.3942 148.167 28.26 147.403Z" fill="#3D1207"/>
<path d="M17.2904 160.326C18.0404 163.696 11.3604 162.466 15.8104 159.706C15.9435 159.622 16.095 159.571 16.2519 159.558C16.4087 159.545 16.5664 159.57 16.7116 159.631C16.8568 159.692 16.9852 159.787 17.086 159.907C17.1867 160.028 17.2568 160.172 17.2904 160.326Z" fill="#110101"/>
<path d="M22.5656 162.208C23.3165 161.515 23.5153 160.509 23.0097 159.961C22.5041 159.413 21.4855 159.531 20.7346 160.223C19.9837 160.916 19.7849 161.922 20.2905 162.47C20.7961 163.018 21.8147 162.901 22.5656 162.208Z" fill="#110101"/>
<path d="M15.6781 171.137C15.067 171.842 14.9845 172.772 15.4937 173.213C16.003 173.654 16.9113 173.44 17.5224 172.734C18.1335 172.029 18.216 171.099 17.7068 170.658C17.1975 170.217 16.2892 170.431 15.6781 171.137Z" fill="#110101"/>
</svg>
