<svg width="82" height="165" viewBox="0 0 82 165" fill="none" xmlns="http://www.w3.org/2000/svg">
<path d="M1.95589 149.087C3.27589 155.727 10.1059 162.397 16.6759 163.367C29.7259 165.277 39.8759 155.387 48.3159 146.027C64.1559 128.467 74.6059 111.847 77.8259 87.9366C81.0859 63.6766 87.7359 15.5966 58.7859 2.69658C37.8059 -6.65342 30.0859 25.1066 26.5259 37.8866C24.0059 46.9466 21.6092 56.0399 19.3359 65.1666C18.8459 67.1366 17.7659 69.6366 17.3759 71.9266C16.9359 74.4799 16.5825 76.1932 16.3159 77.0666C10.3959 96.0166 3.2159 113.657 1.2159 134.447C0.745901 139.347 1.06589 144.587 1.95589 149.087Z" stroke="#BBE5DA" stroke-width="2"/>
<path d="M58.0124 18.6656C58.0358 18.4542 58.0172 18.2402 57.9579 18.0359C57.8985 17.8316 57.7995 17.641 57.6665 17.475C57.5334 17.3089 57.369 17.1707 57.1826 17.0682C56.9961 16.9657 56.7914 16.901 56.5799 16.8776L56.3613 16.8535C55.9342 16.8064 55.5059 16.9308 55.1706 17.1994C54.8353 17.4681 54.6204 17.8589 54.5733 18.2859L53.5176 27.8478C53.4943 28.0593 53.5128 28.2733 53.5721 28.4776C53.6315 28.6819 53.7305 28.8725 53.8636 29.0385C53.9966 29.2046 54.1609 29.3428 54.3474 29.4452C54.5338 29.5477 54.7386 29.6125 54.9501 29.6358L55.1687 29.6599C55.5957 29.7071 56.024 29.5827 56.3593 29.314C56.6947 29.0454 56.9095 28.6546 56.9567 28.2275L58.0124 18.6656Z" stroke="#4A8083" stroke-width="2"/>
<path d="M40.5688 41.8153C40.9752 41.9174 41.4846 41.5391 41.9848 40.7637C42.4851 39.9883 42.9353 38.8793 43.2364 37.6806C43.3854 37.0871 43.4935 36.4894 43.5542 35.9217C43.6149 35.354 43.6271 34.8274 43.5902 34.372C43.5534 33.9166 43.4681 33.5413 43.3392 33.2674C43.2103 32.9936 43.0404 32.8267 42.8391 32.7761C42.4327 32.6741 41.9234 33.0524 41.4231 33.8278C40.9229 34.6032 40.4726 35.7122 40.1715 36.9108C40.0225 37.5044 39.9145 38.102 39.8538 38.6697C39.7931 39.2374 39.7808 39.764 39.8177 40.2194C39.8545 40.6749 39.9399 41.0502 40.0688 41.324C40.1976 41.5978 40.3675 41.7648 40.5688 41.8153Z" stroke="#42847E" stroke-width="2"/>
<path d="M64.4828 40.1536C64.5027 39.9867 64.4896 39.8175 64.4441 39.6557C64.3986 39.4938 64.3216 39.3426 64.2177 39.2104C64.1137 39.0783 63.9848 38.968 63.8382 38.8858C63.6916 38.8035 63.5302 38.7509 63.3633 38.731L62.9264 38.6789C62.5893 38.6387 62.25 38.7341 61.9832 38.9441C61.7165 39.154 61.5441 39.4613 61.5039 39.7984L60.1848 50.86C60.1649 51.0269 60.1781 51.1961 60.2235 51.358C60.269 51.5198 60.3459 51.6711 60.4499 51.8032C60.5538 51.9353 60.6828 52.0456 60.8294 52.1279C60.976 52.2101 61.1374 52.2627 61.3043 52.2826L61.7412 52.3347C62.0783 52.3749 62.4175 52.2795 62.6843 52.0696C62.9511 51.8596 63.1235 51.5523 63.1637 51.2152L64.4828 40.1536Z" stroke="#4A8083" stroke-width="2"/>
<path d="M46.1676 53.4665C46.1956 53.2543 46.1815 53.0387 46.1261 52.8319C46.0707 52.6251 45.9751 52.4313 45.8448 52.2614C45.7145 52.0916 45.552 51.9491 45.3666 51.8421C45.1812 51.735 44.9766 51.6656 44.7643 51.6376L44.685 51.6272C44.2564 51.5708 43.823 51.687 43.48 51.9501C43.1371 52.2133 42.9127 52.6019 42.8562 53.0305L39.7444 76.6665C39.7165 76.8788 39.7306 77.0944 39.786 77.3012C39.8414 77.508 39.937 77.7018 40.0673 77.8716C40.1976 78.0415 40.3601 78.184 40.5455 78.291C40.7308 78.398 40.9355 78.4675 41.1477 78.4954L41.227 78.5058C41.6556 78.5623 42.0891 78.4461 42.432 78.1829C42.775 77.9198 42.9994 77.5311 43.0558 77.1025L46.1676 53.4665Z" stroke="#4C8486" stroke-width="2"/>
<path d="M67.6647 62.2966C64.1347 60.4366 65.3647 66.3866 65.6747 67.6366C66.1214 69.4233 66.6514 69.4432 67.2647 67.6966C67.7847 66.2166 68.0914 64.6932 68.1847 63.1266C68.194 62.9658 68.1498 62.802 68.0575 62.6547C67.9653 62.5075 67.8289 62.3831 67.6647 62.2966Z" stroke="#467C7D" stroke-width="2"/>
<path d="M55.7842 81.7371C53.8175 87.6371 52.5875 93.7538 52.0942 100.087C51.8642 103.077 54.1742 103.137 54.8542 100.467C56.3075 94.7338 57.7775 89.0038 59.2641 83.2771C59.5575 82.1638 58.7942 81.4204 56.9742 81.0471C56.7256 80.9953 56.4667 81.037 56.2471 81.1643C56.0275 81.2917 55.8626 81.4957 55.7842 81.7371Z" stroke="#4A8083" stroke-width="2"/>
<path d="M35.0542 96.6862C31.8342 94.8162 29.4541 113.776 29.2541 115.596C29.2335 115.763 29.2528 115.926 29.3089 116.06C29.365 116.193 29.4548 116.291 29.5641 116.336C31.0041 116.926 35.1741 101.946 36.0041 99.0762C36.1353 98.6277 36.113 98.1485 35.9408 97.7153C35.7686 97.2821 35.4564 96.9197 35.0542 96.6862Z" stroke="#478582" stroke-width="2"/>
<path d="M16.3772 118.886C16.478 118.955 16.5915 119.002 16.7099 119.026C16.8284 119.049 16.9491 119.048 17.0639 119.022C17.1786 118.997 17.2847 118.947 17.375 118.877C17.4653 118.807 17.5377 118.718 17.5872 118.616C19.0405 115.67 18.6772 114.38 16.4972 114.746C16.3057 114.777 16.1318 114.831 15.9906 114.902C15.8494 114.974 15.7453 115.061 15.6872 115.156C14.7206 116.683 14.9505 117.926 16.3772 118.886Z" stroke="#4C8C89" stroke-width="2"/>
<path d="M43.7254 122.006C43.45 121.984 43.1735 122.058 42.9399 122.217C42.7062 122.377 42.5287 122.612 42.4354 122.886L38.6854 133.626C38.1921 135.039 38.1987 136.016 38.7054 136.556C40.5754 138.566 44.8754 124.696 45.2054 123.556C45.472 122.636 44.9787 122.119 43.7254 122.006Z" stroke="#478582" stroke-width="2"/>
<path d="M17.5437 147.326C17.7547 147.381 18.012 147.249 18.301 146.939C18.5901 146.628 18.9051 146.145 19.2282 145.516C19.5512 144.887 19.8761 144.125 20.184 143.274C20.492 142.423 20.7771 141.498 21.023 140.554C21.5197 138.647 21.8269 136.774 21.8768 135.348C21.9268 133.921 21.7155 133.057 21.2895 132.946C21.0785 132.891 20.8213 133.022 20.5322 133.333C20.2432 133.644 19.9281 134.127 19.6051 134.756C19.282 135.385 18.9572 136.146 18.6492 136.998C18.3413 137.849 18.0562 138.773 17.8103 139.717C17.3135 141.624 17.0064 143.497 16.9564 144.924C16.9065 146.351 17.1177 147.215 17.5437 147.326Z" stroke="#4A8083" stroke-width="2"/>
<path d="M16.6759 163.367C10.1059 162.397 3.27589 155.727 1.95589 149.087C1.06589 144.587 0.745901 139.347 1.2159 134.447C3.2159 113.657 10.3959 96.0166 16.3159 77.0666C16.5825 76.1932 16.9359 74.4799 17.3759 71.9266C17.7659 69.6366 18.8459 67.1366 19.3359 65.1666C21.6092 56.0399 24.0059 46.9466 26.5259 37.8866C30.0859 25.1066 37.8059 -6.65342 58.7859 2.69658C87.7359 15.5966 81.0859 63.6766 77.8259 87.9366C74.6059 111.847 64.1559 128.467 48.3159 146.027C39.8759 155.387 29.7259 165.277 16.6759 163.367ZM58.0133 18.6655C58.0367 18.454 58.0181 18.24 57.9588 18.0357C57.8994 17.8314 57.8004 17.6408 57.6674 17.4748C57.5344 17.3088 57.3699 17.1706 57.1835 17.0681C56.9971 16.9656 56.7923 16.9008 56.5808 16.8775L56.3622 16.8534C55.9352 16.8062 55.5068 16.9307 55.1715 17.1993C54.8362 17.4679 54.6213 17.8587 54.5742 18.2858L53.5185 27.8477C53.4952 28.0591 53.5137 28.2731 53.573 28.4774C53.6324 28.6817 53.7314 28.8723 53.8645 29.0384C53.9975 29.2044 54.1619 29.3426 54.3483 29.4451C54.5347 29.5476 54.7395 29.6123 54.951 29.6357L55.1696 29.6598C55.5966 29.7069 56.0249 29.5825 56.3602 29.3139C56.6956 29.0453 56.9104 28.6544 56.9576 28.2274L58.0133 18.6655ZM40.5707 41.8162C40.9771 41.9182 41.4865 41.54 41.9868 40.7645C42.487 39.9891 42.9372 38.8801 43.2383 37.6815C43.3874 37.0879 43.4954 36.4903 43.5561 35.9226C43.6168 35.3549 43.6291 34.8283 43.5922 34.3729C43.5553 33.9174 43.47 33.5421 43.3411 33.2683C43.2123 32.9945 43.0423 32.8275 42.8411 32.777C42.4347 32.6749 41.9253 33.0532 41.4251 33.8286C40.9248 34.604 40.4746 35.713 40.1735 36.9117C40.0244 37.5052 39.9165 38.1029 39.8557 38.6706C39.795 39.2383 39.7827 39.7649 39.8196 40.2203C39.8565 40.6757 39.9418 41.0511 40.0707 41.3249C40.1996 41.5987 40.3695 41.7657 40.5707 41.8162ZM64.4849 40.1534C64.5048 39.9865 64.4917 39.8173 64.4462 39.6554C64.4007 39.4936 64.3238 39.3423 64.2198 39.2102C64.1158 39.0781 63.9869 38.9678 63.8403 38.8855C63.6937 38.8033 63.5323 38.7507 63.3654 38.7308L62.9285 38.6787C62.5914 38.6385 62.2521 38.7339 61.9854 38.9438C61.7186 39.1538 61.5462 39.4611 61.506 39.7982L60.1869 50.8598C60.167 51.0267 60.1802 51.1959 60.2257 51.3577C60.2712 51.5196 60.348 51.6709 60.452 51.803C60.5559 51.9351 60.6849 52.0454 60.8315 52.1276C60.9781 52.2099 61.1395 52.2625 61.3064 52.2824L61.7433 52.3345C62.0804 52.3747 62.4197 52.2793 62.6864 52.0693C62.9532 51.8594 63.1256 51.5521 63.1658 51.215L64.4849 40.1534ZM46.1675 53.4666C46.1954 53.2544 46.1813 53.0387 46.1259 52.8319C46.0705 52.6252 45.9749 52.4313 45.8446 52.2615C45.7143 52.0917 45.5519 51.9492 45.3665 51.8421C45.1811 51.7351 44.9764 51.6656 44.7642 51.6377L44.6849 51.6273C44.2563 51.5709 43.8228 51.687 43.4799 51.9502C43.1369 52.2133 42.9125 52.602 42.8561 53.0306L39.7443 76.6666C39.7163 76.8788 39.7304 77.0945 39.7858 77.3012C39.8412 77.508 39.9368 77.7019 40.0672 77.8717C40.1975 78.0415 40.3599 78.184 40.5453 78.291C40.7307 78.3981 40.9354 78.4676 41.1476 78.4955L41.2269 78.5059C41.6555 78.5623 42.0889 78.4462 42.4319 78.183C42.7749 77.9198 42.9993 77.5312 43.0557 77.1026L46.1675 53.4666ZM67.6659 62.2966C64.1359 60.4366 65.3659 66.3866 65.6759 67.6366C66.1226 69.4233 66.6526 69.4433 67.2659 67.6966C67.7859 66.2166 68.0926 64.6932 68.1859 63.1266C68.1952 62.9658 68.151 62.802 68.0587 62.6547C67.9665 62.5075 67.8301 62.3831 67.6659 62.2966ZM55.7859 81.7366C53.8192 87.6366 52.5892 93.7533 52.0959 100.087C51.8659 103.077 54.1759 103.137 54.8559 100.467C56.3092 94.7333 57.7792 89.0033 59.2659 83.2766C59.5592 82.1633 58.7959 81.4199 56.9759 81.0466C56.7274 80.9947 56.4685 81.0365 56.2489 81.1638C56.0292 81.2912 55.8644 81.4951 55.7859 81.7366ZM35.0559 96.6866C31.8359 94.8166 29.4559 113.777 29.2559 115.597C29.2352 115.763 29.2545 115.926 29.3106 116.06C29.3667 116.194 29.4565 116.291 29.5659 116.337C31.0059 116.927 35.1759 101.947 36.0059 99.0766C36.137 98.6281 36.1147 98.1489 35.9425 97.7157C35.7703 97.2824 35.4582 96.9201 35.0559 96.6866ZM16.3759 118.887C16.4767 118.955 16.5902 119.002 16.7086 119.026C16.8271 119.049 16.9478 119.048 17.0626 119.023C17.1773 118.997 17.2834 118.947 17.3737 118.877C17.464 118.807 17.5364 118.718 17.5859 118.617C19.0392 115.67 18.6759 114.38 16.4959 114.747C16.3044 114.777 16.1305 114.831 15.9893 114.902C15.8481 114.974 15.744 115.061 15.6859 115.157C14.7193 116.683 14.9492 117.927 16.3759 118.887ZM43.7259 122.007C43.4505 121.984 43.1741 122.059 42.9404 122.218C42.7067 122.378 42.5292 122.613 42.4359 122.887L38.6859 133.627C38.1926 135.04 38.1992 136.017 38.7059 136.557C40.5759 138.567 44.8759 124.697 45.2059 123.557C45.4726 122.637 44.9792 122.12 43.7259 122.007ZM17.543 147.327C17.7539 147.382 18.0113 147.25 18.3003 146.94C18.5893 146.629 18.9044 146.145 19.2274 145.517C19.5505 144.888 19.8753 144.126 20.1833 143.275C20.4913 142.423 20.7763 141.499 21.0223 140.555C21.519 138.648 21.8261 136.775 21.8761 135.348C21.9261 133.921 21.7148 133.057 21.2888 132.946C21.0778 132.892 20.8205 133.023 20.5315 133.334C20.2425 133.644 19.9274 134.128 19.6043 134.757C19.2812 135.385 18.9565 136.147 18.6485 136.998C18.3406 137.85 18.0555 138.774 17.8095 139.718C17.3128 141.625 17.0057 143.498 16.9557 144.925C16.9057 146.352 17.117 147.216 17.543 147.327Z" fill="#77D0C4"/>
<path d="M56.9606 28.2275C56.9134 28.6546 56.6986 29.0454 56.3632 29.314C56.0279 29.5827 55.5996 29.7071 55.1726 29.6599L54.954 29.6358C54.7425 29.6125 54.5377 29.5477 54.3513 29.4452C54.1648 29.3428 54.0005 29.2046 53.8675 29.0385C53.7344 28.8725 53.6354 28.6819 53.576 28.4776C53.5167 28.2733 53.4982 28.0593 53.5215 27.8478L54.5772 18.2859C54.6243 17.8589 54.8392 17.4681 55.1745 17.1994C55.5098 16.9308 55.9381 16.8064 56.3652 16.8535L56.5838 16.8776C56.7953 16.901 57.0001 16.9657 57.1865 17.0682C57.3729 17.1707 57.5374 17.3089 57.6704 17.475C57.8034 17.641 57.9024 17.8316 57.9618 18.0359C58.0211 18.2402 58.0397 18.4542 58.0163 18.6656L56.9606 28.2275Z" fill="#1C3041"/>
<path d="M40.5727 41.8163C40.3714 41.7658 40.2015 41.5988 40.0727 41.325C39.9438 41.0512 39.8585 40.6758 39.8216 40.2204C39.7847 39.765 39.797 39.2384 39.8577 38.6707C39.9184 38.103 40.0264 37.5053 40.1754 36.9118C40.4765 35.7132 40.9268 34.6041 41.427 33.8287C41.9273 33.0533 42.4366 32.6751 42.8431 32.7771C43.0443 32.8276 43.2142 32.9946 43.3431 33.2684C43.472 33.5422 43.5573 33.9176 43.5942 34.373C43.631 34.8284 43.6188 35.355 43.5581 35.9227C43.4974 36.4904 43.3894 37.0881 43.2403 37.6816C42.9392 38.8802 42.489 39.9893 41.9887 40.7647C41.4885 41.5401 40.9791 41.9184 40.5727 41.8163Z" fill="#0C3737"/>
<path d="M63.1676 51.2152C63.1274 51.5523 62.955 51.8596 62.6882 52.0696C62.4214 52.2795 62.0822 52.3749 61.7451 52.3347L61.3082 52.2826C61.1413 52.2627 60.9799 52.2101 60.8333 52.1279C60.6867 52.0456 60.5577 51.9353 60.4538 51.8032C60.3498 51.6711 60.2729 51.5198 60.2275 51.358C60.182 51.1961 60.1688 51.0269 60.1887 50.86L61.5078 39.7984C61.548 39.4613 61.7204 39.154 61.9872 38.9441C62.2539 38.7341 62.5932 38.6387 62.9303 38.6789L63.3672 38.731C63.5341 38.7509 63.6955 38.8035 63.8421 38.8858C63.9887 38.968 64.1176 39.0783 64.2216 39.2104C64.3255 39.3426 64.4025 39.4938 64.448 39.6557C64.4935 39.8175 64.5066 39.9867 64.4867 40.1536L63.1676 51.2152Z" fill="#1C3041"/>
<path d="M43.0558 77.1025C42.9994 77.5311 42.775 77.9198 42.432 78.1829C42.0891 78.4461 41.6556 78.5623 41.227 78.5058L41.1477 78.4954C40.9355 78.4675 40.7308 78.398 40.5455 78.291C40.3601 78.184 40.1976 78.0415 40.0673 77.8716C39.937 77.7018 39.8414 77.508 39.786 77.3012C39.7306 77.0944 39.7165 76.8788 39.7444 76.6665L42.8562 53.0305C42.9127 52.6019 43.1371 52.2133 43.48 51.9501C43.823 51.687 44.2564 51.5708 44.685 51.6272L44.7643 51.6376C44.9766 51.6656 45.1812 51.735 45.3666 51.8421C45.552 51.9491 45.7145 52.0916 45.8448 52.2614C45.9751 52.4313 46.0707 52.6251 46.1261 52.8319C46.1815 53.0387 46.1956 53.2543 46.1676 53.4665L43.0558 77.1025Z" fill="#203847"/>
<path d="M65.6786 67.6366C65.3686 66.3866 64.1386 60.4366 67.6686 62.2966C67.8328 62.3831 67.9692 62.5075 68.0614 62.6547C68.1537 62.802 68.1979 62.9658 68.1886 63.1266C68.0953 64.6932 67.7886 66.2166 67.2686 67.6966C66.6553 69.4432 66.1253 69.4233 65.6786 67.6366Z" fill="#142735"/>
<path d="M55.7881 81.7371C55.8665 81.4957 56.0314 81.2917 56.251 81.1643C56.4706 81.037 56.7295 80.9953 56.9781 81.0471C58.7981 81.4204 59.5614 82.1638 59.268 83.2771C57.7814 89.0038 56.3114 94.7338 54.8581 100.467C54.1781 103.137 51.8681 103.077 52.0981 100.087C52.5914 93.7538 53.8214 87.6371 55.7881 81.7371Z" fill="#1C3041"/>
<path d="M29.2581 115.597C29.4581 113.777 31.8381 94.8172 35.0581 96.6872C35.4603 96.9207 35.7725 97.283 35.9447 97.7163C36.1169 98.1495 36.1392 98.6287 36.0081 99.0772C35.1781 101.947 31.0081 116.927 29.5681 116.337C29.4587 116.292 29.3689 116.194 29.3128 116.061C29.2567 115.927 29.2374 115.764 29.2581 115.597Z" fill="#173940"/>
<path d="M16.3772 118.886C14.9505 117.926 14.7206 116.683 15.6872 115.156C15.7453 115.061 15.8494 114.974 15.9906 114.902C16.1318 114.831 16.3057 114.777 16.4972 114.746C18.6772 114.38 19.0405 115.67 17.5872 118.616C17.5377 118.718 17.4653 118.807 17.375 118.877C17.2847 118.947 17.1786 118.997 17.0639 119.022C16.9491 119.048 16.8284 119.049 16.7099 119.026C16.5915 119.002 16.478 118.955 16.3772 118.886Z" fill="#21474D"/>
<path d="M43.7254 122.007C44.9787 122.12 45.472 122.637 45.2054 123.557C44.8754 124.697 40.5754 138.567 38.7054 136.557C38.1987 136.017 38.1921 135.04 38.6854 133.627L42.4354 122.887C42.5287 122.613 42.7062 122.378 42.9399 122.218C43.1735 122.059 43.45 121.985 43.7254 122.007Z" fill="#173940"/>
<path d="M17.5437 147.327C17.1177 147.216 16.9065 146.352 16.9564 144.925C17.0064 143.498 17.3135 141.625 17.8103 139.718C18.0562 138.774 18.3413 137.85 18.6492 136.999C18.9572 136.147 19.282 135.386 19.6051 134.757C19.9281 134.128 20.2432 133.644 20.5322 133.334C20.8213 133.023 21.0785 132.892 21.2895 132.947C21.7155 133.058 21.9268 133.922 21.8768 135.349C21.8269 136.775 21.5197 138.648 21.023 140.555C20.7771 141.499 20.492 142.424 20.184 143.275C19.8761 144.126 19.5512 144.888 19.2282 145.517C18.9051 146.146 18.5901 146.629 18.301 146.94C18.012 147.25 17.7547 147.382 17.5437 147.327Z" fill="#1C3041"/>
</svg>
