<svg width="48" height="50" viewBox="0 0 48 50" fill="none" xmlns="http://www.w3.org/2000/svg">
<path d="M26.7248 46.9867C32.248 46.2498 37.2343 43.2142 40.5867 38.5478C43.9392 33.8813 45.3831 27.9663 44.6009 22.1039C43.8187 16.2416 40.8745 10.9121 36.4158 7.28786C31.9572 3.66365 26.3494 2.0416 20.8262 2.77854C15.3029 3.5155 10.3167 6.55109 6.96424 11.2175C3.61182 15.8839 2.16787 21.799 2.95008 27.6613C3.73228 33.5237 6.67658 38.8532 11.1352 42.4774C15.5938 46.1016 21.2016 47.7237 26.7248 46.9867Z" stroke="#FEE8A1" stroke-width="2"/>
<path d="M2.95078 27.6615C4.57965 39.8693 15.224 48.5216 26.7255 46.9869C38.2271 45.4523 46.2305 34.3119 44.6017 22.1041C42.9728 9.89634 32.3285 1.24407 20.8269 2.77871C9.32533 4.31334 1.32192 15.4538 2.95078 27.6615Z" fill="#FDD043"/>
</svg>
