<svg width="126" height="193" viewBox="0 0 126 193" fill="none" xmlns="http://www.w3.org/2000/svg">
<path d="M56.361 13.4456C54.781 13.4056 53.3443 13.8522 52.051 14.7856C51.9788 14.8357 51.8505 14.8548 51.6817 14.8406C51.5129 14.8264 51.311 14.7795 51.101 14.7056C48.821 13.9056 46.451 13.9289 43.991 14.7756C42.511 15.2889 42.4777 15.9756 43.8911 16.8356C49.3911 20.1756 54.4143 24.1356 58.961 28.7156C59.0753 28.8292 59.2179 28.9088 59.3747 28.9463C59.5315 28.9838 59.6971 28.978 59.8548 28.9294C60.0125 28.8809 60.157 28.7913 60.2739 28.6696C60.3908 28.5479 60.476 28.3982 60.5211 28.2356L62.571 21.0456C62.6243 20.8483 62.7129 20.6681 62.8304 20.5177C62.9479 20.3674 63.0915 20.2506 63.251 20.1756L68.601 17.5956C68.9244 17.4337 69.1784 17.176 69.321 16.8656C70.391 14.4956 66.6411 13.2856 65.0311 12.5156C64.8494 12.428 64.6936 12.3116 64.5795 12.1781C64.4654 12.0447 64.397 11.899 64.381 11.7556L63.601 5.0756C63.3277 2.72894 62.7276 1.41895 61.801 1.14561C56.801 -0.364388 56.921 10.3056 56.811 13.0056C56.8083 13.1249 56.7594 13.2383 56.675 13.3208C56.5906 13.4034 56.4777 13.4482 56.361 13.4456Z" stroke="#9197AF" stroke-width="2"/>
<path d="M98.5535 64.0555C95.9001 68.7688 94.8335 73.1855 95.3535 77.3055C96.1035 83.3055 101.184 94.2755 107.214 97.5755C113.124 100.806 116.384 95.2355 119.114 90.3655C125.304 79.2855 127.954 65.0355 113.034 60.1255C111.444 59.6055 109.184 59.8055 107.374 59.6055C107.059 59.5661 106.752 59.4385 106.484 59.2355C88.7935 45.6255 69.8335 41.3055 49.8835 51.7855C43.8835 54.9355 38.8335 58.2655 34.3835 63.1155C33.5435 64.0288 32.5035 64.5389 31.2635 64.6455C24.1635 65.2355 17.5235 67.2655 14.6935 74.2555C10.7235 84.0555 19.2135 100.736 30.8135 100.386C39.7935 100.116 45.5335 89.9455 46.4935 82.0555C47.1535 76.5255 44.5036 73.4655 41.6536 69.6055C41.5028 69.4041 41.4335 69.1533 41.4595 68.9031C41.4854 68.6529 41.6047 68.4217 41.7936 68.2555C56.6636 55.0255 80.7735 53.8555 98.3635 63.3855C98.4202 63.4168 98.4702 63.459 98.5105 63.5097C98.5508 63.5604 98.5806 63.6186 98.5983 63.6809C98.6159 63.7432 98.6211 63.8084 98.6134 63.8727C98.6057 63.937 98.5853 63.9991 98.5535 64.0555Z" stroke="#8D94AE" stroke-width="2"/>
<path d="M70.5726 115.525C62.1526 133.125 80.1426 151.925 97.5026 138.455C101.676 135.222 103.773 130.842 103.793 125.315C103.873 108.115 78.3626 99.2354 70.5726 115.525Z" stroke="#9197AF" stroke-width="2"/>
<path d="M13.8521 154.336C10.5854 154.249 7.46208 154.169 4.48208 154.096C-2.41792 153.916 2.6721 159.466 5.0021 160.756C5.14719 160.834 5.27361 160.939 5.37344 161.063C5.47327 161.187 5.54429 161.327 5.58206 161.476C6.70873 165.889 6.49203 170.189 4.93203 174.376C3.75203 177.566 5.90207 178.886 8.09207 176.436C11.3521 172.776 13.0521 170.216 18.3921 168.116C18.6918 167.998 19.0259 167.974 19.3521 168.046C21.7721 168.576 28.5221 171.276 29.4021 167.806C29.4372 167.667 29.4273 167.518 29.3739 167.38C29.3205 167.241 29.2259 167.117 29.1021 167.026C25.3121 164.266 21.8621 162.656 19.8621 157.776" stroke="#9197AF" stroke-width="2"/>
<path d="M19.8616 157.775C19.9716 155.875 21.3616 140.995 19.0916 141.225C18.9559 141.241 18.8194 141.299 18.694 141.395C18.5685 141.491 18.4579 141.621 18.3716 141.775C16.2249 145.722 14.7182 149.909 13.8516 154.335" stroke="#9BA0B6" stroke-width="2"/>
<path d="M19.8616 157.775C17.4682 156.969 15.4649 155.822 13.8516 154.335" stroke="#2D3866" stroke-width="2"/>
<path d="M86.9924 189.646C93.9824 193.846 98.9924 192.406 101.772 184.736C101.9 184.386 101.896 184.002 101.761 183.657C101.627 183.312 101.371 183.031 101.042 182.866C98.3558 181.499 96.1858 179.586 94.5324 177.126C93.5191 175.619 92.2357 175.389 90.6823 176.436C88.7223 177.749 87.8691 179.629 88.1224 182.076C88.1614 182.477 88.098 182.843 87.9424 183.116L86.1924 186.126C85.3257 187.626 85.5924 188.799 86.9924 189.646Z" stroke="#8D94AE" stroke-width="2"/>
<path d="M68.6119 51.6055C67.8119 51.1655 65.5819 49.4756 64.8019 49.8356C64.7427 49.8616 64.6903 49.9009 64.6481 49.9509C64.6058 50.0008 64.5747 50.0603 64.5568 50.1254C64.5388 50.1905 64.5344 50.2598 64.544 50.3287C64.5535 50.3977 64.5766 50.4648 64.6119 50.5256C65.5253 52.0722 66.8586 52.9056 68.6119 53.0256" stroke="#48517F" stroke-width="2"/>
<path d="M68.6133 53.0254C69.8733 53.0788 70.8933 52.5154 71.6733 51.3354C71.7283 51.2516 71.7921 51.1747 71.8611 51.1092C71.9301 51.0437 72.0031 50.9908 72.0756 50.9536C72.1481 50.9164 72.2187 50.8957 72.2836 50.8926C72.3484 50.8894 72.406 50.904 72.4532 50.9354L74.7533 52.4554C74.8591 52.5274 74.9512 52.6408 75.0223 52.7865C75.0935 52.9323 75.1418 53.1065 75.1633 53.2954C75.3567 55.0021 75.8199 54.9721 76.5532 53.2054C76.6132 53.0588 76.7067 52.9336 76.8146 52.8555C76.9224 52.7773 77.0365 52.7523 77.1333 52.7854C78.6533 53.2587 79.8966 52.8487 80.8633 51.5554C80.942 51.4499 81.0796 51.3809 81.2549 51.3592C81.4302 51.3375 81.6335 51.3643 81.8333 51.4354C82.1633 51.5554 85.5733 53.2654 85.3933 52.1654C85.3731 52.0556 85.2883 51.9393 85.1495 51.8308C85.0108 51.7223 84.8243 51.6265 84.6133 51.5554L80.8733 50.2954C80.7695 50.2613 80.6409 50.2635 80.4993 50.302C80.3577 50.3404 80.2077 50.4139 80.0632 50.5154L78.1733 51.8754C78.1144 51.9175 78.045 51.9415 77.9702 51.9458C77.8954 51.95 77.8169 51.9344 77.7405 51.9C77.6641 51.8656 77.5916 51.8133 77.5281 51.7468C77.4646 51.6803 77.4117 51.6013 77.3733 51.5154C76.8133 50.3021 75.8133 49.9288 74.3733 50.3954C74.2848 50.4247 74.1912 50.4393 74.0997 50.4383C74.0083 50.4372 73.9217 50.4205 73.8468 50.3894C73.7719 50.3583 73.711 50.3137 73.6687 50.2591C73.6264 50.2046 73.604 50.1417 73.6033 50.0754L73.6133 49.0754C73.6133 49.0231 73.5997 48.9717 73.5735 48.925C73.5473 48.8783 73.509 48.8374 73.4614 48.805C73.4138 48.7727 73.358 48.7497 73.2979 48.7377C73.2377 48.7256 73.1748 48.7249 73.1133 48.7354C71.1933 49.1021 69.6933 50.0587 68.6133 51.6054" stroke="#313D6B" stroke-width="2"/>
<path d="M68.6133 53.0255V51.6055" stroke="#5E668D" stroke-width="2"/>
<path d="M93.4321 53.4457C92.3121 53.159 91.3521 53.429 90.5521 54.2557C89.8721 54.969 89.9755 55.2257 90.8621 55.0257L93.4421 54.4357C94.8021 54.1223 94.7987 53.7923 93.4321 53.4457Z" stroke="#374373" stroke-width="2"/>
<path d="M109.351 70.3356C109.351 69.6991 109.098 69.0886 108.648 68.6385C108.198 68.1884 107.587 67.9355 106.951 67.9355C106.314 67.9355 105.704 68.1884 105.254 68.6385C104.804 69.0886 104.551 69.6991 104.551 70.3356C104.551 70.9721 104.804 71.5825 105.254 72.0326C105.704 72.4827 106.314 72.7355 106.951 72.7355C107.587 72.7355 108.198 72.4827 108.648 72.0326C109.098 71.5825 109.351 70.9721 109.351 70.3356Z" stroke="#8289AD" stroke-width="2"/>
<path d="M31.6777 74.0758C31.6485 73.8069 31.5507 73.5481 31.3898 73.3141C31.2289 73.0802 31.0082 72.8757 30.7401 72.7124C30.472 72.5491 30.162 72.4301 29.8275 72.3623C29.4931 72.2945 29.1408 72.2792 28.7909 72.3172C28.0843 72.394 27.4301 72.6834 26.9722 73.1217C26.5142 73.5601 26.2901 74.1115 26.3491 74.6546C26.3783 74.9236 26.4761 75.1824 26.637 75.4164C26.7978 75.6503 27.0187 75.8547 27.2867 76.018C27.5548 76.1813 27.8649 76.3003 28.1993 76.3681C28.5338 76.4359 28.8861 76.4513 29.236 76.4132C29.9426 76.3365 30.5968 76.0471 31.0547 75.6087C31.5126 75.1704 31.7367 74.619 31.6777 74.0758Z" stroke="#7E8DAA" stroke-width="2"/>
<path d="M17.1963 80.7975C17.3606 80.8652 17.5916 80.7519 17.8385 80.4825C18.0855 80.2131 18.3282 79.8096 18.5131 79.3609C18.698 78.9122 18.8101 78.455 18.8248 78.0898C18.8394 77.7247 18.7554 77.4815 18.5911 77.4137C18.4268 77.346 18.1957 77.4593 17.9488 77.7288C17.7018 77.9982 17.4593 78.4016 17.2743 78.8503C17.0894 79.299 16.9772 79.7562 16.9626 80.1213C16.9479 80.4865 17.0321 80.7297 17.1963 80.7975Z" stroke="#313D6B" stroke-width="2"/>
<path d="M79.1905 119.945C78.8638 119.285 78.2438 119.085 77.3305 119.345C76.5705 119.559 76.6406 119.865 77.5406 120.265L79.9605 121.345C80.0892 121.402 80.2229 121.428 80.3381 121.421C80.4532 121.414 80.5425 121.373 80.5905 121.305L83.6706 117.135C83.8504 116.885 83.9256 116.566 83.8805 116.245C83.6672 114.672 82.9172 113.445 81.6305 112.565C81.4741 112.456 81.3038 112.378 81.1313 112.339C80.9587 112.299 80.7879 112.298 80.6305 112.335C79.8572 112.529 79.2872 112.955 78.9206 113.615C78.8473 113.749 78.8106 113.901 78.8141 114.055C78.8176 114.21 78.8611 114.361 78.9405 114.495C79.3538 115.175 79.7606 115.222 80.1606 114.635C80.2004 114.576 80.2519 114.526 80.3119 114.488C80.372 114.449 80.4391 114.424 80.5094 114.413C80.5798 114.401 80.6516 114.405 80.7206 114.422C80.7896 114.44 80.8543 114.472 80.9106 114.515C81.5439 115.002 82.0272 115.599 82.3605 116.305C82.3863 116.356 82.3659 116.474 82.3024 116.641C82.239 116.808 82.1363 117.014 82.0105 117.225L80.3205 120.025C79.9271 120.685 79.5505 120.659 79.1905 119.945Z" stroke="#35406C" stroke-width="2"/>
<path d="M74.5312 123.116C74.6167 123.114 74.7008 123.093 74.7769 123.054C74.8531 123.015 74.9192 122.959 74.9704 122.891C75.0216 122.822 75.0563 122.743 75.0721 122.659C75.0878 122.575 75.084 122.488 75.0611 122.406C73.8511 118.106 71.0612 123.246 74.5312 123.116Z" stroke="#4C5580" stroke-width="2"/>
<path d="M83.1607 126.044C83.2851 125.991 83.316 125.733 83.2465 125.326C83.177 124.919 83.0129 124.398 82.7902 123.876C82.5675 123.354 82.3045 122.874 82.0591 122.542C81.8137 122.211 81.6059 122.054 81.4815 122.107C81.3571 122.16 81.3263 122.419 81.3958 122.825C81.4653 123.232 81.6293 123.754 81.8519 124.276C82.0746 124.798 82.3376 125.277 82.583 125.609C82.8285 125.941 83.0363 126.097 83.1607 126.044Z" stroke="#3B4774" stroke-width="2"/>
<path d="M76.3138 124.206C77.2538 124.446 78.0105 124.132 78.5839 123.266C78.8705 122.826 78.7905 122.666 78.3439 122.786L76.3539 123.306C75.1872 123.612 75.1738 123.912 76.3138 124.206Z" stroke="#424C79" stroke-width="2"/>
<path d="M70.3938 123.886C70.1872 123.979 70.0138 124.122 69.8738 124.316C69.7823 124.442 69.7409 124.599 69.7575 124.755C69.7741 124.912 69.8475 125.058 69.9638 125.166C70.8304 125.952 71.1805 125.732 71.0138 124.506C70.9995 124.405 70.9703 124.306 70.9287 124.216C70.8872 124.126 70.8342 124.048 70.7741 123.988C70.714 123.928 70.6483 123.887 70.5823 123.87C70.5163 123.852 70.4518 123.857 70.3938 123.886Z" stroke="#424C79" stroke-width="2"/>
<path d="M76.4516 128.265C76.545 125.839 75.745 125.072 74.0516 125.966C73.9991 125.994 73.9541 126.034 73.9197 126.083C73.8852 126.132 73.8624 126.189 73.8528 126.249C73.8432 126.31 73.8471 126.372 73.8642 126.432C73.8813 126.492 73.9112 126.548 73.9516 126.596C75.2116 128.126 76.5416 131.465 79.0816 130.935C79.2482 130.901 79.3985 130.829 79.5115 130.73C79.6244 130.632 79.6944 130.511 79.7117 130.385C79.825 129.559 80.2917 129.119 81.1117 129.065C81.1954 129.059 81.2796 129.038 81.3562 129.005C81.4328 128.972 81.4993 128.929 81.5494 128.879C81.5995 128.829 81.6317 128.773 81.6426 128.719C81.6535 128.664 81.6428 128.611 81.6117 128.565C81.365 128.192 81.285 127.775 81.3717 127.315C81.3966 127.193 81.353 127.054 81.2488 126.924C81.1445 126.794 80.9861 126.681 80.8016 126.605L78.1717 125.535C78.0829 125.5 77.9893 125.476 77.8979 125.466C77.8065 125.455 77.7194 125.458 77.6429 125.474C77.5665 125.491 77.5026 125.52 77.4557 125.56C77.4088 125.6 77.3801 125.649 77.3717 125.706C77.2117 126.546 80.0517 126.025 79.6417 128.495C79.6163 128.653 79.5485 128.797 79.451 128.9C79.3535 129.003 79.233 129.058 79.1117 129.055L76.9316 128.995C76.7997 128.991 76.6752 128.912 76.5853 128.776C76.4954 128.639 76.4474 128.455 76.4516 128.265Z" stroke="#424C79" stroke-width="2"/>
<path d="M70.6138 127.815C70.2537 128.409 70.2537 128.992 70.6138 129.565C70.648 129.623 70.6935 129.673 70.7474 129.713C70.8013 129.753 70.8624 129.781 70.9271 129.796C70.9918 129.811 71.0586 129.812 71.1234 129.8C71.1882 129.788 71.2495 129.763 71.3037 129.725C72.3637 128.985 72.3538 128.299 71.2738 127.665C71.2191 127.631 71.1583 127.608 71.0951 127.597C71.0319 127.586 70.9676 127.588 70.906 127.602C70.8444 127.616 70.7868 127.642 70.7366 127.679C70.6864 127.715 70.6445 127.762 70.6138 127.815Z" stroke="#424C79" stroke-width="2"/>
<path d="M82.5724 131.896C81.6724 131.009 80.9925 131.039 80.5325 131.986C80.4899 132.072 80.4712 132.167 80.4779 132.264C80.4846 132.361 80.5165 132.457 80.571 132.544C80.6256 132.631 80.7013 132.706 80.7919 132.763C80.8824 132.821 80.9854 132.86 81.0924 132.876L83.6324 133.256C83.7203 133.27 83.8158 133.233 83.9007 133.152C83.9857 133.07 84.0539 132.951 84.0924 132.816C84.3657 131.842 84.9558 131.176 85.8624 130.816C85.9571 130.778 86.044 130.722 86.1163 130.652C86.1887 130.582 86.2445 130.501 86.2794 130.413C86.3143 130.326 86.3274 130.236 86.3175 130.149C86.3076 130.063 86.275 129.983 86.2224 129.916C85.4157 128.842 84.3525 128.722 83.0325 129.556C82.9936 129.58 82.9665 129.619 82.953 129.67C82.9395 129.721 82.9399 129.782 82.9541 129.849C82.9683 129.916 82.996 129.988 83.0354 130.06C83.0748 130.132 83.1249 130.202 83.1824 130.266C83.6757 130.806 83.7091 131.382 83.2825 131.996C83.2515 132.04 83.2074 132.073 83.1531 132.092C83.0988 132.111 83.0356 132.116 82.968 132.107C82.9004 132.097 82.8299 132.073 82.7616 132.037C82.6933 132 82.6287 131.952 82.5724 131.896Z" stroke="#424C79" stroke-width="2"/>
<path d="M73.9323 132.715C72.3989 132.669 72.0123 133.289 72.7723 134.575C72.8511 134.704 72.9705 134.802 73.1096 134.852C73.2487 134.901 73.3985 134.899 73.5324 134.845C74.3724 134.505 74.7189 133.965 74.5723 133.225C74.5466 133.087 74.4694 132.961 74.3532 132.868C74.2369 132.776 74.0884 132.722 73.9323 132.715Z" stroke="#65658B" stroke-width="2"/>
<path d="M80.0514 138.306C80.1867 138.405 80.3433 138.472 80.509 138.501C80.6747 138.529 80.845 138.519 81.0066 138.471C81.1683 138.422 81.317 138.337 81.441 138.222C81.565 138.106 81.661 137.964 81.7215 137.806C82.5415 135.656 76.0614 135.426 80.0514 138.306Z" stroke="#424C79" stroke-width="2"/>
<path d="M10.9842 156.639C10.9034 156.544 10.679 156.578 10.3605 156.734C10.0421 156.889 9.65554 157.153 9.28596 157.467C9.10294 157.623 8.9296 157.787 8.77583 157.949C8.62205 158.11 8.49084 158.268 8.38972 158.411C8.2886 158.554 8.21955 158.681 8.18647 158.784C8.1534 158.887 8.15696 158.964 8.19697 159.011C8.27781 159.106 8.50216 159.072 8.82063 158.917C9.1391 158.762 9.52552 158.498 9.89509 158.183C10.0781 158.027 10.2514 157.864 10.4052 157.702C10.559 157.54 10.6902 157.383 10.7913 157.24C10.8925 157.096 10.9616 156.969 10.9947 156.866C11.0278 156.763 11.0242 156.686 10.9842 156.639Z" stroke="#65658B" stroke-width="2"/>
<path d="M56.8149 13.0056C56.9249 10.3056 56.8049 -0.364388 61.8049 1.14561C62.7315 1.41895 63.3316 2.72894 63.6049 5.0756L64.385 11.7556C64.4009 11.899 64.4693 12.0447 64.5834 12.1781C64.6975 12.3116 64.8533 12.428 65.035 12.5156C66.645 13.2856 70.3949 14.4956 69.3249 16.8656C69.1823 17.176 68.9283 17.4337 68.6049 17.5956L63.2549 20.1756C63.0954 20.2506 62.9518 20.3674 62.8343 20.5177C62.7168 20.6681 62.6282 20.8483 62.5749 21.0456L60.525 28.2356C60.4799 28.3982 60.3947 28.5479 60.2778 28.6696C60.1609 28.7913 60.0165 28.8809 59.8587 28.9294C59.701 28.978 59.5354 28.9838 59.3786 28.9463C59.2218 28.9088 59.0792 28.8292 58.9649 28.7156C54.4182 24.1356 49.395 20.1756 43.895 16.8356C42.4816 15.9756 42.5149 15.2889 43.9949 14.7756C46.4549 13.929 48.8249 13.9056 51.1049 14.7056C51.3149 14.7795 51.5168 14.8264 51.6856 14.8406C51.8544 14.8548 51.9827 14.8357 52.0549 14.7856C53.3482 13.8522 54.7849 13.4056 56.3649 13.4456C56.4816 13.4482 56.5945 13.4034 56.6789 13.3208C56.7633 13.2383 56.8122 13.1249 56.8149 13.0056Z" fill="#232F5F"/>
<path d="M98.3635 63.3855C80.7735 53.8555 56.6636 55.0255 41.7936 68.2555C41.6047 68.4217 41.4854 68.6529 41.4595 68.9031C41.4335 69.1533 41.5028 69.4041 41.6536 69.6055C44.5036 73.4655 47.1535 76.5255 46.4935 82.0555C45.5335 89.9455 39.7935 100.116 30.8135 100.386C19.2135 100.736 10.7235 84.0555 14.6935 74.2555C17.5235 67.2655 24.1635 65.2355 31.2635 64.6455C32.5035 64.5389 33.5435 64.0288 34.3835 63.1155C38.8335 58.2655 43.8835 54.9355 49.8835 51.7855C69.8335 41.3055 88.7935 45.6255 106.484 59.2355C106.752 59.4385 107.059 59.5661 107.374 59.6055C109.184 59.8055 111.444 59.6055 113.034 60.1255C127.954 65.0355 125.304 79.2855 119.114 90.3655C116.384 95.2355 113.124 100.806 107.214 97.5755C101.184 94.2755 96.1035 83.3055 95.3535 77.3055C94.8335 73.1855 95.9001 68.7688 98.5535 64.0555C98.5853 63.9991 98.6057 63.937 98.6134 63.8727C98.6211 63.8084 98.6159 63.7432 98.5983 63.6809C98.5806 63.6186 98.5508 63.5604 98.5105 63.5097C98.4702 63.459 98.4202 63.4168 98.3635 63.3855ZM68.6135 51.6055C67.8135 51.1655 65.5835 49.4755 64.8035 49.8355C64.7442 49.8616 64.6919 49.9009 64.6497 49.9508C64.6074 50.0008 64.5763 50.0602 64.5583 50.1253C64.5404 50.1904 64.536 50.2598 64.5455 50.3287C64.555 50.3977 64.5782 50.4648 64.6135 50.5255C65.5269 52.0722 66.8602 52.9055 68.6135 53.0255C69.8735 53.0789 70.8936 52.5155 71.6736 51.3355C71.7286 51.2517 71.7923 51.1748 71.8613 51.1093C71.9304 51.0438 72.0033 50.9909 72.0758 50.9537C72.1483 50.9165 72.219 50.8958 72.2838 50.8927C72.3486 50.8895 72.4063 50.9041 72.4535 50.9355L74.7535 52.4555C74.8594 52.5275 74.9514 52.6409 75.0226 52.7867C75.0937 52.9324 75.142 53.1066 75.1636 53.2955C75.3569 55.0022 75.8201 54.9722 76.5535 53.2055C76.6134 53.0589 76.707 52.9337 76.8148 52.8556C76.9227 52.7775 77.0368 52.7524 77.1335 52.7855C78.6535 53.2588 79.8969 52.8488 80.8635 51.5555C80.9422 51.45 81.0798 51.381 81.2551 51.3593C81.4305 51.3377 81.6337 51.3644 81.8335 51.4355C82.1635 51.5555 85.5736 53.2655 85.3936 52.1655C85.3733 52.0557 85.2885 51.9394 85.1498 51.8309C85.011 51.7224 84.8245 51.6266 84.6135 51.5555L80.8735 50.2955C80.7698 50.2614 80.6411 50.2636 80.4995 50.3021C80.3579 50.3405 80.2079 50.414 80.0635 50.5155L78.1736 51.8755C78.1146 51.9176 78.0453 51.9416 77.9705 51.9459C77.8956 51.9501 77.8172 51.9345 77.7407 51.9001C77.6643 51.8657 77.5918 51.8134 77.5283 51.7469C77.4648 51.6804 77.412 51.6014 77.3735 51.5155C76.8135 50.3022 75.8135 49.9289 74.3735 50.3955C74.2851 50.4248 74.1914 50.4394 74.1 50.4384C74.0086 50.4373 73.9219 50.4206 73.847 50.3895C73.7722 50.3584 73.7112 50.3138 73.6689 50.2592C73.6267 50.2047 73.6042 50.1418 73.6035 50.0755L73.6135 49.0755C73.6135 49.0232 73.6 48.9718 73.5737 48.9251C73.5475 48.8784 73.5093 48.8375 73.4617 48.8051C73.4141 48.7728 73.3582 48.7498 73.2981 48.7378C73.238 48.7257 73.175 48.725 73.1135 48.7355C71.1935 49.1022 69.6935 50.0588 68.6135 51.6055ZM93.4335 53.4455C92.3135 53.1589 91.3535 53.4289 90.5535 54.2555C89.8735 54.9689 89.9769 55.2255 90.8635 55.0255L93.4435 54.4355C94.8035 54.1222 94.8001 53.7922 93.4335 53.4455ZM109.354 70.3355C109.354 69.699 109.101 69.0885 108.651 68.6385C108.201 68.1884 107.59 67.9355 106.953 67.9355C106.317 67.9355 105.707 68.1884 105.256 68.6385C104.806 69.0885 104.553 69.699 104.553 70.3355C104.553 70.9721 104.806 71.5825 105.256 72.0326C105.707 72.4826 106.317 72.7355 106.953 72.7355C107.59 72.7355 108.201 72.4826 108.651 72.0326C109.101 71.5825 109.354 70.9721 109.354 70.3355ZM31.6779 74.0761C31.6487 73.8072 31.5508 73.5484 31.3899 73.3144C31.229 73.0805 31.0083 72.876 30.7402 72.7127C30.4722 72.5494 30.1621 72.4304 29.8276 72.3626C29.4932 72.2948 29.1409 72.2795 28.791 72.3175C28.0844 72.3943 27.4302 72.6837 26.9723 73.122C26.5144 73.5604 26.2902 74.1118 26.3492 74.6549C26.3784 74.9239 26.4762 75.1827 26.6371 75.4167C26.798 75.6506 27.0188 75.855 27.2869 76.0183C27.5549 76.1816 27.865 76.3006 28.1995 76.3684C28.5339 76.4362 28.8862 76.4516 29.2361 76.4135C29.9427 76.3368 30.5969 76.0474 31.0548 75.609C31.5127 75.1707 31.7369 74.6193 31.6779 74.0761ZM17.1962 80.7974C17.3605 80.8651 17.5914 80.7518 17.8384 80.4824C18.0853 80.213 18.328 79.8095 18.5129 79.3608C18.6979 78.9121 18.81 78.4549 18.8246 78.0898C18.8392 77.7246 18.7552 77.4814 18.5909 77.4136C18.4267 77.3459 18.1956 77.4593 17.9486 77.7287C17.7017 77.9981 17.4591 78.4015 17.2742 78.8503C17.0892 79.2989 16.977 79.7561 16.9624 80.1212C16.9478 80.4864 17.0319 80.7296 17.1962 80.7974Z" fill="#1A285D"/>
<path d="M68.6133 53.0254V51.6054C69.6933 50.0587 71.1933 49.1021 73.1133 48.7354C73.1748 48.7249 73.2377 48.7256 73.2979 48.7377C73.358 48.7497 73.4138 48.7727 73.4614 48.805C73.509 48.8374 73.5473 48.8783 73.5735 48.925C73.5997 48.9717 73.6133 49.0231 73.6133 49.0754L73.6033 50.0754C73.604 50.1417 73.6264 50.2046 73.6687 50.2591C73.711 50.3137 73.7719 50.3583 73.8468 50.3894C73.9217 50.4205 74.0083 50.4372 74.0997 50.4383C74.1912 50.4393 74.2848 50.4247 74.3733 50.3954C75.8133 49.9288 76.8133 50.3021 77.3733 51.5154C77.4117 51.6013 77.4646 51.6803 77.5281 51.7468C77.5916 51.8133 77.6641 51.8656 77.7405 51.9C77.8169 51.9344 77.8954 51.95 77.9702 51.9458C78.045 51.9415 78.1144 51.9175 78.1733 51.8754L80.0632 50.5154C80.2077 50.4139 80.3577 50.3404 80.4993 50.302C80.6409 50.2635 80.7695 50.2613 80.8733 50.2954L84.6133 51.5554C84.8243 51.6265 85.0108 51.7223 85.1495 51.8308C85.2883 51.9393 85.3731 52.0556 85.3933 52.1654C85.5733 53.2654 82.1633 51.5554 81.8333 51.4354C81.6335 51.3643 81.4302 51.3375 81.2549 51.3592C81.0796 51.3809 80.942 51.4499 80.8633 51.5554C79.8966 52.8487 78.6533 53.2587 77.1333 52.7854C77.0365 52.7523 76.9224 52.7773 76.8146 52.8555C76.7067 52.9336 76.6132 53.0588 76.5532 53.2054C75.8199 54.9721 75.3567 55.0021 75.1633 53.2954C75.1418 53.1065 75.0935 52.9323 75.0223 52.7865C74.9512 52.6408 74.8591 52.5274 74.7533 52.4554L72.4532 50.9354C72.406 50.904 72.3484 50.8894 72.2836 50.8926C72.2187 50.8957 72.1481 50.9164 72.0756 50.9536C72.0031 50.9908 71.9301 51.0437 71.8611 51.1092C71.7921 51.1747 71.7283 51.2516 71.6733 51.3354C70.8933 52.5154 69.8733 53.0788 68.6133 53.0254Z" fill="#475179"/>
<path d="M68.6119 51.6055V53.0256C66.8586 52.9056 65.5253 52.0722 64.6119 50.5256C64.5766 50.4648 64.5535 50.3977 64.544 50.3287C64.5344 50.2598 64.5388 50.1905 64.5568 50.1254C64.5747 50.0603 64.6058 50.0008 64.6481 49.9509C64.6903 49.9009 64.7427 49.8616 64.8019 49.8356C65.5819 49.4756 67.8119 51.1655 68.6119 51.6055Z" fill="#757AA0"/>
<path d="M93.4321 53.4457C94.7987 53.7923 94.8021 54.1223 93.4421 54.4357L90.8621 55.0257C89.9755 55.2257 89.8721 54.969 90.5521 54.2557C91.3521 53.429 92.3121 53.159 93.4321 53.4457Z" fill="#535E88"/>
<path d="M106.955 72.7355C108.28 72.7355 109.355 71.6611 109.355 70.3356C109.355 69.0101 108.28 67.9355 106.955 67.9355C105.629 67.9355 104.555 69.0101 104.555 70.3356C104.555 71.6611 105.629 72.7355 106.955 72.7355Z" fill="#E9E9FC"/>
<path d="M29.2343 76.4134C30.7057 76.2535 31.799 75.2071 31.6761 74.076C31.5533 72.945 30.2608 72.1576 28.7893 72.3175C27.3179 72.4773 26.2246 73.5238 26.3475 74.6549C26.4704 75.7859 27.7628 76.5732 29.2343 76.4134Z" fill="#E2F1F7"/>
<path d="M17.2747 78.8502C16.8895 79.7847 16.8547 80.6565 17.1968 80.7975C17.5389 80.9385 18.1284 80.2953 18.5136 79.3609C18.8987 78.4264 18.9336 77.5546 18.5915 77.4136C18.2494 77.2726 17.6598 77.9158 17.2747 78.8502Z" fill="#475179"/>
<path d="M97.5026 138.455C80.1426 151.925 62.1526 133.125 70.5726 115.525C78.3626 99.2354 103.873 108.115 103.793 125.315C103.773 130.842 101.676 135.222 97.5026 138.455ZM79.1926 119.945C78.8659 119.285 78.2459 119.085 77.3326 119.345C76.5726 119.559 76.6427 119.865 77.5427 120.265L79.9626 121.345C80.0913 121.402 80.225 121.428 80.3402 121.421C80.4553 121.414 80.5447 121.373 80.5926 121.305L83.6727 117.135C83.8526 116.885 83.9278 116.566 83.8826 116.245C83.6693 114.672 82.9193 113.445 81.6326 112.565C81.4762 112.456 81.3059 112.378 81.1334 112.339C80.9608 112.299 80.79 112.298 80.6326 112.335C79.8593 112.529 79.2894 112.955 78.9227 113.615C78.8494 113.749 78.8127 113.901 78.8162 114.055C78.8197 114.21 78.8632 114.361 78.9426 114.495C79.3559 115.175 79.7627 115.222 80.1627 114.635C80.2025 114.576 80.254 114.526 80.314 114.488C80.3741 114.449 80.4412 114.424 80.5116 114.413C80.5819 114.401 80.6538 114.405 80.7227 114.422C80.7917 114.44 80.8564 114.472 80.9127 114.515C81.546 115.002 82.0293 115.599 82.3626 116.305C82.3885 116.356 82.368 116.474 82.3045 116.641C82.2411 116.808 82.1384 117.013 82.0127 117.225L80.3226 120.025C79.9293 120.685 79.5526 120.659 79.1926 119.945ZM74.5327 123.115C74.6182 123.114 74.7023 123.093 74.7784 123.054C74.8545 123.015 74.9207 122.959 74.9719 122.89C75.0231 122.822 75.0578 122.743 75.0736 122.658C75.0893 122.574 75.0855 122.488 75.0626 122.405C73.8526 118.105 71.0627 123.245 74.5327 123.115ZM83.1622 126.044C83.2866 125.991 83.3175 125.732 83.248 125.326C83.1785 124.919 83.0144 124.397 82.7917 123.875C82.569 123.353 82.3061 122.874 82.0606 122.542C81.8152 122.21 81.6074 122.054 81.483 122.107C81.3586 122.16 81.3278 122.418 81.3973 122.825C81.4668 123.232 81.6308 123.753 81.8535 124.275C82.0761 124.797 82.3391 125.277 82.5846 125.609C82.83 125.94 83.0378 126.097 83.1622 126.044ZM76.3126 124.205C77.2526 124.445 78.0093 124.132 78.5826 123.265C78.8693 122.825 78.7893 122.665 78.3426 122.785L76.3526 123.305C75.186 123.612 75.1726 123.912 76.3126 124.205ZM70.3927 123.885C70.186 123.979 70.0126 124.122 69.8726 124.315C69.7811 124.442 69.7397 124.598 69.7563 124.755C69.7729 124.911 69.8463 125.057 69.9626 125.165C70.8293 125.952 71.1793 125.732 71.0127 124.505C70.9983 124.405 70.9692 124.306 70.9276 124.216C70.886 124.126 70.833 124.048 70.7729 123.988C70.7128 123.927 70.6471 123.887 70.5811 123.869C70.5151 123.851 70.4506 123.857 70.3927 123.885ZM76.4526 128.265C76.5459 125.839 75.7459 125.072 74.0526 125.965C74 125.994 73.955 126.034 73.9206 126.083C73.8862 126.132 73.8633 126.189 73.8537 126.249C73.8441 126.31 73.8481 126.372 73.8652 126.432C73.8823 126.492 73.9121 126.548 73.9526 126.595C75.2126 128.125 76.5426 131.465 79.0826 130.935C79.2491 130.9 79.3994 130.829 79.5124 130.73C79.6254 130.631 79.6954 130.511 79.7126 130.385C79.8259 129.559 80.2926 129.119 81.1126 129.065C81.1963 129.058 81.2805 129.038 81.3571 129.005C81.4338 128.972 81.5002 128.929 81.5504 128.879C81.6005 128.828 81.6326 128.773 81.6435 128.718C81.6544 128.664 81.6437 128.611 81.6126 128.565C81.366 128.192 81.286 127.775 81.3726 127.315C81.3975 127.192 81.354 127.054 81.2497 126.924C81.1455 126.794 80.9871 126.681 80.8026 126.605L78.1727 125.535C78.0838 125.5 77.9903 125.476 77.8989 125.466C77.8075 125.455 77.7203 125.458 77.6439 125.474C77.5674 125.49 77.5035 125.52 77.4566 125.56C77.4097 125.6 77.381 125.649 77.3726 125.705C77.2126 126.545 80.0527 126.025 79.6427 128.495C79.6173 128.653 79.5495 128.797 79.452 128.9C79.3545 129.003 79.2339 129.058 79.1126 129.055L76.9326 128.995C76.8007 128.991 76.6762 128.912 76.5863 128.775C76.4963 128.639 76.4483 128.455 76.4526 128.265ZM70.6126 127.815C70.2526 128.409 70.2526 128.992 70.6126 129.565C70.6469 129.623 70.6924 129.673 70.7463 129.713C70.8002 129.752 70.8613 129.781 70.926 129.796C70.9907 129.811 71.0575 129.812 71.1223 129.8C71.1871 129.788 71.2484 129.763 71.3026 129.725C72.3626 128.985 72.3527 128.299 71.2727 127.665C71.2179 127.631 71.1571 127.608 71.094 127.597C71.0308 127.586 70.9665 127.588 70.9049 127.602C70.8433 127.616 70.7856 127.642 70.7354 127.678C70.6852 127.715 70.6434 127.762 70.6126 127.815ZM82.5726 131.895C81.6726 131.009 80.9927 131.039 80.5327 131.985C80.4901 132.072 80.4714 132.167 80.4781 132.264C80.4848 132.361 80.5167 132.457 80.5712 132.544C80.6258 132.63 80.7015 132.706 80.7921 132.763C80.8827 132.821 80.9856 132.859 81.0926 132.875L83.6326 133.255C83.7205 133.27 83.816 133.233 83.901 133.151C83.9859 133.07 84.0541 132.95 84.0926 132.815C84.3659 131.842 84.956 131.175 85.8626 130.815C85.9573 130.778 86.0442 130.722 86.1165 130.652C86.1889 130.582 86.2447 130.5 86.2796 130.413C86.3145 130.326 86.3276 130.236 86.3177 130.149C86.3078 130.063 86.2752 129.983 86.2226 129.915C85.4159 128.842 84.3527 128.722 83.0327 129.555C82.9939 129.58 82.9667 129.619 82.9532 129.67C82.9397 129.72 82.9401 129.781 82.9543 129.849C82.9685 129.916 82.9962 129.988 83.0356 130.06C83.075 130.132 83.1251 130.202 83.1826 130.265C83.6759 130.805 83.7093 131.382 83.2827 131.995C83.2518 132.04 83.2076 132.073 83.1533 132.092C83.099 132.111 83.0358 132.116 82.9682 132.106C82.9006 132.097 82.8301 132.073 82.7618 132.037C82.6935 132 82.6289 131.952 82.5726 131.895ZM73.9326 132.715C72.3992 132.669 72.0127 133.289 72.7727 134.575C72.8514 134.704 72.9708 134.802 73.1099 134.852C73.249 134.901 73.3988 134.899 73.5327 134.845C74.3727 134.505 74.7193 133.965 74.5726 133.225C74.547 133.087 74.4698 132.961 74.3535 132.868C74.2372 132.776 74.0887 132.722 73.9326 132.715ZM80.0526 138.305C80.1878 138.405 80.3444 138.472 80.5101 138.501C80.6758 138.529 80.8461 138.519 81.0078 138.471C81.1694 138.422 81.3181 138.337 81.4421 138.222C81.5661 138.106 81.6621 137.964 81.7226 137.805C82.5426 135.655 76.0626 135.425 80.0526 138.305Z" fill="#232F5F"/>
<path d="M79.1944 119.945C79.5544 120.659 79.931 120.685 80.3244 120.025L82.0144 117.225C82.1402 117.014 82.2429 116.808 82.3063 116.641C82.3698 116.474 82.3903 116.356 82.3644 116.305C82.0311 115.599 81.5478 115.002 80.9145 114.515C80.8582 114.472 80.7935 114.44 80.7245 114.422C80.6555 114.405 80.5837 114.401 80.5133 114.413C80.443 114.424 80.3759 114.449 80.3158 114.488C80.2558 114.526 80.2043 114.576 80.1645 114.635C79.7645 115.222 79.3577 115.175 78.9444 114.495C78.865 114.361 78.8215 114.21 78.818 114.055C78.8145 113.901 78.8512 113.749 78.9245 113.615C79.2911 112.955 79.8611 112.529 80.6344 112.335C80.7918 112.298 80.9626 112.299 81.1352 112.339C81.3077 112.378 81.478 112.456 81.6344 112.565C82.9211 113.445 83.6711 114.672 83.8844 116.245C83.9296 116.566 83.8543 116.885 83.6745 117.135L80.5944 121.305C80.5465 121.373 80.4571 121.414 80.342 121.421C80.2268 121.428 80.0931 121.402 79.9644 121.345L77.5445 120.265C76.6445 119.865 76.5744 119.559 77.3344 119.345C78.2477 119.085 78.8677 119.285 79.1944 119.945Z" fill="#475179"/>
<path d="M74.5351 123.116C71.0651 123.246 73.855 118.106 75.065 122.406C75.0879 122.488 75.0917 122.575 75.076 122.659C75.0602 122.743 75.0255 122.822 74.9743 122.891C74.9231 122.959 74.857 123.015 74.7808 123.054C74.7047 123.093 74.6206 123.114 74.5351 123.116Z" fill="#757AA0"/>
<path d="M81.8545 124.275C82.3182 125.362 82.9041 126.154 83.1632 126.044C83.4223 125.933 83.2564 124.962 82.7927 123.875C82.329 122.788 81.7431 121.996 81.484 122.107C81.2249 122.217 81.3908 123.188 81.8545 124.275Z" fill="#535E88"/>
<path d="M76.3138 124.206C75.1738 123.912 75.1872 123.612 76.3539 123.306L78.3439 122.786C78.7905 122.666 78.8705 122.826 78.5839 123.266C78.0105 124.132 77.2538 124.446 76.3138 124.206Z" fill="#616993"/>
<path d="M71.0138 124.505C71.1805 125.732 70.8304 125.952 69.9638 125.165C69.8475 125.057 69.7741 124.911 69.7575 124.755C69.7409 124.598 69.7823 124.442 69.8738 124.315C70.0138 124.122 70.1872 123.979 70.3938 123.885C70.4518 123.857 70.5163 123.851 70.5823 123.869C70.6483 123.887 70.714 123.927 70.7741 123.987C70.8342 124.048 70.8872 124.126 70.9287 124.216C70.9703 124.305 70.9995 124.405 71.0138 124.505Z" fill="#616993"/>
<path d="M76.9316 128.995L79.1117 129.055C79.233 129.058 79.3535 129.003 79.451 128.9C79.5485 128.797 79.6163 128.653 79.6417 128.495C80.0517 126.025 77.2117 126.546 77.3717 125.706C77.3801 125.649 77.4088 125.6 77.4557 125.56C77.5026 125.52 77.5665 125.491 77.6429 125.474C77.7194 125.458 77.8065 125.455 77.8979 125.466C77.9893 125.476 78.0829 125.5 78.1717 125.535L80.8016 126.605C80.9861 126.681 81.1445 126.794 81.2488 126.924C81.353 127.054 81.3966 127.193 81.3717 127.315C81.285 127.775 81.365 128.192 81.6117 128.565C81.6428 128.611 81.6535 128.664 81.6426 128.719C81.6317 128.773 81.5995 128.829 81.5494 128.879C81.4993 128.929 81.4328 128.972 81.3562 129.005C81.2796 129.038 81.1954 129.059 81.1117 129.065C80.2917 129.119 79.825 129.559 79.7117 130.385C79.6944 130.511 79.6244 130.632 79.5115 130.73C79.3985 130.829 79.2482 130.901 79.0816 130.935C76.5416 131.465 75.2116 128.126 73.9516 126.596C73.9112 126.548 73.8813 126.492 73.8642 126.432C73.8471 126.372 73.8432 126.31 73.8528 126.249C73.8624 126.189 73.8852 126.132 73.9197 126.083C73.9541 126.034 73.9991 125.994 74.0516 125.966C75.745 125.072 76.545 125.839 76.4516 128.265C76.4474 128.455 76.4954 128.639 76.5853 128.776C76.6752 128.912 76.7997 128.991 76.9316 128.995Z" fill="#616993"/>
<path d="M70.6138 127.815C70.6445 127.762 70.6864 127.715 70.7366 127.679C70.7868 127.642 70.8444 127.616 70.906 127.602C70.9676 127.588 71.0319 127.586 71.0951 127.597C71.1583 127.608 71.2191 127.631 71.2738 127.665C72.3538 128.299 72.3637 128.985 71.3037 129.725C71.2495 129.763 71.1882 129.788 71.1234 129.8C71.0586 129.812 70.9918 129.811 70.9271 129.796C70.8624 129.781 70.8013 129.753 70.7474 129.713C70.6935 129.673 70.648 129.623 70.6138 129.565C70.2537 128.992 70.2537 128.409 70.6138 127.815Z" fill="#616993"/>
<path d="M83.2825 131.996C83.7091 131.382 83.6757 130.806 83.1824 130.266C83.1249 130.202 83.0748 130.132 83.0354 130.06C82.996 129.988 82.9683 129.916 82.9541 129.849C82.9399 129.782 82.9395 129.721 82.953 129.67C82.9665 129.619 82.9936 129.58 83.0325 129.556C84.3525 128.722 85.4157 128.842 86.2224 129.916C86.275 129.983 86.3076 130.063 86.3175 130.149C86.3274 130.236 86.3143 130.326 86.2794 130.413C86.2445 130.501 86.1887 130.582 86.1163 130.652C86.044 130.722 85.9571 130.778 85.8624 130.816C84.9558 131.176 84.3657 131.842 84.0924 132.816C84.0539 132.951 83.9857 133.07 83.9007 133.152C83.8158 133.233 83.7203 133.27 83.6324 133.256L81.0924 132.876C80.9854 132.86 80.8824 132.821 80.7919 132.763C80.7013 132.706 80.6256 132.631 80.571 132.544C80.5165 132.457 80.4846 132.361 80.4779 132.264C80.4712 132.167 80.4899 132.072 80.5325 131.986C80.9925 131.039 81.6724 131.009 82.5724 131.896C82.6287 131.952 82.6933 132 82.7616 132.037C82.8299 132.073 82.9004 132.097 82.968 132.107C83.0356 132.116 83.0988 132.111 83.1531 132.092C83.2074 132.073 83.2515 132.04 83.2825 131.996Z" fill="#616993"/>
<path d="M74.5723 133.225C74.7189 133.965 74.3724 134.505 73.5324 134.845C73.3985 134.899 73.2487 134.901 73.1096 134.852C72.9705 134.802 72.8511 134.704 72.7723 134.575C72.0123 133.289 72.3989 132.669 73.9323 132.715C74.0884 132.722 74.2369 132.776 74.3532 132.868C74.4694 132.961 74.5466 133.087 74.5723 133.225Z" fill="#A69AB7"/>
<path d="M80.0514 138.306C76.0614 135.426 82.5415 135.656 81.7215 137.806C81.661 137.964 81.565 138.106 81.441 138.222C81.317 138.337 81.1683 138.422 81.0066 138.471C80.845 138.519 80.6747 138.529 80.509 138.501C80.3433 138.472 80.1867 138.405 80.0514 138.306Z" fill="#616993"/>
<path d="M19.8616 157.775C17.4682 156.969 15.4649 155.822 13.8516 154.335C14.7182 149.909 16.2249 145.722 18.3716 141.775C18.4579 141.621 18.5685 141.491 18.694 141.395C18.8194 141.299 18.9559 141.241 19.0916 141.225C21.3616 140.995 19.9716 155.875 19.8616 157.775Z" fill="#36406C"/>
<path d="M13.8521 154.336C15.4654 155.822 17.4688 156.969 19.8621 157.776C21.8621 162.656 25.3121 164.266 29.1021 167.026C29.2259 167.117 29.3205 167.241 29.3739 167.38C29.4273 167.518 29.4372 167.667 29.4021 167.806C28.5221 171.276 21.7721 168.576 19.3521 168.046C19.0259 167.974 18.6918 167.998 18.3921 168.116C13.0521 170.216 11.3521 172.776 8.09207 176.436C5.90207 178.886 3.75203 177.566 4.93203 174.376C6.49203 170.189 6.70873 165.889 5.58206 161.476C5.54429 161.327 5.47327 161.187 5.37344 161.063C5.27361 160.939 5.14719 160.834 5.0021 160.756C2.6721 159.466 -2.41792 153.916 4.48208 154.096C7.46208 154.169 10.5854 154.249 13.8521 154.336ZM10.9857 156.639C10.9049 156.545 10.6806 156.579 10.3621 156.734C10.0436 156.889 9.65708 157.153 9.2875 157.468C9.10449 157.623 8.93115 157.787 8.77737 157.949C8.6236 158.111 8.49239 158.268 8.39126 158.411C8.29014 158.555 8.22109 158.681 8.18802 158.784C8.15494 158.887 8.15851 158.965 8.19851 159.012C8.27935 159.107 8.5037 159.073 8.82217 158.917C9.14064 158.762 9.52706 158.498 9.89663 158.183C10.0797 158.028 10.253 157.864 10.4068 157.702C10.5605 157.54 10.6918 157.383 10.7929 157.24C10.894 157.097 10.9632 156.97 10.9962 156.867C11.0293 156.764 11.0258 156.686 10.9857 156.639Z" fill="#232F5F"/>
<path d="M9.89738 158.183C10.6671 157.528 11.1546 156.837 10.9864 156.639C10.8181 156.441 10.0578 156.812 9.28815 157.467C8.51847 158.122 8.03091 158.814 8.19915 159.011C8.36738 159.209 9.12771 158.838 9.89738 158.183Z" fill="#A69AB7"/>
<path d="M86.9924 189.646C85.5924 188.799 85.3257 187.626 86.1924 186.126L87.9424 183.116C88.098 182.843 88.1614 182.477 88.1224 182.076C87.8691 179.629 88.7223 177.749 90.6823 176.436C92.2357 175.389 93.5191 175.619 94.5324 177.126C96.1858 179.586 98.3558 181.499 101.042 182.866C101.371 183.031 101.627 183.312 101.761 183.657C101.896 184.002 101.9 184.386 101.772 184.736C98.9924 192.406 93.9824 193.846 86.9924 189.646Z" fill="#1A285D"/>
</svg>
