<svg width="72" height="83" viewBox="0 0 72 83" fill="none" xmlns="http://www.w3.org/2000/svg">
<path d="M24.7342 80.9331C12.5242 76.9631 5.80423 70.5931 1.02423 58.7031C-0.685766 54.4531 0.264214 46.2531 0.254214 41.5231C0.234214 34.8431 3.10421 28.0231 4.43421 21.5031C4.73421 20.0431 6.36422 16.8231 9.32422 11.8431C10.8109 9.33644 13.6842 6.8631 17.9442 4.4231C22.8642 1.6031 28.8276 0.129781 35.8342 0.00311454C39.2742 -0.0568855 42.8742 0.763101 46.4142 1.3331C53.1842 2.4131 60.2542 6.30309 64.5542 12.3531C65.2742 13.3631 66.4442 13.7431 66.3642 15.4231C66.3513 15.7683 66.4244 16.0885 66.5742 16.3431C73.7042 28.4931 73.3442 45.7731 66.4642 57.7731C65.6709 59.1598 65.0175 60.6131 64.5042 62.1331C63.2942 65.7031 60.6042 68.8431 58.1542 71.6331C56.9242 73.0231 56.4142 74.4931 54.9642 75.5731C45.4976 82.6331 35.4209 84.4198 24.7342 80.9331ZM54.258 29.6349C55.1572 29.4973 55.9528 28.929 56.4698 28.0549C56.9868 27.1809 57.1828 26.0728 57.0147 24.9743C56.9315 24.4304 56.7614 23.9052 56.5141 23.4288C56.2668 22.9524 55.9472 22.534 55.5735 22.1976C55.1998 21.8611 54.7794 21.6133 54.3362 21.4681C53.893 21.3228 53.4357 21.2832 52.9904 21.3513C52.0912 21.4889 51.2956 22.0572 50.7786 22.9313C50.2617 23.8053 50.0656 24.9134 50.2337 26.0119C50.3169 26.5558 50.487 27.081 50.7343 27.5574C50.9816 28.0338 51.3012 28.4522 51.6749 28.7886C52.0486 29.1251 52.4691 29.373 52.9123 29.5182C53.3555 29.6634 53.8127 29.703 54.258 29.6349ZM39.1933 27.6443C39.1982 27.5157 39.1778 27.3874 39.1332 27.2667C39.0885 27.146 39.0205 27.0353 38.933 26.9408C38.8456 26.8464 38.7405 26.7701 38.6235 26.7163C38.5066 26.6626 38.3802 26.6323 38.2516 26.6274L36.7128 26.5683C36.5842 26.5634 36.4559 26.5838 36.3352 26.6285C36.2145 26.6731 36.1038 26.7411 36.0093 26.8286C35.9149 26.916 35.8386 27.0212 35.7849 27.1381C35.7311 27.255 35.7009 27.3814 35.6959 27.51L35.2751 38.4619C35.2701 38.5905 35.2906 38.7188 35.3353 38.8395C35.3799 38.9602 35.4479 39.071 35.5353 39.1654C35.6228 39.2598 35.728 39.3361 35.8449 39.3899C35.9618 39.4436 36.0882 39.4739 36.2168 39.4788L37.7556 39.5379C37.8842 39.5428 38.0125 39.5224 38.1332 39.4778C38.2539 39.4331 38.3647 39.3651 38.4591 39.2777C38.5535 39.1902 38.6298 39.085 38.6836 38.9681C38.7374 38.8512 38.7676 38.7248 38.7725 38.5962L39.1933 27.6443ZM25.3442 52.5631C22.6242 53.6031 22.5509 54.8998 25.1242 56.4531C28.4542 58.4631 32.6742 61.5431 36.7342 60.5031C41.4209 59.2964 45.1242 56.7064 47.8442 52.7331C47.9366 52.5943 47.9966 52.4409 48.0192 52.2859C48.0419 52.131 48.0264 51.9791 47.9742 51.8431C47.5742 50.7564 46.7642 50.3998 45.5442 50.7731C46.2042 49.3664 46.5242 47.8831 46.5042 46.3231C46.5014 46.1233 46.4585 45.9346 46.3806 45.7789C46.3027 45.6231 46.193 45.5067 46.0642 45.4431C45.6642 45.2431 45.2275 45.1898 44.7542 45.2831C44.5907 45.3147 44.4401 45.3721 44.3124 45.4515C44.1848 45.5308 44.0831 45.6303 44.0142 45.7431C42.5442 48.1931 40.0042 51.8831 37.1142 52.6731C33.0342 53.7931 29.7742 49.7031 25.8742 49.5631C23.7609 49.4898 23.5842 50.4898 25.3442 52.5631Z" fill="#FDCD4A"/>
<path d="M54.2549 29.6348C53.8097 29.7029 53.3524 29.6633 52.9092 29.5181C52.466 29.3729 52.0455 29.125 51.6718 28.7886C51.2981 28.4521 50.9785 28.0338 50.7312 27.5573C50.4839 27.0809 50.3138 26.5557 50.2306 26.0118C50.0625 24.9134 50.2586 23.8052 50.7755 22.9312C51.2925 22.0572 52.0881 21.4888 52.9873 21.3512C53.4326 21.2831 53.8899 21.3228 54.3331 21.468C54.7763 21.6132 55.1967 21.8611 55.5704 22.1975C55.9441 22.5339 56.2637 22.9523 56.511 23.4287C56.7583 23.9052 56.9284 24.4303 57.0116 24.9742C57.1797 26.0727 56.9837 27.1808 56.4667 28.0549C55.9497 28.9289 55.1541 29.4972 54.2549 29.6348Z" fill="#2D2206"/>
<path d="M38.7716 38.596C38.7667 38.7246 38.7364 38.851 38.6827 38.9679C38.6289 39.0848 38.5526 39.19 38.4582 39.2775C38.3638 39.3649 38.253 39.4329 38.1323 39.4776C38.0116 39.5222 37.8833 39.5427 37.7547 39.5377L36.2159 39.4786C36.0873 39.4737 35.9609 39.4434 35.844 39.3897C35.7271 39.3359 35.6219 39.2596 35.5344 39.1652C35.447 39.0708 35.379 38.96 35.3343 38.8393C35.2897 38.7186 35.2692 38.5903 35.2742 38.4617L35.695 27.5098C35.6999 27.3812 35.7301 27.2548 35.7839 27.1379C35.8377 27.021 35.914 26.9158 36.0084 26.8284C36.1028 26.7409 36.2136 26.6729 36.3343 26.6283C36.455 26.5836 36.5833 26.5632 36.7119 26.5681L38.2507 26.6272C38.3793 26.6322 38.5057 26.6624 38.6226 26.7161C38.7395 26.7699 38.8447 26.8462 38.9321 26.9406C39.0196 27.0351 39.0876 27.1458 39.1323 27.2665C39.1769 27.3872 39.1973 27.5155 39.1924 27.6441L38.7716 38.596Z" fill="#2D2206"/>
<path d="M45.5441 50.7728C41.2041 59.6328 31.1641 60.3628 25.3441 52.5628C23.5841 50.4895 23.7608 49.4895 25.8741 49.5628C29.7741 49.7028 33.0341 53.7928 37.1141 52.6728C40.0041 51.8828 42.5441 48.1928 44.0141 45.7428C44.083 45.63 44.1847 45.5305 44.3123 45.4512C44.44 45.3718 44.5906 45.3144 44.7541 45.2828C45.2274 45.1895 45.6641 45.2428 46.0641 45.4428C46.1929 45.5064 46.3026 45.6228 46.3805 45.7786C46.4584 45.9343 46.5012 46.123 46.5041 46.3228C46.5241 47.8828 46.2041 49.3661 45.5441 50.7728Z" fill="#2D2206"/>
<path d="M25.3426 52.5631C31.1626 60.3631 41.2026 59.6331 45.5426 50.7731C46.7626 50.3997 47.5726 50.7564 47.9726 51.8431C48.0248 51.9791 48.0403 52.131 48.0176 52.2859C47.995 52.4409 47.935 52.5942 47.8426 52.7331C45.1226 56.7064 41.4193 59.2964 36.7326 60.5031C32.6726 61.5431 28.4526 58.4631 25.1226 56.4531C22.5493 54.8997 22.6226 53.6031 25.3426 52.5631Z" fill="#F3D262"/>
</svg>
