<svg width="151" height="317" viewBox="0 0 151 317" fill="none" xmlns="http://www.w3.org/2000/svg">
<path d="M22.8044 314.195C22.5226 313.99 22.3009 313.713 22.1621 313.393C22.0232 313.073 21.9722 312.722 22.0144 312.375C22.7744 305.795 28.6544 298.545 32.4444 293.245C32.595 293.031 32.7447 292.839 32.8696 292.7C32.9945 292.56 33.0876 292.481 33.1344 292.475C35.2544 292.109 37.1977 291.305 38.9644 290.065C39.0562 290.004 39.1951 289.985 39.3629 290.012C39.5306 290.039 39.7194 290.11 39.9044 290.215C41.7644 291.255 42.5243 292.865 41.5543 294.955C39.041 300.402 36.0744 305.572 32.6544 310.465C29.5144 314.945 28.3344 318.255 22.8044 314.195Z" fill="#181D42"/>
<path d="M24.569 125.219C24.089 126.489 22.439 128.729 21.219 129.799C8.39902 141.039 -4.121 157.149 3.139 174.269C4.21234 176.802 7.37232 181.509 12.619 188.389C28.419 209.109 45.599 233.619 51.359 258.539C51.5513 259.347 51.4185 260.201 50.989 260.919C47.249 267.219 44.639 270.799 48.799 278.009C48.8299 278.064 48.8722 278.111 48.9232 278.148C48.9741 278.186 49.0325 278.212 49.0947 278.225C49.1569 278.238 49.2215 278.238 49.2842 278.225C49.3469 278.212 49.4065 278.186 49.459 278.149C51.2057 276.929 52.2756 276.029 52.669 275.449C58.209 267.262 64.299 261.202 70.939 257.269C102.329 238.669 160.849 209.699 147.699 162.809C143.549 148.049 133.969 138.359 119.999 131.979C115.619 129.979 108.599 127.409 110.929 122.739C113.242 118.112 114.659 115.012 115.179 113.439C120.329 97.9691 106.079 87.6691 95.519 80.1891C66.439 59.6191 77.129 31.349 89.769 5.34904C90.289 4.28237 90.579 3.43572 90.639 2.80906C91.249 -3.89094 73.839 10.029 71.719 12.039C60.819 22.359 51.499 35.5691 43.339 48.1391C39.5657 53.9457 36.3523 58.4624 33.699 61.6891C24.729 72.5891 -0.420994 94.2291 10.079 109.569C12.839 113.599 18.899 117.339 23.309 120.789C24.809 121.956 25.229 123.432 24.569 125.219Z" stroke="#FEA9A0" stroke-width="2"/>
<path d="M66.4316 202.59C64.4849 202.383 64.1483 201.536 65.4216 200.05C68.5883 196.35 71.475 192.92 74.0816 189.76C78.8316 184.02 81.4616 179.12 75.2116 173.41C73.7116 172.03 71.9783 171.08 70.0116 170.56C61.8016 168.38 52.2816 163.74 46.7916 157.56C36.1216 145.55 37.5416 128.77 47.9216 117.17C49.0616 115.896 49.2983 114.473 48.6316 112.9C46.5516 107.99 37.4316 104.36 32.9516 101.7C26.9583 98.1329 24.1083 92.7962 24.4016 85.6895C24.4483 84.5762 24.135 84.4662 23.4616 85.3595C20.4683 89.3795 18.1016 93.7462 16.3616 98.4596C14.9216 102.36 15.3616 104.79 18.8216 107.02C22.4816 109.37 29.7917 114.06 32.5917 118.34C40.3316 130.16 28.4316 138.85 20.6816 146.15C14.9916 151.5 7.17163 160.66 8.82163 169.06C9.1683 170.813 10.3516 173.07 12.3716 175.83C22.2983 189.376 32.6416 204.566 43.4016 221.4C48.515 229.4 52.535 237.43 55.4616 245.49C56.4316 248.17 56.7916 251.48 57.5716 254.41C57.5842 254.464 57.61 254.515 57.6468 254.557C57.6837 254.599 57.7305 254.632 57.7834 254.653C57.8363 254.673 57.8937 254.681 57.9508 254.675C58.0079 254.669 58.063 254.65 58.1116 254.62C84.5316 237.38 118.022 223.74 134.942 192.51C142.602 178.38 141.632 159.2 128.152 148.8C119.582 142.19 99.3616 139.14 99.4616 124.92C99.5016 118.62 105.412 113.46 105.212 107.04C105.012 100.56 99.0917 95.4195 93.8417 92.0695C86.3517 87.2895 79.5417 81.9395 74.7217 74.4995C65.5617 60.3329 63.5683 44.7295 68.7416 27.6895C68.7935 27.5122 68.8051 27.3333 68.7745 27.1788C68.744 27.0243 68.6729 26.902 68.5716 26.8296C66.6816 25.4996 53.7316 48.2096 51.4516 52.3896C46.9983 60.5296 42.0283 68.3462 36.5416 75.8396C20.2716 98.0496 61.1616 96.6395 58.6216 117.67C58.2416 120.83 55.9916 123.86 54.2916 126.7C47.0016 138.93 48.6516 150.54 62.3216 156.98C66.8316 159.11 74.0716 160.59 79.2916 163.45C90.0816 169.37 92.0416 182.1 84.4816 191.02C82.4816 193.39 70.5916 203.03 66.4316 202.59Z" stroke="#FEA9A0" stroke-width="2"/>
<path d="M68.8494 218.769C65.3228 212.769 60.9262 207.479 55.6595 202.899C54.5995 201.986 54.2795 200.869 54.6995 199.549C55.6995 196.389 57.3895 193.239 57.1195 189.909C55.8295 174.219 41.9295 173.059 30.9195 164.479C27.6461 161.926 24.6295 159.079 21.8695 155.939C21.7654 155.821 21.6365 155.727 21.4918 155.664C21.3472 155.601 21.1904 155.571 21.0327 155.575C20.875 155.58 20.7203 155.62 20.5797 155.691C20.4391 155.763 20.3162 155.865 20.2195 155.989C11.1195 167.609 33.9895 178.089 41.6295 181.769C44.6895 183.239 49.5995 186.999 47.6095 190.909C43.7961 198.436 44.9795 204.769 51.1595 209.909C58.1928 215.763 63.4261 222.936 66.8595 231.429C66.9108 231.555 66.9896 231.669 67.09 231.761C67.1904 231.853 67.3099 231.921 67.44 231.961C67.5701 232.001 67.7076 232.012 67.8424 231.993C67.9772 231.974 68.106 231.924 68.2195 231.849C88.1595 218.699 135.459 196.559 125.859 167.449C123.089 159.029 115.669 152.019 107.889 147.729C100.659 143.739 88.1395 142.109 81.2995 135.749C77.8595 132.549 78.5195 129.399 81.1195 125.729C84.9595 120.296 85.5461 114.469 82.8795 108.249C78.2195 97.3693 68.7295 91.8593 59.1995 85.3593C52.3195 80.6693 57.2095 73.5093 59.9995 67.1493C62.1695 62.2193 62.9795 58.9493 60.9895 54.2093C60.1761 52.2627 59.2128 52.186 58.0994 53.9793C49.4894 67.8493 39.6395 83.9793 57.9295 95.8793C65.1995 100.619 70.8695 103.259 73.3795 112.439C73.8128 114.013 73.7162 115.553 73.0895 117.059C68.6495 127.829 64.0795 137.019 75.8195 145.259C80.9861 148.899 85.9228 151.283 90.6295 152.409C106.229 156.159 122.84 165.369 112.22 184.529C103.28 200.649 85.7995 209.709 69.5595 218.939C69.4389 219.009 69.2969 219.03 69.164 218.998C69.0312 218.967 68.9182 218.884 68.8494 218.769Z" stroke="#FEA9A0" stroke-width="2"/>
<path d="M24.5729 125.219C25.2329 123.432 24.8129 121.956 23.3129 120.789C18.9029 117.339 12.8429 113.599 10.0829 109.569C-0.417088 94.2291 24.7329 72.5891 33.7029 61.6891C36.3562 58.4624 39.5696 53.9457 43.3429 48.1391C51.5029 35.5691 60.8229 22.359 71.7229 12.039C73.8429 10.029 91.2529 -3.89094 90.6429 2.80906C90.5829 3.43572 90.2929 4.28237 89.7729 5.34904C77.1329 31.349 66.4429 59.6191 95.5229 80.1891C106.083 87.6691 120.333 97.9691 115.183 113.439C114.663 115.012 113.246 118.112 110.933 122.739C108.603 127.409 115.623 129.979 120.003 131.979C133.973 138.359 143.553 148.049 147.703 162.809C160.853 209.699 102.333 238.669 70.9429 257.269C64.3029 261.202 58.2129 267.262 52.6729 275.449C52.2795 276.029 51.2096 276.929 49.4629 278.149C49.4104 278.186 49.3509 278.212 49.2881 278.225C49.2254 278.238 49.1608 278.238 49.0986 278.225C49.0364 278.212 48.978 278.186 48.9271 278.148C48.8762 278.111 48.8338 278.064 48.8029 278.009C44.6429 270.799 47.2529 267.219 50.9929 260.919C51.4224 260.201 51.5552 259.347 51.3629 258.539C45.6029 233.619 28.4229 209.109 12.6229 188.389C7.37622 181.509 4.21624 176.802 3.14291 174.269C-4.11709 157.149 8.40293 141.039 21.2229 129.799C22.4429 128.729 24.0929 126.489 24.5729 125.219ZM66.4329 202.589C64.4862 202.382 64.1495 201.536 65.4229 200.049C68.5895 196.349 71.4762 192.919 74.0829 189.759C78.8329 184.019 81.4629 179.119 75.2129 173.409C73.7129 172.029 71.9796 171.079 70.0129 170.559C61.8029 168.379 52.2829 163.739 46.7929 157.559C36.1229 145.549 37.5429 128.769 47.9229 117.169C49.0629 115.896 49.2996 114.472 48.6329 112.899C46.5529 107.989 37.4329 104.359 32.9529 101.699C26.9596 98.1324 24.1096 92.7957 24.4029 85.6891C24.4496 84.5757 24.1363 84.4657 23.4629 85.359C20.4696 89.379 18.1029 93.7458 16.3629 98.4591C14.9229 102.359 15.3629 104.789 18.8229 107.019C22.4829 109.369 29.7929 114.059 32.5929 118.339C40.3329 130.159 28.4329 138.849 20.6829 146.149C14.9929 151.499 7.1729 160.659 8.8229 169.059C9.16957 170.812 10.3529 173.069 12.3729 175.829C22.2996 189.376 32.6429 204.566 43.4029 221.399C48.5163 229.399 52.5363 237.429 55.4629 245.489C56.4329 248.169 56.7929 251.479 57.5729 254.409C57.5855 254.464 57.6113 254.514 57.6481 254.557C57.6849 254.599 57.7317 254.632 57.7846 254.652C57.8375 254.673 57.8949 254.68 57.9521 254.675C58.0092 254.669 58.0643 254.65 58.1129 254.619C84.5329 237.379 118.023 223.739 134.943 192.509C142.603 178.379 141.633 159.199 128.153 148.799C119.583 142.189 99.3629 139.139 99.4629 124.919C99.5029 118.619 105.413 113.459 105.213 107.039C105.013 100.559 99.0929 95.4191 93.8429 92.0691C86.3529 87.2891 79.5429 81.9391 74.7229 74.4991C65.5629 60.3324 63.5695 44.7291 68.7429 27.6891C68.7948 27.5117 68.8063 27.3328 68.7758 27.1783C68.7452 27.0238 68.6742 26.9015 68.5729 26.8291C66.6829 25.4991 53.7329 48.2091 51.4529 52.3891C46.9996 60.5291 42.0295 68.3458 36.5429 75.8391C20.2729 98.0491 61.1629 96.639 58.6229 117.669C58.2429 120.829 55.9929 123.859 54.2929 126.699C47.0029 138.929 48.6529 150.539 62.3229 156.979C66.8329 159.109 74.0729 160.589 79.2929 163.449C90.0829 169.369 92.0429 182.099 84.4829 191.019C82.4829 193.389 70.5929 203.029 66.4329 202.589Z" fill="#FD5441"/>
<path d="M66.4316 202.59C70.5916 203.03 82.4816 193.39 84.4816 191.02C92.0416 182.1 90.0816 169.37 79.2916 163.45C74.0716 160.59 66.8316 159.11 62.3216 156.98C48.6516 150.54 47.0016 138.93 54.2916 126.7C55.9916 123.86 58.2416 120.83 58.6216 117.67C61.1616 96.6395 20.2716 98.0496 36.5416 75.8396C42.0283 68.3462 46.9983 60.5296 51.4516 52.3896C53.7316 48.2096 66.6816 25.4996 68.5716 26.8296C68.6729 26.902 68.744 27.0243 68.7745 27.1788C68.8051 27.3333 68.7935 27.5122 68.7416 27.6895C63.5683 44.7295 65.5617 60.3329 74.7217 74.4995C79.5417 81.9395 86.3517 87.2896 93.8417 92.0695C99.0917 95.4195 105.012 100.56 105.212 107.04C105.412 113.46 99.5016 118.62 99.4616 124.92C99.3616 139.14 119.582 142.19 128.152 148.8C141.632 159.2 142.602 178.38 134.942 192.51C118.022 223.74 84.5316 237.38 58.1116 254.62C58.063 254.65 58.0079 254.669 57.9508 254.675C57.8937 254.681 57.8363 254.673 57.7834 254.653C57.7305 254.632 57.6837 254.599 57.6468 254.557C57.61 254.515 57.5842 254.464 57.5716 254.41C56.7916 251.48 56.4316 248.17 55.4616 245.49C52.535 237.43 48.515 229.4 43.4016 221.4C32.6416 204.566 22.2983 189.376 12.3716 175.83C10.3516 173.07 9.1683 170.813 8.82163 169.06C7.17163 160.66 14.9916 151.5 20.6816 146.15C28.4316 138.85 40.3316 130.16 32.5917 118.34C29.7917 114.06 22.4816 109.37 18.8216 107.02C15.3616 104.79 14.9216 102.36 16.3616 98.4596C18.1016 93.7462 20.4683 89.3795 23.4616 85.3595C24.135 84.4662 24.4483 84.5762 24.4016 85.6895C24.1083 92.7962 26.9583 98.1329 32.9516 101.7C37.4316 104.36 46.5516 107.99 48.6316 112.9C49.2983 114.473 49.0616 115.896 47.9216 117.17C37.5416 128.77 36.1216 145.55 46.7916 157.56C52.2816 163.74 61.8016 168.38 70.0116 170.56C71.9783 171.08 73.7116 172.03 75.2116 173.41C81.4616 179.12 78.8316 184.02 74.0816 189.76C71.475 192.92 68.5883 196.35 65.4216 200.05C64.1483 201.536 64.4849 202.383 66.4316 202.59ZM68.8516 218.77C65.3249 212.77 60.9283 207.48 55.6617 202.9C54.6017 201.986 54.2816 200.87 54.7016 199.55C55.7016 196.39 57.3916 193.24 57.1216 189.91C55.8316 174.22 41.9316 173.06 30.9216 164.48C27.6483 161.926 24.6316 159.08 21.8716 155.94C21.7676 155.821 21.6387 155.727 21.494 155.664C21.3493 155.601 21.1925 155.571 21.0348 155.576C20.8771 155.58 20.7225 155.62 20.5819 155.692C20.4413 155.763 20.3183 155.865 20.2217 155.99C11.1217 167.61 33.9916 178.09 41.6316 181.77C44.6916 183.24 49.6016 187 47.6116 190.91C43.7983 198.436 44.9817 204.77 51.1617 209.91C58.195 215.763 63.4283 222.936 66.8616 231.43C66.913 231.556 66.9917 231.669 67.0921 231.761C67.1925 231.853 67.3121 231.921 67.4422 231.962C67.5723 232.002 67.7097 232.012 67.8445 231.993C67.9793 231.974 68.1081 231.925 68.2217 231.85C88.1617 218.7 135.462 196.56 125.862 167.45C123.092 159.03 115.672 152.02 107.892 147.73C100.662 143.74 88.1416 142.11 81.3016 135.75C77.8616 132.55 78.5216 129.4 81.1216 125.73C84.9616 120.296 85.5483 114.47 82.8816 108.25C78.2216 97.3695 68.7316 91.8595 59.2016 85.3595C52.3216 80.6695 57.2116 73.5096 60.0016 67.1496C62.1716 62.2196 62.9816 58.9496 60.9916 54.2096C60.1783 52.2629 59.2149 52.1862 58.1016 53.9795C49.4916 67.8495 39.6416 83.9795 57.9316 95.8795C65.2016 100.62 70.8716 103.26 73.3816 112.44C73.815 114.013 73.7183 115.553 73.0917 117.06C68.6517 127.83 64.0816 137.02 75.8216 145.26C80.9883 148.9 85.925 151.283 90.6316 152.41C106.232 156.16 122.842 165.37 112.222 184.53C103.282 200.65 85.8016 209.71 69.5616 218.94C69.4411 219.009 69.299 219.031 69.1662 218.999C69.0333 218.967 68.9203 218.885 68.8516 218.77Z" fill="#FEFEFE"/>
<path d="M69.5634 218.939C85.8034 209.709 103.283 200.649 112.223 184.529C122.843 165.369 106.233 156.159 90.6334 152.409C85.9267 151.283 80.9901 148.899 75.8234 145.259C64.0834 137.019 68.6534 127.829 73.0934 117.059C73.7201 115.553 73.8167 114.013 73.3834 112.439C70.8734 103.259 65.2034 100.619 57.9334 95.8793C39.6434 83.9793 49.4934 67.8493 58.1034 53.9793C59.2167 52.186 60.18 52.2627 60.9934 54.2093C62.9834 58.9493 62.1734 62.2193 60.0034 67.1493C57.2134 73.5093 52.3234 80.6693 59.2034 85.3593C68.7334 91.8593 78.2234 97.3693 82.8834 108.249C85.55 114.469 84.9634 120.296 81.1234 125.729C78.5234 129.399 77.8634 132.549 81.3034 135.749C88.1434 142.109 100.663 143.739 107.893 147.729C115.673 152.019 123.093 159.029 125.863 167.449C135.463 196.559 88.1634 218.699 68.2234 231.849C68.1099 231.924 67.9811 231.974 67.8463 231.993C67.7115 232.012 67.574 232.001 67.4439 231.961C67.3138 231.921 67.1943 231.853 67.0939 231.761C66.9935 231.669 66.9147 231.555 66.8634 231.429C63.43 222.936 58.1967 215.763 51.1634 209.909C44.9834 204.769 43.8 198.436 47.6134 190.909C49.6034 186.999 44.6934 183.239 41.6334 181.769C33.9934 178.089 11.1234 167.609 20.2234 155.989C20.3201 155.865 20.4431 155.763 20.5836 155.691C20.7242 155.62 20.8789 155.58 21.0366 155.575C21.1943 155.571 21.3511 155.601 21.4958 155.664C21.6404 155.727 21.7693 155.821 21.8734 155.939C24.6334 159.079 27.65 161.926 30.9234 164.479C41.9334 173.059 55.8334 174.219 57.1234 189.909C57.3934 193.239 55.7034 196.389 54.7034 199.549C54.2834 200.869 54.6034 201.986 55.6634 202.899C60.9301 207.479 65.3267 212.769 68.8534 218.769C68.9221 218.884 69.0351 218.967 69.1679 218.998C69.3008 219.03 69.4428 219.009 69.5634 218.939Z" fill="#FD5441"/>
</svg>
