<svg width="20" height="22" viewBox="0 0 20 22" fill="none" xmlns="http://www.w3.org/2000/svg">
<path d="M2.26055 13.1609C5.22722 14.1276 6.86055 16.2043 7.16055 19.391C7.17597 19.5559 7.23496 19.7127 7.33253 19.8481C7.43011 19.9835 7.56342 20.0936 7.72124 20.1691C7.87906 20.2445 8.05675 20.2832 8.23937 20.2818C8.42198 20.2804 8.60416 20.2389 8.77055 20.1609L17.4406 16.061C18.8206 15.4076 19.0139 14.5009 18.0206 13.3409C15.3806 10.2476 13.5006 6.75428 12.3806 2.86095C12.3363 2.70664 12.2484 2.55563 12.1226 2.41777C11.9968 2.27992 11.836 2.15834 11.6506 2.06096C10.1639 1.26763 8.77055 1.78094 7.47055 3.60094C5.42389 6.48094 3.57722 9.40764 1.93055 12.381C1.8911 12.4494 1.86838 12.526 1.86405 12.6053C1.85971 12.6846 1.87387 12.7645 1.9055 12.8393C1.93712 12.914 1.98541 12.9817 2.04684 13.0373C2.10826 13.093 2.18128 13.1352 2.26055 13.1609Z" stroke="#BCE8DB" stroke-width="2"/>
<path d="M2.26055 13.1609C2.18128 13.1352 2.10826 13.093 2.04684 13.0373C1.98541 12.9817 1.93712 12.914 1.9055 12.8393C1.87387 12.7645 1.85971 12.6846 1.86405 12.6053C1.86838 12.526 1.8911 12.4494 1.93055 12.381C3.57722 9.40764 5.42389 6.48094 7.47055 3.60094C8.77055 1.78094 10.1639 1.26763 11.6506 2.06096C11.836 2.15834 11.9968 2.27992 12.1226 2.41777C12.2484 2.55563 12.3363 2.70664 12.3806 2.86095C13.5006 6.75428 15.3806 10.2476 18.0206 13.3409C19.0139 14.5009 18.8206 15.4076 17.4406 16.061L8.77055 20.1609C8.60416 20.2389 8.42198 20.2804 8.23937 20.2818C8.05675 20.2832 7.87906 20.2445 7.72124 20.1691C7.56342 20.0936 7.43011 19.9835 7.33253 19.8481C7.23496 19.7127 7.17597 19.5559 7.16055 19.391C6.86055 16.2043 5.22722 14.1276 2.26055 13.1609Z" fill="#78D1B7"/>
</svg>
