<svg width="111" height="142" viewBox="0 0 111 142" fill="none" xmlns="http://www.w3.org/2000/svg">
<path d="M78.1899 52.9912L75.98 55.5212C75.9371 55.5715 75.8818 55.6096 75.8175 55.633C75.7532 55.6564 75.6815 55.6645 75.607 55.657C75.5325 55.6494 75.4568 55.6263 75.385 55.5891C75.3131 55.552 75.2466 55.5015 75.1899 55.4412C66.3566 46.1479 58.13 36.3679 50.51 26.1012C49.0966 24.1946 49.4467 22.9145 51.56 22.2612C54.0733 21.4879 55.9467 19.7012 57.18 16.9012C60.27 9.91122 55.82 1.7212 47.76 1.7012C39.07 1.6812 36.38 11.2512 38.89 18.3112C38.941 18.4546 38.9579 18.6078 38.9394 18.759C38.9209 18.9102 38.8675 19.0553 38.7833 19.183C38.6992 19.3106 38.5866 19.4175 38.4542 19.4952C38.3218 19.573 38.1732 19.6195 38.02 19.6312C23.07 20.6812 10.83 27.3012 9.43 43.5612C9.32 44.8512 8.63995 45.5712 7.49995 45.9612C7.06661 46.1145 6.76999 46.2779 6.60999 46.4512C3.62333 49.7979 2.09999 53.7679 2.03999 58.3612C2.01999 59.8612 2.61997 61.0812 3.83997 62.0212C13.76 69.7012 24.24 49.1212 12.73 43.1712C12.54 43.0728 12.3907 42.9106 12.3084 42.7131C12.2261 42.5156 12.216 42.2954 12.28 42.0912C13.47 38.3112 14.39 34.2612 16.91 31.3012C22.95 24.2012 32.89 22.3912 41.79 22.0912C42.1411 22.08 42.4871 22.1741 42.7832 22.3614C43.0793 22.5487 43.3116 22.8204 43.45 23.1412C45.99 29.0112 45.98 38.1812 44.8 43.3512C41.08 59.6112 32.7833 74.0945 19.91 86.8012C19.8079 86.9033 19.6753 86.97 19.5315 86.9916C19.3877 87.0132 19.24 86.9885 19.11 86.9212C14.6967 84.6679 10.2633 84.9845 5.81001 87.8712C2.91001 89.7512 0.469984 91.6112 1.09998 95.4812C1.72665 99.3012 3.81995 101.401 7.37995 101.781C13.91 102.481 18.63 96.6112 20.09 90.7812C20.1681 90.4616 20.3314 90.1768 20.56 89.9612C36.43 75.5912 50.83 51.1012 48.2 29.6012C48.1133 28.9012 48.29 28.8312 48.73 29.3912C56.5367 39.3445 64.76 48.9479 73.4 58.2012C73.507 58.316 73.5746 58.4617 73.5927 58.6166C73.6107 58.7715 73.5781 58.9274 73.4999 59.0612C67.4199 69.6345 62.7067 80.7578 59.36 92.4312C57.13 100.241 55.6399 111.081 53.1899 120.341C53.1542 120.479 53.076 120.604 52.9655 120.698C52.8549 120.793 52.7171 120.853 52.57 120.871C45.8 121.701 37.42 127.431 40.63 135.391C45.77 148.111 62.65 132.651 56.52 121.531C56.3649 121.241 56.3152 120.915 56.38 120.611C58.71 110.431 60.3099 99.0812 63.1899 90.0612C66.3766 80.1279 70.5466 70.5912 75.7 61.4512C75.7309 61.3941 75.7733 61.344 75.8245 61.3041C75.8758 61.2642 75.9348 61.2354 75.9977 61.2194C76.0607 61.2034 76.1262 61.2006 76.1903 61.2113C76.2544 61.2219 76.3156 61.2458 76.37 61.2812C84.47 66.5712 89.67 81.0812 91.28 90.5212C91.3286 90.8094 91.2985 91.106 91.1931 91.3802C91.0876 91.6545 90.9105 91.8965 90.68 92.0812C88.4 93.8812 85.96 96.2512 84.72 98.8712C81.15 106.341 85.2 113.361 92.98 114.991C101.99 116.881 115.02 106.801 107.39 97.2612C104.33 93.4412 100.283 91.2246 95.2499 90.6112C95.1082 90.5941 94.9755 90.5316 94.8712 90.4326C94.7669 90.3337 94.6964 90.2035 94.67 90.0612C92.42 77.0712 87.53 68.0112 78.64 58.5112C78.527 58.391 78.448 58.2494 78.4184 58.1143C78.3888 57.9792 78.4107 57.8604 78.48 57.7812L81.59 54.1512C81.6942 54.0279 81.8285 53.9263 81.9849 53.8524C82.1413 53.7785 82.3165 53.7339 82.4999 53.7212C91.1799 53.1712 101.51 44.4312 91.67 36.2412C78.74 25.4812 64.2499 47.1212 77.7499 52.2312C77.8441 52.2666 77.9334 52.3172 78.0104 52.3788C78.0875 52.4403 78.15 52.5112 78.1929 52.5854C78.2359 52.6596 78.258 52.735 78.2575 52.8056C78.257 52.8761 78.2338 52.9397 78.1899 52.9912Z" stroke="#8B8EA0" stroke-width="2"/>
<path d="M77.7499 52.2317C64.2499 47.1217 78.74 25.4817 91.67 36.2417C101.51 44.4317 91.1799 53.1717 82.4999 53.7217C82.3165 53.7343 82.1413 53.779 81.9849 53.8529C81.8285 53.9268 81.6942 54.0284 81.59 54.1517L78.48 57.7817C78.4108 57.8608 78.3888 57.9797 78.4184 58.1148C78.448 58.2499 78.527 58.3915 78.64 58.5117C87.53 68.0117 92.42 77.0717 94.67 90.0617C94.6964 90.204 94.7669 90.3342 94.8712 90.4331C94.9755 90.5321 95.1082 90.5946 95.2499 90.6117C100.283 91.2251 104.33 93.4417 107.39 97.2617C115.02 106.802 101.99 116.882 92.98 114.992C85.2 113.362 81.15 106.342 84.72 98.8717C85.96 96.2517 88.4 93.8817 90.68 92.0817C90.9105 91.897 91.0876 91.655 91.1931 91.3807C91.2985 91.1065 91.3286 90.8099 91.28 90.5217C89.67 81.0817 84.47 66.5717 76.37 61.2817C76.3156 61.2462 76.2544 61.2224 76.1903 61.2118C76.1262 61.2011 76.0607 61.2039 75.9977 61.2199C75.9348 61.2359 75.8758 61.2647 75.8245 61.3046C75.7733 61.3445 75.7309 61.3946 75.7 61.4517C70.5466 70.5917 66.3766 80.1283 63.1899 90.0617C60.3099 99.0817 58.71 110.432 56.38 120.612C56.3152 120.916 56.3649 121.242 56.52 121.532C62.65 132.652 45.77 148.112 40.63 135.392C37.42 127.432 45.8 121.702 52.57 120.872C52.7171 120.853 52.8549 120.793 52.9655 120.699C53.076 120.604 53.1542 120.48 53.1899 120.342C55.6399 111.082 57.13 100.242 59.36 92.4317C62.7067 80.7583 67.4199 69.635 73.4999 59.0617C73.5781 58.9279 73.6107 58.772 73.5927 58.6171C73.5746 58.4622 73.507 58.3165 73.4 58.2017C64.76 48.9484 56.5367 39.345 48.73 29.3917C48.29 28.8317 48.1133 28.9017 48.2 29.6017C50.83 51.1017 36.43 75.5917 20.56 89.9617C20.3314 90.1773 20.1681 90.4621 20.09 90.7817C18.63 96.6117 13.91 102.482 7.37995 101.782C3.81995 101.402 1.72665 99.3017 1.09998 95.4817C0.469984 91.6117 2.91001 89.7517 5.81001 87.8717C10.2633 84.985 14.6967 84.6684 19.11 86.9217C19.24 86.989 19.3877 87.0137 19.5315 86.9921C19.6753 86.9705 19.8079 86.9038 19.91 86.8017C32.7833 74.095 41.08 59.6117 44.8 43.3517C45.98 38.1817 45.99 29.0117 43.45 23.1417C43.3116 22.8209 43.0793 22.5492 42.7832 22.3619C42.4871 22.1746 42.1411 22.0805 41.79 22.0917C32.89 22.3917 22.95 24.2017 16.91 31.3017C14.39 34.2617 13.47 38.3117 12.28 42.0917C12.216 42.2959 12.2261 42.5161 12.3084 42.7136C12.3907 42.9111 12.54 43.0733 12.73 43.1717C24.24 49.1217 13.76 69.7017 3.83997 62.0217C2.61997 61.0817 2.01999 59.8617 2.03999 58.3617C2.09999 53.7684 3.62333 49.7984 6.60999 46.4517C6.76999 46.2784 7.06661 46.115 7.49995 45.9617C8.63995 45.5717 9.32 44.8517 9.43 43.5617C10.83 27.3017 23.07 20.6817 38.02 19.6317C38.1732 19.62 38.3218 19.5734 38.4542 19.4957C38.5866 19.418 38.6992 19.3111 38.7833 19.1834C38.8675 19.0558 38.9209 18.9107 38.9394 18.7595C38.9579 18.6083 38.941 18.4551 38.89 18.3117C36.38 11.2517 39.07 1.68169 47.76 1.70169C55.82 1.72169 60.27 9.9117 57.18 16.9017C55.9467 19.7017 54.0733 21.4884 51.56 22.2617C49.4467 22.915 49.0966 24.195 50.51 26.1017C58.13 36.3684 66.3566 46.1483 75.1899 55.4417C75.2466 55.502 75.3131 55.5525 75.385 55.5896C75.4568 55.6268 75.5325 55.6499 75.607 55.6574C75.6815 55.665 75.7533 55.6568 75.8175 55.6335C75.8818 55.6101 75.9371 55.572 75.98 55.5217L78.1899 52.9917C78.2338 52.9402 78.257 52.8766 78.2575 52.8061C78.258 52.7355 78.2359 52.6601 78.1929 52.5858C78.15 52.5116 78.0875 52.4408 78.0104 52.3792C77.9334 52.3177 77.8441 52.2671 77.7499 52.2317Z" fill="#181D42"/>
</svg>
