<svg width="138" height="51" viewBox="0 0 138 51" fill="none" xmlns="http://www.w3.org/2000/svg">
<path d="M13.9727 24.2575C10.4594 27.1509 6.75275 29.7575 2.85275 32.0775C1.59275 32.8175 -0.357202 34.6475 2.4028 35.4475C2.70049 35.5315 3.03617 35.5032 3.35275 35.3675C7.19275 33.7142 10.8761 31.7442 14.4028 29.4575C23.0628 23.8375 15.3827 43.8475 21.8527 37.8475C22.0402 37.6723 22.1891 37.371 22.2728 36.9975C22.4128 36.4042 22.7394 35.9042 23.2528 35.4975C23.358 35.4127 23.4945 35.3739 23.6352 35.3887C23.7759 35.4035 23.9107 35.4709 24.0128 35.5775C26.4194 38.0709 27.9628 39.4475 28.6428 39.7075C34.0628 41.7775 27.0528 32.1675 26.6428 31.5675C26.5305 31.399 26.4435 31.2325 26.3881 31.0803C26.3328 30.9281 26.3104 30.7939 26.3227 30.6875L26.6228 28.1675C26.6479 27.9542 26.7205 27.7492 26.8359 27.5654C26.9513 27.3816 27.107 27.2231 27.2932 27.0999C27.4793 26.9768 27.6919 26.8916 27.9173 26.8499C28.1428 26.8082 28.3762 26.8107 28.6027 26.8575C29.5427 27.0575 42.6628 30.3875 39.9928 26.2575C39.8235 26.0037 39.5612 25.8009 39.2428 25.6775C35.8728 24.4275 26.0627 22.5475 26.5927 17.9475C27.4327 10.6609 27.9528 5.34753 28.1528 2.00753C28.1589 1.87734 28.1274 1.74211 28.0612 1.61331C27.9951 1.4845 27.8962 1.3659 27.7728 1.26751C27.3328 0.91418 26.8827 0.910867 26.4227 1.25753C26.1429 1.47231 25.9436 1.73114 25.8527 1.99752L20.4627 18.5575C19.8427 20.4775 18.6828 20.7275 16.9828 19.3075L5.1528 9.34753C5.02592 9.24159 4.86628 9.17369 4.69052 9.15084C4.51475 9.128 4.32921 9.15101 4.1528 9.21753C2.0728 10.0275 12.8927 22.0275 14.0527 23.5375C14.1332 23.6453 14.1699 23.7797 14.155 23.9134C14.1401 24.0471 14.075 24.1701 13.9727 24.2575Z" stroke="#F9A9A2" stroke-width="2"/>
<path d="M109.833 25.8477C109.865 26.0068 109.854 26.171 109.801 26.3247C109.748 26.4784 109.655 26.6164 109.531 26.7256C109.407 26.8348 109.256 26.9116 109.091 26.9487C108.927 26.9858 108.756 26.9821 108.593 26.9377C104.727 25.8843 100.797 25.161 96.8033 24.7677C96.6578 24.7561 96.5077 24.7898 96.3686 24.8655C96.2295 24.9412 96.1068 25.056 96.0134 25.1977C93.9734 28.3477 103.283 30.2077 104.913 30.6877C107.167 31.341 107.207 32.061 105.033 32.8477L93.1334 37.1677C92.9672 37.228 92.821 37.3267 92.7101 37.4534C92.5993 37.5801 92.5278 37.7301 92.5034 37.8877C92.1434 40.1944 93.1767 41.0243 95.6033 40.3777C101.477 38.811 106.94 37.1843 111.993 35.4977C113.56 34.971 114.277 35.541 114.143 37.2077L113.203 48.9277C113.189 49.0994 113.218 49.267 113.286 49.4069C113.355 49.5468 113.458 49.652 113.583 49.7077C114.363 50.041 115.147 50.0644 115.933 49.7777C116.035 49.7425 116.136 49.6467 116.224 49.5015C116.313 49.3563 116.385 49.1678 116.433 48.9577C117.407 44.6177 118.73 40.3777 120.403 36.2377C120.983 34.8043 121.86 34.641 123.033 35.7477C126.22 38.741 129.487 41.641 132.833 44.4477C134.113 45.521 134.927 45.3577 135.273 43.9577C135.32 43.7764 135.326 43.5914 135.291 43.4188C135.256 43.2463 135.181 43.0914 135.073 42.9677L129.353 36.4477C127.847 34.7277 128.087 33.7477 130.073 33.5077L135.093 32.8977C135.336 32.871 135.559 32.8306 135.729 32.7822C135.899 32.7338 136.009 32.6798 136.043 32.6277C136.87 31.5143 136.747 30.5943 135.673 29.8677C135.42 29.6924 135.132 29.6013 134.853 29.6077L127.203 29.8277C125.263 29.881 124.327 28.9143 124.393 26.9277C124.453 25.1877 126.953 18.1877 123.743 18.4177C123.579 18.4295 123.424 18.4765 123.294 18.5538C123.164 18.631 123.064 18.7358 123.003 18.8577L119.013 26.6177C118.915 26.8062 118.769 26.9657 118.591 27.0807C118.412 27.1957 118.205 27.2624 117.992 27.2745C117.778 27.2865 117.563 27.2435 117.369 27.1495C117.175 27.0555 117.008 26.9137 116.883 26.7377C113.837 22.3777 111.113 17.6943 108.713 12.6877C106.393 7.83768 106.203 13.8477 106.773 15.3977C108.133 19.071 109.153 22.5543 109.833 25.8477Z" stroke="#F9A9A2" stroke-width="2"/>
<path d="M14.0527 23.538C12.8927 22.028 2.0728 10.028 4.1528 9.21801C4.32921 9.1515 4.51475 9.12848 4.69052 9.15133C4.86628 9.17418 5.02592 9.24207 5.1528 9.34802L16.9828 19.308C18.6828 20.728 19.8427 20.478 20.4627 18.558L25.8527 1.99801C25.9436 1.73163 26.1429 1.4728 26.4227 1.25802C26.8827 0.911356 27.3328 0.914668 27.7728 1.268C27.8962 1.36639 27.9951 1.48499 28.0612 1.6138C28.1274 1.7426 28.1589 1.87783 28.1528 2.00802C27.9528 5.34802 27.4327 10.6614 26.5927 17.948C26.0627 22.548 35.8728 24.428 39.2428 25.678C39.5612 25.8014 39.8235 26.0042 39.9928 26.258C42.6628 30.388 29.5427 27.058 28.6027 26.858C28.3762 26.8112 28.1428 26.8086 27.9173 26.8504C27.6919 26.8921 27.4793 26.9773 27.2932 27.1004C27.107 27.2236 26.9513 27.3821 26.8359 27.5659C26.7205 27.7497 26.6479 27.9547 26.6228 28.168L26.3227 30.688C26.3104 30.7943 26.3328 30.9285 26.3881 31.0808C26.4435 31.233 26.5305 31.3995 26.6428 31.568C27.0528 32.168 34.0628 41.778 28.6428 39.708C27.9628 39.448 26.4194 38.0714 24.0128 35.578C23.9107 35.4714 23.7759 35.404 23.6352 35.3892C23.4945 35.3744 23.358 35.4132 23.2528 35.498C22.7394 35.9047 22.4128 36.4047 22.2728 36.998C22.1891 37.3715 22.0402 37.6727 21.8527 37.848C15.3827 43.848 23.0628 23.838 14.4028 29.458C10.8761 31.7447 7.19275 33.7147 3.35275 35.368C3.03617 35.5037 2.70049 35.532 2.4028 35.448C-0.357202 34.648 1.59275 32.818 2.85275 32.078C6.75275 29.758 10.4594 27.1514 13.9727 24.258C14.075 24.1706 14.1401 24.0475 14.155 23.9138C14.1699 23.7801 14.1332 23.6457 14.0527 23.538Z" fill="#F45447"/>
<path d="M109.833 25.8481C109.153 22.5548 108.133 19.0715 106.773 15.3982C106.203 13.8482 106.393 7.83817 108.713 12.6882C111.113 17.6948 113.837 22.3782 116.883 26.7382C117.008 26.9142 117.175 27.056 117.369 27.15C117.563 27.244 117.778 27.287 117.992 27.275C118.205 27.2629 118.412 27.1962 118.591 27.0812C118.769 26.9662 118.915 26.8067 119.013 26.6182L123.003 18.8581C123.064 18.7363 123.164 18.6315 123.294 18.5543C123.424 18.477 123.579 18.43 123.743 18.4181C126.953 18.1881 124.453 25.1882 124.393 26.9282C124.327 28.9148 125.263 29.8815 127.203 29.8282L134.853 29.6081C135.132 29.6018 135.42 29.6929 135.673 29.8682C136.747 30.5948 136.87 31.5148 136.043 32.6282C136.009 32.6803 135.899 32.7343 135.729 32.7827C135.559 32.8311 135.336 32.8715 135.093 32.8982L130.073 33.5082C128.087 33.7482 127.847 34.7282 129.353 36.4482L135.073 42.9682C135.181 43.0919 135.256 43.2467 135.291 43.4193C135.326 43.5919 135.32 43.7769 135.273 43.9582C134.927 45.3582 134.113 45.5215 132.833 44.4482C129.487 41.6415 126.22 38.7415 123.033 35.7482C121.86 34.6415 120.983 34.8048 120.403 36.2382C118.73 40.3782 117.407 44.6182 116.433 48.9582C116.385 49.1682 116.313 49.3568 116.224 49.502C116.136 49.6472 116.035 49.743 115.933 49.7782C115.147 50.0649 114.363 50.0415 113.583 49.7082C113.458 49.6525 113.355 49.5473 113.286 49.4074C113.218 49.2675 113.189 49.0999 113.203 48.9282L114.143 37.2082C114.277 35.5415 113.56 34.9715 111.993 35.4982C106.94 37.1848 101.477 38.8115 95.6033 40.3782C93.1767 41.0248 92.1434 40.1948 92.5034 37.8882C92.5278 37.7306 92.5993 37.5806 92.7101 37.4539C92.821 37.3272 92.9672 37.2285 93.1334 37.1681L105.033 32.8481C107.207 32.0615 107.167 31.3415 104.913 30.6882C103.283 30.2082 93.9734 28.3482 96.0134 25.1982C96.1068 25.0565 96.2295 24.9417 96.3686 24.866C96.5077 24.7903 96.6578 24.7565 96.8033 24.7682C100.797 25.1615 104.727 25.8848 108.593 26.9382C108.756 26.9825 108.927 26.9863 109.091 26.9492C109.256 26.9121 109.407 26.8353 109.531 26.7261C109.655 26.6168 109.748 26.4788 109.801 26.3252C109.854 26.1715 109.865 26.0073 109.833 25.8481Z" fill="#F45447"/>
</svg>
