<svg width="129" height="126" viewBox="0 0 129 126" fill="none" xmlns="http://www.w3.org/2000/svg">
<path d="M97.9388 32.9074C101.289 26.7174 104.609 12.7174 100.819 7.22741C94.2988 -2.21259 81.0188 0.697372 72.7688 5.37737C66.7988 8.75737 62.4588 14.6074 59.0888 20.6174C58.4155 21.8174 57.7721 21.8007 57.1588 20.5674C51.8988 9.85738 41.1588 -2.49258 27.8288 6.11742C23.1355 9.15742 20.1521 13.2941 18.8788 18.5274C18.1988 21.3074 18.3788 24.9374 18.0388 28.1574C18.0026 28.4898 17.8512 28.7993 17.6103 29.0328C17.3695 29.2664 17.0543 29.4094 16.7188 29.4374C14.2688 29.6374 12.1188 29.7174 9.9688 31.2074C6.53546 33.5741 4.60214 35.1574 4.16881 35.9574C-3.22119 49.5574 3.44881 57.7574 12.5488 67.4874C14.2221 69.2741 14.0355 70.8374 11.9888 72.1774C0.128817 79.9574 -1.74118 94.9073 10.8088 103.097C19.0022 108.444 27.9488 109.054 37.6488 104.927C37.7762 104.875 37.9177 104.871 38.0455 104.915C38.1732 104.959 38.2779 105.049 38.3388 105.167C40.3788 109.167 42.3488 113.707 45.1188 116.897C52.6122 125.504 61.2355 126.391 70.9888 119.557C73.9588 117.477 76.4888 114.227 79.0388 111.337C79.1833 111.175 79.3609 111.046 79.5594 110.959C79.758 110.871 79.9727 110.827 80.1892 110.83C80.4056 110.833 80.6185 110.882 80.8135 110.975C81.0084 111.068 81.1808 111.202 81.3188 111.367C92.7488 124.987 108.579 121.897 115.249 106.237C119.962 95.1907 118.479 85.3174 110.799 76.6174C110.713 76.5201 110.648 76.4061 110.607 76.2826C110.567 76.1591 110.553 76.0286 110.565 75.8992C110.577 75.7699 110.616 75.6444 110.678 75.5306C110.741 75.4167 110.826 75.317 110.929 75.2374C117.549 70.0674 126.199 61.0474 126.989 52.4474C128.469 36.4174 110.859 30.5074 98.1888 33.2374C97.8688 33.3041 97.7855 33.1941 97.9388 32.9074Z" stroke="#858486" stroke-width="2"/>
<path d="M14.6397 35.4473C11.4063 35.7273 9.66969 37.464 9.42969 40.6573" stroke="#3A3634" stroke-width="2"/>
<path d="M9.42778 40.658C6.05778 45.888 7.72777 51.228 11.0978 55.828C13.5178 59.118 21.5578 64.858 21.6978 70.058C21.7778 73.2314 20.4111 75.6647 17.5978 77.358C14.2378 79.3847 11.5878 81.6814 9.64778 84.248C4.86778 90.578 12.7478 97.118 18.3578 98.548C21.3111 99.3014 24.2878 99.5914 27.2878 99.418C31.1378 99.198 36.0078 97.158 40.8578 97.008C41.3227 96.9901 41.7816 97.122 42.1682 97.3845C42.5548 97.647 42.8488 98.0265 43.0078 98.4681C44.3378 102.168 45.9078 106.158 48.1778 109.188C55.2278 118.618 65.0478 116.258 71.8278 108.398C74.2678 105.578 76.5711 102.598 78.7378 99.4581C79.7378 98.0114 80.5778 98.0981 81.2578 99.7181C84.6678 107.898 97.4178 119.028 106.158 109.688C108.004 107.715 109.238 105.461 109.858 102.928C112.124 93.668 110.278 85.4713 104.318 78.338C102.758 76.478 101.958 73.658 104.318 72.318C112.658 67.588 121.078 60.678 121.838 50.958C122.838 38.358 108.968 36.498 99.6478 37.338C99.2429 37.3766 98.9032 37.5125 98.6978 37.718C97.1111 39.3047 95.1611 40.2114 92.8478 40.438C91.0411 40.6114 90.4844 39.748 91.1778 37.848C93.4244 31.708 95.3578 25.5914 96.9778 19.498C101.378 2.98804 82.4178 4.12805 74.3478 10.188C68.3578 14.688 64.2178 25.358 61.4578 32.518C60.6278 34.688 58.5878 34.318 57.7078 32.438C55.9078 28.568 54.4978 23.818 52.5778 20.588C49.0778 14.718 41.9178 5.94802 33.9978 9.65802C28.4678 12.258 26.0278 18.908 26.1478 24.918C26.1978 27.408 26.8878 30.878 25.6778 32.708C24.0578 35.178 17.5378 34.868 14.6378 35.448" stroke="#858486" stroke-width="2"/>
<path d="M9.42969 40.6573L14.6397 35.4473" stroke="#B4B1AD" stroke-width="2"/>
<path d="M98.1927 33.2374C110.863 30.5074 128.473 36.4174 126.993 52.4474C126.203 61.0474 117.553 70.0674 110.933 75.2374C110.83 75.317 110.745 75.4167 110.682 75.5306C110.62 75.6444 110.581 75.7699 110.569 75.8992C110.557 76.0286 110.571 76.1591 110.611 76.2826C110.652 76.4061 110.717 76.5201 110.803 76.6174C118.483 85.3174 119.966 95.1907 115.253 106.237C108.583 121.897 92.7527 124.987 81.3227 111.367C81.1847 111.202 81.0123 111.068 80.8174 110.975C80.6224 110.882 80.4095 110.833 80.1931 110.83C79.9767 110.827 79.7619 110.871 79.5633 110.959C79.3648 111.046 79.1872 111.175 79.0427 111.337C76.4927 114.227 73.9627 117.477 70.9927 119.557C61.2394 126.391 52.6161 125.504 45.1227 116.897C42.3527 113.707 40.3827 109.167 38.3427 105.167C38.2818 105.049 38.1771 104.959 38.0494 104.915C37.9216 104.871 37.7801 104.875 37.6527 104.927C27.9527 109.054 19.0061 108.444 10.8127 103.097C-1.73727 94.9073 0.132723 79.9574 11.9927 72.1774C14.0394 70.8374 14.2261 69.2741 12.5527 67.4874C3.45272 57.7574 -3.21728 49.5574 4.17272 35.9574C4.60605 35.1574 6.53937 33.5741 9.9727 31.2074C12.1227 29.7174 14.2727 29.6374 16.7227 29.4374C17.0582 29.4094 17.3734 29.2664 17.6142 29.0328C17.8551 28.7993 18.0065 28.4898 18.0427 28.1574C18.3827 24.9374 18.2027 21.3074 18.8827 18.5274C20.156 13.2941 23.1394 9.15742 27.8327 6.11742C41.1627 -2.49258 51.9027 9.85738 57.1627 20.5674C57.776 21.8007 58.4194 21.8174 59.0927 20.6174C62.4627 14.6074 66.8027 8.75737 72.7727 5.37737C81.0227 0.697372 94.3027 -2.21259 100.823 7.22741C104.613 12.7174 101.293 26.7174 97.9427 32.9074C97.7894 33.1941 97.8727 33.3041 98.1927 33.2374ZM14.6427 35.4474C11.4094 35.7274 9.67272 37.4641 9.43272 40.6574C6.06273 45.8874 7.73271 51.2274 11.1027 55.8274C13.5227 59.1174 21.5627 64.8574 21.7027 70.0574C21.7827 73.2308 20.416 75.6641 17.6027 77.3574C14.2427 79.3841 11.5927 81.6808 9.65273 84.2474C4.87273 90.5774 12.7527 97.1174 18.3627 98.5474C21.3161 99.3008 24.2927 99.5907 27.2927 99.4174C31.1427 99.1974 36.0127 97.1574 40.8627 97.0074C41.3276 96.9895 41.7866 97.1213 42.1731 97.3838C42.5597 97.6463 42.8537 98.0259 43.0127 98.4675C44.3427 102.167 45.9127 106.157 48.1827 109.187C55.2327 118.617 65.0527 116.257 71.8327 108.397C74.2727 105.577 76.5761 102.597 78.7427 99.4575C79.7427 98.0108 80.5827 98.0975 81.2627 99.7175C84.6727 107.897 97.4227 119.027 106.163 109.687C108.009 107.714 109.243 105.461 109.863 102.927C112.129 93.6674 110.283 85.4707 104.323 78.3374C102.763 76.4774 101.963 73.6574 104.323 72.3174C112.663 67.5874 121.083 60.6774 121.843 50.9574C122.843 38.3574 108.973 36.4974 99.6527 37.3374C99.2478 37.376 98.9082 37.5119 98.7027 37.7174C97.116 39.3041 95.166 40.2108 92.8527 40.4374C91.046 40.6108 90.4894 39.7474 91.1827 37.8474C93.4294 31.7074 95.3627 25.5908 96.9827 19.4974C101.383 2.98743 82.4227 4.12743 74.3527 10.1874C68.3627 14.6874 64.2227 25.3574 61.4627 32.5174C60.6327 34.6874 58.5927 34.3174 57.7127 32.4374C55.9127 28.5674 54.5027 23.8174 52.5827 20.5874C49.0827 14.7174 41.9227 5.9474 34.0027 9.6574C28.4727 12.2574 26.0327 18.9074 26.1527 24.9174C26.2027 27.4074 26.8927 30.8774 25.6827 32.7074C24.0627 35.1774 17.5427 34.8674 14.6427 35.4474Z" fill="#0B090D"/>
<path d="M9.43169 40.658L14.6417 35.448C17.5417 34.868 24.0617 35.178 25.6817 32.708C26.8917 30.878 26.2017 27.408 26.1517 24.918C26.0317 18.908 28.4717 12.258 34.0017 9.65802C41.9217 5.94802 49.0817 14.718 52.5817 20.588C54.5017 23.818 55.9117 28.568 57.7117 32.438C58.5917 34.318 60.6317 34.688 61.4617 32.518C64.2217 25.358 68.3617 14.688 74.3517 10.188C82.4217 4.12805 101.382 2.98804 96.9817 19.498C95.3617 25.5914 93.4284 31.708 91.1817 37.848C90.4883 39.748 91.045 40.6114 92.8517 40.438C95.165 40.2114 97.115 39.3047 98.7017 37.718C98.9072 37.5125 99.2468 37.3766 99.6517 37.338C108.972 36.498 122.842 38.358 121.842 50.958C121.082 60.678 112.662 67.588 104.322 72.318C101.962 73.658 102.762 76.478 104.322 78.338C110.282 85.4713 112.128 93.668 109.862 102.928C109.242 105.461 108.008 107.715 106.162 109.688C97.4217 119.028 84.6717 107.898 81.2617 99.7181C80.5817 98.0981 79.7417 98.0114 78.7417 99.4581C76.575 102.598 74.2717 105.578 71.8317 108.398C65.0517 116.258 55.2317 118.618 48.1817 109.188C45.9117 106.158 44.3417 102.168 43.0117 98.4681C42.8527 98.0265 42.5587 97.647 42.1721 97.3845C41.7855 97.122 41.3266 96.9901 40.8617 97.008C36.0117 97.158 31.1417 99.198 27.2917 99.418C24.2917 99.5914 21.315 99.3014 18.3617 98.548C12.7517 97.118 4.87169 90.578 9.65169 84.248C11.5917 81.6814 14.2417 79.3847 17.6017 77.358C20.415 75.6647 21.7817 73.2314 21.7017 70.058C21.5617 64.858 13.5217 59.118 11.1017 55.828C7.73167 51.228 6.06169 45.888 9.43169 40.658Z" fill="white"/>
<path d="M14.6436 35.4482L9.43359 40.6583C9.67359 37.4649 11.4103 35.7282 14.6436 35.4482Z" fill="#68625A"/>
</svg>
