<svg width="149" height="167" viewBox="0 0 149 167" fill="none" xmlns="http://www.w3.org/2000/svg">
<path d="M100.64 54.3523C97.14 52.7457 93.5933 52.4257 90 53.3924" stroke="#EDB247" stroke-width="2"/>
<path d="M89.9997 53.3918C88.9597 51.9718 87.8663 50.5185 86.7197 49.0318C85.5663 47.5385 84.5797 46.0218 83.7597 44.4818C76.4863 30.7951 69.2497 17.0918 62.0497 3.37181C57.5397 -5.20819 56.7397 12.1318 56.6597 13.6918C56.6468 13.9872 56.5144 14.2735 56.2897 14.4918C55.4963 15.2918 55.2497 16.2718 55.5497 17.4318C55.5707 17.5087 55.567 17.6394 55.5389 17.8112C55.5109 17.983 55.4595 18.1899 55.3897 18.4118C52.963 26.0985 51.613 30.7118 51.3397 32.2518C50.9897 34.1718 51.2497 36.4918 50.2797 38.9618C49.4997 40.9418 48.9997 42.9951 48.7797 45.1218C48.7463 45.4485 48.6364 45.7551 48.4497 46.0418C46.6497 48.8018 46.8897 51.7918 45.8597 54.4018C44.853 56.9618 43.9197 59.5585 43.0597 62.1918C41.0797 68.2218 34.2397 72.0818 30.0297 76.2618C22.223 84.0218 12.6497 92.6018 1.30967 102.002C0.399669 102.752 1.69967 103.902 2.57967 104.042C12.453 105.575 19.4297 106.202 23.5097 105.922C30.2697 105.455 35.0763 105.492 37.9297 106.032C41.7697 106.762 47.5697 109.772 52.5897 111.882C57.3697 113.902 60.9363 117.498 63.2897 122.672C66.7563 130.312 69.193 137.812 70.5997 145.172C70.8063 146.245 71.2963 147.692 72.0697 149.512C73.6897 153.352 74.2497 156.802 76.3197 161.352C76.8497 162.512 76.8997 163.862 77.0197 165.102C77.0243 165.166 77.0423 165.229 77.0727 165.286C77.1031 165.343 77.1452 165.393 77.1961 165.432C77.247 165.472 77.3057 165.5 77.3684 165.516C77.431 165.531 77.4962 165.533 77.5597 165.522C82.1297 164.712 83.8397 155.542 85.2497 151.732C88.7197 142.382 90.5797 132.482 94.3297 123.002C97.4497 115.102 98.4997 102.482 106.62 94.7118C113.293 88.3318 119.89 81.8751 126.41 75.3418C127.55 74.2018 129.89 72.9118 131.48 71.3818C133.76 69.1952 136.203 67.2085 138.81 65.4218C141.9 63.3118 144.08 60.8718 146.84 58.4918C147.103 58.2676 147.268 57.9771 147.3 57.6818C147.466 56.0818 146.643 55.2184 144.83 55.0918C137.143 54.5384 130.68 54.3685 125.44 54.5818C124.79 54.6018 124.58 54.3518 124.12 53.9718C123.859 53.7505 123.558 53.6175 123.26 53.5918C115.66 52.9651 108.12 53.2185 100.64 54.3518" stroke="#F8DC49" stroke-width="2"/>
<path d="M90.0005 53.3916C89.3672 53.9716 89.0339 54.4849 89.0005 54.9316C88.8905 56.4116 105.591 63.0216 100.641 54.3516" stroke="#F1B236" stroke-width="2"/>
<path d="M68.9805 47.1092C68.5848 46.5607 67.609 46.4648 66.2676 46.8426C64.9262 47.2205 63.3291 48.0411 61.8277 49.1239C60.3262 50.2068 59.0434 51.4633 58.2615 52.6168C57.4795 53.7704 57.2625 54.7266 57.6581 55.2752C58.0537 55.8237 59.0295 55.9195 60.3709 55.5417C61.7123 55.1638 63.3094 54.3432 64.8109 53.2603C66.3123 52.1775 67.5951 50.9211 68.377 49.7675C69.159 48.6139 69.376 47.6577 68.9805 47.1092Z" stroke="#F1B236" stroke-width="2"/>
<path d="M74.6299 69.7413C77.4832 69.948 79.9299 68.9547 81.9699 66.7614C82.012 66.7159 82.0435 66.6616 82.0621 66.6026C82.0807 66.5436 82.0859 66.4814 82.0772 66.4207C82.0686 66.3601 82.0463 66.3025 82.0121 66.2524C81.9779 66.2023 81.9327 66.1609 81.8799 66.1314C79.8532 64.9647 77.4832 64.4713 74.7699 64.6513C68.3299 65.0813 71.0399 69.4813 74.6299 69.7413Z" stroke="#F1B236" stroke-width="2"/>
<path d="M49.5694 72.3411C50.5161 73.0145 51.4961 73.3111 52.5094 73.2311C55.4027 73.0045 58.1227 72.2078 60.6694 70.8411C61.6227 70.3345 61.5727 69.9345 60.5194 69.6412C59.4594 69.3512 42.0194 66.9611 49.5694 72.3411Z" stroke="#F1B236" stroke-width="2"/>
<path d="M117.849 71.8937C117.905 71.2196 117.34 70.5224 116.28 69.9555C115.221 69.3885 113.752 68.9982 112.198 68.8705C110.644 68.7427 109.131 68.8879 107.993 69.2742C106.855 69.6604 106.184 70.2561 106.129 70.9301C106.073 71.6041 106.638 72.3012 107.697 72.8682C108.757 73.4352 110.226 73.8255 111.78 73.9533C113.334 74.0811 114.847 73.9359 115.985 73.5496C117.123 73.1634 117.794 72.5677 117.849 71.8937Z" stroke="#F1B236" stroke-width="2"/>
<path d="M98.1055 81.4903C98.0796 80.7827 97.3609 80.1295 96.1075 79.6744C94.8541 79.2193 93.1687 78.9996 91.4221 79.0636C90.5573 79.0954 89.7034 79.1958 88.9094 79.3592C88.1153 79.5226 87.3965 79.7457 86.794 80.0159C86.1916 80.2861 85.7173 80.598 85.3982 80.9339C85.0791 81.2697 84.9215 81.623 84.9343 81.9734C84.9603 82.681 85.679 83.3343 86.9324 83.7894C88.1858 84.2444 89.8711 84.4641 91.6177 84.4001C92.4826 84.3684 93.3364 84.2679 94.1305 84.1045C94.9246 83.9412 95.6434 83.718 96.2458 83.4478C96.8483 83.1776 97.3226 82.8657 97.6417 82.5298C97.9608 82.194 98.1184 81.8407 98.1055 81.4903Z" stroke="#F1B236" stroke-width="2"/>
<path d="M31.0979 90.8212C34.7979 92.7012 40.3879 88.8812 43.1879 86.6212C44.7213 85.3812 44.5746 84.8245 42.7479 84.9512C39.2079 85.1912 31.6079 84.9212 30.3479 89.0512C30.2439 89.3873 30.2621 89.7494 30.3993 90.0733C30.5366 90.3973 30.7841 90.6622 31.0979 90.8212Z" stroke="#F1B236" stroke-width="2"/>
<path d="M80.7116 88.0841C80.7512 87.5924 80.2756 87.0795 79.3895 86.6583C78.5034 86.237 77.2794 85.9419 75.9866 85.8379C74.6939 85.7339 73.4384 85.8295 72.4964 86.1036C71.5543 86.3777 71.0028 86.808 70.9632 87.2997C70.9236 87.7914 71.3992 88.3043 72.2853 88.7255C73.1714 89.1468 74.3955 89.4419 75.6882 89.5459C76.9809 89.6499 78.2364 89.5543 79.1785 89.2802C80.1206 89.006 80.672 88.5758 80.7116 88.0841Z" stroke="#F1B236" stroke-width="2"/>
<path d="M70.3691 92.7764C70.3651 92.4888 70.1848 92.2065 69.8384 91.9456C69.4919 91.6847 68.9863 91.4504 68.3502 91.2559C67.7141 91.0614 66.9601 90.9105 66.1312 90.812C65.3023 90.7135 64.4148 90.6693 63.5192 90.6818C61.7106 90.707 59.9793 90.962 58.7062 91.3905C57.4331 91.819 56.7224 92.386 56.7305 92.9668C56.7345 93.2544 56.9149 93.5366 57.2613 93.7975C57.6077 94.0584 58.1134 94.2928 58.7494 94.4873C59.3855 94.6818 60.1395 94.8327 60.9684 94.9311C61.7973 95.0296 62.6849 95.0739 63.5804 95.0614C65.389 95.0361 67.1203 94.7812 68.3934 94.3527C69.6665 93.9241 70.3772 93.3571 70.3691 92.7764Z" stroke="#F1B236" stroke-width="2"/>
<path d="M92.7497 104.796C92.8319 104.428 92.7346 104.024 92.4633 103.606C92.1921 103.189 91.7521 102.766 91.1687 102.363C90.5852 101.959 89.8696 101.583 89.0628 101.255C88.2559 100.926 87.3736 100.653 86.4662 100.45C84.6337 100.041 82.8103 99.943 81.3971 100.179C79.9839 100.414 79.0967 100.964 78.9307 101.707C78.8484 102.075 78.9457 102.479 79.217 102.896C79.4882 103.314 79.9282 103.736 80.5116 104.14C81.0951 104.543 81.8107 104.92 82.6175 105.248C83.4244 105.576 84.3067 105.849 85.2141 106.052C87.0466 106.462 88.87 106.559 90.2832 106.324C91.6964 106.088 92.5836 105.539 92.7497 104.796Z" stroke="#F1B236" stroke-width="2"/>
<path d="M89.9997 53.3918C89.3663 53.9718 89.033 54.4851 88.9997 54.9318C88.8897 56.4118 105.59 63.0218 100.64 54.3518C108.12 53.2185 115.66 52.9651 123.26 53.5918C123.558 53.6175 123.859 53.7505 124.12 53.9718C124.58 54.3518 124.79 54.6018 125.44 54.5818C130.68 54.3685 137.143 54.5384 144.83 55.0918C146.643 55.2184 147.466 56.0818 147.3 57.6818C147.268 57.9771 147.103 58.2676 146.84 58.4918C144.08 60.8718 141.9 63.3118 138.81 65.4218C136.203 67.2085 133.76 69.1952 131.48 71.3818C129.89 72.9118 127.55 74.2018 126.41 75.3418C119.89 81.8751 113.293 88.3318 106.62 94.7118C98.4997 102.482 97.4497 115.102 94.3297 123.002C90.5797 132.482 88.7197 142.382 85.2497 151.732C83.8397 155.542 82.1297 164.712 77.5597 165.522C77.4962 165.533 77.431 165.531 77.3684 165.516C77.3057 165.5 77.247 165.472 77.1961 165.432C77.1452 165.393 77.1031 165.343 77.0727 165.286C77.0423 165.229 77.0243 165.166 77.0197 165.102C76.8997 163.862 76.8497 162.512 76.3197 161.352C74.2497 156.802 73.6897 153.352 72.0697 149.512C71.2963 147.692 70.8063 146.245 70.5997 145.172C69.193 137.812 66.7563 130.312 63.2897 122.672C60.9363 117.498 57.3697 113.902 52.5897 111.882C47.5697 109.772 41.7697 106.762 37.9297 106.032C35.0763 105.492 30.2697 105.455 23.5097 105.922C19.4297 106.202 12.453 105.575 2.57967 104.042C1.69967 103.902 0.399669 102.752 1.30967 102.002C12.6497 92.6018 22.223 84.0218 30.0297 76.2618C34.2397 72.0818 41.0797 68.2218 43.0597 62.1918C43.9197 59.5585 44.853 56.9618 45.8597 54.4018C46.8897 51.7918 46.6497 48.8018 48.4497 46.0418C48.6364 45.7551 48.7463 45.4485 48.7797 45.1218C48.9997 42.9951 49.4997 40.9418 50.2797 38.9618C51.2497 36.4918 50.9897 34.1718 51.3397 32.2518C51.613 30.7118 52.963 26.0985 55.3897 18.4118C55.4595 18.1899 55.5109 17.983 55.5389 17.8112C55.567 17.6394 55.5707 17.5087 55.5497 17.4318C55.2497 16.2718 55.4963 15.2918 56.2897 14.4918C56.5144 14.2735 56.6468 13.9872 56.6597 13.6918C56.7397 12.1318 57.5397 -5.20819 62.0497 3.37181C69.2497 17.0918 76.4864 30.7951 83.7597 44.4818C84.5797 46.0218 85.5663 47.5385 86.7197 49.0318C87.8663 50.5185 88.9597 51.9718 89.9997 53.3918ZM68.9809 47.1088C68.5852 46.5603 67.6094 46.4644 66.268 46.8423C64.9266 47.2201 63.3295 48.0407 61.8281 49.1236C60.3266 50.2065 59.0438 51.4629 58.2619 52.6165C57.4799 53.7701 57.2629 54.7263 57.6585 55.2748C58.0541 55.8233 59.0299 55.9192 60.3713 55.5413C61.7127 55.1635 63.3099 54.3429 64.8113 53.26C66.3127 52.1771 67.5955 50.9207 68.3774 49.7671C69.1594 48.6136 69.3765 47.6573 68.9809 47.1088ZM74.6297 69.7418C77.483 69.9485 79.9297 68.9552 81.9697 66.7618C82.0118 66.7163 82.0433 66.662 82.0619 66.603C82.0805 66.544 82.0857 66.4818 82.077 66.4212C82.0684 66.3605 82.0461 66.303 82.0119 66.2529C81.9777 66.2027 81.9325 66.1614 81.8797 66.1318C79.853 64.9652 77.483 64.4718 74.7697 64.6518C68.3297 65.0818 71.0397 69.4818 74.6297 69.7418ZM49.5697 72.3418C50.5163 73.0151 51.4963 73.3118 52.5097 73.2318C55.403 73.0051 58.123 72.2085 60.6697 70.8418C61.623 70.3351 61.573 69.9352 60.5197 69.6418C59.4597 69.3518 42.0197 66.9618 49.5697 72.3418ZM117.85 71.8936C117.905 71.2196 117.341 70.5224 116.281 69.9554C115.221 69.3885 113.753 68.9982 112.199 68.8704C110.644 68.7426 109.132 68.8878 107.994 69.2741C106.855 69.6603 106.185 70.256 106.129 70.93C106.074 71.6041 106.638 72.3012 107.698 72.8681C108.758 73.4351 110.227 73.8255 111.781 73.9532C113.335 74.081 114.848 73.9358 115.986 73.5495C117.124 73.1633 117.794 72.5676 117.85 71.8936ZM98.1053 81.4903C98.0793 80.7826 97.3606 80.1295 96.1072 79.6744C94.8538 79.2193 93.1685 78.9995 91.4219 79.0636C90.557 79.0953 89.7032 79.1957 88.9091 79.3591C88.115 79.5225 87.3962 79.7457 86.7938 80.0159C86.1913 80.286 85.717 80.598 85.3979 80.9338C85.0788 81.2697 84.9212 81.6229 84.9341 81.9733C84.96 82.681 85.6788 83.3342 86.9321 83.7893C88.1855 84.2444 89.8709 84.4641 91.6175 84.4C92.4823 84.3683 93.3361 84.2679 94.1302 84.1045C94.9243 83.9411 95.6431 83.7179 96.2456 83.4477C96.848 83.1776 97.3223 82.8656 97.6414 82.5298C97.9605 82.1939 98.1181 81.8407 98.1053 81.4903ZM31.0997 90.8218C34.7997 92.7018 40.3897 88.8818 43.1897 86.6218C44.723 85.3818 44.5763 84.8252 42.7497 84.9518C39.2097 85.1918 31.6097 84.9218 30.3497 89.0518C30.2456 89.3879 30.2638 89.75 30.4011 90.074C30.5383 90.3979 30.7858 90.6628 31.0997 90.8218ZM80.7139 88.084C80.7535 87.5923 80.2779 87.0794 79.3918 86.6582C78.5057 86.2369 77.2816 85.9418 75.9889 85.8378C74.6962 85.7338 73.4407 85.8294 72.4986 86.1035C71.5565 86.3776 71.0051 86.8079 70.9655 87.2996C70.9259 87.7913 71.4015 88.3042 72.2876 88.7254C73.1737 89.1467 74.3977 89.4418 75.6905 89.5458C76.9832 89.6498 78.2387 89.5542 79.1807 89.2801C80.1228 89.0059 80.6743 88.5757 80.7139 88.084ZM70.369 92.7766C70.365 92.489 70.1846 92.2067 69.8382 91.9458C69.4918 91.685 68.9861 91.4506 68.35 91.2561C67.714 91.0616 66.96 90.9107 66.1311 90.8122C65.3022 90.7137 64.4146 90.6695 63.5191 90.682C61.7105 90.7073 59.9792 90.9622 58.7061 91.3907C57.4329 91.8193 56.7223 92.3863 56.7304 92.967C56.7344 93.2546 56.9147 93.5369 57.2611 93.7978C57.6076 94.0587 58.1132 94.293 58.7493 94.4875C59.3853 94.682 60.1394 94.8329 60.9683 94.9314C61.7972 95.0299 62.6847 95.0741 63.5803 95.0616C65.3889 95.0364 67.1201 94.7814 68.3933 94.3529C69.6664 93.9244 70.3771 93.3574 70.369 92.7766ZM92.7492 104.796C92.8314 104.428 92.7341 104.024 92.4629 103.607C92.1916 103.189 91.7517 102.767 91.1682 102.363C90.5847 101.96 89.8691 101.583 89.0623 101.255C88.2554 100.927 87.3731 100.654 86.4658 100.451C84.6333 100.041 82.8098 99.9436 81.3966 100.179C79.9834 100.415 79.0962 100.964 78.9302 101.707C78.8479 102.075 78.9452 102.479 79.2165 102.897C79.4878 103.314 79.9277 103.737 80.5111 104.14C81.0946 104.544 81.8102 104.92 82.617 105.248C83.4239 105.577 84.3062 105.85 85.2136 106.053C87.0461 106.462 88.8695 106.56 90.2827 106.324C91.6959 106.089 92.5831 105.539 92.7492 104.796Z" fill="#FCDC38"/>
<path d="M64.8125 53.2605C67.9391 51.0055 69.8059 48.2515 68.9821 47.1092C68.1583 45.967 64.9558 46.869 61.8292 49.124C58.7026 51.379 56.8358 54.133 57.6596 55.2752C58.4834 56.4175 61.6859 55.5154 64.8125 53.2605Z" fill="#E68833"/>
<path d="M100.641 54.3523C105.591 63.0223 88.8905 56.4123 89.0005 54.9323C89.0339 54.4857 89.3672 53.9724 90.0005 53.3924C93.5939 52.4257 97.1406 52.7457 100.641 54.3523Z" fill="#E68833"/>
<path d="M74.6299 69.7413C71.0399 69.4813 68.3299 65.0813 74.7699 64.6513C77.4832 64.4713 79.8532 64.9647 81.8799 66.1314C81.9327 66.1609 81.9779 66.2023 82.0121 66.2524C82.0463 66.3025 82.0686 66.3601 82.0772 66.4207C82.0859 66.4814 82.0807 66.5436 82.0621 66.6026C82.0435 66.6616 82.012 66.7159 81.9699 66.7614C79.9299 68.9547 77.4832 69.948 74.6299 69.7413Z" fill="#E68833"/>
<path d="M49.5694 72.3411C42.0194 66.9611 59.4594 69.3512 60.5194 69.6412C61.5727 69.9345 61.6227 70.3345 60.6694 70.8411C58.1227 72.2078 55.4027 73.0045 52.5094 73.2311C51.4961 73.3111 50.5161 73.0145 49.5694 72.3411Z" fill="#E68833"/>
<path d="M111.782 73.9533C115.019 74.2194 117.736 73.2973 117.851 71.8937C117.967 70.4901 115.437 69.1366 112.2 68.8705C108.964 68.6044 106.246 69.5265 106.131 70.9301C106.016 72.3337 108.546 73.6872 111.782 73.9533Z" fill="#E68833"/>
<path d="M91.6172 84.3996C95.2543 84.2663 98.159 82.9635 98.1049 81.4899C98.0509 80.0163 95.0586 78.9298 91.4215 79.0632C87.7844 79.1966 84.8797 80.4993 84.9338 81.9729C84.9878 83.4465 87.9801 84.533 91.6172 84.3996Z" fill="#E68833"/>
<path d="M31.1019 90.8212C30.788 90.6622 30.5405 90.3973 30.4032 90.0733C30.266 89.7494 30.2478 89.3873 30.3519 89.0512C31.6119 84.9212 39.2118 85.1912 42.7518 84.9512C44.5785 84.8245 44.7252 85.3812 43.1918 86.6212C40.3918 88.8812 34.8019 92.7012 31.1019 90.8212Z" fill="#E68833"/>
<path d="M75.6892 89.5455C78.3812 89.7621 80.6302 89.1076 80.7126 88.0837C80.795 87.0597 78.6795 86.0541 75.9875 85.8375C73.2956 85.6209 71.0465 86.2754 70.9641 87.2993C70.8817 88.3233 72.9972 89.3289 75.6892 89.5455Z" fill="#E68833"/>
<path d="M63.5797 95.0617C67.3459 95.0091 70.3854 93.9861 70.3685 92.7767C70.3516 91.5673 67.2848 90.6295 63.5186 90.6821C59.7523 90.7347 56.7129 91.7577 56.7298 92.9671C56.7467 94.1765 59.8135 95.1143 63.5797 95.0617Z" fill="#E68833"/>
<path d="M85.212 106.052C89.028 106.905 92.4018 106.343 92.7476 104.796C93.0934 103.249 90.2802 101.304 86.4642 100.451C82.6482 99.5977 79.2744 100.16 78.9286 101.707C78.5828 103.254 81.396 105.199 85.212 106.052Z" fill="#E68833"/>
</svg>
