<svg width="14" height="15" viewBox="0 0 14 15" fill="none" xmlns="http://www.w3.org/2000/svg">
<path d="M7.51129 8.73645C5.85796 9.28312 5.39796 10.3765 6.13129 12.0165C6.20344 12.1828 6.2909 12.3288 6.38759 12.4445C6.48429 12.5602 6.58792 12.6428 6.6913 12.6865C13.4013 15.5965 13.6113 6.76646 11.9413 3.11646C11.2013 1.49646 9.92129 0.806451 8.10129 1.04645C5.45462 1.39312 3.3213 2.58644 1.7013 4.62644C0.501297 6.13977 0.841302 6.96311 2.7213 7.09644C3.8413 7.17644 7.8513 5.50645 8.0313 7.98645C8.04554 8.14589 8.00193 8.30669 7.90755 8.44281C7.81317 8.57893 7.67355 8.68239 7.51129 8.73645Z" stroke="#EFBAA6" stroke-width="2"/>
<path d="M8.0313 7.98645C7.8513 5.50645 3.8413 7.17644 2.7213 7.09644C0.841302 6.96311 0.501297 6.13977 1.7013 4.62644C3.3213 2.58644 5.45462 1.39312 8.10129 1.04645C9.92129 0.806451 11.2013 1.49646 11.9413 3.11646C13.6113 6.76646 13.4013 15.5965 6.6913 12.6865C6.58792 12.6428 6.48429 12.5602 6.38759 12.4445C6.2909 12.3288 6.20344 12.1828 6.13129 12.0165C5.39796 10.3765 5.85796 9.28312 7.51129 8.73645C7.67355 8.68239 7.81317 8.57893 7.90755 8.44281C8.00193 8.30669 8.04554 8.14589 8.0313 7.98645Z" fill="#DF744D"/>
</svg>
