<svg width="141" height="210" viewBox="0 0 141 210" fill="none" xmlns="http://www.w3.org/2000/svg">
<path d="M114.809 43.7796C108.176 40.3396 101.243 39.6496 94.0093 41.7096C77.7193 46.3596 62.8793 53.6196 47.7693 61.0996C45.8093 62.0663 43.656 62.4229 41.3093 62.1696C39.0226 61.9296 36.8626 62.3262 34.8293 63.3596C34.6407 63.4541 34.4721 63.5555 34.348 63.649C34.2239 63.7426 34.1508 63.8233 34.1393 63.8796C33.5326 66.9129 33.326 69.9529 33.5193 72.9996C33.5305 73.1746 33.5863 73.3434 33.6829 73.4941C33.7794 73.6447 33.9144 73.7737 34.0783 73.8718C34.2422 73.97 34.4311 74.035 34.6317 74.0622C34.8322 74.0895 35.0396 74.0783 35.2393 74.0296C38.3393 73.2829 41.4493 73.1663 44.5693 73.6796C48.3793 74.2996 49.7593 71.7196 52.3693 70.3696C63.076 64.8496 74.136 60.1663 85.5493 56.3196C85.7693 56.2463 86.0126 56.2363 86.2793 56.2896C86.6326 56.3696 86.6426 56.5029 86.3093 56.6896C75.5293 62.7963 67.446 71.4096 62.0593 82.5296" stroke="#FEB2A7" stroke-width="2"/>
<path d="M62.0627 82.5293C60.676 85.5626 60.2194 88.7726 60.6927 92.1593C62.3427 103.989 65.9527 115.689 68.9327 127.249C68.9481 127.307 68.9499 127.368 68.9379 127.427C68.926 127.486 68.9007 127.541 68.8639 127.588C68.8272 127.636 68.7799 127.674 68.726 127.7C68.672 127.726 68.6127 127.74 68.5527 127.739C47.5393 128.053 26.5227 128.336 5.50268 128.589C2.38268 128.629 0.842692 129.119 1.01269 132.579C1.45269 141.193 2.27934 150.246 3.49267 159.739C3.63934 160.926 4.28266 161.699 5.42266 162.059C9.776 163.426 12.346 161.839 13.1327 157.299C14.1394 151.519 15.0293 145.703 15.8027 139.849C15.8201 139.715 15.8863 139.593 15.9882 139.506C16.09 139.418 16.2201 139.373 16.3527 139.379L83.0427 141.389" stroke="#8D94AE" stroke-width="2"/>
<path d="M83 142C88.08 157.82 95.3569 180.056 103.51 202.629C104.284 204.756 105.253 206.459 106.42 207.739C106.526 207.854 106.662 207.942 106.816 207.996C106.971 208.05 107.14 208.068 107.31 208.049L127.82 205.889C128.171 205.852 128.502 205.691 128.767 205.432C129.031 205.173 129.214 204.829 129.29 204.449C129.917 201.343 129.337 199.403 127.55 198.629C125.32 197.669 118.62 197.879 115.55 197.809C115.216 197.804 114.893 197.693 114.627 197.491C114.361 197.29 114.166 197.009 114.07 196.689C105.53 168.783 97.0435 140.906 88.6102 113.059C87.3035 108.759 86.1069 104.429 85.0202 100.069" stroke="#8D94AE" stroke-width="2"/>
<path d="M85.0195 100.07C92.8795 91.7596 106.67 82.4696 118.58 83.1996C118.698 83.2078 118.813 83.2406 118.918 83.2961C119.023 83.3515 119.116 83.4284 119.189 83.5216C119.263 83.6149 119.316 83.7225 119.345 83.8376C119.374 83.9526 119.379 84.0726 119.359 84.1896C117.559 94.6763 115.546 104.703 113.32 114.27C111.613 121.59 110.763 126.776 110.77 129.83C110.77 131.576 111.649 132.083 113.409 131.35C113.811 131.18 114.254 131.138 114.68 131.229C115.106 131.32 115.493 131.54 115.789 131.86C117.219 133.41 121.7 140.85 123.83 138C123.922 137.873 123.984 137.727 124.01 137.576C124.036 137.425 124.026 137.272 123.979 137.13L122.09 131.31C121.65 129.943 122.066 129.553 123.34 130.14C127.373 131.986 128.663 131.283 127.21 128.03C126.11 125.6 122.979 123.12 121.099 121.2C120.958 121.052 120.856 120.872 120.802 120.677C120.748 120.481 120.744 120.276 120.789 120.08C123.576 107.846 126.226 95.5896 128.74 83.3096C130.246 75.9563 130.863 69.9596 130.59 65.3196C130.18 58.4196 126.999 54.1496 122.099 49.1396" stroke="#FEB2A7" stroke-width="2"/>
<path d="M122.103 49.1393C122.09 45.9859 122.833 43.1093 124.333 40.5093C124.49 40.2347 124.732 40.0025 125.033 39.8393C134.763 34.6393 141.833 25.7393 137.093 14.3093C137.004 14.0916 136.951 13.8753 136.942 13.6931C136.933 13.5109 136.968 13.3726 137.043 13.2993L139.393 11.1493C139.553 11.0016 139.686 10.8499 139.783 10.7047C139.88 10.5596 139.938 10.4246 139.953 10.3093C140.093 9.39592 138.956 8.99926 136.543 9.11926C135.376 9.17926 135.13 8.74258 135.803 7.80925L139.363 2.84925C139.459 2.7134 139.513 2.54792 139.518 2.37132C139.523 2.19471 139.48 2.01395 139.393 1.84925C137.533 -1.64075 127.403 6.62925 125.453 8.55925C124.626 9.37925 123.633 9.81259 122.473 9.85925C112.073 10.2693 106.023 20.5093 107.903 30.2393C108.243 31.9859 109.056 33.4193 110.343 34.5393L115.163 38.7192C115.435 38.9524 115.615 39.26 115.673 39.5893C115.96 41.0959 115.673 42.4926 114.813 43.7793" stroke="#FFEA9A" stroke-width="2"/>
<path d="M122.102 49.1393L114.812 43.7793" stroke="#FE9D42" stroke-width="2"/>
<path d="M85.0225 100.069L83.5625 99.1094" stroke="#8C4756" stroke-width="2"/>
<path d="M83.5625 99.1093C77.5292 95.896 71.9458 92.036 66.8125 87.5293" stroke="#914740" stroke-width="2"/>
<path d="M66.8125 87.5293L62.0625 82.5293" stroke="#8C4756" stroke-width="2"/>
<path d="M66.812 87.5293C66.6054 87.856 66.5054 88.206 66.512 88.5793C66.5124 88.7214 66.5499 88.8712 66.6222 89.0192C66.6945 89.1672 66.8 89.3103 66.932 89.4393C71.4053 93.7526 76.382 97.3626 81.862 100.269C81.9934 100.341 82.1431 100.368 82.2866 100.346C82.4302 100.324 82.5591 100.255 82.652 100.149L83.562 99.1093" stroke="#1F2847" stroke-width="2"/>
<path d="M93.6911 70.2593C94.3811 69.3493 94.2511 68.0793 95.8211 67.8893C96.0233 67.8643 96.2076 67.8198 96.36 67.7592C96.5124 67.6986 96.6291 67.6234 96.7011 67.5393C97.7511 66.2893 93.4812 66.2993 92.0912 67.8893C91.8303 68.183 91.5344 68.3883 91.2411 68.4793L85.8811 70.1693C85.8115 70.1909 85.7465 70.225 85.6901 70.2695C85.6337 70.3141 85.5872 70.3681 85.5534 70.4281C85.5196 70.4882 85.4993 70.5531 85.4937 70.6186C85.4882 70.6842 85.4975 70.7491 85.5211 70.8093C87.0211 74.6293 92.0311 72.3993 93.6911 70.2593Z" stroke="#FB6E5A" stroke-width="2"/>
<path d="M122.103 49.1393L114.813 43.7793C115.673 42.4926 115.96 41.0959 115.673 39.5893C115.615 39.26 115.435 38.9524 115.163 38.7192L110.343 34.5393C109.056 33.4193 108.243 31.9859 107.903 30.2393C106.023 20.5093 112.073 10.2693 122.473 9.85925C123.633 9.81259 124.626 9.37925 125.453 8.55925C127.403 6.62925 137.533 -1.64075 139.393 1.84925C139.48 2.01395 139.523 2.19471 139.518 2.37132C139.513 2.54792 139.459 2.7134 139.363 2.84925L135.803 7.80925C135.13 8.74258 135.376 9.17926 136.543 9.11926C138.956 8.99926 140.093 9.39592 139.953 10.3093C139.938 10.4246 139.88 10.5596 139.783 10.7047C139.686 10.8499 139.553 11.0016 139.393 11.1493L137.043 13.2993C136.968 13.3726 136.933 13.5109 136.942 13.6931C136.951 13.8753 137.004 14.0916 137.093 14.3093C141.833 25.7393 134.763 34.6393 125.033 39.8393C124.732 40.0025 124.49 40.2347 124.333 40.5093C122.833 43.1093 122.09 45.9859 122.103 49.1393Z" fill="#FED434"/>
<path d="M114.813 43.7791L122.103 49.1391C127.003 54.1491 130.183 58.4191 130.593 65.3191C130.867 69.9591 130.25 75.9558 128.743 83.3091C126.23 95.5891 123.58 107.846 120.793 120.079C120.747 120.275 120.752 120.48 120.806 120.676C120.86 120.872 120.962 121.051 121.103 121.199C122.983 123.119 126.113 125.599 127.213 128.029C128.667 131.282 127.377 131.986 123.343 130.139C122.07 129.552 121.653 129.942 122.093 131.309L123.983 137.129C124.029 137.271 124.04 137.424 124.014 137.576C123.988 137.727 123.926 137.872 123.833 137.999C121.703 140.849 117.223 133.409 115.793 131.859C115.497 131.54 115.11 131.32 114.684 131.229C114.258 131.137 113.814 131.179 113.413 131.349C111.653 132.082 110.773 131.576 110.773 129.829C110.767 126.776 111.617 121.589 113.323 114.269C115.55 104.702 117.563 94.6758 119.363 84.1891C119.383 84.072 119.378 83.9521 119.349 83.837C119.319 83.722 119.266 83.6144 119.193 83.5211C119.119 83.4278 119.027 83.351 118.922 83.2955C118.817 83.2401 118.702 83.2072 118.583 83.1991C106.673 82.4691 92.8832 91.7591 85.0232 100.069L83.5632 99.1091C77.5299 95.8958 71.9465 92.0358 66.8132 87.5291L62.0632 82.5291C67.4499 71.4091 75.5332 62.7958 86.3132 56.6891C86.6465 56.5024 86.6365 56.3691 86.2832 56.2891C86.0165 56.2358 85.7732 56.2458 85.5532 56.3191C74.1399 60.1658 63.0799 64.8491 52.3732 70.3691C49.7632 71.7191 48.3832 74.2991 44.5732 73.6791C41.4532 73.1658 38.3432 73.2824 35.2432 74.0291C35.0435 74.0779 34.8361 74.089 34.6356 74.0617C34.435 74.0345 34.2461 73.9695 34.0822 73.8713C33.9183 73.7732 33.7834 73.6443 33.6868 73.4936C33.5902 73.3429 33.5344 73.1741 33.5232 72.9991C33.3299 69.9524 33.5365 66.9124 34.1432 63.8791C34.1547 63.8228 34.2278 63.7421 34.3519 63.6485C34.476 63.555 34.6446 63.4536 34.8332 63.3591C36.8665 62.3258 39.0266 61.9291 41.3132 62.1691C43.6599 62.4224 45.8132 62.0658 47.7732 61.0991C62.8832 53.6191 77.7232 46.3591 94.0132 41.7091C101.247 39.6491 108.18 40.3391 114.813 43.7791ZM93.6932 70.2591C94.3832 69.3491 94.2532 68.0791 95.8232 67.8891C96.0254 67.8641 96.2097 67.8196 96.3621 67.759C96.5145 67.6984 96.6312 67.6232 96.7032 67.5391C97.7532 66.2891 93.4832 66.2991 92.0932 67.8891C91.8324 68.1828 91.5365 68.3881 91.2432 68.4791L85.8832 70.1691C85.8136 70.1907 85.7486 70.2248 85.6922 70.2693C85.6358 70.3139 85.5893 70.3679 85.5555 70.4279C85.5217 70.488 85.5014 70.5528 85.4958 70.6184C85.4903 70.684 85.4996 70.7489 85.5232 70.8091C87.0232 74.6291 92.0332 72.3991 93.6932 70.2591Z" fill="#FD654F"/>
<path d="M93.6911 70.2593C92.0311 72.3993 87.0211 74.6293 85.5211 70.8093C85.4975 70.7491 85.4882 70.6842 85.4937 70.6186C85.4993 70.5531 85.5196 70.4882 85.5534 70.4281C85.5872 70.3681 85.6337 70.3141 85.6901 70.2695C85.7465 70.225 85.8115 70.1909 85.8811 70.1693L91.2411 68.4793C91.5344 68.3883 91.8303 68.183 92.0912 67.8893C93.4812 66.2993 97.7511 66.2893 96.7011 67.5393C96.6291 67.6234 96.5124 67.6986 96.36 67.7592C96.2076 67.8198 96.0233 67.8643 95.8211 67.8893C94.2511 68.0793 94.3811 69.3493 93.6911 70.2593Z" fill="#F97764"/>
<path d="M62.0627 82.5293L66.8127 87.5293C66.606 87.856 66.506 88.206 66.5127 88.5793C66.5131 88.7214 66.5506 88.8712 66.6229 89.0192C66.6952 89.1672 66.8007 89.3103 66.9327 89.4393C71.406 93.7526 76.3827 97.3626 81.8627 100.269C81.994 100.341 82.1437 100.368 82.2873 100.346C82.4308 100.324 82.5597 100.255 82.6527 100.149L83.5627 99.1093L85.0227 100.069C86.1094 104.429 87.306 108.759 88.6127 113.059C97.046 140.906 105.533 168.783 114.073 196.689C114.168 197.009 114.363 197.29 114.629 197.491C114.896 197.693 115.219 197.804 115.553 197.809C118.623 197.879 125.323 197.669 127.553 198.629C129.339 199.403 129.919 201.343 129.293 204.449C129.217 204.829 129.034 205.173 128.769 205.432C128.505 205.691 128.173 205.851 127.823 205.889L107.313 208.049C107.143 208.068 106.973 208.05 106.819 207.996C106.664 207.942 106.528 207.854 106.423 207.739C105.256 206.459 104.286 204.756 103.513 202.629C95.3594 180.056 88.7427 160.859 83.6627 145.039C86.2827 145.893 88.096 145.246 89.1027 143.099C89.127 143.048 89.1384 142.992 89.1359 142.935C89.1333 142.878 89.1169 142.822 89.088 142.771C89.059 142.72 89.0183 142.675 88.9688 142.64C88.9194 142.605 88.8625 142.581 88.8027 142.569L83.0427 141.389L16.3527 139.379C16.2201 139.373 16.09 139.418 15.9882 139.506C15.8863 139.593 15.8201 139.715 15.8027 139.849C15.0293 145.703 14.1394 151.519 13.1327 157.299C12.346 161.839 9.776 163.426 5.42266 162.059C4.28266 161.699 3.63934 160.926 3.49267 159.739C2.27934 150.246 1.45269 141.193 1.01269 132.579C0.842692 129.119 2.38268 128.629 5.50268 128.589C26.5227 128.336 47.5393 128.053 68.5527 127.739C68.6127 127.74 68.672 127.726 68.726 127.7C68.7799 127.674 68.8272 127.636 68.8639 127.588C68.9007 127.541 68.926 127.486 68.9379 127.427C68.9499 127.368 68.9481 127.307 68.9327 127.249C65.9527 115.689 62.3427 103.989 60.6927 92.1593C60.2194 88.7726 60.676 85.5626 62.0627 82.5293Z" fill="#1A285D"/>
<path d="M66.812 87.5293C71.9454 92.036 77.5287 95.896 83.562 99.1093L82.652 100.149C82.5591 100.255 82.4302 100.324 82.2866 100.346C82.1431 100.368 81.9934 100.341 81.862 100.269C76.382 97.3626 71.4053 93.7526 66.932 89.4393C66.8 89.3103 66.6945 89.1672 66.6222 89.0192C66.5499 88.8712 66.5124 88.7214 66.512 88.5793C66.5054 88.206 66.6054 87.856 66.812 87.5293Z" fill="#242830"/>
<path d="M83.663 145.039L82.5 141L88.803 142.569C88.8628 142.58 88.9197 142.605 88.9691 142.64C89.0186 142.675 89.0593 142.719 89.0883 142.77C89.1172 142.822 89.1336 142.878 89.1362 142.935C89.1387 142.992 89.1273 143.048 89.103 143.099C88.0963 145.245 86.283 145.892 83.663 145.039Z" fill="#36406C"/>
</svg>
