<svg width="103" height="159" viewBox="0 0 103 159" fill="none" xmlns="http://www.w3.org/2000/svg">
<path d="M60.1147 113.435C55.2047 112.255 49.4347 117.235 47.9947 110.135C46.568 103.089 44.8713 96.2352 42.9047 89.5752C42.2913 87.5019 41.2247 87.2352 39.7047 88.7752C37.2547 91.2752 30.1147 99.0752 26.5747 98.6652C24.1947 98.3918 23.3514 96.4952 24.0447 92.9752C25.1547 87.4052 29.7647 65.4052 26.2347 64.2152C24.3647 63.5852 17.1447 67.8852 16.0947 68.1652C13.1547 68.9452 6.58466 69.6252 7.39466 65.3152C7.64799 63.9685 8.26135 62.6385 9.23469 61.3252L16.3547 51.7052C17.2347 50.5252 17.1247 49.5852 16.0247 48.8852L1.35468 39.5652C-0.345319 38.4852 -0.445307 37.2685 1.05469 35.9152C4.20803 33.0618 7.58804 30.5186 11.1947 28.2852C12.4014 27.5319 12.6547 26.5652 11.9547 25.3852C8.79466 20.0852 5.00469 14.6252 3.86469 8.48517C3.58469 6.98517 4.09466 5.8385 5.39466 5.04517C7.74799 3.60517 10.2513 3.7485 12.9047 5.47516C20.3247 10.2952 27.8547 14.9319 35.4947 19.3852C38.7447 21.2852 40.2747 21.3352 43.0647 18.5552C45.8314 15.7885 48.008 13.1685 49.5947 10.6952C52.6347 5.96519 58.2547 -4.91478 65.3747 2.53522C69.3947 6.75522 65.0947 21.3852 63.4647 26.5952C62.998 28.0952 63.5613 28.9318 65.1547 29.1052C67.6747 29.3785 70.178 29.2785 72.6647 28.8052C74.198 28.5118 74.7947 29.0752 74.4547 30.4952L72.7647 37.5252C72.7455 37.6092 72.7358 37.6949 72.7362 37.7769C72.7365 37.859 72.7467 37.9356 72.7664 38.0022C72.7861 38.0688 72.8148 38.1237 72.8506 38.1638C72.8864 38.2039 72.9286 38.2282 72.9747 38.2352C81.0947 39.3652 88.2447 40.4552 95.1547 45.5152C101.905 50.4452 94.8247 55.0952 89.7847 56.5052C86.238 57.4985 82.7014 58.5352 79.1747 59.6152C78.8686 59.7061 78.5793 59.9048 78.3447 60.1852C77.8047 60.8185 77.1947 61.3819 76.5147 61.8752C76.3155 62.0215 76.1226 62.1642 75.9705 62.2778C75.8184 62.3914 75.7171 62.4685 75.6847 62.4952L75.5347 64.3152C75.5296 64.404 75.5824 64.5177 75.686 64.641C75.7897 64.7643 75.9392 64.8914 76.1147 65.0052C83.6447 69.9152 92.5846 73.1452 99.3847 77.5752C100.898 78.5619 101.238 80.1552 100.405 82.3552C98.1447 88.3252 101.385 90.9452 102.325 96.2152C103.165 100.845 101.925 103.085 97.0447 100.665C92.4047 98.3718 87.528 96.8019 82.4147 95.9552C80.648 95.6619 79.6547 96.3519 79.4347 98.0252C78.968 101.652 78.888 105.315 79.1947 109.015C79.348 110.855 80.3547 112.342 82.2147 113.475L94.7647 121.105C96.498 122.158 96.8647 123.462 95.8647 125.015C94.8447 126.609 93.5913 127.822 92.1047 128.655C90.438 129.589 89.6213 131.008 89.6547 132.915C89.788 141.168 89.6013 148.945 89.0947 156.245C88.948 158.319 87.6847 159.222 85.3047 158.955C83.5247 158.755 82.3247 157.819 81.7047 156.145C79.698 150.705 78.4147 144.762 77.8547 138.315C77.0847 129.365 70.0847 135.995 67.2047 138.575C62.0547 143.195 61.5247 133.245 61.4147 129.685C61.2547 124.479 60.9946 119.272 60.6346 114.065C60.6263 113.917 60.5713 113.776 60.4776 113.663C60.384 113.549 60.2567 113.469 60.1147 113.435Z" fill="#FE6E59"/>
</svg>
