<svg width="54" height="49" viewBox="0 0 54 49" fill="none" xmlns="http://www.w3.org/2000/svg">
<path d="M26.2905 1.13556C13.3305 2.60556 1.10053 13.6056 1.00053 27.3356C0.870528 44.5456 24.7805 50.8956 37.5605 45.9356C47.5505 42.0456 52.9605 31.4156 52.1805 20.8856C51.2605 8.53556 38.2405 -0.204435 26.2905 1.13556Z" stroke="#FEA9A0" stroke-width="2"/>
<path d="M42.0372 22.6727C41.4628 19.0044 39.3287 15.7342 36.1044 13.5816C32.8802 11.429 28.8299 10.5703 24.8445 11.1944C20.8591 11.8185 17.2651 13.8742 14.8532 16.9094C12.4413 19.9446 11.4091 23.7106 11.9835 27.3789C12.5579 31.0472 14.692 34.3174 17.9163 36.47C21.1405 38.6226 25.1909 39.4813 29.1763 38.8572C33.1617 38.2331 36.7556 36.1774 39.1675 33.1422C41.5794 30.107 42.6117 26.341 42.0372 22.6727Z" stroke="#FE8A77" stroke-width="2"/>
<path d="M37.6254 21.19C36.6957 18.6496 34.694 16.6195 32.0607 15.5462C29.4273 14.473 26.378 14.4445 23.5835 15.4671C22.1998 15.9735 20.9203 16.7227 19.8181 17.6719C18.7159 18.6211 17.8125 19.7517 17.1596 20.9992C16.5067 22.2468 16.117 23.5867 16.0128 24.9427C15.9085 26.2986 16.0919 27.6439 16.5522 28.9018C17.4819 31.4423 19.4835 33.4724 22.1169 34.5457C24.7503 35.6189 27.7996 35.6474 30.5941 34.6247C31.9778 34.1184 33.2572 33.3692 34.3595 32.42C35.4617 31.4708 36.365 30.3402 37.018 29.0927C37.6709 27.8451 38.0606 26.5051 38.1648 25.1492C38.269 23.7933 38.0857 22.448 37.6254 21.19Z" stroke="#FE8A77" stroke-width="2"/>
<path d="M24.1802 24.5257C23.2902 29.8157 29.8602 28.6357 31.1502 25.5457C31.2244 25.3673 31.244 25.1751 31.2053 25.0055C31.1665 24.836 31.0723 24.7008 30.9402 24.6257L26.9802 22.3257C25.5069 21.4657 24.5736 22.199 24.1802 24.5257Z" stroke="#FE8A77" stroke-width="2"/>
<path d="M1.00053 27.3361C1.10053 13.6061 13.3305 2.60605 26.2905 1.13605C38.2405 -0.203947 51.2605 8.53605 52.1805 20.8861C52.9605 31.4161 47.5505 42.0461 37.5605 45.9361C24.7805 50.8961 0.870528 44.5461 1.00053 27.3361ZM42.0374 22.6729C41.4629 19.0046 39.3289 15.7345 36.1046 13.5819C32.8803 11.4293 28.83 10.5706 24.8446 11.1946C20.8593 11.8187 17.2653 13.8745 14.8534 16.9097C12.4415 19.9448 11.4092 23.7108 11.9836 27.3791C12.5581 31.0475 14.6921 34.3176 17.9164 36.4702C21.1407 38.6228 25.1911 39.4815 29.1764 38.8574C33.1618 38.2334 36.7557 36.1776 39.1676 33.1424C41.5795 30.1073 42.6118 26.3413 42.0374 22.6729Z" fill="#FD5441"/>
<path d="M42.0372 22.6727C42.6117 26.341 41.5794 30.107 39.1675 33.1422C36.7556 36.1774 33.1616 38.2331 29.1763 38.8572C25.1909 39.4813 21.1405 38.6226 17.9163 36.47C14.692 34.3174 12.5579 31.0472 11.9835 27.3789C11.4091 23.7106 12.4413 19.9446 14.8532 16.9094C17.2651 13.8742 20.8591 11.8185 24.8445 11.1944C28.8299 10.5703 32.8802 11.429 36.1044 13.5816C39.3287 15.7342 41.4628 19.0044 42.0372 22.6727ZM37.627 21.1899C36.6973 18.6495 34.6956 16.6193 32.0623 15.5461C29.4289 14.4728 26.3796 14.4444 23.5851 15.467C22.2014 15.9734 20.9219 16.7225 19.8197 17.6717C18.7174 18.6209 17.8141 19.7516 17.1612 20.9991C16.5083 22.2466 16.1186 23.5866 16.0144 24.9425C15.9101 26.2985 16.0934 27.6438 16.5538 28.9017C17.4835 31.4421 19.4851 33.4723 22.1185 34.5455C24.7518 35.6188 27.8012 35.6472 30.5957 34.6246C31.9794 34.1183 33.2588 33.3691 34.361 32.4199C35.4632 31.4707 36.3666 30.34 37.0195 29.0925C37.6725 27.845 38.0622 26.505 38.1664 25.1491C38.2706 23.7931 38.0873 22.4478 37.627 21.1899Z" fill="#FFC0AC"/>
<path d="M37.6293 21.19C38.0896 22.448 38.2729 23.7933 38.1687 25.1492C38.0645 26.5051 37.6748 27.8451 37.0219 29.0927C36.3689 30.3402 35.4656 31.4708 34.3634 32.42C33.2611 33.3692 31.9817 34.1184 30.598 34.6247C27.8035 35.6474 24.7542 35.6189 22.1208 34.5457C19.4874 33.4724 17.4858 31.4423 16.5561 28.9018C16.0958 27.6439 15.9125 26.2986 16.0167 24.9427C16.1209 23.5867 16.5106 22.2468 17.1635 20.9992C17.8164 19.7517 18.7198 18.6211 19.822 17.6719C20.9242 16.7227 22.2037 15.9735 23.5874 15.4671C26.3819 14.4445 29.4312 14.473 32.0646 15.5462C34.698 16.6195 36.6996 18.6496 37.6293 21.19ZM24.1827 24.5259C23.2927 29.8159 29.8627 28.6359 31.1527 25.5459C31.2268 25.3675 31.2464 25.1753 31.2077 25.0058C31.169 24.8362 31.0747 24.7011 30.9427 24.6259L26.9827 22.3259C25.5093 21.4659 24.576 22.1993 24.1827 24.5259Z" fill="#FD5441"/>
<path d="M24.1841 24.5262C24.5775 22.1995 25.5108 21.4662 26.9841 22.3262L30.9441 24.6262C31.0762 24.7013 31.1705 24.8364 31.2092 25.006C31.2479 25.1755 31.2283 25.3677 31.1541 25.5462C29.8641 28.6362 23.2941 29.8162 24.1841 24.5262Z" fill="#FFC0AC"/>
</svg>
