<svg width="105" height="101" viewBox="0 0 105 101" fill="none" xmlns="http://www.w3.org/2000/svg">
<path d="M29.8495 7.04803C9.10949 16.108 -1.7605 38.208 1.6095 59.978C6.7495 93.158 44.9995 108.128 73.1795 94.958C85.2895 89.288 95.7395 81.608 100.789 69.168C109.389 47.978 99.9595 17.848 79.8395 6.14802C65.5895 -2.15198 44.4895 0.648026 29.8495 7.04803Z" stroke="#FDABA4" stroke-width="2"/>
<path d="M1.6056 59.978C-1.7644 38.208 9.10559 16.108 29.8456 7.04803C44.4856 0.648026 65.5856 -2.15198 79.8356 6.14802C99.9556 17.848 109.386 47.978 100.786 69.168C95.7356 81.608 85.2856 89.288 73.1756 94.958C44.9956 108.128 6.7456 93.158 1.6056 59.978Z" fill="#FC584C"/>
</svg>
