<svg width="118" height="208" viewBox="0 0 118 208" fill="none" xmlns="http://www.w3.org/2000/svg">
<path d="M1.58558 193.419C-1.53442 199.789 8.64558 200.369 12.5156 201.019" stroke="#FEC2B9" stroke-width="2"/>
<path d="M12.5159 201.019C37.3859 210.179 75.2259 210.369 92.8859 186.689C103.626 172.289 103.256 152.579 96.7059 136.619C91.1859 123.169 84.8259 113.189 85.1659 100.329C85.3659 92.979 89.5959 83.349 93.2659 77.339C104.306 59.269 122.956 32.279 113.686 10.109C109.306 -0.361036 89.8559 0.0489761 81.5059 2.30898C67.5859 6.05898 52.0359 14.379 41.3759 23.679C23.2959 39.459 13.6859 65.119 18.6459 88.899C23.5259 112.309 45.9959 133.679 27.7759 158.079C19.0159 169.812 10.2859 181.592 1.58594 193.419" stroke="#BFE6DB" stroke-width="2"/>
<path d="M12.5144 201.019C12.4478 200.246 12.6978 199.849 13.2644 199.829C19.0511 199.636 23.8344 199.146 27.6144 198.359C27.6579 198.35 27.6993 198.33 27.7357 198.3C27.772 198.271 27.8024 198.233 27.8244 198.189L27.8944 198.039C27.9322 197.961 27.9915 197.891 28.0678 197.836C28.1442 197.78 28.2354 197.74 28.3344 197.719C32.3944 196.759 36.4644 196.669 40.1044 195.279C43.8578 193.839 47.3578 191.979 50.6044 189.699C59.8644 183.209 68.1244 175.319 71.0144 164.099C72.6211 157.839 72.7644 150.849 71.4444 143.129" stroke="#BFA99B" stroke-width="2"/>
<path d="M71.4466 143.129L71.2266 140.559" stroke="#7F8884" stroke-width="2"/>
<path d="M71.2278 140.559L71.0078 136.539" stroke="#BBA89D" stroke-width="2"/>
<path d="M71.0044 136.539C71.8177 134.925 71.4777 134.012 69.9844 133.799" stroke="#80847C" stroke-width="2"/>
<path d="M69.9852 133.799C69.3785 125.646 69.1385 116.486 69.2652 106.319C69.2985 103.479 69.9018 100.963 71.0752 98.7692C71.2352 98.4759 71.3118 98.1659 71.3052 97.8392C71.2785 95.4792 71.6485 93.0292 72.4152 90.4892C73.1352 88.1292 73.1852 85.7992 74.3552 83.4292C77.1852 77.7292 79.4352 71.6692 82.4152 66.2492C87.0652 57.8092 99.8652 35.2292 95.4952 28.3392C93.9052 25.8292 87.8552 25.5292 86.3252 26.1192C65.8952 33.9492 51.8752 50.8992 43.7352 70.7592C42.3885 74.0325 41.8685 76.9659 42.1752 79.5592" stroke="#BFA99B" stroke-width="2"/>
<path d="M42.1748 79.5591C41.4548 81.7724 41.3281 84.2591 41.7948 87.0191" stroke="#7F8884" stroke-width="2"/>
<path d="M41.7973 87.019C41.2439 91.0924 41.6373 95.2724 42.9773 99.559" stroke="#BFA99B" stroke-width="2"/>
<path d="M42.9766 99.5591C43.1766 101.452 43.8699 103.586 45.0566 105.959" stroke="#7F8884" stroke-width="2"/>
<path d="M45.0558 105.959C43.6891 106.566 43.6158 107.276 44.8358 108.089C45.0987 108.263 45.2848 108.527 45.3558 108.829C46.2758 112.639 49.1458 115.889 49.5758 120.079C49.7358 121.549 50.3458 122.259 51.2258 123.309" stroke="#BFA99B" stroke-width="2"/>
<path d="M51.2266 123.309L51.5566 125.559" stroke="#8D8B81" stroke-width="2"/>
<path d="M51.5572 125.559C51.4172 128.109 51.1572 133.269 53.2272 135.559" stroke="#BFA99B" stroke-width="2"/>
<path d="M53.2266 135.559L53.5566 136.559" stroke="#80847C" stroke-width="2"/>
<path d="M53.5547 136.559L53.8047 139.809" stroke="#BBA89D" stroke-width="2"/>
<path d="M53.8046 139.809C53.5646 141.176 53.8279 142.162 54.5946 142.769" stroke="#7F8884" stroke-width="2"/>
<path d="M54.5959 142.769C57.0659 172.529 26.3059 187.499 1.58594 193.419" stroke="#BFA99B" stroke-width="2"/>
<path d="M69.9858 133.799L54.0158 134.299C53.8426 134.305 53.679 134.352 53.5468 134.432C53.4147 134.512 53.3201 134.623 53.2758 134.749C53.1891 134.996 53.1725 135.266 53.2258 135.559" stroke="#BF605B" stroke-width="2"/>
<path d="M51.5565 125.559C52.0365 127.252 52.7199 127.559 53.6065 126.479C55.7932 123.812 57.0265 120.752 57.3065 117.299C57.4732 115.286 56.7699 114.839 55.1965 115.959L51.0865 118.879C50.963 118.966 50.8668 119.095 50.8086 119.252C50.7504 119.409 50.7324 119.588 50.7565 119.769L51.2265 123.309" stroke="#CD675F" stroke-width="2"/>
<path d="M45.0566 105.959C48.3432 103.959 49.5632 100.932 48.7166 96.879C48.6869 96.7325 48.6251 96.5944 48.5354 96.4745C48.4458 96.3546 48.3306 96.2558 48.198 96.1852C48.0654 96.1146 47.9186 96.0739 47.768 96.0659C47.6174 96.0579 47.4667 96.0829 47.3266 96.139C45.2532 96.959 43.8032 98.099 42.9766 99.559" stroke="#BF6463" stroke-width="2"/>
<path d="M41.7969 87.0193C45.1235 85.0726 47.3735 82.2726 48.5469 78.6192C50.9369 71.1592 42.8769 79.0492 42.1769 79.5592" stroke="#BF6463" stroke-width="2"/>
<path d="M71.4477 143.129L54.5977 142.769" stroke="#BF6463" stroke-width="2"/>
<path d="M71.0047 136.539L53.5547 136.559" stroke="#BB5F5D" stroke-width="2"/>
<path d="M71.2247 140.559C66.5147 139.339 60.8247 140.329 53.8047 139.809" stroke="#BB6365" stroke-width="2"/>
<path d="M12.5159 201.019C12.4493 200.246 12.6993 199.849 13.2659 199.829C19.0526 199.636 23.8359 199.146 27.6159 198.359C27.6594 198.35 27.7008 198.33 27.7372 198.3C27.7736 198.271 27.8039 198.233 27.8259 198.189L27.8959 198.039C27.9337 197.961 27.993 197.891 28.0694 197.836C28.1457 197.78 28.2369 197.74 28.3359 197.719C32.3959 196.759 36.4659 196.669 40.1059 195.279C43.8593 193.839 47.3593 191.979 50.6059 189.699C59.8659 183.209 68.1259 175.319 71.0159 164.099C72.6226 157.839 72.7659 150.849 71.4459 143.129L71.2259 140.559L71.0059 136.539C71.8193 134.926 71.4793 134.012 69.9859 133.799C69.3793 125.646 69.1393 116.486 69.2659 106.319C69.2993 103.479 69.9026 100.962 71.0759 98.769C71.2359 98.4757 71.3126 98.1657 71.3059 97.839C71.2793 95.479 71.6493 93.029 72.4159 90.489C73.1359 88.129 73.1859 85.799 74.3559 83.429C77.1859 77.729 79.4359 71.669 82.4159 66.249C87.0659 57.809 99.8659 35.229 95.4959 28.339C93.9059 25.829 87.8559 25.529 86.3259 26.119C65.8959 33.949 51.8759 50.899 43.7359 70.759C42.3893 74.0323 41.8693 76.9656 42.1759 79.559C41.4559 81.7723 41.3293 84.259 41.7959 87.019C41.2426 91.0923 41.6359 95.2723 42.9759 99.559C43.1759 101.452 43.8693 103.586 45.0559 105.959C43.6893 106.566 43.6159 107.276 44.8359 108.089C45.0989 108.263 45.2849 108.527 45.3559 108.829C46.2759 112.639 49.1459 115.889 49.5759 120.079C49.7359 121.549 50.3459 122.259 51.2259 123.309L51.5559 125.559C51.4159 128.109 51.1559 133.269 53.2259 135.559L53.5559 136.559L53.8059 139.809C53.5659 141.176 53.8293 142.162 54.5959 142.769C57.0659 172.529 26.3059 187.499 1.58594 193.419C10.2859 181.592 19.0159 169.812 27.7759 158.079C45.9959 133.679 23.5259 112.309 18.6459 88.899C13.6859 65.119 23.2959 39.459 41.3759 23.679C52.0359 14.379 67.5859 6.05898 81.5059 2.30898C89.8559 0.0489761 109.306 -0.361036 113.686 10.109C122.956 32.279 104.306 59.269 93.2659 77.339C89.5959 83.349 85.3659 92.979 85.1659 100.329C84.8259 113.189 91.1859 123.169 96.7059 136.619C103.256 152.579 103.626 172.289 92.8859 186.689C75.2259 210.369 37.3859 210.179 12.5159 201.019Z" fill="#7FCDBC"/>
<path d="M69.9873 133.799L54.0173 134.299C53.844 134.306 53.6805 134.352 53.5483 134.432C53.4161 134.513 53.3216 134.623 53.2773 134.749C53.1906 134.996 53.1739 135.266 53.2273 135.559C51.1573 133.269 51.4173 128.109 51.5573 125.559C52.0373 127.253 52.7206 127.559 53.6073 126.479C55.7939 123.813 57.0273 120.753 57.3073 117.299C57.4739 115.286 56.7706 114.839 55.1973 115.959L51.0873 118.879C50.9637 118.966 50.8676 119.096 50.8093 119.253C50.7511 119.41 50.7331 119.589 50.7573 119.769L51.2273 123.309C50.3473 122.259 49.7373 121.549 49.5773 120.079C49.1473 115.889 46.2773 112.639 45.3573 108.829C45.2863 108.528 45.1002 108.263 44.8373 108.089C43.6173 107.276 43.6906 106.566 45.0573 105.959C48.3439 103.959 49.5639 100.933 48.7173 96.8792C48.6876 96.7326 48.6258 96.5946 48.5361 96.4747C48.4465 96.3548 48.3313 96.256 48.1987 96.1854C48.0661 96.1148 47.9193 96.0741 47.7687 96.0661C47.6181 96.0581 47.4674 96.0831 47.3273 96.1392C45.2539 96.9592 43.8039 98.0992 42.9773 99.5592C41.6373 95.2725 41.2439 91.0925 41.7973 87.0192C45.1239 85.0725 47.3739 82.2725 48.5473 78.6192C50.9373 71.1592 42.8773 79.0492 42.1773 79.5592C41.8706 76.9659 42.3906 74.0325 43.7373 70.7592C51.8773 50.8992 65.8973 33.9492 86.3273 26.1192C87.8573 25.5292 93.9073 25.8292 95.4973 28.3392C99.8673 35.2292 87.0673 57.8092 82.4173 66.2492C79.4373 71.6692 77.1873 77.7292 74.3573 83.4292C73.1873 85.7992 73.1373 88.1292 72.4173 90.4892C71.6506 93.0292 71.2806 95.4792 71.3073 97.8392C71.3139 98.1659 71.2373 98.4759 71.0773 98.7692C69.9039 100.963 69.3006 103.479 69.2673 106.319C69.1406 116.486 69.3806 125.646 69.9873 133.799Z" fill="#FE8579"/>
<path d="M41.7948 87.0193C41.3281 84.2593 41.4548 81.7726 42.1748 79.5592C42.8748 79.0492 50.9348 71.1592 48.5448 78.6192C47.3715 82.2726 45.1215 85.0726 41.7948 87.0193Z" fill="#7F434C"/>
<path d="M45.0566 105.959C43.8699 103.586 43.1766 101.452 42.9766 99.559C43.8032 98.099 45.2532 96.959 47.3266 96.139C47.4667 96.0829 47.6174 96.0579 47.768 96.0659C47.9186 96.0739 48.0654 96.1146 48.198 96.1852C48.3306 96.2558 48.4458 96.3546 48.5354 96.4745C48.6251 96.5944 48.6869 96.7325 48.7166 96.879C49.5632 100.932 48.3432 103.959 45.0566 105.959Z" fill="#7F434C"/>
<path d="M51.5565 125.559L51.2265 123.309L50.7565 119.769C50.7324 119.588 50.7504 119.409 50.8086 119.252C50.8668 119.095 50.963 118.966 51.0865 118.879L55.1965 115.959C56.7699 114.839 57.4732 115.286 57.3065 117.299C57.0265 120.752 55.7932 123.812 53.6065 126.479C52.7199 127.559 52.0365 127.252 51.5565 125.559Z" fill="#9B4845"/>
<path d="M69.9858 133.799C71.4791 134.013 71.8191 134.926 71.0058 136.539L53.5558 136.559L53.2258 135.559C53.1725 135.266 53.1891 134.996 53.2758 134.749C53.3201 134.623 53.4147 134.513 53.5468 134.432C53.679 134.352 53.8426 134.306 54.0158 134.299L69.9858 133.799Z" fill="#803A3C"/>
<path d="M71.0047 136.539L71.2247 140.559C66.5147 139.339 60.8247 140.329 53.8047 139.809L53.5547 136.559L71.0047 136.539Z" fill="#F6837E"/>
<path d="M53.8046 139.809C60.8246 140.329 66.5146 139.339 71.2246 140.559L71.4446 143.129L54.5946 142.769C53.8279 142.162 53.5646 141.176 53.8046 139.809Z" fill="#7F434C"/>
<path d="M71.4456 143.129C72.7656 150.849 72.6222 157.839 71.0156 164.099C68.1256 175.319 59.8656 183.209 50.6056 189.699C47.3589 191.979 43.8589 193.839 40.1056 195.279C36.4656 196.669 32.3956 196.759 28.3356 197.719C28.2365 197.74 28.1453 197.78 28.069 197.836C27.9927 197.891 27.9333 197.961 27.8956 198.039L27.8256 198.189C27.8035 198.233 27.7732 198.271 27.7368 198.3C27.7005 198.33 27.659 198.35 27.6156 198.359C23.8356 199.146 19.0522 199.636 13.2656 199.829C12.6989 199.849 12.4489 200.246 12.5156 201.019C8.64558 200.369 -1.53442 199.789 1.58558 193.419C26.3056 187.499 57.0656 172.529 54.5956 142.769L71.4456 143.129Z" fill="#FE8579"/>
</svg>
