<svg width="106" height="108" viewBox="0 0 106 108" fill="none" xmlns="http://www.w3.org/2000/svg">
<path d="M38.8215 8.72132C16.6515 20.6913 2.4215 41.5013 1.0815 66.8813C0.451501 78.7113 3.44148 88.5913 11.1815 97.1713C17.9415 104.651 26.5215 107.701 36.9215 106.321C53.4515 104.141 68.1515 101.721 80.3115 90.2113C91.2115 79.8913 101.542 63.6613 103.292 48.7313C104.212 40.8613 106.162 13.8713 97.6415 8.47132C80.5315 -2.35868 56.2115 -0.658679 38.8215 8.72132Z" stroke="#EFEB8B" stroke-width="2"/>
<path d="M77.2496 24.4905C77.4943 24.209 77.6812 23.8821 77.7996 23.5284C77.9179 23.1748 77.9654 22.8012 77.9394 22.4292C77.9134 22.0571 77.8144 21.6939 77.648 21.3601C77.4816 21.0263 77.251 20.7286 76.9696 20.4839L76.1846 19.8016C75.9032 19.5569 75.5763 19.3701 75.2226 19.2517C74.8689 19.1334 74.4954 19.0859 74.1234 19.1119C73.7513 19.1379 73.388 19.237 73.0543 19.4034C72.7205 19.5698 72.4227 19.8003 72.1781 20.0818L70.0131 22.5723C69.7684 22.8538 69.5816 23.1807 69.4632 23.5344C69.3449 23.888 69.2973 24.2616 69.3233 24.6336C69.3493 25.0057 69.4484 25.3689 69.6148 25.7027C69.7812 26.0365 70.0117 26.3342 70.2932 26.5789L71.0781 27.2612C71.3596 27.5059 71.6864 27.6927 72.0401 27.8111C72.3938 27.9294 72.7674 27.9769 73.1394 27.9509C73.5115 27.9249 73.8747 27.8258 74.2085 27.6594C74.5423 27.493 74.84 27.2625 75.0847 26.981L77.2496 24.4905Z" stroke="#7B7616" stroke-width="2"/>
<path d="M50.1005 27.531C44.1005 26.671 39.1404 37.661 49.5804 36.201C49.7553 36.1764 49.9167 36.1204 50.0496 36.0382C50.1824 35.9561 50.2825 35.8504 50.3405 35.731C51.2805 33.7643 51.7838 31.6776 51.8505 29.471C51.8651 29.0076 51.6946 28.5533 51.3716 28.1953C51.0486 27.8372 50.5959 27.6006 50.1005 27.531Z" stroke="#7B7616" stroke-width="2"/>
<path d="M20.772 37.921C15.482 44.141 24.062 47.951 26.062 43.341C27.142 40.851 27.742 37.811 25.652 35.591C25.5413 35.4769 25.4062 35.3909 25.2582 35.3404C25.1102 35.2899 24.9537 35.2764 24.8019 35.301C23.3886 35.541 22.0453 36.4144 20.772 37.921Z" stroke="#7B7616" stroke-width="2"/>
<path d="M76.7628 53.4314C76.9428 60.4314 87.4828 58.2814 84.4828 49.4514C84.4248 49.2798 84.3367 49.1202 84.2239 48.9822C84.111 48.8441 83.9757 48.7306 83.8261 48.6483C83.6766 48.5661 83.5159 48.5169 83.3537 48.5036C83.1916 48.4904 83.0314 48.5134 82.8828 48.5714C80.6428 49.4514 78.6828 50.718 77.0028 52.3714C76.9235 52.4508 76.8598 52.59 76.8178 52.7755C76.7758 52.9611 76.7568 53.1869 76.7628 53.4314Z" stroke="#7B7616" stroke-width="2"/>
<path d="M46.2616 58.4109C45.9881 58.782 45.8613 59.2384 45.9079 59.6842C45.9545 60.1299 46.1709 60.5303 46.5116 60.8009L48.8816 62.6909C49.9816 63.5709 51.0649 63.3576 52.1316 62.0509C53.7049 60.1443 54.3283 57.9843 54.0016 55.5709C53.7083 53.3976 52.7283 52.8476 51.0616 53.9209C49.1749 55.1409 47.5749 56.6376 46.2616 58.4109Z" stroke="#7B7616" stroke-width="2"/>
<path d="M16.8086 75.5297C17.238 75.686 17.7059 75.7234 18.1857 75.6397C18.6655 75.556 19.1476 75.3529 19.6047 75.042C20.0618 74.731 20.4847 74.3183 20.8495 73.8275C21.2143 73.3366 21.5137 72.7772 21.7306 72.1812C22.1687 70.9775 22.2444 69.6977 21.9409 68.6233C21.6375 67.5489 20.9798 66.768 20.1125 66.4523C19.6831 66.296 19.2151 66.2586 18.7354 66.3423C18.2556 66.426 17.7734 66.6291 17.3164 66.94C16.8593 67.251 16.4363 67.6636 16.0716 68.1545C15.7068 68.6453 15.4074 69.2048 15.1905 69.8008C14.7523 71.0045 14.6767 72.2843 14.9801 73.3587C15.2836 74.4331 15.9413 75.214 16.8086 75.5297Z" stroke="#7F7619" stroke-width="2"/>
<path d="M57.7917 75.231C57.0383 76.0243 56.8983 76.941 57.3716 77.981" stroke="#BE9E3B" stroke-width="2"/>
<path d="M57.3711 77.981C57.7011 81.891 68.5311 80.951 66.3911 72.471C66.0778 71.2376 65.2878 70.5376 64.0211 70.371C60.1345 69.8576 58.0578 71.4776 57.7911 75.231" stroke="#7F7619" stroke-width="2"/>
<path d="M57.3711 77.981L57.7911 75.231" stroke="#5D3C30" stroke-width="2"/>
<path d="M30.0384 88.0537C30.4136 88.2782 30.8411 88.4072 31.2964 88.4331C31.7517 88.459 32.226 88.3815 32.6921 88.2048C33.1581 88.0282 33.607 87.7559 34.0129 87.4035C34.4188 87.0512 34.7739 86.6257 35.0578 86.1513C35.3417 85.6769 35.5489 85.1629 35.6676 84.6386C35.7863 84.1144 35.8142 83.5902 35.7496 83.0959C35.685 82.6017 35.5293 82.1471 35.2913 81.7581C35.0533 81.369 34.7376 81.0532 34.3623 80.8287C33.9871 80.6041 33.5596 80.4752 33.1043 80.4492C32.649 80.4233 32.1747 80.5009 31.7087 80.6775C31.2426 80.8542 30.7938 81.1264 30.3879 81.4788C29.9819 81.8311 29.6268 82.2567 29.3429 82.7311C29.059 83.2055 28.8518 83.7195 28.7331 84.2437C28.6144 84.7679 28.5865 85.2921 28.6511 85.7864C28.7157 86.2806 28.8714 86.7352 29.1094 87.1243C29.3474 87.5133 29.6631 87.8291 30.0384 88.0537Z" stroke="#7B7616" stroke-width="2"/>
<path d="M1.0815 66.8813C2.4215 41.5013 16.6515 20.6913 38.8215 8.72132C56.2115 -0.658679 80.5315 -2.35868 97.6415 8.47132C106.161 13.8713 104.212 40.8613 103.292 48.7313C101.542 63.6613 91.2115 79.8913 80.3115 90.2113C68.1515 101.721 53.4515 104.141 36.9215 106.321C26.5215 107.701 17.9415 104.651 11.1815 97.1713C3.44148 88.5913 0.451501 78.7113 1.0815 66.8813ZM77.2498 24.4904C77.4945 24.209 77.6814 23.882 77.7997 23.5284C77.9181 23.1747 77.9655 22.8012 77.9395 22.4291C77.9135 22.0571 77.8145 21.6938 77.6481 21.36C77.4817 21.0262 77.2512 20.7285 76.9697 20.4838L76.1848 19.8015C75.9033 19.5568 75.5764 19.37 75.2227 19.2517C74.8691 19.1333 74.4955 19.0858 74.1235 19.1118C73.7514 19.1378 73.3882 19.2369 73.0544 19.4033C72.7206 19.5697 72.4229 19.8002 72.1782 20.0817L70.0132 22.5722C69.7685 22.8537 69.5817 23.1806 69.4633 23.5343C69.345 23.888 69.2974 24.2615 69.3234 24.6335C69.3495 25.0056 69.4485 25.3689 69.6149 25.7026C69.7813 26.0364 70.0118 26.3341 70.2933 26.5788L71.0782 27.2611C71.3597 27.5058 71.6866 27.6926 72.0402 27.811C72.3939 27.9293 72.7675 27.9768 73.1395 27.9508C73.5116 27.9248 73.8749 27.8258 74.2086 27.6593C74.5424 27.4929 74.8401 27.2624 75.0848 26.9809L77.2498 24.4904ZM50.1015 27.5313C44.1015 26.6713 39.1415 37.6613 49.5815 36.2013C49.7564 36.1767 49.9178 36.1208 50.0506 36.0386C50.1835 35.9564 50.2835 35.8507 50.3415 35.7313C51.2815 33.7647 51.7849 31.678 51.8515 29.4713C51.8662 29.008 51.6956 28.5537 51.3726 28.1956C51.0496 27.8376 50.597 27.601 50.1015 27.5313ZM20.7715 37.9213C15.4815 44.1413 24.0615 47.9513 26.0615 43.3413C27.1415 40.8513 27.7415 37.8113 25.6515 35.5913C25.5408 35.4772 25.4057 35.3912 25.2577 35.3407C25.1097 35.2902 24.9532 35.2767 24.8015 35.3013C23.3881 35.5413 22.0448 36.4147 20.7715 37.9213ZM76.7615 53.4313C76.9415 60.4313 87.4815 58.2813 84.4815 49.4513C84.4235 49.2798 84.3354 49.1202 84.2226 48.9821C84.1097 48.8441 83.9744 48.7305 83.8249 48.6483C83.6753 48.5661 83.5146 48.5168 83.3524 48.5036C83.1903 48.4904 83.0301 48.5134 82.8815 48.5713C80.6415 49.4513 78.6815 50.718 77.0015 52.3713C76.9222 52.4508 76.8585 52.5899 76.8165 52.7755C76.7745 52.9611 76.7555 53.1868 76.7615 53.4313ZM46.2615 58.4113C45.9879 58.7824 45.8612 59.2388 45.9078 59.6846C45.9544 60.1303 46.1708 60.5307 46.5115 60.8013L48.8815 62.6913C49.9815 63.5713 51.0648 63.358 52.1315 62.0513C53.7048 60.1447 54.3282 57.9847 54.0015 55.5713C53.7081 53.398 52.7281 52.848 51.0615 53.9213C49.1748 55.1413 47.5748 56.638 46.2615 58.4113ZM16.8095 75.53C17.239 75.6863 17.7069 75.7237 18.1867 75.64C18.6664 75.5563 19.1486 75.3532 19.6057 75.0423C20.0627 74.7313 20.4857 74.3187 20.8505 73.8278C21.2152 73.337 21.5146 72.7776 21.7316 72.1815C22.1697 70.9778 22.2454 69.698 21.9419 68.6236C21.6385 67.5492 20.9807 66.7683 20.1135 66.4526C19.684 66.2963 19.2161 66.2589 18.7363 66.3426C18.2566 66.4263 17.7744 66.6294 17.3173 66.9404C16.8603 67.2513 16.4373 67.664 16.0725 68.1548C15.7078 68.6457 15.4084 69.2051 15.1914 69.8011C14.7533 71.0048 14.6776 72.2847 14.9811 73.359C15.2845 74.4334 15.9423 75.2143 16.8095 75.53ZM57.7915 75.2313C57.0382 76.0247 56.8981 76.9413 57.3715 77.9813C57.7015 81.8913 68.5315 80.9513 66.3915 72.4713C66.0782 71.238 65.2882 70.538 64.0215 70.3713C60.1348 69.858 58.0582 71.478 57.7915 75.2313ZM30.0395 88.0538C30.4147 88.2784 30.8422 88.4073 31.2976 88.4333C31.7529 88.4592 32.2271 88.3816 32.6932 88.205C33.1593 88.0283 33.6082 87.756 34.0141 87.4037C34.42 87.0513 34.775 86.6258 35.0589 86.1514C35.3428 85.677 35.5501 85.163 35.6688 84.6388C35.7875 84.1146 35.8153 83.5904 35.7508 83.0961C35.6862 82.6019 35.5305 82.1472 35.2924 81.7582C35.0544 81.3692 34.7387 81.0534 34.3635 80.8288C33.9882 80.6042 33.5608 80.4753 33.1054 80.4494C32.6501 80.4234 32.1759 80.501 31.7098 80.6777C31.2437 80.8543 30.7949 81.1266 30.389 81.479C29.9831 81.8313 29.628 82.2568 29.3441 82.7312C29.0601 83.2056 28.8529 83.7196 28.7342 84.2439C28.6155 84.7681 28.5877 85.2923 28.6522 85.7865C28.7168 86.2808 28.8725 86.7354 29.1106 87.1244C29.3486 87.5135 29.6643 87.8293 30.0395 88.0538Z" fill="#DFD823"/>
<path d="M76.9712 20.484L76.1863 19.8017C75.0026 18.7727 73.2088 18.8981 72.1798 20.0819L70.0148 22.5724C68.9857 23.7561 69.1112 25.55 70.2949 26.579L71.0798 27.2613C72.2636 28.2903 74.0574 28.1649 75.0864 26.9811L77.2514 24.4906C78.2804 23.3068 78.155 21.513 76.9712 20.484Z" fill="#161409"/>
<path d="M49.5804 36.2014C39.1404 37.6614 44.1005 26.6714 50.1005 27.5314C50.5959 27.6011 51.0486 27.8377 51.3716 28.1957C51.6946 28.5538 51.8651 29.0081 51.8505 29.4714C51.7838 31.6781 51.2805 33.7648 50.3405 35.7314C50.2825 35.8509 50.1824 35.9565 50.0496 36.0387C49.9167 36.1209 49.7553 36.1768 49.5804 36.2014Z" fill="#161409"/>
<path d="M20.772 37.9215C22.0453 36.4148 23.3886 35.5415 24.8019 35.3015C24.9537 35.2769 25.1102 35.2904 25.2582 35.3409C25.4062 35.3914 25.5413 35.4774 25.652 35.5915C27.742 37.8115 27.142 40.8515 26.062 43.3415C24.062 47.9515 15.482 44.1415 20.772 37.9215Z" fill="#161409"/>
<path d="M77.0028 52.3714C78.6828 50.718 80.6428 49.4514 82.8828 48.5714C83.0314 48.5134 83.1916 48.4904 83.3537 48.5036C83.5159 48.5169 83.6766 48.5661 83.8261 48.6483C83.9757 48.7306 84.111 48.8441 84.2239 48.9822C84.3367 49.1202 84.4248 49.2798 84.4828 49.4514C87.4828 58.2814 76.9428 60.4314 76.7628 53.4314C76.7568 53.1869 76.7758 52.9611 76.8178 52.7755C76.8598 52.59 76.9235 52.4508 77.0028 52.3714Z" fill="#161409"/>
<path d="M46.2616 58.4114C47.5749 56.6381 49.1749 55.1414 51.0616 53.9214C52.7283 52.8481 53.7083 53.3981 54.0016 55.5714C54.3283 57.9847 53.7049 60.1448 52.1316 62.0514C51.0649 63.3581 49.9816 63.5714 48.8816 62.6914L46.5116 60.8014C46.1709 60.5308 45.9545 60.1304 45.9079 59.6847C45.8613 59.2389 45.9881 58.7825 46.2616 58.4114Z" fill="#161409"/>
<path d="M15.1906 69.8013C14.2782 72.308 15.0027 74.8729 16.8088 75.5303C18.6148 76.1876 20.8185 74.6884 21.7309 72.1818C22.6432 69.6751 21.9187 67.1102 20.1127 66.4528C18.3066 65.7955 16.1029 67.2947 15.1906 69.8013Z" fill="#1E140E"/>
<path d="M57.3711 77.9814L57.7911 75.2314C58.0578 71.4781 60.1345 69.8581 64.0211 70.3714C65.2878 70.5381 66.0778 71.2381 66.3911 72.4714C68.5311 80.9514 57.7011 81.8914 57.3711 77.9814Z" fill="#1E140E"/>
<path d="M57.7917 75.2314L57.3716 77.9814C56.8983 76.9414 57.0383 76.0248 57.7917 75.2314Z" fill="#9C6352"/>
<path d="M29.3459 82.7313C28.1519 84.7264 28.4632 87.1094 30.0413 88.0539C31.6194 88.9983 33.8666 88.1466 35.0606 86.1515C36.2547 84.1564 35.9434 81.7734 34.3653 80.829C32.7872 79.8845 30.54 80.7362 29.3459 82.7313Z" fill="#161409"/>
</svg>
