<svg width="83" height="146" viewBox="0 0 83 146" fill="none" xmlns="http://www.w3.org/2000/svg">
<path d="M29.504 65.4431C41.564 52.7631 55.004 37.8331 63.684 22.1131C64.584 20.4864 64.204 19.2498 62.544 18.4031C61.6773 17.9631 60.3473 17.4864 58.554 16.9731C41.2806 12.0064 24.0706 6.84309 6.92397 1.48309C0.713966 -0.456906 0.463987 3.78309 1.41399 8.20309C2.75399 14.4931 4.13399 20.7331 5.13399 27.1431C9.08066 52.4298 13.144 77.6964 17.324 102.943C19.634 116.943 22.334 129.293 25.694 142.323C26.1473 144.09 27.1673 144.516 28.754 143.603C30.7073 142.476 32.6073 141.013 34.454 139.213C50.224 123.843 66.134 108.073 79.894 90.8631C82.824 87.1931 80.374 85.6031 77.014 84.4431C61.7007 79.1498 46.0873 73.7398 30.174 68.2131C28.514 67.6331 28.2907 66.7098 29.504 65.4431Z" stroke="#8A8C90" stroke-width="2"/>
<path d="M24.842 19.6623C24.7602 18.9963 24.3544 18.3978 23.714 17.9985C23.0735 17.5991 22.2509 17.4316 21.4269 17.5327C21.019 17.5828 20.623 17.6974 20.2615 17.8698C19.9001 18.0423 19.5803 18.2693 19.3205 18.5379C19.0606 18.8065 18.8658 19.1115 18.747 19.4353C18.6283 19.7591 18.5881 20.0956 18.6285 20.4253C18.7103 21.0913 19.1161 21.6898 19.7565 22.0892C20.397 22.4886 21.2196 22.6561 22.0436 22.5549C22.4515 22.5048 22.8475 22.3903 23.209 22.2178C23.5704 22.0453 23.8902 21.8183 24.15 21.5497C24.4099 21.2811 24.6047 20.9762 24.7235 20.6523C24.8422 20.3285 24.8824 19.9921 24.842 19.6623Z" stroke="#46777A" stroke-width="2"/>
<path d="M24.6244 31.4192C24.1012 30.5239 23.2074 29.8943 22.1396 29.669C21.0718 29.4437 19.9174 29.6411 18.9305 30.2178C18.4418 30.5034 18.0089 30.8735 17.6566 31.307C17.3043 31.7404 17.0393 32.2288 16.877 32.7442C16.7146 33.2596 16.658 33.792 16.7103 34.3108C16.7626 34.8297 16.9229 35.3249 17.182 35.7682C17.7052 36.6636 18.599 37.2931 19.6668 37.5184C20.7346 37.7438 21.8889 37.5463 22.8759 36.9696C23.3645 36.6841 23.7974 36.314 24.1498 35.8805C24.5021 35.447 24.767 34.9586 24.9294 34.4432C25.0918 33.9278 25.1484 33.3955 25.096 32.8767C25.0437 32.3578 24.8834 31.8626 24.6244 31.4192Z" stroke="#46777A" stroke-width="2"/>
<path d="M36.5898 89.0637C36.7639 88.4048 36.608 87.6874 36.1563 87.0696C35.7047 86.4518 34.9943 85.984 34.1814 85.7692C33.3686 85.5545 32.5199 85.6103 31.822 85.9244C31.1242 86.2385 30.6343 86.7852 30.4602 87.4441C30.286 88.1031 30.442 88.8204 30.8936 89.4383C31.3452 90.0561 32.0556 90.5239 32.8685 90.7386C33.6813 90.9534 34.53 90.8976 35.2279 90.5835C35.9257 90.2694 36.4156 89.7227 36.5898 89.0637Z" stroke="#44636D" stroke-width="2"/>
<path d="M39.079 103.451C38.9976 102.925 38.7997 102.423 38.4966 101.973C38.1934 101.523 37.791 101.133 37.3123 100.827C36.8335 100.52 36.2879 100.303 35.7064 100.187C35.1249 100.071 34.5191 100.059 33.9234 100.151C32.7204 100.337 31.6319 100.937 30.8974 101.82C30.163 102.702 29.8427 103.794 30.007 104.855C30.0883 105.381 30.2862 105.883 30.5894 106.334C30.8925 106.784 31.2949 107.173 31.7737 107.48C32.2524 107.786 32.7981 108.004 33.3796 108.12C33.961 108.236 34.5669 108.248 35.1626 108.156C36.3656 107.969 37.4541 107.369 38.1885 106.487C38.923 105.605 39.2433 104.513 39.079 103.451Z" stroke="#46777A" stroke-width="2"/>
<path d="M29.504 65.4431C28.2907 66.7098 28.514 67.6331 30.174 68.2131C46.0873 73.7398 61.7007 79.1498 77.014 84.4431C80.374 85.6031 82.824 87.1931 79.894 90.8631C66.134 108.073 50.224 123.843 34.454 139.213C32.6073 141.013 30.7073 142.476 28.754 143.603C27.1673 144.516 26.1473 144.09 25.694 142.323C22.334 129.293 19.634 116.943 17.324 102.943C13.144 77.6964 9.08066 52.4298 5.13399 27.1431C4.13399 20.7331 2.75399 14.4931 1.41399 8.20309C0.463987 3.78309 0.713966 -0.456906 6.92397 1.48309C24.0706 6.84309 41.2806 12.0064 58.554 16.9731C60.3473 17.4864 61.6773 17.9631 62.544 18.4031C64.204 19.2498 64.584 20.4864 63.684 22.1131C55.004 37.8331 41.564 52.7631 29.504 65.4431ZM24.8407 19.6616C24.7589 18.9956 24.3531 18.3971 23.7127 17.9977C23.0723 17.5984 22.2496 17.4308 21.4257 17.532C21.0177 17.5821 20.6217 17.6966 20.2603 17.8691C19.8988 18.0416 19.5791 18.2686 19.3192 18.5372C19.0593 18.8058 18.8645 19.1107 18.7458 19.4346C18.6271 19.7584 18.5868 20.0948 18.6273 20.4246C18.7091 21.0906 19.1148 21.6891 19.7553 22.0885C20.3957 22.4878 21.2184 22.6554 22.0423 22.5542C22.4503 22.5041 22.8463 22.3896 23.2077 22.2171C23.5691 22.0446 23.8889 21.8176 24.1488 21.549C24.4086 21.2804 24.6035 20.9755 24.7222 20.6516C24.8409 20.3278 24.8812 19.9914 24.8407 19.6616ZM24.6252 31.4186C24.102 30.5233 23.2082 29.8937 22.1404 29.6684C21.0726 29.4431 19.9182 29.6405 18.9313 30.2172C18.4426 30.5028 18.0097 30.8728 17.6574 31.3063C17.3051 31.7398 17.0401 32.2282 16.8778 32.7436C16.7154 33.259 16.6588 33.7913 16.7111 34.3102C16.7634 34.829 16.9237 35.3243 17.1828 35.7676C17.706 36.6629 18.5998 37.2925 19.6676 37.5178C20.7354 37.7431 21.8897 37.5457 22.8767 36.969C23.3653 36.6834 23.7982 36.3133 24.1506 35.8799C24.5029 35.4464 24.7678 34.958 24.9302 34.4426C25.0926 33.9272 25.1492 33.3949 25.0968 32.876C25.0445 32.3571 24.8842 31.8619 24.6252 31.4186ZM36.5888 89.0629C36.7629 88.4039 36.607 87.6866 36.1553 87.0687C35.7037 86.4509 34.9933 85.9832 34.1805 85.7684C33.3676 85.5536 32.5189 85.6095 31.8211 85.9236C31.1232 86.2377 30.6333 86.7843 30.4592 87.4433C30.2851 88.1023 30.441 88.8196 30.8926 89.4374C31.3443 90.0553 32.0546 90.523 32.8675 90.7378C33.6803 90.9526 34.529 90.8967 35.2269 90.5826C35.9248 90.2685 36.4147 89.7219 36.5888 89.0629ZM39.08 103.451C38.9986 102.925 38.8007 102.423 38.4976 101.973C38.1944 101.522 37.792 101.133 37.3133 100.826C36.8345 100.52 36.2889 100.303 35.7074 100.187C35.1259 100.071 34.5201 100.059 33.9244 100.151C32.7214 100.337 31.6329 100.937 30.8984 101.82C30.164 102.702 29.8437 103.794 30.008 104.855C30.0893 105.381 30.2873 105.883 30.5904 106.333C30.8935 106.784 31.2959 107.173 31.7747 107.48C32.2534 107.786 32.7991 108.004 33.3806 108.119C33.962 108.235 34.5679 108.248 35.1636 108.155C36.3666 107.969 37.4551 107.369 38.1895 106.487C38.924 105.604 39.2443 104.512 39.08 103.451Z" fill="#151E30"/>
<path d="M24.838 19.6613C24.8785 19.9911 24.8383 20.3275 24.7195 20.6514C24.6008 20.9752 24.406 21.2801 24.1461 21.5487C23.8863 21.8173 23.5665 22.0444 23.2051 22.2168C22.8436 22.3893 22.4476 22.5039 22.0396 22.5539C21.2157 22.6551 20.3931 22.4876 19.7526 22.0882C19.1122 21.6888 18.7064 21.0903 18.6246 20.4243C18.5841 20.0946 18.6244 19.7582 18.7431 19.4343C18.8619 19.1105 19.0567 18.8056 19.3166 18.537C19.5764 18.2684 19.8962 18.0413 20.2576 17.8689C20.6191 17.6964 21.0151 17.5818 21.423 17.5317C22.247 17.4306 23.0696 17.5981 23.7101 17.9975C24.3505 18.3969 24.7562 18.9954 24.838 19.6613Z" fill="#77D0C4"/>
<path d="M24.6244 31.4183C24.8834 31.8616 25.0437 32.3568 25.096 32.8757C25.1484 33.3945 25.0918 33.9269 24.9294 34.4423C24.767 34.9577 24.5021 35.4461 24.1498 35.8795C23.7974 36.313 23.3645 36.6831 22.8759 36.9687C21.8889 37.5454 20.7346 37.7428 19.6668 37.5175C18.599 37.2922 17.7052 36.6626 17.182 35.7673C16.9229 35.3239 16.7626 34.8287 16.7103 34.3098C16.658 33.791 16.7146 33.2587 16.877 32.7433C17.0393 32.2279 17.3043 31.7395 17.6566 31.306C18.0089 30.8725 18.4418 30.5024 18.9305 30.2169C19.9174 29.6402 21.0718 29.4427 22.1396 29.6681C23.2074 29.8934 24.1012 30.5229 24.6244 31.4183Z" fill="#77D0C4"/>
<path d="M36.5898 89.0628C36.4156 89.7217 35.9257 90.2684 35.2279 90.5825C34.53 90.8966 33.6813 90.9524 32.8685 90.7377C32.0556 90.5229 31.3452 90.0551 30.8936 89.4373C30.442 88.8195 30.286 88.1022 30.4602 87.4432C30.6343 86.7842 31.1242 86.2375 31.822 85.9234C32.5199 85.6093 33.3686 85.5535 34.1814 85.7683C34.9943 85.983 35.7047 86.4508 36.1563 87.0686C36.608 87.6865 36.7639 88.4038 36.5898 89.0628Z" fill="#72A7A9"/>
<path d="M39.079 103.451C39.2433 104.513 38.923 105.605 38.1885 106.487C37.4541 107.369 36.3656 107.969 35.1626 108.156C34.5669 108.248 33.961 108.236 33.3796 108.12C32.7981 108.004 32.2524 107.786 31.7737 107.48C31.2949 107.173 30.8925 106.784 30.5894 106.334C30.2862 105.883 30.0883 105.381 30.007 104.855C29.8427 103.794 30.163 102.702 30.8974 101.82C31.6319 100.937 32.7204 100.337 33.9234 100.151C34.5191 100.059 35.1249 100.071 35.7064 100.187C36.2879 100.303 36.8335 100.52 37.3123 100.827C37.791 101.133 38.1934 101.523 38.4966 101.973C38.7997 102.423 38.9976 102.925 39.079 103.451Z" fill="#77D0C4"/>
</svg>
