<svg width="137" height="133" viewBox="0 0 137 133" fill="none" xmlns="http://www.w3.org/2000/svg">
<path d="M76.9489 131.182C109.679 129.162 136.609 106.152 135.569 71.6216C134.469 34.9616 99.0889 0.27163 62.2589 1.01163C38.7789 1.48163 23.7889 14.8216 12.4589 33.9816C1.69895 52.1716 -3.02107 73.9416 5.09893 93.9416C13.0089 113.442 33.0889 129.292 54.1989 131.182" stroke="#FEE493" stroke-width="2"/>
<path d="M42.0692 62.8013C37.5792 84.9713 57.1992 100.981 77.6692 98.5013C90.8792 96.9013 102.159 87.4513 103.029 73.5713C104.259 53.8913 87.1992 39.1613 68.6792 40.1613C54.6392 40.9213 44.8692 48.9213 42.0692 62.8013Z" stroke="#FEE493" stroke-width="2"/>
<path d="M76.9489 131.182H54.1989C33.0889 129.292 13.0089 113.442 5.09893 93.9416C-3.02107 73.9416 1.69895 52.1716 12.4589 33.9816C23.7889 14.8216 38.7789 1.48163 62.2589 1.01163C99.0889 0.27163 134.469 34.9616 135.569 71.6216C136.609 106.152 109.679 129.162 76.9489 131.182ZM42.0689 62.8016C37.5789 84.9716 57.1989 100.982 77.6689 98.5016C90.8789 96.9016 102.159 87.4516 103.029 73.5716C104.259 53.8916 87.1989 39.1616 68.6789 40.1616C54.6389 40.9216 44.8689 48.9216 42.0689 62.8016Z" fill="#FDCA27"/>
</svg>
