<svg width="106" height="197" viewBox="0 0 106 197" fill="none" xmlns="http://www.w3.org/2000/svg">
<path d="M74.4353 13.1727L79.1953 8.99271C79.2441 8.94899 79.2842 8.89651 79.3133 8.83836C79.3423 8.78022 79.3597 8.71759 79.3643 8.65419C79.369 8.59079 79.3609 8.5279 79.3404 8.46925C79.32 8.41059 79.2876 8.35737 79.2453 8.31271C77.8653 6.93271 76.282 6.18271 74.4953 6.06271C69.1753 5.71271 57.5953 18.4627 54.2953 22.4627C46.0253 32.5027 37.5253 42.2727 29.4353 52.5827C28.3887 53.916 27.0987 54.2227 25.5653 53.5027C17.4153 49.6427 17.8753 39.5327 17.7853 31.3327C17.6653 21.5994 17.7553 11.8694 18.0553 2.14271C18.0587 1.9564 18.0323 1.78051 17.9785 1.62933C17.9246 1.47815 17.8447 1.35597 17.7453 1.27271C16.4653 0.242712 15.6653 2.81271 15.3753 3.56271C15.3122 3.72499 15.2125 3.86387 15.0925 3.95655C14.9726 4.04923 14.8396 4.09019 14.7153 4.07271C13.4253 3.89271 13.9853 -0.797288 11.3353 1.76271C10.3953 2.68271 10.3753 4.28271 8.60535 4.67271C8.41777 4.7145 8.24983 4.80523 8.13229 4.92828C8.01475 5.05133 7.95547 5.19846 7.96533 5.34271L8.28534 10.0827C8.29774 10.2468 8.27927 10.4087 8.23111 10.5583C8.18294 10.708 8.10611 10.8422 8.00534 10.9527C5.71534 13.5627 10.1954 15.8727 11.9854 17.0627C12.1095 17.147 12.2091 17.2626 12.2741 17.3979C12.3391 17.5331 12.3671 17.6831 12.3553 17.8327C11.662 24.7927 11.472 31.746 11.7853 38.6927C12.5253 54.9727 19.9153 71.4827 12.9953 87.7827C9.76533 95.3927 5.20534 103.693 3.25534 110.743C0.63534 120.173 0.645348 129.583 1.54535 139.623C2.81868 153.989 7.77869 167.103 16.4254 178.963C22.5654 187.373 40.0453 196.603 50.4353 195.033C56.3153 194.143 70.6153 188.343 71.4353 180.393C71.6087 178.679 71.1287 176.406 69.9953 173.573C67.1753 166.563 63.4053 159.153 63.2253 151.583C63.0187 143.083 63.5153 132.999 64.7153 121.333C65.8653 110.123 58.1853 105.233 50.1253 100.073C49.9874 99.9851 49.8704 99.8727 49.7823 99.7432C49.6943 99.6138 49.6374 99.4703 49.6153 99.3227C48.5453 92.8627 58.0354 99.0427 60.5154 100.603C65.6754 103.853 69.3653 105.773 70.4953 110.823C72.7253 120.803 71.0853 131.593 69.5253 145.083C68.1853 156.613 76.1053 170.793 85.5953 177.233C89.7753 180.073 91.6353 183.773 96.5453 186.183C96.709 186.264 96.8907 186.291 97.0564 186.26C97.2221 186.228 97.3604 186.141 97.4453 186.013L98.5753 184.403C98.6629 184.274 98.7953 184.181 98.9514 184.137C99.1074 184.094 99.2779 184.103 99.4353 184.163C99.9253 184.353 101.955 185.783 102.385 185.083C102.464 184.958 102.486 184.797 102.448 184.626C102.41 184.455 102.314 184.285 102.175 184.143L100.565 182.523C100.491 182.45 100.441 182.358 100.421 182.256C100.4 182.154 100.41 182.046 100.448 181.942C100.487 181.838 100.553 181.741 100.64 181.663C100.727 181.584 100.832 181.525 100.945 181.493C102.325 181.099 103.572 180.439 104.685 179.513C104.82 179.4 104.914 179.25 104.95 179.091C104.985 178.932 104.958 178.776 104.875 178.653C104.309 177.813 102.672 177.033 99.9653 176.313C99.81 176.271 99.667 176.193 99.5485 176.084C99.4299 175.975 99.3393 175.84 99.2844 175.689C99.2294 175.537 99.2117 175.375 99.2328 175.216C99.2538 175.056 99.313 174.904 99.4053 174.773C100.079 173.813 99.8587 173.056 98.7453 172.503C96.7653 171.523 93.0853 172.193 91.0553 172.853C90.628 172.989 90.1719 173.01 89.7342 172.911C89.2965 172.813 88.8929 172.599 88.5653 172.293C82.4853 166.553 77.4553 157.853 77.4453 149.333C77.4453 138.593 78.6854 128.023 79.2654 117.193C79.7054 108.923 80.1853 102.343 73.6953 97.9227C65.4553 92.2927 55.5153 88.3727 47.5653 84.5727C43.272 82.5194 40.3787 80.6027 38.8853 78.8227C31.6153 70.1727 37.4653 54.2027 43.1153 45.9627C48.562 38.016 56.0753 29.8227 65.6553 21.3827C65.895 21.1758 66.2028 21.0591 66.5253 21.0527C70.8387 20.9927 75.0053 20.1427 79.0253 18.5027C84.1653 16.4027 77.4553 15.9627 77.3053 15.4027C77.2667 15.2723 77.2998 15.1237 77.398 14.9865C77.4963 14.8494 77.6524 14.7337 77.8353 14.6627L80.5154 13.6027C80.6496 13.5529 80.7658 13.4743 80.8481 13.3777C80.9304 13.281 80.9749 13.171 80.9753 13.0627C80.9853 11.7727 77.2053 13.0527 76.6853 13.3427C76.4187 13.4894 76.1087 13.5694 75.7553 13.5827L74.5053 13.6227C74.1053 13.636 74.082 13.486 74.4353 13.1727Z" stroke="#919396" stroke-width="2"/>
<path d="M43.634 105.503L43.2139 107.773C43.1998 107.861 43.1171 107.972 42.9764 108.092C42.8358 108.211 42.6435 108.333 42.424 108.443C40.0373 109.63 37.6873 110.89 35.3739 112.223C33.2639 113.443 34.0939 115.503 36.4739 114.483C40.3939 112.813 48.6939 110.283 44.8439 105.143C44.2306 104.33 43.8273 104.45 43.634 105.503Z" stroke="#8C9095" stroke-width="2"/>
<path d="M19.6958 109.803C19.6275 109.924 19.5249 110.029 19.3965 110.109C19.268 110.189 19.1171 110.241 18.9558 110.263C15.3691 110.743 13.3091 111.22 12.7758 111.693C11.7091 112.647 11.8725 113.25 13.2658 113.503C15.8858 113.99 18.1658 113.393 20.1058 111.713C20.4725 111.4 20.7591 111.22 20.9658 111.173C23.1258 110.673 27.7858 109.153 25.4758 106.363C25.3447 106.206 25.1986 106.078 25.0573 105.998C24.916 105.917 24.7863 105.888 24.6858 105.913C22.5125 106.52 20.8491 107.817 19.6958 109.803Z" stroke="#919396" stroke-width="2"/>
<path d="M51.0244 110.912C48.4977 114.979 45.1511 118.209 40.9844 120.602C40.8363 120.687 40.7128 120.799 40.6266 120.925C40.5405 121.052 40.4948 121.189 40.4944 121.322L40.4844 121.862C40.4835 121.929 40.5036 121.995 40.5435 122.056C40.5835 122.117 40.6424 122.173 40.7169 122.22C40.7915 122.266 40.88 122.303 40.9775 122.327C41.0749 122.352 41.1793 122.364 41.2844 122.362C46.9644 122.242 50.9077 119.586 53.1144 114.392C53.3884 113.753 53.4718 112.957 53.3544 112.102C52.9811 109.416 52.2044 109.019 51.0244 110.912Z" stroke="#898C91" stroke-width="2"/>
<path d="M26.2148 120.082C26.8815 120.849 27.7282 121.252 28.7549 121.292" stroke="#444E5C" stroke-width="2"/>
<path d="M28.7539 121.293C31.1206 121.819 33.0039 121.156 34.4039 119.303C34.5639 119.089 34.5106 119.026 34.2439 119.113L29.0039 120.873" stroke="#898C91" stroke-width="2"/>
<path d="M29.0069 120.872C27.9869 120.719 27.0835 120.289 26.2969 119.582" stroke="#444E5C" stroke-width="2"/>
<path d="M26.2935 119.583C26.5035 115.323 23.7035 116.403 21.5635 117.883C18.3968 120.07 14.8902 121.46 11.0435 122.053C10.8969 122.077 10.7644 122.15 10.6732 122.256C10.582 122.362 10.5392 122.493 10.5535 122.623C10.9135 126.303 24.5435 120.913 26.2135 120.083" stroke="#8C9095" stroke-width="2"/>
<path d="M26.2949 119.582L26.2148 120.082" stroke="#AEB8C4" stroke-width="2"/>
<path d="M28.7539 121.293L29.0039 120.873" stroke="#ABB4C1" stroke-width="2"/>
<path d="M56.957 118.252C54.157 124.182 50.607 126.422 46.557 131.232C46.337 131.499 46.3937 131.616 46.727 131.582C53.517 130.922 59.367 125.682 58.217 118.432C57.9903 117.012 57.5703 116.952 56.957 118.252Z" stroke="#919396" stroke-width="2"/>
<path d="M42.7956 127.272C38.4356 126.422 36.4456 127.682 33.6156 130.412C33.3956 130.625 33.4523 130.775 33.7856 130.862C37.7189 131.942 40.7889 130.959 42.9956 127.912C43.0361 127.855 43.0634 127.79 43.0751 127.722C43.0868 127.653 43.0826 127.584 43.0627 127.521C43.0429 127.457 43.008 127.401 42.9614 127.358C42.9148 127.314 42.8578 127.285 42.7956 127.272Z" stroke="#8C9095" stroke-width="2"/>
<path d="M10.016 129.243C7.896 128.483 6.80599 130.383 6.41599 132.023C6.36379 132.24 6.35313 132.453 6.38563 132.63C6.41813 132.807 6.49199 132.938 6.59599 133.003C6.86265 133.183 7.16599 133.3 7.50599 133.353C7.57152 133.364 7.6379 133.352 7.70042 133.318C7.76294 133.284 7.82007 133.23 7.86778 133.158C7.91548 133.087 7.95259 133 7.97648 132.904C8.00036 132.808 8.01043 132.705 8.00599 132.603C7.94599 131.11 8.60266 130.263 9.97599 130.063C11.096 129.903 11.1093 129.63 10.016 129.243Z" stroke="#313439" stroke-width="2"/>
<path d="M9.22385 136.063C10.6838 140.723 26.7739 136.383 24.0439 130.023C24.0201 129.97 23.9837 129.924 23.9378 129.889C23.8919 129.853 23.8376 129.829 23.7793 129.819C23.721 129.808 23.6604 129.811 23.6021 129.827C23.5439 129.844 23.4897 129.873 23.4438 129.913C19.8738 132.953 15.0839 135.863 10.1439 135.013C10.0059 134.989 9.86421 135.002 9.73239 135.049C9.60057 135.096 9.48296 135.176 9.39075 135.281C9.29853 135.386 9.23478 135.513 9.20557 135.65C9.17635 135.787 9.18265 135.929 9.22385 136.063Z" stroke="#82868E" stroke-width="2"/>
<path d="M47.6968 137.023C44.1301 141.769 39.2568 145.236 33.0768 147.423C32.9168 147.483 32.8235 147.593 32.7968 147.753C32.7887 147.795 32.7935 147.839 32.8106 147.88C32.8277 147.921 32.8567 147.958 32.8954 147.989C32.9341 148.02 32.9814 148.044 33.0337 148.058C33.086 148.073 33.1418 148.078 33.1968 148.073C35.2568 147.893 41.0868 148.633 42.5768 147.633C45.9035 145.419 48.3301 142.456 49.8568 138.743C50.4668 137.273 50.7368 132.973 47.6968 137.023Z" stroke="#8C9095" stroke-width="2"/>
<path d="M40.2744 137.273C41.2344 136.033 40.9711 135.616 39.4844 136.023L27.6944 139.273C26.9144 139.486 26.9144 139.699 27.6944 139.913C32.7844 141.293 36.6544 141.963 40.2744 137.273Z" stroke="#8C9095" stroke-width="2"/>
<path d="M54.9747 141.213C52.5347 145.023 51.7447 148.673 47.2447 150.563C43.0913 152.296 43.368 153.323 48.0747 153.643C48.4071 153.662 48.7311 153.586 49.0047 153.423C52.6747 151.213 57.2447 146.123 56.5347 141.543C56.3013 140.069 55.7813 139.959 54.9747 141.213Z" stroke="#919396" stroke-width="2"/>
<path d="M25.1251 144.853C25.3151 142.993 22.9751 143.623 21.9651 144.283C18.8551 146.323 13.6352 148.863 11.1052 146.553C9.99849 145.547 9.54514 145.787 9.74514 147.273C10.4551 152.723 20.1452 148.563 23.1352 147.433C24.3285 146.98 24.9918 146.12 25.1251 144.853Z" stroke="#8C9095" stroke-width="2"/>
<path d="M56.4666 155.533C53.9866 159.22 50.9266 162.32 47.2866 164.833C47.1213 164.948 46.9843 165.1 46.8874 165.276C46.7906 165.452 46.7369 165.647 46.731 165.843C46.7251 166.039 46.7672 166.231 46.8535 166.402C46.9399 166.572 47.068 166.717 47.2267 166.823C48.0933 167.403 49.13 167.196 50.3366 166.203C53.6666 163.473 57.8166 160.613 56.9666 155.673C56.8866 155.2 56.72 155.153 56.4666 155.533Z" stroke="#919396" stroke-width="2"/>
<path d="M15.1538 165.262C15.1422 165.332 15.1495 165.403 15.1751 165.469C15.2007 165.535 15.2437 165.593 15.3 165.639C15.3563 165.684 15.4239 165.714 15.4964 165.727C15.5689 165.74 15.6437 165.735 15.7138 165.713C21.3605 163.959 26.8638 161.832 32.2238 159.332C32.3782 159.26 32.5069 159.148 32.5914 159.014C32.6758 158.879 32.7117 158.728 32.6938 158.582C32.3138 155.582 30.2538 155.472 27.9938 156.892C25.7438 158.312 15.5138 163.222 15.1538 165.262Z" stroke="#8C9095" stroke-width="2"/>
<path d="M16.4045 157.413C15.6545 157.503 11.9245 156.273 14.3545 158.583C14.5331 158.752 14.7136 158.892 14.8748 158.986C15.036 159.08 15.1712 159.124 15.2645 159.113L17.4945 158.833C17.5625 158.824 17.627 158.798 17.6836 158.755C17.7402 158.713 17.7876 158.655 17.8226 158.586C17.8577 158.517 17.8795 158.438 17.8868 158.355C17.894 158.271 17.8864 158.185 17.8645 158.103C17.7178 157.543 17.2311 157.313 16.4045 157.413Z" stroke="#6C707B" stroke-width="2"/>
<path d="M14.1265 160.413L12.0665 159.723C12.0105 159.704 11.9508 159.702 11.8936 159.716C11.8364 159.73 11.7836 159.76 11.7408 159.803C11.698 159.846 11.6667 159.9 11.6502 159.96C11.6336 160.019 11.6323 160.083 11.6465 160.143C11.9332 161.556 12.7698 161.816 14.1565 160.923C14.5098 160.703 14.4998 160.533 14.1265 160.413Z" stroke="#6C707B" stroke-width="2"/>
<path d="M40.4458 164.923C40.5555 164.729 40.5906 164.503 40.5445 164.287C40.4983 164.071 40.3741 163.881 40.1958 163.753C38.7758 162.693 37.9458 162.513 36.4358 163.613C28.8358 169.213 39.7558 166.133 40.4458 164.923Z" stroke="#919396" stroke-width="2"/>
<path d="M52.8543 176.172C51.9743 176.979 52.101 177.252 53.2343 176.992C54.9043 176.612 63.0743 171.602 61.7143 168.712C61.6878 168.657 61.6475 168.609 61.5965 168.573C61.5455 168.537 61.4853 168.515 61.4209 168.507C61.3566 168.499 61.2898 168.506 61.226 168.528C61.1623 168.55 61.1034 168.586 61.0543 168.632L52.8543 176.172Z" stroke="#919396" stroke-width="2"/>
<path d="M45.7266 172.973C45.6466 172.714 45.2568 172.564 44.6431 172.553C44.0294 172.543 43.242 172.674 42.4541 172.918C42.0639 173.039 41.6854 173.184 41.3401 173.344C40.9948 173.505 40.6895 173.678 40.4416 173.854C40.1938 174.03 40.0082 174.205 39.8955 174.369C39.7828 174.534 39.7452 174.684 39.7848 174.812C39.8648 175.071 40.2546 175.222 40.8683 175.232C41.482 175.242 42.2694 175.111 43.0573 174.867C43.4475 174.746 43.826 174.601 44.1713 174.441C44.5166 174.28 44.8219 174.107 45.0698 173.931C45.3177 173.755 45.5032 173.58 45.6159 173.416C45.7286 173.251 45.7662 173.101 45.7266 172.973Z" stroke="#919396" stroke-width="2"/>
<path d="M24.0634 174.073C21.9134 174.423 20.0234 173.593 17.7834 173.613C17.7156 173.613 17.6485 173.626 17.5868 173.653C17.5251 173.68 17.4702 173.719 17.4263 173.768C17.3823 173.817 17.3503 173.874 17.3325 173.935C17.3148 173.996 17.3116 174.061 17.3234 174.123C17.9334 177.143 29.0134 176.603 31.3834 176.483C31.5426 176.476 31.6982 176.434 31.8384 176.36C31.9787 176.286 32.1 176.181 32.1934 176.053C35.5634 171.383 26.5934 173.663 24.0634 174.073Z" stroke="#8C9095" stroke-width="2"/>
<path d="M64.5139 177.692C59.6839 182.982 51.4839 184.962 44.7939 187.482C44.6606 187.534 44.551 187.631 44.4878 187.754C44.4246 187.877 44.4124 188.016 44.4539 188.142C46.3139 194.082 65.8339 185.972 65.9939 178.272C66.0205 176.772 65.5272 176.579 64.5139 177.692Z" stroke="#898C91" stroke-width="2"/>
<path d="M28.1365 183.022C28.0653 183.198 28.031 183.387 28.0356 183.577C28.0402 183.766 28.0837 183.953 28.1633 184.126C28.243 184.298 28.3571 184.452 28.4987 184.579C28.6403 184.706 28.8063 184.802 28.9865 184.862C31.2465 185.642 45.5865 188.612 43.9365 182.342C43.9015 182.204 43.8193 182.08 43.7022 181.99C43.5851 181.9 43.4393 181.848 43.2865 181.842C38.9398 181.609 34.6832 181.339 30.5165 181.032C29.4965 180.952 28.7032 181.615 28.1365 183.022Z" stroke="#8C9095" stroke-width="2"/>
<path d="M74.5053 13.6227L75.7553 13.5827C76.1087 13.5694 76.4187 13.4894 76.6853 13.3427C77.2053 13.0527 80.9853 11.7727 80.9753 13.0627C80.9749 13.171 80.9304 13.281 80.8481 13.3777C80.7658 13.4743 80.6496 13.5529 80.5154 13.6027L77.8353 14.6627C77.6524 14.7337 77.4963 14.8494 77.398 14.9865C77.2998 15.1237 77.2667 15.2723 77.3053 15.4027C77.4553 15.9627 84.1653 16.4027 79.0253 18.5027C75.0053 20.1427 70.8387 20.9927 66.5253 21.0527C66.2028 21.0591 65.895 21.1758 65.6553 21.3827C56.0753 29.8227 48.562 38.016 43.1153 45.9627C37.4653 54.2027 31.6153 70.1727 38.8853 78.8227C40.3787 80.6027 43.272 82.5194 47.5653 84.5727C55.5153 88.3727 65.4553 92.2927 73.6953 97.9227C80.1853 102.343 79.7054 108.923 79.2654 117.193C78.6853 128.023 77.4453 138.593 77.4453 149.333C77.4553 157.853 82.4853 166.553 88.5653 172.293C88.893 172.599 89.2965 172.813 89.7342 172.911C90.1719 173.01 90.628 172.99 91.0553 172.853C93.0853 172.193 96.7653 171.523 98.7453 172.503C99.8587 173.056 100.079 173.813 99.4053 174.773C99.313 174.904 99.2538 175.056 99.2328 175.216C99.2117 175.375 99.2294 175.537 99.2844 175.689C99.3393 175.84 99.4299 175.975 99.5485 176.084C99.667 176.193 99.81 176.271 99.9653 176.313C102.672 177.033 104.309 177.813 104.875 178.653C104.958 178.776 104.985 178.932 104.95 179.091C104.914 179.25 104.82 179.4 104.685 179.513C103.572 180.439 102.325 181.099 100.945 181.493C100.832 181.525 100.727 181.584 100.64 181.663C100.553 181.741 100.487 181.838 100.448 181.942C100.41 182.046 100.4 182.154 100.421 182.256C100.441 182.358 100.491 182.45 100.565 182.523L102.175 184.143C102.314 184.285 102.41 184.455 102.448 184.626C102.486 184.797 102.464 184.958 102.385 185.083C101.955 185.783 99.9253 184.353 99.4353 184.163C99.2779 184.103 99.1074 184.094 98.9514 184.137C98.7953 184.181 98.6629 184.274 98.5753 184.403L97.4453 186.013C97.3604 186.141 97.2221 186.228 97.0564 186.26C96.8907 186.291 96.709 186.264 96.5453 186.183C91.6353 183.773 89.7753 180.073 85.5953 177.233C76.1053 170.793 68.1853 156.613 69.5253 145.083C71.0853 131.593 72.7253 120.803 70.4953 110.823C69.3653 105.773 65.6754 103.853 60.5154 100.603C58.0354 99.0427 48.5453 92.8627 49.6153 99.3227C49.6374 99.4703 49.6943 99.6138 49.7823 99.7432C49.8704 99.8727 49.9874 99.9851 50.1253 100.073C58.1853 105.233 65.8653 110.123 64.7153 121.333C63.5153 132.999 63.0187 143.083 63.2253 151.583C63.4053 159.153 67.1753 166.563 69.9953 173.573C71.1287 176.406 71.6087 178.679 71.4353 180.393C70.6153 188.343 56.3153 194.143 50.4353 195.033C40.0453 196.603 22.5654 187.373 16.4254 178.963C7.77869 167.103 2.81868 153.989 1.54535 139.623C0.645348 129.583 0.63534 120.173 3.25534 110.743C5.20534 103.693 9.76533 95.3927 12.9953 87.7827C19.9153 71.4827 12.5253 54.9727 11.7853 38.6927C11.472 31.746 11.662 24.7927 12.3553 17.8327C12.3671 17.6831 12.3391 17.5331 12.2741 17.3979C12.2091 17.2626 12.1095 17.147 11.9854 17.0627C10.1954 15.8727 5.71534 13.5627 8.00534 10.9527C8.10611 10.8422 8.18294 10.708 8.23111 10.5583C8.27927 10.4087 8.29774 10.2468 8.28534 10.0827L7.96533 5.34271C7.95547 5.19846 8.01475 5.05133 8.13229 4.92828C8.24983 4.80523 8.41777 4.7145 8.60535 4.67271C10.3753 4.28271 10.3953 2.68271 11.3353 1.76271C13.9853 -0.797288 13.4253 3.89271 14.7153 4.07271C14.8396 4.09019 14.9726 4.04923 15.0925 3.95655C15.2125 3.86387 15.3122 3.72499 15.3753 3.56271C15.6653 2.81271 16.4653 0.242712 17.7453 1.27271C17.8447 1.35597 17.9246 1.47815 17.9785 1.62933C18.0323 1.78051 18.0587 1.9564 18.0553 2.14271C17.7553 11.8694 17.6653 21.5994 17.7853 31.3327C17.8753 39.5327 17.4153 49.6427 25.5653 53.5027C27.0987 54.2227 28.3887 53.916 29.4353 52.5827C37.5253 42.2727 46.0253 32.5027 54.2953 22.4627C57.5953 18.4627 69.1753 5.71271 74.4953 6.06271C76.282 6.18271 77.8653 6.93271 79.2453 8.31271C79.2876 8.35737 79.32 8.41059 79.3404 8.46925C79.3609 8.5279 79.369 8.59079 79.3643 8.65419C79.3597 8.71759 79.3423 8.78022 79.3133 8.83836C79.2842 8.89651 79.2441 8.94899 79.1953 8.99271L74.4353 13.1727C74.082 13.486 74.1053 13.636 74.5053 13.6227ZM43.6353 105.503L43.2153 107.773C43.2012 107.861 43.1185 107.972 42.9778 108.091C42.8372 108.211 42.6449 108.333 42.4254 108.443C40.0387 109.629 37.6887 110.889 35.3753 112.223C33.2653 113.443 34.0953 115.503 36.4753 114.483C40.3953 112.813 48.6953 110.283 44.8453 105.143C44.232 104.329 43.8287 104.449 43.6353 105.503ZM19.6953 109.803C19.627 109.924 19.5245 110.028 19.396 110.108C19.2675 110.188 19.1166 110.241 18.9554 110.263C15.3687 110.743 13.3087 111.219 12.7753 111.693C11.7087 112.646 11.872 113.249 13.2653 113.503C15.8853 113.989 18.1653 113.393 20.1053 111.713C20.472 111.399 20.7587 111.219 20.9653 111.173C23.1253 110.673 27.7853 109.153 25.4753 106.363C25.3443 106.205 25.1981 106.078 25.0568 105.997C24.9155 105.917 24.7858 105.887 24.6853 105.913C22.512 106.519 20.8487 107.816 19.6953 109.803ZM51.0253 110.913C48.4987 114.979 45.152 118.209 40.9854 120.603C40.8373 120.688 40.7138 120.799 40.6276 120.926C40.5414 121.052 40.4958 121.189 40.4953 121.323L40.4854 121.863C40.4845 121.929 40.5046 121.995 40.5445 122.057C40.5844 122.118 40.6434 122.173 40.7179 122.22C40.7924 122.267 40.881 122.303 40.9784 122.328C41.0759 122.352 41.1802 122.364 41.2853 122.363C46.9653 122.243 50.9087 119.586 53.1153 114.393C53.3893 113.753 53.4727 112.958 53.3553 112.103C52.982 109.416 52.2053 109.019 51.0253 110.913ZM26.2153 120.083C26.882 120.849 27.7287 121.253 28.7553 121.293C31.122 121.819 33.0053 121.156 34.4053 119.303C34.5653 119.089 34.512 119.026 34.2453 119.113L29.0053 120.873C27.9853 120.719 27.082 120.289 26.2953 119.583C26.5053 115.323 23.7053 116.403 21.5653 117.883C18.3987 120.069 14.892 121.459 11.0453 122.053C10.8988 122.077 10.7662 122.149 10.675 122.255C10.5838 122.361 10.541 122.493 10.5553 122.623C10.9153 126.303 24.5453 120.913 26.2153 120.083ZM56.9554 118.253C54.1554 124.183 50.6053 126.423 46.5553 131.233C46.3353 131.499 46.392 131.616 46.7253 131.583C53.5153 130.923 59.3653 125.683 58.2153 118.433C57.9887 117.013 57.5687 116.953 56.9554 118.253ZM42.7953 127.273C38.4353 126.423 36.4453 127.683 33.6153 130.413C33.3953 130.626 33.452 130.776 33.7853 130.863C37.7187 131.943 40.7887 130.959 42.9953 127.913C43.0358 127.856 43.0631 127.791 43.0749 127.722C43.0866 127.654 43.0823 127.585 43.0625 127.521C43.0426 127.458 43.0078 127.402 42.9612 127.358C42.9145 127.315 42.8575 127.286 42.7953 127.273ZM10.0153 129.243C7.89535 128.483 6.80534 130.383 6.41534 132.023C6.36314 132.24 6.35248 132.453 6.38498 132.63C6.41748 132.807 6.49134 132.938 6.59534 133.003C6.862 133.183 7.16534 133.299 7.50534 133.353C7.57087 133.363 7.63725 133.351 7.69977 133.318C7.76229 133.284 7.81942 133.23 7.86713 133.158C7.91483 133.087 7.95194 133 7.97583 132.904C7.99971 132.808 8.00978 132.705 8.00534 132.603C7.94534 131.109 8.60201 130.263 9.97534 130.063C11.0953 129.903 11.1087 129.629 10.0153 129.243ZM9.22534 136.063C10.6853 140.723 26.7753 136.383 24.0453 130.023C24.0215 129.97 23.9852 129.924 23.9393 129.889C23.8934 129.854 23.8391 129.83 23.7808 129.819C23.7225 129.808 23.6619 129.811 23.6036 129.827C23.5454 129.844 23.4912 129.873 23.4453 129.913C19.8753 132.953 15.0854 135.863 10.1454 135.013C10.0074 134.989 9.86571 135.002 9.73389 135.049C9.60207 135.096 9.48446 135.176 9.39224 135.281C9.30003 135.386 9.23628 135.513 9.20706 135.65C9.17785 135.787 9.18414 135.929 9.22534 136.063ZM47.6953 137.023C44.1287 141.769 39.2553 145.236 33.0753 147.423C32.9153 147.483 32.822 147.593 32.7953 147.753C32.7873 147.795 32.792 147.839 32.8091 147.88C32.8262 147.921 32.8552 147.958 32.894 147.989C32.9327 148.02 32.98 148.044 33.0323 148.058C33.0845 148.073 33.1404 148.078 33.1953 148.073C35.2553 147.893 41.0853 148.633 42.5753 147.633C45.902 145.419 48.3287 142.456 49.8553 138.743C50.4653 137.273 50.7353 132.973 47.6953 137.023ZM40.2753 137.273C41.2353 136.033 40.972 135.616 39.4854 136.023L27.6953 139.273C26.9153 139.486 26.9153 139.699 27.6953 139.913C32.7853 141.293 36.6553 141.963 40.2753 137.273ZM54.9753 141.213C52.5353 145.023 51.7453 148.673 47.2453 150.563C43.092 152.296 43.3687 153.323 48.0753 153.643C48.4078 153.662 48.7317 153.585 49.0053 153.423C52.6753 151.213 57.2453 146.123 56.5353 141.543C56.302 140.069 55.782 139.959 54.9753 141.213ZM25.1253 144.853C25.3153 142.993 22.9753 143.623 21.9653 144.283C18.8553 146.323 13.6353 148.863 11.1053 146.553C9.99868 145.546 9.54533 145.786 9.74533 147.273C10.4553 152.723 20.1453 148.563 23.1353 147.433C24.3287 146.979 24.992 146.119 25.1253 144.853ZM56.4653 155.533C53.9853 159.219 50.9253 162.319 47.2853 164.833C47.12 164.948 46.983 165.1 46.8861 165.276C46.7893 165.452 46.7356 165.646 46.7297 165.842C46.7238 166.038 46.7659 166.23 46.8522 166.401C46.9386 166.572 47.0667 166.717 47.2253 166.823C48.092 167.403 49.1287 167.196 50.3353 166.203C53.6653 163.473 57.8153 160.613 56.9653 155.673C56.8853 155.199 56.7187 155.153 56.4653 155.533ZM15.1553 165.263C15.1437 165.332 15.1511 165.404 15.1767 165.469C15.2023 165.535 15.2453 165.594 15.3015 165.639C15.3578 165.684 15.4254 165.715 15.4979 165.728C15.5704 165.741 15.6453 165.735 15.7153 165.713C21.362 163.959 26.8653 161.833 32.2253 159.333C32.3798 159.26 32.5085 159.149 32.5929 159.014C32.6773 158.879 32.7132 158.728 32.6953 158.583C32.3153 155.583 30.2553 155.473 27.9953 156.893C25.7453 158.313 15.5153 163.223 15.1553 165.263ZM16.4053 157.413C15.6553 157.503 11.9253 156.273 14.3553 158.583C14.5339 158.752 14.7145 158.892 14.8757 158.986C15.0369 159.08 15.1721 159.124 15.2653 159.113L17.4953 158.833C17.5634 158.824 17.6278 158.798 17.6844 158.755C17.741 158.713 17.7885 158.655 17.8235 158.586C17.8586 158.517 17.8804 158.438 17.8876 158.355C17.8948 158.271 17.8872 158.185 17.8653 158.103C17.7187 157.543 17.232 157.313 16.4053 157.413ZM14.1253 160.413L12.0653 159.723C12.0094 159.704 11.9497 159.702 11.8925 159.716C11.8352 159.73 11.7825 159.76 11.7397 159.803C11.6969 159.845 11.6656 159.899 11.649 159.959C11.6324 160.019 11.6312 160.082 11.6454 160.143C11.932 161.556 12.7687 161.816 14.1553 160.923C14.5087 160.703 14.4987 160.533 14.1253 160.413ZM40.4453 164.923C40.555 164.73 40.5902 164.503 40.544 164.287C40.4979 164.071 40.3737 163.881 40.1953 163.753C38.7753 162.693 37.9453 162.513 36.4353 163.613C28.8353 169.213 39.7553 166.133 40.4453 164.923ZM52.8553 176.173C51.9753 176.979 52.102 177.253 53.2354 176.993C54.9053 176.613 63.0753 171.603 61.7153 168.713C61.6889 168.657 61.6485 168.609 61.5975 168.573C61.5465 168.538 61.4864 168.515 61.422 168.507C61.3576 168.499 61.2908 168.507 61.2271 168.529C61.1633 168.55 61.1045 168.586 61.0553 168.633L52.8553 176.173ZM45.7262 172.973C45.6462 172.715 45.2565 172.564 44.6428 172.553C44.0291 172.543 43.2416 172.674 42.4537 172.918C42.0636 173.039 41.685 173.184 41.3397 173.344C40.9944 173.505 40.6891 173.678 40.4413 173.854C40.1934 174.03 40.0078 174.205 39.8951 174.37C39.7824 174.534 39.7448 174.684 39.7845 174.812C39.8645 175.071 40.2542 175.222 40.8679 175.232C41.4816 175.242 42.269 175.111 43.0569 174.867C43.4471 174.746 43.8257 174.602 44.171 174.441C44.5163 174.28 44.8216 174.107 45.0694 173.931C45.3173 173.756 45.5029 173.58 45.6156 173.416C45.7283 173.251 45.7659 173.101 45.7262 172.973ZM24.0653 174.073C21.9153 174.423 20.0253 173.593 17.7853 173.613C17.7176 173.612 17.6505 173.626 17.5887 173.653C17.527 173.68 17.4722 173.719 17.4283 173.768C17.3843 173.816 17.3523 173.874 17.3345 173.935C17.3167 173.996 17.3136 174.06 17.3253 174.123C17.9353 177.143 29.0153 176.603 31.3853 176.483C31.5446 176.476 31.7001 176.434 31.8404 176.36C31.9806 176.285 32.102 176.18 32.1953 176.053C35.5653 171.383 26.5953 173.663 24.0653 174.073ZM64.5154 177.693C59.6853 182.983 51.4853 184.963 44.7953 187.483C44.662 187.535 44.5525 187.632 44.4893 187.755C44.426 187.878 44.4139 188.016 44.4554 188.143C46.3154 194.083 65.8353 185.973 65.9953 178.273C66.022 176.773 65.5287 176.579 64.5154 177.693ZM28.1353 183.023C28.0642 183.199 28.0298 183.388 28.0344 183.577C28.039 183.767 28.0825 183.954 28.1621 184.127C28.2418 184.299 28.3559 184.453 28.4975 184.58C28.6391 184.707 28.8051 184.803 28.9854 184.863C31.2454 185.643 45.5853 188.613 43.9353 182.343C43.9003 182.205 43.8182 182.081 43.701 181.991C43.5839 181.901 43.4381 181.849 43.2853 181.843C38.9387 181.609 34.682 181.339 30.5154 181.033C29.4953 180.953 28.702 181.616 28.1353 183.023Z" fill="#22262C"/>
<path d="M43.634 105.503C43.8273 104.45 44.2306 104.33 44.8439 105.143C48.6939 110.283 40.3939 112.813 36.4739 114.483C34.0939 115.503 33.2639 113.443 35.3739 112.223C37.6873 110.89 40.0373 109.63 42.424 108.443C42.6435 108.333 42.8358 108.211 42.9764 108.092C43.1171 107.972 43.1998 107.861 43.2139 107.773L43.634 105.503Z" fill="#F6F9FD"/>
<path d="M19.6958 109.803C20.8491 107.817 22.5125 106.52 24.6858 105.913C24.7863 105.888 24.916 105.917 25.0573 105.998C25.1986 106.078 25.3447 106.206 25.4758 106.363C27.7858 109.153 23.1258 110.673 20.9658 111.173C20.7591 111.22 20.4725 111.4 20.1058 111.713C18.1658 113.393 15.8858 113.99 13.2658 113.503C11.8725 113.25 11.7091 112.647 12.7758 111.693C13.3091 111.22 15.3691 110.743 18.9558 110.263C19.1171 110.241 19.268 110.189 19.3965 110.109C19.5249 110.029 19.6275 109.924 19.6958 109.803Z" fill="white"/>
<path d="M51.0244 110.912C52.2044 109.019 52.9811 109.416 53.3544 112.102C53.4718 112.957 53.3884 113.753 53.1144 114.392C50.9077 119.586 46.9644 122.242 41.2844 122.362C41.1793 122.364 41.0749 122.352 40.9775 122.327C40.88 122.303 40.7915 122.266 40.7169 122.22C40.6424 122.173 40.5835 122.117 40.5435 122.056C40.5036 121.995 40.4835 121.929 40.4844 121.862L40.4944 121.322C40.4948 121.189 40.5405 121.052 40.6266 120.925C40.7128 120.799 40.8363 120.687 40.9844 120.602C45.1511 118.209 48.4977 114.979 51.0244 110.912Z" fill="#F0F2F6"/>
<path d="M26.2935 119.583L26.2135 120.083C24.5435 120.913 10.9135 126.303 10.5535 122.623C10.5392 122.493 10.582 122.362 10.6732 122.256C10.7644 122.15 10.8969 122.077 11.0435 122.053C14.8902 121.46 18.3968 120.07 21.5635 117.883C23.7035 116.403 26.5035 115.323 26.2935 119.583Z" fill="#F6F9FD"/>
<path d="M56.9531 118.252C57.5664 116.952 57.9864 117.012 58.2131 118.432C59.3631 125.682 53.5131 130.922 46.7231 131.582C46.3898 131.616 46.3331 131.499 46.5531 131.232C50.6031 126.422 54.1531 124.182 56.9531 118.252Z" fill="white"/>
<path d="M28.7539 121.294L29.0039 120.874L34.2439 119.114C34.5106 119.027 34.5639 119.09 34.4039 119.304C33.0039 121.157 31.1206 121.82 28.7539 121.294Z" fill="#F0F2F6"/>
<path d="M26.2949 119.583C27.0815 120.29 27.9849 120.72 29.0049 120.873L28.7549 121.293C27.7282 121.253 26.8815 120.85 26.2148 120.083L26.2949 119.583Z" fill="#65768B"/>
<path d="M33.6156 130.413C36.4456 127.683 38.4356 126.423 42.7956 127.273C42.8578 127.286 42.9148 127.315 42.9614 127.359C43.008 127.402 43.0429 127.458 43.0627 127.522C43.0826 127.585 43.0868 127.654 43.0751 127.723C43.0634 127.791 43.0361 127.856 42.9956 127.913C40.7889 130.96 37.7189 131.943 33.7856 130.863C33.4523 130.776 33.3956 130.626 33.6156 130.413Z" fill="#F6F9FD"/>
<path d="M6.41209 132.023C6.80209 130.383 7.89209 128.483 10.0121 129.243C11.1054 129.63 11.0921 129.903 9.97208 130.063C8.59875 130.263 7.94208 131.11 8.00208 132.603C8.00652 132.705 7.99646 132.808 7.97257 132.904C7.94869 133 7.91157 133.087 7.86387 133.158C7.81617 133.23 7.75903 133.284 7.69651 133.318C7.63399 133.352 7.56762 133.364 7.50208 133.353C7.16208 133.3 6.85875 133.183 6.59208 133.003C6.48808 132.938 6.41422 132.807 6.38172 132.63C6.34922 132.453 6.35988 132.24 6.41209 132.023Z" fill="#3F4145"/>
<path d="M24.0439 130.023C26.7739 136.383 10.6838 140.723 9.22385 136.063C9.18265 135.929 9.17635 135.787 9.20557 135.65C9.23478 135.513 9.29853 135.386 9.39075 135.281C9.48296 135.176 9.60057 135.096 9.73239 135.049C9.86421 135.002 10.0059 134.989 10.1439 135.013C15.0839 135.863 19.8738 132.953 23.4438 129.913C23.4897 129.873 23.5439 129.844 23.6021 129.827C23.6604 129.811 23.721 129.808 23.7793 129.819C23.8376 129.829 23.8919 129.853 23.9378 129.889C23.9837 129.924 24.0201 129.97 24.0439 130.023Z" fill="#E2E6EF"/>
<path d="M47.6929 137.023C50.7329 132.973 50.4629 137.273 49.8529 138.743C48.3262 142.456 45.8995 145.419 42.5729 147.633C41.0829 148.633 35.2529 147.893 33.1929 148.073C33.1379 148.078 33.0821 148.073 33.0298 148.058C32.9775 148.044 32.9302 148.02 32.8915 147.989C32.8528 147.958 32.8238 147.921 32.8066 147.88C32.7895 147.839 32.7848 147.795 32.7929 147.753C32.8196 147.593 32.9129 147.483 33.0729 147.423C39.2529 145.236 44.1262 141.769 47.6929 137.023Z" fill="#F6F9FD"/>
<path d="M40.2744 137.274C36.6544 141.964 32.7844 141.294 27.6944 139.914C26.9144 139.7 26.9144 139.487 27.6944 139.274L39.4844 136.024C40.9711 135.617 41.2344 136.034 40.2744 137.274Z" fill="#F6F9FD"/>
<path d="M54.9747 141.213C55.7813 139.959 56.3013 140.069 56.5347 141.543C57.2447 146.123 52.6747 151.213 49.0047 153.423C48.7311 153.586 48.4071 153.662 48.0747 153.643C43.368 153.323 43.0913 152.296 47.2447 150.563C51.7447 148.673 52.5347 145.023 54.9747 141.213Z" fill="white"/>
<path d="M25.1251 144.853C24.9918 146.12 24.3285 146.98 23.1352 147.433C20.1452 148.563 10.4551 152.723 9.74514 147.273C9.54514 145.787 9.99849 145.547 11.1052 146.553C13.6352 148.863 18.8551 146.323 21.9651 144.283C22.9751 143.623 25.3151 142.993 25.1251 144.853Z" fill="#F6F9FD"/>
<path d="M56.4627 155.533C56.7161 155.153 56.8827 155.2 56.9627 155.673C57.8127 160.613 53.6627 163.473 50.3327 166.203C49.1261 167.196 48.0894 167.403 47.2227 166.823C47.0641 166.717 46.936 166.572 46.8496 166.402C46.7633 166.231 46.7212 166.039 46.7271 165.843C46.733 165.647 46.7867 165.452 46.8835 165.276C46.9804 165.1 47.1174 164.948 47.2827 164.833C50.9227 162.32 53.9827 159.22 56.4627 155.533Z" fill="white"/>
<path d="M15.1538 165.262C15.5138 163.222 25.7438 158.312 27.9938 156.892C30.2538 155.472 32.3138 155.582 32.6938 158.582C32.7117 158.728 32.6758 158.879 32.5914 159.014C32.5069 159.148 32.3782 159.26 32.2238 159.332C26.8638 161.832 21.3605 163.959 15.7138 165.713C15.6437 165.735 15.5689 165.74 15.4964 165.727C15.4239 165.714 15.3563 165.684 15.3 165.639C15.2437 165.593 15.2007 165.535 15.1751 165.469C15.1495 165.403 15.1422 165.332 15.1538 165.262Z" fill="#F6F9FD"/>
<path d="M16.4045 157.414C17.2311 157.314 17.7178 157.544 17.8645 158.104C17.8864 158.186 17.894 158.272 17.8868 158.356C17.8795 158.439 17.8577 158.518 17.8226 158.587C17.7876 158.656 17.7402 158.714 17.6836 158.756C17.627 158.799 17.5625 158.825 17.4945 158.834L15.2645 159.114C15.1712 159.125 15.036 159.081 14.8748 158.987C14.7136 158.893 14.5331 158.753 14.3545 158.584C11.9245 156.274 15.6545 157.504 16.4045 157.414Z" fill="#B5BACA"/>
<path d="M14.1526 160.923C12.7659 161.816 11.9293 161.556 11.6426 160.143C11.6284 160.083 11.6297 160.019 11.6463 159.96C11.6628 159.9 11.6941 159.846 11.7369 159.803C11.7797 159.76 11.8325 159.73 11.8897 159.716C11.9469 159.702 12.0066 159.704 12.0626 159.723L14.1226 160.413C14.4959 160.533 14.5059 160.703 14.1526 160.923Z" fill="#B5BACA"/>
<path d="M40.4458 164.924C39.7558 166.134 28.8358 169.214 36.4358 163.614C37.9458 162.514 38.7758 162.694 40.1958 163.754C40.3741 163.882 40.4983 164.072 40.5445 164.288C40.5906 164.504 40.5555 164.73 40.4458 164.924Z" fill="white"/>
<path d="M52.8543 176.172L61.0543 168.632C61.1034 168.586 61.1623 168.55 61.226 168.528C61.2898 168.506 61.3566 168.499 61.4209 168.507C61.4853 168.515 61.5455 168.537 61.5965 168.573C61.6475 168.609 61.6878 168.657 61.7143 168.712C63.0743 171.602 54.9043 176.612 53.2343 176.992C52.101 177.252 51.9743 176.979 52.8543 176.172Z" fill="white"/>
<path d="M43.0546 174.867C44.6954 174.359 45.8905 173.511 45.7239 172.973C45.5573 172.435 44.0922 172.41 42.4514 172.918C40.8106 173.426 39.6155 174.274 39.7821 174.812C39.9487 175.35 41.4138 175.375 43.0546 174.867Z" fill="white"/>
<path d="M24.0634 174.073C26.5934 173.663 35.5634 171.383 32.1934 176.053C32.1 176.181 31.9787 176.286 31.8384 176.36C31.6982 176.434 31.5426 176.476 31.3834 176.483C29.0134 176.603 17.9334 177.143 17.3234 174.123C17.3116 174.061 17.3148 173.996 17.3325 173.935C17.3503 173.874 17.3823 173.817 17.4263 173.768C17.4702 173.719 17.5251 173.68 17.5868 173.653C17.6485 173.626 17.7156 173.613 17.7834 173.613C20.0234 173.593 21.9134 174.423 24.0634 174.073Z" fill="#F6F9FD"/>
<path d="M64.5139 177.693C65.5272 176.58 66.0205 176.773 65.9939 178.273C65.8339 185.973 46.3139 194.083 44.4539 188.143C44.4124 188.017 44.4246 187.878 44.4878 187.755C44.551 187.632 44.6606 187.535 44.7939 187.483C51.4839 184.963 59.6839 182.983 64.5139 177.693Z" fill="#F0F2F6"/>
<path d="M28.1326 183.023C28.6993 181.616 29.4926 180.953 30.5126 181.033C34.6793 181.339 38.9359 181.609 43.2826 181.843C43.4353 181.849 43.5811 181.901 43.6983 181.991C43.8154 182.081 43.8976 182.205 43.9326 182.343C45.5826 188.613 31.2426 185.643 28.9826 184.863C28.8024 184.803 28.6363 184.707 28.4948 184.58C28.3532 184.453 28.2391 184.299 28.1594 184.127C28.0798 183.954 28.0363 183.767 28.0317 183.578C28.0271 183.388 28.0614 183.199 28.1326 183.023Z" fill="#F6F9FD"/>
</svg>
