<svg width="138" height="150" viewBox="0 0 138 150" fill="none" xmlns="http://www.w3.org/2000/svg">
<path d="M63.5482 128.502C73.6482 134.092 84.2682 143.532 97.9082 147.142C112.928 151.132 120.818 142.452 123.218 128.702C125.258 117.042 121.438 108.312 115.948 98.2515C104.588 77.4415 145.738 66.4415 134.808 51.6115C130.108 45.2315 119.708 43.1515 111.928 44.3815C107.208 45.1215 91.4582 52.9415 88.2682 48.0115C87.3416 46.5848 86.7182 45.0382 86.3982 43.3715C84.9315 35.6715 82.9082 28.1382 80.3282 20.7715C77.4482 12.5715 67.8682 -5.01848 57.2782 3.08152C48.8882 9.49152 45.4682 27.4115 43.5182 37.9915C43.0182 40.6615 41.3682 41.9315 38.7182 41.1015C27.2282 37.4915 9.2582 30.3515 2.8182 45.0515C-1.9518 55.9415 3.4882 73.3315 9.6282 82.7515C16.7882 93.7415 25.3482 94.9715 21.3382 110.042C20.1249 114.582 19.2515 119.175 18.7182 123.822C17.3482 135.802 25.1382 139.262 35.0682 133.932C43.9782 129.152 53.0982 122.712 63.5482 128.502Z" stroke="#B8DAD7" stroke-width="2"/>
<path d="M89.9874 70.7412C89.9874 69.8846 89.647 69.063 89.0413 68.4573C88.4356 67.8515 87.614 67.5112 86.7573 67.5112C85.9007 67.5112 85.0791 67.8515 84.4734 68.4573C83.8676 69.063 83.5273 69.8846 83.5273 70.7412C83.5273 71.5979 83.8676 72.4195 84.4734 73.0252C85.0791 73.631 85.9007 73.9713 86.7573 73.9713C87.614 73.9713 88.4356 73.631 89.0413 73.0252C89.647 72.4195 89.9874 71.5979 89.9874 70.7412Z" stroke="#416B71" stroke-width="2"/>
<path d="M70.0277 71.5114C70.0277 70.7582 69.7284 70.0358 69.1958 69.5032C68.6632 68.9706 67.9409 68.6714 67.1877 68.6714C66.4345 68.6714 65.7121 68.9706 65.1795 69.5032C64.6469 70.0358 64.3477 70.7582 64.3477 71.5114C64.3477 72.2646 64.6469 72.987 65.1795 73.5196C65.7121 74.0522 66.4345 74.3514 67.1877 74.3514C67.9409 74.3514 68.6632 74.0522 69.1958 73.5196C69.7284 72.987 70.0277 72.2646 70.0277 71.5114Z" stroke="#416B71" stroke-width="2"/>
<path d="M83.6427 88.4277C84.0626 88.3902 84.4704 88.2645 84.843 88.0576C85.2155 87.8508 85.5455 87.567 85.814 87.2223C86.0825 86.8776 86.2843 86.4789 86.4079 86.0488C86.5314 85.6188 86.5744 85.1658 86.5342 84.7159C86.4531 83.8072 86.0384 82.9657 85.3815 82.3766C84.7245 81.7876 83.8791 81.4992 83.0311 81.5749C82.6112 81.6123 82.2034 81.7381 81.8308 81.9449C81.4583 82.1517 81.1283 82.4356 80.8598 82.7802C80.5913 83.1249 80.3895 83.5236 80.2659 83.9537C80.1424 84.3838 80.0994 84.8367 80.1396 85.2867C80.2207 86.1954 80.6353 87.0368 81.2923 87.6259C81.9493 88.2149 82.7947 88.5034 83.6427 88.4277Z" stroke="#416B71" stroke-width="2"/>
<path d="M67.7572 85.0915C67.7572 84.4099 67.4864 83.7562 67.0045 83.2742C66.5225 82.7923 65.8688 82.5215 65.1872 82.5215C64.8497 82.5215 64.5155 82.5879 64.2037 82.7171C63.8919 82.8463 63.6086 83.0356 63.3699 83.2742C63.1313 83.5129 62.942 83.7962 62.8128 84.108C62.6837 84.4198 62.6172 84.754 62.6172 85.0915C62.6172 85.429 62.6837 85.7632 62.8128 86.075C62.942 86.3868 63.1313 86.6701 63.3699 86.9088C63.6086 87.1474 63.8919 87.3367 64.2037 87.4659C64.5155 87.595 64.8497 87.6615 65.1872 87.6615C65.8688 87.6615 66.5225 87.3907 67.0045 86.9088C67.4864 86.4268 67.7572 85.7731 67.7572 85.0915Z" stroke="#416B71" stroke-width="2"/>
<path d="M97.9121 147.142C84.2721 143.532 73.6521 134.092 63.5521 128.502C53.1021 122.712 43.9821 129.152 35.0721 133.932C25.1421 139.262 17.3521 135.802 18.7221 123.822C19.2555 119.175 20.1288 114.582 21.3421 110.042C25.3521 94.9715 16.7921 93.7415 9.63211 82.7515C3.49211 73.3315 -1.94789 55.9415 2.82211 45.0515C9.26211 30.3515 27.2321 37.4915 38.7221 41.1015C41.3721 41.9315 43.0221 40.6615 43.5221 37.9915C45.4721 27.4115 48.8921 9.49152 57.2821 3.08152C67.8721 -5.01848 77.4521 12.5715 80.3321 20.7715C82.9121 28.1382 84.9354 35.6715 86.4021 43.3715C86.7221 45.0382 87.3455 46.5849 88.2721 48.0115C91.4621 52.9415 107.212 45.1215 111.932 44.3815C119.712 43.1515 130.112 45.2315 134.812 51.6115C145.742 66.4415 104.592 77.4415 115.952 98.2515C121.442 108.312 125.262 117.042 123.222 128.702C120.822 142.452 112.932 151.132 97.9121 147.142ZM89.9921 70.7415C89.9921 69.8849 89.6518 69.0633 89.0461 68.4576C88.4403 67.8518 87.6188 67.5115 86.7621 67.5115C85.9055 67.5115 85.0839 67.8518 84.4782 68.4576C83.8724 69.0633 83.5321 69.8849 83.5321 70.7415C83.5321 71.5982 83.8724 72.4197 84.4782 73.0255C85.0839 73.6312 85.9055 73.9715 86.7621 73.9715C87.6188 73.9715 88.4403 73.6312 89.0461 73.0255C89.6518 72.4197 89.9921 71.5982 89.9921 70.7415ZM70.0321 71.5115C70.0321 70.7583 69.7329 70.0359 69.2003 69.5033C68.6677 68.9707 67.9453 68.6715 67.1921 68.6715C66.4389 68.6715 65.7165 68.9707 65.1839 69.5033C64.6513 70.0359 64.3521 70.7583 64.3521 71.5115C64.3521 72.2647 64.6513 72.9871 65.1839 73.5197C65.7165 74.0523 66.4389 74.3515 67.1921 74.3515C67.9453 74.3515 68.6677 74.0523 69.2003 73.5197C69.7329 72.9871 70.0321 72.2647 70.0321 71.5115ZM83.6479 88.4279C84.0678 88.3904 84.4757 88.2647 84.8482 88.0579C85.2208 87.8511 85.5507 87.5672 85.8192 87.2226C86.0877 86.8779 86.2895 86.4791 86.4131 86.0491C86.5367 85.619 86.5796 85.1661 86.5394 84.7161C86.4583 83.8074 86.0437 82.966 85.3867 82.3769C84.7297 81.7878 83.8843 81.4994 83.0363 81.5751C82.6164 81.6126 82.2086 81.7383 81.836 81.9451C81.4635 82.152 81.1335 82.4358 80.865 82.7805C80.5965 83.1252 80.3947 83.5239 80.2711 83.954C80.1476 84.384 80.1047 84.837 80.1448 85.2869C80.2259 86.1957 80.6406 87.0371 81.2975 87.6261C81.9545 88.2152 82.7999 88.5036 83.6479 88.4279ZM67.7621 85.0915C67.7621 84.4099 67.4914 83.7562 67.0094 83.2743C66.5274 82.7923 65.8737 82.5215 65.1921 82.5215C64.8546 82.5215 64.5204 82.588 64.2086 82.7171C63.8968 82.8463 63.6135 83.0356 63.3748 83.2743C63.1362 83.5129 62.9469 83.7962 62.8177 84.108C62.6886 84.4198 62.6221 84.754 62.6221 85.0915C62.6221 85.429 62.6886 85.7632 62.8177 86.075C62.9469 86.3868 63.1362 86.6701 63.3748 86.9088C63.6135 87.1474 63.8968 87.3367 64.2086 87.4659C64.5204 87.595 64.8546 87.6615 65.1921 87.6615C65.8737 87.6615 66.5274 87.3908 67.0094 86.9088C67.4914 86.4268 67.7621 85.7731 67.7621 85.0915Z" fill="#72B5B0"/>
<path d="M89.9913 70.7417C89.9913 71.5984 89.651 72.42 89.0452 73.0257C88.4395 73.6314 87.6179 73.9717 86.7612 73.9717C85.9046 73.9717 85.083 73.6314 84.4773 73.0257C83.8716 72.42 83.5312 71.5984 83.5312 70.7417C83.5312 69.8851 83.8716 69.0635 84.4773 68.4578C85.083 67.852 85.9046 67.5117 86.7612 67.5117C87.6179 67.5117 88.4395 67.852 89.0452 68.4578C89.651 69.0635 89.9913 69.8851 89.9913 70.7417Z" fill="#0F2031"/>
<path d="M70.0316 71.5119C70.0316 72.2651 69.7324 72.9874 69.1998 73.5201C68.6671 74.0527 67.9448 74.3519 67.1916 74.3519C66.4384 74.3519 65.716 74.0527 65.1834 73.5201C64.6508 72.9874 64.3516 72.2651 64.3516 71.5119C64.3516 70.7587 64.6508 70.0363 65.1834 69.5037C65.716 68.9711 66.4384 68.6719 67.1916 68.6719C67.9448 68.6719 68.6671 68.9711 69.1998 69.5037C69.7324 70.0363 70.0316 70.7587 70.0316 71.5119Z" fill="#0F2031"/>
<path d="M83.6466 88.4282C82.7986 88.5038 81.9532 88.2154 81.2962 87.6264C80.6393 87.0373 80.2246 86.1959 80.1435 85.2872C80.1033 84.8372 80.1463 84.3842 80.2698 83.9542C80.3934 83.5241 80.5952 83.1254 80.8637 82.7807C81.1322 82.4361 81.4622 82.1522 81.8347 81.9454C82.2073 81.7386 82.6151 81.6128 83.035 81.5753C83.883 81.4997 84.7284 81.7881 85.3854 82.3771C86.0423 82.9662 86.457 83.8076 86.5381 84.7164C86.5783 85.1663 86.5353 85.6193 86.4118 86.0493C86.2882 86.4794 86.0864 86.8781 85.8179 87.2228C85.5494 87.5675 85.2194 87.8513 84.8469 88.0581C84.4743 88.265 84.0665 88.3907 83.6466 88.4282Z" fill="#0F2031"/>
<path d="M67.7611 85.0915C67.7611 85.7731 67.4903 86.4268 67.0084 86.9088C66.5264 87.3907 65.8727 87.6615 65.1911 87.6615C64.8536 87.6615 64.5194 87.595 64.2076 87.4659C63.8958 87.3367 63.6125 87.1474 63.3738 86.9088C63.1352 86.6701 62.9459 86.3868 62.8167 86.075C62.6876 85.7632 62.6211 85.429 62.6211 85.0915C62.6211 84.754 62.6876 84.4198 62.8167 84.108C62.9459 83.7962 63.1352 83.5129 63.3738 83.2742C63.6125 83.0356 63.8958 82.8463 64.2076 82.7171C64.5194 82.5879 64.8536 82.5215 65.1911 82.5215C65.8727 82.5215 66.5264 82.7923 67.0084 83.2742C67.4903 83.7562 67.7611 84.4099 67.7611 85.0915Z" fill="#0F2031"/>
</svg>
