<svg width="95" height="107" viewBox="0 0 95 107" fill="none" xmlns="http://www.w3.org/2000/svg">
<path d="M12.0928 82.1344C12.2057 82.0576 12.2736 81.917 12.2927 81.7206C12.3118 81.5241 12.2816 81.2757 12.2038 80.9895C12.1261 80.7033 12.0023 80.3849 11.8396 80.0524C11.6769 79.72 11.4783 79.38 11.2554 79.052C11.0325 78.724 10.7895 78.4143 10.5403 78.1406C10.2911 77.8669 10.0407 77.6346 9.80315 77.457C9.56564 77.2793 9.34578 77.1598 9.15611 77.1052C8.96645 77.0506 8.81069 77.062 8.69774 77.1388C8.58477 77.2155 8.51679 77.3562 8.49773 77.5526C8.47867 77.749 8.50891 77.9975 8.58666 78.2837C8.66441 78.57 8.78819 78.8884 8.95091 79.2208C9.11364 79.5532 9.31209 79.8932 9.53502 80.2212C9.75794 80.5492 10.0009 80.8589 10.2501 81.1326C10.4993 81.4062 10.7498 81.6386 10.9873 81.8162C11.2248 81.9939 11.4447 82.1134 11.6344 82.168C11.8241 82.2226 11.9798 82.2112 12.0928 82.1344Z" stroke="#F49874" stroke-width="2"/>
<path d="M9.53185 80.2216C10.4694 81.6011 11.6145 82.4577 12.0895 82.1348C12.5646 81.812 12.1897 80.432 11.2522 79.0525C10.3147 77.673 9.16958 76.8164 8.69452 77.1393C8.21947 77.4621 8.59435 78.8421 9.53185 80.2216Z" fill="#FABA9A"/>
<path d="M84.1137 31.4764C81.6737 30.4164 80.2038 28.0864 79.5938 25.5764C77.5538 17.2564 66.1937 9.10635 59.4337 4.44635C54.707 1.19301 49.5404 0.243039 43.9337 1.59637C39.6037 2.64637 37.9437 7.39636 36.0037 10.9564C35.9635 11.0296 35.9104 11.0949 35.8476 11.1481C35.7848 11.2014 35.7137 11.2414 35.6387 11.2658C35.5637 11.2902 35.4864 11.2984 35.4116 11.2899C35.3367 11.2814 35.266 11.2563 35.2037 11.2164L30.3937 8.20636C28.8737 7.24636 27.1637 7.10638 25.2637 7.78638C18.2504 10.293 15.0637 15.1797 15.7037 22.4463C15.8937 24.6663 14.9037 26.9964 15.3437 29.0864C16.7837 36.0464 16.6937 40.7664 17.9937 48.3564C18.0154 48.4933 17.9882 48.6334 17.9169 48.7523C17.8456 48.8711 17.7347 48.9611 17.6037 49.0063C11.2437 51.1163 2.7137 54.4464 1.2337 61.5364C-0.186298 68.3264 5.1837 79.5064 8.7337 85.4164C15.4437 96.5764 30.2537 103.706 42.4537 105.676C46.4037 106.316 50.7037 105.376 55.0237 105.836C56.4904 105.99 57.9237 105.836 59.3237 105.376C86.9337 96.2563 100.534 68.5764 90.2737 41.5464C89.0737 38.3864 86.8437 32.6664 84.1137 31.4764Z" stroke="#F7BAA7" stroke-width="2"/>
<path d="M48.2027 9.18663L42.3427 12.8866C42.2055 12.9732 42.0885 13.0888 42.0008 13.2243C41.9131 13.3598 41.8569 13.5117 41.8366 13.6682C41.8163 13.8248 41.8325 13.9818 41.8838 14.1272C41.9351 14.2725 42.0203 14.4023 42.1326 14.5066C44.7026 16.8566 48.7227 14.2266 50.2627 11.8866C50.9027 10.9166 50.9027 9.09663 52.0727 8.34663C53.2393 7.59997 53.1827 6.93996 51.9027 6.36662C49.036 5.08662 47.8027 5.70329 48.2027 8.21663C48.2416 8.45958 48.263 8.69109 48.263 8.86909C48.263 9.0471 48.2416 9.15978 48.2027 9.18663Z" stroke="#F4A688" stroke-width="2"/>
<path d="M58.7527 10.9067C58.6826 10.8395 58.5962 10.7928 58.5 10.7699C58.4038 10.7471 58.3003 10.7487 58.1973 10.7747C58.0943 10.8007 57.9944 10.8504 57.9053 10.92C57.8162 10.9896 57.74 11.0774 57.6826 11.1767C55.6226 14.7267 52.7727 19.4667 54.8927 23.5267C55.6527 24.9733 56.5293 25.06 57.5227 23.7867C59.5427 21.2133 61.1427 18.3967 62.3227 15.3367C62.4039 15.1212 62.4484 14.9081 62.4502 14.7271C62.452 14.5461 62.411 14.4061 62.3327 14.3267L58.7527 10.9067Z" stroke="#F6B49E" stroke-width="2"/>
<path d="M37.1025 16.3368C37.1525 16.3168 41.5925 13.7268 39.1225 14.0168C38.5125 14.0868 37.1025 15.5768 36.5625 16.0468" stroke="#F5AA8D" stroke-width="2"/>
<path d="M36.5638 16.0464C30.4838 17.9864 25.9838 8.51644 22.5738 16.6064C22.5125 16.7537 22.4868 16.9112 22.4991 17.0648C22.5113 17.2183 22.561 17.3632 22.6438 17.4864C24.5838 20.4064 30.0138 21.1965 32.5538 21.7465C32.7043 21.78 32.8608 21.7757 33.0091 21.7338C33.1575 21.6919 33.2932 21.6138 33.4038 21.5065C34.9572 20.0065 36.1905 18.2831 37.1038 16.3364" stroke="#F6B49E" stroke-width="2"/>
<path d="M36.5625 16.0469L37.1025 16.3369" stroke="#FDE9DD" stroke-width="2"/>
<path d="M45.2644 31.3365C47.2711 33.2232 49.2844 33.3299 51.3044 31.6565C51.4033 31.5752 51.4492 31.4334 51.4324 31.2604C51.4157 31.0874 51.3377 30.8964 51.2145 30.7265C48.7611 27.3665 47.7178 23.5898 48.0844 19.3965C48.1578 18.5365 47.8544 18.3865 47.1744 18.9465C44.7077 20.9932 43.3144 23.6198 42.9944 26.8265C42.8478 28.2732 43.6044 29.7765 45.2644 31.3365Z" stroke="#F5B29A" stroke-width="2"/>
<path d="M67.5321 33.0468C69.7121 34.6801 71.0521 34.5368 71.5521 32.6168C71.6095 32.3988 71.5628 32.0861 71.4221 31.7468C70.0088 28.3934 69.7121 24.9334 70.5321 21.3668C70.596 21.0841 70.5358 20.7648 70.3599 20.4543C70.184 20.1437 69.9013 19.8577 69.5521 19.6367C64.4421 16.4067 65.3821 27.3668 65.4721 29.1768C65.5521 30.7901 66.2388 32.0801 67.5321 33.0468Z" stroke="#F5B29A" stroke-width="2"/>
<path d="M22.4535 29.2063C23.3535 30.0663 24.5102 30.073 25.9235 29.2263C31.3735 25.9763 23.8335 21.4263 19.5835 25.4663C19.518 25.5299 19.4609 25.6011 19.4157 25.6756C19.3705 25.7502 19.338 25.8266 19.3203 25.9004C19.3026 25.9741 19.2999 26.0436 19.3125 26.1047C19.3251 26.1659 19.3527 26.2175 19.3935 26.2563L22.4535 29.2063Z" stroke="#F5B096" stroke-width="2"/>
<path d="M46.0634 42.3367C47.83 43.3701 49.75 43.8767 51.8234 43.8567C52.1692 43.8567 52.4956 43.7275 52.7334 43.4967C55.5267 40.85 57.3 37.6301 58.0534 33.8367C58.0951 33.624 58.1578 33.4319 58.234 33.2831C58.3102 33.1342 58.3967 33.0349 58.4834 32.9967L60.0034 32.2867C60.3564 32.1195 60.6207 31.8731 60.7434 31.5967C61.9734 28.8267 59.6234 30.6067 59.2134 31.1867C55.4534 36.3367 50.1734 35.9667 45.9034 39.3967C44.5434 40.4967 44.5967 41.4767 46.0634 42.3367Z" stroke="#F5B29A" stroke-width="2"/>
<path d="M34.343 35.957C34.494 36.0517 34.6719 36.0975 34.8537 36.0886C35.0355 36.0797 35.2129 36.0164 35.3629 35.907L38.7029 33.457C38.8301 33.3644 38.9266 33.2417 38.973 33.1136C39.0194 32.9855 39.0123 32.8616 38.9529 32.767C36.0329 28.207 30.973 33.857 34.343 35.957Z" stroke="#F5AA8D" stroke-width="2"/>
<path d="M24.5538 42.9264C26.1438 44.5864 28.2438 44.0164 30.3838 43.9864C30.7825 43.9797 31.1356 43.8584 31.3738 43.6464L33.8938 41.4264C33.9828 41.347 34.056 41.2119 34.1067 41.0337C34.1573 40.8554 34.1839 40.6398 34.1838 40.4064C34.1771 39.5597 34.0071 38.7597 33.6738 38.0064C33.6448 37.9399 33.6 37.8814 33.5421 37.8341C33.4843 37.7869 33.4146 37.752 33.3371 37.7315C33.2597 37.7109 33.1761 37.7052 33.0913 37.7146C33.0066 37.7241 32.9224 37.7485 32.8438 37.7864C30.0438 39.1264 27.6838 38.7797 25.7638 36.7464C25.6427 36.6195 25.4917 36.5267 25.3265 36.4774C25.1613 36.4282 24.9878 36.4244 24.8238 36.4664C21.9538 37.2164 23.1338 41.4564 24.5538 42.9264Z" stroke="#F5B096" stroke-width="2"/>
<path d="M74.8152 48.6271C71.3419 46.3204 68.2253 43.5504 65.4653 40.3171C65.4229 40.2676 65.3713 40.2269 65.3136 40.1975C65.2559 40.168 65.1934 40.1505 65.1297 40.1458C65.0661 40.1411 65.0028 40.1494 64.9435 40.1703C64.8843 40.1911 64.8304 40.2241 64.7852 40.2671C59.9952 44.9071 62.6552 50.4471 68.5652 51.5871C69.6986 51.8071 71.8652 51.1271 75.0652 49.5471" stroke="#F5B29A" stroke-width="2"/>
<path d="M75.0625 49.5471C79.0425 50.6338 81.8358 49.4704 83.4425 46.0571C83.5499 45.8304 83.6297 45.6107 83.6709 45.4281C83.7121 45.2455 83.7126 45.1089 83.6725 45.0371L79.2825 37.3471C79.2496 37.29 79.2024 37.2428 79.1443 37.2086C79.0862 37.1745 79.0184 37.1543 78.946 37.1495C78.8735 37.1448 78.7981 37.1555 78.7249 37.181C78.6517 37.2065 78.5827 37.2462 78.5225 37.2971L77.0425 38.5671C76.9511 38.6436 76.8889 38.7796 76.864 38.9577C76.8391 39.1358 76.8525 39.3479 76.9025 39.5671C77.5625 42.5271 80.5825 48.5771 74.8125 48.6271" stroke="#F5AA8D" stroke-width="2"/>
<path d="M75.0625 49.547L74.8125 48.627" stroke="#FCE7D9" stroke-width="2"/>
<path d="M30.9031 49.6667C29.6498 50.6734 29.6265 51.8934 30.8331 53.3267C32.6865 55.5201 34.1098 58.0901 35.1031 61.0367C35.1564 61.1967 35.2565 61.29 35.4031 61.3167C35.4459 61.3233 35.4888 61.3155 35.5288 61.2938C35.5687 61.2722 35.6045 61.2374 35.6335 61.192C35.6625 61.1466 35.6839 61.0918 35.6959 61.0319C35.708 60.9721 35.7105 60.9087 35.7031 60.8467C35.4098 58.0267 35.6831 55.2701 36.5231 52.5767C36.6202 52.2593 36.6131 51.9346 36.5031 51.6567C36.0298 50.4701 35.9631 49.2834 36.3031 48.0967C36.3178 48.0417 36.3162 47.9842 36.2984 47.9292C36.2805 47.8742 36.2471 47.8234 36.2009 47.7811C36.1547 47.7388 36.0971 47.7063 36.033 47.6864C35.969 47.6665 35.9004 47.6597 35.8331 47.6667C33.9798 47.8401 32.3365 48.5067 30.9031 49.6667Z" stroke="#F6B49E" stroke-width="2"/>
<path d="M45.0051 48.7266C42.6651 46.7799 41.4317 47.3399 41.3051 50.4066C41.1851 53.1199 41.9584 56.2433 43.6251 59.7766C43.6789 59.8934 43.756 59.9986 43.8502 60.0842C43.9443 60.1698 44.0532 60.2334 44.1682 60.2702C44.2833 60.3069 44.4014 60.3158 44.5136 60.2961C44.6258 60.2764 44.7289 60.2287 44.8151 60.1566C49.3951 56.2433 49.4584 52.4333 45.0051 48.7266Z" stroke="#F6B49E" stroke-width="2"/>
<path d="M55.7129 52.9358C49.7729 58.5258 59.4229 64.7458 63.3329 59.3058C64.2529 58.0192 64.0195 56.9992 62.6328 56.2458L56.5229 52.9159C56.3786 52.8376 56.2225 52.7974 56.0769 52.801C55.9314 52.8046 55.8039 52.8518 55.7129 52.9358Z" stroke="#F5B096" stroke-width="2"/>
<path d="M80.5634 55.627L77.5734 56.487C77.4091 56.5346 77.2642 56.6228 77.169 56.7328C77.0739 56.8429 77.036 56.9663 77.0634 57.077C77.13 57.357 77.3 57.5236 77.5734 57.577C77.7833 57.6173 77.9786 57.6383 78.1424 57.6383C78.3062 57.6383 78.4335 57.6173 78.5134 57.577C79.22 57.2036 79.8234 57.2836 80.3234 57.817" stroke="#F5A180" stroke-width="2"/>
<path d="M80.3242 57.8164L86.9442 63.8564C87.1842 64.0764 87.3109 64.0697 87.3242 63.8364L87.7442 56.5764C87.7565 56.3664 87.7965 56.1723 87.8608 56.0105C87.9252 55.8486 88.0121 55.7238 88.1142 55.6464C88.5609 55.2997 88.9042 54.8931 89.1442 54.4264C89.3776 53.9731 89.2575 53.7597 88.7842 53.7864C88.2508 53.8131 87.9242 54.1664 87.8042 54.8464C87.7916 54.9168 87.7641 54.9845 87.7241 55.0433C87.684 55.1021 87.6327 55.1502 87.575 55.183C87.5173 55.2159 87.4549 55.2324 87.3936 55.2313C87.3323 55.2301 87.274 55.2113 87.2242 55.1764L85.7542 54.1364C85.5843 54.0181 85.4082 53.9333 85.2444 53.8911C85.0806 53.8488 84.9354 53.8507 84.8242 53.8964L80.5642 55.6264" stroke="#F5B096" stroke-width="2"/>
<path d="M80.3242 57.817C80.6042 56.897 80.6842 56.167 80.5642 55.627" stroke="#FCDCC8" stroke-width="2"/>
<path d="M13.1232 58.9765C14.3632 60.0498 15.4098 59.9998 16.2632 58.8265L18.4731 55.7665C18.6598 55.5132 18.5832 55.4031 18.2432 55.4365C17.0332 55.5665 8.26316 54.7565 13.1232 58.9765Z" stroke="#F5AD92" stroke-width="2"/>
<path d="M24.8458 62.8565C26.0592 63.9365 27.5258 64.3898 29.2458 64.2165C29.3302 64.2072 29.4109 64.1774 29.4822 64.1291C29.5535 64.0809 29.6136 64.0153 29.6584 63.9371C29.7033 63.8589 29.7316 63.77 29.7415 63.6766C29.7514 63.5832 29.7427 63.4876 29.7158 63.3965C29.0292 61.0565 27.7792 59.0765 25.9658 57.4565C25.9077 57.4057 25.8399 57.3664 25.7679 57.3418C25.6959 57.3171 25.6216 57.3078 25.5514 57.3147C25.4811 57.3215 25.4168 57.3443 25.3637 57.3811C25.3106 57.4179 25.2702 57.4677 25.2458 57.5265L23.9758 60.3265C23.8132 60.6877 23.8102 61.1291 23.9669 61.585C24.1237 62.0409 24.4319 62.4868 24.8458 62.8565Z" stroke="#F5AD92" stroke-width="2"/>
<path d="M65.0536 70.6266C65.6963 70.8452 66.4651 70.788 67.2037 70.4666C70.3103 69.1466 71.287 66.84 70.1336 63.5466C70.1061 63.4663 70.0611 63.3928 70.0013 63.3306C69.9414 63.2683 69.8679 63.2185 69.7851 63.1841C69.7022 63.1497 69.6117 63.1312 69.5187 63.13C69.4258 63.1287 69.3323 63.1446 69.2436 63.1766C66.537 64.15 64.307 65.7866 62.5536 68.0866C62.4556 68.2135 62.4099 68.3767 62.4245 68.5482C62.4391 68.7197 62.5131 68.8888 62.6336 69.0266C63.287 69.7666 64.0936 70.2999 65.0536 70.6266Z" stroke="#F5AA8D" stroke-width="2"/>
<path d="M16.8544 71.076L18.5644 72.2761C18.6466 72.3341 18.7334 72.3838 18.8198 72.4224C18.9061 72.4609 18.9904 72.4875 19.0676 72.5005C19.1448 72.5135 19.2134 72.5127 19.2695 72.4982C19.3256 72.4837 19.3681 72.4558 19.3944 72.4161L22.0144 68.5261C22.0614 68.4559 22.0722 68.3147 22.0453 68.1215C22.0185 67.9283 21.9554 67.6925 21.8644 67.446C19.6644 61.526 18.1844 69.666 15.4544 69.556C15.3068 69.5526 15.1641 69.5106 15.0423 69.4347C14.9205 69.3588 14.8243 69.2519 14.7644 69.126C13.8977 67.266 12.7477 65.5827 11.3144 64.076C11.2632 64.0224 11.198 63.9861 11.1254 63.9709C11.0527 63.9557 10.9752 63.9621 10.9003 63.9894C10.8255 64.0167 10.756 64.064 10.6989 64.1266C10.6417 64.1892 10.5988 64.2648 10.5744 64.3461L9.25439 68.7261C9.23421 68.7875 9.28399 68.9029 9.39526 69.0525C9.50654 69.2021 9.67236 69.3766 9.86438 69.5461L15.1544 74.246C15.2228 74.307 15.3024 74.3554 15.3869 74.3874C15.4714 74.4193 15.5584 74.4339 15.641 74.4301C15.7236 74.4262 15.7995 74.4039 15.8626 74.365C15.9257 74.3261 15.9743 74.2717 16.0044 74.2061C16.3977 73.2861 16.4811 72.3294 16.2544 71.3361C16.1277 70.7894 16.3277 70.7027 16.8544 71.076Z" stroke="#F5AD92" stroke-width="2"/>
<path d="M36.1935 64.7062C36.8068 64.1928 36.6869 64.0129 35.8335 64.1662L32.9635 64.6762C32.8692 64.6932 32.7772 64.7176 32.6927 64.7481C32.6082 64.7785 32.533 64.8144 32.4716 64.8535C32.4101 64.8926 32.3636 64.9342 32.3347 64.9759C32.3059 65.0175 32.2952 65.0585 32.3035 65.0962L32.7035 66.9062C32.7198 66.9707 32.7563 67.026 32.8098 67.0673C32.8633 67.1086 32.9319 67.1344 33.0095 67.1424C33.0872 67.1503 33.1713 67.1402 33.2541 67.1129C33.3369 67.0856 33.4158 67.0421 33.4835 66.9862L36.1935 64.7062Z" stroke="#F49874" stroke-width="2"/>
<path d="M78.7336 69.4459C75.5336 74.2959 69.9536 74.9959 64.6336 75.0259C63.7603 75.0259 63.5869 75.3759 64.1136 76.0759C66.5336 79.2659 70.0636 80.176 73.9436 79.116C80.0569 77.456 82.0902 73.1026 80.0436 66.0559C79.9967 65.897 79.9135 65.7513 79.8006 65.63C79.6877 65.5088 79.5482 65.4154 79.3931 65.3572C79.238 65.299 79.0715 65.2777 78.9067 65.2948C78.742 65.3119 78.5834 65.3671 78.4436 65.4559C76.9236 66.4226 76.9736 67.516 78.5936 68.736C78.7044 68.819 78.7806 68.939 78.8066 69.0711C78.8327 69.2032 78.8065 69.3374 78.7336 69.4459Z" stroke="#F5B096" stroke-width="2"/>
<path d="M43.0038 72.896C51.1738 78.466 55.9538 68.4459 51.2938 68.0659C51.1525 68.0532 51.0021 68.076 50.8523 68.1328C50.7025 68.1896 50.5565 68.2792 50.4238 68.396C46.2638 72.046 43.4538 67.276 40.8938 69.216C40.7737 69.3094 40.686 69.4387 40.643 69.5857C40.6 69.7327 40.6038 69.8902 40.6538 70.036C41.0405 71.1426 41.8238 72.096 43.0038 72.896Z" stroke="#F5AD92" stroke-width="2"/>
<path d="M28.0932 73.2763C26.6432 78.7663 35.4931 77.3963 37.7631 77.2963C37.8352 77.2942 37.9065 77.281 37.9725 77.2575C38.0384 77.2341 38.0975 77.2009 38.1457 77.1603C38.1939 77.1197 38.2302 77.0724 38.2521 77.0218C38.2741 76.9711 38.2813 76.9181 38.2731 76.8663C37.9931 75.0396 37.0165 73.8596 35.3432 73.3263C35.1005 73.2504 34.8839 73.1587 34.7153 73.0604C34.5468 72.9621 34.4322 72.8606 34.3831 72.7663L33.6331 71.2663C33.5443 71.0844 33.4092 70.9347 33.2552 70.8475C33.1012 70.7603 32.9396 70.742 32.8031 70.7963L28.7131 72.4563C28.5709 72.5148 28.4403 72.6199 28.3323 72.7626C28.2244 72.9053 28.1424 73.0815 28.0932 73.2763Z" stroke="#F5A180" stroke-width="2"/>
<path d="M46.4728 86.2767C49.2928 88.4867 52.0128 90.9567 54.8528 86.8967C56.0995 85.1234 56.5161 82.8101 56.1028 79.9567C56.093 79.8809 56.069 79.8056 56.0333 79.7383C55.9975 79.671 55.9512 79.614 55.8989 79.5727C55.8465 79.5314 55.7899 79.5073 55.7345 79.5027C55.6791 79.4982 55.6269 79.5134 55.5829 79.5467C52.4495 81.8067 48.9662 82.8367 45.1328 82.6367C45.0822 82.6356 45.0333 82.6531 44.9892 82.688C44.9452 82.7229 44.9071 82.7744 44.8777 82.839C44.8483 82.9035 44.8282 82.9796 44.8187 83.0621C44.8092 83.1445 44.8106 83.2314 44.8228 83.3167C45.0095 84.5767 45.5595 85.5634 46.4728 86.2767Z" stroke="#F5B096" stroke-width="2"/>
<path d="M18.825 83.5567C20.545 85.7567 22.7883 86.9334 25.555 87.0867C25.7851 87.0988 26.0017 87.0757 26.1766 87.0204C26.3514 86.9651 26.4763 86.8802 26.5349 86.7767C27.0483 85.8834 27.2183 84.9034 27.0449 83.8367C27.0086 83.6116 26.9388 83.4065 26.8424 83.2417C26.7459 83.0768 26.6261 82.9579 26.495 82.8967L21.835 80.7367C21.6841 80.6655 21.5132 80.6426 21.344 80.6711C21.1749 80.6996 21.0151 80.7781 20.885 80.8967L18.9149 82.6567C18.7899 82.7717 18.7114 82.9279 18.6947 83.0944C18.6781 83.261 18.7246 83.4259 18.825 83.5567Z" stroke="#F4A688" stroke-width="2"/>
<path d="M79.4028 81.8163C77.8028 83.6097 77.4161 85.313 78.2427 86.9264C78.317 87.0663 78.4417 87.1722 78.5897 87.2209C78.7377 87.2696 78.8969 87.2571 79.0327 87.1863C81.486 85.8996 81.8261 84.143 80.0527 81.9164C80.0111 81.8627 79.96 81.8169 79.903 81.7821C79.846 81.7474 79.7846 81.7244 79.7228 81.7149C79.661 81.7054 79.6003 81.7096 79.5451 81.7271C79.4898 81.7446 79.4413 81.775 79.4028 81.8163Z" stroke="#F49874" stroke-width="2"/>
<path d="M40.1425 85.1671C35.4325 76.1271 25.9825 88.3071 38.5425 89.0071C38.7197 89.0157 38.8924 88.9686 39.0246 88.8755C39.1568 88.7824 39.2384 88.6504 39.2525 88.5071C39.3258 87.6404 39.6091 86.8537 40.1025 86.1471C40.1988 86.0083 40.2536 85.8432 40.2607 85.6701C40.2677 85.4971 40.2269 85.323 40.1425 85.1671Z" stroke="#F4A688" stroke-width="2"/>
<path d="M59.5728 87.7558C61.8128 88.2558 63.5195 87.4958 64.6928 85.4758C64.9058 85.112 65.0452 84.7356 65.0918 84.3987C65.1384 84.0618 65.0898 83.7812 64.9528 83.5958C64.8061 83.3958 64.3194 83.2858 63.4928 83.2658C61.7528 83.2458 60.0628 85.3657 59.3228 86.7457C59.2694 86.8469 59.2331 86.9571 59.2168 87.0678C59.2005 87.1786 59.2046 87.2869 59.2287 87.3845C59.2529 87.4821 59.2965 87.5663 59.3561 87.6306C59.4158 87.695 59.4899 87.7378 59.5728 87.7558Z" stroke="#F49874" stroke-width="2"/>
<path d="M70.4228 93.6067C70.5711 93.6264 70.7216 93.5992 70.8527 93.5292C70.9838 93.4592 71.0889 93.3498 71.1528 93.2167C72.2728 90.8367 72.1395 89.1667 70.7528 88.2067C70.6367 88.1247 70.4939 88.0845 70.3447 88.0916C70.1956 88.0988 70.0478 88.1531 69.9228 88.2467C69.4328 88.6067 63.6528 94.7167 67.1228 94.3167C67.2428 94.3033 67.5195 94.1434 67.9528 93.8367C68.4261 93.51 69.2495 93.4334 70.4228 93.6067Z" stroke="#F49874" stroke-width="2"/>
<path d="M29.355 96.0865L38.075 100.056C38.2429 100.133 38.4314 100.149 38.6072 100.101C38.7829 100.053 38.9345 99.9455 39.035 99.7965C40.8483 97.2365 43.1817 95.3165 46.035 94.0365C46.0966 94.0096 46.1515 93.9688 46.1948 93.9177C46.2382 93.8666 46.2686 93.8068 46.2834 93.7435C46.2982 93.6802 46.297 93.6154 46.2799 93.5549C46.2627 93.4944 46.2301 93.44 46.185 93.3965C44.845 92.0865 42.235 93.2465 40.765 93.9065C40.4741 94.0356 40.149 94.0604 39.845 93.9765C36.185 92.8965 32.525 92.3065 29.265 94.8065C29.1591 94.8875 29.0741 94.9937 29.0183 95.1148C28.9626 95.2358 28.9381 95.3674 28.9472 95.4966C28.9562 95.6259 28.9986 95.7482 29.0701 95.8516C29.1417 95.9551 29.2398 96.036 29.355 96.0865Z" stroke="#F5B096" stroke-width="2"/>
<path d="M52.9055 99.9364C56.9655 101.25 59.1321 99.6998 59.4055 95.2865C59.4147 95.1457 59.3741 95.0056 59.2905 94.8892C59.2069 94.7729 59.0851 94.6872 58.9455 94.6465C56.7721 94.0331 54.6455 93.9965 52.5655 94.5365C48.6455 95.5365 49.4955 98.8264 52.9055 99.9364Z" stroke="#F5AA8D" stroke-width="2"/>
<path d="M79.5938 25.5764C80.2038 28.0864 81.6737 30.4164 84.1137 31.4764C86.8437 32.6664 89.0737 38.3864 90.2737 41.5464C100.534 68.5764 86.9337 96.2563 59.3237 105.376C57.9237 105.836 56.4904 105.99 55.0237 105.836C50.7037 105.376 46.4037 106.316 42.4537 105.676C30.2537 103.706 15.4437 96.5764 8.7337 85.4164C5.1837 79.5064 -0.186298 68.3264 1.2337 61.5364C2.7137 54.4464 11.2437 51.1163 17.6037 49.0063C17.7347 48.9611 17.8456 48.8711 17.9169 48.7523C17.9882 48.6334 18.0154 48.4933 17.9937 48.3564C16.6937 40.7664 16.7837 36.0464 15.3437 29.0864C14.9037 26.9964 15.8937 24.6663 15.7037 22.4463C15.0637 15.1797 18.2504 10.293 25.2637 7.78638C27.1637 7.10638 28.8737 7.24636 30.3937 8.20636L35.2037 11.2164C35.266 11.2563 35.3367 11.2814 35.4116 11.2899C35.4864 11.2984 35.5637 11.2902 35.6387 11.2658C35.7137 11.2414 35.7848 11.2014 35.8476 11.1481C35.9104 11.0949 35.9635 11.0296 36.0037 10.9564C37.9437 7.39636 39.6037 2.64637 43.9337 1.59637C49.5404 0.243039 54.707 1.19301 59.4337 4.44635C66.1937 9.10635 77.5537 17.2564 79.5938 25.5764ZM48.2037 9.18637L42.3437 12.8864C42.2066 12.973 42.0896 13.0885 42.0019 13.224C41.9142 13.3595 41.858 13.5114 41.8377 13.668C41.8174 13.8245 41.8336 13.9815 41.8849 14.1269C41.9362 14.2723 42.0213 14.4021 42.1337 14.5064C44.7037 16.8564 48.7237 14.2264 50.2637 11.8864C50.9037 10.9164 50.9037 9.09637 52.0737 8.34637C53.2404 7.59971 53.1837 6.93969 51.9037 6.36636C49.0371 5.08636 47.8037 5.70303 48.2037 8.21637C48.2427 8.45932 48.2641 8.69083 48.2641 8.86883C48.2641 9.04684 48.2427 9.15952 48.2037 9.18637ZM58.7537 10.9064C58.6836 10.8392 58.5972 10.7925 58.501 10.7696C58.4048 10.7468 58.3014 10.7484 58.1984 10.7744C58.0954 10.8004 57.9955 10.85 57.9064 10.9197C57.8172 10.9893 57.7411 11.0771 57.6837 11.1764C55.6237 14.7264 52.7737 19.4664 54.8937 23.5264C55.6537 24.973 56.5304 25.0597 57.5237 23.7864C59.5437 21.213 61.1437 18.3964 62.3237 15.3364C62.4049 15.1209 62.4495 14.9078 62.4513 14.7268C62.4531 14.5458 62.412 14.4058 62.3337 14.3264L58.7537 10.9064ZM37.1037 16.3364C37.1537 16.3164 41.5937 13.7264 39.1237 14.0164C38.5137 14.0864 37.1037 15.5764 36.5637 16.0464C30.4837 17.9864 25.9837 8.51635 22.5737 16.6064C22.5125 16.7536 22.4867 16.9111 22.499 17.0647C22.5112 17.2183 22.5609 17.3631 22.6437 17.4864C24.5837 20.4064 30.0137 21.1964 32.5537 21.7464C32.7042 21.78 32.8607 21.7756 33.009 21.7337C33.1574 21.6918 33.2931 21.6137 33.4037 21.5064C34.9571 20.0064 36.1904 18.283 37.1037 16.3364ZM45.2637 31.3364C47.2704 33.223 49.2837 33.3297 51.3037 31.6564C51.4026 31.5751 51.4484 31.4333 51.4317 31.2603C51.415 31.0873 51.337 30.8962 51.2137 30.7264C48.7604 27.3664 47.7171 23.5897 48.0837 19.3964C48.1571 18.5364 47.8537 18.3863 47.1737 18.9463C44.707 20.993 43.3137 23.6197 42.9937 26.8264C42.847 28.273 43.6037 29.7764 45.2637 31.3364ZM67.5337 33.0464C69.7137 34.6797 71.0537 34.5364 71.5537 32.6164C71.6111 32.3984 71.5643 32.0857 71.4237 31.7464C70.0104 28.393 69.7137 24.933 70.5337 21.3664C70.5976 21.0837 70.5374 20.7644 70.3615 20.4539C70.1855 20.1433 69.9029 19.8573 69.5537 19.6364C64.4437 16.4064 65.3837 27.3664 65.4737 29.1764C65.5537 30.7897 66.2404 32.0797 67.5337 33.0464ZM22.4537 29.2064C23.3537 30.0664 24.5104 30.073 25.9237 29.2264C31.3737 25.9764 23.8337 21.4264 19.5837 25.4664C19.5182 25.5299 19.4611 25.6011 19.4159 25.6757C19.3707 25.7503 19.3382 25.8267 19.3205 25.9004C19.3028 25.9741 19.3001 26.0436 19.3127 26.1048C19.3253 26.1659 19.3529 26.2175 19.3937 26.2564L22.4537 29.2064ZM46.0637 42.3364C47.8304 43.3697 49.7504 43.8764 51.8237 43.8564C52.1695 43.8563 52.496 43.7271 52.7337 43.4963C55.527 40.8497 57.3004 37.6297 58.0537 33.8364C58.0955 33.6237 58.1581 33.4315 58.2343 33.2827C58.3105 33.1339 58.397 33.0345 58.4837 32.9964L60.0037 32.2864C60.3567 32.1192 60.621 31.8727 60.7437 31.5964C61.9737 28.8264 59.6237 30.6064 59.2137 31.1864C55.4537 36.3364 50.1737 35.9664 45.9037 39.3964C44.5437 40.4964 44.597 41.4764 46.0637 42.3364ZM34.3437 35.9564C34.4948 36.0511 34.6727 36.0969 34.8545 36.088C35.0363 36.0791 35.2137 36.0158 35.3637 35.9064L38.7037 33.4564C38.8308 33.3638 38.9274 33.2411 38.9738 33.113C39.0202 32.9849 39.013 32.861 38.9537 32.7664C36.0337 28.2064 30.9737 33.8564 34.3437 35.9564ZM24.5537 42.9264C26.1437 44.5864 28.2437 44.0164 30.3837 43.9864C30.7824 43.9797 31.1355 43.8584 31.3737 43.6464L33.8937 41.4264C33.9827 41.347 34.0559 41.2119 34.1066 41.0336C34.1572 40.8554 34.1838 40.6397 34.1837 40.4064C34.177 39.5597 34.007 38.7597 33.6737 38.0063C33.6447 37.9399 33.5999 37.8813 33.542 37.8341C33.4842 37.7869 33.4145 37.752 33.337 37.7314C33.2596 37.7109 33.176 37.7052 33.0912 37.7146C33.0065 37.724 32.9223 37.7485 32.8437 37.7864C30.0437 39.1264 27.6837 38.7797 25.7637 36.7463C25.6426 36.6194 25.4916 36.5266 25.3264 36.4774C25.1612 36.4282 24.9877 36.4244 24.8237 36.4664C21.9537 37.2164 23.1337 41.4564 24.5537 42.9264ZM74.8137 48.6263C71.3404 46.3197 68.2237 43.5497 65.4637 40.3163C65.4214 40.2669 65.3698 40.2262 65.3121 40.1968C65.2544 40.1673 65.1918 40.1498 65.1282 40.1451C65.0646 40.1404 65.0012 40.1487 64.942 40.1696C64.8828 40.1904 64.8289 40.2234 64.7837 40.2664C59.9937 44.9064 62.6537 50.4464 68.5637 51.5864C69.6971 51.8064 71.8637 51.1264 75.0637 49.5464C79.0437 50.6331 81.8371 49.4697 83.4437 46.0563C83.5512 45.8297 83.6309 45.61 83.6721 45.4274C83.7133 45.2447 83.7138 45.1081 83.6737 45.0364L79.2837 37.3464C79.2508 37.2893 79.2036 37.242 79.1455 37.2079C79.0874 37.1738 79.0197 37.1536 78.9472 37.1488C78.8747 37.144 78.7993 37.1548 78.7261 37.1803C78.653 37.2058 78.5839 37.2454 78.5237 37.2964L77.0437 38.5663C76.9523 38.6429 76.8902 38.7789 76.8652 38.957C76.8403 39.135 76.8537 39.3471 76.9037 39.5663C77.5638 42.5263 80.5837 48.5763 74.8137 48.6263ZM30.9037 49.6664C29.6504 50.673 29.6271 51.893 30.8337 53.3264C32.6871 55.5197 34.1104 58.0897 35.1037 61.0364C35.157 61.1964 35.2571 61.2897 35.4037 61.3163C35.4464 61.3229 35.4894 61.3151 35.5294 61.2935C35.5693 61.2718 35.6051 61.237 35.6341 61.1916C35.6631 61.1462 35.6845 61.0914 35.6965 61.0316C35.7086 60.9717 35.7111 60.9084 35.7037 60.8464C35.4104 58.0264 35.6837 55.2697 36.5237 52.5764C36.6208 52.259 36.6137 51.9342 36.5037 51.6564C36.0304 50.4697 35.9637 49.283 36.3037 48.0964C36.3184 48.0413 36.3168 47.9838 36.2989 47.9288C36.2811 47.8739 36.2477 47.823 36.2015 47.7808C36.1553 47.7385 36.0977 47.706 36.0336 47.686C35.9696 47.6661 35.901 47.6594 35.8337 47.6664C33.9804 47.8397 32.3371 48.5064 30.9037 49.6664ZM45.0037 48.7264C42.6637 46.7797 41.4304 47.3397 41.3037 50.4064C41.1837 53.1197 41.957 56.243 43.6237 59.7764C43.6776 59.8931 43.7546 59.9984 43.8488 60.084C43.943 60.1696 44.0518 60.2332 44.1669 60.27C44.2819 60.3067 44.4001 60.3155 44.5123 60.2958C44.6244 60.2761 44.7276 60.2284 44.8137 60.1564C49.3937 56.243 49.4571 52.433 45.0037 48.7264ZM55.7137 52.9363C49.7737 58.5263 59.4237 64.7463 63.3337 59.3063C64.2537 58.0197 64.0204 56.9997 62.6337 56.2463L56.5237 52.9164C56.3795 52.8382 56.2234 52.7979 56.0778 52.8015C55.9323 52.8051 55.8048 52.8523 55.7137 52.9363ZM80.5637 55.6263L77.5737 56.4864C77.4095 56.534 77.2645 56.6222 77.1694 56.7322C77.0742 56.8423 77.0364 56.9656 77.0637 57.0764C77.1304 57.3564 77.3004 57.523 77.5737 57.5764C77.7836 57.6166 77.979 57.6377 78.1428 57.6377C78.3066 57.6377 78.4339 57.6166 78.5137 57.5764C79.2204 57.203 79.8237 57.283 80.3237 57.8163L86.9437 63.8564C87.1837 64.0764 87.3104 64.0697 87.3237 63.8364L87.7437 56.5764C87.756 56.3663 87.796 56.1723 87.8604 56.0104C87.9247 55.8486 88.0116 55.7237 88.1137 55.6464C88.5604 55.2997 88.9037 54.8931 89.1437 54.4264C89.3771 53.9731 89.257 53.7597 88.7837 53.7864C88.2504 53.813 87.9237 54.1664 87.8037 54.8464C87.7911 54.9168 87.7636 54.9845 87.7236 55.0433C87.6835 55.1021 87.6323 55.1501 87.5745 55.183C87.5168 55.2158 87.4544 55.2324 87.3931 55.2313C87.3318 55.2301 87.2736 55.2113 87.2237 55.1764L85.7537 54.1364C85.5839 54.0181 85.4077 53.9333 85.2439 53.8911C85.0801 53.8488 84.9349 53.8506 84.8237 53.8964L80.5637 55.6263ZM13.1237 58.9764C14.3637 60.0497 15.4104 59.9997 16.2637 58.8264L18.4737 55.7664C18.6604 55.513 18.5837 55.403 18.2437 55.4363C17.0337 55.5663 8.26372 54.7564 13.1237 58.9764ZM24.8437 62.8564C26.0571 63.9364 27.5237 64.3897 29.2437 64.2164C29.3281 64.2071 29.4088 64.1773 29.4801 64.129C29.5514 64.0808 29.6116 64.0152 29.6564 63.937C29.7012 63.8588 29.7295 63.7699 29.7394 63.6765C29.7493 63.5831 29.7406 63.4875 29.7137 63.3964C29.0271 61.0564 27.7771 59.0764 25.9637 57.4564C25.9057 57.4056 25.8378 57.3663 25.7658 57.3417C25.6938 57.317 25.6196 57.3077 25.5493 57.3146C25.4791 57.3214 25.4148 57.3442 25.3616 57.381C25.3085 57.4178 25.2681 57.4676 25.2437 57.5264L23.9737 60.3264C23.8112 60.6876 23.8081 61.129 23.9648 61.5849C24.1216 62.0408 24.4299 62.4867 24.8437 62.8564ZM65.0537 70.6263C65.6964 70.845 66.4652 70.7878 67.2037 70.4664C70.3104 69.1464 71.2871 66.8397 70.1337 63.5464C70.1062 63.466 70.0612 63.3926 70.0013 63.3303C69.9415 63.2681 69.868 63.2183 69.7852 63.1838C69.7023 63.1494 69.6118 63.131 69.5188 63.1297C69.4258 63.1284 69.3323 63.1443 69.2437 63.1764C66.537 64.1497 64.307 65.7864 62.5537 68.0864C62.4556 68.2132 62.41 68.3764 62.4246 68.5479C62.4392 68.7194 62.5131 68.8885 62.6337 69.0264C63.2871 69.7664 64.0937 70.2997 65.0537 70.6263ZM16.8537 71.0764L18.5637 72.2764C18.6459 72.3344 18.7327 72.3841 18.8191 72.4227C18.9055 72.4612 18.9897 72.4878 19.0669 72.5008C19.1441 72.5138 19.2128 72.513 19.2689 72.4985C19.325 72.484 19.3674 72.4561 19.3937 72.4164L22.0137 68.5264C22.0607 68.4562 22.0715 68.315 22.0447 68.1218C22.0178 67.9286 21.9547 67.6928 21.8637 67.4464C19.6637 61.5264 18.1837 69.6663 15.4537 69.5563C15.3061 69.5529 15.1635 69.5109 15.0416 69.435C14.9198 69.3591 14.8236 69.2522 14.7637 69.1263C13.8971 67.2663 12.7471 65.583 11.3137 64.0764C11.2625 64.0227 11.1973 63.9865 11.1247 63.9713C11.052 63.9561 10.9745 63.9624 10.8997 63.9897C10.8248 64.0171 10.7554 64.0643 10.6982 64.1269C10.641 64.1895 10.5981 64.2651 10.5737 64.3464L9.25372 68.7264C9.23353 68.7878 9.28332 68.9032 9.39459 69.0528C9.50586 69.2024 9.67169 69.3769 9.86371 69.5464L15.1537 74.2463C15.2221 74.3073 15.3017 74.3558 15.3862 74.3877C15.4707 74.4196 15.5577 74.4342 15.6403 74.4304C15.7229 74.4265 15.7988 74.4042 15.8619 74.3653C15.925 74.3264 15.9736 74.272 16.0037 74.2064C16.3971 73.2864 16.4804 72.3297 16.2537 71.3364C16.1271 70.7897 16.327 70.703 16.8537 71.0764ZM36.1937 64.7064C36.8071 64.193 36.6871 64.0131 35.8337 64.1664L32.9637 64.6764C32.8695 64.6934 32.7774 64.7178 32.6929 64.7483C32.6085 64.7787 32.5333 64.8146 32.4718 64.8537C32.4103 64.8928 32.3638 64.9344 32.335 64.9761C32.3061 65.0177 32.2955 65.0587 32.3037 65.0964L32.7037 66.9064C32.72 66.9708 32.7565 67.0262 32.81 67.0675C32.8635 67.1088 32.9321 67.1346 33.0098 67.1426C33.0874 67.1505 33.1715 67.1404 33.2543 67.1131C33.3371 67.0858 33.416 67.0423 33.4837 66.9864L36.1937 64.7064ZM78.7337 69.4464C75.5337 74.2963 69.9537 74.9964 64.6337 75.0264C63.7604 75.0264 63.587 75.3764 64.1137 76.0764C66.5337 79.2664 70.0637 80.1764 73.9437 79.1164C80.0571 77.4564 82.0904 73.103 80.0437 66.0563C79.9968 65.8975 79.9136 65.7517 79.8007 65.6304C79.6878 65.5092 79.5484 65.4158 79.3932 65.3576C79.2381 65.2994 79.0716 65.2781 78.9069 65.2952C78.7421 65.3124 78.5835 65.3675 78.4437 65.4564C76.9237 66.423 76.9737 67.5164 78.5938 68.7364C78.7045 68.8195 78.7807 68.9394 78.8068 69.0715C78.8328 69.2037 78.8067 69.3378 78.7337 69.4464ZM43.0037 72.8964C51.1737 78.4664 55.9537 68.4463 51.2937 68.0663C51.1524 68.0536 51.002 68.0764 50.8522 68.1332C50.7024 68.19 50.5564 68.2796 50.4237 68.3964C46.2637 72.0464 43.4537 67.2764 40.8937 69.2164C40.7736 69.3098 40.6859 69.4391 40.6429 69.5861C40.5998 69.7331 40.6037 69.8906 40.6537 70.0364C41.0404 71.143 41.8237 72.0964 43.0037 72.8964ZM28.0937 73.2764C26.6437 78.7664 35.4937 77.3964 37.7637 77.2964C37.8358 77.2943 37.9071 77.2811 37.9731 77.2576C38.039 77.2342 38.0981 77.201 38.1463 77.1604C38.1945 77.1198 38.2308 77.0725 38.2527 77.0219C38.2747 76.9712 38.2819 76.9182 38.2737 76.8664C37.9937 75.0397 37.0171 73.8597 35.3437 73.3264C35.1011 73.2505 34.8845 73.1588 34.7159 73.0605C34.5474 72.9622 34.4328 72.8607 34.3837 72.7664L33.6337 71.2664C33.5449 71.0844 33.4098 70.9348 33.2558 70.8476C33.1018 70.7604 32.9402 70.7421 32.8037 70.7964L28.7137 72.4564C28.5715 72.5149 28.4409 72.62 28.3329 72.7627C28.225 72.9054 28.143 73.0816 28.0937 73.2764ZM12.0912 82.1342C12.2042 82.0574 12.2721 81.9168 12.2912 81.7203C12.3103 81.5239 12.2801 81.2755 12.2023 80.9893C12.1246 80.703 12.0008 80.3846 11.8381 80.0522C11.6753 79.7197 11.4768 79.3798 11.2539 79.0518C11.031 78.7237 10.788 78.4141 10.5388 78.1404C10.2896 77.8667 10.0391 77.6344 9.80163 77.4567C9.56413 77.2791 9.34427 77.1596 9.1546 77.105C8.96493 77.0504 8.80918 77.0618 8.69623 77.1385C8.58325 77.2153 8.51528 77.3559 8.49621 77.5524C8.47715 77.7488 8.50739 77.9973 8.58514 78.2835C8.66289 78.5697 8.78667 78.8881 8.9494 79.2206C9.11213 79.553 9.31058 79.8929 9.53351 80.2209C9.75643 80.549 9.99941 80.8587 10.2486 81.1323C10.4978 81.406 10.7483 81.6383 10.9858 81.816C11.2233 81.9936 11.4432 82.1132 11.6329 82.1678C11.8225 82.2224 11.9783 82.2109 12.0912 82.1342ZM46.4737 86.2764C49.2937 88.4864 52.0137 90.9564 54.8537 86.8964C56.1004 85.123 56.517 82.8097 56.1037 79.9564C56.0938 79.8805 56.0699 79.8053 56.0342 79.738C55.9984 79.6707 55.9521 79.6136 55.8998 79.5723C55.8474 79.531 55.7908 79.5069 55.7354 79.5024C55.68 79.4978 55.6278 79.513 55.5837 79.5464C52.4504 81.8064 48.9671 82.8363 45.1337 82.6364C45.0831 82.6352 45.0341 82.6527 44.9901 82.6876C44.9461 82.7225 44.908 82.7741 44.8786 82.8386C44.8492 82.9032 44.829 82.9792 44.8196 83.0617C44.8101 83.1442 44.8115 83.231 44.8237 83.3163C45.0104 84.5763 45.5604 85.563 46.4737 86.2764ZM18.8237 83.5563C20.5437 85.7563 22.787 86.933 25.5537 87.0864C25.7838 87.0985 26.0005 87.0754 26.1754 87.0201C26.3502 86.9648 26.4751 86.8798 26.5337 86.7764C27.047 85.883 27.217 84.903 27.0437 83.8364C27.0074 83.6113 26.9376 83.4062 26.8411 83.2413C26.7447 83.0765 26.6249 82.9576 26.4937 82.8964L21.8337 80.7364C21.6828 80.6651 21.5119 80.6423 21.3428 80.6708C21.1736 80.6993 21.0139 80.7778 20.8837 80.8964L18.9137 82.6564C18.7887 82.7714 18.7101 82.9276 18.6935 83.0941C18.6768 83.2607 18.7233 83.4256 18.8237 83.5563ZM79.4037 81.8163C77.8037 83.6097 77.417 85.3131 78.2437 86.9264C78.318 87.0663 78.4427 87.1722 78.5907 87.2209C78.7387 87.2696 78.8979 87.2571 79.0337 87.1863C81.487 85.8997 81.827 84.1431 80.0537 81.9164C80.012 81.8627 79.961 81.8169 79.904 81.7822C79.847 81.7474 79.7856 81.7245 79.7238 81.715C79.662 81.7055 79.6013 81.7096 79.5461 81.7271C79.4908 81.7446 79.4423 81.775 79.4037 81.8163ZM40.1437 85.1664C35.4337 76.1264 25.9837 88.3064 38.5437 89.0063C38.7209 89.015 38.8936 88.9679 39.0258 88.8748C39.158 88.7816 39.2397 88.6497 39.2537 88.5063C39.3271 87.6397 39.6104 86.853 40.1037 86.1464C40.2001 86.0076 40.2548 85.8425 40.2619 85.6694C40.269 85.4964 40.2281 85.3223 40.1437 85.1664ZM59.5737 87.7563C61.8137 88.2563 63.5204 87.4964 64.6937 85.4764C64.9067 85.1126 65.0461 84.7362 65.0927 84.3993C65.1393 84.0624 65.0907 83.7818 64.9537 83.5964C64.8071 83.3964 64.3204 83.2864 63.4937 83.2664C61.7537 83.2464 60.0637 85.3663 59.3237 86.7463C59.2703 86.8475 59.2341 86.9577 59.2178 87.0684C59.2015 87.1791 59.2055 87.2875 59.2297 87.3851C59.2538 87.4826 59.2974 87.5668 59.3571 87.6312C59.4167 87.6956 59.4908 87.7384 59.5737 87.7563ZM70.4237 93.6064C70.5721 93.626 70.7225 93.5989 70.8536 93.5289C70.9847 93.4588 71.0898 93.3494 71.1537 93.2164C72.2738 90.8364 72.1404 89.1664 70.7537 88.2064C70.6376 88.1244 70.4948 88.0841 70.3456 88.0913C70.1965 88.0985 70.0488 88.1528 69.9237 88.2463C69.4337 88.6063 63.6537 94.7163 67.1237 94.3163C67.2437 94.303 67.5204 94.143 67.9537 93.8364C68.4271 93.5097 69.2504 93.4331 70.4237 93.6064ZM29.3537 96.0864L38.0737 100.056C38.2416 100.133 38.4301 100.148 38.6059 100.101C38.7816 100.053 38.9332 99.9454 39.0337 99.7964C40.847 97.2364 43.1804 95.3164 46.0337 94.0364C46.0953 94.0095 46.1502 93.9687 46.1935 93.9176C46.2369 93.8665 46.2673 93.8066 46.2821 93.7433C46.2969 93.6801 46.2957 93.6153 46.2786 93.5547C46.2614 93.4942 46.2288 93.4398 46.1837 93.3964C44.8437 92.0864 42.2337 93.2464 40.7637 93.9064C40.4728 94.0355 40.1477 94.0602 39.8437 93.9764C36.1837 92.8964 32.5237 92.3063 29.2637 94.8063C29.1578 94.8873 29.0728 94.9936 29.017 95.1146C28.9613 95.2356 28.9368 95.3673 28.9459 95.4965C28.9549 95.6257 28.9973 95.7481 29.0688 95.8515C29.1404 95.9549 29.2385 96.0359 29.3537 96.0864ZM52.9037 99.9363C56.9637 101.25 59.1304 99.6997 59.4037 95.2864C59.4129 95.1456 59.3724 95.0054 59.2888 94.8891C59.2051 94.7728 59.0834 94.6871 58.9437 94.6464C56.7704 94.033 54.6437 93.9964 52.5637 94.5364C48.6437 95.5364 49.4937 98.8263 52.9037 99.9363Z" fill="#EE754E"/>
<path d="M48.2027 8.21663C47.8027 5.70329 49.036 5.08662 51.9027 6.36662C53.1827 6.93996 53.2393 7.59997 52.0727 8.34663C50.9027 9.09663 50.9027 10.9166 50.2627 11.8866C48.7227 14.2266 44.7026 16.8566 42.1326 14.5066C42.0203 14.4023 41.9351 14.2725 41.8838 14.1272C41.8325 13.9818 41.8163 13.8248 41.8366 13.6682C41.8569 13.5117 41.9131 13.3598 42.0008 13.2243C42.0885 13.0888 42.2055 12.9732 42.3427 12.8866L48.2027 9.18663C48.2416 9.15978 48.263 9.0471 48.263 8.86909C48.263 8.69109 48.2416 8.45958 48.2027 8.21663Z" fill="#FAD6C1"/>
<path d="M58.7527 10.9067L62.3327 14.3267C62.411 14.4061 62.452 14.5461 62.4502 14.7271C62.4484 14.9081 62.4039 15.1212 62.3227 15.3367C61.1427 18.3967 59.5427 21.2133 57.5227 23.7867C56.5293 25.06 55.6527 24.9733 54.8927 23.5267C52.7727 19.4667 55.6226 14.7267 57.6826 11.1767C57.74 11.0774 57.8162 10.9896 57.9053 10.92C57.9944 10.8504 58.0943 10.8007 58.1973 10.7747C58.3003 10.7487 58.4038 10.7471 58.5 10.7699C58.5962 10.7928 58.6826 10.8395 58.7527 10.9067Z" fill="#FDF3ED"/>
<path d="M36.5638 16.0474L37.1038 16.3374C36.1905 18.2841 34.9572 20.0074 33.4038 21.5074C33.2932 21.6148 33.1575 21.6929 33.0091 21.7348C32.8608 21.7767 32.7043 21.781 32.5538 21.7474C30.0138 21.1974 24.5838 20.4074 22.6438 17.4874C22.561 17.3642 22.5113 17.2193 22.4991 17.0657C22.4868 16.9121 22.5125 16.7547 22.5738 16.6074C25.9838 8.51742 30.4838 17.9874 36.5638 16.0474Z" fill="#FDF3ED"/>
<path d="M37.1025 16.3368L36.5625 16.0468C37.1025 15.5768 38.5125 14.0868 39.1225 14.0168C41.5925 13.7268 37.1525 16.3168 37.1025 16.3368Z" fill="#FCDFCC"/>
<path d="M45.2644 31.3365C43.6044 29.7765 42.8478 28.2732 42.9944 26.8265C43.3144 23.6198 44.7077 20.9932 47.1744 18.9465C47.8544 18.3865 48.1578 18.5365 48.0844 19.3965C47.7178 23.5898 48.7611 27.3665 51.2145 30.7265C51.3377 30.8964 51.4157 31.0874 51.4324 31.2604C51.4492 31.4334 51.4033 31.5752 51.3044 31.6565C49.2844 33.3299 47.2711 33.2232 45.2644 31.3365Z" fill="#FCEFE5"/>
<path d="M67.5321 33.0468C66.2388 32.0801 65.5521 30.7901 65.4721 29.1768C65.3821 27.3668 64.4421 16.4067 69.5521 19.6367C69.9013 19.8577 70.184 20.1437 70.3599 20.4543C70.5358 20.7648 70.596 21.0841 70.5321 21.3668C69.7121 24.9334 70.0088 28.3934 71.4221 31.7468C71.5628 32.0861 71.6095 32.3988 71.5521 32.6168C71.0521 34.5368 69.7121 34.6801 67.5321 33.0468Z" fill="#FCEFE5"/>
<path d="M22.4535 29.2073L19.3935 26.2573C19.3527 26.2184 19.3251 26.1669 19.3125 26.1057C19.2999 26.0446 19.3026 25.9751 19.3203 25.9013C19.338 25.8276 19.3705 25.7512 19.4157 25.6766C19.4609 25.602 19.518 25.5309 19.5835 25.4673C23.8335 21.4273 31.3735 25.9773 25.9235 29.2273C24.5102 30.074 23.3535 30.0673 22.4535 29.2073Z" fill="#FCEADE"/>
<path d="M46.0634 42.3367C44.5967 41.4767 44.5434 40.4967 45.9034 39.3967C50.1734 35.9667 55.4534 36.3367 59.2134 31.1867C59.6234 30.6067 61.9734 28.8267 60.7434 31.5967C60.6207 31.8731 60.3564 32.1195 60.0034 32.2867L58.4834 32.9967C58.3967 33.0349 58.3102 33.1342 58.234 33.2831C58.1578 33.4319 58.0951 33.624 58.0534 33.8367C57.3 37.6301 55.5267 40.85 52.7334 43.4967C52.4956 43.7275 52.1692 43.8567 51.8234 43.8567C49.75 43.8767 47.83 43.3701 46.0634 42.3367Z" fill="#FCEFE5"/>
<path d="M34.343 35.957C30.973 33.857 36.0329 28.207 38.9529 32.767C39.0123 32.8616 39.0194 32.9855 38.973 33.1136C38.9266 33.2417 38.8301 33.3644 38.7029 33.457L35.3629 35.907C35.2129 36.0164 35.0355 36.0797 34.8537 36.0886C34.6719 36.0975 34.494 36.0517 34.343 35.957Z" fill="#FCDFCC"/>
<path d="M24.5538 42.9264C23.1338 41.4564 21.9538 37.2164 24.8238 36.4664C24.9878 36.4244 25.1613 36.4282 25.3265 36.4774C25.4917 36.5267 25.6427 36.6195 25.7638 36.7464C27.6838 38.7797 30.0438 39.1264 32.8438 37.7864C32.9224 37.7485 33.0066 37.7241 33.0913 37.7146C33.1761 37.7052 33.2597 37.7109 33.3371 37.7315C33.4146 37.752 33.4843 37.7869 33.5421 37.8341C33.6 37.8814 33.6448 37.9399 33.6738 38.0064C34.0071 38.7597 34.1771 39.5597 34.1838 40.4064C34.1839 40.6398 34.1573 40.8554 34.1067 41.0337C34.056 41.2119 33.9828 41.347 33.8938 41.4264L31.3738 43.6464C31.1356 43.8584 30.7825 43.9797 30.3838 43.9864C28.2438 44.0164 26.1438 44.5864 24.5538 42.9264Z" fill="#FCEADE"/>
<path d="M75.0625 49.5471L74.8125 48.6271C80.5825 48.5771 77.5625 42.5271 76.9025 39.5671C76.8525 39.3479 76.8391 39.1358 76.864 38.9577C76.8889 38.7796 76.9511 38.6436 77.0425 38.5671L78.5225 37.2971C78.5827 37.2462 78.6517 37.2065 78.7249 37.181C78.7981 37.1555 78.8735 37.1448 78.946 37.1495C79.0184 37.1543 79.0862 37.1745 79.1443 37.2086C79.2024 37.2428 79.2496 37.29 79.2825 37.3471L83.6725 45.0371C83.7126 45.1089 83.7121 45.2455 83.6709 45.4281C83.6297 45.6107 83.5499 45.8304 83.4425 46.0571C81.8358 49.4704 79.0425 50.6338 75.0625 49.5471Z" fill="#FCDFCC"/>
<path d="M74.8113 48.6271L75.0613 49.5471C71.8613 51.1271 69.6947 51.8071 68.5613 51.5871C62.6513 50.4471 59.9913 44.9071 64.7813 40.2671C64.8265 40.2241 64.8804 40.1911 64.9396 40.1703C64.9988 40.1494 65.0622 40.1411 65.1258 40.1458C65.1894 40.1505 65.252 40.168 65.3097 40.1975C65.3673 40.2269 65.419 40.2676 65.4613 40.3171C68.2213 43.5504 71.338 46.3204 74.8113 48.6271Z" fill="#FCEFE5"/>
<path d="M30.9031 49.6667C32.3365 48.5067 33.9798 47.8401 35.8331 47.6667C35.9004 47.6597 35.969 47.6665 36.033 47.6864C36.0971 47.7063 36.1547 47.7388 36.2009 47.7811C36.2471 47.8234 36.2805 47.8742 36.2984 47.9292C36.3162 47.9842 36.3178 48.0417 36.3031 48.0967C35.9631 49.2834 36.0298 50.4701 36.5031 51.6567C36.6131 51.9346 36.6202 52.2593 36.5231 52.5767C35.6831 55.2701 35.4098 58.0267 35.7031 60.8467C35.7105 60.9087 35.708 60.9721 35.6959 61.0319C35.6839 61.0918 35.6625 61.1466 35.6335 61.192C35.6045 61.2374 35.5687 61.2722 35.5288 61.2938C35.4888 61.3155 35.4459 61.3233 35.4031 61.3167C35.2565 61.29 35.1564 61.1967 35.1031 61.0367C34.1098 58.0901 32.6865 55.5201 30.8331 53.3267C29.6265 51.8934 29.6498 50.6734 30.9031 49.6667Z" fill="#FDF3ED"/>
<path d="M45.0012 48.7276C49.4545 52.4342 49.3912 56.2442 44.8112 60.1576C44.725 60.2296 44.6219 60.2773 44.5097 60.297C44.3975 60.3167 44.2794 60.3079 44.1643 60.2712C44.0493 60.2344 43.9404 60.1708 43.8463 60.0852C43.7521 59.9996 43.675 59.8943 43.6212 59.7776C41.9545 56.2442 41.1812 53.1209 41.3012 50.4076C41.4278 47.3409 42.6612 46.7809 45.0012 48.7276Z" fill="#FDF3ED"/>
<path d="M63.3329 59.3068C59.4229 64.7468 49.7729 58.5268 55.7129 52.9368C55.8039 52.8528 55.9314 52.8056 56.0769 52.802C56.2225 52.7984 56.3786 52.8386 56.5229 52.9168L62.6328 56.2468C64.0195 57.0001 64.2529 58.0201 63.3329 59.3068Z" fill="#FCEADE"/>
<path d="M80.3242 57.8173C80.6042 56.8973 80.6842 56.1673 80.5642 55.6273L84.8242 53.8974C84.9354 53.8516 85.0806 53.8498 85.2444 53.8921C85.4082 53.9343 85.5843 54.0191 85.7542 54.1374L87.2242 55.1774C87.274 55.2123 87.3323 55.2311 87.3936 55.2323C87.4549 55.2334 87.5173 55.2168 87.575 55.184C87.6327 55.1511 87.684 55.1031 87.7241 55.0443C87.7641 54.9855 87.7916 54.9178 87.8042 54.8474C87.9242 54.1674 88.2508 53.814 88.7842 53.7874C89.2575 53.7607 89.3776 53.9741 89.1442 54.4274C88.9042 54.8941 88.5609 55.3007 88.1142 55.6474C88.0121 55.7247 87.9252 55.8496 87.8608 56.0114C87.7965 56.1733 87.7565 56.3673 87.7442 56.5774L87.3242 63.8374C87.3109 64.0707 87.1842 64.0774 86.9442 63.8574L80.3242 57.8173Z" fill="#FCEADE"/>
<path d="M13.1232 58.9775C8.26316 54.7575 17.0332 55.5675 18.2432 55.4375C18.5832 55.4041 18.6598 55.5141 18.4731 55.7675L16.2632 58.8275C15.4098 60.0008 14.3632 60.0508 13.1232 58.9775Z" fill="#FCE5D5"/>
<path d="M80.5634 55.627C80.6834 56.167 80.6034 56.897 80.3234 57.817C79.8234 57.2836 79.22 57.2036 78.5134 57.577C78.4335 57.6173 78.3062 57.6383 78.1424 57.6383C77.9786 57.6383 77.7833 57.6173 77.5734 57.577C77.3 57.5236 77.13 57.357 77.0634 57.077C77.036 56.9663 77.0739 56.8429 77.169 56.7328C77.2642 56.6228 77.4091 56.5346 77.5734 56.487L80.5634 55.627Z" fill="#FBCDB1"/>
<path d="M24.8419 62.8565C24.428 62.4868 24.1198 62.0409 23.963 61.585C23.8063 61.1291 23.8093 60.6877 23.9719 60.3265L25.2419 57.5265C25.2663 57.4677 25.3067 57.4179 25.3598 57.3811C25.4129 57.3443 25.4772 57.3215 25.5475 57.3147C25.6177 57.3078 25.6919 57.3171 25.764 57.3418C25.836 57.3664 25.9038 57.4057 25.9619 57.4565C27.7752 59.0765 29.0252 61.0565 29.7119 63.3965C29.7388 63.4876 29.7475 63.5832 29.7376 63.6766C29.7277 63.77 29.6994 63.8589 29.6545 63.9371C29.6097 64.0153 29.5496 64.0809 29.4783 64.1291C29.407 64.1774 29.3263 64.2072 29.2419 64.2165C27.5219 64.3898 26.0552 63.9365 24.8419 62.8565Z" fill="#FCE5D5"/>
<path d="M65.0536 70.6276C64.0936 70.3009 63.287 69.7676 62.6336 69.0276C62.5131 68.8898 62.4391 68.7206 62.4245 68.5491C62.4099 68.3776 62.4556 68.2145 62.5536 68.0876C64.307 65.7876 66.537 64.151 69.2436 63.1776C69.3323 63.1455 69.4258 63.1297 69.5187 63.1309C69.6117 63.1322 69.7022 63.1506 69.7851 63.1851C69.8679 63.2195 69.9414 63.2693 70.0013 63.3316C70.0611 63.3938 70.1061 63.4672 70.1336 63.5476C71.287 66.841 70.3103 69.1476 67.2037 70.4676C66.4651 70.789 65.6963 70.8462 65.0536 70.6276Z" fill="#FCDFCC"/>
<path d="M16.2544 71.337C16.4811 72.3304 16.3977 73.287 16.0044 74.207C15.9743 74.2726 15.9257 74.3271 15.8626 74.366C15.7995 74.4049 15.7236 74.4271 15.641 74.431C15.5584 74.4349 15.4714 74.4203 15.3869 74.3884C15.3024 74.3564 15.2228 74.308 15.1544 74.247L9.86438 69.5471C9.67236 69.3775 9.50654 69.203 9.39526 69.0535C9.28399 68.9039 9.23421 68.7885 9.25439 68.7271L10.5744 64.347C10.5988 64.2658 10.6417 64.1901 10.6989 64.1276C10.756 64.065 10.8255 64.0177 10.9003 63.9904C10.9752 63.9631 11.0527 63.9567 11.1254 63.9719C11.198 63.9871 11.2632 64.0234 11.3144 64.077C12.7477 65.5837 13.8977 67.267 14.7644 69.127C14.8243 69.2529 14.9205 69.3597 15.0423 69.4357C15.1641 69.5116 15.3068 69.5536 15.4544 69.557C18.1844 69.667 19.6644 61.527 21.8644 67.447C21.9554 67.6935 22.0185 67.9293 22.0453 68.1225C22.0722 68.3157 22.0614 68.4569 22.0144 68.527L19.3944 72.4171C19.3681 72.4568 19.3256 72.4847 19.2695 72.4992C19.2134 72.5137 19.1448 72.5145 19.0676 72.5015C18.9904 72.4884 18.9061 72.4619 18.8198 72.4233C18.7334 72.3848 18.6466 72.3351 18.5644 72.277L16.8544 71.077C16.3277 70.7037 16.1277 70.7904 16.2544 71.337Z" fill="#FCE5D5"/>
<path d="M36.1935 64.7071L33.4835 66.9872C33.4158 67.043 33.3369 67.0866 33.2541 67.1139C33.1713 67.1412 33.0872 67.1513 33.0095 67.1434C32.9319 67.1354 32.8633 67.1096 32.8098 67.0683C32.7563 67.027 32.7198 66.9716 32.7035 66.9072L32.3035 65.0972C32.2952 65.0594 32.3059 65.0185 32.3347 64.9769C32.3636 64.9352 32.4101 64.8936 32.4716 64.8545C32.533 64.8154 32.6082 64.7795 32.6927 64.7491C32.7772 64.7186 32.8692 64.6942 32.9635 64.6772L35.8335 64.1672C36.6869 64.0138 36.8068 64.1938 36.1935 64.7071Z" fill="#FABA9A"/>
<path d="M78.5936 68.7369C76.9736 67.5169 76.9236 66.4236 78.4436 65.4569C78.5834 65.3681 78.742 65.3129 78.9067 65.2958C79.0715 65.2786 79.238 65.3 79.3931 65.3582C79.5482 65.4163 79.6877 65.5097 79.8006 65.631C79.9135 65.7522 79.9967 65.898 80.0436 66.0569C82.0903 73.1036 80.0569 77.4569 73.9436 79.1169C70.0636 80.1769 66.5336 79.2669 64.1136 76.0769C63.5869 75.3769 63.7603 75.0269 64.6336 75.0269C69.9536 74.9969 75.5336 74.2969 78.7336 69.4469C78.8065 69.3384 78.8327 69.2042 78.8066 69.0721C78.7806 68.94 78.7044 68.82 78.5936 68.7369Z" fill="#FCEADE"/>
<path d="M43.0038 72.8969C41.8238 72.0969 41.0405 71.1436 40.6538 70.037C40.6038 69.8912 40.6 69.7337 40.643 69.5867C40.686 69.4397 40.7737 69.3104 40.8938 69.2169C43.4538 67.2769 46.2638 72.0469 50.4238 68.3969C50.5565 68.2802 50.7025 68.1906 50.8523 68.1338C51.0021 68.0769 51.1525 68.0542 51.2938 68.0669C55.9538 68.4469 51.1738 78.4669 43.0038 72.8969Z" fill="#FCE5D5"/>
<path d="M37.7631 77.2963C35.4931 77.3963 26.6432 78.7663 28.0932 73.2763C28.1424 73.0815 28.2244 72.9053 28.3323 72.7626C28.4403 72.6199 28.5709 72.5148 28.7131 72.4563L32.8031 70.7963C32.9396 70.742 33.1012 70.7603 33.2552 70.8475C33.4092 70.9347 33.5443 71.0844 33.6331 71.2663L34.3831 72.7663C34.4322 72.8606 34.5468 72.9621 34.7153 73.0604C34.8839 73.1587 35.1005 73.2504 35.3432 73.3263C37.0165 73.8596 37.9931 75.0396 38.2731 76.8663C38.2813 76.9181 38.2741 76.9711 38.2521 77.0218C38.2302 77.0724 38.1939 77.1197 38.1457 77.1603C38.0975 77.2009 38.0384 77.2341 37.9725 77.2575C37.9065 77.281 37.8352 77.2942 37.7631 77.2963Z" fill="#FBCDB1"/>
<path d="M46.4728 86.2767C45.5595 85.5634 45.0095 84.5767 44.8228 83.3167C44.8106 83.2314 44.8092 83.1445 44.8187 83.0621C44.8282 82.9796 44.8483 82.9035 44.8777 82.839C44.9071 82.7744 44.9452 82.7229 44.9892 82.688C45.0333 82.6531 45.0822 82.6356 45.1328 82.6367C48.9662 82.8367 52.4495 81.8067 55.5829 79.5467C55.6269 79.5134 55.6791 79.4982 55.7345 79.5027C55.7899 79.5073 55.8465 79.5314 55.8989 79.5727C55.9512 79.614 55.9975 79.671 56.0333 79.7383C56.069 79.8056 56.093 79.8809 56.1028 79.9567C56.5161 82.8101 56.0995 85.1234 54.8528 86.8967C52.0128 90.9567 49.2928 88.4867 46.4728 86.2767Z" fill="#FCEADE"/>
<path d="M18.8211 83.5567C18.7206 83.4259 18.6742 83.261 18.6908 83.0944C18.7075 82.9279 18.786 82.7717 18.911 82.6567L20.8811 80.8967C21.0112 80.7781 21.171 80.6996 21.3401 80.6711C21.5093 80.6426 21.6802 80.6655 21.8311 80.7367L26.491 82.8967C26.6222 82.9579 26.742 83.0768 26.8385 83.2417C26.9349 83.4065 27.0047 83.6116 27.041 83.8367C27.2144 84.9034 27.0444 85.8834 26.531 86.7767C26.4724 86.8802 26.3475 86.9651 26.1727 87.0204C25.9978 87.0757 25.7812 87.0988 25.551 87.0867C22.7844 86.9334 20.5411 85.7567 18.8211 83.5567Z" fill="#FAD6C1"/>
<path d="M79.4028 81.8173C79.4413 81.776 79.4898 81.7456 79.5451 81.7281C79.6003 81.7106 79.661 81.7064 79.7228 81.7159C79.7846 81.7254 79.846 81.7483 79.903 81.7831C79.96 81.8179 80.0111 81.8637 80.0527 81.9173C81.8261 84.144 81.486 85.9006 79.0327 87.1873C78.8969 87.2581 78.7377 87.2705 78.5897 87.2218C78.4417 87.1731 78.317 87.0673 78.2427 86.9273C77.4161 85.314 77.8028 83.6106 79.4028 81.8173Z" fill="#FABA9A"/>
<path d="M38.5425 89.0071C25.9825 88.3071 35.4325 76.1271 40.1425 85.1671C40.2269 85.323 40.2677 85.4971 40.2607 85.6701C40.2536 85.8432 40.1988 86.0083 40.1025 86.1471C39.6091 86.8537 39.3258 87.6404 39.2525 88.5071C39.2384 88.6504 39.1568 88.7824 39.0246 88.8755C38.8924 88.9686 38.7197 89.0157 38.5425 89.0071Z" fill="#FAD6C1"/>
<path d="M59.5728 87.7567C59.4899 87.7388 59.4158 87.696 59.3561 87.6316C59.2965 87.5672 59.2529 87.483 59.2287 87.3855C59.2046 87.2879 59.2005 87.1795 59.2168 87.0688C59.2331 86.9581 59.2694 86.8479 59.3228 86.7467C60.0628 85.3667 61.7528 83.2467 63.4928 83.2667C64.3194 83.2867 64.8061 83.3968 64.9528 83.5968C65.0898 83.7822 65.1384 84.0628 65.0918 84.3997C65.0452 84.7366 64.9058 85.113 64.6928 85.4768C63.5195 87.4968 61.8128 88.2567 59.5728 87.7567Z" fill="#FABA9A"/>
<path d="M70.4228 93.6067C69.2495 93.4334 68.4261 93.51 67.9528 93.8367C67.5195 94.1434 67.2428 94.3033 67.1228 94.3167C63.6528 94.7167 69.4328 88.6067 69.9228 88.2467C70.0478 88.1531 70.1956 88.0988 70.3447 88.0916C70.4939 88.0845 70.6367 88.1247 70.7528 88.2067C72.1395 89.1667 72.2728 90.8367 71.1528 93.2167C71.0889 93.3498 70.9838 93.4592 70.8527 93.5292C70.7216 93.5992 70.5711 93.6264 70.4228 93.6067Z" fill="#FABA9A"/>
<path d="M29.3511 96.0875C29.2359 96.037 29.1378 95.956 29.0662 95.8526C28.9947 95.7492 28.9523 95.6268 28.9433 95.4976C28.9342 95.3684 28.9587 95.2368 29.0144 95.1157C29.0702 94.9947 29.1552 94.8884 29.2611 94.8074C32.5211 92.3074 36.1811 92.8975 39.8411 93.9775C40.1451 94.0613 40.4702 94.0366 40.7611 93.9075C42.2311 93.2475 44.8411 92.0875 46.1811 93.3975C46.2262 93.4409 46.2588 93.4953 46.276 93.5559C46.2931 93.6164 46.2943 93.6812 46.2795 93.7445C46.2647 93.8077 46.2343 93.8676 46.1909 93.9187C46.1476 93.9698 46.0927 94.0106 46.0311 94.0375C43.1778 95.3175 40.8444 97.2375 39.0311 99.7975C38.9306 99.9465 38.779 100.054 38.6033 100.102C38.4275 100.15 38.239 100.134 38.0711 100.057L29.3511 96.0875Z" fill="#FCEADE"/>
<path d="M52.9016 99.9374C49.4916 98.8274 48.6415 95.5375 52.5615 94.5375C54.6415 93.9975 56.7682 94.0341 58.9416 94.6474C59.0812 94.6882 59.203 94.7738 59.2866 94.8902C59.3702 95.0065 59.4108 95.1467 59.4016 95.2875C59.1282 99.7008 56.9616 101.251 52.9016 99.9374Z" fill="#FCDFCC"/>
</svg>
