<svg width="40" height="38" viewBox="0 0 40 38" fill="none" xmlns="http://www.w3.org/2000/svg">
<path d="M5.33551 21.5645C3.40218 24.7778 2.24214 28.1844 1.85547 31.7844" stroke="#CFCDCE" stroke-width="2"/>
<path d="M1.8556 31.7849C1.30226 33.2382 1.1356 34.3915 1.3556 35.2449C1.78226 36.9049 2.7523 37.3282 4.26563 36.5148C8.63563 34.1448 18.4056 28.3548 23.3056 30.2748C27.3556 31.8448 32.1756 36.1848 37.8456 36.5748C37.9987 36.5863 38.1508 36.5521 38.2814 36.477C38.4119 36.4019 38.5147 36.2894 38.5756 36.1548C39.7656 33.5148 34.9756 25.4948 33.6256 22.7548C31.6456 18.7348 29.3556 16.1748 32.7056 11.7048C34.5956 9.19483 39.7956 3.57484 36.2856 2.71484" stroke="#808080" stroke-width="2"/>
<path d="M36.2837 2.71484C30.2837 3.49484 24.3871 4.86817 18.5938 6.83484" stroke="#CFCDCE" stroke-width="2"/>
<path d="M18.5947 6.835L3.29461 1.24503C1.52127 0.598365 0.784646 1.23166 1.08465 3.145C1.21798 3.985 1.6313 5.00499 2.32464 6.20499C4.81464 10.535 5.84465 16.245 5.33465 21.565" stroke="#808080" stroke-width="2"/>
<path d="M18.5938 6.83484C24.7737 6.67484 30.6704 5.30151 36.2837 2.71484" stroke="#4F4E4E" stroke-width="2"/>
<path d="M1.85547 31.7844C3.95547 28.6911 5.11551 25.2845 5.33551 21.5645" stroke="#4F4E4E" stroke-width="2"/>
<path d="M22.354 27.6552L33.804 32.3152C34.0161 32.3986 34.2201 32.4165 34.374 32.3652L34.754 32.2252C34.7941 32.2095 34.8208 32.1732 34.8324 32.1189C34.8439 32.0645 34.8401 31.9934 34.8211 31.9106C34.802 31.8277 34.7683 31.7351 34.7221 31.6392C34.676 31.5433 34.6186 31.4463 34.554 31.3552C32.514 28.4952 32.184 25.1552 30.784 22.4152C30.0773 21.0352 29.3773 19.6252 28.684 18.1852C28.1573 17.0786 28.194 15.9419 28.794 14.7752L30.764 10.9452C31.744 9.0385 31.084 8.28522 28.784 8.68522C22.7706 9.72522 16.9507 9.08852 11.324 6.77519C9.404 5.98185 7.97731 5.89852 7.04398 6.52519C5.88398 7.29519 5.794 8.6152 6.444 9.8552C10.164 16.8452 8.31401 25.0952 5.08401 31.8352C4.81735 32.4019 4.98401 32.5652 5.58401 32.3252L16.824 27.8352C18.844 27.0285 20.6873 26.9685 22.354 27.6552Z" stroke="#0E101B" stroke-width="2"/>
<path d="M18.5986 6.835C24.7786 6.675 30.6752 5.30167 36.2885 2.715C39.7985 3.575 34.5985 9.19499 32.7085 11.705C29.3585 16.175 31.6485 18.735 33.6285 22.755C34.9785 25.495 39.7685 33.515 38.5785 36.155C38.5176 36.2896 38.4149 36.402 38.2843 36.4771C38.1537 36.5523 38.0016 36.5864 37.8486 36.575C32.1786 36.185 27.3585 31.845 23.3085 30.275C18.4085 28.355 8.63855 34.145 4.26854 36.515C2.75521 37.3283 1.78518 36.905 1.35851 35.245C1.13851 34.3917 1.30518 33.2383 1.85851 31.785C3.95851 28.6917 5.11855 25.285 5.33855 21.565C5.84855 16.245 4.81854 10.535 2.32854 6.20499C1.63521 5.00499 1.22189 3.985 1.08855 3.145C0.788552 1.23166 1.52518 0.598365 3.29851 1.24503L18.5986 6.835ZM22.3585 27.655L33.8085 32.315C34.0207 32.3984 34.2247 32.4163 34.3785 32.365L34.7585 32.225C34.7986 32.2093 34.8253 32.173 34.8369 32.1187C34.8485 32.0643 34.8447 31.9932 34.8256 31.9104C34.8066 31.8275 34.7728 31.7349 34.7267 31.639C34.6805 31.5431 34.6231 31.4461 34.5585 31.355C32.5185 28.495 32.1885 25.155 30.7885 22.415C30.0818 21.035 29.3819 19.625 28.6885 18.185C28.1619 17.0784 28.1985 15.9417 28.7985 14.775L30.7685 10.945C31.7485 9.03832 31.0885 8.28503 28.7885 8.68503C22.7752 9.72503 16.9552 9.08833 11.3285 6.775C9.40854 5.98167 7.98185 5.89833 7.04851 6.525C5.88851 7.295 5.79854 8.61502 6.44854 9.85502C10.1685 16.845 8.31855 25.095 5.08855 31.835C4.82189 32.4017 4.98855 32.565 5.58855 32.325L16.8285 27.835C18.8485 27.0283 20.6918 26.9683 22.3585 27.655Z" fill="black"/>
<path d="M36.2876 2.71484C30.6743 5.30151 24.7777 6.67484 18.5977 6.83484C24.391 4.86817 30.2876 3.49484 36.2876 2.71484Z" fill="#9E9B9C"/>
<path d="M5.33942 21.5645C5.11942 25.2845 3.95937 28.6911 1.85938 31.7844C2.24604 28.1844 3.40608 24.7778 5.33942 21.5645Z" fill="#9E9B9C"/>
<path d="M22.3579 27.6552C20.6912 26.9685 18.8479 27.0285 16.8279 27.8352L5.58792 32.3252C4.98792 32.5652 4.82125 32.4019 5.08792 31.8352C8.31792 25.0952 10.1679 16.8452 6.44791 9.8552C5.79791 8.6152 5.88788 7.29519 7.04788 6.52519C7.98122 5.89852 9.40791 5.98185 11.3279 6.77519C16.9546 9.08852 22.7745 9.72522 28.7879 8.68522C31.0879 8.28522 31.7479 9.0385 30.7679 10.9452L28.7979 14.7752C28.1979 15.9419 28.1612 17.0786 28.6879 18.1852C29.3812 19.6252 30.0812 21.0352 30.7879 22.4152C32.1879 25.1552 32.5179 28.4952 34.5579 31.3552C34.6225 31.4463 34.6799 31.5433 34.726 31.6392C34.7722 31.7351 34.8059 31.8277 34.825 31.9106C34.844 31.9934 34.8479 32.0645 34.8363 32.1189C34.8247 32.1732 34.798 32.2095 34.7579 32.2252L34.3779 32.3652C34.224 32.4165 34.02 32.3986 33.8079 32.3152L22.3579 27.6552Z" fill="#1B2035"/>
</svg>
