<svg width="232" height="135" viewBox="0 0 232 135" fill="none" xmlns="http://www.w3.org/2000/svg">
<path d="M61.7193 69.3307L60.4593 76.1108C60.3951 76.4601 60.1948 76.7882 59.8855 77.0511C59.5762 77.3139 59.1727 77.4987 58.7293 77.5807C46.4693 79.8607 34.1359 81.6241 21.7293 82.8708C21.3646 82.9053 21.0027 82.864 20.6703 82.7497C20.338 82.6355 20.0437 82.4513 19.8093 82.2107L4.15927 66.1008C4.0302 65.9718 3.88421 65.8704 3.73084 65.8032C3.57746 65.736 3.42017 65.7045 3.26927 65.7107C0.975939 65.8041 0.605938 66.7841 2.15927 68.6507C6.75927 74.1707 11.4459 79.6774 16.2193 85.1708C16.325 85.2913 16.397 85.4316 16.4256 85.5728C16.4542 85.714 16.438 85.8494 16.3793 85.9607L1.13927 116.001C1.05424 116.171 1.00763 116.35 1.00412 116.52C1.00061 116.691 1.04032 116.846 1.11926 116.971C1.8926 118.184 2.7526 118.037 3.69927 116.531C9.54593 107.224 15.0326 97.7141 20.1593 88.0008C20.3168 87.6985 20.5458 87.4393 20.8264 87.2458C21.1071 87.0524 21.4307 86.9304 21.7693 86.8907C24.6193 86.5607 27.6993 86.6108 30.3593 86.2408C40.2726 84.8474 50.2093 83.4741 60.1693 82.1208C60.3346 82.0987 60.5001 82.1106 60.6539 82.1555C60.8077 82.2004 60.9461 82.2774 61.0593 82.3808C62.1526 83.3874 62.9126 84.7541 63.3393 86.4808" stroke="#9DAAB4" stroke-width="2"/>
<path d="M63.3363 86.4809C57.3963 91.9209 27.5363 119.781 28.1663 126.511C28.5163 130.171 32.5463 131.431 35.9963 131.851C47.0363 133.211 58.1097 133.594 69.2163 133.001C79.7063 132.441 93.2863 130.711 106.406 131.511C128.726 132.881 148.956 130.551 169.796 122.481C202.786 109.701 227.926 88.4209 230.696 50.7809C231.276 42.8109 229.706 37.461 222.796 33.321C213.076 27.491 202.406 23.8209 191.336 20.4209C161.746 11.3609 132.736 19.591 102.216 21.311C80.0163 22.561 65.3463 15.051 43.2163 5.62096C36.043 2.56096 31.713 1.02096 30.2263 1.00096C17.7463 0.840961 25.5463 20.7009 28.0663 26.2809C35.3863 42.4609 47.0063 59.3809 61.7163 69.3309" stroke="#8C8A91" stroke-width="2"/>
<path d="M63.3359 86.4806C66.3059 86.0606 68.6359 84.7206 71.6759 84.4506C75.6226 84.0972 79.2993 82.8973 82.7059 80.8506" stroke="#2B3549" stroke-width="2"/>
<path d="M82.7058 80.8507C92.0358 98.4607 116.306 86.8007 111.326 68.6007C106.766 51.9407 85.3358 55.8507 81.6758 70.7907" stroke="#8C8A91" stroke-width="2"/>
<path d="M81.6787 70.7907C75.1054 69.2707 68.4521 68.784 61.7188 69.3307" stroke="#2B3549" stroke-width="2"/>
<path d="M82.7073 80.851C81.6606 77.5177 81.3173 74.1643 81.6773 70.791" stroke="#9DAAB4" stroke-width="2"/>
<path d="M155.197 36.3509C152.327 33.0609 149.397 24.921 143.607 29.441C139.087 32.9676 134.79 36.7143 130.717 40.681C130.587 40.807 130.43 40.9007 130.257 40.9544C130.085 41.0081 129.902 41.0204 129.723 40.9902C129.545 40.96 129.376 40.8882 129.231 40.7806C129.086 40.673 128.968 40.5327 128.887 40.371C126.827 36.261 122.457 25.8509 116.427 32.2609C113.64 35.2209 110.917 38.2209 108.257 41.2609C108.21 41.315 108.151 41.3581 108.086 41.387C108.02 41.4159 107.949 41.4299 107.878 41.428C107.807 41.4261 107.738 41.4083 107.676 41.376C107.613 41.3436 107.559 41.2974 107.517 41.2409C104.627 37.5309 100.337 29.551 94.817 34.931C92.2437 37.431 89.9037 39.9043 87.797 42.3509C87.714 42.4464 87.6101 42.5213 87.4934 42.5699C87.3768 42.6184 87.2507 42.6391 87.1253 42.6304C86.9999 42.6216 86.8787 42.5836 86.7713 42.5195C86.664 42.4553 86.5734 42.3668 86.507 42.2609C84.6337 39.3209 82.7804 36.361 80.947 33.381C78.727 29.771 76.067 27.4709 72.377 31.2209C70.1103 33.5343 67.877 35.8843 65.677 38.2709C65.5905 38.3656 65.4823 38.4378 65.3617 38.4812C65.241 38.5247 65.1116 38.5382 64.9846 38.5205C64.8577 38.5028 64.7369 38.4544 64.6327 38.3796C64.5286 38.3047 64.4443 38.2056 64.387 38.0909L57.937 25.3409C57.7488 24.9702 57.4695 24.6557 57.1272 24.4292C56.7848 24.2028 56.3915 24.0723 55.987 24.0509C52.787 23.9043 49.5337 24.0743 46.227 24.561C39.787 25.511 43.567 28.9009 46.487 29.3609C48.2003 29.6276 49.777 29.7709 51.217 29.7909C52.697 29.8043 53.787 30.4609 54.487 31.7609C56.4803 35.4542 58.607 39.0843 60.867 42.6509C62.6537 45.4709 64.7037 45.7176 67.017 43.3909C69.1837 41.1976 71.4903 38.9776 73.937 36.7309C75.197 35.5643 76.2703 35.7209 77.157 37.2009C78.7703 39.8809 80.7837 42.8343 83.197 46.061C85.807 49.541 87.677 49.3009 90.687 46.3909C92.7003 44.4309 94.737 42.4376 96.797 40.4109C97.8703 39.3576 98.9537 39.451 100.047 40.691L105.197 46.5209C106.65 48.1609 108.09 48.281 109.517 46.881L118.887 37.7109C120.014 36.6109 120.937 36.7043 121.657 37.9909C123.507 41.3009 127.487 50.1609 132.397 45.7409C136.17 42.3343 139.937 38.901 143.697 35.441C145.117 34.1343 146.447 34.1676 147.687 35.5409L153.507 41.9909C154.48 43.0776 155.534 43.1643 156.667 42.251L168.637 32.691C168.832 32.5367 169.046 32.4294 169.249 32.3845C169.452 32.3396 169.633 32.3594 169.767 32.441L175.507 36.0209C175.947 36.2943 176.25 36.4443 176.417 36.4709C183.507 37.3909 171.697 26.771 170.177 26.501C167.347 25.981 158.437 34.3509 155.917 36.4109C155.813 36.4962 155.679 36.5376 155.545 36.5264C155.411 36.5152 155.286 36.4523 155.197 36.3509Z" stroke="#8C8A91" stroke-width="2"/>
<path d="M188.868 65.5706C182.861 67.1239 175.985 68.2639 168.238 68.9906C155.885 70.1506 143.548 71.4139 131.228 72.7806C125.808 73.3806 121.238 80.5906 127.058 84.2406C130.245 86.2339 133.958 87.4573 138.198 87.9106C161.778 90.4173 184.485 87.2072 206.318 78.2806C215.838 74.3906 219.198 61.3706 218.998 52.0306C218.958 50.1106 218.065 49.0239 216.318 48.7706C211.838 48.1206 207.718 47.1506 203.968 47.0306C186.608 46.4906 168.138 50.8006 150.688 53.8706C143.588 55.1173 136.768 57.2373 130.228 60.2306C128.081 61.2106 127.661 62.6839 128.968 64.6506C130.608 67.1106 133.758 67.6006 136.878 67.5606C154.191 67.3406 171.478 66.4239 188.738 64.8106C191.925 64.5106 191.968 64.7639 188.868 65.5706Z" stroke="#3B5D68" stroke-width="2"/>
<path d="M122.146 112.391L110.966 105.011C109.546 104.071 108.359 104.227 107.406 105.481L102.536 111.861C102.31 112.154 101.991 112.36 101.64 112.439C101.289 112.518 100.928 112.465 100.626 112.291C97.1861 110.321 91.7561 105.101 87.7561 105.281C87.6108 105.29 87.4636 105.34 87.3264 105.429C87.1892 105.518 87.0658 105.642 86.9661 105.791L81.1561 114.731C81.1031 114.812 81.0307 114.879 80.9438 114.927C80.8569 114.975 80.7575 115.003 80.6523 115.009C80.5471 115.015 80.4385 114.998 80.3339 114.96C80.2294 114.923 80.1312 114.865 80.0461 114.791C77.2194 112.397 74.2961 109.897 71.2761 107.291C69.3461 105.631 67.7861 103.991 65.4161 106.171C63.9627 107.511 61.5327 110.127 58.1261 114.021C56.9361 115.381 54.3961 119.451 58.6861 118.891C62.9561 118.331 65.9561 109.121 70.9061 113.861C71.6994 114.627 74.3161 116.667 78.7561 119.981C83.2661 123.351 85.8261 115.971 88.2661 113.061C89.1927 111.947 90.2394 111.784 91.4061 112.571L99.0361 117.701C100.503 118.687 101.903 118.737 103.236 117.851C104.483 117.024 105.946 115.421 107.626 113.041C108.946 111.174 110.529 110.851 112.376 112.071L122.506 118.751C122.722 118.896 122.976 118.965 123.219 118.945C123.461 118.925 123.674 118.816 123.816 118.641L130.886 109.941C131.673 108.981 132.613 108.761 133.706 109.281C136.796 110.751 144.086 115.121 147.046 115.091C150.636 115.061 154.056 108.681 155.646 105.881C155.715 105.753 155.823 105.65 155.954 105.587C156.085 105.525 156.233 105.505 156.376 105.531C158.943 106.017 161.496 106.571 164.036 107.191C169.356 108.501 171.366 104.771 166.226 102.631C163.139 101.351 159.959 100.334 156.686 99.5807C154.833 99.1474 153.413 99.7074 152.426 101.261L147.676 108.751C147.461 109.088 147.138 109.336 146.774 109.446C146.409 109.556 146.03 109.518 145.716 109.341C141.043 106.694 136.193 104.434 131.166 102.561C130.113 102.167 129.233 102.517 128.526 103.611L122.956 112.271C122.917 112.331 122.866 112.382 122.804 112.42C122.742 112.459 122.672 112.485 122.596 112.496C122.521 112.507 122.443 112.503 122.365 112.485C122.288 112.467 122.213 112.435 122.146 112.391Z" stroke="#8C8A91" stroke-width="2"/>
<path d="M103.327 73.0408C103.327 72.3553 103.192 71.6765 102.929 71.0432C102.667 70.4098 102.283 69.8344 101.798 69.3497C101.313 68.8649 100.738 68.4805 100.104 68.2181C99.471 67.9558 98.7922 67.8208 98.1067 67.8208C96.7223 67.8208 95.3946 68.3707 94.4156 69.3497C93.4367 70.3286 92.8867 71.6563 92.8867 73.0408C92.8867 74.4252 93.4367 75.7529 94.4156 76.7319C95.3946 77.7108 96.7223 78.2607 98.1067 78.2607C98.7922 78.2607 99.471 78.1257 100.104 77.8634C100.738 77.6011 101.313 77.2166 101.798 76.7319C102.283 76.2472 102.667 75.6717 102.929 75.0384C103.192 74.4051 103.327 73.7263 103.327 73.0408Z" stroke="#89898C" stroke-width="2"/>
<path d="M63.3363 86.4809C66.3063 86.0609 68.6363 84.7209 71.6763 84.4509C75.623 84.0976 79.2997 82.8976 82.7063 80.8509C92.0363 98.4609 116.306 86.8009 111.326 68.6009C106.766 51.9409 85.3363 55.8509 81.6763 70.7909C75.103 69.2709 68.4497 68.7842 61.7163 69.3309C47.0063 59.3809 35.3863 42.4609 28.0663 26.2809C25.5463 20.7009 17.7463 0.840961 30.2263 1.00096C31.713 1.02096 36.043 2.56096 43.2163 5.62096C65.3463 15.051 80.0163 22.561 102.216 21.311C132.736 19.591 161.746 11.3609 191.336 20.4209C202.406 23.8209 213.076 27.491 222.796 33.321C229.706 37.461 231.276 42.8109 230.696 50.7809C227.926 88.4209 202.786 109.701 169.796 122.481C148.956 130.551 128.726 132.881 106.406 131.511C93.2863 130.711 79.7063 132.441 69.2163 133.001C58.1097 133.594 47.0363 133.211 35.9963 131.851C32.5463 131.431 28.5163 130.171 28.1663 126.511C27.5363 119.781 57.3963 91.9209 63.3363 86.4809ZM155.196 36.3509C152.326 33.0609 149.396 24.921 143.606 29.441C139.086 32.9676 134.79 36.7143 130.716 40.681C130.587 40.807 130.429 40.9007 130.256 40.9544C130.084 41.0081 129.901 41.0204 129.723 40.9902C129.544 40.96 129.376 40.8882 129.23 40.7806C129.085 40.673 128.967 40.5327 128.886 40.371C126.826 36.261 122.456 25.8509 116.426 32.2609C113.64 35.2209 110.916 38.2209 108.256 41.2609C108.209 41.315 108.151 41.3581 108.085 41.387C108.02 41.4159 107.949 41.4299 107.878 41.428C107.807 41.4261 107.737 41.4083 107.675 41.376C107.612 41.3436 107.558 41.2974 107.516 41.241C104.626 37.531 100.336 29.551 94.8163 34.931C92.243 37.431 89.903 39.9043 87.7963 42.3509C87.7133 42.4464 87.6094 42.5214 87.4928 42.5699C87.3761 42.6184 87.25 42.6391 87.1247 42.6304C86.9993 42.6216 86.878 42.5836 86.7706 42.5195C86.6633 42.4553 86.5728 42.3668 86.5063 42.2609C84.633 39.3209 82.7797 36.361 80.9463 33.381C78.7263 29.771 76.0663 27.4709 72.3763 31.2209C70.1097 33.5343 67.8763 35.8843 65.6763 38.2709C65.5898 38.3656 65.4816 38.4378 65.361 38.4812C65.2404 38.5247 65.111 38.5382 64.984 38.5205C64.857 38.5028 64.7362 38.4544 64.6321 38.3796C64.5279 38.3047 64.4436 38.2056 64.3863 38.0909L57.9363 25.3409C57.7481 24.9702 57.4688 24.6557 57.1265 24.4292C56.7841 24.2028 56.3909 24.0723 55.9863 24.0509C52.7863 23.9043 49.533 24.0743 46.2263 24.561C39.7863 25.511 43.5663 28.9009 46.4863 29.3609C48.1996 29.6276 49.7763 29.7709 51.2163 29.7909C52.6963 29.8043 53.7863 30.4609 54.4863 31.7609C56.4796 35.4542 58.6063 39.0843 60.8663 42.6509C62.653 45.4709 64.703 45.7176 67.0163 43.3909C69.183 41.1976 71.4897 38.9776 73.9363 36.7309C75.1963 35.5643 76.2697 35.7209 77.1563 37.2009C78.7697 39.8809 80.783 42.8343 83.1963 46.061C85.8063 49.541 87.6763 49.3009 90.6863 46.3909C92.6997 44.4309 94.7363 42.4376 96.7963 40.4109C97.8696 39.3576 98.953 39.451 100.046 40.691L105.196 46.5209C106.65 48.1609 108.09 48.281 109.516 46.881L118.886 37.7109C120.013 36.6109 120.936 36.7043 121.656 37.991C123.506 41.301 127.486 50.1609 132.396 45.741C136.17 42.3343 139.936 38.901 143.696 35.441C145.116 34.1343 146.446 34.1676 147.686 35.5409L153.506 41.991C154.48 43.0776 155.533 43.1643 156.666 42.251L168.636 32.691C168.831 32.5367 169.045 32.4294 169.248 32.3845C169.451 32.3396 169.632 32.3594 169.766 32.441L175.506 36.0209C175.946 36.2943 176.25 36.4443 176.416 36.4709C183.506 37.3909 171.696 26.771 170.176 26.501C167.346 25.981 158.436 34.3509 155.916 36.4109C155.812 36.4962 155.679 36.5376 155.544 36.5264C155.41 36.5152 155.285 36.4523 155.196 36.3509ZM188.866 65.571C182.86 67.1243 175.983 68.2643 168.236 68.991C155.883 70.151 143.546 71.4143 131.226 72.7809C125.806 73.3809 121.236 80.591 127.056 84.241C130.243 86.2343 133.956 87.4576 138.196 87.9109C161.776 90.4176 184.483 87.2076 206.316 78.2809C215.836 74.3909 219.196 61.3709 218.996 52.0309C218.956 50.1109 218.063 49.0243 216.316 48.7709C211.836 48.1209 207.716 47.1509 203.966 47.0309C186.606 46.4909 168.136 50.801 150.686 53.871C143.586 55.1176 136.766 57.2376 130.226 60.2309C128.08 61.2109 127.66 62.6843 128.966 64.6509C130.606 67.1109 133.756 67.601 136.876 67.561C154.19 67.341 171.476 66.4243 188.736 64.811C191.923 64.511 191.966 64.7643 188.866 65.571ZM122.146 112.391L110.966 105.011C109.546 104.071 108.36 104.228 107.406 105.481L102.536 111.861C102.31 112.155 101.992 112.36 101.64 112.439C101.289 112.518 100.929 112.466 100.626 112.291C97.1863 110.321 91.7563 105.101 87.7563 105.281C87.6111 105.29 87.4639 105.341 87.3267 105.429C87.1895 105.518 87.066 105.642 86.9663 105.791L81.1563 114.731C81.1033 114.813 81.031 114.88 80.944 114.928C80.8571 114.976 80.7577 115.003 80.6525 115.009C80.5473 115.015 80.4388 114.998 80.3342 114.961C80.2296 114.923 80.1314 114.865 80.0463 114.791C77.2196 112.398 74.2963 109.898 71.2763 107.291C69.3463 105.631 67.7863 103.991 65.4163 106.171C63.963 107.511 61.533 110.128 58.1263 114.021C56.9363 115.381 54.3963 119.451 58.6863 118.891C62.9563 118.331 65.9563 109.121 70.9063 113.861C71.6997 114.628 74.3163 116.668 78.7563 119.981C83.2663 123.351 85.8263 115.971 88.2663 113.061C89.193 111.948 90.2397 111.784 91.4063 112.571L99.0363 117.701C100.503 118.688 101.903 118.738 103.236 117.851C104.483 117.024 105.946 115.421 107.626 113.041C108.946 111.174 110.53 110.851 112.376 112.071L122.506 118.751C122.722 118.896 122.977 118.966 123.219 118.945C123.462 118.925 123.675 118.816 123.816 118.641L130.886 109.941C131.673 108.981 132.613 108.761 133.706 109.281C136.796 110.751 144.086 115.121 147.046 115.091C150.636 115.061 154.056 108.681 155.646 105.881C155.716 105.753 155.824 105.65 155.955 105.588C156.086 105.525 156.233 105.505 156.376 105.531C158.943 106.018 161.496 106.571 164.036 107.191C169.356 108.501 171.366 104.771 166.226 102.631C163.14 101.351 159.96 100.334 156.686 99.5809C154.833 99.1476 153.413 99.7076 152.426 101.261L147.676 108.751C147.462 109.088 147.139 109.337 146.774 109.446C146.409 109.556 146.031 109.518 145.716 109.341C141.043 106.694 136.193 104.434 131.166 102.561C130.113 102.168 129.233 102.518 128.526 103.611L122.956 112.271C122.918 112.331 122.866 112.382 122.804 112.421C122.743 112.459 122.672 112.485 122.597 112.496C122.521 112.507 122.443 112.504 122.365 112.486C122.288 112.468 122.214 112.435 122.146 112.391Z" fill="#1A1526"/>
<path d="M155.913 36.4109C158.433 34.3509 167.343 25.981 170.173 26.501C171.693 26.771 183.503 37.3909 176.413 36.4709C176.246 36.4443 175.943 36.2943 175.503 36.0209L169.763 32.441C169.629 32.3594 169.448 32.3396 169.245 32.3845C169.042 32.4294 168.828 32.5367 168.633 32.691L156.663 42.251C155.53 43.1643 154.476 43.0776 153.503 41.9909L147.683 35.5409C146.443 34.1676 145.113 34.1343 143.693 35.441C139.933 38.901 136.166 42.3343 132.393 45.7409C127.483 50.1609 123.503 41.3009 121.653 37.9909C120.933 36.7043 120.01 36.6109 118.883 37.7109L109.513 46.881C108.086 48.281 106.646 48.1609 105.193 46.5209L100.043 40.691C98.9498 39.451 97.8664 39.3576 96.7931 40.4109C94.7331 42.4376 92.6964 44.4309 90.6831 46.3909C87.6731 49.3009 85.8031 49.541 83.1931 46.061C80.7798 42.8343 78.7664 39.8809 77.1531 37.2009C76.2664 35.7209 75.1931 35.5643 73.9331 36.7309C71.4864 38.9776 69.1798 41.1976 67.0131 43.3909C64.6998 45.7176 62.6498 45.4709 60.8631 42.6509C58.6031 39.0843 56.4764 35.4542 54.4831 31.7609C53.7831 30.4609 52.6931 29.8043 51.2131 29.7909C49.7731 29.7709 48.1964 29.6276 46.4831 29.3609C43.5631 28.9009 39.7831 25.511 46.2231 24.561C49.5298 24.0743 52.7831 23.9043 55.9831 24.0509C56.3876 24.0723 56.7809 24.2028 57.1233 24.4292C57.4656 24.6557 57.7449 24.9702 57.9331 25.3409L64.3831 38.0909C64.4404 38.2056 64.5247 38.3047 64.6288 38.3796C64.733 38.4544 64.8537 38.5028 64.9807 38.5205C65.1077 38.5382 65.2371 38.5247 65.3578 38.4812C65.4784 38.4378 65.5866 38.3656 65.6731 38.2709C67.8731 35.8843 70.1064 33.5343 72.3731 31.2209C76.0631 27.4709 78.7231 29.771 80.9431 33.381C82.7764 36.361 84.6298 39.3209 86.5031 42.2609C86.5695 42.3668 86.66 42.4553 86.7674 42.5195C86.8748 42.5836 86.996 42.6216 87.1214 42.6304C87.2468 42.6391 87.3729 42.6184 87.4895 42.5699C87.6062 42.5213 87.7101 42.4464 87.7931 42.3509C89.8998 39.9043 92.2398 37.431 94.8131 34.931C100.333 29.551 104.623 37.5309 107.513 41.2409C107.555 41.2974 107.609 41.3436 107.672 41.376C107.734 41.4083 107.804 41.4261 107.875 41.428C107.946 41.4299 108.016 41.4159 108.082 41.387C108.147 41.3581 108.206 41.315 108.253 41.2609C110.913 38.2209 113.636 35.2209 116.423 32.2609C122.453 25.8509 126.823 36.261 128.883 40.371C128.964 40.5327 129.082 40.673 129.227 40.7806C129.373 40.8882 129.541 40.96 129.719 40.9902C129.898 41.0204 130.081 41.0081 130.253 40.9544C130.426 40.9007 130.583 40.807 130.713 40.681C134.786 36.7143 139.083 32.9676 143.603 29.441C149.393 24.921 152.323 33.0609 155.193 36.3509C155.282 36.4523 155.407 36.5152 155.541 36.5264C155.675 36.5376 155.809 36.4962 155.913 36.4109Z" fill="#FEFEFC"/>
<path d="M188.864 65.5711C191.964 64.7644 191.921 64.5111 188.734 64.8111C171.474 66.4244 154.187 67.3411 136.874 67.5611C133.754 67.6011 130.604 67.1111 128.964 64.6511C127.657 62.6844 128.077 61.2111 130.224 60.2311C136.764 57.2377 143.584 55.1178 150.684 53.8711C168.134 50.8011 186.604 46.4911 203.964 47.0311C207.714 47.1511 211.834 48.1211 216.314 48.7711C218.061 49.0244 218.954 50.1111 218.994 52.0311C219.194 61.3711 215.834 74.3911 206.314 78.2811C184.481 87.2077 161.774 90.4177 138.194 87.9111C133.954 87.4577 130.241 86.2344 127.054 84.2411C121.234 80.5911 125.804 73.3811 131.224 72.7811C143.544 71.4144 155.881 70.1511 168.234 68.9911C175.981 68.2644 182.857 67.1244 188.864 65.5711Z" fill="#5CA4A9"/>
<path d="M82.7034 80.8512C81.6567 77.5178 81.3134 74.1645 81.6734 70.7912C85.3334 55.8512 106.763 51.9412 111.323 68.6012C116.303 86.8012 92.0334 98.4612 82.7034 80.8512ZM103.323 73.0412C103.323 72.3557 103.188 71.6769 102.926 71.0435C102.664 70.4102 102.279 69.8348 101.794 69.3501C101.31 68.8653 100.734 68.4809 100.101 68.2185C99.4676 67.9562 98.7889 67.8212 98.1034 67.8212C96.7189 67.8212 95.3912 68.3711 94.4123 69.3501C93.4333 70.329 92.8834 71.6567 92.8834 73.0412C92.8834 74.4256 93.4333 75.7533 94.4123 76.7323C95.3912 77.7112 96.7189 78.2611 98.1034 78.2611C98.7889 78.2611 99.4676 78.1261 100.101 77.8638C100.734 77.6015 101.31 77.217 101.794 76.7323C102.279 76.2475 102.664 75.6721 102.926 75.0388C103.188 74.4055 103.323 73.7267 103.323 73.0412Z" fill="#FEFEFC"/>
<path d="M61.7154 69.3307C68.4487 68.7841 75.102 69.2708 81.6754 70.7908C81.3154 74.1641 81.6587 77.5174 82.7054 80.8508C79.2987 82.8974 75.622 84.0974 71.6754 84.4507C68.6354 84.7207 66.3054 86.0608 63.3354 86.4808C62.9087 84.7541 62.1487 83.3874 61.0554 82.3808C60.9422 82.2774 60.8038 82.2004 60.65 82.1555C60.4962 82.1106 60.3307 82.0987 60.1654 82.1208C50.2054 83.4741 40.2687 84.8474 30.3554 86.2408C27.6954 86.6108 24.6154 86.5607 21.7654 86.8907C21.4268 86.9304 21.1031 87.0524 20.8225 87.2458C20.5419 87.4393 20.3129 87.6985 20.1554 88.0008C15.0287 97.7141 9.54203 107.224 3.69536 116.531C2.74869 118.037 1.88869 118.184 1.11536 116.971C1.03641 116.846 0.996704 116.691 1.00021 116.52C1.00372 116.35 1.05034 116.171 1.13536 116.001L16.3754 85.9607C16.4341 85.8494 16.4503 85.714 16.4217 85.5728C16.3931 85.4316 16.3211 85.2913 16.2154 85.1708C11.442 79.6774 6.75537 74.1707 2.15537 68.6507C0.602032 66.7841 0.972033 65.8041 3.26537 65.7107C3.41627 65.7045 3.57356 65.736 3.72693 65.8032C3.8803 65.8704 4.0263 65.9718 4.15537 66.1008L19.8054 82.2107C20.0398 82.4513 20.3341 82.6355 20.6664 82.7497C20.9988 82.864 21.3607 82.9053 21.7254 82.8708C34.132 81.6241 46.4654 79.8607 58.7254 77.5807C59.1688 77.4987 59.5723 77.3139 59.8816 77.0511C60.1909 76.7882 60.3911 76.4601 60.4554 76.1108L61.7154 69.3307Z" fill="#3C556B"/>
<path d="M98.1067 78.2612C100.99 78.2612 103.327 75.9242 103.327 73.0413C103.327 70.1583 100.99 67.8213 98.1067 67.8213C95.2238 67.8213 92.8867 70.1583 92.8867 73.0413C92.8867 75.9242 95.2238 78.2612 98.1067 78.2612Z" fill="#14131B"/>
<path d="M122.956 112.271L128.526 103.611C129.233 102.518 130.113 102.168 131.166 102.561C136.193 104.435 141.043 106.695 145.716 109.341C146.03 109.519 146.409 109.556 146.774 109.447C147.138 109.337 147.461 109.088 147.676 108.751L152.426 101.261C153.413 99.7079 154.833 99.1479 156.686 99.5812C159.959 100.335 163.139 101.351 166.226 102.631C171.366 104.771 169.356 108.501 164.036 107.191C161.496 106.571 158.943 106.018 156.376 105.531C156.233 105.505 156.085 105.525 155.954 105.588C155.823 105.651 155.715 105.753 155.646 105.881C154.056 108.681 150.636 115.061 147.046 115.091C144.086 115.121 136.796 110.751 133.706 109.281C132.613 108.761 131.673 108.981 130.886 109.941L123.816 118.641C123.674 118.817 123.461 118.925 123.219 118.945C122.976 118.966 122.722 118.897 122.506 118.751L112.376 112.071C110.529 110.851 108.946 111.175 107.626 113.041C105.946 115.421 104.483 117.025 103.236 117.851C101.903 118.738 100.503 118.688 99.0361 117.701L91.4061 112.571C90.2394 111.785 89.1927 111.948 88.2661 113.061C85.8261 115.971 83.2661 123.351 78.7561 119.981C74.3161 116.668 71.6994 114.628 70.9061 113.861C65.9561 109.121 62.9561 118.331 58.6861 118.891C54.3961 119.451 56.9361 115.381 58.1261 114.021C61.5327 110.128 63.9627 107.511 65.4161 106.171C67.7861 103.991 69.3461 105.631 71.2761 107.291C74.2961 109.898 77.2194 112.398 80.0461 114.791C80.1312 114.865 80.2294 114.923 80.3339 114.961C80.4385 114.999 80.5471 115.015 80.6523 115.009C80.7575 115.004 80.8569 114.976 80.9438 114.928C81.0307 114.88 81.1031 114.813 81.1561 114.731L86.9661 105.791C87.0658 105.642 87.1892 105.518 87.3264 105.43C87.4636 105.341 87.6108 105.29 87.7561 105.281C91.7561 105.101 97.1861 110.321 100.626 112.291C100.928 112.466 101.289 112.519 101.64 112.44C101.991 112.36 102.31 112.155 102.536 111.861L107.406 105.481C108.359 104.228 109.546 104.071 110.966 105.011L122.146 112.391C122.213 112.436 122.288 112.468 122.365 112.486C122.443 112.504 122.521 112.507 122.596 112.496C122.672 112.485 122.742 112.46 122.804 112.421C122.866 112.382 122.917 112.331 122.956 112.271Z" fill="#FEFEFC"/>
</svg>
