<svg width="28" height="26" viewBox="0 0 28 26" fill="none" xmlns="http://www.w3.org/2000/svg">
<path d="M20.7022 4.07764L19.7422 4.36765" stroke="#AEAFB0" stroke-width="2"/>
<path d="M19.7453 4.36742C16.5253 3.83742 14.8253 6.87742 10.7153 5.92742C10.4449 5.87005 10.0874 5.93797 9.71532 6.11742C7.60865 7.13742 5.36534 7.67076 2.98534 7.71742C2.65858 7.72378 2.34234 7.86391 2.10533 8.10741C-1.04467 11.3274 4.04537 13.5674 6.39537 14.6374C6.45155 14.6638 6.50152 14.7017 6.54186 14.7487C6.58219 14.7956 6.61191 14.8504 6.62901 14.9093C6.64612 14.9683 6.65018 15.0299 6.64092 15.09C6.63165 15.15 6.6093 15.2072 6.57537 15.2574C5.14537 17.4874 2.08535 20.5174 3.49535 23.3174C3.59637 23.5181 3.74462 23.691 3.9279 23.8217C4.11119 23.9525 4.32429 24.0375 4.54973 24.0697C4.77518 24.1019 5.00651 24.0804 5.22478 24.007C5.44305 23.9336 5.64202 23.8104 5.80535 23.6474L14.0654 15.4074C14.852 14.6207 15.7754 14.3707 16.8354 14.6574C18.4954 15.1074 27.2754 18.9174 26.8954 14.7974C26.7254 12.9274 23.2553 10.2974 21.8453 9.0974C21.796 9.05574 21.7556 9.00457 21.7264 8.94679C21.6971 8.88902 21.6797 8.82578 21.6751 8.76073C21.6705 8.69568 21.6787 8.63012 21.6993 8.56777C21.72 8.50541 21.7526 8.44752 21.7953 8.39742C22.3253 7.75742 28.7853 1.73741 25.6653 1.54741C25.5283 1.53849 25.383 1.56909 25.2407 1.63677C25.0984 1.70444 24.963 1.80734 24.8453 1.9374C23.7853 3.11073 22.4054 3.82408 20.7054 4.07741" stroke="#919396" stroke-width="2"/>
<path d="M19.7422 4.36765C20.1689 6.84098 20.4889 6.7443 20.7022 4.07764" stroke="#404347" stroke-width="2"/>
<path d="M12.5422 11.6778C12.5422 11.5054 12.4737 11.3401 12.3518 11.2182C12.2299 11.0963 12.0646 11.0278 11.8922 11.0278C11.7198 11.0278 11.5545 11.0963 11.4326 11.2182C11.3107 11.3401 11.2422 11.5054 11.2422 11.6778C11.2422 11.8502 11.3107 12.0156 11.4326 12.1375C11.5545 12.2593 11.7198 12.3278 11.8922 12.3278C12.0646 12.3278 12.2299 12.2593 12.3518 12.1375C12.4737 12.0156 12.5422 11.8502 12.5422 11.6778Z" stroke="#313439" stroke-width="2"/>
<path d="M19.7414 4.36791C20.1681 6.84124 20.4881 6.74457 20.7015 4.0779C22.4015 3.82456 23.7814 3.11122 24.8414 1.93788C24.9591 1.80782 25.0945 1.70493 25.2368 1.63725C25.3791 1.56958 25.5244 1.53898 25.6614 1.5479C28.7814 1.7379 22.3214 7.75791 21.7914 8.39791C21.7487 8.44801 21.7161 8.5059 21.6954 8.56825C21.6748 8.63061 21.6665 8.69617 21.6712 8.76122C21.6758 8.82626 21.6932 8.88951 21.7225 8.94728C21.7517 9.00506 21.7921 9.05623 21.8414 9.09789C23.2514 10.2979 26.7215 12.9279 26.8915 14.7979C27.2715 18.9179 18.4915 15.1079 16.8315 14.6579C15.7715 14.3712 14.8481 14.6212 14.0614 15.4079L5.80144 23.6479C5.63812 23.8109 5.43914 23.9341 5.22087 24.0075C5.00261 24.0809 4.77127 24.1024 4.54582 24.0701C4.32038 24.0379 4.10729 23.953 3.924 23.8222C3.74071 23.6915 3.59246 23.5186 3.49144 23.3179C2.08144 20.5179 5.14146 17.4879 6.57146 15.2579C6.60539 15.2076 6.62775 15.1505 6.63701 15.0904C6.64627 15.0304 6.64221 14.9687 6.62511 14.9098C6.60801 14.8509 6.57828 14.7961 6.53795 14.7492C6.49762 14.7022 6.44764 14.6643 6.39147 14.6379C4.04147 13.5679 -1.04857 11.3279 2.10143 8.1079C2.33843 7.8644 2.65467 7.72427 2.98143 7.71791C5.36143 7.67125 7.60475 7.13791 9.71141 6.11791C10.0835 5.93845 10.441 5.87054 10.7114 5.9279C14.8214 6.8779 16.5214 3.83791 19.7414 4.36791ZM12.5414 11.6779C12.5414 11.5055 12.473 11.3402 12.3511 11.2183C12.2292 11.0964 12.0639 11.0279 11.8915 11.0279C11.7191 11.0279 11.5537 11.0964 11.4318 11.2183C11.3099 11.3402 11.2414 11.5055 11.2414 11.6779C11.2414 11.8503 11.3099 12.0156 11.4318 12.1375C11.5537 12.2594 11.7191 12.3279 11.8915 12.3279C12.0639 12.3279 12.2292 12.2594 12.3511 12.1375C12.473 12.0156 12.5414 11.8503 12.5414 11.6779Z" fill="#22262C"/>
<path d="M20.7022 4.07812C20.4889 6.74479 20.1689 6.84147 19.7422 4.36813L20.7022 4.07812Z" fill="#5D5F61"/>
<path d="M11.8922 12.3283C12.2512 12.3283 12.5422 12.0373 12.5422 11.6783C12.5422 11.3193 12.2512 11.0283 11.8922 11.0283C11.5332 11.0283 11.2422 11.3193 11.2422 11.6783C11.2422 12.0373 11.5332 12.3283 11.8922 12.3283Z" fill="#3F4145"/>
</svg>
