<svg width="51" height="115" viewBox="0 0 51 115" fill="none" xmlns="http://www.w3.org/2000/svg">
<path d="M4.88171 112.502C7.64838 114.615 10.005 114.338 11.9517 111.672C12.0838 111.49 12.1769 111.284 12.225 111.064C12.273 110.845 12.275 110.618 12.2308 110.398C12.1866 110.178 12.0972 109.97 11.9683 109.786C11.8393 109.603 11.6736 109.448 11.4817 109.332C0.561687 102.732 10.9917 95.5517 16.6617 91.3617C21.0617 88.1217 26.9116 89.7617 31.6916 87.7317C41.6116 83.5117 47.9317 72.0717 46.0917 61.1917C45.3417 56.7317 43.0417 50.6017 44.7417 46.3617C46.9017 40.9717 50.8517 33.0317 49.1417 27.5417C45.5551 16.0883 38.4983 7.82166 27.9717 2.74166C22.9717 0.331657 8.32165 -1.11834 12.5717 9.18166C13.2183 10.7483 14.3617 11.7383 16.0017 12.1517C17.875 12.6317 18.7651 11.315 18.6718 8.20166C18.666 8.03294 18.6953 7.86486 18.7578 7.70806C18.8204 7.55126 18.9148 7.40914 19.0352 7.29071C19.1555 7.17228 19.299 7.08011 19.4568 7.02002C19.6146 6.95994 19.783 6.93327 19.9517 6.94167C29.2017 7.38167 37.4617 16.2117 41.1017 24.2317C44.5217 31.7517 41.6717 37.7917 39.3617 44.9417C38.0717 48.9117 38.6017 52.2517 39.3617 57.4717C41.5017 72.0617 35.2217 81.2917 21.0717 84.8217C14.4817 86.4517 6.37175 90.4017 3.04175 96.2417C0.241745 101.152 -0.148289 108.642 4.88171 112.502Z" stroke="#8C91AD" stroke-width="2"/>
<path d="M4.88562 112.502C-0.144383 108.642 0.245651 101.152 3.04565 96.2417C6.37565 90.4017 14.4856 86.4517 21.0756 84.8217C35.2256 81.2917 41.5056 72.0617 39.3656 57.4717C38.6056 52.2517 38.0756 48.9117 39.3656 44.9417C41.6756 37.7917 44.5256 31.7517 41.1056 24.2317C37.4656 16.2117 29.2056 7.38167 19.9556 6.94167C19.787 6.93327 19.6185 6.95994 19.4607 7.02002C19.3029 7.08011 19.1594 7.17228 19.0391 7.29071C18.9188 7.40914 18.8243 7.55126 18.7617 7.70806C18.6992 7.86486 18.6699 8.03294 18.6757 8.20166C18.769 11.315 17.8789 12.6317 16.0056 12.1517C14.3656 11.7383 13.2222 10.7483 12.5756 9.18166C8.32556 -1.11834 22.9756 0.331657 27.9756 2.74166C38.5023 7.82166 45.559 16.0883 49.1456 27.5417C50.8556 33.0317 46.9056 40.9717 44.7456 46.3617C43.0456 50.6017 45.3456 56.7317 46.0956 61.1917C47.9356 72.0717 41.6156 83.5117 31.6956 87.7317C26.9156 89.7617 21.0656 88.1217 16.6656 91.3617C10.9956 95.5517 0.565593 102.732 11.4856 109.332C11.6775 109.448 11.8432 109.603 11.9722 109.786C12.1011 109.97 12.1906 110.178 12.2347 110.398C12.2789 110.618 12.2769 110.845 12.2289 111.064C12.1808 111.284 12.0877 111.49 11.9556 111.672C10.0089 114.338 7.65228 114.615 4.88562 112.502Z" fill="#18225A"/>
</svg>
