<svg width="36" height="41" viewBox="0 0 36 41" fill="none" xmlns="http://www.w3.org/2000/svg">
<path d="M13.1792 39.5537C16.3892 37.3737 17.1092 27.9937 23.1192 26.7837C23.4561 26.7187 23.8189 26.7751 24.1492 26.9437C26.8092 28.317 29.6258 29.057 32.5992 29.1637C32.7221 29.1701 32.8601 29.1423 33.0046 29.0821C33.1491 29.0219 33.297 28.9305 33.4392 28.8137C34.2525 28.1537 34.2192 27.4937 33.3392 26.8337C31.1125 25.1804 29.4459 23.3337 28.3392 21.2937C26.1292 17.2337 24.7792 9.83369 24.5092 4.73369C24.3992 2.45369 22.2492 -0.356318 21.3392 3.75368C20.6325 6.90702 19.7092 10.0004 18.5692 13.0337C18.5409 13.1084 18.4973 13.1764 18.4413 13.233C18.3852 13.2896 18.318 13.3336 18.2441 13.362C18.1702 13.3904 18.0914 13.4026 18.013 13.3977C17.9345 13.3928 17.8582 13.371 17.7892 13.3337C14.8692 11.7737 6.64917 6.46369 3.56917 7.70369C0.119169 9.09369 1.51918 10.9837 3.45918 12.7137C11.7592 20.0437 11.9892 28.1537 11.8492 38.8337C11.8358 39.9204 12.2792 40.1604 13.1792 39.5537Z" stroke="#8D94AE" stroke-width="2"/>
<path d="M23.1192 26.7837C17.1092 27.9937 16.3892 37.3737 13.1792 39.5537C12.2792 40.1604 11.8358 39.9204 11.8492 38.8337C11.9892 28.1537 11.7592 20.0437 3.45918 12.7137C1.51918 10.9837 0.119169 9.09369 3.56917 7.70369C6.64917 6.46369 14.8692 11.7737 17.7892 13.3337C17.8582 13.371 17.9345 13.3928 18.013 13.3977C18.0914 13.4026 18.1702 13.3904 18.2441 13.362C18.318 13.3336 18.3852 13.2896 18.4413 13.233C18.4973 13.1764 18.5409 13.1084 18.5692 13.0337C19.7092 10.0004 20.6325 6.90702 21.3392 3.75368C22.2492 -0.356318 24.3992 2.45369 24.5092 4.73369C24.7792 9.83369 26.1292 17.2337 28.3392 21.2937C29.4459 23.3337 31.1125 25.1804 33.3392 26.8337C34.2192 27.4937 34.2525 28.1537 33.4392 28.8137C33.297 28.9305 33.1491 29.0219 33.0046 29.0821C32.8601 29.1423 32.7221 29.1701 32.5992 29.1637C29.6258 29.057 26.8092 28.317 24.1492 26.9437C23.8189 26.7751 23.4561 26.7187 23.1192 26.7837Z" fill="#1A285D"/>
</svg>
