<svg width="131" height="93" viewBox="0 0 131 93" fill="none" xmlns="http://www.w3.org/2000/svg">
<path d="M95.594 52.8408C99.534 50.5208 107.094 51.2007 111.574 51.6207C117.447 52.1741 123.034 52.3574 128.334 52.1707C129.747 52.1174 129.814 51.7707 128.534 51.1307C120.307 47.0174 111.741 43.7607 102.834 41.3607C101.387 40.9741 101.321 40.3874 102.634 39.6008C109.324 35.5608 119.514 29.1307 122.854 21.8707C123.594 20.2507 123.097 19.6507 121.364 20.0707C113.844 21.8907 106.974 25.8107 100.394 27.8607C98.014 28.5907 84.214 32.6408 88.444 27.1508C89.434 25.8608 107.904 1.51071 100.694 3.92071C99.614 4.28071 98.664 4.85074 97.844 5.63074C89.824 13.1807 77.994 26.4408 65.844 25.8508C65.7728 25.8473 65.7032 25.829 65.6394 25.7969C65.5755 25.7649 65.5189 25.7199 65.4729 25.6645C65.427 25.6092 65.3927 25.5448 65.3723 25.4753C65.3518 25.4059 65.3456 25.3329 65.354 25.2607C66.334 18.3474 67.464 11.4274 68.744 4.50073C69.004 3.08073 68.364 1.55074 66.824 3.32074C61.7906 9.11407 57.8273 13.3874 54.934 16.1407C50.614 20.2707 41.894 23.6608 38.624 16.0208C36.7706 11.6941 34.9773 7.35072 33.244 2.99072C31.954 -0.239279 29.564 0.690736 29.904 4.13074C30.4106 9.33074 30.564 14.4208 30.364 19.4008C30.3531 19.6818 30.2501 19.9511 30.0709 20.1664C29.8917 20.3818 29.6466 20.5311 29.374 20.5908C11.724 24.4808 -0.36603 31.6708 1.12397 51.5908C2.23397 66.3808 13.114 70.6407 24.804 75.8607C26.1573 76.4674 26.7206 77.5041 26.494 78.9708C25.914 82.8241 25.324 86.014 24.724 88.5407C24.284 90.3807 25.824 90.3508 26.644 89.4108C29.6973 85.8641 32.6206 82.3707 35.414 78.9307C36.5206 77.5707 37.9506 76.8874 39.704 76.8807C52.494 76.8507 56.024 82.8507 64.794 90.6107C65.6273 91.3507 65.8673 91.1941 65.514 90.1407C63.6673 84.6407 61.404 79.3141 58.724 74.1608C58.5895 73.8978 58.5643 73.5922 58.654 73.3107C59.254 71.5174 60.744 70.8507 63.124 71.3107C72.3506 73.1107 81.814 75.5107 91.514 78.5107C93.574 79.1507 93.634 78.974 91.694 77.9807C86.1806 75.1674 81.9673 71.0441 79.054 65.6107C78.3673 64.3241 78.7006 63.5007 80.054 63.1407C88.814 60.8307 100.814 65.4708 109.924 67.7208C111.657 68.1474 111.887 67.754 110.614 66.5407C106.054 62.1674 101.054 58.3508 95.614 55.0908C94.3406 54.3308 94.334 53.5808 95.594 52.8408Z" stroke="#FED594" stroke-width="2"/>
<path d="M49.8656 35.5546C50.155 34.6197 49.9616 33.5773 49.3278 32.6567C48.694 31.7361 47.6718 31.0128 46.4861 30.6457C45.899 30.464 45.2894 30.3752 44.6922 30.3844C44.0949 30.3937 43.5217 30.5007 43.0052 30.6996C42.4888 30.8984 42.0392 31.1851 41.6821 31.5432C41.325 31.9013 41.0675 32.3239 40.9242 32.7868C40.6348 33.7217 40.8283 34.7641 41.4621 35.6847C42.0959 36.6053 43.118 37.3287 44.3037 37.6957C44.8908 37.8775 45.5004 37.9663 46.0977 37.957C46.6949 37.9478 47.2681 37.8406 47.7846 37.6418C48.3011 37.443 48.7507 37.1564 49.1077 36.7983C49.4648 36.4401 49.7223 36.0175 49.8656 35.5546Z" stroke="#FED594" stroke-width="2"/>
<path d="M83.3373 42.4206C83.5974 42.6282 83.9067 42.7657 84.2357 42.82C84.5648 42.8742 84.9027 42.8435 85.2173 42.7306C87.6173 41.8906 97.5373 39.3806 91.1473 35.6206C89.874 34.8673 88.4973 34.4573 87.0173 34.3907C80.9773 34.1007 79.3673 39.2406 83.3373 42.4206Z" stroke="#FED594" stroke-width="2"/>
<path d="M64.1006 40.2892C64.5517 39.5672 64.6457 38.6633 64.362 37.7761C64.0782 36.8889 63.4399 36.0913 62.5875 35.5586C61.735 35.026 60.7383 34.802 59.8166 34.9358C58.8948 35.0697 58.1235 35.5505 57.6724 36.2724C57.2212 36.9944 57.1272 37.8984 57.411 38.7856C57.6947 39.6727 58.333 40.4704 59.1855 41.003C60.0379 41.5357 61.0346 41.7597 61.9564 41.6258C62.8781 41.492 63.6494 41.0112 64.1006 40.2892Z" stroke="#FED594" stroke-width="2"/>
<path d="M27.8205 46.5568C27.8853 46.1336 27.8486 45.6991 27.7128 45.2782C27.5769 44.8572 27.3443 44.4581 27.0285 44.1035C26.7126 43.749 26.3196 43.4459 25.8718 43.2116C25.4241 42.9774 24.9304 42.8165 24.4189 42.7382C23.9074 42.66 23.3882 42.6658 22.8909 42.7555C22.3936 42.8451 21.928 43.0168 21.5205 43.2607C21.1131 43.5046 20.7718 43.8159 20.5163 44.177C20.2607 44.538 20.0959 44.9416 20.0311 45.3648C19.9663 45.788 20.0029 46.2224 20.1388 46.6433C20.2747 47.0643 20.5073 47.4634 20.8231 47.818C21.139 48.1726 21.532 48.4757 21.9798 48.7099C22.4275 48.9442 22.9212 49.105 23.4327 49.1833C23.9442 49.2615 24.4634 49.2557 24.9607 49.166C25.458 49.0764 25.9236 48.9047 26.3311 48.6609C26.7385 48.417 27.0798 48.1056 27.3353 47.7446C27.5909 47.3836 27.7557 46.98 27.8205 46.5568Z" stroke="#FCCE8A" stroke-width="2"/>
<path d="M51.025 52.0066C51.406 51.0393 51.3205 49.934 50.7873 48.9339C50.2541 47.9337 49.3168 47.1207 48.1818 46.6735C47.0467 46.2264 45.8067 46.1819 44.7346 46.5497C43.6625 46.9175 42.8462 47.6675 42.4652 48.6348C42.0841 49.6021 42.1696 50.7074 42.7028 51.7076C43.236 52.7077 44.1733 53.5208 45.3084 53.968C46.4435 54.4151 47.6834 54.4596 48.7555 54.0918C49.8276 53.724 50.6439 52.9739 51.025 52.0066Z" stroke="#FED594" stroke-width="2"/>
<path d="M71.9206 56.9301C72.0765 56.4616 72.1236 55.962 72.0592 55.4598C71.9948 54.9576 71.8202 54.4627 71.5454 54.0033C71.2705 53.5439 70.9008 53.1291 70.4574 52.7824C70.0139 52.4358 69.5054 52.1641 68.9608 51.9829C67.8611 51.6171 66.6814 51.6422 65.6812 52.0526C64.681 52.463 63.9422 53.2251 63.6274 54.1714C63.4716 54.6399 63.4245 55.1395 63.4889 55.6417C63.5533 56.1439 63.7279 56.6388 64.0027 57.0982C64.2776 57.5576 64.6473 57.9725 65.0907 58.3191C65.5342 58.6658 66.0427 58.9374 66.5873 59.1186C67.687 59.4844 68.8667 59.4594 69.8669 59.049C70.8671 58.6386 71.6059 57.8764 71.9206 56.9301Z" stroke="#FCCE8A" stroke-width="2"/>
<path d="M30.3721 65.6908C30.9773 65.1343 31.2767 64.2951 31.2045 63.3577C31.1323 62.4203 30.6944 61.4615 29.9871 60.6923C29.6369 60.3115 29.2311 59.9886 28.7928 59.7422C28.3546 59.4958 27.8925 59.3306 27.433 59.2561C26.9734 59.1817 26.5254 59.1994 26.1146 59.3082C25.7037 59.417 25.338 59.6149 25.0383 59.8905C24.4331 60.447 24.1337 61.2862 24.2059 62.2236C24.2781 63.161 24.716 64.1198 25.4233 64.8889C25.7735 65.2698 26.1793 65.5927 26.6176 65.8391C27.0558 66.0855 27.5179 66.2506 27.9774 66.3251C28.437 66.3996 28.885 66.3819 29.2959 66.2731C29.7067 66.1643 30.0724 65.9664 30.3721 65.6908Z" stroke="#FCCE8A" stroke-width="2"/>
<path d="M50.5933 67.4425C50.9756 66.6552 50.9622 65.7156 50.556 64.8304C50.1498 63.9452 49.3842 63.1869 48.4275 62.7224C47.4708 62.2578 46.4015 62.1251 45.4547 62.3533C44.5079 62.5815 43.7612 63.152 43.3789 63.9393C42.9966 64.7266 43.01 65.6662 43.4162 66.5513C43.8224 67.4365 44.588 68.1948 45.5447 68.6594C46.5014 69.1239 47.5707 69.2567 48.5175 69.0285C49.4643 68.8002 50.211 68.2297 50.5933 67.4425Z" stroke="#FCCE8A" stroke-width="2"/>
<path d="M95.594 52.8408C94.334 53.5808 94.3406 54.3308 95.614 55.0908C101.054 58.3508 106.054 62.1674 110.614 66.5407C111.887 67.754 111.657 68.1474 109.924 67.7208C100.814 65.4708 88.814 60.8307 80.054 63.1407C78.7006 63.5007 78.3673 64.3241 79.054 65.6107C81.9673 71.0441 86.1806 75.1674 91.694 77.9807C93.634 78.974 93.574 79.1507 91.514 78.5107C81.814 75.5107 72.3506 73.1107 63.124 71.3107C60.744 70.8507 59.254 71.5174 58.654 73.3107C58.5643 73.5922 58.5895 73.8978 58.724 74.1608C61.404 79.3141 63.6673 84.6407 65.514 90.1407C65.8673 91.1941 65.6273 91.3507 64.794 90.6107C56.024 82.8507 52.494 76.8507 39.704 76.8807C37.9506 76.8874 36.5206 77.5707 35.414 78.9307C32.6206 82.3707 29.6973 85.8641 26.644 89.4108C25.824 90.3508 24.284 90.3807 24.724 88.5407C25.324 86.014 25.914 82.8241 26.494 78.9708C26.7206 77.5041 26.1573 76.4674 24.804 75.8607C13.114 70.6407 2.23397 66.3808 1.12397 51.5908C-0.36603 31.6708 11.724 24.4808 29.374 20.5908C29.6466 20.5311 29.8917 20.3818 30.0709 20.1664C30.2501 19.9511 30.3531 19.6818 30.364 19.4008C30.564 14.4208 30.4106 9.33074 29.904 4.13074C29.564 0.690736 31.954 -0.239279 33.244 2.99072C34.9773 7.35072 36.7706 11.6941 38.624 16.0208C41.894 23.6608 50.614 20.2707 54.934 16.1407C57.8273 13.3874 61.7906 9.11407 66.824 3.32074C68.364 1.55074 69.004 3.08073 68.744 4.50073C67.464 11.4274 66.334 18.3474 65.354 25.2607C65.3456 25.3329 65.3518 25.4059 65.3723 25.4753C65.3927 25.5448 65.427 25.6092 65.4729 25.6645C65.5189 25.7199 65.5755 25.7649 65.6394 25.7969C65.7032 25.829 65.7728 25.8473 65.844 25.8508C77.994 26.4408 89.824 13.1807 97.844 5.63074C98.664 4.85074 99.614 4.28071 100.694 3.92071C107.904 1.51071 89.434 25.8608 88.444 27.1508C84.214 32.6408 98.014 28.5907 100.394 27.8607C106.974 25.8107 113.844 21.8907 121.364 20.0707C123.097 19.6507 123.594 20.2507 122.854 21.8707C119.514 29.1307 109.324 35.5608 102.634 39.6008C101.321 40.3874 101.387 40.9741 102.834 41.3607C111.741 43.7607 120.307 47.0174 128.534 51.1307C129.814 51.7707 129.747 52.1174 128.334 52.1707C123.034 52.3574 117.447 52.1741 111.574 51.6207C107.094 51.2007 99.534 50.5208 95.594 52.8408ZM49.8647 35.5546C50.1541 34.6197 49.9606 33.5773 49.3268 32.6567C48.693 31.7361 47.6709 31.0128 46.4852 30.6458C45.8981 30.464 45.2885 30.3752 44.6912 30.3845C44.094 30.3937 43.5207 30.5008 43.0043 30.6996C42.4878 30.8984 42.0382 31.1851 41.6811 31.5432C41.3241 31.9013 41.0666 32.3239 40.9233 32.7869C40.6339 33.7217 40.8273 34.7641 41.4611 35.6847C42.0949 36.6053 43.1171 37.3287 44.3028 37.6957C44.8899 37.8775 45.4995 37.9663 46.0967 37.957C46.694 37.9478 47.2672 37.8407 47.7837 37.6418C48.3001 37.443 48.7497 37.1564 49.1068 36.7983C49.4639 36.4402 49.7214 36.0175 49.8647 35.5546ZM83.334 42.4207C83.5941 42.6283 83.9033 42.7658 84.2324 42.8201C84.5615 42.8743 84.8994 42.8435 85.214 42.7307C87.614 41.8907 97.534 39.3807 91.144 35.6207C89.8706 34.8674 88.494 34.4574 87.014 34.3907C80.974 34.1007 79.364 39.2407 83.334 42.4207ZM64.0981 40.2891C64.5492 39.5671 64.6432 38.6632 64.3595 37.776C64.0757 36.8888 63.4374 36.0912 62.585 35.5585C61.7326 35.0259 60.7358 34.8019 59.8141 34.9357C58.8923 35.0696 58.121 35.5504 57.6699 36.2723C57.2187 36.9943 57.1247 37.8983 57.4085 38.7855C57.6922 39.6726 58.3305 40.4703 59.183 41.0029C60.0354 41.5356 61.0321 41.7596 61.9539 41.6257C62.8756 41.4919 63.6469 41.0111 64.0981 40.2891ZM27.8187 46.5568C27.8834 46.1336 27.8468 45.6991 27.7109 45.2781C27.575 44.8572 27.3425 44.4581 27.0266 44.1035C26.7108 43.7489 26.3177 43.4459 25.87 43.2116C25.4222 42.9774 24.9285 42.8165 24.4171 42.7382C23.9056 42.66 23.3864 42.6658 22.8891 42.7554C22.3918 42.8451 21.9261 43.0168 21.5187 43.2607C21.1112 43.5046 20.77 43.8159 20.5144 44.1769C20.2589 44.538 20.094 44.9416 20.0293 45.3647C19.9645 45.7879 20.0011 46.2224 20.137 46.6433C20.2729 47.0642 20.5054 47.4634 20.8213 47.818C21.1372 48.1726 21.5302 48.4756 21.978 48.7099C22.4257 48.9442 22.9194 49.105 23.4309 49.1832C23.9423 49.2615 24.4615 49.2557 24.9588 49.166C25.4561 49.0764 25.9218 48.9047 26.3293 48.6608C26.7367 48.4169 27.0779 48.1056 27.3335 47.7446C27.589 47.3835 27.7539 46.9799 27.8187 46.5568ZM51.0239 52.0067C51.4049 51.0394 51.3194 49.934 50.7862 48.9339C50.253 47.9338 49.3158 47.1207 48.1807 46.6735C47.0456 46.2264 45.8056 46.1819 44.7335 46.5497C43.6615 46.9175 42.8451 47.6675 42.4641 48.6348C42.083 49.6021 42.1685 50.7074 42.7017 51.7076C43.235 52.7077 44.1722 53.5208 45.3073 53.968C46.4424 54.4151 47.6823 54.4596 48.7544 54.0918C49.8265 53.724 50.6428 52.974 51.0239 52.0067ZM71.9206 56.9301C72.0764 56.4616 72.1235 55.962 72.0591 55.4598C71.9947 54.9576 71.8201 54.4627 71.5453 54.0033C71.2704 53.5439 70.9007 53.1291 70.4573 52.7824C70.0138 52.4358 69.5053 52.1641 68.9608 51.9829C67.861 51.6171 66.6813 51.6421 65.6811 52.0526C64.6809 52.463 63.9421 53.2251 63.6274 54.1713C63.4715 54.6399 63.4244 55.1395 63.4888 55.6417C63.5532 56.1439 63.7278 56.6388 64.0027 57.0982C64.2775 57.5576 64.6472 57.9724 65.0907 58.3191C65.5341 58.6657 66.0426 58.9374 66.5872 59.1185C67.6869 59.4844 68.8666 59.4594 69.8669 59.049C70.8671 58.6385 71.6058 57.8763 71.9206 56.9301ZM30.3709 65.6909C30.9761 65.1344 31.2755 64.2952 31.2033 63.3578C31.1311 62.4204 30.6932 61.4616 29.9859 60.6924C29.6356 60.3116 29.2298 59.9887 28.7916 59.7423C28.3534 59.4959 27.8913 59.3307 27.4317 59.2562C26.9722 59.1818 26.5242 59.1995 26.1133 59.3083C25.7024 59.4171 25.3367 59.615 25.0371 59.8906C24.4319 60.4471 24.1325 61.2863 24.2047 62.2237C24.2769 63.1611 24.7148 64.1199 25.4221 64.889C25.7723 65.2699 26.1781 65.5928 26.6163 65.8392C27.0546 66.0856 27.5167 66.2507 27.9762 66.3252C28.4357 66.3997 28.8837 66.382 29.2946 66.2732C29.7055 66.1644 30.0712 65.9665 30.3709 65.6909ZM50.5912 67.4423C50.9735 66.655 50.96 65.7155 50.5539 64.8303C50.1477 63.9451 49.3821 63.1868 48.4254 62.7222C47.4687 62.2577 46.3993 62.1249 45.4525 62.3531C44.5058 62.5814 43.7591 63.1519 43.3768 63.9391C42.9945 64.7265 43.0079 65.666 43.4141 66.5512C43.8202 67.4364 44.5859 68.1947 45.5426 68.6592C46.4992 69.1238 47.5686 69.2565 48.5154 69.0283C49.4622 68.8001 50.2089 68.2296 50.5912 67.4423Z" fill="#FEAD34"/>
<path d="M44.304 37.6956C46.7731 38.4599 49.2632 37.5013 49.8659 35.5545C50.4685 33.6077 48.9554 31.4099 46.4863 30.6456C44.0172 29.8813 41.5271 30.8399 40.9245 32.7867C40.3218 34.7335 41.8349 36.9313 44.304 37.6956Z" fill="#FEFDF3"/>
<path d="M83.3373 42.4206C79.3673 39.2406 80.9773 34.1007 87.0173 34.3907C88.4973 34.4573 89.874 34.8673 91.1473 35.6206C97.5373 39.3806 87.6173 41.8906 85.2173 42.7306C84.9027 42.8435 84.5648 42.8742 84.2357 42.82C83.9067 42.7657 83.5974 42.6282 83.3373 42.4206Z" fill="#FEFDF3"/>
<path d="M59.1831 41.0032C60.9582 42.1124 63.1588 41.7928 64.0983 40.2893C65.0377 38.7859 64.3603 36.6679 62.5852 35.5587C60.8101 34.4495 58.6095 34.7691 57.6701 36.2725C56.7306 37.776 57.408 39.894 59.1831 41.0032Z" fill="#FEFDF3"/>
<path d="M23.4319 49.183C25.5828 49.5122 27.5473 48.3362 27.8197 46.5565C28.092 44.7768 26.5691 43.0672 24.4181 42.7381C22.2671 42.4089 20.3027 43.5848 20.0303 45.3646C19.758 47.1443 21.2809 48.8539 23.4319 49.183Z" fill="#FAEFDF"/>
<path d="M45.3089 53.9682C47.6726 54.8993 50.232 54.0212 51.0255 52.0068C51.819 49.9925 50.546 47.6048 48.1823 46.6737C45.8185 45.7426 43.2591 46.6207 42.4657 48.635C41.6722 50.6493 42.9452 53.0371 45.3089 53.9682Z" fill="#FEFDF3"/>
<path d="M66.5893 59.1184C68.8794 59.8803 71.2673 58.9005 71.9227 56.9301C72.5782 54.9596 71.2531 52.7447 68.963 51.9829C66.6729 51.2211 64.285 52.2009 63.6296 54.1713C62.9741 56.1417 64.2992 58.3566 66.5893 59.1184Z" fill="#FAEFDF"/>
<path d="M25.4234 64.8893C26.8963 66.4911 29.1119 66.8501 30.3722 65.6912C31.6325 64.5324 31.4601 62.2945 29.9872 60.6927C28.5143 59.091 26.2987 58.7319 25.0384 59.8908C23.7782 61.0497 23.9505 63.2876 25.4234 64.8893Z" fill="#FAEFDF"/>
<path d="M45.5446 68.6594C47.5369 69.6267 49.7972 69.0819 50.5933 67.4424C51.3894 65.8029 50.4198 63.6896 48.4275 62.7223C46.4353 61.7549 44.175 62.2998 43.3789 63.9392C42.5828 65.5787 43.5524 67.692 45.5446 68.6594Z" fill="#FAEFDF"/>
</svg>
