<svg width="85" height="110" viewBox="0 0 85 110" fill="none" xmlns="http://www.w3.org/2000/svg">
<path d="M26.5147 6.13965C21.3347 8.97965 16.7647 12.523 12.8047 16.7696" stroke="#FDE2A1" stroke-width="2"/>
<path d="M12.8037 16.7695C10.8037 17.7629 9.73375 19.3595 9.59375 21.5595" stroke="#F9A297" stroke-width="2"/>
<path d="M9.59219 21.5596C5.48553 28.0862 2.95219 35.0429 1.99219 42.4296" stroke="#F4F4FE" stroke-width="2"/>
<path d="M1.99425 42.4297C-2.22575 62.8697 7.56426 85.7997 20.4743 102" stroke="#BCE8DB" stroke-width="2"/>
<path d="M20.4727 102C24.0393 105.22 28.066 107.06 32.5526 107.52" stroke="#F4F4FE" stroke-width="2"/>
<path d="M32.5547 107.52C39.108 110.02 44.6614 108.856 49.2147 104.03" stroke="#FDE2A1" stroke-width="2"/>
<path d="M49.2117 104.03C64.3717 95.6497 80.8317 80.1197 83.2917 61.3297C84.7917 49.8363 83.8384 38.553 80.4317 27.4797C72.3017 1.03968 50.7117 -4.61032 26.5117 6.13968" stroke="#BCE8DB" stroke-width="2"/>
<path d="M49.2117 104.03C52.3517 95.7296 57.0717 84.9896 57.6417 76.1996C57.8684 72.593 58.4917 69.043 59.5117 65.5497C60.3717 62.5597 58.5317 55.6396 58.0817 52.9396C54.6951 32.7196 44.1717 17.1196 26.5117 6.13965" stroke="#B9CB7D" stroke-width="2"/>
<path d="M32.0947 105.63C33.9747 105.236 35.1714 104.103 35.6847 102.23C35.9647 101.19 36.118 100.633 36.1447 100.56C42.0947 83.1695 44.6647 58.8995 33.8147 42.8195C27.5414 33.5329 20.538 24.8495 12.8047 16.7695" stroke="#F78539" stroke-width="2"/>
<path d="M20.4722 102C23.7422 83.6397 11.7022 60.6797 1.99219 42.4297" stroke="#B1DDDA" stroke-width="2"/>
<path d="M32.0938 105.63C34.7004 97.3562 36.0304 91.8329 36.0837 89.0596C36.6137 61.2796 25.5938 42.8596 9.59375 21.5596" stroke="#EE9795" stroke-width="2"/>
<path d="M49.2156 104.03C52.3556 95.7297 57.0756 84.9897 57.6456 76.1997C57.8723 72.593 58.4956 69.043 59.5156 65.5497C60.3756 62.5597 58.5356 55.6397 58.0856 52.9397C54.699 32.7197 44.1756 17.1197 26.5156 6.13968C50.7156 -4.61032 72.3056 1.03968 80.4356 27.4797C83.8423 38.553 84.7956 49.8363 83.2956 61.3297C80.8356 80.1197 64.3756 95.6497 49.2156 104.03Z" fill="#78D1B7"/>
<path d="M26.5147 6.13965C44.1747 17.1196 54.698 32.7196 58.0847 52.9396C58.5347 55.6396 60.3747 62.5597 59.5147 65.5497C58.4947 69.043 57.8713 72.593 57.6447 76.1996C57.0747 84.9896 52.3547 95.7296 49.2147 104.03C44.6614 108.856 39.108 110.02 32.5547 107.52C31.608 107.08 31.4547 106.45 32.0947 105.63C33.9747 105.236 35.1714 104.103 35.6847 102.23C35.9647 101.19 36.118 100.633 36.1447 100.56C42.0947 83.1696 44.6647 58.8997 33.8147 42.8196C27.5414 33.533 20.538 24.8496 12.8047 16.7696C16.7647 12.523 21.3347 8.97965 26.5147 6.13965Z" fill="#FAC543"/>
<path d="M12.8037 16.7695C20.5371 24.8495 27.5404 33.5329 33.8138 42.8195C44.6637 58.8995 42.0937 83.1695 36.1437 100.56C36.1171 100.633 35.9637 101.19 35.6837 102.23C35.1704 104.103 33.9737 105.236 32.0938 105.63C34.7004 97.3562 36.0304 91.8329 36.0837 89.0595C36.6137 61.2795 25.5938 42.8595 9.59375 21.5595C9.73375 19.3595 10.8037 17.7629 12.8037 16.7695Z" fill="#F3442E"/>
<path d="M9.5961 21.5596C25.5961 42.8596 36.6161 61.2796 36.0861 89.0596C36.0328 91.8329 34.7028 97.3562 32.0961 105.63C31.4561 106.45 31.6094 107.08 32.5561 107.52C28.0694 107.06 24.0428 105.22 20.4761 102C23.7461 83.6396 11.7061 60.6796 1.99609 42.4296C2.95609 35.0429 5.48943 28.0862 9.5961 21.5596Z" fill="#E9E9FC"/>
<path d="M1.99425 42.4297C11.7043 60.6797 23.7443 83.6397 20.4743 102C7.56426 85.7997 -2.22575 62.8697 1.99425 42.4297Z" fill="#78D1B7"/>
</svg>
