<svg width="117" height="192" viewBox="0 0 117 192" fill="none" xmlns="http://www.w3.org/2000/svg">
<path d="M29.2823 134.752L28.1523 137.262" stroke="#BF9C9B" stroke-width="2"/>
<path d="M28.1543 137.262C23.1843 145.812 13.6343 167.772 24.7343 174.742C29.9843 178.042 41.6743 180.712 45.5743 173.902C48.1276 169.435 50.4743 163.652 52.6143 156.552" stroke="#FEBBB1" stroke-width="2"/>
<path d="M52.6133 156.552C53.4133 155.525 53.7732 154.358 53.6932 153.052" stroke="#BF9C9B" stroke-width="2"/>
<path d="M53.6914 153.052L56.0114 147.152" stroke="#FEBBB1" stroke-width="2"/>
<path d="M56.0117 147.152C56.8051 146.612 57.2551 145.578 57.3618 144.052" stroke="#BF9C9B" stroke-width="2"/>
<path d="M57.3614 144.052L60.2714 135.492C60.2884 135.442 60.3186 135.398 60.3588 135.364C60.3991 135.33 60.448 135.307 60.5006 135.298C60.5533 135.289 60.6078 135.294 60.6588 135.312C60.7098 135.33 60.7556 135.361 60.7914 135.402C69.3214 144.812 75.2514 160.022 79.9214 171.762C81.6714 176.142 85.2913 184.622 89.6313 187.362C96.9413 191.982 112.161 193.792 114.821 182.532C116.541 175.292 112.851 167.512 109.031 161.402C102.021 150.222 93.9814 138.932 88.0414 127.522C83.2714 118.382 79.5514 108.952 74.2714 100.062C74.1689 99.8881 74.1083 99.6928 74.0944 99.4914C74.0805 99.2901 74.1137 99.0882 74.1913 98.9019C80.138 84.6019 85.668 70.262 90.7814 55.882C93.9914 46.872 97.8513 38.0719 101.381 29.1519C105.971 17.5319 106.341 4.03198 91.4014 1.31198C79.7714 -0.808019 75.0114 8.24199 71.7914 17.382C66.1714 33.382 60.678 49.3187 55.3113 65.192C54.998 66.1187 54.628 66.142 54.2014 65.262C47.7814 52.132 43.7113 38.5619 38.7513 24.9019C36.1513 17.7219 32.6514 11.622 24.4814 10.472C7.36139 8.06195 -5.61865 18.432 4.63135 36.282C10.998 47.3753 18.4481 59.732 26.9814 73.352C32.5814 82.302 37.9213 92.442 43.6313 101.862C43.7113 101.991 43.7578 102.138 43.7665 102.289C43.7753 102.441 43.746 102.593 43.6814 102.732L29.2814 134.752" stroke="#FEBBB1" stroke-width="2"/>
<path d="M57.3613 144.052C48.1813 140.399 38.8212 137.299 29.2812 134.752" stroke="#BF5953" stroke-width="2"/>
<path d="M56.0123 147.152C46.939 143.318 37.6523 140.022 28.1523 137.262" stroke="#BF5953" stroke-width="2"/>
<path d="M53.6913 153.052C45.3179 151.238 36.9746 149.305 28.6613 147.252C27.7746 147.032 26.5146 147.002 24.8813 147.162C24.7103 147.179 24.5528 147.226 24.4296 147.295C24.3064 147.365 24.2233 147.454 24.1913 147.552C23.8979 148.412 24.018 149.192 24.5513 149.892C24.6202 149.982 24.7285 150.063 24.8685 150.129C25.0085 150.195 25.1768 150.243 25.3613 150.272C34.6213 151.638 43.7046 153.732 52.6113 156.552" stroke="#BF5953" stroke-width="2"/>
<path d="M57.3614 144.052C48.1814 140.399 38.8214 137.299 29.2814 134.752L43.6814 102.732C43.746 102.593 43.7753 102.441 43.7665 102.289C43.7578 102.138 43.7113 101.991 43.6313 101.862C37.9213 92.442 32.5814 82.302 26.9814 73.352C18.4481 59.732 10.998 47.3753 4.63135 36.282C-5.61865 18.432 7.36139 8.06195 24.4814 10.472C32.6514 11.622 36.1513 17.7219 38.7513 24.9019C43.7113 38.5619 47.7814 52.132 54.2014 65.262C54.628 66.142 54.998 66.1187 55.3113 65.192C60.678 49.3187 66.1714 33.382 71.7914 17.382C75.0114 8.24199 79.7714 -0.808019 91.4014 1.31198C106.341 4.03198 105.971 17.5319 101.381 29.1519C97.8513 38.0719 93.9914 46.872 90.7814 55.882C85.668 70.262 80.138 84.6019 74.1913 98.9019C74.1137 99.0882 74.0805 99.2901 74.0944 99.4914C74.1083 99.6928 74.1689 99.8881 74.2714 100.062C79.5514 108.952 83.2714 118.382 88.0414 127.522C93.9814 138.932 102.021 150.222 109.031 161.402C112.851 167.512 116.541 175.292 114.821 182.532C112.161 193.792 96.9413 191.982 89.6313 187.362C85.2914 184.622 81.6714 176.142 79.9214 171.762C75.2514 160.022 69.3214 144.812 60.7914 135.402C60.7556 135.361 60.7098 135.33 60.6588 135.312C60.6078 135.294 60.5533 135.289 60.5006 135.298C60.448 135.307 60.3991 135.33 60.3588 135.364C60.3186 135.398 60.2884 135.442 60.2714 135.492L57.3614 144.052Z" fill="#FE7769"/>
<path d="M57.3624 144.052C57.2557 145.579 56.8057 146.612 56.0123 147.152C46.939 143.319 37.6523 140.022 28.1523 137.262L29.2823 134.752C38.8223 137.299 48.1824 140.399 57.3624 144.052Z" fill="#803A3C"/>
<path d="M28.1543 137.262C37.6543 140.022 46.9409 143.318 56.0143 147.152L53.6943 153.052C45.3209 151.238 36.9776 149.305 28.6643 147.252C27.7776 147.032 26.5176 147.002 24.8843 147.162C24.7132 147.179 24.5558 147.226 24.4326 147.295C24.3094 147.365 24.2263 147.454 24.1943 147.552C23.9009 148.412 24.021 149.192 24.5543 149.892C24.6232 149.982 24.7315 150.063 24.8715 150.129C25.0115 150.195 25.1798 150.243 25.3643 150.272C34.6243 151.638 43.7076 153.732 52.6143 156.552C50.4743 163.652 48.1276 169.435 45.5743 173.902C41.6743 180.712 29.9843 178.042 24.7343 174.742C13.6343 167.772 23.1843 145.812 28.1543 137.262Z" fill="#FE7769"/>
<path d="M53.6913 153.052C53.7713 154.358 53.4113 155.525 52.6113 156.552C43.7047 153.732 34.6213 151.638 25.3613 150.272C25.1768 150.243 25.0085 150.195 24.8685 150.129C24.7285 150.063 24.6202 149.982 24.5513 149.892C24.018 149.192 23.8979 148.412 24.1913 147.552C24.2233 147.454 24.3064 147.365 24.4296 147.295C24.5528 147.226 24.7103 147.179 24.8813 147.162C26.5146 147.002 27.7746 147.032 28.6613 147.252C36.9746 149.305 45.3179 151.238 53.6913 153.052Z" fill="#803A3C"/>
</svg>
