<svg width="149" height="194" viewBox="0 0 149 194" fill="none" xmlns="http://www.w3.org/2000/svg">
<path d="M4.48259 191.471C5.77592 192.044 7.23258 192.328 8.85258 192.321C34.3626 192.151 60.0426 187.181 82.6426 174.961C100.873 165.101 117.923 155.621 129.603 139.081C145.843 116.091 149.713 91.471 146.013 63.781C143.063 41.791 137.533 21.431 127.493 2.58104C126.966 1.59437 126.143 1.07438 125.023 1.02104C121.843 0.874377 118.726 1.49438 115.673 2.88104C101.806 9.15438 88.5993 16.5644 76.0526 25.1111C70.8626 28.6511 65.9726 33.0011 61.0726 37.1711C42.8126 52.6711 27.7526 71.961 16.3626 92.941C0.90256 121.411 -1.35744 157.521 2.89256 189.351C2.95385 189.809 3.13212 190.245 3.41041 190.616C3.6887 190.987 4.0578 191.281 4.48259 191.471Z" stroke="#FFB89D" stroke-width="2"/>
<path d="M24.9525 155.651C26.3125 155.751 27.0658 155.121 27.2125 153.761C29.0825 136.551 34.5525 111.831 47.3225 99.081C67.8625 78.581 96.3725 60.631 97.5325 28.041C97.5411 27.7914 97.5158 27.5551 97.4609 27.3739C97.4059 27.1927 97.325 27.0783 97.2325 27.051L93.2624 25.811C92.1358 25.4577 91.3791 26.031 90.9925 27.531C88.2791 37.991 83.5158 47.1777 76.7024 55.091C62.7924 71.251 43.6925 83.121 33.3225 102.301C25.7525 116.301 19.5325 136.991 21.7525 153.131C21.9658 154.678 23.0325 155.518 24.9525 155.651Z" stroke="#FFB89D" stroke-width="2"/>
<path d="M36.6422 162.321C40.3722 163.881 41.1322 161.391 41.5622 158.321C44.5222 137.491 51.4022 121.781 66.9822 109.261C78.3622 100.111 86.9722 92.8713 95.3422 82.8513C105.292 70.9313 112.372 49.6314 109.712 34.1014C109.179 30.9814 107.452 29.448 104.532 29.5013C104.061 29.5084 103.61 29.6951 103.27 30.0237C102.93 30.3522 102.727 30.7982 102.702 31.2714C102.072 44.2214 98.8422 57.9313 91.3222 68.5913C82.1422 81.6013 69.0322 92.0214 57.3922 102.891C40.4922 118.661 35.4922 138.091 35.4922 160.601C35.4921 160.969 35.6012 161.328 35.8059 161.634C36.0105 161.94 36.3015 162.179 36.6422 162.321Z" stroke="#FFB9A1" stroke-width="2"/>
<path d="M75.8419 143.101C96.6319 122.551 116.682 106.121 120.532 82.7914C122.485 70.9914 123.492 58.5147 123.552 45.3614C123.562 43.4814 122.552 42.6114 120.752 42.7514C120.597 42.7641 120.445 42.8096 120.304 42.8852C120.163 42.9608 120.036 43.0649 119.932 43.1914C117.062 46.6414 117.012 57.5414 115.812 66.1514C113.882 80.1014 110.632 90.4414 101.972 100.241C94.2386 108.988 84.3819 119.131 72.4019 130.671C58.3019 144.241 49.9119 156.961 49.5919 177.311C49.5185 181.611 51.4252 182.915 55.3119 181.221C55.6077 181.093 55.8436 180.857 55.9719 180.561C58.0519 175.861 58.9519 170.361 60.6319 166.311C64.4652 157.078 69.5352 149.341 75.8419 143.101Z" stroke="#FFB89D" stroke-width="2"/>
<path d="M88.2417 163.781L92.0217 164.581C92.1036 164.6 92.2144 164.554 92.336 164.453C92.4576 164.351 92.5829 164.199 92.6917 164.021C98.2817 154.831 104.272 147.961 112.192 138.691C124.242 124.611 132.972 102.681 131.702 84.3014C131.628 83.2414 131.112 82.7547 130.152 82.8414C130.004 82.8541 129.857 82.9047 129.721 82.9893C129.584 83.074 129.462 83.1908 129.362 83.3314C127.935 85.3647 127.125 87.0114 126.932 88.2714C123.652 109.661 113.432 126.991 98.8017 142.551C93.6284 148.051 89.845 154.375 87.4517 161.521C87.3695 161.767 87.3249 162.023 87.3206 162.274C87.3164 162.525 87.3527 162.764 87.4272 162.977C87.5017 163.19 87.6127 163.372 87.753 163.51C87.8933 163.649 88.0598 163.741 88.2417 163.781Z" stroke="#FFB89D" stroke-width="2"/>
<path d="M4.48259 191.472C4.0578 191.282 3.6887 190.987 3.41041 190.616C3.13212 190.245 2.95385 189.81 2.89256 189.352C-1.35744 157.522 0.90256 121.412 16.3626 92.9415C27.7526 71.9615 42.8126 52.6715 61.0726 37.1715C65.9726 33.0015 70.8626 28.6515 76.0526 25.1115C88.5993 16.5649 101.806 9.15487 115.673 2.88153C118.726 1.49487 121.843 0.874865 125.023 1.02153C126.143 1.07487 126.966 1.59486 127.493 2.58153C137.533 21.4315 143.063 41.7915 146.013 63.7815C149.713 91.4715 145.843 116.092 129.603 139.082C117.923 155.622 100.873 165.102 82.6426 174.962C60.0426 187.182 34.3626 192.152 8.85258 192.322C7.23258 192.328 5.77592 192.045 4.48259 191.472ZM24.9526 155.652C26.3126 155.752 27.0659 155.122 27.2126 153.762C29.0826 136.552 34.5526 111.832 47.3226 99.0815C67.8626 78.5815 96.3726 60.6315 97.5326 28.0415C97.5413 27.792 97.5159 27.5556 97.461 27.3744C97.4061 27.1932 97.3252 27.0788 97.2326 27.0515L93.2626 25.8115C92.1359 25.4582 91.3793 26.0315 90.9926 27.5315C88.2793 37.9915 83.5159 47.1782 76.7026 55.0915C62.7926 71.2515 43.6926 83.1215 33.3226 102.302C25.7526 116.302 19.5326 136.992 21.7526 153.132C21.9659 154.678 23.0326 155.518 24.9526 155.652ZM36.6426 162.322C40.3726 163.882 41.1326 161.392 41.5626 158.322C44.5226 137.492 51.4026 121.782 66.9826 109.262C78.3626 100.112 86.9726 92.8715 95.3426 82.8515C105.293 70.9315 112.373 49.6315 109.713 34.1015C109.179 30.9815 107.453 29.4482 104.533 29.5015C104.061 29.5086 103.61 29.6953 103.27 30.0238C102.931 30.3524 102.728 30.7984 102.703 31.2715C102.073 44.2215 98.8426 57.9315 91.3226 68.5915C82.1426 81.6015 69.0326 92.0215 57.3926 102.892C40.4926 118.662 35.4926 138.092 35.4926 160.602C35.4925 160.969 35.6016 161.328 35.8063 161.634C36.0109 161.94 36.3019 162.179 36.6426 162.322ZM75.8426 143.102C96.6326 122.552 116.683 106.122 120.533 82.7915C122.486 70.9915 123.493 58.5149 123.553 45.3615C123.563 43.4815 122.553 42.6115 120.753 42.7515C120.598 42.7643 120.445 42.8098 120.304 42.8854C120.164 42.9609 120.037 43.065 119.933 43.1915C117.063 46.6415 117.013 57.5415 115.813 66.1515C113.883 80.1015 110.633 90.4415 101.973 100.242C94.2393 108.988 84.3826 119.132 72.4026 130.672C58.3026 144.242 49.9126 156.962 49.5926 177.312C49.5192 181.612 51.4259 182.915 55.3126 181.222C55.6084 181.093 55.8443 180.857 55.9726 180.562C58.0526 175.862 58.9526 170.362 60.6326 166.312C64.4659 157.078 69.5359 149.342 75.8426 143.102ZM88.2426 163.782L92.0226 164.582C92.1045 164.6 92.2153 164.555 92.3369 164.453C92.4585 164.351 92.5838 164.199 92.6926 164.022C98.2825 154.832 104.273 147.962 112.193 138.692C124.243 124.612 132.973 102.682 131.703 84.3015C131.629 83.2415 131.113 82.7549 130.153 82.8415C130.005 82.8543 129.858 82.9048 129.722 82.9895C129.585 83.0742 129.463 83.191 129.363 83.3315C127.936 85.3649 127.126 87.0115 126.933 88.2715C123.653 109.662 113.433 126.992 98.8026 142.552C93.6293 148.052 89.8459 154.375 87.4526 161.522C87.3704 161.767 87.3257 162.023 87.3215 162.274C87.3173 162.525 87.3536 162.764 87.4281 162.977C87.5025 163.19 87.6135 163.372 87.7538 163.511C87.8941 163.649 88.0606 163.741 88.2426 163.782Z" fill="#FF7347"/>
<path d="M24.9525 155.651C23.0325 155.518 21.9658 154.678 21.7525 153.132C19.5325 136.992 25.7525 116.302 33.3225 102.302C43.6925 83.1215 62.7924 71.2515 76.7024 55.0915C83.5158 47.1782 88.2791 37.9915 90.9925 27.5315C91.3791 26.0315 92.1358 25.4582 93.2624 25.8115L97.2325 27.0515C97.325 27.0788 97.4059 27.1932 97.4609 27.3744C97.5158 27.5556 97.5411 27.7919 97.5325 28.0415C96.3725 60.6315 67.8625 78.5815 47.3225 99.0815C34.5525 111.832 29.0825 136.552 27.2125 153.762C27.0658 155.122 26.3125 155.751 24.9525 155.651Z" fill="#FEFDF3"/>
<path d="M36.6422 162.321C36.3015 162.179 36.0105 161.94 35.8059 161.634C35.6012 161.328 35.4921 160.969 35.4922 160.601C35.4922 138.091 40.4922 118.661 57.3922 102.891C69.0322 92.0214 82.1422 81.6013 91.3222 68.5913C98.8422 57.9313 102.072 44.2214 102.702 31.2714C102.727 30.7982 102.93 30.3522 103.27 30.0237C103.61 29.6951 104.061 29.5084 104.532 29.5013C107.452 29.448 109.179 30.9814 109.712 34.1014C112.372 49.6314 105.292 70.9314 95.3422 82.8513C86.9722 92.8713 78.3622 100.111 66.9822 109.261C51.4022 121.781 44.5222 137.491 41.5622 158.321C41.1322 161.391 40.3722 163.881 36.6422 162.321Z" fill="#FFFEFB"/>
<path d="M75.8419 143.101C69.5352 149.341 64.4652 157.078 60.6319 166.311C58.9519 170.361 58.0519 175.861 55.9719 180.561C55.8436 180.857 55.6077 181.093 55.3119 181.221C51.4252 182.915 49.5185 181.611 49.5919 177.311C49.9119 156.961 58.3019 144.241 72.4019 130.671C84.3819 119.131 94.2386 108.988 101.972 100.241C110.632 90.4414 113.882 80.1014 115.812 66.1514C117.012 57.5414 117.062 46.6414 119.932 43.1914C120.036 43.0649 120.163 42.9608 120.304 42.8852C120.445 42.8096 120.597 42.7641 120.752 42.7514C122.552 42.6114 123.562 43.4814 123.552 45.3614C123.492 58.5147 122.485 70.9914 120.532 82.7914C116.682 106.121 96.6319 122.551 75.8419 143.101Z" fill="#FEFDF3"/>
<path d="M88.2417 163.781C88.0598 163.741 87.8933 163.649 87.753 163.51C87.6127 163.372 87.5017 163.19 87.4272 162.977C87.3527 162.764 87.3164 162.525 87.3206 162.274C87.3249 162.023 87.3695 161.767 87.4517 161.521C89.845 154.375 93.6284 148.051 98.8017 142.551C113.432 126.991 123.652 109.661 126.932 88.2714C127.125 87.0114 127.935 85.3647 129.362 83.3314C129.462 83.1908 129.584 83.074 129.721 82.9893C129.857 82.9047 130.004 82.8541 130.152 82.8414C131.112 82.7547 131.628 83.2414 131.702 84.3014C132.972 102.681 124.242 124.611 112.192 138.691C104.272 147.961 98.2817 154.831 92.6917 164.021C92.5829 164.199 92.4576 164.351 92.336 164.453C92.2144 164.554 92.1036 164.6 92.0217 164.581L88.2417 163.781Z" fill="#FEFDF3"/>
</svg>
