<svg width="163" height="171" viewBox="0 0 163 171" fill="none" xmlns="http://www.w3.org/2000/svg">
<path d="M1.44922 93.9785C2.11589 103.312 4.10254 113.895 7.40921 125.729C8.61588 130.035 10.5092 133.422 13.0892 135.889" stroke="#FEC7BA" stroke-width="2"/>
<path d="M13.0898 135.889C16.7832 141.275 21.0299 146.265 25.8299 150.859C36.0799 160.689 51.2099 166.939 65.1898 168.639C72.7298 169.549 83.1499 170.639 90.4499 168.369C93.7499 167.339 97.2898 167.129 100.34 166.299C109.57 163.769 117.73 161.699 125.78 155.809" stroke="#FEE0D0" stroke-width="2"/>
<path d="M125.781 155.808C126.801 155.442 127.595 154.985 128.161 154.438" stroke="#FFBBAE" stroke-width="2"/>
<path d="M128.159 154.439C126.499 147.545 124.809 140.649 123.089 133.749C122.839 132.739 121.979 131.949 121.309 133.289C121.187 133.533 121.162 133.875 121.239 134.249L125.779 155.809" stroke="#FF9D82" stroke-width="2"/>
<path d="M13.0892 135.889C8.81587 122.289 5.6692 109.572 3.6492 97.7385C3.3492 95.9719 2.61589 94.7185 1.44922 93.9785" stroke="#FEA98E" stroke-width="2"/>
<path d="M125.583 67.0486C127.943 67.1686 122.143 36.4585 121.503 33.4585C120.649 29.4452 119.259 25.6185 117.333 21.9785C116.303 20.0285 116.673 22.6085 116.723 22.7685C121.373 37.0485 122.703 51.6186 124.573 66.1186C124.607 66.368 124.727 66.5975 124.911 66.7673C125.096 66.9372 125.333 67.0366 125.583 67.0486Z" stroke="#FEA98E" stroke-width="2"/>
<path d="M66.6241 24.7642C66.5987 24.598 66.5407 24.4385 66.4537 24.2947C66.3666 24.1509 66.252 24.0257 66.1166 23.9262C65.9811 23.8266 65.8274 23.7548 65.6641 23.7147C65.5009 23.6746 65.3313 23.667 65.1652 23.6925L65.1059 23.7016C64.7703 23.7529 64.4689 23.9355 64.2679 24.2091C64.067 24.4827 63.9829 24.8249 64.0343 25.1605L67.2743 46.334C67.2997 46.5001 67.3576 46.6597 67.4447 46.8034C67.5317 46.9472 67.6463 47.0724 67.7818 47.172C67.9172 47.2715 68.071 47.3433 68.2342 47.3834C68.3975 47.4235 68.567 47.4311 68.7332 47.4057L68.7925 47.3966C69.128 47.3452 69.4295 47.1626 69.6304 46.8891C69.8314 46.6155 69.9154 46.2732 69.8641 45.9377L66.6241 24.7642Z" stroke="#FEA98E" stroke-width="2"/>
<path d="M89.5096 26.319C91.4963 32.6257 93.113 39.019 94.3596 45.499C94.6096 46.789 95.6496 49.339 96.3696 50.069C97.8096 51.5357 98.3496 51.2557 97.9896 49.229C96.5563 41.2224 94.2763 33.479 91.1496 25.999C90.6996 24.919 88.6596 23.619 89.5096 26.319Z" stroke="#FEA98E" stroke-width="2"/>
<path d="M32.1295 29.1088C31.8144 29.6676 31.7216 30.3246 31.8694 30.9488C35.3394 45.0388 40.6095 60.4988 41.6695 73.7288C41.9895 77.7954 42.4328 80.9821 42.9994 83.2888C43.0794 83.6221 43.1961 83.6321 43.3495 83.3188C48.0395 73.9188 36.2294 40.5688 32.9294 29.7288C32.6628 28.8488 32.3961 28.6421 32.1295 29.1088Z" stroke="#FFA48B" stroke-width="2"/>
<path d="M150.872 92.8192C150.876 92.897 150.898 92.9727 150.937 93.04C150.976 93.1073 151.031 93.164 151.097 93.2053C151.163 93.2467 151.238 93.2713 151.316 93.2772C151.393 93.2832 151.471 93.2701 151.542 93.2393C157.372 90.7293 142.612 51.1192 140.512 45.6492C139.202 42.2292 139.182 45.6692 139.532 46.6792C144.752 61.3092 150.332 77.1092 150.872 92.8192Z" stroke="#FEA98E" stroke-width="2"/>
<path d="M58.663 73.6889C56.873 86.6589 63.0331 99.5689 76.1731 103.389C84.9931 105.939 92.573 105.789 100.133 100.199C106.893 95.2189 111.883 87.7789 112.853 79.2889C114.533 64.6289 105.423 58.8789 92.913 54.0389C80.883 49.3789 66.453 55.1789 61.183 66.9789C59.643 70.4189 58.803 72.6556 58.663 73.6889Z" stroke="#8F7473" stroke-width="2"/>
<path d="M18.6223 61.0891C15.0323 57.7291 19.9823 82.9992 20.6223 86.0492C22.609 95.5425 24.5857 105.046 26.5523 114.559C26.582 114.715 26.659 114.855 26.7692 114.954C26.8793 115.053 27.0153 115.105 27.1523 115.099C29.2523 115.029 22.9223 87.1892 21.6223 81.9892C20.5756 77.7892 19.699 71.1158 18.9923 61.9692C18.9606 61.5968 18.8277 61.2808 18.6223 61.0891Z" stroke="#FFA188" stroke-width="2"/>
<path d="M137.971 125.769C137.841 110.659 133.391 96.049 128.971 81.739C128.771 81.079 128.091 80.209 127.451 81.039C127.367 81.1474 127.311 81.2861 127.289 81.4441C127.266 81.6021 127.277 81.775 127.321 81.949C130.421 95.059 135.241 110.389 136.351 125.769C136.471 127.389 137.981 127.519 137.971 125.769Z" stroke="#FEA98E" stroke-width="2"/>
<path d="M99.4629 133.199C103.873 132.369 115.923 131.779 118.893 128.699C124.533 122.859 111.043 125.299 108.483 125.849C89.8229 129.839 70.7629 132.759 51.8929 135.699C49.8029 136.019 45.0929 137.869 49.1629 140.289C53.1429 142.649 69.2529 139.269 74.1829 138.089C75.7762 137.709 76.7762 138.312 77.1829 139.899C77.5929 141.509 77.8929 147.069 81.2729 145.499C81.4185 145.429 81.5431 145.321 81.6344 145.186C81.7257 145.05 81.7803 144.893 81.7929 144.729C81.9596 142.389 81.5595 140.145 80.5929 137.999C80.5442 137.893 80.5204 137.778 80.5232 137.661C80.5261 137.545 80.5556 137.43 80.6095 137.326C80.6634 137.223 80.7403 137.132 80.8344 137.061C80.9285 136.991 81.0374 136.942 81.1529 136.919L93.3429 134.379C93.5158 134.341 93.6929 134.358 93.8367 134.425C93.9804 134.493 94.0795 134.605 94.1129 134.739L95.4429 140.459C95.4896 140.657 95.5689 140.845 95.6762 141.013C95.7836 141.18 95.9169 141.324 96.0684 141.435C96.22 141.547 96.3868 141.624 96.5592 141.663C96.7316 141.701 96.9062 141.7 97.0729 141.659C98.1729 141.392 99.0429 140.842 99.6829 140.009C99.7155 139.975 99.7303 139.855 99.7249 139.669C99.7195 139.482 99.6941 139.239 99.6529 138.979L98.7629 133.669C98.7486 133.581 98.8139 133.482 98.9448 133.394C99.0758 133.306 99.2618 133.236 99.4629 133.199Z" stroke="#8D7170" stroke-width="2"/>
<path d="M61.9414 159.358C62.6714 159.778 63.2114 157.728 63.1814 157.228C62.9014 152.202 61.798 147.365 59.8714 142.718C59.7879 142.51 59.6761 142.329 59.5498 142.197C59.4235 142.065 59.2884 141.989 59.1614 141.978C58.8014 141.938 58.458 142.022 58.1314 142.228C58.0462 142.279 57.9888 142.408 57.9688 142.596C57.9488 142.783 57.9673 143.017 58.0214 143.258L61.4314 158.478C61.4776 158.689 61.5481 158.878 61.6368 159.031C61.7255 159.185 61.8299 159.297 61.9414 159.358Z" stroke="#FFA188" stroke-width="2"/>
<path d="M98.5921 150.039C99.4454 154.399 100.019 158.799 100.312 163.239C100.324 163.393 100.38 163.539 100.47 163.658C100.561 163.777 100.684 163.864 100.822 163.909C102.582 164.489 103.205 163.845 102.692 161.979C102.265 160.445 101.339 156.142 99.9121 149.069C99.4121 146.629 97.9221 146.609 98.5921 150.039Z" stroke="#FF9A7E" stroke-width="2"/>
<path d="M128.161 154.439C126.501 147.546 124.811 140.649 123.091 133.749C122.841 132.739 121.981 131.949 121.311 133.289C121.188 133.533 121.164 133.875 121.241 134.249L125.781 155.809C117.731 161.699 109.571 163.769 100.341 166.299C97.2907 167.129 93.7507 167.339 90.4507 168.369C83.1507 170.639 72.7307 169.549 65.1907 168.639C51.2107 166.939 36.0807 160.689 25.8307 150.859C21.0307 146.266 16.784 141.276 13.0907 135.889C8.81734 122.289 5.67067 109.572 3.65067 97.7389C3.35067 95.9722 2.61735 94.7189 1.45069 93.9789C0.184021 82.4389 1.58735 71.6056 5.66068 61.4789C12.9507 43.3489 27.3507 21.3789 44.6407 11.1589C64.3007 -0.4711 89.7207 -2.68109 111.401 2.99891C130.851 8.08891 150.221 26.6589 156.501 46.0389C161.447 61.2789 163.151 76.0956 161.611 90.4889C159.941 106.099 153.461 118.919 145.161 131.929C140.561 139.129 136.171 150.089 128.161 154.439ZM125.581 67.0489C127.941 67.1689 122.141 36.4589 121.501 33.4589C120.647 29.4456 119.257 25.6189 117.331 21.9789C116.301 20.0289 116.671 22.6089 116.721 22.7689C121.371 37.0489 122.701 51.6189 124.571 66.1189C124.605 66.3684 124.725 66.5979 124.91 66.7677C125.094 66.9375 125.331 67.037 125.581 67.0489ZM66.6256 24.764C66.6002 24.5978 66.5423 24.4383 66.4552 24.2945C66.3681 24.1507 66.2536 24.0255 66.1181 23.926C65.9826 23.8265 65.8289 23.7546 65.6656 23.7145C65.5024 23.6744 65.3329 23.6669 65.1667 23.6923L65.1074 23.7014C64.7718 23.7528 64.4704 23.9353 64.2694 24.2089C64.0685 24.4825 63.9844 24.8247 64.0358 25.1603L67.2758 46.3338C67.3012 46.5 67.3591 46.6595 67.4462 46.8033C67.5332 46.9471 67.6478 47.0723 67.7833 47.1718C67.9187 47.2713 68.0725 47.3432 68.2357 47.3833C68.399 47.4234 68.5685 47.4309 68.7347 47.4055L68.794 47.3964C69.1295 47.345 69.431 47.1625 69.6319 46.8889C69.8329 46.6153 69.9169 46.2731 69.8656 45.9375L66.6256 24.764ZM89.5107 26.3189C91.4974 32.6256 93.114 39.0189 94.3607 45.4989C94.6107 46.7889 95.6507 49.3389 96.3707 50.0689C97.8107 51.5356 98.3507 51.2556 97.9907 49.2289C96.5573 41.2222 94.2773 33.4789 91.1507 25.9989C90.7007 24.9189 88.6607 23.6189 89.5107 26.3189ZM32.1307 29.1089C31.8157 29.6677 31.7228 30.3247 31.8707 30.9489C35.3407 45.0389 40.6107 60.4989 41.6707 73.7289C41.9907 77.7956 42.434 80.9822 43.0007 83.2889C43.0807 83.6222 43.1973 83.6322 43.3507 83.3189C48.0407 73.9189 36.2307 40.5689 32.9307 29.7289C32.664 28.8489 32.3973 28.6422 32.1307 29.1089ZM150.871 92.8189C150.874 92.8966 150.896 92.9724 150.935 93.0397C150.974 93.1069 151.029 93.1637 151.095 93.205C151.161 93.2463 151.236 93.271 151.314 93.2769C151.391 93.2828 151.469 93.2698 151.541 93.2389C157.371 90.7289 142.611 51.1189 140.511 45.6489C139.201 42.2289 139.181 45.6689 139.531 46.6789C144.751 61.3089 150.331 77.1089 150.871 92.8189ZM58.6607 73.6889C56.8707 86.6589 63.0307 99.5689 76.1707 103.389C84.9907 105.939 92.5707 105.789 100.131 100.199C106.891 95.2189 111.881 87.7789 112.851 79.2889C114.531 64.6289 105.421 58.8789 92.9107 54.0389C80.8807 49.3789 66.4507 55.1789 61.1807 66.9789C59.6407 70.4189 58.8007 72.6556 58.6607 73.6889ZM18.6207 61.0889C15.0307 57.7289 19.9807 82.9989 20.6207 86.0489C22.6073 95.5422 24.584 105.046 26.5507 114.559C26.5804 114.715 26.6573 114.855 26.7675 114.954C26.8777 115.053 27.0137 115.105 27.1507 115.099C29.2507 115.029 22.9207 87.1889 21.6207 81.9889C20.574 77.7889 19.6973 71.1156 18.9907 61.9689C18.9589 61.5966 18.8261 61.2806 18.6207 61.0889ZM137.971 125.769C137.841 110.659 133.391 96.0489 128.971 81.7389C128.771 81.0789 128.091 80.2089 127.451 81.0389C127.367 81.1473 127.311 81.286 127.289 81.444C127.266 81.602 127.277 81.7749 127.321 81.9489C130.421 95.0589 135.241 110.389 136.351 125.769C136.471 127.389 137.981 127.519 137.971 125.769ZM99.4607 133.199C103.871 132.369 115.921 131.779 118.891 128.699C124.531 122.859 111.041 125.299 108.481 125.849C89.8207 129.839 70.7607 132.759 51.8907 135.699C49.8007 136.019 45.0907 137.869 49.1607 140.289C53.1407 142.649 69.2507 139.269 74.1807 138.089C75.774 137.709 76.774 138.312 77.1807 139.899C77.5907 141.509 77.8907 147.069 81.2707 145.499C81.4163 145.429 81.5409 145.321 81.6322 145.186C81.7235 145.051 81.7781 144.893 81.7907 144.729C81.9574 142.389 81.5573 140.146 80.5907 137.999C80.542 137.893 80.5182 137.778 80.521 137.661C80.5239 137.545 80.5534 137.431 80.6073 137.327C80.6612 137.223 80.7381 137.132 80.8322 137.061C80.9263 136.991 81.0352 136.942 81.1507 136.919L93.3407 134.379C93.5136 134.342 93.6907 134.358 93.8344 134.426C93.9782 134.493 94.0773 134.605 94.1107 134.739L95.4407 140.459C95.4874 140.657 95.5667 140.845 95.674 141.013C95.7814 141.18 95.9147 141.324 96.0662 141.436C96.2178 141.547 96.3846 141.624 96.557 141.663C96.7294 141.701 96.904 141.7 97.0707 141.659C98.1707 141.392 99.0407 140.842 99.6807 140.009C99.7133 139.975 99.7281 139.856 99.7227 139.669C99.7173 139.482 99.6919 139.239 99.6507 138.979L98.7607 133.669C98.7464 133.581 98.8117 133.482 98.9426 133.394C99.0736 133.307 99.2596 133.236 99.4607 133.199ZM61.9407 159.359C62.6707 159.779 63.2107 157.729 63.1807 157.229C62.9007 152.202 61.7973 147.366 59.8707 142.719C59.7872 142.51 59.6754 142.329 59.5491 142.197C59.4228 142.066 59.2877 141.99 59.1607 141.979C58.8007 141.939 58.4573 142.022 58.1307 142.229C58.0455 142.279 57.9881 142.409 57.9681 142.596C57.9481 142.783 57.9666 143.017 58.0207 143.259L61.4307 158.479C61.477 158.689 61.5474 158.879 61.6361 159.032C61.7248 159.185 61.8293 159.297 61.9407 159.359ZM98.5907 150.039C99.444 154.399 100.017 158.799 100.311 163.239C100.323 163.393 100.378 163.539 100.469 163.658C100.56 163.778 100.682 163.865 100.821 163.909C102.581 164.489 103.204 163.846 102.691 161.979C102.264 160.446 101.337 156.142 99.9107 149.069C99.4107 146.629 97.9207 146.609 98.5907 150.039Z" fill="#FEC2A4"/>
<path d="M125.579 67.0486C125.329 67.0366 125.092 66.9372 124.908 66.7673C124.723 66.5975 124.603 66.368 124.569 66.1186C122.699 51.6186 121.369 37.0485 116.719 22.7685C116.669 22.6085 116.299 20.0285 117.329 21.9785C119.255 25.6185 120.645 29.4452 121.499 33.4585C122.139 36.4585 127.939 67.1686 125.579 67.0486Z" fill="#FE9077"/>
<path d="M65.1644 23.6918L65.1051 23.7009C64.4063 23.8078 63.9265 24.461 64.0335 25.1598L67.2735 46.3333C67.3804 47.0321 68.0336 47.5119 68.7324 47.405L68.7917 47.3959C69.4905 47.289 69.9702 46.6358 69.8633 45.937L66.6233 24.7635C66.5164 24.0647 65.8632 23.5849 65.1644 23.6918Z" fill="#FE9077"/>
<path d="M89.5096 26.318C88.6596 23.618 90.6996 24.9181 91.1496 25.9981C94.2763 33.4781 96.5563 41.2214 97.9896 49.2281C98.3496 51.2547 97.8096 51.5347 96.3696 50.0681C95.6496 49.3381 94.6096 46.7881 94.3596 45.4981C93.113 39.0181 91.4963 32.6247 89.5096 26.318Z" fill="#FE9077"/>
<path d="M32.1295 29.1088C32.3961 28.6421 32.6628 28.8488 32.9294 29.7288C36.2294 40.5688 48.0395 73.9188 43.3495 83.3188C43.1961 83.6321 43.0794 83.6221 42.9994 83.2888C42.4328 80.9821 41.9895 77.7954 41.6695 73.7288C40.6095 60.4988 35.3394 45.0388 31.8694 30.9488C31.7216 30.3246 31.8144 29.6676 32.1295 29.1088Z" fill="#FF8571"/>
<path d="M150.869 92.8183C150.329 77.1083 144.749 61.3083 139.529 46.6783C139.179 45.6683 139.199 42.2283 140.509 45.6483C142.609 51.1183 157.369 90.7283 151.539 93.2383C151.467 93.2691 151.389 93.2822 151.312 93.2763C151.234 93.2704 151.159 93.2457 151.093 93.2044C151.027 93.163 150.972 93.1063 150.933 93.039C150.894 92.9718 150.872 92.896 150.869 92.8183Z" fill="#FE9077"/>
<path d="M76.1691 103.389C63.0291 99.5689 56.8691 86.6589 58.6591 73.6889C58.7991 72.6556 59.6391 70.4189 61.1791 66.9789C66.4491 55.1789 80.8791 49.3789 92.9091 54.0389C105.419 58.8789 114.529 64.6289 112.849 79.2889C111.879 87.7789 106.889 95.2189 100.129 100.199C92.5691 105.789 84.9891 105.939 76.1691 103.389Z" fill="#202641"/>
<path d="M20.6184 86.0482C19.9784 82.9982 15.0284 57.7282 18.6184 61.0882C18.8238 61.2798 18.9567 61.5958 18.9884 61.9682C19.6951 71.1148 20.5717 77.7882 21.6184 81.9882C22.9184 87.1882 29.2484 115.028 27.1484 115.098C27.0114 115.104 26.8754 115.052 26.7653 114.953C26.6551 114.854 26.5781 114.714 26.5484 114.558C24.5818 105.045 22.6051 95.5415 20.6184 86.0482Z" fill="#FF806B"/>
<path d="M137.971 125.769C137.981 127.519 136.471 127.389 136.351 125.769C135.241 110.389 130.421 95.059 127.321 81.949C127.277 81.775 127.266 81.6021 127.289 81.4441C127.311 81.2861 127.367 81.1474 127.451 81.039C128.091 80.209 128.771 81.079 128.971 81.739C133.391 96.049 137.841 110.659 137.971 125.769Z" fill="#FE9077"/>
<path d="M1.44922 93.9785C2.61589 94.7185 3.3492 95.9719 3.6492 97.7385C5.6692 109.572 8.81587 122.289 13.0892 135.889C10.5092 133.422 8.61588 130.035 7.40921 125.729C4.10254 113.895 2.11589 103.312 1.44922 93.9785Z" fill="#FE9077"/>
<path d="M98.759 133.669L99.649 138.979C99.6902 139.239 99.7155 139.482 99.721 139.669C99.7264 139.855 99.7116 139.975 99.679 140.009C99.039 140.842 98.169 141.392 97.069 141.659C96.9023 141.7 96.7276 141.701 96.5552 141.663C96.3829 141.624 96.2161 141.547 96.0645 141.435C95.913 141.324 95.7797 141.18 95.6723 141.013C95.5649 140.845 95.4856 140.657 95.439 140.459L94.109 134.739C94.0756 134.605 93.9765 134.493 93.8327 134.425C93.689 134.358 93.5119 134.341 93.339 134.379L81.149 136.919C81.0335 136.942 80.9246 136.991 80.8305 137.061C80.7364 137.132 80.6595 137.223 80.6056 137.326C80.5517 137.43 80.5222 137.545 80.5193 137.661C80.5165 137.778 80.5403 137.893 80.589 137.999C81.5556 140.145 81.9557 142.389 81.789 144.729C81.7764 144.893 81.7218 145.05 81.6305 145.186C81.5392 145.321 81.4145 145.429 81.269 145.499C77.889 147.069 77.589 141.509 77.179 139.899C76.7723 138.312 75.7723 137.709 74.179 138.089C69.249 139.269 53.139 142.649 49.159 140.289C45.089 137.869 49.799 136.019 51.889 135.699C70.759 132.759 89.819 129.839 108.479 125.849C111.039 125.299 124.529 122.859 118.889 128.699C115.919 131.779 103.869 132.369 99.459 133.199C99.2579 133.236 99.0719 133.306 98.9409 133.394C98.81 133.482 98.7447 133.581 98.759 133.669Z" fill="#1B203C"/>
<path d="M128.159 154.439C127.593 154.985 126.799 155.442 125.779 155.809L121.239 134.249C121.162 133.875 121.187 133.533 121.309 133.289C121.979 131.949 122.839 132.739 123.089 133.749C124.809 140.649 126.499 147.545 128.159 154.439Z" fill="#FF7760"/>
<path d="M63.1814 157.228C63.2114 157.728 62.6714 159.778 61.9414 159.358C61.8299 159.297 61.7255 159.185 61.6368 159.031C61.5481 158.878 61.4776 158.689 61.4314 158.478L58.0214 143.258C57.9673 143.017 57.9488 142.783 57.9688 142.596C57.9888 142.408 58.0462 142.279 58.1314 142.228C58.458 142.022 58.8014 141.938 59.1614 141.978C59.2884 141.989 59.4235 142.065 59.5498 142.197C59.6761 142.329 59.7879 142.51 59.8714 142.718C61.798 147.365 62.9014 152.202 63.1814 157.228Z" fill="#FF806B"/>
<path d="M98.5882 150.039C97.9182 146.609 99.4082 146.629 99.9082 149.069C101.335 156.142 102.262 160.445 102.688 161.979C103.202 163.845 102.578 164.489 100.818 163.909C100.68 163.864 100.557 163.777 100.466 163.658C100.376 163.539 100.321 163.393 100.308 163.239C100.015 158.799 99.4415 154.399 98.5882 150.039Z" fill="#FF7157"/>
</svg>
