<svg width="109" height="121" viewBox="0 0 109 121" fill="none" xmlns="http://www.w3.org/2000/svg">
<path d="M95.4286 71.4383C91.1686 57.1783 93.7286 49.0084 74.4886 49.4584C74.343 49.4617 74.2002 49.4202 74.0801 49.3395C73.96 49.2589 73.8685 49.1431 73.8186 49.0084C71.9586 43.9384 70.7786 40.2884 67.7686 36.9784C63.1886 31.9184 52.0186 31.8084 50.5886 24.6584C48.4986 14.2484 45.5986 -1.31161 30.7886 1.28839C16.6986 3.75839 15.1486 26.5584 15.9986 37.4784C16.1186 39.0517 16.8119 40.7017 18.0786 42.4284C22.9286 49.0684 30.3486 47.4384 33.2286 56.9584C34.7286 61.945 35.3453 66.9951 35.0786 72.1084C34.9919 73.7617 34.2053 74.955 32.7186 75.6883C30.3519 76.8617 27.8719 77.6184 25.2786 77.9584C11.9186 79.7284 5.88858 90.4084 1.98858 102.138C-0.321416 109.078 1.21858 116.458 8.71858 118.868C18.1586 121.908 29.6686 118.428 36.8986 112.588C37.0101 112.498 37.1472 112.444 37.2906 112.435C37.434 112.426 37.5766 112.462 37.6986 112.538C49.8786 120.128 67.4586 120.168 72.6686 103.838C72.7123 103.701 72.7878 103.577 72.889 103.475C72.9902 103.372 73.1143 103.295 73.2514 103.25C73.3885 103.204 73.5347 103.191 73.6784 103.212C73.822 103.232 73.9591 103.286 74.0786 103.368C76.2686 104.898 78.7586 106.678 81.2686 107.388C94.0586 110.988 103.649 96.3984 106.579 85.7384C107.679 81.7317 106.999 78.405 104.539 75.7584C102.579 73.6584 98.8086 73.1584 96.0286 72.0884C95.8852 72.0325 95.7565 71.9449 95.6525 71.8322C95.5485 71.7195 95.4719 71.5848 95.4286 71.4383Z" stroke="#8B8EA0" stroke-width="2"/>
<path d="M90.901 78.8688C89.881 78.3821 89.1843 77.4855 88.811 76.1788C87.311 71.0088 87.351 63.0888 83.831 59.4288C82.6843 58.2355 81.281 57.6554 79.621 57.6888C70.831 57.8788 67.671 59.2488 65.041 49.5488C63.491 43.8488 60.371 40.5288 54.811 38.7188C50.621 37.3688 46.941 35.2988 45.331 30.8488C43.461 25.7088 38.311 5.03877 29.711 10.4488C23.921 14.0788 22.031 28.2988 22.821 34.4088C23.611 40.5688 32.491 41.9788 34.971 44.4988C41.341 50.9588 42.091 61.7588 42.281 70.1988C42.651 87.1388 31.231 82.1288 20.011 88.1588C14.441 91.1388 11.801 96.8588 10.111 103.489C9.401 106.299 9.801 111.949 13.251 112.519C22.091 113.979 29.361 110.109 37.001 105.679C37.3758 105.461 37.8036 105.349 38.2387 105.357C38.6738 105.364 39.0997 105.489 39.471 105.719C45.451 109.429 56.451 113.599 62.811 108.749C65.891 106.399 67.931 101.279 70.181 97.6188C71.3943 95.6455 72.791 95.5054 74.371 97.1988C78.211 101.329 83.341 102.489 88.811 101.839C95.311 101.059 99.171 89.3488 99.851 83.9588C99.8795 83.7377 99.8417 83.5152 99.7429 83.323C99.6442 83.1309 99.4895 82.9789 99.301 82.8888L90.901 78.8688Z" stroke="#8B8EA0" stroke-width="2"/>
<path d="M96.0325 72.0889C98.8125 73.1589 102.582 73.6588 104.542 75.7588C107.002 78.4055 107.682 81.7322 106.582 85.7389C103.652 96.3989 94.0625 110.989 81.2725 107.389C78.7625 106.679 76.2725 104.899 74.0825 103.369C73.963 103.286 73.8259 103.233 73.6823 103.212C73.5386 103.191 73.3924 103.204 73.2553 103.25C73.1182 103.296 72.9941 103.373 72.8929 103.475C72.7917 103.577 72.7162 103.702 72.6725 103.839C67.4625 120.169 49.8825 120.129 37.7025 112.539C37.5805 112.463 37.4379 112.427 37.2945 112.436C37.1511 112.445 37.014 112.498 36.9025 112.589C29.6725 118.429 18.1625 121.909 8.72249 118.869C1.22249 116.459 -0.31751 109.079 1.99249 102.139C5.89249 90.4088 11.9225 79.7289 25.2825 77.9589C27.8758 77.6189 30.3558 76.8622 32.7225 75.6888C34.2092 74.9555 34.9958 73.7622 35.0825 72.1089C35.3492 66.9955 34.7325 61.9455 33.2325 56.9589C30.3525 47.4389 22.9325 49.0689 18.0825 42.4289C16.8158 40.7022 16.1225 39.0522 16.0025 37.4789C15.1525 26.5589 16.7025 3.75887 30.7925 1.28887C45.6025 -1.31113 48.5025 14.2489 50.5925 24.6589C52.0225 31.8089 63.1925 31.9189 67.7725 36.9789C70.7825 40.2889 71.9625 43.9388 73.8225 49.0088C73.8724 49.1436 73.9639 49.2594 74.084 49.34C74.2041 49.4207 74.3469 49.4622 74.4925 49.4589C93.7325 49.0089 91.1725 57.1788 95.4325 71.4388C95.4758 71.5853 95.5524 71.72 95.6564 71.8327C95.7604 71.9454 95.8891 72.033 96.0325 72.0889ZM90.9025 78.8689C89.8825 78.3822 89.1858 77.4855 88.8125 76.1789C87.3125 71.0089 87.3525 63.0889 83.8325 59.4289C82.6858 58.2356 81.2825 57.6555 79.6225 57.6888C70.8325 57.8788 67.6725 59.2489 65.0425 49.5489C63.4925 43.8489 60.3725 40.5289 54.8125 38.7189C50.6225 37.3689 46.9425 35.2989 45.3325 30.8489C43.4625 25.7089 38.3125 5.03885 29.7125 10.4488C23.9225 14.0788 22.0325 28.2989 22.8225 34.4089C23.6125 40.5689 32.4925 41.9789 34.9725 44.4989C41.3425 50.9589 42.0925 61.7588 42.2825 70.1988C42.6525 87.1388 31.2325 82.1289 20.0125 88.1589C14.4425 91.1389 11.8025 96.8589 10.1125 103.489C9.40249 106.299 9.80249 111.949 13.2525 112.519C22.0925 113.979 29.3625 110.109 37.0025 105.679C37.3773 105.461 37.8051 105.35 38.2402 105.357C38.6753 105.364 39.1012 105.489 39.4725 105.719C45.4525 109.429 56.4525 113.599 62.8125 108.749C65.8925 106.399 67.9325 101.279 70.1825 97.6189C71.3958 95.6456 72.7925 95.5055 74.3725 97.1988C78.2125 101.329 83.3425 102.489 88.8125 101.839C95.3125 101.059 99.1725 89.3489 99.8525 83.9589C99.881 83.7377 99.8432 83.5153 99.7444 83.3231C99.6457 83.131 99.491 82.979 99.3025 82.8888L90.9025 78.8689Z" fill="#181D42"/>
</svg>
