<svg width="87" height="178" viewBox="0 0 87 178" fill="none" xmlns="http://www.w3.org/2000/svg">
<path d="M52.0917 1.5874C30.4617 10.5374 17.8118 40.4274 11.8018 61.0774C3.92177 88.1474 -1.00824 116.857 1.79176 145.077C2.65843 153.791 5.26838 162.211 9.62172 170.337C10.9151 172.757 12.7318 174.404 15.0718 175.277" stroke="#FDE4A4" stroke-width="2"/>
<path d="M15.0742 175.277C16.8876 176.484 18.8708 176.894 21.0242 176.507C36.0108 173.827 48.4409 166.577 58.3142 154.757" stroke="#8A8997" stroke-width="2"/>
<path d="M58.3125 154.757C62.0392 150.531 65.2624 145.947 67.9824 141.007" stroke="#9194A4" stroke-width="2"/>
<path d="M67.9844 141.007C76.111 125.687 81.4711 109.437 84.0645 92.2573" stroke="#84838E" stroke-width="2"/>
<path d="M84.0625 92.2573C85.5025 84.744 86.1424 77.1607 85.9824 69.5073" stroke="#9194A4" stroke-width="2"/>
<path d="M85.9838 69.5074C86.4638 45.4674 80.3338 14.7674 57.0538 1.74741C55.3672 0.807408 53.7138 0.754071 52.0938 1.5874" stroke="#868692" stroke-width="2"/>
<path d="M85.982 69.5077C85.4354 70.1544 84.7554 70.3777 83.9421 70.1777C83.8107 70.144 83.6941 70.0608 83.6108 69.9413C83.5275 69.8218 83.4822 69.6728 83.482 69.5177C83.5887 60.7111 82.3487 50.3777 79.7621 38.5177C76.7887 24.9244 70.402 14.1577 60.602 6.2177C59.742 5.52437 59.1721 5.53771 58.8921 6.25771C58.8405 6.38192 58.83 6.52739 58.8617 6.67876C58.8933 6.83013 58.9661 6.98177 59.0721 7.1177C60.3721 8.81103 61.3321 10.6644 61.9521 12.6777C62.5021 14.4777 63.5921 15.6577 64.2821 17.3877C64.308 17.452 64.3216 17.5205 64.322 17.5892C64.3224 17.6579 64.3097 17.7254 64.2845 17.7878C64.2594 17.8502 64.2223 17.9063 64.1755 17.9526C64.1287 17.999 64.0731 18.0347 64.0121 18.0577C63.5587 18.231 63.0754 18.2977 62.5621 18.2577" stroke="#1A1F48" stroke-width="2"/>
<path d="M62.5627 18.2573C66.6294 28.104 70.286 38.104 73.5327 48.2573C75.6027 54.6973 79.4927 67.5273 67.9127 68.2073C59.8427 68.6773 53.8928 75.0073 52.7028 82.3973C52.2561 85.1773 52.5694 89.3807 53.6427 95.0073C55.9127 106.957 62.6527 125.597 51.7627 135.327C48.7027 138.067 43.8927 131.517 41.4727 129.437" stroke="#917D5A" stroke-width="2"/>
<path d="M41.4741 129.438C38.0608 129.557 35.2642 130.684 33.0842 132.818C32.7642 133.131 31.0208 135.397 27.8541 139.617C20.0608 150.011 15.8009 161.898 15.0742 175.278" stroke="#8A724D" stroke-width="2"/>
<path d="M84.0632 92.2576C84.1432 90.3676 82.9131 92.1176 82.8431 92.3676C78.5431 109.108 75.0531 124.278 66.4831 139.568C66.4047 139.711 66.3673 139.868 66.3763 140.018C66.3853 140.167 66.4403 140.3 66.5332 140.398C66.9065 140.791 67.3898 140.994 67.9831 141.008" stroke="#181C43" stroke-width="2"/>
<path d="M58.3124 154.758C57.5324 153.644 56.6924 153.577 55.7924 154.557C46.6124 164.617 32.4124 173.657 18.5724 174.227C18.4041 174.233 18.2364 174.204 18.0801 174.141C17.9238 174.079 17.7822 173.984 17.6646 173.864C17.5469 173.743 17.4557 173.599 17.3967 173.442C17.3378 173.284 17.3125 173.116 17.3224 172.948C17.8724 163.738 20.4524 155.598 25.4124 147.598C27.3524 144.458 35.8124 129.988 40.2924 131.088C40.4799 131.132 40.6635 131.141 40.8188 131.114C40.9742 131.087 41.0941 131.026 41.1624 130.938C41.4024 130.624 41.5056 130.124 41.4723 129.438" stroke="#1E214C" stroke-width="2"/>
<path d="M49.8378 50.963C49.4077 50.3839 48.7363 50.0206 47.9714 49.9533C47.2066 49.8859 46.4109 50.1199 45.7594 50.6037C45.1079 51.0876 44.6539 51.7817 44.4973 52.5333C44.3407 53.285 44.4945 54.0327 44.9246 54.6118C45.3547 55.1909 46.0259 55.5542 46.7908 55.6215C47.5556 55.6889 48.3513 55.455 49.0028 54.9711C49.6543 54.4872 50.1083 53.7931 50.2649 53.0415C50.4215 52.2898 50.2679 51.5421 49.8378 50.963Z" stroke="#EE915A" stroke-width="2"/>
<path d="M33.9412 67.2274C33.9412 66.8781 33.8723 66.5322 33.7386 66.2094C33.605 65.8867 33.409 65.5935 33.162 65.3465C32.915 65.0995 32.6218 64.9035 32.2991 64.7699C31.9763 64.6362 31.6304 64.5674 31.2811 64.5674C30.5757 64.5674 29.8991 64.8476 29.4003 65.3465C28.9014 65.8453 28.6211 66.5219 28.6211 67.2274C28.6211 67.9329 28.9014 68.6094 29.4003 69.1083C29.8991 69.6071 30.5757 69.8874 31.2811 69.8874C31.6304 69.8874 31.9763 69.8186 32.2991 69.6849C32.6218 69.5512 32.915 69.3553 33.162 69.1083C33.409 68.8613 33.605 68.5681 33.7386 68.2453C33.8723 67.9226 33.9412 67.5767 33.9412 67.2274Z" stroke="#EE915A" stroke-width="2"/>
<path d="M31.5572 88.5334C31.3268 88.294 31.0424 88.1111 30.7202 87.9952C30.398 87.8792 30.0443 87.8325 29.6793 87.8577C29.3143 87.8829 28.9453 87.9795 28.5931 88.1419C28.2409 88.3044 27.9126 88.5295 27.6268 88.8045C27.341 89.0795 27.1034 89.399 26.9276 89.7446C26.7517 90.0903 26.6411 90.4554 26.6019 90.8192C26.5627 91.1829 26.5958 91.5381 26.6993 91.8646C26.8028 92.191 26.9747 92.4822 27.205 92.7216C27.4354 92.961 27.7198 93.1439 28.042 93.2598C28.3642 93.3758 28.7179 93.4225 29.0829 93.3973C29.4478 93.3721 29.817 93.2756 30.1692 93.1131C30.5213 92.9507 30.8496 92.7255 31.1353 92.4505C31.4211 92.1755 31.6587 91.8561 31.8346 91.5104C32.0104 91.1647 32.1211 90.7996 32.1602 90.4358C32.1994 90.0721 32.1663 89.7169 32.0628 89.3904C31.9594 89.064 31.7876 88.7728 31.5572 88.5334Z" stroke="#EE915A" stroke-width="2"/>
<path d="M19.034 118.823C18.6209 118.206 17.9455 117.801 17.1563 117.698C16.3671 117.594 15.5286 117.8 14.8256 118.271C14.4775 118.504 14.1731 118.795 13.9297 119.127C13.6864 119.459 13.5089 119.826 13.4074 120.207C13.3059 120.588 13.2823 120.975 13.338 121.347C13.3938 121.718 13.5279 122.067 13.7325 122.372C14.1456 122.989 14.821 123.394 15.6103 123.498C16.3995 123.601 17.2378 123.395 17.9408 122.924C18.289 122.691 18.5934 122.4 18.8367 122.068C19.08 121.736 19.2575 121.369 19.359 120.988C19.4606 120.607 19.4842 120.22 19.4284 119.849C19.3726 119.477 19.2385 119.129 19.034 118.823Z" stroke="#F29A5D" stroke-width="2"/>
<path d="M70.2944 95.8576C70.2944 95.4269 70.2096 95.0004 70.0448 94.6024C69.88 94.2045 69.6383 93.8429 69.3337 93.5383C69.0292 93.2338 68.6676 92.9921 68.2697 92.8273C67.8717 92.6625 67.4451 92.5776 67.0144 92.5776C66.5837 92.5776 66.1571 92.6625 65.7592 92.8273C65.3612 92.9921 64.9996 93.2338 64.6951 93.5383C64.3905 93.8429 64.149 94.2045 63.9841 94.6024C63.8193 95.0004 63.7344 95.4269 63.7344 95.8576C63.7344 96.7275 64.0799 97.5618 64.6951 98.1769C65.3102 98.7921 66.1445 99.1376 67.0144 99.1376C67.8843 99.1376 68.7186 98.7921 69.3337 98.1769C69.9489 97.5618 70.2944 96.7275 70.2944 95.8576Z" stroke="#8F7859" stroke-width="2"/>
<path d="M34.3319 159.397C34.3319 158.647 34.0337 157.927 33.5029 157.396C32.9722 156.866 32.2524 156.567 31.5018 156.567C30.7513 156.567 30.0315 156.866 29.5007 157.396C28.97 157.927 28.6719 158.647 28.6719 159.397C28.6719 160.148 28.97 160.868 29.5007 161.398C30.0315 161.929 30.7513 162.227 31.5018 162.227C32.2524 162.227 32.9722 161.929 33.5029 161.398C34.0337 160.868 34.3319 160.148 34.3319 159.397Z" stroke="#8C855D" stroke-width="2"/>
<path d="M85.9838 69.5074C85.4371 70.1541 84.7572 70.3774 83.9438 70.1774C83.8124 70.1437 83.6958 70.0605 83.6125 69.941C83.5293 69.8215 83.4839 69.6725 83.4838 69.5174C83.5904 60.7108 82.3505 50.3774 79.7638 38.5174C76.7905 24.9241 70.4038 14.1574 60.6038 6.21741C59.7438 5.52408 59.1738 5.53742 58.8938 6.25742C58.8422 6.38163 58.8317 6.5271 58.8634 6.67847C58.8951 6.82984 58.9678 6.98148 59.0739 7.1174C60.3739 8.81074 61.3339 10.6641 61.9539 12.6774C62.5039 14.4774 63.5938 15.6574 64.2838 17.3874C64.3097 17.4517 64.3233 17.5202 64.3237 17.5889C64.3242 17.6576 64.3114 17.7251 64.2863 17.7875C64.2611 17.85 64.224 17.906 64.1772 17.9523C64.1305 17.9987 64.0749 18.0344 64.0138 18.0574C63.5605 18.2307 63.0772 18.2974 62.5638 18.2574C60.0838 12.2841 56.5938 6.7274 52.0938 1.5874C53.7138 0.754071 55.3672 0.807408 57.0538 1.74741C80.3338 14.7674 86.4638 45.4674 85.9838 69.5074Z" fill="#0F1136"/>
<path d="M52.0917 1.5874C56.5917 6.7274 60.0818 12.2841 62.5618 18.2574C66.6284 28.1041 70.2851 38.1041 73.5318 48.2574C75.6018 54.6974 79.4918 67.5274 67.9118 68.2074C59.8418 68.6774 53.8918 75.0074 52.7018 82.3974C52.2551 85.1774 52.5684 89.3808 53.6417 95.0074C55.9117 106.957 62.6517 125.597 51.7617 135.327C48.7017 138.067 43.8917 131.517 41.4717 129.437C38.0584 129.557 35.2618 130.684 33.0818 132.817C32.7618 133.131 31.0184 135.397 27.8517 139.617C20.0584 150.011 15.7985 161.897 15.0718 175.277C12.7318 174.404 10.9151 172.757 9.62172 170.337C5.26838 162.211 2.65843 153.791 1.79176 145.077C-1.00824 116.857 3.92177 88.1474 11.8018 61.0774C17.8118 40.4274 30.4617 10.5374 52.0917 1.5874ZM52.9118 27.2374C52.9118 26.5717 52.6472 25.9333 52.1765 25.4626C51.7058 24.9919 51.0674 24.7274 50.4017 24.7274C50.0721 24.7274 49.7457 24.7923 49.4412 24.9185C49.1367 25.0446 48.8599 25.2295 48.6268 25.4626C48.3938 25.6957 48.2089 25.9724 48.0828 26.2769C47.9566 26.5814 47.8917 26.9078 47.8917 27.2374C47.8917 27.567 47.9566 27.8934 48.0828 28.1979C48.2089 28.5025 48.3938 28.7792 48.6268 29.0123C48.8599 29.2453 49.1367 29.4302 49.4412 29.5564C49.7457 29.6825 50.0721 29.7474 50.4017 29.7474C51.0674 29.7474 51.7058 29.483 52.1765 29.0123C52.6472 28.5416 52.9118 27.9031 52.9118 27.2374ZM49.8384 50.963C49.4083 50.3839 48.7369 50.0207 47.9721 49.9533C47.2072 49.8859 46.4116 50.1199 45.76 50.6037C45.1085 51.0876 44.6545 51.7817 44.4979 52.5334C44.3414 53.285 44.4951 54.0327 44.9252 54.6118C45.3553 55.191 46.0266 55.5542 46.7914 55.6216C47.5562 55.6889 48.3519 55.455 49.0034 54.9711C49.655 54.4873 50.1089 53.7931 50.2655 53.0415C50.4221 52.2898 50.2685 51.5422 49.8384 50.963ZM33.9418 67.2274C33.9418 66.8781 33.873 66.5322 33.7393 66.2095C33.6056 65.8867 33.4096 65.5935 33.1626 65.3465C32.9156 65.0995 32.6224 64.9036 32.2997 64.7699C31.977 64.6362 31.6311 64.5674 31.2818 64.5674C30.5763 64.5674 29.8997 64.8476 29.4009 65.3465C28.902 65.8453 28.6217 66.5219 28.6217 67.2274C28.6217 67.9329 28.902 68.6095 29.4009 69.1083C29.8997 69.6072 30.5763 69.8874 31.2818 69.8874C31.6311 69.8874 31.977 69.8186 32.2997 69.6849C32.6224 69.5513 32.9156 69.3553 33.1626 69.1083C33.4096 68.8613 33.6056 68.5681 33.7393 68.2454C33.873 67.9226 33.9418 67.5767 33.9418 67.2274ZM31.5579 88.5333C31.3275 88.2939 31.043 88.111 30.7208 87.9951C30.3986 87.8792 30.0449 87.8324 29.6799 87.8576C29.315 87.8828 28.9459 87.9794 28.5938 88.1418C28.2416 88.3043 27.9132 88.5294 27.6275 88.8044C27.3417 89.0794 27.1041 89.3989 26.9282 89.7445C26.7524 90.0902 26.6417 90.4554 26.6026 90.8191C26.5634 91.1828 26.5965 91.5381 26.7 91.8645C26.8034 92.1909 26.9753 92.4821 27.2057 92.7215C27.4361 92.9609 27.7204 93.1438 28.0426 93.2597C28.3648 93.3757 28.7185 93.4224 29.0835 93.3972C29.4485 93.372 29.8176 93.2755 30.1698 93.113C30.522 92.9506 30.8502 92.7254 31.136 92.4504C31.4218 92.1754 31.6594 91.856 31.8352 91.5103C32.0111 91.1646 32.1217 90.7995 32.1609 90.4357C32.2001 90.072 32.167 89.7168 32.0635 89.3904C31.96 89.0639 31.7883 88.7727 31.5579 88.5333ZM19.0325 118.823C18.6194 118.206 17.944 117.801 17.1548 117.697C16.3656 117.594 15.5272 117.8 14.8241 118.271C14.476 118.504 14.1716 118.795 13.9282 119.127C13.6849 119.459 13.5074 119.826 13.4059 120.207C13.3044 120.588 13.2808 120.975 13.3366 121.347C13.3923 121.718 13.5264 122.066 13.731 122.372C14.1441 122.989 14.8196 123.394 15.6088 123.498C16.398 123.601 17.2363 123.395 17.9393 122.924C18.2875 122.691 18.5919 122.4 18.8352 122.068C19.0786 121.736 19.256 121.369 19.3576 120.988C19.4591 120.607 19.4827 120.22 19.4269 119.848C19.3711 119.477 19.237 119.128 19.0325 118.823Z" fill="#FDCD5A"/>
<path d="M85.9823 69.5072C86.1423 77.1606 85.5024 84.7439 84.0624 92.2572C84.1424 90.3672 82.9123 92.1172 82.8423 92.3672C78.5423 109.107 75.0523 124.277 66.4823 139.567C66.4039 139.71 66.3665 139.868 66.3755 140.017C66.3845 140.166 66.4394 140.3 66.5323 140.397C66.9057 140.791 67.389 140.994 67.9823 141.007C65.2623 145.947 62.039 150.531 58.3124 154.757C57.5324 153.644 56.6924 153.577 55.7924 154.557C46.6124 164.617 32.4124 173.657 18.5724 174.227C18.4041 174.233 18.2364 174.204 18.0801 174.141C17.9238 174.078 17.7822 173.984 17.6646 173.863C17.5469 173.743 17.4557 173.599 17.3967 173.441C17.3378 173.284 17.3125 173.115 17.3224 172.947C17.8724 163.737 20.4524 155.597 25.4124 147.597C27.3524 144.457 35.8124 129.987 40.2924 131.087C40.4799 131.131 40.6635 131.141 40.8188 131.114C40.9742 131.087 41.0941 131.026 41.1624 130.937C41.4024 130.624 41.5056 130.124 41.4723 129.437C43.8923 131.517 48.7023 138.067 51.7623 135.327C62.6523 125.597 55.9123 106.957 53.6423 95.0072C52.569 89.3806 52.2557 85.1772 52.7024 82.3972C53.8924 75.0072 59.8424 68.6772 67.9124 68.2072C79.4924 67.5272 75.6023 54.6972 73.5323 48.2572C70.2857 38.1039 66.629 28.1039 62.5624 18.2572C63.0757 18.2972 63.559 18.2305 64.0123 18.0572C64.0734 18.0342 64.129 17.9985 64.1758 17.9521C64.2226 17.9058 64.2596 17.8498 64.2848 17.7873C64.3099 17.7249 64.3227 17.6574 64.3223 17.5887C64.3218 17.52 64.3083 17.4515 64.2823 17.3872C63.5924 15.6572 62.5024 14.4772 61.9524 12.6772C61.3324 10.6639 60.3724 8.81054 59.0724 7.11721C58.9663 6.98129 58.8936 6.82965 58.8619 6.67828C58.8303 6.5269 58.8407 6.38143 58.8923 6.25722C59.1723 5.53722 59.7423 5.52388 60.6023 6.21722C70.4023 14.1572 76.789 24.9239 79.7623 38.5172C82.349 50.3772 83.589 60.7106 83.4823 69.5172C83.4825 69.6723 83.5278 69.8213 83.6111 69.9408C83.6944 70.0603 83.8109 70.1435 83.9424 70.1772C84.7557 70.3772 85.4356 70.1539 85.9823 69.5072ZM70.2924 95.8572C70.2924 95.4265 70.2076 95 70.0427 94.602C69.8779 94.2041 69.6362 93.8425 69.3317 93.5379C69.0271 93.2334 68.6655 92.9917 68.2676 92.8269C67.8696 92.6621 67.4431 92.5772 67.0123 92.5772C66.5816 92.5772 66.155 92.6621 65.7571 92.8269C65.3591 92.9917 64.9976 93.2334 64.693 93.5379C64.3884 93.8425 64.1469 94.2041 63.9821 94.602C63.8172 95 63.7323 95.4265 63.7323 95.8572C63.7323 96.7271 64.0779 97.5614 64.693 98.1765C65.3081 98.7917 66.1424 99.1372 67.0123 99.1372C67.8822 99.1372 68.7165 98.7917 69.3317 98.1765C69.9468 97.5614 70.2924 96.7271 70.2924 95.8572ZM34.3324 159.397C34.3324 158.647 34.0341 157.927 33.5034 157.396C32.9727 156.865 32.2529 156.567 31.5023 156.567C30.7518 156.567 30.0319 156.865 29.5012 157.396C28.9705 157.927 28.6724 158.647 28.6724 159.397C28.6724 160.148 28.9705 160.868 29.5012 161.398C30.0319 161.929 30.7518 162.227 31.5023 162.227C32.2529 162.227 32.9727 161.929 33.5034 161.398C34.0341 160.868 34.3324 160.148 34.3324 159.397Z" fill="#252C59"/>
<path d="M49.0048 54.9711C50.3615 53.9635 50.7353 52.169 49.8397 50.963C48.944 49.757 47.1181 49.5962 45.7613 50.6038C44.4046 51.6114 44.0308 53.4059 44.9264 54.6119C45.8221 55.8179 47.648 55.9787 49.0048 54.9711Z" fill="#DF555A"/>
<path d="M31.285 69.8874C32.7541 69.8874 33.9451 68.6965 33.9451 67.2274C33.9451 65.7583 32.7541 64.5674 31.285 64.5674C29.816 64.5674 28.625 65.7583 28.625 67.2274C28.625 68.6965 29.816 69.8874 31.285 69.8874Z" fill="#DF555A"/>
<path d="M31.1378 92.4504C32.3396 91.2938 32.5284 89.5401 31.5596 88.5333C30.5907 87.5265 28.831 87.6478 27.6292 88.8044C26.4274 89.9609 26.2386 91.7146 27.2074 92.7214C28.1763 93.7282 29.936 93.6069 31.1378 92.4504Z" fill="#DF555A"/>
<path d="M84.0632 92.2572C81.4699 109.437 76.1098 125.687 67.9831 141.007C67.3898 140.994 66.9065 140.791 66.5332 140.397C66.4403 140.3 66.3853 140.166 66.3763 140.017C66.3673 139.868 66.4047 139.71 66.4831 139.567C75.0531 124.277 78.5431 109.107 82.8431 92.3671C82.9131 92.1171 84.1432 90.3672 84.0632 92.2572Z" fill="#0A0B2D"/>
<path d="M67.0144 99.1371C68.8259 99.1371 70.2944 97.6686 70.2944 95.8571C70.2944 94.0457 68.8259 92.5771 67.0144 92.5771C65.2029 92.5771 63.7344 94.0457 63.7344 95.8571C63.7344 97.6686 65.2029 99.1371 67.0144 99.1371Z" fill="#F9C459"/>
<path d="M17.9419 122.924C19.4059 121.944 19.8953 120.108 19.0351 118.823C18.1748 117.538 16.2906 117.291 14.8266 118.271C13.3626 119.251 12.8732 121.087 13.7334 122.372C14.5937 123.657 16.4779 123.904 17.9419 122.924Z" fill="#E7675F"/>
<path d="M41.4741 129.438C41.5075 130.124 41.4042 130.624 41.1642 130.938C41.0959 131.026 40.9761 131.087 40.8207 131.114C40.6653 131.141 40.4817 131.132 40.2942 131.088C35.8142 129.988 27.3542 144.458 25.4142 147.598C20.4542 155.598 17.8742 163.738 17.3242 172.948C17.3144 173.116 17.3396 173.284 17.3986 173.442C17.4575 173.599 17.5487 173.743 17.6664 173.864C17.784 173.984 17.9256 174.079 18.0819 174.141C18.2382 174.204 18.4059 174.233 18.5742 174.227C32.4142 173.657 46.6142 164.617 55.7942 154.557C56.6942 153.577 57.5342 153.644 58.3142 154.758C48.4409 166.578 36.0108 173.828 21.0242 176.508C18.8708 176.894 16.8876 176.484 15.0742 175.278C15.8009 161.898 20.0608 150.011 27.8541 139.617C31.0208 135.397 32.7642 133.131 33.0842 132.818C35.2642 130.684 38.0608 129.557 41.4741 129.438Z" fill="#16163F"/>
<path d="M31.5018 162.227C33.0648 162.227 34.3319 160.96 34.3319 159.397C34.3319 157.834 33.0648 156.567 31.5018 156.567C29.9389 156.567 28.6719 157.834 28.6719 159.397C28.6719 160.96 29.9389 162.227 31.5018 162.227Z" fill="#F2DE61"/>
</svg>
