<svg width="15" height="15" viewBox="0 0 15 15" fill="none" xmlns="http://www.w3.org/2000/svg">
<path d="M13.7092 7.71399C13.7092 6.15452 13.0897 4.6589 11.987 3.55618C10.8843 2.45347 9.3887 1.83398 7.82922 1.83398C7.05705 1.83398 6.29243 1.98606 5.57904 2.28156C4.86565 2.57705 4.21746 3.01017 3.67145 3.55618C3.12544 4.10219 2.69232 4.75041 2.39682 5.46381C2.10132 6.1772 1.94922 6.94182 1.94922 7.71399C1.94922 8.48616 2.10132 9.25075 2.39682 9.96414C2.69232 10.6775 3.12544 11.3258 3.67145 11.8718C4.21746 12.4178 4.86565 12.8509 5.57904 13.1464C6.29243 13.4419 7.05705 13.594 7.82922 13.594C9.3887 13.594 10.8843 12.9745 11.987 11.8718C13.0897 10.7691 13.7092 9.27346 13.7092 7.71399Z" stroke="#FBB1A5" stroke-width="2"/>
<path d="M7.82922 13.594C11.0767 13.594 13.7092 10.9614 13.7092 7.71399C13.7092 4.46655 11.0767 1.83398 7.82922 1.83398C4.58179 1.83398 1.94922 4.46655 1.94922 7.71399C1.94922 10.9614 4.58179 13.594 7.82922 13.594Z" fill="#F6634A"/>
</svg>
