<svg width="74" height="64" viewBox="0 0 74 64" fill="none" xmlns="http://www.w3.org/2000/svg">
<path d="M38.5989 27.6261C38.3443 27.6122 38.1033 27.5061 37.9211 27.3276C37.739 27.1491 37.628 26.9104 37.6089 26.6561C36.6889 14.6628 31.0256 6.33608 20.6189 1.67608C12.4889 -1.96392 5.56893 9.99608 3.33893 16.0561C-2.38107 31.5561 2.62892 47.8661 15.7589 58.0961C33.3689 71.8261 53.2389 52.6661 64.2789 40.2261C67.7989 36.2594 70.3856 32.4194 72.0389 28.7061C75.0789 21.8761 69.9789 15.1261 63.7389 12.5161C54.1989 8.50607 45.6189 19.8861 40.6689 26.3461C39.9823 27.2461 39.2923 27.6728 38.5989 27.6261Z" stroke="#FEE493" stroke-width="2"/>
<path d="M38.6028 27.6261C39.2962 27.6728 39.9862 27.2461 40.6728 26.3461C45.6228 19.8861 54.2028 8.50607 63.7428 12.5161C69.9828 15.1261 75.0828 21.8761 72.0428 28.7061C70.3895 32.4194 67.8028 36.2594 64.2828 40.2261C53.2428 52.6661 33.3728 71.8261 15.7628 58.0961C2.63282 47.8661 -2.37716 31.5561 3.34284 16.0561C5.57284 9.99608 12.4928 -1.96392 20.6228 1.67608C31.0295 6.33608 36.6928 14.6628 37.6128 26.6561C37.6319 26.9104 37.7429 27.1491 37.9251 27.3276C38.1072 27.5061 38.3482 27.6122 38.6028 27.6261Z" fill="#FDCA27"/>
</svg>
