<svg width="84" height="298" viewBox="0 0 84 298" fill="none" xmlns="http://www.w3.org/2000/svg">
<path d="M28.299 1C23.1256 4.88 19.2356 9.95667 16.6289 16.23" stroke="#D0E1DB" stroke-width="2"/>
<path d="M16.6301 16.23C15.8201 16.8 11.8801 18.19 14.3501 19.51" stroke="#8E9197" stroke-width="2"/>
<path d="M14.3486 19.5098C14.3019 20.8231 14.1819 21.6431 13.9886 21.9698C10.1386 28.5098 8.76858 34.9998 12.9686 41.4298C13.0492 41.5496 13.1662 41.64 13.3017 41.687C13.4371 41.7339 13.5836 41.7349 13.7186 41.6898C15.0719 41.2431 16.5219 40.4531 18.0686 39.3198C25.5086 33.8864 31.9119 28.4698 37.2786 23.0698" stroke="#CCE2DD" stroke-width="2"/>
<path d="M37.2797 23.0702C39.2263 22.2902 39.193 21.3268 37.1797 20.1802" stroke="#8E9197" stroke-width="2"/>
<path d="M37.1799 20.1798C35.3932 13.7731 32.9932 7.58979 29.9799 1.62979C29.9402 1.55076 29.8684 1.48138 29.7719 1.4287C29.6753 1.37601 29.5573 1.34189 29.4299 1.32979C29.2299 1.30979 29.1165 1.20979 29.0898 1.02979" stroke="#D0E1DB" stroke-width="2"/>
<path d="M51.8393 1.02979L51.2393 1.29979C51.0927 1.36511 50.9764 1.4829 50.9148 1.62838C50.8533 1.77385 50.8513 1.93567 50.9093 2.07979C52.6893 6.43312 54.8527 6.44645 57.3993 2.11979C57.8393 1.36645 57.6293 1.05645 56.7693 1.18979C55.5893 1.36979 54.696 1.31645 54.0893 1.02979" stroke="#9FC7CD" stroke-width="2"/>
<path d="M73.6886 38.2198C74.7686 32.1698 75.7586 26.0598 77.2086 20.0798C78.4186 15.0698 78.9586 11.0998 78.2886 6.54984C78.1619 5.67651 77.7219 5.56984 76.9686 6.22984L59.2486 21.7598C58.9261 22.0414 58.6948 22.4079 58.5858 22.8101C58.4767 23.2123 58.4952 23.631 58.6386 24.0098C59.8686 27.2998 70.2586 57.4498 73.6886 38.2198Z" stroke="#B0D2CD" stroke-width="2"/>
<path d="M27.0312 56.2402L22.7812 58.3702C22.6461 58.4389 22.5366 58.5467 22.4698 58.6769C22.4029 58.807 22.3823 58.9523 22.4112 59.0902C22.5778 59.8902 23.0478 60.5369 23.8211 61.0302" stroke="#8E9197" stroke-width="2"/>
<path d="M23.8203 61.0298C23.8503 63.2598 25.5704 77.8998 28.8104 77.6198C30.257 77.4931 31.597 76.9031 32.8303 75.8498L48.0303 62.8198" stroke="#B4D6D1" stroke-width="2"/>
<path d="M48.0312 62.8202C49.3713 61.8669 50.8479 61.2702 52.4612 61.0302C52.5242 61.0208 52.5846 60.9982 52.6378 60.964C52.691 60.9299 52.7357 60.8851 52.7684 60.833C52.8012 60.781 52.8212 60.7231 52.8268 60.6637C52.8325 60.6043 52.8238 60.545 52.8013 60.4902C52.4079 59.5436 51.7346 58.7936 50.7812 58.2402" stroke="#8E9197" stroke-width="2"/>
<path d="M50.7812 58.2402L49.7812 57.2402" stroke="#A4A4AE" stroke-width="2"/>
<path d="M49.7812 57.2402C48.8512 56.0802 48.9913 54.6902 48.5613 53.5702C47.2013 50.0435 45.3679 46.7702 43.0613 43.7502C42.9559 43.6093 42.8221 43.492 42.6685 43.4059C42.5149 43.3197 42.3448 43.2664 42.169 43.2495C41.9932 43.2326 41.8155 43.2524 41.6472 43.3076C41.4789 43.3627 41.3236 43.4522 41.1912 43.5702L27.0312 56.2402" stroke="#BAD9D4" stroke-width="2"/>
<path d="M49.7822 57.2398L49.2222 57.5598C49.0934 57.6351 48.9482 57.6813 48.7963 57.6951C48.6445 57.7089 48.4895 57.69 48.3422 57.6398C44.8822 56.4298 41.6621 57.2898 38.4421 57.0098C35.8088 56.7764 33.1589 56.9164 30.4922 57.4298" stroke="#5F808F" stroke-width="2"/>
<path d="M30.4913 57.4302C29.2979 57.2902 28.1446 56.8936 27.0312 56.2402" stroke="#496D78" stroke-width="2"/>
<path d="M30.4922 57.4302C35.2322 59.0302 39.3922 59.7035 42.9722 59.4502C44.5188 59.3435 45.7255 59.4368 46.5922 59.7302C46.7632 59.7874 46.9336 59.8169 47.0933 59.8169C47.253 59.8169 47.3988 59.7874 47.5222 59.7302L50.7822 58.2402" stroke="#333852" stroke-width="2"/>
<path d="M48.0303 62.8198L23.8203 61.0298" stroke="#446A74" stroke-width="2"/>
<path d="M50.5321 88.9902C48.4121 89.2602 41.6321 89.6602 44.7821 92.5702" stroke="#8E9197" stroke-width="2"/>
<path d="M44.7812 92.5698C49.2613 102.363 54.9713 111.403 61.9113 119.69C62.8713 120.836 63.5779 120.77 64.0312 119.49L72.1113 96.3598" stroke="#B0D2CD" stroke-width="2"/>
<path d="M72.1118 96.3602C76.4118 95.6502 72.8117 92.7502 71.7617 91.6802" stroke="#8E9197" stroke-width="2"/>
<path d="M71.7612 91.6798C72.4079 86.1865 71.8312 81.7665 70.0312 78.4198C68.8579 76.2332 67.3679 75.9932 65.5613 77.6998C60.7813 82.2065 55.7712 85.9698 50.5312 88.9898" stroke="#B0D2CD" stroke-width="2"/>
<path d="M71.7612 91.6802L50.5312 88.9902" stroke="#406670" stroke-width="2"/>
<path d="M72.1113 96.3598C63.2846 93.9198 54.1746 92.6565 44.7812 92.5698" stroke="#406670" stroke-width="2"/>
<path d="M8.54117 81.6902C5.51117 86.6702 4.77118 90.9902 3.05118 98.2802C1.18118 106.25 0.851181 113.41 1.05118 121.28C1.08451 122.447 1.46447 122.573 2.19114 121.66C7.03114 115.56 12.7311 105.5 19.5111 101.75C19.7657 101.612 19.9563 101.38 20.0422 101.104C20.1281 100.827 20.1027 100.528 19.9712 100.27C16.7212 93.8102 13.0012 87.8502 9.49118 81.7002C9.44362 81.6166 9.37499 81.547 9.29215 81.4983C9.20931 81.4496 9.11512 81.4234 9.01902 81.4224C8.92291 81.4214 8.82826 81.4456 8.74442 81.4926C8.66057 81.5395 8.59049 81.6077 8.54117 81.6902Z" stroke="#B4D6D1" stroke-width="2"/>
<path d="M22.5786 131.72C21.6186 131.847 21.042 132.367 20.8486 133.28C20.8094 133.455 20.811 133.631 20.8533 133.789C20.8956 133.948 20.9769 134.083 21.0886 134.18L23.5286 136.32" stroke="#98A1A7" stroke-width="2"/>
<path d="M23.5312 136.32C24.3913 137.646 25.0912 139.06 25.6312 140.56C27.0812 144.65 31.8712 148.7 34.8912 151.89C35.0504 152.058 35.244 152.19 35.4591 152.277C35.6742 152.364 35.9057 152.404 36.1379 152.393C36.3701 152.383 36.5977 152.323 36.8053 152.217C37.0129 152.111 37.1957 151.962 37.3412 151.78C40.5412 147.76 43.3746 143 45.8412 137.5" stroke="#B6D9D3" stroke-width="2"/>
<path d="M45.8417 137.5C48.3617 135.507 48.2517 134.013 45.5117 133.02" stroke="#98A1A7" stroke-width="2"/>
<path d="M45.512 133.02L32.6821 119.73C31.5354 118.537 30.392 118.537 29.252 119.73C26.452 122.67 24.2287 126.667 22.582 131.72" stroke="#B6D9D3" stroke-width="2"/>
<path d="M45.512 133.02L22.582 131.72" stroke="#4F7D86" stroke-width="2"/>
<path d="M45.8412 137.5C38.4546 136.167 31.0179 135.773 23.5312 136.32" stroke="#4F7D86" stroke-width="2"/>
<path d="M48.9422 179.64C43.6888 180.027 43.1489 181.403 47.3222 183.77" stroke="#9297A0" stroke-width="2"/>
<path d="M47.3203 183.77C53.1203 191.537 59.6537 198.68 66.9203 205.2C68.827 206.907 70.1137 206.527 70.7803 204.06C72.607 197.367 74.9336 190.723 77.7603 184.13" stroke="#B4D6D1" stroke-width="2"/>
<path d="M77.7615 184.13C80.6749 182.844 80.6216 181.547 77.6016 180.24" stroke="#9297A0" stroke-width="2"/>
<path d="M77.6014 180.24C77.0714 168.04 75.5614 154.76 71.1314 143.44C70.7314 142.413 70.2547 142.383 69.7014 143.35L48.9414 179.64" stroke="#B4D6D1" stroke-width="2"/>
<path d="M77.6014 180.24L48.9414 179.64" stroke="#48707E" stroke-width="2"/>
<path d="M77.7603 184.13C75.467 183.703 73.157 183.593 70.8303 183.8C63.0303 184.48 55.2703 183.67 47.3203 183.77" stroke="#48707E" stroke-width="2"/>
<path d="M8.46943 163.2C5.50943 174.9 2.70942 190.04 4.27942 202.04C4.54609 204.026 5.28278 204.257 6.48945 202.73C12.4294 195.263 18.0861 187.59 23.4594 179.71C23.532 179.607 23.5642 179.474 23.5517 179.329C23.5392 179.184 23.4824 179.034 23.3894 178.9C19.2694 173.06 13.8194 168.66 9.77942 162.95C9.16609 162.09 8.72943 162.173 8.46943 163.2Z" stroke="#B4D6D1" stroke-width="2"/>
<path d="M20.0512 220.57C18.9912 223.13 21.0712 223.68 22.6012 224.77" stroke="#9A9CA4" stroke-width="2"/>
<path d="M22.6016 224.77C25.8482 232.937 30.2682 240.25 35.8616 246.71C37.4216 248.51 38.8516 248.41 40.1516 246.41C44.5249 239.657 48.5549 232.447 52.2416 224.78" stroke="#B4D6D1" stroke-width="2"/>
<path d="M52.239 224.78C53.5923 223.053 53.3056 221.633 51.3789 220.52" stroke="#9A9CA4" stroke-width="2"/>
<path d="M51.3807 220.52C47.1674 215.006 42.2475 210.33 36.6208 206.49C33.6508 204.47 30.4507 202.13 27.0007 203.61C26.8586 203.67 26.7293 203.761 26.6209 203.878C26.5125 203.995 26.4274 204.135 26.3708 204.29C25.1608 207.4 24.2107 210.14 22.5807 213.4C21.3474 215.873 20.5041 218.263 20.0508 220.57" stroke="#B4D6D1" stroke-width="2"/>
<path d="M51.3807 220.52L20.0508 220.57" stroke="#507581" stroke-width="2"/>
<path d="M52.2416 224.78C42.3482 225.387 32.4682 225.383 22.6016 224.77" stroke="#507581" stroke-width="2"/>
<path d="M51.1715 274.251C55.5415 282.361 65.2315 289.971 71.3415 295.931C71.4325 296.018 71.5448 296.081 71.6673 296.112C71.7898 296.144 71.9183 296.143 72.0403 296.109C72.1622 296.076 72.2735 296.012 72.3631 295.923C72.4528 295.833 72.5177 295.722 72.5515 295.601C77.3449 278.087 80.7882 260.321 82.8815 242.301C83.0482 240.874 82.4816 239.817 81.1816 239.131C81.0554 239.061 80.9075 239.031 80.7541 239.044C80.6007 239.056 80.4477 239.11 80.3116 239.201C77.2849 241.221 74.1648 244.054 70.9515 247.701C61.6015 258.321 54.0515 265.361 51.1115 273.331C51.055 273.478 51.0311 273.637 51.0414 273.795C51.0518 273.954 51.0961 274.109 51.1715 274.251Z" stroke="#B6D9D3" stroke-width="2"/>
<path d="M7.55164 267.8C5.01164 268.873 4.58828 270.38 6.28162 272.32" stroke="#9FA3AA" stroke-width="2"/>
<path d="M6.28125 272.32C6.33458 276.607 6.6746 280.88 7.30127 285.14C7.83127 288.78 9.58128 291.09 11.6213 293.98C11.9089 294.383 12.3335 294.667 12.8146 294.777C13.2957 294.888 13.7998 294.818 14.2313 294.58C16.8513 293.15 18.3113 290.86 20.0613 288.9C24.4413 283.994 28.7146 278.684 32.8812 272.97" stroke="#BAD9D4" stroke-width="2"/>
<path d="M32.8812 272.97L35.4313 270.01C35.4737 269.961 35.5043 269.902 35.5208 269.838C35.5374 269.775 35.5395 269.708 35.5272 269.642C35.5148 269.576 35.4882 269.514 35.4492 269.458C35.4101 269.402 35.3597 269.355 35.3013 269.32C34.3013 268.727 33.2112 268.367 32.0312 268.24" stroke="#9FA3AA" stroke-width="2"/>
<path d="M32.0308 268.24C30.7708 265.89 16.3108 241.57 12.7308 249.75C10.5774 254.65 8.85078 260.667 7.55078 267.8" stroke="#B6D9D3" stroke-width="2"/>
<path d="M32.0308 268.24C24.0508 268.52 15.8908 268.373 7.55078 267.8" stroke="#577E89" stroke-width="2"/>
<path d="M32.8812 272.97L6.28125 272.32" stroke="#5B7F8B" stroke-width="2"/>
<path d="M37.179 20.18L16.6289 16.23" stroke="#60757F" stroke-width="2"/>
<path d="M37.2816 23.0698C29.5016 22.7564 21.8582 21.5698 14.3516 19.5098" stroke="#5B7680" stroke-width="2"/>
<path d="M28.3029 1.00049L29.0928 1.03049C29.1195 1.21049 29.2329 1.31049 29.4329 1.33049C29.5603 1.34259 29.6783 1.37672 29.7748 1.4294C29.8714 1.48209 29.9432 1.55146 29.9828 1.63049C32.9962 7.59049 35.3962 13.7738 37.1829 20.1805L16.6328 16.2305C19.2395 9.95715 23.1295 4.88049 28.3029 1.00049Z" fill="#A2C5C3"/>
<path d="M51.8393 1.03027H54.0893C54.696 1.31694 55.5893 1.37027 56.7693 1.19027C57.6293 1.05694 57.8393 1.36694 57.3993 2.12027C54.8527 6.44694 52.6893 6.43361 50.9093 2.08027C50.8513 1.93616 50.8533 1.77434 50.9148 1.62886C50.9764 1.48339 51.0927 1.3656 51.2393 1.30027L51.8393 1.03027Z" fill="#4090A6"/>
<path d="M77.2125 20.0803C75.7625 26.0603 74.7725 32.1703 73.6925 38.2203C70.2625 57.4503 59.8725 27.3003 58.6425 24.0103C58.4991 23.6315 58.4806 23.2128 58.5897 22.8106C58.6987 22.4084 58.93 22.0419 59.2525 21.7603L76.9725 6.23033C77.7258 5.57033 78.1658 5.677 78.2925 6.55033C78.9625 11.1003 78.4225 15.0703 77.2125 20.0803Z" fill="#62A6A6"/>
<path d="M16.6301 16.2305L37.1801 20.1805C39.1935 21.3271 39.2268 22.2905 37.2801 23.0705C29.5001 22.7571 21.8568 21.5705 14.3501 19.5105C11.8801 18.1905 15.8201 16.8005 16.6301 16.2305Z" fill="#1D253A"/>
<path d="M14.3525 19.5103C21.8592 21.5703 29.5025 22.7569 37.2825 23.0703C31.9158 28.4703 25.5125 33.8869 18.0725 39.3203C16.5258 40.4536 15.0758 41.2436 13.7225 41.6903C13.5875 41.7354 13.441 41.7344 13.3056 41.6875C13.1701 41.6405 13.0531 41.5501 12.9725 41.4303C8.77249 35.0003 10.1425 28.5103 13.9925 21.9703C14.1858 21.6436 14.3058 20.8236 14.3525 19.5103Z" fill="#99C6C6"/>
<path d="M49.7812 57.2402L49.2213 57.5602C49.0925 57.6355 48.9473 57.6817 48.7954 57.6955C48.6435 57.7093 48.4886 57.6904 48.3412 57.6402C44.8812 56.4302 41.6612 57.2902 38.4412 57.0102C35.8079 56.7768 33.1579 56.9168 30.4913 57.4302C29.2979 57.2902 28.1446 56.8935 27.0312 56.2402L41.1912 43.5702C41.3236 43.4522 41.4789 43.3627 41.6472 43.3076C41.8155 43.2524 41.9932 43.2326 42.169 43.2495C42.3448 43.2664 42.5149 43.3197 42.6685 43.4059C42.8221 43.492 42.9559 43.6093 43.0613 43.7502C45.3679 46.7702 47.2013 50.0435 48.5613 53.5702C48.9913 54.6902 48.8512 56.0802 49.7812 57.2402Z" fill="#75B5B5"/>
<path d="M27.0312 56.2402C28.1445 56.8936 29.2978 57.2902 30.4912 57.4302C35.2312 59.0302 39.3912 59.7036 42.9712 59.4502C44.5178 59.3436 45.7245 59.4369 46.5912 59.7302C46.7622 59.7875 46.9325 59.8169 47.0923 59.8169C47.252 59.8169 47.3978 59.7875 47.5212 59.7302L50.7812 58.2402C51.7345 58.7936 52.4078 59.5436 52.8012 60.4902C52.8237 60.545 52.8324 60.6043 52.8268 60.6637C52.8211 60.7231 52.8011 60.781 52.7683 60.833C52.7356 60.8851 52.691 60.9299 52.6377 60.964C52.5845 60.9982 52.5241 61.0208 52.4612 61.0302C50.8478 61.2702 49.3712 61.8669 48.0312 62.8202L23.8211 61.0302C23.0478 60.5369 22.5778 59.8902 22.4112 59.0902C22.3823 58.9523 22.4029 58.807 22.4698 58.6769C22.5366 58.5467 22.6461 58.4389 22.7812 58.3702L27.0312 56.2402Z" fill="#1D253A"/>
<path d="M49.7822 57.2403L50.7822 58.2403L47.5222 59.7303C47.3988 59.7875 47.253 59.817 47.0933 59.817C46.9336 59.817 46.7632 59.7875 46.5922 59.7303C45.7255 59.4369 44.5188 59.3436 42.9722 59.4503C39.3922 59.7036 35.2322 59.0303 30.4922 57.4303C33.1589 56.9169 35.8088 56.7769 38.4421 57.0103C41.6621 57.2903 44.8822 56.4303 48.3422 57.6403C48.4895 57.6905 48.6445 57.7094 48.7963 57.6956C48.9482 57.6818 49.0934 57.6356 49.2222 57.5603L49.7822 57.2403Z" fill="#494A69"/>
<path d="M48.0303 62.8203L32.8303 75.8503C31.597 76.9036 30.257 77.4936 28.8104 77.6203C25.5704 77.9003 23.8503 63.2603 23.8203 61.0303L48.0303 62.8203Z" fill="#6AAFAE"/>
<path d="M71.7612 91.6803L50.5312 88.9903C55.7712 85.9703 60.7813 82.207 65.5613 77.7003C67.3679 75.9936 68.8579 76.2337 70.0312 78.4203C71.8312 81.767 72.4079 86.187 71.7612 91.6803Z" fill="#62A6A6"/>
<path d="M8.54117 81.6902C8.59049 81.6077 8.66057 81.5395 8.74442 81.4926C8.82826 81.4456 8.92291 81.4214 9.01902 81.4224C9.11512 81.4234 9.20931 81.4496 9.29215 81.4983C9.37499 81.547 9.44362 81.6166 9.49118 81.7002C13.0012 87.8502 16.7212 93.8102 19.9712 100.27C20.1027 100.528 20.1281 100.827 20.0422 101.104C19.9563 101.38 19.7657 101.612 19.5111 101.75C12.7311 105.5 7.03114 115.56 2.19114 121.66C1.46447 122.573 1.08451 122.447 1.05118 121.28C0.851181 113.41 1.18118 106.25 3.05118 98.2802C4.77118 90.9902 5.51117 86.6702 8.54117 81.6902Z" fill="#6AAFAE"/>
<path d="M50.5321 88.9902L71.762 91.6802C72.812 92.7502 76.4121 95.6502 72.1121 96.3602C63.2854 93.9202 54.1754 92.6569 44.7821 92.5702C41.6321 89.6602 48.4121 89.2602 50.5321 88.9902Z" fill="#1D253A"/>
<path d="M44.7812 92.5703C54.1746 92.657 63.2846 93.9203 72.1113 96.3603L64.0312 119.49C63.5779 120.77 62.8713 120.837 61.9113 119.69C54.9713 111.404 49.2613 102.364 44.7812 92.5703Z" fill="#62A6A6"/>
<path d="M45.512 133.02L22.582 131.72C24.2287 126.667 26.452 122.67 29.252 119.73C30.392 118.537 31.5354 118.537 32.6821 119.73L45.512 133.02Z" fill="#6DB4B2"/>
<path d="M22.5825 131.72L45.5125 133.02C48.2525 134.014 48.3625 135.507 45.8425 137.5C38.4559 136.167 31.0192 135.774 23.5325 136.32L21.0925 134.18C20.9808 134.083 20.8995 133.948 20.8572 133.789C20.8149 133.631 20.8133 133.455 20.8525 133.28C21.0459 132.367 21.6225 131.847 22.5825 131.72Z" fill="#31455A"/>
<path d="M45.8412 137.5C43.3746 143 40.5412 147.76 37.3412 151.78C37.1957 151.963 37.0129 152.112 36.8053 152.217C36.5977 152.323 36.3701 152.383 36.1379 152.394C35.9057 152.404 35.6742 152.365 35.4591 152.278C35.244 152.191 35.0504 152.059 34.8912 151.89C31.8712 148.7 27.0812 144.65 25.6312 140.56C25.0912 139.06 24.3913 137.647 23.5312 136.32C31.0179 135.774 38.4546 136.167 45.8412 137.5Z" fill="#6DB4B2"/>
<path d="M77.6014 180.24L48.9414 179.64L69.7014 143.35C70.2547 142.383 70.7314 142.413 71.1314 143.44C75.5614 154.76 77.0714 168.04 77.6014 180.24Z" fill="#6AAFAE"/>
<path d="M8.46943 163.2C8.72943 162.174 9.16609 162.09 9.77942 162.95C13.8194 168.66 19.2694 173.06 23.3894 178.9C23.4824 179.034 23.5392 179.184 23.5517 179.329C23.5642 179.474 23.532 179.608 23.4594 179.71C18.0861 187.59 12.4294 195.264 6.48945 202.73C5.28278 204.257 4.54609 204.027 4.27942 202.04C2.70942 190.04 5.50943 174.9 8.46943 163.2Z" fill="#6AAFAE"/>
<path d="M48.9422 179.64L77.6022 180.24C80.6222 181.547 80.6755 182.843 77.7622 184.13C75.4689 183.703 73.1589 183.593 70.8322 183.8C63.0322 184.48 55.2722 183.67 47.3222 183.77C43.1489 181.403 43.6888 180.027 48.9422 179.64Z" fill="#25314D"/>
<path d="M47.3203 183.77C55.2703 183.67 63.0303 184.48 70.8303 183.8C73.157 183.594 75.467 183.704 77.7603 184.13C74.9336 190.724 72.607 197.367 70.7803 204.06C70.1137 206.527 68.827 206.907 66.9203 205.2C59.6537 198.68 53.1203 191.537 47.3203 183.77Z" fill="#6AAFAE"/>
<path d="M51.3807 220.52L20.0508 220.57C20.5041 218.264 21.3474 215.874 22.5807 213.4C24.2107 210.14 25.1608 207.4 26.3708 204.29C26.4274 204.136 26.5125 203.996 26.6209 203.879C26.7293 203.762 26.8586 203.67 27.0007 203.61C30.4507 202.13 33.6508 204.47 36.6208 206.49C42.2475 210.33 47.1674 215.007 51.3807 220.52Z" fill="#6AAFAE"/>
<path d="M51.3811 220.521C53.3078 221.634 53.5945 223.054 52.2412 224.781C42.3478 225.387 32.4678 225.384 22.6012 224.771C21.0712 223.681 18.9912 223.13 20.0512 220.57L51.3811 220.521Z" fill="#353A54"/>
<path d="M52.2416 224.781C48.5549 232.447 44.5249 239.657 40.1516 246.411C38.8516 248.411 37.4216 248.51 35.8616 246.71C30.2682 240.25 25.8482 232.937 22.6016 224.771C32.4682 225.384 42.3482 225.387 52.2416 224.781Z" fill="#6AAFAE"/>
<path d="M71.3415 295.931C65.2315 289.971 55.5415 282.361 51.1715 274.251C51.0961 274.109 51.0518 273.954 51.0414 273.795C51.0311 273.637 51.055 273.478 51.1115 273.331C54.0515 265.361 61.6015 258.321 70.9515 247.701C74.1648 244.054 77.2849 241.221 80.3116 239.201C80.4477 239.11 80.6007 239.056 80.7541 239.044C80.9075 239.031 81.0554 239.061 81.1816 239.131C82.4816 239.817 83.0482 240.874 82.8815 242.301C80.7882 260.321 77.3449 278.087 72.5515 295.601C72.5177 295.722 72.4528 295.833 72.3631 295.923C72.2735 296.012 72.1622 296.076 72.0403 296.109C71.9183 296.143 71.7898 296.144 71.6673 296.112C71.5448 296.081 71.4325 296.018 71.3415 295.931Z" fill="#6DB4B2"/>
<path d="M32.0308 268.241C24.0508 268.521 15.8908 268.374 7.55078 267.801C8.85078 260.668 10.5774 254.651 12.7308 249.751C16.3108 241.571 30.7708 265.891 32.0308 268.241Z" fill="#6DB4B2"/>
<path d="M7.55164 267.801C15.8916 268.374 24.0516 268.521 32.0316 268.241C33.2116 268.367 34.3016 268.727 35.3016 269.321C35.3601 269.356 35.4105 269.403 35.4495 269.459C35.4885 269.514 35.5152 269.577 35.5275 269.643C35.5399 269.708 35.5377 269.775 35.5212 269.839C35.5046 269.902 35.4741 269.961 35.4316 270.011L32.8816 272.971L6.28162 272.321C4.58828 270.381 5.01164 268.874 7.55164 267.801Z" fill="#404860"/>
<path d="M6.28125 272.32L32.8812 272.97C28.7146 278.684 24.4413 283.994 20.0613 288.9C18.3113 290.86 16.8513 293.15 14.2313 294.58C13.7998 294.818 13.2957 294.888 12.8146 294.777C12.3335 294.667 11.9089 294.383 11.6213 293.98C9.58128 291.09 7.83127 288.78 7.30127 285.14C6.6746 280.88 6.33458 276.607 6.28125 272.32Z" fill="#75B5B5"/>
</svg>
