<svg width="155" height="170" viewBox="0 0 155 170" fill="none" xmlns="http://www.w3.org/2000/svg">
<path d="M128.368 1.0338C128.135 0.969367 127.849 0.997618 127.558 1.11375C112.904 7.05375 98.8177 14.3271 85.2977 22.9338C78.5877 27.2038 69.5977 33.3738 66.1977 40.6538C62.2277 49.1938 61.9177 59.8738 68.5777 67.3238C68.6195 67.3692 68.6706 67.405 68.7274 67.4289C68.7843 67.4528 68.8456 67.4642 68.9073 67.4623C68.969 67.4604 69.0295 67.4453 69.0848 67.418C69.1401 67.3906 69.1888 67.3516 69.2277 67.3038C79.6144 54.1971 87.0944 45.1171 91.6677 40.0638C102.188 28.4438 117.418 16.6638 129.378 3.19377C129.497 3.06273 129.582 2.90813 129.624 2.7451C129.666 2.58207 129.664 2.41622 129.618 2.26378C129.424 1.61044 129.008 1.20046 128.368 1.0338Z" stroke="#88868E" stroke-width="2"/>
<path d="M61.2671 77.8632C67.3938 82.9632 74.1872 86.7865 81.6472 89.3332C91.5172 92.7032 99.2772 95.9232 107.187 97.6632C121.907 100.903 137.387 105.703 152.127 106.303C153.847 106.377 154.06 105.847 152.767 104.713C145.187 98.0732 135.917 94.2532 126.637 90.6032C106.657 82.7432 84.4472 81.1432 66.0872 69.2832C61.2972 66.1832 58.9571 62.8632 59.1971 57.2532C59.4171 52.2132 58.5372 46.6132 57.3472 41.7432C54.8338 31.5032 52.4172 21.1599 50.0972 10.7132C50.0489 10.4993 49.9485 10.3006 49.8049 10.1348C49.6612 9.96909 49.4789 9.8414 49.274 9.7632C49.069 9.685 48.848 9.65868 48.6305 9.6866C48.4129 9.71451 48.2057 9.79577 48.0272 9.92317C44.3872 12.5532 41.6172 24.0332 41.3772 25.2532C40.5705 29.1732 40.4371 33.7298 40.9771 38.9232C42.2071 50.8032 52.0071 70.1532 61.2671 77.8632Z" stroke="#88868E" stroke-width="2"/>
<path d="M20.5367 65.8439C27.7567 71.9939 37.7667 74.3439 46.8267 71.0439C51.1867 69.4539 48.5567 66.1339 45.7367 64.9739C43.13 63.9006 40.4667 62.9905 37.7467 62.2439C25.6367 58.9039 16.3667 51.4039 9.71669 40.7439C8.55669 38.8739 6.97669 38.4039 5.59669 40.3839C5.41667 40.6416 5.33839 40.9689 5.37669 41.3039C6.46669 50.3739 13.9167 60.2039 20.5367 65.8439Z" stroke="#88868E" stroke-width="2"/>
<path d="M86.5969 57.5041C90.2169 62.0141 97.4869 66.2441 102.337 69.5241C102.602 69.7031 102.925 69.7729 103.238 69.7188C103.552 69.6647 103.831 69.4908 104.017 69.2341C105.964 66.5607 108.574 65.2574 111.847 65.3241C118.774 65.4574 125.704 65.3574 132.637 65.0241C133.37 64.9908 133.49 64.7008 132.997 64.1541C124.887 55.1341 114.317 48.5341 101.247 51.3641C95.7269 52.5641 91.8169 55.3741 87.2269 55.9541C86.0936 56.0941 85.8836 56.6107 86.5969 57.5041Z" stroke="#88868E" stroke-width="2"/>
<path d="M2.38686 82.6041C18.9269 92.9141 38.0769 90.9541 54.1269 80.4641C54.2646 80.375 54.3779 80.2578 54.4565 80.1233C54.5351 79.9888 54.5765 79.8412 54.5769 79.6941C54.5702 77.8407 53.4335 76.9007 51.1669 76.8741C43.2002 76.7874 36.7669 77.0041 31.8669 77.5241C27.6769 77.9641 22.6469 76.5541 18.1969 76.9041C14.6969 77.1841 -4.21314 78.4941 2.38686 82.6041Z" stroke="#88868E" stroke-width="2"/>
<path d="M6.20846 118.474C13.6551 123.247 21.7851 124.994 30.5985 123.714C46.3685 121.424 56.7985 113.324 58.6585 96.7939C59.0985 92.9239 61.7785 89.3039 55.7885 87.3539C55.6564 87.3113 55.5124 87.3179 55.3812 87.3726C55.2499 87.4273 55.1394 87.5267 55.0685 87.6539C45.3385 105.374 24.4385 112.204 5.03847 113.714C4.79548 113.733 4.56678 113.835 4.39162 114.003C4.21646 114.171 4.10573 114.394 4.07845 114.634C3.91178 116.181 4.62179 117.461 6.20846 118.474Z" stroke="#88868E" stroke-width="2"/>
<path d="M69.7479 111.923C74.3379 112.603 80.3579 108.893 83.7879 113.883C86.4812 117.803 89.5546 121.407 93.0079 124.693C93.2518 124.931 93.5561 125.067 93.8579 125.073L100.058 125.193C100.133 125.194 100.207 125.176 100.275 125.142C100.342 125.108 100.401 125.058 100.446 124.996C100.492 124.934 100.523 124.862 100.537 124.785C100.551 124.708 100.548 124.629 100.528 124.553C98.3146 116.74 95.3679 109.15 91.6879 101.783C89.5146 97.4501 86.4012 96.3834 82.3479 98.5834C82.2058 98.6624 82.0516 98.7121 81.895 98.7293C81.7384 98.7465 81.5827 98.7309 81.4379 98.6834C76.0446 97.0234 71.5179 94.1134 67.8579 89.9534C64.7479 86.4234 61.8879 87.7434 63.3079 92.4634C65.0279 98.1768 66.4346 103.953 67.5279 109.793C67.7612 111.033 68.5012 111.743 69.7479 111.923Z" stroke="#88868E" stroke-width="2"/>
<path d="M32.678 166.684C39.958 173.004 47.448 163.284 50.278 157.294C55.638 145.954 63.948 125.474 60.688 112.484C60.6516 112.343 60.5672 112.22 60.4509 112.139C60.3346 112.058 60.1947 112.024 60.058 112.044C59.2447 112.15 58.678 112.484 58.358 113.044C52.6247 123.017 48.4347 129.564 45.788 132.684C38.468 141.324 32.718 147.944 30.068 156.914C28.888 160.894 29.758 164.15 32.678 166.684Z" stroke="#88868E" stroke-width="2"/>
<path d="M128.368 1.0338C129.008 1.20046 129.424 1.61044 129.618 2.26378C129.664 2.41622 129.666 2.58207 129.624 2.7451C129.582 2.90813 129.497 3.06273 129.378 3.19377C117.418 16.6638 102.188 28.4438 91.6677 40.0638C87.0944 45.1171 79.6144 54.1971 69.2277 67.3038C69.1888 67.3516 69.1401 67.3906 69.0848 67.418C69.0295 67.4453 68.969 67.4604 68.9073 67.4623C68.8456 67.4642 68.7843 67.4528 68.7274 67.4289C68.6706 67.405 68.6195 67.3692 68.5777 67.3238C61.9177 59.8738 62.2277 49.1938 66.1977 40.6538C69.5977 33.3738 78.5877 27.2038 85.2977 22.9338C98.8177 14.3271 112.904 7.05375 127.558 1.11375C127.849 0.997618 128.135 0.969367 128.368 1.0338Z" fill="#120F29"/>
<path d="M61.2671 77.8632C52.0071 70.1532 42.2071 50.8032 40.9771 38.9232C40.4371 33.7298 40.5705 29.1732 41.3772 25.2532C41.6172 24.0332 44.3872 12.5532 48.0272 9.92317C48.2057 9.79577 48.4129 9.71451 48.6305 9.6866C48.848 9.65868 49.069 9.685 49.274 9.7632C49.4789 9.8414 49.6612 9.96909 49.8049 10.1348C49.9485 10.3006 50.0489 10.4993 50.0972 10.7132C52.4172 21.1599 54.8338 31.5032 57.3472 41.7432C58.5372 46.6132 59.4171 52.2132 59.1971 57.2532C58.9571 62.8632 61.2972 66.1832 66.0872 69.2832C84.4472 81.1432 106.657 82.7432 126.637 90.6032C135.917 94.2532 145.187 98.0732 152.767 104.713C154.06 105.847 153.847 106.377 152.127 106.303C137.387 105.703 121.907 100.903 107.187 97.6632C99.2772 95.9232 91.5172 92.7032 81.6472 89.3332C74.1872 86.7865 67.3938 82.9632 61.2671 77.8632Z" fill="#120F29"/>
<path d="M20.5367 65.8439C13.9167 60.2039 6.46669 50.3739 5.37669 41.3039C5.33839 40.9689 5.41667 40.6416 5.59669 40.3839C6.97669 38.4039 8.55669 38.8739 9.71669 40.7439C16.3667 51.4039 25.6367 58.9039 37.7467 62.2439C40.4667 62.9905 43.13 63.9006 45.7367 64.9739C48.5567 66.1339 51.1867 69.4539 46.8267 71.0439C37.7667 74.3439 27.7567 71.9939 20.5367 65.8439Z" fill="#120F29"/>
<path d="M102.337 69.5241C97.4869 66.2441 90.2169 62.0141 86.5969 57.5041C85.8836 56.6107 86.0936 56.0941 87.2269 55.9541C91.8169 55.3741 95.7269 52.5641 101.247 51.3641C114.317 48.5341 124.887 55.1341 132.997 64.1541C133.49 64.7008 133.37 64.9908 132.637 65.0241C125.704 65.3574 118.774 65.4574 111.847 65.3241C108.574 65.2574 105.964 66.5607 104.017 69.2341C103.831 69.4908 103.552 69.6647 103.238 69.7188C102.925 69.7729 102.602 69.7031 102.337 69.5241Z" fill="#120F29"/>
<path d="M2.38686 82.6041C-4.21314 78.4941 14.6969 77.1841 18.1969 76.9041C22.6469 76.5541 27.6769 77.9641 31.8669 77.5241C36.7669 77.0041 43.2002 76.7874 51.1669 76.8741C53.4335 76.9007 54.5702 77.8407 54.5769 79.6941C54.5765 79.8412 54.5351 79.9888 54.4565 80.1233C54.3779 80.2578 54.2646 80.375 54.1269 80.4641C38.0769 90.9541 18.9269 92.9141 2.38686 82.6041Z" fill="#120F29"/>
<path d="M6.20846 118.474C4.62179 117.461 3.91178 116.181 4.07845 114.634C4.10573 114.394 4.21646 114.171 4.39162 114.003C4.56678 113.835 4.79548 113.733 5.03847 113.714C24.4385 112.204 45.3385 105.374 55.0685 87.6539C55.1394 87.5267 55.2499 87.4273 55.3812 87.3726C55.5124 87.3179 55.6564 87.3113 55.7885 87.3539C61.7785 89.3039 59.0985 92.9239 58.6585 96.7939C56.7985 113.324 46.3685 121.424 30.5985 123.714C21.7851 124.994 13.6551 123.247 6.20846 118.474Z" fill="#120F29"/>
<path d="M69.7479 111.923C68.5012 111.743 67.7612 111.033 67.5279 109.793C66.4346 103.953 65.0279 98.1768 63.3079 92.4634C61.8879 87.7434 64.7479 86.4234 67.8579 89.9534C71.5179 94.1134 76.0446 97.0234 81.4379 98.6834C81.5827 98.7309 81.7384 98.7465 81.895 98.7293C82.0516 98.7121 82.2058 98.6624 82.3479 98.5834C86.4012 96.3834 89.5146 97.4501 91.6879 101.783C95.3679 109.15 98.3146 116.74 100.528 124.553C100.548 124.629 100.551 124.708 100.537 124.785C100.523 124.862 100.492 124.934 100.446 124.996C100.401 125.058 100.342 125.108 100.275 125.142C100.207 125.176 100.133 125.194 100.058 125.193L93.8579 125.073C93.5561 125.067 93.2518 124.931 93.0079 124.693C89.5546 121.407 86.4812 117.803 83.7879 113.883C80.3579 108.893 74.3379 112.603 69.7479 111.923Z" fill="#120F29"/>
<path d="M32.678 166.684C29.758 164.15 28.888 160.894 30.068 156.914C32.718 147.944 38.468 141.324 45.788 132.684C48.4347 129.564 52.6247 123.017 58.358 113.044C58.678 112.484 59.2447 112.15 60.058 112.044C60.1947 112.024 60.3346 112.058 60.4509 112.139C60.5672 112.22 60.6516 112.343 60.688 112.484C63.948 125.474 55.638 145.954 50.278 157.294C47.448 163.284 39.958 173.004 32.678 166.684Z" fill="#120F29"/>
</svg>
