<svg width="93" height="92" viewBox="0 0 93 92" fill="none" xmlns="http://www.w3.org/2000/svg">
<path d="M32.8921 58.3347C33.2987 59.8147 33.4721 61.908 33.4121 64.6147C33.2054 73.6147 32.8455 80.4281 32.3321 85.0547C31.3221 94.2147 40.4421 91.2747 42.5221 85.4847C44.4021 80.258 46.6154 73.3047 49.1621 64.6247C49.7621 62.578 50.4654 61.058 51.2721 60.0647C52.4521 58.6047 53.8455 58.3614 55.4521 59.3347C58.4521 61.1447 61.3521 62.6647 63.9021 65.0747C67.8021 68.7614 71.8888 72.248 76.1621 75.5347C76.4286 75.7427 76.7401 75.8617 77.0521 75.8747C86.4921 76.1547 83.2422 66.4847 80.2222 62.1147C76.2955 56.4214 72.4721 50.648 68.7521 44.7947C68.604 44.5651 68.532 44.2947 68.5464 44.0218C68.5607 43.7489 68.6608 43.4875 68.8321 43.2747C73.8821 37.0547 83.4421 32.3847 90.2921 28.2147C90.5819 28.0411 90.7951 27.7816 90.8921 27.4847C93.0221 20.9347 84.6722 20.6747 80.8722 21.8547C75.9988 23.368 70.8787 25.0547 65.5121 26.9147C63.7387 27.528 62.4554 26.9847 61.6621 25.2847C59.3821 20.4047 60.3321 11.1847 60.2521 5.5347C60.2054 2.0747 58.5221 0.594697 55.2021 1.0947C54.8793 1.14651 54.5821 1.31281 54.3622 1.5647C49.7522 6.9047 47.7121 17.1247 45.8821 24.1147C45.1821 26.7814 43.6788 27.6647 41.3722 26.7647C33.2022 23.6047 25.2321 19.9747 16.7121 17.9047C14.5988 17.3914 13.4755 18.128 13.3421 20.1147C13.2555 21.308 13.6087 22.3414 14.4021 23.2147L27.6421 37.7047C28.7821 38.9514 29.0588 40.338 28.4721 41.8647C27.7121 43.8514 26.4854 45.3314 24.7921 46.3047C22.5621 47.5947 -7.43788 62.3347 3.32213 66.3547C6.76213 67.6347 18.4322 62.5147 22.1122 61.0547C25.3622 59.7747 28.8621 59.1147 32.2721 58.0147C32.3355 57.994 32.4023 57.986 32.4684 57.991C32.5345 57.9961 32.5986 58.0141 32.6566 58.0441C32.7146 58.0741 32.7654 58.1153 32.8059 58.1653C32.8464 58.2152 32.8757 58.2729 32.8921 58.3347Z" stroke="#8C8A91" stroke-width="2"/>
<path d="M32.2721 58.0147C28.8621 59.1147 25.3622 59.7747 22.1122 61.0547C18.4322 62.5147 6.76213 67.6347 3.32213 66.3547C-7.43787 62.3347 22.5621 47.5947 24.7921 46.3047C26.4854 45.3314 27.7121 43.8514 28.4721 41.8647C29.0588 40.3381 28.7821 38.9514 27.6421 37.7047L14.4021 23.2147C13.6087 22.3414 13.2555 21.308 13.3421 20.1147C13.4755 18.128 14.5988 17.3914 16.7121 17.9047C25.2321 19.9747 33.2022 23.6047 41.3722 26.7647C43.6788 27.6647 45.1821 26.7814 45.8821 24.1147C47.7121 17.1247 49.7522 6.9047 54.3622 1.5647C54.5821 1.31281 54.8793 1.14651 55.2021 1.0947C58.5221 0.594697 60.2054 2.0747 60.2521 5.5347C60.3321 11.1847 59.3821 20.4047 61.6621 25.2847C62.4554 26.9847 63.7387 27.528 65.5121 26.9147C70.8787 25.0547 75.9988 23.368 80.8722 21.8547C84.6722 20.6747 93.0221 20.9347 90.8921 27.4847C90.7951 27.7816 90.5819 28.0411 90.2921 28.2147C83.4421 32.3847 73.8821 37.0547 68.8321 43.2747C68.6608 43.4875 68.5607 43.7489 68.5464 44.0218C68.532 44.2947 68.604 44.5651 68.7521 44.7947C72.4721 50.648 76.2955 56.4214 80.2222 62.1147C83.2421 66.4847 86.4921 76.1547 77.0521 75.8747C76.7401 75.8617 76.4286 75.7427 76.1621 75.5347C71.8888 72.248 67.8021 68.7614 63.9021 65.0747C61.3521 62.6647 58.4521 61.1447 55.4521 59.3347C53.8455 58.3614 52.4521 58.6047 51.2721 60.0647C50.4654 61.058 49.7621 62.578 49.1621 64.6247C46.6154 73.3047 44.4021 80.258 42.5221 85.4847C40.4421 91.2747 31.3221 94.2147 32.3321 85.0547C32.8455 80.4281 33.2054 73.6147 33.4121 64.6147C33.4721 61.9081 33.2987 59.8147 32.8921 58.3347C32.8757 58.2729 32.8464 58.2152 32.8059 58.1653C32.7654 58.1153 32.7146 58.0741 32.6566 58.0441C32.5986 58.0141 32.5345 57.9961 32.4684 57.991C32.4023 57.986 32.3355 57.994 32.2721 58.0147Z" fill="#1A1526"/>
</svg>
