<svg width="109" height="148" viewBox="0 0 109 148" fill="none" xmlns="http://www.w3.org/2000/svg">
<path d="M69.2438 4.26953C54.0738 8.54953 32.9138 19.0995 28.5738 35.4995C28.5331 35.6461 28.4598 35.7816 28.3593 35.8959C28.2589 36.0102 28.1339 36.1003 27.9938 36.1595C20.0538 39.4095 5.81382 44.3195 1.20382 51.8095C1.03563 52.0813 0.968437 52.4137 1.01382 52.7495C2.90382 65.9495 8.22381 76.2995 15.1338 89.7095C17.5838 94.4695 19.5838 98.0095 19.4538 103.48C19.2238 113.27 16.8238 125.97 19.6138 137.43C21.0238 143.23 21.9738 147.73 28.9938 146.44" stroke="#B3C7C7" stroke-width="2"/>
<path d="M28.9961 146.439C41.5094 146.113 52.6361 142.079 62.3761 134.339C70.5761 127.826 78.7394 121.273 86.8661 114.679" stroke="#AABBBC" stroke-width="2"/>
<path d="M86.8633 114.679C93.7233 108.609 108.003 92.8994 107.013 82.8794" stroke="#A3B7B6" stroke-width="2"/>
<path d="M107.016 82.8793C107.403 78.0527 106.759 73.0627 105.086 67.9093C102.296 59.3193 98.2561 46.5493 96.0861 35.7493C93.5361 23.0593 91.9561 12.9193 84.6761 1.77934C84.5019 1.51438 84.2577 1.30243 83.9703 1.16664C83.6828 1.03085 83.3631 0.976434 83.0461 1.00934C78.3861 1.53601 73.7861 2.62267 69.2461 4.26933" stroke="#AABBBC" stroke-width="2"/>
<path d="M107.017 82.8794C102.907 95.7594 96.0566 103.809 86.3266 113.369C86.2105 113.486 86.1326 113.63 86.1069 113.777C86.0812 113.924 86.1095 114.063 86.1865 114.169C86.3399 114.389 86.5665 114.559 86.8665 114.679" stroke="#4E757F" stroke-width="2"/>
<path d="M28.9958 146.439L26.6758 140.599" stroke="#5F8590" stroke-width="2"/>
<path d="M26.6758 140.599C28.6158 142.759 30.4791 142.839 32.2658 140.839C32.3624 140.727 32.4197 140.587 32.4288 140.441C32.4378 140.294 32.3981 140.149 32.3158 140.029C31.3158 138.589 28.5258 136.219 27.2458 139.019" stroke="#796E6C" stroke-width="2"/>
<path d="M27.2455 139.02C25.5255 139.586 24.8988 138.973 25.3655 137.18C25.8722 135.26 25.3455 133.716 23.7855 132.55C23.509 132.344 23.3233 132.065 23.2655 131.77C22.0255 125.78 23.6655 122.29 23.5055 117.3C23.2755 110.15 24.6055 102.23 21.9055 95.3995C20.4255 91.6662 18.8755 87.9295 17.2555 84.1895C17.1767 84.0034 17.1288 83.8166 17.115 83.6411C17.1012 83.4655 17.1218 83.3049 17.1755 83.1695C18.4955 79.9229 18.0655 76.9729 15.8855 74.3195C15.6322 74.0062 15.3888 73.7995 15.1555 73.6995C13.5055 73.0295 12.2055 70.6795 11.1255 69.2795C10.9766 69.0866 10.6651 68.8897 10.2555 68.7295C9.68884 68.5095 9.42881 68.0929 9.47548 67.4795C9.50821 67.123 9.43781 66.7884 9.27553 66.5295C6.70553 62.4195 3.5755 53.9195 8.8655 50.4795C8.98349 50.4018 9.12547 50.355 9.28005 50.3429C9.43462 50.3307 9.59749 50.3535 9.75551 50.4095C10.5488 50.6895 11.3855 50.7629 12.2655 50.6295C12.5033 50.5928 12.7186 50.5412 12.8904 50.4799C13.0622 50.4186 13.1845 50.3495 13.2455 50.2795C14.8255 48.4595 16.6555 48.0929 18.7355 49.1795C18.8534 49.242 18.9993 49.2726 19.1622 49.2691C19.325 49.2657 19.5006 49.2282 19.6755 49.1595C23.4155 47.7262 27.2722 46.8495 31.2455 46.5295C32.4722 46.4295 33.0722 45.7695 33.0455 44.5495C32.9155 38.9595 36.6355 36.6995 41.7355 34.9195C48.3955 32.5895 51.3455 31.6495 55.7755 27.9095C55.8624 27.8373 55.9355 27.7258 55.9893 27.5835C56.0431 27.4412 56.076 27.2722 56.0855 27.0895L56.2455 23.2695" stroke="#5F8590" stroke-width="2"/>
<path d="M56.2461 23.2695C61.2461 24.5395 74.6661 23.7795 73.5961 15.7495C73.3427 13.8361 72.2794 13.1261 70.4061 13.6195C65.9994 14.7795 62.2094 16.4828 59.0361 18.7295" stroke="#2F4250" stroke-width="2"/>
<path d="M59.0347 18.7295C58.6747 17.4029 58.6113 16.0662 58.8447 14.7195C58.8731 14.5678 58.9401 14.4162 59.0414 14.2737C59.1427 14.1311 59.2764 14.0005 59.4347 13.8895L68.1747 7.64954C68.3994 7.48901 68.5715 7.19863 68.6547 6.83954L69.2447 4.26953" stroke="#5F8590" stroke-width="2"/>
<path d="M59.037 18.7295C58.417 19.3195 54.047 22.6595 56.247 23.2695" stroke="#394E5A" stroke-width="2"/>
<path d="M27.2458 139.02L26.6758 140.6" stroke="#827A76" stroke-width="2"/>
<path d="M84.7322 47.02C84.8564 46.8672 84.9494 46.6913 85.0056 46.5025C85.0619 46.3138 85.0804 46.1158 85.0602 45.9198C85.0399 45.7239 84.9813 45.5338 84.8876 45.3606C84.7939 45.1873 84.667 45.0342 84.5141 44.9099L82.8068 43.5224C82.654 43.3982 82.4781 43.3053 82.2893 43.249C82.1005 43.1928 81.9026 43.1742 81.7066 43.1945C81.5107 43.2147 81.3206 43.2734 81.1474 43.3671C80.9741 43.4608 80.821 43.5877 80.6967 43.7405L80.0156 44.5786C79.8914 44.7315 79.7985 44.9074 79.7422 45.0961C79.6859 45.2849 79.6674 45.4829 79.6876 45.6789C79.7079 45.8748 79.7665 46.0648 79.8602 46.2381C79.9539 46.4114 80.0808 46.5645 80.2337 46.6887L81.941 48.0762C82.0939 48.2005 82.2697 48.2934 82.4585 48.3497C82.6473 48.4059 82.8453 48.4245 83.0412 48.4042C83.2372 48.384 83.4272 48.3253 83.6005 48.2316C83.7738 48.1379 83.9269 48.011 84.0511 47.8581L84.7322 47.02Z" stroke="#796E6C" stroke-width="2"/>
<path d="M10.0942 59.6796C9.94758 60.4062 9.98757 61.1396 10.2142 61.8796C10.2579 62.0265 10.3362 62.1628 10.4434 62.2788C10.5507 62.3947 10.6843 62.4872 10.8343 62.5496C16.8843 65.1396 22.3843 62.3796 26.5143 57.6896C26.6083 57.5832 26.6785 57.4422 26.7199 57.2765C26.7613 57.1107 26.7731 56.9241 26.7543 56.7296L26.2242 51.9796C26.2153 51.8985 26.1891 51.8204 26.1472 51.75C26.1054 51.6796 26.0489 51.6185 25.9812 51.5706C25.9136 51.5227 25.8362 51.489 25.7542 51.4716C25.6721 51.4542 25.587 51.4535 25.5043 51.4696C22.2343 52.1196 10.8542 56.0096 10.0942 59.6796Z" stroke="#2F4250" stroke-width="2"/>
<path d="M57.4325 54.4138C57.7139 54.6875 58.1072 54.823 58.5259 54.7906C58.9445 54.7583 59.3541 54.5606 59.6648 54.2412C59.9754 53.9218 60.1615 53.5068 60.1822 53.0874C60.2028 52.668 60.0563 52.2787 59.7749 52.005C59.4935 51.7314 59.1003 51.5959 58.6817 51.6282C58.2631 51.6606 57.8534 51.8582 57.5428 52.1776C57.2321 52.4971 57.046 52.9121 57.0254 53.3315C57.0047 53.7509 57.1511 54.1402 57.4325 54.4138Z" stroke="#796E6C" stroke-width="2"/>
<path d="M43.5458 57.0594C42.5058 56.8094 38.1458 57.0894 40.1058 58.9594C40.2342 59.0816 40.3834 59.1715 40.5393 59.2205C40.6951 59.2696 40.8523 59.2761 40.9958 59.2394C42.0491 58.966 42.9458 58.446 43.6858 57.6794C43.9925 57.3594 43.9458 57.1527 43.5458 57.0594Z" stroke="#796E6C" stroke-width="2"/>
<path d="M89.1709 58.8407C89.1072 58.5997 88.8831 58.4116 88.548 58.3178C88.2129 58.224 87.7941 58.2322 87.3839 58.3406C86.9736 58.449 86.6055 58.6487 86.3604 58.8958C86.1153 59.1429 86.0135 59.4171 86.0771 59.6581C86.1408 59.8991 86.3648 60.0872 86.6999 60.181C87.0351 60.2748 87.4538 60.2666 87.8641 60.1582C88.2744 60.0498 88.6425 59.8501 88.8876 59.603C89.1327 59.3559 89.2345 59.0817 89.1709 58.8407Z" stroke="#796E6C" stroke-width="2"/>
<path d="M69.0945 62.6493C66.6679 65.0226 67.1612 66.5926 70.5746 67.3593C70.7901 67.4057 71 67.4134 71.1755 67.3811C71.3509 67.3489 71.4833 67.2784 71.5545 67.1793C72.9812 65.206 72.5612 63.6193 70.2945 62.4193C70.1145 62.3236 69.9013 62.2943 69.6857 62.3356C69.47 62.377 69.2631 62.4868 69.0945 62.6493Z" stroke="#796E6C" stroke-width="2"/>
<path d="M55.3921 70.7373C55.3846 70.5931 55.3218 70.4531 55.2074 70.3255C55.0931 70.1978 54.9293 70.085 54.7255 69.9934C54.5217 69.9017 54.2818 69.8332 54.0196 69.7916C53.7575 69.7499 53.4781 69.7361 53.1974 69.7508C52.9168 69.7655 52.6404 69.8085 52.384 69.8773C52.1276 69.9461 51.8963 70.0394 51.7032 70.1518C51.5101 70.2642 51.359 70.3935 51.2586 70.5324C51.1582 70.6713 51.1104 70.8171 51.118 70.9613C51.1255 71.1056 51.1883 71.2455 51.3027 71.3732C51.417 71.5008 51.5808 71.6137 51.7846 71.7053C51.9884 71.7969 52.2282 71.8655 52.4904 71.9071C52.7526 71.9487 53.032 71.9625 53.3127 71.9478C53.5933 71.9331 53.8697 71.8901 54.1261 71.8213C54.3825 71.7525 54.6138 71.6593 54.8069 71.5469C55 71.4345 55.1511 71.3051 55.2515 71.1662C55.3519 71.0273 55.3997 70.8816 55.3921 70.7373Z" stroke="#796E6C" stroke-width="2"/>
<path d="M78.0387 80.7598C78.0081 80.5745 77.9122 80.4019 77.7564 80.2518C77.6006 80.1017 77.3882 79.9771 77.131 79.8851C76.8739 79.793 76.5772 79.7354 76.2578 79.7154C75.9384 79.6954 75.6027 79.7135 75.2697 79.7687C74.5973 79.88 73.977 80.1354 73.5453 80.4787C73.1136 80.8219 72.9058 81.225 72.9678 81.5992C72.9984 81.7844 73.0944 81.957 73.2501 82.1071C73.4059 82.2572 73.6184 82.3818 73.8755 82.4739C74.1327 82.5659 74.4294 82.6235 74.7488 82.6435C75.0681 82.6635 75.4039 82.6454 75.7369 82.5902C76.4093 82.4789 77.0296 82.2235 77.4613 81.8802C77.893 81.537 78.1007 81.1339 78.0387 80.7598Z" stroke="#796E6C" stroke-width="2"/>
<path d="M48.6265 88.8392C48.6087 88.8769 48.6002 88.9183 48.6017 88.96C48.6033 89.0017 48.6148 89.0424 48.6354 89.0787C48.656 89.115 48.685 89.1458 48.72 89.1685C48.755 89.1912 48.795 89.2051 48.8365 89.2092C49.6565 89.2792 55.2665 88.6892 51.1665 87.0492C50.2198 86.6758 49.3732 87.2725 48.6265 88.8392Z" stroke="#796E6C" stroke-width="2"/>
<path d="M78.7288 97.4672C78.8425 97.2735 78.907 97.0535 78.9188 96.8199C78.9306 96.5863 78.8895 96.3436 78.7976 96.1056C78.7058 95.8676 78.5651 95.639 78.3836 95.4329C78.2021 95.2268 77.9833 95.0471 77.7398 94.9043C77.248 94.6157 76.6851 94.4944 76.1751 94.5669C75.665 94.6395 75.2495 94.9 75.02 95.2912C74.9064 95.4848 74.8419 95.7048 74.8301 95.9384C74.8183 96.172 74.8595 96.4148 74.9513 96.6527C75.0432 96.8907 75.1839 97.1193 75.3654 97.3254C75.5469 97.5316 75.7656 97.7112 76.0092 97.8541C76.501 98.1426 77.0638 98.2639 77.5739 98.1914C78.0839 98.1188 78.4993 97.8583 78.7288 97.4672Z" stroke="#796E6C" stroke-width="2"/>
<path d="M61.8256 102.289C62.7922 102.029 62.8689 101.609 62.0556 101.029C58.5856 98.5492 54.3756 104.269 61.8256 102.289Z" stroke="#935D61" stroke-width="2"/>
<path d="M41.9856 126.399C41.9909 125.969 41.7378 125.554 41.2821 125.245C40.8264 124.936 40.2053 124.757 39.5556 124.749C39.2339 124.745 38.9148 124.783 38.6166 124.861C38.3184 124.939 38.0468 125.055 37.8175 125.203C37.5882 125.35 37.4056 125.527 37.28 125.722C37.1545 125.917 37.0886 126.127 37.086 126.339C37.0808 126.769 37.3339 127.184 37.7896 127.493C38.2453 127.803 38.8663 127.981 39.516 127.989C39.8377 127.993 40.1568 127.955 40.455 127.877C40.7533 127.799 41.0248 127.683 41.2541 127.536C41.4834 127.388 41.6661 127.212 41.7916 127.017C41.9171 126.822 41.983 126.612 41.9856 126.399Z" stroke="#796E6C" stroke-width="2"/>
<path d="M107.016 82.8793C102.906 95.7593 96.0555 103.809 86.3255 113.369C86.2094 113.486 86.1315 113.63 86.1059 113.777C86.0802 113.924 86.1084 114.063 86.1855 114.169C86.3388 114.389 86.5655 114.559 86.8655 114.679C78.7388 121.273 70.5755 127.826 62.3755 134.339C52.6355 142.079 41.5088 146.113 28.9955 146.439L26.6755 140.599C28.6155 142.759 30.4789 142.839 32.2655 140.839C32.3622 140.727 32.4194 140.587 32.4285 140.441C32.4375 140.294 32.3978 140.15 32.3155 140.029C31.3155 138.589 28.5255 136.219 27.2455 139.019C25.5255 139.586 24.8988 138.973 25.3655 137.179C25.8722 135.259 25.3455 133.716 23.7855 132.549C23.509 132.344 23.3233 132.065 23.2655 131.769C22.0255 125.779 23.6655 122.289 23.5055 117.299C23.2755 110.149 24.6055 102.229 21.9055 95.3993C20.4255 91.666 18.8755 87.9293 17.2555 84.1893C17.1767 84.0032 17.1288 83.8164 17.115 83.6409C17.1012 83.4653 17.1218 83.3047 17.1755 83.1693C18.4955 79.9227 18.0655 76.9727 15.8855 74.3193C15.6322 74.006 15.3888 73.7993 15.1555 73.6993C13.5055 73.0293 12.2055 70.6793 11.1255 69.2793C10.9766 69.0864 10.6651 68.8895 10.2555 68.7293C9.68884 68.5093 9.42881 68.0927 9.47548 67.4793C9.50821 67.1228 9.43781 66.7882 9.27553 66.5293C6.70553 62.4193 3.5755 53.9193 8.8655 50.4793C8.98349 50.4016 9.12547 50.3548 9.28005 50.3427C9.43462 50.3305 9.59749 50.3533 9.75551 50.4093C10.5488 50.6893 11.3855 50.7627 12.2655 50.6293C12.5033 50.5926 12.7186 50.541 12.8904 50.4797C13.0622 50.4184 13.1845 50.3493 13.2455 50.2793C14.8255 48.4593 16.6555 48.0927 18.7355 49.1793C18.8534 49.2418 18.9993 49.2724 19.1622 49.269C19.325 49.2655 19.5006 49.228 19.6755 49.1593C23.4155 47.726 27.2722 46.8493 31.2455 46.5293C32.4722 46.4293 33.0722 45.7693 33.0455 44.5493C32.9155 38.9593 36.6355 36.6993 41.7355 34.9193C48.3955 32.5893 51.3455 31.6493 55.7755 27.9093C55.8624 27.8371 55.9355 27.7256 55.9893 27.5833C56.0431 27.441 56.076 27.272 56.0855 27.0893L56.2455 23.2693C61.2455 24.5393 74.6655 23.7793 73.5955 15.7493C73.3421 13.836 72.2788 13.126 70.4055 13.6193C65.9988 14.7793 62.2088 16.4827 59.0355 18.7293C58.6755 17.4027 58.6121 16.066 58.8455 14.7193C58.8739 14.5676 58.9409 14.416 59.0422 14.2735C59.1435 14.131 59.2772 14.0003 59.4355 13.8893L68.1755 7.64934C68.4002 7.48882 68.5723 7.19844 68.6555 6.83934L69.2455 4.26933C73.7855 2.62267 78.3855 1.53601 83.0455 1.00934C83.3625 0.976434 83.6822 1.03085 83.9697 1.16664C84.2571 1.30243 84.5013 1.51438 84.6755 1.77934C91.9555 12.9193 93.5355 23.0593 96.0855 35.7493C98.2555 46.5493 102.296 59.3193 105.086 67.9093C106.759 73.0627 107.402 78.0527 107.016 82.8793ZM84.7338 47.02C84.858 46.8672 84.9509 46.6913 85.0072 46.5025C85.0635 46.3138 85.082 46.1158 85.0618 45.9198C85.0415 45.7239 84.9829 45.5338 84.8892 45.3606C84.7955 45.1873 84.6686 45.0342 84.5157 44.9099L82.8084 43.5224C82.6556 43.3982 82.4797 43.3053 82.2909 43.249C82.1021 43.1927 81.9041 43.1742 81.7082 43.1945C81.5123 43.2147 81.3222 43.2734 81.1489 43.3671C80.9757 43.4608 80.8225 43.5877 80.6983 43.7405L80.0172 44.5786C79.893 44.7315 79.8001 44.9074 79.7438 45.0961C79.6875 45.2849 79.669 45.4829 79.6892 45.6789C79.7095 45.8748 79.7681 46.0648 79.8618 46.2381C79.9555 46.4114 80.0824 46.5645 80.2353 46.6887L81.9426 48.0762C82.0955 48.2005 82.2713 48.2934 82.4601 48.3497C82.6489 48.4059 82.8469 48.4245 83.0428 48.4042C83.2387 48.384 83.4288 48.3253 83.6021 48.2316C83.7753 48.1379 83.9285 48.011 84.0527 47.8581L84.7338 47.02ZM10.0955 59.6793C9.94881 60.406 9.98881 61.1393 10.2155 61.8793C10.2591 62.0262 10.3374 62.1626 10.4447 62.2785C10.5519 62.3944 10.6855 62.487 10.8355 62.5493C16.8855 65.1393 22.3855 62.3793 26.5155 57.6893C26.6096 57.5829 26.6797 57.442 26.7211 57.2762C26.7626 57.1105 26.7743 56.9239 26.7555 56.7293L26.2255 51.9793C26.2165 51.8983 26.1903 51.8201 26.1485 51.7498C26.1066 51.6794 26.0501 51.6183 25.9824 51.5704C25.9148 51.5224 25.8375 51.4887 25.7554 51.4713C25.6733 51.454 25.5882 51.4533 25.5055 51.4693C22.2355 52.1193 10.8555 56.0093 10.0955 59.6793ZM57.4343 54.4137C57.7157 54.6874 58.109 54.8229 58.5276 54.7905C58.9462 54.7582 59.3559 54.5605 59.6665 54.2411C59.9771 53.9217 60.1632 53.5067 60.1839 53.0873C60.2046 52.6679 60.0581 52.2786 59.7767 52.0049C59.4953 51.7313 59.102 51.5958 58.6834 51.6281C58.2648 51.6605 57.8551 51.8581 57.5445 52.1775C57.2339 52.497 57.0478 52.912 57.0271 53.3314C57.0065 53.7508 57.1529 54.1401 57.4343 54.4137ZM43.5455 57.0593C42.5055 56.8093 38.1455 57.0893 40.1055 58.9593C40.2339 59.0816 40.3831 59.1715 40.539 59.2205C40.6948 59.2695 40.852 59.276 40.9955 59.2393C42.0488 58.966 42.9455 58.446 43.6855 57.6793C43.9922 57.3593 43.9455 57.1527 43.5455 57.0593ZM89.1724 58.8406C89.1087 58.5996 88.8846 58.4115 88.5495 58.3177C88.2144 58.2239 87.7957 58.2322 87.3854 58.3405C86.9751 58.4489 86.607 58.6486 86.3619 58.8957C86.1168 59.1428 86.015 59.417 86.0786 59.658C86.1423 59.8991 86.3663 60.0872 86.7014 60.181C87.0366 60.2747 87.4554 60.2665 87.8656 60.1581C88.2759 60.0497 88.644 59.85 88.8891 59.603C89.1342 59.3559 89.236 59.0817 89.1724 58.8406ZM69.0955 62.6493C66.6688 65.0227 67.1622 66.5927 70.5755 67.3593C70.7911 67.4058 71.001 67.4134 71.1764 67.3812C71.3519 67.349 71.4843 67.2785 71.5555 67.1793C72.9822 65.206 72.5622 63.6193 70.2955 62.4193C70.1154 62.3236 69.9022 62.2943 69.6866 62.3357C69.471 62.377 69.264 62.4868 69.0955 62.6493ZM55.3926 70.7373C55.385 70.5931 55.3223 70.4531 55.2079 70.3255C55.0935 70.1978 54.9298 70.085 54.726 69.9934C54.5222 69.9018 54.2823 69.8332 54.0201 69.7916C53.7579 69.75 53.4785 69.7361 53.1979 69.7508C52.9173 69.7655 52.6409 69.8085 52.3845 69.8773C52.1281 69.9461 51.8967 70.0394 51.7036 70.1518C51.5105 70.2642 51.3595 70.3935 51.2591 70.5324C51.1586 70.6713 51.1109 70.8171 51.1184 70.9613C51.126 71.1056 51.1887 71.2456 51.3031 71.3732C51.4175 71.5008 51.5813 71.6137 51.7851 71.7053C51.9888 71.7969 52.2287 71.8655 52.4909 71.9071C52.753 71.9487 53.0325 71.9626 53.3131 71.9478C53.5938 71.9331 53.8702 71.8902 54.1265 71.8214C54.3829 71.7526 54.6143 71.6593 54.8074 71.5469C55.0005 71.4345 55.1516 71.3052 55.252 71.1662C55.3524 71.0273 55.4002 70.8816 55.3926 70.7373ZM78.041 80.7596C78.0103 80.5744 77.9144 80.4018 77.7586 80.2517C77.6029 80.1016 77.3904 79.977 77.1333 79.8849C76.8761 79.7929 76.5794 79.7353 76.26 79.7153C75.9407 79.6953 75.6049 79.7134 75.2719 79.7685C74.5995 79.8799 73.9792 80.1353 73.5475 80.4785C73.1158 80.8218 72.9081 81.2249 72.97 81.599C73.0006 81.7843 73.0966 81.9569 73.2523 82.107C73.4081 82.2571 73.6206 82.3817 73.8778 82.4737C74.1349 82.5658 74.4316 82.6234 74.751 82.6434C75.0704 82.6634 75.4061 82.6453 75.7391 82.5901C76.4115 82.4788 77.0318 82.2234 77.4635 81.8801C77.8952 81.5368 78.1029 81.1338 78.041 80.7596ZM48.6255 88.8393C48.6077 88.8771 48.5992 88.9185 48.6007 88.9602C48.6023 89.0019 48.6138 89.0426 48.6344 89.0789C48.655 89.1152 48.684 89.146 48.719 89.1687C48.754 89.1914 48.794 89.2053 48.8355 89.2093C49.6555 89.2793 55.2655 88.6893 51.1655 87.0493C50.2188 86.676 49.3722 87.2727 48.6255 88.8393ZM78.7299 97.4673C78.8435 97.2737 78.9081 97.0537 78.9199 96.8201C78.9317 96.5865 78.8905 96.3438 78.7987 96.1058C78.7068 95.8678 78.5661 95.6392 78.3846 95.4331C78.2031 95.2269 77.9843 95.0473 77.7408 94.9044C77.249 94.6159 76.6861 94.4946 76.1761 94.5671C75.6661 94.6397 75.2506 94.9002 75.0211 95.2913C74.9074 95.485 74.8429 95.705 74.8311 95.9386C74.8193 96.1722 74.8605 96.4149 74.9523 96.6529C75.0442 96.8909 75.1849 97.1195 75.3664 97.3256C75.5479 97.5317 75.7667 97.7114 76.0102 97.8542C76.502 98.1428 77.0649 98.2641 77.5749 98.1916C78.0849 98.119 78.5004 97.8585 78.7299 97.4673ZM61.8255 102.289C62.7922 102.029 62.8688 101.609 62.0555 101.029C58.5855 98.5493 54.3755 104.269 61.8255 102.289ZM41.9853 126.399C41.9906 125.97 41.7375 125.554 41.2818 125.245C40.826 124.936 40.205 124.757 39.5553 124.749C39.2336 124.746 38.9145 124.784 38.6163 124.861C38.3181 124.939 38.0465 125.055 37.8172 125.203C37.5879 125.35 37.4053 125.527 37.2797 125.722C37.1542 125.917 37.0883 126.127 37.0857 126.339C37.0805 126.769 37.3336 127.184 37.7893 127.494C38.245 127.803 38.866 127.981 39.5157 127.989C39.8374 127.993 40.1565 127.955 40.4547 127.877C40.753 127.8 41.0245 127.684 41.2538 127.536C41.4831 127.388 41.6658 127.212 41.7913 127.017C41.9168 126.822 41.9827 126.612 41.9853 126.399Z" fill="#557985"/>
<path d="M69.2477 4.26953L68.6577 6.83954C68.5745 7.19863 68.4024 7.48901 68.1777 7.64954L59.4377 13.8895C59.2794 14.0005 59.1457 14.1311 59.0444 14.2737C58.9431 14.4162 58.8761 14.5678 58.8477 14.7195C58.6143 16.0662 58.6777 17.4029 59.0377 18.7295C58.4177 19.3195 54.0477 22.6595 56.2477 23.2695L56.0877 27.0895C56.0782 27.2722 56.0453 27.4412 55.9915 27.5835C55.9377 27.7258 55.8646 27.8373 55.7777 27.9095C51.3477 31.6495 48.3977 32.5895 41.7377 34.9195C36.6377 36.6995 32.9177 38.9595 33.0477 44.5495C33.0744 45.7695 32.4744 46.4295 31.2477 46.5295C27.2744 46.8495 23.4177 47.7262 19.6777 49.1595C19.5028 49.2282 19.3272 49.2657 19.1644 49.2691C19.0015 49.2726 18.8556 49.242 18.7377 49.1795C16.6577 48.0929 14.8277 48.4595 13.2477 50.2795C13.1867 50.3495 13.0644 50.4186 12.8926 50.4799C12.7208 50.5412 12.5055 50.5928 12.2677 50.6295C11.3877 50.7629 10.551 50.6895 9.75771 50.4095C9.59969 50.3535 9.43682 50.3307 9.28225 50.3429C9.12768 50.355 8.98569 50.4018 8.8677 50.4795C3.5777 53.9195 6.70773 62.4195 9.27773 66.5295C9.44001 66.7884 9.51041 67.123 9.47768 67.4795C9.43102 68.0929 9.69105 68.5095 10.2577 68.7295C10.6673 68.8897 10.9788 69.0866 11.1277 69.2795C12.2077 70.6795 13.5077 73.0295 15.1577 73.6995C15.391 73.7995 15.6344 74.0062 15.8877 74.3195C18.0677 76.9729 18.4977 79.9229 17.1777 83.1695C17.1241 83.3049 17.1034 83.4655 17.1172 83.6411C17.131 83.8166 17.1789 84.0034 17.2577 84.1895C18.8777 87.9295 20.4277 91.6662 21.9077 95.3995C24.6077 102.23 23.2777 110.15 23.5077 117.3C23.6677 122.29 22.0277 125.78 23.2677 131.77C23.3255 132.065 23.5112 132.344 23.7877 132.55C25.3477 133.716 25.8744 135.26 25.3677 137.18C24.901 138.973 25.5277 139.586 27.2477 139.02L26.6777 140.6L28.9977 146.44C21.9777 147.73 21.0277 143.23 19.6177 137.43C16.8277 125.97 19.2277 113.27 19.4577 103.48C19.5877 98.0095 17.5877 94.4695 15.1377 89.7095C8.22772 76.2995 2.90772 65.9495 1.01772 52.7495C0.972343 52.4137 1.03953 52.0813 1.20773 51.8095C5.81773 44.3195 20.0577 39.4095 27.9977 36.1595C28.1378 36.1003 28.2628 36.0102 28.3632 35.8959C28.4637 35.7816 28.537 35.6461 28.5777 35.4995C32.9177 19.0995 54.0777 8.54953 69.2477 4.26953Z" fill="#68919A"/>
<path d="M56.247 23.2695C54.047 22.6595 58.417 19.3195 59.037 18.7295C62.2103 16.4828 66.0003 14.7795 70.407 13.6195C72.2803 13.1261 73.3437 13.8361 73.597 15.7495C74.667 23.7795 61.247 24.5395 56.247 23.2695Z" fill="#090A1A"/>
<path d="M84.5159 44.9102L82.8086 43.5227C82.1657 43.0002 81.221 43.0978 80.6985 43.7407L80.0174 44.5789C79.4949 45.2218 79.5925 46.1665 80.2354 46.6889L81.9427 48.0764C82.5856 48.5989 83.5304 48.5013 84.0528 47.8584L84.734 47.0202C85.2564 46.3773 85.1588 45.4326 84.5159 44.9102Z" fill="#9C6352"/>
<path d="M10.0942 59.6796C10.8542 56.0096 22.2343 52.1196 25.5043 51.4696C25.587 51.4535 25.6721 51.4542 25.7542 51.4716C25.8362 51.489 25.9136 51.5227 25.9812 51.5706C26.0489 51.6185 26.1054 51.6796 26.1472 51.75C26.1891 51.8204 26.2153 51.8985 26.2242 51.9796L26.7543 56.7296C26.7731 56.9241 26.7613 57.1107 26.7199 57.2765C26.6785 57.4422 26.6083 57.5832 26.5143 57.6896C22.3843 62.3796 16.8843 65.1396 10.8343 62.5496C10.6843 62.4872 10.5507 62.3947 10.4434 62.2788C10.3362 62.1628 10.2579 62.0265 10.2142 61.8796C9.98757 61.1396 9.94758 60.4062 10.0942 59.6796Z" fill="#090A1A"/>
<path d="M57.5466 52.1779C56.8997 52.8431 56.8504 53.8443 57.4363 54.4141C58.0223 54.984 59.0217 54.9067 59.6686 54.2415C60.3155 53.5763 60.3648 52.5752 59.7788 52.0053C59.1928 51.4355 58.1934 51.5127 57.5466 52.1779Z" fill="#9C6352"/>
<path d="M40.1058 58.9594C38.1458 57.0894 42.5058 56.8094 43.5458 57.0594C43.9458 57.1527 43.9925 57.3594 43.6858 57.6794C42.9458 58.446 42.0491 58.966 40.9958 59.2394C40.8523 59.2761 40.6951 59.2696 40.5393 59.2205C40.3834 59.1715 40.2342 59.0816 40.1058 58.9594Z" fill="#9C6352"/>
<path d="M87.867 60.1584C88.7213 59.9327 89.3064 59.3428 89.1738 58.8409C89.0412 58.339 88.2411 58.1151 87.3868 58.3408C86.5324 58.5665 85.9473 59.1564 86.08 59.6583C86.2126 60.1602 87.0127 60.3842 87.867 60.1584Z" fill="#9C6352"/>
<path d="M69.0945 62.6493C69.2631 62.4868 69.47 62.377 69.6857 62.3356C69.9013 62.2943 70.1145 62.3236 70.2945 62.4193C72.5612 63.6193 72.9812 65.206 71.5545 67.1793C71.4833 67.2784 71.3509 67.3489 71.1755 67.3811C71 67.4134 70.7901 67.4057 70.5746 67.3593C67.1612 66.5926 66.6679 65.0226 69.0945 62.6493Z" fill="#9C6352"/>
<path d="M53.3147 71.9478C54.495 71.8859 55.426 71.344 55.3942 70.7373C55.3624 70.1306 54.3798 69.6889 53.1996 69.7508C52.0193 69.8126 51.0883 70.3546 51.1201 70.9613C51.1519 71.568 52.1344 72.0096 53.3147 71.9478Z" fill="#9C6352"/>
<path d="M75.7409 82.5903C77.1412 82.3585 78.1718 81.5389 78.0428 80.7598C77.9138 79.9806 76.6741 79.5369 75.2738 79.7687C73.8735 80.0005 72.8428 80.8201 72.9718 81.5993C73.1008 82.3784 74.3406 82.8221 75.7409 82.5903Z" fill="#9C6352"/>
<path d="M107.017 82.8794C108.007 92.8994 93.7265 108.609 86.8665 114.679C86.5665 114.559 86.3399 114.389 86.1865 114.169C86.1095 114.063 86.0812 113.924 86.1069 113.777C86.1326 113.63 86.2105 113.486 86.3266 113.369C96.0566 103.809 102.907 95.7594 107.017 82.8794Z" fill="#477179"/>
<path d="M48.6265 88.8397C49.3732 87.273 50.2198 86.6763 51.1665 87.0497C55.2665 88.6897 49.6565 89.2796 48.8365 89.2096C48.795 89.2056 48.755 89.1917 48.72 89.169C48.685 89.1463 48.656 89.1155 48.6354 89.0792C48.6148 89.0429 48.6033 89.0022 48.6017 88.9605C48.6002 88.9188 48.6087 88.8774 48.6265 88.8397Z" fill="#9C6352"/>
<path d="M76.0105 97.8542C77.0346 98.455 78.2523 98.2818 78.7302 97.4672C79.2081 96.6527 78.7653 95.5052 77.7411 94.9044C76.717 94.3035 75.4993 94.4767 75.0214 95.2913C74.5435 96.1059 74.9863 97.2533 76.0105 97.8542Z" fill="#9C6352"/>
<path d="M61.8256 102.29C54.3756 104.27 58.5856 98.5497 62.0556 101.03C62.8689 101.61 62.7922 102.03 61.8256 102.29Z" fill="#D0413D"/>
<path d="M39.5157 127.989C40.8687 128.006 41.9744 127.294 41.9853 126.399C41.9962 125.505 40.9083 124.766 39.5553 124.75C38.2023 124.733 37.0966 125.445 37.0857 126.34C37.0747 127.234 38.1627 127.973 39.5157 127.989Z" fill="#9C6352"/>
<path d="M26.6758 140.6L27.2458 139.02C28.5258 136.22 31.3158 138.59 32.3158 140.03C32.3981 140.15 32.4378 140.295 32.4288 140.441C32.4197 140.588 32.3624 140.728 32.2658 140.84C30.4791 142.84 28.6158 142.76 26.6758 140.6Z" fill="#9C6352"/>
</svg>
