<svg width="124" height="157" viewBox="0 0 124 157" fill="none" xmlns="http://www.w3.org/2000/svg">
<path d="M107.436 1.29199C96.0358 3.48199 82.1958 9.96198 72.3958 17.182C53.3291 31.2286 35.7891 47.6487 19.7758 66.442C2.53576 86.672 -7.40424 111.492 10.4158 135.512C28.0758 159.322 66.0058 160.722 89.9658 145.942C90.7191 145.482 91.3524 144.892 91.8658 144.172C94.2458 140.832 89.1458 142.762 88.4358 142.942" stroke="#FCB5A5" stroke-width="2"/>
<path d="M88.4345 142.942C89.0479 139.409 88.7679 135.606 87.5945 131.532C87.3552 130.697 86.9569 130.024 86.4645 129.622L79.6445 124.152" stroke="#FEFCF4" stroke-width="2"/>
<path d="M79.6454 124.152C92.1454 122.272 104.815 116.362 112.305 105.872C116.305 100.282 118.375 90.2422 112.475 85.1222C98.1154 72.6722 75.5854 92.6122 90.1654 101.402C95.5454 104.652 100.405 91.6122 103.225 96.6122C104.039 98.0655 103.915 99.4322 102.855 100.712C97.6154 107.032 91.1054 109.686 83.3254 108.672C76.472 107.779 72.822 104.246 72.3754 98.0722C71.7854 89.9822 77.9254 82.8322 83.3354 77.6222C102.735 58.9522 126.985 50.3022 122.125 18.7622" stroke="#FDD69C" stroke-width="2"/>
<path d="M114.144 2.40234C99.9969 16.3623 85.5103 29.959 70.6836 43.1924" stroke="#9295A9" stroke-width="2"/>
<path d="M70.6844 43.1922L69.7944 42.4422C69.6893 42.3576 69.5529 42.3163 69.4087 42.3255C69.2646 42.3346 69.1216 42.3935 69.0044 42.4922C58.1711 51.3455 48.6778 61.4589 40.5244 72.8322C33.1044 83.1722 25.1444 99.9222 27.1944 112.612C28.7944 122.492 35.2444 129.362 42.3944 135.902C49.0411 141.989 56.8544 145.529 65.8344 146.522C67.0411 146.656 67.4811 147.586 67.1544 149.312" stroke="#181C43" stroke-width="2"/>
<path d="M67.1521 149.312C35.9721 155.222 3.12212 124.942 18.2221 92.992C22.9355 83.012 29.6388 73.2253 38.3321 63.632C59.2721 40.5253 82.3055 19.7453 107.432 1.29199" stroke="#904E5B" stroke-width="2"/>
<path d="M67.1523 149.312C69.7257 148.759 72.139 147.899 74.3923 146.732" stroke="#823D45" stroke-width="2"/>
<path d="M74.3945 146.732C79.3612 146.512 84.0412 145.249 88.4345 142.942" stroke="#FCB6AB" stroke-width="2"/>
<path d="M122.125 18.7622C106.952 32.1289 91.5548 45.1289 75.9348 57.7622C72.7548 60.3355 69.8182 62.8855 67.1249 65.4122C55.0849 76.6722 43.8949 85.6522 47.3749 104.092C50.2849 119.552 65.1148 125.982 79.6448 124.152" stroke="#FDD7A2" stroke-width="2"/>
<path d="M74.3945 146.732C69.6678 146.059 65.0211 145.032 60.4545 143.652C44.4245 138.802 27.0445 123.872 28.8845 105.442C31.2545 81.6519 52.5045 59.2619 70.6845 43.1919" stroke="#848493" stroke-width="2"/>
<path d="M114.146 2.4019C99.9994 16.3619 85.5127 29.9586 70.6861 43.1919L69.796 42.4419C69.6909 42.3573 69.5545 42.3161 69.4104 42.3252C69.2662 42.3343 69.1232 42.3932 69.006 42.4919C58.1727 51.3452 48.6794 61.4586 40.526 72.8319C33.106 83.1719 25.146 99.9219 27.196 112.612C28.796 122.492 35.246 129.362 42.396 135.902C49.0427 141.989 56.856 145.529 65.836 146.522C67.0427 146.655 67.4827 147.585 67.1561 149.312C35.9761 155.222 3.12603 124.942 18.226 92.9919C22.9394 83.0119 29.6427 73.2252 38.336 63.6319C59.276 40.5252 82.3094 19.7452 107.436 1.29192C109.026 0.851917 118.696 -1.9481 114.146 2.4019Z" fill="#252C59"/>
<path d="M107.436 1.29199C82.3091 19.7453 59.2758 40.5253 38.3358 63.632C29.6424 73.2253 22.9391 83.012 18.2257 92.992C3.12574 124.942 35.9758 155.222 67.1558 149.312C69.7291 148.759 72.1424 147.899 74.3958 146.732C79.3624 146.512 84.0424 145.249 88.4358 142.942C89.1458 142.762 94.2458 140.832 91.8658 144.172C91.3524 144.892 90.7191 145.482 89.9658 145.942C66.0058 160.722 28.0758 159.322 10.4158 135.512C-7.40424 111.492 2.53576 86.672 19.7758 66.442C35.7891 47.6487 53.3291 31.2286 72.3958 17.182C82.1958 9.96198 96.0358 3.48199 107.436 1.29199Z" fill="#FA6F5C"/>
<path d="M122.125 18.7617C126.985 50.3017 102.735 58.9517 83.3348 77.6217C77.9248 82.8317 71.7849 89.9817 72.3749 98.0717C72.8215 104.245 76.4715 107.778 83.3248 108.672C91.1048 109.685 97.6148 107.032 102.855 100.712C103.915 99.4317 104.038 98.0651 103.225 96.6117C100.405 91.6117 95.5448 104.652 90.1648 101.402C75.5848 92.6117 98.1148 72.6717 112.475 85.1217C118.375 90.2417 116.305 100.282 112.305 105.872C104.815 116.362 92.1448 122.272 79.6448 124.152C65.1148 125.982 50.2849 119.552 47.3749 104.092C43.8949 85.6517 55.0849 76.6717 67.1249 65.4117C69.8182 62.885 72.7548 60.3351 75.9348 57.7617C91.5548 45.1284 106.952 32.1284 122.125 18.7617Z" fill="#FCB04A"/>
<path d="M70.6844 43.1917C52.5044 59.2617 31.2544 81.6517 28.8844 105.442C27.0444 123.872 44.4244 138.802 60.4544 143.652C65.0211 145.032 69.6678 146.058 74.3944 146.732C72.1411 147.898 69.7278 148.758 67.1544 149.312C67.4811 147.585 67.0411 146.655 65.8344 146.522C56.8544 145.528 49.0411 141.988 42.3944 135.902C35.2444 129.362 28.7944 122.492 27.1944 112.612C25.1444 99.9217 33.1044 83.1717 40.5244 72.8317C48.6778 61.4584 58.1711 51.345 69.0044 42.4917C69.1216 42.393 69.2646 42.3341 69.4087 42.325C69.5529 42.3159 69.6893 42.3571 69.7944 42.4417L70.6844 43.1917Z" fill="#0A0B2D"/>
</svg>
