<svg width="23" height="22" viewBox="0 0 23 22" fill="none" xmlns="http://www.w3.org/2000/svg">
<path d="M21.7061 10.3325C21.5816 9.10699 21.2028 7.91946 20.5914 6.83768C19.9799 5.7559 19.1477 4.80105 18.1423 4.02768C17.1369 3.25431 15.978 2.67755 14.7318 2.33032C13.4855 1.9831 12.1764 1.87221 10.879 2.004C9.58166 2.13577 8.32152 2.50763 7.17056 3.09836C6.01959 3.68908 5.00034 4.4871 4.17099 5.44684C3.34164 6.40658 2.71844 7.50925 2.33697 8.69189C1.9555 9.87454 1.82323 11.114 1.94772 12.3395C2.0722 13.565 2.45099 14.7525 3.06247 15.8343C3.67395 16.9161 4.50615 17.8709 5.51154 18.6443C6.51693 19.4177 7.67583 19.9944 8.92206 20.3416C10.1683 20.6889 11.4775 20.7998 12.7748 20.668C14.0722 20.5362 15.3323 20.1643 16.4833 19.5736C17.6342 18.9829 18.6535 18.1849 19.4828 17.2251C20.3122 16.2654 20.9354 15.1627 21.3169 13.9801C21.6983 12.7974 21.8306 11.558 21.7061 10.3325Z" stroke="#959399" stroke-width="2"/>
<path d="M12.775 20.6673C18.2311 20.1131 22.2298 15.4857 21.7062 10.3318C21.1827 5.17793 16.3353 1.44914 10.8792 2.00335C5.42305 2.55756 1.42439 7.18491 1.94791 12.3388C2.47142 17.4927 7.31887 21.2215 12.775 20.6673Z" fill="#2C2737"/>
</svg>
