<svg width="145" height="213" viewBox="0 0 145 213" fill="none" xmlns="http://www.w3.org/2000/svg">
<path d="M96.207 122.409C110.995 136.999 126.928 149.639 134.267 169.289C135.057 171.423 135.848 173.559 136.639 175.699C140.057 185.049 137.031 194.049 138.72 203.199C138.771 203.49 138.696 203.848 138.509 204.209C137.503 206.123 137.108 208.196 137.323 210.43C137.337 210.573 137.402 210.71 137.509 210.821C137.615 210.932 137.757 211.012 137.916 211.049C140.75 211.736 142.175 210.609 142.188 207.669C142.228 200.879 143.917 193.099 142.761 186.519C140.348 172.759 136.981 160.819 128.215 149.229C120.756 139.369 108.079 128.209 98.1975 117.979" stroke="#88868B" stroke-width="2"/>
<path d="M98.1996 117.979C99.9957 115.826 100.807 113.302 100.632 110.409C100.11 101.819 100.14 88.319 100.984 77.189C101.979 64.109 104.834 50.959 98.6519 38.589C96.0985 33.469 89.4637 26.879 83.2009 27.669C75.9027 28.599 73.289 40.049 70.7256 45.979C66.423 55.919 58.5015 38.439 57.0639 35.699C55.4253 32.599 48.0668 26.399 44.1362 23.599C34.1237 16.479 23.7158 9.98237 12.9125 4.10903C10.3525 2.72237 7.655 1.73233 4.82014 1.139C2.26006 0.599001 0.986701 1.63237 1.0001 4.23904C1.04702 13.3657 2.51807 22.429 5.41325 31.429C10.9422 48.639 23.6287 61.659 26.5842 80.129C26.9126 82.1757 25.914 83.4224 23.5885 83.869C17.1347 85.119 6.21745 85.489 2.47785 92.189C-3.17176 102.299 10.4898 113.469 17.4363 118.649C32.8571 130.149 54.3899 136.939 73.5403 132.659C81.7165 130.832 89.2727 127.416 96.2091 122.409" stroke="#FED693" stroke-width="2"/>
<path d="M98.1992 117.979C90.5926 109.419 83.6328 100.506 77.3197 91.2393C77.2305 91.1065 77.1686 90.9577 77.1375 90.8016C77.1065 90.6454 77.1069 90.4848 77.1388 90.3293C79.2967 79.9026 79.8664 69.396 78.8477 58.8093C78.5663 55.8693 78.8879 53.1293 78.9482 50.1893C78.9543 49.9822 78.9338 49.7873 78.8901 49.6353C78.8465 49.4832 78.7821 49.3826 78.707 49.3493C78.0837 49.0893 77.4303 49.0493 76.7467 49.2293C76.6419 49.2566 76.5394 49.3579 76.4543 49.5182C76.3692 49.6785 76.3061 49.8893 76.2743 50.1193C74.7865 60.7593 75.9425 71.6993 74.7563 82.4993C74.5954 83.9193 74.0291 84.106 73.0574 83.0593C68.785 78.4893 58.5614 66.6493 58.4609 60.4193C58.4307 58.6793 59.0439 32.4693 53.917 36.5293C53.8038 36.62 53.7116 36.7416 53.6473 36.8851C53.583 37.0287 53.5481 37.1906 53.5451 37.3593C53.5317 39.5926 53.6088 41.826 53.7763 44.0593C54.1282 48.9593 53.5652 53.7293 53.6858 58.4093C53.7193 59.7226 53.267 59.916 52.3287 58.9893C41.3177 48.116 31.4594 36.386 22.7537 23.7993C21.6881 22.2593 19.4765 21.5792 19.185 24.1292C19.1522 24.4279 19.2262 24.7504 19.3961 25.0493C33.5604 49.6193 53.907 67.6693 70.7653 91.3293C71.7807 92.7393 73.7008 94.8493 74.515 96.5093C75.3394 98.1893 74.8065 99.016 72.9166 98.9893C60.4714 98.8093 48.3612 97.956 36.5862 96.4293C32.2334 95.8593 26.051 95.7293 21.9897 96.8993C20.9844 97.1893 14.1084 99.3693 16.2094 100.919C16.4494 101.1 16.7807 101.192 17.1443 101.179C20.4114 101.029 23.4775 99.9193 26.5335 99.8993C39.5618 99.8093 52.9922 102.149 65.1258 103.379C69.7835 103.859 74.4647 103.423 79.1694 102.069C79.3117 102.027 79.4634 102.029 79.6049 102.073C79.7465 102.118 79.8714 102.204 79.9636 102.319L96.2087 122.409" stroke="#88642E" stroke-width="2"/>
<path d="M98.1996 117.979C90.593 109.419 83.6332 100.506 77.3201 91.239C77.2309 91.1063 77.169 90.9575 77.138 90.8013C77.1069 90.6451 77.1073 90.4846 77.1392 90.329C79.2972 79.9023 79.8668 69.3957 78.8481 58.809C78.5667 55.869 78.8883 53.129 78.9487 50.189C78.9547 49.982 78.9342 49.7871 78.8905 49.635C78.8469 49.483 78.7825 49.3824 78.7074 49.349C78.0841 49.089 77.4307 49.049 76.7471 49.229C76.6423 49.2564 76.5398 49.3577 76.4547 49.518C76.3696 49.6783 76.3065 49.889 76.2747 50.119C74.7869 60.759 75.9429 71.699 74.7567 82.499C74.5959 83.919 74.0295 84.1057 73.0578 83.059C68.7854 78.489 58.5618 66.649 58.4613 60.419C58.4311 58.679 59.0443 32.469 53.9174 36.529C53.8042 36.6197 53.712 36.7413 53.6477 36.8848C53.5834 37.0284 53.5485 37.1904 53.5455 37.359C53.5321 39.5924 53.6092 41.8257 53.7767 44.059C54.1286 48.959 53.5656 53.729 53.6862 58.409C53.7197 59.7224 53.2674 59.9157 52.3292 58.989C41.3181 48.1157 31.4598 36.3857 22.7541 23.799C21.6885 22.259 19.4769 21.579 19.1854 24.129C19.1526 24.4276 19.2266 24.7501 19.3965 25.049C33.5608 49.619 53.9074 67.669 70.7657 91.329C71.7811 92.739 73.7012 94.849 74.5154 96.509C75.3398 98.189 74.8069 99.0157 72.917 98.989C60.4718 98.809 48.3617 97.9557 36.5866 96.429C32.2338 95.859 26.0514 95.729 21.9901 96.899C20.9849 97.189 14.1088 99.369 16.2098 100.919C16.4498 101.1 16.7811 101.192 17.1447 101.179C20.4118 101.029 23.4779 99.919 26.5339 99.899C39.5622 99.809 52.9926 102.149 65.1262 103.379C69.7839 103.859 74.4651 103.422 79.1698 102.069C79.3121 102.027 79.4638 102.029 79.6054 102.073C79.7469 102.118 79.8718 102.203 79.964 102.319L96.2091 122.409C89.2727 127.416 81.7165 130.832 73.5403 132.659C54.3899 136.939 32.8571 130.149 17.4363 118.649C10.4898 113.469 -3.17176 102.299 2.47785 92.189C6.21745 85.4891 17.1347 85.119 23.5885 83.869C25.914 83.4224 26.9126 82.1757 26.5842 80.129C23.6287 61.659 10.9422 48.639 5.41325 31.429C2.51807 22.429 1.04702 13.3657 1.0001 4.23904C0.986701 1.63237 2.26006 0.599001 4.82014 1.139C7.655 1.73233 10.3525 2.72237 12.9125 4.10903C23.7158 9.98237 34.1237 16.479 44.1362 23.599C48.0668 26.399 55.4253 32.599 57.0639 35.699C58.5015 38.439 66.423 55.919 70.7256 45.979C73.289 40.049 75.9027 28.599 83.2009 27.669C89.4637 26.879 96.0985 33.469 98.6519 38.589C104.834 50.959 101.979 64.109 100.984 77.189C100.14 88.319 100.11 101.819 100.632 110.409C100.807 113.302 99.9957 115.826 98.1996 117.979Z" fill="#FEB436"/>
<path d="M98.1992 117.979C108.081 128.209 120.757 139.369 128.216 149.229C136.982 160.819 140.35 172.759 142.763 186.519C143.919 193.099 142.23 200.879 142.19 207.669C142.176 210.609 140.752 211.736 137.917 211.049C137.759 211.012 137.617 210.932 137.51 210.821C137.404 210.71 137.339 210.573 137.324 210.429C137.11 208.196 137.505 206.123 138.51 204.209C138.698 203.848 138.773 203.49 138.722 203.199C137.033 194.049 140.059 185.049 136.641 175.699C135.85 173.559 135.059 171.423 134.268 169.289C126.93 149.639 110.996 136.999 96.2087 122.409L79.9636 102.319C79.8714 102.204 79.7465 102.118 79.6049 102.073C79.4634 102.029 79.3117 102.027 79.1694 102.069C74.4647 103.423 69.7835 103.859 65.1258 103.379C52.9922 102.149 39.5618 99.8093 26.5335 99.8993C23.4775 99.9193 20.4114 101.029 17.1443 101.179C16.7807 101.192 16.4494 101.1 16.2094 100.919C14.1084 99.3693 20.9844 97.1893 21.9897 96.8993C26.051 95.7293 32.2334 95.8593 36.5862 96.4293C48.3612 97.956 60.4714 98.8093 72.9166 98.9893C74.8065 99.016 75.3393 98.1893 74.515 96.5093C73.7008 94.8493 71.7807 92.7393 70.7653 91.3293C53.907 67.6693 33.5604 49.6193 19.3961 25.0493C19.2262 24.7504 19.1522 24.4279 19.185 24.1292C19.4765 21.5792 21.6881 22.2593 22.7537 23.7993C31.4593 36.386 41.3177 48.116 52.3287 58.9893C53.267 59.916 53.7193 59.7226 53.6858 58.4093C53.5652 53.7293 54.1282 48.9593 53.7763 44.0593C53.6088 41.826 53.5317 39.5926 53.5451 37.3593C53.5481 37.1906 53.583 37.0287 53.6473 36.8851C53.7116 36.7416 53.8038 36.62 53.917 36.5293C59.0439 32.4693 58.4307 58.6793 58.4609 60.4193C58.5614 66.6493 68.785 78.4893 73.0574 83.0593C74.0291 84.106 74.5954 83.9193 74.7563 82.4993C75.9425 71.6993 74.7864 60.7593 76.2742 50.1193C76.3061 49.8893 76.3692 49.6785 76.4543 49.5182C76.5394 49.3579 76.6419 49.2566 76.7467 49.2293C77.4303 49.0493 78.0837 49.0893 78.707 49.3493C78.782 49.3826 78.8465 49.4832 78.8901 49.6353C78.9338 49.7873 78.9542 49.9822 78.9482 50.1893C78.8879 53.1293 78.5663 55.8693 78.8477 58.8093C79.8664 69.396 79.2967 79.9026 77.1388 90.3293C77.1069 90.4848 77.1065 90.6454 77.1375 90.8016C77.1686 90.9577 77.2305 91.1065 77.3197 91.2393C83.6328 100.506 90.5926 109.419 98.1992 117.979Z" fill="#121426"/>
</svg>
