<svg width="66" height="21" viewBox="0 0 66 21" fill="none" xmlns="http://www.w3.org/2000/svg">
<path d="M4.11584 17.9755C4.99584 18.7622 6.27587 19.1822 7.95587 19.2355C16.3959 19.5155 24.7625 19.1288 33.0558 18.0755C43.4658 16.7455 58.4959 21.1956 64.1359 9.36555C65.1359 7.26555 65.2158 4.83555 64.4758 2.73555C64.0425 1.52221 63.1825 0.942223 61.8959 0.995556C54.5359 1.29556 46.6159 2.73556 40.0959 3.06556C28.3559 3.66556 16.6359 3.22553 4.82587 5.28553C3.33253 5.54553 2.33253 6.31219 1.82587 7.58552C0.205866 11.6789 0.969177 15.1422 4.11584 17.9755Z" stroke="#838284" stroke-width="2"/>
<path d="M45.1165 6.37496C33.3465 7.28496 21.4165 7.0049 9.63649 6.6949C5.38649 6.5749 3.53648 10.6749 3.74648 14.2649C3.75476 14.4096 3.80863 14.5496 3.9012 14.6671C3.99378 14.7846 4.12092 14.8744 4.2665 14.9249C6.6165 15.7649 8.01647 16.7849 10.6165 16.5749C16.2431 16.1282 21.8765 15.8516 27.5165 15.745C33.7865 15.635 40.7065 14.6849 47.4065 14.6949C54.5265 14.6949 59.2065 14.4849 61.6165 7.57491C62.2098 5.88158 61.6132 4.96825 59.8265 4.83492C54.4765 4.43492 50.2665 5.98496 45.1165 6.37496Z" stroke="#11131F" stroke-width="2"/>
<path d="M4.11584 17.9755C0.969177 15.1422 0.205866 11.6789 1.82587 7.58552C2.33253 6.31219 3.33253 5.54553 4.82587 5.28553C16.6359 3.22553 28.3559 3.66556 40.0959 3.06556C46.6159 2.73556 54.5359 1.29556 61.8959 0.995556C63.1825 0.942223 64.0425 1.52221 64.4758 2.73555C65.2158 4.83555 65.1359 7.26555 64.1359 9.36555C58.4959 21.1956 43.4658 16.7455 33.0558 18.0755C24.7625 19.1288 16.3959 19.5155 7.95587 19.2355C6.27587 19.1822 4.99584 18.7622 4.11584 17.9755ZM45.1158 6.37556C33.3458 7.28556 21.4159 7.00551 9.63586 6.69551C5.38586 6.57551 3.53585 10.6755 3.74585 14.2655C3.75413 14.4102 3.808 14.5502 3.90057 14.6677C3.99315 14.7852 4.12029 14.875 4.26587 14.9255C6.61587 15.7655 8.01584 16.7855 10.6158 16.5755C16.2425 16.1288 21.8759 15.8522 27.5159 15.7456C33.7859 15.6356 40.7059 14.6855 47.4059 14.6955C54.5259 14.6955 59.2058 14.4855 61.6158 7.57551C62.2092 5.88218 61.6125 4.96886 59.8259 4.83552C54.4759 4.43552 50.2658 5.98556 45.1158 6.37556Z" fill="#060509"/>
<path d="M45.1165 6.37496C50.2665 5.98496 54.4765 4.43492 59.8265 4.83492C61.6132 4.96825 62.2098 5.88158 61.6165 7.57491C59.2065 14.4849 54.5265 14.6949 47.4065 14.6949C40.7065 14.6849 33.7865 15.635 27.5165 15.745C21.8765 15.8516 16.2431 16.1282 10.6165 16.5749C8.01647 16.7849 6.6165 15.7649 4.2665 14.9249C4.12092 14.8744 3.99378 14.7846 3.9012 14.6671C3.80863 14.5496 3.75476 14.4096 3.74648 14.2649C3.53648 10.6749 5.38649 6.5749 9.63649 6.6949C21.4165 7.0049 33.3465 7.28496 45.1165 6.37496Z" fill="#1B2035"/>
</svg>
