<svg width="165" height="177" viewBox="0 0 165 177" fill="none" xmlns="http://www.w3.org/2000/svg">
<path d="M3.66016 119.203C4.1829 120.676 5.19822 121.42 6.70612 121.433C13.2806 121.493 19.9288 121.313 26.6506 120.893" stroke="#848485" stroke-width="2"/>
<path d="M26.6502 120.893C36.7431 120.393 29.0829 132.443 26.1274 137.553C24.0164 141.2 21.979 144.886 20.0154 148.613C18.216 152.043 18.2461 155.233 18.2461 158.933C18.246 159.286 18.3536 159.604 18.5477 159.823C19.104 160.483 19.8344 160.853 20.7392 160.933" stroke="#8B8B91" stroke-width="2"/>
<path d="M20.7422 160.933C30.4732 165.233 41.4206 148.463 50.6891 146.893" stroke="#828181" stroke-width="2"/>
<path d="M50.6875 146.893L51.7723 147.153" stroke="#8B8B91" stroke-width="2"/>
<path d="M51.7695 147.153C53.264 155.233 54.4436 163.353 55.3081 171.513C55.5795 174.123 57.2583 176.563 60.0328 175.053C63.1894 173.343 64.0338 167.563 64.9888 163.933C66.6911 157.473 70.1358 151.306 75.323 145.433" stroke="#868589" stroke-width="2"/>
<path d="M75.3236 145.433C77.0661 145.133 78.3059 145.563 79.0431 146.723C83.8382 154.233 88.573 164.383 95.5597 169.883C95.8328 170.097 96.1483 170.213 96.4543 170.213C108.558 170.223 95.5798 140.243 109.754 149.053C114.268 151.863 118.56 153.933 123.315 157.073C127.919 160.113 135.579 161.003 138.465 155.563C142.948 147.163 133.388 136.313 132.352 129.193C131.903 126.087 133.076 124.743 135.871 125.163C142.315 126.123 150.025 128.423 156.177 125.353C157.565 124.667 158.258 123.613 158.258 122.193L158.248 117.933C158.248 117.823 158.215 117.692 158.151 117.55C158.087 117.407 157.994 117.255 157.876 117.103C153.131 111.043 146.818 108.033 140.636 104.183C136.394 101.553 139.088 99.2032 142.385 98.6632C144.737 98.2832 148.259 97.5232 152.95 96.3832C165.416 93.3632 167.838 80.7533 152.84 79.7133C149.814 79.5033 139.108 76.2732 137.861 74.8432C137.559 74.4922 137.404 74.0389 137.428 73.5772C137.452 73.1155 137.654 72.6808 137.992 72.3632C144.024 66.7132 152.116 60.1132 156.268 53.1332C156.438 52.8471 156.515 52.5187 156.489 52.1932C155.775 43.3232 144.687 42.9233 137.409 44.0233C134.423 44.4833 130.885 45.8932 127.417 46.3432C127.279 46.3589 127.14 46.3234 127.029 46.2438C126.917 46.1641 126.84 46.0461 126.813 45.9132C126.371 43.9632 126.11 42.5833 126.854 40.5833C129.608 33.1233 133.891 24.3032 134.514 16.4032C134.526 16.2372 134.509 16.0768 134.464 15.9334C134.419 15.7899 134.347 15.6669 134.252 15.5732L129.317 10.7033C129.199 10.5833 129.051 10.4949 128.884 10.446C128.717 10.3972 128.538 10.3893 128.362 10.4232C126.666 10.7632 125.359 11.4799 124.441 12.5732C120.125 17.7466 115.564 22.7066 110.759 27.4533C109.332 28.8533 108.236 28.5865 107.472 26.6532C104.832 19.9732 102.312 13.2499 99.9125 6.48322C98.0427 1.23322 92.1819 -1.17678 88.2815 3.48322C83.5366 9.13322 81.9081 17.9832 80.3801 24.1232C79.1537 29.0232 76.158 29.6132 73.6649 25.0632C70.3207 18.9632 66.5141 13.1466 62.245 7.61323C57.088 0.933226 49.6691 1.72324 49.0157 10.9432C48.8013 13.9699 48.6304 16.9966 48.503 20.0233C48.3522 23.7933 46.7941 27.5132 46.6835 31.4732C46.677 31.6945 46.6239 31.9121 46.5275 32.1116C46.4311 32.3112 46.2936 32.4884 46.1239 32.6317C45.9543 32.775 45.7562 32.8813 45.5426 32.9435C45.329 33.0058 45.1047 33.0228 44.8841 32.9932C38.2292 32.1032 23.1099 29.4032 17.5307 33.8232C9.16686 40.4332 25.221 54.5433 29.9156 59.3333C30.9879 60.4399 31.6882 61.7432 32.0166 63.2432C33.2632 69.0332 22.5872 69.2032 19.2497 68.8732C18.9146 68.8332 18.5963 68.8799 18.2947 69.0133C13.781 70.9533 9.74992 70.2633 5.13573 70.8933C3.34636 71.1399 2.11992 71.7699 1.45645 72.7832C-1.48899 77.2932 10.6748 84.8933 13.5297 87.5833C17.209 91.0733 21.7428 91.4132 25.6834 94.6332C26.7289 95.4932 26.7088 96.3232 25.6231 97.1232C17.7686 102.923 10.6647 109.4 4.31141 116.553C3.21902 117.787 3.00121 118.67 3.65799 119.203" stroke="#8B8B91" stroke-width="2"/>
<path d="M75.323 145.433C75.4034 144.96 74.9745 144.78 74.0362 144.893C73.7187 144.932 73.4158 145.091 73.1818 145.343C69.7571 149.043 67.2272 153.253 65.592 157.973C64.6671 160.673 63.0587 163.353 62.164 166.203C62.1072 166.384 62.0183 166.548 61.9036 166.683C61.7889 166.818 61.6512 166.92 61.5005 166.983C60.2004 167.543 58.9203 167.456 57.6604 166.723C57.5145 166.639 57.391 166.525 57.3001 166.389C57.2092 166.254 57.1535 166.101 57.1377 165.943C56.7356 162.253 55.5493 147.463 51.7695 147.153" stroke="#131829" stroke-width="2"/>
<path d="M50.6891 146.893C50.9036 145.007 50.2535 144.457 48.7389 145.243C45.8706 146.73 41.6384 149.56 36.0424 153.733C33.3885 155.703 30.3526 156.763 27.387 158.203C25.2961 159.213 23.5569 158.943 21.3353 158.953C21.1982 158.955 21.067 159.008 20.9682 159.101C20.8693 159.194 20.8101 159.32 20.8025 159.453L20.7422 160.933" stroke="#0F1421" stroke-width="2"/>
<path d="M26.6506 120.893C25.6387 119.367 24.0168 118.693 21.7852 118.873C18.6286 119.133 12.5869 119.243 3.66016 119.203" stroke="#111625" stroke-width="2"/>
<path d="M73.0041 112.058C79.1845 114.103 85.9719 113.492 91.8732 110.359C97.7745 107.227 102.306 101.829 104.472 95.3543C105.544 92.1482 106.003 88.7739 105.822 85.4243C105.642 82.0746 104.825 78.8152 103.419 75.832C102.014 72.8488 100.046 70.2004 97.6292 68.0379C95.2122 65.8753 92.3932 64.2411 89.3329 63.2284C83.1526 61.1833 76.3651 61.7941 70.4638 64.9266C64.5625 68.0591 60.0308 73.4566 57.8654 79.9317C56.7932 83.1379 56.3343 86.5121 56.5149 89.8618C56.6954 93.2114 57.5119 96.4708 58.9176 99.454C60.3234 102.437 62.2909 105.086 64.7079 107.248C67.1249 109.411 69.9439 111.045 73.0041 112.058Z" stroke="#8B6934" stroke-width="2"/>
<path d="M80.7104 87.4759C80.5116 87.2172 80.2498 87.0104 79.9401 86.8672C79.6303 86.724 79.2787 86.6473 78.9052 86.6415C78.5318 86.6356 78.1438 86.7008 77.7635 86.8332C77.3831 86.9656 77.0179 87.1626 76.6886 87.4131C76.0235 87.9189 75.5452 88.6115 75.3589 89.3387C75.1726 90.0658 75.2936 90.7678 75.6952 91.2903C75.894 91.5491 76.1558 91.7559 76.4655 91.8991C76.7753 92.0423 77.1269 92.119 77.5004 92.1248C77.8739 92.1307 78.2618 92.0655 78.6422 91.9332C79.0225 91.8008 79.3877 91.6037 79.717 91.3533C80.3821 90.8475 80.8604 90.1548 81.0467 89.4277C81.233 88.7005 81.112 87.9985 80.7104 87.4759Z" stroke="#FEC154" stroke-width="2"/>
<path d="M75.3236 145.433C75.404 144.96 74.9751 144.78 74.0368 144.893C73.7193 144.932 73.4164 145.091 73.1824 145.343C69.7578 149.043 67.2278 153.253 65.5926 157.973C64.6677 160.673 63.0593 163.353 62.1646 166.203C62.1079 166.384 62.0189 166.548 61.9042 166.683C61.7895 166.818 61.6518 166.921 61.5011 166.983C60.201 167.543 58.921 167.457 57.661 166.723C57.5152 166.64 57.3916 166.525 57.3007 166.39C57.2098 166.254 57.1541 166.101 57.1383 165.943C56.7362 162.253 55.55 147.463 51.7701 147.153L50.6845 146.893C50.8989 145.007 50.2488 144.457 48.7342 145.243C45.8659 146.73 41.6337 149.56 36.0377 153.733C33.3838 155.703 30.3479 156.763 27.3823 158.203C25.2914 159.213 23.5523 158.943 21.3306 158.953C21.1935 158.955 21.0623 159.008 20.9635 159.101C20.8647 159.194 20.8055 159.32 20.7978 159.453L20.7375 160.933C19.8328 160.853 19.1023 160.483 18.546 159.823C18.3519 159.604 18.2443 159.286 18.2444 158.933C18.2444 155.233 18.2143 152.043 20.0137 148.613C21.9773 144.887 24.0147 141.2 26.1257 137.553C29.0812 132.443 36.7414 120.393 26.6485 120.893C25.6365 119.367 24.0147 118.693 21.783 118.873C18.6264 119.133 12.5848 119.243 3.65799 119.203C3.00121 118.67 3.21902 117.787 4.31141 116.553C10.6647 109.4 17.7686 102.923 25.6231 97.1232C26.7088 96.3232 26.7289 95.4932 25.6834 94.6332C21.7428 91.4132 17.209 91.0733 13.5297 87.5833C10.6748 84.8933 -1.48899 77.2932 1.45645 72.7832C2.11992 71.7699 3.34636 71.1399 5.13573 70.8933C9.74992 70.2633 13.781 70.9533 18.2947 69.0133C18.5963 68.8799 18.9146 68.8332 19.2497 68.8732C22.5872 69.2032 33.2631 69.0332 32.0166 63.2432C31.6882 61.7432 30.9879 60.4399 29.9156 59.3333C25.221 54.5433 9.16686 40.4332 17.5307 33.8232C23.1099 29.4032 38.2292 32.1032 44.8841 32.9932C45.1047 33.0228 45.329 33.0058 45.5426 32.9435C45.7562 32.8813 45.9543 32.775 46.1239 32.6317C46.2936 32.4884 46.4311 32.3112 46.5275 32.1116C46.6239 31.9121 46.677 31.6945 46.6835 31.4732C46.7941 27.5132 48.3522 23.7933 48.503 20.0233C48.6304 16.9966 48.8013 13.9699 49.0157 10.9432C49.6691 1.72324 57.088 0.933226 62.245 7.61323C66.5141 13.1466 70.3207 18.9632 73.6649 25.0632C76.158 29.6132 79.1537 29.0232 80.3801 24.1232C81.9081 17.9832 83.5366 9.13322 88.2815 3.48322C92.1819 -1.17678 98.0427 1.23322 99.9125 6.48322C102.312 13.2499 104.832 19.9732 107.472 26.6532C108.236 28.5865 109.332 28.8533 110.759 27.4533C115.564 22.7066 120.125 17.7466 124.441 12.5732C125.359 11.4799 126.666 10.7632 128.362 10.4232C128.538 10.3893 128.717 10.3972 128.884 10.446C129.051 10.4949 129.199 10.5833 129.317 10.7033L134.252 15.5732C134.347 15.6669 134.419 15.7899 134.464 15.9334C134.509 16.0768 134.526 16.2372 134.514 16.4032C133.891 24.3032 129.608 33.1233 126.854 40.5833C126.11 42.5833 126.371 43.9632 126.813 45.9132C126.84 46.0461 126.917 46.1641 127.029 46.2438C127.14 46.3234 127.279 46.3589 127.417 46.3432C130.885 45.8932 134.423 44.4833 137.409 44.0233C144.687 42.9233 155.775 43.3232 156.489 52.1932C156.515 52.5187 156.438 52.8471 156.268 53.1332C152.116 60.1132 144.024 66.7132 137.992 72.3632C137.654 72.6808 137.452 73.1155 137.428 73.5772C137.404 74.0389 137.559 74.4922 137.861 74.8432C139.108 76.2732 149.814 79.5033 152.84 79.7133C167.838 80.7533 165.416 93.3633 152.95 96.3832C148.259 97.5232 144.737 98.2832 142.385 98.6632C139.088 99.2032 136.394 101.553 140.636 104.183C146.818 108.033 153.131 111.043 157.876 117.103C157.994 117.255 158.087 117.407 158.151 117.55C158.215 117.692 158.248 117.823 158.248 117.933L158.258 122.193C158.258 123.613 157.565 124.667 156.177 125.353C150.025 128.423 142.315 126.123 135.871 125.163C133.076 124.743 131.903 126.087 132.352 129.193C133.388 136.313 142.948 147.163 138.465 155.563C135.579 161.003 127.919 160.113 123.315 157.073C118.56 153.933 114.268 151.863 109.754 149.053C95.5798 140.243 108.558 170.223 96.4543 170.213C96.1483 170.213 95.8328 170.097 95.5597 169.883C88.573 164.383 83.8382 154.233 79.0431 146.723C78.3059 145.563 77.0661 145.133 75.3236 145.433ZM72.9998 112.058C79.1802 114.103 85.9676 113.492 91.8689 110.36C97.7702 107.227 102.302 101.83 104.467 95.3546C105.54 92.1484 105.998 88.7742 105.818 85.4245C105.637 82.0749 104.821 78.8154 103.415 75.8322C102.009 72.8491 100.042 70.2006 97.6249 68.0381C95.2079 65.8756 92.3888 64.2413 89.3286 63.2286C83.1482 61.1835 76.3608 61.7943 70.4595 64.9268C64.5582 68.0593 60.0264 73.4568 57.8611 79.932C56.7889 83.1381 56.33 86.5124 56.5105 89.862C56.6911 93.2117 57.5075 96.4711 58.9133 99.4542C60.319 102.437 62.2866 105.086 64.7035 107.248C67.1205 109.411 69.9396 111.045 72.9998 112.058Z" fill="#181D31"/>
<path d="M26.6507 120.893C19.9288 121.313 13.2806 121.493 6.70612 121.433C5.19822 121.42 4.1829 120.677 3.66016 119.203C12.5869 119.243 18.6286 119.133 21.7852 118.873C24.0168 118.693 25.6387 119.367 26.6507 120.893Z" fill="#090F19"/>
<path d="M50.6891 146.893C41.4206 148.463 30.4732 165.233 20.7422 160.933L20.8025 159.453C20.8101 159.32 20.8693 159.194 20.9682 159.101C21.067 159.008 21.1982 158.955 21.3353 158.953C23.5569 158.943 25.2961 159.213 27.387 158.203C30.3526 156.763 33.3885 155.703 36.0424 153.733C41.6384 149.56 45.8706 146.73 48.7389 145.243C50.2535 144.457 50.9036 145.007 50.6891 146.893Z" fill="#060A11"/>
<path d="M75.323 145.433C70.1358 151.307 66.6911 157.473 64.9888 163.933C64.0338 167.563 63.1894 173.343 60.0328 175.053C57.2583 176.563 55.5795 174.123 55.3081 171.513C54.4436 163.353 53.264 155.233 51.7695 147.153C55.5493 147.463 56.7356 162.253 57.1377 165.943C57.1535 166.101 57.2092 166.254 57.3001 166.389C57.391 166.525 57.5145 166.639 57.6604 166.723C58.9203 167.456 60.2004 167.543 61.5005 166.983C61.6512 166.92 61.7889 166.818 61.9036 166.683C62.0183 166.548 62.1072 166.384 62.164 166.203C63.0587 163.353 64.6671 160.673 65.592 157.973C67.2272 153.253 69.7571 149.043 73.1818 145.343C73.4158 145.091 73.7187 144.932 74.0362 144.893C74.9745 144.78 75.4034 144.96 75.323 145.433Z" fill="#0E1221"/>
<path d="M78.5582 112.058C75.514 111.045 72.7097 109.411 70.3054 107.248C67.9011 105.086 65.9439 102.437 64.5455 99.454C63.1471 96.4708 62.3349 93.2114 62.1553 89.8618C61.9757 86.5121 62.4322 83.1379 63.4988 79.9317C65.6528 73.4566 70.1608 68.0591 76.0312 64.9266C81.9015 61.7941 88.6534 61.1833 94.8014 63.2284C97.8455 64.2411 100.65 65.8753 103.054 68.0379C105.458 70.2004 107.416 72.8488 108.814 75.832C110.212 78.8152 111.025 82.0746 111.204 85.4243C111.384 88.7739 110.927 92.1482 109.861 95.3543C107.707 101.829 103.199 107.227 97.3284 110.359C91.458 113.492 84.7061 114.103 78.5582 112.058ZM86.2243 87.4758C86.0264 87.2171 85.766 87.0102 85.4579 86.867C85.1498 86.7238 84.8 86.6472 84.4285 86.6413C84.057 86.6355 83.6711 86.7006 83.2927 86.833C82.9144 86.9654 82.551 87.1625 82.2234 87.4129C81.5619 87.9187 81.0861 88.6114 80.9008 89.3385C80.7154 90.0657 80.8358 90.7677 81.2353 91.2902C81.4331 91.5489 81.6935 91.7558 82.0016 91.8989C82.3097 92.0421 82.6595 92.1188 83.031 92.1247C83.4025 92.1305 83.7885 92.0654 84.1668 91.933C84.5452 91.8006 84.9085 91.6036 85.2361 91.3531C85.8976 90.8473 86.3734 90.1546 86.5587 89.4275C86.7441 88.7004 86.6237 87.9983 86.2243 87.4758Z" fill="#FEB436"/>
<path d="M86.2249 87.4759C86.6244 87.9985 86.7447 88.7005 86.5594 89.4277C86.3741 90.1548 85.8983 90.8475 85.2367 91.3533C84.9091 91.6037 84.5458 91.8008 84.1675 91.9332C83.7891 92.0655 83.4032 92.1307 83.0317 92.1248C82.6602 92.119 82.3104 92.0423 82.0022 91.8991C81.6941 91.7559 81.4337 91.5491 81.2359 91.2903C80.8364 90.7678 80.7161 90.0658 80.9014 89.3387C81.0868 88.6115 81.5625 87.9189 82.2241 87.4131C82.5517 87.1626 82.915 86.9656 83.2934 86.8332C83.6717 86.7008 84.0577 86.6356 84.4292 86.6415C84.8007 86.6473 85.1505 86.724 85.4586 86.8672C85.7667 87.0104 86.0271 87.2172 86.2249 87.4759Z" fill="#FDCD71"/>
</svg>
