<svg width="240" height="147" viewBox="0 0 240 147" fill="none" xmlns="http://www.w3.org/2000/svg">
<path d="M4.35044 85.4927C2.79044 86.0993 1.7471 86.8027 1.22043 87.6027C1.11695 87.7589 1.04789 87.9354 1.01755 88.1211C0.987215 88.3068 0.996277 88.4976 1.04416 88.6816C1.09205 88.8657 1.17771 89.0389 1.29581 89.1906C1.41391 89.3422 1.56189 89.4689 1.73044 89.5627L19.7604 99.6127" stroke="#8B8684" stroke-width="2"/>
<path d="M19.758 99.6127C23.5714 102.073 27.4281 105.616 31.3281 110.243C40.2681 120.863 47.8114 132.399 53.9581 144.853C54.0148 144.969 54.0968 145.071 54.1976 145.152C54.2984 145.232 54.4152 145.288 54.5386 145.315C54.662 145.342 54.7886 145.34 54.9083 145.308C55.028 145.277 55.1375 145.216 55.2281 145.133C64.4081 136.733 72.7747 127.596 80.3281 117.723C80.4321 117.587 80.578 117.49 80.7418 117.448C80.9055 117.406 81.0771 117.422 81.2281 117.493C99.6614 125.973 119.158 129.616 139.718 128.423C140.818 128.356 141.821 128.209 142.728 127.983C142.862 127.949 142.985 127.883 143.086 127.79C143.187 127.696 143.263 127.579 143.307 127.448C143.351 127.318 143.361 127.178 143.337 127.043C143.312 126.907 143.254 126.78 143.168 126.673C137.698 119.903 130.688 113.743 124.428 107.653C123.855 107.099 123.941 106.789 124.688 106.723C144.738 104.913 168.598 101.003 180.608 83.2227C183.548 78.8727 186.278 72.5727 188.928 67.2827C189.086 66.9711 189.336 66.7167 189.645 66.5552C189.953 66.3938 190.304 66.3334 190.648 66.3827C206.348 68.6427 216.498 79.0127 225.408 91.1627C226.541 92.716 228.168 93.136 230.288 92.4227C236.158 90.4427 240.008 87.6627 238.358 80.6827C236.088 71.0727 233.058 60.8927 231.568 51.8927C228.748 34.9827 229.348 16.8027 230.038 3.36269C230.378 -3.14731 223.648 5.79269 223.258 6.42269C214.688 19.9827 209.188 28.8327 197.578 36.5827C186.098 44.2427 171.578 48.7327 157.648 50.5527C157.504 50.5711 157.357 50.5549 157.22 50.5056C157.084 50.4564 156.962 50.3756 156.866 50.2705C156.769 50.1654 156.702 50.0393 156.669 49.9036C156.637 49.7678 156.639 49.6266 156.678 49.4927C158.358 43.7127 159.541 37.8394 160.228 31.8727C160.242 31.7529 160.225 31.6314 160.178 31.5202C160.131 31.4091 160.056 31.3123 159.961 31.2394C159.866 31.1665 159.754 31.1202 159.636 31.105C159.518 31.0898 159.398 31.1062 159.288 31.1527C143.118 37.7527 127.728 43.5427 110.138 45.0827C102.765 45.736 95.0081 46.176 86.8681 46.4027C86.6842 46.408 86.5011 46.3771 86.3292 46.3116C86.1573 46.2461 86 46.1474 85.8663 46.0211C85.7325 45.8948 85.6249 45.7434 85.5497 45.5755C85.4746 45.4076 85.4332 45.2266 85.428 45.0427C85.228 38.5627 84.6348 31.8994 83.6481 25.0527C82.6681 18.1727 79.678 22.6227 77.688 24.5927C70.3747 31.7794 64.5581 40.0427 60.2381 49.3827C60.1141 49.6555 59.9272 49.8954 59.6927 50.083C59.4582 50.2706 59.1826 50.4007 58.8881 50.4627C40.7281 54.4427 18.2981 63.1427 6.21807 78.0827C4.28474 80.4627 3.66141 82.9327 4.34807 85.4927" stroke="#FFC791" stroke-width="2"/>
<path d="M19.7576 99.6127C29.3843 103.226 39.2643 104.579 49.3976 103.673C55.8376 103.103 65.9176 98.0027 66.1576 90.5427C66.1909 89.6493 65.8777 89.5093 65.2177 90.1227C53.5077 101.003 40.4776 98.5926 26.3976 95.7126C24.1043 95.2393 21.6476 94.296 19.0276 92.8827C14.2076 90.2894 9.31432 87.826 4.34766 85.4927" stroke="#8C5022" stroke-width="2"/>
<path d="M53.8679 82.2063C55.179 79.4202 55.2914 76.2095 54.1805 73.2804C53.0696 70.3513 50.8264 67.9439 47.9443 66.5877C46.5172 65.9161 44.9763 65.5229 43.4094 65.4304C41.8425 65.3379 40.2804 65.548 38.8123 66.0487C37.3442 66.5493 35.9987 67.3307 34.8529 68.3482C33.707 69.3658 32.7832 70.5995 32.134 71.9791C30.823 74.7652 30.7105 77.9759 31.8214 80.905C32.9323 83.834 35.1755 86.2415 38.0576 87.5977C39.4847 88.2692 41.0257 88.6625 42.5926 88.755C44.1594 88.8474 45.7215 88.6374 47.1897 88.1367C48.6578 87.6361 50.0032 86.8547 51.1491 85.8371C52.2949 84.8196 53.2188 83.5858 53.8679 82.2063Z" stroke="#FFC791" stroke-width="2"/>
<path d="M41.8379 87.0529C43.8964 87.2294 45.9436 86.5473 47.529 85.1567C49.1145 83.7661 50.1084 81.7809 50.2921 79.6379C50.3831 78.5768 50.2724 77.5088 49.9664 76.495C49.6604 75.4812 49.165 74.5415 48.5086 73.7293C47.8522 72.9172 47.0476 72.2486 46.1408 71.7618C45.2339 71.275 44.2426 70.9795 43.2233 70.8921C41.1648 70.7157 39.1177 71.3978 37.5322 72.7884C35.9467 74.1789 34.9529 76.164 34.7691 78.3071C34.6782 79.3682 34.7888 80.4362 35.0948 81.45C35.4008 82.4638 35.8962 83.4036 36.5526 84.2157C37.209 85.0278 38.0136 85.6964 38.9204 86.1832C39.8273 86.67 40.8187 86.9656 41.8379 87.0529Z" stroke="#88868E" stroke-width="2"/>
<path d="M43.4244 74.1678C43.1325 73.7901 42.6582 73.578 42.1061 73.5781C41.5539 73.5783 40.969 73.7906 40.4801 74.1685C40.238 74.3556 40.0267 74.5778 39.8584 74.8222C39.69 75.0666 39.5679 75.3286 39.4989 75.5932C39.4299 75.8578 39.4154 76.1197 39.4563 76.3641C39.4972 76.6085 39.5927 76.8306 39.7372 77.0176C40.0292 77.3954 40.5034 77.6075 41.0555 77.6074C41.6077 77.6072 42.1926 77.3948 42.6815 77.0169C42.9236 76.8298 43.1349 76.6077 43.3033 76.3633C43.4716 76.1188 43.5938 75.8568 43.6628 75.5923C43.7317 75.3277 43.7462 75.0658 43.7053 74.8214C43.6644 74.5769 43.569 74.3549 43.4244 74.1678Z" stroke="#898792" stroke-width="2"/>
<path d="M19.758 99.6127C29.3847 103.226 39.2647 104.579 49.3981 103.673C55.8381 103.103 65.918 98.0027 66.158 90.5427C66.1913 89.6494 65.8781 89.5094 65.2181 90.1227C53.5081 101.003 40.4781 98.5927 26.3981 95.7127C24.1047 95.2393 21.6481 94.296 19.0281 92.8827C14.2081 90.2894 9.31474 87.826 4.34807 85.4927C3.66141 82.9327 4.28474 80.4627 6.21807 78.0827C18.2981 63.1427 40.7281 54.4427 58.8881 50.4627C59.1826 50.4007 59.4582 50.2706 59.6927 50.083C59.9272 49.8954 60.1141 49.6555 60.2381 49.3827C64.5581 40.0427 70.3747 31.7794 77.688 24.5927C79.678 22.6227 82.6681 18.1727 83.6481 25.0527C84.6348 31.8994 85.228 38.5627 85.428 45.0427C85.4332 45.2266 85.4745 45.4076 85.5497 45.5755C85.6249 45.7434 85.7325 45.8948 85.8663 46.0211C86 46.1474 86.1573 46.2461 86.3292 46.3116C86.5011 46.3771 86.6842 46.408 86.8681 46.4027C95.0081 46.176 102.765 45.736 110.138 45.0827C127.728 43.5427 143.118 37.7527 159.288 31.1527C159.398 31.1062 159.518 31.0898 159.636 31.105C159.754 31.1202 159.866 31.1665 159.961 31.2394C160.056 31.3123 160.131 31.4091 160.178 31.5202C160.225 31.6314 160.242 31.7529 160.228 31.8727C159.541 37.8394 158.358 43.7127 156.678 49.4927C156.639 49.6266 156.637 49.7678 156.669 49.9036C156.702 50.0393 156.769 50.1654 156.866 50.2705C156.962 50.3756 157.084 50.4564 157.22 50.5056C157.357 50.5549 157.504 50.5711 157.648 50.5527C171.578 48.7327 186.098 44.2427 197.578 36.5827C209.188 28.8327 214.688 19.9827 223.258 6.42269C223.648 5.79269 230.378 -3.14731 230.038 3.36269C229.348 16.8027 228.748 34.9827 231.568 51.8927C233.058 60.8927 236.088 71.0727 238.358 80.6827C240.008 87.6627 236.158 90.4427 230.288 92.4227C228.168 93.136 226.541 92.716 225.408 91.1627C216.498 79.0127 206.348 68.6427 190.648 66.3827C190.304 66.3334 189.953 66.3938 189.645 66.5552C189.336 66.7167 189.086 66.9711 188.928 67.2827C186.278 72.5727 183.548 78.8727 180.608 83.2227C168.598 101.003 144.738 104.913 124.688 106.723C123.941 106.789 123.855 107.099 124.428 107.653C130.688 113.743 137.698 119.903 143.168 126.673C143.254 126.78 143.312 126.907 143.337 127.043C143.361 127.178 143.351 127.318 143.307 127.448C143.263 127.579 143.187 127.696 143.086 127.79C142.985 127.883 142.862 127.949 142.728 127.983C141.821 128.209 140.818 128.356 139.718 128.423C119.158 129.616 99.6614 125.973 81.2281 117.493C81.0771 117.422 80.9055 117.406 80.7418 117.448C80.578 117.49 80.4321 117.587 80.3281 117.723C72.7747 127.596 64.4081 136.733 55.2281 145.133C55.1375 145.216 55.028 145.277 54.9083 145.308C54.7886 145.34 54.662 145.342 54.5386 145.315C54.4152 145.288 54.2984 145.232 54.1976 145.152C54.0968 145.071 54.0148 144.969 53.9581 144.853C47.8114 132.399 40.2681 120.863 31.3281 110.243C27.4281 105.616 23.5714 102.073 19.758 99.6127ZM53.865 82.2063C55.1761 79.4202 55.2885 76.2095 54.1776 73.2804C53.0667 70.3514 50.8235 67.9439 47.9414 66.5877C46.5143 65.9162 44.9734 65.5229 43.4065 65.4304C41.8396 65.338 40.2775 65.548 38.8094 66.0487C37.3413 66.5493 35.9958 67.3307 34.85 68.3482C33.7041 69.3658 32.7803 70.5995 32.1311 71.9791C30.8201 74.7652 30.7076 77.9759 31.8185 80.905C32.9294 83.834 35.1726 86.2415 38.0547 87.5977C39.4818 88.2692 41.0228 88.6625 42.5897 88.755C44.1565 88.8475 45.7186 88.6374 47.1868 88.1367C48.6549 87.6361 50.0003 86.8547 51.1462 85.8371C52.292 84.8196 53.2159 83.5859 53.865 82.2063Z" fill="#FF912E"/>
<path d="M53.864 82.2063C53.2149 83.5858 52.291 84.8196 51.1452 85.8371C49.9993 86.8547 48.6539 87.6361 47.1858 88.1367C45.7176 88.6374 44.1555 88.8474 42.5886 88.755C41.0218 88.6625 39.4808 88.2692 38.0537 87.5977C35.1716 86.2415 32.9284 83.834 31.8175 80.905C30.7066 77.9759 30.8191 74.7652 32.1301 71.9791C32.7793 70.5995 33.7031 69.3658 34.849 68.3482C35.9948 67.3307 37.3403 66.5493 38.8084 66.0487C40.2765 65.548 41.8386 65.3379 43.4055 65.4304C44.9723 65.5229 46.5133 65.9161 47.9404 66.5877C50.8225 67.9439 53.0657 70.3513 54.1766 73.2804C55.2875 76.2095 55.1751 79.4202 53.864 82.2063ZM41.8344 87.0531C43.8929 87.2296 45.94 86.5474 47.5255 85.1569C49.1109 83.7663 50.1048 81.7811 50.2885 79.6381C50.3795 78.5769 50.2689 77.509 49.9629 76.4952C49.6568 75.4814 49.1615 74.5416 48.5051 73.7295C47.8487 72.9174 47.0441 72.2488 46.1372 71.762C45.2304 71.2752 44.239 70.9797 43.2198 70.8923C41.1613 70.7158 39.1141 71.3979 37.5286 72.7885C35.9432 74.1791 34.9493 76.1642 34.7656 78.3073C34.6746 79.3684 34.7853 80.4363 35.0913 81.4501C35.3973 82.4639 35.8926 83.4038 36.549 84.2159C37.2054 85.028 38.01 85.6965 38.9169 86.1834C39.8238 86.6702 40.8151 86.9657 41.8344 87.0531Z" fill="#FEFDF3"/>
<path d="M41.8379 87.0534C40.8187 86.966 39.8273 86.6705 38.9204 86.1837C38.0136 85.6969 37.209 85.0283 36.5526 84.2162C35.8962 83.4041 35.4008 82.4643 35.0948 81.4505C34.7888 80.4367 34.6782 79.3687 34.7691 78.3076C34.9529 76.1645 35.9467 74.1794 37.5322 72.7888C39.1177 71.3983 41.1648 70.7161 43.2233 70.8926C44.2426 70.98 45.2339 71.2755 46.1408 71.7623C47.0476 72.2491 47.8522 72.9177 48.5086 73.7298C49.165 74.5419 49.6604 75.4817 49.9664 76.4955C50.2724 77.5093 50.3831 78.5773 50.2921 79.6384C50.1084 81.7814 49.1145 83.7666 47.529 85.1572C45.9436 86.5478 43.8964 87.2299 41.8379 87.0534ZM43.4242 74.1681C43.1323 73.7904 42.658 73.5783 42.1059 73.5784C41.5537 73.5785 40.9688 73.7909 40.4799 74.1688C40.2378 74.3559 40.0266 74.578 39.8582 74.8225C39.6898 75.0669 39.5677 75.3289 39.4987 75.5935C39.4297 75.858 39.4152 76.12 39.4561 76.3644C39.497 76.6088 39.5925 76.8309 39.737 77.0179C40.029 77.3956 40.5032 77.6078 41.0553 77.6076C41.6075 77.6075 42.1924 77.3951 42.6813 77.0172C42.9234 76.8301 43.1347 76.608 43.3031 76.3635C43.4714 76.1191 43.5936 75.8571 43.6626 75.5926C43.7316 75.328 43.746 75.066 43.7051 74.8216C43.6642 74.5772 43.5688 74.3551 43.4242 74.1681Z" fill="#120F29"/>
<path d="M42.6779 77.0168C43.696 76.2299 44.0286 74.9543 43.4207 74.1677C42.8127 73.3812 41.4945 73.3815 40.4764 74.1684C39.4582 74.9553 39.1256 76.2309 39.7336 77.0175C40.3415 77.804 41.6597 77.8037 42.6779 77.0168Z" fill="#FFFEFB"/>
<path d="M4.35044 85.4927C9.31711 87.826 14.2104 90.2894 19.0304 92.8827C21.6504 94.296 24.1071 95.2393 26.4004 95.7126C40.4804 98.5926 53.5104 101.003 65.2204 90.1227C65.8804 89.5093 66.1937 89.6493 66.1604 90.5427C65.9204 98.0027 55.8404 103.103 49.4004 103.673C39.2671 104.579 29.3871 103.226 19.7604 99.6127L1.73044 89.5627C1.56189 89.4689 1.41391 89.3422 1.29581 89.1906C1.17771 89.0389 1.09205 88.8657 1.04416 88.6816C0.996277 88.4976 0.987215 88.3068 1.01755 88.1211C1.04789 87.9354 1.11695 87.7589 1.22043 87.6027C1.7471 86.8027 2.79044 86.0993 4.35044 85.4927Z" fill="#180E15"/>
</svg>
