<svg width="80" height="102" viewBox="0 0 80 102" fill="none" xmlns="http://www.w3.org/2000/svg">
<path d="M47.1858 1C31.6858 3.19 22.8458 12.19 14.0658 25.18C-0.384201 46.54 -4.0342 77.02 9.1558 99.8C9.88246 101.053 10.7225 101.133 11.6758 100.04C12.1758 99.46 12.7158 98.69 13.2958 97.73C19.5758 87.27 27.6258 72.54 41.7858 72.27C46.8958 72.17 52.0958 75.28 56.8358 77.5" stroke="#FFB7AE" stroke-width="2"/>
<path d="M56.8359 77.5L58.8759 78.79" stroke="#CE8D86" stroke-width="2"/>
<path d="M58.875 78.79C62.395 82 68.095 86.28 73.395 86.53C73.7245 86.5494 74.0527 86.4542 74.325 86.26C76.3517 84.82 77.3317 83.0667 77.265 81C76.795 67.38 76.295 53.24 78.145 39.72C79.925 26.75 78.035 15.3 69.395 5.21C67.4217 2.91 65.1017 1.50667 62.435 1" stroke="#FFB7AE" stroke-width="2"/>
<path d="M58.8759 78.7903C60.7759 76.6803 63.5859 76.4903 63.3759 73.0003C63.3663 72.8407 63.3218 72.6854 63.2458 72.5454C63.1697 72.4055 63.064 72.2842 62.9359 72.1903C59.4459 69.5903 57.7959 74.6803 56.8359 77.5003" stroke="#CE4741" stroke-width="2"/>
<path d="M51.9815 25.813C52.4314 26.1632 53.037 26.2755 53.665 26.1251C54.2931 25.9747 54.8921 25.574 55.3304 25.0111C55.7686 24.4481 56.0102 23.7691 56.0019 23.1233C55.9936 22.4776 55.7362 21.918 55.2863 21.5678C54.8363 21.2175 54.2307 21.1052 53.6027 21.2556C52.9746 21.406 52.3756 21.8067 51.9374 22.3697C51.4991 22.9326 51.2576 23.6116 51.2658 24.2574C51.2741 24.9031 51.5315 25.4627 51.9815 25.813Z" stroke="#BC403D" stroke-width="2"/>
<path d="M72.4488 42.4285C72.7176 42.5573 73.0182 42.6132 73.3332 42.5931C73.6482 42.573 73.9716 42.4771 74.2849 42.3111C74.5982 42.1451 74.8952 41.9122 75.159 41.6255C75.4229 41.3389 75.6483 41.0043 75.8225 40.6407C76.1743 39.9064 76.296 39.0989 76.1609 38.3957C76.0257 37.6926 75.6447 37.1514 75.1018 36.8913C74.833 36.7625 74.5324 36.7065 74.2174 36.7267C73.9024 36.7468 73.579 36.8426 73.2657 37.0086C72.9524 37.1746 72.6554 37.4076 72.3916 37.6942C72.1278 37.9808 71.9023 38.3155 71.7281 38.6791C71.3763 39.4134 71.2546 40.2209 71.3898 40.924C71.5249 41.6272 71.9059 42.1683 72.4488 42.4285Z" stroke="#BC403D" stroke-width="2"/>
<path d="M42.4693 48.6174C42.9716 49.0169 43.6625 49.1371 44.3901 48.9514C45.1177 48.7658 45.8223 48.2895 46.349 47.6274C46.8756 46.9653 47.1812 46.1716 47.1984 45.4209C47.2157 44.6701 46.9432 44.0239 46.4409 43.6244C45.9386 43.2249 45.2476 43.1047 44.5201 43.2904C43.7925 43.476 43.0878 43.9523 42.5612 44.6144C42.0345 45.2765 41.7289 46.0702 41.7117 46.8209C41.6945 47.5717 41.967 48.2179 42.4693 48.6174Z" stroke="#9E4138" stroke-width="2"/>
<path d="M24.712 49.8014C24.3978 49.4007 23.8884 49.1796 23.2958 49.1867C22.7032 49.1938 22.076 49.4285 21.5521 49.8393C21.2927 50.0427 21.0665 50.2832 20.8864 50.547C20.7063 50.8108 20.5759 51.0929 20.5025 51.377C20.429 51.6611 20.4142 51.9418 20.4586 52.2029C20.5031 52.4641 20.6061 52.7006 20.7616 52.899C21.0759 53.2997 21.5853 53.5208 22.1779 53.5137C22.7705 53.5066 23.3977 53.2719 23.9215 52.8611C24.1809 52.6577 24.4071 52.4172 24.5873 52.1534C24.7674 51.8896 24.8978 51.6075 24.9712 51.3234C25.0446 51.0393 25.0595 50.7587 25.0151 50.4975C24.9706 50.2364 24.8676 49.9998 24.712 49.8014Z" stroke="#BC403D" stroke-width="2"/>
<path d="M64.5255 58.2608C64.5255 57.6083 64.2663 56.9826 63.8049 56.5213C63.3436 56.06 62.7179 55.8008 62.0655 55.8008C61.413 55.8008 60.7873 56.06 60.326 56.5213C59.8646 56.9826 59.6055 57.6083 59.6055 58.2608C59.6055 58.9132 59.8646 59.5389 60.326 60.0003C60.7873 60.4616 61.413 60.7208 62.0655 60.7208C62.7179 60.7208 63.3436 60.4616 63.8049 60.0003C64.2663 59.5389 64.5255 58.9132 64.5255 58.2608Z" stroke="#9E4138" stroke-width="2"/>
<path d="M16.733 67.5698C8.06305 65.6598 17.3031 82.4398 17.2231 68.1998C17.2229 68.0499 17.174 67.9052 17.0847 67.7904C16.9954 67.6756 16.8712 67.5976 16.733 67.5698Z" stroke="#BC403D" stroke-width="2"/>
<path d="M47.1858 1.00049H62.4358C65.1025 1.50715 67.4224 2.91049 69.3958 5.21049C78.0358 15.3005 79.9258 26.7505 78.1458 39.7205C76.2958 53.2405 76.7958 67.3805 77.2658 81.0005C77.3325 83.0672 76.3525 84.8205 74.3258 86.2605C74.0535 86.4547 73.7253 86.5499 73.3958 86.5305C68.0958 86.2805 62.3958 82.0005 58.8758 78.7905C60.7758 76.6805 63.5858 76.4905 63.3758 73.0005C63.3661 72.8409 63.3217 72.6856 63.2456 72.5456C63.1696 72.4056 63.0638 72.2844 62.9358 72.1905C59.4458 69.5905 57.7958 74.6805 56.8358 77.5005C52.0958 75.2805 46.8958 72.1705 41.7858 72.2705C27.6258 72.5405 19.5758 87.2705 13.2958 97.7305C12.7158 98.6905 12.1758 99.4605 11.6758 100.04C10.7225 101.134 9.88246 101.054 9.1558 99.8005C-4.0342 77.0205 -0.384201 46.5405 14.0658 25.1805C22.8458 12.1905 31.6858 3.19049 47.1858 1.00049ZM51.9834 25.8131C52.4333 26.1633 53.0389 26.2756 53.667 26.1252C54.295 25.9749 54.8941 25.5741 55.3323 25.0112C55.7705 24.4482 56.0121 23.7692 56.0038 23.1235C55.9955 22.4777 55.7381 21.9182 55.2882 21.5679C54.8383 21.2176 54.2327 21.1053 53.6046 21.2557C52.9766 21.4061 52.3776 21.8069 51.9393 22.3698C51.5011 22.9327 51.2595 23.6118 51.2678 24.2575C51.276 24.9033 51.5335 25.4628 51.9834 25.8131ZM72.4493 42.4291C72.7181 42.5579 73.0186 42.6138 73.3337 42.5937C73.6487 42.5736 73.9721 42.4778 74.2854 42.3117C74.5987 42.1457 74.8957 41.9128 75.1595 41.6261C75.4233 41.3395 75.6488 41.0049 75.823 40.6413C76.1748 39.907 76.2965 39.0995 76.1613 38.3963C76.0262 37.6932 75.6452 37.152 75.1023 36.8919C74.8335 36.7631 74.5329 36.7071 74.2179 36.7273C73.9029 36.7474 73.5795 36.8432 73.2662 37.0092C72.9529 37.1752 72.6559 37.4082 72.3921 37.6948C72.1282 37.9814 71.9028 38.3161 71.7286 38.6797C71.3768 39.414 71.2551 40.2215 71.3903 40.9247C71.5254 41.6278 71.9063 42.169 72.4493 42.4291ZM42.47 48.617C42.9723 49.0165 43.6632 49.1367 44.3908 48.951C45.1184 48.7654 45.823 48.2891 46.3497 47.627C46.8764 46.9649 47.1819 46.1712 47.1992 45.4204C47.2164 44.6697 46.9439 44.0235 46.4416 43.624C45.9393 43.2244 45.2484 43.1043 44.5208 43.29C43.7932 43.4756 43.0886 43.9519 42.5619 44.614C42.0352 45.2761 41.7297 46.0698 41.7124 46.8205C41.6952 47.5712 41.9677 48.2174 42.47 48.617ZM24.711 49.8017C24.3968 49.401 23.8873 49.1799 23.2947 49.187C22.7021 49.1941 22.0749 49.4288 21.5511 49.8396C21.2917 50.043 21.0655 50.2835 20.8854 50.5473C20.7053 50.8111 20.5748 51.0932 20.5014 51.3773C20.428 51.6614 20.4131 51.942 20.4576 52.2032C20.5021 52.4643 20.605 52.7009 20.7606 52.8993C21.0748 53.3 21.5843 53.5211 22.1769 53.514C22.7694 53.5069 23.3967 53.2721 23.9205 52.8614C24.1799 52.658 24.4061 52.4175 24.5862 52.1537C24.7663 51.8899 24.8968 51.6078 24.9702 51.3237C25.0436 51.0396 25.0585 50.7589 25.014 50.4978C24.9695 50.2366 24.8666 50.0001 24.711 49.8017ZM64.5258 58.2605C64.5258 57.6081 64.2666 56.9823 63.8053 56.521C63.3439 56.0597 62.7182 55.8005 62.0658 55.8005C61.4134 55.8005 60.7877 56.0597 60.3263 56.521C59.865 56.9823 59.6058 57.6081 59.6058 58.2605C59.6058 58.9129 59.865 59.5386 60.3263 60C60.7877 60.4613 61.4134 60.7205 62.0658 60.7205C62.7182 60.7205 63.3439 60.4613 63.8053 60C64.2666 59.5386 64.5258 58.9129 64.5258 58.2605ZM16.7358 67.5705C8.06578 65.6605 17.3058 82.4405 17.2258 68.2005C17.2257 68.0505 17.1768 67.9059 17.0875 67.7911C16.9982 67.6762 16.8739 67.5983 16.7358 67.5705Z" fill="#FF7069"/>
<path d="M51.9389 22.3699C51.0263 23.5422 51.046 25.0838 51.983 25.8132C52.92 26.5426 54.4193 26.1836 55.3319 25.0113C56.2446 23.839 56.2248 22.2974 55.2878 21.568C54.3509 20.8385 52.8515 21.1976 51.9389 22.3699Z" fill="#791011"/>
<path d="M71.7276 38.68C70.995 40.2091 71.3177 41.8878 72.4483 42.4295C73.5789 42.9712 75.0893 42.1707 75.8219 40.6417C76.5545 39.1126 76.2319 37.4339 75.1013 36.8922C73.9707 36.3505 72.4602 37.1509 71.7276 38.68Z" fill="#791011"/>
<path d="M42.5623 44.6144C41.4656 45.9932 41.4244 47.7854 42.4704 48.6174C43.5164 49.4494 45.2534 49.0062 46.3501 47.6274C47.4469 46.2486 47.488 44.4564 46.442 43.6244C45.396 42.7924 43.659 43.2356 42.5623 44.6144Z" fill="#3D1207"/>
<path d="M23.9188 52.8617C25.0097 52.0064 25.3636 50.6365 24.7093 49.8021C24.055 48.9676 22.6403 48.9846 21.5494 49.8399C20.4585 50.6953 20.1046 52.0651 20.7589 52.8996C21.4132 53.734 22.828 53.7171 23.9188 52.8617Z" fill="#791011"/>
<path d="M62.0655 60.7208C63.4241 60.7208 64.5255 59.6194 64.5255 58.2608C64.5255 56.9022 63.4241 55.8008 62.0655 55.8008C60.7068 55.8008 59.6055 56.9022 59.6055 58.2608C59.6055 59.6194 60.7068 60.7208 62.0655 60.7208Z" fill="#3D1207"/>
<path d="M17.2231 68.1998C17.3031 82.4398 8.06305 65.6598 16.733 67.5698C16.8712 67.5976 16.9954 67.6756 17.0847 67.7904C17.174 67.9052 17.2229 68.0499 17.2231 68.1998Z" fill="#791011"/>
<path d="M58.8759 78.7903L56.8359 77.5003C57.7959 74.6803 59.4459 69.5903 62.9359 72.1903C63.064 72.2842 63.1697 72.4055 63.2458 72.5454C63.3218 72.6854 63.3663 72.8407 63.3759 73.0003C63.5859 76.4903 60.7759 76.6803 58.8759 78.7903Z" fill="#9D1D18"/>
</svg>
