<svg width="143" height="187" viewBox="0 0 143 187" fill="none" xmlns="http://www.w3.org/2000/svg">
<path d="M56.0085 134.368C49.7758 155.518 37.8131 168.798 19.3966 179.838C17.6374 180.898 12.1587 184.868 18.5723 185.358C33.8825 186.538 52.1784 157.418 57.3656 145.008C58.1028 143.242 59.0712 139.055 60.2709 132.448" stroke="#88868B" stroke-width="2"/>
<path d="M60.2726 132.448C61.0031 129.515 61.7973 126.605 62.6551 123.718C67.5407 107.318 68.938 89.248 68.1137 72.198C67.9998 69.8446 66.8839 63.1813 64.7661 52.208C64.6455 51.5947 64.8164 51.4013 65.2788 51.628C65.4021 51.6877 65.5158 51.7827 65.6128 51.9067C65.7098 52.0307 65.7877 52.181 65.8418 52.348C67.2793 56.988 69.5512 61.198 70.094 65.928C72.5804 87.448 71.086 108.708 65.6106 129.708C65.1817 131.335 65.7647 131.871 67.3597 131.318C85.8768 124.848 97.7389 134.948 112.577 144.768C114.024 145.728 115.613 146.208 117.342 146.208C121.453 146.208 129.234 147.048 132.833 145.378C137.467 143.228 140.553 137.788 141.458 133.088C144.655 116.468 121.212 94.008 110.717 82.768C110.44 82.4701 110.276 82.0851 110.254 81.6797C110.232 81.2742 110.353 80.8739 110.596 80.548C116.819 72.218 136.422 64.0579 136.763 53.1679C136.77 52.9691 136.741 52.7804 136.679 52.6195C136.618 52.4586 136.526 52.3307 136.412 52.248C135.507 51.6013 135.487 50.9513 136.351 50.298C136.71 50.0294 136.969 49.6537 137.088 49.2311C137.206 48.8084 137.177 48.3636 137.005 47.968C131.446 35.048 117.11 27.0279 103.198 30.3579C98.0506 31.5879 92.5216 35.098 86.49 32.538C86.1776 32.4057 85.9076 32.1904 85.7092 31.9154C85.5107 31.6404 85.3914 31.3162 85.3641 30.978C84.9218 25.488 84.8615 19.3979 82.68 14.6079C77.9854 4.30795 66.5354 -1.70203 55.4071 2.19797C39.3228 7.84797 37.6038 19.478 38.599 35.008C38.9609 40.658 35.744 43.478 30.3859 44.688C21.6904 46.668 -0.696986 52.008 1.10244 66.618C1.99713 73.858 6.70181 79.358 12.1202 86.588C19.328 96.198 15.9201 100.018 8.47108 108.108C2.30878 114.798 -4.12492 130.038 8.36052 134.708C18.9829 138.681 30.1045 139.428 41.7254 136.948C47.8374 135.641 52.599 134.781 56.0102 134.368" stroke="#9A9FA1" stroke-width="2"/>
<path d="M60.2702 132.448L56.0078 134.368" stroke="#242D3C" stroke-width="2"/>
<path d="M108.749 42.438C108.803 42.3615 108.833 42.2695 108.837 42.1672C108.84 42.0649 108.819 41.9544 108.772 41.8419C108.726 41.7294 108.656 41.6171 108.567 41.5115C108.477 41.4058 108.37 41.3089 108.251 41.2263C108.01 41.0594 107.736 40.9607 107.49 40.9518C107.243 40.943 107.044 41.0247 106.935 41.1792C106.882 41.2556 106.852 41.3476 106.848 41.4499C106.844 41.5522 106.866 41.6628 106.912 41.7753C106.959 41.8878 107.028 42.0001 107.118 42.1057C107.207 42.2113 107.315 42.3083 107.434 42.3909C107.674 42.5578 107.948 42.6565 108.195 42.6654C108.441 42.6742 108.641 42.5924 108.749 42.438Z" stroke="#6B8C8D" stroke-width="2"/>
<path d="M60.2726 132.448L56.0102 134.368C52.599 134.781 47.8374 135.641 41.7254 136.948C30.1045 139.428 18.9829 138.681 8.36052 134.708C-4.12492 130.038 2.30878 114.798 8.47108 108.108C15.9201 100.018 19.328 96.198 12.1202 86.588C6.70181 79.358 1.99713 73.858 1.10244 66.618C-0.696986 52.008 21.6904 46.668 30.3859 44.688C35.744 43.478 38.9609 40.658 38.599 35.008C37.6038 19.478 39.3228 7.84797 55.4071 2.19797C66.5354 -1.70203 77.9854 4.30795 82.68 14.6079C84.8615 19.3979 84.9218 25.488 85.3641 30.978C85.3913 31.3162 85.5107 31.6404 85.7092 31.9154C85.9076 32.1904 86.1776 32.4057 86.49 32.538C92.5216 35.098 98.0506 31.5879 103.198 30.3579C117.11 27.0279 131.446 35.048 137.005 47.968C137.177 48.3636 137.206 48.8084 137.088 49.2311C136.969 49.6537 136.71 50.0294 136.351 50.298C135.487 50.9513 135.507 51.6013 136.412 52.248C136.526 52.3307 136.618 52.4586 136.679 52.6195C136.741 52.7804 136.77 52.9691 136.763 53.1679C136.422 64.0579 116.819 72.2179 110.596 80.548C110.353 80.8739 110.232 81.2742 110.254 81.6797C110.276 82.0851 110.44 82.4701 110.717 82.768C121.212 94.008 144.655 116.468 141.458 133.088C140.553 137.788 137.467 143.228 132.833 145.378C129.234 147.048 121.453 146.208 117.342 146.208C115.613 146.208 114.024 145.728 112.577 144.768C97.7389 134.948 85.8768 124.848 67.3597 131.318C65.7647 131.871 65.1817 131.335 65.6106 129.708C71.086 108.708 72.5804 87.448 70.094 65.928C69.5512 61.198 67.2793 56.988 65.8418 52.348C65.7878 52.181 65.7097 52.0307 65.6128 51.9067C65.5158 51.7826 65.4021 51.6877 65.2788 51.628C64.8164 51.4013 64.6455 51.5947 64.7661 52.208C66.8839 63.1813 67.9998 69.8446 68.1137 72.198C68.938 89.248 67.5407 107.318 62.6551 123.718C61.7973 126.605 61.0031 129.515 60.2726 132.448ZM108.749 42.4374C108.802 42.3609 108.832 42.2689 108.836 42.1666C108.84 42.0643 108.818 41.9538 108.772 41.8413C108.726 41.7288 108.656 41.6165 108.566 41.5108C108.477 41.4052 108.369 41.3083 108.25 41.2257C108.01 41.0588 107.736 40.96 107.489 40.9512C107.243 40.9424 107.043 41.0241 106.935 41.1786C106.881 41.255 106.852 41.347 106.848 41.4493C106.844 41.5516 106.866 41.6622 106.912 41.7747C106.958 41.8872 107.028 41.9995 107.118 42.1051C107.207 42.2107 107.314 42.3077 107.434 42.3903C107.674 42.5572 107.948 42.6559 108.194 42.6648C108.441 42.6736 108.641 42.5918 108.749 42.4374Z" fill="#354551"/>
<path d="M60.2709 132.448C59.0712 139.055 58.1028 143.242 57.3656 145.008C52.1784 157.418 33.8825 186.538 18.5723 185.358C12.1587 184.868 17.6374 180.898 19.3966 179.838C37.8131 168.798 49.7758 155.518 56.0085 134.368L60.2709 132.448Z" fill="#121426"/>
<path d="M111.603 42.438C111.495 42.5924 111.296 42.6742 111.051 42.6654C110.806 42.6565 110.533 42.5578 110.294 42.3909C110.176 42.3083 110.069 42.2113 109.98 42.1057C109.891 42.0001 109.821 41.8878 109.775 41.7753C109.729 41.6628 109.707 41.5522 109.711 41.4499C109.715 41.3476 109.745 41.2556 109.798 41.1792C109.906 41.0247 110.104 40.943 110.35 40.9518C110.595 40.9607 110.867 41.0594 111.107 41.2263C111.225 41.3089 111.332 41.4058 111.421 41.5115C111.51 41.6171 111.58 41.7294 111.626 41.8419C111.672 41.9544 111.693 42.0649 111.689 42.1672C111.685 42.2695 111.656 42.3615 111.603 42.438Z" fill="#A1D3C8"/>
</svg>
