<svg width="16" height="14" viewBox="0 0 16 14" fill="none" xmlns="http://www.w3.org/2000/svg">
<path d="M1.99208 4.70239C1.91208 7.89573 3.0954 10.4891 5.54207 12.4824C5.65296 12.571 5.80018 12.6396 5.97523 12.6842C6.15029 12.7288 6.34974 12.7486 6.56209 12.7424C9.95542 12.6691 12.3388 11.1024 13.7121 8.04239C14.4254 6.44239 14.0721 4.96906 12.6521 3.62239C9.25211 0.402391 5.85545 0.385721 2.46211 3.57239C2.31934 3.70892 2.20432 3.87903 2.12367 4.07294C2.04302 4.26685 1.99829 4.48075 1.99208 4.70239Z" stroke="#FBACA0" stroke-width="2"/>
<path d="M2.46211 3.5719C5.85545 0.385233 9.25211 0.401902 12.6521 3.6219C14.0721 4.96857 14.4254 6.4419 13.7121 8.0419C12.3388 11.1019 9.95542 12.6686 6.56209 12.7419C6.34974 12.7481 6.15029 12.7283 5.97523 12.6837C5.80018 12.6391 5.65296 12.5705 5.54207 12.4819C3.0954 10.4886 1.91208 7.89524 1.99208 4.7019C1.99829 4.48026 2.04302 4.26636 2.12367 4.07245C2.20432 3.87854 2.31934 3.70843 2.46211 3.5719Z" fill="#F75940"/>
</svg>
