<svg width="72" height="72" viewBox="0 0 72 72" fill="none" xmlns="http://www.w3.org/2000/svg">
<path d="M62.9925 58.6088C80.4125 39.6088 67.2625 6.76884 42.7025 1.73884C33.8825 -0.0678229 25.7192 1.43884 18.2125 6.25884C11.4725 10.5788 5.03255 17.4188 2.60255 25.1688C1.35255 29.1488 1.39255 33.0988 1.09255 36.7488C0.122548 48.7288 6.85254 62.0488 17.7525 67.6688C21.0725 69.3788 28.7625 70.7388 32.3425 70.6388C44.2325 70.3188 55.0225 67.2888 62.9925 58.6088Z" stroke="#919396" stroke-width="2"/>
<path d="M42.7025 1.73884C67.2626 6.76884 80.4125 39.6088 62.9925 58.6088C55.0225 67.2888 44.2325 70.3188 32.3425 70.6388C28.7625 70.7388 21.0725 69.3788 17.7525 67.6688C6.85254 62.0488 0.122548 48.7288 1.09255 36.7488C1.39255 33.0988 1.35255 29.1488 2.60255 25.1688C5.03255 17.4188 11.4725 10.5788 18.2125 6.25884C25.7192 1.43884 33.8825 -0.0678229 42.7025 1.73884Z" fill="#22262C"/>
</svg>
