<svg width="13" height="16" viewBox="0 0 13 16" fill="none" xmlns="http://www.w3.org/2000/svg">
<path d="M5.80171 14.1798C7.00776 14.3002 8.23304 13.7279 9.20803 12.5889C10.183 11.4499 10.8278 9.83737 11.0006 8.10616C11.0862 7.24894 11.0533 6.38835 10.9038 5.57357C10.7543 4.75879 10.4912 4.00574 10.1294 3.35745C9.76765 2.70915 9.31434 2.1783 8.79536 1.79519C8.27638 1.41208 7.7019 1.18426 7.10472 1.12466C5.89867 1.0043 4.67339 1.57656 3.6984 2.7156C2.72342 3.85464 2.07861 5.46712 1.90582 7.19833C1.82025 8.05555 1.85315 8.91614 2.00263 9.73092C2.15211 10.5457 2.41524 11.2988 2.77701 11.947C3.13878 12.5953 3.5921 13.1262 4.11108 13.5093C4.63006 13.8924 5.20453 14.1202 5.80171 14.1798Z" stroke="#F6AEA2" stroke-width="2"/>
<path d="M1.906 7.1984C1.54616 10.8035 3.2904 13.9292 5.80186 14.1799C8.31333 14.4305 10.641 11.7113 11.0008 8.10618C11.3606 4.5011 9.6164 1.3754 7.10494 1.12472C4.59348 0.874045 2.26583 3.59332 1.906 7.1984Z" fill="#ED5C45"/>
</svg>
