<svg width="84" height="77" viewBox="0 0 84 77" fill="none" xmlns="http://www.w3.org/2000/svg">
<path d="M50.9732 37.724C50.9194 37.7179 50.8697 37.6958 50.829 37.6599C50.7882 37.624 50.7577 37.5755 50.7406 37.5191C50.7235 37.4627 50.7203 37.4004 50.7313 37.3382C50.7423 37.2759 50.7671 37.2159 50.8033 37.164C58.6833 26.0973 68.5332 17.474 80.3532 11.294C82.1132 10.364 84.2133 8.55399 81.4133 6.94399C81.2913 6.87396 81.1894 6.77083 81.1175 6.64465C81.0457 6.51846 81.0063 6.37354 81.0033 6.22399C80.9833 4.71066 80.3166 3.61064 79.0033 2.92397C78.8964 2.8683 78.7475 2.84648 78.5695 2.86044C78.3916 2.87439 78.1903 2.9237 77.9832 3.00399C67.7699 7.06399 58.8633 13.0606 51.2633 20.994C47.9166 24.494 44.3199 27.8607 40.4732 31.094C39.4132 31.9807 38.4666 31.874 37.6333 30.774C31.9066 23.194 27.8566 14.4673 25.4832 4.59399C24.9832 2.53399 24.0633 -0.516015 21.3633 1.87398C21.2544 1.97389 21.1136 2.03608 20.9598 2.05218C20.806 2.06827 20.6467 2.03749 20.5033 1.96398L18.9933 1.21398C18.8582 1.14712 18.6906 1.13622 18.5134 1.18276C18.3362 1.2293 18.158 1.33102 18.0033 1.47399L15.2633 3.99398C15.1698 4.07814 15.0914 4.20845 15.0342 4.3749C14.9769 4.54135 14.9424 4.73947 14.9333 4.95397C14.3233 17.014 18.4932 27.944 24.9832 37.874C25.9299 39.3207 25.6633 40.4907 24.1833 41.384C16.9899 45.704 10.2833 50.6673 4.06327 56.274C1.13327 58.914 -1.10675 62.514 4.23325 64.494C5.26658 64.874 6.26324 64.7873 7.22324 64.234C16.3032 58.994 25.1632 52.674 34.4632 47.964C34.887 47.7518 35.3741 47.7049 35.8279 47.8327C36.2816 47.9605 36.6691 48.2537 36.9133 48.654C43.7333 59.754 50.9832 68.754 62.8232 75.264C63.0248 75.3753 63.2196 75.461 63.3868 75.512C63.5541 75.5631 63.6876 75.5776 63.7733 75.554C66.6 74.7873 68.4233 73.004 69.2433 70.204C69.5766 69.064 69.2332 68.0807 68.2132 67.254C62.2399 62.374 56.6867 57.1073 51.5533 51.454C49.4333 49.114 49.9032 47.984 52.9632 48.064C62.5332 48.314 70.3233 48.434 78.5133 42.854C81.7433 40.654 81.0233 38.494 79.2433 35.664C79.0211 35.3136 78.677 35.0519 78.2668 34.9213C77.8566 34.7906 77.4044 34.7986 76.9832 34.944C68.5632 37.8573 59.8932 38.784 50.9732 37.724Z" stroke="#8B8EA0" stroke-width="2"/>
<path d="M50.9771 37.724C59.8971 38.784 68.5672 37.8573 76.9872 34.944C77.4083 34.7986 77.8605 34.7906 78.2707 34.9213C78.6809 35.0519 79.025 35.3136 79.2472 35.664C81.0272 38.494 81.7472 40.654 78.5172 42.854C70.3272 48.434 62.5371 48.314 52.9671 48.064C49.9071 47.984 49.4372 49.114 51.5572 51.454C56.6906 57.1073 62.2438 62.374 68.2171 67.254C69.2371 68.0807 69.5805 69.064 69.2472 70.204C68.4272 73.004 66.6039 74.7873 63.7772 75.554C63.6916 75.5776 63.558 75.5631 63.3907 75.512C63.2235 75.461 63.0287 75.3753 62.8271 75.264C50.9871 68.754 43.7372 59.754 36.9172 48.654C36.673 48.2537 36.2855 47.9605 35.8318 47.8327C35.378 47.7049 34.8909 47.7518 34.4671 47.964C25.1671 52.674 16.3071 58.994 7.22715 64.234C6.26715 64.7873 5.27049 64.874 4.23716 64.494C-1.10284 62.514 1.13717 58.914 4.06717 56.274C10.2872 50.6673 16.9938 45.704 24.1872 41.384C25.6672 40.4907 25.9338 39.3207 24.9872 37.874C18.4972 27.944 14.3272 17.014 14.9372 4.95397C14.9463 4.73947 14.9808 4.54135 15.0381 4.3749C15.0953 4.20845 15.1737 4.07814 15.2672 3.99398L18.0072 1.47399C18.162 1.33102 18.3401 1.2293 18.5173 1.18276C18.6945 1.13622 18.8621 1.14712 18.9972 1.21398L20.5072 1.96398C20.6506 2.03749 20.8099 2.06827 20.9637 2.05218C21.1175 2.03608 21.2583 1.97389 21.3672 1.87398C24.0672 -0.516015 24.9872 2.53399 25.4872 4.59399C27.8605 14.4673 31.9105 23.194 37.6372 30.774C38.4705 31.874 39.4171 31.9807 40.4771 31.094C44.3238 27.8607 47.9205 24.494 51.2672 20.994C58.8672 13.0606 67.7738 7.06399 77.9872 3.00399C78.1942 2.9237 78.3956 2.87439 78.5735 2.86044C78.7514 2.84648 78.9003 2.8683 79.0072 2.92397C80.3205 3.61064 80.9872 4.71066 81.0072 6.22399C81.0102 6.37354 81.0496 6.51846 81.1214 6.64465C81.1933 6.77083 81.2952 6.87396 81.4172 6.94399C84.2172 8.55399 82.1171 10.364 80.3571 11.294C68.5371 17.474 58.6872 26.0973 50.8072 37.164C50.771 37.2159 50.7462 37.2759 50.7352 37.3382C50.7242 37.4004 50.7274 37.4627 50.7445 37.5191C50.7616 37.5755 50.7921 37.624 50.8329 37.6599C50.8736 37.6958 50.9233 37.7179 50.9771 37.724Z" fill="#181D42"/>
</svg>
