<svg width="60" height="56" viewBox="0 0 60 56" fill="none" xmlns="http://www.w3.org/2000/svg">
<path d="M36.7234 26.8361C42.4101 26.9027 48.0435 27.4694 53.6235 28.5361C55.3935 28.8761 58.0035 28.8461 58.3035 26.8361C58.3552 26.4908 58.2672 26.1361 58.0566 25.8406C57.8461 25.545 57.5278 25.3296 57.1634 25.236C50.5834 23.5894 43.9101 22.3727 37.1434 21.5861C35.2168 21.3594 35.0035 20.5694 36.5035 19.2161C39.5501 16.4627 42.7168 13.5927 46.0035 10.606C48.2635 8.55271 48.1468 6.92273 45.6534 5.71606C45.5068 5.64335 45.3419 5.61775 45.1821 5.64288C45.0224 5.66801 44.8758 5.74258 44.7634 5.85604C41.4234 9.09604 37.8034 11.9894 33.9034 14.536C33.2568 14.956 33.0168 14.8427 33.1835 14.196C34.1235 10.5094 34.8401 6.77937 35.3334 3.00604C35.5334 1.42604 34.9534 0.779369 33.5934 1.06604C33.4595 1.0941 33.324 1.16642 33.1974 1.2774C33.0708 1.38838 32.9566 1.53505 32.8635 1.70605C30.7635 5.63938 29.3334 9.80271 28.5734 14.196C28.3801 15.3427 27.9668 15.3927 27.3334 14.346C25.3734 11.106 23.0435 6.18605 19.8135 4.17605C17.3535 2.64605 16.4634 4.94604 17.7134 6.81604C19.3134 9.17604 20.8201 11.666 22.2335 14.286C23.0468 15.7927 22.6234 16.3294 20.9634 15.8961C15.7968 14.5494 10.1268 14.106 3.95342 14.566C2.18342 14.696 -0.466527 15.696 2.00347 17.826C2.236 18.0259 2.54842 18.136 2.88342 18.136C5.20342 18.166 22.8235 19.3361 23.0535 21.6461C23.0666 21.7794 23.0234 21.9173 22.9307 22.0372C22.8381 22.1571 22.7015 22.2519 22.5435 22.306C17.0835 24.2194 11.6935 26.3361 6.37347 28.6561C2.82347 30.2061 5.02343 33.076 8.08343 31.926C13.1634 30.0194 18.3134 28.1894 23.5334 26.436C25.2201 25.8694 25.6734 26.3894 24.8934 27.996C21.8468 34.2627 18.3334 40.246 14.3534 45.946C14.1725 46.2045 14.0841 46.498 14.1034 46.7761C14.5934 55.1661 25.9135 36.8861 26.6935 35.4661C26.7858 35.2973 26.8979 35.1533 27.0201 35.0469C27.1422 34.9404 27.2704 34.8749 27.3934 34.8561C27.8468 34.7761 28.1301 35.076 28.2435 35.756C29.3435 42.2894 30.8501 48.1794 32.7634 53.426C32.8225 53.5912 32.9098 53.739 33.0188 53.8584C33.1278 53.9778 33.2558 54.0658 33.3934 54.116C34.6334 54.576 34.6935 53.226 34.5435 52.386C33.3301 45.606 32.1568 38.8194 31.0234 32.0261C30.8934 31.2461 31.1434 29.016 32.4634 31.176C34.8168 35.0094 37.3935 39.2227 40.1935 43.816C41.2001 45.4627 42.2835 46.2661 43.4435 46.2261C44.6568 46.1861 45.4101 45.6261 45.7034 44.5461C45.7306 44.4494 45.7114 44.3076 45.6478 44.1364C45.5843 43.9652 45.4789 43.7713 45.3434 43.576C41.8501 38.4294 38.8401 33.006 36.3135 27.306C36.2917 27.2533 36.2859 27.196 36.2967 27.1395C36.3075 27.0829 36.3344 27.0288 36.3752 26.9821C36.4159 26.9354 36.4691 26.8976 36.53 26.8721C36.5908 26.8466 36.6573 26.8342 36.7234 26.8361Z" stroke="#8C8C9D" stroke-width="2"/>
<path d="M36.3135 27.306C38.8401 33.006 41.8501 38.4294 45.3434 43.576C45.4789 43.7713 45.5843 43.9652 45.6478 44.1364C45.7114 44.3076 45.7306 44.4494 45.7034 44.5461C45.4101 45.6261 44.6568 46.1861 43.4435 46.2261C42.2835 46.2661 41.2001 45.4627 40.1935 43.816C37.3935 39.2227 34.8168 35.0094 32.4634 31.176C31.1434 29.016 30.8934 31.2461 31.0234 32.0261C32.1568 38.8194 33.3301 45.606 34.5435 52.386C34.6935 53.226 34.6334 54.576 33.3934 54.116C33.2558 54.0658 33.1278 53.9778 33.0188 53.8584C32.9098 53.739 32.8225 53.5912 32.7634 53.426C30.8501 48.1794 29.3435 42.2894 28.2435 35.756C28.1301 35.076 27.8468 34.7761 27.3934 34.8561C27.2704 34.8749 27.1422 34.9404 27.0201 35.0469C26.8979 35.1533 26.7858 35.2973 26.6935 35.4661C25.9135 36.8861 14.5934 55.1661 14.1034 46.7761C14.0841 46.498 14.1725 46.2045 14.3534 45.946C18.3334 40.246 21.8468 34.2627 24.8934 27.996C25.6734 26.3894 25.2201 25.8694 23.5334 26.436C18.3134 28.1894 13.1634 30.0194 8.08343 31.926C5.02343 33.076 2.82347 30.2061 6.37347 28.6561C11.6935 26.3361 17.0835 24.2194 22.5435 22.306C22.7015 22.2519 22.8381 22.1571 22.9307 22.0372C23.0234 21.9173 23.0666 21.7794 23.0535 21.6461C22.8235 19.3361 5.20342 18.166 2.88342 18.136C2.54842 18.136 2.236 18.0259 2.00347 17.826C-0.466527 15.696 2.18342 14.696 3.95342 14.566C10.1268 14.106 15.7968 14.5494 20.9634 15.8961C22.6234 16.3294 23.0468 15.7927 22.2335 14.286C20.8201 11.666 19.3134 9.17604 17.7134 6.81604C16.4634 4.94604 17.3535 2.64605 19.8135 4.17605C23.0435 6.18605 25.3734 11.106 27.3334 14.346C27.9668 15.3927 28.3801 15.3427 28.5734 14.196C29.3334 9.80271 30.7635 5.63938 32.8635 1.70605C32.9566 1.53505 33.0708 1.38838 33.1974 1.2774C33.324 1.16642 33.4595 1.0941 33.5934 1.06604C34.9534 0.779369 35.5334 1.42604 35.3334 3.00604C34.8401 6.77937 34.1235 10.5094 33.1835 14.196C33.0168 14.8427 33.2568 14.956 33.9034 14.536C37.8034 11.9894 41.4234 9.09604 44.7634 5.85604C44.8758 5.74258 45.0224 5.66801 45.1821 5.64288C45.3419 5.61775 45.5068 5.64335 45.6534 5.71606C48.1468 6.92273 48.2635 8.55271 46.0035 10.606C42.7168 13.5927 39.5501 16.4627 36.5035 19.2161C35.0035 20.5694 35.2168 21.3594 37.1434 21.5861C43.9101 22.3727 50.5835 23.5894 57.1634 25.236C57.5278 25.3296 57.8461 25.545 58.0566 25.8406C58.2672 26.1361 58.3552 26.4908 58.3035 26.8361C58.0035 28.8461 55.3935 28.8761 53.6235 28.5361C48.0435 27.4694 42.4101 26.9027 36.7234 26.8361C36.6573 26.8342 36.5908 26.8466 36.53 26.8721C36.4691 26.8976 36.4159 26.9354 36.3752 26.9821C36.3344 27.0288 36.3075 27.0829 36.2967 27.1395C36.2859 27.196 36.2917 27.2533 36.3135 27.306Z" fill="#19193B"/>
</svg>
