<svg width="134" height="151" viewBox="0 0 134 151" fill="none" xmlns="http://www.w3.org/2000/svg">
<path d="M63.3079 26.4062C62.4635 28.1929 62.3898 30.0963 63.0868 32.1163C63.1473 32.2914 63.1662 32.4724 63.1414 32.6398C63.1166 32.8072 63.049 32.9547 62.946 33.0663C61.5789 34.533 61.0963 36.2763 61.4984 38.2963C61.5065 38.3529 61.4713 38.4619 61.3976 38.6086C61.3239 38.7552 61.2152 38.9325 61.0862 39.1163C58.2514 43.0363 55.2457 46.8296 52.069 50.4963C47.7966 55.4463 44.8813 44.6963 43.9766 42.1763C43.2796 40.2096 42.0465 39.7929 40.2772 40.9263C38.0991 42.3329 37.0603 44.1196 37.1609 46.2863C37.4825 52.7863 38.461 59.1863 40.0963 65.4863C40.7598 68.0663 39.654 70.8362 37.6434 72.1562C36.1087 73.1629 34.9057 72.8662 34.0345 71.2662C32.4059 68.2929 30.831 65.2696 29.3097 62.1963C27.7415 59.0463 25.3188 57.7563 22.9665 61.3163C21.0565 64.1896 20.4902 67.3329 21.2676 70.7463C22.7151 77.1196 24.4509 83.4196 26.4748 89.6462C28.0632 94.5162 25.8415 100.546 23.5897 104.896C23.5259 105.02 23.439 105.13 23.3342 105.22C23.2295 105.31 23.1092 105.377 22.9809 105.419C22.8526 105.46 22.719 105.474 22.5886 105.46C22.4581 105.446 22.3335 105.403 22.2226 105.336C17.5447 102.476 13.1014 99.2963 8.8927 95.7963C8.43692 95.4163 7.92106 95.1556 7.42732 95.056C6.93358 94.9563 6.49043 95.0233 6.16847 95.2463C4.49302 96.4063 3.47431 97.9229 3.11241 99.7963C3.09809 99.8783 3.12924 100.001 3.20217 100.149C3.27511 100.298 3.38689 100.467 3.5246 100.636C8.87933 107.223 14.8037 113.246 21.2977 118.706C22.0122 119.306 22.5231 120.072 22.7654 120.906C23.9315 124.836 26.9674 131.476 24.4844 135.456C24.4112 135.576 24.3144 135.679 24.1997 135.76C24.085 135.841 23.9548 135.898 23.8169 135.928C23.6789 135.958 23.5362 135.96 23.3969 135.934C23.2577 135.908 23.125 135.854 23.0067 135.776C17.6654 132.283 12.1397 129.096 6.42978 126.216C4.94199 125.463 3.5715 125.613 2.31827 126.666C-0.385904 128.926 1.54419 131.216 3.86636 132.646C10.9904 137.053 18.2685 141.196 25.7008 145.076C27.9627 146.256 30.0939 149.276 33.2403 149.426C38.2164 149.646 39.6942 145.796 43.1523 143.206C48.4701 139.216 52.1695 131.076 54.4716 124.996C54.5348 124.834 54.5561 124.661 54.533 124.499C54.51 124.337 54.4435 124.19 54.3409 124.076L52.0589 121.556C51.2949 120.71 50.293 120.856 49.0532 121.996C44.63 126.07 39.7746 129.566 34.4869 132.486C34.3988 132.535 34.3002 132.563 34.1989 132.567C34.0975 132.57 33.996 132.55 33.902 132.508C33.8079 132.465 33.7239 132.402 33.6563 132.322C33.5887 132.242 33.5392 132.148 33.5117 132.046C31.7324 125.426 28.0933 118.486 36.5376 114.266C40.6458 112.213 44.1877 109.13 47.1633 105.016C47.7597 104.183 47.7832 103.226 47.2337 102.146C46.5434 100.78 45.4074 100.063 43.8258 99.9963C43.6087 99.9869 43.4055 100.005 43.2315 100.05C43.0574 100.095 42.9169 100.166 42.8205 100.256C40.4347 102.47 37.6803 103.99 34.5572 104.816C34.3811 104.863 34.1959 104.863 34.0197 104.816C33.8435 104.769 33.6823 104.677 33.5517 104.548C33.4212 104.419 33.3257 104.258 33.2747 104.081C33.2237 103.904 33.2187 103.716 33.2604 103.536C34.4165 98.5863 37.9048 90.7463 43.2327 89.1163C47.4649 87.8163 60.7847 85.7462 58.5429 79.5262C58.4893 79.3821 58.4022 79.2502 58.2876 79.1397C58.1731 79.0292 58.0338 78.9428 57.8794 78.8863C53.9187 77.4163 49.2945 79.0863 45.3438 79.0663C45.0149 79.0662 44.7021 78.9446 44.4692 78.7263C40.3074 74.8563 47.2839 69.3562 50.6817 67.1462C51.0248 66.9273 51.3556 66.8128 51.6066 66.8263C58.2413 67.1596 64.598 66.073 70.6765 63.5663C72.2381 62.9263 72.5698 61.9163 71.6717 60.5363C70.0633 58.0663 64.655 57.6863 61.8302 57.5463C59.8129 57.4529 58.9116 56.4096 59.126 54.4163C59.89 47.5163 68.8872 44.8362 74.8182 44.7662C81.1414 44.6862 86.6604 43.4063 92.6518 42.3563C96.9644 41.5963 102.111 35.1062 94.1194 34.6462C90.0682 34.4162 86.3788 34.7163 83.2826 31.1863C83.1831 31.0694 83.1231 30.9268 83.1121 30.7816C83.1012 30.6363 83.14 30.4971 83.2223 30.3863L85.3032 27.5862" stroke="#8B8B91" stroke-width="2"/>
<path d="M85.3066 27.5859C87.927 24.3859 91.1606 22.7926 95.0074 22.806C98.4052 22.826 108.448 21.7959 107.141 16.1559C105.884 10.7359 99.0185 12.126 95.2688 11.496C95.1152 11.4685 94.9716 11.4035 94.852 11.3072C94.7323 11.2109 94.6404 11.0866 94.5852 10.946C92.9466 6.81599 94.3741 4.53599 90.4435 1.19599C90.3252 1.09705 90.1833 1.03234 90.034 1.00934C89.8846 0.986351 89.7339 1.006 89.5991 1.06598C85.1156 2.95598 82.9844 8.41599 80.9035 12.446C79.6067 14.946 77.1539 18.5259 74.2687 15.9059C70.9815 12.9259 71.836 3.38599 66.4075 4.38599C66.2589 4.41362 66.1174 4.47979 65.9949 4.57898C65.8724 4.67818 65.7726 4.80743 65.7038 4.95594C64.3467 7.98594 62.5875 10.516 62.6378 13.946C62.6981 18.0327 62.9226 22.186 63.3113 26.406" stroke="#868589" stroke-width="2"/>
<path d="M85.3039 27.5859C84.4997 27.6725 84.0038 27.3959 83.8161 26.7559C83.7759 26.6162 83.774 26.4619 83.8106 26.3055C83.8473 26.1491 83.9215 25.9951 84.0272 25.8559C89.4858 18.6459 95.4571 21.7259 102.605 19.2859C103.958 18.8259 104.236 18.0026 103.439 16.8159C100.132 11.8959 92.8535 16.9159 91.1446 8.82593C90.8966 7.6726 90.5681 6.45256 90.1593 5.1659C89.6097 3.4659 88.7787 3.31923 87.6662 4.72589C84.8414 8.28589 83.8563 13.7559 81.0617 16.3759C75.4422 21.6259 70.7275 14.8159 67.2694 11.0059C65.9022 9.49259 65.3024 9.75256 65.4699 11.7859C65.8989 16.8659 65.1784 21.7392 63.3086 26.4059" stroke="#131829" stroke-width="2"/>
<path d="M94.5828 59.6163C91.6273 58.6063 92.5623 66.5062 92.6326 67.7662C92.6443 67.9514 92.6968 68.1249 92.7801 68.2538C92.8635 68.3828 92.9719 68.4584 93.0849 68.4663C94.1204 68.5363 94.9649 61.6163 95.0252 60.3463C95.0313 60.1808 94.9916 60.0204 94.9119 59.8888C94.8322 59.7572 94.7167 59.6617 94.5828 59.6163Z" stroke="#848485" stroke-width="2"/>
<path d="M112.529 71.397C112.773 71.4364 113.059 71.1632 113.322 70.6376C113.585 70.112 113.805 69.3769 113.932 68.5942C114.06 67.8114 114.084 67.045 114.002 66.4636C113.919 65.8822 113.734 65.5334 113.49 65.494C113.245 65.4546 112.96 65.7277 112.696 66.2534C112.433 66.779 112.214 67.514 112.086 68.2968C111.959 69.0796 111.934 69.846 112.017 70.4274C112.1 71.0088 112.284 71.3576 112.529 71.397Z" stroke="#A3A4A5" stroke-width="2"/>
<path d="M79.8368 72.6366C78.416 74.0433 77.9636 75.7733 78.4797 77.8266C79.0493 80.0666 79.552 80.1099 79.9876 77.9565L80.9929 73.0266C81.2609 71.7399 80.8755 71.6099 79.8368 72.6366Z" stroke="#89878E" stroke-width="2"/>
<path d="M130.21 72.8755C127.717 66.5655 123.967 83.2954 123.826 85.2654C123.815 85.4215 123.847 85.5757 123.919 85.7077C123.991 85.8397 124.099 85.9435 124.229 86.0055C125.71 86.7122 126.615 86.1655 126.943 84.3655C127.707 80.1388 128.776 76.6155 130.15 73.7955C130.223 73.6473 130.266 73.4892 130.276 73.3309C130.286 73.1727 130.264 73.0177 130.21 72.8755Z" stroke="#848485" stroke-width="2"/>
<path d="M103.847 78.1426C103.902 77.9962 103.927 77.8404 103.922 77.6843C103.916 77.5281 103.88 77.3745 103.815 77.2323C103.75 77.0901 103.657 76.962 103.542 76.8555C103.427 76.7489 103.292 76.6659 103.145 76.6111L103.07 76.5831C102.923 76.5284 102.766 76.5031 102.609 76.5085C102.452 76.514 102.298 76.5501 102.155 76.6149C102.012 76.6797 101.883 76.7719 101.776 76.8862C101.669 77.0005 101.585 77.1347 101.53 77.2811L96.0171 91.9493C95.9621 92.0957 95.9367 92.2515 95.9421 92.4076C95.9476 92.5638 95.984 92.7174 96.0491 92.8596C96.1143 93.0018 96.2069 93.1299 96.3218 93.2364C96.4367 93.343 96.5716 93.426 96.7188 93.4808L96.794 93.5088C96.9412 93.5635 97.0977 93.5888 97.2547 93.5834C97.4117 93.5779 97.5661 93.5418 97.7091 93.477C97.852 93.4122 97.9808 93.32 98.0879 93.2057C98.195 93.0914 98.2784 92.9572 98.3335 92.8108L103.847 78.1426Z" stroke="#88868B" stroke-width="2"/>
<path d="M113.314 80.3857C111.424 80.3857 108.569 90.4757 107.936 92.3757C106.619 96.3357 104.739 96.9957 105.02 101.976C105.141 104.102 104.947 106.199 104.437 108.266C104.41 108.378 104.398 108.488 104.404 108.575C104.409 108.661 104.432 108.718 104.468 108.736C104.608 108.802 104.759 108.826 104.92 108.806C105.035 108.793 105.154 108.751 105.269 108.682C105.385 108.613 105.495 108.52 105.593 108.406C107.852 105.852 108.76 102.812 108.318 99.2857C108.302 99.1539 108.323 99.0038 108.38 98.8453C108.437 98.6867 108.529 98.5233 108.649 98.3657C111.511 94.6457 113.056 90.4324 113.284 85.7257C113.354 84.3057 114.098 82.6057 113.897 80.9257C113.877 80.7764 113.807 80.6392 113.7 80.5399C113.593 80.4405 113.456 80.3857 113.314 80.3857Z" stroke="#88868B" stroke-width="2"/>
<path d="M83.2136 99.399C83.5209 99.4774 84.0147 98.7812 84.5865 97.4635C85.1582 96.1458 85.761 94.3145 86.2622 92.3724C86.7635 90.4304 87.1221 88.5368 87.2593 87.108C87.3964 85.6793 87.3009 84.8326 86.9936 84.754C86.6863 84.6756 86.1924 85.3718 85.6207 86.6895C85.049 88.0073 84.4462 89.8385 83.9449 91.7806C83.4437 93.7226 83.085 95.6163 82.9479 97.045C82.8107 98.4737 82.9063 99.3205 83.2136 99.399Z" stroke="#89878E" stroke-width="2"/>
<path d="M70.4056 99.1008C70.7043 99.1399 71.0481 98.7439 71.3615 98C71.6748 97.256 71.9319 96.225 72.0763 95.1338C72.2208 94.0426 72.2406 92.9805 72.1316 92.1812C72.0225 91.382 71.7934 90.9109 71.4947 90.8718C71.196 90.8327 70.8522 91.2287 70.5389 91.9726C70.2255 92.7166 69.9684 93.7475 69.8239 94.8388C69.6795 95.93 69.6597 96.9921 69.7688 97.7913C69.8779 98.5906 70.1069 99.0616 70.4056 99.1008Z" stroke="#938E90" stroke-width="2"/>
<path d="M132.802 93.806C132.818 93.6347 132.799 93.4619 132.748 93.2976C132.697 93.1333 132.614 92.9806 132.504 92.8482C132.393 92.7158 132.258 92.6064 132.105 92.5262C131.952 92.4459 131.784 92.3965 131.612 92.3806L131.432 92.364C131.26 92.3481 131.086 92.3661 130.921 92.417C130.756 92.4679 130.602 92.5506 130.469 92.6604C130.336 92.7703 130.226 92.9052 130.145 93.0574C130.065 93.2096 130.015 93.3761 129.999 93.5474L129.529 98.5858C129.513 98.7571 129.531 98.9298 129.582 99.0942C129.633 99.2585 129.717 99.4112 129.827 99.5436C129.938 99.6759 130.073 99.7854 130.226 99.8656C130.379 99.9458 130.546 99.9953 130.719 100.011L130.899 100.028C131.071 100.044 131.245 100.026 131.41 99.9748C131.575 99.9239 131.729 99.8412 131.862 99.7313C131.995 99.6214 132.105 99.4865 132.185 99.3343C132.266 99.1822 132.316 99.0157 132.332 98.8444L132.802 93.806Z" stroke="#88868B" stroke-width="2"/>
<path d="M117.775 110.665C118.058 110.75 118.51 110.238 119.031 109.241C119.553 108.243 120.1 106.843 120.554 105.347C121.008 103.852 121.331 102.384 121.451 101.267C121.572 100.149 121.481 99.4732 121.197 99.388C120.914 99.303 120.462 99.8155 119.941 100.813C119.42 101.81 118.872 103.21 118.418 104.706C117.964 106.201 117.641 107.669 117.521 108.787C117.4 109.904 117.491 110.58 117.775 110.665Z" stroke="#9F9797" stroke-width="2"/>
<path d="M90.826 110.847C90.985 110.879 91.165 110.803 91.3559 110.622C91.5467 110.441 91.7446 110.16 91.9383 109.793C92.1319 109.426 92.3175 108.981 92.4845 108.484C92.6514 107.987 92.7966 107.447 92.9114 106.895C93.1433 105.781 93.2382 104.686 93.1751 103.852C93.1121 103.017 92.8963 102.511 92.5752 102.445C92.4162 102.412 92.2361 102.488 92.0453 102.669C91.8544 102.85 91.6565 103.132 91.4629 103.499C91.2693 103.866 91.0837 104.311 90.9167 104.808C90.7497 105.305 90.6047 105.845 90.4899 106.396C90.258 107.51 90.163 108.605 90.2261 109.44C90.2891 110.274 90.5049 110.78 90.826 110.847Z" stroke="#938E90" stroke-width="2"/>
<path d="M124.631 122.161C124.929 122.245 125.302 122.017 125.668 121.528C126.035 121.038 126.365 120.328 126.585 119.552C126.806 118.776 126.9 117.999 126.845 117.391C126.791 116.783 126.593 116.395 126.295 116.311C125.998 116.227 125.625 116.455 125.258 116.944C124.892 117.434 124.562 118.144 124.341 118.92C124.121 119.696 124.027 120.473 124.082 121.081C124.136 121.689 124.334 122.077 124.631 122.161Z" stroke="#A3A4A5" stroke-width="2"/>
<path d="M94.3244 130.659C94.4501 130.675 94.5891 130.582 94.7334 130.383C94.8778 130.185 95.0248 129.885 95.1659 129.502C95.307 129.118 95.4396 128.659 95.556 128.149C95.6724 127.639 95.7703 127.089 95.8442 126.531C95.9935 125.403 96.0359 124.308 95.9621 123.487C95.8882 122.666 95.7041 122.186 95.4503 122.152C95.3247 122.136 95.1857 122.229 95.0413 122.428C94.897 122.627 94.75 122.926 94.6089 123.309C94.4678 123.693 94.3353 124.152 94.2189 124.662C94.1025 125.172 94.0046 125.722 93.9307 126.28C93.7814 127.408 93.739 128.503 93.8129 129.324C93.8867 130.146 94.0707 130.626 94.3244 130.659Z" stroke="#9F9797" stroke-width="2"/>
<path d="M85.3066 27.5859C84.5024 27.6726 84.0064 27.396 83.8188 26.756C83.7785 26.6163 83.7767 26.4619 83.8133 26.3055C83.85 26.1492 83.9242 25.9952 84.0299 25.856C89.4885 18.646 95.4597 21.726 102.607 19.286C103.961 18.826 104.239 18.0027 103.442 16.816C100.134 11.896 92.8562 16.916 91.1472 8.82599C90.8993 7.67266 90.5708 6.45263 90.162 5.16596C89.6124 3.46596 88.7814 3.31929 87.6689 4.72596C84.8441 8.28596 83.859 13.756 81.0644 16.376C75.4449 21.626 70.7302 14.816 67.272 11.006C65.9049 9.49265 65.3051 9.75262 65.4726 11.786C65.9016 16.866 65.1811 21.7393 63.3113 26.406C62.9226 22.186 62.6981 18.0327 62.6378 13.946C62.5875 10.516 64.3467 7.98594 65.7038 4.95594C65.7726 4.80743 65.8724 4.67818 65.9949 4.57898C66.1174 4.47979 66.2589 4.41362 66.4075 4.38599C71.836 3.38599 70.9815 12.9259 74.2687 15.9059C77.1539 18.5259 79.6067 14.946 80.9035 12.446C82.9844 8.41599 85.1156 2.95598 89.5991 1.06598C89.7339 1.006 89.8846 0.986351 90.034 1.00934C90.1833 1.03234 90.3252 1.09705 90.4435 1.19599C94.3741 4.53599 92.9466 6.81599 94.5852 10.946C94.6404 11.0866 94.7323 11.2109 94.852 11.3072C94.9716 11.4035 95.1152 11.4685 95.2688 11.496C99.0185 12.126 105.884 10.7359 107.141 16.1559C108.448 21.7959 98.4052 22.826 95.0074 22.806C91.1606 22.7926 87.927 24.3859 85.3066 27.5859Z" fill="#0E1221"/>
<path d="M85.3032 27.5859L83.2223 30.3859C83.14 30.4967 83.1012 30.636 83.1121 30.7812C83.1231 30.9264 83.1831 31.0691 83.2826 31.1859C86.3788 34.7159 90.0682 34.4159 94.1194 34.6459C102.111 35.1059 96.9644 41.5959 92.6518 42.3559C86.6604 43.4059 81.1414 44.6859 74.8182 44.7659C68.8872 44.8359 59.89 47.5159 59.126 54.4159C58.9116 56.4092 59.813 57.4526 61.8302 57.5459C64.655 57.6859 70.0633 58.0659 71.6718 60.5359C72.5698 61.9159 72.2381 62.9259 70.6765 63.5659C64.598 66.0726 58.2413 67.1593 51.6066 66.8259C51.3556 66.8125 51.0248 66.9269 50.6817 67.1459C47.2839 69.3559 40.3074 74.8559 44.4692 78.7259C44.7021 78.9442 45.0149 79.0659 45.3438 79.0659C49.2945 79.0859 53.9187 77.4159 57.8794 78.8859C58.0338 78.9424 58.1731 79.0288 58.2876 79.1393C58.4022 79.2498 58.4893 79.3817 58.5429 79.5259C60.7847 85.7459 47.4649 87.8159 43.2327 89.1159C37.9048 90.7459 34.4165 98.5859 33.2604 103.536C33.2187 103.716 33.2237 103.903 33.2747 104.081C33.3257 104.258 33.4212 104.419 33.5517 104.548C33.6823 104.677 33.8435 104.769 34.0197 104.816C34.1959 104.863 34.3811 104.863 34.5572 104.816C37.6803 103.989 40.4347 102.469 42.8205 100.256C42.9169 100.165 43.0574 100.095 43.2315 100.05C43.4055 100.005 43.6087 99.9865 43.8258 99.9959C45.4074 100.063 46.5434 100.779 47.2337 102.146C47.7832 103.226 47.7598 104.183 47.1633 105.016C44.1877 109.129 40.6458 112.213 36.5376 114.266C28.0933 118.486 31.7324 125.426 33.5117 132.046C33.5392 132.147 33.5887 132.241 33.6563 132.321C33.7239 132.401 33.8079 132.465 33.902 132.507C33.996 132.55 34.0975 132.57 34.1989 132.566C34.3002 132.562 34.3988 132.535 34.4869 132.486C39.7746 129.566 44.63 126.069 49.0532 121.996C50.293 120.856 51.2949 120.709 52.0589 121.556L54.3409 124.076C54.4435 124.19 54.51 124.336 54.533 124.499C54.5561 124.661 54.5348 124.833 54.4716 124.996C52.1695 131.076 48.4701 139.216 43.1523 143.206C39.6942 145.796 38.2164 149.646 33.2403 149.426C30.0939 149.276 27.9627 146.256 25.7008 145.076C18.2685 141.196 10.9904 137.053 3.86636 132.646C1.54419 131.216 -0.385904 128.926 2.31827 126.666C3.5715 125.613 4.94199 125.463 6.42978 126.216C12.1397 129.096 17.6654 132.283 23.0067 135.776C23.125 135.854 23.2577 135.907 23.3969 135.933C23.5361 135.959 23.6789 135.957 23.8169 135.927C23.9548 135.898 24.085 135.84 24.1997 135.759C24.3144 135.678 24.4112 135.575 24.4844 135.456C26.9674 131.476 23.9315 124.836 22.7654 120.906C22.5231 120.072 22.0122 119.306 21.2977 118.706C14.8037 113.246 8.87933 107.223 3.5246 100.636C3.38689 100.466 3.27511 100.298 3.20217 100.149C3.12924 100 3.09809 99.8779 3.11241 99.7959C3.47431 97.9226 4.49302 96.4059 6.16847 95.2459C6.49043 95.0229 6.93358 94.9559 7.42732 95.0556C7.92106 95.1553 8.43692 95.4159 8.8927 95.7959C13.1014 99.2959 17.5447 102.476 22.2226 105.336C22.3335 105.403 22.4581 105.445 22.5886 105.459C22.719 105.473 22.8526 105.459 22.9809 105.418C23.1092 105.377 23.2295 105.309 23.3342 105.219C23.439 105.13 23.5259 105.019 23.5897 104.896C25.8415 100.546 28.0632 94.5159 26.4748 89.6459C24.4509 83.4192 22.7151 77.1192 21.2676 70.7459C20.4902 67.3326 21.0565 64.1893 22.9665 61.3159C25.3188 57.7559 27.7415 59.0459 29.3097 62.1959C30.831 65.2693 32.4059 68.2925 34.0345 71.2659C34.9057 72.8659 36.1087 73.1626 37.6434 72.1559C39.654 70.8359 40.7598 68.0659 40.0963 65.4859C38.461 59.1859 37.4825 52.7859 37.1609 46.2859C37.0603 44.1192 38.0991 42.3326 40.2772 40.9259C42.0465 39.7926 43.2796 40.2092 43.9766 42.1759C44.8813 44.6959 47.7966 55.4459 52.069 50.4959C55.2457 46.8292 58.2514 43.0359 61.0862 39.1159C61.2152 38.9321 61.3239 38.7549 61.3976 38.6082C61.4713 38.4616 61.5065 38.3526 61.4984 38.2959C61.0963 36.2759 61.5789 34.5326 62.946 33.0659C63.049 32.9543 63.1166 32.8069 63.1414 32.6395C63.1662 32.4721 63.1473 32.2911 63.0868 32.1159C62.3898 30.0959 62.4635 28.1926 63.3079 26.4059C65.1777 21.7392 65.8982 16.8659 65.4693 11.7859C65.3017 9.75256 65.9015 9.49259 67.2687 11.0059C70.7268 14.8159 75.4415 21.6259 81.061 16.3759C83.8556 13.7559 84.8407 8.28589 87.6656 4.72589C88.778 3.31923 89.609 3.4659 90.1586 5.1659C90.5674 6.45256 90.8959 7.6726 91.1439 8.82593C92.8528 16.9159 100.131 11.8959 103.438 16.8159C104.236 18.0026 103.958 18.8259 102.604 19.2859C95.4564 21.7259 89.4851 18.6459 84.0265 25.8559C83.9208 25.9951 83.8466 26.1491 83.81 26.3055C83.7733 26.4619 83.7752 26.6162 83.8154 26.7559C84.0031 27.3959 84.499 27.6725 85.3032 27.5859Z" fill="#181D31"/>
<path d="M92.6326 67.7662C92.5623 66.5062 91.6273 58.6063 94.5828 59.6163C94.7167 59.6617 94.8322 59.7572 94.9119 59.8888C94.9916 60.0204 95.0313 60.1808 95.0252 60.3463C94.9649 61.6163 94.1204 68.5363 93.0849 68.4663C92.9719 68.4584 92.8635 68.3828 92.7801 68.2538C92.6968 68.1249 92.6443 67.9514 92.6326 67.7662Z" fill="#090F19"/>
<path d="M112.529 71.397C112.284 71.3576 112.1 71.0088 112.017 70.4274C111.934 69.846 111.959 69.0796 112.086 68.2968C112.214 67.514 112.433 66.779 112.696 66.2534C112.96 65.7277 113.245 65.4546 113.49 65.494C113.734 65.5334 113.919 65.8822 114.002 66.4636C114.084 67.045 114.06 67.8114 113.932 68.5942C113.805 69.3769 113.585 70.112 113.322 70.6376C113.059 71.1632 112.773 71.4364 112.529 71.397Z" fill="#474F59"/>
<path d="M79.8368 72.6356C80.8755 71.609 81.2609 71.7389 80.9929 73.0256L79.9876 77.9556C79.552 80.1089 79.0493 80.0656 78.4797 77.8256C77.9636 75.7723 78.416 74.0423 79.8368 72.6356Z" fill="#13162B"/>
<path d="M123.826 85.2654C123.967 83.2954 127.717 66.5655 130.21 72.8755C130.264 73.0177 130.286 73.1727 130.276 73.3309C130.266 73.4892 130.223 73.6473 130.15 73.7955C128.776 76.6155 127.707 80.1388 126.943 84.3655C126.615 86.1655 125.71 86.7122 124.229 86.0055C124.099 85.9435 123.991 85.8397 123.919 85.7077C123.847 85.5757 123.815 85.4215 123.826 85.2654Z" fill="#090F19"/>
<path d="M98.3335 92.8108C98.2784 92.9572 98.195 93.0914 98.0879 93.2057C97.9808 93.32 97.852 93.4122 97.7091 93.477C97.5661 93.5418 97.4117 93.5779 97.2547 93.5834C97.0977 93.5888 96.9412 93.5635 96.794 93.5088L96.7188 93.4808C96.5716 93.426 96.4367 93.343 96.3218 93.2364C96.2069 93.1299 96.1143 93.0018 96.0491 92.8596C95.984 92.7174 95.9476 92.5638 95.9421 92.4076C95.9367 92.2515 95.9621 92.0957 96.0171 91.9493L101.53 77.2811C101.585 77.1347 101.669 77.0005 101.776 76.8862C101.883 76.7719 102.012 76.6797 102.155 76.6149C102.298 76.5501 102.452 76.514 102.609 76.5085C102.766 76.5031 102.923 76.5284 103.07 76.5831L103.145 76.6111C103.292 76.6659 103.427 76.7489 103.542 76.8555C103.657 76.962 103.75 77.0901 103.815 77.2323C103.88 77.3745 103.916 77.5281 103.922 77.6843C103.927 77.8404 103.902 77.9962 103.847 78.1426L98.3335 92.8108Z" fill="#121426"/>
<path d="M107.936 92.3757C108.569 90.4757 111.424 80.3857 113.314 80.3857C113.456 80.3857 113.593 80.4405 113.7 80.5399C113.807 80.6392 113.877 80.7764 113.897 80.9257C114.098 82.6057 113.354 84.3057 113.284 85.7257C113.056 90.4324 111.511 94.6457 108.649 98.3657C108.529 98.5233 108.437 98.6867 108.38 98.8453C108.323 99.0038 108.302 99.1539 108.318 99.2857C108.76 102.812 107.852 105.852 105.593 108.406C105.495 108.52 105.385 108.613 105.269 108.682C105.154 108.751 105.035 108.793 104.92 108.806C104.759 108.826 104.608 108.802 104.468 108.736C104.432 108.718 104.409 108.661 104.404 108.575C104.398 108.488 104.41 108.378 104.437 108.266C104.947 106.199 105.141 104.102 105.02 101.976C104.739 96.9957 106.619 96.3357 107.936 92.3757Z" fill="#121426"/>
<path d="M83.2136 99.399C82.9063 99.3205 82.8107 98.4737 82.9479 97.045C83.085 95.6163 83.4437 93.7226 83.9449 91.7806C84.4462 89.8385 85.049 88.0073 85.6207 86.6895C86.1924 85.3718 86.6863 84.6756 86.9936 84.754C87.3009 84.8326 87.3964 85.6793 87.2593 87.108C87.1221 88.5368 86.7635 90.4304 86.2622 92.3724C85.761 94.3145 85.1582 96.1458 84.5865 97.4635C84.0147 98.7812 83.5209 99.4774 83.2136 99.399Z" fill="#13162B"/>
<path d="M70.4056 99.1008C70.1069 99.0616 69.8779 98.5906 69.7688 97.7913C69.6597 96.9921 69.6795 95.93 69.8239 94.8388C69.9684 93.7475 70.2255 92.7166 70.5389 91.9726C70.8522 91.2287 71.196 90.8327 71.4947 90.8718C71.7934 90.9109 72.0225 91.382 72.1316 92.1812C72.2406 92.9805 72.2208 94.0426 72.0763 95.1338C71.9319 96.225 71.6748 97.256 71.3615 98C71.0481 98.7439 70.7043 99.1399 70.4056 99.1008Z" fill="#27232F"/>
<path d="M132.332 98.8444C132.316 99.0157 132.266 99.1822 132.185 99.3343C132.105 99.4865 131.995 99.6214 131.862 99.7313C131.729 99.8412 131.575 99.9239 131.41 99.9748C131.245 100.026 131.071 100.044 130.899 100.028L130.719 100.011C130.546 99.9953 130.379 99.9458 130.226 99.8656C130.073 99.7854 129.938 99.6759 129.827 99.5436C129.717 99.4112 129.633 99.2585 129.582 99.0942C129.531 98.9298 129.513 98.7571 129.529 98.5858L129.999 93.5474C130.015 93.3761 130.065 93.2096 130.145 93.0574C130.226 92.9052 130.336 92.7703 130.469 92.6604C130.602 92.5506 130.756 92.4679 130.921 92.417C131.086 92.3661 131.26 92.3481 131.432 92.364L131.612 92.3806C131.784 92.3965 131.952 92.4459 132.105 92.5262C132.258 92.6064 132.393 92.7158 132.504 92.8482C132.614 92.9806 132.697 93.1333 132.748 93.2976C132.799 93.4619 132.818 93.6347 132.802 93.806L132.332 98.8444Z" fill="#121426"/>
<path d="M117.775 110.664C117.491 110.579 117.4 109.903 117.521 108.786C117.641 107.668 117.964 106.2 118.418 104.705C118.872 103.209 119.42 101.809 119.941 100.812C120.462 99.8145 120.914 99.302 121.197 99.3871C121.481 99.4722 121.572 100.148 121.451 101.266C121.331 102.383 121.008 103.851 120.554 105.346C120.1 106.842 119.553 108.242 119.031 109.24C118.51 110.237 118.058 110.749 117.775 110.664Z" fill="#40363D"/>
<path d="M90.826 110.847C90.5049 110.78 90.2891 110.274 90.2261 109.44C90.163 108.605 90.258 107.51 90.4899 106.396C90.6047 105.845 90.7497 105.305 90.9167 104.808C91.0837 104.311 91.2693 103.866 91.4629 103.499C91.6565 103.132 91.8544 102.85 92.0453 102.669C92.2361 102.488 92.4162 102.412 92.5752 102.445C92.8963 102.511 93.1121 103.017 93.1751 103.852C93.2382 104.686 93.1433 105.781 92.9114 106.895C92.7966 107.447 92.6514 107.987 92.4845 108.484C92.3175 108.981 92.1319 109.426 91.9383 109.793C91.7446 110.16 91.5467 110.441 91.3559 110.622C91.165 110.803 90.985 110.879 90.826 110.847Z" fill="#27232F"/>
<path d="M124.631 122.161C124.334 122.077 124.136 121.689 124.082 121.081C124.027 120.473 124.121 119.696 124.341 118.92C124.562 118.144 124.892 117.434 125.258 116.944C125.625 116.455 125.998 116.227 126.295 116.311C126.593 116.395 126.791 116.783 126.845 117.391C126.9 117.999 126.806 118.776 126.585 119.552C126.365 120.328 126.035 121.038 125.668 121.528C125.302 122.017 124.929 122.245 124.631 122.161Z" fill="#474F59"/>
<path d="M94.3244 130.659C94.0707 130.626 93.8867 130.146 93.8129 129.324C93.739 128.503 93.7814 127.408 93.9307 126.28C94.0046 125.722 94.1025 125.172 94.2189 124.662C94.3353 124.152 94.4678 123.693 94.6089 123.309C94.75 122.926 94.897 122.627 95.0413 122.428C95.1857 122.229 95.3247 122.136 95.4503 122.152C95.7041 122.186 95.8882 122.666 95.9621 123.487C96.0359 124.308 95.9935 125.403 95.8442 126.531C95.7703 127.089 95.6724 127.639 95.556 128.149C95.4396 128.659 95.307 129.118 95.1659 129.502C95.0248 129.885 94.8778 130.185 94.7334 130.383C94.5891 130.582 94.4501 130.675 94.3244 130.659Z" fill="#40363D"/>
</svg>
