<svg width="157" height="147" viewBox="0 0 157 147" fill="none" xmlns="http://www.w3.org/2000/svg">
<path d="M88.1555 74.0811C89.4755 69.9211 91.3455 65.7111 92.1655 61.7011C95.4055 45.9211 93.2055 29.1512 88.2055 13.8812C87.4655 11.6112 81.5755 -4.53887 78.1755 2.98113C74.9955 10.0278 72.6422 14.7178 71.1155 17.0511C60.2755 33.7111 55.0555 47.4611 47.0255 68.5611C44.5155 75.1311 40.8155 82.8712 36.8855 87.3212C29.3955 95.7912 12.8455 107.251 5.29548 118.761C1.29548 124.871 -0.934517 137.421 3.23548 144.641C3.41207 144.944 3.69677 145.17 4.03248 145.272C4.36819 145.374 4.73007 145.345 5.04548 145.191C10.4455 142.541 15.4255 140.451 21.5155 139.821C30.3622 138.901 38.0888 138.998 44.6955 140.111C69.2755 144.271 89.2655 146.811 112.185 141.821C124.085 139.231 134.956 136.601 146.196 136.271C149.349 136.184 152.525 135.968 155.725 135.621C155.778 135.617 155.828 135.598 155.871 135.568C155.914 135.538 155.949 135.497 155.971 135.449C155.993 135.402 156.003 135.349 155.998 135.297C155.994 135.245 155.975 135.194 155.946 135.151C148.306 123.881 129.715 115.351 117.435 112.111C114.175 111.244 108.222 110.728 99.5755 110.561C99.3955 110.561 98.4355 109.981 98.3155 109.801C98.2818 109.748 98.2616 109.688 98.2561 109.625C98.2507 109.562 98.2601 109.497 98.2839 109.435C98.3078 109.373 98.3453 109.316 98.3939 109.267C98.4426 109.218 98.5011 109.178 98.5655 109.151C106.532 105.851 113.012 102.614 118.006 99.4412C127.116 93.6312 136.395 88.1311 144.865 81.4211C144.912 81.3842 144.949 81.337 144.974 81.2832C144.999 81.2293 145.011 81.1704 145.009 81.1111C145.007 81.0518 144.991 80.9938 144.963 80.9417C144.934 80.8896 144.894 80.8449 144.845 80.8111C138.605 76.4511 128.865 73.9212 121.725 72.2212C112.705 70.0712 101.005 69.9612 92.4255 73.4712C91.1588 73.9912 89.8488 74.3345 88.4955 74.5012C88.4426 74.5099 88.3884 74.5044 88.3383 74.4851C88.2882 74.4659 88.2438 74.4335 88.2096 74.3912C88.1754 74.3489 88.1524 74.2981 88.1429 74.2438C88.1334 74.1894 88.1377 74.1334 88.1555 74.0811Z" stroke="#88868E" stroke-width="2"/>
<path d="M72.1779 31.8711C71.9466 31.913 71.732 32.0187 71.5587 32.1761C71.3853 32.3335 71.2603 32.5363 71.1979 32.7611C70.6779 34.6611 64.7079 53.2911 64.8179 53.4011C64.8665 53.4437 64.9245 53.4743 64.9884 53.4908C65.0522 53.5074 65.1205 53.5097 65.189 53.4975C65.2575 53.4853 65.3248 53.4589 65.3865 53.42C65.4483 53.381 65.5032 53.3303 65.5479 53.2711C69.6579 48.0011 74.9879 39.7411 74.4179 33.1811C74.412 33.0859 74.3634 32.9634 74.2763 32.8241C74.1893 32.6848 74.0662 32.5328 73.9179 32.3811C73.4512 31.9145 72.8712 31.7445 72.1779 31.8711Z" stroke="#7B7D87" stroke-width="2"/>
<path d="M80.8767 42.2914C77.9967 49.2614 76.3067 54.8214 71.7567 62.2814C71.2067 63.1714 71.4767 63.9214 72.6867 63.5714C73.4473 63.3439 74.116 62.8818 74.5967 62.2514C77.9067 57.8514 86.6267 46.6014 82.9267 42.0014C82.7966 41.8375 82.6259 41.7104 82.4315 41.6328C82.2371 41.5553 82.0259 41.5299 81.8186 41.5592C81.6114 41.5885 81.4154 41.6715 81.2502 41.7999C81.085 41.9284 80.9562 42.0978 80.8767 42.2914Z" stroke="#807E8A" stroke-width="2"/>
<path d="M82.4567 87.1311C83.6767 86.8845 84.4733 87.4411 84.8466 88.8011C85.5199 91.2411 84.7566 92.9345 82.5566 93.8811C81.8766 94.1745 81.9033 94.3678 82.6366 94.4611C87.6166 95.1111 90.4866 87.5211 85.5466 84.8211C83.1666 83.5211 80.7166 84.7611 79.3066 86.7711C78.76 87.5511 78.9733 87.8411 79.9466 87.6411L82.4567 87.1311Z" stroke="#807E8A" stroke-width="2"/>
<path d="M41.5159 107.631C41.5659 115.361 53.7358 120.611 56.7258 111.871C57.0458 110.924 56.7259 110.591 55.7659 110.871C45.1259 113.921 47.4359 101.411 53.9459 102.501C54.1902 102.543 54.4193 102.559 54.6057 102.549C54.792 102.538 54.9275 102.501 54.9959 102.441C55.5559 101.934 55.9626 101.331 56.2159 100.631C56.2576 100.525 56.2306 100.392 56.1402 100.257C56.0497 100.122 55.9021 99.9955 55.7258 99.9012C48.6758 96.1312 41.4659 98.9812 41.5159 107.631Z" stroke="#85838C" stroke-width="2"/>
<path d="M54.2086 105.701C56.0086 102.721 51.7386 104.991 53.4686 105.951C53.5884 106.016 53.7321 106.026 53.8698 105.979C54.0076 105.932 54.1289 105.833 54.2086 105.701Z" stroke="#57393E" stroke-width="2"/>
<path d="M98.617 120.031C103.264 120.385 107.814 119.865 112.267 118.471C114.12 117.891 114.27 117.005 112.717 115.811C109.887 113.621 101.417 117.151 98.497 118.671C97.0037 119.451 97.0437 119.905 98.617 120.031Z" stroke="#807E8A" stroke-width="2"/>
<path d="M96.8769 128.431C102.397 129.538 107.47 129.118 112.097 127.171C113.517 126.571 115.647 124.201 113.027 123.271C112.789 123.187 112.486 123.205 112.177 123.321C107.11 125.268 101.864 126.218 96.4369 126.171C96.2851 126.171 96.1386 126.207 96.0122 126.273C95.8858 126.34 95.784 126.436 95.717 126.551C95.1636 127.538 95.5503 128.165 96.8769 128.431Z" stroke="#807E8A" stroke-width="2"/>
<path d="M88.4994 74.5016C89.8527 74.335 91.1627 73.9916 92.4294 73.4716C101.009 69.9616 112.709 70.0716 121.729 72.2216C128.869 73.9216 138.609 76.4516 144.849 80.8116C144.898 80.8454 144.938 80.8901 144.967 80.9422C144.995 80.9943 145.011 81.0523 145.013 81.1116C145.015 81.1709 145.003 81.2298 144.978 81.2837C144.953 81.3375 144.916 81.3847 144.869 81.4216C136.399 88.1316 127.119 93.6316 118.009 99.4416C113.016 102.615 106.536 105.852 98.5694 109.152C98.505 109.179 98.4465 109.218 98.3978 109.267C98.3492 109.316 98.3117 109.374 98.2878 109.435C98.264 109.497 98.2546 109.562 98.26 109.625C98.2655 109.689 98.2857 109.749 98.3194 109.802C98.4394 109.982 99.3994 110.562 99.5794 110.562C108.226 110.728 114.179 111.245 117.439 112.112C129.719 115.352 148.309 123.882 155.949 135.152C155.979 135.195 155.998 135.245 156.002 135.297C156.006 135.35 155.997 135.402 155.975 135.45C155.952 135.498 155.918 135.538 155.875 135.569C155.832 135.599 155.782 135.617 155.729 135.622C152.529 135.968 149.353 136.185 146.199 136.272C134.959 136.602 124.089 139.232 112.189 141.822C89.2694 146.812 69.2794 144.272 44.6994 140.112C38.0927 138.998 30.3661 138.902 21.5194 139.822C15.4294 140.452 10.4494 142.542 5.04939 145.192C4.73397 145.345 4.3721 145.374 4.03639 145.272C3.70068 145.17 3.41597 144.945 3.23939 144.642C-0.930611 137.422 1.29939 124.872 5.29939 118.762C12.8494 107.252 29.3994 95.7916 36.8894 87.3216C40.8194 82.8717 44.5194 75.1316 47.0294 68.5616C55.0594 47.4616 60.2794 33.7116 71.1194 17.0516C72.6461 14.7183 74.9994 10.0283 78.1794 2.98162C81.5794 -4.53838 87.4694 11.6116 88.2094 13.8816C93.2094 29.1516 95.4094 45.9216 92.1694 61.7016C91.3494 65.7116 89.4794 69.9216 88.1594 74.0816C88.1416 74.1339 88.1373 74.1899 88.1468 74.2443C88.1563 74.2986 88.1793 74.3494 88.2135 74.3917C88.2477 74.434 88.2921 74.4663 88.3422 74.4856C88.3923 74.5049 88.4465 74.5104 88.4994 74.5016ZM72.1794 31.8716C71.9481 31.9135 71.7335 32.0192 71.5602 32.1766C71.3868 32.3341 71.2618 32.5368 71.1994 32.7617C70.6794 34.6617 64.7094 53.2916 64.8194 53.4016C64.868 53.4442 64.926 53.4748 64.9899 53.4914C65.0537 53.5079 65.122 53.5102 65.1905 53.498C65.259 53.4858 65.3263 53.4594 65.388 53.4205C65.4498 53.3815 65.5047 53.3308 65.5494 53.2716C69.6594 48.0016 74.9894 39.7416 74.4194 33.1816C74.4135 33.0864 74.3649 32.9639 74.2778 32.8246C74.1908 32.6853 74.0677 32.5333 73.9194 32.3816C73.4527 31.915 72.8727 31.745 72.1794 31.8716ZM80.8794 42.2916C77.9994 49.2617 76.3094 54.8216 71.7594 62.2816C71.2094 63.1716 71.4794 63.9216 72.6894 63.5716C73.4501 63.3441 74.1187 62.882 74.5994 62.2516C77.9094 57.8516 86.6294 46.6016 82.9294 42.0016C82.7993 41.8377 82.6286 41.7106 82.4342 41.633C82.2398 41.5555 82.0286 41.5301 81.8214 41.5594C81.6141 41.5887 81.4182 41.6717 81.2529 41.8002C81.0877 41.9286 80.9589 42.0981 80.8794 42.2916ZM82.4594 87.1316C83.6794 86.885 84.476 87.4416 84.8494 88.8016C85.5227 91.2416 84.7594 92.935 82.5594 93.8816C81.8794 94.175 81.9061 94.3683 82.6394 94.4616C87.6194 95.1116 90.4894 87.5216 85.5494 84.8216C83.1694 83.5216 80.7194 84.7616 79.3094 86.7716C78.7627 87.5516 78.9761 87.8416 79.9494 87.6416L82.4594 87.1316ZM41.5194 107.632C41.5694 115.362 53.7394 120.612 56.7294 111.872C57.0494 110.925 56.7294 110.592 55.7694 110.872C45.1294 113.922 47.4394 101.412 53.9494 102.502C54.1937 102.543 54.4229 102.56 54.6092 102.549C54.7955 102.538 54.931 102.501 54.9994 102.442C55.5594 101.935 55.9661 101.332 56.2194 100.632C56.2612 100.526 56.2342 100.392 56.1437 100.258C56.0532 100.123 55.9056 99.996 55.7294 99.9016C48.6794 96.1316 41.4694 98.9816 41.5194 107.632ZM54.2094 105.702C56.0094 102.722 51.7394 104.992 53.4694 105.952C53.5893 106.016 53.7329 106.026 53.8707 105.979C54.0084 105.933 54.1297 105.833 54.2094 105.702ZM98.6194 120.032C103.266 120.385 107.816 119.865 112.269 118.472C114.123 117.892 114.273 117.005 112.719 115.812C109.889 113.622 101.419 117.152 98.4994 118.672C97.0061 119.452 97.0461 119.905 98.6194 120.032ZM96.8794 128.432C102.399 129.538 107.473 129.118 112.099 127.172C113.519 126.572 115.649 124.202 113.029 123.272C112.792 123.188 112.489 123.206 112.179 123.322C107.113 125.268 101.866 126.218 96.4394 126.172C96.2876 126.172 96.1411 126.207 96.0147 126.274C95.8882 126.34 95.7864 126.436 95.7194 126.552C95.1661 127.538 95.5527 128.165 96.8794 128.432Z" fill="#120F29"/>
<path d="M72.1779 31.8716C72.8712 31.7449 73.4512 31.915 73.9179 32.3816C74.0662 32.5333 74.1893 32.6853 74.2763 32.8246C74.3634 32.9639 74.412 33.0864 74.4179 33.1816C74.9879 39.7416 69.6579 48.0016 65.5479 53.2716C65.5032 53.3308 65.4483 53.3815 65.3865 53.4204C65.3248 53.4594 65.2575 53.4858 65.189 53.498C65.1205 53.5102 65.0522 53.5079 64.9884 53.4913C64.9245 53.4748 64.8665 53.4442 64.8179 53.4016C64.7079 53.2916 70.6779 34.6616 71.1979 32.7616C71.2603 32.5368 71.3853 32.334 71.5587 32.1766C71.732 32.0192 71.9466 31.9135 72.1779 31.8716Z" fill="#E3EBE4"/>
<path d="M80.8767 42.2914C80.9562 42.0978 81.085 41.9284 81.2502 41.7999C81.4154 41.6715 81.6114 41.5885 81.8186 41.5592C82.0259 41.5299 82.2371 41.5553 82.4315 41.6328C82.6259 41.7104 82.7966 41.8375 82.9267 42.0014C86.6267 46.6014 77.9067 57.8514 74.5967 62.2514C74.116 62.8818 73.4473 63.3439 72.6867 63.5714C71.4767 63.9214 71.2067 63.1714 71.7567 62.2814C76.3067 54.8214 77.9967 49.2614 80.8767 42.2914Z" fill="#EEEDEB"/>
<path d="M82.4567 87.1316L79.9466 87.6416C78.9733 87.8416 78.76 87.5516 79.3066 86.7716C80.7166 84.7616 83.1666 83.5216 85.5466 84.8216C90.4866 87.5216 87.6166 95.1116 82.6366 94.4616C81.9033 94.3683 81.8766 94.175 82.5566 93.8816C84.7566 92.935 85.5199 91.2416 84.8466 88.8016C84.4733 87.4416 83.6767 86.885 82.4567 87.1316Z" fill="#EEEDEB"/>
<path d="M56.7258 111.872C53.7358 120.612 41.5659 115.362 41.5159 107.632C41.4659 98.9817 48.6758 96.1316 55.7258 99.9016C55.9021 99.996 56.0497 100.123 56.1402 100.258C56.2306 100.392 56.2576 100.526 56.2159 100.632C55.9626 101.332 55.5559 101.935 54.9959 102.442C54.9275 102.501 54.792 102.538 54.6057 102.549C54.4193 102.56 54.1902 102.543 53.9459 102.502C47.4359 101.412 45.1259 113.922 55.7659 110.872C56.7259 110.592 57.0458 110.925 56.7258 111.872Z" fill="#F8F7EF"/>
<path d="M53.4686 105.952C51.7386 104.992 56.0086 102.722 54.2086 105.702C54.1289 105.833 54.0076 105.933 53.8698 105.979C53.7321 106.026 53.5884 106.016 53.4686 105.952Z" fill="#9C6352"/>
<path d="M98.617 120.031C97.0437 119.905 97.0037 119.451 98.497 118.671C101.417 117.151 109.887 113.621 112.717 115.811C114.27 117.005 114.12 117.891 112.267 118.471C107.814 119.865 103.264 120.385 98.617 120.031Z" fill="#EEEDEB"/>
<path d="M96.8769 128.431C95.5503 128.165 95.1636 127.538 95.717 126.551C95.784 126.436 95.8858 126.34 96.0122 126.273C96.1386 126.207 96.2851 126.171 96.4369 126.171C101.864 126.218 107.11 125.268 112.177 123.321C112.486 123.205 112.789 123.187 113.027 123.271C115.647 124.201 113.517 126.571 112.097 127.171C107.47 129.118 102.397 129.538 96.8769 128.431Z" fill="#EEEDEB"/>
</svg>
