<svg width="149" height="199" viewBox="0 0 149 199" fill="none" xmlns="http://www.w3.org/2000/svg">
<path d="M19.5217 10.7349C17.5817 12.7749 15.8917 14.6849 13.4417 16.3049C5.17174 21.7349 -5.55826 35.1349 6.19174 43.7149C9.06507 45.8149 12.1617 46.2515 15.4817 45.0249" stroke="#FBA49A" stroke-width="2"/>
<path d="M15.4844 45.0249C11.1844 55.3749 12.3844 64.6749 15.4844 75.5749C17.9444 84.2049 22.7144 90.5549 27.0244 97.7349" stroke="#8D94AE" stroke-width="2"/>
<path d="M53.3434 139.445C52.1134 154.355 50.2034 170.055 44.8434 183.355C41.5934 191.395 45.2834 197.325 53.9334 197.625C63.1334 197.938 71.1301 197.452 77.9234 196.165C79.2034 195.925 80.2401 194.935 81.0334 193.195C81.092 193.062 81.1081 192.913 81.0795 192.769C81.051 192.624 80.9791 192.49 80.8734 192.385C76.5334 188.025 66.1534 186.575 58.1134 185.015C58.0535 185.005 57.9967 184.981 57.9467 184.946C57.8967 184.91 57.8548 184.864 57.8236 184.81C57.7924 184.756 57.7727 184.696 57.7658 184.633C57.7588 184.57 57.7649 184.506 57.7834 184.445C64.8334 162.975 71.8434 140.295 71.1734 117.465C71.0834 114.455 69.5334 108.945 67.7434 107.225C56.9534 96.9351 42.6434 82.9051 37.9334 68.5051C37.4534 67.0451 37.6968 66.8085 38.6634 67.7951L43.9934 73.2151C44.2074 73.4293 44.478 73.5664 44.7634 73.6051C46.8768 73.8651 48.9334 73.3951 50.9334 72.1951C63.1868 64.8551 76.4101 59.1918 90.6034 55.2051C92.0634 54.7951 93.0134 54.0751 92.4834 52.4451C92.3959 52.1752 92.406 51.8831 92.5121 51.6199C92.6181 51.3566 92.8133 51.1391 93.0634 51.0051C94.9368 49.9985 96.8368 49.7885 98.7634 50.3751C105.023 52.2885 108.463 56.4951 109.083 62.9951C109.105 63.1952 109.102 63.3828 109.074 63.5415C109.046 63.7002 108.994 63.8251 108.923 63.9051C106.077 67.1985 102.583 69.4751 98.4434 70.7351C98.2808 70.784 98.1355 70.858 98.0204 70.9504C97.9053 71.0428 97.8239 71.1509 97.7834 71.2651C95.6234 77.9051 116.293 73.3151 113.553 59.5251C113.153 57.4985 112.02 55.2385 110.153 52.7451C104.493 45.1751 96.0734 42.2951 87.0334 46.8051C86.6801 46.9851 85.9434 47.7651 84.8234 49.1451C84.7283 49.2656 84.6069 49.3666 84.4661 49.4421C84.3254 49.5176 84.1681 49.5662 84.0034 49.5851C82.6368 49.7451 81.3068 50.0718 80.0134 50.5651C69.4734 54.5851 58.4334 58.3651 48.4234 63.5951C48.3556 63.6304 48.2813 63.6513 48.205 63.6567C48.1288 63.6621 48.0522 63.6519 47.9801 63.6266C47.9079 63.6013 47.8417 63.5615 47.7856 63.5097C47.7294 63.4578 47.6844 63.395 47.6534 63.3251C43.9534 54.5551 40.7334 44.8951 31.9034 39.7151C31.8515 39.6858 31.8072 39.6448 31.774 39.5951C31.7408 39.5455 31.7195 39.4885 31.7118 39.4286C31.704 39.3688 31.7101 39.3076 31.7294 39.2498C31.7488 39.1919 31.781 39.139 31.8234 39.0951C34.4034 36.3651 37.6934 33.7251 39.5734 30.9651C48.6734 17.5551 35.7934 4.65513 21.5234 9.73513" stroke="#8D94AE" stroke-width="2"/>
<path d="M21.525 9.73476L19.365 2.43476C19.2746 2.11762 19.0766 1.84184 18.805 1.65476C13.705 -1.91524 19.365 10.2548 19.525 10.7348" stroke="#ED958A" stroke-width="2"/>
<path d="M21.5214 9.73486L20.6914 10.7349" stroke="#7A2A39" stroke-width="2"/>
<path d="M20.6934 10.7349H19.5234" stroke="#E93A25" stroke-width="2"/>
<path d="M53.3438 139.445C54.3171 134.738 54.4337 130.002 53.6937 125.235" stroke="#8A4452" stroke-width="2"/>
<path d="M53.6923 125.235C53.5657 122.495 52.6423 120.432 50.9223 119.045C43.989 113.472 37.149 107.718 30.4023 101.785" stroke="#8D94AE" stroke-width="2"/>
<path d="M30.4034 101.785L27.0234 97.7349" stroke="#8A4452" stroke-width="2"/>
<path d="M15.4842 45.0249C24.1542 35.0949 13.5242 32.0549 15.4442 23.9949C16.3909 20.0282 18.1409 15.6082 20.6942 10.7349" stroke="#893849" stroke-width="2"/>
<path d="M138.284 23.4151C138.05 23.2867 137.795 23.2103 137.537 23.1912C137.279 23.1722 137.025 23.2111 136.794 23.3051L129.894 26.1151C129.776 26.1655 129.676 26.2553 129.607 26.3729C129.537 26.4904 129.502 26.6305 129.504 26.7751C129.684 33.5451 141.684 25.2751 138.284 23.4151Z" stroke="#F0A499" stroke-width="2"/>
<path d="M110.254 27.715C111.164 24.435 100.094 25.945 98.5244 26.275C98.3433 26.3137 98.1728 26.3909 98.0242 26.5013C97.8757 26.6118 97.7526 26.7529 97.6635 26.9151C97.5743 27.0773 97.5211 27.2568 97.5074 27.4414C97.4938 27.626 97.52 27.8114 97.5844 27.985C99.3544 32.785 106.744 30.265 109.674 28.445C109.964 28.2646 110.171 28.0041 110.254 27.715Z" stroke="#F2ABA0" stroke-width="2"/>
<path d="M135.744 36.7349C132.537 36.6083 129.51 37.2483 126.664 38.6549C125.37 39.2949 125.28 40.0883 126.394 41.0349C129.314 43.5249 133.894 41.0349 136.274 38.6849C137.507 37.4516 137.33 36.8016 135.744 36.7349Z" stroke="#F2ABA0" stroke-width="2"/>
<path d="M139.024 67.3249C140.054 65.8449 146.854 58.5449 143.604 57.4249C143.49 57.384 143.349 57.3967 143.2 57.4611C143.052 57.5256 142.903 57.6387 142.774 57.7849L134.534 67.2949C134.267 67.6015 133.98 67.8082 133.674 67.9149L130.394 69.1149C130.25 69.1684 130.119 69.2525 130.01 69.3612C129.901 69.4699 129.817 69.6007 129.764 69.7449C128.294 73.6449 135.024 70.6449 136.014 70.3249C136.14 70.2824 136.288 70.2803 136.446 70.3187C136.603 70.3571 136.764 70.4349 136.914 70.5449L145.734 76.9849C145.906 77.1103 146.091 77.1968 146.263 77.2326C146.434 77.2685 146.585 77.2518 146.694 77.1849C147.487 76.6982 147.914 75.9582 147.974 74.9649C147.98 74.8684 147.921 74.7392 147.803 74.5946C147.685 74.4499 147.515 74.2966 147.314 74.1549L139.034 68.1849C138.98 68.1475 138.936 68.0955 138.907 68.032C138.877 67.9685 138.861 67.8947 138.86 67.8148C138.859 67.735 138.873 67.6506 138.901 67.5665C138.929 67.4824 138.971 67.4003 139.024 67.3249Z" stroke="#F0A499" stroke-width="2"/>
<path d="M120.873 88.6951C118.473 87.9251 113.683 90.6251 110.963 91.2251C110.78 91.2658 110.609 91.349 110.465 91.4679C110.32 91.5869 110.206 91.7382 110.131 91.9097C110.056 92.0812 110.022 92.2679 110.033 92.4548C110.044 92.6416 110.099 92.8233 110.193 92.9851C112.593 97.0551 119.603 92.5451 121.343 90.1251C121.429 90.0061 121.485 89.8684 121.508 89.7233C121.53 89.5782 121.518 89.4298 121.472 89.2903C121.426 89.1508 121.348 89.0241 121.244 88.9207C121.14 88.8172 121.012 88.7399 120.873 88.6951Z" stroke="#F0A499" stroke-width="2"/>
<path d="M94.2995 90.7862C94.1067 90.3321 93.2594 90.1778 91.9441 90.3572C90.6288 90.5366 88.9531 91.035 87.2857 91.7428C85.6183 92.4505 84.0957 93.3097 83.053 94.1313C82.0103 94.9528 81.5327 95.6695 81.7255 96.1236C81.9183 96.5776 82.7655 96.7319 84.0809 96.5525C85.3962 96.3731 87.0719 95.8747 88.7393 95.167C90.4067 94.4592 91.9293 93.6 92.972 92.7784C94.0147 91.9569 94.4922 91.2402 94.2995 90.7862Z" stroke="#F0A499" stroke-width="2"/>
<path d="M134.542 101.675C134.429 101.621 134.329 101.541 134.253 101.443C134.176 101.345 134.123 101.23 134.1 101.11C134.076 100.989 134.082 100.866 134.117 100.75C134.152 100.634 134.216 100.529 134.302 100.445C135.482 99.3048 138.162 96.0148 137.672 94.3048C137.222 92.7048 135.622 93.9348 135.062 94.7348C132.708 98.1481 129.732 100.885 126.132 102.945C125.991 103.026 125.876 103.137 125.8 103.267C125.723 103.396 125.689 103.538 125.702 103.675C126.022 106.945 130.302 104.685 131.952 104.305C132.104 104.27 132.262 104.266 132.416 104.294C132.571 104.321 132.719 104.379 132.852 104.465C135.232 106.015 142.092 110.615 141.922 105.845C141.915 105.661 141.866 105.486 141.78 105.34C141.693 105.193 141.573 105.081 141.432 105.015L134.542 101.675Z" stroke="#F1A99D" stroke-width="2"/>
<path d="M110.742 110.905C106.636 110.625 103.516 112.332 101.382 116.025C101.072 116.565 101.042 117.685 101.722 117.915C101.845 117.958 101.995 117.952 102.154 117.899C102.313 117.846 102.475 117.748 102.622 117.615C105.136 115.355 107.909 113.468 110.942 111.955C112.169 111.348 112.102 110.998 110.742 110.905Z" stroke="#ED958A" stroke-width="2"/>
<path d="M21.525 9.73476L20.695 10.7348H19.525C19.365 10.2548 13.705 -1.91524 18.805 1.65476C19.0766 1.84184 19.2746 2.11762 19.365 2.43476L21.525 9.73476Z" fill="#DA2B15"/>
<path d="M53.3444 139.445C54.3177 134.738 54.4344 130.001 53.6944 125.235C53.5677 122.495 52.6444 120.431 50.9244 119.045C43.9911 113.471 37.1511 107.718 30.4044 101.785L27.0244 97.7346C22.7144 90.5546 17.9444 84.2046 15.4844 75.5746C12.3844 64.6746 11.1844 55.3746 15.4844 45.0246C24.1544 35.0946 13.5244 32.0546 15.4444 23.9946C16.3911 20.028 18.1411 15.608 20.6944 10.7346L21.5244 9.73464C35.7944 4.65464 48.6744 17.5546 39.5744 30.9646C37.6944 33.7246 34.4044 36.3646 31.8244 39.0946C31.7819 39.1386 31.7498 39.1915 31.7304 39.2493C31.7111 39.3071 31.705 39.3683 31.7127 39.4281C31.7205 39.488 31.7418 39.545 31.775 39.5946C31.8082 39.6443 31.8525 39.6853 31.9044 39.7146C40.7344 44.8946 43.9544 54.5546 47.6544 63.3246C47.6854 63.3945 47.7304 63.4573 47.7865 63.5092C47.8427 63.561 47.9089 63.6008 47.981 63.6261C48.0532 63.6514 48.1297 63.6617 48.206 63.6562C48.2822 63.6508 48.3566 63.6299 48.4244 63.5946C58.4344 58.3646 69.4744 54.5846 80.0144 50.5646C81.3077 50.0713 82.6377 49.7447 84.0044 49.5847C84.1691 49.5658 84.3263 49.5171 84.4671 49.4416C84.6079 49.3661 84.7293 49.2651 84.8244 49.1446C85.9444 47.7646 86.6811 46.9847 87.0344 46.8047C96.0744 42.2947 104.494 45.1746 110.154 52.7446C112.021 55.238 113.154 57.498 113.554 59.5246C116.294 73.3146 95.6244 77.9046 97.7844 71.2646C97.8249 71.1504 97.9062 71.0423 98.0213 70.9499C98.1364 70.8575 98.2817 70.7836 98.4444 70.7346C102.584 69.4746 106.078 67.198 108.924 63.9046C108.995 63.8246 109.047 63.6998 109.075 63.5411C109.103 63.3824 109.106 63.1947 109.084 62.9946C108.464 56.4946 105.024 52.288 98.7644 50.3746C96.8377 49.788 94.9378 49.998 93.0644 51.0047C92.8142 51.1386 92.6191 51.3561 92.513 51.6194C92.407 51.8826 92.3969 52.1747 92.4844 52.4447C93.0144 54.0747 92.0644 54.7946 90.6044 55.2046C76.4111 59.1913 63.1877 64.8547 50.9344 72.1947C48.9344 73.3947 46.8778 73.8646 44.7644 73.6046C44.4789 73.5659 44.2084 73.4288 43.9944 73.2146L38.6644 67.7946C37.6978 66.808 37.4544 67.0447 37.9344 68.5047C42.6444 82.9046 56.9544 96.9346 67.7444 107.225C69.5344 108.945 71.0844 114.455 71.1744 117.465C71.8444 140.295 64.8344 162.975 57.7844 184.445C57.7658 184.506 57.7598 184.57 57.7667 184.633C57.7737 184.695 57.7934 184.756 57.8246 184.81C57.8558 184.864 57.8977 184.91 57.9477 184.945C57.9977 184.98 58.0545 185.004 58.1144 185.015C66.1544 186.575 76.5344 188.025 80.8744 192.385C80.9801 192.49 81.052 192.624 81.0805 192.768C81.1091 192.913 81.093 193.061 81.0344 193.195C80.2411 194.935 79.2044 195.925 77.9244 196.165C71.1311 197.451 63.1344 197.938 53.9344 197.625C45.2844 197.325 41.5944 191.395 44.8444 183.355C50.2044 170.055 52.1144 154.355 53.3444 139.445Z" fill="#1A285D"/>
<path d="M19.5256 10.7349H20.6956C18.1423 15.6082 16.3923 20.0282 15.4456 23.9949C13.5256 32.0549 24.1556 35.0949 15.4856 45.0249C12.1656 46.2515 9.06898 45.8149 6.19564 43.7149C-5.55436 35.1349 5.17564 21.7349 13.4456 16.3049C15.8956 14.6849 17.5856 12.7749 19.5256 10.7349Z" fill="#F74834"/>
<path d="M138.284 23.4151C141.684 25.2751 129.684 33.5451 129.504 26.7751C129.502 26.6305 129.537 26.4904 129.607 26.3729C129.676 26.2553 129.776 26.1655 129.894 26.1151L136.794 23.3051C137.025 23.2111 137.279 23.1722 137.537 23.1912C137.795 23.2103 138.05 23.2867 138.284 23.4151Z" fill="#E14933"/>
<path d="M98.5244 26.275C100.094 25.945 111.164 24.435 110.254 27.715C110.171 28.0041 109.964 28.2646 109.674 28.445C106.744 30.265 99.3544 32.785 97.5844 27.985C97.52 27.8114 97.4938 27.626 97.5074 27.4414C97.5211 27.2568 97.5743 27.0773 97.6635 26.9151C97.7526 26.7529 97.8757 26.6118 98.0242 26.5013C98.1728 26.3909 98.3433 26.3137 98.5244 26.275Z" fill="#E45740"/>
<path d="M135.744 36.7349C137.33 36.8016 137.507 37.4516 136.274 38.6849C133.894 41.0349 129.314 43.5249 126.394 41.0349C125.28 40.0883 125.37 39.2949 126.664 38.6549C129.51 37.2483 132.537 36.6083 135.744 36.7349Z" fill="#E45740"/>
<path d="M139.034 68.1849L147.314 74.1549C147.515 74.2966 147.685 74.4499 147.803 74.5946C147.921 74.7392 147.98 74.8684 147.974 74.9649C147.914 75.9582 147.487 76.6982 146.694 77.1849C146.585 77.2518 146.434 77.2685 146.263 77.2326C146.091 77.1968 145.906 77.1103 145.734 76.9849L136.914 70.5449C136.764 70.4349 136.603 70.3571 136.446 70.3187C136.288 70.2803 136.14 70.2824 136.014 70.3249C135.024 70.6449 128.294 73.6449 129.764 69.7449C129.817 69.6007 129.901 69.4699 130.01 69.3612C130.119 69.2525 130.25 69.1684 130.394 69.1149L133.674 67.9149C133.98 67.8082 134.267 67.6015 134.534 67.2949L142.774 57.7849C142.903 57.6387 143.052 57.5256 143.2 57.4611C143.349 57.3967 143.49 57.384 143.604 57.4249C146.854 58.5449 140.054 65.8449 139.024 67.3249C138.971 67.4003 138.929 67.4824 138.901 67.5665C138.873 67.6506 138.859 67.735 138.86 67.8148C138.861 67.8947 138.877 67.9685 138.907 68.032C138.936 68.0955 138.98 68.1475 139.034 68.1849Z" fill="#E14933"/>
<path d="M120.873 88.6951C121.012 88.7399 121.14 88.8172 121.244 88.9207C121.348 89.0241 121.426 89.1508 121.472 89.2903C121.518 89.4298 121.53 89.5782 121.508 89.7233C121.485 89.8684 121.429 90.0061 121.343 90.1251C119.603 92.5451 112.593 97.0551 110.193 92.9851C110.099 92.8233 110.044 92.6416 110.033 92.4548C110.022 92.2679 110.056 92.0812 110.131 91.9097C110.206 91.7382 110.32 91.5869 110.465 91.4679C110.609 91.349 110.78 91.2658 110.963 91.2251C113.683 90.6251 118.473 87.9251 120.873 88.6951Z" fill="#E14933"/>
<path d="M88.7406 95.1672C92.2128 93.6933 94.7022 91.732 94.3009 90.7864C93.8995 89.8408 90.7593 90.269 87.287 91.7429C83.8148 93.2168 81.3254 95.1782 81.7268 96.1238C82.1281 97.0693 85.2683 96.6411 88.7406 95.1672Z" fill="#E14933"/>
<path d="M134.546 101.675L141.436 105.015C141.577 105.081 141.697 105.193 141.783 105.34C141.87 105.486 141.919 105.661 141.926 105.845C142.096 110.615 135.236 106.015 132.856 104.465C132.723 104.379 132.575 104.321 132.42 104.294C132.266 104.266 132.108 104.27 131.956 104.305C130.306 104.685 126.026 106.945 125.706 103.675C125.693 103.538 125.727 103.396 125.804 103.267C125.88 103.137 125.995 103.026 126.136 102.945C129.736 100.885 132.712 98.1481 135.066 94.7348C135.626 93.9348 137.226 92.7048 137.676 94.3048C138.166 96.0148 135.486 99.3048 134.306 100.445C134.22 100.529 134.156 100.634 134.121 100.75C134.086 100.866 134.08 100.989 134.103 101.11C134.127 101.23 134.179 101.345 134.256 101.443C134.333 101.541 134.433 101.621 134.546 101.675Z" fill="#E3533A"/>
<path d="M110.742 110.905C112.102 110.998 112.169 111.348 110.942 111.955C107.909 113.468 105.136 115.355 102.622 117.615C102.475 117.748 102.313 117.846 102.154 117.899C101.995 117.952 101.845 117.958 101.722 117.915C101.042 117.685 101.072 116.565 101.382 116.025C103.516 112.332 106.636 110.625 110.742 110.905Z" fill="#DA2B15"/>
</svg>
