<svg width="133" height="236" viewBox="0 0 133 236" fill="none" xmlns="http://www.w3.org/2000/svg">
<path d="M117.008 28.7024C111.298 18.0024 94.648 -0.687571 81.028 1.12243C79.7746 1.2891 79.2513 1.99248 79.4579 3.23248C81.1279 13.2825 83.0479 23.7025 84.2179 33.2325C90.3113 82.8191 89.9546 132.392 83.1479 181.952C82.8479 184.172 80.7079 187.662 81.1979 189.562C81.6313 191.236 82.5879 191.296 84.0679 189.742C91.8879 181.532 97.0279 173.742 102.898 162.392C110.228 148.242 118.328 134.852 124.738 120.142C126.918 115.136 128.435 110.152 129.288 105.192C133.928 78.2458 129.835 52.7491 117.008 28.7024Z" stroke="#8B8EA0" stroke-width="2"/>
<path d="M3.65601 185.522C8.69601 205.712 22.326 228.222 44.016 233.672C47.3893 234.512 49.9727 233.832 51.766 231.632C51.9672 231.392 52.0865 231.08 52.106 230.742C53.3927 210.169 54.5594 189.589 55.606 169.002C57.106 139.542 59.946 110.172 61.196 80.7025C62.0093 61.4292 62.486 42.2692 62.626 23.2225C62.6327 22.2892 62.516 21.3692 62.276 20.4625C61.316 16.8325 59.336 18.7225 57.956 20.3425C48.636 31.2425 37.806 42.8825 30.776 54.3225C23.306 66.4625 19.766 76.5625 13.606 92.9625C4.68601 116.662 0.136011 140.233 1.13601 165.733C1.43601 173.413 2.27601 180.009 3.65601 185.522Z" stroke="#8B8EA0" stroke-width="2"/>
<path d="M81.028 1.12243C94.648 -0.687571 111.298 18.0024 117.008 28.7024C129.835 52.7491 133.928 78.2458 129.288 105.192C128.435 110.152 126.918 115.136 124.738 120.142C118.328 134.852 110.228 148.242 102.898 162.392C97.0279 173.742 91.8879 181.532 84.0679 189.742C82.5879 191.296 81.6313 191.236 81.1979 189.562C80.7079 187.662 82.8479 184.172 83.1479 181.952C89.9546 132.392 90.3113 82.8191 84.2179 33.2325C83.0479 23.7025 81.1279 13.2825 79.4579 3.23248C79.2513 1.99248 79.7746 1.2891 81.028 1.12243Z" fill="#181D42"/>
<path d="M44.0199 233.672C22.3299 228.222 8.69992 205.712 3.65992 185.522C2.27992 180.009 1.43992 173.413 1.13992 165.733C0.139917 140.233 4.68992 116.662 13.6099 92.9625C19.7699 76.5625 23.3099 66.4625 30.7799 54.3225C37.8099 42.8825 48.6399 31.2425 57.9599 20.3425C59.3399 18.7225 61.3199 16.8325 62.2799 20.4625C62.5199 21.3692 62.6366 22.2892 62.6299 23.2225C62.4899 42.2692 62.0133 61.4292 61.1999 80.7025C59.9499 110.172 57.1099 139.542 55.6099 169.002C54.5633 189.589 53.3966 210.169 52.1099 230.742C52.0904 231.08 51.9711 231.392 51.7699 231.632C49.9766 233.832 47.3932 234.512 44.0199 233.672Z" fill="#181D42"/>
</svg>
