<svg width="315" height="201" viewBox="0 0 315 201" fill="none" xmlns="http://www.w3.org/2000/svg">
<path d="M223.112 87.2455C234.212 83.9655 245.302 81.1955 256.382 78.9355C259.289 78.3422 262.246 78.0022 265.253 77.9155C277.443 77.5755 288.982 78.0955 300.022 75.2855C305.329 73.9388 308.416 72.8522 309.283 72.0255C313.576 67.9189 314.226 63.0055 311.233 57.2855C310.526 55.9455 309.432 55.1055 307.952 54.7655C301.152 53.2255 295.512 55.1455 288.702 55.9655C264.952 58.8355 241.542 72.4555 221.812 85.2655" stroke="#88868E" stroke-width="2"/>
<path d="M221.814 85.2656C203.848 63.3256 184.374 44.3756 163.394 28.4156C154.874 21.9423 145.271 16.3356 134.584 11.5956C124.494 7.11562 111.244 3.99562 100.964 2.34562C85.2044 -0.194383 68.7245 1.22562 53.0345 3.59562C36.1445 6.14562 19.4644 8.13564 2.41444 9.05564C2.19419 9.06822 1.97943 9.12923 1.78546 9.23432C1.59149 9.33941 1.42308 9.48598 1.29225 9.66361C1.16142 9.84124 1.07138 10.0455 1.02855 10.2619C0.985712 10.4783 0.99114 10.7016 1.04445 10.9156C1.52445 12.8456 2.04444 14.8156 2.97444 16.6156C9.4011 29.0556 16.8111 40.889 25.2044 52.1156C34.6044 64.6956 46.4144 76.6856 61.0744 83.0056C84.9244 93.2856 112.674 100.886 139.944 104.506C156.944 106.759 173.731 110.122 190.304 114.596C213.654 120.896 234.214 126.276 259.224 135.846C266.294 138.556 253.494 122.256 252.844 121.476C240.858 107.129 230.948 95.719 223.114 87.2456" stroke="#FFB3A9" stroke-width="2"/>
<path d="M221.815 85.2656C221.749 86.119 222.182 86.779 223.115 87.2456" stroke="#893C44" stroke-width="2"/>
<path d="M252.465 109.106C263.145 113.096 270.195 118.706 278.655 125.486C278.873 125.659 279.178 125.738 279.505 125.706C282.478 125.412 285.101 124.316 287.375 122.416C287.517 122.296 287.634 122.158 287.718 122.01C287.803 121.862 287.852 121.708 287.865 121.556L288.245 116.536C288.365 114.943 287.631 113.766 286.045 113.006C275.418 107.899 264.418 106.059 253.045 107.486C252.155 107.596 250.745 108.466 252.465 109.106Z" stroke="#88868E" stroke-width="2"/>
<path d="M232.744 167.516C233.054 170.436 238.274 174.376 241.004 174.696C244.404 175.096 249.024 170.806 251.434 168.606C251.539 168.51 251.608 168.381 251.63 168.239C251.652 168.097 251.625 167.952 251.554 167.826C247.344 160.106 242.114 152.706 238.464 144.956C236.951 141.742 235.468 138.506 234.014 135.246C233.942 135.085 233.845 134.944 233.729 134.83C233.614 134.717 233.483 134.633 233.344 134.586C229.674 133.356 230.544 142.606 230.794 144.396C231.421 148.942 231.701 153.509 231.634 158.096C231.584 161.336 232.404 164.296 232.744 167.516Z" stroke="#88868E" stroke-width="2"/>
<path d="M173.713 197.855C176.44 199.389 179.363 199.829 182.483 199.175C188.833 197.845 192.393 192.645 192.523 186.295C192.743 176.355 190.583 166.435 192.493 156.535C192.933 154.245 198.083 134.585 190.993 138.125C190.2 138.518 189.527 139.116 189.043 139.855C182.423 149.965 158.413 189.285 173.713 197.855Z" stroke="#88868E" stroke-width="2"/>
<path d="M42.2129 46.3557C49.3129 52.1091 57.0029 53.2224 65.2829 49.6957C71.8029 46.9157 72.9029 40.0757 73.2829 33.8157C74.3429 16.4357 50.5028 11.1058 40.6028 21.6158C33.5528 29.1158 34.0729 39.7657 42.2129 46.3557Z" stroke="#FFB3A9" stroke-width="2"/>
<path d="M88.1331 24.2054C89.8531 27.4654 102.703 32.1154 106.403 33.3354C107.813 33.8054 108.893 33.3154 109.413 31.9954C109.468 31.8581 109.479 31.7054 109.448 31.555C109.416 31.4046 109.341 31.2626 109.233 31.1454C104.763 26.3954 95.4532 23.7154 89.1832 22.7354C87.8632 22.5354 87.5131 23.0254 88.1331 24.2054Z" stroke="#FDADA5" stroke-width="2"/>
<path d="M110.242 53.0448C110.507 52.507 110.547 51.8861 110.354 51.3187C110.16 50.7513 109.75 50.2838 109.212 50.0192L90.6926 40.9065C90.1548 40.6419 89.5339 40.6017 88.9665 40.7949C88.3991 40.9881 87.9317 41.3987 87.667 41.9365L87.6228 42.0262C87.3582 42.564 87.318 43.1849 87.5112 43.7523C87.7044 44.3197 88.115 44.7872 88.6528 45.0518L107.172 54.1645C107.71 54.4291 108.331 54.4693 108.898 54.2761C109.466 54.083 109.933 53.6723 110.198 53.1345L110.242 53.0448Z" stroke="#FDADA5" stroke-width="2"/>
<path d="M165.884 52.9967C165.995 52.7779 166.063 52.5393 166.082 52.2944C166.101 52.0496 166.072 51.8034 165.996 51.5698C165.92 51.3363 165.799 51.1199 165.64 50.9332C165.48 50.7465 165.286 50.593 165.067 50.4815L151.488 43.5627C151.046 43.3375 150.533 43.2972 150.061 43.4504C149.589 43.6037 149.198 43.938 148.973 44.3799L148.782 44.7541C148.67 44.9729 148.603 45.2115 148.584 45.4563C148.565 45.7012 148.594 45.9474 148.67 46.1809C148.746 46.4145 148.867 46.6308 149.026 46.8176C149.186 47.0043 149.38 47.1578 149.599 47.2693L163.178 54.1881C163.62 54.4132 164.133 54.4536 164.605 54.3004C165.077 54.1471 165.468 53.8128 165.693 53.3709L165.884 52.9967Z" stroke="#FFB3A9" stroke-width="2"/>
<path d="M163.341 64.5691C163.426 64.3095 163.459 64.0357 163.438 63.7633C163.417 63.491 163.342 63.2254 163.219 62.9818C163.095 62.7382 162.925 62.5214 162.717 62.3436C162.51 62.1658 162.27 62.0307 162.01 61.9458L145.832 56.6581C145.573 56.5732 145.299 56.5403 145.026 56.5613C144.754 56.5823 144.489 56.6567 144.245 56.7803C144.001 56.9039 143.784 57.0742 143.607 57.2816C143.429 57.489 143.294 57.7294 143.209 57.989L143.165 58.1221C143.081 58.3818 143.048 58.6556 143.069 58.9279C143.09 59.2003 143.164 59.4658 143.288 59.7094C143.411 59.953 143.582 60.1699 143.789 60.3476C143.996 60.5254 144.237 60.6606 144.496 60.7454L160.674 66.0331C160.934 66.118 161.207 66.1509 161.48 66.1299C161.752 66.109 162.018 66.0346 162.261 65.911C162.505 65.7874 162.722 65.617 162.9 65.4096C163.077 65.2022 163.212 64.9618 163.297 64.7022L163.341 64.5691Z" stroke="#FDADA5" stroke-width="2"/>
<path d="M99.9763 65.7801C100.067 65.559 100.113 65.3221 100.112 65.0831C100.112 64.8441 100.064 64.6077 99.9714 64.3872C99.8792 64.1667 99.7444 63.9665 99.5748 63.7981C99.4052 63.6297 99.2041 63.4963 98.983 63.4056L86.4002 58.245C85.9536 58.0618 85.4525 58.0636 85.0072 58.2499C84.5619 58.4361 84.2089 58.7917 84.0257 59.2382L83.9877 59.3307C83.897 59.5519 83.8507 59.7887 83.8516 60.0277C83.8524 60.2667 83.9003 60.5032 83.9926 60.7237C84.0848 60.9442 84.2195 61.1443 84.3891 61.3128C84.5587 61.4812 84.7599 61.6145 84.981 61.7052L97.5638 66.8658C98.0104 67.049 98.5114 67.0473 98.9567 66.861C99.402 66.6747 99.7551 66.3192 99.9383 65.8726L99.9763 65.7801Z" stroke="#FDADA5" stroke-width="2"/>
<path d="M175.714 94.6058C185.954 104.226 199.964 97.9158 202.954 85.3858C203.468 83.2391 203.258 81.0291 202.324 78.7558C192.734 55.5058 155.494 75.6458 175.714 94.6058Z" stroke="#FFB3A9" stroke-width="2"/>
<path d="M162.683 80.8486C162.849 80.3338 162.804 79.7739 162.557 79.2923C162.311 78.8107 161.883 78.4467 161.368 78.2804L149.093 74.3155C148.578 74.1493 148.018 74.1943 147.537 74.4408C147.055 74.6872 146.691 75.1149 146.525 75.6297L146.482 75.763C146.315 76.2779 146.36 76.8377 146.607 77.3193C146.853 77.801 147.281 78.1649 147.796 78.3312L160.071 82.2961C160.586 82.4624 161.146 82.4173 161.628 82.1709C162.109 81.9244 162.473 81.4967 162.64 80.9819L162.683 80.8486Z" stroke="#FDADA5" stroke-width="2"/>
<path d="M63.4065 40.0261C64.9597 37.7661 65.4743 34.9285 64.837 32.1375C64.1997 29.3466 62.4627 26.8309 60.0082 25.1439C57.5536 23.457 54.5825 22.7369 51.7486 23.1421C48.9146 23.5474 46.4499 25.0447 44.8967 27.3047C43.3434 29.5648 42.8288 32.4023 43.4661 35.1933C44.1034 37.9843 45.8404 40.5 48.295 42.1869C50.7495 43.8739 53.7206 44.5939 56.5545 44.1887C59.3885 43.7835 61.8532 42.2862 63.4065 40.0261Z" stroke="#8B888F" stroke-width="2"/>
<path d="M57.2212 30.3031C57.0183 29.9262 56.7274 29.6014 56.3651 29.3472C56.0028 29.0931 55.5762 28.9146 55.1098 28.8219C54.6433 28.7293 54.146 28.7243 53.6464 28.8072C53.1468 28.8902 52.6546 29.0595 52.1978 29.3054C51.7411 29.5513 51.3288 29.869 50.9845 30.2405C50.6403 30.6119 50.3707 31.0298 50.1912 31.4702C50.0118 31.9107 49.926 32.365 49.9387 32.8074C49.9515 33.2497 50.0625 33.6714 50.2654 34.0484C50.4684 34.4253 50.7593 34.7501 51.1216 35.0043C51.4839 35.2584 51.9104 35.4369 52.3769 35.5296C52.8434 35.6222 53.3406 35.6272 53.8403 35.5443C54.3399 35.4614 54.8321 35.2921 55.2888 35.0462C55.7456 34.8002 56.1578 34.4825 56.5021 34.111C56.8464 33.7396 57.116 33.3217 57.2954 32.8813C57.4749 32.4409 57.5607 31.9865 57.5479 31.5441C57.5352 31.1018 57.4242 30.6801 57.2212 30.3031Z" stroke="#83808B" stroke-width="2"/>
<path d="M196.002 83.7725C196.12 82.685 195.973 81.5795 195.57 80.5192C195.167 79.4588 194.516 78.4643 193.653 77.5925C192.791 76.7207 191.733 75.9887 190.542 75.4382C189.351 74.8877 188.049 74.5296 186.711 74.3842C184.009 74.0907 181.322 74.6816 179.242 76.027C177.163 77.3725 175.86 79.3622 175.622 81.5585C175.504 82.646 175.65 83.7515 176.053 84.8119C176.456 85.8723 177.107 86.8667 177.97 87.7385C178.833 88.6103 179.89 89.3423 181.081 89.8928C182.272 90.4433 183.574 90.8014 184.912 90.9468C187.615 91.2404 190.301 90.6495 192.381 89.304C194.461 87.9586 195.763 85.9688 196.002 83.7725Z" stroke="#FFB7AE" stroke-width="2"/>
<path d="M190.266 81.2615C190.225 80.8525 190.088 80.4573 189.865 80.0983C189.642 79.7393 189.336 79.4235 188.965 79.169C188.593 78.9146 188.164 78.7265 187.702 78.6153C187.239 78.5042 186.752 78.4723 186.269 78.5214C185.786 78.5705 185.315 78.6996 184.884 78.9015C184.454 79.1033 184.071 79.3739 183.759 79.6978C183.446 80.0217 183.21 80.3925 183.063 80.7891C182.917 81.1857 182.863 81.6003 182.904 82.0093C182.946 82.4182 183.082 82.8135 183.305 83.1725C183.529 83.5315 183.835 83.8473 184.206 84.1017C184.577 84.3562 185.006 84.5443 185.469 84.6554C185.931 84.7666 186.418 84.7985 186.902 84.7494C187.385 84.7003 187.855 84.5711 188.286 84.3693C188.717 84.1674 189.099 83.8968 189.412 83.5729C189.724 83.2491 189.961 82.8782 190.107 82.4816C190.254 82.085 190.308 81.6704 190.266 81.2615Z" stroke="#FFB7AE" stroke-width="2"/>
<path d="M221.814 85.2661C221.748 86.1195 222.181 86.7795 223.114 87.2461C230.948 95.7195 240.858 107.129 252.844 121.476C253.494 122.256 266.294 138.556 259.224 135.846C234.214 126.276 213.654 120.896 190.304 114.596C173.731 110.123 156.944 106.759 139.944 104.506C112.674 100.886 84.9244 93.2861 61.0744 83.0061C46.4144 76.6861 34.6044 64.6961 25.2044 52.1161C16.8111 40.8895 9.4011 29.0561 2.97444 16.6161C2.04444 14.8161 1.52445 12.8461 1.04445 10.9161C0.99114 10.702 0.985712 10.4788 1.02855 10.2624C1.07138 10.046 1.16142 9.84173 1.29225 9.6641C1.42308 9.48647 1.59149 9.3399 1.78546 9.23481C1.97943 9.12972 2.19419 9.06871 2.41444 9.05613C19.4644 8.13613 36.1445 6.14611 53.0345 3.59611C68.7244 1.22611 85.2044 -0.193894 100.964 2.34611C111.244 3.99611 124.494 7.11611 134.584 11.5961C145.271 16.3361 154.874 21.9428 163.394 28.4161C184.374 44.3761 203.848 63.3261 221.814 85.2661ZM42.2144 46.3561C49.3144 52.1095 57.0045 53.2228 65.2845 49.6961C71.8045 46.9161 72.9045 40.0761 73.2845 33.8161C74.3445 16.4361 50.5044 11.1061 40.6044 21.6161C33.5544 29.1161 34.0744 39.7661 42.2144 46.3561ZM88.1344 24.2061C89.8544 27.4661 102.704 32.1161 106.404 33.3361C107.814 33.8061 108.894 33.3161 109.414 31.9961C109.469 31.8588 109.481 31.7062 109.449 31.5558C109.417 31.4054 109.343 31.2634 109.234 31.1461C104.764 26.3961 95.4544 23.7161 89.1844 22.7361C87.8644 22.5361 87.5144 23.0261 88.1344 24.2061ZM110.244 53.0454C110.509 52.5076 110.549 51.8867 110.356 51.3193C110.162 50.7519 109.752 50.2844 109.214 50.0198L90.6946 40.9071C90.1568 40.6425 89.5359 40.6023 88.9685 40.7955C88.4011 40.9887 87.9337 41.3993 87.669 41.9371L87.6248 42.0268C87.3602 42.5646 87.3201 43.1855 87.5132 43.7529C87.7064 44.3203 88.117 44.7878 88.6548 45.0524L107.174 54.1651C107.712 54.4297 108.333 54.4699 108.9 54.2767C109.468 54.0836 109.935 53.6729 110.2 53.1351L110.244 53.0454ZM165.885 52.9974C165.997 52.7786 166.064 52.54 166.084 52.2952C166.103 52.0504 166.074 51.8041 165.998 51.5706C165.922 51.337 165.801 51.1207 165.641 50.9339C165.482 50.7472 165.287 50.5937 165.068 50.4822L151.489 43.5634C151.047 43.3383 150.534 43.2979 150.062 43.4511C149.591 43.6044 149.199 43.9387 148.974 44.3806L148.783 44.7548C148.672 44.9736 148.605 45.2122 148.585 45.4571C148.566 45.7019 148.595 45.9481 148.671 46.1817C148.747 46.4152 148.868 46.6316 149.028 46.8183C149.187 47.005 149.382 47.1585 149.601 47.27L163.18 54.1888C163.622 54.414 164.135 54.4543 164.606 54.3011C165.078 54.1478 165.47 53.8135 165.695 53.3716L165.885 52.9974ZM163.342 64.5696C163.427 64.31 163.46 64.0362 163.439 63.7638C163.418 63.4915 163.344 63.2259 163.22 62.9823C163.096 62.7387 162.926 62.5219 162.719 62.3441C162.511 62.1663 162.271 62.0312 162.011 61.9463L145.834 56.6586C145.574 56.5737 145.3 56.5408 145.028 56.5618C144.755 56.5828 144.49 56.6572 144.246 56.7808C144.003 56.9044 143.786 57.0747 143.608 57.2821C143.43 57.4895 143.295 57.7299 143.21 57.9895L143.167 58.1226C143.082 58.3823 143.049 58.6561 143.07 58.9284C143.091 59.2008 143.165 59.4663 143.289 59.7099C143.412 59.9535 143.583 60.1704 143.79 60.3481C143.998 60.5259 144.238 60.6611 144.498 60.7459L160.675 66.0336C160.935 66.1185 161.209 66.1514 161.481 66.1304C161.753 66.1095 162.019 66.0351 162.263 65.9115C162.506 65.7879 162.723 65.6175 162.901 65.4101C163.079 65.2027 163.214 64.9623 163.299 64.7027L163.342 64.5696ZM99.9788 65.7808C100.069 65.5597 100.116 65.3228 100.115 65.0838C100.114 64.8448 100.066 64.6083 99.9739 64.3879C99.8816 64.1674 99.7469 63.9672 99.5773 63.7988C99.4077 63.6304 99.2066 63.497 98.9854 63.4063L86.4026 58.2457C85.9561 58.0625 85.455 58.0643 85.0097 58.2506C84.5644 58.4368 84.2113 58.7923 84.0281 59.2389L83.9901 59.3314C83.8995 59.5526 83.8532 59.7894 83.854 60.0284C83.8549 60.2674 83.9028 60.5039 83.995 60.7244C84.0873 60.9449 84.222 61.145 84.3916 61.3135C84.5612 61.4819 84.7623 61.6152 84.9835 61.7059L97.5663 66.8665C98.0128 67.0497 98.5139 67.048 98.9592 66.8617C99.4045 66.6754 99.7576 66.3199 99.9407 65.8733L99.9788 65.7808ZM175.714 94.6061C185.954 104.226 199.964 97.9161 202.954 85.3861C203.468 83.2394 203.258 81.0294 202.324 78.7561C192.734 55.5061 155.494 75.6461 175.714 94.6061ZM162.685 80.8489C162.851 80.3341 162.806 79.7742 162.56 79.2926C162.313 78.811 161.886 78.447 161.371 78.2807L149.095 74.3158C148.58 74.1496 148.021 74.1946 147.539 74.441C147.057 74.6875 146.693 75.1152 146.527 75.63L146.484 75.7633C146.318 76.2782 146.363 76.838 146.609 77.3196C146.856 77.8012 147.283 78.1652 147.798 78.3315L160.074 82.2964C160.589 82.4627 161.148 82.4176 161.63 82.1712C162.112 81.9247 162.476 81.497 162.642 80.9822L162.685 80.8489Z" fill="#FF695E"/>
<path d="M42.2129 46.3557C34.0729 39.7657 33.5528 29.1158 40.6028 21.6158C50.5028 11.1058 74.3429 16.4357 73.2829 33.8157C72.9029 40.0757 71.8029 46.9157 65.2829 49.6957C57.0029 53.2224 49.3129 52.1091 42.2129 46.3557ZM63.4077 40.0265C64.961 37.7664 65.4756 34.9288 64.8383 32.1378C64.201 29.3469 62.464 26.8312 60.0095 25.1443C57.5549 23.4573 54.5838 22.7372 51.7499 23.1425C48.9159 23.5477 46.4512 25.045 44.8979 27.3051C43.3447 29.5651 42.8301 32.4027 43.4674 35.1936C44.1047 37.9846 45.8417 40.5003 48.2963 42.1873C50.7508 43.8742 53.7219 44.5943 56.5558 44.189C59.3898 43.7838 61.8545 42.2865 63.4077 40.0265Z" fill="#FEFDF3"/>
<path d="M106.403 33.3359C102.703 32.1159 89.8531 27.4659 88.1331 24.2059C87.5131 23.0259 87.8632 22.5359 89.1832 22.7359C95.4532 23.7159 104.763 26.3959 109.233 31.1459C109.341 31.2631 109.416 31.4051 109.448 31.5555C109.479 31.7059 109.468 31.8586 109.413 31.9959C108.893 33.3159 107.813 33.8059 106.403 33.3359Z" fill="#FBF0EB"/>
<path d="M63.4065 40.0266C61.8532 42.2866 59.3885 43.784 56.5545 44.1892C53.7206 44.5944 50.7495 43.8744 48.295 42.1874C45.8404 40.5004 44.1034 37.9847 43.4661 35.1938C42.8288 32.4028 43.3434 29.5652 44.8967 27.3052C46.4499 25.0452 48.9146 23.5478 51.7486 23.1426C54.5825 22.7374 57.5536 23.4575 60.0082 25.1444C62.4627 26.8314 64.1997 29.3471 64.837 32.138C65.4743 34.929 64.9597 37.7666 63.4065 40.0266ZM57.2195 30.3033C57.0165 29.9263 56.7256 29.6015 56.3633 29.3474C56.001 29.0932 55.5745 28.9147 55.108 28.8221C54.6415 28.7294 54.1443 28.7244 53.6446 28.8074C53.145 28.8903 52.6528 29.0596 52.1961 29.3055C51.7393 29.5514 51.3271 29.8692 50.9828 30.2406C50.6385 30.6121 50.3689 31.0299 50.1895 31.4704C50.01 31.9108 49.9242 32.3651 49.937 32.8075C49.9497 33.2499 50.0607 33.6716 50.2637 34.0485C50.4666 34.4254 50.7575 34.7503 51.1198 35.0044C51.4821 35.2586 51.9087 35.4371 52.3751 35.5297C52.8416 35.6224 53.3389 35.6274 53.8385 35.5444C54.3381 35.4615 54.8303 35.2922 55.2871 35.0463C55.7438 34.8004 56.1561 34.4826 56.5004 34.1112C56.8446 33.7397 57.1142 33.3219 57.2937 32.8814C57.4731 32.441 57.5589 31.9866 57.5462 31.5443C57.5334 31.1019 57.4224 30.6802 57.2195 30.3033Z" fill="#18132B"/>
<path d="M55.2877 35.0463C57.2085 34.0121 58.0736 31.8885 57.22 30.3033C56.3665 28.718 54.1174 28.2713 52.1966 29.3056C50.2759 30.3398 49.4107 32.4633 50.2643 34.0486C51.1178 35.6338 53.3669 36.0805 55.2877 35.0463Z" fill="#EEEDEB"/>
<path d="M109.211 50.0197L90.6919 40.907C89.5719 40.3559 88.2173 40.8171 87.6663 41.937L87.6221 42.0267C87.071 43.1466 87.5322 44.5012 88.6521 45.0523L107.172 54.165C108.291 54.7161 109.646 54.2549 110.197 53.135L110.241 53.0453C110.792 51.9253 110.331 50.5707 109.211 50.0197Z" fill="#FBF0EB"/>
<path d="M165.065 50.4821L151.486 43.5633C150.566 43.0944 149.44 43.4603 148.971 44.3805L148.781 44.7548C148.312 45.675 148.678 46.801 149.598 47.2699L163.177 54.1887C164.097 54.6576 165.223 54.2917 165.692 53.3715L165.883 52.9973C166.352 52.0771 165.986 50.951 165.065 50.4821Z" fill="#FEFDF3"/>
<path d="M223.115 87.246C222.182 86.7793 221.749 86.1193 221.815 85.266C241.545 72.456 264.955 58.836 288.705 55.966C295.515 55.146 301.155 53.226 307.955 54.766C309.435 55.106 310.529 55.946 311.235 57.286C314.229 63.006 313.579 67.9193 309.285 72.026C308.419 72.8527 305.332 73.9393 300.025 75.286C288.985 78.096 277.445 77.576 265.255 77.916C262.249 78.0027 259.292 78.3427 256.385 78.936C245.305 81.196 234.215 83.966 223.115 87.246Z" fill="#120F29"/>
<path d="M162.01 61.9461L145.833 56.6584C144.741 56.3015 143.566 56.8974 143.209 57.9893L143.166 58.1224C142.809 59.2143 143.405 60.3887 144.497 60.7456L160.674 66.0333C161.766 66.3902 162.941 65.7944 163.298 64.7025L163.341 64.5694C163.698 63.4775 163.102 62.303 162.01 61.9461Z" fill="#FBF0EB"/>
<path d="M98.9855 63.4059L86.4026 58.2453C85.4726 57.8639 84.4096 58.3086 84.0281 59.2386L83.9902 59.3311C83.6088 60.2611 84.0535 61.3242 84.9835 61.7056L97.5663 66.8662C98.4963 67.2476 99.5594 66.8029 99.9408 65.8729L99.9788 65.7804C100.36 64.8504 99.9155 63.7873 98.9855 63.4059Z" fill="#FBF0EB"/>
<path d="M175.714 94.6058C155.494 75.6458 192.734 55.5058 202.324 78.7558C203.258 81.0291 203.468 83.2391 202.954 85.3858C199.964 97.9158 185.954 104.226 175.714 94.6058ZM196.004 83.7728C196.123 82.6853 195.976 81.5798 195.573 80.5194C195.17 79.4591 194.519 78.4646 193.656 77.5928C192.793 76.721 191.736 75.989 190.545 75.4385C189.354 74.888 188.052 74.5299 186.714 74.3845C184.011 74.0909 181.325 74.6819 179.245 76.0273C177.165 77.3728 175.863 79.3625 175.624 81.5588C175.506 82.6463 175.653 83.7518 176.056 84.8122C176.459 85.8726 177.11 86.867 177.973 87.7388C178.836 88.6106 179.893 89.3426 181.084 89.8931C182.275 90.4436 183.577 90.8017 184.915 90.9471C187.617 91.2407 190.304 90.6498 192.384 89.3043C194.463 87.9589 195.766 85.9691 196.004 83.7728Z" fill="#FEFDF3"/>
<path d="M196.002 83.773C195.763 85.9693 194.461 87.9591 192.381 89.3045C190.301 90.65 187.615 91.2409 184.912 90.9473C183.574 90.8019 182.272 90.4438 181.081 89.8933C179.89 89.3428 178.833 88.6108 177.97 87.739C177.107 86.8672 176.456 85.8728 176.053 84.8124C175.65 83.752 175.504 82.6465 175.622 81.559C175.86 79.3627 177.163 77.373 179.242 76.0275C181.322 74.6821 184.009 74.0911 186.711 74.3847C188.049 74.5301 189.351 74.8882 190.542 75.4387C191.733 75.9892 192.791 76.7212 193.653 77.593C194.516 78.4648 195.167 79.4593 195.57 80.5196C195.973 81.58 196.12 82.6855 196.002 83.773ZM190.263 81.2621C190.221 80.8532 190.085 80.4579 189.862 80.0989C189.638 79.7399 189.332 79.4241 188.961 79.1697C188.59 78.9152 188.161 78.7271 187.698 78.616C187.236 78.5048 186.749 78.4729 186.265 78.522C185.782 78.5711 185.311 78.7003 184.881 78.9021C184.45 79.104 184.068 79.3746 183.755 79.6984C183.443 80.0223 183.206 80.3931 183.06 80.7897C182.913 81.1863 182.859 81.601 182.901 82.0099C182.942 82.4188 183.078 82.8141 183.302 83.1731C183.525 83.5322 183.831 83.8479 184.202 84.1023C184.574 84.3568 185.003 84.5449 185.465 84.6561C185.928 84.7672 186.415 84.7991 186.898 84.75C187.381 84.7009 187.852 84.5717 188.283 84.3699C188.713 84.168 189.096 83.8974 189.408 83.5736C189.721 83.2497 189.957 82.8789 190.104 82.4823C190.25 82.0857 190.304 81.671 190.263 81.2621Z" fill="#FF7069"/>
<path d="M161.369 78.2804L149.094 74.3155C148.021 73.9692 146.872 74.5576 146.525 75.6297L146.482 75.763C146.136 76.8351 146.724 77.9849 147.797 78.3312L160.072 82.2961C161.144 82.6424 162.294 82.054 162.64 80.9819L162.683 80.8486C163.03 79.7765 162.441 78.6267 161.369 78.2804Z" fill="#FBF0EB"/>
<path d="M186.9 84.75C188.933 84.5435 190.439 82.982 190.264 81.2622C190.09 79.5424 188.3 78.3156 186.267 78.5221C184.234 78.7286 182.728 80.2902 182.902 82.01C183.077 83.7298 184.867 84.9565 186.9 84.75Z" fill="#FEFDF3"/>
<path d="M252.465 109.106C250.745 108.466 252.155 107.596 253.045 107.486C264.418 106.059 275.418 107.899 286.045 113.006C287.631 113.766 288.365 114.943 288.245 116.536L287.865 121.556C287.852 121.708 287.803 121.862 287.718 122.01C287.634 122.158 287.517 122.296 287.375 122.416C285.101 124.316 282.478 125.412 279.505 125.706C279.178 125.738 278.873 125.659 278.655 125.486C270.195 118.706 263.145 113.096 252.465 109.106Z" fill="#120F29"/>
<path d="M241.004 174.696C238.274 174.376 233.054 170.436 232.744 167.516C232.404 164.296 231.584 161.336 231.634 158.096C231.701 153.509 231.421 148.942 230.794 144.396C230.544 142.606 229.674 133.356 233.344 134.586C233.483 134.633 233.614 134.717 233.729 134.83C233.845 134.944 233.942 135.085 234.014 135.246C235.468 138.506 236.951 141.742 238.464 144.956C242.114 152.706 247.344 160.106 251.554 167.826C251.625 167.952 251.652 168.097 251.63 168.239C251.608 168.381 251.539 168.51 251.434 168.606C249.024 170.806 244.404 175.096 241.004 174.696Z" fill="#120F29"/>
<path d="M173.713 197.856C158.413 189.286 182.423 149.966 189.043 139.856C189.527 139.116 190.2 138.519 190.993 138.126C198.083 134.586 192.933 154.246 192.493 156.536C190.583 166.436 192.743 176.356 192.523 186.296C192.393 192.646 188.833 197.846 182.483 199.176C179.363 199.829 176.44 199.389 173.713 197.856Z" fill="#120F29"/>
</svg>
