<svg width="105" height="170" viewBox="0 0 105 170" fill="none" xmlns="http://www.w3.org/2000/svg">
<path d="M54.5833 8.55501C52.7133 16.335 57.5033 21.405 63.1833 25.835C63.3229 25.9425 63.4823 26.0111 63.6386 26.0308C63.7948 26.0506 63.94 26.0206 64.0533 25.945C66.18 24.5184 68.5566 23.8817 71.1833 24.035C71.278 24.0417 71.405 24.0088 71.5531 23.939C71.7013 23.8693 71.8662 23.7649 72.0333 23.635C77.4733 19.395 76.1333 9.31498 72.3033 5.34498C66.7433 -0.435017 56.9733 -1.455 54.5833 8.55501Z" stroke="#8E9094" stroke-width="2"/>
<path d="M77.5938 38.7549L75.5938 38.5049" stroke="#F8B8A3" stroke-width="2"/>
<path d="M75.5967 38.5048C76.9767 35.0048 76.0434 32.5014 72.7967 30.9948C72.6702 30.9367 72.5267 30.9208 72.3855 30.9494C72.2442 30.978 72.1121 31.0497 72.0067 31.1548L68.6367 34.5448" stroke="#918B8D" stroke-width="2"/>
<path d="M68.6337 34.5449L67.3438 33.5049" stroke="#F8B8A3" stroke-width="2"/>
<path d="M67.3434 33.5049L69.6734 30.2048C69.7099 30.1517 69.7334 30.0904 69.7426 30.0244C69.7518 29.9584 69.7465 29.889 69.7269 29.8203C69.7074 29.7515 69.6741 29.6847 69.6289 29.6237C69.5837 29.5627 69.5275 29.5088 69.4634 29.4648C66.5368 27.3982 63.2234 26.2382 59.5234 25.9849" stroke="#8E8889" stroke-width="2"/>
<path d="M59.5234 25.985C53.8534 20.185 45.1934 20.345 38.0734 22.745C36.5667 23.2516 35.3201 24.1317 34.3334 25.385C34.2362 25.5073 34.167 25.6503 34.1308 25.8041C34.0945 25.9578 34.092 26.1185 34.1234 26.2749C34.5434 28.4416 35.4134 30.8149 36.7334 33.3949C40.0201 39.7949 43.3901 46.2116 46.8434 52.6449" stroke="#F8B8A3" stroke-width="2"/>
<path d="M46.8452 52.645C38.2252 69.965 30.9552 87.3351 24.9852 105.995C19.7452 122.388 13.9285 138.585 7.53518 154.585C7.39338 154.945 7.16579 155.226 6.89518 155.375C5.24184 156.262 3.91184 157.505 2.90517 159.105C2.80556 159.258 2.74554 159.429 2.73145 159.6C2.71736 159.771 2.74974 159.935 2.82517 160.075C3.5185 161.348 3.19184 162.342 1.84517 163.055C1.76966 163.096 1.68277 163.197 1.59324 163.346C1.50371 163.495 1.4147 163.688 1.33518 163.905C-0.404821 168.665 5.19517 162.365 5.21517 162.345C5.26808 162.293 5.3296 162.25 5.39614 162.22C5.46267 162.19 5.5329 162.172 5.60271 162.168C5.67253 162.165 5.74054 162.175 5.80277 162.198C5.865 162.222 5.9202 162.258 5.96517 162.305C6.77517 163.155 2.42517 165.625 5.12517 168.665C5.21231 168.764 5.32276 168.839 5.44782 168.884C5.57288 168.929 5.70911 168.943 5.84581 168.924C5.98252 168.906 6.11594 168.856 6.23557 168.778C6.3552 168.7 6.45776 168.596 6.53518 168.475L10.9952 161.455C11.1364 161.23 11.428 161.009 11.8152 160.835C19.7018 157.175 31.4418 151.152 47.0352 142.765C51.5552 140.335 52.2252 138.205 50.8452 133.145C49.5718 128.492 48.2952 123.765 47.0152 118.965C46.9965 118.894 46.9917 118.82 47.0013 118.748C47.0108 118.677 47.0344 118.608 47.0705 118.549C47.1066 118.489 47.1542 118.439 47.2103 118.402C47.2663 118.365 47.3294 118.342 47.3952 118.335C60.0885 116.802 72.4819 113.972 84.5752 109.845C84.7029 109.802 84.8383 109.786 84.9735 109.799C85.1087 109.811 85.241 109.85 85.3628 109.915C85.4846 109.981 85.5935 110.07 85.6831 110.178C85.7728 110.286 85.8415 110.411 85.8852 110.545C88.7552 119.295 92.3552 106.745 93.0552 104.515C93.1396 104.257 93.1309 103.977 93.0306 103.723C92.9302 103.47 92.7445 103.258 92.5052 103.125C84.2452 98.5651 76.6952 93.255 68.5752 88.485C68.2829 88.3095 68.0617 88.0602 67.9452 87.775C67.2452 86.0017 66.6552 83.335 66.1752 79.775C65.8152 77.115 63.6252 68.5717 59.6052 54.145" stroke="#8E9094" stroke-width="2"/>
<path d="M59.6055 54.1449C64.0188 54.4116 68.3555 55.2916 72.6155 56.7849C74.3355 57.3849 75.8055 57.0049 77.0255 55.6449C80.0855 52.2382 82.1788 48.2883 83.3055 43.7949" stroke="#F8B8A3" stroke-width="2"/>
<path d="M83.3037 43.7947C85.2237 40.3014 87.1571 36.8147 89.1038 33.3347C91.8438 28.4147 97.7137 30.5347 102.584 28.7147C102.751 28.6548 102.902 28.5699 103.028 28.4651C103.153 28.3603 103.25 28.2378 103.314 28.1047C104.274 26.0447 100.194 27.7048 101.144 25.5048C101.193 25.3937 101.281 25.292 101.401 25.2083C101.521 25.1247 101.67 25.0617 101.834 25.0247C102.52 24.8714 102.95 24.4681 103.124 23.8148C103.156 23.6985 103.144 23.5688 103.089 23.4435C103.033 23.3181 102.937 23.2033 102.814 23.1147C101.334 22.0281 100.32 22.2347 99.7737 23.7347C99.6204 24.1347 99.4704 24.1581 99.3238 23.8048C98.7971 22.5448 98.9338 21.428 99.7338 20.4547C99.859 20.3015 99.9554 20.1412 100.016 19.9855C100.076 19.8299 100.1 19.6828 100.084 19.5548C99.8137 17.2448 94.6737 19.9247 93.3037 20.6747C93.2097 20.7276 93.0818 20.7569 92.9295 20.7603C92.7772 20.7638 92.6043 20.7414 92.4237 20.6948L88.8438 19.7747C88.716 19.7411 88.5619 19.7823 88.4072 19.8915C88.2525 20.0007 88.1065 20.1713 87.9937 20.3748L77.5938 38.7548" stroke="#8F8F8F" stroke-width="2"/>
<path d="M83.3037 43.7949C79.8737 44.5349 78.7138 41.5049 77.5938 38.7549" stroke="#884733" stroke-width="2"/>
<path d="M59.6037 54.145C56.2137 51.935 55.5038 55.085 53.0338 56.235C52.9105 56.2917 52.7691 56.2974 52.6375 56.251C52.506 56.2047 52.394 56.1098 52.3237 55.985C51.0904 53.825 49.2638 52.7117 46.8438 52.645" stroke="#874937" stroke-width="2"/>
<path d="M14.1368 152.045C13.7468 152.375 12.0668 153.555 11.9268 153.905C11.7802 154.312 11.9702 154.375 12.4968 154.095C23.2668 148.425 34.1868 143.105 45.0268 137.655C45.2531 137.54 45.4305 137.347 45.5276 137.109C45.6247 136.871 45.635 136.603 45.5568 136.355L38.8768 115.495C38.8198 115.32 38.8021 115.134 38.8247 114.951C38.8473 114.767 38.9098 114.591 39.0078 114.434C39.1058 114.277 39.237 114.143 39.3922 114.041C39.5475 113.94 39.7231 113.873 39.9068 113.845C42.3968 113.485 44.9268 113.625 47.1468 113.255C57.4735 111.502 67.6101 108.985 77.5568 105.705C78.8901 105.265 79.7968 104.825 80.2768 104.385C80.4479 104.231 80.5794 104.039 80.6603 103.823C80.7412 103.608 80.769 103.376 80.7416 103.147C80.7142 102.918 80.6323 102.698 80.5027 102.506C80.3731 102.315 80.1997 102.156 79.9968 102.045C75.3835 99.5115 70.9702 96.9649 66.7568 94.4049C63.1668 92.2249 60.9468 90.5649 60.1268 86.1649C58.8602 79.3315 56.8335 72.6916 54.0468 66.2449C53.911 65.9279 53.6843 65.6764 53.4068 65.5349C51.6935 64.6815 50.2502 65.1982 49.0768 67.0849C41.4068 79.3949 36.8968 89.9549 31.6668 105.235C26.8468 119.315 21.4602 133.188 15.5068 146.855C15.3893 147.123 15.3511 147.453 15.3968 147.805C15.5168 148.705 15.2635 149.452 14.6368 150.045" stroke="#8E9094" stroke-width="2"/>
<path d="M63.1833 25.8355C57.5033 21.4055 52.7133 16.3355 54.5833 8.55549C56.9733 -1.45451 66.7433 -0.434529 72.3033 5.34547C76.1333 9.31547 77.4733 19.3955 72.0333 23.6355C71.8662 23.7654 71.7013 23.8698 71.5531 23.9395C71.405 24.0093 71.278 24.0422 71.1833 24.0355C68.5566 23.8821 66.18 24.5188 64.0533 25.9455C63.94 26.021 63.7948 26.0511 63.6386 26.0313C63.4823 26.0116 63.3229 25.943 63.1833 25.8355Z" fill="#1D2128"/>
<path d="M83.3037 43.7952C79.8737 44.5352 78.7138 41.5053 77.5938 38.7553L87.9937 20.3752C88.1065 20.1718 88.2525 20.0012 88.4072 19.892C88.5619 19.7828 88.716 19.7416 88.8438 19.7752L92.4237 20.6953C92.6043 20.7419 92.7772 20.7643 92.9295 20.7608C93.0818 20.7573 93.2097 20.7281 93.3037 20.6752C94.6737 19.9252 99.8137 17.2452 100.084 19.5552C100.1 19.6832 100.076 19.8304 100.016 19.986C99.9554 20.1417 99.859 20.3019 99.7338 20.4552C98.9338 21.4285 98.7971 22.5452 99.3238 23.8052C99.4704 24.1586 99.6204 24.1352 99.7737 23.7352C100.32 22.2352 101.334 22.0286 102.814 23.1152C102.937 23.2038 103.033 23.3186 103.089 23.444C103.144 23.5693 103.156 23.699 103.124 23.8152C102.95 24.4686 102.52 24.8719 101.834 25.0252C101.67 25.0621 101.521 25.1252 101.401 25.2088C101.281 25.2924 101.193 25.3942 101.144 25.5053C100.194 27.7053 104.274 26.0452 103.314 28.1052C103.25 28.2383 103.153 28.3608 103.028 28.4656C102.902 28.5704 102.751 28.6552 102.584 28.7152C97.7137 30.5352 91.8438 28.4152 89.1038 33.3352C87.1571 36.8152 85.2237 40.3019 83.3037 43.7952Z" fill="#1E1E1F"/>
<path d="M59.5234 25.9855C48.1134 22.4055 53.9334 44.3955 67.3434 33.5055L68.6334 34.5455C60.9934 42.6055 47.7034 37.9254 50.8234 25.7754C51.3101 23.8821 50.5701 22.8255 48.6034 22.6055C45.6567 22.2855 42.8401 22.6988 40.1534 23.8454C38.8667 24.3921 38.1667 25.3022 38.0534 26.5755C37.3334 34.4855 47.7134 45.3455 54.6534 47.8855C62.5934 50.8055 71.3134 44.9255 75.5934 38.5055L77.5934 38.7555C78.7134 41.5055 79.8734 44.5355 83.3034 43.7955C82.1767 48.2888 80.0834 52.2388 77.0234 55.6454C75.8034 57.0054 74.3334 57.3854 72.6134 56.7854C68.3534 55.2921 64.0167 54.4121 59.6034 54.1454C56.2134 51.9354 55.5034 55.0855 53.0334 56.2355C52.9102 56.2921 52.7687 56.2978 52.6372 56.2514C52.5056 56.2051 52.3936 56.1102 52.3234 55.9855C51.0901 53.8255 49.2634 52.7121 46.8434 52.6454C43.3901 46.2121 40.0201 39.7954 36.7334 33.3954C35.4134 30.8154 34.5434 28.4421 34.1234 26.2754C34.092 26.119 34.0945 25.9583 34.1308 25.8045C34.167 25.6508 34.2362 25.5078 34.3334 25.3855C35.3201 24.1321 36.5667 23.2521 38.0734 22.7455C45.1934 20.3455 53.8534 20.1855 59.5234 25.9855Z" fill="#F17046"/>
<path d="M68.6351 34.5452L72.0051 31.1552C72.1104 31.0501 72.2426 30.9785 72.3838 30.9499C72.525 30.9213 72.6686 30.9371 72.7951 30.9952C76.0417 32.5019 76.9751 35.0052 75.5951 38.5052C71.3151 44.9252 62.5951 50.8052 54.6551 47.8852C47.7151 45.3452 37.3351 34.4852 38.0551 26.5752C38.1684 25.3019 38.8684 24.3919 40.1551 23.8452C42.8417 22.6985 45.6584 22.2852 48.6051 22.6052C50.5717 22.8252 51.3117 23.8819 50.8251 25.7752C47.7051 37.9252 60.9951 42.6052 68.6351 34.5452Z" fill="#22171B"/>
<path d="M59.5224 25.9853C63.2224 26.2386 66.5357 27.3986 69.4624 29.4653C69.5264 29.5092 69.5826 29.5631 69.6278 29.6241C69.6731 29.6851 69.7064 29.7519 69.7259 29.8207C69.7454 29.8894 69.7507 29.9588 69.7415 30.0248C69.7323 30.0908 69.7088 30.1521 69.6724 30.2053L67.3424 33.5053C53.9324 44.3953 48.1124 22.4053 59.5224 25.9853Z" fill="#1C1112"/>
<path d="M46.8452 52.6455C49.2652 52.7122 51.0918 53.8255 52.3252 55.9855C52.3954 56.1103 52.5074 56.2052 52.6389 56.2515C52.7705 56.2978 52.9119 56.2921 53.0352 56.2355C55.5052 55.0855 56.2152 51.9355 59.6052 54.1455C63.6252 68.5722 65.8152 77.1155 66.1752 79.7755C66.6552 83.3355 67.2452 86.0022 67.9452 87.7755C68.0617 88.0607 68.2829 88.31 68.5752 88.4855C76.6952 93.2555 84.2452 98.5655 92.5052 103.126C92.7445 103.259 92.9302 103.47 93.0306 103.724C93.1309 103.978 93.1396 104.257 93.0552 104.516C92.3552 106.746 88.7552 119.296 85.8852 110.546C85.8415 110.411 85.7728 110.286 85.6831 110.178C85.5935 110.07 85.4846 109.981 85.3628 109.916C85.241 109.851 85.1087 109.811 84.9735 109.799C84.8383 109.787 84.7029 109.803 84.5752 109.846C72.4819 113.972 60.0885 116.802 47.3952 118.336C47.3294 118.343 47.2663 118.365 47.2103 118.402C47.1542 118.439 47.1066 118.489 47.0705 118.549C47.0344 118.609 47.0108 118.677 47.0013 118.749C46.9917 118.821 46.9965 118.895 47.0152 118.966C48.2952 123.766 49.5718 128.492 50.8452 133.146C52.2252 138.206 51.5552 140.336 47.0352 142.766C31.4418 151.152 19.7018 157.176 11.8152 160.836C11.428 161.01 11.1364 161.23 10.9952 161.456L6.53518 168.476C6.45776 168.597 6.3552 168.7 6.23557 168.778C6.11594 168.856 5.98252 168.907 5.84581 168.925C5.70911 168.943 5.57288 168.93 5.44782 168.885C5.32276 168.84 5.21231 168.765 5.12517 168.666C2.42517 165.626 6.77517 163.156 5.96517 162.306C5.9202 162.259 5.865 162.222 5.80277 162.199C5.74054 162.175 5.67252 162.165 5.60271 162.169C5.5329 162.173 5.46267 162.19 5.39614 162.22C5.3296 162.251 5.26808 162.293 5.21517 162.346C5.19517 162.366 -0.404821 168.666 1.33518 163.906C1.4147 163.689 1.50371 163.496 1.59324 163.347C1.68277 163.197 1.76966 163.097 1.84517 163.056C3.19184 162.342 3.5185 161.349 2.82517 160.076C2.74974 159.936 2.71736 159.771 2.73145 159.601C2.74554 159.43 2.80556 159.259 2.90517 159.106C3.91184 157.506 5.24184 156.262 6.89518 155.376C7.16579 155.227 7.39338 154.946 7.53518 154.586C13.9285 138.586 19.7452 122.389 24.9852 105.996C30.9552 87.3355 38.2252 69.9655 46.8452 52.6455ZM14.1352 152.046C13.4441 152.937 12.0652 153.556 11.9252 153.906C11.7785 154.312 11.9685 154.376 12.4952 154.096C23.2652 148.426 34.1852 143.106 45.0252 137.656C45.2514 137.541 45.4289 137.347 45.5259 137.109C45.623 136.871 45.6334 136.604 45.5552 136.356L38.8752 115.496C38.8182 115.32 38.8004 115.134 38.823 114.951C38.8456 114.768 38.9081 114.592 39.0061 114.435C39.1041 114.278 39.2353 114.144 39.3906 114.042C39.5458 113.94 39.7214 113.873 39.9052 113.846C42.3952 113.486 44.9252 113.626 47.1452 113.256C57.4718 111.502 67.6085 108.986 77.5552 105.706C78.8885 105.266 79.7952 104.826 80.2752 104.386C80.4463 104.232 80.5778 104.039 80.6587 103.824C80.7395 103.608 80.7674 103.377 80.74 103.147C80.7126 102.918 80.6306 102.699 80.5011 102.507C80.3715 102.315 80.198 102.157 79.9952 102.046C75.3818 99.5122 70.9685 96.9655 66.7552 94.4055C63.1652 92.2255 60.9452 90.5655 60.1252 86.1655C58.8585 79.3322 56.8318 72.6922 54.0452 66.2455C53.9094 65.9285 53.6827 65.677 53.4052 65.5355C51.6918 64.6822 50.2485 65.1988 49.0752 67.0855C41.4052 79.3955 36.8952 89.9555 31.6652 105.236C26.8452 119.316 21.4585 133.189 15.5052 146.856C16.5 151 15.4194 150.389 14.1352 152.046Z" fill="#1D2128"/>
</svg>
