<svg width="57" height="133" viewBox="0 0 57 133" fill="none" xmlns="http://www.w3.org/2000/svg">
<path d="M8.23933 10.7309C8.37933 12.2609 7.62935 13.4509 7.62935 14.8809C7.61601 29.4742 7.90601 44.0609 8.49934 58.6409C9.48934 82.8309 13.1693 100.451 23.7593 122.001C25.0927 124.721 26.576 127.034 28.2093 128.941C29.2293 130.121 30.5027 130.868 32.0293 131.181C37.6193 132.321 38.7893 125.531 39.1193 121.701C39.3593 118.951 40.8793 117.041 41.0493 114.161C41.2427 110.928 41.5093 107.694 41.8493 104.461C41.8656 104.291 41.904 104.133 41.9573 104.015C42.0107 103.897 42.0754 103.828 42.1393 103.821C42.2793 103.814 42.3893 103.758 42.4693 103.651C42.6184 103.465 42.7519 103.288 42.8493 103.145C42.9468 103.002 43.003 102.903 43.0093 102.861C43.5027 98.3409 44.0127 93.8309 44.5393 89.3309C45.8193 78.4709 45.9393 67.5309 46.4593 56.6409C47.1393 42.6809 46.9093 27.9409 47.4793 13.5809C47.5527 11.7142 46.886 9.73086 45.4793 7.63086" stroke="#FEB4A4" stroke-width="2"/>
<path d="M45.4794 7.63124L50.6594 9.59126C52.6527 10.3513 54.0894 9.73128 54.9694 7.73128C57.9594 0.901276 44.1194 -2.32875 44.1094 5.83125" stroke="#8A8C90" stroke-width="2"/>
<path d="M44.1072 5.83127C33.4072 4.75127 22.2172 6.01129 11.6172 7.72129" stroke="#FEB4A4" stroke-width="2"/>
<path d="M11.6182 7.72118C11.4982 -4.56882 -3.80178 2.36119 2.53822 10.6712C2.74613 10.938 3.01875 11.1302 3.31821 11.2212C4.97155 11.7212 6.61153 11.5579 8.2382 10.7312" stroke="#8A8C90" stroke-width="2"/>
<path d="M11.6183 7.72119C10.8983 8.90119 9.77161 9.90453 8.23828 10.7312" stroke="#8A4645" stroke-width="2"/>
<path d="M45.4794 7.63104L44.1094 5.83105" stroke="#8A4645" stroke-width="2"/>
<path d="M31.3904 24.3346C31.5754 24.3443 31.7648 24.2325 31.948 24.0056C32.1312 23.7787 32.3046 23.441 32.4582 23.0121C32.6118 22.5831 32.7426 22.0711 32.8432 21.5053C32.9438 20.9396 33.0123 20.3311 33.0446 19.7148C33.0769 19.0984 33.0724 18.4862 33.0315 17.913C32.9906 17.3398 32.914 16.8169 32.8061 16.3742C32.6982 15.9315 32.5611 15.5777 32.4026 15.3329C32.2441 15.088 32.0674 14.957 31.8824 14.9474C31.6975 14.9376 31.5081 15.0494 31.3249 15.2763C31.1417 15.5033 30.9683 15.8409 30.8147 16.2699C30.6611 16.6989 30.5303 17.2108 30.4297 17.7766C30.3291 18.3423 30.2607 18.9508 30.2284 19.5672C30.1961 20.1835 30.2005 20.7958 30.2414 21.3689C30.2823 21.9421 30.3589 22.465 30.4668 22.9077C30.5747 23.3504 30.7119 23.7042 30.8703 23.9491C31.0288 24.1939 31.2055 24.3249 31.3904 24.3346Z" stroke="#EB6E5C" stroke-width="2"/>
<path d="M24.0708 30.3982C24.0663 30.2919 24.041 30.1875 23.9962 30.091C23.9514 29.9946 23.8881 29.9079 23.8098 29.8359C23.7315 29.7639 23.6398 29.708 23.5399 29.6714C23.44 29.6349 23.3339 29.6183 23.2276 29.6228L23.1277 29.627C23.0214 29.6314 22.917 29.6568 22.8205 29.7016C22.724 29.7464 22.6373 29.8097 22.5653 29.888C22.4933 29.9663 22.4374 30.058 22.4009 30.1579C22.3643 30.2578 22.3478 30.3639 22.3523 30.4702L22.627 37.0244C22.6314 37.1307 22.6568 37.235 22.7015 37.3315C22.7463 37.428 22.8097 37.5147 22.888 37.5867C22.9663 37.6587 23.058 37.7146 23.1579 37.7511C23.2578 37.7877 23.3639 37.8042 23.4702 37.7998L23.5701 37.7956C23.6764 37.7911 23.7807 37.7658 23.8772 37.721C23.9737 37.6762 24.0604 37.6129 24.1324 37.5346C24.2044 37.4563 24.2603 37.3646 24.2969 37.2647C24.3334 37.1648 24.3499 37.0586 24.3455 36.9524L24.0708 30.3982Z" stroke="#E56351" stroke-width="2"/>
<path d="M37.9854 46.8112C38.107 46.7836 38.2137 46.6952 38.2991 46.5511C38.3846 46.407 38.4472 46.2099 38.4835 45.9712C38.5197 45.7325 38.5289 45.4569 38.5104 45.16C38.4919 44.8631 38.4461 44.5507 38.3757 44.2408C38.2335 43.615 37.9995 43.0369 37.7253 42.6338C37.451 42.2307 37.1589 42.0356 36.9132 42.0914C36.7915 42.119 36.6849 42.2075 36.5995 42.3516C36.514 42.4957 36.4513 42.6927 36.4151 42.9314C36.3789 43.1701 36.3697 43.4457 36.3882 43.7426C36.4067 44.0395 36.4525 44.3519 36.5229 44.6618C36.6651 45.2877 36.899 45.8657 37.1733 46.2688C37.4476 46.6719 37.7397 46.867 37.9854 46.8112Z" stroke="#E56351" stroke-width="2"/>
<path d="M19.6993 53.0703C19.8109 53.0729 19.9231 52.9988 20.0296 52.8525C20.1361 52.7061 20.2348 52.4903 20.3199 52.2173C20.4051 51.9443 20.475 51.6195 20.5259 51.2614C20.5768 50.9033 20.6075 50.5191 20.6163 50.1304C20.6341 49.3456 20.5617 48.5909 20.4149 48.0323C20.2681 47.4737 20.0591 47.1571 19.8337 47.1519C19.7221 47.1494 19.6099 47.2234 19.5034 47.3698C19.3969 47.5161 19.2983 47.7319 19.2131 48.0049C19.128 48.2779 19.058 48.6027 19.0071 48.9608C18.9562 49.3189 18.9255 49.7032 18.9167 50.0918C18.8989 50.8766 18.9714 51.6314 19.1181 52.1899C19.2649 52.7485 19.4739 53.0652 19.6993 53.0703Z" stroke="#E56351" stroke-width="2"/>
<path d="M29.1325 69.8637C29.2518 69.87 29.3774 69.7358 29.5019 69.4685C29.6265 69.2013 29.7477 68.8064 29.8585 68.3064C29.9693 67.8063 30.0676 67.211 30.1479 66.5542C30.2281 65.8975 30.2886 65.1923 30.326 64.4788C30.3634 63.7654 30.3769 63.0578 30.3657 62.3963C30.3546 61.7348 30.3191 61.1323 30.2611 60.6234C30.2032 60.1146 30.1239 59.7092 30.028 59.4304C29.932 59.1517 29.8212 59.005 29.7019 58.9987C29.5825 58.9925 29.457 59.1268 29.3324 59.394C29.2079 59.6612 29.0867 60.0561 28.9759 60.5562C28.8651 61.0562 28.7667 61.6516 28.6865 62.3083C28.6063 62.965 28.5458 63.6703 28.5084 64.3837C28.471 65.0971 28.4575 65.8048 28.4686 66.4663C28.4798 67.1278 28.5153 67.7302 28.5732 68.239C28.6312 68.7479 28.7104 69.1533 28.8064 69.4321C28.9023 69.7109 29.0131 69.8575 29.1325 69.8637Z" stroke="#E56351" stroke-width="2"/>
<path d="M27.736 86.6342C28.1058 86.6679 28.4995 86.271 28.8305 85.5309C29.1614 84.7908 29.4026 83.7681 29.5009 82.6879C29.5992 81.6076 29.5466 80.5583 29.3547 79.7706C29.1627 78.9829 28.8472 78.5215 28.4774 78.4878C28.1076 78.4542 27.714 78.8511 27.383 79.5911C27.052 80.3312 26.8108 81.3538 26.7125 82.4341C26.6142 83.5144 26.6668 84.5637 26.8587 85.3514C27.0507 86.1391 27.3662 86.6006 27.736 86.6342Z" stroke="#EB6E5C" stroke-width="2"/>
<path d="M11.6182 7.72118C10.8982 8.90118 9.77153 9.90452 8.2382 10.7312C6.61153 11.5579 4.97155 11.7212 3.31821 11.2212C3.01875 11.1302 2.74613 10.938 2.53822 10.6712C-3.80178 2.36119 11.4982 -4.56882 11.6182 7.72118Z" fill="#151E30"/>
<path d="M45.4794 7.63124L44.1094 5.83125C44.1194 -2.32875 57.9594 0.901276 54.9694 7.73128C54.0894 9.73128 52.6527 10.3513 50.6594 9.59126L45.4794 7.63124Z" fill="#151E30"/>
<path d="M44.1093 5.83127L45.4793 7.63126C46.886 9.73126 47.5527 11.7146 47.4793 13.5813C46.9093 27.9413 47.1393 42.6813 46.4593 56.6413C45.9393 67.5313 45.8193 78.4713 44.5393 89.3313C44.0127 93.8313 43.5027 98.3413 43.0093 102.861C43.003 102.903 42.9468 103.003 42.8493 103.145C42.7519 103.288 42.6184 103.466 42.4693 103.651C42.3893 103.758 42.2793 103.815 42.1393 103.821C42.0754 103.829 42.0107 103.898 41.9573 104.015C41.904 104.133 41.8656 104.292 41.8493 104.461C41.5093 107.695 41.2427 110.928 41.0493 114.161C40.8793 117.041 39.3593 118.951 39.1193 121.701C38.7893 125.531 37.6193 132.321 32.0293 131.181C30.5027 130.868 29.2293 130.121 28.2093 128.941C26.576 127.035 25.0927 124.721 23.7593 122.001C13.1693 100.451 9.48934 82.8313 8.49934 58.6413C7.90601 44.0613 7.61601 29.4746 7.62935 14.8813C7.62935 13.4513 8.37933 12.2613 8.23933 10.7313C9.77266 9.90463 10.8993 8.90129 11.6193 7.72129C22.2193 6.01129 33.4093 4.75127 44.1093 5.83127ZM31.3933 24.3349C31.5782 24.3446 31.7677 24.2328 31.9509 24.0059C32.1341 23.779 32.3075 23.4414 32.4611 23.0124C32.6147 22.5834 32.7455 22.0714 32.8461 21.5057C32.9467 20.9399 33.0151 20.3314 33.0474 19.7151C33.0797 19.0987 33.0753 18.4865 33.0344 17.9133C32.9935 17.3401 32.9169 16.8172 32.809 16.3745C32.7011 15.9319 32.5639 15.578 32.4055 15.3332C32.247 15.0883 32.0702 14.9574 31.8853 14.9477C31.7004 14.938 31.5109 15.0497 31.3277 15.2766C31.1445 15.5036 30.9712 15.8412 30.8176 16.2702C30.664 16.6992 30.5332 17.2111 30.4326 17.7769C30.332 18.3426 30.2635 18.9511 30.2312 19.5675C30.1989 20.1839 30.2034 20.7961 30.2443 21.3692C30.2852 21.9424 30.3618 22.4653 30.4697 22.908C30.5776 23.3507 30.7147 23.7045 30.8732 23.9494C31.0317 24.1942 31.2084 24.3252 31.3933 24.3349ZM24.0712 30.3982C24.0668 30.2919 24.0414 30.1875 23.9967 30.091C23.9519 29.9946 23.8885 29.9079 23.8102 29.8359C23.7319 29.7638 23.6402 29.708 23.5403 29.6714C23.4404 29.6349 23.3343 29.6183 23.228 29.6228L23.1281 29.627C23.0218 29.6314 22.9175 29.6568 22.821 29.7016C22.7245 29.7464 22.6378 29.8097 22.5658 29.888C22.4938 29.9663 22.4379 30.058 22.4013 30.1579C22.3648 30.2578 22.3483 30.3639 22.3527 30.4702L22.6274 37.0244C22.6319 37.1307 22.6572 37.235 22.702 37.3315C22.7468 37.428 22.8101 37.5147 22.8884 37.5867C22.9667 37.6587 23.0584 37.7146 23.1583 37.7511C23.2582 37.7877 23.3643 37.8042 23.4706 37.7998L23.5705 37.7956C23.6768 37.7911 23.7812 37.7658 23.8777 37.721C23.9742 37.6762 24.0609 37.6129 24.1329 37.5346C24.2049 37.4563 24.2608 37.3646 24.2973 37.2647C24.3339 37.1648 24.3504 37.0586 24.3459 36.9524L24.0712 30.3982ZM37.9854 46.8112C38.1071 46.7836 38.2137 46.6952 38.2992 46.5511C38.3846 46.4069 38.4473 46.2099 38.4835 45.9712C38.5198 45.7325 38.5289 45.4569 38.5104 45.1599C38.4919 44.863 38.4462 44.5507 38.3757 44.2408C38.2336 43.6149 37.9996 43.0368 37.7253 42.6338C37.4511 42.2307 37.1589 42.0355 36.9132 42.0913C36.7916 42.119 36.685 42.2074 36.5995 42.3515C36.514 42.4957 36.4514 42.6927 36.4151 42.9314C36.3789 43.1701 36.3698 43.4457 36.3883 43.7426C36.4067 44.0395 36.4525 44.3519 36.5229 44.6618C36.6651 45.2876 36.8991 45.8657 37.1734 46.2688C37.4476 46.6719 37.7397 46.867 37.9854 46.8112ZM19.7021 53.0705C19.8137 53.073 19.926 52.999 20.0325 52.8526C20.1389 52.7063 20.2376 52.4904 20.3227 52.2174C20.4079 51.9444 20.4779 51.6196 20.5287 51.2616C20.5796 50.9035 20.6103 50.5192 20.6191 50.1306C20.6369 49.3458 20.5645 48.591 20.4177 48.0324C20.271 47.4739 20.0619 47.1572 19.8365 47.1521C19.7249 47.1495 19.6127 47.2235 19.5062 47.3699C19.3997 47.5163 19.3011 47.7321 19.216 48.0051C19.1308 48.2781 19.0608 48.6029 19.0099 48.961C18.9591 49.319 18.9284 49.7033 18.9195 50.092C18.9017 50.8768 18.9742 51.6315 19.121 52.1901C19.2677 52.7487 19.4768 53.0653 19.7021 53.0705ZM29.1346 69.8637C29.254 69.87 29.3795 69.7358 29.5041 69.4685C29.6286 69.2013 29.7498 68.8064 29.8606 68.3064C29.9715 67.8063 30.0698 67.211 30.15 66.5542C30.2302 65.8975 30.2907 65.1923 30.3281 64.4789C30.3655 63.7654 30.379 63.0578 30.3679 62.3963C30.3568 61.7348 30.3212 61.1323 30.2633 60.6234C30.2053 60.1146 30.1261 59.7092 30.0301 59.4305C29.9342 59.1517 29.8234 59.005 29.704 58.9988C29.5847 58.9925 29.4591 59.1268 29.3346 59.394C29.21 59.6612 29.0889 60.0561 28.978 60.5562C28.8672 61.0562 28.7689 61.6516 28.6887 62.3083C28.6085 62.965 28.5479 63.6703 28.5105 64.3837C28.4732 65.0971 28.4596 65.8048 28.4708 66.4663C28.4819 67.1278 28.5174 67.7302 28.5754 68.239C28.6333 68.7479 28.7126 69.1533 28.8085 69.4321C28.9045 69.7109 29.0153 69.8575 29.1346 69.8637ZM27.7386 86.6345C28.1084 86.6681 28.5021 86.2712 28.8331 85.5312C29.1641 84.7911 29.4052 83.7684 29.5035 82.6881C29.6018 81.6079 29.5493 80.5585 29.3573 79.7709C29.1654 78.9832 28.8498 78.5218 28.48 78.4881C28.1102 78.4544 27.7166 78.8513 27.3856 79.5914C27.0546 80.3315 26.8134 81.3541 26.7151 82.4344C26.6168 83.5146 26.6694 84.564 26.8614 85.3517C27.0533 86.1393 27.3689 86.6008 27.7386 86.6345Z" fill="#FE6E59"/>
<path d="M31.3904 24.3346C31.2055 24.3249 31.0288 24.1939 30.8703 23.9491C30.7119 23.7042 30.5747 23.3504 30.4668 22.9077C30.3589 22.465 30.2823 21.9421 30.2414 21.3689C30.2005 20.7958 30.1961 20.1835 30.2284 19.5672C30.2607 18.9508 30.3291 18.3423 30.4297 17.7766C30.5303 17.2108 30.6611 16.6989 30.8147 16.2699C30.9683 15.8409 31.1417 15.5033 31.3249 15.2763C31.5081 15.0494 31.6975 14.9376 31.8824 14.9474C32.0674 14.957 32.2441 15.088 32.4026 15.3329C32.5611 15.5777 32.6982 15.9315 32.8061 16.3742C32.914 16.8169 32.9906 17.3398 33.0315 17.913C33.0724 18.4862 33.0769 19.0984 33.0446 19.7148C33.0123 20.3311 32.9438 20.9396 32.8432 21.5053C32.7426 22.0711 32.6118 22.5831 32.4582 23.0121C32.3046 23.441 32.1312 23.7787 31.948 24.0056C31.7648 24.2325 31.5754 24.3443 31.3904 24.3346Z" fill="#D86E5E"/>
<path d="M24.3416 36.9519C24.346 37.0582 24.3295 37.1643 24.2929 37.2642C24.2564 37.3641 24.2005 37.4558 24.1285 37.5341C24.0565 37.6124 23.9698 37.6757 23.8733 37.7205C23.7768 37.7653 23.6725 37.7906 23.5662 37.7951L23.4663 37.7993C23.36 37.8037 23.2539 37.7872 23.154 37.7506C23.0541 37.7141 22.9624 37.6582 22.8841 37.5862C22.8058 37.5142 22.7424 37.4275 22.6976 37.331C22.6529 37.2345 22.6275 37.1302 22.6231 37.0239L22.3484 30.4697C22.3439 30.3634 22.3604 30.2573 22.397 30.1574C22.4335 30.0575 22.4894 29.9658 22.5614 29.8875C22.6334 29.8092 22.7201 29.7459 22.8166 29.7011C22.9131 29.6563 23.0175 29.631 23.1238 29.6265L23.2237 29.6223C23.33 29.6178 23.4361 29.6344 23.536 29.6709C23.6359 29.7075 23.7276 29.7634 23.8059 29.8354C23.8842 29.9074 23.9475 29.9941 23.9923 30.0906C24.0371 30.187 24.0624 30.2914 24.0669 30.3977L24.3416 36.9519Z" fill="#CB5749"/>
<path d="M37.9815 46.8108C37.7358 46.8665 37.4437 46.6714 37.1694 46.2683C36.8951 45.8652 36.6612 45.2872 36.519 44.6613C36.4486 44.3514 36.4028 44.0391 36.3843 43.7422C36.3658 43.4452 36.3749 43.1696 36.4112 42.9309C36.4474 42.6922 36.5101 42.4952 36.5955 42.3511C36.681 42.207 36.7876 42.1185 36.9093 42.0909C37.155 42.0351 37.4471 42.2302 37.7214 42.6333C37.9956 43.0364 38.2296 43.6145 38.3718 44.2403C38.4422 44.5502 38.488 44.8626 38.5065 45.1595C38.525 45.4564 38.5158 45.732 38.4796 45.9707C38.4433 46.2094 38.3807 46.4065 38.2952 46.5506C38.2098 46.6947 38.1031 46.7831 37.9815 46.8108Z" fill="#CB5749"/>
<path d="M19.6993 53.0703C19.4739 53.0652 19.2649 52.7485 19.1181 52.1899C18.9714 51.6314 18.8989 50.8766 18.9167 50.0918C18.9255 49.7032 18.9562 49.3189 19.0071 48.9608C19.058 48.6027 19.128 48.2779 19.2131 48.0049C19.2983 47.7319 19.3969 47.5161 19.5034 47.3698C19.6099 47.2234 19.7221 47.1494 19.8337 47.1519C20.0591 47.1571 20.2681 47.4737 20.4149 48.0323C20.5617 48.5909 20.6341 49.3456 20.6163 50.1304C20.6075 50.5191 20.5768 50.9033 20.5259 51.2614C20.475 51.6195 20.4051 51.9443 20.3199 52.2173C20.2348 52.4903 20.1361 52.7061 20.0296 52.8525C19.9231 52.9988 19.8109 53.0729 19.6993 53.0703Z" fill="#CB5749"/>
<path d="M29.1325 69.8632C29.0131 69.857 28.9023 69.7104 28.8064 69.4316C28.7104 69.1528 28.6312 68.7474 28.5732 68.2386C28.5153 67.7297 28.4798 67.1273 28.4686 66.4658C28.4575 65.8043 28.471 65.0966 28.5084 64.3832C28.5458 63.6698 28.6063 62.9646 28.6865 62.3078C28.7667 61.6511 28.8651 61.0557 28.9759 60.5557C29.0867 60.0557 29.2079 59.6607 29.3324 59.3935C29.457 59.1263 29.5825 58.992 29.7019 58.9983C29.8212 59.0045 29.932 59.1512 30.028 59.43C30.1239 59.7087 30.2032 60.1141 30.2611 60.623C30.3191 61.1318 30.3546 61.7343 30.3657 62.3958C30.3769 63.0573 30.3634 63.7649 30.326 64.4784C30.2886 65.1918 30.2281 65.897 30.1479 66.5537C30.0676 67.2105 29.9693 67.8058 29.8585 68.3059C29.7477 68.8059 29.6265 69.2008 29.5019 69.468C29.3774 69.7353 29.2518 69.8695 29.1325 69.8632Z" fill="#CB5749"/>
<path d="M27.736 86.6342C27.3662 86.6006 27.0507 86.1391 26.8587 85.3514C26.6668 84.5637 26.6142 83.5144 26.7125 82.4341C26.8108 81.3538 27.052 80.3312 27.383 79.5911C27.714 78.8511 28.1076 78.4542 28.4774 78.4878C28.8472 78.5215 29.1627 78.9829 29.3547 79.7706C29.5466 80.5583 29.5992 81.6076 29.5009 82.6879C29.4026 83.7681 29.1614 84.7908 28.8305 85.5309C28.4995 86.271 28.1058 86.6679 27.736 86.6342Z" fill="#D86E5E"/>
</svg>
