<svg width="93" height="191" viewBox="0 0 93 191" fill="none" xmlns="http://www.w3.org/2000/svg">
<path d="M40.8988 185.656C48.5688 192.196 60.4988 190.596 67.8188 184.896C70.2122 183.029 72.7421 179.809 75.4088 175.236C84.4088 159.816 88.6188 146.966 89.2088 128.566C89.5221 118.626 90.1955 108.712 91.2288 98.8257C91.8221 93.1257 91.7055 82.8157 90.8788 67.8957C89.7288 47.2257 84.0088 24.8457 67.9288 10.1757C55.5822 -1.08431 42.4854 -1.98098 28.6388 7.48569C14.4188 17.2057 4.30879 29.9957 2.14879 47.5757C0.668792 59.709 0.618829 71.849 1.99883 83.9957C3.05883 93.2857 7.28878 100.626 10.3288 109.236C13.3688 117.826 14.6888 129.476 16.3388 136.506C20.5288 154.366 26.4388 173.296 40.8988 185.656Z" stroke="#8A8C90" stroke-width="2"/>
<path d="M57.0885 172.086C62.0685 174.026 62.0085 153.966 62.2585 150.796C62.7185 145.026 63.4085 138.696 60.3485 133.346C60.2354 133.147 60.1147 132.974 59.9976 132.843C59.8805 132.712 59.7708 132.627 59.6785 132.596L53.1585 130.416C53.0055 130.363 52.8718 130.259 52.7753 130.116C52.6788 129.973 52.6241 129.798 52.6185 129.616C52.4985 126.696 52.4619 123.722 52.5085 120.696C52.5485 117.916 51.2385 115.226 51.8985 111.996C51.9839 111.565 52.2236 111.183 52.5679 110.928C52.9122 110.674 53.3349 110.565 53.7485 110.626C73.6685 113.516 76.7385 93.1456 73.9385 78.9656C73.4085 76.2656 73.6585 72.1856 72.9785 70.3256C71.9918 67.6123 71.0852 64.8923 70.2585 62.1657C66.9852 51.3457 59.7552 47.169 48.5685 49.6356C47.2685 49.9223 46.1485 50.5357 45.2085 51.4757C36.9385 59.7757 37.9485 67.3256 35.2685 80.8956C33.8785 87.9056 34.9685 95.6856 34.5085 103.056C34.2485 107.116 34.5785 111.256 34.2985 115.076C33.2285 129.466 34.7085 139.256 34.5085 151.496C34.4885 152.626 35.1585 154.576 36.6885 153.326" stroke="#1C1B26" stroke-width="2"/>
<path d="M37.4814 156.616C40.2414 157.409 42.9581 157.716 45.6314 157.536C46.8047 157.456 47.4847 156.836 47.6714 155.676C50.0614 140.906 49.7214 124.996 49.4114 110.056C49.4023 109.614 49.5559 109.184 49.8432 108.847C50.1305 108.51 50.5318 108.289 50.9714 108.226C55.1914 107.616 60.6614 107.936 64.1914 106.216C76.4014 100.256 71.2614 76.0256 68.5914 66.0056C66.3514 57.6056 62.7014 51.4256 53.4014 51.8556C47.0114 52.1456 43.5414 55.4056 41.7314 61.3456C38.5314 71.7756 38.0114 81.7156 37.7914 92.0756C37.5914 101.206 36.9714 110.516 36.9914 119.426C37.0181 130.726 36.9181 142.026 36.6914 153.326" stroke="#90433B" stroke-width="2"/>
<path d="M14.7112 79.8856L21.9812 80.5756C22.0836 80.5845 22.192 80.5314 22.286 80.4264C22.3799 80.3215 22.4529 80.1718 22.4912 80.0056C23.9379 73.6989 24.5912 67.3056 24.4512 60.8256C24.3512 56.5156 19.1612 56.6056 16.3412 57.1556C14.4679 57.5156 13.5246 58.5756 13.5112 60.3356L13.3712 77.8356C13.3661 78.36 13.5013 78.8626 13.7498 79.2427C13.9983 79.6229 14.3417 79.8525 14.7112 79.8856Z" stroke="#85753E" stroke-width="2"/>
<path d="M49.7613 100.896C65.1413 102.006 60.6312 79.7058 58.8412 71.6558C57.9412 67.5658 53.7512 58.1658 49.4712 66.3758C48.6246 68.0024 48.1713 71.2591 48.1113 76.1458C48.0179 84.1325 48.2979 92.1158 48.9512 100.096C48.9715 100.303 49.0636 100.496 49.2116 100.642C49.3596 100.788 49.5541 100.878 49.7613 100.896Z" stroke="#8A4645" stroke-width="2"/>
<path d="M40.8988 185.656C26.4388 173.296 20.5288 154.366 16.3388 136.506C14.6888 129.476 13.3688 117.826 10.3288 109.236C7.28878 100.626 3.05883 93.2857 1.99883 83.9957C0.618829 71.849 0.668792 59.709 2.14879 47.5757C4.30879 29.9957 14.4188 17.2057 28.6388 7.48569C42.4855 -1.98098 55.5822 -1.08431 67.9288 10.1757C84.0088 24.8457 89.7288 47.2257 90.8788 67.8957C91.7055 82.8157 91.8221 93.1257 91.2288 98.8257C90.1955 108.712 89.5221 118.626 89.2088 128.566C88.6188 146.966 84.4088 159.816 75.4088 175.236C72.7421 179.809 70.2122 183.029 67.8188 184.896C60.4988 190.596 48.5688 192.196 40.8988 185.656ZM41.7413 29.5282C41.729 28.6452 41.3663 27.8031 40.7332 27.1874C40.1001 26.5717 39.2483 26.2327 38.3652 26.245L35.2655 26.2883C34.3824 26.3006 33.5405 26.6633 32.9247 27.2964C32.309 27.9296 31.97 28.7813 31.9823 29.6644L32.1563 42.1232C32.1686 43.0063 32.5313 43.8483 33.1644 44.464C33.7976 45.0797 34.6493 45.4187 35.5324 45.4064L38.6321 45.3631C39.5152 45.3508 40.3572 44.9882 40.9729 44.355C41.5886 43.7219 41.9276 42.8701 41.9153 41.987L41.7413 29.5282ZM36.6888 153.326C36.4022 154.626 36.6655 155.722 37.4788 156.616C37.0388 157.229 37.2188 157.622 38.0188 157.796C38.1384 157.823 38.2441 157.896 38.3173 158C38.3905 158.104 38.4265 158.234 38.4188 158.366C38.3488 159.766 45.6688 160.766 46.9888 160.976C47.1375 160.997 47.2803 161.057 47.4054 161.149C47.5306 161.241 47.6346 161.363 47.7088 161.506C48.7955 163.599 50.3355 165.096 52.3288 165.996C52.6488 169.206 51.4388 173.896 57.0888 172.086C62.0688 174.026 62.0088 153.966 62.2588 150.796C62.7188 145.026 63.4088 138.696 60.3488 133.346C60.2357 133.147 60.115 132.974 59.9979 132.843C59.8808 132.712 59.7711 132.627 59.6788 132.596L53.1588 130.416C53.0058 130.363 52.8721 130.259 52.7756 130.116C52.6791 129.973 52.6244 129.798 52.6188 129.616C52.4988 126.696 52.4622 123.722 52.5088 120.696C52.5488 117.916 51.2388 115.226 51.8988 111.996C51.9842 111.566 52.2239 111.184 52.5682 110.929C52.9125 110.674 53.3352 110.565 53.7488 110.626C73.6688 113.516 76.7388 93.1457 73.9388 78.9657C73.4088 76.2657 73.6588 72.1857 72.9788 70.3257C71.9921 67.6124 71.0855 64.8924 70.2588 62.1657C66.9855 51.3457 59.7555 47.169 48.5688 49.6357C47.2688 49.9224 46.1488 50.5357 45.2088 51.4757C36.9388 59.7757 37.9488 67.3257 35.2688 80.8957C33.8788 87.9057 34.9688 95.6857 34.5088 103.056C34.2488 107.116 34.5788 111.256 34.2988 115.076C33.2288 129.466 34.7088 139.256 34.5088 151.496C34.4888 152.626 35.1588 154.576 36.6888 153.326ZM14.7088 79.8857L21.9788 80.5757C22.0812 80.5846 22.1896 80.5315 22.2836 80.4265C22.3775 80.3216 22.4505 80.1719 22.4888 80.0057C23.9355 73.699 24.5888 67.3057 24.4488 60.8257C24.3488 56.5157 19.1588 56.6057 16.3388 57.1557C14.4655 57.5157 13.5222 58.5757 13.5088 60.3357L13.3688 77.8357C13.3637 78.3601 13.4989 78.8627 13.7474 79.2428C13.9959 79.623 14.3393 79.8526 14.7088 79.8857Z" fill="#151E30"/>
<path d="M41.9177 41.987C41.9301 42.87 41.591 43.7218 40.9753 44.3549C40.3596 44.9881 39.5176 45.3507 38.6345 45.3631L35.5348 45.4063C34.6517 45.4186 33.8 45.0797 33.1668 44.4639C32.5337 43.8482 32.171 43.0062 32.1587 42.1231L31.9847 29.6643C31.9724 28.7812 32.3114 27.9295 32.9271 27.2963C33.5429 26.6632 34.3848 26.3006 35.2679 26.2882L38.3676 26.245C39.2507 26.2326 40.1025 26.5716 40.7356 27.1873C41.3688 27.8031 41.7314 28.6451 41.7437 29.5282L41.9177 41.987Z" fill="#F4CB4C"/>
<path d="M57.0924 172.086C58.8857 160.192 59.4857 148.242 58.8924 136.236C58.8782 135.992 58.8304 135.764 58.7573 135.592C58.6843 135.421 58.5906 135.316 58.4924 135.296L54.2324 134.536C54.1637 134.523 54.0925 134.532 54.0234 134.561C53.9542 134.591 53.8885 134.64 53.8304 134.707C53.7723 134.773 53.7229 134.856 53.6854 134.948C53.6479 135.041 53.6231 135.142 53.6124 135.246C53.4791 136.399 53.5357 138.092 53.7824 140.326C54.1491 143.659 53.6657 152.216 52.3324 165.996C50.3391 165.096 48.7991 163.599 47.7124 161.506C47.6382 161.363 47.5342 161.241 47.4091 161.149C47.2839 161.057 47.1411 160.997 46.9924 160.976C45.6724 160.766 38.3524 159.766 38.4224 158.366C38.4301 158.234 38.3941 158.104 38.3209 158C38.2477 157.896 38.142 157.823 38.0224 157.796C37.2224 157.622 37.0424 157.229 37.4824 156.616C40.2424 157.409 42.9591 157.716 45.6324 157.536C46.8058 157.456 47.4858 156.836 47.6724 155.676C50.0624 140.906 49.7224 124.996 49.4124 110.056C49.4033 109.614 49.5569 109.184 49.8442 108.847C50.1316 108.51 50.5328 108.289 50.9724 108.226C55.1924 107.616 60.6624 107.936 64.1924 106.216C76.4024 100.256 71.2624 76.0256 68.5924 66.0056C66.3524 57.6056 62.7024 51.4257 53.4024 51.8557C47.0124 52.1457 43.5424 55.4057 41.7324 61.3457C38.5324 71.7757 38.0124 81.7156 37.7924 92.0756C37.5924 101.206 36.9724 110.516 36.9924 119.426C37.0191 130.726 36.9191 142.026 36.6924 153.326C35.1624 154.576 34.4924 152.626 34.5124 151.496C34.7124 139.256 33.2324 129.466 34.3024 115.076C34.5824 111.256 34.2524 107.116 34.5124 103.056C34.9724 95.6856 33.8824 87.9056 35.2724 80.8956C37.9524 67.3256 36.9424 59.7757 45.2124 51.4757C46.1524 50.5357 47.2724 49.9223 48.5724 49.6356C59.7591 47.169 66.9891 51.3457 70.2625 62.1657C71.0891 64.8923 71.9958 67.6123 72.9824 70.3256C73.6624 72.1856 73.4124 76.2656 73.9424 78.9656C76.7424 93.1456 73.6724 113.516 53.7524 110.626C53.3388 110.565 52.9161 110.674 52.5718 110.928C52.2275 111.183 51.9878 111.565 51.9024 111.996C51.2424 115.226 52.5525 117.916 52.5124 120.696C52.4658 123.722 52.5024 126.696 52.6224 129.616C52.628 129.798 52.6827 129.973 52.7792 130.116C52.8757 130.259 53.0094 130.363 53.1624 130.416L59.6824 132.596C59.7747 132.627 59.8844 132.712 60.0015 132.843C60.1186 132.974 60.2393 133.147 60.3524 133.346C63.4124 138.696 62.7224 145.026 62.2624 150.796C62.0124 153.966 62.0724 174.026 57.0924 172.086Z" fill="#22171C"/>
<path d="M37.4802 156.616C36.6668 155.722 36.4035 154.626 36.6902 153.326C36.9169 142.026 37.0168 130.726 36.9902 119.426C36.9702 110.516 37.5902 101.206 37.7902 92.0756C38.0102 81.7156 38.5302 71.7756 41.7302 61.3456C43.5402 55.4056 47.0102 52.1456 53.4002 51.8556C62.7001 51.4256 66.3502 57.6056 68.5902 66.0056C71.2602 76.0256 76.4002 100.256 64.1902 106.216C60.6602 107.936 55.1902 107.616 50.9702 108.226C50.5306 108.289 50.1293 108.51 49.842 108.847C49.5546 109.184 49.4011 109.614 49.4102 110.056C49.7202 124.996 50.0602 140.906 47.6702 155.676C47.4835 156.836 46.8035 157.456 45.6302 157.536C42.9569 157.716 40.2402 157.409 37.4802 156.616ZM49.7602 100.896C65.1402 102.006 60.6302 79.7056 58.8402 71.6556C57.9402 67.5656 53.7502 58.1656 49.4702 66.3756C48.6235 68.0022 48.1702 71.2589 48.1102 76.1456C48.0168 84.1323 48.2968 92.1156 48.9501 100.096C48.9704 100.303 49.0625 100.496 49.2105 100.642C49.3585 100.788 49.553 100.878 49.7602 100.896Z" fill="#FE6E59"/>
<path d="M14.7112 79.8856C14.3417 79.8525 13.9983 79.6229 13.7498 79.2427C13.5013 78.8626 13.3661 78.36 13.3712 77.8356L13.5112 60.3356C13.5246 58.5756 14.4679 57.5156 16.3412 57.1556C19.1612 56.6056 24.3512 56.5156 24.4512 60.8256C24.5912 67.3056 23.9379 73.6989 22.4912 80.0056C22.4529 80.1718 22.3799 80.3215 22.286 80.4264C22.192 80.5314 22.0836 80.5845 21.9812 80.5756L14.7112 79.8856Z" fill="#F4CB4C"/>
<path d="M56.9905 172.191C51.3405 174.001 52.5505 169.311 52.2305 166.101C53.5638 152.321 54.0471 143.765 53.6805 140.431C53.4338 138.198 53.3772 136.505 53.5105 135.351C53.5212 135.248 53.546 135.147 53.5835 135.054C53.621 134.961 53.6703 134.879 53.7285 134.813C53.7866 134.746 53.8523 134.696 53.9214 134.667C53.9906 134.638 54.0617 134.629 54.1305 134.641L58.3905 135.401C58.4886 135.421 58.5823 135.526 58.6554 135.698C58.7285 135.87 58.7762 136.097 58.7905 136.341C59.3838 148.348 58.7838 160.298 56.9905 172.191Z" fill="#F3D262"/>
<path d="M49.7613 100.896C49.5541 100.878 49.3596 100.788 49.2116 100.642C49.0636 100.496 48.9715 100.303 48.9512 100.096C48.2979 92.1158 48.0179 84.1325 48.1113 76.1458C48.1713 71.2591 48.6246 68.0024 49.4712 66.3758C53.7512 58.1658 57.9412 67.5658 58.8412 71.6558C60.6312 79.7058 65.1413 102.006 49.7613 100.896Z" fill="#151E30"/>
</svg>
