<svg width="102" height="97" viewBox="0 0 102 97" fill="none" xmlns="http://www.w3.org/2000/svg">
<path d="M25.062 16.1094C21.3487 19.516 18.1387 23.7594 15.432 28.8394C11.312 36.566 8.94536 44.486 8.33203 52.5994" stroke="#FEDE8D" stroke-width="2"/>
<path d="M8.33347 52.5991C6.04014 52.6725 3.96343 53.6525 2.10343 55.5391C1.87658 55.7661 1.72909 56.0681 1.68345 56.3991C0.603447 63.6124 0.803422 71.0224 2.28342 78.6291C3.91342 87.0391 10.3934 95.6391 19.6234 95.0791C28.1634 94.5691 34.3934 84.1391 37.4134 76.9091C39.4634 71.9991 42.5735 68.0191 45.0235 63.4291C47.2101 59.3491 46.2001 56.5758 41.9934 55.1091" stroke="#88868E" stroke-width="2"/>
<path d="M41.9925 55.1089C42.9392 48.2489 45.7525 42.3956 50.4325 37.5489C56.8425 30.9089 67.1725 32.2289 74.8325 35.1989C84.3825 38.8989 92.5825 48.9589 97.8325 57.8389C98.8859 59.6189 99.6858 59.5089 100.232 57.5089C101.142 54.1489 100.773 50.7589 100.312 46.6889C98.0925 27.2489 87.1925 7.27893 67.1225 2.16893C51.8925 -1.70107 35.8225 4.93894 25.0625 16.1089" stroke="#FDEA98" stroke-width="2"/>
<path d="M41.9922 55.1094L38.4922 54.3594" stroke="#877333" stroke-width="2"/>
<path d="M38.4914 54.3594C38.3514 53.6194 38.4247 52.9427 38.7114 52.3293C38.8536 52.0386 38.8926 51.7168 38.8214 51.4194C38.3114 49.2894 41.2114 41.0394 42.4914 39.5494C44.5714 37.1294 46.3681 34.486 47.8814 31.6193C47.9877 31.4221 48.0587 31.2239 48.0869 31.0459C48.1151 30.8679 48.0994 30.717 48.0414 30.6094C47.3814 29.3427 47.4247 28.0827 48.1714 26.8293C49.0247 25.3893 50.1547 24.4327 51.5614 23.9593C56.0414 22.4493 60.5214 19.6794 64.9914 19.3594C68.1781 19.126 71.3481 19.3727 74.5014 20.0994C75.7148 20.3794 75.8414 20.1227 74.8814 19.3293C69.2014 14.5993 59.4514 11.9893 52.0714 14.2593C49.1614 15.1493 43.3614 17.3394 41.8214 20.1594C40.4714 22.6494 39.2314 27.2194 37.0214 29.2794C32.7414 33.2994 30.3014 41.3693 25.0214 43.4593C24.0081 43.866 23.6481 43.596 23.9414 42.6494C24.2948 41.5094 23.9881 40.9193 23.0214 40.8793C22.9414 40.8761 22.8224 40.8349 22.6756 40.7598C22.5287 40.6846 22.3587 40.5778 22.1814 40.4493L21.1714 39.7093C21.0418 39.6149 20.9464 39.481 20.8996 39.3278C20.8527 39.1745 20.8568 39.0101 20.9114 38.8594C22.4581 34.686 23.1281 30.376 22.9214 25.9294C22.8481 24.296 23.5381 23.1993 24.9914 22.6393C28.9114 21.1393 28.9348 18.9627 25.0614 16.1094" stroke="#FCCB31" stroke-width="2"/>
<path d="M38.492 54.3591C27.692 52.0091 17.452 52.7091 8.33203 52.5991" stroke="#886728" stroke-width="2"/>
<path d="M41.9914 55.1094L38.4914 54.3594C38.3514 53.6194 38.4247 52.9427 38.7114 52.3294C38.8536 52.0387 38.8926 51.7169 38.8214 51.4194C38.3114 49.2894 41.2114 41.0394 42.4914 39.5494C44.5714 37.1294 46.3681 34.486 47.8814 31.6194C47.9877 31.4222 48.0587 31.2239 48.0869 31.0459C48.1151 30.868 48.0994 30.7171 48.0414 30.6094C47.3814 29.3428 47.4247 28.0827 48.1714 26.8294C49.0247 25.3894 50.1548 24.4327 51.5614 23.9594C56.0414 22.4494 60.5214 19.6794 64.9914 19.3594C68.1781 19.1261 71.3481 19.3727 74.5014 20.0994C75.7148 20.3794 75.8414 20.1227 74.8814 19.3294C69.2014 14.5994 59.4514 11.9894 52.0714 14.2594C49.1614 15.1494 43.3614 17.3394 41.8214 20.1594C40.4714 22.6494 39.2314 27.2194 37.0214 29.2794C32.7414 33.2994 30.3014 41.3694 25.0214 43.4594C24.0081 43.8661 23.6481 43.5961 23.9414 42.6494C24.2948 41.5094 23.9881 40.9194 23.0214 40.8794C22.9414 40.8761 22.8224 40.835 22.6756 40.7598C22.5287 40.6846 22.3587 40.5779 22.1814 40.4494L21.1714 39.7094C21.0418 39.615 20.9464 39.4811 20.8996 39.3278C20.8527 39.1745 20.8568 39.0102 20.9114 38.8594C22.4581 34.6861 23.1281 30.3761 22.9214 25.9294C22.8481 24.2961 23.5381 23.1994 24.9914 22.6394C28.9114 21.1394 28.9348 18.9628 25.0614 16.1094C35.8214 4.93942 51.8914 -1.70058 67.1214 2.16942C87.1914 7.27942 98.0914 27.2494 100.311 46.6894C100.771 50.7594 101.141 54.1494 100.231 57.5094C99.6847 59.5094 98.8848 59.6194 97.8314 57.8394C92.5814 48.9594 84.3814 38.8994 74.8314 35.1994C67.1714 32.2294 56.8414 30.9094 50.4314 37.5494C45.7514 42.3961 42.9381 48.2494 41.9914 55.1094Z" fill="#FBD63C"/>
<path d="M38.492 54.3594C27.692 52.0094 17.452 52.7094 8.33203 52.5994C8.94536 44.486 11.312 36.566 15.432 28.8394C18.1387 23.7594 21.3487 19.516 25.062 16.1094C28.9353 18.9627 28.912 21.1393 24.992 22.6393C23.5387 23.1993 22.8487 24.296 22.922 25.9294C23.1287 30.376 22.4587 34.686 20.912 38.8594C20.8574 39.0101 20.8533 39.1745 20.9001 39.3278C20.947 39.481 21.0424 39.6149 21.172 39.7093L22.182 40.4493C22.3593 40.5778 22.5293 40.6846 22.6761 40.7598C22.823 40.8349 22.942 40.8761 23.022 40.8793C23.9887 40.9193 24.2954 41.5094 23.942 42.6494C23.6487 43.596 24.0087 43.866 25.022 43.4593C30.302 41.3693 32.742 33.2994 37.022 29.2794C39.232 27.2194 40.472 22.6494 41.822 20.1594C43.362 17.3394 49.162 15.1493 52.072 14.2593C59.452 11.9893 69.202 14.5993 74.882 19.3293C75.842 20.1227 75.7153 20.3794 74.502 20.0994C71.3487 19.3727 68.1787 19.126 64.992 19.3594C60.522 19.6794 56.042 22.4493 51.562 23.9593C50.1553 24.4327 49.0253 25.3893 48.172 26.8293C47.4253 28.0827 47.382 29.3427 48.042 30.6094C48.1 30.717 48.1157 30.8679 48.0875 31.0459C48.0593 31.2239 47.9883 31.4221 47.882 31.6193C46.3687 34.486 44.572 37.1294 42.492 39.5494C41.212 41.0394 38.312 49.2894 38.822 51.4194C38.8932 51.7168 38.8542 52.0386 38.712 52.3293C38.4253 52.9427 38.352 53.6194 38.492 54.3594Z" fill="#FDBF26"/>
<path d="M38.4934 54.3596L41.9934 55.1096C46.2001 56.5762 47.2101 59.3496 45.0235 63.4296C42.5735 68.0196 39.4634 71.9996 37.4134 76.9096C34.3934 84.1396 28.1634 94.5695 19.6234 95.0795C10.3934 95.6395 3.91342 87.0395 2.28342 78.6295C0.803422 71.0229 0.603447 63.6129 1.68345 56.3995C1.72909 56.0686 1.87658 55.7666 2.10343 55.5396C3.96343 53.6529 6.04014 52.6729 8.33347 52.5996C17.4535 52.7096 27.6934 52.0096 38.4934 54.3596Z" fill="#120F29"/>
</svg>
