<svg width="95" height="197" viewBox="0 0 95 197" fill="none" xmlns="http://www.w3.org/2000/svg">
<path d="M24.2577 1C18.5477 1.97 14.1277 12.89 13.3077 17.64C12.9611 19.6467 13.7811 21.39 15.7677 22.87C26.6144 30.97 33.6111 36.0767 36.7577 38.19C38.0911 39.0833 39.0911 39.6267 39.7577 39.82C41.5044 40.32 42.5411 39.6767 42.8677 37.89C43.4777 34.54 44.1577 31.76 43.5077 28.38C42.4411 22.7733 40.9411 17.2867 39.0077 11.92C37.5477 7.89 38.0477 1.31 32.2577 1" stroke="#FFC6C4" stroke-width="2"/>
<path d="M3.33877 64.8999C2.18543 70.0332 1.41209 75.2266 1.01876 80.4799C0.872093 82.3932 1.58544 83.4932 3.15877 83.7799L8.01876 84.6699C8.45485 84.7513 8.90686 84.7345 9.34365 84.6206C9.78044 84.5066 10.1916 84.2983 10.5487 84.0099C18.4387 77.6899 30.8088 63.5099 28.3988 52.4999C28.3474 52.2565 28.1427 51.9512 27.8288 51.6499C22.7088 46.6366 16.5821 43.7699 9.44875 43.0499C9.16448 43.0186 8.87696 43.0939 8.63717 43.2623C8.39738 43.4307 8.22081 43.6814 8.13875 43.9699C6.21875 50.8499 5.07877 57.1099 3.33877 64.8999Z" stroke="#FFC6C4" stroke-width="2"/>
<path d="M46.8899 50.9202C43.9199 60.3802 40.96 69.7802 40.34 79.8802C39.97 85.7402 35.57 101.32 41.53 105.18C42.5766 105.853 43.4933 105.71 44.28 104.75C52.34 94.8902 60.1599 84.7502 67.7399 74.3302C80.1099 57.3202 67.0999 54.6802 54.1699 50.7802C51.8199 50.0702 50.2599 49.9002 48.0699 50.0102C47.8023 50.0254 47.5459 50.1207 47.3351 50.2832C47.1243 50.4458 46.969 50.668 46.8899 50.9202Z" stroke="#FFC6C4" stroke-width="2"/>
<path d="M72.8298 95.0404C67.5898 105.53 58.6698 129.37 64.3298 140.23C66.7698 144.92 72.0798 149.12 76.4798 152.5C77.6865 153.427 78.9098 153.454 80.1498 152.58C84.4298 149.54 86.9798 144.9 89.4398 139.54C90.7598 136.63 90.9998 133.16 92.3298 129.95C92.4118 129.758 92.4691 129.573 92.4984 129.406C92.5277 129.239 92.5281 129.094 92.4998 128.98C91.9998 126.894 92.2298 124.887 93.1898 122.96C93.2271 122.883 93.2511 122.759 93.2598 122.597C93.2684 122.435 93.2616 122.241 93.2398 122.03C92.5398 115.13 93.4198 110.39 90.6598 103.4C87.7898 96.1104 80.8698 95.6504 74.3098 94.3304C74.0194 94.2696 73.717 94.3062 73.4495 94.4346C73.182 94.5629 72.9642 94.7758 72.8298 95.0404Z" stroke="#FFC6C4" stroke-width="2"/>
<path d="M18.5478 100.64C11.7378 91.8795 6.94778 115.88 6.23778 118.82C4.97778 123.986 4.52446 128.923 4.87779 133.63C5.01779 135.43 5.63778 137.05 6.73778 138.49C9.37111 141.93 11.8711 142.026 14.2378 138.78C18.8778 132.426 23.2545 125.89 27.3678 119.17C28.6878 117.01 28.5145 114.73 26.8478 112.33C22.3545 105.863 19.5878 101.966 18.5478 100.64Z" stroke="#FFC6C4" stroke-width="2"/>
<path d="M38.6992 177.79C46.3492 172.1 56.1892 162.19 57.2592 153.23C58.3692 143.95 49.3092 134.28 41.6792 130.18" stroke="#FFC4C0" stroke-width="2"/>
<path d="M41.677 130.18C37.3837 131.113 34.4937 134.076 33.007 139.07C29.8337 149.756 27.837 160.66 27.017 171.78C26.8837 173.546 27.767 175.29 29.667 177.01C32.747 179.803 35.757 180.063 38.697 177.79" stroke="#FECBC8" stroke-width="2"/>
<path d="M41.6798 130.18C41.2664 133.326 40.5998 136.366 39.6798 139.3C38.3598 143.52 38.2798 147.97 36.9198 152.26C35.7598 155.89 36.1698 159.32 33.3898 162.67C32.6831 163.523 32.0598 165.7 31.5198 169.2C31.4895 169.388 31.5171 169.578 31.5971 169.731C31.677 169.883 31.8031 169.986 31.9498 170.02L33.5198 170.4C33.615 170.42 33.7264 170.486 33.8447 170.59C33.9629 170.694 34.0847 170.835 34.1998 171L36.6498 174.56C36.8565 174.86 36.9898 175.163 37.0498 175.47C37.2431 176.47 37.7931 177.243 38.6998 177.79" stroke="#FE9295" stroke-width="2"/>
<path d="M70.849 160.63C64.089 163.33 60.029 169.23 56.249 175.11C51.169 183.02 57.399 189.08 61.339 195.1C61.4654 195.294 61.6299 195.459 61.8226 195.587C62.0152 195.715 62.2318 195.802 62.4593 195.843C62.6867 195.884 62.9201 195.879 63.1453 195.827C63.3705 195.775 63.5827 195.677 63.769 195.54C71.769 189.76 75.5323 181.807 75.059 171.68C75.0456 171.407 74.929 171.09 74.709 170.73C74.129 169.81 74.1256 168.904 74.699 168.01C74.8085 167.838 74.8858 167.659 74.9255 167.485C74.9652 167.31 74.9663 167.145 74.9289 167L73.519 161.68C73.179 160.407 72.289 160.057 70.849 160.63Z" stroke="#FECBC8" stroke-width="2"/>
<path d="M24.2577 1.00049H32.2577C38.0477 1.31049 37.5477 7.89049 39.0077 11.9205C40.9411 17.2872 42.4411 22.7738 43.5077 28.3805C44.1577 31.7605 43.4777 34.5405 42.8677 37.8905C42.5411 39.6772 41.5044 40.3205 39.7577 39.8205C39.0911 39.6272 38.0911 39.0838 36.7577 38.1905C33.6111 36.0772 26.6144 30.9705 15.7677 22.8705C13.7811 21.3905 12.9611 19.6472 13.3077 17.6405C14.1277 12.8905 18.5477 1.97049 24.2577 1.00049Z" fill="#FF8E94"/>
<path d="M3.33877 64.8999C5.07877 57.1099 6.21875 50.8499 8.13875 43.9699C8.22081 43.6814 8.39738 43.4307 8.63717 43.2623C8.87696 43.0939 9.16448 43.0186 9.44875 43.0499C16.5821 43.7699 22.7088 46.6366 27.8288 51.6499C28.1427 51.9512 28.3474 52.2565 28.3988 52.4999C30.8088 63.5099 18.4387 77.6899 10.5487 84.0099C10.1916 84.2983 9.78044 84.5066 9.34365 84.6206C8.90686 84.7345 8.45485 84.7513 8.01876 84.6699L3.15877 83.7799C1.58544 83.4932 0.872093 82.3932 1.01876 80.4799C1.41209 75.2266 2.18543 70.0332 3.33877 64.8999Z" fill="#FF8E94"/>
<path d="M46.8899 50.9211C46.969 50.6689 47.1243 50.4468 47.3351 50.2842C47.5459 50.1216 47.8023 50.0264 48.0699 50.0111C50.2599 49.9011 51.8199 50.0711 54.1699 50.7811C67.0999 54.6811 80.1099 57.3211 67.7399 74.3311C60.1599 84.7511 52.34 94.8911 44.28 104.751C43.4933 105.711 42.5766 105.854 41.53 105.181C35.57 101.321 39.97 85.7411 40.34 79.8811C40.96 69.7811 43.9199 60.3811 46.8899 50.9211Z" fill="#FF8E94"/>
<path d="M72.8298 95.0404C72.9642 94.7758 73.182 94.5629 73.4495 94.4346C73.717 94.3062 74.0194 94.2696 74.3098 94.3304C80.8698 95.6504 87.7898 96.1104 90.6598 103.4C93.4198 110.39 92.5398 115.13 93.2398 122.03C93.2616 122.241 93.2684 122.435 93.2598 122.597C93.2511 122.759 93.2271 122.883 93.1898 122.96C92.2298 124.887 91.9998 126.894 92.4998 128.98C92.5281 129.094 92.5277 129.239 92.4984 129.406C92.4691 129.573 92.4118 129.758 92.3298 129.95C90.9998 133.16 90.7598 136.63 89.4398 139.54C86.9798 144.9 84.4298 149.54 80.1498 152.58C78.9098 153.454 77.6865 153.427 76.4798 152.5C72.0798 149.12 66.7698 144.92 64.3298 140.23C58.6698 129.37 67.5898 105.53 72.8298 95.0404Z" fill="#FF8E94"/>
<path d="M6.23778 118.821C6.94778 115.881 11.7378 91.8805 18.5478 100.641C19.5878 101.967 22.3545 105.864 26.8478 112.331C28.5145 114.731 28.6878 117.011 27.3678 119.171C23.2545 125.891 18.8778 132.427 14.2378 138.781C11.8711 142.027 9.37111 141.931 6.73778 138.491C5.63778 137.051 5.01779 135.431 4.87779 133.631C4.52446 128.924 4.97778 123.987 6.23778 118.821Z" fill="#FF8E94"/>
<path d="M41.6809 130.181C41.2676 133.327 40.6009 136.367 39.6809 139.301C38.3609 143.521 38.2809 147.971 36.9209 152.261C35.7609 155.891 36.1709 159.321 33.3909 162.671C32.6843 163.524 32.0609 165.701 31.5209 169.201C31.4907 169.389 31.5183 169.579 31.5982 169.732C31.6781 169.884 31.8043 169.987 31.9509 170.021L33.5209 170.401C33.6162 170.421 33.7276 170.487 33.8458 170.591C33.9641 170.695 34.0858 170.836 34.2009 171.001L36.6509 174.561C36.8576 174.861 36.9909 175.164 37.0509 175.471C37.2442 176.471 37.7943 177.244 38.7009 177.791C35.7609 180.064 32.7509 179.804 29.6709 177.011C27.7709 175.291 26.8876 173.547 27.0209 171.781C27.8409 160.661 29.8376 149.757 33.0109 139.071C34.4976 134.077 37.3876 131.114 41.6809 130.181Z" fill="#FD999C"/>
<path d="M41.6798 130.181C49.3098 134.281 58.3698 143.951 57.2598 153.231C56.1898 162.191 46.3498 172.101 38.6998 177.791C37.7931 177.244 37.2431 176.471 37.0498 175.471C36.9898 175.164 36.8565 174.861 36.6498 174.561L34.1998 171.001C34.0847 170.836 33.9629 170.695 33.8447 170.591C33.7264 170.487 33.615 170.421 33.5198 170.401L31.9498 170.021C31.8031 169.987 31.677 169.884 31.5971 169.732C31.5171 169.579 31.4895 169.389 31.5198 169.201C32.0598 165.701 32.6831 163.524 33.3898 162.671C36.1698 159.321 35.7598 155.891 36.9198 152.261C38.2798 147.971 38.3598 143.521 39.6798 139.301C40.5998 136.367 41.2664 133.327 41.6798 130.181Z" fill="#FF8A8D"/>
<path d="M56.249 175.11C60.029 169.23 64.089 163.33 70.849 160.63C72.289 160.057 73.179 160.407 73.519 161.68L74.9289 167C74.9663 167.145 74.9652 167.31 74.9255 167.485C74.8858 167.659 74.8085 167.838 74.699 168.01C74.1256 168.904 74.129 169.81 74.709 170.73C74.929 171.09 75.0456 171.407 75.059 171.68C75.5323 181.807 71.769 189.76 63.769 195.54C63.5827 195.677 63.3705 195.775 63.1453 195.827C62.9201 195.879 62.6867 195.884 62.4593 195.843C62.2318 195.802 62.0152 195.715 61.8226 195.587C61.6299 195.459 61.4654 195.294 61.339 195.1C57.399 189.08 51.169 183.02 56.249 175.11Z" fill="#FD999C"/>
</svg>
