<svg width="94" height="298" viewBox="0 0 94 298" fill="none" xmlns="http://www.w3.org/2000/svg">
<path d="M27.0761 27.1588C28.9961 27.9588 30.9928 28.3154 33.0661 28.2288C33.2672 28.2193 33.4521 28.1893 33.6076 28.1409C33.7631 28.0925 33.8855 28.0269 33.9661 27.9487C37.1861 24.7887 32.5861 18.3288 30.0361 15.6488C29.9313 15.5386 29.8642 15.4013 29.8476 15.263C29.831 15.1247 29.8661 14.9951 29.9461 14.8988C32.7128 11.5188 34.6194 7.72207 35.6661 3.50874C35.7056 3.34774 35.7005 3.17731 35.6514 3.01423C35.6023 2.85116 35.5109 2.70107 35.3861 2.57874C33.8395 1.12541 32.2461 1.04876 30.6061 2.34876C27.9061 4.47876 25.0761 6.39879 22.4861 8.55879C22.4087 8.6247 22.3181 8.67323 22.2204 8.70112C22.1227 8.72901 22.0201 8.73558 21.9196 8.72041C21.8191 8.70524 21.7231 8.66866 21.638 8.61317C21.5528 8.55768 21.4806 8.48456 21.4261 8.39875C19.8861 5.95875 17.3961 0.178764 14.0161 1.09876C12.6561 1.4721 12.1828 2.34877 12.5961 3.72877L15.8661 14.7087C15.9045 14.8387 15.8884 14.9863 15.82 15.1303C15.7517 15.2742 15.6347 15.4068 15.4861 15.5087C10.4161 18.9187 4.24614 22.6388 1.21614 27.0988C1.03649 27.3689 0.964986 27.6907 1.01613 27.9988C2.12613 34.2188 11.1161 27.6387 13.8861 26.1987C15.0128 25.6121 15.9695 25.8088 16.7561 26.7888L21.0761 32.1987C21.3066 32.4869 21.5677 32.68 21.8061 32.7388C23.4394 33.1254 24.8428 32.7754 26.0161 31.6887C26.0765 31.6324 26.1345 31.5124 26.1839 31.3416C26.2332 31.1707 26.2719 30.9554 26.2961 30.7188L26.6061 27.7288C26.6157 27.6428 26.6365 27.5577 26.6669 27.4797C26.6973 27.4017 26.7365 27.3328 26.7816 27.2781C26.8267 27.2234 26.8766 27.1842 26.9276 27.1636C26.9785 27.1429 27.0293 27.1413 27.0761 27.1588Z" stroke="#8A8C90" stroke-width="2"/>
<path d="M63.8865 167.418C63.2765 166.378 59.5965 158.418 59.0565 158.538C58.9398 158.561 58.8288 158.639 58.7391 158.761C58.6495 158.883 58.5856 159.043 58.5565 159.218C58.1499 161.458 57.2632 163.485 55.8966 165.298C55.8315 165.386 55.7511 165.46 55.6601 165.517C55.5692 165.575 55.4696 165.613 55.3676 165.631C55.2655 165.649 55.1632 165.645 55.0667 165.621C54.9703 165.596 54.8817 165.551 54.8065 165.488L48.9465 160.578C48.7954 160.451 48.6279 160.361 48.4692 160.321C48.3105 160.281 48.1692 160.295 48.0665 160.358C46.6365 161.238 53.4966 170.588 54.2766 171.588C54.3692 171.708 54.4305 171.849 54.4549 171.998C54.4793 172.148 54.4662 172.301 54.4165 172.444C54.3669 172.587 54.2823 172.715 54.1706 172.817C54.0589 172.919 53.9234 172.992 53.7766 173.028C45.4566 175.058 51.6865 179.338 55.1065 180.788C55.2475 180.85 55.3709 180.945 55.4652 181.066C55.5596 181.186 55.6219 181.328 55.6466 181.478C55.9266 183.258 56.5765 192.288 60.5565 189.108C62.1965 187.798 61.6865 184.468 62.8065 182.578C65.7465 177.638 68.3865 181.488 72.1865 181.388C77.5665 181.238 73.2966 175.638 71.3966 174.208C71.1066 173.99 70.9145 173.665 70.8621 173.306C70.8097 172.947 70.9011 172.581 71.1165 172.288C73.4965 169.058 78.1465 163.738 78.3565 159.698C78.4232 158.318 77.6599 158.065 76.0665 158.938C71.8865 161.205 68.1498 164.072 64.8565 167.538C64.7908 167.607 64.7101 167.659 64.6207 167.691C64.5313 167.723 64.4356 167.733 64.3414 167.721C64.2473 167.71 64.1571 167.676 64.0781 167.624C63.9992 167.571 63.9336 167.501 63.8865 167.418Z" stroke="#8A8C90" stroke-width="2"/>
<path d="M77.0775 238.969C76.7508 242.802 76.7841 246.632 77.1775 250.459C77.1928 250.625 77.2353 250.78 77.3014 250.911C77.3675 251.041 77.4553 251.143 77.5575 251.209C83.0775 254.669 84.5375 242.089 84.6675 239.379C84.6763 239.19 84.7208 239.014 84.7925 238.881C84.8642 238.749 84.9583 238.67 85.0575 238.659L91.0675 238.019C91.269 237.997 91.4531 237.954 91.6057 237.893C91.7583 237.832 91.8752 237.756 91.9475 237.669C94.1775 234.879 90.5775 232.109 88.8775 230.279C88.7735 230.168 88.7031 230.031 88.6747 229.884C88.6463 229.737 88.6612 229.586 88.7175 229.449C89.3975 227.769 94.2775 217.789 88.5575 218.849C86.1375 219.289 84.0175 223.389 82.7275 225.369C82.6709 225.455 82.5944 225.526 82.5044 225.577C82.4143 225.627 82.3134 225.655 82.2103 225.658C82.1072 225.661 82.0049 225.639 81.9121 225.594C81.8193 225.548 81.7388 225.482 81.6775 225.399C80.3375 223.609 74.8675 215.139 72.5875 221.449C72.5337 221.603 72.5086 221.762 72.5137 221.915C72.5189 222.068 72.5542 222.212 72.6175 222.339L76.5575 230.009C76.6389 230.172 76.653 230.361 76.5968 230.533C76.5405 230.706 76.4185 230.848 76.2575 230.929L72.1075 232.999C70.4275 233.832 70.2675 234.899 71.6275 236.199C72.9942 237.505 74.6475 238.232 76.5875 238.379C76.6569 238.382 76.7248 238.4 76.7872 238.432C76.8496 238.464 76.9054 238.508 76.951 238.563C76.9967 238.618 77.0314 238.683 77.0531 238.752C77.0749 238.822 77.0831 238.895 77.0775 238.969Z" stroke="#8A8C90" stroke-width="2"/>
<path d="M53.1339 281.578L49.3138 282.138C49.1631 282.158 49.0216 282.224 48.9075 282.328C48.7934 282.431 48.712 282.567 48.6738 282.718C47.5938 286.928 52.4438 288.628 55.1138 290.628C55.3686 290.824 55.5631 291.095 55.6738 291.408C57.6472 297.062 60.3538 297.885 63.7938 293.878C65.4038 292.008 66.7139 291.438 68.7739 290.458C68.9558 290.37 69.1175 290.244 69.2462 290.09C69.3748 289.936 69.4669 289.758 69.5154 289.57C69.5638 289.382 69.5672 289.189 69.5253 289.007C69.4834 288.824 69.3974 288.657 69.2739 288.518L65.7238 284.558C65.6442 284.474 65.6029 284.353 65.6065 284.217C65.6101 284.08 65.6586 283.936 65.7438 283.808C67.5638 281.078 71.9938 273.188 66.1038 273.588C63.5238 273.758 60.9438 276.868 58.6638 278.358C58.5239 278.448 58.3655 278.505 58.1995 278.525C58.0336 278.544 57.8642 278.526 57.7032 278.472C57.5422 278.418 57.3934 278.328 57.2675 278.21C57.1415 278.092 57.0412 277.948 56.9738 277.788L55.3439 273.948C55.2907 273.817 55.196 273.691 55.0665 273.581C54.937 273.47 54.7757 273.377 54.5939 273.308C53.5405 272.895 53.1138 273.278 53.3138 274.458C53.7538 277.025 53.8472 279.175 53.5939 280.908C53.565 281.087 53.5041 281.249 53.4208 281.371C53.3376 281.492 53.2366 281.565 53.1339 281.578Z" stroke="#8A8C90" stroke-width="2"/>
<path d="M26.6061 27.7283L26.2961 30.7183C26.2719 30.9549 26.2332 31.1702 26.1839 31.3411C26.1345 31.5119 26.0765 31.6319 26.0161 31.6882C24.8428 32.7749 23.4394 33.125 21.8061 32.7383C21.5677 32.6795 21.3067 32.4864 21.0761 32.1983L16.7561 26.7883C15.9695 25.8083 15.0128 25.6116 13.8861 26.1983C11.1161 27.6383 2.12613 34.2183 1.01613 27.9983C0.964986 27.6902 1.03649 27.3685 1.21614 27.0983C4.24614 22.6383 10.4161 18.9182 15.4861 15.5082C15.6347 15.4063 15.7517 15.2737 15.82 15.1298C15.8884 14.9859 15.9045 14.8382 15.8661 14.7083L12.5961 3.72828C12.1828 2.34828 12.6561 1.47161 14.0161 1.09828C17.3961 0.178276 19.8861 5.95826 21.4261 8.39826C21.4806 8.48407 21.5528 8.55719 21.638 8.61268C21.7231 8.66817 21.8191 8.70475 21.9196 8.71992C22.0201 8.73509 22.1227 8.72852 22.2204 8.70063C22.3181 8.67274 22.4087 8.62421 22.4861 8.5583C25.0761 6.3983 27.9061 4.47828 30.6061 2.34828C32.2461 1.04828 33.8395 1.12492 35.3861 2.57826C35.5109 2.70058 35.6023 2.85067 35.6514 3.01374C35.7005 3.17682 35.7056 3.34725 35.6661 3.50825C34.6194 7.72158 32.7128 11.5183 29.9461 14.8983C29.8661 14.9946 29.831 15.1242 29.8476 15.2625C29.8642 15.4008 29.9313 15.5381 30.0361 15.6483C32.5861 18.3283 37.1861 24.7883 33.9661 27.9483C33.8855 28.0264 33.7631 28.092 33.6076 28.1404C33.4521 28.1888 33.2672 28.2188 33.0661 28.2283C30.9928 28.3149 28.9961 27.9583 27.0761 27.1583C27.0293 27.1408 26.9785 27.1424 26.9276 27.1631C26.8766 27.1837 26.8267 27.2229 26.7816 27.2776C26.7365 27.3323 26.6973 27.4012 26.6669 27.4792C26.6365 27.5572 26.6157 27.6423 26.6061 27.7283Z" fill="#151E30"/>
<path d="M24.6067 110.918L27.6167 114.178C27.7589 114.332 27.8551 114.515 27.8911 114.703C27.9271 114.89 27.9011 115.071 27.8167 115.218L25.9867 118.398C25.8982 118.556 25.8314 118.711 25.7902 118.853C25.749 118.996 25.7342 119.123 25.7467 119.228L26.8267 126.458C27.0334 127.858 26.7167 129.085 25.8767 130.138C23.8667 132.658 18.9067 124.938 17.6067 123.608C17.4799 123.476 17.3453 123.367 17.2112 123.29C17.077 123.212 16.9461 123.168 16.8267 123.158L10.8167 122.748C10.6179 122.736 10.4346 122.698 10.2818 122.639C10.1289 122.58 10.0107 122.501 9.93668 122.408C7.56668 119.488 12.4767 116.558 14.2867 114.808C14.3848 114.713 14.4435 114.584 14.451 114.449C14.4584 114.313 14.414 114.181 14.3267 114.078C12.5367 111.868 4.69668 101.928 10.1867 102.448C12.5667 102.678 17.6767 107.138 19.7667 108.668C19.8605 108.737 19.969 108.782 20.0837 108.801C20.1984 108.819 20.3161 108.811 20.4275 108.776C20.539 108.741 20.6412 108.681 20.726 108.6C20.8109 108.518 20.8762 108.419 20.9167 108.308C21.4433 106.882 22.05 105.495 22.7367 104.148C24.9267 99.8484 23.9567 109.768 24.0267 110.168C24.032 110.208 24.0912 110.302 24.1956 110.437C24.3001 110.572 24.4441 110.741 24.6067 110.918Z" fill="#151E30"/>
<path d="M63.8865 167.418C63.9336 167.501 63.9992 167.571 64.0781 167.624C64.1571 167.676 64.2473 167.71 64.3414 167.721C64.4356 167.733 64.5313 167.723 64.6207 167.691C64.7101 167.659 64.7908 167.607 64.8565 167.538C68.1498 164.072 71.8865 161.205 76.0665 158.938C77.6599 158.065 78.4232 158.318 78.3565 159.698C78.1465 163.738 73.4965 169.058 71.1165 172.288C70.9011 172.581 70.8097 172.947 70.8621 173.306C70.9145 173.665 71.1066 173.99 71.3966 174.208C73.2966 175.638 77.5665 181.238 72.1865 181.388C68.3865 181.488 65.7465 177.638 62.8065 182.578C61.6865 184.468 62.1965 187.798 60.5565 189.108C56.5765 192.288 55.9266 183.258 55.6466 181.478C55.6219 181.328 55.5596 181.186 55.4652 181.066C55.3709 180.945 55.2475 180.85 55.1065 180.788C51.6865 179.338 45.4566 175.058 53.7766 173.028C53.9234 172.992 54.0589 172.919 54.1706 172.817C54.2823 172.715 54.3669 172.587 54.4165 172.444C54.4662 172.301 54.4793 172.148 54.4549 171.998C54.4305 171.849 54.3692 171.708 54.2766 171.588C53.4966 170.588 46.6365 161.238 48.0665 160.358C48.1692 160.295 48.3105 160.281 48.4692 160.321C48.6279 160.361 48.7954 160.451 48.9465 160.578L54.8065 165.488C54.8817 165.551 54.9703 165.596 55.0667 165.621C55.1632 165.645 55.2655 165.649 55.3676 165.631C55.4696 165.613 55.5692 165.575 55.6601 165.517C55.7511 165.46 55.8315 165.386 55.8966 165.298C57.2632 163.485 58.1499 161.458 58.5565 159.218C58.5856 159.043 58.6495 158.883 58.7391 158.761C58.8288 158.639 58.9398 158.561 59.0565 158.538C59.5965 158.418 63.2765 166.378 63.8865 167.418Z" fill="#151E30"/>
<path d="M76.5875 238.379C74.6475 238.232 72.9942 237.505 71.6275 236.199C70.2675 234.899 70.4275 233.832 72.1075 232.999L76.2575 230.929C76.4185 230.848 76.5405 230.706 76.5968 230.533C76.653 230.361 76.6389 230.172 76.5575 230.009L72.6175 222.339C72.5542 222.212 72.5189 222.068 72.5137 221.915C72.5086 221.762 72.5337 221.603 72.5875 221.449C74.8675 215.139 80.3375 223.609 81.6775 225.399C81.7388 225.482 81.8193 225.548 81.9121 225.594C82.0049 225.639 82.1072 225.661 82.2103 225.658C82.3134 225.655 82.4143 225.627 82.5044 225.577C82.5944 225.526 82.6709 225.455 82.7275 225.369C84.0175 223.389 86.1375 219.289 88.5575 218.849C94.2775 217.789 89.3975 227.769 88.7175 229.449C88.6612 229.586 88.6463 229.737 88.6747 229.884C88.7031 230.031 88.7735 230.168 88.8775 230.279C90.5775 232.109 94.1775 234.879 91.9475 237.669C91.8752 237.756 91.7583 237.832 91.6057 237.893C91.4531 237.954 91.269 237.997 91.0675 238.019L85.0575 238.659C84.9583 238.67 84.8642 238.749 84.7925 238.881C84.7208 239.014 84.6763 239.19 84.6675 239.379C84.5375 242.089 83.0775 254.669 77.5575 251.209C77.4553 251.143 77.3675 251.041 77.3014 250.911C77.2353 250.78 77.1928 250.625 77.1775 250.459C76.7841 246.632 76.7508 242.802 77.0775 238.969C77.0831 238.895 77.0749 238.822 77.0531 238.752C77.0314 238.683 76.9967 238.618 76.951 238.563C76.9054 238.508 76.8496 238.464 76.7872 238.432C76.7248 238.4 76.6569 238.382 76.5875 238.379Z" fill="#151E30"/>
<path d="M53.5939 280.908C53.8472 279.175 53.7538 277.025 53.3138 274.458C53.1138 273.278 53.5405 272.895 54.5939 273.308C54.7757 273.377 54.937 273.47 55.0665 273.581C55.196 273.691 55.2907 273.817 55.3439 273.948L56.9738 277.788C57.0412 277.948 57.1415 278.092 57.2675 278.21C57.3934 278.328 57.5422 278.418 57.7032 278.472C57.8642 278.526 58.0336 278.544 58.1995 278.525C58.3655 278.505 58.5239 278.448 58.6638 278.358C60.9438 276.868 63.5238 273.758 66.1038 273.588C71.9938 273.188 67.5638 281.078 65.7438 283.808C65.6586 283.936 65.6101 284.08 65.6065 284.217C65.6029 284.353 65.6442 284.474 65.7238 284.558L69.2739 288.518C69.3974 288.657 69.4834 288.824 69.5253 289.007C69.5672 289.189 69.5638 289.382 69.5154 289.57C69.4669 289.758 69.3748 289.936 69.2462 290.09C69.1175 290.244 68.9558 290.37 68.7739 290.458C66.7139 291.438 65.4038 292.008 63.7938 293.878C60.3538 297.885 57.6472 297.062 55.6738 291.408C55.5631 291.095 55.3686 290.824 55.1138 290.628C52.4438 288.628 47.5938 286.928 48.6738 282.718C48.712 282.567 48.7934 282.431 48.9075 282.328C49.0216 282.224 49.1631 282.158 49.3138 282.138L53.1339 281.578C53.2366 281.565 53.3376 281.492 53.4208 281.371C53.5041 281.249 53.565 281.087 53.5939 280.908Z" fill="#151E30"/>
</svg>
