<svg width="66" height="86" viewBox="0 0 66 86" fill="none" xmlns="http://www.w3.org/2000/svg">
<path d="M46.437 60.5C44.457 67.6467 41.357 74.09 37.137 79.8299C32.997 85.4599 23.717 89.1099 19.367 81.3999C16.167 75.7399 17.417 65.9899 18.757 59.7899C18.7932 59.6128 18.7634 59.4287 18.6731 59.2721C18.5829 59.1155 18.4384 58.9973 18.267 58.9399C10.387 56.3099 3.80702 55.42 1.28702 46.63C-3.40298 30.21 5.247 28.1799 18.767 25.8899C19.0268 25.8461 19.2675 25.7256 19.4582 25.5438C19.6488 25.362 19.7808 25.1274 19.837 24.87C21.257 18.13 23.397 3.38992 31.017 0.549922C42.817 -3.85008 45.097 19.4 45.477 25.97C45.498 26.3713 45.6359 26.7579 45.8739 27.0829C46.1118 27.4078 46.4395 27.657 46.817 27.7999C54.797 30.8299 67.307 37.9999 65.727 48.5499C64.527 56.4999 53.737 58.5999 47.067 59.9199C46.9178 59.947 46.7794 60.0158 46.6679 60.1185C46.5563 60.2212 46.4762 60.3536 46.437 60.5Z" fill="#FDCD4A"/>
</svg>
