<svg width="163" height="182" viewBox="0 0 163 182" fill="none" xmlns="http://www.w3.org/2000/svg">
<path d="M78.7978 4.80957C70.4778 15.4562 63.6178 26.9796 58.2178 39.3796C52.8678 51.6596 50.2878 61.8796 38.4278 66.6896C29.0011 70.5096 19.5878 74.3462 10.1878 78.1996C7.18775 79.4329 4.58776 81.0596 2.38776 83.0796C0.761098 84.5729 0.564466 86.2362 1.7978 88.0696C4.57113 92.2096 8.00111 95.7196 12.0878 98.5996C20.1011 104.24 28.0811 109.933 36.0278 115.68C43.7478 121.26 49.3378 124.81 51.3878 132.26C55.8478 148.5 60.3278 161.27 68.9578 175.21C75.6178 185.97 84.3278 176.69 87.6778 169.83C87.8217 169.535 88.0463 169.283 88.3278 169.1C89.9478 168.03 93.2577 161.23 94.5577 159.17C96.1977 156.56 97.6178 153.32 99.4178 150.54C101.411 147.453 102.708 145.356 103.308 144.25C105.808 139.61 108.348 134.95 110.928 130.27" stroke="#F3BDA4" stroke-width="2"/>
<path d="M110.931 130.27C114.517 127.323 117.404 125.167 119.591 123.8C131.931 116.1 145.241 110.91 157.671 100.17C162.601 95.9099 164.011 89.9799 157.781 85.8599C150.874 81.2999 143.564 77.5332 135.851 74.5599C126.591 70.9899 117.691 68.3099 113.731 58.1399C113.551 57.6699 113.201 57.5799 112.961 56.9899C106.001 39.9599 99.3507 22.6599 90.2507 6.6499C87.5807 1.9499 82.4308 -2.36009 78.8008 4.80991" stroke="#FEBBA0" stroke-width="2"/>
<path d="M110.93 130.27C105.29 136.356 101.097 143.373 98.3503 151.32C98.1803 151.8 97.1103 152.6 96.7203 153.3C90.7803 163.96 87.4603 169.27 82.2903 175.56C82.0815 175.814 81.8071 176.002 81.5003 176.1C78.3703 177.11 74.5204 180.22 72.0504 176.11C66.1704 166.39 60.9903 155.94 57.6703 144.96C56.517 141.153 55.3637 137.346 54.2103 133.54C53.2303 130.31 51.1003 125.08 49.5403 123.12C45.6003 118.15 36.6703 112.98 32.8603 110.13C27.787 106.33 22.7203 102.526 17.6603 98.7196C16.2703 97.6696 -0.339649 88.0996 4.55035 84.7396C4.80504 84.5631 5.00618 84.3134 5.13031 84.0196C6.31031 81.2896 16.3403 76.9496 18.5203 75.9796C22.1303 74.3696 27.7203 73.0496 32.1703 70.9296C37.3503 68.4596 42.4104 67.6196 47.2404 63.7696C55.1804 57.4296 57.9203 44.9196 62.2103 36.2296C66.217 28.1162 70.597 20.2062 75.3503 12.4996C77.0403 9.75957 78.6804 8.37957 78.8004 4.80957" stroke="#F37A4A" stroke-width="2"/>
<path d="M86.4891 42.5546C86.7096 42.5054 86.8821 42.2519 86.9969 41.8086C87.1116 41.3654 87.1663 40.741 87.1579 39.9712C87.1495 39.2014 87.0781 38.3013 86.9479 37.3222C86.8176 36.343 86.6309 35.3041 86.3986 34.2647C85.9294 32.1656 85.3026 30.192 84.656 28.7781C84.0094 27.3642 83.3961 26.6257 82.9509 26.7252C82.7305 26.7744 82.5579 27.0279 82.4432 27.4712C82.3284 27.9144 82.2737 28.5388 82.2821 29.3086C82.2905 30.0784 82.3619 30.9785 82.4922 31.9577C82.6225 32.9368 82.8091 33.9757 83.0414 35.0151C83.5106 37.1142 84.1375 39.0878 84.784 40.5017C85.4306 41.9156 86.0439 42.6541 86.4891 42.5546Z" stroke="#FDB08A" stroke-width="2"/>
<path d="M118.302 107.52C118.552 107.617 118.846 107.592 119.168 107.446C119.49 107.3 119.834 107.037 120.179 106.671C120.524 106.305 120.864 105.843 121.18 105.312C121.496 104.781 121.781 104.192 122.019 103.577C122.501 102.336 122.762 101.068 122.746 100.052C122.73 99.0358 122.437 98.355 121.933 98.1593C121.683 98.0625 121.389 98.0876 121.067 98.2333C120.745 98.379 120.401 98.6424 120.056 99.0085C119.711 99.3746 119.371 99.8363 119.055 100.367C118.739 100.898 118.454 101.487 118.216 102.102C117.734 103.343 117.473 104.611 117.489 105.627C117.505 106.643 117.798 107.324 118.302 107.52Z" stroke="#FDB08A" stroke-width="2"/>
<path d="M89.1022 138.36C89.301 137.937 89.3238 137.453 89.1656 137.014C89.0075 136.575 88.6814 136.216 88.259 136.018L88.1685 135.975C87.7462 135.776 87.2622 135.754 86.8231 135.912C86.3839 136.07 86.0255 136.396 85.8267 136.818L80.019 149.16C79.8203 149.582 79.7975 150.066 79.9556 150.506C80.1138 150.945 80.4399 151.303 80.8622 151.502L80.9528 151.545C81.3751 151.743 81.859 151.766 82.2982 151.608C82.7374 151.45 83.0958 151.124 83.2946 150.701L89.1022 138.36Z" stroke="#FDB08A" stroke-width="2"/>
<path d="M110.93 130.269C105.29 136.356 101.097 143.373 98.3503 151.319C98.1803 151.799 97.1103 152.599 96.7203 153.299C90.7803 163.959 87.4603 169.269 82.2903 175.559C82.0815 175.814 81.8071 176.002 81.5003 176.099C78.3703 177.109 74.5204 180.219 72.0504 176.109C66.1704 166.389 60.9903 155.939 57.6703 144.959C56.517 141.153 55.3637 137.346 54.2103 133.539C53.2303 130.309 51.1003 125.079 49.5403 123.119C45.6003 118.149 36.6703 112.979 32.8603 110.129C27.787 106.329 22.7203 102.526 17.6603 98.7194C16.2703 97.6694 -0.339649 88.0994 4.55035 84.7394C4.80504 84.563 5.00618 84.3133 5.13031 84.0194C6.31031 81.2894 16.3403 76.9494 18.5203 75.9794C22.1303 74.3694 27.7203 73.0494 32.1703 70.9294C37.3503 68.4594 42.4104 67.6194 47.2404 63.7694C55.1804 57.4294 57.9203 44.9194 62.2103 36.2294C66.217 28.1161 70.597 20.2061 75.3503 12.4994C77.0403 9.75942 78.6804 8.37942 78.8004 4.80942C82.4304 -2.36058 87.5803 1.94942 90.2503 6.64942C99.3503 22.6594 106 39.9594 112.96 56.9894C113.2 57.5794 113.55 57.6694 113.73 58.1394C117.69 68.3094 126.59 70.9894 135.85 74.5594C143.564 77.5328 150.874 81.2994 157.78 85.8594C164.01 89.9794 162.6 95.9094 157.67 100.169C145.24 110.909 131.93 116.099 119.59 123.799C117.404 125.166 114.517 127.323 110.93 130.269ZM86.4894 42.5541C86.7099 42.5049 86.8824 42.2514 86.9972 41.8082C87.112 41.3649 87.1667 40.7405 87.1583 39.9708C87.1499 39.201 87.0785 38.3008 86.9482 37.3217C86.8179 36.3425 86.6313 35.3036 86.3989 34.2642C85.9297 32.1651 85.3029 30.1915 84.6563 28.7776C84.0097 27.3637 83.3964 26.6252 82.9512 26.7247C82.7308 26.774 82.5582 27.0274 82.4435 27.4707C82.3287 27.9139 82.274 28.5383 82.2824 29.3081C82.2908 30.0779 82.3622 30.978 82.4925 31.9572C82.6228 32.9363 82.8094 33.9752 83.0417 35.0146C83.5109 37.1137 84.1378 39.0873 84.7844 40.5012C85.4309 41.9152 86.0443 42.6536 86.4894 42.5541ZM118.305 107.52C118.555 107.617 118.849 107.591 119.171 107.446C119.493 107.3 119.836 107.037 120.182 106.671C120.527 106.304 120.867 105.843 121.183 105.312C121.499 104.781 121.784 104.192 122.022 103.577C122.504 102.336 122.765 101.068 122.749 100.052C122.733 99.0356 122.44 98.3548 121.936 98.1591C121.686 98.0622 121.392 98.0874 121.07 98.2331C120.748 98.3788 120.404 98.6422 120.059 99.0083C119.714 99.3744 119.374 99.836 119.058 100.367C118.742 100.898 118.457 101.487 118.218 102.102C117.737 103.343 117.476 104.611 117.492 105.627C117.508 106.643 117.801 107.324 118.305 107.52ZM89.1019 138.359C89.3007 137.937 89.3235 137.453 89.1653 137.014C89.0072 136.574 88.6811 136.216 88.2587 136.017L88.1682 135.975C87.7459 135.776 87.2619 135.753 86.8228 135.911C86.3836 136.069 86.0252 136.395 85.8264 136.818L80.0187 149.16C79.82 149.582 79.7972 150.066 79.9553 150.505C80.1134 150.944 80.4396 151.303 80.8619 151.502L80.9525 151.544C81.3748 151.743 81.8587 151.766 82.2979 151.608C82.7371 151.449 83.0955 151.123 83.2943 150.701L89.1019 138.359Z" fill="#FE7845"/>
<path d="M78.8017 4.80957C78.6817 8.37957 77.0417 9.75957 75.3517 12.4996C70.5984 20.2062 66.2183 28.1162 62.2117 36.2296C57.9217 44.9196 55.1817 57.4296 47.2417 63.7696C42.4117 67.6196 37.3517 68.4596 32.1717 70.9296C27.7217 73.0496 22.1317 74.3696 18.5217 75.9796C16.3417 76.9496 6.31166 81.2896 5.13166 84.0196C5.00753 84.3134 4.8064 84.5631 4.55171 84.7396C-0.338295 88.0996 16.2717 97.6696 17.6617 98.7196C22.7217 102.526 27.7884 106.33 32.8617 110.13C36.6717 112.98 45.6017 118.15 49.5417 123.12C51.1017 125.08 53.2317 130.31 54.2117 133.54C55.365 137.346 56.5184 141.153 57.6717 144.96C60.9917 155.94 66.1717 166.39 72.0517 176.11C74.5217 180.22 78.3717 177.11 81.5017 176.1C81.8084 176.002 82.0829 175.814 82.2917 175.56C87.4617 169.27 90.7817 163.96 96.7217 153.3C97.1117 152.6 98.1817 151.8 98.3517 151.32C101.098 143.373 105.292 136.356 110.932 130.27C108.352 134.95 105.812 139.61 103.312 144.25C102.712 145.356 101.415 147.453 99.4217 150.54C97.6217 153.32 96.2017 156.56 94.5617 159.17C93.2617 161.23 89.9517 168.03 88.3317 169.1C88.0502 169.283 87.8256 169.535 87.6817 169.83C84.3317 176.69 75.6217 185.97 68.9617 175.21C60.3317 161.27 55.8517 148.5 51.3917 132.26C49.3417 124.81 43.7517 121.26 36.0317 115.68C28.085 109.933 20.105 104.24 12.0917 98.5996C8.00502 95.7196 4.57504 92.2096 1.80171 88.0696C0.568372 86.2362 0.765005 84.5729 2.39167 83.0796C4.59167 81.0596 7.19166 79.4329 10.1917 78.1996C19.5917 74.3462 29.005 70.5096 38.4317 66.6896C50.2917 61.8796 52.8717 51.6596 58.2217 39.3796C63.6217 26.9796 70.4817 15.4562 78.8017 4.80957Z" fill="#E87C4E"/>
<path d="M83.0409 35.0147C84.018 39.3859 85.5616 42.7614 86.4886 42.5542C87.4157 42.347 87.3751 38.6355 86.398 34.2643C85.421 29.8931 83.8774 26.5176 82.9503 26.7248C82.0233 26.932 82.0638 30.6435 83.0409 35.0147Z" fill="#FBE8CE"/>
<path d="M118.217 102.102C117.214 104.687 117.253 107.112 118.303 107.52C119.354 107.927 121.018 106.162 122.021 103.577C123.023 100.992 122.984 98.5667 121.934 98.1593C120.884 97.7518 119.219 99.517 118.217 102.102Z" fill="#FBE8CE"/>
<path d="M88.2572 136.018L88.1667 135.975C87.2872 135.561 86.2387 135.939 85.8248 136.818L80.0172 149.16C79.6034 150.039 79.9808 151.088 80.8603 151.502L80.9508 151.544C81.8303 151.958 82.8788 151.581 83.2927 150.701L89.1003 138.359C89.5142 137.48 89.1367 136.431 88.2572 136.018Z" fill="#FBE8CE"/>
</svg>
