<svg width="143" height="137" viewBox="0 0 143 137" fill="none" xmlns="http://www.w3.org/2000/svg">
<path d="M48.6523 3.5752L46.9023 4.15515" stroke="#8C91AD" stroke-width="2"/>
<path d="M46.9023 4.15527C38.7557 6.31527 31.4223 10.0387 24.9023 15.3253" stroke="#BBBDDD" stroke-width="2"/>
<path d="M24.9021 15.3252C-1.7079 36.0052 -5.31792 72.6252 10.1921 101.115C18.3421 116.085 30.8821 127.935 47.6421 132.585C66.8154 137.912 84.9021 135.889 101.902 126.515" stroke="#8C91AD" stroke-width="2"/>
<path d="M101.902 126.515C104.752 124.815 107.572 123.895 110.172 121.795C111.446 120.775 112.696 119.815 113.922 118.915" stroke="#BBBDDD" stroke-width="2"/>
<path d="M113.922 118.915C120.215 113.822 125.425 107.915 129.552 101.195" stroke="#8C91AD" stroke-width="2"/>
<path d="M129.551 101.195C132.044 98.2486 133.911 94.9019 135.151 91.1553" stroke="#BBBDDD" stroke-width="2"/>
<path d="M135.152 91.1551C137.312 86.6418 139.022 82.0051 140.282 77.2451" stroke="#8C91AD" stroke-width="2"/>
<path d="M140.281 77.2455L141.661 68.1455" stroke="#BBBDDD" stroke-width="2"/>
<path d="M141.659 68.1451L140.609 57.4751" stroke="#8C91AD" stroke-width="2"/>
<path d="M140.612 57.4755C140.425 55.1289 139.862 52.8655 138.922 50.6855" stroke="#BBBDDD" stroke-width="2"/>
<path d="M138.919 50.6854C137.773 47.6188 136.283 44.7454 134.449 42.0654" stroke="#8C91AD" stroke-width="2"/>
<path d="M134.451 42.0652C133.631 39.4119 132.128 37.0952 129.941 35.1152" stroke="#BBBDDD" stroke-width="2"/>
<path d="M129.941 35.1152C124.301 25.6419 116.718 18.1419 107.191 12.6152" stroke="#8C91AD" stroke-width="2"/>
<path d="M107.192 12.6152C102.266 9.13522 96.9657 6.38522 91.2924 4.36522C77.8224 -0.454779 62.4323 0.475243 48.6523 3.57524" stroke="#BBBDDD" stroke-width="2"/>
<path d="M107.192 12.6154C106.162 13.8654 107.452 14.0854 108.112 14.7054C119.322 25.1854 124.262 35.2754 117.822 50.5054C111.852 64.6354 94.122 79.9054 77.462 76.2754C67.522 74.1154 59.802 63.3854 61.642 53.0354C63.892 40.3354 82.572 27.7654 94.532 35.9254C97.382 37.8654 98.722 40.7654 96.312 43.7054C96.2338 43.802 96.1346 43.8795 96.0221 43.9321C95.9095 43.9847 95.7864 44.0111 95.6621 44.0091C95.5379 44.0072 95.4157 43.9771 95.3048 43.921C95.1939 43.8649 95.0972 43.7844 95.022 43.6854C83.822 29.0454 56.912 52.7554 71.812 67.0854C76.972 72.0454 84.892 71.2654 91.392 68.6254C102.952 63.9454 113.202 53.4354 114.842 40.9854C116.432 28.8954 108.822 21.1354 99.362 14.9054C85.312 5.66539 68.352 9.15541 55.352 18.3054C43.4654 26.6654 37.0687 38.2721 36.162 53.1254C35.642 61.7188 36.5453 69.3121 38.872 75.9054C44.792 92.7254 58.392 96.1654 75.272 98.2754C84.7853 99.4687 93.7487 99.1721 102.162 97.3854C119.175 93.7788 132.342 84.0321 141.662 68.1454" stroke="#474E8B" stroke-width="2"/>
<path d="M140.282 77.2453C133.448 87.9986 124.408 95.692 113.162 100.325C95.5917 107.565 62.0417 105.985 45.9517 95.1653C37.205 89.2853 31.9783 80.512 30.2717 68.8453C29.2383 61.7186 28.945 56.0586 29.3917 51.8653C32.2417 25.1253 51.2717 6.9753 77.6917 3.9853C78.1017 3.9353 78.6017 3.78533 78.4417 3.26533C78.4064 3.14833 78.3112 3.04194 78.1694 2.96119C78.0277 2.88045 77.8466 2.82942 77.6517 2.81532C74.8917 2.60865 72.1383 2.82862 69.3917 3.47529C45.1817 9.15529 29.8317 26.0253 25.0317 49.7553C23.125 59.162 23.195 68.2653 25.2417 77.0653C33.2617 111.455 75.8917 113.535 103.102 108.625C116.312 106.235 122.902 100.525 135.152 91.1553" stroke="#474E8B" stroke-width="2"/>
<path d="M129.552 101.195C122.892 107.255 114.759 111.308 105.152 113.355C81.0124 118.495 51.6524 117.265 32.4524 100.325C25.2457 93.9651 20.7324 86.1451 18.9124 76.8651C13.1424 47.4751 24.3324 19.4351 51.1624 5.02506C51.2911 4.95639 51.3897 4.84408 51.4365 4.71281C51.4834 4.58154 51.4748 4.44212 51.4124 4.32511C50.9258 3.41845 50.0057 3.16845 48.6524 3.57511" stroke="#474E8B" stroke-width="2"/>
<path d="M113.919 118.915C95.8059 122.555 77.7459 122.592 59.7393 119.025C45.0693 116.115 28.5793 113.135 19.9693 99.3253C11.6693 86.0053 11.0493 67.8853 13.4893 52.8653C15.9393 37.7453 23.6493 24.6653 34.1493 13.7753C37.8193 9.97527 42.4592 7.36527 46.8993 4.15527" stroke="#474E8B" stroke-width="2"/>
<path d="M129.941 35.1152C128.871 54.7152 112.481 73.0352 93.8014 77.9952C92.4281 78.3552 91.6314 79.2386 91.4114 80.6453C90.5414 86.3553 105.531 79.5053 107.521 78.3253C117.761 72.2453 130.131 60.3253 132.721 48.2053C133.168 46.1186 133.745 44.0719 134.451 42.0652" stroke="#474E8B" stroke-width="2"/>
<path d="M138.922 50.6855C128.382 73.6455 105.702 91.7255 79.4918 86.2455C47.7018 79.5855 45.0517 44.4454 71.0817 28.2154C79.7151 22.8354 88.2284 22.9888 96.6217 28.6754C109.342 37.3054 100.802 54.1255 89.2817 58.3255C85.0317 59.8755 81.5317 60.6554 77.5717 58.7254C75.645 57.7921 75.4918 56.4988 77.1118 54.8454C79.1718 52.7254 86.4817 49.2154 80.5917 46.2754C80.3017 46.1337 79.9668 46.1052 79.6517 46.1955C70.4317 48.9055 68.5917 61.3454 79.3217 64.3554C102.922 70.9854 121.542 33.6355 95.7017 20.8255C78.6617 12.3755 60.5417 24.2155 52.0817 38.6455C44.4417 51.6655 44.7618 66.9654 55.4218 78.2954C72.4018 96.3354 100.222 96.8254 119.852 82.8354C129.058 76.2688 135.978 67.8154 140.612 57.4754" stroke="#474E8B" stroke-width="2"/>
<path d="M101.901 126.515C90.6138 128.049 78.2805 127.655 64.9005 125.335C39.8205 121.005 12.8905 115.285 7.66053 85.3452C3.19053 59.8252 6.77052 35.6451 25.0905 16.5251C25.4772 16.1185 25.4138 15.7185 24.9005 15.3252" stroke="#474E8B" stroke-width="2"/>
<path d="M107.192 12.6152C106.162 13.8652 107.452 14.0852 108.112 14.7052C119.322 25.1852 124.262 35.2752 117.822 50.5052C111.852 64.6352 94.1224 79.9052 77.4624 76.2752C67.5224 74.1152 59.8024 63.3852 61.6424 53.0352C63.8924 40.3352 82.5724 27.7652 94.5324 35.9252C97.3824 37.8652 98.7224 40.7652 96.3124 43.7052C96.2342 43.8018 96.135 43.8793 96.0225 43.9319C95.9099 43.9845 95.7868 44.0109 95.6625 44.009C95.5383 44.007 95.4161 43.9769 95.3052 43.9208C95.1943 43.8647 95.0976 43.7842 95.0224 43.6852C83.8224 29.0452 56.9124 52.7552 71.8124 67.0852C76.9724 72.0452 84.8924 71.2652 91.3924 68.6252C102.952 63.9452 113.202 53.4352 114.842 40.9852C116.432 28.8952 108.822 21.1352 99.3624 14.9052C85.3124 5.6652 68.3524 9.15522 55.3524 18.3052C43.4658 26.6652 37.0691 38.2719 36.1624 53.1252C35.6424 61.7186 36.5457 69.3119 38.8724 75.9052C44.7924 92.7252 58.3924 96.1652 75.2724 98.2752C84.7857 99.4685 93.7491 99.1719 102.162 97.3852C119.176 93.7786 132.342 84.0319 141.662 68.1452L140.282 77.2452C133.449 87.9986 124.409 95.6919 113.162 100.325C95.5924 107.565 62.0424 105.985 45.9524 95.1652C37.2057 89.2852 31.9791 80.5119 30.2724 68.8452C29.2391 61.7185 28.9457 56.0586 29.3924 51.8652C32.2424 25.1252 51.2724 6.97522 77.6924 3.98522C78.1024 3.93522 78.6024 3.78525 78.4424 3.26525C78.4072 3.14825 78.3119 3.04185 78.1702 2.96111C78.0284 2.88036 77.8473 2.82934 77.6524 2.81523C74.8924 2.60857 72.1391 2.82854 69.3924 3.47521C45.1824 9.15521 29.8324 26.0252 25.0324 49.7552C23.1258 59.1619 23.1958 68.2652 25.2424 77.0652C33.2624 111.455 75.8924 113.535 103.102 108.625C116.312 106.235 122.902 100.525 135.152 91.1552C133.912 94.9019 132.046 98.2486 129.552 101.195C122.892 107.255 114.759 111.309 105.152 113.355C81.0124 118.495 51.6524 117.265 32.4524 100.325C25.2457 93.9652 20.7324 86.1452 18.9124 76.8652C13.1424 47.4752 24.3324 19.4352 51.1624 5.02519C51.2911 4.95652 51.3897 4.8442 51.4365 4.71294C51.4834 4.58167 51.4748 4.44225 51.4124 4.32524C50.9258 3.41858 50.0057 3.16858 48.6524 3.57524C62.4324 0.475243 77.8224 -0.454779 91.2924 4.36522C96.9658 6.38522 102.266 9.13522 107.192 12.6152Z" fill="#767ABB"/>
<path d="M140.282 77.2453C139.022 82.0053 137.312 86.6419 135.152 91.1553C122.902 100.525 116.312 106.235 103.102 108.625C75.8917 113.535 33.2617 111.455 25.2417 77.0653C23.195 68.2653 23.125 59.162 25.0317 49.7553C29.8317 26.0253 45.1817 9.15529 69.3917 3.47529C72.1383 2.82862 74.8917 2.60865 77.6517 2.81532C77.8466 2.82942 78.0277 2.88045 78.1694 2.96119C78.3112 3.04194 78.4064 3.14833 78.4417 3.26533C78.6017 3.78533 78.1017 3.9353 77.6917 3.9853C51.2717 6.9753 32.2417 25.1253 29.3917 51.8653C28.945 56.0586 29.2383 61.7186 30.2717 68.8453C31.9783 80.5119 37.205 89.2853 45.9517 95.1653C62.0417 105.985 95.5917 107.565 113.162 100.325C124.408 95.692 133.448 87.9986 140.282 77.2453Z" fill="#18225A"/>
<path d="M48.6532 3.57511C50.0065 3.16845 50.9265 3.41845 51.4132 4.32511C51.4755 4.44212 51.4842 4.58154 51.4373 4.71281C51.3904 4.84408 51.2918 4.95639 51.1632 5.02506C24.3332 19.4351 13.1432 47.4751 18.9132 76.8651C20.7332 86.1451 25.2465 93.9651 32.4531 100.325C51.6531 117.265 81.0132 118.495 105.153 113.355C114.76 111.308 122.893 107.255 129.553 101.195C125.427 107.915 120.217 113.822 113.923 118.915C95.8098 122.555 77.7498 122.592 59.7432 119.025C45.0732 116.115 28.5832 113.135 19.9732 99.3251C11.6732 86.0051 11.0532 67.8851 13.4932 52.8651C15.9432 37.7451 23.6532 24.6651 34.1532 13.7751C37.8232 9.97506 42.4632 7.36507 46.9032 4.15507L48.6532 3.57511Z" fill="#18225A"/>
<path d="M46.9005 4.15527C42.4605 7.36527 37.8205 9.97527 34.1505 13.7753C23.6505 24.6653 15.9405 37.7453 13.4905 52.8653C11.0505 67.8853 11.6705 86.0053 19.9705 99.3253C28.5805 113.135 45.0705 116.115 59.7405 119.025C77.7472 122.592 95.8072 122.555 113.921 118.915C112.694 119.815 111.444 120.775 110.171 121.795C107.571 123.895 104.751 124.815 101.901 126.515C90.6138 128.049 78.2805 127.655 64.9005 125.335C39.8205 121.005 12.8905 115.285 7.66053 85.3453C3.19053 59.8253 6.77052 35.6453 25.0905 16.5253C25.4772 16.1186 25.4138 15.7187 24.9005 15.3253C31.4205 10.0387 38.7538 6.31527 46.9005 4.15527Z" fill="#767ABB"/>
<path d="M107.192 12.6154C116.719 18.1421 124.302 25.6421 129.942 35.1154C128.872 54.7154 112.482 73.0354 93.802 77.9954C92.4287 78.3554 91.632 79.2388 91.412 80.6454C90.542 86.3554 105.532 79.5054 107.522 78.3254C117.762 72.2454 130.132 60.3254 132.722 48.2054C133.169 46.1188 133.745 44.0721 134.452 42.0654C136.285 44.7454 137.775 47.6188 138.922 50.6854C128.382 73.6454 105.702 91.7254 79.492 86.2454C47.702 79.5854 45.052 44.4454 71.082 28.2154C79.7153 22.8354 88.2286 22.9887 96.622 28.6754C109.342 37.3054 100.802 54.1254 89.282 58.3254C85.032 59.8754 81.532 60.6554 77.572 58.7254C75.6453 57.7921 75.492 56.4987 77.112 54.8454C79.172 52.7254 86.482 49.2154 80.592 46.2754C80.302 46.1336 79.9671 46.1052 79.652 46.1954C70.432 48.9054 68.592 61.3454 79.322 64.3554C102.922 70.9854 121.542 33.6354 95.702 20.8254C78.662 12.3754 60.542 24.2154 52.082 38.6454C44.442 51.6654 44.762 66.9654 55.422 78.2954C72.402 96.3354 100.222 96.8254 119.852 82.8354C129.059 76.2687 135.979 67.8154 140.612 57.4754L141.662 68.1454C132.342 84.0321 119.175 93.7788 102.162 97.3854C93.7487 99.1721 84.7853 99.4687 75.272 98.2754C58.392 96.1654 44.792 92.7254 38.872 75.9054C36.5453 69.3121 35.642 61.7188 36.162 53.1254C37.0687 38.2721 43.4654 26.6654 55.352 18.3054C68.352 9.15541 85.312 5.66539 99.362 14.9054C108.822 21.1354 116.432 28.8954 114.842 40.9854C113.202 53.4354 102.952 63.9454 91.392 68.6254C84.892 71.2654 76.972 72.0454 71.812 67.0854C56.912 52.7554 83.822 29.0454 95.022 43.6854C95.0972 43.7844 95.1939 43.8649 95.3048 43.921C95.4157 43.9771 95.5379 44.0072 95.6621 44.0091C95.7864 44.0111 95.9095 43.9847 96.0221 43.9321C96.1346 43.8795 96.2338 43.802 96.312 43.7054C98.722 40.7654 97.382 37.8654 94.532 35.9254C82.572 27.7654 63.892 40.3354 61.642 53.0354C59.802 63.3854 67.522 74.1154 77.462 76.2754C94.122 79.9054 111.852 64.6354 117.822 50.5054C124.262 35.2754 119.322 25.1854 108.112 14.7054C107.452 14.0854 106.162 13.8654 107.192 12.6154Z" fill="#18225A"/>
<path d="M24.9021 15.3252C25.4154 15.7185 25.4788 16.1185 25.0921 16.5251C6.77211 35.6451 3.19211 59.8252 7.66211 85.3452C12.8921 115.285 39.8221 121.005 64.9021 125.335C78.2821 127.655 90.6154 128.049 101.902 126.515C84.9021 135.889 66.8154 137.912 47.6421 132.585C30.8821 127.935 18.3421 116.085 10.1921 101.115C-5.31792 72.6252 -1.7079 36.0052 24.9021 15.3252Z" fill="#18225A"/>
<path d="M138.922 50.685C139.862 52.865 140.425 55.1283 140.612 57.4749C135.978 67.8149 129.058 76.2683 119.852 82.8349C100.222 96.8249 72.4018 96.335 55.4218 78.295C44.7618 66.965 44.4417 51.665 52.0817 38.645C60.5417 24.215 78.6617 12.375 95.7017 20.825C121.542 33.635 102.922 70.985 79.3217 64.355C68.5917 61.345 70.4317 48.905 79.6517 46.195C79.9668 46.1047 80.3017 46.1332 80.5917 46.2749C86.4817 49.2149 79.1718 52.7249 77.1118 54.8449C75.4918 56.4983 75.6451 57.7916 77.5717 58.7249C81.5317 60.6549 85.0317 59.875 89.2817 58.325C100.802 54.125 109.342 37.305 96.6217 28.675C88.2284 22.9883 79.7151 22.8349 71.0817 28.2149C45.0517 44.4449 47.7018 79.585 79.4918 86.245C105.702 91.725 128.382 73.645 138.922 50.685Z" fill="#767ABB"/>
<path d="M129.941 35.1152C132.128 37.0952 133.631 39.4119 134.451 42.0652C133.745 44.0719 133.168 46.1186 132.721 48.2053C130.131 60.3253 117.761 72.2453 107.521 78.3253C105.531 79.5053 90.5414 86.3553 91.4114 80.6453C91.6314 79.2386 92.4281 78.3552 93.8014 77.9952C112.481 73.0352 128.871 54.7152 129.941 35.1152Z" fill="#767ABB"/>
</svg>
