<svg width="59" height="74" viewBox="0 0 59 74" fill="none" xmlns="http://www.w3.org/2000/svg">
<path d="M7.28635 47.4416C9.75968 49.235 12.2997 50.945 14.9064 52.5716C15.1959 52.7495 15.4232 53.0131 15.5575 53.3263C15.6917 53.6395 15.7262 53.9871 15.6564 54.3216C14.5564 59.5516 12.0963 69.9917 18.8563 72.3517C26.8763 75.1417 34.8063 60.9117 38.4063 55.6517C38.4949 55.5221 38.6097 55.4119 38.7438 55.3276C38.8779 55.2434 39.0285 55.1869 39.1863 55.1617C43.073 54.5017 46.7897 53.3283 50.3363 51.6416C55.7563 49.0616 59.6263 42.3816 55.6363 36.8116C53.1897 33.405 50.213 30.5417 46.7064 28.2217C46.4245 28.0384 46.211 27.7667 46.0989 27.4486C45.9868 27.1305 45.9824 26.7836 46.0863 26.4617C47.8463 20.9517 50.3863 10.6317 47.4463 5.34166C42.7863 -3.02834 35.4063 2.31166 31.6463 7.91166C28.673 12.3317 26.3664 17.1116 24.7264 22.2516C24.6363 22.537 24.4512 22.7829 24.202 22.9484C23.9527 23.114 23.6543 23.1893 23.3563 23.1617C16.5363 22.4817 10.4564 24.0183 5.11635 27.7717C-2.21365 32.9417 1.33635 43.1116 7.28635 47.4416Z" stroke="#8A8C90" stroke-width="2"/>
<path d="M7.28635 47.4416C1.33635 43.1116 -2.21365 32.9417 5.11635 27.7717C10.4564 24.0183 16.5363 22.4817 23.3563 23.1617C23.6543 23.1893 23.9527 23.114 24.202 22.9484C24.4512 22.7829 24.6363 22.537 24.7264 22.2516C26.3664 17.1116 28.673 12.3317 31.6463 7.91166C35.4063 2.31166 42.7863 -3.02834 47.4463 5.34166C50.3863 10.6317 47.8463 20.9517 46.0863 26.4617C45.9824 26.7836 45.9868 27.1305 46.0989 27.4486C46.211 27.7667 46.4245 28.0384 46.7064 28.2217C50.213 30.5417 53.1897 33.405 55.6363 36.8116C59.6263 42.3816 55.7563 49.0616 50.3363 51.6416C46.7897 53.3283 43.073 54.5017 39.1863 55.1617C39.0285 55.1869 38.8779 55.2434 38.7438 55.3276C38.6097 55.4119 38.4949 55.5221 38.4063 55.6517C34.8064 60.9117 26.8763 75.1417 18.8563 72.3517C12.0963 69.9917 14.5564 59.5516 15.6564 54.3216C15.7262 53.9871 15.6917 53.6395 15.5575 53.3263C15.4232 53.0131 15.1959 52.7495 14.9064 52.5716C12.2997 50.945 9.75968 49.235 7.28635 47.4416Z" fill="#151E30"/>
</svg>
