<svg width="124" height="136" viewBox="0 0 124 136" fill="none" xmlns="http://www.w3.org/2000/svg">
<path d="M3.04159 49.1736C5.27159 50.3136 7.26159 50.0536 8.79159 47.8536C14.8416 39.2236 23.0916 29.2436 31.4416 23.7236C41.5616 17.0336 56.3716 11.1936 69.0316 11.2936C81.0816 11.3936 92.4216 16.8036 103.622 21.7536C104.902 22.3203 106.098 22.177 107.212 21.3236C109.662 19.4436 107.472 16.0136 105.572 14.2636C90.0716 0.023632 66.4316 -1.01638 47.6216 5.78362C30.6416 11.9136 6.6316 27.9336 1.9616 46.8036C1.85048 47.2625 1.89651 47.7455 2.09231 48.1751C2.28811 48.6048 2.62235 48.9564 3.04159 49.1736Z" stroke="#A3C0C4" stroke-width="2"/>
<path d="M23.9633 53.6235C28.4233 54.4935 33.7033 44.9335 36.7033 42.3135C55.4033 25.9435 88.2533 29.5735 103.363 49.1135C112.473 60.9035 114.213 74.1535 114.603 88.7535C114.663 90.8935 115.637 92.3202 117.523 93.0335C118.97 93.5802 120.127 93.2135 120.993 91.9335C122.067 90.3535 122.623 88.5601 122.663 86.5535C123.063 66.6535 118.373 49.7535 103.413 36.1435C99.5466 32.6368 95.1266 29.9268 90.1533 28.0135C67.0633 19.1235 40.2933 24.7235 24.2133 44.0135C22.7399 45.7802 21.8366 47.7935 21.5033 50.0535C21.2099 52.0535 22.0299 53.2435 23.9633 53.6235Z" stroke="#A3C0C4" stroke-width="2"/>
<path d="M51.1028 58.0136C52.2628 59.1869 53.5695 59.3802 55.0228 58.5935C59.7428 56.0335 64.7495 55.2136 70.0428 56.1336C83.4095 58.4669 91.9328 66.1236 95.6128 79.1036C97.0728 84.2569 97.6828 88.4702 97.4428 91.7435C96.8928 99.3535 94.4628 111.504 101.203 112.324C101.519 112.355 101.836 112.266 102.093 112.074C103.799 110.754 104.883 109.03 105.343 106.904C108.593 91.7635 106.813 73.5935 97.3828 61.3135C89.9928 51.6735 78.1328 46.4435 65.8928 47.4235C62.3828 47.6935 50.9128 49.1336 50.0128 53.5136C49.6261 55.3936 49.9895 56.8936 51.1028 58.0136Z" stroke="#A6C3C7" stroke-width="2"/>
<path d="M61.8331 73.3533C68.4631 78.4933 74.9231 82.7133 77.0431 90.3933C78.5298 95.7599 79.0465 101.84 78.5931 108.633C77.9598 118.093 77.4298 123.653 77.0031 125.313C76.2965 128.08 76.7265 130.673 78.2931 133.093C79.1065 134.353 80.1365 134.563 81.3831 133.723C86.5531 130.223 87.3131 108.543 87.6231 102.303C88.6131 82.6733 81.4431 73.4833 63.5831 67.3933C62.1165 66.8933 60.8998 67.43 59.9331 69.0033C58.3631 71.5733 60.2031 72.0933 61.8331 73.3533Z" stroke="#A3C0C4" stroke-width="2"/>
<path d="M3.03769 49.1741C2.61844 48.9569 2.2842 48.6053 2.08841 48.1756C1.89261 47.7459 1.84658 47.263 1.9577 46.8041C6.6277 27.9341 30.6377 11.9141 47.6177 5.78411C66.4277 -1.01589 90.0677 0.0241203 105.568 14.2641C107.468 16.0141 109.658 19.4441 107.208 21.3241C106.094 22.1775 104.898 22.3208 103.618 21.7541C92.4177 16.8041 81.0777 11.3941 69.0277 11.2941C56.3677 11.1941 41.5577 17.0341 31.4377 23.7241C23.0877 29.2441 14.8377 39.2241 8.78769 47.8541C7.25769 50.0541 5.26769 50.3141 3.03769 49.1741Z" fill="#48828C"/>
<path d="M23.9594 53.624C22.026 53.244 21.206 52.054 21.4994 50.054C21.8327 47.794 22.736 45.7806 24.2094 44.014C40.2894 24.724 67.0594 19.124 90.1494 28.014C95.1227 29.9273 99.5427 32.6373 103.409 36.144C118.369 49.754 123.059 66.654 122.659 86.554C122.619 88.5606 122.063 90.354 120.989 91.934C120.123 93.214 118.966 93.5806 117.519 93.034C115.633 92.3206 114.659 90.894 114.599 88.754C114.209 74.154 112.469 60.904 103.359 49.114C88.2494 29.574 55.3994 25.944 36.6994 42.314C33.6994 44.934 28.4194 54.494 23.9594 53.624Z" fill="#48828C"/>
<path d="M51.0989 58.014C49.9855 56.894 49.6222 55.394 50.0089 53.514C50.9089 49.134 62.3789 47.694 65.8889 47.424C78.1289 46.444 89.9889 51.674 97.3789 61.314C106.809 73.594 108.589 91.764 105.339 106.904C104.879 109.031 103.796 110.754 102.089 112.074C101.832 112.267 101.515 112.356 101.199 112.324C94.4589 111.504 96.8889 99.354 97.4389 91.744C97.6789 88.4707 97.0689 84.2574 95.6089 79.104C91.9289 66.124 83.4056 58.4674 70.0389 56.134C64.7456 55.214 59.7389 56.034 55.0189 58.594C53.5656 59.3807 52.2589 59.1874 51.0989 58.014Z" fill="#4E8791"/>
<path d="M61.8292 73.3538C60.1992 72.0938 58.3592 71.5738 59.9292 69.0038C60.8959 67.4304 62.1126 66.8938 63.5792 67.3938C81.4392 73.4838 88.6092 82.6738 87.6192 102.304C87.3092 108.544 86.5492 130.224 81.3792 133.724C80.1326 134.564 79.1026 134.354 78.2892 133.094C76.7226 130.674 76.2926 128.08 76.9992 125.314C77.4259 123.654 77.9559 118.094 78.5892 108.634C79.0426 101.84 78.5259 95.7604 77.0392 90.3938C74.9192 82.7138 68.4592 78.4938 61.8292 73.3538Z" fill="#48828C"/>
</svg>
