<svg width="154" height="160" viewBox="0 0 154 160" fill="none" xmlns="http://www.w3.org/2000/svg">
<path d="M41.624 104.583C41.494 105.713 41.454 107.053 41.034 108.123C38.394 114.823 37.144 121.787 37.284 129.013C37.324 131.613 38.154 133.493 38.364 135.953C38.654 139.263 39.444 141.554 41.034 144.354C41.0914 144.454 41.1692 144.541 41.2622 144.61C41.3553 144.679 41.4615 144.727 41.5739 144.751C41.6863 144.776 41.8024 144.776 41.9144 144.753C42.0265 144.729 42.132 144.681 42.224 144.613C43.1307 143.96 43.7774 143.033 44.164 141.833" stroke="#88868E" stroke-width="2"/>
<path d="M44.1641 141.833L47.834 135.833" stroke="#9798A0" stroke-width="2"/>
<path d="M47.8359 135.834L58.296 118.554" stroke="#88868E" stroke-width="2"/>
<path d="M58.2969 118.554C60.3635 117.14 62.1469 117.31 63.6469 119.064" stroke="#BAD9D4" stroke-width="2"/>
<path d="M63.6445 119.063C64.0745 125.043 67.2745 145.393 73.2145 147.743C73.3659 147.804 73.5279 147.833 73.6909 147.83C73.8539 147.826 74.0144 147.789 74.1629 147.722C74.3114 147.655 74.4448 147.558 74.5551 147.438C74.6653 147.318 74.7502 147.177 74.8045 147.023L82.1646 126.583" stroke="#88868E" stroke-width="2"/>
<path d="M82.1641 126.583C83.1041 127.063 83.7574 127.827 84.1241 128.873" stroke="#AAB4B8" stroke-width="2"/>
<path d="M84.125 128.874C88.305 138.054 94.7883 145.25 103.575 150.464" stroke="#98A1A7" stroke-width="2"/>
<path d="M103.574 150.464C106.734 153.551 110.544 155.831 115.004 157.304" stroke="#AAB4B8" stroke-width="2"/>
<path d="M115.006 157.303C115.433 158.117 116.099 158.427 117.006 158.233C117.069 158.221 117.129 158.194 117.181 158.155C117.233 158.117 117.276 158.067 117.308 158.01C117.34 157.952 117.36 157.888 117.367 157.822C117.373 157.755 117.366 157.688 117.346 157.623C116.879 156.077 116.293 154.58 115.586 153.133C114.026 149.953 113.816 146.593 112.356 143.333C111.749 141.973 110.739 137.46 109.326 129.794C109.299 129.647 109.153 129.363 108.886 128.943L108.336 128.083" stroke="#9FA3AA" stroke-width="2"/>
<path d="M108.336 128.083L108.666 127.583" stroke="#AAB4B8" stroke-width="2"/>
<path d="M108.665 127.584L128.125 135.534C130.405 136.467 131.402 135.73 131.115 133.324C129.722 121.75 126.262 110.827 120.735 100.554C120.595 100.294 120.668 100.2 120.955 100.274C126.315 101.614 149.735 105.044 152.625 99.3736C152.84 98.9533 152.909 98.4732 152.82 98.0095C152.731 97.5457 152.49 97.1249 152.135 96.8137C147.028 92.287 141.588 88.637 135.815 85.8636C134.235 85.1036 132.975 84.0237 131.715 82.8837C131.671 82.8432 131.637 82.7932 131.615 82.7373C131.593 82.6813 131.584 82.6209 131.589 82.5604C131.594 82.4999 131.612 82.441 131.642 82.3879C131.673 82.3348 131.715 82.2889 131.765 82.2536C139.318 76.887 145.878 70.5203 151.445 63.1536C151.502 63.0799 151.539 62.993 151.554 62.9011C151.569 62.8093 151.56 62.7155 151.529 62.6285C151.498 62.5415 151.446 62.4643 151.377 62.404C151.308 62.3436 151.225 62.3022 151.135 62.2836C144.682 60.957 138.175 60.0103 131.615 59.4436C129.315 59.2436 128.722 58.167 129.835 56.2136C134.855 47.4436 139.435 35.7336 139.885 25.1036C139.891 24.9469 139.855 24.794 139.782 24.6641C139.709 24.5343 139.602 24.4332 139.475 24.3736C138.335 23.8436 136.755 24.1136 135.685 24.9336C128.045 30.7736 119.788 35.6003 110.915 39.4136C110.856 39.4378 110.793 39.4478 110.73 39.4426C110.667 39.4375 110.606 39.4173 110.555 39.3841C110.504 39.351 110.463 39.3059 110.437 39.2532C110.411 39.2006 110.4 39.1422 110.405 39.0836C111.205 28.837 111.338 18.5836 110.805 8.32365C110.798 8.18768 110.759 8.05522 110.691 7.93718C110.624 7.81913 110.529 7.71888 110.416 7.64467C110.303 7.57046 110.174 7.52442 110.04 7.51033C109.906 7.49624 109.77 7.51452 109.645 7.56365C99.685 11.5436 91.865 22.6236 87.615 32.0636C86.5684 34.397 85.5184 34.4003 84.465 32.0736C79.795 21.7836 74.2551 12.3136 69.0351 2.87365C67.6151 0.313648 66.2084 0.376979 64.8151 3.06365C59.6284 13.057 56.0817 23.657 54.175 34.8636C54.0617 35.5036 53.805 35.5636 53.405 35.0436L38.185 15.2936C37.485 14.3803 37.0317 14.457 36.825 15.5236C34.125 29.9136 32.135 43.9436 35.635 58.2036C35.6724 58.3583 35.6567 58.5191 35.5913 58.6517C35.5259 58.7844 35.416 58.8784 35.2851 58.9136L1.57505 68.0536C1.44345 68.0892 1.3241 68.1623 1.23046 68.2648C1.13681 68.3673 1.07259 68.495 1.04505 68.6337C-0.274952 75.3637 27.8151 78.7136 32.6151 79.7136C32.7819 79.7485 32.9366 79.8119 33.0692 79.8997C33.2018 79.9875 33.3094 80.0979 33.385 80.2236C34.0317 81.3036 33.7651 82.177 32.5851 82.8437C23.6451 87.8837 17.545 92.6536 10.025 98.0136C7.74504 99.6336 5.94506 101.414 4.61506 103.604C4.03506 104.564 4.30838 105.05 5.43505 105.064C9.42838 105.11 13.4217 105.03 17.415 104.824C25.445 104.414 33.525 104.944 41.625 104.584" stroke="#88868E" stroke-width="2"/>
<path d="M108.665 127.584C105.755 124.914 104.565 120.464 99.875 118.794" stroke="#343D53" stroke-width="2"/>
<path d="M99.8734 118.794C105.04 115.12 109.667 110.89 113.753 106.104C127.913 89.5136 128.833 62.0036 112.953 46.2536C108.753 42.0936 101.633 37.8836 95.9834 36.4336C86.0434 33.8936 75.8434 34.9036 64.0734 36.5236C54.5634 37.8336 47.8934 43.6536 42.5034 51.1136C38.0034 57.3336 36.1234 64.7236 34.6234 72.2836C33.2934 78.9336 35.7734 86.3436 37.0134 92.9536C37.8434 97.3336 39.6734 100.714 41.6234 104.584" stroke="#44626F" stroke-width="2"/>
<path d="M99.875 118.794C94.055 122.054 87.525 121.664 81.125 122.624" stroke="#669099" stroke-width="2"/>
<path d="M81.1245 122.623L63.6445 119.063" stroke="#44626F" stroke-width="2"/>
<path d="M58.295 118.553C55.815 115.727 52.915 113.37 49.595 111.483C46.365 109.643 44.565 106.813 41.625 104.583" stroke="#44626F" stroke-width="2"/>
<path d="M47.8362 135.833C46.3228 135.42 45.9262 134.687 46.6462 133.633C50.3562 128.173 52.4162 123.673 55.6562 119.003C55.7521 118.864 55.8256 118.711 55.8722 118.553C55.9188 118.396 55.9375 118.237 55.9272 118.087C55.9169 117.937 55.8778 117.799 55.8123 117.682C55.7467 117.564 55.6562 117.47 55.5462 117.403L51.6362 115.073C51.536 115.012 51.3978 115.002 51.2425 115.043C51.0873 115.085 50.9235 115.176 50.7762 115.303C49.8495 116.103 49.4295 116.007 49.5162 115.013C49.5416 114.75 49.5516 114.502 49.5443 114.315C49.5369 114.128 49.5127 114.013 49.4762 113.993L46.1462 111.803C46.0902 111.766 46.0226 111.751 45.9477 111.757C45.8729 111.764 45.7923 111.793 45.7113 111.841C45.6304 111.89 45.5507 111.959 45.4775 112.042C45.4043 112.125 45.3391 112.221 45.2862 112.323C43.6962 115.383 41.9862 117.833 41.4662 121.303C40.6262 126.977 40.4095 132.99 40.8162 139.343C40.8323 139.581 40.8963 139.813 41.0043 140.026C41.1123 140.238 41.2619 140.426 41.4443 140.578C41.6266 140.731 41.8378 140.844 42.065 140.912C42.2923 140.98 42.5308 141.001 42.7662 140.973C43.0129 140.947 43.4795 141.233 44.1662 141.833" stroke="#21213B" stroke-width="2"/>
<path d="M108.334 128.084C108.021 127.864 107.731 127.83 107.464 127.984C107.356 128.05 107.281 128.169 107.254 128.317C107.226 128.466 107.248 128.635 107.314 128.794C108.994 132.784 108.964 136.804 110.404 140.764C111.437 143.617 112.101 146.56 112.394 149.594C112.541 151.107 112.854 152.427 113.334 153.554C113.874 154.82 114.431 156.07 115.004 157.304" stroke="#4B596E" stroke-width="2"/>
<path d="M103.575 150.464C101.008 147.81 98.3483 145.264 95.595 142.824C90.755 138.534 88.315 134.514 85.575 129.064C85.4978 128.907 85.388 128.776 85.2596 128.687C85.1313 128.598 84.9903 128.555 84.855 128.564C84.575 128.584 84.3317 128.687 84.125 128.874" stroke="#44586B" stroke-width="2"/>
<path d="M81.125 122.624C82.405 123.637 82.7517 124.957 82.165 126.584" stroke="#343D53" stroke-width="2"/>
<path d="M127.664 57.5335C127.944 55.4735 124.844 58.3335 127.064 58.1035C127.216 58.0857 127.357 58.02 127.466 57.9168C127.575 57.8136 127.644 57.6788 127.664 57.5335Z" stroke="#343851" stroke-width="2"/>
<path d="M106.415 75.5836C103.375 61.9136 91.095 50.6736 76.375 53.3736" stroke="#BA938F" stroke-width="2"/>
<path d="M76.3767 53.3737C74.35 52.6471 72.3334 52.7037 70.3267 53.5437C60.96 57.4837 55.0467 64.4104 52.5867 74.3237C49.0067 88.7037 61.5167 100.114 73.9167 105.274C80.2367 107.894 86.9567 107.384 93.0067 103.894C101.853 98.7871 106.787 90.7771 107.807 79.8637C107.92 78.6504 107.457 77.2237 106.417 75.5837" stroke="#9CB8B7" stroke-width="2"/>
<path d="M76.3757 53.3735C63.2957 56.1535 53.6957 66.5735 53.9057 79.9435C54.1557 95.5935 70.4357 105.694 84.7757 105.314C93.0257 105.104 100.536 96.9035 104.116 90.0935C106.516 85.5402 107.282 80.7035 106.416 75.5835" stroke="#E19691" stroke-width="2"/>
<path d="M108.665 127.584C105.755 124.914 104.565 120.464 99.8751 118.794C105.042 115.121 109.668 110.891 113.755 106.104C127.915 89.5141 128.835 62.0041 112.955 46.2541C108.755 42.0941 101.635 37.8841 95.985 36.4341C86.045 33.8941 75.8451 34.9041 64.0751 36.5241C54.5651 37.8341 47.8951 43.6541 42.5051 51.1141C38.0051 57.3341 36.125 64.7241 34.625 72.2841C33.295 78.9341 35.775 86.3441 37.015 92.9541C37.8451 97.3341 39.675 100.714 41.625 104.584C33.525 104.944 25.445 104.414 17.415 104.824C13.4217 105.031 9.42838 105.111 5.43505 105.064C4.30838 105.051 4.03506 104.564 4.61506 103.604C5.94506 101.414 7.74504 99.6341 10.025 98.0141C17.545 92.6541 23.6451 87.8841 32.5851 82.8441C33.7651 82.1775 34.0317 81.3041 33.385 80.2241C33.3094 80.0984 33.2018 79.988 33.0692 79.9002C32.9366 79.8124 32.7819 79.749 32.6151 79.7141C27.8151 78.7141 -0.274952 75.3641 1.04505 68.6341C1.07259 68.4955 1.13681 68.3678 1.23046 68.2653C1.3241 68.1628 1.44345 68.0897 1.57505 68.0541L35.2851 58.9141C35.416 58.8789 35.5259 58.7849 35.5913 58.6522C35.6567 58.5196 35.6724 58.3588 35.635 58.2041C32.135 43.9441 34.125 29.9141 36.825 15.5241C37.0317 14.4575 37.485 14.3808 38.185 15.2941L53.405 35.0441C53.805 35.5641 54.0617 35.5041 54.175 34.8641C56.0817 23.6575 59.6284 13.0575 64.8151 3.06413C66.2084 0.377468 67.6151 0.314136 69.0351 2.87414C74.2551 12.3141 79.7951 21.7841 84.465 32.0741C85.5184 34.4008 86.5684 34.3975 87.615 32.0641C91.865 22.6241 99.685 11.5441 109.645 7.56413C109.77 7.51501 109.906 7.49673 110.04 7.51082C110.174 7.5249 110.303 7.57095 110.416 7.64516C110.529 7.71937 110.624 7.81962 110.691 7.93766C110.759 8.05571 110.798 8.18817 110.805 8.32413C111.338 18.5841 111.205 28.8375 110.405 39.0841C110.4 39.1427 110.411 39.2011 110.437 39.2537C110.463 39.3064 110.504 39.3515 110.555 39.3846C110.606 39.4178 110.667 39.4379 110.73 39.4431C110.793 39.4483 110.856 39.4383 110.915 39.4141C119.788 35.6008 128.045 30.7741 135.685 24.9341C136.755 24.1141 138.335 23.8441 139.475 24.3741C139.602 24.4337 139.709 24.5347 139.782 24.6646C139.855 24.7945 139.891 24.9474 139.885 25.1041C139.435 35.7341 134.855 47.4441 129.835 56.2141C128.722 58.1675 129.315 59.2441 131.615 59.4441C138.175 60.0108 144.682 60.9575 151.135 62.2841C151.225 62.3027 151.308 62.3441 151.377 62.4045C151.446 62.4648 151.498 62.542 151.529 62.629C151.56 62.7159 151.569 62.8097 151.554 62.9016C151.539 62.9935 151.502 63.0803 151.445 63.1541C145.878 70.5208 139.318 76.8875 131.765 82.2541C131.715 82.2894 131.673 82.3353 131.642 82.3884C131.612 82.4415 131.594 82.5004 131.589 82.5609C131.584 82.6214 131.593 82.6818 131.615 82.7377C131.637 82.7937 131.671 82.8437 131.715 82.8841C132.975 84.0241 134.235 85.1041 135.815 85.8641C141.588 88.6375 147.028 92.2875 152.135 96.8141C152.49 97.1254 152.731 97.5462 152.82 98.0099C152.909 98.4737 152.84 98.9538 152.625 99.3741C149.735 105.044 126.315 101.614 120.955 100.274C120.668 100.201 120.595 100.294 120.735 100.554C126.262 110.827 129.722 121.751 131.115 133.324C131.402 135.731 130.405 136.467 128.125 135.534L108.665 127.584ZM127.665 57.5341C127.945 55.4741 124.845 58.3341 127.065 58.1041C127.217 58.0863 127.359 58.0207 127.467 57.9175C127.576 57.8143 127.645 57.6794 127.665 57.5341Z" fill="#120F29"/>
<path d="M99.8734 118.794C94.0534 122.054 87.5234 121.664 81.1234 122.624L63.6434 119.064C62.1434 117.311 60.3601 117.141 58.2934 118.554C55.8134 115.727 52.9134 113.371 49.5934 111.484C46.3634 109.644 44.5634 106.814 41.6234 104.584C39.6734 100.714 37.8434 97.3341 37.0134 92.9541C35.7734 86.3441 33.2934 78.9341 34.6234 72.284C36.1234 64.7241 38.0034 57.3341 42.5034 51.1141C47.8934 43.6541 54.5634 37.8341 64.0734 36.5241C75.8434 34.9041 86.0434 33.8941 95.9834 36.4341C101.633 37.8841 108.753 42.0941 112.953 46.2541C128.833 62.0041 127.913 89.514 113.753 106.104C109.667 110.891 105.04 115.121 99.8734 118.794ZM106.413 75.5841C103.373 61.9141 91.0934 50.6741 76.3734 53.3741C74.3467 52.6474 72.3301 52.7041 70.3234 53.5441C60.9568 57.4841 55.0434 64.4107 52.5834 74.3241C49.0034 88.7041 61.5134 100.114 73.9134 105.274C80.2334 107.894 86.9534 107.384 93.0034 103.894C101.85 98.7874 106.783 90.7774 107.803 79.8641C107.917 78.6507 107.453 77.2241 106.413 75.5841Z" fill="#75B5B5"/>
<path d="M76.3767 53.3737C63.2967 56.1537 53.6967 66.5737 53.9067 79.9437C54.1567 95.5937 70.4367 105.694 84.7767 105.314C93.0267 105.104 100.537 96.9037 104.117 90.0937C106.517 85.5404 107.283 80.7037 106.417 75.5837C107.457 77.2237 107.92 78.6504 107.807 79.8637C106.787 90.7771 101.853 98.7871 93.0067 103.894C86.9567 107.384 80.2367 107.894 73.9167 105.274C61.5167 100.114 49.0067 88.7037 52.5867 74.3237C55.0467 64.4104 60.96 57.4837 70.3267 53.5437C72.3334 52.7037 74.35 52.6471 76.3767 53.3737Z" fill="#C2BBB9"/>
<path d="M106.416 75.5841C107.282 80.7041 106.516 85.5407 104.116 90.0941C100.536 96.9041 93.0257 105.104 84.7757 105.314C70.4357 105.694 54.1557 95.5941 53.9057 79.9441C53.6957 66.5741 63.2957 56.1541 76.3757 53.3741C91.0957 50.6741 103.376 61.9141 106.416 75.5841Z" fill="#FF7069"/>
<path d="M127.064 58.104C124.844 58.334 127.944 55.474 127.664 57.534C127.644 57.6793 127.575 57.8141 127.466 57.9173C127.357 58.0205 127.216 58.0862 127.064 58.104Z" fill="#566178"/>
<path d="M41.624 104.584C44.564 106.814 46.364 109.644 49.594 111.484C52.914 113.371 55.814 115.727 58.294 118.554L47.834 135.834C46.3207 135.421 45.924 134.687 46.644 133.634C50.354 128.174 52.414 123.674 55.654 119.004C55.7499 118.865 55.8234 118.711 55.87 118.554C55.9166 118.396 55.9354 118.238 55.9251 118.088C55.9148 117.938 55.8756 117.8 55.8101 117.682C55.7446 117.565 55.654 117.47 55.544 117.404L51.634 115.074C51.5338 115.013 51.3956 115.002 51.2404 115.044C51.0851 115.085 50.9214 115.177 50.774 115.304C49.8473 116.104 49.4274 116.007 49.514 115.014C49.5395 114.751 49.5494 114.503 49.5421 114.315C49.5347 114.128 49.5106 114.014 49.474 113.994L46.144 111.804C46.088 111.767 46.0205 111.751 45.9456 111.758C45.8707 111.764 45.7902 111.793 45.7092 111.842C45.6282 111.891 45.5486 111.959 45.4753 112.042C45.4021 112.125 45.3369 112.221 45.284 112.324C43.694 115.384 41.984 117.834 41.464 121.304C40.624 126.977 40.4073 132.991 40.814 139.344C40.8302 139.582 40.8942 139.814 41.0021 140.026C41.1101 140.238 41.2598 140.426 41.4421 140.579C41.6245 140.731 41.8357 140.845 42.0629 140.913C42.2901 140.981 42.5287 141.002 42.764 140.974C43.0107 140.947 43.4774 141.234 44.164 141.834C43.7774 143.034 43.1307 143.961 42.224 144.614C42.132 144.682 42.0265 144.729 41.9144 144.753C41.8024 144.777 41.6863 144.776 41.5739 144.752C41.4615 144.727 41.3553 144.679 41.2622 144.611C41.1692 144.542 41.0914 144.455 41.034 144.354C39.444 141.554 38.654 139.264 38.364 135.954C38.154 133.494 37.324 131.614 37.284 129.014C37.144 121.787 38.394 114.824 41.034 108.124C41.454 107.054 41.494 105.714 41.624 104.584Z" fill="#120F29"/>
<path d="M47.8362 135.834L44.1662 141.834C43.4795 141.234 43.0129 140.947 42.7662 140.974C42.5308 141.002 42.2923 140.981 42.065 140.913C41.8378 140.845 41.6266 140.731 41.4443 140.579C41.2619 140.426 41.1123 140.238 41.0043 140.026C40.8963 139.814 40.8323 139.582 40.8162 139.344C40.4095 132.991 40.6262 126.977 41.4662 121.304C41.9862 117.834 43.6962 115.384 45.2862 112.324C45.3391 112.221 45.4043 112.125 45.4775 112.042C45.5507 111.959 45.6304 111.891 45.7113 111.842C45.7923 111.793 45.8729 111.764 45.9477 111.758C46.0226 111.751 46.0902 111.767 46.1462 111.804L49.4762 113.994C49.5127 114.014 49.5369 114.128 49.5443 114.315C49.5516 114.503 49.5416 114.751 49.5162 115.014C49.4295 116.007 49.8495 116.104 50.7762 115.304C50.9235 115.177 51.0873 115.085 51.2425 115.044C51.3978 115.002 51.536 115.013 51.6362 115.074L55.5462 117.404C55.6562 117.47 55.7467 117.565 55.8123 117.682C55.8778 117.8 55.9169 117.938 55.9272 118.088C55.9375 118.238 55.9188 118.396 55.8722 118.554C55.8256 118.711 55.7521 118.865 55.6562 119.004C52.4162 123.674 50.3562 128.174 46.6462 133.634C45.9262 134.687 46.3228 135.421 47.8362 135.834Z" fill="#2F324D"/>
<path d="M81.1245 122.624C82.4045 123.637 82.7512 124.957 82.1646 126.584L74.8045 147.024C74.7502 147.178 74.6653 147.319 74.5551 147.439C74.4448 147.559 74.3114 147.655 74.1629 147.723C74.0144 147.79 73.8539 147.827 73.6909 147.83C73.5279 147.834 73.3659 147.804 73.2145 147.744C67.2745 145.394 64.0745 125.044 63.6445 119.064L81.1245 122.624Z" fill="#120F29"/>
<path d="M99.875 118.794C104.565 120.464 105.755 124.914 108.665 127.584L108.335 128.084C108.022 127.864 107.732 127.831 107.465 127.984C107.357 128.051 107.282 128.169 107.255 128.318C107.227 128.466 107.249 128.635 107.315 128.794C108.995 132.784 108.965 136.804 110.405 140.764C111.438 143.617 112.102 146.561 112.395 149.594C112.542 151.107 112.855 152.427 113.335 153.554C113.875 154.821 114.432 156.071 115.005 157.304C110.545 155.831 106.735 153.551 103.575 150.464C101.008 147.811 98.3483 145.264 95.595 142.824C90.755 138.534 88.315 134.514 85.575 129.064C85.4978 128.907 85.388 128.776 85.2596 128.687C85.1313 128.598 84.9903 128.555 84.855 128.564C84.575 128.584 84.3317 128.687 84.125 128.874C83.7583 127.827 83.105 127.064 82.165 126.584C82.7517 124.957 82.405 123.637 81.125 122.624C87.525 121.664 94.055 122.054 99.875 118.794Z" fill="#566A7C"/>
<path d="M108.334 128.084L108.884 128.944C109.151 129.364 109.297 129.647 109.324 129.794C110.737 137.461 111.747 141.974 112.354 143.334C113.814 146.594 114.024 149.954 115.584 153.134C116.291 154.581 116.877 156.077 117.344 157.624C117.364 157.688 117.371 157.756 117.365 157.822C117.358 157.889 117.338 157.953 117.306 158.01C117.274 158.068 117.231 158.118 117.179 158.156C117.127 158.195 117.067 158.221 117.004 158.234C116.097 158.427 115.431 158.117 115.004 157.304C114.431 156.071 113.874 154.821 113.334 153.554C112.854 152.427 112.541 151.107 112.394 149.594C112.101 146.561 111.437 143.617 110.404 140.764C108.964 136.804 108.994 132.784 107.314 128.794C107.248 128.635 107.226 128.467 107.254 128.318C107.281 128.169 107.356 128.051 107.464 127.984C107.731 127.831 108.021 127.864 108.334 128.084Z" fill="#404860"/>
<path d="M103.575 150.464C94.7883 145.251 88.305 138.054 84.125 128.874C84.3317 128.687 84.575 128.584 84.855 128.564C84.9903 128.555 85.1313 128.598 85.2596 128.687C85.388 128.776 85.4978 128.908 85.575 129.064C88.315 134.514 90.755 138.534 95.595 142.824C98.3483 145.264 101.008 147.811 103.575 150.464Z" fill="#31455A"/>
</svg>
