<svg width="185" height="244" viewBox="0 0 185 244" fill="none" xmlns="http://www.w3.org/2000/svg">
<path d="M149.692 141.688C150.366 140.948 150.766 140.105 150.892 139.158C150.91 139.002 150.965 138.855 151.051 138.731C151.136 138.607 151.251 138.509 151.382 138.448C161.952 133.568 169.202 128.468 175.802 118.958C180.802 111.748 183.222 101.458 180.522 92.7081C178.932 87.5881 172.562 82.2581 167.832 79.9981C154.382 73.5981 139.682 71.9281 125.602 67.9081C113.732 64.5181 106.552 61.7681 98.0923 55.2281C92.5789 50.9681 89.2424 48.3148 88.0824 47.2681C77.0724 37.3181 68.5224 21.7181 56.2024 10.2981C47.1324 1.88811 34.1223 -0.681866 22.6223 3.82813C22.524 3.86587 22.3899 3.88442 22.2283 3.8827C22.0667 3.88098 21.8809 3.85902 21.6824 3.81812L20.9023 3.64814C44.8523 -7.95186 60.1023 10.3381 73.2823 27.3281C83.2523 40.1781 95.4723 53.8281 110.352 60.9581C114.126 62.7715 120.279 64.7248 128.812 66.8181C144.719 70.7115 155.312 73.4281 160.592 74.9681C173.672 78.7781 184.912 87.7481 184.292 102.848C183.462 122.918 167.622 135.548 149.692 141.688Z" fill="#4E519A"/>
<path d="M149.694 141.687C140.294 145.387 131.624 149.037 133.184 159.687C134.937 171.661 135.42 183.324 134.634 194.677C133.254 214.657 109.264 217.847 106.564 197.497C105.624 190.487 105.904 182.777 104.804 174.987C103.934 168.867 99.4439 168.697 94.4339 170.387C85.1672 173.514 75.9239 176.721 66.7039 180.007C60.4439 182.241 57.4338 186.627 57.6738 193.167C58.0672 203.694 58.0672 214.204 57.6738 224.697C57.5205 228.924 56.9072 232.144 55.8339 234.357C52.7939 240.617 44.8438 245.547 37.8538 243.007C31.6938 240.777 27.1538 233.137 25.8838 226.937C24.6038 220.657 23.3471 212.074 22.1138 201.187C21.2271 193.341 19.2539 180.924 16.1939 163.937C17.0439 163.807 17.4838 163.367 17.2838 162.447C14.5905 150.341 12.6104 138.124 11.3438 125.797C11.2638 125.024 11.0105 123.341 10.5839 120.747C8.24388 106.277 7.42379 91.8573 4.49379 77.4173C4.46223 77.2577 4.38824 77.1133 4.28334 77.0066C4.17845 76.8999 4.04857 76.8369 3.91384 76.8274C3.3205 76.7874 3.05379 77.1574 3.11379 77.9374C-1.03621 55.4274 -5.33617 15.3774 20.9038 3.64739L21.6839 3.81737C21.8824 3.85827 22.0681 3.88023 22.2298 3.88194C22.3914 3.88366 22.5254 3.86512 22.6238 3.82738C34.1238 -0.682621 47.1339 1.88735 56.2039 10.2973C68.5239 21.7174 77.0739 37.3174 88.0839 47.2674C89.2439 48.314 92.5804 50.9673 98.0938 55.2273C106.554 61.7673 113.734 64.5173 125.604 67.9073C139.684 71.9273 154.384 73.5974 167.834 79.9974C172.564 82.2574 178.934 87.5874 180.524 92.7074C183.224 101.457 180.804 111.747 175.804 118.957C169.204 128.467 161.954 133.567 151.384 138.447C151.252 138.508 151.138 138.606 151.052 138.73C150.966 138.854 150.912 139.002 150.894 139.157C150.767 140.104 150.367 140.947 149.694 141.687ZM27.2139 78.3473C35.7439 99.7273 55.7939 96.8673 73.1739 88.9073C79.0339 86.2173 82.8438 80.1274 79.4838 73.9974C76.7971 69.104 74.7938 65.8107 73.4738 64.1174C65.5404 53.9107 57.8038 43.5574 50.2638 33.0574C48.0238 29.944 45.3339 27.314 42.1939 25.1673C41.0405 24.3807 40.0071 24.5174 39.0938 25.5774C33.5638 32.0174 30.2239 46.7174 28.4639 54.9974C26.5939 63.7774 23.5339 69.1373 27.2139 78.3473ZM115.404 132.647C120.834 133.127 132.144 126.657 137.114 123.937L138.004 124.697C138.11 124.789 138.248 124.844 138.401 124.855C138.554 124.865 138.715 124.832 138.864 124.757C150.034 119.187 162.364 115.547 163.194 103.687C163.203 103.536 163.174 103.384 163.109 103.245C163.045 103.105 162.947 102.983 162.824 102.887C153.714 95.8174 142.024 94.2774 133.164 91.4374C131.417 90.8774 126.537 90.0173 118.524 88.8573C114.514 88.2773 103.574 84.5173 105.034 93.2973C105.314 94.9574 104.624 96.1074 105.134 97.8974C106.404 102.457 105.614 106.867 106.544 111.077C107.264 114.377 108.027 117.667 108.834 120.947C109.814 124.917 109.414 128.927 112.894 132.727C113.003 132.846 113.139 132.934 113.287 132.984C113.434 133.033 113.588 133.041 113.734 133.007L115.404 132.647ZM42.0739 150.997C43.8872 151.524 45.7338 151.587 47.6138 151.187C62.0071 148.161 75.8438 144.014 89.1238 138.747C90.3905 138.247 90.9905 137.317 90.9239 135.957C90.5138 126.967 89.8739 117.807 86.5539 109.337C86.3813 108.899 86.0686 108.529 85.6638 108.285C85.2591 108.041 84.7847 107.936 84.3139 107.987C82.9205 108.141 81.3039 108.564 79.4639 109.257C66.2172 114.257 54.1838 121.317 43.3638 130.437C39.6938 133.527 40.2539 144.547 40.4539 148.937C40.4749 149.407 40.6425 149.858 40.933 150.228C41.2236 150.597 41.6225 150.866 42.0739 150.997Z" fill="#5559B1"/>
<path d="M73.1722 88.9087C55.7922 96.8687 35.7423 99.7287 27.2123 78.3487C23.5323 69.1387 26.5923 63.7787 28.4623 54.9987C30.2223 46.7187 33.5621 32.0187 39.0921 25.5787C40.0055 24.5187 41.0389 24.382 42.1922 25.1687C45.3322 27.3153 48.0222 29.9454 50.2622 33.0587C57.8022 43.5587 65.5388 53.912 73.4721 64.1187C74.7921 65.812 76.7955 69.1054 79.4822 73.9987C82.8422 80.1287 79.0322 86.2187 73.1722 88.9087ZM28.5522 73.4787C29.5122 80.9187 35.4422 89.4687 43.4122 91.2187C53.6722 93.4687 70.1222 91.3887 77.3222 82.1387C78.9356 80.072 79.3621 78.1087 78.6021 76.2487C77.5221 73.6087 73.9122 68.2187 67.7722 60.0787C60.3989 50.3054 53.0856 40.4887 45.8323 30.6287C44.9923 29.4887 43.5022 28.2887 42.4122 27.5987C41.2122 26.8253 40.3555 27.1054 39.8421 28.4387C36.2955 37.652 33.2022 46.9187 30.5622 56.2387C28.8922 62.0987 27.8422 68.0487 28.5522 73.4787Z" fill="#565A92"/>
<path d="M43.4133 91.2177C35.4433 89.4677 29.5134 80.9177 28.5534 73.4777C27.8434 68.0477 28.8934 62.0977 30.5634 56.2377C33.2034 46.9177 36.2966 37.651 39.8433 28.4377C40.3566 27.1044 41.2133 26.8244 42.4133 27.5977C43.5033 28.2877 44.9934 29.4877 45.8334 30.6277C53.0867 40.4877 60.4 50.3044 67.7733 60.0777C73.9133 68.2177 77.5233 73.6077 78.6033 76.2477C79.3633 78.1077 78.9367 80.0711 77.3234 82.1377C70.1234 91.3877 53.6733 93.4677 43.4133 91.2177ZM37.8933 84.4477C39.9733 86.4744 41.98 87.711 43.9133 88.1577C52.8533 90.2277 70.2133 88.5177 75.6233 79.1377C76.2366 78.0777 76.1899 77.051 75.4833 76.0577C67.5433 64.8777 59.5133 53.6677 51.3933 42.4277C50.6733 41.4277 49.2233 39.6844 47.0433 37.1977C45.5433 35.4877 45.2133 32.9777 43.3633 31.4977C43.212 31.376 43.0324 31.2945 42.8412 31.2609C42.65 31.2273 42.4534 31.2426 42.2697 31.3055C42.086 31.3684 41.9212 31.4768 41.7907 31.6206C41.6602 31.7643 41.5682 31.9388 41.5233 32.1277C37.7033 47.9177 23.0233 69.9677 37.8933 84.4477Z" fill="#EAE8DD"/>
<path d="M37.8931 84.4483C23.0231 69.9683 37.7031 47.9183 41.5231 32.1283C41.568 31.9394 41.6599 31.765 41.7904 31.6212C41.9209 31.4774 42.0858 31.369 42.2694 31.3061C42.4531 31.2432 42.6497 31.2279 42.841 31.2615C43.0322 31.2951 43.2118 31.3766 43.3631 31.4983C45.2131 32.9783 45.5431 35.4883 47.0431 37.1983C49.2231 39.685 50.6731 41.4283 51.3931 42.4283C59.5131 53.6683 67.5431 64.8783 75.4831 76.0583C76.1897 77.0517 76.2364 78.0783 75.6231 79.1383C70.2131 88.5183 52.8531 90.2283 43.9131 88.1583C41.9798 87.7116 39.9731 86.475 37.8931 84.4483Z" fill="#F0E7BC"/>
<path d="M16.1938 163.938C9.87381 135.598 7.35373 106.648 3.11373 77.9381C3.05373 77.1581 3.32045 76.7881 3.91378 76.8281C4.04852 76.8376 4.17839 76.9006 4.28329 77.0073C4.38818 77.114 4.46218 77.2584 4.49374 77.4181C7.42374 91.8581 8.24383 106.278 10.5838 120.748C11.0105 123.341 11.2637 125.025 11.3437 125.798C12.6104 138.125 14.5904 150.341 17.2838 162.448C17.4838 163.368 17.0438 163.808 16.1938 163.938Z" fill="#4A4B8F"/>
<path d="M137.112 123.937C145.432 119.307 157.652 114.927 161.262 105.417C161.319 105.271 161.338 105.113 161.317 104.959C161.296 104.805 161.236 104.659 161.142 104.537C157.892 100.427 143.712 96.9872 138.462 95.4972C130.052 93.1172 120.122 91.4873 110.922 89.6473C108.115 89.0873 106.778 90.0106 106.912 92.4172C107.405 101.217 108.938 111.531 111.512 123.357C112.392 127.424 113.688 130.521 115.402 132.647L113.732 133.007C113.586 133.041 113.432 133.033 113.284 132.984C113.137 132.934 113.001 132.846 112.892 132.727C109.412 128.927 109.812 124.917 108.832 120.947C108.025 117.667 107.262 114.377 106.542 111.077C105.612 106.867 106.402 102.457 105.132 97.8973C104.622 96.1073 105.312 94.9572 105.032 93.2972C103.572 84.5172 114.512 88.2772 118.522 88.8572C126.535 90.0172 131.415 90.8772 133.162 91.4372C142.022 94.2772 153.712 95.8173 162.822 102.887C162.945 102.983 163.042 103.105 163.107 103.245C163.171 103.384 163.201 103.536 163.192 103.687C162.362 115.547 150.032 119.187 138.862 124.757C138.713 124.831 138.552 124.865 138.399 124.855C138.246 124.844 138.107 124.789 138.002 124.697L137.112 123.937Z" fill="#565A92"/>
<path d="M137.111 123.938C132.141 126.658 120.831 133.128 115.401 132.648C113.688 130.521 112.391 127.424 111.511 123.358C108.938 111.531 107.405 101.218 106.911 92.4178C106.778 90.0111 108.115 89.0878 110.921 89.6478C120.121 91.4878 130.051 93.1178 138.461 95.4978C143.711 96.9878 157.891 100.428 161.141 104.538C161.236 104.66 161.296 104.805 161.317 104.959C161.338 105.114 161.319 105.272 161.261 105.418C157.651 114.928 145.431 119.308 137.111 123.938ZM156.871 104.688C144.461 100.048 132.791 96.0978 118.961 94.2078C116.471 93.8678 114.221 93.0278 111.891 92.2178C110.125 91.6112 109.405 92.2278 109.731 94.0678C111.741 105.368 112.471 117.238 115.701 127.828C116.121 129.188 116.998 129.624 118.331 129.138C130.131 124.838 141.371 118.058 152.451 112.148C154.821 110.888 156.311 108.778 157.561 106.568C157.655 106.403 157.712 106.22 157.728 106.03C157.743 105.841 157.718 105.651 157.652 105.472C157.586 105.293 157.482 105.13 157.348 104.995C157.213 104.86 157.05 104.755 156.871 104.688Z" fill="#EAE8DD"/>
<path d="M156.873 104.688C157.052 104.755 157.214 104.86 157.349 104.995C157.484 105.13 157.588 105.293 157.653 105.472C157.719 105.651 157.745 105.841 157.729 106.03C157.714 106.22 157.657 106.403 157.563 106.568C156.313 108.778 154.823 110.888 152.453 112.148C141.373 118.058 130.133 124.838 118.333 129.138C116.999 129.624 116.123 129.188 115.703 127.828C112.473 117.238 111.743 105.368 109.733 94.0678C109.406 92.2278 110.126 91.6112 111.893 92.2178C114.223 93.0278 116.473 93.8678 118.963 94.2078C132.793 96.0978 144.463 100.048 156.873 104.688Z" fill="#F0E7BC"/>
<path d="M42.0741 150.997C41.6227 150.866 41.2238 150.597 40.9332 150.227C40.6427 149.858 40.4751 149.407 40.4541 148.937C40.2541 144.547 39.694 133.527 43.364 130.437C54.184 121.317 66.2174 114.257 79.4641 109.257C81.3041 108.564 82.9207 108.141 84.3141 107.987C84.7849 107.936 85.2593 108.041 85.664 108.285C86.0688 108.529 86.3815 108.898 86.5541 109.337C89.8741 117.807 90.514 126.967 90.924 135.957C90.9907 137.317 90.3907 138.247 89.124 138.747C75.844 144.014 62.0073 148.161 47.614 151.187C45.734 151.587 43.8874 151.524 42.0741 150.997ZM59.274 122.707C55.354 125.007 43.844 131.927 43.654 136.177C43.4807 139.924 43.1706 143.657 42.724 147.377C42.7044 147.536 42.7177 147.696 42.763 147.849C42.8083 148.002 42.8848 148.143 42.9873 148.265C43.0898 148.386 43.2162 148.484 43.3585 148.554C43.5008 148.623 43.656 148.662 43.8141 148.667C46.3441 148.747 48.644 148.837 51.174 148.157C61.3874 145.384 71.4807 142.234 81.4541 138.707C83.4641 137.997 85.484 137.857 87.264 136.037C87.4903 135.811 87.6319 135.503 87.664 135.167C88.314 128.607 86.644 122.617 85.734 115.417C85.7034 115.179 85.6599 114.962 85.6075 114.788C85.5551 114.613 85.4955 114.486 85.4341 114.417C85.0007 113.937 84.7407 113.344 84.654 112.637C84.4607 111.124 83.7473 110.634 82.514 111.167C77.6807 113.261 72.9874 115.264 68.4341 117.177C65.1741 118.547 62.394 120.877 59.274 122.707Z" fill="#EAE8DD"/>
<path d="M43.6537 136.177C43.8437 131.927 55.3536 125.007 59.2736 122.707C62.3937 120.877 65.1737 118.547 68.4337 117.177C72.987 115.264 77.6803 113.261 82.5136 111.167C83.747 110.634 84.4603 111.124 84.6537 112.637C84.7403 113.344 85.0003 113.937 85.4337 114.417C85.4952 114.486 85.5548 114.613 85.6071 114.788C85.6595 114.963 85.703 115.179 85.7336 115.417C86.6436 122.617 88.3137 128.607 87.6637 135.167C87.6315 135.504 87.49 135.811 87.2636 136.037C85.4836 137.857 83.4637 137.997 81.4537 138.707C71.4804 142.234 61.387 145.384 51.1737 148.157C48.6437 148.837 46.3437 148.747 43.8137 148.667C43.6556 148.662 43.5005 148.623 43.3581 148.554C43.2158 148.485 43.0894 148.386 42.9869 148.265C42.8844 148.143 42.808 148.002 42.7627 147.849C42.7173 147.696 42.704 147.536 42.7236 147.377C43.1703 143.657 43.4803 139.924 43.6537 136.177Z" fill="#F0E7BC"/>
</svg>
