<svg width="108" height="164" viewBox="0 0 108 164" fill="none" xmlns="http://www.w3.org/2000/svg">
<path d="M55.798 116.749C60.258 122.179 65.008 124.209 70.188 128.259C80.938 136.659 79.058 147.479 75.848 159.599C75.7384 160.009 75.781 160.441 75.9663 160.803C76.1517 161.164 76.4649 161.425 76.838 161.529C79.738 162.336 82.6647 162.472 85.618 161.939C85.7174 161.921 85.8198 161.855 85.9134 161.749C86.0071 161.643 86.0884 161.501 86.148 161.339C91.748 145.859 102.948 123.479 85.448 111.089C78.358 106.069 71.098 102.289 64.848 96.1292C64.6033 95.8869 64.4303 95.5792 64.3475 95.2392C64.2647 94.8991 64.2752 94.5396 64.378 94.1992C68.1113 81.7325 69.8513 68.9825 69.598 55.9492C69.5915 55.5901 69.6715 55.2599 69.828 54.9992C72.888 49.8992 77.008 44.8492 79.668 40.2192C82.5347 35.2192 85.1546 30.2425 87.528 25.2892C88.068 24.1625 88.868 23.2358 89.928 22.5092L105.798 11.6292C106.103 11.4202 106.358 11.1378 106.541 10.8033C106.725 10.4689 106.833 10.0912 106.858 9.69917C107.045 6.91917 106.485 4.31919 105.178 1.89919C105.07 1.69543 104.921 1.51574 104.742 1.37135C104.562 1.22697 104.356 1.12097 104.135 1.05998C103.915 0.998994 103.685 0.984312 103.46 1.01686C103.235 1.04941 103.02 1.12849 102.828 1.24916C99.0547 3.59583 95.2447 6.25584 91.398 9.22917C86.888 12.6992 83.248 11.1992 78.108 10.1892C76.1813 9.80916 74.8447 10.5292 74.098 12.3492C73.4447 13.9225 73.6147 15.3492 74.608 16.6292C77.088 19.8192 80.868 18.1892 78.708 24.5092C73.398 40.0992 64.118 55.1792 48.968 61.9292C47.328 62.6625 45.9347 63.5792 44.788 64.6792C41.1213 68.1859 37.3547 71.5792 33.488 74.8592C33.4547 74.8858 33.3047 75.1392 33.038 75.6192L32.328 76.9092C32.2668 77.0169 32.1574 77.1152 32.0092 77.1953C31.8611 77.2755 31.6787 77.3352 31.478 77.3692C29.058 77.7559 27.6147 79.1092 27.148 81.4292C27.1203 81.5658 27.0589 81.6955 26.9687 81.8082C26.8785 81.9209 26.762 82.0136 26.628 82.0792C25.6147 82.5658 24.848 83.0092 24.328 83.4092C16.938 89.1092 4.958 96.7592 2.238 107.549C-0.595333 118.823 1.43469 129.056 8.32803 138.249C9.06136 139.229 9.99134 139.979 11.118 140.499C12.3447 141.066 12.518 140.832 11.638 139.799C5.28469 132.352 2.52132 123.693 3.34799 113.819C4.21799 103.309 9.81798 98.7192 18.278 92.2992C22.3046 89.2458 26.6013 86.6292 31.168 84.4492C36.498 81.8992 40.458 78.7192 45.258 75.8092C46.6114 74.9892 47.2313 75.3692 47.118 76.9492C45.988 92.2492 38.948 102.869 29.678 114.759C26.448 118.909 24.488 126.839 28.518 131.149C36.168 139.349 51.138 123.219 54.718 116.849C54.7704 116.756 54.8446 116.678 54.934 116.62C55.0235 116.562 55.1257 116.526 55.2318 116.517C55.338 116.507 55.4449 116.523 55.5435 116.563C55.6421 116.604 55.7294 116.668 55.798 116.749Z" stroke="#8E9094" stroke-width="2"/>
<path d="M46.048 58.9087C47.0814 59.7487 48.2147 59.9287 49.4481 59.4487C57.6481 56.2687 63.7314 50.3954 67.6981 41.8287C69.7647 37.3554 69.0847 33.6154 65.658 30.6087C52.968 19.4587 28.838 44.9387 46.048 58.9087Z" stroke="#8E9094" stroke-width="2"/>
<path d="M56.3144 42.6053C56.4942 42.7413 56.7715 42.733 57.0853 42.5823C57.399 42.4317 57.7236 42.151 57.9876 41.802C58.2516 41.453 58.4333 41.0642 58.4928 40.7213C58.5523 40.3783 58.4848 40.1093 58.305 39.9733C58.1252 39.8373 57.8479 39.8456 57.5341 39.9962C57.2203 40.1469 56.8957 40.4276 56.6318 40.7766C56.3678 41.1256 56.1861 41.5143 56.1266 41.8573C56.0671 42.2002 56.1346 42.4693 56.3144 42.6053Z" stroke="#2E3137" stroke-width="2"/>
<path d="M55.798 116.749C55.7294 116.668 55.6421 116.604 55.5435 116.563C55.4449 116.523 55.338 116.507 55.2318 116.517C55.1257 116.526 55.0235 116.562 54.934 116.62C54.8446 116.678 54.7704 116.756 54.718 116.849C51.138 123.219 36.168 139.349 28.518 131.149C24.488 126.839 26.448 118.909 29.678 114.759C38.948 102.869 45.988 92.2492 47.118 76.9492C47.2313 75.3692 46.6114 74.9892 45.258 75.8092C40.458 78.7192 36.498 81.8992 31.168 84.4492C26.6013 86.6292 22.3046 89.2458 18.278 92.2992C9.81798 98.7192 4.21799 103.309 3.34799 113.819C2.52132 123.693 5.28469 132.352 11.638 139.799C12.518 140.832 12.3447 141.066 11.118 140.499C9.99134 139.979 9.06136 139.229 8.32803 138.249C1.43469 129.056 -0.595333 118.823 2.238 107.549C4.958 96.7592 16.938 89.1092 24.328 83.4092C24.848 83.0092 25.6147 82.5658 26.628 82.0792C26.762 82.0136 26.8785 81.9209 26.9687 81.8082C27.0589 81.6955 27.1203 81.5658 27.148 81.4292C27.6147 79.1092 29.058 77.7559 31.478 77.3692C31.6787 77.3352 31.8611 77.2755 32.0092 77.1953C32.1574 77.1152 32.2668 77.0169 32.328 76.9092L33.038 75.6192C33.3047 75.1392 33.4547 74.8858 33.488 74.8592C37.3547 71.5792 41.1213 68.1859 44.788 64.6792C45.9347 63.5792 47.328 62.6625 48.968 61.9292C64.118 55.1792 73.398 40.0992 78.708 24.5092C80.868 18.1892 77.088 19.8192 74.608 16.6292C73.6147 15.3492 73.4446 13.9225 74.098 12.3492C74.8447 10.5292 76.1813 9.80916 78.108 10.1892C83.248 11.1992 86.888 12.6992 91.398 9.22917C95.2447 6.25584 99.0547 3.59583 102.828 1.24916C103.02 1.12849 103.235 1.04941 103.46 1.01686C103.685 0.984312 103.915 0.998994 104.135 1.05998C104.356 1.12097 104.562 1.22697 104.742 1.37135C104.921 1.51574 105.07 1.69543 105.178 1.89919C106.485 4.31919 107.045 6.91917 106.858 9.69917C106.833 10.0912 106.725 10.4689 106.541 10.8033C106.358 11.1378 106.103 11.4202 105.798 11.6292L89.928 22.5092C88.868 23.2358 88.068 24.1625 87.528 25.2892C85.1546 30.2425 82.5347 35.2192 79.668 40.2192C77.008 44.8492 72.888 49.8992 69.828 54.9992C69.6715 55.2599 69.5915 55.5901 69.598 55.9492C69.8513 68.9825 68.1113 81.7325 64.378 94.1992C64.2752 94.5396 64.2647 94.8991 64.3475 95.2392C64.4303 95.5792 64.6033 95.8869 64.848 96.1292C71.098 102.289 78.358 106.069 85.448 111.089C102.948 123.479 91.748 145.859 86.148 161.339C86.0884 161.501 86.0071 161.643 85.9134 161.749C85.8198 161.855 85.7174 161.921 85.618 161.939C82.6647 162.473 79.738 162.336 76.838 161.529C76.4649 161.425 76.1517 161.164 75.9663 160.803C75.781 160.441 75.7384 160.009 75.848 159.599C79.058 147.479 80.938 136.659 70.188 128.259C65.008 124.209 60.258 122.179 55.798 116.749Z" fill="#1D2128"/>
<path d="M46.048 58.9097C28.838 44.9397 52.968 19.4597 65.658 30.6097C69.0847 33.6164 69.7647 37.3564 67.6981 41.8297C63.7314 50.3964 57.6481 56.2697 49.4481 59.4497C48.2147 59.9297 47.0814 59.7497 46.048 58.9097ZM56.3127 42.6057C56.4926 42.7417 56.7698 42.7334 57.0836 42.5827C57.3974 42.4321 57.722 42.1514 57.986 41.8024C58.2499 41.4534 58.4316 41.0646 58.4912 40.7217C58.5507 40.3788 58.4831 40.1097 58.3033 39.9737C58.1235 39.8377 57.8463 39.846 57.5325 39.9966C57.2187 40.1473 56.8941 40.428 56.6301 40.777C56.3662 41.126 56.1845 41.5147 56.1249 41.8577C56.0654 42.2006 56.133 42.4697 56.3127 42.6057Z" fill="#1D2128"/>
<path d="M56.6293 40.7769C56.0796 41.5037 55.9375 42.3225 56.3119 42.6056C56.6864 42.8888 57.4355 42.5292 57.9852 41.8023C58.5349 41.0755 58.6769 40.2568 58.3025 39.9736C57.9281 39.6904 57.179 40.0501 56.6293 40.7769Z" fill="#3F4145"/>
</svg>
