<svg width="75" height="54" viewBox="0 0 75 54" fill="none" xmlns="http://www.w3.org/2000/svg">
<path d="M2.96484 48.4829C6.07484 55.6929 12.9348 52.5329 16.9748 48.7129C17.2082 48.4926 17.5069 48.3555 17.8248 48.3229C21.9048 47.8495 25.4315 46.2895 28.4048 43.6429C29.8781 42.3362 31.0782 41.5162 32.0048 41.1829C38.1148 38.9929 43.0248 42.2629 47.3348 36.3529C48.1882 35.1729 49.3448 34.6062 50.8048 34.6529C57.0048 34.8729 65.4748 35.5429 70.3048 30.7929C74.9148 26.2529 74.8648 19.7929 71.7048 14.4429" stroke="#FFB5A8" stroke-width="2"/>
<path d="M71.704 14.443C61.434 -8.32699 35.464 2.89301 20.064 11.383C6.25399 19.003 -3.30599 32.113 2.96401 48.483" stroke="#FBAFA3" stroke-width="2"/>
<path d="M71.7037 14.4431C68.557 18.3431 65.257 18.8397 61.8037 15.9331C60.8303 15.1197 60.7503 14.0897 61.5636 12.8431C61.7328 12.5899 62.0029 12.3865 62.3337 12.2631C69.0737 9.73305 55.7236 5.27305 54.0036 4.60305C51.0136 3.43305 47.7337 4.62305 44.7037 5.17305C39.0537 6.20305 33.6136 8.90305 28.1036 10.7431C22.937 12.4631 18.397 16.0197 14.4837 21.4131C14.2748 21.7065 13.982 21.9296 13.6437 22.0531C13.137 22.2331 12.6137 22.2797 12.0737 22.1931C12.0032 22.1852 11.8781 22.2409 11.7164 22.3523C11.5547 22.4638 11.3646 22.6251 11.1737 22.8131C7.94032 25.9997 5.13364 29.5297 2.75364 33.403C2.69395 33.5013 2.64792 33.6467 2.6186 33.8295C2.58929 34.0122 2.57738 34.2282 2.58366 34.463L2.96367 48.4831" stroke="#FB654C" stroke-width="2"/>
<path d="M45.6033 16.1967C45.4716 15.9695 45.2964 15.7704 45.0877 15.6109C44.8791 15.4514 44.6411 15.3345 44.3872 15.267C44.1334 15.1994 43.8688 15.1825 43.6084 15.2173C43.3481 15.252 43.0971 15.3377 42.8699 15.4694L42.247 15.8305C41.7881 16.0966 41.4537 16.534 41.3173 17.0466C41.1809 17.5591 41.2537 18.1049 41.5197 18.5638L45.4415 25.3293C45.5732 25.5566 45.7484 25.7556 45.957 25.9152C46.1657 26.0747 46.4037 26.1916 46.6576 26.2591C46.9114 26.3266 47.176 26.3435 47.4364 26.3088C47.6967 26.2741 47.9477 26.1884 48.1749 26.0566L48.7978 25.6955C49.2567 25.4295 49.5911 24.9921 49.7275 24.4795C49.8639 23.9669 49.7911 23.4211 49.5251 22.9622L45.6033 16.1967Z" stroke="#853A2F" stroke-width="2"/>
<path d="M23.2345 23.7912C23.0656 23.3732 22.7376 23.0394 22.3225 22.8632C21.9075 22.687 21.4395 22.6829 21.0215 22.8518L19.8718 23.3163C19.6648 23.3999 19.4763 23.5235 19.3171 23.68C19.1578 23.8365 19.031 24.0228 18.9437 24.2283C18.8565 24.4338 18.8106 24.6545 18.8087 24.8777C18.8067 25.101 18.8487 25.3224 18.9324 25.5294L22.0941 33.3548C22.263 33.7728 22.591 34.1066 23.006 34.2828C23.4211 34.459 23.889 34.4631 24.3071 34.2942L25.4568 33.8297C25.6638 33.7461 25.8523 33.6225 26.0115 33.466C26.1707 33.3095 26.2976 33.1232 26.3849 32.9177C26.4721 32.7122 26.518 32.4915 26.5199 32.2683C26.5219 32.045 26.4798 31.8236 26.3962 31.6166L23.2345 23.7912Z" stroke="#894038" stroke-width="2"/>
<path d="M71.704 14.443C68.5573 18.343 65.2573 18.8397 61.804 15.933C60.8307 15.1197 60.7507 14.0897 61.564 12.843C61.7332 12.5898 62.0032 12.3864 62.334 12.263C69.074 9.73301 55.724 5.27301 54.004 4.60301C51.014 3.43301 47.734 4.62301 44.704 5.17301C39.054 6.20301 33.614 8.90301 28.104 10.743C22.9373 12.463 18.3973 16.0197 14.484 21.413C14.2752 21.7064 13.9823 21.9296 13.644 22.053C13.1373 22.233 12.614 22.2797 12.074 22.193C12.0036 22.1851 11.8785 22.2409 11.7168 22.3523C11.555 22.4637 11.365 22.625 11.174 22.813C7.94067 25.9997 5.13399 29.5297 2.75399 33.403C2.6943 33.5012 2.64827 33.6466 2.61895 33.8294C2.58964 34.0122 2.57773 34.2282 2.58401 34.463L2.96401 48.483C-3.30599 32.113 6.25399 19.003 20.064 11.383C35.464 2.89301 61.434 -8.32699 71.704 14.443Z" fill="#F75F46"/>
<path d="M71.7037 14.4431C74.8637 19.7931 74.9137 26.253 70.3037 30.793C65.4737 35.543 57.0037 34.873 50.8037 34.653C49.3437 34.6064 48.187 35.173 47.3337 36.353C43.0237 42.263 38.1136 38.993 32.0036 41.183C31.077 41.5164 29.877 42.3364 28.4036 43.6431C25.4303 46.2897 21.9037 47.8497 17.8237 48.323C17.5058 48.3557 17.207 48.4928 16.9736 48.713C12.9336 52.533 6.07367 55.6931 2.96367 48.4831L2.58366 34.463C2.57738 34.2282 2.58929 34.0122 2.6186 33.8295C2.64792 33.6467 2.69395 33.5013 2.75364 33.403C5.13364 29.5297 7.94032 25.9997 11.1737 22.8131C11.3646 22.6251 11.5547 22.4638 11.7164 22.3523C11.8781 22.2409 12.0032 22.1852 12.0737 22.1931C12.6137 22.2797 13.137 22.2331 13.6437 22.0531C13.982 21.9296 14.2748 21.7065 14.4837 21.4131C18.397 16.0197 22.937 12.4631 28.1036 10.7431C33.6136 8.90305 39.0537 6.20305 44.7037 5.17305C47.7337 4.62305 51.0136 3.43305 54.0036 4.60305C55.7236 5.27305 69.0737 9.73305 62.3337 12.2631C62.0029 12.3865 61.7328 12.5899 61.5636 12.8431C60.7503 14.0897 60.8303 15.1197 61.8037 15.9331C65.257 18.8397 68.557 18.3431 71.7037 14.4431ZM45.6046 16.1968C45.4728 15.9695 45.2977 15.7704 45.089 15.6109C44.8803 15.4514 44.6423 15.3345 44.3885 15.267C44.1347 15.1994 43.87 15.1826 43.6097 15.2173C43.3493 15.252 43.0984 15.3377 42.8711 15.4695L42.2482 15.8306C41.7893 16.0966 41.4549 16.534 41.3185 17.0466C41.1821 17.5592 41.2549 18.1049 41.5209 18.5638L45.4428 25.3293C45.5745 25.5566 45.7496 25.7557 45.9583 25.9152C46.1669 26.0747 46.405 26.1916 46.6588 26.2591C46.9126 26.3267 47.1773 26.3436 47.4376 26.3088C47.698 26.2741 47.9489 26.1884 48.1762 26.0567L48.7991 25.6955C49.258 25.4295 49.5924 24.9921 49.7288 24.4795C49.8652 23.9669 49.7924 23.4212 49.5263 22.9623L45.6046 16.1968ZM23.2338 23.7912C23.0649 23.3732 22.7369 23.0394 22.3219 22.8632C21.9069 22.6871 21.4389 22.683 21.0209 22.8519L19.8711 23.3163C19.6641 23.4 19.4757 23.5236 19.3164 23.68C19.1572 23.8365 19.0303 24.0228 18.9431 24.2283C18.8559 24.4338 18.81 24.6545 18.808 24.8778C18.8061 25.101 18.8481 25.3225 18.9317 25.5295L22.0935 33.3548C22.2624 33.7729 22.5904 34.1067 23.0054 34.2829C23.4204 34.459 23.8884 34.4631 24.3064 34.2943L25.4562 33.8297C25.6632 33.7461 25.8516 33.6225 26.0109 33.4661C26.1701 33.3096 26.297 33.1233 26.3842 32.9178C26.4715 32.7123 26.5174 32.4916 26.5193 32.2683C26.5212 32.0451 26.4792 31.8237 26.3955 31.6167L23.2338 23.7912Z" fill="#FF6A51"/>
<path d="M49.5251 22.9622C49.7911 23.4211 49.8639 23.9669 49.7275 24.4795C49.5911 24.9921 49.2567 25.4295 48.7978 25.6955L48.1749 26.0566C47.9477 26.1884 47.6967 26.2741 47.4364 26.3088C47.176 26.3435 46.9114 26.3266 46.6576 26.2591C46.4037 26.1916 46.1657 26.0747 45.957 25.9152C45.7484 25.7556 45.5732 25.5566 45.4415 25.3293L41.5197 18.5638C41.2537 18.1049 41.1809 17.5591 41.3173 17.0466C41.4537 16.534 41.7881 16.0966 42.247 15.8305L42.8699 15.4694C43.0971 15.3377 43.3481 15.252 43.6084 15.2173C43.8688 15.1825 44.1334 15.1994 44.3872 15.267C44.6411 15.3345 44.8791 15.4514 45.0877 15.6109C45.2964 15.7704 45.4716 15.9695 45.6033 16.1967L49.5251 22.9622Z" fill="#0B090D"/>
<path d="M26.3962 31.6166C26.4798 31.8236 26.5219 32.045 26.5199 32.2683C26.518 32.4915 26.4721 32.7122 26.3849 32.9177C26.2976 33.1232 26.1707 33.3095 26.0115 33.466C25.8523 33.6225 25.6638 33.7461 25.4568 33.8297L24.3071 34.2942C23.889 34.4631 23.4211 34.459 23.006 34.2828C22.591 34.1066 22.263 33.7728 22.0941 33.3548L18.9324 25.5294C18.8487 25.3224 18.8067 25.101 18.8087 24.8777C18.8106 24.6545 18.8565 24.4338 18.9437 24.2283C19.031 24.0228 19.1578 23.8365 19.3171 23.68C19.4763 23.5235 19.6648 23.3999 19.8718 23.3163L21.0215 22.8518C21.4395 22.6829 21.9075 22.687 22.3225 22.8632C22.7376 23.0394 23.0656 23.3732 23.2345 23.7912L26.3962 31.6166Z" fill="#13151E"/>
</svg>
