<svg width="123" height="122" viewBox="0 0 123 122" fill="none" xmlns="http://www.w3.org/2000/svg">
<path d="M56.418 54.3193C57.458 54.746 57.6913 55.0727 57.118 55.2993" stroke="#FFFDED" stroke-width="2"/>
<path d="M57.1175 55.2994C53.6042 61.9594 50.0742 68.466 46.5275 74.8194C45.2875 77.0494 45.5775 79.4194 44.0975 81.3394C40.9875 85.3694 32.1375 80.0694 28.5675 78.5794C26.8342 77.8527 25.3375 78.2327 24.0775 79.7194C21.7242 82.506 20.3842 85.7127 20.0575 89.3394C20.0372 89.5696 20.0493 89.7866 20.0922 89.9615C20.135 90.1364 20.2066 90.2612 20.2975 90.3194C20.6442 90.546 20.8342 90.8594 20.8675 91.2594C20.8798 91.4462 20.8582 91.6264 20.8045 91.786C20.7507 91.9455 20.6662 92.0801 20.5575 92.1794C19.5775 93.0661 18.2675 93.246 16.6275 92.7194C9.94087 90.5727 5.76087 86.3094 4.08754 79.9294C4.0753 79.8773 4.07379 79.823 4.08313 79.7708C4.09247 79.7186 4.1124 79.6699 4.14139 79.6283C4.17038 79.5868 4.20766 79.5535 4.25033 79.5312C4.29301 79.5088 4.33995 79.4979 4.38753 79.4994C4.86753 79.5194 5.04753 79.6794 5.31753 80.0894C8.17087 84.5027 12.1775 87.6861 17.3375 89.6394C17.4315 89.676 17.5327 89.6885 17.6334 89.6759C17.7341 89.6633 17.8314 89.626 17.9177 89.5668C18.004 89.5077 18.0769 89.4283 18.1307 89.3351C18.1844 89.2418 18.2176 89.1372 18.2275 89.0294C18.7075 83.756 21.0209 79.5227 25.1675 76.3294C26.0475 75.6494 27.0009 75.5194 28.0275 75.9394C31.3409 77.286 34.7842 78.7094 38.3575 80.2094C42.5475 81.9794 44.6475 78.7794 42.7575 75.0694C37.2309 64.2227 31.9442 53.2594 26.8975 42.1794C25.8475 39.8794 24.5475 37.9294 23.0475 36.0594C21.9742 34.7194 20.6875 34.4727 19.1875 35.3194C13.6975 38.4194 8.46754 44.5194 4.11754 48.6594C3.0442 49.686 2.3842 50.9327 2.13753 52.3994C0.930867 59.6794 0.684202 66.716 1.39754 73.5094" stroke="#FDDDA1" stroke-width="2"/>
<path d="M1.39844 74.5093C2.3851 86.4959 7.40177 96.4326 16.4484 104.319C16.5871 104.444 16.7491 104.528 16.9097 104.561C17.0703 104.593 17.2208 104.572 17.3384 104.499L28.3684 97.7193C28.6852 97.5243 29.059 97.4437 29.4268 97.491C29.7947 97.5384 30.1342 97.7108 30.3884 97.9793C32.4084 100.126 34.4984 102.203 36.6584 104.209C40.9884 108.209 46.7084 105.559 49.4084 101.229C49.9684 100.349 50.8684 99.7393 51.7484 100.569C51.8505 100.667 51.914 100.8 51.9286 100.947C51.9431 101.094 51.9078 101.247 51.8284 101.379C50.5884 103.499 48.7818 105.236 46.4084 106.589C38.6284 111.039 34.5084 105.299 29.2384 100.949C29.1041 100.841 28.9531 100.767 28.8028 100.735C28.6525 100.704 28.509 100.715 28.3884 100.769C24.8884 102.356 21.7084 104.433 18.8484 106.999C18.795 107.046 18.7508 107.104 18.7199 107.167C18.6889 107.231 18.6722 107.298 18.6712 107.362C18.6702 107.427 18.685 107.487 18.7142 107.537C18.7434 107.587 18.7861 107.626 18.8384 107.649C19.9484 108.149 20.6084 108.199 21.5084 109.139C24.4551 112.173 27.9018 114.286 31.8484 115.479" stroke="#FDDDA1" stroke-width="2"/>
<path d="M31.8477 115.479C44.4277 121.539 60.2877 121.619 74.1077 119.969" stroke="#FBA49A" stroke-width="2"/>
<path d="M74.1094 119.969C87.9394 117.989 100.109 111.209 107.899 99.5392C120.299 80.9792 124.299 60.6193 119.899 38.4593C118.273 30.2726 114.843 23.3592 109.609 17.7192" stroke="#FEA99E" stroke-width="2"/>
<path d="M109.608 17.7193C95.0277 0.729275 67.5977 -1.3907 47.1277 2.9293C36.1977 5.2393 26.7677 12.4493 19.1077 20.2893C19.0304 20.37 18.972 20.4676 18.9377 20.5735C18.9034 20.6794 18.8942 20.7902 18.911 20.8962C18.9279 21.0021 18.9702 21.0998 19.0341 21.1806C19.0981 21.2614 19.1818 21.3228 19.2777 21.3593L24.8677 23.5093C24.9536 23.5419 25.0807 23.5387 25.2356 23.5C25.3905 23.4613 25.5675 23.3885 25.7477 23.2893C29.0211 21.5093 31.4477 18.9193 33.0277 15.5193C33.101 15.366 33.1977 15.2359 33.3177 15.1293C34.3311 14.2026 34.5077 14.3326 33.8477 15.5193C32.1877 18.5126 30.1544 21.2693 27.7477 23.7893C26.6344 24.9559 25.341 25.2759 23.8677 24.7493L17.3777 22.4493C17.2679 22.4106 17.1492 22.4041 17.0358 22.4307C16.9224 22.4573 16.8189 22.5158 16.7377 22.5993C10.7177 29.0793 6.39439 36.5393 3.76772 44.9793C3.71028 45.1679 3.7031 45.3625 3.74763 45.5239C3.79216 45.6853 3.88509 45.8016 4.00772 45.8493C4.37439 45.9826 4.76772 45.8126 5.18772 45.3393C8.24772 41.8459 12.261 38.3693 17.2277 34.9093C20.6744 32.5093 23.4777 32.9526 25.6377 36.2393C32.6977 46.9893 37.1377 60.3293 43.8477 71.9993C44.6011 73.3193 45.3677 73.306 46.1477 71.9593L56.4177 54.3193" stroke="#FDDDA1" stroke-width="2"/>
<path d="M109.607 17.7192C112.567 47.4392 103.837 74.5992 84.207 96.9692" stroke="#FC8740" stroke-width="2"/>
<path d="M84.2059 96.9694C83.1126 96.4694 82.0626 96.5827 81.0559 97.3094C80.7559 97.5227 80.4592 97.6527 80.1659 97.6994C72.9459 98.8794 67.2559 99.3127 63.0959 98.9994C58.1159 98.626 55.6826 95.7694 55.7959 90.4294C55.8022 90.1239 55.7042 89.8123 55.5159 89.5394C54.7092 88.386 54.6292 87.3227 55.2759 86.3494C55.9159 85.3827 55.7292 85.186 54.7159 85.7594C50.6226 88.086 46.7259 89.596 43.0259 90.2894C39.4059 90.9694 31.8359 86.9194 28.3159 85.4294C26.6859 84.7494 25.2859 85.2194 24.9459 86.9994C24.9213 87.1295 24.9511 87.2651 25.0292 87.3785C25.1072 87.4918 25.2276 87.5744 25.3659 87.6094C27.9459 88.2594 30.2959 88.4294 32.7659 89.6794C36.3259 91.4894 40.9259 93.5394 44.9659 92.1294C47.4192 91.2694 49.8792 90.3727 52.3459 89.4394C52.4243 89.4102 52.507 89.3951 52.5892 89.395C52.6714 89.3949 52.7513 89.4098 52.8242 89.4388C52.897 89.4677 52.9613 89.5102 53.0132 89.5635C53.065 89.6169 53.1034 89.6801 53.1259 89.7494L55.0159 95.6394C55.7892 98.0327 57.1326 99.6194 59.0459 100.399C60.8059 101.109 63.9459 101.209 66.2359 101.019C70.8626 100.646 75.5026 100.473 80.1559 100.499" stroke="#FDDB8F" stroke-width="2"/>
<path d="M80.1584 100.5C76.8051 104.86 72.8018 108.196 68.1484 110.51" stroke="#FC8740" stroke-width="2"/>
<path d="M68.148 110.509C62.818 109.659 56.668 110.269 51.868 107.829C50.8947 107.343 50.6947 107.559 51.268 108.479C52.8747 111.073 54.738 112.513 56.858 112.799" stroke="#FCDA82" stroke-width="2"/>
<path d="M56.8594 112.799L53.6094 114.969" stroke="#FC8740" stroke-width="2"/>
<path d="M53.6077 114.969L31.8477 115.479" stroke="#F9813C" stroke-width="2"/>
<path d="M1.39844 74.5093C4.88844 73.7893 17.5084 71.8593 20.8684 67.9193C20.9592 67.8124 21.0073 67.6757 21.0037 67.5355C21 67.3953 20.9447 67.2613 20.8484 67.1593C16.8218 62.8793 11.7684 59.7993 5.68844 57.9193C4.30844 57.4993 4.99844 58.4793 5.33844 58.7093C9.12844 61.1993 13.9684 63.0893 16.9084 66.3793C18.0484 67.6527 17.7718 68.546 16.0784 69.0593L1.39844 73.5093" stroke="#FDDB8F" stroke-width="2"/>
<path d="M57.1172 55.2993C58.8905 56.1126 60.0272 57.3327 60.5272 58.9593C61.6172 62.5093 61.6672 68.6793 61.9672 72.5893C62.5472 80.2193 69.9672 76.1393 73.8572 76.7393C77.0872 77.2493 91.0772 80.0893 93.1072 78.2993" stroke="#FDDB8F" stroke-width="2"/>
<path d="M93.1082 78.2991C97.9082 76.9591 86.4582 68.8591 86.0482 69.5191C85.9815 69.6276 85.9701 69.769 86.016 69.9177C86.0618 70.0663 86.162 70.2123 86.2982 70.3291L91.6382 74.9591C91.7549 75.0606 91.8442 75.1985 91.8982 75.3607C91.9523 75.5229 91.9695 75.7044 91.9482 75.8891C91.8416 76.7158 91.3949 77.1858 90.6082 77.2991" stroke="#F7CC69" stroke-width="2"/>
<path d="M90.608 77.2993C86.2546 76.5527 81.9013 75.8027 77.548 75.0493C73.348 74.3193 69.018 74.6493 64.648 74.3093C64.512 74.3 64.3837 74.2415 64.2865 74.1442C64.1892 74.047 64.1295 73.9175 64.118 73.7793C63.758 69.4593 63.288 61.5193 61.798 58.0393C60.9113 55.966 59.118 54.726 56.418 54.3193" stroke="#FDDB8F" stroke-width="2"/>
<path d="M90.6094 77.2993L93.1094 78.2993" stroke="#F8EDB5" stroke-width="2"/>
<path d="M74.1094 119.969C74.4027 118.843 74.0694 118.189 73.1094 118.009C68.056 117.076 61.556 116.063 53.6094 114.969" stroke="#FA4E38" stroke-width="2"/>
<path d="M56.8594 112.799C60.8194 112.859 64.5827 112.096 68.1494 110.509" stroke="#FDA77F" stroke-width="2"/>
<path d="M80.1562 100.499L84.2063 96.9692" stroke="#FDA78C" stroke-width="2"/>
<path d="M94.8256 32.8691C93.5923 33.2558 91.9356 33.2858 89.8556 32.9592C82.4023 31.7858 73.149 31.2425 62.0956 31.3292C58.4023 31.3558 54.9656 31.9125 51.7856 32.9991C41.6356 36.4591 53.9456 45.3392 57.4456 47.8792C66.5156 54.4392 74.1156 58.8191 85.9256 57.8091C87.0656 57.7091 87.299 57.1958 86.6256 56.2692C83.2956 51.7092 79.5656 45.6892 75.5656 42.5492C73.1256 40.6392 56.1656 33.9491 54.3556 36.4991C54.3233 36.5446 54.305 36.5979 54.3024 36.6539C54.2999 36.7099 54.3132 36.767 54.3411 36.8198C54.369 36.8726 54.4106 36.9194 54.462 36.956C54.5135 36.9926 54.5732 37.0178 54.6356 37.0291C66.9756 39.0091 76.2156 43.2592 82.5456 54.5392C82.6035 54.6416 82.6339 54.7571 82.6337 54.8748C82.6336 54.9925 82.6031 55.1085 82.545 55.2116C82.4869 55.3148 82.4031 55.4018 82.3018 55.4644C82.2004 55.527 82.0847 55.563 81.9656 55.5692C70.3356 56.1492 59.3156 47.1392 50.8656 39.6492C45.9656 35.2992 57.4756 33.3891 59.2956 33.3691C68.9823 33.2558 79.749 33.8925 91.5956 35.2791C94.2256 35.5891 96.0656 35.8492 98.5656 34.6692C100.799 33.6158 100.719 32.3925 98.3256 30.9991C88.8656 25.4791 79.4356 19.8925 70.0356 14.2392C62.5256 9.71917 50.4056 3.56915 42.0556 9.27915C41.8902 9.39266 41.7534 9.52923 41.6707 9.66348C41.5879 9.79773 41.5648 9.92055 41.6056 10.0092C41.859 10.5558 42.2723 10.8992 42.8456 11.0392C42.9456 11.0632 43.0817 11.0166 43.2334 10.9065C43.3851 10.7963 43.5439 10.6287 43.6856 10.4292C47.8156 4.63917 62.1056 11.9392 66.4456 14.6492C74.1456 19.4625 81.9656 24.0691 89.9056 28.4691C91.7923 29.5091 93.4756 30.7958 94.9556 32.3292C94.9939 32.3691 95.0215 32.418 95.0359 32.4714C95.0503 32.5248 95.0511 32.5809 95.0382 32.6347C95.0252 32.6884 94.999 32.7381 94.9618 32.7791C94.9247 32.82 94.8779 32.851 94.8256 32.8691Z" stroke="#FDDB8F" stroke-width="2"/>
<path d="M53.1869 17.6894C54.2669 17.5094 56.1769 18.3994 56.5169 16.7994C56.531 16.7378 56.5305 16.6738 56.5153 16.6117C56.5001 16.5496 56.4706 16.491 56.4289 16.4397C56.3871 16.3885 56.3341 16.3459 56.2733 16.3148C56.2126 16.2837 56.1456 16.2648 56.0769 16.2594C47.4769 15.6894 34.5569 22.0694 34.8769 32.0994C35.0036 36.2794 35.6503 40.8561 36.8169 45.8294C36.8824 46.1062 37.0395 46.3527 37.2629 46.5288C37.4862 46.7049 37.7625 46.8003 38.0469 46.7994C38.2669 46.7928 38.3303 46.5361 38.2369 46.0294C37.3503 41.4227 36.8803 36.7794 36.8269 32.0994C36.7369 24.0394 46.6969 18.7294 53.1869 17.6894Z" stroke="#FBDA9D" stroke-width="2"/>
<path d="M44.0261 29.959C56.6361 26.899 39.3261 27.869 43.0861 29.859C43.357 30.001 43.691 30.0365 44.0261 29.959Z" stroke="#F7CC69" stroke-width="2"/>
<path d="M56.7687 86.6893C60.1387 94.5893 69.8887 94.3093 75.5787 89.3193C75.7537 89.1651 75.8986 89.0012 75.9922 88.8518C76.0858 88.7023 76.1232 88.5753 76.0987 88.4893C75.7587 87.3626 74.9154 86.8026 73.5687 86.8093C73.4765 86.8122 73.3785 86.8706 73.2899 86.9755C73.2014 87.0804 73.1271 87.2258 73.0787 87.3893C72.6287 88.9493 72.0987 89.7593 70.4687 90.3293C65.4087 92.1026 61.3687 90.8659 58.3487 86.6193C58.1087 86.2893 57.4087 85.9693 57.0487 86.0293C56.9859 86.0421 56.9275 86.0706 56.8778 86.1127C56.8282 86.1549 56.7885 86.2096 56.7616 86.2728C56.7348 86.3361 56.7215 86.4063 56.7227 86.4783C56.724 86.5504 56.7397 86.6224 56.7687 86.6893Z" stroke="#FDDB8F" stroke-width="2"/>
<path d="M109.608 17.7193C112.568 47.4393 103.838 74.5993 84.2075 96.9693C83.1142 96.4693 82.0642 96.5826 81.0575 97.3093C80.7575 97.5226 80.4609 97.6526 80.1675 97.6993C72.9475 98.8793 67.2575 99.3126 63.0975 98.9993C58.1175 98.6259 55.6842 95.7693 55.7975 90.4293C55.8038 90.1238 55.7058 89.8123 55.5175 89.5393C54.7109 88.3859 54.6309 87.3226 55.2775 86.3493C55.9175 85.3826 55.7309 85.186 54.7175 85.7593C50.6242 88.086 46.7275 89.5959 43.0275 90.2893C39.4075 90.9693 31.8375 86.9193 28.3175 85.4293C26.6875 84.7493 25.2875 85.2193 24.9475 86.9993C24.923 87.1294 24.9527 87.265 25.0308 87.3784C25.1088 87.4917 25.2293 87.5743 25.3675 87.6093C27.9475 88.2593 30.2975 88.4293 32.7675 89.6793C36.3275 91.4893 40.9275 93.5393 44.9675 92.1293C47.4209 91.2693 49.8809 90.3726 52.3475 89.4393C52.4259 89.4101 52.5086 89.395 52.5908 89.3949C52.673 89.3948 52.7529 89.4097 52.8258 89.4387C52.8987 89.4676 52.963 89.5101 53.0148 89.5635C53.0667 89.6168 53.105 89.68 53.1275 89.7493L55.0175 95.6393C55.7909 98.0326 57.1342 99.6193 59.0475 100.399C60.8075 101.109 63.9475 101.209 66.2375 101.019C70.8642 100.646 75.5042 100.473 80.1575 100.499C76.8042 104.859 72.8009 108.196 68.1475 110.509C62.8175 109.659 56.6675 110.269 51.8675 107.829C50.8942 107.343 50.6942 107.559 51.2675 108.479C52.8742 111.073 54.7375 112.513 56.8575 112.799L53.6075 114.969L31.8475 115.479C27.9009 114.286 24.4542 112.173 21.5075 109.139C20.6075 108.199 19.9475 108.149 18.8375 107.649C18.7852 107.626 18.7425 107.587 18.7133 107.537C18.6841 107.487 18.6693 107.427 18.6703 107.362C18.6713 107.298 18.688 107.231 18.719 107.167C18.7499 107.104 18.7941 107.046 18.8475 106.999C21.7075 104.433 24.8875 102.356 28.3875 100.769C28.5081 100.715 28.6516 100.704 28.8019 100.735C28.9522 100.767 29.1032 100.841 29.2375 100.949C34.5075 105.299 38.6275 111.039 46.4075 106.589C48.7809 105.236 50.5875 103.499 51.8275 101.379C51.9069 101.247 51.9422 101.094 51.9277 100.947C51.9131 100.8 51.8496 100.667 51.7475 100.569C50.8675 99.7393 49.9675 100.349 49.4075 101.229C46.7075 105.559 40.9875 108.209 36.6575 104.209C34.4975 102.203 32.4075 100.126 30.3875 97.9793C30.1333 97.7108 29.7938 97.5384 29.4259 97.491C29.0581 97.4437 28.6843 97.5243 28.3675 97.7193L17.3375 104.499C17.2199 104.572 17.0694 104.593 16.9088 104.561C16.7482 104.528 16.5862 104.444 16.4475 104.319C7.40086 96.4326 2.3842 86.4959 1.39754 74.5093C4.88754 73.7893 17.5075 71.8593 20.8675 67.9193C20.9583 67.8123 21.0064 67.6757 21.0028 67.5355C20.9991 67.3952 20.9438 67.2613 20.8475 67.1593C16.8209 62.8793 11.7675 59.7993 5.68754 57.9193C4.30754 57.4993 4.99754 58.4793 5.33754 58.7093C9.12754 61.1993 13.9675 63.0893 16.9075 66.3793C18.0475 67.6526 17.7709 68.5459 16.0775 69.0593L1.39754 73.5093C0.684202 66.716 0.930867 59.6793 2.13753 52.3993C2.3842 50.9326 3.0442 49.6859 4.11754 48.6593C8.46754 44.5193 13.6975 38.4193 19.1875 35.3193C20.6875 34.4726 21.9742 34.7193 23.0475 36.0593C24.5475 37.9293 25.8475 39.8793 26.8975 42.1793C31.9442 53.2593 37.2309 64.2226 42.7575 75.0693C44.6475 78.7793 42.5475 81.9793 38.3575 80.2093C34.7842 78.7093 31.3409 77.2859 28.0275 75.9393C27.0009 75.5193 26.0475 75.6493 25.1675 76.3293C21.0209 79.5226 18.7075 83.7559 18.2275 89.0293C18.2176 89.1371 18.1844 89.2417 18.1307 89.335C18.0769 89.4282 18.004 89.5076 17.9177 89.5667C17.8314 89.6259 17.7341 89.6632 17.6334 89.6758C17.5327 89.6884 17.4315 89.6759 17.3375 89.6393C12.1775 87.686 8.17087 84.5026 5.31753 80.0893C5.04753 79.6793 4.86753 79.5193 4.38753 79.4993C4.33995 79.4978 4.29301 79.5087 4.25033 79.5311C4.20766 79.5534 4.17038 79.5867 4.14139 79.6282C4.1124 79.6698 4.09247 79.7185 4.08313 79.7707C4.07379 79.8229 4.0753 79.8772 4.08754 79.9293C5.76087 86.3093 9.94087 90.5726 16.6275 92.7193C18.2675 93.2459 19.5775 93.066 20.5575 92.1793C20.6662 92.08 20.7507 91.9454 20.8045 91.7859C20.8582 91.6263 20.8798 91.4461 20.8675 91.2593C20.8342 90.8593 20.6442 90.546 20.2975 90.3193C20.2066 90.2611 20.135 90.1364 20.0922 89.9614C20.0493 89.7865 20.0372 89.5695 20.0575 89.3393C20.3842 85.7126 21.7242 82.5059 24.0775 79.7193C25.3375 78.2326 26.8342 77.8526 28.5675 78.5793C32.1375 80.0693 40.9875 85.3693 44.0975 81.3393C45.5775 79.4193 45.2875 77.0493 46.5275 74.8193C50.0742 68.466 53.6042 61.9593 57.1175 55.2993C58.8909 56.1126 60.0275 57.3326 60.5275 58.9593C61.6175 62.5093 61.6675 68.6793 61.9675 72.5893C62.5475 80.2193 69.9675 76.1393 73.8575 76.7393C77.0875 77.2493 91.0775 80.0893 93.1075 78.2993C97.9075 76.9593 86.4575 68.8593 86.0475 69.5193C85.9808 69.6278 85.9694 69.7692 86.0153 69.9178C86.0611 70.0665 86.1613 70.2125 86.2975 70.3293L91.6375 74.9593C91.7542 75.0608 91.8435 75.1987 91.8976 75.3609C91.9516 75.5231 91.9688 75.7046 91.9475 75.8893C91.8409 76.716 91.3942 77.186 90.6075 77.2993C86.2542 76.5526 81.9009 75.8026 77.5475 75.0493C73.3475 74.3193 69.0175 74.6493 64.6475 74.3093C64.5115 74.3 64.3833 74.2414 64.286 74.1442C64.1888 74.0469 64.129 73.9175 64.1175 73.7793C63.7575 69.4593 63.2875 61.5193 61.7975 58.0393C60.9109 55.966 59.1175 54.7259 56.4175 54.3193L46.1475 71.9593C45.3675 73.306 44.6009 73.3193 43.8475 71.9993C37.1375 60.3293 32.6975 46.9893 25.6375 36.2393C23.4775 32.9526 20.6742 32.5093 17.2275 34.9093C12.2609 38.3693 8.24754 41.8459 5.18754 45.3393C4.76754 45.8126 4.3742 45.9826 4.00754 45.8493C3.88491 45.8016 3.79197 45.6853 3.74744 45.5239C3.70291 45.3625 3.7101 45.1679 3.76754 44.9793C6.39421 36.5393 10.7175 29.0793 16.7375 22.5993C16.8188 22.5158 16.9222 22.4573 17.0356 22.4307C17.149 22.4041 17.2677 22.4106 17.3775 22.4493L23.8675 24.7493C25.3409 25.2759 26.6342 24.9559 27.7475 23.7893C30.1542 21.2693 32.1875 18.5126 33.8475 15.5193C34.5075 14.3326 34.3309 14.2026 33.3175 15.1293C33.1975 15.2359 33.1009 15.366 33.0275 15.5193C31.4475 18.9193 29.0209 21.5093 25.7475 23.2893C25.5673 23.3885 25.3903 23.4613 25.2354 23.5C25.0805 23.5387 24.9534 23.5419 24.8675 23.5093L19.2775 21.3593C19.1816 21.3228 19.0979 21.2614 19.034 21.1806C18.97 21.0998 18.9277 21.0021 18.9109 20.8962C18.894 20.7902 18.9032 20.6794 18.9375 20.5735C18.9718 20.4676 19.0302 20.37 19.1075 20.2893C26.7675 12.4493 36.1975 5.2393 47.1275 2.9293C67.5975 -1.3907 95.0275 0.729275 109.608 17.7193ZM94.8275 32.8693C93.5942 33.2559 91.9375 33.286 89.8575 32.9593C82.4042 31.786 73.1509 31.2426 62.0975 31.3293C58.4042 31.356 54.9675 31.9126 51.7875 32.9993C41.6375 36.4593 53.9475 45.3393 57.4475 47.8793C66.5175 54.4393 74.1175 58.8193 85.9275 57.8093C87.0675 57.7093 87.3009 57.196 86.6275 56.2693C83.2975 51.7093 79.5675 45.6893 75.5675 42.5493C73.1275 40.6393 56.1675 33.9493 54.3575 36.4993C54.3252 36.5448 54.3069 36.598 54.3043 36.654C54.3018 36.7101 54.3151 36.7671 54.343 36.8199C54.3709 36.8727 54.4125 36.9196 54.464 36.9562C54.5154 36.9927 54.5751 37.0179 54.6375 37.0293C66.9775 39.0093 76.2175 43.2593 82.5475 54.5393C82.6054 54.6417 82.6358 54.7573 82.6356 54.8749C82.6355 54.9926 82.605 55.1086 82.5469 55.2118C82.4888 55.315 82.405 55.4019 82.3037 55.4645C82.2023 55.5271 82.0866 55.5632 81.9675 55.5693C70.3375 56.1493 59.3175 47.1393 50.8675 39.6493C45.9675 35.2993 57.4775 33.3893 59.2975 33.3693C68.9842 33.2559 79.7509 33.8926 91.5975 35.2793C94.2275 35.5893 96.0675 35.8493 98.5675 34.6693C100.801 33.616 100.721 32.3926 98.3275 30.9993C88.8675 25.4793 79.4375 19.8926 70.0375 14.2393C62.5275 9.7193 50.4075 3.56927 42.0575 9.27927C41.8921 9.39279 41.7553 9.52936 41.6726 9.66361C41.5898 9.79786 41.5667 9.92068 41.6075 10.0093C41.8609 10.556 42.2742 10.8993 42.8475 11.0393C42.9475 11.0634 43.0837 11.0168 43.2353 10.9066C43.387 10.7965 43.5458 10.6288 43.6875 10.4293C47.8175 4.6393 62.1075 11.9393 66.4475 14.6493C74.1475 19.4626 81.9675 24.0693 89.9075 28.4693C91.7942 29.5093 93.4775 30.796 94.9575 32.3293C94.9958 32.3692 95.0234 32.4181 95.0378 32.4715C95.0522 32.5249 95.053 32.581 95.0401 32.6348C95.0271 32.6886 95.0009 32.7382 94.9637 32.7792C94.9266 32.8202 94.8798 32.8511 94.8275 32.8693ZM53.1875 17.6893C54.2675 17.5093 56.1775 18.3993 56.5175 16.7993C56.5317 16.7377 56.5311 16.6736 56.5159 16.6116C56.5007 16.5495 56.4712 16.4909 56.4295 16.4396C56.3877 16.3884 56.3347 16.3458 56.274 16.3146C56.2132 16.2835 56.1462 16.2646 56.0775 16.2593C47.4775 15.6893 34.5575 22.0693 34.8775 32.0993C35.0042 36.2793 35.6509 40.856 36.8175 45.8293C36.883 46.1061 37.0402 46.3526 37.2635 46.5287C37.4868 46.7048 37.7631 46.8002 38.0475 46.7993C38.2675 46.7926 38.3309 46.5359 38.2375 46.0293C37.3509 41.4226 36.8809 36.7793 36.8275 32.0993C36.7375 24.0393 46.6975 18.7293 53.1875 17.6893ZM44.0275 29.9593C56.6375 26.8993 39.3275 27.8693 43.0875 29.8593C43.3584 30.0013 43.6924 30.0368 44.0275 29.9593ZM56.7675 86.6893C60.1375 94.5893 69.8875 94.3093 75.5775 89.3193C75.7525 89.1651 75.8974 89.0012 75.9911 88.8518C76.0847 88.7023 76.122 88.5753 76.0975 88.4893C75.7575 87.3626 74.9142 86.8026 73.5675 86.8093C73.4753 86.8122 73.3773 86.8707 73.2887 86.9755C73.2002 87.0804 73.1259 87.2258 73.0775 87.3893C72.6275 88.9493 72.0975 89.7593 70.4675 90.3293C65.4075 92.1026 61.3675 90.8659 58.3475 86.6193C58.1075 86.2893 57.4075 85.9693 57.0475 86.0293C56.9847 86.0421 56.9263 86.0706 56.8767 86.1127C56.827 86.1549 56.7873 86.2096 56.7605 86.2728C56.7336 86.3361 56.7203 86.4063 56.7215 86.4783C56.7228 86.5504 56.7385 86.6225 56.7675 86.6893Z" fill="#FBBA43"/>
<path d="M94.9595 32.3292C93.4795 30.7958 91.7962 29.5091 89.9095 28.4691C81.9695 24.0691 74.1495 19.4625 66.4495 14.6492C62.1095 11.9392 47.8195 4.63917 43.6895 10.4292C43.5478 10.6287 43.389 10.7963 43.2373 10.9065C43.0857 11.0166 42.9495 11.0632 42.8495 11.0392C42.2762 10.8992 41.8629 10.5558 41.6095 10.0092C41.5687 9.92055 41.5918 9.79773 41.6746 9.66348C41.7573 9.52923 41.8941 9.39266 42.0595 9.27915C50.4095 3.56915 62.5295 9.71917 70.0395 14.2392C79.4395 19.8925 88.8695 25.4791 98.3295 30.9991C100.723 32.3925 100.803 33.6158 98.5695 34.6692C96.0695 35.8492 94.2295 35.5891 91.5995 35.2791C79.7529 33.8925 68.9862 33.2558 59.2995 33.3691C57.4795 33.3891 45.9695 35.2992 50.8695 39.6492C59.3195 47.1392 70.3395 56.1492 81.9695 55.5692C82.0886 55.563 82.2043 55.527 82.3057 55.4644C82.4071 55.4018 82.4908 55.3148 82.5489 55.2116C82.607 55.1085 82.6375 54.9925 82.6376 54.8748C82.6378 54.7571 82.6074 54.6416 82.5495 54.5392C76.2195 43.2592 66.9795 39.0091 54.6395 37.0291C54.5771 37.0178 54.5174 36.9926 54.466 36.956C54.4145 36.9194 54.3729 36.8726 54.345 36.8198C54.3171 36.767 54.3038 36.7099 54.3063 36.6539C54.3089 36.5979 54.3272 36.5446 54.3595 36.4991C56.1695 33.9491 73.1295 40.6392 75.5695 42.5492C79.5695 45.6892 83.2995 51.7092 86.6295 56.2692C87.3029 57.1958 87.0695 57.7091 85.9295 57.8091C74.1195 58.8191 66.5195 54.4392 57.4495 47.8792C53.9495 45.3391 41.6395 36.4591 51.7895 32.9991C54.9695 31.9125 58.4062 31.3558 62.0995 31.3292C73.1529 31.2425 82.4062 31.7858 89.8595 32.9592C91.9395 33.2858 93.5962 33.2558 94.8295 32.8691C94.8818 32.851 94.9286 32.82 94.9657 32.7791C95.0029 32.7381 95.0291 32.6884 95.0421 32.6347C95.055 32.5809 95.0542 32.5248 95.0398 32.4714C95.0254 32.418 94.9978 32.3691 94.9595 32.3292Z" fill="#FEFBDB"/>
<path d="M53.1908 17.6894C46.7008 18.7294 36.7408 24.0394 36.8308 32.0994C36.8842 36.7794 37.3542 41.4227 38.2408 46.0294C38.3342 46.5361 38.2708 46.7928 38.0508 46.7994C37.7664 46.8003 37.4901 46.7049 37.2668 46.5288C37.0435 46.3527 36.8863 46.1062 36.8208 45.8294C35.6542 40.8561 35.0075 36.2794 34.8808 32.0994C34.5608 22.0694 47.4808 15.6894 56.0808 16.2594C56.1495 16.2648 56.2165 16.2837 56.2773 16.3148C56.338 16.3459 56.391 16.3885 56.4328 16.4397C56.4745 16.491 56.504 16.5496 56.5192 16.6117C56.5344 16.6738 56.535 16.7378 56.5208 16.7994C56.1808 18.3994 54.2708 17.5094 53.1908 17.6894Z" fill="#FAFAF7"/>
<path d="M109.609 17.7192C114.843 23.3592 118.273 30.2726 119.899 38.4593C124.299 60.6193 120.299 80.9792 107.899 99.5392C100.109 111.209 87.9394 117.989 74.1094 119.969C74.4027 118.843 74.0694 118.189 73.1094 118.009C68.056 117.076 61.556 116.063 53.6094 114.969L56.8594 112.799C60.8194 112.859 64.5827 112.096 68.1494 110.509C72.8027 108.196 76.806 104.859 80.1594 100.499L84.2094 96.9692C103.839 74.5992 112.569 47.4392 109.609 17.7192Z" fill="#FC533C"/>
<path d="M43.09 29.859C39.33 27.869 56.64 26.899 44.03 29.959C43.6949 30.0365 43.3609 30.001 43.09 29.859Z" fill="#F2DE8E"/>
<path d="M90.608 77.2993L93.108 78.2993C91.078 80.0893 77.088 77.2493 73.858 76.7393C69.968 76.1393 62.548 80.2193 61.968 72.5893C61.668 68.6793 61.618 62.5094 60.528 58.9594C60.028 57.3327 58.8913 56.1127 57.118 55.2993C57.6913 55.0727 57.458 54.746 56.418 54.3193C59.118 54.726 60.9113 55.966 61.798 58.0393C63.288 61.5193 63.758 69.4593 64.118 73.7793C64.1295 73.9175 64.1892 74.047 64.2865 74.1442C64.3837 74.2415 64.512 74.3 64.648 74.3093C69.018 74.6493 73.348 74.3193 77.548 75.0493C81.9013 75.8027 86.2546 76.5527 90.608 77.2993Z" fill="#FEFBDB"/>
<path d="M1.39844 74.5093V73.5093L16.0784 69.0593C17.7718 68.546 18.0484 67.6527 16.9084 66.3793C13.9684 63.0893 9.12844 61.1993 5.33844 58.7093C4.99844 58.4793 4.30844 57.4993 5.68844 57.9193C11.7684 59.7993 16.8218 62.8793 20.8484 67.1593C20.9447 67.2613 21 67.3953 21.0037 67.5355C21.0073 67.6757 20.9592 67.8124 20.8684 67.9193C17.5084 71.8593 4.88844 73.7893 1.39844 74.5093Z" fill="#FEFBDB"/>
<path d="M93.1082 78.2991L90.6082 77.2991C91.3949 77.1858 91.8416 76.7158 91.9482 75.8891C91.9695 75.7044 91.9523 75.5229 91.8982 75.3607C91.8442 75.1985 91.7549 75.0606 91.6382 74.9591L86.2982 70.3291C86.162 70.2123 86.0618 70.0663 86.016 69.9177C85.9701 69.769 85.9815 69.6276 86.0482 69.5191C86.4582 68.8591 97.9082 76.9591 93.1082 78.2991Z" fill="#F2DE8E"/>
<path d="M84.2098 96.9694L80.1598 100.499C75.5065 100.473 70.8665 100.646 66.2398 101.019C63.9498 101.209 60.8098 101.109 59.0498 100.399C57.1365 99.6194 55.7931 98.0327 55.0198 95.6394L53.1298 89.7494C53.1073 89.6801 53.069 89.6169 53.0171 89.5635C52.9653 89.5102 52.901 89.4677 52.8281 89.4388C52.7552 89.4098 52.6753 89.3949 52.5931 89.395C52.5109 89.3951 52.4282 89.4102 52.3498 89.4394C49.8832 90.3727 47.4231 91.2694 44.9698 92.1294C40.9298 93.5394 36.3298 91.4894 32.7698 89.6794C30.2998 88.4294 27.9498 88.2594 25.3698 87.6094C25.2315 87.5744 25.1111 87.4918 25.0331 87.3785C24.955 87.2651 24.9252 87.1295 24.9498 86.9994C25.2898 85.2194 26.6898 84.7494 28.3198 85.4294C31.8398 86.9194 39.4098 90.9694 43.0298 90.2894C46.7298 89.596 50.6265 88.086 54.7198 85.7594C55.7331 85.186 55.9198 85.3827 55.2798 86.3494C54.6331 87.3227 54.7132 88.386 55.5198 89.5394C55.7081 89.8123 55.8061 90.1239 55.7998 90.4294C55.6865 95.7694 58.1198 98.626 63.0998 98.9994C67.2598 99.3127 72.9498 98.8794 80.1698 97.6994C80.4631 97.6527 80.7598 97.5227 81.0598 97.3094C82.0665 96.5827 83.1165 96.4694 84.2098 96.9694Z" fill="#FEFBDB"/>
<path d="M75.5787 89.3193C69.8887 94.3093 60.1387 94.5893 56.7687 86.6893C56.7397 86.6224 56.724 86.5504 56.7227 86.4783C56.7215 86.4063 56.7348 86.3361 56.7616 86.2728C56.7885 86.2096 56.8282 86.1549 56.8778 86.1127C56.9275 86.0706 56.9859 86.0421 57.0487 86.0293C57.4087 85.9693 58.1087 86.2893 58.3487 86.6193C61.3687 90.8659 65.4087 92.1026 70.4687 90.3293C72.0987 89.7593 72.6287 88.9493 73.0787 87.3893C73.1271 87.2258 73.2014 87.0804 73.2899 86.9755C73.3785 86.8706 73.4765 86.8122 73.5687 86.8093C74.9154 86.8026 75.7587 87.3626 76.0987 88.4893C76.1232 88.5753 76.0858 88.7023 75.9922 88.8518C75.8986 89.0012 75.7537 89.1651 75.5787 89.3193Z" fill="#FEFBDB"/>
<path d="M68.148 110.509C64.5813 112.096 60.818 112.859 56.858 112.799C54.738 112.513 52.8747 111.073 51.268 108.479C50.6947 107.559 50.8947 107.343 51.868 107.829C56.668 110.269 62.818 109.659 68.148 110.509Z" fill="#FDFAC1"/>
<path d="M53.6077 114.969C61.5543 116.063 68.0543 117.076 73.1077 118.009C74.0676 118.189 74.401 118.843 74.1077 119.969C60.2877 121.619 44.4277 121.539 31.8477 115.479L53.6077 114.969Z" fill="#F74834"/>
</svg>
