<svg width="77" height="73" viewBox="0 0 77 73" fill="none" xmlns="http://www.w3.org/2000/svg">
<path d="M30.5778 1.22424C8.15781 4.10424 -3.0222 24.9342 2.3178 45.8442C3.97113 52.2909 7.26113 57.7542 12.1878 62.2342C18.7578 68.1942 23.8078 71.4042 32.6378 71.6842C49.5978 72.2142 69.4578 66.5442 73.8478 48.0042C77.1678 33.9942 78.6778 13.7842 62.1078 7.05424C53.6378 3.61424 39.5978 0.0642448 30.5778 1.22424Z" stroke="#FFB89D" stroke-width="2"/>
<path d="M28.3562 10.184C28.1836 9.93929 27.9573 9.73609 27.6903 9.58595C27.4232 9.43581 27.1206 9.34167 26.7998 9.30891C26.4789 9.27615 26.1462 9.30541 25.8204 9.39501C25.4946 9.48462 25.1821 9.63282 24.901 9.83115C24.6198 10.0295 24.3755 10.2741 24.1818 10.5509C23.9881 10.8278 23.8488 11.1315 23.7721 11.4448C23.6953 11.758 23.6825 12.0747 23.7344 12.3766C23.7862 12.6786 23.9018 12.9599 24.0744 13.2046C24.247 13.4492 24.4733 13.6524 24.7403 13.8026C25.0074 13.9527 25.3099 14.0468 25.6308 14.0796C25.9516 14.1124 26.2845 14.0831 26.6103 13.9935C26.9361 13.9039 27.2484 13.7557 27.5296 13.5574C27.8107 13.359 28.0552 13.1144 28.2489 12.8376C28.4426 12.5607 28.5817 12.257 28.6585 11.9437C28.7353 11.6305 28.7481 11.3138 28.6962 11.0119C28.6443 10.7099 28.5288 10.4286 28.3562 10.184Z" stroke="#CE4830" stroke-width="2"/>
<path d="M48.3459 22.2243C48.235 22.326 48.1586 22.4587 48.1222 22.6135C48.0857 22.7682 48.09 22.9413 48.1346 23.1208C48.1793 23.3003 48.2632 23.482 48.3808 23.6535C48.4984 23.825 48.6468 23.9822 48.8158 24.1143C51.5158 26.2143 52.7959 25.5076 52.6559 21.9943C52.5559 19.5676 51.7758 19.0343 50.3158 20.3943L48.3459 22.2243Z" stroke="#CE4830" stroke-width="2"/>
<path d="M26.8347 25.3143C24.7547 24.8943 22.9047 27.9143 24.6747 28.7143C24.8093 28.7737 24.9635 28.7893 25.1193 28.7592C25.2751 28.7291 25.4261 28.6546 25.5547 28.5443C26.3813 27.8176 26.9313 26.9476 27.2047 25.9343C27.223 25.8675 27.2279 25.7977 27.2189 25.7294C27.2099 25.6611 27.1873 25.5957 27.1525 25.5374C27.1177 25.4792 27.0715 25.4292 27.0168 25.3908C26.9621 25.3524 26.9001 25.3263 26.8347 25.3143Z" stroke="#BC422C" stroke-width="2"/>
<path d="M35.1369 29.2542C35.1185 29.3481 35.1214 29.4449 35.1454 29.5391C35.1694 29.6332 35.214 29.7226 35.2766 29.802C35.3392 29.8814 35.4184 29.949 35.5095 30.001C35.6006 30.0529 35.7018 30.088 35.8069 30.1042C39.1469 30.5976 39.9169 29.5709 38.1169 27.0242C38.0086 26.8716 37.8514 26.7606 37.6713 26.7097C37.4912 26.6587 37.2991 26.6709 37.1269 26.7442C36.0269 27.2109 35.3636 28.0476 35.1369 29.2542Z" stroke="#CE4830" stroke-width="2"/>
<path d="M55.298 37.3666C55.6626 37.6948 56.1956 37.8061 56.7796 37.6759C57.3637 37.5457 57.9511 37.1847 58.4125 36.6722C58.6409 36.4185 58.8316 36.1352 58.9736 35.8386C59.1156 35.542 59.2061 35.2378 59.24 34.9434C59.2739 34.649 59.2504 34.3702 59.1711 34.1229C59.0917 33.8757 58.9579 33.6647 58.7774 33.5022C58.4128 33.1739 57.8798 33.0626 57.2957 33.1928C56.7116 33.323 56.1243 33.684 55.6629 34.1965C55.4344 34.4502 55.2437 34.7335 55.1017 35.0301C54.9597 35.3267 54.8693 35.6309 54.8354 35.9253C54.8015 36.2197 54.8249 36.4985 54.9043 36.7458C54.9837 36.993 55.1174 37.204 55.298 37.3666Z" stroke="#CE4830" stroke-width="2"/>
<path d="M19.1372 41.5041C19.1372 41.0374 18.9518 40.5897 18.6217 40.2596C18.2916 39.9296 17.844 39.7441 17.3772 39.7441C16.9104 39.7441 16.4628 39.9296 16.1327 40.2596C15.8026 40.5897 15.6172 41.0374 15.6172 41.5041C15.6172 41.9709 15.8026 42.4186 16.1327 42.7486C16.4628 43.0787 16.9104 43.2641 17.3772 43.2641C17.844 43.2641 18.2916 43.0787 18.6217 42.7486C18.9518 42.4186 19.1372 41.9709 19.1372 41.5041Z" stroke="#BC422C" stroke-width="2"/>
<path d="M33.3248 40.4246C30.9948 44.1846 40.4647 43.9246 35.6147 40.0346C35.4437 39.8968 35.2454 39.7968 35.0328 39.7415C34.8203 39.6861 34.5984 39.6765 34.3818 39.7134C34.1653 39.7503 33.9591 39.8328 33.7768 39.9554C33.5946 40.078 33.4405 40.2379 33.3248 40.4246Z" stroke="#CE4830" stroke-width="2"/>
<path d="M58.9878 52.0645C59.0753 51.9195 59.1294 51.7561 59.1454 51.5883C59.1615 51.4204 59.139 51.2532 59.08 51.1008C59.0211 50.9484 58.9273 50.8155 58.8067 50.7134C58.6862 50.6113 58.5424 50.543 58.3878 50.5145C57.6145 50.3812 56.8879 50.4778 56.2079 50.8045C56.0788 50.8651 55.982 50.9883 55.9359 51.1506C55.8898 51.3129 55.8976 51.5029 55.9579 51.6845C56.7379 54.0045 57.7478 54.1312 58.9878 52.0645Z" stroke="#CE4830" stroke-width="2"/>
<path d="M32.3358 57.5745C32.4149 57.4402 32.465 57.2908 32.483 57.1362C32.501 56.9816 32.4863 56.8251 32.4401 56.677C32.3939 56.5289 32.3171 56.3925 32.2147 56.2766C32.1123 56.1607 31.9866 56.068 31.8459 56.0045C25.6159 53.1345 29.6758 62.0545 32.3358 57.5745Z" stroke="#CE4830" stroke-width="2"/>
<path d="M2.3178 45.8447C-3.0222 24.9347 8.15781 4.10473 30.5778 1.22473C39.5978 0.0647331 53.6378 3.61473 62.1078 7.05473C78.6778 13.7847 77.1678 33.9947 73.8478 48.0047C69.4578 66.5447 49.5978 72.2147 32.6378 71.6847C23.8078 71.4047 18.7578 68.1947 12.1878 62.2347C7.26113 57.7547 3.97113 52.2914 2.3178 45.8447ZM28.3587 10.1844C28.1861 9.93977 27.9598 9.73657 27.6928 9.58643C27.4257 9.43629 27.1231 9.34215 26.8023 9.30939C26.4814 9.27663 26.1487 9.30589 25.8229 9.39549C25.4971 9.4851 25.1846 9.6333 24.9035 9.83163C24.6223 10.03 24.378 10.2746 24.1843 10.5514C23.9906 10.8283 23.8513 11.132 23.7746 11.4453C23.6978 11.7585 23.685 12.0752 23.7369 12.3771C23.7887 12.679 23.9043 12.9604 24.0769 13.205C24.2495 13.4497 24.4758 13.6529 24.7428 13.803C25.0099 13.9532 25.3124 14.0473 25.6333 14.0801C25.9541 14.1128 26.287 14.0836 26.6128 13.994C26.9386 13.9044 27.2509 13.7562 27.5321 13.5578C27.8132 13.3595 28.0577 13.1149 28.2514 12.838C28.4451 12.5612 28.5842 12.2574 28.661 11.9442C28.7378 11.6309 28.7506 11.3143 28.6987 11.0124C28.6468 10.7104 28.5313 10.4291 28.3587 10.1844ZM48.3478 22.2247C48.2369 22.3264 48.1606 22.4592 48.1241 22.6139C48.0877 22.7686 48.0919 22.9417 48.1366 23.1212C48.1812 23.3007 48.2652 23.4825 48.3828 23.654C48.5004 23.8254 48.6488 23.9826 48.8178 24.1147C51.5178 26.2147 52.7978 25.5081 52.6578 21.9947C52.5578 19.5681 51.7778 19.0347 50.3178 20.3947L48.3478 22.2247ZM26.8378 25.3147C24.7578 24.8947 22.9078 27.9147 24.6778 28.7147C24.8124 28.7742 24.9666 28.7897 25.1224 28.7596C25.2782 28.7296 25.4292 28.655 25.5578 28.5447C26.3845 27.8181 26.9345 26.9481 27.2078 25.9347C27.2262 25.868 27.231 25.7982 27.222 25.7299C27.2131 25.6616 27.1904 25.5962 27.1556 25.5379C27.1208 25.4796 27.0747 25.4297 27.0199 25.3913C26.9652 25.3528 26.9032 25.3268 26.8378 25.3147ZM35.1378 29.2547C35.1194 29.3486 35.1223 29.4454 35.1463 29.5395C35.1703 29.6337 35.2149 29.7231 35.2775 29.8025C35.34 29.8818 35.4192 29.9495 35.5104 30.0015C35.6015 30.0534 35.7027 30.0885 35.8078 30.1047C39.1478 30.5981 39.9178 29.5714 38.1178 27.0247C38.0095 26.8721 37.8523 26.7611 37.6722 26.7102C37.4921 26.6592 37.3 26.6714 37.1278 26.7447C36.0278 27.2114 35.3645 28.0481 35.1378 29.2547ZM55.2981 37.3669C55.6627 37.6952 56.1957 37.8065 56.7798 37.6763C57.3638 37.5461 57.9512 37.1851 58.4126 36.6726C58.6411 36.4189 58.8318 36.1356 58.9737 35.839C59.1157 35.5423 59.2062 35.2382 59.2401 34.9438C59.274 34.6494 59.2506 34.3706 59.1712 34.1233C59.0918 33.876 58.9581 33.6651 58.7775 33.5025C58.4129 33.1742 57.8799 33.063 57.2958 33.1932C56.7117 33.3234 56.1244 33.6844 55.663 34.1968C55.4345 34.4506 55.2438 34.7338 55.1019 35.0305C54.9599 35.3271 54.8694 35.6313 54.8355 35.9257C54.8016 36.2201 54.825 36.4988 54.9044 36.7461C54.9838 36.9934 55.1175 37.2044 55.2981 37.3669ZM19.1378 41.5047C19.1378 41.0379 18.9524 40.5903 18.6223 40.2602C18.2922 39.9302 17.8446 39.7447 17.3778 39.7447C16.911 39.7447 16.4634 39.9302 16.1333 40.2602C15.8032 40.5903 15.6178 41.0379 15.6178 41.5047C15.6178 41.9715 15.8032 42.4192 16.1333 42.7492C16.4634 43.0793 16.911 43.2647 17.3778 43.2647C17.8446 43.2647 18.2922 43.0793 18.6223 42.7492C18.9524 42.4192 19.1378 41.9715 19.1378 41.5047ZM33.3278 40.4247C30.9978 44.1847 40.4678 43.9247 35.6178 40.0347C35.4468 39.8969 35.2484 39.797 35.0359 39.7416C34.8233 39.6862 34.6014 39.6767 34.3849 39.7135C34.1683 39.7504 33.9621 39.8329 33.7799 39.9555C33.5976 40.0781 33.4436 40.2381 33.3278 40.4247ZM58.9878 52.0647C59.0752 51.9197 59.1293 51.7563 59.1454 51.5885C59.1614 51.4206 59.139 51.2534 59.08 51.101C59.021 50.9486 58.9272 50.8157 58.8067 50.7136C58.6861 50.6115 58.5424 50.5433 58.3878 50.5147C57.6145 50.3814 56.8878 50.4781 56.2078 50.8047C56.0788 50.8653 55.982 50.9885 55.9359 51.1508C55.8898 51.3131 55.8976 51.5031 55.9578 51.6847C56.7378 54.0047 57.7478 54.1314 58.9878 52.0647ZM32.3378 57.5747C32.4169 57.4404 32.467 57.2911 32.485 57.1364C32.5029 56.9818 32.4883 56.8253 32.4421 56.6772C32.3958 56.5291 32.3191 56.3927 32.2167 56.2768C32.1143 56.161 31.9886 56.0683 31.8478 56.0047C25.6178 53.1347 29.6778 62.0547 32.3378 57.5747Z" fill="#FF7347"/>
<path d="M27.5312 13.5577C28.7136 12.7236 29.0837 11.2133 28.3578 10.1844C27.632 9.15543 26.085 8.99745 24.9026 9.83154C23.7202 10.6656 23.3501 12.1759 24.076 13.2049C24.8018 14.2338 26.3488 14.3918 27.5312 13.5577Z" fill="#9D1D18"/>
<path d="M48.3459 22.2248L50.3158 20.3948C51.7758 19.0348 52.5559 19.5681 52.6559 21.9948C52.7959 25.5081 51.5158 26.2148 48.8158 24.1148C48.6468 23.9827 48.4984 23.8255 48.3808 23.654C48.2632 23.4825 48.1793 23.3008 48.1346 23.1213C48.09 22.9417 48.0857 22.7687 48.1222 22.6139C48.1586 22.4592 48.235 22.3265 48.3459 22.2248Z" fill="#9D1D18"/>
<path d="M24.6786 28.7148C22.9086 27.9148 24.7586 24.8948 26.8386 25.3148C26.904 25.3268 26.966 25.3529 27.0207 25.3913C27.0754 25.4297 27.1216 25.4796 27.1564 25.5379C27.1912 25.5962 27.2138 25.6616 27.2228 25.7299C27.2318 25.7982 27.2269 25.868 27.2086 25.9348C26.9353 26.9481 26.3852 27.8181 25.5586 28.5448C25.43 28.655 25.279 28.7296 25.1232 28.7597C24.9674 28.7898 24.8132 28.7742 24.6786 28.7148Z" fill="#791011"/>
<path d="M35.1369 29.2547C35.3636 28.0481 36.0269 27.2114 37.1269 26.7447C37.2991 26.6714 37.4912 26.6592 37.6713 26.7102C37.8514 26.7611 38.0086 26.8721 38.1169 27.0247C39.9169 29.5714 39.1469 30.5981 35.8069 30.1047C35.7018 30.0885 35.6006 30.0534 35.5095 30.0015C35.4184 29.9495 35.3392 29.8818 35.2766 29.8025C35.214 29.7231 35.1694 29.6337 35.1454 29.5395C35.1214 29.4454 35.1185 29.3485 35.1369 29.2547Z" fill="#9D1D18"/>
<path d="M55.663 34.1966C54.7021 35.2637 54.5388 36.683 55.298 37.3667C56.0573 38.0504 57.4518 37.7395 58.4126 36.6724C59.3734 35.6053 59.5368 34.186 58.7775 33.5023C58.0182 32.8187 56.6238 33.1295 55.663 34.1966Z" fill="#9D1D18"/>
<path d="M17.3772 43.2646C18.3492 43.2646 19.1372 42.4766 19.1372 41.5046C19.1372 40.5326 18.3492 39.7446 17.3772 39.7446C16.4052 39.7446 15.6172 40.5326 15.6172 41.5046C15.6172 42.4766 16.4052 43.2646 17.3772 43.2646Z" fill="#791011"/>
<path d="M33.3248 40.4246C33.4405 40.2379 33.5946 40.078 33.7768 39.9554C33.9591 39.8328 34.1653 39.7503 34.3818 39.7134C34.5984 39.6765 34.8203 39.6861 35.0328 39.7415C35.2454 39.7968 35.4437 39.8968 35.6147 40.0346C40.4647 43.9246 30.9948 44.1846 33.3248 40.4246Z" fill="#9D1D18"/>
<path d="M58.9878 52.0645C57.7478 54.1312 56.7379 54.0045 55.9579 51.6845C55.8976 51.5029 55.8898 51.3129 55.9359 51.1506C55.982 50.9883 56.0788 50.8651 56.2079 50.8045C56.8879 50.4778 57.6145 50.3812 58.3878 50.5145C58.5424 50.543 58.6862 50.6113 58.8067 50.7134C58.9273 50.8155 59.0211 50.9484 59.08 51.1008C59.139 51.2532 59.1615 51.4204 59.1454 51.5883C59.1294 51.7561 59.0753 51.9195 58.9878 52.0645Z" fill="#9D1D18"/>
<path d="M32.3358 57.5745C29.6758 62.0545 25.6159 53.1345 31.8459 56.0045C31.9866 56.068 32.1123 56.1607 32.2147 56.2766C32.3171 56.3925 32.3939 56.5289 32.4401 56.677C32.4863 56.8251 32.501 56.9816 32.483 57.1362C32.465 57.2908 32.4149 57.4402 32.3358 57.5745Z" fill="#9D1D18"/>
</svg>
