<svg width="87" height="82" viewBox="0 0 87 82" fill="none" xmlns="http://www.w3.org/2000/svg">
<path d="M3.20267 33.2774C7.22267 36.3674 14.8227 37.9774 20.5027 41.5174C22.5693 42.8041 22.766 44.3974 21.0927 46.2974C17.4127 50.4641 13.8827 54.5908 10.5027 58.6774C9.52933 59.8574 9.59266 60.9808 10.6927 62.0474C12.246 63.5541 13.9693 63.7041 15.8626 62.4974C20.1426 59.7574 24.506 57.1475 28.9527 54.6675C30.8827 53.5975 32.5726 52.3475 32.7326 55.9775C32.826 58.2108 33.2293 64.5508 33.9427 74.9974C33.9684 75.3303 34.1158 75.6323 34.3527 75.8374C39.0427 79.8674 41.4427 75.6574 42.7827 71.5174C44.5127 66.1374 45.2127 62.4975 47.9527 59.0075C47.9949 58.9555 48.0469 58.9121 48.1054 58.88C48.164 58.8478 48.228 58.8274 48.294 58.82C48.3599 58.8126 48.4265 58.8182 48.4897 58.8367C48.553 58.8551 48.6118 58.8859 48.6627 58.9274C55.9227 64.7474 63.4927 82.2974 69.4627 80.4974C71.6927 79.8274 72.3627 77.7475 71.7027 75.5375C69.5427 68.2075 66.5727 61.3074 64.9327 53.8274C63.2627 46.1974 67.4327 44.9774 73.4127 42.6774C76.2127 41.5974 83.2327 40.3774 84.7727 37.8374C85.8127 36.1374 85.4927 34.7541 83.8127 33.6874C78.3727 30.2374 71.6527 30.5774 65.4027 28.8274C65.1858 28.7669 65.001 28.6237 64.8872 28.4279C64.7735 28.2321 64.7396 27.9989 64.7927 27.7774C66.5027 20.8374 70.0626 11.8974 70.2326 5.02744C70.2392 4.68938 70.1482 4.37068 69.9727 4.11744C66.7727 -0.442563 62.9226 3.61745 60.6726 6.37745C56.8926 11.0174 53.1093 15.6474 49.3227 20.2674C49.2612 20.345 49.1816 20.406 49.0907 20.4454C48.9998 20.4847 48.9003 20.5012 48.8009 20.4933C48.7015 20.4854 48.6052 20.4535 48.5201 20.4002C48.4351 20.3469 48.3639 20.2739 48.3127 20.1874C45.8427 15.9674 38.6927 0.907442 33.3127 1.10744C30.746 1.20744 29.806 3.07411 30.4926 6.70745C31.606 12.5741 32.7926 18.5574 34.0526 24.6574C34.3326 26.0308 33.7727 26.7374 32.3727 26.7774C23.6927 27.0074 14.4127 25.6674 5.70267 27.0774C2.38267 27.6174 -0.857329 30.1674 3.20267 33.2774Z" stroke="#FFDA9B" stroke-width="2"/>
<path d="M3.20267 33.2774C-0.857329 30.1674 2.38267 27.6174 5.70267 27.0774C14.4127 25.6674 23.6927 27.0074 32.3727 26.7774C33.7727 26.7374 34.3326 26.0308 34.0526 24.6574C32.7926 18.5574 31.606 12.5741 30.4926 6.70745C29.806 3.07411 30.746 1.20744 33.3127 1.10744C38.6927 0.907442 45.8427 15.9674 48.3127 20.1874C48.3638 20.2739 48.4351 20.3469 48.5201 20.4002C48.6052 20.4535 48.7015 20.4854 48.8009 20.4933C48.9003 20.5012 48.9998 20.4847 49.0907 20.4454C49.1816 20.406 49.2612 20.345 49.3227 20.2674C53.1093 15.6474 56.8926 11.0174 60.6726 6.37745C62.9226 3.61745 66.7727 -0.442563 69.9727 4.11744C70.1482 4.37068 70.2392 4.68938 70.2326 5.02744C70.0626 11.8974 66.5027 20.8374 64.7927 27.7774C64.7396 27.9989 64.7735 28.2321 64.8872 28.4279C65.001 28.6237 65.1858 28.7669 65.4027 28.8274C71.6527 30.5774 78.3727 30.2374 83.8127 33.6874C85.4927 34.7541 85.8127 36.1374 84.7727 37.8374C83.2327 40.3774 76.2127 41.5974 73.4127 42.6774C67.4327 44.9774 63.2627 46.1974 64.9327 53.8274C66.5727 61.3074 69.5427 68.2075 71.7027 75.5375C72.3627 77.7475 71.6927 79.8274 69.4627 80.4974C63.4927 82.2974 55.9227 64.7474 48.6627 58.9274C48.6118 58.8859 48.553 58.8551 48.4897 58.8367C48.4265 58.8182 48.3599 58.8125 48.294 58.82C48.228 58.8274 48.164 58.8478 48.1054 58.88C48.0469 58.9121 47.9949 58.9555 47.9527 59.0075C45.2127 62.4975 44.5127 66.1374 42.7827 71.5174C41.4427 75.6574 39.0427 79.8674 34.3527 75.8374C34.1158 75.6323 33.9684 75.3303 33.9427 74.9974C33.2293 64.5508 32.826 58.2108 32.7326 55.9775C32.5726 52.3475 30.8827 53.5975 28.9527 54.6675C24.506 57.1475 20.1426 59.7574 15.8626 62.4974C13.9693 63.7041 12.246 63.5541 10.6927 62.0474C9.59266 60.9808 9.52933 59.8574 10.5027 58.6774C13.8827 54.5908 17.4127 50.4641 21.0927 46.2974C22.766 44.3974 22.5693 42.8041 20.5027 41.5174C14.8227 37.9774 7.22267 36.3674 3.20267 33.2774Z" fill="#FFB53A"/>
</svg>
