<svg width="33" height="20" viewBox="0 0 33 20" fill="none" xmlns="http://www.w3.org/2000/svg">
<path d="M1.56924 4.48145L13.7692 11.0214C14.0949 11.1959 14.3554 11.4649 14.5094 11.7855C14.6634 12.1062 14.7021 12.4603 14.6192 12.7914C14.2292 14.2814 12.0992 18.6914 15.6892 18.4014C15.869 18.3892 16.041 18.3394 16.192 18.2562C16.3429 18.1729 16.4686 18.0583 16.5592 17.9215L18.3492 15.2315C18.6026 14.8532 18.9722 14.5577 19.4138 14.3803C19.8554 14.203 20.3502 14.1513 20.8392 14.2315L30.3292 15.7914C30.4635 15.8136 30.6166 15.7963 30.7774 15.741C30.9383 15.6856 31.1029 15.5936 31.2592 15.4714C32.6892 14.3514 31.7892 13.1914 30.4192 12.6614C26.6992 11.2014 21.7892 7.71142 18.0792 7.20142C13.4592 6.57142 8.44923 3.73141 4.08923 1.94141C2.7159 1.37474 1.7259 1.72145 1.11923 2.98145C0.990088 3.24985 0.964781 3.5553 1.04855 3.83454C1.13233 4.11378 1.31877 4.34542 1.56924 4.48145Z" stroke="#FFDD9D" stroke-width="2"/>
<path d="M1.56924 4.48194C1.31877 4.34591 1.13233 4.11427 1.04855 3.83503C0.964781 3.55578 0.990088 3.25034 1.11923 2.98194C1.7259 1.72194 2.7159 1.37523 4.08923 1.9419C8.44923 3.7319 13.4592 6.57191 18.0792 7.20191C21.7892 7.71191 26.6992 11.2019 30.4192 12.6619C31.7892 13.1919 32.6892 14.3519 31.2592 15.4719C31.1029 15.5941 30.9383 15.6861 30.7774 15.7415C30.6166 15.7968 30.4635 15.8141 30.3292 15.7919L20.8392 14.2319C20.3502 14.1518 19.8554 14.2035 19.4138 14.3808C18.9722 14.5581 18.6026 14.8536 18.3492 15.2319L16.5592 17.9219C16.4686 18.0588 16.3429 18.1734 16.192 18.2567C16.041 18.3399 15.869 18.3896 15.6892 18.4019C12.0992 18.6919 14.2292 14.2819 14.6192 12.7919C14.7021 12.4607 14.6634 12.1067 14.5094 11.786C14.3554 11.4654 14.0949 11.1964 13.7692 11.0219L1.56924 4.48194Z" fill="#FFBC3D"/>
</svg>
