<svg width="88" height="89" viewBox="0 0 88 89" fill="none" xmlns="http://www.w3.org/2000/svg">
<path d="M1.67505 62.2548C3.84643 72.6448 15.1758 82.4748 24.9269 86.3748C40.4985 92.6148 67.0074 75.2148 78.6887 65.3248C85.7255 59.3748 91.1037 52.1048 80.5484 45.5048C72.4861 40.4648 63.9011 39.2381 54.7934 41.8248C52.813 42.3848 50.9231 42.1948 49.4052 41.0348C49.2709 40.9307 49.1586 40.8014 49.0747 40.6543C48.9908 40.5072 48.9371 40.3452 48.9165 40.1778C48.896 40.0104 48.909 39.8408 48.9549 39.6789C49.0009 39.5171 49.0787 39.3661 49.1841 39.2348C54.4316 32.5848 62.4435 18.1548 58.332 9.6348C50.8126 -5.9152 26.3745 2.22476 18.6037 13.0248C8.94311 26.4448 -1.82329 45.4948 1.67505 62.2548Z" stroke="#FED693" stroke-width="2"/>
<path d="M28.0136 70.0353C28.0036 70.9353 27.3702 75.5754 28.4358 75.5054C28.4994 75.5002 28.5611 75.4806 28.6171 75.4478C28.6732 75.415 28.7225 75.3697 28.7619 75.3146C28.8014 75.2594 28.8302 75.1956 28.8467 75.127C28.8633 75.0584 28.8671 74.9864 28.858 74.9153C28.4894 72.1553 29.4109 70.4887 31.6225 69.9153C39.7652 67.8053 48.9232 61.0053 55.578 55.6453C56.3487 55.0253 56.9251 54.262 57.3071 53.3553C58.0108 51.6887 58.051 50.6754 57.4277 50.3154C57.3069 50.2439 57.1528 50.2258 56.9892 50.2638C56.8256 50.3018 56.6618 50.3937 56.5231 50.5253C49.446 57.1787 41.4842 62.5153 32.6379 66.5353C30.9155 67.322 30.1313 66.8087 30.2854 64.9954L31.2003 54.0554C31.2941 52.9687 31.78 52.1287 32.658 51.5353C36.8198 48.7153 40.1975 45.162 42.791 40.8754C43.2468 40.122 43.1194 40.002 42.409 40.5154C40.8911 41.6254 33.8944 47.3954 32.4971 46.9354C32.3657 46.8938 32.2543 46.8007 32.1826 46.6726C32.1108 46.5445 32.0833 46.3896 32.105 46.2353C33.3985 36.8687 35.7005 27.7587 39.0112 18.9053C39.5742 17.4053 39.2559 17.162 38.0563 18.1753C33.9749 21.6353 31.331 39.5854 30.7479 45.0054C30.6005 46.332 30.1213 46.5854 29.3104 45.7654C26.0667 42.5054 23.386 38.832 21.2682 34.7454C20.1021 32.4954 18.0111 33.5653 19.1069 35.9753C21.6066 41.4687 25.2088 46.1454 29.9135 50.0054C30.0244 50.0948 30.1036 50.2175 30.1398 50.3559C30.1759 50.4943 30.1671 50.6411 30.1146 50.7753C28.6771 54.4753 29.1094 60.2754 28.7575 64.3054C28.6704 65.2854 28.2213 65.4887 27.4104 64.9153C22.3237 61.3153 18.6546 56.9853 14.4325 52.4653C13.1357 51.0753 11.1351 51.2953 12.7134 53.7153C16.7009 59.8487 21.667 65.0287 27.6115 69.2554C27.7391 69.3482 27.8423 69.4676 27.9123 69.6034C27.9823 69.7392 28.0172 69.8874 28.0136 70.0353Z" stroke="#936C33" stroke-width="2"/>
<path d="M24.9269 86.3748C15.1758 82.4748 3.84643 72.6448 1.67505 62.2548C-1.82329 45.4948 8.94311 26.4448 18.6037 13.0248C26.3745 2.22476 50.8126 -5.9152 58.332 9.6348C62.4435 18.1548 54.4316 32.5848 49.1841 39.2348C49.0787 39.3661 49.0009 39.5171 48.9549 39.6789C48.909 39.8408 48.896 40.0104 48.9165 40.1778C48.9371 40.3452 48.9908 40.5072 49.0747 40.6543C49.1586 40.8014 49.2709 40.9307 49.4052 41.0348C50.9231 42.1948 52.813 42.3848 54.7934 41.8248C63.9011 39.2381 72.4861 40.4648 80.5484 45.5048C91.1037 52.1048 85.7255 59.3748 78.6887 65.3248C67.0074 75.2148 40.4985 92.6148 24.9269 86.3748ZM28.0132 70.0348C28.0031 70.9348 27.3697 75.5748 28.4353 75.5048C28.4989 75.4996 28.5606 75.48 28.6167 75.4472C28.6727 75.4145 28.722 75.3691 28.7615 75.314C28.8009 75.2589 28.8298 75.1951 28.8463 75.1264C28.8628 75.0578 28.8667 74.9858 28.8576 74.9148C28.489 72.1548 29.4104 70.4881 31.622 69.9148C39.7647 67.8048 48.9227 61.0048 55.5775 55.6448C56.3483 55.0248 56.9246 54.2614 57.3066 53.3548C58.0103 51.6881 58.0505 50.6748 57.4272 50.3148C57.3065 50.2434 57.1523 50.2253 56.9888 50.2632C56.8252 50.3012 56.6613 50.3931 56.5226 50.5248C49.4455 57.1781 41.4837 62.5148 32.6374 66.5348C30.915 67.3214 30.1308 66.8081 30.285 64.9948L31.1998 54.0548C31.2936 52.9681 31.7796 52.1281 32.6575 51.5348C36.8193 48.7148 40.197 45.1615 42.7906 40.8748C43.2463 40.1215 43.1189 40.0015 42.4086 40.5148C40.8906 41.6248 33.8939 47.3948 32.4966 46.9348C32.3653 46.8933 32.2539 46.8002 32.1821 46.672C32.1103 46.5439 32.0828 46.389 32.1045 46.2348C33.398 36.8681 35.7001 27.7581 39.0107 18.9048C39.5737 17.4048 39.2554 17.1614 38.0558 18.1748C33.9744 21.6348 31.3305 39.5848 30.7475 45.0048C30.6 46.3315 30.1208 46.5848 29.3099 45.7648C26.0662 42.5048 23.3855 38.8315 21.2677 34.7448C20.1016 32.4948 18.0106 33.5648 19.1064 35.9748C21.6061 41.4681 25.2084 46.1448 29.913 50.0048C30.0239 50.0942 30.1032 50.2169 30.1393 50.3553C30.1754 50.4937 30.1666 50.6406 30.1141 50.7748C28.6766 54.4748 29.1089 60.2748 28.757 64.3048C28.6699 65.2848 28.2208 65.4881 27.4099 64.9148C22.3232 61.3148 18.6541 56.9848 14.432 52.4648C13.1352 51.0748 11.1346 51.2948 12.7129 53.7148C16.7004 59.8481 21.6665 65.0281 27.611 69.2548C27.7386 69.3476 27.8418 69.467 27.9118 69.6028C27.9818 69.7387 28.0167 69.8869 28.0132 70.0348Z" fill="#FEB436"/>
<path d="M28.0655 69.2554C22.1522 65.0287 17.2121 59.8487 13.2455 53.7153C11.6755 51.2953 13.6656 51.0753 14.9556 52.4653C19.1556 56.9853 22.8055 61.3153 27.8655 64.9153C28.6721 65.4887 29.1189 65.2854 29.2056 64.3054C29.5556 60.2754 29.1255 54.4753 30.5555 50.7753C30.6077 50.6411 30.6165 50.4943 30.5806 50.3559C30.5446 50.2175 30.4657 50.0948 30.3555 50.0054C25.6755 46.1454 22.0921 41.4687 19.6055 35.9753C18.5155 33.5653 20.5955 32.4954 21.7555 34.7454C23.8622 38.832 26.5288 42.5054 29.7555 45.7654C30.5622 46.5854 31.0389 46.332 31.1855 45.0054C31.7655 39.5854 34.3956 21.6353 38.4556 18.1753C39.6489 17.162 39.9655 17.4053 39.4055 18.9053C36.1122 27.7587 33.8222 36.8687 32.5355 46.2353C32.5139 46.3896 32.5413 46.5445 32.6127 46.6726C32.684 46.8007 32.7949 46.8938 32.9255 46.9354C34.3155 47.3954 41.2755 41.6254 42.7855 40.5154C43.4922 40.002 43.6189 40.122 43.1655 40.8754C40.5855 45.162 37.2256 48.7153 33.0856 51.5353C32.2122 52.1287 31.7288 52.9687 31.6355 54.0554L30.7255 64.9954C30.5721 66.8087 31.3522 67.322 33.0655 66.5353C41.8655 62.5153 49.7856 57.1787 56.8256 50.5253C56.9636 50.3937 57.1266 50.3018 57.2893 50.2638C57.452 50.2258 57.6053 50.2439 57.7255 50.3154C58.3455 50.6754 58.3055 51.6887 57.6055 53.3553C57.2255 54.262 56.6522 55.0253 55.8855 55.6453C49.2655 61.0053 40.1555 67.8053 32.0555 69.9153C29.8555 70.4887 28.9389 72.1553 29.3055 74.9153C29.3146 74.9864 29.3107 75.0584 29.2943 75.127C29.2779 75.1956 29.2492 75.2594 29.21 75.3146C29.1707 75.3697 29.1217 75.415 29.0659 75.4478C29.0101 75.4806 28.9488 75.5002 28.8855 75.5054C27.8255 75.5754 28.4556 70.9353 28.4656 70.0353C28.4691 69.8874 28.4344 69.7392 28.3647 69.6034C28.2951 69.4676 28.1925 69.3482 28.0655 69.2554Z" fill="#27232F"/>
</svg>
