<svg width="132" height="142" viewBox="0 0 132 142" fill="none" xmlns="http://www.w3.org/2000/svg">
<path d="M104.286 32.3386C104.496 19.9786 96.7263 7.47854 85.1763 2.88854C71.8363 -2.42146 62.1863 4.19854 53.0063 13.6385C52.9023 13.746 52.7703 13.8212 52.6264 13.8549C52.4826 13.8887 52.3331 13.8795 52.1963 13.8285C39.7896 9.30854 28.023 9.73189 16.8963 15.0986C-5.48371 25.8886 -1.14371 49.8085 11.0363 66.5185C11.1201 66.6343 11.1644 66.7743 11.1626 66.9182C11.1608 67.0622 11.113 67.2024 11.0263 67.3186C5.35296 75.0119 3.09296 83.2885 4.24629 92.1485C5.33629 100.509 10.4163 111.019 17.2963 116.339C22.8063 120.599 28.8263 121.849 36.1063 122.219C36.2551 122.224 36.3992 122.273 36.5215 122.358C36.6438 122.443 36.7391 122.561 36.7963 122.699C41.7463 134.729 53.5763 145.709 67.1863 138.379C71.733 135.932 75.283 132.785 77.8363 128.939C78.483 127.959 79.373 127.635 80.5063 127.969C87.4463 130.019 95.1263 132.009 101.986 129.529C120.076 123.019 122.396 100.969 116.436 85.3186C116.382 85.1824 116.371 85.0321 116.403 84.8865C116.435 84.7408 116.509 84.606 116.616 84.4986C130.396 70.6486 139.876 44.0385 115.296 34.4185C112.146 33.1785 108.246 33.3585 104.756 32.8985C104.625 32.8814 104.505 32.815 104.418 32.7118C104.331 32.6085 104.285 32.4757 104.286 32.3386Z" stroke="#959399" stroke-width="2"/>
<path d="M79.3705 28.4976C79.4627 28.2803 79.2262 27.934 78.7131 27.5349C78.2001 27.1358 77.4524 26.7166 76.6346 26.3695C76.2296 26.1976 75.8197 26.0486 75.428 25.9309C75.0364 25.8133 74.6708 25.7293 74.3522 25.6838C74.0336 25.6384 73.7681 25.6323 73.5709 25.6659C73.3737 25.6995 73.2488 25.7722 73.2031 25.8798C73.111 26.0971 73.3474 26.4434 73.8605 26.8424C74.3736 27.2415 75.1212 27.6607 75.939 28.0079C76.344 28.1798 76.754 28.3288 77.1456 28.4465C77.5372 28.5641 77.9028 28.648 78.2214 28.6935C78.5401 28.739 78.8056 28.7451 79.0027 28.7115C79.1999 28.6779 79.3249 28.6052 79.3705 28.4976Z" stroke="#5D5A6A" stroke-width="2"/>
<path d="M55.4253 27.0782C51.9553 28.0482 43.0753 33.0282 44.0053 37.5082C44.132 38.1149 44.3753 38.1682 44.7353 37.6682C47.7287 33.5549 51.352 30.0915 55.6053 27.2782C56.0387 26.9915 55.9787 26.9249 55.4253 27.0782Z" stroke="#8B8891" stroke-width="2"/>
<path d="M88.5878 56.4182C89.4145 52.8515 88.6378 49.7048 86.2578 46.9782C85.8578 46.5115 85.6978 46.5815 85.7778 47.1882C85.8278 47.5282 87.8178 59.7482 88.5878 56.4182Z" stroke="#939098" stroke-width="2"/>
<path d="M37.8091 63.361C37.9542 63.3294 38.0475 63.089 38.0686 62.6928C38.0897 62.2967 38.0368 61.7772 37.9216 61.2486C37.8063 60.72 37.6381 60.2256 37.454 59.8741C37.2699 59.5227 37.085 59.343 36.9399 59.3747C36.7948 59.4063 36.7014 59.6467 36.6803 60.0429C36.6592 60.439 36.7121 60.9586 36.8274 61.4871C36.9426 62.0158 37.1108 62.5101 37.2949 62.8616C37.479 63.213 37.664 63.3927 37.8091 63.361Z" stroke="#3A3444" stroke-width="2"/>
<path d="M84.8981 74.0492C85.0441 74.1125 85.2903 73.9289 85.5827 73.5386C85.875 73.1484 86.1896 72.5835 86.4571 71.9682C86.7247 71.3528 86.9233 70.7375 87.0093 70.2575C87.0953 69.7775 87.0616 69.4722 86.9157 69.4088C86.7697 69.3454 86.5235 69.5291 86.2311 69.9193C85.9388 70.3096 85.6242 70.8745 85.3567 71.4897C85.0891 72.1051 84.8905 72.7204 84.8045 73.2004C84.7185 73.6804 84.7522 73.9857 84.8981 74.0492Z" stroke="#5D5A6A" stroke-width="2"/>
<path d="M72.0367 86.3281C73.5367 86.2881 74.87 85.4181 76.0367 83.7181C76.3633 83.2381 76.16 83.0281 75.4267 83.0881C74.0267 83.2015 72.64 83.6548 71.2667 84.4481C68.9667 85.7614 69.2233 86.3881 72.0367 86.3281Z" stroke="#666373" stroke-width="2"/>
<path d="M47.9057 89.248C48.959 89.968 49.889 90.2847 50.6957 90.198C51.7157 90.0914 52.089 89.548 51.8157 88.568C51.7756 88.4232 51.6944 88.2881 51.5793 88.1748C51.4642 88.0614 51.3187 87.9732 51.1557 87.918C48.8157 87.118 46.7357 85.8714 44.9157 84.178C44.289 83.598 44.0424 83.7514 44.1757 84.638C44.4157 86.1714 45.659 87.708 47.9057 89.248Z" stroke="#939098" stroke-width="2"/>
<path d="M104.756 32.8985C108.246 33.3585 112.146 33.1785 115.296 34.4185C139.876 44.0385 130.396 70.6486 116.616 84.4986C116.509 84.6059 116.435 84.7408 116.403 84.8865C116.371 85.0322 116.382 85.1824 116.436 85.3186C122.396 100.969 120.076 123.019 101.986 129.529C95.1263 132.009 87.4463 130.019 80.5063 127.969C79.373 127.635 78.483 127.959 77.8363 128.939C75.283 132.785 71.733 135.932 67.1863 138.379C53.5763 145.709 41.7463 134.729 36.7963 122.699C36.7391 122.561 36.6438 122.443 36.5215 122.358C36.3992 122.273 36.2551 122.224 36.1063 122.219C28.8263 121.849 22.8063 120.599 17.2963 116.339C10.4163 111.019 5.33629 100.509 4.24629 92.1485C3.09296 83.2885 5.35296 75.0119 11.0263 67.3186C11.113 67.2024 11.1608 67.0621 11.1626 66.9182C11.1644 66.7743 11.1201 66.6343 11.0363 66.5185C-1.14371 49.8085 -5.48371 25.8886 16.8963 15.0986C28.023 9.73189 39.7896 9.30854 52.1963 13.8285C52.3331 13.8795 52.4826 13.8887 52.6264 13.8549C52.7703 13.8212 52.9023 13.746 53.0063 13.6385C62.1863 4.19854 71.8363 -2.42146 85.1763 2.88854C96.7263 7.47854 104.496 19.9785 104.286 32.3386C104.285 32.4757 104.331 32.6085 104.418 32.7118C104.505 32.815 104.625 32.8814 104.756 32.8985ZM79.37 28.4975C79.4621 28.2802 79.2257 27.9339 78.7126 27.5348C78.1995 27.1357 77.4519 26.7165 76.6341 26.3693C76.2291 26.1974 75.8191 26.0484 75.4275 25.9308C75.0359 25.8131 74.6703 25.7292 74.3517 25.6837C74.033 25.6382 73.7675 25.6321 73.5704 25.6658C73.3732 25.6994 73.2483 25.7721 73.2026 25.8797C73.1104 26.097 73.3469 26.4432 73.86 26.8423C74.373 27.2414 75.1207 27.6606 75.9385 28.0077C76.3435 28.1796 76.7535 28.3287 77.1451 28.4463C77.5367 28.5639 77.9023 28.6479 78.2209 28.6934C78.5396 28.7389 78.805 28.745 79.0022 28.7114C79.1993 28.6777 79.3243 28.605 79.37 28.4975ZM55.4263 27.0785C51.9563 28.0485 43.0763 33.0285 44.0063 37.5085C44.133 38.1152 44.3763 38.1685 44.7363 37.6685C47.7296 33.5552 51.353 30.0919 55.6063 27.2786C56.0396 26.9919 55.9796 26.9252 55.4263 27.0785ZM88.5863 56.4185C89.413 52.8519 88.6363 49.7052 86.2563 46.9785C85.8563 46.5119 85.6963 46.5819 85.7763 47.1886C85.8263 47.5286 87.8163 59.7485 88.5863 56.4185ZM37.8109 63.3617C37.956 63.3301 38.0493 63.0897 38.0704 62.6935C38.0915 62.2974 38.0387 61.7779 37.9234 61.2493C37.8081 60.7206 37.64 60.2263 37.4559 59.8748C37.2718 59.5234 37.0868 59.3437 36.9417 59.3754C36.7966 59.407 36.7032 59.6474 36.6821 60.0436C36.661 60.4397 36.7139 60.9592 36.8292 61.4878C36.9444 62.0164 37.1126 62.5108 37.2967 62.8623C37.4808 63.2137 37.6658 63.3934 37.8109 63.3617ZM84.8975 74.0488C85.0434 74.1121 85.2897 73.9284 85.5821 73.5382C85.8744 73.1479 86.189 72.583 86.4565 71.9678C86.724 71.3524 86.9227 70.7371 87.0087 70.2571C87.0947 69.7771 87.061 69.4718 86.9151 69.4083C86.7691 69.345 86.5229 69.5286 86.2305 69.9189C85.9382 70.3092 85.6236 70.874 85.3561 71.4893C85.0885 72.1047 84.8899 72.72 84.8039 73.2C84.7179 73.68 84.7516 73.9853 84.8975 74.0488ZM72.0363 86.3285C73.5363 86.2885 74.8696 85.4185 76.0363 83.7186C76.363 83.2385 76.1596 83.0285 75.4263 83.0885C74.0263 83.2019 72.6396 83.6552 71.2663 84.4485C68.9663 85.7619 69.223 86.3885 72.0363 86.3285ZM47.9063 89.2486C48.9596 89.9686 49.8896 90.2852 50.6963 90.1985C51.7163 90.0919 52.0896 89.5486 51.8163 88.5686C51.7762 88.4237 51.695 88.2886 51.5799 88.1753C51.4648 88.0619 51.3193 87.9737 51.1563 87.9185C48.8163 87.1185 46.7363 85.8719 44.9163 84.1785C44.2896 83.5985 44.043 83.7519 44.1763 84.6385C44.4163 86.1719 45.6596 87.7085 47.9063 89.2486Z" fill="#2C2737"/>
<path d="M75.939 28.008C77.642 28.7309 79.1784 28.9502 79.3704 28.4977C79.5625 28.0452 78.3375 27.0924 76.6345 26.3695C74.9314 25.6466 73.3951 25.4273 73.203 25.8798C73.011 26.3323 74.2359 27.2851 75.939 28.008Z" fill="#8E8C9C"/>
<path d="M44.0053 37.5082C43.0753 33.0282 51.9553 28.0482 55.4253 27.0782C55.9787 26.9249 56.0387 26.9915 55.6053 27.2782C51.352 30.0915 47.7287 33.5549 44.7353 37.6682C44.3753 38.1682 44.132 38.1149 44.0053 37.5082Z" fill="#EAE9EA"/>
<path d="M88.5878 56.4182C87.8178 59.7482 85.8278 47.5282 85.7778 47.1882C85.6978 46.5815 85.8578 46.5115 86.2578 46.9782C88.6378 49.7048 89.4145 52.8515 88.5878 56.4182Z" fill="#F9F9F9"/>
<path d="M36.8286 61.4876C37.0686 62.5884 37.5081 63.4274 37.8103 63.3615C38.1125 63.2956 38.1629 62.3498 37.9229 61.249C37.6829 60.1482 37.2433 59.3093 36.9411 59.3752C36.639 59.441 36.5886 60.3868 36.8286 61.4876Z" fill="#474150"/>
<path d="M85.3555 71.4891C84.7984 72.7705 84.5931 73.9164 84.8969 74.0485C85.2008 74.1807 85.8988 73.249 86.456 71.9676C87.0132 70.6862 87.2185 69.5403 86.9146 69.4082C86.6107 69.2761 85.9127 70.2077 85.3555 71.4891Z" fill="#8E8C9C"/>
<path d="M72.0367 86.3281C69.2233 86.3881 68.9667 85.7614 71.2667 84.4481C72.64 83.6548 74.0267 83.2015 75.4267 83.0881C76.16 83.0281 76.3633 83.2381 76.0367 83.7181C74.87 85.4181 73.5367 86.2881 72.0367 86.3281Z" fill="#9F9EAF"/>
<path d="M47.9057 89.248C45.659 87.708 44.4157 86.1714 44.1757 84.638C44.0424 83.7514 44.289 83.598 44.9157 84.178C46.7357 85.8714 48.8157 87.118 51.1557 87.918C51.3187 87.9732 51.4642 88.0614 51.5793 88.1748C51.6944 88.2881 51.7756 88.4232 51.8157 88.568C52.089 89.548 51.7157 90.0914 50.6957 90.198C49.889 90.2847 48.959 89.968 47.9057 89.248Z" fill="#F9F9F9"/>
</svg>
