<svg width="141" height="219" viewBox="0 0 141 219" fill="none" xmlns="http://www.w3.org/2000/svg">
<path d="M111.203 181.499C119.156 187.086 127.29 192.362 135.603 197.329C137.053 198.199 139.663 198.909 138.993 195.879C136.743 185.779 123.963 175.589 115.193 170.519C111.226 168.232 107.28 165.892 103.353 163.499C103.299 163.465 103.252 163.42 103.215 163.368C103.179 163.315 103.153 163.255 103.14 163.191C103.127 163.128 103.127 163.063 103.139 162.999C103.152 162.935 103.177 162.874 103.213 162.819C108.46 154.939 111.79 146.292 113.203 136.879C113.853 132.509 114.803 128.159 114.733 123.859C114.4 103.019 108.053 84.2156 95.693 67.449C85.723 53.929 65.323 36.399 46.993 41.419C46.5494 41.5406 46.0784 41.5147 45.6508 41.3451C45.2233 41.1755 44.8626 40.8716 44.623 40.479C39.543 32.139 34.9829 22.359 30.4029 15.069C27.9729 11.199 24.043 4.03897 20.493 1.36897C19.6463 0.722299 19.313 0.925678 19.493 1.97901C21.023 10.669 24.5329 18.949 26.9729 27.679C27.3863 29.159 27.0129 29.3957 25.8529 28.389C18.3729 21.909 10.9196 15.159 3.49295 8.13898C2.77295 7.45898 2.11631 7.48901 1.52298 8.22901C1.43285 8.34006 1.37839 8.47979 1.366 8.63203C1.35361 8.78426 1.38379 8.94272 1.45297 9.089C9.03297 25.139 18.123 36.909 27.893 49.769C28.1653 50.1301 28.2853 50.5836 28.2274 51.0322C28.1694 51.4808 27.9381 51.8889 27.583 52.169C20.803 57.489 16.2263 64.0723 13.8529 71.919C10.2729 83.769 9.39296 93.339 11.373 105.879C15.723 133.429 30.0229 165.689 60.1729 171.769C71.1529 173.982 77.6796 175.029 79.753 174.909C82.653 174.742 85.6163 174.666 88.643 174.679C88.7967 174.682 88.9473 174.723 89.0815 174.798C89.2158 174.873 89.3295 174.98 89.4129 175.109C90.3196 176.542 91.2396 177.966 92.1729 179.379C96.7729 186.349 99.923 194.139 104.813 200.799C109.773 207.559 115.433 211.859 121.103 217.149C121.146 217.19 121.198 217.22 121.255 217.237C121.312 217.253 121.372 217.256 121.43 217.244C121.487 217.232 121.54 217.206 121.584 217.169C121.629 217.131 121.662 217.083 121.683 217.029C122.023 216.136 121.973 215.156 121.533 214.089C117.6 204.456 114.066 193.656 110.933 181.689C110.846 181.369 110.936 181.306 111.203 181.499Z" stroke="#88868E" stroke-width="2"/>
<path d="M66.6313 78.5612C67.112 78.991 67.6955 79.2962 68.3486 79.4595C69.0018 79.6228 69.7116 79.6409 70.4377 79.5129C71.1638 79.3848 71.892 79.1131 72.5805 78.7132C73.2691 78.3133 73.9046 77.793 74.4508 77.1821C74.997 76.5712 75.4431 75.8817 75.7638 75.1528C76.0845 74.424 76.2734 73.6701 76.3197 72.9342C76.366 72.1984 76.2689 71.4949 76.0338 70.8641C75.7988 70.2333 75.4304 69.6874 74.9497 69.2576C74.469 68.8278 73.8855 68.5226 73.2324 68.3593C72.5793 68.196 71.8694 68.1778 71.1433 68.3059C70.4172 68.4339 69.689 68.7057 69.0004 69.1056C68.3119 69.5055 67.6764 70.0258 67.1302 70.6367C66.584 71.2476 66.1378 71.9371 65.8172 72.666C65.4965 73.3948 65.3076 74.1487 65.2612 74.8846C65.2149 75.6204 65.3121 76.3238 65.5471 76.9547C65.7822 77.5855 66.1506 78.1314 66.6313 78.5612Z" stroke="#857780" stroke-width="2"/>
<path d="M29.9014 94.6535C31.4695 95.5227 33.3707 95.6394 35.1868 94.9779C37.0029 94.3164 38.5853 92.9309 39.5856 91.1263C40.5859 89.3216 40.9224 87.2456 40.521 85.3549C40.1195 83.4642 39.013 81.9137 37.445 81.0445C35.8769 80.1753 33.9757 80.0586 32.1596 80.7201C30.3435 81.3816 28.7611 82.7671 27.7608 84.5717C26.7605 86.3764 26.424 88.4524 26.8255 90.3431C27.2269 92.2338 28.3334 93.7843 29.9014 94.6535Z" stroke="#857780" stroke-width="2"/>
<path d="M83.4618 106.985C83.6523 107.142 83.8816 107.248 84.1366 107.298C84.3915 107.347 84.6672 107.338 84.9478 107.272C85.2284 107.206 85.5085 107.084 85.772 106.913C86.0355 106.742 86.2774 106.525 86.4837 106.275C86.9004 105.769 87.1471 105.159 87.1697 104.577C87.1922 103.995 86.9888 103.49 86.6041 103.173C86.4135 103.016 86.1843 102.91 85.9293 102.861C85.6743 102.811 85.3987 102.82 85.1181 102.886C84.8375 102.952 84.5575 103.074 84.2939 103.245C84.0304 103.416 83.7886 103.633 83.5823 103.883C83.1656 104.389 82.9188 105 82.8962 105.581C82.8736 106.163 83.0771 106.668 83.4618 106.985Z" stroke="#6A6571" stroke-width="2"/>
<path d="M52.9921 124.079C53.4844 124.209 54.0462 123.994 54.5538 123.483C55.0615 122.971 55.4734 122.204 55.699 121.35C55.8107 120.927 55.8733 120.496 55.8832 120.08C55.8931 119.665 55.8502 119.274 55.7568 118.929C55.6634 118.585 55.5215 118.294 55.339 118.072C55.1565 117.851 54.9371 117.704 54.6934 117.64C54.201 117.51 53.6392 117.724 53.1316 118.236C52.6239 118.748 52.2121 119.515 51.9864 120.369C51.8747 120.791 51.8121 121.223 51.8022 121.638C51.7923 122.053 51.8353 122.444 51.9286 122.789C52.022 123.133 52.164 123.425 52.3465 123.646C52.529 123.867 52.7483 124.014 52.9921 124.079Z" stroke="#6A6571" stroke-width="2"/>
<path d="M98.8339 129.599C98.6913 129.528 98.5361 129.486 98.3774 129.475C98.2186 129.463 98.0594 129.484 97.9089 129.534C97.7584 129.584 97.6196 129.663 97.5003 129.767C97.381 129.871 97.2836 129.997 97.2138 130.139L94.0239 136.659C93.4839 137.766 93.7539 138.026 94.8339 137.439C96.1539 136.729 102.204 131.299 98.8339 129.599Z" stroke="#7B7D87" stroke-width="2"/>
<path d="M36.7249 142.46C37.0193 142.601 37.3942 142.541 37.7671 142.295C38.14 142.049 38.4804 141.637 38.7133 141.149C38.8286 140.907 38.9141 140.654 38.9649 140.404C39.0156 140.154 39.0307 139.912 39.0091 139.691C38.9876 139.471 38.9298 139.277 38.8393 139.121C38.7487 138.964 38.6271 138.847 38.4813 138.778C38.1868 138.637 37.8119 138.697 37.439 138.943C37.0661 139.189 36.7258 139.601 36.4929 140.09C36.3775 140.331 36.292 140.584 36.2413 140.834C36.1905 141.084 36.1755 141.326 36.197 141.547C36.2186 141.767 36.2763 141.961 36.3668 142.118C36.4574 142.274 36.5791 142.391 36.7249 142.46Z" stroke="#6A6571" stroke-width="2"/>
<path d="M88.9315 144.517C89.2034 144.707 89.6191 144.667 90.0871 144.406C90.5551 144.144 91.0371 143.684 91.4271 143.125C91.6202 142.848 91.7849 142.555 91.9118 142.264C92.0387 141.972 92.1253 141.687 92.1666 141.425C92.2079 141.163 92.2032 140.928 92.1527 140.736C92.1022 140.543 92.0069 140.396 91.8723 140.302C91.6004 140.112 91.1847 140.152 90.7167 140.413C90.2487 140.674 89.7667 141.135 89.3767 141.694C89.1836 141.971 89.0189 142.264 88.8921 142.555C88.7652 142.847 88.6786 143.132 88.6372 143.394C88.5959 143.656 88.6006 143.89 88.6511 144.083C88.7016 144.276 88.7968 144.423 88.9315 144.517Z" stroke="#717181" stroke-width="2"/>
<path d="M54.654 160.522C54.8302 160.646 55.0379 160.721 55.2655 160.743C55.493 160.765 55.7358 160.734 55.98 160.652C56.2242 160.569 56.465 160.436 56.6887 160.262C56.9124 160.087 57.1146 159.873 57.2838 159.632C57.4529 159.391 57.5857 159.129 57.6745 158.859C57.7634 158.589 57.8065 158.318 57.8015 158.06C57.7965 157.802 57.7435 157.563 57.6454 157.357C57.5473 157.15 57.4062 156.98 57.2299 156.856C57.0537 156.732 56.846 156.657 56.6184 156.635C56.3909 156.613 56.1482 156.644 55.904 156.726C55.6598 156.809 55.4189 156.941 55.1952 157.116C54.9715 157.291 54.7693 157.505 54.6002 157.746C54.431 157.987 54.2982 158.249 54.2094 158.519C54.1205 158.789 54.0774 159.06 54.0824 159.318C54.0874 159.576 54.1404 159.815 54.2385 160.021C54.3366 160.228 54.4777 160.398 54.654 160.522Z" stroke="#757B84" stroke-width="2"/>
<path d="M72.5407 71.5891C75.2507 70.8191 72.5407 69.7991 71.6107 69.9091C68.8107 70.2291 65.0207 74.4291 68.2807 76.6491C68.4241 76.7465 68.5934 76.794 68.7583 76.783C68.9233 76.772 69.073 76.7032 69.1807 76.5891C70.3807 75.3291 71.2774 73.8791 71.8707 72.2391C71.9291 72.0784 72.0205 71.9354 72.1371 71.8222C72.2538 71.709 72.3923 71.629 72.5407 71.5891Z" stroke="#FAB2AC" stroke-width="2"/>
<path d="M31.4196 90.0074C31.6894 90.2436 32.0137 90.4121 32.3742 90.5032C32.7346 90.5943 33.1241 90.6063 33.5203 90.5385C33.9166 90.4707 34.3119 90.3245 34.6836 90.1082C35.0554 89.8918 35.3963 89.6095 35.6869 89.2775C36.2739 88.607 36.6204 87.7746 36.6502 86.9633C36.6801 86.1519 36.3908 85.4282 35.846 84.9512C35.5763 84.7151 35.2519 84.5467 34.8915 84.4556C34.5311 84.3644 34.1416 84.3524 33.7453 84.4202C33.3491 84.4879 32.9538 84.6342 32.5821 84.8506C32.2103 85.0669 31.8693 85.3492 31.5787 85.6812C30.9917 86.3516 30.6452 87.1841 30.6154 87.9955C30.5855 88.8068 30.8749 89.5305 31.4196 90.0074Z" stroke="#FAB2AC" stroke-width="2"/>
<path d="M110.933 181.689C114.066 193.656 117.6 204.456 121.533 214.089C121.973 215.156 122.023 216.136 121.683 217.029C121.662 217.084 121.629 217.132 121.584 217.169C121.54 217.207 121.487 217.232 121.43 217.244C121.372 217.256 121.312 217.254 121.255 217.237C121.198 217.221 121.146 217.191 121.103 217.149C115.433 211.859 109.773 207.56 104.813 200.8C99.923 194.14 96.7729 186.349 92.1729 179.379C91.2396 177.966 90.3196 176.543 89.4129 175.11C89.3295 174.98 89.2158 174.874 89.0815 174.799C88.9473 174.724 88.7967 174.683 88.643 174.68C85.6163 174.666 82.653 174.743 79.753 174.91C77.6796 175.029 71.1529 173.983 60.1729 171.769C30.0229 165.689 15.723 133.429 11.373 105.879C9.39296 93.3395 10.2729 83.7695 13.8529 71.9195C16.2263 64.0728 20.803 57.4895 27.583 52.1695C27.9381 51.8894 28.1694 51.4813 28.2274 51.0327C28.2853 50.5841 28.1653 50.1306 27.893 49.7695C18.123 36.9095 9.03297 25.1395 1.45297 9.08949C1.38379 8.94321 1.35361 8.78475 1.366 8.63251C1.37839 8.48028 1.43285 8.34054 1.52298 8.2295C2.11631 7.4895 2.77295 7.45947 3.49295 8.13947C10.9196 15.1595 18.3729 21.9095 25.8529 28.3895C27.0129 29.3961 27.3863 29.1595 26.9729 27.6795C24.5329 18.9495 21.023 10.6695 19.493 1.9795C19.313 0.926167 19.6463 0.722787 20.493 1.36945C24.0429 4.03945 27.9729 11.1995 30.4029 15.0695C34.9829 22.3595 39.543 32.1395 44.623 40.4795C44.8626 40.872 45.2233 41.176 45.6508 41.3456C46.0784 41.5151 46.5494 41.5411 46.993 41.4195C65.323 36.3995 85.723 53.9295 95.693 67.4495C108.053 84.2161 114.4 103.02 114.733 123.86C114.803 128.16 113.853 132.509 113.203 136.879C111.79 146.293 108.46 154.939 103.213 162.819C103.177 162.874 103.152 162.935 103.139 162.999C103.127 163.063 103.127 163.129 103.14 163.192C103.153 163.255 103.179 163.315 103.215 163.368C103.252 163.421 103.299 163.465 103.353 163.499C107.28 165.893 111.226 168.233 115.193 170.519C123.963 175.589 136.743 185.779 138.993 195.879C139.663 198.909 137.053 198.199 135.603 197.329C127.29 192.363 119.156 187.086 111.203 181.499C110.936 181.306 110.846 181.369 110.933 181.689ZM66.6338 78.5613C67.1144 78.9911 67.698 79.2963 68.3511 79.4596C69.0042 79.6229 69.714 79.641 70.4402 79.5129C71.1663 79.3849 71.8944 79.1132 72.583 78.7133C73.2715 78.3133 73.9071 77.7931 74.4533 77.1822C74.9995 76.5713 75.4456 75.8818 75.7663 75.1529C76.0869 74.424 76.2758 73.6702 76.3222 72.9343C76.3685 72.1985 76.2714 71.495 76.0363 70.8642C75.8012 70.2334 75.4329 69.6875 74.9522 69.2577C74.4715 68.8279 73.8879 68.5227 73.2348 68.3594C72.5817 68.1961 71.8718 68.1779 71.1457 68.306C70.4196 68.434 69.6915 68.7058 69.0029 69.1057C68.3143 69.5056 67.6788 70.0259 67.1327 70.6368C66.5865 71.2477 66.1403 71.9372 65.8196 72.6661C65.4989 73.3949 65.31 74.1488 65.2637 74.8847C65.2174 75.6205 65.3145 76.3239 65.5496 76.9548C65.7847 77.5856 66.1531 78.1315 66.6338 78.5613ZM29.9012 94.654C31.4692 95.5232 33.3704 95.6399 35.1866 94.9784C37.0027 94.3169 38.585 92.9314 39.5854 91.1268C40.5857 89.3221 40.9222 87.2461 40.5207 85.3554C40.1193 83.4647 39.0128 81.9142 37.4447 81.045C35.8767 80.1758 33.9755 80.0591 32.1593 80.7206C30.3432 81.3821 28.7609 82.7676 27.7605 84.5722C26.7602 86.3769 26.4238 88.4529 26.8252 90.3436C27.2267 92.2343 28.3331 93.7848 29.9012 94.654ZM83.4618 106.985C83.6523 107.142 83.8816 107.249 84.1366 107.298C84.3915 107.347 84.6672 107.339 84.9478 107.273C85.2284 107.207 85.5085 107.085 85.772 106.914C86.0355 106.743 86.2774 106.526 86.4837 106.275C86.9003 105.77 87.1471 105.159 87.1696 104.577C87.1922 103.996 86.9888 103.491 86.604 103.174C86.4135 103.017 86.1842 102.91 85.9293 102.861C85.6743 102.812 85.3987 102.82 85.1181 102.886C84.8375 102.952 84.5574 103.074 84.2939 103.245C84.0304 103.416 83.7886 103.633 83.5822 103.884C83.1656 104.389 82.9188 105 82.8962 105.582C82.8736 106.163 83.0771 106.668 83.4618 106.985ZM52.9923 124.079C53.4847 124.209 54.0464 123.995 54.554 123.483C55.0617 122.971 55.4736 122.204 55.6992 121.35C55.811 120.927 55.8735 120.496 55.8835 120.081C55.8934 119.665 55.8504 119.274 55.757 118.93C55.6637 118.585 55.5217 118.294 55.3392 118.073C55.1567 117.851 54.9374 117.704 54.6936 117.64C54.2013 117.51 53.6394 117.724 53.1318 118.236C52.6242 118.748 52.2123 119.515 51.9867 120.369C51.875 120.792 51.8123 121.223 51.8024 121.638C51.7925 122.054 51.8355 122.445 51.9289 122.789C52.0223 123.134 52.1642 123.425 52.3467 123.646C52.5292 123.868 52.7486 124.015 52.9923 124.079ZM98.833 129.6C98.6903 129.529 98.5352 129.486 98.3764 129.475C98.2177 129.464 98.0585 129.484 97.908 129.534C97.7575 129.584 97.6186 129.663 97.4994 129.767C97.3801 129.871 97.2827 129.998 97.2129 130.139L94.023 136.66C93.483 137.766 93.753 138.026 94.833 137.439C96.153 136.729 102.203 131.299 98.833 129.6ZM36.7248 142.461C37.0192 142.601 37.3941 142.542 37.767 142.296C38.1399 142.05 38.4802 141.637 38.7132 141.149C38.8285 140.907 38.914 140.654 38.9648 140.404C39.0155 140.154 39.0305 139.912 39.009 139.692C38.9875 139.472 38.9297 139.278 38.8391 139.121C38.7486 138.964 38.627 138.848 38.4812 138.778C38.1867 138.638 37.8118 138.697 37.4389 138.943C37.066 139.189 36.7257 139.602 36.4928 140.09C36.3774 140.332 36.2919 140.585 36.2412 140.835C36.1904 141.085 36.1754 141.327 36.1969 141.547C36.2185 141.767 36.2762 141.961 36.3667 142.118C36.4573 142.275 36.579 142.391 36.7248 142.461ZM88.9325 144.517C89.2044 144.707 89.6201 144.667 90.0882 144.406C90.5562 144.144 91.0382 143.684 91.4281 143.125C91.6212 142.848 91.7859 142.555 91.9128 142.264C92.0397 141.972 92.1263 141.687 92.1676 141.425C92.209 141.163 92.2043 140.928 92.1538 140.736C92.1033 140.543 92.008 140.396 91.8733 140.302C91.6014 140.112 91.1858 140.152 90.7177 140.413C90.2497 140.675 89.7678 141.135 89.3778 141.694C89.1847 141.971 89.02 142.264 88.8931 142.555C88.7662 142.847 88.6796 143.132 88.6383 143.394C88.5969 143.656 88.6016 143.89 88.6521 144.083C88.7026 144.276 88.7979 144.423 88.9325 144.517ZM54.6549 160.522C54.8311 160.646 55.0389 160.721 55.2664 160.744C55.494 160.766 55.7368 160.735 55.981 160.652C56.2252 160.57 56.466 160.437 56.6897 160.262C56.9134 160.087 57.1156 159.873 57.2848 159.632C57.4539 159.392 57.5867 159.129 57.6755 158.859C57.7643 158.59 57.8075 158.318 57.8025 158.06C57.7975 157.803 57.7445 157.564 57.6464 157.357C57.5483 157.151 57.4071 156.981 57.2309 156.857C57.0547 156.733 56.8469 156.658 56.6194 156.635C56.3919 156.613 56.1491 156.644 55.9049 156.727C55.6607 156.809 55.4199 156.942 55.1962 157.117C54.9725 157.292 54.7703 157.506 54.6012 157.746C54.432 157.987 54.2992 158.25 54.2104 158.52C54.1215 158.789 54.0784 159.061 54.0834 159.319C54.0884 159.576 54.1414 159.815 54.2395 160.022C54.3375 160.228 54.4787 160.398 54.6549 160.522Z" fill="#120F29"/>
<path d="M66.6313 78.5612C66.1506 78.1314 65.7822 77.5855 65.5471 76.9547C65.3121 76.3238 65.2149 75.6204 65.2612 74.8846C65.3076 74.1487 65.4965 73.3948 65.8172 72.666C66.1378 71.9371 66.584 71.2476 67.1302 70.6367C67.6764 70.0258 68.3119 69.5055 69.0004 69.1056C69.689 68.7057 70.4172 68.4339 71.1433 68.3059C71.8694 68.1778 72.5793 68.196 73.2324 68.3593C73.8855 68.5226 74.469 68.8278 74.9497 69.2576C75.4304 69.6874 75.7988 70.2333 76.0338 70.8641C76.2689 71.4949 76.366 72.1984 76.3197 72.9342C76.2734 73.6701 76.0845 74.424 75.7638 75.1528C75.4431 75.8817 74.997 76.5712 74.4508 77.1821C73.9046 77.793 73.2691 78.3133 72.5805 78.7132C71.892 79.1131 71.1638 79.3848 70.4377 79.5129C69.7116 79.6409 69.0018 79.6228 68.3486 79.4595C67.6955 79.2962 67.112 78.991 66.6313 78.5612ZM72.5405 71.5894C75.2505 70.8194 72.5405 69.7994 71.6105 69.9094C68.8105 70.2294 65.0205 74.4294 68.2805 76.6494C68.4239 76.7468 68.5932 76.7943 68.7581 76.7833C68.9231 76.7723 69.0728 76.7036 69.1805 76.5894C70.3805 75.3294 71.2772 73.8794 71.8705 72.2394C71.9288 72.0787 72.0202 71.9357 72.1369 71.8225C72.2536 71.7093 72.392 71.6293 72.5405 71.5894Z" fill="#F7DED7"/>
<path d="M71.8707 72.2396C71.2774 73.8796 70.3807 75.3296 69.1807 76.5896C69.073 76.7037 68.9233 76.7725 68.7583 76.7835C68.5934 76.7945 68.4241 76.747 68.2807 76.6496C65.0207 74.4296 68.8107 70.2296 71.6107 69.9096C72.5407 69.7996 75.2507 70.8196 72.5407 71.5896C72.3923 71.6295 72.2538 71.7095 72.1371 71.8227C72.0205 71.9358 71.9291 72.0789 71.8707 72.2396Z" fill="#FD8681"/>
<path d="M29.9014 94.654C28.3334 93.7848 27.2269 92.2343 26.8255 90.3436C26.424 88.4529 26.7605 86.3769 27.7608 84.5722C28.7611 82.7675 30.3435 81.3821 32.1596 80.7206C33.9757 80.0591 35.8769 80.1758 37.445 81.045C39.013 81.9142 40.1195 83.4646 40.521 85.3553C40.9224 87.246 40.5859 89.3221 39.5856 91.1268C38.5853 92.9314 37.0029 94.3169 35.1868 94.9784C33.3707 95.6399 31.4695 95.5232 29.9014 94.654ZM31.42 90.0076C31.6898 90.2437 32.0141 90.4122 32.3746 90.5033C32.735 90.5944 33.1245 90.6064 33.5207 90.5386C33.917 90.4709 34.3123 90.3246 34.684 90.1083C35.0557 89.8919 35.3967 89.6096 35.6873 89.2776C36.2743 88.6072 36.6208 87.7747 36.6506 86.9634C36.6805 86.152 36.3912 85.4283 35.8464 84.9514C35.5767 84.7152 35.2523 84.5468 34.8919 84.4557C34.5315 84.3646 34.142 84.3525 33.7457 84.4203C33.3495 84.4881 32.9542 84.6343 32.5824 84.8507C32.2107 85.0671 31.8697 85.3493 31.5791 85.6813C30.9921 86.3518 30.6456 87.1843 30.6158 87.9956C30.5859 88.8069 30.8753 89.5306 31.42 90.0076Z" fill="#F7DED7"/>
<path d="M31.5771 85.6812C30.3547 87.0774 30.2835 89.0144 31.418 90.0075C32.5524 91.0006 34.4629 90.6739 35.6852 89.2776C36.9076 87.8814 36.9788 85.9444 35.8443 84.9513C34.7099 83.9582 32.7994 84.2849 31.5771 85.6812Z" fill="#FD8681"/>
<path d="M83.5823 103.883C82.7146 104.936 82.6606 106.325 83.4618 106.985C84.263 107.646 85.6159 107.328 86.4836 106.275C87.3513 105.222 87.4052 103.834 86.604 103.173C85.8029 102.513 84.45 102.831 83.5823 103.883Z" fill="#C2BBB9"/>
<path d="M51.9875 120.369C51.5178 122.147 51.968 123.808 52.9932 124.079C54.0184 124.35 55.2304 123.128 55.7001 121.35C56.1699 119.572 55.7197 117.911 54.6945 117.64C53.6693 117.369 52.4573 118.591 51.9875 120.369Z" fill="#C2BBB9"/>
<path d="M98.8339 129.599C102.204 131.299 96.1539 136.729 94.8339 137.439C93.7539 138.026 93.4839 137.766 94.0239 136.659L97.2138 130.139C97.2836 129.997 97.381 129.871 97.5003 129.767C97.6196 129.663 97.7584 129.584 97.9089 129.534C98.0594 129.484 98.2186 129.463 98.3774 129.475C98.5361 129.486 98.6913 129.528 98.8339 129.599Z" fill="#E3EBE4"/>
<path d="M36.4912 140.09C36.0062 141.107 36.11 142.168 36.7232 142.461C37.3363 142.753 38.2266 142.166 38.7116 141.149C39.1966 140.132 39.0928 139.071 38.4797 138.778C37.8665 138.486 36.9763 139.073 36.4912 140.09Z" fill="#C2BBB9"/>
<path d="M89.3776 141.694C88.5656 142.858 88.3662 144.122 88.9324 144.517C89.4986 144.912 90.6159 144.288 91.428 143.124C92.2401 141.96 92.4394 140.696 91.8732 140.301C91.3071 139.906 90.1897 140.53 89.3776 141.694Z" fill="#D0D3D8"/>
<path d="M54.5988 157.746C53.8874 158.759 53.9115 160.001 54.6525 160.522C55.3936 161.043 56.571 160.645 57.2823 159.632C57.9937 158.62 57.9696 157.378 57.2285 156.857C56.4875 156.336 55.3101 156.734 54.5988 157.746Z" fill="#D8E6DF"/>
</svg>
