<svg width="26" height="28" viewBox="0 0 26 28" fill="none" xmlns="http://www.w3.org/2000/svg">
<path d="M2.41652 22.4639C9.44652 22.2039 13.5065 22.6239 19.4265 26.1739C20.3999 26.7606 20.9965 26.7406 21.2165 26.1139C21.2557 26.0089 21.257 25.8621 21.2203 25.6872C21.1836 25.5123 21.11 25.315 21.0065 25.1139C17.3398 17.8406 18.4899 11.5072 24.4565 6.11391C24.5002 6.07396 24.5337 6.02385 24.5549 5.96663C24.5761 5.9094 24.5847 5.84623 24.58 5.78087C24.5753 5.71551 24.5576 5.64931 24.5278 5.58626C24.4979 5.5232 24.4567 5.46457 24.4065 5.41389C23.6199 4.60723 22.6798 4.30723 21.5865 4.5139C15.3865 5.6739 9.98985 4.86056 5.39651 2.0739C3.34985 0.827231 2.13651 1.38722 1.75651 3.75389C1.25651 6.92389 2.16653 10.1039 2.06653 12.8739C1.95986 15.8539 1.91319 18.8906 1.92653 21.9839C1.92652 22.0487 1.93935 22.1128 1.96423 22.1723C1.98911 22.2319 2.02554 22.2857 2.07132 22.3306C2.1171 22.3754 2.17128 22.4104 2.2306 22.4333C2.28993 22.4562 2.35317 22.4666 2.41652 22.4639Z" stroke="#BCE8DB" stroke-width="2"/>
<path d="M19.4304 26.1739C13.5104 22.6239 9.45042 22.2039 2.42042 22.4639C2.35707 22.4666 2.29383 22.4562 2.23451 22.4333C2.17518 22.4104 2.121 22.3754 2.07522 22.3306C2.02944 22.2857 1.99302 22.2319 1.96814 22.1723C1.94325 22.1128 1.93043 22.0487 1.93043 21.9839C1.9171 18.8906 1.96376 15.8539 2.07043 12.8739C2.17043 10.1039 1.26042 6.92389 1.76042 3.75389C2.14042 1.38722 3.35375 0.827231 5.40042 2.0739C9.99375 4.86056 15.3904 5.6739 21.5904 4.5139C22.6838 4.30723 23.6238 4.60723 24.4104 5.41389C24.4606 5.46457 24.5018 5.5232 24.5317 5.58626C24.5615 5.64931 24.5792 5.71551 24.5839 5.78087C24.5886 5.84623 24.5801 5.9094 24.5588 5.96663C24.5376 6.02385 24.5041 6.07396 24.4604 6.11391C18.4938 11.5072 17.3438 17.8406 21.0104 25.1139C21.1139 25.315 21.1875 25.5123 21.2242 25.6872C21.2609 25.8621 21.2596 26.0089 21.2204 26.1139C21.0004 26.7406 20.4038 26.7606 19.4304 26.1739Z" fill="#78D1B7"/>
</svg>
