<svg width="102" height="146" viewBox="0 0 102 146" fill="none" xmlns="http://www.w3.org/2000/svg">
<path d="M60.7282 20.3997C60.7282 24.0797 60.4682 30.4197 57.1582 32.7797C55.7449 33.7797 55.1449 33.4663 55.3582 31.8397C55.8582 28.0197 57.9982 20.5197 53.1782 18.8597C51.5249 18.293 49.1282 17.2197 45.9882 15.6397C45.8442 15.5662 45.7217 15.4605 45.6324 15.3327C45.5431 15.2048 45.49 15.0592 45.4782 14.9097C45.2282 10.9697 53.4882 14.4697 55.4582 15.0997C55.6343 15.1577 55.8212 15.1751 56.0049 15.1507C56.1887 15.1263 56.3646 15.0607 56.5194 14.9588C56.6742 14.8568 56.804 14.7212 56.899 14.562C56.9941 14.4029 57.0519 14.2243 57.0682 14.0397C57.4182 10.3997 57.6682 6.25968 57.3482 2.33968C57.2149 0.679677 57.8782 -0.0970065 59.3382 0.0096602C59.5138 0.0240169 59.6775 0.0892674 59.7976 0.192766C59.9177 0.296264 59.9857 0.430612 59.9882 0.569658L60.1782 10.5697C60.2116 12.2097 60.8682 13.2896 62.1482 13.8096C63.7082 14.4396 71.4182 16.2296 68.2782 19.4896C68.1742 19.597 68.0445 19.6825 67.8967 19.7409C67.7489 19.7994 67.5861 19.8295 67.4182 19.8297H61.1682C61.0515 19.8297 60.9396 19.8897 60.8571 19.9966C60.7746 20.1035 60.7282 20.2485 60.7282 20.3997Z" fill="#1C2030"/>
<path d="M11.3663 35.649C9.18634 33.799 5.23632 32.449 5.56632 28.519C5.57459 28.4154 5.64011 28.3186 5.74961 28.248C5.85911 28.1775 6.00444 28.1386 6.15632 28.139H11.1763C11.2908 28.1372 11.4041 28.0525 11.4933 27.902C11.5824 27.7516 11.6407 27.5467 11.6563 27.329L12.2363 20.149C12.2536 19.9235 12.3195 19.7133 12.425 19.5469C12.5306 19.3806 12.6707 19.2661 12.8263 19.219C13.4997 19.0257 14.1763 18.999 14.8563 19.139C14.9522 19.1581 15.0455 19.2615 15.1204 19.4312C15.1952 19.6009 15.2468 19.8265 15.2663 20.069L15.8363 27.339C15.8625 27.6444 16.008 27.9335 16.2485 28.1575C16.4889 28.3816 16.8096 28.5269 17.1563 28.569C19.0263 28.799 27.8063 29.909 24.9963 33.689C24.9177 33.7957 24.8031 33.8884 24.66 33.9608C24.5169 34.0332 24.3486 34.0838 24.1663 34.109L17.4163 35.109C17.1168 35.1539 16.8374 35.3292 16.6233 35.6069C16.4091 35.8845 16.2728 36.2481 16.2363 36.639L15.3863 45.769C15.3751 45.91 15.307 46.0495 15.1909 46.1691C15.0749 46.2887 14.9164 46.3828 14.7363 46.439C10.1363 47.919 11.6463 38.949 11.7263 36.489C11.7323 36.3298 11.703 36.1718 11.6407 36.0264C11.5784 35.8811 11.4847 35.7521 11.3663 35.649Z" fill="#151E30"/>
<path d="M90.589 63.1196C89.589 66.4496 89.529 73.2496 84.889 73.0596C84.7455 73.0539 84.6098 73.0006 84.5108 72.9109C84.4117 72.8212 84.3573 72.7023 84.359 72.5796L84.709 60.8296C84.7149 60.6755 84.666 60.5211 84.569 60.3882C84.4721 60.2553 84.3321 60.1508 84.169 60.0896L77.329 57.4396C77.1283 57.3606 76.9505 57.2323 76.8123 57.0669C76.674 56.9015 76.5799 56.7044 76.5389 56.4942C76.4979 56.2841 76.5113 56.0678 76.5778 55.8657C76.6443 55.6637 76.7617 55.4826 76.919 55.3396C78.699 53.6996 82.079 54.4896 83.959 54.8296C84.1412 54.8607 84.3285 54.8459 84.5087 54.7863C84.689 54.7266 84.8585 54.6235 85.0062 54.4833C85.1539 54.3431 85.2766 54.169 85.3667 53.9721C85.4567 53.7751 85.512 53.5598 85.529 53.3396L86.239 43.2496C86.254 43.0472 86.3067 42.8589 86.3914 42.7054C86.4761 42.5519 86.5895 42.4392 86.719 42.3796C87.419 42.0663 88.1524 41.973 88.919 42.0996C89.0735 42.1239 89.2146 42.2105 89.3172 42.3442C89.4197 42.4779 89.477 42.6499 89.479 42.8296L89.689 54.3296C89.7157 55.6496 90.389 56.4596 91.709 56.7596L99.859 58.5996C100.023 58.6375 100.179 58.7133 100.316 58.8219C100.454 58.9304 100.571 59.0694 100.659 59.2296C104.189 65.5296 93.239 62.9396 91.219 62.6996C91.0825 62.6827 90.9443 62.7157 90.8289 62.7926C90.7135 62.8695 90.6285 62.9854 90.589 63.1196Z" fill="#151E30"/>
<path d="M51.0072 75.9992L50.1772 82.5792C50.1436 82.8531 50.1021 83.1089 50.06 83.3011C50.0179 83.4934 49.9779 83.6096 49.9472 83.6292C49.0605 84.2025 48.1105 84.2959 47.0972 83.9092C46.9939 83.8675 46.9006 83.7661 46.8293 83.6181C46.758 83.4701 46.712 83.2824 46.6972 83.0792L46.1172 75.8392C46.0105 74.5259 45.3672 73.6792 44.1872 73.2992L40.2272 72.0392C40.103 71.9992 39.9743 71.9088 39.8512 71.7752C39.728 71.6417 39.6138 71.4685 39.5172 71.2692C39.2172 70.6625 39.1172 70.0392 39.2172 69.3992C39.2463 69.2202 39.3243 69.0567 39.4386 68.9352C39.5529 68.8136 39.6968 68.7411 39.8472 68.7292L44.9172 68.3592C45.2298 68.3355 45.5238 68.2255 45.756 68.0455C45.9882 67.8655 46.1463 67.625 46.2072 67.3592C46.4672 66.1692 47.4572 55.5392 50.3772 58.6792C50.4991 58.8108 50.592 58.9598 50.649 59.1155C50.7061 59.2711 50.726 59.4294 50.7072 59.5792L49.8972 66.8292C49.8499 67.2706 49.9584 67.7109 50.2004 68.0589C50.4423 68.407 50.7992 68.6362 51.1972 68.6992C52.4672 68.8992 56.4472 69.8692 56.7872 71.4992C57.2772 73.8892 53.3072 74.7792 51.6972 75.4492C51.5037 75.5282 51.333 75.6238 51.2093 75.7225C51.0855 75.8212 51.0148 75.918 51.0072 75.9992Z" fill="#151E30"/>
<path d="M11.3772 82.2503C10.4172 81.9903 2.9072 81.4203 6.3072 78.7103C7.6572 77.6303 11.2372 77.7703 12.9172 77.7903C13.057 77.792 13.1923 77.7441 13.2974 77.6556C13.4025 77.5671 13.4701 77.4441 13.4872 77.3103C13.6172 76.1203 13.9672 62.5603 16.9572 65.4603C17.7505 66.227 18.1605 67.2703 18.1872 68.5903L18.3872 78.3303C18.3896 78.4617 18.445 78.591 18.5446 78.6978C18.6442 78.8046 18.7823 78.8829 18.9372 78.9203C20.4372 79.2803 27.9372 79.7603 25.4872 82.9503C25.3985 83.0639 25.2801 83.1597 25.1391 83.2319C24.9982 83.3041 24.8376 83.3511 24.6672 83.3703L19.1572 84.0103C18.9694 84.0315 18.7949 84.0947 18.6548 84.1922C18.5146 84.2898 18.4148 84.4176 18.3672 84.5603L15.2972 94.1603C14.8905 95.4337 14.1372 96.067 13.0372 96.0603C11.6905 96.0536 11.1739 95.237 11.4872 93.6103C12.1739 90.0437 12.3172 86.4736 11.9172 82.9003C11.8989 82.7484 11.8379 82.6058 11.7419 82.4902C11.6458 82.3746 11.519 82.2911 11.3772 82.2503Z" fill="#151E30"/>
<path d="M89.9266 118.73C87.6466 118.57 85.4499 118.06 83.3366 117.2C83.1531 117.127 82.9902 117.032 82.8578 116.92C82.7254 116.808 82.6263 116.682 82.5666 116.55C80.5166 112.08 88.0166 114.38 89.8666 114.4C90.2938 114.406 90.7176 114.236 91.0672 113.917C91.4167 113.599 91.6706 113.151 91.7866 112.65L94.3166 101.8C94.3934 101.485 94.6115 101.192 94.9266 100.98C97.0266 99.5798 97.6466 101.19 97.3966 102.98C96.8766 106.613 96.5832 110.24 96.5166 113.86C96.5137 114.037 96.5508 114.206 96.6217 114.339C96.6926 114.472 96.7931 114.56 96.9066 114.59L100.677 115.55C100.883 115.602 101.069 115.671 101.216 115.751C101.363 115.832 101.466 115.921 101.517 116.01C102.203 117.263 101.98 118.35 100.847 119.27C100.764 119.333 100.639 119.39 100.478 119.438C100.318 119.487 100.127 119.525 99.9166 119.55L96.3466 119.97C96.2329 119.982 96.1202 120.048 96.025 120.16C95.9297 120.271 95.8567 120.422 95.8166 120.59C94.9466 124.23 94.5766 129.56 90.8466 131.5C89.4532 132.226 88.8699 131.753 89.0966 130.08L90.5266 119.35C90.537 119.276 90.5295 119.2 90.5045 119.128C90.4794 119.056 90.4374 118.989 90.381 118.931C90.3246 118.872 90.2551 118.824 90.1769 118.79C90.0987 118.755 90.0135 118.735 89.9266 118.73Z" fill="#151E30"/>
<path d="M49.9087 116.39L54.6788 118.04C54.8138 118.089 54.935 118.187 55.0287 118.325C55.1224 118.463 55.1848 118.635 55.2088 118.82C55.5388 121.7 52.7788 122.38 50.6688 122.68C49.3288 122.86 48.5221 123.617 48.2487 124.95C47.7887 127.204 47.2987 129.357 46.7787 131.41C45.7487 135.48 42.5187 134.63 42.9087 130.7C43.1621 128.214 43.4554 125.63 43.7887 122.95C43.9421 121.724 43.4154 120.91 42.2088 120.51L36.4188 118.58C36.3235 118.547 36.2227 118.467 36.1251 118.349C36.0275 118.23 35.9361 118.076 35.8588 117.9C35.4588 117.007 35.4388 116.12 35.7988 115.24C35.8308 115.168 35.9618 115.11 36.1686 115.077C36.3754 115.044 36.6447 115.038 36.9288 115.06L43.4188 115.63C43.6876 115.653 43.9556 115.578 44.1728 115.418C44.39 115.258 44.5414 115.024 44.5987 114.76L46.8187 104.51C46.8577 104.323 46.9345 104.153 47.0395 104.023C47.1445 103.893 47.273 103.809 47.4087 103.78C48.3287 103.56 49.1921 103.724 49.9987 104.27C50.0855 104.33 50.1532 104.438 50.194 104.581C50.2348 104.725 50.2469 104.898 50.2288 105.08L49.2988 115.82C49.2888 115.918 49.3442 116.029 49.4555 116.133C49.5668 116.237 49.7271 116.328 49.9087 116.39Z" fill="#151E30"/>
<path d="M15.6188 136.129C15.0721 138.536 14.2788 140.866 13.2388 143.119C12.1988 145.359 8.68878 147.83 9.20878 142.33C9.36212 140.69 9.82878 138.256 10.6088 135.03C10.6404 134.89 10.6251 134.744 10.5653 134.616C10.5055 134.487 10.4046 134.383 10.2788 134.319C9.11876 133.729 -6.54121 129.179 3.14879 127.009C3.37238 126.958 3.71655 127.004 4.10878 127.14C6.14211 127.86 8.2521 128.176 10.4388 128.09C10.6858 128.081 10.921 127.964 11.0972 127.764C11.2733 127.564 11.3775 127.294 11.3888 127.009L11.6888 119.08C11.6948 118.947 11.7429 118.816 11.8276 118.702C11.9123 118.587 12.0304 118.493 12.1688 118.429C15.7088 116.889 14.7088 126.61 14.6688 128.09C14.6629 128.29 14.7009 128.482 14.7769 128.634C14.853 128.786 14.9627 128.89 15.0888 128.929L20.1788 130.54C20.4311 130.62 20.6565 130.718 20.8272 130.823C20.9978 130.928 21.1061 131.035 21.1388 131.129C21.5254 132.283 21.5688 133.46 21.2688 134.66C21.2407 134.766 21.1424 134.866 20.9889 134.943C20.8354 135.021 20.6351 135.072 20.4188 135.09L16.0988 135.42C16.0082 135.425 15.9114 135.499 15.8242 135.628C15.7369 135.757 15.6645 135.934 15.6188 136.129Z" fill="#151E30"/>
</svg>
