<svg width="48" height="49" viewBox="0 0 48 49" fill="none" xmlns="http://www.w3.org/2000/svg">
<path d="M15.7825 41.3828C19.9682 43.2815 24.8002 43.2996 29.2156 41.4331C33.631 39.5667 37.2681 35.9685 39.3268 31.4302C41.3855 26.8919 41.6971 21.7852 40.1931 17.2335C38.689 12.6819 35.4926 9.0581 31.3069 7.15938C27.1213 5.26069 22.2892 5.24259 17.8738 7.10906C13.4584 8.97553 9.8213 12.5737 7.76262 17.112C5.70396 21.6503 5.39237 26.757 6.89639 31.3086C8.40041 35.8603 11.5969 39.4841 15.7825 41.3828Z" stroke="#FEE8A1" stroke-width="2"/>
<path d="M7.76332 17.1119C3.47635 26.5625 7.06699 37.4289 15.7832 41.3828C24.4995 45.3366 35.0406 40.8807 39.3276 31.4301C43.6146 21.9795 40.0239 11.1131 31.3077 7.15926C22.5915 3.2054 12.0503 7.66135 7.76332 17.1119Z" fill="#FDD043"/>
</svg>
