<svg width="118" height="117" viewBox="0 0 118 117" fill="none" xmlns="http://www.w3.org/2000/svg">
<path d="M10.0591 89.6411C20.1791 105.131 35.2991 115.341 54.2491 115.291C80.5891 115.221 108.729 101.741 115.019 73.8111C118.779 57.0511 116.389 38.5811 105.149 24.9411C90.5391 7.19112 66.1991 -2.24892 43.5491 2.46108C20.5491 7.24108 9.16906 28.1811 3.70906 49.3511C0.0190634 63.6811 1.99907 77.3011 10.0591 89.6411Z" stroke="#FEB2A7" stroke-width="2"/>
<path d="M34.7499 48.3908L36.7499 48.8808C36.8412 48.9041 36.9684 48.8736 37.1147 48.7933C37.261 48.713 37.4197 48.5867 37.5699 48.4308C38.5099 47.4375 38.5066 46.4741 37.5599 45.5408C37.2832 45.2765 36.9594 45.1199 36.6499 45.1008C35.9099 45.0508 25.7099 45.8608 30.1299 48.6408C30.2437 48.7107 30.3837 48.7563 30.5416 48.7752C30.6995 48.7941 30.8723 48.7858 31.0499 48.7508L33.6899 48.2408C33.8432 48.2075 34.1966 48.2575 34.7499 48.3908Z" stroke="#FB6E5A" stroke-width="2"/>
<path d="M18.5876 66.7711C15.2343 65.3577 14.1743 65.8511 15.4076 68.2511C15.4884 68.4062 15.5915 68.5388 15.7081 68.638C15.8247 68.7372 15.9514 68.8 16.0776 68.8211C17.3176 69.0078 18.2609 68.5744 18.9076 67.5211C18.9452 67.461 18.9668 67.3925 18.9707 67.3201C18.9747 67.2478 18.961 67.1735 18.9306 67.1022C18.9002 67.0309 18.8538 66.9644 18.7946 66.9072C18.7354 66.8501 18.6648 66.8036 18.5876 66.7711Z" stroke="#FB6E5A" stroke-width="2"/>
<path d="M54.2491 115.291C35.2991 115.341 20.1791 105.131 10.0591 89.6406C1.99907 77.3006 0.0190634 63.6806 3.70906 49.3506C9.16906 28.1806 20.5491 7.24059 43.5491 2.46059C66.1991 -2.24941 90.5391 7.19064 105.149 24.9406C116.389 38.5806 118.779 57.0506 115.019 73.8106C108.729 101.741 80.5891 115.221 54.2491 115.291ZM34.7491 48.3906L36.7491 48.8806C36.8404 48.9039 36.9676 48.8734 37.1139 48.7931C37.2602 48.7128 37.4189 48.5865 37.5691 48.4306C38.5091 47.4373 38.5057 46.4739 37.5591 45.5406C37.2823 45.2763 36.9586 45.1197 36.6491 45.1006C35.9091 45.0506 25.7091 45.8606 30.1291 48.6406C30.2429 48.7105 30.3828 48.7562 30.5408 48.775C30.6987 48.7939 30.8715 48.7856 31.0491 48.7506L33.6891 48.2406C33.8424 48.2073 34.1957 48.2573 34.7491 48.3906ZM18.5891 66.7706C15.2357 65.3573 14.1757 65.8506 15.4091 68.2506C15.4899 68.4057 15.5929 68.5383 15.7095 68.6375C15.8261 68.7367 15.9529 68.7996 16.0791 68.8206C17.3191 69.0073 18.2624 68.5739 18.9091 67.5206C18.9467 67.4605 18.9682 67.392 18.9722 67.3197C18.9761 67.2474 18.9624 67.173 18.932 67.1017C18.9016 67.0304 18.8552 66.9639 18.796 66.9068C18.7368 66.8496 18.6662 66.8031 18.5891 66.7706Z" fill="#FD654F"/>
<path d="M33.6899 48.2408L31.0499 48.7508C30.8723 48.7858 30.6995 48.7941 30.5416 48.7752C30.3837 48.7563 30.2437 48.7107 30.1299 48.6408C25.7099 45.8608 35.9099 45.0508 36.6499 45.1008C36.9594 45.1199 37.2832 45.2765 37.5599 45.5408C38.5066 46.4741 38.5099 47.4375 37.5699 48.4308C37.4197 48.5867 37.261 48.713 37.1147 48.7933C36.9684 48.8736 36.8412 48.9041 36.7499 48.8808L34.7499 48.3908C34.1966 48.2575 33.8432 48.2075 33.6899 48.2408Z" fill="#F97764"/>
<path d="M18.5915 66.7706C18.6687 66.8031 18.7393 66.8496 18.7985 66.9068C18.8577 66.9639 18.9041 67.0304 18.9345 67.1017C18.9649 67.173 18.9786 67.2473 18.9746 67.3197C18.9707 67.392 18.9491 67.4605 18.9115 67.5206C18.2649 68.5739 17.3215 69.0073 16.0815 68.8206C15.9553 68.7996 15.8286 68.7367 15.712 68.6375C15.5954 68.5383 15.4923 68.4057 15.4115 68.2506C14.1782 65.8506 15.2382 65.3573 18.5915 66.7706Z" fill="#F97764"/>
</svg>
