<svg width="91" height="179" viewBox="0 0 91 179" fill="none" xmlns="http://www.w3.org/2000/svg">
<path d="M11.8774 110.649C13.4925 117.389 16.2804 123.542 20.2412 129.109C22.4327 132.179 25.931 133.559 29.1881 135.329C29.3071 135.394 29.3964 135.503 29.4375 135.633C29.4786 135.763 29.4685 135.905 29.4092 136.029C28.223 138.496 27.3719 141.072 26.8558 143.759C26.5743 145.209 25.6093 146.069 25.2977 147.079C22.5332 155.729 16.9942 170.469 8.40916 173.899C6.72031 174.579 6.08698 175.819 7.01182 177.429C7.08859 177.556 7.20062 177.661 7.33652 177.733C7.47243 177.805 7.62743 177.842 7.7859 177.839C11.1703 177.739 13.8644 176.439 15.8682 173.939C23.8903 163.929 28.3336 149.629 32.5457 137.439C32.6497 137.121 32.8474 136.851 33.1086 136.669C35.5715 134.929 38.5672 134.569 40.7989 133.229C49.9569 127.709 55.9483 119.359 60.7435 109.879" stroke="#848485" stroke-width="2"/>
<path d="M60.7475 109.879C68.1463 98.8089 78.3598 89.8189 87.6184 80.3189C88.8247 79.0722 89.5083 77.1422 89.6692 74.5289C89.689 74.2039 89.6046 73.8787 89.4279 73.5989C86.2814 68.7289 83.3662 72.1389 80.28 74.9889C75.8903 79.0556 71.6179 83.2589 67.4627 87.5989C64.8691 90.3089 64.1654 87.3189 64.7485 85.3189C69.1214 70.5789 77.4351 54.2489 81.6572 43.0989C83.6074 37.9489 80.0789 33.7589 75.0023 35.8489C73.0922 36.6356 71.8457 37.4656 71.2627 38.3389C61.1597 53.5189 53.3086 70.2889 48.7648 87.9489C48.6039 88.5889 47.0759 94.1189 46.342 93.8189C46.2531 93.7855 46.1791 93.7063 46.1317 93.594C46.0843 93.4816 46.0663 93.3425 46.0806 93.1989C48.051 73.8189 49.9007 58.5089 54.6154 42.2589C56.9376 34.2389 60.9386 23.0089 63.703 11.0389C64.018 9.67891 63.7164 8.4689 62.7983 7.40891C60.2114 4.43557 58.0601 4.29887 56.3445 6.99887C51.3282 14.8989 45.0754 31.3989 42.5622 43.2689C40.1228 54.7422 38.3066 65.5356 37.1137 75.6489C36.4703 81.1489 35.2439 86.7189 34.4497 92.3089C34.4202 92.5214 34.3734 92.7154 34.3158 92.8641C34.2582 93.0128 34.1926 93.1088 34.128 93.1389C33.3506 93.5056 32.6033 93.4789 31.8863 93.0589C31.8055 93.0067 31.7331 92.8883 31.6778 92.7179C31.6225 92.5475 31.5866 92.3324 31.5746 92.0989C30.8173 76.2322 30.9648 60.3756 32.0169 44.5289C32.0773 43.6156 32.1142 41.1589 32.1276 37.1589C32.1376 34.5189 33.0222 31.9889 33.3037 29.2589C33.8968 23.5989 35.083 18.4789 35.9676 13.0589C36.8824 7.39887 38.0486 2.5389 31.3937 1.0889C30.0734 0.802231 29.028 1.20887 28.2573 2.30887C24.6081 7.48887 24.8393 11.8389 23.6029 16.8289C21.7733 24.1189 21.8537 29.5589 20.9087 35.9689C20.3056 40.0289 19.9772 43.2989 19.9236 45.7789C19.5818 61.7189 19.7929 77.6589 20.5569 93.5989C20.562 93.7075 20.5508 93.8193 20.5244 93.9238C20.498 94.0283 20.4571 94.1221 20.4058 94.1962C20.3545 94.2703 20.2943 94.3223 20.231 94.3473C20.1677 94.3722 20.1035 94.3694 20.0442 94.3389L19.5315 94.0889C19.3452 93.9949 19.1804 93.8973 19.056 93.8071C18.9316 93.7169 18.8525 93.6378 18.8278 93.5789C18.0102 91.8856 17.3601 90.1256 16.8776 88.2989C13.2854 74.7056 11.4391 61.1223 11.3386 47.5489C11.3252 45.4489 10.2998 44.1289 8.26244 43.5889C3.69852 42.3589 1.9192 44.8489 1.47688 49.0389C0.47831 58.3322 1.04797 66.8489 3.18585 74.5889C4.75407 80.2622 5.75261 84.4256 6.18153 87.0789C6.42279 88.6089 7.5487 90.1489 7.62912 91.1589C8.15186 97.8722 9.56933 104.369 11.8814 110.649" stroke="#8B8B91" stroke-width="2"/>
<path d="M60.745 109.879L59.5286 109.499C59.3943 109.456 59.2468 109.465 59.1099 109.523C58.973 109.581 58.8548 109.685 58.7747 109.819C55.2361 115.689 51.1346 122.999 45.6459 127.069C41.8459 129.896 37.3993 132.432 32.306 134.679C32.0032 134.814 31.6644 134.828 31.361 134.719C27.541 133.359 24.5352 132.149 22.1427 128.609C19.8506 125.199 17.6994 122.149 16.5132 118.109C15.8397 115.829 15.337 109.739 11.8789 110.649" stroke="#111625" stroke-width="2"/>
<path d="M28.0748 118.569C28.5707 118.769 28.7717 118.665 28.6779 118.259L28.0547 115.599C27.9005 114.932 27.6124 114.822 27.1901 115.269C25.8297 116.709 26.1246 117.809 28.0748 118.569Z" stroke="#282C3F" stroke-width="2"/>
<path d="M60.7475 109.879L59.5312 109.499C59.3969 109.456 59.2493 109.465 59.1125 109.523C58.9756 109.581 58.8574 109.685 58.7772 109.819C55.2387 115.689 51.1372 122.999 45.6484 127.069C41.8485 129.896 37.4019 132.432 32.3085 134.679C32.0058 134.814 31.667 134.828 31.3636 134.719C27.5435 133.359 24.5377 132.149 22.1452 128.609C19.8532 125.199 17.7019 122.149 16.5157 118.109C15.8422 115.829 15.3396 109.739 11.8814 110.649C9.56933 104.369 8.15186 97.8722 7.62912 91.1589C7.5487 90.1489 6.42279 88.6089 6.18153 87.0789C5.75261 84.4256 4.75407 80.2622 3.18585 74.5889C1.04797 66.8489 0.47831 58.3322 1.47688 49.0389C1.9192 44.8489 3.69852 42.3589 8.26244 43.5889C10.2998 44.1289 11.3252 45.4489 11.3386 47.5489C11.4391 61.1223 13.2854 74.7056 16.8776 88.2989C17.3601 90.1256 18.0102 91.8856 18.8278 93.5789C18.8525 93.6378 18.9316 93.7169 19.056 93.8071C19.1804 93.8973 19.3452 93.9949 19.5315 94.0889L20.0442 94.3389C20.1035 94.3694 20.1677 94.3722 20.231 94.3473C20.2943 94.3223 20.3545 94.2703 20.4058 94.1962C20.4571 94.1221 20.498 94.0283 20.5244 93.9238C20.5508 93.8193 20.562 93.7075 20.5569 93.5989C19.7929 77.6589 19.5818 61.7189 19.9236 45.7789C19.9772 43.2989 20.3056 40.0289 20.9087 35.9689C21.8537 29.5589 21.7733 24.1189 23.6029 16.8289C24.8393 11.8389 24.6081 7.48887 28.2573 2.30887C29.028 1.20887 30.0734 0.802231 31.3937 1.0889C38.0486 2.5389 36.8824 7.39887 35.9676 13.0589C35.083 18.4789 33.8968 23.5989 33.3037 29.2589C33.0222 31.9889 32.1376 34.5189 32.1276 37.1589C32.1142 41.1589 32.0773 43.6156 32.0169 44.5289C30.9648 60.3756 30.8173 76.2322 31.5746 92.0989C31.5866 92.3325 31.6225 92.5475 31.6778 92.7179C31.7331 92.8883 31.8055 93.0067 31.8863 93.0589C32.6033 93.4789 33.3506 93.5056 34.128 93.1389C34.1926 93.1088 34.2582 93.0128 34.3158 92.8641C34.3734 92.7154 34.4202 92.5214 34.4497 92.3089C35.2439 86.7189 36.4703 81.1489 37.1137 75.6489C38.3066 65.5356 40.1228 54.7422 42.5622 43.2689C45.0754 31.3989 51.3282 14.8989 56.3445 6.99887C58.0601 4.29887 60.2114 4.43557 62.7983 7.40891C63.7164 8.4689 64.018 9.67891 63.703 11.0389C60.9385 23.0089 56.9376 34.2389 54.6154 42.2589C49.9007 58.5089 48.051 73.8189 46.0806 93.1989C46.0663 93.3425 46.0843 93.4816 46.1317 93.594C46.1791 93.7063 46.2531 93.7855 46.342 93.8189C47.0759 94.1189 48.6039 88.5889 48.7648 87.9489C53.3086 70.2889 61.1597 53.5189 71.2627 38.3389C71.8457 37.4656 73.0922 36.6356 75.0023 35.8489C80.0789 33.7589 83.6074 37.9489 81.6572 43.0989C77.4351 54.2489 69.1214 70.5789 64.7485 85.3189C64.1654 87.3189 64.8691 90.3089 67.4627 87.5989C71.6179 83.2589 75.8903 79.0556 80.28 74.9889C83.3661 72.1389 86.2814 68.7289 89.4279 73.5989C89.6046 73.8787 89.689 74.2039 89.6692 74.5289C89.5083 77.1422 88.8247 79.0722 87.6184 80.3189C78.3598 89.8189 68.1463 98.8089 60.7475 109.879ZM28.0763 118.569C28.5722 118.769 28.7733 118.666 28.6794 118.259L28.0562 115.599C27.902 114.932 27.6139 114.822 27.1917 115.269C25.8312 116.709 26.1261 117.809 28.0763 118.569Z" fill="#181D31"/>
<path d="M60.7435 109.879C55.9483 119.359 49.9569 127.709 40.7989 133.229C38.5672 134.569 35.5715 134.929 33.1086 136.669C32.8474 136.851 32.6497 137.121 32.5457 137.439C28.3336 149.629 23.8903 163.929 15.8682 173.939C13.8644 176.439 11.1703 177.739 7.7859 177.839C7.62743 177.842 7.47243 177.805 7.33652 177.733C7.20062 177.661 7.08859 177.556 7.01182 177.429C6.08698 175.819 6.72031 174.579 8.40916 173.899C16.9942 170.469 22.5332 155.729 25.2977 147.079C25.6093 146.069 26.5743 145.209 26.8558 143.759C27.3719 141.072 28.223 138.496 29.4092 136.029C29.4685 135.904 29.4786 135.763 29.4375 135.633C29.3964 135.503 29.3071 135.394 29.1881 135.329C25.931 133.559 22.4327 132.179 20.2412 129.109C16.2804 123.542 13.4925 117.389 11.8774 110.649C15.3355 109.739 15.8381 115.829 16.5116 118.109C17.6978 122.149 19.8491 125.199 22.1411 128.609C24.5336 132.149 27.5394 133.359 31.3595 134.719C31.6629 134.828 32.0017 134.814 32.3044 134.679C37.3978 132.432 41.8444 129.896 45.6443 127.069C51.1331 122.999 55.2346 115.689 58.7731 109.819C58.8533 109.685 58.9715 109.581 59.1084 109.523C59.2452 109.465 59.3928 109.456 59.5271 109.499L60.7435 109.879Z" fill="#090F19"/>
<path d="M29.2728 118.569C27.3328 117.809 27.0394 116.709 28.3928 115.269C28.8128 114.822 29.0994 114.932 29.2528 115.599L29.8728 118.259C29.9661 118.665 29.7661 118.769 29.2728 118.569Z" fill="#373A4C"/>
</svg>
