<svg width="105" height="166" viewBox="0 0 105 166" fill="none" xmlns="http://www.w3.org/2000/svg">
<path d="M36.6672 30.8012C40.2472 20.4712 43.7272 10.4412 49.5972 1.06122C50.4039 -0.225442 51.3539 -0.342108 52.4472 0.711225C52.9472 1.20123 54.0272 2.69123 54.3872 3.47123C58.0539 11.4112 61.1706 19.5679 63.7373 27.9412C65.7473 34.4912 69.0172 42.2312 76.1072 45.1812C82.6272 47.8912 90.9072 46.0112 97.9372 48.3512C101.817 49.6512 104.027 52.5212 100.237 56.1512C98.7073 57.6212 94.4473 58.5912 91.7972 58.9112C84.1872 59.8512 70.9272 61.5312 67.9572 70.1212C66.0772 75.5812 69.8172 77.6412 74.6272 78.4412C81.3739 79.5679 87.9706 81.2546 94.4172 83.5012C97.2672 84.5012 100.007 86.3212 98.4372 89.6312C95.0972 96.7012 78.9273 92.7912 72.9273 96.4712C69.3373 98.6812 69.0572 103.401 72.4172 105.801C73.4372 106.528 75.3139 107.188 78.0472 107.781C89.8672 110.321 97.6172 112.095 101.297 113.101C106.847 114.621 102.957 120.831 99.0272 121.211C90.1772 122.071 78.6372 122.001 71.6072 128.121C65.8772 133.111 65.6172 145.801 67.5772 152.311C69.4572 158.551 70.9472 166.701 60.7772 165.641C54.4972 164.981 48.2772 164.051 42.0272 163.261C38.4606 162.815 35.4672 161.868 33.0472 160.421C27.8372 157.311 33.0472 148.871 32.8872 144.251C32.8139 142.038 32.4239 139.438 31.7172 136.451C28.0172 120.821 9.84723 133.341 1.33723 123.431C-1.84277 119.721 1.14724 115.181 5.09724 113.971C11.3572 112.051 26.0973 108.601 29.8673 103.341C30.056 103.075 30.1573 102.757 30.1572 102.431C30.0706 96.9846 27.2472 93.8446 21.6872 93.0112C16.0139 92.1646 10.2772 90.5779 4.47724 88.2512C4.15311 88.1214 3.89233 87.9064 3.73725 87.6412C-1.11275 79.2912 16.6772 79.9312 19.5272 80.2012C23.2172 80.5612 26.8172 81.2012 29.9472 79.3112C36.6772 75.2612 34.4672 65.3212 27.0272 62.9012C23.5472 61.7679 18.8172 61.1279 12.8372 60.9812C10.6672 60.9312 2.94724 59.0312 5.84724 55.2512C6.6539 54.2046 7.68059 53.4679 8.92725 53.0412C22.5573 48.4112 31.9272 44.4812 36.6672 30.8012Z" fill="#151E30"/>
</svg>
