<svg width="24" height="23" viewBox="0 0 24 23" fill="none" xmlns="http://www.w3.org/2000/svg">
<path d="M3.69895 15.1L6.23899 15.74C6.44945 15.7909 6.63875 15.8773 6.77524 15.9847C6.91174 16.0921 6.98718 16.2139 6.98899 16.33L7.19895 20.78C7.20737 20.9592 7.26355 21.1297 7.35996 21.269C7.45637 21.4082 7.58852 21.5097 7.73899 21.56C10.5523 22.4467 13.0456 21.9266 15.219 19.9999C15.4374 19.8138 15.7127 19.7173 15.989 19.73L20.749 20.04C22.3423 20.1466 22.9156 19.4 22.469 17.8C21.1823 13.18 20.0357 8.52329 19.029 3.82996C18.149 -0.290043 16.469 2.12998 14.909 3.72998C14.129 4.52998 13.1856 5.01333 12.079 5.17999C7.90895 5.82999 2.39895 6.74998 1.94895 12.29C1.82895 13.8366 2.41228 14.7733 3.69895 15.1Z" stroke="#BCE8DB" stroke-width="2"/>
<path d="M3.69895 15.1C2.41228 14.7733 1.82895 13.8366 1.94895 12.29C2.39895 6.74998 7.90895 5.82999 12.079 5.17999C13.1856 5.01333 14.129 4.52998 14.909 3.72998C16.469 2.12998 18.149 -0.290043 19.029 3.82996C20.0357 8.52329 21.1823 13.18 22.469 17.8C22.9156 19.4 22.3423 20.1466 20.749 20.04L15.989 19.73C15.7127 19.7173 15.4374 19.8138 15.219 19.9999C13.0456 21.9266 10.5523 22.4467 7.73899 21.56C7.58852 21.5097 7.45637 21.4082 7.35996 21.269C7.26355 21.1297 7.20737 20.9592 7.19895 20.78L6.98899 16.33C6.98718 16.2139 6.91174 16.0921 6.77524 15.9847C6.63875 15.8773 6.44945 15.7909 6.23899 15.74L3.69895 15.1Z" fill="#78D1B7"/>
</svg>
