<svg width="148" height="191" viewBox="0 0 148 191" fill="none" xmlns="http://www.w3.org/2000/svg">
<path d="M38.7047 188.414C40.1047 189.694 41.1947 189.47 41.9747 187.744C43.6614 184.004 45.6647 180.524 47.9847 177.304C58.7247 162.364 70.5847 149.414 85.3747 137.914C92.548 132.334 99.6913 126.7 106.805 121.014C107.06 120.811 107.368 120.683 107.695 120.644C117.735 119.514 128.635 117.074 137.005 111.074C145.775 104.784 149.405 93.1436 142.805 83.6836C137.765 76.4536 131.055 71.8236 123.685 66.2736C114.855 59.6336 103.215 48.8137 103.775 36.9137C104.248 26.8737 103.525 16.917 101.605 7.04363C101.205 4.97697 100.515 3.38363 99.5347 2.26363C98.1881 0.736968 96.7081 0.593642 95.0947 1.83364C88.6147 6.82364 83.8147 13.1636 77.3247 18.0236C66.2747 26.2936 48.6147 36.3836 42.8647 48.4236C41.2947 51.6836 42.0847 54.3236 43.9147 57.1136C44.9014 58.6203 44.5747 59.737 42.9347 60.4636C38.8547 62.277 35.028 64.607 31.4547 67.4536C29.8414 68.7403 28.2047 69.7136 26.5447 70.3736C15.4547 74.7836 2.4047 79.6736 1.0747 93.6536C0.274699 102.154 6.04472 111.764 11.4747 118.514C26.7147 137.444 43.0647 157.404 37.5847 183.994C37.198 185.9 37.5714 187.374 38.7047 188.414Z" stroke="#FEA9A0" stroke-width="2"/>
<path d="M87.7748 20.8639C82.7448 26.8139 75.0948 33.8739 72.1648 40.9239C71.4115 42.7373 71.5148 44.5006 72.4748 46.2139C75.4748 51.5839 79.2348 56.614 81.1048 62.504C81.1982 62.8173 81.3381 62.8339 81.5248 62.5539C84.4915 58.0406 87.4614 53.524 90.4348 49.004C94.0248 43.544 93.1848 38.0339 92.6148 29.8939C92.3548 26.0339 92.7948 22.3039 92.9648 18.4339C93.0381 16.7873 92.4382 16.4873 91.1648 17.534C89.8915 18.5806 88.7615 19.6906 87.7748 20.8639Z" stroke="#FEA9A0" stroke-width="2"/>
<path d="M65.0347 118.774C64.4247 108.004 48.1647 105.694 45.5147 93.6338C42.5147 79.9138 66.5947 74.8438 69.9547 64.4938C70.0526 64.1867 70.0596 63.8569 69.9747 63.5438C67.6647 55.4438 61.7147 51.4738 61.2847 42.0038C61.2514 41.2438 60.9247 41.1104 60.3047 41.6038C57.858 43.5438 55.8414 45.8638 54.2547 48.5638C53.628 49.6305 53.5081 50.7304 53.8947 51.8638C61.6347 74.5538 38.5647 64.7638 33.7247 81.7638C32.0581 87.6238 32.5547 92.8171 35.2147 97.3438C41.5947 108.214 48.4047 117.414 51.8847 129.804C51.91 129.895 51.9566 129.979 52.0206 130.049C52.0846 130.119 52.1642 130.173 52.253 130.206C52.3418 130.239 52.4372 130.251 52.5313 130.24C52.6255 130.229 52.7158 130.196 52.7948 130.144C55.7348 128.204 65.2447 122.394 65.0347 118.774Z" stroke="#FEA9A0" stroke-width="2"/>
<path d="M49.5255 145.023C45.6055 137.963 44.5755 129.533 40.6455 122.113C33.1455 107.963 18.4255 98.4032 22.8655 80.3232C22.9655 79.9099 22.8188 79.7899 22.4255 79.9632C11.5455 84.7232 5.78551 96.4432 13.4555 107.033C21.3955 118.013 30.9055 127.463 38.3055 140.633C43.1655 149.263 44.3155 158.003 44.8855 167.613C44.9788 169.287 45.5388 169.457 46.5655 168.123C50.0855 163.53 53.5888 158.923 57.0755 154.303C68.0755 139.703 82.7755 127.283 96.6355 116.083C99.2555 113.973 105.165 110.423 108.055 106.583C116.085 95.9032 109.266 90.5232 99.9655 85.1332C91.5755 80.2632 82.8055 76.6232 80.9955 66.3032C80.9422 66.0299 80.8555 66.0266 80.7355 66.2932C79.1622 69.7466 77.2189 72.9899 74.9055 76.0232C74.8043 76.1566 74.7569 76.325 74.7715 76.4988C74.7861 76.6726 74.8619 76.8406 74.9855 76.9733C82.9755 85.4733 93.3655 94.8932 86.8355 107.833C86.7771 107.95 86.6731 108.039 86.5459 108.08C86.4187 108.122 86.2786 108.112 86.1555 108.053C83.3689 106.68 81.4222 104.953 80.3155 102.873C76.4288 95.6066 71.7955 89.8199 66.4155 85.5132C66.2408 85.3718 66.0749 85.1106 65.9455 84.7732L64.7555 81.5132C64.7257 81.4361 64.6829 81.3649 64.6298 81.3039C64.5766 81.2429 64.5143 81.1934 64.4467 81.1587C64.3791 81.1239 64.3077 81.1046 64.2369 81.102C64.1662 81.0993 64.0976 81.1134 64.0355 81.1432C60.0289 82.9766 56.9721 85.8332 54.8655 89.7132C54.6972 90.0242 54.6374 90.3831 54.6955 90.7332C54.9555 92.4266 55.6455 93.7566 56.7655 94.7233C64.3055 101.243 82.0655 113.703 70.7855 125.373C67.2255 129.063 59.6655 132.753 55.4455 137.983C53.5788 140.29 51.7822 142.647 50.0555 145.053C50.0254 145.097 49.9844 145.133 49.9365 145.156C49.8886 145.18 49.8354 145.191 49.782 145.188C49.7287 145.185 49.6771 145.168 49.6321 145.139C49.5872 145.11 49.5505 145.07 49.5255 145.023Z" stroke="#FEA9A0" stroke-width="2"/>
<path d="M38.7086 188.414C37.5753 187.374 37.202 185.9 37.5886 183.994C43.0686 157.404 26.7186 137.444 11.4786 118.514C6.04863 111.764 0.278605 102.154 1.0786 93.6536C2.4086 79.6736 15.4586 74.7836 26.5486 70.3736C28.2086 69.7136 29.8453 68.7403 31.4586 67.4536C35.0319 64.607 38.8586 62.277 42.9386 60.4636C44.5786 59.737 44.9053 58.6203 43.9186 57.1136C42.0886 54.3236 41.2986 51.6836 42.8686 48.4236C48.6186 36.3836 66.2786 26.2936 77.3286 18.0236C83.8186 13.1636 88.6186 6.82364 95.0986 1.83364C96.712 0.593642 98.192 0.736968 99.5386 2.26363C100.519 3.38363 101.209 4.97697 101.609 7.04363C103.529 16.917 104.252 26.8737 103.779 36.9137C103.219 48.8137 114.859 59.6336 123.689 66.2736C131.059 71.8236 137.769 76.4536 142.809 83.6836C149.409 93.1436 145.779 104.784 137.009 111.074C128.639 117.074 117.739 119.514 107.699 120.644C107.372 120.683 107.063 120.811 106.809 121.014C99.6953 126.7 92.5519 132.334 85.3786 137.914C70.5886 149.414 58.7286 162.364 47.9886 177.304C45.6686 180.524 43.6653 184.004 41.9786 187.744C41.1986 189.47 40.1086 189.694 38.7086 188.414ZM87.7786 20.8636C82.7486 26.8136 75.0986 33.8736 72.1686 40.9236C71.4153 42.737 71.5186 44.5003 72.4786 46.2136C75.4786 51.5836 79.2386 56.6137 81.1086 62.5037C81.202 62.817 81.3419 62.8336 81.5286 62.5536C84.4953 58.0403 87.4653 53.5237 90.4386 49.0037C94.0286 43.5437 93.1886 38.0336 92.6186 29.8936C92.3586 26.0336 92.7986 22.3036 92.9686 18.4336C93.042 16.787 92.442 16.487 91.1686 17.5337C89.8953 18.5803 88.7653 19.6903 87.7786 20.8636ZM65.0386 118.774C64.4286 108.004 48.1686 105.694 45.5186 93.6336C42.5186 79.9136 66.5986 74.8436 69.9586 64.4936C70.0565 64.1866 70.0635 63.8567 69.9786 63.5436C67.6686 55.4436 61.7186 51.4737 61.2886 42.0037C61.2553 41.2437 60.9286 41.1103 60.3086 41.6036C57.8619 43.5436 55.8453 45.8637 54.2586 48.5637C53.6319 49.6303 53.5119 50.7303 53.8986 51.8636C61.6386 74.5536 38.5686 64.7636 33.7286 81.7636C32.062 87.6236 32.5586 92.817 35.2186 97.3437C41.5986 108.214 48.4086 117.414 51.8886 129.804C51.9139 129.895 51.9605 129.979 52.0245 130.049C52.0885 130.119 52.1681 130.173 52.2569 130.206C52.3457 130.239 52.4411 130.251 52.5352 130.24C52.6294 130.229 52.7197 130.196 52.7986 130.144C55.7386 128.204 65.2486 122.394 65.0386 118.774ZM95.8986 71.5836C108.209 80.3436 133.399 89.0936 117.989 109.584C117.649 110.037 117.762 110.244 118.329 110.204C133.759 109.044 144.279 91.9137 128.979 80.5037C118.199 72.4737 108.429 66.4637 100.139 55.5037C100.046 55.3799 99.9248 55.2808 99.785 55.2152C99.6453 55.1496 99.4915 55.1193 99.3373 55.1273C99.1831 55.1352 99.0331 55.181 98.9008 55.2606C98.7685 55.3401 98.6578 55.4511 98.5786 55.5836C95.7986 60.2036 89.2286 66.8436 95.8986 71.5836ZM49.5286 145.024C45.6086 137.964 44.5786 129.534 40.6486 122.114C33.1486 107.964 18.4286 98.4036 22.8686 80.3236C22.9686 79.9103 22.8219 79.7903 22.4286 79.9636C11.5486 84.7236 5.78861 96.4436 13.4586 107.034C21.3986 118.014 30.9086 127.464 38.3086 140.634C43.1686 149.264 44.3186 158.004 44.8886 167.614C44.9819 169.287 45.5419 169.457 46.5686 168.124C50.0886 163.53 53.5919 158.924 57.0786 154.304C68.0786 139.704 82.7786 127.284 96.6386 116.084C99.2586 113.974 105.169 110.424 108.059 106.584C116.089 95.9036 109.269 90.5236 99.9686 85.1336C91.5786 80.2636 82.8086 76.6236 80.9986 66.3036C80.9453 66.0303 80.8586 66.027 80.7386 66.2936C79.1653 69.747 77.222 72.9903 74.9086 76.0236C74.8074 76.157 74.76 76.3254 74.7746 76.4992C74.7892 76.673 74.865 76.841 74.9886 76.9737C82.9786 85.4737 93.3686 94.8936 86.8386 107.834C86.7802 107.951 86.6762 108.04 86.549 108.081C86.4218 108.122 86.2817 108.112 86.1586 108.054C83.372 106.68 81.4253 104.954 80.3186 102.874C76.4319 95.607 71.7986 89.8203 66.4186 85.5136C66.2439 85.3722 66.078 85.111 65.9486 84.7736L64.7586 81.5136C64.7288 81.4366 64.686 81.3653 64.6329 81.3043C64.5797 81.2433 64.5174 81.1938 64.4498 81.1591C64.3822 81.1243 64.3108 81.105 64.24 81.1024C64.1693 81.0997 64.1007 81.1138 64.0386 81.1436C60.032 82.977 56.9753 85.8336 54.8686 89.7136C54.7003 90.0246 54.6405 90.3835 54.6986 90.7336C54.9586 92.427 55.6486 93.757 56.7686 94.7237C64.3086 101.244 82.0686 113.704 70.7886 125.374C67.2286 129.064 59.6686 132.754 55.4486 137.984C53.5819 140.29 51.7853 142.647 50.0586 145.054C50.0285 145.098 49.9875 145.133 49.9396 145.157C49.8917 145.18 49.8385 145.191 49.7851 145.188C49.7318 145.185 49.6802 145.168 49.6352 145.14C49.5903 145.111 49.5536 145.071 49.5286 145.024Z" fill="#FD5441"/>
</svg>
