<svg width="285" height="121" viewBox="0 0 285 121" fill="none" xmlns="http://www.w3.org/2000/svg">
<path d="M101.516 67.1582C95.3356 76.3049 87.3356 83.3882 77.5156 88.4082" stroke="#9498AC" stroke-width="2"/>
<path d="M77.5158 88.408C61.2958 96.308 42.8058 92.488 29.3658 81.138C22.7658 75.5647 19.9058 68.5847 20.7858 60.198C21.6258 52.208 36.1158 49.248 42.5658 48.188C50.5391 46.8813 58.5058 45.558 66.4658 44.218C69.5658 43.6913 72.5424 42.6313 75.3958 41.038C76.8624 40.218 77.6591 38.9713 77.7858 37.298C78.0358 34.138 75.6658 34.438 73.5258 35.138C68.7524 36.718 63.8324 37.4813 58.7658 37.428C44.6458 37.298 30.6958 36.298 17.6758 43.048" stroke="#8B8D9D" stroke-width="2"/>
<path d="M17.6748 43.0483C5.13483 50.0683 -1.71517 66.1283 2.01483 80.4883" stroke="#9498AC" stroke-width="2"/>
<path d="M2.01562 80.4882C6.90562 99.9382 23.8456 112.358 42.8356 116.128C96.7056 126.848 141.336 105.958 187.526 82.2182C202.226 74.6582 221.946 68.6082 239.016 69.3082C252.829 69.8682 266.402 72.1015 279.736 76.0082C288.176 78.4782 281.596 68.6382 279.606 65.8182C265.976 46.5282 249.126 32.2982 228.656 18.5782C214.546 9.11822 200.216 5.43822 183.186 2.35822C154.436 -2.84178 131.296 6.71822 118.616 33.9982C113.326 45.3882 108.396 56.5282 101.516 67.1582" stroke="#898C9B" stroke-width="2"/>
<path d="M2.01562 80.488C3.80562 80.108 3.72562 81.918 4.18562 83.098C7.65562 91.918 13.9856 101.408 22.5856 105.858C27.6356 108.468 32.0956 111.018 37.7056 112.348C46.5056 114.428 52.1956 115.538 54.7756 115.678C69.8023 116.505 81.8823 116.418 91.0156 115.418C112.456 113.065 134.022 106.455 155.716 95.588C178.936 83.9547 194.209 76.7347 201.536 73.928C206.876 71.8747 213.909 70.0047 222.636 68.318C241.886 64.598 260.326 68.968 279.026 73.098C280.652 73.458 281.072 72.9047 280.286 71.4381C278.566 68.2281 273.406 58.298 269.056 59.198" stroke="#1F264E" stroke-width="2"/>
<path d="M269.056 59.1982L268.016 57.9082" stroke="#4A5072" stroke-width="2"/>
<path d="M268.015 57.9082C266.595 54.1582 264.385 49.9782 260.545 48.2682C259.138 47.6482 257.808 46.8749 256.555 45.9482" stroke="#1F264E" stroke-width="2"/>
<path d="M256.557 45.9482L255.727 44.4482" stroke="#404669" stroke-width="2"/>
<path d="M255.726 44.4479C255.806 41.0979 243.296 31.5579 239.866 29.0879C227.846 20.4379 217.086 12.7179 204.526 9.17794C180.426 2.36794 150.826 -3.37205 131.276 18.688C118.936 32.598 113.616 50.228 104.996 66.688C103.989 68.6146 102.829 68.7713 101.516 67.158" stroke="#1F264E" stroke-width="2"/>
<path d="M255.727 44.4482C252.697 45.9682 256.627 46.9982 256.557 45.9482" stroke="#4B527B" stroke-width="2"/>
<path d="M268.014 57.9082C265.354 58.4782 268.354 62.5982 269.054 59.1982" stroke="#555B83" stroke-width="2"/>
<path d="M17.6758 43.048C20.8224 44.148 23.8458 44.0547 26.7458 42.768C33.5958 39.718 44.0558 39.918 51.4458 40.288C55.4158 40.488 62.9958 40.828 66.5758 39.368C66.9624 39.2147 67.2824 39.1513 67.5358 39.178C69.3091 39.3847 70.9858 39.0747 72.5658 38.248C73.7258 37.6413 73.9358 37.8447 73.1958 38.858C72.4024 39.9313 71.3424 40.3747 70.0158 40.188C69.7775 40.1564 69.4376 40.2387 69.0658 40.418C67.5358 41.158 65.8058 42.058 64.0858 42.228C52.2658 43.388 40.6991 45.7347 29.3858 49.268C25.9758 50.338 23.5258 50.518 21.9558 54.188C21.8291 54.4813 21.6324 54.7347 21.3658 54.948C18.0658 57.588 17.9958 64.288 18.8958 67.938C19.2624 69.4447 19.4958 70.9847 19.5958 72.558C19.6224 72.898 19.7258 73.208 19.9058 73.488L24.9058 81.098" stroke="#212750" stroke-width="2"/>
<path d="M24.9063 81.0981C23.9597 82.4381 24.3163 83.4882 25.9763 84.2482C27.263 84.8415 27.7063 84.4915 27.3063 83.1982" stroke="#3D446F" stroke-width="2"/>
<path d="M27.3047 83.1982H27.9747C28.2589 83.1979 28.5703 83.3182 28.8547 83.5382C38.9147 91.2049 50.268 95.1216 62.9147 95.2882C64.5547 95.3082 80.1347 90.9282 77.5147 88.4082" stroke="#212750" stroke-width="2"/>
<path d="M27.3063 83.1982L24.9062 81.0981" stroke="#343A60" stroke-width="2"/>
<path d="M131.266 93.6582L132.596 94.2882C132.705 94.3381 132.847 94.3587 133.014 94.3483C133.18 94.3379 133.365 94.2969 133.556 94.2282C137.736 92.6882 141.772 90.8316 145.666 88.6582C156.946 82.3782 168.726 77.9482 180.016 72.1882C181.122 71.6216 181.056 71.2916 179.816 71.1982C178.922 71.1316 177.822 71.2016 176.516 71.4082" stroke="#232E5C" stroke-width="2"/>
<path d="M176.516 71.4083C197.896 62.855 219.729 59.1983 242.016 60.4383C243.389 60.5183 243.499 60.185 242.346 59.4383C232.493 53.0783 223.029 46.4616 213.956 39.5883C202.506 30.8983 194.356 24.7383 183.866 20.0883C168.896 13.4483 158.056 25.7183 149.726 37.1183C141.913 47.8116 134.056 58.4716 126.156 69.0983C116.506 82.0983 105.986 93.5983 91.9959 101.498C91.8367 101.59 91.7075 101.716 91.6336 101.853C91.5597 101.99 91.5462 102.127 91.5959 102.238C91.6959 102.472 91.9425 102.585 92.3359 102.578C105.516 102.458 119.106 98.4883 131.266 93.6583" stroke="#507B8B" stroke-width="2"/>
<path d="M176.516 71.4082C161.216 78.4482 146.306 86.6682 131.266 93.6582" stroke="#497888" stroke-width="2"/>
<path d="M158.743 24.2732C158.798 24.1962 158.825 24.1005 158.823 23.9914C158.82 23.8823 158.788 23.7621 158.729 23.6376C158.669 23.5131 158.584 23.3867 158.476 23.2656C158.369 23.1446 158.242 23.0312 158.103 22.9321C157.964 22.833 157.816 22.75 157.666 22.6878C157.517 22.6257 157.369 22.5856 157.232 22.57C157.095 22.5543 156.971 22.5633 156.867 22.5965C156.763 22.6297 156.681 22.6864 156.626 22.7634C156.572 22.8404 156.545 22.9361 156.547 23.0452C156.549 23.1543 156.581 23.2745 156.641 23.399C156.7 23.5235 156.786 23.6499 156.894 23.771C157.001 23.892 157.128 24.0054 157.267 24.1045C157.406 24.2036 157.554 24.2866 157.704 24.3488C157.853 24.4109 158.001 24.451 158.138 24.4666C158.275 24.4823 158.399 24.4733 158.503 24.4401C158.607 24.4069 158.688 24.3502 158.743 24.2732Z" stroke="#3D446F" stroke-width="2"/>
<path d="M147.557 28.3637C147.65 28.3849 147.749 28.381 147.846 28.3521C147.943 28.3232 148.038 28.2699 148.124 28.1953C148.211 28.1206 148.288 28.0261 148.35 27.9171C148.412 27.8081 148.459 27.6868 148.488 27.56C148.517 27.4332 148.527 27.3035 148.518 27.1782C148.509 27.053 148.48 26.9346 148.435 26.83C148.389 26.7253 148.327 26.6364 148.251 26.5682C148.176 26.5001 148.089 26.4541 147.995 26.4329C147.902 26.4116 147.804 26.4156 147.706 26.4445C147.609 26.4734 147.514 26.5267 147.428 26.6013C147.341 26.6759 147.265 26.7704 147.202 26.8794C147.14 26.9884 147.093 27.1098 147.064 27.2366C147.035 27.3634 147.025 27.4931 147.035 27.6183C147.044 27.7436 147.072 27.8619 147.118 27.9666C147.163 28.0713 147.226 28.1602 147.301 28.2283C147.376 28.2965 147.463 28.3425 147.557 28.3637Z" stroke="#3D446F" stroke-width="2"/>
<path d="M208.757 29.7143C208.875 29.7464 209 29.7469 209.125 29.7158C209.25 29.6848 209.374 29.6228 209.487 29.5334C209.601 29.444 209.703 29.329 209.788 29.1949C209.873 29.0608 209.939 28.9103 209.982 28.7518C210.025 28.5934 210.044 28.4303 210.039 28.2716C210.034 28.113 210.004 27.9621 209.951 27.8274C209.898 27.6928 209.823 27.5771 209.731 27.4869C209.638 27.3967 209.53 27.3337 209.412 27.3017C209.294 27.2697 209.169 27.2692 209.044 27.3003C208.918 27.3313 208.795 27.3933 208.681 27.4827C208.568 27.572 208.465 27.6871 208.381 27.8212C208.296 27.9553 208.23 28.1058 208.187 28.2642C208.144 28.4226 208.124 28.5858 208.13 28.7444C208.135 28.9031 208.165 29.054 208.218 29.1886C208.271 29.3233 208.346 29.439 208.438 29.5292C208.531 29.6194 208.639 29.6823 208.757 29.7143Z" stroke="#4B527B" stroke-width="2"/>
<path d="M215.197 31.2682L216.247 32.2182C216.279 32.2476 216.324 32.249 216.379 32.2223C216.433 32.1956 216.495 32.1415 216.56 32.0638C216.625 31.9862 216.692 31.887 216.755 31.7736C216.819 31.6601 216.877 31.5353 216.927 31.4082C217.887 28.9482 217.417 28.5415 215.517 30.1882C215.42 30.2724 215.334 30.3685 215.264 30.4702C215.194 30.572 215.143 30.6771 215.113 30.7789C215.083 30.8807 215.075 30.9768 215.089 31.0611C215.103 31.1454 215.14 31.2159 215.197 31.2682Z" stroke="#384B61" stroke-width="2"/>
<path d="M139.79 39.698C139.871 39.6846 139.949 39.6517 140.018 39.6012C140.087 39.5506 140.147 39.4834 140.193 39.4034C140.239 39.3234 140.271 39.2321 140.287 39.1348C140.303 39.0375 140.303 38.9361 140.287 38.8363C140.254 38.6347 140.157 38.4522 140.017 38.3288C139.877 38.2054 139.706 38.1512 139.541 38.1782C139.459 38.1915 139.382 38.2244 139.312 38.275C139.243 38.3255 139.184 38.3927 139.138 38.4727C139.092 38.5527 139.059 38.644 139.043 38.7413C139.027 38.8386 139.027 38.9401 139.044 39.0399C139.077 39.2414 139.174 39.4239 139.314 39.5474C139.454 39.6708 139.625 39.7249 139.79 39.698Z" stroke="#4B527B" stroke-width="2"/>
<path d="M239.419 42.23C239.498 42.0983 239.482 41.9159 239.372 41.723C239.263 41.5301 239.07 41.3425 238.837 41.2014C238.721 41.1315 238.598 41.0752 238.476 41.0356C238.354 40.996 238.235 40.9739 238.125 40.9706C238.015 40.9674 237.917 40.9829 237.837 41.0165C237.756 41.05 237.694 41.1008 237.655 41.166C237.576 41.2977 237.592 41.4801 237.701 41.673C237.811 41.8659 238.003 42.0535 238.237 42.1946C238.353 42.2645 238.476 42.3208 238.598 42.3604C238.72 42.4 238.839 42.4221 238.949 42.4254C239.058 42.4287 239.156 42.4131 239.237 42.3796C239.318 42.3461 239.38 42.2952 239.419 42.23Z" stroke="#3D446F" stroke-width="2"/>
<path d="M13.1317 71.4215C13.3328 71.5944 13.6156 71.6556 13.9179 71.5917C14.2203 71.5277 14.5174 71.3438 14.744 71.0804C14.8562 70.95 14.9476 70.804 15.0132 70.6507C15.0787 70.4974 15.1171 70.3399 15.126 70.1871C15.1349 70.0343 15.1143 69.8893 15.0652 69.7603C15.0161 69.6313 14.9396 69.5208 14.8401 69.4351C14.639 69.2622 14.3562 69.201 14.0538 69.265C13.7515 69.3289 13.4543 69.5128 13.2278 69.7762C13.1156 69.9067 13.0241 70.0527 12.9586 70.2059C12.893 70.3592 12.8547 70.5167 12.8458 70.6695C12.8368 70.8223 12.8575 70.9674 12.9066 71.0964C12.9556 71.2254 13.0321 71.3359 13.1317 71.4215Z" stroke="#3D446F" stroke-width="2"/>
<path d="M7.69263 75.8846C7.79207 75.8232 7.87382 75.7353 7.93322 75.626C7.99261 75.5167 8.02848 75.388 8.03878 75.2474C8.04907 75.1068 8.0336 74.957 7.99324 74.8065C7.95287 74.656 7.88841 74.5079 7.80353 74.3704C7.63211 74.0929 7.38794 73.876 7.12474 73.7675C6.86154 73.6589 6.60085 73.6676 6.40003 73.7916C6.30058 73.853 6.21883 73.9409 6.15943 74.0502C6.10004 74.1596 6.06417 74.2882 6.05387 74.4288C6.04358 74.5694 6.05905 74.7193 6.09942 74.8697C6.13978 75.0202 6.20424 75.1684 6.28913 75.3058C6.46054 75.5833 6.70471 75.8002 6.96791 75.9088C7.23112 76.0173 7.4918 76.0086 7.69263 75.8846Z" stroke="#666B91" stroke-width="2"/>
<path d="M14.7758 84.687C14.961 84.6076 15.0714 84.3745 15.0827 84.0391C15.094 83.7037 15.0053 83.2935 14.836 82.8986C14.6668 82.5037 14.4309 82.1565 14.1802 81.9334C13.9295 81.7103 13.6846 81.6296 13.4993 81.709C13.3141 81.7884 13.2037 82.0215 13.1924 82.3569C13.1811 82.6922 13.2698 83.1025 13.439 83.4974C13.6083 83.8923 13.8442 84.2395 14.0949 84.4626C14.3456 84.6857 14.5905 84.7664 14.7758 84.687Z" stroke="#666B91" stroke-width="2"/>
<path d="M17.0266 88.7201C17.1224 88.6877 17.2097 88.6333 17.2836 88.56C17.3574 88.4867 17.4163 88.396 17.4569 88.2931C17.4976 88.1901 17.5191 88.0769 17.5204 87.9599C17.5216 87.8429 17.5026 87.7244 17.4642 87.6112C17.4259 87.498 17.3691 87.3923 17.2971 87.3001C17.225 87.2079 17.1391 87.1311 17.0443 87.074C16.9494 87.0168 16.8475 86.9806 16.7444 86.9672C16.6412 86.9539 16.5388 86.9637 16.443 86.9961C16.3472 87.0285 16.2599 87.0829 16.1861 87.1562C16.1123 87.2295 16.0534 87.3202 16.0127 87.4232C15.9721 87.5261 15.9505 87.6393 15.9493 87.7563C15.948 87.8733 15.9671 87.9918 16.0054 88.105C16.0437 88.2182 16.1006 88.3239 16.1726 88.4161C16.2447 88.5083 16.3306 88.5851 16.4254 88.6422C16.5202 88.6994 16.6221 88.7356 16.7253 88.749C16.8284 88.7624 16.9308 88.7525 17.0266 88.7201Z" stroke="#4B527B" stroke-width="2"/>
<path d="M20.2439 92.4462C20.3373 92.2919 20.3125 92.0747 20.1748 91.8422C20.0372 91.6098 19.798 91.3812 19.5099 91.2067C19.2218 91.0322 18.9084 90.9261 18.6386 90.9118C18.3688 90.8975 18.1647 90.9761 18.0713 91.1304C17.9779 91.2846 18.0027 91.5019 18.1404 91.7343C18.278 91.9668 18.5172 92.1954 18.8053 92.3699C19.0934 92.5444 19.4068 92.6504 19.6766 92.6647C19.9464 92.6791 20.1505 92.6004 20.2439 92.4462Z" stroke="#4B527B" stroke-width="2"/>
<path d="M59.9679 103.386C60.0417 103.157 60.0081 102.903 59.8746 102.681C59.7411 102.458 59.5185 102.286 59.2559 102.202C58.9933 102.118 58.7121 102.128 58.4743 102.231C58.2364 102.334 58.0613 102.521 57.9875 102.75C57.9138 102.98 57.9474 103.234 58.0809 103.456C58.2144 103.678 58.4369 103.85 58.6995 103.935C58.9622 104.019 59.2433 104.009 59.4812 103.906C59.7191 103.803 59.8942 103.616 59.9679 103.386Z" stroke="#384B61" stroke-width="2"/>
<path d="M83.195 109.896C83.254 109.797 83.2851 109.682 83.2864 109.559C83.2878 109.436 83.2595 109.306 83.203 109.177C83.1465 109.049 83.063 108.924 82.9572 108.81C82.8515 108.696 82.7256 108.594 82.5867 108.512C82.4478 108.429 82.2986 108.367 82.1478 108.329C81.9969 108.291 81.8472 108.277 81.7072 108.289C81.5673 108.301 81.4399 108.338 81.3322 108.399C81.2246 108.459 81.1388 108.541 81.0798 108.64C81.0208 108.74 80.9897 108.855 80.9883 108.978C80.987 109.101 81.0153 109.231 81.0718 109.359C81.1283 109.488 81.2118 109.613 81.3175 109.727C81.4233 109.841 81.5492 109.943 81.6881 110.025C81.827 110.108 81.9761 110.17 82.127 110.208C82.2779 110.246 82.4276 110.26 82.5675 110.248C82.7075 110.236 82.8349 110.198 82.9426 110.138C83.0502 110.078 83.136 109.996 83.195 109.896Z" stroke="#4B527B" stroke-width="2"/>
<path d="M180.586 37.8115C179.989 36.7566 178.893 36.0417 177.537 35.824C176.181 35.6063 174.678 35.9037 173.358 36.6507C172.704 37.0206 172.115 37.4898 171.624 38.0314C171.133 38.573 170.75 39.1765 170.496 39.8074C170.243 40.4383 170.124 41.0843 170.147 41.7084C170.17 42.3325 170.334 42.9226 170.63 43.4449C171.226 44.4998 172.323 45.2148 173.679 45.4324C175.035 45.6501 176.538 45.3528 177.858 44.6057C178.512 44.2358 179.101 43.7667 179.592 43.2251C180.083 42.6834 180.466 42.0799 180.719 41.449C180.973 40.8181 181.091 40.1722 181.069 39.5481C181.046 38.9239 180.882 38.3339 180.586 37.8115Z" stroke="#4B7B8C" stroke-width="2"/>
<path d="M198.715 43.739C198.281 42.8679 197.442 42.2431 196.383 42.0021C195.324 41.761 194.132 41.9234 193.068 42.4535C192.542 42.7161 192.063 43.061 191.659 43.4685C191.255 43.8761 190.933 44.3384 190.713 44.829C190.493 45.3196 190.378 45.8289 190.375 46.3279C190.372 46.8268 190.481 47.3056 190.697 47.737C191.131 48.608 191.97 49.2328 193.029 49.4738C194.088 49.7149 195.28 49.5525 196.343 49.0224C196.87 48.7598 197.349 48.415 197.753 48.0074C198.157 47.5998 198.479 47.1375 198.699 46.6469C198.919 46.1563 199.034 45.647 199.037 45.148C199.039 44.6491 198.93 44.1703 198.715 43.739Z" stroke="#477784" stroke-width="2"/>
<path d="M158.224 55.1615C157.736 54.6408 157.136 54.2354 156.458 53.9683C155.779 53.7011 155.035 53.5776 154.268 53.6047C153.501 53.6319 152.726 53.8091 151.988 54.1263C151.249 54.4435 150.562 54.8945 149.965 55.4535C149.367 56.0125 148.872 56.6686 148.506 57.3843C148.141 58.1 147.913 58.8613 147.835 59.6248C147.757 60.3882 147.831 61.1389 148.052 61.8338C148.274 62.5288 148.639 63.1544 149.126 63.6751C149.613 64.1958 150.213 64.6012 150.892 64.8683C151.571 65.1354 152.315 65.259 153.082 65.2318C153.849 65.2047 154.623 65.0275 155.362 64.7103C156.1 64.3931 156.788 63.9421 157.385 63.3831C157.982 62.8241 158.478 62.168 158.843 61.4523C159.209 60.7366 159.437 59.9753 159.515 59.2118C159.593 58.4484 159.519 57.6977 159.297 57.0028C159.076 56.3078 158.711 55.6821 158.224 55.1615Z" stroke="#4B7B8C" stroke-width="2"/>
<path d="M2.01562 80.4882C3.80562 80.1082 3.72562 81.9182 4.18562 83.0982C7.65562 91.9182 13.9856 101.408 22.5856 105.858C27.6356 108.468 32.0956 111.018 37.7056 112.348C46.5056 114.428 52.1956 115.538 54.7756 115.678C69.8023 116.505 81.8823 116.418 91.0156 115.418C112.456 113.065 134.022 106.455 155.716 95.5882C178.936 83.9549 194.209 76.7349 201.536 73.9282C206.876 71.8749 213.909 70.0049 222.636 68.3182C241.886 64.5982 260.326 68.9682 279.026 73.0982C280.652 73.4582 281.072 72.9049 280.286 71.4382C278.566 68.2282 273.406 58.2982 269.056 59.1982L268.016 57.9082C266.596 54.1582 264.386 49.9782 260.546 48.2682C259.139 47.6482 257.809 46.8749 256.556 45.9482L255.726 44.4482C255.806 41.0982 243.296 31.5582 239.866 29.0882C227.846 20.4382 217.086 12.7182 204.526 9.17821C180.426 2.36821 150.826 -3.37178 131.276 18.6882C118.936 32.5982 113.616 50.2282 104.996 66.6882C103.989 68.6149 102.829 68.7716 101.516 67.1582C108.396 56.5282 113.326 45.3882 118.616 33.9982C131.296 6.71822 154.436 -2.84178 183.186 2.35822C200.216 5.43822 214.546 9.11822 228.656 18.5782C249.126 32.2982 265.976 46.5282 279.606 65.8182C281.596 68.6382 288.176 78.4782 279.736 76.0082C266.402 72.1015 252.829 69.8682 239.016 69.3082C221.946 68.6082 202.226 74.6582 187.526 82.2182C141.336 105.958 96.7056 126.848 42.8356 116.128C23.8456 112.358 6.90562 99.9382 2.01562 80.4882Z" fill="#141A3C"/>
<path d="M255.725 44.4484C252.695 45.9684 256.625 46.9984 256.555 45.9484C257.808 46.8751 259.138 47.6484 260.545 48.2684C264.385 49.9784 266.595 54.1584 268.015 57.9084C265.355 58.4784 268.355 62.5984 269.055 59.1984C273.405 58.2984 278.565 68.2284 280.285 71.4384C281.071 72.9051 280.652 73.4584 279.025 73.0984C260.325 68.9684 241.885 64.5984 222.635 68.3184C213.908 70.0051 206.875 71.8751 201.535 73.9284C194.208 76.7351 178.935 83.9551 155.715 95.5884C134.021 106.455 112.455 113.065 91.0148 115.418C81.8815 116.418 69.8015 116.505 54.7748 115.678C52.1948 115.538 46.5048 114.428 37.7048 112.348C32.0948 111.018 27.6348 108.468 22.5848 105.858C13.9848 101.408 7.65483 91.9184 4.18483 83.0984C3.72483 81.9184 3.80483 80.1084 2.01483 80.4884C-1.71517 66.1284 5.13483 50.0684 17.6748 43.0484C20.8215 44.1484 23.8448 44.0551 26.7448 42.7684C33.5948 39.7184 44.0548 39.9184 51.4448 40.2884C55.4148 40.4884 62.9948 40.8284 66.5748 39.3684C66.9615 39.2151 67.2815 39.1518 67.5348 39.1784C69.3082 39.3851 70.9848 39.0751 72.5648 38.2484C73.7248 37.6418 73.9348 37.8451 73.1948 38.8584C72.4015 39.9318 71.3415 40.3751 70.0148 40.1884C69.7766 40.1568 69.4366 40.2391 69.0648 40.4184C67.5348 41.1584 65.8048 42.0584 64.0848 42.2284C52.2648 43.3884 40.6982 45.7351 29.3848 49.2684C25.9748 50.3384 23.5248 50.5184 21.9548 54.1884C21.8282 54.4818 21.6315 54.7351 21.3648 54.9484C18.0648 57.5884 17.9948 64.2884 18.8948 67.9384C19.2615 69.4451 19.4948 70.9851 19.5948 72.5584C19.6215 72.8984 19.7248 73.2084 19.9048 73.4884L24.9048 81.0984C23.9582 82.4384 24.3148 83.4884 25.9748 84.2484C27.2615 84.8418 27.7048 84.4918 27.3048 83.1984H27.9748C28.2591 83.1981 28.5704 83.3184 28.8548 83.5384C38.9148 91.2051 50.2682 95.1218 62.9148 95.2884C64.5548 95.3084 80.1348 90.9284 77.5148 88.4084C87.3348 83.3885 95.3348 76.3051 101.515 67.1584C102.828 68.7718 103.988 68.6151 104.995 66.6884C113.615 50.2284 118.935 32.5984 131.275 18.6884C150.825 -3.37156 180.425 2.36843 204.525 9.17843C217.085 12.7184 227.845 20.4384 239.865 29.0884C243.295 31.5584 255.805 41.0984 255.725 44.4484ZM131.265 93.6584L132.595 94.2884C132.704 94.3384 132.847 94.3589 133.013 94.3485C133.179 94.3381 133.364 94.2971 133.555 94.2284C137.735 92.6884 141.771 90.8318 145.665 88.6584C156.945 82.3784 168.725 77.9484 180.015 72.1884C181.122 71.6218 181.055 71.2918 179.815 71.1984C178.922 71.1318 177.822 71.2018 176.515 71.4084C197.895 62.8551 219.728 59.1984 242.015 60.4384C243.388 60.5184 243.498 60.1851 242.345 59.4384C232.491 53.0784 223.028 46.4618 213.955 39.5884C202.505 30.8984 194.355 24.7384 183.865 20.0884C168.895 13.4484 158.055 25.7184 149.725 37.1184C141.911 47.8118 134.055 58.4718 126.155 69.0984C116.505 82.0984 105.985 93.5984 91.9948 101.498C91.8356 101.59 91.7065 101.716 91.6326 101.853C91.5586 101.99 91.5452 102.127 91.5948 102.238C91.6948 102.472 91.9415 102.585 92.3348 102.578C105.515 102.458 119.105 98.4884 131.265 93.6584ZM158.743 24.2733C158.798 24.1964 158.825 24.1006 158.823 23.9915C158.82 23.8825 158.788 23.7623 158.729 23.6377C158.669 23.5132 158.584 23.3868 158.476 23.2657C158.369 23.1447 158.242 23.0314 158.103 22.9322C157.964 22.8331 157.815 22.7501 157.666 22.688C157.517 22.6258 157.369 22.5858 157.232 22.5701C157.095 22.5544 156.971 22.5635 156.867 22.5966C156.763 22.6298 156.681 22.6865 156.626 22.7635C156.572 22.8405 156.545 22.9363 156.547 23.0453C156.549 23.1544 156.581 23.2746 156.641 23.3992C156.7 23.5237 156.786 23.6501 156.894 23.7711C157.001 23.8922 157.128 24.0055 157.267 24.1046C157.406 24.2038 157.554 24.2868 157.704 24.3489C157.853 24.4111 158.001 24.4511 158.138 24.4668C158.275 24.4824 158.399 24.4734 158.503 24.4402C158.607 24.407 158.688 24.3503 158.743 24.2733ZM147.556 28.3638C147.649 28.3851 147.747 28.3811 147.845 28.3522C147.942 28.3234 148.037 28.2701 148.123 28.1954C148.21 28.1208 148.286 28.0263 148.349 27.9173C148.411 27.8083 148.458 27.6869 148.487 27.5601C148.516 27.4333 148.526 27.3036 148.516 27.1784C148.507 27.0531 148.479 26.9348 148.433 26.8301C148.388 26.7255 148.325 26.6365 148.25 26.5684C148.175 26.5003 148.088 26.4543 147.994 26.433C147.901 26.4118 147.802 26.4157 147.705 26.4446C147.608 26.4735 147.513 26.5268 147.427 26.6014C147.34 26.6761 147.263 26.7706 147.201 26.8796C147.139 26.9886 147.092 27.11 147.063 27.2367C147.034 27.3635 147.024 27.4932 147.033 27.6185C147.042 27.7438 147.071 27.8621 147.116 27.9668C147.162 28.0714 147.224 28.1604 147.3 28.2285C147.375 28.2966 147.462 28.3426 147.556 28.3638ZM208.757 29.7147C208.875 29.7468 209 29.7473 209.126 29.7162C209.251 29.6852 209.374 29.6232 209.488 29.5338C209.602 29.4444 209.704 29.3294 209.789 29.1953C209.873 29.0612 209.939 28.9107 209.982 28.7522C210.025 28.5938 210.045 28.4307 210.039 28.272C210.034 28.1134 210.004 27.9625 209.951 27.8278C209.898 27.6932 209.823 27.5775 209.731 27.4873C209.639 27.3971 209.53 27.3341 209.413 27.3021C209.295 27.2701 209.169 27.2696 209.044 27.3007C208.919 27.3317 208.796 27.3937 208.682 27.4831C208.568 27.5724 208.466 27.6875 208.381 27.8216C208.296 27.9557 208.23 28.1062 208.187 28.2646C208.144 28.423 208.125 28.5862 208.13 28.7448C208.136 28.9034 208.166 29.0544 208.218 29.189C208.271 29.3237 208.346 29.4394 208.439 29.5296C208.531 29.6198 208.639 29.6827 208.757 29.7147ZM215.195 31.2684L216.245 32.2184C216.277 32.2479 216.322 32.2493 216.377 32.2226C216.431 32.1959 216.493 32.1418 216.558 32.0641C216.623 31.9865 216.69 31.8873 216.753 31.7739C216.817 31.6604 216.875 31.5356 216.925 31.4084C217.885 28.9484 217.415 28.5418 215.515 30.1884C215.418 30.2727 215.332 30.3688 215.262 30.4705C215.192 30.5723 215.141 30.6774 215.111 30.7792C215.081 30.881 215.073 30.9771 215.087 31.0614C215.101 31.1456 215.138 31.2162 215.195 31.2684ZM139.789 39.6983C139.871 39.685 139.949 39.6521 140.018 39.6015C140.087 39.551 140.146 39.4838 140.192 39.4038C140.239 39.3238 140.271 39.2325 140.287 39.1352C140.303 39.0379 140.303 38.9364 140.287 38.8366C140.254 38.6351 140.156 38.4526 140.016 38.3291C139.877 38.2057 139.705 38.1516 139.54 38.1785C139.459 38.1919 139.381 38.2248 139.312 38.2753C139.243 38.3259 139.183 38.3931 139.137 38.4731C139.091 38.5531 139.059 38.6444 139.043 38.7417C139.027 38.839 139.027 38.9404 139.043 39.0402C139.076 39.2418 139.173 39.4243 139.313 39.5477C139.453 39.6711 139.624 39.7253 139.789 39.6983ZM239.417 42.2304C239.496 42.0987 239.48 41.9163 239.37 41.7234C239.261 41.5305 239.068 41.3429 238.834 41.2018C238.719 41.132 238.596 41.0756 238.474 41.036C238.352 40.9964 238.233 40.9744 238.123 40.9711C238.013 40.9678 237.915 40.9834 237.835 41.0169C237.754 41.0504 237.692 41.1012 237.653 41.1664C237.573 41.2982 237.59 41.4805 237.699 41.6734C237.809 41.8663 238.001 42.0539 238.235 42.195C238.351 42.2649 238.473 42.3213 238.596 42.3609C238.718 42.4004 238.837 42.4225 238.947 42.4258C239.056 42.4291 239.154 42.4135 239.235 42.38C239.316 42.3465 239.378 42.2957 239.417 42.2304ZM13.1306 71.4216C13.3317 71.5946 13.6145 71.6557 13.9169 71.5918C14.2193 71.5278 14.5164 71.3439 14.7429 71.0805C14.8551 70.9501 14.9466 70.8041 15.0121 70.6508C15.0777 70.4975 15.116 70.34 15.1249 70.1872C15.1339 70.0345 15.1132 69.8894 15.0642 69.7604C15.0151 69.6314 14.9386 69.5209 14.839 69.4352C14.638 69.2623 14.3551 69.2011 14.0528 69.2651C13.7504 69.3291 13.4533 69.513 13.2267 69.7763C13.1145 69.9068 13.0231 70.0528 12.9575 70.2061C12.892 70.3593 12.8536 70.5169 12.8447 70.6696C12.8358 70.8224 12.8565 70.9675 12.9055 71.0965C12.9546 71.2255 13.0311 71.336 13.1306 71.4216ZM7.69113 75.8849C7.79058 75.8235 7.87233 75.7356 7.93172 75.6263C7.99112 75.517 8.02698 75.3883 8.03728 75.2477C8.04758 75.1071 8.03211 74.9573 7.99174 74.8068C7.95138 74.6563 7.88692 74.5082 7.80203 74.3707C7.63062 74.0932 7.38645 73.8763 7.12325 73.7678C6.86004 73.6592 6.59936 73.6679 6.39853 73.7919C6.29909 73.8534 6.21733 73.9412 6.15794 74.0506C6.09855 74.1599 6.06268 74.2885 6.05238 74.4292C6.04208 74.5698 6.05756 74.7196 6.09792 74.8701C6.13829 75.0205 6.20275 75.1687 6.28763 75.3061C6.45905 75.5837 6.70322 75.8006 6.96642 75.9091C7.22962 76.0176 7.49031 76.0089 7.69113 75.8849ZM14.773 84.6874C14.9583 84.608 15.0687 84.375 15.08 84.0396C15.0913 83.7042 15.0026 83.2939 14.8333 82.899C14.6641 82.5042 14.4282 82.157 14.1775 81.9339C13.9268 81.7108 13.6819 81.6301 13.4966 81.7094C13.3114 81.7889 13.201 82.0219 13.1897 82.3573C13.1783 82.6927 13.2671 83.1029 13.4363 83.4978C13.6056 83.8927 13.8415 84.2399 14.0922 84.463C14.3429 84.6861 14.5878 84.7668 14.773 84.6874ZM17.0266 88.7204C17.1224 88.688 17.2097 88.6336 17.2836 88.5603C17.3574 88.4871 17.4163 88.3964 17.4569 88.2934C17.4976 88.1904 17.5191 88.0772 17.5204 87.9602C17.5216 87.8432 17.5026 87.7247 17.4642 87.6115C17.4259 87.4983 17.3691 87.3926 17.2971 87.3004C17.225 87.2083 17.1391 87.1314 17.0443 87.0743C16.9494 87.0172 16.8475 86.9809 16.7444 86.9675C16.6412 86.9542 16.5388 86.964 16.443 86.9964C16.3472 87.0289 16.2599 87.0833 16.1861 87.1565C16.1123 87.2298 16.0534 87.3205 16.0127 87.4235C15.9721 87.5265 15.9505 87.6397 15.9493 87.7567C15.948 87.8737 15.9671 87.9921 16.0054 88.1053C16.0437 88.2186 16.1006 88.3243 16.1726 88.4164C16.2447 88.5086 16.3306 88.5855 16.4254 88.6426C16.5202 88.6997 16.6221 88.736 16.7253 88.7493C16.8285 88.7627 16.9308 88.7529 17.0266 88.7204ZM20.2411 92.4463C20.3346 92.2921 20.3097 92.0748 20.1721 91.8424C20.0344 91.6099 19.7952 91.3813 19.5071 91.2068C19.219 91.0324 18.9056 90.9263 18.6358 90.912C18.366 90.8977 18.162 90.9763 18.0685 91.1305C17.9751 91.2848 18 91.502 18.1376 91.7345C18.2753 91.9669 18.5144 92.1956 18.8025 92.37C19.0906 92.5445 19.4041 92.6506 19.6738 92.6649C19.9436 92.6792 20.1477 92.6006 20.2411 92.4463ZM59.965 103.386C60.0388 103.157 60.0052 102.903 59.8717 102.681C59.7382 102.459 59.5156 102.286 59.253 102.202C58.9904 102.118 58.7092 102.128 58.4714 102.231C58.2335 102.334 58.0584 102.521 57.9846 102.751C57.9109 102.98 57.9445 103.234 58.078 103.456C58.2115 103.678 58.434 103.851 58.6966 103.935C58.9593 104.019 59.2404 104.009 59.4783 103.906C59.7162 103.803 59.8913 103.616 59.965 103.386ZM83.1924 109.896C83.2514 109.797 83.2825 109.682 83.2839 109.559C83.2853 109.436 83.2569 109.306 83.2004 109.177C83.1439 109.049 83.0604 108.924 82.9547 108.81C82.8489 108.695 82.723 108.594 82.5841 108.512C82.4452 108.429 82.2961 108.367 82.1452 108.329C81.9943 108.291 81.8446 108.277 81.7047 108.289C81.5648 108.301 81.4373 108.338 81.3297 108.399C81.222 108.459 81.1362 108.541 81.0772 108.64C81.0182 108.74 80.9871 108.854 80.9858 108.978C80.9844 109.101 81.0128 109.231 81.0693 109.359C81.1257 109.488 81.2092 109.613 81.315 109.727C81.4207 109.841 81.5466 109.943 81.6855 110.025C81.8244 110.108 81.9736 110.17 82.1245 110.208C82.2754 110.246 82.425 110.26 82.565 110.248C82.7049 110.236 82.8323 110.198 82.94 110.138C83.0477 110.078 83.1334 109.996 83.1924 109.896Z" fill="#2A315F"/>
<path d="M176.516 71.4083C161.216 78.4483 146.306 86.6683 131.266 93.6583C119.106 98.4883 105.516 102.458 92.3359 102.578C91.9425 102.585 91.6959 102.472 91.5959 102.238C91.5462 102.127 91.5597 101.99 91.6336 101.853C91.7075 101.716 91.8367 101.59 91.9959 101.498C105.986 93.5983 116.506 82.0983 126.156 69.0983C134.056 58.4716 141.913 47.8116 149.726 37.1183C158.056 25.7183 168.896 13.4483 183.866 20.0883C194.356 24.7383 202.506 30.8983 213.956 39.5883C223.029 46.4616 232.493 53.0783 242.346 59.4383C243.499 60.185 243.389 60.5183 242.016 60.4383C219.729 59.1983 197.896 62.855 176.516 71.4083ZM180.584 37.8116C179.987 36.7567 178.891 36.0418 177.535 35.8241C176.179 35.6064 174.676 35.9038 173.355 36.6508C172.702 37.0207 172.113 37.4898 171.622 38.0315C171.131 38.5731 170.748 39.1766 170.494 39.8075C170.241 40.4384 170.122 41.0843 170.145 41.7084C170.168 42.3326 170.332 42.9226 170.627 43.445C171.224 44.4999 172.321 45.2148 173.677 45.4325C175.033 45.6502 176.536 45.3528 177.856 44.6058C178.51 44.2359 179.099 43.7667 179.59 43.2251C180.081 42.6835 180.464 42.08 180.717 41.4491C180.971 40.8182 181.089 40.1722 181.067 39.5481C181.044 38.924 180.88 38.3339 180.584 37.8116ZM198.715 43.7393C198.281 42.8682 197.442 42.2434 196.383 42.0024C195.324 41.7613 194.132 41.9237 193.068 42.4539C192.542 42.7164 192.063 43.0613 191.659 43.4689C191.255 43.8764 190.933 44.3387 190.713 44.8294C190.493 45.32 190.378 45.8293 190.375 46.3282C190.372 46.8272 190.482 47.306 190.697 47.7373C191.131 48.6083 191.97 49.2331 193.029 49.4742C194.088 49.7152 195.28 49.5528 196.343 49.0227C196.87 48.7602 197.349 48.4153 197.753 48.0077C198.157 47.6001 198.479 47.1378 198.699 46.6472C198.919 46.1566 199.034 45.6473 199.037 45.1483C199.039 44.6494 198.93 44.1706 198.715 43.7393ZM158.225 55.1615C157.738 54.6408 157.137 54.2353 156.459 53.9682C155.78 53.7011 155.036 53.5776 154.269 53.6047C153.502 53.6318 152.727 53.8091 151.989 54.1263C151.251 54.4435 150.563 54.8945 149.966 55.4535C149.368 56.0125 148.873 56.6686 148.507 57.3843C148.142 58.1 147.914 58.8613 147.836 59.6248C147.758 60.3882 147.832 61.1388 148.053 61.8338C148.275 62.5287 148.64 63.1544 149.127 63.6751C149.614 64.1958 150.214 64.6012 150.893 64.8683C151.572 65.1354 152.316 65.2589 153.083 65.2318C153.85 65.2047 154.624 65.0275 155.363 64.7103C156.101 64.3931 156.789 63.9421 157.386 63.3831C157.983 62.8241 158.479 62.168 158.844 61.4523C159.21 60.7366 159.438 59.9752 159.516 59.2118C159.594 58.4484 159.52 57.6977 159.298 57.0028C159.077 56.3078 158.712 55.6821 158.225 55.1615Z" fill="#76C5B7"/>
<path d="M157.269 24.1045C157.854 24.5214 158.515 24.597 158.745 24.2732C158.976 23.9495 158.69 23.3491 158.105 22.9322C157.521 22.5152 156.86 22.4397 156.629 22.7634C156.398 23.0871 156.685 23.6876 157.269 24.1045Z" fill="#50577F"/>
<path d="M147.064 27.2367C146.943 27.7698 147.163 28.2745 147.557 28.3638C147.95 28.4531 148.367 28.0933 148.488 27.5601C148.609 27.0269 148.388 26.5223 147.995 26.433C147.602 26.3437 147.185 26.7035 147.064 27.2367Z" fill="#50577F"/>
<path d="M208.19 28.2645C208.009 28.9307 208.264 29.5799 208.76 29.7146C209.255 29.8493 209.804 29.4184 209.985 28.7522C210.166 28.086 209.911 27.4367 209.415 27.3021C208.919 27.1674 208.371 27.5983 208.19 28.2645Z" fill="#6B7296"/>
<path d="M215.517 30.1882C217.417 28.5415 217.887 28.9482 216.927 31.4082C216.877 31.5353 216.819 31.6601 216.755 31.7736C216.692 31.887 216.625 31.9862 216.56 32.0638C216.495 32.1415 216.433 32.1956 216.379 32.2223C216.324 32.249 216.279 32.2476 216.247 32.2182L215.197 31.2682C215.14 31.2159 215.103 31.1454 215.089 31.0611C215.075 30.9768 215.083 30.8807 215.113 30.7789C215.143 30.6771 215.194 30.572 215.264 30.4702C215.334 30.3685 215.42 30.2724 215.517 30.1882Z" fill="#466562"/>
<path d="M77.5158 88.4085C80.1358 90.9285 64.5558 95.3085 62.9158 95.2885C50.2691 95.1218 38.9158 91.2052 28.8558 83.5385C28.5714 83.3184 28.26 83.1981 27.9758 83.1985H27.3058L24.9058 81.0985L19.9058 73.4885C19.7258 73.2085 19.6224 72.8985 19.5958 72.5585C19.4958 70.9852 19.2624 69.4452 18.8958 67.9385C17.9958 64.2885 18.0658 57.5885 21.3658 54.9485C21.6324 54.7352 21.8291 54.4818 21.9558 54.1885C23.5258 50.5185 25.9758 50.3385 29.3858 49.2685C40.6991 45.7352 52.2658 43.3885 64.0858 42.2285C65.8058 42.0585 67.5358 41.1585 69.0658 40.4185C69.4376 40.2392 69.7775 40.1569 70.0158 40.1885C71.3424 40.3752 72.4024 39.9318 73.1958 38.8585C73.9358 37.8452 73.7258 37.6418 72.5658 38.2485C70.9858 39.0752 69.3091 39.3852 67.5358 39.1785C67.2824 39.1518 66.9624 39.2152 66.5758 39.3685C62.9958 40.8285 55.4158 40.4885 51.4458 40.2885C44.0558 39.9185 33.5958 39.7185 26.7458 42.7685C23.8458 44.0552 20.8224 44.1485 17.6758 43.0485C30.6958 36.2985 44.6458 37.2985 58.7658 37.4285C63.8324 37.4818 68.7524 36.7185 73.5258 35.1385C75.6658 34.4385 78.0358 34.1385 77.7858 37.2985C77.6591 38.9718 76.8624 40.2185 75.3958 41.0385C72.5424 42.6318 69.5658 43.6918 66.4658 44.2185C58.5058 45.5585 50.5391 46.8818 42.5658 48.1885C36.1158 49.2485 21.6258 52.2085 20.7858 60.1985C19.9058 68.5852 22.7658 75.5652 29.3658 81.1385C42.8058 92.4885 61.2958 96.3085 77.5158 88.4085Z" fill="#181C41"/>
<path d="M177.854 44.6057C180.604 43.0501 181.825 40.0082 180.582 37.8115C179.339 35.6148 176.103 35.095 173.353 36.6506C170.604 38.2062 169.383 41.2481 170.625 43.4448C171.868 45.6415 175.105 46.1613 177.854 44.6057Z" fill="#1F3160"/>
<path d="M139.045 39.0402C139.114 39.4598 139.448 39.7545 139.791 39.6982C140.135 39.642 140.357 39.2562 140.288 38.8365C140.22 38.4169 139.886 38.1222 139.542 38.1785C139.199 38.2347 138.976 38.6205 139.045 39.0402Z" fill="#6B7296"/>
<path d="M238.236 42.1947C238.723 42.4886 239.252 42.5044 239.417 42.2301C239.583 41.9558 239.322 41.4953 238.835 41.2015C238.348 40.9076 237.819 40.8918 237.654 41.1661C237.488 41.4404 237.749 41.9009 238.236 42.1947Z" fill="#50577F"/>
<path d="M196.343 49.0225C198.557 47.9185 199.619 45.553 198.715 43.7391C197.81 41.9252 195.282 41.3497 193.068 42.4537C190.854 43.5577 189.792 45.9231 190.696 47.737C191.601 49.551 194.129 50.1265 196.343 49.0225Z" fill="#182951"/>
<path d="M255.727 44.4482L256.557 45.9482C256.627 46.9982 252.697 45.9682 255.727 44.4482Z" fill="#6B7296"/>
<path d="M157.387 63.3832C159.9 61.0323 160.275 57.3513 158.226 55.1616C156.177 52.972 152.479 53.1027 149.967 55.4537C147.455 57.8046 147.079 61.4855 149.128 63.6752C151.177 65.8649 154.875 65.7342 157.387 63.3832Z" fill="#1F3160"/>
<path d="M268.014 57.9082L269.054 59.1982C268.354 62.5982 265.354 58.4782 268.014 57.9082Z" fill="#8085A7"/>
<path d="M13.2271 69.7764C12.7553 70.3249 12.7123 71.0615 13.131 71.4216C13.5497 71.7818 14.2716 71.6291 14.7434 71.0806C15.2152 70.5321 15.2582 69.7954 14.8395 69.4353C14.4208 69.0752 13.6989 69.2279 13.2271 69.7764Z" fill="#50577F"/>
<path d="M131.266 93.6582C146.306 86.6682 161.216 78.4482 176.516 71.4082C177.822 71.2016 178.922 71.1316 179.816 71.1982C181.056 71.2916 181.122 71.6216 180.016 72.1882C168.726 77.9482 156.946 82.3782 145.666 88.6582C141.772 90.8316 137.736 92.6882 133.556 94.2282C133.365 94.2969 133.18 94.3379 133.014 94.3483C132.847 94.3587 132.705 94.3381 132.596 94.2882L131.266 93.6582Z" fill="#1C2B59"/>
<path d="M6.28814 75.3061C6.64509 75.884 7.27349 76.1432 7.69169 75.8849C8.10989 75.6266 8.15954 74.9487 7.80258 74.3707C7.44562 73.7928 6.81723 73.5336 6.39903 73.7919C5.98083 74.0502 5.93118 74.7281 6.28814 75.3061Z" fill="#A2A5C3"/>
<path d="M24.9063 81.0981L27.3063 83.1982C27.7063 84.4915 27.263 84.8415 25.9763 84.2482C24.3163 83.4882 23.9597 82.4381 24.9063 81.0981Z" fill="#50577F"/>
<path d="M13.4364 83.4975C13.7889 84.3198 14.3873 84.8524 14.7731 84.6871C15.1589 84.5217 15.186 83.721 14.8335 82.8987C14.481 82.0763 13.8826 81.5437 13.4968 81.7091C13.111 81.8744 13.084 82.6751 13.4364 83.4975Z" fill="#A2A5C3"/>
<path d="M16.0049 88.1052C16.1661 88.5813 16.6232 88.8567 17.026 88.7203C17.4288 88.584 17.6248 88.0875 17.4636 87.6115C17.3025 87.1354 16.8453 86.86 16.4425 86.9964C16.0397 87.1327 15.8438 87.6292 16.0049 88.1052Z" fill="#6B7296"/>
<path d="M18.8037 92.37C19.4036 92.7334 20.0477 92.7675 20.2422 92.4463C20.4368 92.125 20.1081 91.5701 19.5082 91.2067C18.9082 90.8434 18.2642 90.8092 18.0696 91.1305C17.8751 91.4517 18.2037 92.0067 18.8037 92.37Z" fill="#6B7296"/>
<path d="M58.6956 103.935C59.2424 104.11 59.8103 103.865 59.964 103.386C60.1176 102.908 59.7988 102.377 59.2519 102.202C58.7051 102.026 58.1372 102.272 57.9835 102.75C57.8299 103.229 58.1487 103.759 58.6956 103.935Z" fill="#466562"/>
<path d="M81.6864 110.025C82.2705 110.372 82.9452 110.314 83.1933 109.896C83.4414 109.478 83.1691 108.859 82.585 108.512C82.0009 108.165 81.3262 108.223 81.0781 108.64C80.8299 109.058 81.1023 109.678 81.6864 110.025Z" fill="#6B7296"/>
</svg>
