<svg width="77" height="83" viewBox="0 0 77 83" fill="none" xmlns="http://www.w3.org/2000/svg">
<path d="M1.71309 27.1396C-0.313581 37.7063 1.97976 47.773 8.59309 57.3397C18.1831 71.2297 33.4731 83.1196 51.4631 80.1396" stroke="#FEB4A4" stroke-width="2"/>
<path d="M51.4648 80.14C54.0515 81.9467 56.5315 81.7734 58.9048 79.62C64.4248 74.6134 68.7748 68.8367 71.9548 62.29" stroke="#8A8C90" stroke-width="2"/>
<path d="M71.9556 62.29C75.5956 52.4767 76.2556 42.63 73.9356 32.75C69.6356 14.4 50.4456 2.88 32.5156 1" stroke="#FEB4A4" stroke-width="2"/>
<path d="M32.5148 1C16.2148 1.4 4.42484 11.03 1.71484 27.14" stroke="#F4B1A7" stroke-width="2"/>
<path d="M32.5148 1L30.4849 2.53C30.3173 2.65719 30.1561 2.76269 30.0151 2.83754C29.8741 2.91239 29.7575 2.9544 29.6749 2.96C20.4549 3.43 15.3049 7.45 9.78485 13.87C6.41485 17.8 4.60484 22.68 1.71484 27.14" stroke="#F46C5C" stroke-width="2"/>
<path d="M71.9548 62.2896C68.5748 59.3163 65.0782 56.8496 61.4648 54.8896" stroke="#8A4645" stroke-width="2"/>
<path d="M61.4633 54.89C66.9733 37.75 59.0533 17.8 39.7433 15.21C19.4833 12.49 11.0833 33.38 17.3233 49.27C22.8166 63.25 33.3633 71.0534 48.9633 72.68" stroke="#FEB4A4" stroke-width="2"/>
<path d="M48.9648 72.6797C49.3182 75.353 50.1515 77.8397 51.4648 80.1397" stroke="#8A4645" stroke-width="2"/>
<path d="M61.4648 54.8896L48.9648 72.6796" stroke="#8A8C90" stroke-width="2"/>
<path d="M32.5148 1L30.4849 2.53C30.3173 2.65719 30.1561 2.76269 30.0151 2.83754C29.8741 2.91239 29.7575 2.9544 29.6749 2.96C20.4549 3.43 15.3049 7.45 9.78485 13.87C6.41485 17.8 4.60484 22.68 1.71484 27.14C4.42484 11.03 16.2148 1.4 32.5148 1Z" fill="#E9695F"/>
<path d="M32.5131 1C50.4431 2.88 69.6331 14.4 73.9331 32.75C76.2531 42.63 75.5931 52.4767 71.9531 62.29C68.5731 59.3167 65.0764 56.85 61.4631 54.89C66.9731 37.75 59.0531 17.8 39.7431 15.21C19.4831 12.49 11.0831 33.38 17.3231 49.27C22.8164 63.25 33.3631 71.0533 48.9631 72.68C49.3164 75.3533 50.1498 77.84 51.4631 80.14C33.4731 83.12 18.1831 71.23 8.59309 57.34C1.97976 47.7733 -0.313581 37.7067 1.71309 27.14C4.60309 22.68 6.41309 17.8 9.78309 13.87C15.3031 7.45 20.4531 3.43 29.6731 2.96C29.7557 2.9544 29.8724 2.91239 30.0134 2.83754C30.1544 2.76269 30.3155 2.65719 30.4831 2.53L32.5131 1Z" fill="#FE6E59"/>
<path d="M61.4633 54.89L48.9633 72.68C33.3633 71.0534 22.8166 63.25 17.3233 49.27C11.0833 33.38 19.4833 12.49 39.7433 15.21C59.0533 17.8 66.9733 37.75 61.4633 54.89Z" fill="#FEF9EF"/>
<path d="M61.4648 54.8896C65.0782 56.8496 68.5748 59.3163 71.9548 62.2896C68.7748 68.8363 64.4248 74.613 58.9048 79.6197C56.5315 81.773 54.0515 81.9463 51.4648 80.1396C50.1515 77.8396 49.3182 75.353 48.9648 72.6796L61.4648 54.8896Z" fill="#151E30"/>
</svg>
