<svg width="55" height="30" viewBox="0 0 55 30" fill="none" xmlns="http://www.w3.org/2000/svg">
<path d="M12.3919 11.2259C11.3719 8.78594 9.69186 3.78595 7.88187 2.01595C2.70187 -3.01405 7.98186 12.2559 8.05186 12.5059C8.17199 12.8994 8.15479 13.3243 8.00294 13.7148C7.8511 14.1052 7.57307 14.4395 7.21187 14.6659L2.58186 17.5459C1.4552 18.2526 0.931862 19.306 1.01186 20.706C1.32186 26.206 7.76186 21.636 10.4519 19.706C10.5019 19.6695 10.5594 19.6447 10.6204 19.633C10.6814 19.6213 10.7444 19.6231 10.8052 19.6383C10.8659 19.6535 10.923 19.6817 10.9725 19.721C11.022 19.7603 11.0627 19.8097 11.0919 19.8659C12.5819 22.6759 15.7219 29.5259 18.7719 28.6159C18.9181 28.5723 19.0536 28.4928 19.168 28.3836C19.2824 28.2744 19.3727 28.1384 19.4319 27.986C20.8119 24.336 17.7319 20.1159 16.1219 16.9659C16.0572 16.8393 16.0388 16.6941 16.0698 16.5553C16.1008 16.4165 16.1794 16.293 16.2919 16.206C18.6319 14.356 23.1219 10.0159 17.2119 8.49595C17.0423 8.45273 16.8663 8.45018 16.699 8.48851C16.5317 8.52685 16.3783 8.60492 16.2519 8.71595L13.0719 11.5359C13.0271 11.5776 12.9712 11.6027 12.9086 11.6091C12.8461 11.6155 12.7789 11.6031 12.7124 11.5728C12.646 11.5425 12.5822 11.4952 12.5265 11.4349C12.4707 11.3746 12.4246 11.303 12.3919 11.2259Z" stroke="#939598" stroke-width="2"/>
<path d="M42.5317 10.4757L39.5817 8.69571C39.4694 8.63155 39.3789 8.50381 39.3218 8.32906C39.2648 8.15431 39.2438 7.94063 39.2617 7.71572C39.6617 2.65572 53.9317 8.48572 51.7217 14.7657C51.6119 15.0627 51.3926 15.3174 51.1017 15.4857C47.2917 17.5757 41.1617 19.2757 37.2117 17.1657C37.1496 17.133 37.0811 17.1127 37.0119 17.1064C36.9427 17.1001 36.8749 17.1081 36.8141 17.1296C36.7533 17.1512 36.7014 17.1857 36.6627 17.2303C36.624 17.2749 36.5996 17.3282 36.5917 17.3857C36.5251 17.979 37.035 18.6324 38.1217 19.3457C38.7253 19.7414 39.5894 19.9557 40.5817 19.9557C44.4284 19.9624 48.075 19.1424 51.5217 17.4957C52.8284 16.8757 53.5817 15.9024 53.7817 14.5757C54.9017 7.33572 47.8117 3.88572 41.5217 3.79572C32.6017 3.68572 40.2017 15.0157 45.3817 11.8057C45.5206 11.721 45.6292 11.5993 45.6893 11.4609C45.7494 11.3225 45.7573 11.1759 45.7117 11.0457C45.125 9.30572 44.375 9.08571 43.4617 10.3857C43.3768 10.5082 43.2337 10.5856 43.0612 10.6023C42.8887 10.619 42.6995 10.5738 42.5317 10.4757Z" stroke="#A8B3BA" stroke-width="2"/>
<path d="M13.068 11.5359L16.248 8.71595C16.3744 8.60492 16.5278 8.52685 16.6951 8.48851C16.8624 8.45018 17.0384 8.45273 17.208 8.49595C23.118 10.0159 18.628 14.356 16.288 16.206C16.1755 16.293 16.0969 16.4165 16.0659 16.5553C16.0349 16.6941 16.0533 16.8393 16.118 16.9659C17.728 20.1159 20.808 24.336 19.428 27.986C19.3688 28.1384 19.2785 28.2744 19.1641 28.3836C19.0497 28.4928 18.9142 28.5723 18.768 28.6159C15.718 29.5259 12.578 22.6759 11.088 19.8659C11.0588 19.8097 11.0181 19.7603 10.9686 19.721C10.9191 19.6817 10.862 19.6535 10.8013 19.6383C10.7405 19.6231 10.6775 19.6213 10.6165 19.633C10.5555 19.6447 10.498 19.6695 10.448 19.706C7.75796 21.636 1.31796 26.206 1.00796 20.706C0.927956 19.306 1.45129 18.2526 2.57796 17.5459L7.20796 14.6659C7.56916 14.4395 7.84719 14.1052 7.99904 13.7148C8.15088 13.3243 8.16808 12.8994 8.04796 12.5059C7.97796 12.2559 2.69796 -3.01405 7.87796 2.01595C9.68796 3.78595 11.368 8.78594 12.388 11.2259C12.4207 11.303 12.4668 11.3746 12.5226 11.4349C12.5783 11.4952 12.6421 11.5425 12.7085 11.5728C12.775 11.6031 12.8422 11.6155 12.9047 11.6091C12.9672 11.6027 13.0232 11.5776 13.068 11.5359Z" fill="#262A31"/>
<path d="M43.4578 10.3867C44.3711 9.08669 45.1211 9.30669 45.7078 11.0467C45.7534 11.1769 45.7455 11.3235 45.6854 11.4619C45.6253 11.6003 45.5167 11.722 45.3778 11.8067C40.1978 15.0167 32.5978 3.68669 41.5178 3.79669C47.8078 3.88669 54.8978 7.33669 53.7778 14.5767C53.5778 15.9034 52.8245 16.8767 51.5178 17.4967C48.0711 19.1434 44.4245 19.9634 40.5778 19.9567C39.5855 19.9567 38.7214 19.7424 38.1178 19.3467C37.0311 18.6334 36.5211 17.98 36.5878 17.3867C36.5957 17.3291 36.6201 17.2758 36.6588 17.2313C36.6975 17.1867 36.7494 17.1522 36.8102 17.1306C36.871 17.1091 36.9388 17.1011 37.008 17.1073C37.0772 17.1136 37.1457 17.134 37.2078 17.1667C41.1578 19.2767 47.2878 17.5767 51.0978 15.4867C51.3887 15.3184 51.608 15.0637 51.7178 14.7667C53.9278 8.4867 39.6578 2.65669 39.2578 7.71669C39.2399 7.9416 39.2609 8.15529 39.3179 8.33004C39.375 8.50478 39.4655 8.63252 39.5778 8.69669L42.5278 10.4767C42.6956 10.5747 42.8848 10.62 43.0573 10.6033C43.2298 10.5866 43.3729 10.5092 43.4578 10.3867Z" fill="#506775"/>
</svg>
