<svg width="145" height="201" viewBox="0 0 145 201" fill="none" xmlns="http://www.w3.org/2000/svg">
<path d="M55.8815 45.064C55.3282 45.5773 55.2282 46.154 55.5816 46.794" stroke="#9798A7" stroke-width="2"/>
<path d="M55.583 46.7939L55.043 48.254" stroke="#F9E3AC" stroke-width="2"/>
<path d="M55.0442 48.2544C50.7575 61.7011 47.3275 71.1244 44.7542 76.5244C32.1208 103.031 17.8109 128.601 1.82422 153.234" stroke="#84838E" stroke-width="2"/>
<path d="M1.82114 153.234C1.40781 154.754 1.14109 156.228 1.02109 157.654C0.90776 159.034 1.25112 160.401 2.05112 161.754C12.9511 180.244 32.1111 194.804 53.7911 198.004" stroke="#BEE4D2" stroke-width="2"/>
<path d="M53.793 198.004C76.9863 202.204 98.653 198.454 118.793 186.754" stroke="#B4DECB" stroke-width="2"/>
<path d="M118.793 186.754C127.026 181.861 133.916 175.567 139.463 167.874C142.913 163.084 145.913 159.874 141.583 155.044" stroke="#BEE4D2" stroke-width="2"/>
<path d="M141.584 155.044C141.071 153.784 140.721 153.041 140.534 152.814C132.114 142.727 124.591 132.037 117.964 120.744C110.924 108.754 104.564 93.9339 98.0039 80.5439" stroke="#868692" stroke-width="2"/>
<path d="M98.0029 80.5444L97.043 78.2544" stroke="#FAE4A7" stroke-width="2"/>
<path d="M97.0428 78.2541L86.8828 52.6841" stroke="#84838E" stroke-width="2"/>
<path d="M86.882 52.6839C86.6353 51.0439 86.202 49.8306 85.582 49.0439" stroke="#F9E3AC" stroke-width="2"/>
<path d="M85.583 49.0444L85.293 48.5044" stroke="#9798A7" stroke-width="2"/>
<path d="M85.2928 48.5042C81.9395 36.3575 79.4695 24.0342 77.8828 11.5342C75.5528 -6.85581 64.8029 2.23418 62.5629 13.1042C60.3762 23.7242 58.1495 34.3775 55.8828 45.0642" stroke="#868692" stroke-width="2"/>
<path d="M85.2928 48.5044C84.9262 49.1777 84.4762 49.371 83.9429 49.0843C83.8263 49.0215 83.7171 48.9196 83.6223 48.7852C83.5275 48.6508 83.4493 48.487 83.3928 48.3043C79.3828 35.0643 77.8129 21.3144 75.1029 8.70435C74.1929 4.50435 72.5128 0.344352 67.8828 5.89435C67.2228 6.69435 66.7429 7.58768 66.4429 8.57435C63.1295 19.5543 60.5062 30.4643 58.5729 41.3043C58.2929 42.8777 57.3961 44.131 55.8828 45.0644" stroke="#20234B" stroke-width="2"/>
<path d="M85.582 49.0439C85.422 49.6173 85.0854 49.9639 84.572 50.0839C74.092 52.6039 65.642 52.1239 55.582 46.7939" stroke="#928065" stroke-width="2"/>
<path d="M86.8829 52.6844C75.2429 58.0044 64.6296 56.5277 55.043 48.2544" stroke="#7F6B4B" stroke-width="2"/>
<path d="M97.043 78.2544L95.293 79.0044" stroke="#816C46" stroke-width="2"/>
<path d="M95.2931 79.0042L85.9331 55.7142C85.8825 55.5891 85.7843 55.4889 85.6593 55.4348C85.5343 55.3807 85.3922 55.3769 85.2631 55.4242C76.5097 58.6709 67.1232 57.8142 57.1032 52.8542C56.993 52.7998 56.8736 52.7667 56.7523 52.7569C56.6311 52.7472 56.5106 52.761 56.3982 52.7975C56.2858 52.8341 56.1838 52.8926 56.0986 52.9694C56.0135 53.0462 55.9469 53.1397 55.9031 53.2442L46.6831 75.1442C46.6183 75.2981 46.6008 75.4678 46.6328 75.6316C46.6649 75.7955 46.745 75.9461 46.863 76.0642C49.2364 78.4309 51.5297 79.9342 53.743 80.5742C56.703 81.4409 58.9031 82.4975 60.3431 83.7442" stroke="#181C43" stroke-width="2"/>
<path d="M60.3445 83.7443C55.3111 82.5109 50.7578 80.3776 46.6844 77.3443C46.5566 77.2474 46.4095 77.1843 46.2584 77.1614C46.1073 77.1386 45.9575 77.1568 45.8244 77.2143C44.6578 77.7409 44.4111 78.6843 45.0844 80.0443" stroke="#816C46" stroke-width="2"/>
<path d="M45.0824 80.0439C44.8224 80.4639 44.4524 80.7039 43.9724 80.7639C43.815 80.7855 43.6693 80.8407 43.5511 80.9236C43.433 81.0065 43.347 81.1138 43.3024 81.2339C39.549 91.3806 34.749 100.971 28.9023 110.004" stroke="#181C43" stroke-width="2"/>
<path d="M28.9034 110.004C28.6367 111.524 28.9834 112.658 29.9434 113.404C31.3367 114.484 32.7067 115.604 34.0534 116.764" stroke="#7F6B4B" stroke-width="2"/>
<path d="M34.0539 116.764C31.7539 116.431 29.9405 115.321 28.6138 113.434C28.5359 113.326 28.4213 113.235 28.279 113.169C28.1367 113.103 27.9706 113.064 27.7939 113.054L27.2839 113.034C27.175 113.03 27.0496 113.103 26.928 113.241C26.8064 113.379 26.6957 113.574 26.6138 113.794C25.4405 116.934 24.2939 119.488 23.1739 121.454C18.7406 129.261 12.8672 139.061 5.55389 150.854C5.01389 151.724 4.96391 152.574 4.75391 153.544" stroke="#181C43" stroke-width="2"/>
<path d="M139.084 155.794C117.224 161.904 95.7138 163.674 73.1238 162.144C62.3305 161.417 48.8872 160.301 32.7939 158.794C22.3139 157.814 12.9672 156.064 4.75391 153.544" stroke="#527C88" stroke-width="2"/>
<path d="M96.6133 83.084C99.0066 85.984 100.93 89.2107 102.383 92.764C104.493 97.944 106.593 101.444 108.993 105.854C109.9 107.507 109.647 109.387 108.233 111.494" stroke="#1A1F48" stroke-width="2"/>
<path d="M108.232 111.494C90.8523 122.824 68.0624 124.304 48.1724 119.844C40.0824 118.034 35.3023 114.304 28.9023 110.004" stroke="#8D7C61" stroke-width="2"/>
<path d="M109.541 114.504C88.0008 129.784 56.5008 130.554 34.0508 116.764" stroke="#8D7C61" stroke-width="2"/>
<path d="M118.793 186.754C118.726 186.041 118.403 185.587 117.823 185.394C117.688 185.35 117.535 185.341 117.375 185.367C117.214 185.393 117.05 185.453 116.893 185.544C98.1863 196.431 78.163 200.341 56.823 197.274C55.503 197.087 54.493 197.331 53.793 198.004" stroke="#75C7AF" stroke-width="2"/>
<path d="M95.2937 79.0044C84.2137 85.0111 72.5638 86.5911 60.3438 83.7444" stroke="#8E7D5C" stroke-width="2"/>
<path d="M98.0033 80.5439L96.6133 83.0839" stroke="#836F4B" stroke-width="2"/>
<path d="M96.6119 83.0839C82.1119 91.2039 57.232 93.9539 45.082 80.0439" stroke="#8E7D5C" stroke-width="2"/>
<path d="M141.582 155.044L139.082 155.794" stroke="#476F76" stroke-width="2"/>
<path d="M139.083 155.794L138.843 153.804C138.804 153.465 138.675 153.156 138.473 152.914C130.133 143.074 119.043 129.084 114.523 116.714C113.763 114.641 112.103 113.904 109.543 114.504" stroke="#1A1F48" stroke-width="2"/>
<path d="M109.541 114.504C109.931 113.964 111.96 110.664 110.75 110.274C110.652 110.243 110.523 110.26 110.381 110.324C110.238 110.388 110.088 110.496 109.951 110.634C109.497 111.081 108.924 111.367 108.23 111.494" stroke="#826E50" stroke-width="2"/>
<path d="M39.4623 137.818C39.2219 137.22 38.7226 136.755 38.0742 136.525C37.4257 136.294 36.6812 136.318 36.0045 136.59C35.3278 136.862 34.7743 137.36 34.4658 137.975C34.1572 138.59 34.1189 139.272 34.3593 139.87C34.5997 140.468 35.0991 140.933 35.7476 141.164C36.3961 141.394 37.1405 141.371 37.8172 141.099C38.4939 140.827 39.0474 140.328 39.3559 139.713C39.6644 139.098 39.7027 138.416 39.4623 137.818Z" stroke="#527C88" stroke-width="2"/>
<path d="M112.342 144.224C112.342 143.593 112.091 142.988 111.645 142.541C111.199 142.095 110.593 141.844 109.962 141.844C109.331 141.844 108.725 142.095 108.279 142.541C107.833 142.988 107.582 143.593 107.582 144.224C107.582 144.855 107.833 145.461 108.279 145.907C108.725 146.354 109.331 146.604 109.962 146.604C110.593 146.604 111.199 146.354 111.645 145.907C112.091 145.461 112.342 144.855 112.342 144.224Z" stroke="#507282" stroke-width="2"/>
<path d="M85.2928 48.5042C84.9262 49.1775 84.4762 49.3708 83.9429 49.0842C83.8263 49.0214 83.7171 48.9195 83.6223 48.7851C83.5275 48.6507 83.4493 48.4868 83.3928 48.3042C79.3828 35.0642 77.8129 21.3142 75.1029 8.70419C74.1929 4.50419 72.5128 0.344193 67.8828 5.89419C67.2228 6.69419 66.7429 7.58752 66.4429 8.57419C63.1295 19.5542 60.5062 30.4642 58.5729 41.3042C58.2929 42.8775 57.3961 44.1309 55.8828 45.0642C58.1495 34.3775 60.3762 23.7242 62.5629 13.1042C64.8029 2.23418 75.5528 -6.85581 77.8828 11.5342C79.4695 24.0342 81.9395 36.3575 85.2928 48.5042Z" fill="#0F1136"/>
<path d="M85.2915 48.5039L85.5816 49.0439C85.4216 49.6172 85.0849 49.9639 84.5716 50.0839C74.0916 52.6039 65.6416 52.1239 55.5816 46.7939C55.2282 46.1539 55.3282 45.5772 55.8815 45.0639C57.3948 44.1305 58.2916 42.8772 58.5716 41.3039C60.5049 30.4639 63.1282 19.5539 66.4416 8.57386C66.7416 7.58719 67.2215 6.69386 67.8815 5.89386C72.5115 0.343864 74.1916 4.50386 75.1016 8.70386C77.8116 21.3139 79.3815 35.0639 83.3915 48.3039C83.448 48.4865 83.5262 48.6504 83.621 48.7847C83.7158 48.9191 83.825 49.0211 83.9416 49.0839C84.4749 49.3705 84.9249 49.1772 85.2915 48.5039Z" fill="#303460"/>
<path d="M55.583 46.7939C65.643 52.1239 74.093 52.6039 84.573 50.0839C85.0863 49.9639 85.423 49.6173 85.583 49.0439C86.203 49.8306 86.6363 51.0439 86.8829 52.6839C75.2429 58.0039 64.6296 56.5273 55.043 48.254L55.583 46.7939Z" fill="#F4CB69"/>
<path d="M55.0442 48.2539C64.6309 56.5272 75.2442 58.0039 86.8842 52.6839L97.0442 78.2539L95.2942 79.0039L85.9342 55.7139C85.8836 55.5888 85.7854 55.4886 85.6604 55.4345C85.5354 55.3804 85.3933 55.3766 85.2642 55.4239C76.5108 58.6706 67.1243 57.8139 57.1042 52.8539C56.9941 52.7995 56.8747 52.7664 56.7534 52.7566C56.6322 52.7469 56.5117 52.7607 56.3993 52.7972C56.2869 52.8338 56.1849 52.8923 56.0997 52.9691C56.0146 53.0459 55.948 53.1394 55.9042 53.2439L46.6842 75.1439C46.6194 75.2978 46.6018 75.4675 46.6339 75.6313C46.666 75.7952 46.7461 75.9458 46.8641 76.0639C49.2375 78.4306 51.5308 79.9339 53.7441 80.5739C56.7041 81.4406 58.9042 82.4972 60.3442 83.7439C55.3109 82.5106 50.7575 80.3772 46.6842 77.3439C46.5564 77.247 46.4093 77.1839 46.2582 77.161C46.107 77.1382 45.9573 77.1564 45.8242 77.2139C44.6576 77.7406 44.4109 78.6839 45.0842 80.0439C44.8242 80.4639 44.4542 80.7039 43.9742 80.7639C43.8168 80.7855 43.6711 80.8407 43.553 80.9236C43.4349 81.0064 43.3488 81.1137 43.3042 81.2339C39.5509 91.3806 34.7508 100.971 28.9042 110.004C28.6375 111.524 28.9842 112.657 29.9442 113.404C31.3375 114.484 32.7075 115.604 34.0542 116.764C31.7542 116.431 29.9408 115.321 28.6141 113.434C28.5362 113.325 28.4216 113.234 28.2793 113.168C28.137 113.102 27.9709 113.063 27.7942 113.054L27.2842 113.034C27.1753 113.029 27.05 113.102 26.9283 113.24C26.8067 113.378 26.696 113.573 26.6141 113.794C25.4408 116.934 24.2942 119.487 23.1742 121.454C18.7409 129.261 12.8675 139.061 5.5542 150.854C5.0142 151.724 4.96421 152.574 4.75421 153.544L1.82422 153.234C17.8109 128.601 32.1208 103.031 44.7542 76.5239C47.3275 71.1239 50.7575 61.7006 55.0442 48.2539Z" fill="#0A0B2D"/>
<path d="M95.2931 79.0037C84.2131 85.0104 72.5631 86.5904 60.3431 83.7437C58.9031 82.497 56.703 81.4404 53.743 80.5737C51.5297 79.9337 49.2364 78.4304 46.863 76.0637C46.745 75.9456 46.6649 75.795 46.6328 75.6312C46.6008 75.4673 46.6183 75.2976 46.6831 75.1437L55.9031 53.2437C55.9469 53.1392 56.0135 53.0457 56.0986 52.9689C56.1838 52.8921 56.2858 52.8336 56.3982 52.7971C56.5106 52.7605 56.6311 52.7467 56.7523 52.7564C56.8736 52.7662 56.993 52.7993 57.1032 52.8537C67.1231 57.8137 76.5097 58.6704 85.2631 55.4237C85.3922 55.3764 85.5343 55.3802 85.6593 55.4343C85.7843 55.4884 85.8825 55.5886 85.9331 55.7137L95.2931 79.0037Z" fill="#252C59"/>
<path d="M60.3445 83.7438C72.5645 86.5905 84.2144 85.0105 95.2944 79.0038L97.0444 78.2538L98.0044 80.5438L96.6144 83.0838C82.1144 91.2038 57.2344 93.9538 45.0844 80.0438C44.4111 78.6838 44.6578 77.7405 45.8244 77.2138C45.9575 77.1563 46.1073 77.1381 46.2584 77.1609C46.4095 77.1838 46.5566 77.2469 46.6844 77.3438C50.7578 80.3771 55.3111 82.5105 60.3445 83.7438Z" fill="#F7CD5F"/>
<path d="M45.0824 80.0439C57.2324 93.9539 82.1123 91.2039 96.6123 83.0839C99.0056 85.9839 100.929 89.2106 102.382 92.7639C104.492 97.9439 106.592 101.444 108.992 105.854C109.899 107.507 109.646 109.387 108.232 111.494C90.8523 122.824 68.0624 124.304 48.1724 119.844C40.0824 118.034 35.3023 114.304 28.9023 110.004C34.749 100.971 39.549 91.3806 43.3024 81.2339C43.347 81.1138 43.433 81.0065 43.5511 80.9236C43.6693 80.8407 43.815 80.7855 43.9724 80.7639C44.4524 80.7039 44.8224 80.4639 45.0824 80.0439Z" fill="#252C59"/>
<path d="M98.0033 80.5439C104.563 93.9339 110.923 108.754 117.963 120.744C124.59 132.037 132.113 142.727 140.533 152.814C140.72 153.041 141.07 153.784 141.583 155.044L139.083 155.794L138.843 153.804C138.804 153.465 138.676 153.155 138.473 152.914C130.133 143.074 119.043 129.084 114.523 116.714C113.763 114.641 112.103 113.904 109.543 114.504C109.933 113.964 111.963 110.664 110.753 110.274C110.655 110.242 110.526 110.26 110.384 110.324C110.241 110.388 110.091 110.496 109.953 110.634C109.5 111.081 108.927 111.367 108.233 111.494C109.647 109.387 109.9 107.507 108.993 105.854C106.593 101.444 104.493 97.9439 102.383 92.7639C100.93 89.2106 99.0066 85.9839 96.6133 83.0839L98.0033 80.5439Z" fill="#0F1136"/>
<path d="M28.9034 110.004C35.3034 114.304 40.0834 118.034 48.1734 119.844C68.0634 124.304 90.8533 122.824 108.233 111.494C108.927 111.367 109.5 111.081 109.953 110.634C110.091 110.496 110.241 110.388 110.384 110.324C110.526 110.26 110.655 110.242 110.753 110.274C111.963 110.664 109.933 113.964 109.543 114.504C88.0034 129.784 56.5034 130.554 34.0534 116.764C32.7067 115.604 31.3367 114.484 29.9434 113.404C28.9834 112.657 28.6367 111.524 28.9034 110.004Z" fill="#F4CB69"/>
<path d="M34.0539 116.764C56.5039 130.554 88.0039 129.784 109.544 114.504C112.104 113.904 113.764 114.641 114.524 116.714C119.044 129.084 130.134 143.074 138.474 152.914C138.676 153.155 138.805 153.465 138.844 153.804L139.084 155.794C117.224 161.904 95.7138 163.674 73.1238 162.144C62.3305 161.417 48.8872 160.301 32.7939 158.794C22.3139 157.814 12.9672 156.064 4.75391 153.544C4.96391 152.574 5.01389 151.724 5.55389 150.854C12.8672 139.061 18.7406 129.261 23.1739 121.454C24.2939 119.487 25.4405 116.934 26.6138 113.794C26.6957 113.573 26.8064 113.378 26.928 113.24C27.0496 113.102 27.175 113.029 27.2839 113.034L27.7939 113.054C27.9706 113.063 28.1367 113.102 28.279 113.168C28.4213 113.234 28.5359 113.325 28.6138 113.434C29.9405 115.321 31.7539 116.431 34.0539 116.764ZM39.4654 137.818C39.225 137.22 38.7257 136.755 38.0772 136.524C37.4287 136.294 36.6842 136.317 36.0075 136.589C35.3308 136.861 34.7773 137.36 34.4688 137.975C34.1603 138.59 34.122 139.272 34.3624 139.87C34.6028 140.468 35.1022 140.933 35.7507 141.163C36.3992 141.394 37.1435 141.371 37.8203 141.098C38.4969 140.826 39.0504 140.328 39.3589 139.713C39.6675 139.098 39.7058 138.416 39.4654 137.818ZM112.344 144.224C112.344 143.593 112.093 142.987 111.647 142.541C111.2 142.095 110.595 141.844 109.964 141.844C109.333 141.844 108.727 142.095 108.281 142.541C107.835 142.987 107.584 143.593 107.584 144.224C107.584 144.855 107.835 145.46 108.281 145.907C108.727 146.353 109.333 146.604 109.964 146.604C110.595 146.604 111.2 146.353 111.647 145.907C112.093 145.46 112.344 144.855 112.344 144.224Z" fill="#252C59"/>
<path d="M37.8213 141.099C39.2305 140.532 39.9671 139.064 39.4665 137.818C38.9659 136.573 37.4178 136.023 36.0086 136.59C34.5994 137.156 33.8628 138.625 34.3634 139.87C34.864 141.115 36.4121 141.665 37.8213 141.099Z" fill="#7ECCB6"/>
<path d="M109.962 146.604C111.276 146.604 112.342 145.538 112.342 144.224C112.342 142.909 111.276 141.844 109.962 141.844C108.648 141.844 107.582 142.909 107.582 144.224C107.582 145.538 108.648 146.604 109.962 146.604Z" fill="#7AB8AB"/>
<path d="M4.75114 153.544C12.9645 156.064 22.3111 157.814 32.7911 158.794C48.8844 160.301 62.3277 161.417 73.1211 162.144C95.7111 163.674 117.221 161.904 139.081 155.794L141.581 155.044C145.911 159.874 142.911 163.084 139.461 167.874C133.914 175.567 127.024 181.861 118.791 186.754C118.724 186.041 118.401 185.587 117.821 185.394C117.686 185.35 117.533 185.341 117.373 185.367C117.212 185.393 117.048 185.453 116.891 185.544C98.1844 196.431 78.1611 200.341 56.8211 197.274C55.5011 197.087 54.4911 197.331 53.7911 198.004C32.1111 194.804 12.9511 180.244 2.05112 161.754C1.25112 160.401 0.90776 159.034 1.02109 157.654C1.14109 156.227 1.40781 154.754 1.82114 153.234L4.75114 153.544Z" fill="#7ECCB6"/>
<path d="M118.793 186.754C98.653 198.454 76.9863 202.204 53.793 198.004C54.493 197.331 55.503 197.087 56.823 197.274C78.163 200.341 98.1863 196.431 116.893 185.544C117.05 185.453 117.214 185.393 117.375 185.367C117.535 185.341 117.688 185.35 117.823 185.394C118.403 185.587 118.726 186.041 118.793 186.754Z" fill="#6BC1A8"/>
</svg>
