<svg width="83" height="94" viewBox="0 0 83 94" fill="none" xmlns="http://www.w3.org/2000/svg">
<path d="M2.73642 65.7195C7.50642 81.6295 19.9064 92.2195 36.7164 92.8595C45.0164 93.1795 56.7664 90.3294 63.6164 85.4594C70.3164 80.7194 75.3464 72.1095 78.6264 64.6695C83.8664 52.7795 81.6064 38.0295 77.7464 27.1695C70.9464 8.08947 57.1531 -0.557197 36.3664 1.22947C23.2664 2.34947 8.70642 12.7995 5.31642 25.9195C2.09642 38.4095 -1.06358 52.9995 2.73642 65.7195Z" stroke="#8A8C90" stroke-width="2"/>
<path d="M33.0659 53.2982C35.5592 53.4945 38.0327 52.6366 39.9423 50.9132C41.8518 49.1899 43.0411 46.7423 43.2483 44.1088C43.4556 41.4754 42.6639 38.8719 41.0475 36.8711C39.431 34.8702 37.1222 33.6359 34.6289 33.4397C32.1356 33.2434 29.6621 34.1013 27.7526 35.8247C25.843 37.548 24.6538 39.9956 24.4465 42.6291C24.2392 45.2625 25.0309 47.866 26.6474 49.8668C28.2638 51.8677 30.5726 53.102 33.0659 53.2982Z" stroke="#787851" stroke-width="2"/>
<path d="M28.5848 66.359C31.5648 75.009 38.2748 75.369 44.2748 69.209C44.5881 68.889 44.5648 68.719 44.2048 68.699L43.9448 68.689C43.7358 68.6796 43.5415 68.6907 43.3733 68.7216C43.2051 68.7525 43.0663 68.8026 42.9648 68.869C37.2581 72.6823 32.7615 71.7224 29.4748 65.989C29.426 65.9038 29.3521 65.833 29.2607 65.7838C29.1694 65.7346 29.0638 65.7088 28.9548 65.709H28.6948C28.6549 65.7084 28.6194 65.7261 28.5912 65.7609C28.563 65.7957 28.5427 65.8467 28.5321 65.9096C28.5214 65.9726 28.5206 66.0459 28.5298 66.1239C28.5389 66.2019 28.5578 66.2824 28.5848 66.359Z" stroke="#6D7049" stroke-width="2"/>
<path d="M34.0799 51.3212C34.9478 51.2238 35.7851 50.9305 36.5439 50.458C37.3028 49.9855 37.9685 49.3431 38.5028 48.5674C39.0372 47.7917 39.4299 46.8979 39.6584 45.9371C39.8869 44.9763 39.9468 43.9673 39.8346 42.9676C39.7225 41.9679 39.4405 40.9972 39.0048 40.1109C38.5691 39.2246 37.9882 38.44 37.2952 37.8019C36.6023 37.1639 35.8109 36.6849 34.9661 36.3923C34.1214 36.0997 33.24 35.9992 32.3721 36.0966C31.5043 36.1939 30.667 36.4872 29.9081 36.9597C29.1493 37.4322 28.4836 38.0746 27.9493 38.8503C27.4149 39.626 27.0222 40.5198 26.7937 41.4807C26.5652 42.4415 26.5053 43.4505 26.6174 44.4501C26.7296 45.4498 27.0115 46.4205 27.4472 47.3068C27.883 48.1931 28.4639 48.9778 29.1568 49.6158C29.8498 50.2538 30.6412 50.7328 31.4859 51.0254C32.3306 51.318 33.2121 51.4185 34.0799 51.3212Z" stroke="#7C7848" stroke-width="2"/>
<path d="M36.7164 92.8595C19.9064 92.2195 7.50642 81.6295 2.73642 65.7195C-1.06358 52.9995 2.09642 38.4095 5.31642 25.9195C8.70642 12.7995 23.2664 2.34947 36.3664 1.22947C57.1531 -0.557197 70.9464 8.08947 77.7464 27.1695C81.6064 38.0295 83.8664 52.7795 78.6264 64.6695C75.3464 72.1095 70.3164 80.7195 63.6164 85.4594C56.7664 90.3295 45.0164 93.1795 36.7164 92.8595ZM33.0649 53.2987C35.5582 53.495 38.0317 52.6371 39.9413 50.9137C41.8508 49.1904 43.0401 46.7428 43.2473 44.1094C43.4546 41.4759 42.6629 38.8724 41.0465 36.8716C39.43 34.8707 37.1212 33.6364 34.6279 33.4402C32.1346 33.2439 29.6611 34.1018 27.7516 35.8252C25.842 37.5485 24.6528 39.9961 24.4455 42.6296C24.2383 45.263 25.0299 47.8665 26.6464 49.8673C28.2628 51.8682 30.5716 53.1025 33.0649 53.2987ZM28.5864 66.3595C31.5664 75.0095 38.2764 75.3694 44.2764 69.2094C44.5897 68.8895 44.5664 68.7194 44.2064 68.6994L43.9464 68.6894C43.7374 68.6801 43.5431 68.6911 43.3749 68.722C43.2067 68.7529 43.0679 68.803 42.9664 68.8694C37.2598 72.6828 32.7631 71.7228 29.4764 65.9895C29.4276 65.9043 29.3537 65.8334 29.2623 65.7842C29.171 65.735 29.0654 65.7092 28.9564 65.7094H28.6964C28.6565 65.7088 28.621 65.7266 28.5928 65.7614C28.5646 65.7962 28.5443 65.8471 28.5337 65.9101C28.523 65.973 28.5222 66.0464 28.5314 66.1244C28.5405 66.2023 28.5594 66.2828 28.5864 66.3595Z" fill="#151E30"/>
<path d="M33.0659 53.2982C30.5726 53.102 28.2638 51.8677 26.6474 49.8668C25.0309 47.866 24.2392 45.2625 24.4465 42.6291C24.6538 39.9956 25.843 37.548 27.7526 35.8247C29.6621 34.1013 32.1356 33.2434 34.6289 33.4397C37.1222 33.6359 39.431 34.8702 41.0475 36.8711C42.6639 38.8719 43.4556 41.4754 43.2483 44.1088C43.0411 46.7423 41.8518 49.1899 39.9423 50.9132C38.0327 52.6366 35.5592 53.4945 33.0659 53.2982ZM34.0813 51.3213C34.9492 51.2239 35.7864 50.9306 36.5453 50.4581C37.3042 49.9856 37.9698 49.3432 38.5042 48.5675C39.0386 47.7918 39.4312 46.898 39.6597 45.9372C39.8883 44.9763 39.9482 43.9673 39.836 42.9677C39.7239 41.968 39.4419 40.9973 39.0062 40.111C38.5705 39.2247 37.9896 38.4401 37.2966 37.802C36.6037 37.164 35.8122 36.685 34.9675 36.3924C34.1228 36.0998 33.2414 35.9993 32.3735 36.0966C31.5057 36.194 30.6684 36.4873 29.9095 36.9598C29.1506 37.4323 28.485 38.0747 27.9506 38.8504C27.4163 39.6261 27.0236 40.5199 26.7951 41.4807C26.5666 42.4416 26.5067 43.4506 26.6188 44.4502C26.7309 45.4499 27.0129 46.4206 27.4486 47.3069C27.8843 48.1932 28.4653 48.9778 29.1582 49.6159C29.8512 50.2539 30.6426 50.7329 31.4873 51.0255C32.332 51.3181 33.2135 51.4186 34.0813 51.3213Z" fill="#DAD172"/>
<path d="M44.2787 69.209C38.2787 75.369 31.5687 75.009 28.5887 66.359C28.5617 66.2824 28.5428 66.2019 28.5337 66.1239C28.5245 66.0459 28.5253 65.9726 28.536 65.9096C28.5466 65.8467 28.5669 65.7957 28.5951 65.7609C28.6233 65.7261 28.6588 65.7084 28.6987 65.709H28.9587C29.0677 65.7088 29.1733 65.7346 29.2646 65.7838C29.356 65.833 29.4299 65.9038 29.4787 65.989C32.7654 71.7224 37.2621 72.6823 42.9687 68.869C43.0702 68.8026 43.209 68.7525 43.3772 68.7216C43.5454 68.6907 43.7397 68.6796 43.9487 68.689L44.2087 68.699C44.5687 68.719 44.5921 68.889 44.2787 69.209Z" fill="#C5C162"/>
<path d="M34.0799 51.3212C33.2121 51.4185 32.3306 51.318 31.4859 51.0254C30.6412 50.7328 29.8498 50.2538 29.1568 49.6158C28.4639 48.9778 27.883 48.1931 27.4472 47.3068C27.0115 46.4205 26.7296 45.4498 26.6174 44.4501C26.5053 43.4505 26.5652 42.4415 26.7937 41.4807C27.0222 40.5198 27.4149 39.626 27.9493 38.8503C28.4836 38.0746 29.1493 37.4322 29.9081 36.9597C30.667 36.4872 31.5043 36.1939 32.3721 36.0966C33.24 35.9992 34.1214 36.0997 34.9661 36.3923C35.8109 36.6849 36.6023 37.1639 37.2952 37.8019C37.9882 38.44 38.5691 39.2246 39.0048 40.1109C39.4405 40.9972 39.7225 41.9679 39.8346 42.9676C39.9468 43.9673 39.8869 44.9763 39.6584 45.9371C39.4299 46.8979 39.0372 47.7917 38.5028 48.5674C37.9685 49.3431 37.3028 49.9855 36.5439 50.458C35.7851 50.9305 34.9478 51.2238 34.0799 51.3212Z" fill="#1D1E1E"/>
</svg>
