<svg width="79" height="142" viewBox="0 0 79 142" fill="none" xmlns="http://www.w3.org/2000/svg">
<path d="M55.704 66.8203C57.4107 51.9736 56.8974 37.2103 54.1641 22.5303" stroke="#888998" stroke-width="2"/>
<path d="M54.1668 22.5302C53.2368 17.4402 50.8768 2.07021 43.9268 1.07021C41.6468 0.74354 39.7435 1.55684 38.2168 3.51018C21.5368 24.9368 15.3568 49.5302 19.6768 77.2902C22.0768 92.7302 25.8668 107.07 31.0468 120.31C32.7968 124.79 34.0268 129.91 35.8868 134.62C36.4468 136.04 36.0434 136.41 34.6768 135.73C33.4834 135.13 32.0635 134.457 30.4168 133.71C29.1068 133.12 28.2068 134.31 29.0968 135.52C31.6568 139.01 43.0568 144.25 41.7268 135.52C41.6802 135.174 41.7101 134.854 41.8168 134.56C45.5868 124.48 47.5168 113.46 50.1968 103.03C52.6901 93.3235 54.5268 81.2535 55.7068 66.8202" stroke="#8B8EA0" stroke-width="2"/>
<path d="M54.1636 22.5303C53.4502 22.6569 52.8535 23.0036 52.3735 23.5703C52.2787 23.6808 52.2076 23.8167 52.1647 23.9698C52.1217 24.1228 52.1077 24.2897 52.1235 24.4603C53.3702 39.5936 53.7969 52.3703 53.4035 62.7903C53.3235 65.0169 54.0902 66.3603 55.7035 66.8203" stroke="#15193A" stroke-width="2"/>
<path d="M71.2585 31.7956C71.3803 31.6374 71.4698 31.4568 71.5218 31.2641C71.5738 31.0714 71.5873 30.8703 71.5616 30.6723C71.5358 30.4744 71.4714 30.2835 71.3719 30.1104C71.2724 29.9374 71.1398 29.7856 70.9816 29.6639L70.7123 29.4563C70.5541 29.3345 70.3735 29.2451 70.1808 29.1931C69.988 29.1411 69.787 29.1276 69.589 29.1533C69.3911 29.179 69.2001 29.2435 69.0271 29.343C68.854 29.4425 68.7023 29.5751 68.5805 29.7332L60.3313 40.4449C60.2095 40.6031 60.1201 40.7837 60.0681 40.9764C60.0161 41.1691 60.0026 41.3702 60.0283 41.5681C60.054 41.7661 60.1184 41.9571 60.2179 42.1301C60.3174 42.3031 60.4501 42.4548 60.6082 42.5766L60.8777 42.7842C61.0358 42.9059 61.2164 42.9954 61.4091 43.0474C61.6018 43.0994 61.8029 43.1129 62.0008 43.0872C62.1988 43.0615 62.3897 42.997 62.5628 42.8975C62.7358 42.798 62.8875 42.6654 63.0093 42.5072L71.2585 31.7956Z" stroke="#87878F" stroke-width="2"/>
<path d="M16.4735 43.9388C16.6955 43.5679 16.761 43.1239 16.6557 42.7046C16.5504 42.2854 16.2828 41.9251 15.9119 41.7031L7.38268 36.5985C7.01174 36.3765 6.56777 36.311 6.14849 36.4163C5.72922 36.5216 5.36897 36.7892 5.14697 37.1601L5.07507 37.2802C4.85307 37.6512 4.78756 38.0951 4.89288 38.5144C4.9982 38.9337 5.26571 39.2939 5.63665 39.5159L14.1659 44.6205C14.5368 44.8425 14.9807 44.9081 15.4 44.8028C15.8193 44.6975 16.1796 44.4299 16.4016 44.059L16.4735 43.9388Z" stroke="#888893" stroke-width="2"/>
<path d="M70.875 42.7607C70.6476 42.6698 70.3961 42.6589 70.1617 42.7298C69.9273 42.8007 69.724 42.9491 69.585 43.1507C67.405 46.3707 64.9183 49.3141 62.125 51.9807C61.165 52.9007 59.075 56.7207 63.205 54.5307C64.175 54.0107 76.265 44.9507 70.875 42.7607Z" stroke="#87878F" stroke-width="2"/>
<path d="M14.9874 54.2942C15.1886 53.9237 15.2344 53.4883 15.1146 53.084C14.9948 52.6796 14.7194 52.3395 14.3488 52.1382L6.6503 47.9583C6.27971 47.7571 5.84436 47.7113 5.44003 47.8311C5.03571 47.9509 4.69551 48.2263 4.49429 48.5969L4.44663 48.6848C4.24541 49.0554 4.19961 49.4907 4.31937 49.8951C4.43913 50.2994 4.71459 50.6396 5.08517 50.8408L12.7837 55.0207C13.1543 55.222 13.5897 55.2677 13.994 55.1479C14.3983 55.0282 14.7385 54.7527 14.9397 54.3821L14.9874 54.2942Z" stroke="#87878F" stroke-width="2"/>
<path d="M77.0659 58.6124C76.9441 58.4129 76.7842 58.2394 76.5953 58.1016C76.4065 57.9639 76.1923 57.8647 75.9651 57.8097C75.7379 57.7547 75.5022 57.745 75.2712 57.7812C75.0403 57.8173 74.8187 57.8987 74.6192 58.0204L58.6065 67.7946C58.2036 68.0406 57.9148 68.4365 57.8038 68.8954C57.6928 69.3542 57.7686 69.8384 58.0146 70.2413L58.0667 70.3267C58.1885 70.5262 58.3484 70.6997 58.5372 70.8375C58.7261 70.9752 58.9402 71.0744 59.1674 71.1294C59.3946 71.1844 59.6304 71.1941 59.8614 71.1579C60.0923 71.1217 60.3139 71.0404 60.5134 70.9186L76.5261 61.1445C76.9291 60.8985 77.2178 60.5025 77.3288 60.0437C77.4398 59.5849 77.3639 59.1007 77.118 58.6978L77.0659 58.6124Z" stroke="#87878F" stroke-width="2"/>
<path d="M15.2624 69.3354C15.4724 68.9215 15.5093 68.4412 15.3651 68C15.221 67.5588 14.9075 67.193 14.4936 66.983L3.57792 61.4452C3.16401 61.2352 2.68369 61.1983 2.24253 61.3425C1.80137 61.4867 1.43555 61.8002 1.22556 62.2141L1.18937 62.2854C0.979375 62.6993 0.942407 63.1796 1.08658 63.6208C1.23076 64.062 1.54427 64.4278 1.95817 64.6378L12.8738 70.1756C13.2877 70.3856 13.768 70.4225 14.2092 70.2783C14.6504 70.1341 15.0162 69.8206 15.2262 69.4067L15.2624 69.3354Z" stroke="#87878F" stroke-width="2"/>
<path d="M76.0025 75.9807C75.8861 75.7871 75.7328 75.6182 75.5512 75.4838C75.3697 75.3495 75.1634 75.2522 74.9442 75.1976C74.7251 75.1429 74.4973 75.132 74.2739 75.1654C74.0505 75.1988 73.8359 75.2758 73.6422 75.3922L57.0647 85.3529C56.871 85.4693 56.7022 85.6226 56.5678 85.8042C56.4335 85.9857 56.3362 86.192 56.2816 86.4112C56.2269 86.6303 56.216 86.8581 56.2494 87.0815C56.2827 87.3049 56.3598 87.5195 56.4762 87.7132L56.5276 87.7989C56.6439 87.9925 56.7973 88.1613 56.9788 88.2956C57.1604 88.43 57.3667 88.5273 57.5858 88.5819C57.805 88.6366 58.0328 88.6475 58.2562 88.6141C58.4796 88.5807 58.6942 88.5037 58.8878 88.3874L75.4654 78.4265C75.659 78.3102 75.8279 78.1569 75.9622 77.9753C76.0966 77.7937 76.1939 77.5875 76.2485 77.3683C76.3031 77.1491 76.3141 76.9214 76.2807 76.698C76.2473 76.4746 76.1703 76.26 76.0539 76.0664L76.0025 75.9807Z" stroke="#888893" stroke-width="2"/>
<path d="M16.8646 82.2134C16.9748 82.0043 17.0428 81.7755 17.0646 81.5402C17.0865 81.3048 17.0617 81.0674 16.9918 80.8416C16.9219 80.6157 16.8082 80.4059 16.6572 80.2241C16.5062 80.0422 16.3209 79.8919 16.1118 79.7816L9.2298 76.1531C9.0207 76.0428 8.7919 75.9748 8.55652 75.953C8.32115 75.9312 8.08379 75.9559 7.85798 76.0258C7.63216 76.0957 7.42229 76.2094 7.24042 76.3604C7.05855 76.5114 6.90822 76.6968 6.79798 76.9059L6.72339 77.0474C6.61314 77.2565 6.54516 77.4853 6.52332 77.7206C6.50148 77.956 6.52623 78.1934 6.59614 78.4192C6.66604 78.645 6.77973 78.8549 6.93073 79.0367C7.08173 79.2186 7.26709 79.369 7.4762 79.4792L14.3582 83.1077C14.5673 83.2179 14.7961 83.2859 15.0314 83.3077C15.2668 83.3296 15.5042 83.3049 15.73 83.235C15.9558 83.1651 16.1657 83.0513 16.3475 82.9003C16.5294 82.7493 16.6797 82.564 16.79 82.3549L16.8646 82.2134Z" stroke="#87878F" stroke-width="2"/>
<path d="M7.37676 90.9997C6.50676 94.4797 15.9468 96.3998 18.2068 96.6798C21.1668 97.0398 21.0868 94.8597 18.9468 93.7997C16.2068 92.4397 13.2401 91.0664 10.0468 89.6798C8.64014 89.0731 7.7501 89.513 7.37676 90.9997Z" stroke="#888893" stroke-width="2"/>
<path d="M74.8582 92.6694C74.6916 92.3022 74.3861 92.0164 74.0087 91.8746C73.6314 91.7327 73.2132 91.7465 72.8461 91.9131L53.9584 100.481C53.5913 100.647 53.3054 100.953 53.1636 101.33C53.0218 101.708 53.0356 102.126 53.2022 102.493L53.3096 102.73C53.4761 103.097 53.7817 103.383 54.159 103.525C54.5363 103.666 54.9546 103.653 55.3217 103.486L74.2092 94.9183C74.5763 94.7517 74.8623 94.4462 75.0041 94.0689C75.1459 93.6915 75.1321 93.2733 74.9656 92.9062L74.8582 92.6694Z" stroke="#888893" stroke-width="2"/>
<path d="M23.3668 112.042C23.4885 111.796 23.4345 111.466 23.208 111.072C22.9816 110.677 22.5871 110.225 22.0471 109.741C21.5071 109.258 20.832 108.753 20.0606 108.254C19.2892 107.756 18.4366 107.274 17.5512 106.837C16.6659 106.399 15.7653 106.014 14.9008 105.704C14.0364 105.394 13.225 105.165 12.513 105.029C11.801 104.894 11.2023 104.855 10.7511 104.915C10.3 104.975 10.0052 105.132 9.88363 105.378C9.76201 105.624 9.81594 105.954 10.0424 106.349C10.2688 106.744 10.6634 107.196 11.2034 107.679C11.7434 108.163 12.4184 108.668 13.1898 109.166C13.9612 109.665 14.8139 110.146 15.6992 110.584C16.5846 111.022 17.4852 111.406 18.3496 111.716C19.2141 112.027 20.0255 112.256 20.7375 112.391C21.4495 112.527 22.0482 112.566 22.4993 112.506C22.9504 112.446 23.2453 112.288 23.3668 112.042Z" stroke="#8B8B97" stroke-width="2"/>
<path d="M69.0378 108.513C68.9592 108.333 68.8459 108.169 68.7042 108.032C68.5625 107.895 68.3952 107.788 68.2119 107.716C68.0286 107.643 67.8329 107.608 67.6359 107.612C67.439 107.615 67.2446 107.657 67.064 107.736L50.5386 114.921C50.1738 115.08 49.8869 115.377 49.7411 115.747C49.5953 116.117 49.6025 116.53 49.7611 116.895L49.793 116.968C49.8715 117.149 49.9849 117.312 50.1266 117.449C50.2683 117.586 50.4356 117.694 50.6188 117.766C50.8021 117.838 50.9979 117.873 51.1948 117.87C51.3918 117.867 51.5861 117.824 51.7668 117.746L68.2922 110.56C68.657 110.402 68.9439 110.105 69.0897 109.734C69.2355 109.364 69.2283 108.951 69.0697 108.587L69.0378 108.513Z" stroke="#888893" stroke-width="2"/>
<path d="M30.6122 126.677C30.8406 126.219 30.8777 125.689 30.7153 125.204C30.5529 124.718 30.2042 124.317 29.7461 124.089L17.6288 118.047C17.1707 117.819 16.6406 117.782 16.1552 117.944C15.6698 118.107 15.2688 118.455 15.0404 118.914L14.9958 119.003C14.7674 119.461 14.7303 119.991 14.8927 120.477C15.0551 120.962 15.4037 121.363 15.8617 121.591L27.9792 127.633C28.4373 127.861 28.9673 127.898 29.4527 127.736C29.9382 127.574 30.3391 127.225 30.5676 126.767L30.6122 126.677Z" stroke="#888998" stroke-width="2"/>
<path d="M57.8801 124.673C57.7947 124.369 57.5921 124.111 57.3169 123.957C57.0416 123.802 56.7163 123.764 56.4125 123.849L48.1141 126.182C47.8103 126.267 47.5528 126.47 47.3983 126.745C47.2439 127.02 47.2051 127.345 47.2905 127.649L47.4529 128.227C47.5383 128.531 47.7409 128.788 48.0161 128.943C48.2914 129.097 48.6167 129.136 48.9205 129.05L57.2189 126.718C57.5227 126.633 57.7802 126.43 57.9347 126.155C58.0891 125.879 58.1279 125.554 58.0425 125.25L57.8801 124.673Z" stroke="#8B8EA0" stroke-width="2"/>
<path d="M54.1668 22.5302C53.4535 22.6569 52.8568 23.0035 52.3768 23.5702C52.282 23.6807 52.2109 23.8167 52.1679 23.9697C52.1249 24.1228 52.1109 24.2896 52.1268 24.4602C53.3735 39.5935 53.8001 52.3702 53.4068 62.7902C53.3268 65.0169 54.0935 66.3602 55.7068 66.8202C54.5268 81.2535 52.6901 93.3235 50.1968 103.03C47.5168 113.46 45.5868 124.48 41.8168 134.56C41.7101 134.854 41.6802 135.174 41.7268 135.52C43.0568 144.25 31.6568 139.01 29.0968 135.52C28.2068 134.31 29.1068 133.12 30.4168 133.71C32.0635 134.457 33.4834 135.13 34.6768 135.73C36.0434 136.41 36.4468 136.04 35.8868 134.62C34.0268 129.91 32.7968 124.79 31.0468 120.31C25.8668 107.07 22.0768 92.7302 19.6768 77.2902C15.3568 49.5302 21.5368 24.9368 38.2168 3.51018C39.7435 1.55684 41.6468 0.74354 43.9268 1.07021C50.8768 2.07021 53.2368 17.4402 54.1668 22.5302Z" fill="#181D42"/>
<path d="M54.1675 22.5303C56.9008 37.2103 57.4141 51.9736 55.7074 66.8203C54.0941 66.3603 53.3274 65.0169 53.4074 62.7903C53.8008 52.3703 53.3741 39.5936 52.1274 24.4603C52.1116 24.2897 52.1256 24.1228 52.1686 23.9698C52.2115 23.8167 52.2826 23.6808 52.3774 23.5703C52.8574 23.0036 53.4541 22.6569 54.1675 22.5303Z" fill="#111431"/>
<path d="M63.0132 42.5072C62.8914 42.6654 62.7397 42.798 62.5667 42.8975C62.3936 42.997 62.2027 43.0615 62.0047 43.0872C61.8068 43.1129 61.6057 43.0994 61.413 43.0474C61.2203 42.9954 61.0397 42.9059 60.8816 42.7842L60.6122 42.5766C60.454 42.4548 60.3213 42.3031 60.2218 42.1301C60.1223 41.9571 60.0579 41.7661 60.0322 41.5681C60.0065 41.3702 60.02 41.1691 60.072 40.9764C60.124 40.7837 60.2135 40.6031 60.3352 40.4449L68.5844 29.7332C68.7062 29.5751 68.8579 29.4425 69.031 29.343C69.204 29.2435 69.395 29.179 69.5929 29.1533C69.7909 29.1276 69.9919 29.1411 70.1847 29.1931C70.3774 29.2451 70.558 29.3345 70.7162 29.4563L70.9855 29.6639C71.1437 29.7856 71.2763 29.9374 71.3758 30.1104C71.4753 30.2835 71.5398 30.4744 71.5655 30.6723C71.5912 30.8703 71.5777 31.0714 71.5257 31.2641C71.4737 31.4568 71.3842 31.6374 71.2624 31.7956L63.0132 42.5072Z" fill="#0F101F"/>
<path d="M16.4055 44.0599C16.1835 44.4309 15.8232 44.6984 15.4039 44.8038C14.9846 44.9091 14.5407 44.8435 14.1698 44.6215L5.64056 39.5169C5.26961 39.2949 5.0021 38.9346 4.89678 38.5154C4.79146 38.0961 4.85698 37.6521 5.07897 37.2812L5.15087 37.1611C5.37287 36.7902 5.73312 36.5226 6.1524 36.4173C6.57167 36.312 7.01564 36.3775 7.38659 36.5995L15.9158 41.7041C16.2867 41.9261 16.5543 42.2863 16.6596 42.7056C16.7649 43.1249 16.6994 43.5689 16.4774 43.9398L16.4055 44.0599Z" fill="#111127"/>
<path d="M70.8789 42.7607C76.2689 44.9507 64.1789 54.0107 63.2089 54.5307C59.0789 56.7207 61.1689 52.9007 62.1289 51.9807C64.9222 49.3141 67.4089 46.3707 69.5889 43.1507C69.7279 42.9491 69.9313 42.8007 70.1656 42.7298C70.4 42.6589 70.6515 42.6698 70.8789 42.7607Z" fill="#0F101F"/>
<path d="M14.9397 54.3831C14.7385 54.7537 14.3983 55.0292 13.994 55.1489C13.5897 55.2687 13.1543 55.2229 12.7837 55.0217L5.08517 50.8418C4.71459 50.6406 4.43913 50.3004 4.31937 49.896C4.19961 49.4917 4.24541 49.0564 4.44663 48.6858L4.49429 48.5979C4.69551 48.2273 5.03571 47.9518 5.44003 47.8321C5.84436 47.7123 6.27971 47.7581 6.6503 47.9593L14.3488 52.1392C14.7194 52.3404 14.9948 52.6806 15.1146 53.0849C15.2344 53.4893 15.1886 53.9246 14.9874 54.2952L14.9397 54.3831Z" fill="#0F101F"/>
<path d="M77.118 58.6987C77.3639 59.1017 77.4398 59.5858 77.3288 60.0447C77.2178 60.5035 76.9291 60.8995 76.5261 61.1454L60.5134 70.9196C60.3139 71.0414 60.0923 71.1227 59.8614 71.1589C59.6304 71.195 59.3946 71.1853 59.1674 71.1304C58.9402 71.0754 58.7261 70.9762 58.5372 70.8384C58.3484 70.7007 58.1885 70.5272 58.0667 70.3276L58.0146 70.2423C57.7686 69.8394 57.6928 69.3552 57.8038 68.8964C57.9148 68.4375 58.2036 68.0416 58.6065 67.7956L74.6192 58.0214C74.8187 57.8996 75.0403 57.8183 75.2712 57.7822C75.5022 57.746 75.7379 57.7557 75.9651 57.8107C76.1923 57.8656 76.4065 57.9649 76.5953 58.1026C76.7842 58.2403 76.9441 58.4139 77.0659 58.6134L77.118 58.6987Z" fill="#0F101F"/>
<path d="M15.2262 69.4067C15.0162 69.8206 14.6504 70.1341 14.2092 70.2783C13.768 70.4225 13.2877 70.3856 12.8738 70.1756L1.95817 64.6378C1.54427 64.4278 1.23076 64.062 1.08658 63.6208C0.942407 63.1796 0.979375 62.6993 1.18937 62.2854L1.22556 62.2141C1.43555 61.8002 1.80137 61.4867 2.24253 61.3425C2.68369 61.1983 3.16401 61.2352 3.57792 61.4452L14.4936 66.983C14.9075 67.193 15.221 67.5588 15.3651 68C15.5093 68.4412 15.4724 68.9215 15.2624 69.3354L15.2262 69.4067Z" fill="#0F101F"/>
<path d="M76.0578 76.0664C76.1742 76.26 76.2512 76.4746 76.2846 76.698C76.318 76.9214 76.3071 77.1491 76.2524 77.3683C76.1978 77.5875 76.1005 77.7937 75.9662 77.9753C75.8318 78.1569 75.6629 78.3102 75.4693 78.4265L58.8917 88.3874C58.6981 88.5037 58.4835 88.5807 58.2601 88.6141C58.0367 88.6475 57.8089 88.6366 57.5897 88.5819C57.3706 88.5273 57.1643 88.43 56.9828 88.2956C56.8012 88.1613 56.6478 87.9925 56.5315 87.7989L56.4801 87.7132C56.3637 87.5195 56.2866 87.3049 56.2533 87.0815C56.2199 86.8581 56.2308 86.6303 56.2855 86.4112C56.3401 86.192 56.4374 85.9857 56.5717 85.8042C56.7061 85.6226 56.875 85.4693 57.0686 85.3529L73.6461 75.3922C73.8398 75.2758 74.0544 75.1988 74.2778 75.1654C74.5012 75.132 74.729 75.1429 74.9481 75.1976C75.1673 75.2522 75.3736 75.3495 75.5551 75.4838C75.7367 75.6182 75.89 75.7871 76.0064 75.9807L76.0578 76.0664Z" fill="#111127"/>
<path d="M16.7939 82.3549C16.6836 82.564 16.5333 82.7493 16.3514 82.9003C16.1696 83.0513 15.9597 83.1651 15.7339 83.235C15.5081 83.3049 15.2707 83.3296 15.0353 83.3077C14.8 83.2859 14.5712 83.2179 14.3621 83.1077L7.48011 79.4792C7.271 79.369 7.08564 79.2186 6.93464 79.0367C6.78363 78.8549 6.66995 78.645 6.60004 78.4192C6.53014 78.1934 6.50539 77.956 6.52723 77.7206C6.54906 77.4853 6.61705 77.2565 6.7273 77.0474L6.80188 76.9059C6.91212 76.6968 7.06246 76.5114 7.24433 76.3604C7.4262 76.2094 7.63607 76.0957 7.86188 76.0258C8.0877 75.9559 8.32505 75.9312 8.56043 75.953C8.79581 75.9748 9.02461 76.0428 9.23371 76.1531L16.1157 79.7816C16.3248 79.8919 16.5101 80.0422 16.6611 80.2241C16.8121 80.4059 16.9258 80.6157 16.9957 80.8416C17.0656 81.0674 17.0904 81.3048 17.0685 81.5402C17.0467 81.7755 16.9787 82.0043 16.8685 82.2134L16.7939 82.3549Z" fill="#0F101F"/>
<path d="M18.2068 96.6798C15.9468 96.3998 6.50676 94.4797 7.37676 90.9997C7.7501 89.513 8.64014 89.0731 10.0468 89.6798C13.2401 91.0664 16.2068 92.4397 18.9468 93.7997C21.0868 94.8597 21.1668 97.0398 18.2068 96.6798Z" fill="#111127"/>
<path d="M74.9695 92.9062C75.136 93.2733 75.1498 93.6915 75.008 94.0689C74.8662 94.4462 74.5803 94.7517 74.2131 94.9183L55.3256 103.486C54.9585 103.653 54.5403 103.666 54.1629 103.525C53.7856 103.383 53.48 103.097 53.3135 102.73L53.2061 102.493C53.0395 102.126 53.0257 101.708 53.1675 101.33C53.3093 100.953 53.5952 100.647 53.9624 100.481L72.85 91.9131C73.2171 91.7465 73.6353 91.7327 74.0126 91.8746C74.39 92.0164 74.6955 92.3022 74.8621 92.6694L74.9695 92.9062Z" fill="#111127"/>
<path d="M23.3668 112.042C23.2453 112.288 22.9504 112.446 22.4993 112.506C22.0482 112.566 21.4495 112.527 20.7375 112.391C20.0255 112.256 19.2141 112.027 18.3496 111.716C17.4852 111.406 16.5846 111.022 15.6992 110.584C14.8139 110.146 13.9612 109.665 13.1898 109.166C12.4184 108.668 11.7434 108.163 11.2034 107.679C10.6634 107.196 10.2688 106.744 10.0424 106.349C9.81594 105.954 9.76201 105.624 9.88363 105.378C10.0052 105.132 10.3 104.975 10.7511 104.915C11.2023 104.855 11.801 104.894 12.513 105.029C13.225 105.165 14.0364 105.394 14.9008 105.704C15.7653 106.014 16.6659 106.399 17.5512 106.837C18.4366 107.274 19.2892 107.756 20.0606 108.254C20.832 108.753 21.5071 109.258 22.0471 109.741C22.5871 110.225 22.9816 110.677 23.208 111.072C23.4345 111.466 23.4885 111.796 23.3668 112.042Z" fill="#18182F"/>
<path d="M69.0697 108.587C69.2283 108.951 69.2355 109.364 69.0897 109.734C68.9439 110.105 68.657 110.402 68.2922 110.56L51.7668 117.746C51.5861 117.824 51.3918 117.867 51.1948 117.87C50.9979 117.873 50.8021 117.838 50.6188 117.766C50.4356 117.694 50.2683 117.586 50.1266 117.449C49.9849 117.312 49.8715 117.149 49.793 116.968L49.7611 116.895C49.6025 116.53 49.5953 116.117 49.7411 115.747C49.8869 115.377 50.1738 115.08 50.5386 114.921L67.064 107.736C67.2446 107.657 67.439 107.615 67.6359 107.612C67.8329 107.608 68.0286 107.643 68.2119 107.716C68.3952 107.788 68.5625 107.895 68.7042 108.032C68.8459 108.169 68.9592 108.333 69.0378 108.513L69.0697 108.587Z" fill="#111127"/>
<path d="M30.5715 126.767C30.3431 127.225 29.9421 127.574 29.4567 127.736C28.9712 127.898 28.4412 127.861 27.9831 127.633L15.8656 121.591C15.4076 121.363 15.059 120.962 14.8966 120.477C14.7342 119.991 14.7713 119.461 14.9997 119.003L15.0443 118.914C15.2727 118.455 15.6737 118.107 16.1591 117.944C16.6445 117.782 17.1746 117.819 17.6327 118.047L29.75 124.089C30.2081 124.317 30.5568 124.718 30.7192 125.204C30.8816 125.689 30.8445 126.219 30.6161 126.677L30.5715 126.767Z" fill="#111431"/>
<path d="M58.0425 125.25C58.1279 125.554 58.0891 125.879 57.9347 126.155C57.7802 126.43 57.5227 126.633 57.2189 126.718L48.9205 129.05C48.6167 129.136 48.2914 129.097 48.0161 128.943C47.7409 128.788 47.5383 128.531 47.4529 128.227L47.2905 127.649C47.2051 127.345 47.2439 127.02 47.3983 126.745C47.5528 126.47 47.8103 126.267 48.1141 126.182L56.4125 123.849C56.7163 123.764 57.0416 123.802 57.3169 123.957C57.5921 124.111 57.7947 124.369 57.8801 124.673L58.0425 125.25Z" fill="#181D42"/>
</svg>
