<svg width="132" height="138" viewBox="0 0 132 138" fill="none" xmlns="http://www.w3.org/2000/svg">
<path d="M1.26562 85.6543C2.35563 100.914 7.9256 115.434 20.3656 124.934C23.5389 127.354 26.4723 128.861 29.1656 129.454C29.5056 129.528 29.5556 129.438 29.3156 129.184C19.3356 118.564 12.2089 106.281 7.93561 92.3343C7.40561 90.6143 7.81559 88.4543 10.2256 89.9143C10.4891 90.0754 10.6863 90.3514 10.7756 90.6843C14.4256 104.344 22.8956 117.554 31.9156 128.164C32.2489 128.564 32.6756 129.584 33.1956 131.224C33.2429 131.375 33.322 131.513 33.4274 131.628C33.5328 131.744 33.6619 131.835 33.8056 131.894C63.4656 144.224 95.1856 133.504 113.636 107.804C114.789 106.198 116.972 102.961 120.186 98.0943" stroke="#FBB1A5" stroke-width="2"/>
<path d="M120.188 98.0936L121.257 95.1836" stroke="#FFFDED" stroke-width="2"/>
<path d="M121.258 95.1838C124.824 88.4704 127.204 81.4538 128.398 74.1338" stroke="#FBB1A5" stroke-width="2"/>
<path d="M128.397 74.1337C133.751 49.8004 126.681 30.4537 107.188 16.0938" stroke="#FDE2A1" stroke-width="2"/>
<path d="M107.188 16.0936C106.688 15.0869 105.938 14.7802 104.938 15.1736" stroke="#FEFDE0" stroke-width="2"/>
<path d="M104.936 15.1739C93.9256 6.4339 77.8856 0.423891 63.2656 1.04389C52.9356 1.47389 42.2556 6.35393 33.8556 12.5239C10.5856 29.6139 -0.934398 56.8839 1.2656 85.6539" stroke="#FDE2A1" stroke-width="2"/>
<path d="M104.937 15.174L106.197 20.4041C106.437 21.3908 106.071 21.6441 105.097 21.1641C98.5241 17.9174 91.9207 14.6507 85.2874 11.3641C84.2674 10.8641 83.6274 10.2041 82.8174 9.44407C82.761 9.38946 82.6956 9.34489 82.6256 9.31333C82.5556 9.28177 82.4827 9.26399 82.4116 9.26115C82.3406 9.2583 82.273 9.27047 82.2136 9.29685C82.1542 9.32323 82.1044 9.36323 82.0674 9.4141C81.7007 9.90077 81.9174 10.714 82.7174 11.854C83.2307 12.5874 83.9274 13.1674 84.8074 13.5941L107.647 24.6541C108.681 25.1541 109.154 24.8307 109.067 23.6841C108.901 21.4041 108.211 19.2841 106.997 17.3241C106.897 17.1598 106.831 16.9877 106.809 16.833C106.787 16.6782 106.811 16.549 106.877 16.4641L107.187 16.0941" stroke="#FCE082" stroke-width="2"/>
<path d="M128.397 74.1337L123.438 73.5938" stroke="#F89447" stroke-width="2"/>
<path d="M123.435 73.5941C121.705 68.6041 118.795 63.6141 118.015 58.4241C117.982 58.2058 117.905 58.0049 117.799 57.8619C117.693 57.7189 117.566 57.6446 117.445 57.6541L114.875 57.7741C114.806 57.778 114.744 57.8063 114.694 57.8566C114.643 57.907 114.607 57.9777 114.587 58.0627C114.567 58.1477 114.565 58.2442 114.58 58.3439C114.596 58.4435 114.628 58.5432 114.675 58.6341C117.135 63.3474 119.055 68.2508 120.435 73.3441" stroke="#FCE08F" stroke-width="2"/>
<path d="M120.438 73.3438L111.938 73.6737" stroke="#F89447" stroke-width="2"/>
<path d="M111.936 73.6741C108.996 68.1675 105.666 61.4042 101.946 53.3842C99.419 47.9442 95.4523 43.8142 90.0456 40.9942C88.3556 40.1042 85.5457 35.8742 85.2157 41.3642C85.2081 41.4933 85.2538 41.6207 85.3433 41.7196C85.4329 41.8184 85.5591 41.881 85.6956 41.8942C95.8656 42.8142 105.446 64.6342 108.436 72.5942" stroke="#FCE08F" stroke-width="2"/>
<path d="M108.438 72.5938L100.688 73.4237" stroke="#F89447" stroke-width="2"/>
<path d="M100.686 73.4245C98.6128 63.1912 93.5528 54.8345 85.5061 48.3545C80.3961 44.2345 65.7861 33.1045 58.9761 37.4245C58.1961 37.9178 58.2695 38.1678 59.1962 38.1745C70.3762 38.2745 80.5162 47.0245 88.3262 54.2745C93.7728 59.3279 96.8928 65.6012 97.6861 73.0945" stroke="#FBDB91" stroke-width="2"/>
<path d="M97.6875 73.0945C85.1008 72.7012 72.6008 73.5612 60.1875 75.6745" stroke="#FA9345" stroke-width="2"/>
<path d="M60.1875 75.6744C59.2008 75.3544 58.2842 75.4345 57.4375 75.9145" stroke="#FBD68D" stroke-width="2"/>
<path d="M57.4381 75.9135C52.9914 75.5269 48.3715 75.7102 43.5781 76.4635" stroke="#FA9345" stroke-width="2"/>
<path d="M43.5745 76.4642C43.4145 71.3842 46.8245 68.7042 50.7745 66.4842C52.0745 65.7575 52.0445 65.3775 50.6845 65.3442C45.5545 65.2142 41.2145 70.3742 40.3945 75.1342" stroke="#FBD68D" stroke-width="2"/>
<path d="M40.3966 75.1338C36.4299 75.3205 33.7066 77.2371 32.2266 80.8838" stroke="#FA9345" stroke-width="2"/>
<path d="M32.2245 80.884L30.6445 74.354C30.5803 74.0897 30.6338 73.7544 30.7945 73.4141C36.2345 61.7041 46.5045 51.704 59.9245 51.684C67.3545 51.664 75.1645 60.144 78.5845 66.114C78.6669 66.2547 78.7778 66.3725 78.9072 66.4564C79.0365 66.5402 79.18 66.5876 79.3245 66.5941C80.8779 66.6474 82.1111 65.9473 83.0245 64.494C83.0978 64.3786 83.1242 64.2389 83.0983 64.1021C83.0724 63.9653 82.9961 63.8412 82.8845 63.754C81.1045 62.324 78.9646 61.354 77.3646 59.934C73.3912 56.374 69.4445 52.8307 65.5245 49.304C65.2852 49.0901 64.9821 48.9633 64.6645 48.944C43.5745 47.744 32.1245 62.834 22.8945 79.114" stroke="#FBDB91" stroke-width="2"/>
<path d="M22.8975 79.114C18.8909 78.734 15.4042 79.9207 12.4375 82.674" stroke="#F7974A" stroke-width="2"/>
<path d="M12.4369 82.6736C10.7436 81.4203 9.96025 80.1503 10.0869 78.8636C11.0936 68.2236 14.7369 57.307 21.0169 46.1136C21.3569 45.5136 21.1569 44.5737 20.2769 45.5137C17.1969 48.8137 14.6869 54.5036 12.8069 59.1136C9.89355 66.2803 8.39021 73.7637 8.29688 81.5637" stroke="#FAE09D" stroke-width="2"/>
<path d="M8.29559 81.5645C6.03559 82.0178 3.69229 83.3811 1.26562 85.6545" stroke="#F89447" stroke-width="2"/>
<path d="M43.5781 76.4641C44.7081 91.0941 54.7281 119.644 74.6881 114.914C90.2981 111.214 93.7181 97.194 88.0681 83.794C86.1948 79.354 82.8181 77.8707 77.9381 79.3441C68.8381 82.1041 75.9581 89.194 75.7881 94.354C75.6881 97.394 74.2681 99.234 71.5281 99.874C59.3081 102.734 56.7781 83.5941 57.4381 75.9141" stroke="#FBA48E" stroke-width="2"/>
<path d="M60.1845 75.6738C59.9912 82.3204 61.0445 88.1571 63.3445 93.1838C64.4445 95.5638 68.8046 98.7638 71.4846 96.5138C75.3746 93.2638 63.4445 79.6338 78.7145 76.9138C84.5479 75.8738 88.4612 77.9438 90.4545 83.1238C94.4545 93.5138 95.8645 104.764 85.9045 112.344C64.0445 128.994 46.0245 105.704 42.4145 86.3838C41.7145 82.6371 41.0412 78.8871 40.3945 75.1338" stroke="#FBA48E" stroke-width="2"/>
<path d="M12.1445 83.3838C13.1445 85.0505 14.5579 86.1638 16.3845 86.7238C16.5147 86.7617 16.6604 86.7696 16.8132 86.7473C16.9659 86.725 17.1228 86.6729 17.2745 86.5938C19.3945 85.4838 19.5545 87.4338 21.1645 87.4838" stroke="#F5664E" stroke-width="2"/>
<path d="M12.4345 82.6738L12.1445 83.3839" stroke="#F7B1A4" stroke-width="2"/>
<path d="M12.1469 83.3845L8.29688 81.5645" stroke="#F8AFA1" stroke-width="2"/>
<path d="M111.938 73.6738C114.378 81.1538 117.484 88.3238 121.257 95.1838" stroke="#FAAF93" stroke-width="2"/>
<path d="M120.188 98.0938C119.787 97.6671 119.308 97.3671 118.748 97.1937C118.585 97.1437 118.439 97.0646 118.319 96.9623C118.199 96.8601 118.11 96.7374 118.057 96.6037L108.438 72.5938" stroke="#FAAF93" stroke-width="2"/>
<path d="M100.688 73.4238C103.988 86.9138 110.288 97.9339 101.908 112.134C97.548 119.534 92.958 121.334 84.238 125.304C69.368 132.074 53.408 135.914 41.178 121.654C31.738 110.641 25.068 99.2505 21.168 87.4838" stroke="#F9AA95" stroke-width="2"/>
<path d="M21.168 87.4833C22.5746 84.8166 23.1513 82.0266 22.898 79.1133" stroke="#F8AC98" stroke-width="2"/>
<path d="M32.2262 80.8837C26.5262 92.5537 32.9262 70.1937 26.5562 76.2037C25.9028 76.8237 25.4962 77.6838 25.3362 78.7838C24.5662 84.3338 23.5162 88.9338 26.1762 94.4138C32.6562 107.754 46.7662 130.614 63.9462 128.424C74.0129 127.137 83.9329 123.26 93.7062 116.794C103.916 110.024 106.006 92.3037 101.066 81.9937C99.5962 78.9137 98.9462 76.0838 97.6862 73.0938" stroke="#FBA893" stroke-width="2"/>
<path d="M123.438 73.5938L120.438 73.3438" stroke="#FAAF93" stroke-width="2"/>
<path d="M55.1272 9.94326C58.7972 10.3033 63.7673 7.79329 67.3373 10.0333C71.7073 12.7733 74.9372 13.7033 79.8172 10.9033C80.1306 10.7299 80.1272 10.5766 79.8072 10.4433C78.0472 9.70326 75.5173 10.4433 73.6173 10.3433C69.3473 10.1033 67.0272 6.61329 62.4172 6.97329C59.8306 7.17996 57.2439 7.45324 54.6572 7.79324C54.3076 7.83864 54.0035 7.9801 53.7972 8.19326C52.8372 9.17993 53.2806 9.76326 55.1272 9.94326Z" stroke="#FCE082" stroke-width="2"/>
<path d="M9.26643 46.254C10.0731 47.254 10.9331 47.344 11.8464 46.524L30.8064 29.514C31.0391 29.3008 31.1979 28.9903 31.2564 28.634C31.7864 25.414 32.6064 23.544 35.6564 21.824C38.7697 20.064 41.8664 18.2607 44.9464 16.414C47.2964 15.014 45.4064 13.904 43.8164 14.664C39.2264 16.844 31.1664 20.964 28.8364 25.644C25.8264 31.684 16.9164 38.444 11.7764 43.014C11.5423 43.2219 11.2312 43.3548 10.8864 43.394C8.47309 43.6673 7.9331 44.6206 9.26643 46.254Z" stroke="#FCE08F" stroke-width="2"/>
<path d="M58.2446 19.8636C62.8579 19.6036 67.4246 19.9103 71.9446 20.7836C72.1147 20.8168 72.2874 20.8063 72.443 20.7532C72.5986 20.7002 72.7308 20.6068 72.8246 20.4836C75.0546 17.5236 57.4246 17.9136 56.2546 17.9936C54.2346 18.1269 52.7313 19.0236 51.7446 20.6836C51.7122 20.74 51.693 20.8031 51.6885 20.8678C51.684 20.9325 51.6945 20.9968 51.7189 21.0554C51.7433 21.1141 51.7811 21.1654 51.829 21.205C51.877 21.2447 51.9337 21.2717 51.9946 21.2836C53.9279 21.7103 55.6379 21.3036 57.1246 20.0636C57.17 20.0199 57.3018 19.9772 57.5022 19.9414C57.7027 19.9056 57.9619 19.8784 58.2446 19.8636Z" stroke="#FCE08F" stroke-width="2"/>
<path d="M40.1773 34.9241C41.1773 36.6975 41.5407 38.6042 41.2674 40.6442C41.2494 40.797 41.1923 40.9431 41.1014 41.069C41.0105 41.1949 40.8887 41.2965 40.7473 41.3641C29.0473 46.9941 16.5874 63.0841 13.1474 75.8641C13.0607 76.1908 13.1607 76.2642 13.4474 76.0842C14.714 75.3042 15.484 74.5075 15.7574 73.6942C19.0874 63.6642 30.8774 48.6842 40.2174 43.6342C40.3704 43.5503 40.5408 43.5037 40.7154 43.498C40.89 43.4923 41.064 43.5276 41.2238 43.6012C41.3836 43.6748 41.5249 43.7847 41.6366 43.9223C41.7482 44.0598 41.8272 44.2214 41.8673 44.3942C42.3273 46.4208 43.1507 46.5141 44.3374 44.6741C44.4381 44.5144 44.5105 44.3522 44.546 44.2068C44.5815 44.0614 44.5784 43.9389 44.5373 43.8541C43.904 42.6008 43.6207 41.2775 43.6873 39.8842C43.6938 39.737 43.6531 39.5675 43.5684 39.3877C43.4838 39.2079 43.3571 39.0224 43.1974 38.8442C41.8374 37.2975 40.9906 35.4842 40.6573 33.4042C40.591 32.9849 40.6728 32.5573 40.8875 32.1993C41.1023 31.8413 41.4359 31.5769 41.8274 31.4542C53.2207 27.8675 64.5174 28.0075 75.7174 31.8742C77.344 32.4342 78.5007 32.2075 79.1873 31.1942C80.1873 29.7408 80.654 28.1608 80.5874 26.4542C80.4874 24.1142 81.364 23.5908 83.2174 24.8842C86.2174 26.9842 89.7807 28.9375 93.9073 30.7442C99.5173 33.2042 103.437 38.6042 106.407 43.7542C106.947 44.6842 110.667 48.7941 108.947 43.1741C107.707 39.1441 102.117 33.3642 99.1673 28.8342C99.0222 28.6131 98.8684 28.4167 98.7331 28.2796C98.5978 28.1425 98.4896 28.0733 98.4273 28.0842C97.6073 28.2575 96.8741 28.6208 96.2274 29.1741C95.8713 29.4794 95.4597 29.6848 95.0589 29.7573C94.6582 29.8299 94.2913 29.7654 94.0173 29.5742L79.9474 19.6342C79.6016 19.3905 79.2227 19.2251 78.8431 19.1519C78.4635 19.0788 78.0944 19.1002 77.7673 19.2142C77.2206 19.4008 76.7707 19.6975 76.4173 20.1041C76.389 20.1367 76.3831 20.1827 76.3997 20.2389C76.4164 20.2952 76.4553 20.3604 76.5139 20.4304C76.5725 20.5004 76.6496 20.5735 76.7398 20.6448C76.8301 20.7162 76.9314 20.7841 77.0373 20.8442C80.4573 22.7975 80.954 25.5341 78.5273 29.0541C78.2606 29.4426 77.8833 29.7437 77.4424 29.9197C77.0014 30.0957 76.5163 30.139 76.0473 30.0441C72.0573 29.2341 68.0173 27.5442 64.1173 27.3342C56.5373 26.9275 49.004 27.4141 41.5174 28.7941C38.6674 29.3241 37.4374 31.1041 36.5774 33.6141C36.5573 33.6735 36.5512 33.7368 36.5594 33.7989C36.5676 33.861 36.59 33.9205 36.6247 33.9726C36.6595 34.0248 36.7057 34.0682 36.7599 34.0997C36.8141 34.1312 36.8748 34.1498 36.9373 34.1542L39.5174 34.2642C39.6033 34.2685 39.7124 34.3339 39.8302 34.4517C39.948 34.5695 40.069 34.7342 40.1773 34.9241Z" stroke="#FCE08F" stroke-width="2"/>
<path d="M113.498 34.3239C112.504 33.3506 111.698 33.4039 111.078 34.4839C111.008 34.6047 110.985 34.7486 111.01 34.8933C111.035 35.038 111.108 35.1754 111.218 35.2839C115.984 39.9773 119.828 45.3172 122.748 51.3039C123.178 52.1939 123.928 56.3439 125.198 52.5439C125.294 52.2462 125.28 51.9168 125.158 51.6139C122.591 45.1672 118.704 39.4039 113.498 34.3239Z" stroke="#FCE08F" stroke-width="2"/>
<path d="M104.936 15.1739L106.196 20.4039C106.436 21.3906 106.069 21.6439 105.096 21.1639C98.5223 17.9173 91.9189 14.6506 85.2856 11.3639C84.2656 10.8639 83.6256 10.2039 82.8156 9.44392C82.7592 9.38931 82.6938 9.34474 82.6238 9.31318C82.5538 9.28162 82.4809 9.26383 82.4098 9.26099C82.3388 9.25815 82.2712 9.27032 82.2118 9.2967C82.1525 9.32308 82.1026 9.36307 82.0656 9.41395C81.6989 9.90061 81.9156 10.7139 82.7156 11.8539C83.229 12.5872 83.9256 13.1673 84.8056 13.5939L107.646 24.6539C108.679 25.1539 109.152 24.8306 109.066 23.6839C108.899 21.4039 108.209 19.2839 106.996 17.3239C106.895 17.1596 106.829 16.9876 106.807 16.8328C106.786 16.6781 106.81 16.5488 106.876 16.4639L107.186 16.0939C126.679 30.4539 133.749 49.8006 128.396 74.1339L123.436 73.5939C121.706 68.6039 118.796 63.6139 118.016 58.4239C117.983 58.2057 117.905 58.0047 117.8 57.8617C117.694 57.7187 117.567 57.6444 117.446 57.6539L114.876 57.7739C114.807 57.7778 114.745 57.8061 114.694 57.8565C114.644 57.9068 114.608 57.9775 114.588 58.0625C114.568 58.1475 114.566 58.244 114.581 58.3437C114.596 58.4433 114.629 58.543 114.676 58.6339C117.136 63.3473 119.056 68.2506 120.436 73.3439L111.936 73.6739C108.996 68.1672 105.666 61.4039 101.946 53.3839C99.4189 47.9439 95.4522 43.8139 90.0456 40.9939C88.3556 40.1039 85.5456 35.8739 85.2156 41.3639C85.208 41.4931 85.2538 41.6205 85.3433 41.7193C85.4328 41.8181 85.5591 41.8807 85.6956 41.8939C95.8656 42.8139 105.446 64.6339 108.436 72.5939L100.686 73.4239C98.6123 63.1906 93.5522 54.8339 85.5055 48.3539C80.3955 44.2339 65.7856 33.1039 58.9756 37.4239C58.1956 37.9172 58.2689 38.1672 59.1956 38.1739C70.3756 38.2739 80.5156 47.0239 88.3256 54.2739C93.7723 59.3273 96.8923 65.6006 97.6856 73.0939C85.0989 72.7006 72.5989 73.5606 60.1856 75.6739C59.1989 75.3539 58.2823 75.4339 57.4356 75.9139C52.9889 75.5273 48.3689 75.7106 43.5756 76.4639C43.4156 71.3839 46.8256 68.7039 50.7756 66.4839C52.0756 65.7572 52.0456 65.3773 50.6856 65.3439C45.5556 65.2139 41.2156 70.3739 40.3956 75.1339C36.4289 75.3206 33.7056 77.2373 32.2256 80.8839L30.6456 74.3539C30.5814 74.0896 30.6349 73.7543 30.7956 73.4139C36.2356 61.7039 46.5056 51.7039 59.9256 51.6839C67.3556 51.6639 75.1656 60.1439 78.5856 66.1139C78.6679 66.2546 78.7789 66.3724 78.9082 66.4562C79.0376 66.5401 79.1811 66.5875 79.3256 66.5939C80.8789 66.6473 82.1122 65.9472 83.0256 64.4939C83.0989 64.3785 83.1253 64.2388 83.0994 64.102C83.0735 63.9652 82.9972 63.8411 82.8855 63.7539C81.1055 62.3239 78.9656 61.3539 77.3656 59.9339C73.3923 56.3739 69.4456 52.8306 65.5256 49.3039C65.2863 49.09 64.9832 48.9632 64.6656 48.9439C43.5756 47.7439 32.1256 62.8339 22.8956 79.1139C18.8889 78.7339 15.4023 79.9206 12.4356 82.6739C10.7423 81.4206 9.95894 80.1506 10.0856 78.8639C11.0923 68.2239 14.7356 57.3072 21.0156 46.1139C21.3556 45.5139 21.1556 44.5739 20.2756 45.5139C17.1956 48.8139 14.6856 54.5039 12.8056 59.1139C9.89225 66.2806 8.3889 73.7639 8.29557 81.5639C6.03557 82.0172 3.69227 83.3806 1.2656 85.6539C-0.934398 56.8839 10.5856 29.6139 33.8556 12.5239C42.2556 6.35393 52.9356 1.47389 63.2656 1.04389C77.8856 0.423891 93.9256 6.4339 104.936 15.1739ZM55.1256 9.94392C58.7956 10.3039 63.7656 7.79394 67.3356 10.0339C71.7056 12.7739 74.9356 13.7039 79.8156 10.9039C80.1289 10.7306 80.1256 10.5772 79.8056 10.4439C78.0456 9.70392 75.5156 10.4439 73.6156 10.3439C69.3456 10.1039 67.0256 6.61395 62.4156 6.97395C59.8289 7.18061 57.2422 7.45389 54.6556 7.79389C54.3059 7.8393 54.0019 7.98076 53.7956 8.19392C52.8356 9.18058 53.2789 9.76392 55.1256 9.94392ZM9.2656 46.2539C10.0723 47.2539 10.9322 47.3439 11.8456 46.5239L30.8056 29.5139C31.0383 29.3008 31.1971 28.9903 31.2556 28.6339C31.7856 25.4139 32.6056 23.5439 35.6556 21.8239C38.7689 20.0639 41.8656 18.2606 44.9456 16.4139C47.2956 15.0139 45.4056 13.9039 43.8156 14.6639C39.2256 16.8439 31.1656 20.9639 28.8356 25.6439C25.8256 31.6839 16.9156 38.4439 11.7756 43.0139C11.5415 43.2219 11.2303 43.3547 10.8856 43.3939C8.47226 43.6673 7.93227 44.6206 9.2656 46.2539ZM58.2456 19.8639C62.8589 19.6039 67.4256 19.9106 71.9456 20.7839C72.1157 20.8171 72.2884 20.8066 72.444 20.7535C72.5996 20.7005 72.7318 20.6071 72.8256 20.4839C75.0556 17.5239 57.4256 17.9139 56.2556 17.9939C54.2356 18.1272 52.7323 19.0239 51.7456 20.6839C51.7132 20.7403 51.694 20.8034 51.6895 20.8681C51.685 20.9328 51.6955 20.9971 51.7199 21.0557C51.7443 21.1144 51.782 21.1657 51.83 21.2053C51.8779 21.245 51.9347 21.272 51.9956 21.2839C53.9289 21.7106 55.6389 21.3039 57.1256 20.0639C57.1709 20.0202 57.3028 19.9775 57.5032 19.9417C57.7036 19.9059 57.9629 19.8787 58.2456 19.8639ZM40.1756 34.9239C41.1756 36.6972 41.5389 38.6039 41.2656 40.6439C41.2477 40.7967 41.1906 40.9429 41.0996 41.0688C41.0087 41.1947 40.8869 41.2962 40.7456 41.3639C29.0456 46.9939 16.5856 63.0839 13.1456 75.8639C13.0589 76.1906 13.1589 76.2639 13.4456 76.0839C14.7123 75.3039 15.4823 74.5072 15.7556 73.6939C19.0856 63.6639 30.8756 48.6839 40.2156 43.6339C40.3686 43.5501 40.539 43.5035 40.7137 43.4977C40.8883 43.492 41.0623 43.5274 41.2221 43.601C41.3819 43.6746 41.5232 43.7844 41.6348 43.922C41.7464 44.0596 41.8254 44.2211 41.8656 44.3939C42.3256 46.4206 43.1489 46.5139 44.3356 44.6739C44.4363 44.5142 44.5088 44.352 44.5442 44.2066C44.5797 44.0611 44.5767 43.9387 44.5356 43.8539C43.9022 42.6006 43.6189 41.2773 43.6856 39.8839C43.692 39.7367 43.6514 39.5672 43.5667 39.3875C43.482 39.2077 43.3553 39.0221 43.1956 38.8439C41.8356 37.2973 40.9889 35.4839 40.6556 33.4039C40.5893 32.9846 40.671 32.557 40.8858 32.199C41.1006 31.8411 41.4341 31.5766 41.8256 31.4539C53.2189 27.8673 64.5156 28.0072 75.7156 31.8739C77.3423 32.4339 78.4989 32.2072 79.1856 31.1939C80.1856 29.7406 80.6523 28.1606 80.5856 26.4539C80.4856 24.1139 81.3623 23.5906 83.2156 24.8839C86.2156 26.9839 89.7789 28.9372 93.9056 30.7439C99.5156 33.2039 103.436 38.6039 106.406 43.7539C106.946 44.6839 110.666 48.7939 108.946 43.1739C107.706 39.1439 102.116 33.3639 99.1656 28.8339C99.0204 28.6128 98.8667 28.4165 98.7314 28.2794C98.5961 28.1422 98.4878 28.073 98.4256 28.0839C97.6056 28.2573 96.8723 28.6206 96.2256 29.1739C95.8695 29.4792 95.4579 29.6845 95.0572 29.7571C94.6564 29.8296 94.2896 29.7651 94.0155 29.5739L79.9456 19.6339C79.5998 19.3903 79.2209 19.2248 78.8413 19.1517C78.4618 19.0785 78.0926 19.0999 77.7655 19.2139C77.2189 19.4006 76.7689 19.6972 76.4156 20.1039C76.3873 20.1365 76.3813 20.1824 76.398 20.2387C76.4146 20.2949 76.4535 20.3602 76.5121 20.4302C76.5708 20.5002 76.6478 20.5733 76.7381 20.6446C76.8283 20.7159 76.9297 20.7839 77.0356 20.8439C80.4556 22.7973 80.9522 25.5339 78.5256 29.0539C78.2589 29.4424 77.8816 29.7434 77.4406 29.9194C76.9996 30.0955 76.5145 30.1387 76.0456 30.0439C72.0556 29.2339 68.0156 27.5439 64.1156 27.3339C56.5356 26.9273 49.0023 27.4139 41.5156 28.7939C38.6656 29.3239 37.4356 31.1039 36.5756 33.6139C36.5556 33.6733 36.5494 33.7365 36.5577 33.7987C36.5659 33.8608 36.5882 33.9202 36.623 33.9724C36.6577 34.0245 36.704 34.068 36.7582 34.0994C36.8124 34.1309 36.8731 34.1496 36.9356 34.1539L39.5156 34.2639C39.6016 34.2683 39.7106 34.3336 39.8284 34.4514C39.9462 34.5692 40.0672 34.7339 40.1756 34.9239ZM113.496 34.3239C112.502 33.3506 111.696 33.4039 111.076 34.4839C111.006 34.6047 110.983 34.7486 111.008 34.8933C111.033 35.038 111.106 35.1753 111.216 35.2839C115.982 39.9773 119.826 45.3172 122.746 51.3039C123.176 52.1939 123.926 56.3439 125.196 52.5439C125.292 52.2462 125.278 51.9168 125.156 51.6139C122.589 45.1672 118.702 39.4039 113.496 34.3239Z" fill="#FAC543"/>
<path d="M55.1272 9.94326C53.2806 9.76326 52.8372 9.17993 53.7972 8.19326C54.0035 7.9801 54.3076 7.83864 54.6572 7.79324C57.2439 7.45324 59.8306 7.17996 62.4172 6.97329C67.0272 6.61329 69.3473 10.1033 73.6173 10.3433C75.5173 10.4433 78.0472 9.70326 79.8072 10.4433C80.1272 10.5766 80.1306 10.7299 79.8172 10.9033C74.9372 13.7033 71.7073 12.7733 67.3373 10.0333C63.7673 7.79329 58.7972 10.3033 55.1272 9.94326Z" fill="#FDFAC1"/>
<path d="M104.937 15.1731C105.937 14.7797 106.687 15.0865 107.187 16.0931L106.877 16.4631C106.811 16.548 106.787 16.6773 106.809 16.832C106.831 16.9867 106.897 17.1588 106.997 17.3231C108.211 19.2831 108.901 21.4031 109.067 23.6831C109.154 24.8297 108.681 25.1531 107.647 24.6531L84.8074 13.5931C83.9274 13.1665 83.2307 12.5864 82.7174 11.8531C81.9174 10.7131 81.7007 9.89979 82.0674 9.41312C82.1044 9.36225 82.1542 9.32226 82.2136 9.29588C82.273 9.26949 82.3406 9.25733 82.4116 9.26017C82.4827 9.26301 82.5556 9.2808 82.6256 9.31236C82.6956 9.34391 82.761 9.38848 82.8174 9.44309C83.6274 10.2031 84.2674 10.8631 85.2874 11.3631C91.9207 14.6497 98.5241 17.9165 105.097 21.1631C106.071 21.6431 106.437 21.3898 106.197 20.4031L104.937 15.1731Z" fill="#FDFAC1"/>
<path d="M9.26643 46.254C7.9331 44.6206 8.47309 43.6673 10.8864 43.394C11.2312 43.3548 11.5423 43.2219 11.7764 43.014C16.9164 38.444 25.8264 31.684 28.8364 25.644C31.1664 20.964 39.2264 16.844 43.8164 14.664C45.4064 13.904 47.2964 15.014 44.9464 16.414C41.8664 18.2607 38.7697 20.064 35.6564 21.824C32.6064 23.544 31.7864 25.414 31.2564 28.634C31.1979 28.9903 31.0391 29.3008 30.8064 29.514L11.8464 46.524C10.9331 47.344 10.0731 47.254 9.26643 46.254Z" fill="#FEFBDB"/>
<path d="M58.2485 19.8636C57.9658 19.8784 57.7066 19.9056 57.5061 19.9414C57.3057 19.9772 57.1739 20.0199 57.1285 20.0636C55.6418 21.3036 53.9318 21.7103 51.9985 21.2836C51.9376 21.2717 51.8809 21.2447 51.8329 21.205C51.785 21.1654 51.7472 21.1141 51.7228 21.0554C51.6984 20.9968 51.6879 20.9325 51.6924 20.8678C51.6969 20.8031 51.7161 20.74 51.7485 20.6836C52.7352 19.0236 54.2385 18.1269 56.2585 17.9936C57.4285 17.9136 75.0585 17.5236 72.8285 20.4836C72.7347 20.6068 72.6025 20.7002 72.4469 20.7532C72.2913 20.8063 72.1186 20.8168 71.9485 20.7836C67.4285 19.9103 62.8618 19.6036 58.2485 19.8636Z" fill="#FEFBDB"/>
<path d="M39.5174 34.2642L36.9373 34.1542C36.8748 34.1498 36.8141 34.1312 36.7599 34.0997C36.7057 34.0682 36.6595 34.0248 36.6247 33.9726C36.59 33.9205 36.5676 33.861 36.5594 33.7989C36.5512 33.7368 36.5573 33.6735 36.5774 33.6141C37.4374 31.1041 38.6674 29.3241 41.5174 28.7941C49.004 27.4141 56.5373 26.9275 64.1173 27.3342C68.0173 27.5442 72.0573 29.2341 76.0473 30.0441C76.5163 30.139 77.0014 30.0957 77.4424 29.9197C77.8833 29.7437 78.2607 29.4426 78.5273 29.0541C80.954 25.5341 80.4573 22.7975 77.0373 20.8442C76.9314 20.7841 76.8301 20.7162 76.7398 20.6448C76.6496 20.5735 76.5725 20.5004 76.5139 20.4304C76.4553 20.3604 76.4164 20.2952 76.3997 20.2389C76.3831 20.1827 76.389 20.1367 76.4173 20.1041C76.7707 19.6975 77.2206 19.4008 77.7673 19.2142C78.0944 19.1002 78.4635 19.0788 78.8431 19.1519C79.2227 19.2251 79.6016 19.3905 79.9474 19.6342L94.0173 29.5742C94.2913 29.7654 94.6582 29.8299 95.0589 29.7573C95.4597 29.6848 95.8713 29.4794 96.2274 29.1741C96.8741 28.6208 97.6073 28.2575 98.4273 28.0842C98.4896 28.0733 98.5978 28.1425 98.7331 28.2796C98.8684 28.4167 99.0222 28.6131 99.1673 28.8342C102.117 33.3642 107.707 39.1441 108.947 43.1741C110.667 48.7941 106.947 44.6842 106.407 43.7542C103.437 38.6042 99.5173 33.2042 93.9073 30.7442C89.7807 28.9375 86.2174 26.9842 83.2174 24.8842C81.364 23.5908 80.4874 24.1142 80.5874 26.4542C80.654 28.1608 80.1873 29.7408 79.1873 31.1942C78.5007 32.2075 77.344 32.4342 75.7174 31.8742C64.5174 28.0075 53.2207 27.8675 41.8274 31.4542C41.4359 31.5769 41.1023 31.8413 40.8875 32.1993C40.6728 32.5573 40.591 32.9849 40.6573 33.4042C40.9907 35.4842 41.8374 37.2975 43.1974 38.8442C43.3571 39.0224 43.4838 39.2079 43.5684 39.3877C43.6531 39.5675 43.6938 39.737 43.6873 39.8842C43.6207 41.2775 43.904 42.6008 44.5373 43.8541C44.5784 43.9389 44.5815 44.0614 44.546 44.2068C44.5105 44.3522 44.4381 44.5144 44.3374 44.6741C43.1507 46.5141 42.3273 46.4208 41.8673 44.3942C41.8272 44.2214 41.7482 44.0598 41.6366 43.9223C41.5249 43.7847 41.3836 43.6748 41.2238 43.6012C41.064 43.5276 40.89 43.4923 40.7154 43.498C40.5408 43.5037 40.3704 43.5503 40.2174 43.6342C30.8774 48.6842 19.0874 63.6642 15.7574 73.6942C15.484 74.5075 14.714 75.3042 13.4474 76.0842C13.1607 76.2642 13.0607 76.1908 13.1474 75.8641C16.5874 63.0841 29.0473 46.9941 40.7473 41.3641C40.8887 41.2965 41.0105 41.1949 41.1014 41.069C41.1923 40.9431 41.2494 40.797 41.2674 40.6442C41.5407 38.6042 41.1773 36.6975 40.1773 34.9241C40.069 34.7342 39.948 34.5695 39.8302 34.4517C39.7124 34.3339 39.6033 34.2685 39.5174 34.2642Z" fill="#FEFBDB"/>
<path d="M113.498 34.3239C118.704 39.4039 122.591 45.1672 125.158 51.6139C125.28 51.9168 125.294 52.2462 125.198 52.5439C123.928 56.3439 123.178 52.1939 122.748 51.3039C119.828 45.3172 115.984 39.9773 111.218 35.2839C111.108 35.1754 111.035 35.038 111.01 34.8933C110.985 34.7486 111.008 34.6047 111.078 34.4839C111.698 33.4039 112.504 33.3506 113.498 34.3239Z" fill="#FEFBDB"/>
<path d="M100.688 73.4235C103.988 86.9135 110.288 97.9335 101.908 112.134C97.548 119.534 92.958 121.334 84.238 125.304C69.368 132.074 53.408 135.914 41.178 121.654C31.738 110.64 25.068 99.2502 21.168 87.4835C22.5746 84.8169 23.1513 82.0269 22.898 79.1135C32.128 62.8335 43.578 47.7435 64.668 48.9435C64.9856 48.9628 65.2887 49.0896 65.528 49.3035C69.448 52.8302 73.3947 56.3735 77.368 59.9335C78.968 61.3535 81.1079 62.3235 82.8879 63.7535C82.9996 63.8407 83.0759 63.9648 83.1018 64.1016C83.1277 64.2384 83.1013 64.3781 83.028 64.4935C82.1146 65.9469 80.8813 66.6469 79.328 66.5936C79.1835 66.5872 79.04 66.5398 78.9106 66.4559C78.7813 66.372 78.6703 66.2543 78.588 66.1135C75.168 60.1435 67.358 51.6635 59.928 51.6835C46.508 51.7035 36.238 61.7036 30.798 73.4136C30.6373 73.7539 30.5838 74.0892 30.648 74.3535L32.228 80.8835C26.528 92.5535 32.928 70.1936 26.558 76.2036C25.9047 76.8236 25.498 77.6836 25.338 78.7836C24.568 84.3336 23.518 88.9336 26.178 94.4136C32.658 107.754 46.768 130.614 63.948 128.424C74.0147 127.137 83.9347 123.26 93.708 116.794C103.918 110.024 106.008 92.3035 101.068 81.9935C99.598 78.9135 98.948 76.0836 97.688 73.0936C96.8947 65.6002 93.7747 59.3269 88.328 54.2736C80.518 47.0236 70.378 38.2735 59.198 38.1735C58.2713 38.1669 58.198 37.9169 58.978 37.4235C65.788 33.1035 80.3979 44.2335 85.5079 48.3535C93.5546 54.8335 98.6147 63.1902 100.688 73.4235Z" fill="#FCF0DF"/>
<path d="M111.936 73.6741C114.376 81.1541 117.482 88.3242 121.256 95.1842L120.186 98.0942C119.786 97.6675 119.306 97.3675 118.746 97.1942C118.583 97.1441 118.437 97.065 118.317 96.9628C118.198 96.8605 118.108 96.7379 118.056 96.6041L108.436 72.5942C105.446 64.6342 95.8656 42.8142 85.6956 41.8942C85.5591 41.881 85.4329 41.8184 85.3433 41.7196C85.2538 41.6207 85.2081 41.4933 85.2157 41.3642C85.5457 35.8742 88.3556 40.1042 90.0456 40.9942C95.4523 43.8142 99.419 47.9442 101.946 53.3842C105.666 61.4042 108.996 68.1675 111.936 73.6741Z" fill="#FEFBDB"/>
<path d="M12.4369 82.6736L12.1469 83.3837L8.29688 81.5637C8.39021 73.7637 9.89355 66.2803 12.8069 59.1136C14.6869 54.5036 17.1969 48.8137 20.2769 45.5137C21.1569 44.5737 21.3569 45.5136 21.0169 46.1136C14.7369 57.307 11.0936 68.2236 10.0869 78.8636C9.96025 80.1503 10.7436 81.4203 12.4369 82.6736Z" fill="#FAFAF7"/>
<path d="M123.439 73.5932L120.439 73.3432C119.059 68.2498 117.139 63.3465 114.679 58.6331C114.632 58.5422 114.599 58.4426 114.584 58.3429C114.569 58.2433 114.571 58.1467 114.591 58.0617C114.611 57.9767 114.647 57.906 114.698 57.8557C114.748 57.8053 114.81 57.777 114.879 57.7731L117.449 57.6532C117.57 57.6437 117.697 57.7179 117.803 57.8609C117.909 58.0039 117.986 58.2049 118.019 58.4231C118.799 63.6131 121.709 68.6032 123.439 73.5932Z" fill="#FEFBDB"/>
<path d="M43.5784 76.4642C44.7084 91.0942 54.7284 119.644 74.6884 114.914C90.2984 111.214 93.7184 97.1942 88.0684 83.7942C86.1951 79.3542 82.8184 77.8709 77.9384 79.3442C68.8384 82.1042 75.9584 89.1942 75.7884 94.3542C75.6884 97.3942 74.2684 99.2342 71.5284 99.8742C59.3084 102.734 56.7784 83.5942 57.4384 75.9142C58.2851 75.4342 59.2017 75.3542 60.1884 75.6742C59.9951 82.3208 61.0484 88.1575 63.3484 93.1842C64.4484 95.5642 68.8085 98.7642 71.4885 96.5142C75.3785 93.2642 63.4484 79.6342 78.7184 76.9142C84.5518 75.8742 88.4651 77.9442 90.4584 83.1242C94.4584 93.5142 95.8684 104.764 85.9084 112.344C64.0484 128.994 46.0284 105.704 42.4184 86.3842C41.7184 82.6375 41.0451 78.8875 40.3984 75.1342C41.2184 70.3742 45.5584 65.2142 50.6884 65.3442C52.0484 65.3775 52.0784 65.7575 50.7784 66.4842C46.8284 68.7042 43.4184 71.3842 43.5784 76.4642Z" fill="#FBE7D6"/>
<path d="M108.436 72.5938L118.056 96.6037C118.108 96.7374 118.198 96.8601 118.317 96.9623C118.437 97.0646 118.583 97.1437 118.746 97.1937C119.306 97.3671 119.786 97.6671 120.186 98.0938C116.972 102.96 114.789 106.197 113.636 107.804C95.1856 133.504 63.4656 144.224 33.8056 131.894C33.6619 131.834 33.5328 131.744 33.4274 131.628C33.322 131.512 33.2429 131.374 33.1956 131.224C32.6756 129.584 32.2489 128.564 31.9156 128.164C22.8956 117.554 14.4256 104.344 10.7756 90.6837C10.6863 90.3508 10.4891 90.0749 10.2256 89.9138C7.81559 88.4538 7.40561 90.6137 7.93561 92.3337C12.2089 106.28 19.3356 118.564 29.3156 129.184C29.5556 129.437 29.5056 129.527 29.1656 129.454C26.4723 128.86 23.5389 127.354 20.3656 124.934C7.9256 115.434 2.35563 100.914 1.26562 85.6537C3.69229 83.3804 6.03559 82.0171 8.29559 81.5637L12.1456 83.3837C13.1456 85.0504 14.559 86.1638 16.3856 86.7238C16.5158 86.7616 16.6615 86.7696 16.8143 86.7473C16.967 86.7249 17.1239 86.6728 17.2756 86.5938C19.3956 85.4838 19.5556 87.4337 21.1656 87.4837C25.0656 99.2504 31.7356 110.64 41.1756 121.654C53.4056 135.914 69.3657 132.074 84.2357 125.304C92.9557 121.334 97.5456 119.534 101.906 112.134C110.286 97.9337 103.986 86.9137 100.686 73.4237L108.436 72.5938Z" fill="#F6634A"/>
<path d="M97.6862 73.0936C98.9462 76.0836 99.5962 78.9135 101.066 81.9935C106.006 92.3035 103.916 110.024 93.7062 116.794C83.9329 123.26 74.0129 127.137 63.9462 128.424C46.7662 130.614 32.6562 107.754 26.1762 94.4136C23.5162 88.9336 24.5662 84.3336 25.3362 78.7836C25.4962 77.6836 25.9028 76.8235 26.5562 76.2035C32.9262 70.1935 26.5262 92.5535 32.2262 80.8835C33.7062 77.2369 36.4295 75.3202 40.3962 75.1335C41.0429 78.8869 41.7162 82.6369 42.4162 86.3835C46.0262 105.704 64.0462 128.994 85.9062 112.344C95.8662 104.764 94.4562 93.5135 90.4562 83.1235C88.4629 77.9435 84.5495 75.8736 78.7162 76.9136C63.4462 79.6336 75.3762 93.2635 71.4862 96.5135C68.8062 98.7635 64.4462 95.5635 63.3462 93.1835C61.0462 88.1569 59.9929 82.3202 60.1862 75.6735C72.5995 73.5602 85.0995 72.7002 97.6862 73.0936Z" fill="#FA6046"/>
<path d="M120.438 73.3438L123.438 73.5938L128.397 74.1337C127.204 81.4537 124.824 88.4704 121.257 95.1837C117.484 88.3237 114.378 81.1537 111.938 73.6737L120.438 73.3438Z" fill="#F6634A"/>
<path d="M57.4381 75.9135C56.7781 83.5935 59.3081 102.733 71.5281 99.8735C74.2681 99.2335 75.6881 97.3935 75.7881 94.3535C75.9581 89.1935 68.8381 82.1035 77.9381 79.3435C82.8181 77.8702 86.1948 79.3535 88.0681 83.7935C93.7181 97.1935 90.2981 111.214 74.6881 114.914C54.7281 119.644 44.7081 91.0935 43.5781 76.4635C48.3715 75.7102 52.9914 75.5269 57.4381 75.9135Z" fill="#FA6046"/>
<path d="M22.8984 79.114C23.1518 82.0274 22.5751 84.8174 21.1684 87.484C19.5584 87.434 19.3984 85.4841 17.2784 86.5941C17.1267 86.6731 16.9699 86.7253 16.8171 86.7476C16.6643 86.7699 16.5186 86.762 16.3884 86.7241C14.5618 86.1641 13.1484 85.0507 12.1484 83.3841L12.4384 82.674C15.4051 79.9207 18.8918 78.734 22.8984 79.114Z" fill="#F46851"/>
</svg>
