<svg width="159" height="146" viewBox="0 0 159 146" fill="none" xmlns="http://www.w3.org/2000/svg">
<path d="M94.7646 5.97455L89.5146 4.34454C89.0946 4.21121 88.8412 4.10788 88.7546 4.03455C87.4612 2.86121 87.3479 1.56125 88.4146 0.134584C88.4554 0.0797409 88.567 0.0384042 88.7328 0.0167859C88.8985 -0.00483236 89.1096 -0.00557414 89.3346 0.0145886C94.3846 0.414589 111.965 2.27458 115.935 6.81458C116.034 6.92603 116.097 7.06537 116.115 7.21381C116.133 7.36225 116.105 7.5126 116.035 7.64453C113.925 11.6345 108.215 9.53455 105.025 8.53455C104.737 8.44345 104.425 8.47023 104.157 8.60895C103.889 8.74767 103.686 8.98701 103.595 9.27454C102.635 12.3945 100.035 16.7746 96.1046 13.5746C95.9946 13.4831 95.9047 13.3606 95.8408 13.2157C95.777 13.0708 95.7407 12.9067 95.7346 12.7346L95.5046 6.64453C95.4981 6.51645 95.4229 6.38257 95.2899 6.26215C95.1569 6.14172 94.973 6.04099 94.7646 5.97455Z" fill="#151E30"/>
<path d="M7.37777 23.1145L0.797787 21.9845C0.607777 21.9493 0.43565 21.8828 0.30624 21.7948C0.17683 21.7067 0.0968292 21.6016 0.0777853 21.4945C-0.168881 20.2145 0.171108 19.1478 1.09777 18.2945C1.18891 18.2094 1.32056 18.1387 1.48419 18.0871C1.64782 18.0354 1.83981 18.0038 2.04779 17.9945L10.2278 17.6444C10.4443 17.6341 10.6521 17.5399 10.8161 17.3777C10.9801 17.2156 11.0902 16.9954 11.1278 16.7545L12.3378 8.80447C12.3623 8.64692 12.4337 8.4969 12.5446 8.3702C12.6554 8.2435 12.8016 8.14477 12.9678 8.08444C17.2778 6.48444 16.5978 14.8844 16.7778 17.2245C16.7899 17.3694 16.8481 17.5064 16.9437 17.6146C17.0393 17.7229 17.1671 17.7966 17.3078 17.8245C18.8878 18.1378 20.4211 18.5578 21.9078 19.0844C24.8778 20.1244 24.2678 22.7545 21.3378 23.1045C19.5645 23.3111 17.7811 23.4845 15.9878 23.6245C15.832 23.6339 15.6796 23.6802 15.5426 23.76C15.4056 23.8398 15.2876 23.9508 15.1978 24.0844C12.9478 27.4344 12.2978 31.1745 7.29779 29.9345C7.10492 29.885 6.94512 29.7313 6.85189 29.5057C6.75867 29.2801 6.73928 29.0001 6.79779 28.7245L7.84777 23.7445C7.86248 23.6761 7.86189 23.6052 7.84604 23.536C7.83018 23.4669 7.7994 23.4009 7.75552 23.3421C7.71164 23.2832 7.65557 23.2328 7.59066 23.1937C7.52576 23.1546 7.45333 23.1276 7.37777 23.1145Z" fill="#151E30"/>
<path d="M58.9745 19.5243C58.1245 22.5743 57.5445 27.7744 52.7445 24.9844C52.591 24.8953 52.462 24.7808 52.3694 24.6515C52.2768 24.5223 52.2236 24.3823 52.2145 24.2444L51.7445 17.4244C51.7359 17.3029 51.6764 17.1794 51.5734 17.0693C51.4703 16.9591 51.3282 16.8671 51.1645 16.8044C49.3145 16.0844 45.7445 15.3844 44.4745 14.0544C43.6145 13.161 43.4045 12.3977 43.8445 11.7644C44.6645 10.6044 45.9045 10.1344 47.5645 10.3544C55.0845 11.361 62.4945 12.9144 69.7945 15.0144C71.5412 15.5144 71.8445 16.4477 70.7045 17.8144C68.3445 20.6344 63.7545 19.1944 59.6045 19.0644C59.4617 19.0591 59.3216 19.1017 59.2071 19.1853C59.0927 19.2689 59.0106 19.3884 58.9745 19.5243Z" fill="#151E30"/>
<path d="M148.337 42.2943C148.187 44.6643 148.027 48.4143 146.057 49.9943C140.707 54.2943 140.447 42.0943 140.237 40.1043C140.207 39.7937 140.074 39.4949 139.855 39.2458C139.637 38.9966 139.341 38.8081 139.007 38.7043L129.947 35.8943C129.793 35.8473 129.653 35.7683 129.535 35.6629C129.418 35.5574 129.326 35.4281 129.267 35.2843C125.877 27.0443 154.117 36.3643 155.987 37.0643C158.547 38.0176 158.92 39.5576 157.107 41.6843C157.004 41.8028 156.877 41.8968 156.737 41.9591C156.597 42.0214 156.446 42.0505 156.297 42.0443L148.797 41.7443C148.74 41.7411 148.683 41.7529 148.629 41.7789C148.575 41.8049 148.525 41.8446 148.483 41.8957C148.44 41.9469 148.405 42.0084 148.38 42.0768C148.355 42.1452 148.34 42.2191 148.337 42.2943Z" fill="#151E30"/>
<path d="M85.2047 40.1147C83.438 39.5147 83.3113 38.628 84.8247 37.4546C88.6747 34.4646 101.915 37.0147 105.965 37.8047C109.245 38.4447 110.258 40.278 109.005 43.3047C108.949 43.439 108.852 43.5547 108.726 43.638C108.6 43.7213 108.451 43.7687 108.295 43.7746L102.105 44.0147C101.998 44.0194 101.888 44.098 101.793 44.2368C101.698 44.3757 101.624 44.566 101.585 44.7746C100.925 48.3746 99.8747 53.1647 95.3447 50.9847C95.1361 50.8864 94.9543 50.7669 94.8251 50.6431C94.6959 50.5193 94.6257 50.3974 94.6247 50.2947L94.6447 42.7447C94.6439 42.4705 94.556 42.208 94.3994 42.0122C94.2427 41.8164 94.0296 41.7026 93.8047 41.6947C90.858 41.5813 87.9914 41.0547 85.2047 40.1147Z" fill="#151E30"/>
<path d="M29.8166 52.2147C28.0766 51.9947 19.1866 51.7447 22.3066 47.8547C22.5931 47.4942 22.9686 47.2092 23.4007 47.0245C23.8329 46.8398 24.3086 46.7609 24.7866 46.7947C33.8733 47.4014 42.77 48.9748 51.4766 51.5148C52.79 51.9014 53.48 52.7314 53.5466 54.0048C53.8266 59.4848 44.6366 56.3048 41.3666 56.0548C41.098 56.0343 40.8193 56.1404 40.5772 56.3552C40.3351 56.57 40.1442 56.8805 40.0366 57.2347L38.4166 62.5648C38.3779 62.6905 38.2749 62.8134 38.1193 62.9195C37.9637 63.0256 37.7618 63.1106 37.5366 63.1647C35.8366 63.5581 34.36 63.2481 33.1066 62.2347C33.0372 62.1768 32.9715 62.0529 32.9169 61.8765C32.8622 61.7002 32.8206 61.4782 32.7966 61.2347L32.1066 54.4647C31.9666 53.1381 31.2033 52.3881 29.8166 52.2147Z" fill="#151E30"/>
<path d="M24.5163 91.1045C21.9363 90.0445 10.9363 87.3645 12.0563 83.7845C12.5363 82.2845 14.0363 81.8412 16.5563 82.4545L40.8663 88.3645C42.4063 88.7379 43.103 89.7278 42.9563 91.3345C42.6663 94.4845 36.1463 93.4046 34.1063 93.2646C33.96 93.2557 33.8166 93.2902 33.6988 93.3626C33.5811 93.4351 33.4958 93.5413 33.4563 93.6645L31.9863 97.9245C31.9234 98.1103 31.8349 98.2772 31.7265 98.4148C31.6181 98.5525 31.4921 98.6579 31.3563 98.7245C25.5263 101.635 25.6963 95.0045 25.0763 91.7845C25.0492 91.6343 24.9836 91.4931 24.8857 91.3742C24.7877 91.2552 24.6606 91.1625 24.5163 91.1045Z" fill="#151E30"/>
<path d="M76.9978 85.8446C76.7921 85.6434 76.6704 85.3719 76.6574 85.0858C76.6444 84.7996 76.7411 84.5203 76.9278 84.3046C79.2078 81.6746 81.8878 82.3546 85.4778 83.0846C86.9478 83.3846 111.838 88.3446 106.188 92.2846C104.198 93.6746 99.0778 92.9546 96.6478 92.4746C96.5182 92.4501 96.3853 92.4502 96.257 92.4748C96.1286 92.4994 96.0072 92.5481 95.9001 92.6179C95.793 92.6878 95.7022 92.7775 95.6331 92.8817C95.564 92.9859 95.518 93.1024 95.4978 93.2246L94.5678 98.7346C94.5254 98.9989 94.4753 99.2445 94.4259 99.429C94.3766 99.6135 94.3313 99.7252 94.2978 99.7447C92.4644 100.991 90.7211 100.898 89.0677 99.4646C88.9946 99.4044 88.9249 99.2843 88.8653 99.116C88.8057 98.9477 88.7583 98.7371 88.7278 98.5047L87.5178 89.9846C87.503 89.8776 87.4413 89.7705 87.3401 89.6764C87.2389 89.5823 87.1026 89.5052 86.9478 89.4546C83.5178 88.3546 79.6578 88.4146 76.9978 85.8446Z" fill="#151E30"/>
<path d="M31.5073 137.985L23.8173 136.715C22.2439 136.455 21.3073 135.765 21.0073 134.645C20.4873 132.671 21.5006 131.698 24.0473 131.725C31.2406 131.791 38.3339 132.168 45.3273 132.855C45.7492 132.893 46.1433 133.083 46.4372 133.389C46.7311 133.696 46.9051 134.099 46.9273 134.525C47.2273 139.815 43.8473 139.045 40.5573 139.025C39.1373 139.011 38.5273 139.581 38.7273 140.735C39.4806 145.021 38.0306 146.485 34.3773 145.125C34.2365 145.073 34.1039 144.964 33.9918 144.81C33.8798 144.656 33.7922 144.462 33.7373 144.245L32.2973 138.775C32.2435 138.57 32.1401 138.386 31.9999 138.245C31.8596 138.105 31.6885 138.015 31.5073 137.985Z" fill="#151E30"/>
</svg>
