<svg width="84" height="260" viewBox="0 0 84 260" fill="none" xmlns="http://www.w3.org/2000/svg">
<path d="M37.7778 222.584C38.9104 223.171 39.48 224.187 39.4867 225.634L39.6274 256.384C39.6342 257.431 40.1602 258.221 41.2057 258.754C43.0353 259.684 44.4125 257.034 44.4226 255.344C44.503 245.277 44.5968 235.224 44.704 225.184C44.7076 224.876 44.8255 224.579 45.0352 224.352C45.2449 224.125 45.5315 223.983 45.84 223.954C48.0415 223.744 49.9013 223.734 51.8817 222.514C60.3192 217.327 69.1623 213.764 78.4107 211.824C82.405 210.984 83.4103 208.801 81.4265 205.274C81.3544 205.147 81.2416 205.046 81.1055 204.989C80.9694 204.931 80.8174 204.919 80.6726 204.954C68.5692 207.654 58.5165 213.794 46.8151 217.214C46.6452 217.263 46.4663 217.272 46.292 217.242C46.1178 217.212 45.9527 217.142 45.8094 217.039C45.666 216.936 45.5481 216.802 45.4646 216.647C45.3811 216.492 45.3342 216.32 45.3274 216.144C45.1732 211.664 45.3106 207.197 45.7395 202.744C45.9406 200.674 44.6839 197.914 45.0257 196.384C45.5753 193.891 46.1483 191.414 46.7448 188.954C46.8222 188.638 47.012 188.364 47.2775 188.184C53.3896 184.131 59.6927 180.384 66.1867 176.944C68.2978 175.824 70.8511 176.154 72.5701 173.544C72.6561 173.415 72.702 173.264 72.702 173.11C72.702 172.957 72.6561 172.809 72.5701 172.684C71.394 170.984 69.4237 170.614 67.4332 171.394C59.0593 174.654 53.5102 178.704 46.5136 182.464C45.9908 182.744 45.7529 182.587 45.7998 181.994C46.3628 175.114 45.4279 169.254 47.0564 162.054C47.8305 158.624 51.3992 158.934 53.661 157.864C63.0502 153.404 71.5615 148.651 79.1948 143.604C81.9627 141.777 82.1269 139.951 79.6874 138.124C79.5604 138.031 79.4129 137.97 79.2572 137.946C79.1015 137.921 78.9423 137.934 78.7927 137.984C75.0632 139.254 71.2834 142.184 68.921 143.454C63.4724 146.381 57.4978 149.067 50.997 151.514C49.4087 152.114 48.5643 151.597 48.4638 149.964C48.0081 142.384 48.256 134.857 49.2077 127.384C49.2296 127.207 49.2953 127.03 49.4007 126.863C49.5062 126.697 49.6492 126.544 49.8209 126.414C58.0909 120.234 66.6793 114.534 75.5859 109.314C76.7319 108.641 76.9464 107.757 76.2293 106.664C74.4701 103.984 72.2886 104.224 69.7855 105.904C62.9698 110.464 56.2077 115.107 49.4992 119.834C49.0234 120.167 48.8056 120.017 48.8458 119.384L50.2833 96.8839C50.2987 96.6162 50.3791 96.3568 50.5175 96.1284C50.656 95.9 50.8483 95.7096 51.0775 95.5739C60.8487 89.8139 69.5845 81.7739 79.0039 75.2639C79.3745 75.0051 79.6407 74.6236 79.7548 74.1877C79.869 73.7518 79.8237 73.2897 79.6271 72.8839C77.2245 67.9739 74.832 69.1939 71.2834 71.9439C65.5935 76.3572 60.021 80.9172 54.5657 85.6239C53.9291 86.1705 53.2053 86.5505 52.3944 86.7639C51.3623 87.0305 50.9066 86.5672 51.0272 85.3739C51.617 79.5139 52.1062 73.6439 52.4949 67.7639C52.6658 65.1439 53.2388 63.5239 55.0282 61.8039C59.4648 57.5505 63.9148 53.2939 68.3782 49.0339C68.5257 48.8934 68.645 48.7438 68.7269 48.5965C68.8087 48.4492 68.8511 48.3081 68.8506 48.1839C68.8439 46.2505 67.8588 45.1438 65.8951 44.8638C65.8128 44.8515 65.6971 44.8774 65.5594 44.9388C65.4218 45.0002 65.2672 45.0951 65.1111 45.2139C63.4323 46.5339 54.2742 55.4138 53.3091 55.2338C53.1775 55.2062 53.0614 55.1255 52.9834 55.0072C52.9054 54.889 52.871 54.7417 52.8869 54.5939C53.5203 48.8539 52.5351 43.2839 53.3795 37.7839C53.7414 35.3972 54.0966 32.9939 54.4451 30.5739C54.4905 30.2599 54.6564 29.9765 54.9075 29.7839C61.2206 24.9706 66.7027 20.4772 71.3537 16.3039C74.2489 13.6939 68.4083 11.7239 67.5036 12.4539C63.5629 15.6405 59.572 18.7672 55.5308 21.8339C54.2307 22.8139 53.6576 22.5005 53.8118 20.8939C54.2273 16.3805 54.2173 11.8805 53.7817 7.39388C53.7615 7.14055 53.8286 6.82387 53.9827 6.44387C54.9779 4.00387 53.4097 -0.856144 50.5849 1.74386C50.3462 1.96847 50.2054 2.26284 50.1928 2.56386L49.2781 22.3839C49.2756 22.4308 49.2597 22.4755 49.2316 22.5142C49.2035 22.5528 49.164 22.5843 49.1166 22.6059C49.0693 22.6275 49.0154 22.6386 48.9594 22.6383C48.9035 22.6379 48.8473 22.6261 48.7955 22.6038C46.1617 21.5438 43.9802 20.0339 42.2512 18.0739C39.9391 15.4739 36.9736 12.5439 34.772 17.4339C34.7103 17.5716 34.6854 17.7243 34.6994 17.878C34.7134 18.0317 34.766 18.1815 34.8524 18.3139C37.9788 23.0539 43.8998 26.7738 48.1019 30.4838C48.3811 30.7302 48.6065 31.0323 48.7639 31.3712C48.9213 31.7101 49.0073 32.0787 49.0167 32.4539C49.2177 39.9205 48.9698 47.4039 48.2728 54.9039C48.1187 56.5706 47.2675 56.9339 45.7194 55.9939L31.0324 47.0339C30.673 46.8161 30.2464 46.7364 29.8346 46.8102C29.4228 46.884 29.0547 47.1061 28.8007 47.4339C26.2373 50.7339 28.8107 53.2639 31.6959 55.2039C36.0654 58.1372 40.6629 60.8972 45.4882 63.4838C47.0296 64.3105 47.7433 65.5939 47.6294 67.3339C47.2575 72.7739 47.549 79.8938 46.2321 85.2338C46.2003 85.3645 46.1149 85.4767 45.9944 85.546C45.8739 85.6153 45.7281 85.6361 45.5887 85.6038C39.1047 84.1138 30.57 75.6439 25.7146 71.0839C24.7428 70.1706 23.7844 70.1839 22.8394 71.1239C20.467 73.4905 20.5006 75.6672 22.94 77.6539C30.0774 83.4472 37.3555 88.9172 44.7744 94.0639C45.1425 94.3181 45.4347 94.6686 45.6204 95.0786C45.8061 95.4885 45.8786 95.9429 45.83 96.3939L43.4676 118.574C43.3939 119.247 43.0755 119.377 42.5126 118.964C36.8328 114.754 29.9568 108.294 23.6236 105.484C23.4812 105.421 23.3253 105.397 23.1729 105.414C23.0205 105.432 22.8774 105.491 22.7591 105.584C20.3866 107.424 20.457 109.267 22.9701 111.114C31.2401 117.194 37.885 122.504 42.9046 127.044C43.0028 127.132 43.083 127.253 43.1402 127.397C43.1973 127.542 43.2301 127.708 43.2364 127.884C43.471 134.464 43.2062 141.024 42.4422 147.564C42.3417 148.431 41.9563 148.597 41.2862 148.064C35.6701 143.657 30.2617 138.891 25.0611 133.764C22.9702 131.704 19.3914 130.344 18.7983 134.554C18.7448 134.941 18.7838 135.339 18.9126 135.72C19.0414 136.101 19.2566 136.454 19.5422 136.754C26.2038 143.747 33.3211 150.247 40.8941 156.254C41.225 156.515 41.4852 156.87 41.6518 157.287C41.8184 157.704 41.8862 158.17 41.8491 158.644L39.9994 181.144C39.9884 181.28 39.9401 181.411 39.8592 181.522C39.7783 181.633 39.6676 181.72 39.5384 181.776C39.4091 181.832 39.2657 181.853 39.1226 181.839C38.9795 181.825 38.8416 181.775 38.7227 181.694L13.8926 164.874C13.6689 164.725 13.4444 164.611 13.2499 164.548C13.0554 164.485 12.9006 164.477 12.8069 164.524C11.3526 165.251 10.2837 166.377 9.60007 167.904C9.44724 168.241 9.43075 168.632 9.55338 169.011C9.67601 169.389 9.93028 169.733 10.2736 169.984C19.8169 176.997 29.5714 183.717 39.537 190.144C39.6916 190.246 39.8207 190.366 39.9135 190.495C40.0062 190.624 40.0598 190.757 40.0698 190.884C40.5925 198.724 40.5188 206.561 39.8486 214.394C39.8405 214.489 39.8085 214.581 39.7553 214.661C39.702 214.741 39.6292 214.807 39.5431 214.853C39.4571 214.9 39.3603 214.925 39.2611 214.927C39.162 214.928 39.0635 214.907 38.9741 214.864C29.6854 210.334 19.6729 206.154 10.8969 200.734C7.53931 198.664 3.72932 198.904 1.19604 202.004C1.11932 202.099 1.06314 202.208 1.03105 202.325C0.998966 202.443 0.991633 202.565 1.00958 202.686C1.02752 202.806 1.07034 202.921 1.1353 203.024C1.20026 203.127 1.28599 203.215 1.38705 203.284C4.08787 205.117 6.88584 206.767 9.78102 208.234C19.5321 213.167 28.8644 217.951 37.7778 222.584Z" stroke="#89878E" stroke-width="2"/>
<path d="M48.1406 61.5541C48.2785 61.6224 48.4301 61.6589 48.5838 61.6609C48.7376 61.6629 48.8893 61.6302 49.0272 61.5654C49.1652 61.5007 49.2857 61.4056 49.3795 61.2874C49.4733 61.1693 49.5378 61.0313 49.568 60.8841C49.7088 60.1708 49.5446 59.5841 49.0755 59.1241C48.9629 59.0112 48.7983 58.9464 48.6062 58.9391C48.4142 58.9319 48.205 58.9828 48.0099 59.0841C46.4283 59.9041 46.4718 60.7274 48.1406 61.5541Z" stroke="#1E2639" stroke-width="2"/>
<path d="M37.7778 222.584C28.8644 217.951 19.5321 213.167 9.78102 208.234C6.88584 206.767 4.08787 205.117 1.38705 203.284C1.28599 203.215 1.20026 203.127 1.1353 203.024C1.07034 202.921 1.02752 202.806 1.00958 202.686C0.991633 202.565 0.998966 202.443 1.03105 202.325C1.06314 202.208 1.11932 202.098 1.19604 202.004C3.72932 198.904 7.53931 198.664 10.8969 200.734C19.6729 206.154 29.6854 210.334 38.9741 214.864C39.0635 214.907 39.162 214.928 39.2612 214.927C39.3603 214.925 39.4571 214.9 39.5431 214.853C39.6292 214.807 39.702 214.741 39.7553 214.661C39.8085 214.581 39.8405 214.489 39.8486 214.394C40.5188 206.561 40.5925 198.724 40.0698 190.884C40.0598 190.757 40.0062 190.624 39.9135 190.495C39.8207 190.366 39.6916 190.246 39.537 190.144C29.5714 183.717 19.8169 176.997 10.2736 169.984C9.93028 169.733 9.67601 169.389 9.55338 169.011C9.43075 168.632 9.44724 168.241 9.60007 167.904C10.2837 166.377 11.3526 165.251 12.8069 164.524C12.9006 164.477 13.0554 164.485 13.2499 164.548C13.4444 164.611 13.6689 164.725 13.8926 164.874L38.7227 181.694C38.8416 181.775 38.9795 181.825 39.1226 181.839C39.2657 181.853 39.4091 181.832 39.5384 181.776C39.6676 181.72 39.7783 181.633 39.8592 181.522C39.9401 181.411 39.9884 181.281 39.9994 181.144L41.8491 158.644C41.8862 158.17 41.8184 157.704 41.6518 157.287C41.4852 156.87 41.225 156.515 40.8941 156.254C33.3211 150.247 26.2038 143.747 19.5422 136.754C19.2566 136.454 19.0414 136.101 18.9126 135.72C18.7838 135.339 18.7448 134.941 18.7983 134.554C19.3914 130.344 22.9702 131.704 25.0611 133.764C30.2617 138.891 35.6701 143.657 41.2862 148.064C41.9563 148.597 42.3417 148.431 42.4422 147.564C43.2062 141.024 43.471 134.464 43.2364 127.884C43.2301 127.708 43.1973 127.542 43.1402 127.397C43.083 127.253 43.0028 127.132 42.9046 127.044C37.885 122.504 31.2401 117.194 22.9701 111.114C20.457 109.267 20.3866 107.424 22.7591 105.584C22.8774 105.491 23.0205 105.432 23.1729 105.414C23.3253 105.397 23.4812 105.421 23.6236 105.484C29.9568 108.294 36.8328 114.754 42.5126 118.964C43.0755 119.377 43.3939 119.247 43.4676 118.574L45.83 96.3939C45.8786 95.9429 45.8061 95.4885 45.6204 95.0786C45.4347 94.6686 45.1425 94.3181 44.7744 94.0639C37.3555 88.9172 30.0774 83.4472 22.94 77.6539C20.5006 75.6672 20.467 73.4905 22.8394 71.1239C23.7844 70.1839 24.7428 70.1706 25.7146 71.0839C30.57 75.6439 39.1047 84.1138 45.5887 85.6038C45.7281 85.6361 45.8739 85.6153 45.9944 85.546C46.1149 85.4767 46.2003 85.3645 46.2321 85.2338C47.549 79.8938 47.2575 72.7739 47.6294 67.3339C47.7433 65.5939 47.0296 64.3105 45.4882 63.4838C40.6629 60.8972 36.0654 58.1372 31.6959 55.2039C28.8107 53.2639 26.2373 50.7339 28.8007 47.4339C29.0547 47.1061 29.4228 46.884 29.8346 46.8102C30.2464 46.7364 30.673 46.8161 31.0324 47.0339L45.7194 55.9939C47.2675 56.9339 48.1187 56.5706 48.2728 54.9039C48.9698 47.4039 49.2177 39.9205 49.0167 32.4539C49.0073 32.0787 48.9213 31.7101 48.7639 31.3712C48.6065 31.0323 48.3811 30.7302 48.1019 30.4838C43.8998 26.7738 37.9788 23.0539 34.8524 18.3139C34.766 18.1815 34.7134 18.0317 34.6994 17.878C34.6854 17.7243 34.7103 17.5716 34.772 17.4339C36.9736 12.5439 39.9391 15.4739 42.2512 18.0739C43.9802 20.0339 46.1617 21.5438 48.7955 22.6038C48.8473 22.6261 48.9035 22.6379 48.9594 22.6383C49.0154 22.6386 49.0693 22.6275 49.1166 22.6059C49.164 22.5843 49.2035 22.5528 49.2316 22.5142C49.2597 22.4755 49.2756 22.4308 49.2781 22.3839L50.1928 2.56386C50.2054 2.26284 50.3462 1.96847 50.5849 1.74386C53.4097 -0.856144 54.9779 4.00387 53.9827 6.44387C53.8286 6.82387 53.7615 7.14055 53.7817 7.39388C54.2173 11.8805 54.2273 16.3805 53.8118 20.8939C53.6576 22.5005 54.2307 22.8139 55.5308 21.8339C59.572 18.7672 63.5629 15.6405 67.5036 12.4539C68.4083 11.7239 74.2489 13.6939 71.3537 16.3039C66.7027 20.4772 61.2206 24.9706 54.9075 29.7839C54.6564 29.9765 54.4905 30.2599 54.4451 30.5739C54.0966 32.9939 53.7414 35.3972 53.3795 37.7839C52.5351 43.2839 53.5203 48.8539 52.8869 54.5939C52.871 54.7417 52.9054 54.889 52.9834 55.0072C53.0614 55.1255 53.1775 55.2062 53.3091 55.2338C54.2742 55.4138 63.4323 46.5339 65.1111 45.2139C65.2672 45.0951 65.4218 45.0002 65.5594 44.9388C65.6971 44.8774 65.8128 44.8515 65.8951 44.8638C67.8588 45.1438 68.8439 46.2505 68.8506 48.1839C68.8511 48.3081 68.8087 48.4492 68.7269 48.5965C68.645 48.7438 68.5257 48.8934 68.3782 49.0339C63.9148 53.2939 59.4648 57.5505 55.0282 61.8039C53.2388 63.5239 52.6658 65.1439 52.4949 67.7639C52.1062 73.6439 51.617 79.5139 51.0272 85.3739C50.9066 86.5672 51.3623 87.0305 52.3944 86.7639C53.2053 86.5505 53.9291 86.1705 54.5657 85.6239C60.021 80.9172 65.5935 76.3572 71.2834 71.9439C74.832 69.1939 77.2245 67.9739 79.6271 72.8839C79.8237 73.2897 79.869 73.7518 79.7548 74.1877C79.6407 74.6236 79.3745 75.0051 79.0039 75.2639C69.5845 81.7739 60.8487 89.8139 51.0775 95.5739C50.8483 95.7096 50.656 95.9 50.5175 96.1284C50.3791 96.3568 50.2987 96.6162 50.2833 96.8839L48.8458 119.384C48.8056 120.017 49.0234 120.167 49.4992 119.834C56.2077 115.107 62.9698 110.464 69.7855 105.904C72.2886 104.224 74.4701 103.984 76.2293 106.664C76.9464 107.757 76.7319 108.641 75.5859 109.314C66.6793 114.534 58.0909 120.234 49.8209 126.414C49.6492 126.544 49.5062 126.697 49.4007 126.863C49.2953 127.03 49.2296 127.207 49.2077 127.384C48.256 134.857 48.0081 142.384 48.4638 149.964C48.5643 151.597 49.4087 152.114 50.997 151.514C57.4978 149.067 63.4724 146.381 68.921 143.454C71.2834 142.184 75.0632 139.254 78.7927 137.984C78.9423 137.934 79.1015 137.921 79.2572 137.946C79.4129 137.97 79.5604 138.031 79.6874 138.124C82.1269 139.951 81.9627 141.777 79.1948 143.604C71.5615 148.65 63.0502 153.404 53.661 157.864C51.3992 158.934 47.8305 158.624 47.0564 162.054C45.4279 169.254 46.3628 175.114 45.7998 181.994C45.7529 182.587 45.9908 182.744 46.5136 182.464C53.5103 178.704 59.0593 174.654 67.4332 171.394C69.4237 170.614 71.394 170.984 72.5701 172.684C72.6561 172.809 72.702 172.957 72.702 173.11C72.702 173.264 72.6561 173.415 72.5701 173.544C70.8511 176.154 68.2978 175.824 66.1867 176.944C59.6927 180.384 53.3896 184.131 47.2775 188.184C47.012 188.364 46.8222 188.638 46.7448 188.954C46.1483 191.414 45.5753 193.891 45.0257 196.384C44.6839 197.914 45.9406 200.674 45.7395 202.744C45.3106 207.197 45.1732 211.664 45.3274 216.144C45.3342 216.32 45.3811 216.492 45.4646 216.647C45.5481 216.802 45.666 216.936 45.8094 217.039C45.9527 217.142 46.1178 217.212 46.292 217.242C46.4663 217.272 46.6452 217.263 46.8151 217.214C58.5165 213.794 68.5692 207.654 80.6726 204.954C80.8174 204.919 80.9694 204.931 81.1055 204.989C81.2416 205.046 81.3544 205.147 81.4265 205.274C83.4103 208.801 82.405 210.984 78.4107 211.824C69.1623 213.764 60.3192 217.327 51.8817 222.514C49.9013 223.734 48.0415 223.744 45.84 223.954C45.5315 223.983 45.2449 224.125 45.0352 224.352C44.8255 224.579 44.7076 224.876 44.704 225.184C44.5968 235.224 44.503 245.277 44.4226 255.344C44.4125 257.034 43.0353 259.684 41.2057 258.754C40.1602 258.221 39.6342 257.431 39.6274 256.384L39.4867 225.634C39.48 224.187 38.9104 223.171 37.7778 222.584ZM48.1421 61.5539C48.28 61.6221 48.4316 61.6587 48.5854 61.6607C48.7391 61.6626 48.8908 61.63 49.0288 61.5652C49.1667 61.5005 49.2873 61.4053 49.381 61.2872C49.4748 61.169 49.5393 61.0311 49.5696 60.8839C49.7103 60.1705 49.5461 59.5839 49.077 59.1239C48.9644 59.011 48.7998 58.9461 48.6077 58.9389C48.4157 58.9317 48.2065 58.9826 48.0114 59.0839C46.4298 59.9039 46.4734 60.7272 48.1421 61.5539Z" fill="#13162B"/>
<path d="M49.8018 61.5536C48.1418 60.7269 48.0985 59.9036 49.6718 59.0836C49.8659 58.9823 50.074 58.9315 50.265 58.9387C50.4561 58.9459 50.6198 59.0108 50.7318 59.1236C51.1985 59.5836 51.3618 60.1703 51.2218 60.8836C51.1917 61.0308 51.1275 61.1688 51.0342 61.2869C50.941 61.4051 50.8211 61.5002 50.6838 61.5649C50.5466 61.6297 50.3957 61.6624 50.2427 61.6604C50.0898 61.6584 49.939 61.6219 49.8018 61.5536Z" fill="#293546"/>
</svg>
