<svg width="126" height="261" viewBox="0 0 126 261" fill="none" xmlns="http://www.w3.org/2000/svg">
<path d="M57.0584 34.6187C53.1917 44.472 50.515 55.472 49.0284 67.6187C43.7584 110.549 42.9584 153.759 46.3084 196.869" stroke="#8A8C8F" stroke-width="2"/>
<path d="M46.3047 196.868C47.178 213.562 48.1314 230.252 49.1647 246.938C49.3847 250.512 50.038 253.488 51.1247 255.868C51.2605 256.16 51.4934 256.396 51.7847 256.538C60.0347 260.698 69.5347 262.408 74.0747 252.128C75.2014 249.575 75.8414 247.402 75.9947 245.608C77.2347 231.268 79.7547 216.458 80.1347 202.628C81.2447 162.278 81.1747 124.878 82.8747 72.1185C83.1747 62.5885 83.4747 49.0485 87.2447 40.2385C87.9914 38.4851 89.178 37.1018 90.8047 36.0885C95.8247 32.9551 101.241 31.8051 107.055 32.6385C114.928 33.7651 120.431 31.1951 123.565 24.9285C129.085 13.8885 116.835 3.84846 107.245 1.92846C81.6147 -3.17154 66.5947 13.4385 57.0547 34.6185" stroke="#9397A4" stroke-width="2"/>
<path d="M46.3056 196.869L47.0056 196.759C47.1293 196.74 47.2442 196.66 47.3301 196.532C47.4161 196.404 47.4676 196.237 47.4756 196.059C47.9356 185.929 46.0356 175.719 46.2156 165.439C46.2756 162.049 45.7656 158.249 45.7656 154.429C45.7656 143.729 45.8156 134.719 45.9156 127.399C46.1156 112.529 47.9656 97.5786 49.0756 82.7386C50.2656 66.8186 52.0956 52.5287 58.0656 35.8887C58.359 35.062 58.0223 34.6387 57.0556 34.6187" stroke="#1D2434" stroke-width="2"/>
<path d="M36.6956 9.69865C36.3689 9.41865 36.0356 9.36199 35.6956 9.52865C35.5328 9.60705 35.3912 9.70588 35.2806 9.81819C35.17 9.93049 35.0932 10.0535 35.0556 10.1786L32.9256 17.5587C32.4656 19.1587 31.5156 19.5786 30.0756 18.8186C26.5356 16.9486 26.3456 12.4086 26.4856 8.90864C26.492 8.7271 26.4685 8.55393 26.4166 8.4017C26.3647 8.24947 26.2858 8.12203 26.1856 8.02865C25.6856 7.54865 25.2256 7.72198 24.8056 8.54864C23.2789 11.602 23.3322 14.8853 24.9656 18.3986C26.6756 22.0886 31.1456 24.1287 34.6156 21.4787C37.2256 19.4887 36.6556 13.0787 36.8056 10.0887C36.8086 10.0016 36.8002 9.92056 36.781 9.85255C36.7619 9.78454 36.7325 9.73169 36.6956 9.69865Z" stroke="#8A8C8F" stroke-width="2"/>
<path d="M30.556 61.4983C27.996 60.4983 28.456 69.5683 24.976 70.7883C21.016 72.1783 20.766 65.4383 21.016 62.5283C21.566 56.0083 18.086 64.0083 17.916 65.3283C16.606 75.6983 29.146 77.8883 30.746 68.5983C31.0127 67.0449 31.106 64.9183 31.026 62.2183C31.0204 62.0579 30.9729 61.9045 30.8894 61.7766C30.806 61.6487 30.6901 61.552 30.556 61.4983Z" stroke="#8A8C8F" stroke-width="2"/>
<path d="M21.0871 125.399C18.7871 126.512 16.8504 125.875 15.2771 123.489C15.0659 123.168 14.9548 122.857 14.9671 122.619L15.3171 116.119C15.3228 115.976 15.2853 115.829 15.2081 115.694C15.1309 115.559 15.0168 115.44 14.8771 115.349C12.2871 113.689 8.24706 125.989 17.6771 128.869C24.2971 130.899 25.5571 125.199 27.6371 120.799C27.7222 120.617 27.7739 120.435 27.7846 120.277C27.7954 120.119 27.7648 119.993 27.6971 119.919C26.9504 119.085 26.0337 118.872 24.9471 119.279C24.8109 119.328 24.6818 119.425 24.5704 119.56C24.4591 119.696 24.3688 119.867 24.3071 120.059C23.6471 122.079 23.1171 124.409 21.0871 125.399Z" stroke="#8F8F90" stroke-width="2"/>
<path d="M13.716 186.898C13.5813 186.843 13.4241 186.85 13.2746 186.921C13.125 186.991 12.9937 187.118 12.906 187.278L10.456 191.788C9.40265 193.722 7.94265 193.972 6.07598 192.538C3.79598 190.785 3.07265 188.488 3.90598 185.648C3.92264 185.586 3.91164 185.461 3.87433 185.288C3.83702 185.116 3.77504 184.904 3.69598 184.678C3.58265 184.338 3.38598 184.122 3.10598 184.028C2.97249 183.988 2.81846 184.018 2.67294 184.114C2.52741 184.21 2.40045 184.364 2.31598 184.548C0.0293177 189.442 0.722651 192.968 4.39598 195.128C12.456 199.848 18.426 188.888 13.716 186.898Z" stroke="#918F94" stroke-width="2"/>
<path d="M46.3056 196.868L47.0056 196.758C47.1293 196.74 47.2442 196.66 47.3301 196.532C47.4161 196.404 47.4676 196.236 47.4756 196.058C47.9356 185.928 46.0356 175.718 46.2156 165.438C46.2756 162.048 45.7656 158.248 45.7656 154.428C45.7656 143.728 45.8156 134.718 45.9156 127.398C46.1156 112.528 47.9656 97.5785 49.0756 82.7385C50.2656 66.8185 52.0956 52.5285 58.0656 35.8885C58.359 35.0618 58.0223 34.6385 57.0556 34.6185C66.5956 13.4385 81.6156 -3.17154 107.246 1.92846C116.836 3.84846 129.086 13.8885 123.566 24.9285C120.432 31.1951 114.929 33.7651 107.056 32.6385C101.242 31.8051 95.8256 32.9551 90.8056 36.0885C89.179 37.1018 87.9923 38.4851 87.2456 40.2385C83.4756 49.0485 83.1756 62.5885 82.8756 72.1185C81.1756 124.878 81.2456 162.278 80.1356 202.628C79.7556 216.458 77.2356 231.268 75.9956 245.608C75.8423 247.402 75.2023 249.575 74.0756 252.128C69.5356 262.408 60.0356 260.698 51.7856 256.538C51.4944 256.396 51.2614 256.16 51.1256 255.868C50.039 253.488 49.3856 250.512 49.1656 246.938C48.1323 230.252 47.179 213.562 46.3056 196.868Z" fill="#262F49"/>
<path d="M36.6956 9.69865C36.7325 9.73169 36.7619 9.78454 36.781 9.85255C36.8002 9.92056 36.8086 10.0016 36.8056 10.0887C36.6556 13.0787 37.2256 19.4887 34.6156 21.4787C31.1456 24.1287 26.6756 22.0886 24.9656 18.3986C23.3322 14.8853 23.2789 11.602 24.8056 8.54864C25.2256 7.72198 25.6856 7.54865 26.1856 8.02865C26.2858 8.12203 26.3647 8.24947 26.4166 8.4017C26.4685 8.55393 26.492 8.7271 26.4856 8.90864C26.3456 12.4086 26.5356 16.9486 30.0756 18.8186C31.5156 19.5786 32.4656 19.1587 32.9256 17.5587L35.0556 10.1786C35.0932 10.0535 35.17 9.93049 35.2806 9.81819C35.3912 9.70588 35.5328 9.60705 35.6956 9.52865C36.0356 9.36199 36.3689 9.41865 36.6956 9.69865Z" fill="#14181E"/>
<path d="M57.0545 34.6187C58.0211 34.6387 58.3578 35.062 58.0645 35.8887C52.0945 52.5287 50.2645 66.8186 49.0745 82.7386C47.9645 97.5786 46.1145 112.529 45.9145 127.399C45.8145 134.719 45.7645 143.729 45.7645 154.429C45.7645 158.249 46.2745 162.049 46.2145 165.439C46.0345 175.719 47.9345 185.929 47.4745 196.059C47.4664 196.237 47.4149 196.404 47.329 196.532C47.243 196.66 47.1282 196.74 47.0045 196.759L46.3045 196.869C42.9545 153.759 43.7545 110.549 49.0245 67.6187C50.5111 55.472 53.1878 44.472 57.0545 34.6187Z" fill="#14181E"/>
<path d="M24.976 70.7888C28.456 69.5688 27.996 60.4988 30.556 61.4988C30.6901 61.5525 30.806 61.6492 30.8894 61.7771C30.9729 61.9049 31.0204 62.0584 31.026 62.2188C31.106 64.9188 31.0127 67.0454 30.746 68.5988C29.146 77.8888 16.606 75.6988 17.916 65.3288C18.086 64.0088 21.566 56.0088 21.016 62.5288C20.766 65.4388 21.016 72.1788 24.976 70.7888Z" fill="#14181E"/>
<path d="M21.0871 125.399C23.1171 124.409 23.6471 122.079 24.3071 120.059C24.3688 119.867 24.4591 119.696 24.5704 119.56C24.6818 119.425 24.8109 119.328 24.9471 119.279C26.0337 118.872 26.9504 119.085 27.6971 119.919C27.7648 119.993 27.7954 120.119 27.7846 120.277C27.7739 120.435 27.7222 120.617 27.6371 120.799C25.5571 125.199 24.2971 130.899 17.6771 128.869C8.24706 125.989 12.2871 113.689 14.8771 115.349C15.0168 115.44 15.1309 115.559 15.2081 115.694C15.2853 115.829 15.3228 115.976 15.3171 116.119L14.9671 122.619C14.9548 122.857 15.0659 123.168 15.2771 123.489C16.8504 125.875 18.7871 126.512 21.0871 125.399Z" fill="#1E1E21"/>
<path d="M13.716 186.899C18.426 188.889 12.456 199.849 4.39598 195.129C0.722651 192.969 0.0293177 189.443 2.31598 184.549C2.40045 184.365 2.52741 184.211 2.67294 184.115C2.81846 184.019 2.97249 183.989 3.10598 184.029C3.38598 184.123 3.58265 184.339 3.69598 184.679C3.77504 184.905 3.83702 185.117 3.87433 185.289C3.91164 185.462 3.92264 185.587 3.90598 185.649C3.07265 188.489 3.79598 190.786 6.07598 192.539C7.94265 193.973 9.40265 193.723 10.456 191.789L12.906 187.279C12.9937 187.119 13.125 186.992 13.2746 186.922C13.4241 186.851 13.5813 186.844 13.716 186.899Z" fill="#231F28"/>
</svg>
