<svg width="118" height="131" viewBox="0 0 118 131" fill="none" xmlns="http://www.w3.org/2000/svg">
<path d="M3.99243 85.9224C2.8391 88.2424 3.5491 89.6857 6.12243 90.2523" stroke="#8590A6" stroke-width="2"/>
<path d="M6.125 90.2524L10.665 99.4625" stroke="#BCE8DB" stroke-width="2"/>
<path d="M10.6645 99.4624C7.95783 102.602 8.64783 104.659 12.7345 105.632" stroke="#8590A6" stroke-width="2"/>
<path d="M12.7344 105.632C14.861 106.999 15.851 108.952 15.7044 111.492" stroke="#BCE8DB" stroke-width="2"/>
<path d="M15.7031 111.493C15.9431 113.803 18.1331 113.763 19.8331 114.213" stroke="#8590A6" stroke-width="2"/>
<path d="M19.832 114.212L30.022 121.762" stroke="#BCE8DB" stroke-width="2"/>
<path d="M30.0234 121.762L34.8834 124.472" stroke="#8590A6" stroke-width="2"/>
<path d="M34.8828 124.473C38.2428 125.933 41.8028 126.999 45.5628 127.673C45.8562 127.726 46.1461 127.859 46.4328 128.073C47.6861 129.026 49.0961 129.323 50.6628 128.963" stroke="#BCE8DB" stroke-width="2"/>
<path d="M50.6641 128.962L53.3741 129.002" stroke="#8590A6" stroke-width="2"/>
<path d="M53.375 129.003C59.275 130.673 64.645 127.233 70.015 125.193C77.595 122.313 84.065 117.833 89.425 111.753C110.275 88.1326 129.665 52.5226 105.795 23.2826C99.8417 15.9826 96.215 11.6793 94.915 10.3726C90.1883 5.61927 84.3417 3.73932 77.375 4.73265" stroke="#BCE8DB" stroke-width="2"/>
<path d="M77.3741 4.73236C74.9674 3.39236 72.6474 2.52566 70.4141 2.13232" stroke="#8590A6" stroke-width="2"/>
<path d="M70.4131 2.13222C18.2431 -3.17778 -6.82692 39.1123 3.99308 85.9223" stroke="#BCE8DB" stroke-width="2"/>
<path d="M70.4134 2.13232C68.6868 4.04566 68.6135 5.7257 70.1935 7.17236C73.4935 10.2057 75.8868 13.549 77.3734 17.2023C81.9934 28.5423 86.7034 41.6023 87.1234 53.9623C87.9834 78.6823 72.5634 99.7524 50.7934 110.862C41.1334 115.796 34.2101 119.429 30.0234 121.762" stroke="#427982" stroke-width="2"/>
<path d="M19.8324 114.213C26.6724 110.913 33.6324 107.896 40.7124 105.163C61.7324 97.0625 76.7124 84.3025 79.0524 60.8225C80.9124 42.1325 72.8924 9.3525 48.6824 9.0025C26.2624 8.6725 11.7824 29.0025 8.72237 49.3925C7.5157 57.4258 7.12904 65.5225 7.56237 73.6825C7.57099 73.8338 7.62193 73.9787 7.70896 74.0995C7.796 74.2203 7.91534 74.3117 8.05237 74.3625C11.9457 75.7892 13.8324 74.4992 13.7124 70.4925C13.1924 53.3925 15.5324 36.1525 27.4024 23.6025C33.6724 16.9725 42.3224 13.3825 51.0624 15.7725C65.1024 19.5925 70.6224 34.0525 72.5524 47.0125C75.0824 63.9625 69.7424 79.5825 56.0024 89.9225C43.7124 99.1625 26.5524 100.353 15.7024 111.493" stroke="#427982" stroke-width="2"/>
<path d="M12.7322 105.632C21.2189 100.532 28.8222 94.9556 35.5422 88.9022C48.2922 77.4222 55.9222 57.8722 46.0722 42.2722C41.6122 35.1922 33.0722 37.3622 33.6922 45.9122C34.3022 54.4422 34.3222 66.1222 26.1722 71.2822C15.5122 78.0356 8.11885 82.9156 3.99219 85.9223" stroke="#427982" stroke-width="2"/>
<path d="M10.665 99.4624C25.615 89.2924 45.955 76.5525 44.145 55.4925C43.975 53.5225 42.655 45.4324 40.535 44.6324C40.4832 44.6118 40.4271 44.6058 40.3719 44.6151C40.3168 44.6243 40.2643 44.6485 40.2194 44.6854C40.1746 44.7223 40.1387 44.7707 40.1152 44.8261C40.0917 44.8816 40.0813 44.9422 40.085 45.0024C40.785 57.3324 39.255 69.5525 28.335 77.1725C24.395 79.9258 16.9917 84.2857 6.125 90.2524" stroke="#427982" stroke-width="2"/>
<path d="M77.3728 4.73242C84.9462 16.7591 89.9328 29.7124 92.3328 43.5924C99.5628 85.4424 71.1728 112.042 34.8828 124.472" stroke="#427982" stroke-width="2"/>
<path d="M53.3721 129.003C57.0721 128.396 60.9254 126.899 64.9321 124.513C92.6521 108.053 111.912 75.9427 106.202 42.7727C104.332 31.9427 101.142 22.0127 95.6321 13.0327C94.1621 10.6527 87.9321 4.32269 84.9021 7.56269C84.8008 7.67292 84.7376 7.81352 84.7214 7.96436C84.7052 8.11521 84.737 8.26862 84.8121 8.40272C85.3921 9.42272 86.7321 11.5394 88.8321 14.7527C94.7854 23.866 98.5987 34.3594 100.272 46.2327C104.472 76.0427 87.9821 101.873 63.8921 117.603C59.9021 120.203 54.7821 122.663 50.2021 125.123C49.8927 125.29 49.6617 125.539 49.5521 125.823C49.0321 127.149 49.4021 128.196 50.6621 128.963" stroke="#427982" stroke-width="2"/>
<path d="M22.2553 68.2924C24.1753 67.2457 25.3387 65.4924 25.7453 63.0324C26.7453 57.0657 28.2787 49.8557 30.3453 41.4024C32.0853 34.3124 38.2153 29.5623 45.4553 31.2523C54.1253 33.2723 58.1454 45.7523 58.1954 53.3723C58.2554 63.8923 53.0753 77.4024 46.0453 85.8624C44.5587 87.6491 44.4154 89.1657 45.6154 90.4124C45.8396 90.6432 46.1524 90.7762 46.4853 90.7824C55.8953 90.9024 62.9454 66.5324 64.0854 59.5124C66.0654 47.2824 62.0854 29.1924 48.1954 25.0424C26.7954 18.6624 21.8353 47.8423 19.5653 61.6923C19.1653 64.1523 19.7987 66.309 21.4653 68.1624C21.5645 68.2701 21.6965 68.3415 21.8399 68.3651C21.9833 68.3887 22.1297 68.3631 22.2553 68.2924Z" stroke="#427982" stroke-width="2"/>
<path d="M70.4131 2.13222C68.6864 4.04555 68.6131 5.72559 70.1931 7.17225C73.4931 10.2056 75.8864 13.5489 77.3731 17.2022C81.9931 28.5422 86.7031 41.6022 87.1231 53.9622C87.9831 78.6822 72.5631 99.7523 50.7931 110.862C41.1331 115.796 34.2097 119.429 30.0231 121.762L19.8331 114.212C26.6731 110.912 33.6331 107.896 40.7131 105.162C61.7331 97.0622 76.7131 84.3022 79.0531 60.8222C80.9131 42.1322 72.8931 9.35221 48.6831 9.00221C26.2631 8.67221 11.7831 29.0022 8.72308 49.3922C7.51641 57.4256 7.12975 65.5222 7.56308 73.6822C7.5717 73.8335 7.62264 73.9784 7.70967 74.0992C7.79671 74.22 7.91605 74.3114 8.05308 74.3623C11.9464 75.7889 13.8331 74.4989 13.7131 70.4923C13.1931 53.3923 15.5331 36.1522 27.4031 23.6022C33.6731 16.9722 42.3231 13.3822 51.0631 15.7722C65.1031 19.5922 70.6231 34.0522 72.5531 47.0122C75.0831 63.9622 69.7431 79.5823 56.0031 89.9223C43.7131 99.1623 26.5531 100.352 15.7031 111.492C15.8497 108.952 14.8597 106.999 12.7331 105.632C21.2197 100.532 28.8231 94.9556 35.5431 88.9022C48.2931 77.4222 55.9231 57.8722 46.0731 42.2722C41.6131 35.1922 33.0731 37.3622 33.6931 45.9122C34.3031 54.4422 34.3231 66.1222 26.1731 71.2822C15.5131 78.0356 8.11975 82.9156 3.99308 85.9223C-6.82692 39.1123 18.2431 -3.17778 70.4131 2.13222ZM22.2531 68.2923C24.1731 67.2456 25.3364 65.4922 25.7431 63.0322C26.7431 57.0656 28.2764 49.8556 30.3431 41.4022C32.0831 34.3122 38.2131 29.5622 45.4531 31.2522C54.1231 33.2722 58.1431 45.7522 58.1931 53.3722C58.2531 63.8922 53.0731 77.4023 46.0431 85.8623C44.5564 87.6489 44.4131 89.1656 45.6131 90.4122C45.8374 90.6431 46.1501 90.7761 46.4831 90.7822C55.8931 90.9022 62.9431 66.5322 64.0831 59.5122C66.0631 47.2822 62.0831 29.1922 48.1931 25.0422C26.7931 18.6623 21.8331 47.8422 19.5631 61.6922C19.1631 64.1522 19.7964 66.3089 21.4631 68.1622C21.5622 68.2699 21.6942 68.3413 21.8376 68.3649C21.981 68.3885 22.1274 68.3629 22.2531 68.2923Z" fill="#78D1B7"/>
<path d="M70.4134 2.13232C72.6468 2.52566 74.9668 3.39236 77.3734 4.73236C84.9468 16.759 89.9334 29.7123 92.3335 43.5923C99.5635 85.4423 71.1734 112.042 34.8834 124.472L30.0234 121.762C34.2101 119.429 41.1334 115.796 50.7934 110.862C72.5634 99.7524 87.9834 78.6823 87.1234 53.9623C86.7034 41.6023 81.9934 28.5423 77.3734 17.2023C75.8868 13.549 73.4935 10.2057 70.1935 7.17236C68.6134 5.7257 68.6868 4.04566 70.4134 2.13232Z" fill="#0B204C"/>
<path d="M53.3767 129.003C57.0767 128.396 60.9301 126.899 64.9367 124.513C92.6567 108.053 111.917 75.9426 106.207 42.7726C104.337 31.9426 101.147 22.0126 95.6367 13.0326C94.1667 10.6526 87.9367 4.32261 84.9067 7.56261C84.8054 7.67283 84.7422 7.81344 84.726 7.96428C84.7099 8.11513 84.7416 8.26854 84.8167 8.40264C85.3967 9.42264 86.7367 11.5393 88.8367 14.7526C94.7901 23.8659 98.6034 34.3593 100.277 46.2327C104.477 76.0427 87.9867 101.873 63.8967 117.603C59.9067 120.203 54.7867 122.663 50.2067 125.123C49.8973 125.29 49.6663 125.539 49.5567 125.823C49.0367 127.149 49.4067 128.196 50.6667 128.963C49.1001 129.323 47.6901 129.026 46.4367 128.073C46.1501 127.859 45.8601 127.726 45.5667 127.673C41.8067 126.999 38.2467 125.933 34.8867 124.473C71.1767 112.043 99.5667 85.4426 92.3367 43.5926C89.9367 29.7126 84.9501 16.7593 77.3767 4.73265C84.3434 3.73932 90.1901 5.61927 94.9167 10.3726C96.2167 11.6793 99.8434 15.9826 105.797 23.2826C129.667 52.5226 110.277 88.1326 89.4267 111.753C84.0667 117.833 77.5967 122.313 70.0167 125.193C64.6467 127.233 59.2767 130.673 53.3767 129.003Z" fill="#78D1B7"/>
<path d="M53.376 129.002L50.666 128.962C49.406 128.196 49.036 127.149 49.556 125.822C49.6656 125.538 49.8966 125.29 50.206 125.122C54.786 122.662 59.906 120.202 63.896 117.602C87.986 101.872 104.476 76.0422 100.276 46.2322C98.6027 34.3589 94.7893 23.8655 88.836 14.7522C86.736 11.5389 85.396 9.42223 84.816 8.40223C84.7409 8.26813 84.7091 8.11472 84.7253 7.96388C84.7415 7.81303 84.8047 7.67243 84.906 7.5622C87.936 4.3222 94.166 10.6522 95.636 13.0322C101.146 22.0122 104.336 31.9422 106.206 42.7722C111.916 75.9422 92.656 108.052 64.936 124.512C60.9293 126.899 57.076 128.396 53.376 129.002Z" fill="#0B204C"/>
<path d="M19.8363 114.213C18.1363 113.763 15.9463 113.803 15.7063 111.493C26.5563 100.353 43.7163 99.1625 56.0063 89.9225C69.7463 79.5826 75.0863 63.9625 72.5563 47.0125C70.6263 34.0525 65.1063 19.5925 51.0663 15.7725C42.3263 13.3825 33.6763 16.9725 27.4063 23.6025C15.5363 36.1525 13.1963 53.3925 13.7163 70.4925C13.8363 74.4992 11.9496 75.7892 8.05628 74.3625C7.91925 74.3117 7.7999 74.2203 7.71287 74.0995C7.62584 73.9787 7.5749 73.8338 7.56628 73.6825C7.13295 65.5225 7.51961 57.4258 8.72628 49.3925C11.7863 29.0025 26.2663 8.6725 48.6863 9.0025C72.8963 9.3525 80.9163 42.1325 79.0563 60.8225C76.7163 84.3025 61.7363 97.0625 40.7163 105.163C33.6363 107.896 26.6763 110.913 19.8363 114.213Z" fill="#0B204C"/>
<path d="M21.4653 68.1624C19.7987 66.309 19.1653 64.1523 19.5653 61.6923C21.8353 47.8423 26.7954 18.6624 48.1954 25.0424C62.0854 29.1924 66.0654 47.2824 64.0854 59.5124C62.9454 66.5324 55.8953 90.9024 46.4853 90.7824C46.1524 90.7762 45.8396 90.6432 45.6154 90.4124C44.4153 89.1657 44.5587 87.6491 46.0453 85.8624C53.0753 77.4024 58.2554 63.8923 58.1954 53.3723C58.1454 45.7523 54.1253 33.2723 45.4553 31.2523C38.2153 29.5623 32.0853 34.3124 30.3453 41.4024C28.2787 49.8557 26.7453 57.0657 25.7453 63.0324C25.3387 65.4924 24.1753 67.2457 22.2553 68.2924C22.1297 68.3631 21.9833 68.3887 21.8399 68.3651C21.6965 68.3415 21.5645 68.2701 21.4653 68.1624Z" fill="#0B204C"/>
<path d="M12.7363 105.632C8.64967 104.659 7.95967 102.602 10.6663 99.4622C25.6163 89.2922 45.9563 76.5523 44.1463 55.4923C43.9763 53.5223 42.6563 45.4322 40.5363 44.6322C40.4845 44.6116 40.4284 44.6056 40.3733 44.6149C40.3181 44.6241 40.2656 44.6483 40.2208 44.6852C40.1759 44.7221 40.1401 44.7705 40.1166 44.8259C40.0931 44.8814 40.0827 44.942 40.0863 45.0022C40.7863 57.3322 39.2563 69.5523 28.3363 77.1723C24.3963 79.9256 16.993 84.2855 6.12634 90.2522C3.553 89.6855 2.84301 88.2423 3.99634 85.9223C8.12301 82.9156 15.5163 78.0356 26.1763 71.2822C34.3263 66.1222 34.3063 54.4422 33.6963 45.9122C33.0763 37.3622 41.6163 35.1922 46.0763 42.2722C55.9263 57.8722 48.2963 77.4222 35.5463 88.9022C28.8263 94.9556 21.223 100.532 12.7363 105.632Z" fill="#0B204C"/>
<path d="M10.665 99.4624L6.125 90.2524C16.9917 84.2857 24.395 79.9258 28.335 77.1725C39.255 69.5525 40.785 57.3324 40.085 45.0024C40.0813 44.9422 40.0917 44.8816 40.1152 44.8261C40.1387 44.7707 40.1746 44.7223 40.2194 44.6854C40.2643 44.6485 40.3168 44.6243 40.3719 44.6151C40.4271 44.6058 40.4832 44.6118 40.535 44.6324C42.655 45.4324 43.975 53.5225 44.145 55.4925C45.955 76.5525 25.615 89.2924 10.665 99.4624Z" fill="#78D1B7"/>
</svg>
