<svg width="182" height="239" viewBox="0 0 182 239" fill="none" xmlns="http://www.w3.org/2000/svg">
<path d="M83.9434 64.8291H83.5234" stroke="#FFC791" stroke-width="2"/>
<path d="M83.5255 64.8292C79.9655 59.5625 74.8755 53.9759 68.2555 48.0692C59.9755 40.6792 50.0155 38.1092 39.7055 34.9292C37.8322 34.3559 36.2489 34.1492 34.9555 34.3092C34.7507 34.3362 34.5537 34.4055 34.377 34.5127C34.2004 34.6199 34.048 34.7627 33.9295 34.932C33.811 35.1013 33.729 35.2933 33.6887 35.496C33.6485 35.6987 33.6508 35.9075 33.6955 36.1092C35.8089 45.5359 38.5555 54.0159 41.9355 61.5492" stroke="#88868E" stroke-width="2"/>
<path d="M41.9367 61.5489C28.7767 60.8389 15.8667 60.2488 2.63672 60.4388" stroke="#FFC791" stroke-width="2"/>
<path d="M2.63288 60.439C-2.48712 60.659 5.93288 70.479 7.44288 72.369C15.2762 82.149 23.5562 91.529 32.2829 100.509C36.9029 105.259 42.2929 109.039 47.6229 113.029C47.6683 113.063 47.7047 113.108 47.7291 113.159C47.7534 113.211 47.7651 113.267 47.7632 113.325C47.7612 113.382 47.7457 113.439 47.7178 113.49C47.69 113.541 47.6506 113.585 47.6029 113.619C32.7295 123.812 18.6729 135.032 5.43288 147.279C4.87288 147.792 4.11621 148.972 3.16288 150.819C3.13565 150.874 3.12114 150.935 3.12041 150.996C3.11969 151.057 3.13277 151.118 3.15869 151.174C3.18461 151.229 3.2227 151.279 3.27016 151.318C3.31762 151.357 3.37323 151.384 3.43288 151.399C5.57288 151.946 7.51621 152.012 9.26288 151.599" stroke="#8B888F" stroke-width="2"/>
<path d="M9.26562 151.599C15.1323 153.352 21.4556 154.512 28.2356 155.079C41.1156 156.152 53.0123 156.559 63.9256 156.299C64.7323 156.279 66.0023 156.526 67.7356 157.039" stroke="#FFC791" stroke-width="2"/>
<path d="M67.7352 157.039C65.9252 159.509 64.3152 161.389 63.4852 164.479C63.0185 166.186 62.5085 167.879 61.9552 169.559C61.1952 171.859 59.8352 173.009 59.7152 176.349C59.7125 176.422 59.7248 176.496 59.7513 176.564C59.7778 176.633 59.8181 176.695 59.8696 176.748C59.9211 176.8 59.9827 176.841 60.0507 176.869C60.1188 176.897 60.1917 176.91 60.2652 176.909C62.1652 176.902 63.7685 176.676 65.0752 176.229C72.5152 173.682 79.9419 171.086 87.3552 168.439C93.6652 166.189 98.8652 162.749 104.485 159.289" stroke="#88868E" stroke-width="2"/>
<path d="M104.484 159.289C106.251 158.749 107.988 158.762 109.694 159.329" stroke="#F6CBA2" stroke-width="2"/>
<path d="M109.695 159.329C110.315 160.149 111.235 161.179 111.575 162.149C114.945 171.789 119.005 182.799 125.395 191.439C130.442 198.246 136.085 204.513 142.325 210.239C152.585 219.659 163.249 228.606 174.315 237.079C174.575 237.279 174.672 237.219 174.605 236.899C172.105 225.119 169.025 210.649 172.475 198.829C178.425 178.429 182.965 162.639 178.545 144.809C174.312 127.743 166.199 112.859 154.205 100.159" stroke="#AECDC9" stroke-width="2"/>
<path d="M154.203 100.159C154.863 92.6923 154.773 86.6823 153.933 82.129C149.813 59.709 135.283 43.159 118.643 21.659C116.563 18.9723 113.113 13.5723 108.293 5.45898" stroke="#FFC791" stroke-width="2"/>
<path d="M108.295 5.45884C108.295 3.88551 107.949 2.66551 107.255 1.79884C106.335 0.63884 105.585 0.742171 105.005 2.10884C96.332 22.4688 89.312 43.3755 83.9453 64.8288" stroke="#8B888F" stroke-width="2"/>
<path d="M108.294 5.45898C104.474 23.349 101.994 38.909 96.8944 58.909C95.6244 63.889 94.0844 73.509 91.3344 80.599C91.285 80.7253 91.189 80.8279 91.0662 80.8855C90.9434 80.9432 90.8032 80.9516 90.6744 80.909C82.8344 78.3823 80.5911 73.0223 83.9444 64.829" stroke="#8C522D" stroke-width="2"/>
<path d="M154.203 100.159C148.323 97.5191 143.98 95.8458 141.173 95.1391C128.393 91.9458 112.746 88.7491 94.233 85.5491C84.553 83.8824 75.4896 83.5791 67.043 84.6391" stroke="#AE9767" stroke-width="2"/>
<path d="M67.0462 84.6392C66.1062 88.1458 66.3062 90.8325 67.6462 92.6992C69.0995 94.7325 73.9395 100.049 82.1662 108.649C92.6362 119.589 100.586 135.239 105.426 150.089C106.376 153.009 109.696 154.969 106.116 158.269C105.924 158.449 105.612 158.556 105.246 158.569L104.236 158.619" stroke="#F6953F" stroke-width="2"/>
<path d="M104.234 158.619C103.421 158.059 102.754 157.782 102.234 157.789C91.2877 157.809 80.3577 157.389 69.4444 156.529C68.8144 156.479 68.2844 156.799 67.7344 157.039" stroke="#89502C" stroke-width="2"/>
<path d="M9.26672 151.599C27.9267 142.226 46.4334 132.569 64.7867 122.629C67.7467 121.029 70.3067 119.049 72.5167 116.879C73.6967 115.712 73.5601 114.732 72.1067 113.939C63.1601 109.066 54.7434 103.409 46.8567 96.969C32.0501 84.869 17.3101 72.6923 2.63672 60.439" stroke="#8C522D" stroke-width="2"/>
<path d="M41.9336 61.5488C45.8636 61.9088 83.4236 67.2488 83.5236 64.8288" stroke="#89502C" stroke-width="2"/>
<path d="M109.693 159.329C109.9 158.682 109.903 158.019 109.703 157.339C105.263 142.559 99.653 128.579 90.703 115.939C86.083 109.419 79.693 103.289 73.853 97.2092C70.733 93.9692 67.393 89.2092 67.043 84.6392" stroke="#A59B78" stroke-width="2"/>
<path d="M104.484 159.289L104.234 158.619" stroke="#80543D" stroke-width="2"/>
<path d="M110.674 68.7531C110.604 68.6638 110.51 68.5953 110.397 68.5513C110.283 68.5074 110.152 68.4889 110.012 68.4969C109.871 68.505 109.723 68.5394 109.577 68.5982C109.431 68.657 109.289 68.7391 109.159 68.8397C108.897 69.0428 108.701 69.3093 108.615 69.5804C108.528 69.8515 108.558 70.105 108.698 70.2852C108.767 70.3745 108.862 70.4431 108.975 70.487C109.089 70.5309 109.22 70.5494 109.36 70.5414C109.501 70.5333 109.649 70.4989 109.795 70.4401C109.941 70.3813 110.083 70.2993 110.213 70.1987C110.475 69.9955 110.671 69.729 110.757 69.4579C110.843 69.1868 110.813 68.9333 110.674 68.7531Z" stroke="#FC905E" stroke-width="2"/>
<path d="M126.276 143.559C123.436 159.099 150.396 162.599 151.266 148.339C151.706 141.019 147.486 133.539 139.766 132.989C133.796 132.569 127.306 137.909 126.276 143.559Z" stroke="#ABCAC7" stroke-width="2"/>
<path d="M141.905 183.139C145.625 183.792 149.172 183.382 152.545 181.909C156.865 180.029 174.565 169.449 174.065 164.069C173.912 162.389 173.169 162.062 171.835 163.089C163.845 169.229 156.195 175.129 146.645 178.699C144.479 179.512 142.762 180.336 141.495 181.169C139.975 182.169 140.112 182.826 141.905 183.139Z" stroke="#385664" stroke-width="2"/>
<path d="M147.437 148.296C147.478 147.282 147.308 146.269 146.936 145.315C146.564 144.362 145.999 143.486 145.271 142.739C144.544 141.991 143.669 141.386 142.697 140.958C141.724 140.53 140.673 140.288 139.604 140.245C137.444 140.158 135.34 140.889 133.755 142.276C132.17 143.663 131.233 145.593 131.15 147.642C131.11 148.656 131.28 149.669 131.652 150.623C132.023 151.576 132.589 152.452 133.316 153.199C134.044 153.947 134.918 154.552 135.891 154.98C136.863 155.408 137.914 155.65 138.984 155.693C141.143 155.78 143.247 155.049 144.833 153.662C146.418 152.275 147.355 150.345 147.437 148.296Z" stroke="#88858D" stroke-width="2"/>
<path d="M108.294 5.45933C104.474 23.3493 101.994 38.9093 96.8944 58.9093C95.6244 63.8893 94.0844 73.5093 91.3344 80.5993C91.285 80.7256 91.189 80.8282 91.0662 80.8859C90.9434 80.9436 90.8032 80.9519 90.6744 80.9093C82.8344 78.3827 80.5911 73.0227 83.9444 64.8293C89.3111 43.376 96.3311 22.4693 105.004 2.10933C105.584 0.742659 106.334 0.639328 107.254 1.79933C107.948 2.666 108.294 3.886 108.294 5.45933Z" fill="#18132B"/>
<path d="M108.293 5.45898C113.113 13.5723 116.563 18.9723 118.643 21.659C135.283 43.159 149.813 59.709 153.933 82.129C154.773 86.6823 154.863 92.6923 154.203 100.159C148.323 97.519 143.979 95.8456 141.173 95.139C128.393 91.9456 112.746 88.749 94.2328 85.549C84.5528 83.8823 75.4895 83.579 67.0428 84.639C66.1028 88.1456 66.3028 90.8323 67.6428 92.699C69.0961 94.7323 73.9361 100.049 82.1628 108.649C92.6328 119.589 100.583 135.239 105.423 150.089C106.373 153.009 109.693 154.969 106.113 158.269C105.92 158.448 105.608 158.556 105.243 158.569L104.233 158.619C103.419 158.059 102.753 157.782 102.233 157.789C91.2861 157.809 80.3561 157.389 69.4428 156.529C68.8128 156.479 68.2828 156.799 67.7328 157.039C65.9995 156.526 64.7295 156.279 63.9228 156.299C53.0095 156.559 41.1128 156.152 28.2328 155.079C21.4528 154.512 15.1295 153.352 9.26281 151.599C27.9228 142.226 46.4295 132.569 64.7828 122.629C67.7428 121.029 70.3028 119.049 72.5128 116.879C73.6928 115.712 73.5561 114.732 72.1028 113.939C63.1561 109.066 54.7395 103.409 46.8528 96.969C32.0461 84.869 17.3061 72.6923 2.63281 60.439C15.8628 60.249 28.7728 60.839 41.9328 61.549C45.8628 61.909 83.4228 67.249 83.5228 64.829H83.9428C80.5895 73.0223 82.8328 78.3823 90.6728 80.909C90.8016 80.9516 90.9418 80.9432 91.0646 80.8855C91.1874 80.8279 91.2834 80.7253 91.3328 80.599C94.0828 73.509 95.6228 63.889 96.8928 58.909C101.993 38.909 104.473 23.349 108.293 5.45898ZM110.671 68.7529C110.601 68.6636 110.507 68.5951 110.394 68.5511C110.28 68.5072 110.149 68.4887 110.009 68.4968C109.868 68.5048 109.72 68.5392 109.574 68.598C109.427 68.6568 109.285 68.7389 109.156 68.8395C108.894 69.0427 108.698 69.3091 108.612 69.5802C108.525 69.8513 108.555 70.1048 108.695 70.2851C108.764 70.3743 108.858 70.4429 108.972 70.4868C109.086 70.5308 109.216 70.5492 109.357 70.5412C109.498 70.5332 109.645 70.4987 109.792 70.4399C109.938 70.3811 110.08 70.2991 110.21 70.1985C110.472 69.9953 110.668 69.7289 110.754 69.4578C110.84 69.1867 110.81 68.9331 110.671 68.7529Z" fill="#FF912E"/>
<path d="M83.5255 64.8292C83.4255 67.2492 45.8655 61.9092 41.9355 61.5492C38.5555 54.0159 35.8089 45.5359 33.6955 36.1092C33.6508 35.9075 33.6485 35.6987 33.6887 35.496C33.729 35.2933 33.811 35.1013 33.9295 34.932C34.048 34.7627 34.2004 34.6199 34.377 34.5127C34.5537 34.4055 34.7507 34.3362 34.9555 34.3092C36.2489 34.1492 37.8322 34.3559 39.7055 34.9292C50.0155 38.1092 59.9755 40.6792 68.2555 48.0692C74.8755 53.9759 79.9655 59.5625 83.5255 64.8292Z" fill="#120F29"/>
<path d="M2.63288 60.439C17.3062 72.6923 32.0462 84.869 46.8529 96.969C54.7395 103.409 63.1562 109.066 72.1029 113.939C73.5562 114.732 73.6929 115.712 72.5129 116.879C70.3029 119.049 67.7429 121.029 64.7829 122.629C46.4295 132.569 27.9229 142.226 9.26288 151.599C7.51621 152.012 5.57288 151.946 3.43288 151.399C3.37323 151.384 3.31762 151.357 3.27016 151.318C3.2227 151.279 3.18461 151.229 3.15869 151.174C3.13277 151.118 3.11969 151.057 3.12041 150.996C3.12114 150.935 3.13565 150.874 3.16288 150.819C4.11621 148.972 4.87288 147.792 5.43288 147.279C18.6729 135.032 32.7295 123.812 47.6029 113.619C47.6506 113.585 47.69 113.541 47.7178 113.49C47.7457 113.439 47.7612 113.382 47.7632 113.325C47.7651 113.267 47.7534 113.211 47.7291 113.159C47.7047 113.108 47.6683 113.063 47.6229 113.029C42.2929 109.039 36.9029 105.259 32.2829 100.509C23.5562 91.529 15.2762 82.149 7.44288 72.369C5.93288 70.479 -2.48712 60.659 2.63288 60.439Z" fill="#18132B"/>
<path d="M110.21 70.1984C110.755 69.7753 110.962 69.128 110.67 68.7527C110.379 68.3774 109.701 68.4162 109.156 68.8393C108.61 69.2625 108.404 69.9097 108.695 70.285C108.986 70.6603 109.664 70.6215 110.21 70.1984Z" fill="#F88E8D"/>
<path d="M154.203 100.159C166.196 112.859 174.31 127.742 178.543 144.809C182.963 162.639 178.423 178.429 172.473 198.829C169.023 210.649 172.103 225.119 174.603 236.899C174.67 237.219 174.573 237.279 174.313 237.079C163.246 228.606 152.583 219.659 142.323 210.239C136.083 204.512 130.44 198.246 125.393 191.439C119.003 182.799 114.943 171.789 111.573 162.149C111.233 161.179 110.313 160.149 109.693 159.329C109.9 158.682 109.903 158.019 109.703 157.339C105.263 142.559 99.653 128.579 90.703 115.939C86.083 109.419 79.693 103.289 73.853 97.2091C70.733 93.9691 67.393 89.2091 67.043 84.6391C75.4896 83.5791 84.553 83.8824 94.233 85.5491C112.746 88.7491 128.393 91.9458 141.173 95.1391C143.98 95.8458 148.323 97.5191 154.203 100.159ZM126.273 143.559C123.433 159.099 150.393 162.599 151.263 148.339C151.703 141.019 147.483 133.539 139.763 132.989C133.793 132.569 127.303 137.909 126.273 143.559ZM141.903 183.139C145.623 183.792 149.17 183.382 152.543 181.909C156.863 180.029 174.563 169.449 174.063 164.069C173.91 162.389 173.166 162.062 171.833 163.089C163.843 169.229 156.193 175.129 146.643 178.699C144.476 179.512 142.76 180.336 141.493 181.169C139.973 182.169 140.11 182.826 141.903 183.139Z" fill="#5D9D9F"/>
<path d="M67.0462 84.6392C67.3962 89.2092 70.7362 93.9692 73.8562 97.2092C79.6962 103.289 86.0862 109.419 90.7062 115.939C99.6562 128.579 105.266 142.559 109.706 157.339C109.906 158.019 109.903 158.682 109.696 159.329C107.99 158.762 106.253 158.749 104.486 159.289L104.236 158.619L105.246 158.569C105.612 158.556 105.924 158.449 106.116 158.269C109.696 154.969 106.376 153.009 105.426 150.089C100.586 135.239 92.6362 119.589 82.1662 108.649C73.9395 100.049 69.0995 94.7325 67.6462 92.6992C66.3062 90.8325 66.1062 88.1458 67.0462 84.6392Z" fill="#ED9950"/>
<path d="M151.266 148.339C150.396 162.599 123.436 159.099 126.276 143.559C127.306 137.909 133.796 132.569 139.766 132.989C147.486 133.539 151.706 141.019 151.266 148.339ZM147.439 148.296C147.48 147.282 147.31 146.269 146.938 145.315C146.567 144.362 146.001 143.486 145.274 142.739C144.546 141.991 143.671 141.386 142.699 140.958C141.726 140.531 140.676 140.288 139.606 140.245C137.446 140.159 135.342 140.889 133.757 142.276C132.172 143.663 131.235 145.593 131.152 147.642C131.112 148.656 131.282 149.669 131.654 150.623C132.025 151.576 132.591 152.452 133.318 153.199C134.046 153.947 134.921 154.552 135.893 154.98C136.865 155.408 137.916 155.65 138.986 155.693C141.145 155.78 143.249 155.049 144.835 153.662C146.42 152.275 147.357 150.345 147.439 148.296Z" fill="#F8F7EF"/>
<path d="M138.984 155.693C143.481 155.874 147.266 152.562 147.438 148.296C147.609 144.031 144.102 140.426 139.604 140.246C135.107 140.065 131.322 143.377 131.151 147.642C130.979 151.908 134.486 155.512 138.984 155.693Z" fill="#18132B"/>
<path d="M104.235 158.619L104.485 159.289C98.8652 162.749 93.6652 166.189 87.3552 168.439C79.9419 171.086 72.5152 173.682 65.0752 176.229C63.7685 176.676 62.1652 176.902 60.2652 176.909C60.1917 176.911 60.1188 176.897 60.0507 176.869C59.9827 176.841 59.9211 176.8 59.8696 176.748C59.8181 176.695 59.7778 176.633 59.7513 176.564C59.7248 176.496 59.7125 176.423 59.7152 176.349C59.8352 173.009 61.1952 171.859 61.9552 169.559C62.5085 167.879 63.0185 166.186 63.4852 164.479C64.3152 161.389 65.9252 159.509 67.7352 157.039C68.2852 156.799 68.8152 156.479 69.4452 156.529C80.3585 157.389 91.2885 157.809 102.235 157.789C102.755 157.782 103.422 158.059 104.235 158.619Z" fill="#120F29"/>
<path d="M141.905 183.139C140.112 182.826 139.975 182.169 141.495 181.169C142.762 180.336 144.479 179.512 146.645 178.699C156.195 175.129 163.845 169.229 171.835 163.089C173.169 162.062 173.912 162.389 174.065 164.069C174.565 169.449 156.865 180.029 152.545 181.909C149.172 183.382 145.625 183.792 141.905 183.139Z" fill="#120F29"/>
</svg>
