<svg width="145" height="213" viewBox="0 0 145 213" fill="none" xmlns="http://www.w3.org/2000/svg">
<path d="M62.8502 21.0137L60.9102 25.5637" stroke="#FCE89B" stroke-width="2"/>
<path d="M60.9099 25.5625L57.5898 31.5225" stroke="#9194A4" stroke-width="2"/>
<path d="M57.5897 31.5234C49.9297 44.4234 42.8764 57.6434 36.4297 71.1834" stroke="#FEE2A1" stroke-width="2"/>
<path d="M39.1016 197.713C44.7416 201.973 50.7149 205.576 57.0215 208.523C72.9415 215.973 92.3116 208.533 103.812 196.803" stroke="#FDE4A4" stroke-width="2"/>
<path d="M103.812 196.803C108.472 192.969 112.736 188.733 116.602 184.093" stroke="#8F92A1" stroke-width="2"/>
<path d="M109.602 73.5126C103.602 59.5059 96.8454 45.8826 89.332 32.6426" stroke="#FEE2A1" stroke-width="2"/>
<path d="M89.3303 32.6437L85.3203 25.7637" stroke="#9194A4" stroke-width="2"/>
<path d="M85.3221 25.7631C85.6688 23.5698 85.2255 21.9531 83.9922 20.9131" stroke="#FCE89B" stroke-width="2"/>
<path d="M83.9916 20.9126L75.5516 2.38261C74.7182 0.555942 73.8216 0.539288 72.8616 2.33262L62.8516 21.0126" stroke="#9390A2" stroke-width="2"/>
<path d="M83.9916 20.9131C76.8849 22.0464 69.8382 22.0798 62.8516 21.0131" stroke="#927C4E" stroke-width="2"/>
<path d="M85.3201 25.7625C77.1935 26.8291 69.0568 26.7625 60.9102 25.5625" stroke="#908050" stroke-width="2"/>
<path d="M89.3298 32.6434C78.5032 33.6101 67.9232 33.2368 57.5898 31.5234" stroke="#927B57" stroke-width="2"/>
<path d="M109.6 73.5136C104.58 73.4536 99.1797 72.8236 94.5897 72.7436C75.323 72.4436 55.9364 71.9236 36.4297 71.1836" stroke="#927B57" stroke-width="2"/>
<path d="M112.172 78.7734C85.3249 80.0668 58.4682 80.6468 31.6016 80.5134" stroke="#8F7859" stroke-width="2"/>
<path d="M114.81 83.5527C86.1204 84.5127 57.2603 85.8727 28.8203 85.8127" stroke="#8F7859" stroke-width="2"/>
<path d="M119.141 91.4833C98.7346 93.97 78.3279 94.8767 57.9213 94.2033C47.0813 93.8433 36.2846 92.9234 25.5312 91.4434" stroke="#927B57" stroke-width="2"/>
<path d="M134.849 124.923C102.809 125.403 75.6292 124.343 35.1693 122.963C22.7293 122.537 14.4059 122.35 10.1992 122.403" stroke="#8F7A58" stroke-width="2"/>
<path d="M138.411 132.123C114.198 133.49 90.0012 133.383 65.8212 131.803C46.2212 130.523 26.8113 130.233 7.28125 129.623" stroke="#8B7C5D" stroke-width="2"/>
<path d="M140.101 136.013C116.861 137.399 98.6306 137.736 85.4106 137.023C52.7506 135.253 31.7606 135.343 4.89062 134.553" stroke="#8C7B59" stroke-width="2"/>
<path d="M143.151 142.193C126.724 141.773 105.478 141.52 79.4111 141.433C59.3011 141.363 40.9311 142.193 21.6511 142.643C15.0577 142.796 8.46443 143.05 1.87109 143.403" stroke="#8F7954" stroke-width="2"/>
<path d="M118.101 180.013C120.134 179.353 120.458 178.526 119.071 177.533C118.825 177.358 118.504 177.273 118.161 177.293C91.2911 178.733 64.0711 178.203 37.1611 178.353C31.5011 178.386 25.9044 179.009 20.3711 180.223" stroke="#8E794F" stroke-width="2"/>
<path d="M118.102 180.014C101.888 181.787 85.6349 182.957 69.3416 183.524C55.6116 184.014 39.3716 183.404 24.3516 183.844" stroke="#8C7C58" stroke-width="2"/>
<path d="M116.601 184.093C112.668 185.459 108.168 186.276 103.101 186.543C87.5313 187.343 73.1413 187.543 58.6813 188.043C48.6479 188.396 38.5979 188.463 28.5312 188.243" stroke="#8E7C5D" stroke-width="2"/>
<path d="M103.812 196.802C82.1416 196.512 60.6216 195.592 39.1016 197.712" stroke="#8F7B57" stroke-width="2"/>
<path d="M69.1197 17.3627C69.3397 20.0327 78.4297 18.5127 79.4497 18.2627C79.5197 18.2459 79.5861 18.216 79.6442 18.1753C79.7022 18.1345 79.7503 18.0839 79.7848 18.0272C79.8194 17.9706 79.8396 17.9093 79.8439 17.8479C79.8482 17.7865 79.8366 17.7266 79.8097 17.6727L74.3397 7.05269C74.0264 6.43936 73.6864 6.48269 73.3197 7.18269C71.9197 9.89269 71.4997 14.5927 69.5197 16.5227C69.3841 16.6521 69.277 16.7958 69.2074 16.9419C69.1378 17.088 69.1078 17.2323 69.1197 17.3627Z" stroke="#303263" stroke-width="2"/>
<path d="M83.9916 20.9126C76.8849 22.0459 69.8382 22.0793 62.8516 21.0126L72.8616 2.33262C73.8216 0.539288 74.7182 0.555942 75.5516 2.38261L83.9916 20.9126ZM69.1216 17.3626C69.3416 20.0326 78.4315 18.5126 79.4515 18.2626C79.5215 18.2458 79.588 18.216 79.646 18.1752C79.704 18.1345 79.7521 18.0839 79.7867 18.0272C79.8213 17.9705 79.8415 17.9092 79.8458 17.8478C79.8501 17.7864 79.8384 17.7265 79.8116 17.6726L74.3416 7.05262C74.0282 6.43929 73.6882 6.48263 73.3215 7.18263C71.9215 9.89263 71.5015 14.5926 69.5215 16.5226C69.3859 16.652 69.2788 16.7957 69.2092 16.9418C69.1397 17.0879 69.1096 17.2322 69.1216 17.3626Z" fill="#282455"/>
<path d="M79.4497 18.2627C78.4297 18.5127 69.3397 20.0327 69.1197 17.3627C69.1078 17.2323 69.1378 17.088 69.2074 16.9419C69.277 16.7958 69.3841 16.6521 69.5197 16.5227C71.4997 14.5927 71.9197 9.89269 73.3197 7.18269C73.6864 6.48269 74.0264 6.43936 74.3397 7.05269L79.8097 17.6727C79.8366 17.7266 79.8482 17.7865 79.8439 17.8479C79.8396 17.9093 79.8194 17.9706 79.7848 18.0272C79.7503 18.0839 79.7022 18.1345 79.6442 18.1753C79.5861 18.216 79.5197 18.2459 79.4497 18.2627Z" fill="#374070"/>
<path d="M83.9902 20.9121C85.2235 21.9521 85.6668 23.5688 85.3201 25.7621C77.1935 26.8288 69.0568 26.7621 60.9102 25.5621L62.8502 21.0121C69.8368 22.0788 76.8835 22.0454 83.9902 20.9121Z" fill="#FBD447"/>
<path d="M85.3198 25.7625L89.3298 32.6425C78.5032 33.6092 67.9232 33.2358 57.5898 31.5225L60.9099 25.5625C69.0565 26.7625 77.1932 26.8291 85.3198 25.7625Z" fill="#252C59"/>
<path d="M57.5897 31.5234C67.923 33.2368 78.503 33.6101 89.3297 32.6434C96.843 45.8834 103.6 59.5068 109.6 73.5134C104.58 73.4534 99.1797 72.8234 94.5897 72.7434C75.323 72.4434 55.9364 71.9234 36.4297 71.1834C42.8764 57.6434 49.9297 44.4234 57.5897 31.5234Z" fill="#FEC954"/>
<path d="M36.4316 71.1826C55.9382 71.9226 75.3249 72.4426 94.5916 72.7426C99.1815 72.8226 104.582 73.4526 109.602 73.5126C110.628 74.7726 111.485 76.5259 112.172 78.7726C85.3249 80.0659 58.4682 80.6459 31.6016 80.5126L36.4316 71.1826Z" fill="#252C59"/>
<path d="M112.17 78.7734C113.644 79.6468 114.524 81.2401 114.81 83.5534C86.1204 84.5134 57.2603 85.8734 28.8203 85.8134C29.1936 83.9268 30.1203 82.1601 31.6003 80.5134C58.467 80.6468 85.3237 80.0668 112.17 78.7734Z" fill="#F9C459"/>
<path d="M114.811 83.5527L119.141 91.4827C98.7346 93.9694 78.3279 94.8761 57.9213 94.2027C47.0813 93.8427 36.2846 92.9227 25.5312 91.4427L28.8212 85.8127C57.2612 85.8727 86.1213 84.5127 114.811 83.5527Z" fill="#252C59"/>
<path d="M25.5331 91.4434C36.2865 92.9234 47.0832 93.8433 57.9232 94.2033C78.3298 94.8767 98.7365 93.97 119.143 91.4833C125.303 102.217 130.54 113.363 134.853 124.923C102.813 125.403 75.6332 124.343 35.1732 122.963C22.7332 122.537 14.4098 122.35 10.2031 122.403C14.3031 111.617 19.4131 101.297 25.5331 91.4434Z" fill="#FEC954"/>
<path d="M134.851 124.923C136.191 126.683 137.378 129.083 138.411 132.123C114.198 133.49 90.0012 133.383 65.8212 131.803C46.2212 130.523 26.8113 130.233 7.28125 129.623L10.2012 122.403C14.4079 122.35 22.7313 122.537 35.1713 122.963C75.6313 124.343 102.811 125.403 134.851 124.923Z" fill="#1F2A5B"/>
<path d="M7.28064 129.623C26.8106 130.233 46.2206 130.523 65.8206 131.803C90.0006 133.383 114.197 133.49 138.411 132.123C139.257 132.83 139.821 134.126 140.101 136.013C116.861 137.4 98.6306 137.736 85.4106 137.023C52.7506 135.253 31.7606 135.343 4.89062 134.553C5.09063 132.353 5.88731 130.71 7.28064 129.623Z" fill="#F7CD5F"/>
<path d="M4.89105 134.553C31.7611 135.343 52.7511 135.253 85.4111 137.023C98.6311 137.736 116.861 137.399 140.101 136.013C141.454 137.999 142.471 140.059 143.151 142.193C126.724 141.773 105.478 141.519 79.4111 141.433C59.3011 141.363 40.9311 142.193 21.6511 142.643C15.0577 142.796 8.46443 143.049 1.87109 143.403L4.89105 134.553Z" fill="#202953"/>
<path d="M143.152 142.193C145.145 144.166 145.398 146.306 143.912 148.613C136.912 159.446 129.192 169.733 120.752 179.473C120.485 179.78 120.185 180.07 119.852 180.343L118.102 180.013C120.135 179.353 120.458 178.526 119.072 177.533C118.826 177.358 118.505 177.274 118.162 177.293C91.2918 178.733 64.0718 178.203 37.1618 178.353C31.5018 178.386 25.9052 179.01 20.3718 180.223C11.9518 173.483 6.0118 160.843 0.901803 151.373C-0.738197 148.333 0.0218343 145.983 1.87183 143.403C8.46517 143.05 15.0585 142.796 21.6518 142.643C40.9318 142.193 59.3018 141.363 79.4118 141.433C105.478 141.52 126.725 141.773 143.152 142.193Z" fill="#FEC954"/>
<path d="M118.101 180.013C101.888 181.786 85.6344 182.956 69.3411 183.523C55.6111 184.013 39.3711 183.403 24.3511 183.843C22.7177 183.303 21.3911 182.096 20.3711 180.223C25.9044 179.009 31.5011 178.386 37.1611 178.353C64.0711 178.203 91.2911 178.733 118.161 177.293C118.504 177.273 118.825 177.358 119.071 177.533C120.458 178.526 120.134 179.353 118.101 180.013Z" fill="#1D2849"/>
<path d="M118.102 180.013L119.852 180.343C119.072 181.869 117.988 183.119 116.602 184.093C112.668 185.459 108.168 186.276 103.102 186.543C87.5316 187.343 73.1416 187.543 58.6816 188.043C48.6482 188.396 38.5982 188.463 28.5316 188.243C26.4849 187.809 25.0916 186.343 24.3516 183.843C39.3716 183.403 55.6116 184.013 69.3416 183.523C85.6349 182.956 101.888 181.786 118.102 180.013Z" fill="#FBCF66"/>
<path d="M116.601 184.093C112.735 188.733 108.471 192.969 103.811 196.803C82.1413 196.513 60.6213 195.593 39.1013 197.713C35.8013 195.213 30.3613 192.003 28.5312 188.243C38.5979 188.463 48.6479 188.396 58.6813 188.043C73.1413 187.543 87.5313 187.343 103.101 186.543C108.168 186.276 112.668 185.459 116.601 184.093Z" fill="#202953"/>
<path d="M103.812 196.802C92.3116 208.532 72.9415 215.972 57.0215 208.522C50.7149 205.576 44.7416 201.972 39.1016 197.712C60.6216 195.592 82.1416 196.512 103.812 196.802Z" fill="#FDCD5A"/>
</svg>
