<svg width="50" height="82" viewBox="0 0 50 82" fill="none" xmlns="http://www.w3.org/2000/svg">
<path d="M6.11913 77.9336C16.8856 80.2736 38.2274 82.2535 47.1642 74.3835C47.5179 74.0751 47.7913 73.6857 47.9611 73.2487C48.1309 72.8116 48.192 72.3398 48.1393 71.8736C45.8272 50.4936 44.2792 29.6536 45.9781 8.03355C46.092 6.60688 45.5089 5.56022 44.2289 4.89355C41.9369 3.70688 39.2695 2.89688 36.2269 2.46354C27.1091 1.14354 17.7098 -0.226451 8.46136 2.92355C2.7816 4.86355 1.03252 9.52354 1.01241 15.1835C0.945393 38.6235 1.14978 57.5569 1.62561 71.9835C1.74624 75.6335 2.28906 77.1036 6.11913 77.9336Z" stroke="#D9EBE1" stroke-width="2"/>
<path d="M33.1813 18.4333C27.2569 17.7333 21.3761 16.8033 15.5388 15.6433C14.3928 15.41 13.793 15.67 13.7393 16.4233C13.7306 16.5609 13.776 16.7007 13.8686 16.8217C13.9611 16.9426 14.0957 17.038 14.252 17.0933C20.3038 19.2266 26.4928 19.9133 32.8193 19.1533C33.0103 19.1233 34.1162 18.5433 33.1813 18.4333Z" stroke="#87BAB2" stroke-width="2"/>
<path d="M34.3995 26.4132C27.252 26.5332 20.2051 26.1232 13.1984 24.6732C13.0549 24.6444 12.9072 24.6656 12.7857 24.7326C12.6642 24.7995 12.578 24.9071 12.5449 25.0332C11.027 30.7832 36.8322 28.9932 35.264 26.7532C35.1875 26.6458 35.0681 26.5583 34.9168 26.4989C34.7656 26.4394 34.5876 26.4099 34.3995 26.4132Z" stroke="#87BAB2" stroke-width="2"/>
<path d="M34.8209 37.4732C28.4073 38.1432 20.0033 36.5132 13.4992 35.6932C13.2334 35.6626 12.9802 35.6609 12.7837 35.6883C12.5871 35.7157 12.4597 35.7705 12.4236 35.8432C12.236 36.2632 12.1823 36.7099 12.2627 37.1832C12.2807 37.2926 12.36 37.407 12.4906 37.5121C12.6213 37.6171 12.7973 37.708 12.9966 37.7732C17.5672 39.2932 22.2618 40.1065 27.0804 40.2132C28.5481 40.2532 35.1728 39.5632 35.3638 37.9232C35.3698 37.8616 35.3597 37.7997 35.3344 37.7419C35.309 37.6841 35.269 37.6318 35.2172 37.5888C35.1653 37.5458 35.1029 37.5132 35.0344 37.4932C34.966 37.4732 34.893 37.4664 34.8209 37.4732Z" stroke="#8EC1B7" stroke-width="2"/>
<path d="M33.3534 46.0833C26.5678 47.2733 20.7976 46.4533 12.9967 45.4233C12.8464 45.4042 12.6955 45.4325 12.5693 45.5035C12.4431 45.5744 12.3492 45.6838 12.3031 45.8133C10.7148 50.5333 30.1366 48.7333 32.9313 48.1633C33.3105 48.089 33.6663 47.9249 33.9689 47.6848C34.2716 47.4446 34.5121 47.1355 34.6704 46.7833C34.9787 46.11 34.5396 45.8766 33.3534 46.0833Z" stroke="#8EC1B7" stroke-width="2"/>
<path d="M35.938 56.2333C28.8207 56.1667 21.6967 55.9967 14.5659 55.7234C13.2691 55.6734 9.5094 53.6433 12.0125 57.3133C12.0986 57.443 12.2115 57.5541 12.3446 57.6401C12.4776 57.726 12.6281 57.785 12.7866 57.8133C16.9082 58.5733 33.3142 60.8334 36.1893 56.6634C36.3836 56.3767 36.2999 56.2333 35.938 56.2333Z" stroke="#8EC1B7" stroke-width="2"/>
<path d="M6.11913 77.9331C2.28906 77.1031 1.74624 75.6331 1.62561 71.9831C1.14978 57.5564 0.945393 38.6231 1.01241 15.1831C1.03252 9.52306 2.7816 4.86306 8.46136 2.92306C17.7098 -0.226939 27.1091 1.14305 36.2269 2.46305C39.2695 2.89639 41.9369 3.7064 44.2289 4.89306C45.5089 5.55973 46.092 6.60639 45.9781 8.03306C44.2792 29.6531 45.8272 50.4931 48.1393 71.8731C48.192 72.3394 48.1309 72.8111 47.9611 73.2482C47.7913 73.6853 47.5179 74.0746 47.1642 74.383C38.2274 82.2531 16.8856 80.2731 6.11913 77.9331ZM33.181 18.4331C27.2566 17.7331 21.3758 16.8031 15.5385 15.6431C14.3925 15.4097 13.7926 15.6697 13.739 16.4231C13.7303 16.5606 13.7757 16.7005 13.8682 16.8214C13.9608 16.9423 14.0954 17.0377 14.2517 17.0931C20.3034 19.2264 26.4925 19.9131 32.819 19.1531C33.01 19.1231 34.1159 18.5431 33.181 18.4331ZM34.3973 26.4131C27.2499 26.5331 20.203 26.1231 13.1963 24.6731C13.0528 24.6443 12.9051 24.6655 12.7836 24.7324C12.6621 24.7994 12.5759 24.907 12.5428 25.0331C11.0249 30.7831 36.8301 28.9931 35.2619 26.7531C35.1854 26.6457 35.0659 26.5582 34.9147 26.4987C34.7635 26.4393 34.5855 26.4098 34.3973 26.4131ZM34.8195 37.4731C28.4059 38.1431 20.0019 36.5131 13.4978 35.6931C13.232 35.6625 12.9788 35.6608 12.7822 35.6882C12.5857 35.7156 12.4582 35.7704 12.4222 35.8431C12.2345 36.2631 12.1809 36.7097 12.2613 37.1831C12.2792 37.2924 12.3586 37.4069 12.4892 37.5119C12.6198 37.617 12.7959 37.7078 12.9951 37.7731C17.5658 39.2931 22.2604 40.1064 27.079 40.2131C28.5467 40.2531 35.1714 39.5631 35.3624 37.9231C35.3683 37.8614 35.3583 37.7995 35.3329 37.7417C35.3076 37.6839 35.2676 37.6316 35.2157 37.5887C35.1639 37.5457 35.1015 37.513 35.033 37.4931C34.9645 37.4731 34.8916 37.4662 34.8195 37.4731ZM33.3518 46.0831C26.5663 47.2731 20.796 46.4531 12.9951 45.4231C12.8448 45.404 12.6939 45.4323 12.5677 45.5032C12.4415 45.5742 12.3476 45.6836 12.3016 45.8131C10.7132 50.5331 30.135 48.7331 32.9297 48.1631C33.3089 48.0888 33.6647 47.9247 33.9674 47.6846C34.27 47.4444 34.5106 47.1352 34.6688 46.7831C34.9771 46.1097 34.538 45.8764 33.3518 46.0831ZM35.9354 56.2331C28.8181 56.1664 21.6941 55.9964 14.5634 55.7231C13.2666 55.6731 9.50687 53.6431 12.01 57.3131C12.0961 57.4427 12.209 57.5538 12.3421 57.6398C12.4751 57.7257 12.6255 57.7847 12.7841 57.8131C16.9057 58.5731 33.3117 60.8331 36.1868 56.6631C36.3811 56.3764 36.2973 56.2331 35.9354 56.2331Z" fill="#B3DED1"/>
<path d="M33.5833 18.4333C34.5133 18.5433 33.4132 19.1233 33.2232 19.1533C26.9299 19.9133 20.7733 19.2266 14.7533 17.0933C14.5977 17.038 14.4638 16.9426 14.3718 16.8217C14.2797 16.7007 14.2345 16.5609 14.2432 16.4233C14.2966 15.67 14.8933 15.41 16.0333 15.6433C21.84 16.8033 27.69 17.7333 33.5833 18.4333Z" fill="#5B9693"/>
<path d="M13.7024 24.6732C20.6724 26.1232 27.6824 26.5332 34.7924 26.4132C34.9796 26.4099 35.1566 26.4394 35.3071 26.4989C35.4575 26.5583 35.5763 26.6458 35.6524 26.7532C37.2124 28.9932 11.5424 30.7832 13.0524 25.0332C13.0853 24.9071 13.171 24.7995 13.2919 24.7326C13.4128 24.6656 13.5597 24.6444 13.7024 24.6732Z" fill="#5B9693"/>
<path d="M14.0043 35.6932C20.4743 36.5132 28.8342 38.1432 35.2142 37.4732C35.2859 37.4664 35.3585 37.4732 35.4266 37.4932C35.4947 37.5132 35.5568 37.5458 35.6084 37.5888C35.66 37.6318 35.6997 37.6841 35.725 37.7419C35.7502 37.7997 35.7602 37.8616 35.7543 37.9232C35.5643 39.5632 28.9743 40.2532 27.5143 40.2132C22.7209 40.1065 18.0509 39.2932 13.5043 37.7732C13.306 37.708 13.1309 37.6171 13.001 37.5121C12.871 37.407 12.7921 37.2926 12.7743 37.1832C12.6943 36.7099 12.7476 36.2632 12.9343 35.8432C12.9702 35.7705 13.0969 35.7157 13.2925 35.6883C13.488 35.6609 13.7399 35.6626 14.0043 35.6932Z" fill="#69A39C"/>
<path d="M13.5043 45.4233C21.2643 46.4533 27.0043 47.2733 33.7543 46.0833C34.9343 45.8766 35.371 46.11 35.0644 46.7833C34.907 47.1355 34.6677 47.4446 34.3666 47.6848C34.0656 47.9249 33.7116 48.089 33.3344 48.1633C30.5544 48.7333 11.2344 50.5333 12.8144 45.8133C12.8602 45.6838 12.9536 45.5744 13.0791 45.5035C13.2047 45.4325 13.3548 45.4042 13.5043 45.4233Z" fill="#69A39C"/>
<path d="M36.5738 56.6634C33.7138 60.8334 17.3938 58.5733 13.2938 57.8133C13.1361 57.785 12.9864 57.726 12.8541 57.6401C12.7217 57.5541 12.6094 57.443 12.5237 57.3133C10.0337 53.6433 13.7738 55.6734 15.0638 55.7234C22.1571 55.9967 29.2438 56.1667 36.3238 56.2333C36.6838 56.2333 36.7671 56.3767 36.5738 56.6634Z" fill="#69A39C"/>
</svg>
