<svg width="68" height="144" viewBox="0 0 68 144" fill="none" xmlns="http://www.w3.org/2000/svg">
<path d="M24.5869 14.609C26.6795 12.7971 22.3427 6.524 21.4509 4.78068C20.7044 3.31488 20.0516 3.33219 19.4924 4.83262L14.3971 18.6465C14.3662 18.7307 14.3539 18.821 14.361 18.9099C14.3681 18.9988 14.3946 19.0838 14.4382 19.158C14.4818 19.2322 14.5414 19.2934 14.6119 19.3367C14.6825 19.38 14.7622 19.4041 14.8444 19.4071C18.7472 19.567 22.5681 19.203 26.3072 18.3151C26.7273 18.2163 27.0981 17.9846 27.3435 17.6674C27.5889 17.3502 27.6903 16.9716 27.6269 16.6093C27.3189 14.8337 26.3829 14.2212 24.8188 14.7716C24.3366 14.9457 24.2593 14.8915 24.5869 14.609Z" stroke="#8E8FA1" stroke-width="2"/>
<path d="M9.17415 67.6049L20.4449 66.184C22.409 65.9332 22.9133 64.9367 21.9578 63.1946L15.2439 50.8484C15.0019 50.4149 14.8002 50.4132 14.6386 50.843C12.7348 55.9031 10.5099 60.8116 7.96377 65.5686C7.13079 67.1367 7.53426 67.8154 9.17415 67.6049Z" stroke="#8E8FA1" stroke-width="2"/>
<path d="M46.8857 91.224C51.5312 91.1438 56.097 90.5025 60.5829 89.3001C60.7009 89.2676 60.807 89.2039 60.8927 89.1141C60.9784 89.0243 61.0413 88.911 61.0764 88.7832C61.1115 88.6554 61.1177 88.5166 61.0946 88.3781C61.0716 88.2396 61.0198 88.1051 60.9436 87.9856L55.1453 78.7099C55.0621 78.58 54.9447 78.4779 54.8038 78.4132C54.6629 78.3484 54.5032 78.323 54.3394 78.3394C54.1756 78.3557 54.0131 78.4132 53.8669 78.5066C53.7207 78.6 53.5955 78.7263 53.503 78.8737L46.3296 90.0739C45.8287 90.8549 46.0141 91.2383 46.8857 91.224Z" stroke="#8B8D9D" stroke-width="2"/>
<path d="M49.4663 124.147L44.1496 139.016C44.1152 139.116 44.1032 139.222 44.1145 139.327C44.1258 139.431 44.1602 139.529 44.2146 139.613C44.269 139.698 44.3416 139.765 44.426 139.808C44.5105 139.852 44.604 139.872 44.6984 139.865C49.2855 139.53 53.7225 138.529 58.0095 136.861C58.0773 136.834 58.1397 136.795 58.1922 136.747C58.2448 136.698 58.2861 136.642 58.3133 136.58C58.3404 136.519 58.3526 136.455 58.3491 136.393C58.3455 136.331 58.3263 136.272 58.2928 136.221L50.6597 123.938C50.1831 123.185 49.7853 123.254 49.4663 124.147Z" stroke="#9091A3" stroke-width="2"/>
<path d="M18.5955 14.4168C18.4057 14.4237 18.2266 14.4687 18.0926 14.543C17.9586 14.6174 17.8791 14.7158 17.8696 14.8194C17.8529 15.0633 17.9474 15.2833 18.1532 15.4795C18.2473 15.5692 18.3693 15.6315 18.5071 15.6603C18.6449 15.6891 18.7939 15.6833 18.9394 15.6437L20.8685 15.1118C21.3879 14.9666 21.4546 14.8004 21.0686 14.6133C20.6892 14.4253 19.8648 14.3598 18.5955 14.4168Z" stroke="#606386" stroke-width="2"/>
<path d="M15.939 63.7408C16.6834 63.5677 17.4845 63.7704 18.3082 63.5874C18.3769 63.5711 18.4417 63.5416 18.4987 63.5005C18.5556 63.4594 18.6036 63.4077 18.6396 63.3486C18.6756 63.2894 18.699 63.224 18.7082 63.1564C18.7174 63.0887 18.7122 63.0203 18.6931 62.9551C18.0225 60.7208 15.2152 64.7276 15.0339 61.4852C15.0176 61.2454 15.0972 60.913 15.2728 60.4881C15.5884 59.7301 15.629 58.9491 15.3948 58.1452C15.2207 57.5555 14.9896 57.507 14.7015 57.9996C13.8662 59.3865 13.7585 60.8174 14.3785 62.2922C14.4275 62.4005 14.4241 62.5405 14.3687 62.6922C14.3133 62.8439 14.2088 62.9995 14.0702 63.1366C13.1923 64.0183 13.8152 64.2197 15.939 63.7408Z" stroke="#2F345E" stroke-width="2"/>
<path d="M53.4225 85.4335C46.1804 90.1628 59.3809 85.7007 54.3293 85.1898C54.026 85.1622 53.706 85.2482 53.4225 85.4335Z" stroke="#343A60" stroke-width="2"/>
<path d="M53.2407 134.491C52.3709 131.465 46.9188 137.786 52.8929 135.179C53.0265 135.12 53.1351 135.017 53.199 134.891C53.2628 134.765 53.2776 134.623 53.2407 134.491Z" stroke="#464B71" stroke-width="2"/>
<path d="M24.8188 14.7716C26.3829 14.2212 27.3189 14.8337 27.6269 16.6093C27.6903 16.9716 27.5889 17.3502 27.3435 17.6674C27.0981 17.9846 26.7273 18.2163 26.3072 18.3151C22.5681 19.203 18.7472 19.567 14.8444 19.4071C14.7622 19.4041 14.6825 19.38 14.6119 19.3367C14.5414 19.2934 14.4818 19.2322 14.4382 19.158C14.3946 19.0838 14.3681 18.9988 14.361 18.9099C14.3539 18.821 14.3662 18.7307 14.3971 18.6465L19.4924 4.83262C20.0516 3.33219 20.7044 3.31488 21.4509 4.78068C22.3427 6.524 26.6795 12.7971 24.5869 14.609C24.2593 14.8915 24.3366 14.9457 24.8188 14.7716ZM18.5975 14.4162C18.4077 14.4231 18.2286 14.4681 18.0945 14.5424C17.9605 14.6167 17.8811 14.7152 17.8716 14.8188C17.8548 15.0627 17.9494 15.2827 18.1551 15.4788C18.2493 15.5685 18.3712 15.6308 18.5091 15.6596C18.6469 15.6884 18.7959 15.6827 18.9414 15.6431L20.8705 15.1111C21.3899 14.966 21.4566 14.7998 21.0706 14.6127C20.6912 14.4247 19.8668 14.3592 18.5975 14.4162Z" fill="#1E2048"/>
<path d="M18.5955 14.4168C19.8648 14.3598 20.6892 14.4253 21.0686 14.6133C21.4546 14.8004 21.3879 14.9666 20.8685 15.1118L18.9394 15.6437C18.7939 15.6833 18.6449 15.6891 18.5071 15.6603C18.3693 15.6315 18.2473 15.5692 18.1532 15.4795C17.9474 15.2833 17.8529 15.0633 17.8696 14.8194C17.8791 14.7158 17.9586 14.6174 18.0926 14.543C18.2266 14.4687 18.4057 14.4237 18.5955 14.4168Z" fill="#A2A5C3"/>
<path d="M9.17415 67.6049C7.53426 67.8154 7.13079 67.1367 7.96377 65.5686C10.5099 60.8116 12.7348 55.9031 14.6386 50.843C14.8002 50.4132 15.0019 50.4149 15.2439 50.8484L21.9578 63.1946C22.9133 64.9367 22.409 65.9332 20.4449 66.184L9.17415 67.6049ZM15.9393 63.7411C16.6836 63.568 17.4847 63.7707 18.3084 63.5877C18.3771 63.5714 18.4419 63.5418 18.4989 63.5008C18.5559 63.4597 18.6039 63.408 18.6399 63.3489C18.6759 63.2897 18.6992 63.2243 18.7084 63.1567C18.7176 63.089 18.7125 63.0205 18.6934 62.9554C18.0227 60.7211 15.2155 64.7279 15.0342 61.4855C15.0178 61.2457 15.0974 60.9133 15.273 60.4884C15.5886 59.7304 15.6293 58.9494 15.395 58.1455C15.2209 57.5558 14.9899 57.5072 14.7017 57.9999C13.8664 59.3868 13.7588 60.8177 14.3787 62.2925C14.4277 62.4007 14.4243 62.5408 14.3689 62.6925C14.3136 62.8442 14.2091 62.9998 14.0705 63.1369C13.1925 64.0186 13.8155 64.22 15.9393 63.7411Z" fill="#1E2048"/>
<path d="M15.939 63.7408C13.8152 64.2197 13.1923 64.0183 14.0702 63.1366C14.2088 62.9995 14.3133 62.8439 14.3687 62.6922C14.4241 62.5405 14.4275 62.4005 14.3785 62.2922C13.7585 60.8174 13.8662 59.3865 14.7015 57.9996C14.9896 57.507 15.2207 57.5555 15.3948 58.1452C15.629 58.9491 15.5884 59.7301 15.2728 60.4881C15.0972 60.913 15.0176 61.2454 15.0339 61.4852C15.2152 64.7276 18.0225 60.7208 18.6931 62.9551C18.7122 63.0203 18.7174 63.0887 18.7082 63.1564C18.699 63.224 18.6756 63.2894 18.6396 63.3486C18.6036 63.4077 18.5556 63.4594 18.4987 63.5005C18.4417 63.5416 18.3769 63.5711 18.3082 63.5874C17.4845 63.7704 16.6834 63.5677 15.939 63.7408Z" fill="#3F4773"/>
<path d="M46.8857 91.224C46.0141 91.2383 45.8287 90.8549 46.3296 90.0739L53.503 78.8737C53.5955 78.7263 53.7207 78.6 53.8669 78.5066C54.0131 78.4132 54.1756 78.3557 54.3394 78.3394C54.5032 78.323 54.6629 78.3484 54.8038 78.4132C54.9447 78.4779 55.0621 78.58 55.1453 78.7099L60.9436 87.9856C61.0198 88.1051 61.0716 88.2396 61.0946 88.3781C61.1177 88.5166 61.1115 88.6554 61.0764 88.7832C61.0413 88.911 60.9784 89.0243 60.8927 89.1141C60.807 89.2039 60.7009 89.2676 60.5829 89.3001C56.097 90.5025 51.5312 91.1438 46.8857 91.224ZM53.4214 85.4338C46.1794 90.1631 59.3799 85.701 54.3283 85.1901C54.0249 85.1625 53.705 85.2485 53.4214 85.4338Z" fill="#181C41"/>
<path d="M54.3293 85.1903C59.3809 85.7012 46.1804 90.1633 53.4225 85.434C53.706 85.2487 54.026 85.1627 54.3293 85.1903Z" fill="#50577F"/>
<path d="M49.4663 124.147C49.7853 123.254 50.1831 123.185 50.6597 123.938L58.2928 136.221C58.3263 136.272 58.3455 136.331 58.3491 136.393C58.3526 136.455 58.3404 136.519 58.3133 136.58C58.2861 136.642 58.2448 136.698 58.1922 136.747C58.1397 136.795 58.0773 136.834 58.0095 136.861C53.7225 138.529 49.2855 139.53 44.6984 139.865C44.604 139.872 44.5105 139.852 44.426 139.808C44.3416 139.765 44.269 139.698 44.2146 139.613C44.1602 139.529 44.1258 139.431 44.1145 139.327C44.1032 139.222 44.1152 139.116 44.1496 139.016L49.4663 124.147ZM53.2408 134.491C52.371 131.465 46.9189 137.785 52.893 135.179C53.0266 135.119 53.1353 135.017 53.1991 134.891C53.2629 134.764 53.2777 134.622 53.2408 134.491Z" fill="#21244C"/>
<path d="M52.8929 135.179C46.9188 137.786 52.3709 131.465 53.2407 134.491C53.2776 134.623 53.2628 134.765 53.199 134.891C53.1351 135.017 53.0265 135.12 52.8929 135.179Z" fill="#6B7296"/>
</svg>
