<svg width="31" height="60" viewBox="0 0 31 60" fill="none" xmlns="http://www.w3.org/2000/svg">
<path d="M18.7065 57.8367C18.9598 58.0633 19.1898 58.1767 19.3965 58.1767C19.8165 58.1833 19.8432 57.9967 19.4765 57.6167C5.85649 43.4067 3.16649 24.0267 7.61649 5.34668C8.26649 2.60668 6.76648 0.0966775 3.84648 1.31668C2.52648 1.87001 1.79981 2.86001 1.66647 4.28668C-0.463527 26.1467 1.82648 42.7367 18.7065 57.8367Z" stroke="#C4E6D7" stroke-width="2"/>
<path d="M28.3063 20.397C25.7063 19.767 24.6863 24.597 24.4563 26.847C23.7296 33.7337 24.8529 40.2703 27.8263 46.457C28.2529 47.337 28.7796 47.5636 29.4063 47.137C29.5193 47.0584 29.6024 46.9378 29.6437 46.7923C29.685 46.6469 29.6824 46.484 29.6363 46.327C27.3763 38.617 28.1663 29.917 29.3563 21.957C29.4085 21.6127 29.3295 21.2614 29.1351 20.9725C28.9407 20.6836 28.6449 20.4782 28.3063 20.397Z" stroke="#CFE8DC" stroke-width="2"/>
<path d="M18.7065 57.8367C1.82648 42.7367 -0.463527 26.1467 1.66647 4.28668C1.79981 2.86001 2.52648 1.87001 3.84648 1.31668C6.76648 0.0966774 8.26649 2.60668 7.61649 5.34668C3.16649 24.0267 5.85649 43.4067 19.4765 57.6167C19.8432 57.9967 19.8165 58.1833 19.3965 58.1767C19.1898 58.1767 18.9598 58.0633 18.7065 57.8367Z" fill="#89CDAF"/>
<path d="M28.3063 20.398C28.6449 20.4792 28.9407 20.6846 29.1351 20.9735C29.3295 21.2623 29.4085 21.6137 29.3563 21.958C28.1663 29.918 27.3763 38.618 29.6363 46.328C29.6824 46.485 29.685 46.6479 29.6437 46.7933C29.6024 46.9388 29.5193 47.0594 29.4063 47.138C28.7796 47.5646 28.2529 47.338 27.8263 46.458C24.8529 40.2713 23.7296 33.7346 24.4563 26.848C24.6863 24.598 25.7063 19.768 28.3063 20.398Z" fill="#9ED0B8"/>
</svg>
