<svg width="24" height="23" viewBox="0 0 24 23" fill="none" xmlns="http://www.w3.org/2000/svg">
<path d="M9.69365 5.41419C7.32365 5.42419 2.29362 4.87417 3.10362 9.01416C3.13196 9.15536 3.19775 9.29307 3.29625 9.41749C3.39474 9.54191 3.52355 9.65003 3.67363 9.7342C5.23363 10.6409 5.30699 11.3875 3.89366 11.9742C2.02366 12.7542 1.14364 14.5342 1.00364 16.4842C0.990697 16.6488 1.01233 16.8159 1.0673 16.9757C1.12227 17.1354 1.20947 17.2845 1.32365 17.4142C2.08365 18.3009 3.06031 18.7409 4.25364 18.7342C4.35592 18.7341 4.50655 18.694 4.69279 18.6174C4.87903 18.5409 5.09542 18.43 5.32365 18.2942C5.61698 18.1209 5.92698 18.0108 6.25364 17.9642C6.30353 17.9554 6.3554 17.969 6.40605 18.0041C6.4567 18.0391 6.50504 18.0949 6.54814 18.168C6.59124 18.2411 6.6282 18.3299 6.65666 18.429C6.68512 18.5281 6.70452 18.6354 6.71367 18.7442C6.807 19.8909 7.41033 20.6409 8.52366 20.9942C12.7237 22.3342 12.7136 17.7742 13.6936 15.3042C13.7475 15.1639 13.8412 15.0421 13.9636 14.9534C14.086 14.8647 14.2319 14.8129 14.3836 14.8042C16.6436 14.6342 26.8736 14.3442 20.6036 9.28418C20.577 9.26418 20.297 9.15082 19.7637 8.94416L17.8036 8.19416C17.7372 8.16904 17.6786 8.12559 17.6313 8.06635C17.5841 8.00711 17.5491 7.93333 17.5286 7.84937C17.5081 7.76541 17.5024 7.67302 17.5118 7.57764C17.5213 7.48227 17.5457 7.38586 17.5837 7.29419L18.9436 3.91419C19.0042 3.75974 19.0259 3.59589 19.0066 3.43946C18.9872 3.28303 18.9276 3.13966 18.8337 3.02418C18.0137 2.02418 16.6136 3.24421 15.7436 3.43421C15.5883 3.46874 15.4255 3.45016 15.2807 3.38141C15.136 3.31266 15.0175 3.19761 14.9436 3.0542C14.0903 1.40754 12.7536 0.750839 10.9336 1.08417C10.7427 1.11808 10.5695 1.20103 10.445 1.31824C10.3205 1.43545 10.2526 1.57932 10.2536 1.72419V4.97419C10.2529 5.08915 10.1938 5.19957 10.0892 5.2818C9.9845 5.36404 9.84255 5.41155 9.69365 5.41419Z" stroke="#939598" stroke-width="2"/>
<path d="M10.5858 11.6338C10.8001 11.7388 11.0877 11.672 11.3853 11.4482C11.6829 11.2243 11.9662 10.8617 12.1727 10.4402C12.3792 10.0186 12.4921 9.57263 12.4865 9.2003C12.481 8.82797 12.3575 8.55985 12.1431 8.45482C11.9288 8.34982 11.6412 8.41658 11.3436 8.64042C11.046 8.86427 10.7628 9.2268 10.5563 9.64836C10.3498 10.0699 10.2368 10.5159 10.2424 10.8882C10.2479 11.2606 10.3714 11.5287 10.5858 11.6338Z" stroke="#424549" stroke-width="2"/>
<path d="M10.2536 4.97419V1.72419C10.2526 1.57932 10.3205 1.43545 10.445 1.31824C10.5695 1.20103 10.7427 1.11808 10.9336 1.08417C12.7536 0.750839 14.0903 1.40754 14.9436 3.0542C15.0175 3.19761 15.136 3.31266 15.2807 3.38141C15.4255 3.45016 15.5883 3.46874 15.7436 3.43421C16.6136 3.24421 18.0137 2.02418 18.8337 3.02418C18.9276 3.13966 18.9872 3.28303 19.0066 3.43946C19.0259 3.59589 19.0042 3.75974 18.9436 3.91419L17.5837 7.29419C17.5457 7.38586 17.5213 7.48227 17.5118 7.57764C17.5024 7.67302 17.5081 7.76541 17.5286 7.84937C17.5491 7.93333 17.5841 8.00711 17.6313 8.06635C17.6786 8.12559 17.7372 8.16904 17.8036 8.19416L19.7637 8.94416C20.297 9.15082 20.577 9.26418 20.6036 9.28418C26.8736 14.3442 16.6436 14.6342 14.3836 14.8042C14.2319 14.8129 14.086 14.8647 13.9636 14.9534C13.8412 15.0421 13.7475 15.1639 13.6936 15.3042C12.7136 17.7742 12.7237 22.3342 8.52366 20.9942C7.41033 20.6409 6.807 19.8909 6.71367 18.7442C6.70452 18.6354 6.68512 18.5281 6.65666 18.429C6.6282 18.3299 6.59124 18.2411 6.54814 18.168C6.50504 18.0949 6.4567 18.0391 6.40605 18.0041C6.3554 17.969 6.30353 17.9554 6.25364 17.9642C5.92698 18.0108 5.61698 18.1209 5.32365 18.2942C5.09542 18.43 4.87903 18.5409 4.69279 18.6174C4.50655 18.694 4.35592 18.7341 4.25364 18.7342C3.06031 18.7409 2.08365 18.3009 1.32365 17.4142C1.20947 17.2845 1.12227 17.1354 1.0673 16.9757C1.01233 16.8159 0.990697 16.6488 1.00364 16.4842C1.14364 14.5342 2.02366 12.7542 3.89366 11.9742C5.30699 11.3875 5.23363 10.6409 3.67363 9.7342C3.52355 9.65003 3.39474 9.54191 3.29625 9.41749C3.19775 9.29307 3.13196 9.15536 3.10362 9.01416C2.29362 4.87417 7.32365 5.42419 9.69365 5.41419C9.84255 5.41155 9.9845 5.36404 10.0892 5.2818C10.1938 5.19957 10.2529 5.08915 10.2536 4.97419ZM10.5849 11.6337C10.7993 11.7387 11.0869 11.6719 11.3845 11.4481C11.6821 11.2242 11.9653 10.8616 12.1719 10.4401C12.3784 10.0185 12.4912 9.57253 12.4857 9.2002C12.4802 8.82787 12.3566 8.55975 12.1423 8.45472C11.928 8.34972 11.6404 8.41648 11.3428 8.64033C11.0452 8.86417 10.762 9.2267 10.5555 9.64826C10.349 10.0698 10.236 10.5158 10.2416 10.8881C10.2471 11.2605 10.3706 11.5286 10.5849 11.6337Z" fill="#262A31"/>
<path d="M10.5541 9.64918C10.124 10.527 10.1372 11.416 10.5836 11.6346C11.03 11.8533 11.7405 11.3189 12.1705 10.4411C12.6006 9.56321 12.5874 8.67429 12.141 8.45562C11.6946 8.23694 10.9841 8.77132 10.5541 9.64918Z" fill="#5D5F61"/>
</svg>
