<svg width="46" height="46" viewBox="0 0 46 46" fill="none" xmlns="http://www.w3.org/2000/svg">
<path d="M43.9257 28.7543C45.5444 23.2895 44.8816 17.3923 42.0829 12.3601C39.2842 7.32783 34.579 3.57272 29.0023 1.92082C23.4256 0.268931 17.4343 0.855596 12.3464 3.55171C7.25843 6.24783 3.49064 10.8326 1.87187 16.2973C0.253123 21.7621 0.915997 27.6593 3.71468 32.6916C6.51336 37.7238 11.2186 41.4789 16.7953 43.1308C22.3719 44.7827 28.3633 44.1961 33.4512 41.5C38.5391 38.8038 42.3069 34.2191 43.9257 28.7543Z" stroke="#8C8A91" stroke-width="2"/>
<path d="M27.1332 22.2071C27.1111 21.7006 26.9832 21.2038 26.7569 20.7449C26.5307 20.286 26.2104 19.874 25.8144 19.5326C25.4184 19.1911 24.9544 18.9267 24.449 18.7546C23.9436 18.5825 23.4066 18.506 22.8687 18.5295C21.7823 18.577 20.7582 19.0288 20.0216 19.7855C19.2851 20.5422 18.8963 21.5419 18.941 22.5646C18.9631 23.0711 19.0909 23.5679 19.3172 24.0268C19.5435 24.4857 19.8638 24.8976 20.2597 25.2391C20.6557 25.5806 21.1197 25.845 21.6251 26.0171C22.1305 26.1892 22.6675 26.2656 23.2055 26.2422C24.2918 26.1947 25.3159 25.7429 26.0525 24.9862C26.7891 24.2295 27.1778 23.2298 27.1332 22.2071Z" stroke="#314C59" stroke-width="2"/>
<path d="M43.9218 28.7548C42.303 34.2196 38.5352 38.8043 33.4473 41.5004C28.3593 44.1966 22.368 44.7832 16.7914 43.1313C11.2147 41.4794 6.50945 37.7243 3.71077 32.6921C0.91209 27.6598 0.249217 21.7626 1.86797 16.2978C3.48673 10.8331 7.25452 6.24831 12.3425 3.5522C17.4304 0.856084 23.4217 0.269419 28.9984 1.92131C34.5751 3.5732 39.2803 7.32832 42.079 12.3606C44.8776 17.3928 45.5405 23.29 43.9218 28.7548ZM27.131 22.2075C27.1089 21.7011 26.981 21.2043 26.7547 20.7454C26.5285 20.2865 26.2082 19.8745 25.8122 19.533C25.4162 19.1915 24.9522 18.9272 24.4468 18.7551C23.9414 18.583 23.4044 18.5065 22.8665 18.53C21.7801 18.5775 20.756 19.0292 20.0195 19.786C19.2829 20.5427 18.8941 21.5424 18.9388 22.5651C18.9609 23.0715 19.0887 23.5684 19.315 24.0273C19.5413 24.4862 19.8616 24.8981 20.2576 25.2396C20.6535 25.5811 21.1175 25.8454 21.6229 26.0175C22.1283 26.1896 22.6654 26.2661 23.2033 26.2426C24.2896 26.1952 25.3137 25.7434 26.0503 24.9867C26.7869 24.23 27.1756 23.2303 27.131 22.2075Z" fill="#1A1526"/>
<path d="M23.2024 26.2428C25.4646 26.144 27.2231 24.3374 27.1301 22.2076C27.0371 20.0778 25.1278 18.4314 22.8656 18.5301C20.6034 18.6289 18.8449 20.4355 18.9379 22.5653C19.0309 24.6951 20.9402 26.3416 23.2024 26.2428Z" fill="#48828C"/>
</svg>
