<svg width="18" height="17" viewBox="0 0 18 17" fill="none" xmlns="http://www.w3.org/2000/svg">
<path d="M15.6552 5.95606C15.1358 4.37636 13.9571 3.08517 12.3784 2.36646C10.7998 1.64775 8.95038 1.56039 7.23715 2.12366C6.38883 2.40257 5.59948 2.83282 4.91415 3.38983C4.22882 3.94685 3.66095 4.61974 3.24295 5.37006C2.82495 6.12038 2.56498 6.93343 2.47793 7.76282C2.39089 8.59221 2.47845 9.42166 2.73562 10.2039C3.25502 11.7836 4.43372 13.0748 6.01242 13.7935C7.59111 14.5122 9.44048 14.5995 11.1537 14.0363C12.002 13.7573 12.7914 13.3271 13.4767 12.7701C14.162 12.2131 14.73 11.5402 15.148 10.7899C15.566 10.0396 15.8259 9.22655 15.9129 8.39716C16 7.56777 15.9124 6.73825 15.6552 5.95606Z" stroke="#FDB0A3" stroke-width="2"/>
<path d="M11.1577 14.0363C14.7254 12.8633 16.7408 9.24572 15.6592 5.95613C14.5776 2.66654 10.8087 0.950696 7.24106 2.12368C3.67341 3.29667 1.65803 6.9143 2.73959 10.2039C3.82115 13.4935 7.59009 15.2093 11.1577 14.0363Z" fill="#FA6046"/>
</svg>
