<svg width="110" height="112" viewBox="0 0 110 112" fill="none" xmlns="http://www.w3.org/2000/svg">
<path d="M47.2628 3.15784C46.0828 3.01118 44.8728 3.15116 43.6328 3.57783" stroke="#DFE8D6" stroke-width="2"/>
<path d="M43.6328 3.57812C36.4795 5.33146 29.8128 8.21147 23.6328 12.2181" stroke="#C4EEDC" stroke-width="2"/>
<path d="M23.6341 12.2178C22.2474 12.9578 20.9741 13.8544 19.8141 14.9078C-1.39589 34.1578 -5.72589 63.6678 12.2641 86.9078" stroke="#A4AAC7" stroke-width="2"/>
<path d="M12.2617 86.9082C13.8084 89.4415 15.8084 91.5249 18.2617 93.1582" stroke="#B6BED4" stroke-width="2"/>
<path d="M18.2617 93.1582C21.8217 96.4715 25.7884 99.5182 30.1617 102.298" stroke="#C4EEDC" stroke-width="2"/>
<path d="M30.1641 102.298L31.4741 102.868" stroke="#DFE8D6" stroke-width="2"/>
<path d="M31.4727 102.868C31.646 103.301 31.906 103.628 32.2527 103.848C42.4127 110.288 53.0527 111.698 64.9827 108.888C90.5827 102.878 107.703 80.9078 108.623 54.8678C108.843 48.4878 109.353 40.8978 106.713 35.1878C97.386 14.9945 81.5693 3.63444 59.2626 1.10777C55.7693 0.714436 51.7693 1.39779 47.2626 3.15779" stroke="#FBB5A0" stroke-width="2"/>
<path d="M31.4727 102.868C44.1527 78.9682 49.4027 49.8482 48.7227 23.1182C48.5627 17.0515 47.926 11.5515 46.8127 6.61819C46.7593 6.39819 46.7693 6.07486 46.8427 5.64819L47.2626 3.1582" stroke="#DB9D76" stroke-width="2"/>
<path d="M30.1641 102.298C30.8707 99.3581 32.4774 95.0281 34.9841 89.3081C38.3041 81.7381 40.7941 71.0281 42.5341 61.5081C43.6541 55.3581 45.3341 48.7881 45.3441 42.5181C45.3441 37.6481 45.8341 32.3081 45.6541 28.0081C45.3074 19.8681 44.6341 11.7248 43.6341 3.57812" stroke="#A4D7B3" stroke-width="2"/>
<path d="M18.2617 93.1581L23.0117 84.5781" stroke="#7BADB1" stroke-width="2"/>
<path d="M23.0117 84.5782C24.2817 85.1582 25.2117 84.8682 25.8617 83.5982C28.2617 78.9049 30.0484 74.3915 31.2217 70.0582C31.8551 67.6982 31.0484 66.7182 28.8017 67.1182" stroke="#8DDCBA" stroke-width="2"/>
<path d="M28.8047 67.1172L30.7247 47.3672" stroke="#7BADB1" stroke-width="2"/>
<path d="M30.7228 47.3678C30.8328 33.7578 29.6628 24.0778 23.6328 12.2178" stroke="#6999A4" stroke-width="2"/>
<path d="M28.8017 67.1172L23.0117 84.5772" stroke="#7FABB2" stroke-width="2"/>
<path d="M30.7217 47.3679C30.2817 47.6079 29.8884 47.6746 29.5417 47.5679C29.4182 47.5309 29.31 47.4372 29.234 47.3016C29.158 47.1659 29.1186 46.9959 29.1217 46.8179C29.1417 46.2279 29.2517 41.2679 28.0517 41.1179C27.9292 41.1036 27.8036 41.1471 27.6998 41.2398C27.596 41.3324 27.5217 41.4675 27.4917 41.6179L26.8117 45.1279C26.7805 45.2841 26.7185 45.4297 26.6303 45.5542C26.5422 45.6787 26.4299 45.779 26.3017 45.8479C24.0417 47.1079 23.0117 43.7579 19.9117 45.3479C19.7599 45.4256 19.6369 45.5448 19.5625 45.6864C19.4881 45.8279 19.4667 45.9834 19.5017 46.1279C19.7217 47.0613 20.2051 47.8246 20.9517 48.4179C21.2246 48.6386 21.4173 48.8838 21.5017 49.1179C22.0017 50.5446 21.7984 51.8212 20.8917 52.9479C20.6317 53.2746 20.5017 54.3312 20.5017 56.1179C20.4951 57.0579 20.3217 57.9746 19.9817 58.8679C19.889 59.1065 19.8133 59.3295 19.765 59.5066C19.7167 59.6837 19.6981 59.8063 19.7117 59.8579C20.0117 61.4446 19.6917 62.8679 18.7517 64.1279C18.0917 65.0146 18.9484 66.4046 21.3217 68.2979C23.0284 69.6579 23.5817 71.3746 22.9817 73.4479C22.937 73.593 22.818 73.7123 22.6479 73.7826C22.4779 73.8528 22.2689 73.869 22.0617 73.8279C19.2417 73.2812 18.2484 71.6313 19.0817 68.8779C19.1436 68.6745 19.1713 68.4752 19.1626 68.2973C19.1539 68.1195 19.109 67.9686 19.0317 67.8579C18.5917 67.2046 18.105 67.1479 17.5717 67.6879C17.5043 67.755 17.4498 67.8698 17.4131 68.0218C17.3764 68.1738 17.3587 68.3581 17.3617 68.5579C17.4151 71.0712 16.255 73.2079 13.8817 74.9679C13.0084 75.6146 12.8017 76.5379 13.2617 77.7379C13.2878 77.8084 13.3274 77.8733 13.3776 77.9279C13.4278 77.9825 13.4873 78.0253 13.5517 78.0532C13.6161 78.0811 13.6838 78.0933 13.7496 78.0889C13.8153 78.0845 13.8776 78.0637 13.9317 78.0279L16.9517 76.0679C17.0028 76.0334 17.0621 76.0142 17.1237 76.0124C17.1854 76.0106 17.2471 76.0262 17.3028 76.0575C17.3585 76.0889 17.4062 76.135 17.4411 76.1913C17.476 76.2475 17.4969 76.3119 17.5017 76.3779C17.8017 80.9046 16.0551 84.4146 12.2617 86.9079" stroke="#5B699C" stroke-width="2"/>
<path d="M12.8586 69.3241C12.988 69.2599 13.086 69.1356 13.147 68.9583C13.2081 68.781 13.2309 68.5543 13.2142 68.2909C13.1975 68.0276 13.1417 67.7328 13.0498 67.4235C12.958 67.1142 12.832 66.7964 12.679 66.4882C12.3701 65.8658 11.97 65.3204 11.5667 64.972C11.1635 64.6237 10.7902 64.5008 10.5288 64.6305C10.3994 64.6947 10.3014 64.819 10.2404 64.9962C10.1794 65.1735 10.1566 65.4003 10.1733 65.6636C10.1899 65.927 10.2458 66.2217 10.3376 66.531C10.4294 66.8404 10.5554 67.1582 10.7084 67.4664C11.0174 68.0888 11.4175 68.6341 11.8207 68.9825C12.224 69.3309 12.5973 69.4538 12.8586 69.3241Z" stroke="#596499" stroke-width="2"/>
<path d="M9.01704 75.9255C9.40504 75.8875 9.75031 75.5774 9.97691 75.0633C10.2035 74.5493 10.2929 73.8735 10.2253 73.1846C10.1919 72.8435 10.1209 72.5094 10.0165 72.2015C9.91208 71.8936 9.77625 71.6178 9.61674 71.3899C9.45724 71.162 9.2772 70.9865 9.0869 70.8733C8.8966 70.7602 8.69977 70.7117 8.50764 70.7305C8.11964 70.7686 7.77437 71.0787 7.54777 71.5927C7.32117 72.1068 7.23181 72.7825 7.29935 73.4714C7.33279 73.8125 7.40375 74.1466 7.50818 74.4546C7.6126 74.7625 7.74844 75.0383 7.90794 75.2662C8.06745 75.4941 8.24749 75.6696 8.43779 75.7827C8.62809 75.8958 8.82492 75.9444 9.01704 75.9255Z" stroke="#596499" stroke-width="2"/>
<path d="M31.4727 102.868C44.1527 78.9678 49.4027 49.8478 48.7227 23.1178C48.5627 17.0511 47.926 11.5511 46.8127 6.61778C46.7593 6.39778 46.7693 6.07444 46.8427 5.64778L47.2626 3.15779C51.7693 1.39779 55.7693 0.714436 59.2626 1.10777C81.5693 3.63444 97.386 14.9945 106.713 35.1878C109.353 40.8978 108.843 48.4878 108.623 54.8678C107.703 80.9078 90.5826 102.878 64.9827 108.888C53.0527 111.698 42.4127 110.288 32.2527 103.848C31.906 103.628 31.646 103.301 31.4727 102.868Z" fill="#F76A40"/>
<path d="M47.2602 3.15784L46.8402 5.64783C46.7668 6.0745 46.7568 6.39784 46.8102 6.61784C47.9235 11.5512 48.5602 17.0512 48.7202 23.1178C49.4002 49.8478 44.1502 78.9678 31.4702 102.868L30.1602 102.298C30.8668 99.3578 32.4735 95.0278 34.9802 89.3078C38.3002 81.7378 40.7902 71.0278 42.5302 61.5079C43.6502 55.3578 45.3302 48.7878 45.3402 42.5178C45.3402 37.6478 45.8302 32.3078 45.6502 28.0079C45.3035 19.8679 44.6302 11.7245 43.6302 3.57783C44.8702 3.15116 46.0802 3.01118 47.2602 3.15784Z" fill="#BFD0AC"/>
<path d="M43.6317 3.57812C44.6317 11.7248 45.3051 19.8681 45.6517 28.0081C45.8317 32.3081 45.3417 37.6481 45.3417 42.5181C45.3317 48.7881 43.6517 55.3581 42.5317 61.5081C40.7917 71.0282 38.3017 81.7381 34.9817 89.3081C32.4751 95.0281 30.8684 99.3581 30.1617 102.298C25.7884 99.5181 21.8217 96.4715 18.2617 93.1581L23.0117 84.5781C24.2817 85.1581 25.2117 84.8681 25.8617 83.5981C28.2617 78.9048 30.0484 74.3915 31.2217 70.0581C31.8551 67.6981 31.0484 66.7181 28.8017 67.1181L30.7217 47.3681C30.8317 33.7581 29.6617 24.0781 23.6317 12.2181C29.8117 8.21147 36.4784 5.33146 43.6317 3.57812Z" fill="#89DDB9"/>
<path d="M23.6302 12.2188C29.6602 24.0787 30.8302 33.7587 30.7202 47.3687C30.2802 47.6087 29.8869 47.6754 29.5402 47.5688C29.4166 47.5317 29.3085 47.4381 29.2325 47.3024C29.1565 47.1668 29.117 46.9967 29.1202 46.8188C29.1402 46.2288 29.2502 41.2687 28.0502 41.1187C27.9277 41.1044 27.8021 41.1479 27.6983 41.2406C27.5945 41.3333 27.5202 41.4683 27.4902 41.6187L26.8102 45.1288C26.779 45.2849 26.717 45.4305 26.6288 45.555C26.5406 45.6795 26.4284 45.7798 26.3002 45.8488C24.0402 47.1088 23.0102 43.7588 19.9102 45.3488C19.7584 45.4265 19.6354 45.5457 19.561 45.6872C19.4866 45.8287 19.4652 45.9843 19.5002 46.1288C19.7202 47.0621 20.2035 47.8254 20.9502 48.4187C21.2231 48.6394 21.4158 48.8846 21.5002 49.1187C22.0002 50.5454 21.7969 51.8221 20.8902 52.9487C20.6302 53.2754 20.5002 54.3321 20.5002 56.1187C20.4935 57.0587 20.3202 57.9754 19.9802 58.8687C19.8875 59.1074 19.8118 59.3303 19.7635 59.5074C19.7152 59.6845 19.6966 59.8072 19.7102 59.8587C20.0102 61.4454 19.6902 62.8688 18.7502 64.1288C18.0902 65.0154 18.9469 66.4054 21.3202 68.2987C23.0269 69.6587 23.5802 71.3754 22.9802 73.4487C22.9355 73.5938 22.8165 73.7131 22.6464 73.7834C22.4763 73.8536 22.2674 73.8698 22.0602 73.8287C19.2402 73.2821 18.2469 71.6321 19.0802 68.8788C19.1421 68.6753 19.1698 68.476 19.1611 68.2982C19.1524 68.1203 19.1075 67.9694 19.0302 67.8587C18.5902 67.2054 18.1035 67.1488 17.5702 67.6888C17.5028 67.7559 17.4482 67.8707 17.4116 68.0226C17.3749 68.1746 17.3572 68.3589 17.3602 68.5587C17.4135 71.0721 16.2535 73.2088 13.8802 74.9688C13.0069 75.6154 12.8002 76.5387 13.2602 77.7387C13.2863 77.8092 13.3259 77.8741 13.3761 77.9287C13.4263 77.9833 13.4858 78.0262 13.5502 78.054C13.6146 78.0819 13.6823 78.0941 13.748 78.0898C13.8138 78.0854 13.8761 78.0645 13.9302 78.0287L16.9502 76.0688C17.0013 76.0342 17.0606 76.0151 17.1222 76.0132C17.1838 76.0114 17.2456 76.027 17.3013 76.0584C17.357 76.0898 17.4046 76.1359 17.4396 76.1921C17.4745 76.2483 17.4954 76.3127 17.5002 76.3788C17.8002 80.9054 16.0535 84.4154 12.2602 86.9088C-5.7298 63.6688 -1.39979 34.1588 19.8102 14.9088C20.9702 13.8554 22.2435 12.9588 23.6302 12.2188ZM12.8551 69.3255C12.9845 69.2613 13.0825 69.1371 13.1435 68.9598C13.2045 68.7825 13.2274 68.5557 13.2107 68.2924C13.194 68.029 13.1381 67.7343 13.0463 67.425C12.9545 67.1157 12.8285 66.7978 12.6755 66.4897C12.3665 65.8673 11.9665 65.3219 11.5632 64.9735C11.16 64.6251 10.7866 64.5023 10.5253 64.632C10.3959 64.6962 10.2979 64.8204 10.2369 64.9977C10.1759 65.175 10.1531 65.4018 10.1697 65.6651C10.1864 65.9284 10.2423 66.2232 10.3341 66.5325C10.4259 66.8418 10.5519 67.1596 10.7049 67.4678C11.0139 68.0902 11.414 68.6356 11.8172 68.984C12.2204 69.3324 12.5938 69.4552 12.8551 69.3255ZM9.0149 75.9262C9.4029 75.8882 9.74817 75.5781 9.97477 75.0641C10.2014 74.55 10.2907 73.8742 10.2232 73.1853C10.1898 72.8442 10.1188 72.5102 10.0144 72.2022C9.90994 71.8943 9.77411 71.6185 9.6146 71.3906C9.4551 71.1627 9.27506 70.9872 9.08476 70.8741C8.89446 70.7609 8.69763 70.7124 8.5055 70.7312C8.11751 70.7693 7.77223 71.0794 7.54563 71.5934C7.31904 72.1075 7.22967 72.7832 7.29721 73.4721C7.33065 73.8133 7.40161 74.1473 7.50604 74.4553C7.61046 74.7632 7.7463 75.039 7.9058 75.2669C8.06531 75.4948 8.24535 75.6703 8.43565 75.7834C8.62595 75.8965 8.82278 75.9451 9.0149 75.9262Z" fill="#49558E"/>
<path d="M30.7217 47.3679L28.8017 67.1179L23.0117 84.5779L18.2617 93.1579C15.8084 91.5246 13.8084 89.4412 12.2617 86.9079C16.0551 84.4146 17.8017 80.9046 17.5017 76.3779C17.4969 76.3119 17.476 76.2475 17.4411 76.1913C17.4062 76.135 17.3585 76.0889 17.3028 76.0575C17.2471 76.0262 17.1854 76.0106 17.1237 76.0124C17.0621 76.0142 17.0028 76.0334 16.9517 76.0679L13.9317 78.0279C13.8776 78.0637 13.8153 78.0845 13.7496 78.0889C13.6838 78.0933 13.6161 78.0811 13.5517 78.0532C13.4873 78.0253 13.4278 77.9825 13.3776 77.9279C13.3274 77.8733 13.2878 77.8084 13.2617 77.7379C12.8017 76.5379 13.0084 75.6146 13.8817 74.9679C16.255 73.2079 17.4151 71.0712 17.3617 68.5579C17.3587 68.3581 17.3764 68.1738 17.4131 68.0218C17.4498 67.8698 17.5043 67.755 17.5717 67.6879C18.105 67.1479 18.5917 67.2046 19.0317 67.8579C19.109 67.9686 19.1539 68.1195 19.1626 68.2973C19.1713 68.4752 19.1436 68.6745 19.0817 68.8779C18.2484 71.6313 19.2417 73.2812 22.0617 73.8279C22.2689 73.869 22.4779 73.8528 22.6479 73.7826C22.818 73.7123 22.937 73.593 22.9817 73.4479C23.5817 71.3746 23.0284 69.6579 21.3217 68.2979C18.9484 66.4046 18.0917 65.0146 18.7517 64.1279C19.6917 62.8679 20.0117 61.4446 19.7117 59.8579C19.6981 59.8063 19.7167 59.6837 19.765 59.5066C19.8133 59.3295 19.889 59.1065 19.9817 58.8679C20.3217 57.9746 20.4951 57.0579 20.5017 56.1179C20.5017 54.3312 20.6317 53.2746 20.8917 52.9479C21.7984 51.8212 22.0017 50.5446 21.5017 49.1179C21.4173 48.8838 21.2246 48.6386 20.9517 48.4179C20.2051 47.8246 19.7217 47.0613 19.5017 46.1279C19.4667 45.9834 19.4881 45.8279 19.5625 45.6864C19.6369 45.5448 19.7599 45.4256 19.9117 45.3479C23.0117 43.7579 24.0417 47.1079 26.3017 45.8479C26.4299 45.779 26.5422 45.6787 26.6303 45.5542C26.7185 45.4297 26.7805 45.2841 26.8117 45.1279L27.4917 41.6179C27.5217 41.4675 27.596 41.3324 27.6998 41.2398C27.8036 41.1471 27.9292 41.1036 28.0517 41.1179C29.2517 41.2679 29.1417 46.2279 29.1217 46.8179C29.1186 46.9959 29.158 47.1659 29.234 47.3016C29.31 47.4372 29.4182 47.5309 29.5417 47.5679C29.8884 47.6746 30.2817 47.6079 30.7217 47.3679Z" fill="#6D7CA9"/>
<path d="M10.7061 67.4675C11.3495 68.7636 12.3122 69.5953 12.8563 69.3252C13.4005 69.0551 13.32 67.7854 12.6767 66.4893C12.0333 65.1933 11.0706 64.3616 10.5264 64.6317C9.98228 64.9018 10.0627 66.1715 10.7061 67.4675Z" fill="#6873A4"/>
<path d="M23.0117 84.5782L28.8017 67.1182C31.0484 66.7182 31.8551 67.6982 31.2217 70.0582C30.0484 74.3915 28.2617 78.9049 25.8617 83.5982C25.2117 84.8682 24.2817 85.1582 23.0117 84.5782Z" fill="#91DABB"/>
<path d="M7.29747 73.4723C7.43813 74.9069 8.20716 76.0056 9.01515 75.9264C9.82313 75.8472 10.3641 74.62 10.2234 73.1854C10.0828 71.7509 9.31375 70.6521 8.50577 70.7313C7.69778 70.8106 7.15681 72.0377 7.29747 73.4723Z" fill="#6873A4"/>
</svg>
