<svg width="85" height="89" viewBox="0 0 85 89" fill="none" xmlns="http://www.w3.org/2000/svg">
<path d="M26.7291 18.1919C4.84908 37.6119 6.07905 71.7619 34.389 84.1319C34.4464 84.157 34.5085 84.1694 34.5711 84.168C34.6337 84.1667 34.6953 84.1516 34.7515 84.124C34.8077 84.0964 34.8571 84.0568 34.8964 84.0081C34.9357 83.9594 34.964 83.9027 34.9791 83.8419C38.4391 69.7219 38.989 51.162 33.239 37.002C31.799 33.462 29.0791 30.1719 26.7991 26.8519C26.6763 26.6709 26.5806 26.4929 26.521 26.3353C26.4615 26.1777 26.4401 26.0457 26.4591 25.9519C26.6657 24.9319 27.219 24.1353 28.119 23.562C28.2109 23.4986 28.3415 23.4716 28.4955 23.4839C28.6495 23.4963 28.8207 23.5476 28.989 23.6319C34.529 26.3319 38.3991 35.8319 39.7191 40.9819C43.4291 55.5219 45.3291 71.5819 40.1491 86.0219C40.1187 86.1104 40.1025 86.2035 40.1016 86.2944C40.1006 86.3854 40.115 86.4722 40.1436 86.5485C40.1722 86.6248 40.2144 86.6888 40.2672 86.7361C40.3199 86.7833 40.382 86.8126 40.449 86.8219L45.509 87.4819C45.6229 87.4952 45.7446 87.4437 45.8514 87.3369C45.9581 87.2302 46.0426 87.0755 46.0891 86.9019C52.2091 63.5553 49.0524 41.6853 36.619 21.2919" stroke="#FEB2A7" stroke-width="2"/>
<path d="M36.6172 21.2918C37.3572 21.7518 38.3372 21.9952 39.5572 22.0218C39.6851 22.0253 39.8239 21.9913 39.9639 21.9222C40.1038 21.8531 40.2414 21.7506 40.3672 21.6219C40.8272 21.1552 41.4472 21.0218 42.2272 21.2218" stroke="#B5E7D9" stroke-width="2"/>
<path d="M42.2296 21.2216C54.9996 40.3416 59.0895 65.2717 52.0595 87.3017C52.0326 87.3855 52.0246 87.4752 52.0361 87.5621C52.0477 87.6491 52.0785 87.7306 52.1255 87.7987C52.1726 87.8668 52.2345 87.9194 52.3052 87.9514C52.3759 87.9834 52.4531 87.9938 52.5295 87.9816L57.2795 87.2716C57.3785 87.2552 57.4876 87.1664 57.5916 87.0177C57.6955 86.8689 57.7892 86.6675 57.8596 86.4416C63.7596 66.8916 63.3795 41.8616 49.2795 25.6016C49.1723 25.4786 49.0912 25.3378 49.0413 25.1881C48.9914 25.0384 48.9737 24.883 48.9895 24.7316C49.4595 19.9316 52.9696 22.8416 54.4796 24.5816C68.6196 40.9016 71.0195 64.3617 63.9995 84.4317C63.6662 85.3717 63.9195 85.5716 64.7595 85.0316C80.3695 75.0916 87.7095 52.0316 79.8895 34.9116C72.5095 18.7616 54.1395 11.1516 37.0195 14.2616" stroke="#FDB0A3" stroke-width="2"/>
<path d="M37.0201 14.2619C35.4734 14.9219 34.0501 14.6619 32.7501 13.4819C29.7701 10.7686 26.6701 8.20861 23.4501 5.80194C17.5701 1.41194 3.7401 -3.3981 1.3201 8.3819C-0.649897 18.0219 6.77014 22.8419 15.4201 21.7019C19.3001 21.1886 23.0701 20.0186 26.7301 18.1919" stroke="#B5E7D9" stroke-width="2"/>
<path d="M37.0195 14.2617C39.0462 16.3551 40.7829 18.6751 42.2296 21.2217" stroke="#B3977D" stroke-width="2"/>
<path d="M36.6165 21.2916C33.3832 18.7383 30.0866 17.7049 26.7266 18.1916" stroke="#B49A81" stroke-width="2"/>
<path d="M27.2486 57.5019C27.3953 57.6152 27.4853 57.4352 27.5186 56.9619C27.592 55.9285 27.412 54.9385 26.9786 53.9919C26.9289 53.8822 26.9067 53.7319 26.9136 53.5521C26.9205 53.3722 26.9564 53.1672 27.0186 52.9518C27.4853 51.3185 27.0753 49.8952 25.7886 48.6819C25.6849 48.585 25.6016 48.4526 25.5447 48.2938C25.4877 48.135 25.4584 47.9536 25.4586 47.7618C25.4386 45.0918 25.3286 42.1519 22.1786 42.1519C21.6186 42.1519 21.4686 42.3619 21.7286 42.7819C22.7686 44.4619 22.6953 46.1186 21.5086 47.7519C21.3912 47.9135 21.3179 48.0962 21.2983 48.2764C21.2787 48.4565 21.3136 48.6257 21.3986 48.7618C22.1853 50.0085 22.2086 51.2219 21.4686 52.4019C21.3841 52.5351 21.3608 52.7015 21.4034 52.8681C21.446 53.0347 21.5513 53.1896 21.6986 53.3019L27.2486 57.5019Z" stroke="#FB6E5A" stroke-width="2"/>
<path d="M37.0201 14.2619C39.0468 16.3552 40.7835 18.6753 42.2301 21.2219C41.4501 21.0219 40.8301 21.1553 40.3701 21.622C40.2443 21.7507 40.1067 21.8532 39.9668 21.9223C39.8268 21.9914 39.688 22.0254 39.5601 22.0219C38.3401 21.9952 37.3601 21.7519 36.6201 21.2919C33.3868 18.7386 30.0901 17.7052 26.7301 18.1919C23.0701 20.0186 19.3001 21.1886 15.4201 21.7019C6.77014 22.8419 -0.649897 18.0219 1.3201 8.3819C3.7401 -3.3981 17.5701 1.41194 23.4501 5.80194C26.6701 8.20861 29.7701 10.7686 32.7501 13.4819C34.0501 14.6619 35.4734 14.9219 37.0201 14.2619Z" fill="#6BCEB3"/>
<path d="M42.2296 21.2216C40.7829 18.675 39.0462 16.3549 37.0195 14.2616C54.1395 11.1516 72.5095 18.7616 79.8895 34.9116C87.7095 52.0316 80.3695 75.0916 64.7595 85.0316C63.9195 85.5716 63.6662 85.3717 63.9995 84.4317C71.0195 64.3617 68.6196 40.9016 54.4796 24.5816C52.9696 22.8416 49.4595 19.9316 48.9895 24.7316C48.9737 24.883 48.9914 25.0384 49.0413 25.1881C49.0912 25.3378 49.1723 25.4786 49.2795 25.6016C63.3795 41.8616 63.7596 66.8916 57.8596 86.4416C57.7892 86.6675 57.6955 86.8689 57.5916 87.0177C57.4876 87.1664 57.3785 87.2552 57.2795 87.2716L52.5295 87.9816C52.4531 87.9938 52.3759 87.9834 52.3052 87.9514C52.2345 87.9194 52.1726 87.8669 52.1255 87.7987C52.0785 87.7306 52.0477 87.6491 52.0361 87.5621C52.0246 87.4752 52.0326 87.3855 52.0595 87.3017C59.0895 65.2717 54.9996 40.3416 42.2296 21.2216Z" fill="#FA6046"/>
<path d="M36.619 21.2916C49.0524 41.6849 52.2091 63.5549 46.0891 86.9016C46.0426 87.0752 45.9581 87.2298 45.8514 87.3366C45.7446 87.4433 45.6229 87.4949 45.509 87.4816L40.449 86.8216C40.382 86.8123 40.3199 86.783 40.2672 86.7358C40.2144 86.6885 40.1722 86.6244 40.1436 86.5481C40.115 86.4718 40.1006 86.3851 40.1016 86.2941C40.1025 86.2031 40.1187 86.1101 40.1491 86.0216C45.3291 71.5816 43.4291 55.5216 39.7191 40.9816C38.3991 35.8316 34.529 26.3316 28.989 23.6316C28.8207 23.5473 28.6495 23.496 28.4955 23.4836C28.3415 23.4712 28.2109 23.4983 28.119 23.5616C27.219 24.135 26.6657 24.9316 26.4591 25.9516C26.4401 26.0453 26.4615 26.1774 26.521 26.335C26.5806 26.4926 26.6763 26.6705 26.7991 26.8516C29.0791 30.1716 31.799 33.4616 33.239 37.0016C38.989 51.1616 38.4391 69.7216 34.9791 83.8416C34.964 83.9024 34.9357 83.9591 34.8964 84.0078C34.8571 84.0565 34.8077 84.0961 34.7515 84.1237C34.6953 84.1513 34.6337 84.1663 34.5711 84.1677C34.5085 84.1691 34.4464 84.1567 34.389 84.1316C6.07905 71.7616 4.84908 37.6116 26.7291 18.1916C30.0891 17.7049 33.3857 18.7383 36.619 21.2916ZM27.249 57.5016C27.3957 57.615 27.4857 57.4349 27.5191 56.9616C27.5924 55.9283 27.4124 54.9383 26.9791 53.9916C26.9293 53.8819 26.9071 53.7317 26.914 53.5518C26.9209 53.3719 26.9568 53.1669 27.0191 52.9516C27.4857 51.3182 27.0757 49.895 25.7891 48.6816C25.6853 48.5847 25.6021 48.4523 25.5451 48.2936C25.4882 48.1348 25.4588 47.9533 25.4591 47.7616C25.4391 45.0916 25.329 42.1516 22.179 42.1516C21.619 42.1516 21.4691 42.3616 21.7291 42.7816C22.7691 44.4616 22.6957 46.1183 21.509 47.7516C21.3916 47.9132 21.3183 48.0959 21.2987 48.2761C21.2791 48.4563 21.3141 48.6255 21.3991 48.7616C22.1857 50.0082 22.2091 51.2216 21.4691 52.4016C21.3845 52.5348 21.3612 52.7012 21.4038 52.8678C21.4464 53.0345 21.5517 53.1893 21.699 53.3016L27.249 57.5016Z" fill="#FD654F"/>
<path d="M27.2486 57.5019L21.6986 53.3019C21.5513 53.1896 21.446 53.0347 21.4034 52.8681C21.3608 52.7015 21.3841 52.5351 21.4686 52.4019C22.2086 51.2219 22.1853 50.0085 21.3986 48.7618C21.3136 48.6257 21.2787 48.4565 21.2983 48.2764C21.3179 48.0962 21.3912 47.9135 21.5086 47.7519C22.6953 46.1186 22.7686 44.4619 21.7286 42.7819C21.4686 42.3619 21.6186 42.1519 22.1786 42.1519C25.3286 42.1519 25.4386 45.0918 25.4586 47.7618C25.4584 47.9536 25.4877 48.135 25.5447 48.2938C25.6016 48.4526 25.6849 48.585 25.7886 48.6819C27.0753 49.8952 27.4853 51.3185 27.0186 52.9518C26.9564 53.1672 26.9205 53.3722 26.9136 53.5521C26.9067 53.7319 26.9289 53.8822 26.9786 53.9919C27.412 54.9385 27.592 55.9285 27.5186 56.9619C27.4853 57.4352 27.3953 57.6152 27.2486 57.5019Z" fill="#F97764"/>
</svg>
