<svg width="74" height="257" viewBox="0 0 74 257" fill="none" xmlns="http://www.w3.org/2000/svg">
<path d="M27.7152 1C27.4885 1.16667 27.2351 1.26667 26.9551 1.3C26.813 1.31951 26.6828 1.38308 26.5889 1.4788C26.495 1.57453 26.4439 1.69584 26.4452 1.82C26.3118 11.2733 26.3485 19.3333 26.5551 26C26.9251 38.1 24.5352 46.35 19.1552 58.27C11.5352 75.18 6.69516 85.44 3.91516 100.24C0.841829 116.6 0.201815 133 1.99515 149.44C3.23515 160.87 7.36515 172.72 10.6552 184.13C15.0852 199.5 17.5351 214.66 19.8051 230.17C21.2751 240.22 23.7352 260.33 39.4152 253.86C48.0452 250.3 51.0551 244.7 52.2351 235.51C53.6551 224.5 53.7851 203.7 57.0551 188.61C59.4351 177.63 62.8552 166.96 66.3252 156.28C71.6352 139.97 73.6551 126.92 70.8651 109.51C66.8551 84.58 61.6852 58.63 61.1552 34C60.9952 26.5867 61.0985 15.9167 61.4651 1.99C61.4678 1.86011 61.4273 1.72714 61.348 1.60551C61.2687 1.48388 61.1535 1.37822 61.0151 1.3L60.4651 1" stroke="#FFECA1" stroke-width="2"/>
<path d="M48.5335 57.25C47.0235 56.59 45.1935 60.1 44.5135 61.09C44.3218 61.3647 44.0447 61.5701 43.7227 61.6762C43.4007 61.7824 43.0506 61.7837 42.7235 61.68L39.1535 60.52C38.8818 60.4295 38.5428 60.4436 38.1935 60.56C33.3235 62.22 43.1435 65.82 44.3735 65.98C44.5478 66.0036 44.7169 65.991 44.8557 65.9441C44.9945 65.8973 45.0954 65.8186 45.1435 65.72L48.8535 57.98C48.8843 57.9167 48.9004 57.8473 48.9009 57.7757C48.9013 57.7042 48.8861 57.6322 48.8562 57.5639C48.8263 57.4957 48.7823 57.4327 48.7268 57.3787C48.6713 57.3248 48.6056 57.281 48.5335 57.25Z" stroke="#987E28" stroke-width="2"/>
<path d="M44.1968 81.22C43.9212 81.5268 43.5223 81.7204 43.0614 81.771C42.6006 81.8216 42.1035 81.7264 41.6468 81.5L38.4768 79.92C38.311 79.8388 38.1329 79.7931 37.955 79.7862C37.7771 79.7793 37.6037 79.8113 37.4468 79.88C35.0068 80.99 42.3068 91.08 47.1068 81.72C47.5802 80.8 47.6735 80.08 47.3868 79.56C46.9468 78.78 45.8835 79.3333 44.1968 81.22Z" stroke="#987E28" stroke-width="2"/>
<path d="M54.8737 105.98C55.567 105.147 55.817 104.197 55.6237 103.13C55.5704 102.83 55.107 102.713 54.2337 102.78C53.9284 102.806 53.6139 102.942 53.3337 103.17L49.3537 106.45C49.2576 106.53 49.125 106.567 48.9779 106.554C48.8307 106.542 48.6776 106.48 48.5437 106.38L45.3637 104.04C45.2178 103.933 45.0483 103.868 44.8759 103.854C44.7035 103.84 44.5359 103.877 44.3937 103.96C43.5204 104.453 43.3837 105.2 43.9837 106.2C46.9637 111.173 50.5937 111.1 54.8737 105.98Z" stroke="#987E28" stroke-width="2"/>
<path d="M17.9166 126.25C18.4366 125.93 27.0866 119.59 22.1366 119.24C21.9937 119.231 21.8434 119.262 21.6976 119.332C21.5517 119.401 21.4145 119.507 21.2966 119.64C20.0433 121.08 18.5166 122.073 16.7166 122.62C16.6008 122.657 16.4528 122.652 16.2867 122.604C16.1205 122.557 15.9415 122.47 15.7666 122.35C15.5166 122.18 7.69659 116.82 10.3366 121.55C11.5766 123.77 13.3733 125.39 15.7266 126.41C16.0777 126.564 16.4609 126.63 16.8426 126.602C17.2244 126.574 17.5931 126.453 17.9166 126.25Z" stroke="#987E28" stroke-width="2"/>
<path d="M34.655 164.7C35.155 164.15 41.515 157 36.715 158.2C36.3484 158.293 36.0484 158.447 35.815 158.66L32.695 161.55C32.6109 161.625 32.4751 161.648 32.312 161.615C32.1489 161.582 31.9692 161.495 31.805 161.37L28.235 158.65C28.1362 158.576 28.0051 158.539 27.8576 158.542C27.7101 158.546 27.5528 158.59 27.405 158.67C24.775 160.13 30.995 164.66 31.975 165.17C32.4114 165.397 32.9102 165.473 33.3946 165.388C33.8789 165.304 34.3218 165.062 34.655 164.7Z" stroke="#987E28" stroke-width="2"/>
<path d="M29.9046 181.5L26.0746 178.33C25.7911 178.092 25.4519 177.967 25.1246 177.98C21.0546 178.16 28.2646 184.95 28.9646 185.47C29.2105 185.655 29.5068 185.759 29.8095 185.764C30.1123 185.769 30.4051 185.677 30.6446 185.5C33.5579 183.34 36.1313 180.83 38.3646 177.97C38.4502 177.86 38.5007 177.727 38.5096 177.586C38.5185 177.445 38.4855 177.304 38.4146 177.18C36.8446 174.42 32.1546 180.37 30.8046 181.44C30.6644 181.553 30.4974 181.621 30.3329 181.632C30.1684 181.643 30.0168 181.596 29.9046 181.5Z" stroke="#987E28" stroke-width="2"/>
<path d="M37.8556 200.91C35.8656 199.47 34.4356 203.19 32.9756 204.66C32.8281 204.807 32.6692 204.922 32.5205 204.99C32.3719 205.058 32.2409 205.076 32.1456 205.04C31.3856 204.746 30.7456 204.296 30.2256 203.69C30.0604 203.498 29.8972 203.331 29.7541 203.21C29.6111 203.088 29.4939 203.015 29.4156 203C28.6756 202.866 28.1756 203.12 27.9156 203.76C27.8372 203.953 27.7948 204.147 27.793 204.319C27.7913 204.492 27.8302 204.637 27.9056 204.74C29.1123 206.36 30.6056 207.62 32.3856 208.52C32.4972 208.578 32.6379 208.596 32.7928 208.573C32.9477 208.55 33.1111 208.487 33.2656 208.39C35.7456 206.803 37.3823 204.59 38.1756 201.75C38.2165 201.599 38.2077 201.438 38.1505 201.288C38.0933 201.138 37.9903 201.006 37.8556 200.91Z" stroke="#8A752B" stroke-width="2"/>
<path d="M27.7112 1.00049H60.4612L61.0112 1.30049C61.1496 1.37871 61.2648 1.48437 61.3441 1.606C61.4234 1.72763 61.4639 1.8606 61.4612 1.99049C61.0946 15.9172 60.9912 26.5872 61.1512 34.0005C61.6812 58.6305 66.8512 84.5805 70.8612 109.51C73.6512 126.92 71.6313 139.97 66.3213 156.28C62.8513 166.96 59.4312 177.63 57.0512 188.61C53.7812 203.7 53.6512 224.5 52.2312 235.51C51.0512 244.7 48.0413 250.3 39.4113 253.86C23.7313 260.33 21.2712 240.22 19.8012 230.17C17.5312 214.66 15.0812 199.5 10.6512 184.13C7.36125 172.72 3.23124 160.87 1.99124 149.44C0.197909 133 0.837923 116.6 3.91126 100.24C6.69126 85.4405 11.5312 75.1805 19.1512 58.2705C24.5312 46.3505 26.9212 38.1005 26.5512 26.0005C26.3446 19.3338 26.3079 11.2738 26.4413 1.82049C26.44 1.69632 26.4911 1.57502 26.585 1.47929C26.6789 1.38357 26.8091 1.32 26.9512 1.30049C27.2312 1.26715 27.4846 1.16715 27.7112 1.00049ZM48.5312 57.2505C47.0213 56.5905 45.1912 60.1005 44.5112 61.0905C44.3195 61.3652 44.0425 61.5706 43.7204 61.6767C43.3984 61.7829 43.0483 61.7842 42.7213 61.6805L39.1512 60.5205C38.8795 60.43 38.5405 60.4441 38.1913 60.5605C33.3213 62.2205 43.1412 65.8205 44.3712 65.9805C44.5455 66.0041 44.7147 65.9915 44.8535 65.9446C44.9922 65.8978 45.0932 65.8191 45.1412 65.7205L48.8513 57.9805C48.882 57.9172 48.8981 57.8477 48.8986 57.7762C48.8991 57.7047 48.8839 57.6327 48.8539 57.5644C48.824 57.4962 48.78 57.4332 48.7245 57.3792C48.6691 57.3253 48.6033 57.2815 48.5312 57.2505ZM44.1913 81.2205C43.9157 81.5273 43.5167 81.7209 43.0559 81.7715C42.5951 81.8221 42.098 81.7268 41.6412 81.5005L38.4713 79.9205C38.3055 79.8393 38.1274 79.7936 37.9495 79.7867C37.7715 79.7798 37.5981 79.8118 37.4413 79.8805C35.0013 80.9905 42.3013 91.0805 47.1013 81.7205C47.5746 80.8005 47.6679 80.0805 47.3813 79.5605C46.9413 78.7805 45.8779 79.3338 44.1913 81.2205ZM54.8712 105.98C55.5646 105.147 55.8146 104.197 55.6212 103.13C55.5679 102.83 55.1046 102.714 54.2312 102.78C53.926 102.806 53.6115 102.943 53.3312 103.17L49.3513 106.45C49.2551 106.531 49.1226 106.568 48.9754 106.555C48.8282 106.542 48.6752 106.481 48.5413 106.38L45.3612 104.04C45.2154 103.934 45.0458 103.869 44.8734 103.855C44.7011 103.841 44.5334 103.877 44.3912 103.96C43.5179 104.454 43.3812 105.2 43.9812 106.2C46.9612 111.174 50.5912 111.1 54.8712 105.98ZM17.9113 126.25C18.4313 125.93 27.0813 119.59 22.1313 119.24C21.9883 119.231 21.838 119.263 21.6922 119.332C21.5464 119.402 21.4091 119.507 21.2913 119.64C20.0379 121.08 18.5112 122.074 16.7112 122.62C16.5954 122.658 16.4475 122.652 16.2813 122.605C16.1152 122.558 15.9362 122.47 15.7612 122.35C15.5112 122.18 7.69124 116.82 10.3312 121.55C11.5712 123.77 13.3679 125.39 15.7213 126.41C16.0724 126.565 16.4555 126.63 16.8373 126.603C17.219 126.575 17.5878 126.454 17.9113 126.25ZM34.6512 164.7C35.1512 164.15 41.5112 157 36.7112 158.2C36.3446 158.294 36.0446 158.447 35.8112 158.66L32.6913 161.55C32.6071 161.625 32.4713 161.648 32.3082 161.615C32.1451 161.582 31.9654 161.496 31.8012 161.37L28.2312 158.65C28.1324 158.577 28.0013 158.539 27.8538 158.543C27.7063 158.546 27.549 158.591 27.4012 158.67C24.7712 160.13 30.9913 164.66 31.9713 165.17C32.4076 165.397 32.9064 165.474 33.3908 165.389C33.8751 165.304 34.3181 165.062 34.6512 164.7ZM29.9012 181.5L26.0713 178.33C25.7878 178.092 25.4486 177.968 25.1212 177.98C21.0512 178.16 28.2612 184.95 28.9612 185.47C29.2071 185.656 29.5035 185.759 29.8062 185.764C30.1089 185.77 30.4018 185.677 30.6412 185.5C33.5546 183.34 36.1279 180.83 38.3612 177.97C38.4469 177.861 38.4974 177.727 38.5063 177.586C38.5152 177.446 38.4821 177.304 38.4113 177.18C36.8413 174.42 32.1512 180.37 30.8012 181.44C30.661 181.554 30.4941 181.622 30.3296 181.633C30.1651 181.644 30.0135 181.597 29.9012 181.5ZM37.8513 200.91C35.8613 199.47 34.4313 203.19 32.9713 204.66C32.8238 204.807 32.6648 204.923 32.5162 204.991C32.3675 205.059 32.2366 205.076 32.1412 205.04C31.3812 204.747 30.7413 204.297 30.2213 203.69C30.0561 203.498 29.8928 203.332 29.7498 203.21C29.6067 203.088 29.4895 203.016 29.4113 203C28.6713 202.867 28.1713 203.12 27.9113 203.76C27.8328 203.954 27.7904 204.147 27.7887 204.32C27.7869 204.493 27.8258 204.638 27.9012 204.74C29.1079 206.36 30.6013 207.62 32.3813 208.52C32.4929 208.578 32.6335 208.597 32.7885 208.574C32.9434 208.551 33.1067 208.487 33.2612 208.39C35.7412 206.804 37.3779 204.59 38.1712 201.75C38.2121 201.6 38.2033 201.439 38.1461 201.289C38.0889 201.139 37.986 201.007 37.8513 200.91Z" fill="#FFD945"/>
<path d="M44.5135 61.0905C45.1935 60.1005 47.0235 56.5905 48.5335 57.2505C48.6056 57.2815 48.6713 57.3252 48.7268 57.3792C48.7823 57.4332 48.8263 57.4962 48.8562 57.5644C48.8861 57.6327 48.9013 57.7047 48.9009 57.7762C48.9004 57.8477 48.8843 57.9172 48.8535 57.9805L45.1435 65.7205C45.0954 65.8191 44.9945 65.8978 44.8557 65.9446C44.7169 65.9915 44.5478 66.0041 44.3735 65.9805C43.1435 65.8205 33.3235 62.2205 38.1935 60.5605C38.5428 60.4441 38.8818 60.43 39.1535 60.5205L42.7235 61.6805C43.0506 61.7842 43.4007 61.7829 43.7227 61.6767C44.0447 61.5706 44.3218 61.3652 44.5135 61.0905Z" fill="#30230B"/>
<path d="M44.1929 81.2205C45.8796 79.3338 46.9429 78.7805 47.3829 79.5605C47.6696 80.0805 47.5763 80.8005 47.1029 81.7205C42.3029 91.0805 35.0029 80.9905 37.4429 79.8805C37.5998 79.8118 37.7732 79.7798 37.9511 79.7867C38.129 79.7936 38.3071 79.8393 38.4729 79.9205L41.6429 81.5005C42.0996 81.7268 42.5967 81.8221 43.0575 81.7715C43.5184 81.7209 43.9173 81.5273 44.1929 81.2205Z" fill="#30230B"/>
<path d="M54.8737 105.98C50.5937 111.1 46.9637 111.174 43.9837 106.2C43.3837 105.2 43.5204 104.454 44.3937 103.96C44.5359 103.877 44.7035 103.841 44.8759 103.855C45.0483 103.869 45.2178 103.934 45.3637 104.04L48.5437 106.38C48.6776 106.481 48.8307 106.542 48.9779 106.555C49.125 106.567 49.2576 106.531 49.3537 106.45L53.3337 103.17C53.6139 102.942 53.9284 102.806 54.2337 102.78C55.107 102.714 55.5704 102.83 55.6237 103.13C55.817 104.197 55.567 105.147 54.8737 105.98Z" fill="#30230B"/>
<path d="M22.1327 119.24C27.0827 119.59 18.4327 125.93 17.9127 126.25C17.5892 126.454 17.2205 126.574 16.8387 126.602C16.457 126.63 16.0738 126.564 15.7227 126.41C13.3694 125.39 11.5727 123.77 10.3327 121.55C7.69268 116.82 15.5127 122.18 15.7627 122.35C15.9376 122.47 16.1166 122.558 16.2828 122.605C16.4489 122.652 16.5968 122.657 16.7127 122.62C18.5127 122.074 20.0394 121.08 21.2927 119.64C21.4106 119.507 21.5478 119.402 21.6936 119.332C21.8395 119.263 21.9898 119.231 22.1327 119.24Z" fill="#30230B"/>
<path d="M34.6511 164.7C34.3179 165.062 33.875 165.304 33.3907 165.389C32.9063 165.474 32.4075 165.397 31.9711 165.17C30.9911 164.66 24.7711 160.13 27.4011 158.67C27.5489 158.591 27.7062 158.546 27.8537 158.543C28.0011 158.539 28.1323 158.577 28.2311 158.65L31.8011 161.37C31.9653 161.495 32.145 161.582 32.3081 161.615C32.4712 161.648 32.607 161.625 32.6911 161.55L35.8111 158.66C36.0445 158.447 36.3445 158.294 36.7111 158.2C41.5111 157 35.1511 164.15 34.6511 164.7Z" fill="#30230B"/>
<path d="M30.8007 181.441C32.1507 180.371 36.8407 174.421 38.4107 177.181C38.4815 177.305 38.5146 177.446 38.5057 177.587C38.4968 177.727 38.4463 177.861 38.3607 177.971C36.1273 180.831 33.554 183.341 30.6407 185.501C30.4012 185.677 30.1083 185.77 29.8056 185.764C29.5029 185.759 29.2065 185.656 28.9607 185.471C28.2607 184.951 21.0507 178.161 25.1207 177.981C25.448 177.968 25.7872 178.093 26.0707 178.331L29.9007 181.501C30.0129 181.597 30.1645 181.644 30.329 181.633C30.4935 181.622 30.6604 181.554 30.8007 181.441Z" fill="#30230B"/>
<path d="M32.9717 204.66C34.4317 203.19 35.8617 199.47 37.8517 200.91C37.9864 201.006 38.0893 201.138 38.1466 201.289C38.2038 201.439 38.2126 201.6 38.1717 201.75C37.3784 204.59 35.7417 206.804 33.2617 208.39C33.1072 208.487 32.9438 208.551 32.7889 208.573C32.634 208.596 32.4933 208.578 32.3817 208.52C30.6017 207.62 29.1084 206.36 27.9017 204.74C27.8263 204.638 27.7874 204.492 27.7891 204.32C27.7909 204.147 27.8333 203.954 27.9117 203.76C28.1717 203.12 28.6717 202.867 29.4117 203C29.4899 203.016 29.6071 203.088 29.7502 203.21C29.8933 203.332 30.0565 203.498 30.2217 203.69C30.7417 204.297 31.3817 204.747 32.1417 205.04C32.237 205.076 32.368 205.059 32.5166 204.991C32.6653 204.923 32.8242 204.807 32.9717 204.66Z" fill="#141011"/>
</svg>
