<svg width="127" height="172" viewBox="0 0 127 172" fill="none" xmlns="http://www.w3.org/2000/svg">
<path d="M53.7899 17.248C52.0566 18.4614 50.7266 20.2081 49.8 22.4881C49.12 24.1614 49.6767 25.1014 51.47 25.308C60.03 26.268 69.12 26.7181 77.06 29.2681C80.64 30.4147 84.9666 31.9447 90.0399 33.8581C93.5733 35.1914 93.75 36.728 90.57 38.468" stroke="#FFB5A8" stroke-width="2"/>
<path d="M90.569 38.4675C89.629 39.1875 88.779 39.5075 87.609 38.9275C77.439 33.9075 65.119 32.5975 53.309 31.6375C51.629 31.5075 49.5091 30.4775 47.3491 31.1275C47.2042 31.1707 47.0713 31.2506 46.9615 31.3603C46.8518 31.47 46.7686 31.6063 46.719 31.7575C44.989 37.0375 48.4291 38.4875 52.9091 39.2175C59.7691 40.3375 66.929 41.0175 73.559 43.2175C75.8723 43.9841 78.2157 44.7175 80.589 45.4175C80.7239 45.456 80.8394 45.5426 80.9119 45.6597C80.9844 45.7768 81.0084 45.9155 80.979 46.0475C80.6123 47.7008 79.4757 48.4008 77.569 48.1475C67.4824 46.8142 57.4257 45.4308 47.399 43.9975C45.9524 43.7908 44.9957 44.3808 44.529 45.7675C42.759 50.9775 44.759 52.3375 49.419 53.9275C60.3857 57.6808 71.6724 59.7075 83.279 60.0075" stroke="#FBAFA3" stroke-width="2"/>
<path d="M83.2803 60.0078C82.727 61.2945 81.7403 62.5878 80.3203 63.8878" stroke="#8D909A" stroke-width="2"/>
<path d="M80.3196 63.8879C73.2862 65.2079 66.2862 64.9212 59.3196 63.0279C49.8462 60.4612 44.1029 59.0246 42.0896 58.7179C34.4896 57.5579 35.9995 65.0679 38.1195 69.2879C38.2685 69.5788 38.5131 69.8057 38.8096 69.9279C40.4696 70.5946 42.4829 71.1079 44.8496 71.4679C53.3429 72.7679 60.5862 73.6946 66.5796 74.2479C66.7394 74.2598 66.8917 74.3117 67.0202 74.398C67.1488 74.4843 67.2488 74.6017 67.3096 74.7379C68.7796 78.0379 66.2296 79.8979 63.0896 79.5679C54.2696 78.6479 45.4329 77.9246 36.5796 77.3979C35.0529 77.3046 34.0662 78.0179 33.6195 79.5379C33.0329 81.5379 32.9196 83.5246 33.2796 85.4979C33.3102 85.6692 33.3957 85.8253 33.5226 85.9413C33.6494 86.0572 33.8102 86.1265 33.9795 86.1379C45.0662 86.7113 53.4262 87.2579 59.0595 87.7779C60.2195 87.8846 61.0695 88.5446 61.6095 89.7579" stroke="#FBAFA3" stroke-width="2"/>
<path d="M61.6089 89.7578C61.0589 92.8178 57.1189 89.6378 55.3789 93.1378" stroke="#8D909A" stroke-width="2"/>
<path d="M55.381 93.1377L34.011 93.7777C32.5376 93.8243 31.2809 94.2144 30.2409 94.9477C26.5709 97.5677 31.531 101.548 33.831 102.028C37.331 102.754 40.8409 103.498 44.3609 104.258" stroke="#FBAFA3" stroke-width="2"/>
<path d="M44.3606 104.258L43.1406 109.298" stroke="#8D909A" stroke-width="2"/>
<path d="M43.1388 109.298C37.2321 108.605 31.5554 107.222 26.1087 105.148C23.8487 104.288 22.2588 104.578 21.3388 106.018C14.8188 116.268 23.1988 117.148 30.2388 117.818C32.9654 118.078 35.5821 118.725 38.0888 119.758" stroke="#FBAFA3" stroke-width="2"/>
<path d="M38.0876 119.758C38.3943 121.611 37.981 122.924 36.8477 123.698" stroke="#8D909A" stroke-width="2"/>
<path d="M36.8503 123.698C29.4603 124.848 23.4903 123.048 16.3203 123.298" stroke="#FBAFA3" stroke-width="2"/>
<path d="M16.3192 123.298C14.8859 123.331 14.2325 124.068 14.3592 125.508" stroke="#F1E8C0" stroke-width="2"/>
<path d="M14.3605 125.508C12.7305 129.198 14.0405 131.848 18.1505 132.168C21.5438 132.434 24.9439 132.754 28.3505 133.128" stroke="#FBAFA3" stroke-width="2"/>
<path d="M28.3477 133.127C28.861 133.88 29.1843 134.66 29.3176 135.467" stroke="#8D909A" stroke-width="2"/>
<path d="M29.3211 135.468C28.1078 136.828 26.6244 137.701 24.8711 138.088" stroke="#808080" stroke-width="2"/>
<path d="M24.8701 138.088C21.3101 137.535 17.7434 137.178 14.1701 137.018C10.3701 136.848 8.31008 138.828 9.12008 142.648C9.17342 142.875 9.33346 143.151 9.60013 143.478L12.2401 146.658" stroke="#FFB5A8" stroke-width="2"/>
<path d="M12.2406 146.657L12.1706 147.777C12.1644 147.91 12.1223 148.053 12.0468 148.197C11.9712 148.341 11.8637 148.484 11.7306 148.617C5.2606 155.047 -0.0893791 158.027 1.19062 168.347C1.46395 170.601 2.60066 171.074 4.60066 169.767C7.43399 167.914 10.1073 165.847 12.6206 163.567C28.3306 149.317 44.7106 135.507 59.7106 120.517C72.084 108.157 84.8173 96.1807 97.9107 84.5873C103.781 79.3873 108.371 74.8373 112.601 69.3073C125.701 52.1573 134.721 17.1574 108.861 5.70737C92.8073 -1.3993 77.1606 -0.459323 61.9206 8.52734C58.3673 10.6273 55.6573 13.534 53.7906 17.2473" stroke="#808080" stroke-width="2"/>
<path d="M12.2383 146.658C12.5583 145.858 12.6883 145.045 12.6283 144.218C12.6167 144.049 12.6564 143.884 12.7396 143.755C12.8228 143.626 12.9435 143.541 13.0783 143.518L18.0583 142.698C18.9222 142.556 19.6568 142.184 20.1283 141.648C21.4083 140.195 22.9883 139.008 24.8683 138.088" stroke="#803529" stroke-width="2"/>
<path d="M29.318 135.468L30.588 135.548C30.948 135.568 31.0247 135.728 30.818 136.028C29.428 138.068 24.808 141.758 22.348 142.188C21.9947 142.248 21.6947 142.378 21.448 142.578C20.008 143.765 18.5613 144.938 17.108 146.098C15.468 147.398 14.848 149.388 13.098 150.818C8.48802 154.568 6.05799 159.288 4.18799 164.758C3.74799 166.038 4.06466 166.311 5.138 165.578C9.35133 162.691 13.298 159.468 16.978 155.908C17.2065 155.693 17.3766 155.394 17.468 155.048C17.878 153.508 24.818 148.798 26.418 147.888C28.898 146.475 30.7546 145.071 31.988 143.678C35.1213 140.151 39.9813 135.428 46.568 129.508C50.2947 126.155 59.4413 117.175 74.008 102.568C90.388 86.1479 111.518 74.2579 119.768 49.5679C124.618 35.0079 124.418 16.9479 108.658 9.14787C101.631 5.67454 93.5247 3.92119 84.338 3.88786C76.358 3.85786 68.008 7.94784 61.148 11.7478C53.108 16.1978 61.478 17.7079 64.738 14.5079C64.8744 14.3716 65.0257 14.2666 65.1767 14.2034C65.3277 14.1402 65.473 14.1211 65.598 14.1479C68.0447 14.6812 70.3547 15.5778 72.528 16.8378C72.828 17.0045 73.1613 17.0945 73.528 17.1079C83.938 17.3679 99.418 21.3879 98.538 34.7879C98.4446 36.1945 98.108 37.2712 97.528 38.0179C96.5413 39.2912 95.1913 39.3845 93.478 38.2979" stroke="#0E101B" stroke-width="2"/>
<path d="M93.4791 38.2981C99.4491 37.3381 96.6591 31.5581 94.6191 28.6081C91.1291 23.5881 80.6191 20.1681 75.1391 19.1481C69.1124 18.0281 61.9957 17.3947 53.7891 17.248" stroke="#803529" stroke-width="2"/>
<path d="M28.3507 133.127C26.2907 126.607 33.6407 126.317 36.8507 123.697" stroke="#89403E" stroke-width="2"/>
<path d="M38.0898 119.758C43.4632 117.785 45.1465 114.298 43.1398 109.298" stroke="#89403E" stroke-width="2"/>
<path d="M44.3594 104.258C47.306 102.144 50.5027 101.168 53.9494 101.328C54.1635 101.338 54.3771 101.299 54.5732 101.212C54.7694 101.126 54.9428 100.995 55.0796 100.83C55.2164 100.665 55.3129 100.471 55.3615 100.262C55.4101 100.053 55.4093 99.8361 55.3594 99.6277C54.806 97.301 54.8127 95.1377 55.3794 93.1377" stroke="#89403E" stroke-width="2"/>
<path d="M61.6094 89.7578C62.6494 88.1845 64.0127 87.0512 65.6994 86.3578C65.8514 86.2961 65.9857 86.2042 66.0917 86.0895C66.1976 85.9749 66.2722 85.8407 66.3094 85.6978C66.8294 83.7578 66.5194 79.4478 69.0694 78.4878C69.2061 78.4367 69.3201 78.3414 69.3887 78.2209C69.4573 78.1004 69.4753 77.9636 69.4394 77.8378L68.6094 74.7578" stroke="#89403E" stroke-width="2"/>
<path d="M68.6094 74.7584C69.8594 77.3984 77.7794 73.0084 76.7394 70.0684" stroke="#0E101B" stroke-width="2"/>
<path d="M76.7383 70.0677C78.3449 68.3077 79.5383 66.2477 80.3183 63.8877" stroke="#89403E" stroke-width="2"/>
<path d="M83.2788 60.0078L80.8388 50.7478C80.7972 50.5909 80.7897 50.4267 80.8166 50.2649C80.8435 50.103 80.9044 49.9467 80.9957 49.8051C81.0869 49.6636 81.2067 49.5396 81.3481 49.4405C81.4894 49.3414 81.6494 49.269 81.8188 49.2278L84.6788 48.5078" stroke="#89403E" stroke-width="2"/>
<path d="M84.6797 48.5078C86.893 49.2145 88.3564 48.7279 89.0697 47.0479" stroke="#623E40" stroke-width="2"/>
<path d="M89.0703 47.0478C90.3803 46.3778 90.2303 40.9778 91.1103 39.0078" stroke="#89403E" stroke-width="2"/>
<path d="M91.1094 39.0078L93.4794 38.2979" stroke="#8D4543" stroke-width="2"/>
<path d="M91.1103 39.0078L90.5703 38.4678" stroke="#FB654C" stroke-width="2"/>
<path d="M76.7399 70.0684C73.6899 70.3984 68.2599 71.1884 68.6099 74.7584" stroke="#7C3023" stroke-width="2"/>
<path d="M89.0697 47.0479C87.3564 47.0212 85.893 47.5079 84.6797 48.5079" stroke="#D05E49" stroke-width="2"/>
<path d="M16.3194 123.298L14.3594 125.508" stroke="#ED9864" stroke-width="2"/>
<path d="M12.2406 146.657C12.5606 145.857 12.6906 145.044 12.6306 144.217C12.6191 144.049 12.6588 143.884 12.742 143.754C12.8251 143.625 12.9459 143.541 13.0806 143.517L18.0606 142.697C18.9245 142.556 19.6592 142.183 20.1306 141.647C21.4106 140.194 22.9906 139.007 24.8706 138.087C26.6239 137.701 28.1073 136.827 29.3206 135.467L30.5906 135.547C30.9506 135.567 31.0273 135.727 30.8206 136.027C29.4306 138.067 24.8107 141.757 22.3507 142.187C21.9973 142.247 21.6973 142.377 21.4506 142.577C20.0106 143.764 18.5639 144.937 17.1106 146.097C15.4706 147.397 14.8507 149.387 13.1007 150.817C8.49065 154.567 6.06062 159.287 4.19062 164.757C3.75062 166.037 4.0673 166.311 5.14063 165.577C9.35397 162.691 13.3006 159.467 16.9806 155.907C17.2092 155.692 17.3793 155.394 17.4706 155.047C17.8806 153.507 24.8206 148.797 26.4206 147.887C28.9006 146.474 30.7573 145.071 31.9906 143.677C35.1239 140.151 39.984 135.427 46.5706 129.507C50.2973 126.154 59.444 117.174 74.0106 102.567C90.3906 86.1474 111.521 74.2574 119.771 49.5674C124.621 35.0074 124.421 16.9474 108.661 9.14737C101.634 5.67404 93.5273 3.92069 84.3406 3.88736C76.3606 3.85736 68.0106 7.94734 61.1506 11.7473C53.1106 16.1973 61.4806 17.7074 64.7406 14.5074C64.877 14.3711 65.0284 14.2661 65.1793 14.2029C65.3303 14.1397 65.4757 14.1206 65.6007 14.1474C68.0473 14.6807 70.3573 15.5773 72.5306 16.8373C72.8307 17.004 73.164 17.094 73.5306 17.1074C83.9406 17.3674 99.4206 21.3874 98.5406 34.7874C98.4473 36.194 98.1106 37.2707 97.5306 38.0174C96.544 39.2907 95.1939 39.384 93.4806 38.2974C99.4506 37.3374 96.6606 31.5574 94.6206 28.6074C91.1306 23.5874 80.6206 20.1674 75.1406 19.1474C69.114 18.0274 61.9973 17.394 53.7906 17.2473C55.6573 13.534 58.3673 10.6273 61.9206 8.52734C77.1606 -0.459323 92.8073 -1.3993 108.861 5.70737C134.721 17.1574 125.701 52.1573 112.601 69.3073C108.371 74.8373 103.781 79.3873 97.9107 84.5873C84.8173 96.1807 72.084 108.157 59.7106 120.517C44.7106 135.507 28.3306 149.317 12.6206 163.567C10.1073 165.847 7.43399 167.914 4.60066 169.767C2.60066 171.074 1.46395 170.601 1.19062 168.347C-0.0893792 158.027 5.2606 155.047 11.7306 148.617C11.8637 148.484 11.9712 148.341 12.0468 148.197C12.1223 148.053 12.1644 147.91 12.1706 147.777L12.2406 146.657Z" fill="black"/>
<path d="M29.3219 135.467C29.1886 134.66 28.8653 133.88 28.3519 133.127C26.2919 126.607 33.6419 126.317 36.8519 123.697C37.9853 122.924 38.3986 121.61 38.0919 119.757C43.4652 117.784 45.1486 114.297 43.1419 109.297L44.3619 104.257C47.3085 102.144 50.5052 101.167 53.9519 101.327C54.166 101.337 54.3796 101.298 54.5757 101.212C54.7719 101.125 54.9453 100.995 55.0821 100.83C55.2189 100.665 55.3154 100.47 55.364 100.261C55.4126 100.052 55.4118 99.8353 55.3619 99.6269C54.8085 97.3002 54.8152 95.1369 55.3819 93.1369C57.1219 89.6369 61.0619 92.8169 61.6119 89.7569C62.6519 88.1835 64.0152 87.0502 65.7019 86.3569C65.8539 86.2951 65.9882 86.2032 66.0942 86.0886C66.2001 85.974 66.2747 85.8398 66.3119 85.6969C66.8319 83.7569 66.5219 79.4469 69.0719 78.4869C69.2086 78.4358 69.3226 78.3405 69.3912 78.22C69.4598 78.0995 69.4778 77.9627 69.4419 77.8369L68.6119 74.7569C69.8619 77.3969 77.7819 73.0069 76.7419 70.0669C78.3485 68.3069 79.5419 66.2469 80.3219 63.8869C81.7419 62.5869 82.7286 61.2935 83.2819 60.0069L80.8419 50.7469C80.8003 50.59 80.7928 50.4258 80.8197 50.2639C80.8466 50.1021 80.9075 49.9458 80.9988 49.8042C81.09 49.6627 81.2099 49.5387 81.3512 49.4396C81.4925 49.3404 81.6526 49.2681 81.8219 49.2269L84.6819 48.5069C86.8952 49.2135 88.3586 48.7269 89.0719 47.0469C90.3819 46.3769 90.2319 40.9769 91.1119 39.0069L93.4819 38.2969C95.1952 39.3836 96.5453 39.2902 97.5319 38.0169C98.1119 37.2702 98.4485 36.1935 98.5419 34.7869C99.4219 21.3869 83.9419 17.3669 73.5319 17.1069C73.1653 17.0936 72.8319 17.0035 72.5319 16.8369C70.3586 15.5769 68.0486 14.6802 65.6019 14.1469C65.4769 14.1201 65.3316 14.1393 65.1806 14.2025C65.0296 14.2657 64.8783 14.3707 64.7419 14.5069C61.4819 17.7069 53.1119 16.1969 61.1519 11.7469C68.0119 7.94687 76.3619 3.85688 84.3419 3.88688C93.5286 3.92022 101.635 5.67356 108.662 9.14689C124.422 16.9469 124.622 35.0069 119.772 49.5669C111.522 74.2569 90.3919 86.1469 74.0119 102.567C59.4452 117.174 50.2986 126.154 46.5719 129.507C39.9852 135.427 35.1252 140.15 31.9919 143.677C30.7585 145.07 28.9019 146.474 26.4219 147.887C24.8219 148.797 17.8819 153.507 17.4719 155.047C17.3806 155.393 17.2104 155.692 16.9819 155.907C13.3019 159.467 9.35524 162.69 5.1419 165.577C4.06857 166.31 3.75189 166.037 4.19189 164.757C6.06189 159.287 8.49193 154.567 13.1019 150.817C14.8519 149.387 15.4719 147.397 17.1119 146.097C18.5652 144.937 20.0119 143.764 21.4519 142.577C21.6986 142.377 21.9986 142.247 22.3519 142.187C24.8119 141.757 29.4319 138.067 30.8219 136.027C31.0286 135.727 30.9519 135.567 30.5919 135.547L29.3219 135.467Z" fill="#1B2035"/>
<path d="M53.7899 17.248C61.9966 17.3947 69.1133 18.0281 75.14 19.1481C80.62 20.1681 91.13 23.5881 94.62 28.6081C96.66 31.5581 99.4499 37.3381 93.4799 38.2981L91.11 39.0081L90.57 38.468C93.75 36.728 93.5733 35.1914 90.0399 33.8581C84.9666 31.9447 80.64 30.4147 77.06 29.2681C69.12 26.7181 60.03 26.268 51.47 25.308C49.6767 25.1014 49.12 24.1614 49.8 22.4881C50.7266 20.2081 52.0566 18.4614 53.7899 17.248Z" fill="#FF6A51"/>
<path d="M90.5729 38.4675L91.1129 39.0075C90.2329 40.9775 90.3829 46.3775 89.0729 47.0475C87.3596 47.0208 85.8963 47.5075 84.6829 48.5075L81.8229 49.2275C81.6536 49.2687 81.4936 49.341 81.3522 49.4401C81.2109 49.5393 81.0911 49.6632 80.9998 49.8048C80.9085 49.9464 80.8477 50.1027 80.8207 50.2645C80.7938 50.4264 80.8013 50.5906 80.843 50.7475L83.283 60.0075C71.6763 59.7075 60.3896 57.6808 49.4229 53.9275C44.7629 52.3375 42.763 50.9775 44.533 45.7675C44.9996 44.3808 45.9563 43.7908 47.4029 43.9975C57.4296 45.4308 67.4863 46.8142 77.5729 48.1475C79.4796 48.4008 80.6162 47.7008 80.9829 46.0475C81.0123 45.9155 80.9883 45.7768 80.9158 45.6597C80.8433 45.5426 80.7278 45.456 80.593 45.4175C78.2196 44.7175 75.8763 43.9841 73.5629 43.2175C66.9329 41.0175 59.773 40.3375 52.913 39.2175C48.433 38.4875 44.993 37.0375 46.723 31.7575C46.7725 31.6063 46.8557 31.47 46.9654 31.3603C47.0752 31.2506 47.2081 31.1707 47.353 31.1275C49.513 30.4775 51.6329 31.5075 53.3129 31.6375C65.1229 32.5975 77.4429 33.9075 87.6129 38.9275C88.7829 39.5075 89.6329 39.1875 90.5729 38.4675Z" fill="#F75F46"/>
<path d="M89.0697 47.0479C88.3564 48.7279 86.893 49.2146 84.6797 48.5079C85.893 47.5079 87.3564 47.0212 89.0697 47.0479Z" fill="#A85C4B"/>
<path d="M80.3235 63.8879C79.5435 66.2479 78.3501 68.3079 76.7435 70.0679C73.6935 70.3979 68.2634 71.1879 68.6134 74.7579L69.4435 77.8379C69.4794 77.9637 69.4613 78.1005 69.3927 78.221C69.3242 78.3415 69.2101 78.4368 69.0735 78.4879C66.5235 79.4479 66.8335 83.7579 66.3135 85.6979C66.2763 85.8408 66.2017 85.975 66.0957 86.0896C65.9898 86.2043 65.8554 86.2962 65.7035 86.3579C64.0168 87.0513 62.6534 88.1846 61.6134 89.7579C61.0734 88.5446 60.2235 87.8846 59.0635 87.7779C53.4301 87.2579 45.0701 86.7113 33.9834 86.1379C33.8141 86.1265 33.6533 86.0572 33.5265 85.9413C33.3996 85.8253 33.3141 85.6692 33.2835 85.4979C32.9235 83.5246 33.0368 81.5379 33.6235 79.5379C34.0701 78.0179 35.0568 77.3046 36.5835 77.3979C45.4368 77.9246 54.2735 78.6479 63.0935 79.5679C66.2335 79.8979 68.7835 78.0379 67.3135 74.7379C67.2527 74.6017 67.1527 74.4843 67.0242 74.398C66.8956 74.3117 66.7433 74.2598 66.5835 74.2479C60.5901 73.6946 53.3468 72.7679 44.8535 71.4679C42.4868 71.1079 40.4735 70.5946 38.8135 69.9279C38.5171 69.8057 38.2724 69.5788 38.1235 69.2879C36.0035 65.0679 34.4935 57.5579 42.0935 58.7179C44.1068 59.0246 49.8501 60.4612 59.3235 63.0279C66.2901 64.9212 73.2901 65.2079 80.3235 63.8879Z" fill="#F75F46"/>
<path d="M76.7399 70.0674C77.7799 73.0074 69.8599 77.3974 68.6099 74.7574C68.2599 71.1874 73.6899 70.3974 76.7399 70.0674Z" fill="black"/>
<path d="M55.381 93.1377C54.8143 95.1377 54.8076 97.301 55.3609 99.6277C55.4109 99.8361 55.4116 100.053 55.3631 100.262C55.3145 100.471 55.218 100.665 55.0812 100.83C54.9443 100.995 54.771 101.126 54.5748 101.212C54.3786 101.299 54.165 101.338 53.951 101.328C50.5043 101.168 47.3076 102.144 44.3609 104.258C40.8409 103.498 37.331 102.754 33.831 102.028C31.531 101.548 26.5709 97.5677 30.2409 94.9477C31.2809 94.2144 32.5376 93.8243 34.011 93.7777L55.381 93.1377Z" fill="#F75F46"/>
<path d="M43.1427 109.297C45.1493 114.297 43.466 117.784 38.0927 119.757C35.586 118.724 32.9693 118.077 30.2427 117.817C23.2027 117.147 14.8227 116.267 21.3427 106.017C22.2627 104.577 23.8527 104.287 26.1127 105.147C31.5593 107.221 37.236 108.604 43.1427 109.297Z" fill="#F75F46"/>
<path d="M16.3231 123.297L14.3631 125.507C14.2364 124.067 14.8898 123.33 16.3231 123.297Z" fill="#E3D181"/>
<path d="M16.3205 123.298C23.4905 123.048 29.4605 124.848 36.8505 123.698C33.6405 126.318 26.2905 126.608 28.3505 133.128C24.9439 132.754 21.5438 132.434 18.1505 132.168C14.0405 131.848 12.7305 129.198 14.3605 125.508L16.3205 123.298Z" fill="#F75F46"/>
<path d="M24.8701 138.088C22.9901 139.008 21.4101 140.195 20.1301 141.648C19.6586 142.184 18.924 142.556 18.0601 142.698L13.0801 143.518C12.9453 143.541 12.8246 143.626 12.7414 143.755C12.6582 143.884 12.6185 144.049 12.6301 144.218C12.6901 145.045 12.5601 145.858 12.2401 146.658L9.60013 143.478C9.33346 143.151 9.17342 142.875 9.12008 142.648C8.31008 138.828 10.3701 136.848 14.1701 137.018C17.7434 137.178 21.3101 137.535 24.8701 138.088Z" fill="#FF6A51"/>
</svg>
