<svg width="124" height="221" viewBox="0 0 124 221" fill="none" xmlns="http://www.w3.org/2000/svg">
<path d="M44.0778 119.21C43.4144 132.45 40.4354 145.153 35.141 157.32C28.4157 172.77 26.2343 193.47 27.9835 209.73C28.476 214.32 30.0744 218.75 35.0806 219.02C36.8097 219.12 37.4028 218.35 36.8599 216.71C33.8441 207.703 32.8992 198.62 34.0251 189.46" stroke="#88868B" stroke-width="2"/>
<path d="M34.0273 189.46C34.9983 187.113 35.3062 184.697 34.9513 182.21" stroke="#B1BEBB" stroke-width="2"/>
<path d="M34.9531 182.21C38.934 168.48 44.5937 153.85 46.564 140.25C47.4889 133.87 48.0183 127.386 48.1523 120.8" stroke="#88868B" stroke-width="2"/>
<path d="M48.1485 120.8C55.7081 120.86 61.3376 118.4 66.364 112.67C68.7867 109.89 72.285 104.21 76.3262 103.52C81.0912 102.71 86.1778 107.27 91.375 107.14C103.137 106.84 114.084 97.2501 120.196 88.1601C126.64 78.5501 115.572 72.6801 108.042 69.6901C105.275 68.5901 104.832 66.8901 106.715 64.5901C110.525 59.9601 115.18 53.9501 117.11 48.2701C120.468 38.4401 115.542 31.2401 105.097 31.6301C103.113 31.7101 101.408 30.6468 99.9802 28.4401C99.8166 28.1731 99.7395 27.852 99.7591 27.5201C100.764 14.3901 96.3511 -0.0899005 79.4224 8.6401C75.3209 10.7601 71.4909 14.0701 67.4497 13.3401C67.2973 13.315 67.1493 13.2569 67.0146 13.1693C66.8799 13.0817 66.7612 12.9664 66.6656 12.8301C62.2122 6.5201 59.2568 1.03008 50.712 1.00008C42.1069 0.970084 33.6324 8.94013 33.8536 17.7301C33.8938 19.1401 35.3012 27.8101 31.079 24.6901C28.7267 22.9601 26.6157 20.8601 23.8412 19.9901C13.708 16.8201 2.75057 19.7401 1.17229 31.7401C0.0966562 39.9701 4.20817 44.8301 9.30488 52.0601C13.1651 57.5501 8.46048 62.6301 5.80657 67.2201C0.639487 76.1401 0.0362956 85.9401 10.0488 91.3101C19.2872 96.2701 25.8315 90.1201 31.833 84.0501C34.4567 81.4001 34.8488 84.6501 34.7181 86.3001C33.8536 97.5801 34.306 111.45 44.0772 119.21" stroke="#F7AD9F" stroke-width="2"/>
<path d="M48.1494 120.8C47.2782 119.454 45.9211 118.924 44.0781 119.21" stroke="#813B3A" stroke-width="2"/>
<path d="M34.9531 182.21C34.1965 184.57 33.8885 186.987 34.0292 189.46" stroke="#3B4C56" stroke-width="2"/>
<path d="M38.4389 75.7598C41.2268 79.3998 42.7548 83.5265 43.0229 88.1398C43.3546 93.9598 44.1789 111.16 54.2316 109.6C58.7754 108.89 63.7213 102.55 66.7572 98.8098C71.8137 92.5598 79.9966 89.9998 86.8525 95.4298C91.5371 99.1398 100.313 97.6199 104.917 95.0499C108.396 93.1099 116.176 85.8898 115.332 81.1198C113.874 72.8798 100.776 74.7698 98.8153 68.7598C97.3275 64.2398 105.329 57.9598 107.712 54.9598C110.798 51.0698 115.151 43.5798 110.084 39.8498C107.27 37.7798 101.962 37.8298 98.3428 36.9498C85.9177 33.9398 101.69 15.1499 85.2844 13.1099C78.3179 12.2499 73.4222 17.7598 69.0996 19.6398C63.3696 22.1198 60.213 14.8699 57.7802 11.2999C51.6984 2.34986 36.7801 7.62982 41.6356 18.5098C43.6662 23.0698 42.594 26.3698 38.4188 28.4098C29.5221 32.7498 20.8064 21.5498 11.3871 25.2698C6.12952 27.3398 7.96909 34.0598 10.3114 37.8398C15.5287 46.2498 29.13 51.0898 20.8868 63.8998C18.0419 68.3298 5.91844 78.6298 13.6791 84.4298C22.626 91.1398 28.1046 78.7699 34.1966 74.9899C35.8452 73.9632 37.2594 74.2198 38.4389 75.7598Z" stroke="#F78B42" stroke-width="2"/>
<path d="M47.4066 55.8701C48.2108 56.6368 48.1104 57.1001 47.1051 57.2601C45.242 57.5601 43.3119 57.7668 41.3148 57.8801C39.4651 57.9901 39.1634 59.3802 41.1539 59.7902C44.7226 60.5202 48.5828 60.5501 50.0203 64.5001C50.0723 64.6407 50.0849 64.7947 50.0567 64.9472C50.0285 65.0997 49.9606 65.2454 49.8595 65.3701C49.3871 65.9401 44.4812 71.0102 46.2405 71.4102C46.3617 71.4377 46.5058 71.4248 46.6599 71.3726C46.8141 71.3203 46.9737 71.2302 47.1251 71.1102C48.6732 69.9002 50.8547 67.9202 52.8653 68.6102C56.1425 69.7202 53.5288 75.5401 53.1468 78.0001C53.0932 78.3401 53.1835 78.3868 53.4181 78.1401C56.6852 74.6601 60.7968 66.8302 62.3952 78.1602C62.4421 78.5268 62.5962 78.5968 62.8576 78.3701C63.6216 77.7101 64.5364 73.4001 65.2401 72.0201C65.9505 70.6268 66.8385 70.3501 67.9041 71.1901L71.0002 73.6301C71.1479 73.7469 71.3087 73.8296 71.4636 73.8686C71.6185 73.9076 71.7611 73.9012 71.8748 73.8502C73.5335 73.0802 70.93 69.7001 69.975 68.3801C69.8957 68.2718 69.8529 68.1274 69.8512 67.962C69.8494 67.7967 69.8887 67.6164 69.9649 67.4401C71.1511 64.7735 72.8935 64.3468 75.1923 66.1602C75.3466 66.283 75.5281 66.3582 75.701 66.3712C75.8739 66.3841 76.0259 66.3338 76.1272 66.2302C76.7203 65.6302 74.4886 62.7501 73.996 62.1501C73.9572 62.1013 73.9294 62.0445 73.9148 61.9841C73.9002 61.9236 73.8992 61.861 73.9117 61.8007C73.9243 61.7403 73.95 61.6839 73.9872 61.6354C74.0244 61.5869 74.0721 61.5475 74.1267 61.5201C75.2526 60.9601 76.4421 60.6201 77.6954 60.5001C79.4043 60.3401 79.7361 58.8201 77.5848 58.7601C75.8356 58.7135 74.2406 58.3902 72.7997 57.7902C72.6388 57.7242 72.4947 57.6236 72.377 57.4952C72.2592 57.3668 72.1707 57.2135 72.1173 57.0458C72.0639 56.878 72.047 56.6996 72.0676 56.5227C72.0882 56.3458 72.146 56.1744 72.2368 56.0201C73.423 53.9935 74.9443 52.2535 76.8007 50.8002C76.9548 50.6789 77.0739 50.5294 77.1407 50.373C77.2075 50.2167 77.2187 50.0616 77.1726 49.9301C76.6197 48.4201 69.1004 55.7601 67.4417 49.2001C67.363 48.8807 67.3735 48.5578 67.4719 48.2701L68.9998 43.7302C69.0388 43.6076 69.0595 43.4888 69.0595 43.3866C69.0595 43.2844 69.0388 43.2026 68.9998 43.1501C68.9126 43.0368 68.8021 42.9735 68.6681 42.9601C68.5476 42.9414 68.4076 42.9736 68.2637 43.0531C68.1199 43.1326 67.9779 43.2562 67.8537 43.4102L63.7322 48.5701C62.5393 50.0635 61.6916 49.7501 61.1889 47.6301C61.0784 47.1301 59.8116 34.2102 58.0826 38.4702C57.7073 39.3835 57.466 42.1768 57.3588 46.8502C57.2281 53.1402 51.468 43.8501 50.2516 42.0801C50.1802 41.972 50.081 41.8821 49.9621 41.8178C49.8433 41.7535 49.7082 41.7166 49.568 41.7101L49.2865 41.7001C49.2367 41.6961 49.1957 41.7218 49.1668 41.7752C49.1379 41.8286 49.1219 41.9084 49.1199 42.0081C49.118 42.1079 49.1302 42.225 49.1556 42.3502C49.1811 42.4755 49.2189 42.6055 49.2663 42.7302L52.0008 50.0302C52.0284 50.1074 52.0392 50.19 52.0322 50.2711C52.0251 50.3523 52.0005 50.4297 51.9603 50.497C51.92 50.5643 51.8653 50.6197 51.8007 50.6584C51.7361 50.6972 51.6634 50.7184 51.5886 50.7202C49.3971 50.7502 42.4004 49.6501 41.0332 50.9001C40.9773 50.9514 40.9334 51.0148 40.9056 51.0848C40.8778 51.1549 40.867 51.2294 40.874 51.3016C40.8809 51.3739 40.9056 51.4417 40.9456 51.499C40.9857 51.5563 41.0399 51.6014 41.1036 51.6301C43.4492 52.6768 45.5502 54.0901 47.4066 55.8701Z" stroke="#8A6636" stroke-width="2"/>
<path d="M64.8655 64.7714C65.7727 63.9269 66.2194 62.667 66.1073 61.2688C65.9952 59.8707 65.3335 58.4488 64.2678 57.3159C63.7401 56.755 63.1291 56.2819 62.4697 55.9236C61.8102 55.5654 61.1154 55.3291 60.4246 55.2281C59.7339 55.1272 59.0609 55.1635 58.4439 55.3352C57.827 55.5069 57.2782 55.8105 56.829 56.2286C55.9219 57.0731 55.4752 58.333 55.5873 59.7311C55.6994 61.1293 56.3611 62.5513 57.4268 63.6841C57.9544 64.2451 58.5655 64.7181 59.2249 65.0763C59.8843 65.4346 60.5793 65.6709 61.27 65.7719C61.9608 65.8729 62.6338 65.8364 63.2507 65.6648C63.8677 65.4931 64.4163 65.1896 64.8655 64.7714Z" stroke="#814D39" stroke-width="2"/>
<path d="M31.131 210.14C30.4541 211.653 30.501 212.537 31.2718 212.79C31.3479 212.816 31.4294 212.821 31.5083 212.805C31.5872 212.789 31.6607 212.753 31.7216 212.699C31.7825 212.646 31.8286 212.577 31.8555 212.5C31.8824 212.423 31.8891 212.34 31.8749 212.26L31.4224 210.02C31.3688 209.787 31.2717 209.827 31.131 210.14Z" stroke="#242D3C" stroke-width="2"/>
<path d="M48.1485 120.8C47.2773 119.453 45.9202 118.923 44.0772 119.21C34.306 111.45 33.8536 97.5801 34.7181 86.3001C34.8488 84.6501 34.4567 81.4001 31.833 84.0501C25.8315 90.1201 19.2872 96.2701 10.0488 91.3101C0.0362956 85.9401 0.639487 76.1401 5.80657 67.2201C8.46048 62.6301 13.1651 57.5501 9.30488 52.0601C4.20817 44.8301 0.0966561 39.9701 1.17229 31.7401C2.75057 19.7401 13.708 16.8201 23.8412 19.9901C26.6157 20.8601 28.7267 22.9601 31.079 24.6901C35.3012 27.8101 33.8938 19.1401 33.8536 17.7301C33.6324 8.94013 42.1069 0.970084 50.712 1.00008C59.2568 1.03008 62.2122 6.5201 66.6656 12.8301C66.7612 12.9664 66.8799 13.0817 67.0146 13.1693C67.1493 13.2569 67.2972 13.315 67.4497 13.3401C71.4909 14.0701 75.3209 10.7601 79.4224 8.6401C96.3511 -0.0899005 100.764 14.3901 99.7591 27.5201C99.7395 27.852 99.8166 28.1731 99.9802 28.4401C101.408 30.6468 103.113 31.7101 105.097 31.6301C115.542 31.2401 120.468 38.4401 117.11 48.2701C115.18 53.9501 110.525 59.9601 106.715 64.5901C104.832 66.8901 105.275 68.5901 108.042 69.6901C115.572 72.6801 126.64 78.5501 120.196 88.1601C114.084 97.2501 103.137 106.84 91.375 107.14C86.1778 107.27 81.0912 102.71 76.3262 103.52C72.285 104.21 68.7867 109.89 66.364 112.67C61.3376 118.4 55.7081 120.86 48.1485 120.8ZM38.4377 75.7601C41.2256 79.4001 42.7536 83.5268 43.0216 88.1401C43.3534 93.9601 44.1777 111.16 54.2304 109.6C58.7742 108.89 63.7201 102.55 66.756 98.8101C71.8125 92.5601 79.9954 90.0001 86.8513 95.4301C91.5359 99.1401 100.312 97.6201 104.916 95.0501C108.394 93.1101 116.175 85.8901 115.331 81.1201C113.873 72.8801 100.774 74.7701 98.8141 68.7601C97.3263 64.2401 105.328 57.9601 107.711 54.9601C110.797 51.0701 115.15 43.5801 110.083 39.8501C107.268 37.7801 101.961 37.8301 98.3416 36.9501C85.9165 33.9401 101.689 15.1501 85.2832 13.1101C78.3167 12.2501 73.421 17.7601 69.0984 19.6401C63.3683 22.1201 60.2118 14.8701 57.779 11.3001C51.6972 2.35013 36.7789 7.63009 41.6344 18.5101C43.665 23.0701 42.5928 26.3701 38.4176 28.4101C29.5209 32.7501 20.8052 21.5501 11.3859 25.2701C6.1283 27.3401 7.96788 34.0601 10.3102 37.8401C15.5275 46.2501 29.1288 51.0901 20.8856 63.9001C18.0407 68.3301 5.91723 78.6301 13.6779 84.4301C22.6248 91.1401 28.1034 78.7701 34.1954 74.9901C35.844 73.9635 37.2582 74.2201 38.4377 75.7601Z" fill="#EF624D"/>
<path d="M44.0778 119.21C45.9208 118.923 47.2779 119.453 48.1491 120.8C48.0151 127.386 47.4857 133.87 46.5608 140.25C44.5905 153.85 38.9308 168.48 34.9499 182.21C34.1926 184.57 33.8844 186.986 34.0251 189.46C32.8992 198.62 33.8441 207.703 36.8599 216.71C37.4028 218.35 36.8097 219.12 35.0806 219.02C30.0744 218.75 28.476 214.32 27.9835 209.73C26.2343 193.47 28.4157 172.77 35.141 157.32C40.4354 145.153 43.4144 132.45 44.0778 119.21ZM31.13 210.14C30.4531 211.653 30.5 212.536 31.2707 212.79C31.3469 212.816 31.4284 212.821 31.5073 212.805C31.5862 212.789 31.6597 212.753 31.7206 212.699C31.7815 212.646 31.8276 212.577 31.8545 212.5C31.8813 212.423 31.8881 212.34 31.8739 212.26L31.4214 210.02C31.3678 209.786 31.2707 209.826 31.13 210.14Z" fill="#121426"/>
<path d="M34.9531 182.21C35.308 184.697 35.0001 187.113 34.0292 189.46C33.8885 186.987 34.1965 184.57 34.9531 182.21Z" fill="#638486"/>
<path d="M38.8809 75.7598C37.7075 74.2198 36.3008 73.9632 34.6608 74.9899C28.6008 78.7699 23.1509 91.1398 14.2509 84.4298C6.53087 78.6298 18.5908 68.3298 21.4208 63.8998C29.6208 51.0898 16.0908 46.2498 10.9008 37.8398C8.57078 34.0598 6.74084 27.3398 11.9708 25.2698C21.3408 21.5498 30.0109 32.7498 38.8609 28.4098C43.0142 26.3698 44.0808 23.0698 42.0608 18.5098C37.2308 7.62982 52.0709 2.34986 58.1209 11.2999C60.5409 14.8699 63.6809 22.1198 69.3809 19.6398C73.6809 17.7598 78.5508 12.2499 85.4809 13.1099C101.801 15.1499 86.1108 33.9398 98.4708 36.9498C102.071 37.8298 107.351 37.7798 110.151 39.8498C115.191 43.5798 110.861 51.0698 107.791 54.9598C105.421 57.9598 97.4608 64.2398 98.9408 68.7598C100.891 74.7698 113.921 72.8798 115.371 81.1198C116.211 85.8898 108.471 93.1099 105.011 95.0499C100.431 97.6199 91.7008 99.1398 87.0408 95.4298C80.2208 89.9998 72.0808 92.5598 67.0508 98.8098C64.0308 102.55 59.1108 108.89 54.5908 109.6C44.5908 111.16 43.7708 93.9598 43.4408 88.1398C43.1741 83.5265 41.6542 79.3998 38.8809 75.7598ZM47.8008 55.8698C48.6008 56.6365 48.5009 57.0998 47.5009 57.2598C45.6475 57.5598 43.7275 57.7665 41.7409 57.8798C39.9009 57.9898 39.6008 59.3798 41.5808 59.7898C45.1308 60.5198 48.9708 60.5498 50.4008 64.4998C50.4525 64.6403 50.4651 64.7944 50.437 64.9469C50.409 65.0994 50.3414 65.2451 50.2409 65.3698C49.7709 65.9398 44.8908 71.0098 46.6408 71.4098C46.7614 71.4374 46.9047 71.4245 47.058 71.3722C47.2113 71.32 47.3701 71.2299 47.5208 71.1099C49.0608 69.8999 51.2309 67.9199 53.2309 68.6099C56.4909 69.7199 53.8909 75.5398 53.5109 77.9998C53.4576 78.3398 53.5474 78.3865 53.7808 78.1398C57.0308 74.6598 61.1208 66.8298 62.7108 78.1598C62.7575 78.5265 62.9108 78.5965 63.1708 78.3698C63.9308 77.7098 64.8408 73.3998 65.5408 72.0198C66.2475 70.6265 67.1308 70.3498 68.1908 71.1898L71.2708 73.6298C71.4176 73.7466 71.5776 73.8293 71.7317 73.8683C71.8858 73.9072 72.0277 73.9008 72.1408 73.8498C73.7908 73.0798 71.2009 69.6998 70.2509 68.3798C70.172 68.2715 70.1295 68.1271 70.1277 67.9617C70.1259 67.7964 70.1651 67.6161 70.2409 67.4398C71.4209 64.7731 73.1541 64.3465 75.4408 66.1598C75.5944 66.2827 75.7749 66.3579 75.9469 66.3708C76.1189 66.3838 76.2701 66.3335 76.3709 66.2299C76.9609 65.6299 74.7409 62.7498 74.2509 62.1498C74.2122 62.1009 74.1846 62.0442 74.1701 61.9838C74.1556 61.9233 74.1546 61.8607 74.167 61.8003C74.1795 61.74 74.2051 61.6836 74.2421 61.6351C74.2791 61.5865 74.3265 61.5472 74.3809 61.5198C75.5009 60.9598 76.6841 60.6198 77.9308 60.4998C79.6308 60.3398 79.9608 58.8198 77.8208 58.7598C76.0808 58.7132 74.4941 58.3898 73.0608 57.7898C72.9007 57.7239 72.7574 57.6233 72.6403 57.4949C72.5232 57.3664 72.4351 57.2132 72.382 57.0455C72.3289 56.8777 72.312 56.6993 72.3325 56.5224C72.353 56.3455 72.4105 56.1741 72.5009 56.0198C73.6809 53.9932 75.1941 52.2532 77.0408 50.7999C77.1941 50.6786 77.3126 50.5291 77.379 50.3727C77.4455 50.2164 77.4566 50.0613 77.4108 49.9298C76.8608 48.4198 69.3809 55.7598 67.7309 49.1998C67.6526 48.8804 67.663 48.5575 67.7609 48.2698L69.2808 43.7299C69.3196 43.6073 69.3402 43.4885 69.3402 43.3863C69.3402 43.284 69.3196 43.2023 69.2808 43.1498C69.1941 43.0365 69.0842 42.9732 68.9508 42.9598C68.831 42.9411 68.6917 42.9733 68.5486 43.0528C68.4055 43.1323 68.2643 43.2559 68.1408 43.4098L64.0408 48.5698C62.8541 50.0631 62.0109 49.7498 61.5109 47.6298C61.4009 47.1298 60.1408 34.2098 58.4208 38.4698C58.0475 39.3832 57.8075 42.1765 57.7008 46.8498C57.5708 53.1398 51.8409 43.8498 50.6309 42.0798C50.5598 41.9717 50.4611 41.8818 50.3429 41.8175C50.2247 41.7532 50.0903 41.7163 49.9508 41.7098L49.6708 41.6998C49.6212 41.6958 49.5805 41.7215 49.5518 41.7749C49.523 41.8283 49.5071 41.9081 49.5051 42.0078C49.5032 42.1076 49.5154 42.2246 49.5407 42.3499C49.5659 42.4752 49.6036 42.6052 49.6508 42.7299L52.3709 50.0298C52.3984 50.1071 52.4091 50.1896 52.4021 50.2708C52.3951 50.352 52.3706 50.4294 52.3306 50.4967C52.2906 50.564 52.2362 50.6194 52.1719 50.6581C52.1076 50.6969 52.0353 50.7181 51.9608 50.7198C49.7808 50.7498 42.8208 49.6498 41.4608 50.8998C41.4052 50.951 41.3615 51.0145 41.3339 51.0845C41.3062 51.1546 41.2955 51.2291 41.3024 51.3013C41.3093 51.3736 41.3338 51.4414 41.3737 51.4987C41.4135 51.556 41.4675 51.6011 41.5308 51.6298C43.8641 52.6765 45.9541 54.0898 47.8008 55.8698Z" fill="#FEB436"/>
<path d="M47.8003 55.8701C45.9536 54.0901 43.8636 52.6768 41.5303 51.6301C41.4669 51.6014 41.413 51.5563 41.3732 51.499C41.3333 51.4417 41.3088 51.3739 41.3019 51.3016C41.2949 51.2294 41.3057 51.1549 41.3334 51.0848C41.361 51.0148 41.4047 50.9514 41.4603 50.9001C42.8203 49.6501 49.7803 50.7502 51.9603 50.7202C52.0348 50.7184 52.1071 50.6972 52.1714 50.6584C52.2356 50.6197 52.2901 50.5643 52.3301 50.497C52.3701 50.4297 52.3946 50.3523 52.4016 50.2711C52.4086 50.19 52.3979 50.1074 52.3704 50.0302L49.6503 42.7302C49.6031 42.6055 49.5654 42.4755 49.5402 42.3502C49.5149 42.225 49.5027 42.1079 49.5046 42.0081C49.5066 41.9084 49.5225 41.8286 49.5513 41.7752C49.58 41.7218 49.6207 41.6961 49.6703 41.7001L49.9503 41.7101C50.0898 41.7166 50.2242 41.7535 50.3424 41.8178C50.4606 41.8821 50.5593 41.972 50.6304 42.0801C51.8404 43.8501 57.5703 53.1402 57.7003 46.8502C57.807 42.1768 58.0469 39.3835 58.4203 38.4702C60.1403 34.2102 61.4004 47.1301 61.5104 47.6301C62.0104 49.7501 62.8536 50.0635 64.0403 48.5701L68.1403 43.4102C68.2637 43.2562 68.405 43.1326 68.5481 43.0531C68.6912 42.9736 68.8305 42.9414 68.9503 42.9601C69.0836 42.9735 69.1936 43.0368 69.2803 43.1501C69.3191 43.2026 69.3397 43.2844 69.3397 43.3866C69.3397 43.4888 69.3191 43.6076 69.2803 43.7302L67.7604 48.2701C67.6625 48.5578 67.6521 48.8807 67.7303 49.2001C69.3803 55.7601 76.8603 48.4201 77.4103 49.9301C77.4561 50.0616 77.445 50.2167 77.3785 50.373C77.3121 50.5294 77.1936 50.6789 77.0403 50.8002C75.1936 52.2535 73.6804 53.9935 72.5004 56.0201C72.41 56.1744 72.3525 56.3458 72.332 56.5227C72.3115 56.6996 72.3284 56.878 72.3815 57.0458C72.4345 57.2135 72.5227 57.3668 72.6398 57.4952C72.7569 57.6236 72.9002 57.7242 73.0603 57.7902C74.4936 58.3902 76.0803 58.7135 77.8203 58.7601C79.9603 58.8201 79.6303 60.3401 77.9303 60.5001C76.6836 60.6201 75.5004 60.9601 74.3804 61.5201C74.326 61.5475 74.2786 61.5869 74.2416 61.6354C74.2046 61.6839 74.1789 61.7403 74.1665 61.8007C74.154 61.861 74.155 61.9236 74.1695 61.9841C74.1841 62.0445 74.2117 62.1013 74.2504 62.1501C74.7404 62.7501 76.9604 65.6302 76.3704 66.2302C76.2696 66.3338 76.1184 66.3841 75.9464 66.3712C75.7744 66.3582 75.5939 66.283 75.4403 66.1602C73.1536 64.3468 71.4203 64.7735 70.2403 67.4401C70.1645 67.6164 70.1254 67.7967 70.1272 67.962C70.1289 68.1274 70.1715 68.2718 70.2504 68.3801C71.2004 69.7001 73.7903 73.0802 72.1403 73.8502C72.0272 73.9012 71.8853 73.9076 71.7312 73.8686C71.5771 73.8296 71.4171 73.7469 71.2703 73.6301L68.1903 71.1901C67.1303 70.3501 66.2469 70.6268 65.5403 72.0201C64.8403 73.4001 63.9303 77.7101 63.1703 78.3701C62.9103 78.5968 62.757 78.5268 62.7103 78.1602C61.1203 66.8302 57.0303 74.6601 53.7803 78.1401C53.5469 78.3868 53.457 78.3401 53.5104 78.0001C53.8904 75.5401 56.4903 69.7202 53.2303 68.6102C51.2303 67.9202 49.0603 69.9002 47.5203 71.1102C47.3696 71.2302 47.2108 71.3203 47.0575 71.3726C46.9041 71.4248 46.7609 71.4377 46.6403 71.4102C44.8903 71.0102 49.7703 65.9401 50.2403 65.3701C50.3409 65.2454 50.4085 65.0997 50.4365 64.9472C50.4646 64.7947 50.452 64.6407 50.4003 64.5001C48.9703 60.5501 45.1303 60.5202 41.5803 59.7902C39.6003 59.3802 39.9003 57.9901 41.7403 57.8801C43.727 57.7668 45.647 57.5601 47.5004 57.2601C48.5004 57.1001 48.6003 56.6368 47.8003 55.8701ZM65.1675 64.7715C66.0699 63.9271 66.5142 62.6672 66.4027 61.269C66.2912 59.8708 65.633 58.4489 64.5729 57.316C64.0479 56.7551 63.4401 56.282 62.7842 55.9238C62.1282 55.5655 61.437 55.3292 60.7499 55.2283C60.0627 55.1273 59.3932 55.1637 58.7795 55.3353C58.1658 55.507 57.6199 55.8106 57.1731 56.2288C56.2707 57.0732 55.8263 58.3331 55.9379 59.7313C56.0494 61.1294 56.7076 62.5514 57.7677 63.6843C58.2926 64.2452 58.9004 64.7183 59.5564 65.0765C60.2124 65.4347 60.9037 65.6711 61.5908 65.772C62.278 65.873 62.9475 65.8366 63.5611 65.6649C64.1748 65.4933 64.7206 65.1897 65.1675 64.7715Z" fill="#161836"/>
<path d="M65.1645 64.7714C64.7176 65.1896 64.1718 65.4931 63.5581 65.6648C62.9444 65.8364 62.2749 65.8729 61.5878 65.7719C60.9007 65.6709 60.2093 65.4346 59.5534 65.0763C58.8974 64.7181 58.2896 64.2451 57.7647 63.6841C56.7046 62.5513 56.0464 61.1293 55.9348 59.7311C55.8233 58.333 56.2677 57.0731 57.1701 56.2286C57.6169 55.8105 58.1628 55.5069 58.7765 55.3352C59.3902 55.1635 60.0597 55.1272 60.7469 55.2281C61.434 55.3291 62.1252 55.5654 62.7812 55.9236C63.4371 56.2819 64.0449 56.755 64.5699 57.3159C65.63 58.4488 66.2882 59.8707 66.3997 61.2688C66.5112 62.667 66.0669 63.9269 65.1645 64.7714Z" fill="#EB823C"/>
<path d="M31.609 210.14C31.749 209.827 31.8456 209.787 31.8989 210.02L32.349 212.26C32.3631 212.34 32.3564 212.423 32.3297 212.5C32.303 212.577 32.2571 212.646 32.1965 212.699C32.1359 212.753 32.0628 212.789 31.9843 212.805C31.9059 212.821 31.8248 212.816 31.749 212.79C30.9823 212.537 30.9356 211.653 31.609 210.14Z" fill="#354551"/>
</svg>
