<svg width="246" height="148" viewBox="0 0 246 148" fill="none" xmlns="http://www.w3.org/2000/svg">
<path d="M56.2799 1.72406C57.3072 1.83023 58.1754 1.57337 58.2192 1.15037C58.2629 0.727359 57.4655 0.298383 56.4382 0.192222C55.4109 0.0860607 54.5427 0.342915 54.499 0.765921C54.4553 1.18893 55.2526 1.6179 56.2799 1.72406Z" fill="#636A81"/>
<path d="M62.522 3.42204L54.5729 3.83863C53.9221 3.87274 53.4222 4.42797 53.4563 5.07877L53.4825 5.57809C53.5166 6.22889 54.0718 6.72882 54.7226 6.69471L62.6717 6.27812C63.3225 6.24401 63.8224 5.68878 63.7883 5.03798L63.7621 4.53867C63.728 3.88786 63.1728 3.38793 62.522 3.42204Z" fill="#1E1E21"/>
<path d="M147.791 9.51773C147.831 10.0711 147.608 10.2144 147.121 9.94772C145.061 8.84106 142.908 8.77774 140.661 9.75774C140.348 9.89107 140.315 9.84773 140.561 9.62773C141.911 8.43773 147.531 6.00773 147.791 9.51773Z" fill="#090D11"/>
<path d="M69.6606 9.7639L55.4645 10.8812C55.3158 10.8929 55.2048 11.0229 55.2165 11.1715L55.3907 13.3847C55.4024 13.5333 55.5324 13.6444 55.681 13.6327L69.8771 12.5154C70.0258 12.5037 70.1368 12.3737 70.1251 12.225L69.9509 10.0119C69.9392 9.86323 69.8092 9.7522 69.6606 9.7639Z" fill="#171C25"/>
<path d="M137.73 12.4285C141.67 13.7485 146.27 14.6685 150.43 14.2585C150.589 14.2416 150.749 14.2764 150.886 14.3576C151.023 14.4387 151.13 14.5619 151.19 14.7085L152.65 18.2485C152.678 18.3134 152.694 18.3846 152.697 18.4551C152.7 18.5257 152.69 18.5933 152.667 18.6515C152.644 18.7097 152.609 18.7565 152.565 18.7875C152.522 18.8185 152.472 18.8326 152.42 18.8285L128.98 16.3785C128.606 16.3385 128.556 16.1851 128.83 15.9185C131.44 13.3885 134.04 11.1985 137.73 12.4285Z" fill="#14181E"/>
<path d="M61.7692 23.8073C58.3959 24.4139 56.9225 22.9206 57.3492 19.3273C57.3708 19.1402 57.4733 18.9685 57.6363 18.8462C57.7993 18.7239 58.011 18.66 58.2292 18.6673C63.2425 18.8006 68.2459 18.5806 73.2392 18.0073C73.3147 17.9985 73.4282 18.0303 73.5675 18.099C73.7067 18.1678 73.8664 18.2709 74.0292 18.3973C75.0959 19.2306 75.7559 20.3239 76.0092 21.6773C76.0194 21.7268 76.0127 21.7784 75.9894 21.8287C75.9661 21.879 75.9268 21.9269 75.874 21.9694C75.8212 22.0118 75.7561 22.0478 75.6829 22.075C75.6097 22.1022 75.5301 22.12 75.4492 22.1273C70.8892 22.5973 66.2492 22.9973 61.7692 23.8073Z" fill="#14181E"/>
<path d="M151.69 28.6887L150.98 29.2287C143.387 27.7554 135.24 26.6254 126.54 25.8387C124.194 25.6254 121.98 25.642 119.9 25.8887C119.474 25.942 119.347 25.8054 119.52 25.4787C120.687 23.2054 122.404 21.4887 124.67 20.3287C124.726 20.3038 124.852 20.302 125.033 20.3235C125.214 20.345 125.44 20.3887 125.68 20.4487C130.207 21.6087 134.76 22.442 139.34 22.9487C142.26 23.2787 145.05 25.2187 147.82 25.1187C150.094 25.032 152.37 24.982 154.65 24.9687C154.719 24.9691 154.826 25.0204 154.958 25.1165C155.089 25.2125 155.24 25.3489 155.39 25.5087C155.504 25.6287 155.514 25.7454 155.42 25.8587C155.365 25.9253 155.281 25.9761 155.176 26.0059C155.071 26.0358 154.948 26.0436 154.82 26.0287C153 25.8154 151.957 26.702 151.69 28.6887Z" fill="#14181E"/>
<path d="M76.0402 27.6287C78.6068 27.7087 79.8968 28.972 79.9102 31.4186C79.9096 31.5407 79.8452 31.6594 79.7301 31.7504C79.6149 31.8414 79.4576 31.898 79.2902 31.9087L62.0002 33.1186C61.7903 33.1334 61.5894 33.1078 61.4297 33.0462C61.2701 32.9845 61.161 32.8902 61.1202 32.7786L59.7102 28.9386C59.6883 28.8818 59.6855 28.82 59.702 28.7579C59.7184 28.6957 59.7538 28.6348 59.8054 28.5793C59.857 28.5238 59.9237 28.4753 60.0006 28.4371C60.0775 28.399 60.1628 28.3722 60.2502 28.3586C64.7768 27.6786 70.0402 27.4353 76.0402 27.6287Z" fill="#14181E"/>
<path d="M151.69 28.6875C151.54 30.5375 155.87 30.4275 157.06 30.2075C157.217 30.1777 157.378 30.2054 157.512 30.2852C157.645 30.365 157.741 30.4909 157.78 30.6375C158.54 33.3508 157.967 33.8475 156.06 32.1275C155.96 32.0364 155.821 31.9652 155.652 31.9187C155.483 31.8721 155.288 31.8513 155.08 31.8575C153.087 31.9175 151.72 31.0408 150.98 29.2275L151.69 28.6875Z" fill="#1E1E21"/>
<path d="M119.55 29.7783C123.443 29.965 127.32 30.375 131.18 31.0083C131.733 31.1016 131.84 31.335 131.5 31.7083L128.65 34.8483C128.548 34.9629 128.41 35.0459 128.252 35.0882C128.093 35.1305 127.919 35.1306 127.75 35.0883C123.417 33.9883 119.14 34.1716 114.92 35.6383C114.806 35.6778 114.684 35.6867 114.566 35.6644C114.447 35.642 114.336 35.5891 114.244 35.5106C114.152 35.4322 114.08 35.331 114.038 35.2167C113.995 35.1024 113.982 34.979 114 34.8583C114.52 31.325 116.37 29.6316 119.55 29.7783Z" fill="#14181E"/>
<path d="M49.2917 40.4776C50.1984 41.3043 50.0584 41.5976 48.8717 41.3576L32.0817 37.9676C31.535 37.8609 31.525 37.7109 32.0517 37.5176C38.1317 35.3276 44.6117 36.2376 49.2917 40.4776Z" fill="#1C2027"/>
<path d="M81.7414 37.2473C81.9182 37.2536 82.0901 37.322 82.2322 37.4425C82.3742 37.563 82.4791 37.7293 82.5314 37.9173L84.1614 43.6973C84.2481 44.0106 84.0881 44.1139 83.6814 44.0073C79.9514 43.0273 68.4514 41.9573 65.4714 44.7873C65.4251 44.8321 65.37 44.8681 65.3109 44.8923C65.2519 44.9165 65.1907 44.9281 65.1326 44.9261C65.0746 44.9242 65.0213 44.9087 64.9776 44.881C64.9338 44.8533 64.9008 44.8143 64.8814 44.7673L62.5114 38.6773C62.4904 38.6231 62.4866 38.5645 62.5001 38.5059C62.5136 38.4474 62.5442 38.3904 62.5895 38.3393C62.6348 38.2882 62.6937 38.2443 62.7616 38.2111C62.8295 38.1778 62.9047 38.156 62.9814 38.1473C69.2081 37.4473 75.4614 37.1473 81.7414 37.2473Z" fill="#14181E"/>
<path d="M146.542 38.9981C146.58 38.9192 146.644 38.8542 146.728 38.8072C146.812 38.7602 146.915 38.7322 147.031 38.7247C147.147 38.7172 147.273 38.7305 147.402 38.7637C147.531 38.797 147.66 38.8495 147.782 38.9181C150.855 40.6515 154.168 41.6348 157.722 41.8681C157.983 41.8859 158.224 41.9222 158.411 41.9721C158.599 42.0221 158.724 42.0835 158.772 42.1481C159.652 43.3281 160.058 44.6781 159.992 46.1981C159.984 46.3655 159.937 46.5286 159.853 46.6764C159.769 46.8241 159.651 46.953 159.506 47.0545C159.361 47.1559 159.192 47.2275 159.012 47.2643C158.832 47.3012 158.644 47.3025 158.462 47.2681L144.492 44.5981C144.395 44.5791 144.302 44.5446 144.218 44.4972C144.134 44.4499 144.063 44.391 144.01 44.3251C143.957 44.2593 143.923 44.1883 143.911 44.1177C143.899 44.0471 143.91 43.9788 143.942 43.9181L146.542 38.9981Z" fill="#1C2027"/>
<path d="M125.94 43.8779C125.935 43.8923 125.911 43.9072 125.872 43.92C125.834 43.9328 125.784 43.9426 125.73 43.9479C120.89 44.4279 116.143 45.3445 111.49 46.6979C111.336 46.7412 111.174 46.7552 111.017 46.7385C110.86 46.7218 110.713 46.675 110.589 46.6022C110.465 46.5293 110.367 46.4326 110.305 46.3203C110.242 46.208 110.217 46.0836 110.23 45.9579C110.417 44.0112 111.167 42.3445 112.48 40.9579C112.542 40.8913 112.668 40.8312 112.844 40.7837C113.019 40.7362 113.239 40.7031 113.48 40.6879L125.92 39.9179C126.014 39.912 126.109 39.9201 126.198 39.9413C126.287 39.9626 126.367 39.9966 126.434 40.0408C126.5 40.085 126.55 40.1382 126.581 40.1965C126.611 40.2549 126.621 40.3169 126.61 40.3779L125.94 43.8779Z" fill="#1C2027"/>
<path d="M50.0812 46.4577C51.3712 46.6877 52.1812 46.4377 53.4412 46.2777C53.6017 46.2599 53.7635 46.2848 53.9095 46.3499C54.0556 46.415 54.1805 46.5179 54.2712 46.6477C55.4779 48.3944 56.3312 50.2977 56.8312 52.3577C56.9379 52.811 56.8312 52.9844 56.5112 52.8777C52.2912 51.4977 48.1012 51.551 43.9412 53.0377C43.7862 53.0927 43.6219 53.103 43.4712 53.0671C43.3205 53.0313 43.1912 52.951 43.1012 52.8377C41.1012 50.2443 38.0545 48.4643 33.9612 47.4977C30.0412 46.5677 23.4412 44.5377 19.5612 45.0877C19.2745 45.1277 19.2245 45.0543 19.4112 44.8677C21.6445 42.5943 24.3179 41.111 27.4312 40.4177C27.5 40.4031 27.5711 40.3989 27.6391 40.4052C27.7072 40.4115 27.7704 40.4283 27.8242 40.4542C27.878 40.4801 27.921 40.5146 27.9499 40.555C27.9788 40.5954 27.9929 40.6408 27.9912 40.6877L27.9812 41.4377C27.977 41.5459 28.0544 41.6638 28.1992 41.7702C28.344 41.8765 28.5469 41.9643 28.7712 42.0177C35.8312 43.7177 42.9345 45.1977 50.0812 46.4577Z" fill="#171C25"/>
<path d="M86.3494 49.848C87.3828 51.4746 88.0061 53.258 88.2195 55.198C88.2237 55.2459 88.2141 55.2937 88.1914 55.3378C88.1688 55.3819 88.1336 55.4213 88.0885 55.453C88.0434 55.4847 87.9895 55.5078 87.9308 55.5208C87.8721 55.5338 87.8101 55.5362 87.7495 55.528C81.6761 54.748 75.5861 54.658 69.4794 55.258C69.2311 55.2852 68.9965 55.2763 68.801 55.2322C68.6055 55.1882 68.4563 55.1107 68.3694 55.008C67.0028 53.408 66.2461 51.548 66.0994 49.428C66.0943 49.3549 66.1002 49.2817 66.1166 49.2127C66.1331 49.1437 66.1598 49.0803 66.1952 49.0263C66.2306 48.9723 66.274 48.9287 66.3228 48.898C66.3716 48.8674 66.4249 48.8504 66.4794 48.848C72.7528 48.4146 79.0028 48.6213 85.2294 49.468C85.5097 49.5062 85.7655 49.5627 85.9648 49.6303C86.1641 49.6979 86.2979 49.7737 86.3494 49.848Z" fill="#171C25"/>
<path d="M124.259 55.6977C124.215 55.9197 124.067 56.1233 123.839 56.2757C123.61 56.4281 123.314 56.5204 122.999 56.5377C118.039 56.7977 113.286 57.9077 108.739 59.8677C108.306 60.0477 108.122 59.9877 108.189 59.6877L109.669 52.4177C109.693 52.2914 109.777 52.1698 109.909 52.0695C110.042 51.9693 110.216 51.8953 110.409 51.8577L124.979 48.9577C125.05 48.944 125.124 48.9469 125.193 48.9661C125.263 48.9853 125.326 49.0201 125.377 49.0676C125.429 49.1152 125.467 49.1738 125.488 49.2384C125.509 49.3029 125.513 49.3714 125.499 49.4377L124.259 55.6977Z" fill="#1C2027"/>
<path d="M141.93 49.6375C141.951 49.6004 141.989 49.5723 142.038 49.5578C142.087 49.5433 142.144 49.5432 142.2 49.5575L156.73 52.9175C157.052 52.9918 157.339 53.1664 157.535 53.4091C157.732 53.6517 157.826 53.946 157.8 54.2375L157.51 57.7075C157.499 57.8422 157.454 57.9716 157.38 58.0864C157.305 58.2012 157.202 58.2985 157.079 58.3712C156.955 58.4439 156.814 58.4903 156.666 58.507C156.517 58.5236 156.365 58.5102 156.22 58.4675C150.76 56.8342 145.183 55.8809 139.49 55.6075C139.415 55.6044 139.34 55.5843 139.274 55.5489C139.208 55.5136 139.152 55.4642 139.111 55.4054C139.07 55.3465 139.046 55.2802 139.04 55.2124C139.035 55.1446 139.048 55.0775 139.08 55.0175L141.93 49.6375Z" fill="#171C25"/>
<path d="M31.9886 53.9485C31.4686 54.6952 30.8219 55.3019 30.0486 55.7686C29.853 55.8887 29.6553 55.9805 29.4931 56.0265C29.3309 56.0726 29.2155 56.0698 29.1686 56.0186L28.7886 55.6385C28.575 55.4318 28.2877 55.3076 27.9786 55.2886L11.7386 54.3085C11.6748 54.3041 11.6129 54.2852 11.5575 54.2532C11.5022 54.2212 11.4549 54.177 11.4192 54.124C11.3835 54.0709 11.3604 54.0105 11.3516 53.9471C11.3429 53.8838 11.3487 53.8193 11.3686 53.7586C13.4086 47.3486 25.4886 51.7585 29.6586 53.4785C30.4319 53.7919 31.2519 53.7552 32.1186 53.3685C32.4119 53.2352 32.5219 53.2952 32.4486 53.5485C32.4286 53.6352 32.3653 53.6952 32.2586 53.7285C32.1621 53.7545 32.0651 53.8336 31.9886 53.9485Z" fill="#171C25"/>
<path d="M196.422 56.388L192.282 56.288C191.949 56.2813 191.869 56.1846 192.042 55.998C193.249 54.698 194.672 53.708 196.312 53.028C196.531 52.9377 196.741 52.8738 196.916 52.8437C197.092 52.8135 197.226 52.8185 197.302 52.858C198.862 53.598 199.582 54.8813 199.462 56.708C199.451 56.887 199.397 57.0549 199.308 57.1853C199.22 57.3156 199.101 57.401 198.972 57.428C198.305 57.5613 197.725 57.4013 197.232 56.948C197.057 56.7846 196.886 56.6436 196.741 56.5436C196.597 56.4436 196.485 56.3894 196.422 56.388Z" fill="#1E1E21"/>
<path d="M194.671 62.9778C192.011 62.6378 189.358 62.2444 186.711 61.7978C186.545 61.7711 186.241 61.8278 185.801 61.9678L184.771 62.3077C184.105 62.5211 184.041 62.4311 184.581 62.0378L190.321 57.8077C190.835 57.4344 190.908 57.4978 190.541 57.9978C190.181 58.4911 190.088 59.0544 190.261 59.6878C190.307 59.8673 190.374 60.0279 190.457 60.1528C190.54 60.2777 190.634 60.3623 190.731 60.3978C194.071 61.6578 201.271 59.7878 199.911 65.7578C199.873 65.9306 199.791 66.0858 199.678 66.1943C199.566 66.3029 199.432 66.3574 199.301 66.3478C198.401 66.2778 197.371 63.3278 194.671 62.9778Z" fill="#1C2038"/>
<path d="M44.66 59.2378C49.21 59.8178 53.6 59.7878 58.19 59.5278C58.2609 59.5235 58.3318 59.5307 58.3986 59.5492C58.4654 59.5676 58.5268 59.5968 58.579 59.635C58.6312 59.6733 58.6733 59.7198 58.7027 59.7718C58.732 59.8238 58.7482 59.8802 58.75 59.9378L58.84 64.4978C58.8429 64.6675 58.8058 64.8306 58.7367 64.9521C58.6676 65.0735 58.5719 65.1438 58.47 65.1478L43.54 66.0178C43.4668 66.022 43.3935 66.0094 43.3258 65.9808C43.258 65.9523 43.1974 65.9086 43.1484 65.8529C43.0995 65.7972 43.0634 65.731 43.0429 65.6592C43.0224 65.5873 43.018 65.5117 43.03 65.4378L43.99 59.6878C44.0103 59.5478 44.0919 59.4222 44.2171 59.338C44.3424 59.2539 44.5015 59.2179 44.66 59.2378Z" fill="#14181E"/>
<path d="M87.8798 60.9581C90.8465 60.8914 92.1332 62.5614 91.7398 65.9681C91.7323 66.0347 91.7103 66.099 91.6755 66.156C91.6406 66.213 91.5939 66.2612 91.5389 66.2969C91.4839 66.3326 91.4221 66.3548 91.3581 66.362C91.2941 66.3691 91.2297 66.361 91.1698 66.3381C84.6098 63.9181 77.9498 63.5581 71.1898 65.2581C71.0565 65.2931 70.9142 65.2717 70.7942 65.1985C70.6741 65.1254 70.5863 65.0065 70.5498 64.8681L69.2298 59.6881C69.2166 59.6393 69.2217 59.5893 69.2445 59.5425C69.2674 59.4958 69.3073 59.4537 69.3607 59.42C69.4142 59.3864 69.4795 59.3622 69.5508 59.3497C69.6222 59.3371 69.6974 59.3366 69.7698 59.3481C75.6898 60.2381 81.8898 61.0881 87.8798 60.9581Z" fill="#171C25"/>
<path d="M9.4324 59.5374C15.0024 61.0974 20.4724 61.7774 26.2124 61.9874C26.2877 61.9901 26.3631 62.0048 26.4322 62.0304C26.5013 62.0561 26.5623 62.0918 26.6101 62.1347C26.6579 62.1777 26.6912 62.2266 26.7072 62.2774C26.7233 62.3283 26.7216 62.3797 26.7024 62.4274L24.6724 67.6374C24.6297 67.7503 24.5073 67.8351 24.3284 67.8757C24.1496 67.9162 23.9268 67.9098 23.7024 67.8574C17.9757 66.4974 12.1724 65.9541 6.2924 66.2274C6.21766 66.2304 6.14296 66.2179 6.07382 66.1908C6.00469 66.1637 5.94289 66.1228 5.89298 66.0709C5.84306 66.0191 5.80631 65.9577 5.78545 65.8913C5.76458 65.825 5.76012 65.7553 5.7724 65.6874C6.15907 63.4541 7.06908 61.4674 8.50241 59.7274C8.5891 59.621 8.72366 59.5462 8.88915 59.5124C9.05463 59.4786 9.24364 59.4873 9.4324 59.5374Z" fill="#171C25"/>
<path d="M155.059 70.8882C148.399 69.8482 144.229 68.4982 136.479 69.7782C136.4 69.7912 136.32 69.7909 136.243 69.7771C136.166 69.7634 136.094 69.7365 136.031 69.6981C135.968 69.6598 135.916 69.6108 135.878 69.5541C135.84 69.4974 135.816 69.4341 135.809 69.3682C135.575 67.3682 135.702 65.3915 136.189 63.4382C136.234 63.26 136.311 63.1005 136.406 62.9834C136.502 62.8663 136.611 62.7979 136.719 62.7882C143.119 62.2949 149.309 63.1549 155.289 65.3682C155.471 65.4347 155.63 65.5322 155.742 65.6458C155.854 65.7595 155.913 65.8832 155.909 65.9982L155.719 70.4282C155.716 70.4982 155.696 70.5665 155.66 70.6286C155.625 70.6906 155.574 70.7451 155.512 70.7885C155.45 70.8318 155.377 70.8632 155.299 70.8803C155.221 70.8975 155.139 70.9002 155.059 70.8882Z" fill="#171C25"/>
<path d="M105.962 66.6779C106.126 66.4223 106.393 66.193 106.741 66.0077C107.089 65.8223 107.51 65.6856 107.972 65.6079L122.422 63.1479C122.498 63.1359 122.578 63.1345 122.653 63.1437C122.728 63.1529 122.797 63.1726 122.854 63.201C122.91 63.2294 122.953 63.2657 122.979 63.3069C123.005 63.3482 123.013 63.3931 123.002 63.4379L121.602 69.5179C121.572 69.6502 121.482 69.7763 121.343 69.8797C121.204 69.9832 121.022 70.0592 120.822 70.0979C115.442 71.0779 109.572 71.4279 104.372 72.9879C104.295 73.0106 104.213 73.0202 104.134 73.0158C104.055 73.0114 103.981 72.9931 103.918 72.9626C103.855 72.9322 103.805 72.8903 103.773 72.8407C103.74 72.7911 103.726 72.7352 103.732 72.6779C104.018 70.5112 104.762 68.5112 105.962 66.6779Z" fill="#171C25"/>
<path d="M228.021 67.4373L227.941 67.1873C230.481 64.4873 236.621 63.9673 237.831 68.4073C237.925 68.7406 237.831 68.7973 237.551 68.5773C235.021 66.5373 230.691 64.3773 228.021 67.4373Z" fill="#636A81"/>
<path d="M179.012 69.6586C178.885 69.6315 178.767 69.5748 178.667 69.4934C178.567 69.4121 178.488 69.3085 178.438 69.192C178.387 69.0755 178.367 68.9495 178.378 68.8251C178.389 68.7007 178.432 68.5817 178.502 68.4786C178.942 67.8319 179.505 67.3052 180.192 66.8986C180.32 66.8237 180.475 66.7814 180.646 66.7744C180.817 66.7675 181 66.7963 181.182 66.8586C186.802 68.8286 192.482 68.7386 198.172 70.6286C198.316 70.6764 198.443 70.7532 198.539 70.8505C198.634 70.9477 198.694 71.0614 198.712 71.1786C198.885 72.2252 198.628 73.1286 197.942 73.8886C197.834 74.0047 197.688 74.0817 197.523 74.1087C197.357 74.1356 197.182 74.1111 197.022 74.0386C190.972 71.1786 185.322 71.0286 179.012 69.6586Z" fill="#14181E"/>
<path d="M227.94 67.1875L228.02 67.4375C228.42 69.9375 233.68 69.6275 236.77 70.0575C237.09 70.103 237.407 70.2562 237.68 70.4975C239.24 71.8775 240.264 73.5908 240.75 75.6375C240.762 75.6891 240.762 75.743 240.749 75.7944C240.737 75.8457 240.714 75.8929 240.681 75.9315C240.649 75.9702 240.608 75.9993 240.562 76.016C240.516 76.0328 240.468 76.0367 240.42 76.0275C234.98 74.7875 230.29 73.9275 224.7 74.3275C224.64 74.3329 224.579 74.3246 224.523 74.3032C224.467 74.2818 224.416 74.248 224.375 74.2043C224.335 74.1607 224.305 74.1084 224.288 74.0517C224.272 73.995 224.269 73.9354 224.28 73.8775C224.82 71.2842 226.04 69.0542 227.94 67.1875Z" fill="#171C25"/>
<path d="M73.3791 75.5982C72.2258 73.9316 71.8191 72.0482 72.1591 69.9482C72.1822 69.8128 72.2534 69.6893 72.3607 69.5983C72.4681 69.5074 72.6052 69.4544 72.7491 69.4482C79.7391 69.2182 86.0491 69.9682 92.9591 70.8482C93.1231 70.8685 93.2747 70.9285 93.393 71.0199C93.5113 71.1112 93.5903 71.2295 93.6191 71.3582L95.4591 79.6982C95.5258 79.9982 95.3758 80.0749 95.0091 79.9282C88.3491 77.2482 81.0891 78.3282 74.1391 76.1482C73.8217 76.0509 73.5533 75.8567 73.3791 75.5982Z" fill="#1C2027"/>
<path d="M22.0219 79.3576C15.5519 77.2976 9.21187 77.1676 2.50187 77.1576C2.42505 77.1571 2.34865 77.1439 2.27801 77.1189C2.20736 77.094 2.14415 77.0579 2.09277 77.0131C2.04138 76.9684 2.00307 76.9161 1.98046 76.8599C1.95785 76.8037 1.9515 76.7449 1.96186 76.6876L2.89187 71.8576C2.93791 71.6226 3.10443 71.4204 3.35529 71.2949C3.60615 71.1695 3.92112 71.131 4.23186 71.1876C10.3519 72.2676 16.5185 72.9576 22.7319 73.2576C22.8062 73.2619 22.8794 73.2766 22.9468 73.3008C23.0142 73.325 23.0746 73.3583 23.1241 73.3985C23.1737 73.4387 23.2115 73.485 23.2351 73.5347C23.2588 73.5845 23.2679 73.6365 23.2619 73.6876L22.7119 78.9376C22.7034 79.0131 22.6776 79.0855 22.6363 79.1495C22.595 79.2136 22.5392 79.2677 22.4731 79.308C22.407 79.3482 22.3322 79.3735 22.2541 79.3821C22.1761 79.3907 22.0967 79.3824 22.0219 79.3576Z" fill="#14181E"/>
<path d="M55.2188 77.348C50.1388 76.198 46.5687 76.398 39.5387 76.428C39.4735 76.4284 39.4092 76.413 39.351 76.3829C39.2928 76.3528 39.2423 76.3088 39.2035 76.2545C39.1647 76.2001 39.1386 76.1369 39.1274 76.0698C39.1161 76.0028 39.12 75.9336 39.1387 75.868C39.4187 74.9013 39.9287 74.068 40.6687 73.368C40.7517 73.2884 40.8909 73.2283 41.073 73.1932C41.2551 73.1582 41.474 73.1496 41.7087 73.168C44.9687 73.438 54.4488 74.438 56.9388 72.548C57.2521 72.3146 57.4254 72.358 57.4587 72.678C57.6254 74.358 57.2121 75.8447 56.2188 77.138C56.1354 77.247 55.9959 77.3252 55.8178 77.3626C55.6397 77.4 55.4312 77.3949 55.2188 77.348Z" fill="#090D11"/>
<path d="M180 79.6978C177.27 78.9178 176.38 77.4278 177.53 74.7878C177.588 74.6535 177.69 74.5436 177.818 74.4777C177.946 74.4118 178.092 74.3941 178.23 74.4278L194.69 78.3978C194.776 78.4194 194.859 78.4512 194.933 78.4912C195.008 78.5313 195.073 78.5787 195.123 78.6304C195.174 78.6821 195.21 78.737 195.228 78.7916C195.246 78.8463 195.247 78.8994 195.23 78.9478L193.55 83.2578C193.518 83.3442 193.418 83.4048 193.271 83.4271C193.124 83.4494 192.941 83.4318 192.76 83.3778C188.493 82.1378 184.24 80.9111 180 79.6978Z" fill="#171C25"/>
<path d="M137.839 81.5382C137.487 81.4681 137.168 81.2996 136.924 81.0559C136.681 80.8123 136.525 80.5055 136.479 80.1781L135.829 75.6881C135.819 75.6233 135.826 75.5573 135.85 75.4955C135.874 75.4336 135.915 75.3777 135.968 75.332C136.022 75.2864 136.087 75.2523 136.158 75.2325C136.229 75.2127 136.305 75.2078 136.379 75.2181C142.465 76.1115 148.585 76.6181 154.739 76.7381C154.944 76.7437 155.136 76.7828 155.286 76.8495C155.435 76.9162 155.535 77.0069 155.569 77.1082L156.809 80.6082C156.832 80.676 156.837 80.7485 156.824 80.8196C156.81 80.8908 156.778 80.9585 156.73 81.0172C156.682 81.0759 156.62 81.1238 156.548 81.157C156.477 81.1903 156.398 81.2078 156.319 81.2081C150.379 81.2681 143.599 82.6682 137.839 81.5382Z" fill="#171C25"/>
<path d="M100.299 83.5187C99.9391 81.8187 100.299 80.2221 101.379 78.7287C101.459 78.6183 101.576 78.5394 101.712 78.5048C101.849 78.4703 101.996 78.4823 102.129 78.5387C105.129 79.8387 115.279 77.2587 118.729 76.4287C118.791 76.414 118.856 76.4144 118.918 76.4298C118.98 76.4452 119.037 76.4752 119.085 76.5173C119.133 76.5594 119.17 76.6124 119.193 76.6717C119.217 76.7311 119.226 76.7952 119.219 76.8587C118.959 79.2387 118.109 81.1387 115.589 81.8687C110.809 83.2487 105.919 83.9587 100.919 83.9987C100.772 83.9986 100.63 83.9508 100.517 83.8634C100.404 83.7759 100.327 83.6542 100.299 83.5187Z" fill="#171C25"/>
<path d="M239.429 81.468C239.709 81.3747 239.982 81.3713 240.249 81.458C240.382 81.4999 240.503 81.5882 240.595 81.7124C240.687 81.8365 240.747 81.9913 240.769 82.158C240.962 83.7113 240.119 84.3714 238.239 84.138C235.392 83.7914 232.555 83.378 229.729 82.898C227.699 82.558 226.229 83.138 224.229 83.368C224.144 83.378 224.057 83.376 223.975 83.3622C223.894 83.3484 223.819 83.3231 223.755 83.288C223.692 83.2529 223.641 83.2089 223.607 83.1589C223.573 83.1088 223.557 83.054 223.559 82.998L223.779 79.188C223.783 79.1065 223.807 79.0272 223.847 78.9563C223.888 78.8854 223.945 78.8248 224.014 78.7793C224.083 78.7338 224.161 78.7046 224.244 78.694C224.326 78.6833 224.41 78.6916 224.489 78.718C227.469 79.7113 230.549 80.0013 233.729 79.588C234.049 79.549 234.375 79.6009 234.669 79.738L238.459 81.488C238.578 81.5444 238.727 81.5718 238.894 81.5684C239.061 81.5649 239.243 81.5307 239.429 81.468Z" fill="#14181E"/>
<path d="M21.4902 89.1886C15.4502 86.8286 7.12026 87.5386 0.750256 88.1386C0.653382 88.1471 0.555793 88.1418 0.463894 88.1231C0.371996 88.1045 0.287869 88.0728 0.217038 88.0304C0.146207 87.9879 0.0902756 87.9354 0.0529142 87.8765C0.0155528 87.8176 -0.00239442 87.7536 0.000256122 87.6886L0.250256 82.6986C0.252771 82.6277 0.275233 82.5587 0.31622 82.4963C0.357206 82.4338 0.415807 82.3792 0.488278 82.3359C0.560749 82.2926 0.645503 82.2616 0.737103 82.2448C0.828703 82.2281 0.925131 82.226 1.02025 82.2386C6.66691 83.0186 12.7869 83.442 19.3802 83.5086C21.7269 83.5353 22.7836 84.452 22.5503 86.2586L22.2102 88.9086C22.2027 88.9717 22.1766 89.0303 22.134 89.0803C22.0914 89.1302 22.0334 89.1701 21.9642 89.197C21.895 89.2239 21.8164 89.2372 21.7344 89.2357C21.6523 89.2342 21.5689 89.2181 21.4902 89.1886Z" fill="#14181E"/>
<path d="M49.3395 86.7283C45.4695 86.3883 41.6795 86.6483 37.8095 86.6883C37.701 86.6875 37.5883 86.6382 37.4864 86.547C37.3844 86.4558 37.2983 86.3272 37.2395 86.1783C36.9261 85.3516 36.9361 84.5283 37.2695 83.7083C37.3234 83.5831 37.4192 83.4759 37.5452 83.3996C37.6712 83.3233 37.822 83.2812 37.9795 83.2783L52.2395 82.9883C52.2902 82.9877 52.3405 82.9986 52.3869 83.0205C52.4334 83.0424 52.4749 83.0747 52.5089 83.1153C52.5429 83.1559 52.5686 83.2039 52.5842 83.2561C52.5998 83.3083 52.605 83.3636 52.5995 83.4183C52.3728 85.7917 51.2861 86.895 49.3395 86.7283Z" fill="#090D11"/>
<path d="M96.7415 91.618C90.2215 90.028 85.3815 90.238 78.7615 90.458C78.5922 90.4638 78.4247 90.424 78.2769 90.3431C78.129 90.2621 78.0062 90.1429 77.9215 89.998C76.7281 87.9847 75.9715 85.8214 75.6515 83.508C75.6442 83.4548 75.6501 83.4002 75.6686 83.3498C75.6871 83.2993 75.7175 83.2547 75.7569 83.2204C75.7963 83.186 75.8433 83.1631 75.8932 83.1539C75.9431 83.1447 75.9942 83.1496 76.0415 83.1681C77.5948 83.7681 78.7448 84.088 79.4915 84.128C85.8448 84.4547 92.1681 85.0947 98.4615 86.048C98.645 86.0768 98.8127 86.1363 98.939 86.2175C99.0653 86.2987 99.1434 86.3972 99.1615 86.498C99.4881 88.4047 99.0381 90.068 97.8115 91.488C97.7284 91.5827 97.5824 91.6456 97.3919 91.6688C97.2014 91.6919 96.975 91.6742 96.7415 91.618Z" fill="#14181E"/>
<path d="M187.3 90.8478C183.89 89.2678 178.38 89.4578 178.92 84.3078C178.927 84.2404 178.948 84.1745 178.981 84.1159C179.014 84.0572 179.058 84.0075 179.109 83.9711C179.16 83.9347 179.217 83.9126 179.275 83.9068C179.332 83.901 179.389 83.9117 179.44 83.9378C182.82 85.6912 186.413 86.6345 190.22 86.7678C190.301 86.7703 190.383 86.7848 190.458 86.81C190.533 86.8352 190.6 86.8705 190.654 86.9132C190.707 86.9558 190.745 87.0046 190.765 87.0558C190.785 87.1069 190.787 87.1589 190.77 87.2078C190.243 88.6745 189.366 89.8878 188.14 90.8478C188.044 90.9223 187.913 90.9619 187.765 90.9619C187.616 90.9619 187.454 90.9223 187.3 90.8478Z" fill="#1C2027"/>
<path d="M143.562 91.4872C141.702 90.3472 140.322 89.3773 139.652 87.3273C139.633 87.2726 139.628 87.2142 139.638 87.1568C139.647 87.0995 139.671 87.045 139.707 86.9979C139.744 86.9508 139.791 86.9125 139.846 86.8863C139.901 86.8601 139.961 86.8467 140.022 86.8472C145.629 86.8939 151.226 86.8272 156.812 86.6472C159.622 86.5672 161.312 88.2672 161.062 90.9672C161.052 91.094 161.015 91.2173 160.953 91.3295C160.892 91.4417 160.807 91.5405 160.704 91.62C160.601 91.6995 160.482 91.7579 160.355 91.7918C160.227 91.8257 160.094 91.8344 159.962 91.8173C154.809 91.1706 149.652 91.1306 144.492 91.6973C144.175 91.7362 143.847 91.6621 143.562 91.4872Z" fill="#14181E"/>
<path d="M239.26 95.398C234.84 93.078 229.89 92.758 224.86 93.018C224.763 93.023 224.667 93.0135 224.576 92.99C224.485 92.9665 224.402 92.9294 224.331 92.881C224.261 92.8327 224.204 92.7738 224.164 92.7081C224.124 92.6423 224.103 92.5709 224.1 92.498L224 88.668C223.999 88.6229 224.015 88.5786 224.047 88.5377C224.079 88.4968 224.127 88.4603 224.187 88.4303C224.247 88.4003 224.318 88.3776 224.396 88.3634C224.474 88.3492 224.557 88.344 224.64 88.348C229.72 88.578 234.56 90.118 239.56 89.608C239.627 89.6008 239.694 89.607 239.758 89.6262C239.821 89.6454 239.879 89.6771 239.928 89.719C239.976 89.7609 240.014 89.8121 240.039 89.8689C240.063 89.9257 240.074 89.9868 240.07 90.0479L239.78 95.158C239.777 95.2118 239.759 95.2632 239.728 95.3074C239.697 95.3517 239.654 95.3874 239.602 95.4113C239.55 95.4352 239.492 95.4465 239.432 95.4441C239.372 95.4418 239.313 95.4259 239.26 95.398Z" fill="#14181E"/>
<path d="M106.23 93.2274L105.98 92.9774L113.97 88.8474C114.284 88.6874 114.38 88.774 114.26 89.1074C112.987 92.594 110.31 93.9674 106.23 93.2274Z" fill="#14181E"/>
<path d="M47.6295 90.8977C47.0695 95.3277 42.7995 93.6077 39.7095 93.6777C39.5481 93.6833 39.3884 93.6476 39.2464 93.5739C39.1043 93.5003 38.9848 93.3913 38.8995 93.2577C38.7061 92.951 38.6528 92.5944 38.7395 92.1877C38.7792 92.0019 38.853 91.8314 38.9448 91.7134C39.0366 91.5953 39.1389 91.5394 39.2295 91.5577C42.0761 92.1244 44.7328 91.7477 47.1995 90.4277C47.5461 90.241 47.6895 90.3977 47.6295 90.8977Z" fill="#14181E"/>
<path d="M182.049 91.1181C184.519 90.2481 187.249 93.9781 183.339 95.5481C183.172 95.6167 182.994 95.6383 182.839 95.6089C182.685 95.5794 182.564 95.5009 182.499 95.3881C181.899 94.3281 181.563 93.1781 181.489 91.9381C181.48 91.7615 181.53 91.5862 181.631 91.4384C181.732 91.2907 181.879 91.1783 182.049 91.1181Z" fill="#383749"/>
<path d="M2.41172 98.5579C0.161717 98.6679 0.121723 94.648 0.401723 93.218C0.426256 93.0827 0.497912 92.961 0.603032 92.8762C0.708152 92.7913 0.839394 92.7493 0.97173 92.758L21.7317 94.228C21.8529 94.2369 21.9734 94.2852 22.0806 94.3678C22.1879 94.4504 22.278 94.5644 22.3417 94.698C23.0951 96.278 23.3551 97.8979 23.1217 99.5579C23.1023 99.6893 23.0313 99.8081 22.9235 99.8899C22.8157 99.9717 22.6791 100.01 22.5417 99.9979C17.0351 99.4113 11.5151 99.3379 5.98172 99.7779C5.26172 99.8379 4.3784 99.508 3.33173 98.788C3.07854 98.6195 2.7552 98.5387 2.41172 98.5579Z" fill="#14181E"/>
<path d="M105.982 92.9785L106.232 93.2285C104.105 93.6952 102.762 94.9752 102.202 97.0685C102.162 97.2103 102.078 97.3347 101.966 97.4217C101.854 97.5087 101.718 97.5534 101.582 97.5485C99.5819 97.4485 99.2552 96.6718 100.602 95.2185C101.792 93.9285 104.302 93.5385 105.982 92.9785Z" fill="#BADCCB"/>
<path d="M96.0222 94.3587C92.7922 97.4787 83.1822 101.019 80.6522 95.1186C80.6298 95.0667 80.621 95.0102 80.6267 94.9538C80.6323 94.8974 80.6522 94.8428 80.6846 94.7947C80.717 94.7465 80.761 94.7063 80.8128 94.6774C80.8646 94.6485 80.9227 94.6318 80.9822 94.6286L95.9222 94.0186C96.2422 94.0053 96.2755 94.1187 96.0222 94.3587Z" fill="#14181E"/>
<path d="M237.769 101.938L237.479 102.478C234.479 101.898 231.476 101.318 228.469 100.738C227.056 100.465 226.476 101.031 226.729 102.438L225.129 97.0081C225.114 96.9571 225.113 96.9031 225.126 96.8514C225.139 96.7997 225.165 96.752 225.202 96.7128C225.239 96.6737 225.286 96.6444 225.338 96.6278C225.39 96.6112 225.446 96.6079 225.499 96.6181C229.699 97.3881 233.789 97.3481 237.309 100.388C237.43 100.492 237.528 100.62 237.598 100.765C237.669 100.909 237.71 101.066 237.719 101.228L237.769 101.938Z" fill="#14181E"/>
<path d="M149.231 97.198C149.051 97.0646 149.071 97.0113 149.291 97.038C149.341 97.038 159.991 96.8179 156.211 98.8979C154.251 99.9879 151.031 98.468 149.231 97.198Z" fill="#2A2A28"/>
<path d="M237.48 102.478L237.77 101.938C238.83 103.098 239.467 102.935 239.68 101.448C239.71 101.239 239.7 101.038 239.652 100.869C239.604 100.7 239.52 100.571 239.41 100.498L238.24 99.6979C238.176 99.6533 238.125 99.593 238.09 99.5228C238.056 99.4526 238.04 99.3749 238.044 99.2968C238.048 99.2188 238.072 99.143 238.113 99.0767C238.154 99.0104 238.212 98.9558 238.28 98.9179C239.294 98.3713 239.974 98.7213 240.32 99.9679C241.414 103.861 240.467 104.698 237.48 102.478Z" fill="#636A81"/>
<path d="M109.612 99.7273C109.292 104.937 106.352 106.217 101.342 105.427C101.288 105.419 101.236 105.407 101.188 105.39C101.14 105.374 101.097 105.354 101.061 105.332C101.026 105.31 100.999 105.285 100.982 105.26C100.965 105.236 100.958 105.211 100.962 105.187L101.482 101.437C101.5 101.321 101.595 101.219 101.747 101.156C101.898 101.092 102.094 101.071 102.292 101.097C104.859 101.471 107.172 100.927 109.232 99.4673C109.512 99.274 109.639 99.3606 109.612 99.7273Z" fill="#14181E"/>
<path d="M89.6719 102.498C88.5785 101.878 88.4918 101.465 89.4118 101.258C89.555 101.227 89.7078 101.232 89.8586 101.274C90.0095 101.316 90.1543 101.392 90.2819 101.498C92.4219 103.268 95.8218 102.478 98.3818 102.278C98.5589 102.266 98.7306 102.282 98.8869 102.327C99.0432 102.371 99.1809 102.443 99.2918 102.538C100.452 103.498 99.4818 104.128 98.4518 104.178C94.8852 104.365 91.9585 103.805 89.6719 102.498Z" fill="#BADCCB"/>
<path d="M226.73 102.438L227.91 106.478C228.045 106.953 228.293 107.374 228.618 107.683C228.944 107.993 229.332 108.176 229.73 108.207C232.797 108.474 235.78 109.084 238.68 110.038C238.745 110.059 238.804 110.095 238.853 110.142C238.901 110.189 238.938 110.246 238.958 110.308C238.979 110.37 238.984 110.434 238.972 110.495C238.96 110.556 238.932 110.612 238.89 110.658C237.87 111.804 237.4 113.148 237.48 114.688C237.494 115.001 237.447 115.011 237.34 114.717L236.12 111.388C236.048 111.194 235.946 111.025 235.824 110.898C235.703 110.771 235.566 110.692 235.43 110.668L229.22 109.508C229.032 109.472 228.862 109.407 228.731 109.322C228.601 109.236 228.517 109.133 228.49 109.027L226.73 102.438Z" fill="#1C2027"/>
<path d="M24.2408 111.257C18.5608 112.137 13.4408 111.927 7.77076 111.427C7.62213 111.415 7.4751 111.364 7.34141 111.277C7.20772 111.19 7.09107 111.07 7.00077 110.927L4.77076 107.387C4.71462 107.301 4.68217 107.201 4.67663 107.098C4.6711 106.995 4.69267 106.892 4.73922 106.8C4.78577 106.708 4.85567 106.63 4.94192 106.573C5.02817 106.516 5.12777 106.483 5.23077 106.477L23.2308 105.747C23.4276 105.739 23.6171 105.778 23.7629 105.857C23.9087 105.936 24.0005 106.05 24.0208 106.177L24.7508 110.677C24.7615 110.741 24.7567 110.807 24.7368 110.871C24.7169 110.935 24.6822 110.996 24.6347 111.05C24.5873 111.104 24.528 111.15 24.4604 111.186C24.3927 111.221 24.3181 111.246 24.2408 111.257Z" fill="#14181E"/>
<path d="M242.19 129.188C242.13 128.328 242.34 128.028 242.82 128.288C242.931 128.347 243.027 128.436 243.098 128.547C243.17 128.659 243.215 128.79 243.23 128.928C243.25 129.061 243.31 129.178 243.41 129.278C243.817 129.671 243.97 129.558 243.87 128.938L243.03 123.688C242.937 123.108 242.714 123.034 242.36 123.468C241.387 124.681 241.107 126.088 241.52 127.688C239.794 126.734 238.604 125.741 237.95 124.708C235.61 121.014 233.04 117.488 230.24 114.128C230.127 113.988 230.134 113.974 230.26 114.088L234.84 118.088C234.929 118.164 235.008 118.278 235.073 118.425C235.139 118.571 235.189 118.746 235.22 118.938C235.4 120.078 236.01 120.884 237.05 121.358C237.168 121.414 237.309 121.437 237.462 121.425C237.615 121.412 237.776 121.366 237.93 121.288C241.9 119.268 241.68 114.738 240.79 110.908C240.769 110.818 240.764 110.725 240.775 110.635C240.787 110.544 240.815 110.461 240.856 110.389C240.898 110.318 240.953 110.262 241.016 110.225C241.08 110.189 241.149 110.172 241.22 110.178L241.93 110.238C242.062 110.246 242.198 110.317 242.32 110.442C242.441 110.567 242.543 110.74 242.61 110.938C243.83 114.404 244.26 117.991 243.9 121.698C243.882 121.902 243.88 122.091 243.895 122.253C243.911 122.415 243.943 122.546 243.99 122.638C245.19 124.964 245.517 127.878 244.97 131.378C244.958 131.452 244.929 131.522 244.884 131.583C244.839 131.644 244.781 131.693 244.714 131.727C244.647 131.762 244.573 131.779 244.497 131.779C244.422 131.779 244.348 131.762 244.28 131.728C243.38 131.274 242.684 130.428 242.19 129.188Z" fill="#1C2027"/>
<path d="M25.4998 120.098C22.3498 120.968 8.05984 123.758 8.72984 117.258C8.74447 117.119 8.81115 116.99 8.91766 116.895C9.02417 116.799 9.16339 116.744 9.30984 116.738C15.7598 116.498 21.6298 117.098 25.2598 115.838C25.3416 115.809 25.4287 115.796 25.514 115.799C25.5993 115.802 25.6805 115.822 25.7507 115.856C25.821 115.89 25.8784 115.938 25.9182 115.996C25.958 116.053 25.9792 116.119 25.9798 116.188L25.9698 119.428C25.9698 119.583 25.9238 119.732 25.8389 119.853C25.754 119.974 25.6349 120.06 25.4998 120.098Z" fill="#14181E"/>
<path d="M242.191 129.187L241.521 127.687C241.107 126.087 241.387 124.681 242.361 123.467C242.714 123.034 242.937 123.107 243.031 123.687L243.871 128.937C243.971 129.557 243.817 129.671 243.411 129.277C243.311 129.177 243.251 129.061 243.231 128.927C243.215 128.789 243.17 128.659 243.098 128.547C243.027 128.436 242.932 128.346 242.821 128.287C242.341 128.027 242.131 128.327 242.191 129.187Z" fill="#F1F3F2"/>
<path d="M11.111 127.107C10.321 125.897 11.581 125.277 12.641 125.397C17.0943 125.917 21.5476 125.871 26.001 125.257C26.0733 125.247 26.1475 125.252 26.2174 125.271C26.2873 125.29 26.3508 125.322 26.4027 125.367C26.4546 125.411 26.4933 125.464 26.5156 125.524C26.5379 125.583 26.5432 125.646 26.531 125.707L25.701 129.927C25.621 130.327 25.4543 130.377 25.201 130.077C23.391 127.937 14.651 127.467 11.911 127.487C11.7433 127.49 11.5816 127.457 11.4415 127.39C11.3014 127.323 11.1876 127.226 11.111 127.107Z" fill="#090D11"/>
<path d="M18.001 141.218C16.251 140.508 14.161 139.848 12.091 139.438C11.9744 139.414 11.868 139.361 11.7846 139.285C11.7012 139.209 11.6444 139.113 11.621 139.008C11.2943 137.548 11.4677 136.168 12.141 134.868C12.441 134.302 12.671 134.302 12.831 134.868L13.211 136.198C13.2511 136.332 13.3368 136.457 13.4596 136.561C13.5824 136.664 13.738 136.743 13.911 136.788L19.241 138.178C19.3873 138.215 19.5424 138.211 19.6914 138.167C19.8403 138.123 19.978 138.041 20.091 137.928L22.601 135.378C22.921 135.052 22.9843 135.092 22.791 135.498L20.441 140.368C20.2406 140.784 19.877 141.103 19.424 141.261C18.9709 141.419 18.4623 141.404 18.001 141.218Z" fill="#090D11"/>
<path d="M17.1112 144.368C17.2512 145.975 16.4345 146.991 14.6611 147.418C14.4831 147.462 14.3009 147.461 14.1373 147.412C13.9737 147.364 13.8359 147.272 13.7411 147.148C12.8478 145.968 12.3911 144.628 12.3711 143.128C12.37 143.058 12.3864 142.989 12.4189 142.926C12.4514 142.863 12.4992 142.809 12.5585 142.767C12.6177 142.725 12.6868 142.697 12.7602 142.685C12.8336 142.673 12.9093 142.678 12.9811 142.698L16.4611 143.678C16.64 143.728 16.7987 143.821 16.9152 143.944C17.0316 144.068 17.1001 144.216 17.1112 144.368Z" fill="#14181E"/>
</svg>
