<svg width="149" height="180" viewBox="0 0 149 180" fill="none" xmlns="http://www.w3.org/2000/svg">
<path d="M87.5764 2.66754C86.5164 9.46754 88.8065 14.1075 82.9065 19.5075C80.5465 21.6675 80.1464 22.7975 82.6964 25.0175C83.9298 26.0909 85.2465 26.1976 86.6465 25.3376C94.3465 20.6076 93.6965 12.5475 93.0965 4.66754C92.8565 1.56754 90.9465 -0.14245 88.0565 1.86755C87.9297 1.95974 87.8219 2.07787 87.7395 2.21516C87.6572 2.35245 87.6017 2.50618 87.5764 2.66754Z" stroke="#F9AB9F" stroke-width="2"/>
<path d="M101.226 41.4876C100.326 51.2676 109.896 60.3976 116.936 66.3476C133.816 80.6176 125.986 98.7176 120.816 116.068C118.116 125.118 115.936 130.768 105.206 131.148C95.0193 131.508 86.4326 131.484 79.4459 131.078C57.9959 129.838 45.1659 99.3476 55.6459 82.7376C59.0759 77.3076 64.296 71.8876 70.746 70.3776C74.436 69.5276 77.716 66.6176 81.486 65.2576C81.6319 65.2049 81.7884 65.1874 81.943 65.2065C82.0976 65.2256 82.2458 65.2808 82.3759 65.3676C87.1859 68.5576 93.936 71.1376 97.486 74.7976C105.036 82.5576 109.106 96.9076 100.626 105.478C90.7959 115.418 73.846 108.748 70.996 95.7676C70.896 95.2876 71.0293 95.2109 71.3959 95.5376C77.3559 100.858 90.7359 108.338 96.9059 99.2776C97.7526 98.0309 97.9526 96.6876 97.5059 95.2476C95.6259 89.2176 87.9059 75.0276 79.6959 77.1676C74.1159 78.6276 58.066 84.8076 57.986 92.4776C57.776 115.298 78.4359 128.478 99.0259 119.488C106.586 116.188 113.296 102.908 113.756 95.0976C114.706 78.7576 96.4459 62.5676 83.0759 56.1176C82.6253 55.9034 82.1354 55.7857 81.6377 55.7719C81.14 55.7581 80.6454 55.8486 80.1859 56.0376C69.1159 60.6376 59.0359 66.1976 50.7759 75.9576C43.0559 85.0776 43.3159 93.9976 45.1259 105.508C46.7559 115.948 52.216 121.438 59.426 128.778C61.526 130.908 58.5959 130.668 57.7059 130.378C44.3659 126.058 40.656 116.388 38.306 103.038C36.846 94.7776 35.8159 84.6676 39.4659 76.9276C42.3659 70.7776 50.1759 65.3276 53.3859 61.1676C61.3759 50.7976 64.876 38.6376 59.676 26.2076C59.5162 25.8109 59.2897 25.5125 59.046 25.3776C56.846 24.1376 55.0793 24.5243 53.746 26.5376C53.1126 27.4776 53.0092 28.8409 53.4359 30.6276C54.5359 35.3176 55.286 39.8076 53.236 44.3676C50.466 50.5476 46.7159 59.0476 41.1559 64.0076C37.8893 66.9276 36.2393 68.4043 36.2059 68.4376C27.7059 78.2576 28.536 90.7776 30.236 103.478C31.9426 116.271 37.8726 126.081 48.0259 132.908C54.4359 137.218 59.4659 137.798 67.7559 138.848C80.0259 140.398 93.4959 139.518 105.916 139.478C110.003 139.464 113.093 138.998 115.186 138.078C128.806 132.078 131.026 111.188 132.756 98.6276C134.456 86.2176 135.676 78.1976 127.176 69.8176C120.126 62.8676 106.696 52.3476 108.546 41.8076C109.576 35.8776 111.996 29.3776 112.576 23.6776C112.836 21.1243 113.039 18.0643 113.186 14.4976C113.319 11.1243 111.946 9.78427 109.066 10.4776C108.925 10.5108 108.797 10.586 108.696 10.6942C108.595 10.8024 108.525 10.939 108.496 11.0876C107.416 16.7776 106.476 22.0876 104.606 27.8276C102.633 33.8876 101.506 38.4409 101.226 41.4876Z" stroke="#FBAFA3" stroke-width="2"/>
<path d="M2.89573 93.5674C3.89573 93.9607 4.9291 94.0341 5.99576 93.7874C6.42462 93.6858 6.79872 93.4224 7.04343 93.0498C7.28814 92.6771 7.38538 92.2228 7.31571 91.7774C5.14904 78.3507 9.82239 69.1074 21.3357 64.0474C24.3057 62.7374 29.4957 54.1574 22.3557 55.3074C22.0497 55.3597 21.7559 55.5171 21.5157 55.7574C19.9957 57.3307 18.5457 58.9774 17.1657 60.6974C16.3057 61.7774 12.1757 62.4474 10.6957 63.2874C4.87571 66.5674 3.87571 70.1274 2.25571 76.3074C0.805711 81.8574 0.605704 86.7274 1.6857 92.1674C1.74702 92.4739 1.88988 92.7625 2.10123 93.0071C2.31258 93.2516 2.58572 93.4442 2.89573 93.5674Z" stroke="#F9AB9F" stroke-width="2"/>
<path d="M87.0786 157.028C95.8053 159.041 104.625 159.721 113.539 159.068C129.679 157.888 142.889 143.808 146.909 128.758C147.242 127.511 146.845 126.591 145.719 125.998C144.379 125.298 143.019 125.258 141.639 125.878C141.53 125.928 141.417 126.029 141.309 126.173C141.202 126.317 141.102 126.5 141.019 126.708C137.109 136.618 128.529 148.818 117.249 151.918C114.895 152.564 111.535 152.668 107.169 152.228C102.009 151.718 86.3586 148.088 85.9586 155.548C85.9427 155.888 86.0462 156.223 86.251 156.493C86.4558 156.764 86.7488 156.953 87.0786 157.028Z" stroke="#F9AB9F" stroke-width="2"/>
<path d="M19.5493 155.678C18.2993 161.678 30.6893 155.798 32.8493 155.678C36.5893 155.458 39.1893 155.788 41.8793 158.748C45.3293 162.558 47.7293 167.978 54.1493 165.208C56.0493 164.381 56.4226 163.211 55.2693 161.698C51.6093 156.858 47.1993 152.831 42.0393 149.618C41.7732 149.449 41.4157 149.365 41.0193 149.378C34.7693 149.508 25.0693 150.778 20.0593 154.868C19.7938 155.088 19.614 155.374 19.5493 155.678Z" stroke="#FBAFA3" stroke-width="2"/>
<path d="M70.0258 169.418C66.2258 179.168 95.5658 174.688 101.386 176.048C107.366 177.438 122.506 181.078 127.046 176.458C129.286 174.178 126.666 172.298 124.386 172.058C116.346 171.205 108.369 169.918 100.456 168.198C98.4492 167.758 96.5325 167.751 94.7058 168.178C87.2258 169.898 79.7559 169.875 72.2959 168.108C71.8498 168.002 71.3744 168.076 70.9573 168.317C70.5402 168.558 70.2094 168.949 70.0258 169.418Z" stroke="#F9AB9F" stroke-width="2"/>
<path d="M78.1169 90.6075L86.9869 96.1975C87.1515 96.2999 87.3264 96.3684 87.498 96.3979C87.6696 96.4274 87.8334 96.417 87.9769 96.3675C92.5669 94.7075 82.6169 84.0675 78.0669 88.5475C77.917 88.6945 77.7974 88.8703 77.7169 89.0617C77.6365 89.2531 77.5972 89.4553 77.602 89.6532C77.6068 89.8511 77.6555 90.0396 77.7447 90.2048C77.8338 90.37 77.9611 90.5077 78.1169 90.6075Z" stroke="#FBAD9F" stroke-width="2"/>
<path d="M88.0604 1.86755C90.9504 -0.14245 92.8604 1.56754 93.1004 4.66754C93.7004 12.5475 94.3504 20.6076 86.6504 25.3376C85.2504 26.1976 83.9337 26.0909 82.7003 25.0175C80.1503 22.7975 80.5504 21.6675 82.9104 19.5075C88.8104 14.1075 86.5204 9.46754 87.5804 2.66754C87.6057 2.50618 87.6611 2.35245 87.7434 2.21516C87.8258 2.07787 87.9336 1.95974 88.0604 1.86755Z" fill="#F2573F"/>
<path d="M116.94 66.3476C109.9 60.3976 100.33 51.2676 101.23 41.4876C101.51 38.4409 102.637 33.8876 104.61 27.8276C106.48 22.0876 107.42 16.7776 108.5 11.0876C108.529 10.939 108.598 10.8024 108.7 10.6942C108.801 10.586 108.929 10.5108 109.07 10.4776C111.95 9.78427 113.323 11.1243 113.19 14.4976C113.043 18.0643 112.84 21.1243 112.58 23.6776C112 29.3776 109.58 35.8776 108.55 41.8076C106.7 52.3476 120.13 62.8676 127.18 69.8176C135.68 78.1976 134.46 86.2176 132.76 98.6276C131.03 111.188 128.81 132.078 115.19 138.078C113.096 138.998 110.007 139.464 105.92 139.478C93.4999 139.518 80.0298 140.398 67.7598 138.848C59.4698 137.798 54.4398 137.218 48.0298 132.908C37.8765 126.081 31.9465 116.271 30.2399 103.478C28.5399 90.7776 27.7098 78.2576 36.2098 68.4376C36.2432 68.4043 37.8932 66.9276 41.1598 64.0076C46.7198 59.0476 50.4699 50.5476 53.2399 44.3676C55.2899 39.8076 54.5398 35.3176 53.4398 30.6276C53.0131 28.8409 53.1165 27.4776 53.7499 26.5376C55.0832 24.5243 56.8499 24.1376 59.0499 25.3776C59.2936 25.5125 59.5201 25.8109 59.6799 26.2076C64.8799 38.6376 61.3798 50.7976 53.3898 61.1676C50.1798 65.3276 42.3698 70.7776 39.4698 76.9276C35.8198 84.6676 36.8499 94.7776 38.3099 103.038C40.6599 116.388 44.3698 126.058 57.7098 130.378C58.5998 130.668 61.5299 130.908 59.4299 128.778C52.2199 121.438 46.7598 115.948 45.1298 105.508C43.3198 93.9976 43.0598 85.0776 50.7798 75.9576C59.0398 66.1976 69.1198 60.6376 80.1898 56.0376C80.6493 55.8486 81.1439 55.7581 81.6416 55.7719C82.1393 55.7857 82.6292 55.9034 83.0798 56.1176C96.4498 62.5676 114.71 78.7576 113.76 95.0976C113.3 102.908 106.59 116.188 99.0298 119.488C78.4398 128.478 57.7799 115.298 57.9899 92.4776C58.0699 84.8076 74.1198 78.6276 79.6998 77.1676C87.9098 75.0276 95.6298 89.2176 97.5098 95.2476C97.9565 96.6876 97.7565 98.0309 96.9098 99.2776C90.7398 108.338 77.3598 100.858 71.3998 95.5376C71.0332 95.2109 70.8999 95.2876 70.9999 95.7676C73.8499 108.748 90.7998 115.418 100.63 105.478C109.11 96.9076 105.04 82.5576 97.4899 74.7976C93.9399 71.1376 87.1898 68.5576 82.3798 65.3676C82.2497 65.2808 82.1015 65.2256 81.9469 65.2065C81.7923 65.1874 81.6358 65.2049 81.4899 65.2576C77.7199 66.6176 74.4399 69.5276 70.7499 70.3776C64.2999 71.8876 59.0798 77.3076 55.6498 82.7376C45.1698 99.3476 57.9998 129.838 79.4498 131.078C86.4365 131.484 95.0232 131.508 105.21 131.148C115.94 130.768 118.12 125.118 120.82 116.068C125.99 98.7176 133.82 80.6176 116.94 66.3476ZM78.1199 90.6076L86.9899 96.1976C87.1545 96.3 87.3293 96.3686 87.501 96.398C87.6726 96.4275 87.8364 96.4171 87.9799 96.3676C92.5699 94.7076 82.6198 84.0676 78.0698 88.5476C77.92 88.6947 77.8004 88.8704 77.7199 89.0619C77.6394 89.2533 77.6001 89.4554 77.6049 89.6533C77.6097 89.8512 77.6585 90.0398 77.7476 90.205C77.8368 90.3702 77.964 90.5078 78.1199 90.6076Z" fill="#F75F46"/>
<path d="M2.89963 93.5674C2.58963 93.4442 2.31649 93.2516 2.10514 93.0071C1.89379 92.7626 1.75093 92.4739 1.68961 92.1674C0.60961 86.7274 0.809618 81.8574 2.25962 76.3074C3.87962 70.1274 4.87962 66.5674 10.6996 63.2874C12.1796 62.4474 16.3097 61.7774 17.1697 60.6974C18.5497 58.9774 19.9996 57.3307 21.5196 55.7574C21.7598 55.5171 22.0536 55.3597 22.3597 55.3074C29.4997 54.1574 24.3096 62.7374 21.3396 64.0474C9.8263 69.1074 5.15295 78.3507 7.31962 91.7774C7.38928 92.2228 7.29204 92.6771 7.04734 93.0498C6.80263 93.4224 6.42853 93.6858 5.99967 93.7874C4.933 94.0341 3.89963 93.9607 2.89963 93.5674Z" fill="#F2573F"/>
<path d="M87.0786 157.028C86.7488 156.953 86.4558 156.764 86.251 156.493C86.0462 156.223 85.9427 155.888 85.9586 155.548C86.3586 148.088 102.009 151.718 107.169 152.228C111.535 152.668 114.895 152.564 117.249 151.918C128.529 148.818 137.109 136.618 141.019 126.708C141.102 126.5 141.202 126.317 141.309 126.173C141.417 126.029 141.53 125.928 141.639 125.878C143.019 125.258 144.379 125.298 145.719 125.998C146.845 126.591 147.242 127.511 146.909 128.758C142.889 143.808 129.679 157.888 113.539 159.068C104.625 159.721 95.8053 159.041 87.0786 157.028Z" fill="#F2573F"/>
<path d="M32.8493 155.678C30.6893 155.798 18.2993 161.678 19.5493 155.678C19.614 155.374 19.7938 155.088 20.0593 154.868C25.0693 150.778 34.7693 149.508 41.0193 149.378C41.4157 149.365 41.7732 149.449 42.0393 149.618C47.1993 152.831 51.6093 156.858 55.2693 161.698C56.4226 163.211 56.0493 164.381 54.1493 165.208C47.7293 167.978 45.3293 162.558 41.8793 158.748C39.1893 155.788 36.5893 155.458 32.8493 155.678Z" fill="#F75F46"/>
<path d="M101.39 176.047C95.5697 174.687 66.2298 179.167 70.0298 169.417C70.2133 168.948 70.5441 168.557 70.9612 168.317C71.3783 168.076 71.8537 168.002 72.2998 168.107C79.7598 169.874 87.2297 169.897 94.7097 168.177C96.5364 167.751 98.4531 167.757 100.46 168.197C108.373 169.917 116.35 171.204 124.39 172.057C126.67 172.297 129.29 174.177 127.05 176.457C122.51 181.077 107.37 177.437 101.39 176.047Z" fill="#F2573F"/>
<path d="M78.1169 90.6079C77.9611 90.5081 77.8338 90.3705 77.7447 90.2053C77.6555 90.0401 77.6068 89.8516 77.602 89.6537C77.5972 89.4558 77.6365 89.2536 77.7169 89.0622C77.7974 88.8708 77.917 88.695 78.0669 88.548C82.6169 84.068 92.5669 94.708 87.9769 96.368C87.8334 96.4175 87.6696 96.4279 87.498 96.3984C87.3264 96.3689 87.1515 96.3003 86.9869 96.1979L78.1169 90.6079Z" fill="#FEFAF8"/>
</svg>
