<svg width="69" height="152" viewBox="0 0 69 152" fill="none" xmlns="http://www.w3.org/2000/svg">
<path d="M29.0014 63.3636C31.4814 68.3169 30.048 70.2935 24.7014 69.2935C17.8914 68.0135 11.0213 66.9635 4.18135 65.6535C4.11103 65.6405 4.03939 65.6386 3.97053 65.6476C3.90167 65.6567 3.83697 65.6767 3.78022 65.7065C3.72348 65.7363 3.67582 65.7753 3.63997 65.8211C3.60411 65.8669 3.58078 65.9188 3.57136 65.9736L1.6714 77.6935C1.62587 77.9635 1.69058 78.2409 1.85157 78.4655C2.01257 78.6902 2.25685 78.844 2.53138 78.8936C10.6114 80.4269 18.7514 81.3068 26.9514 81.5335C28.5914 81.5735 29.4813 82.1968 29.6213 83.4035L30.0014 86.7636C30.1547 88.1236 29.408 88.7702 27.7614 88.7036C18.8547 88.3569 10.1047 86.9502 1.51136 84.4836C1.44906 84.4647 1.38335 84.4633 1.31984 84.4793C1.25632 84.4953 1.19691 84.5284 1.14674 84.5756C1.09657 84.6228 1.05713 84.6827 1.03181 84.7503C1.00649 84.8179 0.996021 84.8911 1.00135 84.9636L1.93135 95.9736C1.94272 96.1091 2.00302 96.2413 2.1045 96.3535C2.20599 96.4656 2.34408 96.5527 2.50135 96.6036C10.488 99.0836 18.5747 101.127 26.7614 102.734C28.308 103.034 29.1714 103.977 29.3514 105.564C30.0114 111.374 27.2614 110.204 23.3914 109.214C16.7847 107.514 10.1681 105.704 3.54139 103.784C3.46205 103.761 3.37799 103.756 3.29683 103.769C3.21566 103.782 3.13991 103.813 3.07643 103.858C3.01294 103.904 2.96374 103.963 2.93318 104.03C2.90262 104.097 2.89168 104.171 2.90138 104.244L4.33137 114.254C4.57137 115.967 5.82471 117.19 8.09138 117.924L27.4913 124.174C27.6478 124.222 27.7886 124.316 27.8981 124.447C28.0075 124.578 28.0814 124.739 28.1114 124.914C28.5114 127.074 28.5947 128.747 28.3614 129.934C28.0081 131.76 26.9247 132.464 25.1114 132.044C18.2247 130.464 11.9747 128.41 6.3614 125.884C6.31375 125.863 6.26141 125.854 6.20961 125.86C6.1578 125.865 6.10831 125.884 6.06593 125.914C6.02355 125.944 5.98974 125.985 5.96791 126.032C5.94607 126.08 5.93693 126.132 5.94136 126.184C7.16136 139.694 16.1014 149.944 29.8014 150.564C39.8814 151.024 50.1014 147.904 54.6714 138.184C54.7295 138.059 54.7586 137.923 54.7565 137.785C54.7543 137.648 54.7209 137.513 54.6589 137.392C54.5969 137.271 54.5079 137.167 54.3991 137.087C54.2902 137.007 54.1643 136.955 54.0314 136.934L40.7814 134.714C40.5059 134.666 40.2571 134.514 40.0807 134.286C39.9043 134.058 39.8122 133.77 39.8214 133.474L39.9814 127.454C39.9854 127.285 40.0223 127.119 40.09 126.966C40.1577 126.812 40.2548 126.674 40.3753 126.56C40.4958 126.446 40.6373 126.358 40.7913 126.302C40.9453 126.246 41.1086 126.223 41.2714 126.234C47.0247 126.594 52.6914 127.504 58.2714 128.964C58.6627 129.064 59.0703 129.039 59.4244 128.893C59.7784 128.747 60.0567 128.489 60.2114 128.164C62.1247 124.104 63.4814 119.87 64.2814 115.464C64.3012 115.349 64.2997 115.232 64.277 115.12C64.2543 115.008 64.2109 114.903 64.1497 114.813C64.0884 114.722 64.0106 114.648 63.9213 114.595C63.8321 114.542 63.7333 114.511 63.6314 114.504C59.3114 114.197 54.9014 113.907 50.4014 113.634C44.3414 113.274 37.5114 113.764 41.3614 104.864C41.4323 104.701 41.5331 104.562 41.6506 104.464C41.7682 104.366 41.8973 104.313 42.0214 104.314C49.9947 104.447 57.9181 105.124 65.7914 106.344C65.8791 106.356 65.9678 106.356 66.0523 106.343C66.1367 106.33 66.215 106.305 66.2824 106.27C66.3498 106.234 66.4049 106.189 66.4443 106.136C66.4837 106.083 66.5065 106.025 66.5114 105.964L67.2714 92.7136C67.2789 92.5889 67.259 92.4639 67.2126 92.3459C67.1662 92.2278 67.0944 92.119 67.0013 92.0259C66.9082 91.9328 66.7957 91.8573 66.6704 91.8036C66.545 91.75 66.4094 91.7194 66.2714 91.7136L42.7714 90.7336C42.5516 90.7256 42.3431 90.6522 42.1823 90.5261C42.0215 90.4 41.9185 90.2292 41.8914 90.0435L41.0114 84.2236C41.0012 84.1685 41.0155 84.1124 41.0531 84.0588C41.0906 84.0052 41.1507 83.9554 41.2293 83.9128C41.3078 83.8702 41.4031 83.8357 41.5087 83.8117C41.6142 83.7877 41.7277 83.7748 41.8414 83.7736L66.4614 83.4235C66.5988 83.4226 66.7305 83.3749 66.8305 83.2897C66.9304 83.2046 66.9914 83.0882 67.0014 82.9636C67.348 79.0702 67.0314 75.2336 66.0514 71.4536C66.0113 71.3027 65.9307 71.1697 65.8233 71.0768C65.7158 70.9839 65.588 70.9368 65.4614 70.9435C58.868 71.1435 52.2847 71.2036 45.7114 71.1236C41.3914 71.0736 40.1514 68.9636 40.7314 65.1336C40.9847 63.4536 42.3247 62.7436 44.7514 63.0036C50.4714 63.6169 56.2347 63.8303 62.0414 63.6436C63.7481 63.5903 64.4381 62.7769 64.1114 61.2036L61.8114 50.1535C61.7832 50.019 61.7138 49.8985 61.6152 49.8127C61.5166 49.7269 61.395 49.6812 61.2714 49.6835C54.6647 49.8635 48.078 49.5769 41.5114 48.8235C41.3096 48.8025 41.1223 48.7285 40.9856 48.6158C40.8489 48.5031 40.7726 48.3598 40.7714 48.2136L40.7614 43.7136C40.7618 43.5744 40.795 43.4367 40.8591 43.309C40.9231 43.1813 41.0167 43.0661 41.1342 42.97C41.2517 42.874 41.3908 42.7991 41.5432 42.7499C41.6956 42.7007 41.8582 42.6781 42.0214 42.6835L59.2114 43.1935C59.2761 43.1939 59.3403 43.1798 59.3986 43.152C59.4568 43.1243 59.5075 43.0839 59.5466 43.0341C59.5856 42.9843 59.6119 42.9266 59.6231 42.8657C59.6344 42.8047 59.6304 42.7423 59.6114 42.6835C58.0981 37.9569 56.248 33.3668 54.0614 28.9135C53.9772 28.7439 53.8516 28.6044 53.7057 28.5187C53.5598 28.433 53.4028 28.4065 53.2614 28.4435C49.4614 29.3969 45.628 29.5036 41.7614 28.7636C41.5162 28.7163 41.2941 28.6479 41.1245 28.5676C40.9548 28.4872 40.8456 28.3986 40.8114 28.3135C39.918 26.1002 39.7114 23.7902 40.1914 21.3835C40.2161 21.2563 40.3141 21.1434 40.467 21.066C40.6199 20.9887 40.817 20.9522 41.0214 20.9636L51.5214 21.4335C51.5835 21.4362 51.6451 21.4238 51.7015 21.3971C51.7579 21.3704 51.8075 21.3302 51.8463 21.2798C51.8851 21.2293 51.9121 21.1699 51.9251 21.1064C51.9381 21.0428 51.9369 20.9768 51.9214 20.9136C49.6614 11.3836 45.1414 -1.14646 33.4514 1.31354C26.1914 2.84354 20.5914 9.56357 18.4714 16.5336C18.428 16.677 18.4158 16.829 18.4357 16.9766C18.4557 17.1241 18.5072 17.2628 18.5858 17.3808C18.6645 17.4988 18.7679 17.5925 18.8873 17.6539C19.0067 17.7154 19.1385 17.7427 19.2714 17.7336C22.2447 17.5469 25.1647 17.8702 28.0314 18.7036C28.3894 18.8076 28.704 19.0113 28.9277 19.2837C29.1515 19.5561 29.2721 19.8825 29.2714 20.2136L29.2814 25.9636C29.2807 26.1435 29.2392 26.321 29.16 26.4837C29.0807 26.6464 28.9655 26.7906 28.8221 26.9064C28.6787 27.0223 28.5106 27.1069 28.3293 27.1547C28.148 27.2026 27.9577 27.2124 27.7714 27.1835L16.2714 25.4435C16.1377 25.4253 15.9974 25.4699 15.8762 25.569C15.755 25.6682 15.661 25.8154 15.6114 25.9836L11.9313 38.3936C11.8966 38.511 11.8867 38.6347 11.9025 38.7551C11.9183 38.8754 11.9594 38.9891 12.0225 39.0871C12.0855 39.1851 12.1689 39.2647 12.2659 39.3196C12.3629 39.3746 12.4709 39.4032 12.5814 39.4035C17.4414 39.4835 22.2314 40.1302 26.9514 41.3436C31.9714 42.6336 31.0013 49.5036 24.7413 47.7536C22.3747 47.0936 17.5413 46.3135 10.2413 45.4135C10.1021 45.3963 9.96345 45.4181 9.84498 45.4755C9.72652 45.533 9.63428 45.6233 9.58137 45.7336C7.84804 49.3002 6.43471 52.9803 5.34138 56.7736C4.82805 58.5736 5.37801 59.5669 6.99134 59.7536L27.0314 62.0936C27.4675 62.1453 27.8763 62.2887 28.2205 62.5106C28.5646 62.7324 28.8331 63.0257 29.0014 63.3636Z" stroke="#808080" stroke-width="2"/>
<path d="M30.6505 125.613C29.9572 126.893 29.7671 128.26 30.0805 129.713C30.3005 130.766 29.8505 131.7 28.7305 132.513C22.7205 136.853 17.1505 133.693 11.4105 131.213C10.0638 130.633 9.59714 131.046 10.0105 132.453C10.6605 134.663 10.4805 136.353 11.9805 138.183C21.6005 149.933 37.4505 150.303 49.5605 142.063C50.2205 141.616 50.5971 140.92 50.6905 139.973C50.7046 139.836 50.6703 139.699 50.5943 139.59C50.5184 139.48 50.4063 139.407 50.2805 139.383L41.2505 137.523C41.0289 137.479 40.8295 137.422 40.6681 137.356C40.5067 137.29 40.3877 137.217 40.3205 137.143L36.5905 133.153C36.5319 133.088 36.4739 132.968 36.4216 132.804C36.3693 132.64 36.3243 132.437 36.2905 132.213L35.7505 128.463C35.7299 128.312 35.7549 128.158 35.8224 128.019C35.8899 127.881 35.997 127.764 36.1305 127.683C40.6605 124.953 43.3605 121.623 49.3005 124.103C51.5872 125.05 53.9805 125.316 56.4805 124.903C56.9329 124.826 57.3532 124.648 57.7016 124.386C58.0499 124.123 58.3147 123.785 58.4705 123.403L60.2605 118.933C60.7871 117.626 60.2671 116.98 58.7005 116.993C51.6105 117.033 42.0805 118.883 38.5005 110.943C38.4283 110.78 38.3392 110.637 38.2392 110.523C38.1391 110.409 38.0305 110.327 37.9205 110.283C35.2672 109.276 35.0938 108.146 37.4005 106.893C37.7136 106.724 37.9636 106.484 38.1205 106.203C39.2871 104.083 40.6038 102.863 42.0705 102.543C46.5038 101.596 52.7738 101.233 60.8805 101.453C65.2305 101.573 66.7905 99.023 64.2505 95.413C64.1647 95.2868 64.047 95.1834 63.9076 95.112C63.7681 95.0405 63.6112 95.0032 63.4505 95.0031C57.3971 94.9831 51.3405 94.7897 45.2805 94.423C38.9505 94.043 39.8205 88.5031 38.8105 84.1231C38.7666 83.9397 38.768 83.7545 38.8144 83.5921C38.8608 83.4296 38.9501 83.2975 39.0705 83.2131C40.4771 82.2131 41.1538 80.7964 41.1005 78.9631C41.0985 78.8656 41.1665 78.7542 41.2936 78.6471C41.4207 78.54 41.5993 78.4435 41.8005 78.3731C45.1872 77.1998 48.9305 76.763 53.0305 77.063C54.0372 77.1364 54.5938 76.8064 54.7005 76.073C54.7226 75.9396 54.6866 75.8009 54.5996 75.6842C54.5126 75.5676 54.3809 75.4815 54.2305 75.443C48.3605 73.953 42.9105 75.4831 39.1805 69.7131C38.9874 69.417 38.7652 69.2092 38.5605 69.1331C36.8071 68.5264 35.9538 67.3131 36.0005 65.4931C36.0065 65.2287 36.1131 64.9694 36.3005 64.7631C38.1138 62.7631 40.3471 61.5564 43.0005 61.1431C43.1807 61.114 43.3456 61.0744 43.4726 61.0297C43.5997 60.985 43.6827 60.9373 43.7105 60.8931C43.7772 60.7664 43.7971 60.6231 43.7705 60.4631C43.7597 60.4054 43.7725 60.3461 43.8081 60.289C43.8438 60.2319 43.9014 60.1784 43.9771 60.132C44.0528 60.0856 44.1449 60.0475 44.2472 60.0201C44.3496 59.9926 44.4597 59.9766 44.5705 59.9731C49.2705 59.8331 53.5905 61.0131 58.9405 59.4931C59.1382 59.4343 59.3149 59.3491 59.4557 59.2448C59.5966 59.1405 59.6976 59.0199 59.7505 58.8931C60.4971 57.1198 60.5538 55.3231 59.9205 53.5031C59.8796 53.3856 59.7953 53.2833 59.6789 53.2099C59.5626 53.1365 59.42 53.0957 59.2705 53.0931C55.2205 53.0531 44.3305 53.4831 41.0405 51.4831C40.2568 51.0076 39.6814 50.2501 39.4305 49.3631C38.0571 44.4431 39.1372 41.8097 42.6705 41.4631C45.3572 41.1964 46.7505 41.0498 46.8505 41.0231C49.3038 40.4764 51.8072 39.9064 54.3605 39.313C54.4576 39.2892 54.5511 39.2516 54.6346 39.2028C54.718 39.154 54.7893 39.0953 54.8435 39.0306C54.8978 38.9658 54.9337 38.8968 54.9487 38.8282C54.9637 38.7595 54.9575 38.693 54.9305 38.6331C53.8638 36.2864 52.3305 34.2898 50.3305 32.6431C50.2374 32.5684 50.0945 32.5097 49.9127 32.4716C49.7308 32.4335 49.5147 32.4169 49.2805 32.423C44.2005 32.623 40.6505 32.9131 38.7205 27.2131C38.0405 25.2131 36.1305 25.513 35.9105 23.123C35.9007 23.0296 35.9363 22.9064 36.0136 22.7658C36.091 22.6252 36.2072 22.4723 36.3505 22.323C39.2572 19.3097 42.8138 17.5964 47.0205 17.183C47.1458 17.1691 47.2591 17.0889 47.3358 16.9598C47.4125 16.8307 47.4465 16.6631 47.4305 16.4931C46.8505 10.4997 44.0171 6.58308 38.9305 4.74308C31.2805 1.97308 26.5405 7.37307 22.7605 12.9831C21.8338 14.3564 22.2005 15.0564 23.8605 15.083C31.2905 15.193 36.4805 26.243 27.4905 28.903C27.2593 28.9716 27.0474 29.0443 26.8843 29.1106C26.7211 29.177 26.6149 29.2338 26.5805 29.2731C26.2271 29.7131 25.7905 30.023 25.2705 30.203C25.1371 30.2497 24.8072 30.2363 24.2805 30.163L19.5205 29.453C19.1821 29.4041 18.8221 29.5003 18.4965 29.7264C18.1709 29.9525 17.8981 30.2958 17.7205 30.703L15.9105 34.913C15.8359 35.0836 15.806 35.2697 15.8232 35.4561C15.8404 35.6425 15.9043 35.8241 16.0096 35.9859C16.1148 36.1477 16.2585 36.2852 16.429 36.3872C16.5994 36.4893 16.7918 36.5529 16.9905 36.573C22.0805 37.093 27.8805 37.383 31.7605 41.313C31.8696 41.4248 31.9516 41.5604 32.0002 41.7095C32.0487 41.8586 32.0625 42.0172 32.0405 42.173C31.5105 46.083 29.8005 51.253 26.0305 50.783C20.6905 50.123 15.0571 49.7997 9.13047 49.813C8.95424 49.8138 8.78447 49.8733 8.65098 49.9812C8.51748 50.0891 8.4288 50.2384 8.40049 50.403L7.8505 53.5931C7.62383 54.9531 8.24716 55.7697 9.72049 56.043L27.2005 59.313C27.5988 59.3877 27.9818 59.5654 28.3199 59.8324C28.658 60.0994 28.9421 60.4486 29.1505 60.8531C30.1305 62.7597 31.6071 64.0998 33.5805 64.8731C33.6727 64.9093 33.7605 64.9572 33.8377 65.0135C33.915 65.0697 33.9797 65.133 34.0274 65.1988C34.075 65.2645 34.1045 65.3313 34.1137 65.3942C34.1229 65.4571 34.1115 65.5147 34.0805 65.563C33.8205 65.9564 32.9938 66.4364 31.6005 67.0031C31.4441 67.0689 31.3096 67.1693 31.2123 67.2931C31.115 67.4169 31.059 67.559 31.0505 67.703C30.9372 69.4297 30.0705 70.4864 28.4505 70.8731C28.3418 70.8979 28.23 70.9623 28.1241 71.0613C28.0182 71.1603 27.9211 71.291 27.8405 71.443C27.4138 72.2497 26.8705 72.6498 26.2105 72.6431C21.5372 72.6098 15.3105 71.9798 7.53049 70.7531C7.3989 70.7315 7.25265 70.7541 7.10563 70.8189C6.9586 70.8836 6.81565 70.9884 6.69047 71.1231C5.67047 72.2098 5.01383 73.4897 4.72049 74.9631C4.70878 75.0226 4.71439 75.0847 4.73697 75.1455C4.75956 75.2064 4.79865 75.2647 4.8519 75.3171C4.90516 75.3694 4.97148 75.4146 5.04685 75.45C5.12222 75.4854 5.20511 75.5103 5.2905 75.5231C9.7505 76.2364 15.7205 76.913 23.2005 77.553C26.7871 77.8597 29.4438 79.6297 31.1705 82.8631C31.2684 83.0514 31.3835 83.2185 31.494 83.3327C31.6045 83.4469 31.7029 83.5004 31.7705 83.4831C32.2571 83.3364 32.6505 83.4397 32.9505 83.793C33.0901 83.9557 33.2126 84.1128 33.3006 84.2421C33.3885 84.3714 33.4375 84.4662 33.4405 84.5131C33.3205 94.0631 23.6205 90.5931 17.9405 90.6131C13.8205 90.6264 9.70048 90.563 5.58048 90.423C5.4264 90.4205 5.27666 90.4601 5.15024 90.5367C5.02383 90.6132 4.92642 90.7234 4.87046 90.8531C4.13712 92.5464 4.54048 93.6463 6.08048 94.153C8.67381 94.993 14.6671 96.5264 24.0605 98.7531C29.5805 100.053 29.1005 103.903 33.1105 106.173C33.1636 106.203 33.2096 106.244 33.2453 106.293C33.2811 106.342 33.3056 106.398 33.3171 106.457C33.3286 106.515 33.3268 106.575 33.3118 106.631C33.2968 106.688 33.2691 106.74 33.2305 106.783C29.7905 110.673 28.2205 112.433 23.2005 112.073C17.6205 111.673 13.6005 109.303 8.32047 108.793C7.97461 108.757 7.62739 108.851 7.34641 109.058C7.06543 109.265 6.87085 109.57 6.80051 109.913C6.28051 112.393 7.4005 114.653 9.9805 115.513C15.7805 117.453 27.7905 119.573 30.9705 124.963C30.9785 124.957 30.9765 124.969 30.9645 124.999C30.9525 125.029 30.9308 125.076 30.9008 125.137C30.8708 125.198 30.8331 125.272 30.79 125.354C30.7469 125.436 30.6994 125.524 30.6505 125.613Z" stroke="#0E101B" stroke-width="2"/>
<path d="M29.0053 63.3636C28.837 63.0257 28.5685 62.7324 28.2244 62.5106C27.8802 62.2887 27.4714 62.1453 27.0353 62.0936L6.99525 59.7536C5.38192 59.5669 4.83195 58.5736 5.34529 56.7736C6.43862 52.9803 7.85194 49.3002 9.58528 45.7336C9.63819 45.6233 9.73042 45.533 9.84889 45.4755C9.96736 45.4181 10.106 45.3963 10.2453 45.4135C17.5453 46.3135 22.3786 47.0936 24.7453 47.7536C31.0053 49.5036 31.9753 42.6336 26.9553 41.3436C22.2353 40.1302 17.4453 39.4835 12.5853 39.4035C12.4748 39.4032 12.3668 39.3746 12.2698 39.3196C12.1728 39.2647 12.0894 39.1851 12.0264 39.0871C11.9633 38.9891 11.9223 38.8754 11.9064 38.7551C11.8906 38.6347 11.9005 38.511 11.9353 38.3936L15.6153 25.9836C15.6649 25.8154 15.7589 25.6682 15.8801 25.569C16.0013 25.4699 16.1416 25.4253 16.2753 25.4435L27.7753 27.1835C27.9616 27.2124 28.1519 27.2026 28.3332 27.1547C28.5145 27.1069 28.6826 27.0223 28.826 26.9064C28.9694 26.7906 29.0846 26.6464 29.1639 26.4837C29.2432 26.321 29.2846 26.1435 29.2853 25.9636L29.2753 20.2136C29.276 19.8825 29.1554 19.5561 28.9317 19.2837C28.7079 19.0113 28.3933 18.8076 28.0353 18.7036C25.1686 17.8702 22.2486 17.5469 19.2753 17.7336C19.1424 17.7427 19.0107 17.7154 18.8912 17.6539C18.7718 17.5925 18.6684 17.4988 18.5897 17.3808C18.5111 17.2628 18.4596 17.1241 18.4396 16.9766C18.4197 16.829 18.4319 16.677 18.4753 16.5336C20.5953 9.56357 26.1953 2.84354 33.4553 1.31354C45.1453 -1.14646 49.6653 11.3836 51.9253 20.9136C51.9408 20.9768 51.9421 21.0428 51.929 21.1064C51.916 21.1699 51.889 21.2293 51.8502 21.2798C51.8114 21.3302 51.7619 21.3704 51.7055 21.3971C51.6491 21.4238 51.5874 21.4362 51.5253 21.4335L41.0253 20.9636C40.8209 20.9522 40.6238 20.9887 40.4709 21.066C40.318 21.1434 40.22 21.2563 40.1953 21.3835C39.7153 23.7902 39.9219 26.1002 40.8153 28.3135C40.8495 28.3986 40.9587 28.4872 41.1284 28.5676C41.298 28.6479 41.5202 28.7163 41.7653 28.7636C45.6319 29.5036 49.4653 29.3969 53.2653 28.4435C53.4067 28.4065 53.5637 28.433 53.7096 28.5187C53.8555 28.6044 53.9811 28.7439 54.0653 28.9135C56.2519 33.3668 58.102 37.9569 59.6153 42.6835C59.6343 42.7423 59.6383 42.8047 59.627 42.8657C59.6158 42.9266 59.5895 42.9843 59.5505 43.0341C59.5115 43.0839 59.4608 43.1243 59.4025 43.152C59.3442 43.1798 59.28 43.1939 59.2153 43.1935L42.0253 42.6835C41.8621 42.6781 41.6995 42.7007 41.5471 42.7499C41.3947 42.7991 41.2556 42.874 41.1381 42.97C41.0206 43.0661 40.927 43.1813 40.863 43.309C40.799 43.4367 40.7657 43.5744 40.7653 43.7136L40.7753 48.2136C40.7765 48.3598 40.8528 48.5031 40.9895 48.6158C41.1262 48.7285 41.3135 48.8025 41.5153 48.8235C48.0819 49.5769 54.6686 49.8635 61.2753 49.6835C61.3989 49.6812 61.5205 49.7269 61.6191 49.8127C61.7177 49.8985 61.7871 50.019 61.8153 50.1535L64.1153 61.2036C64.442 62.7769 63.752 63.5903 62.0453 63.6436C56.2386 63.8303 50.4753 63.6169 44.7553 63.0036C42.3286 62.7436 40.9886 63.4536 40.7353 65.1336C40.1553 68.9636 41.3953 71.0736 45.7153 71.1236C52.2886 71.2036 58.872 71.1435 65.4653 70.9435C65.5919 70.9368 65.7197 70.9839 65.8272 71.0768C65.9346 71.1697 66.0152 71.3027 66.0553 71.4536C67.0353 75.2336 67.3519 79.0702 67.0053 82.9636C66.9953 83.0882 66.9343 83.2046 66.8344 83.2897C66.7344 83.3749 66.6028 83.4226 66.4653 83.4235L41.8453 83.7736C41.7316 83.7748 41.6181 83.7877 41.5126 83.8117C41.407 83.8357 41.3117 83.8702 41.2332 83.9128C41.1546 83.9554 41.0945 84.0052 41.057 84.0588C41.0194 84.1124 41.0051 84.1685 41.0153 84.2236L41.8953 90.0435C41.9224 90.2292 42.0254 90.4 42.1862 90.5261C42.347 90.6522 42.5555 90.7256 42.7753 90.7336L66.2753 91.7136C66.4133 91.7194 66.549 91.75 66.6743 91.8036C66.7996 91.8573 66.9121 91.9328 67.0052 92.0259C67.0983 92.119 67.1701 92.2278 67.2165 92.3459C67.2629 92.4639 67.2829 92.5889 67.2753 92.7136L66.5153 105.964C66.5104 106.025 66.4876 106.083 66.4482 106.136C66.4088 106.189 66.3538 106.234 66.2863 106.27C66.2189 106.305 66.1406 106.33 66.0562 106.343C65.9717 106.356 65.883 106.356 65.7953 106.344C57.922 105.124 49.9986 104.447 42.0253 104.314C41.9012 104.313 41.7721 104.366 41.6546 104.464C41.537 104.562 41.4363 104.701 41.3653 104.864C37.5153 113.764 44.3453 113.274 50.4053 113.634C54.9053 113.907 59.3153 114.197 63.6353 114.504C63.7372 114.511 63.836 114.542 63.9252 114.595C64.0145 114.648 64.0923 114.722 64.1536 114.813C64.2148 114.903 64.2582 115.008 64.2809 115.12C64.3036 115.232 64.3051 115.349 64.2853 115.464C63.4853 119.87 62.1286 124.104 60.2153 128.164C60.0606 128.489 59.7823 128.747 59.4283 128.893C59.0743 129.039 58.6666 129.064 58.2753 128.964C52.6953 127.504 47.0286 126.594 41.2753 126.234C41.1125 126.223 40.9492 126.246 40.7952 126.302C40.6412 126.358 40.4997 126.446 40.3792 126.56C40.2587 126.674 40.1616 126.812 40.0939 126.966C40.0263 127.119 39.9893 127.285 39.9853 127.454L39.8253 133.474C39.8161 133.77 39.9082 134.058 40.0846 134.286C40.261 134.514 40.5098 134.666 40.7853 134.714L54.0353 136.934C54.1682 136.955 54.2941 137.007 54.403 137.087C54.5119 137.167 54.6008 137.271 54.6628 137.392C54.7248 137.513 54.7582 137.648 54.7604 137.785C54.7626 137.923 54.7335 138.059 54.6753 138.184C50.1053 147.904 39.8853 151.024 29.8053 150.564C16.1053 149.944 7.16526 139.694 5.94526 126.184C5.94083 126.132 5.94998 126.08 5.97181 126.032C5.99365 125.985 6.02746 125.944 6.06984 125.914C6.11221 125.884 6.16171 125.865 6.21351 125.86C6.26532 125.854 6.31766 125.863 6.36531 125.884C11.9786 128.41 18.2286 130.464 25.1153 132.044C26.9286 132.464 28.012 131.76 28.3653 129.934C28.5986 128.747 28.5153 127.074 28.1153 124.914C28.0853 124.739 28.0115 124.578 27.902 124.447C27.7925 124.316 27.6517 124.222 27.4953 124.174L8.09529 117.924C5.82862 117.19 4.57528 115.967 4.33528 114.254L2.90529 104.244C2.89559 104.171 2.90652 104.097 2.93708 104.03C2.96765 103.963 3.01685 103.904 3.08033 103.858C3.14382 103.813 3.21957 103.782 3.30073 103.769C3.38189 103.756 3.46595 103.761 3.5453 103.784C10.172 105.704 16.7886 107.514 23.3953 109.214C27.2653 110.204 30.0153 111.374 29.3553 105.564C29.1753 103.977 28.3119 103.034 26.7653 102.734C18.5786 101.127 10.4919 99.0836 2.50526 96.6036C2.34799 96.5527 2.20989 96.4656 2.10841 96.3535C2.00693 96.2413 1.94663 96.1091 1.93525 95.9736L1.00526 84.9636C0.999927 84.8911 1.0104 84.8179 1.03572 84.7503C1.06104 84.6827 1.10048 84.6228 1.15065 84.5756C1.20082 84.5284 1.26023 84.4953 1.32374 84.4793C1.38726 84.4633 1.45297 84.4647 1.51527 84.4836C10.1086 86.9502 18.8586 88.3569 27.7653 88.7036C29.4119 88.7702 30.1586 88.1236 30.0053 86.7636L29.6253 83.4035C29.4853 82.1968 28.5953 81.5735 26.9553 81.5335C18.7553 81.3068 10.6153 80.4269 2.53529 78.8936C2.26075 78.844 2.01648 78.6902 1.85548 78.4655C1.69449 78.2409 1.62977 77.9635 1.67531 77.6935L3.57527 65.9736C3.58468 65.9188 3.60802 65.8669 3.64387 65.8211C3.67973 65.7753 3.72738 65.7363 3.78413 65.7065C3.84088 65.6767 3.90558 65.6567 3.97444 65.6476C4.0433 65.6385 4.11494 65.6405 4.18525 65.6535C11.0253 66.9635 17.8953 68.0135 24.7053 69.2935C30.0519 70.2935 31.4853 68.3169 29.0053 63.3636ZM30.6553 125.614C29.962 126.894 29.7719 128.26 30.0853 129.714C30.3053 130.767 29.8553 131.7 28.7353 132.514C22.7253 136.854 17.1553 133.694 11.4153 131.214C10.0686 130.634 9.60194 131.047 10.0153 132.454C10.6653 134.664 10.4853 136.354 11.9853 138.184C21.6053 149.934 37.4553 150.304 49.5653 142.064C50.2253 141.617 50.6019 140.92 50.6953 139.974C50.7094 139.836 50.6751 139.699 50.5991 139.59C50.5232 139.481 50.4111 139.407 50.2853 139.384L41.2553 137.524C41.0337 137.48 40.8343 137.423 40.6729 137.357C40.5115 137.291 40.3925 137.218 40.3253 137.144L36.5953 133.154C36.5367 133.088 36.4787 132.969 36.4264 132.805C36.3741 132.641 36.3291 132.438 36.2953 132.214L35.7553 128.464C35.7347 128.313 35.7597 128.158 35.8272 128.02C35.8947 127.881 36.0018 127.764 36.1353 127.684C40.6653 124.954 43.3653 121.624 49.3053 124.104C51.592 125.05 53.9853 125.317 56.4853 124.904C56.9377 124.827 57.358 124.649 57.7064 124.386C58.0547 124.124 58.3195 123.785 58.4753 123.404L60.2653 118.934C60.7919 117.627 60.2719 116.98 58.7053 116.994C51.6153 117.034 42.0853 118.884 38.5053 110.944C38.4331 110.78 38.344 110.637 38.244 110.523C38.1439 110.409 38.0353 110.328 37.9253 110.284C35.272 109.277 35.0986 108.147 37.4053 106.894C37.7184 106.724 37.9684 106.484 38.1253 106.204C39.2919 104.084 40.6086 102.864 42.0753 102.544C46.5086 101.597 52.7786 101.234 60.8853 101.454C65.2353 101.574 66.7953 99.0235 64.2553 95.4135C64.1695 95.2873 64.0518 95.184 63.9124 95.1125C63.7729 95.041 63.616 95.0037 63.4553 95.0036C57.4019 94.9836 51.3453 94.7902 45.2853 94.4235C38.9553 94.0435 39.8253 88.5036 38.8153 84.1236C38.7714 83.9402 38.7728 83.755 38.8192 83.5926C38.8656 83.4301 38.9549 83.298 39.0753 83.2136C40.4819 82.2136 41.1586 80.7969 41.1053 78.9636C41.1033 78.8661 41.1713 78.7547 41.2984 78.6476C41.4255 78.5405 41.6041 78.444 41.8053 78.3736C45.192 77.2003 48.9353 76.7635 53.0353 77.0635C54.042 77.1369 54.5986 76.8069 54.7053 76.0735C54.7274 75.9401 54.6914 75.8014 54.6044 75.6848C54.5174 75.5681 54.3857 75.482 54.2353 75.4435C48.3653 73.9535 42.9153 75.4836 39.1853 69.7136C38.9922 69.4175 38.77 69.2097 38.5653 69.1336C36.8119 68.5269 35.9586 67.3136 36.0053 65.4936C36.0113 65.2292 36.1179 64.9699 36.3053 64.7636C38.1186 62.7636 40.3519 61.5569 43.0053 61.1436C43.1855 61.1146 43.3504 61.0749 43.4774 61.0302C43.6045 60.9855 43.6875 60.9378 43.7153 60.8936C43.7819 60.7669 43.8019 60.6236 43.7753 60.4636C43.7645 60.4059 43.7773 60.3466 43.8129 60.2895C43.8486 60.2324 43.9062 60.1789 43.9819 60.1325C44.0576 60.0861 44.1497 60.048 44.252 60.0206C44.3544 59.9931 44.4645 59.9771 44.5753 59.9736C49.2753 59.8336 53.5953 61.0136 58.9453 59.4936C59.143 59.4348 59.3197 59.3496 59.4605 59.2453C59.6014 59.141 59.7024 59.0205 59.7553 58.8936C60.5019 57.1203 60.5586 55.3236 59.9253 53.5036C59.8844 53.3862 59.8001 53.2838 59.6837 53.2104C59.5674 53.137 59.4248 53.0962 59.2753 53.0936C55.2253 53.0536 44.3353 53.4836 41.0453 51.4836C40.2616 51.0081 39.6862 50.2506 39.4353 49.3636C38.0619 44.4436 39.142 41.8102 42.6753 41.4636C45.362 41.1969 46.7553 41.0503 46.8553 41.0236C49.3086 40.477 51.812 39.9069 54.3653 39.3135C54.4624 39.2897 54.5559 39.2521 54.6394 39.2033C54.7228 39.1545 54.7941 39.0958 54.8483 39.0311C54.9026 38.9664 54.9385 38.8973 54.9535 38.8287C54.9685 38.76 54.9623 38.6935 54.9353 38.6336C53.8686 36.2869 52.3353 34.2903 50.3353 32.6436C50.2422 32.5689 50.0993 32.5102 49.9175 32.4721C49.7356 32.434 49.5195 32.4174 49.2853 32.4235C44.2053 32.6235 40.6553 32.9136 38.7253 27.2136C38.0453 25.2136 36.1353 25.5135 35.9153 23.1235C35.9055 23.0302 35.9411 22.9069 36.0184 22.7663C36.0958 22.6257 36.212 22.4729 36.3553 22.3235C39.262 19.3102 42.8186 17.5969 47.0253 17.1835C47.1506 17.1696 47.2639 17.0894 47.3406 16.9603C47.4173 16.8312 47.4513 16.6636 47.4353 16.4936C46.8553 10.5003 44.0219 6.58359 38.9353 4.74359C31.2853 1.97359 26.5453 7.37358 22.7653 12.9836C21.8386 14.3569 22.2053 15.0569 23.8653 15.0836C31.2953 15.1936 36.4853 26.2435 27.4953 28.9035C27.2641 28.9721 27.0522 29.0448 26.889 29.1111C26.7259 29.1775 26.6197 29.2343 26.5853 29.2736C26.2319 29.7136 25.7953 30.0236 25.2753 30.2036C25.1419 30.2502 24.812 30.2368 24.2853 30.1635L19.5253 29.4536C19.1869 29.4046 18.8269 29.5008 18.5013 29.7269C18.1757 29.953 17.9029 30.2963 17.7253 30.7036L15.9153 34.9135C15.8407 35.0841 15.8108 35.2702 15.828 35.4566C15.8452 35.643 15.9091 35.8246 16.0144 35.9864C16.1196 36.1482 16.2633 36.2857 16.4338 36.3878C16.6042 36.4898 16.7966 36.5534 16.9953 36.5735C22.0853 37.0935 27.8853 37.3835 31.7653 41.3135C31.8744 41.4253 31.9564 41.5609 32.005 41.71C32.0535 41.8591 32.0673 42.0177 32.0453 42.1735C31.5153 46.0835 29.8053 51.2535 26.0353 50.7835C20.6953 50.1235 15.0619 49.8002 9.13527 49.8135C8.95904 49.8143 8.78927 49.8739 8.65577 49.9818C8.52228 50.0896 8.4336 50.239 8.40529 50.4035L7.8553 53.5936C7.62863 54.9536 8.25196 55.7702 9.72529 56.0435L27.2053 59.3135C27.6036 59.3882 27.9866 59.5659 28.3247 59.8329C28.6628 60.1 28.9469 60.4491 29.1553 60.8536C30.1353 62.7602 31.6119 64.1003 33.5853 64.8736C33.6775 64.9098 33.7653 64.9577 33.8425 65.014C33.9197 65.0703 33.9845 65.1335 34.0322 65.1993C34.0798 65.2651 34.1093 65.3318 34.1185 65.3947C34.1277 65.4577 34.1163 65.5153 34.0853 65.5635C33.8253 65.9569 32.9986 66.4369 31.6053 67.0036C31.4489 67.0694 31.3144 67.1698 31.2171 67.2936C31.1198 67.4174 31.0638 67.5595 31.0553 67.7036C30.942 69.4302 30.0753 70.4869 28.4553 70.8736C28.3466 70.8984 28.2348 70.9628 28.1289 71.0618C28.023 71.1608 27.9259 71.2915 27.8453 71.4435C27.4186 72.2502 26.8753 72.6503 26.2153 72.6436C21.542 72.6103 15.3153 71.9803 7.53529 70.7536C7.4037 70.732 7.25745 70.7546 7.11042 70.8194C6.9634 70.8842 6.82045 70.9889 6.69526 71.1236C5.67526 72.2103 5.01863 73.4902 4.72529 74.9636C4.71358 75.0232 4.71919 75.0852 4.74177 75.1461C4.76436 75.2069 4.80345 75.2652 4.8567 75.3176C4.90996 75.3699 4.97627 75.4151 5.05165 75.4505C5.12702 75.4859 5.20991 75.5108 5.2953 75.5236C9.7553 76.237 15.7253 76.9135 23.2053 77.5535C26.7919 77.8602 29.4486 79.6303 31.1753 82.8636C31.2732 83.0519 31.3883 83.219 31.4988 83.3332C31.6093 83.4474 31.7077 83.5009 31.7753 83.4836C32.2619 83.3369 32.6553 83.4402 32.9553 83.7935C33.0949 83.9562 33.2174 84.1133 33.3054 84.2426C33.3933 84.3719 33.4423 84.4667 33.4453 84.5136C33.3253 94.0636 23.6253 90.5936 17.9453 90.6136C13.8253 90.6269 9.70528 90.5635 5.58528 90.4235C5.4312 90.421 5.28146 90.4606 5.15504 90.5372C5.02863 90.6137 4.93122 90.7239 4.87526 90.8536C4.14192 92.5469 4.54528 93.6468 6.08528 94.1535C8.67861 94.9935 14.6719 96.5269 24.0653 98.7536C29.5853 100.054 29.1053 103.904 33.1153 106.174C33.1684 106.204 33.2144 106.245 33.2501 106.294C33.2859 106.343 33.3104 106.399 33.3219 106.457C33.3334 106.516 33.3316 106.575 33.3166 106.632C33.3016 106.688 33.2739 106.74 33.2353 106.784C29.7953 110.674 28.2253 112.434 23.2053 112.074C17.6253 111.674 13.6053 109.304 8.32527 108.794C7.9794 108.757 7.63219 108.852 7.35121 109.059C7.07023 109.266 6.87565 109.57 6.80531 109.914C6.28531 112.394 7.4053 114.654 9.9853 115.514C15.7853 117.454 27.7953 119.574 30.9753 124.964C30.9833 124.957 30.9813 124.97 30.9693 125C30.9573 125.03 30.9356 125.077 30.9056 125.138C30.8756 125.199 30.8379 125.272 30.7948 125.354C30.7517 125.436 30.7042 125.524 30.6553 125.614Z" fill="black"/>
<path d="M30.9744 124.964C27.7944 119.574 15.7844 117.454 9.98441 115.514C7.40441 114.654 6.28442 112.394 6.80442 109.914C6.87476 109.571 7.06934 109.266 7.35032 109.059C7.63129 108.852 7.97851 108.758 8.32438 108.794C13.6044 109.304 17.6244 111.674 23.2044 112.074C28.2244 112.434 29.7944 110.674 33.2344 106.784C33.273 106.741 33.3007 106.689 33.3157 106.632C33.3307 106.576 33.3325 106.516 33.321 106.458C33.3095 106.399 33.285 106.343 33.2492 106.294C33.2135 106.245 33.1675 106.204 33.1144 106.174C29.1044 103.904 29.5844 100.054 24.0644 98.7541C14.671 96.5274 8.67772 94.994 6.08439 94.154C4.54439 93.6473 4.14103 92.5474 4.87436 90.854C4.93033 90.7243 5.02773 90.6142 5.15415 90.5376C5.28057 90.4611 5.43031 90.4215 5.58439 90.424C9.70439 90.564 13.8244 90.6274 17.9444 90.6141C23.6244 90.5941 33.3244 94.0641 33.4444 84.5141C33.4414 84.4672 33.3925 84.3723 33.3045 84.2431C33.2165 84.1138 33.094 83.9566 32.9544 83.794C32.6544 83.4407 32.2611 83.3374 31.7744 83.484C31.7068 83.5014 31.6084 83.4479 31.4979 83.3337C31.3874 83.2194 31.2723 83.0524 31.1744 82.8641C29.4477 79.6307 26.791 77.8607 23.2044 77.554C15.7244 76.914 9.75441 76.2374 5.29441 75.5241C5.20902 75.5113 5.12613 75.4864 5.05076 75.451C4.97538 75.4156 4.90906 75.3704 4.85581 75.318C4.80256 75.2657 4.76347 75.2074 4.74088 75.1465C4.7183 75.0857 4.71269 75.0236 4.7244 74.964C5.01773 73.4907 5.67437 72.2107 6.69437 71.1241C6.81956 70.9893 6.96251 70.8846 7.10953 70.8199C7.25656 70.7551 7.40281 70.7325 7.5344 70.7541C15.3144 71.9807 21.5411 72.6107 26.2144 72.6441C26.8744 72.6507 27.4177 72.2507 27.8444 71.444C27.925 71.292 28.0221 71.1613 28.128 71.0623C28.234 70.9633 28.3457 70.8989 28.4544 70.8741C30.0744 70.4874 30.9411 69.4307 31.0544 67.704C31.0629 67.56 31.1189 67.4179 31.2162 67.2941C31.3135 67.1703 31.448 67.0698 31.6044 67.0041C32.9977 66.4374 33.8244 65.9573 34.0844 65.564C34.1154 65.5157 34.1268 65.4581 34.1176 65.3952C34.1084 65.3322 34.079 65.2655 34.0313 65.1997C33.9836 65.134 33.9189 65.0707 33.8417 65.0144C33.7644 64.9582 33.6766 64.9103 33.5844 64.8741C31.6111 64.1007 30.1344 62.7607 29.1544 60.854C28.946 60.4496 28.6619 60.1004 28.3238 59.8334C27.9857 59.5664 27.6027 59.3887 27.2044 59.314L9.7244 56.044C8.25107 55.7706 7.62774 54.954 7.85441 53.594L8.40439 50.404C8.43271 50.2394 8.52138 50.0901 8.65488 49.9822C8.78838 49.8743 8.95815 49.8148 9.13437 49.814C15.061 49.8007 20.6944 50.124 26.0344 50.784C29.8044 51.254 31.5144 46.084 32.0444 42.174C32.0664 42.0181 32.0526 41.8596 32.0041 41.7105C31.9555 41.5614 31.8735 41.4257 31.7644 41.314C27.8844 37.384 22.0844 37.094 16.9944 36.574C16.7957 36.5539 16.6034 36.4903 16.4329 36.3882C16.2624 36.2862 16.1187 36.1486 16.0135 35.9869C15.9082 35.8251 15.8443 35.6435 15.8271 35.4571C15.8099 35.2706 15.8398 35.0846 15.9144 34.914L17.7244 30.704C17.902 30.2968 18.1748 29.9534 18.5004 29.7273C18.826 29.5012 19.186 29.4051 19.5244 29.454L24.2844 30.164C24.8111 30.2373 25.1411 30.2507 25.2744 30.204C25.7944 30.024 26.2311 29.7141 26.5844 29.2741C26.6188 29.2348 26.725 29.1779 26.8882 29.1116C27.0513 29.0453 27.2632 28.9726 27.4944 28.904C36.4844 26.244 31.2944 15.194 23.8644 15.084C22.2044 15.0574 21.8377 14.3574 22.7644 12.984C26.5444 7.37405 31.2844 1.97406 38.9344 4.74406C44.021 6.58406 46.8544 10.5007 47.4344 16.4941C47.4504 16.664 47.4164 16.8317 47.3397 16.9608C47.263 17.0899 47.1497 17.1701 47.0244 17.184C42.8177 17.5973 39.2611 19.3107 36.3544 22.324C36.2111 22.4733 36.0949 22.6262 36.0176 22.7668C35.9402 22.9074 35.9046 23.0306 35.9144 23.124C36.1344 25.514 38.0444 25.214 38.7244 27.214C40.6544 32.914 44.2044 32.624 49.2844 32.424C49.5186 32.4178 49.7347 32.4345 49.9166 32.4726C50.0984 32.5107 50.2413 32.5693 50.3344 32.6441C52.3344 34.2907 53.8677 36.2874 54.9344 38.6341C54.9614 38.6939 54.9676 38.7605 54.9526 38.8291C54.9376 38.8978 54.9017 38.9668 54.8474 39.0315C54.7932 39.0962 54.7219 39.155 54.6385 39.2038C54.555 39.2526 54.4616 39.2902 54.3644 39.314C51.8111 39.9073 49.3077 40.4774 46.8544 41.0241C46.7544 41.0508 45.3611 41.1974 42.6744 41.464C39.1411 41.8107 38.061 44.4441 39.4344 49.3641C39.6853 50.2511 40.2607 51.0086 41.0444 51.484C44.3344 53.484 55.2244 53.054 59.2744 53.094C59.4239 53.0967 59.5665 53.1375 59.6828 53.2109C59.7992 53.2842 59.8835 53.3866 59.9244 53.5041C60.5577 55.3241 60.501 57.1207 59.7544 58.8941C59.7015 59.0209 59.6005 59.1414 59.4596 59.2458C59.3188 59.3501 59.1421 59.4352 58.9444 59.4941C53.5944 61.0141 49.2744 59.834 44.5744 59.974C44.4636 59.9776 44.3535 59.9936 44.2511 60.021C44.1488 60.0485 44.0567 60.0866 43.981 60.133C43.9053 60.1794 43.8477 60.2329 43.812 60.29C43.7764 60.347 43.7636 60.4064 43.7744 60.464C43.8011 60.624 43.7811 60.7674 43.7144 60.8941C43.6867 60.9383 43.6036 60.9859 43.4765 61.0307C43.3495 61.0754 43.1846 61.115 43.0044 61.1441C40.351 61.5574 38.1178 62.7641 36.3044 64.7641C36.117 64.9704 36.0104 65.2296 36.0044 65.4941C35.9577 67.3141 36.811 68.5274 38.5644 69.1341C38.7691 69.2102 38.9913 69.418 39.1844 69.714C42.9144 75.484 48.3644 73.954 54.2344 75.444C54.3848 75.4825 54.5165 75.5686 54.6035 75.6852C54.6905 75.8019 54.7265 75.9406 54.7044 76.074C54.5977 76.8073 54.0411 77.1373 53.0344 77.064C48.9344 76.764 45.1911 77.2007 41.8044 78.3741C41.6033 78.4445 41.4246 78.541 41.2975 78.6481C41.1705 78.7552 41.1024 78.8666 41.1044 78.964C41.1577 80.7974 40.481 82.214 39.0744 83.214C38.954 83.2985 38.8647 83.4306 38.8183 83.5931C38.7719 83.7555 38.7705 83.9407 38.8144 84.1241C39.8244 88.5041 38.9544 94.044 45.2844 94.424C51.3444 94.7907 57.401 94.9841 63.4544 95.0041C63.6151 95.0041 63.772 95.0415 63.9115 95.113C64.0509 95.1844 64.1686 95.2877 64.2544 95.414C66.7944 99.024 65.2344 101.574 60.8844 101.454C52.7777 101.234 46.5077 101.597 42.0744 102.544C40.6077 102.864 39.291 104.084 38.1244 106.204C37.9675 106.485 37.7175 106.725 37.4044 106.894C35.0977 108.147 35.2711 109.277 37.9244 110.284C38.0344 110.328 38.1431 110.41 38.2431 110.524C38.3431 110.638 38.4322 110.781 38.5044 110.944C42.0844 118.884 51.6144 117.034 58.7044 116.994C60.271 116.981 60.791 117.627 60.2644 118.934L58.4744 123.404C58.3186 123.786 58.0538 124.124 57.7055 124.387C57.3571 124.649 56.9368 124.827 56.4844 124.904C53.9844 125.317 51.5911 125.051 49.3044 124.104C43.3644 121.624 40.6644 124.954 36.1344 127.684C36.0009 127.765 35.8939 127.882 35.8263 128.02C35.7588 128.159 35.7338 128.313 35.7544 128.464L36.2944 132.214C36.3282 132.438 36.3732 132.641 36.4255 132.805C36.4778 132.969 36.5358 133.089 36.5944 133.154L40.3244 137.144C40.3916 137.218 40.5106 137.291 40.672 137.357C40.8334 137.423 41.0328 137.48 41.2544 137.524L50.2844 139.384C50.4103 139.408 50.5223 139.481 50.5982 139.59C50.6742 139.7 50.7085 139.837 50.6944 139.974C50.601 140.921 50.2244 141.617 49.5644 142.064C37.4544 150.304 21.6044 149.934 11.9844 138.184C10.4844 136.354 10.6644 134.664 10.0144 132.454C9.60105 131.047 10.0677 130.634 11.4144 131.214C17.1544 133.694 22.7244 136.854 28.7344 132.514C29.8544 131.701 30.3044 130.767 30.0844 129.714C29.7711 128.261 29.9611 126.894 30.6544 125.614C30.7033 125.525 30.7508 125.437 30.7939 125.355C30.837 125.273 30.8747 125.199 30.9047 125.138C30.9347 125.077 30.9564 125.03 30.9684 125C30.9804 124.97 30.9825 124.958 30.9744 124.964Z" fill="#1B2035"/>
</svg>
