<svg width="135" height="155" viewBox="0 0 135 155" fill="none" xmlns="http://www.w3.org/2000/svg">
<path d="M42.9627 19.7305C35.1727 24.1705 28.5027 28.4105 28.7227 38.4705C28.7291 38.7975 28.6461 39.1193 28.4827 39.4005C19.4227 54.7505 11.2627 71.0205 1.30268 85.7605C0.782682 86.5272 0.932695 86.9905 1.75269 87.1505C1.89137 87.1812 2.04014 87.1686 2.18293 87.114C2.32572 87.0593 2.45707 86.9647 2.56269 86.8405C4.28269 84.8338 5.82269 82.6905 7.18269 80.4105C14.8294 67.5238 22.126 54.6005 29.0727 41.6405C29.5927 40.6738 29.966 40.7238 30.1927 41.7905C30.966 45.4238 32.2893 48.8471 34.1627 52.0605C34.2511 52.2114 34.302 52.3743 34.3092 52.529C34.3163 52.6837 34.2792 52.8233 34.2027 52.9305L27.8727 61.3605C27.7517 61.5251 27.6581 61.6909 27.5991 61.8452C27.5402 61.9995 27.5175 62.1382 27.5327 62.2505C27.8827 64.5705 34.3827 55.0405 34.6627 54.6205C34.976 54.1272 35.256 54.1471 35.5027 54.6805C37.0694 58.0338 38.986 61.2304 41.2527 64.2704" stroke="#C5A9AA" stroke-width="2"/>
<path d="M41.2541 64.2705C41.7841 65.0705 41.744 65.9305 41.044 66.6705C35.4774 72.4972 29.9108 78.3205 24.3441 84.1405C22.7741 85.7905 23.084 87.4605 25.364 85.1605C31.1707 79.3139 36.9241 73.3905 42.6241 67.3905C42.6718 67.341 42.7292 67.3018 42.7924 67.2756C42.8556 67.2494 42.9232 67.2369 42.9905 67.2388C43.0578 67.2407 43.1234 67.257 43.1826 67.2866C43.2419 67.3163 43.2936 67.3585 43.3341 67.4105L51.7641 78.2405C51.8667 78.3706 51.9207 78.5335 51.9171 78.7025C51.9134 78.8715 51.8524 79.0365 51.744 79.1705C45.8907 86.4172 39.9007 93.5272 33.7741 100.501C32.3341 102.147 32.3674 102.817 33.8741 102.511C34.1921 102.439 34.5001 102.25 34.7541 101.971C40.9207 95.1772 46.7941 88.1405 52.3741 80.8605C52.4849 80.7161 52.6249 80.5964 52.7843 80.5099C52.9436 80.4235 53.1185 80.3722 53.2966 80.3599C53.4747 80.3475 53.6518 80.3742 53.8155 80.4382C53.9791 80.5023 54.1254 80.602 54.244 80.7305L63.554 90.9305C63.627 91.0092 63.6581 91.1278 63.6416 91.2652C63.6251 91.4026 63.5622 91.5498 63.4641 91.6805C60.4241 95.8072 57.2574 99.8472 53.9641 103.801C53.3041 104.601 53.164 105.931 54.864 104.831C56.2507 103.944 59.4741 99.9438 64.5341 92.8305C64.5671 92.7838 64.6086 92.7438 64.6563 92.7129C64.704 92.682 64.7569 92.6608 64.8119 92.6505C64.8668 92.6403 64.9227 92.6412 64.9763 92.6532C65.03 92.6652 65.0802 92.6881 65.1241 92.7205L65.4641 92.9805" stroke="#9498AC" stroke-width="2"/>
<path d="M65.4648 92.9805C87.8582 116.32 100.938 130.337 104.705 135.03C109.672 141.224 114.768 147.304 119.995 153.27C120.215 153.53 120.499 153.709 120.805 153.78C122.645 154.22 123.198 153.544 122.465 151.75C111.892 125.917 102.185 99.7705 93.3448 73.3105C93.2048 72.8772 93.3482 72.7571 93.7748 72.9504L111.815 80.9205C111.984 80.9962 112.163 81.0292 112.326 81.0149C112.489 81.0006 112.628 80.9396 112.725 80.8405C113.955 79.5605 95.0148 71.9605 93.2148 71.1905C93.0759 71.1336 92.949 71.0456 92.8423 70.9319C92.7356 70.8183 92.6513 70.6816 92.5948 70.5305L87.9648 58.4805" stroke="#898C9B" stroke-width="2"/>
<path d="M87.9639 58.4805C89.5239 58.1072 90.7072 58.0105 91.5139 58.1905C101.954 60.5039 112.437 62.6472 122.964 64.6205C125.344 65.0705 125.104 63.2105 123.224 62.7105C114.874 60.5205 107.204 59.4205 97.8539 57.5505C94.5272 56.8838 91.1606 56.5405 87.7539 56.5205" stroke="#D1B8B3" stroke-width="2"/>
<path d="M87.7548 56.5205L82.4648 41.7305" stroke="#898C9B" stroke-width="2"/>
<path d="M82.463 41.7305C83.2763 41.1838 84.1263 40.9938 85.013 41.1605C99.8863 43.9805 114.22 45.9205 128.013 46.9805C131.903 47.2805 129.733 45.5105 128.413 45.3405C112.753 43.2938 97.1296 41.0071 81.543 38.4805" stroke="#D7BFBC" stroke-width="2"/>
<path d="M81.5459 38.4803C79.9926 32.847 77.7559 27.2036 74.8359 21.5503" stroke="#898C9B" stroke-width="2"/>
<path d="M74.8347 21.5503C93.8881 25.7836 113.178 28.2436 132.705 28.9303C132.861 28.9357 133.016 28.8871 133.147 28.7917C133.278 28.6964 133.379 28.5592 133.435 28.4003C133.548 28.047 133.551 27.6736 133.445 27.2803C133.427 27.2013 133.327 27.1178 133.16 27.0433C132.993 26.9689 132.769 26.9079 132.525 26.8703C122.405 25.4103 114.105 25.7103 102.015 24.0103C92.1847 22.6303 82.0247 20.3003 72.0547 18.3003" stroke="#D7BFBC" stroke-width="2"/>
<path d="M72.0556 18.3003C64.3889 13.827 56.459 13.7603 48.2656 18.1003" stroke="#898C9B" stroke-width="2"/>
<path d="M48.2638 18.1004L41.5238 2.74038C40.7905 1.06704 39.8471 0.600354 38.6938 1.34035L35.4338 3.42037C35.1573 3.59706 34.981 3.91023 34.9419 4.29424C34.9027 4.67826 35.0037 5.10332 35.2238 5.48037C37.8038 9.94037 40.4938 14.2537 43.2938 18.4204C43.6738 18.9904 43.5838 19.4504 42.9638 19.7304" stroke="#9498AC" stroke-width="2"/>
<path d="M48.2656 18.1002C51.599 17.8136 54.9056 17.4736 58.1856 17.0803C67.7156 15.9303 73.0756 19.7603 76.2556 28.7403C79.1689 36.9869 82.029 46.1336 84.8356 56.1803C85.0756 57.0469 85.3656 57.8969 85.7056 58.7303C89.2456 67.5169 92.5723 76.5969 95.6856 85.9702C102.016 105.03 109.476 123.7 116.066 142.69C116.111 142.824 116.105 142.969 116.049 143.095C115.993 143.222 115.892 143.32 115.766 143.37C114.539 143.85 113.629 143.704 113.036 142.93C101.776 128.15 88.1856 114.87 75.7356 101.07C74.3356 99.5103 65.9956 90.0103 65.4656 92.9803" stroke="#1F264E" stroke-width="2"/>
<path d="M41.2538 64.2704C41.8138 64.0504 41.8938 63.6205 41.4938 62.9805C37.9005 57.1738 34.6772 50.5771 31.8238 43.1905C28.8038 35.3705 30.4672 29.5105 36.8138 25.6105C39.0238 24.2605 40.6438 22.5605 42.6338 21.0805C42.7625 20.9855 42.8651 20.8629 42.9316 20.7245C42.9982 20.5862 43.0265 20.4367 43.0138 20.2905L42.9639 19.7305" stroke="#5B425D" stroke-width="2"/>
<path d="M72.0547 18.3003L74.8347 21.5503" stroke="#624D5E" stroke-width="2"/>
<path d="M81.543 38.4805L82.463 41.7305" stroke="#624D5E" stroke-width="2"/>
<path d="M87.7539 56.5205L87.9639 58.4805" stroke="#5C4655" stroke-width="2"/>
<path d="M48.2641 18.1004C51.5974 17.8137 54.9041 17.4737 58.1841 17.0804C67.7141 15.9304 73.0741 19.7604 76.2541 28.7404C79.1674 36.987 82.0274 46.1337 84.8341 56.1804C85.0741 57.047 85.3641 57.897 85.7041 58.7304C89.2441 67.517 92.5707 76.597 95.6841 85.9704C102.014 105.03 109.474 123.7 116.064 142.69C116.109 142.824 116.103 142.969 116.047 143.095C115.992 143.222 115.89 143.32 115.764 143.37C114.537 143.85 113.627 143.704 113.034 142.93C101.774 128.15 88.184 114.87 75.734 101.07C74.334 99.5104 65.9941 90.0104 65.4641 92.9804L65.1241 92.7204C65.0802 92.6879 65.03 92.6651 64.9763 92.653C64.9227 92.641 64.8668 92.6401 64.8119 92.6504C64.7569 92.6606 64.704 92.6818 64.6563 92.7127C64.6086 92.7436 64.5671 92.7836 64.5341 92.8303C59.4741 99.9437 56.2507 103.944 54.864 104.83C53.164 105.93 53.3041 104.6 53.9641 103.8C57.2574 99.847 60.4241 95.807 63.4641 91.6804C63.5622 91.5497 63.6251 91.4024 63.6416 91.265C63.6581 91.1276 63.627 91.009 63.554 90.9304L54.244 80.7304C54.1254 80.6019 53.9791 80.5021 53.8155 80.4381C53.6518 80.374 53.4747 80.3473 53.2966 80.3597C53.1185 80.3721 52.9436 80.4233 52.7843 80.5098C52.6249 80.5963 52.4849 80.7159 52.3741 80.8604C46.7941 88.1404 40.9207 95.177 34.7541 101.97C34.5001 102.25 34.1921 102.439 33.8741 102.51C32.3674 102.817 32.3341 102.147 33.7741 100.5C39.9007 93.5271 45.8907 86.417 51.744 79.1704C51.8524 79.0364 51.9135 78.8713 51.9171 78.7023C51.9207 78.5333 51.8667 78.3704 51.7641 78.2404L43.3341 67.4104C43.2936 67.3583 43.2419 67.3161 43.1826 67.2865C43.1234 67.2568 43.0578 67.2405 42.9905 67.2386C42.9232 67.2367 42.8556 67.2493 42.7924 67.2755C42.7292 67.3017 42.6718 67.3408 42.6241 67.3903C36.9241 73.3903 31.1707 79.3137 25.364 85.1604C23.084 87.4604 22.7741 85.7903 24.3441 84.1403C29.9108 78.3203 35.4774 72.497 41.044 66.6704C41.744 65.9304 41.7841 65.0704 41.2541 64.2703C41.8141 64.0503 41.894 63.6204 41.494 62.9804C37.9007 57.1737 34.6774 50.577 31.8241 43.1904C28.8041 35.3704 30.4674 29.5104 36.8141 25.6104C39.0241 24.2604 40.6441 22.5604 42.6341 21.0804C42.7628 20.9853 42.8653 20.8628 42.9319 20.7244C42.9984 20.5861 43.0267 20.4366 43.0141 20.2904L42.9641 19.7304C43.5841 19.4504 43.674 18.9904 43.294 18.4204C40.494 14.2537 37.804 9.94037 35.224 5.48037C35.004 5.10332 34.903 4.67826 34.9421 4.29424C34.9813 3.91023 35.1575 3.59706 35.4341 3.42037L38.6941 1.34035C39.8474 0.600354 40.7907 1.06704 41.5241 2.74038L48.2641 18.1004Z" fill="#2A315F"/>
<path d="M72.0556 18.3003L74.8356 21.5503C77.7556 27.2036 79.9923 32.847 81.5456 38.4803L82.4656 41.7303L87.7556 56.5203L87.9656 58.4803L92.5956 70.5303C92.6521 70.6814 92.7364 70.8182 92.8431 70.9318C92.9498 71.0454 93.0767 71.1334 93.2156 71.1903C95.0156 71.9603 113.956 79.5603 112.726 80.8403C112.629 80.9394 112.489 81.0004 112.326 81.0147C112.163 81.029 111.985 80.9961 111.816 80.9203L93.7756 72.9503C93.349 72.7569 93.2056 72.877 93.3456 73.3103C102.186 99.7703 111.892 125.917 122.466 151.75C123.199 153.544 122.646 154.22 120.806 153.78C120.5 153.709 120.216 153.53 119.996 153.27C114.769 147.304 109.672 141.224 104.706 135.03C100.939 130.337 87.859 116.32 65.4656 92.9803C65.9956 90.0103 74.3356 99.5103 75.7356 101.07C88.1856 114.87 101.776 128.15 113.036 142.93C113.629 143.704 114.539 143.85 115.766 143.37C115.892 143.32 115.993 143.222 116.049 143.095C116.105 142.969 116.111 142.824 116.066 142.69C109.476 123.7 102.016 105.03 95.6856 85.9703C92.5723 76.5969 89.2456 67.517 85.7056 58.7303C85.3656 57.897 85.0756 57.047 84.8356 56.1803C82.029 46.1336 79.1689 36.987 76.2556 28.7403C73.0756 19.7603 67.7156 15.9303 58.1856 17.0803C54.9056 17.4736 51.599 17.8136 48.2656 18.1003C56.459 13.7603 64.3889 13.827 72.0556 18.3003Z" fill="#141A3C"/>
<path d="M72.0547 18.3003C82.0247 20.3003 92.1847 22.6303 102.015 24.0103C114.105 25.7103 122.405 25.4103 132.525 26.8703C132.769 26.9079 132.993 26.9689 133.16 27.0433C133.327 27.1178 133.427 27.2013 133.445 27.2803C133.551 27.6736 133.548 28.047 133.435 28.4003C133.379 28.5592 133.278 28.6964 133.147 28.7917C133.016 28.8871 132.861 28.9357 132.705 28.9303C113.178 28.2436 93.8881 25.7836 74.8347 21.5503L72.0547 18.3003Z" fill="#B0807F"/>
<path d="M42.9627 19.7305L43.0127 20.2905C43.0253 20.4367 42.997 20.5862 42.9305 20.7245C42.8639 20.8629 42.7614 20.9855 42.6327 21.0805C40.6427 22.5605 39.0227 24.2605 36.8127 25.6105C30.466 29.5105 28.8027 35.3705 31.8227 43.1905C34.676 50.5771 37.8993 57.1738 41.4927 62.9805C41.8927 63.6205 41.8127 64.0504 41.2527 64.2704C38.986 61.2304 37.0694 58.0338 35.5027 54.6805C35.256 54.1471 34.976 54.1272 34.6627 54.6205C34.3827 55.0405 27.8827 64.5705 27.5327 62.2505C27.5175 62.1382 27.5402 61.9995 27.5991 61.8452C27.6581 61.6909 27.7517 61.5251 27.8727 61.3605L34.2027 52.9305C34.2792 52.8233 34.3163 52.6837 34.3092 52.529C34.302 52.3743 34.2511 52.2114 34.1627 52.0605C32.2893 48.8471 30.966 45.4238 30.1927 41.7905C29.966 40.7238 29.5927 40.6738 29.0727 41.6405C22.126 54.6005 14.8294 67.5238 7.18269 80.4105C5.82269 82.6905 4.28269 84.8338 2.56269 86.8405C2.45707 86.9647 2.32572 87.0593 2.18293 87.114C2.04014 87.1686 1.89137 87.1812 1.75269 87.1505C0.932695 86.9904 0.782682 86.5272 1.30268 85.7605C11.2627 71.0205 19.4227 54.7505 28.4827 39.4005C28.6461 39.1193 28.7291 38.7976 28.7227 38.4705C28.5027 28.4105 35.1727 24.1705 42.9627 19.7305Z" fill="#8C535B"/>
<path d="M81.543 38.4805C97.1296 41.0071 112.753 43.2938 128.413 45.3405C129.733 45.5105 131.903 47.2805 128.013 46.9805C114.22 45.9205 99.8863 43.9805 85.013 41.1605C84.1263 40.9938 83.2763 41.1838 82.463 41.7305L81.543 38.4805Z" fill="#B0807F"/>
<path d="M87.7539 56.5205C91.1606 56.5405 94.5272 56.8838 97.8539 57.5505C107.204 59.4205 114.874 60.5205 123.224 62.7105C125.104 63.2105 125.344 65.0705 122.964 64.6205C112.437 62.6472 101.954 60.5039 91.5139 58.1905C90.7072 58.0105 89.5239 58.1072 87.9639 58.4805L87.7539 56.5205Z" fill="#A4716D"/>
</svg>
