<svg width="48" height="89" viewBox="0 0 48 89" fill="none" xmlns="http://www.w3.org/2000/svg">
<path d="M12.5684 18.0732C7.95509 23.8666 4.73177 30.3666 2.89844 37.5732" stroke="#9BA0B6" stroke-width="2"/>
<path d="M2.89619 37.573C-1.96381 54.753 10.9662 55.563 15.3262 67.633C16.3928 70.593 17.1695 72.423 17.6562 73.123C19.8662 76.313 23.1962 77.4331 25.4362 80.0831C29.7762 85.2231 30.8962 89.093 38.8962 87.703C41.4662 87.263 42.4462 85.2731 40.2862 83.3331C39.5795 82.6931 37.1828 81.8297 33.0962 80.7431C32.9611 80.7063 32.8362 80.6329 32.7332 80.5299C32.6301 80.4268 32.552 80.2972 32.5062 80.153L31.2962 76.133C31.2623 76.0244 31.1795 75.9054 31.0545 75.7856C30.9295 75.6658 30.7657 75.5485 30.5762 75.443C27.9962 73.993 25.7762 73.533 24.0162 70.973C23.6628 70.473 23.1628 69.9064 22.5162 69.2731C18.9062 65.7331 19.8862 60.673 20.1362 56.173C20.2362 54.413 19.5729 53.0364 18.1462 52.043C16.2662 50.723 14.1662 49.9897 11.8462 49.843C11.4666 49.8236 11.1444 49.7091 10.9462 49.5231C8.82617 47.6231 8.34617 45.5264 9.50617 43.233C12.0995 38.0864 16.2662 32.473 22.0062 26.393C22.2352 26.1574 22.3943 25.8668 22.4662 25.5531C23.2362 22.1331 23.5862 18.343 26.3562 15.953C29.0162 13.653 31.1862 12.263 34.9962 12.383C38.1429 12.4697 40.2628 12.363 41.3562 12.063C46.1962 10.703 49.0162 4.84305 43.8562 1.80305C42.4162 0.956386 40.9528 1.1597 39.4662 2.41304L35.9162 5.41304C35.8137 5.50024 35.6658 5.56451 35.4838 5.6009C35.3018 5.6373 35.0905 5.64486 34.8662 5.62303C25.2762 4.68303 17.9262 10.973 12.5662 18.073" stroke="#8C91AD" stroke-width="2"/>
<path d="M2.89844 37.5732L5.67844 36.9532C5.98008 36.8826 6.24612 36.6885 6.41843 36.4132C10.7718 29.5399 13.6751 24.6066 15.1284 21.6133C15.6151 20.6066 15.4018 20.2966 14.4884 20.6832C14.3448 20.7439 14.1881 20.757 14.0505 20.7198C13.9129 20.6826 13.8048 20.598 13.7484 20.4832L12.5684 18.0732" stroke="#273163" stroke-width="2"/>
<path d="M2.90009 37.573L5.68009 36.953C5.98174 36.8824 6.24778 36.6883 6.42008 36.413C10.7734 29.5397 13.6767 24.6064 15.1301 21.6131C15.6167 20.6064 15.4034 20.2964 14.4901 20.683C14.3465 20.7437 14.1898 20.7568 14.0522 20.7196C13.9145 20.6824 13.8065 20.5978 13.7501 20.483L12.5701 18.073C17.9301 10.973 25.2801 4.68303 34.8701 5.62303C35.0945 5.64486 35.3057 5.6373 35.4877 5.6009C35.6697 5.56451 35.8176 5.50024 35.9201 5.41304L39.4701 2.41304C40.9567 1.1597 42.4201 0.956386 43.8601 1.80305C49.0201 4.84305 46.2001 10.703 41.3601 12.063C40.2668 12.363 38.1468 12.4697 35.0001 12.383C31.1901 12.263 29.0201 13.653 26.3601 15.953C23.5901 18.343 23.2401 22.1331 22.4701 25.5531C22.3982 25.8668 22.2391 26.1574 22.0101 26.393C16.2701 32.473 12.1034 38.0864 9.51008 43.233C8.35008 45.5264 8.83008 47.6231 10.9501 49.5231C11.1483 49.7091 11.4705 49.8236 11.8501 49.843C14.1701 49.9897 16.2701 50.723 18.1501 52.043C19.5768 53.0364 20.2401 54.413 20.1401 56.173C19.8901 60.673 18.9101 65.7331 22.5201 69.2731C23.1668 69.9064 23.6668 70.473 24.0201 70.973C25.7801 73.533 28.0001 73.993 30.5801 75.443C30.7696 75.5485 30.9334 75.6658 31.0584 75.7856C31.1834 75.9054 31.2662 76.0244 31.3001 76.133L32.5101 80.153C32.5559 80.2972 32.634 80.4268 32.7371 80.5299C32.8401 80.6329 32.965 80.7063 33.1001 80.7431C37.1867 81.8297 39.5834 82.6931 40.2901 83.3331C42.4501 85.2731 41.4701 87.263 38.9001 87.703C30.9001 89.093 29.7801 85.2231 25.4401 80.0831C23.2001 77.4331 19.8701 76.313 17.6601 73.123C17.1734 72.423 16.3968 70.593 15.3301 67.633C10.9701 55.563 -1.95991 54.753 2.90009 37.573Z" fill="#18225A"/>
<path d="M12.5684 18.0732L13.7484 20.4832C13.8048 20.598 13.9129 20.6826 14.0505 20.7198C14.1881 20.757 14.3448 20.7439 14.4884 20.6832C15.4018 20.2966 15.6151 20.6066 15.1284 21.6133C13.6751 24.6066 10.7718 29.5399 6.41843 36.4132C6.24612 36.6885 5.98008 36.8826 5.67844 36.9532L2.89844 37.5732C4.73177 30.3666 7.95509 23.8666 12.5684 18.0732Z" fill="#36406C"/>
</svg>
