<svg width="146" height="336" viewBox="0 0 146 336" fill="none" xmlns="http://www.w3.org/2000/svg">
<path d="M64.61 30.9873C59.6976 38.754 55.0901 46.6973 50.7876 54.8173C45.8014 64.2273 45.6808 71.6073 44.1729 80.9573C42.856 89.1073 44.384 100.507 45.2083 109.877C45.4697 112.817 46.4046 118.347 46.2739 122.627C46.2708 122.769 46.2364 122.909 46.173 123.036C46.1097 123.164 46.0189 123.276 45.907 123.366C45.7952 123.455 45.6648 123.519 45.5251 123.554C45.3853 123.589 45.2395 123.593 45.0977 123.567C41.9278 122.981 39.0527 121.784 36.4725 119.977C29.4457 115.057 14.1556 104.487 5.10814 109.737C-0.61184 113.067 0.654809 123.897 2.85635 129.387C6.72328 139.054 10.5634 148.741 14.3767 158.447C20.3581 173.647 28.933 187.777 37.1762 201.777" stroke="#8B8B91" stroke-width="2"/>
<path d="M37.1797 201.777C41.6632 210.427 46.77 223.477 57.6068 228.237" stroke="#828181" stroke-width="2"/>
<path d="M57.6046 228.237L61.8769 230.307C62.2321 230.481 62.4868 230.677 62.641 230.897C65.0737 234.337 63.5557 237.177 63.6965 240.367C64.3097 254.627 63.415 269.637 58.7707 283.267C58.1072 285.214 57.7151 286.567 57.5945 287.327L57.0617 290.777C57.0229 291.018 56.975 291.237 56.9235 291.411C56.872 291.584 56.8189 291.704 56.7702 291.757C55.6242 292.911 55.2455 294.327 55.6342 296.007C55.65 296.078 55.6253 296.193 55.5629 296.338C55.5006 296.483 55.4033 296.653 55.2824 296.827C54.9205 297.341 54.5854 298.057 54.2771 298.977C50.9932 308.731 49.0631 314.911 48.4868 317.517C47.2 323.317 46.1344 327.541 45.29 330.187C44.6869 332.087 44.8276 336.317 48.145 333.897C48.3992 333.716 48.5901 333.445 48.6878 333.127C49.492 330.587 50.5342 326.471 51.8142 320.777C53.8649 311.677 58.1072 297.597 64.5409 278.537C66.0086 274.197 66.5715 268.717 66.8631 264.157C67.4863 254.397 68.3107 245.247 67.235 235.347C67.0474 233.647 67.617 232.251 68.944 231.157C84.6563 218.237 98.0767 202.817 113.548 189.577C132.085 173.717 140.278 151.987 141.102 128.167C141.404 119.541 142.309 110.964 143.816 102.437C144.329 99.5073 144.52 93.2774 142.5 91.0974C139.273 87.6274 133.512 90.2573 131.08 93.1973C122.776 103.227 117.71 111.897 105.978 117.947C105.214 118.341 104.976 118.134 105.264 117.327C108.702 107.687 111.497 98.1973 112.402 88.0173C113.819 72.2273 113.447 56.5573 107.858 41.7673C104.353 32.494 100.59 23.3307 96.5688 14.2773" stroke="#8B8B91" stroke-width="2"/>
<path d="M96.5669 14.2773C94.9383 10.1773 90.4146 -0.70272 85.1169 1.22728C81.91 2.39728 79.4874 7.24728 77.8689 10.2473C74.0187 17.4173 68.7209 23.8673 64.6094 30.9873" stroke="#828181" stroke-width="2"/>
<path d="M96.5669 14.2776C95.8029 14.691 95.0891 14.701 94.4257 14.3076C94.1801 14.1605 93.9789 13.8817 93.8627 13.5276C92.7267 10.0076 87.7105 -0.802359 83.1465 5.20764C78.5927 11.2176 67.7559 31.2976 64.6094 30.9876" stroke="#0F1421" stroke-width="2"/>
<path d="M57.6068 228.237C56.8226 227.284 55.1305 225.551 52.5302 223.037C50.265 220.857 48.1271 217.997 46.1165 214.457C43.6938 210.197 40.6177 206.227 38.4061 201.767C38.3144 201.582 38.1957 201.424 38.0696 201.319C37.9434 201.213 37.8175 201.167 37.7125 201.187C37.4913 201.221 37.3137 201.417 37.1797 201.777" stroke="#0F1421" stroke-width="2"/>
<path d="M79.1073 154.047C81.0374 136.217 85.2294 120.037 83.641 102.777C83.0982 96.7974 83.9728 90.8474 83.3495 84.6974C83.3346 84.5364 83.2752 84.3853 83.1797 84.2652C83.0842 84.1451 82.9573 84.062 82.8167 84.0274C81.8583 83.7941 81.463 84.4041 81.6305 85.8574C82.0728 89.8074 80.7961 96.5474 80.6855 101.417C80.394 114.537 78.8057 126.817 76.6946 139.917C76.0982 143.624 75.629 148.057 75.2873 153.217C74.7377 161.537 73.5381 169.764 71.6884 177.897C71.0651 180.627 71.5979 182.957 70.8138 185.857C70.0766 188.597 69.6779 191.401 69.6176 194.267C69.5974 195.247 70.4117 197.227 71.1556 194.767C72.5529 190.147 73.4778 182.817 75.0762 176.497C76.9393 169.111 78.283 161.627 79.1073 154.047Z" stroke="#85878D" stroke-width="2"/>
<path d="M124.082 145.617L122.735 148.537C122.698 148.615 122.674 148.698 122.663 148.78C122.652 148.863 122.655 148.942 122.671 149.013C122.687 149.085 122.717 149.145 122.758 149.191C122.798 149.237 122.849 149.266 122.906 149.277C123.214 149.337 123.499 149.284 123.76 149.117C125.436 148.031 126.401 146.821 126.655 145.487C127.607 140.494 129.336 135.791 131.842 131.377C132.536 130.137 131.752 129.217 130.908 130.717C128.642 134.717 126.555 138.804 124.645 142.977C124.39 143.531 124.276 144.111 124.303 144.717C124.316 144.971 124.243 145.271 124.082 145.617Z" stroke="#21293C" stroke-width="2"/>
<path d="M25.8245 140.218C25.2716 157.478 36.3798 172.568 46.6838 185.218C49.1468 188.238 63.512 206.908 64.3464 206.538C64.3924 206.518 64.4274 206.48 64.449 206.425C64.4706 206.37 64.4784 206.299 64.4717 206.218C64.4651 206.137 64.4442 206.047 64.4104 205.954C64.3767 205.86 64.3309 205.766 64.276 205.678C58.4388 196.238 54.5015 190.211 52.4641 187.598C41.5369 173.588 29.735 157.158 27.3827 140.018C27.1213 138.068 25.8748 138.788 25.8245 140.218Z" stroke="#85878D" stroke-width="2"/>
<path d="M117.213 151.547C106.122 170.214 92.2153 186.477 75.4943 200.337C75.0587 200.697 74.9716 201.011 75.233 201.277C75.3249 201.369 75.4585 201.416 75.6097 201.41C75.7609 201.405 75.9197 201.347 76.0573 201.247C87.4637 192.994 97.3422 183.204 105.693 171.877C108.95 167.467 119.495 154.047 119.063 151.287C118.828 149.781 118.212 149.867 117.213 151.547Z" stroke="#777E88" stroke-width="2"/>
<path d="M98.7197 196.087C98.8001 196.201 98.9107 196.264 99.0514 196.277C99.1358 196.289 99.2356 196.254 99.3366 196.177C99.4377 196.1 99.5349 195.985 99.6144 195.847C100.533 194.274 100.271 194.104 98.8303 195.337C98.7178 195.435 98.6436 195.567 98.623 195.707C98.6024 195.846 98.637 195.983 98.7197 196.087Z" stroke="#303645" stroke-width="2"/>
<path d="M63.8391 214.807C62.3848 213.061 60.5586 211.844 58.3604 211.157C57.898 211.017 57.841 211.191 58.1895 211.677C58.5212 212.147 64.1005 221.827 64.5931 217.617C64.6566 217.09 64.6224 216.569 64.4927 216.086C64.363 215.602 64.1405 215.167 63.8391 214.807Z" stroke="#21293C" stroke-width="2"/>
<path d="M96.5669 14.2773C95.8029 14.6906 95.0891 14.7006 94.4257 14.3073C94.1801 14.1601 93.9789 13.8813 93.8627 13.5273C92.7267 10.0073 87.7105 -0.802717 83.1465 5.20728C78.5927 11.2173 67.7559 31.2973 64.6094 30.9873C68.7209 23.8673 74.0187 17.4173 77.8689 10.2473C79.4874 7.24728 81.91 2.39728 85.1169 1.22728C90.4146 -0.70272 94.9383 10.1773 96.5669 14.2773Z" fill="#060A11"/>
<path d="M96.5675 14.2772C100.589 23.3305 104.352 32.4938 107.857 41.7672C113.446 56.5572 113.818 72.2272 112.4 88.0172C111.496 98.1972 108.701 107.687 105.263 117.327C104.975 118.134 105.213 118.34 105.977 117.947C117.708 111.897 122.775 103.227 131.078 93.1972C133.511 90.2571 139.271 87.6272 142.498 91.0972C144.519 93.2772 144.328 99.5072 143.815 102.437C142.307 110.964 141.402 119.54 141.101 128.167C140.277 151.987 132.084 173.717 113.546 189.577C98.0754 202.817 84.6551 218.237 68.9427 231.157C67.6158 232.251 67.0461 233.647 67.2337 235.347C68.3094 245.247 67.4851 254.397 66.8618 264.157C66.5703 268.717 66.0073 274.197 64.5396 278.537C58.1059 297.597 53.8637 311.677 51.8129 320.777C50.5329 326.47 49.4908 330.587 48.6866 333.127C48.5888 333.445 48.3979 333.716 48.1437 333.897C44.8263 336.317 44.6856 332.087 45.2887 330.187C46.1332 327.54 47.1987 323.317 48.4855 317.517C49.0618 314.91 50.992 308.73 54.2758 298.977C54.5841 298.057 54.9192 297.34 55.2811 296.827C55.402 296.653 55.4993 296.483 55.5617 296.338C55.624 296.192 55.6487 296.078 55.633 296.007C55.2443 294.327 55.6229 292.91 56.7689 291.757C56.8176 291.704 56.8707 291.584 56.9222 291.41C56.9737 291.237 57.0216 291.018 57.0604 290.777L57.5932 287.327C57.7138 286.567 58.1059 285.214 58.7694 283.267C63.4137 269.637 64.3084 254.627 63.6952 240.367C63.5545 237.177 65.0724 234.337 62.6397 230.897C62.4855 230.677 62.2309 230.48 61.8757 230.307L57.6033 228.237C56.8192 227.284 55.127 225.551 52.5267 223.037C50.2615 220.857 48.1236 217.997 46.1131 214.457C43.6904 210.197 40.6142 206.227 38.4026 201.767C38.3109 201.582 38.1922 201.424 38.0661 201.318C37.94 201.213 37.814 201.167 37.709 201.187C37.4878 201.221 37.3102 201.417 37.1762 201.777C28.933 187.777 20.3581 173.647 14.3767 158.447C10.5634 148.741 6.72328 139.054 2.85635 129.387C0.654809 123.897 -0.61184 113.067 5.10814 109.737C14.1556 104.487 29.4457 115.057 36.4725 119.977C39.0527 121.784 41.9278 122.98 45.0977 123.567C45.2395 123.593 45.3853 123.589 45.5251 123.554C45.6648 123.519 45.7952 123.455 45.907 123.365C46.0189 123.276 46.1097 123.164 46.173 123.036C46.2364 122.909 46.2708 122.769 46.2739 122.627C46.4046 118.347 45.4697 112.817 45.2083 109.877C44.384 100.507 42.856 89.1071 44.1729 80.9571C45.6808 71.6071 45.8014 64.2271 50.7876 54.8171C55.0901 46.6971 59.6976 38.7538 64.61 30.9872C67.7565 31.2972 78.5933 11.2172 83.1472 5.20715C87.7111 -0.802847 92.7274 10.0072 93.8633 13.5272C93.9796 13.8812 94.1807 14.16 94.4263 14.3072C95.0898 14.7005 95.8035 14.6905 96.5675 14.2772ZM79.106 154.047C81.0361 136.217 85.2281 120.037 83.6397 102.777C83.0969 96.7971 83.9715 90.8472 83.3482 84.6972C83.3333 84.5361 83.2739 84.385 83.1784 84.2649C83.0829 84.1448 82.956 84.0617 82.8154 84.0272C81.857 83.7938 81.4617 84.4038 81.6292 85.8572C82.0715 89.8072 80.7948 96.5471 80.6842 101.417C80.3927 114.537 78.8044 126.817 76.6933 139.917C76.0969 143.624 75.6277 148.057 75.286 153.217C74.7364 161.537 73.5368 169.764 71.6871 177.897C71.0638 180.627 71.5966 182.957 70.8125 185.857C70.0753 188.597 69.6766 191.4 69.6163 194.267C69.5961 195.247 70.4104 197.227 71.1543 194.767C72.5516 190.147 73.4765 182.817 75.0749 176.497C76.938 169.11 78.2817 161.627 79.106 154.047ZM124.082 145.617L122.735 148.537C122.698 148.615 122.674 148.698 122.663 148.78C122.652 148.862 122.655 148.942 122.671 149.013C122.687 149.084 122.717 149.145 122.758 149.191C122.798 149.236 122.849 149.266 122.906 149.277C123.214 149.337 123.499 149.284 123.76 149.117C125.435 148.03 126.401 146.82 126.655 145.487C127.607 140.494 129.336 135.79 131.842 131.377C132.536 130.137 131.752 129.217 130.908 130.717C128.642 134.717 126.555 138.804 124.645 142.977C124.39 143.531 124.276 144.11 124.303 144.717C124.316 144.97 124.243 145.27 124.082 145.617ZM25.8267 140.217C25.2738 157.477 36.3821 172.567 46.6861 185.217C49.149 188.237 63.5143 206.907 64.3486 206.537C64.3947 206.518 64.4296 206.48 64.4512 206.424C64.4728 206.369 64.4806 206.299 64.4739 206.218C64.4673 206.137 64.4464 206.046 64.4127 205.953C64.379 205.86 64.3332 205.766 64.2783 205.677C58.441 196.237 54.5037 190.21 52.4664 187.597C41.5391 173.587 29.7372 157.157 27.3849 140.017C27.1235 138.067 25.877 138.787 25.8267 140.217ZM117.216 151.547C106.124 170.214 92.218 186.477 75.4971 200.337C75.0614 200.697 74.9743 201.01 75.2357 201.277C75.3276 201.368 75.4613 201.416 75.6125 201.41C75.7636 201.405 75.9224 201.347 76.06 201.247C87.4665 192.994 97.3449 183.204 105.695 171.877C108.952 167.467 119.498 154.047 119.065 151.287C118.831 149.781 118.214 149.867 117.216 151.547ZM98.7188 196.087C98.7992 196.2 98.9098 196.264 99.0505 196.277C99.1348 196.289 99.2346 196.254 99.3357 196.177C99.4368 196.1 99.534 195.984 99.6135 195.847C100.532 194.274 100.27 194.104 98.8294 195.337C98.7168 195.435 98.6426 195.567 98.6221 195.707C98.6015 195.846 98.6361 195.982 98.7188 196.087ZM63.836 214.807C62.3817 213.06 60.5554 211.844 58.3572 211.157C57.8948 211.017 57.8378 211.19 58.1863 211.677C58.5181 212.147 64.0973 221.827 64.5899 217.617C64.6534 217.09 64.6192 216.569 64.4895 216.086C64.3598 215.602 64.1373 215.167 63.836 214.807Z" fill="#181D31"/>
<path d="M57.6068 228.237C46.77 223.477 41.6632 210.427 37.1797 201.777C37.3137 201.417 37.4913 201.221 37.7125 201.187C37.8175 201.167 37.9434 201.213 38.0696 201.319C38.1957 201.424 38.3144 201.582 38.4061 201.767C40.6177 206.227 43.6938 210.197 46.1165 214.457C48.1271 217.997 50.265 220.857 52.5302 223.037C55.1305 225.551 56.8226 227.284 57.6068 228.237Z" fill="#060A11"/>
<path d="M84.9503 100.799C86.5303 118.059 82.3604 134.239 80.4404 152.069C79.6204 159.649 78.2837 167.132 76.4304 174.519C74.8404 180.839 73.9204 188.169 72.5304 192.789C71.7904 195.249 70.9804 193.269 71.0004 192.289C71.0604 189.422 71.457 186.619 72.1904 183.879C72.9704 180.979 72.4404 178.649 73.0604 175.919C74.9004 167.786 76.0937 159.559 76.6403 151.239C76.9803 146.079 77.447 141.646 78.0403 137.939C80.1403 124.839 81.7203 112.559 82.0103 99.4389C82.1203 94.5689 83.3903 87.8289 82.9503 83.8789C82.7837 82.4256 83.177 81.8156 84.1303 82.0489C84.2702 82.0835 84.3964 82.1666 84.4914 82.2867C84.5864 82.4068 84.6455 82.5578 84.6604 82.7189C85.2804 88.8689 84.4103 94.8189 84.9503 100.799Z" fill="#F1F0E8"/>
<path d="M124.638 143.778C124.611 143.171 124.725 142.591 124.978 142.038C126.878 137.865 128.955 133.778 131.208 129.778C132.048 128.278 132.828 129.198 132.138 130.438C129.645 134.851 127.925 139.555 126.978 144.548C126.725 145.881 125.765 147.091 124.098 148.178C123.838 148.345 123.555 148.398 123.248 148.338C123.192 148.327 123.141 148.297 123.101 148.251C123.061 148.206 123.031 148.145 123.015 148.074C122.998 148.003 122.996 147.923 123.007 147.841C123.018 147.758 123.042 147.675 123.078 147.598L124.418 144.678C124.578 144.331 124.651 144.031 124.638 143.778Z" fill="#293546"/>
<path d="M26.0197 140.391C26.0697 138.961 27.3097 138.241 27.5697 140.191C29.9097 157.331 41.6497 173.761 52.5197 187.771C54.5464 190.384 58.4631 196.411 64.2697 205.851C64.3243 205.94 64.3699 206.034 64.4034 206.127C64.437 206.22 64.4578 206.31 64.4644 206.391C64.471 206.473 64.4633 206.543 64.4418 206.598C64.4203 206.653 64.3855 206.692 64.3397 206.711C63.5097 207.081 49.2197 188.411 46.7697 185.391C36.5197 172.741 25.4697 157.651 26.0197 140.391Z" fill="#F1F0E8"/>
<path d="M117.906 152.329C118.9 150.649 119.513 150.562 119.746 152.069C120.176 154.829 109.686 168.249 106.446 172.659C98.1396 183.986 88.3129 193.776 76.9663 202.029C76.8294 202.129 76.6714 202.186 76.521 202.192C76.3706 202.197 76.2377 202.15 76.1463 202.059C75.8863 201.792 75.9729 201.479 76.4062 201.119C93.0396 187.259 106.873 170.996 117.906 152.329Z" fill="#D5DEDE"/>
<path d="M102.845 195.337C104.278 194.104 104.538 194.274 103.625 195.847C103.546 195.985 103.449 196.1 103.348 196.177C103.248 196.254 103.149 196.289 103.065 196.277C102.925 196.264 102.815 196.201 102.735 196.087C102.653 195.983 102.618 195.846 102.639 195.707C102.659 195.567 102.733 195.435 102.845 195.337Z" fill="#474F59"/>
<path d="M68.0349 214.807C68.3347 215.167 68.556 215.602 68.685 216.086C68.8141 216.569 68.8481 217.09 68.7849 217.617C68.2949 221.827 62.7449 212.147 62.4149 211.677C62.0682 211.191 62.1249 211.017 62.5849 211.157C64.7716 211.844 66.5882 213.061 68.0349 214.807Z" fill="#293546"/>
</svg>
