<svg width="26" height="38" viewBox="0 0 26 38" fill="none" xmlns="http://www.w3.org/2000/svg">
<path d="M12.3327 11.1919L6.60271 1.95191C6.47518 1.74533 6.34898 1.55372 6.24648 1.41095C6.14398 1.26818 6.0718 1.18351 6.04271 1.17194C4.35605 0.705271 2.99937 1.18856 1.97271 2.62189C1.88382 2.74519 1.84584 2.91596 1.86367 3.11206C1.88149 3.30817 1.95432 3.52063 2.07271 3.72193C4.11938 7.17526 5.59604 10.8653 6.5027 14.7919C6.55325 15.0098 6.57349 15.2181 6.56112 15.3931C6.54874 15.5681 6.50424 15.7029 6.4327 15.7819L3.5027 18.8719C3.24615 19.1475 3.10305 19.4873 3.10271 19.8219C3.10271 23.1519 7.91269 21.0419 9.42269 20.5219C9.84276 20.3748 10.3012 20.378 10.7204 20.5311C11.1395 20.6841 11.4936 20.9777 11.7227 21.3619L20.5327 36.2719C20.6137 36.4123 20.7258 36.5328 20.8608 36.6245C20.9958 36.7162 21.1502 36.7769 21.3127 36.8019C24.2594 37.2753 25.1094 36.1253 23.8627 33.3519C21.496 28.0919 19.1194 22.8053 16.7327 17.4919C16.672 17.3611 16.6538 17.2145 16.6807 17.0728C16.7076 16.9311 16.7783 16.8014 16.8827 16.7019C18.1327 15.5119 24.0727 11.8419 19.8127 10.2819C19.5299 10.1792 19.1967 10.1971 18.8827 10.3319C17.036 11.1319 15.1294 11.5686 13.1627 11.6419C12.9985 11.6476 12.8353 11.6089 12.6895 11.5299C12.5437 11.4509 12.4206 11.3343 12.3327 11.1919Z" stroke="#FFDD9D" stroke-width="2"/>
<path d="M13.1588 11.6424C15.1255 11.5691 17.0321 11.1324 18.8788 10.3324C19.1928 10.1976 19.5259 10.1797 19.8088 10.2824C24.0688 11.8424 18.1288 15.5124 16.8788 16.7024C16.7744 16.8019 16.7037 16.9316 16.6768 17.0733C16.6499 17.215 16.6681 17.3616 16.7288 17.4924C19.1155 22.8058 21.4921 28.0924 23.8588 33.3524C25.1054 36.1258 24.2555 37.2758 21.3088 36.8024C21.1463 36.7774 20.9919 36.7167 20.8569 36.625C20.7219 36.5333 20.6098 36.4128 20.5288 36.2724L11.7188 21.3624C11.4897 20.9782 11.1356 20.6846 10.7164 20.5316C10.2973 20.3785 9.83885 20.3752 9.41878 20.5224C7.90878 21.0424 3.0988 23.1524 3.0988 19.8224C3.09915 19.4878 3.24224 19.1479 3.4988 18.8724L6.42879 15.7824C6.50033 15.7033 6.54483 15.5686 6.55721 15.3936C6.56958 15.2186 6.54934 15.0103 6.4988 14.7924C5.59213 10.8658 4.11547 7.17575 2.06881 3.72241C1.95041 3.52111 1.87759 3.30865 1.85976 3.11255C1.84193 2.91645 1.87991 2.74568 1.9688 2.62238C2.99547 1.18904 4.35214 0.705759 6.03881 1.17243C6.06789 1.18399 6.14007 1.26867 6.24257 1.41144C6.34507 1.55421 6.47127 1.74582 6.5988 1.95239L12.3288 11.1924C12.4167 11.3347 12.5398 11.4514 12.6856 11.5304C12.8314 11.6094 12.9946 11.6481 13.1588 11.6424Z" fill="#FFBC3D"/>
</svg>
