<svg width="38" height="105" viewBox="0 0 38 105" fill="none" xmlns="http://www.w3.org/2000/svg">
<path d="M17.958 74.8884C17.8306 74.8618 17.7118 74.8042 17.6121 74.7206C17.5124 74.6371 17.4349 74.5302 17.3864 74.4095C17.3379 74.2888 17.32 74.158 17.3342 74.0288C17.3485 73.8995 17.3944 73.7757 17.468 73.6684C20.978 68.6684 30.688 57.0684 28.538 50.7284C26.288 44.0884 14.6479 48.7284 9.73793 49.3184C7.0046 49.6451 6.73125 48.9751 8.91792 47.3084C13.4179 43.8751 18.0046 40.5484 22.6779 37.3284C23.8979 36.4884 24.4313 35.0684 24.278 33.0684C24.2524 32.7638 24.115 32.4644 23.888 32.2184C20.868 28.9317 17.7746 25.7051 14.6079 22.5384C13.3179 21.2484 13.4879 19.5984 15.6879 19.6084C19.9213 19.6217 24.1413 19.7117 28.348 19.8784C30.6213 19.9651 32.2013 19.8684 33.088 19.5884C36.898 18.3984 37.6379 14.4684 35.2479 11.3584C32.3279 7.5584 25.978 4.5084 21.888 1.8884C20.2413 0.835069 18.5313 0.718396 16.7579 1.5384C9.02795 5.1184 23.048 11.2684 25.278 12.7884C26.1313 13.3684 26.0513 13.7651 25.038 13.9784C20.788 14.8584 11.218 16.1584 8.70796 19.6484C5.54796 24.0584 14.938 31.3084 18.098 33.8284C18.2785 33.9712 18.422 34.1551 18.5169 34.3649C18.6117 34.5747 18.655 34.8044 18.6433 35.035C18.6315 35.2656 18.5651 35.4905 18.4494 35.691C18.3337 35.8916 18.1721 36.0621 17.978 36.1884C14.218 38.6151 10.5446 41.0551 6.95796 43.5084C2.34796 46.6484 -2.61203 50.7484 4.77797 55.2784C4.94857 55.3856 5.12053 55.4656 5.2837 55.5137C5.44688 55.5618 5.59796 55.577 5.72798 55.5584C11.048 54.7851 16.2813 53.6184 21.4279 52.0584C23.1813 51.5251 23.6846 52.0384 22.9379 53.5984C20.1479 59.4384 14.998 64.8884 11.478 70.4984C9.51798 73.6084 7.10796 76.6584 12.268 78.2984C16.8413 79.7584 21.488 80.9317 26.208 81.8184C28.248 82.2051 28.478 83.0317 26.898 84.2984C24.2113 86.4517 21.5746 88.6451 18.9879 90.8784C11.0179 97.7584 21.618 110.358 25.978 97.5284C26.0846 97.2084 26.2579 96.9317 26.4979 96.6984C31.2679 92.1084 37.678 83.5684 32.218 77.0384C27.498 71.4084 23.218 75.9784 17.958 74.8884Z" stroke="#FFC2B7" stroke-width="2"/>
<path d="M17.9541 74.8884C23.2141 75.9784 27.4941 71.4084 32.2141 77.0384C37.6741 83.5684 31.264 92.1084 26.494 96.6984C26.254 96.9317 26.0807 97.2084 25.9741 97.5284C21.6141 110.358 11.014 97.7584 18.984 90.8784C21.5707 88.6451 24.2074 86.4517 26.8941 84.2984C28.4741 83.0317 28.2441 82.2051 26.2041 81.8184C21.4841 80.9317 16.8374 79.7584 12.2641 78.2984C7.10405 76.6584 9.51407 73.6084 11.4741 70.4984C14.9941 64.8884 20.144 59.4384 22.934 53.5984C23.6807 52.0384 23.1774 51.5251 21.424 52.0584C16.2774 53.6184 11.0441 54.7851 5.72407 55.5584C5.59405 55.577 5.44297 55.5618 5.2798 55.5137C5.11663 55.4656 4.94467 55.3856 4.77406 55.2784C-2.61594 50.7484 2.34405 46.6484 6.95405 43.5084C10.5407 41.0551 14.2141 38.6151 17.9741 36.1884C18.1682 36.0621 18.3298 35.8916 18.4455 35.691C18.5612 35.4905 18.6276 35.2656 18.6394 35.035C18.6511 34.8044 18.6078 34.5747 18.513 34.3649C18.4181 34.1551 18.2745 33.9712 18.0941 33.8284C14.9341 31.3084 5.54405 24.0584 8.70405 19.6484C11.2141 16.1584 20.7841 14.8584 25.0341 13.9784C26.0474 13.7651 26.1274 13.3684 25.2741 12.7884C23.0441 11.2684 9.02404 5.1184 16.754 1.5384C18.5274 0.718396 20.2374 0.835069 21.884 1.8884C25.974 4.5084 32.324 7.5584 35.244 11.3584C37.634 14.4684 36.8941 18.3984 33.0841 19.5884C32.1974 19.8684 30.6174 19.9651 28.3441 19.8784C24.1374 19.7117 19.9174 19.6217 15.684 19.6084C13.484 19.5984 13.314 21.2484 14.604 22.5384C17.7707 25.7051 20.864 28.9317 23.884 32.2184C24.1111 32.4644 24.2484 32.7638 24.2741 33.0684C24.4274 35.0684 23.894 36.4884 22.674 37.3284C18.0007 40.5484 13.414 43.8751 8.91401 47.3084C6.72735 48.9751 7.00069 49.6451 9.73402 49.3184C14.644 48.7284 26.2841 44.0884 28.5341 50.7284C30.6841 57.0684 20.9741 68.6684 17.4641 73.6684C17.3905 73.7757 17.3446 73.8995 17.3303 74.0288C17.3161 74.158 17.334 74.2888 17.3825 74.4095C17.431 74.5302 17.5085 74.6371 17.6082 74.7206C17.7079 74.8042 17.8267 74.8618 17.9541 74.8884Z" fill="#FF8571"/>
</svg>
