<svg width="174" height="197" viewBox="0 0 174 197" fill="none" xmlns="http://www.w3.org/2000/svg">
<path d="M71.6228 9.28613C65.7628 30.9661 60.8728 52.8694 56.9528 74.9961C56.9416 75.0559 56.9178 75.1127 56.8829 75.1628C56.848 75.213 56.8028 75.2554 56.7502 75.2874C56.6975 75.3193 56.6386 75.3401 56.5771 75.3485C56.5156 75.3569 56.4528 75.3527 56.3928 75.3361L34.1328 69.0161" stroke="#8F929F" stroke-width="2"/>
<path d="M34.1353 69.0169C23.3753 66.1969 12.5453 63.7369 1.64532 61.6369C1.57168 61.6221 1.49612 61.62 1.42333 61.6309C1.35054 61.6417 1.28207 61.6652 1.2221 61.6998C1.16213 61.7345 1.11192 61.7796 1.07464 61.8325C1.03735 61.8853 1.01377 61.9446 1.0053 62.0069C0.845302 63.1669 14.4853 75.4569 17.8653 78.4969" stroke="#848585" stroke-width="2"/>
<path d="M17.8633 78.4961C23.7366 84.9228 29.62 91.3428 35.5133 97.7561C38.7633 101.296 42.6633 104.666 46.2133 108.246" stroke="#FFBBAE" stroke-width="2"/>
<path d="M46.2126 108.246C42.386 111.573 38.846 115.159 35.5926 119.006C26.7226 129.486 17.5827 139.366 9.39269 150.286C8.05269 152.076 6.12266 153.486 4.67266 155.406C4.63258 155.462 4.60376 155.525 4.58801 155.592C4.57226 155.658 4.56997 155.726 4.58129 155.791C4.59262 155.856 4.61726 155.917 4.65368 155.969C4.69011 156.022 4.73747 156.065 4.79266 156.096C5.76599 156.663 6.72265 156.683 7.66265 156.156" stroke="#8F929F" stroke-width="2"/>
<path d="M7.66406 156.156C12.2774 157.383 16.2674 157.503 19.6341 156.516C37.5241 151.256 54.4641 143.696 71.3141 135.746" stroke="#FFBFB4" stroke-width="2"/>
<path d="M71.3125 135.746C74.9925 142.486 78.5525 149.186 81.9925 155.846C85.6725 162.956 89.9625 170.006 93.8925 177.146C97.3725 183.476 101.382 188.606 105.682 194.106C106.769 195.493 107.622 195.626 108.242 194.506" stroke="#8F929F" stroke-width="2"/>
<path d="M108.246 194.506C111.026 176.119 112.283 157.653 112.016 139.106C111.956 135.136 112.226 129.386 111.866 124.496" stroke="#FFBBAE" stroke-width="2"/>
<path d="M111.863 124.497L119.163 122.587" stroke="#8F929F" stroke-width="2"/>
<path d="M119.164 122.587C127.437 122.087 135.664 121.007 143.844 119.347C148.534 118.387 153.734 116.137 158.864 114.917" stroke="#88888D" stroke-width="2"/>
<path d="M163.615 102.247C154.885 99.5367 143.875 97.3567 137.225 95.5367C124.252 91.9901 111.722 87.7167 99.635 82.7167C99.2353 82.5527 98.887 82.2842 98.6266 81.9394C98.3662 81.5946 98.2033 81.1861 98.155 80.7567C95.055 53.4634 88.135 27.3101 77.395 2.29675C76.705 0.686749 75.365 0.476751 74.645 2.23675C73.6917 4.55675 72.685 6.90674 71.625 9.28674" stroke="#FFBFB4" stroke-width="2"/>
<path d="M163.865 102.916C149.018 98.9361 133.975 96.0228 118.735 94.1761C108.965 92.9961 100.135 90.9661 90.785 89.1561C90.6375 89.1288 90.5005 89.061 90.3893 88.9603C90.278 88.8597 90.1969 88.7301 90.155 88.5861C82.995 63.4261 76.215 41.1761 73.395 12.9461C73.3017 11.9861 72.7117 10.7661 71.625 9.28613" stroke="#905356" stroke-width="2"/>
<path d="M158.905 114.707C159.039 114.087 159.409 113.663 160.015 113.437C160.172 113.38 160.309 113.29 160.408 113.178C160.508 113.066 160.566 112.937 160.575 112.807C160.775 109.787 157.685 111.707 156.725 112.647C156.493 112.879 156.191 113.021 155.875 113.047C152.315 113.297 149.695 115.367 146.825 116.057C140.079 117.697 133.225 118.57 126.265 118.677C124.215 118.707 121.905 119.247 119.675 119.227C119.318 119.226 118.993 119.314 118.745 119.477C117.359 120.403 117.499 121.44 119.165 122.587" stroke="#191C2F" stroke-width="2"/>
<path d="M111.864 124.496L101.584 126.466C101.39 126.503 101.218 126.614 101.106 126.775C100.993 126.936 100.95 127.134 100.984 127.326C103.391 141.286 105.058 155.269 105.984 169.276C106.764 181.076 107.518 189.486 108.244 194.506" stroke="#904F51" stroke-width="2"/>
<path d="M71.3141 135.747C69.3541 133.54 67.7341 131.027 66.4541 128.207C66.38 128.046 66.2743 127.902 66.1436 127.784C66.0129 127.665 65.8598 127.574 65.6935 127.516C65.5272 127.458 65.3512 127.434 65.176 127.446C65.0008 127.459 64.83 127.506 64.6741 127.587C53.9941 133.077 43.8941 139.207 32.9941 144.077C24.4607 147.89 16.0174 151.917 7.66406 156.157" stroke="#905356" stroke-width="2"/>
<path d="M46.2123 108.246C47.4323 107.373 48.299 106.156 48.8124 104.596C48.8577 104.458 48.861 104.308 48.8221 104.163C48.7832 104.018 48.7036 103.884 48.5923 103.776C37.8423 93.2961 28.7923 86.6561 18.6523 78.2061" stroke="#904F51" stroke-width="2"/>
<path d="M18.6537 78.2067C15.4637 73.0667 12.3337 72.2267 9.49371 68.5567C9.36408 68.3891 9.27884 68.1915 9.24584 67.9821C9.21285 67.7728 9.23315 67.5586 9.30493 67.3592C9.3767 67.1598 9.49764 66.9818 9.65649 66.8415C9.81533 66.7012 10.0069 66.6033 10.2137 66.5567C12.4037 66.0767 15.1837 67.3867 16.8237 67.7067C21.2504 68.5534 25.6804 69.3801 30.1137 70.1867C32.047 70.5401 33.3871 70.1501 34.1337 69.0167" stroke="#151927" stroke-width="2"/>
<path d="M18.6533 78.2061L17.8633 78.496" stroke="#854137" stroke-width="2"/>
<path d="M97.3031 113.267C98.5564 113.8 99.443 113.61 99.963 112.697C99.9897 112.657 100.146 112.443 100.433 112.057L103.743 107.627C103.853 107.486 103.921 107.322 103.938 107.16C103.954 106.997 103.917 106.845 103.833 106.727C103.073 105.647 101.996 105.237 100.603 105.497C100.459 105.523 100.327 105.585 100.221 105.675C100.115 105.766 100.039 105.88 100.003 106.007C99.4231 108.02 98.3731 109.75 96.8531 111.197C96.7052 111.339 96.5971 111.516 96.5385 111.713C96.4798 111.911 96.4724 112.121 96.517 112.326C96.5616 112.531 96.6567 112.724 96.7939 112.888C96.931 113.053 97.106 113.182 97.3031 113.267Z" stroke="#252A44" stroke-width="2"/>
<path d="M163.615 102.246L163.865 102.916C149.018 98.9358 133.975 96.0224 118.735 94.1757C108.965 92.9957 100.135 90.9658 90.785 89.1558C90.6375 89.1284 90.5005 89.0606 90.3893 88.96C90.278 88.8593 90.1969 88.7298 90.155 88.5857C82.995 63.4257 76.215 41.1757 73.395 12.9457C73.3017 11.9857 72.7117 10.7658 71.625 9.28576C72.685 6.90576 73.6917 4.55577 74.645 2.23577C75.365 0.475775 76.705 0.685772 77.395 2.29577C88.135 27.3091 95.055 53.4624 98.155 80.7557C98.2033 81.1851 98.3662 81.5936 98.6266 81.9384C98.887 82.2832 99.2353 82.5517 99.635 82.7158C111.722 87.7158 124.252 91.9891 137.225 95.5358C143.875 97.3558 154.885 99.5357 163.615 102.246Z" fill="#FF806B"/>
<path d="M71.6227 9.28613C72.7093 10.7661 73.2994 11.9861 73.3927 12.9461C76.2127 41.1761 82.9926 63.4261 90.1526 88.5861C90.1946 88.7301 90.2757 88.8597 90.387 88.9603C90.4982 89.061 90.6352 89.1288 90.7826 89.1561C100.133 90.9661 108.963 92.9961 118.733 94.1761C133.973 96.0228 149.016 98.9361 163.863 102.916L165.113 103.246L171.863 104.666C172.603 104.913 173.006 105.406 173.073 106.146C173.159 107.166 172.499 108.023 171.093 108.716L158.903 114.706C159.036 114.086 159.406 113.663 160.013 113.436C160.169 113.379 160.306 113.29 160.405 113.178C160.505 113.066 160.563 112.937 160.573 112.806C160.773 109.786 157.683 111.706 156.723 112.646C156.49 112.879 156.189 113.021 155.873 113.046C152.313 113.296 149.693 115.366 146.823 116.056C140.076 117.696 133.223 118.569 126.263 118.676C124.213 118.706 121.903 119.246 119.673 119.226C119.315 119.226 118.99 119.313 118.743 119.476C117.356 120.403 117.496 121.439 119.163 122.586L111.863 124.496L101.583 126.466C101.388 126.503 101.216 126.614 101.104 126.775C100.992 126.936 100.948 127.134 100.983 127.326C103.389 141.286 105.056 155.269 105.983 169.276C106.763 181.076 107.516 189.486 108.243 194.506C107.623 195.626 106.769 195.493 105.683 194.106C101.383 188.606 97.3727 183.476 93.8927 177.146C89.9627 170.006 85.6727 162.956 81.9927 155.846C78.5527 149.186 74.9927 142.486 71.3127 135.746C69.3527 133.539 67.7327 131.026 66.4527 128.206C66.3786 128.046 66.2729 127.902 66.1422 127.783C66.0115 127.664 65.8584 127.573 65.6921 127.515C65.5258 127.457 65.3498 127.434 65.1746 127.446C64.9994 127.458 64.8286 127.506 64.6727 127.586C53.9927 133.076 43.8927 139.206 32.9927 144.076C24.4593 147.889 16.016 151.916 7.66265 156.156C6.72265 156.683 5.76599 156.663 4.79266 156.096C4.73747 156.065 4.69011 156.022 4.65368 155.969C4.61726 155.917 4.59262 155.856 4.58129 155.791C4.56997 155.726 4.57226 155.658 4.58801 155.592C4.60376 155.525 4.63258 155.462 4.67266 155.406C6.12266 153.486 8.05269 152.076 9.39269 150.286C17.5827 139.366 26.7226 129.486 35.5926 119.006C38.846 115.159 42.386 111.573 46.2126 108.246C47.4326 107.373 48.2993 106.156 48.8127 104.596C48.858 104.458 48.8613 104.308 48.8224 104.163C48.7835 104.018 48.7039 103.884 48.5926 103.776C37.8426 93.2961 28.7926 86.6561 18.6526 78.2061C15.4626 73.0661 12.3327 72.2261 9.49267 68.5561C9.36304 68.3885 9.2778 68.1908 9.24481 67.9815C9.21181 67.7722 9.23211 67.558 9.30389 67.3586C9.37567 67.1592 9.4966 66.9811 9.65545 66.8409C9.8143 66.7006 10.0059 66.6026 10.2126 66.5561C12.4026 66.0761 15.1827 67.3861 16.8227 67.7061C21.2494 68.5528 25.6793 69.3794 30.1127 70.1861C32.046 70.5394 33.386 70.1494 34.1327 69.0161L56.3927 75.3361C56.4527 75.3527 56.5154 75.3569 56.577 75.3485C56.6385 75.3401 56.6974 75.3193 56.7501 75.2874C56.8027 75.2554 56.8479 75.213 56.8827 75.1628C56.9176 75.1127 56.9415 75.0559 56.9527 74.9961C60.8727 52.8694 65.7627 30.9661 71.6227 9.28613ZM97.3027 113.266C98.556 113.799 99.4426 113.609 99.9626 112.696C99.9893 112.656 100.146 112.443 100.433 112.056L103.743 107.626C103.853 107.485 103.921 107.321 103.937 107.159C103.953 106.997 103.917 106.845 103.833 106.726C103.073 105.646 101.996 105.236 100.603 105.496C100.459 105.523 100.326 105.585 100.22 105.675C100.114 105.765 100.039 105.88 100.003 106.006C99.4227 108.019 98.3727 109.749 96.8527 111.196C96.7048 111.338 96.5967 111.516 96.5381 111.713C96.4794 111.91 96.472 112.121 96.5166 112.326C96.5612 112.531 96.6563 112.724 96.7934 112.888C96.9306 113.052 97.1056 113.182 97.3027 113.266Z" fill="#202641"/>
<path d="M34.1314 69.0159C33.3847 70.1493 32.0447 70.5392 30.1114 70.1859C25.678 69.3792 21.2481 68.5526 16.8214 67.7059C15.1814 67.3859 12.4014 66.0759 10.2114 66.5559C10.0046 66.6024 9.81301 66.7004 9.65417 66.8407C9.49532 66.981 9.37438 67.159 9.3026 67.3584C9.23083 67.5578 9.21053 67.772 9.24352 67.9813C9.27652 68.1906 9.36176 68.3883 9.49139 68.5559C12.3314 72.2259 15.4614 73.0659 18.6514 78.2059L17.8614 78.4959C14.4814 75.4559 0.841396 63.1659 1.0014 62.0059C1.00987 61.9436 1.03345 61.8843 1.07073 61.8315C1.10802 61.7787 1.15823 61.7335 1.21819 61.6988C1.27816 61.6642 1.34664 61.6407 1.41943 61.6299C1.49221 61.6191 1.56777 61.6211 1.64141 61.6359C12.5414 63.7359 23.3714 66.1959 34.1314 69.0159Z" fill="#0A0B0D"/>
<path d="M18.6533 78.2061C28.7933 86.6561 37.8433 93.2961 48.5933 103.776C48.7045 103.884 48.7842 104.018 48.8231 104.163C48.862 104.308 48.8586 104.458 48.8133 104.596C48.3 106.156 47.4333 107.373 46.2133 108.246C42.6633 104.666 38.7633 101.296 35.5133 97.756C29.62 91.3427 23.7366 84.9227 17.8633 78.496L18.6533 78.2061Z" fill="#FF7760"/>
<path d="M97.3031 113.266C97.106 113.181 96.931 113.052 96.7939 112.887C96.6567 112.723 96.5616 112.53 96.517 112.325C96.4724 112.12 96.4798 111.91 96.5385 111.713C96.5971 111.515 96.7052 111.338 96.8531 111.196C98.3731 109.749 99.4231 108.019 100.003 106.006C100.039 105.879 100.115 105.765 100.221 105.674C100.327 105.584 100.459 105.522 100.603 105.496C101.996 105.236 103.073 105.646 103.833 106.726C103.917 106.845 103.954 106.996 103.938 107.159C103.921 107.321 103.853 107.485 103.743 107.626L100.433 112.056C100.146 112.442 99.9897 112.656 99.963 112.696C99.443 113.609 98.5564 113.799 97.3031 113.266Z" fill="#292D47"/>
<path d="M158.901 114.707L158.862 114.917C153.732 116.137 148.531 118.387 143.841 119.347C135.661 121.007 127.435 122.087 119.161 122.587C117.495 121.44 117.355 120.403 118.742 119.477C118.989 119.314 119.314 119.226 119.672 119.227C121.902 119.247 124.212 118.707 126.262 118.677C133.222 118.57 140.075 117.697 146.822 116.057C149.692 115.367 152.312 113.297 155.872 113.047C156.187 113.021 156.489 112.879 156.721 112.647C157.681 111.707 160.772 109.787 160.572 112.807C160.562 112.937 160.504 113.066 160.404 113.178C160.305 113.29 160.168 113.38 160.012 113.437C159.405 113.663 159.035 114.087 158.901 114.707Z" fill="#12111D"/>
<path d="M111.864 124.496C112.224 129.386 111.954 135.136 112.014 139.106C112.281 157.653 111.024 176.119 108.244 194.506C107.518 189.486 106.764 181.076 105.984 169.276C105.058 155.269 103.391 141.286 100.984 127.326C100.95 127.134 100.993 126.936 101.106 126.775C101.218 126.614 101.39 126.503 101.584 126.466L111.864 124.496Z" fill="#FF7760"/>
<path d="M71.3141 135.746C54.4641 143.696 37.5241 151.256 19.6341 156.516C16.2674 157.502 12.2774 157.382 7.66406 156.156C16.0174 151.916 24.4607 147.889 32.9941 144.076C43.8941 139.206 53.9941 133.076 64.6741 127.586C64.83 127.505 65.0008 127.458 65.176 127.446C65.3512 127.433 65.5272 127.457 65.6935 127.515C65.8598 127.573 66.0129 127.664 66.1436 127.783C66.2743 127.901 66.38 128.045 66.4541 128.206C67.7341 131.026 69.3541 133.539 71.3141 135.746Z" fill="#FF806B"/>
</svg>
