<svg width="178" height="251" viewBox="0 0 178 251" fill="none" xmlns="http://www.w3.org/2000/svg">
<path d="M60.1719 64.5234C67.9719 60.0034 72.5219 52.4334 66.6719 44.0234" stroke="#8D94AE" stroke-width="2"/>
<path d="M66.6742 44.0224C67.6942 40.7824 67.2441 37.7424 65.3241 34.9024C60.5441 27.8424 51.9841 24.2224 44.4041 29.6924C39.8441 32.9857 38.0908 37.2357 39.1441 42.4424" stroke="#FEE8A1" stroke-width="2"/>
<path d="M39.1442 42.4434C35.9775 54.9367 40.3342 62.6434 52.2142 65.5634" stroke="#8D94AE" stroke-width="2"/>
<path d="M52.212 65.5626C52.622 68.8826 52.732 73.7025 49.522 75.8025C44.742 78.9425 40.1919 78.4825 35.1819 75.5425C26.2019 70.2525 17.762 62.8626 10.402 55.3126C9.77436 54.6664 9.42903 53.7995 9.44195 52.9025C9.68195 41.1325 9.70197 29.3325 9.90197 17.5225C9.98864 12.2492 9.74861 7.49256 9.18194 3.25256C8.98861 1.80589 8.18196 1.48587 6.76196 2.29253C6.4985 2.44052 6.29491 2.69768 6.19195 3.01254C3.90195 10.0925 3.81194 16.3626 3.37194 23.6626C2.83194 32.6292 2.33863 41.6025 1.89196 50.5825C1.57196 56.9025 1.97198 61.5025 5.84198 65.1425C13.442 72.2892 23.0886 80.8725 34.782 90.8925C36.382 92.2725 39.012 94.9426 39.322 96.5026C41.222 106.216 43.5919 115.806 46.4319 125.273C47.4519 128.686 49.0586 131.769 51.2519 134.523" stroke="#BCE8DB" stroke-width="2"/>
<path d="M51.2539 134.523C51.4606 142.977 52.5439 151.31 54.5039 159.523" stroke="#8D94AE" stroke-width="2"/>
<path d="M54.5039 159.523L54.924 161.273" stroke="#BABDD0" stroke-width="2"/>
<path d="M54.9219 161.273C60.2919 181.423 67.3119 195.473 77.7119 219.063" stroke="#8D94AE" stroke-width="2"/>
<path d="M77.7148 219.062C80.9682 227.849 84.0815 236.689 87.0549 245.582C87.8949 248.112 90.1849 250.432 92.7949 248.592C95.0749 246.982 94.6548 243.942 94.2648 241.462C92.7248 231.662 90.4215 222.419 87.3549 213.732" stroke="#FBB1A5" stroke-width="2"/>
<path d="M87.3543 213.733C84.6277 207.56 82.001 201.363 79.4743 195.143C77.661 190.676 76.781 186.97 76.8343 184.023C77.101 168.883 79.2843 154.073 83.3843 139.593C83.4467 139.374 83.5923 139.188 83.7913 139.073C83.9903 138.958 84.2275 138.922 84.4543 138.973L108.464 144.313" stroke="#8D94AE" stroke-width="2"/>
<path d="M108.465 144.312C112.225 145.223 117.035 146.253 119.735 149.233C126.375 156.553 132.265 164.492 138.675 172.022" stroke="#9BA0B6" stroke-width="2"/>
<path d="M138.672 172.023L146.922 181.023" stroke="#8D94AE" stroke-width="2"/>
<path d="M146.922 181.023C151.072 184.843 168.162 198.993 173.412 198.193C178.512 197.423 175.872 193.233 173.842 190.953C168.029 184.42 161.915 178.193 155.502 172.273" stroke="#FAB4A8" stroke-width="2"/>
<path d="M155.502 172.273L138.172 150.023" stroke="#8D94AE" stroke-width="2"/>
<path d="M138.174 150.023C130.947 142.023 122.474 135.69 112.754 131.023" stroke="#A3A8BC" stroke-width="2"/>
<path d="M112.755 131.022C105.001 126.422 97.6548 121.242 90.7148 115.482" stroke="#9BA0B6" stroke-width="2"/>
<path d="M90.7142 115.483C79.9842 103.453 71.6142 95.2431 66.7342 85.7731C66.0609 84.4664 66.2975 83.3531 67.4441 82.4331C78.9175 73.3064 89.6641 64.4865 99.6841 55.9731C105.074 51.3931 110.344 47.3531 108.754 40.5131C106.374 30.3264 103.578 20.2564 100.364 10.3031C99.4842 7.56311 98.8641 5.10312 97.3841 2.56312C96.2641 0.629783 95.2075 0.663122 94.2142 2.66312C91.1842 8.72312 98.0642 32.0131 100.034 39.7231C100.448 41.3431 100.011 42.6831 98.7242 43.7431C88.6108 52.0698 78.2809 60.5931 67.7342 69.3131C66.8409 70.0531 65.0075 71.0731 62.2342 72.3731C62.1077 72.4317 61.9649 72.4427 61.8336 72.4039C61.7022 72.365 61.5919 72.2792 61.5242 72.1631C60.0708 69.7498 59.6209 67.2031 60.1742 64.5231" stroke="#BCE8DB" stroke-width="2"/>
<path d="M90.7119 115.482L89.9219 116.772" stroke="#578992" stroke-width="2"/>
<path d="M89.924 116.773H89.7539" stroke="#497D8A" stroke-width="2"/>
<path d="M89.7523 116.773C89.3456 115.593 88.5989 115.363 87.5123 116.083C80.2389 120.91 72.969 124.996 65.7023 128.343C65.5401 128.418 65.3989 128.518 65.2897 128.636C65.1804 128.754 65.106 128.886 65.0723 129.023C64.9456 129.516 65.0056 130.016 65.2523 130.523" stroke="#7DD4BD" stroke-width="2"/>
<path d="M65.2539 130.523C60.7272 132.33 56.0606 133.663 51.2539 134.523" stroke="#497D8A" stroke-width="2"/>
<path d="M52.2148 65.5634C54.9215 65.6234 57.5749 65.2768 60.1749 64.5234" stroke="#497D8A" stroke-width="2"/>
<path d="M112.754 131.023C112.014 132.51 112.324 133.633 113.684 134.393" stroke="#3F4973" stroke-width="2"/>
<path d="M113.684 134.393C114.404 136.466 115.8 137.216 117.874 136.643" stroke="#565D86" stroke-width="2"/>
<path d="M117.875 136.643C118.822 137.436 119.965 137.849 121.305 137.883C121.691 137.889 122.036 138.01 122.275 138.223L126.125 141.623C126.251 141.737 126.348 141.88 126.407 142.038C126.467 142.196 126.486 142.366 126.465 142.533C126.185 144.626 127.108 145.709 129.235 145.783C129.344 145.786 129.453 145.802 129.555 145.832C129.656 145.861 129.747 145.901 129.82 145.951C129.893 146 129.947 146.056 129.977 146.115C130.008 146.175 130.014 146.235 129.995 146.293C129.822 146.826 129.495 147.253 129.015 147.573C128.902 147.649 128.816 147.758 128.769 147.884C128.722 148.009 128.717 148.146 128.755 148.273C129.382 150.359 128.788 151.943 126.975 153.023C126.931 153.049 126.895 153.085 126.868 153.128C126.841 153.172 126.825 153.222 126.82 153.275C126.815 153.327 126.822 153.381 126.84 153.433C126.859 153.485 126.887 153.532 126.925 153.573C127.345 154.033 134.495 153.843 132.575 156.223C132.503 156.31 132.382 156.356 132.236 156.352C132.09 156.348 131.93 156.295 131.785 156.203L129.965 155.023C129.859 154.956 129.714 154.935 129.549 154.964C129.385 154.992 129.209 155.069 129.045 155.183C127.725 156.133 129.505 159.453 131.655 157.903C131.823 157.781 131.991 157.687 132.145 157.628C132.3 157.569 132.437 157.547 132.545 157.563C134.385 157.803 129.785 161.223 133.635 163.353C133.689 163.383 133.749 163.401 133.812 163.406C133.874 163.411 133.938 163.403 133.999 163.383C134.061 163.362 134.118 163.33 134.169 163.287C134.22 163.244 134.263 163.191 134.295 163.133C135.102 161.739 136.325 161.439 137.965 162.233" stroke="#3F4973" stroke-width="2"/>
<path d="M137.965 162.232L140.305 166.572C140.337 166.632 140.382 166.685 140.436 166.726C140.489 166.768 140.55 166.796 140.611 166.809C140.673 166.822 140.734 166.819 140.789 166.8C140.843 166.782 140.89 166.748 140.925 166.702C141.605 165.769 142.418 165.656 143.365 166.362C143.477 166.445 143.558 166.569 143.599 166.717C143.641 166.865 143.639 167.031 143.595 167.192C143.128 168.986 142.005 170.096 140.225 170.522C139.818 170.62 139.489 170.786 139.295 170.992C139.008 171.306 138.802 171.649 138.675 172.022" stroke="#283465" stroke-width="2"/>
<path d="M108.465 144.313L109.095 141.623" stroke="#283465" stroke-width="2"/>
<path d="M109.094 141.623C110.321 139.49 109.707 138.29 107.254 138.023" stroke="#565D86" stroke-width="2"/>
<path d="M107.252 138.023C105.778 135.957 106.015 134.437 107.962 133.463C108.062 133.414 108.156 133.354 108.239 133.288C108.321 133.222 108.391 133.151 108.443 133.079C108.495 133.008 108.529 132.936 108.543 132.87C108.556 132.804 108.549 132.744 108.522 132.693C108.069 131.813 107.279 131.483 106.152 131.703C106.034 131.723 105.905 131.694 105.781 131.618C105.658 131.543 105.546 131.426 105.462 131.283C104.789 130.123 103.885 129.193 102.752 128.493C102.65 128.432 102.548 128.317 102.454 128.157C102.36 127.998 102.277 127.798 102.212 127.573C101.525 125.18 100.385 124.977 98.7919 126.963C98.6848 127.096 98.5461 127.197 98.3872 127.261C98.2283 127.324 98.0538 127.347 97.8779 127.327C97.7021 127.308 97.5301 127.246 97.376 127.148C97.222 127.05 97.0903 126.918 96.9919 126.763C95.9052 125.017 94.5685 123.51 92.9819 122.243C90.8319 120.533 90.5919 119.223 89.9219 116.773" stroke="#283465" stroke-width="2"/>
<path d="M89.7539 116.773C82.3806 122.767 74.2139 127.35 65.2539 130.523" stroke="#4E8090" stroke-width="2"/>
<path d="M107.254 138.023C107.241 139.417 107.854 140.617 109.094 141.623" stroke="#48517F" stroke-width="2"/>
<path d="M87.3549 213.732L77.7148 219.062" stroke="#884654" stroke-width="2"/>
<path d="M54.924 161.274C58.584 159.527 58.4439 158.944 54.5039 159.524" stroke="#48517F" stroke-width="2"/>
<path d="M66.6746 44.0225C57.9346 37.7891 48.7579 37.2625 39.1445 42.4425" stroke="#8C7C50" stroke-width="2"/>
<path d="M155.502 172.273L147.802 178.913C147.58 179.102 147.41 179.381 147.312 179.713L146.922 181.023" stroke="#874857" stroke-width="2"/>
<path d="M138.173 150.023L134.303 156.763C134.228 156.897 134.183 157.045 134.171 157.199C134.159 157.352 134.181 157.508 134.235 157.655C134.289 157.802 134.373 157.938 134.483 158.053C134.593 158.168 134.726 158.26 134.873 158.323C136.64 159.07 137.67 160.373 137.963 162.233" stroke="#313D6B" stroke-width="2"/>
<path d="M117.874 136.643C116.98 134.93 115.584 134.18 113.684 134.393" stroke="#5E668D" stroke-width="2"/>
<path d="M64.9439 47.5262C65.0218 47.4356 65.0625 47.3146 65.0636 47.1699C65.0648 47.0252 65.0263 46.8598 64.9505 46.6832C64.8746 46.5065 64.7629 46.3219 64.6216 46.1401C64.4803 45.9583 64.3123 45.7827 64.1272 45.6234C63.7532 45.3018 63.332 45.066 62.9563 44.9679C62.5805 44.8698 62.2811 44.9175 62.1237 45.1004C62.0458 45.191 62.0051 45.3121 62.0039 45.4568C62.0028 45.6014 62.0413 45.7668 62.1171 45.9435C62.1929 46.1202 62.3046 46.3047 62.4459 46.4866C62.5871 46.6684 62.7552 46.8439 62.9404 47.0032C63.3144 47.3249 63.7355 47.5607 64.1112 47.6588C64.487 47.7569 64.7865 47.7092 64.9439 47.5262Z" stroke="#48517F" stroke-width="2"/>
<path d="M55.2647 155.393C57.9147 155.753 54.5848 153.703 54.7948 154.983C54.8131 155.085 54.8684 155.18 54.9528 155.253C55.0372 155.327 55.1463 155.376 55.2647 155.393Z" stroke="#48517F" stroke-width="2"/>
<path d="M60.0427 156.213L58.9727 155.263C58.6727 154.996 58.516 155.183 58.5027 155.823C58.4627 157.776 58.8694 158.247 59.7227 157.233C59.8898 157.035 60.0169 156.817 60.0767 156.626C60.1366 156.435 60.1243 156.287 60.0427 156.213Z" stroke="#374373" stroke-width="2"/>
<path d="M61.2011 162.65C61.3099 162.566 61.3062 162.345 61.1907 162.038C61.0753 161.731 60.8575 161.363 60.5855 161.013C60.3134 160.664 60.0092 160.362 59.7399 160.175C59.4706 159.988 59.2581 159.93 59.1493 160.015C59.0405 160.099 59.0443 160.32 59.1597 160.627C59.2752 160.934 59.4928 161.302 59.7649 161.652C60.0369 162.001 60.3411 162.303 60.6104 162.49C60.8798 162.677 61.0923 162.735 61.2011 162.65Z" stroke="#313D6B" stroke-width="2"/>
<path d="M61.2555 169.373C61.205 169.377 61.158 169.396 61.1183 169.43C61.0785 169.464 61.0473 169.51 61.0268 169.567C61.0064 169.623 60.9974 169.688 61.0006 169.755C61.0039 169.822 61.0193 169.89 61.0455 169.953C61.3722 170.72 61.9221 171.256 62.6955 171.563C62.7758 171.596 62.8632 171.607 62.9492 171.596C63.0352 171.586 63.1171 171.554 63.1872 171.503C63.2572 171.451 63.3131 171.383 63.3496 171.305C63.386 171.226 63.4018 171.139 63.3955 171.053C63.3088 169.806 62.5955 169.246 61.2555 169.373Z" stroke="#313D6B" stroke-width="2"/>
<path d="M90.7159 115.483L89.9259 116.773H89.7559C89.3492 115.593 88.6025 115.363 87.5159 116.083C80.2425 120.91 72.9725 124.996 65.7059 128.343C65.5437 128.418 65.4025 128.518 65.2933 128.636C65.184 128.754 65.1096 128.886 65.0759 129.023C64.9492 129.516 65.0092 130.016 65.2559 130.523C60.7292 132.33 56.0625 133.663 51.2559 134.523C49.0625 131.77 47.4558 128.686 46.4358 125.273C43.5958 115.806 41.2259 106.216 39.3259 96.5031C39.0159 94.9431 36.3859 92.2731 34.7859 90.8931C23.0926 80.8731 13.4459 72.2898 5.84588 65.1431C1.97588 61.5031 1.57587 56.9031 1.89587 50.5831C2.34254 41.6031 2.83585 32.6298 3.37585 23.6631C3.81585 16.3631 3.90586 10.0931 6.19586 3.0131C6.29882 2.69824 6.50241 2.44108 6.76586 2.2931C8.18586 1.48643 8.99251 1.80645 9.18585 3.25312C9.75251 7.49312 9.99255 12.2498 9.90588 17.5231C9.70588 29.3331 9.68586 41.1331 9.44586 52.9031C9.43293 53.8001 9.77827 54.6669 10.4059 55.3131C17.7659 62.8631 26.2058 70.2531 35.1858 75.5431C40.1958 78.4831 44.7459 78.9431 49.5259 75.8031C52.7359 73.7031 52.6259 68.8831 52.2159 65.5631C54.9225 65.6231 57.5759 65.2764 60.1759 64.5231C59.6226 67.2031 60.0725 69.7498 61.5259 72.1631C61.5937 72.2792 61.704 72.365 61.8353 72.4039C61.9666 72.4427 62.1094 72.4317 62.2359 72.3731C65.0092 71.0731 66.8426 70.0531 67.7359 69.3131C78.2826 60.5931 88.6125 52.0698 98.7259 43.7431C100.013 42.6831 100.449 41.3431 100.036 39.7231C98.0659 32.0131 91.1859 8.72312 94.2159 2.66312C95.2092 0.663122 96.2659 0.629783 97.3859 2.56312C98.8659 5.10312 99.4859 7.56311 100.366 10.3031C103.579 20.2564 106.376 30.3264 108.756 40.5131C110.346 47.3531 105.076 51.3931 99.6858 55.9731C89.6658 64.4865 78.9192 73.3064 67.4459 82.4331C66.2992 83.3531 66.0626 84.4664 66.7359 85.7731C71.6159 95.2431 79.9859 103.453 90.7159 115.483Z" fill="#78D1B7"/>
<path d="M66.6742 44.0224C57.9342 37.789 48.7575 37.2624 39.1441 42.4424C38.0908 37.2357 39.8441 32.9857 44.4041 29.6924C51.9841 24.2224 60.5441 27.8424 65.3241 34.9024C67.2441 37.7424 67.6942 40.7824 66.6742 44.0224Z" fill="#FDD043"/>
<path d="M66.6742 44.0225C72.5242 52.4325 67.9742 60.0025 60.1742 64.5225C57.5742 65.2758 54.9209 65.6225 52.2142 65.5625C40.3342 62.6425 35.9775 54.9358 39.1442 42.4425C48.7575 37.2625 57.9342 37.7891 66.6742 44.0225ZM64.9443 47.5254C65.0222 47.4348 65.0629 47.3137 65.0641 47.169C65.0652 47.0244 65.0267 46.859 64.9509 46.6823C64.8751 46.5056 64.7633 46.321 64.622 46.1392C64.4808 45.9574 64.3128 45.7818 64.1276 45.6226C63.7536 45.3009 63.3324 45.0651 62.9567 44.967C62.581 44.8689 62.2815 44.9166 62.1241 45.0995C62.0462 45.1901 62.0055 45.3112 62.0044 45.4559C62.0032 45.6006 62.0417 45.7659 62.1175 45.9426C62.1934 46.1193 62.3051 46.3039 62.4463 46.4857C62.5876 46.6675 62.7556 46.8431 62.9408 47.0024C63.3148 47.324 63.7359 47.5598 64.1117 47.6579C64.4874 47.756 64.7869 47.7083 64.9443 47.5254Z" fill="#1A285D"/>
<path d="M62.9421 47.0029C63.7209 47.6727 64.6179 47.9069 64.9456 47.5259C65.2733 47.1448 64.9077 46.2929 64.1289 45.6231C63.3501 44.9532 62.4531 44.719 62.1253 45.1001C61.7976 45.4811 62.1633 46.333 62.9421 47.0029Z" fill="#757AA0"/>
<path d="M90.7158 115.482C97.6558 121.242 105.002 126.422 112.756 131.022C112.016 132.509 112.326 133.632 113.686 134.392C114.406 136.466 115.802 137.216 117.876 136.642C118.822 137.436 119.966 137.849 121.306 137.882C121.692 137.889 122.037 138.01 122.276 138.222L126.126 141.622C126.252 141.737 126.349 141.879 126.408 142.038C126.467 142.196 126.487 142.366 126.466 142.532C126.186 144.626 127.109 145.709 129.236 145.782C129.345 145.786 129.454 145.802 129.555 145.831C129.657 145.86 129.747 145.901 129.821 145.95C129.894 146 129.948 146.056 129.978 146.115C130.008 146.174 130.015 146.235 129.996 146.292C129.822 146.826 129.496 147.252 129.016 147.572C128.903 147.649 128.816 147.757 128.77 147.883C128.723 148.009 128.718 148.146 128.756 148.272C129.382 150.359 128.789 151.942 126.976 153.022C126.932 153.048 126.896 153.085 126.869 153.128C126.842 153.172 126.826 153.222 126.821 153.274C126.816 153.327 126.823 153.381 126.841 153.433C126.859 153.484 126.888 153.532 126.926 153.572C127.346 154.032 134.496 153.842 132.576 156.222C132.503 156.31 132.383 156.356 132.237 156.352C132.091 156.348 131.931 156.295 131.786 156.202L129.966 155.022C129.86 154.955 129.715 154.935 129.55 154.963C129.386 154.992 129.21 155.068 129.046 155.182C127.726 156.132 129.506 159.452 131.656 157.902C131.824 157.781 131.992 157.687 132.146 157.628C132.301 157.569 132.438 157.546 132.546 157.562C134.386 157.802 129.786 161.222 133.636 163.352C133.69 163.383 133.75 163.401 133.812 163.406C133.875 163.411 133.939 163.403 134 163.383C134.061 163.362 134.119 163.33 134.17 163.287C134.221 163.244 134.263 163.191 134.296 163.132C135.102 161.739 136.326 161.439 137.966 162.232L140.306 166.572C140.338 166.632 140.383 166.685 140.437 166.726C140.49 166.768 140.551 166.796 140.612 166.809C140.674 166.822 140.735 166.819 140.79 166.8C140.844 166.782 140.891 166.748 140.926 166.702C141.606 165.769 142.419 165.656 143.366 166.362C143.477 166.445 143.559 166.569 143.6 166.717C143.641 166.865 143.64 167.031 143.596 167.192C143.129 168.986 142.006 170.096 140.226 170.522C139.819 170.62 139.49 170.786 139.296 170.992C139.009 171.306 138.802 171.649 138.676 172.022C132.266 164.492 126.376 156.552 119.736 149.232C117.036 146.252 112.226 145.222 108.466 144.312L109.096 141.622C110.322 139.489 109.709 138.289 107.256 138.022C105.782 135.956 106.019 134.436 107.966 133.462C108.066 133.413 108.16 133.353 108.243 133.287C108.325 133.221 108.395 133.15 108.447 133.078C108.499 133.007 108.533 132.935 108.546 132.869C108.56 132.803 108.553 132.743 108.526 132.692C108.072 131.812 107.282 131.482 106.156 131.702C106.038 131.722 105.909 131.693 105.785 131.617C105.662 131.542 105.55 131.425 105.466 131.282C104.792 130.122 103.889 129.192 102.756 128.492C102.654 128.431 102.552 128.316 102.458 128.156C102.364 127.997 102.281 127.797 102.216 127.572C101.529 125.179 100.389 124.976 98.7958 126.962C98.6887 127.095 98.55 127.196 98.3911 127.26C98.2322 127.323 98.0577 127.346 97.8818 127.326C97.706 127.307 97.534 127.245 97.3799 127.147C97.2259 127.049 97.0942 126.917 96.9958 126.762C95.9091 125.016 94.5724 123.509 92.9858 122.242C90.8358 120.532 90.5958 119.222 89.9258 116.772L90.7158 115.482Z" fill="#36406C"/>
<path d="M89.7562 116.773C82.3828 122.766 74.2162 127.35 65.2562 130.523C65.0095 130.016 64.9495 129.516 65.0762 129.023C65.1099 128.886 65.1843 128.754 65.2936 128.636C65.4029 128.518 65.544 128.418 65.7062 128.343C72.9729 124.996 80.2429 120.91 87.5162 116.083C88.6029 115.363 89.3495 115.593 89.7562 116.773Z" fill="#82D7C2"/>
<path d="M89.7539 116.773H89.924C90.5939 119.223 90.8339 120.533 92.9839 122.243C94.5706 123.51 95.9073 125.017 96.994 126.763C97.0924 126.918 97.224 127.05 97.3781 127.148C97.5322 127.246 97.7042 127.308 97.88 127.327C98.0558 127.347 98.2304 127.324 98.3893 127.261C98.5482 127.197 98.6869 127.096 98.7939 126.963C100.387 124.977 101.527 125.18 102.214 127.573C102.279 127.798 102.362 127.998 102.456 128.157C102.55 128.317 102.652 128.432 102.754 128.493C103.887 129.193 104.791 130.123 105.464 131.283C105.548 131.426 105.66 131.543 105.783 131.618C105.907 131.694 106.036 131.723 106.154 131.703C107.281 131.483 108.071 131.813 108.524 132.693C108.551 132.744 108.558 132.804 108.545 132.87C108.531 132.937 108.497 133.008 108.445 133.079C108.393 133.151 108.323 133.222 108.241 133.288C108.158 133.354 108.064 133.414 107.964 133.463C106.017 134.437 105.781 135.957 107.254 138.023C107.241 139.417 107.854 140.617 109.094 141.623L108.464 144.313L84.4539 138.973C84.2271 138.922 83.9899 138.958 83.7909 139.073C83.5919 139.189 83.4463 139.375 83.3839 139.593C79.2839 154.073 77.1006 168.883 76.8339 184.023C76.7806 186.97 77.6606 190.677 79.4739 195.143C82.0006 201.363 84.6273 207.56 87.3539 213.733L77.7139 219.063C67.3139 195.473 60.294 181.423 54.924 161.273C58.584 159.527 58.4439 158.943 54.5039 159.523C52.5439 151.31 51.4606 142.977 51.2539 134.523C56.0606 133.663 60.7272 132.33 65.2539 130.523C74.2139 127.35 82.3806 122.767 89.7539 116.773ZM55.2639 155.393C57.9139 155.753 54.5839 153.703 54.7939 154.983C54.8123 155.085 54.8676 155.18 54.952 155.254C55.0364 155.327 55.1455 155.376 55.2639 155.393ZM60.0439 156.213L58.9739 155.263C58.6739 154.997 58.5172 155.183 58.5039 155.823C58.4639 157.777 58.8706 158.247 59.7239 157.233C59.891 157.035 60.0181 156.817 60.0779 156.626C60.1378 156.436 60.1256 156.287 60.0439 156.213ZM61.1998 162.651C61.3086 162.566 61.3049 162.346 61.1895 162.039C61.074 161.732 60.8563 161.364 60.5842 161.014C60.3122 160.665 60.008 160.363 59.7386 160.176C59.4693 159.989 59.2568 159.931 59.148 160.016C59.0392 160.1 59.043 160.32 59.1584 160.628C59.2739 160.935 59.4915 161.303 59.7636 161.653C60.0357 162.002 60.3399 162.304 60.6092 162.491C60.8785 162.678 61.091 162.736 61.1998 162.651ZM61.2539 169.373C61.2034 169.377 61.1564 169.397 61.1167 169.43C61.077 169.464 61.0457 169.511 61.0253 169.567C61.0048 169.624 60.9958 169.688 60.9991 169.755C61.0023 169.822 61.0177 169.89 61.0439 169.953C61.3706 170.72 61.9206 171.257 62.6939 171.563C62.7743 171.596 62.8616 171.607 62.9476 171.597C63.0337 171.586 63.1156 171.554 63.1856 171.503C63.2557 171.452 63.3116 171.384 63.348 171.305C63.3845 171.227 63.4003 171.14 63.3939 171.053C63.3073 169.807 62.5939 169.247 61.2539 169.373Z" fill="#1A285D"/>
<path d="M112.754 131.023C122.474 135.69 130.948 142.023 138.174 150.023L134.304 156.763C134.229 156.897 134.184 157.045 134.172 157.199C134.16 157.352 134.182 157.508 134.236 157.655C134.29 157.802 134.374 157.938 134.484 158.053C134.594 158.168 134.727 158.26 134.874 158.323C136.641 159.07 137.671 160.373 137.964 162.233C136.324 161.44 135.101 161.74 134.294 163.133C134.262 163.192 134.219 163.245 134.169 163.288C134.118 163.331 134.06 163.363 133.999 163.384C133.937 163.404 133.874 163.412 133.811 163.407C133.749 163.402 133.689 163.384 133.634 163.353C129.784 161.223 134.384 157.803 132.544 157.563C132.436 157.547 132.299 157.57 132.145 157.629C131.99 157.688 131.822 157.782 131.654 157.903C129.504 159.453 127.724 156.133 129.044 155.183C129.208 155.069 129.384 154.993 129.549 154.964C129.713 154.936 129.858 154.956 129.964 155.023L131.784 156.203C131.929 156.296 132.09 156.349 132.236 156.353C132.381 156.357 132.502 156.311 132.574 156.223C134.494 153.843 127.344 154.033 126.924 153.573C126.887 153.533 126.858 153.485 126.84 153.434C126.822 153.382 126.815 153.328 126.82 153.275C126.824 153.223 126.841 153.173 126.868 153.129C126.894 153.086 126.931 153.049 126.974 153.023C128.788 151.943 129.381 150.36 128.754 148.273C128.717 148.147 128.721 148.01 128.768 147.884C128.815 147.758 128.901 147.65 129.014 147.573C129.494 147.253 129.821 146.827 129.994 146.293C130.013 146.236 130.007 146.175 129.977 146.116C129.946 146.057 129.893 146.001 129.819 145.951C129.746 145.902 129.655 145.861 129.554 145.832C129.453 145.803 129.343 145.787 129.234 145.783C127.108 145.71 126.184 144.627 126.464 142.533C126.486 142.367 126.466 142.197 126.407 142.039C126.348 141.88 126.251 141.738 126.124 141.623L122.274 138.223C122.036 138.011 121.691 137.89 121.304 137.883C119.964 137.85 118.821 137.437 117.874 136.643C116.981 134.93 115.584 134.18 113.684 134.393C112.324 133.633 112.014 132.51 112.754 131.023Z" fill="#475179"/>
<path d="M117.874 136.643C115.8 137.216 114.404 136.466 113.684 134.393C115.584 134.18 116.98 134.93 117.874 136.643Z" fill="#757AA0"/>
<path d="M107.254 138.023C109.707 138.29 110.321 139.49 109.094 141.623C107.854 140.617 107.241 139.417 107.254 138.023Z" fill="#757AA0"/>
<path d="M138.173 150.023L155.503 172.273L147.803 178.913C147.582 179.102 147.411 179.381 147.313 179.713L146.923 181.023L138.673 172.023C138.8 171.65 139.007 171.307 139.293 170.993C139.488 170.787 139.816 170.621 140.223 170.523C142.003 170.097 143.127 168.987 143.593 167.193C143.637 167.032 143.639 166.866 143.598 166.718C143.557 166.57 143.475 166.446 143.363 166.363C142.417 165.657 141.603 165.77 140.923 166.703C140.889 166.749 140.842 166.783 140.787 166.801C140.732 166.82 140.672 166.823 140.61 166.81C140.548 166.797 140.488 166.769 140.434 166.727C140.381 166.686 140.336 166.633 140.303 166.573L137.963 162.233C137.67 160.373 136.64 159.07 134.873 158.323C134.726 158.26 134.593 158.168 134.483 158.053C134.373 157.938 134.289 157.802 134.235 157.655C134.181 157.508 134.159 157.352 134.171 157.199C134.183 157.045 134.228 156.897 134.303 156.763L138.173 150.023Z" fill="#1A285D"/>
<path d="M54.7948 154.982C54.5848 153.702 57.9147 155.752 55.2647 155.392C55.1463 155.375 55.0372 155.326 54.9528 155.252C54.8684 155.179 54.8131 155.084 54.7948 154.982Z" fill="#757AA0"/>
<path d="M59.7266 157.232C58.8733 158.246 58.4666 157.776 58.5066 155.822C58.5199 155.182 58.6766 154.996 58.9766 155.262L60.0466 156.212C60.1283 156.286 60.1405 156.434 60.0806 156.625C60.0208 156.816 59.8937 157.034 59.7266 157.232Z" fill="#535E88"/>
<path d="M54.924 161.274L54.5039 159.524C58.4439 158.944 58.584 159.527 54.924 161.274Z" fill="#757AA0"/>
<path d="M59.7638 161.652C60.3304 162.38 60.9734 162.827 61.2 162.65C61.4266 162.474 61.151 161.741 60.5844 161.013C60.0179 160.285 59.3749 159.838 59.1483 160.015C58.9217 160.191 59.1972 160.924 59.7638 161.652Z" fill="#475179"/>
<path d="M61.2555 169.373C62.5955 169.246 63.3088 169.806 63.3955 171.053C63.4018 171.139 63.386 171.226 63.3496 171.305C63.3131 171.383 63.2572 171.451 63.1872 171.503C63.1171 171.554 63.0352 171.586 62.9492 171.596C62.8632 171.607 62.7758 171.596 62.6955 171.563C61.9221 171.256 61.3722 170.72 61.0455 169.953C61.0193 169.89 61.0039 169.822 61.0006 169.755C60.9974 169.688 61.0064 169.623 61.0268 169.567C61.0473 169.51 61.0785 169.464 61.1183 169.43C61.158 169.396 61.205 169.377 61.2555 169.373Z" fill="#475179"/>
<path d="M155.506 172.273C161.919 178.193 168.032 184.42 173.846 190.953C175.876 193.233 178.516 197.423 173.416 198.193C168.166 198.993 151.076 184.843 146.926 181.023L147.316 179.713C147.413 179.381 147.584 179.102 147.806 178.913L155.506 172.273Z" fill="#F46851"/>
<path d="M87.3549 213.732C90.4215 222.419 92.7248 231.662 94.2648 241.462C94.6548 243.942 95.0749 246.982 92.7949 248.592C90.1849 250.432 87.8949 248.112 87.0549 245.582C84.0815 236.689 80.9682 227.849 77.7148 219.062L87.3549 213.732Z" fill="#F6634A"/>
</svg>
