<svg width="213" height="80" viewBox="0 0 213 80" fill="none" xmlns="http://www.w3.org/2000/svg">
<path d="M63.2266 75.9532C83.8866 80.0332 109.167 78.7432 129.307 75.8232" stroke="#8E8D90" stroke-width="2"/>
<path d="M129.305 75.8231C138.525 75.1831 147.608 73.5598 156.555 70.9531" stroke="#9C9EA6" stroke-width="2"/>
<path d="M156.555 70.9531C178.265 65.7031 196.475 46.2231 210.645 32.4431C211.925 31.2031 212.235 29.7831 209.515 30.2331C194.805 32.6831 181.355 30.2431 166.585 24.8831C146.195 17.4931 126.545 8.31311 104.465 4.68311" stroke="#858789" stroke-width="2"/>
<path d="M104.465 4.68313C94.1046 2.15646 83.2846 0.929769 72.0046 1.0031C49.9746 1.1431 26.9746 3.6631 6.77464 12.4731C4.12798 13.6331 2.23799 15.4798 1.10466 18.0131C0.976368 18.3086 0.96562 18.6445 1.07463 18.9531C6.27463 33.4464 13.9646 46.4864 24.1446 58.0731C33.6146 68.8631 48.7346 74.2231 63.2246 75.9531" stroke="#9C9EA6" stroke-width="2"/>
<path d="M104.465 4.68311C110.625 6.83644 116.822 8.86975 123.055 10.7831C147.145 18.1531 169.545 29.4131 194.775 32.9431C196.542 33.1898 200.548 33.0264 206.795 32.4531C206.967 32.4382 207.134 32.4644 207.277 32.5284C207.419 32.5925 207.53 32.6915 207.595 32.8131C207.862 33.3064 207.692 33.7964 207.085 34.2831C198.855 40.8231 191.415 48.9531 183.855 55.1031C175.335 62.0431 169.275 64.9431 157.745 69.3931C157.132 69.6331 156.735 70.1531 156.555 70.9531" stroke="#23283B" stroke-width="2"/>
<path d="M129.307 75.8228C126.047 74.6562 122.777 74.5028 119.497 75.3628C117.67 75.8428 116.103 76.0862 114.797 76.0928C104.327 76.1728 95.3966 76.6428 79.6366 76.4628C74.5066 76.4028 70.2566 75.8828 65.5166 74.8928C64.4033 74.6662 63.6399 75.0195 63.2266 75.9528" stroke="#2C2E43" stroke-width="2"/>
<path d="M83.6975 15.1185C83.7059 14.9145 82.8708 14.6834 81.376 14.4763C79.8812 14.2691 77.8491 14.1027 75.7266 14.0138C73.6041 13.9248 71.5652 13.9206 70.0583 14.0019C68.5514 14.0833 67.7 14.2436 67.6915 14.4477C67.6831 14.6517 68.5181 14.8827 70.0129 15.0899C71.5077 15.2971 73.5399 15.4634 75.6623 15.5524C77.7848 15.6413 79.8237 15.6456 81.3306 15.5642C82.8375 15.4829 83.6889 15.3225 83.6975 15.1185Z" stroke="#71758A" stroke-width="2"/>
<path d="M52.6438 26.3038C51.6885 22.812 49.186 19.8971 45.6869 18.2004C42.1877 16.5038 37.9784 16.1643 33.9851 17.2567C29.9918 18.3492 26.5416 20.784 24.3934 24.0257C22.2452 27.2673 21.5751 31.0502 22.5304 34.5421C23.4857 38.0339 25.9881 40.9488 29.4873 42.6455C32.9864 44.3421 37.1956 44.6816 41.1889 43.5891C45.1822 42.4967 48.6325 40.0618 50.7807 36.8202C52.9289 33.5786 53.5991 29.7957 52.6438 26.3038Z" stroke="#999BA4" stroke-width="2"/>
<path d="M61.0668 29.8033C74.7735 30.3766 83.7568 30.9366 88.0168 31.4833C89.5468 31.6733 89.6467 30.8633 88.5867 30.2733C85.9467 28.8266 83.1368 28.0633 80.1568 27.9833C73.6168 27.8033 67.1269 27.2933 60.5769 27.1633C60.4146 27.1603 60.2564 27.1944 60.1166 27.2625C59.9769 27.3306 59.8601 27.4306 59.7768 27.5533C58.7768 29.0133 59.4768 29.7333 61.0668 29.8033Z" stroke="#89939C" stroke-width="2"/>
<path d="M145.854 35.3481C145.861 35.25 145.69 35.1386 145.349 35.0205C145.008 34.9024 144.504 34.7798 143.866 34.6597C143.228 34.5397 142.468 34.4245 141.631 34.3207C140.793 34.217 139.894 34.1268 138.984 34.0551C137.146 33.9105 135.378 33.8506 134.067 33.8886C132.757 33.9265 132.012 34.0592 131.996 34.2575C131.989 34.3557 132.16 34.4671 132.501 34.5852C132.842 34.7033 133.346 34.8259 133.984 34.946C134.622 35.066 135.381 35.1812 136.219 35.285C137.057 35.3887 137.956 35.4789 138.866 35.5505C140.704 35.6952 142.472 35.7551 143.783 35.7171C145.093 35.6792 145.838 35.5464 145.854 35.3481Z" stroke="#89939C" stroke-width="2"/>
<path d="M168.705 40.2242C168.703 40.1297 168.682 40.0365 168.644 39.95C168.606 39.8634 168.551 39.7853 168.482 39.7199C168.414 39.6546 168.334 39.6034 168.245 39.5692C168.157 39.535 168.063 39.5185 167.969 39.5207L161.59 39.6655C161.399 39.6698 161.218 39.7498 161.086 39.8879C160.954 40.0259 160.883 40.2107 160.887 40.4016L160.889 40.5016C160.891 40.5961 160.912 40.6893 160.95 40.7758C160.988 40.8623 161.043 40.9405 161.112 41.0058C161.18 41.0711 161.26 41.1224 161.349 41.1566C161.437 41.1907 161.531 41.2072 161.625 41.2051L168.004 41.0603C168.195 41.0559 168.376 40.976 168.508 40.8379C168.64 40.6999 168.711 40.5151 168.707 40.3242L168.705 40.2242Z" stroke="#9C9EA6" stroke-width="2"/>
<path d="M125.285 41.2904C125.284 41.1854 125.127 41.083 124.825 40.9891C124.522 40.8952 124.08 40.8116 123.522 40.7431C122.964 40.6747 122.302 40.6227 121.573 40.5901C120.845 40.5575 120.064 40.545 119.276 40.5532C118.489 40.5615 117.709 40.5904 116.981 40.6382C116.254 40.686 115.593 40.7518 115.037 40.832C114.48 40.9121 114.039 41.0049 113.739 41.1051C113.438 41.2053 113.284 41.311 113.285 41.416C113.286 41.5211 113.443 41.6235 113.745 41.7174C114.047 41.8113 114.49 41.8949 115.048 41.9633C115.606 42.0318 116.268 42.0838 116.997 42.1164C117.725 42.149 118.505 42.1615 119.293 42.1533C120.081 42.145 120.861 42.1161 121.589 42.0683C122.316 42.0205 122.977 41.9546 123.533 41.8745C124.09 41.7944 124.531 41.7016 124.831 41.6013C125.132 41.5011 125.286 41.3955 125.285 41.2904Z" stroke="#71758A" stroke-width="2"/>
<path d="M85.0461 42.3681C85.0469 42.2355 84.7266 42.1024 84.1036 41.9766C83.4807 41.8508 82.5672 41.7347 81.4153 41.6349C80.2634 41.5351 78.8958 41.4535 77.3904 41.3949C75.885 41.3362 74.2713 41.3016 72.6416 41.2931C69.3503 41.2759 66.1934 41.3658 63.8651 41.543C61.5368 41.7202 60.228 41.9702 60.2266 42.2381C60.2258 42.3707 60.5461 42.5038 61.1691 42.6296C61.7921 42.7554 62.7056 42.8715 63.8574 42.9713C65.0093 43.0712 66.3769 43.1527 67.8823 43.2113C69.3877 43.27 71.0014 43.3046 72.6311 43.3131C75.9224 43.3303 79.0793 43.2405 81.4076 43.0632C83.7359 42.886 85.0447 42.636 85.0461 42.3681Z" stroke="#858998" stroke-width="2"/>
<path d="M145.128 48.5437C145.117 48.3132 144.413 48.1236 143.169 48.0168C141.925 47.91 140.244 47.8945 138.495 47.974C136.747 48.0534 135.074 48.2211 133.845 48.4402C132.616 48.6593 131.931 48.9119 131.942 49.1424C131.952 49.3729 132.657 49.5625 133.901 49.6693C135.145 49.7761 136.826 49.7915 138.574 49.7121C140.323 49.6327 141.996 49.465 143.225 49.2459C144.454 49.0268 145.138 48.7742 145.128 48.5437Z" stroke="#858998" stroke-width="2"/>
<path d="M168.962 53.5521C168.955 53.356 168.433 53.1859 167.512 53.0792C166.59 52.9726 165.345 52.938 164.049 52.9833C162.753 53.0286 161.512 53.1499 160.601 53.3206C159.689 53.4913 159.181 53.6974 159.188 53.8935C159.195 54.0896 159.716 54.2597 160.637 54.3664C161.559 54.4731 162.804 54.5076 164.1 54.4623C165.397 54.417 166.637 54.2957 167.548 54.125C168.46 53.9543 168.968 53.7483 168.962 53.5521Z" stroke="#7E7D89" stroke-width="2"/>
<path d="M61.5455 57.3029C67.4588 58.0562 73.5154 58.3428 79.7154 58.1628C79.8798 58.1599 80.0374 58.1171 80.17 58.0393C80.3027 57.9615 80.405 57.8518 80.4654 57.7228C82.0354 54.3628 63.2355 56.2829 61.5255 56.5929C59.9588 56.8729 59.9655 57.1095 61.5455 57.3029Z" stroke="#9496A2" stroke-width="2"/>
<path d="M44.9392 27.3722C44.5992 26.4479 44.0507 25.6105 43.3252 24.9078C42.5998 24.2051 41.7115 23.651 40.7111 23.277C39.7107 22.903 38.6178 22.7165 37.4947 22.728C36.3717 22.7396 35.2406 22.9491 34.1659 23.3445C33.0912 23.7399 32.0939 24.3135 31.2312 25.0326C30.3684 25.7516 29.6571 26.602 29.1376 27.5352C28.6182 28.4684 28.3008 29.4661 28.2038 30.4714C28.1067 31.4767 28.2317 32.4699 28.5718 33.3942C28.9119 34.3186 29.4604 35.1559 30.1858 35.8586C30.9113 36.5613 31.7996 37.1154 32.8 37.4894C33.8004 37.8634 34.8933 38.05 36.0163 38.0384C37.1394 38.0268 38.2706 37.8173 39.3452 37.4219C40.4199 37.0265 41.4171 36.4529 42.2799 35.7339C43.1426 35.0148 43.854 34.1645 44.3734 33.2313C44.8929 32.2981 45.2102 31.3003 45.3073 30.295C45.4044 29.2897 45.2793 28.2966 44.9392 27.3722Z" stroke="#8B8A8E" stroke-width="2"/>
<path d="M39.9551 27.9329C37.7751 25.5629 35.4651 28.2329 36.5851 30.7329C36.65 30.8774 36.7491 31 36.87 31.0854C36.991 31.1708 37.1284 31.2151 37.2651 31.2129C38.9518 31.1662 39.9718 30.3362 40.3251 28.7228C40.3468 28.6304 40.3236 28.5075 40.2582 28.368C40.1929 28.2284 40.0879 28.0777 39.9551 27.9329Z" stroke="#86858C" stroke-width="2"/>
<path d="M104.465 4.68313C110.625 6.83646 116.821 8.86977 123.055 10.7831C147.145 18.1531 169.545 29.4131 194.775 32.9431C196.541 33.1898 200.548 33.0264 206.795 32.4531C206.966 32.4382 207.134 32.4644 207.276 32.5285C207.419 32.5925 207.53 32.6916 207.595 32.8131C207.861 33.3064 207.691 33.7964 207.085 34.2831C198.855 40.8231 191.415 48.9531 183.855 55.1031C175.335 62.0431 169.275 64.9431 157.745 69.3931C157.131 69.6331 156.735 70.1531 156.555 70.9531C147.608 73.5598 138.525 75.1831 129.305 75.8231C126.045 74.6564 122.775 74.5031 119.495 75.3631C117.668 75.8431 116.101 76.0865 114.795 76.0931C104.325 76.1731 95.3946 76.6431 79.6346 76.4631C74.5046 76.4031 70.2546 75.8831 65.5146 74.8931C64.4013 74.6665 63.6379 75.0198 63.2246 75.9531C48.7346 74.2231 33.6146 68.8631 24.1446 58.0731C13.9646 46.4864 6.27463 33.4464 1.07463 18.9531C0.96562 18.6445 0.976368 18.3086 1.10466 18.0131C2.23799 15.4798 4.12798 13.6331 6.77464 12.4731C26.9746 3.6631 49.9746 1.1431 72.0046 1.0031C83.2846 0.929769 94.1046 2.15646 104.465 4.68313ZM83.6976 15.1185C83.706 14.9145 82.871 14.6835 81.3762 14.4763C79.8814 14.2691 77.8492 14.1028 75.7268 14.0138C73.6043 13.9249 71.5653 13.9206 70.0585 14.002C68.5516 14.0833 67.7002 14.2437 67.6916 14.4477C67.6832 14.6517 68.5182 14.8828 70.013 15.0899C71.5079 15.2971 73.54 15.4635 75.6625 15.5524C77.785 15.6414 79.8239 15.6456 81.3308 15.5643C82.8377 15.4829 83.6891 15.3226 83.6976 15.1185ZM52.6413 26.304C51.6861 22.8121 49.1836 19.8972 45.6844 18.2006C42.1853 16.5039 37.976 16.1645 33.9827 17.2569C29.9894 18.3494 26.5392 20.7842 24.391 24.0258C22.2428 27.2675 21.5726 31.0503 22.5279 34.5422C23.4832 38.0341 25.9857 40.949 29.4848 42.6456C32.984 44.3423 37.1932 44.6818 41.1865 43.5893C45.1798 42.4969 48.6301 40.062 50.7783 36.8204C52.9265 33.5787 53.5966 29.7959 52.6413 26.304ZM61.0647 29.8031C74.7713 30.3765 83.7546 30.9364 88.0146 31.4831C89.5446 31.6731 89.6446 30.8631 88.5846 30.2731C85.9446 28.8265 83.1347 28.0631 80.1546 27.9831C73.6146 27.8031 67.1247 27.2931 60.5747 27.1631C60.4124 27.1601 60.2542 27.1942 60.1145 27.2624C59.9748 27.3305 59.8579 27.4304 59.7746 27.5531C58.7746 29.0131 59.4747 29.7331 61.0647 29.8031ZM145.853 35.3484C145.861 35.2502 145.689 35.1389 145.348 35.0208C145.007 34.9027 144.504 34.7801 143.866 34.66C143.228 34.5399 142.468 34.4247 141.63 34.321C140.793 34.2173 139.893 34.127 138.983 34.0554C137.146 33.9108 135.377 33.8509 134.067 33.8888C132.757 33.9268 132.012 34.0595 131.996 34.2578C131.988 34.356 132.16 34.4673 132.501 34.5854C132.842 34.7036 133.346 34.8261 133.984 34.9462C134.622 35.0663 135.381 35.1815 136.219 35.2852C137.057 35.389 137.956 35.4792 138.866 35.5508C140.703 35.6954 142.472 35.7554 143.782 35.7174C145.093 35.6794 145.838 35.5467 145.853 35.3484ZM168.702 40.2244C168.7 40.1299 168.68 40.0367 168.641 39.9502C168.603 39.8637 168.548 39.7855 168.48 39.7202C168.412 39.6548 168.331 39.6036 168.243 39.5694C168.155 39.5353 168.061 39.5188 167.966 39.5209L161.588 39.6657C161.397 39.67 161.216 39.75 161.084 39.8881C160.952 40.0261 160.88 40.2109 160.885 40.4018L160.887 40.5018C160.889 40.5964 160.91 40.6895 160.948 40.7761C160.986 40.8626 161.041 40.9407 161.109 41.006C161.177 41.0714 161.258 41.1226 161.346 41.1568C161.434 41.191 161.528 41.2075 161.623 41.2053L168.001 41.0605C168.192 41.0562 168.374 40.9762 168.505 40.8382C168.637 40.7001 168.709 40.5153 168.705 40.3244L168.702 40.2244ZM125.284 41.2903C125.283 41.1852 125.127 41.0828 124.825 40.9889C124.522 40.895 124.079 40.8115 123.521 40.743C122.963 40.6745 122.301 40.6225 121.573 40.59C120.845 40.5574 120.064 40.5449 119.276 40.5531C118.488 40.5614 117.708 40.5902 116.981 40.6381C116.253 40.6859 115.593 40.7517 115.036 40.8318C114.48 40.912 114.039 41.0048 113.738 41.105C113.438 41.2052 113.284 41.3109 113.285 41.4159C113.286 41.521 113.442 41.6234 113.745 41.7173C114.047 41.8112 114.49 41.8948 115.048 41.9632C115.606 42.0317 116.268 42.0837 116.996 42.1163C117.725 42.1488 118.505 42.1614 119.293 42.1531C120.081 42.1449 120.861 42.116 121.588 42.0682C122.316 42.0203 122.977 41.9545 123.533 41.8744C124.089 41.7943 124.53 41.7014 124.831 41.6012C125.131 41.501 125.285 41.3954 125.284 41.2903ZM85.0444 42.3681C85.0452 42.2355 84.7249 42.1024 84.1019 41.9766C83.4789 41.8508 82.5654 41.7347 81.4136 41.6349C80.2617 41.5351 78.894 41.4535 77.3887 41.3949C75.8833 41.3362 74.2696 41.3016 72.6399 41.2931C69.3486 41.2759 66.1917 41.3658 63.8634 41.543C61.5351 41.7202 60.2263 41.9703 60.2248 42.2381C60.2241 42.3708 60.5444 42.5038 61.1673 42.6296C61.7903 42.7554 62.7038 42.8715 63.8557 42.9713C65.0076 43.0712 66.3752 43.1527 67.8806 43.2114C69.386 43.27 70.9997 43.3046 72.6294 43.3131C75.9207 43.3303 79.0776 43.2405 81.4059 43.0633C83.7341 42.886 85.043 42.636 85.0444 42.3681ZM145.128 48.5437C145.117 48.3132 144.413 48.1237 143.169 48.0169C141.925 47.91 140.244 47.8946 138.495 47.974C136.746 48.0534 135.074 48.2211 133.845 48.4403C132.616 48.6594 131.931 48.912 131.941 49.1425C131.952 49.373 132.657 49.5625 133.9 49.6694C135.144 49.7762 136.825 49.7916 138.574 49.7122C140.323 49.6328 141.996 49.4651 143.225 49.246C144.454 49.0268 145.138 48.7742 145.128 48.5437ZM168.962 53.5524C168.955 53.3563 168.433 53.1862 167.512 53.0795C166.591 52.9728 165.345 52.9383 164.049 52.9836C162.753 53.0289 161.512 53.1502 160.601 53.3209C159.689 53.4916 159.181 53.6977 159.188 53.8938C159.195 54.0899 159.716 54.26 160.637 54.3667C161.559 54.4734 162.804 54.5079 164.1 54.4626C165.397 54.4173 166.637 54.296 167.548 54.1253C168.46 53.9546 168.968 53.7486 168.962 53.5524ZM61.5447 57.3031C67.458 58.0565 73.5146 58.3431 79.7146 58.1631C79.8789 58.1602 80.0365 58.1174 80.1692 58.0396C80.3018 57.9617 80.4042 57.852 80.4646 57.7231C82.0346 54.3631 63.2346 56.2831 61.5246 56.5931C59.958 56.8731 59.9647 57.1098 61.5447 57.3031Z" fill="#3A3F58"/>
<path d="M104.465 4.68311C126.545 8.31311 146.195 17.4931 166.585 24.8831C181.355 30.2431 194.805 32.6831 209.515 30.2331C212.235 29.7831 211.925 31.2031 210.645 32.4431C196.475 46.2231 178.265 65.7031 156.555 70.9531C156.735 70.1531 157.132 69.6331 157.745 69.3931C169.275 64.9431 175.335 62.0431 183.855 55.1031C191.415 48.9531 198.855 40.8231 207.085 34.2831C207.692 33.7964 207.862 33.3064 207.595 32.8131C207.53 32.6915 207.419 32.5925 207.277 32.5284C207.134 32.4644 206.967 32.4382 206.795 32.4531C200.548 33.0264 196.542 33.1898 194.775 32.9431C169.545 29.4131 147.145 18.1531 123.055 10.7831C116.822 8.86975 110.625 6.83644 104.465 4.68311Z" fill="#0B101E"/>
<path d="M75.665 15.5523C80.085 15.7375 83.6825 15.5433 83.7003 15.1184C83.7181 14.6935 80.1495 14.1989 75.7295 14.0136C71.3096 13.8284 67.7121 14.0227 67.6943 14.4475C67.6765 14.8724 71.2451 15.367 75.665 15.5523Z" fill="#A7ABBC"/>
<path d="M52.6438 26.3038C53.5991 29.7957 52.9289 33.5786 50.7807 36.8202C48.6325 40.0618 45.1822 42.4967 41.1889 43.5891C37.1956 44.6816 32.9864 44.3421 29.4873 42.6455C25.9881 40.9488 23.4857 38.0339 22.5304 34.5421C21.5751 31.0502 22.2452 27.2673 24.3934 24.0257C26.5416 20.784 29.9918 18.3492 33.9851 17.2567C37.9784 16.1643 42.1877 16.5038 45.6869 18.2004C49.186 19.8971 51.6885 22.812 52.6438 26.3038ZM44.9408 27.372C44.6007 26.4476 44.0522 25.6102 43.3268 24.9075C42.6013 24.2049 41.713 23.6507 40.7126 23.2767C39.7122 22.9027 38.6193 22.7162 37.4962 22.7278C36.3732 22.7394 35.2421 22.9488 34.1674 23.3442C33.0927 23.7396 32.0954 24.3133 31.2327 25.0323C30.3699 25.7513 29.6586 26.6017 29.1391 27.5349C28.6197 28.4681 28.3024 29.4658 28.2053 30.4711C28.1082 31.4764 28.2332 32.4696 28.5733 33.394C28.9134 34.3183 29.4619 35.1557 30.1873 35.8583C30.9128 36.561 31.8011 37.1152 32.8015 37.4892C33.8019 37.8632 34.8948 38.0497 36.0179 38.0381C37.1409 38.0265 38.2721 37.817 39.3468 37.4216C40.4215 37.0262 41.4187 36.4527 42.2814 35.7336C43.1442 35.0146 43.8555 34.1642 44.375 33.231C44.8944 32.2978 45.2117 31.3 45.3088 30.2947C45.4059 29.2894 45.2809 28.2963 44.9408 27.372Z" fill="#F8F7EF"/>
<path d="M44.9392 27.3722C45.2793 28.2966 45.4044 29.2897 45.3073 30.295C45.2102 31.3003 44.8929 32.298 44.3734 33.2313C43.854 34.1645 43.1426 35.0148 42.2799 35.7339C41.4171 36.4529 40.4199 37.0265 39.3452 37.4219C38.2706 37.8173 37.1394 38.0268 36.0163 38.0384C34.8933 38.05 33.8004 37.8634 32.8 37.4894C31.7996 37.1154 30.9113 36.5613 30.1858 35.8586C29.4604 35.1559 28.9119 34.3186 28.5718 33.3942C28.2317 32.4699 28.1067 31.4767 28.2038 30.4714C28.3008 29.4661 28.6182 28.4684 29.1376 27.5352C29.6571 26.602 30.3684 25.7516 31.2312 25.0326C32.0939 24.3135 33.0912 23.7399 34.1659 23.3445C35.2406 22.9491 36.3717 22.7396 37.4947 22.728C38.6178 22.7165 39.7107 22.903 40.7111 23.277C41.7115 23.651 42.5998 24.2051 43.3252 24.9078C44.0507 25.6105 44.5992 26.4479 44.9392 27.3722ZM39.9555 27.9332C37.7755 25.5632 35.4655 28.2332 36.5855 30.7332C36.6504 30.8778 36.7495 31.0004 36.8705 31.0858C36.9914 31.1711 37.1288 31.2155 37.2655 31.2132C38.9522 31.1665 39.9722 30.3365 40.3255 28.7232C40.3472 28.6308 40.324 28.5079 40.2586 28.3683C40.1933 28.2287 40.0883 28.0781 39.9555 27.9332Z" fill="#1E1D2D"/>
<path d="M36.5851 30.7333C35.4651 28.2333 37.7751 25.5634 39.9551 27.9334C40.0879 28.0782 40.1929 28.2289 40.2582 28.3684C40.3236 28.508 40.3468 28.6309 40.3251 28.7233C39.9718 30.3367 38.9518 31.1667 37.2651 31.2133C37.1284 31.2156 36.991 31.1713 36.87 31.0859C36.7491 31.0005 36.65 30.8779 36.5851 30.7333Z" fill="#EEEDEB"/>
<path d="M61.0668 29.8033C59.4768 29.7333 58.7768 29.0133 59.7768 27.5533C59.8601 27.4306 59.9769 27.3306 60.1166 27.2625C60.2564 27.1944 60.4146 27.1603 60.5769 27.1633C67.1269 27.2933 73.6168 27.8033 80.1568 27.9833C83.1368 28.0633 85.9467 28.8266 88.5867 30.2733C89.6467 30.8633 89.5468 31.6733 88.0168 31.4833C83.7568 30.9366 74.7735 30.3766 61.0668 29.8033Z" fill="#D8E6DF"/>
<path d="M138.866 35.5509C142.692 35.8521 145.82 35.7615 145.853 35.3485C145.885 34.9356 142.81 34.3567 138.983 34.0555C135.157 33.7544 132.028 33.845 131.996 34.2579C131.963 34.6709 135.039 35.2498 138.866 35.5509Z" fill="#D8E6DF"/>
<path d="M167.965 39.521L161.587 39.6658C161.189 39.6748 160.875 40.0044 160.884 40.4019L160.886 40.5019C160.895 40.8995 161.224 41.2144 161.622 41.2054L168 41.0607C168.398 41.0516 168.713 40.722 168.704 40.3245L168.702 40.2245C168.692 39.827 168.363 39.512 167.965 39.521Z" fill="#FEFDF3"/>
<path d="M119.294 42.1533C122.607 42.1186 125.29 41.7323 125.285 41.2905C125.28 40.8487 122.591 40.5187 119.277 40.5534C115.963 40.5881 113.281 40.9744 113.286 41.4162C113.29 41.858 115.98 42.188 119.294 42.1533Z" fill="#A7ABBC"/>
<path d="M72.6297 43.313C79.4835 43.3489 85.0419 42.9258 85.0448 42.368C85.0478 41.8102 79.4941 41.3289 72.6403 41.293C65.7865 41.2571 60.2281 41.6802 60.2252 42.238C60.2223 42.7958 65.776 43.2771 72.6297 43.313Z" fill="#D0D3D8"/>
<path d="M138.574 49.7123C142.216 49.5469 145.15 49.0237 145.128 48.5438C145.106 48.0638 142.137 47.8087 138.496 47.974C134.854 48.1394 131.92 48.6625 131.942 49.1425C131.964 49.6225 134.933 49.8776 138.574 49.7123Z" fill="#D0D3D8"/>
<path d="M164.103 54.4627C166.802 54.3685 168.978 53.961 168.964 53.5525C168.95 53.1441 166.75 52.8894 164.051 52.9836C161.352 53.0779 159.176 53.4854 159.19 53.8938C159.204 54.3023 161.404 54.557 164.103 54.4627Z" fill="#C2BBB9"/>
<path d="M61.5455 57.3034C59.9655 57.11 59.9588 56.8734 61.5255 56.5934C63.2355 56.2834 82.0354 54.3633 80.4654 57.7233C80.405 57.8523 80.3027 57.962 80.17 58.0398C80.0373 58.1176 79.8798 58.1604 79.7154 58.1633C73.5154 58.3433 67.4588 58.0567 61.5455 57.3034Z" fill="#EEEDEB"/>
<path d="M129.307 75.8233C109.167 78.7433 83.8866 80.0333 63.2266 75.9533C63.6399 75.02 64.4033 74.6667 65.5166 74.8933C70.2566 75.8833 74.5066 76.4033 79.6366 76.4633C95.3966 76.6433 104.327 76.1733 114.797 76.0933C116.103 76.0867 117.67 75.8433 119.497 75.3633C122.777 74.5033 126.047 74.6566 129.307 75.8233Z" fill="#1E1D2D"/>
</svg>
