<svg width="139" height="134" viewBox="0 0 139 134" fill="none" xmlns="http://www.w3.org/2000/svg">
<path d="M79.2796 2.72218C78.9729 2.68885 78.9296 2.54218 79.1496 2.28218C82.9196 -2.08782 99.3996 0.592204 103.1 3.8722C103.346 4.08554 103.323 4.12553 103.03 3.9922C98.5196 1.8222 93.3996 4.05221 89.5296 6.38221C89.2279 6.56073 88.8773 6.64027 88.5262 6.60981C88.175 6.57936 87.8407 6.44037 87.5696 6.21217C85.1829 4.19217 82.4196 3.02885 79.2796 2.72218Z" fill="#14181E"/>
<path d="M25.7806 3.95223C22.4006 5.03223 20.3706 6.0222 19.6906 6.9222C18.6573 8.29553 17.3473 9.26885 15.7606 9.84218C15.5524 9.91734 15.3455 9.95428 15.1622 9.94899C14.9789 9.9437 14.8262 9.89642 14.7206 9.81221C14.2739 9.47221 14.1506 9.05555 14.3506 8.56221C14.407 8.42512 14.4968 8.30224 14.6131 8.20333C14.7294 8.10441 14.8689 8.03216 15.0206 7.9922C16.7739 7.52554 18.1272 6.53885 19.0806 5.03218C19.1512 4.92018 19.1689 4.77526 19.1306 4.62209C19.0923 4.46891 19.0004 4.317 18.8706 4.19222C18.6773 3.99888 18.4806 3.91889 18.2806 3.95223C20.7806 3.22556 23.2806 3.22556 25.7806 3.95223Z" fill="#636A81"/>
<path d="M18.2823 3.95267C18.4823 3.91933 18.679 3.99932 18.8723 4.19266C19.0021 4.31744 19.094 4.46935 19.1323 4.62253C19.1706 4.7757 19.1529 4.92061 19.0823 5.03262C18.1289 6.53929 16.7756 7.52598 15.0223 7.99264C14.8706 8.0326 14.7311 8.10485 14.6148 8.20376C14.4985 8.30268 14.4087 8.42556 14.3523 8.56265C14.1523 9.05598 14.2756 9.47265 14.7223 9.81265C14.8279 9.89686 14.9806 9.94414 15.1639 9.94943C15.3472 9.95472 15.5541 9.91777 15.7623 9.84262C17.349 9.26929 18.659 8.29597 19.6923 6.92264C20.3723 6.02264 22.4023 5.03267 25.7823 3.95267L29.8423 5.13266C29.9364 5.15988 30.0182 5.21429 30.0798 5.29068C30.1414 5.36707 30.1807 5.46279 30.1938 5.56851C30.2069 5.67424 30.1933 5.78639 30.1545 5.89401C30.1157 6.00163 30.0529 6.10107 29.9723 6.18265C26.3523 9.80265 23.319 13.866 20.8723 18.3726C20.8418 18.4304 20.8043 18.4841 20.7622 18.5303C20.7201 18.5765 20.6743 18.6144 20.6275 18.6416C20.5807 18.6687 20.5339 18.6846 20.49 18.6882C20.4461 18.6918 20.4061 18.6831 20.3723 18.6626C16.039 15.9826 13.5556 12.106 12.9223 7.03262C12.9008 6.87133 12.9216 6.70667 12.9829 6.55435C13.0442 6.40203 13.1438 6.26716 13.2723 6.16263C14.7856 4.93596 16.4556 4.19933 18.2823 3.95267Z" fill="#171C25"/>
<path d="M69.5319 9.05178C69.4758 9.05156 69.4217 9.03521 69.3748 9.00429C69.328 8.97337 69.2901 8.92895 69.2649 8.87544C69.2397 8.82194 69.2279 8.76119 69.2309 8.69918C69.2339 8.63716 69.2514 8.57604 69.2819 8.52181C72.8919 2.31181 77.6219 6.85178 81.7919 8.62178C82.2319 8.80845 82.2919 8.99511 81.9719 9.18178L77.2919 11.9918C77.2586 12.0157 77.1552 11.9788 77.0018 11.8883C76.8484 11.7977 76.6559 11.66 76.4618 11.5018C74.4685 9.87512 72.1585 9.05844 69.5319 9.05178Z" fill="#171C25"/>
<path d="M98.3619 13.4225L96.0019 11.3125C95.4352 10.8125 95.5352 10.4825 96.3019 10.3225C99.4352 9.68251 102.342 8.47913 105.022 6.71247C105.922 6.1258 106.899 6.16914 107.952 6.84247C109.905 8.09581 111.575 9.66917 112.962 11.5625C113.169 11.8425 113.085 11.9092 112.712 11.7625C107.885 9.92252 103.379 10.4525 99.1919 13.3525C99.0455 13.4523 98.8838 13.5136 98.7332 13.5263C98.5826 13.539 98.4517 13.5024 98.3619 13.4225Z" fill="#090D11"/>
<path d="M42.5331 11.7023C38.0531 15.009 34.8031 19.259 32.7831 24.4523C30.1297 24.3456 27.7231 23.6056 25.5631 22.2323C25.5174 22.2027 25.4783 22.164 25.4484 22.1184C25.4184 22.0728 25.3981 22.0212 25.3887 21.9669C25.3794 21.9126 25.3811 21.8567 25.3939 21.8026C25.4067 21.7485 25.4302 21.6973 25.4631 21.6523C28.7964 17.1989 31.5997 12.439 33.8731 7.37229C33.9068 7.30507 33.9769 7.25751 34.0695 7.23899C34.1621 7.22047 34.2704 7.23238 34.3731 7.27231C37.2197 8.41898 39.9397 9.89564 42.5331 11.7023Z" fill="#1C2027"/>
<path d="M42.5312 11.7023C43.4779 11.6956 44.2979 11.9922 44.9912 12.5922C45.2392 12.8078 45.5308 12.9467 45.8312 12.9922C47.5246 13.2722 48.8546 14.1056 49.8213 15.4922C47.4613 17.6222 44.9012 19.0022 42.4012 21.1722C40.3746 22.9322 38.0912 24.3189 35.5512 25.3323L32.7812 24.4523C34.8012 19.2589 38.0512 15.0089 42.5312 11.7023Z" fill="#E0E4EA"/>
<path d="M35.5508 25.3319C38.0908 24.3186 40.3741 22.9319 42.4008 21.1719C44.9008 19.0019 47.4608 17.6219 49.8208 15.4919C54.3008 16.5119 54.7608 19.0819 60.2808 18.0319C61.4608 18.3986 62.6575 18.5052 63.8708 18.3519C64.0353 18.3307 64.1861 18.2797 64.305 18.2052C64.4239 18.1306 64.5058 18.0357 64.5408 17.9319C64.7908 17.1919 61.9608 17.5819 60.8208 17.7419C59.5308 15.8919 63.7308 12.6719 65.1108 11.9019C65.2949 11.7993 65.4792 11.7282 65.6433 11.6964C65.8074 11.6647 65.945 11.6735 66.0408 11.7219L72.8708 15.1319C72.9183 15.1567 72.9535 15.1969 72.9736 15.2494C72.9937 15.3018 72.9981 15.3649 72.9863 15.4333C72.9746 15.5018 72.9471 15.5737 72.9061 15.643C72.8652 15.7124 72.8119 15.7771 72.7508 15.8319C69.9308 18.3119 66.2208 19.0919 63.3808 20.6719C54.7541 25.4386 45.4774 26.9919 35.5508 25.3319Z" fill="#1C2038"/>
<path d="M102.722 20.2924L99.7621 17.2725C99.4688 16.9725 99.5588 16.7691 100.032 16.6624C105.732 15.3624 111.622 16.7025 117.452 16.5625C117.828 16.556 118.173 16.6545 118.432 16.8424C119.812 17.8758 120.849 19.1724 121.542 20.7324C121.682 21.0458 121.519 21.1691 121.052 21.1024C119.212 20.8224 117.472 20.1424 115.662 20.2124C111.675 20.3658 107.695 20.4758 103.722 20.5424C103.496 20.5485 103.287 20.5289 103.113 20.4854C102.939 20.4418 102.804 20.3756 102.722 20.2924Z" fill="#14181E"/>
<path d="M60.2812 18.0325L60.8213 17.7426C61.9613 17.5826 64.7913 17.1926 64.5413 17.9326C64.5063 18.0363 64.4244 18.1313 64.3055 18.2058C64.1865 18.2803 64.0357 18.3313 63.8712 18.3525C62.6579 18.5059 61.4612 18.3992 60.2812 18.0325Z" fill="#8DAFBF"/>
<path d="M126.041 31.642C119.631 31.082 115.151 29.782 107.821 30.702C107.641 30.7246 107.467 30.712 107.328 30.6663C107.189 30.6207 107.095 30.5449 107.061 30.452L105.531 26.242C105.512 26.1913 105.511 26.137 105.527 26.0835C105.544 26.03 105.578 25.9788 105.627 25.934C105.676 25.8892 105.737 25.8521 105.808 25.8257C105.878 25.7993 105.954 25.7843 106.031 25.782C111.797 25.5887 117.551 25.7953 123.291 26.402C123.624 26.4337 123.932 26.5912 124.151 26.842C125.297 28.122 126.117 29.5787 126.611 31.212C126.627 31.2666 126.624 31.3235 126.602 31.3779C126.58 31.4324 126.539 31.4829 126.483 31.525C126.427 31.5672 126.358 31.5998 126.281 31.6201C126.204 31.6405 126.122 31.648 126.041 31.642Z" fill="#14181E"/>
<path d="M114.172 41.4017C111.286 41.4283 109.839 39.9051 109.832 36.8317C109.831 36.7718 109.841 36.7121 109.863 36.6566C109.885 36.6012 109.918 36.5511 109.959 36.5097C110.001 36.4683 110.05 36.4363 110.104 36.416C110.158 36.3957 110.215 36.3874 110.272 36.3917L128.532 37.5217C128.71 37.5325 128.876 37.5865 129.002 37.6743C129.128 37.762 129.206 37.8779 129.222 38.0017L129.832 41.9817C129.84 42.0354 129.831 42.0896 129.803 42.1401C129.776 42.1907 129.732 42.2364 129.674 42.2739C129.617 42.3113 129.547 42.3395 129.471 42.3564C129.394 42.3734 129.313 42.3786 129.232 42.3717C124.252 41.9217 119.152 41.3617 114.172 41.4017Z" fill="#171C25"/>
<path d="M133.801 56.7919C127.621 54.7719 123.061 55.1919 114.801 55.2319C114.616 55.2324 114.439 55.1839 114.3 55.0945C114.162 55.0052 114.07 54.8805 114.041 54.7419L112.511 47.2519C112.498 47.1957 112.503 47.1379 112.524 47.0833C112.545 47.0287 112.582 46.9788 112.632 46.9378C112.682 46.8968 112.743 46.8658 112.81 46.8474C112.878 46.8289 112.95 46.8237 113.021 46.8319C118.994 47.6452 124.997 48.0085 131.031 47.9219C131.242 47.9191 131.442 47.9578 131.6 48.032C131.757 48.1062 131.863 48.2117 131.901 48.3319L134.301 56.4819C134.407 56.8352 134.241 56.9385 133.801 56.7919Z" fill="#1C2027"/>
<path d="M11.7999 50.4927C11.936 50.5792 12.0502 50.6973 12.1319 50.8361C12.2135 50.9748 12.26 51.1297 12.267 51.2863C12.2739 51.443 12.2412 51.5962 12.1718 51.732C12.1024 51.8677 11.9986 51.9815 11.8699 52.0627L8.63992 54.1127C8.57643 54.1536 8.50483 54.1805 8.43051 54.1914C8.35618 54.2024 8.28107 54.1971 8.21081 54.1759C8.14055 54.1548 8.07698 54.1182 8.02487 54.0692C7.97275 54.0201 7.93346 53.9598 7.90994 53.8927C6.24994 48.9261 7.54659 47.7927 11.7999 50.4927Z" fill="#090D11"/>
<path d="M22.9299 57.7922C24.6566 58.7256 24.5399 59.1989 22.5799 59.2122C17.8499 59.2522 13.7699 61.5722 9.48991 63.3622C9.3237 63.4317 9.14534 63.4537 8.98018 63.4249C8.81501 63.3962 8.67148 63.3183 8.56993 63.2023C7.66326 62.1489 7.32658 60.9089 7.55992 59.4822C7.57937 59.3572 7.65719 59.2361 7.7826 59.1358C7.90801 59.0355 8.07482 58.9608 8.25993 58.9222C10.7799 58.3822 13.0999 57.3889 15.2199 55.9423C15.3954 55.8232 15.5637 55.7238 15.7041 55.6563C15.8444 55.5888 15.9507 55.5561 16.0099 55.5623C18.4899 55.9023 20.7966 56.6456 22.9299 57.7922Z" fill="#090D11"/>
<path d="M135.81 68.9128C129.61 67.3328 123.21 65.3828 117.68 67.6428C117.597 67.6755 117.51 67.6933 117.422 67.6951C117.335 67.6969 117.251 67.6826 117.175 67.6532C117.099 67.6238 117.034 67.58 116.983 67.5247C116.932 67.4694 116.897 67.404 116.88 67.3328L115.56 61.7328C115.549 61.6805 115.555 61.6271 115.578 61.5767C115.601 61.5263 115.639 61.4804 115.691 61.4425C115.742 61.4046 115.805 61.3759 115.874 61.3586C115.944 61.3413 116.017 61.3358 116.09 61.3428C122.17 61.9428 129.66 61.4428 135.29 63.2028C136.96 63.7228 136.76 67.2028 136.44 68.5528C136.424 68.617 136.395 68.6774 136.355 68.7303C136.315 68.7833 136.264 68.8278 136.205 68.8613C136.146 68.8947 136.081 68.9166 136.014 68.9254C135.946 68.9342 135.876 68.9299 135.81 68.9128Z" fill="#1E1E21"/>
<path d="M28.7798 65.9628C27.8748 65.7751 27.0786 65.7822 26.5298 65.9828L11.5198 71.4528C11.3971 71.4979 11.2706 71.5303 11.1482 71.5482C11.0258 71.5661 10.9101 71.569 10.808 71.5568C10.7059 71.5447 10.6197 71.5176 10.5547 71.4774C10.4897 71.4371 10.4472 71.3846 10.4298 71.3228L9.55982 68.2528C9.54548 68.2049 9.54823 68.1528 9.56788 68.0998C9.58753 68.0468 9.6237 67.9939 9.67417 67.9444C9.72465 67.8948 9.78839 67.8496 9.86155 67.8115C9.93471 67.7735 10.0158 67.7433 10.0998 67.7228C15.6732 66.3761 21.1765 64.7662 26.6098 62.8928C28.5298 62.2228 30.0798 62.8328 30.7998 64.6728C30.8607 64.8285 30.8732 64.9972 30.8354 65.1539C30.7975 65.3106 30.7114 65.4469 30.5898 65.5428C30.0698 65.9628 29.4665 66.1028 28.7798 65.9628Z" fill="#090D11"/>
<path d="M15.8021 78.792C15.6705 78.8556 15.5267 78.8795 15.3978 78.8592C15.2689 78.839 15.1637 78.776 15.1021 78.682L12.4721 74.7721C12.2388 74.4254 12.3555 74.262 12.8221 74.282C19.0821 74.552 24.0321 72.2921 29.6721 70.8321C31.8121 70.2821 34.0421 69.142 35.0821 71.852C35.1056 71.9142 35.1144 71.9809 35.1079 72.0475C35.1015 72.1141 35.0799 72.1791 35.0448 72.238C35.0096 72.2969 34.9617 72.3483 34.9043 72.3887C34.8468 72.4291 34.7813 72.4575 34.7121 72.472C28.1721 73.8454 21.8688 75.952 15.8021 78.792Z" fill="#090D11"/>
<path d="M122.72 80.562C122.087 80.4753 121.417 80.4586 120.71 80.512C120.513 80.5234 120.327 80.4977 120.176 80.4385C120.025 80.3793 119.918 80.2896 119.87 80.182C118.977 78.2086 118.52 76.1453 118.5 73.992C118.497 73.888 118.576 73.784 118.722 73.7019C118.867 73.6197 119.067 73.566 119.28 73.552C125.193 73.1786 131.017 73.7186 136.75 75.1719C136.921 75.2149 137.075 75.2919 137.198 75.3953C137.321 75.4988 137.408 75.6251 137.45 75.762C138.07 77.7286 138.323 79.742 138.21 81.802C138.206 81.8568 138.185 81.9081 138.149 81.9519C138.113 81.9956 138.063 82.0305 138.002 82.0538C137.942 82.0772 137.874 82.0882 137.802 82.0861C137.73 82.0841 137.658 82.0689 137.59 82.0419C133.67 80.4319 127.19 81.192 122.72 80.562Z" fill="#14181E"/>
<path d="M24.3417 84.9422C27.0617 86.6422 38.2417 83.9622 41.7817 83.3922C43.4417 83.1222 44.6117 82.1222 46.2717 81.7022C50.5517 80.6156 54.8384 79.5522 59.1317 78.5122C65.9217 76.8622 69.4817 73.9522 76.8517 77.4422C77.1517 77.5889 77.135 77.6889 76.8017 77.7422C70.4217 78.8122 63.2617 79.3822 57.3217 82.0422C49.0884 85.7422 41.3284 87.8322 34.0417 88.3122C28.0617 88.7056 22.5584 86.5589 17.5317 81.8722C17.4904 81.8342 17.4591 81.7865 17.4407 81.7334C17.4223 81.6804 17.4173 81.6235 17.4262 81.568C17.4351 81.5126 17.4576 81.4601 17.4918 81.4155C17.5259 81.3709 17.5705 81.3354 17.6217 81.3122C19.1117 80.6722 20.7817 81.1522 22.1617 80.8422C27.295 79.7222 32.3417 78.3122 37.3017 76.6122C37.504 76.5415 37.6979 76.4972 37.8655 76.4832C38.0332 76.4692 38.1694 76.486 38.2617 76.5322L42.6217 78.6222C43.015 78.8089 42.9817 78.9589 42.5217 79.0722C41.7684 79.2589 41.0084 79.2556 40.2417 79.0622C39.9151 78.9836 39.5683 79.001 39.2417 79.1122L24.4617 84.1222C23.8484 84.3289 23.8084 84.6022 24.3417 84.9422Z" fill="#090D11"/>
<path d="M70.5 85.2917C70.2467 85.2183 70.25 85.1583 70.51 85.1117C73.5167 84.565 76.4734 83.665 79.38 82.4117C80.57 81.8917 81.42 80.8017 82.72 82.0817C82.9334 82.295 83.1967 82.4417 83.51 82.5217C85.5567 83.0617 87.1633 84.205 88.33 85.9517C88.3652 86.0044 88.3776 86.0667 88.3664 86.1337C88.3551 86.2007 88.3204 86.2705 88.265 86.3374C88.2097 86.4044 88.1352 86.4668 88.0476 86.5196C87.9599 86.5725 87.8614 86.6143 87.76 86.6417L78.04 89.2617C77.6319 89.3693 77.2021 89.3491 76.8111 89.2038C76.42 89.0585 76.0874 88.7955 75.86 88.4517C74.96 87.0784 73.1734 86.025 70.5 85.2917ZM82.2489 83.7447C82.257 83.5858 82.1753 83.4288 82.0218 83.3084C81.8683 83.188 81.6555 83.1139 81.4304 83.1025C81.2053 83.091 80.9862 83.1432 80.8213 83.2475C80.6564 83.3518 80.5592 83.4997 80.5511 83.6587C80.5431 83.8176 80.6248 83.9745 80.7783 84.095C80.9318 84.2154 81.1445 84.2895 81.3696 84.3009C81.5948 84.3123 81.8139 84.2601 81.9788 84.1558C82.1437 84.0515 82.2409 83.9036 82.2489 83.7447Z" fill="#171C25"/>
<path d="M81.3702 84.302C81.8391 84.3258 82.2327 84.0767 82.2495 83.7458C82.2663 83.4148 81.8998 83.1273 81.4309 83.1036C80.9621 83.0798 80.5684 83.3288 80.5517 83.6598C80.5349 83.9907 80.9014 84.2783 81.3702 84.302Z" fill="#9A9C91"/>
<path d="M136.32 91.5618C131.75 90.9818 126.95 91.2118 122.34 91.2318C122.211 91.232 122.086 91.1826 121.987 91.0928C121.888 91.0029 121.821 90.8785 121.8 90.7418L121.38 88.1718C121.313 87.7585 121.447 87.6152 121.78 87.7418C125.21 89.0818 133.26 88.2418 137.23 88.2518C137.379 88.2519 137.524 88.2997 137.643 88.3881C137.762 88.4764 137.849 88.6005 137.89 88.7418C138.49 90.8285 137.967 91.7685 136.32 91.5618Z" fill="#1C2027"/>
<path d="M95.973 98.2023C92.1863 97.8223 88.4597 98.1923 84.793 99.3123C83.2863 99.7723 82.2363 99.4823 81.643 98.4423L79.523 94.7523C79.4758 94.6727 79.4533 94.5822 79.4575 94.4881C79.4617 94.394 79.4924 94.2991 79.5471 94.2112C79.6018 94.1233 79.6789 94.0449 79.7721 93.9825C79.8652 93.9201 79.9718 93.8755 80.083 93.8523C82.993 93.2623 89.943 92.9723 92.063 91.5723C92.1174 91.5357 92.1792 91.5112 92.2446 91.5004C92.3101 91.4896 92.378 91.4928 92.4442 91.5096C92.5104 91.5264 92.5736 91.5565 92.6301 91.5982C92.6866 91.6399 92.7352 91.6923 92.773 91.7523L96.283 97.4723C96.6097 98.0123 96.5063 98.2557 95.973 98.2023Z" fill="#171C25"/>
<path d="M125.791 101.043C126.021 101.853 132.861 102.483 133.291 102.513C134.638 102.606 135.038 103.349 134.491 104.743C133.424 107.483 131.991 110.039 130.191 112.413C130.094 112.541 129.968 112.645 129.824 112.716C129.679 112.786 129.521 112.821 129.362 112.817C129.204 112.813 129.05 112.771 128.913 112.693C128.777 112.616 128.663 112.506 128.581 112.373C126.761 109.4 125.554 106.2 124.961 102.773C124.591 100.643 123.481 98.8228 123.131 96.6228C123.121 96.5657 123.124 96.5072 123.139 96.4511C123.154 96.395 123.182 96.3428 123.22 96.2981C123.258 96.2534 123.306 96.2173 123.359 96.1922C123.413 96.1671 123.472 96.1536 123.531 96.1528L135.521 95.9728C135.683 95.9701 135.843 96.0018 135.994 96.066C136.144 96.1301 136.281 96.2254 136.396 96.3464C136.512 96.4674 136.603 96.6116 136.666 96.7707C136.729 96.9297 136.761 97.1004 136.761 97.2729C136.761 98.8929 136.621 99.8728 134.661 99.5728C131.788 99.1395 129.001 99.4095 126.301 100.383C126.13 100.445 125.982 100.548 125.888 100.67C125.793 100.793 125.759 100.926 125.791 101.043Z" fill="#231F28"/>
<path d="M86.7904 110.022C85.6771 109.195 85.0038 108.072 84.7704 106.652C84.7604 106.584 84.7661 106.515 84.787 106.448C84.808 106.381 84.8437 106.319 84.8923 106.264C84.9408 106.209 85.0011 106.162 85.0695 106.128C85.1379 106.093 85.213 106.071 85.2904 106.062L99.2704 104.412C99.4249 104.393 99.5792 104.423 99.7044 104.496C99.8296 104.57 99.9171 104.682 99.9504 104.812L101.03 109.242C101.049 109.319 101.049 109.399 101.031 109.475C101.014 109.552 100.979 109.622 100.929 109.68C100.88 109.739 100.817 109.783 100.748 109.81C100.678 109.836 100.604 109.844 100.53 109.832C96.2238 109.165 91.9704 109.369 87.7704 110.442C87.684 110.466 87.545 110.438 87.3708 110.364C87.1965 110.289 86.9947 110.17 86.7904 110.022Z" fill="#14181E"/>
<path d="M16.3814 121.022C12.1914 119.802 7.9014 120.322 3.5914 120.502C3.51807 120.505 3.44489 120.493 3.37687 120.469C3.30884 120.444 3.24759 120.408 3.19727 120.361C3.14695 120.315 3.10875 120.26 3.0853 120.199C3.06185 120.139 3.05371 120.075 3.06141 120.012C3.32141 117.972 4.15474 116.232 5.56141 114.792C5.66621 114.684 5.81447 114.611 5.98941 114.581C6.16436 114.551 6.35899 114.565 6.5514 114.622C7.8914 115.012 17.9414 119.202 17.2414 120.862C17.2001 120.961 17.0893 121.031 16.9306 121.061C16.7718 121.09 16.5762 121.077 16.3814 121.022Z" fill="#14181E"/>
<path d="M90.011 119.332C89.6389 119.286 89.2762 119.09 88.9697 118.771C88.6631 118.452 88.4268 118.024 88.291 117.542C87.471 114.672 88.411 114.972 90.491 114.982C94.2843 115.016 98.0743 115.086 101.861 115.192C101.956 115.195 102.05 115.212 102.137 115.242C102.224 115.273 102.302 115.316 102.366 115.368C102.431 115.421 102.479 115.483 102.509 115.549C102.539 115.615 102.55 115.684 102.541 115.752L101.891 120.312C101.872 120.448 101.771 120.568 101.61 120.645C101.449 120.722 101.241 120.749 101.031 120.722L90.011 119.332Z" fill="#171C25"/>
<path d="M1.93005 129.442C1.49671 129.348 1.03005 129.272 0.530053 129.212C0.450892 129.203 0.373175 129.183 0.302301 129.153C0.231427 129.123 0.169096 129.083 0.119623 129.038C0.0701488 128.992 0.0347218 128.941 0.0158018 128.888C-0.0031182 128.835 -0.00506992 128.782 0.0100645 128.732L1.24004 124.492C1.26101 124.422 1.2989 124.358 1.35092 124.305C1.40293 124.252 1.46775 124.212 1.54064 124.187C1.61353 124.162 1.69265 124.153 1.77215 124.161C1.85165 124.169 1.92951 124.193 2.00005 124.232C3.11005 124.842 3.83004 125.442 5.14004 125.592C7.79004 125.902 19.5401 127.502 21.9701 125.342C22.1062 125.22 22.2634 125.136 22.4218 125.098C22.5802 125.061 22.7327 125.073 22.86 125.132C24.54 125.898 25.99 126.958 27.21 128.312C27.303 128.416 27.3665 128.542 27.3945 128.678C27.4225 128.815 27.4142 128.958 27.3704 129.095C27.3267 129.231 27.2488 129.356 27.1439 129.459C27.0389 129.561 26.9104 129.638 26.77 129.682C24.14 130.492 21.5501 129.932 19.1701 130.242C13.3767 131.008 7.63005 130.742 1.93005 129.442Z" fill="#14181E"/>
<path d="M90.9693 129.572C90.0293 129.132 89.0493 128.938 88.0293 128.992C87.9023 128.997 87.7782 128.947 87.6845 128.853C87.5907 128.759 87.535 128.629 87.5293 128.492C87.4827 127.558 87.7127 126.705 88.2193 125.932C88.3165 125.785 88.4464 125.669 88.589 125.602C88.7316 125.535 88.8793 125.521 89.0094 125.562C92.0294 126.488 95.1193 126.972 98.2793 127.012C98.4415 127.015 98.5975 127.079 98.72 127.19C98.8425 127.302 98.9237 127.454 98.9494 127.622C99.3194 130.032 95.0094 131.282 93.2594 131.462C92.9635 131.488 92.6388 131.384 92.3493 131.172C92.0427 130.952 91.826 130.662 91.6994 130.302C91.5841 130 91.3216 129.738 90.9693 129.572Z" fill="#14181E"/>
<path d="M32.9724 133.742H29.9724L24.5523 133.142C24.1857 133.102 24.1857 133.039 24.5523 132.952C26.5523 132.492 34.7424 130.482 32.9724 133.742Z" fill="#303132"/>
</svg>
