<svg width="41" height="102" viewBox="0 0 41 102" fill="none" xmlns="http://www.w3.org/2000/svg">
<path d="M27.3078 66.0655C27.1793 65.9702 27.073 65.8483 26.996 65.7081C26.919 65.5679 26.8733 65.4126 26.8619 65.2531C26.8505 65.0935 26.8737 64.9334 26.93 64.7837C26.9862 64.6339 27.0742 64.4981 27.1878 64.3855C30.3978 61.2055 32.0678 56.8955 32.0678 52.2655C32.0678 43.4189 27.6845 37.4989 18.9178 34.5055C18.7726 34.4549 18.6412 34.3712 18.534 34.261C18.4268 34.1508 18.3467 34.0171 18.3001 33.8706C18.2535 33.7241 18.2417 33.5687 18.2656 33.4168C18.2895 33.2649 18.3485 33.1207 18.4378 32.9955C22.5978 27.1555 29.4378 21.7855 28.2778 13.5855C27.0578 4.91554 13.3878 -5.21446 7.2378 5.86554C1.9678 15.3755 3.4178 24.1255 10.2178 32.2255C10.5211 32.5895 10.6955 33.0432 10.7136 33.5155C10.7317 33.9879 10.5925 34.4522 10.3178 34.8355C3.76779 43.9555 -4.0722 52.3155 5.3678 62.9655C7.6778 65.5655 11.4478 66.6755 14.6278 68.4355C14.7488 68.5046 14.8404 68.6147 14.8848 68.7441C14.9291 68.8735 14.9231 69.0131 14.8678 69.1355C10.3378 79.0755 2.7478 95.7555 18.6878 100.226C25.3878 102.106 31.6278 99.5355 35.7178 93.9455C43.8678 82.7955 36.6178 72.9455 27.3078 66.0655Z" stroke="#B8DAD7" stroke-width="2"/>
<path d="M27.3078 66.0655C36.6178 72.9455 43.8678 82.7955 35.7178 93.9455C31.6278 99.5355 25.3878 102.106 18.6878 100.226C2.7478 95.7555 10.3378 79.0755 14.8678 69.1355C14.9231 69.0131 14.9291 68.8735 14.8848 68.7441C14.8404 68.6147 14.7488 68.5046 14.6278 68.4355C11.4478 66.6755 7.6778 65.5655 5.3678 62.9655C-4.0722 52.3155 3.76779 43.9555 10.3178 34.8355C10.5925 34.4522 10.7317 33.9879 10.7136 33.5155C10.6955 33.0432 10.5211 32.5895 10.2178 32.2255C3.4178 24.1255 1.9678 15.3755 7.2378 5.86554C13.3878 -5.21446 27.0578 4.91554 28.2778 13.5855C29.4378 21.7855 22.5978 27.1555 18.4378 32.9955C18.3485 33.1207 18.2895 33.2649 18.2656 33.4168C18.2417 33.5687 18.2535 33.7241 18.3001 33.8706C18.3467 34.0171 18.4268 34.1508 18.534 34.261C18.6412 34.3712 18.7726 34.4549 18.9178 34.5055C27.6845 37.4989 32.0678 43.4189 32.0678 52.2655C32.0678 56.8955 30.3978 61.2055 27.1878 64.3855C27.0742 64.4981 26.9862 64.6339 26.93 64.7837C26.8737 64.9334 26.8505 65.0935 26.8619 65.2531C26.8733 65.4127 26.919 65.5679 26.996 65.7081C27.073 65.8483 27.1793 65.9702 27.3078 66.0655Z" fill="#72B5B0"/>
</svg>
