<svg width="127" height="188" viewBox="0 0 127 188" fill="none" xmlns="http://www.w3.org/2000/svg">
<path d="M74.9766 109.251C90.6688 100.061 106.261 88.5814 113.74 70.8214C115.006 67.8014 114.021 64.7614 115.529 61.4314C115.673 61.1201 115.715 60.7897 115.65 60.4914L112.885 48.2114" stroke="#868589" stroke-width="2"/>
<path d="M112.887 48.2114C110.817 40.6647 107.479 33.7347 102.875 27.4214" stroke="#8B8B91" stroke-width="2"/>
<path d="M102.872 27.4214C98.0066 20.4014 92.2263 14.2347 85.5312 8.92139" stroke="#828181" stroke-width="2"/>
<path d="M85.5321 8.92145C73.9413 1.07145 58.4703 0.0914493 44.9896 1.59145C24.1805 3.90145 10.1972 18.4414 3.61273 37.7114C-6.41985 67.0914 13.8062 97.3114 40.9786 108.971C49.6741 112.701 58.4401 113.121 67.5076 111.071C68.7676 110.791 69.6757 111.231 70.2319 112.391C71.8537 115.805 73.4655 119.218 75.0672 122.631C86.6982 147.431 104.331 165.511 121.953 186.051C122.182 186.318 122.47 186.504 122.777 186.581C126.798 187.621 125.17 183.801 123.943 182.401C110.342 166.911 96.3387 152.671 85.331 134.161C83.7829 131.561 80.3617 124.991 75.0672 114.451C74.1726 112.691 71.8102 110.831 74.9768 109.251" stroke="#8B8B91" stroke-width="2"/>
<path d="M85.5338 8.92139C84.9574 9.04139 84.6022 9.34138 84.4682 9.82138C84.4331 9.95193 84.4469 10.0983 84.5076 10.2422C84.5684 10.3862 84.6735 10.5215 84.81 10.6314C90.8617 15.4714 95.8143 20.638 99.6678 26.1314C100.566 27.4114 101.635 27.8414 102.875 27.4214" stroke="#0F1421" stroke-width="2"/>
<path d="M112.884 48.2114C111.476 48.2114 110.974 49.1014 111.195 50.4314C111.684 53.4381 112.271 56.4581 112.954 59.4914C112.998 59.689 113.021 59.875 113.021 60.0371C113.021 60.1991 112.998 60.3336 112.954 60.4314C111.634 63.4448 111.389 66.5248 112.22 69.6714C112.238 69.7482 112.224 69.8779 112.18 70.0468C112.136 70.2157 112.063 70.4176 111.969 70.6314C106.993 82.1514 97.2016 91.5914 87.2595 98.9614C83.9522 101.411 79.0766 103.761 75.2566 106.761C74.3519 107.471 73.9799 108.441 74.9751 109.251" stroke="#131829" stroke-width="2"/>
<path d="M67.8207 90.6714C58.0897 94.1614 50.4597 94.6414 41.2514 89.4914C30.6157 83.5514 22.9154 75.5914 18.3112 64.5814C16.81 60.9947 15.8718 57.9614 15.4965 55.4814C14.585 49.448 15.5032 43.438 18.2509 37.4514C20.3017 32.9914 24.4031 28.0614 27.4793 23.5414C27.801 23.0814 27.9417 22.1614 27.2682 22.0014C27.1435 21.9735 26.9974 21.9853 26.8418 22.0357C26.6863 22.0862 26.5258 22.1738 26.3735 22.2914C5.7353 38.3614 8.64054 66.0814 25.9312 83.0114C36.4965 93.3514 47.5746 100.941 63.4076 96.8614C75.2697 93.8114 84.3272 90.6814 89.5546 78.6814C91.1027 75.1147 92.0242 70.6247 92.3191 65.2114C93.2741 47.4414 93.1032 34.7114 78.567 22.3714C78.1046 21.9757 77.5248 21.7436 76.9184 21.7114C76.275 21.6814 76.4258 22.4014 76.6671 22.6714C82.1357 28.8014 87.4134 36.2014 88.8007 44.4714C90.5163 54.6914 90.1511 64.3314 87.7049 73.3914C85.0711 83.1814 77.0189 87.3714 67.8207 90.6714Z" stroke="#85878D" stroke-width="2"/>
<path d="M65.0675 63.3214C60.1115 69.5814 49.6064 74.1214 43.2129 67.0014C33.301 55.9714 38.9003 42.4014 44.4695 30.8614C44.9185 29.9414 44.6706 29.688 43.7256 30.1014C39.1315 32.1214 34.5978 45.9514 34.2862 50.3714C33.6227 59.8714 38.9003 72.4714 49.4657 74.1814C60.2723 75.9314 69.8928 66.0914 72.1044 56.2714C73.0895 51.8614 71.2298 36.9414 63.2178 39.2914C58.2115 40.7647 54.7836 44.0047 52.9339 49.0114C51.8784 51.8614 53.7381 51.6314 54.7635 49.7414C57.9301 44.0014 67.7314 35.7714 69.2795 48.7414C69.9229 54.1014 68.5189 58.9614 65.0675 63.3214Z" stroke="#7F8288" stroke-width="2"/>
<path d="M85.5321 8.92145C84.9557 9.04145 84.6005 9.34145 84.4665 9.82145C84.4315 9.95199 84.4452 10.0983 84.5059 10.2423C84.5667 10.3863 84.6718 10.5216 84.8083 10.6314C90.86 15.4714 95.8126 20.6381 99.6662 26.1314C100.564 27.4114 101.633 27.8415 102.873 27.4215C107.477 33.7348 110.815 40.6648 112.885 48.2114C111.478 48.2114 110.975 49.1014 111.197 50.4314C111.686 53.4381 112.272 56.4581 112.956 59.4914C113 59.689 113.023 59.875 113.023 60.0371C113.023 60.1991 113 60.3336 112.956 60.4314C111.636 63.4448 111.391 66.5248 112.222 69.6714C112.24 69.7483 112.226 69.8779 112.182 70.0468C112.137 70.2157 112.065 70.4176 111.971 70.6314C106.995 82.1514 97.2033 91.5914 87.2612 98.9614C83.9538 101.411 79.0783 103.761 75.2582 106.761C74.3535 107.471 73.9816 108.441 74.9768 109.251C71.8102 110.831 74.1726 112.691 75.0672 114.451C80.3617 124.991 83.7829 131.561 85.331 134.161C96.3387 152.671 110.342 166.911 123.943 182.401C125.17 183.801 126.798 187.621 122.777 186.581C122.47 186.504 122.182 186.318 121.953 186.051C104.331 165.511 86.6982 147.431 75.0672 122.631C73.4655 119.218 71.8537 115.805 70.2319 112.391C69.6757 111.231 68.7676 110.791 67.5076 111.071C58.4401 113.121 49.6741 112.701 40.9786 108.971C13.8062 97.3114 -6.41985 67.0914 3.61273 37.7114C10.1972 18.4414 24.1805 3.90145 44.9896 1.59145C58.4703 0.0914493 73.9413 1.07145 85.5321 8.92145ZM67.8193 90.6714C58.0883 94.1614 50.4583 94.6414 41.25 89.4914C30.6143 83.5514 22.9139 75.5914 18.3098 64.5814C16.8086 60.9948 15.8703 57.9614 15.495 55.4814C14.5836 49.4481 15.5017 43.4381 18.2495 37.4515C20.3002 32.9915 24.4017 28.0614 27.4778 23.5414C27.7995 23.0814 27.9402 22.1614 27.2667 22.0014C27.142 21.9736 26.9959 21.9854 26.8404 22.0358C26.6848 22.0862 26.5243 22.1739 26.372 22.2914C5.73385 38.3614 8.63909 66.0814 25.9297 83.0114C36.4951 93.3514 47.5731 100.941 63.4061 96.8614C75.2683 93.8114 84.3258 90.6814 89.5532 78.6814C91.1013 75.1148 92.0228 70.6248 92.3177 65.2114C93.2727 47.4414 93.1018 34.7114 78.5656 22.3714C78.1031 21.9758 77.5234 21.7437 76.9169 21.7114C76.2736 21.6814 76.4243 22.4015 76.6656 22.6715C82.1343 28.8015 87.4119 36.2014 88.7992 44.4714C90.5149 54.6914 90.1496 64.3314 87.7035 73.3914C85.0697 83.1814 77.0175 87.3714 67.8193 90.6714ZM65.0648 63.3214C60.1089 69.5814 49.6038 74.1214 43.2103 67.0014C33.2983 55.9714 38.8977 42.4014 44.4669 30.8614C44.9159 29.9414 44.6679 29.6881 43.723 30.1014C39.1289 32.1214 34.5951 45.9514 34.2835 50.3714C33.62 59.8714 38.8977 72.4714 49.463 74.1814C60.2697 75.9314 69.8901 66.0914 72.1017 56.2714C73.0869 51.8614 71.2271 36.9414 63.2151 39.2914C58.2089 40.7648 54.7809 44.0048 52.9312 49.0114C51.8757 51.8614 53.7355 51.6314 54.7608 49.7414C57.9274 44.0014 67.7288 35.7714 69.2769 48.7414C69.9203 54.1014 68.5163 58.9614 65.0648 63.3214Z" fill="#181D31"/>
<path d="M85.5338 8.92139C92.2289 14.2347 98.0092 20.4014 102.875 27.4214C101.635 27.8414 100.566 27.4114 99.6678 26.1314C95.8143 20.638 90.8617 15.4714 84.81 10.6314C84.6735 10.5215 84.5684 10.3862 84.5076 10.2422C84.4469 10.0983 84.4331 9.95193 84.4682 9.82138C84.6022 9.34138 84.9574 9.04139 85.5338 8.92139Z" fill="#060A11"/>
<path d="M112.884 48.2114L115.648 60.4914C115.714 60.7897 115.671 61.1201 115.528 61.4314C114.02 64.7614 115.005 67.8014 113.738 70.8214C106.259 88.5814 90.6674 100.061 74.9751 109.251C73.9799 108.441 74.3519 107.471 75.2566 106.761C79.0766 103.761 83.9522 101.411 87.2595 98.9614C97.2016 91.5914 106.993 82.1514 111.969 70.6314C112.063 70.4176 112.136 70.2157 112.18 70.0468C112.224 69.8779 112.238 69.7482 112.22 69.6714C111.389 66.5248 111.634 63.4448 112.954 60.4314C112.998 60.3336 113.021 60.1991 113.021 60.0371C113.021 59.875 112.998 59.689 112.954 59.4914C112.271 56.4581 111.684 53.4381 111.195 50.4314C110.974 49.1014 111.476 48.2114 112.884 48.2114Z" fill="#0E1221"/>
<path d="M46.3125 89.4914C55.4725 94.6414 63.0625 94.1614 72.7425 90.6714C81.8925 87.3714 89.9025 83.1814 92.5225 73.3914C94.9559 64.3314 95.3192 54.6914 93.6125 44.4714C92.2325 36.2014 86.9825 28.8014 81.5425 22.6714C81.3025 22.4014 81.1525 21.6814 81.7925 21.7114C82.3958 21.7436 82.9725 21.9757 83.4325 22.3714C97.8925 34.7114 98.0625 47.4414 97.1125 65.2114C96.8192 70.6247 95.9025 75.1147 94.3625 78.6814C89.1625 90.6814 80.1525 93.8113 68.3525 96.8614C52.6025 100.941 41.5825 93.3514 31.0725 83.0114C13.8725 66.0814 10.9825 38.3614 31.5125 22.2914C31.664 22.1738 31.8237 22.0862 31.9784 22.0357C32.1332 21.9853 32.2785 21.9735 32.4025 22.0014C33.0725 22.1614 32.9325 23.0814 32.6125 23.5414C29.5525 28.0614 25.4725 32.9914 23.4325 37.4514C20.6992 43.438 19.7859 49.448 20.6925 55.4814C21.0659 57.9614 21.9992 60.9947 23.4925 64.5814C28.0725 75.5914 35.7325 83.5514 46.3125 89.4914Z" fill="#F1F0E8"/>
<path d="M48.2635 67.0014C54.6235 74.1214 65.0735 69.5814 70.0035 63.3214C73.4369 58.9614 74.8335 54.1014 74.1935 48.7414C72.6535 35.7714 62.9035 44.0014 59.7535 49.7414C58.7335 51.6314 56.8835 51.8614 57.9335 49.0114C59.7735 44.0047 63.1835 40.7647 68.1635 39.2914C76.1335 36.9414 77.9835 51.8614 77.0035 56.2714C74.8035 66.0914 65.2335 75.9314 54.4835 74.1814C43.9735 72.4714 38.7235 59.8714 39.3835 50.3714C39.6935 45.9514 44.2035 32.1214 48.7735 30.1014C49.7135 29.688 49.9602 29.9414 49.5135 30.8614C43.9735 42.4014 38.4035 55.9714 48.2635 67.0014Z" fill="#E5E6DF"/>
</svg>
