<svg width="8" height="44" viewBox="0 0 8 44" fill="none" xmlns="http://www.w3.org/2000/svg">
<path d="M4.98001 2.99002C4.98001 2.46224 4.77032 1.95605 4.39713 1.58286C4.02393 1.20966 3.51777 1 2.98999 1C2.46221 1 1.95605 1.20966 1.58286 1.58286C1.20966 1.95605 1 2.46224 1 2.99002C1 3.5178 1.20966 4.02396 1.58286 4.39716C1.95605 4.77035 2.46221 4.98001 2.98999 4.98001C3.51777 4.98001 4.02393 4.77035 4.39713 4.39716C4.77032 4.02396 4.98001 3.5178 4.98001 2.99002Z" stroke="#959594" stroke-width="2"/>
<path d="M5.28338 21.6547C5.53959 21.63 5.7854 21.5237 6.00679 21.3419C6.22819 21.16 6.42082 20.9061 6.57369 20.5947C6.72655 20.2834 6.83666 19.9206 6.89772 19.5271C6.95879 19.1336 6.96962 18.7171 6.92958 18.3014C6.88956 17.8858 6.79944 17.479 6.66442 17.1044C6.52939 16.7298 6.3521 16.3947 6.14263 16.1182C5.93316 15.8417 5.69562 15.6292 5.44359 15.493C5.19157 15.3567 4.92999 15.2993 4.67379 15.3239C4.41757 15.3486 4.17176 15.4549 3.95037 15.6368C3.72898 15.8186 3.53634 16.0725 3.38347 16.3839C3.23061 16.6953 3.1205 17.0581 3.05944 17.4516C2.99837 17.845 2.98754 18.2615 3.02758 18.6772C3.0676 19.0929 3.15772 19.4997 3.29274 19.8743C3.42777 20.2489 3.60506 20.584 3.81453 20.8605C4.024 21.1369 4.26154 21.3494 4.51357 21.4857C4.76559 21.622 5.02717 21.6794 5.28338 21.6547Z" stroke="#8F8F90" stroke-width="2"/>
<path d="M3.64584 42.8148C4.23235 42.9384 4.86065 42.7446 5.39254 42.2759C5.92443 41.8073 6.31632 41.1023 6.48202 40.3159C6.64773 39.5296 6.57366 38.7264 6.27612 38.083C5.97857 37.4396 5.48194 37.0086 4.89544 36.885C4.30893 36.7615 3.68063 36.9553 3.14874 37.4239C2.61685 37.8926 2.22493 38.5976 2.05923 39.3839C1.89352 40.1703 1.96759 40.9735 2.26513 41.6169C2.56268 42.2603 3.05934 42.6912 3.64584 42.8148Z" stroke="#8F8F90" stroke-width="2"/>
<path d="M2.98999 4.98001C4.08904 4.98001 4.98001 4.08907 4.98001 2.99002C4.98001 1.89097 4.08904 1 2.98999 1C1.89094 1 1 1.89097 1 2.99002C1 4.08907 1.89094 4.98001 2.98999 4.98001Z" fill="#2A2A28"/>
<path d="M3.02784 18.6778C3.19617 20.426 4.20611 21.759 5.2836 21.6553C6.3611 21.5515 7.09812 20.0503 6.92979 18.3021C6.76146 16.5539 5.75152 15.2208 4.67402 15.3246C3.59653 15.4283 2.85951 16.9296 3.02784 18.6778Z" fill="#1E1E21"/>
<path d="M2.05781 39.3844C1.71274 41.0219 2.4231 42.5579 3.64444 42.8153C4.86578 43.0727 6.1356 41.9539 6.48067 40.3164C6.82574 38.679 6.11538 37.1429 4.89404 36.8855C3.6727 36.6282 2.40288 37.7469 2.05781 39.3844Z" fill="#1E1E21"/>
</svg>
