<svg width="139" height="133" viewBox="0 0 139 133" fill="none" xmlns="http://www.w3.org/2000/svg">
<path d="M91.2611 63.0697C85.2711 68.1297 74.6811 63.7898 81.0611 55.3898C87.3811 47.0798 93.4111 40.9598 93.0011 29.5598C92.985 29.1243 92.8173 28.7081 92.527 28.3831C92.2367 28.0581 91.842 27.8447 91.4111 27.7798C85.5111 26.8598 78.1611 36.4098 74.1511 40.7498C68.2211 47.1798 59.5811 43.6898 55.2811 37.5798C54.4145 36.3531 54.1878 35.0131 54.6011 33.5598C56.3811 27.3198 64.6011 7.32976 60.8411 2.14976C59.5945 0.443093 57.8445 0.636413 55.5911 2.72975C49.5911 8.31975 45.6211 14.2698 38.6111 19.8598C33.9011 23.6298 31.2511 26.8497 35.5311 32.3197C47.3411 47.4097 58.3911 60.8798 71.1511 74.5798C82.2578 86.5064 93.3845 98.4131 104.531 110.3C109.801 115.93 120.261 119.52 124.331 110.85C124.911 109.623 124.784 108.466 123.951 107.38L118.491 100.34C118.213 99.9817 118.053 99.544 118.033 99.0861C118.014 98.6282 118.135 98.1721 118.381 97.7798C122.731 90.8798 134.561 88.4298 137.461 81.9998C138.161 80.4531 137.738 79.3264 136.191 78.6198C127.491 74.6198 114.971 77.7597 106.901 82.0397C105.768 82.6397 104.668 82.6231 103.601 81.9898C101.721 80.8764 100.131 79.4698 98.8311 77.7698C98.6176 77.4919 98.5048 77.1428 98.5111 76.7798C98.6111 68.4998 112.151 65.9198 113.241 58.3398C114.441 50.0598 105.331 52.9097 101.701 55.2897C98.0545 57.6697 94.5744 60.2631 91.2611 63.0697Z" stroke="#8A8C90" stroke-width="2"/>
<path d="M40.3201 79.82C54.3601 97.55 71.6601 110.3 86.4101 128.45C90.2301 133.15 99.1901 131.74 99.4201 125.05C99.5334 121.697 98.2668 118.657 95.6201 115.93C86.3901 106.43 76.3601 94.23 67.2201 84.47C58.7001 75.38 50.1701 66.8 42.5401 56.79C33.5901 45.04 26.4101 35.79 16.8701 25.55C10.0401 18.23 -6.01989 25.07 4.45011 37.38C16.4701 51.52 26.4501 62.28 40.3201 79.82Z" stroke="#8A8C90" stroke-width="2"/>
<path d="M81.0611 55.3898C74.6811 63.7897 85.2711 68.1297 91.2611 63.0697C94.5744 60.2631 98.0545 57.6697 101.701 55.2897C105.331 52.9097 114.441 50.0598 113.241 58.3398C112.151 65.9198 98.6111 68.4998 98.5111 76.7798C98.5048 77.1428 98.6176 77.4919 98.8311 77.7698C100.131 79.4697 101.721 80.8764 103.601 81.9898C104.668 82.6231 105.768 82.6397 106.901 82.0397C114.971 77.7597 127.491 74.6198 136.191 78.6198C137.738 79.3264 138.161 80.4531 137.461 81.9998C134.561 88.4298 122.731 90.8798 118.381 97.7798C118.135 98.1721 118.014 98.6282 118.033 99.0861C118.053 99.544 118.213 99.9817 118.491 100.34L123.951 107.38C124.784 108.466 124.911 109.623 124.331 110.85C120.261 119.52 109.801 115.93 104.531 110.3C93.3845 98.4131 82.2578 86.5064 71.1511 74.5798C58.3911 60.8797 47.3411 47.4097 35.5311 32.3197C31.2511 26.8497 33.9011 23.6298 38.6111 19.8598C45.6211 14.2698 49.5911 8.31975 55.5911 2.72975C57.8445 0.636413 59.5945 0.443093 60.8411 2.14976C64.6011 7.32976 56.3811 27.3198 54.6011 33.5598C54.1878 35.0131 54.4145 36.3531 55.2811 37.5798C59.5811 43.6898 68.2211 47.1798 74.1511 40.7498C78.1611 36.4098 85.5111 26.8598 91.4111 27.7798C91.842 27.8447 92.2367 28.0581 92.527 28.3831C92.8173 28.7081 92.985 29.1243 93.0011 29.5598C93.4111 40.9598 87.3811 47.0798 81.0611 55.3898Z" fill="#151E30"/>
<path d="M86.4101 128.449C71.6601 110.299 54.3601 97.5495 40.3201 79.8195C26.4501 62.2795 16.4701 51.5195 4.45011 37.3795C-6.01989 25.0695 10.0401 18.2295 16.8701 25.5495C26.4101 35.7895 33.5901 45.0395 42.5401 56.7895C50.1701 66.7995 58.7001 75.3795 67.2201 84.4695C76.3601 94.2295 86.3901 106.43 95.6201 115.93C98.2668 118.656 99.5334 121.696 99.4201 125.049C99.1901 131.739 90.2301 133.149 86.4101 128.449Z" fill="#151E30"/>
</svg>
