<svg width="176" height="134" viewBox="0 0 176 134" fill="none" xmlns="http://www.w3.org/2000/svg">
<path d="M41.6111 46.0537C31.4911 44.7671 25.0778 48.9838 22.3711 58.7038" stroke="#FFECA1" stroke-width="2"/>
<path d="M22.3722 58.7043C18.6056 67.4577 15.8323 76.5177 14.0523 85.8843C12.7323 92.8177 11.7089 97.3843 10.9823 99.5843C8.94225 105.784 6.23559 111.684 2.86226 117.284C0.662255 120.934 -0.357741 125.234 4.27226 127.164C9.42226 129.314 17.7523 123.104 22.3223 121.264C29.5556 118.358 37.0756 116.468 44.8823 115.594C50.4623 114.974 54.8423 118.434 60.7323 121.964C89.8523 139.434 148.772 134.794 168.082 103.474C175.612 91.2644 175.352 78.5443 173.682 63.5243C172.142 49.6743 168.042 39.6343 162.222 24.8243C160.422 20.2543 159.562 15.6243 158.642 10.8843C157.862 6.91433 159.442 3.30433 154.292 1.07433C154.153 1.01528 154 0.990883 153.845 1.00304C153.691 1.0152 153.539 1.06358 153.402 1.14434C142.832 7.41434 148.052 30.6244 147.222 40.9744C146.202 53.5244 141.402 68.7143 128.942 73.8743C110.482 81.5243 92.2323 77.0043 77.0223 64.8743C68.0023 57.6843 60.5323 49.1143 51.3623 46.5543C49.2289 45.961 45.9789 45.7943 41.6123 46.0543" stroke="#8C8A91" stroke-width="2"/>
<path d="M22.3711 58.7041C29.1411 96.8441 59.9211 127.164 100.091 125.584C126.621 124.544 156.051 114.544 163.591 86.2541C165.131 80.4641 166.581 70.3441 160.791 66.5741C152.811 61.3641 147.131 73.4041 144.631 78.8441C135.161 99.4841 112.621 106.014 91.3511 102.514C88.0844 101.981 85.4678 101.061 83.5011 99.7541" stroke="#8D7736" stroke-width="2"/>
<path d="M83.5036 99.7544C84.8636 97.4077 85.2703 95.5744 84.7236 94.2544C82.3303 88.4211 78.4003 87.0978 72.9336 90.2844C71.8536 90.9178 71.0203 92.5211 70.4336 95.0944" stroke="#8D6932" stroke-width="2"/>
<path d="M70.4333 95.0947C49.1533 83.9547 42.6733 69.4647 41.6133 46.0547" stroke="#8D7736" stroke-width="2"/>
<path d="M70.4336 95.0938C74.1603 98.1937 78.5169 99.7471 83.5036 99.7537" stroke="#FFCB41" stroke-width="2"/>
<path d="M64.8929 72.2568C65.2394 70.7064 64.8963 69.0685 63.9389 67.7034C62.9815 66.3384 61.4883 65.3579 59.7878 64.9778C58.9458 64.7896 58.0782 64.7544 57.2347 64.8743C56.3911 64.9942 55.588 65.2668 54.8713 65.6766C54.1545 66.0863 53.5382 66.6252 53.0574 67.2624C52.5767 67.8996 52.2409 68.6226 52.0693 69.3903C51.7228 70.9407 52.0659 72.5786 53.0233 73.9437C53.9807 75.3087 55.4739 76.2891 57.1744 76.6692C58.0164 76.8575 58.884 76.8926 59.7276 76.7728C60.5711 76.6529 61.3742 76.3802 62.0909 75.9705C62.8077 75.5608 63.424 75.0219 63.9048 74.3847C64.3855 73.7475 64.7213 73.0244 64.8929 72.2568Z" stroke="#8D7736" stroke-width="2"/>
<path d="M119.482 92.1285C119.814 90.6808 119.486 89.1444 118.571 87.8574C117.655 86.5703 116.227 85.638 114.601 85.2656C113.796 85.0812 112.967 85.0398 112.16 85.1438C111.353 85.2477 110.585 85.495 109.9 85.8715C109.214 86.248 108.625 86.7463 108.165 87.338C107.705 87.9298 107.384 88.6033 107.22 89.3201C106.888 90.7678 107.216 92.3042 108.132 93.5913C109.047 94.8783 110.475 95.8106 112.101 96.183C112.906 96.3674 113.736 96.4088 114.542 96.3048C115.349 96.2009 116.117 95.9536 116.803 95.5771C117.488 95.2006 118.077 94.7023 118.537 94.1106C118.997 93.5189 119.318 92.8454 119.482 92.1285Z" stroke="#8D6F33" stroke-width="2"/>
<path d="M22.3683 58.7043C29.1383 96.8443 59.9184 127.164 100.088 125.584C126.618 124.544 156.048 114.544 163.588 86.2543C165.128 80.4643 166.578 70.3443 160.788 66.5743C152.808 61.3643 147.128 73.4044 144.628 78.8444C135.158 99.4844 112.618 106.014 91.3484 102.514C88.0817 101.981 85.465 101.061 83.4984 99.7543C84.8584 97.4077 85.265 95.5743 84.7184 94.2543C82.325 88.421 78.395 87.0977 72.9284 90.2844C71.8484 90.9177 71.015 92.521 70.4284 95.0944C49.1484 83.9544 42.6684 69.4643 41.6083 46.0543C45.975 45.7943 49.225 45.961 51.3583 46.5543C60.5284 49.1143 67.9984 57.6843 77.0184 64.8743C92.2284 77.0043 110.478 81.5243 128.938 73.8743C141.398 68.7143 146.198 53.5244 147.218 40.9744C148.048 30.6244 142.828 7.41434 153.398 1.14434C153.535 1.06358 153.687 1.0152 153.841 1.00304C153.996 0.990883 154.149 1.01528 154.288 1.07433C159.438 3.30433 157.858 6.91433 158.638 10.8843C159.558 15.6243 160.418 20.2543 162.218 24.8243C168.038 39.6343 172.138 49.6743 173.678 63.5243C175.348 78.5443 175.608 91.2644 168.078 103.474C148.768 134.794 89.8483 139.434 60.7283 121.964C54.8383 118.434 50.4584 114.974 44.8784 115.594C37.0717 116.468 29.5517 118.358 22.3184 121.264C17.7484 123.104 9.41835 129.314 4.26835 127.164C-0.361647 125.234 0.658349 120.934 2.85835 117.284C6.23168 111.684 8.93834 105.784 10.9783 99.5843C11.705 97.3843 12.7284 92.8177 14.0484 85.8843C15.8284 76.5177 18.6017 67.4577 22.3683 58.7043ZM64.8901 72.2576C65.2367 70.7072 64.8935 69.0693 63.9361 67.7042C62.9787 66.3392 61.4855 65.3587 59.785 64.9786C58.943 64.7904 58.0755 64.7552 57.2319 64.8751C56.3883 64.995 55.5852 65.2676 54.8685 65.6774C54.1518 66.0871 53.5354 66.626 53.0547 67.2632C52.5739 67.9004 52.2382 68.6234 52.0666 69.3911C51.72 70.9415 52.0632 72.5794 53.0206 73.9445C53.978 75.3095 55.4711 76.2899 57.1716 76.67C58.0136 76.8583 58.8812 76.8934 59.7248 76.7736C60.5684 76.6537 61.3715 76.381 62.0882 75.9713C62.8049 75.5616 63.4213 75.0227 63.902 74.3855C64.3828 73.7483 64.7185 73.0252 64.8901 72.2576ZM119.48 92.1285C119.811 90.6808 119.483 89.1445 118.568 87.8574C117.652 86.5704 116.225 85.6381 114.599 85.2656C113.793 85.0812 112.964 85.0398 112.157 85.1438C111.35 85.2477 110.582 85.495 109.897 85.8715C109.212 86.248 108.622 86.7464 108.162 87.3381C107.702 87.9298 107.381 88.6033 107.217 89.3201C106.886 90.7678 107.214 92.3043 108.129 93.5913C109.044 94.8783 110.472 95.8106 112.098 96.183C112.903 96.3674 113.733 96.4088 114.54 96.3049C115.346 96.2009 116.114 95.9536 116.8 95.5771C117.485 95.2006 118.075 94.7023 118.534 94.1106C118.994 93.5189 119.315 92.8454 119.48 92.1285Z" fill="#1A1526"/>
<path d="M41.6111 46.0547C42.6711 69.4647 49.1511 83.9548 70.4311 95.0948C74.1578 98.1948 78.5144 99.7481 83.5011 99.7547C85.4678 101.061 88.0844 101.981 91.3511 102.515C112.621 106.015 135.161 99.4848 144.631 78.8448C147.131 73.4048 152.811 61.3647 160.791 66.5747C166.581 70.3447 165.131 80.4647 163.591 86.2547C156.051 114.545 126.621 124.545 100.091 125.585C59.9211 127.165 29.1411 96.8447 22.3711 58.7047C25.0778 48.9847 31.4911 44.768 41.6111 46.0547Z" fill="#FFD945"/>
<path d="M57.1734 76.6706C60.7145 77.4621 64.1702 75.4866 64.8919 72.258C65.6135 69.0295 63.3279 65.7706 59.7868 64.9791C56.2456 64.1876 52.79 66.1631 52.0683 69.3916C51.3467 72.6202 53.6323 75.879 57.1734 76.6706Z" fill="#FFD945"/>
<path d="M112.1 96.1829C115.486 96.9584 118.791 95.1432 119.481 92.1285C120.172 89.1137 117.986 86.0411 114.6 85.2656C111.214 84.49 107.909 86.3053 107.219 89.32C106.528 92.3347 108.713 95.4074 112.1 96.1829Z" fill="#FFC940"/>
<path d="M83.4997 99.7544C78.513 99.7477 74.1564 98.1944 70.4297 95.0944C71.0164 92.5211 71.8497 90.9178 72.9297 90.2844C78.3964 87.0978 82.3263 88.4211 84.7197 94.2544C85.2663 95.5744 84.8597 97.4077 83.4997 99.7544Z" fill="#FFBC3D"/>
</svg>
