<svg width="14" height="16" viewBox="0 0 14 16" fill="none" xmlns="http://www.w3.org/2000/svg">
<path d="M7.17423 14.2757C8.65791 14.2083 10.0501 13.468 11.0446 12.2176C12.0391 10.9672 12.5545 9.30924 12.4772 7.6083C12.4 5.90737 11.7366 4.30284 10.6328 3.14773C9.5291 1.99262 8.07551 1.38153 6.59183 1.44888C5.10815 1.51625 3.71593 2.25661 2.72142 3.50698C1.72692 4.75736 1.2116 6.41537 1.28883 8.1163C1.36606 9.81723 2.02952 11.4218 3.13324 12.5769C4.23697 13.732 5.69056 14.3431 7.17423 14.2757Z" stroke="#FBACA0" stroke-width="2"/>
<path d="M1.29026 8.11628C1.4511 11.6583 4.08611 14.4159 7.17573 14.2756C10.2653 14.1353 12.6396 11.1502 12.4787 7.60822C12.3179 4.0662 9.68288 1.30856 6.59326 1.44886C3.50365 1.58916 1.12942 4.57426 1.29026 8.11628Z" fill="#F75940"/>
</svg>
