<svg width="181" height="173" viewBox="0 0 181 173" fill="none" xmlns="http://www.w3.org/2000/svg">
<path d="M56.8076 50.0645C51.321 51.7511 45.751 53.0978 40.0977 54.1044" stroke="#EBB4A7" stroke-width="2"/>
<path d="M40.0983 54.1045C30.8316 55.6845 23.135 59.3845 17.0083 65.2045C-8.22171 89.1545 -1.78172 131.305 23.4383 152.305C38.4883 164.845 56.0983 173.545 76.3283 170.885" stroke="#FEB4A4" stroke-width="2"/>
<path d="M76.3281 170.885C80.3081 170.872 84.2348 170.445 88.1081 169.605C106.641 165.605 123.941 158.572 140.008 148.505" stroke="#EBB4A7" stroke-width="2"/>
<path d="M140.008 148.504C155.488 137.534 165.658 113.084 170.138 94.5645" stroke="#FEB4A4" stroke-width="2"/>
<path d="M170.137 94.5645C171.723 89.6578 172.66 84.6378 172.947 79.5045C173.077 77.0845 174.017 74.5045 173.977 71.8245C173.857 64.6545 174.107 57.5045 173.807 50.3145" stroke="#F8DBCF" stroke-width="2"/>
<path d="M173.807 50.3146C174.147 41.5546 176.547 32.6346 177.457 24.8446C178.007 20.2346 182.847 -0.0754128 174.317 1.04459C166.607 2.04459 162.997 16.7346 161.577 23.0446C161.177 24.8379 160.097 25.9946 158.337 26.5146C142.847 31.1346 136.407 34.7646 139.027 52.6446C139.075 52.9601 139.028 53.2821 138.892 53.569C138.757 53.8559 138.539 54.0947 138.267 54.2546C130.227 59.0246 127.947 67.9846 128.647 76.8246C128.675 77.1753 128.572 77.5238 128.358 77.8028C128.143 78.0818 127.833 78.2713 127.487 78.3346C123.857 78.9946 119.477 79.4646 116.507 81.3246C109.827 85.4946 110.327 92.3646 110.307 100.205C110.306 100.268 110.292 100.331 110.265 100.389C110.239 100.446 110.2 100.499 110.153 100.542C110.105 100.584 110.049 100.618 109.988 100.639C109.927 100.66 109.862 100.669 109.797 100.665C98.5071 100.045 90.0971 105.095 85.2771 115.005C80.6471 124.515 77.0871 132.205 66.2271 135.585C61.3671 137.105 52.3671 138.875 50.8471 131.625C50.1938 128.498 50.4904 125.511 51.7371 122.665C51.8609 122.378 52.0767 122.127 52.3571 121.945C61.9371 115.845 73.4771 106.115 63.0271 94.1146C60.4771 91.1946 51.7971 85.0246 51.6371 81.7946C51.6178 81.4894 51.4914 81.1877 51.2771 80.9346C48.4171 77.6746 52.4471 73.5746 55.2971 71.5246C66.5171 63.4446 76.0571 54.7646 79.4871 40.7846C80.0771 38.4046 78.2171 38.1446 76.6571 39.3446C70.6171 43.9512 64.0004 47.5246 56.8071 50.0646" stroke="#FEB4A4" stroke-width="2"/>
<path d="M173.807 50.3145C173.447 53.3545 173.21 59.4378 173.097 68.5645C173.023 74.2378 172.037 82.9045 170.137 94.5645" stroke="#F89684" stroke-width="2"/>
<path d="M140.008 148.505C139.348 147.711 138.715 147.498 138.108 147.865C123.668 156.538 108.471 162.871 92.5181 166.865C92.4781 166.871 89.8381 167.325 84.5981 168.225C81.7114 168.718 78.9548 169.605 76.3281 170.885" stroke="#EB6E5C" stroke-width="2"/>
<path d="M40.0959 54.1044L40.0859 54.6644C40.0859 54.7274 40.0985 54.7899 40.123 54.8477C40.1475 54.9056 40.1834 54.9577 40.2284 55.0008C40.2734 55.0439 40.3266 55.0772 40.3847 55.0984C40.4427 55.1197 40.5044 55.1286 40.5659 55.1245C45.8926 54.8111 51.0793 53.8211 56.1259 52.1544C56.2249 52.1222 56.3168 52.0459 56.3912 51.9344C56.4655 51.8228 56.5192 51.6807 56.546 51.5244L56.8059 50.0645" stroke="#EB6E5C" stroke-width="2"/>
<path d="M16.6454 124.785C26.3554 151.765 56.3154 164.085 83.0954 157.825C96.3487 154.731 108.909 150.855 120.775 146.195C129.695 142.685 135.245 138.575 140.245 130.975C147.585 119.815 150.655 109.455 153.945 95.2847C156.845 82.8314 158.592 70.2014 159.185 57.3947C159.515 50.3347 160.065 45.3047 161.515 39.2347C161.535 39.1505 161.537 39.063 161.521 38.9777C161.505 38.8925 161.471 38.8115 161.421 38.7399C161.371 38.6683 161.306 38.6077 161.231 38.562C161.156 38.5164 161.073 38.4866 160.985 38.4747C157.015 37.9547 151.735 38.5847 149.455 42.2147C146.645 46.6947 150.955 55.7347 151.925 60.9947C152.285 62.9347 151.479 63.8781 149.505 63.8247C146.525 63.7447 140.875 62.0447 140.385 67.0747C140.099 69.9814 140.099 72.8981 140.385 75.8247C140.725 79.2747 143.065 81.2747 145.445 83.4647C148.155 85.9647 147.205 90.2147 144.155 91.8147C140.795 93.5847 132.595 91.5347 129.145 90.3547C127.539 89.8014 126.695 90.3714 126.615 92.0647C126.205 100.415 128.995 106.395 132.105 113.805C133.885 118.045 134.645 125.945 128.075 126.315C119.185 126.815 105.105 107.845 98.3054 120.295C90.6187 134.361 79.302 143.745 64.3554 148.445C52.3654 152.225 38.2454 148.035 35.1454 134.675C32.0354 121.275 41.8154 115.615 51.6354 109.105C62.4754 101.915 47.5554 94.4147 42.0554 93.3847C40.1554 93.0314 38.5787 93.588 37.3254 95.0547C34.2654 98.6047 29.5154 105.805 25.3554 106.885C25.1747 106.932 24.9862 106.941 24.8021 106.911C24.6179 106.881 24.4423 106.813 24.2867 106.711C24.131 106.609 23.9988 106.476 23.8987 106.32C23.7985 106.163 23.7326 105.988 23.7054 105.805C20.9754 87.4547 30.8754 78.0947 44.2554 68.0347C46.022 66.708 45.8954 65.5981 43.8754 64.7047C40.4654 63.2047 34.3254 65.9247 31.1254 68.3247C12.0254 82.6847 8.83535 103.125 16.6454 124.785Z" stroke="#FEB4A4" stroke-width="2"/>
<path d="M173.808 50.3146C173.448 53.3546 173.212 59.4379 173.098 68.5646C173.025 74.2379 172.038 82.9046 170.138 94.5646C165.658 113.085 155.488 137.535 140.008 148.505C139.348 147.711 138.715 147.498 138.108 147.865C123.668 156.538 108.472 162.871 92.5183 166.865C92.4783 166.871 89.8383 167.325 84.5983 168.225C81.7116 168.718 78.955 169.605 76.3283 170.885C56.0983 173.545 38.4883 164.845 23.4383 152.305C-1.78172 131.305 -8.22171 89.1546 17.0083 65.2046C23.135 59.3846 30.8316 55.6846 40.0983 54.1046L40.0883 54.6646C40.0882 54.7276 40.1008 54.79 40.1254 54.8478C40.1499 54.9057 40.1858 54.9578 40.2308 55.0009C40.2758 55.044 40.3289 55.0773 40.387 55.0986C40.4451 55.1198 40.5068 55.1287 40.5683 55.1246C45.895 54.8112 51.0816 53.8212 56.1283 52.1546C56.2272 52.1223 56.3192 52.046 56.3935 51.9345C56.4679 51.823 56.5215 51.6808 56.5483 51.5246L56.8083 50.0646C64.0016 47.5246 70.6183 43.9512 76.6583 39.3446C78.2183 38.1446 80.0783 38.4046 79.4883 40.7846C76.0583 54.7646 66.5183 63.4446 55.2983 71.5246C52.4483 73.5746 48.4183 77.6746 51.2783 80.9346C51.4926 81.1877 51.6189 81.4894 51.6383 81.7946C51.7983 85.0246 60.4783 91.1946 63.0283 94.1146C73.4783 106.115 61.9383 115.845 52.3583 121.945C52.0779 122.127 51.8621 122.378 51.7383 122.665C50.4916 125.511 50.195 128.498 50.8483 131.625C52.3683 138.875 61.3683 137.105 66.2283 135.585C77.0883 132.205 80.6483 124.515 85.2783 115.005C90.0983 105.095 98.5083 100.045 109.798 100.665C109.863 100.669 109.928 100.66 109.989 100.639C110.05 100.618 110.106 100.584 110.154 100.542C110.202 100.499 110.24 100.446 110.266 100.389C110.293 100.331 110.307 100.268 110.308 100.205C110.328 92.3646 109.828 85.4946 116.508 81.3246C119.478 79.4646 123.858 78.9946 127.488 78.3346C127.834 78.2713 128.145 78.0818 128.359 77.8028C128.573 77.5238 128.676 77.1753 128.648 76.8246C127.948 67.9846 130.228 59.0246 138.268 54.2546C138.54 54.0947 138.758 53.8559 138.893 53.569C139.029 53.2821 139.076 52.9601 139.028 52.6446C136.408 34.7646 142.848 31.1346 158.338 26.5146C160.098 25.9946 161.178 24.8379 161.578 23.0446C162.998 16.7346 166.608 2.04459 174.318 1.04459C182.848 -0.0754128 178.008 20.2346 177.458 24.8446C176.548 32.6346 174.148 41.5546 173.808 50.3146ZM16.6483 124.785C26.3583 151.765 56.3183 164.085 83.0983 157.825C96.3516 154.731 108.912 150.855 120.778 146.195C129.698 142.685 135.248 138.575 140.248 130.975C147.588 119.815 150.658 109.455 153.948 95.2845C156.848 82.8312 158.595 70.2013 159.188 57.3946C159.518 50.3346 160.068 45.3046 161.518 39.2346C161.538 39.1504 161.54 39.0628 161.524 38.9776C161.508 38.8924 161.474 38.8113 161.424 38.7397C161.374 38.6681 161.309 38.6076 161.234 38.5619C161.159 38.5162 161.075 38.4865 160.988 38.4746C157.018 37.9546 151.738 38.5846 149.458 42.2146C146.648 46.6946 150.958 55.7346 151.928 60.9946C152.288 62.9346 151.482 63.8779 149.508 63.8246C146.528 63.7446 140.878 62.0446 140.388 67.0746C140.102 69.9813 140.102 72.8979 140.388 75.8246C140.728 79.2746 143.068 81.2746 145.448 83.4646C148.158 85.9646 147.208 90.2146 144.158 91.8146C140.798 93.5846 132.598 91.5346 129.148 90.3546C127.542 89.8012 126.698 90.3712 126.618 92.0646C126.208 100.415 128.998 106.395 132.108 113.805C133.888 118.045 134.648 125.945 128.078 126.315C119.188 126.815 105.108 107.845 98.3083 120.295C90.6216 134.361 79.305 143.745 64.3583 148.445C52.3683 152.225 38.2483 148.035 35.1483 134.675C32.0383 121.275 41.8183 115.615 51.6383 109.105C62.4783 101.915 47.5583 94.4146 42.0583 93.3846C40.1583 93.0312 38.5816 93.5879 37.3283 95.0546C34.2683 98.6046 29.5183 105.805 25.3583 106.885C25.1776 106.932 24.9891 106.941 24.805 106.911C24.6209 106.881 24.4452 106.813 24.2896 106.711C24.134 106.609 24.0018 106.476 23.9016 106.319C23.8014 106.163 23.7356 105.988 23.7083 105.805C20.9783 87.4546 30.8783 78.0945 44.2583 68.0345C46.025 66.7079 45.8983 65.5979 43.8783 64.7046C40.4683 63.2046 34.3283 65.9246 31.1283 68.3246C12.0283 82.6846 8.83827 103.125 16.6483 124.785Z" fill="#FE6E59"/>
<path d="M56.8059 50.0645L56.546 51.5244C56.5192 51.6807 56.4655 51.8228 56.3912 51.9344C56.3168 52.0459 56.2249 52.1222 56.1259 52.1544C51.0793 53.8211 45.8926 54.8111 40.5659 55.1245C40.5044 55.1286 40.4427 55.1197 40.3847 55.0984C40.3266 55.0772 40.2734 55.0439 40.2284 55.0008C40.1834 54.9577 40.1475 54.9056 40.123 54.8477C40.0985 54.7899 40.0859 54.7274 40.0859 54.6644L40.0959 54.1044C45.7493 53.0978 51.3193 51.7511 56.8059 50.0645Z" fill="#D86E5E"/>
<path d="M173.807 50.3145C174.107 57.5045 173.857 64.6545 173.977 71.8245C174.017 74.5045 173.077 77.0845 172.947 79.5045C172.66 84.6378 171.723 89.6578 170.137 94.5645C172.037 82.9045 173.023 74.2378 173.097 68.5645C173.21 59.4378 173.447 53.3545 173.807 50.3145Z" fill="#F2BDAF"/>
<path d="M140.008 148.505C123.941 158.571 106.641 165.605 88.1081 169.605C84.2348 170.445 80.3081 170.871 76.3281 170.885C78.9548 169.605 81.7114 168.718 84.5981 168.225C89.8381 167.325 92.4781 166.871 92.5181 166.865C108.471 162.871 123.668 156.538 138.108 147.865C138.715 147.498 139.348 147.711 140.008 148.505Z" fill="#D86E5E"/>
<path d="M83.0993 157.824C56.3193 164.084 26.3593 151.764 16.6493 124.784C8.83926 103.124 12.0293 82.6842 31.1293 68.3242C34.3293 65.9242 40.4693 63.2043 43.8793 64.7043C45.8993 65.5976 46.0259 66.7075 44.2593 68.0342C30.8793 78.0942 20.9793 87.4542 23.7093 105.804C23.7365 105.988 23.8024 106.163 23.9026 106.319C24.0027 106.475 24.1349 106.609 24.2906 106.71C24.4462 106.812 24.6218 106.88 24.806 106.91C24.9901 106.94 25.1786 106.931 25.3593 106.884C29.5193 105.804 34.2693 98.6042 37.3293 95.0542C38.5826 93.5876 40.1593 93.0309 42.0593 93.3842C47.5593 94.4142 62.4793 101.914 51.6393 109.104C41.8193 115.614 32.0393 121.274 35.1493 134.674C38.2493 148.034 52.3693 152.224 64.3593 148.444C79.306 143.744 90.6226 134.361 98.3093 120.294C105.109 107.844 119.189 126.814 128.079 126.314C134.649 125.944 133.889 118.044 132.109 113.804C128.999 106.394 126.209 100.414 126.619 92.0642C126.699 90.3709 127.543 89.8009 129.149 90.3542C132.599 91.5342 140.799 93.5842 144.159 91.8142C147.209 90.2142 148.159 85.9643 145.449 83.4643C143.069 81.2743 140.729 79.2742 140.389 75.8242C140.103 72.8976 140.103 69.9809 140.389 67.0742C140.879 62.0442 146.529 63.7442 149.509 63.8242C151.483 63.8776 152.289 62.9342 151.929 60.9942C150.959 55.7342 146.649 46.6942 149.459 42.2142C151.739 38.5842 157.019 37.9542 160.989 38.4742C161.076 38.4861 161.16 38.5159 161.235 38.5616C161.31 38.6072 161.375 38.6678 161.425 38.7394C161.475 38.811 161.509 38.892 161.525 38.9773C161.541 39.0625 161.539 39.15 161.519 39.2342C160.069 45.3042 159.519 50.3343 159.189 57.3943C158.596 70.2009 156.849 82.8309 153.949 95.2842C150.659 109.454 147.589 119.814 140.249 130.974C135.249 138.574 129.699 142.684 120.779 146.194C108.913 150.854 96.3526 154.731 83.0993 157.824Z" fill="#FEF9EF"/>
</svg>
