<svg width="135" height="226" viewBox="0 0 135 226" fill="none" xmlns="http://www.w3.org/2000/svg">
<path d="M104.505 192.128C103.665 184.808 101.592 176.638 98.2849 167.618C97.1515 164.518 96.5448 160.535 96.4648 155.668" stroke="#9798A7" stroke-width="2"/>
<path d="M96.4648 155.668C98.0548 146.848 105.995 144.898 113.545 140.418" stroke="#8A8997" stroke-width="2"/>
<path d="M113.543 140.418C130.476 131.452 136.393 117.452 131.293 98.4185" stroke="#9798A7" stroke-width="2"/>
<path d="M131.294 98.4189C126.744 85.6589 116.224 78.7189 105.754 71.8789" stroke="#8A8997" stroke-width="2"/>
<path d="M105.754 71.8789C92.4239 60.8489 107.374 39.3089 96.5039 24.3789" stroke="#9798A7" stroke-width="2"/>
<path d="M96.5039 24.3789C93.5239 19.8389 89.6072 16.3389 84.7539 13.8789" stroke="#8F8D9E" stroke-width="2"/>
<path d="M84.7528 13.8786C80.0461 9.87861 76.6994 7.39861 74.7128 6.43861C55.7428 -2.72139 32.8728 -0.211394 16.5628 13.2186C6.79278 21.2486 1.68278 33.2986 11.5928 43.8586C15.4528 47.9686 21.1928 53.4186 20.5328 59.4186C19.6728 67.1486 13.4728 72.4086 8.31278 77.8086C-5.54722 92.2986 9.9828 100.309 21.2028 107.469C24.3961 109.509 26.0961 112.432 26.3028 116.239C27.0328 129.679 9.96278 132.509 3.53278 141.229C0.119451 145.869 0.156134 150.699 3.6428 155.719C9.9828 164.859 20.9728 164.289 17.0228 179.079C15.7128 183.989 13.9428 189.089 14.2028 194.029C14.8295 206.049 20.8795 214.399 32.3528 219.079C52.0828 227.119 83.8028 229.249 98.7228 210.189C102.803 204.982 104.729 198.962 104.503 192.129" stroke="#BEE4D2" stroke-width="2"/>
<path d="M84.7539 13.8789L81.0039 12.8789" stroke="#4F7582" stroke-width="2"/>
<path d="M81.0052 12.8788C74.5052 10.6688 64.0652 11.5588 58.0652 12.4788C51.9152 13.4288 51.8052 21.1288 59.3852 19.5988C62.3852 18.9988 65.4252 18.3888 68.3252 19.7688C76.0852 23.4555 80.5685 29.4421 81.7752 37.7288C82.6852 43.9888 79.8252 52.2388 80.0052 57.4388C80.7252 78.1988 102.155 84.1288 110.095 100.589C114.475 109.679 110.305 119.549 102.745 125.179C89.1952 135.269 70.9252 143.679 78.5052 164.689C81.2652 172.342 84.0418 179.992 86.8352 187.639C87.9885 190.779 87.1185 193.152 84.2252 194.759C84.0832 194.836 83.9333 194.883 83.7886 194.895C83.644 194.907 83.5089 194.885 83.3952 194.829L77.8052 192.059C77.4347 191.883 77.0745 191.807 76.7752 191.839C71.6952 192.479 72.2452 196.789 75.8252 198.819C82.3352 202.499 93.9552 204.689 97.0652 195.389C97.1167 195.237 97.2034 195.104 97.3161 195.001C97.4288 194.899 97.5632 194.833 97.7052 194.809C100.155 194.349 102.945 195.259 104.505 192.129" stroke="#57808B" stroke-width="2"/>
<path d="M81.0047 12.8789C80.2514 13.2856 79.9714 13.8889 80.1647 14.6889C80.1945 14.8249 80.2676 14.9531 80.3766 15.0603C80.4856 15.1676 80.6265 15.2499 80.7847 15.2989C86.7147 17.1489 89.6247 20.7689 93.8447 24.3589C93.9961 24.4886 94.1561 24.5881 94.311 24.6491C94.466 24.71 94.6113 24.7305 94.7347 24.7089L96.5047 24.3789" stroke="#282957" stroke-width="2"/>
<path d="M105.752 71.8789C104.965 72.9789 105.199 73.9289 106.452 74.7289C115.552 80.5489 124.372 86.8289 129.002 98.2089C129.066 98.3652 129.161 98.5018 129.278 98.6066C129.395 98.7113 129.531 98.7809 129.672 98.8089C130.345 98.9289 130.885 98.7989 131.292 98.4189" stroke="#232550" stroke-width="2"/>
<path d="M113.544 140.419C113.274 139.789 112.854 139.579 112.194 139.879C104.304 143.399 99.6943 145.089 95.8843 151.249C94.7643 153.069 94.9576 154.542 96.4643 155.669" stroke="#232550" stroke-width="2"/>
<path d="M53.1927 38.1825C53.8364 37.1838 54.01 35.94 53.6754 34.7248C53.3408 33.5096 52.5253 32.4226 51.4084 31.7028C50.2916 30.983 48.9648 30.6894 47.7199 30.8866C46.475 31.0839 45.414 31.7557 44.7704 32.7545C44.1267 33.7532 43.9531 34.997 44.2877 36.2121C44.6223 37.4273 45.4378 38.5144 46.5547 39.2342C47.6715 39.954 48.9984 40.2475 50.2433 40.0503C51.4881 39.8531 52.5491 39.1812 53.1927 38.1825Z" stroke="#567F83" stroke-width="2"/>
<path d="M42.8859 58.5789C43.1013 58.5374 43.301 58.426 43.4737 58.251C43.6463 58.076 43.7885 57.8408 43.8921 57.5589C43.9958 57.277 44.0588 56.9539 44.0777 56.608C44.0965 56.2622 44.0709 55.9003 44.0021 55.5431C43.9333 55.1859 43.8227 54.8404 43.6768 54.5262C43.5308 54.2121 43.3523 53.9355 43.1514 53.7122C42.9504 53.489 42.7311 53.3234 42.5058 53.2251C42.2805 53.1267 42.0537 53.0974 41.8384 53.1389C41.623 53.1803 41.4233 53.2918 41.2507 53.4668C41.078 53.6418 40.9358 53.8769 40.8322 54.1588C40.7286 54.4407 40.6655 54.7639 40.6466 55.1097C40.6278 55.4556 40.6535 55.8175 40.7223 56.1747C40.791 56.5319 40.9016 56.8774 41.0475 57.1916C41.1935 57.5057 41.372 57.7823 41.573 58.0055C41.7739 58.2288 41.9932 58.3943 42.2185 58.4927C42.4438 58.5911 42.6706 58.6204 42.8859 58.5789Z" stroke="#75C7AF" stroke-width="2"/>
<path d="M57.0347 68.5188C57.0347 67.7921 56.746 67.0952 56.2322 66.5813C55.7183 66.0675 55.0214 65.7788 54.2947 65.7788C53.568 65.7788 52.8711 66.0675 52.3572 66.5813C51.8434 67.0952 51.5547 67.7921 51.5547 68.5188C51.5547 69.2455 51.8434 69.9424 52.3572 70.4563C52.8711 70.9701 53.568 71.2588 54.2947 71.2588C55.0214 71.2588 55.7183 70.9701 56.2322 70.4563C56.746 69.9424 57.0347 69.2455 57.0347 68.5188Z" stroke="#4E7A80" stroke-width="2"/>
<path d="M41.9639 81.6987C43.2039 81.6787 43.8072 81.0854 43.7739 79.9187C43.7405 78.6987 43.0539 77.7954 41.7139 77.2087C39.9339 76.422 39.3639 77.2054 40.0039 79.5587C40.3972 80.9987 41.0505 81.712 41.9639 81.6987Z" stroke="#75C7AF" stroke-width="2"/>
<path d="M46.3926 94.6185C45.1326 96.7685 46.7925 98.5485 48.7125 99.2285C48.7706 99.2493 48.8326 99.2574 48.8936 99.2522C48.9547 99.247 49.0131 99.2287 49.0645 99.1987C49.1158 99.1687 49.1586 99.1277 49.1895 99.0791C49.2204 99.0305 49.2385 98.9756 49.2425 98.9185C49.3292 97.3385 48.9926 95.8452 48.2326 94.4385C47.6726 93.4052 47.0592 93.4652 46.3926 94.6185Z" stroke="#75C7AF" stroke-width="2"/>
<path d="M84.7349 109.609C84.7349 108.081 84.128 106.616 83.0478 105.536C81.9676 104.455 80.5025 103.849 78.9749 103.849C78.2184 103.849 77.4694 103.998 76.7706 104.287C76.0718 104.577 75.4368 105.001 74.9019 105.536C74.3671 106.071 73.9428 106.706 73.6533 107.404C73.3639 108.103 73.2148 108.852 73.2148 109.609C73.2148 110.365 73.3639 111.114 73.6533 111.813C73.9428 112.512 74.3671 113.147 74.9019 113.682C75.4368 114.216 76.0718 114.641 76.7706 114.93C77.4694 115.22 78.2184 115.369 78.9749 115.369C80.5025 115.369 81.9676 114.762 83.0478 113.682C84.128 112.601 84.7349 111.136 84.7349 109.609Z" stroke="#57808B" stroke-width="2"/>
<path d="M53.4423 113.359C53.2689 113.939 52.9423 115.329 52.4623 117.529C52.3889 117.862 52.5089 117.952 52.8223 117.799C56.8623 115.789 53.8823 111.869 53.4423 113.359Z" stroke="#75C7AF" stroke-width="2"/>
<path d="M43.5851 122.569C43.3756 122.47 43.1264 122.454 42.8731 122.522C42.6199 122.59 42.3756 122.74 42.1751 122.949C40.9618 124.202 40.0884 125.655 39.5551 127.309C39.4551 127.615 39.5451 127.679 39.8251 127.499L44.2951 124.659C44.4548 124.559 44.5858 124.433 44.6673 124.3C44.7488 124.168 44.7762 124.037 44.7451 123.929C44.5651 123.302 44.1784 122.849 43.5851 122.569Z" stroke="#75C7AF" stroke-width="2"/>
<path d="M57.3578 148.042C57.7829 147.766 58.1378 147.391 58.4022 146.938C58.6666 146.486 58.8353 145.964 58.8988 145.404C58.9622 144.843 58.919 144.255 58.7718 143.672C58.6246 143.089 58.3761 142.523 58.0407 142.007C57.7053 141.49 57.2894 141.033 56.8168 140.661C56.3442 140.29 55.8241 140.011 55.2863 139.841C54.7485 139.671 54.2034 139.613 53.6823 139.67C53.1612 139.728 52.6741 139.899 52.249 140.176C51.8239 140.452 51.469 140.827 51.2046 141.279C50.9402 141.732 50.7715 142.254 50.7081 142.814C50.6446 143.375 50.6878 143.963 50.835 144.546C50.9822 145.129 51.2307 145.695 51.5661 146.211C51.9016 146.728 52.3175 147.185 52.7901 147.556C53.2627 147.928 53.7827 148.207 54.3205 148.377C54.8583 148.547 55.4033 148.605 55.9245 148.547C56.4456 148.49 56.9327 148.318 57.3578 148.042Z" stroke="#567F83" stroke-width="2"/>
<path d="M34.3964 145.959C34.7523 145.885 35.0311 145.511 35.1716 144.917C35.312 144.324 35.3025 143.56 35.1452 142.793C34.9879 142.027 34.6956 141.321 34.3327 140.831C33.9697 140.34 33.5659 140.106 33.21 140.179C32.8541 140.252 32.5752 140.627 32.4348 141.22C32.2944 141.814 32.3039 142.578 32.4612 143.344C32.6185 144.111 32.9108 144.817 33.2737 145.307C33.6366 145.797 34.0405 146.032 34.3964 145.959Z" stroke="#75C7AF" stroke-width="2"/>
<path d="M50.3636 167.839C50.3636 167.466 50.2902 167.096 50.1474 166.752C50.0047 166.407 49.7955 166.094 49.5318 165.83C49.2681 165.567 48.955 165.357 48.6104 165.215C48.2658 165.072 47.8965 164.999 47.5236 164.999C47.1506 164.999 46.7813 165.072 46.4368 165.215C46.0922 165.357 45.7791 165.567 45.5154 165.83C45.2517 166.094 45.0425 166.407 44.8998 166.752C44.7571 167.096 44.6836 167.466 44.6836 167.839C44.6836 168.592 44.9828 169.314 45.5154 169.847C46.048 170.379 46.7704 170.679 47.5236 170.679C48.2768 170.679 48.9992 170.379 49.5318 169.847C50.0644 169.314 50.3636 168.592 50.3636 167.839Z" stroke="#4E7A80" stroke-width="2"/>
<path d="M43.5392 191.139C43.6626 190.728 43.6934 190.293 43.6298 189.86C43.5662 189.426 43.4095 189.003 43.1685 188.614C42.9276 188.224 42.6072 187.877 42.2256 187.591C41.844 187.305 41.4087 187.086 40.9445 186.947C40.4804 186.807 39.9965 186.75 39.5205 186.779C39.0444 186.808 38.5856 186.922 38.1701 187.114C37.7546 187.307 37.3907 187.574 37.0991 187.9C36.8075 188.227 36.5939 188.607 36.4705 189.018C36.347 189.43 36.3163 189.864 36.3799 190.298C36.4435 190.731 36.6002 191.154 36.8411 191.544C37.0821 191.933 37.4025 192.281 37.7841 192.567C38.1657 192.853 38.601 193.072 39.0651 193.211C39.5293 193.35 40.0132 193.407 40.4892 193.378C40.9653 193.349 41.4241 193.236 41.8396 193.043C42.2551 192.851 42.619 192.584 42.9106 192.257C43.2022 191.93 43.4158 191.55 43.5392 191.139Z" stroke="#567F83" stroke-width="2"/>
<path d="M92.0695 30.9324C92.2612 30.6394 92.2061 30.2022 91.9164 29.7167C91.6267 29.2313 91.1261 28.7375 90.5247 28.344C89.9233 27.9504 89.2704 27.6893 88.7095 27.6182C88.1487 27.547 87.726 27.6716 87.5343 27.9646C87.3426 28.2575 87.3977 28.6948 87.6874 29.1802C87.9771 29.6656 88.4777 30.1594 89.0791 30.553C89.6805 30.9465 90.3334 31.2076 90.8942 31.2787C91.455 31.3499 91.8778 31.2253 92.0695 30.9324Z" stroke="#9799AD" stroke-width="2"/>
<path d="M94.0191 65.5883C94.172 65.454 94.2926 65.2858 94.3738 65.0933C94.4551 64.9009 94.4955 64.6879 94.4927 64.4667C94.4899 64.2454 94.4439 64.0202 94.3575 63.8038C94.2711 63.5874 94.1459 63.3841 93.989 63.2055C93.8321 63.0269 93.6467 62.8766 93.4432 62.763C93.2398 62.6494 93.0223 62.5749 92.8032 62.5436C92.5842 62.5123 92.3678 62.5249 92.1665 62.5807C91.9652 62.6365 91.7828 62.7344 91.6299 62.8687C91.477 63.003 91.3565 63.1712 91.2752 63.3637C91.194 63.5562 91.1536 63.7691 91.1564 63.9903C91.1592 64.2116 91.2051 64.4369 91.2915 64.6533C91.3779 64.8697 91.5031 65.0729 91.66 65.2515C91.8169 65.4301 92.0024 65.5805 92.2058 65.694C92.4093 65.8076 92.6267 65.8821 92.8458 65.9134C93.0649 65.9447 93.2812 65.9321 93.4826 65.8763C93.6839 65.8205 93.8662 65.7227 94.0191 65.5883Z" stroke="#9799AD" stroke-width="2"/>
<path d="M116.14 95.507C116.262 95.0813 116.159 94.6099 115.854 94.1967C115.55 93.7835 115.068 93.4622 114.514 93.3036C113.961 93.145 113.382 93.162 112.905 93.3509C112.427 93.5397 112.09 93.8851 111.968 94.3108C111.846 94.7366 111.949 95.2079 112.254 95.6211C112.558 96.0343 113.041 96.3556 113.594 96.5142C114.147 96.6728 114.726 96.6558 115.204 96.4669C115.681 96.278 116.018 95.9327 116.14 95.507Z" stroke="#9093A9" stroke-width="2"/>
<path d="M101.297 134.062C100.995 133.764 100.548 133.638 100.054 133.712C99.5598 133.786 99.0593 134.053 98.6627 134.455C98.2661 134.858 98.0057 135.362 97.9388 135.857C97.872 136.352 98.0042 136.797 98.3063 137.095C98.6085 137.393 99.0558 137.519 99.5499 137.446C100.044 137.372 100.544 137.104 100.941 136.702C101.338 136.3 101.598 135.796 101.665 135.301C101.732 134.806 101.6 134.36 101.297 134.062Z" stroke="#9093A9" stroke-width="2"/>
<path d="M88.0105 164.78C88.2708 164.757 88.5234 164.676 88.7539 164.543C88.9845 164.41 89.1884 164.227 89.354 164.004C89.5197 163.782 89.6438 163.524 89.7194 163.245C89.795 162.967 89.8204 162.674 89.7944 162.382C89.7418 161.793 89.4826 161.246 89.0737 160.863C88.6648 160.48 88.1398 160.291 87.6141 160.338C87.3538 160.361 87.1012 160.441 86.8706 160.574C86.6401 160.707 86.4362 160.891 86.2706 161.113C86.1049 161.336 85.9808 161.594 85.9052 161.872C85.8297 162.151 85.8042 162.444 85.8302 162.736C85.8828 163.325 86.142 163.871 86.5509 164.255C86.9598 164.638 87.4848 164.827 88.0105 164.78Z" stroke="#9799AD" stroke-width="2"/>
<path d="M84.7528 13.8786L81.0028 12.8786C74.5028 10.6686 64.0628 11.5586 58.0628 12.4786C51.9128 13.4286 51.8028 21.1286 59.3828 19.5986C62.3828 18.9986 65.4228 18.3886 68.3228 19.7686C76.0828 23.4553 80.5661 29.4419 81.7728 37.7286C82.6828 43.9886 79.8228 52.2386 80.0028 57.4386C80.7228 78.1986 102.153 84.1286 110.093 100.589C114.473 109.679 110.303 119.549 102.743 125.179C89.1928 135.269 70.9228 143.679 78.5028 164.689C81.2628 172.342 84.0394 179.992 86.8328 187.639C87.9861 190.779 87.1161 193.152 84.2228 194.759C84.0808 194.836 83.9309 194.883 83.7863 194.895C83.6416 194.907 83.5065 194.884 83.3928 194.829L77.8028 192.059C77.4323 191.883 77.0721 191.806 76.7728 191.839C71.6928 192.479 72.2428 196.789 75.8228 198.819C82.3328 202.499 93.9528 204.689 97.0628 195.389C97.1143 195.237 97.201 195.103 97.3137 195.001C97.4264 194.899 97.5609 194.833 97.7028 194.809C100.153 194.349 102.943 195.259 104.503 192.129C104.729 198.962 102.803 204.982 98.7228 210.189C83.8028 229.249 52.0828 227.119 32.3528 219.079C20.8795 214.399 14.8295 206.049 14.2028 194.029C13.9428 189.089 15.7128 183.989 17.0228 179.079C20.9728 164.289 9.9828 164.859 3.6428 155.719C0.156134 150.699 0.119451 145.869 3.53278 141.229C9.96278 132.509 27.0328 129.679 26.3028 116.239C26.0961 112.432 24.3961 109.509 21.2028 107.469C9.9828 100.309 -5.54722 92.2986 8.31278 77.8086C13.4728 72.4086 19.6728 67.1486 20.5328 59.4186C21.1928 53.4186 15.4528 47.9686 11.5928 43.8586C1.68278 33.2986 6.79278 21.2486 16.5628 13.2186C32.8728 -0.211394 55.7428 -2.72139 74.7128 6.43861C76.6994 7.39861 80.0461 9.87861 84.7528 13.8786ZM53.194 38.1826C53.8376 37.1839 54.0113 35.9401 53.6766 34.7249C53.342 33.5098 52.5266 32.4227 51.4097 31.7029C50.2928 30.9831 48.966 30.6895 47.7211 30.8868C46.4762 31.084 45.4152 31.7559 44.7716 32.7546C44.1279 33.7533 43.9543 34.9971 44.2889 36.2123C44.6236 37.4275 45.439 38.5145 46.5559 39.2343C47.6728 39.9541 48.9996 40.2477 50.2445 40.0504C51.4894 39.8532 52.5503 39.1813 53.194 38.1826ZM42.8866 58.5786C43.1019 58.5371 43.3016 58.4257 43.4743 58.2507C43.6469 58.0757 43.7891 57.8405 43.8927 57.5586C43.9964 57.2767 44.0594 56.9536 44.0783 56.6077C44.0971 56.2619 44.0715 55.9 44.0027 55.5428C43.9339 55.1856 43.8234 54.8401 43.6774 54.5259C43.5314 54.2118 43.3529 53.9352 43.152 53.712C42.9511 53.4887 42.7317 53.3232 42.5064 53.2248C42.2811 53.1264 42.0543 53.0971 41.839 53.1386C41.6236 53.1801 41.4239 53.2915 41.2513 53.4665C41.0787 53.6415 40.9365 53.8767 40.8328 54.1586C40.7292 54.4405 40.6661 54.7636 40.6473 55.1095C40.6284 55.4553 40.6541 55.8172 40.7229 56.1744C40.7917 56.5316 40.9022 56.8771 41.0482 57.1913C41.1941 57.5054 41.3727 57.782 41.5736 58.0053C41.7745 58.2285 41.9939 58.3941 42.2192 58.4924C42.4444 58.5908 42.6712 58.6201 42.8866 58.5786ZM57.0328 68.5186C57.0328 67.7919 56.7441 67.095 56.2303 66.5811C55.7164 66.0673 55.0195 65.7786 54.2928 65.7786C53.5661 65.7786 52.8692 66.0673 52.3553 66.5811C51.8415 67.095 51.5528 67.7919 51.5528 68.5186C51.5528 69.2453 51.8415 69.9422 52.3553 70.4561C52.8692 70.9699 53.5661 71.2586 54.2928 71.2586C55.0195 71.2586 55.7164 70.9699 56.2303 70.4561C56.7441 69.9422 57.0328 69.2453 57.0328 68.5186ZM41.9628 81.6986C43.2028 81.6786 43.8061 81.0853 43.7728 79.9186C43.7394 78.6986 43.0528 77.7953 41.7128 77.2086C39.9328 76.4219 39.3628 77.2053 40.0028 79.5586C40.3961 80.9986 41.0494 81.7119 41.9628 81.6986ZM46.3928 94.6186C45.1328 96.7686 46.7928 98.5486 48.7128 99.2286C48.7708 99.2493 48.8328 99.2574 48.8939 99.2523C48.9549 99.2471 49.0134 99.2288 49.0647 99.1988C49.116 99.1687 49.1588 99.1278 49.1897 99.0792C49.2206 99.0306 49.2388 98.9756 49.2428 98.9186C49.3294 97.3386 48.9928 95.8453 48.2328 94.4386C47.6728 93.4053 47.0595 93.4653 46.3928 94.6186ZM84.7328 109.609C84.7328 108.081 84.1259 106.616 83.0457 105.536C81.9655 104.455 80.5004 103.849 78.9728 103.849C78.2164 103.849 77.4674 103.998 76.7685 104.287C76.0697 104.577 75.4347 105.001 74.8998 105.536C74.365 106.071 73.9407 106.706 73.6513 107.404C73.3618 108.103 73.2128 108.852 73.2128 109.609C73.2128 110.365 73.3618 111.114 73.6513 111.813C73.9407 112.512 74.365 113.147 74.8998 113.682C75.4347 114.216 76.0697 114.641 76.7685 114.93C77.4674 115.22 78.2164 115.369 78.9728 115.369C80.5004 115.369 81.9655 114.762 83.0457 113.682C84.1259 112.601 84.7328 111.136 84.7328 109.609ZM53.4428 113.359C53.2695 113.939 52.9428 115.329 52.4628 117.529C52.3894 117.862 52.5095 117.952 52.8228 117.799C56.8628 115.789 53.8828 111.869 53.4428 113.359ZM43.5828 122.569C43.3732 122.47 43.124 122.453 42.8708 122.522C42.6175 122.59 42.3732 122.739 42.1728 122.949C40.9595 124.202 40.0861 125.655 39.5528 127.309C39.4528 127.615 39.5428 127.679 39.8228 127.499L44.2928 124.659C44.4525 124.559 44.5834 124.432 44.665 124.3C44.7465 124.168 44.7739 124.037 44.7428 123.929C44.5628 123.302 44.1761 122.849 43.5828 122.569ZM57.3572 148.042C57.7823 147.766 58.1372 147.391 58.4016 146.938C58.666 146.485 58.8347 145.964 58.8981 145.403C58.9616 144.843 58.9184 144.254 58.7712 143.672C58.624 143.089 58.3755 142.523 58.0401 142.006C57.7046 141.49 57.2887 141.033 56.8161 140.661C56.3435 140.289 55.8235 140.011 55.2857 139.841C54.7479 139.671 54.2028 139.613 53.6817 139.67C53.1605 139.727 52.6735 139.899 52.2484 140.175C51.8233 140.451 51.4684 140.826 51.204 141.279C50.9396 141.732 50.7708 142.253 50.7074 142.814C50.644 143.374 50.6872 143.963 50.8344 144.546C50.9816 145.129 51.23 145.694 51.5655 146.211C51.9009 146.727 52.3168 147.185 52.7894 147.556C53.262 147.928 53.7821 148.206 54.3199 148.377C54.8577 148.547 55.4027 148.605 55.9239 148.547C56.445 148.49 56.9321 148.318 57.3572 148.042ZM34.396 145.958C34.7519 145.885 35.0307 145.511 35.1712 144.917C35.3116 144.324 35.3021 143.56 35.1448 142.793C34.9875 142.027 34.6952 141.321 34.3323 140.83C33.9693 140.34 33.5655 140.106 33.2096 140.179C32.8537 140.252 32.5748 140.627 32.4344 141.22C32.294 141.814 32.3035 142.578 32.4608 143.344C32.6181 144.111 32.9104 144.817 33.2733 145.307C33.6362 145.797 34.0401 146.031 34.396 145.958ZM50.3628 167.839C50.3628 167.466 50.2893 167.096 50.1466 166.752C50.0039 166.407 49.7947 166.094 49.531 165.83C49.2673 165.567 48.9542 165.358 48.6096 165.215C48.265 165.072 47.8957 164.999 47.5228 164.999C47.1498 164.999 46.7805 165.072 46.436 165.215C46.0914 165.358 45.7783 165.567 45.5146 165.83C45.2509 166.094 45.0417 166.407 44.899 166.752C44.7562 167.096 44.6828 167.466 44.6828 167.839C44.6828 168.592 44.982 169.314 45.5146 169.847C46.0472 170.379 46.7696 170.679 47.5228 170.679C48.276 170.679 48.9984 170.379 49.531 169.847C50.0636 169.314 50.3628 168.592 50.3628 167.839ZM43.5372 191.139C43.6606 190.728 43.6914 190.293 43.6278 189.86C43.5641 189.426 43.4074 189.003 43.1665 188.614C42.9255 188.224 42.6051 187.877 42.2235 187.591C41.8419 187.305 41.4066 187.086 40.9425 186.947C40.4783 186.807 39.9944 186.75 39.5184 186.779C39.0424 186.808 38.5835 186.922 38.168 187.114C37.7526 187.306 37.3887 187.574 37.097 187.9C36.8054 188.227 36.5918 188.607 36.4684 189.018C36.345 189.43 36.3142 189.864 36.3778 190.298C36.4414 190.731 36.5981 191.154 36.8391 191.544C37.08 191.933 37.4005 192.28 37.7821 192.566C38.1636 192.853 38.5989 193.071 39.0631 193.211C39.5272 193.35 40.0111 193.407 40.4872 193.378C40.9632 193.349 41.4221 193.236 41.8375 193.043C42.253 192.851 42.6169 192.584 42.9085 192.257C43.2002 191.93 43.4138 191.55 43.5372 191.139Z" fill="#7ECCB6"/>
<path d="M81.0052 12.8783C80.2518 13.285 79.9718 13.8883 80.1652 14.6883C80.1949 14.8243 80.2681 14.9525 80.3771 15.0598C80.4861 15.167 80.627 15.2494 80.7852 15.2983C86.7152 17.1483 89.6252 20.7683 93.8452 24.3583C93.9966 24.488 94.1566 24.5876 94.3115 24.6485C94.4664 24.7094 94.6118 24.7299 94.7352 24.7083L96.5052 24.3783C107.375 39.3083 92.4252 60.8483 105.755 71.8783C104.969 72.9783 105.202 73.9283 106.455 74.7283C115.555 80.5483 124.375 86.8283 129.005 98.2083C129.07 98.3646 129.165 98.5012 129.282 98.606C129.399 98.7108 129.534 98.7803 129.675 98.8083C130.348 98.9283 130.888 98.7983 131.295 98.4183C136.395 117.452 130.478 131.452 113.545 140.418C113.275 139.788 112.855 139.578 112.195 139.878C104.305 143.398 99.6952 145.088 95.8852 151.248C94.7652 153.068 94.9585 154.542 96.4652 155.668C96.5452 160.535 97.1518 164.518 98.2852 167.618C101.592 176.638 103.665 184.808 104.505 192.128C102.945 195.258 100.155 194.348 97.7052 194.808C97.5632 194.832 97.4288 194.899 97.3161 195.001C97.2034 195.103 97.1167 195.237 97.0652 195.388C93.9552 204.688 82.3352 202.498 75.8252 198.818C72.2452 196.788 71.6952 192.478 76.7752 191.838C77.0745 191.806 77.4347 191.883 77.8052 192.058L83.3952 194.828C83.5089 194.884 83.644 194.907 83.7886 194.895C83.9333 194.883 84.0832 194.836 84.2252 194.758C87.1185 193.152 87.9885 190.778 86.8352 187.638C84.0418 179.992 81.2652 172.342 78.5052 164.688C70.9252 143.678 89.1952 135.268 102.745 125.178C110.305 119.548 114.475 109.678 110.095 100.588C102.155 84.1283 80.7252 78.1983 80.0052 57.4383C79.8252 52.2383 82.6852 43.9883 81.7752 37.7283C80.5685 29.4417 76.0852 23.455 68.3252 19.7683C65.4252 18.3883 62.3852 18.9983 59.3852 19.5983C51.8052 21.1283 51.9152 13.4283 58.0652 12.4783C64.0652 11.5583 74.5052 10.6683 81.0052 12.8783ZM92.0728 30.9322C92.2645 30.6393 92.2094 30.202 91.9197 29.7166C91.63 29.2312 91.1294 28.7374 90.528 28.3438C89.9266 27.9503 89.2736 27.6892 88.7128 27.6181C88.152 27.5469 87.7293 27.6715 87.5376 27.9644C87.3459 28.2574 87.4009 28.6946 87.6907 29.18C87.9804 29.6655 88.481 30.1593 89.0824 30.5528C89.6838 30.9464 90.3367 31.2074 90.8975 31.2786C91.4583 31.3497 91.8811 31.2251 92.0728 30.9322ZM94.0198 65.5881C94.1727 65.4538 94.2932 65.2856 94.3745 65.0931C94.4557 64.9007 94.4961 64.6877 94.4933 64.4665C94.4905 64.2452 94.4446 64.02 94.3582 63.8036C94.2718 63.5872 94.1465 63.3839 93.9897 63.2053C93.8328 63.0267 93.6473 62.8764 93.4439 62.7628C93.2404 62.6492 93.0229 62.5747 92.8039 62.5434C92.5848 62.5121 92.3684 62.5248 92.1671 62.5805C91.9658 62.6363 91.7835 62.7342 91.6306 62.8685C91.4776 63.0029 91.3571 63.1711 91.2759 63.3635C91.1946 63.556 91.1542 63.7689 91.157 63.9902C91.1598 64.2114 91.2057 64.4367 91.2922 64.6531C91.3786 64.8695 91.5038 65.0727 91.6607 65.2513C91.8175 65.4299 92.003 65.5803 92.2065 65.6938C92.4099 65.8074 92.6274 65.882 92.8464 65.9132C93.0655 65.9445 93.2819 65.9319 93.4832 65.8761C93.6845 65.8203 93.8668 65.7225 94.0198 65.5881ZM116.141 95.5064C116.263 95.0807 116.16 94.6094 115.856 94.1961C115.551 93.7829 115.069 93.4617 114.515 93.303C113.962 93.1444 113.383 93.1614 112.906 93.3503C112.428 93.5392 112.091 93.8845 111.969 94.3102C111.847 94.736 111.95 95.2073 112.255 95.6205C112.56 96.0337 113.042 96.355 113.595 96.5136C114.148 96.6722 114.727 96.6552 115.205 96.4664C115.682 96.2775 116.019 95.9322 116.141 95.5064ZM101.301 134.062C100.999 133.764 100.551 133.638 100.057 133.712C99.5631 133.785 99.0626 134.053 98.666 134.455C98.2693 134.857 98.009 135.361 97.9421 135.856C97.8753 136.351 98.0075 136.797 98.3096 137.095C98.6117 137.393 99.0591 137.519 99.5532 137.445C100.047 137.371 100.548 137.104 100.944 136.702C101.341 136.299 101.601 135.795 101.668 135.3C101.735 134.805 101.603 134.36 101.301 134.062ZM88.0134 164.78C88.2737 164.756 88.5263 164.676 88.7568 164.543C88.9873 164.41 89.1912 164.227 89.3569 164.004C89.5225 163.781 89.6467 163.523 89.7223 163.245C89.7978 162.967 89.8233 162.673 89.7973 162.381C89.7447 161.792 89.4855 161.246 89.0766 160.863C88.6677 160.479 88.1426 160.29 87.617 160.337C87.3567 160.36 87.104 160.441 86.8735 160.574C86.643 160.707 86.4391 160.89 86.2734 161.113C86.1078 161.335 85.9837 161.593 85.9081 161.872C85.8325 162.15 85.807 162.444 85.8331 162.735C85.8857 163.324 86.1449 163.871 86.5538 164.254C86.9626 164.637 87.4877 164.826 88.0134 164.78Z" fill="#303460"/>
<path d="M81.0047 12.8784L84.7547 13.8784C89.608 16.3384 93.5247 19.8384 96.5047 24.3784L94.7347 24.7084C94.6113 24.73 94.466 24.7095 94.311 24.6486C94.1561 24.5877 93.9961 24.4881 93.8447 24.3584C89.6247 20.7684 86.7147 17.1484 80.7847 15.2984C80.6265 15.2494 80.4856 15.1671 80.3766 15.0598C80.2676 14.9526 80.1945 14.8244 80.1647 14.6884C79.9714 13.8884 80.2514 13.2851 81.0047 12.8784Z" fill="#201E4D"/>
<path d="M89.0799 30.5528C90.3323 31.3724 91.6711 31.5422 92.0703 30.9322C92.4695 30.3222 91.7778 29.1633 90.5254 28.3438C89.2731 27.5242 87.9342 27.3544 87.535 27.9644C87.1358 28.5744 87.8275 29.7333 89.0799 30.5528Z" fill="#FEFDF9"/>
<path d="M46.5568 39.2342C48.8826 40.7331 51.8545 40.2622 53.1948 38.1824C54.5352 36.1027 53.7363 33.2016 51.4105 31.7027C49.0847 30.2039 46.1127 30.6747 44.7724 32.7545C43.4321 34.8343 44.2309 37.7353 46.5568 39.2342Z" fill="#2D3250"/>
<path d="M40.7245 56.1744C41.0138 57.6766 41.9825 58.753 42.8882 58.5786C43.7939 58.4042 44.2935 57.045 44.0043 55.5428C43.715 54.0406 42.7463 52.9641 41.8406 53.1385C40.9349 53.3129 40.4352 54.6721 40.7245 56.1744Z" fill="#6BC1A8"/>
<path d="M91.6587 65.2515C92.3184 66.0025 93.3746 66.1533 94.0177 65.5883C94.6608 65.0233 94.6473 63.9565 93.9876 63.2055C93.3278 62.4545 92.2716 62.3037 91.6285 62.8687C90.9854 63.4337 90.9989 64.5005 91.6587 65.2515Z" fill="#FEFDF9"/>
<path d="M54.2947 71.2583C55.808 71.2583 57.0347 70.0316 57.0347 68.5183C57.0347 67.0051 55.808 65.7783 54.2947 65.7783C52.7814 65.7783 51.5547 67.0051 51.5547 68.5183C51.5547 70.0316 52.7814 71.2583 54.2947 71.2583Z" fill="#1D2849"/>
<path d="M105.756 71.8784C116.226 78.7184 126.746 85.6584 131.296 98.4184C130.889 98.7984 130.349 98.9284 129.676 98.8084C129.535 98.7804 129.399 98.7109 129.282 98.6061C129.165 98.5013 129.07 98.3647 129.006 98.2084C124.376 86.8284 115.556 80.5484 106.456 74.7284C105.202 73.9284 104.969 72.9784 105.756 71.8784Z" fill="#16163F"/>
<path d="M41.9639 81.6982C41.0505 81.7116 40.3972 80.9982 40.0039 79.5582C39.3639 77.2049 39.9339 76.4216 41.7139 77.2082C43.0539 77.7949 43.7405 78.6982 43.7739 79.9182C43.8072 81.0849 43.2039 81.6782 41.9639 81.6982Z" fill="#6BC1A8"/>
<path d="M113.595 96.5138C114.747 96.8442 115.887 96.3932 116.141 95.5067C116.395 94.6201 115.668 93.6336 114.516 93.3032C113.364 92.9729 112.224 93.4238 111.969 94.3104C111.715 95.197 112.443 96.1835 113.595 96.5138Z" fill="#F0F2F1"/>
<path d="M48.7125 99.2285C46.7925 98.5485 45.1326 96.7685 46.3926 94.6185C47.0592 93.4652 47.6726 93.4052 48.2326 94.4385C48.9926 95.8452 49.3292 97.3385 49.2425 98.9185C49.2385 98.9756 49.2204 99.0305 49.1895 99.0791C49.1586 99.1277 49.1158 99.1687 49.0645 99.1987C49.0131 99.2287 48.9547 99.247 48.8936 99.2522C48.8326 99.2574 48.7706 99.2493 48.7125 99.2285Z" fill="#6BC1A8"/>
<path d="M78.9749 115.369C82.156 115.369 84.7349 112.79 84.7349 109.609C84.7349 106.427 82.156 103.849 78.9749 103.849C75.7937 103.849 73.2148 106.427 73.2148 109.609C73.2148 112.79 75.7937 115.369 78.9749 115.369Z" fill="#303460"/>
<path d="M53.4423 113.359C53.8823 111.869 56.8623 115.789 52.8223 117.799C52.5089 117.952 52.3889 117.862 52.4623 117.529C52.9423 115.329 53.2689 113.939 53.4423 113.359Z" fill="#6BC1A8"/>
<path d="M43.5851 122.568C44.1784 122.848 44.5651 123.302 44.7451 123.928C44.7762 124.037 44.7488 124.168 44.6673 124.3C44.5858 124.432 44.4548 124.558 44.2951 124.658L39.8251 127.498C39.5451 127.678 39.4551 127.615 39.5551 127.308C40.0884 125.655 40.9618 124.202 42.1751 122.948C42.3756 122.739 42.6199 122.59 42.8731 122.521C43.1264 122.453 43.3756 122.47 43.5851 122.568Z" fill="#6BC1A8"/>
<path d="M100.942 136.702C101.768 135.864 101.928 134.682 101.298 134.062C100.669 133.441 99.4895 133.617 98.6636 134.455C97.8376 135.293 97.678 136.475 98.3072 137.095C98.9364 137.716 100.116 137.54 100.942 136.702Z" fill="#F0F2F1"/>
<path d="M51.5681 146.211C52.9788 148.383 55.5718 149.203 57.3597 148.042C59.1476 146.881 59.4534 144.178 58.0426 142.006C56.6319 139.834 54.0389 139.014 52.251 140.175C50.4631 141.336 50.1574 144.038 51.5681 146.211Z" fill="#2D3250"/>
<path d="M113.544 140.418C105.994 144.898 98.0543 146.848 96.4643 155.668C94.9576 154.542 94.7643 153.068 95.8843 151.248C99.6943 145.088 104.304 143.398 112.194 139.878C112.854 139.578 113.274 139.788 113.544 140.418Z" fill="#16163F"/>
<path d="M32.4599 143.344C32.7875 144.94 33.6539 146.11 34.3951 145.958C35.1363 145.806 35.4716 144.389 35.144 142.793C34.8164 141.197 33.9499 140.027 33.2088 140.179C32.4676 140.331 32.1323 141.748 32.4599 143.344Z" fill="#6BC1A8"/>
<path d="M85.8316 162.736C85.9411 163.962 86.9173 164.878 88.012 164.78C89.1067 164.682 89.9054 163.609 89.7959 162.382C89.6864 161.155 88.7102 160.24 87.6155 160.338C86.5208 160.435 85.7222 161.509 85.8316 162.736Z" fill="#FEFDF9"/>
<path d="M47.5236 170.679C49.0921 170.679 50.3636 169.407 50.3636 167.839C50.3636 166.27 49.0921 164.999 47.5236 164.999C45.9551 164.999 44.6836 166.27 44.6836 167.839C44.6836 169.407 45.9551 170.679 47.5236 170.679Z" fill="#1D2849"/>
<path d="M39.0652 193.211C41.0172 193.796 43.0203 192.869 43.5392 191.139C44.0582 189.409 42.8965 187.532 40.9445 186.947C38.9925 186.361 36.9895 187.289 36.4705 189.018C35.9515 190.748 37.1132 192.625 39.0652 193.211Z" fill="#2D3250"/>
</svg>
