<svg width="235" height="215" viewBox="0 0 235 215" fill="none" xmlns="http://www.w3.org/2000/svg">
<path d="M3.88484 207.081C4.53818 207.535 5.25821 207.831 6.04488 207.971C32.3449 212.511 62.0549 196.601 79.2149 177.651C86.1549 169.991 90.5749 165.721 100.645 165.751C108.258 165.765 114.065 169.128 118.065 175.841C120.332 179.641 124.545 187.338 130.705 198.931C133.815 204.791 143.175 220.811 150.155 209.491C151.388 207.498 152.385 205.391 153.145 203.171C160.935 180.251 155.395 155.151 161.315 131.781C164.265 120.141 178.075 122.291 186.495 124.041C199.385 126.721 215.825 122.661 227.615 117.281C234.755 114.031 234.575 109.811 229.325 104.511C218.452 93.5381 206.062 84.6081 192.155 77.7215C190.902 77.1015 189.832 75.9248 188.945 74.1914C188.876 74.0558 188.845 73.903 188.858 73.7495C188.87 73.5961 188.924 73.448 189.015 73.3214C193.888 66.4548 196.825 62.0948 197.825 60.2415C204.885 47.2115 203.615 22.9215 200.255 8.16146C198.135 -1.09854 193.115 -0.58856 187.135 5.20144C182.402 9.78144 177.998 14.6615 173.925 19.8415C170.078 24.7348 167.252 27.9481 165.445 29.4815C155.415 38.0015 141.855 42.3315 128.725 42.6115C124.338 42.7115 122.125 42.7614 122.085 42.7614C103.065 44.2814 86.8149 52.2315 70.2249 60.9715C40.2449 76.7715 15.7049 117.531 10.0549 149.631C7.73489 162.801 5.09486 175.901 2.52486 189.011C1.45486 194.481 -0.885158 203.791 3.88484 207.081Z" stroke="#A2B0BB" stroke-width="2"/>
<path d="M140.037 180.122C136.787 171.432 134.997 162.981 126.367 157.751C113.347 149.881 97.3869 144.832 82.5969 150.982C77.3569 153.162 73.8769 157.951 70.3969 162.271C61.7969 172.941 52.9869 179.861 39.7969 184.331C39.6546 184.379 39.5325 184.471 39.4507 184.593C39.3689 184.715 39.3323 184.859 39.3469 185.001C39.6169 187.681 42.2869 187.601 44.3569 186.891C60.0869 181.401 67.7469 171.372 78.1369 159.302C82.9669 153.682 91.4869 151.751 98.5169 151.821C106.307 151.891 114.137 155.121 121.587 158.581C132.257 163.521 135.177 172.402 139.467 182.302C139.584 182.569 139.623 182.899 139.577 183.251C139.444 184.325 139.68 185.302 140.287 186.182C140.48 186.462 140.644 186.435 140.777 186.102C145.657 174.152 145.417 163.051 145.347 150.411C145.334 148.538 145.574 145.965 146.067 142.691C148.477 126.741 136.367 109.392 162.497 109.232C174.817 109.152 187.137 108.998 199.457 108.771C200.637 108.751 201.827 108.382 202.947 108.172C203.068 108.148 203.182 108.098 203.281 108.023C203.38 107.949 203.46 107.853 203.516 107.743C203.572 107.633 203.602 107.512 203.604 107.389C203.606 107.265 203.579 107.143 203.527 107.031C202.087 103.878 200.377 101.018 198.397 98.4515C194.517 93.4115 190.317 93.8015 185.177 92.1015C181.837 91.0015 179.637 88.2915 176.517 86.4815C176.236 86.3181 175.914 86.2382 175.587 86.2515C172.367 86.3815 168.257 87.1315 165.637 85.6915C159.657 82.3915 163.737 74.0915 166.067 69.8315C167.757 66.7315 171.507 65.7615 173.537 64.2215C177.257 61.4115 181.827 54.4515 181.487 49.0615C180.987 41.2015 181.937 35.2315 188.607 30.5515C189.267 30.0848 189.924 28.9881 190.577 27.2615C190.697 26.9415 190.627 26.8915 190.367 27.1115C187.127 29.8215 181.547 32.9115 179.767 36.5015C177.747 40.5915 178.077 45.5215 178.267 49.9815C178.447 54.0015 176.067 57.1615 173.437 59.8315C169.877 63.4315 164.567 63.6415 162.247 68.7015C158.717 76.4015 155.487 85.3915 165.337 89.6915C165.624 89.8216 165.955 89.86 166.287 89.8015C171.777 88.8915 177.617 88.3715 180.527 93.9415C180.596 94.0742 180.709 94.1863 180.856 94.2656C181.002 94.3449 181.175 94.3884 181.357 94.3915C189.117 94.4448 195.174 97.5915 199.527 103.831C200.134 104.711 199.894 105.148 198.807 105.141C187.707 105.081 176.624 105.125 165.557 105.271C158.704 105.358 154.02 105.928 151.507 106.982C143.337 110.392 141.297 118.252 142.727 126.602C143.74 132.542 143.88 138.502 143.147 144.482C142.417 150.472 142.837 155.172 143.217 160.792C143.657 167.318 143.047 173.738 141.387 180.052C141.007 181.505 140.557 181.528 140.037 180.122Z" stroke="#9FB0BC" stroke-width="2"/>
<path d="M123.288 62.0913C126.095 62.418 128.905 63.9746 131.718 66.7613C131.838 66.881 131.981 66.9679 132.129 67.0121C132.278 67.0564 132.427 67.0561 132.558 67.0113C133.105 66.8246 133.272 66.4247 133.058 65.8113C129.728 56.2413 107.928 59.2213 101.408 60.6113C94.5684 62.0613 87.4784 66.4513 81.3984 68.8213C75.9684 70.9413 69.2284 72.2413 66.8784 78.5513C66.8513 78.6275 66.8397 78.7042 66.845 78.7729C66.8503 78.8417 66.8722 78.8999 66.9084 78.9413C67.0017 79.0546 67.1017 79.0413 67.2084 78.9013C68.8784 76.7413 70.8184 75.7713 73.6784 74.9513C82.6784 72.3813 90.9584 67.1513 98.9584 64.6713C107.385 62.0513 115.495 61.1913 123.288 62.0913Z" stroke="#9FB0BC" stroke-width="2"/>
<path d="M109.358 84.3813C103.185 84.928 99.288 88.0881 97.668 93.8614" stroke="#2A374B" stroke-width="2"/>
<path d="M97.6647 93.8611C94.1047 100.354 94.768 105.171 99.6547 108.311C101.961 109.791 104.708 110.401 107.895 110.141C115.915 109.494 120.288 105.241 121.015 97.381C121.735 89.521 118.395 82.961 109.355 84.381" stroke="#A2B0BB" stroke-width="2"/>
<path d="M97.668 93.8614C99.798 99.1614 101.218 102.751 106.598 102.801C111.438 102.841 114.488 100.578 115.748 96.0114C117.168 90.8214 113.308 87.7113 109.358 84.3813" stroke="#86868D" stroke-width="2"/>
<path d="M55.8467 106.491C51.6801 107.758 49.0267 110.521 47.8867 114.781" stroke="#2A374B" stroke-width="2"/>
<path d="M47.8846 114.781C46.3912 114.134 45.5879 114.738 45.4746 116.591C44.5946 131.081 66.8646 130.511 70.2346 118.541C72.0446 112.101 69.2846 105.911 62.3646 104.501C59.858 103.994 57.6846 104.658 55.8446 106.491" stroke="#A2B0BB" stroke-width="2"/>
<path d="M47.8867 114.781C50.5367 124.861 65.8067 122.721 63.7667 113.071C63.0067 109.441 59.1667 107.501 55.8467 106.491" stroke="#86868D" stroke-width="2"/>
<path d="M33.4384 115.031C25.8684 123.321 25.0284 136.511 25.8084 148.291C25.8227 148.479 25.8792 148.655 25.9674 148.785C26.0557 148.916 26.1698 148.993 26.2884 149.001C27.3584 149.081 28.6084 133.471 28.7384 131.851C29.2584 125.481 30.9984 120.531 33.9084 115.371C34.7551 113.871 34.5984 113.758 33.4384 115.031Z" stroke="#A2B0BB" stroke-width="2"/>
<path d="M3.88484 207.082C-0.885158 203.792 1.45486 194.482 2.52486 189.012C5.09486 175.902 7.73489 162.802 10.0549 149.632C15.7049 117.532 40.2449 76.7719 70.2249 60.9719C86.8149 52.2319 103.065 44.2819 122.085 42.7619C122.125 42.7619 124.338 42.712 128.725 42.612C141.855 42.332 155.415 38.002 165.445 29.482C167.252 27.9486 170.078 24.7353 173.925 19.8419C177.998 14.6619 182.402 9.78193 187.135 5.20193C193.115 -0.588072 198.135 -1.09805 200.255 8.16195C203.615 22.922 204.885 47.212 197.825 60.242C196.825 62.0953 193.888 66.4553 189.015 73.3219C188.924 73.4485 188.87 73.5966 188.858 73.75C188.845 73.9035 188.876 74.0563 188.945 74.1919C189.832 75.9252 190.902 77.1019 192.155 77.7219C206.062 84.6086 218.452 93.5386 229.325 104.512C234.575 109.812 234.755 114.032 227.615 117.282C215.825 122.662 199.385 126.722 186.495 124.042C178.075 122.292 164.265 120.142 161.315 131.782C155.395 155.152 160.935 180.252 153.145 203.172C152.385 205.392 151.388 207.499 150.155 209.492C143.175 220.812 133.815 204.792 130.705 198.932C124.545 187.339 120.332 179.642 118.065 175.842C114.065 169.129 108.258 165.765 100.645 165.752C90.5749 165.722 86.1549 169.992 79.2149 177.652C62.0549 196.602 32.3449 212.512 6.04488 207.972C5.25821 207.832 4.53818 207.535 3.88484 207.082ZM140.035 180.122C136.785 171.432 134.995 162.982 126.365 157.752C113.345 149.882 97.3849 144.832 82.5949 150.982C77.3549 153.162 73.8749 157.952 70.3949 162.272C61.7949 172.942 52.9849 179.862 39.7949 184.332C39.6526 184.379 39.5305 184.472 39.4487 184.593C39.3669 184.715 39.3302 184.859 39.3449 185.002C39.6149 187.682 42.2849 187.602 44.3549 186.892C60.0849 181.402 67.7448 171.372 78.1348 159.302C82.9648 153.682 91.4848 151.752 98.5148 151.822C106.305 151.892 114.135 155.122 121.585 158.582C132.255 163.522 135.175 172.402 139.465 182.302C139.582 182.57 139.621 182.9 139.575 183.252C139.442 184.325 139.678 185.302 140.285 186.182C140.478 186.462 140.642 186.435 140.775 186.102C145.655 174.152 145.415 163.052 145.345 150.412C145.332 148.539 145.572 145.965 146.065 142.692C148.475 126.742 136.365 109.392 162.495 109.232C174.815 109.152 187.135 108.999 199.455 108.772C200.635 108.752 201.825 108.382 202.945 108.172C203.066 108.149 203.18 108.098 203.279 108.024C203.377 107.95 203.458 107.854 203.514 107.744C203.57 107.634 203.6 107.513 203.602 107.389C203.604 107.266 203.577 107.144 203.525 107.032C202.085 103.879 200.375 101.019 198.395 98.4519C194.515 93.4119 190.315 93.8019 185.175 92.102C181.835 91.002 179.635 88.292 176.515 86.482C176.234 86.3185 175.911 86.2387 175.585 86.2519C172.365 86.3819 168.255 87.1319 165.635 85.6919C159.655 82.3919 163.735 74.0919 166.065 69.8319C167.755 66.7319 171.505 65.7619 173.535 64.2219C177.255 61.4119 181.825 54.452 181.485 49.062C180.985 41.202 181.935 35.232 188.605 30.552C189.265 30.0853 189.922 28.9886 190.575 27.2619C190.695 26.9419 190.625 26.892 190.365 27.112C187.125 29.822 181.545 32.9119 179.765 36.5019C177.745 40.5919 178.075 45.522 178.265 49.982C178.445 54.002 176.065 57.1619 173.435 59.8319C169.875 63.4319 164.565 63.6419 162.245 68.7019C158.715 76.4019 155.485 85.3919 165.335 89.6919C165.622 89.822 165.953 89.8605 166.285 89.802C171.775 88.892 177.615 88.3719 180.525 93.9419C180.594 94.0747 180.707 94.1867 180.854 94.266C181 94.3453 181.173 94.3888 181.355 94.3919C189.115 94.4453 195.172 97.5919 199.525 103.832C200.132 104.712 199.892 105.149 198.805 105.142C187.705 105.082 176.622 105.125 165.555 105.272C158.702 105.359 154.018 105.929 151.505 106.982C143.335 110.392 141.295 118.252 142.725 126.602C143.738 132.542 143.878 138.502 143.145 144.482C142.415 150.472 142.835 155.172 143.215 160.792C143.655 167.319 143.045 173.739 141.385 180.052C141.005 181.505 140.555 181.529 140.035 180.122ZM123.285 62.0919C126.092 62.4186 128.902 63.9753 131.715 66.7619C131.835 66.8816 131.977 66.9686 132.126 67.0128C132.275 67.057 132.423 67.0567 132.555 67.0119C133.102 66.8253 133.268 66.4253 133.055 65.812C129.725 56.242 107.925 59.222 101.405 60.612C94.5649 62.062 87.4749 66.4519 81.3949 68.8219C75.9649 70.9419 69.2249 72.242 66.8749 78.552C66.8477 78.6282 66.8362 78.7048 66.8414 78.7736C66.8467 78.8424 66.8687 78.9006 66.9049 78.9419C66.9982 79.0553 67.0982 79.0419 67.2048 78.9019C68.8748 76.7419 70.8149 75.7719 73.6749 74.9519C82.6749 72.3819 90.9548 67.152 98.9548 64.672C107.382 62.052 115.492 61.1919 123.285 62.0919ZM109.355 84.3819C103.182 84.9286 99.2849 88.0886 97.6649 93.862C94.1049 100.355 94.7682 105.172 99.6549 108.312C101.962 109.792 104.708 110.402 107.895 110.142C115.915 109.495 120.288 105.242 121.015 97.3819C121.735 89.5219 118.395 82.9619 109.355 84.3819ZM55.8449 106.492C51.6782 107.759 49.0248 110.522 47.8848 114.782C46.3915 114.135 45.5882 114.739 45.4749 116.592C44.5949 131.082 66.8649 130.512 70.2349 118.542C72.0449 112.102 69.2849 105.912 62.3649 104.502C59.8582 103.995 57.6849 104.659 55.8449 106.492ZM33.4349 115.032C25.8649 123.322 25.0249 136.512 25.8049 148.292C25.8191 148.48 25.8756 148.655 25.9639 148.786C26.0521 148.917 26.1662 148.993 26.2849 149.002C27.3549 149.082 28.6049 133.472 28.7349 131.852C29.2549 125.482 30.9949 120.532 33.9049 115.372C34.7515 113.872 34.5949 113.759 33.4349 115.032Z" fill="#466179"/>
<path d="M140.033 180.122C140.553 181.528 141.003 181.505 141.383 180.052C143.043 173.738 143.653 167.318 143.213 160.792C142.833 155.172 142.413 150.472 143.143 144.482C143.876 138.502 143.736 132.542 142.723 126.602C141.293 118.252 143.333 110.392 151.503 106.982C154.016 105.928 158.7 105.358 165.553 105.271C176.62 105.125 187.703 105.081 198.803 105.141C199.89 105.148 200.13 104.711 199.523 103.831C195.17 97.5915 189.113 94.4448 181.353 94.3915C181.171 94.3884 180.998 94.3449 180.852 94.2656C180.706 94.1863 180.592 94.0742 180.523 93.9415C177.613 88.3715 171.773 88.8915 166.283 89.8015C165.951 89.86 165.62 89.8216 165.333 89.6915C155.483 85.3915 158.713 76.4015 162.243 68.7015C164.563 63.6415 169.873 63.4315 173.433 59.8315C176.063 57.1615 178.443 54.0015 178.263 49.9815C178.073 45.5215 177.743 40.5915 179.763 36.5015C181.543 32.9115 187.123 29.8215 190.363 27.1115C190.623 26.8915 190.693 26.9415 190.573 27.2615C189.92 28.9881 189.263 30.0848 188.603 30.5515C181.933 35.2315 180.983 41.2015 181.483 49.0615C181.823 54.4515 177.253 61.4115 173.533 64.2215C171.503 65.7615 167.753 66.7315 166.063 69.8315C163.733 74.0915 159.653 82.3915 165.633 85.6915C168.253 87.1315 172.363 86.3815 175.583 86.2515C175.91 86.2382 176.232 86.3181 176.513 86.4815C179.633 88.2915 181.833 91.0015 185.173 92.1015C190.313 93.8015 194.513 93.4115 198.393 98.4515C200.373 101.018 202.083 103.878 203.523 107.031C203.575 107.143 203.602 107.265 203.6 107.389C203.598 107.512 203.568 107.633 203.512 107.743C203.456 107.853 203.376 107.949 203.277 108.023C203.178 108.098 203.064 108.148 202.943 108.172C201.823 108.382 200.633 108.751 199.453 108.771C187.133 108.998 174.813 109.152 162.493 109.232C136.363 109.392 148.473 126.741 146.063 142.691C145.57 145.965 145.33 148.538 145.343 150.411C145.413 163.051 145.653 174.152 140.773 186.102C140.64 186.435 140.476 186.462 140.283 186.182C139.676 185.302 139.44 184.325 139.573 183.251C139.619 182.899 139.58 182.569 139.463 182.302C135.173 172.402 132.253 163.521 121.583 158.581C114.133 155.121 106.303 151.891 98.513 151.821C91.483 151.751 82.963 153.682 78.133 159.302C67.743 171.372 60.083 181.401 44.353 186.891C42.283 187.601 39.613 187.681 39.343 185.001C39.3284 184.859 39.365 184.715 39.4468 184.593C39.5286 184.471 39.6507 184.379 39.793 184.331C52.983 179.861 61.793 172.941 70.393 162.271C73.873 157.951 77.353 153.162 82.593 150.982C97.383 144.832 113.343 149.881 126.363 157.751C134.993 162.981 136.783 171.432 140.033 180.122Z" fill="#F8FEFF"/>
<path d="M123.285 62.0918C115.491 61.1918 107.381 62.0518 98.9545 64.6718C90.9545 67.1518 82.6745 72.3818 73.6745 74.9518C70.8145 75.7718 68.8745 76.7418 67.2045 78.9018C67.0978 79.0418 66.9978 79.0551 66.9045 78.9418C66.8683 78.9004 66.8464 78.8422 66.8411 78.7734C66.8358 78.7047 66.8474 78.628 66.8745 78.5518C69.2245 72.2418 75.9645 70.9418 81.3945 68.8218C87.4745 66.4518 94.5645 62.0618 101.405 60.6118C107.925 59.2218 129.725 56.2418 133.055 65.8118C133.268 66.4252 133.101 66.8251 132.555 67.0118C132.423 67.0565 132.274 67.0568 132.126 67.0126C131.977 66.9684 131.835 66.8815 131.715 66.7618C128.901 63.9751 126.091 62.4185 123.285 62.0918Z" fill="#F8FEFF"/>
<path d="M97.6647 93.8616C99.7947 99.1616 101.215 102.752 106.595 102.802C111.435 102.842 114.485 100.578 115.745 96.0115C117.165 90.8215 113.305 87.7115 109.355 84.3815C118.395 82.9615 121.735 89.5215 121.015 97.3815C120.288 105.242 115.915 109.495 107.895 110.142C104.708 110.402 101.961 109.792 99.6547 108.312C94.768 105.172 94.1047 100.355 97.6647 93.8616Z" fill="#FEFEFC"/>
<path d="M109.354 84.3818C113.304 87.7118 117.164 90.8218 115.744 96.0118C114.484 100.579 111.434 102.842 106.594 102.802C101.214 102.752 99.7941 99.1619 97.6641 93.8619C99.2841 88.0885 103.181 84.9285 109.354 84.3818Z" fill="#0E0D1D"/>
<path d="M47.8846 114.782C50.5346 124.862 65.8046 122.722 63.7646 113.072C63.0046 109.442 59.1646 107.502 55.8446 106.492C57.6846 104.659 59.858 103.995 62.3646 104.502C69.2846 105.912 72.0446 112.102 70.2346 118.542C66.8646 130.512 44.5946 131.082 45.4746 116.592C45.5879 114.739 46.3912 114.135 47.8846 114.782Z" fill="#FEFEFC"/>
<path d="M55.8428 106.492C59.1628 107.502 63.0028 109.442 63.7628 113.072C65.8028 122.722 50.5328 124.862 47.8828 114.782C49.0228 110.522 51.6762 107.758 55.8428 106.492Z" fill="#0E0D1D"/>
<path d="M33.4345 115.032C34.5945 113.758 34.7512 113.872 33.9045 115.372C30.9945 120.532 29.2545 125.482 28.7345 131.852C28.6045 133.472 27.3545 149.082 26.2845 149.002C26.1658 148.993 26.0518 148.916 25.9635 148.786C25.8753 148.655 25.8188 148.48 25.8045 148.292C25.0245 136.512 25.8645 123.322 33.4345 115.032Z" fill="#FEFEFC"/>
</svg>
