<svg width="109" height="103" viewBox="0 0 109 103" fill="none" xmlns="http://www.w3.org/2000/svg">
<path d="M35.7939 65.7639C38.0639 76.7939 41.3939 91.244 46.9639 101.054C46.9935 101.108 47.0348 101.154 47.0848 101.19C47.1347 101.226 47.192 101.249 47.2525 101.26C47.313 101.271 47.375 101.267 47.4341 101.251C47.4932 101.234 47.5478 101.205 47.5939 101.164C56.0139 93.844 62.8439 83.804 68.3939 74.424C68.6289 74.024 68.9853 73.7131 69.405 73.5424C69.8246 73.3716 70.2825 73.351 70.7039 73.484C82.4906 77.2306 94.5739 78.6739 106.954 77.8139C107.125 77.802 107.289 77.7469 107.434 77.6529C107.579 77.5588 107.7 77.4283 107.789 77.2715C107.878 77.1147 107.932 76.9359 107.947 76.749C107.962 76.5622 107.937 76.3722 107.874 76.1939C103.754 64.6439 98.0439 57.794 89.5439 48.904C89.347 48.6988 89.2184 48.438 89.1754 48.1569C89.1324 47.8759 89.1773 47.5885 89.3039 47.3339C94.5239 36.9139 99.2673 26.2806 103.534 15.4339C103.647 15.1473 103.541 15.0406 103.214 15.114C91.0872 17.8873 79.0905 21.1406 67.2239 24.8739C67.0605 24.9268 66.8961 24.9446 66.7542 24.9249C66.6123 24.9051 66.5002 24.8488 66.4339 24.7639L47.9939 1.72396C47.1205 0.637295 46.5039 0.773935 46.1439 2.13394L38.0239 32.424C37.6306 33.864 36.7939 34.8406 35.5139 35.354C24.4672 39.7606 13.3172 45.0673 2.06389 51.2739C1.14389 51.7806 0.820581 52.5373 1.09391 53.544C1.1338 53.6887 1.21308 53.8229 1.32475 53.9346C1.43642 54.0463 1.57697 54.1319 1.73387 54.1839C14.0205 58.2973 23.4372 61.3206 29.9839 63.2539C32.2839 63.9339 34.0372 64.5373 35.2439 65.0639C35.3804 65.1262 35.5013 65.2219 35.5967 65.3434C35.6922 65.4649 35.7597 65.6089 35.7939 65.7639Z" stroke="#808082" stroke-width="2"/>
<path d="M49.1648 98.3542C56.0382 89.9342 62.4415 81.1708 68.3748 72.0642C68.4418 71.9607 68.5433 71.8759 68.6695 71.8181C68.7956 71.7603 68.9422 71.7314 69.0949 71.7342C73.5249 71.8442 77.6249 73.9642 81.5049 74.4442C89.0582 75.3708 96.6082 75.7542 104.155 75.5942C104.34 75.5911 104.522 75.5436 104.685 75.4558C104.848 75.3679 104.989 75.2421 105.094 75.0888C105.2 74.9355 105.267 74.7591 105.292 74.574C105.316 74.3889 105.297 74.2005 105.235 74.0242C101.915 64.6742 95.1649 57.0442 88.7049 50.0042C87.7649 48.9775 87.6182 47.7975 88.2649 46.4642L100.965 20.1942C102.045 17.9475 101.395 17.1042 99.0149 17.6642C88.4682 20.1375 78.0648 23.0275 67.8048 26.3342C67.4589 26.4471 67.0929 26.4638 66.7506 26.3822C66.4084 26.3006 66.1043 26.1242 65.8749 25.8742C60.0349 19.4542 54.5715 12.7475 49.4848 5.75417C48.4648 4.34751 47.6915 4.48087 47.1648 6.1542C44.5548 14.5842 42.3149 23.1442 39.4549 31.5142C38.3149 34.8342 36.3749 36.5242 33.3449 37.8442C23.4715 42.1242 13.7582 46.7442 4.20487 51.7042C2.41153 52.6375 2.49821 53.3742 4.46488 53.9142C14.6049 56.7075 24.6348 59.8442 34.5548 63.3242C36.0748 63.8575 37.0082 64.9542 37.3548 66.6142C37.8948 69.1842 39.1048 71.4742 39.6048 73.8842C41.3648 82.3575 43.8215 90.3875 46.9748 97.9742C47.5415 99.3209 48.2715 99.4475 49.1648 98.3542Z" stroke="#141838" stroke-width="2"/>
<path d="M35.2439 65.0639C34.0372 64.5373 32.2839 63.9339 29.9839 63.2539C23.4372 61.3206 14.0205 58.2973 1.73387 54.1839C1.57697 54.1319 1.43642 54.0463 1.32475 53.9346C1.21308 53.8229 1.1338 53.6887 1.09391 53.544C0.820581 52.5373 1.14389 51.7806 2.06389 51.2739C13.3172 45.0673 24.4672 39.7606 35.5139 35.354C36.7939 34.8406 37.6306 33.864 38.0239 32.424L46.1439 2.13394C46.5039 0.773935 47.1205 0.637295 47.9939 1.72396L66.4339 24.7639C66.5002 24.8488 66.6123 24.9051 66.7542 24.9249C66.8961 24.9446 67.0605 24.9268 67.2239 24.8739C79.0905 21.1406 91.0872 17.8873 103.214 15.114C103.541 15.0406 103.647 15.1473 103.534 15.4339C99.2673 26.2806 94.5239 36.9139 89.3039 47.3339C89.1773 47.5885 89.1324 47.8759 89.1754 48.1569C89.2184 48.438 89.347 48.6988 89.5439 48.904C98.0439 57.794 103.754 64.6439 107.874 76.1939C107.937 76.3722 107.962 76.5621 107.947 76.749C107.932 76.9359 107.879 77.1147 107.789 77.2715C107.7 77.4283 107.579 77.5588 107.434 77.6529C107.289 77.7469 107.125 77.802 106.954 77.8139C94.5739 78.6739 82.4906 77.2306 70.7039 73.484C70.2825 73.351 69.8246 73.3716 69.405 73.5424C68.9853 73.7131 68.6289 74.024 68.3939 74.424C62.8439 83.804 56.0139 93.844 47.5939 101.164C47.5478 101.205 47.4932 101.234 47.4341 101.251C47.375 101.267 47.313 101.271 47.2525 101.26C47.192 101.249 47.1347 101.226 47.0848 101.19C47.0348 101.154 46.9935 101.108 46.9639 101.054C41.3939 91.244 38.0639 76.7939 35.7939 65.7639C35.7597 65.6089 35.6922 65.4649 35.5967 65.3434C35.5013 65.2219 35.3804 65.1262 35.2439 65.0639ZM49.1639 98.354C56.0372 89.934 62.4406 81.1706 68.3739 72.0639C68.4409 71.9604 68.5424 71.8756 68.6685 71.8178C68.7946 71.76 68.9412 71.7312 69.0939 71.734C73.5239 71.844 77.6239 73.9639 81.5039 74.4439C89.0572 75.3706 96.6072 75.754 104.154 75.594C104.339 75.5908 104.521 75.5434 104.684 75.4555C104.848 75.3677 104.988 75.2419 105.093 75.0886C105.199 74.9353 105.266 74.7589 105.291 74.5738C105.315 74.3887 105.296 74.2002 105.234 74.0239C101.914 64.674 95.1639 57.0439 88.7039 50.0039C87.7639 48.9773 87.6172 47.7973 88.2639 46.464L100.964 20.1939C102.044 17.9473 101.394 17.104 99.0139 17.664C88.4672 20.1373 78.0639 23.0273 67.8039 26.3339C67.458 26.4469 67.0919 26.4636 66.7497 26.382C66.4074 26.3004 66.1034 26.124 65.8739 25.8739C60.0339 19.4539 54.5705 12.7473 49.4839 5.75393C48.4639 4.34726 47.6905 4.48062 47.1639 6.15395C44.5539 14.584 42.3139 23.1439 39.4539 31.5139C38.3139 34.8339 36.3739 36.524 33.3439 37.844C23.4706 42.124 13.7572 46.7439 4.2039 51.7039C2.41057 52.6373 2.49724 53.374 4.46391 53.914C14.6039 56.7073 24.6339 59.8439 34.5539 63.3239C36.0739 63.8573 37.0072 64.954 37.3539 66.614C37.8939 69.184 39.1039 71.4739 39.6039 73.8839C41.3639 82.3573 43.8205 90.3873 46.9739 97.974C47.5405 99.3206 48.2705 99.4473 49.1639 98.354Z" fill="#030416"/>
<path d="M49.1648 98.3537C48.2715 99.4471 47.5415 99.3204 46.9748 97.9737C43.8215 90.387 41.3648 82.357 39.6048 73.8837C39.1048 71.4737 37.8948 69.1837 37.3548 66.6137C37.0082 64.9537 36.0748 63.857 34.5548 63.3237C24.6348 59.8437 14.6049 56.7071 4.46488 53.9137C2.49821 53.3737 2.41153 52.637 4.20487 51.7037C13.7582 46.7437 23.4715 42.1237 33.3449 37.8437C36.3749 36.5237 38.3149 34.8337 39.4549 31.5137C42.3149 23.1437 44.5548 14.5837 47.1648 6.15371C47.6915 4.48038 48.4648 4.34702 49.4848 5.75369C54.5715 12.747 60.0349 19.4537 65.8749 25.8737C66.1043 26.1237 66.4084 26.3002 66.7506 26.3817C67.0929 26.4633 67.4589 26.4466 67.8048 26.3337C78.0648 23.027 88.4682 20.1371 99.0149 17.6637C101.395 17.1037 102.045 17.947 100.965 20.1937L88.2649 46.4637C87.6182 47.797 87.7649 48.977 88.7049 50.0037C95.1649 57.0437 101.915 64.6737 105.235 74.0237C105.297 74.2 105.316 74.3884 105.292 74.5735C105.267 74.7586 105.2 74.935 105.094 75.0883C104.989 75.2416 104.848 75.3674 104.685 75.4553C104.522 75.5431 104.34 75.5906 104.155 75.5937C96.6082 75.7537 89.0582 75.3704 81.5049 74.4437C77.6249 73.9637 73.5249 71.8437 69.0949 71.7337C68.9422 71.7309 68.7956 71.7598 68.6695 71.8176C68.5433 71.8754 68.4418 71.9602 68.3748 72.0637C62.4415 81.1703 56.0382 89.9337 49.1648 98.3537ZM73.086 48.2894C72.8896 47.6628 72.5231 47.0963 72.0075 46.6222C71.4918 46.1481 70.8371 45.7756 70.0806 45.5261C69.3241 45.2766 68.4808 45.1549 67.5987 45.1681C66.7166 45.1812 65.8131 45.3288 64.9397 45.6025C64.0662 45.8762 63.24 46.2707 62.5082 46.7633C61.7764 47.256 61.1534 47.8372 60.6746 48.4738C60.1958 49.1104 59.8707 49.7899 59.7179 50.4735C59.565 51.1571 59.5874 51.8315 59.7837 52.458C59.9801 53.0846 60.3466 53.6511 60.8622 54.1252C61.3779 54.5993 62.0326 54.9718 62.7891 55.2213C63.5456 55.4708 64.3889 55.5925 65.271 55.5794C66.1531 55.5663 67.0566 55.4186 67.93 55.1449C68.8035 54.8712 69.6297 54.4767 70.3615 53.9841C71.0933 53.4914 71.7164 52.9102 72.1952 52.2736C72.6739 51.6371 72.999 50.9576 73.1518 50.2739C73.3047 49.5903 73.2823 48.916 73.086 48.2894Z" fill="#252C59"/>
</svg>
