<svg width="99" height="98" viewBox="0 0 99 98" fill="none" xmlns="http://www.w3.org/2000/svg">
<path d="M4.65486 34.2061C-6.71514 62.2161 9.50488 89.4961 38.6049 94.8761C51.5849 97.2761 67.0649 96.2461 77.9249 88.7461C91.2549 79.5461 99.6549 59.2961 96.6649 43.4961C94.0849 29.8461 84.6849 17.8261 73.7949 9.70612C47.1349 -10.1739 15.8949 6.53612 4.65486 34.2061Z" stroke="#FEE493" stroke-width="2"/>
<path d="M38.6088 94.8761C9.50878 89.4961 -6.71123 62.2161 4.65877 34.2061C15.8988 6.53612 47.1388 -10.1739 73.7988 9.70612C84.6888 17.8261 94.0888 29.8461 96.6688 43.4961C99.6588 59.2961 91.2588 79.5461 77.9288 88.7461C67.0688 96.2461 51.5888 97.2761 38.6088 94.8761Z" fill="#FDCA27"/>
</svg>
