<svg width="48" height="240" viewBox="0 0 48 240" fill="none" xmlns="http://www.w3.org/2000/svg">
<path d="M17.0122 15.9492C22.7422 31.2492 18.6322 34.8692 7.50216 44.1892C-1.70784 51.8992 0.0421591 61.1292 9.87216 66.9292C11.8522 68.0959 15.4355 69.9759 20.6222 72.5692C25.7422 75.1192 28.7222 78.3692 24.5622 83.7492C18.7022 91.3392 0.462174 100.339 1.01217 112.979" stroke="#9498AC" stroke-width="2"/>
<path d="M14.0496 129.27C30.9196 144.07 14.9896 156.1 8.86961 168.81C5.28961 176.24 4.25963 186.06 8.50963 193.21C13.3796 201.39 26.0196 204.66 31.4996 208.5C41.1096 215.25 28.9096 230.66 25.0196 237.11C24.6596 237.71 24.6696 239.08 25.7396 238.42C30.0596 235.786 34.4129 232.153 38.7996 227.52" stroke="#9498AC" stroke-width="2"/>
<path d="M38.8024 227.52C48.4124 218.34 50.0924 207.23 37.1724 200.06C32.8657 197.666 28.5257 195.246 24.1523 192.8" stroke="#898C9B" stroke-width="2"/>
<path d="M24.1503 192.8C16.677 187.06 15.547 180.204 20.7604 172.23" stroke="#9498AC" stroke-width="2"/>
<path d="M20.7617 172.229C30.8517 160.519 49.1317 142.889 30.0517 129.439" stroke="#878997" stroke-width="2"/>
<path d="M30.0507 129.44C19.4807 121.08 10.2407 114.58 21.3607 100.38C26.3407 94.0195 34.8207 90.1195 41.0507 84.7695" stroke="#9498AC" stroke-width="2"/>
<path d="M41.0519 84.7705C49.2519 77.6505 39.9419 69.1505 32.8519 66.4305C29.0119 64.9638 25.2019 63.2305 21.4219 61.2305" stroke="#83858F" stroke-width="2"/>
<path d="M21.422 61.2305C14.892 55.8305 18.872 51.4305 23.772 46.9505C26.9853 44.0105 30.0653 40.9371 33.012 37.7305" stroke="#9498AC" stroke-width="2"/>
<path d="M33.0094 37.7297C38.5027 30.423 38.0493 23.5297 31.6493 17.0497C25.4493 10.7697 18.1527 5.45301 9.75937 1.09968C9.6176 1.02396 9.46025 0.989996 9.30954 1.00255C9.15884 1.01511 9.02237 1.07357 8.91935 1.16968C8.21935 1.80968 8.19935 2.55968 8.85935 3.41968C11.4793 6.87968 14.196 11.0563 17.0094 15.9497" stroke="#898C9B" stroke-width="2"/>
<path d="M33.01 37.7303C32.63 37.657 32.3767 37.4936 32.25 37.2403C32.1986 37.1344 32.1872 36.9947 32.2171 36.8362C32.2471 36.6777 32.3172 36.5063 32.42 36.3403C36 30.507 35.6433 24.9503 31.35 19.6703C29.62 17.5403 16.58 4.75029 13.88 6.67029C13.8276 6.70706 13.7837 6.75504 13.7512 6.81142C13.7187 6.86779 13.6981 6.9314 13.6906 6.9985C13.6832 7.06561 13.689 7.13485 13.7078 7.20213C13.7266 7.26942 13.7579 7.3334 13.8 7.39029C15.68 9.97029 16.75 12.8236 17.01 15.9503" stroke="#1F264E" stroke-width="2"/>
<path d="M21.4219 61.2305C21.4485 63.1438 22.4919 64.3938 24.5519 64.9805C31.3519 66.9105 47.0319 73.5405 40.7019 83.6805C40.4519 84.0805 40.3619 84.8105 41.0519 84.7705" stroke="#191E42" stroke-width="2"/>
<path d="M30.0518 129.439C29.6718 129.626 29.4518 129.929 29.3918 130.349C29.373 130.482 29.4002 130.626 29.4705 130.767C29.5409 130.908 29.6518 131.04 29.7918 131.149C33.8018 134.239 36.3617 137.869 36.1617 143.209C35.7217 154.869 28.2418 162.479 20.6818 169.919C20.0518 170.549 19.1518 172.059 20.7618 172.229" stroke="#1D224A" stroke-width="2"/>
<path d="M24.1523 192.8C24.399 196.086 26.1923 198.243 29.5323 199.27C34.619 200.843 38.7857 203.516 42.0323 207.29C42.0911 207.359 42.1463 207.48 42.1933 207.644C42.2403 207.808 42.2777 208.008 42.3024 208.23C42.469 209.65 42.8657 211.003 43.4924 212.29C43.6092 212.529 43.6478 212.856 43.6024 213.22C43.0124 217.63 40.0624 221.99 37.6024 225.61C37.4984 225.761 37.4226 225.92 37.3796 226.076C37.3366 226.233 37.3273 226.384 37.3524 226.52C37.4924 227.2 37.9757 227.533 38.8024 227.52" stroke="#1F264E" stroke-width="2"/>
<path d="M19.7027 130.619C21.1027 131.346 22.156 132.383 22.8627 133.729C22.9504 133.892 23.0657 134.028 23.1905 134.116C23.3153 134.205 23.4427 134.241 23.5527 134.219C23.946 134.139 24.2261 133.916 24.3927 133.549C24.4487 133.421 24.4576 133.268 24.4186 133.11C24.3795 132.952 24.2941 132.796 24.1727 132.659C23.0994 131.466 21.8127 130.586 20.3127 130.019C19.9227 129.869 18.5827 130.049 19.7027 130.619Z" stroke="#4B527B" stroke-width="2"/>
<path d="M33.0094 37.7297C32.6294 37.6563 32.376 37.493 32.2494 37.2397C32.1979 37.1338 32.1865 36.9941 32.2165 36.8356C32.2464 36.6771 32.3165 36.5057 32.4193 36.3397C35.9993 30.5063 35.6427 24.9497 31.3493 19.6697C29.6193 17.5397 16.5794 4.74968 13.8794 6.66968C13.8269 6.70646 13.7831 6.75444 13.7505 6.81081C13.718 6.86718 13.6974 6.9308 13.69 6.9979C13.6825 7.06501 13.6883 7.13424 13.7071 7.20153C13.7259 7.26882 13.7573 7.3328 13.7994 7.38969C15.6794 9.96968 16.7494 12.823 17.0094 15.9497C14.196 11.0563 11.4793 6.87968 8.85935 3.41968C8.19935 2.55968 8.21935 1.80968 8.91935 1.16968C9.02237 1.07357 9.15884 1.01511 9.30954 1.00255C9.46025 0.989996 9.6176 1.02396 9.75937 1.09968C18.1527 5.45301 25.4493 10.7697 31.6493 17.0497C38.0493 23.5297 38.5027 30.423 33.0094 37.7297Z" fill="#141A3C"/>
<path d="M33.0122 37.7303C30.0655 40.937 26.9855 44.0103 23.7721 46.9503C18.8721 51.4303 14.8921 55.8303 21.4221 61.2303C21.4488 63.1436 22.4922 64.3936 24.5522 64.9803C31.3522 66.9103 47.0322 73.5403 40.7022 83.6803C40.4522 84.0803 40.3622 84.8103 41.0522 84.7703C34.8222 90.1203 26.3421 94.0203 21.3622 100.38C10.2422 114.58 19.4822 121.08 30.0522 129.44C29.6722 129.627 29.4522 129.93 29.3922 130.35C29.3734 130.483 29.4006 130.627 29.4709 130.768C29.5413 130.909 29.6522 131.041 29.7921 131.15C33.8021 134.24 36.3621 137.87 36.1621 143.21C35.7221 154.87 28.2422 162.48 20.6822 169.92C20.0522 170.55 19.1522 172.06 20.7622 172.23C15.5488 180.204 16.6788 187.06 24.1521 192.8C24.3988 196.087 26.1921 198.244 29.5321 199.27C34.6188 200.844 38.7855 203.517 42.0321 207.29C42.0909 207.359 42.1461 207.481 42.1931 207.644C42.2401 207.808 42.2775 208.009 42.3022 208.23C42.4688 209.65 42.8655 211.004 43.4922 212.29C43.609 212.53 43.6476 212.856 43.6021 213.22C43.0121 217.63 40.0621 221.99 37.6021 225.61C37.4982 225.761 37.4224 225.92 37.3794 226.077C37.3363 226.233 37.3271 226.384 37.3521 226.52C37.4921 227.2 37.9755 227.534 38.8022 227.52C34.4155 232.154 30.0622 235.787 25.7422 238.42C24.6722 239.08 24.6621 237.71 25.0221 237.11C28.9121 230.66 41.1122 215.25 31.5022 208.5C26.0222 204.66 13.3822 201.39 8.51217 193.21C4.26217 186.06 5.29216 176.24 8.87216 168.81C14.9922 156.1 30.9222 144.07 14.0522 129.27C14.4522 129.077 14.6655 128.784 14.6922 128.39C14.7008 128.261 14.6631 128.118 14.5827 127.975C14.5022 127.832 14.3816 127.692 14.2321 127.57C12.4521 126.124 10.8755 124.487 9.50216 122.66C7.11216 119.49 2.46215 117.59 2.49215 113.33C2.49178 113.155 2.45267 112.988 2.37973 112.851C2.30679 112.714 2.2033 112.613 2.08218 112.56C1.62218 112.36 1.26551 112.5 1.01217 112.98C0.462174 100.34 18.7022 91.3403 24.5622 83.7503C28.7222 78.3703 25.7422 75.1203 20.6222 72.5703C15.4355 69.9769 11.8522 68.097 9.87216 66.9303C0.0421591 61.1303 -1.70784 51.9003 7.50216 44.1903C18.6322 34.8703 22.7422 31.2503 17.0122 15.9503C16.7522 12.8236 15.6822 9.97029 13.8022 7.39029C13.7601 7.3334 13.7287 7.26942 13.7099 7.20213C13.6911 7.13485 13.6853 7.06561 13.6928 6.9985C13.7002 6.9314 13.7208 6.86779 13.7533 6.81142C13.7859 6.75504 13.8297 6.70706 13.8822 6.67029C16.5822 4.75029 29.6221 17.5403 31.3521 19.6703C35.6455 24.9503 36.0021 30.507 32.4221 36.3403C32.3193 36.5063 32.2492 36.6777 32.2193 36.8362C32.1893 36.9947 32.2007 37.1344 32.2522 37.2403C32.3788 37.4936 32.6322 37.657 33.0122 37.7303ZM19.7022 130.62C21.1022 131.347 22.1555 132.384 22.8622 133.73C22.9499 133.893 23.0651 134.029 23.1899 134.117C23.3147 134.206 23.4421 134.242 23.5522 134.22C23.9455 134.14 24.2255 133.917 24.3922 133.55C24.4481 133.422 24.4571 133.269 24.418 133.111C24.3789 132.953 24.2935 132.797 24.1721 132.66C23.0988 131.467 21.8122 130.587 20.3122 130.02C19.9222 129.87 18.5822 130.05 19.7022 130.62Z" fill="#2A315F"/>
<path d="M21.4219 61.2305C25.2019 63.2305 29.0119 64.9638 32.8519 66.4305C39.9419 69.1505 49.2519 77.6505 41.0519 84.7705C40.3619 84.8105 40.4519 84.0805 40.7019 83.6805C47.0319 73.5405 31.3519 66.9105 24.5519 64.9805C22.4919 64.3938 21.4485 63.1438 21.4219 61.2305Z" fill="#070B24"/>
<path d="M14.0517 129.27C8.4817 124.51 1.36172 119.46 1.01172 112.98C1.26505 112.5 1.62173 112.36 2.08173 112.56C2.20284 112.613 2.30633 112.714 2.37927 112.851C2.45221 112.988 2.49133 113.154 2.4917 113.33C2.4617 117.59 7.11171 119.49 9.50171 122.66C10.875 124.487 12.4517 126.123 14.2317 127.57C14.3812 127.692 14.5018 127.831 14.5822 127.975C14.6627 128.118 14.7004 128.261 14.6917 128.39C14.665 128.783 14.4517 129.077 14.0517 129.27Z" fill="#181C41"/>
<path d="M30.0518 129.439C49.1318 142.889 30.8518 160.519 20.7618 172.229C19.1518 172.059 20.0518 170.549 20.6818 169.919C28.2418 162.479 35.7217 154.869 36.1617 143.209C36.3617 137.869 33.8018 134.239 29.7918 131.149C29.6518 131.04 29.5409 130.908 29.4705 130.767C29.4002 130.626 29.373 130.482 29.3918 130.349C29.4518 129.929 29.6718 129.626 30.0518 129.439Z" fill="#0F1334"/>
<path d="M19.6988 130.62C18.5788 130.05 19.9188 129.87 20.3088 130.02C21.8088 130.587 23.0955 131.467 24.1688 132.66C24.2902 132.797 24.3756 132.953 24.4147 133.111C24.4537 133.269 24.4448 133.422 24.3888 133.55C24.2222 133.917 23.9421 134.14 23.5488 134.22C23.4388 134.242 23.3114 134.206 23.1866 134.117C23.0618 134.029 22.9465 133.893 22.8588 133.73C22.1521 132.384 21.0988 131.347 19.6988 130.62Z" fill="#6B7296"/>
<path d="M24.1523 192.8C28.5257 195.246 32.8657 197.666 37.1724 200.06C50.0924 207.23 48.4124 218.34 38.8024 227.52C37.9757 227.533 37.4924 227.2 37.3524 226.52C37.3273 226.384 37.3366 226.233 37.3796 226.076C37.4226 225.92 37.4984 225.761 37.6024 225.61C40.0624 221.99 43.0124 217.63 43.6024 213.22C43.6478 212.856 43.6092 212.529 43.4924 212.29C42.8657 211.003 42.469 209.65 42.3024 208.23C42.2777 208.008 42.2403 207.808 42.1933 207.644C42.1463 207.48 42.0911 207.359 42.0323 207.29C38.7857 203.516 34.619 200.843 29.5323 199.27C26.1923 198.243 24.399 196.086 24.1523 192.8Z" fill="#141A3C"/>
</svg>
