<svg width="64" height="67" viewBox="0 0 64 67" fill="none" xmlns="http://www.w3.org/2000/svg">
<path d="M22.0673 8.15253C13.1773 4.17253 12.5973 13.7525 10.7473 19.1025C10.6448 19.3974 10.4263 19.6446 10.1373 19.7925C2.84397 23.4592 0.340639 29.2325 2.62731 37.1125C3.78731 41.0725 6.8173 41.6525 7.1573 46.5625C7.5373 52.0525 10.7873 55.9725 16.1373 57.1925C19.5373 57.9625 23.7373 56.2725 27.2273 55.3225C27.3573 55.2864 27.4961 55.3002 27.6164 55.3613C27.7367 55.4224 27.8298 55.5263 27.8773 55.6525C32.0773 66.7225 42.3773 69.1025 48.4873 57.9525C49.0606 56.9059 49.8906 53.9459 50.9773 49.0725C51.0118 48.9166 51.0783 48.7718 51.1718 48.6489C51.2653 48.5259 51.3834 48.4281 51.5173 48.3625C53.3973 47.4325 55.6373 47.2125 57.2373 46.1525C62.2706 42.8125 63.824 38.2359 61.8973 32.4225C60.8173 29.1625 58.2773 27.2925 55.7473 25.0425C55.6411 24.9515 55.5695 24.8259 55.5441 24.6861C55.5187 24.5464 55.541 24.4006 55.6073 24.2725C60.3073 15.0325 54.7173 8.17253 45.0073 8.69253C44.8586 8.70196 44.7095 8.6719 44.5745 8.60529C44.4395 8.53869 44.3234 8.43782 44.2373 8.31253C37.9873 -0.987473 30.5473 0.0125256 23.6773 7.80253C23.4804 8.02359 23.2185 8.17656 22.9292 8.23944C22.64 8.30233 22.3382 8.2719 22.0673 8.15253Z" stroke="#959399" stroke-width="2"/>
<path d="M24.146 45.3032C36.846 56.1332 50.016 38.2132 43.956 26.4632C41.616 21.9232 37.7994 19.6266 32.506 19.5732C17.416 19.4232 13.976 36.6332 24.146 45.3032Z" stroke="#7E5752" stroke-width="2"/>
<path d="M43.2769 35.4528C44.4169 29.7628 40.8569 22.1928 34.4869 21.5028C20.5169 19.9828 15.577 35.4328 25.587 43.8928C33.747 50.7928 41.5969 43.8228 43.2769 35.4528Z" stroke="#7E5752" stroke-width="2"/>
<path d="M22.0673 8.15253C22.3382 8.2719 22.64 8.30233 22.9292 8.23944C23.2185 8.17656 23.4804 8.02359 23.6773 7.80253C30.5473 0.0125256 37.9873 -0.987473 44.2373 8.31253C44.3234 8.43782 44.4395 8.53869 44.5745 8.60529C44.7095 8.6719 44.8586 8.70196 45.0073 8.69253C54.7173 8.17253 60.3073 15.0325 55.6073 24.2725C55.541 24.4006 55.5187 24.5464 55.5441 24.6861C55.5695 24.8259 55.6411 24.9515 55.7473 25.0425C58.2773 27.2925 60.8173 29.1625 61.8973 32.4225C63.824 38.2359 62.2706 42.8125 57.2373 46.1525C55.6373 47.2125 53.3973 47.4325 51.5173 48.3625C51.3834 48.4281 51.2653 48.5259 51.1718 48.6489C51.0783 48.7718 51.0118 48.9166 50.9773 49.0725C49.8906 53.9459 49.0606 56.9059 48.4873 57.9525C42.3773 69.1025 32.0773 66.7225 27.8773 55.6525C27.8298 55.5263 27.7367 55.4224 27.6164 55.3613C27.4961 55.3002 27.3573 55.2864 27.2273 55.3225C23.7373 56.2725 19.5373 57.9625 16.1373 57.1925C10.7873 55.9725 7.5373 52.0525 7.1573 46.5625C6.8173 41.6525 3.78731 41.0725 2.62731 37.1125C0.340639 29.2325 2.84397 23.4592 10.1373 19.7925C10.4263 19.6446 10.6448 19.3974 10.7473 19.1025C12.5973 13.7525 13.1773 4.17253 22.0673 8.15253ZM24.1473 45.3025C36.8473 56.1325 50.0173 38.2125 43.9573 26.4625C41.6173 21.9225 37.8006 19.6259 32.5073 19.5725C17.4173 19.4225 13.9773 36.6325 24.1473 45.3025Z" fill="#2C2737"/>
<path d="M24.1499 45.3032C13.9799 36.6332 17.4199 19.4232 32.5099 19.5732C37.8033 19.6266 41.6199 21.9232 43.9599 26.4632C50.0199 38.2132 36.8499 56.1332 24.1499 45.3032ZM43.2799 35.4532C44.4199 29.7632 40.8599 22.1932 34.4899 21.5032C20.5199 19.9832 15.5799 35.4332 25.5899 43.8932C33.7499 50.7932 41.5999 43.8232 43.2799 35.4532Z" fill="#D0876D"/>
<path d="M34.4869 21.5028C40.8569 22.1928 44.4169 29.7628 43.2769 35.4528C41.5969 43.8228 33.747 50.7928 25.587 43.8928C15.577 35.4328 20.5169 19.9828 34.4869 21.5028Z" fill="#2C2737"/>
</svg>
