<svg width="12" height="18" viewBox="0 0 12 18" fill="none" xmlns="http://www.w3.org/2000/svg">
<path d="M1 14.5507L1.35 15.9307C1.38931 16.0899 1.46194 16.2328 1.55937 16.3426C1.65681 16.4524 1.77498 16.5246 1.9 16.5507C4.51333 17.0574 6.51333 16.3074 7.9 14.3007C17.06 1.08074 1.55 -4.1393 1.04 8.3307" stroke="#B5E7D9" stroke-width="2"/>
<path d="M1 14.5507L1.04 8.3307C1.55 -4.1393 17.06 1.08074 7.9 14.3007C6.51333 16.3074 4.51333 17.0574 1.9 16.5507C1.77498 16.5246 1.65681 16.4524 1.55937 16.3426C1.46194 16.2328 1.38931 16.0899 1.35 15.9307L1 14.5507Z" fill="#6BCEB3"/>
</svg>
