<svg width="46" height="159" viewBox="0 0 46 159" fill="none" xmlns="http://www.w3.org/2000/svg">
<path d="M12.4811 67.3736C10.6113 67.7236 7.48491 53.4237 5.03205 56.7337C4.33507 57.6737 4.14742 58.707 4.46911 59.8336C6.05743 65.407 7.8267 70.387 9.77692 74.7736C10.5912 76.6336 12.6319 77.8436 12.5515 80.3636C12.3705 86.1136 13.6472 92.0237 13.9689 97.8237C14.3207 104.014 7.57539 92.6637 6.23839 90.6037C4.38869 87.7337 2.19721 89.0236 3.36332 91.9936C5.85639 98.307 9.27093 104.13 13.607 109.464C13.8793 109.806 14.0498 110.138 14.0895 110.404C14.8669 116.13 14.7497 121.864 13.7377 127.604C13.2887 130.15 12.3203 130.37 10.8325 128.264C8.3729 124.777 6.27525 121.047 4.53948 117.074C4.4037 116.765 4.15681 116.516 3.84584 116.374C-5.03068 112.364 9.54572 135.934 11.1642 138.734C11.2472 138.87 11.3024 139.021 11.3265 139.177C11.3507 139.333 11.3433 139.492 11.3049 139.644C10.1388 144.31 8.82193 148.934 7.35424 153.514C6.77118 155.314 7.01244 156.734 8.82192 157.464C9.1192 157.586 9.46678 157.59 9.79703 157.474C14.2403 155.904 14.5419 147.154 15.6879 142.994C16.0498 141.687 16.844 140.784 18.0704 140.284L32.8478 134.254C33.1963 134.114 33.5348 134.064 33.8632 134.104C38.216 134.624 39.5128 126.974 34.2552 128.434C28.9675 129.907 23.7904 131.49 18.7238 133.184C18.6185 133.219 18.5061 133.225 18.3975 133.201C18.2889 133.176 18.1878 133.122 18.1039 133.043C18.02 132.965 17.9561 132.865 17.9186 132.753C17.881 132.641 17.871 132.52 17.8894 132.404C18.9416 125.337 19.5448 118.234 19.6989 111.094C19.702 110.927 19.7417 110.768 19.8142 110.633C19.8866 110.498 19.989 110.391 20.1111 110.324C27.5367 106.13 35.1466 102.307 42.9407 98.8537C43.193 98.7448 43.4158 98.6245 43.5844 98.5062C43.7529 98.3879 43.8607 98.2763 43.8957 98.1836C44.3917 96.8703 44.4151 95.4836 43.9661 94.0236C43.6578 92.997 42.8268 92.8437 41.473 93.5637C35.0728 96.9637 28.5252 100.064 21.8301 102.864C20.2485 103.524 19.3873 103.027 19.2466 101.374L17.99 86.3336C17.9786 86.1723 18.0172 86.0097 18.1011 85.8659C18.185 85.722 18.3106 85.6031 18.4624 85.5236C25.0704 81.9503 31.0618 77.5603 36.4367 72.3537C36.6441 72.1482 36.7903 71.8148 36.8488 71.4137C37.07 69.8737 36.5204 68.667 35.2002 67.7937C34.8864 67.5877 34.5175 67.4844 34.1469 67.4988C33.7763 67.5132 33.4234 67.6445 33.1394 67.8736C28.9675 71.2336 23.6999 76.4137 18.754 78.1637C18.7001 78.1842 18.6421 78.1909 18.5847 78.1833C18.5273 78.1756 18.4723 78.1537 18.4241 78.1195C18.3759 78.0852 18.336 78.0396 18.3077 77.9864C18.2794 77.9333 18.2635 77.874 18.2614 77.8137C17.9464 70.5337 18.0737 63.2537 18.6434 55.9737C18.9852 51.5337 18.6534 49.2036 22.8153 47.5536C28.0494 45.4803 32.811 43.937 37.1001 42.9236C38.9297 42.497 39.6569 41.4937 39.2816 39.9137C38.8795 38.207 37.8373 37.567 36.1552 37.9936L23.8808 41.1136C21.4816 41.727 20.6204 40.877 21.2973 38.5637C22.5841 34.1537 23.0867 26.4736 26.1829 22.6436C27.8316 20.6036 30.9278 20.4137 32.9584 19.3137C33.9838 18.7603 34.9958 18.1803 35.9943 17.5737C36.1887 17.4537 36.5037 17.3836 36.9393 17.3636C39.4055 17.2503 41.4597 16.287 43.1016 14.4737C43.1825 14.3877 43.2421 14.262 43.2753 14.1072C43.3085 13.9524 43.3145 13.7729 43.2926 13.5836C42.9106 10.3036 40.0556 10.3437 37.4319 11.2537C34.5166 12.2803 31.4505 12.8503 28.2337 12.9636C28.1709 12.9666 28.1083 12.956 28.0497 12.9324C27.9912 12.9088 27.938 12.8729 27.8935 12.8268C27.8491 12.7807 27.8144 12.7255 27.7916 12.6647C27.7688 12.6039 27.7584 12.5388 27.7612 12.4737C27.9019 9.94699 28.3476 7.48033 29.0982 5.07366C29.6611 3.26366 29.7717 0.0236562 26.7459 1.28366C26.4597 1.40039 26.2111 1.63002 26.0422 1.93365C24.4606 4.74032 23.4352 7.71032 22.9661 10.8437C21.9407 17.7737 20.1815 24.1437 18.9852 31.1937C18.7975 32.3003 18.3452 33.287 17.6281 34.1537C15.1953 37.1037 14.2303 27.8537 13.999 26.8137C13.95 26.5938 13.8791 26.3959 13.793 26.2386C13.7068 26.0812 13.6083 25.9695 13.5065 25.9137C12.7023 25.4803 11.8779 25.437 11.0335 25.7837C10.9499 25.8206 10.8809 25.921 10.8373 26.0692C10.7937 26.2175 10.7779 26.4053 10.7923 26.6037C11.1642 31.4437 11.8679 42.3937 15.2757 45.9837C15.3801 46.0934 15.4593 46.227 15.5079 46.3755C15.5565 46.5239 15.5733 46.6836 15.5572 46.8437L13.6171 66.0937C13.5856 66.4083 13.4578 66.7032 13.2529 66.9341C13.048 67.1649 12.7772 67.3192 12.4811 67.3736Z" stroke="#89878E" stroke-width="2"/>
<path d="M12.4811 67.3736C12.7772 67.3192 13.048 67.1649 13.2529 66.9341C13.4578 66.7032 13.5856 66.4083 13.6171 66.0937L15.5572 46.8437C15.5733 46.6836 15.5565 46.5239 15.5079 46.3755C15.4593 46.227 15.3801 46.0934 15.2757 45.9837C11.8679 42.3937 11.1642 31.4437 10.7923 26.6037C10.7779 26.4053 10.7937 26.2175 10.8373 26.0692C10.8809 25.921 10.9499 25.8206 11.0335 25.7837C11.8779 25.437 12.7023 25.4803 13.5065 25.9137C13.6083 25.9695 13.7068 26.0812 13.793 26.2386C13.8791 26.3959 13.95 26.5938 13.999 26.8137C14.2303 27.8537 15.1953 37.1037 17.6281 34.1537C18.3452 33.287 18.7975 32.3003 18.9852 31.1937C20.1815 24.1437 21.9407 17.7737 22.9661 10.8437C23.4352 7.71032 24.4606 4.74032 26.0422 1.93365C26.2111 1.63002 26.4597 1.40039 26.7459 1.28366C29.7717 0.0236562 29.6611 3.26366 29.0982 5.07366C28.3476 7.48033 27.9019 9.94699 27.7612 12.4737C27.7584 12.5388 27.7688 12.6039 27.7916 12.6647C27.8144 12.7255 27.8491 12.7807 27.8935 12.8268C27.938 12.8729 27.9912 12.9088 28.0497 12.9324C28.1083 12.956 28.1709 12.9666 28.2337 12.9636C31.4505 12.8503 34.5166 12.2803 37.4319 11.2537C40.0556 10.3437 42.9106 10.3036 43.2926 13.5836C43.3145 13.7729 43.3085 13.9524 43.2753 14.1072C43.2421 14.262 43.1825 14.3877 43.1016 14.4737C41.4597 16.287 39.4055 17.2503 36.9393 17.3636C36.5037 17.3836 36.1887 17.4537 35.9943 17.5737C34.9958 18.1803 33.9838 18.7603 32.9584 19.3137C30.9278 20.4137 27.8316 20.6036 26.1829 22.6436C23.0867 26.4736 22.5841 34.1537 21.2973 38.5637C20.6204 40.877 21.4816 41.727 23.8808 41.1136L36.1552 37.9936C37.8373 37.567 38.8795 38.207 39.2816 39.9137C39.6569 41.4937 38.9297 42.497 37.1001 42.9236C32.811 43.937 28.0494 45.4803 22.8153 47.5536C18.6534 49.2036 18.9852 51.5337 18.6434 55.9737C18.0737 63.2537 17.9464 70.5337 18.2614 77.8137C18.2635 77.874 18.2794 77.9333 18.3077 77.9864C18.336 78.0396 18.3759 78.0852 18.4241 78.1195C18.4723 78.1537 18.5273 78.1756 18.5847 78.1833C18.6421 78.1909 18.7001 78.1842 18.754 78.1637C23.6999 76.4137 28.9675 71.2337 33.1394 67.8736C33.4234 67.6445 33.7763 67.5132 34.1469 67.4988C34.5175 67.4844 34.8864 67.5877 35.2002 67.7937C36.5204 68.667 37.07 69.8737 36.8488 71.4137C36.7903 71.8148 36.6441 72.1482 36.4367 72.3537C31.0618 77.5603 25.0704 81.9503 18.4624 85.5236C18.3106 85.6031 18.185 85.722 18.1011 85.8659C18.0172 86.0097 17.9786 86.1723 17.99 86.3336L19.2466 101.374C19.3873 103.027 20.2485 103.524 21.8301 102.864C28.5252 100.064 35.0728 96.9637 41.473 93.5637C42.8268 92.8437 43.6578 92.997 43.9661 94.0236C44.4151 95.4836 44.3917 96.8703 43.8957 98.1836C43.8607 98.2763 43.7529 98.3879 43.5844 98.5062C43.4158 98.6245 43.193 98.7448 42.9407 98.8537C35.1466 102.307 27.5367 106.13 20.1111 110.324C19.989 110.391 19.8866 110.498 19.8142 110.633C19.7417 110.768 19.702 110.927 19.6989 111.094C19.5448 118.234 18.9416 125.337 17.8894 132.404C17.871 132.52 17.881 132.641 17.9186 132.753C17.9561 132.865 18.02 132.965 18.1039 133.043C18.1878 133.122 18.2889 133.176 18.3975 133.201C18.5061 133.225 18.6185 133.219 18.7238 133.184C23.7904 131.49 28.9675 129.907 34.2552 128.434C39.5128 126.974 38.216 134.624 33.8632 134.104C33.5348 134.064 33.1963 134.114 32.8478 134.254L18.0704 140.284C16.844 140.784 16.0498 141.687 15.6879 142.994C14.5419 147.154 14.2403 155.904 9.79703 157.474C9.46678 157.59 9.1192 157.586 8.82192 157.464C7.01244 156.734 6.77118 155.314 7.35424 153.514C8.82193 148.934 10.1388 144.31 11.3049 139.644C11.3433 139.492 11.3507 139.333 11.3265 139.177C11.3024 139.021 11.2472 138.87 11.1642 138.734C9.54572 135.934 -5.03068 112.364 3.84584 116.374C4.15681 116.516 4.4037 116.765 4.53948 117.074C6.27525 121.047 8.3729 124.777 10.8325 128.264C12.3203 130.37 13.2887 130.15 13.7377 127.604C14.7497 121.864 14.8669 116.13 14.0895 110.404C14.0498 110.138 13.8793 109.806 13.607 109.464C9.27093 104.13 5.85639 98.307 3.36332 91.9936C2.19721 89.0236 4.38869 87.7337 6.23839 90.6037C7.5754 92.6637 14.3207 104.014 13.9689 97.8237C13.6472 92.0237 12.3705 86.1136 12.5515 80.3636C12.6319 77.8436 10.5912 76.6336 9.77692 74.7736C7.8267 70.387 6.05743 65.407 4.46911 59.8336C4.14742 58.707 4.33507 57.6737 5.03205 56.7337C7.48491 53.4237 10.6113 67.7236 12.4811 67.3736Z" fill="#13162B"/>
</svg>
