<svg width="136" height="158" viewBox="0 0 136 158" fill="none" xmlns="http://www.w3.org/2000/svg">
<path d="M5.4825 146.743C8.2725 157.243 14.4125 160.753 20.1425 148.773C27.9925 132.403 34.4425 119.373 44.5325 105.443C53.5425 93.0033 62.2225 88.4333 77.5825 88.1633C99.6825 87.7633 130.492 92.8133 134.032 61.3833C137.392 31.5133 112.222 2.11334 81.9725 1.07334C73.2525 0.773338 65.7225 1.28333 58.0025 4.69333C26.6125 18.5433 12.0825 51.4133 4.61251 82.6033C-0.487494 103.913 -0.167499 125.523 5.4825 146.743Z" stroke="#FDABA4" stroke-width="2"/>
<path d="M20.1386 148.774C14.4086 160.754 8.2686 157.244 5.4786 146.744C-0.171405 125.524 -0.4914 103.914 4.6086 82.6038C12.0786 51.4138 26.6086 18.5438 57.9986 4.69382C65.7186 1.28382 73.2486 0.773826 81.9686 1.07383C112.219 2.11383 137.389 31.5138 134.029 61.3838C130.489 92.8138 99.6786 87.7638 77.5786 88.1638C62.2186 88.4338 53.5386 93.0038 44.5286 105.444C34.4386 119.374 27.9886 132.404 20.1386 148.774Z" fill="#FC584C"/>
</svg>
