<svg width="18" height="18" viewBox="0 0 18 18" fill="none" xmlns="http://www.w3.org/2000/svg">
<path d="M13.2671 5.14145C12.2177 3.98425 10.7236 3.31674 9.11332 3.28579C7.50306 3.25485 5.90859 3.86303 4.68064 4.97647C4.07262 5.52779 3.57285 6.18655 3.20994 6.91519C2.84702 7.64382 2.62808 8.42803 2.56553 9.22305C2.50298 10.0181 2.5981 10.8083 2.84544 11.5487C3.09277 12.289 3.48749 12.965 4.00706 13.5381C5.05638 14.6952 6.55048 15.3628 8.16074 15.3937C9.771 15.4246 11.3655 14.8165 12.5934 13.703C13.2014 13.1517 13.7012 12.4929 14.0641 11.7643C14.427 11.0357 14.646 10.2515 14.7085 9.45645C14.7711 8.66143 14.676 7.87119 14.4287 7.13083C14.1814 6.39046 13.7866 5.71445 13.2671 5.14145Z" stroke="#FEA99E" stroke-width="2"/>
<path d="M12.5937 13.7032C15.1508 11.3846 15.4524 7.55144 13.2673 5.14164C11.0822 2.73183 7.2379 2.65792 4.68081 4.97655C2.12372 7.29518 1.82214 11.1283 4.00722 13.5381C6.19229 15.9479 10.0366 16.0219 12.5937 13.7032Z" fill="#FC533C"/>
</svg>
