<svg width="36" height="36" viewBox="0 0 36 36" fill="none" xmlns="http://www.w3.org/2000/svg">
<path d="M28.009 11.1829C27.875 11.1174 27.7588 11.0208 27.6694 10.9006C27.5801 10.7804 27.52 10.64 27.4939 10.49C27.4678 10.3401 27.4764 10.1848 27.5189 10.0361C27.5614 9.88745 27.6367 9.74948 27.739 9.63288C28.299 9.00288 34.869 1.30287 32.159 1.00287C32.036 0.989993 31.8945 1.02055 31.7465 1.09195C31.5984 1.16336 31.4483 1.27349 31.309 1.41288L24.609 8.21286C24.5505 8.27087 24.4814 8.31704 24.4059 8.34858C24.3304 8.38012 24.2501 8.39637 24.1697 8.39637C24.0894 8.39637 24.0107 8.38012 23.9384 8.34858C23.866 8.31704 23.8017 8.27087 23.749 8.21286L19.699 3.74286C19.4045 3.42279 19.1176 3.20403 18.899 3.13288C15.319 2.04288 18.289 11.6029 18.519 13.1729C18.5443 13.3397 18.5388 13.5058 18.5026 13.6606C18.4665 13.8155 18.4006 13.9559 18.309 14.0729C17.909 14.5929 15.449 16.5229 15.819 17.2129C15.878 17.3246 15.9802 17.4272 16.1175 17.5123C16.2547 17.5975 16.4231 17.6627 16.609 17.7029C19.459 18.3429 20.599 20.5529 22.339 22.6329C23.0923 23.5262 23.5457 23.3962 23.699 22.2429C24.159 18.7495 26.0023 16.3629 29.229 15.0829C29.4245 15.0057 29.5943 14.8981 29.717 14.7736C29.8398 14.6491 29.9101 14.5131 29.919 14.3829C30.019 12.9229 29.3824 11.8562 28.009 11.1829Z" stroke="#FCB5A5" stroke-width="2"/>
<path d="M30.9616 28.0031C31.0213 28.0461 31.0736 28.1005 31.1137 28.1614C31.1537 28.2224 31.1804 28.288 31.1913 28.3523C31.2022 28.4167 31.197 28.4779 31.1761 28.5304C31.1552 28.5829 31.1194 28.625 31.0717 28.6531C25.9517 31.6065 20.455 33.1498 14.5817 33.2831C14.501 33.285 14.4206 33.268 14.3478 33.2338C14.275 33.1995 14.2122 33.1492 14.1653 33.0873C14.1184 33.0254 14.0889 32.9541 14.0795 32.8799C14.0701 32.8058 14.0812 32.7312 14.1116 32.6631C14.4783 31.8165 15.1183 31.1731 16.0316 30.7331C16.1824 30.6603 16.3105 30.5566 16.4022 30.4332C16.4938 30.3099 16.5455 30.1715 16.5516 30.0331C16.6816 27.3031 7.49165 26.9131 4.43165 26.6531C1.04165 26.3631 1.32167 28.9431 3.45167 30.3331C13.0517 36.6431 24.2517 35.7231 33.6417 30.2131C34.8683 29.4998 34.8516 28.8165 33.5916 28.1631C31.025 26.8298 28.3183 25.6998 25.4716 24.7731C24.785 24.5531 24.505 24.5831 24.6317 24.8631C24.6852 24.976 24.7642 25.0758 24.8627 25.1554C24.9613 25.2349 25.0771 25.2922 25.2017 25.3231C27.2883 25.8765 29.2083 26.7698 30.9616 28.0031Z" stroke="#FEB7A6" stroke-width="2"/>
<path d="M28.009 11.1829C29.3824 11.8562 30.019 12.9229 29.919 14.3829C29.9101 14.5131 29.8398 14.6491 29.717 14.7736C29.5943 14.8981 29.4245 15.0057 29.229 15.0829C26.0023 16.3629 24.159 18.7495 23.699 22.2429C23.5457 23.3962 23.0923 23.5262 22.339 22.6329C20.599 20.5529 19.459 18.3429 16.609 17.7029C16.4231 17.6627 16.2547 17.5975 16.1175 17.5123C15.9802 17.4272 15.878 17.3246 15.819 17.2129C15.449 16.5229 17.909 14.5929 18.309 14.0729C18.4006 13.9559 18.4665 13.8155 18.5026 13.6606C18.5388 13.5058 18.5443 13.3397 18.519 13.1729C18.289 11.6029 15.319 2.04288 18.899 3.13288C19.1176 3.20403 19.4045 3.42279 19.699 3.74286L23.749 8.21286C23.8017 8.27087 23.866 8.31704 23.9384 8.34858C24.0107 8.38012 24.0894 8.39637 24.1697 8.39637C24.2501 8.39637 24.3304 8.38012 24.4059 8.34858C24.4814 8.31704 24.5505 8.27087 24.609 8.21286L31.309 1.41288C31.4483 1.27349 31.5984 1.16336 31.7465 1.09195C31.8945 1.02055 32.036 0.989993 32.159 1.00287C34.869 1.30287 28.299 9.00288 27.739 9.63288C27.6367 9.74948 27.5614 9.88745 27.5189 10.0361C27.4764 10.1848 27.4678 10.3401 27.4939 10.49C27.52 10.64 27.5801 10.7804 27.6694 10.9006C27.7588 11.0208 27.875 11.1174 28.009 11.1829Z" fill="#FA6F5C"/>
<path d="M30.9616 28.0027C29.2083 26.7693 27.2883 25.876 25.2017 25.3227C25.0771 25.2917 24.9613 25.2344 24.8627 25.1549C24.7642 25.0753 24.6852 24.9755 24.6317 24.8626C24.505 24.5826 24.785 24.5526 25.4716 24.7726C28.3183 25.6993 31.025 26.8293 33.5916 28.1627C34.8516 28.816 34.8683 29.4993 33.6417 30.2126C24.2517 35.7226 13.0517 36.6426 3.45167 30.3326C1.32167 28.9426 1.04165 26.3626 4.43165 26.6526C7.49165 26.9126 16.6816 27.3027 16.5516 30.0327C16.5455 30.1711 16.4938 30.3094 16.4022 30.4327C16.3105 30.5561 16.1824 30.6598 16.0316 30.7326C15.1183 31.1726 14.4783 31.816 14.1116 32.6627C14.0812 32.7307 14.0701 32.8053 14.0795 32.8794C14.0889 32.9536 14.1184 33.0249 14.1653 33.0868C14.2122 33.1487 14.275 33.1991 14.3478 33.2333C14.4206 33.2676 14.501 33.2845 14.5817 33.2827C20.455 33.1493 25.9517 31.606 31.0717 28.6526C31.1194 28.6245 31.1552 28.5824 31.1761 28.5299C31.197 28.4774 31.2022 28.4162 31.1913 28.3518C31.1804 28.2875 31.1537 28.2219 31.1137 28.1609C31.0736 28.1 31.0213 28.0456 30.9616 28.0027Z" fill="#FE725E"/>
</svg>
