<svg width="51" height="35" viewBox="0 0 51 35" fill="none" xmlns="http://www.w3.org/2000/svg">
<path d="M15.3504 10.3429C15.6134 9.6505 15.7012 8.8993 15.6088 8.1322C15.5163 7.36509 15.2455 6.5971 14.8116 5.87206C14.3778 5.14703 13.7895 4.47919 13.0804 3.90661C12.3712 3.33403 11.5551 2.86793 10.6785 2.53497C9.802 2.202 8.88226 2.00872 7.9718 1.96606C7.06134 1.9234 6.17797 2.03223 5.37219 2.28637C4.56641 2.54052 3.854 2.935 3.27558 3.44726C2.69715 3.95952 2.26406 4.57952 2.00104 5.27191C1.73803 5.96429 1.65023 6.7155 1.74268 7.4826C1.83512 8.2497 2.10597 9.01764 2.5398 9.74267C2.97362 10.4677 3.5619 11.1356 4.27106 11.7082C4.98022 12.2808 5.79638 12.7468 6.67291 13.0798C7.54944 13.4127 8.46918 13.6061 9.37964 13.6487C10.2901 13.6914 11.1735 13.5826 11.9792 13.3284C12.785 13.0743 13.4974 12.6798 14.0759 12.1675C14.6543 11.6553 15.0874 11.0353 15.3504 10.3429Z" stroke="#929099" stroke-width="2"/>
<path d="M39.6339 12.7949C39.7493 11.9637 39.6739 11.1143 39.4121 10.2953C39.1503 9.47627 38.7072 8.70363 38.1082 8.02144C37.5091 7.33925 36.7658 6.7609 35.9206 6.31942C35.0754 5.87793 34.145 5.58195 33.1824 5.44838C32.2199 5.31481 31.244 5.34629 30.3105 5.54097C29.3771 5.73565 28.5044 6.08973 27.7422 6.58303C26.98 7.07632 26.3433 7.69917 25.8683 8.41597C25.3934 9.13278 25.0896 9.92951 24.9743 10.7607C24.859 11.5919 24.9344 12.4412 25.1962 13.2603C25.458 14.0793 25.901 14.852 26.5001 15.5341C27.0992 16.2163 27.8425 16.7947 28.6877 17.2362C29.5328 17.6776 30.4633 17.9736 31.4258 18.1072C32.3884 18.2408 33.3642 18.2093 34.2977 18.0146C35.2311 17.8199 36.1038 17.4658 36.866 16.9726C37.6282 16.4793 38.265 15.8564 38.7399 15.1396C39.2148 14.4228 39.5186 13.6261 39.6339 12.7949Z" stroke="#929099" stroke-width="2"/>
<path d="M29.7357 26.347C29.5601 24.648 28.6162 23.0988 27.1117 22.0401C25.6071 20.9815 23.6651 20.5 21.7129 20.7018C20.7463 20.8017 19.8062 21.0663 18.9465 21.4805C18.0867 21.8947 17.3239 22.4505 16.7019 23.116C16.0798 23.7814 15.6107 24.5436 15.3211 25.3591C15.0315 26.1745 14.9271 27.0272 15.0141 27.8684C15.1897 29.5673 16.1336 31.1165 17.6382 32.1752C19.1427 33.2339 21.0847 33.7153 23.0369 33.5136C24.0035 33.4137 24.9436 33.1491 25.8034 32.7348C26.6632 32.3206 27.4259 31.765 28.0479 31.0995C28.6699 30.434 29.1392 29.6717 29.4288 28.8563C29.7183 28.0409 29.8226 27.1882 29.7357 26.347Z" stroke="#929099" stroke-width="2"/>
<path d="M49.4929 28.3495C49.6833 27.8207 49.7597 27.2567 49.7176 26.6896C49.6755 26.1225 49.5158 25.5635 49.2477 25.0446C48.9795 24.5256 48.6082 24.0569 48.1548 23.6651C47.7014 23.2732 47.1748 22.966 46.6052 22.7609C46.0356 22.5558 45.4341 22.457 44.835 22.4699C44.2359 22.4828 43.6509 22.6072 43.1135 22.8361C42.5761 23.0651 42.0968 23.394 41.7029 23.8041C41.309 24.2142 41.0083 24.6975 40.8179 25.2263C40.6275 25.7552 40.5512 26.3192 40.5933 26.8863C40.6353 27.4533 40.795 28.0123 41.0632 28.5312C41.3313 29.0502 41.7027 29.519 42.1561 29.9108C42.6095 30.3026 43.136 30.6098 43.7056 30.8149C44.2752 31.02 44.8768 31.1189 45.4759 31.106C46.075 31.0931 46.6599 30.9686 47.1973 30.7396C47.7347 30.5107 48.214 30.1818 48.6079 29.7717C49.0018 29.3616 49.3025 28.8783 49.4929 28.3495Z" stroke="#9798A0" stroke-width="2"/>
<path d="M6.67296 13.0803C10.3593 14.4806 14.2443 13.2552 15.3504 10.3433C16.4565 7.43147 14.3649 3.93576 10.6786 2.53546C6.99225 1.13517 3.10722 2.36054 2.0011 5.27242C0.894986 8.18429 2.98664 11.68 6.67296 13.0803Z" fill="#25223E"/>
<path d="M31.4287 18.1074C35.4768 18.6692 39.1517 16.2908 39.6367 12.7952C40.1218 9.29957 37.2334 6.01045 33.1852 5.44873C29.1371 4.88701 25.4623 7.26539 24.9772 10.761C24.4921 14.2566 27.3806 17.5457 31.4287 18.1074Z" fill="#25223E"/>
<path d="M23.0363 33.514C27.1016 33.0939 30.1008 29.8853 29.7351 26.3474C29.3695 22.8096 25.7776 20.2821 21.7124 20.7022C17.6471 21.1223 14.6479 24.3309 15.0135 27.8688C15.3792 31.4066 18.9711 33.9341 23.0363 33.514Z" fill="#25223E"/>
<path d="M43.7074 30.8147C46.1029 31.6772 48.694 30.5734 49.4947 28.3494C50.2954 26.1253 49.0025 23.6232 46.607 22.7608C44.2115 21.8984 41.6204 23.0022 40.8197 25.2262C40.019 27.4502 41.3119 29.9523 43.7074 30.8147Z" fill="#2F324D"/>
</svg>
