<svg width="233" height="195" viewBox="0 0 233 195" fill="none" xmlns="http://www.w3.org/2000/svg">
<path d="M78.7596 36.6959C75.7296 44.5459 83.8896 47.3659 89.6396 44.0959C100.173 38.1159 110.563 33.1559 120.81 29.2159C131.11 25.2559 142.07 20.4659 152.09 18.0759C161.19 15.9025 170.103 14.7092 178.83 14.4959C192.81 14.1459 203.27 19.7959 210.57 31.5259C213.56 36.3359 222.08 56.3059 230.25 45.3859C232.48 42.3959 230.66 38.6259 228.95 35.9059C225.09 29.7659 221.16 23.6759 217.16 17.6359C209.83 6.55588 202.06 1.83587 189.47 1.18587C151.77 -0.794126 117.57 13.2859 85.1896 31.9059C83.4896 32.8759 79.5596 34.6159 78.7596 36.6959Z" stroke="#8C8A91" stroke-width="2"/>
<path d="M61.6176 91.6958C59.7876 94.1858 59.1877 97.0958 60.7777 99.8558C63.4077 104.436 68.3376 102.556 72.0576 100.086C97.7476 82.9958 122.338 63.7958 151.128 52.0558C155.494 50.2758 159.978 48.8625 164.578 47.8158C186.328 42.8758 189.618 75.9658 192.638 89.3358C193.078 91.2825 193.941 93.0191 195.228 94.5458C197.558 97.3058 202.888 98.3058 205.088 95.2158C208.238 90.7958 204.628 74.5658 203.068 69.3758C202.314 66.8625 199.981 61.0625 196.068 51.9758C191.018 40.2758 183.238 35.8358 170.438 34.9958C158.868 34.2358 144.708 38.9558 136.078 44.2258C111.418 59.2858 87.271 74.4758 63.6376 89.7958C62.851 90.3091 62.1776 90.9425 61.6176 91.6958Z" stroke="#8C8A91" stroke-width="2"/>
<path d="M160.117 75.2158C155.057 72.6358 151.117 76.7758 152.167 81.6858C152.593 83.6792 152.81 84.6992 152.817 84.7458C154.583 98.7792 156.96 111.669 159.947 123.416C160.58 125.909 162.2 127.369 164.807 127.796C165.124 127.848 165.456 127.784 165.747 127.616C168.233 126.196 169.563 124.406 169.737 122.246C170.837 108.839 168.787 94.9091 163.587 80.4558C162.567 77.6225 161.41 75.8758 160.117 75.2158Z" stroke="#8C8A91" stroke-width="2"/>
<path d="M125.46 90.5157C119.26 91.1657 120.51 99.7557 120.61 103.976C120.91 117.722 122.15 131.376 124.33 144.936C124.83 148.056 126.07 150.266 128.33 152.206C131.86 155.236 136.05 152.276 137.05 148.496C137.98 144.946 137.88 138.956 137.54 134.576C136.606 122.636 134.816 110.826 132.17 99.1457C131.32 95.3957 131.11 89.9257 125.46 90.5157Z" stroke="#8C8A91" stroke-width="2"/>
<path d="M13.2962 150.986C11.9062 136.356 14.6762 121.076 31.5562 117.516C43.0062 115.106 38.7062 102.936 28.6462 105.176C4.52622 110.546 -1.2038 131.646 1.6862 153.556C5.3462 181.256 25.6962 192.626 51.8062 193.036C56.4962 193.106 61.1962 190.116 62.2162 185.406C64.0062 177.146 53.0662 177.686 46.5762 177.756C43.0429 177.802 38.2162 176.782 32.0962 174.696C20.9362 170.876 14.4162 162.796 13.2962 150.986Z" stroke="#8C8A91" stroke-width="2"/>
<path d="M98.0562 111.876C89.9962 108.626 89.3863 118.386 90.0863 123.266C91.3663 132.186 91.7262 143.202 91.1662 156.316C90.9729 160.869 90.3363 165.026 89.2563 168.786C88.2463 172.276 87.4363 176.096 91.5763 177.286C99.2963 179.506 102.936 168.306 103.706 162.776C104.856 154.506 107.756 115.776 98.0562 111.876Z" stroke="#8C8A91" stroke-width="2"/>
<path d="M57.3899 126.816C56.3032 128.156 55.5599 129.659 55.1599 131.326C55.0883 131.605 55.1128 131.926 55.2299 132.246C56.7799 136.496 62.8299 149.066 52.5599 148.386C50.8399 148.272 49.5932 147.309 48.8199 145.496C47.8799 143.289 46.8032 141.196 45.5899 139.216C42.2399 133.716 36.2499 132.616 31.7399 137.256C26.3699 142.796 28.2999 153.716 32.4399 158.886C35.4465 162.652 39.7466 165.179 45.3399 166.466C61.2499 170.136 74.8799 156.046 71.0099 140.266C69.4299 133.806 66.9099 124.916 58.8699 126.066C58.5558 126.11 58.2635 126.199 58.0095 126.328C57.7556 126.456 57.545 126.622 57.3899 126.816Z" stroke="#8C8A91" stroke-width="2"/>
<path d="M78.7557 36.6964C79.5557 34.6164 83.4857 32.8764 85.1857 31.9064C117.566 13.2864 151.766 -0.793637 189.466 1.18636C202.056 1.83636 209.826 6.55636 217.156 17.6364C221.156 23.6764 225.086 29.7664 228.946 35.9064C230.656 38.6264 232.476 42.3964 230.246 45.3864C222.076 56.3064 213.556 36.3364 210.566 31.5264C203.266 19.7964 192.806 14.1464 178.826 14.4964C170.099 14.7097 161.186 15.903 152.086 18.0764C142.066 20.4664 131.106 25.2564 120.806 29.2164C110.559 33.1564 100.169 38.1164 89.6357 44.0964C83.8857 47.3664 75.7257 44.5464 78.7557 36.6964Z" fill="#1A1526"/>
<path d="M61.6176 91.6963C62.1776 90.943 62.851 90.3096 63.6376 89.7963C87.271 74.4763 111.418 59.2863 136.078 44.2263C144.708 38.9563 158.868 34.2363 170.438 34.9963C183.238 35.8363 191.018 40.2763 196.068 51.9763C199.981 61.063 202.314 66.863 203.068 69.3763C204.628 74.5663 208.238 90.7963 205.088 95.2163C202.888 98.3063 197.558 97.3063 195.228 94.5463C193.941 93.0196 193.078 91.283 192.638 89.3363C189.618 75.9663 186.328 42.8763 164.578 47.8163C159.978 48.863 155.494 50.2763 151.128 52.0563C122.338 63.7963 97.7476 82.9963 72.0576 100.086C68.3376 102.556 63.4077 104.436 60.7777 99.8563C59.1877 97.0963 59.7876 94.1863 61.6176 91.6963Z" fill="#1A1526"/>
<path d="M152.167 81.6863C151.117 76.7763 155.057 72.6363 160.117 75.2163C161.41 75.8763 162.567 77.623 163.587 80.4563C168.787 94.9096 170.837 108.84 169.737 122.246C169.563 124.406 168.233 126.196 165.747 127.616C165.456 127.784 165.124 127.848 164.807 127.796C162.2 127.37 160.58 125.91 159.947 123.416C156.96 111.67 154.583 98.7796 152.817 84.7463C152.81 84.6996 152.593 83.6796 152.167 81.6863Z" fill="#1A1526"/>
<path d="M120.606 103.976C120.506 99.7562 119.256 91.1662 125.456 90.5162C131.106 89.9262 131.316 95.3962 132.166 99.1462C134.813 110.826 136.603 122.636 137.536 134.576C137.876 138.956 137.976 144.946 137.046 148.496C136.046 152.276 131.856 155.236 128.326 152.206C126.066 150.266 124.826 148.056 124.326 144.936C122.146 131.376 120.906 117.723 120.606 103.976Z" fill="#1A1526"/>
<path d="M31.5562 117.516C14.6762 121.076 11.9062 136.356 13.2962 150.986C14.4162 162.796 20.9362 170.876 32.0962 174.696C38.2162 176.783 43.0429 177.803 46.5762 177.756C53.0662 177.686 64.0062 177.146 62.2162 185.406C61.1962 190.116 56.4962 193.106 51.8062 193.036C25.6962 192.626 5.3462 181.256 1.6862 153.556C-1.2038 131.646 4.52622 110.546 28.6462 105.176C38.7062 102.936 43.0062 115.106 31.5562 117.516Z" fill="#1A1526"/>
<path d="M90.0863 123.266C89.3863 118.386 89.9962 108.626 98.0562 111.876C107.756 115.776 104.856 154.506 103.706 162.776C102.936 168.306 99.2963 179.506 91.5763 177.286C87.4363 176.096 88.2463 172.276 89.2563 168.786C90.3363 165.026 90.9729 160.87 91.1662 156.316C91.7262 143.203 91.3663 132.186 90.0863 123.266Z" fill="#1A1526"/>
<path d="M57.386 126.816C57.5411 126.623 57.7517 126.457 58.0056 126.328C58.2596 126.199 58.5519 126.11 58.866 126.066C66.906 124.916 69.426 133.806 71.006 140.266C74.876 156.046 61.246 170.136 45.336 166.466C39.7427 165.179 35.4426 162.653 32.436 158.886C28.296 153.716 26.366 142.796 31.736 137.256C36.246 132.616 42.236 133.716 45.586 139.216C46.7993 141.196 47.876 143.289 48.816 145.496C49.5893 147.309 50.836 148.273 52.556 148.386C62.826 149.066 56.776 136.496 55.226 132.246C55.1089 131.927 55.0844 131.605 55.156 131.326C55.556 129.659 56.2993 128.156 57.386 126.816Z" fill="#1A1526"/>
</svg>
