<svg width="89" height="194" viewBox="0 0 89 194" fill="none" xmlns="http://www.w3.org/2000/svg">
<path d="M32.0505 161.121L30.1305 152.871C28.4105 147.491 27.2505 141.361 25.8805 136.591C21.5005 121.398 17.9838 108.741 15.3305 98.6212C12.8605 89.2312 9.82052 81.3713 6.58052 72.7913C2.19052 61.1713 -0.0394713 52.8612 0.000528713 41.5612C0.0505287 28.3112 0.34054 17.7012 7.48054 6.5912C18.5305 -10.6188 29.7905 10.4113 35.1505 18.3013C46.6105 35.1713 64.6605 -0.108789 78.0205 1.66121C85.1605 2.60121 87.5905 13.5412 87.8005 19.3412C88.2939 33.2745 88.4038 42.5178 88.1305 47.0712C87.6805 54.4512 85.5305 62.6812 82.8205 70.8312C76.4705 89.9212 72.4205 107.131 64.8105 128.231C64.5205 129.041 64.8405 129.991 63.8105 130.691C63.5064 130.892 63.2876 131.142 63.1905 131.401C54.6405 154.531 50.7405 172.971 42.5805 193.091C42.4746 193.346 42.2754 193.55 42.0252 193.661C41.7749 193.771 41.4934 193.778 41.2405 193.681C36.7805 191.991 37.7205 185.291 36.8505 181.701C35.1905 174.848 33.5905 167.988 32.0505 161.121ZM27.8605 71.0612C25.8705 73.4212 27.3605 87.5213 27.8605 90.1813C28.1205 91.5813 28.7905 93.1012 28.9905 94.8412C29.2239 96.8412 29.3772 98.0212 29.4505 98.3812C33.1572 115.828 36.8772 133.281 40.6105 150.741C41.6605 155.681 44.0205 154.651 45.0805 150.701C51.5005 126.855 56.4306 102.708 59.8706 78.2612C61.8906 63.9212 62.0505 51.8313 45.0905 50.1513C35.5105 49.2113 29.4405 62.5512 28.3405 70.3212C28.3303 70.3829 28.2802 70.4845 28.1955 70.615C28.1109 70.7455 27.995 70.8998 27.8605 71.0612Z" fill="#FE6E59"/>
</svg>
