<svg width="147" height="142" viewBox="0 0 147 142" fill="none" xmlns="http://www.w3.org/2000/svg">
<path d="M36.8926 57.3414C39.826 58.2414 39.796 58.8681 36.8026 59.2214L4.53262 63.0414C3.27929 63.1881 2.2093 63.7714 1.32263 64.7914C-3.12737 69.8914 39.8826 69.3114 42.5026 69.1914C42.6964 69.1836 42.8831 69.2252 43.0308 69.3091C43.1785 69.393 43.2781 69.5139 43.3126 69.6514C43.8393 71.7714 44.6993 73.7547 45.8926 75.6014C46.0527 75.8502 46.1066 76.2207 46.0426 76.6314C45.5426 80.0614 43.8526 73.7715 41.4726 76.8215C38.3526 80.8215 33.0426 84.5515 29.8726 87.5715C17.7026 99.1315 10.5126 105.051 3.10263 114.421C1.27263 116.721 2.62265 118.861 5.46265 117.331C8.54931 115.665 10.716 114.405 11.9626 113.551C25.1293 104.578 37.9593 95.1414 50.4526 85.2414C50.6261 85.1037 50.8001 84.9939 50.9542 84.9249C51.1083 84.8558 51.2361 84.8303 51.3226 84.8514C52.1826 85.0447 52.8426 85.5914 53.3026 86.4914C53.8226 87.5181 53.5093 88.7448 52.3626 90.1714C44.4726 100.021 36.1526 109.881 29.9126 120.651C28.8426 122.501 27.6426 127.241 32.3926 123.751C41.5926 116.991 50.8793 107.935 60.2526 96.5815C61.2793 95.3348 62.2693 94.6481 63.2226 94.5214C63.385 94.4985 63.5504 94.5127 63.7067 94.5632C63.863 94.6136 64.0063 94.6991 64.1261 94.8132C64.2459 94.9272 64.3392 95.0671 64.3992 95.2225C64.4592 95.3779 64.4842 95.545 64.4726 95.7115C63.5126 110.338 63.556 124.965 64.6026 139.591C64.6893 140.865 65.1993 141.071 66.1326 140.211C68.5626 137.961 68.6826 131.711 69.4526 128.481C71.7726 118.828 73.606 109.058 74.9526 99.1714C74.9837 98.9431 75.0597 98.7329 75.1664 98.5801C75.2732 98.4274 75.4033 98.3425 75.5326 98.3414L81.3026 98.1815C81.4259 98.1748 81.5586 98.235 81.6798 98.3526C81.801 98.4702 81.904 98.6387 81.9726 98.8315C87.5426 114.371 99.7126 125.861 108.413 139.481C109.823 141.681 111.803 141.511 110.763 138.471C107.933 130.181 103.073 121.781 99.8326 115.081C96.6426 108.491 94.2226 100.081 91.1926 92.6414C91.1326 92.4937 91.112 92.3345 91.1331 92.1812C91.1543 92.0279 91.2163 91.8862 91.3126 91.7714C94.1526 88.3114 96.1326 90.3214 98.1126 93.1014C104.359 101.855 111.566 109.741 119.733 116.761C119.894 116.9 120.059 117.011 120.204 117.079C120.349 117.147 120.468 117.169 120.543 117.141C121.283 116.901 121.789 116.401 122.063 115.641C122.336 114.861 121.999 113.728 121.053 112.241C114.863 102.571 107.573 94.1915 101.593 84.5815C100.459 82.7681 100.856 81.3015 102.783 80.1815C102.908 80.1099 103.053 80.0774 103.202 80.0881C103.351 80.0987 103.497 80.1519 103.623 80.2414C115.723 88.7514 126.213 95.0415 141.113 97.5615C142.793 97.8415 148.003 97.8114 143.853 94.6014C139.326 91.0947 133.579 87.718 126.613 84.4714C119.133 80.9814 113.133 77.2814 106.403 73.3814C106.243 73.2882 106.112 73.1657 106.028 73.0312C105.943 72.8967 105.91 72.7569 105.933 72.6314C106.913 67.5847 106.673 62.5981 105.213 57.6714C105.195 57.6112 105.195 57.5466 105.212 57.4815C105.23 57.4164 105.264 57.3522 105.313 57.2925C105.363 57.2329 105.426 57.1791 105.5 57.1342C105.574 57.0894 105.656 57.0544 105.743 57.0314C114.669 54.5581 123.279 51.2814 131.573 47.2014C133.783 46.1214 139.403 41.9814 140.253 39.9514C140.302 39.8343 140.322 39.7067 140.31 39.5801C140.298 39.4534 140.255 39.3317 140.185 39.2257C140.115 39.1197 140.019 39.0328 139.907 38.9727C139.795 38.9126 139.67 38.8813 139.543 38.8814C136.853 38.8714 134.283 39.0914 131.603 39.9814C121.669 43.2748 111.646 46.3114 101.533 49.0914C101.337 49.1465 101.14 49.1607 100.96 49.1327C100.78 49.1047 100.623 49.0355 100.503 48.9315L95.5726 44.6214C95.5327 44.5868 95.5072 44.5376 95.4977 44.4766C95.4882 44.4156 95.4948 44.3441 95.5173 44.2665C95.5397 44.1889 95.5775 44.1068 95.6282 44.0251C95.679 43.9435 95.7417 43.864 95.8126 43.7914C106.023 33.3414 117.043 23.2315 125.773 12.1115C126.919 10.6581 126.573 10.0281 124.733 10.2214C117.403 10.9814 103.233 23.4114 97.5126 28.4214C95.0226 30.5914 91.5626 34.7114 87.6826 37.4214C86.7093 38.1014 86.2793 37.8414 86.3926 36.6414C87.486 24.9948 87.556 13.3348 86.6026 1.66144C86.589 1.48564 86.5275 1.32132 86.4298 1.19965C86.3321 1.07798 86.205 1.00741 86.0726 1.00141C81.5626 0.781405 76.6526 26.4615 75.6026 31.8615C75.3426 33.2115 74.2626 34.7915 73.0526 35.1815C72.8849 35.2357 72.7071 35.2517 72.5322 35.2282C72.3573 35.2047 72.1897 35.1424 72.0414 35.0458C71.893 34.9491 71.7678 34.8205 71.6746 34.6693C71.5814 34.5181 71.5227 34.3481 71.5026 34.1714C70.9926 29.7914 68.2826 5.87141 64.2326 4.57141C59.5626 3.07141 59.9026 32.9214 60.1526 35.8914C60.1929 36.3636 60.0754 36.8358 59.8184 37.2339C59.5614 37.6321 59.1795 37.9337 58.7326 38.0914C57.1126 38.6614 55.2526 38.4814 53.6926 37.4214C50.5826 35.3114 28.1426 19.0215 26.6626 19.3615C26.4844 19.4032 26.3206 19.4901 26.1858 19.6147C26.0511 19.7394 25.9495 19.8977 25.8902 20.0758C25.8308 20.2539 25.8155 20.4461 25.8456 20.6355C25.8757 20.8249 25.9502 21.0055 26.0626 21.1614C32.316 29.7481 39.596 37.3748 47.9026 44.0414C48.0719 44.1752 48.2056 44.3373 48.2777 44.4962C48.3498 44.6552 48.3551 44.7996 48.2926 44.9014L45.1126 49.9714C45.0405 50.0853 44.924 50.1709 44.7802 50.2158C44.6363 50.2608 44.4725 50.2627 44.3126 50.2214C35.6526 47.9148 26.9793 45.6347 18.2926 43.3814C17.6193 43.2081 16.2693 43.1247 14.2426 43.1314C14.0788 43.1341 13.9212 43.1779 13.7885 43.2576C13.6557 43.3372 13.5531 43.4495 13.4926 43.5814C11.6026 47.7814 36.6826 57.2814 36.8926 57.3414Z" stroke="#8D8F9C" stroke-width="2"/>
<path d="M36.8926 57.3414C36.6826 57.2814 11.6026 47.7814 13.4926 43.5814C13.5531 43.4495 13.6557 43.3372 13.7885 43.2576C13.9212 43.1779 14.0788 43.1341 14.2426 43.1314C16.2693 43.1247 17.6193 43.2081 18.2926 43.3814C26.9793 45.6347 35.6526 47.9148 44.3126 50.2214C44.4725 50.2627 44.6363 50.2608 44.7802 50.2158C44.924 50.1709 45.0405 50.0853 45.1126 49.9714L48.2926 44.9014C48.3551 44.7996 48.3498 44.6552 48.2777 44.4962C48.2056 44.3373 48.0719 44.1752 47.9026 44.0414C39.596 37.3748 32.316 29.7481 26.0626 21.1614C25.9502 21.0055 25.8757 20.8249 25.8456 20.6355C25.8155 20.4461 25.8308 20.2539 25.8902 20.0758C25.9495 19.8978 26.0511 19.7394 26.1858 19.6147C26.3206 19.4901 26.4844 19.4032 26.6626 19.3615C28.1426 19.0215 50.5826 35.3114 53.6926 37.4214C55.2526 38.4814 57.1126 38.6614 58.7326 38.0914C59.1795 37.9337 59.5614 37.6321 59.8184 37.2339C60.0754 36.8358 60.1929 36.3636 60.1526 35.8914C59.9026 32.9214 59.5626 3.07141 64.2326 4.57141C68.2826 5.87141 70.9926 29.7914 71.5026 34.1714C71.5227 34.3481 71.5814 34.5181 71.6746 34.6693C71.7678 34.8205 71.893 34.9491 72.0414 35.0458C72.1897 35.1424 72.3573 35.2048 72.5322 35.2282C72.7071 35.2517 72.8849 35.2357 73.0526 35.1815C74.2626 34.7915 75.3426 33.2115 75.6026 31.8615C76.6526 26.4615 81.5626 0.781405 86.0726 1.00141C86.205 1.00741 86.3321 1.07798 86.4298 1.19965C86.5275 1.32132 86.589 1.48564 86.6026 1.66144C87.556 13.3348 87.486 24.9948 86.3926 36.6414C86.2793 37.8414 86.7093 38.1014 87.6826 37.4214C91.5626 34.7114 95.0226 30.5914 97.5126 28.4214C103.233 23.4114 117.403 10.9814 124.733 10.2214C126.573 10.0281 126.919 10.6581 125.773 12.1115C117.043 23.2315 106.023 33.3414 95.8126 43.7914C95.7417 43.864 95.679 43.9435 95.6282 44.0251C95.5775 44.1068 95.5397 44.1889 95.5173 44.2665C95.4948 44.3441 95.4882 44.4156 95.4977 44.4766C95.5072 44.5376 95.5327 44.5868 95.5726 44.6214L100.503 48.9315C100.623 49.0355 100.78 49.1047 100.96 49.1327C101.14 49.1607 101.337 49.1465 101.533 49.0914C111.646 46.3114 121.669 43.2748 131.603 39.9814C134.283 39.0914 136.853 38.8714 139.543 38.8814C139.67 38.8813 139.795 38.9126 139.907 38.9727C140.019 39.0328 140.115 39.1197 140.185 39.2257C140.255 39.3317 140.298 39.4534 140.31 39.5801C140.322 39.7067 140.302 39.8343 140.253 39.9514C139.403 41.9814 133.783 46.1214 131.573 47.2014C123.279 51.2814 114.669 54.5581 105.743 57.0314C105.656 57.0544 105.574 57.0894 105.5 57.1342C105.426 57.1791 105.363 57.2329 105.313 57.2925C105.264 57.3522 105.23 57.4164 105.212 57.4815C105.195 57.5466 105.195 57.6112 105.213 57.6714C106.673 62.5981 106.913 67.5847 105.933 72.6314C105.91 72.7569 105.943 72.8967 106.028 73.0312C106.112 73.1657 106.243 73.2882 106.403 73.3814C113.133 77.2814 119.133 80.9814 126.613 84.4714C133.579 87.718 139.326 91.0947 143.853 94.6014C148.003 97.8114 142.793 97.8415 141.113 97.5615C126.213 95.0415 115.723 88.7514 103.623 80.2414C103.497 80.1519 103.351 80.0987 103.202 80.0881C103.053 80.0774 102.908 80.1099 102.783 80.1815C100.856 81.3015 100.459 82.7682 101.593 84.5815C107.573 94.1915 114.863 102.571 121.053 112.241C121.999 113.728 122.336 114.861 122.063 115.641C121.789 116.401 121.283 116.901 120.543 117.141C120.468 117.169 120.349 117.147 120.204 117.079C120.059 117.011 119.894 116.9 119.733 116.761C111.566 109.741 104.359 101.855 98.1126 93.1014C96.1326 90.3214 94.1526 88.3114 91.3126 91.7714C91.2163 91.8862 91.1543 92.0279 91.1331 92.1812C91.112 92.3345 91.1326 92.4937 91.1926 92.6414C94.2226 100.081 96.6426 108.491 99.8326 115.081C103.073 121.781 107.933 130.181 110.763 138.471C111.803 141.511 109.823 141.681 108.413 139.481C99.7126 125.861 87.5426 114.371 81.9726 98.8315C81.904 98.6387 81.801 98.4702 81.6798 98.3526C81.5586 98.235 81.4259 98.1748 81.3026 98.1815L75.5326 98.3414C75.4033 98.3425 75.2732 98.4274 75.1664 98.5801C75.0597 98.7329 74.9837 98.9431 74.9526 99.1714C73.606 109.058 71.7726 118.828 69.4526 128.481C68.6826 131.711 68.5626 137.961 66.1326 140.211C65.1993 141.071 64.6893 140.865 64.6026 139.591C63.556 124.965 63.5126 110.338 64.4726 95.7115C64.4842 95.545 64.4592 95.3779 64.3992 95.2225C64.3392 95.0671 64.2459 94.9272 64.1261 94.8132C64.0063 94.6991 63.863 94.6136 63.7067 94.5632C63.5504 94.5127 63.385 94.4985 63.2226 94.5214C62.2693 94.6481 61.2793 95.3348 60.2526 96.5815C50.8793 107.935 41.5926 116.991 32.3926 123.751C27.6426 127.241 28.8426 122.501 29.9126 120.651C36.1526 109.881 44.4726 100.021 52.3626 90.1714C53.5093 88.7448 53.8226 87.5181 53.3026 86.4914C52.8426 85.5914 52.1826 85.0447 51.3226 84.8514C51.2361 84.8303 51.1083 84.8558 50.9542 84.9249C50.8001 84.9939 50.6261 85.1037 50.4526 85.2414C37.9593 95.1414 25.1293 104.578 11.9626 113.551C10.716 114.405 8.54931 115.665 5.46265 117.331C2.62265 118.861 1.27263 116.721 3.10263 114.421C10.5126 105.051 17.7026 99.1315 29.8726 87.5715C33.0426 84.5515 38.3526 80.8215 41.4726 76.8215C43.8526 73.7715 45.5426 80.0614 46.0426 76.6314C46.1066 76.2207 46.0527 75.8502 45.8926 75.6014C44.6993 73.7547 43.8393 71.7714 43.3126 69.6514C43.2781 69.5139 43.1785 69.393 43.0308 69.3091C42.8831 69.2252 42.6964 69.1836 42.5026 69.1914C39.8826 69.3114 -3.12737 69.8914 1.32263 64.7914C2.2093 63.7714 3.27929 63.1881 4.53262 63.0414L36.8026 59.2214C39.796 58.8681 39.826 58.2414 36.8926 57.3414Z" fill="#1B203C"/>
</svg>
