<svg width="70" height="186" viewBox="0 0 70 186" fill="none" xmlns="http://www.w3.org/2000/svg">
<path d="M46.2599 52.8492C44.6299 51.5992 45.4199 48.7392 45.2199 46.8892" stroke="#F7BAA7" stroke-width="2"/>
<path d="M45.2205 46.8891C45.9938 43.9491 45.7638 40.9258 44.5305 37.8191C42.2105 31.9491 38.0805 31.2091 32.6505 29.8891C30.9405 29.4791 31.2604 28.2091 32.6304 27.6891C41.1204 24.4691 43.9805 13.4891 39.4105 6.18914C35.1305 -0.640865 25.5904 -0.580867 20.7404 5.49913C14.9804 12.7391 20.5504 23.8792 26.5004 29.1792C27.1338 29.7458 27.0504 30.0792 26.2504 30.1792C19.9038 30.9592 14.9138 33.9525 11.2805 39.1591C6.09046 46.6091 2.45046 51.6192 1.16046 57.0292C0.687127 58.9958 1.28712 60.5525 2.96045 61.6991C6.82045 64.3291 13.0604 63.8891 17.9204 64.2191C18.3726 64.2517 18.7978 64.4458 19.1176 64.7655C19.4373 65.0853 19.6301 65.5092 19.6605 65.9592C20.9805 86.1392 23.3804 106.289 28.2504 125.909C28.3547 126.337 28.5561 126.719 28.8246 126.998C29.0932 127.278 29.4145 127.439 29.7404 127.459L36.0104 127.849C36.0713 127.854 36.1304 127.871 36.1842 127.9C36.238 127.929 36.2851 127.97 36.3228 128.019C36.3604 128.068 36.3876 128.124 36.4026 128.184C36.4177 128.245 36.4204 128.308 36.4105 128.369C33.8305 144.949 30.8471 161.452 27.4604 177.879C27.3997 178.168 27.424 178.465 27.5298 178.727C27.6357 178.989 27.8179 179.203 28.0504 179.339C32.2971 181.852 36.8604 183.412 41.7404 184.019C41.9081 184.04 42.0742 184.024 42.223 183.971C42.3718 183.919 42.4983 183.832 42.5905 183.719C43.0838 183.112 43.3104 182.416 43.2704 181.629C43.258 181.407 43.2273 181.204 43.1807 181.035C43.134 180.865 43.0724 180.734 43.0004 180.649C41.0604 178.336 38.7405 176.499 36.0405 175.139C35.9379 175.088 35.8624 174.981 35.8276 174.838C35.7928 174.695 35.8009 174.525 35.8505 174.359C40.0105 160.059 45.3104 141.979 45.4504 126.169C45.4536 126.008 45.4941 125.853 45.5678 125.72C45.6415 125.586 45.7458 125.479 45.8704 125.409C49.7104 123.199 52.1104 124.759 50.9304 118.639C47.3638 100.266 44.8604 81.7492 43.4204 63.0892C43.4158 63.0249 43.4276 62.9606 43.4547 62.9022C43.4818 62.8438 43.5233 62.7932 43.5753 62.7552C43.6272 62.7173 43.688 62.6931 43.7519 62.685C43.8158 62.677 43.8806 62.6853 43.9404 62.7092C49.7404 64.9825 55.6771 66.8091 61.7504 68.1891C61.9171 68.229 62.0911 68.227 62.2568 68.1834C62.4226 68.1397 62.5749 68.0559 62.7004 67.9391C65.1738 65.6058 66.4571 62.9191 66.5504 59.8791C66.9504 46.9658 67.6671 34.0958 68.7004 21.2692C68.8138 19.8425 68.1571 19.0758 66.7304 18.9691C60.8804 18.5491 61.0005 21.9292 60.5305 26.7692C59.5771 36.5692 58.8871 46.4458 58.4604 56.3992C58.4573 56.4565 58.4409 56.5123 58.4124 56.5624C58.3839 56.6125 58.3441 56.6555 58.296 56.6882C58.2478 56.7209 58.1926 56.7425 58.1345 56.7513C58.0764 56.7602 58.0169 56.756 57.9604 56.7392L46.2604 52.8491" stroke="#8E9094" stroke-width="2"/>
<path d="M45.2208 46.8892C37.5342 49.3492 29.8108 49.4325 22.0508 47.1392" stroke="#864B3B" stroke-width="2"/>
<path d="M20.0078 54.0991C25.7278 58.1591 40.5178 56.6591 46.2578 52.8491" stroke="#864B3B" stroke-width="2"/>
<path d="M45.2166 46.8896C37.5299 49.3496 29.8065 49.433 22.0465 47.1396C20.3665 43.7096 15.7565 51.4496 15.1165 52.5396C15.0429 52.6653 15.0032 52.8078 15.0012 52.9535C14.9993 53.0992 15.0352 53.2432 15.1055 53.3717C15.1757 53.5001 15.278 53.6088 15.4025 53.6872C15.527 53.7657 15.6696 53.8113 15.8165 53.8196L20.0065 54.0996C25.7265 58.1596 40.5165 56.6596 46.2565 52.8496L57.9565 56.7396C58.013 56.7565 58.0725 56.7606 58.1306 56.7518C58.1887 56.743 58.2439 56.7214 58.2921 56.6887C58.3402 56.656 58.38 56.6129 58.4085 56.5629C58.437 56.5128 58.4534 56.457 58.4565 56.3996C58.8832 46.4463 59.5732 36.5696 60.5266 26.7696C60.9966 21.9296 60.8765 18.5496 66.7265 18.9696C68.1532 19.0763 68.8099 19.843 68.6965 21.2696C67.6632 34.0963 66.9465 46.9663 66.5465 59.8796C66.4532 62.9196 65.1699 65.6063 62.6965 67.9396C62.571 68.0563 62.4187 68.1402 62.2529 68.1839C62.0872 68.2275 61.9132 68.2295 61.7465 68.1896C55.6732 66.8096 49.7365 64.983 43.9365 62.7096C43.8767 62.6858 43.8119 62.6774 43.748 62.6855C43.6841 62.6936 43.6233 62.7177 43.5714 62.7557C43.5194 62.7937 43.4779 62.8443 43.4508 62.9027C43.4237 62.9611 43.4119 63.0254 43.4165 63.0896C44.8565 81.7496 47.3598 100.266 50.9265 118.64C52.1065 124.76 49.7065 123.2 45.8665 125.41C45.7419 125.48 45.6376 125.587 45.5639 125.72C45.4902 125.854 45.4497 126.009 45.4465 126.17C45.3065 141.98 40.0066 160.06 35.8466 174.36C35.797 174.526 35.7888 174.696 35.8237 174.839C35.8585 174.982 35.934 175.088 36.0366 175.14C38.7366 176.5 41.0565 178.336 42.9965 180.65C43.0685 180.734 43.1301 180.866 43.1768 181.035C43.2234 181.205 43.2541 181.408 43.2665 181.63C43.3065 182.416 43.0799 183.113 42.5865 183.72C42.4944 183.833 42.3679 183.919 42.2191 183.972C42.0703 184.024 41.9041 184.041 41.7365 184.02C36.8565 183.413 32.2932 181.853 28.0465 179.34C27.8139 179.204 27.6318 178.989 27.5259 178.727C27.42 178.465 27.3958 178.169 27.4565 177.88C30.8432 161.453 33.8266 144.95 36.4066 128.37C36.4165 128.308 36.4138 128.245 36.3987 128.185C36.3836 128.124 36.3565 128.068 36.3188 128.019C36.2812 127.97 36.2341 127.93 36.1803 127.901C36.1265 127.872 36.0673 127.854 36.0065 127.85L29.7365 127.46C29.4105 127.44 29.0893 127.278 28.8207 126.999C28.5522 126.72 28.3507 126.337 28.2465 125.91C23.3765 106.29 20.9766 86.1396 19.6566 65.9596C19.6262 65.5097 19.4334 65.0858 19.1136 64.766C18.7939 64.4463 18.3687 64.2522 17.9165 64.2196C13.0565 63.8896 6.81654 64.3296 2.95654 61.6996C1.28321 60.553 0.683221 58.9963 1.15655 57.0297C2.44655 51.6197 6.08655 46.6096 11.2765 39.1596C14.9099 33.953 19.8999 30.9596 26.2465 30.1796C27.0465 30.0796 27.1299 29.7463 26.4965 29.1796C20.5465 23.8796 14.9765 12.7396 20.7365 5.49962C25.5865 -0.580379 35.1266 -0.640377 39.4066 6.18962C43.9766 13.4896 41.1165 24.4696 32.6265 27.6896C31.2565 28.2096 30.9365 29.4796 32.6465 29.8896C38.0765 31.2096 42.2066 31.9496 44.5266 37.8196C45.7599 40.9263 45.9899 43.9496 45.2166 46.8896Z" fill="#1D2128"/>
<path d="M45.2178 46.8896C45.4178 48.7396 44.6278 51.5996 46.2578 52.8496C40.5178 56.6596 25.7278 58.1596 20.0078 54.0996C21.7678 53.0896 20.7878 49.2396 22.0478 47.1396C29.8078 49.433 37.5312 49.3496 45.2178 46.8896Z" fill="#EE754E"/>
</svg>
