<svg width="47" height="79" viewBox="0 0 47 79" fill="none" xmlns="http://www.w3.org/2000/svg">
<path d="M24.4805 77.1504L24.9827 77.2303" stroke="#91919B" stroke-width="2"/>
<path d="M24.9829 77.2305C31.4468 80.0005 36.5938 71.5605 39.1673 66.7905C44.9677 56.0005 48.647 40.1105 43.3492 28.7705C39.9413 21.4705 31.6077 4.3805 22.892 1.4305C17.1821 -0.509501 11.1605 4.47049 8.33569 9.11049C-4.26033 29.8505 0.152806 52.2505 15.5636 70.0205C18.1069 72.9605 21.2433 74.9605 24.4803 77.1505" stroke="#D0E6DC" stroke-width="2"/>
<path d="M24.9842 77.2306C28.1809 78.3806 30.0909 77.0807 30.0708 73.7007C30.0507 69.7007 29.9267 65.6873 29.6989 61.6606C29.6791 61.3335 29.7486 61.0086 29.8999 60.7207C33.9411 52.994 37.5802 45.0773 40.8172 36.9707C42.1039 33.7507 43.7525 30.5906 38.113 30.7506C37.7727 30.7595 37.4357 30.8759 37.1406 31.0863C36.8455 31.2968 36.6042 31.5928 36.4442 31.9406L29.4978 46.9007C29.156 47.6473 28.9449 47.6406 28.8645 46.8806C27.6079 34.6806 27.5878 21.9206 24.2403 10.4306C23.7913 8.8773 22.7793 8.29063 21.2043 8.67063C19.5557 9.07063 18.8286 10.1673 19.0229 11.9607C21.1943 32.154 22.6452 52.4007 23.3757 72.7007C23.4092 73.594 23.7778 75.0773 24.4815 77.1507" stroke="#627F87" stroke-width="2"/>
<path d="M24.9829 77.2305C28.1797 78.3805 30.0897 77.0805 30.0696 73.7005C30.0495 69.7005 29.9255 65.6871 29.6976 61.6605C29.6779 61.3334 29.7474 61.0084 29.8987 60.7205C33.9399 52.9939 37.579 45.0772 40.8159 36.9705C42.1027 33.7505 43.7513 30.5905 38.1117 30.7505C37.7715 30.7594 37.4345 30.8758 37.1394 31.0862C36.8443 31.2966 36.603 31.5927 36.443 31.9405L29.4966 46.9005C29.1548 47.6472 28.9437 47.6405 28.8633 46.8805C27.6067 34.6805 27.5866 21.9205 24.239 10.4305C23.79 8.87717 22.778 8.29049 21.2031 8.67049C19.5545 9.07049 18.8273 10.1672 19.0217 11.9605C21.1931 32.1539 22.644 52.4005 23.3745 72.7005C23.408 73.5938 23.7766 75.0772 24.4803 77.1505C21.2433 74.9605 18.1069 72.9605 15.5636 70.0205C0.152806 52.2505 -4.26033 29.8505 8.33569 9.11049C11.1605 4.47049 17.1821 -0.509501 22.892 1.4305C31.6077 4.3805 39.9413 21.4705 43.3492 28.7705C48.647 40.1105 44.9677 56.0005 39.1673 66.7905C36.5938 71.5605 31.4468 80.0005 24.9829 77.2305Z" fill="#A1D3C8"/>
<path d="M24.9842 77.2306L24.4815 77.1507C23.7778 75.0773 23.4092 73.594 23.3757 72.7007C22.6452 52.4007 21.1943 32.154 19.0229 11.9607C18.8286 10.1673 19.5557 9.07063 21.2043 8.67063C22.7793 8.29063 23.7913 8.8773 24.2403 10.4306C27.5878 21.9206 27.6079 34.6806 28.8645 46.8806C28.9449 47.6406 29.156 47.6473 29.4978 46.9007L36.4442 31.9406C36.6042 31.5928 36.8455 31.2968 37.1406 31.0863C37.4357 30.8759 37.7727 30.7595 38.113 30.7506C43.7525 30.5906 42.1039 33.7507 40.8172 36.9707C37.5802 45.0773 33.9411 52.994 29.8999 60.7207C29.7486 61.0086 29.6791 61.3335 29.6989 61.6606C29.9267 65.6873 30.0507 69.7007 30.0708 73.7007C30.0909 77.0807 28.1809 78.3806 24.9842 77.2306Z" fill="#232A45"/>
</svg>
