<svg width="130" height="158" viewBox="0 0 130 158" fill="none" xmlns="http://www.w3.org/2000/svg">
<path d="M8.32063 10.3438C2.57396 49.1637 0.210631 88.1871 1.23063 127.414C1.63063 142.964 7.20062 149.234 22.2706 152.664C50.2606 159.034 79.3006 157.164 108.091 154.634" stroke="#FEB4A4" stroke-width="2"/>
<path d="M108.089 154.634C114.849 156.324 121.478 154.624 122.858 147.014C125.198 134.034 126.218 122.304 126.698 107.824C127.318 89.1306 127.915 70.4372 128.489 51.7439C128.859 39.7139 130.389 27.1239 120.029 20.9539C104.239 11.5439 84.1885 7.55392 64.9185 5.25392C49.7652 3.44059 34.5752 2.04058 19.3485 1.05391C16.3285 0.860579 13.7718 1.18723 11.6785 2.03389C10.0318 2.70723 8.79851 3.8339 7.97851 5.4139C6.70518 7.86723 6.81851 9.51056 8.31851 10.3439" stroke="#8A8C90" stroke-width="2"/>
<path d="M108.09 154.634C106.85 153.294 106.657 151.824 107.51 150.224" stroke="#8A4645" stroke-width="2"/>
<path d="M107.508 150.224C110.788 144.604 112.568 138.337 112.848 131.424C112.928 129.47 113.221 124.82 113.728 117.474C113.74 117.273 113.728 117.085 113.692 116.922C113.655 116.76 113.596 116.627 113.518 116.534L112.128 114.924" stroke="#1C1B26" stroke-width="2"/>
<path d="M112.13 114.924C113.424 99.7571 114.714 84.5871 116 69.4138C117.1 56.4738 117.84 43.4838 115.95 30.5638C115.56 27.8738 113.91 26.7638 111.62 25.8438C99.6003 21.0237 87.9703 18.6738 74.0703 16.8138C53.4036 14.0404 32.657 12.1905 11.8303 11.2638C11.5703 11.2505 11.257 11.1638 10.8903 11.0038C10.317 10.7571 9.46031 10.5371 8.32031 10.3438" stroke="#8A4645" stroke-width="2"/>
<path d="M112.128 114.924C111.068 126.697 109.528 138.464 107.508 150.224" stroke="#90433B" stroke-width="2"/>
<path d="M21.5199 42.2438C22.0932 42.7971 22.7832 43.1138 23.5899 43.1938C23.6508 43.1994 23.712 43.1816 23.7694 43.1415C23.8269 43.1014 23.8793 43.0399 23.9235 42.9609C23.9677 42.8819 24.0027 42.7871 24.0262 42.6826C24.0497 42.578 24.0611 42.4661 24.0599 42.3538C23.8799 27.6138 42.3499 23.7738 53.1399 29.1838C62.4299 33.8538 60.4899 44.6938 53.1899 49.7438C52.2099 50.4238 49.9899 51.3538 50.9799 52.9238C51.7999 54.2104 52.8832 54.5004 54.2299 53.7938C62.5499 49.4438 68.2599 37.1638 60.2499 29.5238C51.0599 20.7438 35.7499 20.7238 26.1099 28.9338C22.2899 32.1871 20.6199 36.2071 21.0999 40.9938C21.1279 41.28 21.1802 41.5411 21.2529 41.7575C21.3256 41.9739 21.4169 42.1401 21.5199 42.2438Z" stroke="#A04137" stroke-width="2"/>
<path d="M68.5302 36.9844C69.1768 38.0444 70.2701 37.8377 71.8101 36.3644C76.5801 31.7844 84.7602 34.6844 90.3902 37.1344C96.4402 39.7744 97.8302 42.4044 99.9202 49.1644C99.9694 49.3256 100.065 49.4651 100.188 49.5544C100.311 49.6437 100.451 49.6758 100.58 49.6444C101.693 49.371 102.623 48.8078 103.37 47.9544C103.463 47.842 103.528 47.6914 103.559 47.5145C103.59 47.3375 103.587 47.139 103.55 46.9344C101.26 35.0744 87.2202 29.6544 76.6602 29.3144C73.5602 29.2144 66.1102 33.0544 68.5302 36.9844Z" stroke="#9B4137" stroke-width="2"/>
<path d="M46.3839 43.3962C46.8756 42.8059 47.2368 42.1167 47.4467 41.3677C47.6566 40.6188 47.7112 39.8249 47.6073 39.0313C47.5035 38.2377 47.2432 37.46 46.8413 36.7425C46.4395 36.025 45.9039 35.3818 45.2653 34.8497C43.9755 33.7751 42.344 33.2181 40.7297 33.3011C39.1154 33.3841 37.6506 34.1004 36.6575 35.2923C36.1657 35.8826 35.8046 36.5718 35.5946 37.3207C35.3847 38.0697 35.3301 38.8636 35.434 39.6572C35.5379 40.4508 35.7982 41.2286 36.2 41.946C36.6019 42.6635 37.1374 43.3066 37.7761 43.8387C39.0659 44.9133 40.6974 45.4704 42.3116 45.3874C43.9259 45.3044 45.3907 44.5882 46.3839 43.3962Z" stroke="#93443D" stroke-width="2"/>
<path d="M88.63 46.5943C88.63 44.9526 87.9778 43.3782 86.817 42.2173C85.6561 41.0565 84.0817 40.4043 82.44 40.4043C80.7983 40.4043 79.2239 41.0565 78.063 42.2173C76.9022 43.3782 76.25 44.9526 76.25 46.5943C76.25 48.236 76.9022 49.8105 78.063 50.9713C79.2239 52.1322 80.7983 52.7843 82.44 52.7843C84.0817 52.7843 85.6561 52.1322 86.817 50.9713C87.9778 49.8105 88.63 48.236 88.63 46.5943Z" stroke="#93443D" stroke-width="2"/>
<path d="M33.2804 111.234C35.887 119.08 40.667 124.41 47.6204 127.224C57.9604 131.404 75.2104 129.154 82.0604 119.134C82.8204 118.024 82.5404 116.744 82.9304 115.744C88.7004 100.944 83.4304 83.2439 66.3204 79.9539C59.7904 78.6939 49.1204 77.4039 43.6404 81.7039C34.6537 88.7639 31.0737 98.2538 32.9004 110.174C32.6604 110.734 32.787 111.087 33.2804 111.234Z" stroke="#FEB4A4" stroke-width="2"/>
<path d="M51.6031 115.05C52.7991 115.254 54.0274 115.2 55.2177 114.89C56.408 114.58 57.537 114.02 58.5403 113.243C59.5436 112.466 60.4015 111.486 61.0651 110.36C61.7287 109.234 62.1849 107.984 62.4077 106.68C62.8576 104.048 62.3296 101.359 60.9398 99.2056C59.5499 97.0522 57.412 95.6104 54.9965 95.1975C53.8004 94.9931 52.5722 95.0474 51.3819 95.3573C50.1916 95.6673 49.0626 96.2268 48.0593 97.0039C47.056 97.7811 46.198 98.7607 45.5345 99.8867C44.8709 101.013 44.4147 102.263 44.1919 103.567C43.7419 106.199 44.2699 108.888 45.6598 111.041C47.0497 113.195 49.1875 114.637 51.6031 115.05Z" stroke="#8A8C90" stroke-width="2"/>
<path d="M108.089 154.634C106.849 153.294 106.655 151.824 107.509 150.224C110.789 144.604 112.569 138.337 112.849 131.424C112.929 129.471 113.222 124.821 113.729 117.474C113.741 117.273 113.729 117.085 113.692 116.923C113.656 116.76 113.597 116.628 113.519 116.534L112.129 114.924C113.422 99.7572 114.712 84.5872 115.999 69.4139C117.099 56.4739 117.838 43.4839 115.948 30.5639C115.558 27.8739 113.909 26.7639 111.619 25.8439C99.5985 21.0239 87.9685 18.6739 74.0685 16.8139C53.4018 14.0406 32.6552 12.1906 11.8285 11.2639C11.5685 11.2506 11.2552 11.1639 10.8885 11.0039C10.3152 10.7573 9.45851 10.5372 8.31851 10.3439C6.81851 9.51056 6.70518 7.86723 7.97851 5.4139C8.79851 3.8339 10.0318 2.70723 11.6785 2.03389C13.7718 1.18723 16.3285 0.860579 19.3485 1.05391C34.5752 2.04058 49.7652 3.44059 64.9185 5.25392C84.1885 7.55392 104.239 11.5439 120.029 20.9539C130.389 27.1239 128.859 39.7139 128.489 51.7439C127.915 70.4372 127.318 89.1306 126.698 107.824C126.218 122.304 125.198 134.034 122.858 147.014C121.479 154.624 114.849 156.324 108.089 154.634Z" fill="#151E30"/>
<path d="M8.32063 10.3438C9.46063 10.5371 10.3173 10.7571 10.8906 11.0038C11.2573 11.1638 11.5706 11.2505 11.8306 11.2638C32.6573 12.1905 53.404 14.0404 74.0706 16.8138C87.9706 18.6738 99.6006 21.0238 111.621 25.8438C113.911 26.7638 115.561 27.8738 115.951 30.5638C117.841 43.4838 117.101 56.4738 116.001 69.4138C114.714 84.5871 113.424 99.7571 112.131 114.924C111.071 126.697 109.531 138.464 107.511 150.224C106.657 151.824 106.851 153.294 108.091 154.634C79.3006 157.164 50.2606 159.034 22.2706 152.664C7.20062 149.234 1.63063 142.964 1.23063 127.414C0.210631 88.1871 2.57396 49.1637 8.32063 10.3438ZM21.5206 42.2438C22.094 42.7971 22.784 43.1138 23.5906 43.1938C23.6516 43.1994 23.7127 43.1816 23.7701 43.1415C23.8276 43.1014 23.8801 43.0399 23.9243 42.9609C23.9685 42.8819 24.0034 42.7871 24.0269 42.6826C24.0504 42.578 24.0619 42.4661 24.0606 42.3538C23.8806 27.6138 42.3506 23.7738 53.1406 29.1838C62.4306 33.8538 60.4906 44.6938 53.1906 49.7438C52.2106 50.4238 49.9906 51.3538 50.9806 52.9238C51.8006 54.2104 52.884 54.5004 54.2306 53.7938C62.5506 49.4438 68.2606 37.1637 60.2506 29.5237C51.0606 20.7437 35.7506 20.7238 26.1106 28.9338C22.2906 32.1871 20.6206 36.2071 21.1006 40.9938C21.1286 41.28 21.1809 41.541 21.2536 41.7574C21.3263 41.9738 21.4176 42.1401 21.5206 42.2438ZM68.5306 36.9838C69.1773 38.0438 70.2706 37.8371 71.8106 36.3638C76.5806 31.7838 84.7606 34.6838 90.3906 37.1338C96.4406 39.7738 97.8306 42.4038 99.9206 49.1638C99.9699 49.325 100.066 49.4645 100.188 49.5538C100.311 49.643 100.452 49.6752 100.581 49.6437C101.694 49.3704 102.624 48.8071 103.371 47.9538C103.464 47.8414 103.528 47.6908 103.56 47.5139C103.591 47.3369 103.588 47.1384 103.551 46.9338C101.261 35.0738 87.2206 29.6538 76.6606 29.3138C73.5606 29.2138 66.1106 33.0538 68.5306 36.9838ZM46.3838 43.3957C46.8756 42.8055 47.2367 42.1162 47.4467 41.3672C47.6566 40.6183 47.7112 39.8244 47.6073 39.0308C47.5034 38.2372 47.2431 37.4595 46.8413 36.742C46.4394 36.0245 45.9039 35.3813 45.2652 34.8492C43.9754 33.7746 42.3439 33.2176 40.7297 33.3006C39.1154 33.3836 37.6506 34.0999 36.6574 35.2919C36.1657 35.8821 35.8045 36.5713 35.5946 37.3203C35.3847 38.0692 35.3301 38.8631 35.434 39.6567C35.5378 40.4503 35.7981 41.2281 36.2 41.9456C36.6018 42.663 37.1374 43.3062 37.776 43.8383C39.0658 44.9129 40.6973 45.47 42.3116 45.387C43.9259 45.304 45.3907 44.5877 46.3838 43.3957ZM88.6306 46.5938C88.6306 44.9521 87.9785 43.3776 86.8176 42.2168C85.6568 41.0559 84.0823 40.4037 82.4406 40.4037C80.7989 40.4037 79.2245 41.0559 78.0636 42.2168C76.9028 43.3776 76.2506 44.9521 76.2506 46.5938C76.2506 48.2354 76.9028 49.8099 78.0636 50.9708C79.2245 52.1316 80.7989 52.7838 82.4406 52.7838C84.0823 52.7838 85.6568 52.1316 86.8176 50.9708C87.9785 49.8099 88.6306 48.2354 88.6306 46.5938ZM33.2806 111.234C35.8873 119.08 40.6673 124.41 47.6206 127.224C57.9606 131.404 75.2106 129.154 82.0606 119.134C82.8206 118.024 82.5406 116.744 82.9306 115.744C88.7006 100.944 83.4306 83.2438 66.3206 79.9538C59.7906 78.6938 49.1206 77.4038 43.6406 81.7038C34.654 88.7638 31.074 98.2538 32.9006 110.174C32.6606 110.734 32.7873 111.087 33.2806 111.234Z" fill="#FE6E59"/>
<path d="M112.128 114.924L113.518 116.534C113.596 116.627 113.655 116.76 113.692 116.922C113.728 117.085 113.74 117.273 113.728 117.474C113.221 124.82 112.928 129.47 112.848 131.424C112.568 138.337 110.788 144.604 107.508 150.224C109.528 138.464 111.068 126.697 112.128 114.924Z" fill="#22171C"/>
<path d="M21.5199 42.2438C21.4169 42.1401 21.3256 41.9739 21.2529 41.7575C21.1802 41.5411 21.1279 41.28 21.0999 40.9938C20.6199 36.2071 22.2899 32.1871 26.1099 28.9338C35.7499 20.7238 51.0599 20.7438 60.2499 29.5238C68.2599 37.1638 62.5499 49.4438 54.2299 53.7938C52.8832 54.5004 51.7999 54.2104 50.9799 52.9238C49.9899 51.3538 52.2099 50.4238 53.1899 49.7438C60.4899 44.6938 62.4299 33.8538 53.1399 29.1838C42.3499 23.7738 23.8799 27.6138 24.0599 42.3538C24.0611 42.4661 24.0497 42.578 24.0262 42.6826C24.0027 42.7871 23.9677 42.8819 23.9235 42.9609C23.8793 43.0399 23.8269 43.1014 23.7694 43.1415C23.712 43.1816 23.6508 43.1994 23.5899 43.1938C22.7832 43.1138 22.0932 42.7971 21.5199 42.2438Z" fill="#421414"/>
<path d="M68.5302 36.9844C66.1102 33.0544 73.5602 29.2144 76.6602 29.3144C87.2202 29.6544 101.26 35.0744 103.55 46.9344C103.587 47.139 103.59 47.3375 103.559 47.5145C103.528 47.6914 103.463 47.842 103.37 47.9544C102.623 48.8078 101.693 49.371 100.58 49.6444C100.451 49.6758 100.311 49.6437 100.188 49.5544C100.065 49.4651 99.9694 49.3256 99.9202 49.1644C97.8302 42.4044 96.4402 39.7744 90.3902 37.1344C84.7602 34.6844 76.5801 31.7844 71.8101 36.3644C70.2701 37.8377 69.1768 38.0444 68.5302 36.9844Z" fill="#381414"/>
<path d="M46.3839 43.3962C45.3907 44.5882 43.9259 45.3044 42.3116 45.3874C40.6974 45.4704 39.0659 44.9133 37.7761 43.8387C37.1374 43.3066 36.6019 42.6635 36.2 41.946C35.7982 41.2286 35.5379 40.4508 35.434 39.6572C35.3301 38.8636 35.3847 38.0697 35.5946 37.3207C35.8046 36.5718 36.1657 35.8826 36.6575 35.2923C37.6506 34.1004 39.1154 33.3841 40.7297 33.3011C42.344 33.2181 43.9755 33.7751 45.2653 34.8497C45.9039 35.3818 46.4395 36.025 46.8413 36.7425C47.2432 37.46 47.5035 38.2377 47.6073 39.0313C47.7112 39.8249 47.6566 40.6188 47.4467 41.3677C47.2368 42.1167 46.8756 42.8059 46.3839 43.3962Z" fill="#281A21"/>
<path d="M88.63 46.5943C88.63 48.236 87.9778 49.8105 86.817 50.9713C85.6561 52.1322 84.0817 52.7843 82.44 52.7843C80.7983 52.7843 79.2239 52.1322 78.063 50.9713C76.9022 49.8105 76.25 48.236 76.25 46.5943C76.25 44.9526 76.9022 43.3782 78.063 42.2173C79.2239 41.0565 80.7983 40.4043 82.44 40.4043C84.0817 40.4043 85.6561 41.0565 86.817 42.2173C87.9778 43.3782 88.63 44.9526 88.63 46.5943Z" fill="#281A21"/>
<path d="M33.2804 111.234C32.787 111.087 32.6604 110.734 32.9004 110.174C31.0737 98.2538 34.6537 88.7639 43.6404 81.7039C49.1204 77.4039 59.7904 78.6939 66.3204 79.9539C83.4304 83.2439 88.7004 100.944 82.9304 115.744C82.5404 116.744 82.8204 118.024 82.0604 119.134C75.2104 129.154 57.9604 131.404 47.6204 127.224C40.667 124.41 35.887 119.08 33.2804 111.234ZM51.6037 115.05C52.7997 115.254 54.028 115.2 55.2183 114.89C56.4086 114.58 57.5376 114.021 58.5409 113.243C59.5442 112.466 60.4021 111.487 61.0657 110.361C61.7292 109.235 62.1855 107.984 62.4083 106.681C62.8582 104.048 62.3302 101.359 60.9403 99.2059C59.5505 97.0525 57.4126 95.6107 54.9971 95.1978C53.801 94.9934 52.5728 95.0477 51.3825 95.3576C50.1922 95.6675 49.0631 96.2271 48.0598 97.0042C47.0565 97.7814 46.1986 98.761 45.535 99.887C44.8715 101.013 44.4153 102.264 44.1925 103.567C43.7425 106.2 44.2705 108.888 45.6604 111.042C47.0503 113.195 49.1881 114.637 51.6037 115.05Z" fill="#FEF9EF"/>
<path d="M51.6031 115.05C49.1875 114.637 47.0497 113.195 45.6598 111.041C44.2699 108.888 43.7419 106.199 44.1919 103.567C44.4147 102.263 44.8709 101.013 45.5345 99.8867C46.198 98.7607 47.056 97.7811 48.0593 97.0039C49.0626 96.2268 50.1916 95.6673 51.3819 95.3573C52.5722 95.0474 53.8004 94.9931 54.9965 95.1975C57.412 95.6104 59.5499 97.0522 60.9398 99.2056C62.3296 101.359 62.8576 104.048 62.4077 106.68C62.1849 107.984 61.7287 109.234 61.0651 110.36C60.4015 111.486 59.5436 112.466 58.5403 113.243C57.537 114.02 56.408 114.58 55.2177 114.89C54.0274 115.2 52.7991 115.254 51.6031 115.05Z" fill="#151E30"/>
</svg>
