<svg width="98" height="70" viewBox="0 0 98 70" fill="none" xmlns="http://www.w3.org/2000/svg">
<path d="M11.5455 43.8789C27.9955 57.5389 50.6355 65.6589 71.9155 66.7689C81.8755 67.2989 87.8655 67.7589 95.8455 68.3389C96.7455 68.4056 96.7922 68.2389 95.9855 67.8389C92.6855 66.1923 89.2321 64.8656 85.6255 63.8589C75.1121 60.9056 64.7255 57.5689 54.4655 53.8489C48.5455 51.7023 43.1755 48.5989 38.3555 44.5389C23.6355 32.1489 25.7955 11.2789 47.7255 11.7189C47.7794 11.7196 47.8327 11.707 47.8806 11.6822C47.9284 11.6575 47.9692 11.6215 47.9992 11.5776C48.0291 11.5337 48.0472 11.4833 48.0518 11.4311C48.0564 11.3789 48.0474 11.3265 48.0255 11.2789C45.9255 6.45893 44.0755 2.4589 39.3255 1.6289C26.4655 -0.601098 6.56547 2.72895 1.83547 17.619C-1.13453 26.919 4.2155 37.7889 11.5455 43.8789Z" stroke="#C3EBD9" stroke-width="2"/>
<path d="M11.5455 43.8794C4.2155 37.7894 -1.13453 26.9194 1.83547 17.6194C6.56547 2.72944 26.4655 -0.60061 39.3255 1.62939C44.0755 2.45939 45.9255 6.45941 48.0255 11.2794C48.0474 11.327 48.0564 11.3793 48.0518 11.4316C48.0472 11.4838 48.0291 11.5342 47.9992 11.5781C47.9692 11.622 47.9284 11.658 47.8806 11.6827C47.8327 11.7074 47.7794 11.72 47.7255 11.7194C25.7955 11.2794 23.6355 32.1494 38.3555 44.5394C43.1755 48.5994 48.5455 51.7028 54.4655 53.8494C64.7255 57.5694 75.1121 60.9061 85.6255 63.8594C89.2321 64.8661 92.6855 66.1927 95.9855 67.8394C96.7922 68.2394 96.7455 68.4061 95.8455 68.3394C87.8655 67.7594 81.8755 67.2994 71.9155 66.7694C50.6355 65.6594 27.9955 57.5394 11.5455 43.8794Z" fill="#86D7B2"/>
</svg>
