<svg width="75" height="115" viewBox="0 0 75 115" fill="none" xmlns="http://www.w3.org/2000/svg">
<path d="M6.32458 10.9092C4.13125 26.6625 3.49789 42.4492 4.42456 58.2692C5.62456 78.8392 8.78454 98.7692 26.8445 111.699C32.2745 115.589 36.4946 113.689 40.0646 108.529C46.4779 99.2758 51.2246 89.1925 54.3046 78.2792C54.3229 78.2105 54.3198 78.1142 54.2955 77.9978C54.2712 77.8815 54.2263 77.7484 54.1645 77.6093C54.1112 77.4826 54.0979 77.3425 54.1246 77.1892C55.6246 68.7159 57.0779 60.2325 58.4846 51.7392C58.6946 50.4892 58.1946 48.7592 59.2046 47.5592C59.4375 47.2878 59.5719 46.9834 59.5845 46.6992C59.9245 36.7592 62.0846 27.0492 62.3646 16.9792" stroke="#C5BFD2" stroke-width="2"/>
<path d="M62.364 16.979L68.364 18.459C69.7707 18.799 71.024 18.379 72.124 17.199C74.484 14.649 74.074 11.139 70.824 9.46903C68.0707 8.04237 65.1307 7.76568 62.004 8.63902C61.6823 8.72921 61.4115 8.92517 61.244 9.189C60.1307 10.9223 59.5807 13.0623 59.594 15.609" stroke="#8A8C90" stroke-width="2"/>
<path d="M59.593 15.6093C49.733 14.036 39.8497 12.5694 29.943 11.2094C24.893 10.5194 19.723 10.2393 14.543 9.81934" stroke="#C5BFD2" stroke-width="2"/>
<path d="M14.5437 9.8194C15.3237 2.93274 12.5171 0.0794058 6.12375 1.25941C-0.62625 2.50941 -0.856238 11.2694 6.32376 10.9094" stroke="#8A8C90" stroke-width="2"/>
<path d="M14.5442 9.81934C12.0842 10.6793 9.34422 11.0426 6.32422 10.9093" stroke="#505273" stroke-width="2"/>
<path d="M62.3638 16.9789C61.4438 16.2455 60.5204 15.7889 59.5938 15.6089" stroke="#505273" stroke-width="2"/>
<path d="M24.3192 38.473C24.2533 37.8461 23.9381 37.2517 23.3914 36.7236C22.8448 36.1955 22.0774 35.744 21.1331 35.3951C20.1889 35.0461 19.0863 34.8065 17.8883 34.6899C16.6902 34.5732 15.4202 34.5819 14.1508 34.7153C12.8813 34.8488 11.6373 35.1044 10.4896 35.4675C9.34202 35.8307 8.31329 36.2943 7.46223 36.8319C6.61117 37.3695 5.95443 37.9707 5.52949 38.6009C5.10456 39.2311 4.91979 39.8781 4.98567 40.505C5.05155 41.1319 5.36679 41.7264 5.91346 42.2545C6.46014 42.7826 7.22753 43.234 8.17176 43.5829C9.116 43.9319 10.2186 44.1715 11.4166 44.2881C12.6147 44.4048 13.8847 44.3962 15.1541 44.2628C16.4236 44.1293 17.6676 43.8737 18.8153 43.5106C19.9629 43.1474 20.9916 42.6837 21.8427 42.1461C22.6937 41.6085 23.3505 41.0074 23.7754 40.3772C24.2003 39.747 24.3851 39.0999 24.3192 38.473Z" stroke="#515375" stroke-width="2"/>
<path d="M36.6828 42.019C37.5628 46.989 49.8428 47.6989 53.9428 47.4189C56.1828 47.2656 57.4962 46.0023 57.8828 43.629C58.1562 41.9556 57.5895 40.6456 56.1828 39.699C51.9128 36.819 41.7928 33.8989 37.6628 38.7989C36.8161 39.8123 36.4895 40.8856 36.6828 42.019Z" stroke="#515375" stroke-width="2"/>
<path d="M18.7734 62.479C24.2068 66.199 30.2701 67.329 36.9634 65.869C37.0993 65.8388 37.226 65.767 37.3299 65.6613C37.4338 65.5556 37.5111 65.4199 37.5535 65.2689L37.9034 63.939" stroke="#BA778A" stroke-width="2"/>
<path d="M37.9044 63.9392C42.5544 66.4292 43.5044 59.9892 42.4344 57.1292C41.3944 54.3092 37.2143 50.6492 34.2743 49.4492C27.6843 46.7592 16.9744 50.1392 15.8744 58.1692C15.5477 60.5292 16.5143 61.9659 18.7743 62.4793" stroke="#545373" stroke-width="2"/>
<path d="M37.9034 63.9393L29.0135 57.4693C27.9335 56.6827 26.9235 56.6259 25.9835 57.2993L18.7734 62.4793" stroke="#834548" stroke-width="2"/>
<path d="M24.4915 84.5091C28.9215 86.1091 37.9015 85.1292 39.3615 79.0492C39.5348 78.3425 39.2882 78.1292 38.6215 78.4092C28.8415 82.5492 25.8715 82.3891 18.7015 74.2591C18.595 74.137 18.4636 74.0435 18.3199 73.9874C18.1763 73.9313 18.0253 73.9147 17.8815 73.9392C14.2615 74.4792 18.2415 79.9792 19.5615 81.2992C21.0415 82.7925 22.6848 83.8625 24.4915 84.5091Z" stroke="#515375" stroke-width="2"/>
<path d="M14.5437 9.81892C12.0837 10.6789 9.34376 11.0422 6.32376 10.9089C-0.856238 11.2689 -0.62625 2.50892 6.12375 1.25892C12.5171 0.0789175 15.3237 2.93225 14.5437 9.81892Z" fill="#151E30"/>
<path d="M62.364 16.979C61.444 16.2456 60.5207 15.789 59.594 15.609C59.5807 13.0623 60.1307 10.9223 61.244 9.189C61.4115 8.92517 61.6823 8.72921 62.004 8.63902C65.1307 7.76568 68.0707 8.04237 70.824 9.46903C74.074 11.139 74.484 14.649 72.124 17.199C71.024 18.379 69.7707 18.799 68.364 18.459L62.364 16.979Z" fill="#151E30"/>
<path d="M14.5446 9.81885C19.7246 10.2388 24.8946 10.5189 29.9446 11.2089C39.8512 12.5689 49.7345 14.0355 59.5945 15.6088C60.5212 15.7888 61.4446 16.2455 62.3646 16.9788C62.0846 27.0488 59.9245 36.7589 59.5845 46.6989C59.5719 46.9831 59.4375 47.2875 59.2046 47.5588C58.1946 48.7588 58.6946 50.4888 58.4846 51.7388C57.0779 60.2322 55.6246 68.7155 54.1246 77.1888C54.0979 77.3422 54.1112 77.4822 54.1645 77.6089C54.2263 77.748 54.2712 77.8811 54.2955 77.9974C54.3198 78.1138 54.3229 78.2101 54.3046 78.2788C51.2246 89.1921 46.4779 99.2755 40.0646 108.529C36.4946 113.689 32.2745 115.589 26.8445 111.699C8.78454 98.7689 5.62456 78.8389 4.42456 58.2689C3.49789 42.4489 4.13125 26.6621 6.32458 10.9088C9.34458 11.0421 12.0846 10.6788 14.5446 9.81885ZM24.3213 38.4728C24.2555 37.8459 23.9402 37.2515 23.3935 36.7234C22.8469 36.1953 22.0795 35.7438 21.1352 35.3949C20.191 35.046 19.0884 34.8063 17.8904 34.6897C16.6923 34.5731 15.4223 34.5817 14.1529 34.7151C12.8834 34.8486 11.6394 35.1042 10.4918 35.4673C9.34414 35.8305 8.31541 36.2941 7.46435 36.8317C6.61329 37.3694 5.95655 37.9705 5.53161 38.6007C5.10668 39.2309 4.92191 39.8779 4.98779 40.5048C5.05367 41.1317 5.36891 41.7262 5.91558 42.2543C6.46226 42.7824 7.22965 43.2338 8.17388 43.5828C9.11812 43.9317 10.2207 44.1713 11.4188 44.288C12.6168 44.4046 13.8868 44.396 15.1562 44.2626C16.4257 44.1292 17.6698 43.8735 18.8174 43.5104C19.965 43.1472 20.9937 42.6836 21.8448 42.1459C22.6958 41.6083 23.3526 41.0072 23.7775 40.377C24.2025 39.7468 24.3872 39.0997 24.3213 38.4728ZM36.6846 42.0189C37.5646 46.9889 49.8446 47.6988 53.9446 47.4188C56.1846 47.2655 57.4979 46.0022 57.8846 43.6288C58.1579 41.9555 57.5912 40.6455 56.1846 39.6989C51.9146 36.8189 41.7945 33.8988 37.6645 38.7988C36.8179 39.8122 36.4912 40.8855 36.6846 42.0189ZM18.7745 62.4789C24.2079 66.1989 30.2712 67.3289 36.9645 65.8689C37.1004 65.8387 37.2271 65.7668 37.331 65.6611C37.4349 65.5554 37.5122 65.4198 37.5546 65.2688L37.9045 63.9388C42.5545 66.4288 43.5046 59.9888 42.4346 57.1288C41.3946 54.3088 37.2145 50.6489 34.2745 49.4489C27.6845 46.7589 16.9746 50.1388 15.8746 58.1688C15.5479 60.5288 16.5145 61.9655 18.7745 62.4789ZM24.4946 84.5088C28.9246 86.1088 37.9046 85.1288 39.3646 79.0488C39.5379 78.3422 39.2912 78.1288 38.6246 78.4088C28.8446 82.5488 25.8746 82.3888 18.7046 74.2588C18.5981 74.1367 18.4666 74.0431 18.323 73.9871C18.1794 73.931 18.0284 73.9144 17.8846 73.9388C14.2646 74.4788 18.2446 79.9788 19.5646 81.2988C21.0446 82.7922 22.6879 83.8621 24.4946 84.5088Z" fill="#8B85B5"/>
<path d="M24.3192 38.473C24.3851 39.0999 24.2003 39.747 23.7754 40.3772C23.3505 41.0074 22.6937 41.6085 21.8427 42.1461C20.9916 42.6837 19.9629 43.1474 18.8153 43.5106C17.6676 43.8737 16.4236 44.1293 15.1541 44.2628C13.8847 44.3962 12.6147 44.4048 11.4166 44.2881C10.2186 44.1715 9.116 43.9319 8.17176 43.5829C7.22753 43.234 6.46014 42.7826 5.91346 42.2545C5.36679 41.7264 5.05155 41.1319 4.98567 40.505C4.91979 39.8781 5.10456 39.2311 5.52949 38.6009C5.95443 37.9707 6.61117 37.3695 7.46223 36.8319C8.31329 36.2943 9.34202 35.8307 10.4896 35.4675C11.6372 35.1044 12.8813 34.8488 14.1508 34.7153C15.4202 34.5819 16.6902 34.5732 17.8883 34.6899C19.0863 34.8065 20.1889 35.0461 21.1331 35.3951C22.0774 35.744 22.8448 36.1955 23.3914 36.7236C23.9381 37.2517 24.2533 37.8461 24.3192 38.473Z" fill="#172035"/>
<path d="M53.9428 47.4189C49.8428 47.6989 37.5628 46.989 36.6828 42.019C36.4895 40.8856 36.8161 39.8123 37.6628 38.7989C41.7928 33.8989 51.9128 36.819 56.1828 39.699C57.5895 40.6456 58.1562 41.9556 57.8828 43.629C57.4962 46.0023 56.1828 47.2656 53.9428 47.4189Z" fill="#172035"/>
<path d="M37.9044 63.9392L29.0144 57.4692C27.9344 56.6826 26.9244 56.6259 25.9844 57.2992L18.7743 62.4793C16.5143 61.9659 15.5477 60.5292 15.8744 58.1692C16.9744 50.1392 27.6843 46.7592 34.2743 49.4492C37.2143 50.6492 41.3944 54.3092 42.4344 57.1292C43.5044 59.9892 42.5544 66.4292 37.9044 63.9392Z" fill="#1C2030"/>
<path d="M37.9034 63.9388L37.5535 65.2688C37.5111 65.4197 37.4338 65.5554 37.3299 65.6611C37.226 65.7668 37.0993 65.8386 36.9634 65.8689C30.2701 67.3289 24.2068 66.1988 18.7734 62.4788L25.9835 57.2988C26.9235 56.6255 27.9335 56.6822 29.0135 57.4688L37.9034 63.9388Z" fill="#E9695F"/>
<path d="M19.5615 81.2992C18.2415 79.9792 14.2615 74.4792 17.8815 73.9392C18.0253 73.9147 18.1763 73.9313 18.3199 73.9874C18.4636 74.0435 18.595 74.137 18.7015 74.2591C25.8715 82.3891 28.8415 82.5492 38.6215 78.4092C39.2882 78.1292 39.5348 78.3425 39.3615 79.0492C37.9015 85.1292 28.9215 86.1091 24.4915 84.5091C22.6848 83.8625 21.0415 82.7925 19.5615 81.2992Z" fill="#172035"/>
</svg>
