<svg width="115" height="67" viewBox="0 0 115 67" fill="none" xmlns="http://www.w3.org/2000/svg">
<path d="M13.9805 48.2031C15.5671 50.7898 17.5805 52.9698 20.0205 54.7431" stroke="#8A897E" stroke-width="2"/>
<path d="M20.0213 54.7432C37.7413 68.0632 62.8713 70.1633 81.1713 56.8233C83.818 54.8899 87.0546 51.6399 90.8813 47.0733C97.3479 39.3533 103.548 32.2966 109.481 25.9033C111.355 23.8833 112.725 21.6299 113.591 19.1433C113.609 19.0938 113.613 19.0409 113.603 18.9893C113.594 18.9377 113.571 18.8891 113.537 18.8482C113.503 18.8073 113.459 18.7753 113.409 18.7552C113.359 18.7351 113.305 18.7276 113.251 18.7333C105.721 19.5933 96.8313 22.1832 90.4513 21.9332C77.3913 21.4232 69.9013 12.7633 60.0313 6.97328C41.7513 -3.73672 19.2913 0.283274 5.77127 16.4033C1.69127 21.2699 0.227926 26.8499 1.38126 33.1433C2.50126 39.2833 9.03123 44.9033 13.9812 48.2033" stroke="#FFD089" stroke-width="2"/>
<path d="M20.0184 54.7431C22.0851 48.3298 20.0984 45.7198 14.0584 46.9131C14.0119 46.9229 13.9692 46.9451 13.9336 46.978C13.898 47.0108 13.8704 47.0535 13.853 47.1028C13.8356 47.152 13.8289 47.2065 13.8333 47.2621C13.8377 47.3176 13.8531 47.3727 13.8784 47.4231C13.9984 47.6564 14.0317 47.9165 13.9784 48.2031" stroke="#8B5C14" stroke-width="2"/>
<path d="M63.3051 24.6277C64.1573 24.7887 65.0592 24.4949 65.8126 23.8108C66.5659 23.1267 67.1089 22.1085 67.3221 20.9801C67.5353 19.8517 67.4012 18.7055 66.9494 17.7938C66.4976 16.882 65.7651 16.2793 64.9129 16.1183C64.0607 15.9573 63.1588 16.2512 62.4055 16.9352C61.6521 17.6193 61.1092 18.6375 60.8959 19.7659C60.6827 20.8943 60.8167 22.0405 61.2685 22.9522C61.7203 23.864 62.453 24.4667 63.3051 24.6277Z" stroke="#965812" stroke-width="2"/>
<path d="M42.4099 21.7029C42.4099 20.7986 42.0506 19.9312 41.4111 19.2917C40.7716 18.6522 39.9043 18.293 38.9999 18.293C38.5521 18.293 38.1087 18.3811 37.6949 18.5525C37.2812 18.7239 36.9053 18.975 36.5886 19.2917C36.272 19.6083 36.0209 19.9843 35.8495 20.398C35.6781 20.8117 35.5898 21.2551 35.5898 21.7029C35.5898 22.1507 35.6781 22.5942 35.8495 23.0079C36.0209 23.4216 36.272 23.7975 36.5886 24.1142C36.9053 24.4308 37.2812 24.682 37.6949 24.8534C38.1087 25.0248 38.5521 25.1129 38.9999 25.1129C39.9043 25.1129 40.7716 24.7537 41.4111 24.1142C42.0506 23.4747 42.4099 22.6073 42.4099 21.7029Z" stroke="#9E5B13" stroke-width="2"/>
<path d="M25.0117 27.813C25.0117 26.8847 24.6429 25.9945 23.9866 25.3381C23.3302 24.6818 22.44 24.313 21.5117 24.313C20.5835 24.313 19.6932 24.6818 19.0369 25.3381C18.3805 25.9945 18.0117 26.8847 18.0117 27.813C18.0117 28.7412 18.3805 29.6315 19.0369 30.2879C19.6932 30.9443 20.5835 31.313 21.5117 31.313C22.44 31.313 23.3302 30.9443 23.9866 30.2879C24.6429 29.6315 25.0117 28.7412 25.0117 27.813Z" stroke="#965812" stroke-width="2"/>
<path d="M78.4881 32.6728C86.6681 36.1528 84.5481 22.5929 80.4781 24.5829C79.0281 25.2829 78.1381 29.5629 77.6981 30.9829C77.5968 31.3124 77.6215 31.6678 77.7675 31.9801C77.9135 32.2924 78.1703 32.5392 78.4881 32.6728Z" stroke="#8F5C17" stroke-width="2"/>
<path d="M48.9685 39.1864C48.734 38.6175 48.2237 38.1896 47.5499 37.9967C46.8761 37.8038 46.094 37.8618 45.3756 38.158C44.6571 38.4541 44.0613 38.9641 43.7191 39.5757C43.3769 40.1873 43.3163 40.8505 43.5507 41.4194C43.7852 41.9882 44.2955 42.4162 44.9693 42.6091C45.6431 42.8019 46.4253 42.7439 47.1438 42.4478C47.8622 42.1516 48.458 41.6417 48.8003 41.0301C49.1425 40.4185 49.2029 39.7553 48.9685 39.1864Z" stroke="#965812" stroke-width="2"/>
<path d="M67.1485 46.3519C67.2527 46.0089 67.276 45.6449 67.217 45.2808C67.158 44.9167 67.0178 44.5596 66.8045 44.2299C66.5912 43.9001 66.309 43.6042 65.9739 43.359C65.6389 43.1138 65.2575 42.9241 64.8516 42.8008C64.032 42.5518 63.1623 42.5882 62.4339 42.902C61.7055 43.2157 61.178 43.7812 60.9675 44.4739C60.8633 44.817 60.84 45.1809 60.899 45.545C60.958 45.9091 61.0982 46.2662 61.3115 46.596C61.5248 46.9258 61.8071 47.2217 62.1422 47.4669C62.4772 47.712 62.8586 47.9017 63.2645 48.025C64.0841 48.274 64.9538 48.2377 65.6822 47.9239C66.4106 47.6102 66.938 47.0447 67.1485 46.3519Z" stroke="#965812" stroke-width="2"/>
<path d="M30.0989 54.153C29.4489 61.603 44.289 62.9531 37.279 48.9131C36.319 46.9931 34.9157 46.583 33.069 47.683C30.889 48.973 30.2989 51.783 30.0989 54.153Z" stroke="#8F5C17" stroke-width="2"/>
<path d="M20.0213 54.7432C22.0879 48.3299 20.1013 45.72 14.0613 46.9133C14.0148 46.9231 13.972 46.9452 13.9364 46.9781C13.9008 47.011 13.8733 47.0537 13.8559 47.1029C13.8385 47.1522 13.8318 47.2067 13.8362 47.2622C13.8406 47.3178 13.856 47.3728 13.8813 47.4232C14.0013 47.6566 14.0346 47.9166 13.9812 48.2033C9.03123 44.9033 2.50126 39.2833 1.38126 33.1433C0.227926 26.8499 1.69127 21.2699 5.77127 16.4033C19.2913 0.283274 41.7513 -3.73672 60.0313 6.97328C69.9013 12.7633 77.3913 21.4232 90.4513 21.9332C96.8313 22.1832 105.721 19.5933 113.251 18.7333C113.305 18.7276 113.359 18.7351 113.409 18.7552C113.459 18.7753 113.503 18.8073 113.537 18.8482C113.571 18.8891 113.594 18.9377 113.603 18.9893C113.613 19.0409 113.609 19.0938 113.591 19.1433C112.725 21.6299 111.355 23.8833 109.481 25.9033C103.548 32.2966 97.3479 39.3533 90.8813 47.0733C87.0546 51.6399 83.818 54.8899 81.1713 56.8233C62.8713 70.1633 37.7413 68.0632 20.0213 54.7432ZM63.3074 24.6279C64.1596 24.7889 65.0615 24.4951 65.8148 23.8111C66.5682 23.127 67.1112 22.1088 67.3244 20.9804C67.5376 19.852 67.4035 18.7058 66.9517 17.794C66.4999 16.8823 65.7674 16.2796 64.9152 16.1185C64.063 15.9576 63.1611 16.2514 62.4077 16.9355C61.6544 17.6196 61.1114 18.6378 60.8982 19.7662C60.685 20.8946 60.819 22.0407 61.2708 22.9525C61.7226 23.8642 62.4552 24.4669 63.3074 24.6279ZM42.4113 21.7033C42.4113 20.7989 42.052 19.9315 41.4125 19.292C40.773 18.6525 39.9056 18.2933 39.0013 18.2933C38.5534 18.2933 38.11 18.3814 37.6963 18.5528C37.2826 18.7242 36.9066 18.9754 36.59 19.292C36.2734 19.6087 36.0222 19.9846 35.8509 20.3983C35.6795 20.8121 35.5912 21.2555 35.5912 21.7033C35.5912 22.1511 35.6795 22.5945 35.8509 23.0082C36.0222 23.4219 36.2734 23.7979 36.59 24.1145C36.9066 24.4312 37.2826 24.6823 37.6963 24.8537C38.11 25.0251 38.5534 25.1132 39.0013 25.1132C39.9056 25.1132 40.773 24.754 41.4125 24.1145C42.052 23.475 42.4113 22.6077 42.4113 21.7033ZM25.0113 27.8132C25.0113 26.885 24.6425 25.9948 23.9861 25.3384C23.3297 24.682 22.4395 24.3132 21.5113 24.3132C20.583 24.3132 19.6928 24.682 19.0364 25.3384C18.38 25.9948 18.0113 26.885 18.0113 27.8132C18.0113 28.7415 18.38 29.6318 19.0364 30.2882C19.6928 30.9445 20.583 31.3132 21.5113 31.3132C22.4395 31.3132 23.3297 30.9445 23.9861 30.2882C24.6425 29.6318 25.0113 28.7415 25.0113 27.8132ZM78.4912 32.6732C86.6712 36.1532 84.5512 22.5933 80.4812 24.5833C79.0312 25.2833 78.1413 29.5633 77.7013 30.9833C77.6 31.3128 77.6247 31.6682 77.7707 31.9805C77.9166 32.2928 78.1734 32.5397 78.4912 32.6732ZM48.9701 39.1868C48.7356 38.6179 48.2254 38.1899 47.5515 37.9971C46.8777 37.8042 46.0957 37.8622 45.3772 38.1583C44.6588 38.4545 44.063 38.9644 43.7207 39.5761C43.3785 40.1877 43.318 40.8509 43.5524 41.4198C43.7869 41.9886 44.2972 42.4166 44.971 42.6095C45.6448 42.8023 46.427 42.7443 47.1454 42.4481C47.8638 42.152 48.4597 41.6421 48.8019 41.0305C49.1441 40.4188 49.2046 39.7556 48.9701 39.1868ZM67.1518 46.3522C67.256 46.0092 67.2793 45.6452 67.2202 45.2811C67.1612 44.917 67.0211 44.5599 66.8078 44.2302C66.5945 43.9004 66.3123 43.6045 65.9772 43.3593C65.6421 43.1141 65.2607 42.9245 64.8549 42.8012C64.0352 42.5521 63.1656 42.5885 62.4372 42.9023C61.7088 43.2161 61.1812 43.7815 60.9707 44.4743C60.8665 44.8173 60.8432 45.1813 60.9023 45.5454C60.9613 45.9095 61.1014 46.2666 61.3147 46.5963C61.528 46.9261 61.8103 47.222 62.1454 47.4672C62.4805 47.7124 62.8619 47.902 63.2677 48.0253C64.0874 48.2744 64.957 48.238 65.6855 47.9243C66.4139 47.6105 66.9413 47.045 67.1518 46.3522ZM30.1012 54.1533C29.4512 61.6033 44.2913 62.9533 37.2813 48.9133C36.3213 46.9933 34.918 46.5832 33.0713 47.6832C30.8913 48.9732 30.3012 51.7833 30.1012 54.1533Z" fill="#FFA31F"/>
<path d="M60.8948 19.766C60.4508 22.1159 61.5294 24.2926 63.304 24.6279C65.0786 24.9632 66.8771 23.3301 67.3211 20.9803C67.7651 18.6305 66.6864 16.4538 64.9119 16.1185C63.1373 15.7831 61.3388 17.4162 60.8948 19.766Z" fill="#2C0D04"/>
<path d="M38.9999 25.1129C40.8832 25.1129 42.4099 23.5862 42.4099 21.7029C42.4099 19.8197 40.8832 18.293 38.9999 18.293C37.1166 18.293 35.5898 19.8197 35.5898 21.7029C35.5898 23.5862 37.1166 25.1129 38.9999 25.1129Z" fill="#3D1207"/>
<path d="M21.5078 31.313C23.4408 31.313 25.0078 29.746 25.0078 27.813C25.0078 25.88 23.4408 24.313 21.5078 24.313C19.5748 24.313 18.0078 25.88 18.0078 27.813C18.0078 29.746 19.5748 31.313 21.5078 31.313Z" fill="#2C0D04"/>
<path d="M78.4881 32.6733C78.1703 32.5397 77.9135 32.2929 77.7675 31.9806C77.6215 31.6683 77.5968 31.3129 77.6981 30.9834C78.1381 29.5634 79.0281 25.2833 80.4781 24.5833C84.5481 22.5933 86.6681 36.1533 78.4881 32.6733Z" fill="#1E140E"/>
<path d="M47.1451 42.4483C48.6412 41.8316 49.4582 40.3714 48.9699 39.1868C48.4816 38.0022 46.873 37.5417 45.3769 38.1584C43.8808 38.775 43.0638 40.2352 43.5521 41.4198C44.0403 42.6045 45.649 43.0649 47.1451 42.4483Z" fill="#2C0D04"/>
<path d="M63.265 48.0255C64.9718 48.5441 66.7108 47.795 67.1491 46.3523C67.5874 44.9097 66.5591 43.3199 64.8522 42.8013C63.1454 42.2827 61.4064 43.0318 60.9681 44.4744C60.5298 45.917 61.5582 47.5069 63.265 48.0255Z" fill="#2C0D04"/>
<path d="M20.0184 54.7431C17.5784 52.9698 15.565 50.7898 13.9784 48.2031C14.0317 47.9165 13.9984 47.6564 13.8784 47.4231C13.8531 47.3727 13.8377 47.3176 13.8333 47.2621C13.8289 47.2065 13.8356 47.152 13.853 47.1028C13.8704 47.0535 13.898 47.0108 13.9336 46.978C13.9692 46.9451 14.0119 46.9229 14.0584 46.9131C20.0984 45.7198 22.0851 48.3298 20.0184 54.7431Z" fill="#161409"/>
<path d="M37.279 48.9131C44.289 62.9531 29.4489 61.603 30.0989 54.153C30.2989 51.783 30.889 48.973 33.069 47.683C34.9157 46.583 36.319 46.9931 37.279 48.9131Z" fill="#1E140E"/>
</svg>
