<svg width="117" height="117" viewBox="0 0 117 117" fill="none" xmlns="http://www.w3.org/2000/svg">
<path d="M9.98919 28.4268C0.115852 45.6934 -1.62415 63.1401 4.76918 80.7668C10.6992 97.1168 22.5792 108.237 39.4492 112.717" stroke="#FBAFA3" stroke-width="2"/>
<path d="M39.4492 112.717C52.4492 116.583 65.2959 116.097 77.9892 111.257" stroke="#FFB5A8" stroke-width="2"/>
<path d="M77.9922 111.257C95.2255 105.504 106.879 94.0735 112.952 76.9668" stroke="#F9AB9F" stroke-width="2"/>
<path d="M112.949 76.9662C115.183 70.0795 115.676 62.9495 114.429 55.5762" stroke="#FFB5A8" stroke-width="2"/>
<path d="M114.432 55.5765C112.572 38.1965 104.569 24.4399 90.4222 14.3065C74.3022 2.76653 53.7822 -3.5735 35.4422 4.8965C24.5355 9.9365 16.0522 17.7799 9.99219 28.4265" stroke="#AFE3E0" stroke-width="2"/>
<path d="M114.431 55.5765C106.824 53.6898 99.3878 51.3798 92.1211 48.6465" stroke="#AF9889" stroke-width="2"/>
<path d="M92.1204 48.6471C94.2204 45.7004 94.1704 43.2271 91.9704 41.2271C90.7104 40.0804 89.5804 40.1704 88.5804 41.4971C87.2271 43.2904 87.1137 45.1004 88.2404 46.9271" stroke="#356867" stroke-width="2"/>
<path d="M88.2402 46.9268L85.9102 47.1168" stroke="#AF9889" stroke-width="2"/>
<path d="M85.9122 47.1172L84.4922 47.2571" stroke="#ADCB78" stroke-width="2"/>
<path d="M84.4928 47.2567C73.9328 45.39 60.8295 42.48 45.1828 38.5267C42.1561 37.76 39.8895 36.7833 38.3828 35.5967" stroke="#A1CCA1" stroke-width="2"/>
<path d="M38.3798 35.5963C41.9731 34.0563 42.8031 31.613 40.8697 28.2663C40.7026 27.9771 40.4413 27.766 40.1398 27.6763C36.3198 26.5663 31.6597 33.0163 36.7397 34.9263" stroke="#396E6F" stroke-width="2"/>
<path d="M36.7422 34.9268L33.9922 35.5067" stroke="#A1CCA1" stroke-width="2"/>
<path d="M33.9924 35.5064L33.1523 35.3164" stroke="#ADCB78" stroke-width="2"/>
<path d="M33.1522 35.3167L25.9922 33.6768" stroke="#AF9889" stroke-width="2"/>
<path d="M25.9892 33.6762C23.1092 31.0562 15.9792 29.4962 12.1892 28.3562C12.055 28.3165 11.9199 28.3049 11.7971 28.3224C11.6744 28.3399 11.5682 28.386 11.4892 28.4562L11.1992 28.7162" stroke="#7EB1AE" stroke-width="2"/>
<path d="M11.2022 28.7167L9.99219 28.4268" stroke="#AB9383" stroke-width="2"/>
<path d="M84.4922 47.2568C76.2722 48.5968 65.8022 45.4469 56.4322 42.9169C51.2322 41.5169 44.3722 40.9869 39.7322 38.3669C37.8655 37.3135 35.9522 36.3602 33.9922 35.5068" stroke="#EFD158" stroke-width="2"/>
<path d="M38.3822 35.5967C37.7755 35.2034 37.2289 34.9801 36.7422 34.9268" stroke="#7B7350" stroke-width="2"/>
<path d="M11.49 29.0068C11.3367 29.9868 10.9301 30.8469 10.2701 31.5869C10.0554 31.8278 9.91939 32.1278 9.88004 32.4468C9.46004 35.8868 6.77001 38.9969 6.07001 42.9169C5.56001 45.7869 3.71002 49.1169 3.92002 51.9769C4.23335 56.2969 4.11668 60.0368 3.57001 63.1968C3.22001 65.2868 3.50004 70.8769 4.69004 72.5869C6.89004 75.7369 7.45999 78.9868 8.70999 83.7068C11.17 92.9568 18.18 99.1868 25.76 104.427C29.3934 106.933 33.4467 108.637 37.92 109.537C38.1006 109.573 38.2644 109.644 38.3933 109.741C38.5222 109.838 38.611 109.958 38.65 110.087L39.45 112.717" stroke="#FB654C" stroke-width="2"/>
<path d="M33.15 35.3164C32.2767 38.9897 31.8067 42.6931 31.74 46.4265C31.47 60.8765 40.86 70.6764 55.54 71.8064C71.33 73.0164 81.01 60.4665 85.91 47.1165" stroke="#FD9D40" stroke-width="2"/>
<path d="M88.2422 46.9268L92.1222 48.6467" stroke="#853A2F" stroke-width="2"/>
<path d="M112.952 76.9665L109.762 76.8365C109.619 76.8313 109.481 76.8626 109.369 76.9257C109.257 76.9889 109.178 77.0805 109.142 77.1865C104.402 92.8265 94.5822 103.286 79.2422 109.446C78.7155 109.66 78.2989 110.263 77.9922 111.257" stroke="#F96148" stroke-width="2"/>
<path d="M25.9922 33.6769L11.4922 29.0068" stroke="#CF8377" stroke-width="2"/>
<path d="M11.4892 29.0068L11.1992 28.7168" stroke="#CB7D71" stroke-width="2"/>
<path d="M114.432 55.5765C106.826 53.6898 99.3889 51.3798 92.1222 48.6465C94.2222 45.6998 94.1722 43.2265 91.9722 41.2265C90.7122 40.0798 89.5822 40.1699 88.5822 41.4965C87.2289 43.2899 87.1155 45.0999 88.2422 46.9265L85.9122 47.1165L84.4922 47.2565C73.9322 45.3898 60.8289 42.4798 45.1822 38.5265C42.1555 37.7598 39.8889 36.7832 38.3822 35.5965C41.9755 34.0565 42.8055 31.6132 40.8722 28.2665C40.705 27.9773 40.4438 27.7662 40.1422 27.6765C36.3222 26.5665 31.6622 33.0165 36.7422 34.9265L33.9922 35.5065L33.1522 35.3165L25.9922 33.6765C23.1122 31.0565 15.9822 29.4965 12.1922 28.3565C12.058 28.3168 11.9229 28.3052 11.8001 28.3227C11.6774 28.3402 11.5712 28.3863 11.4922 28.4565L11.2022 28.7165L9.99219 28.4265C16.0522 17.7799 24.5355 9.9365 35.4422 4.8965C53.7822 -3.5735 74.3022 2.76653 90.4222 14.3065C104.569 24.4399 112.572 38.1965 114.432 55.5765Z" fill="#5EC6C0"/>
<path d="M38.3837 35.5963C37.777 35.203 37.2303 34.9797 36.7437 34.9263C31.6637 33.0163 36.3237 26.5663 40.1437 27.6763C40.4452 27.766 40.7065 27.9771 40.8737 28.2663C42.807 31.613 41.977 34.0563 38.3837 35.5963Z" fill="#13151E"/>
<path d="M25.9931 33.6762L11.4931 29.0062L11.2031 28.7162L11.4931 28.4562C11.5722 28.386 11.6783 28.3399 11.801 28.3224C11.9238 28.3049 12.0589 28.3165 12.1931 28.3562C15.9831 29.4962 23.1131 31.0562 25.9931 33.6762Z" fill="#9E9B9C"/>
<path d="M9.99309 28.4268L11.2031 28.7167L11.4931 29.0067C11.3398 29.9867 10.9331 30.8467 10.2731 31.5867C10.0585 31.8277 9.92246 32.1276 9.88311 32.4467C9.46311 35.8867 6.77308 38.9967 6.07308 42.9167C5.56308 45.7867 3.71308 49.1167 3.92308 51.9767C4.23642 56.2967 4.11974 60.0367 3.57308 63.1967C3.22308 65.2867 3.5031 70.8767 4.6931 72.5867C6.8931 75.7367 7.46306 78.9867 8.71306 83.7067C11.1731 92.9567 18.1831 99.1867 25.7631 104.427C29.3964 106.933 33.4498 108.637 37.9231 109.537C38.1036 109.573 38.2675 109.644 38.3964 109.741C38.5252 109.838 38.6141 109.958 38.6531 110.087L39.4531 112.717C22.5831 108.237 10.7031 97.1168 4.77309 80.7668C-1.62024 63.1401 0.119759 45.6934 9.99309 28.4268Z" fill="#F75F46"/>
<path d="M11.4939 29.0059L25.9939 33.6759L33.1539 35.3159C32.2806 38.9892 31.8106 42.6926 31.7439 46.4259C31.4739 60.8759 40.8639 70.6758 55.5439 71.8058C71.3339 73.0158 81.0139 60.4659 85.9139 47.1159L88.2439 46.9259L92.1239 48.6459C99.3906 51.3792 106.827 53.6892 114.434 55.5759C115.681 62.9492 115.187 70.0792 112.954 76.9659L109.764 76.8359C109.621 76.8306 109.483 76.8619 109.371 76.9251C109.259 76.9883 109.179 77.0798 109.144 77.1859C104.404 92.8259 94.5839 103.286 79.2439 109.446C78.7173 109.659 78.3006 110.263 77.9939 111.256C65.3006 116.096 52.454 116.583 39.454 112.716L38.6539 110.086C38.6149 109.957 38.5261 109.837 38.3972 109.74C38.2683 109.643 38.1045 109.572 37.9239 109.536C33.4506 108.636 29.3973 106.933 25.764 104.426C18.184 99.1858 11.1739 92.9559 8.7139 83.7059C7.4639 78.9859 6.89394 75.7359 4.69394 72.5859C3.50394 70.8759 3.22392 65.2859 3.57392 63.1959C4.12058 60.0359 4.23726 56.2959 3.92392 51.9759C3.71392 49.1159 5.56392 45.7859 6.07392 42.9159C6.77392 38.9959 9.46394 35.8859 9.88394 32.4459C9.9233 32.1268 10.0594 31.8268 10.274 31.5859C10.934 30.8459 11.3406 29.9859 11.4939 29.0059Z" fill="#FF6A51"/>
<path d="M36.7422 34.9268C37.2289 34.9801 37.7755 35.2034 38.3822 35.5967C39.8889 36.7834 42.1555 37.7601 45.1822 38.5267C60.8289 42.4801 73.9322 45.39 84.4922 47.2567C76.2722 48.5967 65.8022 45.4467 56.4322 42.9167C51.2322 41.5167 44.3722 40.9868 39.7322 38.3668C37.8655 37.3134 35.9522 36.36 33.9922 35.5067L36.7422 34.9268Z" fill="#E3D181"/>
<path d="M33.1539 35.3164L33.994 35.5064C35.954 36.3597 37.8673 37.3131 39.7339 38.3665C44.3739 40.9865 51.234 41.5164 56.434 42.9164C65.804 45.4464 76.274 48.5964 84.494 47.2564L85.9139 47.1165C81.0139 60.4665 71.3339 73.0164 55.5439 71.8064C40.8639 70.6764 31.474 60.8765 31.744 46.4265C31.8106 42.6931 32.2806 38.9897 33.1539 35.3164Z" fill="#FBD02F"/>
<path d="M92.1243 48.6471L88.2443 46.9271C87.1177 45.1004 87.231 43.2904 88.5843 41.4971C89.5843 40.1704 90.7143 40.0804 91.9743 41.2271C94.1743 43.2271 94.2243 45.7004 92.1243 48.6471Z" fill="#0B090D"/>
<path d="M112.952 76.9665C106.879 94.0732 95.2255 105.503 77.9922 111.257C78.2989 110.263 78.7155 109.66 79.2422 109.446C94.5822 103.286 104.402 92.8265 109.142 77.1865C109.178 77.0805 109.257 76.9889 109.369 76.9257C109.481 76.8626 109.619 76.8313 109.762 76.8365L112.952 76.9665Z" fill="#F2573F"/>
</svg>
