<svg width="38" height="38" viewBox="0 0 38 38" fill="none" xmlns="http://www.w3.org/2000/svg">
<path d="M2.04707 16.5C-2.50293 38.93 35.8171 45.54 36.6071 21.44C36.8471 14.06 33.5604 8.26003 26.7471 4.04003C16.4571 -2.33997 4.19707 5.87999 2.04707 16.5Z" stroke="#8D94AE" stroke-width="2"/>
<path d="M28.6749 22.6922C28.6149 22.626 28.5391 22.5754 28.4517 22.5434C28.3642 22.5113 28.2669 22.4983 28.1653 22.5052C28.0638 22.5121 27.9599 22.5386 27.8596 22.5834C27.7594 22.6282 27.6647 22.6903 27.5811 22.7662C27.4121 22.9194 27.2982 23.1194 27.2643 23.3222C27.2305 23.525 27.2796 23.714 27.4008 23.8476C27.4607 23.9137 27.5366 23.9643 27.6241 23.9964C27.7115 24.0284 27.8088 24.0414 27.9103 24.0346C28.0119 24.0277 28.1158 24.0011 28.2161 23.9563C28.3163 23.9115 28.411 23.8495 28.4946 23.7736C28.6636 23.6204 28.7775 23.4204 28.8113 23.2176C28.8452 23.0148 28.7961 22.8258 28.6749 22.6922Z" stroke="#374373" stroke-width="2"/>
<path d="M36.6071 21.44C35.8171 45.54 -2.50293 38.93 2.04707 16.5C4.19707 5.87999 16.4571 -2.33997 26.7471 4.04003C33.5604 8.26003 36.8471 14.06 36.6071 21.44ZM28.6741 22.6923C28.6142 22.6262 28.5383 22.5756 28.4509 22.5435C28.3634 22.5114 28.2661 22.4985 28.1646 22.5054C28.063 22.5122 27.9591 22.5388 27.8588 22.5835C27.7586 22.6283 27.6639 22.6905 27.5803 22.7663C27.4113 22.9196 27.2974 23.1195 27.2636 23.3223C27.2298 23.5251 27.2788 23.7141 27.4 23.8477C27.46 23.9139 27.5359 23.9644 27.6233 23.9965C27.7107 24.0286 27.808 24.0416 27.9096 24.0347C28.0111 24.0278 28.115 24.0013 28.2153 23.9565C28.3155 23.9117 28.4102 23.8496 28.4939 23.7737C28.6628 23.6205 28.7767 23.4205 28.8106 23.2177C28.8444 23.0149 28.7953 22.8259 28.6741 22.6923Z" fill="#1A285D"/>
<path d="M28.4959 23.7736C28.8478 23.4545 28.9285 22.9703 28.6763 22.6921C28.424 22.4139 27.9343 22.447 27.5824 22.7661C27.2305 23.0851 27.1498 23.5693 27.4021 23.8475C27.6543 24.1257 28.1441 24.0926 28.4959 23.7736Z" fill="#535E88"/>
</svg>
