<svg width="66" height="170" viewBox="0 0 66 170" fill="none" xmlns="http://www.w3.org/2000/svg">
<path d="M15.3323 133.443C12.5623 156.463 33.0023 179.264 55.6823 162.534C64.3223 156.174 64.5623 143.043 63.8123 133.323C62.3923 115.11 57.0889 98.3301 47.9023 82.9835C35.4123 62.1335 17.4223 47.4635 15.8823 21.6035C15.6356 17.3968 15.6689 13.1868 15.9823 8.97351C16.3123 4.58351 16.2423 0.203478 10.4423 1.12348C9.99383 1.19301 9.56466 1.35305 9.18117 1.59381C8.79767 1.83458 8.46795 2.15099 8.21228 2.5235C-0.0377202 14.5035 0.192279 33.2035 2.10228 46.9535C4.22228 62.2635 9.10228 76.7635 13.5323 91.5035C15.2323 97.1568 16.2789 101.47 16.6723 104.443C17.9823 114.233 16.7223 121.923 15.3323 133.443Z" stroke="#A5B5C0" stroke-width="2"/>
<path d="M33.1808 106.523C31.8708 99.8932 29.5308 83.7832 25.0208 79.0032C24.7942 78.7632 24.7208 78.8166 24.8008 79.1633L31.0808 107.163C31.1156 107.321 31.1796 107.469 31.269 107.598C31.3583 107.727 31.4712 107.834 31.6008 107.913C33.0075 108.8 33.5342 108.337 33.1808 106.523Z" stroke="#314258" stroke-width="2"/>
<path d="M42.8659 145.708C44.4837 144.65 45.5882 142.951 45.9363 140.986C46.2845 139.022 45.8478 136.952 44.7223 135.232C43.5968 133.512 41.8748 132.283 39.935 131.815C37.9952 131.348 35.9965 131.68 34.3787 132.738C32.7609 133.797 31.6564 135.496 31.3083 137.46C30.9602 139.425 31.3968 141.495 32.5223 143.215C33.6478 144.935 35.3698 146.164 37.3096 146.631C39.2494 147.099 41.2481 146.767 42.8659 145.708Z" stroke="#314258" stroke-width="2"/>
<path d="M55.6784 162.534C32.9984 179.264 12.5584 156.464 15.3284 133.444C16.7184 121.924 17.9784 114.234 16.6684 104.444C16.275 101.471 15.2284 97.1573 13.5284 91.504C9.09837 76.764 4.21837 62.264 2.09837 46.954C0.188373 33.204 -0.0416265 14.504 8.20837 2.52399C8.46405 2.15147 8.79376 1.83506 9.17726 1.5943C9.56076 1.35354 9.98993 1.19349 10.4384 1.12397C16.2384 0.203966 16.3084 4.584 15.9784 8.974C15.665 13.1873 15.6317 17.3973 15.8784 21.6039C17.4184 47.4639 35.4084 62.1339 47.8984 82.9839C57.085 98.3306 62.3884 115.111 63.8084 133.324C64.5584 143.044 64.3184 156.174 55.6784 162.534ZM33.1784 106.524C31.8684 99.894 29.5284 83.784 25.0184 79.004C24.7917 78.764 24.7184 78.8173 24.7984 79.164L31.0784 107.164C31.1131 107.322 31.1771 107.47 31.2665 107.599C31.3559 107.727 31.4688 107.835 31.5984 107.914C33.005 108.801 33.5317 108.337 33.1784 106.524ZM42.862 145.709C44.4798 144.65 45.5842 142.952 45.9324 140.987C46.2805 139.022 45.8438 136.952 44.7184 135.232C43.5929 133.512 41.8708 132.283 39.931 131.816C37.9912 131.348 35.9926 131.68 34.3748 132.739C32.757 133.798 31.6525 135.496 31.3044 137.461C30.9562 139.426 31.3929 141.496 32.5184 143.216C33.6438 144.936 35.3659 146.164 37.3057 146.632C39.2455 147.1 41.2441 146.768 42.862 145.709Z" fill="#4C6C83"/>
<path d="M33.1808 106.524C33.5342 108.337 33.0075 108.8 31.6008 107.914C31.4712 107.835 31.3583 107.727 31.269 107.598C31.1796 107.469 31.1156 107.322 31.0808 107.164L24.8008 79.1637C24.7208 78.8171 24.7942 78.7637 25.0208 79.0037C29.5308 83.7837 31.8708 99.8937 33.1808 106.524Z" fill="#15172D"/>
<path d="M32.5202 143.215C34.8638 146.797 39.4948 147.913 42.8638 145.709C46.2327 143.504 47.0639 138.814 44.7202 135.232C42.3765 131.65 37.7455 130.534 34.3766 132.739C31.0076 134.943 30.1765 139.634 32.5202 143.215Z" fill="#15172D"/>
</svg>
