<svg width="24" height="31" viewBox="0 0 24 31" fill="none" xmlns="http://www.w3.org/2000/svg">
<path d="M8.89581 13.3397C8.98247 14.9464 8.26578 16.6897 6.74578 18.5697L1.73577 24.7798C1.62886 24.9127 1.56411 25.0749 1.54986 25.2459C1.53562 25.4168 1.57257 25.5888 1.65582 25.7398C3.01582 28.1398 6.60578 25.2597 7.99578 24.2497C9.93578 22.8597 11.7357 22.7497 13.9257 22.1897C14.0506 22.1578 14.1923 22.175 14.3329 22.2391C14.4735 22.3032 14.6068 22.4113 14.7158 22.5498C16.5358 24.8898 18.6258 26.9731 20.9858 28.7998C22.2724 29.7931 22.8591 29.4731 22.7458 27.8397C22.4458 23.2897 19.5658 20.2297 16.9858 16.6997C16.8968 16.5764 16.8393 16.4335 16.8184 16.2835C16.7975 16.1336 16.8138 15.9812 16.8658 15.8397C17.4858 14.1397 25.7458 -2.10026 15.9858 6.76974C14.2924 8.31641 12.9725 8.22639 12.0258 6.49972C11.3758 5.30972 9.76581 1.98977 8.52581 1.54977C7.46581 1.16977 7.08246 1.6564 7.37579 3.00973C8.22246 6.96307 8.72914 10.4064 8.89581 13.3397Z" stroke="#9197AF" stroke-width="2"/>
<path d="M10.2258 15.6597C9.16583 15.8897 14.9558 21.0797 10.9558 15.9497C10.8659 15.8334 10.7493 15.7443 10.6199 15.6929C10.4904 15.6415 10.3537 15.63 10.2258 15.6597Z" stroke="#686E9F" stroke-width="2"/>
<path d="M8.89971 13.3397C8.73305 10.4064 8.22636 6.96307 7.37969 3.00973C7.08636 1.6564 7.46972 1.16977 8.52972 1.54977C9.76972 1.98977 11.3797 5.30972 12.0297 6.49972C12.9764 8.22639 14.2963 8.31641 15.9897 6.76974C25.7497 -2.10026 17.4897 14.1397 16.8697 15.8397C16.8177 15.9812 16.8014 16.1336 16.8223 16.2835C16.8432 16.4335 16.9007 16.5764 16.9897 16.6997C19.5697 20.2297 22.4497 23.2897 22.7497 27.8397C22.863 29.4731 22.2763 29.7931 20.9897 28.7998C18.6297 26.9731 16.5397 24.8898 14.7197 22.5498C14.6107 22.4113 14.4775 22.3032 14.3368 22.2391C14.1962 22.175 14.0545 22.1578 13.9296 22.1897C11.7396 22.7497 9.93969 22.8597 7.99969 24.2497C6.60969 25.2597 3.01972 28.1398 1.65972 25.7398C1.57647 25.5888 1.53952 25.4168 1.55377 25.2459C1.56801 25.0749 1.63276 24.9127 1.73968 24.7798L6.74969 18.5697C8.26969 16.6897 8.98638 14.9464 8.89971 13.3397ZM10.2297 15.6598C9.16967 15.8898 14.9597 21.0797 10.9597 15.9497C10.8697 15.8335 10.7531 15.7444 10.6237 15.693C10.4943 15.6415 10.3575 15.63 10.2297 15.6598Z" fill="#232F5F"/>
<path d="M10.9597 15.9497C14.9597 21.0797 9.16974 15.8897 10.2297 15.6597C10.3576 15.63 10.4943 15.6415 10.6238 15.6929C10.7532 15.7443 10.8698 15.8334 10.9597 15.9497Z" fill="#ADACDF"/>
</svg>
