<svg width="30" height="24" viewBox="0 0 30 24" fill="none" xmlns="http://www.w3.org/2000/svg">
<path d="M10.6473 22.0298C12.5873 22.5198 24.8474 15.2798 27.4374 13.9698C28.9707 13.1964 28.8807 12.4797 27.1674 11.8197C25.274 11.0931 23.2907 10.8464 21.2174 11.0797C19.7174 11.2464 19.054 10.5564 19.2274 9.00974L19.7874 4.03977C20.0074 2.02644 19.234 1.22975 17.4674 1.64975C15.5007 2.12309 13.8807 3.12309 12.6074 4.64975C12.5355 4.73616 12.4203 4.798 12.2751 4.8281C12.1299 4.85819 11.9608 4.85528 11.7874 4.81974C8.46736 4.08974 2.58737 1.52978 1.73737 4.98978C1.69763 5.15589 1.69239 5.32183 1.72211 5.4722C1.75184 5.62258 1.81555 5.75249 1.90735 5.84977L4.69739 8.81974C4.95036 9.08593 5.10854 9.39182 5.14734 9.68973C5.68734 13.2231 6.68734 16.6064 8.14734 19.8398C8.67401 21.0064 9.50734 21.7364 10.6473 22.0298Z" stroke="#FDA398" stroke-width="2"/>
<path d="M10.6473 22.0298C9.50734 21.7364 8.67401 21.0064 8.14734 19.8398C6.68734 16.6064 5.68734 13.2231 5.14734 9.68973C5.10854 9.39182 4.95036 9.08593 4.69739 8.81974L1.90735 5.84977C1.81555 5.75249 1.75184 5.62258 1.72211 5.4722C1.69239 5.32183 1.69763 5.15589 1.73737 4.98978C2.58737 1.52978 8.46736 4.08974 11.7874 4.81974C11.9608 4.85528 12.1299 4.85819 12.2751 4.8281C12.4203 4.798 12.5355 4.73616 12.6074 4.64975C13.8807 3.12309 15.5007 2.12309 17.4674 1.64975C19.234 1.22975 20.0074 2.02644 19.7874 4.03977L19.2274 9.00974C19.054 10.5564 19.7174 11.2464 21.2174 11.0797C23.2907 10.8464 25.274 11.0931 27.1674 11.8197C28.8807 12.4797 28.9707 13.1964 27.4374 13.9698C24.8474 15.2798 12.5873 22.5198 10.6473 22.0298Z" fill="#FB4630"/>
</svg>
