<svg width="26" height="23" viewBox="0 0 26 23" fill="none" xmlns="http://www.w3.org/2000/svg">
<path d="M5.72166 10.4575C2.01166 12.0875 -1.06833 20.3475 4.98167 17.6875C5.56167 17.4275 13.9917 12.8875 15.1717 14.2175C15.3959 14.4674 15.5145 14.773 15.5017 15.0675C15.4084 17.0741 15.935 18.8875 17.0817 20.5075C17.1982 20.6698 17.3529 20.8008 17.5323 20.8888C17.7118 20.9768 17.9104 21.0192 18.1109 21.0123C18.3113 21.0054 18.5074 20.9494 18.6819 20.8491C18.8564 20.7489 19.004 20.6075 19.1117 20.4375C20.7517 17.8508 21.1883 15.0641 20.4217 12.0775C20.3887 11.9536 20.3974 11.8155 20.4468 11.678C20.4961 11.5406 20.5843 11.409 20.7017 11.2975C22.4417 9.6508 23.6183 7.65746 24.2317 5.31746C24.261 5.20848 24.2334 5.0887 24.1548 4.98393C24.0763 4.87917 23.953 4.79782 23.8117 4.75746C22.125 4.28413 20.4384 4.23413 18.7517 4.60747C18.6297 4.63413 18.4938 4.61428 18.3606 4.55034C18.2274 4.4864 18.1027 4.38115 18.0017 4.24748C15.815 1.35415 13.4283 0.934138 10.8417 2.98747C8.71166 4.67747 5.65168 4.23746 5.05168 7.28746C4.99996 7.57688 5.05343 7.86908 5.20171 8.10747L6.27171 9.81746C6.29601 9.85567 6.30076 9.90335 6.28563 9.95738C6.2705 10.0114 6.2358 10.0706 6.18388 10.131C6.13197 10.1914 6.06395 10.2517 5.9843 10.308C5.90465 10.3642 5.81515 10.4152 5.72166 10.4575Z" stroke="#939598" stroke-width="2"/>
<path d="M10.2221 8.62745C9.83209 11.9674 15.6421 5.34745 10.7521 7.90745C10.6073 7.98127 10.4832 8.08555 10.3908 8.2111C10.2984 8.33665 10.2404 8.47962 10.2221 8.62745Z" stroke="#4E5257" stroke-width="2"/>
<path d="M6.27171 9.81795L5.20171 8.10795C5.05343 7.86957 4.99996 7.57737 5.05168 7.28795C5.65168 4.23795 8.71166 4.67796 10.8417 2.98796C13.4283 0.934626 15.815 1.35464 18.0017 4.24797C18.1027 4.38164 18.2274 4.48689 18.3606 4.55083C18.4938 4.61477 18.6297 4.63461 18.7517 4.60795C20.4384 4.23462 22.125 4.28462 23.8117 4.75795C23.953 4.79831 24.0763 4.87966 24.1548 4.98442C24.2334 5.08918 24.261 5.20897 24.2317 5.31795C23.6183 7.65795 22.4417 9.65129 20.7017 11.298C20.5843 11.4095 20.4961 11.5411 20.4468 11.6785C20.3974 11.816 20.3887 11.9541 20.4217 12.078C21.1883 15.0646 20.7517 17.8513 19.1117 20.4379C19.004 20.608 18.8564 20.7494 18.6819 20.8496C18.5074 20.9499 18.3113 21.0059 18.1109 21.0128C17.9104 21.0197 17.7118 20.9773 17.5323 20.8893C17.3529 20.8012 17.1982 20.6703 17.0817 20.5079C15.935 18.8879 15.4084 17.0746 15.5017 15.0679C15.5145 14.7735 15.3959 14.4679 15.1717 14.218C13.9917 12.888 5.56168 17.4279 4.98167 17.6879C-1.06833 20.3479 2.01166 12.088 5.72166 10.458C5.81515 10.4157 5.90465 10.3647 5.9843 10.3085C6.06395 10.2522 6.13197 10.1919 6.18388 10.1315C6.2358 10.0711 6.2705 10.0119 6.28563 9.95787C6.30076 9.90384 6.29601 9.85616 6.27171 9.81795ZM10.2217 8.62794C9.83167 11.9679 15.6417 5.34794 10.7517 7.90794C10.6069 7.98176 10.4828 8.08604 10.3904 8.21159C10.2979 8.33714 10.24 8.48011 10.2217 8.62794Z" fill="#262A31"/>
<path d="M10.7521 7.90794C15.6421 5.34794 9.83209 11.9679 10.2221 8.62794C10.2404 8.48011 10.2984 8.33714 10.3908 8.21159C10.4832 8.08604 10.6073 7.98175 10.7521 7.90794Z" fill="#76797D"/>
</svg>
