<svg width="124" height="126" viewBox="0 0 124 126" fill="none" xmlns="http://www.w3.org/2000/svg">
<path d="M1.44013 71.0551C4.07013 94.1051 24.8202 112.225 45.0302 120.465C75.4502 132.855 110.97 119.015 119.46 85.9051C125.56 62.1651 121.9 37.6651 105.67 18.4451C92.1101 2.36512 75.5801 -0.764875 55.6801 1.79512C41.0601 3.68512 32.8701 9.90512 22.8001 19.5751C7.41011 34.3751 -1.06987 49.0251 1.44013 71.0551Z" stroke="#FFE49E" stroke-width="2"/>
<path d="M83.4173 85.025C87.0373 85.625 90.9273 88.5751 93.8873 84.5051C97.2673 79.8584 99.724 76.1717 101.257 73.445C106.137 64.745 105.287 51.455 101.917 42.685C97.9173 32.275 89.1173 25.995 78.2273 23.225C64.9773 19.845 48.6373 21.6851 39.9273 33.0351C29.1573 47.0851 16.5873 73.635 31.4273 89.545C38.354 96.9717 46.4306 102.955 55.6573 107.495C57.3873 108.345 64.9473 111.065 63.9073 107.685C63.754 107.185 63.344 106.735 62.6773 106.335C53.504 100.875 45.7906 95.2784 39.5373 89.545C27.3373 78.355 29.7573 63.615 36.8673 50.545C43.6173 38.135 50.7073 27.775 66.3873 28.015C84.4973 28.285 98.7673 36.585 98.8173 57.125C98.8373 64.205 96.774 70.5384 92.6273 76.125C89.6073 80.185 90.1573 81.925 83.8873 80.245C81.5873 79.625 79.2606 79.1017 76.9073 78.675C76.6952 78.6365 76.4777 78.6395 76.2687 78.6838C76.0596 78.7281 75.8637 78.8127 75.6934 78.9322C75.523 79.0517 75.3821 79.2035 75.2794 79.3779C75.1768 79.5523 75.1147 79.7455 75.0973 79.945L74.4673 86.865C74.4438 87.1268 74.5127 87.3989 74.6656 87.6478C74.8184 87.8966 75.0485 88.1112 75.3273 88.265L83.2073 92.635C83.3202 92.6969 83.4193 92.7814 83.4977 92.8825C83.5761 92.9836 83.632 93.099 83.6615 93.2207C83.691 93.3424 83.6933 93.4675 83.6685 93.5874C83.6436 93.7072 83.592 93.819 83.5173 93.915C81.2707 96.8417 79.0173 99.9084 76.7573 103.115C72.7973 108.725 77.9873 108.115 80.2073 105.775C84.3007 101.475 87.9007 96.7517 91.0073 91.605C91.098 91.4525 91.1507 91.2864 91.1545 91.1411C91.1582 90.9958 91.1127 90.8826 91.0273 90.825L83.1773 85.695C82.2173 85.0684 82.2973 84.845 83.4173 85.025Z" stroke="#F8903F" stroke-width="2"/>
<path d="M77.6869 53.9951C70.7969 53.3051 60.2468 52.0551 56.0368 58.9251C52.3768 64.9051 50.2069 71.7217 49.5269 79.3751C48.5369 90.4451 63.1469 95.1551 70.7969 99.5151C71.0001 99.6322 71.2107 99.7104 71.3918 99.736C71.5728 99.7616 71.7127 99.733 71.7868 99.6551L75.1068 96.195C75.17 96.1287 75.2102 96.0455 75.2244 95.9517C75.2386 95.858 75.2263 95.7563 75.1886 95.6546C75.1508 95.553 75.0886 95.4541 75.0068 95.3657C74.9249 95.2773 74.8257 95.2018 74.7168 95.1451C69.8968 92.6151 59.9169 88.7351 57.1169 84.2151C54.0069 79.1951 57.7668 69.2951 60.4768 64.6851C64.3368 58.1251 73.8769 59.7451 80.4369 60.9351C82.9435 61.3884 84.2169 60.1117 84.2569 57.1051C84.4469 44.0351 67.8469 32.5951 55.8269 39.1751C46.3369 44.3751 41.1769 63.4951 39.5569 72.6251C39.0035 75.7651 40.1035 77.6484 42.8568 78.2751C42.9613 78.3002 43.0697 78.3043 43.1758 78.2872C43.2818 78.2701 43.3834 78.232 43.4746 78.1752C43.5658 78.1185 43.6448 78.0441 43.707 77.9566C43.7692 77.869 43.8134 77.7699 43.8369 77.6651C45.9769 68.4051 52.9268 40.9251 66.4668 43.8451C72.0602 45.0451 75.9069 48.2917 78.0069 53.5851C78.0267 53.6339 78.0334 53.6872 78.0261 53.7394C78.0188 53.7916 77.9979 53.841 77.9654 53.8826C77.933 53.9242 77.8901 53.9565 77.8412 53.9762C77.7923 53.996 77.7391 54.0025 77.6869 53.9951Z" stroke="#F8903F" stroke-width="2"/>
<path d="M67.0301 82.7652C67.2065 82.8872 67.4094 82.9653 67.6222 82.9933C67.835 83.0213 68.0517 82.9982 68.2545 82.926C68.4574 82.8539 68.6406 82.7346 68.7893 82.5781C68.938 82.4215 69.0478 82.2321 69.11 82.0252C69.7833 79.7985 70.0667 77.4818 69.9601 75.0752C69.8667 73.0018 70.8767 71.9952 72.99 72.0552C76.13 72.1485 79.2334 72.5052 82.3 73.1252C85.7667 73.8252 87.45 72.5519 87.35 69.3052C87.3406 69.0218 87.2461 68.7475 87.0786 68.5176C86.9111 68.2877 86.6782 68.1127 86.41 68.0152C78.59 65.1852 61.35 61.7252 62.97 76.6652C63.23 79.0318 64.5834 81.0652 67.0301 82.7652Z" stroke="#F8953D" stroke-width="2"/>
<path d="M45.0262 120.466C24.8162 112.226 4.06622 94.1056 1.43622 71.0556C-1.07378 49.0256 7.40621 34.3756 22.7962 19.5756C32.8662 9.90561 41.0562 3.68561 55.6762 1.79561C75.5762 -0.764387 92.1062 2.36561 105.666 18.4456C121.896 37.6656 125.556 62.1656 119.456 85.9056C110.966 119.016 75.4463 132.856 45.0262 120.466ZM83.4162 85.0256C87.0362 85.6256 90.9262 88.5756 93.8862 84.5056C97.2662 79.859 99.7229 76.1723 101.256 73.4456C106.136 64.7456 105.286 51.4556 101.916 42.6856C97.9162 32.2756 89.1162 25.9956 78.2262 23.2256C64.9762 19.8456 48.6362 21.6856 39.9262 33.0356C29.1562 47.0856 16.5862 73.6356 31.4262 89.5456C38.3529 96.9723 46.4295 102.956 55.6562 107.496C57.3862 108.346 64.9462 111.066 63.9062 107.686C63.7529 107.186 63.3429 106.736 62.6762 106.336C53.5029 100.876 45.7895 95.2789 39.5362 89.5456C27.3362 78.3556 29.7562 63.6156 36.8662 50.5456C43.6162 38.1356 50.7062 27.7756 66.3862 28.0156C84.4962 28.2856 98.7662 36.5856 98.8162 57.1256C98.8362 64.2056 96.7729 70.539 92.6262 76.1256C89.6062 80.1856 90.1562 81.9256 83.8862 80.2456C81.5862 79.6256 79.2595 79.1023 76.9062 78.6756C76.6941 78.6371 76.4766 78.6401 76.2676 78.6844C76.0586 78.7287 75.8626 78.8133 75.6923 78.9328C75.5219 79.0523 75.381 79.2041 75.2783 79.3785C75.1757 79.5529 75.1136 79.746 75.0962 79.9456L74.4662 86.8656C74.4427 87.1274 74.5116 87.3995 74.6645 87.6483C74.8173 87.8972 75.0474 88.1118 75.3262 88.2656L83.2062 92.6356C83.3191 92.6975 83.4182 92.7819 83.4966 92.883C83.5751 92.9842 83.6309 93.0995 83.6604 93.2212C83.6899 93.3429 83.6922 93.4681 83.6674 93.5879C83.6425 93.7078 83.5909 93.8196 83.5162 93.9156C81.2696 96.8423 79.0162 99.909 76.7562 103.116C72.7962 108.726 77.9862 108.116 80.2062 105.776C84.2996 101.476 87.8996 96.7523 91.0062 91.6056C91.097 91.4531 91.1497 91.2869 91.1534 91.1417C91.1571 90.9964 91.1116 90.8832 91.0262 90.8256L83.1762 85.6956C82.2162 85.0689 82.2962 84.8456 83.4162 85.0256ZM77.6862 53.9956C70.7962 53.3056 60.2462 52.0556 56.0362 58.9256C52.3762 64.9056 50.2062 71.7223 49.5262 79.3756C48.5362 90.4456 63.1462 95.1556 70.7962 99.5156C70.9994 99.6327 71.2101 99.711 71.3911 99.7366C71.5722 99.7622 71.7121 99.7335 71.7862 99.6556L75.1062 96.1956C75.1694 96.1293 75.2096 96.046 75.2238 95.9523C75.2379 95.8585 75.2257 95.7568 75.1879 95.6552C75.1502 95.5535 75.0879 95.4547 75.0061 95.3663C74.9243 95.2779 74.8251 95.2024 74.7162 95.1456C69.8962 92.6156 59.9162 88.7356 57.1162 84.2156C54.0062 79.1956 57.7662 69.2956 60.4762 64.6856C64.3362 58.1256 73.8762 59.7456 80.4362 60.9356C82.9429 61.389 84.2162 60.1123 84.2562 57.1056C84.4462 44.0356 67.8462 32.5956 55.8262 39.1756C46.3362 44.3756 41.1762 63.4956 39.5562 72.6256C39.0029 75.7656 40.1029 77.649 42.8562 78.2756C42.9606 78.3008 43.0691 78.3049 43.1751 78.2878C43.2812 78.2706 43.3827 78.2326 43.4739 78.1758C43.5651 78.119 43.6442 78.0447 43.7064 77.9571C43.7686 77.8695 43.8127 77.7704 43.8362 77.6656C45.9762 68.4056 52.9262 40.9256 66.4662 43.8456C72.0595 45.0456 75.9062 48.2923 78.0062 53.5856C78.0261 53.6345 78.0327 53.6877 78.0255 53.7399C78.0182 53.7922 77.9972 53.8416 77.9648 53.8832C77.9323 53.9247 77.8895 53.957 77.8406 53.9768C77.7917 53.9965 77.7384 54.003 77.6862 53.9956ZM67.0262 82.7656C67.2027 82.8876 67.4056 82.9658 67.6184 82.9937C67.8312 83.0217 68.0479 82.9986 68.2507 82.9265C68.4536 82.8543 68.6368 82.7351 68.7855 82.5785C68.9341 82.422 69.044 82.2325 69.1062 82.0256C69.7795 79.799 70.0629 77.4823 69.9562 75.0756C69.8629 73.0023 70.8729 71.9956 72.9862 72.0556C76.1262 72.149 79.2295 72.5056 82.2962 73.1256C85.7629 73.8256 87.4462 72.5523 87.3462 69.3056C87.3368 69.0222 87.2423 68.748 87.0748 68.5181C86.9072 68.2882 86.6744 68.1132 86.4062 68.0156C78.5862 65.1856 61.3462 61.7256 62.9662 76.6656C63.2262 79.0323 64.5796 81.0656 67.0262 82.7656Z" fill="#FFC940"/>
<path d="M83.4173 85.0255C82.2973 84.8455 82.2173 85.0688 83.1773 85.6955L91.0273 90.8255C91.1127 90.8831 91.1582 90.9963 91.1545 91.1416C91.1507 91.2868 91.098 91.453 91.0073 91.6055C87.9007 96.7522 84.3007 101.475 80.2073 105.775C77.9873 108.115 72.7973 108.726 76.7573 103.116C79.0173 99.9089 81.2707 96.8422 83.5173 93.9155C83.592 93.8195 83.6436 93.7077 83.6685 93.5878C83.6933 93.468 83.691 93.3428 83.6615 93.2211C83.632 93.0994 83.5761 92.9841 83.4977 92.8829C83.4193 92.7818 83.3202 92.6974 83.2073 92.6355L75.3273 88.2655C75.0485 88.1117 74.8184 87.8971 74.6656 87.6482C74.5127 87.3994 74.4438 87.1273 74.4673 86.8655L75.0973 79.9455C75.1147 79.7459 75.1768 79.5528 75.2794 79.3784C75.382 79.204 75.523 79.0522 75.6934 78.9327C75.8637 78.8132 76.0597 78.7286 76.2687 78.6843C76.4777 78.64 76.6952 78.637 76.9073 78.6755C79.2606 79.1022 81.5873 79.6255 83.8873 80.2455C90.1573 81.9255 89.6073 80.1855 92.6273 76.1255C96.774 70.5389 98.8373 64.2055 98.8173 57.1255C98.7673 36.5855 84.4973 28.2855 66.3873 28.0155C50.7073 27.7755 43.6173 38.1355 36.8673 50.5455C29.7573 63.6155 27.3373 78.3555 39.5373 89.5455C45.7906 95.2788 53.504 100.875 62.6773 106.335C63.344 106.735 63.754 107.186 63.9073 107.686C64.9473 111.066 57.3873 108.346 55.6573 107.496C46.4306 102.956 38.354 96.9722 31.4273 89.5455C16.5873 73.6355 29.1573 47.0855 39.9273 33.0355C48.6373 21.6855 64.9773 19.8455 78.2273 23.2255C89.1173 25.9955 97.9173 32.2755 101.917 42.6855C105.287 51.4555 106.137 64.7455 101.257 73.4455C99.724 76.1722 97.2673 79.8589 93.8873 84.5055C90.9273 88.5755 87.0373 85.6255 83.4173 85.0255Z" fill="#F0563D"/>
<path d="M78.0069 53.5856C75.9069 48.2922 72.0602 45.0456 66.4668 43.8456C52.9268 40.9256 45.9769 68.4055 43.8369 77.6655C43.8134 77.7704 43.7692 77.8695 43.707 77.957C43.6448 78.0446 43.5658 78.119 43.4746 78.1757C43.3834 78.2325 43.2818 78.2706 43.1758 78.2877C43.0697 78.3048 42.9613 78.3007 42.8568 78.2756C40.1035 77.6489 39.0035 75.7656 39.5569 72.6256C41.1769 63.4956 46.3369 44.3755 55.8269 39.1755C67.8469 32.5955 84.4469 44.0355 84.2569 57.1055C84.2169 60.1122 82.9435 61.3889 80.4369 60.9356C73.8769 59.7456 64.3368 58.1256 60.4768 64.6856C57.7668 69.2956 54.0069 79.1956 57.1169 84.2156C59.9169 88.7356 69.8968 92.6156 74.7168 95.1455C74.8257 95.2023 74.9249 95.2778 75.0068 95.3662C75.0886 95.4546 75.1508 95.5535 75.1886 95.6551C75.2263 95.7568 75.2386 95.8584 75.2244 95.9522C75.2102 96.0459 75.17 96.1292 75.1068 96.1955L71.7868 99.6556C71.7127 99.7335 71.5728 99.7621 71.3918 99.7365C71.2107 99.7109 71.0001 99.6327 70.7969 99.5155C63.1469 95.1555 48.5369 90.4456 49.5269 79.3756C50.2069 71.7222 52.3768 64.9055 56.0368 58.9255C60.2468 52.0555 70.7969 53.3056 77.6869 53.9956C77.7391 54.003 77.7923 53.9964 77.8412 53.9767C77.8901 53.957 77.933 53.9247 77.9654 53.8831C77.9979 53.8415 78.0188 53.7921 78.0261 53.7399C78.0334 53.6876 78.0267 53.6344 78.0069 53.5856Z" fill="#F0563D"/>
<path d="M67.0262 82.7657C64.5795 81.0657 63.2261 79.0323 62.9661 76.6657C61.3461 61.7257 78.5861 65.1857 86.4061 68.0157C86.6743 68.1132 86.9072 68.2882 87.0747 68.5181C87.2422 68.748 87.3367 69.0223 87.3461 69.3057C87.4461 72.5523 85.7628 73.8257 82.2961 73.1257C79.2294 72.5057 76.1261 72.149 72.9861 72.0557C70.8728 71.9957 69.8628 73.0023 69.9561 75.0757C70.0628 77.4823 69.7794 79.799 69.1061 82.0257C69.0439 82.2326 68.9341 82.422 68.7854 82.5786C68.6367 82.7351 68.4535 82.8544 68.2506 82.9265C68.0478 82.9987 67.8311 83.0217 67.6183 82.9938C67.4055 82.9658 67.2026 82.8877 67.0262 82.7657Z" fill="#F06039"/>
</svg>
