<svg width="91" height="95" viewBox="0 0 91 95" fill="none" xmlns="http://www.w3.org/2000/svg">
<path d="M10.0874 77.2728C3.54074 71.9394 0.194093 65.3628 0.047426 57.5428C-0.092574 49.9028 0.0773748 42.2661 0.557375 34.6328C1.42737 20.7328 1.5274 11.9228 12.3374 4.43275C16.3874 1.63275 24.4274 -0.317204 29.4574 0.0427964C50.3174 1.5428 72.0748 9.08559 80.5374 23.5428C89 38 88.4871 41.9152 89 49.2328C90 63.5 92 67.5455 86 77.2728C80 87 69.2374 91.4928 58.4174 94.0928C53.4874 95.2728 45.2874 95.1728 40.5174 93.3028C38.6174 92.5495 36.6841 91.8595 34.7174 91.2328C26.5107 88.6261 18.3007 83.9728 10.0874 77.2728ZM50.9074 48.9228C50.8774 54.5428 57.3374 57.8628 62.1274 58.3628C68.7207 59.0428 73.2407 56.4195 75.6874 50.4928C76.1807 49.3061 75.8008 48.8661 74.5474 49.1728C71.2941 49.9728 68.1507 50.9695 65.1174 52.1628C59.6474 54.3128 56.5074 50.7528 52.8774 47.4928C51.584 46.3195 50.9274 46.7961 50.9074 48.9228ZM15.4474 48.6928C19.4874 57.6828 28.1074 58.9828 36.6574 56.4828C39.2174 55.7328 40.7974 53.8028 40.8174 51.2028C40.8185 51.0412 40.783 50.8816 40.7136 50.7357C40.6442 50.5899 40.5427 50.4616 40.4166 50.3606C40.2906 50.2596 40.1433 50.1884 39.9858 50.1524C39.8284 50.1164 39.6648 50.1165 39.5074 50.1528C32.5874 51.7128 26.8674 54.0828 20.5274 49.2328C19.0674 48.1028 17.8374 47.7628 16.1374 47.6828C16.0138 47.6772 15.8906 47.7033 15.7798 47.7584C15.6691 47.8135 15.5744 47.8958 15.5051 47.9973C15.4357 48.0989 15.394 48.2163 15.3839 48.3381C15.3737 48.4599 15.3956 48.582 15.4474 48.6928Z" fill="#5AB6C1"/>
<path d="M62.1302 58.363C57.3402 57.863 50.8803 54.543 50.9103 48.923C50.9303 46.7963 51.5869 46.3196 52.8802 47.493C56.5102 50.753 59.6502 54.313 65.1202 52.163C68.1536 50.9696 71.2969 49.973 74.5503 49.173C75.8036 48.8663 76.1836 49.3063 75.6902 50.493C73.2436 56.4196 68.7236 59.043 62.1302 58.363Z" fill="#1B203C"/>
<path d="M36.6588 56.4824C28.1088 58.9824 19.4888 57.6824 15.4488 48.6924C15.397 48.5817 15.3751 48.4595 15.3852 48.3377C15.3953 48.2159 15.4371 48.0985 15.5064 47.9969C15.5758 47.8954 15.6704 47.8131 15.7812 47.758C15.892 47.7029 16.0151 47.6768 16.1388 47.6824C17.8388 47.7624 19.0688 48.1024 20.5288 49.2324C26.8688 54.0824 32.5888 51.7124 39.5088 50.1524C39.6662 50.1162 39.8297 50.116 39.9872 50.152C40.1447 50.188 40.292 50.2592 40.418 50.3602C40.544 50.4612 40.6456 50.5895 40.715 50.7353C40.7844 50.8812 40.8198 51.0409 40.8187 51.2024C40.7987 53.8024 39.2188 55.7324 36.6588 56.4824Z" fill="#1B203C"/>
</svg>
