<svg width="223" height="280" viewBox="0 0 223 280" fill="none" xmlns="http://www.w3.org/2000/svg">
<path d="M18.7545 68.1005C0.154545 51.3705 -8.87546 24.6305 11.9945 5.08049C15.2545 2.03049 19.7545 0.0404772 24.2445 0.000477236C35.9745 -0.0895228 40.6445 12.5704 32.2145 20.6604C29.0445 23.7005 23.4645 25.4405 19.0345 27.1805C17.2812 27.8671 16.2212 29.1338 15.8545 30.9805C13.0945 44.6505 26.6645 54.2005 35.6045 61.0805C48.6445 71.1105 58.5045 83.3905 65.5545 98.3105C67.7412 102.937 71.9112 114.657 78.0645 133.47C80.6645 141.42 91.4245 152.35 97.2645 138.65C105.804 118.61 115.925 92.2104 139.855 86.9604C147.275 85.3304 156.415 87.9305 163.105 90.2705C172.865 93.6805 176.635 100.34 179.485 111.021C186.815 138.51 183.285 167.56 177.665 194.97C175.525 205.41 174.395 215.84 172.435 226.26C170.175 238.29 169.925 253.45 181.255 260.59C187.075 264.25 197.655 263.91 199.465 255.68C200.415 251.35 195.295 247.44 194.045 243.53C191.435 235.34 200.015 228.6 207.355 228.88C210.861 229.014 213.978 230.507 216.704 233.36C225.134 242.18 224.035 257.581 217.465 266.831C207.945 280.211 191.635 282.26 177.125 276.68C166.515 272.6 162.344 265.91 157.645 255.16C151.335 240.72 150.855 228.17 151.785 211.41C152.758 193.744 154.781 176.207 157.855 158.8C159.055 151.98 159.794 146.41 160.074 142.09C160.604 133.74 161.835 122.22 159.365 114.56C157.205 107.89 151.825 101.18 144.495 100.46C132.595 99.2904 123.725 112.78 120.065 122.16C113.675 138.51 118.335 171.57 94.9345 176.53C76.8445 180.36 66.0845 160.95 63.1145 145.97C61.4245 137.46 61.0945 123.02 57.4645 113.85C49.8145 94.5105 33.0245 80.9305 18.7545 68.1005Z" fill="#151E30"/>
</svg>
