<svg width="62" height="64" viewBox="0 0 62 64" fill="none" xmlns="http://www.w3.org/2000/svg">
<path d="M46.3396 29.1714L59.5696 13.3914C60.7096 12.0314 61.1629 10.9814 60.9296 10.2414C60.7229 9.56803 60.2729 9.16471 59.5796 9.03138C59.2671 8.97157 58.9273 9.01945 58.5987 9.16962C58.2701 9.31979 57.9656 9.56629 57.7196 9.88137C53.4796 15.3014 40.7296 31.0914 34.2296 30.5714C34.104 30.5616 33.9817 30.5264 33.87 30.4679C33.7583 30.4094 33.6594 30.3287 33.5792 30.2308C33.499 30.1329 33.4391 30.0196 33.4031 29.8977C33.3671 29.7759 33.3557 29.6479 33.3696 29.5214C33.9496 24.4014 39.1396 18.1514 41.8896 13.7314C42.9029 12.1114 42.6762 11.278 41.2096 11.2314C41.0329 11.2252 40.8593 11.2583 40.7028 11.3278C40.5464 11.3973 40.4117 11.5013 40.3096 11.6314L35.8896 17.1914C34.8696 18.4647 34.2696 18.3147 34.0896 16.7414C33.4096 11.0114 33.8996 7.31137 30.5896 1.43137C30.5112 1.29339 30.3994 1.17992 30.2668 1.10389C30.1342 1.02786 29.9862 0.992344 29.8396 1.00138C28.3996 1.06138 27.9596 1.93803 28.5196 3.63137C31.0396 11.2647 31.2929 18.9814 29.2796 26.7814C29.1262 27.368 28.8896 27.4047 28.5696 26.8914C26.1296 23.0414 22.5796 18.7714 17.8896 17.7214C15.7696 17.2514 3.12956 12.6714 4.45956 17.7514C4.49587 17.8954 4.57165 18.0294 4.67996 18.1412C4.78827 18.253 4.92569 18.339 5.07959 18.3914C12.1096 20.7014 21.3596 20.5014 23.8796 29.1114C24.0929 29.8314 23.8463 30.0647 23.1396 29.8114C16.6929 27.518 10.1296 27.1214 3.44958 28.6214C0.636249 29.2547 0.246235 30.478 2.27957 32.2914C2.38506 32.3877 2.52108 32.4576 2.67712 32.4957C2.83316 32.5339 3.00506 32.5392 3.17956 32.5114C10.0862 31.438 16.9063 31.8814 23.6396 33.8414C24.6329 34.128 24.6462 34.5147 23.6796 35.0014C18.4396 37.6147 13.5229 40.8214 8.92956 44.6214C7.51956 45.7814 5.60956 46.7914 8.23956 48.5214C8.35864 48.6026 8.50175 48.6434 8.6488 48.6381C8.79585 48.6327 8.93947 48.5814 9.05957 48.4914C11.0996 46.9614 24.2096 37.9414 26.0096 39.0614C26.1232 39.1294 26.2029 39.2498 26.2342 39.4004C26.2654 39.551 26.246 39.7217 26.1796 39.8814C23.6662 45.8747 20.9896 51.7914 18.1496 57.6314C17.7162 58.5314 17.8829 59.2447 18.6496 59.7714C19.7162 60.498 20.7196 59.9747 21.6596 58.2014C24.7996 52.288 27.6296 46.2214 30.1496 40.0014C30.5229 39.0747 31.0362 39.0747 31.6896 40.0014C36.0962 46.248 38.9429 53.1614 40.2296 60.7414C40.5096 62.3547 41.1029 63.0714 42.0096 62.8914C43.1296 62.678 43.6129 61.8714 43.4596 60.4714C42.7796 54.1847 41.2662 48.1047 38.9196 42.2314C38.7596 41.8447 38.9063 41.7047 39.3596 41.8114C46.9396 43.598 52.3929 47.9447 55.7196 54.8514C55.8737 55.1665 56.1134 55.4026 56.3896 55.5114C57.2763 55.858 58.0596 55.7014 58.7396 55.0414C58.8203 54.9638 58.8736 54.8473 58.8931 54.7056C58.9125 54.564 58.8975 54.4029 58.8496 54.2414C56.1696 44.8714 48.4596 39.3914 39.3896 36.9314C39.3186 36.9112 39.2518 36.8786 39.1935 36.8356C39.1352 36.7927 39.0865 36.7404 39.0508 36.682C39.015 36.6236 38.9929 36.5605 38.9858 36.4967C38.9787 36.4329 38.9868 36.3698 39.0096 36.3114C39.6996 34.4914 55.5496 33.3214 57.8996 33.2614C59.9862 33.2014 60.6129 32.508 59.7796 31.1814C59.2062 30.268 58.3063 29.808 57.0796 29.8014L46.6496 29.7514C46.1162 29.7447 46.0129 29.5514 46.3396 29.1714Z" stroke="#8C8C9D" stroke-width="2"/>
<path d="M46.6496 29.7514L57.0796 29.8014C58.3063 29.808 59.2062 30.268 59.7796 31.1814C60.6129 32.508 59.9862 33.2014 57.8996 33.2614C55.5496 33.3214 39.6996 34.4914 39.0096 36.3114C38.9868 36.3698 38.9787 36.4329 38.9858 36.4967C38.9929 36.5605 39.015 36.6236 39.0508 36.682C39.0865 36.7404 39.1352 36.7927 39.1935 36.8356C39.2518 36.8786 39.3186 36.9112 39.3896 36.9314C48.4596 39.3914 56.1696 44.8714 58.8496 54.2414C58.8975 54.4029 58.9125 54.564 58.8931 54.7056C58.8736 54.8473 58.8203 54.9638 58.7396 55.0414C58.0596 55.7014 57.2762 55.858 56.3896 55.5114C56.1134 55.4026 55.8737 55.1665 55.7196 54.8514C52.3929 47.9447 46.9396 43.598 39.3596 41.8114C38.9062 41.7047 38.7596 41.8447 38.9196 42.2314C41.2663 48.1047 42.7796 54.1847 43.4596 60.4714C43.6129 61.8714 43.1296 62.678 42.0096 62.8914C41.1029 63.0714 40.5096 62.3547 40.2296 60.7414C38.9429 53.1614 36.0962 46.248 31.6896 40.0014C31.0362 39.0747 30.5229 39.0747 30.1496 40.0014C27.6296 46.2214 24.7996 52.288 21.6596 58.2014C20.7196 59.9747 19.7162 60.498 18.6496 59.7714C17.8829 59.2447 17.7162 58.5314 18.1496 57.6314C20.9896 51.7914 23.6662 45.8747 26.1796 39.8814C26.246 39.7217 26.2654 39.551 26.2342 39.4004C26.2029 39.2498 26.1232 39.1294 26.0096 39.0614C24.2096 37.9414 11.0996 46.9614 9.05957 48.4914C8.93947 48.5814 8.79585 48.6327 8.6488 48.6381C8.50175 48.6434 8.35864 48.6026 8.23956 48.5214C5.60956 46.7914 7.51956 45.7814 8.92956 44.6214C13.5229 40.8214 18.4396 37.6147 23.6796 35.0014C24.6462 34.5147 24.6329 34.128 23.6396 33.8414C16.9062 31.8814 10.0862 31.438 3.17956 32.5114C3.00506 32.5392 2.83316 32.5339 2.67712 32.4957C2.52108 32.4576 2.38506 32.3877 2.27957 32.2914C0.246235 30.478 0.636249 29.2547 3.44958 28.6214C10.1296 27.1214 16.6929 27.518 23.1396 29.8114C23.8463 30.0647 24.0929 29.8314 23.8796 29.1114C21.3596 20.5014 12.1096 20.7014 5.07959 18.3914C4.92569 18.339 4.78827 18.253 4.67996 18.1412C4.57165 18.0294 4.49587 17.8954 4.45956 17.7514C3.12956 12.6714 15.7696 17.2514 17.8896 17.7214C22.5796 18.7714 26.1296 23.0414 28.5696 26.8914C28.8896 27.4047 29.1262 27.368 29.2796 26.7814C31.2929 18.9814 31.0396 11.2647 28.5196 3.63137C27.9596 1.93803 28.3996 1.06138 29.8396 1.00138C29.9862 0.992344 30.1342 1.02786 30.2668 1.10389C30.3994 1.17992 30.5112 1.29339 30.5896 1.43137C33.8996 7.31137 33.4096 11.0114 34.0896 16.7414C34.2696 18.3147 34.8696 18.4647 35.8896 17.1914L40.3096 11.6314C40.4117 11.5013 40.5464 11.3973 40.7028 11.3278C40.8593 11.2583 41.0329 11.2252 41.2096 11.2314C42.6762 11.278 42.9029 12.1114 41.8896 13.7314C39.1396 18.1514 33.9496 24.4014 33.3696 29.5214C33.3557 29.6479 33.3671 29.7759 33.4031 29.8977C33.4391 30.0196 33.499 30.1329 33.5792 30.2308C33.6594 30.3287 33.7583 30.4094 33.87 30.4679C33.9817 30.5264 34.104 30.5616 34.2296 30.5714C40.7296 31.0914 53.4796 15.3014 57.7196 9.88137C57.9656 9.56629 58.2701 9.31979 58.5987 9.16962C58.9273 9.01945 59.2671 8.97157 59.5796 9.03138C60.2729 9.16471 60.7229 9.56804 60.9296 10.2414C61.1629 10.9814 60.7096 12.0314 59.5696 13.3914L46.3396 29.1714C46.0129 29.5514 46.1162 29.7447 46.6496 29.7514Z" fill="#19193B"/>
</svg>
