<svg width="219" height="220" viewBox="0 0 219 220" fill="none" xmlns="http://www.w3.org/2000/svg">
<path d="M27.2803 169.649C15.8603 166.019 9.78027 156.259 4.98027 146.079C1.52027 138.719 0.0102548 132.419 0.000254778 123.829C-0.0130786 111.842 0.49692 99.0053 1.53025 85.3186C2.74025 69.3386 8.27027 53.6086 16.2003 40.0386C27.3103 21.0386 49.5802 1.37861 72.3402 0.138611C81.1469 -0.341389 89.2903 0.425265 96.7703 2.4386C98.5903 2.93193 100.314 3.65526 101.94 4.6086C105.1 6.46193 106.197 9.0986 105.23 12.5186C104.16 16.3286 94.2203 19.3086 90.4903 19.8386C77.5169 21.7119 67.9636 28.3086 61.8303 39.6286C54.7903 52.6186 53.7903 63.0786 52.8403 81.1386C51.8103 100.739 63.2903 111.299 78.1703 121.549C88.0503 128.339 93.3602 136.559 85.4002 148.439C72.4902 167.699 49.6903 176.789 27.2803 169.649Z" fill="#151E30"/>
<path d="M135.72 115.509C122.58 123.489 94.8098 126.589 92.4298 104.089C88.7698 69.4891 115.36 40.0191 150.14 39.0091C158.97 38.7591 169.37 39.2191 177.5 42.3591C207.68 53.9991 219.53 82.2091 218.74 113.069C218.37 127.559 212.34 141.819 205.07 154.089C203.376 156.949 201.22 159.682 198.6 162.289C186.04 174.769 173.34 183.949 156.8 189.979C154.92 190.666 148.556 192.652 137.71 195.939C118.14 201.869 98.2398 207.109 78.9298 213.839C70.4898 216.786 64.6731 218.589 61.4797 219.249C59.0731 219.742 57.8497 218.622 57.8097 215.889C57.7764 214.002 58.4764 212.446 59.9097 211.219C65.5597 206.369 70.6597 204.329 79.4697 200.369C92.2897 194.596 103.166 190.266 112.1 187.379C134.74 180.069 148.38 176.309 163.73 168.999C174.54 163.849 189.22 153.039 194.23 141.309C200.876 125.722 202.036 109.489 197.71 92.6091C194.22 78.9691 184.08 69.5891 172.31 63.1191C164.81 58.9991 154.98 58.6091 146.66 59.2691C129.46 60.6291 110.35 74.7591 110.47 93.5691C110.55 106.129 120.09 107.699 130.28 104.979C132.713 104.326 134.406 104.052 135.36 104.159C142.56 104.959 140.16 112.809 135.72 115.509Z" fill="#151E30"/>
</svg>
