<svg width="281" height="344" viewBox="0 0 281 344" fill="none" xmlns="http://www.w3.org/2000/svg">
<path d="M174.714 134.635C173.794 139.305 177.594 143.115 182.134 142.075C187.694 140.795 189.424 132.675 196.404 133.655C208.304 135.315 216.544 135.835 226.434 138.035C228.327 138.455 228.834 139.485 227.954 141.125L220.864 154.355C219.817 156.301 220.224 157.901 222.084 159.155C225.414 161.395 227.354 159.965 229.634 157.185C237.394 147.745 243.417 139.391 247.704 132.125C252.134 124.595 237.514 125.255 234.194 125.385C222.494 125.851 210.324 124.071 197.684 120.045C187.004 116.635 188.614 109.915 191.634 100.855C194.381 92.6281 197.047 84.3714 199.634 76.0848C200.494 73.3348 200.124 69.6248 197.004 69.0348C195.451 68.7348 194.031 69.0514 192.744 69.9848C181.904 77.8748 171.104 84.9948 161.764 93.9848C159.944 95.7314 158.511 97.7947 157.464 100.175C157.329 100.483 157.311 100.819 157.414 101.115C158.174 103.361 159.674 104.595 161.914 104.815C166.644 105.285 175.104 92.2147 180.124 90.6747C184.194 89.4347 183.824 93.7948 183.204 96.3048C180.091 109.025 177.261 121.801 174.714 134.635Z" stroke="#A2B0BB" stroke-width="2"/>
<path d="M147.823 140.935C152.193 142.375 151.533 161.365 151.343 165.145C151.276 166.525 150.666 167.598 149.513 168.365C142.983 172.695 133.803 178.845 129.603 185.465C129.427 185.745 129.343 186.07 129.363 186.395C130.163 199.745 151.253 181.305 152.143 191.115C152.573 195.885 152.343 201.745 153.813 205.335C157.883 215.305 168.043 214.065 169.253 203.115C170.019 196.115 170.793 189.255 171.573 182.535C171.759 180.935 172.556 179.742 173.963 178.955C178.363 176.475 187.293 171.595 192.383 172.605C194.089 172.938 194.759 173.958 194.393 175.665C192.859 182.725 191.203 189.645 189.423 196.425C188.113 201.425 187.793 205.125 192.733 207.585C198.233 210.315 201.233 204.875 202.363 200.575C205.389 189.062 207.866 177.435 209.793 165.695C210.523 161.245 210.663 158.395 205.153 158.425C193.939 158.472 185.279 158.878 179.173 159.645C176.626 159.965 174.163 159.745 171.783 158.985C171.476 158.887 171.204 158.695 171.003 158.435C169.156 155.975 167.963 153.708 167.423 151.635C164.729 141.415 161.033 131.582 156.333 122.135C154.613 118.675 151.523 116.495 147.863 118.325C146.543 118.978 145.246 120.502 143.973 122.895C138.493 133.202 132.419 143.158 125.753 152.765C124.253 154.925 122.343 158.555 120.023 163.655C119.88 163.978 119.849 164.322 119.933 164.625C120.659 167.205 122.406 168.475 125.173 168.435C126.366 168.415 127.469 167.658 128.483 166.165L144.943 141.925C145.663 140.872 146.623 140.542 147.823 140.935Z" stroke="#A2B0BB" stroke-width="2"/>
<path d="M167.103 246.325C165.963 247.658 164.309 248.585 162.143 249.105C161.991 249.143 161.833 249.149 161.679 249.123C161.524 249.097 161.375 249.04 161.243 248.955C158.936 247.482 157.333 246.032 156.433 244.605C152.226 237.945 147.883 231.375 143.403 224.895C142.196 223.148 140.703 222.365 138.923 222.545L135.393 222.915C133.706 223.095 132.806 222.288 132.693 220.495C132.283 213.815 133.923 206.395 125.653 204.145C120.373 202.712 116.349 201.688 113.583 201.075C103.223 198.765 109.213 191.025 112.433 185.875C113.099 184.815 113.169 183.715 112.643 182.575C110.723 178.445 109.353 180.495 107.263 182.565C99.2826 190.512 92.4092 199.308 86.6426 208.955C84.4726 212.585 82.4726 218.005 87.8626 219.615C89.5826 220.122 91.2293 219.952 92.8026 219.105C96.8126 216.945 100.553 214.465 104.913 213.675C110.853 212.585 121.333 212.055 119.563 221.535C118.913 225.015 116.063 235.525 117.763 238.325C123.073 247.065 131.153 235.435 136.853 239.435C144.983 245.145 150.853 254.675 158.463 265.225C160.673 268.285 163.993 269.125 166.313 265.785C168.899 262.058 174.089 254.078 181.883 241.845C182.496 240.878 182.846 239.388 182.933 237.375C182.945 237.04 182.842 236.723 182.643 236.485C181.383 234.975 179.753 234.715 178.053 235.935C174.406 238.562 170.756 242.025 167.103 246.325Z" stroke="#A5B5C0" stroke-width="2"/>
<path d="M104.754 263.995C102.584 258.315 106.344 256.225 106.904 251.865C107.297 248.845 106.134 247.171 103.414 246.845C100.387 246.485 91.0572 246.425 75.4239 246.665C71.0839 246.725 70.0239 242.795 71.4939 239.255C72.7472 236.235 73.4173 233.178 73.5039 230.085C73.5118 229.846 73.4691 229.609 73.3787 229.388C73.2883 229.168 73.1522 228.968 72.9793 228.804C72.8065 228.64 72.6008 228.514 72.3758 228.435C72.1508 228.356 71.9116 228.325 71.6739 228.345C70.0339 228.485 68.7839 229.248 67.9239 230.635C63.4106 237.921 58.9239 245.211 54.4639 252.505C49.8439 260.065 56.8439 260.595 61.7339 259.175C66.5939 257.765 92.1539 249.615 84.5739 264.765C80.4672 272.985 75.2605 279.458 68.9539 284.185C64.3339 287.655 50.1039 298.895 60.9839 302.565C61.2894 302.669 61.618 302.676 61.9239 302.585C64.0172 301.985 65.9239 300.998 67.6439 299.625C80.6105 289.245 94.6406 280.595 109.734 273.675C112.794 272.265 117.604 271.395 114.924 277.415C112.857 282.048 110.874 286.708 108.974 291.395C106.054 298.585 114.544 300.755 117.294 295.805C120.414 290.185 123.664 283.101 127.044 274.555C129.284 268.905 135.344 255.255 124.884 257.075C123.357 257.341 121.474 257.971 119.234 258.965L106.424 264.645C106.268 264.714 106.099 264.753 105.929 264.758C105.759 264.762 105.591 264.733 105.435 264.673C105.279 264.612 105.138 264.52 105.021 264.404C104.904 264.287 104.813 264.148 104.754 263.995Z" stroke="#A2B0BB" stroke-width="2"/>
<path d="M36.7747 320.855C36.4171 320.653 36.1348 320.34 35.9706 319.965C35.8064 319.59 35.7693 319.172 35.8647 318.775C38.4747 307.545 41.1747 296.375 44.6647 285.495C45.8947 281.645 48.3748 272.805 42.1848 273.505C40.8781 273.651 39.3581 274.401 37.6248 275.755C24.3581 286.115 12.2814 298.591 1.39471 313.185C1.16303 313.497 1.02822 313.871 1.0069 314.26C0.985571 314.649 1.07866 315.037 1.27472 315.375C3.28805 318.841 5.87807 318.878 9.04474 315.485C14.9047 309.198 20.938 303.071 27.1447 297.105C28.6114 295.698 29.9914 295.498 31.2847 296.505C31.5854 296.737 31.8119 297.051 31.9362 297.41C32.0606 297.769 32.0774 298.156 31.9847 298.525C28.7314 311.351 25.2614 324.005 21.5747 336.485C21.0447 338.245 21.0548 341.255 22.7448 341.955C24.0248 342.495 25.1948 342.315 26.2548 341.415C32.3648 336.245 39.5847 329.615 46.9247 328.285C48.2781 328.038 49.5748 328.218 50.8148 328.825C56.8014 331.745 62.5914 334.891 68.1848 338.265C72.4148 340.825 75.5248 339.395 78.9948 336.455C85.8548 330.661 92.6281 324.771 99.3148 318.785C100.548 317.678 101.525 316.351 102.245 314.805C102.311 314.662 102.339 314.506 102.324 314.351C102.31 314.196 102.255 314.049 102.165 313.925C100.271 311.318 97.8581 311.141 94.9247 313.395C93.2581 314.681 88.3914 317.908 80.3247 323.075C74.1747 327.015 71.1948 324.845 64.5648 321.585C59.8914 319.291 55.418 316.628 51.1447 313.595C50.8683 313.401 50.5376 313.299 50.1999 313.304C49.8622 313.31 49.5348 313.422 49.2647 313.625C47.6347 314.845 38.5547 321.845 36.7747 320.855Z" stroke="#A2B0BB" stroke-width="2"/>
<path d="M182.13 142.075C177.59 143.115 173.79 139.305 174.71 134.635C177.257 121.802 180.087 109.025 183.2 96.3052C183.82 93.7952 184.19 89.4352 180.12 90.6752C175.1 92.2152 166.64 105.285 161.91 104.815C159.67 104.595 158.17 103.362 157.41 101.115C157.307 100.82 157.325 100.484 157.46 100.175C158.507 97.7952 159.94 95.7319 161.76 93.9853C171.1 84.9953 181.9 77.8753 192.74 69.9853C194.027 69.0519 195.447 68.7352 197 69.0352C200.12 69.6252 200.49 73.3352 199.63 76.0852C197.043 84.3719 194.377 92.6286 191.63 100.855C188.61 109.915 187 116.635 197.68 120.045C210.32 124.072 222.49 125.852 234.19 125.385C237.51 125.255 252.13 124.595 247.7 132.125C243.413 139.392 237.39 147.745 229.63 157.185C227.35 159.965 225.41 161.395 222.08 159.155C220.22 157.902 219.813 156.302 220.86 154.355L227.95 141.125C228.83 139.485 228.323 138.455 226.43 138.035C216.54 135.835 208.3 135.315 196.4 133.655C189.42 132.675 187.69 140.795 182.13 142.075Z" fill="#466179"/>
<path d="M147.819 140.935C146.619 140.542 145.659 140.872 144.939 141.925L128.479 166.165C127.465 167.659 126.362 168.415 125.169 168.435C122.402 168.475 120.656 167.205 119.929 164.625C119.845 164.322 119.877 163.979 120.019 163.655C122.339 158.555 124.249 154.925 125.749 152.765C132.416 143.159 138.489 133.202 143.969 122.895C145.242 120.502 146.539 118.979 147.859 118.325C151.519 116.495 154.609 118.675 156.329 122.135C161.029 131.582 164.725 141.415 167.419 151.635C167.959 153.709 169.152 155.975 170.999 158.435C171.201 158.696 171.473 158.888 171.779 158.985C174.159 159.745 176.622 159.965 179.169 159.645C185.275 158.879 193.935 158.472 205.149 158.425C210.659 158.395 210.519 161.245 209.789 165.695C207.862 177.435 205.385 189.062 202.359 200.575C201.229 204.875 198.229 210.315 192.729 207.585C187.789 205.125 188.109 201.425 189.419 196.425C191.199 189.645 192.855 182.725 194.389 175.665C194.755 173.959 194.085 172.939 192.379 172.605C187.289 171.595 178.359 176.475 173.959 178.955C172.552 179.742 171.756 180.935 171.569 182.535C170.789 189.255 170.015 196.115 169.249 203.115C168.039 214.065 157.879 215.305 153.809 205.335C152.339 201.745 152.569 195.885 152.139 191.115C151.249 181.305 130.159 199.745 129.359 186.395C129.339 186.07 129.423 185.745 129.599 185.465C133.799 178.845 142.979 172.695 149.509 168.365C150.662 167.599 151.272 166.525 151.339 165.145C151.529 161.365 152.189 142.375 147.819 140.935Z" fill="#466179"/>
<path d="M167.099 246.325C170.752 242.025 174.402 238.562 178.049 235.935C179.749 234.715 181.379 234.975 182.639 236.485C182.838 236.723 182.941 237.04 182.929 237.375C182.842 239.389 182.492 240.879 181.879 241.845C174.085 254.079 168.895 262.059 166.309 265.785C163.989 269.125 160.669 268.285 158.459 265.225C150.849 254.675 144.979 245.145 136.849 239.435C131.149 235.435 123.069 247.065 117.759 238.325C116.059 235.525 118.909 225.015 119.559 221.535C121.329 212.055 110.849 212.585 104.909 213.675C100.549 214.465 96.8087 216.945 92.7987 219.105C91.2254 219.952 89.5787 220.122 87.8587 219.615C82.4687 218.005 84.4687 212.585 86.6387 208.955C92.4053 199.309 99.2787 190.512 107.259 182.565C109.349 180.495 110.719 178.445 112.639 182.575C113.165 183.715 113.095 184.815 112.429 185.875C109.209 191.025 103.219 198.765 113.579 201.075C116.345 201.689 120.369 202.712 125.649 204.145C133.919 206.395 132.279 213.815 132.689 220.495C132.802 222.289 133.702 223.095 135.389 222.915L138.919 222.545C140.699 222.365 142.192 223.149 143.399 224.895C147.879 231.375 152.222 237.945 156.429 244.605C157.329 246.032 158.932 247.482 161.239 248.955C161.372 249.041 161.52 249.098 161.675 249.124C161.83 249.15 161.987 249.143 162.139 249.105C164.305 248.585 165.959 247.659 167.099 246.325Z" fill="#4C6C83"/>
<path d="M104.75 263.995C104.809 264.149 104.9 264.288 105.017 264.404C105.134 264.521 105.275 264.612 105.431 264.673C105.587 264.734 105.755 264.763 105.925 264.758C106.096 264.753 106.264 264.715 106.42 264.645L119.23 258.965C121.47 257.972 123.353 257.342 124.88 257.075C135.34 255.255 129.28 268.905 127.04 274.555C123.66 283.102 120.41 290.185 117.29 295.805C114.54 300.755 106.05 298.585 108.97 291.395C110.87 286.709 112.853 282.049 114.92 277.415C117.6 271.395 112.79 272.265 109.73 273.675C94.6367 280.595 80.6066 289.245 67.64 299.625C65.92 300.999 64.0133 301.985 61.92 302.585C61.6141 302.676 61.2855 302.669 60.98 302.565C50.1 298.895 64.33 287.655 68.95 284.185C75.2566 279.459 80.4633 272.985 84.57 264.765C92.15 249.615 66.59 257.765 61.73 259.175C56.84 260.595 49.84 260.065 54.46 252.505C58.92 245.212 63.4067 237.922 67.92 230.635C68.78 229.249 70.03 228.485 71.67 228.345C71.9077 228.325 72.1469 228.356 72.3719 228.435C72.5969 228.514 72.8026 228.64 72.9754 228.805C73.1483 228.969 73.2844 229.168 73.3748 229.389C73.4652 229.61 73.5079 229.847 73.5 230.085C73.4133 233.179 72.7433 236.235 71.49 239.255C70.02 242.795 71.08 246.725 75.42 246.665C91.0533 246.425 100.383 246.485 103.41 246.845C106.13 247.172 107.293 248.845 106.9 251.865C106.34 256.225 102.58 258.315 104.75 263.995Z" fill="#466179"/>
<path d="M36.7708 320.855C38.5508 321.845 47.6308 314.845 49.2608 313.625C49.5309 313.422 49.8583 313.31 50.196 313.305C50.5337 313.299 50.8644 313.401 51.1408 313.595C55.4141 316.628 59.8875 319.292 64.5609 321.585C71.1908 324.845 74.1708 327.015 80.3208 323.075C88.3875 317.908 93.2542 314.682 94.9208 313.395C97.8542 311.142 100.267 311.318 102.161 313.925C102.251 314.049 102.306 314.197 102.321 314.351C102.335 314.506 102.307 314.663 102.241 314.805C101.521 316.352 100.544 317.678 99.3109 318.785C92.6242 324.772 85.8508 330.662 78.9908 336.455C75.5208 339.395 72.4109 340.825 68.1808 338.265C62.5875 334.892 56.7975 331.745 50.8109 328.825C49.5709 328.218 48.2742 328.038 46.9208 328.285C39.5808 329.615 32.3609 336.245 26.2509 341.415C25.1909 342.315 24.0208 342.495 22.7408 341.955C21.0508 341.255 21.0408 338.245 21.5708 336.485C25.2575 324.005 28.7275 311.352 31.9808 298.525C32.0735 298.157 32.0567 297.769 31.9323 297.411C31.808 297.052 31.5815 296.737 31.2808 296.505C29.9875 295.498 28.6075 295.698 27.1408 297.105C20.9341 303.072 14.9008 309.198 9.04083 315.485C5.87417 318.878 3.28415 318.842 1.27081 315.375C1.07476 315.037 0.981665 314.65 1.00299 314.26C1.02432 313.871 1.15912 313.497 1.39081 313.185C12.2775 298.592 24.3542 286.115 37.6208 275.755C39.3542 274.402 40.8742 273.652 42.1808 273.505C48.3708 272.805 45.8908 281.645 44.6608 285.495C41.1708 296.375 38.4708 307.545 35.8608 318.775C35.7654 319.172 35.8025 319.59 35.9667 319.966C36.1309 320.341 36.4132 320.653 36.7708 320.855Z" fill="#466179"/>
<path d="M276.052 16.9446C259.402 -12.6854 213.502 2.40461 210.602 34.2046C209.782 43.1646 214.582 51.1646 216.892 59.2146C221.302 74.5246 207.852 81.3046 203.652 93.9446C200.482 103.525 209.842 110.035 218.132 105.095C222.432 102.541 225.559 99.0813 227.512 94.7146C232.172 84.2946 233.642 74.6846 241.822 66.6846C243.802 64.7513 247.249 62.3546 252.162 59.4946C267.272 50.7046 288.252 38.6346 276.052 16.9446Z" stroke="#A2B0BB" stroke-width="2"/>
<path d="M264.404 27.6266C263.76 23.215 261.086 19.2842 256.97 16.6988C252.853 14.1135 247.632 13.0854 242.454 13.8408C237.276 14.5961 232.566 17.0731 229.36 20.7266C226.154 24.3802 224.714 28.9112 225.357 33.3228C226.001 37.7343 228.675 41.6652 232.792 44.2505C236.908 46.8359 242.129 47.8639 247.307 47.1086C252.485 46.3532 257.195 43.8763 260.402 40.2227C263.608 36.5691 265.048 32.0381 264.404 27.6266Z" stroke="#A2B0BB" stroke-width="2"/>
<path d="M210.602 34.2051C213.502 2.4051 259.402 -12.6849 276.052 16.9451C288.252 38.6351 267.272 50.7051 252.162 59.4951C247.249 62.3551 243.802 64.7518 241.822 66.6851C233.642 74.6851 232.172 84.2951 227.512 94.7151C225.559 99.0818 222.432 102.542 218.132 105.095C209.842 110.035 200.482 103.525 203.652 93.9451C207.852 81.3051 221.302 74.5251 216.892 59.2151C214.582 51.1651 209.782 43.1651 210.602 34.2051ZM264.405 27.627C263.762 23.2154 261.087 19.2846 256.971 16.6992C252.855 14.1139 247.633 13.0858 242.455 13.8412C237.277 14.5966 232.567 17.0735 229.361 20.7271C226.155 24.3807 224.715 28.9116 225.359 33.3232C226.002 37.7348 228.676 41.6656 232.793 44.2509C236.909 46.8363 242.131 47.8644 247.308 47.109C252.486 46.3536 257.196 43.8767 260.403 40.2231C263.609 36.5695 265.049 32.0386 264.405 27.627Z" fill="#466179"/>
<path d="M247.306 47.1092C258.089 45.5362 265.743 36.8138 264.403 27.6271C263.063 18.4404 253.235 12.2683 242.453 13.8413C231.671 15.4143 224.016 24.1367 225.356 33.3234C226.697 42.51 236.524 48.6822 247.306 47.1092Z" fill="#FEFEFC"/>
</svg>
