<svg width="144" height="98" viewBox="0 0 144 98" fill="none" xmlns="http://www.w3.org/2000/svg">
<path d="M73.8679 41.0242C73.9618 41.0543 74.0474 41.1057 74.1182 41.1743C74.1889 41.243 74.2429 41.327 74.2758 41.4199C74.3087 41.5129 74.3196 41.6121 74.3079 41.71C74.2961 41.8079 74.2619 41.9017 74.2079 41.9842C69.9579 48.4342 62.6479 60.4442 66.1779 68.2442C68.6879 73.8142 73.9579 75.3642 79.5279 73.3342C89.1812 69.7942 98.4679 65.4742 107.388 60.3742C109.681 59.0608 112.145 58.2608 114.778 57.9742C115.838 57.8608 116.085 58.2575 115.518 59.1642C111.048 66.2842 104.328 72.8942 98.9379 79.4542C94.7279 84.5642 88.7879 93.6742 97.2779 96.3642C105.718 99.0242 128.078 85.3042 136.708 80.2542C138.398 79.2642 141.198 77.1342 141.888 74.9042C143.718 68.9142 138.048 68.1642 134.038 69.9242C131.538 71.0242 123.388 73.2042 126.328 67.1242C129.638 60.3142 134.908 51.5642 127.948 45.6742C123.118 41.5842 113.928 42.9642 109.068 45.5942C98.3679 51.3942 90.8613 55.0642 86.5479 56.6042C83.6546 57.6308 82.6012 56.7875 83.3879 54.0742C85.8079 45.7042 88.8479 38.8342 88.1079 29.2842C88.0816 28.9459 87.9592 28.6346 87.7579 28.3942C85.8912 26.1342 83.3912 25.3542 80.2579 26.0542C72.3379 27.8342 64.3546 30.2309 56.3079 33.2442C49.9779 35.6142 45.4379 36.8642 39.4179 37.4242C37.7846 37.5775 36.8513 36.8442 36.6179 35.2242C35.8079 29.6142 41.3279 21.3442 46.1279 13.7042C48.2779 10.2742 51.1879 2.92417 46.4279 1.16417C41.5379 -0.645826 13.4379 13.0442 7.70789 15.9942C4.01789 17.8942 -1.49213 21.3942 2.24787 25.4642C7.86787 31.5742 21.4479 17.0942 27.8979 20.0542C29.1179 20.6142 29.3179 21.4242 28.4979 22.4842C25.7479 26.0342 4.7779 52.3542 19.9079 52.0842C26.0579 51.9742 31.1079 50.6242 36.7079 49.3242C46.0679 47.1342 55.3879 43.9142 64.5779 41.0542C67.8779 40.0342 70.7979 40.0142 73.8679 41.0242Z" stroke="#8C8A91" stroke-width="2"/>
<path d="M30.6291 37.0044C29.6691 38.2844 27.5892 40.4844 31.2792 39.5744C31.4336 39.5357 31.5783 39.4655 31.704 39.3681C31.8297 39.2707 31.9335 39.1483 32.0089 39.0089C32.0843 38.8694 32.1294 38.716 32.1415 38.5585C32.1536 38.401 32.1324 38.2429 32.0792 38.0944C31.5992 36.721 31.1158 36.3577 30.6291 37.0044Z" stroke="#26243A" stroke-width="2"/>
<path d="M73.8679 41.0247C70.7979 40.0147 67.8779 40.0347 64.5779 41.0547C55.3879 43.9147 46.0679 47.1347 36.7079 49.3247C31.1079 50.6247 26.0579 51.9747 19.9079 52.0847C4.7779 52.3547 25.7479 26.0347 28.4979 22.4847C29.3179 21.4247 29.1179 20.6147 27.8979 20.0547C21.4479 17.0947 7.86787 31.5747 2.24787 25.4647C-1.49213 21.3947 4.01789 17.8947 7.70789 15.9947C13.4379 13.0447 41.5379 -0.645337 46.4279 1.16466C51.1879 2.92466 48.2779 10.2747 46.1279 13.7047C41.3279 21.3447 35.8079 29.6147 36.6179 35.2247C36.8513 36.8447 37.7846 37.578 39.4179 37.4247C45.4379 36.8647 49.9779 35.6147 56.3079 33.2447C64.3546 30.2313 72.3379 27.8347 80.2579 26.0547C83.3912 25.3547 85.8912 26.1347 87.7579 28.3947C87.9592 28.6351 88.0816 28.9464 88.1079 29.2847C88.8479 38.8347 85.8079 45.7047 83.3879 54.0747C82.6012 56.788 83.6546 57.6313 86.5479 56.6047C90.8613 55.0647 98.3679 51.3947 109.068 45.5947C113.928 42.9647 123.118 41.5847 127.948 45.6747C134.908 51.5647 129.638 60.3147 126.328 67.1247C123.388 73.2047 131.538 71.0247 134.038 69.9247C138.048 68.1647 143.718 68.9147 141.888 74.9047C141.198 77.1347 138.398 79.2647 136.708 80.2547C128.078 85.3047 105.718 99.0247 97.2779 96.3647C88.7879 93.6747 94.7279 84.5647 98.9379 79.4547C104.328 72.8947 111.048 66.2847 115.518 59.1647C116.085 58.258 115.838 57.8613 114.778 57.9747C112.145 58.2613 109.681 59.0613 107.388 60.3747C98.4679 65.4747 89.1812 69.7947 79.5279 73.3347C73.9579 75.3647 68.6879 73.8147 66.1779 68.2447C62.6479 60.4447 69.9579 48.4347 74.2079 41.9847C74.2619 41.9022 74.2961 41.8084 74.3079 41.7105C74.3196 41.6126 74.3087 41.5134 74.2758 41.4204C74.2429 41.3275 74.1889 41.2434 74.1182 41.1748C74.0474 41.1061 73.9618 41.0548 73.8679 41.0247ZM30.6279 37.0047C29.6679 38.2847 27.5879 40.4847 31.2779 39.5747C31.4323 39.536 31.577 39.4657 31.7027 39.3683C31.8284 39.2709 31.9323 39.1486 32.0076 39.0091C32.083 38.8697 32.1282 38.7163 32.1403 38.5588C32.1524 38.4013 32.1311 38.2432 32.0779 38.0947C31.5979 36.7213 31.1145 36.358 30.6279 37.0047Z" fill="#1A1526"/>
<path d="M30.6291 37.0049C31.1158 36.3582 31.5992 36.7215 32.0792 38.0949C32.1324 38.2434 32.1536 38.4015 32.1415 38.559C32.1294 38.7165 32.0843 38.8699 32.0089 39.0094C31.9335 39.1488 31.8297 39.2711 31.704 39.3685C31.5783 39.4659 31.4336 39.5362 31.2792 39.5749C27.5892 40.4849 29.6691 38.2849 30.6291 37.0049Z" fill="#31324D"/>
</svg>
