<svg width="129" height="155" viewBox="0 0 129 155" fill="none" xmlns="http://www.w3.org/2000/svg">
<path d="M39.8801 55.2127C35.3001 45.9427 32.6401 38.3427 25.1601 29.8527C23.1801 27.6127 20.2301 26.5927 21.6001 31.2327C25.0601 42.9127 28.5968 54.696 32.2101 66.5827C32.6968 68.176 32.2568 68.4927 30.8901 67.5327C29.9168 66.8461 28.8168 65.6494 27.5901 63.9427C21.2401 55.1427 13.1101 44.4627 3.31009 39.4327C1.77676 38.646 1.00676 39.1127 1.00009 40.8327C0.970093 48.7527 8.23009 58.9827 12.9701 65.0427C19.6101 73.5227 33.3701 86.3727 39.6801 100.263C41.3134 103.863 43.0901 109.433 45.0101 116.973C47.6968 127.526 50.6801 138.003 53.9601 148.403C54.8701 151.283 57.3901 158.043 60.3501 150.063C62.9901 142.936 64.2768 136.156 64.2101 129.723C64.0801 115.823 65.0301 101.413 75.6601 92.3927C82.7601 86.3627 129.47 68.0527 127.44 59.6227C126.52 55.7727 113.22 60.4727 108.71 62.1027C103.01 64.1561 97.2434 66.1061 91.4101 67.9527C89.5501 68.5394 88.8434 67.886 89.2901 65.9927C90.0401 62.8327 92.6801 59.9527 94.9301 57.2627C99.0568 52.3094 103.183 47.3461 107.31 42.3727C112.14 36.5427 115.65 33.1727 110.22 26.5727C109.3 25.4527 108.173 25.176 106.84 25.7427C98.3901 29.3727 91.1401 39.3127 84.7701 45.5627C83.4368 46.8761 82.8501 46.5994 83.0101 44.7327C84.2901 30.3027 83.8501 16.3627 78.6401 2.63273C78.0601 1.0994 77.0101 0.646046 75.4901 1.27271C73.7834 1.98605 72.2668 3.33938 70.9401 5.33271C62.7001 17.7594 58.5934 31.4427 58.6201 46.3827C58.6201 48.3127 58.3001 49.9927 57.8301 51.7527C57.4834 53.0527 56.9734 53.0261 56.3001 51.6727C55.5468 50.1727 55.0168 48.5961 54.7101 46.9427C52.8501 37.0294 50.9568 27.1227 49.0301 17.2227C48.7834 15.9494 48.1034 13.8094 46.9901 10.8027C45.8801 7.80271 43.3301 8.67272 42.6901 11.4027C39.5701 24.7427 40.7101 38.0127 41.1101 53.2227C41.1301 53.9494 40.9001 54.6361 40.4201 55.2827C40.3886 55.3255 40.3463 55.3586 40.2973 55.3791C40.2483 55.3995 40.1941 55.4066 40.14 55.3995C40.0859 55.3925 40.0336 55.3717 39.9881 55.339C39.9426 55.3063 39.9054 55.2628 39.8801 55.2127Z" stroke="#B8DAD7" stroke-width="2"/>
<path d="M40.424 55.2827C40.904 54.6361 41.134 53.9494 41.114 53.2227C40.714 38.0127 39.574 24.7427 42.694 11.4027C43.334 8.67272 45.884 7.80271 46.994 10.8027C48.1074 13.8094 48.7873 15.9494 49.034 17.2227C50.9607 27.1227 52.854 37.0294 54.714 46.9427C55.0207 48.5961 55.5507 50.1727 56.304 51.6727C56.9773 53.0261 57.4873 53.0527 57.834 51.7527C58.304 49.9927 58.624 48.3127 58.624 46.3827C58.5973 31.4427 62.704 17.7594 70.944 5.33271C72.2707 3.33938 73.7874 1.98605 75.494 1.27271C77.014 0.646046 78.064 1.0994 78.644 2.63273C83.854 16.3627 84.294 30.3027 83.014 44.7327C82.854 46.5994 83.4407 46.8761 84.774 45.5627C91.144 39.3127 98.394 29.3727 106.844 25.7427C108.177 25.176 109.304 25.4527 110.224 26.5727C115.654 33.1727 112.144 36.5427 107.314 42.3727C103.187 47.3461 99.0607 52.3094 94.934 57.2627C92.684 59.9527 90.044 62.8327 89.294 65.9927C88.8473 67.886 89.554 68.5394 91.414 67.9527C97.2473 66.1061 103.014 64.1561 108.714 62.1027C113.224 60.4727 126.524 55.7727 127.444 59.6227C129.474 68.0527 82.764 86.3627 75.664 92.3927C65.034 101.413 64.084 115.823 64.214 129.723C64.2807 136.156 62.994 142.936 60.354 150.063C57.394 158.043 54.874 151.283 53.964 148.403C50.684 138.003 47.7007 127.526 45.014 116.973C43.094 109.433 41.3174 103.863 39.684 100.263C33.374 86.3727 19.614 73.5227 12.974 65.0427C8.234 58.9827 0.973999 48.7527 1.004 40.8327C1.01067 39.1127 1.78066 38.646 3.314 39.4327C13.114 44.4627 21.244 55.1427 27.594 63.9427C28.8207 65.6494 29.9207 66.8461 30.894 67.5327C32.2607 68.4927 32.7007 68.176 32.214 66.5827C28.6007 54.696 25.064 42.9127 21.604 31.2327C20.234 26.5927 23.184 27.6127 25.164 29.8527C32.644 38.3427 35.304 45.9427 39.884 55.2127C39.9093 55.2628 39.9465 55.3063 39.992 55.339C40.0375 55.3717 40.0898 55.3925 40.1439 55.3995C40.198 55.4066 40.2522 55.3995 40.3012 55.3791C40.3502 55.3586 40.3925 55.3255 40.424 55.2827Z" fill="#72B5B0"/>
</svg>
