<svg width="121" height="83" viewBox="0 0 121 83" fill="none" xmlns="http://www.w3.org/2000/svg">
<path d="M7.42593 5.3916C-1.37407 9.8616 0.675929 24.0416 3.04593 31.1016C9.15593 49.3216 22.3159 67.5116 39.8359 75.9716C67.7659 89.4516 110.246 79.7716 119.036 46.2516C119.243 45.4449 119.276 44.4216 119.136 43.1816" stroke="#807E7C" stroke-width="2"/>
<path d="M119.136 43.1813C118.456 24.6713 99.9258 10.4013 83.7058 5.50126C76.2725 3.26126 67.6791 1.91459 57.9258 1.46126C42.9658 0.774594 30.1358 0.854594 19.4358 1.70126C15.4158 2.02126 11.4124 3.25126 7.42578 5.39126" stroke="#FEB7A6" stroke-width="2"/>
<path d="M119.136 43.1812L118.176 43.7212" stroke="#803A34" stroke-width="2"/>
<path d="M118.175 43.7212C110.142 44.1212 100.972 45.0378 90.6649 46.4712C81.3349 47.7712 87.9949 22.4812 75.6649 25.8312C69.7749 27.4312 64.4448 31.9612 58.1548 33.1612C57.8291 33.2261 57.4942 33.1912 57.1949 33.0612C53.7282 31.5412 50.9115 29.2112 48.7449 26.0712C46.1549 22.3012 42.8549 16.1712 38.4249 14.9112C31.7449 13.0212 22.8649 16.3712 16.7549 19.5712C15.0282 20.4845 13.6882 20.0878 12.7349 18.3812C10.9215 15.1278 9.41484 11.7278 8.21484 8.18115" stroke="#924F5C" stroke-width="2"/>
<path d="M8.21576 8.1816L7.42578 5.3916" stroke="#803A34" stroke-width="2"/>
<path d="M8.21508 8.18115C8.12175 9.10115 7.57513 9.40782 6.57513 9.10115C6.22537 8.99617 5.8479 9.0351 5.52551 9.20942C5.20311 9.38373 4.96205 9.67922 4.8551 10.0312C0.915097 23.2012 4.51513 33.0312 10.9551 44.9212C17.0885 56.2545 24.8918 65.0245 34.3651 71.2312C56.6051 85.7912 87.0151 82.4812 106.865 64.6212C113.685 58.4812 114.075 51.9812 118.385 45.5712C118.491 45.4127 118.565 45.2468 118.598 45.0905C118.632 44.9341 118.624 44.7928 118.575 44.6812L118.175 43.7212" stroke="#141732" stroke-width="2"/>
<path d="M119.136 43.1813L118.176 43.7213C110.142 44.1213 100.972 45.0379 90.6658 46.4713C81.3358 47.7713 87.9958 22.4813 75.6658 25.8313C69.7758 27.4313 64.4458 31.9613 58.1558 33.1613C57.83 33.2262 57.4951 33.1913 57.1958 33.0613C53.7291 31.5413 50.9125 29.2113 48.7458 26.0713C46.1558 22.3013 42.8558 16.1713 38.4258 14.9113C31.7458 13.0213 22.8658 16.3713 16.7558 19.5713C15.0291 20.4846 13.6891 20.0879 12.7358 18.3813C10.9224 15.1279 9.41576 11.7279 8.21576 8.18126L7.42578 5.39126C11.4124 3.25126 15.4158 2.02126 19.4358 1.70126C30.1358 0.854594 42.9658 0.774594 57.9258 1.46126C67.6791 1.91459 76.2725 3.26126 83.7058 5.50126C99.9258 10.4013 118.456 24.6713 119.136 43.1813Z" fill="#FE725E"/>
<path d="M7.42593 5.39111L8.21591 8.18111C8.12258 9.10111 7.57596 9.40778 6.57596 9.10111C6.2262 8.99613 5.84873 9.03506 5.52634 9.20938C5.20394 9.38369 4.96288 9.67918 4.85593 10.0311C0.915926 23.2011 4.51596 33.0311 10.956 44.9211C17.0893 56.2544 24.8926 65.0245 34.3659 71.2311C56.6059 85.7911 87.0159 82.4811 106.866 64.6211C113.686 58.4811 114.076 51.9811 118.386 45.5711C118.492 45.4127 118.566 45.2468 118.599 45.0904C118.633 44.934 118.625 44.7928 118.576 44.6811L118.176 43.7211L119.136 43.1811C119.276 44.4211 119.243 45.4444 119.036 46.2511C110.246 79.7711 67.7659 89.4511 39.8359 75.9711C22.3159 67.5111 9.15593 49.3211 3.04593 31.1011C0.675929 24.0411 -1.37407 9.86111 7.42593 5.39111Z" fill="#02010A"/>
<path d="M8.21508 8.18115C9.41508 11.7278 10.9218 15.1278 12.7351 18.3812C13.6884 20.0878 15.0285 20.4845 16.7551 19.5712C22.8651 16.3712 31.7451 13.0212 38.4251 14.9112C42.8551 16.1712 46.1551 22.3012 48.7451 26.0712C50.9118 29.2112 53.7285 31.5412 57.1951 33.0612C57.4944 33.1912 57.8293 33.2261 58.1551 33.1612C64.4451 31.9612 69.7751 27.4312 75.6651 25.8312C87.9951 22.4812 81.3351 47.7712 90.6651 46.4712C100.972 45.0378 110.142 44.1212 118.175 43.7212L118.575 44.6812C118.624 44.7928 118.632 44.9341 118.598 45.0905C118.565 45.2468 118.491 45.4127 118.385 45.5712C114.075 51.9812 113.685 58.4812 106.865 64.6212C87.0151 82.4812 56.6051 85.7912 34.3651 71.2312C24.8918 65.0245 17.0885 56.2545 10.9551 44.9212C4.51513 33.0312 0.915097 23.2012 4.8551 10.0312C4.96205 9.67922 5.20311 9.38373 5.52551 9.20942C5.8479 9.0351 6.22537 8.99617 6.57513 9.10115C7.57513 9.40782 8.12175 9.10115 8.21508 8.18115Z" fill="#252C59"/>
</svg>
