<svg width="39" height="39" viewBox="0 0 39 39" fill="none" xmlns="http://www.w3.org/2000/svg">
<path d="M6.55157 14.898C6.11157 14.998 -1.03843 14.678 1.57157 17.048C2.85824 18.2146 4.00491 19.5646 5.01157 21.098C5.09059 21.2141 5.12924 21.3547 5.12206 21.5C5.11489 21.6453 5.06224 21.788 4.97157 21.908C3.85157 23.358 1.14158 27.938 2.34158 29.708C4.63158 33.078 9.66157 27.128 10.9416 25.378C11.0497 25.2293 11.19 25.107 11.352 25.0201C11.514 24.9333 11.6936 24.8842 11.8773 24.8765C12.0609 24.8688 12.2439 24.9027 12.4127 24.9757C12.5814 25.0487 12.7314 25.1589 12.8516 25.298C15.7382 28.6246 18.1916 32.3146 20.2116 36.368C23.3116 42.588 22.4016 26.518 22.4016 26.378C22.4002 26.2902 22.4108 26.2027 22.4326 26.1211C22.4544 26.0394 22.4869 25.9653 22.5282 25.9034C22.5695 25.8415 22.6186 25.7931 22.6725 25.7612C22.7264 25.7293 22.784 25.7146 22.8416 25.718C25.6749 25.858 28.4149 26.4746 31.0616 27.568C32.7282 28.2546 33.5749 27.9113 33.6016 26.538C33.6816 22.828 24.6516 19.648 21.7116 18.158C20.7449 17.6713 20.7882 17.3113 21.8416 17.078C24.2016 16.548 36.5316 14.538 37.5916 13.468C40.4516 10.548 23.8816 10.068 22.9316 10.068C22.7562 10.0676 22.5833 10.0256 22.4274 9.94555C22.2714 9.86549 22.137 9.74968 22.0352 9.60777C21.9334 9.46586 21.8673 9.30197 21.8423 9.12979C21.8173 8.9576 21.8342 8.78212 21.8916 8.61797C22.3116 7.40797 26.4116 -0.0620308 22.3616 1.12797C21.463 1.3949 20.6819 1.90747 20.1216 2.59797L15.4116 8.37797C15.3267 8.48282 15.2188 8.56649 15.0956 8.62292C14.9723 8.67935 14.8369 8.70713 14.6991 8.70426C14.5613 8.70139 14.4246 8.66793 14.2987 8.60632C14.1729 8.5447 14.0612 8.45645 13.9716 8.34797C11.8016 5.65797 7.86157 0.99797 3.87157 1.59797C3.74226 1.61741 3.61931 1.66717 3.51296 1.74308C3.40662 1.819 3.31998 1.91888 3.26028 2.03437C3.20057 2.14986 3.16954 2.27762 3.16976 2.40698C3.16999 2.53634 3.20147 2.66355 3.26157 2.77798L7.94157 11.678C8.8349 13.378 8.37157 14.4513 6.55157 14.898Z" stroke="#8B8EA0" stroke-width="2"/>
<path d="M6.55547 14.898C8.37547 14.4513 8.83881 13.378 7.94547 11.678L3.26548 2.77798C3.20537 2.66355 3.17389 2.53634 3.17367 2.40698C3.17344 2.27762 3.20448 2.14986 3.26418 2.03437C3.32389 1.91888 3.41053 1.819 3.51687 1.74308C3.62321 1.66717 3.74617 1.61741 3.87548 1.59797C7.86548 0.99797 11.8055 5.65797 13.9755 8.34797C14.0651 8.45645 14.1768 8.5447 14.3027 8.60632C14.4285 8.66793 14.5652 8.70139 14.703 8.70426C14.8408 8.70713 14.9763 8.67935 15.0995 8.62292C15.2227 8.56649 15.3306 8.48282 15.4155 8.37797L20.1255 2.59797C20.6858 1.90747 21.4669 1.3949 22.3655 1.12797C26.4155 -0.0620308 22.3155 7.40797 21.8955 8.61797C21.8381 8.78212 21.8212 8.9576 21.8462 9.12979C21.8712 9.30197 21.9373 9.46586 22.0391 9.60777C22.1409 9.74967 22.2753 9.86549 22.4313 9.94555C22.5872 10.0256 22.7601 10.0676 22.9355 10.068C23.8855 10.068 40.4555 10.548 37.5955 13.468C36.5355 14.538 24.2055 16.548 21.8455 17.078C20.7921 17.3113 20.7488 17.6713 21.7155 18.158C24.6555 19.648 33.6855 22.828 33.6055 26.538C33.5788 27.9113 32.7321 28.2546 31.0655 27.568C28.4188 26.4746 25.6788 25.858 22.8455 25.718C22.7879 25.7146 22.7303 25.7293 22.6764 25.7612C22.6225 25.7931 22.5734 25.8415 22.5321 25.9034C22.4908 25.9653 22.4583 26.0394 22.4365 26.1211C22.4147 26.2027 22.4042 26.2902 22.4055 26.378C22.4055 26.518 23.3155 42.588 20.2155 36.368C18.1955 32.3146 15.7421 28.6246 12.8555 25.298C12.7353 25.1589 12.5853 25.0487 12.4166 24.9757C12.2478 24.9027 12.0648 24.8688 11.8812 24.8765C11.6975 24.8842 11.5179 24.9333 11.3559 25.0201C11.1939 25.107 11.0536 25.2293 10.9455 25.378C9.66547 27.128 4.63548 33.078 2.34548 29.708C1.14548 27.938 3.85547 23.358 4.97547 21.908C5.06615 21.788 5.11879 21.6453 5.12597 21.5C5.13315 21.3547 5.0945 21.2141 5.01548 21.098C4.00881 19.5646 2.86214 18.2146 1.57548 17.048C-1.03452 14.678 6.11547 14.998 6.55547 14.898Z" fill="#181D42"/>
</svg>
