<svg width="97" height="84" viewBox="0 0 97 84" fill="none" xmlns="http://www.w3.org/2000/svg">
<path d="M34.552 31.7102C34.4987 33.0569 33.7987 33.7603 32.4521 33.8203C24.0854 34.1803 15.7887 34.8202 7.56206 35.7402C6.66872 35.8402 4.85867 36.4903 2.132 37.6903C1.82235 37.8318 1.5807 38.0664 1.45207 38.3503C0.405406 40.7236 1.19206 42.2036 3.81206 42.7903C9.31206 44.0303 18.372 44.7802 23.002 47.5802C24.822 48.6736 25.252 50.1669 24.292 52.0602C21.4054 57.7669 18.5155 63.3203 15.6221 68.7203C14.0421 71.6503 14.4121 74.9502 18.8521 73.8102C20.2321 73.4569 21.5054 72.8169 22.672 71.8902L35.772 61.4702C37.2587 60.2836 38.0487 60.6336 38.142 62.5202C38.4287 68.2802 38.3654 74.0302 37.9521 79.7702C37.9262 80.1336 38.0068 80.4807 38.1821 80.7603C39.1887 82.3536 40.5254 82.9736 42.1921 82.6202C47.7921 81.4302 50.2821 69.0403 51.9421 64.4803C52.8821 61.8903 54.562 59.7003 57.282 62.2903C66.572 71.1103 78.1821 84.4903 84.7421 82.6703C90.8621 80.9703 86.6721 74.5702 84.7021 71.6202C80.7554 65.7402 76.7487 59.8002 72.6821 53.8002C72.4055 53.3962 72.2534 52.9197 72.2446 52.4294C72.2357 51.939 72.3703 51.4561 72.632 51.0403C76.362 45.0603 91.8921 51.4502 94.9821 44.4902C97.9221 37.8702 77.7621 35.5302 73.8721 34.3902C72.3454 33.9369 71.7154 32.9269 71.9821 31.3602C73.4821 22.5502 77.2621 14.0603 80.5921 5.79026C81.5854 3.33692 81.1654 1.93691 79.3321 1.59024C76.2721 1.01024 73.6121 4.08024 71.8521 6.33024C67.3988 11.9769 63.042 17.6969 58.782 23.4902C55.812 27.5202 49.542 31.6202 46.752 24.3002C46.0387 22.4269 43.632 16.6869 39.532 7.08024C38.4787 4.6069 37.0088 2.68358 35.1221 1.31025C34.8549 1.11483 34.5371 1.00658 34.2121 1.00025C30.5054 0.973582 29.0854 3.09357 29.9521 7.36023C32.1121 18.0102 34.732 26.8402 34.552 31.7102Z" stroke="#FFDD9D" stroke-width="2"/>
<path d="M34.5481 31.7107C34.7281 26.8407 32.1082 18.0107 29.9482 7.36072C29.0815 3.09406 30.5015 0.97407 34.2082 1.00074C34.5332 1.00707 34.851 1.11532 35.1182 1.31073C37.0049 2.68407 38.4748 4.60739 39.5281 7.08072C43.6281 16.6874 46.0348 22.4274 46.7481 24.3007C49.5381 31.6207 55.8081 27.5207 58.7781 23.4907C63.0381 17.6974 67.3949 11.9774 71.8482 6.33072C73.6082 4.08072 76.2682 1.01073 79.3282 1.59073C81.1615 1.9374 81.5815 3.33741 80.5882 5.79075C77.2582 14.0607 73.4782 22.5507 71.9782 31.3607C71.7115 32.9274 72.3415 33.9374 73.8682 34.3907C77.7582 35.5307 97.9182 37.8707 94.9782 44.4907C91.8882 51.4507 76.3581 45.0607 72.6281 51.0407C72.3664 51.4566 72.2318 51.9395 72.2406 52.4298C72.2495 52.9202 72.4016 53.3967 72.6781 53.8007C76.7448 59.8007 80.7515 65.7407 84.6982 71.6207C86.6682 74.5707 90.8582 80.9708 84.7382 82.6708C78.1782 84.4908 66.5681 71.1107 57.2781 62.2907C54.5581 59.7007 52.8782 61.8907 51.9382 64.4807C50.2782 69.0407 47.7882 81.4307 42.1882 82.6207C40.5215 82.9741 39.1848 82.3541 38.1781 80.7607C38.0029 80.4812 37.9223 80.1341 37.9482 79.7707C38.3615 74.0307 38.4248 68.2807 38.1381 62.5207C38.0448 60.6341 37.2548 60.2841 35.7681 61.4707L22.6681 71.8907C21.5015 72.8174 20.2282 73.4574 18.8482 73.8107C14.4082 74.9507 14.0382 71.6507 15.6182 68.7207C18.5115 63.3207 21.4015 57.7674 24.2881 52.0607C25.2481 50.1674 24.8181 48.6741 22.9981 47.5807C18.3681 44.7807 9.30815 44.0307 3.80815 42.7907C1.18815 42.2041 0.4015 40.7241 1.44817 38.3507C1.57679 38.0669 1.81845 37.8323 2.1281 37.6907C4.85476 36.4907 6.66482 35.8407 7.55815 35.7407C15.7848 34.8207 24.0815 34.1807 32.4482 33.8207C33.7948 33.7607 34.4948 33.0574 34.5481 31.7107Z" fill="#FFBC3D"/>
</svg>
