<svg width="34" height="33" viewBox="0 0 34 33" fill="none" xmlns="http://www.w3.org/2000/svg">
<path d="M1.00264 18.4039C0.650799 36.1639 35.5538 35.5639 32.6887 17.2239C29.1803 -5.28608 1.45501 -3.88608 1.00264 18.4039Z" stroke="#94979B" stroke-width="2"/>
<path d="M14.891 18.098C14.7569 17.895 14.5748 17.7262 14.3551 17.6012C14.1353 17.4762 13.8822 17.3976 13.6103 17.3698C13.3384 17.3419 13.0529 17.3654 12.7702 17.4389C12.4875 17.5124 12.2131 17.6344 11.9626 17.7981C11.4568 18.1286 11.0793 18.6086 10.9131 19.1323C10.7469 19.656 10.8056 20.1806 11.0764 20.5906C11.2105 20.7937 11.3926 20.9625 11.6123 21.0875C11.832 21.2124 12.0851 21.2911 12.357 21.3189C12.629 21.3468 12.9144 21.3233 13.1971 21.2498C13.4799 21.1763 13.7543 21.0542 14.0047 20.8905C14.5106 20.56 14.8881 20.0801 15.0543 19.5564C15.2205 19.0327 15.1617 18.5081 14.891 18.098Z" stroke="#94979B" stroke-width="2"/>
<path d="M32.6887 17.2239C35.5537 35.5639 0.650799 36.1639 1.00264 18.4039C1.45501 -3.88608 29.1803 -5.28608 32.6887 17.2239ZM14.8927 18.0976C14.7586 17.8946 14.5765 17.7258 14.3568 17.6008C14.1371 17.4759 13.884 17.3972 13.6121 17.3694C13.3401 17.3415 13.0547 17.365 12.772 17.4385C12.4893 17.512 12.2149 17.634 11.9644 17.7977C11.4586 18.1282 11.081 18.6082 10.9148 19.1319C10.7486 19.6556 10.8074 20.1802 11.0782 20.5903C11.2122 20.7933 11.3943 20.9621 11.614 21.0871C11.8338 21.212 12.0869 21.2907 12.3588 21.3185C12.6307 21.3464 12.9162 21.3229 13.1989 21.2494C13.4816 21.1759 13.756 21.0538 14.0065 20.8901C14.5123 20.5596 14.8898 20.0797 15.056 19.556C15.2222 19.0323 15.1635 18.5077 14.8927 18.0976Z" fill="#293546"/>
<path d="M15.7681 18.0975C16.0374 18.5076 16.0959 19.0322 15.9305 19.5559C15.7652 20.0796 15.3896 20.5595 14.8865 20.89C14.6373 21.0537 14.3644 21.1758 14.0831 21.2493C13.8019 21.3228 13.5179 21.3463 13.2474 21.3184C12.9769 21.2906 12.7252 21.2119 12.5066 21.087C12.288 20.962 12.1069 20.7932 11.9735 20.5902C11.7041 20.1801 11.6457 19.6555 11.811 19.1318C11.9764 18.6081 12.3519 18.1281 12.8551 17.7976C13.1042 17.6339 13.3772 17.5119 13.6584 17.4384C13.9397 17.3649 14.2236 17.3414 14.4941 17.3693C14.7646 17.3971 15.0164 17.4757 15.235 17.6007C15.4536 17.7257 15.6347 17.8945 15.7681 18.0975Z" fill="#FEF8F0"/>
</svg>
