<svg width="37" height="78" viewBox="0 0 37 78" fill="none" xmlns="http://www.w3.org/2000/svg">
<path d="M4.73192 14.8037C0.158586 15.6837 -0.2114 17.0037 3.62193 18.7637" stroke="#9297A0" stroke-width="2"/>
<path d="M3.625 18.7637C4.09167 23.677 5.32501 28.4104 7.32501 32.9637" stroke="#D0E1DB" stroke-width="2"/>
<path d="M7.32352 32.9639C4.32352 34.3905 4.2935 35.6705 7.2335 36.8039" stroke="#8E9197" stroke-width="2"/>
<path d="M7.23438 36.8037C9.86104 41.557 11.6744 46.447 12.6744 51.4737" stroke="#D1E4DF" stroke-width="2"/>
<path d="M12.6725 51.4736C9.15249 52.9636 12.1225 55.1136 13.7125 55.6936" stroke="#90989B" stroke-width="2"/>
<path d="M30.0744 56.3136C33.7277 55.4336 33.6977 54.1536 29.9844 52.4736" stroke="#90989B" stroke-width="2"/>
<path d="M29.9844 52.4737L31.2344 37.8037" stroke="#D1E4DF" stroke-width="2"/>
<path d="M31.2344 37.8036C34.141 37.1703 34.341 35.977 31.8344 34.2236" stroke="#8E9197" stroke-width="2"/>
<path d="M31.8321 34.2237C31.2388 29.877 31.3721 25.5704 32.2321 21.3037" stroke="#D0E1DB" stroke-width="2"/>
<path d="M32.2336 21.3038C40.6836 18.1438 29.9236 17.8038 28.9336 17.6738" stroke="#9297A0" stroke-width="2"/>
<path d="M28.9344 17.6737C25.9244 13.6037 17.6044 1.41364 12.7244 1.00364C12.5665 0.991048 12.4078 1.01122 12.2581 1.06284C12.1084 1.11446 11.9709 1.19645 11.8544 1.30366C7.8277 4.91032 5.45438 9.41032 4.73438 14.8037" stroke="#CCE2DD" stroke-width="2"/>
<path d="M28.9344 17.6737L4.73438 14.8037" stroke="#5F7C8A" stroke-width="2"/>
<path d="M32.235 21.3037C22.635 20.6437 14.585 19.0737 3.625 18.7637" stroke="#647B88" stroke-width="2"/>
<path d="M31.8342 34.2238C23.4875 34.2372 15.3176 33.8172 7.32422 32.9639" stroke="#60757F" stroke-width="2"/>
<path d="M31.2344 37.8037C23.2544 37.0771 15.2544 36.7437 7.23438 36.8037" stroke="#617883" stroke-width="2"/>
<path d="M29.9858 52.4736L12.6758 51.4736" stroke="#637F87" stroke-width="2"/>
<path d="M30.0749 56.3138L13.7148 55.6938" stroke="#637F87" stroke-width="2"/>
<path d="M28.9344 17.6741L4.73438 14.8041C5.45438 9.41081 7.8277 4.91081 11.8544 1.30414C11.9709 1.19693 12.1084 1.11495 12.2581 1.06333C12.4078 1.01171 12.5665 0.991537 12.7244 1.00413C17.6044 1.41413 25.9244 13.6041 28.9344 17.6741Z" fill="#99C6C6"/>
<path d="M4.73583 14.8042L28.9358 17.6742C29.9258 17.8042 40.6858 18.1442 32.2358 21.3042C22.6358 20.6442 14.5858 19.0742 3.62584 18.7642C-0.207494 17.0042 0.162492 15.6842 4.73583 14.8042Z" fill="#25314D"/>
<path d="M3.625 18.7642C14.585 19.0742 22.635 20.6442 32.235 21.3042C31.375 25.5708 31.2416 29.8775 31.835 34.2242C23.4883 34.2375 15.3183 33.8175 7.32501 32.9642C5.32501 28.4108 4.09167 23.6775 3.625 18.7642Z" fill="#A2C5C3"/>
<path d="M7.32352 32.9644C15.3169 33.8177 23.4868 34.2377 31.8335 34.2243C34.3401 35.9777 34.1402 37.171 31.2335 37.8044C23.2535 37.0777 15.2535 36.7444 7.2335 36.8044C4.2935 35.671 4.32352 34.391 7.32352 32.9644Z" fill="#1D253A"/>
<path d="M7.23438 36.8042C15.2544 36.7442 23.2544 37.0776 31.2344 37.8042L29.9844 52.4742L12.6744 51.4742C11.6744 46.4475 9.86104 41.5576 7.23438 36.8042Z" fill="#A4CBCB"/>
<path d="M29.9825 52.4741C33.6958 54.1541 33.7258 55.4341 30.0725 56.3141L13.7125 55.6941C12.1225 55.1141 9.15249 52.9641 12.6725 51.4741L29.9825 52.4741Z" fill="#213242"/>
<path d="M13.7148 55.6938C16.4548 62.9938 20.1615 69.5905 24.8348 75.4839C26.2082 77.2239 26.9915 76.9872 27.1849 74.7739C27.7315 68.5072 28.6949 62.3538 30.0749 56.3138" stroke="#D1E4DF" stroke-width="2"/>
<path d="M30.0749 56.3143C28.6949 62.3543 27.7315 68.5077 27.1849 74.7744C26.9915 76.9877 26.2082 77.2243 24.8348 75.4843C20.1615 69.591 16.4548 62.9943 13.7148 55.6943L30.0749 56.3143Z" fill="#A4CBCB"/>
</svg>
