<svg width="82" height="96" viewBox="0 0 82 96" fill="none" xmlns="http://www.w3.org/2000/svg">
<path d="M17.6289 83.25C18.4222 84.5033 19.5323 85.5033 20.9589 86.25" stroke="#D9948E" stroke-width="2"/>
<path d="M20.9609 86.25L27.7509 89.84C28.0042 89.9733 28.2476 90.1867 28.4809 90.48C29.3809 91.6 30.5409 91.8567 31.9609 91.25" stroke="#FCF6E9" stroke-width="2"/>
<path d="M31.9609 91.25C33.0143 93.6167 34.8009 94.35 37.3209 93.45" stroke="#E69891" stroke-width="2"/>
<path d="M37.3203 93.4498C43.547 92.6564 49.6103 91.1164 55.5103 88.8297C55.7903 88.7164 56.1103 88.6798 56.4703 88.7198L68.0003 89.9597" stroke="#FCF6E9" stroke-width="2"/>
<path d="M68 89.96L69.5 90.46" stroke="#E9B2A7" stroke-width="2"/>
<path d="M69.5005 90.4597C70.3138 90.3997 70.8271 90.703 71.0405 91.3697C71.1495 91.7031 71.3394 91.9647 71.5705 92.0997C72.0305 92.3697 76.8805 96.1997 76.4805 93.7597C75.2805 86.4797 72.2205 77.5497 71.8205 70.0197C71.5205 64.1797 71.8972 58.3497 72.9505 52.5297C72.9897 52.3087 73.053 52.1088 73.1339 51.9505C73.2147 51.7922 73.3102 51.6815 73.4105 51.6297L76.7105 49.9997C76.8562 49.9267 76.98 49.818 77.0695 49.6846C77.159 49.5512 77.2111 49.3977 77.2205 49.2397C77.2938 47.9463 77.8105 46.873 78.7705 46.0196C78.979 45.834 79.1664 45.6521 79.2986 45.5071C79.4307 45.3621 79.4988 45.2637 79.4905 45.2297C79.4305 44.523 79.6205 43.873 80.0605 43.2797C80.1358 43.1769 80.1508 43.0348 80.1022 42.8836C80.0537 42.7324 79.9454 42.5839 79.8005 42.4697C78.3271 41.2963 77.3538 39.823 76.8805 38.0496C76.8104 37.7799 76.5958 37.5045 76.2805 37.2797C72.4405 34.5197 71.0505 30.5397 68.7505 26.6297C68.5814 26.3495 68.5012 26.0252 68.5205 25.6997C68.7005 21.2397 69.6805 15.0797 67.3705 11.2197C67.2036 10.944 67.1497 10.6209 67.2205 10.3197C68.0205 6.90967 66.6905 -0.850338 61.4705 2.21966C51.4105 8.15966 42.5805 13.6696 34.4805 21.5796C28.9105 27.0196 20.0505 28.1397 12.2405 28.2297C8.34715 28.283 4.79718 29.843 1.59052 32.9097C1.47687 33.0169 1.38631 33.1476 1.3244 33.2938C1.2625 33.4399 1.23051 33.5985 1.23047 33.7597C1.25714 39.5397 1.26382 45.3263 1.25049 51.1197C1.23049 57.0097 2.60052 61.8396 4.09052 67.3596C6.16052 75.0396 10.6405 79.9797 17.6305 83.2497" stroke="#FCF6E9" stroke-width="2"/>
<path d="M69.5003 90.46C69.947 88.7733 69.5703 87.2233 68.3703 85.81C67.6836 85.01 67.1203 85.01 66.6803 85.81C66.6027 85.9501 66.5587 86.1069 66.5518 86.2682C66.5448 86.4295 66.5751 86.5909 66.6403 86.74L68.0003 89.96" stroke="#E7AB9D" stroke-width="2"/>
<path d="M37.3209 93.4498C38.6509 87.9798 31.9609 86.4698 31.9609 91.2498" stroke="#E49187" stroke-width="2"/>
<path d="M20.9589 86.2497C22.3589 85.023 22.6122 83.6797 21.7189 82.2197C21.5393 81.9373 21.271 81.737 20.9689 81.6597C19.7222 81.3397 18.6089 81.8697 17.6289 83.2497" stroke="#D78D84" stroke-width="2"/>
<path d="M64.1882 13.4763C64.1361 12.8419 63.7742 12.2592 63.1822 11.8563C62.5902 11.4533 61.8166 11.2632 61.0316 11.3278C60.2465 11.3923 59.5143 11.7063 58.9961 12.2005C58.4779 12.6947 58.2161 13.3287 58.2683 13.9631C58.3204 14.5975 58.6823 15.1802 59.2743 15.5831C59.8663 15.986 60.6399 16.1762 61.4249 16.1116C62.21 16.047 62.9421 15.7331 63.4603 15.2389C63.9785 14.7447 64.2404 14.1107 64.1882 13.4763Z" stroke="#E49187" stroke-width="2"/>
<path d="M43.3536 24.7559C43.2908 24.2212 42.8685 23.751 42.1797 23.4486C41.4908 23.1462 40.5918 23.0365 39.6805 23.1435C39.2292 23.1965 38.7884 23.3012 38.3834 23.4515C37.9784 23.6018 37.617 23.7948 37.3199 24.0195C37.0227 24.2442 36.7957 24.4962 36.6518 24.7611C36.5078 25.026 36.4497 25.2986 36.4808 25.5633C36.5436 26.098 36.966 26.5683 37.6548 26.8707C38.3437 27.1731 39.2427 27.2828 40.154 27.1757C40.6053 27.1227 41.046 27.0181 41.451 26.8678C41.856 26.7175 42.2174 26.5245 42.5146 26.2998C42.8117 26.0751 43.0387 25.8231 43.1826 25.5582C43.3266 25.2933 43.3847 25.0207 43.3536 24.7559Z" stroke="#E49187" stroke-width="2"/>
<path d="M68.7425 32.009C68.5713 31.8311 68.3668 31.6887 68.1405 31.5899C67.9143 31.491 67.6708 31.4377 67.4239 31.433C67.1771 31.4282 66.9317 31.4722 66.7018 31.5623C66.472 31.6524 66.2621 31.7868 66.0842 31.958L63.9514 34.0104C63.7735 34.1816 63.631 34.3862 63.5322 34.6124C63.4334 34.8387 63.3801 35.0822 63.3753 35.329C63.3706 35.5759 63.4145 35.8212 63.5046 36.0511C63.5947 36.281 63.7292 36.4908 63.9004 36.6687L64.0945 36.8704C64.2657 37.0483 64.4703 37.1908 64.6965 37.2896C64.9228 37.3885 65.1663 37.4418 65.4131 37.4465C65.66 37.4512 65.9053 37.4073 66.1352 37.3172C66.365 37.2271 66.5749 37.0926 66.7528 36.9214L68.8856 34.869C69.0635 34.6978 69.2059 34.4933 69.3048 34.267C69.4036 34.0408 69.457 33.7973 69.4617 33.5505C69.4664 33.3036 69.4225 33.0582 69.3324 32.8284C69.2423 32.5985 69.1078 32.3886 68.9366 32.2107L68.7425 32.009Z" stroke="#EDA093" stroke-width="2"/>
<path d="M9.99479 37.7387C10.5968 38.0961 11.3474 38.1472 12.0814 37.8807C12.8154 37.6143 13.4727 37.0521 13.9087 36.3178C14.3447 35.5834 14.5236 34.7372 14.4062 33.9652C14.2888 33.1932 13.8846 32.5587 13.2826 32.2012C12.6805 31.8438 11.93 31.7927 11.196 32.0592C10.462 32.3256 9.80469 32.8878 9.36869 33.6221C8.93271 34.3564 8.75372 35.2027 8.87113 35.9747C8.98855 36.7467 9.39275 37.3812 9.99479 37.7387Z" stroke="#E5988E" stroke-width="2"/>
<path d="M32.0281 36.0296C38.4781 40.5296 34.1881 29.8495 31.5881 33.3595C30.8215 34.3995 30.9681 35.2896 32.0281 36.0296Z" stroke="#E49187" stroke-width="2"/>
<path d="M51.3522 41.4837C51.7119 41.4209 52.0542 41.28 52.3598 41.0691C52.6653 40.8581 52.9281 40.5812 53.1331 40.2541C53.3381 39.9271 53.4812 39.5563 53.5544 39.163C53.6275 38.7696 53.6293 38.3614 53.5595 37.9617C53.4897 37.562 53.3498 37.1785 53.1477 36.8332C52.9457 36.4879 52.6853 36.1875 52.3817 35.9493C52.0781 35.711 51.737 35.5395 51.378 35.4445C51.0191 35.3495 50.6492 35.3329 50.2896 35.3957C49.93 35.4585 49.5876 35.5994 49.282 35.8103C48.9765 36.0213 48.7137 36.2982 48.5087 36.6253C48.3037 36.9523 48.1606 37.3231 48.0874 37.7164C48.0143 38.1098 48.0125 38.518 48.0823 38.9177C48.1521 39.3174 48.292 39.7009 48.4941 40.0462C48.6961 40.3915 48.9565 40.6918 49.2601 40.9301C49.5638 41.1684 49.9048 41.3399 50.2637 41.4349C50.6227 41.5299 50.9926 41.5465 51.3522 41.4837Z" stroke="#EDA093" stroke-width="2"/>
<path d="M78.0954 45.1074C78.2678 44.9092 78.3994 44.679 78.4827 44.4299C78.5661 44.1808 78.5995 43.9178 78.5812 43.6558C78.5629 43.3937 78.4932 43.1379 78.376 42.9029C78.2588 42.6678 78.0964 42.4581 77.8982 42.2858L76.5699 41.1312C76.3717 40.9589 76.1415 40.8273 75.8924 40.744C75.6433 40.6606 75.3802 40.6272 75.1182 40.6455C74.8562 40.6638 74.6003 40.7336 74.3653 40.8508C74.1302 40.968 73.9206 41.1303 73.7483 41.3285L72.5805 42.6718C72.4082 42.8701 72.2766 43.1003 72.1932 43.3494C72.1099 43.5984 72.0764 43.8615 72.0947 44.1235C72.113 44.3855 72.1828 44.6413 72.3 44.8764C72.4172 45.1114 72.5795 45.3211 72.7778 45.4934L74.1061 46.648C74.3043 46.8203 74.5345 46.9519 74.7836 47.0353C75.0327 47.1186 75.2957 47.1521 75.5577 47.1338C75.8197 47.1155 76.0756 47.0457 76.3107 46.9285C76.5457 46.8113 76.7553 46.649 76.9277 46.4507L78.0954 45.1074Z" stroke="#E49187" stroke-width="2"/>
<path d="M32.7647 49.5947C32.9799 49.5354 33.1749 49.4106 33.3383 49.2275C33.5018 49.0443 33.6307 48.8063 33.7176 48.5272C33.8044 48.248 33.8476 47.9331 33.8446 47.6005C33.8416 47.2678 33.7924 46.9239 33.7 46.5884C33.6076 46.2529 33.4737 45.9323 33.3059 45.645C33.1382 45.3577 32.9399 45.1093 32.7224 44.914C32.5048 44.7187 32.2723 44.5802 32.0381 44.5066C31.8039 44.433 31.5726 44.4256 31.3573 44.4849C31.1421 44.5442 30.9471 44.6689 30.7837 44.8521C30.6202 45.0353 30.4913 45.2732 30.4044 45.5524C30.3176 45.8315 30.2745 46.1464 30.2775 46.4791C30.2805 46.8118 30.3296 47.1557 30.422 47.4912C30.5144 47.8267 30.6483 48.1472 30.8161 48.4345C30.9838 48.7218 31.1821 48.9703 31.3996 49.1656C31.6172 49.3609 31.8497 49.4993 32.0839 49.573C32.3181 49.6466 32.5494 49.654 32.7647 49.5947Z" stroke="#E5988E" stroke-width="2"/>
<path d="M48.169 54.6998C51.109 55.4465 52.0457 54.0265 50.979 50.4398C50.4457 48.6398 49.569 48.4531 48.349 49.8798C47.1357 51.2998 46.8391 52.7131 47.4591 54.1198C47.5211 54.26 47.6173 54.3852 47.7403 54.4857C47.8633 54.5862 48.0099 54.6594 48.169 54.6998Z" stroke="#E5988E" stroke-width="2"/>
<path d="M60.5084 61.9197C62.8684 63.5597 64.8718 63.363 66.5184 61.3296C66.6451 61.173 66.7262 60.9913 66.7464 60.8183C66.7667 60.6454 66.7247 60.493 66.6284 60.3897L63.9784 57.5196C63.9259 57.4617 63.8603 57.4169 63.7856 57.3879C63.7109 57.3589 63.6285 57.3464 63.5435 57.3511C63.4585 57.3557 63.3726 57.3775 63.291 57.415C63.2093 57.4526 63.1336 57.5052 63.0684 57.5696L60.2284 60.4696C60.1393 60.5621 60.0753 60.6756 60.0409 60.8023C60.0065 60.9289 60.0025 61.0658 60.0291 61.2035C60.0557 61.3412 60.1123 61.4765 60.195 61.6001C60.2778 61.7237 60.3847 61.8327 60.5084 61.9197Z" stroke="#EDA093" stroke-width="2"/>
<path d="M9.14811 63.1969C9.77434 63.1178 10.3369 62.7409 10.712 62.1491C11.0871 61.5573 11.244 60.7991 11.1483 60.0413C11.1009 59.6661 10.9929 59.3023 10.8304 58.9706C10.668 58.6389 10.4542 58.3459 10.2015 58.1083C9.94867 57.8706 9.66183 57.6931 9.35721 57.5857C9.0526 57.4783 8.73621 57.4432 8.42612 57.4823C7.7999 57.5615 7.23733 57.9384 6.86222 58.5302C6.48711 59.122 6.33014 59.8801 6.42588 60.6379C6.47328 61.0132 6.58129 61.377 6.74375 61.7087C6.90621 62.0404 7.11994 62.3334 7.37272 62.571C7.6255 62.8086 7.9124 62.9862 8.21702 63.0936C8.52164 63.201 8.83803 63.2361 9.14811 63.1969Z" stroke="#D78D84" stroke-width="2"/>
<path d="M25.1505 67.3937C25.4218 67.2638 25.66 67.0719 25.8517 66.829C26.0434 66.5861 26.1849 66.297 26.2679 65.9782C26.351 65.6594 26.374 65.3171 26.3357 64.9708C26.2974 64.6246 26.1986 64.2812 26.0448 63.9602C25.891 63.6393 25.6853 63.347 25.4394 63.1002C25.1936 62.8534 24.9124 62.6569 24.6118 62.5218C24.3113 62.3868 23.9974 62.3158 23.688 62.3131C23.3786 62.3103 23.0798 62.3758 22.8086 62.5057C22.5374 62.6357 22.299 62.8276 22.1073 63.0704C21.9156 63.3133 21.7742 63.6024 21.6912 63.9212C21.6082 64.2401 21.5852 64.5824 21.6234 64.9286C21.6617 65.2749 21.7606 65.6183 21.9143 65.9392C22.0681 66.2602 22.2738 66.5524 22.5197 66.7992C22.7655 67.046 23.0468 67.2425 23.3473 67.3776C23.6478 67.5127 23.9617 67.5836 24.2711 67.5864C24.5805 67.5891 24.8793 67.5237 25.1505 67.3937Z" stroke="#EDA093" stroke-width="2"/>
<path d="M43.1139 76.9204C43.5418 76.8168 43.8821 76.4278 44.0599 75.8387C44.2377 75.2497 44.2384 74.509 44.0619 73.7795C43.9745 73.4182 43.8463 73.0706 43.6845 72.7565C43.5227 72.4424 43.3304 72.1679 43.1188 71.9487C42.9072 71.7296 42.6803 71.57 42.4511 71.4791C42.2219 71.3883 41.9948 71.3679 41.7829 71.4192C41.355 71.5227 41.0148 71.9118 40.837 72.5008C40.6592 73.0898 40.6585 73.8306 40.8349 74.5601C40.9223 74.9213 41.0506 75.2689 41.2124 75.583C41.3743 75.8971 41.5665 76.1716 41.7781 76.3908C41.9897 76.61 42.2166 76.7696 42.4458 76.8604C42.675 76.9513 42.902 76.9716 43.1139 76.9204Z" stroke="#E5988E" stroke-width="2"/>
<path d="M55.8183 80.66C57.8516 81.1667 59.0983 80.46 59.5583 78.54C59.5988 78.3765 59.59 78.1906 59.5326 77.9976C59.4753 77.8047 59.371 77.6101 59.2283 77.43C57.0816 74.6833 55.6183 75.1434 54.8383 78.81C54.7505 79.2173 54.8034 79.6376 54.9862 79.9826C55.169 80.3276 55.4672 80.5704 55.8183 80.66Z" stroke="#EDA093" stroke-width="2"/>
<path d="M69.5005 90.4601C69.9472 88.7735 69.5705 87.2235 68.3705 85.8102C67.6838 85.0101 67.1205 85.0101 66.6805 85.8102C66.6028 85.9503 66.5589 86.1071 66.5519 86.2684C66.545 86.4297 66.5753 86.5911 66.6405 86.7401L68.0005 89.9601L56.4705 88.7202C56.1105 88.6802 55.7905 88.7168 55.5105 88.8301C49.6105 91.1168 43.5472 92.6568 37.3205 93.4502C38.6505 87.9802 31.9605 86.4702 31.9605 91.2502C30.5405 91.8568 29.3805 91.6002 28.4805 90.4802C28.2471 90.1868 28.0038 89.9735 27.7505 89.8401L20.9605 86.2502C22.3605 85.0235 22.6138 83.6802 21.7205 82.2202C21.5409 81.9378 21.2726 81.7375 20.9705 81.6602C19.7238 81.3402 18.6105 81.8702 17.6305 83.2502C10.6405 79.9802 6.16051 75.0401 4.09052 67.3601C2.60052 61.8401 1.23049 57.0101 1.25049 51.1201C1.26382 45.3268 1.25714 39.5402 1.23047 33.7602C1.23051 33.599 1.2625 33.4404 1.3244 33.2942C1.38631 33.1481 1.47687 33.0174 1.59052 32.9102C4.79718 29.8435 8.34715 28.2835 12.2405 28.2302C20.0505 28.1402 28.9105 27.0201 34.4805 21.5801C42.5805 13.6701 51.4105 8.16015 61.4705 2.22015C66.6905 -0.849849 68.0205 6.91016 67.2205 10.3202C67.1497 10.6213 67.2036 10.9445 67.3705 11.2202C69.6805 15.0802 68.7005 21.2402 68.5205 25.7002C68.5012 26.0257 68.5814 26.35 68.7505 26.6302C71.0505 30.5402 72.4405 34.5201 76.2805 37.2801C76.5957 37.505 76.8104 37.7804 76.8805 38.0501C77.3538 39.8235 78.3271 41.2968 79.8005 42.4701C79.9454 42.5844 80.0537 42.7329 80.1022 42.8841C80.1508 43.0353 80.1358 43.1774 80.0605 43.2801C79.6205 43.8735 79.4305 44.5235 79.4905 45.2302C79.4988 45.2642 79.4307 45.3626 79.2986 45.5076C79.1664 45.6526 78.979 45.8345 78.7705 46.0201C77.8105 46.8735 77.2938 47.9468 77.2205 49.2401C77.2111 49.3982 77.159 49.5517 77.0695 49.6851C76.98 49.8185 76.8562 49.9272 76.7105 50.0001L73.4105 51.6302C73.3102 51.682 73.2147 51.7927 73.1339 51.951C73.053 52.1092 72.9897 52.3092 72.9505 52.5301C71.8972 58.3501 71.5205 64.1801 71.8205 70.0201C72.2205 77.5501 75.2805 86.4802 76.4805 93.7602C76.8805 96.2002 72.0305 92.3702 71.5705 92.1002C71.3394 91.9652 71.1495 91.7036 71.0405 91.3701C70.8271 90.7035 70.3138 90.4001 69.5005 90.4601ZM64.1905 13.4767C64.1383 12.8424 63.7764 12.2596 63.1844 11.8567C62.5925 11.4538 61.8188 11.2637 61.0338 11.3282C60.2488 11.3928 59.5166 11.7067 58.9984 12.2009C58.4801 12.6951 58.2183 13.3292 58.2705 13.9636C58.3227 14.5979 58.6846 15.1807 59.2766 15.5836C59.8685 15.9865 60.6422 16.1766 61.4272 16.1121C62.2122 16.0475 62.9444 15.7336 63.4626 15.2394C63.9808 14.7452 64.2427 14.1111 64.1905 13.4767ZM43.3569 24.7564C43.294 24.2217 42.8718 23.7515 42.1829 23.4491C41.4941 23.1467 40.5951 23.037 39.6837 23.144C39.2324 23.197 38.7917 23.3017 38.3867 23.452C37.9816 23.6023 37.6202 23.7953 37.3231 24.02C37.026 24.2447 36.799 24.4967 36.655 24.7616C36.5111 25.0265 36.453 25.2991 36.4841 25.5638C36.5469 26.0985 36.9692 26.5688 37.6581 26.8712C38.3469 27.1736 39.2459 27.2833 40.1573 27.1762C40.6086 27.1232 41.0493 27.0186 41.4543 26.8683C41.8593 26.718 42.2207 26.525 42.5178 26.3003C42.8149 26.0756 43.0419 25.8236 43.1859 25.5587C43.3299 25.2938 43.388 25.0212 43.3569 24.7564ZM68.7445 32.0095C68.5733 31.8316 68.3688 31.6891 68.1425 31.5903C67.9163 31.4914 67.6728 31.4381 67.4259 31.4334C67.1791 31.4286 66.9337 31.4726 66.7038 31.5627C66.4739 31.6528 66.2641 31.7873 66.0862 31.9585L63.9534 34.0109C63.7755 34.1821 63.633 34.3866 63.5342 34.6129C63.4353 34.8391 63.3821 35.0826 63.3773 35.3294C63.3726 35.5763 63.4165 35.8216 63.5066 36.0515C63.5967 36.2814 63.7312 36.4913 63.9024 36.6692L64.0965 36.8708C64.2677 37.0487 64.4722 37.1912 64.6985 37.29C64.9247 37.3889 65.1683 37.4422 65.4151 37.4469C65.6619 37.4517 65.9073 37.4077 66.1371 37.3176C66.367 37.2275 66.5769 37.093 66.7548 36.9218L68.8876 34.8694C69.0655 34.6982 69.2079 34.4937 69.3068 34.2675C69.4056 34.0412 69.4589 33.7977 69.4637 33.5509C69.4684 33.304 69.4244 33.0587 69.3344 32.8288C69.2443 32.5989 69.1098 32.389 68.9386 32.2111L68.7445 32.0095ZM9.99658 37.7389C10.5986 38.0963 11.3492 38.1474 12.0832 37.8809C12.8172 37.6145 13.4745 37.0523 13.9105 36.318C14.3464 35.5836 14.5254 34.7374 14.408 33.9654C14.2906 33.1934 13.8864 32.5589 13.2844 32.2014C12.6823 31.844 11.9317 31.7929 11.1978 32.0594C10.4638 32.3258 9.80648 32.888 9.37048 33.6223C8.9345 34.3567 8.75551 35.2029 8.87292 35.9749C8.99034 36.7469 9.39455 37.3814 9.99658 37.7389ZM32.0305 36.0301C38.4805 40.5301 34.1905 29.8501 31.5905 33.3601C30.8238 34.4001 30.9705 35.2901 32.0305 36.0301ZM51.3518 41.4842C51.7114 41.4214 52.0538 41.2805 52.3594 41.0695C52.6649 40.8585 52.9277 40.5816 53.1327 40.2546C53.3377 39.9275 53.4808 39.5568 53.554 39.1634C53.6271 38.7701 53.6289 38.3619 53.5591 37.9622C53.4893 37.5624 53.3494 37.1789 53.1473 36.8336C52.9453 36.4883 52.6849 36.188 52.3813 35.9497C52.0776 35.7114 51.7366 35.5399 51.3776 35.4449C51.0187 35.35 50.6488 35.3334 50.2892 35.3961C49.9295 35.4589 49.5872 35.5998 49.2816 35.8108C48.9761 36.0218 48.7133 36.2987 48.5083 36.6257C48.3033 36.9528 48.1602 37.3235 48.087 37.7169C48.0139 38.1102 48.0121 38.5184 48.0819 38.9181C48.1517 39.3179 48.2916 39.7014 48.4937 40.0467C48.6957 40.392 48.9561 40.6923 49.2597 40.9306C49.5633 41.1688 49.9043 41.3404 50.2633 41.4354C50.6223 41.5303 50.9922 41.5469 51.3518 41.4842ZM78.098 45.1079C78.2703 44.9097 78.4019 44.6795 78.4852 44.4304C78.5686 44.1813 78.6021 43.9183 78.5837 43.6563C78.5654 43.3943 78.4957 43.1384 78.3785 42.9034C78.2613 42.6683 78.0989 42.4587 77.9007 42.2863L76.5724 41.1317C76.3742 40.9594 76.144 40.8278 75.8949 40.7445C75.6458 40.6612 75.3827 40.6277 75.1207 40.646C74.8587 40.6643 74.6029 40.7341 74.3678 40.8513C74.1327 40.9685 73.9231 41.1308 73.7508 41.329L72.583 42.6724C72.4107 42.8706 72.2791 43.1008 72.1957 43.3499C72.1124 43.599 72.0789 43.862 72.0972 44.124C72.1155 44.386 72.1853 44.6419 72.3025 44.8769C72.4197 45.112 72.582 45.3216 72.7803 45.494L74.1086 46.6486C74.3068 46.8209 74.5371 46.9524 74.7861 47.0358C75.0352 47.1191 75.2982 47.1526 75.5602 47.1343C75.8223 47.116 76.0781 47.0462 76.3132 46.929C76.5482 46.8118 76.7579 46.6495 76.9302 46.4513L78.098 45.1079ZM32.7642 49.5951C32.9794 49.5358 33.1743 49.411 33.3378 49.2278C33.5013 49.0447 33.6302 48.8067 33.717 48.5276C33.8039 48.2484 33.8471 47.9335 33.8441 47.6008C33.841 47.2682 33.7919 46.9243 33.6995 46.5887C33.6071 46.2532 33.4732 45.9327 33.3054 45.6454C33.1377 45.3581 32.9394 45.1097 32.7219 44.9144C32.5043 44.719 32.2718 44.5806 32.0376 44.507C31.8034 44.4334 31.572 44.426 31.3568 44.4853C31.1416 44.5445 30.9466 44.6693 30.7831 44.8525C30.6197 45.0356 30.4908 45.2736 30.4039 45.5527C30.3171 45.8319 30.274 46.1468 30.277 46.4795C30.28 46.8121 30.3291 47.156 30.4215 47.4915C30.5139 47.8271 30.6478 48.1476 30.8156 48.4349C30.9833 48.7222 31.1816 48.9706 31.3991 49.166C31.6166 49.3613 31.8492 49.4997 32.0834 49.5733C32.3176 49.647 32.5489 49.6543 32.7642 49.5951ZM48.1705 54.7002C51.1105 55.4468 52.0471 54.0268 50.9805 50.4402C50.4471 48.6402 49.5705 48.4535 48.3505 49.8802C47.1371 51.3002 46.8405 52.7135 47.4605 54.1201C47.5226 54.2604 47.6187 54.3855 47.7418 54.486C47.8648 54.5865 48.0114 54.6598 48.1705 54.7002ZM60.5105 61.9202C62.8705 63.5602 64.8738 63.3635 66.5205 61.3301C66.6472 61.1735 66.7282 60.9918 66.7485 60.8188C66.7687 60.6459 66.7268 60.4935 66.6305 60.3902L63.9805 57.5201C63.928 57.4622 63.8624 57.4174 63.7877 57.3884C63.7129 57.3594 63.6306 57.3469 63.5456 57.3516C63.4606 57.3562 63.3747 57.378 63.293 57.4156C63.2114 57.4531 63.1357 57.5057 63.0705 57.5702L60.2305 60.4701C60.1413 60.5626 60.0774 60.6761 60.043 60.8028C60.0086 60.9294 60.0045 61.0663 60.0311 61.204C60.0577 61.3418 60.1143 61.477 60.1971 61.6006C60.2798 61.7242 60.3867 61.8333 60.5105 61.9202ZM9.15149 63.1974C9.77772 63.1183 10.3403 62.7414 10.7154 62.1496C11.0905 61.5578 11.2474 60.7996 11.1517 60.0418C11.1043 59.6666 10.9963 59.3028 10.8338 58.9711C10.6713 58.6395 10.4576 58.3464 10.2048 58.1088C9.95205 57.8712 9.66521 57.6936 9.3606 57.5862C9.05598 57.4788 8.73959 57.4437 8.4295 57.4828C7.80328 57.562 7.24071 57.9389 6.8656 58.5307C6.49049 59.1225 6.33352 59.8807 6.42926 60.6385C6.47666 61.0137 6.58467 61.3775 6.74713 61.7092C6.90959 62.0409 7.12332 62.3339 7.3761 62.5715C7.62888 62.8091 7.91578 62.9867 8.2204 63.0941C8.52502 63.2015 8.84141 63.2366 9.15149 63.1974ZM25.1515 67.3942C25.4227 67.2642 25.6609 67.0723 25.8527 66.8294C26.0444 66.5866 26.1858 66.2975 26.2689 65.9786C26.3519 65.6598 26.3749 65.3175 26.3366 64.9712C26.2983 64.625 26.1995 64.2816 26.0457 63.9607C25.8919 63.6397 25.6862 63.3475 25.4404 63.1007C25.1945 62.8539 24.9133 62.6573 24.6128 62.5223C24.3123 62.3872 23.9984 62.3163 23.689 62.3135C23.3796 62.3107 23.0807 62.3762 22.8095 62.5062C22.5383 62.6361 22.3 62.828 22.1083 63.0709C21.9166 63.3137 21.7752 63.6028 21.6921 63.9217C21.6091 64.2405 21.5861 64.5828 21.6244 64.929C21.6627 65.2753 21.7615 65.6187 21.9153 65.9397C22.0691 66.2606 22.2748 66.5528 22.5206 66.7996C22.7665 67.0464 23.0477 67.243 23.3482 67.378C23.6487 67.5131 23.9626 67.584 24.272 67.5868C24.5814 67.5896 24.8803 67.5241 25.1515 67.3942ZM43.116 76.9207C43.5439 76.8172 43.8842 76.4281 44.062 75.8391C44.2397 75.2501 44.2404 74.5093 44.064 73.7798C43.9766 73.4186 43.8484 73.071 43.6865 72.7569C43.5247 72.4428 43.3325 72.1683 43.1208 71.9491C42.9092 71.7299 42.6823 71.5704 42.4531 71.4795C42.2239 71.3887 41.9969 71.3683 41.785 71.4196C41.3571 71.5231 41.0168 71.9122 40.8391 72.5012C40.6613 73.0902 40.6605 73.831 40.837 74.5605C40.9244 74.9217 41.0527 75.2693 41.2145 75.5834C41.3763 75.8975 41.5685 76.172 41.7802 76.3912C41.9918 76.6104 42.2187 76.7699 42.4479 76.8608C42.6771 76.9517 42.9041 76.972 43.116 76.9207ZM55.8205 80.6602C57.8538 81.1668 59.1005 80.4602 59.5605 78.5402C59.601 78.3767 59.5922 78.1908 59.5349 77.9978C59.4775 77.8048 59.3732 77.6102 59.2305 77.4301C57.0838 74.6835 55.6205 75.1435 54.8405 78.8102C54.7527 79.2174 54.8056 79.6377 54.9884 79.9827C55.1712 80.3277 55.4694 80.5705 55.8205 80.6602Z" fill="#FAEFDF"/>
<path d="M61.4275 16.1118C63.0623 15.9774 64.2995 14.7975 64.1909 13.4765C64.0823 12.1555 62.669 11.1935 61.0342 11.3279C59.3995 11.4623 58.1623 12.6422 58.2709 13.9632C58.3795 15.2842 59.7928 16.2462 61.4275 16.1118Z" fill="#CE322F"/>
<path d="M40.1561 27.176C42.054 26.953 43.4865 25.8696 43.3557 24.7561C43.2249 23.6427 41.5803 22.9207 39.6825 23.1437C37.7846 23.3666 36.3521 24.45 36.4829 25.5635C36.6137 26.677 38.2583 27.3989 40.1561 27.176Z" fill="#CE322F"/>
<path d="M66.0851 31.9584L63.9523 34.0109C63.2041 34.7308 63.1813 35.9209 63.9013 36.6691L64.0954 36.8708C64.8154 37.619 66.0055 37.6418 66.7536 36.9219L68.8865 34.8694C69.6346 34.1495 69.6575 32.9593 68.9375 32.2112L68.7434 32.0094C68.0234 31.2613 66.8333 31.2384 66.0851 31.9584Z" fill="#DF5047"/>
<path d="M9.37072 33.6224C8.46279 35.1515 8.74309 36.9945 9.99678 37.7389C11.2505 38.4833 13.0028 37.8472 13.9107 36.318C14.8187 34.7889 14.5384 32.9459 13.2847 32.2015C12.031 31.4571 10.2786 32.0932 9.37072 33.6224Z" fill="#D0413D"/>
<path d="M32.0281 36.0301C30.9681 35.2901 30.8215 34.4 31.5881 33.36C34.1881 29.85 38.4781 40.5301 32.0281 36.0301Z" fill="#CE322F"/>
<path d="M48.0814 38.9179C48.3748 40.599 49.8388 41.7479 51.3513 41.4839C52.8638 41.2199 53.852 39.6431 53.5586 37.962C53.2652 36.2808 51.8012 35.132 50.2887 35.3959C48.7763 35.6599 47.788 37.2367 48.0814 38.9179Z" fill="#DF5047"/>
<path d="M77.9002 42.2861L76.5719 41.1315C75.7383 40.4068 74.475 40.4951 73.7504 41.3288L72.5826 42.6721C71.8579 43.5058 71.9463 44.769 72.7799 45.4937L74.1082 46.6483C74.9418 47.373 76.2051 47.2847 76.9297 46.451L78.0975 45.1077C78.8222 44.274 78.7338 43.0108 77.9002 42.2861Z" fill="#CE322F"/>
<path d="M30.4219 47.4914C30.8105 48.9024 31.8594 49.8442 32.7646 49.5948C33.6698 49.3455 34.0885 47.9996 33.6998 46.5885C33.3112 45.1775 32.2623 44.2358 31.3571 44.4851C30.452 44.7345 30.0332 46.0804 30.4219 47.4914Z" fill="#D0413D"/>
<path d="M47.4591 54.1198C46.8391 52.7131 47.1357 51.2998 48.349 49.8798C49.569 48.4531 50.4457 48.6398 50.979 50.4398C52.0457 54.0265 51.109 55.4465 48.169 54.6998C48.0099 54.6594 47.8633 54.5862 47.7403 54.4857C47.6173 54.3852 47.5211 54.26 47.4591 54.1198Z" fill="#D0413D"/>
<path d="M60.5084 61.9201C60.3847 61.8332 60.2778 61.7242 60.195 61.6006C60.1123 61.477 60.0557 61.3417 60.0291 61.204C60.0025 61.0663 60.0065 60.9294 60.0409 60.8027C60.0753 60.6761 60.1393 60.5626 60.2284 60.4701L63.0684 57.5701C63.1336 57.5057 63.2093 57.4531 63.291 57.4155C63.3726 57.378 63.4585 57.3562 63.5435 57.3515C63.6285 57.3469 63.7109 57.3594 63.7856 57.3884C63.8603 57.4173 63.9259 57.4621 63.9784 57.5201L66.6284 60.3901C66.7247 60.4935 66.7667 60.6458 66.7464 60.8188C66.7262 60.9918 66.6451 61.1735 66.5184 61.3301C64.8718 63.3634 62.8684 63.5601 60.5084 61.9201Z" fill="#DF5047"/>
<path d="M6.42756 60.6384C6.62691 62.2165 7.84568 63.3622 9.14975 63.1974C10.4538 63.0327 11.3494 61.6199 11.15 60.0419C10.9507 58.4638 9.7319 57.3181 8.42783 57.4829C7.12376 57.6476 6.2282 59.0604 6.42756 60.6384Z" fill="#B42A28"/>
<path d="M21.9156 65.9395C22.5623 67.2893 24.0111 67.9405 25.1517 67.394C26.2923 66.8475 26.6927 65.3103 26.046 63.9606C25.3993 62.6108 23.9504 61.9596 22.8098 62.5061C21.6692 63.0526 21.2689 64.5898 21.9156 65.9395Z" fill="#DF5047"/>
<path d="M40.837 74.5601C41.2045 76.0793 42.2248 77.136 43.1159 76.9204C44.007 76.7049 44.4314 75.2986 44.0639 73.7795C43.6964 72.2603 42.6761 71.2036 41.785 71.4191C40.8939 71.6347 40.4695 73.041 40.837 74.5601Z" fill="#D0413D"/>
<path d="M55.8183 80.66C55.4672 80.5704 55.169 80.3276 54.9862 79.9826C54.8034 79.6376 54.7505 79.2173 54.8383 78.81C55.6183 75.1434 57.0816 74.6833 59.2283 77.43C59.371 77.6101 59.4753 77.8047 59.5326 77.9976C59.59 78.1906 59.5988 78.3765 59.5583 78.54C59.0983 80.46 57.8516 81.1667 55.8183 80.66Z" fill="#DF5047"/>
<path d="M20.9589 86.2502C19.5323 85.5035 18.4222 84.5035 17.6289 83.2502C18.6089 81.8702 19.7222 81.3402 20.9689 81.6602C21.271 81.7375 21.5393 81.9378 21.7189 82.2202C22.6122 83.6802 22.3589 85.0235 20.9589 86.2502Z" fill="#B42A28"/>
<path d="M69.5003 90.46L68.0003 89.96L66.6403 86.74C66.5751 86.5909 66.5448 86.4295 66.5518 86.2682C66.5587 86.1069 66.6027 85.9501 66.6803 85.81C67.1203 85.01 67.6836 85.01 68.3703 85.81C69.5703 87.2233 69.947 88.7733 69.5003 90.46Z" fill="#D3665A"/>
<path d="M37.3209 93.4498C34.8009 94.3498 33.0143 93.6165 31.9609 91.2498C31.9609 86.4698 38.6509 87.9798 37.3209 93.4498Z" fill="#CE322F"/>
</svg>
