<svg width="128" height="141" viewBox="0 0 128 141" fill="none" xmlns="http://www.w3.org/2000/svg">
<path d="M2.37588 72.2484C-7.99412 123.018 42.2559 157.178 85.8459 130.128C97.4792 122.908 107.302 114.748 115.316 105.648C122.726 97.2384 128.886 82.0084 125.546 70.6584C120.666 54.0784 97.3658 44.7384 82.5858 37.7884C67.4658 30.6784 59.0759 15.5084 50.2359 2.29837C49.2425 0.811706 48.0258 0.601762 46.5858 1.66843C44.8258 2.98843 43.9858 4.4884 43.8158 6.8284C43.3692 12.9551 42.6692 17.3684 41.7158 20.0684C38.6758 28.7384 33.0858 32.5584 24.5858 39.9284C15.2858 47.9884 4.85588 60.1184 2.37588 72.2484Z" stroke="#8B8EA0" stroke-width="2"/>
<path d="M55.7555 38.6943C55.6548 38.2684 55.389 37.9 55.0167 37.67C54.6444 37.4401 54.196 37.3674 53.7701 37.4681L53.6533 37.4957C53.4424 37.5455 53.2435 37.6364 53.0677 37.7632C52.892 37.8899 52.7429 38.0501 52.629 38.2344C52.5151 38.4188 52.4387 38.6237 52.404 38.8376C52.3694 39.0515 52.3772 39.2702 52.4271 39.4811L54.8197 49.6021C54.9203 50.028 55.186 50.3964 55.5583 50.6263C55.9306 50.8563 56.379 50.929 56.8049 50.8283L56.9217 50.8007C57.1326 50.7508 57.3315 50.66 57.5073 50.5332C57.683 50.4064 57.8322 50.2463 57.946 50.0619C58.0599 49.8776 58.1364 49.6726 58.171 49.4587C58.2056 49.2448 58.1978 49.0262 58.1479 48.8153L55.7555 38.6943Z" stroke="#878B9F" stroke-width="2"/>
<path d="M40.2467 51.4612C40.4735 51.3451 40.6532 51.1427 40.7758 50.8655C40.8983 50.5883 40.9612 50.2417 40.9608 49.8455C40.9604 49.4493 40.8968 49.0112 40.7736 48.5564C40.6503 48.1016 40.4699 47.6388 40.2426 47.1946C40.0152 46.7503 39.7455 46.3333 39.4487 45.9673C39.1519 45.6013 38.8338 45.2935 38.5127 45.0614C38.1916 44.8293 37.8737 44.6776 37.5772 44.6149C37.2806 44.5521 37.0113 44.5795 36.7845 44.6956C36.5578 44.8116 36.3779 45.014 36.2554 45.2913C36.1328 45.5685 36.0699 45.9151 36.0703 46.3113C36.0707 46.7075 36.1343 47.1455 36.2576 47.6003C36.3808 48.0552 36.5612 48.5179 36.7886 48.9622C37.0159 49.4064 37.2857 49.8234 37.5825 50.1895C37.8793 50.5555 38.1974 50.8633 38.5186 51.0953C38.8397 51.3274 39.1575 51.4791 39.454 51.5419C39.7505 51.6046 40.0199 51.5772 40.2467 51.4612Z" stroke="#878B9F" stroke-width="2"/>
<path d="M83.7587 55.2831C84.1748 55.0656 84.3356 54.4014 84.2058 53.4366C84.0759 52.4717 83.6661 51.2854 83.0665 50.1384C82.7696 49.5705 82.435 49.0293 82.0819 48.5458C81.7287 48.0623 81.364 47.646 81.0084 47.3205C80.6528 46.9951 80.3133 46.7669 80.0094 46.6491C79.7054 46.5312 79.443 46.526 79.237 46.6337C78.821 46.8512 78.6602 47.5154 78.79 48.4802C78.9198 49.445 79.3297 50.6314 79.9293 51.7784C80.2262 52.3463 80.5608 52.8875 80.9139 53.371C81.267 53.8545 81.6318 54.2708 81.9874 54.5963C82.343 54.9217 82.6825 55.1499 82.9864 55.2677C83.2903 55.3856 83.5527 55.3908 83.7587 55.2831Z" stroke="#8B8EA0" stroke-width="2"/>
<path d="M74.2952 62.7104C74.5356 62.6437 74.7284 62.4145 74.8626 62.0357C74.9968 61.6569 75.0697 61.136 75.0772 60.5027C75.0847 59.8694 75.0265 59.1362 74.9062 58.3449C74.7858 57.5536 74.6055 56.7197 74.3756 55.8908C73.9114 54.2168 73.2733 52.665 72.6017 51.5765C71.9301 50.488 71.2799 49.9521 70.7943 50.0868C70.5539 50.1535 70.3611 50.3828 70.227 50.7616C70.0928 51.1404 70.0198 51.6613 70.0124 52.2945C70.0049 52.9278 70.063 53.661 70.1834 54.4523C70.3037 55.2437 70.484 56.0776 70.7139 56.9065C71.1781 58.5804 71.8162 60.1323 72.4878 61.2208C73.1594 62.3092 73.8096 62.8451 74.2952 62.7104Z" stroke="#878B9F" stroke-width="2"/>
<path d="M37.6984 57.4483C37.7275 57.2388 37.7151 57.0257 37.6618 56.8211C37.6085 56.6165 37.5154 56.4245 37.3879 56.2558C37.2603 56.0872 37.1007 55.9453 36.9184 55.8383C36.736 55.7314 36.5344 55.6613 36.325 55.6323L36.0872 55.5993C35.6643 55.5406 35.2354 55.6523 34.8948 55.9099C34.5543 56.1674 34.33 56.5497 34.2713 56.9727L32.7731 67.7693C32.7441 67.9787 32.7564 68.1918 32.8097 68.3964C32.863 68.601 32.9561 68.7931 33.0837 68.9618C33.2112 69.1304 33.3708 69.2722 33.5531 69.3792C33.7355 69.4862 33.9371 69.5562 34.1465 69.5852L34.3843 69.6183C34.8073 69.6769 35.2361 69.5652 35.5767 69.3076C35.9173 69.0501 36.1415 68.6678 36.2002 68.2448L37.6984 57.4483Z" stroke="#8B8EA0" stroke-width="2"/>
<path d="M100.853 60.7521C100.598 60.4067 100.216 60.177 99.7907 60.1135C99.3658 60.05 98.933 60.1579 98.5876 60.4134L98.3946 60.5562C98.0493 60.8118 97.8196 61.1941 97.7561 61.619C97.6926 62.0439 97.8006 62.4766 98.0561 62.822L105.503 72.8863C105.759 73.2317 106.141 73.4614 106.566 73.5249C106.991 73.5884 107.424 73.4806 107.769 73.225L107.962 73.0822C108.307 72.8266 108.537 72.4444 108.601 72.0195C108.664 71.5945 108.556 71.1618 108.301 70.8164L100.853 60.7521Z" stroke="#878B9F" stroke-width="2"/>
<path d="M52.3361 64.0346C52.4223 63.8401 52.4693 63.6306 52.4745 63.4179C52.4797 63.2052 52.443 62.9936 52.3665 62.7951C52.2899 62.5966 52.1749 62.4152 52.0282 62.2611C51.8815 62.107 51.7059 61.9833 51.5114 61.8971L51.2371 61.7756C50.8442 61.6016 50.3984 61.5907 49.9976 61.7453C49.5967 61.9 49.2737 62.2076 49.0996 62.6004L47.0334 67.263C46.9472 67.4575 46.9002 67.6671 46.895 67.8798C46.8898 68.0925 46.9265 68.3041 47.003 68.5026C47.0796 68.7011 47.1946 68.8825 47.3413 69.0366C47.488 69.1907 47.6636 69.3144 47.8582 69.4006L48.1324 69.522C48.5253 69.6961 48.9711 69.707 49.3719 69.5523C49.7728 69.3976 50.0958 69.0901 50.2699 68.6972L52.3361 64.0346Z" stroke="#878B9F" stroke-width="2"/>
<path d="M25.0264 64.6502C25.2295 64.2566 25.268 63.7985 25.1333 63.3765C24.9987 62.9546 24.7019 62.6035 24.3083 62.4003L24.2017 62.3452C24.0068 62.2446 23.794 62.1834 23.5755 62.165C23.3569 62.1467 23.137 62.1716 22.928 62.2383C22.7191 62.305 22.5253 62.4121 22.3578 62.5537C22.1903 62.6953 22.0523 62.8684 21.9517 63.0633L17.0258 72.607C16.8227 73.0006 16.7843 73.4587 16.9189 73.8807C17.0536 74.3026 17.3504 74.6538 17.7439 74.8569L17.8505 74.912C18.0454 75.0126 18.2582 75.0738 18.4767 75.0922C18.6953 75.1105 18.9153 75.0857 19.1243 75.019C19.3332 74.9523 19.5269 74.8451 19.6944 74.7035C19.862 74.562 19.9999 74.3888 20.1005 74.1939L25.0264 64.6502Z" stroke="#81869C" stroke-width="2"/>
<path d="M82.5796 70.9759C82.4995 70.7873 82.3831 70.6163 82.237 70.4727C82.0909 70.3291 81.9178 70.2157 81.7279 70.139C81.5379 70.0622 81.3347 70.0237 81.1298 70.0255C80.925 70.0272 80.7225 70.0694 80.5339 70.1494L79.9817 70.3839C79.6008 70.5456 79.2998 70.8519 79.1449 71.2355C78.9899 71.6191 78.9936 72.0485 79.1552 72.4294L82.3358 79.9223C82.4158 80.1109 82.5322 80.2819 82.6783 80.4255C82.8244 80.5691 82.9974 80.6825 83.1873 80.7592C83.3773 80.836 83.5805 80.8746 83.7854 80.8728C83.9902 80.871 84.1927 80.8288 84.3813 80.7488L84.9337 80.5143C85.3145 80.3526 85.6155 80.0463 85.7705 79.6627C85.9254 79.2791 85.9217 78.8496 85.7601 78.4688L82.5796 70.9759Z" stroke="#878B9F" stroke-width="2"/>
<path d="M64.6847 75.125C64.6173 74.6738 64.3734 74.268 64.0067 73.9966C63.64 73.7253 63.1807 73.6107 62.7295 73.6781L62.5712 73.7017C62.3478 73.7351 62.1331 73.8122 61.9395 73.9285C61.7458 74.0448 61.5771 74.1982 61.4428 74.3797C61.3084 74.5613 61.2111 74.7676 61.1565 74.9868C61.1019 75.206 61.091 75.4337 61.1244 75.6571L62.2714 83.3318C62.3388 83.783 62.5827 84.1888 62.9493 84.4602C63.316 84.7315 63.7755 84.8461 64.2267 84.7787L64.3849 84.7551C64.6083 84.7217 64.823 84.6446 65.0166 84.5283C65.2102 84.4119 65.379 84.2586 65.5133 84.0771C65.6477 83.8955 65.7449 83.6892 65.7996 83.4701C65.8542 83.2509 65.8652 83.0231 65.8318 82.7997L64.6847 75.125Z" stroke="#81869C" stroke-width="2"/>
<path d="M46.8516 83.644C46.8634 83.605 46.8674 83.5641 46.8633 83.5236C46.8593 83.483 46.8473 83.4437 46.8281 83.4078C46.8088 83.3719 46.7828 83.3402 46.7513 83.3144C46.7198 83.2887 46.6835 83.2693 46.6445 83.2576L43.8492 82.4136C43.7705 82.3899 43.6856 82.3983 43.6131 82.4372C43.5406 82.476 43.4865 82.542 43.4627 82.6207L39.6187 95.3531C39.6069 95.3921 39.603 95.433 39.607 95.4736C39.611 95.5141 39.623 95.5534 39.6423 95.5893C39.6615 95.6252 39.6876 95.6569 39.7191 95.6827C39.7506 95.7085 39.7869 95.7278 39.8259 95.7396L42.6212 96.5834C42.6999 96.6072 42.7848 96.5988 42.8572 96.5599C42.9297 96.5211 42.9839 96.455 43.0076 96.3763L46.8516 83.644Z" stroke="#878B9F" stroke-width="2"/>
<path d="M99.0674 85.1891C97.6574 83.8791 95.3674 83.3391 95.8774 86.3491C95.942 86.7295 96.0947 87.0455 96.3074 87.2391C97.9407 88.6857 99.0441 90.4491 99.6174 92.5291C99.6654 92.6943 99.7526 92.8396 99.864 92.94C99.9754 93.0404 100.104 93.0896 100.227 93.0791C101.687 92.9591 102.641 92.2258 103.087 90.8791C103.12 90.7848 103.111 90.6438 103.062 90.4712C103.013 90.2986 102.925 90.1008 102.807 89.8991C101.781 88.1258 100.534 86.5558 99.0674 85.1891Z" stroke="#878B9F" stroke-width="2"/>
<path d="M26.1277 91.844C26.2808 91.6673 26.3975 91.4622 26.4713 91.2404C26.5451 91.0186 26.5745 90.7844 26.5578 90.5513C26.5411 90.3181 26.4786 90.0905 26.3739 89.8815C26.2692 89.6725 26.1244 89.4862 25.9477 89.3331L25.7965 89.2021C25.4397 88.8931 24.9747 88.7384 24.5038 88.7721C24.033 88.8059 23.5948 89.0253 23.2857 89.3821L14.1455 99.9338C13.9924 100.111 13.8757 100.316 13.8019 100.537C13.7281 100.759 13.6988 100.993 13.7155 101.227C13.7322 101.46 13.7947 101.687 13.8993 101.896C14.004 102.105 14.1489 102.292 14.3255 102.445L14.4767 102.576C14.8336 102.885 15.2985 103.039 15.7694 103.006C16.2403 102.972 16.6784 102.752 16.9875 102.396L26.1277 91.844Z" stroke="#878B9F" stroke-width="2"/>
<path d="M84.2748 97.1983C76.0048 95.5583 90.3348 116.768 92.0048 108.788C92.0348 108.637 92.0182 108.475 91.9567 108.318C91.8952 108.162 91.7911 108.017 91.6548 107.898C88.4948 105.192 86.2715 101.845 84.9848 97.8583C84.9304 97.6914 84.836 97.5425 84.7114 97.4266C84.5867 97.3107 84.4362 97.2319 84.2748 97.1983Z" stroke="#878B9F" stroke-width="2"/>
<path d="M58.4062 125.138C61.1195 125.072 62.5094 123.562 62.5761 120.608C62.6261 117.948 63.6161 106.358 62.4561 104.668C61.6494 103.488 60.8094 103.378 59.9361 104.338C59.0761 105.278 58.6627 106.388 58.6961 107.668C58.8427 113.702 58.5362 119.288 57.7762 124.428C57.763 124.518 57.7695 124.609 57.7953 124.696C57.8212 124.782 57.8658 124.862 57.9258 124.93C57.9858 124.998 58.0599 125.051 58.1429 125.087C58.2258 125.123 58.3157 125.141 58.4062 125.138Z" stroke="#81869C" stroke-width="2"/>
<path d="M37.5389 111.048C37.6038 110.86 37.6311 110.662 37.6194 110.464C37.6076 110.266 37.557 110.073 37.4704 109.894C37.3838 109.716 37.2629 109.556 37.1146 109.425C36.9663 109.293 36.7934 109.192 36.606 109.127L35.8313 108.859C35.6439 108.794 35.4456 108.766 35.2476 108.778C35.0497 108.79 34.856 108.84 34.6776 108.927C34.4992 109.014 34.3396 109.135 34.208 109.283C34.0763 109.431 33.9751 109.604 33.9102 109.791L30.0949 120.809C30.03 120.997 30.0026 121.195 30.0144 121.393C30.0261 121.591 30.0768 121.785 30.1634 121.963C30.25 122.142 30.371 122.301 30.5193 122.433C30.6675 122.564 30.8403 122.666 31.0277 122.73L31.8025 122.999C31.9898 123.064 32.1882 123.091 32.3862 123.079C32.5841 123.067 32.7778 123.017 32.9561 122.93C33.1345 122.844 33.2942 122.723 33.4259 122.574C33.5575 122.426 33.6586 122.253 33.7235 122.066L37.5389 111.048Z" stroke="#878B9F" stroke-width="2"/>
<path d="M85.8498 130.128C42.2598 157.178 -7.99021 123.018 2.37979 72.2484C4.85979 60.1184 15.2897 47.9884 24.5897 39.9284C33.0897 32.5584 38.6798 28.7384 41.7198 20.0684C42.6731 17.3684 43.3731 12.9551 43.8197 6.8284C43.9897 4.4884 44.8298 2.98843 46.5897 1.66843C48.0297 0.601762 49.2464 0.811706 50.2398 2.29837C59.0798 15.5084 67.4697 30.6784 82.5898 37.7884C97.3698 44.7384 120.67 54.0784 125.55 70.6584C128.89 82.0084 122.73 97.2384 115.32 105.648C107.306 114.748 97.4831 122.908 85.8498 130.128ZM55.7577 38.6945C55.6571 38.2686 55.3913 37.9002 55.0189 37.6703C54.6466 37.4403 54.1982 37.3676 53.7724 37.4683L53.6555 37.4959C53.4447 37.5457 53.2457 37.6367 53.07 37.7634C52.8942 37.8902 52.7451 38.0503 52.6313 38.2347C52.5174 38.419 52.4409 38.624 52.4063 38.8379C52.3716 39.0518 52.3795 39.2704 52.4293 39.4813L54.8219 49.6023C54.9226 50.0282 55.1883 50.3966 55.5606 50.6266C55.9329 50.8565 56.3813 50.9292 56.8072 50.8285L56.924 50.8009C57.1349 50.751 57.3338 50.6602 57.5095 50.5334C57.6853 50.4067 57.8344 50.2465 57.9483 50.0622C58.0621 49.8778 58.1386 49.6728 58.1732 49.4589C58.2079 49.245 58.2 49.0264 58.1502 48.8155L55.7577 38.6945ZM40.2509 51.4612C40.4777 51.3452 40.6574 51.1427 40.7799 50.8655C40.9025 50.5883 40.9654 50.2417 40.965 49.8455C40.9646 49.4493 40.901 49.0113 40.7777 48.5564C40.6545 48.1016 40.4741 47.6389 40.2467 47.1946C40.0194 46.7504 39.7497 46.3333 39.4529 45.9673C39.1561 45.6013 38.838 45.2935 38.5169 45.0614C38.1958 44.8294 37.8778 44.6777 37.5813 44.6149C37.2848 44.5521 37.0155 44.5795 36.7887 44.6956C36.5619 44.8117 36.3821 45.0141 36.2595 45.2913C36.137 45.5685 36.0741 45.9151 36.0745 46.3113C36.0749 46.7075 36.1385 47.1455 36.2617 47.6004C36.385 48.0552 36.5654 48.518 36.7928 48.9622C37.0201 49.4064 37.2899 49.8235 37.5867 50.1895C37.8835 50.5555 38.2016 50.8633 38.5227 51.0954C38.8438 51.3274 39.1616 51.4791 39.4582 51.5419C39.7547 51.6047 40.0241 51.5773 40.2509 51.4612ZM83.7607 55.2831C84.1767 55.0656 84.3375 54.4014 84.2077 53.4366C84.0778 52.4717 83.668 51.2854 83.0684 50.1384C82.7715 49.5705 82.4369 49.0293 82.0838 48.5458C81.7306 48.0623 81.3659 47.646 81.0103 47.3205C80.6547 46.9951 80.3152 46.7669 80.0113 46.6491C79.7073 46.5312 79.4449 46.526 79.2389 46.6337C78.8229 46.8512 78.6621 47.5154 78.7919 48.4802C78.9217 49.445 79.3316 50.6314 79.9312 51.7784C80.2281 52.3463 80.5627 52.8875 80.9158 53.371C81.2689 53.8545 81.6337 54.2708 81.9893 54.5963C82.3449 54.9217 82.6844 55.1499 82.9883 55.2677C83.2922 55.3856 83.5547 55.3908 83.7607 55.2831ZM74.3002 62.7102C74.5406 62.6435 74.7334 62.4142 74.8676 62.0354C75.0018 61.6566 75.0747 61.1357 75.0822 60.5025C75.0897 59.8692 75.0315 59.136 74.9112 58.3447C74.7908 57.5534 74.6105 56.7195 74.3806 55.8906C73.9164 54.2166 73.2783 52.6647 72.6067 51.5763C71.9351 50.4878 71.2849 49.9519 70.7993 50.0866C70.5589 50.1532 70.3661 50.3825 70.232 50.7613C70.0978 51.1401 70.0248 51.661 70.0174 52.2943C70.0099 52.9275 70.068 53.6608 70.1884 54.4521C70.3087 55.2434 70.489 56.0773 70.7189 56.9062C71.1831 58.5802 71.8212 60.1321 72.4928 61.2206C73.1645 62.309 73.8146 62.8448 74.3002 62.7102ZM37.7024 57.4479C37.7315 57.2385 37.7191 57.0254 37.6658 56.8208C37.6125 56.6162 37.5194 56.4241 37.3919 56.2555C37.2643 56.0868 37.1048 55.945 36.9224 55.838C36.74 55.731 36.5384 55.661 36.329 55.6319L36.0912 55.5989C35.6683 55.5402 35.2394 55.652 34.8988 55.9095C34.5583 56.1671 34.334 56.5494 34.2753 56.9723L32.7771 67.7689C32.7481 67.9783 32.7604 68.1914 32.8137 68.396C32.867 68.6006 32.9601 68.7928 33.0877 68.9614C33.2152 69.13 33.3748 69.2718 33.5572 69.3788C33.7395 69.4858 33.9411 69.5558 34.1505 69.5849L34.3883 69.6179C34.8113 69.6766 35.2402 69.5648 35.5807 69.3073C35.9213 69.0497 36.1456 68.6674 36.2043 68.2445L37.7024 57.4479ZM100.855 60.7513C100.599 60.4059 100.217 60.1762 99.7921 60.1127C99.3672 60.0492 98.9344 60.1571 98.589 60.4126L98.396 60.5554C98.0507 60.811 97.821 61.1933 97.7575 61.6182C97.694 62.0431 97.802 62.4758 98.0575 62.8212L105.505 72.8855C105.76 73.2309 106.142 73.4606 106.567 73.5241C106.992 73.5876 107.425 73.4798 107.77 73.2242L107.964 73.0814C108.309 72.8258 108.538 72.4436 108.602 72.0186C108.665 71.5937 108.558 71.1609 108.302 70.8156L100.855 60.7513ZM52.3411 64.0342C52.4273 63.8397 52.4743 63.6301 52.4795 63.4175C52.4847 63.2048 52.4481 62.9931 52.3715 62.7947C52.2949 62.5962 52.1799 62.4147 52.0332 62.2607C51.8865 62.1066 51.7109 61.9829 51.5164 61.8967L51.2421 61.7752C50.8493 61.6011 50.4034 61.5902 50.0026 61.7449C49.6017 61.8996 49.2787 62.2072 49.1046 62.6L47.0385 67.2626C46.9523 67.4571 46.9053 67.6667 46.9001 67.8794C46.8948 68.092 46.9315 68.3037 47.0081 68.5022C47.0847 68.7007 47.1996 68.8821 47.3463 69.0362C47.493 69.1902 47.6687 69.3139 47.8632 69.4001L48.1375 69.5216C48.5303 69.6956 48.9761 69.7065 49.377 69.5518C49.7778 69.3972 50.1009 69.0896 50.2749 68.6968L52.3411 64.0342ZM25.0301 64.65C25.2332 64.2564 25.2717 63.7983 25.137 63.3763C25.0023 62.9544 24.7056 62.6033 24.312 62.4001L24.2053 62.345C24.0105 62.2444 23.7977 62.1832 23.5791 62.1648C23.3606 62.1465 23.1406 62.1714 22.9317 62.2381C22.7227 62.3048 22.529 62.4119 22.3615 62.5535C22.194 62.6951 22.0559 62.8682 21.9553 63.0631L17.0294 72.6068C16.8263 73.0004 16.7879 73.4585 16.9226 73.8805C17.0572 74.3024 17.354 74.6536 17.7476 74.8567L17.8542 74.9118C18.049 75.0124 18.2618 75.0736 18.4804 75.0919C18.6989 75.1103 18.919 75.0854 19.1279 75.0188C19.3368 74.9521 19.5306 74.8449 19.6981 74.7033C19.8656 74.5618 20.0036 74.3886 20.1042 74.1937L25.0301 64.65ZM82.5817 70.9752C82.5017 70.7866 82.3853 70.6156 82.2392 70.472C82.093 70.3284 81.92 70.215 81.73 70.1383C81.5401 70.0615 81.3369 70.023 81.132 70.0247C80.9271 70.0265 80.7246 70.0687 80.536 70.1487L79.9838 70.3832C79.603 70.5449 79.302 70.8512 79.147 71.2348C78.992 71.6184 78.9957 72.0478 79.1574 72.4287L82.3379 79.9216C82.418 80.1102 82.5343 80.2812 82.6805 80.4248C82.8266 80.5684 82.9995 80.6818 83.1895 80.7585C83.3794 80.8353 83.5826 80.8739 83.7875 80.8721C83.9924 80.8703 84.1949 80.8281 84.3835 80.7481L84.9358 80.5136C85.3167 80.3519 85.6176 80.0456 85.7726 79.662C85.9276 79.2784 85.9239 78.8489 85.7622 78.4681L82.5817 70.9752ZM64.6864 75.125C64.619 74.6738 64.3751 74.268 64.0084 73.9966C63.6418 73.7253 63.1824 73.6107 62.7312 73.6781L62.5729 73.7017C62.3495 73.7351 62.1348 73.8122 61.9412 73.9285C61.7476 74.0448 61.5788 74.1982 61.4445 74.3797C61.3101 74.5613 61.2129 74.7676 61.1582 74.9868C61.1036 75.206 61.0927 75.4337 61.1261 75.6571L62.2731 83.3318C62.3405 83.783 62.5844 84.1888 62.9511 84.4602C63.3178 84.7315 63.7773 84.8461 64.2284 84.7787L64.3866 84.7551C64.61 84.7217 64.8247 84.6446 65.0183 84.5283C65.212 84.4119 65.3807 84.2586 65.515 84.0771C65.6494 83.8955 65.7467 83.6892 65.8013 83.4701C65.8559 83.2509 65.8669 83.0231 65.8335 82.7997L64.6864 75.125ZM46.8562 83.6438C46.868 83.6049 46.872 83.5639 46.8679 83.5234C46.8639 83.4829 46.8519 83.4436 46.8327 83.4077C46.8134 83.3718 46.7874 83.3401 46.7559 83.3143C46.7244 83.2885 46.6881 83.2692 46.6491 83.2574L43.8538 82.4135C43.7751 82.3897 43.6902 82.3982 43.6177 82.437C43.5452 82.4759 43.4911 82.5419 43.4673 82.6206L39.6233 95.353C39.6115 95.392 39.6076 95.4329 39.6116 95.4734C39.6156 95.5139 39.6276 95.5533 39.6469 95.5891C39.6661 95.625 39.6922 95.6567 39.7237 95.6825C39.7552 95.7083 39.7915 95.7276 39.8305 95.7394L42.6258 96.5833C42.7045 96.6071 42.7894 96.5986 42.8618 96.5598C42.9343 96.5209 42.9885 96.4549 43.0122 96.3762L46.8562 83.6438ZM99.0697 85.1884C97.6597 83.8784 95.3698 83.3384 95.8798 86.3484C95.9444 86.7288 96.097 87.0448 96.3097 87.2384C97.9431 88.685 99.0464 90.4484 99.6198 92.5284C99.6678 92.6936 99.755 92.8389 99.8664 92.9393C99.9777 93.0397 100.106 93.0889 100.23 93.0784C101.69 92.9584 102.643 92.2251 103.09 90.8784C103.122 90.7841 103.114 90.6431 103.064 90.4705C103.015 90.2979 102.927 90.1001 102.81 89.8984C101.783 88.1251 100.536 86.5551 99.0697 85.1884ZM26.1309 91.8435C26.2839 91.6668 26.4007 91.4617 26.4745 91.2399C26.5482 91.0181 26.5777 90.7839 26.5609 90.5508C26.5442 90.3176 26.4817 90.09 26.377 89.881C26.2724 89.672 26.1276 89.4857 25.9509 89.3326L25.7996 89.2016C25.4428 88.8926 24.9778 88.7379 24.507 88.7716C24.0361 88.8054 23.5979 89.0248 23.2888 89.3816L14.1486 99.9333C13.9956 100.11 13.8789 100.315 13.8051 100.537C13.7313 100.759 13.7019 100.993 13.7187 101.226C13.7354 101.459 13.7978 101.687 13.9025 101.896C14.0072 102.105 14.152 102.291 14.3287 102.444L14.4799 102.575C14.8367 102.884 15.3017 103.039 15.7725 103.005C16.2434 102.971 16.6816 102.752 16.9907 102.395L26.1309 91.8435ZM84.2798 97.1984C76.0098 95.5584 90.3398 116.768 92.0098 108.788C92.0398 108.637 92.0232 108.475 91.9617 108.318C91.9002 108.162 91.7961 108.017 91.6598 107.898C88.4998 105.192 86.2764 101.845 84.9898 97.8584C84.9354 97.6916 84.841 97.5426 84.7163 97.4267C84.5917 97.3108 84.4411 97.232 84.2798 97.1984ZM58.4098 125.138C61.1231 125.072 62.5131 123.562 62.5797 120.608C62.6297 117.948 63.6197 106.358 62.4597 104.668C61.6531 103.488 60.8131 103.378 59.9397 104.338C59.0797 105.278 58.6664 106.388 58.6997 107.668C58.8464 113.702 58.5398 119.288 57.7798 124.428C57.7667 124.518 57.7731 124.609 57.799 124.696C57.8248 124.783 57.8694 124.862 57.9295 124.93C57.9895 124.998 58.0635 125.051 58.1465 125.087C58.2295 125.123 58.3194 125.141 58.4098 125.138ZM37.5418 111.048C37.6067 110.86 37.634 110.662 37.6222 110.464C37.6105 110.266 37.5599 110.072 37.4733 109.894C37.3867 109.716 37.2657 109.556 37.1175 109.424C36.9692 109.293 36.7963 109.191 36.6089 109.127L35.8341 108.858C35.6468 108.793 35.4485 108.766 35.2505 108.778C35.0526 108.79 34.8588 108.84 34.6804 108.927C34.5021 109.013 34.3425 109.134 34.2108 109.283C34.0792 109.431 33.978 109.604 33.9131 109.791L30.0978 120.809C30.0329 120.997 30.0055 121.195 30.0172 121.393C30.029 121.591 30.0797 121.785 30.1663 121.963C30.2529 122.141 30.3738 122.301 30.5221 122.433C30.6704 122.564 30.8432 122.665 31.0305 122.73L31.8053 122.999C31.9927 123.063 32.1911 123.091 32.3891 123.079C32.587 123.067 32.7806 123.017 32.959 122.93C33.1374 122.843 33.2971 122.722 33.4287 122.574C33.5604 122.426 33.6615 122.253 33.7263 122.066L37.5418 111.048Z" fill="#181D42"/>
<path d="M58.1479 48.8153C58.1978 49.0262 58.2056 49.2448 58.171 49.4587C58.1364 49.6726 58.0599 49.8776 57.946 50.0619C57.8322 50.2463 57.683 50.4064 57.5073 50.5332C57.3315 50.66 57.1326 50.7508 56.9217 50.8007L56.8049 50.8283C56.379 50.929 55.9306 50.8563 55.5583 50.6263C55.186 50.3964 54.9203 50.028 54.8197 49.6021L52.4271 39.4811C52.3772 39.2702 52.3694 39.0515 52.404 38.8376C52.4387 38.6237 52.5151 38.4188 52.629 38.2344C52.7429 38.0501 52.892 37.8899 53.0677 37.7632C53.2435 37.6364 53.4424 37.5455 53.6533 37.4957L53.7701 37.4681C54.196 37.3674 54.6444 37.4401 55.0167 37.67C55.389 37.9 55.6548 38.2684 55.7555 38.6943L58.1479 48.8153Z" fill="#F5F8FC"/>
<path d="M40.2467 51.4612C40.0199 51.5772 39.7505 51.6046 39.454 51.5419C39.1575 51.4791 38.8397 51.3274 38.5186 51.0953C38.1974 50.8633 37.8793 50.5555 37.5825 50.1895C37.2857 49.8234 37.0159 49.4064 36.7886 48.9622C36.5612 48.5179 36.3808 48.0552 36.2576 47.6003C36.1343 47.1455 36.0707 46.7075 36.0703 46.3113C36.0699 45.9151 36.1328 45.5685 36.2554 45.2913C36.3779 45.014 36.5578 44.8116 36.7845 44.6956C37.0113 44.5795 37.2806 44.5521 37.5772 44.6149C37.8737 44.6776 38.1916 44.8293 38.5127 45.0614C38.8338 45.2935 39.1519 45.6013 39.4487 45.9673C39.7455 46.3333 40.0152 46.7503 40.2426 47.1946C40.4699 47.6388 40.6503 48.1016 40.7736 48.5564C40.8968 49.0112 40.9604 49.4493 40.9608 49.8455C40.9612 50.2417 40.8983 50.5883 40.7758 50.8655C40.6532 51.1427 40.4735 51.3451 40.2467 51.4612Z" fill="#F5F8FC"/>
<path d="M83.7587 55.2831C83.5528 55.3908 83.2903 55.3856 82.9864 55.2677C82.6825 55.1499 82.343 54.9217 81.9874 54.5963C81.6318 54.2708 81.267 53.8545 80.9139 53.371C80.5608 52.8875 80.2262 52.3463 79.9293 51.7784C79.3297 50.6314 78.9198 49.445 78.79 48.4802C78.6602 47.5154 78.821 46.8512 79.237 46.6337C79.443 46.526 79.7054 46.5312 80.0094 46.6491C80.3133 46.7669 80.6528 46.9951 81.0084 47.3205C81.364 47.646 81.7287 48.0623 82.0819 48.5458C82.435 49.0293 82.7696 49.5705 83.0665 50.1384C83.6661 51.2854 84.0759 52.4717 84.2058 53.4366C84.3356 54.4014 84.1748 55.0656 83.7587 55.2831Z" fill="#FEFEFE"/>
<path d="M74.2952 62.7104C73.8096 62.8451 73.1594 62.3092 72.4878 61.2208C71.8162 60.1323 71.1781 58.5804 70.7139 56.9065C70.484 56.0776 70.3037 55.2437 70.1834 54.4523C70.063 53.661 70.0049 52.9278 70.0124 52.2945C70.0198 51.6613 70.0928 51.1404 70.227 50.7616C70.3611 50.3828 70.5539 50.1535 70.7943 50.0868C71.2799 49.9521 71.9301 50.488 72.6017 51.5765C73.2733 52.665 73.9114 54.2168 74.3756 55.8908C74.6055 56.7197 74.7858 57.5536 74.9062 58.3449C75.0265 59.1362 75.0847 59.8694 75.0772 60.5027C75.0697 61.136 74.9968 61.6569 74.8626 62.0357C74.7284 62.4145 74.5356 62.6437 74.2952 62.7104Z" fill="#F5F8FC"/>
<path d="M36.2002 68.2439C36.1415 68.6668 35.9173 69.0491 35.5767 69.3067C35.2361 69.5642 34.8073 69.676 34.3843 69.6173L34.1465 69.5843C33.9371 69.5552 33.7355 69.4852 33.5531 69.3782C33.3708 69.2712 33.2112 69.1294 33.0837 68.9608C32.9561 68.7921 32.863 68.6 32.8097 68.3954C32.7564 68.1908 32.7441 67.9777 32.7731 67.7683L34.2713 56.9717C34.33 56.5488 34.5543 56.1665 34.8948 55.9089C35.2354 55.6513 35.6643 55.5396 36.0872 55.5983L36.325 55.6313C36.5344 55.6604 36.736 55.7304 36.9184 55.8374C37.1007 55.9444 37.2603 56.0862 37.3879 56.2548C37.5154 56.4235 37.6085 56.6156 37.6618 56.8202C37.7151 57.0248 37.7275 57.2379 37.6984 57.4473L36.2002 68.2439Z" fill="#FEFEFE"/>
<path d="M108.301 70.8154C108.556 71.1608 108.664 71.5936 108.601 72.0185C108.537 72.4434 108.307 72.8257 107.962 73.0812L107.769 73.224C107.424 73.4796 106.991 73.5874 106.566 73.5239C106.141 73.4604 105.759 73.2307 105.503 72.8854L98.0561 62.821C97.8006 62.4757 97.6926 62.0429 97.7561 61.618C97.8196 61.1931 98.0493 60.8108 98.3946 60.5552L98.5876 60.4125C98.933 60.1569 99.3658 60.049 99.7907 60.1125C100.216 60.1761 100.598 60.4058 100.853 60.7511L108.301 70.8154Z" fill="#F5F8FC"/>
<path d="M50.2699 68.6963C50.0958 69.0891 49.7728 69.3966 49.3719 69.5513C48.9711 69.706 48.5253 69.6951 48.1324 69.521L47.8582 69.3996C47.6636 69.3134 47.488 69.1897 47.3413 69.0356C47.1946 68.8816 47.0796 68.7001 47.003 68.5016C46.9265 68.3031 46.8898 68.0915 46.895 67.8788C46.9002 67.6661 46.9472 67.4566 47.0334 67.2621L49.0996 62.5995C49.2737 62.2067 49.5967 61.899 49.9976 61.7444C50.3984 61.5897 50.8442 61.6006 51.2371 61.7746L51.5114 61.8962C51.7059 61.9824 51.8815 62.106 52.0282 62.2601C52.1749 62.4142 52.2899 62.5956 52.3665 62.7941C52.443 62.9926 52.4797 63.2042 52.4745 63.4169C52.4693 63.6296 52.4223 63.8392 52.3361 64.0337L50.2699 68.6963Z" fill="#F5F8FC"/>
<path d="M20.1005 74.1939C19.9999 74.3888 19.862 74.562 19.6944 74.7035C19.5269 74.8451 19.3332 74.9523 19.1243 75.019C18.9153 75.0857 18.6953 75.1105 18.4767 75.0922C18.2582 75.0738 18.0454 75.0126 17.8505 74.912L17.7439 74.8569C17.3504 74.6538 17.0536 74.3026 16.9189 73.8807C16.7843 73.4587 16.8227 73.0006 17.0258 72.607L21.9517 63.0633C22.0523 62.8684 22.1903 62.6953 22.3578 62.5537C22.5253 62.4121 22.7191 62.305 22.928 62.2383C23.137 62.1716 23.3569 62.1467 23.5755 62.165C23.794 62.1834 24.0068 62.2446 24.2017 62.3452L24.3083 62.4003C24.7019 62.6035 24.9987 62.9546 25.1333 63.3765C25.268 63.7985 25.2295 64.2566 25.0264 64.6502L20.1005 74.1939Z" fill="#EAEFF6"/>
<path d="M85.7601 78.4678C85.9217 78.8487 85.9254 79.2781 85.7705 79.6617C85.6155 80.0453 85.3145 80.3516 84.9337 80.5133L84.3813 80.7478C84.1927 80.8279 83.9902 80.87 83.7854 80.8718C83.5805 80.8736 83.3773 80.835 83.1873 80.7582C82.9974 80.6815 82.8244 80.5681 82.6783 80.4245C82.5322 80.2809 82.4158 80.1099 82.3358 79.9213L79.1552 72.4284C78.9936 72.0476 78.9899 71.6181 79.1449 71.2345C79.2998 70.8509 79.6008 70.5446 79.9817 70.3829L80.5339 70.1484C80.7225 70.0684 80.925 70.0263 81.1298 70.0245C81.3347 70.0227 81.5379 70.0613 81.7279 70.138C81.9178 70.2147 82.0909 70.3281 82.237 70.4717C82.3831 70.6153 82.4995 70.7863 82.5796 70.9749L85.7601 78.4678Z" fill="#F5F8FC"/>
<path d="M65.8318 82.7997C65.8652 83.0231 65.8542 83.2509 65.7996 83.4701C65.7449 83.6892 65.6477 83.8955 65.5133 84.0771C65.379 84.2586 65.2102 84.4119 65.0166 84.5283C64.823 84.6446 64.6083 84.7217 64.3849 84.7551L64.2267 84.7787C63.7755 84.8461 63.316 84.7315 62.9493 84.4602C62.5827 84.1888 62.3388 83.783 62.2714 83.3318L61.1244 75.6571C61.091 75.4337 61.1019 75.206 61.1565 74.9868C61.2111 74.7676 61.3084 74.5613 61.4428 74.3797C61.5771 74.1982 61.7458 74.0448 61.9395 73.9285C62.1331 73.8122 62.3478 73.7351 62.5712 73.7017L62.7295 73.6781C63.1807 73.6107 63.64 73.7253 64.0067 73.9966C64.3734 74.268 64.6173 74.6738 64.6847 75.125L65.8318 82.7997Z" fill="#EAEFF6"/>
<path d="M43.0076 96.3763C42.9839 96.455 42.9297 96.5211 42.8572 96.5599C42.7848 96.5988 42.6999 96.6072 42.6212 96.5834L39.8259 95.7396C39.7869 95.7278 39.7506 95.7085 39.7191 95.6827C39.6876 95.6569 39.6615 95.6252 39.6423 95.5893C39.623 95.5534 39.611 95.5141 39.607 95.4736C39.603 95.433 39.6069 95.3921 39.6187 95.3531L43.4627 82.6207C43.4865 82.542 43.5406 82.476 43.6131 82.4372C43.6856 82.3983 43.7705 82.3899 43.8492 82.4136L46.6445 83.2576C46.6835 83.2693 46.7198 83.2887 46.7513 83.3144C46.7828 83.3402 46.8088 83.3719 46.8281 83.4078C46.8473 83.4437 46.8593 83.483 46.8633 83.5236C46.8674 83.5641 46.8634 83.605 46.8516 83.644L43.0076 96.3763Z" fill="#F5F8FC"/>
<path d="M99.0674 85.1881C100.534 86.5548 101.781 88.1248 102.807 89.8981C102.925 90.0998 103.013 90.2976 103.062 90.4702C103.111 90.6428 103.12 90.7838 103.087 90.8781C102.641 92.2248 101.687 92.9581 100.227 93.0781C100.104 93.0886 99.9754 93.0394 99.864 92.939C99.7526 92.8386 99.6654 92.6933 99.6174 92.5281C99.0441 90.4481 97.9407 88.6848 96.3074 87.2381C96.0947 87.0445 95.942 86.7285 95.8774 86.3481C95.3674 83.3381 97.6574 83.8781 99.0674 85.1881Z" fill="#F5F8FC"/>
<path d="M16.9875 102.395C16.6784 102.752 16.2403 102.971 15.7694 103.005C15.2985 103.038 14.8336 102.884 14.4767 102.575L14.3255 102.444C14.1489 102.291 14.004 102.104 13.8993 101.895C13.7947 101.686 13.7322 101.459 13.7155 101.226C13.6988 100.992 13.7281 100.758 13.8019 100.536C13.8757 100.315 13.9924 100.11 14.1455 99.9328L23.2857 89.3811C23.5948 89.0243 24.033 88.8049 24.5038 88.7712C24.9747 88.7374 25.4397 88.8921 25.7965 89.2012L25.9477 89.3321C26.1244 89.4852 26.2692 89.6715 26.3739 89.8805C26.4786 90.0896 26.5411 90.3171 26.5578 90.5503C26.5745 90.7834 26.5451 91.0176 26.4713 91.2394C26.3975 91.4612 26.2808 91.6663 26.1277 91.843L16.9875 102.395Z" fill="#F5F8FC"/>
<path d="M92.0048 108.788C90.3348 116.768 76.0048 95.5583 84.2748 97.1983C84.4362 97.2319 84.5867 97.3107 84.7114 97.4266C84.836 97.5425 84.9304 97.6914 84.9848 97.8583C86.2715 101.845 88.4948 105.192 91.6548 107.898C91.7911 108.017 91.8952 108.162 91.9567 108.318C92.0182 108.475 92.0348 108.637 92.0048 108.788Z" fill="#F5F8FC"/>
<path d="M58.4062 125.138C58.3157 125.141 58.2258 125.123 58.1429 125.087C58.0599 125.051 57.9858 124.998 57.9258 124.93C57.8658 124.862 57.8212 124.782 57.7953 124.696C57.7695 124.609 57.763 124.518 57.7762 124.428C58.5362 119.288 58.8427 113.702 58.6961 107.668C58.6627 106.388 59.0761 105.278 59.9361 104.338C60.8094 103.378 61.6494 103.488 62.4561 104.668C63.6161 106.358 62.6261 117.948 62.5761 120.608C62.5094 123.562 61.1195 125.072 58.4062 125.138Z" fill="#EAEFF6"/>
<path d="M33.7235 122.066C33.6586 122.253 33.5575 122.426 33.4259 122.574C33.2942 122.723 33.1345 122.844 32.9561 122.93C32.7778 123.017 32.5841 123.067 32.3862 123.079C32.1882 123.091 31.9898 123.064 31.8025 122.999L31.0277 122.73C30.8403 122.666 30.6675 122.564 30.5193 122.433C30.371 122.301 30.25 122.142 30.1634 121.963C30.0768 121.785 30.0261 121.591 30.0144 121.393C30.0026 121.195 30.03 120.997 30.0949 120.809L33.9102 109.791C33.9751 109.604 34.0763 109.431 34.208 109.283C34.3396 109.135 34.4992 109.014 34.6776 108.927C34.856 108.84 35.0497 108.79 35.2476 108.778C35.4456 108.766 35.6439 108.794 35.8313 108.859L36.606 109.127C36.7934 109.192 36.9663 109.293 37.1146 109.425C37.2629 109.556 37.3838 109.716 37.4704 109.894C37.557 110.073 37.6076 110.266 37.6194 110.464C37.6311 110.662 37.6038 110.86 37.5389 111.048L33.7235 122.066Z" fill="#F5F8FC"/>
</svg>
