<svg width="126" height="178" viewBox="0 0 126 178" fill="none" xmlns="http://www.w3.org/2000/svg">
<path d="M86.39 69.3026C86.57 67.2359 87.4033 65.0859 88.89 62.8525C95.32 53.2125 103.03 45.1826 110.16 36.1626C113.79 31.5826 117.45 22.7726 113.65 17.3126C112.45 15.5859 110.843 15.0159 108.83 15.6025C96.6 19.1725 90.64 35.3126 80.29 41.7026C80.0033 41.8826 79.9 41.8059 79.98 41.4726C82.9733 29.2192 83.39 16.8859 81.23 4.47257C80.39 -0.317426 76.89 0.202568 74.71 3.87257C68.15 14.9792 62.7667 26.6292 58.56 38.8225C58.19 39.8925 57.23 41.0626 56.61 41.9726C56.0367 42.8126 55.54 42.7692 55.12 41.8426C51.12 33.1326 49.56 23.4926 47.36 14.2226C46.8867 12.2359 45.89 10.6025 44.37 9.32255C44.1044 9.10862 43.7979 8.98884 43.5 8.98255H38.75C38.5925 8.98245 38.4392 9.03546 38.3143 9.13322C38.1894 9.23098 38.0999 9.36794 38.06 9.52256C36.7533 14.5626 36.3667 19.9092 36.9 25.5626C38.2534 39.7759 39.73 52.4026 41.33 63.4426C41.357 63.6331 41.3517 63.8159 41.3148 63.9723C41.2779 64.1287 41.2107 64.253 41.12 64.3326C40.38 64.9726 36.56 57.7425 36.12 56.9025C30.9067 46.8825 25.0266 36.8126 18.48 26.6926C18.3874 26.5477 18.2585 26.4299 18.106 26.3506C17.9534 26.2714 17.7825 26.2334 17.61 26.2404C17.4375 26.2475 17.2693 26.2994 17.122 26.3909C16.9747 26.4825 16.8535 26.6105 16.77 26.7626C15.36 29.3426 19.37 40.8726 20.47 44.0326C24.71 56.2326 29.9 69.2526 32.2 81.9326C32.3533 82.7659 32.1167 82.8993 31.49 82.3326C30.3233 81.2793 29.2166 80.1092 28.17 78.8226C21.3166 70.4559 14.48 62.0792 7.65997 53.6926C5.91997 51.5726 4.34001 48.8126 2.51001 46.4926C1.50334 45.2059 1 45.2892 1 46.7426C1 47.7292 1.15336 48.6926 1.46002 49.6326C5.24669 61.3659 10.16 72.6059 16.2 83.3525C23.46 96.2625 34.85 113.853 41.09 130.603C41.94 132.863 42.5 136.743 42.65 139.083C43.29 149.443 44.86 167.123 50.71 175.313C50.9053 175.586 51.1664 175.792 51.46 175.903C57.48 178.229 61.4367 176.436 63.33 170.523C66.99 159.093 68.26 146.853 69.4 132.013C70.57 116.833 72.73 95.1625 87.38 86.6025C93.33 83.1225 104.22 80.6625 111.18 75.6625C116.54 71.8125 122.9 65.7125 124.23 58.9625C124.71 56.5359 123.817 55.7259 121.55 56.5325C110.037 60.6125 98.7033 65.1359 87.55 70.1025C87.4197 70.1625 87.276 70.1876 87.1331 70.1755C86.9902 70.1633 86.8533 70.1143 86.7358 70.0333C86.6184 69.9524 86.5247 69.8422 86.464 69.714C86.4033 69.5858 86.3778 69.4439 86.39 69.3026Z" stroke="#B8DAD7" stroke-width="2"/>
<path d="M86.39 69.3026C86.3778 69.4439 86.4033 69.5858 86.464 69.714C86.5247 69.8422 86.6184 69.9524 86.7358 70.0333C86.8533 70.1143 86.9902 70.1633 87.1331 70.1755C87.276 70.1876 87.4197 70.1625 87.55 70.1025C98.7033 65.1359 110.037 60.6125 121.55 56.5325C123.817 55.7259 124.71 56.5359 124.23 58.9625C122.9 65.7125 116.54 71.8125 111.18 75.6625C104.22 80.6625 93.33 83.1225 87.38 86.6025C72.73 95.1625 70.57 116.833 69.4 132.013C68.26 146.853 66.99 159.093 63.33 170.523C61.4367 176.436 57.48 178.229 51.46 175.903C51.1665 175.792 50.9053 175.586 50.71 175.313C44.86 167.123 43.29 149.443 42.65 139.083C42.5 136.743 41.94 132.863 41.09 130.603C34.85 113.853 23.46 96.2625 16.2 83.3525C10.16 72.6059 5.24669 61.3659 1.46002 49.6326C1.15336 48.6926 1 47.7292 1 46.7426C1 45.2892 1.50334 45.2059 2.51001 46.4926C4.34001 48.8126 5.91997 51.5726 7.65997 53.6926C14.48 62.0792 21.3167 70.4559 28.17 78.8226C29.2167 80.1092 30.3233 81.2793 31.49 82.3326C32.1167 82.8993 32.3533 82.7659 32.2 81.9326C29.9 69.2526 24.71 56.2326 20.47 44.0326C19.37 40.8726 15.36 29.3426 16.77 26.7626C16.8535 26.6105 16.9747 26.4825 17.122 26.3909C17.2693 26.2994 17.4375 26.2475 17.61 26.2404C17.7825 26.2334 17.9534 26.2714 18.106 26.3506C18.2585 26.4299 18.3874 26.5477 18.48 26.6926C25.0266 36.8126 30.9067 46.8825 36.12 56.9025C36.56 57.7425 40.38 64.9726 41.12 64.3326C41.2107 64.253 41.2779 64.1287 41.3148 63.9723C41.3517 63.8159 41.357 63.6331 41.33 63.4426C39.73 52.4026 38.2534 39.7759 36.9 25.5626C36.3667 19.9092 36.7533 14.5626 38.06 9.52256C38.0999 9.36794 38.1894 9.23098 38.3143 9.13322C38.4392 9.03546 38.5925 8.98245 38.75 8.98255H43.5C43.7979 8.98884 44.1044 9.10862 44.37 9.32255C45.89 10.6025 46.8867 12.2359 47.36 14.2226C49.56 23.4926 51.12 33.1326 55.12 41.8426C55.54 42.7692 56.0367 42.8126 56.61 41.9726C57.23 41.0626 58.19 39.8925 58.56 38.8225C62.7667 26.6292 68.15 14.9792 74.71 3.87257C76.89 0.202568 80.39 -0.317426 81.23 4.47257C83.39 16.8859 82.9733 29.2192 79.98 41.4726C79.9 41.8059 80.0033 41.8826 80.29 41.7026C90.64 35.3126 96.6 19.1725 108.83 15.6025C110.843 15.0159 112.45 15.5859 113.65 17.3126C117.45 22.7726 113.79 31.5826 110.16 36.1626C103.03 45.1826 95.32 53.2125 88.89 62.8525C87.4034 65.0859 86.57 67.2359 86.39 69.3026Z" fill="#72B5B0"/>
</svg>
