<svg width="73" height="22" viewBox="0 0 73 22" fill="none" xmlns="http://www.w3.org/2000/svg">
<path d="M4.20402 19.3556C18.344 19.729 32.5473 20.1389 46.814 20.5856C55.014 20.8389 60.604 20.6823 63.584 20.1156C71.694 18.5856 76.414 5.88559 64.564 5.07559C50.9973 4.14226 37.4374 3.1456 23.884 2.0856C11.264 1.0956 -1.12601 1.25562 2.60399 18.0356C2.6879 18.4026 2.89058 18.7313 3.18016 18.9702C3.46974 19.2091 3.82985 19.3447 4.20402 19.3556Z" stroke="#808080" stroke-width="2"/>
<path d="M5.57463 16.2952C8.73463 17.2818 11.9013 17.5152 15.0746 16.9952C17.0746 16.6652 19.7046 17.6251 22.0546 17.4451C35.4646 16.4151 49.2546 17.9252 61.9946 17.0952C68.6446 16.6652 73.1646 8.83517 64.4546 7.84517C48.268 5.99184 30.7213 5.05517 11.8146 5.03517C5.24462 5.02517 4.47464 10.1252 4.83464 15.3552C4.84897 15.5671 4.92713 15.7699 5.05907 15.9375C5.191 16.1051 5.37064 16.2297 5.57463 16.2952Z" stroke="#0E101B" stroke-width="2"/>
<path d="M4.20793 19.3546C3.83376 19.3437 3.47364 19.2082 3.18407 18.9693C2.89449 18.7304 2.6918 18.4016 2.60789 18.0346C-1.12211 1.25464 11.2679 1.09463 23.8879 2.08463C37.4413 3.14463 51.0013 4.14128 64.5679 5.07462C76.4179 5.88462 71.6979 18.5847 63.5879 20.1147C60.6079 20.6813 55.0179 20.838 46.8179 20.5846C32.5513 20.138 18.3479 19.728 4.20793 19.3546ZM5.57793 16.2946C8.73793 17.2813 11.9046 17.5147 15.0779 16.9947C17.0779 16.6647 19.7079 17.6246 22.0579 17.4446C35.4679 16.4146 49.2579 17.9246 61.9979 17.0946C68.6479 16.6646 73.1679 8.83464 64.4579 7.84464C48.2713 5.9913 30.7246 5.05464 11.8179 5.03464C5.24792 5.02464 4.47794 10.1246 4.83794 15.3546C4.85227 15.5665 4.93042 15.7694 5.06236 15.937C5.1943 16.1046 5.37393 16.2292 5.57793 16.2946Z" fill="black"/>
<path d="M5.57463 16.2952C5.37064 16.2297 5.191 16.1051 5.05907 15.9375C4.92713 15.7699 4.84897 15.5671 4.83464 15.3552C4.47464 10.1252 5.24462 5.02517 11.8146 5.03517C30.7213 5.05517 48.268 5.99184 64.4546 7.84517C73.1646 8.83517 68.6446 16.6652 61.9946 17.0952C49.2546 17.9252 35.4646 16.4151 22.0546 17.4451C19.7046 17.6251 17.0746 16.6652 15.0746 16.9952C11.9013 17.5152 8.73463 17.2818 5.57463 16.2952Z" fill="#1B2035"/>
</svg>
