<svg width="60" height="77" viewBox="0 0 60 77" fill="none" xmlns="http://www.w3.org/2000/svg">
<path d="M25.7266 68.438C26.705 70.5247 27.1272 72.768 26.9932 75.168C26.9731 75.5213 27.02 75.5313 27.1339 75.198C27.5494 74.018 27.6265 72.8213 27.3651 71.608C27.3248 71.4234 27.3165 71.2433 27.341 71.083C27.3655 70.9228 27.4221 70.7872 27.5059 70.688L28.8429 69.098" stroke="#9B999E" stroke-width="2"/>
<path d="M28.8416 69.0978C50.8469 66.6478 59.9044 48.8678 57.743 28.5078C55.6521 8.78776 34.7425 -7.32224 15.9239 5.70776C6.20291 12.4278 0.201457 28.0978 1.08609 39.5178C2.30582 55.1178 10.5189 64.7578 25.7252 68.4378" stroke="#F6B1A6" stroke-width="2"/>
<path d="M28.8447 69.098C29.9706 60.0047 33.3181 51.7614 38.8873 44.368C39.7418 43.228 41.2296 39.778 38.0831 40.598C37.7827 40.676 37.504 40.8621 37.289 41.128C36.6255 41.948 30.624 52.248 29.7595 51.368C29.5594 51.1631 29.4405 50.844 29.4278 50.478C29.0357 42.098 28.8145 34.168 29.4076 25.508C29.6757 21.568 29.535 18.5414 28.9854 16.428C28.4627 14.388 26.7839 15.838 26.5627 17.018C24.8839 25.818 24.9744 35.078 24.5421 44.028C24.4416 46.068 23.5771 46.838 21.9486 46.338C21.8954 46.3223 21.8393 46.3189 21.7848 46.3281C21.7302 46.3373 21.6788 46.3589 21.6347 46.3911C21.5906 46.4232 21.555 46.4651 21.531 46.5132C21.5069 46.5614 21.495 46.6144 21.4962 46.668C21.5364 47.888 21.5967 49.318 21.9486 50.518C23.7044 56.3847 24.9644 62.358 25.7284 68.438" stroke="#925254" stroke-width="2"/>
<path d="M28.8416 69.0978C29.9675 60.0044 33.315 51.7611 38.8842 44.3678C39.7387 43.2278 41.2265 39.7778 38.08 40.5978C37.7796 40.6758 37.5009 40.8618 37.2858 41.1278C36.6223 41.9478 30.6209 52.2478 29.7564 51.3678C29.5563 51.1629 29.4373 50.8437 29.4246 50.4778C29.0326 42.0978 28.8114 34.1678 29.4045 25.5078C29.6726 21.5678 29.5318 18.5411 28.9823 16.4278C28.4596 14.3878 26.7808 15.8378 26.5596 17.0178C24.8808 25.8178 24.9713 35.0778 24.539 44.0278C24.4385 46.0678 23.574 46.8378 21.9454 46.3378C21.8923 46.322 21.8362 46.3186 21.7816 46.3278C21.7271 46.337 21.6757 46.3586 21.6315 46.3908C21.5874 46.4229 21.5519 46.4648 21.5278 46.5129C21.5038 46.5611 21.4918 46.6141 21.493 46.6678C21.5333 47.8878 21.5936 49.3178 21.9454 50.5178C23.7013 56.3844 24.9612 62.3578 25.7252 68.4378C10.5189 64.7578 2.30582 55.1178 1.08609 39.5178C0.201457 28.0978 6.20291 12.4278 15.9239 5.70776C34.7425 -7.32224 55.6521 8.78776 57.743 28.5078C59.9044 48.8678 50.8469 66.6478 28.8416 69.0978Z" fill="#ED6A5B"/>
<path d="M28.8447 69.0976L27.5077 70.6875C27.4239 70.7868 27.3673 70.9223 27.3428 71.0826C27.3183 71.2428 27.3266 71.423 27.367 71.6076C27.6283 72.8209 27.5512 74.0176 27.1357 75.1976C27.0218 75.5309 26.9749 75.5209 26.995 75.1676C27.129 72.7676 26.7068 70.5242 25.7284 68.4375C24.9644 62.3576 23.7044 56.3842 21.9486 50.5176C21.5967 49.3176 21.5364 47.8876 21.4962 46.6676C21.495 46.6139 21.5069 46.5609 21.531 46.5127C21.555 46.4646 21.5906 46.4227 21.6347 46.3906C21.6788 46.3584 21.7302 46.3368 21.7848 46.3276C21.8393 46.3184 21.8954 46.3218 21.9486 46.3375C23.5771 46.8375 24.4416 46.0676 24.5421 44.0276C24.9744 35.0776 24.8839 25.8176 26.5627 17.0176C26.7839 15.8376 28.4627 14.3876 28.9854 16.4276C29.535 18.5409 29.6757 21.5676 29.4076 25.5076C28.8145 34.1675 29.0357 42.0975 29.4278 50.4776C29.4405 50.8435 29.5594 51.1627 29.7595 51.3675C30.624 52.2476 36.6255 41.9475 37.289 41.1276C37.504 40.8616 37.7827 40.6755 38.0831 40.5976C41.2296 39.7776 39.7418 43.2275 38.8873 44.3675C33.3181 51.7609 29.9706 60.0042 28.8447 69.0976Z" fill="#373A4C"/>
</svg>
