<svg width="169" height="204" viewBox="0 0 169 204" fill="none" xmlns="http://www.w3.org/2000/svg">
<path d="M78.2978 32.4031C78.0857 34.9292 78.632 37.0373 79.5181 37.1117C80.4042 37.1861 81.2944 35.1986 81.5065 32.6725C81.7187 30.1464 81.1723 28.0383 80.2863 27.9639C79.4002 27.8895 78.51 29.877 78.2978 32.4031Z" fill="#391717"/>
<path d="M145.101 154.628C143.051 153.308 143.181 146.848 143.111 144.548C143.091 144.054 143.291 143.941 143.711 144.208C147.161 146.398 146.051 150.358 146.391 153.838C146.504 154.998 146.074 155.261 145.101 154.628Z" fill="#4E0F0C"/>
<path d="M25.3906 184.847C25.1106 188.207 24.9473 191.581 24.9006 194.967C24.8606 197.537 23.6406 197.287 21.6806 196.757C21.5665 196.727 21.4606 196.671 21.3697 196.593C21.2788 196.515 21.2048 196.416 21.1523 196.302C21.0998 196.189 21.0698 196.063 21.0644 195.933C21.0589 195.803 21.0781 195.672 21.1206 195.547C22.1473 192.474 22.564 189.311 22.3706 186.057C22.3582 185.859 22.3233 185.676 22.2681 185.521C22.2129 185.366 22.1387 185.242 22.0506 185.157C21.4506 184.564 20.6473 184.351 19.6406 184.517C20.274 183.164 21.2006 182.114 22.4206 181.367C22.5861 181.268 22.7758 181.218 22.9765 181.221C23.1772 181.224 23.3839 181.281 23.5821 181.386C23.7804 181.492 23.9653 181.645 24.124 181.833C24.2827 182.022 24.4112 182.242 24.5006 182.477L25.3906 184.847Z" fill="#DF5D3D"/>
<path d="M98.4303 53.8075C99.137 56.6942 100.54 59.1942 102.64 61.3075C101.94 61.3175 99.8604 73.8975 104.13 69.9075C104.244 69.7999 104.335 69.6702 104.399 69.526C104.462 69.3818 104.497 69.226 104.5 69.0675C104.56 66.3342 103.94 63.7475 102.64 61.3075L103.6 61.5575L106.64 69.7675C106.354 71.0142 106.454 72.0942 106.94 73.0075C113.74 85.7275 120.544 98.4508 127.35 111.177C127.441 111.344 127.497 111.516 127.513 111.676C127.529 111.836 127.504 111.978 127.44 112.088L127.14 112.597C122 110.147 125.68 124.828 128.07 122.698C128.189 122.592 128.282 122.459 128.342 122.308C128.403 122.157 128.43 121.993 128.42 121.828L127.93 114.308L130.39 115.518L130.68 115.808C130.587 116.241 130.59 116.558 130.69 116.758C134.43 124.404 138.784 131.694 143.75 138.628C145.29 140.681 146.71 142.834 148.01 145.088C148.62 146.138 148.1 146.937 148.67 147.857C153.024 154.877 157.754 161.638 162.86 168.138C164.42 170.128 166.73 171.567 168.47 173.667C168.569 173.791 168.637 173.934 168.669 174.086C168.7 174.237 168.694 174.392 168.65 174.537C167.24 179.337 162.77 175.977 160.57 174.167C159.657 173.407 159.137 173.594 159.01 174.727C158.704 177.507 157.354 178.087 154.96 176.467C154.856 176.395 154.751 176.277 154.651 176.121C154.551 175.964 154.459 175.773 154.38 175.557L153.66 173.537C153.603 173.373 153.496 173.225 153.348 173.108C153.201 172.99 153.019 172.907 152.82 172.867L147.14 171.777C147.01 171.752 146.875 171.761 146.747 171.803C146.619 171.846 146.501 171.921 146.401 172.023C146.3 172.125 146.222 172.251 146.17 172.392C146.118 172.533 146.094 172.686 146.1 172.838C146.207 175.591 144.954 176.344 142.34 175.097C142.284 175.07 142.21 174.981 142.128 174.84C142.046 174.7 141.96 174.514 141.88 174.307L140.72 171.237C140.669 171.097 140.563 170.973 140.416 170.879C140.269 170.785 140.086 170.725 139.89 170.708L133.64 170.097L131.43 170.307L126.39 168.597L127.74 167.638C127.839 167.569 127.925 167.452 127.991 167.297C128.058 167.141 128.102 166.953 128.12 166.747C128.42 163.658 129.48 153.448 127.13 155.898C126.957 156.071 126.831 156.387 126.78 156.777L125.14 168.518L118.81 167.648C118.682 167.629 118.552 167.638 118.428 167.675C118.304 167.713 118.189 167.777 118.092 167.863C117.995 167.95 117.917 168.057 117.865 168.177C117.813 168.297 117.788 168.427 117.79 168.557L118.04 183.057C118.067 184.537 117.524 185.597 116.41 186.237C114.02 187.607 113.46 184.967 113.73 183.188C114.27 179.701 114.467 175.571 114.32 170.797C114.214 167.144 112.32 165.494 108.64 165.847C107.06 165.237 107.03 163.257 106.15 161.987C106.064 161.865 105.94 161.773 105.799 161.728C105.658 161.683 105.507 161.686 105.37 161.737C103.89 162.291 103.134 163.291 103.1 164.737L97.9404 163.888C97.8088 163.867 97.6744 163.874 97.5453 163.909C97.4161 163.943 97.295 164.005 97.1893 164.089C97.0835 164.173 96.9954 164.278 96.9303 164.399C96.8651 164.519 96.8243 164.651 96.8103 164.787L96.1404 171.307C96.1191 171.51 96.0553 171.699 95.9621 171.835C95.869 171.971 95.7537 172.044 95.6404 172.037L93.0603 171.917C92.9283 171.911 92.8059 171.817 92.7197 171.656C92.6334 171.494 92.5906 171.279 92.6004 171.057L92.9303 165.057C92.953 164.647 92.8277 164.242 92.5777 163.918C92.3276 163.595 91.9697 163.374 91.5703 163.297L81.4303 161.307C80.2837 160.441 79.967 159.424 80.4803 158.258C80.5752 158.041 80.649 157.836 80.6945 157.665C80.7401 157.493 80.7559 157.36 80.7404 157.277C80.4537 155.477 79.487 155.078 77.8403 156.078C77.7185 156.151 77.6158 156.271 77.5422 156.427C77.4686 156.583 77.4266 156.769 77.4203 156.967L77.2803 160.797C74.0937 160.964 71.1004 161.437 68.3004 162.217C67.9867 162.305 67.7079 162.488 67.502 162.74C67.2962 162.993 67.1733 163.303 67.1503 163.628C67.1103 164.088 66.9904 176.087 64.2404 171.527C63.2737 169.927 62.9237 168.188 63.1904 166.307C63.3037 165.474 63.0337 165.301 62.3804 165.787L58.2004 168.867C58.1138 168.934 58.0452 169.062 58.0028 169.238C57.9603 169.413 57.9456 169.628 57.9604 169.857C58.0704 171.247 57.9904 183.327 53.9104 179.867C51.8304 178.107 52.6404 174.368 53.5904 172.258C54.0904 171.131 53.857 170.901 52.8904 171.568L46.5604 175.948C45.3004 176.814 44.5604 177.927 44.3404 179.287C43.8904 182.037 44.1104 191.868 39.6704 190.148C39.3799 190.035 39.145 189.789 39.0076 189.452C38.8702 189.115 38.8393 188.709 38.9204 188.307L40.6304 179.568C40.7037 179.208 40.4937 179.121 40.0004 179.307L25.3904 184.847L24.5004 182.477C24.411 182.242 24.2824 182.022 24.1237 181.833C23.965 181.645 23.7801 181.492 23.5819 181.387C23.3836 181.281 23.1769 181.224 22.9762 181.221C22.7756 181.218 22.5858 181.268 22.4204 181.367C21.2004 182.114 20.2737 183.164 19.6404 184.518C17.627 184.471 15.877 184.897 14.3904 185.797C14.0464 186.003 13.7649 186.297 13.5763 186.65C13.3878 187.002 13.2992 187.399 13.3204 187.797C13.5137 191.877 13.6137 195.957 13.6204 200.037C13.627 202.917 12.3804 203.988 9.88035 203.247C9.74241 203.204 9.62269 203.115 9.53958 202.994C9.45648 202.872 9.41459 202.726 9.42035 202.578C9.60035 198.244 9.68368 193.961 9.67035 189.727C9.66035 185.187 5.50035 185.207 5.33035 189.867C5.25035 191.827 6.81035 201.888 2.13035 199.018C-4.39965 195.018 5.99035 178.707 7.88035 173.977C13.047 161.031 18.1237 148.054 23.1104 135.047C27.9004 122.537 32.0603 108.798 36.6203 97.3175C45.5404 74.8175 55.8204 52.6475 63.8804 29.8475C67.287 20.2141 70.9137 10.7208 74.7603 1.3675C75.507 -0.459167 76.2537 -0.455824 77.0004 1.37751L98.4303 53.8075ZM79.5163 37.1114C79.7269 37.1291 79.9455 37.0283 80.1595 36.8148C80.3734 36.6013 80.5786 36.2793 80.7632 35.8671C80.9479 35.4549 81.1084 34.9605 81.2356 34.4124C81.3629 33.8642 81.4543 33.2729 81.5047 32.6722C81.5552 32.0715 81.5636 31.4733 81.5296 30.9116C81.4956 30.3499 81.4197 29.8357 81.3064 29.3985C81.1931 28.9613 81.0445 28.6095 80.8692 28.3633C80.6938 28.1171 80.4951 27.9813 80.2845 27.9636C80.0738 27.9459 79.8552 28.0466 79.6412 28.2601C79.4273 28.4736 79.2221 28.7957 79.0375 29.208C78.8528 29.6202 78.6923 30.1145 78.5651 30.6627C78.4378 31.2108 78.3464 31.8021 78.2959 32.4028C78.2455 33.0034 78.2371 33.6017 78.2711 34.1634C78.3051 34.7251 78.381 35.2393 78.4943 35.6765C78.6076 36.1138 78.7562 36.4655 78.9315 36.7117C79.1069 36.9579 79.3056 37.0937 79.5163 37.1114ZM61.5336 52.945C62.0564 52.9935 62.6092 52.4872 63.0702 51.5374C63.5312 50.5876 63.8628 49.2721 63.9919 47.8804C64.121 46.4887 64.0371 45.1347 63.7586 44.1163C63.4802 43.0979 63.03 42.4986 62.5072 42.45C61.9843 42.4015 61.4315 42.9079 60.9705 43.8577C60.5095 44.8075 60.1779 46.1229 60.0488 47.5146C59.9197 48.9063 60.0036 50.2603 60.2821 51.2787C60.5605 52.2971 61.0107 52.8965 61.5336 52.945ZM79.4823 73.1887C79.9423 73.2265 80.4316 72.6757 80.8427 71.6577C81.2538 70.6396 81.553 69.2376 81.6745 67.7601C81.7959 66.2825 81.7297 64.8504 81.4904 63.7789C81.2511 62.7073 80.8583 62.0841 80.3983 62.0463C79.9384 62.0085 79.4491 62.5593 79.038 63.5773C78.6269 64.5954 78.3277 65.9974 78.2063 67.4749C78.0848 68.9525 78.151 70.3846 78.3903 71.4561C78.6296 72.5277 79.0224 73.1509 79.4823 73.1887ZM91.7014 82.0797C91.7413 81.6732 91.618 81.2676 91.3588 80.952C91.0995 80.6364 90.7255 80.4366 90.319 80.3968L90.1599 80.3812C89.7534 80.3414 89.3477 80.4646 89.0321 80.7238C88.7165 80.9831 88.5168 81.357 88.4769 81.7635L87.8992 87.6553C87.8594 88.0618 87.9827 88.4674 88.2419 88.783C88.5012 89.0986 88.8752 89.2984 89.2816 89.3382L89.4409 89.3538C89.8473 89.3937 90.253 89.2704 90.5686 89.0112C90.8842 88.7519 91.0839 88.378 91.1237 87.9715L91.7014 82.0797ZM60.5423 88.2464C60.5955 87.9677 60.5358 87.6792 60.3762 87.4445C60.2167 87.2098 59.9705 87.048 59.6918 86.9949L59.4365 86.9461C59.2984 86.9198 59.1566 86.9209 59.019 86.9493C58.8814 86.9778 58.7507 87.0332 58.6345 87.1122C58.5183 87.1912 58.4187 87.2923 58.3416 87.4097C58.2644 87.5272 58.2112 87.6587 58.1848 87.7967L56.6184 96.0086C56.5652 96.2874 56.6249 96.5758 56.7845 96.8105C56.944 97.0452 57.1902 97.2069 57.469 97.2601L57.7242 97.3089C57.8623 97.3352 58.0042 97.3341 58.1418 97.3056C58.2794 97.2771 58.41 97.2218 58.5262 97.1428C58.6425 97.0638 58.742 96.9627 58.8191 96.8453C58.8963 96.7278 58.9495 96.5964 58.9758 96.4583L60.5423 88.2464ZM103.764 106.901C103.967 106.947 104.205 106.837 104.463 106.576C104.72 106.315 104.993 105.908 105.266 105.379C105.539 104.85 105.806 104.209 106.052 103.492C106.298 102.775 106.518 101.997 106.7 101.203C106.882 100.408 107.023 99.6112 107.113 98.859C107.203 98.1067 107.242 97.4132 107.227 96.8181C107.211 96.2231 107.143 95.7381 107.024 95.3908C106.906 95.0435 106.74 94.8408 106.537 94.7942C106.333 94.7476 106.096 94.858 105.838 95.1191C105.58 95.3802 105.307 95.787 105.035 96.3161C104.762 96.8452 104.495 97.4864 104.249 98.203C104.003 98.9196 103.783 99.6976 103.6 100.493C103.418 101.287 103.278 102.084 103.188 102.836C103.098 103.588 103.059 104.282 103.074 104.877C103.089 105.472 103.158 105.957 103.276 106.304C103.395 106.651 103.56 106.854 103.764 106.901ZM69.2578 108.194C69.6319 108.257 70.071 107.837 70.4785 107.026C70.886 106.216 71.2285 105.082 71.4308 103.873C71.5309 103.275 71.5936 102.676 71.6152 102.112C71.6368 101.547 71.617 101.027 71.5568 100.582C71.4967 100.137 71.3973 99.7757 71.2645 99.5181C71.1317 99.2605 70.9681 99.1119 70.7829 99.0809C70.4088 99.0183 69.9697 99.4383 69.5622 100.249C69.1547 101.059 68.8122 102.193 68.61 103.401C68.5098 104 68.4471 104.599 68.4255 105.163C68.4039 105.728 68.4237 106.248 68.4839 106.693C68.544 107.138 68.6434 107.499 68.7762 107.757C68.909 108.015 69.0726 108.163 69.2578 108.194ZM87.1039 122.595C87.316 122.632 87.5505 122.53 87.7941 122.295C88.0376 122.06 88.2853 121.696 88.5232 121.224C88.7611 120.752 88.9843 120.181 89.1803 119.545C89.3763 118.908 89.5412 118.217 89.6655 117.512C89.7897 116.807 89.871 116.102 89.9047 115.437C89.9383 114.771 89.9237 114.159 89.8616 113.634C89.7995 113.109 89.6912 112.682 89.5428 112.378C89.3944 112.074 89.2088 111.898 88.9967 111.86C88.7847 111.823 88.5502 111.925 88.3066 112.16C88.0631 112.395 87.8154 112.759 87.5775 113.231C87.3397 113.703 87.1164 114.274 86.9204 114.91C86.7244 115.547 86.5595 116.238 86.4353 116.943C86.311 117.648 86.2297 118.353 86.196 119.018C86.1624 119.684 86.177 120.296 86.2391 120.821C86.3012 121.346 86.4095 121.773 86.5579 122.077C86.7063 122.381 86.8918 122.557 87.1039 122.595ZM56.8425 123.04C57.2468 123.098 57.705 122.659 58.1161 121.819C58.5273 120.98 58.8578 119.809 59.035 118.565C59.2121 117.32 59.2213 116.103 59.0607 115.183C58.9 114.262 58.5826 113.712 58.1783 113.655C57.7739 113.597 57.3157 114.036 56.9046 114.876C56.4934 115.715 56.1629 116.886 55.9858 118.131C55.8086 119.375 55.7994 120.591 55.96 121.512C56.1207 122.433 56.4381 122.983 56.8425 123.04ZM38.1075 122.617C38.1402 122.41 38.0894 122.199 37.9663 122.029C37.8431 121.86 37.6577 121.746 37.4507 121.714L36.5817 121.576C36.4792 121.56 36.3745 121.564 36.2736 121.588C36.1728 121.612 36.0776 121.656 35.9937 121.717C35.9098 121.778 35.8386 121.855 35.7844 121.943C35.7302 122.032 35.694 122.13 35.6778 122.232L34.4733 129.838C34.4405 130.045 34.4913 130.256 34.6144 130.426C34.7376 130.595 34.923 130.709 35.1299 130.742L35.9991 130.879C36.1015 130.895 36.2062 130.891 36.3071 130.867C36.408 130.843 36.5031 130.799 36.587 130.738C36.671 130.677 36.7421 130.6 36.7963 130.512C36.8505 130.423 36.8867 130.325 36.903 130.222L38.1075 122.617ZM110.999 126.278C111.012 125.973 110.904 125.676 110.698 125.451C110.492 125.226 110.205 125.092 109.9 125.079L109.581 125.065C109.276 125.052 108.979 125.16 108.754 125.366C108.529 125.572 108.395 125.859 108.382 126.164L108.082 133.037C108.068 133.342 108.177 133.639 108.383 133.864C108.589 134.089 108.876 134.223 109.18 134.236L109.5 134.25C109.805 134.263 110.102 134.155 110.327 133.949C110.552 133.743 110.686 133.456 110.699 133.151L110.999 126.278ZM68.3105 140.724C68.4925 140.75 68.6925 140.635 68.8988 140.387C69.1052 140.139 69.314 139.763 69.5134 139.279C69.7127 138.795 69.8986 138.213 70.0604 137.567C70.2223 136.92 70.357 136.222 70.4568 135.512C70.5565 134.802 70.6195 134.094 70.642 133.428C70.6645 132.763 70.6462 132.152 70.588 131.632C70.5298 131.112 70.433 130.692 70.3029 130.397C70.1729 130.101 70.0123 129.936 69.8302 129.911C69.6482 129.885 69.4482 129.999 69.2419 130.248C69.0355 130.496 68.8267 130.872 68.6273 131.356C68.428 131.84 68.2421 132.422 68.0803 133.068C67.9184 133.715 67.7837 134.413 67.6839 135.123C67.5842 135.833 67.5212 136.541 67.4987 137.207C67.4762 137.872 67.4945 138.483 67.5527 139.003C67.6109 139.523 67.7077 139.943 67.8378 140.238C67.9678 140.534 68.1284 140.699 68.3105 140.724ZM145.1 154.628C146.074 155.261 146.504 154.998 146.39 153.838C146.05 150.358 147.16 146.398 143.71 144.208C143.29 143.941 143.09 144.054 143.11 144.547C143.18 146.847 143.05 153.307 145.1 154.628ZM43.7148 153.211C43.9181 153.222 44.1255 153.116 44.3251 152.9C44.5248 152.684 44.7128 152.362 44.8784 151.952C45.044 151.543 45.1839 151.053 45.2903 150.512C45.3967 149.971 45.4673 149.389 45.4982 148.799C45.5292 148.208 45.5198 147.622 45.4706 147.073C45.4213 146.523 45.3333 146.022 45.2114 145.597C45.0895 145.172 44.9363 144.832 44.7603 144.597C44.5843 144.361 44.3891 144.234 44.1859 144.224C43.9826 144.213 43.7752 144.319 43.5756 144.535C43.3759 144.751 43.188 145.073 43.0224 145.483C42.8568 145.892 42.7168 146.382 42.6104 146.923C42.504 147.464 42.4334 148.046 42.4025 148.636C42.3715 149.227 42.3809 149.813 42.4302 150.362C42.4794 150.912 42.5674 151.413 42.6893 151.838C42.8112 152.263 42.9645 152.603 43.1404 152.838C43.3164 153.074 43.5116 153.201 43.7148 153.211ZM93.9792 154.392C94.1446 154.422 94.3302 154.331 94.5253 154.123C94.7204 153.916 94.9212 153.597 95.1163 153.184C95.3114 152.77 95.497 152.272 95.6623 151.716C95.8277 151.16 95.9697 150.558 96.0802 149.944C96.3032 148.704 96.3845 147.491 96.306 146.572C96.2275 145.653 95.9957 145.103 95.6615 145.043C95.4961 145.013 95.3105 145.104 95.1154 145.312C94.9203 145.519 94.7195 145.838 94.5244 146.251C94.3293 146.664 94.1437 147.163 93.9784 147.719C93.813 148.275 93.671 148.877 93.5605 149.491C93.3375 150.731 93.2562 151.944 93.3347 152.863C93.4132 153.782 93.6451 154.332 93.9792 154.392ZM25.9315 167.253C26.1089 167.282 26.3051 167.188 26.5087 166.976C26.7124 166.763 26.9195 166.437 27.1182 166.015C27.317 165.593 27.5035 165.085 27.6672 164.518C27.8308 163.951 27.9684 163.337 28.072 162.711C28.2812 161.448 28.3394 160.212 28.2339 159.276C28.1284 158.341 27.8677 157.782 27.5092 157.722C27.3318 157.693 27.1356 157.787 26.932 157.999C26.7283 158.212 26.5212 158.538 26.3225 158.96C26.1237 159.381 25.9372 159.89 25.7735 160.457C25.6099 161.024 25.4724 161.638 25.3688 162.264C25.1595 163.527 25.1013 164.763 25.2068 165.699C25.3123 166.634 25.573 167.193 25.9315 167.253ZM65.1768 162.736C65.3148 162.613 65.4182 162.453 65.4811 162.267C65.544 162.081 65.5651 161.871 65.5432 161.65C65.5214 161.429 65.457 161.202 65.3537 160.98C65.2505 160.758 65.1104 160.547 64.9415 160.358C64.6003 159.976 64.1624 159.709 63.724 159.616C63.2856 159.522 62.8827 159.609 62.6039 159.859C62.4659 159.982 62.3625 160.142 62.2996 160.328C62.2367 160.514 62.2156 160.724 62.2375 160.945C62.2593 161.166 62.3237 161.393 62.427 161.615C62.5302 161.837 62.6703 162.048 62.8393 162.237C63.1804 162.619 63.6184 162.886 64.0567 162.979C64.4951 163.073 64.898 162.986 65.1768 162.736Z" fill="#FC6139"/>
<path d="M60.0506 47.5145C59.7818 50.4126 60.4465 52.8438 61.5353 52.9449C62.6242 53.0459 63.7248 50.7784 63.9937 47.8803C64.2625 44.9822 63.5978 42.5509 62.5089 42.4499C61.4201 42.3489 60.3195 44.6164 60.0506 47.5145Z" fill="#461612"/>
<path d="M98.4297 53.8076H98.9097C99.0425 53.8076 99.1757 53.8485 99.2954 53.926C99.4151 54.0034 99.5168 54.1145 99.5897 54.2476L103.6 61.5576L102.64 61.3076C100.54 59.1943 99.1364 56.6943 98.4297 53.8076Z" fill="#F4D39A"/>
<path d="M102.641 61.3076C103.941 63.7476 104.561 66.3343 104.501 69.0676C104.497 69.2261 104.463 69.3819 104.399 69.5261C104.336 69.6703 104.245 69.8 104.131 69.9076C99.8608 73.8976 101.941 61.3176 102.641 61.3076Z" fill="#270605"/>
<path d="M78.2065 67.475C77.9535 70.5519 78.5248 73.1101 79.4826 73.1888C80.4403 73.2675 81.4218 70.8371 81.6748 67.7602C81.9277 64.6833 81.3564 62.1251 80.3987 62.0464C79.4409 61.9677 78.4594 64.3981 78.2065 67.475Z" fill="#461612"/>
<path d="M106.64 69.7676C110.44 75.8076 112.31 81.4175 115.41 85.6075C115.597 85.8609 115.72 86.1609 115.78 86.5076C116.1 88.3376 117.55 89.1875 118.33 90.4875C123.083 98.4809 127.103 106.824 130.39 115.518L127.93 114.308L127.14 112.598L127.44 112.088C127.503 111.978 127.529 111.836 127.513 111.676C127.497 111.516 127.441 111.344 127.35 111.178C120.543 98.4509 113.74 85.7276 106.94 73.0076C106.453 72.0942 106.353 71.0142 106.64 69.7676Z" fill="#F1DDB1"/>
<path d="M90.3208 80.3968L90.1616 80.3812C89.3151 80.2982 88.5616 80.9171 88.4786 81.7636L87.9009 87.6554C87.8179 88.5018 88.4369 89.2553 89.2833 89.3383L89.4425 89.3539C90.289 89.4369 91.0425 88.818 91.1255 87.9715L91.7032 82.0798C91.7862 81.2333 91.1673 80.4798 90.3208 80.3968Z" fill="#591A0F"/>
<path d="M59.6932 86.9948L59.4378 86.9461C58.8573 86.8354 58.297 87.2162 58.1862 87.7967L56.6197 96.0086C56.509 96.5891 56.8898 97.1494 57.4703 97.2601L57.7257 97.3088C58.3061 97.4196 58.8665 97.0388 58.9772 96.4583L60.5437 88.2464C60.6544 87.6659 60.2736 87.1056 59.6932 86.9948Z" fill="#4E0F0C"/>
<path d="M103.6 100.493C102.834 103.836 102.907 106.705 103.763 106.901C104.619 107.097 105.934 104.546 106.7 101.203C107.465 97.8596 107.392 94.9905 106.536 94.7944C105.68 94.5984 104.365 97.1496 103.6 100.493Z" fill="#4E0F0C"/>
<path d="M68.612 103.401C68.1909 105.918 68.4809 108.064 69.2599 108.194C70.0388 108.325 71.0117 106.39 71.4328 103.874C71.8539 101.357 71.5639 99.2112 70.7849 99.0809C70.006 98.9505 69.0331 100.885 68.612 103.401Z" fill="#4E0F0C"/>
<path d="M86.4367 116.943C85.9141 119.907 86.2134 122.437 87.1054 122.595C87.9974 122.752 89.1442 120.476 89.6669 117.512C90.1896 114.548 89.8902 112.018 88.9982 111.86C88.1062 111.703 86.9594 113.978 86.4367 116.943Z" fill="#461612"/>
<path d="M127.142 112.598L127.932 114.308L128.422 121.828C128.431 121.993 128.405 122.157 128.344 122.308C128.283 122.459 128.19 122.592 128.072 122.698C125.682 124.828 122.002 110.148 127.142 112.598Z" fill="#4E0F0C"/>
<path d="M55.986 118.131C55.6171 120.723 56.0007 122.921 56.8427 123.041C57.6848 123.16 58.6664 121.156 59.0353 118.565C59.4041 115.973 59.0205 113.775 58.1785 113.655C57.3365 113.535 56.3548 115.539 55.986 118.131Z" fill="#461612"/>
<path d="M130.681 115.808C133.831 118.848 134.921 122.558 137.361 125.808C140.241 129.648 142.371 133.921 143.751 138.628C138.784 131.694 134.431 124.404 130.691 116.758C130.591 116.558 130.588 116.241 130.681 115.808Z" fill="#F4D39A"/>
<path d="M37.4502 121.713L36.5811 121.576C36.1501 121.507 35.7455 121.801 35.6772 122.232L34.4727 129.838C34.4044 130.269 34.6984 130.673 35.1293 130.741L35.9985 130.879C36.4294 130.947 36.8341 130.653 36.9024 130.222L38.1069 122.617C38.1752 122.186 37.8812 121.782 37.4502 121.713Z" fill="#391717"/>
<path d="M109.902 125.079L109.582 125.065C108.948 125.037 108.411 125.529 108.383 126.164L108.083 133.037C108.056 133.672 108.548 134.208 109.182 134.236L109.502 134.25C110.136 134.278 110.673 133.786 110.701 133.151L111.001 126.278C111.029 125.643 110.537 125.106 109.902 125.079Z" fill="#591A0F"/>
<path d="M67.6861 135.123C67.2664 138.109 67.5469 140.617 68.3126 140.724C69.0783 140.832 70.0392 138.498 70.4589 135.512C70.8785 132.526 70.598 130.018 69.8324 129.911C69.0667 129.803 68.1058 132.137 67.6861 135.123Z" fill="#461612"/>
<path d="M42.4031 148.636C42.273 151.118 42.8606 153.166 43.7155 153.211C44.5703 153.256 45.3688 151.28 45.4989 148.799C45.6289 146.317 45.0414 144.268 44.1865 144.224C43.3316 144.179 42.5332 146.154 42.4031 148.636Z" fill="#391717"/>
<path d="M93.5612 149.491C93.0966 152.073 93.284 154.268 93.9798 154.393C94.6756 154.518 95.6162 152.526 96.0807 149.944C96.5453 147.363 96.3579 145.168 95.6621 145.043C94.9664 144.918 94.0257 146.909 93.5612 149.491Z" fill="#14181E"/>
<path d="M81.4319 161.308C80.6252 167.721 80.4352 174.128 80.8619 180.528C81.0219 182.974 80.0552 184.408 77.9619 184.828C77.6409 184.898 77.305 184.845 77.0219 184.678C75.4519 183.738 74.8619 182.558 75.4219 180.678C77.3486 174.191 77.9686 167.564 77.2819 160.798L77.4219 156.968C77.4281 156.77 77.4701 156.583 77.5437 156.427C77.6173 156.271 77.72 156.151 77.8419 156.078C79.4886 155.078 80.4552 155.478 80.7419 157.278C80.7574 157.36 80.7416 157.493 80.6961 157.665C80.6505 157.837 80.5768 158.041 80.4819 158.258C79.9686 159.424 80.2852 160.441 81.4319 161.308Z" fill="#DF5D3D"/>
<path d="M126.391 168.597L125.141 168.517L126.781 156.777C126.832 156.387 126.957 156.071 127.131 155.897C129.481 153.447 128.421 163.657 128.121 166.747C128.102 166.953 128.058 167.141 127.992 167.297C127.925 167.452 127.839 167.569 127.741 167.637L126.391 168.597Z" fill="#090D11"/>
<path d="M25.3673 162.264C24.9316 164.896 25.1836 167.129 25.93 167.253C26.6765 167.376 27.6348 165.343 28.0705 162.711C28.5062 160.08 28.2542 157.846 27.5078 157.723C26.7613 157.599 25.803 159.632 25.3673 162.264Z" fill="#270605"/>
<path d="M62.8404 162.237C63.5509 163.032 64.5974 163.255 65.1779 162.736C65.7585 162.217 65.6531 161.152 64.9427 160.358C64.2322 159.563 63.1856 159.34 62.6051 159.859C62.0246 160.378 62.13 161.443 62.8404 162.237Z" fill="#C73721"/>
<path d="M108.642 165.848C108.035 168.608 107.892 171.454 108.212 174.388C108.236 174.619 108.224 174.839 108.178 175.021C108.132 175.203 108.054 175.34 107.952 175.418C106.765 176.331 105.518 176.334 104.212 175.428C104.088 175.344 103.983 175.222 103.907 175.071C103.831 174.92 103.784 174.744 103.772 174.558L103.102 164.738C103.135 163.291 103.892 162.291 105.372 161.738C105.508 161.686 105.659 161.683 105.8 161.728C105.941 161.774 106.065 161.865 106.152 161.988C107.032 163.258 107.062 165.238 108.642 165.848Z" fill="#DF5D3D"/>
<path d="M133.642 170.098C133.142 171.838 134.322 178.268 130.302 175.388C130.031 175.201 129.842 174.926 129.772 174.618C129.338 172.791 129.892 171.354 131.432 170.308L133.642 170.098Z" fill="#E66B4E"/>
</svg>
