<svg width="170" height="151" viewBox="0 0 170 151" fill="none" xmlns="http://www.w3.org/2000/svg">
<path d="M17.9168 142.96C33.8302 157.53 58.7508 146.91 71.5178 133.97C74.4196 131.037 78.1626 125.914 82.7466 118.6C92.7725 102.62 99.4843 92.4335 102.882 88.0402C106.655 83.1602 110.345 79.2435 113.95 76.2902C136.257 58.0302 162.615 38.5502 168.134 8.72021C169.933 -1.00979 156.815 0.860194 150.09 1.77019C136.237 3.63019 123.561 9.73019 111.155 17.3302C96.5087 26.2902 80.3239 32.5002 65.7676 41.4902C56.7939 47.0369 47.9576 52.7935 39.2587 58.7602C31.2902 64.2135 26.6023 67.5502 25.195 68.7702C15.2026 77.4202 8.15566 90.6402 3.14942 102.17C2.08384 104.624 1.41702 106.904 1.14895 109.01C-0.308693 120.65 9.20114 134.99 17.9168 142.96Z" stroke="#F6B1A6" stroke-width="2"/>
<path d="M80.6653 63.6701C64.0984 76.1901 49.8739 91.6802 38.1223 108.63C37.2309 109.91 36.5206 111.283 35.9911 112.75C35.9447 112.881 35.9281 113.021 35.9425 113.159C35.9569 113.297 36.0019 113.43 36.0742 113.548C36.1465 113.666 36.2443 113.766 36.3604 113.841C36.4765 113.915 36.6079 113.963 36.7451 113.98C38.0653 114.153 39.1008 113.7 39.8514 112.62C50.1587 97.7001 62.1549 84.3135 75.84 72.4601C80.4843 68.4401 86.0233 64.5001 91.2105 60.5801C101.917 52.4901 111.728 43.2101 123.238 35.8901C129.887 31.6635 136.682 26.8535 143.625 21.4601C144.59 20.7068 145.163 19.8935 145.344 19.0201C145.532 18.1068 145.281 17.5868 144.59 17.4601C144.451 17.4346 144.294 17.4445 144.128 17.4892C143.962 17.5339 143.791 17.6125 143.625 17.7202C126.288 29.1068 115.645 36.3835 111.698 39.5501C101.464 47.7301 91.1201 55.7701 80.6653 63.6701Z" stroke="#8B5051" stroke-width="2"/>
<path d="M107.524 63.1706C107.201 63.987 107.158 64.8122 107.403 65.4806L109.826 72.0406C109.842 72.09 109.875 72.13 109.922 72.1573C109.97 72.1845 110.029 72.1982 110.097 72.1973C110.165 72.1963 110.239 72.1807 110.312 72.1517C110.386 72.1227 110.457 72.0812 110.52 72.0306C114.561 68.8106 111.987 64.9606 110.319 61.4406C110.276 61.3492 110.224 61.2634 110.164 61.1884C110.104 61.1134 110.039 61.0507 109.971 61.004C109.904 60.9574 109.836 60.9277 109.771 60.9168C109.706 60.9059 109.646 60.914 109.595 60.9406C108.616 61.4139 107.926 62.1572 107.524 63.1706Z" stroke="#F5AB9E" stroke-width="2"/>
<path d="M101.686 82.2011C101.942 82.1407 102.159 81.9223 102.323 81.5584C102.488 81.1945 102.596 80.6922 102.642 80.0801C102.689 79.4681 102.672 78.7583 102.594 77.9913C102.515 77.2243 102.377 76.4152 102.185 75.61C101.994 74.8049 101.754 74.0195 101.479 73.2988C101.204 72.578 100.899 71.9361 100.582 71.4095C100.265 70.8829 99.9419 70.482 99.6313 70.2297C99.3207 69.9774 99.0286 69.8787 98.7716 69.9391C98.5147 69.9995 98.298 70.2179 98.1338 70.5819C97.9696 70.9458 97.8612 71.4481 97.8148 72.0601C97.7684 72.6722 97.7849 73.382 97.8633 74.1489C97.9418 74.9159 98.0806 75.7251 98.272 76.5302C98.4633 77.3354 98.7033 78.1207 98.9784 78.8415C99.2535 79.5622 99.5583 80.2042 99.8753 80.7308C100.192 81.2574 100.515 81.6582 100.826 81.9105C101.136 82.1628 101.429 82.2616 101.686 82.2011Z" stroke="#F5AB9E" stroke-width="2"/>
<path d="M93.3811 94.6573C93.7005 94.599 93.9904 94.3977 94.234 94.0651C94.4777 93.7324 94.6705 93.2749 94.8013 92.7185C94.9322 92.1622 94.9985 91.5179 94.9965 90.8226C94.9946 90.1272 94.9245 89.3944 94.79 88.6659C94.5186 87.1947 94.002 85.8305 93.3539 84.8734C92.7058 83.9164 91.9793 83.4449 91.3342 83.5627C91.0148 83.621 90.7249 83.8222 90.4813 84.1549C90.2376 84.4875 90.0449 84.9451 89.914 85.5014C89.7832 86.0578 89.7169 86.702 89.7188 87.3974C89.7207 88.0928 89.7909 88.8256 89.9253 89.5541C90.1968 91.0253 90.7133 92.3895 91.3614 93.3465C92.0095 94.3036 92.736 94.7751 93.3811 94.6573Z" stroke="#F5AB9E" stroke-width="2"/>
<path d="M86.3379 103.466C86.8755 103.261 87.1998 102.568 87.2394 101.54C87.2791 100.513 87.0308 99.2345 86.5493 97.9866C86.0677 96.7387 85.3923 95.6234 84.6717 94.8862C83.951 94.149 83.2441 93.8502 82.7065 94.0555C82.1689 94.2608 81.8445 94.9534 81.8049 95.981C81.7652 97.0086 82.0135 98.2869 82.495 99.5348C82.9766 100.783 83.652 101.898 84.3727 102.635C85.0933 103.372 85.8002 103.671 86.3379 103.466Z" stroke="#F5AB9E" stroke-width="2"/>
<path d="M75.1121 117.801C75.2092 117.92 75.3373 118.007 75.4841 118.054C75.6309 118.102 75.7915 118.108 75.9507 118.071C76.1099 118.035 76.2624 117.958 76.3936 117.848C76.5249 117.738 76.6305 117.598 76.7004 117.441C78.1748 114.181 77.8464 111.091 75.7153 108.171C75.6669 108.105 75.6071 108.048 75.5403 108.003C75.4736 107.959 75.4017 107.928 75.3301 107.914C75.2584 107.899 75.1889 107.901 75.1268 107.92C75.0646 107.939 75.0115 107.973 74.9714 108.021L72.4481 111.001C72.3686 111.095 72.3175 111.241 72.2998 111.425C72.2822 111.609 72.2986 111.825 72.3476 112.051C72.7966 114.204 73.7181 116.121 75.1121 117.801Z" stroke="#F5AB9E" stroke-width="2"/>
<path d="M66.3695 117.08C60.9109 118.04 63.8865 124.04 65.7865 126.63C65.8257 126.683 65.8732 126.729 65.9255 126.766C65.9779 126.803 66.0338 126.83 66.0894 126.844C66.145 126.858 66.1988 126.86 66.2472 126.849C66.2956 126.838 66.3373 126.814 66.3695 126.78C69.1909 123.84 69.4992 120.717 67.2944 117.41C67.2075 117.279 67.0734 117.178 66.909 117.12C66.7445 117.061 66.5568 117.047 66.3695 117.08Z" stroke="#F5AB9E" stroke-width="2"/>
<path d="M17.9168 142.96C9.20114 134.99 -0.308693 120.65 1.14895 109.01C1.41702 106.904 2.08384 104.624 3.14942 102.17C8.15566 90.6402 15.2026 77.4202 25.195 68.7702C26.6023 67.5502 31.2902 64.2135 39.2587 58.7602C47.9576 52.7935 56.7939 47.0369 65.7676 41.4902C80.3239 32.5002 96.5087 26.2902 111.155 17.3302C123.561 9.73019 136.237 3.63019 150.09 1.77019C156.815 0.860194 169.933 -1.00979 168.134 8.72021C162.615 38.5502 136.257 58.0302 113.95 76.2902C110.345 79.2435 106.655 83.1602 102.882 88.0402C99.4843 92.4335 92.7725 102.62 82.7466 118.6C78.1626 125.914 74.4196 131.037 71.5178 133.97C58.7508 146.91 33.8302 157.53 17.9168 142.96ZM80.6657 63.6702C64.0988 76.1902 49.8743 91.6802 38.1227 108.63C37.2314 109.91 36.521 111.284 35.9915 112.75C35.9452 112.881 35.9286 113.021 35.9429 113.159C35.9573 113.297 36.0023 113.43 36.0746 113.548C36.1469 113.666 36.2447 113.766 36.3608 113.841C36.4769 113.916 36.6084 113.963 36.7455 113.98C38.0657 114.154 39.1012 113.7 39.8518 112.62C50.1591 97.7002 62.1553 84.3135 75.8404 72.4602C80.4847 68.4402 86.0237 64.5002 91.2109 60.5802C101.917 52.4902 111.728 43.2102 123.239 35.8902C129.887 31.6635 136.683 26.8535 143.626 21.4602C144.591 20.7069 145.164 19.8935 145.345 19.0202C145.532 18.1069 145.281 17.5869 144.591 17.4602C144.451 17.4346 144.294 17.4445 144.128 17.4892C143.962 17.5339 143.791 17.6125 143.626 17.7202C126.288 29.1069 115.646 36.3835 111.698 39.5502C101.465 47.7302 91.1205 55.7702 80.6657 63.6702ZM147.55 38.3733C147.849 38.2711 148.098 38.0367 148.284 37.6833C148.47 37.3299 148.589 36.8646 148.635 36.3138C148.68 35.7631 148.65 35.1377 148.548 34.4734C148.446 33.809 148.273 33.1188 148.039 32.4421C147.566 31.0754 146.873 29.8467 146.112 29.0262C145.351 28.2058 144.586 27.8608 143.983 28.0671C143.685 28.1693 143.436 28.4037 143.25 28.7571C143.064 29.1105 142.945 29.5758 142.899 30.1266C142.854 30.6773 142.883 31.3027 142.986 31.967C143.088 32.6313 143.261 33.3216 143.495 33.9983C143.968 35.365 144.661 36.5937 145.422 37.4141C146.182 38.2346 146.948 38.5796 147.55 38.3733ZM133.04 37.6602C130.004 38.5102 132.648 44.4402 133.533 46.0102C133.624 46.1711 133.752 46.3084 133.906 46.4107C134.06 46.513 134.237 46.5776 134.421 46.599C134.606 46.6205 134.792 46.5982 134.967 46.5341C135.141 46.47 135.297 46.3659 135.423 46.2302C136.555 45.0235 136.559 42.5969 135.433 38.9502C135.064 37.7502 134.267 37.3202 133.04 37.6602ZM121.746 57.9169C122.412 57.7941 122.943 57.0994 123.222 55.9855C123.502 54.8716 123.507 53.4298 123.236 51.9773C123.102 51.2581 122.905 50.5579 122.655 49.9166C122.405 49.2754 122.107 48.7058 121.779 48.2402C121.451 47.7746 121.1 47.4222 120.744 47.2032C120.388 46.9841 120.035 46.9027 119.705 46.9635C119.039 47.0863 118.508 47.781 118.229 48.8949C117.949 50.0088 117.944 51.4506 118.215 52.9031C118.349 53.6223 118.547 54.3225 118.797 54.9637C119.047 55.6049 119.344 56.1746 119.672 56.6402C120 57.1058 120.352 57.4581 120.708 57.6772C121.064 57.8963 121.416 57.9777 121.746 57.9169ZM107.526 63.1702C107.203 63.9866 107.16 64.8119 107.406 65.4802L109.829 72.0402C109.845 72.0896 109.878 72.1297 109.925 72.1569C109.972 72.1842 110.032 72.1979 110.1 72.1969C110.167 72.1959 110.241 72.1803 110.315 72.1513C110.388 72.1223 110.459 72.0808 110.522 72.0302C114.563 68.8102 111.99 64.9602 110.321 61.4402C110.279 61.3488 110.226 61.263 110.167 61.188C110.107 61.113 110.041 61.0503 109.974 61.0037C109.906 60.957 109.838 60.9273 109.773 60.9164C109.709 60.9055 109.649 60.9136 109.597 60.9402C108.619 61.4135 107.929 62.1569 107.526 63.1702ZM101.685 82.2012C101.942 82.1408 102.159 81.9224 102.323 81.5585C102.487 81.1945 102.596 80.6922 102.642 80.0802C102.688 79.4681 102.672 78.7584 102.593 77.9914C102.515 77.2244 102.376 76.4152 102.185 75.6101C101.993 74.805 101.753 74.0196 101.478 73.2989C101.203 72.5781 100.898 71.9361 100.582 71.4095C100.265 70.8829 99.9415 70.4821 99.6309 70.2298C99.3203 69.9775 99.0282 69.8788 98.7712 69.9392C98.5143 69.9996 98.2976 70.218 98.1334 70.5819C97.9692 70.9459 97.8608 71.4482 97.8144 72.0602C97.768 72.6722 97.7845 73.382 97.8629 74.149C97.9414 74.916 98.0802 75.7252 98.2716 76.5303C98.4629 77.3354 98.7029 78.1208 98.978 78.8415C99.2531 79.5623 99.5579 80.2043 99.8749 80.7309C100.192 81.2575 100.515 81.6583 100.825 81.9106C101.136 82.1629 101.428 82.2616 101.685 82.2012ZM93.3804 94.6575C93.6998 94.5992 93.9896 94.3979 94.2333 94.0653C94.477 93.7327 94.6698 93.2751 94.8006 92.7187C94.9314 92.1624 94.9977 91.5181 94.9958 90.8228C94.9938 90.1274 94.9237 89.3946 94.7893 88.6661C94.5179 87.1949 94.0012 85.8307 93.3531 84.8736C92.705 83.9166 91.9786 83.4451 91.3335 83.5629C91.014 83.6212 90.7242 83.8224 90.4805 84.1551C90.2369 84.4877 90.0441 84.9453 89.9133 85.5016C89.7825 86.058 89.7161 86.7022 89.7181 87.3976C89.72 88.093 89.7902 88.8258 89.9246 89.5543C90.196 91.0255 90.7126 92.3897 91.3607 93.3467C92.0088 94.3038 92.7353 94.7753 93.3804 94.6575ZM86.3416 103.465C86.8792 103.26 87.2035 102.567 87.2432 101.54C87.2828 100.512 87.0346 99.234 86.553 97.9861C86.0715 96.7382 85.3961 95.623 84.6754 94.8857C83.9547 94.1485 83.2478 93.8497 82.7102 94.055C82.1726 94.2603 81.8483 94.953 81.8086 95.9805C81.769 97.0081 82.0172 98.2864 82.4988 99.5343C82.9803 100.782 83.6557 101.897 84.3764 102.635C85.0971 103.372 85.804 103.671 86.3416 103.465ZM75.1166 117.8C75.2137 117.919 75.3418 118.006 75.4886 118.053C75.6354 118.101 75.796 118.107 75.9552 118.071C76.1144 118.035 76.2669 117.958 76.3981 117.847C76.5294 117.737 76.635 117.597 76.7049 117.44C78.1793 114.18 77.8509 111.09 75.7198 108.17C75.6714 108.104 75.6116 108.047 75.5448 108.003C75.4781 107.958 75.4062 107.927 75.3346 107.913C75.2629 107.898 75.1934 107.901 75.1313 107.919C75.0692 107.938 75.016 107.972 74.9759 108.02L72.4526 111C72.3731 111.094 72.322 111.24 72.3043 111.424C72.2867 111.608 72.3031 111.824 72.3521 112.05C72.8011 114.204 73.7226 116.12 75.1166 117.8ZM66.3707 117.08C60.9121 118.04 63.8877 124.04 65.7877 126.63C65.827 126.683 65.8745 126.729 65.9268 126.766C65.9791 126.803 66.035 126.83 66.0906 126.844C66.1462 126.859 66.2001 126.86 66.2485 126.849C66.2969 126.838 66.3386 126.815 66.3707 126.78C69.1922 123.84 69.5005 120.717 67.2956 117.41C67.2087 117.279 67.0747 117.178 66.9102 117.12C66.7458 117.061 66.5581 117.047 66.3707 117.08Z" fill="#ED6A5B"/>
<path d="M39.5796 108.63C51.2696 91.6802 65.4196 76.1901 81.8996 63.6701C92.2996 55.7701 102.59 47.7301 112.77 39.5501C116.696 36.3835 127.283 29.1068 144.53 17.7202C144.694 17.6125 144.864 17.5339 145.029 17.4892C145.194 17.4445 145.351 17.4346 145.49 17.4601C146.176 17.5868 146.426 18.1068 146.24 19.0201C146.06 19.8935 145.49 20.7068 144.53 21.4601C137.623 26.8535 130.863 31.6635 124.25 35.8901C112.8 43.2101 103.04 52.4901 92.3896 60.5801C87.2296 64.5001 81.7196 68.4401 77.0996 72.4601C63.4863 84.3135 51.5529 97.7001 41.2996 112.62C40.5529 113.7 39.5229 114.153 38.2096 113.98C38.0732 113.963 37.9424 113.915 37.827 113.841C37.7115 113.766 37.6142 113.666 37.5422 113.548C37.4703 113.43 37.4256 113.297 37.4112 113.159C37.3969 113.021 37.4135 112.881 37.4596 112.75C37.9863 111.283 38.6929 109.91 39.5796 108.63Z" fill="#293546"/>
</svg>
