<svg width="89" height="104" viewBox="0 0 89 104" fill="none" xmlns="http://www.w3.org/2000/svg">
<path d="M39.4492 102.701C52.2492 104.651 66.2292 94.7612 73.6892 85.2112C80.4826 76.5179 84.7359 66.7079 86.4492 55.7812" stroke="#84838E" stroke-width="2"/>
<path d="M86.4492 55.7822C87.4892 49.4488 87.5592 43.1022 86.6592 36.7422" stroke="#9194A4" stroke-width="2"/>
<path d="M86.6592 36.7422C86.1592 31.7222 80.5892 9.13215 74.1992 8.95215" stroke="#868692" stroke-width="2"/>
<path d="M74.1998 8.95184C73.3864 7.80517 72.8664 7.15519 72.6398 7.00186C50.2798 -8.33814 15.0298 7.89185 5.44976 31.2718C-2.65691 51.0585 0.313098 69.0752 14.3598 85.3219C21.1798 93.2152 28.8098 98.9952 37.2498 102.662C37.6098 102.822 38.3431 102.835 39.4498 102.702" stroke="#FDE4A4" stroke-width="2"/>
<path d="M74.1991 8.95215C73.5791 9.18548 73.1924 9.95217 73.0391 11.2522" stroke="#866F48" stroke-width="2"/>
<path d="M73.0391 11.252L73.3091 17.222" stroke="#917D5A" stroke-width="2"/>
<path d="M73.3097 17.2227C72.923 22.8427 73.3064 28.4393 74.4597 34.0126" stroke="#A18B67" stroke-width="2"/>
<path d="M74.4592 34.0112C73.3525 36.5846 71.5159 37.4946 68.9492 36.7412C63.1426 35.0346 59.5592 34.0479 58.1992 33.7812" stroke="#917D5A" stroke-width="2"/>
<path d="M58.1968 33.7817C44.7968 31.4717 53.1168 53.5917 53.9068 59.0117C54.7868 65.0584 52.4635 68.1417 46.9368 68.2617C45.6301 68.2884 44.4968 67.8517 43.5368 66.9517C40.9668 64.5417 33.0768 55.6317 30.9868 64.2817C28.0668 76.3117 30.8768 88.8017 36.6568 99.4917" stroke="#8A724D" stroke-width="2"/>
<path d="M86.6591 36.7419C86.2924 37.0553 85.8524 37.1853 85.3391 37.132C85.1965 37.1195 85.0599 37.0567 84.9487 36.9526C84.8374 36.8486 84.7571 36.7084 84.7191 36.5519C83.2391 30.7719 81.4757 25.0919 79.4291 19.5119C78.1757 16.0853 76.0457 13.332 73.0391 11.252" stroke="#1A1F48" stroke-width="2"/>
<path d="M86.4492 55.7815C85.9426 55.7748 85.4559 55.9082 84.9892 56.1815C84.864 56.2569 84.7553 56.3648 84.6707 56.4978C84.5861 56.6308 84.5275 56.7856 84.4992 56.9515C80.5992 80.6815 63.4892 100.822 38.1992 101.702" stroke="#181C43" stroke-width="2"/>
<path d="M36.6577 99.4912C36.8577 98.5712 36.8744 97.9146 36.7077 97.5213C32.8977 88.6213 28.5977 72.5513 32.7577 63.3213C33.5777 61.5079 34.7077 61.2512 36.1477 62.5512L42.7177 68.4812C44.0511 69.6879 45.5344 70.1946 47.1677 70.0013C67.4877 67.6013 43.9177 37.3112 56.4677 35.0612C56.8439 34.99 57.1538 34.8491 57.3477 34.6613L58.1977 33.7812" stroke="#1E214C" stroke-width="2"/>
<path d="M74.4586 34.0126C74.4786 28.3726 74.0953 22.776 73.3086 17.2227" stroke="#353A66" stroke-width="2"/>
<path d="M60.8623 17.5952C60.4467 17.0516 59.8046 16.7165 59.0772 16.6636C58.3498 16.6107 57.5967 16.8443 56.9836 17.3131C56.68 17.5452 56.4199 17.828 56.2182 18.1455C56.0165 18.4629 55.8771 18.8087 55.8079 19.1632C55.7387 19.5176 55.7412 19.8738 55.8152 20.2113C55.8891 20.5488 56.0331 20.861 56.2389 21.1302C56.6545 21.6737 57.2966 22.0088 58.024 22.0617C58.7514 22.1146 59.5045 21.881 60.1176 21.4122C60.4212 21.1801 60.6813 20.8973 60.883 20.5798C61.0847 20.2624 61.2241 19.9166 61.2933 19.5621C61.3624 19.2077 61.36 18.8515 61.286 18.5141C61.2121 18.1766 61.0681 17.8643 60.8623 17.5952Z" stroke="#8D7443" stroke-width="2"/>
<path d="M36.078 39.2226C36.078 38.5383 35.8061 37.8821 35.3223 37.3983C34.8385 36.9144 34.1822 36.6426 33.498 36.6426C32.8137 36.6426 32.1575 36.9144 31.6736 37.3983C31.1898 37.8821 30.918 38.5383 30.918 39.2226C30.918 39.9069 31.1898 40.5631 31.6736 41.0469C32.1575 41.5307 32.8137 41.8026 33.498 41.8026C34.1822 41.8026 34.8385 41.5307 35.3223 41.0469C35.8061 40.5631 36.078 39.9069 36.078 39.2226Z" stroke="#8D7443" stroke-width="2"/>
<path d="M13.7674 63.7178C14.2922 64.1443 14.981 64.3253 15.6821 64.2208C16.3832 64.1164 17.0392 63.7351 17.5059 63.1608C17.7369 62.8765 17.9146 62.5533 18.0286 62.2098C18.1426 61.8663 18.1909 61.5091 18.1705 61.1587C18.1501 60.8084 18.0616 60.4716 17.9099 60.1677C17.7583 59.8637 17.5464 59.5986 17.2866 59.3874C16.7617 58.9609 16.073 58.7799 15.3719 58.8844C14.6708 58.9889 14.0147 59.3701 13.5481 59.9444C13.317 60.2287 13.1394 60.5519 13.0253 60.8954C12.9113 61.2389 12.8631 61.5961 12.8835 61.9465C12.9038 62.2969 12.9924 62.6336 13.144 62.9376C13.2957 63.2415 13.5075 63.5066 13.7674 63.7178Z" stroke="#947944" stroke-width="2"/>
<path d="M69.8213 56.0192C69.6221 55.7338 69.3582 55.4978 69.0444 55.3247C68.7306 55.1516 68.3731 55.0447 67.9924 55.0103C67.6118 54.9758 67.2153 55.0144 66.8256 55.1239C66.436 55.2333 66.0608 55.4115 65.7216 55.6481C65.3823 55.8848 65.0855 56.1754 64.8483 56.5032C64.611 56.8311 64.4379 57.1899 64.3388 57.5591C64.2397 57.9283 64.2165 58.3007 64.2707 58.6549C64.3248 59.0092 64.4551 59.3384 64.6542 59.6239C64.8534 59.9093 65.1173 60.1453 65.4311 60.3184C65.7449 60.4915 66.1024 60.5983 66.4831 60.6328C66.8638 60.6672 67.2602 60.6286 67.6499 60.5192C68.0395 60.4097 68.4147 60.2316 68.7539 59.9949C69.0932 59.7583 69.39 59.4677 69.6272 59.1398C69.8645 58.8119 70.0376 58.4531 70.1367 58.0839C70.2358 57.7148 70.259 57.3424 70.2048 56.9882C70.1507 56.6339 70.0204 56.3047 69.8213 56.0192Z" stroke="#8D7C61" stroke-width="2"/>
<path d="M74.1998 8.95184C73.5798 9.18517 73.1931 9.95186 73.0398 11.2519L73.3098 17.2219C72.9231 22.8419 73.3064 28.4385 74.4598 34.0118C73.3531 36.5852 71.5164 37.4952 68.9498 36.7418C63.1431 35.0352 59.5598 34.0485 58.1998 33.7819C44.7998 31.4719 53.1198 53.5919 53.9098 59.0119C54.7898 65.0585 52.4664 68.1419 46.9398 68.2619C45.6331 68.2885 44.4998 67.8519 43.5398 66.9519C40.9698 64.5419 33.0798 55.6318 30.9898 64.2818C28.0698 76.3118 30.8798 88.8018 36.6598 99.4919L38.1998 101.702L39.4498 102.702C38.3431 102.835 37.6098 102.822 37.2498 102.662C28.8098 98.9952 21.1798 93.2152 14.3598 85.3219C0.313098 69.0752 -2.65691 51.0585 5.44976 31.2718C15.0298 7.89185 50.2798 -8.33814 72.6398 7.00186C72.8664 7.15519 73.3864 7.80517 74.1998 8.95184ZM60.8615 17.5944C60.4459 17.0508 59.8037 16.7157 59.0763 16.6628C58.3489 16.6099 57.5959 16.8435 56.9828 17.3123C56.6792 17.5444 56.4191 17.8272 56.2174 18.1447C56.0156 18.4621 55.8762 18.8079 55.8071 19.1624C55.7379 19.5168 55.7404 19.873 55.8143 20.2104C55.8883 20.5479 56.0323 20.8602 56.2381 21.1294C56.6537 21.6729 57.2958 22.008 58.0232 22.0609C58.7506 22.1138 59.5037 21.8802 60.1168 21.4114C60.4204 21.1793 60.6804 20.8965 60.8822 20.579C61.0839 20.2616 61.2233 19.9158 61.2925 19.5613C61.3616 19.2069 61.3591 18.8507 61.2852 18.5132C61.2112 18.1757 61.0673 17.8635 60.8615 17.5944ZM36.0798 39.2219C36.0798 38.5376 35.8079 37.8814 35.3241 37.3975C34.8402 36.9137 34.184 36.6418 33.4998 36.6418C32.8155 36.6418 32.1593 36.9137 31.6754 37.3975C31.1916 37.8814 30.9198 38.5376 30.9198 39.2219C30.9198 39.9061 31.1916 40.5623 31.6754 41.0462C32.1593 41.53 32.8155 41.8018 33.4998 41.8018C34.184 41.8018 34.8402 41.53 35.3241 41.0462C35.8079 40.5623 36.0798 39.9061 36.0798 39.2219ZM13.7702 63.7171C14.295 64.1436 14.9837 64.3245 15.6849 64.2201C16.386 64.1156 17.042 63.7343 17.5087 63.1601C17.7397 62.8757 17.9174 62.5526 18.0314 62.2091C18.1454 61.8656 18.1937 61.5084 18.1733 61.158C18.1529 60.8076 18.0644 60.4708 17.9127 60.1669C17.761 59.863 17.5492 59.5978 17.2894 59.3866C16.7645 58.9601 16.0758 58.7792 15.3747 58.8836C14.6736 58.9881 14.0175 59.3694 13.5509 59.9436C13.3198 60.228 13.1422 60.5511 13.0281 60.8946C12.9141 61.2381 12.8659 61.5953 12.8862 61.9457C12.9066 62.2961 12.9951 62.6329 13.1468 62.9368C13.2985 63.2407 13.5103 63.5059 13.7702 63.7171Z" fill="#FDCD5A"/>
<path d="M74.1991 8.95117C80.5891 9.13117 86.1591 31.7212 86.6591 36.7412C86.2924 37.0545 85.8524 37.1845 85.3391 37.1312C85.1965 37.1187 85.0599 37.056 84.9487 36.9519C84.8374 36.8478 84.7571 36.7076 84.7191 36.5512C83.2391 30.7712 81.4757 25.0912 79.4291 19.5112C78.1757 16.0845 76.0457 13.3312 73.0391 11.2512C73.1924 9.95119 73.5791 9.18451 74.1991 8.95117Z" fill="#0F1136"/>
<path d="M73.0377 11.252C76.0444 13.332 78.1744 16.0853 79.4277 19.5119C81.4744 25.0919 83.2377 30.7719 84.7177 36.5519C84.7557 36.7084 84.8361 36.8486 84.9473 36.9526C85.0586 37.0567 85.1952 37.1195 85.3377 37.132C85.8511 37.1853 86.291 37.0553 86.6577 36.7419C87.5577 43.1019 87.4877 49.4486 86.4477 55.7819C85.9411 55.7753 85.4544 55.9086 84.9877 56.1819C84.8625 56.2573 84.7538 56.3652 84.6692 56.4982C84.5846 56.6312 84.526 56.7861 84.4977 56.952C80.5977 80.682 63.4877 100.822 38.1977 101.702L36.6577 99.4919C36.8577 98.5719 36.8744 97.9153 36.7077 97.522C32.8977 88.622 28.5977 72.552 32.7577 63.322C33.5777 61.5086 34.7077 61.2519 36.1477 62.5519L42.7177 68.4819C44.0511 69.6886 45.5344 70.1953 47.1677 70.002C67.4877 67.602 43.9177 37.312 56.4677 35.062C56.8439 34.9907 57.1538 34.8498 57.3477 34.662L58.1977 33.782C59.5577 34.0486 63.1411 35.0353 68.9477 36.7419C71.5144 37.4953 73.351 36.5853 74.4577 34.0119C74.4777 28.3719 74.0944 22.7753 73.3077 17.222L73.0377 11.252ZM69.8212 56.0197C69.6221 55.7342 69.3581 55.4982 69.0443 55.3251C68.7305 55.152 68.3731 55.0451 67.9924 55.0107C67.6117 54.9762 67.2152 55.0148 66.8256 55.1243C66.4359 55.2337 66.0608 55.4119 65.7215 55.6486C65.3823 55.8852 65.0855 56.1758 64.8483 56.5037C64.611 56.8316 64.4379 57.1903 64.3388 57.5595C64.2397 57.9287 64.2165 58.3011 64.2706 58.6553C64.3248 59.0096 64.4551 59.3389 64.6542 59.6243C64.8533 59.9097 65.1173 60.1457 65.4311 60.3188C65.7449 60.4919 66.1023 60.5987 66.483 60.6332C66.8637 60.6676 67.2602 60.629 67.6499 60.5196C68.0395 60.4101 68.4146 60.232 68.7539 59.9954C69.0932 59.7587 69.3899 59.4681 69.6272 59.1402C69.8644 58.8123 70.0375 58.4535 70.1367 58.0844C70.2358 57.7152 70.2589 57.3428 70.2048 56.9886C70.1507 56.6343 70.0203 56.3051 69.8212 56.0197Z" fill="#252C59"/>
<path d="M60.1177 21.4118C61.3944 20.4357 61.7278 18.7267 60.8624 17.5947C59.997 16.4628 58.2604 16.3365 56.9836 17.3126C55.7069 18.2888 55.3735 19.9977 56.2389 21.1297C57.1044 22.2616 58.8409 22.3879 60.1177 21.4118Z" fill="#1D1B2B"/>
<path d="M73.3097 17.2217C74.0964 22.775 74.4797 28.3717 74.4597 34.0117C73.3064 28.4383 72.923 22.8417 73.3097 17.2217Z" fill="#444873"/>
<path d="M58.2007 33.7817L57.3507 34.6617C57.1568 34.8496 56.8469 34.9905 56.4707 35.0617C43.9207 37.3117 67.4907 67.6017 47.1707 70.0017C45.5374 70.1951 44.054 69.6884 42.7207 68.4817L36.1507 62.5517C34.7107 61.2517 33.5807 61.5084 32.7607 63.3217C28.6007 72.5517 32.9007 88.6217 36.7107 97.5217C36.8774 97.9151 36.8607 98.5717 36.6607 99.4917C30.8807 88.8017 28.0707 76.3117 30.9907 64.2817C33.0807 55.6317 40.9707 64.5417 43.5407 66.9517C44.5007 67.8517 45.634 68.2884 46.9407 68.2617C52.4674 68.1417 54.7907 65.0584 53.9107 59.0117C53.1207 53.5917 44.8007 31.4717 58.2007 33.7817Z" fill="#16163F"/>
<path d="M33.498 41.8016C34.9229 41.8016 36.078 40.6465 36.078 39.2216C36.078 37.7967 34.9229 36.6416 33.498 36.6416C32.0731 36.6416 30.918 37.7967 30.918 39.2216C30.918 40.6465 32.0731 41.8016 33.498 41.8016Z" fill="#1D1B2B"/>
<path d="M68.7565 59.9957C70.1833 59.0004 70.6611 57.2204 69.8238 56.0201C68.9864 54.8197 67.1509 54.6536 65.7241 55.6489C64.2973 56.6443 63.8194 58.4242 64.6568 59.6246C65.4942 60.8249 67.3297 60.9911 68.7565 59.9957Z" fill="#F4CB69"/>
<path d="M86.4492 55.7815C84.7359 66.7082 80.4826 76.5181 73.6892 85.2115C66.2292 94.7615 52.2492 104.652 39.4492 102.702L38.1992 101.702C63.4892 100.822 80.5992 80.6815 84.4992 56.9515C84.5275 56.7856 84.5861 56.6308 84.6707 56.4978C84.7553 56.3648 84.864 56.2569 84.9892 56.1815C85.4559 55.9082 85.9426 55.7748 86.4492 55.7815Z" fill="#0A0B2D"/>
<path d="M13.5521 59.9429C12.5803 61.1387 12.6785 62.8281 13.7714 63.7163C14.8644 64.6045 16.5382 64.3551 17.5099 63.1593C18.4817 61.9635 18.3835 60.2741 17.2906 59.3859C16.1977 58.4977 14.5239 58.7471 13.5521 59.9429Z" fill="#2A252E"/>
</svg>
