<svg width="146" height="139" viewBox="0 0 146 139" fill="none" xmlns="http://www.w3.org/2000/svg">
<path d="M64.1719 125.561C64.3652 125.381 64.8152 125.245 65.5219 125.151" stroke="#98842E" stroke-width="2"/>
<path d="M65.5213 125.151C67.9546 125.918 69.8546 125.144 71.2213 122.831C71.4172 122.498 71.6636 122.241 71.9313 122.091C74.9513 120.424 76.6346 117.841 76.9813 114.341C77.128 112.908 76.3746 111.974 74.7213 111.541C65.6113 109.181 76.4513 89.9711 83.7013 100.661C83.8953 100.952 83.9869 101.284 83.9613 101.601L83.6413 105.601C83.6213 105.821 83.5046 106.101 83.2913 106.441C82.6246 107.488 82.3313 108.624 82.4113 109.851C82.4208 109.961 82.4814 110.071 82.584 110.162C82.6866 110.254 82.8259 110.324 82.9813 110.361C94.7713 113.171 103.751 117.361 116.411 123.601C118.051 124.414 119.758 124.664 121.531 124.351C121.671 124.325 121.799 124.252 121.895 124.144C121.991 124.035 122.049 123.897 122.061 123.751C122.495 117.164 122.241 110.611 121.301 104.091C121.155 103.051 120.581 100.741 119.581 97.1611C118.688 93.9811 118.161 88.4444 118.001 80.5511C117.781 69.2311 134.981 56.8111 143.391 51.5011C145.145 50.3944 144.988 49.7744 142.921 49.6411C138.811 49.3711 134.931 48.2811 130.891 48.4011C122.781 48.6511 106.601 49.5511 100.371 43.3511C97.9913 40.9911 95.698 37.8878 93.4913 34.0411C87.3613 23.3511 82.0413 12.2811 75.5213 1.81108C74.8013 0.657749 74.2547 0.734419 73.8813 2.04109C72.5513 6.71109 70.4413 10.8811 69.5713 15.6211C67.8847 24.7277 65.268 33.5544 61.7213 42.1011C59.8413 46.6311 56.4013 49.2911 52.2213 51.3211C48.5013 53.1211 42.8813 52.3011 38.7113 52.3611C32.3513 52.4511 25.8313 54.6011 19.5213 55.8711C13.4113 57.0911 8.32131 56.2311 2.22131 59.8611C0.901308 60.6411 0.651308 61.4511 1.47131 62.2911C10.3113 71.3411 21.3413 78.5011 31.5213 85.9811C37.8313 90.6311 39.3713 99.0011 40.8513 105.761C41.8613 110.401 41.6113 114.861 43.0613 119.521C44.5513 124.291 43.8813 129.721 44.6513 134.681C45.078 137.414 46.3513 137.824 48.4713 135.911L61.5113 124.171C61.6379 124.057 61.7874 123.973 61.9474 123.928C62.1074 123.883 62.2733 123.877 62.4313 123.911C63.318 124.111 63.898 124.661 64.1713 125.561" stroke="#F8DC49" stroke-width="2"/>
<path d="M74.9057 109.488C75.2997 109.725 75.76 109.843 76.2604 109.834C76.7608 109.826 77.2914 109.692 77.8221 109.44C78.3527 109.188 78.8729 108.823 79.353 108.365C79.8331 107.908 80.2636 107.367 80.62 106.774C81.3399 105.576 81.7142 104.237 81.6606 103.052C81.607 101.866 81.1299 100.932 80.3343 100.454C79.9403 100.217 79.4799 100.1 78.9795 100.108C78.4791 100.116 77.9485 100.25 77.4179 100.502C76.8873 100.754 76.367 101.12 75.887 101.577C75.4069 102.034 74.9763 102.575 74.6199 103.169C73.9 104.367 73.5257 105.705 73.5793 106.891C73.6329 108.076 74.11 109.01 74.9057 109.488Z" stroke="#95853A" stroke-width="2"/>
<path d="M75.8542 37.2173C76.6801 37.6113 77.6835 37.5459 78.6437 37.0357C79.6039 36.5255 80.4423 35.6121 80.9743 34.4966C81.5064 33.3811 81.6886 32.1548 81.4809 31.0875C81.2731 30.0202 80.6925 29.1993 79.8667 28.8053C79.0408 28.4114 78.0374 28.4768 77.0772 28.987C76.117 29.4972 75.2786 30.4105 74.7466 31.526C74.2145 32.6415 74.0323 33.8679 74.24 34.9352C74.4478 36.0025 75.0284 36.8234 75.8542 37.2173Z" stroke="#9C8726" stroke-width="2"/>
<path d="M72.7637 52.53C73.3087 52.8587 74.0061 52.8845 74.7024 52.6015C75.3987 52.3185 76.037 51.75 76.4768 51.021C76.9165 50.2921 77.1217 49.4624 77.0473 48.7144C76.9729 47.9665 76.6249 47.3615 76.0798 47.0327C75.5348 46.704 74.8375 46.6782 74.1411 46.9612C73.4448 47.2442 72.8065 47.8127 72.3668 48.5417C71.927 49.2706 71.7218 50.1003 71.7962 50.8483C71.8706 51.5962 72.2187 52.2012 72.7637 52.53Z" stroke="#A98D22" stroke-width="2"/>
<path d="M46.1214 66.8713C46.2281 68.4913 47.1714 69.628 48.9514 70.2813C49.0927 70.3336 49.2471 70.3483 49.4007 70.3238C49.5544 70.2994 49.7024 70.2366 49.8313 70.1413C61.6113 61.4013 45.5314 58.3413 46.1214 66.8713Z" stroke="#9C8726" stroke-width="2"/>
<path d="M73.327 75.0467C73.7401 75.3049 74.2273 75.4357 74.7605 75.4317C75.2938 75.4277 75.8627 75.289 76.4349 75.0235C77.007 74.758 77.5712 74.3709 78.0951 73.8842C78.619 73.3976 79.0925 72.8209 79.4885 72.1873C79.8844 71.5536 80.1952 70.8753 80.4029 70.191C80.6106 69.5068 80.7112 68.83 80.699 68.1993C80.6869 67.5687 80.5621 66.9965 80.3319 66.5155C80.1017 66.0345 79.7706 65.654 79.3574 65.3959C78.9442 65.1377 78.4571 65.0069 77.9238 65.0108C77.3906 65.0148 76.8217 65.1535 76.2495 65.419C75.6774 65.6845 75.1132 66.0717 74.5892 66.5583C74.0653 67.045 73.5918 67.6216 73.1959 68.2553C72.7999 68.889 72.4892 69.5673 72.2815 70.2515C72.0738 70.9358 71.9732 71.6125 71.9854 72.2432C71.9975 72.8738 72.1223 73.446 72.3525 73.927C72.5827 74.408 72.9138 74.7885 73.327 75.0467Z" stroke="#9A8629" stroke-width="2"/>
<path d="M96.5773 74.3899C97.261 74.8321 98.1455 74.9024 99.0364 74.5853C99.9272 74.2682 100.751 73.5896 101.328 72.6989C101.904 71.8082 102.185 70.7783 102.109 69.8357C102.033 68.8932 101.606 68.1152 100.923 67.6729C100.239 67.2307 99.3546 67.1604 98.4637 67.4775C97.5729 67.7946 96.7486 68.4732 96.1724 69.3639C95.5962 70.2546 95.3152 71.2845 95.3911 72.2271C95.467 73.1696 95.8937 73.9476 96.5773 74.3899Z" stroke="#9C8726" stroke-width="2"/>
<path d="M51.4209 85.9946C51.7938 86.1333 52.2087 86.1483 52.6417 86.0386C53.0747 85.9288 53.5174 85.6966 53.9446 85.3552C54.3718 85.0137 54.7751 84.5697 55.1314 84.0485C55.4877 83.5273 55.79 82.9391 56.0211 82.3175C56.2523 81.696 56.4078 81.0531 56.4787 80.4258C56.5495 79.7984 56.5344 79.1988 56.4341 78.6612C56.3338 78.1236 56.1504 77.6585 55.8943 77.2925C55.6382 76.9265 55.3144 76.6667 54.9415 76.528C54.5685 76.3893 54.1537 76.3744 53.7207 76.4841C53.2876 76.5939 52.8449 76.8261 52.4177 77.1675C51.9905 77.509 51.5873 77.953 51.231 78.4742C50.8747 78.9954 50.5723 79.5836 50.3411 80.2051C50.11 80.8267 49.9545 81.4696 49.8837 82.0969C49.8128 82.7243 49.828 83.3239 49.9282 83.8615C50.0285 84.3991 50.2119 84.8642 50.468 85.2302C50.7241 85.5962 51.0479 85.8559 51.4209 85.9946Z" stroke="#9C8726" stroke-width="2"/>
<path d="M52.1566 106.481C52.4968 106.707 52.8902 106.846 53.3143 106.889C53.7385 106.933 54.185 106.88 54.6286 106.734C55.0721 106.589 55.5039 106.353 55.8992 106.04C56.2946 105.727 56.6459 105.344 56.9329 104.912C57.5126 104.039 57.7957 103.021 57.7199 102.082C57.644 101.142 57.2154 100.357 56.5285 99.901C56.1883 99.675 55.7949 99.5363 55.3707 99.4928C54.9466 99.4493 54.5001 99.502 54.0565 99.6477C53.613 99.7934 53.1812 100.029 52.7858 100.342C52.3905 100.655 52.0392 101.038 51.7521 101.47C51.1724 102.343 50.8894 103.361 50.9652 104.3C51.0411 105.24 51.4696 106.025 52.1566 106.481Z" stroke="#9C8726" stroke-width="2"/>
<path d="M99.1011 107.576C99.6261 107.854 100.297 107.804 100.967 107.437C101.636 107.07 102.25 106.416 102.672 105.619C103.094 104.822 103.29 103.948 103.217 103.188C103.144 102.427 102.808 101.844 102.283 101.566C101.758 101.288 101.087 101.338 100.417 101.705C99.7477 102.072 99.1344 102.726 98.7125 103.523C98.2905 104.32 98.0944 105.194 98.1673 105.955C98.2401 106.715 98.5761 107.298 99.1011 107.576Z" stroke="#A98D22" stroke-width="2"/>
<path d="M65.5213 125.151C64.8146 125.244 64.3647 125.381 64.1713 125.561C63.898 124.661 63.318 124.111 62.4313 123.911C62.2733 123.877 62.1074 123.883 61.9474 123.928C61.7874 123.973 61.6379 124.057 61.5113 124.171L48.4713 135.911C46.3513 137.824 45.078 137.414 44.6513 134.681C43.8813 129.721 44.5513 124.291 43.0613 119.521C41.6113 114.861 41.8613 110.401 40.8513 105.761C39.3713 99.0011 37.8313 90.6311 31.5213 85.9811C21.3413 78.5011 10.3113 71.3411 1.47131 62.2911C0.651308 61.4511 0.901308 60.6411 2.22131 59.8611C8.32131 56.2311 13.4113 57.0911 19.5213 55.8711C25.8313 54.6011 32.3513 52.4511 38.7113 52.3611C42.8813 52.3011 48.5013 53.1211 52.2213 51.3211C56.4013 49.2911 59.8413 46.6311 61.7213 42.1011C65.268 33.5544 67.8847 24.7277 69.5713 15.6211C70.4413 10.8811 72.5513 6.71109 73.8813 2.04109C74.2547 0.734419 74.8013 0.657749 75.5213 1.81108C82.0413 12.2811 87.3613 23.3511 93.4913 34.0411C95.698 37.8878 97.9913 40.9911 100.371 43.3511C106.601 49.5511 122.781 48.6511 130.891 48.4011C134.931 48.2811 138.811 49.3711 142.921 49.6411C144.988 49.7744 145.145 50.3944 143.391 51.5011C134.981 56.8111 117.781 69.2311 118.001 80.5511C118.161 88.4444 118.688 93.9811 119.581 97.1611C120.581 100.741 121.155 103.051 121.301 104.091C122.241 110.611 122.495 117.164 122.061 123.751C122.049 123.897 121.991 124.035 121.895 124.144C121.799 124.252 121.671 124.325 121.531 124.351C119.758 124.664 118.051 124.414 116.411 123.601C103.751 117.361 94.7713 113.171 82.9813 110.361C82.8259 110.324 82.6866 110.254 82.584 110.162C82.4814 110.071 82.4208 109.961 82.4113 109.851C82.3313 108.624 82.6246 107.488 83.2913 106.441C83.5046 106.101 83.6213 105.821 83.6413 105.601L83.9613 101.601C83.9869 101.284 83.8953 100.952 83.7013 100.661C76.4513 89.9711 65.6113 109.181 74.7213 111.541C76.3746 111.974 77.128 112.908 76.9813 114.341C76.6347 117.841 74.9513 120.424 71.9313 122.091C71.6636 122.241 71.4172 122.498 71.2213 122.831C69.8546 125.144 67.9546 125.918 65.5213 125.151ZM75.8551 37.2171C76.6809 37.611 77.6844 37.5457 78.6446 37.0354C79.6048 36.5252 80.4431 35.6119 80.9752 34.4964C81.5073 33.3809 81.6895 32.1546 81.4817 31.0873C81.274 30.0199 80.6934 29.199 79.8675 28.8051C79.0417 28.4112 78.0383 28.4765 77.0781 28.9867C76.1179 29.4969 75.2795 30.4103 74.7474 31.5258C74.2154 32.6413 74.0332 33.8676 74.2409 34.9349C74.4486 36.0022 75.0292 36.8232 75.8551 37.2171ZM72.7632 52.5297C73.3083 52.8585 74.0056 52.8842 74.702 52.6012C75.3983 52.3183 76.0366 51.7497 76.4763 51.0208C76.9161 50.2918 77.1213 49.4621 77.0469 48.7141C76.9724 47.9662 76.6244 47.3613 76.0794 47.0325C75.5344 46.7037 74.837 46.678 74.1407 46.9609C73.4443 47.2439 72.8061 47.8124 72.3663 48.5414C71.9266 49.2704 71.7213 50.1001 71.7958 50.848C71.8702 51.596 72.2182 52.2009 72.7632 52.5297ZM46.1213 66.8711C46.228 68.4911 47.1714 69.6277 48.9514 70.2811C49.0926 70.3334 49.247 70.348 49.4007 70.3236C49.5543 70.2991 49.7023 70.2364 49.8313 70.1411C61.6113 61.4011 45.5313 58.3411 46.1213 66.8711ZM73.3261 75.0465C73.7393 75.3047 74.2264 75.4355 74.7596 75.4315C75.2929 75.4276 75.8619 75.2888 76.434 75.0233C77.0062 74.7578 77.5703 74.3707 78.0942 73.884C78.6182 73.3974 79.0916 72.8208 79.4876 72.1871C79.8836 71.5534 80.1943 70.8751 80.402 70.1908C80.6097 69.5066 80.7104 68.8298 80.6982 68.1992C80.686 67.5685 80.5612 66.9963 80.331 66.5153C80.1008 66.0343 79.7697 65.6539 79.3565 65.3957C78.9433 65.1375 78.4562 65.0067 77.923 65.0106C77.3897 65.0146 76.8208 65.1533 76.2486 65.4188C75.6765 65.6843 75.1123 66.0715 74.5884 66.5581C74.0644 67.0448 73.591 67.6214 73.195 68.2551C72.799 68.8888 72.4883 69.5671 72.2806 70.2514C72.0729 70.9356 71.9723 71.6124 71.9845 72.243C71.9967 72.8736 72.1214 73.4458 72.3516 73.9268C72.5818 74.4079 72.9129 74.7883 73.3261 75.0465ZM96.5786 74.3896C97.2622 74.8318 98.1468 74.9021 99.0377 74.585C99.9285 74.2679 100.753 73.5893 101.329 72.6986C101.905 71.8079 102.186 70.778 102.11 69.8354C102.034 68.8928 101.608 68.1149 100.924 67.6726C100.24 67.2303 99.3559 67.1601 98.465 67.4772C97.5742 67.7943 96.7499 68.4729 96.1737 69.3636C95.5975 70.2543 95.3165 71.2842 95.3924 72.2268C95.4683 73.1693 95.895 73.9473 96.5786 74.3896ZM51.421 85.9944C51.794 86.1331 52.2088 86.148 52.6418 86.0383C53.0749 85.9286 53.5176 85.6964 53.9448 85.3549C54.3719 85.0134 54.7752 84.5695 55.1315 84.0483C55.4878 83.5271 55.7901 82.9389 56.0213 82.3173C56.2525 81.6957 56.408 81.0529 56.4788 80.4255C56.5497 79.7982 56.5345 79.1986 56.4343 78.661C56.334 78.1234 56.1506 77.6583 55.8945 77.2923C55.6384 76.9262 55.3146 76.6665 54.9416 76.5278C54.5687 76.3891 54.1539 76.3742 53.7208 76.4839C53.2878 76.5936 52.845 76.8258 52.4178 77.1673C51.9907 77.5087 51.5874 77.9527 51.2311 78.4739C50.8748 78.9951 50.5725 79.5833 50.3413 80.2049C50.1101 80.8265 49.9547 81.4693 49.8838 82.0967C49.813 82.724 49.8281 83.3236 49.9284 83.8612C50.0287 84.3988 50.2121 84.8639 50.4682 85.2299C50.7243 85.5959 51.0481 85.8557 51.421 85.9944ZM52.1554 106.481C52.4956 106.707 52.889 106.846 53.3131 106.889C53.7372 106.933 54.1838 106.88 54.6273 106.734C55.0708 106.589 55.5026 106.353 55.898 106.04C56.2934 105.727 56.6446 105.344 56.9317 104.912C57.5114 104.04 57.7945 103.021 57.7186 102.082C57.6428 101.142 57.2142 100.358 56.5272 99.9011C56.187 99.6751 55.7936 99.5364 55.3695 99.4929C54.9454 99.4494 54.4988 99.502 54.0553 99.6477C53.6118 99.7934 53.18 100.029 52.7846 100.342C52.3892 100.655 52.038 101.038 51.7509 101.47C51.1712 102.343 50.8881 103.361 50.964 104.301C51.0398 105.24 51.4684 106.025 52.1554 106.481ZM99.1003 107.576C99.6254 107.854 100.297 107.804 100.966 107.437C101.636 107.07 102.249 106.416 102.671 105.619C103.093 104.822 103.289 103.948 103.216 103.188C103.143 102.427 102.807 101.844 102.282 101.566C101.757 101.288 101.086 101.338 100.417 101.705C99.7469 102.072 99.1337 102.726 98.7117 103.523C98.2898 104.32 98.0936 105.195 98.1665 105.955C98.2394 106.715 98.5753 107.298 99.1003 107.576Z" fill="#FCDC38"/>
<path d="M74.7464 31.526C73.6385 33.849 74.1344 36.3971 75.8542 37.2174C77.574 38.0376 79.8663 36.8195 80.9743 34.4966C82.0823 32.1736 81.5863 29.6256 79.8665 28.8053C78.1468 27.985 75.8544 29.2031 74.7464 31.526Z" fill="#3C3214"/>
<path d="M72.3686 48.5412C71.4528 50.0592 71.6306 51.8449 72.7655 52.5295C73.9005 53.2142 75.5629 52.5386 76.4786 51.0206C77.3944 49.5026 77.2166 47.7169 76.0817 47.0323C74.9467 46.3476 73.2843 47.0232 72.3686 48.5412Z" fill="#563E0B"/>
<path d="M46.1214 66.8713C45.5314 58.3413 61.6113 61.4013 49.8313 70.1413C49.7024 70.2366 49.5544 70.2994 49.4007 70.3238C49.2471 70.3483 49.0927 70.3336 48.9514 70.2813C47.1714 69.628 46.2281 68.4913 46.1214 66.8713Z" fill="#3C3214"/>
<path d="M73.1961 68.2552C71.5309 70.9202 71.5895 73.9608 73.3272 75.0466C75.0648 76.1324 77.8234 74.8522 79.4887 72.1872C81.1539 69.5222 81.0953 66.4816 79.3576 65.3958C77.62 64.31 74.8614 65.5902 73.1961 68.2552Z" fill="#372F1A"/>
<path d="M96.1759 69.3637C94.976 71.2186 95.1573 73.4688 96.5809 74.3897C98.0045 75.3107 100.131 74.5536 101.331 72.6988C102.531 70.844 102.35 68.5937 100.926 67.6728C99.5027 66.7518 97.3759 67.5089 96.1759 69.3637Z" fill="#3C3214"/>
<path d="M50.341 80.2049C49.3689 82.819 49.8522 85.4111 51.4207 85.9944C52.9892 86.5777 55.0488 84.9314 56.021 82.3173C56.9931 79.7031 56.5098 77.1111 54.9413 76.5278C53.3728 75.9445 51.3132 77.5908 50.341 80.2049Z" fill="#3C3214"/>
<path d="M51.7505 101.47C50.5433 103.287 50.7244 105.531 52.155 106.481C53.5856 107.432 55.7241 106.729 56.9313 104.912C58.1385 103.095 57.9574 100.852 56.5268 99.901C55.0962 98.9505 52.9578 99.653 51.7505 101.47Z" fill="#3C3214"/>
<path d="M74.6215 103.168C73.1225 105.663 73.2504 108.493 74.9074 109.488C76.5643 110.484 79.1226 109.268 80.6217 106.774C82.1207 104.279 81.9928 101.449 80.3359 100.454C78.679 99.4581 76.1206 100.674 74.6215 103.168Z" fill="#372F1A"/>
<path d="M98.7115 103.523C97.8328 105.182 98.0068 106.997 99.1002 107.576C100.193 108.155 101.792 107.279 102.671 105.619C103.549 103.96 103.375 102.145 102.282 101.566C101.189 100.987 99.5902 101.863 98.7115 103.523Z" fill="#563E0B"/>
</svg>
