<svg width="123" height="182" viewBox="0 0 123 182" fill="none" xmlns="http://www.w3.org/2000/svg">
<path d="M14.2212 110.015C12.5212 118.321 10.7045 126.621 8.7712 134.915C5.4212 149.305 2.09119 163.725 1.00119 178.205C0.992154 178.342 1.03468 178.477 1.12014 178.583C1.20559 178.689 1.32755 178.757 1.4612 178.775C4.02787 179.115 6.60786 179.321 9.20119 179.395C28.2712 179.965 47.4012 180.745 66.4712 180.475C68.7712 180.441 70.8812 180.328 72.8012 180.135C85.3279 178.888 97.8845 178.318 110.471 178.425C113.831 178.455 116.961 178.155 120.121 177.795C121.635 177.615 122.211 176.785 121.851 175.305C119.578 165.925 118.365 156.725 118.211 147.705C118.111 142.045 117.271 135.765 116.151 130.255C112.911 114.355 110.491 100.295 105.171 83.0547C103.858 78.7747 102.928 74.818 102.381 71.1847C101.221 63.3247 101.051 55.2547 98.6112 47.9647C93.9012 33.8547 87.0512 16.2747 77.1212 5.32471" stroke="#AFE3E0" stroke-width="2"/>
<path d="M77.1188 5.3248C66.9888 -4.7052 56.5688 4.6848 51.1788 13.5148C43.3788 26.2815 36.4987 40.2548 30.5387 55.4348C30.4587 55.6481 30.2687 55.9115 29.9687 56.2248C29.6021 56.6181 29.4621 57.1181 29.5488 57.7248C29.5942 58.083 29.5594 58.4102 29.4487 58.6648C23.8087 71.2648 20.0987 86.1448 16.2787 97.9148C15.0121 101.808 14.3254 105.841 14.2188 110.015" stroke="#A2DBD8" stroke-width="2"/>
<path d="M77.1188 5.32504C76.8254 5.8117 76.4954 6.13838 76.1287 6.30505C76.0066 6.35801 75.8606 6.36442 75.7092 6.32346C75.5579 6.28251 75.408 6.19603 75.2788 6.07504C62.1488 -5.98497 49.5788 18.555 45.2088 28.715C43.5288 32.625 41.0487 36.245 39.4987 39.935C38.0987 43.255 36.9387 47.405 34.7587 50.295C34.4921 50.6417 34.3054 50.975 34.1987 51.295C31.4387 59.325 27.0387 66.265 24.8187 74.845C23.7721 78.865 22.8554 82.065 22.0687 84.445C19.2754 92.9117 16.6588 101.435 14.2188 110.015" stroke="#51BEB9" stroke-width="2"/>
<path d="M52.7188 62.8979C52.7055 62.2637 52.5602 61.6386 52.2912 61.0581C52.0221 60.4776 51.6347 59.9531 51.1509 59.5146C50.6671 59.0762 50.0964 58.7323 49.4715 58.5026C48.8466 58.2729 48.1796 58.1619 47.5087 58.176C46.1537 58.2044 44.865 58.7404 43.9258 59.666C42.9867 60.5917 42.4742 61.8312 42.501 63.1119C42.5143 63.746 42.6596 64.3712 42.9286 64.9517C43.1976 65.5322 43.5851 66.0567 44.0689 66.4951C44.5527 66.9336 45.1234 67.2775 45.7483 67.5072C46.3732 67.7369 47.0402 67.8479 47.7111 67.8338C49.066 67.8054 50.3548 67.2694 51.2939 66.3438C52.2331 65.4181 52.7456 64.1786 52.7188 62.8979Z" stroke="#386C6B" stroke-width="2"/>
<path d="M77.608 63.305C77.608 61.9205 77.058 60.5928 76.0791 59.6139C75.1001 58.6349 73.7724 58.085 72.388 58.085C71.0035 58.085 69.6758 58.6349 68.6969 59.6139C67.7179 60.5928 67.168 61.9205 67.168 63.305C67.168 64.6894 67.7179 66.0171 68.6969 66.996C69.6758 67.975 71.0035 68.525 72.388 68.525C73.7724 68.525 75.1001 67.975 76.0791 66.996C77.058 66.0171 77.608 64.6894 77.608 63.305Z" stroke="#396E6F" stroke-width="2"/>
<path d="M61.6211 98.3451C62.1278 100.132 63.3811 100.588 65.3811 99.7151C69.2677 98.0084 72.3144 95.785 74.5211 93.045C74.624 92.9185 74.6931 92.7711 74.7212 92.6181C74.7494 92.4651 74.7355 92.3122 74.6811 92.175C74.4144 91.5017 73.9011 91.0817 73.1411 90.915" stroke="#6CC8C3" stroke-width="2"/>
<path d="M73.1409 90.9151C75.3543 88.5151 76.6076 86.0318 76.9009 83.4652C77.2276 80.6518 76.3076 79.7618 74.1409 80.7951C74.0037 80.8604 73.8821 80.959 73.7852 81.0837C73.6882 81.2083 73.6184 81.3558 73.5809 81.5151C71.9909 88.4451 64.7609 96.7851 56.8809 94.1051C51.1276 92.1451 48.0209 87.8618 47.5609 81.2551C47.5443 81.0209 47.4986 80.8015 47.4323 80.6378C47.3661 80.4741 47.2839 80.3772 47.2009 80.3651L45.3209 80.1051C45.2114 80.0909 45.0965 80.1491 45.0011 80.267C44.9056 80.3849 44.8373 80.553 44.8109 80.7351C43.3809 90.9051 52.0909 98.4752 61.6209 98.3452" stroke="#396E6F" stroke-width="2"/>
<path d="M73.1411 90.915C70.2077 94.7617 66.3678 97.2384 61.6211 98.3451" stroke="#476F72" stroke-width="2"/>
<path d="M26.673 111.55C26.6712 111.348 26.5894 111.156 26.4457 111.014C26.3019 110.873 26.1079 110.795 25.9064 110.796L23.7065 110.816C23.5049 110.817 23.3123 110.899 23.171 111.043C23.0298 111.187 22.9514 111.381 22.9532 111.582L23.4274 165.92C23.4291 166.122 23.5109 166.314 23.6547 166.456C23.7984 166.597 23.9924 166.675 24.194 166.673L26.3939 166.654C26.5954 166.652 26.788 166.571 26.9293 166.427C27.0706 166.283 27.1489 166.089 27.1472 165.888L26.673 111.55Z" stroke="#2F6360" stroke-width="2"/>
<path d="M44.9676 115.165C44.9677 115.129 44.9609 115.094 44.9475 115.061C44.9341 115.028 44.9144 114.998 44.8895 114.973C44.8645 114.948 44.8349 114.928 44.8022 114.914C44.7695 114.9 44.7344 114.893 44.6989 114.893L41.5991 114.877C41.5636 114.877 41.5284 114.884 41.4956 114.897C41.4628 114.91 41.4329 114.93 41.4077 114.955C41.3824 114.98 41.3624 115.01 41.3487 115.042C41.3349 115.075 41.3277 115.11 41.3275 115.146L41.0938 159.805C41.0936 159.84 41.1004 159.876 41.1138 159.908C41.1272 159.941 41.1469 159.971 41.1718 159.996C41.1968 160.021 41.2264 160.042 41.2591 160.055C41.2918 160.069 41.3269 160.076 41.3624 160.076L44.4623 160.093C44.4977 160.093 44.5329 160.086 44.5657 160.073C44.5985 160.059 44.6284 160.039 44.6537 160.014C44.6789 159.99 44.6989 159.96 44.7127 159.927C44.7264 159.894 44.7336 159.859 44.7338 159.824L44.9676 115.165Z" stroke="#2F6360" stroke-width="2"/>
<path d="M61.8255 116.842C61.8258 116.76 61.81 116.68 61.7791 116.604C61.7483 116.529 61.7028 116.46 61.6455 116.403C61.5881 116.345 61.5199 116.299 61.4447 116.268C61.3696 116.236 61.289 116.22 61.2076 116.22L58.5877 116.21C58.5063 116.21 58.4256 116.226 58.3503 116.257C58.275 116.288 58.2064 116.333 58.1487 116.39C58.0909 116.448 58.045 116.516 58.0136 116.591C57.9821 116.666 57.9658 116.747 57.9655 116.828L57.8125 160.648C57.8122 160.729 57.828 160.81 57.8589 160.885C57.8898 160.961 57.9352 161.029 57.9926 161.087C58.05 161.145 58.1181 161.191 58.1933 161.222C58.2684 161.254 58.349 161.27 58.4304 161.27L61.0503 161.279C61.1317 161.28 61.2124 161.264 61.2878 161.233C61.3631 161.202 61.4316 161.157 61.4894 161.099C61.5471 161.042 61.5931 160.974 61.6245 160.899C61.6559 160.823 61.6722 160.743 61.6725 160.661L61.8255 116.842Z" stroke="#2F6360" stroke-width="2"/>
<path d="M88.4436 117.722C88.4413 117.678 88.4303 117.634 88.4112 117.594C88.392 117.553 88.3651 117.517 88.332 117.487C88.2988 117.457 88.2601 117.434 88.2181 117.419C88.176 117.404 88.1314 117.398 88.0868 117.4L84.9908 117.557C84.9462 117.559 84.9025 117.57 84.8621 117.589C84.8218 117.608 84.7856 117.635 84.7557 117.668C84.7257 117.701 84.7026 117.74 84.6877 117.782C84.6727 117.824 84.6661 117.869 84.6684 117.913L86.4756 153.588C86.4779 153.632 86.4889 153.676 86.508 153.716C86.5272 153.757 86.5541 153.793 86.5872 153.823C86.6204 153.853 86.6591 153.876 86.7011 153.891C86.7432 153.906 86.7878 153.912 86.8324 153.91L89.9284 153.753C89.973 153.751 90.0167 153.74 90.057 153.721C90.0974 153.702 90.1336 153.675 90.1635 153.642C90.1934 153.609 90.2166 153.57 90.2315 153.528C90.2465 153.486 90.2531 153.441 90.2508 153.396L88.4436 117.722Z" stroke="#2F6360" stroke-width="2"/>
<path d="M75.2561 118.767C75.2524 118.625 75.2208 118.486 75.1632 118.356C75.1055 118.227 75.0228 118.11 74.92 118.012C74.8171 117.914 74.696 117.838 74.5636 117.787C74.4312 117.736 74.29 117.712 74.1483 117.716L72.1689 117.768C72.0272 117.771 71.8875 117.803 71.7579 117.861C71.6284 117.918 71.5114 118.001 71.4138 118.104C71.3162 118.207 71.2397 118.328 71.1889 118.46C71.1381 118.592 71.1138 118.734 71.1176 118.875L72.1039 156.543C72.1077 156.684 72.1392 156.824 72.1969 156.954C72.2546 157.083 72.3373 157.2 72.4401 157.298C72.543 157.395 72.6641 157.472 72.7965 157.523C72.929 157.573 73.0701 157.598 73.2119 157.594L75.1911 157.542C75.3329 157.538 75.4726 157.507 75.6022 157.449C75.7317 157.391 75.8487 157.309 75.9463 157.206C76.044 157.103 76.1203 156.982 76.1712 156.85C76.222 156.717 76.2463 156.576 76.2426 156.434L75.2561 118.767Z" stroke="#2F6360" stroke-width="2"/>
<path d="M77.1227 5.3248C76.8293 5.81147 76.4993 6.13814 76.1326 6.30481C76.0105 6.35778 75.8645 6.36418 75.7131 6.32323C75.5618 6.28227 75.4119 6.1958 75.2827 6.0748C62.1527 -5.9852 49.5827 18.5548 45.2127 28.7148C43.5327 32.6248 41.0526 36.2448 39.5026 39.9348C38.1026 43.2548 36.9426 47.4048 34.7626 50.2948C34.496 50.6415 34.3093 50.9748 34.2027 51.2948C31.4427 59.3248 27.0426 66.2648 24.8226 74.8448C23.776 78.8648 22.8593 82.0648 22.0726 84.4448C19.2793 92.9115 16.6627 101.435 14.2227 110.015C14.3293 105.841 15.016 101.808 16.2827 97.9148C20.1027 86.1448 23.8127 71.2648 29.4527 58.6648C29.5633 58.4102 29.5981 58.083 29.5527 57.7248C29.466 57.1181 29.606 56.6181 29.9726 56.2248C30.2726 55.9115 30.4626 55.6481 30.5426 55.4348C36.5026 40.2548 43.3827 26.2815 51.1827 13.5148C56.5727 4.6848 66.9927 -4.7052 77.1227 5.3248Z" fill="#44B6B1"/>
<path d="M77.1212 5.32504C87.0512 16.275 93.9012 33.855 98.6112 47.965C101.051 55.255 101.221 63.325 102.381 71.185C102.928 74.8184 103.858 78.775 105.171 83.055C110.491 100.295 112.911 114.355 116.151 130.255C117.271 135.765 118.111 142.045 118.211 147.705C118.365 156.725 119.578 165.925 121.851 175.305C122.211 176.785 121.635 177.615 120.121 177.795C116.961 178.155 113.831 178.455 110.471 178.425C97.8845 178.318 85.3279 178.888 72.8012 180.135C70.8812 180.328 68.7712 180.442 66.4712 180.475C47.4012 180.745 28.2712 179.965 9.20119 179.395C6.60786 179.322 4.02787 179.115 1.4612 178.775C1.32755 178.758 1.20559 178.689 1.12014 178.583C1.03468 178.477 0.992154 178.342 1.00119 178.205C2.09119 163.725 5.4212 149.305 8.7712 134.915C10.7045 126.622 12.5212 118.322 14.2212 110.015C16.6612 101.435 19.2779 92.9117 22.0712 84.445C22.8579 82.065 23.7745 78.865 24.8212 74.845C27.0412 66.265 31.4412 59.325 34.2012 51.295C34.3079 50.975 34.4945 50.6417 34.7612 50.295C36.9412 47.405 38.1012 43.255 39.5012 39.935C41.0512 36.245 43.5312 32.625 45.2112 28.715C49.5812 18.555 62.1512 -5.98497 75.2812 6.07504C75.4105 6.19603 75.5603 6.28251 75.7117 6.32346C75.863 6.36442 76.0091 6.35801 76.1312 6.30505C76.4979 6.13838 76.8279 5.8117 77.1212 5.32504ZM52.7201 62.898C52.7068 62.2639 52.5615 61.6387 52.2925 61.0582C52.0234 60.4777 51.636 59.9533 51.1522 59.5148C50.6684 59.0763 50.0977 58.7324 49.4728 58.5028C48.8479 58.2731 48.1809 58.1621 47.51 58.1761C46.1551 58.2045 44.8663 58.7405 43.9271 59.6662C42.988 60.5918 42.4755 61.8313 42.5023 63.112C42.5156 63.7462 42.6609 64.3714 42.9299 64.9519C43.1989 65.5323 43.5864 66.0568 44.0702 66.4953C44.554 66.9337 45.1247 67.2776 45.7496 67.5073C46.3745 67.737 47.0415 67.848 47.7124 67.8339C49.0673 67.8056 50.3561 67.2696 51.2952 66.3439C52.2344 65.4183 52.7469 64.1787 52.7201 62.898ZM77.6112 63.305C77.6112 61.9206 77.0612 60.5929 76.0823 59.6139C75.1034 58.635 73.7756 58.085 72.3912 58.085C71.0068 58.085 69.679 58.635 68.7001 59.6139C67.7212 60.5929 67.1712 61.9206 67.1712 63.305C67.1712 64.6895 67.7212 66.0172 68.7001 66.9961C69.679 67.9751 71.0068 68.525 72.3912 68.525C73.7756 68.525 75.1034 67.9751 76.0823 66.9961C77.0612 66.0172 77.6112 64.6895 77.6112 63.305ZM61.6212 98.3451C62.1279 100.132 63.3812 100.588 65.3812 99.715C69.2679 98.0084 72.3145 95.785 74.5212 93.045C74.6241 92.9185 74.6932 92.7711 74.7213 92.6181C74.7495 92.4651 74.7356 92.3122 74.6812 92.175C74.4145 91.5017 73.9012 91.0817 73.1412 90.915C75.3545 88.515 76.6079 86.0317 76.9012 83.465C77.2279 80.6517 76.3079 79.7617 74.1412 80.795C74.004 80.8603 73.8824 80.9589 73.7855 81.0836C73.6885 81.2082 73.6187 81.3557 73.5812 81.515C71.9912 88.445 64.7612 96.785 56.8812 94.105C51.1278 92.145 48.0212 87.8617 47.5612 81.255C47.5445 81.0208 47.4988 80.8014 47.4326 80.6377C47.3664 80.474 47.2841 80.3771 47.2012 80.365L45.3212 80.105C45.2117 80.0908 45.0968 80.1489 45.0014 80.2669C44.9059 80.3848 44.8376 80.5529 44.8112 80.735C43.3812 90.905 52.0912 98.4751 61.6212 98.3451ZM26.674 111.55C26.6722 111.348 26.5905 111.156 26.4467 111.014C26.3029 110.873 26.1089 110.795 25.9074 110.797L23.7075 110.816C23.506 110.817 23.3133 110.899 23.1721 111.043C23.0308 111.187 22.9524 111.381 22.9542 111.582L23.4284 165.92C23.4302 166.122 23.5119 166.314 23.6557 166.456C23.7995 166.597 23.9934 166.675 24.195 166.674L26.3949 166.654C26.5964 166.653 26.789 166.571 26.9303 166.427C27.0716 166.283 27.1499 166.089 27.1482 165.888L26.674 111.55ZM44.9681 115.165C44.9683 115.129 44.9615 115.094 44.9481 115.061C44.9347 115.029 44.9149 114.999 44.89 114.974C44.8651 114.948 44.8354 114.928 44.8027 114.915C44.77 114.901 44.7349 114.894 44.6995 114.893L41.5996 114.877C41.5641 114.877 41.529 114.884 41.4961 114.897C41.4633 114.911 41.4334 114.93 41.4082 114.955C41.383 114.98 41.3629 115.01 41.3492 115.043C41.3355 115.075 41.3283 115.11 41.3281 115.146L41.0943 159.805C41.0941 159.841 41.1009 159.876 41.1143 159.909C41.1277 159.941 41.1474 159.971 41.1724 159.997C41.1973 160.022 41.227 160.042 41.2597 160.056C41.2924 160.069 41.3274 160.076 41.3629 160.077L44.4628 160.093C44.4983 160.093 44.5334 160.086 44.5662 160.073C44.5991 160.059 44.629 160.04 44.6542 160.015C44.6794 159.99 44.6994 159.96 44.7132 159.927C44.7269 159.895 44.7341 159.86 44.7343 159.824L44.9681 115.165ZM61.8277 116.842C61.828 116.761 61.8122 116.68 61.7813 116.604C61.7504 116.529 61.705 116.461 61.6476 116.403C61.5903 116.345 61.522 116.299 61.4469 116.268C61.3718 116.236 61.2912 116.22 61.2098 116.22L58.5899 116.211C58.5085 116.21 58.4278 116.226 58.3525 116.257C58.2771 116.288 58.2086 116.333 58.1508 116.391C58.0931 116.448 58.0472 116.516 58.0157 116.591C57.9843 116.666 57.968 116.747 57.9677 116.828L57.8147 160.648C57.8144 160.73 57.8301 160.81 57.861 160.886C57.8919 160.961 57.9374 161.029 57.9948 161.087C58.0521 161.145 58.1203 161.191 58.1955 161.222C58.2706 161.254 58.3512 161.27 58.4326 161.27L61.0525 161.279C61.1339 161.28 61.2146 161.264 61.2899 161.233C61.3653 161.202 61.4338 161.157 61.4915 161.099C61.5493 161.042 61.5952 160.974 61.6267 160.899C61.6581 160.824 61.6744 160.743 61.6747 160.662L61.8277 116.842ZM88.4452 117.722C88.4429 117.678 88.4319 117.634 88.4128 117.594C88.3936 117.553 88.3667 117.517 88.3336 117.487C88.3004 117.457 88.2617 117.434 88.2197 117.419C88.1776 117.404 88.133 117.398 88.0884 117.4L84.9924 117.557C84.9478 117.559 84.9041 117.57 84.8637 117.589C84.8234 117.608 84.7872 117.635 84.7573 117.668C84.7273 117.701 84.7042 117.74 84.6893 117.782C84.6743 117.824 84.6677 117.869 84.67 117.914L86.4772 153.588C86.4794 153.632 86.4905 153.676 86.5096 153.716C86.5288 153.757 86.5557 153.793 86.5888 153.823C86.622 153.853 86.6607 153.876 86.7027 153.891C86.7448 153.906 86.7894 153.912 86.834 153.91L89.93 153.753C89.9746 153.751 90.0183 153.74 90.0586 153.721C90.099 153.702 90.1352 153.675 90.1651 153.642C90.195 153.609 90.2182 153.57 90.2331 153.528C90.2481 153.486 90.2547 153.441 90.2524 153.397L88.4452 117.722ZM75.2573 118.767C75.2536 118.626 75.222 118.486 75.1643 118.356C75.1066 118.227 75.024 118.11 74.9211 118.012C74.8182 117.915 74.6971 117.838 74.5647 117.787C74.4323 117.736 74.2912 117.712 74.1494 117.716L72.1701 117.768C72.0283 117.771 71.8887 117.803 71.7591 117.861C71.6295 117.918 71.5126 118.001 71.4149 118.104C71.3173 118.207 71.2409 118.328 71.1901 118.46C71.1392 118.593 71.115 118.734 71.1187 118.876L72.1051 156.543C72.1088 156.685 72.1404 156.824 72.1981 156.954C72.2558 157.083 72.3384 157.2 72.4413 157.298C72.5442 157.396 72.6653 157.472 72.7977 157.523C72.9301 157.574 73.0712 157.598 73.213 157.594L75.1923 157.542C75.3341 157.539 75.4738 157.507 75.6033 157.449C75.7329 157.392 75.8498 157.309 75.9475 157.206C76.0451 157.103 76.1215 156.982 76.1723 156.85C76.2232 156.717 76.2474 156.576 76.2437 156.434L75.2573 118.767Z" fill="#5EC6C0"/>
<path d="M52.7188 62.8979C52.7456 64.1786 52.2331 65.4181 51.2939 66.3438C50.3548 67.2694 49.066 67.8054 47.7111 67.8338C47.0402 67.8479 46.3732 67.7369 45.7483 67.5072C45.1234 67.2775 44.5527 66.9336 44.0689 66.4951C43.5851 66.0567 43.1976 65.5322 42.9286 64.9517C42.6596 64.3712 42.5143 63.746 42.501 63.1119C42.4742 61.8312 42.9867 60.5917 43.9258 59.666C44.865 58.7404 46.1537 58.2044 47.5087 58.176C48.1796 58.1619 48.8466 58.2729 49.4715 58.5026C50.0964 58.7323 50.6671 59.0762 51.1509 59.5146C51.6347 59.9531 52.0221 60.4776 52.2912 61.0581C52.5602 61.6386 52.7055 62.2637 52.7188 62.8979Z" fill="#121116"/>
<path d="M77.6119 63.305C77.6119 64.6894 77.0619 66.0171 76.083 66.996C75.104 67.975 73.7763 68.525 72.3919 68.525C71.0074 68.525 69.6797 67.975 68.7008 66.996C67.7218 66.0171 67.1719 64.6894 67.1719 63.305C67.1719 61.9205 67.7218 60.5928 68.7008 59.6139C69.6797 58.6349 71.0074 58.085 72.3919 58.085C73.7763 58.085 75.104 58.6349 76.083 59.6139C77.0619 60.5928 77.6119 61.9205 77.6119 63.305Z" fill="#13151E"/>
<path d="M73.1409 90.9151C70.2076 94.7618 66.3676 97.2385 61.6209 98.3452C52.0909 98.4752 43.3809 90.9051 44.8109 80.7351C44.8373 80.553 44.9056 80.3849 45.0011 80.267C45.0965 80.1491 45.2114 80.0909 45.3209 80.1051L47.2009 80.3651C47.2839 80.3772 47.3661 80.4741 47.4323 80.6378C47.4986 80.8015 47.5443 81.0209 47.5609 81.2551C48.0209 87.8618 51.1276 92.1451 56.8809 94.1051C64.7609 96.7851 71.9909 88.4451 73.5809 81.5151C73.6184 81.3558 73.6882 81.2083 73.7852 81.0837C73.8821 80.959 74.0037 80.8604 74.1409 80.7951C76.3076 79.7618 77.2276 80.6518 76.9009 83.4652C76.6076 86.0318 75.3543 88.5151 73.1409 90.9151Z" fill="#13151E"/>
<path d="M73.1411 90.915C73.9011 91.0817 74.4144 91.5017 74.6811 92.175C74.7355 92.3122 74.7494 92.4651 74.7212 92.6181C74.6931 92.7711 74.624 92.9185 74.5211 93.045C72.3144 95.785 69.2677 98.0084 65.3811 99.7151C63.3811 100.588 62.1278 100.132 61.6211 98.3451C66.3678 97.2384 70.2077 94.7617 73.1411 90.915Z" fill="#7AC9C6"/>
<path d="M27.1472 165.888C27.1489 166.089 27.0706 166.283 26.9293 166.427C26.788 166.571 26.5954 166.652 26.3939 166.654L24.194 166.673C23.9924 166.675 23.7984 166.597 23.6547 166.456C23.5109 166.314 23.4291 166.122 23.4274 165.92L22.9532 111.582C22.9514 111.381 23.0298 111.187 23.171 111.043C23.3123 110.899 23.5049 110.817 23.7065 110.816L25.9064 110.796C26.1079 110.795 26.3019 110.873 26.4457 111.014C26.5894 111.156 26.6712 111.348 26.673 111.55L27.1472 165.888Z" fill="black"/>
<path d="M44.7338 159.824C44.7336 159.859 44.7264 159.894 44.7127 159.927C44.6989 159.96 44.6789 159.99 44.6537 160.014C44.6284 160.039 44.5985 160.059 44.5657 160.073C44.5329 160.086 44.4977 160.093 44.4623 160.093L41.3624 160.076C41.3269 160.076 41.2918 160.069 41.2591 160.055C41.2264 160.042 41.1968 160.021 41.1718 159.996C41.1469 159.971 41.1272 159.941 41.1138 159.908C41.1004 159.876 41.0936 159.84 41.0938 159.805L41.3275 115.146C41.3277 115.11 41.3349 115.075 41.3487 115.042C41.3624 115.01 41.3824 114.98 41.4077 114.955C41.4329 114.93 41.4628 114.91 41.4956 114.897C41.5284 114.884 41.5636 114.877 41.5991 114.877L44.6989 114.893C44.7344 114.893 44.7695 114.9 44.8022 114.914C44.8349 114.928 44.8645 114.948 44.8895 114.973C44.9144 114.998 44.9341 115.028 44.9475 115.061C44.9609 115.094 44.9677 115.129 44.9676 115.165L44.7338 159.824Z" fill="black"/>
<path d="M61.6725 160.661C61.6722 160.743 61.6559 160.823 61.6245 160.899C61.5931 160.974 61.5471 161.042 61.4894 161.099C61.4316 161.157 61.3631 161.202 61.2878 161.233C61.2124 161.264 61.1317 161.28 61.0503 161.279L58.4304 161.27C58.349 161.27 58.2684 161.254 58.1933 161.222C58.1181 161.191 58.05 161.145 57.9926 161.087C57.9352 161.029 57.8898 160.961 57.8589 160.885C57.828 160.81 57.8122 160.729 57.8125 160.648L57.9655 116.828C57.9658 116.747 57.9821 116.666 58.0136 116.591C58.045 116.516 58.0909 116.448 58.1487 116.39C58.2064 116.333 58.275 116.288 58.3503 116.257C58.4256 116.226 58.5063 116.21 58.5877 116.21L61.2076 116.22C61.289 116.22 61.3696 116.236 61.4447 116.268C61.5199 116.299 61.5881 116.345 61.6455 116.403C61.7028 116.46 61.7483 116.529 61.7791 116.604C61.81 116.68 61.8258 116.76 61.8255 116.842L61.6725 160.661Z" fill="black"/>
<path d="M90.2508 153.396C90.2531 153.441 90.2465 153.486 90.2315 153.528C90.2166 153.57 90.1934 153.609 90.1635 153.642C90.1336 153.675 90.0974 153.702 90.057 153.721C90.0167 153.74 89.973 153.751 89.9284 153.753L86.8324 153.91C86.7878 153.912 86.7432 153.906 86.7011 153.891C86.6591 153.876 86.6204 153.853 86.5872 153.823C86.5541 153.793 86.5272 153.757 86.508 153.716C86.4889 153.676 86.4778 153.632 86.4756 153.588L84.6684 117.913C84.6661 117.869 84.6727 117.824 84.6877 117.782C84.7026 117.74 84.7257 117.701 84.7557 117.668C84.7856 117.635 84.8218 117.608 84.8621 117.589C84.9025 117.57 84.9462 117.559 84.9908 117.557L88.0868 117.4C88.1314 117.398 88.176 117.404 88.2181 117.419C88.2601 117.434 88.2988 117.457 88.332 117.487C88.3651 117.517 88.392 117.553 88.4112 117.594C88.4303 117.634 88.4413 117.678 88.4436 117.722L90.2508 153.396Z" fill="black"/>
<path d="M76.2426 156.434C76.2463 156.576 76.222 156.717 76.1712 156.85C76.1203 156.982 76.044 157.103 75.9463 157.206C75.8487 157.309 75.7317 157.391 75.6022 157.449C75.4726 157.507 75.3329 157.538 75.1911 157.542L73.2119 157.594C73.0701 157.598 72.929 157.573 72.7965 157.523C72.6641 157.472 72.543 157.395 72.4401 157.298C72.3372 157.2 72.2546 157.083 72.1969 156.954C72.1392 156.824 72.1077 156.684 72.1039 156.543L71.1176 118.875C71.1138 118.734 71.1381 118.592 71.1889 118.46C71.2397 118.328 71.3162 118.207 71.4138 118.104C71.5114 118.001 71.6284 117.918 71.7579 117.861C71.8875 117.803 72.0272 117.771 72.1689 117.768L74.1483 117.716C74.29 117.712 74.4312 117.736 74.5636 117.787C74.696 117.838 74.8171 117.914 74.92 118.012C75.0228 118.11 75.1055 118.227 75.1632 118.356C75.2208 118.486 75.2524 118.625 75.2561 118.767L76.2426 156.434Z" fill="black"/>
</svg>
