<svg width="60" height="38" viewBox="0 0 60 38" fill="none" xmlns="http://www.w3.org/2000/svg">
<path d="M1.79176 16.1696C7.54509 17.9162 12.9484 20.3363 18.0018 23.4296C27.4118 29.1996 36.7418 34.1596 47.6118 36.7196C47.9481 36.7964 48.3011 36.7405 48.5973 36.5635C48.8935 36.3865 49.11 36.1021 49.2018 35.7696C51.5285 27.2896 54.4018 18.7596 57.8218 10.1796C58.4085 8.70625 58.7118 6.86623 58.7318 4.65957C58.731 4.51889 58.6809 4.38351 58.5907 4.27865C58.5006 4.17378 58.3766 4.10658 58.2418 4.08956C49.7118 3.08956 39.9017 1.47956 32.2117 2.02956C20.5517 2.87623 10.3684 7.40291 1.66175 15.6096C1.61862 15.6491 1.58679 15.6993 1.56947 15.7552C1.55215 15.8111 1.55002 15.8705 1.56324 15.9275C1.57647 15.9845 1.60456 16.037 1.64473 16.0795C1.68489 16.122 1.73563 16.1531 1.79176 16.1696Z" stroke="#FFCE9E" stroke-width="2"/>
<path d="M1.79176 16.1701C1.73563 16.1536 1.68489 16.1225 1.64473 16.08C1.60456 16.0374 1.57647 15.985 1.56324 15.928C1.55002 15.871 1.55215 15.8116 1.56947 15.7557C1.58679 15.6998 1.61862 15.6496 1.66175 15.6101C10.3684 7.4034 20.5517 2.87672 32.2117 2.03005C39.9017 1.48005 49.7118 3.09005 58.2418 4.09005C58.3766 4.10707 58.5006 4.17427 58.5907 4.27913C58.6809 4.384 58.731 4.51938 58.7318 4.66005C58.7118 6.86672 58.4085 8.70674 57.8218 10.1801C54.4018 18.7601 51.5285 27.29 49.2018 35.77C49.11 36.1026 48.8935 36.387 48.5973 36.564C48.3011 36.7409 47.9481 36.7968 47.6118 36.7201C36.7418 34.16 27.4118 29.2001 18.0018 23.4301C12.9484 20.3367 7.54509 17.9167 1.79176 16.1701Z" fill="#FF9F48"/>
</svg>
