<svg width="146" height="159" viewBox="0 0 146 159" fill="none" xmlns="http://www.w3.org/2000/svg">
<path d="M53.5233 147.025C60.0333 139.315 72.2733 125.395 83.8233 114.245C83.9256 114.142 84.0584 114.076 84.2002 114.058C84.3419 114.04 84.4841 114.071 84.6033 114.145C89.1933 117.065 93.7834 121.575 97.1534 124.115C107.933 132.222 119.36 139.298 131.433 145.345C134.463 146.865 137.473 149.115 140.413 145.905C141.493 144.718 141.687 143.402 140.993 141.955C134.713 128.745 127.123 115.205 117.493 104.275C113.573 99.8284 109.387 95.5584 104.933 91.4651C104.765 91.3105 104.632 91.121 104.544 90.9097C104.456 90.6984 104.415 90.4704 104.425 90.2418C104.434 90.0132 104.494 89.7894 104.599 89.5861C104.704 89.3828 104.852 89.205 105.033 89.0651C114.063 81.9851 123.893 74.935 132.323 66.995C136.183 63.365 147.113 54.6551 144.013 49.0651C138.213 38.6151 104.803 52.1951 96.1433 55.1851C94.2233 55.8451 91.6633 56.1051 88.4633 55.9651C88.139 55.9458 87.8296 55.8191 87.5833 55.605C86.01 54.2117 84.6667 52.6117 83.5533 50.805C74.8233 36.735 66.0034 21.655 55.2634 9.04504C50.6734 3.65504 48.9734 0.395085 42.4634 1.09508C40.75 1.27508 39.99 2.21837 40.1834 3.92504C42.3234 22.725 49.0634 41.025 56.1334 58.175C56.2085 58.3564 56.2461 58.5512 56.2437 58.7475C56.2414 58.9438 56.1992 59.1377 56.1197 59.3172C56.0402 59.4967 55.9251 59.6582 55.7813 59.7919C55.6376 59.9256 55.4682 60.0288 55.2833 60.0951C50.3167 61.8818 45.6 63.385 41.1334 64.605C31.3633 67.265 20.1833 67.8051 9.69335 68.8951C6.41335 69.2351 1.59335 72.1051 1.05335 75.7151C0.233347 81.2351 9.08335 83.6751 12.6933 84.4651C26.4333 87.4584 39.8567 91.5184 52.9634 96.6451C53.054 96.6803 53.1367 96.7332 53.2066 96.8008C53.2765 96.8684 53.3321 96.9494 53.3703 97.0388C53.4085 97.1282 53.4285 97.2244 53.429 97.3216C53.4295 97.4189 53.4106 97.5152 53.3733 97.605C47.5733 111.745 41.7434 125.862 35.8834 139.955C33.7534 145.095 29.5633 155.455 36.8633 157.015C42.6633 158.255 50.0333 151.165 53.5233 147.025Z" stroke="#FFB8AA" stroke-width="2"/>
<path d="M83.914 104.714C84.0054 104.802 84.1446 104.84 84.3236 104.824C84.5025 104.809 84.7177 104.74 84.9569 104.623C85.1961 104.506 85.4545 104.342 85.7175 104.14C85.9805 103.939 86.2428 103.704 86.4896 103.45C86.9879 102.936 87.3924 102.371 87.6141 101.881C87.8359 101.391 87.8567 101.015 87.672 100.836C87.5805 100.747 87.4413 100.71 87.2624 100.725C87.0835 100.741 86.8683 100.809 86.6291 100.926C86.3899 101.044 86.1315 101.208 85.8685 101.409C85.6055 101.61 85.3431 101.845 85.0964 102.1C84.5981 102.614 84.1936 103.178 83.9718 103.668C83.7501 104.159 83.7293 104.535 83.914 104.714Z" stroke="#FF7961" stroke-width="2"/>
<path d="M83.8233 114.244C72.2733 125.394 60.0333 139.314 53.5233 147.024C50.0333 151.164 42.6633 158.254 36.8633 157.014C29.5633 155.454 33.7533 145.094 35.8834 139.954C41.7434 125.861 47.5733 111.744 53.3733 97.6041C53.4106 97.5142 53.4295 97.4179 53.429 97.3207C53.4285 97.2234 53.4085 97.1273 53.3703 97.0378C53.3321 96.9484 53.2765 96.8675 53.2066 96.7999C53.1367 96.7322 53.054 96.6793 52.9634 96.6441C39.8567 91.5174 26.4333 87.4574 12.6933 84.4641C9.08335 83.6741 0.233347 81.2341 1.05335 75.7141C1.59335 72.1041 6.41335 69.2341 9.69335 68.8941C20.1833 67.8041 31.3633 67.2641 41.1334 64.6041C45.6 63.3841 50.3167 61.8808 55.2833 60.0941C55.4682 60.0278 55.6376 59.9247 55.7813 59.7909C55.9251 59.6572 56.0402 59.4957 56.1197 59.3162C56.1992 59.1367 56.2414 58.9428 56.2437 58.7465C56.2461 58.5502 56.2085 58.3554 56.1334 58.1741C49.0634 41.0241 42.3234 22.7241 40.1834 3.92406C39.99 2.2174 40.75 1.27411 42.4634 1.09411C48.9734 0.394108 50.6734 3.65406 55.2634 9.04406C66.0034 21.6541 74.8233 36.7341 83.5533 50.8041C84.6667 52.6107 86.01 54.2107 87.5833 55.6041C87.8296 55.8182 88.139 55.9448 88.4633 55.9641C91.6633 56.1041 94.2233 55.8441 96.1433 55.1841C104.803 52.1941 138.213 38.6141 144.013 49.0641C147.113 54.6541 136.183 63.3641 132.323 66.9941C123.893 74.9341 114.063 81.9841 105.033 89.0641C104.852 89.204 104.704 89.3819 104.599 89.5851C104.494 89.7884 104.435 90.0122 104.425 90.2408C104.415 90.4695 104.456 90.6974 104.544 90.9087C104.632 91.12 104.765 91.3096 104.933 91.4641C109.387 95.5574 113.573 99.8274 117.493 104.274C127.123 115.204 134.713 128.744 140.993 141.954C141.687 143.401 141.493 144.717 140.413 145.904C137.473 149.114 134.463 146.864 131.433 145.344C119.36 139.297 107.933 132.221 97.1534 124.114C93.7833 121.574 89.1933 117.064 84.6033 114.144C84.4841 114.07 84.3419 114.039 84.2002 114.057C84.0584 114.075 83.9256 114.141 83.8233 114.244ZM83.9143 104.713C84.0058 104.802 84.145 104.839 84.3239 104.824C84.5029 104.808 84.7181 104.74 84.9572 104.622C85.1964 104.505 85.4549 104.341 85.7178 104.14C85.9808 103.938 86.2432 103.704 86.4899 103.449C86.9882 102.935 87.3928 102.371 87.6145 101.88C87.8362 101.39 87.857 101.014 87.6723 100.835C87.5809 100.747 87.4417 100.709 87.2628 100.724C87.0838 100.74 86.8686 100.808 86.6295 100.926C86.3903 101.043 86.1318 101.207 85.8689 101.408C85.6059 101.61 85.3435 101.844 85.0967 102.099C84.5984 102.613 84.1939 103.178 83.9722 103.668C83.7505 104.158 83.7296 104.534 83.9143 104.713Z" fill="#FF7157"/>
<path d="M85.0951 102.1C84.0573 103.17 83.528 104.341 83.9127 104.714C84.2974 105.086 85.4505 104.521 86.4882 103.45C87.5259 102.379 88.0553 101.209 87.6706 100.836C87.2859 100.463 86.1328 101.029 85.0951 102.1Z" fill="#FF806B"/>
</svg>
