<svg width="114" height="113" viewBox="0 0 114 113" fill="none" xmlns="http://www.w3.org/2000/svg">
<path d="M3.18313 42.117C12.6498 48.9303 21.8465 55.7837 30.7732 62.677C31.7465 63.4237 32.0798 64.3903 31.7732 65.577C28.1598 79.7237 24.9031 93.957 22.0031 108.277C21.6131 110.237 21.7231 113.607 24.9031 110.457C28.9431 106.45 39.1598 94.8437 55.5531 75.637C57.0798 73.8437 58.8298 72.3237 60.8031 71.077C61.0561 70.9152 61.3868 70.8413 61.7431 70.867C78.1165 72.0937 94.4531 71.667 110.753 69.587C112.826 69.3203 113.296 68.5803 112.163 67.367C111.316 66.467 110.38 65.6803 109.353 65.007C100.2 59.0203 90.8831 53.387 81.4031 48.107C81.0091 47.8844 80.6892 47.5515 80.4829 47.1498C80.2767 46.748 80.1933 46.295 80.2431 45.847C81.5231 34.3203 82.7464 22.7903 83.9131 11.257C84.2131 8.26367 84.1765 5.29035 83.8031 2.33702C83.6165 0.870349 82.8498 0.61035 81.5031 1.55702C80.5565 2.22368 79.7531 3.02368 79.0931 3.95701C70.3531 16.3237 61.1664 28.877 51.5331 41.617C51.3493 41.8591 51.1069 42.0504 50.8288 42.1728C50.5506 42.2953 50.2458 42.3449 49.9431 42.317C34.8231 40.8437 19.6198 39.3837 4.33316 37.937C-0.156842 37.517 0.433133 40.127 3.18313 42.117Z" stroke="#8E9094" stroke-width="2"/>
<path d="M3.18313 42.1175C0.433133 40.1275 -0.156842 37.5175 4.33316 37.9375C19.6198 39.3841 34.8231 40.8442 49.9431 42.3175C50.2458 42.3454 50.5506 42.2958 50.8288 42.1733C51.1069 42.0509 51.3493 41.8596 51.5331 41.6175C61.1664 28.8775 70.3531 16.3242 79.0931 3.9575C79.7531 3.02417 80.5565 2.22417 81.5031 1.55751C82.8498 0.610839 83.6165 0.870837 83.8031 2.3375C84.1765 5.29084 84.2131 8.26415 83.9131 11.2575C82.7465 22.7908 81.5231 34.3208 80.2431 45.8475C80.1933 46.2954 80.2767 46.7485 80.4829 47.1502C80.6892 47.552 81.0091 47.8849 81.4031 48.1075C90.8831 53.3875 100.2 59.0208 109.353 65.0075C110.38 65.6808 111.316 66.4675 112.163 67.3675C113.296 68.5808 112.826 69.3208 110.753 69.5875C94.4531 71.6675 78.1165 72.0942 61.7431 70.8675C61.3868 70.8418 61.0561 70.9157 60.8031 71.0775C58.8298 72.3242 57.0798 73.8442 55.5531 75.6375C39.1598 94.8442 28.9431 106.451 24.9031 110.457C21.7231 113.607 21.6131 110.238 22.0031 108.278C24.9031 93.9575 28.1598 79.7242 31.7732 65.5775C32.0798 64.3908 31.7465 63.4242 30.7732 62.6775C21.8465 55.7842 12.6498 48.9308 3.18313 42.1175Z" fill="#1D2128"/>
</svg>
