<svg width="71" height="92" viewBox="0 0 71 92" fill="none" xmlns="http://www.w3.org/2000/svg">
<path d="M11.8811 20.3549C18.7471 22.7149 26.2665 18.0048 28.7797 11.5748C34.1378 -2.15518 8.49338 -2.24514 5.22626 9.73486C3.84904 14.7949 7.26695 18.7649 11.8811 20.3549Z" stroke="#F6B1A6" stroke-width="2"/>
<path d="M11.5922 82.7148C10.6272 83.3648 -0.531289 89.9249 1.17767 90.7249C1.30589 90.7838 1.44824 90.8108 1.59318 90.8039C1.73811 90.7969 1.8816 90.7562 2.01206 90.6849L11.2203 85.8248C11.5128 85.6695 11.8744 85.6202 12.2457 85.6849L13.2108 85.8549" stroke="#94979B" stroke-width="2"/>
<path d="M13.2084 85.8549C27.3525 90.3549 39.9786 89.3349 50.4234 77.8449C59.0017 68.4049 65.3349 57.5616 69.423 45.315C70.2138 42.9483 69.4163 41.7683 67.0304 41.7749C61.9237 41.7883 54.9002 43.1683 45.96 45.9149C27.644 51.5349 16.4151 65.0749 11.5898 82.7149" stroke="#F6B1A6" stroke-width="2"/>
<path d="M13.2084 85.8553L13.2586 85.0752C13.2678 84.909 13.3083 84.7521 13.3766 84.618C13.4448 84.4839 13.5389 84.3766 13.6507 84.3053C16.6062 82.4386 19.7091 80.8886 22.9594 79.6553C27.1313 78.0753 31.6047 78.6252 36.0882 78.5852C36.2587 78.583 36.4211 78.5341 36.545 78.4476C36.6689 78.3612 36.746 78.2431 36.7618 78.1153C36.8724 77.2153 32.9216 76.2953 32.5095 76.1253C30.8072 75.4453 30.7134 74.5486 32.228 73.4353L49.7197 60.6553C49.9997 60.4511 50.2285 60.2034 50.3875 59.9322C50.5465 59.6611 50.6312 59.3742 50.6345 59.0953C50.6647 57.5453 38.2697 65.3553 37.3851 65.9053C35.7297 66.9319 35.083 66.5153 35.4449 64.6553L36.1285 61.1153C36.2156 60.6753 36.0313 60.5353 35.5756 60.6953C35.0328 60.8953 34.6206 61.2886 34.3391 61.8753C29.7148 71.5453 20.7579 77.8353 11.5898 82.7153" stroke="#8B5051" stroke-width="2"/>
<path d="M11.8811 20.3549C7.26695 18.7649 3.84904 14.7949 5.22626 9.73486C8.49338 -2.24514 34.1378 -2.15518 28.7797 11.5748C26.2665 18.0048 18.7471 22.7149 11.8811 20.3549Z" fill="#ED6A5B"/>
<path d="M13.2084 85.8549L13.2586 85.0749C13.2678 84.9086 13.3083 84.7518 13.3766 84.6176C13.4448 84.4835 13.5389 84.3762 13.6507 84.305C16.6062 82.4383 19.7091 80.8883 22.9594 79.6549C27.1313 78.0749 31.6047 78.6249 36.0882 78.5849C36.2587 78.5827 36.4211 78.5338 36.545 78.4473C36.6689 78.3608 36.7459 78.2427 36.7618 78.115C36.8724 77.215 32.9216 76.295 32.5095 76.125C30.8072 75.445 30.7134 74.5483 32.228 73.435L49.7197 60.6549C49.9997 60.4508 50.2285 60.2031 50.3875 59.9319C50.5465 59.6608 50.6312 59.3739 50.6345 59.0949C50.6647 57.5449 38.2697 65.3549 37.3851 65.9049C35.7297 66.9316 35.083 66.5149 35.4449 64.6549L36.1285 61.115C36.2156 60.675 36.0313 60.535 35.5756 60.695C35.0328 60.895 34.6206 61.2883 34.3391 61.875C29.7148 71.545 20.7579 77.8349 11.5898 82.7149C16.4151 65.0749 27.644 51.5349 45.96 45.9149C54.9002 43.1683 61.9237 41.7883 67.0304 41.7749C69.4163 41.7683 70.2138 42.9483 69.423 45.315C65.3349 57.5616 59.0017 68.4049 50.4234 77.8449C39.9786 89.3349 27.3525 90.3549 13.2084 85.8549Z" fill="#ED6A5B"/>
<path d="M13.2108 85.8548L12.2457 85.6848C11.8744 85.6201 11.5128 85.6694 11.2203 85.8248L2.01206 90.6848C1.8816 90.7561 1.73811 90.7969 1.59318 90.8038C1.44824 90.8108 1.30589 90.7837 1.17767 90.7248C-0.531289 89.9248 10.6272 83.3648 11.5922 82.7148C20.7603 77.8348 29.7172 71.5448 34.3415 61.8748C34.623 61.2881 35.0352 60.8948 35.578 60.6948C36.0337 60.5348 36.218 60.6748 36.1309 61.1148L35.4473 64.6548C35.0854 66.5148 35.7321 66.9314 37.3875 65.9048C38.2721 65.3548 50.6671 57.5448 50.6369 59.0948C50.6336 59.3737 50.5489 59.6606 50.3899 59.9317C50.2309 60.2029 50.0021 60.4506 49.7221 60.6548L32.2304 73.4348C30.7158 74.5481 30.8096 75.4448 32.5119 76.1248C32.924 76.2948 36.8748 77.2148 36.7642 78.1148C36.7483 78.2426 36.6713 78.3607 36.5474 78.4471C36.4235 78.5336 36.2611 78.5825 36.0906 78.5848C31.6071 78.6248 27.1337 78.0748 22.9618 79.6548C19.7115 80.8881 16.6086 82.4381 13.6531 84.3048C13.5413 84.3761 13.4472 84.4834 13.3789 84.6175C13.3107 84.7516 13.2702 84.9085 13.261 85.0748L13.2108 85.8548Z" fill="#293546"/>
</svg>
