<svg width="146" height="255" viewBox="0 0 146 255" fill="none" xmlns="http://www.w3.org/2000/svg">
<path d="M5.24414 102.28C0.727133 107.42 -0.184312 113.286 2.50981 119.88C6.96315 130.79 17.3777 137.99 27.0685 143.93C36.5583 149.743 45.6358 156.146 54.3012 163.14" stroke="#D9EBE1" stroke-width="2"/>
<path d="M54.304 163.14C53.0776 180.407 52.4476 197.7 52.4141 215.02C52.384 227.59 66.7794 243.89 74.9322 252.74C76.554 254.5 77.8005 254.397 78.6717 252.43C78.8186 252.096 78.8664 251.727 78.8094 251.367C78.7524 251.007 78.593 250.671 78.3501 250.4C72.1107 243.38 66.4075 236.083 61.2404 228.51C56.3648 221.37 58.9886 210.06 59.6521 201.87C60.4663 191.86 62.2858 181.4 63.0901 170.98" stroke="#89878E" stroke-width="2"/>
<path d="M63.0922 170.98C66.8586 173.273 70.7557 175.266 74.7835 176.96C103.715 189.12 130.375 173.52 131.863 142.05C132.137 136.27 132.278 133.356 132.285 133.31C134.004 117.64 137.351 106.73 144.609 89.8098C144.739 89.5123 144.761 89.1797 144.67 88.8698C141.312 78.0598 131.511 70.6598 123.69 63.0298C121.468 60.8598 120.714 58.7298 121.026 55.7898C121.73 49.0398 122.855 40.4398 119.809 33.3598C119.763 33.2598 119.22 31.8565 118.181 29.1498C114.482 19.5198 100.589 21.8098 93.8032 14.9598C89.953 11.0498 85.3489 4.34981 80.0812 2.58981C67.3244 -1.67019 53.7935 2.85981 45.8317 13.4398C41.2879 19.4798 44.0323 28.1198 36.1912 32.7198C29.409 36.6998 23.7828 41.7665 19.3127 47.9198C11.16 59.1598 6.28447 69.7698 11.723 83.3198C13.3582 87.3798 13.5324 91.2931 12.2457 95.0598" stroke="#D9EBE1" stroke-width="2"/>
<path d="M63.0898 170.98L64.0449 135.57C64.0918 133.843 64.9228 133.27 66.538 133.85C81.7376 139.32 92.1522 143.75 101.22 158.26C102.265 159.927 101.984 161.32 100.375 162.44C98.3983 163.827 97.0244 165.567 96.2537 167.66C95.6103 169.4 95.8281 170.853 96.9071 172.02C99.0316 174.313 101.334 174.91 103.813 173.81C109.041 171.48 109.815 164.05 107.653 159.4C100.104 143.16 87.347 136.31 70.7802 130.45C70.7283 130.431 70.6818 130.399 70.6449 130.358C70.608 130.318 70.5818 130.268 70.5688 130.216C70.5558 130.163 70.5564 130.108 70.5705 130.057C70.5846 130.005 70.6117 129.958 70.6495 129.92C77.0028 123.44 89.2872 117.75 97.5002 113.7C99.8191 112.553 102.567 112.333 105.743 113.04C106.085 113.113 106.383 113.247 106.638 113.44L111.041 116.79C111.214 116.922 111.357 117.066 111.458 117.208C111.558 117.349 111.612 117.484 111.614 117.6L111.715 125.11C111.718 125.27 111.76 125.425 111.836 125.557C111.912 125.689 112.019 125.793 112.147 125.86C115.015 127.38 116.832 126.547 117.596 123.36C118.822 118.24 116.57 112.66 111.594 110.34C104.286 106.94 98.1939 108.26 90.8454 111.84C82.4748 115.907 73.9903 120.607 65.3919 125.94C64.5274 126.48 64.1119 126.21 64.1454 125.13L64.8692 103.62C64.8758 103.466 64.9271 103.315 65.0175 103.185C65.1079 103.054 65.234 102.949 65.3819 102.88C77.5255 97.3599 87.6888 90.5499 100.677 86.4499C101.007 86.3403 101.276 86.1338 101.431 85.8699C104.125 81.3199 94.4744 84.0099 92.2326 84.7499C83.2388 87.7165 74.6505 91.5965 66.4676 96.3899C65.5092 96.9499 65.0502 96.6932 65.0904 95.6199L65.965 71.1099C65.9808 70.6193 66.0994 70.1337 66.3135 69.6818C66.5277 69.23 66.8331 68.8212 67.2115 68.4799C72.9214 63.2999 79.5026 59.2399 86.955 56.2999C89.6089 55.2499 92.9062 55.5499 95.8616 53.5299C97.0881 52.6899 96.9876 52.0632 95.5601 51.6499C85.3767 48.7199 75.6155 55.9899 67.0205 61.1099C66.739 61.2832 66.6083 61.1999 66.6284 60.8599C66.9903 54.9132 67.8012 49.0799 69.0611 43.3599" stroke="#637A7E" stroke-width="2"/>
<path d="M69.0625 43.3598C69.8064 43.6465 70.5571 43.6898 71.3144 43.4898C71.4699 43.4509 71.614 43.3667 71.7322 43.2455C71.8504 43.1244 71.9386 42.9707 71.9879 42.7998C73.2612 38.4865 74.95 34.3398 77.0544 30.3598C77.1461 30.1896 77.2043 30.0099 77.2251 29.8324C77.2459 29.655 77.2288 29.4837 77.175 29.3298C76.9807 28.7632 76.6087 28.3432 76.0592 28.0698" stroke="#BEE4D6" stroke-width="2"/>
<path d="M76.0579 28.0699C78.1422 25.1299 77.9109 23.1399 75.3643 22.0999C73.6486 21.4065 72.315 21.8465 71.3633 23.4199C63.1804 36.9099 60.1948 49.5499 58.2446 65.1299C58.2291 65.2431 58.1851 65.3507 58.1168 65.4425C58.0485 65.5343 57.9582 65.6073 57.8544 65.6544C57.7506 65.7015 57.6368 65.7212 57.5239 65.7117C57.4109 65.7021 57.3026 65.6636 57.2091 65.5999C52.2632 62.2932 48.3862 58.0599 45.5781 52.8999C44.2411 50.4399 44.02 47.1699 42.9242 44.3699C41.5771 40.9499 36.9228 40.7499 37.6767 45.1699C39.2751 54.5199 49.5992 65.2099 57.0181 70.1499C57.1742 70.2547 57.3039 70.3766 57.3927 70.502C57.4814 70.6273 57.5258 70.7512 57.5207 70.8599L56.3546 93.5999C56.3507 93.6611 56.3311 93.7201 56.2977 93.7718C56.2643 93.8234 56.2181 93.866 56.1633 93.8958C56.1085 93.9255 56.0468 93.9414 55.9837 93.9422C55.9206 93.9429 55.858 93.9283 55.8017 93.8999C47.4379 89.6899 40.5317 85.9699 35.6662 77.8499C35.5822 77.7074 35.5356 77.5513 35.5321 77.4005C35.5285 77.2496 35.5681 77.1105 35.6461 76.9999C37.3885 74.5332 37.7303 71.9132 36.6715 69.1399C36.5611 68.8434 36.304 68.5628 35.9477 68.3499C31.052 65.3999 29.6949 70.0499 30.2679 73.6899C31.5446 81.7399 37.2344 87.2799 43.5575 92.1899C47.0358 94.8899 51.8812 96.7899 55.8218 99.7799C55.9361 99.8653 56.0272 99.9858 56.0868 100.131C56.1465 100.276 56.1729 100.44 56.1636 100.61L55.0981 123.05C55.0907 123.194 55.0483 123.333 54.9741 123.458C54.8999 123.583 54.7957 123.69 54.6693 123.772C54.5429 123.854 54.3975 123.907 54.2437 123.93C54.09 123.952 53.9319 123.942 53.7812 123.9C44.5729 121.387 35.0764 119.19 25.2918 117.31C19.2099 116.15 9.1472 113.03 12.4445 104.76C13.3425 102.52 14.264 100.207 15.209 97.8199C15.2673 97.6745 15.2868 97.5175 15.2656 97.3647C15.2445 97.2119 15.1833 97.0688 15.0883 96.9499C14.3109 95.9832 13.3626 95.3532 12.2434 95.0599" stroke="#637A7E" stroke-width="2"/>
<path d="M76.0592 28.0698C72.849 32.7832 70.5168 37.8798 69.0625 43.3598" stroke="#6E8083" stroke-width="2"/>
<path d="M54.3041 163.14L54.7062 132.14C54.7062 131.983 54.6684 131.83 54.5965 131.694C54.5246 131.558 54.4207 131.443 54.294 131.36C52.9537 130.486 51.238 129.76 49.1471 129.18C35.5893 125.4 26.294 122.896 21.2609 121.67C11.5701 119.3 4.09093 113.05 5.24699 102.28" stroke="#637A7E" stroke-width="2"/>
<path d="M86.099 42.6198C84.6012 45.7698 89.0344 43.8898 90.0598 43.2598C94.875 40.3298 111.291 36.3698 109.733 47.1198C109.68 47.4718 109.719 47.8089 109.843 48.0898C111.552 52.1098 114.478 50.0598 115.342 47.2398C116.83 42.3398 111.512 37.1398 107.35 36.1098C101.681 34.7198 89.1952 36.0798 86.099 42.6198Z" stroke="#63797C" stroke-width="2"/>
<path d="M94.0694 70.25C92.4107 71.26 86.3792 74.4 88.9627 77.1C89.0623 77.2022 89.1962 77.2686 89.3458 77.2901C89.4954 77.3117 89.6532 77.2872 89.797 77.22C93.3859 75.5 97.1757 72.92 100.925 72.44C106.756 71.6867 111.534 73.5534 115.261 78.04C117.844 81.16 117.512 84.27 116.678 87.95C116.075 90.57 116.055 93.33 118.869 94.13C127.103 96.46 124.76 83.61 122.75 79.4C121.999 77.8467 120.401 75.88 117.955 73.5C111.048 66.78 102.765 64.93 94.0694 70.25Z" stroke="#637A7E" stroke-width="2"/>
<path d="M104.174 163.83C104.436 166.53 103.632 168.84 101.762 170.76C101.514 171.02 101.561 171.17 101.903 171.21C105.512 171.71 105.743 165.9 105.019 163.6C104.727 162.67 104.094 163.05 104.174 163.83Z" stroke="#1E2639" stroke-width="2"/>
<path d="M63.0922 170.98L64.0472 135.57C64.0941 133.843 64.9252 133.27 66.5403 133.85C81.74 139.32 92.1545 143.75 101.222 158.26C102.268 159.926 101.986 161.32 100.378 162.44C98.4006 163.826 97.0267 165.566 96.256 167.66C95.6127 169.4 95.8304 170.853 96.9094 172.02C99.0339 174.313 101.336 174.91 103.816 173.81C109.043 171.48 109.817 164.05 107.656 159.4C100.106 143.16 87.3493 136.31 70.7825 130.45C70.7306 130.431 70.6841 130.399 70.6472 130.358C70.6103 130.317 70.5841 130.268 70.5711 130.216C70.5581 130.163 70.5587 130.108 70.5728 130.057C70.5869 130.005 70.6141 129.958 70.6518 129.92C77.0051 123.44 89.2895 117.75 97.5026 113.7C99.8214 112.553 102.569 112.333 105.746 113.04C106.088 113.113 106.386 113.246 106.64 113.44L111.044 116.79C111.216 116.922 111.36 117.066 111.46 117.208C111.56 117.349 111.614 117.484 111.617 117.6L111.717 125.11C111.72 125.27 111.762 125.425 111.838 125.557C111.914 125.689 112.022 125.793 112.149 125.86C115.018 127.38 116.834 126.546 117.598 123.36C118.824 118.24 116.572 112.66 111.596 110.34C104.288 106.94 98.1962 108.26 90.8477 111.84C82.4772 115.906 73.9927 120.606 65.3943 125.94C64.5298 126.48 64.1143 126.21 64.1478 125.13L64.8715 103.62C64.8781 103.466 64.9294 103.315 65.0198 103.185C65.1102 103.054 65.2363 102.949 65.3842 102.88C77.5279 97.3598 87.6911 90.5498 100.679 86.4498C101.01 86.3402 101.278 86.1338 101.433 85.8698C104.127 81.3198 94.4767 84.0098 92.235 84.7498C83.2412 87.7165 74.6528 91.5965 66.4699 96.3898C65.5116 96.9498 65.0525 96.6931 65.0927 95.6198L65.9673 71.1098C65.9832 70.6193 66.1017 70.1336 66.3159 69.6818C66.53 69.2299 66.8354 68.8212 67.2138 68.4798C72.9237 63.2998 79.5049 59.2398 86.9573 56.2998C89.6112 55.2498 92.9085 55.5498 95.864 53.5298C97.0904 52.6898 96.9899 52.0631 95.5624 51.6498C85.379 48.7198 75.6179 55.9898 67.0228 61.1098C66.7413 61.2831 66.6106 61.1998 66.6307 60.8598C66.9926 54.9131 67.8035 49.0798 69.0635 43.3598C69.8074 43.6465 70.558 43.6898 71.3153 43.4898C71.4708 43.4509 71.6149 43.3667 71.7332 43.2455C71.8514 43.1244 71.9396 42.9707 71.9888 42.7998C73.2622 38.4865 74.951 34.3398 77.0554 30.3598C77.1471 30.1896 77.2053 30.0099 77.2261 29.8324C77.2469 29.655 77.2298 29.4837 77.176 29.3298C76.9817 28.7631 76.6097 28.3431 76.0602 28.0698C78.1444 25.1298 77.9132 23.1398 75.3665 22.0998C73.6509 21.4065 72.3172 21.8465 71.3656 23.4198C63.1827 36.9098 60.1971 49.5498 58.2468 65.1298C58.2314 65.243 58.1874 65.3507 58.1191 65.4425C58.0508 65.5343 57.9605 65.6072 57.8567 65.6543C57.7529 65.7015 57.6391 65.7212 57.5261 65.7116C57.4132 65.7021 57.3048 65.6636 57.2114 65.5998C52.2655 62.2931 48.3885 58.0598 45.5804 52.8998C44.2434 50.4398 44.0222 47.1698 42.9265 44.3698C41.5794 40.9498 36.9251 40.7498 37.679 45.1698C39.2774 54.5198 49.6015 65.2098 57.0204 70.1498C57.1765 70.2546 57.3062 70.3765 57.395 70.5019C57.4837 70.6273 57.5281 70.7512 57.523 70.8598L56.3569 93.5998C56.3529 93.661 56.3334 93.7201 56.3 93.7717C56.2666 93.8234 56.2204 93.866 56.1656 93.8957C56.1108 93.9255 56.0491 93.9414 55.986 93.9421C55.9228 93.9428 55.8603 93.9283 55.804 93.8998C47.4401 89.6898 40.534 85.9698 35.6685 77.8498C35.5845 77.7074 35.5379 77.5513 35.5344 77.4004C35.5308 77.2496 35.5704 77.1104 35.6484 76.9998C37.3908 74.5331 37.7326 71.9131 36.6737 69.1398C36.5634 68.8434 36.3063 68.5627 35.95 68.3498C31.0543 65.3998 29.6972 70.0498 30.2702 73.6898C31.5469 81.7398 37.2367 87.2798 43.5598 92.1898C47.038 94.8898 51.8834 96.7898 55.8241 99.7798C55.9384 99.8652 56.0294 99.9858 56.0891 100.131C56.1488 100.276 56.1752 100.44 56.1659 100.61L55.1003 123.05C55.093 123.194 55.0505 123.333 54.9763 123.458C54.9021 123.583 54.798 123.69 54.6716 123.772C54.5452 123.854 54.3997 123.907 54.246 123.93C54.0923 123.952 53.9342 123.942 53.7834 123.9C44.5752 121.386 35.0787 119.19 25.2941 117.31C19.2122 116.15 9.14949 113.03 12.4468 104.76C13.3448 102.52 14.2663 100.206 15.2113 97.8198C15.2696 97.6745 15.2891 97.5174 15.2679 97.3647C15.2467 97.2119 15.1856 97.0688 15.0906 96.9498C14.3132 95.9831 13.3649 95.3531 12.2457 95.0598C13.5324 91.2931 13.3582 87.3798 11.723 83.3198C6.28447 69.7698 11.16 59.1598 19.3127 47.9198C23.7828 41.7665 29.409 36.6998 36.1912 32.7198C44.0323 28.1198 41.2879 19.4798 45.8317 13.4398C53.7935 2.85981 67.3244 -1.67019 80.0812 2.58981C85.3489 4.34981 89.953 11.0498 93.8032 14.9598C100.589 21.8098 114.482 19.5198 118.181 29.1498C119.22 31.8565 119.763 33.2598 119.809 33.3598C122.855 40.4398 121.73 49.0398 121.026 55.7898C120.714 58.7298 121.468 60.8598 123.69 63.0298C131.511 70.6598 141.312 78.0598 144.67 88.8698C144.761 89.1797 144.739 89.5123 144.609 89.8098C137.351 106.73 134.004 117.64 132.285 133.31C132.278 133.356 132.137 136.27 131.863 142.05C130.375 173.52 103.715 189.12 74.7835 176.96C70.7557 175.266 66.8586 173.273 63.0922 170.98ZM86.1028 42.6198C84.6049 45.7698 89.0382 43.8898 90.0636 43.2598C94.8788 40.3298 111.295 36.3698 109.737 47.1198C109.684 47.4718 109.723 47.8089 109.847 48.0898C111.556 52.1098 114.482 50.0598 115.346 47.2398C116.834 42.3398 111.516 37.1398 107.354 36.1098C101.684 34.7198 89.199 36.0798 86.1028 42.6198ZM94.0746 70.2498C92.4159 71.2598 86.3843 74.3998 88.9678 77.0998C89.0674 77.2019 89.2014 77.2684 89.351 77.2899C89.5006 77.3114 89.6583 77.2869 89.8022 77.2198C93.391 75.4998 97.1809 72.9198 100.931 72.4398C106.761 71.6865 111.539 73.5531 115.266 78.0398C117.849 81.1598 117.517 84.2698 116.683 87.9498C116.08 90.5698 116.06 93.3298 118.875 94.1298C127.108 96.4598 124.765 83.6098 122.755 79.3998C122.004 77.8465 120.406 75.8798 117.96 73.4998C111.054 66.7798 102.77 64.9298 94.0746 70.2498Z" fill="#B3DED1"/>
<path d="M76.0581 28.0699C72.848 32.7832 70.5157 37.8799 69.0614 43.3599C67.8015 49.0799 66.9906 54.9132 66.6287 60.8599C66.6086 61.1999 66.7393 61.2832 67.0208 61.1099C75.6158 55.9899 85.377 48.7199 95.5604 51.6499C96.9878 52.0632 97.0884 52.6899 95.8619 53.5299C92.9064 55.5499 89.6092 55.2499 86.9553 56.2999C79.5029 59.2399 72.9217 63.2999 67.2118 68.4799C66.8334 68.8212 66.528 69.23 66.3138 69.6818C66.0997 70.1337 65.9811 70.6193 65.9652 71.1099L65.0907 95.6199C65.0505 96.6932 65.5095 96.9499 66.4679 96.3899C74.6508 91.5965 83.2391 87.7165 92.2329 84.7499C94.4747 84.0099 104.125 81.3199 101.431 85.8699C101.276 86.1338 101.008 86.3403 100.677 86.4499C87.6891 90.5499 77.5258 97.3599 65.3822 102.88C65.2342 102.949 65.1082 103.054 65.0178 103.185C64.9274 103.315 64.8761 103.466 64.8695 103.62L64.1457 125.13C64.1122 126.21 64.5277 126.48 65.3922 125.94C73.9906 120.607 82.4751 115.907 90.8456 111.84C98.1942 108.26 104.286 106.94 111.594 110.34C116.57 112.66 118.822 118.24 117.596 123.36C116.832 126.547 115.016 127.38 112.147 125.86C112.02 125.793 111.912 125.689 111.836 125.557C111.76 125.425 111.718 125.27 111.715 125.11L111.614 117.6C111.612 117.484 111.558 117.349 111.458 117.208C111.358 117.066 111.214 116.922 111.041 116.79L106.638 113.44C106.384 113.247 106.086 113.113 105.744 113.04C102.567 112.333 99.8193 112.553 97.5005 113.7C89.2875 117.75 77.0031 123.44 70.6498 129.92C70.612 129.958 70.5848 130.005 70.5707 130.057C70.5566 130.108 70.5561 130.163 70.5691 130.216C70.5821 130.268 70.6083 130.318 70.6452 130.358C70.6821 130.399 70.7286 130.431 70.7805 130.45C87.3473 136.31 100.104 143.16 107.654 159.4C109.815 164.05 109.041 171.48 103.814 173.81C101.334 174.91 99.0319 174.313 96.9074 172.02C95.8284 170.853 95.6106 169.4 96.254 167.66C97.0247 165.567 98.3986 163.827 100.376 162.44C101.984 161.32 102.266 159.927 101.22 158.26C92.1525 143.75 81.7379 139.32 66.5383 133.85C64.9231 133.27 64.0921 133.843 64.0452 135.57L63.0901 170.98C62.2859 181.4 60.4664 191.86 59.6521 201.87C58.9887 210.06 56.3649 221.37 61.2405 228.51C66.4076 236.083 72.1108 243.38 78.3502 250.4C78.5931 250.671 78.7525 251.007 78.8095 251.366C78.8665 251.726 78.8187 252.095 78.6718 252.43C77.8006 254.397 76.5541 254.5 74.9322 252.74C66.7795 243.89 52.384 227.59 52.4142 215.02C52.4477 197.7 53.0777 180.407 54.3041 163.14L54.7062 132.14C54.7062 131.983 54.6684 131.83 54.5965 131.694C54.5246 131.558 54.4207 131.443 54.294 131.36C52.9537 130.487 51.238 129.76 49.1471 129.18C35.5893 125.4 26.294 122.897 21.2609 121.67C11.5701 119.3 4.09093 113.05 5.24699 102.28C6.62085 98.8999 8.95307 96.4932 12.2436 95.0599C13.3628 95.3532 14.3112 95.9832 15.0886 96.9499C15.1835 97.0688 15.2447 97.2119 15.2659 97.3647C15.2871 97.5175 15.2675 97.6745 15.2092 97.8199C14.2643 100.207 13.3428 102.52 12.4447 104.76C9.14743 113.03 19.2102 116.15 25.292 117.31C35.0767 119.19 44.5731 121.387 53.7814 123.9C53.9322 123.942 54.0902 123.952 54.244 123.93C54.3977 123.907 54.5431 123.854 54.6695 123.772C54.796 123.69 54.9001 123.583 54.9743 123.458C55.0485 123.333 55.0909 123.194 55.0983 123.05L56.1639 100.61C56.1731 100.44 56.1467 100.276 56.0871 100.131C56.0274 99.9858 55.9363 99.8653 55.8221 99.7799C51.8814 96.7899 47.036 94.8899 43.5578 92.1899C37.2346 87.2799 31.5448 81.7399 30.2681 73.6899C29.6951 70.0499 31.0522 65.3999 35.9479 68.3499C36.3042 68.5628 36.5613 68.8434 36.6717 69.1399C37.7306 71.9132 37.3888 74.5332 35.6463 76.9999C35.5683 77.1105 35.5287 77.2496 35.5323 77.4005C35.5359 77.5513 35.5825 77.7074 35.6664 77.8499C40.5319 85.9699 47.4381 89.6899 55.8019 93.8999C55.8582 93.9283 55.9208 93.9429 55.9839 93.9422C56.047 93.9414 56.1088 93.9255 56.1636 93.8958C56.2184 93.866 56.2646 93.8234 56.2979 93.7718C56.3313 93.7201 56.3509 93.661 56.3549 93.5999L57.521 70.8599C57.526 70.7512 57.4817 70.6273 57.3929 70.502C57.3042 70.3766 57.1745 70.2547 57.0183 70.1499C49.5994 65.2099 39.2753 54.5199 37.677 45.1699C36.923 40.7499 41.5774 40.9499 42.9244 44.3699C44.0202 47.1699 44.2414 50.4399 45.5784 52.8999C48.3864 58.0599 52.2634 62.2932 57.2093 65.5999C57.3028 65.6636 57.4111 65.7021 57.5241 65.7117C57.637 65.7212 57.7508 65.7015 57.8546 65.6544C57.9584 65.6073 58.0488 65.5343 58.117 65.4425C58.1853 65.3507 58.2293 65.2431 58.2448 65.1299C60.195 49.5499 63.1806 36.9099 71.3635 23.4199C72.3152 21.8465 73.6488 21.4065 75.3645 22.0999C77.9112 23.1399 78.1424 25.1299 76.0581 28.0699ZM104.175 163.83C104.437 166.53 103.633 168.84 101.763 170.76C101.515 171.02 101.562 171.17 101.904 171.21C105.513 171.71 105.744 165.9 105.02 163.6C104.728 162.67 104.095 163.05 104.175 163.83Z" fill="#13162B"/>
<path d="M76.0592 28.0698C76.6087 28.3432 76.9807 28.7632 77.175 29.3298C77.2288 29.4837 77.2459 29.655 77.2251 29.8324C77.2043 30.0099 77.1461 30.1896 77.0544 30.3598C74.95 34.3398 73.2612 38.4865 71.9879 42.7998C71.9386 42.9707 71.8504 43.1244 71.7322 43.2455C71.614 43.3667 71.4699 43.4509 71.3144 43.4898C70.5571 43.6898 69.8064 43.6465 69.0625 43.3598C70.5168 37.8798 72.849 32.7832 76.0592 28.0698Z" fill="#C8EADB"/>
<path d="M5.24414 102.28C4.08808 113.05 11.5673 119.3 21.2581 121.67C26.2911 122.896 35.5865 125.4 49.1442 129.18C51.2352 129.76 52.9508 130.486 54.2912 131.36C54.4178 131.443 54.5217 131.558 54.5937 131.694C54.6656 131.83 54.7033 131.983 54.7034 132.14L54.3012 163.14C45.6358 156.146 36.5583 149.743 27.0685 143.93C17.3777 137.99 6.96315 130.79 2.50981 119.88C-0.184312 113.286 0.727133 107.42 5.24414 102.28Z" fill="#B3DED1"/>
<path d="M89.4958 42.6198C92.5758 36.0798 104.996 34.7198 110.636 36.1098C114.776 37.1398 120.066 42.3398 118.586 47.2398C117.726 50.0598 114.816 52.1098 113.116 48.0898C112.992 47.8089 112.954 47.4718 113.006 47.1198C114.556 36.3698 98.2258 40.3298 93.4358 43.2598C92.4158 43.8898 88.0058 45.7698 89.4958 42.6198Z" fill="#121426"/>
<path d="M92.3461 77.1C89.7761 74.4 95.7761 71.26 97.4261 70.25C106.076 64.93 114.316 66.78 121.186 73.5C123.619 75.88 125.209 77.8467 125.956 79.4C127.956 83.61 130.286 96.46 122.096 94.13C119.296 93.33 119.316 90.57 119.916 87.95C120.746 84.27 121.076 81.16 118.506 78.04C114.799 73.5534 110.046 71.6867 104.246 72.44C100.516 72.92 96.7461 75.5 93.1761 77.22C93.033 77.2872 92.876 77.3117 92.7272 77.2901C92.5784 77.2686 92.4452 77.2022 92.3461 77.1Z" fill="#13162B"/>
<path d="M107.473 163.83C107.393 163.05 108.024 162.67 108.314 163.6C109.034 165.9 108.804 171.71 105.214 171.21C104.874 171.17 104.827 171.02 105.074 170.76C106.934 168.84 107.733 166.53 107.473 163.83Z" fill="#293546"/>
</svg>
