<svg width="91" height="158" viewBox="0 0 91 158" fill="none" xmlns="http://www.w3.org/2000/svg">
<path d="M28.2225 41.6328C22.8644 42.0628 16.6619 44.8528 20.6729 50.9428C20.8493 51.2092 21.1094 51.4155 21.4168 51.5328C22.8644 52.0928 24.379 52.3495 25.9606 52.3028" stroke="#FEEAE0" stroke-width="2"/>
<path d="M25.9609 52.3027L29.8111 55.0727C29.9302 55.1586 30.0196 55.2825 30.068 55.4287C30.1163 55.5748 30.1214 55.7364 30.0825 55.8927C29.8681 56.8394 29.3319 57.5594 28.4741 58.0527" stroke="#FCD9CE" stroke-width="2"/>
<path d="M28.4731 58.0534C24.5459 57.6934 20.8465 58.3734 17.375 60.0934" stroke="#89878E" stroke-width="2"/>
<path d="M17.3722 60.0928C5.72113 59.8728 -6.01036 72.0128 6.12323 81.5528C8.91118 83.7395 12.004 84.4261 15.4018 83.6128C24.6403 81.3928 24.2482 71.3428 20.197 65.0028C20.0974 64.8469 20.0332 64.6808 20.0119 64.5234C19.9906 64.3661 20.0129 64.2238 20.0764 64.1128C20.2037 63.8995 20.4047 63.7395 20.6795 63.6328" stroke="#F6B1A6" stroke-width="2"/>
<path d="M20.6797 63.6335C25.4112 62.6535 29.4155 62.7368 32.6927 63.8835C41.2911 66.8901 48.4016 72.6101 54.0244 81.0434" stroke="#89878E" stroke-width="2"/>
<path d="M54.0279 81.0434C50.5296 90.3434 45.1414 86.3634 39.8134 91.9834C29.5999 102.743 38.1547 114.703 44.8598 123.973C48.0465 128.393 48.8809 133.533 49.8962 138.693C51.2534 145.633 56.1993 151.333 61.6077 155.643C74.6259 166.033 77.2295 100.433 77.3099 96.0834C77.3368 94.6501 77.1055 92.5134 76.6163 89.6734C75.3229 82.0734 77.7455 76.0934 83.8844 71.7334C95.2339 63.6734 88.1367 59.2934 79.994 54.7634C75.1687 52.0834 71.4492 47.8634 66.6139 44.8434C66.3316 44.6671 66.1052 44.4177 65.9604 44.1234C65.0959 42.2734 64.0806 40.2334 63.7388 38.1734C62.0433 27.9134 58.6052 18.2634 53.4248 9.2234C49.9566 3.1634 42.5377 -2.0066 35.6717 3.0434C25.0359 10.8834 32.485 21.2134 37.9335 29.6434C40.4467 33.5434 43.925 41.7034 36.4558 43.3634C36.1621 43.4348 35.8274 43.4032 35.5008 43.2734C33.1686 42.3467 30.7425 41.8001 28.2227 41.6334" stroke="#FCD9CE" stroke-width="2"/>
<path d="M54.0266 81.0431C54.9916 82.7898 55.7623 84.8931 56.3387 87.3531C59.3846 100.293 59.6159 109.673 59.8772 128.533C59.8973 130.353 59.5053 134.013 60.7921 135.473C61.804 136.633 62.7222 136.406 63.5465 134.793C63.6834 134.521 63.7257 134.191 63.6671 133.853C63.2181 131.226 63.0237 128.973 63.084 127.093C63.7576 103.773 62.2296 84.8131 56.4794 63.1631C53.9462 53.5931 50.0055 43.2431 46.5675 33.3431C44.5167 27.4331 46.6378 19.2231 41.2596 14.4231C40.5962 13.8231 40.2644 13.9698 40.2644 14.8631C40.3248 26.7031 42.1644 35.1831 46.2659 47.7531C48.6384 55.0331 50.7159 62.4098 52.4986 69.8831C52.5723 70.2098 52.4785 70.2631 52.2171 70.0431C44.6173 63.6631 38.2539 59.1731 28.4727 58.0531" stroke="#87686B" stroke-width="2"/>
<path d="M25.9572 52.3028L23.4039 48.5128C23.3184 48.385 23.2697 48.2352 23.2626 48.0787C23.2555 47.9223 23.2904 47.7649 23.3636 47.6228C24.5297 45.3128 26.8218 43.9928 28.2191 41.6328" stroke="#FCCBBD" stroke-width="2"/>
<path d="M20.6793 63.6338C18.012 63.7804 16.9096 62.6004 17.372 60.0938" stroke="#804043" stroke-width="2"/>
<path d="M54.0243 81.0434C54.9894 82.7901 55.7601 84.8934 56.3364 87.3534C59.3824 100.293 59.6136 109.673 59.875 128.533C59.8951 130.353 59.5031 134.013 60.7898 135.473C61.8018 136.633 62.7199 136.407 63.5442 134.793C63.6811 134.521 63.7235 134.192 63.6649 133.853C63.2158 131.227 63.0215 128.973 63.0818 127.093C63.7553 103.773 62.2273 84.8134 56.4772 63.1634C53.9439 53.5934 50.0032 43.2434 46.5652 33.3434C44.5145 27.4334 46.6356 19.2234 41.2574 14.4234C40.5939 13.8234 40.2622 13.9701 40.2622 14.8634C40.3225 26.7034 42.1622 35.1834 46.2637 47.7534C48.6361 55.0334 50.7137 62.4101 52.4963 69.8834C52.5701 70.2101 52.4762 70.2634 52.2148 70.0434C44.615 63.6634 38.2517 59.1734 28.4704 58.0534C29.3282 57.5601 29.8643 56.8401 30.0788 55.8934C30.1177 55.7371 30.1126 55.5754 30.0643 55.4293C30.0159 55.2832 29.9264 55.1592 29.8074 55.0734L25.9572 52.3034L23.4039 48.5134C23.3184 48.3856 23.2697 48.2358 23.2626 48.0793C23.2555 47.9229 23.2904 47.7655 23.3636 47.6234C24.5297 45.3134 26.8218 43.9934 28.2191 41.6334C30.7389 41.8001 33.165 42.3467 35.4972 43.2734C35.8239 43.4032 36.1585 43.4348 36.4522 43.3634C43.9214 41.7034 40.4431 33.5434 37.9299 29.6434C32.4814 21.2134 25.0323 10.8834 35.6681 3.0434C42.5341 -2.0066 49.953 3.1634 53.4212 9.2234C58.6017 18.2634 62.0397 27.9134 63.7352 38.1734C64.077 40.2334 65.0923 42.2734 65.9568 44.1234C66.1017 44.4177 66.328 44.6671 66.6103 44.8434C71.4456 47.8634 75.1651 52.0834 79.9904 54.7634C88.1331 59.2934 95.2303 63.6734 83.8808 71.7334C77.742 76.0934 75.3193 82.0734 76.6127 89.6734C77.102 92.5134 77.3332 94.6501 77.3064 96.0834C77.2259 100.433 74.6223 166.033 61.6041 155.643C56.1957 151.333 51.2498 145.633 49.8927 138.693C48.8773 133.533 48.043 128.393 44.8563 123.973C38.1511 114.703 29.5963 102.743 39.8099 91.9834C45.1378 86.3634 50.526 90.3434 54.0243 81.0434Z" fill="#FAB9AB"/>
<path d="M54.0241 81.0431C48.4013 72.6098 41.2907 66.8898 32.6923 63.8831C29.4151 62.7365 25.4108 62.6531 20.6793 63.6331C18.012 63.7798 16.9096 62.5998 17.372 60.0931C20.8435 58.3731 24.5429 57.6931 28.4702 58.0531C38.2514 59.1731 44.6148 63.6631 52.2146 70.0431C52.476 70.2631 52.5698 70.2098 52.4961 69.8831C50.7134 62.4098 48.6359 55.0331 46.2634 47.7531C42.1619 35.1831 40.3223 26.7031 40.2619 14.8631C40.2619 13.9698 40.5937 13.8231 41.2572 14.4231C46.6353 19.2231 44.5142 27.4331 46.565 33.3431C50.003 43.2431 53.9437 53.5931 56.4769 63.1631C62.2271 84.8131 63.7551 103.773 63.0816 127.093C63.0212 128.973 63.2156 131.226 63.6646 133.853C63.7232 134.191 63.6809 134.521 63.544 134.793C62.7197 136.406 61.8015 136.633 60.7896 135.473C59.5028 134.013 59.8949 130.353 59.8747 128.533C59.6134 109.673 59.3821 100.293 56.3362 87.3531C55.7598 84.8931 54.9891 82.7898 54.0241 81.0431Z" fill="#13162B"/>
<path d="M28.2225 41.6328C26.8252 43.9928 24.5331 45.3128 23.367 47.6228C23.2938 47.7649 23.259 47.9223 23.266 48.0787C23.2731 48.2352 23.3218 48.385 23.4073 48.5128L25.9606 52.3028C24.379 52.3495 22.8644 52.0928 21.4168 51.5328C21.1094 51.4155 20.8493 51.2092 20.6729 50.9428C16.6619 44.8528 22.8644 42.0628 28.2225 41.6328Z" fill="#FDDCCF"/>
<path d="M17.3722 60.0928C16.9098 62.5995 18.0122 63.7795 20.6795 63.6328C20.4047 63.7395 20.2037 63.8995 20.0764 64.1128C20.0129 64.2238 19.9906 64.3661 20.0119 64.5234C20.0332 64.6808 20.0974 64.8469 20.197 65.0028C24.2482 71.3428 24.6403 81.3928 15.4018 83.6128C12.004 84.4261 8.91118 83.7395 6.12323 81.5528C-6.01036 72.0128 5.72113 59.8728 17.3722 60.0928Z" fill="#ED6A5B"/>
</svg>
