<svg width="43" height="43" viewBox="0 0 43 43" fill="none" xmlns="http://www.w3.org/2000/svg">
<path d="M14.3642 19.6074C14.7042 20.5474 14.5508 21.3408 13.9041 21.9875C9.91748 25.9741 7.00416 30.2808 5.16416 34.9075C5.09861 35.074 5.07227 35.2465 5.08823 35.4043C5.10419 35.5622 5.16181 35.6987 5.25418 35.7975C5.75418 36.3275 13.9642 29.9575 14.9142 29.3075C15.0402 29.2225 15.183 29.1639 15.3311 29.1365C15.4793 29.1091 15.6287 29.1135 15.7676 29.1494C15.9064 29.1853 16.0308 29.2518 16.1309 29.3434C16.231 29.4351 16.304 29.5495 16.3441 29.6775L19.7242 40.5875C19.7775 40.7597 19.8488 40.914 19.9333 41.0398C20.0178 41.1657 20.1135 41.2603 20.2141 41.3175C20.7741 41.6308 21.1209 41.3808 21.2542 40.5675C22.0475 35.7341 23.0509 31.5341 24.2642 27.9675C24.2916 27.8853 24.3327 27.8086 24.385 27.7418C24.4373 27.6751 24.4997 27.6195 24.5686 27.5785C24.6376 27.5376 24.7116 27.5119 24.7864 27.5032C24.8612 27.4944 24.9352 27.5026 25.0042 27.5275L38.7141 32.3775C39.2278 32.5582 39.7318 32.6575 40.1877 32.6679C40.6435 32.6783 41.0391 32.5995 41.3442 32.4375C43.7842 31.1075 31.4942 21.6975 30.2842 20.7775C28.8775 19.7175 28.9608 18.8441 30.5342 18.1575L35.5542 15.9474C36.6008 15.4874 36.6442 15.1375 35.6842 14.8975C33.0508 14.2441 30.3975 14.1308 27.7242 14.5575C26.6375 14.7308 26.3042 14.3275 26.7242 13.3475C27.2842 12.0375 31.1742 3.63746 30.6242 2.89746C30.5817 2.84085 30.5257 2.79563 30.4598 2.7647C30.3939 2.73378 30.3196 2.71783 30.2415 2.71783C30.1634 2.71783 30.0833 2.73378 30.0063 2.7647C29.9293 2.79563 29.8571 2.84085 29.7942 2.89746L21.7041 10.0474C20.5041 11.1141 19.5408 10.9474 18.8142 9.54745L14.6142 1.48745C14.5467 1.35824 14.4474 1.2477 14.3253 1.16567C14.2031 1.08365 14.0619 1.03271 13.9142 1.01745C9.90416 0.57745 13.3842 8.58746 13.4842 10.4375C13.5842 12.1375 12.8275 13.2541 11.2141 13.7875C7.84081 14.9141 4.8475 15.9374 2.23416 16.8574C-0.145835 17.6974 1.38416 19.0474 2.91416 18.9474C6.50082 18.7208 10.0842 18.7708 13.6642 19.0975C13.8249 19.1119 13.9765 19.1677 14.1007 19.2582C14.2249 19.3487 14.3164 19.47 14.3642 19.6074Z" stroke="#FEE493" stroke-width="2"/>
<path d="M13.6642 19.0975C10.0842 18.7708 6.50082 18.7208 2.91416 18.9474C1.38416 19.0474 -0.145835 17.6974 2.23416 16.8574C4.8475 15.9374 7.84081 14.9141 11.2141 13.7875C12.8275 13.2541 13.5842 12.1375 13.4842 10.4375C13.3842 8.58746 9.90416 0.57745 13.9142 1.01745C14.0619 1.03271 14.2031 1.08365 14.3253 1.16567C14.4474 1.2477 14.5467 1.35824 14.6142 1.48745L18.8142 9.54745C19.5408 10.9474 20.5041 11.1141 21.7041 10.0474L29.7942 2.89746C29.8571 2.84085 29.9293 2.79563 30.0063 2.7647C30.0833 2.73378 30.1634 2.71783 30.2415 2.71783C30.3196 2.71783 30.3939 2.73378 30.4598 2.7647C30.5257 2.79563 30.5817 2.84085 30.6242 2.89746C31.1742 3.63746 27.2842 12.0375 26.7242 13.3475C26.3042 14.3275 26.6375 14.7308 27.7242 14.5575C30.3975 14.1308 33.0508 14.2441 35.6842 14.8975C36.6442 15.1375 36.6008 15.4874 35.5542 15.9474L30.5342 18.1575C28.9608 18.8441 28.8775 19.7175 30.2842 20.7775C31.4942 21.6975 43.7841 31.1075 41.3442 32.4375C41.0391 32.5995 40.6435 32.6783 40.1877 32.6679C39.7318 32.6575 39.2278 32.5582 38.7141 32.3775L25.0042 27.5275C24.9352 27.5026 24.8612 27.4944 24.7864 27.5032C24.7116 27.5119 24.6376 27.5376 24.5686 27.5785C24.4997 27.6195 24.4373 27.6751 24.385 27.7418C24.3327 27.8086 24.2916 27.8853 24.2642 27.9675C23.0509 31.5341 22.0475 35.7341 21.2542 40.5675C21.1209 41.3808 20.7741 41.6308 20.2141 41.3175C20.1135 41.2603 20.0178 41.1657 19.9333 41.0398C19.8488 40.914 19.7775 40.7597 19.7242 40.5875L16.3441 29.6775C16.304 29.5495 16.231 29.4351 16.1309 29.3434C16.0308 29.2518 15.9064 29.1853 15.7676 29.1494C15.6287 29.1135 15.4793 29.1091 15.3311 29.1365C15.183 29.1639 15.0402 29.2225 14.9142 29.3075C13.9642 29.9575 5.75418 36.3274 5.25418 35.7975C5.16181 35.6987 5.10419 35.5622 5.08823 35.4043C5.07227 35.2465 5.09861 35.074 5.16416 34.9075C7.00416 30.2808 9.91748 25.9741 13.9041 21.9875C14.5508 21.3408 14.7042 20.5474 14.3642 19.6074C14.3164 19.47 14.2249 19.3487 14.1007 19.2582C13.9765 19.1677 13.8249 19.1119 13.6642 19.0975Z" fill="#FDCA27"/>
</svg>
