<svg width="103" height="140" viewBox="0 0 103 140" fill="none" xmlns="http://www.w3.org/2000/svg">
<path d="M86.3151 2.94039C85.0851 4.41039 84.3551 9.04039 83.6351 10.9404C74.8151 34.2304 53.6551 43.9504 55.6051 70.8804C55.7551 72.9604 55.0651 74.9404 55.1051 77.0804C55.1984 82.0804 55.1417 87.0737 54.9351 92.0604C54.8551 94.0404 55.3651 96.5204 55.0251 98.8004C54.4751 102.39 54.1751 105.91 53.8551 109.53C53.2451 116.51 51.2351 123.54 49.6851 130.38C49.0651 133.13 47.8151 134.89 48.9651 138.02C49.013 138.158 49.1056 138.275 49.2286 138.355C49.3516 138.434 49.4979 138.471 49.645 138.46C50.8784 138.354 51.8751 137.7 52.6351 136.5C62.9951 120.2 60.8351 98.1604 61.9051 79.7904C62.5751 68.1904 62.275 56.5204 69.335 47.2004C75.845 38.6004 85.3751 28.2704 88.7851 18.0604C90.0651 14.2004 89.825 9.74038 90.235 5.52038C90.465 3.14038 89.1451 -0.45961 86.3151 2.94039Z" stroke="#88868E" stroke-width="2"/>
<path d="M50.9659 43.3804C56.5059 36.6404 63.5359 30.5804 69.8059 24.4504C76.1759 18.2104 78.3759 11.9904 76.5359 3.23039C75.8659 0.080385 74.0459 2.46038 73.6259 3.70038C71.4125 10.2337 68.2225 15.477 64.0559 19.4304C57.7459 25.4304 49.4459 31.3104 45.0759 38.2204C26.8059 67.0504 43.9659 104.03 29.5859 134.62C29.5107 134.773 29.4673 134.936 29.4586 135.097C29.45 135.257 29.4764 135.412 29.5359 135.55C30.2859 137.34 32.2059 136.24 33.1159 135.2C37.6092 130.08 40.3392 124.087 41.3059 117.22C42.1959 110.89 42.9659 102.43 42.8159 94.9004C42.4759 78.1604 40.0159 56.7104 50.9659 43.3804Z" stroke="#8B888F" stroke-width="2"/>
<path d="M57.8159 3.69091C53.8159 18.0809 39.6459 25.9109 30.7959 37.0509C25.3092 43.9509 21.7459 51.5109 20.1059 59.7309C16.9159 75.7209 19.1559 87.8409 20.4459 102.501C21.3759 113.021 18.8759 121.761 15.7059 131.591C14.0959 136.601 18.1959 136.181 20.2659 133.481C30.5559 120.021 29.1159 101.401 27.7159 85.4609C26.2959 69.4209 27.9959 55.5909 37.9159 42.5209C43.4826 35.1876 49.0826 27.8876 54.7159 20.6209C58.8059 15.3409 59.0459 11.2109 60.2059 3.48091C60.2297 3.32172 60.2134 3.16187 60.1587 3.01896C60.104 2.87605 60.0131 2.75561 59.8959 2.6709C58.8959 1.95757 58.2026 2.29757 57.8159 3.69091Z" stroke="#88868E" stroke-width="2"/>
<path d="M37.944 6.53011C36.154 3.43011 34.274 9.97011 33.714 11.5801C33.154 13.2001 31.984 14.0901 31.324 15.7201C29.644 19.8601 25.594 25.3901 23.534 27.1501C13.1807 36.0234 7.17401 47.0668 5.51401 60.2801C4.59401 67.6401 5.70398 75.1901 6.64398 83.2501C7.74398 92.6901 7.93399 103.19 6.12399 112.83C4.93066 119.217 3.35398 125.517 1.39398 131.73C1.35149 131.866 1.35977 132.012 1.41715 132.14C1.47453 132.268 1.57685 132.368 1.70398 132.42C4.65065 133.613 6.74398 132.87 7.98398 130.19C15.824 113.27 14.144 95.7501 12.184 76.7501C10.9173 64.4568 13.484 52.6468 19.884 41.3201C22.654 36.4301 31.984 28.0401 35.534 19.2901C36.944 15.8201 37.124 11.4101 38.054 7.4501C38.1312 7.11652 38.0919 6.7871 37.944 6.53011Z" stroke="#88868E" stroke-width="2"/>
<path d="M97.6259 8.57971C93.5126 17.1664 88.986 25.6397 84.046 33.9997C77.076 45.7797 72.9059 54.7497 71.8759 68.4997C71.0693 79.273 70.6593 87.583 70.6459 93.4297C70.6359 101.79 69.9459 109.64 68.6759 117.89C67.8359 123.35 65.976 128.8 64.386 134.27C63.796 136.31 64.1659 139.71 67.3459 137.23C71.7459 133.8 75.0659 121.4 75.7359 116.04C77.3659 102.87 77.7159 89.6797 79.1759 76.5397C79.7493 71.3997 80.236 66.2497 80.636 61.0897C81.066 55.6297 84.026 48.9397 86.916 44.1997C92.546 34.9897 98.0759 25.8797 101.376 15.5297C102.216 12.8797 101.816 10.6797 100.476 8.4497C99.4426 6.7297 98.4926 6.77304 97.6259 8.57971Z" stroke="#88868E" stroke-width="2"/>
<path d="M86.3151 2.94039C89.1451 -0.45961 90.465 3.14038 90.235 5.52038C89.825 9.74038 90.0651 14.2004 88.7851 18.0604C85.3751 28.2704 75.845 38.6004 69.335 47.2004C62.275 56.5204 62.5751 68.1904 61.9051 79.7904C60.8351 98.1604 62.9951 120.2 52.6351 136.5C51.8751 137.7 50.8784 138.354 49.645 138.46C49.4979 138.471 49.3516 138.434 49.2286 138.355C49.1056 138.275 49.013 138.158 48.9651 138.02C47.8151 134.89 49.0651 133.13 49.6851 130.38C51.2351 123.54 53.2451 116.51 53.8551 109.53C54.1751 105.91 54.4751 102.39 55.0251 98.8004C55.3651 96.5204 54.8551 94.0404 54.9351 92.0604C55.1417 87.0737 55.1984 82.0804 55.1051 77.0804C55.0651 74.9404 55.7551 72.9604 55.6051 70.8804C53.6551 43.9504 74.8151 34.2304 83.6351 10.9404C84.3551 9.04039 85.0851 4.41039 86.3151 2.94039Z" fill="#120F29"/>
<path d="M69.8059 24.4504C63.5359 30.5804 56.5059 36.6404 50.9659 43.3804C40.0159 56.7104 42.4759 78.1604 42.8159 94.9004C42.9659 102.43 42.1959 110.89 41.3059 117.22C40.3392 124.087 37.6092 130.08 33.1159 135.2C32.2059 136.24 30.2859 137.34 29.5359 135.55C29.4764 135.412 29.45 135.257 29.4586 135.097C29.4673 134.936 29.5107 134.773 29.5859 134.62C43.9659 104.03 26.8059 67.0504 45.0759 38.2204C49.4459 31.3104 57.7459 25.4304 64.0559 19.4304C68.2225 15.477 71.4125 10.2337 73.6259 3.70038C74.0459 2.46038 75.8659 0.080385 76.5359 3.23039C78.3759 11.9904 76.1759 18.2104 69.8059 24.4504Z" fill="#18132B"/>
<path d="M57.8159 3.69091C58.2026 2.29757 58.8959 1.95757 59.8959 2.6709C60.0131 2.75561 60.104 2.87605 60.1587 3.01896C60.2134 3.16187 60.2297 3.32172 60.2059 3.48091C59.0459 11.2109 58.8059 15.3409 54.7159 20.6209C49.0826 27.8876 43.4826 35.1876 37.9159 42.5209C27.9959 55.5909 26.2959 69.4209 27.7159 85.4609C29.1159 101.401 30.5559 120.021 20.2659 133.481C18.1959 136.181 14.0959 136.601 15.7059 131.591C18.8759 121.761 21.3759 113.021 20.4459 102.501C19.1559 87.8409 16.9159 75.7209 20.1059 59.7309C21.7459 51.5109 25.3092 43.9509 30.7959 37.0509C39.6459 25.9109 53.8159 18.0809 57.8159 3.69091Z" fill="#120F29"/>
<path d="M33.714 11.5801C34.274 9.97011 36.154 3.43011 37.944 6.53011C38.0919 6.7871 38.1312 7.11652 38.054 7.4501C37.124 11.4101 36.944 15.8201 35.534 19.2901C31.984 28.0401 22.654 36.4301 19.884 41.3201C13.484 52.6468 10.9173 64.4568 12.184 76.7501C14.144 95.7501 15.824 113.27 7.98398 130.19C6.74398 132.87 4.65065 133.613 1.70398 132.42C1.57685 132.368 1.47453 132.268 1.41715 132.14C1.35977 132.012 1.35149 131.866 1.39398 131.73C3.35398 125.517 4.93066 119.217 6.12399 112.83C7.93399 103.19 7.74398 92.6901 6.64398 83.2501C5.70398 75.1901 4.59401 67.6401 5.51401 60.2801C7.17401 47.0668 13.1807 36.0234 23.534 27.1501C25.594 25.3901 29.644 19.8601 31.324 15.7201C31.984 14.0901 33.154 13.2001 33.714 11.5801Z" fill="#120F29"/>
<path d="M97.6259 8.58068C98.4926 6.77402 99.4426 6.73068 100.476 8.45068C101.816 10.6807 102.216 12.8807 101.376 15.5307C98.0759 25.8807 92.546 34.9907 86.916 44.2007C84.026 48.9407 81.066 55.6307 80.636 61.0907C80.236 66.2507 79.7493 71.4007 79.1759 76.5407C77.7159 89.6807 77.3659 102.871 75.7359 116.041C75.0659 121.401 71.7459 133.801 67.3459 137.231C64.1659 139.711 63.796 136.311 64.386 134.271C65.976 128.801 67.8359 123.351 68.6759 117.891C69.9459 109.641 70.6359 101.791 70.6459 93.4307C70.6593 87.584 71.0693 79.274 71.8759 68.5007C72.9059 54.7507 77.076 45.7807 84.046 34.0007C88.986 25.6407 93.5126 17.1674 97.6259 8.58068Z" fill="#120F29"/>
</svg>
