<svg width="112" height="109" viewBox="0 0 112 109" fill="none" xmlns="http://www.w3.org/2000/svg">
<path d="M0.693161 29.253C1.67316 14.493 7.25316 4.55302 22.7832 1.84302C46.5332 -2.29698 73.2332 -0.206976 92.6032 15.833C100.663 22.513 106.26 30.7764 109.393 40.623C118.733 70.023 97.4932 93.253 72.4032 104.223C52.9432 112.733 29.5832 107.593 15.6032 92.143C-1.08684 73.693 -0.906839 53.203 0.693161 29.253ZM52.0732 32.773C50.6798 32.2797 49.3965 32.193 48.2232 32.513C42.1232 34.153 37.6398 37.7497 34.7732 43.303C33.9532 44.8897 33.6932 46.1364 33.9932 47.043C36.3032 54.183 42.8232 61.483 50.6432 61.623C61.1032 61.813 67.5132 50.063 62.6732 41.023C60.7065 37.343 57.1732 34.593 52.0732 32.773ZM64.7932 74.223C65.8232 73.623 72.9332 69.013 72.4632 67.563C72.4474 67.5132 72.4165 67.4707 72.3732 67.4393C72.33 67.4079 72.2756 67.3884 72.2146 67.3825C72.1537 67.3766 72.0881 67.3845 72.0235 67.4055C71.9588 67.4264 71.8969 67.4599 71.8432 67.503C66.2698 71.8764 60.0432 74.8197 53.1632 76.333C48.8432 77.283 44.3632 74.643 40.9532 72.283C39.9132 71.5564 39.8065 71.693 40.6332 72.693C48.0532 81.583 56.3232 79.103 64.7932 74.223Z" fill="#151E30"/>
<path d="M72.4651 67.5633C72.9351 69.0133 65.8251 73.6233 64.7951 74.2233C56.3251 79.1033 48.0551 81.5833 40.6351 72.6933C39.8084 71.6933 39.9151 71.5566 40.9551 72.2833C44.3651 74.6433 48.8451 77.2833 53.1651 76.3333C60.0451 74.82 66.2717 71.8766 71.8451 67.5033C71.8988 67.4602 71.9607 67.4267 72.0254 67.4057C72.0901 67.3847 72.1556 67.3769 72.2166 67.3828C72.2775 67.3887 72.3319 67.4081 72.3752 67.4396C72.4184 67.471 72.4493 67.5135 72.4651 67.5633Z" fill="#C5C162"/>
<path d="M39.6062 40.9333C48.2162 29.5533 63.6662 36.3033 61.6862 50.0133C59.0462 68.3633 29.0362 54.9033 39.6062 40.9333ZM42.3762 47.8433C41.8362 54.0833 48.3062 53.9033 52.4762 54.6133C54.2495 54.9199 55.4929 54.2433 56.2062 52.5833C56.9862 50.7766 57.2762 48.7033 57.0762 46.3633C56.2462 36.8733 43.0062 40.6733 42.3762 47.8433Z" fill="#F0D45A"/>
<path d="M42.3755 47.8429C43.0055 40.6729 56.2455 36.8729 57.0755 46.3629C57.2755 48.7029 56.9855 50.7762 56.2055 52.5829C55.4922 54.2429 54.2488 54.9196 52.4755 54.6129C48.3055 53.9029 41.8355 54.0829 42.3755 47.8429Z" fill="#C5C162"/>
</svg>
