<svg width="101" height="114" viewBox="0 0 101 114" fill="none" xmlns="http://www.w3.org/2000/svg">
<path d="M37.4567 2.10352C13.9667 7.88352 1.38667 36.7435 1.01667 58.3935C0.776668 72.0735 3.03667 91.1535 13.7967 100.964C29.9067 115.644 54.9867 115.934 74.2967 106.624C99.8967 94.2835 103.737 64.7435 96.4667 39.4435C90.3133 18.0635 77.2567 5.57352 57.2967 1.97352C49.8633 0.633516 43.25 0.676854 37.4567 2.10352Z" stroke="#FEE493" stroke-width="2"/>
<path d="M31.358 72.7334C35.568 90.8534 63.158 94.5834 70.298 76.4034C75.678 62.7034 71.528 40.5334 53.608 38.6934C34.908 36.7634 27.938 58.0434 31.358 72.7334Z" stroke="#FEE493" stroke-width="2"/>
<path d="M1.01667 58.3935C1.38667 36.7435 13.9667 7.88352 37.4567 2.10352C43.25 0.676854 49.8633 0.633516 57.2967 1.97352C77.2567 5.57352 90.3133 18.0635 96.4667 39.4435C103.737 64.7435 99.8967 94.2835 74.2967 106.624C54.9867 115.934 29.9067 115.644 13.7967 100.964C3.03667 91.1535 0.776668 72.0735 1.01667 58.3935ZM31.3567 72.7335C35.5667 90.8535 63.1567 94.5835 70.2967 76.4035C75.6767 62.7035 71.5267 40.5335 53.6067 38.6935C34.9067 36.7635 27.9367 58.0435 31.3567 72.7335Z" fill="#FDCA27"/>
</svg>
