<svg width="135" height="127" viewBox="0 0 135 127" fill="none" xmlns="http://www.w3.org/2000/svg">
<path d="M3.49362 88.2202C7.54362 109.48 29.1036 119.87 48.2636 123.26C66.8969 126.547 84.807 125.71 101.994 120.75C120.224 115.48 128.744 100.48 131.484 82.7302C135.894 54.2102 135.864 22.6302 105.564 8.0802C80.4537 -3.9698 39.6436 -0.5798 18.3736 17.8002C-1.28638 34.7702 -0.966381 64.7402 3.49362 88.2202Z" stroke="#8B8EA0" stroke-width="2"/>
<path d="M49.5228 19.4006C49.4228 19.7506 46.1028 32.3206 50.2228 27.9606C51.4728 26.6406 53.4728 21.4606 52.2728 19.2806C51.7461 18.3339 51.0161 18.1239 50.0828 18.6506C49.9533 18.7204 49.8369 18.8229 49.7406 18.9519C49.6443 19.0808 49.5702 19.2335 49.5228 19.4006Z" stroke="#81869C" stroke-width="2"/>
<path d="M82.5934 31.9102C86.3634 32.2402 86.3734 19.7302 81.6034 21.0502C81.4598 21.0933 81.3355 21.1856 81.2516 21.3113C81.1678 21.4371 81.1295 21.5886 81.1434 21.7402L82.0134 31.2302C82.031 31.4076 82.0986 31.5725 82.2044 31.6965C82.3102 31.8205 82.4477 31.8961 82.5934 31.9102Z" stroke="#81869C" stroke-width="2"/>
<path d="M100.782 33.9375C101.201 33.7033 101.343 33.0134 101.176 32.0194C101.01 31.0255 100.548 29.809 99.8937 28.6375C99.5695 28.0575 99.2077 27.5059 98.8288 27.0144C98.4499 26.5229 98.0614 26.101 97.6854 25.7728C97.3095 25.4447 96.9534 25.2167 96.6377 25.1018C96.3219 24.987 96.0526 24.9876 95.8451 25.1035C95.4261 25.3377 95.2843 26.0277 95.451 27.0216C95.6176 28.0156 96.079 29.2321 96.7337 30.4035C97.0579 30.9836 97.4198 31.5351 97.7987 32.0266C98.1776 32.5182 98.5661 32.94 98.9421 33.2682C99.318 33.5964 99.674 33.8244 99.9898 33.9392C100.306 34.0541 100.575 34.0535 100.782 33.9375Z" stroke="#8B8EA0" stroke-width="2"/>
<path d="M23.3405 28.9634C23.4079 28.5069 23.2912 28.0423 23.0161 27.6718C22.7409 27.3013 22.3299 27.0553 21.8734 26.9879L21.7349 26.9674C21.5089 26.934 21.2784 26.9455 21.0568 27.0012C20.8352 27.0568 20.6267 27.1556 20.4433 27.2919C20.2598 27.4281 20.105 27.5991 19.9877 27.7952C19.8704 27.9913 19.7928 28.2086 19.7594 28.4346L18.1671 39.2176C18.0997 39.6741 18.2164 40.1387 18.4915 40.5092C18.7667 40.8797 19.1777 41.1257 19.6342 41.1931L19.7727 41.2136C19.9988 41.247 20.2292 41.2355 20.4508 41.1798C20.6724 41.1242 20.8809 41.0254 21.0643 40.8891C21.2478 40.7529 21.4026 40.5818 21.5199 40.3858C21.6373 40.1897 21.7148 39.9725 21.7482 39.7464L23.3405 28.9634Z" stroke="#81869C" stroke-width="2"/>
<path d="M71.9174 33.2868C71.7222 32.8774 71.3723 32.5624 70.9448 32.4111C70.5173 32.2597 70.0472 32.2843 69.6378 32.4796L69.4934 32.5485C69.2907 32.6451 69.1091 32.7808 68.9588 32.9477C68.8086 33.1146 68.6926 33.3094 68.6176 33.5211C68.5427 33.7328 68.5101 33.9571 68.5219 34.1814C68.5336 34.4056 68.5894 34.6254 68.6861 34.8281L71.9322 41.6336C72.1275 42.0429 72.4774 42.3579 72.9049 42.5093C73.3324 42.6607 73.8025 42.636 74.2118 42.4408L74.3562 42.3719C74.5589 42.2752 74.7406 42.1396 74.8908 41.9727C75.0411 41.8058 75.1571 41.611 75.232 41.3993C75.307 41.1876 75.3395 40.9632 75.3277 40.739C75.316 40.5147 75.2602 40.295 75.1635 40.0923L71.9174 33.2868Z" stroke="#81869C" stroke-width="2"/>
<path d="M44.6362 35.8803C44.7363 35.7436 44.8084 35.5885 44.8486 35.4239C44.8887 35.2593 44.896 35.0884 44.87 34.921C44.8441 34.7536 44.7855 34.5929 44.6975 34.4482C44.6095 34.3034 44.4938 34.1774 44.3571 34.0774L43.6308 33.5459C43.3547 33.3438 43.0097 33.2597 42.6716 33.3121C42.3335 33.3644 42.03 33.5489 41.828 33.825L37.7764 39.3607C37.6763 39.4974 37.6042 39.6525 37.5641 39.8171C37.5239 39.9816 37.5166 40.1525 37.5425 40.3199C37.5684 40.4873 37.6271 40.648 37.7151 40.7928C37.8031 40.9375 37.9188 41.0635 38.0555 41.1636L38.7818 41.6951C39.0579 41.8971 39.4029 41.9812 39.741 41.9289C40.0791 41.8765 40.3825 41.692 40.5846 41.416L44.6362 35.8803Z" stroke="#81869C" stroke-width="2"/>
<path d="M123.362 45.1882C123.36 44.7984 123.202 44.4256 122.924 44.1518C122.647 43.8781 122.272 43.7258 121.882 43.7286L121.362 43.7322C120.972 43.7349 120.599 43.8923 120.326 44.1699C120.052 44.4475 119.9 44.8225 119.902 45.2123L119.986 57.1921C119.989 57.5819 120.146 57.9547 120.424 58.2284C120.701 58.5022 121.076 58.6545 121.466 58.6517L121.986 58.6481C122.376 58.6454 122.749 58.488 123.023 58.2104C123.296 57.9328 123.449 57.5578 123.446 57.1679L123.362 45.1882Z" stroke="#878B9F" stroke-width="2"/>
<path d="M88.4246 58.5498C88.7007 58.6275 88.9949 58.6118 89.2622 58.5052C89.5296 58.3987 89.7552 58.2071 89.9046 57.9598C91.4246 55.4598 93.7546 49.7698 90.7446 47.7298C90.6223 47.646 90.4811 47.5937 90.3337 47.5776C90.1863 47.5615 90.0372 47.5821 89.8996 47.6375C89.7621 47.6929 89.6403 47.7814 89.5452 47.8952C89.4502 48.0091 89.3847 48.1446 89.3546 48.2898C88.8946 50.5598 85.3346 57.6798 88.4246 58.5498Z" stroke="#878B9F" stroke-width="2"/>
<path d="M59.2996 48.5867C59.0697 48.23 58.7075 47.9793 58.2928 47.8896C57.878 47.8 57.4447 47.8787 57.088 48.1086L56.9871 48.1736C56.6304 48.4035 56.3797 48.7656 56.29 49.1804C56.2004 49.5951 56.2791 50.0285 56.509 50.3852L61.7094 58.4547C61.9393 58.8114 62.3014 59.0621 62.7162 59.1518C63.1309 59.2415 63.5643 59.1627 63.921 58.9328L64.0219 58.8678C64.3786 58.6379 64.6293 58.2758 64.7189 57.861C64.8086 57.4463 64.7299 57.0129 64.5 56.6562L59.2996 48.5867Z" stroke="#878B9F" stroke-width="2"/>
<path d="M105.605 50.218C105.569 49.974 105.437 49.7543 105.239 49.6072C105.041 49.4602 104.793 49.3978 104.549 49.4338L102.946 49.6704C102.702 49.7064 102.483 49.838 102.336 50.036C102.189 50.234 102.126 50.4823 102.162 50.7263L103.863 62.2414C103.899 62.4854 104.03 62.7051 104.228 62.8522C104.426 62.9992 104.675 63.0616 104.919 63.0256L106.521 62.789C106.765 62.7529 106.985 62.6214 107.132 62.4234C107.279 62.2254 107.341 61.9771 107.305 61.7331L105.605 50.218Z" stroke="#878B9F" stroke-width="2"/>
<path d="M38.3485 54.9467C38.3986 54.7278 38.4052 54.5012 38.3677 54.2798C38.3303 54.0583 38.2496 53.8464 38.1302 53.6562C38.0109 53.466 37.8553 53.3011 37.6722 53.171C37.4892 53.041 37.2823 52.9482 37.0634 52.8981L36.6735 52.8088C36.4546 52.7586 36.228 52.7521 36.0066 52.7896C35.7852 52.827 35.5733 52.9077 35.383 53.027C35.1928 53.1464 35.0279 53.302 34.8979 53.485C34.7678 53.6681 34.675 53.875 34.6249 54.0939L32.5041 63.3541C32.4539 63.573 32.4475 63.7996 32.4849 64.021C32.5224 64.2424 32.6031 64.4543 32.7224 64.6445C32.8417 64.8348 32.9974 64.9996 33.1804 65.1297C33.3634 65.2598 33.5703 65.3525 33.7892 65.4027L34.1791 65.492C34.398 65.5421 34.6246 65.5486 34.846 65.5112C35.0675 65.4737 35.2793 65.393 35.4695 65.2737C35.6598 65.1544 35.8247 64.9987 35.9548 64.8157C36.0848 64.6327 36.1776 64.4258 36.2277 64.2069L38.3485 54.9467Z" stroke="#81869C" stroke-width="2"/>
<path d="M79.9362 69.2158C79.884 68.9947 79.7887 68.7861 79.6558 68.6018C79.5229 68.4176 79.355 68.2613 79.1617 68.1419C78.9684 68.0225 78.7535 67.9424 78.5293 67.906C78.305 67.8697 78.0757 67.8779 77.8546 67.9302L77.6211 67.9854C77.4 68.0377 77.1914 68.133 77.0071 68.2658C76.8228 68.3987 76.6665 68.5666 76.5471 68.7599C76.4278 68.9532 76.3476 69.1681 76.3113 69.3924C76.275 69.6167 76.2832 69.8459 76.3355 70.067L78.0701 77.4048C78.1224 77.6259 78.2177 77.8345 78.3506 78.0188C78.4835 78.203 78.6513 78.3593 78.8446 78.4787C79.0379 78.5981 79.2528 78.6782 79.4771 78.7145C79.7013 78.7509 79.9306 78.7427 80.1517 78.6904L80.3853 78.6352C80.6064 78.5829 80.815 78.4876 80.9992 78.3547C81.1835 78.2218 81.3398 78.054 81.4592 77.8607C81.5786 77.6674 81.6587 77.4525 81.695 77.2282C81.7314 77.0039 81.7231 76.7747 81.6709 76.5536L79.9362 69.2158Z" stroke="#878B9F" stroke-width="2"/>
<path d="M19.0351 71.9756C19.1188 71.5569 19.0327 71.1221 18.7958 70.7669C18.5588 70.4117 18.1905 70.1651 17.7717 70.0814L17.1835 69.9638C16.9761 69.9224 16.7627 69.9222 16.5553 69.9633C16.3478 70.0043 16.1506 70.0859 15.9747 70.2032C15.7988 70.3205 15.6477 70.4713 15.5301 70.647C15.4125 70.8227 15.3306 71.0198 15.2891 71.2271L11.6328 89.5254C11.5491 89.9442 11.6352 90.379 11.8721 90.7342C12.1091 91.0894 12.4774 91.336 12.8962 91.4196L13.4845 91.5372C13.6918 91.5787 13.9053 91.5789 14.1127 91.5378C14.3201 91.4967 14.5174 91.4152 14.6933 91.2979C14.8692 91.1806 15.0202 91.0298 15.1378 90.8541C15.2555 90.6784 15.3373 90.4813 15.3787 90.2739L19.0351 71.9756Z" stroke="#8B8EA0" stroke-width="2"/>
<path d="M48.6465 86.2007C54.0765 88.1307 54.4565 75.2707 54.4065 72.4507C54.3998 72.1151 54.2828 71.8029 54.0765 71.5706C51.9565 69.2206 50.5265 70.6506 50.4365 73.2206C50.2898 77.5806 49.6032 81.724 48.3765 85.6507C48.3417 85.7579 48.3503 85.8747 48.4006 85.977C48.4508 86.0794 48.5388 86.1594 48.6465 86.2007Z" stroke="#81869C" stroke-width="2"/>
<path d="M105.326 79.9606C108.46 81.6806 111.09 83.9506 113.216 86.7706C113.378 86.9769 113.644 87.1328 113.966 87.2106C114.853 87.4106 115.507 87.1472 115.927 86.4206C116.64 85.1739 116.307 83.8739 114.927 82.5206C112.193 79.8472 109.197 77.5105 105.937 75.5105C104.45 74.5972 103.643 74.9405 103.516 76.5405C103.39 78.0872 103.993 79.2272 105.326 79.9606Z" stroke="#81869C" stroke-width="2"/>
<path d="M99.3127 111.07C100.359 110.677 100.903 109.894 100.943 108.72C100.956 108.372 100.864 108.047 100.683 107.8C96.9927 102.82 90.6627 97.1704 88.5827 91.5104C88.5159 91.3245 88.4198 91.161 88.304 91.0364C88.1882 90.9118 88.0567 90.8304 87.9227 90.8004C86.8894 90.5871 86.066 90.8904 85.4527 91.7104C85.3783 91.8071 85.3288 91.934 85.308 92.0814C85.2872 92.2289 85.2956 92.3928 85.3327 92.5604C86.7227 98.9104 94.3027 106.41 98.3127 110.68C98.4691 110.846 98.6483 110.972 98.8268 111.041C99.0053 111.111 99.1747 111.121 99.3127 111.07Z" stroke="#81869C" stroke-width="2"/>
<path d="M30.013 95.3809C30.0007 94.9673 29.8246 94.5756 29.5235 94.2919C29.2224 94.0081 28.8209 93.8556 28.4074 93.8679L28.1074 93.8768C27.6939 93.8891 27.3022 94.0651 27.0184 94.3662C26.7347 94.6673 26.5822 95.0688 26.5944 95.4824L26.8003 102.419C26.8126 102.833 26.9887 103.225 27.2898 103.508C27.5909 103.792 27.9924 103.945 28.406 103.932L28.7058 103.923C29.1194 103.911 29.5111 103.735 29.7949 103.434C30.0786 103.133 30.2311 102.731 30.2188 102.318L30.013 95.3809Z" stroke="#8B8EA0" stroke-width="2"/>
<path d="M57.2432 100.435C57.1942 100.249 57.1093 100.076 56.9931 99.923C56.8769 99.7705 56.7318 99.6423 56.5661 99.5458C56.4004 99.4494 56.2173 99.3865 56.0273 99.3608C55.8373 99.3351 55.6441 99.3471 55.4587 99.3961L54.7433 99.5852C54.369 99.6841 54.0492 99.9277 53.8544 100.262C53.6596 100.597 53.6058 100.995 53.7047 101.37L57.424 115.447C57.473 115.632 57.558 115.806 57.6742 115.958C57.7904 116.111 57.9354 116.239 58.1011 116.336C58.2668 116.432 58.4499 116.495 58.6399 116.521C58.8299 116.546 59.0232 116.534 59.2085 116.485L59.9239 116.296C60.2983 116.197 60.618 115.954 60.8128 115.619C61.0076 115.284 61.0614 114.886 60.9625 114.512L57.2432 100.435Z" stroke="#878B9F" stroke-width="2"/>
<path d="M48.2675 123.261C29.1075 119.871 7.54753 109.481 3.49753 88.2207C-0.962475 64.7407 -1.28247 34.7707 18.3775 17.8007C39.6475 -0.579311 80.4576 -3.96931 105.568 8.08069C135.868 22.6307 135.898 54.2107 131.488 82.7307C128.748 100.481 120.228 115.481 101.998 120.751C84.8109 125.711 66.9008 126.547 48.2675 123.261ZM49.5275 19.4007C49.4275 19.7507 46.1075 32.3207 50.2275 27.9607C51.4775 26.6407 53.4775 21.4607 52.2775 19.2807C51.7509 18.334 51.0209 18.124 50.0875 18.6507C49.9581 18.7205 49.8416 18.823 49.7454 18.952C49.6491 19.0809 49.575 19.2336 49.5275 19.4007ZM82.5975 31.9107C86.3675 32.2407 86.3775 19.7307 81.6075 21.0507C81.4639 21.0938 81.3396 21.186 81.2557 21.3118C81.1719 21.4375 81.1337 21.589 81.1475 21.7407L82.0175 31.2307C82.0352 31.4081 82.1027 31.5729 82.2085 31.6969C82.3143 31.821 82.4518 31.8965 82.5975 31.9107ZM100.786 33.9377C101.205 33.7035 101.347 33.0135 101.18 32.0196C101.014 31.0256 100.552 29.8091 99.8975 28.6377C99.5733 28.0576 99.2115 27.5061 98.8326 27.0146C98.4537 26.523 98.0652 26.1012 97.6892 25.773C97.3133 25.4448 96.9572 25.2168 96.6415 25.102C96.3257 24.9871 96.0564 24.9877 95.8489 25.1037C95.4299 25.3379 95.2881 26.0278 95.4548 27.0218C95.6214 28.0157 96.0828 29.2322 96.7375 30.4037C97.0617 30.9837 97.4236 31.5353 97.8025 32.0268C98.1814 32.5183 98.5699 32.9402 98.9459 33.2684C99.3218 33.5965 99.6778 33.8246 99.9936 33.9394C100.309 34.0542 100.579 34.0536 100.786 33.9377ZM23.3442 28.9636C23.4116 28.5071 23.2949 28.0425 23.0198 27.672C22.7447 27.3015 22.3336 27.0555 21.8771 26.9881L21.7386 26.9676C21.5126 26.9342 21.2822 26.9457 21.0605 27.0013C20.8389 27.057 20.6305 27.1558 20.447 27.292C20.2636 27.4283 20.1088 27.5993 19.9914 27.7954C19.8741 27.9915 19.7965 28.2087 19.7632 28.4348L18.1708 39.2178C18.1034 39.6743 18.2201 40.1389 18.4953 40.5094C18.7704 40.8798 19.1814 41.1258 19.6379 41.1933L19.7764 41.2138C20.0025 41.2472 20.2329 41.2357 20.4545 41.18C20.6761 41.1244 20.8846 41.0256 21.0681 40.8893C21.2515 40.7531 21.4063 40.582 21.5236 40.386C21.641 40.1899 21.7186 39.9726 21.752 39.7466L23.3442 28.9636ZM71.9202 33.2873C71.7249 32.8779 71.375 32.5629 70.9475 32.4116C70.52 32.2602 70.0499 32.2848 69.6406 32.4801L69.4962 32.549C69.2935 32.6456 69.1118 32.7813 68.9615 32.9482C68.8113 33.1151 68.6953 33.3099 68.6204 33.5216C68.5454 33.7333 68.5128 33.9576 68.5246 34.1819C68.5363 34.4061 68.5922 34.6259 68.6888 34.8286L71.9349 41.6341C72.1302 42.0434 72.4801 42.3584 72.9076 42.5098C73.3351 42.6612 73.8052 42.6365 74.2145 42.4413L74.3589 42.3724C74.5616 42.2757 74.7433 42.1401 74.8936 41.9732C75.0438 41.8063 75.1598 41.6115 75.2347 41.3998C75.3097 41.1881 75.3422 40.9637 75.3304 40.7395C75.3187 40.5152 75.2629 40.2955 75.1663 40.0928L71.9202 33.2873ZM44.6374 35.8805C44.7375 35.7438 44.8097 35.5887 44.8498 35.4241C44.8899 35.2595 44.8972 35.0886 44.8713 34.9212C44.8454 34.7538 44.7867 34.5931 44.6987 34.4484C44.6107 34.3036 44.495 34.1776 44.3583 34.0776L43.632 33.5461C43.3559 33.344 43.0109 33.2599 42.6728 33.3123C42.3348 33.3646 42.0313 33.5491 41.8292 33.8252L37.7776 39.3609C37.6776 39.4976 37.6054 39.6527 37.5653 39.8173C37.5252 39.9818 37.5178 40.1527 37.5438 40.3201C37.5697 40.4875 37.6284 40.6482 37.7164 40.793C37.8044 40.9377 37.9201 41.0637 38.0568 41.1638L38.783 41.6953C39.0591 41.8973 39.4042 41.9814 39.7422 41.9291C40.0803 41.8767 40.3838 41.6922 40.5858 41.4162L44.6374 35.8805ZM123.366 45.1888C123.363 44.7989 123.205 44.4261 122.928 44.1524C122.65 43.8786 122.275 43.7264 121.885 43.7291L121.365 43.7327C120.976 43.7354 120.603 43.8929 120.329 44.1705C120.055 44.4481 119.903 44.823 119.906 45.2129L119.989 57.1926C119.992 57.5825 120.15 57.9552 120.427 58.229C120.705 58.5027 121.08 58.655 121.47 58.6523L121.99 58.6487C122.379 58.646 122.752 58.4885 123.026 58.2109C123.3 57.9333 123.452 57.5583 123.449 57.1685L123.366 45.1888ZM88.4276 58.5507C88.7036 58.6283 88.9978 58.6127 89.2651 58.5061C89.5325 58.3995 89.7582 58.2079 89.9075 57.9607C91.4275 55.4607 93.7576 49.7707 90.7476 47.7307C90.6252 47.6469 90.484 47.5946 90.3366 47.5785C90.1892 47.5624 90.0401 47.5829 89.9025 47.6383C89.765 47.6938 89.6432 47.7823 89.5482 47.8961C89.4531 48.0099 89.3876 48.1455 89.3575 48.2907C88.8975 50.5607 85.3376 57.6807 88.4276 58.5507ZM59.3026 48.5867C59.0727 48.23 58.7106 47.9793 58.2958 47.8896C57.8811 47.8 57.4477 47.8787 57.0911 48.1086L56.9901 48.1736C56.6334 48.4035 56.3827 48.7656 56.2931 49.1804C56.2034 49.5951 56.2822 50.0285 56.512 50.3852L61.7125 58.4547C61.9423 58.8113 62.3045 59.0621 62.7192 59.1518C63.134 59.2414 63.5673 59.1626 63.924 58.9328L64.025 58.8678C64.3816 58.6379 64.6323 58.2757 64.722 57.861C64.8116 57.4462 64.7329 57.0129 64.503 56.6562L59.3026 48.5867ZM105.609 50.219C105.573 49.975 105.441 49.7553 105.243 49.6082C105.045 49.4612 104.797 49.3988 104.553 49.4348L102.95 49.6714C102.706 49.7074 102.486 49.8389 102.339 50.037C102.192 50.235 102.13 50.4833 102.166 50.7273L103.866 62.2424C103.902 62.4864 104.034 62.7061 104.232 62.8531C104.43 63.0002 104.678 63.0626 104.922 63.0266L106.525 62.79C106.769 62.7539 106.989 62.6224 107.136 62.4244C107.283 62.2264 107.345 61.9781 107.309 61.7341L105.609 50.219ZM38.3497 54.947C38.3999 54.7281 38.4064 54.5015 38.369 54.2801C38.3315 54.0586 38.2508 53.8468 38.1315 53.6565C38.0121 53.4663 37.8565 53.3014 37.6735 53.1714C37.4904 53.0413 37.2835 52.9485 37.0646 52.8984L36.6747 52.8091C36.4558 52.7589 36.2292 52.7524 36.0078 52.7899C35.7864 52.8273 35.5745 52.908 35.3843 53.0273C35.194 53.1467 35.0292 53.3023 34.8991 53.4854C34.769 53.6684 34.6763 53.8753 34.6262 54.0942L32.5053 63.3544C32.4552 63.5733 32.4487 63.7999 32.4861 64.0213C32.5236 64.2427 32.6043 64.4546 32.7236 64.6448C32.843 64.8351 32.9986 64.9999 33.1816 65.13C33.3647 65.2601 33.5716 65.3529 33.7905 65.403L34.1804 65.4923C34.3993 65.5424 34.6259 65.549 34.8473 65.5115C35.0687 65.4741 35.2805 65.3933 35.4708 65.274C35.661 65.1547 35.8259 64.9991 35.956 64.816C36.0861 64.633 36.1788 64.4261 36.2289 64.2072L38.3497 54.947ZM79.9406 69.2162C79.8883 68.9951 79.7931 68.7865 79.6602 68.6022C79.5273 68.4179 79.3594 68.2617 79.1661 68.1423C78.9728 68.0229 78.7579 67.9428 78.5336 67.9064C78.3094 67.8701 78.0801 67.8783 77.859 67.9306L77.6254 67.9858C77.4043 68.038 77.1957 68.1333 77.0115 68.2662C76.8272 68.3991 76.6709 68.567 76.5515 68.7603C76.4321 68.9536 76.352 69.1685 76.3157 69.3928C76.2794 69.6171 76.2876 69.8463 76.3398 70.0674L78.0745 77.4052C78.1267 77.6263 78.222 77.8349 78.3549 78.0192C78.4878 78.2034 78.6557 78.3597 78.849 78.4791C79.0423 78.5985 79.2572 78.6786 79.4814 78.7149C79.7057 78.7513 79.935 78.7431 80.1561 78.6908L80.3896 78.6356C80.6107 78.5833 80.8193 78.488 81.0036 78.3551C81.1879 78.2222 81.3442 78.0544 81.4636 77.8611C81.5829 77.6678 81.6631 77.4528 81.6994 77.2286C81.7357 77.0043 81.7275 76.7751 81.6752 76.554L79.9406 69.2162ZM19.0387 71.9758C19.1224 71.557 19.0363 71.1223 18.7993 70.767C18.5624 70.4118 18.1941 70.1652 17.7753 70.0816L17.187 69.964C16.9797 69.9226 16.7662 69.9223 16.5588 69.9634C16.3514 70.0045 16.1541 70.086 15.9782 70.2033C15.8023 70.3206 15.6513 70.4714 15.5337 70.6471C15.416 70.8228 15.3342 71.02 15.2927 71.2273L11.6363 89.5256C11.5527 89.9443 11.6388 90.3791 11.8757 90.7343C12.1127 91.0896 12.481 91.3361 12.8997 91.4198L13.488 91.5374C13.6954 91.5788 13.9088 91.579 14.1162 91.5379C14.3236 91.4969 14.5209 91.4154 14.6968 91.2981C14.8727 91.1808 15.0238 91.0299 15.1414 90.8542C15.259 90.6786 15.3409 90.4814 15.3823 90.2741L19.0387 71.9758ZM48.6475 86.2007C54.0775 88.1307 54.4575 75.2707 54.4075 72.4507C54.4009 72.1152 54.2838 71.803 54.0775 71.5707C51.9575 69.2207 50.5276 70.6507 50.4376 73.2207C50.2909 77.5807 49.6042 81.724 48.3776 85.6507C48.3428 85.7579 48.3514 85.8747 48.4016 85.9771C48.4518 86.0794 48.5399 86.1595 48.6475 86.2007ZM105.328 79.9607C108.461 81.6807 111.091 83.9507 113.218 86.7707C113.379 86.977 113.645 87.133 113.968 87.2107C114.854 87.4107 115.508 87.1474 115.928 86.4207C116.641 85.174 116.308 83.874 114.928 82.5207C112.194 79.8474 109.198 77.5107 105.938 75.5107C104.451 74.5974 103.644 74.9407 103.518 76.5407C103.391 78.0873 103.994 79.2274 105.328 79.9607ZM99.3176 111.071C100.364 110.677 100.908 109.894 100.948 108.721C100.96 108.372 100.869 108.047 100.688 107.801C96.9976 102.821 90.6675 97.1707 88.5875 91.5107C88.5208 91.3247 88.4247 91.1612 88.3088 91.0366C88.193 90.912 88.0615 90.8307 87.9276 90.8007C86.8942 90.5874 86.0709 90.8907 85.4575 91.7107C85.3832 91.8073 85.3337 91.9343 85.3129 92.0817C85.2921 92.2291 85.3005 92.393 85.3375 92.5607C86.7275 98.9107 94.3076 106.411 98.3176 110.681C98.474 110.846 98.6532 110.972 98.8317 111.042C99.0102 111.111 99.1796 111.121 99.3176 111.071ZM30.0139 95.3815C30.0016 94.9679 29.8255 94.5762 29.5244 94.2924C29.2233 94.0087 28.8218 93.8562 28.4083 93.8685L28.1083 93.8774C27.6948 93.8897 27.3031 94.0657 27.0193 94.3668C26.7356 94.6679 26.5831 95.0694 26.5953 95.483L26.8012 102.42C26.8135 102.833 26.9896 103.225 27.2907 103.509C27.5918 103.793 27.9933 103.945 28.4069 103.933L28.7067 103.924C29.1203 103.912 29.512 103.736 29.7958 103.435C30.0795 103.133 30.232 102.732 30.2197 102.318L30.0139 95.3815ZM57.2471 100.435C57.1982 100.249 57.1132 100.076 56.997 99.923C56.8808 99.7704 56.7357 99.6423 56.57 99.5458C56.4043 99.4494 56.2212 99.3865 56.0312 99.3608C55.8412 99.3351 55.648 99.3471 55.4626 99.3961L54.7472 99.5852C54.3729 99.6841 54.0531 99.9277 53.8583 100.262C53.6636 100.597 53.6097 100.995 53.7086 101.37L57.4279 115.447C57.4769 115.632 57.5619 115.806 57.6781 115.958C57.7943 116.111 57.9393 116.239 58.105 116.336C58.2707 116.432 58.4539 116.495 58.6439 116.521C58.8339 116.546 59.0271 116.534 59.2125 116.485L59.9279 116.296C60.3022 116.197 60.6219 115.954 60.8167 115.619C61.0115 115.284 61.0653 114.886 60.9664 114.512L57.2471 100.435Z" fill="#181D42"/>
<path d="M50.0867 18.6506C51.02 18.1239 51.75 18.3339 52.2767 19.2806C53.4767 21.4606 51.4767 26.6406 50.2267 27.9606C46.1067 32.3206 49.4267 19.7506 49.5267 19.4006C49.5741 19.2335 49.6482 19.0808 49.7445 18.9519C49.8408 18.8229 49.9572 18.7204 50.0867 18.6506Z" fill="#EAEFF6"/>
<path d="M81.6073 21.0507C86.3773 19.7307 86.3673 32.2407 82.5973 31.9107C82.4516 31.8966 82.3141 31.821 82.2083 31.697C82.1025 31.5729 82.0349 31.4081 82.0173 31.2307L81.1473 21.7407C81.1334 21.5891 81.1717 21.4376 81.2555 21.3118C81.3394 21.1861 81.4637 21.0938 81.6073 21.0507Z" fill="#EAEFF6"/>
<path d="M100.786 33.9375C100.579 34.0535 100.309 34.0541 99.9937 33.9392C99.6779 33.8244 99.3219 33.5964 98.946 33.2682C98.57 32.94 98.1815 32.5182 97.8026 32.0266C97.4237 31.5351 97.0618 30.9836 96.7377 30.4035C96.083 29.2321 95.6215 28.0156 95.4549 27.0216C95.2882 26.0277 95.43 25.3377 95.849 25.1035C96.0565 24.9876 96.3258 24.987 96.6416 25.1018C96.9573 25.2167 97.3134 25.4447 97.6893 25.7728C98.0653 26.101 98.4538 26.5229 98.8327 27.0144C99.2116 27.5059 99.5734 28.0575 99.8976 28.6375C100.552 29.809 101.014 31.0255 101.18 32.0194C101.347 33.0134 101.205 33.7033 100.786 33.9375Z" fill="#FEFEFE"/>
<path d="M21.7521 39.7464C21.7188 39.9725 21.6412 40.1897 21.5238 40.3858C21.4065 40.5818 21.2517 40.7529 21.0682 40.8891C20.8848 41.0254 20.6763 41.1242 20.4547 41.1798C20.2331 41.2355 20.0027 41.247 19.7766 41.2136L19.6381 41.1931C19.1816 41.1257 18.7706 40.8797 18.4954 40.5092C18.2203 40.1387 18.1036 39.6741 18.171 39.2176L19.7633 28.4346C19.7967 28.2086 19.8743 27.9913 19.9916 27.7952C20.1089 27.5991 20.2638 27.4281 20.4472 27.2919C20.6306 27.1556 20.8391 27.0568 21.0607 27.0012C21.2823 26.9455 21.5128 26.934 21.7388 26.9674L21.8773 26.9879C22.3338 27.0553 22.7448 27.3013 23.02 27.6718C23.2951 28.0423 23.4118 28.5069 23.3444 28.9634L21.7521 39.7464Z" fill="#EAEFF6"/>
<path d="M75.1674 40.0928C75.2641 40.2954 75.3199 40.5152 75.3316 40.7395C75.3434 40.9637 75.3109 41.1881 75.2359 41.3998C75.161 41.6114 75.045 41.8063 74.8947 41.9732C74.7445 42.14 74.5628 42.2757 74.3601 42.3724L74.2157 42.4413C73.8064 42.6365 73.3363 42.6612 72.9088 42.5098C72.4813 42.3584 72.1314 42.0434 71.9361 41.6341L68.69 34.8286C68.5934 34.6259 68.5375 34.4061 68.5258 34.1819C68.514 33.9576 68.5466 33.7332 68.6215 33.5216C68.6965 33.3099 68.8125 33.115 68.9627 32.9482C69.113 32.7813 69.2946 32.6456 69.4973 32.549L69.6417 32.4801C70.0511 32.2848 70.5212 32.2602 70.9487 32.4115C71.3762 32.5629 71.7261 32.8779 71.9213 33.2873L75.1674 40.0928Z" fill="#EAEFF6"/>
<path d="M40.5846 41.416C40.3825 41.692 40.0791 41.8765 39.741 41.9289C39.4029 41.9812 39.0579 41.8971 38.7818 41.6951L38.0555 41.1636C37.9188 41.0635 37.8031 40.9375 37.7151 40.7928C37.6271 40.648 37.5684 40.4873 37.5425 40.3199C37.5166 40.1525 37.5239 39.9816 37.5641 39.8171C37.6042 39.6525 37.6763 39.4974 37.7764 39.3607L41.828 33.825C42.03 33.5489 42.3335 33.3644 42.6716 33.3121C43.0097 33.2597 43.3547 33.3438 43.6308 33.5459L44.3571 34.0774C44.4938 34.1774 44.6095 34.3034 44.6975 34.4482C44.7855 34.5929 44.8441 34.7536 44.87 34.921C44.896 35.0884 44.8887 35.2593 44.8486 35.4239C44.8084 35.5885 44.7363 35.7436 44.6362 35.8803L40.5846 41.416Z" fill="#EAEFF6"/>
<path d="M123.45 57.1684C123.453 57.5583 123.3 57.9333 123.027 58.2109C122.753 58.4884 122.38 58.6459 121.99 58.6486L121.47 58.6522C121.08 58.6549 120.705 58.5027 120.428 58.2289C120.15 57.9552 119.993 57.5824 119.99 57.1925L119.906 45.2128C119.904 44.823 120.056 44.448 120.33 44.1704C120.603 43.8928 120.976 43.7354 121.366 43.7326L121.886 43.729C122.276 43.7263 122.651 43.8786 122.928 44.1523C123.206 44.4261 123.363 44.7989 123.366 45.1887L123.45 57.1684Z" fill="#F5F8FC"/>
<path d="M88.4285 58.5508C85.3385 57.6808 88.8985 50.5608 89.3585 48.2908C89.3886 48.1456 89.4541 48.01 89.5491 47.8962C89.6442 47.7824 89.766 47.6939 89.9035 47.6384C90.0411 47.583 90.1902 47.5625 90.3376 47.5786C90.485 47.5947 90.6262 47.647 90.7485 47.7308C93.7585 49.7708 91.4285 55.4608 89.9085 57.9608C89.7591 58.208 89.5335 58.3996 89.2661 58.5062C88.9988 58.6128 88.7046 58.6284 88.4285 58.5508Z" fill="#F5F8FC"/>
<path d="M64.5039 56.6562C64.7338 57.0129 64.8125 57.4463 64.7228 57.861C64.6332 58.2758 64.3825 58.6379 64.0258 58.8678L63.9249 58.9328C63.5682 59.1627 63.1349 59.2415 62.7201 59.1518C62.3053 59.0621 61.9432 58.8114 61.7133 58.4547L56.5129 50.3852C56.283 50.0285 56.2043 49.5951 56.294 49.1804C56.3836 48.7656 56.6343 48.4035 56.991 48.1736L57.0919 48.1086C57.4486 47.8787 57.8819 47.8 58.2967 47.8896C58.7114 47.9793 59.0736 48.23 59.3035 48.5867L64.5039 56.6562Z" fill="#F5F8FC"/>
<path d="M107.309 61.7341C107.345 61.9781 107.283 62.2264 107.136 62.4244C106.989 62.6224 106.769 62.7539 106.525 62.79L104.922 63.0266C104.678 63.0626 104.43 63.0002 104.232 62.8531C104.034 62.7061 103.903 62.4864 103.867 62.2424L102.166 50.7273C102.13 50.4833 102.193 50.235 102.34 50.0369C102.487 49.8389 102.706 49.7074 102.95 49.6714L104.553 49.4348C104.797 49.3988 105.045 49.4611 105.243 49.6082C105.441 49.7553 105.573 49.975 105.609 50.219L107.309 61.7341Z" fill="#F5F8FC"/>
<path d="M36.2277 64.2069C36.1776 64.4258 36.0848 64.6327 35.9548 64.8157C35.8247 64.9987 35.6598 65.1544 35.4695 65.2737C35.2793 65.393 35.0675 65.4737 34.846 65.5112C34.6246 65.5486 34.398 65.5421 34.1791 65.492L33.7892 65.4027C33.5703 65.3525 33.3634 65.2598 33.1804 65.1297C32.9974 64.9996 32.8417 64.8348 32.7224 64.6445C32.6031 64.4543 32.5224 64.2424 32.4849 64.021C32.4475 63.7996 32.4539 63.573 32.5041 63.3541L34.6249 54.0939C34.675 53.875 34.7678 53.6681 34.8979 53.485C35.0279 53.302 35.1928 53.1464 35.383 53.027C35.5733 52.9077 35.7852 52.827 36.0066 52.7896C36.228 52.7521 36.4546 52.7586 36.6735 52.8088L37.0634 52.8981C37.2823 52.9482 37.4892 53.041 37.6722 53.171C37.8553 53.3011 38.0109 53.466 38.1302 53.6562C38.2496 53.8464 38.3303 54.0583 38.3677 54.2798C38.4052 54.5012 38.3986 54.7278 38.3485 54.9467L36.2277 64.2069Z" fill="#EAEFF6"/>
<path d="M81.6748 76.5546C81.727 76.7757 81.7353 77.0049 81.6989 77.2292C81.6626 77.4534 81.5825 77.6683 81.4631 77.8616C81.3437 78.0549 81.1874 78.2228 81.0031 78.3557C80.8189 78.4886 80.6103 78.5839 80.3892 78.6362L80.1556 78.6914C79.9345 78.7437 79.7053 78.7518 79.481 78.7155C79.2567 78.6792 79.0418 78.5991 78.8485 78.4797C78.6552 78.3603 78.4874 78.204 78.3545 78.0198C78.2216 77.8355 78.1263 77.6269 78.074 77.4058L76.3394 70.068C76.2871 69.8469 76.2789 69.6176 76.3152 69.3934C76.3515 69.1691 76.4317 68.9542 76.5511 68.7609C76.6704 68.5676 76.8268 68.3997 77.011 68.2668C77.1953 68.1339 77.4039 68.0386 77.625 67.9864L77.8585 67.9312C78.0796 67.8789 78.3089 67.8707 78.5332 67.907C78.7574 67.9433 78.9723 68.0235 79.1656 68.1429C79.3589 68.2622 79.5268 68.4185 79.6597 68.6028C79.7926 68.7871 79.8879 68.9957 79.9402 69.2168L81.6748 76.5546Z" fill="#F5F8FC"/>
<path d="M15.3826 90.2739C15.3412 90.4813 15.2594 90.6784 15.1417 90.8541C15.0241 91.0298 14.8731 91.1806 14.6972 91.2979C14.5213 91.4152 14.324 91.4967 14.1166 91.5378C13.9092 91.5789 13.6957 91.5787 13.4884 91.5372L12.9001 91.4196C12.4813 91.336 12.113 91.0894 11.8761 90.7342C11.6391 90.379 11.553 89.9442 11.6367 89.5254L15.293 71.2271C15.3345 71.0198 15.4164 70.8227 15.534 70.647C15.6516 70.4713 15.8027 70.3205 15.9786 70.2032C16.1545 70.0859 16.3518 70.0043 16.5592 69.9633C16.7666 69.9222 16.98 69.9224 17.1874 69.9638L17.7757 70.0814C18.1944 70.1651 18.5627 70.4117 18.7997 70.7669C19.0366 71.1221 19.1227 71.5569 19.039 71.9756L15.3826 90.2739Z" fill="#FEFEFE"/>
<path d="M48.6465 86.2007C48.5388 86.1594 48.4508 86.0794 48.4006 85.977C48.3503 85.8747 48.3417 85.7579 48.3765 85.6507C49.6032 81.724 50.2898 77.5806 50.4365 73.2206C50.5265 70.6506 51.9565 69.2206 54.0765 71.5706C54.2828 71.8029 54.3998 72.1151 54.4065 72.4507C54.4565 75.2706 54.0765 88.1306 48.6465 86.2007Z" fill="#EAEFF6"/>
<path d="M105.326 79.9606C103.993 79.2272 103.39 78.0872 103.516 76.5405C103.643 74.9405 104.45 74.5972 105.937 75.5105C109.197 77.5105 112.193 79.8472 114.927 82.5206C116.307 83.8739 116.64 85.1739 115.927 86.4206C115.507 87.1472 114.853 87.4106 113.966 87.2106C113.644 87.1328 113.378 86.9769 113.216 86.7706C111.09 83.9506 108.46 81.6806 105.326 79.9606Z" fill="#EAEFF6"/>
<path d="M98.3166 110.68C94.3066 106.41 86.7266 98.9104 85.3366 92.5604C85.2995 92.3928 85.2911 92.2289 85.3119 92.0814C85.3327 91.934 85.3822 91.8071 85.4566 91.7104C86.0699 90.8904 86.8933 90.5871 87.9266 90.8004C88.0606 90.8304 88.1921 90.9118 88.3079 91.0364C88.4237 91.161 88.5198 91.3245 88.5866 91.5104C90.6666 97.1704 96.9966 102.82 100.687 107.8C100.868 108.047 100.96 108.372 100.947 108.72C100.907 109.894 100.363 110.677 99.3166 111.07C99.1786 111.121 99.0092 111.111 98.8307 111.041C98.6522 110.972 98.473 110.846 98.3166 110.68Z" fill="#EAEFF6"/>
<path d="M30.2188 102.318C30.2311 102.731 30.0786 103.133 29.7949 103.434C29.5111 103.735 29.1194 103.911 28.7058 103.923L28.406 103.932C27.9924 103.945 27.5909 103.792 27.2898 103.508C26.9887 103.225 26.8126 102.833 26.8003 102.419L26.5944 95.4824C26.5822 95.0688 26.7347 94.6673 27.0184 94.3662C27.3022 94.0651 27.6939 93.8891 28.1074 93.8768L28.4074 93.8679C28.8209 93.8556 29.2224 94.0081 29.5235 94.2919C29.8246 94.5756 30.0007 94.9673 30.013 95.3809L30.2188 102.318Z" fill="#FEFEFE"/>
<path d="M60.9664 114.512C61.0653 114.886 61.0115 115.284 60.8167 115.619C60.6219 115.954 60.3022 116.197 59.9278 116.296L59.2124 116.485C59.0271 116.534 58.8338 116.546 58.6438 116.521C58.4538 116.495 58.2707 116.432 58.105 116.336C57.9393 116.239 57.7943 116.111 57.6781 115.958C57.5619 115.806 57.4769 115.632 57.4279 115.447L53.7086 101.37C53.6097 100.995 53.6635 100.597 53.8583 100.262C54.0531 99.9277 54.3729 99.6841 54.7472 99.5852L55.4626 99.3961C55.648 99.3471 55.8412 99.3351 56.0312 99.3608C56.2212 99.3865 56.4043 99.4494 56.57 99.5458C56.7357 99.6423 56.8808 99.7705 56.997 99.923C57.1132 100.076 57.1981 100.249 57.2471 100.435L60.9664 114.512Z" fill="#F5F8FC"/>
</svg>
