<svg width="129" height="121" viewBox="0 0 129 121" fill="none" xmlns="http://www.w3.org/2000/svg">
<path d="M119.198 34.5298C119.098 33.2232 118.528 32.1532 117.488 31.3198" stroke="#F9EFC7" stroke-width="2"/>
<path d="M117.486 31.32C111.546 22.6533 104.076 15.71 95.0764 10.49C90.4664 7.82 84.9464 6.34997 79.6964 4.51997C74.8664 2.83997 70.1164 2.76995 65.0764 1.93995C62.4764 1.50662 60.0664 1.40329 57.8464 1.62995C40.5764 3.38995 26.0564 6.59999 14.6964 20.92C5.58639 32.4 2.33638 45.53 1.74638 60.03C1.00638 78.26 15.2564 97.59 29.3664 107.68C44.5264 118.51 62.3364 120.42 80.9164 119.73C92.5764 119.3 101.166 116.24 110.346 109.77C129.906 95.97 128.806 77.8 126.446 56.41C125.536 48.11 123.046 41.57 119.196 34.53" stroke="#FEE8A1" stroke-width="2"/>
<path d="M117.488 31.3198C117.775 32.5332 118.345 33.6032 119.198 34.5298" stroke="#F8D769" stroke-width="2"/>
<path d="M50.1569 16.41C51.0769 17.0767 52.0969 17.1133 53.2169 16.52C55.7269 15.17 60.157 15.03 61.187 11.76C61.547 10.63 60.867 9.74001 59.697 9.72001C59.3849 9.71351 59.0485 9.8221 58.7369 10.03C57.6436 10.7433 56.587 10.7067 55.567 9.92002C55.4271 9.81356 55.2719 9.74082 55.1174 9.7092C54.9628 9.67759 54.8143 9.68823 54.687 9.74003C53.5203 10.22 53.1436 11.1467 53.557 12.52C53.5854 12.6105 53.592 12.7064 53.5762 12.8C53.5604 12.8935 53.5227 12.982 53.4661 13.0581C53.4095 13.1342 53.3356 13.1958 53.2506 13.2379C53.1656 13.2799 53.0718 13.3012 52.9769 13.3C51.9436 13.2934 51.0103 12.9634 50.1769 12.31C50.0587 12.2179 49.9213 12.1512 49.7766 12.1158C49.632 12.0803 49.4845 12.0773 49.3473 12.1069C49.2101 12.1365 49.0872 12.1979 48.9895 12.2856C48.8918 12.3733 48.8222 12.4847 48.7869 12.61C48.3469 14.1634 48.8036 15.43 50.1569 16.41Z" stroke="#917C3A" stroke-width="2"/>
<path d="M87.5862 24.6898C89.1262 25.9631 90.5596 25.8632 91.8862 24.3898C91.9482 24.3217 92.0581 24.2886 92.198 24.2959C92.3379 24.3032 92.4994 24.3504 92.6562 24.4299C94.9262 25.5699 100.686 23.6698 97.8162 21.3298C97.5699 21.1358 97.2774 21.0301 96.9862 21.0298H93.4862C93.3792 21.0283 93.2765 20.9615 93.1999 20.8438C93.1233 20.7261 93.0789 20.5668 93.0763 20.3998C93.0363 18.0298 95.1362 15.1199 92.6562 13.4899C92.5332 13.408 92.3815 13.3707 92.2221 13.3832C92.0627 13.3958 91.9035 13.4575 91.7663 13.5599C89.9463 14.9265 89.1929 16.7465 89.5062 19.0198C89.514 19.0726 89.5036 19.1256 89.4758 19.1747C89.448 19.2238 89.4035 19.2678 89.3458 19.3034C89.288 19.339 89.2185 19.3653 89.1424 19.3802C89.0663 19.3952 88.9855 19.3985 88.9062 19.3898C86.3595 19.1365 85.1996 19.9298 85.4262 21.7698C85.5329 22.6165 86.2529 23.5898 87.5862 24.6898Z" stroke="#917C3A" stroke-width="2"/>
<path d="M55.0258 42.2597L48.9459 38.5597C47.9259 37.9464 47.4192 38.2397 47.4258 39.4397C47.4358 47.3097 54.5358 48.1997 60.7258 46.1497C60.9884 46.0604 61.2397 45.8271 61.4258 45.4997L64.7459 39.4997C65.3259 38.4463 64.9992 38.0664 63.7659 38.3597C60.8525 39.0597 58.2792 40.393 56.0458 42.3597C55.9451 42.4482 55.7907 42.4864 55.6063 42.4683C55.422 42.4502 55.2179 42.3769 55.0258 42.2597Z" stroke="#917C3A" stroke-width="2"/>
<path d="M106.288 54.5396C105.495 54.4196 105.392 54.0762 105.978 53.5096C109.678 49.9429 109.702 46.3329 106.048 42.6796C104.402 41.0329 103.298 41.3263 102.738 43.5596C102.352 45.0863 102.048 46.6362 101.828 48.2096C101.038 53.6996 95.5183 54.8696 91.2283 56.7196C88.7783 57.7696 89.5183 59.6096 91.9083 59.9696C93.835 60.2563 95.765 60.5496 97.6983 60.8496C98.0042 60.8963 98.2814 61.0566 98.4757 61.2989C98.67 61.5413 98.7672 61.8483 98.7483 62.1596C98.1183 71.9296 104.538 69.3096 105.718 62.2096C105.789 61.7751 106 61.3758 106.318 61.0726C106.635 60.7693 107.043 60.5786 107.478 60.5296C108.808 60.3796 120.198 58.3196 118.488 55.7096C118.322 55.466 118.052 55.2938 117.738 55.2296L111.048 53.9796C110.688 53.9063 110.335 53.9296 109.988 54.0496C108.548 54.5363 107.315 54.6996 106.288 54.5396Z" stroke="#958145" stroke-width="2"/>
<path d="M18.1161 59.6999C17.1161 59.5399 15.1062 60.3699 14.4362 59.5199C14.3476 59.4089 14.3008 59.271 14.3045 59.1313C14.3082 58.9917 14.362 58.8598 14.4561 58.7599C15.7361 57.4533 16.3328 55.8766 16.2462 54.03C16.2401 53.871 16.1764 53.7167 16.0645 53.5904C15.9526 53.4641 15.7988 53.3727 15.6262 53.3299C11.7162 52.3399 10.2262 55.8499 8.93615 58.8199C8.84885 59.0198 8.74661 59.1949 8.63738 59.3319C8.52816 59.4689 8.41485 59.564 8.30615 59.61L5.31616 60.87C5.09326 60.9646 4.89177 61.1042 4.72644 61.2786C4.5611 61.4529 4.43608 61.6577 4.36041 61.878C4.28473 62.0984 4.26032 62.3287 4.289 62.5522C4.31767 62.7757 4.39866 62.9867 4.52612 63.17C5.70612 64.85 6.32613 65.98 8.60613 65.79C12.7128 65.45 15.9495 63.5966 18.3162 60.23C18.3487 60.1809 18.3694 60.1245 18.3766 60.0663C18.3837 60.008 18.377 59.9498 18.3571 59.8968C18.3371 59.8439 18.3045 59.7981 18.2624 59.7637C18.2203 59.7292 18.17 59.7073 18.1161 59.6999Z" stroke="#8A773E" stroke-width="2"/>
<path d="M41.9883 81.74C43.8749 81.6333 45.3983 81.98 46.5583 82.78" stroke="#A89766" stroke-width="2"/>
<path d="M46.5559 82.7797C47.7559 84.0597 48.6558 84.8597 48.9558 86.6697C49.2558 88.5597 50.2058 94.9097 52.8958 92.1397C53.1099 91.9254 53.2542 91.6157 53.3059 91.2597C53.7859 88.0697 54.7258 84.3297 57.3358 82.2497C58.9658 80.9597 61.8059 80.8297 63.4359 79.0297C63.5811 78.8673 63.6841 78.6722 63.7366 78.4602C63.7891 78.2482 63.7895 78.0254 63.7378 77.8099C63.6861 77.5944 63.5838 77.3923 63.4392 77.2202C63.2946 77.0482 63.1119 76.9109 62.9058 76.8197L54.7858 73.2297C54.3434 73.0357 53.9758 72.7011 53.7379 72.2758C53.5 71.8505 53.4046 71.3573 53.4658 70.8697C53.7158 68.8797 54.9858 58.8197 50.4258 61.2697C50.1627 61.4111 49.9552 61.6688 49.8458 61.9897C47.0758 70.2997 41.9658 73.2397 35.6658 78.4597C33.8658 79.953 34.0892 81.0264 36.3358 81.6797C37.7425 82.093 39.6258 82.113 41.9858 81.7397" stroke="#958145" stroke-width="2"/>
<path d="M46.5583 82.7801C48.8383 81.8267 50.2183 80.9967 50.6983 80.2901C51.705 78.7967 51.9183 77.27 51.3383 75.71C51.3327 75.7116 51.3452 75.617 51.3732 75.4457C51.4011 75.2744 51.4423 75.0397 51.4883 74.7901C51.6549 73.9034 51.5283 73.1234 51.1083 72.45C51.0262 72.3189 50.8712 72.2403 50.6766 72.2309C50.4821 72.2216 50.2637 72.2823 50.0683 72.4L45.2283 75.2901C45.1578 75.3324 45.0987 75.4007 45.0566 75.4883C45.0146 75.5759 44.991 75.6799 44.9883 75.7901V76.2801C44.9848 76.398 44.9357 76.5131 44.8488 76.6073C44.7619 76.7014 44.6421 76.7692 44.5083 76.8001C43.575 77.0134 43.1483 77.5867 43.2283 78.52C43.2405 78.6637 43.2892 78.8058 43.3705 78.9356C43.4519 79.0655 43.564 79.1798 43.6983 79.27C45.9316 80.75 45.3616 81.5734 41.9883 81.7401" stroke="#404867" stroke-width="2"/>
<path d="M103.658 99.2398C103.885 98.3598 104.305 97.5731 104.918 96.8798C105.035 96.7509 105.124 96.6078 105.181 96.4596C105.238 96.3114 105.261 96.1616 105.248 96.0198C104.918 92.5698 100.048 93.8598 98.7184 95.9398C98.676 96.0062 98.57 96.0896 98.4114 96.1812C98.2529 96.2728 98.0479 96.3691 97.8184 96.4598C94.0184 97.9665 93.8784 100.246 97.3984 103.3C97.5368 103.419 97.7076 103.507 97.8991 103.557C98.0906 103.607 98.2984 103.618 98.5084 103.59C101.362 103.183 104.032 102.27 106.518 100.85C106.898 100.63 106.822 100.456 106.288 100.33L104.038 99.7798C103.975 99.7638 103.914 99.7371 103.861 99.7013C103.807 99.6654 103.761 99.6211 103.726 99.571C103.691 99.5208 103.666 99.4657 103.655 99.4089C103.643 99.3521 103.644 99.2946 103.658 99.2398Z" stroke="#8A7B43" stroke-width="2"/>
<path d="M48.3858 80.6301C48.46 80.6716 48.5426 80.6956 48.6273 80.7004C48.712 80.7052 48.7965 80.6905 48.874 80.6576C48.9515 80.6246 49.02 80.5743 49.0741 80.5105C49.1282 80.4468 49.1664 80.3713 49.1858 80.2901C49.6058 78.5101 48.9858 77.6868 47.3258 77.8201C47.2777 77.8245 47.2319 77.8458 47.1911 77.8827C47.1503 77.9195 47.1154 77.9712 47.0883 78.0346C47.0612 78.0981 47.0426 78.172 47.0336 78.252C47.0246 78.3319 47.0253 78.4163 47.0357 78.5001C47.1491 79.4601 47.5991 80.1701 48.3858 80.6301Z" stroke="#7D7CA0" stroke-width="2"/>
<path d="M117.486 31.32C117.773 32.5333 118.343 33.6033 119.196 34.53C123.046 41.57 125.536 48.11 126.446 56.41C128.806 77.8 129.906 95.97 110.346 109.77C101.166 116.24 92.5764 119.3 80.9164 119.73C62.3364 120.42 44.5264 118.51 29.3664 107.68C15.2564 97.59 1.00638 78.26 1.74638 60.03C2.33638 45.53 5.58639 32.4 14.6964 20.92C26.0564 6.59999 40.5764 3.38995 57.8464 1.62995C60.0664 1.40329 62.4764 1.50662 65.0764 1.93995C70.1164 2.76995 74.8664 2.83997 79.6964 4.51997C84.9464 6.34997 90.4664 7.82 95.0764 10.49C104.076 15.71 111.546 22.6533 117.486 31.32ZM50.1564 16.41C51.0764 17.0766 52.0964 17.1133 53.2164 16.52C55.7263 15.17 60.1564 15.03 61.1864 11.76C61.5464 10.63 60.8664 9.73998 59.6964 9.71998C59.3843 9.71348 59.048 9.82207 58.7364 10.03C57.643 10.7433 56.5864 10.7067 55.5664 9.91999C55.4265 9.81353 55.2714 9.74079 55.1168 9.70918C54.9622 9.67756 54.8137 9.6882 54.6864 9.74C53.5197 10.22 53.143 11.1466 53.5564 12.52C53.5848 12.6105 53.5915 12.7064 53.5757 12.7999C53.5599 12.8935 53.5221 12.9819 53.4655 13.0581C53.4089 13.1342 53.3351 13.1958 53.25 13.2379C53.165 13.2799 53.0712 13.3012 52.9764 13.3C51.943 13.2933 51.0097 12.9633 50.1764 12.31C50.0582 12.2179 49.9207 12.1511 49.776 12.1157C49.6314 12.0803 49.484 12.0773 49.3467 12.1069C49.2095 12.1365 49.0866 12.1979 48.9889 12.2856C48.8912 12.3733 48.8216 12.4847 48.7864 12.61C48.3464 14.1633 48.803 15.43 50.1564 16.41ZM87.5863 24.6899C89.1264 25.9633 90.5597 25.8633 91.8864 24.39C91.9484 24.3219 92.0583 24.2888 92.1982 24.296C92.3381 24.3033 92.4996 24.3505 92.6564 24.43C94.9264 25.57 100.686 23.67 97.8164 21.33C97.5701 21.1359 97.2776 21.0302 96.9864 21.03H93.4864C93.3794 21.0284 93.2767 20.9616 93.2001 20.8439C93.1235 20.7262 93.0791 20.5669 93.0764 20.4C93.0364 18.03 95.1364 15.12 92.6564 13.49C92.5334 13.4081 92.3817 13.3708 92.2223 13.3834C92.0629 13.3959 91.9036 13.4577 91.7664 13.56C89.9464 14.9267 89.1931 16.7466 89.5064 19.02C89.5141 19.0727 89.5037 19.1257 89.4759 19.1748C89.4482 19.2239 89.4037 19.2679 89.3459 19.3035C89.2882 19.3391 89.2187 19.3654 89.1426 19.3804C89.0664 19.3954 88.9856 19.3986 88.9064 19.39C86.3597 19.1366 85.1997 19.93 85.4264 21.77C85.533 22.6166 86.253 23.5899 87.5863 24.6899ZM55.0263 42.26L48.9464 38.56C47.9264 37.9467 47.4197 38.2399 47.4264 39.4399C47.4364 47.3099 54.5364 48.2 60.7264 46.15C60.9889 46.0607 61.2402 45.8274 61.4264 45.4999L64.7464 39.4999C65.3264 38.4466 64.9997 38.0667 63.7664 38.36C60.8531 39.06 58.2797 40.3933 56.0464 42.36C55.9457 42.4485 55.7912 42.4866 55.6069 42.4686C55.4225 42.4505 55.2184 42.3772 55.0263 42.26ZM106.286 54.54C105.493 54.42 105.39 54.0766 105.976 53.51C109.676 49.9433 109.7 46.3333 106.046 42.68C104.4 41.0333 103.296 41.3267 102.736 43.56C102.35 45.0867 102.046 46.6366 101.826 48.21C101.036 53.7 95.5164 54.87 91.2264 56.72C88.7764 57.77 89.5164 59.61 91.9064 59.97C93.833 60.2566 95.7631 60.55 97.6964 60.85C98.0022 60.8967 98.2795 61.0569 98.4737 61.2993C98.668 61.5417 98.7653 61.8487 98.7464 62.16C98.1164 71.93 104.536 69.31 105.716 62.21C105.787 61.7755 105.998 61.3762 106.316 61.0729C106.633 60.7697 107.041 60.579 107.476 60.53C108.806 60.38 120.196 58.32 118.486 55.71C118.32 55.4664 118.051 55.2942 117.736 55.23L111.046 53.98C110.686 53.9067 110.333 53.93 109.986 54.05C108.546 54.5367 107.313 54.7 106.286 54.54ZM18.1164 59.7C17.1164 59.54 15.1064 60.37 14.4364 59.52C14.3478 59.4089 14.3011 59.271 14.3047 59.1314C14.3084 58.9917 14.3622 58.8599 14.4563 58.76C15.7363 57.4533 16.333 55.8766 16.2464 54.03C16.2404 53.8711 16.1766 53.7168 16.0647 53.5905C15.9529 53.4642 15.799 53.3727 15.6264 53.33C11.7164 52.34 10.2264 55.85 8.93638 58.82C8.84908 59.0198 8.74684 59.195 8.63762 59.3319C8.52839 59.4689 8.41508 59.564 8.30638 59.61L5.31639 60.87C5.09349 60.9646 4.892 61.1042 4.72667 61.2786C4.56133 61.453 4.43631 61.6577 4.36064 61.8781C4.28496 62.0984 4.26055 62.3287 4.28923 62.5522C4.3179 62.7757 4.39889 62.9867 4.52635 63.17C5.70635 64.85 6.32637 65.98 8.60637 65.79C12.713 65.45 15.9497 63.5967 18.3164 60.23C18.3489 60.1809 18.3697 60.1245 18.3768 60.0663C18.384 60.008 18.3772 59.9498 18.3573 59.8969C18.3373 59.8439 18.3047 59.7981 18.2626 59.7637C18.2205 59.7293 18.1702 59.7073 18.1164 59.7ZM41.9864 81.74C43.873 81.6333 45.3964 81.98 46.5564 82.78C47.7564 84.06 48.6563 84.86 48.9563 86.67C49.2563 88.56 50.2063 94.91 52.8963 92.14C53.1104 91.9257 53.2547 91.616 53.3064 91.26C53.7864 88.07 54.7263 84.3299 57.3363 82.2499C58.9663 80.9599 61.8064 80.83 63.4364 79.03C63.5816 78.8676 63.6846 78.6725 63.7371 78.4605C63.7896 78.2485 63.79 78.0257 63.7383 77.8102C63.6866 77.5947 63.5843 77.3926 63.4397 77.2205C63.2952 77.0484 63.1124 76.9112 62.9064 76.82L54.7864 73.23C54.3439 73.036 53.9763 72.7014 53.7384 72.2761C53.5006 71.8508 53.4051 71.3576 53.4664 70.87C53.7164 68.88 54.9864 58.82 50.4264 61.27C50.1633 61.4114 49.9557 61.6691 49.8464 61.99C47.0764 70.3 41.9664 73.24 35.6664 78.46C33.8664 79.9533 34.0897 81.0267 36.3363 81.68C37.743 82.0933 39.6264 82.1133 41.9864 81.74ZM103.656 99.24C103.883 98.36 104.303 97.5733 104.916 96.88C105.033 96.7511 105.122 96.608 105.179 96.4598C105.236 96.3116 105.259 96.1617 105.246 96.02C104.916 92.57 100.046 93.8599 98.7164 95.9399C98.674 96.0063 98.5679 96.0898 98.4094 96.1814C98.2509 96.273 98.0459 96.3693 97.8164 96.46C94.0164 97.9666 93.8764 100.247 97.3963 103.3C97.5348 103.419 97.7056 103.507 97.8971 103.557C98.0886 103.607 98.2964 103.618 98.5064 103.59C101.36 103.183 104.03 102.27 106.516 100.85C106.896 100.63 106.82 100.457 106.286 100.33L104.036 99.78C103.973 99.7639 103.912 99.7373 103.859 99.7014C103.805 99.6656 103.759 99.6213 103.724 99.5711C103.688 99.521 103.664 99.4659 103.653 99.4091C103.641 99.3522 103.642 99.2948 103.656 99.24Z" fill="#FDD043"/>
<path d="M50.1569 16.4095C48.8036 15.4295 48.3469 14.1629 48.7869 12.6095C48.8222 12.4843 48.8918 12.3728 48.9895 12.2851C49.0872 12.1974 49.2101 12.136 49.3473 12.1064C49.4845 12.0768 49.632 12.0799 49.7766 12.1153C49.9213 12.1507 50.0587 12.2174 50.1769 12.3095C51.0103 12.9629 51.9436 13.2929 52.9769 13.2995C53.0718 13.3007 53.1656 13.2795 53.2506 13.2374C53.3356 13.1953 53.4095 13.1337 53.4661 13.0576C53.5227 12.9815 53.5604 12.893 53.5762 12.7995C53.592 12.7059 53.5854 12.61 53.557 12.5195C53.1436 11.1462 53.5203 10.2195 54.687 9.73954C54.8143 9.68775 54.9628 9.6771 55.1174 9.70872C55.2719 9.74033 55.4271 9.81308 55.567 9.91953C56.587 10.7062 57.6436 10.7428 58.7369 10.0295C59.0485 9.82162 59.3849 9.71302 59.697 9.71952C60.867 9.73952 61.547 10.6295 61.187 11.7595C60.157 15.0295 55.7269 15.1695 53.2169 16.5195C52.0969 17.1128 51.0769 17.0762 50.1569 16.4095Z" fill="#242830"/>
<path d="M87.5901 24.6898C86.2568 23.5898 85.5368 22.6165 85.4301 21.7698C85.2035 19.9298 86.3634 19.1365 88.9101 19.3898C88.9894 19.3985 89.0702 19.3952 89.1463 19.3802C89.2225 19.3653 89.2919 19.339 89.3497 19.3034C89.4074 19.2678 89.4519 19.2238 89.4797 19.1747C89.5075 19.1256 89.5179 19.0726 89.5101 19.0198C89.1968 16.7465 89.9502 14.9265 91.7702 13.5599C91.9074 13.4575 92.0666 13.3958 92.226 13.3832C92.3854 13.3707 92.5371 13.408 92.6601 13.4899C95.1401 15.1199 93.0402 18.0298 93.0802 20.3998C93.0829 20.5668 93.1272 20.7261 93.2038 20.8438C93.2804 20.9615 93.3832 21.0283 93.4901 21.0298H96.9901C97.2813 21.0301 97.5738 21.1358 97.8201 21.3298C100.69 23.6698 94.9301 25.5699 92.6601 24.4299C92.5033 24.3504 92.3418 24.3032 92.2019 24.2959C92.062 24.2886 91.9521 24.3217 91.8902 24.3898C90.5635 25.8632 89.1301 25.9631 87.5901 24.6898Z" fill="#242830"/>
<path d="M117.488 31.3198C118.528 32.1532 119.098 33.2232 119.198 34.5298C118.345 33.6032 117.775 32.5332 117.488 31.3198Z" fill="#F2DE8E"/>
<path d="M56.0497 42.3597C58.2831 40.393 60.8564 39.0597 63.7698 38.3597C65.0031 38.0664 65.3298 38.4463 64.7498 39.4997L61.4298 45.4997C61.2436 45.8271 60.9923 46.0604 60.7297 46.1497C54.5397 48.1997 47.4398 47.3097 47.4298 39.4397C47.4231 38.2397 47.9298 37.9464 48.9498 38.5597L55.0297 42.2597C55.2218 42.3769 55.4259 42.4502 55.6102 42.4683C55.7946 42.4864 55.9491 42.4482 56.0497 42.3597Z" fill="#242830"/>
<path d="M106.288 54.5396C107.315 54.6996 108.548 54.5363 109.988 54.0496C110.335 53.9296 110.688 53.9063 111.048 53.9796L117.738 55.2296C118.052 55.2938 118.322 55.466 118.488 55.7096C120.198 58.3196 108.808 60.3796 107.478 60.5296C107.043 60.5786 106.635 60.7693 106.318 61.0726C106 61.3758 105.789 61.7751 105.718 62.2096C104.538 69.3096 98.1183 71.9296 98.7483 62.1596C98.7672 61.8483 98.67 61.5413 98.4757 61.2989C98.2814 61.0566 98.0042 60.8963 97.6983 60.8496C95.765 60.5496 93.835 60.2563 91.9083 59.9696C89.5183 59.6096 88.7783 57.7696 91.2283 56.7196C95.5183 54.8696 101.038 53.6996 101.828 48.2096C102.048 46.6362 102.352 45.0863 102.738 43.5596C103.298 41.3263 104.402 41.0329 106.048 42.6796C109.702 46.3329 109.678 49.9429 105.978 53.5096C105.392 54.0762 105.495 54.4196 106.288 54.5396Z" fill="#2C3146"/>
<path d="M14.4401 59.5199C15.1101 60.3699 17.1201 59.5399 18.1201 59.6999C18.1739 59.7073 18.2242 59.7292 18.2663 59.7637C18.3084 59.7981 18.341 59.8439 18.361 59.8968C18.3809 59.9498 18.3876 60.008 18.3805 60.0663C18.3733 60.1245 18.3526 60.1809 18.3201 60.23C15.9534 63.5966 12.7167 65.45 8.61004 65.79C6.33004 65.98 5.71002 64.85 4.53002 63.17C4.40257 62.9867 4.32158 62.7757 4.2929 62.5522C4.26423 62.3287 4.28864 62.0984 4.36431 61.878C4.43999 61.6577 4.56501 61.4529 4.73034 61.2786C4.89568 61.1042 5.09716 60.9646 5.32006 60.87L8.31005 59.61C8.41876 59.564 8.53206 59.4689 8.64129 59.3319C8.75052 59.1949 8.85276 59.0198 8.94006 58.8199C10.2301 55.8499 11.7201 52.3399 15.6301 53.3299C15.8027 53.3727 15.9565 53.4641 16.0684 53.5904C16.1803 53.7167 16.244 53.871 16.2501 54.03C16.3367 55.8766 15.74 57.4533 14.46 58.7599C14.3659 58.8598 14.3121 58.9917 14.3084 59.1313C14.3047 59.271 14.3515 59.4089 14.4401 59.5199Z" fill="#171E38"/>
<path d="M46.5598 82.7797C48.8398 81.8264 50.2198 80.9964 50.6998 80.2897C51.7064 78.7964 51.9197 77.2697 51.3397 75.7097C51.3342 75.7113 51.3467 75.6166 51.3746 75.4453C51.4026 75.2741 51.4438 75.0393 51.4898 74.7897C51.6564 73.903 51.5297 73.123 51.1097 72.4497C51.0276 72.3186 50.8726 72.2399 50.6781 72.2306C50.4836 72.2212 50.2651 72.2819 50.0698 72.3997L45.2297 75.2897C45.1593 75.332 45.1002 75.4003 45.0581 75.4879C45.0161 75.5756 44.9925 75.6795 44.9898 75.7897V76.2797C44.9863 76.3976 44.9372 76.5128 44.8503 76.6069C44.7634 76.701 44.6436 76.7689 44.5098 76.7997C43.5764 77.013 43.1497 77.5863 43.2297 78.5197C43.242 78.6633 43.2906 78.8054 43.372 78.9353C43.4534 79.0651 43.5655 79.1794 43.6998 79.2697C45.9331 80.7497 45.3631 81.573 41.9898 81.7397C39.6298 82.113 37.7464 82.093 36.3397 81.6797C34.0931 81.0264 33.8697 79.953 35.6697 78.4597C41.9697 73.2397 47.0797 70.2997 49.8497 61.9897C49.9591 61.6688 50.1666 61.4111 50.4298 61.2697C54.9898 58.8197 53.7197 68.8797 53.4697 70.8697C53.4085 71.3573 53.504 71.8505 53.7418 72.2758C53.9797 72.7011 54.3473 73.0357 54.7897 73.2297L62.9097 76.8197C63.1158 76.9109 63.2985 77.0482 63.4431 77.2202C63.5877 77.3923 63.69 77.5944 63.7417 77.8099C63.7934 78.0254 63.793 78.2482 63.7405 78.4602C63.688 78.6722 63.585 78.8673 63.4398 79.0297C61.8098 80.8297 58.9697 80.9597 57.3397 82.2497C54.7297 84.3297 53.7898 88.0697 53.3098 91.2597C53.2581 91.6157 53.1138 91.9254 52.8997 92.1397C50.2097 94.9097 49.2597 88.5597 48.9597 86.6697C48.6597 84.8597 47.7598 84.0597 46.5598 82.7797Z" fill="#2C3146"/>
<path d="M46.5583 82.7801C45.3983 81.9801 43.8749 81.6334 41.9883 81.7401C45.3616 81.5734 45.9316 80.75 43.6983 79.27C43.564 79.1798 43.4519 79.0655 43.3705 78.9356C43.2892 78.8058 43.2405 78.6637 43.2283 78.52C43.1483 77.5867 43.575 77.0134 44.5083 76.8001C44.6421 76.7692 44.7619 76.7014 44.8488 76.6073C44.9357 76.5131 44.9848 76.398 44.9883 76.2801V75.7901C44.991 75.6799 45.0146 75.5759 45.0566 75.4883C45.0987 75.4007 45.1578 75.3324 45.2283 75.2901L50.0683 72.4C50.2637 72.2823 50.4821 72.2216 50.6766 72.2309C50.8712 72.2403 51.0262 72.3189 51.1083 72.45C51.5283 73.1234 51.6549 73.9034 51.4883 74.7901C51.4423 75.0397 51.4011 75.2744 51.3732 75.4457C51.3452 75.617 51.3327 75.7116 51.3383 75.71C51.9183 77.27 51.705 78.7967 50.6983 80.2901C50.2183 80.9967 48.8383 81.8267 46.5583 82.7801ZM48.3883 80.63C48.4625 80.6715 48.5451 80.6956 48.6298 80.7003C48.7145 80.7051 48.799 80.6904 48.8765 80.6575C48.954 80.6246 49.0225 80.5742 49.0766 80.5105C49.1307 80.4467 49.1689 80.3713 49.1883 80.2901C49.6083 78.5101 48.9883 77.6867 47.3283 77.82C47.2802 77.8245 47.2344 77.8457 47.1936 77.8826C47.1528 77.9194 47.1179 77.9711 47.0908 78.0346C47.0638 78.098 47.0452 78.172 47.0361 78.2519C47.0271 78.3319 47.0278 78.4162 47.0383 78.5C47.1516 79.46 47.6016 80.17 48.3883 80.63Z" fill="#535E88"/>
<path d="M48.3897 80.6296C47.603 80.1696 47.153 79.4596 47.0397 78.4996C47.0292 78.4158 47.0285 78.3314 47.0375 78.2515C47.0465 78.1715 47.0652 78.0976 47.0922 78.0341C47.1193 77.9707 47.1542 77.919 47.195 77.8822C47.2358 77.8453 47.2816 77.824 47.3297 77.8196C48.9897 77.6863 49.6097 78.5096 49.1897 80.2896C49.1703 80.3708 49.1321 80.4463 49.078 80.51C49.0239 80.5738 48.9554 80.6241 48.8779 80.6571C48.8004 80.69 48.7159 80.7047 48.6312 80.6999C48.5465 80.6952 48.4639 80.6711 48.3897 80.6296Z" fill="#A69AB7"/>
<path d="M104.038 99.7798L106.288 100.33C106.822 100.456 106.898 100.63 106.518 100.85C104.032 102.27 101.362 103.183 98.5084 103.59C98.2984 103.618 98.0906 103.607 97.8991 103.557C97.7076 103.507 97.5368 103.419 97.3984 103.3C93.8784 100.246 94.0184 97.9665 97.8184 96.4598C98.0479 96.3691 98.2529 96.2728 98.4114 96.1812C98.57 96.0896 98.676 96.0062 98.7184 95.9398C100.048 93.8598 104.918 92.5698 105.248 96.0198C105.261 96.1616 105.238 96.3114 105.181 96.4596C105.124 96.6078 105.035 96.7509 104.918 96.8798C104.305 97.5731 103.885 98.3598 103.658 99.2398C103.644 99.2947 103.643 99.3521 103.655 99.4089C103.666 99.4657 103.691 99.5208 103.726 99.571C103.761 99.6211 103.807 99.6654 103.861 99.7013C103.914 99.7371 103.975 99.7638 104.038 99.7798Z" fill="#162543"/>
</svg>
