<svg width="122" height="225" viewBox="0 0 122 225" fill="none" xmlns="http://www.w3.org/2000/svg">
<path d="M42.3637 37.9148L30.4038 37.4247C30.3314 37.4208 30.259 37.4298 30.1909 37.4511C30.1229 37.4725 30.0607 37.5057 30.0082 37.5488C29.9557 37.592 29.914 37.644 29.8858 37.7018C29.8575 37.7595 29.8432 37.8218 29.8438 37.8848C29.8504 38.2848 30.0471 38.5881 30.4337 38.7947C43.2637 45.6347 54.4238 51.5148 62.9738 62.1048" stroke="#9498AC" stroke-width="2"/>
<path d="M62.9727 62.1055L65.7326 67.3855" stroke="#898C9B" stroke-width="2"/>
<path d="M65.7302 67.3846C55.3435 64.7712 44.9335 62.4146 34.5002 60.3146C33.5102 60.1146 31.7002 60.4546 33.3402 61.8146C41.8402 68.9046 49.7502 74.5845 50.4802 86.2145" stroke="#FEBBB1" stroke-width="2"/>
<path d="M50.4801 86.2148C48.5534 91.8815 46.0134 96.5282 42.8601 100.155C30.9401 113.868 20.9801 127.321 12.9801 140.515C4.30007 154.815 0.300069 173.445 1.10007 190.455C1.2934 194.602 2.16679 198.698 3.72013 202.745" stroke="#898C9B" stroke-width="2"/>
<path d="M3.72309 202.745C3.52309 206.212 4.57974 209.348 6.89307 212.155C6.93265 212.206 6.98235 212.247 7.03925 212.278C7.09616 212.308 7.15911 212.327 7.22437 212.332C7.28964 212.338 7.35587 212.331 7.4192 212.31C7.48253 212.29 7.54167 212.258 7.59309 212.215C10.4731 209.765 12.3431 206.875 16.6931 206.755" stroke="#9498AC" stroke-width="2"/>
<path d="M16.6901 206.756C16.7501 212.986 15.7701 223.706 22.5701 223.116C24.8001 222.916 28.2301 222.246 30.1501 220.726C31.1101 219.966 31.5468 218.963 31.4601 217.716L30.9001 209.466C30.8876 209.277 30.9043 209.096 30.9491 208.936C30.9939 208.776 31.0658 208.639 31.1601 208.536L32.1901 207.426" stroke="#BFE6DB" stroke-width="2"/>
<path d="M32.1914 207.425C35.1414 207.795 37.4514 208.025 40.2014 206.455C44.5014 204.005 47.1314 202.335 51.6714 201.805" stroke="#9498AC" stroke-width="2"/>
<path d="M51.6707 201.806C51.8107 202.626 51.7341 204.429 51.4407 207.216C51.3074 208.489 51.5607 211.023 52.2007 214.816C53.1107 220.246 61.9908 218.986 65.5308 217.826C66.8308 217.399 67.4807 216.503 67.4807 215.136C67.4874 210.769 66.8074 206.309 65.4407 201.756" stroke="#BAE2D8" stroke-width="2"/>
<path d="M65.4414 201.755C74.6814 206.105 79.5014 199.775 85.9914 196.875" stroke="#9498AC" stroke-width="2"/>
<path d="M85.9922 196.876C87.7855 203.502 88.9389 210.202 89.4522 216.976C89.5989 218.916 90.6222 220.089 92.5222 220.496C96.7522 221.396 107.562 220.876 107.202 213.946C106.942 208.886 106.249 203.899 105.122 198.986C104.822 197.692 105.179 196.922 106.192 196.676" stroke="#BFE6DB" stroke-width="2"/>
<path d="M106.191 196.676C110.471 197.656 114.738 197.696 118.991 196.796" stroke="#9498AC" stroke-width="2"/>
<path d="M118.993 196.795C119.633 196.015 120.273 195.285 120.283 194.215C120.343 178.135 117.34 163.279 111.273 149.645C101.803 128.345 95.0833 111.275 92.6533 89.2352C92.2433 85.5352 92.5533 80.1952 93.4333 77.2152C97.3933 63.7852 101.993 50.4452 97.9633 36.5152C93.7233 21.8652 80.6933 9.32523 67.3633 1.65523C65.2033 0.415228 64.63 0.935225 65.6433 3.21523C66.8233 5.88856 67.6066 8.97189 67.9933 12.4652C69.8133 29.2052 59.8433 39.4952 42.3633 37.9152" stroke="#878997" stroke-width="2"/>
<path d="M118.993 196.796C118.14 196.582 117.77 196.222 117.883 195.716C118.55 192.882 118.727 190.026 118.413 187.146C116.8 172.272 112.887 158.116 106.673 144.676C103.627 138.076 101.667 133.546 100.793 131.086C97.6201 122.179 95.0035 113.109 92.9435 103.876C92.3635 101.246 92.0735 98.0857 91.4735 95.1857C89.2335 84.4457 91.9135 75.5157 94.6235 66.1457C97.7235 55.4257 98.8535 44.1157 94.6835 33.7457C89.4435 20.7257 80.8135 13.6357 70.0735 5.55574C69.5835 5.18574 67.9135 4.62575 68.3735 5.98575C69.1535 8.25242 69.5668 9.74907 69.6135 10.4757C70.0335 16.9457 69.9535 24.7557 65.7835 30.2457C60.7135 36.9357 52.3035 39.5357 43.9735 40.0957C43.5681 40.1239 43.1621 40.0561 42.7885 39.898C42.4148 39.7398 42.0842 39.4958 41.8235 39.1857C41.4768 38.7657 41.6568 38.3424 42.3635 37.9158" stroke="#1D224A" stroke-width="2"/>
<path d="M106.192 196.675C99.2789 193.228 92.5455 193.295 85.9922 196.875" stroke="#557F8E" stroke-width="2"/>
<path d="M65.4419 201.755C60.6419 201.095 56.0519 201.112 51.6719 201.805" stroke="#507B8B" stroke-width="2"/>
<path d="M32.1914 207.426C27.1114 205.786 21.9447 205.563 16.6914 206.756" stroke="#557F8E" stroke-width="2"/>
<path d="M3.72011 202.745C2.94678 193.859 2.96343 185.009 3.7701 176.195C5.1301 161.355 9.01009 150.065 16.9501 137.945C24.4568 126.485 31.6634 116.375 38.5701 107.615C42.5101 102.625 51.6701 93.4455 51.9501 86.9155C51.956 86.7679 52.006 86.6257 52.0935 86.5079C52.181 86.39 52.3019 86.302 52.4401 86.2555C56.8901 84.6955 62.6301 83.1854 65.6001 79.6754C69.0667 75.5688 69.4401 70.6788 66.7201 65.0055C66.4068 64.3521 65.1568 63.3855 62.9701 62.1055" stroke="#1F264E" stroke-width="2"/>
<path d="M65.7305 67.3848C68.9905 74.5048 63.5205 81.2648 56.6805 82.9648C53.9405 83.6514 51.8738 84.7348 50.4805 86.2148" stroke="#894953" stroke-width="2"/>
<path d="M84.8231 142.585C85.4764 144.565 86.7498 145.992 88.6431 146.865C94.3531 149.495 100.093 145.445 98.8031 139.135C98.3764 137.035 97.0931 135.979 94.9531 135.965C91.9831 135.955 87.9631 135.875 85.9431 138.375C84.7498 139.849 84.3764 141.252 84.8231 142.585Z" stroke="#322E49" stroke-width="2"/>
<path d="M67.3234 150.495C71.9168 152.875 75.5367 151.965 78.1834 147.765C85.5134 136.135 67.9734 135.385 64.3334 142.495C64.1775 142.807 64.1249 143.151 64.1834 143.475L64.9034 147.225C65.1901 148.719 65.9968 149.809 67.3234 150.495Z" stroke="#322E49" stroke-width="2"/>
<path d="M24.941 143.676C18.9277 146.236 18.3177 149.886 23.111 154.626" stroke="#917745" stroke-width="2"/>
<path d="M23.1133 154.625C26.2133 154.985 28.4933 153.995 29.9533 151.655C32.5033 147.565 30.7333 143.165 25.9433 142.135C25.6014 142.058 25.263 142.097 24.9933 142.245C24.1666 142.679 24.15 143.155 24.9433 143.675" stroke="#222844" stroke-width="2"/>
<path d="M23.1133 154.626C26.1333 153.786 28.1333 152.249 29.1133 150.016C30.5733 146.676 28.4633 143.896 24.9433 143.676" stroke="#896E2A" stroke-width="2"/>
<path d="M52.0751 147.479C52.0284 146.871 51.8284 146.281 51.4865 145.743C51.1447 145.205 50.6678 144.728 50.0829 144.341C49.4981 143.954 48.8168 143.664 48.0779 143.487C47.3391 143.31 46.5571 143.25 45.7767 143.31C44.2007 143.431 42.7268 144.035 41.6791 144.988C40.6315 145.941 40.096 147.166 40.1903 148.393C40.2371 149.001 40.4371 149.59 40.7789 150.129C41.1207 150.667 41.5977 151.143 42.1825 151.531C42.7674 151.918 43.4487 152.208 44.1875 152.385C44.9264 152.562 45.7084 152.622 46.4887 152.562C48.0648 152.441 49.5387 151.837 50.5863 150.884C51.634 149.931 52.1695 148.706 52.0751 147.479Z" stroke="#937842" stroke-width="2"/>
<path d="M86.9909 165.746C87.2309 169.496 91.7609 174.166 95.6909 173.186C101.151 171.816 108.331 161.326 97.4509 160.476C92.9376 160.122 89.5376 161.579 87.2509 164.846C87.063 165.112 86.9713 165.429 86.9909 165.746Z" stroke="#322E49" stroke-width="2"/>
<path d="M79.5131 170.475C79.5131 169.009 78.9305 167.602 77.8934 166.565C76.8564 165.528 75.4497 164.945 73.9831 164.945C72.5164 164.945 71.1099 165.528 70.0728 166.565C69.0357 167.602 68.4531 169.009 68.4531 170.475C68.4531 171.942 69.0357 173.349 70.0728 174.386C71.1099 175.423 72.5164 176.005 73.9831 176.005C75.4497 176.005 76.8564 175.423 77.8934 174.386C78.9305 173.349 79.5131 171.942 79.5131 170.475Z" stroke="#937842" stroke-width="2"/>
<path d="M51.8561 172.678C51.6736 171.234 50.8839 169.926 49.6609 169.043C48.4378 168.16 46.8816 167.773 45.3344 167.969C43.7872 168.164 42.3759 168.925 41.4109 170.085C40.446 171.245 40.0064 172.708 40.1889 174.152C40.3714 175.597 41.161 176.905 42.3841 177.788C43.6071 178.671 45.1635 179.057 46.7106 178.862C48.2578 178.667 49.6691 177.905 50.634 176.746C51.599 175.586 52.0386 174.123 51.8561 172.678Z" stroke="#937842" stroke-width="2"/>
<path d="M29.7583 173.57C29.6238 172.845 29.3322 172.156 28.9001 171.542C28.468 170.929 27.9039 170.403 27.24 169.996C26.576 169.588 25.8253 169.306 25.0306 169.166C24.2359 169.026 23.4129 169.031 22.6084 169.18C20.9838 169.481 19.5336 170.352 18.5769 171.601C17.6202 172.85 17.2353 174.376 17.5069 175.841C17.6414 176.567 17.933 177.256 18.3651 177.869C18.7972 178.483 19.3614 179.008 20.0253 179.416C20.6892 179.824 21.44 180.106 22.2346 180.246C23.0293 180.385 23.8524 180.381 24.6568 180.232C26.2814 179.931 27.7317 179.06 28.6884 177.81C29.6451 176.561 30.0299 175.036 29.7583 173.57Z" stroke="#322E49" stroke-width="2"/>
<path d="M88.842 144.246C89.582 144.999 90.4787 145.413 91.532 145.486C97.002 145.856 99.202 137.586 93.372 137.476C91.6587 137.449 90.042 137.839 88.522 138.646C86.2554 139.853 86.362 141.719 88.842 144.246Z" stroke="#99742E" stroke-width="2"/>
<path d="M70.2417 149.365C77.2317 150.355 80.1617 140.025 74.7017 140.305C72.6517 140.405 69.1117 140.125 67.6317 141.195C64.5017 143.455 66.3417 148.815 70.2417 149.365Z" stroke="#9A752B" stroke-width="2"/>
<path d="M91.5601 169.955C92.8401 171.215 94.2767 171.595 95.8701 171.095C99.0767 170.095 100.763 167.882 100.93 164.455C100.94 164.245 100.903 164.036 100.821 163.838C100.739 163.64 100.614 163.458 100.453 163.303C100.293 163.148 100.099 163.022 99.8838 162.933C99.6687 162.844 99.4363 162.794 99.2001 162.785C95.5701 162.635 84.2901 162.795 91.5601 169.955Z" stroke="#99742E" stroke-width="2"/>
<path d="M27.9696 173.894C27.8643 173.377 27.6456 172.888 27.3257 172.455C27.0059 172.022 26.5913 171.654 26.1056 171.372C25.6198 171.09 25.0725 170.899 24.4949 170.811C23.9172 170.722 23.3205 170.737 22.7388 170.856C21.5641 171.095 20.5219 171.739 19.8416 172.647C19.1612 173.554 18.8985 174.651 19.111 175.696C19.2162 176.213 19.435 176.702 19.7549 177.135C20.0747 177.568 20.4893 177.936 20.975 178.218C21.4607 178.5 22.0081 178.691 22.5857 178.779C23.1634 178.868 23.7601 178.853 24.3418 178.734C25.5165 178.495 26.5586 177.851 27.239 176.943C27.9193 176.036 28.1821 174.939 27.9696 173.894Z" stroke="#957835" stroke-width="2"/>
<path d="M118.99 196.795C118.136 196.582 117.766 196.222 117.88 195.715C118.546 192.882 118.723 190.025 118.41 187.145C116.796 172.272 112.883 158.115 106.67 144.675C103.623 138.075 101.663 133.545 100.79 131.085C97.6162 122.179 94.9996 113.109 92.9396 103.875C92.3596 101.245 92.0696 98.0852 91.4696 95.1852C89.2296 84.4452 91.9096 75.5152 94.6196 66.1452C97.7196 55.4252 98.8496 44.1152 94.6796 33.7452C89.4396 20.7252 80.8096 13.6352 70.0696 5.55522C69.5796 5.18522 67.9096 4.62523 68.3696 5.98523C69.1496 8.2519 69.5629 9.74855 69.6096 10.4752C70.0296 16.9452 69.9496 24.7552 65.7796 30.2452C60.7096 36.9352 52.2996 39.5352 43.9696 40.0952C43.5642 40.1234 43.1582 40.0556 42.7845 39.8974C42.4109 39.7393 42.0803 39.4953 41.8196 39.1852C41.4729 38.7652 41.6529 38.3419 42.3596 37.9152C59.8396 39.4952 69.8096 29.2052 67.9896 12.4652C67.6029 8.97189 66.8196 5.88856 65.6396 3.21523C64.6263 0.935225 65.1996 0.415228 67.3596 1.65523C80.6896 9.32523 93.7196 21.8652 97.9596 36.5152C101.99 50.4452 97.3896 63.7852 93.4296 77.2152C92.5496 80.1952 92.2396 85.5352 92.6496 89.2352C95.0796 111.275 101.8 128.345 111.27 149.645C117.336 163.279 120.34 178.135 120.28 194.215C120.27 195.285 119.63 196.015 118.99 196.795Z" fill="#0F1334"/>
<path d="M118.99 196.796C114.737 197.696 110.47 197.656 106.19 196.676C99.2768 193.229 92.5434 193.296 85.9901 196.876C79.5001 199.776 74.6801 206.106 65.4401 201.756C60.6401 201.096 56.0501 201.112 51.6701 201.806C47.1301 202.336 44.5001 204.006 40.2001 206.456C37.4501 208.026 35.1401 207.796 32.1901 207.426C27.1101 205.786 21.9434 205.562 16.6901 206.756C12.3401 206.876 10.4701 209.766 7.59011 212.216C7.5387 212.258 7.47955 212.291 7.41622 212.311C7.35289 212.331 7.28666 212.339 7.2214 212.333C7.15613 212.327 7.09318 212.309 7.03628 212.278C6.97937 212.248 6.92967 212.206 6.8901 212.156C4.57676 209.349 3.52011 206.212 3.72011 202.746C2.94678 193.859 2.96343 185.009 3.7701 176.196C5.1301 161.356 9.01009 150.066 16.9501 137.946C24.4568 126.486 31.6634 116.376 38.5701 107.616C42.5101 102.626 51.6701 93.4458 51.9501 86.9158C51.956 86.7682 52.006 86.626 52.0935 86.5082C52.181 86.3903 52.3019 86.3023 52.4401 86.2558C56.8901 84.6958 62.6301 83.1857 65.6001 79.6757C69.0667 75.5691 69.4401 70.6791 66.7201 65.0058C66.4068 64.3524 65.1568 63.3858 62.9701 62.1058C54.4201 51.5158 43.2601 45.6357 30.4301 38.7957C30.0434 38.5891 29.8468 38.2858 29.8401 37.8858C29.8395 37.8228 29.8538 37.7605 29.8821 37.7028C29.9104 37.645 29.9521 37.593 30.0045 37.5499C30.057 37.5067 30.1192 37.4735 30.1873 37.4521C30.2553 37.4308 30.3277 37.4218 30.4001 37.4257L42.3601 37.9158C41.6534 38.3424 41.4734 38.7657 41.8201 39.1857C42.0808 39.4958 42.4114 39.7398 42.7851 39.898C43.1587 40.0561 43.5647 40.1239 43.9701 40.0957C52.3001 39.5357 60.7101 36.9357 65.7801 30.2457C69.9501 24.7557 70.0301 16.9457 69.6101 10.4757C69.5634 9.74907 69.1501 8.25242 68.3701 5.98575C67.9101 4.62575 69.5801 5.18574 70.0701 5.55574C80.8101 13.6357 89.4401 20.7257 94.6801 33.7457C98.8501 44.1157 97.7201 55.4257 94.6201 66.1457C91.9101 75.5157 89.2301 84.4457 91.4701 95.1857C92.0701 98.0857 92.3601 101.246 92.9401 103.876C95.0001 113.109 97.6167 122.179 100.79 131.086C101.663 133.546 103.623 138.076 106.67 144.676C112.883 158.116 116.797 172.272 118.41 187.146C118.723 190.026 118.547 192.882 117.88 195.716C117.767 196.222 118.137 196.582 118.99 196.796ZM84.8201 142.586C85.4734 144.566 86.7468 145.992 88.6401 146.866C94.3501 149.496 100.09 145.446 98.8001 139.136C98.3734 137.036 97.0901 135.979 94.9501 135.966C91.9801 135.956 87.9601 135.876 85.9401 138.376C84.7467 139.849 84.3734 141.252 84.8201 142.586ZM67.3201 150.496C71.9134 152.876 75.5334 151.966 78.1801 147.766C85.5101 136.136 67.9701 135.386 64.3301 142.496C64.1742 142.808 64.1215 143.152 64.1801 143.476L64.9001 147.226C65.1868 148.719 65.9934 149.809 67.3201 150.496ZM24.9401 143.676C18.9268 146.236 18.3167 149.886 23.1101 154.626C26.2101 154.986 28.4901 153.996 29.9501 151.656C32.5001 147.566 30.7301 143.166 25.9401 142.136C25.5982 142.059 25.2598 142.098 24.9901 142.246C24.1634 142.679 24.1468 143.156 24.9401 143.676ZM52.0725 147.479C52.0257 146.871 51.8257 146.281 51.4839 145.743C51.1421 145.205 50.6651 144.728 50.0803 144.341C49.4954 143.954 48.8141 143.664 48.0753 143.487C47.3364 143.31 46.5544 143.249 45.7741 143.309C44.1981 143.431 42.7241 144.034 41.6765 144.988C40.6288 145.941 40.0933 147.166 40.1877 148.393C40.2344 149 40.4344 149.59 40.7763 150.129C41.1181 150.667 41.595 151.143 42.1799 151.53C42.7648 151.917 43.446 152.208 44.1849 152.385C44.9238 152.562 45.7057 152.622 46.4861 152.562C48.0621 152.441 49.536 151.837 50.5837 150.884C51.6313 149.93 52.1669 148.705 52.0725 147.479ZM86.9901 165.746C87.2301 169.496 91.7601 174.166 95.6901 173.186C101.15 171.816 108.33 161.326 97.4501 160.476C92.9368 160.122 89.5368 161.579 87.2501 164.846C87.0622 165.112 86.9704 165.429 86.9901 165.746ZM79.5101 170.476C79.5101 169.009 78.9275 167.603 77.8904 166.565C76.8533 165.528 75.4467 164.946 73.9801 164.946C72.5134 164.946 71.1069 165.528 70.0698 166.565C69.0327 167.603 68.4501 169.009 68.4501 170.476C68.4501 171.942 69.0327 173.349 70.0698 174.386C71.1069 175.423 72.5134 176.006 73.9801 176.006C75.4467 176.006 76.8533 175.423 77.8904 174.386C78.9275 173.349 79.5101 171.942 79.5101 170.476ZM51.8537 172.679C51.6712 171.234 50.8815 169.926 49.6585 169.043C48.4354 168.16 46.8792 167.774 45.332 167.969C43.7848 168.165 42.3735 168.926 41.4085 170.085C40.4436 171.245 40.004 172.708 40.1865 174.153C40.369 175.597 41.1586 176.905 42.3817 177.788C43.6047 178.671 45.161 179.058 46.7082 178.862C48.2554 178.667 49.6666 177.906 50.6316 176.746C51.5966 175.586 52.0362 174.123 51.8537 172.679ZM29.7558 173.57C29.6213 172.845 29.3296 172.156 28.8975 171.542C28.4654 170.929 27.9013 170.403 27.2374 169.996C26.5735 169.588 25.8227 169.306 25.028 169.166C24.2334 169.026 23.4103 169.031 22.6059 169.18C20.9812 169.481 19.5311 170.352 18.5744 171.601C17.6176 172.85 17.2327 174.376 17.5044 175.841C17.6388 176.567 17.9305 177.256 18.3626 177.869C18.7947 178.483 19.3588 179.008 20.0227 179.416C20.6867 179.824 21.4374 180.106 22.2321 180.245C23.0268 180.385 23.8498 180.381 24.6543 180.232C26.2789 179.931 27.7291 179.06 28.6858 177.81C29.6425 176.561 30.0274 175.036 29.7558 173.57Z" fill="#2A315F"/>
<path d="M65.7302 67.3855C68.9902 74.5055 63.5202 81.2655 56.6802 82.9655C53.9402 83.6522 51.8735 84.7355 50.4802 86.2155C49.7502 74.5855 41.8402 68.9055 33.3402 61.8155C31.7002 60.4555 33.5102 60.1155 34.5002 60.3155C44.9335 62.4155 55.3435 64.7722 65.7302 67.3855Z" fill="#FE7769"/>
<path d="M3.72013 202.745C2.16679 198.699 1.2934 194.602 1.10007 190.455C0.300069 173.445 4.30007 154.815 12.9801 140.515C20.9801 127.322 30.9401 113.869 42.8601 100.155C46.0134 96.5288 48.5534 91.8821 50.4801 86.2155C51.8734 84.7355 53.9401 83.6521 56.6801 82.9655C63.5201 81.2655 68.9901 74.5055 65.7301 67.3855L62.9701 62.1055C65.1568 63.3855 66.4068 64.3521 66.7201 65.0055C69.4401 70.6788 69.0667 75.5688 65.6001 79.6754C62.6301 83.1854 56.8901 84.6955 52.4401 86.2555C52.3019 86.302 52.181 86.39 52.0935 86.5079C52.006 86.6257 51.9561 86.7679 51.9501 86.9155C51.6701 93.4455 42.5101 102.625 38.5701 107.615C31.6634 116.375 24.4568 126.485 16.9501 137.945C9.01011 150.065 5.13011 161.355 3.77011 176.195C2.96345 185.009 2.94679 193.859 3.72013 202.745Z" fill="#141A3C"/>
<path d="M84.8231 142.585C84.3764 141.252 84.7498 139.849 85.9431 138.375C87.9631 135.875 91.9831 135.955 94.9531 135.965C97.0931 135.979 98.3764 137.035 98.8031 139.135C100.093 145.445 94.3531 149.495 88.6431 146.865C86.7498 145.992 85.4764 144.565 84.8231 142.585ZM88.8431 144.245C89.5831 144.999 90.4798 145.412 91.5331 145.485C97.0031 145.855 99.2031 137.585 93.3731 137.475C91.6598 137.449 90.0431 137.839 88.5231 138.645C86.2565 139.852 86.3631 141.719 88.8431 144.245Z" fill="#392B32"/>
<path d="M88.842 144.246C86.362 141.719 86.2554 139.853 88.522 138.646C90.042 137.839 91.6587 137.449 93.372 137.476C99.202 137.586 97.002 145.856 91.532 145.486C90.4787 145.413 89.582 144.999 88.842 144.246Z" fill="#F8BD2A"/>
<path d="M67.3195 150.495C65.9929 149.809 65.1862 148.719 64.8995 147.225L64.1795 143.475C64.121 143.151 64.1736 142.807 64.3295 142.495C67.9695 135.385 85.5095 136.135 78.1795 147.765C75.5328 151.965 71.9129 152.875 67.3195 150.495ZM70.2395 149.365C77.2295 150.355 80.1595 140.025 74.6995 140.305C72.6495 140.405 69.1095 140.125 67.6295 141.195C64.4995 143.455 66.3395 148.815 70.2395 149.365Z" fill="#392B32"/>
<path d="M70.2417 149.365C66.3417 148.815 64.5017 143.455 67.6317 141.195C69.1117 140.125 72.6517 140.405 74.7017 140.305C80.1617 140.025 77.2317 150.355 70.2417 149.365Z" fill="#FBBF24"/>
<path d="M23.1133 154.625C26.1333 153.785 28.1333 152.249 29.1133 150.015C30.5733 146.675 28.4633 143.895 24.9433 143.675C24.15 143.155 24.1666 142.679 24.9933 142.245C25.263 142.097 25.6014 142.058 25.9433 142.135C30.7333 143.165 32.5033 147.565 29.9533 151.655C28.4933 153.995 26.2133 154.985 23.1133 154.625Z" fill="#1A1F29"/>
<path d="M46.4864 152.561C49.7683 152.308 52.2695 150.033 52.0729 147.477C51.8763 144.922 49.0564 143.056 45.7745 143.308C42.4925 143.561 39.9914 145.837 40.188 148.392C40.3846 150.947 43.2045 152.814 46.4864 152.561Z" fill="#FBBF24"/>
<path d="M24.941 143.676C28.461 143.896 30.571 146.676 29.111 150.016C28.131 152.249 26.131 153.786 23.111 154.626C18.3177 149.886 18.9277 146.236 24.941 143.676Z" fill="#F8BD2A"/>
<path d="M95.6909 173.186C91.7609 174.166 87.2309 169.496 86.9909 165.746C86.9713 165.429 87.063 165.112 87.2509 164.846C89.5376 161.579 92.9376 160.122 97.4509 160.476C108.331 161.326 101.151 171.816 95.6909 173.186ZM91.5609 169.956C92.8409 171.216 94.2776 171.596 95.8709 171.096C99.0776 170.096 100.764 167.882 100.931 164.456C100.941 164.246 100.904 164.036 100.822 163.838C100.74 163.64 100.615 163.459 100.454 163.303C100.293 163.148 100.1 163.022 99.8846 162.934C99.6695 162.845 99.4372 162.794 99.2009 162.786C95.5709 162.636 84.2909 162.796 91.5609 169.956Z" fill="#392B32"/>
<path d="M91.5601 169.955C84.2901 162.795 95.5701 162.635 99.2001 162.785C99.4363 162.794 99.6687 162.844 99.8838 162.933C100.099 163.022 100.293 163.148 100.453 163.303C100.614 163.458 100.739 163.64 100.821 163.838C100.903 164.036 100.94 164.245 100.93 164.455C100.763 167.882 99.0767 170.095 95.8701 171.095C94.2767 171.595 92.8401 171.215 91.5601 169.955Z" fill="#F8BD2A"/>
<path d="M73.9831 176.005C77.0372 176.005 79.5131 173.529 79.5131 170.475C79.5131 167.421 77.0372 164.945 73.9831 164.945C70.929 164.945 68.4531 167.421 68.4531 170.475C68.4531 173.529 70.929 176.005 73.9831 176.005Z" fill="#FBBF24"/>
<path d="M46.7098 178.862C49.9316 178.455 52.2354 175.686 51.8553 172.678C51.4753 169.67 48.5555 167.561 45.3336 167.968C42.1118 168.375 39.8081 171.144 40.1881 174.152C40.5681 177.16 43.488 179.269 46.7098 178.862Z" fill="#FBBF24"/>
<path d="M29.7583 173.57C30.0299 175.036 29.6451 176.561 28.6884 177.81C27.7317 179.06 26.2814 179.931 24.6568 180.232C23.8524 180.381 23.0293 180.385 22.2346 180.246C21.44 180.106 20.6892 179.824 20.0253 179.416C19.3614 179.008 18.7972 178.483 18.3651 177.869C17.933 177.256 17.6414 176.567 17.5069 175.841C17.2353 174.376 17.6202 172.85 18.5769 171.601C19.5336 170.352 20.9838 169.481 22.6084 169.18C23.4129 169.031 24.2359 169.026 25.0306 169.166C25.8253 169.306 26.576 169.588 27.24 169.996C27.9039 170.403 28.468 170.929 28.9001 171.542C29.3322 172.156 29.6238 172.845 29.7583 173.57ZM27.9719 173.895C27.8667 173.377 27.6479 172.888 27.3281 172.456C27.0083 172.023 26.5937 171.655 26.1079 171.373C25.6222 171.091 25.0749 170.9 24.4972 170.811C23.9195 170.723 23.3228 170.738 22.7412 170.856C21.5665 171.095 20.5243 171.74 19.844 172.647C19.1636 173.555 18.9008 174.652 19.1134 175.697C19.2186 176.214 19.4374 176.703 19.7572 177.136C20.0771 177.568 20.4917 177.936 20.9774 178.218C21.4631 178.501 22.0104 178.691 22.5881 178.78C23.1658 178.869 23.7625 178.853 24.3441 178.735C25.5188 178.496 26.561 177.852 27.2414 176.944C27.9217 176.036 28.1845 174.939 27.9719 173.895Z" fill="#392B32"/>
<path d="M24.3447 178.735C26.7909 178.238 28.4151 176.07 27.9725 173.895C27.5298 171.719 25.188 170.359 22.7418 170.857C20.2955 171.354 18.6713 173.521 19.114 175.697C19.5566 177.873 21.8985 179.233 24.3447 178.735Z" fill="#F0C437"/>
<path d="M106.192 196.675C105.179 196.921 104.822 197.691 105.122 198.985C106.249 203.898 106.942 208.885 107.202 213.945C107.562 220.875 96.7522 221.395 92.5222 220.495C90.6222 220.088 89.5989 218.915 89.4522 216.975C88.9389 210.201 87.7855 203.501 85.9922 196.875C92.5455 193.295 99.2789 193.228 106.192 196.675Z" fill="#7FCDBC"/>
<path d="M65.4407 201.755C66.8074 206.309 67.4874 210.769 67.4807 215.135C67.4807 216.502 66.8308 217.399 65.5308 217.825C61.9908 218.985 53.1107 220.245 52.2007 214.815C51.5607 211.022 51.3074 208.489 51.4407 207.215C51.7341 204.429 51.8107 202.625 51.6707 201.805C56.0507 201.112 60.6407 201.095 65.4407 201.755Z" fill="#76C5B7"/>
<path d="M32.1901 207.426L31.1601 208.536C31.0658 208.639 30.9939 208.776 30.9491 208.936C30.9043 209.096 30.8876 209.277 30.9001 209.466L31.4601 217.716C31.5468 218.963 31.1101 219.966 30.1501 220.726C28.2301 222.246 24.8001 222.916 22.5701 223.116C15.7701 223.706 16.7501 212.986 16.6901 206.756C21.9435 205.563 27.1101 205.786 32.1901 207.426Z" fill="#7FCDBC"/>
</svg>
