<svg width="116" height="163" viewBox="0 0 116 163" fill="none" xmlns="http://www.w3.org/2000/svg">
<path d="M5.8879 123.504C-8.6821 143.904 11.7779 169.524 34.9579 158.384C49.0979 151.604 51.1579 132.734 49.6779 118.724C49.2246 114.457 47.9246 107.67 45.7779 98.3637C42.7379 85.1837 41.6012 71.1469 42.3679 56.2536C42.9279 45.4036 46.4579 37.3236 55.4279 31.6236C68.7079 23.1836 81.1179 28.2836 93.6379 34.7636C101.745 38.957 108.735 37.7703 114.608 31.2036C114.702 31.0978 114.754 30.9618 114.756 30.8205C114.758 30.6792 114.709 30.5419 114.618 30.4336C104.668 18.5736 89.9079 9.82363 75.2479 3.21363C59.9979 -3.65637 42.0279 6.79363 30.4779 16.4036C21.9779 23.4836 16.7779 36.5436 14.7879 47.1836C14.0546 51.117 13.9046 56.6903 14.3379 63.9036C15.1579 77.597 16.1179 91.2803 17.2179 104.954C17.9379 113.914 10.4079 117.194 5.8879 123.504Z" stroke="#B0D2CD" stroke-width="2"/>
<path d="M31.6577 79.6739C32.2177 79.3739 32.0577 75.1839 32.1377 74.3739C32.7777 67.7939 32.6477 61.4039 32.2777 54.3739C32.0577 50.0872 32.4943 46.5505 33.5877 43.7639C34.5743 41.2372 35.001 39.0705 34.8677 37.2639C34.8353 36.8885 34.9128 36.536 35.0877 36.2639L39.3777 29.5638C39.4114 29.5118 39.4381 29.4556 39.4559 29.3989C39.4738 29.3421 39.4825 29.2858 39.4816 29.2335C39.4806 29.1812 39.4701 29.1339 39.4505 29.0944C39.4309 29.0549 39.4027 29.0241 39.3677 29.0038C39.2277 28.9172 39.0777 28.9405 38.9177 29.0739C32.0777 34.7139 28.9377 42.3138 25.4177 51.5238C24.7277 53.3338 25.3077 55.2338 23.7477 56.9538C23.5336 57.1869 23.4034 57.4825 23.3777 57.7939C23.2777 58.8472 23.4143 59.8672 23.7877 60.8539C23.8308 60.9648 23.8379 61.1074 23.8083 61.2694C23.7787 61.4314 23.7133 61.6079 23.6177 61.7838C23.1777 62.5972 23.0943 63.4272 23.3677 64.2738C23.4172 64.4267 23.4947 64.5618 23.5862 64.6552C23.6778 64.7486 23.7775 64.7942 23.8677 64.7838C24.6343 64.6838 24.9677 65.0205 24.8677 65.7939C24.8534 65.9187 24.7801 66.0418 24.658 66.1459C24.536 66.25 24.3715 66.3297 24.1877 66.3739C23.841 66.4472 23.5677 66.5772 23.3677 66.7638C23.2753 66.8515 23.2131 66.9919 23.1884 67.1688C23.1636 67.3457 23.1772 67.5519 23.2277 67.7638C23.581 69.2638 23.791 71.4372 23.8577 74.2838C23.9243 77.1305 25.0043 85.3639 27.0977 98.9839C28.5977 108.714 29.4377 117.824 20.6677 123.504C17.4977 125.554 17.6977 130.434 14.0977 130.954C13.936 130.976 13.784 131.03 13.6538 131.114C13.5236 131.197 13.4187 131.307 13.3477 131.434C8.99767 139.174 10.7777 151.464 22.7377 148.694C28.2577 147.414 31.2377 140.644 32.0177 135.524C33.5643 125.277 34.4243 114.967 34.5977 104.594C34.6277 102.684 33.8877 101.524 31.8477 101.914C31.3543 102.007 31.191 101.877 31.3577 101.524L32.3977 99.2939C32.551 98.9605 32.6143 98.6238 32.5877 98.2838L31.1077 80.2838C31.0997 80.1966 31.1488 80.0902 31.2479 79.9803C31.3469 79.8705 31.4906 79.7631 31.6577 79.6739Z" stroke="#558C90" stroke-width="2"/>
<path d="M34.9579 158.384C11.7779 169.524 -8.6821 143.904 5.8879 123.504C10.4079 117.194 17.9379 113.914 17.2179 104.954C16.1179 91.2803 15.1579 77.597 14.3379 63.9036C13.9046 56.6903 14.0546 51.117 14.7879 47.1836C16.7779 36.5436 21.9779 23.4836 30.4779 16.4036C42.0279 6.79363 59.9979 -3.65637 75.2479 3.21363C89.9079 9.82363 104.668 18.5736 114.618 30.4336C114.709 30.5419 114.758 30.6792 114.756 30.8205C114.754 30.9618 114.702 31.0978 114.608 31.2036C108.735 37.7703 101.745 38.957 93.6379 34.7636C81.1179 28.2836 68.7079 23.1836 55.4279 31.6236C46.4579 37.3236 42.9279 45.4036 42.3679 56.2536C41.6012 71.1469 42.7379 85.1837 45.7779 98.3637C47.9246 107.67 49.2246 114.457 49.6779 118.724C51.1579 132.734 49.0979 151.604 34.9579 158.384ZM31.6579 79.6737C32.2179 79.3736 32.0579 75.1837 32.1379 74.3737C32.7779 67.7937 32.6479 61.4037 32.2779 54.3737C32.0579 50.087 32.4946 46.5503 33.5879 43.7636C34.5746 41.237 35.0012 39.0703 34.8679 37.2636C34.8355 36.8883 34.9131 36.5358 35.0879 36.2636L39.3779 29.5636C39.4117 29.5115 39.4383 29.4554 39.4562 29.3987C39.474 29.3419 39.4827 29.2856 39.4818 29.2333C39.4809 29.181 39.4703 29.1337 39.4507 29.0942C39.4311 29.0547 39.403 29.0239 39.3679 29.0036C39.2279 28.917 39.0779 28.9403 38.9179 29.0736C32.0779 34.7136 28.9379 42.3136 25.4179 51.5236C24.7279 53.3336 25.3079 55.2336 23.7479 56.9536C23.5338 57.1867 23.4036 57.4823 23.3779 57.7936C23.2779 58.847 23.4146 59.867 23.7879 60.8536C23.8311 60.9646 23.8382 61.1072 23.8086 61.2692C23.7789 61.4312 23.7135 61.6077 23.6179 61.7836C23.1779 62.597 23.0946 63.427 23.3679 64.2736C23.4175 64.4265 23.4949 64.5616 23.5865 64.655C23.678 64.7484 23.7778 64.794 23.8679 64.7836C24.6346 64.6836 24.9679 65.0203 24.8679 65.7936C24.8536 65.9185 24.7803 66.0416 24.6583 66.1457C24.5363 66.2498 24.3717 66.3295 24.1879 66.3737C23.8412 66.447 23.5679 66.577 23.3679 66.7636C23.2755 66.8513 23.2134 66.9917 23.1886 67.1686C23.1639 67.3455 23.1775 67.5517 23.2279 67.7636C23.5812 69.2636 23.7912 71.437 23.8579 74.2836C23.9246 77.1303 25.0046 85.3636 27.0979 98.9837C28.5979 108.714 29.4379 117.824 20.6679 123.504C17.4979 125.554 17.6979 130.434 14.0979 130.954C13.9362 130.975 13.7842 131.03 13.654 131.114C13.5238 131.197 13.419 131.307 13.3479 131.434C8.99791 139.174 10.7779 151.464 22.7379 148.694C28.2579 147.414 31.2379 140.644 32.0179 135.524C33.5646 125.277 34.4246 114.967 34.5979 104.594C34.6279 102.684 33.8879 101.524 31.8479 101.914C31.3546 102.007 31.1912 101.877 31.3579 101.524L32.3979 99.2936C32.5512 98.9603 32.6146 98.6236 32.5879 98.2836L31.1079 80.2836C31.0999 80.1964 31.1491 80.09 31.2481 79.9801C31.3471 79.8703 31.4908 79.7628 31.6579 79.6737Z" fill="#62A6A6"/>
<path d="M31.1077 80.2838L32.5877 98.2838C32.6143 98.6238 32.551 98.9605 32.3977 99.2939L31.3577 101.524C31.191 101.877 31.3543 102.007 31.8477 101.914C33.8877 101.524 34.6277 102.684 34.5977 104.594C34.4243 114.967 33.5643 125.277 32.0177 135.524C31.2377 140.644 28.2577 147.414 22.7377 148.694C10.7777 151.464 8.99767 139.174 13.3477 131.434C13.4187 131.307 13.5236 131.197 13.6538 131.114C13.784 131.03 13.936 130.976 14.0977 130.954C17.6977 130.434 17.4977 125.554 20.6677 123.504C29.4377 117.824 28.5977 108.714 27.0977 98.9839C25.0043 85.3639 23.9243 77.1305 23.8577 74.2838C23.791 71.4372 23.581 69.2638 23.2277 67.7638C23.1772 67.5519 23.1636 67.3457 23.1884 67.1688C23.2131 66.9919 23.2753 66.8515 23.3677 66.7638C23.5677 66.5772 23.841 66.4472 24.1877 66.3739C24.3715 66.3297 24.536 66.25 24.658 66.1459C24.7801 66.0418 24.8534 65.9187 24.8677 65.7939C24.9677 65.0205 24.6343 64.6838 23.8677 64.7838C23.7775 64.7942 23.6778 64.7486 23.5862 64.6552C23.4947 64.5618 23.4172 64.4267 23.3677 64.2738C23.0943 63.4272 23.1777 62.5972 23.6177 61.7838C23.7133 61.6079 23.7787 61.4314 23.8083 61.2694C23.8379 61.1074 23.8308 60.9648 23.7877 60.8539C23.4143 59.8672 23.2777 58.8472 23.3777 57.7939C23.4034 57.4825 23.5336 57.1869 23.7477 56.9538C25.3077 55.2338 24.7277 53.3338 25.4177 51.5238C28.9377 42.3138 32.0777 34.7139 38.9177 29.0739C39.0777 28.9405 39.2277 28.9172 39.3677 29.0038C39.4027 29.0241 39.4309 29.0549 39.4505 29.0944C39.4701 29.1339 39.4806 29.1812 39.4816 29.2335C39.4825 29.2858 39.4738 29.3421 39.4559 29.3989C39.4381 29.4556 39.4114 29.5118 39.3777 29.5638L35.0877 36.2639C34.9128 36.536 34.8353 36.8885 34.8677 37.2639C35.001 39.0705 34.5743 41.2372 33.5877 43.7639C32.4943 46.5505 32.0577 50.0872 32.2777 54.3739C32.6477 61.4039 32.7777 67.7939 32.1377 74.3739C32.0577 75.1839 32.2177 79.3739 31.6577 79.6739C31.4906 79.7631 31.3469 79.8705 31.2479 79.9803C31.1488 80.0902 31.0997 80.1966 31.1077 80.2838Z" fill="#477179"/>
</svg>
