<svg width="167" height="117" viewBox="0 0 167 117" fill="none" xmlns="http://www.w3.org/2000/svg">
<path d="M81.5666 13.4321C78.2666 25.8721 82.4566 34.4522 88.7366 45.2122C92.6866 52.0022 91.8966 39.6521 91.9866 38.1321" stroke="#9A9CA4" stroke-width="2"/>
<path d="M91.9865 38.1325C94.7665 25.2025 90.6864 13.9825 86.3764 2.3825C85.6831 0.535833 84.9964 0.539176 84.3164 2.39251C83.0097 5.93918 82.0931 9.61915 81.5664 13.4325" stroke="#8B888F" stroke-width="2"/>
<path d="M91.9865 38.1322C91.6798 38.3122 91.3564 38.4088 91.0164 38.4222C90.88 38.4237 90.7475 38.3679 90.6454 38.2659C90.5434 38.1638 90.4795 38.0232 90.4664 37.8722C90.1464 34.2122 91.2565 30.7922 90.6165 27.3222C89.8865 23.3722 89.5564 19.0822 88.4964 15.4622C87.6497 12.5689 86.6564 9.72218 85.5164 6.92218C85.1964 6.12218 84.9598 6.12887 84.8065 6.9422C84.3465 9.40887 83.2664 11.5722 81.5664 13.4322" stroke="#272740" stroke-width="2"/>
<path d="M1.43749 23.9326C12.7375 27.4526 23.9775 28.7625 35.5275 30.8525C38.6075 31.4125 41.5008 32.4426 44.2075 33.9426C61.0975 43.3226 73.8675 57.7926 82.5675 74.8426C88.5775 86.6326 90.1875 102.683 90.8875 114.473C90.9475 115.443 91.6175 115.203 91.7075 114.453C93.0475 103.863 96.3575 93.9126 97.6875 83.4326C100.337 62.5826 110.258 44.8126 123.468 27.8226C130.158 19.2226 135.607 16.0226 146.387 13.3726C152.261 11.9326 158.277 10.0992 164.437 7.87256C164.655 7.79381 164.852 7.66771 165.015 7.50336C165.178 7.33902 165.302 7.14053 165.378 6.92231C165.455 6.70409 165.482 6.47156 165.458 6.24158C165.433 6.0116 165.358 5.78995 165.238 5.5926C162.958 1.8326 147.488 3.60258 143.358 3.95258C114.538 6.37258 99.7675 44.5926 89.5975 66.7126C88.9775 68.0526 88.2909 67.9226 87.5375 66.3226C77.5775 45.1926 56.6375 22.0526 32.4375 18.2626C21.3675 16.5326 11.6575 19.5625 1.42754 23.3525C0.854207 23.5592 0.857489 23.7526 1.43749 23.9326Z" stroke="#B0D2CD" stroke-width="2"/>
<path d="M138.066 54.3124L152.526 49.6724" stroke="#A4A4AE" stroke-width="2"/>
<path d="M152.526 49.6722L157.756 48.8423C157.992 48.8048 158.205 48.6857 158.354 48.5083C158.504 48.3309 158.58 48.1077 158.566 47.8823L158.226 42.3823C158.217 42.2241 158.18 42.0728 158.119 41.9371C158.057 41.8014 157.971 41.6841 157.866 41.5923C151.536 35.9323 138.936 39.9122 132.346 43.1122C126.036 46.1722 120.896 51.3923 116.446 56.8323C115.986 57.3923 116.113 57.6189 116.826 57.5123L138.066 54.3122" stroke="#929099" stroke-width="2"/>
<path d="M152.526 49.6725C152.039 48.9325 152.979 48.4592 155.346 48.2525C155.672 48.2238 155.98 48.0874 156.221 47.8647C156.462 47.6421 156.622 47.3459 156.676 47.0225C157.376 42.8558 155.412 40.7591 150.786 40.7325C141.996 40.6725 124.386 45.5825 120.716 54.8425C120.589 55.1492 120.696 55.2725 121.036 55.2125C126.909 54.1392 132.379 53.4858 137.446 53.2525C137.786 53.2392 137.992 53.5925 138.066 54.3125" stroke="#373654" stroke-width="2"/>
<path d="M27.1367 58.9824C29.2101 59.8091 31.3268 60.5624 33.4868 61.2424C39.4468 63.1124 44.6368 65.9824 50.7368 67.6324" stroke="#A4A4AE" stroke-width="2"/>
<path d="M50.738 67.6323C51.9647 69.2189 53.4679 69.7756 55.2479 69.3023C55.3088 69.2841 55.3651 69.253 55.413 69.2109C55.4609 69.1688 55.4993 69.1167 55.5258 69.0582C55.5522 68.9996 55.5661 68.9358 55.5665 68.871C55.5669 68.8062 55.5537 68.7419 55.528 68.6823C47.418 50.0223 29.108 46.8323 10.968 50.3023C9.5413 50.5756 8.20797 51.0856 6.96797 51.8323C5.51464 52.7056 5.58131 53.4422 7.16798 54.0422C13.448 56.4222 20.1046 58.0689 27.138 58.9822" stroke="#929099" stroke-width="2"/>
<path d="M50.7358 67.6326C52.9658 64.8126 49.6158 64.3326 49.4458 62.2126C49.4201 61.8577 49.3028 61.5519 49.1158 61.3526C45.5425 57.7192 42.9891 55.5893 41.4558 54.9626C32.3158 51.2293 22.8724 50.1226 13.1258 51.6426C11.7558 51.8526 9.64576 52.6026 11.1358 54.3726C11.2293 54.4842 11.3541 54.5723 11.5 54.6296C11.6459 54.6869 11.8089 54.712 11.9758 54.7026C14.5891 54.5826 16.3591 54.6259 17.2858 54.8326C20.8658 55.6193 24.1491 57.0026 27.1358 58.9826" stroke="#373654" stroke-width="2"/>
<path d="M91.9865 38.1325C91.6798 38.3125 91.3564 38.4091 91.0164 38.4225C90.88 38.424 90.7475 38.3682 90.6454 38.2662C90.5434 38.1641 90.4795 38.0235 90.4664 37.8725C90.1464 34.2125 91.2565 30.7925 90.6165 27.3225C89.8865 23.3725 89.5564 19.0825 88.4964 15.4625C87.6497 12.5692 86.6564 9.72248 85.5164 6.92248C85.1964 6.12248 84.9598 6.12916 84.8065 6.9425C84.3465 9.40916 83.2664 11.5725 81.5664 13.4325C82.0931 9.61915 83.0097 5.93918 84.3164 2.39251C84.9964 0.539176 85.6831 0.535833 86.3764 2.3825C90.6864 13.9825 94.7664 25.2025 91.9865 38.1325Z" fill="#18132B"/>
<path d="M1.43749 23.9326C0.857489 23.7526 0.854207 23.5592 1.42754 23.3525C11.6575 19.5625 21.3675 16.5326 32.4375 18.2626C56.6375 22.0526 77.5775 45.1926 87.5375 66.3226C88.2909 67.9226 88.9775 68.0526 89.5975 66.7126C99.7675 44.5926 114.538 6.37258 143.358 3.95258C147.488 3.60258 162.958 1.8326 165.238 5.5926C165.358 5.78995 165.433 6.0116 165.458 6.24158C165.482 6.47156 165.455 6.70409 165.378 6.92231C165.302 7.14053 165.178 7.33902 165.015 7.50336C164.852 7.66771 164.655 7.79381 164.437 7.87256C158.277 10.0992 152.261 11.9326 146.387 13.3726C135.607 16.0226 130.158 19.2226 123.468 27.8226C110.258 44.8126 100.337 62.5826 97.6875 83.4326C96.3575 93.9126 93.0475 103.863 91.7075 114.453C91.6175 115.203 90.9475 115.443 90.8875 114.473C90.1875 102.683 88.5775 86.6326 82.5675 74.8426C73.8675 57.7926 61.0975 43.3226 44.2075 33.9426C41.5008 32.4426 38.6075 31.4125 35.5275 30.8525C23.9775 28.7625 12.7375 27.4526 1.43749 23.9326Z" fill="#62A6A6"/>
<path d="M91.9866 38.1322C91.8966 39.6522 92.6866 52.0022 88.7366 45.2122C82.4566 34.4522 78.2666 25.8722 81.5666 13.4322C83.2666 11.5722 84.3466 9.40887 84.8066 6.9422C84.9599 6.12887 85.1966 6.12218 85.5166 6.92218C86.6566 9.72218 87.6499 12.5689 88.4966 15.4622C89.5566 19.0822 89.8866 23.3722 90.6166 27.3222C91.2566 30.7922 90.1466 34.2122 90.4666 37.8722C90.4796 38.0232 90.5436 38.1638 90.6456 38.2659C90.7476 38.3679 90.8801 38.4237 91.0166 38.4222C91.3566 38.4088 91.6799 38.3122 91.9866 38.1322Z" fill="#353A54"/>
<path d="M152.526 49.6722C152.04 48.9322 152.98 48.4589 155.346 48.2523C155.673 48.2235 155.981 48.0871 156.221 47.8645C156.462 47.6419 156.622 47.3457 156.676 47.0223C157.376 42.8556 155.413 40.7589 150.786 40.7322C141.996 40.6722 124.386 45.5823 120.716 54.8423C120.59 55.1489 120.696 55.2723 121.036 55.2123C126.91 54.1389 132.38 53.4856 137.446 53.2523C137.786 53.2389 137.993 53.5922 138.066 54.3122L116.826 57.5123C116.113 57.6189 115.986 57.3923 116.446 56.8323C120.896 51.3923 126.036 46.1722 132.346 43.1122C138.936 39.9122 151.536 35.9323 157.866 41.5923C157.971 41.6841 158.057 41.8014 158.119 41.9371C158.18 42.0728 158.217 42.2241 158.226 42.3823L158.566 47.8823C158.58 48.1077 158.504 48.3309 158.354 48.5083C158.205 48.6857 157.992 48.8048 157.756 48.8423L152.526 49.6722Z" fill="#25223E"/>
<path d="M152.526 49.6725L138.066 54.3125C137.992 53.5925 137.786 53.2392 137.446 53.2525C132.379 53.4858 126.909 54.1392 121.036 55.2125C120.696 55.2725 120.589 55.1492 120.716 54.8425C124.386 45.5825 141.996 40.6725 150.786 40.7325C155.412 40.7591 157.376 42.8558 156.676 47.0225C156.622 47.3459 156.462 47.6421 156.221 47.8647C155.98 48.0874 155.672 48.2238 155.346 48.2525C152.979 48.4592 152.039 48.9325 152.526 49.6725Z" fill="#494A69"/>
<path d="M50.738 67.6323C52.968 64.8123 49.6179 64.3323 49.4479 62.2123C49.4223 61.8574 49.305 61.5516 49.118 61.3522C45.5447 57.7189 42.9913 55.589 41.458 54.9623C32.318 51.229 22.8746 50.1223 13.1279 51.6423C11.7579 51.8523 9.64795 52.6023 11.138 54.3723C11.2315 54.4839 11.3563 54.5719 11.5022 54.6293C11.6481 54.6866 11.8111 54.7116 11.978 54.7023C14.5913 54.5823 16.3613 54.6256 17.288 54.8323C20.868 55.6189 24.1513 57.0022 27.138 58.9822C20.1046 58.0689 13.448 56.4222 7.16798 54.0422C5.58131 53.4422 5.51464 52.7056 6.96797 51.8323C8.20797 51.0856 9.5413 50.5756 10.968 50.3023C29.108 46.8323 47.418 50.0223 55.528 68.6823C55.5537 68.7419 55.5669 68.8062 55.5665 68.871C55.5661 68.9358 55.5522 68.9996 55.5258 69.0582C55.4993 69.1167 55.4609 69.1688 55.413 69.2109C55.3651 69.253 55.3088 69.2841 55.2479 69.3023C53.4679 69.7756 51.9647 69.2189 50.738 67.6323Z" fill="#25223E"/>
<path d="M50.7358 67.6326C44.6358 65.9826 39.4458 63.1126 33.4858 61.2426C31.3258 60.5626 29.2091 59.8092 27.1358 58.9826C24.1491 57.0026 20.8658 55.6193 17.2858 54.8326C16.3591 54.6259 14.5891 54.5826 11.9758 54.7026C11.8089 54.712 11.6459 54.6869 11.5 54.6296C11.3541 54.5723 11.2293 54.4842 11.1358 54.3726C9.64576 52.6026 11.7558 51.8526 13.1258 51.6426C22.8724 50.1226 32.3158 51.2293 41.4558 54.9626C42.9891 55.5893 45.5425 57.7192 49.1158 61.3526C49.3028 61.5519 49.4201 61.8577 49.4458 62.2126C49.6158 64.3326 52.9658 64.8126 50.7358 67.6326Z" fill="#494A69"/>
</svg>
