<svg width="92" height="199" viewBox="0 0 92 199" fill="none" xmlns="http://www.w3.org/2000/svg">
<path d="M61.0308 197.121C63.2108 197.721 64.5708 196.261 66.1908 195.131C78.4908 186.561 88.9208 172.371 90.3708 157.171C91.7808 142.341 88.8708 126.641 83.3208 113.471C75.9508 95.9815 69.0508 82.3414 67.9308 67.6214C66.8608 53.4614 69.0508 37.4414 64.4908 23.1114C58.4708 4.20142 35.0108 -5.91855 17.6608 6.39145C-7.08915 23.9514 -1.44917 59.2314 16.2708 79.0614C24.5242 88.2881 32.9975 97.3148 41.6908 106.141C56.4508 121.121 71.8408 140.711 66.6308 162.961C66.6175 163.028 65.2508 166.978 62.5308 174.811C60.4708 180.751 59.0908 186.888 58.3908 193.221C58.1642 195.275 59.0442 196.575 61.0308 197.121Z" stroke="#FFB0A4" stroke-width="2"/>
<path d="M61.0308 197.122C59.0442 196.575 58.1642 195.275 58.3908 193.222C59.0908 186.889 60.4708 180.752 62.5308 174.812C65.2508 166.979 66.6175 163.029 66.6308 162.962C71.8408 140.712 56.4508 121.122 41.6908 106.142C32.9975 97.3153 24.5242 88.2886 16.2708 79.0619C-1.44917 59.2319 -7.08915 23.9519 17.6608 6.39193C35.0108 -5.91807 58.4708 4.2019 64.4908 23.1119C69.0508 37.4419 66.8608 53.4619 67.9308 67.6219C69.0508 82.3419 75.9508 95.982 83.3208 113.472C88.8708 126.642 91.7808 142.342 90.3708 157.172C88.9208 172.372 78.4908 186.562 66.1908 195.132C64.5708 196.262 63.2108 197.722 61.0308 197.122Z" fill="#FF624B"/>
</svg>
