<svg width="89" height="111" viewBox="0 0 89 111" fill="none" xmlns="http://www.w3.org/2000/svg">
<path d="M48.8838 12.395C46.2504 13.5284 43.5871 14.2417 40.8938 14.5351C40.7437 14.5501 40.5921 14.5225 40.456 14.4553C40.32 14.3882 40.2049 14.2842 40.1237 14.1551C37.8104 10.4951 35.2404 7.79173 32.4138 6.04507C19.0538 -2.18493 24.6938 18.2251 26.5038 22.7451C27.0038 23.9984 27.0171 25.2617 26.5438 26.5351C24.8838 30.9684 22.5671 34.9484 19.5938 38.4751" stroke="#FDDF9F" stroke-width="2"/>
<path d="M19.5954 38.4751C15.6654 38.1851 9.85537 39.0651 11.9254 44.4651" stroke="#FEB7A6" stroke-width="2"/>
<path d="M11.924 44.4648C10.6307 45.9848 9.02069 46.9915 7.09402 47.4849C3.44402 48.4149 1.65405 49.4349 1.02405 53.1049C0.965465 53.4228 1.0146 53.7564 1.16403 54.0549C4.09403 60.0449 10.664 62.2148 16.844 62.4448C17.9907 62.4848 18.8374 63.0348 19.384 64.0948L23.364 71.8448" stroke="#FDDF9F" stroke-width="2"/>
<path d="M23.3632 71.8447C19.6032 75.7047 20.0065 78.8014 24.5732 81.1347" stroke="#FEB7A6" stroke-width="2"/>
<path d="M24.5742 81.1348C26.9076 81.9881 28.2542 83.6415 28.6142 86.0948" stroke="#FDDF9F" stroke-width="2"/>
<path d="M28.6147 86.0947C27.3147 90.3947 26.3147 94.7781 25.6147 99.2448C24.6347 105.525 27.1747 112.025 34.7747 105.975C36.0747 104.941 39.1114 101.558 43.8847 95.8247" stroke="#FCD29E" stroke-width="2"/>
<path d="M43.8828 95.8248C46.1028 95.5981 47.7528 96.7515 48.8328 99.2848" stroke="#FDDF9F" stroke-width="2"/>
<path d="M48.832 99.2848C50.072 103.505 51.532 110.645 56.732 108.915C61.232 107.415 63.402 100.695 63.822 96.3848" stroke="#FCCCA1" stroke-width="2"/>
<path d="M63.8233 96.3847C81.5633 91.9547 87.1533 79.2548 87.0733 61.8748C86.9933 42.8848 82.7133 21.0047 63.1133 12.5947" stroke="#FDDF9F" stroke-width="2"/>
<path d="M63.1128 12.5951C62.5128 9.02176 61.3895 5.6184 59.7428 2.38507C59.593 2.08575 59.3586 1.84428 59.0728 1.69507C52.7228 -1.66493 49.3528 8.02508 48.8828 12.3951" stroke="#FDD3A5" stroke-width="2"/>
<path d="M63.1128 12.595C62.6928 12.7817 62.3528 13.0617 62.0928 13.4351C61.9955 13.5686 61.8744 13.6753 61.7424 13.744C61.6104 13.8126 61.4724 13.8406 61.3428 13.825L48.8828 12.395" stroke="#FDB656" stroke-width="2"/>
<path d="M63.822 96.3851C60.5887 95.1384 57.2253 94.8651 53.732 95.5651C51.632 95.9851 49.9987 97.2251 48.832 99.2851" stroke="#FBB052" stroke-width="2"/>
<path d="M43.8833 95.8247C40.3699 90.4047 35.2799 87.1614 28.6133 86.0947" stroke="#FBB64F" stroke-width="2"/>
<path d="M24.5733 81.1349C28.8533 80.2616 32.5333 78.0916 35.6133 74.6249C35.8972 74.3093 36.0804 73.9159 36.1392 73.4954C36.198 73.0749 36.1298 72.6464 35.9433 72.2649C33.1233 66.4449 27.3933 69.0549 23.3633 71.8449" stroke="#FD9A57" stroke-width="2"/>
<path d="M11.9219 44.4651C16.4019 46.5784 21.1219 46.8385 26.0819 45.2451C27.5119 44.7751 28.0619 43.8351 27.8619 42.3851C27.8428 42.235 27.7871 42.089 27.6989 41.9575C27.6106 41.826 27.4921 41.7124 27.3519 41.6251C24.7452 40.0185 22.1585 38.9684 19.5919 38.4751" stroke="#FD9A57" stroke-width="2"/>
<path d="M60.879 29.136C60.654 28.1292 59.9909 27.2636 59.0357 26.7296C58.0804 26.1956 56.9112 26.037 55.7853 26.2887C54.6594 26.5404 53.669 27.1817 53.032 28.0716C52.3951 28.9615 52.1636 30.027 52.3887 31.0339C52.6137 32.0407 53.2768 32.9063 54.2321 33.4403C55.1873 33.9743 56.3566 34.1329 57.4825 33.8813C58.6084 33.6296 59.5987 32.9883 60.2357 32.0984C60.8727 31.2085 61.1041 30.1429 60.879 29.136Z" stroke="#FDA25D" stroke-width="2"/>
<path d="M42.5693 28.8096C42.3709 28.3703 42.0695 27.9828 41.6819 27.6693C41.2944 27.3557 40.8285 27.1221 40.3108 26.9819C39.7931 26.8418 39.2337 26.7977 38.6646 26.8523C38.0955 26.9069 37.5279 27.059 36.9941 27.3001C36.4603 27.5411 35.9707 27.8663 35.5535 28.2571C35.1362 28.6479 34.7993 29.0965 34.5621 29.5776C34.3249 30.0586 34.192 30.5626 34.1709 31.0606C34.1499 31.5587 34.2412 32.0411 34.4395 32.4804C34.6378 32.9196 34.9394 33.3071 35.3269 33.6207C35.7144 33.9343 36.1803 34.1678 36.698 34.308C37.2157 34.4482 37.7751 34.4922 38.3442 34.4376C38.9133 34.383 39.4809 34.2309 40.0147 33.9899C40.5485 33.7488 41.038 33.4237 41.4553 33.0329C41.8726 32.6421 42.2095 32.1934 42.4467 31.7123C42.6839 31.2313 42.8169 30.7274 42.8379 30.2293C42.8589 29.7313 42.7676 29.2488 42.5693 28.8096Z" stroke="#FDAD5A" stroke-width="2"/>
<path d="M49.232 58.3948C50.1587 57.6815 50.4454 56.7715 50.0921 55.6648C48.9821 52.2148 45.5921 50.7348 42.0021 52.8548C40.9287 53.4882 40.2121 54.3981 39.8521 55.5848C39.4454 56.9381 39.6721 57.9348 40.5321 58.5748C43.3988 60.7015 46.2987 60.6415 49.232 58.3948Z" stroke="#FDB656" stroke-width="2"/>
<path d="M73.2855 58.6365C73.3726 58.0321 73.315 57.4129 73.1159 56.8142C72.9168 56.2155 72.5802 55.6491 72.1253 55.1472C71.6703 54.6454 71.106 54.218 70.4644 53.8895C69.8229 53.5609 69.1166 53.3376 68.3862 53.2324C66.9109 53.0198 65.4262 53.3008 64.2587 54.0136C63.0911 54.7264 62.3364 55.8126 62.1605 57.0333C62.0734 57.6377 62.131 58.2569 62.3301 58.8556C62.5291 59.4543 62.8658 60.0207 63.3207 60.5225C63.7757 61.0243 64.34 61.4517 64.9816 61.7803C65.6231 62.1088 66.3293 62.3321 67.0598 62.4374C68.5351 62.65 70.0198 62.3689 71.1873 61.6561C72.3548 60.9433 73.1096 59.8571 73.2855 58.6365Z" stroke="#FDA25D" stroke-width="2"/>
<path d="M54.2656 85.4052C57.3256 86.8452 60.0455 86.3485 62.4255 83.9152C62.5478 83.7896 62.6435 83.651 62.7057 83.5093C62.768 83.3676 62.7953 83.2262 62.7856 83.0952L62.5156 78.8952C62.4022 77.0885 61.2656 76.5052 59.1056 77.1452C56.5756 77.8952 49.0856 82.9652 54.2656 85.4052Z" stroke="#FDAD5A" stroke-width="2"/>
<path d="M63.1128 12.5946C62.6928 12.7813 62.3528 13.0613 62.0928 13.4346C61.9955 13.5682 61.8744 13.6749 61.7424 13.7435C61.6104 13.8122 61.4724 13.8402 61.3428 13.8246L48.8828 12.3946C49.3528 8.02459 52.7228 -1.66542 59.0728 1.69458C59.3586 1.84379 59.593 2.08526 59.7428 2.38458C61.3895 5.61792 62.5128 9.02127 63.1128 12.5946Z" fill="#FDAA5C"/>
<path d="M48.884 12.3946L61.3441 13.8245C61.4736 13.8401 61.6116 13.8121 61.7436 13.7435C61.8757 13.6748 61.9967 13.5682 62.0941 13.4346C62.354 13.0613 62.694 12.7812 63.114 12.5946C82.714 21.0046 86.994 42.8846 87.074 61.8746C87.154 79.2546 81.564 91.9545 63.824 96.3845C60.5907 95.1379 57.2273 94.8645 53.734 95.5645C51.634 95.9845 50.0007 97.2246 48.834 99.2846C47.754 96.7512 46.104 95.5979 43.884 95.8245C40.3707 90.4045 35.2807 87.1612 28.614 86.0946C28.254 83.6412 26.9074 81.9879 24.574 81.1345C28.854 80.2612 32.534 78.0913 35.614 74.6246C35.898 74.3089 36.0812 73.9155 36.1399 73.495C36.1987 73.0745 36.1305 72.646 35.944 72.2645C33.124 66.4445 27.394 69.0546 23.364 71.8446L19.384 64.0946C18.8374 63.0346 17.9907 62.4845 16.844 62.4445C10.664 62.2145 4.09403 60.0446 1.16403 54.0546C1.0146 53.7561 0.965465 53.4226 1.02405 53.1046C1.65405 49.4346 3.44402 48.4146 7.09402 47.4846C9.02069 46.9912 10.6307 45.9846 11.924 44.4646C16.404 46.5779 21.124 46.8379 26.084 45.2446C27.514 44.7746 28.064 43.8345 27.864 42.3845C27.845 42.2345 27.7893 42.0884 27.701 41.9569C27.6128 41.8254 27.4942 41.7119 27.354 41.6246C24.7474 40.0179 22.1607 38.9679 19.594 38.4746C22.5674 34.9479 24.884 30.9679 26.544 26.5346C27.0174 25.2612 27.004 23.9979 26.504 22.7446C24.694 18.2246 19.054 -2.18542 32.414 6.04458C35.2407 7.79124 37.8107 10.4946 40.124 14.1546C40.2052 14.2837 40.3203 14.3877 40.4563 14.4549C40.5923 14.522 40.7439 14.5496 40.894 14.5346C43.5874 14.2412 46.2507 13.5279 48.884 12.3946ZM60.8792 29.1356C60.6542 28.1288 59.9911 27.2632 59.0358 26.7292C58.0806 26.1952 56.9114 26.0366 55.7855 26.2883C54.6596 26.54 53.6692 27.1813 53.0322 28.0712C52.3952 28.9611 52.1638 30.0266 52.3889 31.0335C52.6139 32.0403 53.277 32.9059 54.2322 33.4399C55.1875 33.9739 56.3568 34.1325 57.4827 33.8809C58.6086 33.6292 59.5989 32.9879 60.2359 32.098C60.8729 31.2081 61.1043 30.1425 60.8792 29.1356ZM42.5689 28.8092C42.3706 28.3699 42.0691 27.9824 41.6816 27.6688C41.2941 27.3553 40.8281 27.1217 40.3104 26.9815C39.7927 26.8414 39.2333 26.7973 38.6642 26.8519C38.0952 26.9065 37.5275 27.0586 36.9937 27.2996C36.4599 27.5407 35.9704 27.8659 35.5531 28.2567C35.1358 28.6475 34.799 29.0961 34.5617 29.5772C34.3245 30.0582 34.1916 30.5621 34.1706 31.0602C34.1495 31.5583 34.2408 32.0407 34.4391 32.4799C34.6375 32.9192 34.939 33.3067 35.3265 33.6203C35.714 33.9339 36.1799 34.1674 36.6976 34.3076C37.2153 34.4477 37.7747 34.4918 38.3438 34.4372C38.9129 34.3826 39.4805 34.2305 40.0143 33.9895C40.5482 33.7484 41.0377 33.4233 41.455 33.0325C41.8722 32.6417 42.2091 32.193 42.4463 31.7119C42.6836 31.2309 42.8165 30.727 42.8375 30.2289C42.8586 29.7308 42.7673 29.2484 42.5689 28.8092ZM49.234 58.3946C50.1607 57.6812 50.4474 56.7712 50.0941 55.6646C48.9841 52.2146 45.594 50.7346 42.004 52.8546C40.9307 53.4879 40.2141 54.3979 39.8541 55.5846C39.4474 56.9379 39.6741 57.9345 40.5341 58.5745C43.4007 60.7012 46.3007 60.6412 49.234 58.3946ZM73.2866 58.6362C73.3737 58.0318 73.316 57.4126 73.1169 56.8139C72.9179 56.2152 72.5813 55.6488 72.1263 55.1469C71.6714 54.6451 71.107 54.2177 70.4655 53.8892C69.8239 53.5606 69.1177 53.3373 68.3872 53.2321C66.9119 53.0195 65.4272 53.3005 64.2597 54.0133C63.0922 54.7261 62.3375 55.8123 62.1616 57.033C62.0744 57.6374 62.132 58.2566 62.3311 58.8553C62.5302 59.454 62.8668 60.0204 63.3218 60.5222C63.7767 61.024 64.341 61.4514 64.9826 61.78C65.6242 62.1085 66.3304 62.3318 67.0609 62.4371C68.5361 62.6497 70.0208 62.3686 71.1884 61.6558C72.3559 60.943 73.1107 59.8568 73.2866 58.6362ZM54.264 85.4046C57.324 86.8446 60.044 86.3479 62.424 83.9146C62.5463 83.789 62.642 83.6504 62.7042 83.5087C62.7664 83.367 62.7937 83.2256 62.7841 83.0946L62.514 78.8946C62.4007 77.0879 61.2641 76.5046 59.1041 77.1446C56.5741 77.8946 49.084 82.9646 54.264 85.4046Z" fill="#FCC24F"/>
<path d="M57.4815 33.881C59.826 33.3569 61.3468 31.2324 60.8781 29.1358C60.4095 27.0391 58.1289 25.7643 55.7843 26.2884C53.4397 26.8125 51.919 28.937 52.3876 31.0336C52.8563 33.1303 55.1369 34.4051 57.4815 33.881Z" fill="#FD826A"/>
<path d="M40.0151 33.9896C42.26 32.976 43.4038 30.6567 42.5697 28.8094C41.7356 26.9621 39.2395 26.2863 36.9945 27.2999C34.7496 28.3135 33.6059 30.6328 34.4399 32.4801C35.274 34.3274 37.7701 35.0032 40.0151 33.9896Z" fill="#FD9765"/>
<path d="M19.5954 38.4746C22.162 38.9679 24.7487 40.0179 27.3554 41.6246C27.4956 41.7119 27.6141 41.8254 27.7024 41.9569C27.7906 42.0884 27.8463 42.2345 27.8654 42.3846C28.0654 43.8346 27.5154 44.7746 26.0854 45.2446C21.1254 46.8379 16.4054 46.5779 11.9254 44.4646C9.85537 39.0646 15.6654 38.1846 19.5954 38.4746Z" fill="#FE725E"/>
<path d="M49.2359 58.3948C46.3026 60.6415 43.4027 60.7015 40.536 58.5748C39.676 57.9348 39.4493 56.9381 39.856 55.5848C40.216 54.3981 40.9326 53.4882 42.006 52.8548C45.596 50.7348 48.986 52.2148 50.096 55.6648C50.4493 56.7715 50.1626 57.6815 49.2359 58.3948Z" fill="#FDAA5C"/>
<path d="M67.0603 62.4372C70.1324 62.8799 72.9198 61.1781 73.2861 58.6363C73.6524 56.0944 71.4589 53.6749 68.3868 53.2322C65.3147 52.7895 62.5273 54.4913 62.161 57.0331C61.7947 59.575 63.9882 61.9945 67.0603 62.4372Z" fill="#FD826A"/>
<path d="M24.5732 81.1349C20.0065 78.8016 19.6032 75.7049 23.3632 71.8449C27.3932 69.0549 33.1232 66.4449 35.9432 72.2649C36.1297 72.6464 36.1979 73.0749 36.1391 73.4954C36.0803 73.9159 35.8972 74.3093 35.6132 74.6249C32.5332 78.0916 28.8532 80.2616 24.5732 81.1349Z" fill="#FE725E"/>
<path d="M54.2656 85.4047C49.0856 82.9647 56.5756 77.8947 59.1056 77.1447C61.2656 76.5047 62.4022 77.088 62.5156 78.8947L62.7856 83.0947C62.7953 83.2257 62.768 83.3671 62.7057 83.5088C62.6435 83.6505 62.5478 83.7892 62.4255 83.9147C60.0455 86.348 57.3256 86.8447 54.2656 85.4047Z" fill="#FD9765"/>
<path d="M28.6147 86.0947C35.2814 87.1614 40.3714 90.4047 43.8847 95.8247C39.1114 101.558 36.0747 104.941 34.7747 105.975C27.1747 112.025 24.6347 105.525 25.6147 99.2448C26.3147 94.7781 27.3147 90.3947 28.6147 86.0947Z" fill="#FAA94E"/>
<path d="M63.8259 96.3846C63.4059 100.695 61.2359 107.415 56.7359 108.915C51.5359 110.645 50.0759 103.505 48.8359 99.2846C50.0026 97.2246 51.6359 95.9846 53.7359 95.5646C57.2292 94.8646 60.5926 95.1379 63.8259 96.3846Z" fill="#FA9D54"/>
</svg>
