<svg width="46" height="44" viewBox="0 0 46 44" fill="none" xmlns="http://www.w3.org/2000/svg">
<path d="M12.0918 41.7851C-3.2282 36.8851 -3.75821 13.6951 9.18179 5.76509C10.0885 5.20509 10.9018 4.53842 11.6218 3.76509C16.4118 -1.42491 28.5718 -0.324913 34.4118 1.60509C39.0118 3.12509 45.6718 8.9551 45.3218 14.2451C44.6918 23.5551 43.5218 33.9651 36.0418 40.1951C30.2818 44.9851 18.7718 43.9151 12.0918 41.7851ZM16.1518 37.6751C34.9618 44.3251 46.5818 25.1851 32.7718 11.2151C27.5718 5.9651 16.7518 7.04509 11.8518 12.0151C3.89179 20.0851 4.40179 33.5151 16.1518 37.6751Z" fill="#A0D1B8"/>
<path d="M16.1519 37.6747C4.40194 33.5147 3.89193 20.0847 11.8519 12.0147C16.7519 7.04468 27.5719 5.96469 32.7719 11.2147C46.5819 25.1847 34.9619 44.3247 16.1519 37.6747ZM17.8019 33.8947C17.9112 34.007 18.0381 34.101 18.174 34.1704C18.3099 34.2399 18.4518 34.2831 18.5901 34.2973C18.7283 34.3115 18.8598 34.2964 18.9757 34.2528C19.0916 34.2092 19.1892 34.1382 19.2619 34.0447L19.4719 33.7747C19.5331 33.696 19.5655 33.5991 19.5636 33.5006C19.5618 33.4021 19.5259 33.3081 19.4619 33.2347C16.7886 30.088 15.2286 26.4847 14.7819 22.4247C14.7119 21.7347 13.2319 18.7747 12.8119 21.4747C12.1586 25.668 13.8219 29.808 17.8019 33.8947Z" fill="#1C2038"/>
<path d="M17.8001 33.8949C13.8201 29.8082 12.1567 25.6682 12.8101 21.4749C13.2301 18.7749 14.71 21.7349 14.78 22.4249C15.2267 26.4849 16.7867 30.0882 19.4601 33.2349C19.524 33.3083 19.5599 33.4023 19.5618 33.5008C19.5636 33.5993 19.5312 33.6962 19.4701 33.7749L19.2601 34.0448C19.1873 34.1384 19.0897 34.2094 18.9738 34.2529C18.8579 34.2965 18.7265 34.3117 18.5882 34.2975C18.4499 34.2833 18.3081 34.24 18.1721 34.1706C18.0362 34.1011 17.9093 34.0071 17.8001 33.8949Z" fill="#383749"/>
</svg>
