<svg width="96" height="80" viewBox="0 0 96 80" fill="none" xmlns="http://www.w3.org/2000/svg">
<path d="M44.9355 18.4261C36.9621 20.6928 29.1021 23.5261 21.3555 26.9261C24.3688 18.6994 27.9321 10.7194 32.0455 2.9861C32.5988 1.93943 33.2188 0.999421 33.9055 0.166088C33.9512 0.107851 34.0109 0.0624696 34.0793 0.033947C34.1478 0.0054244 34.2229 -0.00539303 34.298 0.00251387C34.3731 0.0104208 34.4459 0.0368212 34.51 0.0792961C34.5741 0.121771 34.6275 0.179062 34.6655 0.246105L44.9355 18.4261Z" fill="#FD5333"/>
<path d="M44.9331 18.4258L46.6431 21.2158C37.2831 24.0824 28.1365 27.6325 19.2031 31.8658C19.6165 29.9191 20.3331 28.2724 21.3531 26.9258C29.0998 23.5258 36.9598 20.6924 44.9331 18.4258Z" fill="#461612"/>
<path d="M46.6436 21.2158C48.5703 25.1425 50.9169 28.7958 53.6836 32.1758C48.2303 34.2692 42.6469 35.9492 36.9336 37.2158C33.9469 37.8758 25.8636 41.1125 12.6836 46.9258C14.5569 41.6192 16.7303 36.5992 19.2036 31.8658C28.1369 27.6325 37.2836 24.0825 46.6436 21.2158Z" fill="#FD5333"/>
<path d="M53.6853 32.1758C55.012 33.7358 56.3886 34.8024 57.8153 35.3757C41.6686 39.1557 26.0453 44.5324 10.9453 51.5057C11.0386 49.3724 11.6186 47.8458 12.6853 46.9258C25.8653 41.1124 33.9486 37.8758 36.9353 37.2158C42.6486 35.9491 48.232 34.2691 53.6853 32.1758Z" fill="#4E0F0C"/>
<path d="M57.8127 35.376C66.7527 41.046 81.0527 40.676 91.5527 41.476C92.4127 41.5427 93.2293 41.7593 94.0027 42.126C96.1527 43.136 94.9827 44.646 93.5527 45.386C85.8927 49.3327 77.9993 52.7527 69.8727 55.646C50.7393 62.4527 31.6927 69.4827 12.7327 76.736C9.086 78.1294 5.226 79.056 1.15266 79.516C0.986284 79.5359 0.81755 79.515 0.661095 79.455C0.504641 79.395 0.365192 79.2977 0.254846 79.1716C0.1445 79.0455 0.0665885 78.8944 0.0278707 78.7313C-0.0108471 78.5683 -0.00920219 78.3983 0.0326629 78.236C1.07266 74.2094 2.48266 70.1427 4.26266 66.036C6.50933 60.8293 8.736 55.986 10.9427 51.506C26.0427 44.5326 41.666 39.156 57.8127 35.376Z" fill="#FD5333"/>
</svg>
