<svg width="35" height="26" viewBox="0 0 35 26" fill="none" xmlns="http://www.w3.org/2000/svg">
<path d="M10.4503 7.75076C7.86358 11.0241 5.14025 14.1674 2.28025 17.1808C1.14025 18.3908 0.890252 20.3908 2.99025 20.6508C3.41516 20.7021 3.79524 20.6453 4.06025 20.4908C7.21358 18.6041 10.6103 17.4908 14.2503 17.1508C14.5717 17.1186 14.9035 17.2149 15.1803 17.4207C17.9536 19.4741 20.4469 21.8108 22.6603 24.4308C22.9603 24.7841 23.1536 24.7008 23.2403 24.1808C23.7069 21.4074 23.5869 18.8474 22.8803 16.5008C22.3203 14.6408 22.9669 13.3607 24.8203 12.6607C27.6003 11.6074 30.2236 10.2374 32.6903 8.55075C34.3503 7.41075 34.1736 6.53742 32.1603 5.93076C29.9336 5.25742 27.7136 5.30742 25.5003 6.08075C25.4308 6.1081 25.314 6.10766 25.1625 6.07947C25.011 6.05128 24.8305 5.99642 24.6403 5.92075L13.0203 1.36075C11.0536 0.587416 10.1269 1.05742 10.2403 2.77075L10.5203 6.84076C10.5347 7.05959 10.5357 7.26246 10.5233 7.42423C10.5108 7.58599 10.4854 7.69954 10.4503 7.75076Z" stroke="#9197AF" stroke-width="2"/>
<path d="M14.1397 11.3912C15.0997 13.0512 17.8897 10.9811 18.8297 10.2611C19.1297 10.0278 19.1164 9.84449 18.7897 9.71116C18.2831 9.50449 17.7631 9.49449 17.2297 9.68116C17.112 9.72153 16.9971 9.8051 16.8945 9.92502C16.792 10.0449 16.7047 10.1978 16.6397 10.3712C16.4464 10.8512 16.1097 11.1945 15.6297 11.4012C15.5741 11.425 15.5133 11.4351 15.4511 11.4308C15.3889 11.4265 15.3265 11.4079 15.2677 11.3761C15.2089 11.3444 15.1549 11.3001 15.1088 11.246C15.0628 11.1919 15.0257 11.129 14.9997 11.0612C14.4664 9.62783 13.5531 9.09449 12.2597 9.46116C11.6064 9.64782 11.5364 9.85449 12.0497 10.0812L13.5797 10.7712C13.6686 10.8126 13.764 10.889 13.8603 10.9956C13.9566 11.1022 14.0517 11.2368 14.1397 11.3912Z" stroke="#3B4774" stroke-width="2"/>
<path d="M10.5203 6.84076L10.2403 2.77075C10.1269 1.05742 11.0536 0.587416 13.0203 1.36075L24.6403 5.92075C24.8305 5.99642 25.011 6.05128 25.1625 6.07947C25.314 6.10766 25.4308 6.1081 25.5003 6.08075C27.7136 5.30742 29.9336 5.25742 32.1603 5.93076C34.1736 6.53742 34.3503 7.41075 32.6903 8.55075C30.2236 10.2374 27.6003 11.6074 24.8203 12.6607C22.9669 13.3607 22.3203 14.6408 22.8803 16.5008C23.5869 18.8474 23.7069 21.4074 23.2403 24.1808C23.1536 24.7008 22.9603 24.7841 22.6603 24.4308C20.4469 21.8108 17.9536 19.4741 15.1803 17.4207C14.9035 17.2149 14.5717 17.1186 14.2503 17.1508C10.6103 17.4908 7.21358 18.6041 4.06025 20.4908C3.79524 20.6453 3.41516 20.7021 2.99025 20.6508C0.890252 20.3908 1.14025 18.3908 2.28025 17.1808C5.14025 14.1674 7.86358 11.0241 10.4503 7.75076C10.4854 7.69954 10.5108 7.58599 10.5233 7.42423C10.5357 7.26246 10.5347 7.05959 10.5203 6.84076ZM14.1403 11.3907C15.1003 13.0507 17.8903 10.9807 18.8303 10.2607C19.1303 10.0274 19.1169 9.84409 18.7903 9.71076C18.2836 9.50409 17.7636 9.49409 17.2303 9.68076C17.1125 9.72113 16.9976 9.8047 16.8951 9.92462C16.7925 10.0445 16.7052 10.1974 16.6403 10.3708C16.4469 10.8508 16.1103 11.1941 15.6303 11.4008C15.5746 11.4246 15.5138 11.4347 15.4516 11.4304C15.3894 11.4261 15.3271 11.4075 15.2682 11.3757C15.2094 11.344 15.1554 11.2997 15.1093 11.2456C15.0633 11.1915 15.0262 11.1286 15.0003 11.0608C14.4669 9.62743 13.5536 9.09409 12.2603 9.46076C11.6069 9.64742 11.5369 9.85408 12.0503 10.0808L13.5803 10.7708C13.6691 10.8122 13.7645 10.8886 13.8608 10.9952C13.9571 11.1018 14.0522 11.2364 14.1403 11.3907Z" fill="#232F5F"/>
<path d="M13.5797 10.7707L12.0497 10.0807C11.5364 9.854 11.6064 9.64734 12.2597 9.46067C13.5531 9.094 14.4664 9.62734 14.9997 11.0607C15.0257 11.1285 15.0628 11.1914 15.1088 11.2455C15.1549 11.2996 15.2089 11.3439 15.2677 11.3756C15.3265 11.4074 15.3889 11.426 15.4511 11.4303C15.5133 11.4346 15.5741 11.4245 15.6297 11.4007C16.1097 11.194 16.4464 10.8507 16.6397 10.3707C16.7047 10.1973 16.792 10.0445 16.8945 9.92454C16.9971 9.80461 17.1119 9.72104 17.2297 9.68067C17.7631 9.494 18.2831 9.504 18.7897 9.71067C19.1164 9.844 19.1297 10.0273 18.8297 10.2607C17.8897 10.9807 15.0997 13.0507 14.1397 11.3907C14.0517 11.2363 13.9566 11.1017 13.8603 10.9951C13.764 10.8885 13.6686 10.8121 13.5797 10.7707Z" fill="#535E88"/>
</svg>
