<svg width="178" height="189" viewBox="0 0 178 189" fill="none" xmlns="http://www.w3.org/2000/svg">
<path d="M8.21094 34.9678L9.04095 40.2078C9.07409 40.4144 9.1453 40.6031 9.24622 40.7518C9.34713 40.9005 9.47361 41.0032 9.61096 41.0478C10.371 41.3011 10.6309 41.8544 10.3909 42.7078C10.382 42.7485 10.4001 42.7942 10.4412 42.8353C10.4822 42.8763 10.5431 42.9095 10.611 42.9278L10.761 42.9578C10.8616 42.9831 10.9549 43.0293 11.0344 43.0933C11.1139 43.1572 11.1776 43.2373 11.2209 43.3278C12.3343 45.5478 13.5543 47.7011 14.881 49.7878C15.861 51.3278 16.261 53.2078 17.351 54.8378C18.5376 56.6111 19.2609 57.7811 19.5209 58.3478C21.1143 61.7744 22.6976 65.2045 24.2709 68.6378C28.0209 76.8278 32.8909 84.3578 37.5209 92.0278C40.9309 97.6878 44.461 100.948 45.121 108.298C45.371 111.168 42.391 112.958 41.111 115.048C39.6443 117.454 37.8243 119.561 35.6509 121.368C35.5805 121.423 35.5224 121.484 35.4822 121.545C35.442 121.606 35.421 121.666 35.421 121.718V121.968C35.4204 122.053 35.3732 122.147 35.2856 122.238C35.198 122.33 35.0743 122.413 34.931 122.478C33.551 123.098 32.4609 124.094 31.6609 125.468C31.4743 125.794 31.251 126.051 30.991 126.238C28.601 127.988 28.2209 130.758 26.9109 132.588C25.1043 135.114 23.0943 137.478 20.881 139.678C18.0276 142.524 16.481 145.974 16.241 150.028" stroke="#FAF5E9" stroke-width="2"/>
<path d="M16.2432 150.028C11.9032 155.318 2.89322 163.788 1.18322 170.198C0.636553 172.251 1.31319 173.751 3.21319 174.698C6.59319 176.378 9.94319 177.388 13.9632 177.868C29.0432 179.668 44.0999 181.654 59.1332 183.828C66.2232 184.848 72.9832 185.028 80.4332 186.318C94.3732 188.744 108.09 188.201 121.583 184.688C168.943 172.388 178.513 123.768 176.753 81.7778C175.667 55.8645 174.573 29.9444 173.473 4.01778C173.347 1.00444 172.013 0.247787 169.473 1.74779C145.203 16.0578 122.203 33.7278 101.233 52.5278C94.2132 58.8178 88.2732 60.2178 79.3532 56.2678C68.6532 51.5344 55.9099 46.7278 41.1232 41.8478C31.4232 38.6478 22.3432 34.6978 12.9632 30.9778C9.94319 29.7778 4.89319 29.2478 8.21319 34.9678" stroke="#FEB09C" stroke-width="2"/>
<path d="M16.2419 150.028C24.6919 139.598 32.4719 128.798 41.1819 118.718C46.7419 112.268 49.1319 106.808 44.6519 99.2077C40.2819 91.8077 34.0419 82.8278 29.1819 73.9778C24.1719 64.8478 19.9219 55.5877 14.4219 46.6777" stroke="#F8A686" stroke-width="2"/>
<path d="M14.421 46.6778C14.4543 45.6978 14.0509 44.9611 13.2109 44.4678" stroke="#F89A6A" stroke-width="2"/>
<path d="M13.2109 44.4678L8.21094 34.9678" stroke="#F8A686" stroke-width="2"/>
<path d="M13.211 44.4678C13.2044 45.4544 13.6077 46.1911 14.421 46.6778" stroke="#F4DFB7" stroke-width="2"/>
<path d="M147.273 66.1896C149.028 66.5562 150.903 65.9899 152.485 64.6154C154.068 63.2408 155.228 61.1706 155.71 58.8601C156.193 56.5495 155.959 54.188 155.059 52.2949C154.16 50.4019 152.668 49.1324 150.913 48.7658C149.158 48.3991 147.284 48.9654 145.701 50.3399C144.119 51.7145 142.959 53.7847 142.476 56.0953C141.994 58.4058 142.228 60.7673 143.127 62.6604C144.027 64.5534 145.518 65.8229 147.273 66.1896Z" stroke="#FEB09C" stroke-width="2"/>
<path d="M57.7391 74.908C58.2975 74.6099 58.777 74.1773 59.1504 73.635C59.5238 73.0927 59.7837 72.4513 59.9152 71.7473C60.0467 71.0434 60.0473 70.2907 59.917 69.5324C59.7866 68.774 59.5278 68.0247 59.1555 67.3273C58.7831 66.63 58.3044 65.9981 57.7467 65.4679C57.189 64.9377 56.5632 64.5195 55.9051 64.2372C55.247 63.9549 54.5695 63.8141 53.9111 63.8226C53.2527 63.8312 52.6264 63.9891 52.0681 64.2872C51.5097 64.5854 51.0302 65.0179 50.6568 65.5602C50.2835 66.1026 50.0236 66.744 49.8921 67.4479C49.7605 68.1519 49.7599 68.9045 49.8903 69.6629C50.0206 70.4213 50.2793 71.1705 50.6517 71.8679C51.0241 72.5653 51.5028 73.1971 52.0605 73.7273C52.6182 74.2575 53.2439 74.6757 53.9021 74.958C54.5602 75.2403 55.2378 75.3812 55.8961 75.3726C56.5545 75.364 57.1807 75.2062 57.7391 74.908Z" stroke="#FCAC96" stroke-width="2"/>
<path d="M141.531 80.4475C142.511 81.1609 143.601 81.5775 144.801 81.6975C151.011 82.3375 155.171 75.8775 151.251 71.1475C151.139 71.0102 151.006 70.8992 150.862 70.823C150.718 70.7468 150.567 70.7073 150.421 70.7075L148.921 70.7175C148.809 70.7167 148.69 70.7936 148.586 70.9345C148.481 71.0754 148.398 71.2713 148.351 71.4875C148.158 72.3609 147.994 73.2509 147.861 74.1575C146.821 81.1775 141.341 76.9475 139.001 74.0275C138.882 73.8803 138.749 73.7591 138.613 73.6726C138.476 73.5862 138.339 73.5366 138.211 73.5275C137.591 73.4875 137.374 73.9675 137.561 74.9675C137.934 76.9675 139.258 78.7942 141.531 80.4475Z" stroke="#A13C26" stroke-width="2"/>
<path d="M69.4341 79.9374C70.5741 80.7707 71.5074 80.8407 72.2341 80.1474C73.8041 78.6374 71.9041 75.1374 70.8841 73.7474C69.7041 72.1474 68.8441 72.3007 68.3041 74.2074C67.5308 76.9141 67.9074 78.8241 69.4341 79.9374Z" stroke="#A13C26" stroke-width="2"/>
<path d="M59.3008 86.4575C59.8173 86.3627 60.2432 85.8936 60.4848 85.1533C60.7265 84.413 60.7641 83.4623 60.5893 82.5101C60.5028 82.0387 60.3668 81.5811 60.1889 81.1635C60.0111 80.7459 59.795 80.3764 59.553 80.0763C59.311 79.7761 59.0478 79.551 58.7784 79.414C58.509 79.2769 58.2387 79.2306 57.983 79.2775C57.4665 79.3723 57.0405 79.8414 56.7989 80.5817C56.5572 81.322 56.5196 82.2728 56.6944 83.2249C56.7809 83.6964 56.917 84.154 57.0948 84.5716C57.2726 84.9892 57.4887 85.3586 57.7307 85.6588C57.9727 85.959 58.236 86.184 58.5054 86.321C58.7747 86.4581 59.045 86.5045 59.3008 86.4575Z" stroke="#AB3E24" stroke-width="2"/>
<path d="M134.173 105.008C131.743 105.238 122.143 105.588 121.133 107.718" stroke="#FCAC96" stroke-width="2"/>
<path d="M121.132 107.717C120.159 107.284 119.255 107.381 118.422 108.007" stroke="#904031" stroke-width="2"/>
<path d="M118.422 108.008L107.672 109.008" stroke="#FEB09C" stroke-width="2"/>
<path d="M107.672 109.008C105.839 108.234 104.005 108.234 102.172 109.008" stroke="#904031" stroke-width="2"/>
<path d="M102.174 109.008C96.7009 107.528 91.1942 107.251 85.6542 108.178C84.2142 108.418 82.5742 109.278 80.7242 109.258C80.5577 109.255 80.3968 109.289 80.258 109.357C80.1192 109.426 80.0075 109.526 79.9342 109.648C79.2842 110.678 79.2942 111.618 79.9242 112.748C85.4109 122.554 93.1842 129.928 103.244 134.868C106.524 136.478 113.314 137.998 116.804 137.108C129.824 133.778 139.794 122.028 140.104 108.548C140.105 108.492 140.093 108.436 140.068 108.385C140.043 108.334 140.007 108.288 139.961 108.25C139.914 108.212 139.86 108.184 139.8 108.166C139.74 108.148 139.677 108.142 139.614 108.148C138.948 108.214 138.371 107.988 137.884 107.468" stroke="#F16644" stroke-width="2"/>
<path d="M137.882 107.468C137.962 104.354 136.725 103.534 134.172 105.008" stroke="#904031" stroke-width="2"/>
<path d="M137.882 107.468C136.802 118.068 131.775 126.124 122.802 131.638C107.252 141.188 88.7416 123.908 81.9916 110.978C81.9589 110.916 81.9378 110.848 81.9296 110.78C81.9215 110.711 81.9264 110.642 81.944 110.577C81.9617 110.512 81.9918 110.452 82.0326 110.4C82.0734 110.349 82.124 110.307 82.1816 110.278C82.8483 109.924 83.5016 109.888 84.1416 110.168" stroke="#85453B" stroke-width="2"/>
<path d="M84.1445 110.168C88.6845 115.478 92.4546 121.248 98.2646 125.078C98.3777 125.151 98.5078 125.193 98.6422 125.201C98.7765 125.209 98.9107 125.182 99.0315 125.122C99.1523 125.063 99.2557 124.973 99.3315 124.862C99.4074 124.751 99.4532 124.622 99.4645 124.488C99.8312 119.408 100.651 114.414 101.925 109.508" stroke="#8F8B8E" stroke-width="2"/>
<path d="M101.922 109.508L102.172 109.008" stroke="#85453B" stroke-width="2"/>
<path d="M107.672 109.008C108.079 115.141 108.502 121.278 108.942 127.418C109.402 133.738 117.302 131.048 119.642 128.148C119.736 128.028 119.804 127.886 119.84 127.731C119.876 127.576 119.88 127.411 119.852 127.248C118.712 120.861 118.235 114.448 118.422 108.008" stroke="#918F94" stroke-width="2"/>
<path d="M121.133 107.718C124.373 110.918 125.293 116.928 126.543 121.208C126.558 121.26 126.586 121.307 126.624 121.345C126.662 121.383 126.709 121.411 126.761 121.426C126.813 121.441 126.868 121.443 126.921 121.431C126.974 121.419 127.022 121.394 127.063 121.358C132.103 116.768 132.513 112.758 134.173 105.008" stroke="#8F8B8E" stroke-width="2"/>
<path d="M101.925 109.508C96.4546 110.628 90.3945 109.438 84.1445 110.168" stroke="#F1B1A1" stroke-width="2"/>
<path d="M56.5766 122.239C56.5402 122.06 56.469 121.891 56.3669 121.739C56.2648 121.588 56.1339 121.458 55.9817 121.357C55.8295 121.257 55.6589 121.187 55.4798 121.152C55.3006 121.117 55.1163 121.118 54.9374 121.154L54.8198 121.178C54.4586 121.252 54.1413 121.466 53.9379 121.773C53.7344 122.081 53.6615 122.456 53.7349 122.818L55.3458 130.735C55.3822 130.914 55.4535 131.084 55.5556 131.236C55.6576 131.387 55.7885 131.517 55.9407 131.617C56.0929 131.718 56.2635 131.788 56.4427 131.823C56.6219 131.858 56.8061 131.857 56.985 131.82L57.1026 131.796C57.4639 131.723 57.7811 131.509 57.9846 131.201C58.188 130.894 58.261 130.518 58.1875 130.157L56.5766 122.239Z" stroke="#AB3E24" stroke-width="2"/>
<path d="M156.914 133.731C157.277 133.666 157.534 133.099 157.63 132.156C157.725 131.213 157.65 129.97 157.422 128.702C157.193 127.433 156.83 126.242 156.412 125.392C155.995 124.541 155.556 124.099 155.193 124.165C154.83 124.23 154.573 124.796 154.478 125.74C154.383 126.683 154.457 127.925 154.686 129.194C154.914 130.462 155.277 131.653 155.695 132.504C156.113 133.355 156.551 133.796 156.914 133.731Z" stroke="#A53823" stroke-width="2"/>
<path d="M35.7163 147.35C36.1401 147.327 36.5144 146.694 36.7569 145.588C36.9994 144.483 37.0903 142.995 37.0095 141.454C36.9695 140.691 36.8886 139.937 36.7713 139.236C36.6541 138.535 36.5028 137.901 36.3261 137.369C36.1495 136.837 35.951 136.418 35.7418 136.136C35.5326 135.854 35.317 135.715 35.1071 135.726C34.6834 135.748 34.3091 136.382 34.0666 137.487C33.824 138.593 33.7332 140.08 33.8139 141.621C33.8539 142.385 33.9348 143.138 34.0521 143.839C34.1693 144.54 34.3206 145.175 34.4973 145.707C34.6739 146.239 34.8725 146.657 35.0817 146.939C35.2909 147.221 35.5065 147.361 35.7163 147.35Z" stroke="#A13C26" stroke-width="2"/>
<path d="M137.797 143.291C137.716 142.921 137.492 142.597 137.174 142.392C136.855 142.186 136.467 142.116 136.097 142.196L135.979 142.221C135.609 142.301 135.285 142.526 135.08 142.844C134.874 143.163 134.804 143.55 134.884 143.921L137.289 155.044C137.369 155.415 137.593 155.739 137.912 155.944C138.231 156.149 138.618 156.22 138.989 156.14L139.106 156.114C139.477 156.034 139.8 155.81 140.006 155.491C140.211 155.172 140.282 154.785 140.201 154.414L137.797 143.291Z" stroke="#AB3E24" stroke-width="2"/>
<path d="M63.9717 161.288C64.8984 161.874 65.6384 162.024 66.1917 161.738C66.3101 161.678 66.4077 161.57 66.4719 161.428C66.5361 161.285 66.5639 161.114 66.5517 160.938C66.3517 158.011 65.8784 155.118 65.1318 152.258C64.4618 149.668 62.9717 151.478 62.8517 152.948C62.6317 155.594 62.815 158.111 63.4017 160.498C63.4856 160.82 63.6887 161.101 63.9717 161.288Z" stroke="#A13C26" stroke-width="2"/>
<path d="M102.113 157.427C102.076 157.116 101.917 156.833 101.671 156.639C101.425 156.445 101.113 156.357 100.802 156.395L99.8685 156.506C99.5577 156.543 99.2744 156.702 99.0808 156.948C98.8873 157.194 98.7994 157.507 98.8364 157.817L99.6534 164.669C99.6905 164.98 99.8495 165.263 100.095 165.456C100.341 165.65 100.654 165.738 100.965 165.701L101.898 165.589C102.209 165.552 102.492 165.393 102.686 165.147C102.879 164.902 102.967 164.589 102.93 164.278L102.113 157.427Z" stroke="#A13C26" stroke-width="2"/>
<path d="M121.656 164.479C121.611 164.164 121.442 163.88 121.187 163.689C120.932 163.499 120.612 163.417 120.297 163.462L120.099 163.491C119.943 163.513 119.793 163.566 119.658 163.647C119.522 163.727 119.404 163.834 119.309 163.96C119.215 164.086 119.146 164.23 119.107 164.382C119.069 164.535 119.06 164.694 119.083 164.85L120.671 175.876C120.717 176.191 120.886 176.475 121.14 176.666C121.395 176.856 121.715 176.938 122.03 176.892L122.228 176.864C122.384 176.841 122.534 176.789 122.67 176.708C122.805 176.628 122.924 176.521 123.018 176.395C123.113 176.269 123.181 176.125 123.22 175.973C123.259 175.82 123.267 175.661 123.245 175.505L121.656 164.479Z" stroke="#AB3E24" stroke-width="2"/>
<path d="M47.5966 176.165C47.7692 176.149 47.9271 175.99 48.0613 175.697C48.1954 175.404 48.3031 174.982 48.3783 174.456C48.4535 173.929 48.4947 173.309 48.4995 172.63C48.5043 171.951 48.4727 171.227 48.4064 170.498C48.3401 169.77 48.2405 169.051 48.1131 168.384C47.9858 167.717 47.8334 167.115 47.6644 166.611C47.4955 166.107 47.3133 165.711 47.1285 165.447C46.9436 165.183 46.7597 165.055 46.587 165.071C46.4144 165.086 46.2565 165.245 46.1224 165.539C45.9882 165.832 45.8805 166.254 45.8053 166.78C45.7301 167.306 45.6889 167.926 45.6841 168.605C45.6793 169.284 45.7109 170.009 45.7772 170.737C45.8435 171.466 45.9432 172.184 46.0705 172.851C46.1978 173.518 46.3503 174.121 46.5192 174.625C46.6882 175.129 46.8702 175.524 47.0551 175.788C47.24 176.053 47.424 176.181 47.5966 176.165Z" stroke="#9B3C28" stroke-width="2"/>
<path d="M82.8798 179.989C83.1128 179.941 83.3181 179.77 83.4841 179.485C83.6501 179.199 83.7735 178.805 83.8473 178.325C83.9211 177.844 83.9438 177.287 83.9142 176.685C83.8846 176.083 83.8032 175.448 83.6746 174.817C83.5461 174.185 83.3729 173.568 83.165 173.003C82.9571 172.437 82.7185 171.933 82.4629 171.52C82.2073 171.107 81.9397 170.792 81.6753 170.594C81.4109 170.396 81.1549 170.319 80.922 170.366C80.6891 170.413 80.4838 170.585 80.3178 170.87C80.1518 171.156 80.0284 171.55 79.9546 172.03C79.8807 172.511 79.858 173.068 79.8876 173.67C79.9172 174.271 79.9987 174.907 80.1272 175.538C80.2558 176.17 80.429 176.787 80.6369 177.352C80.8448 177.918 81.0833 178.422 81.3389 178.835C81.5946 179.248 81.8622 179.563 82.1265 179.761C82.3909 179.959 82.6469 180.036 82.8798 179.989Z" stroke="#A13C26" stroke-width="2"/>
<path d="M16.2432 150.028C24.6932 139.598 32.4732 128.798 41.1832 118.718C46.7432 112.268 49.1332 106.808 44.6532 99.2078C40.2832 91.8078 34.0432 82.8278 29.1832 73.9778C24.1732 64.8478 19.9232 55.5878 14.4232 46.6778C14.4565 45.6978 14.0532 44.9611 13.2132 44.4678L8.21319 34.9678C4.89319 29.2478 9.94319 29.7778 12.9632 30.9778C22.3432 34.6978 31.4232 38.6478 41.1232 41.8478C55.9099 46.7278 68.6532 51.5344 79.3532 56.2678C88.2732 60.2178 94.2132 58.8178 101.233 52.5278C122.203 33.7278 145.203 16.0578 169.473 1.74779C172.013 0.247787 173.347 1.00444 173.473 4.01778C174.573 29.9444 175.667 55.8645 176.753 81.7778C178.513 123.768 168.943 172.388 121.583 184.688C108.09 188.201 94.3732 188.744 80.4332 186.318C72.9832 185.028 66.2232 184.848 59.1332 183.828C44.0999 181.654 29.0432 179.668 13.9632 177.868C9.94319 177.388 6.59319 176.378 3.21319 174.698C1.31319 173.751 0.636553 172.251 1.18322 170.198C2.89322 163.788 11.9032 155.318 16.2432 150.028ZM147.273 66.1897C149.028 66.5563 150.903 65.99 152.485 64.6155C154.068 63.2409 155.228 61.1707 155.71 58.8602C156.193 56.5496 155.959 54.1881 155.059 52.2951C154.16 50.402 152.668 49.1325 150.913 48.7659C149.158 48.3993 147.283 48.9655 145.701 50.3401C144.119 51.7146 142.959 53.7849 142.476 56.0954C141.993 58.4059 142.228 60.7675 143.127 62.6605C144.027 64.5536 145.518 65.823 147.273 66.1897ZM57.7387 74.9082C58.2971 74.6101 58.7766 74.1775 59.15 73.6352C59.5234 73.0929 59.7833 72.4514 59.9148 71.7475C60.0463 71.0435 60.0469 70.2909 59.9166 69.5325C59.7862 68.7741 59.5274 68.0249 59.1551 67.3275C58.7827 66.6301 58.304 65.9983 57.7463 65.4681C57.1886 64.9379 56.5628 64.5197 55.9047 64.2374C55.2466 63.9551 54.5691 63.8142 53.9107 63.8228C53.2523 63.8314 52.626 63.9893 52.0677 64.2874C51.5093 64.5855 51.0298 65.0181 50.6564 65.5604C50.2831 66.1027 50.0232 66.7442 49.8917 67.4481C49.7601 68.152 49.7595 68.9047 49.8899 69.6631C50.0202 70.4215 50.2789 71.1707 50.6513 71.8681C51.0237 72.5655 51.5024 73.1973 52.0601 73.7275C52.6177 74.2577 53.2435 74.6759 53.9017 74.9582C54.5598 75.2405 55.2374 75.3814 55.8957 75.3728C56.5541 75.3642 57.1803 75.2063 57.7387 74.9082ZM141.533 80.4478C142.513 81.1611 143.603 81.5778 144.803 81.6978C151.013 82.3378 155.173 75.8778 151.253 71.1478C151.141 71.0104 151.008 70.8995 150.864 70.8233C150.721 70.7471 150.57 70.7076 150.423 70.7078L148.923 70.7178C148.811 70.717 148.692 70.7938 148.588 70.9348C148.484 71.0757 148.401 71.2716 148.353 71.4878C148.16 72.3611 147.997 73.2511 147.863 74.1578C146.823 81.1778 141.343 76.9478 139.003 74.0278C138.884 73.8806 138.752 73.7594 138.615 73.6729C138.478 73.5864 138.341 73.5369 138.213 73.5278C137.593 73.4878 137.377 73.9678 137.563 74.9678C137.937 76.9678 139.26 78.7945 141.533 80.4478ZM69.4332 79.9378C70.5732 80.7711 71.5065 80.8411 72.2332 80.1478C73.8032 78.6378 71.9032 75.1378 70.8832 73.7478C69.7032 72.1478 68.8432 72.3011 68.3032 74.2078C67.5299 76.9144 67.9066 78.8245 69.4332 79.9378ZM59.3021 86.4578C59.8186 86.363 60.2445 85.8939 60.4862 85.1536C60.7279 84.4133 60.7654 83.4625 60.5907 82.5104C60.5042 82.0389 60.3681 81.5813 60.1903 81.1637C60.0125 80.7461 59.7964 80.3767 59.5544 80.0765C59.3123 79.7763 59.0491 79.5513 58.7797 79.4143C58.5103 79.2772 58.2401 79.2308 57.9843 79.2778C57.4678 79.3726 57.0419 79.8417 56.8002 80.582C56.5586 81.3223 56.521 82.273 56.6957 83.2252C56.7823 83.6966 56.9183 84.1543 57.0961 84.5719C57.2739 84.9895 57.49 85.3589 57.732 85.6591C57.9741 85.9593 58.2373 86.1843 58.5067 86.3213C58.7761 86.4584 59.0464 86.5047 59.3021 86.4578ZM134.173 105.008C131.743 105.238 122.143 105.588 121.133 107.718C120.16 107.284 119.257 107.381 118.423 108.008L107.673 109.008C105.84 108.234 104.007 108.234 102.173 109.008C96.6999 107.528 91.1932 107.251 85.6532 108.178C84.2132 108.418 82.5732 109.278 80.7232 109.258C80.5567 109.255 80.3958 109.289 80.257 109.357C80.1181 109.426 80.0065 109.526 79.9332 109.648C79.2832 110.678 79.2932 111.618 79.9232 112.748C85.4099 122.554 93.1832 129.928 103.243 134.868C106.523 136.478 113.313 137.998 116.803 137.108C129.823 133.778 139.793 122.028 140.103 108.548C140.104 108.492 140.092 108.436 140.067 108.385C140.042 108.334 140.006 108.288 139.96 108.25C139.913 108.212 139.859 108.184 139.799 108.166C139.739 108.148 139.676 108.142 139.613 108.148C138.947 108.214 138.37 107.988 137.883 107.468C137.963 104.354 136.727 103.534 134.173 105.008ZM56.5786 122.24C56.5422 122.061 56.471 121.891 56.3689 121.74C56.2668 121.588 56.1359 121.459 55.9837 121.358C55.8315 121.257 55.6609 121.187 55.4817 121.152C55.3026 121.118 55.1183 121.118 54.9394 121.155L54.8218 121.179C54.4606 121.252 54.1433 121.466 53.9399 121.774C53.7364 122.081 53.6634 122.457 53.7369 122.818L55.3478 130.736C55.3842 130.915 55.4555 131.085 55.5575 131.236C55.6596 131.387 55.7905 131.517 55.9427 131.618C56.0949 131.719 56.2655 131.788 56.4447 131.823C56.6239 131.858 56.8081 131.857 56.987 131.821L57.1046 131.797C57.4658 131.723 57.7831 131.509 57.9866 131.202C58.19 130.894 58.263 130.519 58.1895 130.158L56.5786 122.24ZM156.914 133.731C157.277 133.666 157.534 133.099 157.629 132.156C157.724 131.213 157.649 129.97 157.421 128.702C157.193 127.433 156.83 126.242 156.412 125.392C155.994 124.541 155.555 124.099 155.193 124.165C154.83 124.23 154.572 124.796 154.477 125.74C154.382 126.683 154.457 127.925 154.685 129.194C154.913 130.462 155.276 131.653 155.694 132.504C156.112 133.355 156.551 133.796 156.914 133.731ZM35.7178 147.35C36.1416 147.328 36.5159 146.694 36.7584 145.588C37.0009 144.483 37.0918 142.996 37.011 141.454C36.971 140.691 36.8901 139.937 36.7728 139.236C36.6556 138.535 36.5043 137.901 36.3276 137.369C36.151 136.837 35.9524 136.418 35.7433 136.136C35.5341 135.854 35.3185 135.715 35.1086 135.726C34.6849 135.748 34.3106 136.382 34.068 137.487C33.8255 138.593 33.7346 140.08 33.8154 141.621C33.8554 142.385 33.9363 143.138 34.0536 143.839C34.1708 144.54 34.3221 145.175 34.4988 145.707C34.6754 146.239 34.874 146.657 35.0832 146.939C35.2923 147.221 35.508 147.361 35.7178 147.35ZM137.797 143.291C137.717 142.921 137.493 142.597 137.174 142.392C136.855 142.186 136.468 142.116 136.097 142.196L135.98 142.221C135.609 142.301 135.286 142.526 135.08 142.844C134.875 143.163 134.804 143.55 134.884 143.921L137.289 155.044C137.369 155.415 137.594 155.739 137.912 155.944C138.231 156.149 138.618 156.22 138.989 156.14L139.106 156.114C139.477 156.034 139.801 155.81 140.006 155.491C140.212 155.172 140.282 154.785 140.202 154.414L137.797 143.291ZM63.9732 161.288C64.8999 161.874 65.6399 162.024 66.1932 161.738C66.3116 161.678 66.4092 161.57 66.4734 161.428C66.5376 161.285 66.5654 161.114 66.5532 160.938C66.3532 158.011 65.8799 155.118 65.1332 152.258C64.4632 149.668 62.9732 151.478 62.8532 152.948C62.6332 155.594 62.8165 158.111 63.4032 160.498C63.4871 160.82 63.6901 161.101 63.9732 161.288ZM102.113 157.427C102.076 157.116 101.917 156.833 101.671 156.639C101.425 156.446 101.112 156.358 100.802 156.395L99.8683 156.506C99.5576 156.543 99.2742 156.702 99.0807 156.948C98.8871 157.194 98.7992 157.507 98.8363 157.817L99.6533 164.669C99.6904 164.98 99.8493 165.263 100.095 165.456C100.341 165.65 100.654 165.738 100.965 165.701L101.898 165.59C102.209 165.553 102.492 165.394 102.686 165.148C102.879 164.902 102.967 164.589 102.93 164.278L102.113 157.427ZM121.656 164.479C121.61 164.164 121.441 163.88 121.187 163.69C120.932 163.499 120.612 163.417 120.297 163.463L120.099 163.491C119.943 163.514 119.793 163.567 119.657 163.647C119.522 163.728 119.403 163.834 119.309 163.96C119.214 164.086 119.146 164.23 119.107 164.383C119.068 164.535 119.06 164.694 119.082 164.85L120.671 175.876C120.716 176.191 120.885 176.475 121.14 176.666C121.395 176.857 121.715 176.938 122.03 176.893L122.228 176.864C122.384 176.842 122.534 176.789 122.669 176.708C122.805 176.628 122.923 176.522 123.018 176.395C123.112 176.269 123.181 176.126 123.219 175.973C123.258 175.82 123.267 175.661 123.244 175.505L121.656 164.479ZM47.598 176.165C47.7707 176.149 47.9285 175.99 48.0627 175.697C48.1968 175.404 48.3046 174.982 48.3798 174.456C48.455 173.93 48.4961 173.309 48.5009 172.63C48.5057 171.951 48.4741 171.227 48.4078 170.498C48.3415 169.77 48.2419 169.051 48.1146 168.384C47.9872 167.717 47.8348 167.115 47.6658 166.611C47.4969 166.107 47.3147 165.711 47.1299 165.447C46.945 165.183 46.7611 165.055 46.5884 165.071C46.4158 165.086 46.2579 165.245 46.1238 165.539C45.9896 165.832 45.8819 166.254 45.8067 166.78C45.7315 167.306 45.6903 167.926 45.6855 168.605C45.6807 169.285 45.7123 170.009 45.7786 170.737C45.8449 171.466 45.9446 172.184 46.0719 172.851C46.1992 173.518 46.3517 174.121 46.5206 174.625C46.6896 175.129 46.8717 175.524 47.0565 175.788C47.2414 176.053 47.4254 176.181 47.598 176.165ZM82.8821 179.989C83.1151 179.942 83.3204 179.77 83.4864 179.485C83.6524 179.199 83.7758 178.805 83.8496 178.325C83.9234 177.845 83.9461 177.288 83.9165 176.686C83.8869 176.084 83.8055 175.449 83.6769 174.817C83.5484 174.185 83.3752 173.569 83.1673 173.003C82.9594 172.437 82.7208 171.934 82.4652 171.52C82.2096 171.107 81.942 170.792 81.6776 170.594C81.4132 170.396 81.1572 170.319 80.9243 170.366C80.6914 170.414 80.4861 170.585 80.3201 170.871C80.1541 171.156 80.0306 171.55 79.9568 172.031C79.883 172.511 79.8603 173.068 79.8899 173.67C79.9195 174.272 80.001 174.907 80.1295 175.539C80.2581 176.171 80.4312 176.787 80.6392 177.352C80.8471 177.918 81.0856 178.422 81.3412 178.835C81.5968 179.248 81.8644 179.563 82.1288 179.761C82.3932 179.959 82.6492 180.037 82.8821 179.989Z" fill="#FC6139"/>
<path d="M8.21094 34.9678L13.2109 44.4678C13.2043 45.4544 13.6076 46.1911 14.421 46.6778C19.921 55.5878 24.171 64.8478 29.181 73.9778C34.041 82.8278 40.2809 91.8078 44.6509 99.2078C49.1309 106.808 46.741 112.268 41.181 118.718C32.471 128.798 24.691 139.598 16.241 150.028C16.481 145.974 18.0276 142.524 20.881 139.678C23.0943 137.478 25.1043 135.114 26.9109 132.588C28.2209 130.758 28.601 127.988 30.991 126.238C31.251 126.051 31.4743 125.794 31.6609 125.468C32.4609 124.094 33.551 123.098 34.931 122.478C35.0743 122.413 35.198 122.33 35.2856 122.238C35.3732 122.147 35.4204 122.053 35.421 121.968V121.718C35.421 121.666 35.442 121.606 35.4822 121.545C35.5224 121.484 35.5805 121.423 35.6509 121.368C37.8243 119.561 39.6443 117.454 41.111 115.048C42.391 112.958 45.371 111.168 45.121 108.298C44.461 100.948 40.9309 97.6878 37.5209 92.0278C32.8909 84.3578 28.0209 76.8278 24.2709 68.6378C22.6976 65.2045 21.1143 61.7744 19.5209 58.3478C19.2609 57.7811 18.5376 56.6111 17.351 54.8378C16.261 53.2078 15.861 51.3278 14.881 49.7878C13.5543 47.7011 12.3343 45.5478 11.2209 43.3278C11.1776 43.2373 11.1139 43.1572 11.0344 43.0933C10.9549 43.0293 10.8616 42.9831 10.761 42.9578L10.611 42.9278C10.5431 42.9095 10.4822 42.8763 10.4412 42.8353C10.4001 42.7942 10.382 42.7485 10.3909 42.7078C10.6309 41.8544 10.371 41.3011 9.61096 41.0478C9.47361 41.0032 9.34713 40.9005 9.24622 40.7518C9.1453 40.6031 9.07409 40.4144 9.04095 40.2078L8.21094 34.9678Z" fill="#F4EBD3"/>
<path d="M13.211 44.4678C14.051 44.9611 14.4544 45.6978 14.421 46.6778C13.6077 46.1911 13.2044 45.4544 13.211 44.4678Z" fill="#F4D39A"/>
<path d="M142.473 56.0956C141.468 60.907 143.616 65.4264 147.27 66.1899C150.925 66.9534 154.702 63.6718 155.707 58.8604C156.712 54.0489 154.565 49.5295 150.91 48.766C147.256 48.0026 143.478 51.2841 142.473 56.0956Z" fill="white"/>
<path d="M50.6482 71.868C52.2142 74.8009 55.3873 76.162 57.7355 74.9082C60.0838 73.6543 60.7179 70.2603 59.1519 67.3275C57.5859 64.3946 54.4128 63.0335 52.0646 64.2874C49.7163 65.5412 49.0822 68.9352 50.6482 71.868Z" fill="#FBF7F3"/>
<path d="M141.531 80.448C139.258 78.7947 137.934 76.968 137.561 74.968C137.374 73.968 137.591 73.488 138.211 73.528C138.339 73.5371 138.476 73.5867 138.613 73.6731C138.749 73.7596 138.882 73.8808 139.001 74.028C141.341 76.948 146.821 81.178 147.861 74.158C147.994 73.2514 148.158 72.3613 148.351 71.488C148.398 71.2718 148.481 71.0759 148.586 70.935C148.69 70.7941 148.809 70.7172 148.921 70.718L150.421 70.708C150.567 70.7078 150.718 70.7473 150.862 70.8235C151.006 70.8997 151.139 71.0107 151.251 71.148C155.171 75.878 151.011 82.338 144.801 81.698C143.601 81.578 142.511 81.1614 141.531 80.448Z" fill="#461612"/>
<path d="M69.4302 79.9379C67.9035 78.8246 67.5269 76.9146 68.3002 74.2079C68.8402 72.3012 69.7002 72.1479 70.8802 73.7479C71.9002 75.1379 73.8002 78.6379 72.2302 80.1479C71.5035 80.8412 70.5702 80.7712 69.4302 79.9379Z" fill="#461612"/>
<path d="M56.6936 83.2253C57.0575 85.208 58.2244 86.6553 59.3 86.4579C60.3756 86.2605 60.9525 84.4932 60.5886 82.5104C60.2247 80.5277 59.0578 79.0804 57.9822 79.2778C56.9067 79.4752 56.3297 81.2426 56.6936 83.2253Z" fill="#591A0F"/>
<path d="M137.882 107.468C136.802 118.068 131.775 126.124 122.802 131.638C107.252 141.188 88.7416 123.908 81.9916 110.978C81.9589 110.916 81.9378 110.848 81.9296 110.78C81.9215 110.711 81.9264 110.642 81.944 110.577C81.9617 110.512 81.9918 110.452 82.0326 110.4C82.0734 110.349 82.124 110.307 82.1816 110.278C82.8483 109.924 83.5016 109.888 84.1416 110.168C88.6816 115.478 92.4517 121.248 98.2617 125.078C98.3748 125.151 98.5048 125.193 98.6392 125.201C98.7736 125.209 98.9078 125.182 99.0286 125.122C99.1494 125.063 99.2527 124.973 99.3286 124.862C99.4045 124.751 99.4503 124.622 99.4616 124.488C99.8283 119.408 100.648 114.414 101.922 109.508L102.172 109.008C104.005 108.234 105.838 108.234 107.672 109.008C108.078 115.141 108.502 121.278 108.942 127.418C109.402 133.738 117.302 131.048 119.642 128.148C119.736 128.028 119.804 127.886 119.84 127.731C119.876 127.576 119.88 127.411 119.852 127.248C118.712 120.861 118.235 114.448 118.422 108.008C119.255 107.381 120.158 107.284 121.132 107.718C124.372 110.918 125.292 116.928 126.542 121.208C126.557 121.26 126.585 121.307 126.623 121.345C126.661 121.383 126.708 121.411 126.76 121.426C126.812 121.441 126.867 121.443 126.92 121.431C126.972 121.419 127.021 121.394 127.062 121.358C132.102 116.768 132.512 112.758 134.172 105.008C136.725 103.534 137.962 104.354 137.882 107.468Z" fill="#231F28"/>
<path d="M134.173 105.008C132.513 112.758 132.103 116.768 127.063 121.358C127.022 121.394 126.974 121.419 126.921 121.431C126.868 121.443 126.813 121.441 126.761 121.426C126.709 121.411 126.662 121.383 126.624 121.345C126.586 121.307 126.558 121.26 126.543 121.208C125.293 116.928 124.373 110.918 121.133 107.718C122.143 105.588 131.743 105.238 134.173 105.008Z" fill="#FBF7F3"/>
<path d="M102.17 109.008L101.92 109.508C96.4503 110.628 90.3903 109.438 84.1403 110.168C83.5003 109.888 82.847 109.924 82.1803 110.278C82.1227 110.307 82.072 110.349 82.0313 110.4C81.9905 110.452 81.9604 110.512 81.9427 110.577C81.925 110.642 81.9201 110.711 81.9283 110.78C81.9365 110.848 81.9576 110.916 81.9903 110.978C88.7403 123.908 107.25 141.188 122.8 131.638C131.774 126.124 136.8 118.068 137.88 107.468C138.367 107.988 138.944 108.214 139.61 108.148C139.673 108.142 139.736 108.148 139.796 108.166C139.856 108.184 139.91 108.212 139.957 108.25C140.003 108.288 140.039 108.334 140.064 108.385C140.089 108.436 140.101 108.492 140.1 108.548C139.79 122.028 129.82 133.778 116.8 137.108C113.31 137.998 106.52 136.478 103.24 134.868C93.1803 129.928 85.407 122.554 79.9203 112.748C79.2903 111.618 79.2803 110.678 79.9303 109.648C80.0036 109.526 80.1152 109.426 80.254 109.357C80.3928 109.289 80.5538 109.255 80.7203 109.258C82.5703 109.278 84.2103 108.418 85.6503 108.178C91.1903 107.251 96.697 107.528 102.17 109.008Z" fill="#E66B4E"/>
<path d="M118.422 108.008C118.235 114.448 118.712 120.861 119.852 127.248C119.88 127.411 119.876 127.576 119.84 127.731C119.804 127.886 119.736 128.028 119.642 128.148C117.302 131.048 109.402 133.738 108.942 127.418C108.502 121.278 108.079 115.141 107.672 109.008L118.422 108.008Z" fill="white"/>
<path d="M101.921 109.508C100.647 114.414 99.8273 119.408 99.4606 124.488C99.4493 124.622 99.4035 124.751 99.3276 124.862C99.2517 124.973 99.1484 125.063 99.0276 125.122C98.9068 125.182 98.7726 125.209 98.6382 125.201C98.5039 125.193 98.3738 125.151 98.2607 125.078C92.4507 121.248 88.6806 115.478 84.1406 110.168C90.3906 109.438 96.4507 110.628 101.921 109.508Z" fill="#FBF7F3"/>
<path d="M54.9367 121.155L54.8191 121.179C54.0669 121.332 53.5811 122.066 53.7342 122.818L55.345 130.736C55.4981 131.488 56.232 131.974 56.9843 131.821L57.1019 131.797C57.8541 131.644 58.3399 130.91 58.1868 130.158L56.5759 122.24C56.4229 121.488 55.689 121.002 54.9367 121.155Z" fill="#591A0F"/>
<path d="M154.683 129.194C155.158 131.836 156.156 133.867 156.912 133.731C157.667 133.595 157.895 131.343 157.419 128.702C156.944 126.06 155.946 124.029 155.191 124.165C154.435 124.301 154.208 126.552 154.683 129.194Z" fill="#4E0F0C"/>
<path d="M33.8121 141.622C33.9803 144.831 34.8321 147.396 35.7145 147.35C36.597 147.304 37.1759 144.664 37.0077 141.454C36.8395 138.244 35.9878 135.68 35.1053 135.726C34.2229 135.772 33.6439 138.412 33.8121 141.622Z" fill="#461612"/>
<path d="M136.097 142.196L135.98 142.221C135.208 142.388 134.717 143.149 134.884 143.921L137.289 155.044C137.456 155.816 138.217 156.307 138.989 156.14L139.106 156.114C139.878 155.947 140.369 155.186 140.202 154.414L137.797 143.291C137.63 142.519 136.869 142.029 136.097 142.196Z" fill="#591A0F"/>
<path d="M63.9717 161.288C63.6887 161.101 63.4856 160.82 63.4017 160.498C62.815 158.111 62.6317 155.594 62.8517 152.948C62.9717 151.478 64.4618 149.668 65.1318 152.258C65.8784 155.118 66.3517 158.011 66.5517 160.938C66.5639 161.114 66.5361 161.285 66.4719 161.428C66.4077 161.57 66.3101 161.678 66.1917 161.738C65.6384 162.024 64.8984 161.874 63.9717 161.288Z" fill="#461612"/>
<path d="M100.8 156.394L99.867 156.506C99.2199 156.583 98.7579 157.17 98.835 157.817L99.652 164.669C99.7292 165.316 100.316 165.778 100.963 165.701L101.897 165.589C102.544 165.512 103.006 164.925 102.929 164.278L102.112 157.426C102.035 156.779 101.448 156.317 100.8 156.394Z" fill="#461612"/>
<path d="M120.296 163.463L120.098 163.491C119.442 163.586 118.987 164.194 119.081 164.85L120.67 175.876C120.765 176.532 121.373 176.988 122.029 176.893L122.227 176.864C122.883 176.77 123.338 176.162 123.244 175.506L121.655 164.479C121.56 163.824 120.952 163.368 120.296 163.463Z" fill="#591A0F"/>
<path d="M45.778 170.738C46.0568 173.801 46.8714 176.231 47.5974 176.165C48.3234 176.099 48.686 173.562 48.4072 170.498C48.1284 167.435 47.3138 165.005 46.5878 165.071C45.8618 165.137 45.4992 167.674 45.778 170.738Z" fill="#391717"/>
<path d="M80.1269 175.539C80.6675 178.196 81.8999 180.188 82.8794 179.989C83.859 179.79 84.2148 177.474 83.6742 174.817C83.1336 172.16 81.9012 170.167 80.9216 170.366C79.9421 170.566 79.5863 172.881 80.1269 175.539Z" fill="#461612"/>
</svg>
