<svg width="58" height="180" viewBox="0 0 58 180" fill="none" xmlns="http://www.w3.org/2000/svg">
<path d="M16.7148 48.5186L18.2048 62.5186" stroke="#F8B8A3" stroke-width="2"/>
<path d="M18.2074 62.5186L19.6674 110.549C19.7274 112.495 20.6674 113.589 22.4874 113.829L29.5674 114.749C29.681 114.762 29.7845 114.833 29.8569 114.949C29.9293 115.064 29.9653 115.214 29.9574 115.369C29.8307 117.289 29.5441 118.815 29.0974 119.949C23.2774 134.709 17.7907 149.595 12.6374 164.609C11.5774 167.699 9.16741 168.439 12.4574 171.539C15.1174 174.039 17.9274 176.352 20.8874 178.479C21.1268 178.653 21.4576 178.748 21.8274 178.749C23.3807 178.735 24.5841 178.095 25.4374 176.829C25.519 176.708 25.5566 176.54 25.546 176.343C25.5355 176.145 25.4771 175.926 25.3774 175.709C23.8841 172.489 22.0407 169.492 19.8474 166.719C19.7418 166.582 19.6687 166.425 19.634 166.26C19.5993 166.095 19.6039 165.927 19.6474 165.769C19.9741 164.622 20.5374 163.109 21.3374 161.229C27.8174 145.949 35.2174 130.499 39.7274 114.499C39.7668 114.36 39.8451 114.234 39.9542 114.133C40.0633 114.033 40.1991 113.962 40.3474 113.929C42.1874 113.522 43.1074 112.289 43.1074 110.229C43.1074 97.6185 42.1274 85.0785 42.1774 72.4985C42.1907 69.1519 42.0941 65.8252 41.8874 62.5186" stroke="#8E9094" stroke-width="2"/>
<path d="M41.8867 62.5185L42.2867 47.2285" stroke="#F8B8A3" stroke-width="2"/>
<path d="M42.2864 47.2285C44.2398 46.3485 45.3731 47.0985 45.6864 49.4785C48.0531 67.6585 49.6198 86.6118 50.3864 106.338C50.4531 107.978 51.0564 108.675 52.1964 108.428C53.6698 108.115 54.9464 107.542 56.0264 106.708C56.093 106.652 56.161 106.527 56.2227 106.347C56.2845 106.167 56.3377 105.939 56.3764 105.688C57.1164 100.888 56.5464 94.9785 56.5664 91.5885C56.7164 72.8385 58.2464 55.3985 52.8764 40.7285C49.7064 32.0885 42.3464 29.9285 33.3764 29.0585C32.6564 28.9885 31.3964 28.3485 32.1664 27.5185C32.3452 27.3261 32.661 27.1898 33.0464 27.1385C41.3264 26.0685 44.8664 16.7285 42.6164 9.47847C38.2964 -4.47153 19.3964 -0.0315361 19.7964 14.2485C19.9498 19.6085 22.4831 23.6718 27.3964 26.4385C27.9664 26.7585 29.9364 29.0085 27.1864 28.5885C12.6264 26.3385 -0.403552 33.9585 1.12645 50.4285C3.13978 72.2018 4.47978 87.9885 5.14645 97.7885C5.36645 101.168 5.12645 106.288 5.79645 110.518C5.98978 111.785 6.72311 112.485 7.99645 112.618C11.5664 112.998 13.1264 111.698 13.3364 108.058C14.1164 94.2585 14.6264 79.6185 12.4664 65.9385C11.2164 58.0285 8.65645 50.1685 12.1164 42.0985C12.2564 41.7651 12.4198 41.7451 12.6064 42.0385L16.7164 48.5185" stroke="#8E9094" stroke-width="2"/>
<path d="M42.2848 47.2285C33.9648 49.6352 25.4415 50.0652 16.7148 48.5185" stroke="#874937" stroke-width="2"/>
<path d="M41.887 62.5187C34.0004 61.3453 26.107 61.3453 18.207 62.5187" stroke="#874937" stroke-width="2"/>
<path d="M42.2825 47.2295C33.9625 49.6361 25.4392 50.0661 16.7125 48.5195L12.6025 42.0394C12.4159 41.7461 12.2525 41.7661 12.1125 42.0994C8.65254 50.1694 11.2125 58.0294 12.4625 65.9394C14.6225 79.6194 14.1125 94.2594 13.3325 108.059C13.1225 111.699 11.5625 112.999 7.99254 112.619C6.71921 112.486 5.98587 111.786 5.79254 110.519C5.12254 106.289 5.36254 101.169 5.14254 97.7895C4.47587 87.9894 3.13588 72.2028 1.12254 50.4295C-0.407458 33.9595 12.6225 26.3394 27.1825 28.5894C29.9325 29.0094 27.9625 26.7594 27.3925 26.4394C22.4792 23.6728 19.9459 19.6094 19.7925 14.2494C19.3925 -0.0305595 38.2925 -4.47055 42.6125 9.47945C44.8625 16.7295 41.3225 26.0695 33.0425 27.1395C32.6571 27.1907 32.3413 27.3271 32.1625 27.5195C31.3925 28.3495 32.6525 28.9894 33.3725 29.0594C42.3425 29.9294 49.7025 32.0895 52.8725 40.7295C58.2425 55.3995 56.7125 72.8394 56.5625 91.5894C56.5425 94.9794 57.1125 100.889 56.3725 105.689C56.3338 105.94 56.2806 106.168 56.2188 106.348C56.1571 106.528 56.0891 106.653 56.0225 106.709C54.9425 107.543 53.6659 108.116 52.1925 108.429C51.0525 108.676 50.4492 107.979 50.3825 106.339C49.6159 86.6128 48.0492 67.6595 45.6825 49.4795C45.3692 47.0994 44.2359 46.3494 42.2825 47.2295Z" fill="#1D2128"/>
<path d="M42.2848 47.2285L41.8848 62.5185C33.9982 61.3452 26.1048 61.3452 18.2048 62.5185L16.7148 48.5185C25.4415 50.0652 33.9648 49.6352 42.2848 47.2285Z" fill="#F17046"/>
<path d="M41.8835 62.5187C42.0902 65.8253 42.1868 69.152 42.1735 72.4987C42.1235 85.0787 43.1035 97.6187 43.1035 110.229C43.1035 112.289 42.1835 113.522 40.3435 113.929C40.1952 113.962 40.0594 114.033 39.9503 114.133C39.8412 114.234 39.7629 114.36 39.7235 114.499C35.2135 130.499 27.8135 145.949 21.3335 161.229C20.5335 163.109 19.9702 164.622 19.6435 165.769C19.6 165.927 19.5954 166.095 19.6301 166.26C19.6648 166.425 19.7379 166.582 19.8435 166.719C22.0368 169.492 23.8802 172.489 25.3735 175.709C25.4732 175.926 25.5316 176.145 25.5421 176.343C25.5527 176.54 25.5151 176.708 25.4335 176.829C24.5802 178.095 23.3768 178.735 21.8235 178.749C21.4537 178.749 21.1229 178.654 20.8835 178.479C17.9235 176.352 15.1135 174.039 12.4535 171.539C9.16351 168.439 11.5735 167.699 12.6335 164.609C17.7868 149.595 23.2735 134.709 29.0935 119.949C29.5402 118.815 29.8268 117.289 29.9535 115.369C29.9614 115.214 29.9254 115.064 29.853 114.949C29.7806 114.833 29.6771 114.762 29.5635 114.749L22.4835 113.829C20.6635 113.589 19.7235 112.495 19.6635 110.549L18.2035 62.5187C26.1035 61.3453 33.9968 61.3453 41.8835 62.5187Z" fill="#1D2128"/>
</svg>
