<svg width="16" height="20" viewBox="0 0 16 20" fill="none" xmlns="http://www.w3.org/2000/svg">
<path d="M2.15401 2.78883C0.37401 4.06883 0.984007 8.89883 2.71401 10.0688C2.91965 10.2079 3.07169 10.4121 3.14455 10.647C3.21741 10.882 3.20659 11.1334 3.11397 11.3588L1.07399 16.3488C1.01291 16.4942 0.988698 16.6465 1.0049 16.7833C1.0211 16.9202 1.07683 17.0343 1.16396 17.1088C1.90396 17.7688 4.85397 14.0188 5.42397 13.3988C5.48432 13.3333 5.55894 13.2826 5.64217 13.2505C5.7254 13.2184 5.81509 13.2057 5.90456 13.2134C5.99403 13.2211 6.08094 13.249 6.15877 13.2949C6.2366 13.3409 6.30332 13.4038 6.35396 13.4788C7.16063 14.6855 8.01068 15.9022 8.90401 17.1288C10.594 19.4188 10.964 16.9988 10.474 15.7688C9.33396 12.9555 10.2407 11.4588 13.194 11.2788C13.4328 11.2651 13.6585 11.1654 13.8295 10.9981C14.0004 10.8308 14.105 10.6073 14.124 10.3688C14.304 8.20217 13.674 6.32217 12.234 4.72884C12.1535 4.63571 12.106 4.50806 12.0972 4.36098C12.0883 4.2139 12.1184 4.05353 12.184 3.89884C14.064 -0.531164 9.61397 1.23883 7.92397 1.98883C6.4373 2.64883 4.82066 2.85884 3.07399 2.61884C2.8933 2.59364 2.71873 2.59571 2.56069 2.62491C2.40264 2.65411 2.26436 2.70986 2.15401 2.78883Z" stroke="#FFBFB4" stroke-width="2"/>
<path d="M2.71401 10.0679C0.984007 8.89786 0.37401 4.06786 2.15401 2.78786C2.26436 2.70888 2.40264 2.65314 2.56069 2.62393C2.71873 2.59473 2.8933 2.59266 3.07399 2.61786C4.82066 2.85786 6.4373 2.64786 7.92397 1.98786C9.61397 1.23786 14.064 -0.532141 12.184 3.89786C12.1184 4.05255 12.0883 4.21292 12.0972 4.36C12.106 4.50708 12.1535 4.63473 12.234 4.72786C13.674 6.32119 14.304 8.20119 14.124 10.3679C14.105 10.6063 14.0004 10.8298 13.8295 10.9971C13.6585 11.1644 13.4328 11.2641 13.194 11.2779C10.2407 11.4579 9.33396 12.9545 10.474 15.7679C10.964 16.9979 10.594 19.4179 8.90401 17.1279C8.01068 15.9012 7.16063 14.6845 6.35396 13.4779C6.30332 13.4028 6.2366 13.3399 6.15877 13.294C6.08094 13.248 5.99403 13.2201 5.90456 13.2124C5.81509 13.2047 5.7254 13.2174 5.64217 13.2495C5.55894 13.2816 5.48432 13.3324 5.42397 13.3979C4.85397 14.0179 1.90396 17.7679 1.16396 17.1079C1.07683 17.0333 1.0211 16.9192 1.0049 16.7824C0.988698 16.6455 1.01291 16.4932 1.07399 16.3479L3.11397 11.3579C3.20659 11.1324 3.21741 10.881 3.14455 10.6461C3.07169 10.4111 2.91965 10.2069 2.71401 10.0679Z" fill="#FF806B"/>
</svg>
