<svg width="114" height="121" viewBox="0 0 114 121" fill="none" xmlns="http://www.w3.org/2000/svg">
<path d="M4.11089 68.6311C12.6209 94.8411 30.0709 120.001 61.1109 119.781C89.6009 119.571 104.701 98.0211 109.111 72.5111C111.341 59.5411 115.501 43.3711 106.901 31.3611C95.4209 15.3111 76.4409 2.51107 56.4009 1.18107C52.4343 0.921073 48.4609 0.94107 44.4809 1.24107C32.7409 2.11107 20.7109 10.3511 12.5409 18.4511C3.35089 27.5611 0.13092 43.7011 1.20092 55.8811C1.50759 59.3544 2.47756 63.6044 4.11089 68.6311Z" stroke="#ACDADF" stroke-width="2"/>
<path d="M17.6682 63.1815C22.2082 80.8315 36.0382 93.0315 51.9082 99.9115C77.0682 110.811 89.6282 82.9515 94.3482 63.7115C95.7782 57.8815 98.2582 49.1215 95.8382 43.9015C94.2649 40.5081 91.8949 37.4815 88.7282 34.8215C75.9382 24.1015 57.8082 17.5615 41.5582 23.1615C25.4882 28.7015 13.1782 45.7515 17.6682 63.1815Z" stroke="#3B6B7F" stroke-width="2"/>
<path d="M44.5405 114.002C47.0205 114.122 50.5005 110.562 47.2405 110.402C46.9192 110.382 46.5985 110.486 46.3406 110.692L44.0106 112.592C42.9439 113.465 43.1205 113.935 44.5405 114.002Z" stroke="#63C3C5" stroke-width="2"/>
<path d="M22.8089 58.191C25.8289 72.971 35.4189 82.361 47.9889 89.791C58.8489 96.191 70.4589 96.071 78.3589 85.261C85.1055 76.0277 89.6689 66.0344 92.0489 55.281C94.6589 43.491 85.5389 38.761 76.6089 34.721C62.8089 28.471 44.5289 25.921 31.9089 36.431C26.1489 41.231 21.2489 50.501 22.8089 58.191Z" stroke="#3B6B7F" stroke-width="2"/>
<path d="M37.7471 50.6039C37.4129 50.1668 36.9829 49.8097 36.4817 49.5529C35.9805 49.2962 35.4179 49.1449 34.8261 49.1077C34.2342 49.0705 33.6246 49.148 33.0321 49.3359C32.4397 49.5238 31.876 49.8184 31.3731 50.2029C30.8703 50.5873 30.4381 51.0541 30.1015 51.5766C29.7648 52.0991 29.5301 52.667 29.4109 53.2479C29.2916 53.8289 29.2901 54.4115 29.4064 54.9624C29.5228 55.5134 29.7547 56.022 30.0889 56.4591C30.4231 56.8962 30.8531 57.2533 31.3543 57.51C31.8555 57.7667 32.4181 57.918 33.01 57.9553C33.6018 57.9925 34.2114 57.915 34.8038 57.7271C35.3963 57.5392 35.9601 57.2445 36.4629 56.8601C36.9658 56.4756 37.3978 56.0088 37.7345 55.4864C38.0712 54.9639 38.3059 54.396 38.4251 53.815C38.5444 53.2341 38.5459 52.6515 38.4295 52.1005C38.3132 51.5496 38.0813 51.041 37.7471 50.6039Z" stroke="#38677A" stroke-width="2"/>
<path d="M84.9241 52.1137C84.5214 51.7123 84.0228 51.4149 83.457 51.2384C82.8912 51.062 82.2692 51.0099 81.6265 51.0852C80.9838 51.1606 80.333 51.3618 79.7113 51.6774C79.0896 51.993 78.5091 52.4169 78.0029 52.9248C76.9808 53.9505 76.3237 55.2562 76.1761 56.5547C76.0285 57.8532 76.4025 59.0381 77.2159 59.8487C77.6187 60.2501 78.1172 60.5475 78.683 60.724C79.2489 60.9004 79.8709 60.9525 80.5136 60.8772C81.1562 60.8019 81.807 60.6006 82.4288 60.285C83.0505 59.9694 83.631 59.5455 84.1371 59.0376C85.1593 58.0119 85.8165 56.7062 85.9641 55.4077C86.1116 54.1092 85.7376 52.9243 84.9241 52.1137Z" stroke="#3B6B7F" stroke-width="2"/>
<path d="M52.9088 86.3512C59.8588 90.6212 71.1689 85.9312 70.4489 76.9912C70.4337 76.8241 70.3775 76.6632 70.2854 76.5231C70.1933 76.383 70.0682 76.2681 69.9213 76.1887C69.7744 76.1093 69.6104 76.0679 69.4441 76.0684C69.2778 76.0688 69.1144 76.111 68.9688 76.1912C67.0222 77.2512 65.0822 78.5678 63.1489 80.1412C57.9289 84.3812 53.0489 80.1012 49.0189 77.2312C47.9189 76.4412 45.8089 76.3012 46.0689 78.1912C46.4989 81.3612 50.1588 84.6712 52.9088 86.3512Z" stroke="#3B6B7F" stroke-width="2"/>
<path d="M61.107 119.781C30.067 120.001 12.617 94.8411 4.10699 68.6311C2.47365 63.6044 1.50368 59.3544 1.19701 55.8811C0.127014 43.7011 3.34698 27.5611 12.537 18.4511C20.707 10.3511 32.737 2.11107 44.477 1.24107C48.457 0.94107 52.4304 0.921073 56.397 1.18107C76.437 2.51107 95.417 15.3111 106.897 31.3611C115.497 43.3711 111.337 59.5411 109.107 72.5111C104.697 98.0211 89.597 119.571 61.107 119.781ZM17.667 63.1811C22.207 80.8311 36.037 93.0311 51.907 99.9111C77.067 110.811 89.627 82.9511 94.347 63.7111C95.777 57.8811 98.257 49.1211 95.837 43.9011C94.2637 40.5078 91.8936 37.4811 88.727 34.8211C75.937 24.1011 57.807 17.5611 41.557 23.1611C25.487 28.7011 13.177 45.7511 17.667 63.1811ZM44.537 114.001C47.017 114.121 50.497 110.561 47.237 110.401C46.9157 110.382 46.595 110.485 46.337 110.691L44.007 112.591C42.9403 113.464 43.117 113.934 44.537 114.001Z" fill="#5AB6C1"/>
<path d="M51.9082 99.9115C36.0382 93.0315 22.2082 80.8315 17.6682 63.1815C13.1782 45.7515 25.4882 28.7015 41.5582 23.1615C57.8082 17.5615 75.9382 24.1015 88.7282 34.8215C91.8949 37.4815 94.2649 40.5081 95.8382 43.9015C98.2582 49.1215 95.7782 57.8815 94.3482 63.7115C89.6282 82.9515 77.0682 110.811 51.9082 99.9115ZM22.8082 58.1915C25.8282 72.9715 35.4182 82.3615 47.9882 89.7915C58.8482 96.1915 70.4582 96.0715 78.3582 85.2615C85.1049 76.0281 89.6682 66.0348 92.0482 55.2815C94.6582 43.4915 85.5382 38.7615 76.6082 34.7215C62.8082 28.4715 44.5282 25.9215 31.9082 36.4315C26.1482 41.2315 21.2482 50.5015 22.8082 58.1915Z" fill="#1B203C"/>
<path d="M47.9889 89.791C35.4189 82.361 25.8289 72.971 22.8089 58.191C21.2489 50.501 26.1489 41.231 31.9089 36.431C44.5289 25.921 62.8089 28.471 76.6089 34.721C85.5389 38.761 94.6589 43.491 92.0489 55.281C89.6689 66.0344 85.1055 76.0277 78.3589 85.261C70.4589 96.071 58.8489 96.191 47.9889 89.791ZM37.748 50.6034C37.4138 50.1663 36.9838 49.8092 36.4826 49.5525C35.9814 49.2958 35.4188 49.1445 34.827 49.1073C34.2351 49.07 33.6255 49.1476 33.033 49.3355C32.4406 49.5234 31.8769 49.818 31.374 50.2024C30.8712 50.5869 30.439 51.0537 30.1023 51.5761C29.7657 52.0986 29.531 52.6665 29.4118 53.2475C29.2925 53.8284 29.291 54.411 29.4073 54.962C29.5237 55.513 29.7556 56.0215 30.0898 56.4586C30.424 56.8958 30.854 57.2529 31.3552 57.5096C31.8563 57.7663 32.419 57.9176 33.0109 57.9548C33.6027 57.9921 34.2123 57.9145 34.8047 57.7266C35.3972 57.5387 35.961 57.2441 36.4638 56.8596C36.9666 56.4752 37.3987 56.0084 37.7354 55.4859C38.0721 54.9635 38.3068 54.3955 38.426 53.8146C38.5453 53.2337 38.5467 52.6511 38.4304 52.1001C38.3141 51.5491 38.0822 51.0406 37.748 50.6034ZM84.923 52.1135C84.5202 51.7122 84.0217 51.4147 83.4559 51.2383C82.8901 51.0618 82.268 51.0098 81.6254 51.0851C80.9827 51.1604 80.3319 51.3616 79.7101 51.6772C79.0884 51.9929 78.5079 52.4167 78.0018 52.9246C76.9796 53.9504 76.3225 55.2561 76.1749 56.5546C76.0273 57.853 76.4014 59.0379 77.2148 59.8485C77.6175 60.2499 78.1161 60.5473 78.6819 60.7238C79.2477 60.9003 79.8697 60.9523 80.5124 60.877C81.1551 60.8017 81.8059 60.6005 82.4276 60.2848C83.0493 59.9692 83.6299 59.5453 84.136 59.0374C85.1581 58.0117 85.8153 56.706 85.9629 55.4075C86.1105 54.109 85.7364 52.9242 84.923 52.1135ZM52.9089 86.351C59.8589 90.621 71.1689 85.931 70.4489 76.991C70.4338 76.824 70.3776 76.6631 70.2854 76.523C70.1933 76.3829 70.0682 76.2679 69.9213 76.1885C69.7744 76.1091 69.6104 76.0678 69.4441 76.0682C69.2779 76.0687 69.1145 76.1109 68.9689 76.191C67.0222 77.251 65.0822 78.5677 63.1489 80.141C57.9289 84.381 53.0489 80.101 49.0189 77.231C47.9189 76.441 45.8089 76.301 46.0689 78.191C46.4989 81.361 50.1589 84.671 52.9089 86.351Z" fill="#5AB6C1"/>
<path d="M36.4619 56.8595C38.5766 55.2427 39.1515 52.4417 37.746 50.6034C36.3405 48.765 33.4868 48.5855 31.372 50.2023C29.2573 51.8192 28.6824 54.6201 30.0879 56.4585C31.4934 58.2968 34.3471 58.4764 36.4619 56.8595Z" fill="#151732"/>
<path d="M84.1367 59.0373C86.2653 56.9013 86.6176 53.8014 84.9237 52.1133C83.2297 50.4253 80.131 50.7885 78.0025 52.9245C75.874 55.0604 75.5216 58.1604 77.2155 59.8484C78.9095 61.5364 82.0082 61.1733 84.1367 59.0373Z" fill="#1B203C"/>
<path d="M52.9088 86.3512C50.1588 84.6712 46.4989 81.3612 46.0689 78.1912C45.8089 76.3012 47.9189 76.4412 49.0189 77.2312C53.0489 80.1012 57.9289 84.3812 63.1489 80.1412C65.0822 78.5678 67.0222 77.2512 68.9688 76.1912C69.1144 76.111 69.2778 76.0688 69.4441 76.0684C69.6104 76.0679 69.7744 76.1093 69.9213 76.1887C70.0682 76.2681 70.1933 76.383 70.2854 76.5231C70.3775 76.6632 70.4337 76.8241 70.4489 76.9912C71.1689 85.9312 59.8588 90.6212 52.9088 86.3512Z" fill="#1B203C"/>
<path d="M44.5405 114.001C43.1205 113.934 42.9439 113.464 44.0106 112.591L46.3406 110.691C46.5985 110.485 46.9192 110.381 47.2405 110.401C50.5005 110.561 47.0205 114.121 44.5405 114.001Z" fill="#6BD0C9"/>
</svg>
