<svg width="201" height="185" viewBox="0 0 201 185" fill="none" xmlns="http://www.w3.org/2000/svg">
<path d="M2.63174 52.482C7.31174 74.612 29.5117 79.882 48.4517 73.362C61.3917 68.912 71.3017 60.932 75.0817 47.402C76.9817 40.6153 77.3951 34.2186 76.3217 28.212C71.5117 1.27197 40.4917 -5.21801 19.6617 7.73199C5.24174 16.692 -0.718263 36.582 2.63174 52.482Z" stroke="#8C8A91" stroke-width="2"/>
<path d="M26.4799 88.0117C28.7599 98.5017 53.6499 95.0317 60.6199 93.0217C73.8599 89.2117 86.7599 83.4417 91.7999 69.4017C95.4999 59.0884 97.2666 48.3251 97.0999 37.1118C97.0733 34.9718 96.0999 33.4217 94.1799 32.4617C92.1199 31.4417 90.1199 33.8217 89.7999 35.9817C88.5599 44.3551 86.3166 52.4384 83.0699 60.2317C78.9399 70.1417 71.5999 76.7418 62.0199 80.9918C53.2399 84.8818 43.6099 84.5917 34.2999 82.5317C30.5799 81.7117 25.4399 83.2417 26.4799 88.0117Z" stroke="#8C8A91" stroke-width="2"/>
<path d="M74.2827 112.272C79.4727 116.452 88.0627 110.252 92.9027 107.282C105.793 99.3621 114.613 87.1921 117.593 72.4121C118.503 67.8821 122.173 52.3721 115.383 50.4021C112.123 49.4621 109.843 51.6921 109.483 54.9721C108.223 66.1821 105.173 79.9821 98.5127 88.6221C92.6027 96.2921 84.7027 99.5421 76.5327 104.192C73.3827 105.982 70.5527 109.272 74.2827 112.272Z" stroke="#8C8A91" stroke-width="2"/>
<path d="M168.479 111.962C168.479 106.886 166.463 102.017 162.873 98.4278C159.284 94.8383 154.415 92.8218 149.339 92.8218C144.263 92.8218 139.395 94.8383 135.805 98.4278C132.216 102.017 130.199 106.886 130.199 111.962C130.199 117.038 132.216 121.906 135.805 125.496C139.395 129.085 144.263 131.102 149.339 131.102C154.415 131.102 159.284 129.085 162.873 125.496C166.463 121.906 168.479 117.038 168.479 111.962Z" stroke="#8C8A91" stroke-width="2"/>
<path d="M168.34 174.452C169.89 178.942 174.54 182.962 179.36 183.732C194.63 186.142 206.14 169.452 194.87 156.662C187.99 148.852 175.38 148.872 169.92 158.422C167.92 161.912 167.25 171.322 168.34 174.452Z" stroke="#8C8A91" stroke-width="2"/>
<path d="M16.6124 30.072C10.2024 44.382 13.8224 62.462 31.6424 65.772C36.8124 66.732 45.5524 65.152 50.1524 62.842C63.4191 56.202 68.5757 45.402 65.6224 30.442C62.9924 17.092 51.2724 9.00203 37.8624 12.462C28.1124 14.982 20.7224 20.872 16.6124 30.072Z" stroke="#8C8A91" stroke-width="2"/>
<path d="M50.8793 34.9955C50.0543 33.3187 48.8848 31.8319 47.4376 30.6199C45.9904 29.4078 44.2939 28.4942 42.4449 27.9314C40.5959 27.3685 38.6306 27.1674 36.6613 27.3394C34.692 27.5114 32.7572 28.0532 30.9673 28.9339C29.1775 29.8146 27.5676 31.017 26.2298 32.4723C24.8919 33.9277 23.8522 35.6074 23.17 37.4158C22.4878 39.2242 22.1764 41.1257 22.2537 43.0118C22.331 44.8979 22.7955 46.7317 23.6205 48.4084C24.4456 50.0851 25.6151 51.572 27.0622 52.784C28.5094 53.9961 30.206 54.9097 32.055 55.4725C33.904 56.0354 35.8692 56.2365 37.8385 56.0645C39.8079 55.8925 41.7427 55.3507 43.5325 54.47C45.3224 53.5893 46.9322 52.3869 48.27 50.9316C49.6079 49.4763 50.6476 47.7965 51.3298 45.9881C52.0121 44.1797 52.3234 42.2782 52.2461 40.3921C52.1688 38.506 51.7044 36.6722 50.8793 34.9955Z" stroke="#8C8A91" stroke-width="2"/>
<path d="M186.817 169.873C187.266 169.197 187.375 168.335 187.119 167.476C186.863 166.617 186.264 165.832 185.454 165.293C185.052 165.027 184.611 164.828 184.155 164.71C183.699 164.592 183.237 164.556 182.796 164.604C182.355 164.652 181.943 164.783 181.584 164.99C181.225 165.197 180.926 165.476 180.703 165.811C180.254 166.487 180.146 167.349 180.401 168.208C180.657 169.067 181.256 169.852 182.067 170.391C182.468 170.657 182.909 170.856 183.365 170.974C183.821 171.092 184.283 171.128 184.724 171.08C185.165 171.032 185.577 170.901 185.936 170.694C186.295 170.486 186.595 170.208 186.817 169.873Z" stroke="#26243A" stroke-width="2"/>
<path d="M48.4517 73.3625C29.5117 79.8825 7.31174 74.6125 2.63174 52.4825C-0.718263 36.5825 5.24174 16.6925 19.6617 7.73248C40.4917 -5.21752 71.5117 1.27246 76.3217 28.2125C77.3951 34.2191 76.9817 40.6158 75.0817 47.4025C71.3017 60.9325 61.3917 68.9125 48.4517 73.3625ZM16.6117 30.0724C10.2017 44.3824 13.8217 62.4625 31.6417 65.7725C36.8117 66.7325 45.5517 65.1525 50.1517 62.8425C63.4184 56.2025 68.5751 45.4024 65.6217 30.4424C62.9917 17.0924 51.2717 9.00246 37.8617 12.4625C28.1117 14.9825 20.7217 20.8724 16.6117 30.0724Z" fill="#1A1526"/>
<path d="M31.6385 65.7725C13.8185 62.4625 10.1985 44.3825 16.6085 30.0725C20.7185 20.8725 28.1085 14.9825 37.8585 12.4625C51.2685 9.00252 62.9885 17.0925 65.6185 30.4425C68.5718 45.4025 63.4152 56.2025 50.1485 62.8425C45.5485 65.1525 36.8085 66.7325 31.6385 65.7725ZM50.8779 34.996C50.0528 33.3193 48.8833 31.8325 47.4362 30.6204C45.989 29.4084 44.2924 28.4948 42.4434 27.9319C40.5944 27.3691 38.6292 27.1679 36.6599 27.34C34.6906 27.512 32.7557 28.0538 30.9659 28.9345C29.1761 29.8152 27.5662 31.0176 26.2284 32.4729C24.8905 33.9282 23.8508 35.608 23.1686 37.4164C22.4864 39.2248 22.175 41.1263 22.2523 43.0124C22.3296 44.8985 22.7941 46.7323 23.6191 48.409C24.4442 50.0857 25.6136 51.5726 27.0608 52.7846C28.508 53.9967 30.2046 54.9102 32.0536 55.4731C33.9026 56.0359 35.8678 56.2371 37.8371 56.0651C39.8064 55.893 41.7413 55.3512 43.5311 54.4705C45.3209 53.5898 46.9307 52.3875 48.2686 50.9322C49.6065 49.4769 50.6462 47.797 51.3284 45.9886C52.0106 44.1803 52.322 42.2788 52.2447 40.3926C52.1674 38.5065 51.7029 36.6728 50.8779 34.996Z" fill="#FEFEFC"/>
<path d="M43.5305 54.4706C51.0578 50.7667 54.3471 42.0477 50.8773 34.9962C47.4075 27.9446 38.4926 25.2308 30.9653 28.9346C23.438 32.6385 20.1488 41.3575 23.6186 48.4091C27.0884 55.4607 36.0033 58.1745 43.5305 54.4706Z" fill="#1A1526"/>
<path d="M60.6199 93.0222C53.6499 95.0322 28.7599 98.5022 26.4799 88.0122C25.4399 83.2422 30.5799 81.7122 34.2999 82.5322C43.6099 84.5922 53.2399 84.8822 62.0199 80.9922C71.5999 76.7422 78.9399 70.1422 83.0699 60.2322C86.3166 52.4389 88.5599 44.3556 89.7999 35.9822C90.1199 33.8222 92.1199 31.4422 94.1799 32.4622C96.0999 33.4222 97.0733 34.9722 97.0999 37.1122C97.2666 48.3256 95.4999 59.0889 91.7999 69.4022C86.7599 83.4422 73.8599 89.2122 60.6199 93.0222Z" fill="#1A1526"/>
<path d="M74.2788 112.273C70.5488 109.273 73.3788 105.983 76.5288 104.193C84.6988 99.5425 92.5988 96.2925 98.5088 88.6225C105.169 79.9825 108.219 66.1826 109.479 54.9726C109.839 51.6926 112.119 49.4626 115.379 50.4026C122.169 52.3726 118.499 67.8826 117.589 72.4126C114.609 87.1926 105.789 99.3626 92.8988 107.283C88.0588 110.253 79.4688 116.453 74.2788 112.273Z" fill="#1A1526"/>
<path d="M149.339 131.102C159.91 131.102 168.479 122.533 168.479 111.962C168.479 101.392 159.91 92.8223 149.339 92.8223C138.769 92.8223 130.199 101.392 130.199 111.962C130.199 122.533 138.769 131.102 149.339 131.102Z" fill="#1A1526"/>
<path d="M179.36 183.732C174.54 182.962 169.89 178.942 168.34 174.452C167.25 171.322 167.92 161.912 169.92 158.422C175.38 148.872 187.99 148.852 194.87 156.662C206.14 169.452 194.63 186.142 179.36 183.732ZM186.817 169.873C187.266 169.197 187.375 168.335 187.119 167.476C186.863 166.617 186.264 165.832 185.454 165.294C185.052 165.027 184.611 164.829 184.155 164.71C183.699 164.592 183.237 164.556 182.796 164.604C182.355 164.652 181.943 164.783 181.584 164.991C181.225 165.198 180.926 165.477 180.703 165.811C180.254 166.487 180.146 167.35 180.401 168.208C180.657 169.067 181.256 169.852 182.067 170.391C182.468 170.658 182.909 170.856 183.365 170.974C183.821 171.092 184.283 171.129 184.724 171.081C185.165 171.032 185.577 170.901 185.936 170.694C186.295 170.487 186.595 170.208 186.817 169.873Z" fill="#1A1526"/>
<path d="M182.065 170.391C183.753 171.513 185.88 171.281 186.815 169.873C187.75 168.466 187.14 166.415 185.451 165.294C183.763 164.172 181.636 164.404 180.701 165.811C179.766 167.219 180.376 169.269 182.065 170.391Z" fill="#31324D"/>
</svg>
