<svg width="144" height="139" viewBox="0 0 144 139" fill="none" xmlns="http://www.w3.org/2000/svg">
<path d="M22.7525 122.273C36.3525 134.293 52.5925 138.023 70.5725 137.933C89.2025 137.843 111.102 131.803 123.902 117.563C143.062 96.2434 149.122 60.2534 135.262 34.6234C122.582 11.1634 92.3624 0.783422 67.3124 1.00342C30.1724 1.33342 2.35246 26.9234 1.04246 64.4634C0.372461 83.4734 7.63245 108.913 22.7525 122.273Z" stroke="#FEA9A0" stroke-width="2"/>
<path d="M91.8591 103.643C94.6091 102.813 95.8392 100.623 97.6592 99.3034C101.299 96.6634 104.996 92.6933 108.749 87.3933C108.774 87.356 108.791 87.3135 108.797 87.2687C108.804 87.2238 108.802 87.1776 108.789 87.1333C108.629 86.6333 108.676 86.1133 108.929 85.5733C113.079 76.7233 113.209 67.1133 111.469 57.6233C109.269 45.6733 99.7792 32.4133 87.4892 29.7733C60.0092 23.8633 31.3992 42.8834 35.1492 72.9634C35.5025 75.7834 36.6325 78.8767 38.5392 82.2434C46.8992 96.9834 59.6092 107.473 77.2792 107.703C79.9292 107.743 82.6192 106.873 85.1792 106.153C86.9292 105.663 89.1891 105.883 91.0191 104.143C91.2658 103.903 91.5458 103.737 91.8591 103.643Z" stroke="#B88579" stroke-width="2"/>
<path d="M121.361 63.5135C122.291 61.3835 120.931 58.2535 119.611 56.6035C119.399 56.3344 119.111 56.1617 118.811 56.1235C116.201 55.8035 118.871 60.8335 119.151 61.9535C119.351 62.7535 120.351 65.8035 121.361 63.5135Z" stroke="#FA5C4A" stroke-width="2"/>
<path d="M19.9309 89.613C18.4109 92.533 29.9009 104.143 32.3709 105.843C32.441 105.888 32.5183 105.915 32.5895 105.919C32.6607 105.923 32.7213 105.903 32.7609 105.863C32.8409 105.783 32.8242 105.676 32.7109 105.543C28.3976 100.456 24.3376 95.1597 20.5309 89.653C20.4943 89.5997 20.4458 89.5544 20.3901 89.5215C20.3345 89.4886 20.2736 89.4692 20.2133 89.4651C20.153 89.4611 20.0954 89.4726 20.0459 89.4985C19.9964 89.5244 19.9568 89.5639 19.9309 89.613Z" stroke="#FA5C4A" stroke-width="2"/>
<path d="M22.7525 122.273C7.63245 108.913 0.372461 83.4734 1.04246 64.4634C2.35246 26.9234 30.1724 1.33342 67.3124 1.00342C92.3624 0.783422 122.582 11.1634 135.262 34.6234C149.122 60.2534 143.062 96.2434 123.902 117.563C111.102 131.803 89.2025 137.843 70.5725 137.933C52.5925 138.023 36.3525 134.293 22.7525 122.273ZM91.8624 103.643C94.6124 102.813 95.8425 100.623 97.6625 99.3034C101.302 96.6634 104.999 92.6934 108.752 87.3934C108.777 87.3561 108.794 87.3136 108.801 87.2687C108.808 87.2238 108.805 87.1777 108.792 87.1334C108.632 86.6334 108.679 86.1134 108.932 85.5734C113.082 76.7234 113.212 67.1134 111.472 57.6234C109.272 45.6734 99.7824 32.4134 87.4924 29.7734C60.0124 23.8634 31.4024 42.8834 35.1524 72.9634C35.5058 75.7834 36.6358 78.8768 38.5425 82.2434C46.9025 96.9834 59.6124 107.473 77.2824 107.703C79.9324 107.743 82.6224 106.873 85.1824 106.153C86.9324 105.663 89.1924 105.883 91.0224 104.143C91.2691 103.903 91.5491 103.737 91.8624 103.643ZM121.362 63.5134C122.292 61.3834 120.932 58.2534 119.612 56.6034C119.401 56.3343 119.113 56.1616 118.812 56.1234C116.202 55.8034 118.872 60.8334 119.152 61.9534C119.352 62.7534 120.352 65.8034 121.362 63.5134ZM19.9324 89.6134C18.4124 92.5334 29.9024 104.143 32.3724 105.843C32.4426 105.889 32.5199 105.916 32.591 105.919C32.6622 105.923 32.7228 105.903 32.7625 105.863C32.8425 105.783 32.8258 105.677 32.7124 105.543C28.3991 100.457 24.3391 95.1601 20.5325 89.6534C20.4958 89.6001 20.4473 89.5548 20.3917 89.5219C20.336 89.489 20.2752 89.4696 20.2149 89.4655C20.1546 89.4615 20.0969 89.473 20.0474 89.4989C19.998 89.5248 19.9584 89.5643 19.9324 89.6134Z" fill="#FD5441"/>
<path d="M91.0191 104.143C89.1891 105.883 86.9292 105.663 85.1792 106.153C82.6192 106.873 79.9292 107.743 77.2792 107.703C59.6092 107.473 46.8992 96.9834 38.5392 82.2434C36.6325 78.8767 35.5025 75.7834 35.1492 72.9634C31.3992 42.8834 60.0092 23.8633 87.4892 29.7733C99.7792 32.4133 109.269 45.6733 111.469 57.6233C113.209 67.1133 113.079 76.7233 108.929 85.5733C108.676 86.1133 108.629 86.6333 108.789 87.1333C108.802 87.1776 108.804 87.2238 108.797 87.2687C108.791 87.3135 108.774 87.356 108.749 87.3933C104.996 92.6933 101.299 96.6634 97.6592 99.3034C95.8392 100.623 94.6091 102.813 91.8591 103.643C91.5458 103.737 91.2658 103.903 91.0191 104.143Z" fill="#72B5B0"/>
<path d="M121.361 63.5135C120.351 65.8035 119.351 62.7535 119.151 61.9535C118.871 60.8335 116.201 55.8035 118.811 56.1235C119.111 56.1617 119.399 56.3344 119.611 56.6035C120.931 58.2535 122.291 61.3835 121.361 63.5135Z" fill="#F66353"/>
<path d="M32.3709 105.843C29.9009 104.143 18.4109 92.5335 19.9309 89.6135C19.9568 89.5644 19.9964 89.5249 20.0459 89.499C20.0954 89.4731 20.153 89.4616 20.2133 89.4656C20.2736 89.4696 20.3345 89.4891 20.3901 89.522C20.4458 89.5549 20.4943 89.6002 20.5309 89.6535C24.3376 95.1602 28.3976 100.457 32.7109 105.544C32.8242 105.677 32.8409 105.784 32.7609 105.864C32.7213 105.903 32.6607 105.923 32.5895 105.919C32.5183 105.916 32.441 105.889 32.3709 105.843Z" fill="#F66353"/>
</svg>
