<svg width="111" height="206" viewBox="0 0 111 206" fill="none" xmlns="http://www.w3.org/2000/svg">
<path d="M46.3142 204.392C46.6675 200.492 46.2542 196.662 45.0742 192.902" stroke="#959399" stroke-width="2"/>
<path d="M45.0742 192.902C47.6142 188.689 50.3642 184.766 53.3242 181.132C53.3976 181.043 53.4912 180.973 53.5974 180.928C53.7037 180.883 53.8197 180.863 53.9362 180.871C54.0528 180.879 54.1666 180.914 54.2687 180.973C54.3708 181.032 54.4583 181.114 54.5242 181.212L63.1542 193.902" stroke="#FEBBA0" stroke-width="2"/>
<path d="M63.1536 193.902L62.4936 203.602C62.4878 203.671 62.4999 203.741 62.5291 203.806C62.5584 203.872 62.604 203.932 62.6633 203.983C62.7225 204.033 62.794 204.074 62.8732 204.101C62.9525 204.129 63.0377 204.143 63.1236 204.142L66.1136 204.152C66.1775 204.153 66.2407 204.138 66.2996 204.111C66.3585 204.083 66.4119 204.042 66.4566 203.991C66.5013 203.94 66.5364 203.879 66.56 203.812C66.5835 203.746 66.5949 203.674 66.5936 203.602L66.4036 196.902" stroke="#99958F" stroke-width="2"/>
<path d="M66.4023 196.902C77.2523 197.272 83.4924 176.392 85.3224 168.902" stroke="#FEBBA0" stroke-width="2"/>
<path d="M85.3242 168.902C88.0842 163.076 89.2142 156.882 88.7142 150.322" stroke="#959399" stroke-width="2"/>
<path d="M88.7133 150.323C89.2666 146.143 89.3033 142.506 88.8233 139.413C88.3433 136.326 86.3566 134.893 82.8633 135.113" stroke="#FEBBA0" stroke-width="2"/>
<path d="M82.8631 135.113C82.2898 135.066 81.7665 134.909 81.2931 134.643C81.1614 134.57 81.0458 134.465 80.9542 134.334C80.8627 134.202 80.7975 134.048 80.7631 133.883C79.9098 129.696 78.3198 126.236 75.9931 123.503C72.3398 119.216 69.7431 115.829 68.2031 113.343" stroke="#D3F3E8" stroke-width="2"/>
<path d="M41.8633 113.193C41.3366 114.913 39.9633 117.206 37.7433 120.073C34.8033 123.866 33.4533 128.633 33.6933 134.373C33.7066 134.793 33.5133 134.983 33.1133 134.943" stroke="#D3F3E8" stroke-width="2"/>
<path d="M33.1133 134.943L30.3633 135.113" stroke="#E6D2C0" stroke-width="2"/>
<path d="M30.3605 135.113C22.6305 135.273 21.6905 145.073 22.3605 150.693" stroke="#FEBBA0" stroke-width="2"/>
<path d="M22.3621 150.693C21.9154 155.88 22.5421 160.883 24.2421 165.703" stroke="#959399" stroke-width="2"/>
<path d="M24.2422 165.703C25.7522 172.573 31.2122 192.173 38.6522 194.403" stroke="#FEBBA0" stroke-width="2"/>
<path d="M38.6523 194.402C38.4923 197.862 39.0356 201.199 40.2823 204.412" stroke="#959399" stroke-width="2"/>
<path d="M68.2013 113.343C64.9013 112.363 66.6213 110.313 68.4113 109.313C75.6046 105.279 80.5613 99.9562 83.2813 93.3428C90.2313 76.4828 93.6713 62.0428 89.3113 43.7828C84.6013 24.0728 76.2313 4.33284 52.3813 4.41284C47.2813 4.43284 43.2913 6.39285 39.8413 9.86285C29.0013 20.7695 22.4946 33.8628 20.3213 49.1428C17.7213 67.3728 18.1913 103.793 41.5613 109.843C41.9023 109.933 42.1811 110.118 42.3413 110.363C42.9813 111.37 42.8213 112.313 41.8613 113.193" stroke="#6A8886" stroke-width="2"/>
<path d="M82.8633 135.113L73.1133 135.443" stroke="#D3B08D" stroke-width="2"/>
<path d="M73.1133 135.443C59.5033 134.953 45.1433 135.763 33.1133 134.943" stroke="#BBC7AD" stroke-width="2"/>
<path d="M41.8121 63.6658C43.3487 63.1187 44.5862 61.9309 45.2525 60.3639C45.9188 58.7969 45.9593 56.9789 45.365 55.3099C45.0707 54.4835 44.6295 53.7186 44.0664 53.0587C43.5034 52.3989 42.8296 51.8572 42.0835 51.4644C41.3375 51.0716 40.5337 50.8355 39.7182 50.7696C38.9027 50.7036 38.0913 50.8091 37.3305 51.08C35.7939 51.6272 34.5564 52.8149 33.8901 54.3819C33.2238 55.949 33.1833 57.7669 33.7776 59.4359C34.0719 60.2623 34.5131 61.0273 35.0761 61.6871C35.6392 62.3469 36.313 62.8887 37.059 63.2815C37.8051 63.6742 38.6089 63.9103 39.4244 63.9763C40.2399 64.0422 41.0513 63.9367 41.8121 63.6658Z" stroke="#6A8886" stroke-width="2"/>
<path d="M76.7066 54.204C76.3301 53.5164 75.8067 52.9179 75.1661 52.4428C74.5256 51.9677 73.7805 51.6253 72.9735 51.4352C72.1664 51.245 71.3132 51.2108 70.4625 51.3345C69.6118 51.4582 68.7803 51.7374 68.0154 52.1562C67.2505 52.5749 66.5673 53.125 66.0047 53.775C65.4422 54.425 65.0113 55.1623 64.7367 55.9446C64.462 56.727 64.3491 57.5392 64.4042 58.3348C64.4594 59.1304 64.6815 59.8938 65.058 60.5815C65.4345 61.2692 65.9579 61.8676 66.5985 62.3427C67.239 62.8178 67.9841 63.1602 68.7911 63.3503C69.5982 63.5405 70.4514 63.5747 71.3021 63.451C72.1528 63.3273 72.9843 63.0481 73.7492 62.6294C74.5141 62.2106 75.1973 61.6605 75.7599 61.0105C76.3224 60.3605 76.7533 59.6232 77.0279 58.8409C77.3026 58.0585 77.4155 57.2463 77.3604 56.4507C77.3053 55.6552 77.0831 54.8917 76.7066 54.204Z" stroke="#6A8886" stroke-width="2"/>
<path d="M58.8036 87.1433C58.9172 86.0246 58.4759 84.8958 57.5768 84.0052C56.6776 83.1146 55.3942 82.5353 54.009 82.3946C53.3231 82.3249 52.6328 82.365 51.9776 82.5127C51.3223 82.6603 50.715 82.9125 50.1902 83.2549C49.6654 83.5973 49.2334 84.0233 48.9189 84.5084C48.6045 84.9936 48.4137 85.5284 48.3574 86.0824C48.2438 87.2011 48.6851 88.3299 49.5842 89.2205C50.4834 90.1111 51.7668 90.6904 53.152 90.8311C53.8379 90.9008 54.5282 90.8607 55.1834 90.7131C55.8387 90.5655 56.446 90.3132 56.9708 89.9708C57.4956 89.6283 57.9276 89.2024 58.2421 88.7172C58.5565 88.2321 58.7473 87.6973 58.8036 87.1433Z" stroke="#6A8886" stroke-width="2"/>
<path d="M73.1133 135.443C59.4533 137.063 43.8033 138.493 30.3633 135.113" stroke="#E68F65" stroke-width="2"/>
<path d="M88.7133 150.324C78.5433 150.044 68.0533 150.324 58.3333 150.164C46.3399 149.97 34.3499 150.147 22.3633 150.694" stroke="#95503E" stroke-width="2"/>
<path d="M85.3222 168.903C65.0022 167.583 44.7622 165.083 24.2422 165.703" stroke="#95503E" stroke-width="2"/>
<path d="M66.4023 196.902C65.9423 195.182 64.859 194.182 63.1523 193.902" stroke="#995234" stroke-width="2"/>
<path d="M45.0724 192.903C42.6324 192.17 40.4923 192.67 38.6523 194.403" stroke="#95503E" stroke-width="2"/>
<path d="M89.1615 26.383L95.5715 46.403L96.3015 56.393C96.3045 56.4501 96.3207 56.5057 96.3488 56.5554C96.3768 56.605 96.4159 56.6473 96.4628 56.6785C96.5098 56.7098 96.5631 56.7292 96.6185 56.7352C96.674 56.7412 96.7298 56.7336 96.7815 56.713C101.571 54.883 112.851 54.663 110.411 63.313C108.531 70.003 98.0015 68.313 99.5215 61.633C99.553 61.4834 99.5407 61.3304 99.4867 61.197C99.4326 61.0636 99.3396 60.957 99.2215 60.893C97.6215 60.043 96.5015 60.973 96.3815 62.693C95.2415 80.583 88.2615 107.073 68.2015 113.343C64.9015 112.363 66.6215 110.313 68.4115 109.313C75.6048 105.28 80.5615 99.9564 83.2815 93.343C90.2315 76.483 93.6715 62.043 89.3115 43.783C84.6015 24.073 76.2315 4.33304 52.3815 4.41304C47.2815 4.43304 43.2915 6.39305 39.8415 9.86305C29.0015 20.7697 22.4948 33.863 20.3215 49.143C17.7215 67.373 18.1915 103.793 41.5615 109.843C41.9025 109.933 42.1813 110.119 42.3415 110.363C42.9815 111.37 42.8215 112.313 41.8615 113.193C17.7515 109.963 15.1015 81.403 14.5215 62.373C14.5157 62.1834 14.4706 62.0033 14.396 61.8707C14.3213 61.7382 14.2229 61.6637 14.1215 61.663L9.79148 61.763C9.7228 61.7643 9.65777 61.7873 9.6017 61.8302C9.54562 61.873 9.50011 61.9345 9.4689 62.0097C9.43768 62.0848 9.42163 62.1714 9.42208 62.2623C9.42253 62.3533 9.43947 62.4461 9.47149 62.533C12.5215 70.833 -1.0985 71.873 0.071498 63.133C0.358165 60.9797 1.61816 59.3297 3.8515 58.1831C8.1715 55.9731 9.61149 56.723 14.0015 57.923C14.0619 57.9406 14.1254 57.9448 14.1877 57.9352C14.2501 57.9256 14.3098 57.9024 14.3628 57.8674C14.4159 57.8323 14.4611 57.7861 14.4954 57.7319C14.5297 57.6777 14.5522 57.6167 14.5615 57.5531C14.9815 54.2931 15.4115 51.093 15.8515 47.953C17.5715 35.793 22.0082 24.923 29.1615 15.343C37.6515 3.95303 45.4315 -1.74697 60.2415 0.473033C74.9815 2.67303 83.4815 13.483 89.1615 26.383Z" fill="#A7E8D5"/>
<path d="M68.2052 113.343C69.7452 115.829 72.3419 119.216 75.9952 123.503C78.3219 126.236 79.9119 129.696 80.7652 133.883C80.7995 134.048 80.8648 134.202 80.9563 134.334C81.0478 134.465 81.1635 134.57 81.2952 134.643C81.7685 134.909 82.2919 135.066 82.8652 135.113L73.1152 135.443C59.5052 134.953 45.1452 135.763 33.1152 134.943C33.5152 134.983 33.7085 134.793 33.6952 134.373C33.4552 128.633 34.8052 123.866 37.7452 120.073C39.9652 117.206 41.3385 114.913 41.8652 113.193C42.8252 112.313 42.9852 111.37 42.3452 110.363C42.185 110.118 41.9062 109.933 41.5652 109.843C18.1952 103.793 17.7252 67.3728 20.3252 49.1428C22.4985 33.8628 29.0052 20.7695 39.8452 9.86285C43.2952 6.39285 47.2852 4.43284 52.3852 4.41284C76.2352 4.33284 84.6052 24.0728 89.3152 43.7828C93.6752 62.0428 90.2352 76.4828 83.2852 93.3428C80.5652 99.9562 75.6085 105.279 68.4152 109.313C66.6252 110.313 64.9052 112.363 68.2052 113.343ZM41.816 63.6657C43.3526 63.1186 44.5901 61.9309 45.2564 60.3638C45.9227 58.7968 45.9632 56.9788 45.3689 55.3098C45.0746 54.4834 44.6334 53.7185 44.0704 53.0587C43.5073 52.3988 42.8335 51.8571 42.0875 51.4643C41.3414 51.0715 40.5377 50.8354 39.7221 50.7695C38.9066 50.7035 38.0952 50.809 37.3344 51.08C35.7978 51.6271 34.5603 52.8148 33.894 54.3818C33.2277 55.9489 33.1872 57.7669 33.7815 59.4359C34.0758 60.2623 34.517 61.0272 35.08 61.687C35.6431 62.3468 36.3169 62.8886 37.0629 63.2814C37.809 63.6742 38.6128 63.9102 39.4283 63.9762C40.2438 64.0421 41.0552 63.9366 41.816 63.6657ZM76.7095 54.2041C76.333 53.5164 75.8096 52.918 75.169 52.4429C74.5285 51.9678 73.7834 51.6254 72.9764 51.4352C72.1693 51.2451 71.3161 51.2109 70.4654 51.3346C69.6147 51.4583 68.7832 51.7375 68.0183 52.1562C67.2534 52.575 66.5702 53.1251 66.0076 53.7751C65.4451 54.4251 65.0142 55.1623 64.7396 55.9447C64.4649 56.7271 64.352 57.5393 64.4071 58.3348C64.4623 59.1304 64.6844 59.8939 65.0609 60.5815C65.4374 61.2692 65.9608 61.8677 66.6014 62.3428C67.2419 62.8179 67.987 63.1602 68.794 63.3504C69.6011 63.5406 70.4543 63.5748 71.305 63.4511C72.1557 63.3274 72.9873 63.0482 73.7521 62.6295C74.517 62.2107 75.2002 61.6606 75.7628 61.0106C76.3253 60.3605 76.7562 59.6233 77.0308 58.8409C77.3055 58.0586 77.4184 57.2464 77.3633 56.4508C77.3082 55.6552 77.086 54.8918 76.7095 54.2041ZM58.8083 87.1433C58.9219 86.0246 58.4806 84.8958 57.5815 84.0052C56.6823 83.1146 55.3989 82.5352 54.0137 82.3945C53.3278 82.3249 52.6375 82.365 51.9823 82.5126C51.327 82.6603 50.7197 82.9124 50.1949 83.2549C49.6701 83.5973 49.2381 84.0233 48.9236 84.5084C48.6092 84.9936 48.4184 85.5284 48.3621 86.0823C48.2485 87.2011 48.6898 88.3299 49.5889 89.2205C50.4881 90.111 51.7715 90.6904 53.1567 90.8311C53.8426 90.9008 54.5329 90.8607 55.1881 90.7131C55.8434 90.5655 56.4507 90.3132 56.9755 89.9708C57.5003 89.6283 57.9323 89.2024 58.2468 88.7172C58.5612 88.2321 58.752 87.6973 58.8083 87.1433Z" fill="#A7E8D5"/>
<path d="M33.7785 59.4361C35.0161 62.9116 38.6132 64.8054 41.813 63.666C45.0127 62.5266 46.6034 58.7855 45.3658 55.31C44.1282 51.8345 40.5311 49.9407 37.3313 51.0801C34.1316 52.2195 32.5409 55.9606 33.7785 59.4361Z" fill="#2C2737"/>
<path d="M73.7495 62.6297C76.9662 60.8686 78.2902 57.0965 76.7068 54.2044C75.1235 51.3123 71.2323 50.3955 68.0157 52.1565C64.799 53.9176 63.475 57.6897 65.0583 60.5818C66.6417 63.4739 70.5329 64.3907 73.7495 62.6297Z" fill="#2C2737"/>
<path d="M53.1552 90.8309C56.0399 91.1239 58.5702 89.4729 58.8068 87.1432C59.0435 84.8135 56.8968 82.6873 54.0122 82.3943C51.1275 82.1013 48.5972 83.7524 48.3606 86.0821C48.1239 88.4118 50.2706 90.5379 53.1552 90.8309Z" fill="#2C2737"/>
<path d="M33.1133 134.943C45.1433 135.763 59.5033 134.953 73.1133 135.443C59.4533 137.063 43.8033 138.493 30.3633 135.113L33.1133 134.943Z" fill="#CEA585"/>
<path d="M30.3644 135.113C43.8044 138.493 59.4544 137.063 73.1144 135.443L82.8644 135.113C86.3577 134.893 88.3444 136.326 88.8244 139.413C89.3044 142.506 89.2677 146.143 88.7144 150.323C78.5444 150.043 68.0544 150.323 58.3344 150.163C46.3411 149.969 34.3511 150.146 22.3644 150.693C21.6944 145.073 22.6344 135.273 30.3644 135.113Z" fill="#FE7845"/>
<path d="M88.7121 150.323C89.2121 156.883 88.0821 163.076 85.3221 168.903C65.0021 167.583 44.7621 165.083 24.2421 165.703C22.5421 160.883 21.9154 155.879 22.3621 150.693C34.3487 150.146 46.3387 149.969 58.3321 150.163C68.0521 150.323 78.5421 150.043 88.7121 150.323Z" fill="#2C2737"/>
<path d="M85.3222 168.903C83.4922 176.393 77.2522 197.273 66.4022 196.903C65.9422 195.183 64.8588 194.183 63.1522 193.903L54.5222 181.213C54.4563 181.114 54.3688 181.032 54.2667 180.973C54.1646 180.914 54.0508 180.879 53.9342 180.871C53.8177 180.863 53.7017 180.883 53.5954 180.928C53.4891 180.974 53.3956 181.044 53.3222 181.133C50.3622 184.766 47.6122 188.689 45.0722 192.903C42.6322 192.169 40.4922 192.669 38.6522 194.403C31.2122 192.173 25.7522 172.573 24.2422 165.703C44.7622 165.083 65.0022 167.583 85.3222 168.903Z" fill="#FE7845"/>
<path d="M45.0723 192.903C46.2523 196.663 46.6656 200.493 46.3123 204.393L40.2823 204.413C39.0356 201.2 38.4923 197.863 38.6523 194.403C40.4923 192.67 42.6323 192.17 45.0723 192.903Z" fill="#2C2737"/>
<path d="M63.1536 193.902C64.8602 194.182 65.9436 195.182 66.4036 196.902L66.5936 203.602C66.5949 203.674 66.5835 203.746 66.56 203.812C66.5364 203.879 66.5013 203.94 66.4566 203.991C66.4119 204.042 66.3585 204.083 66.2996 204.111C66.2407 204.138 66.1775 204.153 66.1136 204.152L63.1236 204.142C63.0377 204.143 62.9525 204.129 62.8732 204.101C62.794 204.074 62.7225 204.033 62.6633 203.983C62.604 203.932 62.5584 203.872 62.5291 203.806C62.4999 203.741 62.4878 203.671 62.4936 203.602L63.1536 193.902Z" fill="#332B23"/>
</svg>
