<svg width="132" height="137" viewBox="0 0 132 137" fill="none" xmlns="http://www.w3.org/2000/svg">
<path d="M14.8555 112.954L15.6955 113.964" stroke="#F2BCAB" stroke-width="2"/>
<path d="M15.6953 113.964C28.4053 130.064 46.9553 136.664 67.1353 135.164C72.4253 134.764 78.2553 133.003 83.6453 131.633C100.905 127.243 116.295 118.194 123.885 101.214C134.725 76.9435 131.685 50.0735 115.605 28.8735" stroke="#959399" stroke-width="2"/>
<path d="M115.605 28.8735L113.855 26.8735" stroke="#F2BCAB" stroke-width="2"/>
<path d="M113.856 26.8739C108.316 15.2239 95.856 9.1039 84.436 4.6739C75.026 1.0239 65.026 0.0338917 55.376 1.97389C28.066 7.47389 7.18595 26.3539 2.33595 54.1739C-1.10405 73.8839 1.76594 97.4839 14.8559 112.954" stroke="#959399" stroke-width="2"/>
<path d="M113.854 26.8735C106.774 33.2402 100.044 39.9002 93.6641 46.8535" stroke="#895149" stroke-width="2"/>
<path d="M93.6633 46.8538C82.0733 29.8638 57.5133 28.1538 42.3333 41.0038C26.5133 54.3938 26.6233 79.4938 35.6433 96.6638" stroke="#959399" stroke-width="2"/>
<path d="M35.6454 96.6636C29.6188 101.79 23.1888 106.347 16.3555 110.334C15.2655 110.964 15.0055 111.824 14.8555 112.954" stroke="#895149" stroke-width="2"/>
<path d="M90.8939 48.9139C85.7006 41.9339 78.9839 37.9006 70.7439 36.814C47.2439 33.724 32.0739 50.3339 33.0439 73.4739C33.3973 81.8073 35.2639 88.9539 38.6439 94.9139" stroke="#959399" stroke-width="2"/>
<path d="M115.606 28.8735C115.12 28.9802 114.79 29.1702 114.616 29.4435C106.756 41.6935 99.2064 49.4735 90.3164 58.9135" stroke="#895149" stroke-width="2"/>
<path d="M90.3155 58.9136C83.6955 66.1202 76.6921 72.9169 69.3055 79.3036C60.3155 87.0736 49.1755 94.3736 38.8555 101.624" stroke="#984F3D" stroke-width="2"/>
<path d="M38.8553 101.624C31.4286 106.31 23.7086 110.424 15.6953 113.964" stroke="#895149" stroke-width="2"/>
<path d="M35.6445 96.6636C37.4512 97.1902 38.4512 96.6069 38.6445 94.9136" stroke="#F2BCAB" stroke-width="2"/>
<path d="M38.6445 94.9136C53.7945 84.3436 71.8646 71.0236 85.0446 56.6536C86.3846 55.1836 87.9246 52.4236 90.3146 50.8036C90.6095 50.6048 90.8106 50.339 90.8746 50.0636C90.9612 49.6703 90.9679 49.2869 90.8945 48.9136" stroke="#895149" stroke-width="2"/>
<path d="M90.8945 48.9135C92.0745 48.6735 92.9979 47.9868 93.6646 46.8535" stroke="#F2BCAB" stroke-width="2"/>
<path d="M38.8555 101.624L39.6055 101.953" stroke="#3B252B" stroke-width="2"/>
<path d="M39.6055 101.954C47.1655 108.774 57.6855 113.594 68.1055 111.404C84.9988 107.85 96.3088 98.1672 102.035 82.3538C105.815 71.9138 101.855 63.7539 97.5754 53.8739C97.548 53.8097 97.5089 53.7513 97.4603 53.702C97.4118 53.6527 97.3547 53.6134 97.2925 53.5864C97.2302 53.5595 97.164 53.5454 97.0976 53.5449C97.0312 53.5445 96.9659 53.5577 96.9055 53.5838C95.4988 54.1905 95.0755 55.1439 95.6355 56.4439C101.589 70.2572 100.672 82.3305 92.8855 92.6638C81.3455 107.964 58.0855 113.864 42.8155 100.084" stroke="#939098" stroke-width="2"/>
<path d="M42.8164 100.084C47.9097 97.1436 52.9464 94.0903 57.9264 90.9236C64.5364 86.7136 70.6564 80.7736 77.2964 75.8536C79.9897 73.8536 84.7264 68.8203 91.5064 60.7536C91.6152 60.6241 91.6868 60.4725 91.7118 60.319C91.7368 60.1654 91.7139 60.017 91.6464 59.8936C91.3797 59.4136 90.9364 59.0869 90.3164 58.9136" stroke="#3B252B" stroke-width="2"/>
<path d="M39.6055 101.953L42.8155 100.083" stroke="#A18E8C" stroke-width="2"/>
<path d="M66.528 13.4555C66.3412 13.258 66.1057 13.1102 65.8349 13.0206C65.5642 12.9311 65.2634 12.9014 64.9498 12.9334C64.6362 12.9653 64.316 13.0583 64.0074 13.207C63.6988 13.3557 63.4079 13.5571 63.1512 13.7998C62.8946 14.0425 62.6772 14.3218 62.5115 14.6217C62.3459 14.9215 62.2351 15.236 62.1857 15.5473C62.1363 15.8585 62.1492 16.1605 62.2235 16.4359C62.2978 16.7112 62.4322 16.9546 62.619 17.1521C62.8058 17.3496 63.0413 17.4974 63.3121 17.587C63.5828 17.6766 63.8836 17.7062 64.1972 17.6743C64.5108 17.6423 64.831 17.5493 65.1396 17.4007C65.4482 17.252 65.7391 17.0505 65.9958 16.8078C66.2524 16.5651 66.4698 16.2859 66.6355 15.986C66.8011 15.6862 66.9119 15.3717 66.9613 15.0604C67.0107 14.7491 66.9978 14.4471 66.9235 14.1718C66.8492 13.8964 66.7148 13.653 66.528 13.4555Z" stroke="#939098" stroke-width="2"/>
<path d="M88.2379 15.6127C87.8352 15.086 87.2146 14.76 86.5127 14.7065C85.8108 14.653 85.0851 14.8764 84.4951 15.3274C84.203 15.5508 83.9531 15.8233 83.7595 16.1294C83.5659 16.4356 83.4325 16.7693 83.367 17.1117C83.3014 17.454 83.305 17.7982 83.3774 18.1246C83.4498 18.451 83.5898 18.7533 83.7892 19.0141C84.1919 19.5409 84.8125 19.8668 85.5144 19.9203C86.2163 19.9738 86.942 19.7505 87.532 19.2994C87.8241 19.0761 88.074 18.8036 88.2676 18.4975C88.4612 18.1913 88.5946 17.8575 88.6601 17.5152C88.7257 17.1728 88.7221 16.8287 88.6497 16.5022C88.5773 16.1758 88.4373 15.8735 88.2379 15.6127Z" stroke="#8B8891" stroke-width="2"/>
<path d="M37.3759 25.0235C37.516 25.1081 37.6695 25.168 37.8265 25.1994C37.9835 25.2308 38.1403 25.2328 38.2867 25.2054C38.4331 25.1781 38.5658 25.1218 38.6759 25.0405C38.7861 24.9591 38.8713 24.8545 38.9259 24.7335L40.8659 20.4235C40.892 20.3632 40.8991 20.2971 40.8867 20.2302C40.8744 20.1634 40.8429 20.0976 40.7947 20.0378C40.7465 19.9781 40.6828 19.9259 40.6085 19.8853C40.5342 19.8447 40.4513 19.8167 40.3659 19.8035C37.3559 19.3735 34.4459 23.2535 37.3759 25.0235Z" stroke="#939098" stroke-width="2"/>
<path d="M16.4946 45.9222C17.2306 46.3118 18.1745 46.2358 19.1188 45.7109C20.0631 45.1859 20.9303 44.2549 21.5297 43.1228C22.1291 41.9907 22.4117 40.7502 22.3151 39.6742C22.2185 38.5981 21.7508 37.7746 21.0148 37.3849C20.2788 36.9953 19.3349 37.0713 18.3906 37.5963C17.4463 38.1213 16.5791 39.0522 15.9797 40.1842C15.3803 41.3163 15.0978 42.5569 15.1944 43.633C15.2909 44.709 15.7586 45.5325 16.4946 45.9222Z" stroke="#939098" stroke-width="2"/>
<path d="M9.05392 72.7338C9.43315 72.9155 9.86934 72.9399 10.2693 72.8016C10.6692 72.6633 11.0011 72.3734 11.1939 71.9938C12.1673 70.0871 12.7139 68.0571 12.8339 65.9038C12.9339 64.1104 12.2039 63.6504 10.6439 64.5238C8.18389 65.9138 5.51392 71.0138 9.05392 72.7338Z" stroke="#939098" stroke-width="2"/>
<path d="M12.0997 96.3036C12.2847 96.4899 12.5276 96.6153 12.8145 96.6723C13.1014 96.7294 13.4267 96.7171 13.7717 96.6363C14.1167 96.5554 14.4747 96.4075 14.8253 96.201C15.1759 95.9944 15.5122 95.7333 15.8151 95.4326C16.1179 95.1319 16.3814 94.7974 16.5903 94.4482C16.7993 94.0991 16.9497 93.742 17.033 93.3976C17.1162 93.0532 17.1307 92.728 17.0756 92.4408C17.0205 92.1535 16.8969 91.9097 16.7118 91.7234C16.5268 91.537 16.2839 91.4117 15.997 91.3546C15.7101 91.2976 15.3849 91.3098 15.0399 91.3907C14.6949 91.4715 14.3369 91.6195 13.9863 91.826C13.6356 92.0326 13.2993 92.2937 12.9965 92.5944C12.6936 92.8951 12.4302 93.2296 12.2212 93.5788C12.0123 93.9279 11.8618 94.2849 11.7786 94.6294C11.6953 94.9738 11.6808 95.299 11.7359 95.5862C11.791 95.8735 11.9146 96.1172 12.0997 96.3036Z" stroke="#959399" stroke-width="2"/>
<path d="M113.856 26.8734C106.776 33.2401 100.046 39.9001 93.6659 46.8534C82.0759 29.8634 57.5159 28.1534 42.3359 41.0034C26.5159 54.3934 26.6259 79.4934 35.6459 96.6634C29.6193 101.79 23.1893 106.347 16.3559 110.333C15.2659 110.963 15.0059 111.823 14.8559 112.953C1.76594 97.4834 -1.10405 73.8834 2.33595 54.1734C7.18595 26.3534 28.066 7.4734 55.376 1.9734C65.026 0.0334035 75.026 1.02342 84.436 4.67342C95.856 9.10342 108.316 15.2234 113.856 26.8734ZM66.5304 13.4551C66.3437 13.2576 66.1082 13.1098 65.8374 13.0202C65.5666 12.9306 65.2658 12.901 64.9523 12.9329C64.6387 12.9649 64.3185 13.0579 64.0099 13.2066C63.7013 13.3552 63.4103 13.5567 63.1537 13.7994C62.897 14.0421 62.6796 14.3214 62.514 14.6212C62.3483 14.9211 62.2376 15.2355 62.1882 15.5468C62.1387 15.8581 62.1516 16.1601 62.2259 16.4354C62.3003 16.7108 62.4347 16.9542 62.6214 17.1517C62.8082 17.3492 63.0437 17.497 63.3145 17.5866C63.5853 17.6762 63.8861 17.7058 64.1996 17.6738C64.5132 17.6419 64.8334 17.5489 65.142 17.4002C65.4506 17.2516 65.7415 17.0501 65.9982 16.8074C66.2549 16.5647 66.4723 16.2854 66.6379 15.9856C66.8036 15.6858 66.9143 15.3712 66.9637 15.06C67.0132 14.7487 67.0003 14.4467 66.9259 14.1713C66.8516 13.896 66.7172 13.6526 66.5304 13.4551ZM88.2403 15.6127C87.8376 15.086 87.217 14.76 86.5151 14.7065C85.8132 14.653 85.0875 14.8764 84.4975 15.3274C84.2054 15.5507 83.9555 15.8233 83.7619 16.1294C83.5683 16.4355 83.4349 16.7693 83.3694 17.1116C83.3038 17.454 83.3074 17.7982 83.3798 18.1246C83.4522 18.451 83.5921 18.7533 83.7915 19.0141C84.1943 19.5408 84.8149 19.8668 85.5168 19.9203C86.2187 19.9738 86.9444 19.7504 87.5343 19.2994C87.8265 19.0761 88.0764 18.8036 88.27 18.4975C88.4636 18.1913 88.597 17.8575 88.6625 17.5152C88.7281 17.1728 88.7245 16.8286 88.6521 16.5022C88.5797 16.1758 88.4397 15.8735 88.2403 15.6127ZM37.376 25.0234C37.516 25.108 37.6695 25.1679 37.8265 25.1993C37.9835 25.2306 38.1403 25.2327 38.2867 25.2053C38.4331 25.1779 38.5658 25.1217 38.6759 25.0404C38.7861 24.959 38.8713 24.8544 38.9259 24.7334L40.866 20.4234C40.892 20.3631 40.8991 20.2969 40.8868 20.2301C40.8744 20.1633 40.8429 20.0975 40.7947 20.0377C40.7465 19.978 40.6829 19.9257 40.6086 19.8851C40.5343 19.8445 40.4513 19.8166 40.366 19.8034C37.356 19.3734 34.446 23.2534 37.376 25.0234ZM16.4958 45.922C17.2318 46.3117 18.1758 46.2357 19.12 45.7107C20.0643 45.1857 20.9315 44.2548 21.5309 43.1227C22.1303 41.9906 22.4129 40.7501 22.3163 39.674C22.2198 38.598 21.752 37.7745 21.016 37.3848C20.2801 36.9951 19.3361 37.0712 18.3918 37.5961C17.4476 38.1211 16.5804 39.052 15.9809 40.1841C15.3815 41.3162 15.099 42.5568 15.1956 43.6328C15.2922 44.7089 15.7599 45.5323 16.4958 45.922ZM9.05595 72.7334C9.43519 72.9152 9.87137 72.9395 10.2713 72.8012C10.6712 72.6629 11.0031 72.373 11.196 71.9934C12.1693 70.0868 12.7159 68.0567 12.8359 65.9034C12.9359 64.1101 12.2059 63.6501 10.6459 64.5234C8.18592 65.9134 5.51595 71.0134 9.05595 72.7334ZM12.0998 96.3035C12.2849 96.4898 12.5278 96.6152 12.8147 96.6723C13.1016 96.7293 13.4268 96.7171 13.7718 96.6362C14.1168 96.5553 14.4749 96.4074 14.8255 96.2009C15.1761 95.9944 15.5124 95.7333 15.8152 95.4325C16.1181 95.1318 16.3815 94.7973 16.5905 94.4481C16.7995 94.099 16.9499 93.742 17.0331 93.3975C17.1164 93.0531 17.1309 92.728 17.0758 92.4407C17.0207 92.1534 16.8971 91.9096 16.712 91.7233C16.5269 91.5369 16.2841 91.4117 15.9972 91.3546C15.7103 91.2975 15.3851 91.3097 15.0401 91.3906C14.6951 91.4715 14.337 91.6194 13.9864 91.8259C13.6358 92.0325 13.2995 92.2936 12.9966 92.5943C12.6938 92.8951 12.4304 93.2295 12.2214 93.5787C12.0125 93.9278 11.862 94.2849 11.7787 94.6293C11.6955 94.9737 11.681 95.2989 11.7361 95.5861C11.7912 95.8734 11.9148 96.1171 12.0998 96.3035Z" fill="#2C2737"/>
<path d="M65.9982 16.8077C67.0777 15.7869 67.316 14.2861 66.5305 13.4554C65.745 12.6248 64.2331 12.7789 63.1537 13.7997C62.0743 14.8205 61.836 16.3213 62.6215 17.152C63.407 17.9826 64.9188 17.8285 65.9982 16.8077Z" fill="#F9F9F9"/>
<path d="M87.5347 19.2997C88.7632 18.3605 89.0792 16.7099 88.2406 15.6131C87.402 14.5162 85.7263 14.3884 84.4978 15.3277C83.2693 16.2669 82.9533 17.9175 83.7919 19.0144C84.6305 20.1112 86.3062 20.239 87.5347 19.2997Z" fill="#EAE9EA"/>
<path d="M37.3759 25.0235C34.4459 23.2535 37.3559 19.3735 40.3659 19.8035C40.4513 19.8167 40.5342 19.8447 40.6085 19.8853C40.6828 19.9259 40.7465 19.9781 40.7947 20.0378C40.8429 20.0976 40.8744 20.1634 40.8867 20.2302C40.8991 20.2971 40.892 20.3632 40.8659 20.4235L38.9259 24.7335C38.8713 24.8545 38.7861 24.9591 38.6759 25.0405C38.5658 25.1218 38.4331 25.1781 38.2867 25.2054C38.1403 25.2328 37.9835 25.2308 37.8265 25.1994C37.6695 25.168 37.516 25.1081 37.3759 25.0235Z" fill="#F9F9F9"/>
<path d="M113.855 26.8735L115.605 28.8735C115.119 28.9802 114.789 29.1702 114.615 29.4435C106.755 41.6935 99.2055 49.4735 90.3155 58.9135C83.6955 66.1202 76.6921 72.9169 69.3055 79.3035C60.3155 87.0735 49.1755 94.3735 38.8555 101.624C31.4288 106.31 23.7088 110.424 15.6955 113.964L14.8555 112.953C15.0055 111.823 15.2655 110.963 16.3555 110.333C23.1888 106.347 29.6188 101.79 35.6454 96.6635C37.4521 97.1902 38.4521 96.6068 38.6454 94.9135C53.7954 84.3435 71.8655 71.0235 85.0455 56.6535C86.3855 55.1835 87.9255 52.4235 90.3155 50.8035C90.6105 50.6047 90.8116 50.339 90.8755 50.0635C90.9622 49.6702 90.9688 49.2868 90.8954 48.9135C92.0754 48.6735 92.9988 47.9868 93.6655 46.8535C100.045 39.9002 106.775 33.2402 113.855 26.8735Z" fill="#E67A5B"/>
<path d="M115.605 28.8735C131.685 50.0735 134.725 76.9435 123.885 101.214C116.295 118.193 100.905 127.243 83.6453 131.633C78.2553 133.003 72.4253 134.764 67.1353 135.164C46.9553 136.664 28.4053 130.063 15.6953 113.964C23.7086 110.424 31.4286 106.31 38.8553 101.624L39.6053 101.953C47.1653 108.773 57.6853 113.594 68.1053 111.404C84.9986 107.85 96.3086 98.1668 102.035 82.3535C105.815 71.9135 101.855 63.7535 97.5753 53.8735C97.5478 53.8094 97.5087 53.751 97.4601 53.7017C97.4116 53.6523 97.3545 53.6131 97.2923 53.5861C97.23 53.5592 97.1638 53.5451 97.0974 53.5446C97.031 53.5442 96.9657 53.5574 96.9053 53.5835C95.4986 54.1902 95.0753 55.1435 95.6353 56.4435C101.589 70.2569 100.672 82.3302 92.8853 92.6635C81.3453 107.964 58.0853 113.863 42.8153 100.083C47.9086 97.1435 52.9453 94.0902 57.9253 90.9235C64.5353 86.7135 70.6553 80.7735 77.2953 75.8535C79.9886 73.8535 84.7253 68.8202 91.5053 60.7535C91.6141 60.624 91.6857 60.4725 91.7107 60.3189C91.7357 60.1654 91.7128 60.017 91.6453 59.8935C91.3786 59.4135 90.9353 59.0868 90.3153 58.9135C99.2053 49.4735 106.755 41.6935 114.615 29.4435C114.789 29.1702 115.119 28.9802 115.605 28.8735Z" fill="#2C2737"/>
<path d="M93.6672 46.8538C93.0006 47.9871 92.0772 48.6738 90.8972 48.9138C85.7039 41.9338 78.9873 37.9005 70.7473 36.8138C47.2473 33.7238 32.0772 50.3338 33.0472 73.4738C33.4006 81.8071 35.2672 88.9538 38.6472 94.9138C38.4539 96.6071 37.4539 97.1905 35.6472 96.6638C26.6272 79.4938 26.5172 54.3938 42.3372 41.0038C57.5172 28.1538 82.0772 29.8638 93.6672 46.8538Z" fill="#FEFEFA"/>
<path d="M90.8939 48.9135C90.9672 49.2868 90.9606 49.6701 90.874 50.0635C90.81 50.3389 90.6089 50.6046 90.314 50.8035C87.924 52.4235 86.3839 55.1834 85.0439 56.6534C71.8639 71.0234 53.7939 84.3435 38.6439 94.9135C35.2639 88.9535 33.3973 81.8068 33.0439 73.4735C32.0739 50.3335 47.2439 33.7235 70.7439 36.8135C78.9839 37.9001 85.7006 41.9335 90.8939 48.9135Z" fill="#2C2737"/>
<path d="M15.9789 40.1845C14.7307 42.542 14.9612 45.1109 16.4938 45.9224C18.0264 46.7338 20.2807 45.4806 21.529 43.1231C22.7772 40.7656 22.5466 38.1967 21.014 37.3852C19.4814 36.5737 17.2271 37.827 15.9789 40.1845Z" fill="#F9F9F9"/>
<path d="M39.6055 101.953L42.8155 100.083C58.0855 113.863 81.3455 107.963 92.8855 92.6633C100.672 82.33 101.589 70.2567 95.6355 56.4434C95.0755 55.1434 95.4988 54.19 96.9055 53.5833C96.9659 53.5572 97.0312 53.544 97.0976 53.5444C97.164 53.5449 97.2302 53.559 97.2925 53.5859C97.3547 53.6129 97.4118 53.6522 97.4603 53.7015C97.5089 53.7508 97.548 53.8092 97.5754 53.8734C101.855 63.7534 105.815 71.9133 102.035 82.3533C96.3088 98.1667 84.9988 107.85 68.1055 111.403C57.6855 113.593 47.1655 108.773 39.6055 101.953Z" fill="#F9F9F9"/>
<path d="M90.3155 58.9136C90.9355 59.0869 91.3788 59.4136 91.6454 59.8936C91.713 60.017 91.7359 60.1654 91.7109 60.319C91.6859 60.4725 91.6143 60.6241 91.5055 60.7536C84.7255 68.8203 79.9888 73.8536 77.2955 75.8536C70.6555 80.7736 64.5355 86.7136 57.9255 90.9236C52.9455 94.0903 47.9088 97.1436 42.8155 100.084L39.6055 101.954L38.8555 101.624C49.1755 94.3736 60.3155 87.0736 69.3055 79.3036C76.6921 72.9169 83.6955 66.1202 90.3155 58.9136Z" fill="#49231F"/>
<path d="M9.05392 72.7338C5.51392 71.0138 8.18389 65.9138 10.6439 64.5238C12.2039 63.6504 12.9339 64.1104 12.8339 65.9038C12.7139 68.0571 12.1673 70.0871 11.1939 71.9938C11.0011 72.3734 10.6692 72.6633 10.2693 72.8016C9.86934 72.9399 9.43315 72.9155 9.05392 72.7338Z" fill="#F9F9F9"/>
<path d="M12.9965 92.5944C11.7228 93.8591 11.3213 95.5198 12.0996 96.3036C12.8779 97.0873 14.5414 96.6974 15.815 95.4326C17.0886 94.1679 17.4901 92.5072 16.7118 91.7234C15.9335 90.9397 14.2701 91.3296 12.9965 92.5944Z" fill="#FEFEFA"/>
</svg>
