<svg width="92" height="102" viewBox="0 0 92 102" fill="none" xmlns="http://www.w3.org/2000/svg">
<path d="M44.5483 3.02429C24.3683 12.0143 15.0483 34.9543 9.98833 55.1943C9.97365 55.2469 9.97269 55.3024 9.98553 55.3555C9.99836 55.4086 10.0245 55.4575 10.0616 55.4976C10.0987 55.5377 10.1455 55.5676 10.1974 55.5846C10.2494 55.6015 10.3047 55.6048 10.3583 55.5943C18.4383 54.1343 25.8084 48.1543 29.2184 40.6643C33.7384 30.7243 38.4183 21.4343 47.4283 14.8243C52.5683 11.0543 59.9284 8.57429 66.2784 6.08429C66.745 5.89762 66.7717 5.66096 66.3583 5.3743C59.305 0.474295 52.035 -0.309044 44.5483 3.02429Z" stroke="#FDEA98" stroke-width="2"/>
<path d="M40.1183 40.3643C34.3583 53.6743 24.0283 65.3843 8.35829 65.0343C8.20916 65.0316 8.06458 65.0771 7.94954 65.1629C7.8345 65.2487 7.75623 65.3695 7.72828 65.5043L5.72828 74.9543C5.71366 75.0207 5.71589 75.0895 5.73475 75.1558C5.75362 75.222 5.78867 75.2842 5.83742 75.3377C5.88616 75.3912 5.94737 75.4348 6.01668 75.4653C6.08598 75.4959 6.16167 75.5126 6.23829 75.5143C15.1716 75.6743 23.745 74.0443 31.9583 70.6243C47.4183 64.1943 49.0683 48.0143 57.3283 35.7943C62.4883 28.1443 70.5483 23.3443 79.0083 19.3843C79.0605 19.3603 79.1065 19.3248 79.143 19.2805C79.1795 19.2361 79.2054 19.1841 79.2189 19.1283C79.2324 19.0724 79.233 19.0143 79.2208 18.9582C79.2086 18.9021 79.1838 18.8495 79.1483 18.8043L74.2983 12.6743C74.2352 12.5953 74.157 12.5297 74.0684 12.4815C73.9799 12.4334 73.883 12.4037 73.7836 12.3943C73.6843 12.385 73.5847 12.3961 73.4909 12.4271C73.3971 12.458 73.3111 12.5081 73.2383 12.5743C67.8283 17.4243 58.6683 18.9543 53.8183 21.7743C47.4083 25.5143 42.9683 33.7643 40.1183 40.3643Z" stroke="#FDEA98" stroke-width="2"/>
<path d="M83.6458 26.5342C74.7758 34.5642 66.6258 35.4142 62.0858 47.2342C58.2758 57.1442 53.5158 68.1742 44.6358 74.7642C35.0458 81.8942 22.3457 84.3842 10.2457 84.6542C7.46574 84.7142 5.20577 84.5309 3.46577 84.1042C3.39113 84.086 3.31395 84.0811 3.23885 84.09C3.16375 84.0989 3.09228 84.1213 3.02876 84.1558C2.96524 84.1904 2.91097 84.2364 2.86922 84.2911C2.82746 84.3458 2.79909 84.4081 2.78578 84.4742L1.01576 93.9642C0.985745 94.1307 0.998764 94.2999 1.05342 94.4533C1.10808 94.6067 1.20228 94.7384 1.32576 94.8342C5.53576 98.1942 16.5657 97.9142 22.2257 97.7142C22.3168 97.7119 22.4069 97.6986 22.4908 97.6751C22.5747 97.6516 22.6506 97.6183 22.714 97.5773C22.7774 97.5363 22.8271 97.4883 22.86 97.4362C22.8929 97.3841 22.9085 97.329 22.9058 97.2742L22.7158 94.7142C22.7063 94.5907 22.744 94.4557 22.825 94.3237C22.906 94.1916 23.0272 94.0674 23.1757 93.9642C32.1157 87.6642 39.1657 85.5342 48.2357 82.3342C55.5857 79.7442 61.2858 75.2742 64.9458 68.8942C70.6058 59.0675 76.2191 49.2175 81.7858 39.3442C83.0791 37.0509 84.9791 35.7109 87.4857 35.3242C87.5688 35.3123 87.6479 35.281 87.7166 35.2326C87.7853 35.1841 87.8417 35.12 87.8815 35.0453C87.9213 34.9706 87.9433 34.8873 87.9458 34.802C87.9483 34.7168 87.9311 34.6319 87.8958 34.5542L84.4658 26.7742C84.4298 26.6945 84.3773 26.6228 84.3125 26.5651C84.2477 26.5073 84.1724 26.4651 84.0926 26.4417C84.0128 26.4184 83.9308 26.4146 83.8532 26.4307C83.7756 26.4467 83.7046 26.4822 83.6458 26.5342Z" stroke="#FDEA98" stroke-width="2"/>
<path d="M34.8186 98.2443C51.6686 102.664 72.1586 103.674 81.2686 85.2443C87.4286 72.8043 90.5386 59.5243 90.5986 45.4043C90.5986 45.2709 90.5753 45.1576 90.5286 45.0643C90.462 44.9376 90.392 44.8376 90.3187 44.7643C90.2772 44.7236 90.2248 44.6967 90.1654 44.6853C90.1059 44.6739 90.0407 44.6785 89.9747 44.6986C89.9087 44.7187 89.8434 44.7538 89.7835 44.8015C89.7237 44.8492 89.6708 44.9082 89.6286 44.9743C84.5886 52.8409 79.9686 60.9343 75.7686 69.2543C72.3686 76.0076 69.992 80.2109 68.6386 81.8643C61.6786 90.4043 51.8586 92.0643 39.1986 95.5343C37.6386 95.9543 35.9986 96.9343 34.7386 97.8143C34.4586 98.0143 34.4853 98.1576 34.8186 98.2443Z" stroke="#FDEA98" stroke-width="2"/>
<path d="M9.98833 55.1943C15.0483 34.9543 24.3683 12.0143 44.5483 3.02429C52.035 -0.309044 59.305 0.474295 66.3583 5.3743C66.7717 5.66096 66.745 5.89762 66.2784 6.08429C59.9284 8.57429 52.5683 11.0543 47.4283 14.8243C38.4183 21.4343 33.7384 30.7243 29.2184 40.6643C25.8084 48.1543 18.4383 54.1343 10.3583 55.5943C10.3047 55.6048 10.2494 55.6015 10.1974 55.5846C10.1455 55.5676 10.0987 55.5377 10.0616 55.4976C10.0245 55.4575 9.99836 55.4086 9.98553 55.3555C9.97269 55.3024 9.97365 55.2469 9.98833 55.1943Z" fill="#FBD63C"/>
<path d="M40.1183 40.3643C42.9683 33.7643 47.4083 25.5143 53.8183 21.7743C58.6683 18.9543 67.8283 17.4243 73.2383 12.5743C73.3111 12.5081 73.3971 12.458 73.4909 12.4271C73.5847 12.3961 73.6843 12.385 73.7836 12.3943C73.883 12.4037 73.9799 12.4334 74.0684 12.4815C74.157 12.5297 74.2352 12.5953 74.2983 12.6743L79.1483 18.8043C79.1838 18.8495 79.2085 18.9021 79.2208 18.9582C79.233 19.0143 79.2324 19.0724 79.2189 19.1283C79.2054 19.1841 79.1795 19.2361 79.143 19.2805C79.1065 19.3248 79.0605 19.3603 79.0083 19.3843C70.5483 23.3443 62.4883 28.1443 57.3283 35.7943C49.0683 48.0143 47.4183 64.1943 31.9583 70.6243C23.745 74.0443 15.1716 75.6743 6.23829 75.5143C6.16167 75.5126 6.08598 75.4959 6.01668 75.4653C5.94737 75.4348 5.88616 75.3912 5.83742 75.3377C5.78867 75.2842 5.75362 75.222 5.73475 75.1558C5.71589 75.0895 5.71366 75.0207 5.72828 74.9543L7.72828 65.5043C7.75623 65.3695 7.8345 65.2487 7.94954 65.1629C8.06458 65.0771 8.20916 65.0316 8.35829 65.0343C24.0283 65.3843 34.3583 53.6743 40.1183 40.3643Z" fill="#FBD63C"/>
<path d="M83.6497 26.5342C83.7085 26.4822 83.7795 26.4467 83.8571 26.4307C83.9347 26.4146 84.0167 26.4184 84.0965 26.4417C84.1763 26.4651 84.2516 26.5073 84.3164 26.5651C84.3812 26.6228 84.4337 26.6945 84.4697 26.7742L87.8997 34.5542C87.935 34.6319 87.9522 34.7168 87.9497 34.802C87.9473 34.8873 87.9252 34.9706 87.8854 35.0453C87.8456 35.12 87.7892 35.1841 87.7205 35.2326C87.6518 35.281 87.5727 35.3123 87.4896 35.3242C84.983 35.7109 83.083 37.0509 81.7897 39.3442C76.223 49.2175 70.6097 59.0675 64.9497 68.8942C61.2897 75.2742 55.5896 79.7442 48.2396 82.3342C39.1696 85.5342 32.1196 87.6642 23.1796 93.9642C23.0311 94.0674 22.9099 94.1916 22.8289 94.3237C22.7479 94.4557 22.7102 94.5907 22.7197 94.7142L22.9097 97.2742C22.9124 97.329 22.8968 97.3841 22.8639 97.4362C22.831 97.4883 22.7813 97.5363 22.7179 97.5773C22.6545 97.6183 22.5786 97.6516 22.4947 97.6751C22.4108 97.6986 22.3207 97.7119 22.2296 97.7142C16.5696 97.9142 5.53967 98.1942 1.32967 94.8342C1.20618 94.7384 1.11198 94.6067 1.05733 94.4533C1.00267 94.2999 0.989651 94.1307 1.01967 93.9642L2.78969 84.4742C2.80299 84.4081 2.83137 84.3458 2.87312 84.2911C2.91488 84.2364 2.96915 84.1904 3.03267 84.1558C3.09619 84.1213 3.16765 84.0989 3.24275 84.09C3.31785 84.0811 3.39504 84.086 3.46968 84.1042C5.20968 84.5309 7.46965 84.7142 10.2496 84.6542C22.3496 84.3842 35.0497 81.8942 44.6397 74.7642C53.5197 68.1742 58.2797 57.1442 62.0897 47.2342C66.6297 35.4142 74.7797 34.5642 83.6497 26.5342Z" fill="#FBD63C"/>
<path d="M34.8186 98.2443C34.4853 98.1576 34.4586 98.0143 34.7386 97.8143C35.9986 96.9343 37.6386 95.9543 39.1986 95.5343C51.8586 92.0643 61.6786 90.4043 68.6386 81.8643C69.992 80.2109 72.3686 76.0076 75.7686 69.2543C79.9686 60.9343 84.5886 52.8409 89.6286 44.9743C89.6708 44.9082 89.7237 44.8492 89.7835 44.8015C89.8434 44.7538 89.9087 44.7187 89.9747 44.6986C90.0407 44.6785 90.1059 44.6739 90.1654 44.6853C90.2248 44.6967 90.2772 44.7236 90.3187 44.7643C90.392 44.8376 90.462 44.9376 90.5286 45.0643C90.5753 45.1576 90.5986 45.2709 90.5986 45.4043C90.5386 59.5243 87.4286 72.8043 81.2686 85.2443C72.1586 103.674 51.6686 102.664 34.8186 98.2443Z" fill="#FBD63C"/>
</svg>
