<svg width="268" height="170" viewBox="0 0 268 170" fill="none" xmlns="http://www.w3.org/2000/svg">
<path d="M1.07332 17.4967C0.143316 23.5667 8.80334 23.3067 12.4133 23.4167C28.56 23.8967 39.56 24.5634 45.4133 25.4167C51.8433 26.3567 56.0733 30.5267 61.3933 35.6867C71.9 45.8601 78.65 58.2734 81.6433 72.9267C85.4533 91.5667 90.8434 109.597 107.433 119.677C116.893 125.417 131.053 127.517 142.093 126.907C167.123 125.517 195.743 113.897 217.943 132.957C219.797 134.55 221.437 136.623 222.863 139.177C228.663 149.587 230.103 161.047 241.073 167.287C250.573 172.687 261.913 163.767 265.273 155.127C273.463 134.047 237.583 111.817 222.683 104.577C207.203 97.0667 193.773 92.7067 179.163 92.6967C162.237 92.6701 152.073 92.5501 148.673 92.3367C134.213 91.4367 122.963 85.9967 117.463 72.1067C114.653 65.0267 112.103 54.9567 107.673 47.4467C100.853 35.8934 92.72 25.3567 83.2733 15.8367C71.9933 4.46672 58.5433 -0.423281 42.4033 1.35672C34.6133 2.20672 2.53332 7.86672 1.07332 17.4967Z" stroke="#8C8A91" stroke-width="2"/>
<path d="M1.06941 17.4967C2.52941 7.86672 34.6094 2.20672 42.3994 1.35672C58.5394 -0.423281 71.9894 4.46672 83.2694 15.8367C92.7161 25.3567 100.849 35.8934 107.669 47.4467C112.099 54.9567 114.649 65.0267 117.459 72.1067C122.959 85.9967 134.209 91.4367 148.669 92.3367C152.069 92.5501 162.233 92.6701 179.159 92.6967C193.769 92.7067 207.199 97.0667 222.679 104.577C237.579 111.817 273.459 134.047 265.269 155.127C261.909 163.767 250.569 172.687 241.069 167.287C230.099 161.047 228.659 149.587 222.859 139.177C221.433 136.623 219.793 134.55 217.939 132.957C195.739 113.897 167.119 125.517 142.089 126.907C131.049 127.517 116.889 125.417 107.429 119.677C90.8395 109.597 85.4494 91.5667 81.6394 72.9267C78.6461 58.2734 71.8961 45.8601 61.3894 35.6867C56.0694 30.5267 51.8394 26.3567 45.4094 25.4167C39.5561 24.5634 28.5561 23.8967 12.4094 23.4167C8.79944 23.3067 0.13941 23.5667 1.06941 17.4967Z" fill="#1A1526"/>
</svg>
