<svg width="89" height="225" viewBox="0 0 89 225" fill="none" xmlns="http://www.w3.org/2000/svg">
<path d="M70.9174 44.8139C57.5307 45.1672 44.6507 42.9239 32.2773 38.0839C39.6707 25.0839 48.2307 12.8272 57.9574 1.31387C59.6507 -0.686134 60.764 -0.402794 61.2974 2.16387C63.664 13.5505 66.4407 24.8939 69.6274 36.1939C69.9807 37.4539 70.4107 40.3272 70.9174 44.8139Z" fill="#151E30"/>
<path d="M32.2783 38.084C44.6516 42.924 57.5316 45.1673 70.9183 44.814C72.0783 49.4473 73.3816 54.3507 74.8283 59.524C76.3783 65.064 77.3083 71.514 79.0083 77.444C81.6783 86.814 83.7783 97.184 82.0683 107.294C81.9483 108.004 82.1783 108.404 82.8083 108.674H81.5583C80.1483 108.404 78.9883 107.924 77.5483 107.964C70.4683 108.174 64.4683 106.464 56.5583 105.724C50.7916 105.184 41.875 103.351 29.8083 100.224C22.9816 98.4573 16.9116 95.8707 11.5983 92.464C10.6916 91.224 9.65495 90.5007 8.48828 90.294C9.66828 88.554 10.4183 86.6807 10.7383 84.674C11.1316 82.2007 11.4683 80.5707 11.7483 79.784C17.0083 65.1773 23.8516 51.2773 32.2783 38.084ZM28.1583 84.364C38.6583 74.794 52.2683 77.744 62.8783 85.444C64.5583 86.664 66.2183 87.124 67.2283 84.894C67.7349 83.774 67.0483 82.5973 65.1683 81.364C59.0883 77.384 52.4983 75.1107 45.3983 74.544C40.1683 74.134 26.2683 76.824 25.5983 83.504C25.5769 83.7036 25.5907 83.8946 25.6382 84.0566C25.6858 84.2187 25.7653 84.3457 25.8683 84.424C26.2883 84.744 26.7716 84.8373 27.3183 84.704C27.7583 84.5906 28.0383 84.4773 28.1583 84.364ZM51.9611 90.7535C52.0249 90.5547 51.9867 90.3252 51.8485 90.0782C51.7104 89.8313 51.475 89.5716 51.1559 89.3141C50.8368 89.0566 50.4401 88.8062 49.9886 88.5773C49.5371 88.3484 49.0396 88.1455 48.5244 87.9801C48.0093 87.8147 47.4866 87.6901 46.9862 87.6133C46.4858 87.5366 46.0176 87.5093 45.6082 87.5329C45.1987 87.5565 44.8562 87.6307 44.6001 87.751C44.344 87.8714 44.1793 88.0357 44.1155 88.2345C44.0516 88.4333 44.0899 88.6628 44.228 88.9097C44.3662 89.1567 44.6016 89.4164 44.9207 89.6739C45.2398 89.9314 45.6364 90.1818 46.088 90.4106C46.5395 90.6395 47.037 90.8425 47.5522 91.0079C48.0673 91.1733 48.59 91.2979 49.0904 91.3746C49.5908 91.4514 50.059 91.4787 50.4684 91.4551C50.8778 91.4315 51.2204 91.3573 51.4765 91.2369C51.7326 91.1166 51.8972 90.9523 51.9611 90.7535ZM71.9615 95.9927C72.0441 95.6614 72.0441 95.3129 71.9614 94.9672C71.8788 94.6215 71.7151 94.2853 71.4798 93.9778C71.2445 93.6703 70.9421 93.3975 70.5899 93.175C70.2377 92.9526 69.8427 92.7848 69.4273 92.6812C69.0119 92.5776 68.5843 92.5403 68.1689 92.5714C67.7535 92.6025 67.3585 92.7014 67.0063 92.8624C66.6542 93.0235 66.3519 93.2434 66.1166 93.5099C65.8813 93.7763 65.7177 94.084 65.6351 94.4153C65.5525 94.7466 65.5525 95.0951 65.6351 95.4408C65.7178 95.7865 65.8814 96.1227 66.1168 96.4302C66.3521 96.7377 66.6545 97.0105 67.0067 97.233C67.3588 97.4554 67.7539 97.6232 68.1693 97.7268C68.5847 97.8304 69.0123 97.8676 69.4277 97.8365C69.8431 97.8055 70.2381 97.7066 70.5902 97.5456C70.9423 97.3846 71.2447 97.1645 71.48 96.8981C71.7153 96.6316 71.8789 96.324 71.9615 95.9927Z" fill="#FE6E59"/>
<path d="M8.48626 90.2942C9.65292 90.5008 10.6896 91.2241 11.5962 92.4641L10.2862 94.4041C10.2501 94.4597 10.2271 94.523 10.2186 94.5904C10.2101 94.6578 10.2163 94.7279 10.2367 94.7968C10.2572 94.8656 10.2915 94.9318 10.3378 94.9914C10.3841 95.0511 10.4414 95.103 10.5063 95.1441C14.9729 97.9775 19.7496 100.141 24.8363 101.634C41.143 106.421 57.7996 109.187 74.8063 109.934C75.1194 109.947 75.4391 109.864 75.7262 109.694C77.4662 108.661 79.4096 108.321 81.5563 108.674H82.8063C90.5663 109.664 90.7163 118.614 83.2963 120.684C73.9863 123.274 64.6462 122.704 55.2862 121.254C54.9281 121.198 54.5617 121.275 54.2547 121.47C53.9478 121.665 53.721 121.965 53.6163 122.314C48.4163 139.654 43.3562 157.014 37.9062 174.224C34.0996 186.237 31.7396 198.561 30.8263 211.194C30.3063 218.444 26.6163 224.924 18.8563 224.374C5.84625 223.444 0.0562567 214.954 0.486257 202.674C1.11626 184.904 10.3663 173.184 14.8363 156.354C18.4896 142.621 22.4796 128.984 26.8063 115.444C26.8353 115.352 26.8452 115.255 26.8354 115.159C26.8256 115.063 26.7963 114.971 26.7494 114.887C26.7024 114.803 26.6388 114.731 26.5626 114.673C26.4863 114.616 26.399 114.576 26.3063 114.554C19.0563 112.794 -1.40372 106.634 0.0762835 96.0542C0.636284 92.0475 3.43959 90.1275 8.48626 90.2942Z" fill="#151E30"/>
<path d="M11.5962 92.4639C16.9095 95.8705 22.9795 98.4572 29.8062 100.224C41.8729 103.351 50.7895 105.184 56.5562 105.724C64.4662 106.464 70.4662 108.174 77.5462 107.964C78.9862 107.924 80.1462 108.404 81.5562 108.674C79.4095 108.321 77.4662 108.661 75.7262 109.694C75.439 109.864 75.1194 109.947 74.8062 109.934C57.7995 109.187 41.1429 106.421 24.8362 101.634C19.7496 100.141 14.9729 97.9772 10.5062 95.1439C10.4413 95.1027 10.384 95.0508 10.3378 94.9911C10.2915 94.9315 10.2571 94.8654 10.2367 94.7965C10.2162 94.7277 10.21 94.6575 10.2186 94.5901C10.2271 94.5227 10.25 94.4594 10.2862 94.4039L11.5962 92.4639Z" fill="#381414"/>
<path d="M62.8797 85.4438C52.2697 77.7438 38.6596 74.7938 28.1596 84.3638C28.0396 84.4772 27.7597 84.5905 27.3197 84.7038C26.773 84.8371 26.2897 84.7438 25.8697 84.4238C25.7667 84.3455 25.6872 84.2185 25.6396 84.0565C25.5921 83.8944 25.5782 83.7034 25.5996 83.5038C26.2696 76.8238 40.1697 74.1338 45.3997 74.5438C52.4997 75.1105 59.0896 77.3838 65.1696 81.3638C67.0496 82.5972 67.7363 83.7738 67.2296 84.8938C66.2196 87.1238 64.5597 86.6638 62.8797 85.4438Z" fill="#421414"/>
<path d="M51.9615 90.7532C51.8977 90.952 51.7331 91.1163 51.477 91.2367C51.2209 91.3571 50.8783 91.4312 50.4689 91.4548C50.0595 91.4785 49.5912 91.4511 49.0909 91.3744C48.5905 91.2977 48.0678 91.173 47.5527 91.0076C47.0375 90.8422 46.5399 90.6393 46.0884 90.4104C45.6369 90.1815 45.2403 89.9312 44.9212 89.6736C44.6021 89.4161 44.3667 89.1564 44.2285 88.9095C44.0903 88.6625 44.0521 88.4331 44.116 88.2342C44.1798 88.0354 44.3445 87.8712 44.6006 87.7508C44.8567 87.6304 45.1992 87.5563 45.6086 87.5326C46.018 87.509 46.4863 87.5364 46.9867 87.6131C47.487 87.6898 48.0097 87.8145 48.5249 87.9799C49.04 88.1453 49.5375 88.3482 49.9891 88.5771C50.4406 88.806 50.8372 89.0563 51.1564 89.3138C51.4755 89.5714 51.7108 89.831 51.849 90.078C51.9871 90.325 52.0254 90.5544 51.9615 90.7532Z" fill="#6B1D10"/>
<path d="M71.9626 95.9924C71.88 96.3237 71.7164 96.6314 71.4811 96.8978C71.2458 97.1643 70.9434 97.3843 70.5913 97.5454C70.2392 97.7064 69.8442 97.8052 69.4288 97.8363C69.0134 97.8674 68.5858 97.8301 68.1704 97.7266C67.755 97.623 67.3599 97.4552 67.0077 97.2327C66.6556 97.0103 66.3532 96.7374 66.1178 96.4299C65.8825 96.1224 65.7189 95.7863 65.6362 95.4406C65.5536 95.0948 65.5535 94.7463 65.6362 94.415C65.7188 94.0837 65.8824 93.7761 66.1177 93.5096C66.3529 93.2432 66.6553 93.0232 67.0074 92.8622C67.3596 92.7012 67.7546 92.6023 68.17 92.5712C68.5854 92.5401 69.013 92.5774 69.4284 92.681C69.8438 92.7845 70.2388 92.9523 70.591 93.1748C70.9432 93.3973 71.2456 93.67 71.4809 93.9775C71.7162 94.285 71.8799 94.6213 71.9625 94.967C72.0452 95.3127 72.0452 95.6611 71.9626 95.9924Z" fill="#6B1D10"/>
</svg>
