<svg width="52" height="160" viewBox="0 0 52 160" fill="none" xmlns="http://www.w3.org/2000/svg">
<path d="M4.00873 27.7119L2.71875 41.3319" stroke="#FFB5A6" stroke-width="2"/>
<path d="M2.71889 41.332C1.17889 43.932 1.08887 46.7854 2.44887 49.892" stroke="#8F929F" stroke-width="2"/>
<path d="M2.44922 49.8926C3.38255 58.2659 3.48588 66.7893 2.75922 75.4626" stroke="#FFB5A6" stroke-width="2"/>
<path d="M2.75958 75.4619C0.332908 79.2619 0.416242 82.8952 3.00958 86.3619" stroke="#8F929F" stroke-width="2"/>
<path d="M3.00781 86.3623L3.68781 97.8723" stroke="#FFB5A6" stroke-width="2"/>
<path d="M3.69149 97.8721C2.51816 102.045 2.75819 105.722 4.41152 108.902" stroke="#9496A2" stroke-width="2"/>
<path d="M4.41016 108.902C5.25682 117.689 6.61015 126.112 8.47015 134.172" stroke="#FFB5A6" stroke-width="2"/>
<path d="M8.46813 134.172C7.98813 136.832 8.31477 139.695 9.44811 142.762C12.7481 151.692 18.6281 164.042 30.4181 156.682C36.7048 152.755 40.0681 146.762 40.5081 138.702" stroke="#8F929F" stroke-width="2"/>
<path d="M40.5078 138.702C44.6145 130.442 46.6712 121.625 46.6779 112.252" stroke="#FFB5A6" stroke-width="2"/>
<path d="M46.6797 112.252C48.673 109.212 49.173 105.865 48.1797 102.212" stroke="#9496A2" stroke-width="2"/>
<path d="M48.1797 102.213L49.2697 89.3027" stroke="#FFB5A6" stroke-width="2"/>
<path d="M49.2682 89.3027C50.0182 87.4127 52.0383 77.9427 48.7383 78.2927" stroke="#8F929F" stroke-width="2"/>
<path d="M48.7406 78.2919C48.5806 70.1252 48.8106 62.0152 49.4306 53.9619" stroke="#FFB5A6" stroke-width="2"/>
<path d="M49.4297 53.9619C51.3497 50.9219 51.433 47.8386 49.6797 44.7119" stroke="#8F929F" stroke-width="2"/>
<path d="M49.6807 44.7126C48.9073 39.9993 48.4773 35.2393 48.3906 30.4326" stroke="#FFB5A6" stroke-width="2"/>
<path d="M48.3902 30.432C48.3702 24.572 47.2636 18.902 45.0702 13.422C42.8902 7.96202 38.0902 2.42204 31.7802 2.44204C31.4624 2.44186 31.1522 2.33259 30.9002 2.13205C27.5302 -0.467953 17.6103 2.01203 14.0503 3.58203C5.35026 7.44203 3.94022 19.852 4.01022 27.712" stroke="#8F929F" stroke-width="2"/>
<path d="M48.3878 30.4319C44.7478 32.8786 40.5245 34.0019 35.7178 33.8019C25.0878 33.3619 11.0278 33.7419 4.00781 27.7119" stroke="#904949" stroke-width="2"/>
<path d="M49.6788 44.712C33.8054 46.672 18.1521 45.5454 2.71875 41.332" stroke="#904949" stroke-width="2"/>
<path d="M49.4293 53.9626C43.9626 54.5226 37.3326 54.6559 29.5392 54.3626C19.6926 53.9826 10.6626 52.4926 2.44922 49.8926" stroke="#904949" stroke-width="2"/>
<path d="M48.7379 78.2919C39.5245 79.9719 30.1112 80.3653 20.4979 79.4719C14.5579 78.9219 8.70781 77.0419 2.75781 75.4619" stroke="#904949" stroke-width="2"/>
<path d="M49.2678 89.3023C33.6678 90.609 18.2478 89.629 3.00781 86.3623" stroke="#904949" stroke-width="2"/>
<path d="M48.1815 102.212C43.6615 103.122 38.6715 102.652 34.6815 102.902C22.9615 103.622 13.4614 99.4221 3.69141 97.8721" stroke="#944C4C" stroke-width="2"/>
<path d="M46.6802 112.252C42.6702 112.612 39.3601 113.772 35.3901 113.392C24.9901 112.392 14.6635 110.896 4.41016 108.902" stroke="#944C4C" stroke-width="2"/>
<path d="M40.5087 138.703C33.2421 139.003 26.1488 138.343 19.2288 136.723C16.6188 136.113 13.9688 137.233 11.2488 134.973C10.3388 134.213 9.57875 134.113 8.46875 134.173" stroke="#904949" stroke-width="2"/>
<path d="M48.3902 30.432C44.7502 32.8787 40.5269 34.002 35.7202 33.802C25.0902 33.362 11.0302 33.742 4.01022 27.712C3.94022 19.852 5.35026 7.44203 14.0503 3.58203C17.6103 2.01203 27.5302 -0.467953 30.9002 2.13205C31.1522 2.33259 31.4624 2.44186 31.7802 2.44204C38.0902 2.42204 42.8902 7.96202 45.0702 13.422C47.2636 18.902 48.3702 24.572 48.3902 30.432Z" fill="#202641"/>
<path d="M4.00873 27.7119C11.0287 33.7419 25.0887 33.3619 35.7188 33.8019C40.5254 34.0019 44.7487 32.8786 48.3887 30.4319C48.4754 35.2386 48.9054 39.9986 49.6788 44.7119C33.8054 46.6719 18.1521 45.5452 2.71875 41.3319L4.00873 27.7119Z" fill="#FF6B50"/>
<path d="M2.71889 41.332C18.1522 45.5454 33.8056 46.672 49.6789 44.712C51.4322 47.8387 51.3489 50.922 49.4289 53.962C43.9622 54.522 37.3322 54.6554 29.5389 54.362C19.6922 53.982 10.6622 52.492 2.44887 49.892C1.08887 46.7854 1.17889 43.932 2.71889 41.332Z" fill="#202641"/>
<path d="M2.44922 49.8916C10.6626 52.4916 19.6926 53.9816 29.5392 54.3616C37.3326 54.6549 43.9626 54.5216 49.4293 53.9616C48.8093 62.0149 48.5793 70.1249 48.7393 78.2916C39.5259 79.9716 30.1126 80.365 20.4993 79.4716C14.5593 78.9216 8.70922 77.0416 2.75922 75.4616C3.48588 66.7883 3.38255 58.2649 2.44922 49.8916Z" fill="#FF6B50"/>
<path d="M2.75958 75.4619C8.70957 77.0419 14.5596 78.9219 20.4996 79.4719C30.113 80.3653 39.5263 79.9719 48.7396 78.2919C52.0396 77.9419 50.0196 87.4119 49.2696 89.3019C33.6696 90.6086 18.2496 89.6286 3.00958 86.3619C0.416242 82.8952 0.332908 79.2619 2.75958 75.4619Z" fill="#202641"/>
<path d="M3.00781 86.3623C18.2478 89.629 33.6678 90.609 49.2678 89.3023L48.1779 102.212C43.6579 103.122 38.6679 102.652 34.6779 102.902C22.9579 103.622 13.4578 99.4223 3.68781 97.8723L3.00781 86.3623Z" fill="#FF6B50"/>
<path d="M3.68759 97.8721C13.4576 99.4221 22.9576 103.622 34.6776 102.902C38.6676 102.652 43.6576 103.122 48.1776 102.212C49.171 105.865 48.671 109.212 46.6776 112.252C42.6676 112.612 39.3576 113.772 35.3876 113.392C24.9876 112.392 14.6609 110.895 4.40762 108.902C2.75428 105.722 2.51425 102.045 3.68759 97.8721Z" fill="#292D47"/>
<path d="M46.6802 112.252C46.6735 121.626 44.6168 130.442 40.5101 138.702C33.2435 139.002 26.1502 138.342 19.2302 136.722C16.6202 136.112 13.9702 137.232 11.2502 134.972C10.3402 134.212 9.58015 134.112 8.47015 134.172C6.61015 126.112 5.25682 117.689 4.41016 108.902C14.6635 110.896 24.9901 112.392 35.3901 113.392C39.3601 113.772 42.6702 112.612 46.6802 112.252Z" fill="#FF6B50"/>
<path d="M8.46813 134.172C9.57813 134.112 10.3382 134.212 11.2482 134.972C13.9682 137.232 16.6181 136.112 19.2281 136.722C26.1481 138.342 33.2414 139.002 40.5081 138.702C40.0681 146.762 36.7048 152.755 30.4181 156.682C18.6281 164.042 12.7481 151.692 9.44811 142.762C8.31477 139.695 7.98813 136.832 8.46813 134.172Z" fill="#202641"/>
</svg>
