<svg width="88" height="151" viewBox="0 0 88 151" fill="none" xmlns="http://www.w3.org/2000/svg">
<path d="M22.2305 2.99805C18.8505 3.62471 15.9338 5.12471 13.4805 7.49805" stroke="#FFB5A8" stroke-width="2"/>
<path d="M13.479 7.49805C4.17903 14.378 6.23903 27.908 13.759 35.188" stroke="#F9AB9F" stroke-width="2"/>
<path d="M13.7578 35.188L16.8578 37.2079C16.989 37.2926 17.0895 37.4184 17.1452 37.5674C17.2009 37.7165 17.2088 37.8812 17.1678 38.038L16.4778 40.748" stroke="#FFB5A8" stroke-width="2"/>
<path d="M16.4809 40.748C13.5109 46.768 10.851 53.398 11.711 60.078C12.991 70.038 18.8709 76.918 26.7809 82.768C26.9081 82.861 27.0122 82.9807 27.085 83.1177C27.1578 83.2547 27.1975 83.4054 27.2009 83.558C27.3143 88.3914 27.4076 93.2347 27.4809 98.088C27.6809 112.188 13.9909 109.788 5.83095 116.308C-0.0357203 121.001 -0.559061 127.345 4.26094 135.338" stroke="#F6A598" stroke-width="2"/>
<path d="M4.25781 135.338C9.28448 139.605 15.0445 142.991 21.5378 145.498" stroke="#FFB5A8" stroke-width="2"/>
<path d="M21.5391 145.498C36.1991 151.388 55.2291 152.168 68.4191 141.738C82.2991 130.768 83.5191 115.528 85.4591 99.2579C88.2124 76.1445 81.9824 55.9279 66.7691 38.6079" stroke="#FDE897" stroke-width="2"/>
<path d="M66.7705 38.6079C58.3705 21.8179 47.7005 -6.81208 22.2305 2.99792" stroke="#AFE3E0" stroke-width="2"/>
<path d="M66.7683 38.6079C69.1283 50.8412 70.1683 62.7979 69.8883 74.4779C69.5616 87.8579 65.0083 99.7279 56.2283 110.088C53.5216 113.281 51.1916 115.711 49.2383 117.378" stroke="#ADCB78" stroke-width="2"/>
<path d="M49.2405 117.378C53.5205 97.6481 55.1905 76.518 47.6305 57.928C41.9905 44.078 36.4205 30.278 31.1205 16.368C28.5905 9.73804 27.5405 6.04805 22.2305 2.99805" stroke="#AF9889" stroke-width="2"/>
<path d="M49.2391 117.378C45.6657 125.038 43.0591 129.988 41.4191 132.228C36.4124 139.088 29.7857 143.511 21.5391 145.498" stroke="#FD9D40" stroke-width="2"/>
<path d="M4.25793 135.338C5.2846 134.531 5.51126 133.848 4.93792 133.288C4.59126 132.954 4.37794 132.708 4.29794 132.548C-0.472062 123.438 5.00794 115.378 14.1479 113.128C20.1179 111.658 28.1479 108.008 29.0579 101.468C29.7579 96.3944 29.8512 92.3944 29.3379 89.4678C28.8646 86.7811 28.6479 84.7344 28.6879 83.3278C28.6909 83.1672 28.6612 83.0093 28.6008 82.8644C28.5405 82.7196 28.4509 82.5912 28.3379 82.4878C24.7846 79.2611 21.3946 75.8611 18.1679 72.2878C16.4079 70.3378 16.1079 68.4378 15.1279 66.1078C12.0279 58.7778 13.7379 49.7578 17.2779 42.8778C17.6679 42.1178 17.7479 40.6678 16.4779 40.7478" stroke="#F65B41" stroke-width="2"/>
<path d="M13.7587 35.188C14.3853 34.2147 14.292 33.5247 13.4787 33.118C13.1187 32.9447 12.862 32.758 12.7087 32.558C9.26867 28.2114 8.132 23.2213 9.29867 17.588C9.53867 16.4347 11.1253 13.778 14.0586 9.61804C14.572 8.90471 14.3787 8.19805 13.4787 7.49805" stroke="#F96148" stroke-width="2"/>
<path d="M66.7705 38.6079C69.1305 50.8412 70.1705 62.7979 69.8905 74.4779C69.5638 87.8579 65.0105 99.7279 56.2305 110.088C53.5238 113.281 51.1938 115.711 49.2405 117.378C53.5205 97.6479 55.1905 76.5179 47.6305 57.9279C41.9905 44.0779 36.4205 30.2779 31.1205 16.3679C28.5905 9.73792 27.5405 6.04792 22.2305 2.99792C47.7005 -6.81208 58.3705 21.8179 66.7705 38.6079Z" fill="#5EC6C0"/>
<path d="M22.2318 2.99805C27.5418 6.04805 28.5919 9.73804 31.1219 16.368C36.4219 30.278 41.9918 44.078 47.6318 57.928C55.1918 76.518 53.5218 97.6481 49.2418 117.378C45.6685 125.038 43.0618 129.988 41.4218 132.228C36.4152 139.088 29.7885 143.511 21.5418 145.498C15.0485 142.991 9.2885 139.605 4.26184 135.338C5.2885 134.531 5.51516 133.848 4.94183 133.288C4.59516 132.955 4.38184 132.708 4.30184 132.548C-0.468156 123.438 5.01185 115.378 14.1518 113.128C20.1218 111.658 28.1518 108.008 29.0618 101.468C29.7618 96.3947 29.8552 92.3947 29.3418 89.468C28.8685 86.7813 28.6518 84.7347 28.6918 83.328C28.6948 83.1674 28.6651 83.0095 28.6047 82.8647C28.5444 82.7198 28.4548 82.5915 28.3418 82.488C24.7885 79.2614 21.3985 75.8614 18.1718 72.288C16.4118 70.338 16.1118 68.438 15.1318 66.108C12.0318 58.778 13.7418 49.7581 17.2818 42.8781C17.6718 42.1181 17.7518 40.668 16.4818 40.748L17.1718 38.038C17.2128 37.8812 17.2049 37.7166 17.1492 37.5675C17.0936 37.4185 16.993 37.2926 16.8618 37.208L13.7618 35.188C14.3885 34.2147 14.2952 33.5247 13.4818 33.118C13.1218 32.9447 12.8652 32.758 12.7118 32.558C9.27185 28.2114 8.13518 23.2213 9.30184 17.588C9.54184 16.4347 11.1285 13.778 14.0618 9.61804C14.5752 8.90471 14.3818 8.19805 13.4818 7.49805C15.9352 5.12471 18.8518 3.62471 22.2318 2.99805Z" fill="#FF6A51"/>
<path d="M13.4829 7.49805C14.3829 8.19805 14.5763 8.90471 14.0629 9.61804C11.1296 13.778 9.54294 16.4347 9.30294 17.588C8.13627 23.2213 9.27294 28.2114 12.7129 32.558C12.8663 32.758 13.1229 32.9447 13.4829 33.118C14.2963 33.5247 14.3896 34.2147 13.7629 35.188C6.24293 27.908 4.18293 14.378 13.4829 7.49805Z" fill="#F2573F"/>
<path d="M66.773 38.6079C81.9863 55.9279 88.2163 76.1445 85.463 99.2579C83.523 115.528 82.303 130.768 68.423 141.738C55.233 152.168 36.203 151.388 21.543 145.498C29.7896 143.511 36.4163 139.088 41.423 132.228C43.063 129.988 45.6696 125.038 49.243 117.378C51.1963 115.711 53.5263 113.281 56.233 110.088C65.013 99.7279 69.5663 87.8579 69.893 74.4779C70.173 62.7979 69.133 50.8412 66.773 38.6079Z" fill="#FBD02F"/>
<path d="M4.26094 135.338C-0.559061 127.344 -0.0357203 121.001 5.83095 116.308C13.9909 109.788 27.6809 112.188 27.4809 98.0878C27.4076 93.2344 27.3143 88.3911 27.2009 83.5578C27.1975 83.4051 27.1578 83.2544 27.085 83.1174C27.0122 82.9804 26.9081 82.8608 26.7809 82.7678C18.8709 76.9178 12.991 70.0378 11.711 60.0778C10.851 53.3978 13.5109 46.7678 16.4809 40.7478C17.7509 40.6678 17.6709 42.1178 17.2809 42.8778C13.7409 49.7578 12.0309 58.7778 15.1309 66.1078C16.1109 68.4378 16.4109 70.3378 18.1709 72.2878C21.3976 75.8611 24.7876 79.2611 28.3409 82.4878C28.4539 82.5912 28.5435 82.7196 28.6038 82.8644C28.6642 83.0093 28.6939 83.1672 28.6909 83.3278C28.6509 84.7344 28.8676 86.7811 29.3409 89.4678C29.8543 92.3944 29.7609 96.3944 29.0609 101.468C28.1509 108.008 20.121 111.658 14.151 113.128C5.01095 115.378 -0.469053 123.438 4.30095 132.548C4.38095 132.708 4.59426 132.954 4.94093 133.288C5.51427 133.848 5.28761 134.531 4.26094 135.338Z" fill="#EC4B30"/>
</svg>
