<svg width="292" height="136" viewBox="0 0 292 136" fill="none" xmlns="http://www.w3.org/2000/svg">
<path d="M36.8594 44.793L37.0094 46.173" stroke="#9194A4" stroke-width="2"/>
<path d="M37.0091 46.1729C34.1624 47.4529 31.1424 48.1962 27.9491 48.4029C26.5158 48.4962 25.7958 49.2595 25.7891 50.6929C25.7591 58.7629 53.1091 64.8629 59.4191 66.1329C61.2191 66.4995 62.1424 67.6028 62.1891 69.4428C62.2358 71.5228 61.6458 73.6962 60.4191 75.9629C55.6291 84.7529 48.6491 90.0229 38.0891 89.1529C34.6391 88.8629 32.7791 88.8929 30.1291 90.5229C29.0424 91.1962 28.5891 92.1629 28.7691 93.4229C29.5558 98.8429 32.4858 102.506 37.5591 104.413C57.8391 112.043 76.7591 87.4229 87.1891 74.0729C93.7791 65.6429 106.389 63.4828 110.299 75.9128C111.979 81.2328 114.319 94.4929 107.509 97.1429C102.139 99.2329 94.6191 100.803 95.5991 106.753C96.5491 112.453 105.589 115.263 110.289 114.693C120.116 113.506 127.436 108.673 132.249 100.193C139.279 87.8328 136.419 65.9528 157.999 69.0928C162.399 69.7428 163.859 72.7529 164.319 77.0429C165.079 84.0895 165.766 91.1362 166.379 98.1829C167.019 105.463 166.759 117.853 156.559 118.163C152.359 118.29 149.686 118.626 148.539 119.173C141.729 122.423 145.909 129.783 150.719 132.243C160.799 137.403 172.249 131.923 179.579 124.183C193.349 109.643 198.489 89.0329 210.019 72.6829C210.986 71.3095 212.302 70.7295 213.969 70.9428C221.969 71.9528 224.979 77.6428 226.569 85.3728C228.759 96.0028 230.779 104.813 236.889 112.093C245.219 122.013 263.119 123.773 274.999 120.053C284.989 116.933 294.409 105.283 288.539 94.6228C288.378 94.3197 288.129 94.0893 287.839 93.9729C286.106 93.2595 284.759 93.7462 283.799 95.4329C280.332 101.493 275.436 105.926 269.109 108.733C259.419 113.033 255.899 97.9628 255.379 91.1628" stroke="#807E7C" stroke-width="2"/>
<path d="M255.382 91.1628C256.392 76.2028 259.642 61.6629 253.762 46.6729" stroke="#9194A4" stroke-width="2"/>
<path d="M253.761 46.6733C236.531 5.40329 176.501 9.34329 142.551 19.1633C131.217 22.4433 119.801 25.3766 108.301 27.9633" stroke="#807E7C" stroke-width="2"/>
<path d="M108.299 27.9629C107.805 27.8695 107.592 27.5195 107.659 26.9129C108.532 18.3795 107.332 10.2995 104.059 2.67285" stroke="#9194A4" stroke-width="2"/>
<path d="M104.059 2.67271C103.026 1.37938 102.263 0.836044 101.769 1.04271C93.876 4.33604 85.9593 8.79604 78.0193 14.4227C74.2393 17.1027 71.1093 16.3627 66.7793 16.0627C46.146 14.6427 25.486 13.8294 4.79933 13.6227C3.84599 13.6094 2.86933 13.7794 1.86933 14.1327C1.6691 14.203 1.48911 14.3213 1.3451 14.4772C1.20109 14.633 1.09744 14.8218 1.04319 15.027C0.988941 15.2321 0.985749 15.4475 1.03388 15.6542C1.08202 15.8609 1.18 16.0526 1.31932 16.2127C10.4693 26.7527 22.9193 33.3727 33.4393 42.2727C34.486 43.1527 35.626 43.9927 36.8593 44.7927" stroke="#84838E" stroke-width="2"/>
<path d="M104.06 2.67285C94.1404 6.79952 85.0904 11.6529 76.9104 17.2329C75.8971 17.9262 74.7804 18.3029 73.5604 18.3629C70.0738 18.5429 66.6071 18.4595 63.1604 18.1129C50.1404 16.8029 37.1604 16.3029 24.0704 16.3729C18.2604 16.4029 10.9504 15.3229 4.23041 15.8429C4.17768 15.8471 4.12694 15.8648 4.08298 15.8942C4.03901 15.9236 4.0033 15.9638 3.97925 16.0109C3.95519 16.058 3.94357 16.1105 3.94552 16.1633C3.94748 16.2162 3.96294 16.2676 3.99042 16.3129C8.05042 22.8529 18.3804 29.0229 30.2304 37.7429C32.8771 39.6895 35.0871 42.0395 36.8604 44.7929" stroke="#181C43" stroke-width="2"/>
<path d="M108.301 27.9638V28.8638C108.302 28.9261 108.319 28.987 108.349 29.0421C108.379 29.0973 108.422 29.1452 108.474 29.1826C108.527 29.2199 108.588 29.2456 108.653 29.258C108.718 29.2703 108.786 29.2688 108.851 29.2538C124.631 25.6338 140.121 21.1738 155.921 17.7038C186.381 11.0238 236.811 11.4338 251.661 46.4038C251.732 46.5707 251.828 46.7167 251.943 46.8298C252.058 46.9428 252.187 47.0196 252.321 47.0538C252.827 47.1738 253.307 47.0471 253.761 46.6738" stroke="#141732" stroke-width="2"/>
<path d="M255.382 91.1628C254.155 90.6828 253.585 91.1795 253.672 92.6529C254.112 99.9062 257.102 105.803 262.642 110.343C263.735 111.243 264.902 111.516 266.142 111.163C274.315 108.836 280.585 104.06 284.952 96.8329C285.091 96.6066 285.337 96.3938 285.671 96.2115C286.004 96.0291 286.416 95.8824 286.872 95.7829C287.502 95.6429 288.442 97.9528 288.452 98.8428C288.692 121.813 261.402 123.283 245.882 116.963C233.202 111.793 230.802 95.3329 227.862 83.9929C225.582 75.2129 221.922 70.0429 212.602 69.4929C212.272 69.4733 211.947 69.5688 211.682 69.7628C209.642 71.2228 208.185 72.6962 207.312 74.1829C202.759 81.9295 197.415 92.0895 191.282 104.663C188.822 109.703 185.922 114.446 182.582 118.893C175.582 128.213 160.732 137.573 149.622 129.493C146.722 127.393 145.202 122.933 149.112 120.993C151.862 119.623 156.872 120.373 159.482 119.333C169.062 115.523 168.732 102.963 167.722 94.2929C166.982 87.8795 166.199 81.4729 165.372 75.0729C164.992 72.1529 163.192 69.1329 160.592 68.2429C148.252 64.0229 139.312 71.6528 136.762 83.1228C135.532 88.6728 132.892 96.8829 129.842 101.213C124.022 109.453 108.342 118.603 99.132 109.703C93.202 103.973 103.262 99.8829 107.542 98.2029C119.302 93.5929 113.482 59.7429 94.812 66.6729C91.442 67.9329 87.762 71.1728 85.572 73.9428C74.112 88.4728 61.322 105.763 40.552 103.453C36.7653 103.033 33.832 101.04 31.752 97.4729C28.732 92.2929 31.542 90.2828 36.492 90.4828C46.092 90.8528 51.982 89.8529 58.112 82.1029C60.982 78.4729 66.302 69.7128 60.842 65.9128C59.602 65.0528 58.2487 64.4295 56.782 64.0429C48.372 61.8329 34.632 59.4129 28.822 52.4129C26.042 49.0629 29.762 50.0829 31.142 49.5629C33.492 48.6729 37.232 47.7129 37.012 46.1729" stroke="#141732" stroke-width="2"/>
<path d="M83.2305 19.1426C84.5838 22.0092 86.7738 24.0892 89.8005 25.3826" stroke="#9093A7" stroke-width="2"/>
<path d="M89.7997 25.383C88.6664 26.803 89.0064 27.4897 90.8197 27.4431C90.9699 27.4399 91.1203 27.4006 91.2603 27.3281C91.4002 27.2555 91.5263 27.1514 91.6297 27.0231C94.5997 23.3331 99.8698 15.0331 99.2798 10.1731C99.0864 8.61305 98.3597 8.30305 97.0997 9.24305C95.8097 10.2031 81.6397 14.9131 83.2297 19.1431" stroke="#171C3F" stroke-width="2"/>
<path d="M89.8005 25.3831C92.2805 26.8731 97.3205 14.0031 97.8005 12.5031C98.1538 11.4098 97.7905 11.0531 96.7105 11.4331C92.0105 13.0931 87.5171 15.6631 83.2305 19.1431" stroke="#82838D" stroke-width="2"/>
<path d="M57.6594 37.7926C57.6594 37.0234 57.3539 36.2858 56.81 35.742C56.2661 35.1981 55.5285 34.8926 54.7594 34.8926C53.9902 34.8926 53.2526 35.1981 52.7088 35.742C52.1649 36.2858 51.8594 37.0234 51.8594 37.7926C51.8594 38.1734 51.9344 38.5505 52.0801 38.9024C52.2259 39.2542 52.4395 39.5739 52.7088 39.8432C52.9781 40.1125 53.2978 40.3261 53.6496 40.4718C54.0014 40.6176 54.3785 40.6926 54.7594 40.6926C55.1402 40.6926 55.5173 40.6176 55.8692 40.4718C56.221 40.3261 56.5407 40.1125 56.81 39.8432C57.0793 39.5739 57.2929 39.2542 57.4386 38.9024C57.5844 38.5505 57.6594 38.1734 57.6594 37.7926Z" stroke="#9093A7" stroke-width="2"/>
<path d="M83.2984 43.713C88.4651 40.873 88.2318 38.9897 82.5984 38.063C82.4646 38.0421 82.328 38.0732 82.2178 38.1498C82.1076 38.2264 82.0325 38.3423 82.0084 38.473C81.7218 40.0197 81.8184 41.573 82.2984 43.133" stroke="#918B82" stroke-width="2"/>
<path d="M82.3002 43.1324C78.0602 43.2858 76.8635 41.4491 78.7102 37.6224C78.7352 37.5682 78.7482 37.5089 78.7481 37.4494C78.7479 37.39 78.7346 37.3321 78.7092 37.2804C78.6839 37.2287 78.6472 37.1848 78.6022 37.1521C78.5572 37.1194 78.5051 37.099 78.4502 37.0924C68.0402 35.6624 74.4802 51.4124 83.3002 43.7124" stroke="#8E4552" stroke-width="2"/>
<path d="M82.3008 43.1328L83.3008 43.7128" stroke="#F9A47B" stroke-width="2"/>
<path d="M104.059 2.67271C94.1393 6.79938 85.0893 11.6527 76.9093 17.2327C75.896 17.926 74.7793 18.3027 73.5593 18.3627C70.0727 18.5427 66.606 18.4594 63.1593 18.1127C50.1393 16.8027 37.1593 16.3027 24.0693 16.3727C18.2593 16.4027 10.9493 15.3227 4.22932 15.8427C4.1766 15.847 4.12585 15.8646 4.08189 15.894C4.03792 15.9235 4.00221 15.9636 3.97816 16.0107C3.9541 16.0578 3.94248 16.1103 3.94444 16.1632C3.94639 16.216 3.96186 16.2675 3.98933 16.3127C8.04933 22.8527 18.3793 29.0227 30.2293 37.7427C32.876 39.6894 35.086 42.0394 36.8593 44.7927C35.626 43.9927 34.486 43.1527 33.4393 42.2727C22.9193 33.3727 10.4693 26.7527 1.31932 16.2127C1.18 16.0526 1.08202 15.8609 1.03388 15.6542C0.985749 15.4475 0.988941 15.2321 1.04319 15.027C1.09744 14.8218 1.20109 14.633 1.3451 14.4772C1.48911 14.3213 1.6691 14.203 1.86933 14.1327C2.86933 13.7794 3.84599 13.6094 4.79933 13.6227C25.486 13.8294 46.146 14.6427 66.7793 16.0627C71.1093 16.3627 74.2393 17.1027 78.0193 14.4227C85.9593 8.79604 93.876 4.33604 101.769 1.04271C102.263 0.836044 103.026 1.37938 104.059 2.67271Z" fill="#0A0B2D"/>
<path d="M104.06 2.67285C107.334 10.2995 108.534 18.3795 107.66 26.9129C107.594 27.5195 107.807 27.8695 108.3 27.9629V28.8629C108.302 28.9252 108.318 28.9861 108.349 29.0412C108.379 29.0963 108.421 29.1443 108.474 29.1816C108.527 29.219 108.588 29.2447 108.653 29.257C108.718 29.2694 108.785 29.2679 108.85 29.2529C124.63 25.6329 140.12 21.1729 155.92 17.7029C186.38 11.0229 236.81 11.4328 251.66 46.4029C251.731 46.5698 251.828 46.7158 251.943 46.8288C252.058 46.9419 252.187 47.0187 252.32 47.0529C252.827 47.1729 253.307 47.0462 253.76 46.6729C259.64 61.6628 256.39 76.2029 255.38 91.1628C254.154 90.6828 253.584 91.1795 253.67 92.6529C254.11 99.9062 257.1 105.803 262.64 110.343C263.734 111.243 264.9 111.516 266.14 111.163C274.314 108.836 280.584 104.06 284.95 96.8329C285.09 96.6066 285.336 96.3938 285.669 96.2115C286.003 96.0291 286.414 95.8824 286.87 95.7829C287.5 95.6429 288.44 97.9529 288.45 98.8428C288.69 121.813 261.4 123.283 245.88 116.963C233.2 111.793 230.8 95.3329 227.86 83.9929C225.58 75.2129 221.92 70.0429 212.6 69.4929C212.271 69.4733 211.946 69.5688 211.68 69.7628C209.64 71.2228 208.184 72.6962 207.31 74.1829C202.757 81.9295 197.414 92.0895 191.28 104.663C188.82 109.703 185.92 114.446 182.58 118.893C175.58 128.213 160.73 137.573 149.62 129.493C146.72 127.393 145.2 122.933 149.11 120.993C151.86 119.623 156.87 120.373 159.48 119.333C169.06 115.523 168.73 102.963 167.72 94.2929C166.98 87.8795 166.197 81.4729 165.37 75.0729C164.99 72.1529 163.19 69.1329 160.59 68.2429C148.25 64.0229 139.31 71.6528 136.76 83.1228C135.53 88.6729 132.89 96.8829 129.84 101.213C124.02 109.453 108.34 118.603 99.1304 109.703C93.2004 103.973 103.26 99.8829 107.54 98.2029C119.3 93.5928 113.48 59.7429 94.8104 66.6729C91.4404 67.9329 87.7604 71.1729 85.5704 73.9428C74.1104 88.4728 61.3204 105.763 40.5504 103.453C36.7637 103.033 33.8304 101.04 31.7504 97.4729C28.7304 92.2929 31.5404 90.2829 36.4904 90.4828C46.0904 90.8529 51.9804 89.8529 58.1104 82.1029C60.9804 78.4729 66.3004 69.7129 60.8404 65.9128C59.6004 65.0528 58.2471 64.4295 56.7804 64.0429C48.3704 61.8329 34.6304 59.4129 28.8204 52.4129C26.0404 49.0629 29.7604 50.0829 31.1404 49.5629C33.4904 48.6729 37.2304 47.7129 37.0104 46.1729L36.8604 44.7929C35.0871 42.0395 32.8771 39.6895 30.2304 37.7429C18.3804 29.0229 8.05042 22.8529 3.99042 16.3129C3.96294 16.2676 3.94748 16.2162 3.94552 16.1633C3.94357 16.1105 3.95519 16.058 3.97925 16.0109C4.0033 15.9638 4.03901 15.9236 4.08298 15.8942C4.12694 15.8648 4.17768 15.8471 4.23041 15.8429C10.9504 15.3229 18.2604 16.4029 24.0704 16.3729C37.1604 16.3029 50.1404 16.8029 63.1604 18.1129C66.6071 18.4595 70.0738 18.5429 73.5604 18.3629C74.7804 18.3029 75.8971 17.9262 76.9104 17.2329C85.0904 11.6529 94.1404 6.79952 104.06 2.67285ZM83.2304 19.1429C84.5837 22.0095 86.7738 24.0895 89.8004 25.3829C88.6671 26.8029 89.0071 27.4895 90.8204 27.4429C90.9706 27.4397 91.121 27.4004 91.2609 27.3279C91.4009 27.2553 91.527 27.1512 91.6304 27.0229C94.6004 23.3329 99.8704 15.0329 99.2804 10.1729C99.0871 8.61285 98.3604 8.30285 97.1004 9.24285C95.8104 10.2029 81.6404 14.9129 83.2304 19.1429ZM57.6604 37.7929C57.6604 37.0237 57.3549 36.2861 56.811 35.7422C56.2672 35.1984 55.5295 34.8929 54.7604 34.8929C53.9913 34.8929 53.2537 35.1984 52.7098 35.7422C52.166 36.2861 51.8604 37.0237 51.8604 37.7929C51.8604 38.1737 51.9354 38.5508 52.0812 38.9026C52.2269 39.2545 52.4405 39.5742 52.7098 39.8435C52.9791 40.1128 53.2988 40.3264 53.6506 40.4721C54.0025 40.6178 54.3796 40.6929 54.7604 40.6929C55.1412 40.6929 55.5184 40.6178 55.8702 40.4721C56.2221 40.3264 56.5417 40.1128 56.811 39.8435C57.0803 39.5742 57.2939 39.2545 57.4397 38.9026C57.5854 38.5508 57.6604 38.1737 57.6604 37.7929ZM83.3004 43.7129C88.4671 40.8729 88.2337 38.9895 82.6004 38.0629C82.4665 38.0419 82.33 38.073 82.2198 38.1496C82.1096 38.2262 82.0345 38.3422 82.0104 38.4729C81.7237 40.0195 81.8204 41.5728 82.3004 43.1329C78.0604 43.2862 76.8638 41.4495 78.7104 37.6229C78.7355 37.5686 78.7485 37.5093 78.7483 37.4498C78.7481 37.3904 78.7348 37.3325 78.7095 37.2808C78.6841 37.2291 78.6474 37.1852 78.6024 37.1525C78.5574 37.1198 78.5053 37.0994 78.4504 37.0928C68.0404 35.6628 74.4804 51.4129 83.3004 43.7129Z" fill="#252C59"/>
<path d="M89.7997 25.383C92.2797 26.873 97.3197 14.0031 97.7997 12.5031C98.1531 11.4097 97.7897 11.0531 96.7097 11.4331C92.0097 13.0931 87.5164 15.6631 83.2297 19.1431C81.6397 14.9131 95.8097 10.2031 97.0997 9.24305C98.3597 8.30305 99.0864 8.61305 99.2798 10.1731C99.8698 15.0331 94.5997 23.333 91.6297 27.0231C91.5263 27.1514 91.4002 27.2555 91.2603 27.3281C91.1203 27.4006 90.9699 27.4399 90.8197 27.4431C89.0064 27.4897 88.6664 26.803 89.7997 25.383Z" fill="#080C24"/>
<path d="M89.8005 25.3822C86.7738 24.0888 84.5838 22.0088 83.2305 19.1422C87.5171 15.6622 92.0105 13.0922 96.7105 11.4322C97.7905 11.0522 98.1538 11.4088 97.8005 12.5022C97.3205 14.0022 92.2805 26.8722 89.8005 25.3822Z" fill="#FBF9F5"/>
<path d="M253.761 46.6733C253.307 47.0466 252.827 47.1733 252.321 47.0533C252.187 47.0191 252.058 46.9423 251.943 46.8293C251.828 46.7163 251.732 46.5702 251.661 46.4033C236.811 11.4333 186.381 11.0233 155.921 17.7033C140.121 21.1733 124.631 25.6333 108.851 29.2533C108.786 29.2684 108.718 29.2698 108.653 29.2575C108.588 29.2452 108.527 29.2194 108.474 29.1821C108.422 29.1448 108.379 29.0968 108.349 29.0416C108.319 28.9865 108.302 28.9256 108.301 28.8633V27.9633C119.801 25.3766 131.217 22.4433 142.551 19.1633C176.501 9.34329 236.531 5.40329 253.761 46.6733Z" fill="#02010A"/>
<path d="M54.7594 40.6926C56.361 40.6926 57.6594 39.3942 57.6594 37.7926C57.6594 36.191 56.361 34.8926 54.7594 34.8926C53.1577 34.8926 51.8594 36.191 51.8594 37.7926C51.8594 39.3942 53.1577 40.6926 54.7594 40.6926Z" fill="#FBF9F5"/>
<path d="M82.3002 43.1324L83.3002 43.7124C74.4802 51.4124 68.0402 35.6624 78.4502 37.0924C78.5051 37.099 78.5572 37.1194 78.6022 37.1521C78.6472 37.1848 78.6839 37.2287 78.7092 37.2804C78.7346 37.3321 78.7479 37.39 78.7481 37.4494C78.7482 37.5089 78.7352 37.5682 78.7102 37.6224C76.8635 41.4491 78.0602 43.2858 82.3002 43.1324Z" fill="#F65E4A"/>
<path d="M83.3024 43.713L82.3024 43.133C81.8224 41.573 81.7257 40.0197 82.0123 38.473C82.0364 38.3423 82.1115 38.2264 82.2217 38.1498C82.3319 38.0732 82.4685 38.0421 82.6023 38.063C88.2357 38.9897 88.469 40.873 83.3024 43.713Z" fill="#FCEAAB"/>
<path d="M37.0091 46.1729C37.2291 47.7129 33.4891 48.6729 31.1391 49.5629C29.7591 50.0829 26.0391 49.0629 28.8191 52.4129C34.6291 59.4129 48.3691 61.8329 56.7791 64.0429C58.2458 64.4295 59.5991 65.0528 60.8391 65.9128C66.2991 69.7128 60.9791 78.4729 58.1091 82.1029C51.9791 89.8529 46.0891 90.8528 36.4891 90.4828C31.5391 90.2828 28.7291 92.2929 31.7491 97.4729C33.8291 101.04 36.7624 103.033 40.5491 103.453C61.3191 105.763 74.1091 88.4728 85.5691 73.9428C87.7591 71.1728 91.4391 67.9329 94.8091 66.6729C113.479 59.7429 119.299 93.5928 107.539 98.2029C103.259 99.8829 93.1991 103.973 99.1291 109.703C108.339 118.603 124.019 109.453 129.839 101.213C132.889 96.8829 135.529 88.6728 136.759 83.1228C139.309 71.6528 148.249 64.0229 160.589 68.2429C163.189 69.1329 164.989 72.1529 165.369 75.0729C166.196 81.4729 166.979 87.8795 167.719 94.2929C168.729 102.963 169.059 115.523 159.479 119.333C156.869 120.373 151.859 119.623 149.109 120.993C145.199 122.933 146.719 127.393 149.619 129.493C160.729 137.573 175.579 128.213 182.579 118.893C185.919 114.446 188.819 109.703 191.279 104.663C197.412 92.0895 202.756 81.9295 207.309 74.1829C208.182 72.6962 209.639 71.2228 211.679 69.7628C211.944 69.5688 212.27 69.4733 212.599 69.4929C221.919 70.0429 225.579 75.2129 227.859 83.9929C230.799 95.3329 233.199 111.793 245.879 116.963C261.399 123.283 288.689 121.813 288.449 98.8428C288.439 97.9529 287.499 95.6429 286.869 95.7829C286.413 95.8824 286.001 96.0291 285.668 96.2115C285.335 96.3938 285.088 96.6066 284.949 96.8329C280.582 104.06 274.312 108.836 266.139 111.163C264.899 111.516 263.732 111.243 262.639 110.343C257.099 105.803 254.109 99.9062 253.669 92.6529C253.582 91.1795 254.152 90.6828 255.379 91.1628C255.899 97.9628 259.419 113.033 269.109 108.733C275.436 105.926 280.332 101.493 283.799 95.4329C284.759 93.7462 286.106 93.2595 287.839 93.9729C288.129 94.0893 288.378 94.3197 288.539 94.6228C294.409 105.283 284.989 116.933 274.999 120.053C263.119 123.773 245.219 122.013 236.889 112.093C230.779 104.813 228.759 96.0028 226.569 85.3728C224.979 77.6428 221.969 71.9528 213.969 70.9428C212.302 70.7295 210.986 71.3095 210.019 72.6829C198.489 89.0329 193.349 109.643 179.579 124.183C172.249 131.923 160.799 137.403 150.719 132.243C145.909 129.783 141.729 122.423 148.539 119.173C149.686 118.626 152.359 118.29 156.559 118.163C166.759 117.853 167.019 105.463 166.379 98.1829C165.766 91.1362 165.079 84.0895 164.319 77.0429C163.859 72.7529 162.399 69.7428 157.999 69.0928C136.419 65.9529 139.279 87.8328 132.249 100.193C127.436 108.673 120.116 113.506 110.289 114.693C105.589 115.263 96.5491 112.453 95.5991 106.753C94.6191 100.803 102.139 99.2329 107.509 97.1429C114.319 94.4929 111.979 81.2328 110.299 75.9128C106.389 63.4828 93.7791 65.6429 87.1891 74.0729C76.7591 87.4229 57.8391 112.043 37.5591 104.413C32.4858 102.506 29.5558 98.8428 28.7691 93.4229C28.5891 92.1629 29.0424 91.1962 30.1291 90.5229C32.7791 88.8928 34.6391 88.8629 38.0891 89.1529C48.6491 90.0229 55.6291 84.7529 60.4191 75.9629C61.6458 73.6962 62.2358 71.5228 62.1891 69.4428C62.1424 67.6028 61.2191 66.4995 59.4191 66.1329C53.1091 64.8629 25.7591 58.7629 25.7891 50.6929C25.7958 49.2595 26.5158 48.4962 27.9491 48.4029C31.1424 48.1962 34.1624 47.4529 37.0091 46.1729Z" fill="#02010A"/>
</svg>
