<svg width="300" height="195" viewBox="0 0 300 195" fill="none" xmlns="http://www.w3.org/2000/svg">
<path d="M150.971 27.1631C146.271 28.3964 141.458 29.2964 136.531 29.8631" stroke="#FDD886" stroke-width="2"/>
<path d="M136.529 29.8638L135.499 11.3737C135.489 11.2143 135.445 11.0622 135.37 10.9313C135.295 10.8003 135.191 10.6946 135.069 10.6237C132.882 9.35704 131.489 10.0504 130.889 12.7037C129.289 19.7571 128.315 26.9204 127.969 34.1937" stroke="#F8AA97" stroke-width="2"/>
<path d="M127.968 34.1934L117.328 39.9634" stroke="#FDD886" stroke-width="2"/>
<path d="M117.329 39.9625C114.916 33.9559 113.756 27.6659 113.849 21.0925C113.851 20.924 113.813 20.7574 113.739 20.606C113.665 20.4545 113.557 20.3226 113.423 20.2205C113.289 20.1185 113.133 20.0492 112.967 20.0183C112.801 19.9874 112.631 19.9957 112.469 20.0425C108.269 21.2725 109.639 40.2925 109.929 44.0925" stroke="#F8AA97" stroke-width="2"/>
<path d="M109.931 44.0938L101.941 50.3638" stroke="#FDD886" stroke-width="2"/>
<path d="M101.938 50.3634L97.2281 40.1734C97.1567 40.0218 97.0579 39.8903 96.9397 39.7895C96.8215 39.6887 96.6873 39.6215 96.5481 39.5934C90.4381 38.3234 94.3481 54.9834 94.9981 57.7134" stroke="#FBAF95" stroke-width="2"/>
<path d="M94.9991 57.7129L85.7891 66.5029" stroke="#FDD886" stroke-width="2"/>
<path d="M85.7886 66.5032L83.5586 65.0732" stroke="#F8B493" stroke-width="2"/>
<path d="M83.5609 65.073C81.2909 62.633 78.2409 59.0931 74.7109 62.5531C74.403 62.8565 74.2123 63.2592 74.172 63.6907C74.1318 64.1222 74.2447 64.555 74.4909 64.9131L78.8309 71.2131" stroke="#FDD886" stroke-width="2"/>
<path d="M78.8281 71.2129L79.0781 74.7129" stroke="#F8EDBC" stroke-width="2"/>
<path d="M79.0818 74.7129C78.7518 77.5829 71.9619 84.4529 69.6719 86.8429" stroke="#FDD886" stroke-width="2"/>
<path d="M69.6691 86.844C67.1558 86.224 64.7491 85.2773 62.4491 84.0039C59.7091 82.4939 57.6691 82.5039 55.6791 84.8939C55.5903 84.9986 55.5434 85.1332 55.5471 85.2728C55.5507 85.4124 55.6047 85.5478 55.6991 85.654C58.5791 88.8073 61.1091 92.1739 63.2891 95.7539" stroke="#F9B297" stroke-width="2"/>
<path d="M63.2919 95.7539C62.3919 99.9406 60.2685 103.611 56.9219 106.764" stroke="#FDD886" stroke-width="2"/>
<path d="M56.9183 106.763C53.8716 106.27 51.0216 105.06 48.3683 103.133C46.7483 101.953 45.3949 101.66 44.3083 102.253C43.4216 102.74 43.0416 103.576 43.1683 104.763C43.2006 105.074 43.3448 105.376 43.5783 105.623L52.3283 114.963" stroke="#F8B493" stroke-width="2"/>
<path d="M52.3318 114.963C50.4318 118.916 47.9619 122.576 44.9219 125.943" stroke="#FDD886" stroke-width="2"/>
<path d="M25.8987 152.042C18.4165 164.309 10.7081 176.446 2.77328 188.455C1.93454 189.719 1.38537 190.807 1.12576 191.72C0.752981 193.023 1.20896 193.447 2.4937 192.99C26.1184 184.654 43.8418 167.078 63.093 151.248C77.9608 139.032 93.0283 131.549 108.116 122.597C109.064 122.031 109.474 120.999 111.061 120.939C111.434 120.92 111.744 120.84 111.99 120.701C118.121 117.095 124.232 113.476 130.322 109.844C134.496 107.353 139.559 106.42 144.182 104.852C147.55 103.714 150.499 103.013 153.028 102.748C166.801 101.306 180.264 102.553 193.418 106.49C209.873 111.419 226.016 117.946 241.846 126.07C254.453 132.548 267.238 138.618 280.198 144.282C286.229 146.921 292.496 147.821 299 146.981" stroke="#FDD886" stroke-width="2"/>
<path d="M275.699 128.584C273.372 126.444 271.569 123.917 270.289 121.004" stroke="#FDD886" stroke-width="2"/>
<path d="M270.289 121.003C275.449 119.013 285.229 112.143 285.989 105.433C286.005 105.278 285.987 105.12 285.938 104.969C285.888 104.817 285.806 104.676 285.699 104.553C283.572 102.159 281.172 102.116 278.499 104.423C274.106 108.209 269.452 111.653 264.539 114.753" stroke="#F7A798" stroke-width="2"/>
<path d="M264.539 114.754L262.039 114.174" stroke="#FDD886" stroke-width="2"/>
<path d="M262.038 114.173L258.578 110.713" stroke="#F8EDBC" stroke-width="2"/>
<path d="M258.581 110.714C256.755 109.361 256.241 107.707 257.041 105.754" stroke="#FDD886" stroke-width="2"/>
<path d="M257.042 105.753L273.412 91.3431C274.525 90.3697 274.385 89.4264 272.992 88.513C267.012 84.613 255.072 96.673 249.602 100.313" stroke="#F7A798" stroke-width="2"/>
<path d="M249.6 100.313C248.14 100.086 246.69 99.4696 245.25 98.4629" stroke="#FDD886" stroke-width="2"/>
<path d="M245.249 98.4639L238.289 92.2539" stroke="#F8EDBC" stroke-width="2"/>
<path d="M238.29 92.2529L237.25 90.9629" stroke="#FDD886" stroke-width="2"/>
<path d="M237.248 90.9633C242.222 86.2033 247.465 81.7667 252.978 77.6533C254.425 76.58 255.482 75.1833 256.148 73.4633C256.203 73.3181 256.218 73.1608 256.192 73.0079C256.166 72.8549 256.099 72.7118 255.998 72.5933C250.968 66.5433 234.178 81.1333 229.398 84.4933" stroke="#F8AA97" stroke-width="2"/>
<path d="M229.399 84.4937C226.259 82.1737 223.859 79.2637 222.199 75.7637" stroke="#FDD886" stroke-width="2"/>
<path d="M222.198 75.7626C228.898 69.3292 235.281 62.6559 241.348 55.7426C242.508 54.4159 242.395 53.2126 241.008 52.1326C239.601 51.0326 237.981 51.1093 236.148 52.3626C229.035 57.2293 222.095 62.3459 215.328 67.7126" stroke="#F8AA97" stroke-width="2"/>
<path d="M215.331 67.7131C212.377 65.2331 209.731 62.3965 207.391 59.2031" stroke="#FDD886" stroke-width="2"/>
<path d="M207.389 59.2031C214.089 53.5231 221.419 45.3831 223.499 36.6731C223.55 36.4521 223.564 36.2379 223.54 36.0531C223.515 35.8683 223.453 35.7197 223.359 35.6231C222.766 35.0231 221.972 34.6764 220.979 34.5831C219.772 34.4698 218.452 35.1731 217.019 36.6931C211.692 42.3397 206.199 47.3597 200.539 51.7531" stroke="#F8AA97" stroke-width="2"/>
<path d="M200.54 51.7531C198.76 50.8198 197.407 49.4698 196.48 47.7031" stroke="#FDD886" stroke-width="2"/>
<path d="M196.48 47.7026C202.453 38.2626 205.65 27.9326 206.07 16.7126C206.076 16.527 206.051 16.3482 205.996 16.188C205.94 16.0278 205.857 15.8896 205.75 15.7826C204.703 14.7559 203.516 14.5126 202.19 15.0526C202.092 15.0937 201.984 15.1965 201.877 15.351C201.77 15.5054 201.667 15.7059 201.58 15.9326C198.186 24.9592 193.75 33.456 188.27 41.4226" stroke="#F8AA97" stroke-width="2"/>
<path d="M188.268 41.4229C184.541 40.5296 181.561 38.7929 179.328 36.2129" stroke="#FDD886" stroke-width="2"/>
<path d="M179.33 36.213C183.78 24.833 184.45 14.603 185.91 2.76296C185.94 2.53687 185.938 2.32275 185.904 2.14687C185.87 1.97098 185.806 1.841 185.72 1.77297C184.913 1.13963 184.04 1.05296 183.1 1.51296C182.843 1.64123 182.636 1.88462 182.52 2.19295L172.25 31.213" stroke="#F8AA97" stroke-width="2"/>
<path d="M172.25 31.2129C168.74 31.0029 163.46 30.6729 162 27.4629" stroke="#FDD886" stroke-width="2"/>
<path d="M161.999 27.4634L167.129 2.46336C167.161 2.30861 167.153 2.15095 167.105 2.00914C167.057 1.86733 166.972 1.74733 166.859 1.66337C165.259 0.470041 163.879 0.886708 162.719 2.91337C158.345 10.5267 154.852 17.9234 152.239 25.1034C151.989 25.8134 151.209 26.4234 150.969 27.1634" stroke="#F8AA97" stroke-width="2"/>
<path d="M161.999 27.4631C160.939 29.1764 159.699 30.6831 158.279 31.9831C154.229 35.7031 149.949 32.6431 150.969 27.1631" stroke="#F6831E" stroke-width="2"/>
<path d="M200.541 51.7539C196.301 54.4939 192.631 59.8939 199.621 62.5839C199.784 62.6497 199.952 62.6837 200.114 62.6837C200.276 62.6837 200.429 62.6497 200.561 62.5839L207.391 59.2039" stroke="#F6831E" stroke-width="2"/>
<path d="M215.331 67.7129C210.644 72.2196 211.141 75.5762 216.821 77.7829C216.978 77.8458 217.142 77.8783 217.302 77.8783C217.462 77.8783 217.615 77.8458 217.751 77.7829L222.201 75.7629" stroke="#F6831E" stroke-width="2"/>
<path d="M229.401 84.4932C227.481 86.1532 226.627 88.4498 226.841 91.3831C226.85 91.5482 226.89 91.7083 226.959 91.8541C227.028 92 227.123 92.1288 227.241 92.2332C230.611 95.2832 234.031 92.4431 237.251 90.9631" stroke="#F6831E" stroke-width="2"/>
<path d="M238.289 92.2539C239.749 95.3006 242.069 97.3706 245.249 98.4639" stroke="#F6C643" stroke-width="2"/>
<path d="M249.602 100.312C249.615 105.046 252.095 106.859 257.042 105.753" stroke="#F5801F" stroke-width="2"/>
<path d="M258.578 110.713C259.205 112.38 260.358 113.533 262.038 114.173" stroke="#F6C643" stroke-width="2"/>
<path d="M264.539 114.754C263.746 115.534 263.446 116.361 263.639 117.234C263.673 117.399 263.742 117.553 263.841 117.685C263.94 117.817 264.065 117.922 264.209 117.994L270.289 121.004" stroke="#F5801F" stroke-width="2"/>
<path d="M275.701 128.583C274.614 130.716 273.997 132.846 273.851 134.973C273.838 135.162 273.865 135.352 273.928 135.53C273.991 135.709 274.09 135.873 274.218 136.011C274.346 136.15 274.502 136.261 274.674 136.337C274.846 136.413 275.032 136.452 275.221 136.453C278.801 136.5 282.241 136.183 285.541 135.503" stroke="#F9871C" stroke-width="2"/>
<path d="M38.0781 134.463C39.4515 135.677 41.0148 136.483 42.7681 136.883C43.0884 136.954 43.4184 136.9 43.6881 136.733C48.2548 133.96 48.6648 130.363 44.9181 125.943" stroke="#F78B1E" stroke-width="2"/>
<path d="M52.3281 114.964C54.0881 116.004 56.0348 116.684 58.1682 117.004C59.7548 117.237 60.8748 116.62 61.5281 115.154C63.4348 110.807 61.8982 108.01 56.9182 106.764" stroke="#F68C1A" stroke-width="2"/>
<path d="M63.2891 95.7537C66.9691 97.2937 71.499 96.1137 72.269 91.7637C72.3272 91.4098 72.2702 91.0711 72.1091 90.8137L69.6691 86.8438" stroke="#F78B1E" stroke-width="2"/>
<path d="M79.0781 74.7129C79.7781 73.4062 79.6948 72.2396 78.8281 71.2129" stroke="#F6C643" stroke-width="2"/>
<path d="M83.5619 65.0732C82.1886 67.4399 81.1852 69.9799 80.5519 72.6932C80.5171 72.8507 80.5142 73.012 80.5434 73.1669C80.5727 73.3219 80.6335 73.4671 80.7219 73.5933C82.7086 76.4266 85.2486 77.4033 88.3419 76.5233C93.6319 75.0233 87.2619 68.4732 85.7919 66.5032" stroke="#F68C1A" stroke-width="2"/>
<path d="M95 57.7133C95.98 60.9933 98.0566 62.4133 101.23 61.9733C107.74 61.0833 103.31 53.1633 101.94 50.3633" stroke="#F9871C" stroke-width="2"/>
<path d="M136.529 29.8633L136.389 35.3932C136.386 35.5259 136.34 35.6667 136.255 35.8041C136.17 35.9414 136.048 36.0713 135.899 36.1832C132.432 38.8632 129.789 38.1999 127.969 34.1932" stroke="#F6831E" stroke-width="2"/>
<path d="M196.478 47.7038C193.218 50.0971 190.425 49.8972 188.098 47.1038C187.887 46.8473 187.783 46.5314 187.808 46.2238L188.268 41.4238" stroke="#F6831E" stroke-width="2"/>
<path d="M117.33 39.9629C117.59 41.6629 117.99 43.3329 118.53 44.9729C119.71 48.5329 114.05 52.0629 111.27 48.4029C111.087 48.1691 110.979 47.8541 110.96 47.5029C110.886 46.2695 110.543 45.1329 109.93 44.0929" stroke="#F6831E" stroke-width="2"/>
<path d="M179.33 36.2129C178.37 39.3262 176.32 40.8162 173.18 40.6829C171.894 40.6295 171.197 39.9596 171.09 38.6729C170.89 36.0796 171.277 33.5929 172.25 31.2129" stroke="#F6831E" stroke-width="2"/>
<path d="M150.159 57.4076C151.012 57.4642 151.869 57.3402 152.68 57.0425C153.491 56.7449 154.241 56.2794 154.888 55.6727C155.534 55.066 156.063 54.33 156.446 53.5067C156.828 52.6834 157.056 51.7889 157.117 50.8743C157.178 49.9596 157.07 49.0429 156.8 48.1762C156.53 47.3095 156.102 46.51 155.542 45.8232C154.982 45.1364 154.3 44.5758 153.535 44.1734C152.77 43.7711 151.937 43.5349 151.084 43.4782C150.231 43.4215 149.374 43.5456 148.563 43.8432C147.752 44.1409 147.002 44.6063 146.355 45.213C145.709 45.8197 145.18 46.5557 144.797 47.379C144.415 48.2023 144.187 49.0968 144.126 50.0115C144.065 50.9261 144.173 51.8429 144.443 52.7096C144.714 53.5763 145.141 54.3758 145.701 55.0626C146.261 55.7494 146.943 56.31 147.708 56.7123C148.473 57.1147 149.306 57.3509 150.159 57.4076Z" stroke="#F4B221" stroke-width="2"/>
<path d="M116.858 68.5937C122.088 71.2137 124.698 67.2737 124.248 62.5337C124.228 62.3137 124.175 62.1112 124.099 61.9526C124.022 61.7939 123.924 61.6863 123.818 61.6437C121.812 60.877 120.022 61.2137 118.448 62.6537C118.26 62.8298 118.106 63.1137 118.008 63.4637L116.748 68.1537C116.723 68.2483 116.72 68.3441 116.74 68.4244C116.76 68.5048 116.802 68.5647 116.858 68.5937Z" stroke="#996E11" stroke-width="2"/>
<path d="M146.893 77.3403C146.683 76.9839 146.404 76.6723 146.074 76.4234C145.744 76.1744 145.368 75.993 144.967 75.8894C144.567 75.7859 144.15 75.7621 143.74 75.8197C143.33 75.8773 142.936 76.015 142.58 76.225L140.684 77.3415C140.328 77.5515 140.016 77.8295 139.767 78.1599C139.518 78.4902 139.337 78.8664 139.233 79.2669C139.13 79.6674 139.106 80.0844 139.163 80.494C139.221 80.9037 139.359 81.2979 139.569 81.6544L140.33 82.9468C140.54 83.3033 140.818 83.6149 141.148 83.8638C141.479 84.1128 141.855 84.2942 142.255 84.3978C142.656 84.5013 143.073 84.525 143.483 84.4674C143.892 84.4098 144.286 84.2721 144.643 84.0621L146.538 82.9457C146.895 82.7357 147.207 82.4576 147.455 82.1273C147.704 81.7969 147.886 81.4207 147.989 81.0202C148.093 80.6197 148.117 80.2027 148.059 79.7931C148.002 79.3835 147.864 78.9892 147.654 78.6328L146.893 77.3403Z" stroke="#93680D" stroke-width="2"/>
<path d="M177.24 91.2839C178.494 92.1372 179.88 92.5305 181.4 92.4639C187.42 92.2039 193.84 84.5538 187.18 79.6238C177.62 72.5438 169.76 86.2339 177.24 91.2839Z" stroke="#F4B221" stroke-width="2"/>
<path d="M86.9519 98.3934C90.8319 100.523 95.4919 96.6134 97.0319 93.3934C99.3419 88.5634 94.0519 82.9934 89.2719 85.9234C86.0586 87.8901 84.6953 91.1634 85.182 95.7434C85.3086 96.9367 85.8986 97.82 86.9519 98.3934Z" stroke="#F4B221" stroke-width="2"/>
<path d="M114.269 100.233C115.996 101.279 117.812 101.509 119.719 100.923C121.872 100.263 122.449 98.9559 121.449 97.0026C118.629 91.5159 115.949 91.6426 113.409 97.3826C112.869 98.6093 113.156 99.5593 114.269 100.233Z" stroke="#996E11" stroke-width="2"/>
<path d="M224.829 99.9604C225.162 99.6244 225.412 99.2135 225.566 98.7514C225.72 98.2893 225.775 97.785 225.727 97.2672C225.679 96.7493 225.529 96.2282 225.286 95.7335C225.044 95.2388 224.713 94.7801 224.312 94.3839C223.504 93.5836 222.461 93.0857 221.414 92.9997C220.368 92.9136 219.402 93.2466 218.731 93.9252C218.398 94.2612 218.148 94.672 217.994 95.1341C217.84 95.5962 217.785 96.1006 217.833 96.6184C217.881 97.1363 218.031 97.6574 218.274 98.1521C218.516 98.6468 218.847 99.1054 219.248 99.5017C220.057 100.302 221.099 100.8 222.146 100.886C223.192 100.972 224.158 100.639 224.829 99.9604Z" stroke="#946B12" stroke-width="2"/>
<path d="M247.034 112.235C247.309 111.919 247.52 111.553 247.653 111.156C247.787 110.758 247.841 110.339 247.812 109.921C247.784 109.503 247.673 109.095 247.487 108.72C247.301 108.344 247.042 108.01 246.727 107.734L245.009 106.235C244.693 105.96 244.326 105.749 243.929 105.616C243.532 105.482 243.113 105.428 242.695 105.457C242.277 105.485 241.868 105.596 241.493 105.782C241.118 105.968 240.783 106.226 240.508 106.542L239.942 107.19C239.667 107.506 239.456 107.873 239.323 108.27C239.189 108.667 239.135 109.086 239.164 109.504C239.192 109.922 239.303 110.33 239.489 110.706C239.675 111.081 239.934 111.416 240.249 111.691L241.967 113.19C242.283 113.465 242.65 113.676 243.047 113.809C243.444 113.943 243.863 113.997 244.281 113.969C244.699 113.94 245.108 113.83 245.483 113.643C245.858 113.457 246.193 113.199 246.468 112.883L247.034 112.235Z" stroke="#93680D" stroke-width="2"/>
<path d="M75.3251 124.192C76.7702 124.695 78.3873 124.514 79.8206 123.689C81.2539 122.864 82.3859 121.461 82.9676 119.791C83.2557 118.963 83.4 118.095 83.3923 117.236C83.3846 116.376 83.225 115.542 82.9227 114.781C82.6204 114.02 82.1813 113.346 81.6304 112.8C81.0795 112.253 80.4277 111.843 79.7121 111.594C78.2669 111.091 76.6498 111.272 75.2165 112.097C73.7833 112.923 72.6512 114.325 72.0694 115.995C71.7814 116.823 71.6371 117.691 71.6448 118.55C71.6525 119.41 71.8121 120.244 72.1144 121.005C72.4167 121.767 72.8558 122.44 73.4067 122.986C73.9576 123.533 74.6095 123.943 75.3251 124.192Z" stroke="#F4B221" stroke-width="2"/>
<path d="M268.39 125.676C268.562 125.236 268.633 124.763 268.6 124.283C268.567 123.803 268.431 123.325 268.199 122.876C267.967 122.428 267.644 122.018 267.249 121.671C266.853 121.323 266.392 121.043 265.893 120.849C265.394 120.654 264.866 120.548 264.339 120.536C263.812 120.525 263.297 120.608 262.823 120.781C262.349 120.953 261.925 121.213 261.576 121.544C261.227 121.876 260.959 122.272 260.788 122.712C260.617 123.151 260.545 123.624 260.578 124.104C260.611 124.585 260.747 125.063 260.979 125.511C261.211 125.959 261.534 126.369 261.93 126.717C262.325 127.065 262.786 127.344 263.285 127.538C263.784 127.733 264.312 127.839 264.839 127.851C265.366 127.863 265.881 127.78 266.355 127.607C266.829 127.434 267.253 127.174 267.602 126.843C267.951 126.512 268.219 126.115 268.39 125.676Z" stroke="#93680D" stroke-width="2"/>
<path d="M42.2183 152.083C45.5516 154.53 48.1149 154.013 49.9083 150.533C51.9683 146.523 45.6983 142.423 44.4083 147.243C43.9983 148.783 43.4383 149.293 42.2483 150.103C42.0877 150.212 41.9557 150.358 41.8636 150.529C41.7715 150.7 41.7218 150.891 41.7189 151.085C41.7159 151.279 41.7598 151.471 41.8467 151.645C41.9336 151.819 42.0611 151.969 42.2183 152.083Z" stroke="#93680D" stroke-width="2"/>
<path d="M151.529 55.3505C152.042 55.2564 152.526 55.0362 152.955 54.7026C153.383 54.369 153.748 53.9285 154.027 53.4062C154.306 52.8839 154.494 52.2901 154.581 51.6586C154.668 51.0271 154.652 50.3703 154.533 49.7258C154.294 48.4241 153.654 47.2512 152.753 46.4652C151.851 45.6792 150.763 45.3444 149.728 45.5345C149.215 45.6286 148.73 45.8487 148.302 46.1823C147.873 46.5159 147.509 46.9565 147.23 47.4788C146.951 48.0011 146.763 48.5949 146.676 49.2264C146.589 49.8579 146.605 50.5147 146.724 51.1592C146.963 52.4609 147.603 53.6337 148.504 54.4198C149.406 55.2058 150.494 55.5406 151.529 55.3505Z" stroke="#8B6A21" stroke-width="2"/>
<path d="M178.711 89.6233C182.151 90.4966 184.797 89.47 186.651 86.5433C187.457 85.2566 187.464 84.0333 186.671 82.8733C184.444 79.6466 181.694 79.01 178.421 80.9633C178.325 81.0187 178.229 81.1308 178.14 81.2896C178.051 81.4484 177.972 81.649 177.911 81.8733L176.601 86.4733C176.134 88.1 176.837 89.1499 178.711 89.6233Z" stroke="#927025" stroke-width="2"/>
<path d="M95.1307 90.0035C91.9207 83.4135 87.2807 91.5435 87.5207 94.7635C87.634 96.2168 88.384 96.7702 89.7707 96.4235C92.7107 95.6902 94.5507 93.8768 95.2907 90.9835C95.3611 90.7075 95.3038 90.3565 95.1307 90.0035Z" stroke="#8B6A21" stroke-width="2"/>
<path d="M76.1117 122.111C76.9819 122.394 77.9574 122.231 78.8237 121.659C79.6899 121.086 80.3759 120.151 80.7308 119.059C80.9065 118.518 80.9956 117.955 80.993 117.402C80.9905 116.849 80.8963 116.316 80.7159 115.835C80.5354 115.354 80.2723 114.933 79.9415 114.596C79.6106 114.26 79.2185 114.015 78.7877 113.875C77.9174 113.592 76.9419 113.755 76.0757 114.327C75.2094 114.9 74.5234 115.835 74.1686 116.927C73.9929 117.468 73.9038 118.031 73.9063 118.584C73.9089 119.137 74.003 119.67 74.1835 120.151C74.3639 120.633 74.627 121.053 74.9579 121.39C75.2887 121.726 75.6808 121.971 76.1117 122.111Z" stroke="#8B6A21" stroke-width="2"/>
<path d="M161.999 27.4634C160.939 29.1767 159.699 30.6834 158.279 31.9834C154.229 35.7034 149.949 32.6434 150.969 27.1634C151.209 26.4234 151.989 25.8134 152.239 25.1034C154.852 17.9234 158.346 10.5267 162.719 2.91337C163.879 0.886708 165.259 0.470041 166.859 1.66337C166.972 1.74733 167.057 1.86733 167.105 2.00914C167.153 2.15095 167.161 2.30861 167.129 2.46336L161.999 27.4634Z" fill="#F1552E"/>
<path d="M179.33 36.213C178.37 39.3263 176.32 40.8163 173.18 40.6829C171.894 40.6296 171.197 39.9597 171.09 38.673C170.89 36.0797 171.277 33.593 172.25 31.213L182.52 2.19295C182.636 1.88462 182.843 1.64123 183.1 1.51296C184.04 1.05296 184.914 1.13963 185.72 1.77297C185.807 1.841 185.871 1.97098 185.904 2.14687C185.938 2.32275 185.94 2.53687 185.91 2.76296C184.45 14.603 183.78 24.833 179.33 36.213Z" fill="#F1552E"/>
<path d="M136.529 29.8638L136.389 35.3937C136.386 35.5264 136.34 35.6672 136.255 35.8046C136.17 35.9419 136.048 36.0718 135.899 36.1837C132.432 38.8637 129.789 38.2004 127.969 34.1937C128.315 26.9204 129.289 19.7571 130.889 12.7037C131.489 10.0504 132.882 9.35704 135.069 10.6237C135.191 10.6946 135.295 10.8003 135.37 10.9313C135.445 11.0622 135.489 11.2143 135.499 11.3737L136.529 29.8638Z" fill="#F1552E"/>
<path d="M196.478 47.7036C193.218 50.0969 190.425 49.8969 188.098 47.1036C187.887 46.8471 187.783 46.5312 187.808 46.2236L188.268 41.4236C193.748 33.4569 198.185 24.9602 201.578 15.9336C201.666 15.7069 201.769 15.5064 201.876 15.352C201.983 15.1975 202.091 15.0947 202.188 15.0536C203.515 14.5136 204.702 14.7569 205.748 15.7836C205.856 15.8906 205.939 16.0288 205.994 16.189C206.05 16.3492 206.075 16.528 206.068 16.7136C205.648 27.9336 202.452 38.2636 196.478 47.7036Z" fill="#F1552E"/>
<path d="M117.329 39.9635C117.589 41.6635 117.989 43.3335 118.529 44.9735C119.709 48.5335 114.049 52.0635 111.269 48.4035C111.087 48.1697 110.978 47.8547 110.959 47.5035C110.886 46.2701 110.542 45.1335 109.929 44.0935C109.639 40.2935 108.269 21.2735 112.469 20.0435C112.631 19.9967 112.801 19.9884 112.967 20.0193C113.133 20.0502 113.289 20.1195 113.423 20.2215C113.557 20.3235 113.665 20.4555 113.739 20.6069C113.813 20.7584 113.851 20.925 113.849 21.0935C113.756 27.6668 114.916 33.9568 117.329 39.9635Z" fill="#F1552E"/>
<path d="M151.151 27.168C150.133 32.5947 154.406 35.625 158.45 31.9411C159.868 30.6538 161.106 29.1617 162.165 27.465C163.623 30.6438 168.895 30.9706 172.399 31.1786C171.428 33.5355 171.041 35.998 171.241 38.5661C171.348 39.8403 172.043 40.5037 173.328 40.5565C176.463 40.6886 178.51 39.2131 179.469 36.13C181.699 38.6849 184.674 40.4047 188.396 41.2894L187.936 46.0427C187.911 46.3473 188.015 46.6602 188.226 46.9142C190.549 49.6804 193.338 49.8784 196.593 47.5083C197.519 49.2578 198.87 50.5947 200.647 51.519C196.414 54.2323 192.749 59.5799 199.729 62.2437C199.891 62.3089 200.059 62.3426 200.221 62.3426C200.383 62.3426 200.535 62.3089 200.667 62.2437L207.487 58.8966C209.823 62.0589 212.466 64.868 215.415 67.3239C210.735 71.7868 211.231 75.1108 216.903 77.296C217.06 77.3584 217.224 77.3905 217.384 77.3905C217.544 77.3905 217.696 77.3584 217.831 77.296L222.275 75.2957C223.932 78.7616 226.329 81.6434 229.464 83.9409C227.547 85.5847 226.695 87.859 226.908 90.7639C226.917 90.9273 226.958 91.0858 227.026 91.2303C227.095 91.3747 227.19 91.5023 227.307 91.6056C230.672 94.626 234.087 91.8136 237.302 90.348L238.341 91.6254C239.799 94.6425 242.115 96.6924 245.29 97.7751C246.728 98.772 248.176 99.3826 249.634 99.6071C249.647 104.294 252.123 106.09 257.063 104.994C256.264 106.929 256.777 108.566 258.6 109.906C259.226 111.556 260.378 112.699 262.055 113.332L264.552 113.907C263.759 114.679 263.46 115.498 263.653 116.363C263.687 116.526 263.756 116.679 263.854 116.809C263.953 116.94 264.079 117.044 264.222 117.115L270.293 120.096C271.571 122.981 273.372 125.483 275.695 127.602C274.61 129.715 273.994 131.824 273.848 133.93C273.835 134.118 273.862 134.305 273.925 134.482C273.988 134.659 274.086 134.821 274.215 134.958C274.343 135.096 274.498 135.205 274.67 135.281C274.842 135.356 275.028 135.395 275.216 135.396C278.79 135.442 282.225 135.128 285.52 134.455C284.262 136.812 287.108 137.396 288.556 138.129L291.341 139.545C291.557 139.653 291.76 139.747 291.921 139.813C292.083 139.879 292.194 139.913 292.24 139.912C294.25 139.806 295.921 140.443 297.253 141.823C297.498 142.079 297.657 142.348 297.702 142.585C297.915 143.582 297.795 144.516 297.343 145.388C297.251 145.564 297.187 145.738 297.159 145.894C297.131 146.05 297.139 146.183 297.183 146.279C297.482 146.952 298.088 147.22 299 147.081C292.496 147.92 286.229 147.022 280.198 144.388C267.238 138.736 254.453 132.679 241.846 126.216C226.016 118.109 209.873 111.596 193.418 106.678C180.264 102.75 166.801 101.505 153.028 102.944C150.499 103.208 147.55 103.908 144.182 105.044C139.559 106.608 134.496 107.539 130.322 110.025C124.232 113.649 118.121 117.261 111.99 120.859C111.744 120.997 111.434 121.076 111.061 121.096C109.474 121.156 109.064 122.185 108.116 122.75C93.0283 131.682 77.9608 139.149 63.093 151.339C43.8418 167.134 26.1184 184.672 2.4937 192.991C1.20896 193.446 0.752981 193.024 1.12576 191.723C1.38537 190.812 1.93454 189.726 2.77328 188.465C10.7081 176.483 18.4165 164.372 25.8987 152.132C32.8749 153.624 34.9518 150.841 32.1294 143.784C34.7654 140.681 36.8656 137.228 38.43 133.425C39.8012 134.627 41.3622 135.426 43.1129 135.822C43.4327 135.891 43.7622 135.838 44.0316 135.673C48.5914 132.927 49.0008 129.365 45.2597 124.988C48.2952 121.654 50.7615 118.03 52.6586 114.115C54.416 115.145 56.3598 115.818 58.4899 116.135C60.0742 116.366 61.1925 115.755 61.8449 114.303C63.7487 109.998 62.2144 107.229 57.2418 105.994C60.5835 102.872 62.7036 99.2374 63.6023 95.0914C67.2768 96.6164 71.8 95.4479 72.5688 91.1402C72.6269 90.7897 72.57 90.4543 72.4091 90.1994L69.9727 86.268C72.2593 83.9012 79.0391 77.098 79.3687 74.2559C80.0676 72.9619 79.9844 71.8066 79.119 70.7899L74.7855 64.5511C74.5397 64.1965 74.4269 63.768 74.4671 63.3406C74.5073 62.9133 74.6978 62.5145 75.0052 62.2141C78.5299 58.7877 81.5754 62.2932 83.842 64.7095C82.4707 67.0532 81.4689 69.5685 80.8365 72.2555C80.8017 72.4114 80.7988 72.5711 80.828 72.7246C80.8572 72.878 80.9179 73.0218 81.0062 73.1468C82.9899 75.9526 85.5261 76.9197 88.6148 76.0483C93.8969 74.5629 87.5365 68.0765 86.0686 66.1256L95.2649 57.4211C96.2434 60.6692 98.317 62.0754 101.486 61.6397C107.986 60.7583 103.562 52.9153 102.195 50.1425L110.173 43.9334C110.785 44.9633 111.128 46.0889 111.201 47.3103C111.22 47.6581 111.329 47.9701 111.511 48.2016C114.286 51.826 119.938 48.3303 118.76 44.8049C118.221 43.1808 117.821 41.527 117.562 39.8436L128.186 34.1296C130.003 38.0974 132.642 38.7542 136.104 36.1003C136.252 35.9895 136.374 35.8608 136.459 35.7248C136.544 35.5888 136.59 35.4493 136.593 35.318L136.733 29.8417C141.652 29.2806 146.458 28.3893 151.151 27.168ZM150.34 57.1187C151.192 57.1749 152.047 57.052 152.857 56.7572C153.667 56.4625 154.416 56.0015 155.061 55.4007C155.707 54.8 156.235 54.0711 156.617 53.2558C156.999 52.4405 157.227 51.5546 157.288 50.6489C157.348 49.7432 157.241 48.8353 156.971 47.9771C156.701 47.1188 156.274 46.327 155.715 45.6469C155.155 44.9668 154.474 44.4117 153.711 44.0132C152.947 43.6148 152.115 43.3808 151.264 43.3247C150.412 43.2686 149.557 43.3915 148.746 43.6862C147.936 43.981 147.187 44.4419 146.542 45.0427C145.897 45.6434 145.368 46.3723 144.986 47.1876C144.604 48.003 144.376 48.8888 144.316 49.7945C144.255 50.7002 144.363 51.6082 144.633 52.4664C144.903 53.3247 145.329 54.1164 145.889 54.7966C146.448 55.4767 147.129 56.0318 147.893 56.4303C148.657 56.8287 149.488 57.0626 150.34 57.1187ZM117.092 68.1954C122.314 70.7899 124.921 66.8882 124.471 62.1942C124.45 61.9764 124.398 61.7759 124.322 61.6188C124.245 61.4617 124.148 61.3551 124.042 61.3129C122.038 60.5537 120.251 60.8871 118.68 62.3131C118.492 62.4875 118.338 62.7686 118.24 63.1152L116.982 67.7596C116.957 67.8533 116.954 67.9481 116.974 68.0277C116.994 68.1073 117.036 68.1666 117.092 68.1954ZM147.079 76.8571C146.869 76.5041 146.591 76.1956 146.261 75.949C145.932 75.7025 145.556 75.5228 145.156 75.4203C144.756 75.3177 144.34 75.2942 143.931 75.3513C143.522 75.4083 143.128 75.5447 142.772 75.7526L140.879 76.8583C140.524 77.0662 140.212 77.3415 139.964 77.6687C139.715 77.9958 139.534 78.3684 139.431 78.765C139.327 79.1616 139.304 79.5745 139.361 79.9802C139.419 80.3858 139.556 80.7763 139.766 81.1292L140.526 82.4091C140.736 82.7621 141.013 83.0707 141.343 83.3172C141.673 83.5637 142.049 83.7434 142.448 83.846C142.848 83.9485 143.265 83.972 143.674 83.9149C144.083 83.8579 144.476 83.7215 144.832 83.5136L146.725 82.408C147.081 82.2001 147.392 81.9247 147.641 81.5975C147.889 81.2704 148.07 80.8978 148.174 80.5012C148.277 80.1046 148.301 79.6917 148.243 79.286C148.186 78.8804 148.048 78.4899 147.839 78.137L147.079 76.8571ZM177.382 90.6649C178.633 91.5099 180.018 91.8994 181.536 91.8334C187.547 91.5759 193.957 84.0002 187.307 79.1181C177.761 72.1069 169.913 85.6639 177.382 90.6649ZM87.2269 97.7057C91.1011 99.815 95.7542 95.943 97.2918 92.7543C99.5984 87.9713 94.3163 82.4554 89.5434 85.357C86.3349 87.3045 84.9736 90.546 85.4596 95.0815C85.5861 96.2633 86.1751 97.138 87.2269 97.7057ZM114.506 99.5279C116.23 100.564 118.044 100.792 119.948 100.211C122.098 99.5576 122.674 98.2636 121.675 96.3292C118.86 90.8959 116.184 91.0213 113.647 96.7056C113.108 97.9203 113.394 98.8611 114.506 99.5279ZM224.9 99.2581C225.232 98.9254 225.482 98.5185 225.636 98.0609C225.79 97.6033 225.844 97.1039 225.796 96.5911C225.748 96.0783 225.599 95.5622 225.357 95.0723C225.114 94.5824 224.784 94.1282 224.384 93.7358C223.576 92.9433 222.536 92.4502 221.49 92.365C220.445 92.2798 219.481 92.6095 218.811 93.2816C218.479 93.6143 218.229 94.0211 218.075 94.4787C217.921 94.9364 217.867 95.4358 217.915 95.9486C217.963 96.4614 218.112 96.9775 218.354 97.4674C218.597 97.9573 218.927 98.4114 219.327 98.8039C220.135 99.5964 221.175 100.089 222.221 100.175C223.266 100.26 224.23 99.9302 224.9 99.2581ZM247.073 111.414C247.348 111.101 247.558 110.738 247.692 110.345C247.825 109.951 247.879 109.536 247.851 109.122C247.822 108.708 247.712 108.304 247.526 107.932C247.34 107.561 247.082 107.229 246.767 106.956L245.051 105.472C244.736 105.2 244.37 104.991 243.973 104.859C243.577 104.726 243.158 104.673 242.741 104.701C242.323 104.729 241.916 104.839 241.541 105.023C241.167 105.208 240.832 105.463 240.557 105.776L239.993 106.418C239.718 106.73 239.508 107.094 239.374 107.487C239.241 107.88 239.187 108.295 239.215 108.709C239.244 109.123 239.354 109.528 239.54 109.899C239.726 110.271 239.984 110.602 240.299 110.875L242.015 112.359C242.33 112.632 242.696 112.84 243.093 112.973C243.489 113.105 243.908 113.159 244.325 113.13C244.743 113.102 245.15 112.993 245.525 112.808C245.9 112.624 246.234 112.368 246.509 112.055L247.073 111.414ZM75.6208 123.254C77.0638 123.752 78.6785 123.573 80.1096 122.756C81.5407 121.938 82.671 120.55 83.2519 118.895C83.5396 118.076 83.6837 117.216 83.676 116.365C83.6683 115.514 83.5089 114.688 83.2071 113.934C82.9052 113.18 82.4668 112.514 81.9167 111.972C81.3667 111.431 80.7158 111.025 80.0013 110.778C78.5582 110.28 76.9436 110.459 75.5124 111.277C74.0813 112.094 72.9509 113.483 72.37 115.137C72.0824 115.956 71.9383 116.816 71.946 117.667C71.9537 118.519 72.113 119.345 72.4149 120.098C72.7168 120.852 73.1553 121.519 73.7053 122.06C74.2554 122.602 74.9063 123.007 75.6208 123.254ZM268.397 124.723C268.568 124.288 268.639 123.819 268.607 123.343C268.574 122.868 268.438 122.395 268.206 121.951C267.975 121.507 267.652 121.101 267.257 120.757C266.862 120.412 266.402 120.135 265.904 119.943C265.405 119.75 264.878 119.645 264.352 119.633C263.826 119.622 263.312 119.704 262.838 119.875C262.365 120.046 261.942 120.303 261.593 120.632C261.244 120.96 260.977 121.352 260.806 121.787C260.635 122.222 260.564 122.691 260.596 123.167C260.629 123.642 260.765 124.115 260.997 124.559C261.228 125.003 261.551 125.409 261.946 125.754C262.341 126.098 262.801 126.375 263.299 126.567C263.798 126.76 264.325 126.865 264.851 126.877C265.377 126.888 265.891 126.806 266.365 126.635C266.838 126.464 267.261 126.207 267.61 125.879C267.959 125.55 268.226 125.158 268.397 124.723ZM42.5637 150.874C45.8921 153.297 48.4516 152.785 50.2423 149.339C52.2992 145.368 46.0386 141.308 44.7505 146.081C44.3411 147.606 43.7819 148.111 42.5937 148.913C42.4334 149.021 42.3016 149.166 42.2096 149.336C42.1176 149.505 42.068 149.694 42.0651 149.886C42.0622 150.078 42.1059 150.268 42.1927 150.44C42.2795 150.612 42.4068 150.761 42.5637 150.874Z" fill="#FBB00D"/>
<path d="M207.391 59.2041L200.561 62.5841C200.429 62.6498 200.276 62.6839 200.114 62.6839C199.952 62.6839 199.784 62.6498 199.621 62.5841C192.631 59.8941 196.301 54.494 200.541 51.754C206.201 47.3607 211.694 42.3407 217.021 36.694C218.454 35.174 219.774 34.4707 220.981 34.5841C221.974 34.6774 222.767 35.024 223.361 35.624C223.454 35.7207 223.517 35.8693 223.541 36.0541C223.566 36.2389 223.552 36.4531 223.501 36.6741C221.421 45.3841 214.091 53.5241 207.391 59.2041Z" fill="#F1552E"/>
<path d="M101.938 50.3634C103.308 53.1634 107.738 61.0834 101.228 61.9734C98.0547 62.4134 95.9781 60.9934 94.9981 57.7134C94.3481 54.9834 90.4381 38.3234 96.5481 39.5934C96.6873 39.6215 96.8215 39.6887 96.9397 39.7895C97.0579 39.8903 97.1567 40.0218 97.2281 40.1734L101.938 50.3634Z" fill="#F65E2B"/>
<path d="M150.155 57.4076C149.302 57.3509 148.469 57.1147 147.704 56.7123C146.94 56.31 146.258 55.7494 145.697 55.0626C145.137 54.3758 144.71 53.5763 144.439 52.7096C144.169 51.8429 144.061 50.9261 144.122 50.0115C144.183 49.0968 144.411 48.2023 144.793 47.379C145.176 46.5557 145.705 45.8197 146.352 45.213C146.998 44.6063 147.748 44.1409 148.559 43.8432C149.371 43.5456 150.227 43.4215 151.08 43.4782C151.933 43.5349 152.766 43.7711 153.531 44.1734C154.296 44.5758 154.978 45.1364 155.538 45.8232C156.098 46.51 156.526 47.3095 156.796 48.1762C157.066 49.0429 157.174 49.9596 157.113 50.8743C157.053 51.7889 156.824 52.6834 156.442 53.5067C156.059 54.33 155.53 55.066 154.884 55.6727C154.238 56.2794 153.487 56.7449 152.676 57.0425C151.865 57.3402 151.008 57.4642 150.155 57.4076ZM151.528 55.3509C152.041 55.2568 152.526 55.0366 152.954 54.703C153.383 54.3694 153.747 53.9289 154.026 53.4066C154.305 52.8843 154.493 52.2905 154.58 51.659C154.667 51.0275 154.651 50.3707 154.532 49.7262C154.294 48.4245 153.653 47.2516 152.752 46.4656C151.851 45.6796 150.762 45.3448 149.727 45.5349C149.214 45.629 148.73 45.8491 148.301 46.1827C147.873 46.5163 147.509 46.9569 147.23 47.4792C146.951 48.0015 146.762 48.5953 146.675 49.2268C146.588 49.8583 146.605 50.5151 146.723 51.1596C146.962 52.4613 147.602 53.6341 148.504 54.4202C149.405 55.2062 150.493 55.541 151.528 55.3509Z" fill="#ECB335"/>
<path d="M146.724 51.1597C147.222 53.8703 149.373 55.7469 151.53 55.3511C153.686 54.9553 155.031 52.437 154.534 49.7264C154.036 47.0158 151.885 45.1392 149.728 45.535C147.571 45.9308 146.227 48.4491 146.724 51.1597Z" fill="#2A200D"/>
<path d="M222.201 75.7635L217.751 77.7836C217.615 77.8465 217.462 77.879 217.302 77.879C217.142 77.879 216.978 77.8465 216.821 77.7836C211.141 75.5769 210.644 72.2202 215.331 67.7135C222.097 62.3469 229.037 57.2302 236.151 52.3636C237.984 51.1102 239.604 51.0335 241.011 52.1335C242.397 53.2135 242.511 54.4169 241.351 55.7436C235.284 62.6569 228.901 69.3302 222.201 75.7635Z" fill="#F1552E"/>
<path d="M116.858 68.5937C116.802 68.5647 116.76 68.5048 116.74 68.4244C116.72 68.3441 116.723 68.2483 116.748 68.1537L118.008 63.4637C118.106 63.1137 118.26 62.8298 118.448 62.6537C120.022 61.2137 121.812 60.877 123.818 61.6437C123.924 61.6863 124.022 61.7939 124.099 61.9526C124.175 62.1112 124.228 62.3137 124.248 62.5337C124.698 67.2737 122.088 71.2137 116.858 68.5937Z" fill="#372C14"/>
<path d="M83.558 65.0732L85.788 66.5032C87.258 68.4732 93.628 75.0233 88.338 76.5233C85.2447 77.4033 82.7047 76.4266 80.718 73.5933C80.6296 73.4671 80.5688 73.3219 80.5395 73.1669C80.5103 73.012 80.5132 72.8507 80.548 72.6932C81.1813 69.9799 82.1847 67.4399 83.558 65.0732Z" fill="#F16826"/>
<path d="M237.251 90.9633C234.031 92.4433 230.611 95.2833 227.241 92.2333C227.123 92.129 227.028 92.0002 226.959 91.8543C226.89 91.7084 226.85 91.5484 226.841 91.3833C226.627 88.45 227.481 86.1533 229.401 84.4933C234.181 81.1333 250.971 66.5433 256.001 72.5933C256.101 72.7118 256.168 72.8549 256.194 73.0079C256.221 73.1608 256.205 73.3181 256.151 73.4633C255.484 75.1833 254.427 76.58 252.981 77.6533C247.467 81.7667 242.224 86.2033 237.251 90.9633Z" fill="#F1552E"/>
<path d="M78.8281 71.2129C79.6948 72.2396 79.7781 73.4062 79.0781 74.7129L78.8281 71.2129Z" fill="#F1DB78"/>
<path d="M142.578 76.2241L140.683 77.3407C139.184 78.2237 138.685 80.1546 139.567 81.6536L140.329 82.946C141.212 84.445 143.143 84.9444 144.642 84.0614L146.537 82.9448C148.036 82.0619 148.536 80.1309 147.653 78.632L146.891 77.3395C146.008 75.8405 144.077 75.3412 142.578 76.2241Z" fill="#2A200D"/>
<path d="M177.24 91.2839C169.76 86.2339 177.62 72.5438 187.18 79.6238C193.84 84.5538 187.42 92.2038 181.4 92.4639C179.88 92.5305 178.494 92.1372 177.24 91.2839ZM178.71 89.6238C182.15 90.4972 184.797 89.4705 186.65 86.5439C187.457 85.2572 187.464 84.0338 186.67 82.8738C184.444 79.6472 181.694 79.0105 178.42 80.9638C178.325 81.0193 178.229 81.1314 178.14 81.2902C178.051 81.449 177.972 81.6495 177.91 81.8738L176.6 86.4739C176.134 88.1005 176.837 89.1505 178.71 89.6238Z" fill="#ECB335"/>
<path d="M178.711 89.6233C176.837 89.1499 176.134 88.1 176.601 86.4733L177.911 81.8733C177.972 81.649 178.051 81.4484 178.14 81.2896C178.229 81.1308 178.325 81.0187 178.421 80.9633C181.694 79.01 184.444 79.6466 186.671 82.8733C187.464 84.0333 187.457 85.2566 186.651 86.5433C184.797 89.47 182.151 90.4966 178.711 89.6233Z" fill="#372C14"/>
<path d="M69.6691 86.844L72.1091 90.8139C72.2702 91.0713 72.3272 91.41 72.2691 91.7639C71.4991 96.1139 66.9691 97.2939 63.2891 95.7539C61.1091 92.1739 58.5791 88.8073 55.6991 85.654C55.6047 85.5478 55.5507 85.4124 55.5471 85.2728C55.5434 85.1332 55.5903 84.9986 55.6791 84.8939C57.6691 82.5039 59.7091 82.4939 62.4491 84.0039C64.7491 85.2773 67.1558 86.224 69.6691 86.844Z" fill="#F3652E"/>
<path d="M86.948 98.3934C85.8947 97.82 85.3047 96.9367 85.1781 95.7434C84.6914 91.1634 86.0547 87.8901 89.268 85.9234C94.048 82.9934 99.338 88.5634 97.028 93.3934C95.488 96.6134 90.828 100.523 86.948 98.3934ZM95.1281 90.0034C91.9181 83.4134 87.278 91.5434 87.518 94.7634C87.6314 96.2167 88.3814 96.7701 89.768 96.4234C92.708 95.6901 94.548 93.8767 95.288 90.9834C95.3584 90.7074 95.3011 90.3564 95.1281 90.0034Z" fill="#ECB335"/>
<path d="M87.5207 94.7635C87.2807 91.5435 91.9207 83.4135 95.1307 90.0035C95.3038 90.3565 95.3611 90.7075 95.2907 90.9835C94.5507 93.8769 92.7107 95.6902 89.7707 96.4235C88.384 96.7702 87.634 96.2168 87.5207 94.7635Z" fill="#2A200D"/>
<path d="M257.038 105.753C252.091 106.86 249.611 105.046 249.598 100.313C255.068 96.673 267.008 84.613 272.988 88.513C274.381 89.4264 274.521 90.3697 273.408 91.3431L257.038 105.753Z" fill="#EF4F30"/>
<path d="M238.289 92.2539L245.249 98.4639C242.069 97.3706 239.749 95.3006 238.289 92.2539Z" fill="#F1DB78"/>
<path d="M114.269 100.233C113.156 99.5593 112.869 98.6093 113.409 97.3826C115.949 91.6426 118.629 91.5159 121.449 97.0026C122.449 98.9559 121.872 100.263 119.719 100.923C117.812 101.509 115.996 101.279 114.269 100.233Z" fill="#372C14"/>
<path d="M219.247 99.5025C220.931 101.169 223.43 101.374 224.828 99.9612C226.227 98.548 225.995 96.0513 224.311 94.3848C222.627 92.7182 220.128 92.5128 218.729 93.9261C217.331 95.3393 217.563 97.836 219.247 99.5025Z" fill="#2D2616"/>
<path d="M56.9183 106.763C61.8983 108.01 63.4349 110.806 61.5283 115.153C60.8749 116.62 59.7549 117.236 58.1683 117.003C56.0349 116.683 54.0883 116.003 52.3283 114.963L43.5783 105.623C43.3448 105.376 43.2006 105.074 43.1683 104.763C43.0416 103.576 43.4216 102.74 44.3083 102.253C45.3949 101.66 46.7483 101.953 48.3683 103.133C51.0216 105.06 53.8716 106.27 56.9183 106.763Z" fill="#F16826"/>
<path d="M270.289 121.003L264.209 117.993C264.065 117.921 263.94 117.816 263.841 117.684C263.742 117.552 263.673 117.398 263.639 117.233C263.446 116.359 263.746 115.533 264.539 114.753C269.452 111.653 274.106 108.209 278.499 104.423C281.172 102.116 283.572 102.159 285.699 104.553C285.806 104.676 285.887 104.817 285.937 104.969C285.987 105.12 286.005 105.278 285.989 105.433C285.229 112.143 275.449 119.013 270.289 121.003Z" fill="#EF4F30"/>
<path d="M246.727 107.735L245.009 106.236C243.682 105.078 241.667 105.215 240.508 106.543L239.943 107.191C238.785 108.518 238.922 110.533 240.25 111.691L241.968 113.19C243.296 114.348 245.311 114.211 246.469 112.883L247.034 112.235C248.192 110.908 248.055 108.893 246.727 107.735Z" fill="#2A200D"/>
<path d="M258.578 110.713L262.038 114.173C260.358 113.533 259.205 112.38 258.578 110.713Z" fill="#F1DB78"/>
<path d="M75.3251 124.192C74.6095 123.943 73.9576 123.533 73.4067 122.986C72.8558 122.44 72.4167 121.767 72.1144 121.005C71.8121 120.244 71.6525 119.41 71.6448 118.55C71.6371 117.691 71.7814 116.823 72.0694 115.995C72.6512 114.325 73.7833 112.923 75.2165 112.097C76.6498 111.272 78.2669 111.091 79.7121 111.594C80.4277 111.843 81.0795 112.253 81.6304 112.8C82.1813 113.346 82.6204 114.02 82.9227 114.781C83.225 115.542 83.3846 116.376 83.3923 117.236C83.4 118.095 83.2557 118.963 82.9676 119.791C82.3859 121.461 81.2539 122.864 79.8206 123.689C78.3873 124.514 76.7702 124.695 75.3251 124.192ZM76.1106 122.111C76.9808 122.394 77.9563 122.231 78.8226 121.659C79.6888 121.086 80.3748 120.151 80.7297 119.059C80.9054 118.518 80.9945 117.955 80.9919 117.402C80.9894 116.849 80.8952 116.316 80.7148 115.835C80.5343 115.354 80.2712 114.933 79.9404 114.596C79.6095 114.26 79.2174 114.015 78.7865 113.875C77.9163 113.592 76.9408 113.755 76.0746 114.327C75.2083 114.9 74.5223 115.835 74.1675 116.927C73.9918 117.468 73.9026 118.031 73.9052 118.584C73.9078 119.137 74.0019 119.67 74.1824 120.151C74.3628 120.633 74.6259 121.053 74.9568 121.39C75.2876 121.726 75.6797 121.971 76.1106 122.111Z" fill="#ECB335"/>
<path d="M74.1661 116.927C73.4271 119.202 74.297 121.523 76.1092 122.111C77.9213 122.7 79.9894 121.334 80.7284 119.059C81.4673 116.785 80.5974 114.464 78.7853 113.875C76.9731 113.287 74.9051 114.653 74.1661 116.927Z" fill="#2A200D"/>
<path d="M263.287 127.539C265.386 128.357 267.672 127.523 268.392 125.676C269.112 123.829 267.994 121.668 265.895 120.849C263.796 120.031 261.51 120.865 260.79 122.712C260.069 124.559 261.188 126.72 263.287 127.539Z" fill="#2A200D"/>
<path d="M44.9189 125.943C48.6656 130.363 48.2556 133.96 43.6889 136.733C43.4192 136.9 43.0892 136.954 42.7689 136.883C41.0156 136.483 39.4523 135.677 38.0789 134.463C36.7889 132.443 30.3089 124.633 35.3189 123.343C38.9689 122.393 40.8689 128.383 44.9189 125.943Z" fill="#F3652E"/>
<path d="M285.541 135.503C282.241 136.183 278.801 136.5 275.221 136.453C275.032 136.452 274.846 136.413 274.674 136.337C274.502 136.261 274.346 136.15 274.218 136.012C274.09 135.873 273.991 135.709 273.928 135.531C273.865 135.352 273.838 135.162 273.851 134.973C273.997 132.847 274.614 130.717 275.701 128.583C279.187 126.257 282.494 124.663 285.621 123.803C289.321 122.773 298.491 124.173 291.461 129.923C289.361 131.637 287.387 133.497 285.541 135.503Z" fill="#F65E2B"/>
<path d="M42.2183 152.083C42.0611 151.969 41.9336 151.819 41.8467 151.645C41.7598 151.471 41.7159 151.279 41.7189 151.085C41.7218 150.891 41.7715 150.7 41.8636 150.529C41.9557 150.358 42.0877 150.212 42.2483 150.103C43.4383 149.293 43.9983 148.783 44.4083 147.243C45.6983 142.423 51.9683 146.523 49.9083 150.533C48.1149 154.013 45.5516 154.53 42.2183 152.083Z" fill="#2A200D"/>
</svg>
