<svg width="22" height="32" viewBox="0 0 22 32" fill="none" xmlns="http://www.w3.org/2000/svg">
<path d="M11.2898 2.43299C11.6498 4.37299 17.5098 8.27294 19.3298 9.13294C20.6165 9.74627 21.0298 9.49962 20.5698 8.39295C19.0298 4.69295 15.3498 3.70294 12.0398 1.88294C11.4131 1.53627 11.1631 1.71966 11.2898 2.43299Z" stroke="#ABBCC9" stroke-width="2"/>
<path d="M6.33098 22.1532C9.75098 23.5632 15.111 27.6132 18.511 27.1032C20.0976 26.8565 20.5743 25.9832 19.941 24.4832C19.3676 23.1298 18.4743 22.0331 17.261 21.1931C16.3543 20.5731 15.9676 20.7998 16.1009 21.8731C16.8509 27.8031 5.31094 17.6332 4.41094 16.6032C3.73094 15.8298 3.29093 15.9498 3.09093 16.9632C2.2976 20.9832 1.86762 25.0465 1.80096 29.1532C1.79778 29.3421 1.83817 29.5226 1.91674 29.6709C1.99531 29.8191 2.10836 29.928 2.24096 29.9832C2.92096 30.2832 3.59097 30.2331 4.25097 29.8331C4.3845 29.7493 4.50185 29.6163 4.5938 29.4445C4.68575 29.2728 4.74978 29.0669 4.78094 28.8432L5.64098 22.3331C5.64889 22.2807 5.67438 22.2334 5.71557 22.1947C5.75676 22.156 5.81253 22.1269 5.87884 22.1096C5.94514 22.0923 6.02023 22.0872 6.0985 22.0947C6.17677 22.1023 6.25627 22.1223 6.33098 22.1532Z" stroke="#ABBCC9" stroke-width="2"/>
<path d="M19.3298 9.13294C17.5098 8.27294 11.6498 4.37299 11.2898 2.43299C11.1631 1.71966 11.4131 1.53627 12.0398 1.88294C15.3498 3.70294 19.0298 4.69295 20.5698 8.39295C21.0298 9.49962 20.6165 9.74627 19.3298 9.13294Z" fill="#597CA3"/>
<path d="M5.64098 22.3327L4.78094 28.8427C4.74978 29.0664 4.68575 29.2723 4.5938 29.4441C4.50185 29.6158 4.3845 29.7488 4.25097 29.8327C3.59097 30.2327 2.92096 30.2827 2.24096 29.9827C2.10836 29.9275 1.99531 29.8186 1.91674 29.6704C1.83817 29.5222 1.79778 29.3416 1.80096 29.1527C1.86762 25.046 2.2976 20.9827 3.09093 16.9627C3.29093 15.9493 3.73094 15.8293 4.41094 16.6027C5.31094 17.6327 16.8509 27.8026 16.1009 21.8726C15.9676 20.7993 16.3543 20.5726 17.261 21.1926C18.4743 22.0326 19.3676 23.1294 19.941 24.4827C20.5743 25.9827 20.0976 26.856 18.511 27.1027C15.111 27.6127 9.75098 23.5627 6.33098 22.1527C6.25627 22.1218 6.17677 22.1018 6.0985 22.0943C6.02023 22.0867 5.94514 22.0918 5.87884 22.1091C5.81253 22.1264 5.75676 22.1555 5.71557 22.1942C5.67438 22.2329 5.64889 22.2802 5.64098 22.3327Z" fill="#597CA3"/>
</svg>
