<svg width="30" height="46" viewBox="0 0 30 46" fill="none" xmlns="http://www.w3.org/2000/svg">
<path d="M19.0138 22.6291C20.2004 17.7158 18.4704 15.0659 13.8238 14.6792C12.2504 14.5459 11.0671 13.8558 10.2738 12.6092L3.77379 2.37914C3.61318 2.13469 3.363 1.95958 3.07377 1.88915C-2.59623 0.489149 7.30373 18.0092 7.96373 19.2192C8.06581 19.4049 8.09772 19.6227 8.054 19.8358C8.01027 20.049 7.8936 20.2444 7.72374 20.3891C5.4304 22.3225 4.45374 24.8359 4.79374 27.9292C4.83818 28.3198 5.01056 28.6608 5.27379 28.8791L10.1138 32.7692C10.2697 32.8938 10.3991 33.0311 10.4924 33.1711C10.5858 33.3112 10.6408 33.4505 10.6537 33.5792C11.0271 36.8858 12.8771 38.8325 16.2038 39.4192C16.44 39.4566 16.7596 39.6398 17.0937 39.9292C19.4837 41.9792 23.3438 46.5292 26.2538 42.4192C28.4404 39.3192 28.9537 35.5125 27.7937 30.9991C27.7558 30.8476 27.6867 30.7049 27.5904 30.5794C27.4942 30.4539 27.3728 30.3484 27.2337 30.2692C23.4937 28.1792 20.5637 27.0091 19.2337 23.6891C19.141 23.4603 19.0725 23.2443 19.0342 23.0596C18.9958 22.875 18.9888 22.7272 19.0138 22.6291Z" stroke="#FDEA98" stroke-width="2"/>
<path d="M19.2337 23.6891C20.5637 27.0091 23.4937 28.1792 27.2337 30.2692C27.3728 30.3484 27.4942 30.4539 27.5904 30.5794C27.6867 30.7049 27.7558 30.8476 27.7937 30.9991C28.9537 35.5125 28.4404 39.3192 26.2538 42.4192C23.3438 46.5292 19.4837 41.9792 17.0937 39.9292C16.7596 39.6398 16.44 39.4566 16.2038 39.4192C12.8771 38.8325 11.0271 36.8858 10.6537 33.5792C10.6408 33.4505 10.5858 33.3112 10.4924 33.1711C10.3991 33.0311 10.2697 32.8938 10.1138 32.7692L5.27379 28.8791C5.01056 28.6608 4.83818 28.3198 4.79374 27.9292C4.45374 24.8359 5.4304 22.3225 7.72374 20.3891C7.8936 20.2444 8.01027 20.049 8.054 19.8358C8.09772 19.6227 8.06581 19.4049 7.96373 19.2192C7.30373 18.0092 -2.59623 0.489149 3.07377 1.88915C3.363 1.95958 3.61318 2.13469 3.77379 2.37914L10.2738 12.6092C11.0671 13.8558 12.2504 14.5459 13.8238 14.6792C18.4704 15.0659 20.2004 17.7158 19.0138 22.6291C18.9888 22.7272 18.9958 22.875 19.0342 23.0596C19.0725 23.2443 19.141 23.4603 19.2337 23.6891Z" fill="#FBD63C"/>
</svg>
