<svg width="157" height="150" viewBox="0 0 157 150" fill="none" xmlns="http://www.w3.org/2000/svg">
<path d="M155.111 77.2024C154.731 72.3424 153.917 67.5691 152.671 62.8824C151.241 57.4824 150.341 49.3724 146.111 44.9824C145.491 44.3358 144.957 43.5258 144.511 42.5524C143.091 39.4724 140.271 36.8224 138.721 34.9024C126.021 19.1724 106.041 7.82242 86.8107 2.75242C83.0107 1.74242 78.6507 1.67242 74.5907 1.23242C50.9907 -1.30758 19.4307 17.4524 6.82071 36.0724C2.92071 41.8324 1.93068 50.7024 1.48068 57.4924C1.15068 62.4524 2.51072 67.9324 3.02072 72.2024C3.29072 74.5224 4.27073 76.3524 4.65073 78.4924C5.20406 81.6257 6.3607 84.5524 8.1207 87.2724C8.24387 87.4586 8.34268 87.6394 8.40622 87.7947C8.46976 87.95 8.49554 88.0738 8.48068 88.1524C8.28735 89.2391 8.61734 90.0224 9.47068 90.5024C9.56371 90.5537 9.64763 90.6623 9.71299 90.816C9.77834 90.9696 9.82259 91.1623 9.84073 91.3724C10.1107 94.2724 14.1707 100.932 16.0507 103.182C31.6907 121.842 51.2107 132.102 74.2607 143.222C90.6707 151.132 108.671 150.432 125.331 143.762C136.281 139.392 144.071 128.252 148.851 117.962C150.831 113.702 153.051 107.892 153.651 103.172C154.051 99.9724 155.581 97.1224 155.631 93.9924C155.724 88.5324 155.671 83.0724 155.471 77.6124C155.471 77.583 155.462 77.5547 155.446 77.5313C155.429 77.508 155.407 77.4909 155.381 77.4824L155.291 77.4424C155.24 77.4247 155.196 77.3924 155.164 77.3497C155.132 77.307 155.114 77.2557 155.111 77.2024Z" stroke="#FFF8B6" stroke-width="2"/>
<path d="M46.9396 27.0224L46.0596 22.2024C46.0295 22.0562 45.9449 21.9173 45.8156 21.8021C45.6862 21.687 45.5177 21.6004 45.3296 21.5524C40.5096 20.3024 42.3595 26.4624 42.5295 28.7324C42.543 28.9063 42.5002 29.078 42.4088 29.2171C42.3173 29.3562 42.1829 29.4537 42.0295 29.4924L29.2696 32.8324C28.7834 32.9581 28.347 33.1944 28.0121 33.5134C27.6772 33.8324 27.4577 34.2207 27.3796 34.6324C26.5296 39.1224 39.5796 35.4024 41.3896 34.7324C41.5171 34.6852 41.6528 34.6645 41.7883 34.6716C41.9237 34.6787 42.0558 34.7135 42.1762 34.7736C42.2966 34.8338 42.4026 34.9182 42.4875 35.0212C42.5725 35.1243 42.6345 35.2439 42.6696 35.3724L43.2896 37.7024C43.3427 37.8941 43.4309 38.07 43.5482 38.2183C43.6654 38.3666 43.8091 38.4839 43.9695 38.5624C45.5629 39.3424 46.7396 38.9424 47.4996 37.3624C47.5437 37.2702 47.5727 37.142 47.5848 36.9856C47.5968 36.8292 47.5916 36.6478 47.5696 36.4524C47.4696 35.5257 47.5729 34.6324 47.8796 33.7724C47.9163 33.6671 48.0033 33.5507 48.1336 33.4326C48.2639 33.3144 48.4338 33.1979 48.6296 33.0924C50.7796 31.9224 55.0696 31.1424 54.0896 27.7024C53.9902 27.3541 53.7281 27.0605 53.3535 26.8778C52.979 26.6952 52.5183 26.6363 52.0596 26.7124L47.5596 27.4724C47.4223 27.4973 47.2803 27.4639 47.1642 27.3797C47.0482 27.2955 46.9675 27.1671 46.9396 27.0224Z" stroke="#908F52" stroke-width="2"/>
<path d="M105.331 31.6323C105.191 30.0523 104.971 17.3623 100.231 24.7023C100.076 24.9461 100.016 25.3026 100.061 25.7023L100.691 31.9023C100.727 32.2569 100.637 32.6143 100.434 32.9134C100.232 33.2124 99.9302 33.4347 99.5807 33.5423L86.1007 37.7023C85.9393 37.753 85.7887 37.8386 85.658 37.9538C85.5273 38.069 85.4194 38.2114 85.3407 38.3723C82.9207 43.2623 97.2707 39.6923 98.6407 39.3623C98.8445 39.3126 99.0581 39.3129 99.2614 39.3634C99.4648 39.4139 99.6513 39.5128 99.8033 39.6508C99.9553 39.7887 100.068 39.9613 100.13 40.1523C100.193 40.3432 100.203 40.5462 100.161 40.7423C99.7007 42.8356 99.6774 44.9023 100.091 46.9423C100.133 47.1496 100.182 47.3376 100.235 47.487C100.288 47.6363 100.342 47.7417 100.391 47.7923C105.721 53.0523 105.041 40.9123 105.251 39.0023C105.262 38.8837 105.315 38.765 105.402 38.6579C105.49 38.5508 105.61 38.4592 105.751 38.3923L115.511 33.6523C115.613 33.6023 115.714 33.5036 115.807 33.3644C115.899 33.2252 115.979 33.0496 116.041 32.8523C118.271 25.4323 107.871 31.3223 105.851 31.9923C105.793 32.0103 105.733 32.0149 105.673 32.0058C105.614 31.9966 105.557 31.9739 105.507 31.9393C105.457 31.9048 105.416 31.8592 105.385 31.8061C105.354 31.7529 105.336 31.6935 105.331 31.6323Z" stroke="#908F52" stroke-width="2"/>
<path d="M68.8213 31.2723C68.7309 31.2958 68.6365 31.2928 68.5454 31.2634C68.4542 31.2341 68.3687 31.1792 68.2954 31.103C68.222 31.0268 68.1628 30.9312 68.1223 30.8236C68.0817 30.7161 68.0608 30.5993 68.0613 30.4823C68.0813 27.3556 67.4746 25.4423 66.2413 24.7423C66.0533 24.6361 65.8413 24.5804 65.6254 24.5806C65.4095 24.5807 65.1971 24.6366 65.0084 24.743C64.8197 24.8494 64.6611 25.0027 64.5478 25.1882C64.4345 25.3736 64.3702 25.5851 64.3613 25.8023C64.1513 31.3723 65.3013 36.6223 65.8013 42.2023C65.8192 42.4206 65.8605 42.621 65.9194 42.7765C65.9784 42.932 66.0523 43.0352 66.1313 43.0723C67.0846 43.5323 68.0413 43.6756 69.0013 43.5023C69.1031 43.4862 69.2127 43.4006 69.3148 43.2573C69.4169 43.114 69.5066 42.92 69.5713 42.7023C70.0713 40.989 70.2213 39.239 70.0213 37.4523C70.0074 37.319 70.0495 37.1835 70.1397 37.0712C70.2299 36.9589 70.3621 36.8775 70.5113 36.8423C73.1713 36.1623 75.9013 36.0223 75.1613 32.1923C75.1334 32.0583 75.0571 31.927 74.9396 31.8113C74.8222 31.6956 74.6677 31.5995 74.4913 31.5323C72.6379 30.859 70.748 30.7723 68.8213 31.2723Z" stroke="#908F52" stroke-width="2"/>
<path d="M137.769 51.6523C137.499 50.3123 136.269 38.3523 132.599 44.4523C132.119 45.2523 132.029 46.2489 132.329 47.4423L133.529 52.2123C133.556 52.3223 133.539 52.4648 133.48 52.6261C133.42 52.7873 133.32 52.9617 133.189 53.1323C132.363 54.2189 132.066 55.4989 132.299 56.9722C132.626 58.9722 133.389 60.2923 134.589 60.9323C137.709 62.6056 138.999 61.6689 138.459 58.1223C138.434 57.9487 138.447 57.7786 138.498 57.6403C138.549 57.502 138.634 57.4039 138.739 57.3623L144.309 55.1923C144.521 55.1098 144.706 55.0071 144.85 54.8935C144.993 54.78 145.089 54.6592 145.129 54.5422C145.663 53.0156 145.303 51.8189 144.049 50.9523C144.016 50.9255 143.917 50.9198 143.769 50.9361C143.621 50.9524 143.431 50.9897 143.229 51.0422L138.329 52.3123C138.277 52.3251 138.221 52.318 138.164 52.2915C138.108 52.2651 138.052 52.2197 137.999 52.1581C137.947 52.0965 137.9 52.02 137.86 51.9331C137.821 51.8462 137.79 51.7507 137.769 51.6523Z" stroke="#918D4E" stroke-width="2"/>
<path d="M43.3516 66.7021L44.0216 68.9521" stroke="#B7AF51" stroke-width="2"/>
<path d="M44.02 68.952C44.1267 71.3854 45.3 72.492 47.54 72.272C47.6939 72.2562 47.8449 72.1968 47.9793 72.099C48.1137 72.0013 48.2273 71.8683 48.31 71.712C48.9567 70.5187 49.1267 69.262 48.82 67.942C48.7337 67.5705 48.8127 67.1765 49.0395 66.8466C49.2664 66.5166 49.6225 66.2776 50.03 66.182C52.27 65.6554 54.2434 64.662 55.95 63.202C57.35 62.002 57.32 60.162 54.99 60.152C52.63 60.1387 50.3234 60.4854 48.07 61.192C47.9274 61.2351 47.7768 61.2447 47.6299 61.2202C47.483 61.1957 47.3437 61.1377 47.2228 61.0506C47.1019 60.9636 47.0027 60.8499 46.9329 60.7183C46.863 60.5868 46.8244 60.4409 46.82 60.292C46.79 58.822 45.65 48.952 42.42 51.312C42.3066 51.3946 42.2158 51.5197 42.1563 51.6756C42.0967 51.8314 42.0705 52.0126 42.08 52.202L42.37 59.952C42.3729 60.0557 42.4047 60.1654 42.4633 60.274C42.5219 60.3826 42.6061 60.4876 42.71 60.582C42.96 60.812 43.08 65.702 43.35 66.702" stroke="#908F52" stroke-width="2"/>
<path d="M44.0216 68.9521C44.3683 67.9321 44.1449 67.1821 43.3516 66.7021" stroke="#484C37" stroke-width="2"/>
<path d="M76.0717 67.7124C75.8651 71.1124 76.2984 74.4391 77.3717 77.6924C77.4147 77.823 77.4326 77.9604 77.4245 78.0964C77.4164 78.2323 77.3824 78.364 77.3245 78.4836C77.2666 78.6031 77.186 78.7081 77.0875 78.7921C76.9891 78.8761 76.8749 78.9374 76.7517 78.9724C73.3784 79.9524 69.9517 80.7091 66.4717 81.2424C64.2417 81.5824 61.3817 82.8124 63.9217 85.4924C64.2023 85.7854 64.5437 86.0167 64.9242 86.1716C65.3047 86.3266 65.7159 86.4018 66.1317 86.3924C69.4051 86.2924 72.6351 85.8224 75.8217 84.9824C76.0354 84.9272 76.2588 84.922 76.4776 84.9671C76.6964 85.0123 76.9055 85.1069 77.0914 85.2446C77.2772 85.3824 77.4357 85.5602 77.5563 85.7666C77.677 85.973 77.7572 86.2033 77.7917 86.4424L79.0317 94.9424C79.385 97.3757 80.3217 97.9157 81.8417 96.5624C84.4817 94.2124 82.6817 87.1124 82.2417 83.8524C82.2062 83.5908 82.2725 83.3263 82.4262 83.1165C82.5798 82.9067 82.8082 82.7686 83.0617 82.7324C86.9684 82.1457 90.4517 80.6191 93.5117 78.1524C93.637 78.0502 93.7273 77.9115 93.7703 77.7556C93.8133 77.5998 93.8068 77.4344 93.7517 77.2824C92.3717 73.6024 84.9417 77.1424 82.2917 77.9524C82.2069 77.9785 82.1173 77.9848 82.0297 77.9708C81.9421 77.9568 81.8589 77.9229 81.7865 77.8717C81.7141 77.8205 81.6543 77.7534 81.6119 77.6755C81.5695 77.5976 81.5454 77.511 81.5417 77.4224C81.4817 76.2224 80.4417 62.9824 76.5817 66.7624C76.4293 66.9117 76.3056 67.0725 76.2181 67.2356C76.1305 67.3987 76.0808 67.5608 76.0717 67.7124Z" stroke="#908F52" stroke-width="2"/>
<path d="M26.1005 87.1522C25.9705 84.4022 25.1805 72.5622 20.8105 73.1922C18.2705 73.5622 20.8505 84.1422 21.7705 87.7422C21.809 87.8845 21.8026 88.0347 21.7523 88.1711C21.7021 88.3076 21.6104 88.4235 21.4905 88.5022C20.2305 89.3422 15.6305 91.3722 19.7705 93.0322C24.5405 94.9422 29.1705 91.9722 33.4705 90.0422C33.6774 89.948 33.8594 89.8443 34.003 89.7388C34.1466 89.6332 34.2482 89.5285 34.3005 89.4322C35.5738 87.1389 35.0105 85.8722 32.6105 85.6322C32.4038 85.6122 32.0472 85.6989 31.5405 85.8922L26.5805 87.7622C26.5289 87.7821 26.4734 87.7811 26.4185 87.7592C26.3636 87.7372 26.3107 87.695 26.2641 87.6358C26.2175 87.5766 26.1785 87.5021 26.1501 87.4181C26.1217 87.3342 26.1047 87.2431 26.1005 87.1522Z" stroke="#908F52" stroke-width="2"/>
<path d="M113.713 83.3124L103.753 87.1425C103.664 87.1754 103.585 87.2294 103.522 87.2999C103.459 87.3703 103.415 87.4551 103.392 87.5467C103.369 87.6384 103.369 87.7341 103.392 87.8258C103.415 87.9174 103.46 88.0021 103.523 88.0725C106.293 91.1625 110.113 89.6024 113.593 89.0424C113.727 89.0197 113.865 89.0471 113.98 89.1192C114.095 89.1913 114.178 89.3029 114.213 89.4325C114.823 91.5925 115.173 95.5924 116.633 97.2024C121.603 102.662 119.403 89.1224 119.333 88.4124C119.322 88.2755 119.358 88.1383 119.436 88.0225C119.514 87.9067 119.629 87.8187 119.763 87.7724C121.713 87.1324 135.363 81.2224 125.623 80.5524C124.343 80.4658 122.066 81.1324 118.793 82.5524C118.737 82.5772 118.678 82.5893 118.617 82.5877C118.557 82.5861 118.497 82.5709 118.443 82.5432C118.388 82.5155 118.34 82.4759 118.302 82.4274C118.264 82.3789 118.237 82.3226 118.223 82.2624C117.753 80.2224 117.093 72.7324 113.493 74.4824C113.361 74.5447 113.249 74.6493 113.171 74.784C113.093 74.9186 113.052 75.0777 113.053 75.2424C113.033 77.7891 113.383 80.2624 114.103 82.6624C114.14 82.7843 114.121 82.9195 114.048 83.0403C113.976 83.1612 113.856 83.2585 113.713 83.3124Z" stroke="#908F52" stroke-width="2"/>
<path d="M51.4328 99.3824C51.0028 102.682 51.8628 105.532 51.4228 108.892C50.9728 112.302 55.1428 123.042 56.3828 112.592C56.4016 112.438 56.453 112.288 56.5338 112.152C56.6147 112.016 56.7232 111.897 56.8528 111.802C58.1528 110.852 64.2028 108.112 62.6928 106.162C61.3628 104.432 57.8828 105.262 56.3328 106.222C55.1062 106.969 54.6795 106.632 55.0528 105.212C55.4528 103.682 55.3828 96.2524 51.8928 98.5824C51.7707 98.6639 51.6663 98.7776 51.5869 98.9157C51.5075 99.0538 51.455 99.213 51.4328 99.3824Z" stroke="#908F52" stroke-width="2"/>
<path d="M134.092 113.632C133.925 111.452 133.135 109.592 131.722 108.052C131.611 107.929 131.476 107.834 131.328 107.775C131.18 107.716 131.023 107.694 130.872 107.712C128.412 108.042 129.372 111.652 129.902 113.362C130.892 116.542 130.862 119.582 132.432 122.762C132.529 122.963 132.648 123.135 132.772 123.259C132.897 123.382 133.023 123.449 133.132 123.452C135.585 123.492 136.372 122.326 135.492 119.952C135.435 119.796 135.432 119.617 135.483 119.435C135.535 119.253 135.638 119.075 135.782 118.922C136.742 117.876 137.922 117.232 139.322 116.992C139.487 116.966 139.639 116.895 139.759 116.787C139.878 116.68 139.959 116.543 139.992 116.392C140.399 114.439 139.672 113.286 137.812 112.932C137.682 112.907 137.525 112.914 137.35 112.954C137.175 112.993 136.985 113.064 136.792 113.162L134.592 114.262C134.543 114.285 134.488 114.286 134.433 114.264C134.378 114.243 134.325 114.2 134.276 114.138C134.227 114.077 134.185 113.999 134.153 113.912C134.121 113.824 134.1 113.728 134.092 113.632Z" stroke="#908F52" stroke-width="2"/>
<path d="M104.533 134.912C105.413 132.072 105.406 129.255 104.513 126.462C104.416 126.145 104.214 125.876 103.943 125.702C99.6226 122.932 100.003 132.302 99.9226 135.312C99.9193 135.452 99.8686 135.588 99.7782 135.698C99.6879 135.809 99.5629 135.887 99.4226 135.922C94.9926 136.932 88.6526 137.622 84.7426 139.822C84.573 139.918 84.4316 140.057 84.3322 140.225C84.2328 140.393 84.1789 140.584 84.1759 140.779C84.1729 140.974 84.2208 141.166 84.315 141.337C84.4091 141.507 84.5461 141.651 84.7126 141.752C88.0626 143.782 94.1526 143.042 97.9326 142.622C97.9929 142.615 98.0541 142.621 98.112 142.641C98.1699 142.66 98.2233 142.692 98.2687 142.735C98.314 142.777 98.3503 142.829 98.3751 142.888C98.3999 142.946 98.4127 143.009 98.4125 143.072C98.3625 149.282 103.393 143.522 104.533 141.322C104.62 141.151 104.734 141.004 104.868 140.891C105.001 140.778 105.15 140.703 105.303 140.672L113.983 138.842C115.576 138.509 116.736 137.742 117.463 136.542C120.623 131.312 106.463 134.962 104.863 135.292C104.814 135.302 104.763 135.298 104.716 135.281C104.669 135.265 104.627 135.236 104.594 135.198C104.561 135.16 104.538 135.114 104.527 135.064C104.516 135.014 104.518 134.961 104.533 134.912Z" stroke="#908F52" stroke-width="2"/>
<path d="M155.291 77.4419L155.381 77.4819C155.407 77.4904 155.429 77.5075 155.446 77.5308C155.462 77.5542 155.471 77.5826 155.471 77.6119C155.671 83.0719 155.724 88.5319 155.631 93.9919C155.581 97.1219 154.051 99.9719 153.651 103.172C153.051 107.892 150.831 113.702 148.851 117.962C144.071 128.252 136.281 139.392 125.331 143.762C108.671 150.432 90.6707 151.132 74.2607 143.222C51.2107 132.102 31.6907 121.842 16.0507 103.182C14.1707 100.932 10.1107 94.2719 9.84073 91.3719C9.82259 91.1618 9.77834 90.9691 9.71299 90.8155C9.64763 90.6618 9.56371 90.5532 9.47068 90.5019C8.61734 90.0219 8.28735 89.2386 8.48068 88.1519C8.49554 88.0734 8.46976 87.9496 8.40622 87.7942C8.34268 87.6389 8.24387 87.4581 8.1207 87.2719C6.3607 84.5519 5.20406 81.6253 4.65073 78.4919C4.27073 76.3519 3.29072 74.5219 3.02072 72.2019C2.51072 67.9319 1.15068 62.4519 1.48068 57.4919C1.93068 50.7019 2.92071 41.8319 6.82071 36.0719C19.4307 17.4519 50.9907 -1.30807 74.5907 1.23193C78.6507 1.67193 83.0107 1.74193 86.8107 2.75193C106.041 7.82193 126.021 19.1719 138.721 34.9019C140.271 36.8219 143.091 39.4719 144.511 42.5519C144.957 43.5253 145.491 44.3353 146.111 44.9819C150.341 49.3719 151.241 57.4819 152.671 62.8819C153.917 67.5686 154.731 72.3419 155.111 77.2019C155.114 77.2552 155.132 77.3065 155.164 77.3492C155.196 77.3919 155.24 77.4242 155.291 77.4419ZM46.9407 27.0219L46.0607 22.2019C46.0307 22.0557 45.946 21.9168 45.8167 21.8017C45.6874 21.6865 45.5188 21.5999 45.3307 21.5519C40.5107 20.3019 42.3607 26.4619 42.5307 28.7319C42.5441 28.9059 42.5014 29.0775 42.4099 29.2166C42.3184 29.3557 42.184 29.4532 42.0307 29.4919L29.2707 32.8319C28.7845 32.9576 28.3481 33.1939 28.0132 33.5129C27.6783 33.8319 27.4588 34.2202 27.3807 34.6319C26.5307 39.1219 39.5807 35.4019 41.3907 34.7319C41.5182 34.6847 41.654 34.664 41.7894 34.6711C41.9248 34.6782 42.057 34.713 42.1773 34.7732C42.2977 34.8334 42.4037 34.9177 42.4887 35.0208C42.5736 35.1238 42.6356 35.2434 42.6707 35.3719L43.2907 37.7019C43.3439 37.8936 43.432 38.0695 43.5493 38.2178C43.6666 38.3661 43.8102 38.4834 43.9707 38.5619C45.564 39.3419 46.7407 38.9419 47.5007 37.3619C47.5449 37.2697 47.5739 37.1415 47.5859 36.9851C47.5979 36.8287 47.5928 36.6473 47.5707 36.4519C47.4707 35.5253 47.574 34.6319 47.8807 33.7719C47.9174 33.6666 48.0044 33.5502 48.1347 33.4321C48.265 33.3139 48.4349 33.1974 48.6307 33.0919C50.7807 31.9219 55.0707 31.1419 54.0907 27.7019C53.9913 27.3536 53.7292 27.06 53.3546 26.8774C52.9801 26.6947 52.5194 26.6358 52.0607 26.7119L47.5607 27.4719C47.4235 27.4968 47.2814 27.4635 47.1654 27.3792C47.0493 27.295 46.9686 27.1666 46.9407 27.0219ZM105.331 31.6319C105.191 30.0519 104.971 17.3619 100.231 24.7019C100.076 24.9457 100.016 25.3023 100.061 25.7019L100.691 31.9019C100.727 32.2566 100.637 32.614 100.434 32.913C100.232 33.2121 99.9302 33.4344 99.5807 33.5419L86.1007 37.7019C85.9393 37.7527 85.7887 37.8383 85.658 37.9535C85.5273 38.0687 85.4194 38.2111 85.3407 38.3719C82.9207 43.2619 97.2707 39.6919 98.6407 39.3619C98.8445 39.3122 99.0581 39.3126 99.2614 39.3631C99.4648 39.4135 99.6513 39.5124 99.8033 39.6504C99.9552 39.7884 100.068 39.961 100.13 40.1519C100.193 40.3429 100.203 40.5459 100.161 40.7419C99.7007 42.8353 99.6774 44.9019 100.091 46.9419C100.133 47.1493 100.182 47.3373 100.235 47.4866C100.288 47.636 100.342 47.7413 100.391 47.7919C105.721 53.0519 105.041 40.9119 105.251 39.0019C105.262 38.8834 105.315 38.7646 105.402 38.6576C105.49 38.5505 105.61 38.4589 105.751 38.3919L115.511 33.6519C115.613 33.602 115.714 33.5033 115.807 33.3641C115.899 33.2249 115.979 33.0492 116.041 32.8519C118.271 25.4319 107.871 31.3219 105.851 31.9919C105.793 32.01 105.733 32.0146 105.673 32.0054C105.614 31.9963 105.557 31.9736 105.507 31.939C105.457 31.9044 105.416 31.8589 105.385 31.8057C105.354 31.7526 105.336 31.6932 105.331 31.6319ZM68.8207 31.2719C68.7303 31.2954 68.6359 31.2924 68.5448 31.2631C68.4536 31.2337 68.3681 31.1788 68.2948 31.1026C68.2214 31.0264 68.1622 30.9308 68.1217 30.8233C68.0811 30.7157 68.0603 30.5989 68.0607 30.4819C68.0807 27.3553 67.474 25.4419 66.2407 24.7419C66.0527 24.6358 65.8407 24.5801 65.6248 24.5802C65.4089 24.5803 65.1965 24.6363 65.0078 24.7427C64.8191 24.849 64.6605 25.0023 64.5472 25.1878C64.4339 25.3733 64.3697 25.5847 64.3607 25.8019C64.1507 31.3719 65.3007 36.6219 65.8007 42.2019C65.8186 42.4203 65.8599 42.6207 65.9189 42.7762C65.9778 42.9317 66.0518 43.0349 66.1307 43.0719C67.084 43.5319 68.0407 43.6753 69.0007 43.5019C69.1026 43.4859 69.2121 43.4003 69.3142 43.2569C69.4164 43.1136 69.506 42.9197 69.5707 42.7019C70.0707 40.9886 70.2207 39.2386 70.0207 37.4519C70.0068 37.3186 70.0489 37.1831 70.1391 37.0708C70.2293 36.9585 70.3615 36.8771 70.5107 36.8419C73.1707 36.1619 75.9007 36.0219 75.1607 32.1919C75.1329 32.0579 75.0565 31.9266 74.9391 31.8109C74.8216 31.6952 74.6671 31.5991 74.4907 31.5319C72.6374 30.8586 70.7474 30.7719 68.8207 31.2719ZM137.771 51.6519C137.501 50.3119 136.271 38.3519 132.601 44.4519C132.121 45.2519 132.031 46.2486 132.331 47.4419L133.531 52.2119C133.558 52.3219 133.541 52.4645 133.481 52.6258C133.422 52.787 133.322 52.9614 133.191 53.1319C132.364 54.2186 132.067 55.4986 132.301 56.9719C132.627 58.9719 133.391 60.2919 134.591 60.9319C137.711 62.6053 139.001 61.6686 138.461 58.1219C138.435 57.9484 138.449 57.7783 138.5 57.64C138.551 57.5017 138.636 57.4036 138.741 57.3619L144.311 55.1919C144.522 55.1095 144.708 55.0068 144.851 54.8932C144.994 54.7797 145.09 54.6589 145.131 54.5419C145.664 53.0153 145.304 51.8186 144.051 50.9519C144.017 50.9252 143.919 50.9195 143.771 50.9358C143.622 50.9521 143.433 50.9894 143.231 51.0419L138.331 52.3119C138.279 52.3247 138.223 52.3177 138.166 52.2912C138.109 52.2647 138.053 52.2194 138.001 52.1578C137.949 52.0962 137.901 52.0197 137.862 51.9328C137.822 51.8459 137.791 51.7504 137.771 51.6519ZM43.3507 66.7019L44.0207 68.9519C44.1274 71.3853 45.3007 72.4919 47.5407 72.2719C47.6946 72.2561 47.8456 72.1967 47.98 72.0989C48.1143 72.0012 48.228 71.8682 48.3107 71.7119C48.9574 70.5186 49.1274 69.2619 48.8207 67.9419C48.7344 67.5704 48.8133 67.1764 49.0402 66.8465C49.267 66.5165 49.6232 66.2775 50.0307 66.1819C52.2707 65.6553 54.2441 64.6619 55.9507 63.2019C57.3507 62.0019 57.3207 60.1619 54.9907 60.1519C52.6307 60.1386 50.324 60.4853 48.0707 61.1919C47.9281 61.235 47.7775 61.2446 47.6306 61.2201C47.4837 61.1956 47.3444 61.1376 47.2235 61.0505C47.1026 60.9635 47.0034 60.8498 46.9336 60.7183C46.8637 60.5867 46.8251 60.4408 46.8207 60.2919C46.7907 58.8219 45.6507 48.9519 42.4207 51.3119C42.3073 51.3945 42.2165 51.5197 42.157 51.6755C42.0974 51.8313 42.0712 52.0126 42.0807 52.2019L42.3707 59.9519C42.3736 60.0556 42.4054 60.1653 42.464 60.2739C42.5226 60.3825 42.6068 60.4875 42.7107 60.5819C42.9607 60.8119 43.0807 65.7019 43.3507 66.7019ZM76.0707 67.7119C75.864 71.1119 76.2974 74.4386 77.3707 77.6919C77.4137 77.8225 77.4316 77.9599 77.4235 78.0959C77.4154 78.2318 77.3814 78.3635 77.3235 78.4831C77.2655 78.6027 77.1849 78.7076 77.0865 78.7916C76.9881 78.8756 76.8739 78.9369 76.7507 78.9719C73.3774 79.9519 69.9507 80.7086 66.4707 81.2419C64.2407 81.5819 61.3807 82.8119 63.9207 85.4919C64.2013 85.7849 64.5427 86.0162 64.9232 86.1711C65.3037 86.3261 65.7149 86.4013 66.1307 86.3919C69.404 86.2919 72.634 85.8219 75.8207 84.9819C76.0343 84.9267 76.2578 84.9215 76.4766 84.9667C76.6954 85.0118 76.9045 85.1064 77.0904 85.2441C77.2762 85.3819 77.4347 85.5598 77.5553 85.7661C77.676 85.9725 77.7562 86.2028 77.7907 86.4419L79.0307 94.9419C79.384 97.3753 80.3207 97.9153 81.8407 96.5619C84.4807 94.2119 82.6807 87.1119 82.2407 83.8519C82.2052 83.5903 82.2715 83.3258 82.4251 83.116C82.5788 82.9062 82.8072 82.7681 83.0607 82.7319C86.9674 82.1453 90.4507 80.6186 93.5107 78.1519C93.6359 78.0497 93.7263 77.911 93.7693 77.7552C93.8123 77.5993 93.8058 77.4339 93.7507 77.2819C92.3707 73.6019 84.9407 77.1419 82.2907 77.9519C82.2059 77.978 82.1163 77.9843 82.0287 77.9703C81.9411 77.9563 81.8579 77.9224 81.7855 77.8712C81.7131 77.82 81.6533 77.7529 81.6109 77.675C81.5684 77.5971 81.5444 77.5106 81.5407 77.4219C81.4807 76.2219 80.4407 62.9819 76.5807 66.7619C76.4282 66.9112 76.3046 67.072 76.2171 67.2351C76.1295 67.3982 76.0798 67.5603 76.0707 67.7119ZM26.1007 87.1519C25.9707 84.4019 25.1807 72.5619 20.8107 73.1919C18.2707 73.5619 20.8507 84.1419 21.7707 87.7419C21.8092 87.8843 21.8028 88.0344 21.7525 88.1709C21.7022 88.3074 21.6106 88.4232 21.4907 88.5019C20.2307 89.3419 15.6307 91.3719 19.7707 93.0319C24.5407 94.9419 29.1707 91.9719 33.4707 90.0419C33.6776 89.9477 33.8596 89.844 34.0032 89.7385C34.1468 89.633 34.2484 89.5282 34.3007 89.4319C35.574 87.1386 35.0107 85.8719 32.6107 85.6319C32.404 85.6119 32.0473 85.6986 31.5407 85.8919L26.5807 87.7619C26.5291 87.7819 26.4736 87.7808 26.4187 87.7589C26.3638 87.737 26.3109 87.6947 26.2643 87.6355C26.2177 87.5763 26.1787 87.5018 26.1503 87.4179C26.1219 87.3339 26.1049 87.2429 26.1007 87.1519ZM113.711 83.3119L103.751 87.1419C103.662 87.1749 103.583 87.2289 103.52 87.2994C103.457 87.3698 103.413 87.4546 103.39 87.5462C103.367 87.6378 103.368 87.7336 103.39 87.8252C103.413 87.9169 103.458 88.0015 103.521 88.0719C106.291 91.1619 110.111 89.6019 113.591 89.0419C113.725 89.0192 113.864 89.0466 113.978 89.1187C114.093 89.1908 114.176 89.3024 114.211 89.4319C114.821 91.5919 115.171 95.5919 116.631 97.2019C121.601 102.662 119.401 89.1219 119.331 88.4119C119.32 88.275 119.356 88.1378 119.434 88.022C119.512 87.9062 119.627 87.8182 119.761 87.7719C121.711 87.1319 135.361 81.2219 125.621 80.5519C124.341 80.4653 122.064 81.1319 118.791 82.5519C118.736 82.5767 118.676 82.5887 118.615 82.5871C118.555 82.5855 118.495 82.5703 118.441 82.5426C118.386 82.5149 118.338 82.4754 118.3 82.4269C118.262 82.3784 118.235 82.322 118.221 82.2619C117.751 80.2219 117.091 72.7319 113.491 74.4819C113.359 74.5442 113.247 74.6488 113.169 74.7834C113.092 74.9181 113.05 75.0771 113.051 75.2419C113.031 77.7886 113.381 80.2619 114.101 82.6619C114.138 82.7838 114.119 82.919 114.047 83.0398C113.974 83.1606 113.854 83.258 113.711 83.3119ZM51.4307 99.3819C51.0007 102.682 51.8607 105.532 51.4207 108.892C50.9707 112.302 55.1407 123.042 56.3807 112.592C56.3995 112.437 56.4509 112.288 56.5317 112.152C56.6126 112.016 56.7211 111.897 56.8507 111.802C58.1507 110.852 64.2007 108.112 62.6907 106.162C61.3607 104.432 57.8807 105.262 56.3307 106.222C55.1041 106.969 54.6774 106.632 55.0507 105.212C55.4507 103.682 55.3807 96.2519 51.8907 98.5819C51.7686 98.6634 51.6642 98.7771 51.5848 98.9152C51.5054 99.0533 51.4529 99.2125 51.4307 99.3819ZM134.091 113.632C133.924 111.452 133.134 109.592 131.721 108.052C131.61 107.929 131.475 107.834 131.327 107.774C131.179 107.715 131.022 107.694 130.871 107.712C128.411 108.042 129.371 111.652 129.901 113.362C130.891 116.542 130.861 119.582 132.431 122.762C132.528 122.962 132.646 123.135 132.771 123.258C132.896 123.381 133.021 123.449 133.131 123.452C135.584 123.492 136.371 122.325 135.491 119.952C135.434 119.796 135.431 119.617 135.482 119.434C135.533 119.252 135.637 119.075 135.781 118.922C136.741 117.875 137.921 117.232 139.321 116.992C139.486 116.966 139.638 116.894 139.757 116.787C139.877 116.68 139.958 116.542 139.991 116.392C140.397 114.439 139.671 113.285 137.811 112.932C137.681 112.906 137.524 112.914 137.349 112.953C137.174 112.993 136.984 113.064 136.791 113.162L134.591 114.262C134.541 114.285 134.487 114.285 134.432 114.264C134.377 114.242 134.323 114.199 134.275 114.138C134.226 114.077 134.184 113.999 134.152 113.911C134.12 113.823 134.099 113.728 134.091 113.632ZM104.531 134.912C105.411 132.072 105.404 129.255 104.511 126.462C104.414 126.145 104.212 125.876 103.941 125.702C99.6207 122.932 100.001 132.302 99.9207 135.312C99.9174 135.452 99.8667 135.588 99.7763 135.698C99.686 135.808 99.561 135.887 99.4207 135.922C94.9907 136.932 88.6507 137.622 84.7407 139.822C84.5712 139.918 84.4297 140.057 84.3304 140.225C84.231 140.393 84.1771 140.583 84.174 140.778C84.171 140.973 84.219 141.166 84.3131 141.336C84.4072 141.507 84.5443 141.65 84.7107 141.752C88.0607 143.782 94.1507 143.042 97.9307 142.622C97.991 142.615 98.0522 142.621 98.1101 142.641C98.1681 142.66 98.2215 142.692 98.2668 142.735C98.3122 142.777 98.3485 142.829 98.3733 142.887C98.3981 142.945 98.4108 143.008 98.4107 143.072C98.3607 149.282 103.391 143.522 104.531 141.322C104.618 141.151 104.732 141.003 104.866 140.891C105 140.778 105.148 140.703 105.301 140.672L113.981 138.842C115.574 138.509 116.734 137.742 117.461 136.542C120.621 131.312 106.461 134.962 104.861 135.292C104.812 135.301 104.762 135.298 104.715 135.281C104.668 135.265 104.625 135.236 104.592 135.198C104.559 135.16 104.536 135.114 104.525 135.063C104.515 135.013 104.516 134.961 104.531 134.912Z" fill="#FEF16C"/>
<path d="M47.5635 27.4719L52.0635 26.7119C52.5222 26.6358 52.9829 26.6947 53.3574 26.8774C53.732 27.06 53.9941 27.3536 54.0935 27.7019C55.0735 31.1419 50.7835 31.9219 48.6335 33.0919C48.4377 33.1974 48.2678 33.3139 48.1375 33.4321C48.0072 33.5502 47.9202 33.6666 47.8835 33.7719C47.5768 34.6319 47.4735 35.5252 47.5735 36.4519C47.5955 36.6473 47.6007 36.8287 47.5887 36.9851C47.5767 37.1415 47.5476 37.2697 47.5035 37.3619C46.7435 38.9419 45.5668 39.3419 43.9734 38.5619C43.813 38.4834 43.6693 38.3661 43.5521 38.2178C43.4348 38.0695 43.3466 37.8936 43.2935 37.7019L42.6735 35.3719C42.6384 35.2434 42.5764 35.1238 42.4915 35.0208C42.4065 34.9177 42.3005 34.8334 42.1801 34.7732C42.0597 34.713 41.9276 34.6782 41.7922 34.6711C41.6567 34.664 41.521 34.6847 41.3935 34.7319C39.5835 35.4019 26.5335 39.1219 27.3835 34.6319C27.4616 34.2202 27.6811 33.8319 28.016 33.5129C28.3509 33.1939 28.7873 32.9576 29.2735 32.8319L42.0334 29.4919C42.1868 29.4532 42.3212 29.3557 42.4127 29.2166C42.5042 29.0775 42.5469 28.9059 42.5334 28.7319C42.3634 26.4619 40.5135 20.3019 45.3335 21.5519C45.5216 21.5999 45.6901 21.6865 45.8195 21.8017C45.9488 21.9168 46.0334 22.0557 46.0635 22.2019L46.9435 27.0219C46.9714 27.1666 47.0521 27.295 47.1682 27.3792C47.2842 27.4635 47.4262 27.4968 47.5635 27.4719Z" fill="#212C38"/>
<path d="M105.851 31.9923C107.871 31.3223 118.271 25.4323 116.041 32.8523C115.979 33.0496 115.899 33.2252 115.807 33.3644C115.714 33.5036 115.613 33.6023 115.511 33.6523L105.751 38.3923C105.61 38.4592 105.49 38.5508 105.402 38.6579C105.315 38.765 105.262 38.8837 105.251 39.0023C105.041 40.9123 105.721 53.0523 100.391 47.7923C100.342 47.7417 100.288 47.6363 100.235 47.487C100.182 47.3376 100.133 47.1496 100.091 46.9423C99.6774 44.9023 99.7007 42.8356 100.161 40.7423C100.203 40.5462 100.193 40.3432 100.13 40.1523C100.068 39.9613 99.9553 39.7887 99.8033 39.6508C99.6513 39.5128 99.4648 39.4139 99.2614 39.3634C99.0581 39.3129 98.8445 39.3126 98.6407 39.3623C97.2707 39.6923 82.9207 43.2623 85.3407 38.3723C85.4194 38.2114 85.5273 38.069 85.658 37.9538C85.7887 37.8386 85.9393 37.753 86.1007 37.7023L99.5807 33.5423C99.9302 33.4347 100.232 33.2124 100.434 32.9134C100.637 32.6143 100.727 32.2569 100.691 31.9023L100.061 25.7023C100.016 25.3026 100.076 24.9461 100.231 24.7023C104.971 17.3623 105.191 30.0523 105.331 31.6323C105.336 31.6935 105.354 31.7529 105.385 31.8061C105.416 31.8592 105.457 31.9048 105.507 31.9393C105.557 31.9739 105.614 31.9966 105.673 32.0058C105.733 32.0149 105.793 32.0103 105.851 31.9923Z" fill="#212C38"/>
<path d="M68.8213 31.2723C70.748 30.7723 72.6379 30.859 74.4913 31.5323C74.6677 31.5995 74.8222 31.6956 74.9396 31.8113C75.0571 31.927 75.1334 32.0583 75.1613 32.1923C75.9013 36.0223 73.1713 36.1623 70.5113 36.8423C70.3621 36.8775 70.2299 36.9589 70.1397 37.0712C70.0495 37.1835 70.0074 37.319 70.0213 37.4523C70.2213 39.239 70.0713 40.989 69.5713 42.7023C69.5066 42.92 69.4169 43.114 69.3148 43.2573C69.2127 43.4006 69.1031 43.4862 69.0013 43.5023C68.0413 43.6756 67.0846 43.5323 66.1313 43.0723C66.0523 43.0352 65.9784 42.932 65.9194 42.7765C65.8605 42.621 65.8192 42.4206 65.8013 42.2023C65.3013 36.6223 64.1513 31.3723 64.3613 25.8023C64.3702 25.5851 64.4345 25.3736 64.5478 25.1882C64.6611 25.0027 64.8197 24.8494 65.0084 24.743C65.1971 24.6366 65.4095 24.5807 65.6254 24.5806C65.8413 24.5804 66.0533 24.6361 66.2413 24.7423C67.4746 25.4423 68.0813 27.3556 68.0613 30.4823C68.0608 30.5993 68.0817 30.7161 68.1223 30.8236C68.1628 30.9312 68.222 31.0268 68.2954 31.103C68.3687 31.1792 68.4542 31.2341 68.5454 31.2634C68.6365 31.2928 68.7309 31.2958 68.8213 31.2723Z" fill="#212C38"/>
<path d="M138.333 52.3123L143.233 51.0422C143.435 50.9897 143.625 50.9524 143.773 50.9361C143.921 50.9198 144.02 50.9255 144.053 50.9523C145.307 51.8189 145.667 53.0156 145.133 54.5422C145.093 54.6592 144.997 54.78 144.854 54.8935C144.71 55.0071 144.525 55.1098 144.313 55.1923L138.743 57.3623C138.638 57.4039 138.553 57.502 138.502 57.6403C138.451 57.7786 138.438 57.9487 138.463 58.1223C139.003 61.6689 137.713 62.6056 134.593 60.9323C133.393 60.2923 132.63 58.9722 132.303 56.9722C132.07 55.4989 132.367 54.2189 133.193 53.1323C133.324 52.9617 133.424 52.7873 133.484 52.6261C133.543 52.4648 133.56 52.3223 133.533 52.2123L132.333 47.4423C132.033 46.2489 132.123 45.2523 132.603 44.4523C136.273 38.3523 137.503 50.3123 137.773 51.6523C137.794 51.7507 137.825 51.8462 137.864 51.9331C137.904 52.02 137.951 52.0965 138.003 52.1581C138.056 52.2197 138.112 52.2651 138.168 52.2915C138.225 52.318 138.281 52.3251 138.333 52.3123Z" fill="#242830"/>
<path d="M44.0239 68.952C44.3706 67.932 44.1472 67.182 43.3539 66.702C43.0839 65.702 42.9639 60.812 42.7139 60.582C42.61 60.4876 42.5258 60.3826 42.4672 60.274C42.4086 60.1654 42.3768 60.0557 42.3739 59.952L42.0839 52.202C42.0744 52.0126 42.1006 51.8314 42.1602 51.6756C42.2197 51.5197 42.3105 51.3946 42.4239 51.312C45.6539 48.952 46.7939 58.822 46.8239 60.292C46.8283 60.4409 46.8669 60.5868 46.9368 60.7183C47.0066 60.8499 47.1058 60.9636 47.2267 61.0506C47.3476 61.1377 47.4869 61.1957 47.6338 61.2202C47.7807 61.2447 47.9313 61.2351 48.0739 61.192C50.3273 60.4854 52.6339 60.1387 54.9939 60.152C57.3239 60.162 57.3539 62.002 55.9539 63.202C54.2473 64.662 52.2739 65.6554 50.0339 66.182C49.6265 66.2776 49.2703 66.5166 49.0434 66.8466C48.8166 67.1765 48.7376 67.5705 48.8239 67.942C49.1306 69.262 48.9606 70.5187 48.3139 71.712C48.2312 71.8683 48.1176 72.0013 47.9832 72.099C47.8488 72.1968 47.6978 72.2562 47.5439 72.272C45.3039 72.492 44.1306 71.3854 44.0239 68.952Z" fill="#212C38"/>
<path d="M76.5817 66.7619C80.4417 62.9819 81.4817 76.2219 81.5417 77.4219C81.5454 77.5105 81.5695 77.5971 81.6119 77.675C81.6543 77.7529 81.7141 77.82 81.7865 77.8712C81.8589 77.9224 81.9421 77.9563 82.0297 77.9703C82.1173 77.9843 82.2069 77.978 82.2917 77.9519C84.9417 77.1419 92.3717 73.6019 93.7517 77.2819C93.8068 77.4339 93.8133 77.5993 93.7703 77.7552C93.7273 77.911 93.637 78.0497 93.5117 78.1519C90.4517 80.6186 86.9684 82.1453 83.0617 82.7319C82.8082 82.7681 82.5798 82.9062 82.4262 83.116C82.2725 83.3258 82.2062 83.5903 82.2417 83.8519C82.6817 87.1119 84.4817 94.2119 81.8417 96.5619C80.3217 97.9153 79.385 97.3753 79.0317 94.9419L77.7917 86.4419C77.7572 86.2028 77.677 85.9725 77.5563 85.7661C77.4357 85.5598 77.2772 85.3819 77.0914 85.2441C76.9055 85.1064 76.6964 85.0118 76.4776 84.9667C76.2588 84.9215 76.0354 84.9267 75.8217 84.9819C72.6351 85.8219 69.4051 86.2919 66.1317 86.3919C65.7159 86.4013 65.3047 86.3261 64.9242 86.1711C64.5437 86.0162 64.2023 85.7849 63.9217 85.4919C61.3817 82.8119 64.2417 81.5819 66.4717 81.2419C69.9517 80.7086 73.3784 79.9519 76.7517 78.9719C76.8749 78.9369 76.9891 78.8756 77.0875 78.7916C77.186 78.7076 77.2666 78.6027 77.3245 78.4831C77.3824 78.3635 77.4164 78.2318 77.4245 78.0959C77.4326 77.9599 77.4147 77.8225 77.3717 77.6919C76.2984 74.4386 75.8651 71.1119 76.0717 67.7119C76.0808 67.5603 76.1305 67.3982 76.2181 67.2351C76.3056 67.072 76.4293 66.9112 76.5817 66.7619Z" fill="#212C38"/>
<path d="M43.3516 66.7021C44.1449 67.1821 44.3683 67.9321 44.0216 68.9521L43.3516 66.7021Z" fill="#6F6C35"/>
<path d="M26.5844 87.7622L31.5444 85.8922C32.0511 85.6989 32.4077 85.6122 32.6144 85.6322C35.0144 85.8722 35.5777 87.1389 34.3044 89.4322C34.2521 89.5285 34.1505 89.6332 34.0069 89.7388C33.8633 89.8443 33.6813 89.948 33.4744 90.0422C29.1744 91.9722 24.5444 94.9422 19.7744 93.0322C15.6344 91.3722 20.2344 89.3422 21.4944 88.5022C21.6143 88.4235 21.706 88.3076 21.7563 88.1711C21.8065 88.0347 21.8129 87.8845 21.7744 87.7422C20.8544 84.1422 18.2744 73.5622 20.8144 73.1922C25.1844 72.5622 25.9744 84.4022 26.1044 87.1522C26.1086 87.2431 26.1256 87.3342 26.154 87.4181C26.1824 87.5021 26.2214 87.5766 26.268 87.6358C26.3146 87.695 26.3675 87.7372 26.4224 87.7592C26.4773 87.7811 26.5328 87.7821 26.5844 87.7622Z" fill="#212C38"/>
<path d="M114.103 82.662C113.383 80.262 113.033 77.7886 113.053 75.242C113.052 75.0772 113.093 74.9181 113.171 74.7835C113.249 74.6488 113.361 74.5442 113.493 74.482C117.093 72.732 117.753 80.222 118.223 82.262C118.237 82.3221 118.264 82.3784 118.302 82.4269C118.34 82.4754 118.388 82.515 118.443 82.5427C118.497 82.5704 118.557 82.5856 118.617 82.5872C118.678 82.5888 118.737 82.5768 118.793 82.552C122.066 81.132 124.343 80.4653 125.623 80.552C135.363 81.222 121.713 87.132 119.763 87.772C119.629 87.8182 119.514 87.9062 119.436 88.022C119.358 88.1378 119.322 88.275 119.333 88.412C119.403 89.122 121.603 102.662 116.633 97.202C115.173 95.592 114.823 91.592 114.213 89.432C114.178 89.3025 114.095 89.1908 113.98 89.1187C113.865 89.0466 113.727 89.0192 113.593 89.042C110.113 89.602 106.293 91.162 103.523 88.072C103.46 88.0016 103.415 87.9169 103.392 87.8253C103.369 87.7337 103.369 87.6379 103.392 87.5462C103.415 87.4546 103.459 87.3699 103.522 87.2994C103.585 87.229 103.664 87.1749 103.753 87.142L113.713 83.312C113.856 83.258 113.976 83.1607 114.048 83.0398C114.121 82.919 114.14 82.7838 114.103 82.662Z" fill="#212C38"/>
<path d="M51.8928 98.5824C55.3828 96.2524 55.4528 103.682 55.0528 105.212C54.6795 106.632 55.1062 106.969 56.3328 106.222C57.8828 105.262 61.3628 104.432 62.6928 106.162C64.2028 108.112 58.1528 110.852 56.8528 111.802C56.7232 111.897 56.6147 112.016 56.5338 112.152C56.453 112.288 56.4016 112.438 56.3828 112.592C55.1428 123.042 50.9728 112.302 51.4228 108.892C51.8628 105.532 51.0028 102.682 51.4328 99.3824C51.455 99.213 51.5075 99.0538 51.5869 98.9157C51.6663 98.7776 51.7707 98.6639 51.8928 98.5824Z" fill="#212C38"/>
<path d="M134.592 114.262L136.792 113.162C136.985 113.064 137.175 112.993 137.35 112.954C137.525 112.914 137.682 112.907 137.812 112.932C139.672 113.286 140.399 114.439 139.992 116.392C139.959 116.543 139.878 116.68 139.759 116.787C139.639 116.895 139.487 116.966 139.322 116.992C137.922 117.232 136.742 117.876 135.782 118.922C135.638 119.075 135.535 119.253 135.483 119.435C135.432 119.617 135.435 119.796 135.492 119.952C136.372 122.326 135.585 123.492 133.132 123.452C133.023 123.449 132.897 123.382 132.772 123.259C132.648 123.135 132.529 122.963 132.432 122.762C130.862 119.582 130.892 116.542 129.902 113.362C129.372 111.652 128.412 108.042 130.872 107.712C131.023 107.694 131.18 107.716 131.328 107.775C131.476 107.834 131.611 107.929 131.722 108.052C133.135 109.592 133.925 111.452 134.092 113.632C134.1 113.728 134.121 113.824 134.153 113.912C134.185 113.999 134.227 114.077 134.276 114.138C134.325 114.2 134.378 114.243 134.433 114.264C134.488 114.286 134.543 114.285 134.592 114.262Z" fill="#212C38"/>
<path d="M104.863 135.292C106.463 134.962 120.623 131.312 117.463 136.542C116.736 137.742 115.576 138.509 113.983 138.842L105.303 140.672C105.15 140.703 105.001 140.778 104.868 140.891C104.734 141.004 104.62 141.151 104.533 141.322C103.393 143.522 98.3625 149.282 98.4125 143.072C98.4127 143.009 98.3999 142.946 98.3751 142.888C98.3503 142.829 98.314 142.777 98.2687 142.735C98.2233 142.692 98.1699 142.66 98.112 142.641C98.0541 142.621 97.9929 142.615 97.9326 142.622C94.1526 143.042 88.0626 143.782 84.7126 141.752C84.5461 141.651 84.4091 141.507 84.315 141.337C84.2208 141.166 84.1729 140.974 84.1759 140.779C84.1789 140.584 84.2328 140.393 84.3322 140.225C84.4316 140.057 84.573 139.918 84.7426 139.822C88.6526 137.622 94.9926 136.932 99.4226 135.922C99.5629 135.887 99.6879 135.809 99.7782 135.698C99.8686 135.588 99.9193 135.452 99.9226 135.312C100.003 132.302 99.6226 122.932 103.943 125.702C104.214 125.876 104.416 126.145 104.513 126.462C105.406 129.255 105.413 132.072 104.533 134.912C104.518 134.961 104.516 135.014 104.527 135.064C104.538 135.114 104.561 135.16 104.594 135.198C104.627 135.236 104.669 135.265 104.716 135.281C104.763 135.298 104.814 135.302 104.863 135.292Z" fill="#212C38"/>
</svg>
