<svg width="195" height="107" viewBox="0 0 195 107" fill="none" xmlns="http://www.w3.org/2000/svg">
<path d="M15.3281 83.5383C29.3381 101.438 50.4981 108.418 72.9381 103.868C89.0481 100.608 100.618 87.8683 110.698 76.1483C119.318 66.1283 122.608 54.9883 129.078 44.2383C131.518 40.1683 138.588 32.4883 143.778 37.4683C146.758 40.3283 148.645 43.9316 149.438 48.2783" stroke="#808080" stroke-width="2"/>
<path d="M149.441 48.2783C150.561 54.025 152.218 59.6117 154.411 65.0383" stroke="#CFCDCE" stroke-width="2"/>
<path d="M154.41 65.0386C154.643 66.4252 155.2 67.6752 156.08 68.7886" stroke="#C8BDBB" stroke-width="2"/>
<path d="M156.078 68.7886L158.458 74.7886C158.511 74.9196 158.601 75.0407 158.723 75.1428C158.844 75.2449 158.993 75.3255 159.158 75.3786C164.831 77.1386 170.651 77.7619 176.618 77.2486" stroke="#808080" stroke-width="2"/>
<path d="M176.62 77.2486C182.194 77.8753 187.507 78.0019 192.56 77.6286C192.74 77.6168 192.914 77.5665 193.073 77.481C193.231 77.3954 193.37 77.2766 193.479 77.1326C193.587 76.9886 193.665 76.8228 193.704 76.6461C193.744 76.4695 193.746 76.2862 193.71 76.1086C192.137 68.4552 189.267 61.4686 185.1 55.1486C179.61 46.8486 178.24 37.6086 175.16 28.2886" stroke="#FFB5A8" stroke-width="2"/>
<path d="M175.161 28.2884C169.691 10.4484 152.811 -0.201588 134.441 1.10841C127.194 1.62174 121.351 4.11172 116.911 8.57838C111.371 14.1517 107.614 18.6517 105.641 22.0784C99.161 33.325 92.0176 44.1084 84.2109 54.4284" stroke="#F9AB9F" stroke-width="2"/>
<path d="M84.2109 54.4285C79.6709 61.6885 69.8109 71.6084 60.5809 71.3484C49.8609 71.0384 42.081 68.5384 36.791 58.6484C31.451 48.6584 33.3909 29.3384 35.2209 16.0284C36.7209 5.23843 34.0909 0.768444 22.4609 1.60844" stroke="#FFB5A8" stroke-width="2"/>
<path d="M22.4589 1.60853C18.2256 0.855198 13.9222 0.851855 9.54889 1.59852C6.05889 2.19852 4.80889 3.42852 4.10889 6.78852C-1.26111 32.6785 -0.941107 61.1485 15.3289 83.5385" stroke="#AFE3E0" stroke-width="2"/>
<path d="M22.4589 1.6084C19.3489 28.1284 10.6889 54.5584 31.3989 76.5684" stroke="#AF9889" stroke-width="2"/>
<path d="M31.3981 76.5684C29.1081 78.8084 18.4281 87.2183 16.0281 83.3583C16.001 83.3134 15.9658 83.2738 15.9251 83.2422C15.8843 83.2106 15.839 83.1878 15.7924 83.1754C15.7457 83.163 15.6987 83.1614 15.6548 83.1705C15.6109 83.1797 15.5711 83.1994 15.5381 83.2283C15.4315 83.3217 15.3615 83.425 15.3281 83.5383" stroke="#2F6360" stroke-width="2"/>
<path d="M176.618 77.2486C177.738 76.9419 178.135 76.3819 177.808 75.5686C172.978 63.4686 169.088 50.4086 163.328 38.7886" stroke="#803529" stroke-width="2"/>
<path d="M163.331 38.7883C163.658 37.7283 164.371 36.9217 165.471 36.3683C165.591 36.3085 165.683 36.2057 165.728 36.0821C165.773 35.9586 165.767 35.8243 165.711 35.7083C161.681 27.5983 153.701 20.6483 144.411 20.0683C144.274 20.0591 144.134 20.0946 144.008 20.1709C143.883 20.2471 143.776 20.3608 143.701 20.4983L142.871 21.9983" stroke="#FE7A62" stroke-width="2"/>
<path d="M142.868 21.9985C125.658 23.1285 117.888 31.7685 110.008 46.3185C104.528 56.4285 99.1684 67.3985 91.6684 75.8385C85.6984 82.5585 74.9384 87.4085 66.3784 89.5785C52.6184 93.0585 42.1484 84.8885 31.3984 76.5685" stroke="#803529" stroke-width="2"/>
<path d="M156.08 68.7886L154.91 64.2886" stroke="#493E3B" stroke-width="2"/>
<path d="M154.911 64.2883C153.558 58.7883 151.735 53.4517 149.441 48.2783" stroke="#4F4E4E" stroke-width="2"/>
<path d="M175.161 28.2884C175.041 29.4418 174.524 29.8418 173.611 29.4884C173.479 29.4348 173.357 29.3443 173.254 29.2234C173.15 29.1024 173.067 28.9539 173.011 28.7884C168.271 14.0418 158.298 5.81175 143.091 4.09842C133.721 3.03842 122.351 5.86839 115.701 13.1984C109.074 20.5117 105.248 25.1518 104.221 27.1184C99.5609 36.0518 94.6276 44.6051 89.4209 52.7784C88.7676 53.8117 87.9076 54.6351 86.8409 55.2484C85.8143 55.8484 84.9376 55.5751 84.2109 54.4284" stroke="#F96148" stroke-width="2"/>
<path d="M163.331 38.7885C159.371 31.9485 151.241 23.5785 142.871 21.9985" stroke="#7E4539" stroke-width="2"/>
<path d="M154.91 64.2886L154.41 65.0386" stroke="#988B89" stroke-width="2"/>
<path d="M21.8988 87.2485C30.8888 97.0485 46.6988 102.948 60.1288 102.538C68.1688 102.298 77.9288 100.628 85.0688 96.4184C97.1388 89.2984 107.599 77.4884 114.939 65.3484C116.705 62.4284 120.059 55.6451 124.999 44.9985C126.399 41.9718 127.822 39.7318 129.269 38.2784C132.549 34.9784 138.609 30.7684 143.179 33.9684C148.419 37.6484 151.649 44.2384 153.289 50.1084C155.202 56.9284 157.302 63.6951 159.589 70.4084C161.439 75.8384 168.029 74.6385 172.559 74.7485C174.332 74.7885 174.855 74.0017 174.129 72.3884C170.509 64.2817 166.985 55.6851 163.559 46.5984C161.359 40.7984 155.339 30.9684 149.099 27.8584C142.119 24.3884 140.289 27.3584 133.419 27.2584C123.219 27.1084 116.619 38.3185 112.369 46.1285C106.629 56.6618 102.342 64.0985 99.5088 68.4385C90.1688 82.7485 75.4388 90.3984 58.8488 92.7984C57.2422 93.0318 55.7555 92.9284 54.3888 92.4884C46.6621 90.0218 39.4155 86.5251 32.6488 81.9985C31.0421 80.9185 29.4522 80.8617 27.8788 81.8284L21.5088 85.7485C21.3937 85.8218 21.3117 85.9375 21.28 86.0716C21.2483 86.2058 21.2694 86.3479 21.3388 86.4684C21.4988 86.7551 21.6855 87.0151 21.8988 87.2485Z" stroke="#0E101B" stroke-width="2"/>
<path d="M22.4628 1.60853C19.3528 28.1285 10.6928 54.5585 31.4028 76.5686C29.1128 78.8085 18.4328 87.2185 16.0328 83.3585C16.0057 83.3136 15.9705 83.274 15.9298 83.2424C15.889 83.2108 15.8437 83.188 15.797 83.1756C15.7503 83.1632 15.7034 83.1616 15.6595 83.1707C15.6155 83.1799 15.5757 83.1996 15.5428 83.2285C15.4362 83.3219 15.3661 83.4252 15.3328 83.5385C-0.937201 61.1485 -1.2572 32.6785 4.1128 6.78852C4.8128 3.42852 6.0628 2.19852 9.5528 1.59852C13.9261 0.851855 18.2295 0.855198 22.4628 1.60853Z" fill="#5EC6C0"/>
<path d="M175.161 28.2884C175.041 29.4417 174.524 29.8417 173.611 29.4884C173.479 29.4348 173.357 29.3443 173.254 29.2233C173.15 29.1024 173.067 28.9539 173.011 28.7884C168.271 14.0417 158.298 5.81174 143.091 4.0984C133.721 3.0384 122.351 5.86838 115.701 13.1984C109.074 20.5117 105.248 25.1518 104.221 27.1184C99.5609 36.0518 94.6276 44.6051 89.4209 52.7784C88.7676 53.8117 87.9076 54.6351 86.8409 55.2484C85.8143 55.8484 84.9376 55.5751 84.2109 54.4284C92.0176 44.1084 99.161 33.3251 105.641 22.0784C107.614 18.6517 111.371 14.1517 116.911 8.57838C121.351 4.11172 127.194 1.62174 134.441 1.10841C152.811 -0.201588 169.691 10.4484 175.161 28.2884Z" fill="#F2573F"/>
<path d="M22.4628 1.60844C34.0928 0.768444 36.7228 5.23843 35.2228 16.0284C33.3928 29.3384 31.4528 48.6584 36.7928 58.6484C42.0828 68.5384 49.8628 71.0384 60.5828 71.3484C69.8128 71.6084 79.6728 61.6885 84.2128 54.4285C84.9395 55.5751 85.8161 55.8485 86.8428 55.2485C87.9095 54.6351 88.7695 53.8118 89.4228 52.7784C94.6295 44.6051 99.5628 36.0518 104.223 27.1185C105.249 25.1518 109.076 20.5117 115.703 13.1984C122.353 5.86841 133.723 3.03843 143.093 4.09843C158.299 5.81177 168.273 14.0418 173.013 28.7884C173.069 28.9539 173.152 29.1024 173.255 29.2234C173.359 29.3443 173.481 29.4349 173.613 29.4884C174.526 29.8418 175.043 29.4418 175.163 28.2884C178.243 37.6084 179.613 46.8484 185.103 55.1484C189.269 61.4684 192.14 68.4551 193.713 76.1084C193.749 76.2861 193.747 76.4693 193.707 76.646C193.667 76.8226 193.59 76.9885 193.481 77.1325C193.372 77.2765 193.234 77.3953 193.076 77.4808C192.917 77.5664 192.742 77.6167 192.563 77.6285C187.509 78.0018 182.196 77.8751 176.623 77.2485C177.743 76.9418 178.139 76.3818 177.813 75.5685C172.983 63.4685 169.093 50.4084 163.333 38.7884C163.66 37.7284 164.373 36.9218 165.473 36.3685C165.593 36.3086 165.685 36.2058 165.73 36.0823C165.775 35.9587 165.769 35.8244 165.713 35.7084C161.683 27.5984 153.703 20.6485 144.413 20.0685C144.276 20.0592 144.136 20.0948 144.01 20.171C143.884 20.2473 143.778 20.361 143.703 20.4985L142.873 21.9985C125.663 23.1285 117.893 31.7685 110.013 46.3185C104.533 56.4285 99.1728 67.3984 91.6728 75.8384C85.7028 82.5584 74.9428 87.4084 66.3828 89.5784C52.6228 93.0584 42.1528 84.8885 31.4028 76.5685C10.6928 54.5585 19.3528 28.1284 22.4628 1.60844Z" fill="#FF6A51"/>
<path d="M163.331 38.7883C159.371 31.9483 151.241 23.5783 142.871 21.9983L143.701 20.4983C143.776 20.3608 143.883 20.2471 144.008 20.1709C144.134 20.0946 144.274 20.0591 144.411 20.0683C153.701 20.6483 161.681 27.5983 165.711 35.7083C165.767 35.8243 165.773 35.9586 165.728 36.0821C165.683 36.2057 165.591 36.3085 165.471 36.3683C164.371 36.9217 163.658 37.7283 163.331 38.7883Z" fill="#FC8A72"/>
<path d="M142.872 21.9985C151.242 23.5785 159.372 31.9485 163.332 38.7885C169.092 50.4085 172.982 63.4685 177.812 75.5685C178.139 76.3819 177.742 76.9419 176.622 77.2485C170.655 77.7619 164.835 77.1385 159.162 75.3785C158.996 75.3254 158.848 75.2448 158.726 75.1427C158.605 75.0406 158.515 74.9196 158.462 74.7885L156.082 68.7885L154.912 64.2885C153.559 58.7885 151.735 53.4518 149.442 48.2785C148.649 43.9318 146.762 40.3285 143.782 37.4685C138.592 32.4885 131.522 40.1685 129.082 44.2385C122.612 54.9885 119.322 66.1285 110.702 76.1485C100.622 87.8685 89.052 100.609 72.942 103.869C50.502 108.419 29.342 101.439 15.332 83.5385C15.3654 83.4252 15.4354 83.3218 15.5421 83.2285C15.575 83.1996 15.6148 83.1799 15.6587 83.1707C15.7026 83.1616 15.7496 83.1632 15.7963 83.1756C15.843 83.188 15.8883 83.2108 15.929 83.2424C15.9697 83.274 16.0049 83.3136 16.032 83.3585C18.432 87.2185 29.112 78.8085 31.402 76.5685C42.152 84.8885 52.622 93.0585 66.382 89.5785C74.9421 87.4085 85.702 82.5585 91.672 75.8385C99.172 67.3985 104.532 56.4285 110.012 46.3185C117.892 31.7685 125.662 23.1285 142.872 21.9985ZM21.902 87.2485C30.892 97.0485 46.702 102.949 60.132 102.539C68.1721 102.299 77.9321 100.629 85.0721 96.4185C97.1421 89.2985 107.602 77.4885 114.942 65.3485C116.709 62.4285 120.062 55.6452 125.002 44.9985C126.402 41.9719 127.825 39.7318 129.272 38.2785C132.552 34.9785 138.612 30.7685 143.182 33.9685C148.422 37.6485 151.652 44.2385 153.292 50.1085C155.205 56.9285 157.305 63.6952 159.592 70.4085C161.442 75.8385 168.032 74.6385 172.562 74.7485C174.335 74.7885 174.859 74.0018 174.132 72.3885C170.512 64.2818 166.989 55.6852 163.562 46.5985C161.362 40.7985 155.342 30.9685 149.102 27.8585C142.122 24.3885 140.292 27.3585 133.422 27.2585C123.222 27.1085 116.622 38.3185 112.372 46.1285C106.632 56.6619 102.345 64.0985 99.5121 68.4385C90.1721 82.7485 75.4421 90.3985 58.8521 92.7985C57.2454 93.0319 55.7587 92.9285 54.392 92.4885C46.6654 90.0219 39.4187 86.5252 32.652 81.9985C31.0454 80.9185 29.4554 80.8618 27.882 81.8285L21.5121 85.7485C21.3969 85.8218 21.3149 85.9376 21.2832 86.0717C21.2516 86.2058 21.2726 86.348 21.342 86.4685C21.502 86.7552 21.6887 87.0152 21.902 87.2485Z" fill="black"/>
<path d="M149.441 48.2783C151.735 53.4517 153.558 58.7883 154.911 64.2883L154.411 65.0383C152.218 59.6117 150.561 54.025 149.441 48.2783Z" fill="#9E9B9C"/>
<path d="M154.914 64.2886L156.084 68.7886C155.204 67.6752 154.647 66.4252 154.414 65.0386L154.914 64.2886Z" fill="#917B76"/>
<path d="M21.9027 87.2485C21.6894 87.0151 21.5027 86.7551 21.3427 86.4684C21.2733 86.3479 21.2522 86.2058 21.2839 86.0716C21.3156 85.9375 21.3976 85.8218 21.5127 85.7485L27.8827 81.8284C29.4561 80.8617 31.0461 80.9185 32.6527 81.9985C39.4194 86.5251 46.666 90.0218 54.3927 92.4884C55.7594 92.9285 57.2461 93.0318 58.8527 92.7984C75.4427 90.3984 90.1727 82.7485 99.5127 68.4385C102.346 64.0985 106.633 56.6618 112.373 46.1285C116.623 38.3185 123.223 27.1084 133.423 27.2584C140.293 27.3584 142.123 24.3884 149.103 27.8584C155.343 30.9684 161.363 40.7984 163.563 46.5984C166.989 55.6851 170.513 64.2817 174.133 72.3884C174.859 74.0017 174.336 74.7885 172.563 74.7485C168.033 74.6385 161.443 75.8384 159.593 70.4084C157.306 63.6951 155.206 56.9284 153.293 50.1084C151.653 44.2384 148.423 37.6484 143.183 33.9684C138.613 30.7684 132.553 34.9784 129.273 38.2784C127.826 39.7318 126.403 41.9718 125.003 44.9985C120.063 55.6451 116.709 62.4284 114.943 65.3484C107.603 77.4884 97.1427 89.2984 85.0727 96.4184C77.9327 100.628 68.1727 102.298 60.1327 102.538C46.7027 102.948 30.8927 97.0485 21.9027 87.2485Z" fill="#1B2035"/>
</svg>
