<svg width="100" height="75" viewBox="0 0 100 75" fill="none" xmlns="http://www.w3.org/2000/svg">
<path d="M63.5902 7.4177C67.7202 9.4877 72.5202 10.6977 74.5202 15.3477C78.4336 24.4344 77.2469 33.061 70.9602 41.2277C63.9002 50.4077 54.7202 57.6477 43.3402 59.0777C26.7002 61.1777 16.7502 54.6177 7.79025 41.0177C7.70828 40.8952 7.59163 40.8012 7.45693 40.7491C7.32224 40.697 7.17639 40.6895 7.04025 40.7277C-1.42975 43.0977 0.140244 49.5777 4.85024 54.6977C11.3969 61.7977 19.2736 66.8777 28.4802 69.9377C33.2002 71.5077 38.7903 72.1977 44.0603 73.1377C56.4403 75.3377 71.7702 69.4377 81.2102 62.1677C94.0102 52.2977 101.85 36.8477 96.7202 20.6077C93.5669 10.621 86.5802 4.44102 75.7602 2.06769C70.6502 0.947691 65.1003 -0.732293 62.8803 5.67771C62.7668 6.00303 62.7762 6.35889 62.9068 6.67902C63.0374 6.99915 63.2803 7.26168 63.5902 7.4177Z" stroke="#B9E8BE" stroke-width="2"/>
<path d="M86.0494 28.948C85.9991 29.0777 85.9759 29.2163 85.9812 29.3553C85.9865 29.4943 86.0201 29.6307 86.08 29.7562C86.14 29.8817 86.2249 29.9937 86.3297 30.0851C86.4345 30.1766 86.5569 30.2456 86.6894 30.288C87.9994 30.708 87.4594 25.298 86.0494 28.948Z" stroke="#95DCA8" stroke-width="2"/>
<path d="M86.9005 36.9778C86.943 37.0903 87.006 37.1943 87.085 37.2826C87.164 37.3708 87.2571 37.4412 87.358 37.4888C87.4589 37.5363 87.565 37.56 87.669 37.5581C87.7731 37.5562 87.8726 37.5288 87.9605 37.4778C88.6072 37.0911 88.9605 36.5611 89.0205 35.8878C89.0272 35.8175 89.0068 35.7457 88.9604 35.6767C88.9139 35.6077 88.8425 35.5429 88.7503 35.4861C88.658 35.4293 88.5469 35.3816 88.4233 35.3458C88.2997 35.31 88.1662 35.2869 88.0306 35.2778C86.8239 35.2045 86.4472 35.7711 86.9005 36.9778Z" stroke="#90D297" stroke-width="2"/>
<path d="M3.79129 45.7578C3.65129 45.8778 3.48463 45.9678 3.29129 46.0278C3.14364 46.0752 3.01405 46.1537 2.926 46.2491C2.83794 46.3444 2.79727 46.4504 2.81131 46.5478L3.41129 51.0578C3.42995 51.1987 3.48979 51.3426 3.58658 51.4791C3.68337 51.6156 3.81471 51.7415 3.97128 51.8478C5.02462 52.5878 6.00462 52.5312 6.91129 51.6778C7.01605 51.5771 7.07025 51.4208 7.06479 51.2351C7.05933 51.0494 6.99457 50.8456 6.88132 50.6578L4.25131 46.2978" stroke="#B9E8BE" stroke-width="2"/>
<path d="M4.24908 46.2978C4.65575 45.2978 5.39906 44.7745 6.47906 44.7278C6.8124 44.7078 6.82905 44.6378 6.52905 44.5178C5.30905 44.0178 4.39573 44.4311 3.78906 45.7578" stroke="#95DCA8" stroke-width="2"/>
<path d="M4.24908 46.2978L3.78906 45.7578" stroke="#DBF3E9" stroke-width="2"/>
<path d="M83.5406 46.3077C79.4006 46.5277 89.2806 50.9776 84.4206 46.6276C84.1702 46.409 83.8551 46.2945 83.5406 46.3077Z" stroke="#90D297" stroke-width="2"/>
<path d="M63.5902 7.41819C63.2803 7.26217 63.0374 6.99963 62.9068 6.67951C62.7762 6.35938 62.7668 6.00352 62.8803 5.6782C65.1003 -0.731804 70.6502 0.94818 75.7602 2.06818C86.5802 4.44151 93.5669 10.6215 96.7202 20.6082C101.85 36.8482 94.0102 52.2982 81.2102 62.1682C71.7702 69.4382 56.4403 75.3382 44.0603 73.1382C38.7903 72.1982 33.2002 71.5082 28.4802 69.9382C19.2736 66.8782 11.3969 61.7982 4.85024 54.6982C0.140244 49.5782 -1.42975 43.0982 7.04025 40.7282C7.17639 40.69 7.32224 40.6975 7.45693 40.7496C7.59163 40.8017 7.70828 40.8957 7.79025 41.0182C16.7502 54.6182 26.7002 61.1782 43.3402 59.0782C54.7202 57.6482 63.9002 50.4082 70.9602 41.2282C77.2469 33.0615 78.4336 24.4348 74.5202 15.3482C72.5202 10.6982 67.7202 9.48819 63.5902 7.41819ZM86.0503 28.9482C86 29.0779 85.9768 29.2165 85.9821 29.3554C85.9874 29.4944 86.021 29.6309 86.0809 29.7564C86.1408 29.8819 86.2258 29.9938 86.3306 30.0853C86.4354 30.1767 86.5578 30.2458 86.6903 30.2882C88.0003 30.7082 87.4603 25.2982 86.0503 28.9482ZM86.9002 36.9782C86.9427 37.0907 87.0057 37.1948 87.0847 37.283C87.1637 37.3712 87.2568 37.4416 87.3577 37.4892C87.4585 37.5367 87.5647 37.5604 87.6687 37.5585C87.7728 37.5566 87.8722 37.5292 87.9602 37.4782C88.6069 37.0915 88.9602 36.5615 89.0202 35.8882C89.0269 35.8179 89.0065 35.7461 88.96 35.6771C88.9136 35.6082 88.8422 35.5433 88.75 35.4865C88.6577 35.4297 88.5466 35.382 88.423 35.3462C88.2994 35.3104 88.1658 35.2873 88.0302 35.2782C86.8236 35.2049 86.4469 35.7715 86.9002 36.9782ZM3.79025 45.7582C3.65025 45.8782 3.48358 45.9682 3.29025 46.0282C3.14259 46.0756 3.013 46.154 2.92495 46.2494C2.8369 46.3448 2.79623 46.4508 2.81027 46.5482L3.41024 51.0582C3.4289 51.1991 3.48875 51.3429 3.58554 51.4795C3.68232 51.616 3.81367 51.7419 3.97024 51.8482C5.02357 52.5882 6.00358 52.5315 6.91024 51.6782C7.015 51.5774 7.06921 51.4211 7.06375 51.2354C7.05828 51.0498 6.99352 50.846 6.88027 50.6582L4.25027 46.2982C4.65694 45.2982 5.40025 44.7748 6.48025 44.7282C6.81358 44.7082 6.83024 44.6382 6.53024 44.5182C5.31024 44.0182 4.39691 44.4315 3.79025 45.7582ZM83.5402 46.3082C79.4002 46.5282 89.2803 50.9782 84.4202 46.6282C84.1698 46.4096 83.8547 46.295 83.5402 46.3082Z" fill="#73D07C"/>
<path d="M86.0494 28.9485C87.4594 25.2985 87.9994 30.7085 86.6894 30.2885C86.5569 30.2461 86.4345 30.1771 86.3297 30.0856C86.2249 29.9942 86.14 29.8822 86.08 29.7567C86.0201 29.6312 85.9865 29.4948 85.9812 29.3558C85.9759 29.2168 85.9991 29.0782 86.0494 28.9485Z" fill="#B7E7D3"/>
<path d="M86.9005 36.9783C86.4472 35.7716 86.8239 35.2049 88.0306 35.2783C88.1662 35.2874 88.2997 35.3105 88.4233 35.3463C88.5469 35.3821 88.658 35.4298 88.7503 35.4866C88.8425 35.5434 88.9139 35.6082 88.9604 35.6772C89.0068 35.7462 89.0272 35.8179 89.0205 35.8883C88.9605 36.5616 88.6072 37.0916 87.9605 37.4783C87.8726 37.5293 87.7731 37.5567 87.669 37.5586C87.565 37.5605 87.4589 37.5368 87.358 37.4892C87.2571 37.4417 87.164 37.3713 87.085 37.2831C87.006 37.1948 86.943 37.0908 86.9005 36.9783Z" fill="#ADD3B2"/>
<path d="M4.24908 46.2983L3.78906 45.7583C4.39573 44.4316 5.30905 44.0183 6.52905 44.5183C6.82905 44.6383 6.8124 44.7083 6.47906 44.7283C5.39906 44.7749 4.65575 45.2983 4.24908 46.2983Z" fill="#B7E7D3"/>
<path d="M3.78739 45.7583L4.24741 46.2983L6.87741 50.6583C6.99066 50.8461 7.05542 51.0499 7.06088 51.2356C7.06635 51.4212 7.01214 51.5776 6.90738 51.6783C6.00071 52.5316 5.02071 52.5883 3.96738 51.8483C3.81081 51.742 3.67946 51.6161 3.58267 51.4796C3.48589 51.343 3.42604 51.1992 3.40738 51.0583L2.8074 46.5483C2.79337 46.4509 2.83404 46.3449 2.92209 46.2495C3.01014 46.1542 3.13973 46.0757 3.28739 46.0283C3.48072 45.9683 3.64739 45.8783 3.78739 45.7583Z" fill="white"/>
<path d="M84.4206 46.6281C89.2806 50.9781 79.4006 46.5282 83.5406 46.3082C83.8551 46.295 84.1702 46.4095 84.4206 46.6281Z" fill="#ADD3B2"/>
</svg>
