<svg width="124" height="269" viewBox="0 0 124 269" fill="none" xmlns="http://www.w3.org/2000/svg">
<path d="M14.9429 72.8007C19.4429 80.5007 38.5729 81.9807 45.7629 86.4207C57.8029 93.8607 60.3229 109.951 54.8629 122.011C52.5729 127.061 48.3029 131.521 44.1129 135.371C27.8429 150.321 7.78287 167.251 2.45287 189.881C-2.14713 209.421 4.83286 225.901 14.5629 243.151C17.9129 249.091 30.8229 269.381 38.1129 267.551C40.8862 266.844 41.8729 264.917 41.0729 261.771C34.5229 236.031 27.7729 207.971 48.3129 184.951C50.1262 182.917 53.1229 180.187 57.3029 176.761C73.9729 163.081 90.8129 148.601 96.9829 126.961C99.5962 117.781 100.893 110.747 100.873 105.861C100.823 97.4807 99.8529 85.8707 102.193 79.0007C105.423 69.5407 115.103 65.3806 121.023 57.5406C125.433 51.6906 118.773 48.1306 113.613 47.2106C106.726 45.9773 100.393 44.6207 94.6129 43.1407C92.5929 42.6207 91.2762 41.3673 90.6629 39.3807C87.3129 28.6007 86.5929 18.1407 85.1329 7.26068C84.2629 0.740681 80.1129 -1.35937 75.6029 4.21063C70.3929 10.6206 66.1329 18.8107 61.9729 25.8707C61.2196 27.144 60.2262 27.374 58.9929 26.5607C50.7929 21.1707 43.5529 16.5106 34.4829 12.7806C29.2129 10.6106 25.4129 12.7707 26.7929 18.8807C29.3196 30.094 32.4062 41.0573 36.0529 51.7706C36.1266 51.9873 36.1252 52.2226 36.049 52.4384C35.9728 52.6543 35.8262 52.8382 35.6329 52.9606C30.1729 56.414 24.7696 59.8773 19.4229 63.3506C15.9629 65.6006 12.5129 68.6407 14.9429 72.8007Z" stroke="#ADD1D3" stroke-width="2"/>
<path d="M66.9578 57.1597C66.7629 56.8007 66.4334 56.5339 66.0418 56.4179C65.6502 56.3019 65.2286 56.3462 64.8696 56.5411L64.606 56.6843C64.247 56.8792 63.9802 57.2087 63.8642 57.6003C63.7482 57.9919 63.7925 58.4135 63.9874 58.7725L74.189 77.5616C74.3839 77.9206 74.7134 78.1874 75.105 78.3034C75.4966 78.4194 75.9183 78.3751 76.2772 78.1802L76.5409 78.037C76.8999 77.8421 77.1667 77.5126 77.2826 77.121C77.3986 76.7294 77.3543 76.3078 77.1594 75.9488L66.9578 57.1597Z" stroke="#35626F" stroke-width="2"/>
<path d="M79.4739 96.741C78.8272 104.694 78.0939 112.651 77.2739 120.611C77.2571 120.762 77.289 120.912 77.3639 121.037C77.4388 121.161 77.552 121.251 77.6839 121.291C81.9139 122.591 81.8439 99.261 81.6539 96.351C81.6413 96.1769 81.5967 96.013 81.5238 95.8723C81.4508 95.7316 81.3516 95.6182 81.2339 95.541C80.1639 94.831 79.5639 95.691 79.4739 96.741Z" stroke="#35626F" stroke-width="2"/>
<path d="M50.1926 155.751C50.4595 155.889 50.7569 155.95 51.0505 155.929C51.3442 155.908 51.6222 155.805 51.8526 155.631C58.8793 150.425 64.8359 144.201 69.7226 136.961C69.8198 136.816 69.8716 136.646 69.8716 136.471C69.8716 136.297 69.8198 136.126 69.7226 135.981C69.0959 135.021 68.3459 135.025 67.4726 135.991C61.0393 143.098 55.2526 148.928 50.1126 153.481C49.2426 154.251 48.9426 155.121 50.1926 155.751Z" stroke="#35626F" stroke-width="2"/>
<path d="M17.5244 207.921C18.8178 208.181 19.5311 207.588 19.6645 206.141C20.6978 194.795 24.2645 184.341 30.3645 174.781C30.4204 174.695 30.4645 174.598 30.4925 174.499C30.5204 174.401 30.5314 174.304 30.5244 174.218C30.5174 174.132 30.4926 174.06 30.4524 174.008C30.4122 173.956 30.3579 173.926 30.2945 173.921L29.0944 173.861C28.9336 173.852 28.7711 173.878 28.6177 173.939C28.4643 173.999 28.3234 174.092 28.2044 174.211C20.7744 181.671 16.8744 196.341 16.3844 206.461C16.3683 206.801 16.4744 207.135 16.6836 207.403C16.8928 207.671 17.1911 207.855 17.5244 207.921Z" stroke="#35626F" stroke-width="2"/>
<path d="M14.939 72.8011C12.509 68.6411 15.959 65.6011 19.419 63.3511C24.7657 59.8778 30.169 56.4145 35.629 52.9611C35.8223 52.8387 35.9689 52.6547 36.0451 52.4389C36.1213 52.2231 36.1227 51.9878 36.049 51.7711C32.4023 41.0578 29.3157 30.0945 26.789 18.8812C25.409 12.7712 29.209 10.6111 34.479 12.7811C43.549 16.5111 50.789 21.1712 58.989 26.5612C60.2223 27.3745 61.2157 27.1445 61.969 25.8712C66.129 18.8112 70.389 10.6211 75.599 4.21112C80.109 -1.35888 84.259 0.741169 85.129 7.26117C86.589 18.1412 87.309 28.6012 90.659 39.3812C91.2723 41.3678 92.589 42.6212 94.609 43.1412C100.389 44.6212 106.722 45.9778 113.609 47.2111C118.769 48.1311 125.429 51.6911 121.019 57.5411C115.099 65.3811 105.419 69.5412 102.189 79.0012C99.849 85.8712 100.819 97.4811 100.869 105.861C100.889 110.748 99.5923 117.781 96.979 126.961C90.809 148.601 73.969 163.081 57.299 176.761C53.119 180.188 50.1223 182.918 48.309 184.951C27.769 207.971 34.519 236.031 41.069 261.771C41.869 264.918 40.8823 266.844 38.109 267.551C30.819 269.381 17.909 249.091 14.559 243.151C4.82895 225.901 -2.15103 209.421 2.44897 189.881C7.77896 167.251 27.839 150.321 44.109 135.371C48.299 131.521 52.569 127.061 54.859 122.011C60.319 109.951 57.799 93.8611 45.759 86.4211C38.569 81.9811 19.439 80.5011 14.939 72.8011ZM66.9534 57.1602C66.7585 56.8012 66.429 56.5344 66.0373 56.4184C65.6457 56.3024 65.2241 56.3467 64.8652 56.5416L64.6015 56.6848C64.2426 56.8797 63.9757 57.2092 63.8597 57.6008C63.7437 57.9924 63.7881 58.414 63.983 58.7729L74.1846 77.5621C74.3795 77.9211 74.709 78.1879 75.1006 78.3039C75.4922 78.4199 75.9138 78.3756 76.2728 78.1807L76.5365 78.0375C76.8954 77.8426 77.1622 77.5131 77.2782 77.1215C77.3942 76.7299 77.3499 76.3083 77.155 75.9493L66.9534 57.1602ZM79.469 96.7411C78.8223 104.694 78.089 112.651 77.269 120.611C77.2522 120.762 77.284 120.912 77.3589 121.037C77.4338 121.161 77.5471 121.251 77.679 121.291C81.909 122.591 81.839 99.2611 81.649 96.3511C81.6364 96.1771 81.5918 96.0131 81.5189 95.8724C81.4459 95.7318 81.3466 95.6183 81.229 95.5411C80.159 94.8311 79.559 95.6911 79.469 96.7411ZM50.189 155.751C50.4559 155.889 50.7533 155.95 51.0469 155.929C51.3406 155.908 51.6185 155.805 51.849 155.631C58.8757 150.424 64.8323 144.201 69.719 136.961C69.8161 136.816 69.868 136.646 69.868 136.471C69.868 136.297 69.8161 136.126 69.719 135.981C69.0923 135.021 68.3423 135.024 67.469 135.991C61.0357 143.098 55.249 148.928 50.109 153.481C49.239 154.251 48.939 155.121 50.189 155.751ZM17.519 207.921C18.8123 208.181 19.5257 207.588 19.659 206.141C20.6923 194.795 24.259 184.341 30.359 174.781C30.415 174.695 30.459 174.598 30.487 174.499C30.515 174.4 30.526 174.304 30.519 174.218C30.512 174.132 30.4872 174.06 30.447 174.008C30.4067 173.956 30.3524 173.926 30.289 173.921L29.089 173.861C28.9282 173.852 28.7656 173.878 28.6122 173.939C28.4588 173.999 28.318 174.092 28.199 174.211C20.769 181.671 16.869 196.341 16.379 206.461C16.3628 206.801 16.469 207.135 16.6782 207.403C16.8873 207.671 17.1857 207.855 17.519 207.921Z" fill="#5CA4A9"/>
<path d="M64.867 56.5419L64.6034 56.6851C63.8559 57.0909 63.579 58.0258 63.9848 58.7733L74.1865 77.5624C74.5923 78.3099 75.5272 78.5868 76.2747 78.181L76.5383 78.0378C77.2858 77.632 77.5627 76.6971 77.1569 75.9496L66.9552 57.1605C66.5494 56.4131 65.6145 56.1361 64.867 56.5419Z" fill="#0E1F34"/>
<path d="M79.47 96.741C79.56 95.691 80.16 94.831 81.23 95.541C81.3477 95.6182 81.4469 95.7316 81.5199 95.8723C81.5928 96.013 81.6374 96.1769 81.65 96.351C81.84 99.261 81.91 122.591 77.68 121.291C77.5481 121.251 77.4348 121.161 77.36 121.037C77.2851 120.912 77.2532 120.762 77.27 120.611C78.09 112.651 78.8233 104.694 79.47 96.741Z" fill="#0E1F34"/>
<path d="M50.1887 155.751C48.9387 155.121 49.2387 154.251 50.1087 153.481C55.2487 148.928 61.0354 143.098 67.4687 135.991C68.342 135.025 69.092 135.021 69.7187 135.981C69.8159 136.126 69.8677 136.297 69.8677 136.471C69.8677 136.646 69.8159 136.816 69.7187 136.961C64.832 144.201 58.8754 150.425 51.8487 155.631C51.6183 155.805 51.3403 155.908 51.0466 155.929C50.753 155.95 50.4556 155.889 50.1887 155.751Z" fill="#0E1F34"/>
<path d="M17.5205 207.921C17.1872 207.855 16.8889 207.671 16.6797 207.403C16.4705 207.135 16.3643 206.801 16.3805 206.461C16.8705 196.341 20.7705 181.671 28.2005 174.211C28.3195 174.092 28.4604 173.999 28.6138 173.939C28.7672 173.878 28.9297 173.852 29.0905 173.861L30.2905 173.921C30.354 173.926 30.4083 173.956 30.4485 174.008C30.4887 174.06 30.5135 174.132 30.5205 174.218C30.5275 174.304 30.5165 174.401 30.4885 174.499C30.4606 174.598 30.4165 174.695 30.3606 174.781C24.2606 184.341 20.6939 194.795 19.6605 206.141C19.5272 207.588 18.8139 208.181 17.5205 207.921Z" fill="#0E1F34"/>
</svg>
