<svg width="54" height="97" viewBox="0 0 54 97" fill="none" xmlns="http://www.w3.org/2000/svg">
<path d="M5.24691 82.77C2.94025 83.7567 1.56358 85.3267 1.11691 87.48C-0.0730905 93.25 8.12692 94.41 11.8469 94.65C23.3269 95.3767 34.8036 95.6567 46.2769 95.49C49.8902 95.4367 51.8269 93.5267 52.0869 89.76C52.1126 89.4353 52.032 89.1092 51.8569 88.83C50.8569 87.2434 49.5702 85.9734 47.9969 85.02" stroke="#8A8C90" stroke-width="2"/>
<path d="M47.9969 85.0201C48.9902 80.2668 49.3435 75.4668 49.0569 70.6201C48.9169 68.2101 49.6169 65.7201 49.6569 63.2001C49.8702 47.9935 49.5269 32.7968 48.6269 17.6102C48.2969 12.1302 48.2769 7.60016 46.3069 2.36016C45.8002 1.0135 44.9069 0.66679 43.6269 1.32012C38.2469 4.08012 32.7969 12.6101 29.7969 17.7501C20.2636 34.1168 12.4769 51.2801 6.43689 69.2401C5.05689 73.3534 4.66022 77.8635 5.24688 82.7701" stroke="#FEB4A4" stroke-width="2"/>
<path d="M48 85.0203C41.77 82.9403 36.12 83.5403 29.98 82.4103C22.04 80.9403 13.29 82.3103 5.25 82.7703" stroke="#8A4645" stroke-width="2"/>
<path d="M47.9969 85.0201C41.7669 82.9401 36.1169 83.5401 29.9769 82.4101C22.0369 80.9401 13.2869 82.3101 5.24688 82.7701C4.66022 77.8635 5.05689 73.3534 6.43689 69.2401C12.4769 51.2801 20.2636 34.1168 29.7969 17.7501C32.7969 12.6101 38.2469 4.08012 43.6269 1.32012C44.9069 0.66679 45.8002 1.0135 46.3069 2.36016C48.2769 7.60016 48.2969 12.1302 48.6269 17.6102C49.5269 32.7968 49.8702 47.9935 49.6569 63.2001C49.6169 65.7201 48.9169 68.2101 49.0569 70.6201C49.3435 75.4668 48.9902 80.2668 47.9969 85.0201Z" fill="#FE6E59"/>
<path d="M47.9969 85.0203C49.5702 85.9736 50.8569 87.2436 51.8569 88.8303C52.032 89.1095 52.1126 89.4356 52.0869 89.7603C51.8269 93.5269 49.8902 95.4369 46.2769 95.4902C34.8036 95.6569 23.3269 95.377 11.8469 94.6503C8.12692 94.4103 -0.0730906 93.2503 1.11691 87.4803C1.56358 85.327 2.94025 83.7569 5.24691 82.7703C13.2869 82.3103 22.0369 80.9403 29.9769 82.4103C36.1169 83.5403 41.7669 82.9403 47.9969 85.0203Z" fill="#151E30"/>
</svg>
