<svg width="115" height="121" viewBox="0 0 115 121" fill="none" xmlns="http://www.w3.org/2000/svg">
<path d="M39.7431 4.125C22.0431 9.815 8.66313 22.435 3.45312 40.165" stroke="#A2DBD8" stroke-width="2"/>
<path d="M3.45333 40.165C-5.77667 68.605 12.1433 101.755 38.6933 113.195C47.6333 117.045 61.8333 122.545 70.8533 117.325C74 115.512 75.6633 114.562 75.8433 114.475C99.2733 102.945 118.943 71.495 111.713 45.465C105.347 22.545 90.9833 8.25496 68.6233 2.59496C58.4733 0.0349594 49.3133 0.564989 39.7433 4.12499" stroke="#AFE3E0" stroke-width="2"/>
<path d="M3.45312 40.165C3.58646 41.165 4.08312 41.595 4.94312 41.455C5.0854 41.4333 5.2248 41.3712 5.34993 41.2739C5.47506 41.1766 5.58237 41.0467 5.66312 40.895C6.46978 39.435 7.06312 37.8916 7.44312 36.265C9.33312 28.045 19.2131 17.145 27.5331 12.455C30.9131 10.545 35.8031 8.915 39.8331 7.185C39.9875 7.1189 40.1251 7.02605 40.237 6.91241C40.3489 6.79878 40.4327 6.66682 40.4831 6.52496C40.8231 5.52496 40.5765 4.725 39.7431 4.125" stroke="#51BEB9" stroke-width="2"/>
<path d="M54.454 77.165C55.514 82.965 55.8373 87.5284 55.424 90.855C54.3573 99.4817 53.8307 108.082 53.844 116.655C53.8438 117.018 53.9844 117.367 54.2362 117.628C54.488 117.889 54.8314 118.042 55.194 118.055C62.384 118.325 68.774 119.715 73.424 112.875C75.114 110.385 75.114 107.195 75.434 104.165C75.4498 104.011 75.4982 103.863 75.5758 103.73C75.6535 103.598 75.7586 103.483 75.884 103.395C78.804 101.395 81.634 101.595 82.604 97.5051" stroke="#2F6360" stroke-width="2"/>
<path d="M82.6047 97.5053C85.6181 95.9253 87.8614 93.5519 89.3347 90.3852C89.4651 90.0924 89.6855 89.8475 89.9647 89.6853C94.8781 86.8386 97.0381 82.7385 96.4447 77.3852C95.7647 71.2152 88.7647 68.2452 87.4747 62.3452C87.4414 62.2028 87.449 62.0524 87.4965 61.9099C87.544 61.7673 87.6298 61.6379 87.7447 61.5352C91.0914 58.5486 93.0814 56.5686 93.7147 55.5952C96.4547 51.3952 97.1747 41.8552 92.3847 37.9152C92.1512 37.7268 91.9722 37.4355 91.8748 37.0852C90.8014 33.2852 88.2448 31.0752 84.2048 30.4552C84.0775 30.4362 83.9366 30.4542 83.7928 30.5079C83.649 30.5616 83.506 30.6496 83.3748 30.7652C81.7814 32.1919 79.9581 33.0919 77.9048 33.4652C73.8748 34.1952 72.4448 34.8253 69.2348 32.3653C66.5748 30.3253 63.9581 28.1719 61.3847 25.9052C61.1397 25.6857 60.8274 25.5616 60.5047 25.5553C49.1647 25.3953 43.6847 32.8753 36.3547 38.4853C32.5881 41.3653 30.4247 45.0119 29.8647 49.4253C28.8447 57.4153 40.2747 65.7653 46.2747 70.1953C48.1547 71.5753 49.4247 73.5652 50.9147 75.3452C51.0484 75.5031 51.1584 75.6589 51.2338 75.7974C51.3092 75.936 51.3474 76.0524 51.3448 76.1352C51.2848 77.8485 52.0881 78.6052 53.7547 78.4052C53.8753 78.391 53.9871 78.3555 54.0684 78.3056C54.1498 78.2557 54.1948 78.1949 54.1947 78.1352C54.2014 77.8019 54.2881 77.4786 54.4548 77.1652" stroke="#6CC8C3" stroke-width="2"/>
<path d="M82.6042 97.5049L82.0542 89.6249C82.0449 89.483 82.0807 89.34 82.1572 89.2137C82.2337 89.0875 82.3474 88.9835 82.4842 88.9149C87.1442 86.5749 94.1242 84.6449 92.8542 77.9749C91.6142 71.4649 83.1042 67.8049 84.3842 60.6949C84.4123 60.5467 84.4739 60.4036 84.5651 60.2746C84.6563 60.1456 84.7751 60.0334 84.9142 59.9449C88.4742 57.7149 91.8142 54.5948 91.9842 50.0748C92.1242 46.2248 92.0042 42.1949 90.0242 38.8549C86.2642 32.5215 81.2242 32.0449 74.9042 37.4249C74.6527 37.6508 74.3437 37.7787 74.0342 37.7849C68.0042 37.9849 64.8142 32.0349 61.2342 28.4349C59.8742 27.0682 58.2942 26.8115 56.4942 27.6649C51.8209 29.8715 47.8409 32.9815 44.5542 36.9949C44.2809 37.3349 44.0242 37.5482 43.7842 37.6348C39.9909 39.1148 37.1509 41.2215 35.2642 43.9548C27.0942 55.7948 43.5342 67.4049 52.8242 70.9249C52.9743 70.9828 53.1064 71.0738 53.2079 71.1893C53.3095 71.3049 53.377 71.441 53.4042 71.5848L54.4542 77.1649" stroke="#3D6563" stroke-width="2"/>
<path d="M84.464 57.0048C90.674 52.0048 92.164 35.6447 80.314 36.7647C80.009 36.7907 79.7037 36.9276 79.444 37.1547C72.194 43.3947 65.714 37.5547 61.304 31.8547C56.394 25.5047 46.334 38.9048 42.164 41.0048C37.704 43.2514 35.5174 47.068 35.604 52.4547C35.6307 54.0614 36.2074 55.4381 37.334 56.5847C38.9274 58.2047 40.524 59.8248 42.124 61.4448C46.634 65.9948 55.474 67.0147 57.054 74.4147C59.704 86.8947 55.644 100.595 56.124 114.315C56.1298 114.453 56.1841 114.585 56.2773 114.687C56.3706 114.79 56.4968 114.856 56.634 114.875C64.044 115.945 73.054 115.585 73.524 105.945C73.734 101.675 76.794 100.565 79.044 97.8547C79.1884 97.679 79.3052 97.504 79.3863 97.3417C79.4675 97.1794 79.5111 97.0337 79.514 96.9147L79.664 91.1047C79.724 89.0047 80.5707 87.4281 82.204 86.3748C84.714 84.7548 89.604 82.4547 89.824 78.8947C90.234 72.0947 74.484 65.0448 84.464 57.0048Z" stroke="#0E101B" stroke-width="2"/>
<path d="M3.45723 40.165C3.59057 41.165 4.08722 41.5949 4.94722 41.4549C5.08951 41.4332 5.22891 41.3712 5.35404 41.2739C5.47917 41.1766 5.58648 41.0467 5.66723 40.8949C6.47389 39.4349 7.06722 37.8916 7.44722 36.2649C9.33722 28.0449 19.2172 17.1449 27.5372 12.4549C30.9172 10.5449 35.8072 8.91499 39.8372 7.18499C39.9916 7.11889 40.1292 7.02604 40.2411 6.9124C40.353 6.79877 40.4368 6.66681 40.4872 6.52495C40.8272 5.52495 40.5806 4.72499 39.7472 4.12499C49.3172 0.564989 58.4772 0.0349594 68.6272 2.59496C90.9872 8.25496 105.351 22.545 111.717 45.465C118.947 71.495 99.2772 102.945 75.8472 114.475C75.6672 114.562 74.0039 115.512 70.8572 117.325C61.8372 122.545 47.6372 117.045 38.6972 113.195C12.1472 101.755 -5.77277 68.605 3.45723 40.165ZM54.4572 77.165C55.5172 82.965 55.8406 87.5283 55.4272 90.855C54.3606 99.4816 53.8339 108.082 53.8472 116.655C53.847 117.018 53.9876 117.367 54.2394 117.628C54.4913 117.889 54.8347 118.042 55.1972 118.055C62.3872 118.325 68.7772 119.715 73.4272 112.875C75.1172 110.385 75.1172 107.195 75.4372 104.165C75.4531 104.011 75.5014 103.863 75.5791 103.73C75.6567 103.598 75.7618 103.483 75.8872 103.395C78.8072 101.395 81.6372 101.595 82.6072 97.505C85.6206 95.925 87.8639 93.5516 89.3372 90.3849C89.4676 90.0921 89.688 89.8473 89.9672 89.685C94.8806 86.8383 97.0406 82.7383 96.4472 77.3849C95.7672 71.2149 88.7672 68.245 87.4772 62.345C87.4439 62.2025 87.4514 62.0521 87.499 61.9096C87.5465 61.767 87.6322 61.6376 87.7472 61.535C91.0939 58.5483 93.0839 56.5683 93.7172 55.595C96.4572 51.395 97.1772 41.855 92.3872 37.915C92.1537 37.7265 91.9747 37.4352 91.8772 37.0849C90.8039 33.285 88.2472 31.0749 84.2072 30.4549C84.0799 30.4359 83.9391 30.4539 83.7953 30.5076C83.6515 30.5613 83.5085 30.6493 83.3772 30.7649C81.7839 32.1916 79.9606 33.0916 77.9072 33.465C73.8772 34.195 72.4472 34.825 69.2372 32.365C66.5772 30.325 63.9606 28.1716 61.3872 25.905C61.1422 25.6855 60.8299 25.5613 60.5072 25.555C49.1672 25.395 43.6872 32.875 36.3572 38.485C32.5906 41.365 30.4272 45.0116 29.8672 49.425C28.8472 57.415 40.2772 65.765 46.2772 70.195C48.1572 71.575 49.4272 73.565 50.9172 75.345C51.0509 75.5028 51.1608 75.6586 51.2362 75.7972C51.3116 75.9357 51.3499 76.0521 51.3472 76.1349C51.2872 77.8483 52.0906 78.605 53.7572 78.405C53.8778 78.3907 53.9896 78.3552 54.0709 78.3053C54.1522 78.2554 54.1973 78.1947 54.1972 78.1349C54.2039 77.8016 54.2906 77.4783 54.4572 77.165Z" fill="#5EC6C0"/>
<path d="M39.747 4.125C40.5804 4.725 40.827 5.52496 40.487 6.52496C40.4366 6.66682 40.3528 6.79878 40.2409 6.91241C40.129 7.02605 39.9914 7.1189 39.837 7.185C35.807 8.915 30.917 10.545 27.537 12.455C19.217 17.145 9.33702 28.045 7.44702 36.265C7.06702 37.8916 6.47369 39.435 5.66702 40.895C5.58627 41.0467 5.47896 41.1766 5.35384 41.2739C5.22871 41.3712 5.08931 41.4333 4.94702 41.455C4.08702 41.595 3.59036 41.165 3.45703 40.165C8.66703 22.435 22.047 9.815 39.747 4.125Z" fill="#44B6B1"/>
<path d="M82.6047 97.5053L82.0547 89.6253C82.0454 89.4834 82.0813 89.3404 82.1577 89.2141C82.2342 89.0878 82.348 88.9839 82.4848 88.9152C87.1448 86.5752 94.1247 84.6452 92.8547 77.9752C91.6147 71.4652 83.1047 67.8053 84.3847 60.6953C84.4129 60.5471 84.4744 60.404 84.5656 60.275C84.6568 60.146 84.7756 60.0337 84.9147 59.9453C88.4747 57.7153 91.8148 54.5952 91.9848 50.0752C92.1248 46.2252 92.0047 42.1952 90.0247 38.8552C86.2647 32.5219 81.2248 32.0453 74.9048 37.4253C74.6533 37.6512 74.3443 37.7791 74.0347 37.7852C68.0047 37.9852 64.8148 32.0353 61.2348 28.4353C59.8748 27.0686 58.2947 26.8119 56.4947 27.6652C51.8214 29.8719 47.8414 32.9819 44.5547 36.9953C44.2814 37.3353 44.0247 37.5485 43.7847 37.6352C39.9914 39.1152 37.1514 41.2219 35.2648 43.9552C27.0948 55.7952 43.5347 67.4053 52.8247 70.9253C52.9749 70.9832 53.107 71.0742 53.2085 71.1897C53.31 71.3052 53.3776 71.4414 53.4048 71.5852L54.4548 77.1652C54.2881 77.4786 54.2014 77.8019 54.1947 78.1352C54.1948 78.1949 54.1498 78.2557 54.0684 78.3056C53.9871 78.3555 53.8753 78.391 53.7547 78.4052C52.0881 78.6052 51.2848 77.8485 51.3448 76.1352C51.3474 76.0524 51.3092 75.936 51.2338 75.7974C51.1584 75.6589 51.0484 75.5031 50.9147 75.3452C49.4247 73.5652 48.1547 71.5753 46.2747 70.1953C40.2747 65.7653 28.8447 57.4153 29.8647 49.4253C30.4247 45.0119 32.5881 41.3653 36.3547 38.4853C43.6847 32.8753 49.1647 25.3953 60.5047 25.5553C60.8274 25.5616 61.1397 25.6857 61.3847 25.9052C63.9581 28.1719 66.5748 30.3253 69.2348 32.3653C72.4448 34.8253 73.8748 34.1952 77.9048 33.4652C79.9581 33.0919 81.7814 32.1919 83.3748 30.7652C83.506 30.6496 83.649 30.5616 83.7928 30.5079C83.9366 30.4542 84.0774 30.4362 84.2048 30.4552C88.2448 31.0752 90.8014 33.2852 91.8748 37.0852C91.9722 37.4355 92.1512 37.7268 92.3847 37.9152C97.1747 41.8552 96.4548 51.3952 93.7147 55.5952C93.0814 56.5686 91.0914 58.5486 87.7447 61.5352C87.6298 61.6379 87.544 61.7673 87.4965 61.9099C87.449 62.0524 87.4414 62.2028 87.4747 62.3452C88.7647 68.2452 95.7647 71.2152 96.4447 77.3852C97.0381 82.7385 94.8781 86.8386 89.9647 89.6853C89.6855 89.8475 89.4651 90.0924 89.3347 90.3852C87.8614 93.5519 85.6181 95.9253 82.6047 97.5053Z" fill="#7AC9C6"/>
<path d="M82.6042 97.5054C81.6342 101.595 78.8042 101.395 75.8842 103.395C75.7588 103.483 75.6537 103.598 75.5761 103.731C75.4984 103.864 75.4501 104.012 75.4342 104.165C75.1142 107.195 75.1142 110.385 73.4242 112.875C68.7742 119.715 62.3842 118.325 55.1942 118.055C54.8316 118.042 54.4883 117.889 54.2364 117.628C53.9846 117.367 53.844 117.018 53.8442 116.655C53.8309 108.082 54.3575 99.482 55.4242 90.8553C55.8375 87.5287 55.5142 82.9653 54.4542 77.1653L53.4042 71.5853C53.377 71.4415 53.3095 71.3053 53.2079 71.1898C53.1064 71.0743 52.9743 70.9833 52.8242 70.9254C43.5342 67.4054 27.0942 55.7953 35.2642 43.9553C37.1509 41.222 39.9909 39.1153 43.7842 37.6353C44.0242 37.5486 44.2809 37.3354 44.5542 36.9954C47.8409 32.982 51.8209 29.872 56.4942 27.6653C58.2942 26.812 59.8742 27.0687 61.2342 28.4354C64.8142 32.0354 68.0042 37.9853 74.0342 37.7853C74.3437 37.7792 74.6527 37.6513 74.9042 37.4254C81.2242 32.0454 86.2642 32.522 90.0242 38.8553C92.0042 42.1953 92.1242 46.2253 91.9842 50.0753C91.8142 54.5953 88.4742 57.7154 84.9142 59.9454C84.7751 60.0338 84.6563 60.1461 84.5651 60.2751C84.4739 60.4041 84.4123 60.5472 84.3842 60.6954C83.1042 67.8054 91.6142 71.4653 92.8542 77.9753C94.1242 84.6453 87.1442 86.5753 82.4842 88.9153C82.3475 88.984 82.2337 89.0879 82.1572 89.2142C82.0807 89.3405 82.0449 89.4835 82.0542 89.6254L82.6042 97.5054ZM84.4642 57.0054C90.6742 52.0054 92.1642 35.6453 80.3142 36.7653C80.0091 36.7913 79.7039 36.9282 79.4442 37.1553C72.1942 43.3953 65.7142 37.5553 61.3042 31.8553C56.3942 25.5053 46.3342 38.9054 42.1642 41.0054C37.7042 43.252 35.5175 47.0687 35.6042 52.4553C35.6309 54.062 36.2075 55.4387 37.3342 56.5853C38.9275 58.2053 40.5242 59.8254 42.1242 61.4454C46.6342 65.9954 55.4742 67.0153 57.0542 74.4153C59.7042 86.8953 55.6442 100.595 56.1242 114.315C56.13 114.454 56.1843 114.586 56.2775 114.688C56.3707 114.79 56.497 114.857 56.6342 114.875C64.0442 115.945 73.0542 115.585 73.5242 105.945C73.7342 101.675 76.7942 100.565 79.0442 97.8553C79.1886 97.6796 79.3054 97.5046 79.3865 97.3423C79.4677 97.18 79.5112 97.0343 79.5142 96.9153L79.6642 91.1053C79.7242 89.0053 80.5709 87.4287 82.2042 86.3754C84.7142 84.7554 89.6042 82.4553 89.8242 78.8953C90.2342 72.0953 74.4842 65.0454 84.4642 57.0054Z" fill="black"/>
<path d="M84.4679 57.0057C74.4879 65.0457 90.2379 72.0957 89.8279 78.8957C89.6079 82.4557 84.718 84.7557 82.208 86.3757C80.5746 87.4291 79.7279 89.0057 79.6679 91.1057L79.518 96.9157C79.515 97.0347 79.4714 97.1804 79.3903 97.3427C79.3091 97.5049 79.1923 97.68 79.048 97.8557C76.798 100.566 73.7379 101.676 73.5279 105.946C73.0579 115.586 64.0479 115.946 56.6379 114.876C56.5007 114.857 56.3745 114.791 56.2812 114.688C56.188 114.586 56.1337 114.454 56.128 114.316C55.648 100.596 59.7079 86.8957 57.0579 74.4157C55.4779 67.0157 46.638 65.9957 42.128 61.4457C40.528 59.8257 38.9313 58.2057 37.3379 56.5857C36.2113 55.439 35.6346 54.0624 35.6079 52.4557C35.5213 47.069 37.7079 43.2524 42.1679 41.0057C46.3379 38.9057 56.3979 25.5057 61.3079 31.8557C65.7179 37.5557 72.1979 43.3957 79.4479 37.1557C79.7076 36.9286 80.0129 36.7917 80.318 36.7657C92.168 35.6457 90.6779 52.0057 84.4679 57.0057Z" fill="#1B2035"/>
</svg>
