<svg width="91" height="77" viewBox="0 0 91 77" fill="none" xmlns="http://www.w3.org/2000/svg">
<path d="M35.4579 36.5006C35.6365 36.5735 35.793 36.6907 35.9134 36.842C36.0338 36.9932 36.1145 37.1739 36.1481 37.3678C36.1817 37.5617 36.1674 37.7629 36.1063 37.9535C36.0452 38.1442 35.9392 38.3184 35.7979 38.4606C29.1512 45.2339 22.8545 51.6839 16.9079 57.8106C11.9879 62.8806 6.34785 70.1806 15.3678 74.8306C17.0345 75.6906 18.6545 75.6139 20.2278 74.6006C21.7612 73.6073 23.3445 72.0373 24.9778 69.8906C32.6845 59.7639 41.0145 50.2739 49.9678 41.4206C50.1541 41.2373 50.3845 41.1051 50.6367 41.0368C50.889 40.9685 51.1545 40.9664 51.4078 41.0306C62.8378 44.0106 73.9679 47.6106 85.9279 47.3406C87.5012 47.3073 88.5312 46.5439 89.0179 45.0506C90.6179 40.1306 88.9279 37.1106 83.9479 35.9906C76.9479 34.4106 70.0812 32.8973 63.3478 31.4506C61.6145 31.0839 61.4512 30.3606 62.8579 29.2806C70.1979 23.6473 77.3212 17.7673 84.2279 11.6406C87.6479 8.6006 84.9278 4.3306 82.5278 1.8306C82.4288 1.72536 82.2972 1.657 82.1552 1.63697C82.0131 1.61694 81.8693 1.64648 81.7478 1.72062C79.7778 2.89062 78.0979 4.75061 76.3979 5.87061C66.4445 12.4106 57.0079 19.6573 48.0879 27.6106C47.9716 27.7141 47.8335 27.791 47.6833 27.8359C47.533 27.8808 47.3742 27.8927 47.2178 27.8706C43.5178 27.3373 40.6379 26.7006 38.5779 25.9606C28.8079 22.4406 12.4178 15.1506 4.69785 17.4606C4.38965 17.5509 4.11399 17.7764 3.92785 18.0906L1.37786 22.3506C0.457857 23.8839 1.21786 24.9839 3.65786 25.6506C14.4779 28.5906 25.0779 32.2073 35.4579 36.5006Z" stroke="#8B8EA0" stroke-width="2"/>
<path d="M35.4579 36.5006C25.0779 32.2073 14.4779 28.5906 3.65786 25.6506C1.21786 24.9839 0.457857 23.8839 1.37786 22.3506L3.92785 18.0906C4.11399 17.7764 4.38965 17.5509 4.69785 17.4606C12.4178 15.1506 28.8079 22.4406 38.5779 25.9606C40.6379 26.7006 43.5178 27.3373 47.2178 27.8706C47.3742 27.8927 47.533 27.8808 47.6833 27.8359C47.8335 27.791 47.9716 27.7141 48.0879 27.6106C57.0079 19.6573 66.4445 12.4106 76.3979 5.87061C78.0979 4.75061 79.7778 2.89062 81.7478 1.72062C81.8693 1.64648 82.0131 1.61694 82.1552 1.63697C82.2972 1.657 82.4287 1.72536 82.5278 1.8306C84.9278 4.3306 87.6479 8.6006 84.2279 11.6406C77.3212 17.7673 70.1979 23.6473 62.8579 29.2806C61.4512 30.3606 61.6145 31.0839 63.3478 31.4506C70.0812 32.8973 76.9479 34.4106 83.9479 35.9906C88.9279 37.1106 90.6179 40.1306 89.0179 45.0506C88.5312 46.5439 87.5012 47.3073 85.9279 47.3406C73.9679 47.6106 62.8378 44.0106 51.4078 41.0306C51.1545 40.9664 50.889 40.9685 50.6367 41.0368C50.3845 41.1051 50.1541 41.2373 49.9678 41.4206C41.0145 50.2739 32.6845 59.7639 24.9778 69.8906C23.3445 72.0373 21.7612 73.6073 20.2278 74.6006C18.6545 75.6139 17.0345 75.6906 15.3678 74.8306C6.34785 70.1806 11.9879 62.8806 16.9079 57.8106C22.8545 51.6839 29.1512 45.2339 35.7979 38.4606C35.9392 38.3184 36.0452 38.1442 36.1063 37.9535C36.1674 37.7629 36.1817 37.5617 36.1481 37.3678C36.1145 37.1739 36.0338 36.9932 35.9134 36.842C35.793 36.6907 35.6365 36.5735 35.4579 36.5006Z" fill="#181D42"/>
</svg>
