<svg width="51" height="56" viewBox="0 0 51 56" fill="none" xmlns="http://www.w3.org/2000/svg">
<path d="M2.49132 37.1035C4.48132 44.5535 10.7514 53.0235 18.7814 54.5335C39.6314 58.4535 55.3713 35.9635 46.8713 17.2735C41.818 6.15349 33.338 1.03016 21.4313 1.9035C18.1513 2.1435 14.0413 4.0635 11.8113 6.1235C2.40466 14.7968 -0.702017 25.1235 2.49132 37.1035Z" stroke="#A6C3C7" stroke-width="2"/>
<path d="M18.7814 54.534C10.7514 53.024 4.48132 44.554 2.49132 37.104C-0.702017 25.124 2.40466 14.7973 11.8113 6.12399C14.0413 4.06399 18.1513 2.14399 21.4313 1.90399C33.338 1.03065 41.818 6.15398 46.8713 17.274C55.3713 35.964 39.6314 58.454 18.7814 54.534Z" fill="#4E8791"/>
</svg>
