<svg width="66" height="137" viewBox="0 0 66 137" fill="none" xmlns="http://www.w3.org/2000/svg">
<path d="M25.5186 102.038C25.1253 105.458 24.2787 115.295 22.9787 131.548C22.7187 134.728 23.9787 135.931 26.7587 135.158C26.9097 135.114 27.0478 135.035 27.161 134.927C27.2743 134.819 27.3593 134.686 27.4087 134.538C27.922 133.045 28.1987 131.211 28.2387 129.038C28.3587 121.865 28.8387 112.131 29.6787 99.8379" stroke="#9390A2" stroke-width="2"/>
<path d="M29.6786 99.8378C39.3586 85.4912 47.842 70.4979 55.1287 54.8579C57.7087 49.3179 67.0587 28.1778 63.5087 23.0578C59.2987 16.9878 52.1086 32.6678 51.0286 35.0978C47.1019 43.8912 43.0286 53.7012 38.8086 64.5278C38.282 65.8745 37.6219 66.1945 36.8286 65.4879C36.6034 65.2886 36.4537 64.9821 36.4086 64.6278C36.142 62.4745 36.0953 60.6312 36.2686 59.0978C36.5386 56.7978 44.0686 -7.94214 34.7286 2.04786C31.5486 5.44786 29.5086 15.4978 28.7386 20.0878C26.3986 33.9212 24.2953 47.7878 22.4286 61.6878C21.6286 67.6278 18.8186 57.9278 18.6586 57.0078C16.9586 47.1145 15.012 37.2712 12.8187 27.4778C11.912 23.4445 10.5353 19.6012 8.68865 15.9478C6.75865 12.1378 2.47865 11.5878 1.56865 16.5278C-0.071348 25.3778 2.13863 37.0878 4.35863 45.7578C8.09863 60.4312 12.832 74.7745 18.5586 88.7878C20.3886 93.2778 23.2186 97.5478 25.5186 102.038" stroke="#FEB7A6" stroke-width="2"/>
<path d="M29.6796 99.8366C28.1496 97.3666 26.2895 101.267 25.5195 102.037" stroke="#934B5A" stroke-width="2"/>
<path d="M29.6786 99.8369C28.1486 97.3669 26.2886 101.267 25.5186 102.037C23.2186 97.5469 20.3886 93.2769 18.5586 88.7869C12.832 74.7735 8.09863 60.4302 4.35863 45.7569C2.13863 37.0869 -0.071348 25.3769 1.56865 16.5269C2.47865 11.5869 6.75865 12.1369 8.68865 15.9469C10.5353 19.6002 11.912 23.4435 12.8187 27.4769C15.012 37.2702 16.9586 47.1135 18.6586 57.0069C18.8186 57.9269 21.6286 67.6269 22.4286 61.6869C24.2953 47.7869 26.3986 33.9202 28.7386 20.0869C29.5086 15.4969 31.5486 5.44688 34.7286 2.04688C44.0686 -7.94312 36.5386 56.7969 36.2686 59.0969C36.0953 60.6302 36.142 62.4735 36.4086 64.6269C36.4537 64.9811 36.6034 65.2876 36.8286 65.4869C37.6219 66.1936 38.282 65.8735 38.8086 64.5269C43.0286 53.7002 47.1019 43.8902 51.0286 35.0969C52.1086 32.6669 59.2987 16.9869 63.5087 23.0569C67.0587 28.1769 57.7086 49.3169 55.1287 54.8569C47.842 70.4969 39.3586 85.4902 29.6786 99.8369Z" fill="#FE725E"/>
<path d="M29.6787 99.8366C28.8387 112.13 28.3587 121.863 28.2387 129.037C28.1987 131.21 27.922 133.043 27.4087 134.537C27.3593 134.684 27.2743 134.818 27.161 134.926C27.0478 135.034 26.9097 135.113 26.7587 135.157C23.9787 135.93 22.7187 134.727 22.9787 131.547C24.2787 115.293 25.1253 105.457 25.5186 102.037C26.2886 101.267 28.1487 97.3666 29.6787 99.8366Z" fill="#282455"/>
</svg>
