<svg width="81" height="181" viewBox="0 0 81 181" fill="none" xmlns="http://www.w3.org/2000/svg">
<path d="M38.7022 47.5952C36.4089 54.9352 33.5889 61.9986 30.2422 68.7852" stroke="#FBB5A0" stroke-width="2"/>
<path d="M30.2424 68.7852C25.9024 79.9985 23.0058 91.5518 21.5524 103.445C20.4924 112.155 21.5324 123.505 20.9024 131.335C20.1824 140.355 19.5524 149.272 19.0124 158.085C18.9908 158.444 18.8888 158.794 18.714 159.109C18.5393 159.424 18.2962 159.696 18.0024 159.905C12.8291 163.525 7.88241 167.418 3.16241 171.585C1.22241 173.295 -0.0275462 175.275 2.14245 177.385C2.25735 177.496 2.40769 177.565 2.56921 177.579C2.73074 177.594 2.89394 177.554 3.03241 177.465C10.8457 172.585 18.2991 167.208 25.3925 161.335C25.5002 161.247 25.5945 161.121 25.67 160.967C25.7455 160.813 25.8007 160.632 25.8325 160.435C27.6791 149.129 28.6491 142.118 28.7424 139.405C29.1224 128.235 29.1824 115.825 31.4724 104.895C31.5162 104.688 31.6018 104.499 31.7126 104.366C31.8233 104.234 31.9515 104.165 32.0724 104.175L37.0024 104.665C37.2351 104.686 37.45 104.821 37.6027 105.043C37.7553 105.264 37.834 105.555 37.8224 105.855C37.5224 115.175 37.2824 124.035 39.5724 133.175C42.2258 143.769 44.8357 154.392 47.4024 165.045C47.5064 165.481 47.4835 165.938 47.3365 166.361C47.1894 166.785 46.9243 167.157 46.5724 167.435C43.5391 169.802 40.4358 172.232 37.2624 174.725C35.3924 176.195 34.0724 178.005 36.6324 179.765C36.7759 179.864 36.9435 179.918 37.1119 179.92C37.2804 179.922 37.4414 179.871 37.5724 179.775L53.3925 168.035C53.6616 167.836 53.8698 167.539 53.9948 167.174C54.1198 166.81 54.157 166.392 54.1024 165.965C52.7224 155.198 50.6757 144.452 47.9624 133.725C45.3724 123.425 47.2624 112.235 48.9424 101.815C50.4924 92.2251 53.4724 82.3152 56.2024 72.6552" stroke="#8E9094" stroke-width="2"/>
<path d="M56.2031 72.6553C57.6898 67.4886 59.0998 62.3019 60.4331 57.0953C60.6531 56.2219 61.2431 55.7419 62.2031 55.6553" stroke="#FBB5A0" stroke-width="2"/>
<path d="M62.2017 55.6555C62.3883 65.5088 62.3083 75.3588 61.9616 85.2054C61.7416 91.4354 59.3217 96.6555 56.5017 101.965C55.835 103.219 56.1783 104.065 57.5316 104.505C64.8516 106.895 68.2817 91.2054 68.8117 86.5754C69.5517 80.1054 70.5316 73.6855 71.4716 67.2455C74.0816 49.3955 74.0617 41.2854 57.0117 32.6254C56.9337 32.5866 56.8672 32.5282 56.8187 32.4558C56.7703 32.3833 56.7417 32.2995 56.7356 32.2126C56.7295 32.1258 56.7463 32.0388 56.7842 31.9603C56.8221 31.8819 56.8798 31.8147 56.9517 31.7654C57.925 31.0854 59.085 30.9521 60.4317 31.3655C80.5817 37.5055 88.6617 3.33548 67.1317 1.11548C50.0017 -0.644521 43.9217 18.1255 54.3117 29.3055C55.2217 30.2855 55.0916 31.8054 53.2816 31.5054C42.7816 29.7954 36.3316 33.8154 29.6116 42.0754C18.7416 55.4154 6.17166 72.6555 3.69166 89.1555C3.43166 90.8955 4.16501 91.9421 5.89168 92.2955C8.85168 92.9055 9.54166 91.2954 10.0017 88.6954C10.795 84.1954 12.145 80.4521 14.0517 77.4655C18.0783 71.1855 24.7383 61.7654 34.0316 49.2054C34.485 48.5921 35.7717 47.4221 37.8917 45.6954C37.9416 45.6553 37.9996 45.6262 38.0612 45.6103C38.1229 45.5944 38.1866 45.5922 38.2474 45.6038C38.3082 45.6153 38.3645 45.6404 38.4121 45.6771C38.4596 45.7138 38.4971 45.7611 38.5217 45.8154C38.755 46.3488 38.815 46.9421 38.7017 47.5955" stroke="#8E9094" stroke-width="2"/>
<path d="M62.2031 55.6552C53.9698 53.8152 46.1365 51.1285 38.7031 47.5952" stroke="#8A4634" stroke-width="2"/>
<path d="M56.2022 72.6552C47.3722 69.8052 38.8622 71.0352 30.2422 68.7852" stroke="#8A4634" stroke-width="2"/>
<path d="M62.2017 55.6559C53.9683 53.8159 46.135 51.1293 38.7017 47.5959C38.815 46.9426 38.755 46.3493 38.5217 45.8159C38.4971 45.7616 38.4596 45.7143 38.4121 45.6776C38.3645 45.6409 38.3082 45.6158 38.2474 45.6042C38.1866 45.5927 38.1229 45.5949 38.0612 45.6108C37.9996 45.6267 37.9416 45.6558 37.8917 45.6959C35.7717 47.4226 34.485 48.5926 34.0316 49.2059C24.7383 61.7659 18.0783 71.1859 14.0517 77.4659C12.145 80.4526 10.795 84.1959 10.0017 88.6959C9.54166 91.2959 8.85168 92.906 5.89168 92.296C4.16501 91.9426 3.43166 90.8959 3.69166 89.1559C6.17166 72.6559 18.7416 55.4159 29.6116 42.0759C36.3316 33.8159 42.7816 29.7959 53.2816 31.5059C55.0916 31.8059 55.2217 30.286 54.3117 29.306C43.9217 18.126 50.0017 -0.644032 67.1317 1.11597C88.6617 3.33597 80.5817 37.506 60.4317 31.366C59.085 30.9526 57.925 31.0859 56.9517 31.7659C56.8798 31.8152 56.8221 31.8824 56.7842 31.9608C56.7463 32.0392 56.7295 32.1262 56.7356 32.2131C56.7417 32.3 56.7703 32.3838 56.8187 32.4562C56.8672 32.5287 56.9337 32.5871 57.0117 32.6259C74.0617 41.2859 74.0816 49.396 71.4716 67.246C70.5316 73.686 69.5517 80.1059 68.8117 86.5759C68.2817 91.2059 64.8516 106.896 57.5316 104.506C56.1783 104.066 55.835 103.219 56.5017 101.966C59.3217 96.6559 61.7416 91.4359 61.9616 85.2059C62.3083 75.3593 62.3883 65.5093 62.2017 55.6559Z" fill="#1D2128"/>
<path d="M38.7022 47.5957C46.1355 51.129 53.9689 53.8157 62.2022 55.6557C61.2422 55.7424 60.6522 56.2224 60.4322 57.0957C59.0989 62.3024 57.6889 67.489 56.2022 72.6557C47.3722 69.8057 38.8622 71.0357 30.2422 68.7857C33.5889 61.999 36.4089 54.9357 38.7022 47.5957Z" fill="#F76A40"/>
<path d="M30.2424 68.7856C38.8624 71.0356 47.3725 69.8056 56.2024 72.6556C53.4725 82.3156 50.4924 92.2256 48.9424 101.816C47.2624 112.236 45.3724 123.426 47.9624 133.726C50.6757 144.452 52.7224 155.199 54.1024 165.966C54.157 166.392 54.1198 166.81 53.9948 167.175C53.8698 167.539 53.6616 167.837 53.3925 168.036L37.5724 179.776C37.4414 179.872 37.2804 179.922 37.1119 179.921C36.9435 179.919 36.7759 179.865 36.6324 179.766C34.0724 178.006 35.3924 176.196 37.2624 174.726C40.4358 172.232 43.5391 169.802 46.5724 167.436C46.9243 167.158 47.1894 166.785 47.3365 166.362C47.4835 165.938 47.5064 165.482 47.4024 165.046C44.8357 154.392 42.2258 143.769 39.5724 133.176C37.2824 124.036 37.5224 115.176 37.8224 105.856C37.834 105.556 37.7553 105.265 37.6027 105.043C37.45 104.822 37.2351 104.687 37.0024 104.666L32.0724 104.176C31.9515 104.166 31.8233 104.234 31.7126 104.367C31.6018 104.5 31.5162 104.688 31.4724 104.896C29.1824 115.826 29.1224 128.236 28.7424 139.406C28.6491 142.119 27.6791 149.129 25.8325 160.436C25.8007 160.632 25.7455 160.813 25.67 160.967C25.5945 161.122 25.5002 161.247 25.3925 161.336C18.2991 167.209 10.8457 172.586 3.03241 177.466C2.89394 177.554 2.73074 177.594 2.56921 177.58C2.40769 177.565 2.25735 177.497 2.14245 177.386C-0.0275462 175.276 1.22241 173.296 3.16241 171.586C7.88241 167.419 12.8291 163.526 18.0024 159.906C18.2962 159.696 18.5393 159.424 18.714 159.109C18.8888 158.794 18.9908 158.445 19.0124 158.086C19.5525 149.272 20.1824 140.356 20.9024 131.336C21.5324 123.506 20.4924 112.156 21.5524 103.446C23.0058 91.5523 25.9024 79.999 30.2424 68.7856Z" fill="#1D2128"/>
</svg>
