<svg width="96" height="106" viewBox="0 0 96 106" fill="none" xmlns="http://www.w3.org/2000/svg">
<path d="M1.22639 48.2993C-0.313607 66.8526 6.00307 81.6293 20.1764 92.6293C30.6264 100.739 50.2664 108.099 63.5464 102.289" stroke="#FDE897" stroke-width="2"/>
<path d="M63.5469 102.29C65.2202 102.256 66.4535 101.576 67.2469 100.25" stroke="#AFE3E0" stroke-width="2"/>
<path d="M67.2461 100.249C70.0928 99.3094 72.8461 97.5728 75.5061 95.0394C85.4328 85.5861 91.4294 74.2961 93.4961 61.1694" stroke="#9FD7D3" stroke-width="2"/>
<path d="M93.4961 61.1696C94.3094 57.0162 94.7561 52.7229 94.8361 48.2896" stroke="#AFE3E0" stroke-width="2"/>
<path d="M94.8365 48.2895C93.9499 35.1295 88.8899 23.9129 79.6566 14.6395C60.0866 -5.02047 31.0866 -3.10048 13.7466 18.2895C7.00655 26.6095 2.83323 36.6129 1.22656 48.2995" stroke="#FFB5A8" stroke-width="2"/>
<path d="M94.8378 48.2895C91.1578 47.9695 87.5278 47.6095 83.9478 47.2095C73.6678 46.0495 62.9778 47.2595 52.7078 47.9195C52.3412 47.9385 52.023 48.06 51.8178 48.2595C51.5711 48.4995 51.3845 48.7728 51.2578 49.0795" stroke="#AF9889" stroke-width="2"/>
<path d="M51.2566 49.0795C41.8466 47.9895 33.3366 49.5495 28.3166 48.9995C19.5699 48.0395 10.5399 47.8062 1.22656 48.2995" stroke="#FD9D40" stroke-width="2"/>
<path d="M93.4961 61.1694C91.1628 66.1228 88.9261 71.1128 86.7861 76.1394C85.2594 79.7194 83.6194 82.6794 81.8661 85.0194C77.6394 90.6594 72.7661 95.7361 67.2461 100.249" stroke="#4EBAB4" stroke-width="2"/>
<path d="M63.5478 102.29L62.2478 95.8496C62.2271 95.7628 62.1923 95.6851 62.1487 95.6289C62.1052 95.5727 62.0556 95.5412 62.0078 95.5396L61.7478 95.5296C61.6806 95.5258 61.6142 95.5169 61.5526 95.5033C61.491 95.4896 61.4353 95.4716 61.3889 95.4503C61.3424 95.4289 61.3059 95.4046 61.2817 95.3787C61.2575 95.3528 61.246 95.3259 61.2478 95.2996C61.4345 92.5396 60.8545 89.9596 59.5078 87.5596C59.3249 87.2267 59.238 86.8757 59.2578 86.5496C59.5378 82.7496 57.9878 79.9196 57.5178 76.4696C57.2445 74.4562 56.8945 72.8696 56.4678 71.7096C54.2811 65.7763 52.8478 59.6662 52.1678 53.3796C52.0178 51.9596 51.3778 50.6196 51.2578 49.0796" stroke="#ADCB78" stroke-width="2"/>
<path d="M84.3763 54.7697C86.5763 55.1997 86.2363 52.4697 86.0463 51.2397C85.9947 50.9415 86.051 50.6211 86.2063 50.3297C86.7863 49.2363 86.0063 48.993 83.8663 49.5996C83.6347 49.6654 83.4149 49.7662 83.2205 49.8957C83.0261 50.0253 82.8613 50.1808 82.7364 50.3526C82.6116 50.5243 82.5294 50.7087 82.4949 50.894C82.4605 51.0793 82.4746 51.2617 82.5363 51.4297L83.5763 54.2097C83.6249 54.3402 83.7244 54.4607 83.8649 54.559C84.0054 54.6573 84.1818 54.73 84.3763 54.7697Z" stroke="#5D9CAC" stroke-width="2"/>
<path d="M42.9209 78.6066C43.3363 78.943 43.8194 79.1874 44.3426 79.3259C44.8658 79.4645 45.4189 79.4944 45.9703 79.4139C46.5218 79.3335 47.0607 79.1444 47.5564 78.8573C48.052 78.5702 48.4947 78.1908 48.8592 77.7407C49.5952 76.8318 49.9679 75.6902 49.8952 74.5671C49.8225 73.4441 49.3104 72.4315 48.4715 71.7522C48.0561 71.4159 47.573 71.1715 47.0498 71.0329C46.5266 70.8944 45.9735 70.8645 45.4221 70.9449C44.8706 71.0253 44.3317 71.2145 43.836 71.5016C43.3404 71.7887 42.8977 72.1681 42.5332 72.6181C41.7972 73.5271 41.4245 74.6687 41.4972 75.7917C41.5699 76.9148 42.082 77.9273 42.9209 78.6066Z" stroke="#7E6818" stroke-width="2"/>
<path d="M94.8405 48.2895C91.1605 47.9695 87.5305 47.6095 83.9505 47.2095C73.6705 46.0495 62.9805 47.2595 52.7105 47.9195C52.3439 47.9385 52.0257 48.0601 51.8205 48.2595C51.5738 48.4995 51.3871 48.7729 51.2605 49.0795C41.8505 47.9895 33.3405 49.5495 28.3205 48.9995C19.5738 48.0395 10.5438 47.8062 1.23047 48.2995C2.83714 36.6129 7.01046 26.6095 13.7505 18.2895C31.0905 -3.10048 60.0905 -5.02047 79.6605 14.6395C88.8938 23.9129 93.9538 35.1295 94.8405 48.2895Z" fill="#FF6A51"/>
<path d="M94.8378 48.2895C94.7578 52.7228 94.3111 57.0162 93.4978 61.1695C91.1645 66.1228 88.9278 71.1128 86.7878 76.1395C85.2611 79.7195 83.6211 82.6795 81.8678 85.0195C77.6411 90.6595 72.7678 95.7361 67.2478 100.249C66.4545 101.576 65.2212 102.256 63.5478 102.289L62.2478 95.8495C62.2271 95.7627 62.1923 95.685 62.1487 95.6288C62.1052 95.5726 62.0556 95.5411 62.0078 95.5395L61.7478 95.5295C61.6806 95.5257 61.6142 95.5168 61.5526 95.5032C61.491 95.4896 61.4353 95.4715 61.3889 95.4502C61.3424 95.4288 61.3059 95.4045 61.2817 95.3786C61.2575 95.3527 61.246 95.3259 61.2478 95.2995C61.4345 92.5395 60.8545 89.9595 59.5078 87.5595C59.3249 87.2266 59.238 86.8756 59.2578 86.5495C59.5378 82.7495 57.9878 79.9195 57.5178 76.4695C57.2445 74.4562 56.8945 72.8695 56.4678 71.7095C54.2811 65.7762 52.8478 59.6662 52.1678 53.3795C52.0178 51.9595 51.3778 50.6195 51.2578 49.0795C51.3845 48.7728 51.5711 48.4995 51.8178 48.2595C52.023 48.06 52.3412 47.9385 52.7078 47.9195C62.9778 47.2595 73.6678 46.0495 83.9478 47.2095C87.5278 47.6095 91.1578 47.9695 94.8378 48.2895ZM84.3778 54.7695C86.5778 55.1995 86.2378 52.4695 86.0478 51.2395C85.9962 50.9414 86.0526 50.6209 86.2078 50.3295C86.7878 49.2362 86.0078 48.9928 83.8678 49.5995C83.6362 49.6652 83.4164 49.766 83.222 49.8956C83.0276 50.0251 82.8628 50.1806 82.738 50.3524C82.6131 50.5242 82.5309 50.7085 82.4965 50.8938C82.462 51.0792 82.4761 51.2615 82.5378 51.4295L83.5778 54.2095C83.6264 54.3401 83.726 54.4605 83.8665 54.5589C84.0069 54.6572 84.1833 54.7299 84.3778 54.7695Z" fill="#5EC6C0"/>
<path d="M51.2603 49.0795C51.3803 50.6195 52.0203 51.9595 52.1703 53.3795C52.8503 59.6662 54.2836 65.7762 56.4703 71.7095C56.897 72.8695 57.247 74.4562 57.5203 76.4695C57.9903 79.9195 59.5403 82.7495 59.2603 86.5495C59.2405 86.8756 59.3274 87.2267 59.5103 87.5595C60.857 89.9595 61.437 92.5395 61.2503 95.2995C61.2485 95.3259 61.26 95.3528 61.2842 95.3786C61.3084 95.4045 61.3449 95.4288 61.3913 95.4502C61.4378 95.4716 61.4935 95.4896 61.5551 95.5032C61.6167 95.5168 61.683 95.5258 61.7503 95.5295L62.0103 95.5395C62.0581 95.5412 62.1077 95.5726 62.1512 95.6289C62.1948 95.6851 62.2296 95.7628 62.2503 95.8495L63.5503 102.29C50.2703 108.1 30.6303 100.74 20.1803 92.6295C6.00698 81.6295 -0.3097 66.8529 1.2303 48.2995C10.5436 47.8062 19.5736 48.0395 28.3203 48.9995C33.3403 49.5495 41.8503 47.9895 51.2603 49.0795ZM42.925 78.6067C43.3404 78.9431 43.8235 79.1875 44.3467 79.326C44.8699 79.4645 45.423 79.4944 45.9744 79.414C46.5259 79.3336 47.0648 79.1445 47.5605 78.8574C48.0561 78.5703 48.4988 78.1909 48.8633 77.7408C49.5993 76.8319 49.972 75.6903 49.8993 74.5672C49.8266 73.4442 49.3145 72.4316 48.4756 71.7523C48.0602 71.416 47.5771 71.1715 47.0539 71.033C46.5307 70.8945 45.9776 70.8646 45.4262 70.945C44.8747 71.0254 44.3358 71.2146 43.8401 71.5017C43.3445 71.7887 42.9018 72.1682 42.5373 72.6182C41.8013 73.5272 41.4286 74.6688 41.5013 75.7918C41.574 76.9149 42.0861 77.9274 42.925 78.6067Z" fill="#FBD02F"/>
<path d="M93.5 61.1694C91.4333 74.2961 85.4367 85.5861 75.51 95.0394C72.85 97.5728 70.0967 99.3094 67.25 100.249C72.77 95.7361 77.6433 90.6594 81.87 85.0194C83.6233 82.6794 85.2633 79.7194 86.79 76.1394C88.93 71.1128 91.1667 66.1228 93.5 61.1694Z" fill="#3EAEA7"/>
<path d="M86.0463 51.2397C86.2363 52.4697 86.5763 55.1997 84.3763 54.7697C84.1818 54.73 84.0054 54.6573 83.8649 54.559C83.7244 54.4607 83.6249 54.3402 83.5763 54.2097L82.5363 51.4297C82.4746 51.2617 82.4605 51.0793 82.4949 50.894C82.5294 50.7087 82.6116 50.5243 82.7364 50.3526C82.8613 50.1808 83.0261 50.0253 83.2205 49.8957C83.4149 49.7662 83.6347 49.6654 83.8663 49.5996C86.0063 48.993 86.7863 49.2363 86.2063 50.3297C86.051 50.6211 85.9947 50.9415 86.0463 51.2397Z" fill="#5B7298"/>
<path d="M42.9209 78.6066C42.082 77.9273 41.5699 76.9148 41.4972 75.7917C41.4245 74.6687 41.7972 73.5271 42.5332 72.6181C42.8977 72.1681 43.3404 71.7887 43.836 71.5016C44.3317 71.2145 44.8706 71.0253 45.4221 70.9449C45.9735 70.8645 46.5266 70.8944 47.0498 71.0329C47.573 71.1715 48.0561 71.4159 48.4715 71.7522C49.3104 72.4315 49.8225 73.4441 49.8952 74.5671C49.9679 75.6902 49.5952 76.8318 48.8592 77.7407C48.4947 78.1908 48.052 78.5702 47.5564 78.8573C47.0607 79.1444 46.5218 79.3335 45.9703 79.4139C45.4189 79.4944 44.8658 79.4645 44.3426 79.3259C43.8194 79.1874 43.3363 78.943 42.9209 78.6066Z" fill="black"/>
</svg>
