<svg width="151" height="154" viewBox="0 0 151 154" fill="none" xmlns="http://www.w3.org/2000/svg">
<path d="M121.971 14.3406C117.903 12.8606 114.073 13.4606 110.48 16.1406" stroke="#8B8B91" stroke-width="2"/>
<path d="M110.479 16.1407C105.624 11.5007 100.627 3.06068 93.6308 1.19068C91.6403 0.650677 89.0367 1.41067 86.5939 1.59067C81.782 1.93067 76.3602 3.96401 70.3286 7.69068C60.0347 14.0307 58.5871 21.1307 56.2951 31.8607C56.2637 32.0143 56.1998 32.1591 56.1079 32.2851C56.0159 32.4111 55.898 32.5154 55.7623 32.5907C41.4372 40.6107 6.42371 40.5607 6.22266 62.2707C6.14224 71.3507 8.20303 80.3007 8.03213 89.0207C7.68029 107.011 -10.0124 137.251 12.1035 146.931C29.8096 154.684 46.8389 153.657 63.1912 143.851C73.445 137.697 83.5479 131.307 93.5001 124.681C101.16 119.581 108.83 117.951 120.793 114.131C125.779 112.531 129.971 108.351 129.056 102.601C127.515 92.8807 125.317 83.304 122.462 73.8707C120.522 67.4607 125.639 65.0207 130.665 63.4307C137.481 61.2607 150.549 55.2407 149.232 46.8607C147.463 35.5507 137.008 14.7807 122.522 15.4407C122.08 15.4607 121.896 15.094 121.969 14.3407" stroke="#D9EBE1" stroke-width="2"/>
<path d="M110.48 16.1408L96.3659 25.4508C96.2457 25.5284 96.1062 25.5706 95.9637 25.5723C95.8213 25.5741 95.6818 25.5354 95.5617 25.4608C89.0543 21.3608 82.2285 17.8742 75.0844 15.0008C73.4693 14.3475 72.273 14.3608 71.4956 15.0408C70.7919 15.6542 70.5741 16.4008 70.8422 17.2808C70.8746 17.38 70.9719 17.4937 71.124 17.6098C71.2762 17.7259 71.4774 17.8403 71.7067 17.9408C78.7838 21.0075 85.5995 24.5642 92.1538 28.6108C92.2187 28.6499 92.2768 28.7009 92.3229 28.7596C92.369 28.8183 92.4019 28.8828 92.4187 28.9477C92.4355 29.0126 92.4357 29.0759 92.4193 29.1321C92.403 29.1884 92.3705 29.236 92.3248 29.2708C85.7838 34.1308 79.7187 39.5209 74.1294 45.4409C74.0292 45.5504 73.897 45.6367 73.7423 45.6937C73.5876 45.7508 73.4143 45.7771 73.2347 45.7708C66.9953 45.5375 60.756 45.3041 54.5166 45.0708C48.7162 44.8508 27.4146 45.0208 23.4035 49.0208C20.4179 52.0008 25.4342 51.0908 26.4998 50.9108C40.4931 48.4775 54.2552 48.1875 67.7861 50.0408C67.9784 50.0687 68.1602 50.1452 68.3142 50.2629C68.4683 50.3806 68.5894 50.5356 68.666 50.7132C68.7427 50.8907 68.7723 51.0849 68.752 51.277C68.7317 51.4692 68.6622 51.653 68.5502 51.8109C65.0016 56.8209 57.6128 68.7309 52.6468 70.9409C48.495 72.7809 25.776 83.7008 24.6601 87.5908C24.6436 87.65 24.6418 87.7123 24.6548 87.7723C24.6678 87.8324 24.6952 87.8884 24.7348 87.9356C24.7743 87.9828 24.8247 88.0197 24.8818 88.0433C24.9388 88.0668 25.0007 88.0763 25.0622 88.0708C26.5366 87.9708 27.9306 87.5375 29.2441 86.7708C35.9191 82.8375 42.6578 79.0041 49.4601 75.2708C49.7886 75.0915 50.1275 75.0269 50.405 75.0908C51.1556 75.2642 51.2528 75.7675 50.6966 76.6008C43.787 86.9875 37.6918 97.7508 32.4107 108.891C32.1947 109.346 31.8397 109.724 31.3954 109.971C24.9014 113.537 18.5514 117.254 12.3456 121.121C11.1192 121.881 10.2546 122.931 10.2345 124.301C10.2322 124.409 10.2592 124.516 10.3129 124.611C10.3666 124.705 10.4453 124.784 10.5412 124.841C10.6372 124.897 10.7473 124.928 10.8608 124.932C10.9744 124.935 11.0876 124.911 11.1895 124.861C17.3418 121.814 23.2025 118.284 28.7717 114.271C28.9305 114.157 29.1107 114.089 29.2802 114.078C29.4497 114.067 29.5973 114.114 29.6965 114.211C30.1389 114.651 19.7142 139.271 18.6386 141.901C18.5401 142.138 18.4676 142.37 18.4344 142.554C18.4011 142.737 18.4094 142.861 18.4576 142.901C19.1814 143.527 20.0359 143.757 21.0211 143.591C21.9794 143.431 22.6898 142.724 23.1522 141.471C28.4265 127.177 34.2169 113.527 40.5233 100.521C41.9306 97.6275 46.8296 89.2675 55.2203 75.4409C56.2658 73.7109 57.6028 72.1508 58.9398 70.7708C59.011 70.6965 59.1 70.6413 59.1984 70.6103C59.2967 70.5793 59.4014 70.5735 59.5026 70.5934C59.6039 70.6134 59.6985 70.6585 59.7776 70.7244C59.8566 70.7904 59.9177 70.8751 59.9551 70.9708C62.8704 78.1442 65.4673 85.4008 67.7459 92.7408C71.2744 104.121 74.1194 112.281 77.5071 122.121C77.9494 123.401 78.8475 123.974 80.2012 123.841C83.0964 123.551 78.9446 113.531 78.3616 111.941C72.9633 97.2209 68.6808 82.5008 62.5085 68.1108C62.3666 67.782 62.2996 67.4355 62.3136 67.1023C62.3277 66.7691 62.4222 66.4594 62.5889 66.2008C68.3457 57.3408 75.1045 49.3108 82.8652 42.1108C84.2323 40.8442 85.2309 41.1041 85.8609 42.8908C91.8054 59.6975 98.5541 75.8175 106.107 91.2509C106.925 92.9309 108.275 96.1742 110.158 100.981C110.213 101.124 110.306 101.249 110.427 101.341C110.548 101.433 110.692 101.489 110.842 101.501C116.763 101.991 116.612 97.9508 114.421 94.0408C106.7 80.2742 100.236 65.9442 95.0289 51.0508C93.8327 47.6408 93.0988 43.7408 92.0232 40.0708C91.9327 39.7676 91.9577 39.4403 92.0935 39.1508C93.1993 36.7708 93.7723 34.8908 95.9638 33.2108C100.26 29.9241 104.636 26.8275 109.093 23.9208C109.271 23.8036 109.487 23.758 109.698 23.7932C109.909 23.8285 110.099 23.942 110.229 24.1108C117.346 33.1708 120.704 39.9108 127.077 53.4208C127.141 53.5606 127.239 53.6812 127.363 53.7706C127.486 53.8601 127.63 53.9154 127.781 53.9308C133.742 54.5108 132.254 49.7308 130.505 46.5908C127.107 40.4608 124.051 33.9308 119.839 28.3608C118.063 26.0142 116.27 23.6775 114.461 21.3508C114.405 21.2804 114.367 21.1978 114.351 21.1097C114.334 21.0216 114.338 20.9305 114.364 20.8439C114.389 20.7572 114.435 20.6774 114.497 20.6108C114.559 20.5443 114.636 20.4929 114.722 20.4608C117.718 19.3941 120.134 17.3542 121.97 14.3408" stroke="#667E81" stroke-width="2"/>
<path d="M110.479 16.1407L96.3651 25.4507C96.2449 25.5282 96.1053 25.5704 95.9629 25.5722C95.8204 25.5739 95.681 25.5353 95.5609 25.4607C89.0534 21.3607 82.2277 17.874 75.0836 15.0007C73.4684 14.3473 72.2722 14.3607 71.4948 15.0407C70.7911 15.654 70.5733 16.4007 70.8413 17.2807C70.8737 17.3799 70.9711 17.4935 71.1232 17.6097C71.2753 17.7258 71.4766 17.8401 71.7058 17.9407C78.7829 21.0073 85.5987 24.564 92.153 28.6107C92.2179 28.6497 92.2759 28.7008 92.322 28.7594C92.3682 28.8181 92.401 28.8827 92.4178 28.9475C92.4346 29.0124 92.4349 29.0757 92.4185 29.132C92.4021 29.1883 92.3697 29.2359 92.3239 29.2707C85.783 34.1307 79.7178 39.5207 74.1285 45.4407C74.0283 45.5502 73.8961 45.6365 73.7414 45.6936C73.5868 45.7506 73.4134 45.777 73.2339 45.7707C66.9945 45.5373 60.7551 45.304 54.5157 45.0707C48.7153 44.8507 27.4137 45.0207 23.4027 49.0207C20.417 52.0007 25.4333 51.0907 26.4989 50.9107C40.4923 48.4773 54.2544 48.1874 67.7853 50.0407C67.9775 50.0686 68.1593 50.145 68.3134 50.2627C68.4674 50.3804 68.5886 50.5355 68.6652 50.713C68.7418 50.8906 68.7714 51.0847 68.7511 51.2769C68.7308 51.4691 68.6614 51.6529 68.5493 51.8107C65.0007 56.8207 57.612 68.7307 52.646 70.9407C48.4942 72.7807 25.7751 83.7007 24.6593 87.5907C24.6428 87.6499 24.641 87.7121 24.654 87.7722C24.667 87.8322 24.6944 87.8883 24.7339 87.9355C24.7735 87.9826 24.8239 88.0196 24.8809 88.0431C24.938 88.0667 24.9999 88.0761 25.0614 88.0706C26.5358 87.9706 27.9298 87.5373 29.2433 86.7707C35.9183 82.8373 42.6569 79.004 49.4592 75.2707C49.7878 75.0913 50.1267 75.0268 50.4042 75.0907C51.1548 75.264 51.252 75.7673 50.6957 76.6007C43.7862 86.9873 37.6909 97.7507 32.4099 108.891C32.1939 109.346 31.8389 109.724 31.3946 109.971C24.9005 113.537 18.5506 117.254 12.3447 121.121C11.1183 121.881 10.2538 122.931 10.2337 124.301C10.2313 124.409 10.2583 124.516 10.3121 124.61C10.3658 124.705 10.4444 124.784 10.5404 124.84C10.6364 124.897 10.7464 124.928 10.86 124.932C10.9735 124.935 11.0867 124.911 11.1887 124.861C17.3409 121.814 23.2016 118.284 28.7708 114.271C28.9296 114.157 29.1099 114.089 29.2794 114.078C29.4488 114.067 29.5964 114.114 29.6957 114.211C30.138 114.651 19.7134 139.271 18.6377 141.901C18.5393 142.138 18.4668 142.37 18.4335 142.553C18.4003 142.737 18.4086 142.86 18.4568 142.901C19.1806 143.527 20.0351 143.757 21.0202 143.591C21.9786 143.431 22.689 142.724 23.1514 141.471C28.4257 127.177 34.216 113.527 40.5224 100.521C41.9298 97.6273 46.8288 89.2674 55.2194 75.4407C56.2649 73.7107 57.6019 72.1507 58.939 70.7707C59.0102 70.6964 59.0991 70.6411 59.1975 70.6101C59.2959 70.5791 59.4006 70.5733 59.5018 70.5933C59.6031 70.6132 59.6976 70.6583 59.7767 70.7243C59.8558 70.7902 59.9169 70.875 59.9543 70.9707C62.8695 78.144 65.4665 85.4007 67.7451 92.7407C71.2736 104.121 74.1185 112.281 77.5063 122.121C77.9486 123.401 78.8466 123.974 80.2004 123.841C83.0956 123.551 78.9438 113.531 78.3607 111.941C72.9624 97.2207 68.68 82.5007 62.5076 68.1107C62.3657 67.7818 62.2988 67.4354 62.3128 67.1021C62.3268 66.7689 62.4214 66.4592 62.5881 66.2007C68.3449 57.3407 75.1037 49.3107 82.8643 42.1107C84.2315 40.844 85.2301 41.104 85.86 42.8907C91.8045 59.6973 98.5532 75.8174 106.106 91.2507C106.924 92.9307 108.274 96.174 110.157 100.981C110.212 101.124 110.305 101.249 110.426 101.341C110.547 101.433 110.691 101.489 110.841 101.501C116.762 101.991 116.611 97.9507 114.42 94.0407C106.699 80.274 100.235 65.944 95.0281 51.0507C93.8318 47.6407 93.098 43.7407 92.0224 40.0707C91.9318 39.7675 91.9568 39.4402 92.0927 39.1507C93.1985 36.7707 93.7715 34.8907 95.963 33.2107C100.259 29.924 104.635 26.8274 109.092 23.9207C109.27 23.8034 109.487 23.7578 109.697 23.7931C109.908 23.8283 110.098 23.9419 110.228 24.1107C117.345 33.1707 120.703 39.9107 127.076 53.4207C127.14 53.5604 127.238 53.681 127.362 53.7705C127.485 53.86 127.629 53.9152 127.78 53.9307C133.741 54.5107 132.253 49.7307 130.504 46.5907C127.106 40.4607 124.05 33.9307 119.838 28.3607C118.062 26.014 116.269 23.6773 114.46 21.3507C114.404 21.2802 114.367 21.1976 114.35 21.1095C114.333 21.0215 114.337 20.9304 114.363 20.8437C114.388 20.7571 114.434 20.6772 114.496 20.6107C114.559 20.5441 114.636 20.4927 114.721 20.4607C117.717 19.394 120.133 17.354 121.969 14.3407C121.896 15.094 122.08 15.4607 122.522 15.4407C137.008 14.7807 147.463 35.5507 149.232 46.8607C150.549 55.2407 137.481 61.2607 130.665 63.4307C125.639 65.0207 120.522 67.4607 122.462 73.8707C125.317 83.304 127.515 92.8807 129.056 102.601C129.971 108.351 125.779 112.531 120.793 114.131C108.83 117.951 101.16 119.581 93.5001 124.681C83.5479 131.307 73.445 137.697 63.1912 143.851C46.8389 153.657 29.8096 154.684 12.1035 146.931C-10.0124 137.251 7.68029 107.011 8.03213 89.0207C8.20303 80.3007 6.14224 71.3507 6.22266 62.2707C6.42371 40.5607 41.4372 40.6107 55.7623 32.5907C55.898 32.5154 56.0159 32.4111 56.1079 32.2851C56.1998 32.1591 56.2637 32.0143 56.2951 31.8607C58.5871 21.1307 60.0347 14.0307 70.3286 7.69068C76.3602 3.96401 81.782 1.93067 86.5939 1.59067C89.0367 1.41067 91.6403 0.650677 93.6308 1.19068C100.627 3.06068 105.624 11.5007 110.479 16.1407Z" fill="#B3DED1"/>
<path d="M121.97 14.3406C120.134 17.3539 117.718 19.3939 114.722 20.4606C114.636 20.4926 114.559 20.5441 114.497 20.6106C114.435 20.6772 114.389 20.757 114.364 20.8436C114.338 20.9303 114.334 21.0214 114.351 21.1094C114.367 21.1975 114.405 21.2801 114.461 21.3506C116.27 23.6773 118.063 26.0139 119.839 28.3606C124.051 33.9306 127.107 40.4606 130.505 46.5906C132.254 49.7306 133.742 54.5106 127.781 53.9306C127.63 53.9151 127.486 53.8599 127.363 53.7704C127.239 53.6809 127.141 53.5603 127.077 53.4206C120.703 39.9106 117.346 33.1706 110.229 24.1106C110.099 23.9418 109.909 23.8282 109.698 23.793C109.487 23.7577 109.271 23.8033 109.093 23.9206C104.636 26.8273 100.26 29.9239 95.9638 33.2106C93.7723 34.8906 93.1993 36.7706 92.0935 39.1506C91.9577 39.4401 91.9327 39.7674 92.0232 40.0706C93.0988 43.7406 93.8327 47.6406 95.0289 51.0506C100.236 65.9439 106.7 80.2739 114.421 94.0406C116.612 97.9506 116.763 101.991 110.842 101.501C110.692 101.488 110.548 101.433 110.427 101.341C110.306 101.249 110.213 101.124 110.158 100.981C108.275 96.1739 106.925 92.9306 106.107 91.2506C98.5541 75.8173 91.8054 59.6972 85.8609 42.8906C85.2309 41.1039 84.2323 40.8439 82.8652 42.1106C75.1045 49.3106 68.3457 57.3406 62.5889 66.2006C62.4222 66.4592 62.3277 66.7688 62.3136 67.1021C62.2996 67.4353 62.3666 67.7818 62.5085 68.1106C68.6808 82.5006 72.9633 97.2206 78.3616 111.941C78.9446 113.531 83.0964 123.551 80.2012 123.841C78.8475 123.974 77.9494 123.401 77.5071 122.121C74.1194 112.281 71.2744 104.121 67.7459 92.7406C65.4673 85.4006 62.8704 78.1439 59.9551 70.9706C59.9177 70.8749 59.8566 70.7902 59.7776 70.7242C59.6985 70.6582 59.6039 70.6132 59.5027 70.5932C59.4014 70.5733 59.2967 70.579 59.1983 70.6101C59.1 70.6411 59.011 70.6963 58.9398 70.7706C57.6028 72.1506 56.2658 73.7106 55.2203 75.4406C46.8296 89.2673 41.9306 97.6272 40.5233 100.521C34.2169 113.527 28.4265 127.177 23.1522 141.471C22.6898 142.724 21.9794 143.431 21.0211 143.591C20.0359 143.757 19.1814 143.527 18.4576 142.901C18.4094 142.86 18.4011 142.737 18.4344 142.553C18.4676 142.37 18.5401 142.138 18.6386 141.901C19.7142 139.271 30.1389 114.651 29.6965 114.211C29.5973 114.114 29.4497 114.067 29.2802 114.078C29.1107 114.089 28.9305 114.157 28.7717 114.271C23.2025 118.284 17.3418 121.814 11.1895 124.861C11.0876 124.911 10.9744 124.935 10.8608 124.932C10.7473 124.928 10.6372 124.897 10.5412 124.84C10.4453 124.784 10.3666 124.705 10.3129 124.61C10.2592 124.516 10.2322 124.409 10.2345 124.301C10.2546 122.931 11.1192 121.881 12.3456 121.121C18.5514 117.254 24.9014 113.537 31.3954 109.971C31.8397 109.724 32.1947 109.346 32.4107 108.891C37.6918 97.7506 43.787 86.9873 50.6966 76.6006C51.2528 75.7673 51.1556 75.2639 50.405 75.0906C50.1275 75.0267 49.7886 75.0912 49.4601 75.2706C42.6578 79.0039 35.9191 82.8372 29.2442 86.7706C27.9306 87.5372 26.5366 87.9706 25.0622 88.0706C25.0007 88.076 24.9388 88.0666 24.8818 88.043C24.8247 88.0195 24.7743 87.9826 24.7348 87.9354C24.6952 87.8882 24.6678 87.8321 24.6548 87.7721C24.6418 87.7121 24.6436 87.6498 24.6601 87.5906C25.776 83.7006 48.495 72.7806 52.6468 70.9406C57.6128 68.7306 65.0016 56.8206 68.5502 51.8106C68.6622 51.6528 68.7317 51.469 68.752 51.2768C68.7723 51.0846 68.7427 50.8905 68.666 50.713C68.5894 50.5354 68.4683 50.3804 68.3142 50.2626C68.1602 50.1449 67.9784 50.0685 67.7861 50.0406C54.2552 48.1873 40.4931 48.4773 26.4998 50.9106C25.4342 51.0906 20.4179 52.0006 23.4035 49.0206C27.4146 45.0206 48.7162 44.8506 54.5166 45.0706C60.756 45.3039 66.9953 45.5372 73.2347 45.7706C73.4143 45.7769 73.5876 45.7505 73.7423 45.6935C73.897 45.6364 74.0292 45.5501 74.1294 45.4406C79.7187 39.5206 85.7838 34.1306 92.3248 29.2706C92.3705 29.2358 92.403 29.1882 92.4193 29.1319C92.4357 29.0756 92.4355 29.0123 92.4187 28.9475C92.4019 28.8826 92.369 28.818 92.3229 28.7593C92.2768 28.7007 92.2188 28.6496 92.1538 28.6106C85.5995 24.5639 78.7838 21.0073 71.7067 17.9406C71.4774 17.84 71.2762 17.7257 71.124 17.6096C70.9719 17.4934 70.8746 17.3798 70.8422 17.2806C70.5741 16.4006 70.7919 15.6539 71.4956 15.0406C72.273 14.3606 73.4693 14.3473 75.0844 15.0006C82.2285 17.8739 89.0543 21.3606 95.5617 25.4606C95.6818 25.5352 95.8213 25.5739 95.9637 25.5721C96.1062 25.5703 96.2457 25.5282 96.3659 25.4506L110.48 16.1406C114.072 13.4606 117.902 12.8606 121.97 14.3406Z" fill="#181D31"/>
</svg>
