<svg width="159" height="262" viewBox="0 0 159 262" fill="none" xmlns="http://www.w3.org/2000/svg">
<path d="M140.955 49.4803C138.515 59.1003 137.345 66.9904 129.945 75.2604C119.885 86.4804 106.565 92.1603 93.6351 97.7203C79.8351 103.65 67.1851 112.23 59.6551 125.47C58.1818 128.064 54.3151 135.517 48.0551 147.83C45.2151 153.42 43.7751 159.62 40.9651 164.89C31.3651 182.857 22.7451 201.284 15.1051 220.17C14.5784 221.477 14.4284 223.42 14.6551 226C14.687 226.316 14.5977 226.634 14.4051 226.89C11.4851 230.94 9.40509 236.65 7.90509 239.84C4.87176 246.28 2.57511 253.02 1.01511 260.06C0.998082 260.137 0.995403 260.216 1.00729 260.292C1.01919 260.367 1.04532 260.438 1.08377 260.499C1.12222 260.559 1.17197 260.608 1.22934 260.641C1.28671 260.674 1.35021 260.691 1.4151 260.69L20.1651 260.82C21.2584 260.827 22.0451 260.29 22.5251 259.21C27.4518 247.984 32.1351 236.677 36.5751 225.29C38.6551 219.94 41.8851 213.73 44.2151 209.79C50.8684 198.544 57.6318 187.37 64.5051 176.27C74.2351 160.56 86.8251 148.62 101.175 136.74C103.342 134.947 105.998 133.184 109.145 131.45C119.185 125.93 129.925 118.94 136.895 110.5C148.665 96.2404 158.115 73.0403 157.705 55.2303C157.498 46.2237 156.835 35.807 155.715 23.9803C155.405 20.7203 156.825 15.2403 156.165 12.9803C154.835 8.41034 155.795 5.81032 154.955 2.21033C154.602 0.703658 153.892 0.603671 152.825 1.91034C151.945 2.98367 151.245 4.17033 150.725 5.47033C143.435 23.6403 137.615 54.0204 119.105 64.7504C105.498 72.6437 93.4151 82.4437 82.8551 94.1504C81.4084 95.7504 80.1318 97.4837 79.0251 99.3503C78.4851 100.257 78.6618 100.43 79.5551 99.8704C86.6051 95.4304 92.9951 91.5303 101.205 87.8503C118.945 79.8903 132.395 67.3903 140.455 49.2303" stroke="#B0E0E1" stroke-width="2"/>
<path d="M143.953 70.4805C143.623 79.0105 131.623 91.4205 125.703 96.6605C109.883 110.671 88.8534 115.83 73.9034 131.71C51.1434 155.89 42.6234 178.271 26.1834 214.781C25.2501 216.854 23.9901 220.677 22.4034 226.25C20.7334 232.14 18.2135 237.09 15.6435 242.48C15.1235 243.57 15.1035 245.16 14.6135 245.96C12.4335 249.594 10.5235 253.377 8.88346 257.31C8.85658 257.373 8.84298 257.44 8.84378 257.508C8.84458 257.575 8.85973 257.64 8.88803 257.698C8.91634 257.755 8.95698 257.803 9.00659 257.839C9.05621 257.874 9.1134 257.895 9.17346 257.901C9.63346 257.947 9.95346 257.704 10.1335 257.17C11.9835 251.8 15.2534 246.68 16.9634 243.11C24.4234 227.58 32.2835 212.13 40.9835 193.55C47.2501 180.157 55.4801 166.691 65.6735 153.151C73.3635 142.951 80.8934 135.32 90.8834 128.46C109.833 115.42 144.983 96.4305 144.623 69.7305" stroke="#B0E0E1" stroke-width="2"/>
<path d="M140.955 49.4803C141.928 46.767 143.015 44.097 144.215 41.4703C144.535 40.7803 144.375 38.9803 143.605 40.7903C142.438 43.5637 141.388 46.377 140.455 49.2303C132.395 67.3903 118.945 79.8903 101.205 87.8503C92.9951 91.5303 86.6051 95.4304 79.5551 99.8704C78.6618 100.43 78.4851 100.257 79.0251 99.3503C80.1318 97.4837 81.4084 95.7504 82.8551 94.1504C93.4151 82.4437 105.498 72.6437 119.105 64.7504C137.615 54.0204 143.435 23.6403 150.725 5.47033C151.245 4.17033 151.945 2.98367 152.825 1.91034C153.892 0.603671 154.602 0.703658 154.955 2.21033C155.795 5.81032 154.835 8.41034 156.165 12.9803C156.825 15.2403 155.405 20.7203 155.715 23.9803C156.835 35.807 157.498 46.2237 157.705 55.2303C158.115 73.0403 148.665 96.2404 136.895 110.5C129.925 118.94 119.185 125.93 109.145 131.45C105.998 133.184 103.342 134.947 101.175 136.74C86.8251 148.62 74.2351 160.56 64.5051 176.27C57.6318 187.37 50.8684 198.544 44.2151 209.79C41.8851 213.73 38.6551 219.94 36.5751 225.29C32.1351 236.677 27.4518 247.984 22.5251 259.21C22.0451 260.29 21.2584 260.827 20.1651 260.82L1.4151 260.69C1.35021 260.691 1.28671 260.674 1.22934 260.641C1.17197 260.608 1.12222 260.559 1.08377 260.499C1.04532 260.438 1.01919 260.367 1.00729 260.292C0.995403 260.216 0.998082 260.137 1.01511 260.06C2.57511 253.02 4.87176 246.28 7.90509 239.84C9.40509 236.65 11.4851 230.94 14.4051 226.89C14.5977 226.634 14.687 226.316 14.6551 226C14.4284 223.42 14.5784 221.477 15.1051 220.17C22.7451 201.284 31.3651 182.857 40.9651 164.89C43.7751 159.62 45.2151 153.42 48.0551 147.83C54.3151 135.517 58.1818 128.064 59.6551 125.47C67.1851 112.23 79.8351 103.65 93.6351 97.7203C106.565 92.1603 119.885 86.4804 129.945 75.2604C137.345 66.9904 138.515 59.1003 140.955 49.4803ZM143.955 70.4803C143.625 79.0103 131.625 91.4204 125.705 96.6604C109.885 110.67 88.8551 115.83 73.9051 131.71C51.1451 155.89 42.6251 178.27 26.1851 214.78C25.2518 216.854 23.9918 220.677 22.4051 226.25C20.7351 232.14 18.2151 237.09 15.6451 242.48C15.1251 243.57 15.1051 245.16 14.6151 245.96C12.4351 249.594 10.5251 253.377 8.8851 257.31C8.85822 257.373 8.84463 257.44 8.84543 257.507C8.84623 257.575 8.86138 257.64 8.88968 257.697C8.91798 257.755 8.95863 257.803 9.00824 257.839C9.05785 257.874 9.11504 257.895 9.17511 257.9C9.63511 257.947 9.9551 257.704 10.1351 257.17C11.9851 251.8 15.2551 246.68 16.9651 243.11C24.4251 227.58 32.2851 212.13 40.9851 193.55C47.2518 180.157 55.4818 166.69 65.6751 153.15C73.3651 142.95 80.8951 135.32 90.8851 128.46C109.835 115.42 144.985 96.4303 144.625 69.7303C145.725 66.9103 145.535 63.5504 145.835 61.4904C146.848 54.7504 147.745 48.0037 148.525 41.2504C148.678 39.9104 148.445 39.4003 147.825 39.7203C147.703 39.7864 147.591 39.8902 147.498 40.0247C147.405 40.1593 147.332 40.3215 147.285 40.5004C146.375 44.0704 146.755 47.7603 146.095 51.0903C144.828 57.4903 144.115 63.9537 143.955 70.4803Z" fill="#61C1C6"/>
<path d="M144.623 69.7305C144.983 96.4305 109.833 115.42 90.8834 128.46C80.8934 135.32 73.3635 142.951 65.6735 153.151C55.4801 166.691 47.2501 180.157 40.9835 193.55C32.2835 212.13 24.4234 227.58 16.9634 243.11C15.2534 246.68 11.9835 251.8 10.1335 257.17C9.95346 257.704 9.63346 257.947 9.17346 257.901C9.1134 257.895 9.05621 257.874 9.00659 257.839C8.95698 257.803 8.91634 257.755 8.88803 257.698C8.85973 257.64 8.84458 257.575 8.84378 257.508C8.84298 257.44 8.85658 257.373 8.88346 257.31C10.5235 253.377 12.4335 249.594 14.6135 245.96C15.1035 245.16 15.1235 243.57 15.6435 242.48C18.2135 237.09 20.7334 232.14 22.4034 226.25C23.9901 220.677 25.2501 216.854 26.1834 214.781C42.6234 178.271 51.1434 155.89 73.9034 131.71C88.8534 115.83 109.883 110.671 125.703 96.6605C131.623 91.4205 143.623 79.0105 143.953 70.4805L144.623 69.7305Z" fill="#FEFEFC"/>
</svg>
