<svg width="156" height="259" viewBox="0 0 156 259" fill="none" xmlns="http://www.w3.org/2000/svg">
<path d="M91.9531 43.7324L60.4531 82.7324" stroke="#B4DAE5" stroke-width="2"/>
<path d="M60.4543 82.7328C52.4076 91.9661 45.0143 100.086 38.2743 107.093C32.1743 113.423 25.3643 119.553 17.3943 124.023C8.9643 128.743 0.304297 132.523 1.0443 142.983C1.9843 156.103 15.2843 156.333 24.9743 155.303C53.0943 152.303 53.6143 198.623 55.0643 215.953C55.391 219.846 56.211 223.346 57.5243 226.453C59.3443 230.743 64.2343 232.763 68.1743 229.953C70.8943 228.013 72.1443 222.043 72.0843 220.023C71.651 203.789 71.731 187.563 72.3243 171.343C72.9443 154.463 77.8643 132.063 94.8143 123.843C96.1143 123.216 98.9476 122.376 103.314 121.323C109.394 119.856 114.998 117.363 120.124 113.843C139.054 100.833 134.894 76.9928 136.154 57.5328C137.064 43.6828 145.504 36.9028 149.884 27.7128C153.294 20.5728 157.344 9.9628 151.124 4.2728C141.314 -4.6972 124.464 6.8528 117.194 14.0228C110.681 20.4361 102.268 30.3395 91.9543 43.7328" stroke="#B0D6E1" stroke-width="2"/>
<path d="M60.4551 82.7324C61.5684 83.4391 62.6117 84.2391 63.5851 85.1324C66.5451 87.8424 71.1851 88.4224 75.2151 89.2624C76.8484 89.5958 77.4084 90.5558 76.8951 92.1424C76.5484 93.2158 75.3417 93.7724 73.2751 93.8124C73.2391 93.8245 73.141 93.8767 72.9973 93.9604C72.8535 94.0442 72.6727 94.1543 72.4851 94.2724L67.5351 97.4424C67.425 97.5125 67.268 97.5279 67.0865 97.4866C66.905 97.4452 66.7084 97.3493 66.5251 97.2124L60.8951 93.0924C59.7884 92.2858 58.9984 92.5324 58.5251 93.8324C57.1917 97.4924 56.2817 101.239 55.7951 105.072C55.7765 105.213 55.723 105.351 55.6383 105.475C55.5535 105.6 55.4397 105.708 55.3051 105.792C51.8851 107.892 48.8551 104.292 45.7351 107.832C45.6593 107.919 45.6048 108.023 45.5759 108.134C45.5471 108.246 45.5447 108.363 45.569 108.475C45.5933 108.588 45.6435 108.693 45.7158 108.783C45.788 108.873 45.8802 108.945 45.9851 108.992C49.9051 110.766 53.8051 112.539 57.6851 114.312C59.1051 114.952 61.4451 116.392 59.2251 117.922C58.9729 118.09 58.6366 118.165 58.2751 118.132C53.4151 117.726 48.5584 117.692 43.7051 118.032C43.3784 118.052 43.0617 117.989 42.7551 117.842C37.8251 115.442 33.1951 118.902 35.7551 124.302C35.8283 124.453 35.8551 124.621 35.8318 124.782C35.8085 124.943 35.7363 125.09 35.6251 125.202L31.5351 129.362C31.2851 129.619 30.9832 129.77 30.6951 129.782C28.3551 129.889 26.0851 129.602 23.8851 128.922C22.0451 128.352 19.3551 128.092 19.9151 130.952C19.9456 131.109 20.018 131.259 20.1259 131.388C20.2339 131.517 20.3743 131.621 20.5351 131.692C21.4817 132.112 22.3117 132.699 23.0251 133.452C23.0999 133.534 23.2237 133.613 23.3879 133.684C23.5521 133.754 23.7525 133.815 23.9751 133.862C24.8151 134.032 32.1151 136.362 30.8951 137.862C30.5425 138.29 30.1349 138.631 29.7134 138.851C29.292 139.07 28.8717 139.161 28.4951 139.112C26.1284 138.819 24.5051 139.596 23.6251 141.442C23.5967 141.5 23.5905 141.565 23.6068 141.634C23.6231 141.702 23.6615 141.773 23.7195 141.84C23.7775 141.908 23.8536 141.97 23.9426 142.024C24.0316 142.078 24.1314 142.122 24.2351 142.152C30.8151 144.126 37.0917 146.779 43.0651 150.112C43.2593 150.222 43.4515 150.302 43.6147 150.341C43.7779 150.38 43.9039 150.377 43.9751 150.332C45.1284 149.632 45.7384 148.642 45.8051 147.362C45.8082 147.29 45.739 147.169 45.6075 147.016C45.4761 146.863 45.2894 146.686 45.0751 146.512C41.1851 143.352 36.7451 140.872 41.4151 135.292C41.5284 135.162 41.6683 135.065 41.8142 135.016C41.96 134.968 42.1041 134.97 42.2251 135.022C44.4517 136.002 46.6817 135.956 48.9151 134.882C49.1191 134.785 49.3636 134.783 49.6041 134.874C49.8445 134.966 50.0649 135.146 50.2251 135.382C51.2251 136.849 52.1717 137.816 53.0651 138.282C53.1936 138.348 53.3418 138.382 53.4991 138.382C53.6565 138.382 53.819 138.348 53.9751 138.282C58.7051 136.272 63.2651 136.532 68.2851 136.882C71.4351 137.102 73.2151 139.132 76.9451 137.432C77.1456 137.341 77.3233 137.206 77.4657 137.037C77.6081 136.869 77.7117 136.671 77.769 136.458C77.8263 136.245 77.8359 136.023 77.7972 135.805C77.7585 135.588 77.6724 135.382 77.5451 135.202C75.1651 131.882 73.8251 133.292 71.1351 132.102C67.5084 130.496 64.3951 128.199 61.7951 125.212C61.5522 124.931 61.4201 124.571 61.4238 124.201C61.4274 123.831 61.5667 123.475 61.8151 123.202C65.2651 119.402 67.9351 121.592 71.3551 123.702C76.5751 126.952 80.8951 126.282 86.2951 126.162C86.4465 126.156 86.5947 126.113 86.727 126.037C86.8593 125.96 86.9718 125.852 87.0551 125.722C88.6417 123.176 91.1917 120.949 94.7051 119.042C95.5517 118.582 95.7884 117.712 95.4151 116.432C95.3311 116.143 95.1207 115.879 94.8251 115.692C92.2451 114.082 90.7951 111.602 88.4951 110.132C87.4417 109.459 86.3617 108.819 85.2551 108.212C85.1175 108.137 84.9959 108.033 84.9008 107.91C84.8058 107.786 84.7401 107.647 84.7096 107.504C84.6791 107.362 84.6845 107.219 84.7256 107.09C84.7666 106.961 84.842 106.848 84.9451 106.762L87.7951 104.382C87.8846 104.307 88.0149 104.266 88.1708 104.262C88.3266 104.258 88.5015 104.293 88.6751 104.362C91.5251 105.512 92.8851 106.592 94.1751 109.632C96.4151 114.932 109.685 114.082 113.705 113.062C114.027 112.985 114.304 112.8 114.485 112.542C116.955 108.872 109.605 106.442 113.735 104.352C113.865 104.284 114.014 104.249 114.17 104.251C114.326 104.253 114.486 104.291 114.635 104.362C117.302 105.649 120.315 106.086 123.675 105.672C125.915 105.402 128.405 103.832 127.325 101.312C126.415 99.2024 123.925 99.9124 122.445 99.1424C120.755 98.2824 119.735 97.0024 118.035 96.2324C114.295 94.5458 114.982 93.7191 120.095 93.7524C123.375 93.7724 125.675 95.6224 128.505 92.6324C128.621 92.5108 128.703 92.3618 128.744 92.1992C128.786 92.0367 128.785 91.8659 128.742 91.703C128.699 91.5401 128.615 91.3904 128.499 91.2679C128.382 91.1453 128.236 91.054 128.075 91.0024C125.322 90.1424 123.725 88.9758 123.285 87.5024C123.257 87.417 123.249 87.2858 123.263 87.1192C123.277 86.9526 123.312 86.7551 123.365 86.5424L124.695 81.3024C124.773 81.0053 124.907 80.7352 125.086 80.5144C125.265 80.2936 125.484 80.1284 125.725 80.0324L129.285 78.6324C130.218 78.2657 130.342 77.8324 129.655 77.3324C127.275 75.6058 125.252 73.5491 123.585 71.1624C123.487 71.0175 123.417 70.8653 123.377 70.7156C123.337 70.5659 123.33 70.4219 123.355 70.2924C124.815 63.1524 131.865 73.6024 130.925 67.8424C130.698 66.4758 129.805 65.5224 128.245 64.9824C125.725 64.1024 123.805 62.5124 121.315 61.7624C118.068 60.7691 114.968 59.4158 112.015 57.7024C111.838 57.5995 111.691 57.4535 111.586 57.2759C111.48 57.0982 111.418 56.8936 111.406 56.678C111.393 56.4623 111.43 56.2414 111.513 56.0323C111.596 55.8233 111.723 55.6317 111.885 55.4724C112.572 54.7924 113.045 53.9991 113.305 53.0924C113.336 52.9839 113.317 52.8552 113.251 52.7243C113.184 52.5934 113.074 52.4669 112.935 52.3624C110.165 50.2724 106.845 50.4424 104.355 49.5024C100.075 47.8824 95.9417 45.9591 91.9551 43.7324" stroke="#65B1C7" stroke-width="2"/>
<path d="M7.35434 60.0627C18.1443 61.8927 26.3943 67.5027 35.5843 72.8327C36.5977 73.4261 37.1043 73.1361 37.1043 71.9627C37.1043 61.9627 32.1443 59.1827 25.9643 52.7527C25.0843 51.8327 24.9277 50.8061 25.4943 49.6727C27.4643 45.7027 30.6943 42.5727 32.5443 38.4027C33.151 37.0294 32.6943 36.4627 31.1743 36.7027C27.001 37.3694 23.0177 38.6661 19.2243 40.5927C18.8731 40.7703 18.4801 40.8297 18.1203 40.7596C17.7605 40.6895 17.4593 40.4948 17.2743 40.2127L13.7843 34.9527C13.6232 34.7073 13.3689 34.5201 13.0643 34.4227C6.79435 32.3527 8.32434 47.3527 8.12434 50.8027C8.09886 51.1502 7.96337 51.4604 7.74435 51.6727L3.08434 56.1327C1.73768 57.4194 1.90101 58.4261 3.57434 59.1527C4.27434 59.4527 5.53434 59.7561 7.35434 60.0627Z" stroke="#FEA999" stroke-width="2"/>
<path d="M19.5056 238.802C16.3856 238.682 13.5222 239.516 10.9156 241.302C10.6326 241.502 10.293 241.587 9.96557 241.542C7.88557 241.269 6.69224 240.122 6.38557 238.102C6.2589 237.269 5.86557 237.122 5.20557 237.662C-2.53443 243.932 15.7356 260.992 19.9756 256.212C20.0738 256.104 20.1335 255.967 20.1445 255.827C20.1554 255.686 20.1169 255.55 20.0356 255.442L16.4656 250.742C15.7722 249.829 15.6922 248.839 16.2256 247.772L20.1256 239.952C20.1853 239.832 20.216 239.699 20.2148 239.566C20.2136 239.432 20.1806 239.302 20.1189 239.188C20.0571 239.073 19.9686 238.978 19.8614 238.91C19.7542 238.843 19.6318 238.806 19.5056 238.802Z" stroke="#FCAB9D" stroke-width="2"/>
<path d="M60.4543 82.7328C61.5676 83.4395 62.611 84.2395 63.5843 85.1328C66.5443 87.8428 71.1843 88.4228 75.2143 89.2628C76.8476 89.5961 77.4076 90.5561 76.8943 92.1428C76.5476 93.2161 75.341 93.7728 73.2743 93.8128C73.2383 93.8249 73.1403 93.8771 72.9965 93.9608C72.8527 94.0445 72.6719 94.1547 72.4843 94.2728L67.5343 97.4428C67.4243 97.5128 67.2672 97.5283 67.0857 97.4869C66.9042 97.4456 66.7076 97.3496 66.5243 97.2128L60.8943 93.0928C59.7876 92.2861 58.9976 92.5328 58.5243 93.8328C57.191 97.4928 56.281 101.239 55.7943 105.073C55.7758 105.213 55.7222 105.351 55.6375 105.475C55.5527 105.6 55.4389 105.708 55.3043 105.793C51.8843 107.893 48.8543 104.293 45.7343 107.833C45.6585 107.92 45.604 108.023 45.5751 108.134C45.5463 108.246 45.5439 108.363 45.5682 108.476C45.5925 108.588 45.6428 108.694 45.715 108.783C45.7872 108.873 45.8795 108.945 45.9843 108.993C49.9043 110.766 53.8043 112.539 57.6843 114.313C59.1043 114.953 61.4443 116.393 59.2243 117.923C58.9721 118.091 58.6358 118.165 58.2743 118.133C53.4143 117.726 48.5576 117.693 43.7043 118.033C43.3776 118.053 43.061 117.989 42.7543 117.843C37.8243 115.443 33.1943 118.903 35.7543 124.303C35.8275 124.454 35.8543 124.621 35.831 124.783C35.8077 124.944 35.7355 125.091 35.6243 125.203L31.5343 129.363C31.2843 129.62 30.9824 129.771 30.6943 129.783C28.3543 129.889 26.0843 129.603 23.8843 128.923C22.0443 128.353 19.3543 128.093 19.9143 130.953C19.9448 131.11 20.0172 131.259 20.1252 131.388C20.2331 131.517 20.3735 131.621 20.5343 131.693C21.481 132.113 22.311 132.699 23.0243 133.453C23.0991 133.534 23.2229 133.613 23.3871 133.684C23.5513 133.755 23.7517 133.816 23.9743 133.863C24.8143 134.033 32.1143 136.363 30.8943 137.863C30.5417 138.291 30.1341 138.632 29.7127 138.851C29.2912 139.071 28.8709 139.161 28.4943 139.113C26.1276 138.819 24.5043 139.596 23.6243 141.443C23.5959 141.5 23.5897 141.565 23.606 141.634C23.6223 141.703 23.6607 141.773 23.7187 141.84C23.7767 141.908 23.8528 141.971 23.9418 142.025C24.0308 142.079 24.1306 142.122 24.2343 142.153C30.8143 144.126 37.091 146.779 43.0643 150.113C43.2585 150.222 43.4507 150.302 43.6139 150.341C43.7771 150.381 43.9032 150.378 43.9743 150.333C45.1276 149.633 45.7376 148.643 45.8043 147.363C45.8075 147.291 45.7382 147.169 45.6068 147.016C45.4753 146.863 45.2886 146.687 45.0743 146.513C41.1843 143.353 36.7443 140.873 41.4143 135.293C41.5276 135.162 41.6675 135.065 41.8134 135.017C41.9592 134.968 42.1033 134.97 42.2243 135.023C44.451 136.003 46.681 135.956 48.9143 134.883C49.1183 134.786 49.3628 134.783 49.6033 134.875C49.8437 134.967 50.0642 135.147 50.2243 135.383C51.2243 136.849 52.171 137.816 53.0643 138.283C53.1928 138.348 53.341 138.383 53.4984 138.383C53.6557 138.383 53.8182 138.348 53.9743 138.283C58.7043 136.273 63.2643 136.533 68.2843 136.883C71.4343 137.103 73.2143 139.133 76.9443 137.433C77.1448 137.341 77.3226 137.206 77.465 137.038C77.6074 136.869 77.7109 136.672 77.7682 136.459C77.8255 136.246 77.8351 136.023 77.7964 135.806C77.7577 135.589 77.6716 135.383 77.5443 135.203C75.1643 131.883 73.8243 133.293 71.1343 132.103C67.5076 130.496 64.3943 128.199 61.7943 125.213C61.5514 124.932 61.4193 124.572 61.423 124.202C61.4267 123.831 61.5659 123.476 61.8143 123.203C65.2643 119.403 67.9343 121.593 71.3543 123.703C76.5743 126.953 80.8943 126.283 86.2943 126.163C86.4457 126.157 86.5939 126.114 86.7262 126.037C86.8585 125.96 86.9711 125.853 87.0543 125.723C88.641 123.176 91.191 120.949 94.7043 119.043C95.551 118.583 95.7876 117.713 95.4143 116.433C95.3303 116.143 95.1199 115.88 94.8243 115.693C92.2443 114.083 90.7943 111.603 88.4943 110.133C87.441 109.459 86.361 108.819 85.2543 108.213C85.1167 108.137 84.9951 108.033 84.9 107.91C84.805 107.787 84.7393 107.648 84.7088 107.505C84.6783 107.362 84.6838 107.22 84.7248 107.09C84.7658 106.961 84.8412 106.849 84.9443 106.763L87.7943 104.383C87.8839 104.308 88.0142 104.266 88.17 104.262C88.3258 104.259 88.5007 104.294 88.6743 104.363C91.5243 105.513 92.8843 106.593 94.1743 109.633C96.4143 114.933 109.684 114.083 113.704 113.063C114.026 112.986 114.304 112.801 114.484 112.543C116.954 108.873 109.604 106.443 113.734 104.353C113.864 104.284 114.013 104.25 114.169 104.251C114.326 104.253 114.485 104.291 114.634 104.363C117.301 105.649 120.314 106.086 123.674 105.673C125.914 105.403 128.404 103.833 127.324 101.313C126.414 99.2028 123.924 99.9128 122.444 99.1428C120.754 98.2828 119.734 97.0028 118.034 96.2328C114.294 94.5461 114.981 93.7195 120.094 93.7528C123.374 93.7728 125.674 95.6228 128.504 92.6328C128.62 92.5112 128.702 92.3622 128.744 92.1996C128.785 92.037 128.784 91.8663 128.741 91.7034C128.698 91.5405 128.615 91.3908 128.498 91.2682C128.381 91.1457 128.235 91.0544 128.074 91.0028C125.321 90.1428 123.724 88.9762 123.284 87.5028C123.256 87.4174 123.248 87.2862 123.262 87.1196C123.276 86.953 123.311 86.7555 123.364 86.5428L124.694 81.3028C124.772 81.0057 124.906 80.7356 125.085 80.5148C125.264 80.294 125.483 80.1288 125.724 80.0328L129.284 78.6328C130.218 78.2661 130.341 77.8328 129.654 77.3328C127.274 75.6061 125.251 73.5495 123.584 71.1628C123.487 71.0178 123.416 70.8657 123.376 70.716C123.337 70.5663 123.329 70.4222 123.354 70.2928C124.814 63.1528 131.864 73.6028 130.924 67.8428C130.698 66.4761 129.804 65.5228 128.244 64.9828C125.724 64.1028 123.804 62.5128 121.314 61.7628C118.068 60.7695 114.968 59.4161 112.014 57.7028C111.837 57.5998 111.69 57.4539 111.585 57.2762C111.479 57.0986 111.418 56.894 111.405 56.6783C111.393 56.4627 111.429 56.2418 111.512 56.0327C111.595 55.8237 111.723 55.6321 111.884 55.4728C112.571 54.7928 113.044 53.9995 113.304 53.0928C113.335 52.9843 113.316 52.8555 113.25 52.7246C113.184 52.5938 113.073 52.4672 112.934 52.3628C110.164 50.2728 106.844 50.4428 104.354 49.5028C100.074 47.8828 95.941 45.9595 91.9543 43.7328C102.268 30.3395 110.681 20.4361 117.194 14.0228C124.464 6.8528 141.314 -4.6972 151.124 4.2728C157.344 9.9628 153.294 20.5728 149.884 27.7128C145.504 36.9028 137.064 43.6828 136.154 57.5328C134.894 76.9928 139.054 100.833 120.124 113.843C114.998 117.363 109.394 119.856 103.314 121.323C98.9476 122.376 96.1143 123.216 94.8143 123.843C77.8643 132.063 72.9443 154.463 72.3243 171.343C71.731 187.563 71.651 203.789 72.0843 220.023C72.1443 222.043 70.8943 228.013 68.1743 229.953C64.2343 232.763 59.3443 230.743 57.5243 226.453C56.211 223.346 55.391 219.846 55.0643 215.953C53.6143 198.623 53.0943 152.303 24.9743 155.303C15.2843 156.333 1.9843 156.103 1.0443 142.983C0.304297 132.523 8.9643 128.743 17.3943 124.023C25.3643 119.553 32.1743 113.423 38.2743 107.093C45.0143 100.086 52.4076 91.9661 60.4543 82.7328Z" fill="#61ADC3"/>
<path d="M7.35434 60.0627C5.53434 59.7561 4.27434 59.4527 3.57434 59.1527C1.90101 58.4261 1.73768 57.4194 3.08434 56.1327L7.74435 51.6727C7.96337 51.4604 8.09886 51.1502 8.12434 50.8027C8.32434 47.3527 6.79435 32.3527 13.0643 34.4227C13.3689 34.5201 13.6232 34.7073 13.7843 34.9527L17.2743 40.2127C17.4593 40.4948 17.7605 40.6895 18.1203 40.7596C18.4801 40.8297 18.8731 40.7703 19.2243 40.5927C23.0177 38.6661 27.001 37.3694 31.1743 36.7027C32.6943 36.4627 33.151 37.0294 32.5443 38.4027C30.6943 42.5727 27.4643 45.7027 25.4943 49.6727C24.9277 50.8061 25.0843 51.8327 25.9643 52.7527C32.1443 59.1827 37.1043 61.9627 37.1043 71.9627C37.1043 73.1361 36.5977 73.4261 35.5843 72.8327C26.3943 67.5027 18.1443 61.8927 7.35434 60.0627Z" fill="#FD5333"/>
<path d="M91.9551 43.7324C95.9417 45.9591 100.075 47.8824 104.355 49.5024C106.845 50.4424 110.165 50.2724 112.935 52.3624C113.074 52.4669 113.184 52.5934 113.251 52.7243C113.317 52.8552 113.336 52.9839 113.305 53.0924C113.045 53.9991 112.572 54.7924 111.885 55.4724C111.723 55.6317 111.596 55.8233 111.513 56.0323C111.43 56.2414 111.393 56.4623 111.406 56.678C111.418 56.8936 111.48 57.0982 111.586 57.2759C111.691 57.4535 111.838 57.5995 112.015 57.7024C114.968 59.4158 118.068 60.7691 121.315 61.7624C123.805 62.5124 125.725 64.1024 128.245 64.9824C129.805 65.5224 130.698 66.4758 130.925 67.8424C131.865 73.6024 124.815 63.1524 123.355 70.2924C123.33 70.4219 123.337 70.5659 123.377 70.7156C123.417 70.8653 123.487 71.0175 123.585 71.1624C125.252 73.5491 127.275 75.6058 129.655 77.3324C130.342 77.8324 130.218 78.2658 129.285 78.6324L125.725 80.0324C125.484 80.1284 125.265 80.2936 125.086 80.5144C124.907 80.7352 124.773 81.0053 124.695 81.3024L123.365 86.5424C123.312 86.7551 123.277 86.9526 123.263 87.1192C123.249 87.2858 123.257 87.417 123.285 87.5024C123.725 88.9758 125.322 90.1424 128.075 91.0024C128.236 91.054 128.382 91.1453 128.499 91.2679C128.615 91.3904 128.699 91.5401 128.742 91.703C128.785 91.8659 128.786 92.0367 128.744 92.1992C128.703 92.3618 128.621 92.5108 128.505 92.6324C125.675 95.6224 123.375 93.7724 120.095 93.7524C114.982 93.7191 114.295 94.5458 118.035 96.2324C119.735 97.0024 120.755 98.2824 122.445 99.1424C123.925 99.9124 126.415 99.2024 127.325 101.312C128.405 103.832 125.915 105.402 123.675 105.672C120.315 106.086 117.302 105.649 114.635 104.362C114.486 104.291 114.326 104.253 114.17 104.251C114.014 104.249 113.865 104.284 113.735 104.352C109.605 106.442 116.955 108.872 114.485 112.542C114.304 112.8 114.027 112.985 113.705 113.062C109.685 114.082 96.4151 114.932 94.1751 109.632C92.8851 106.592 91.5251 105.512 88.6751 104.362C88.5015 104.293 88.3266 104.258 88.1708 104.262C88.0149 104.266 87.8846 104.307 87.7951 104.382L84.9451 106.762C84.842 106.848 84.7666 106.961 84.7256 107.09C84.6845 107.219 84.6791 107.362 84.7096 107.504C84.7401 107.647 84.8058 107.786 84.9008 107.91C84.9959 108.033 85.1175 108.137 85.2551 108.212C86.3617 108.819 87.4417 109.459 88.4951 110.132C90.7951 111.602 92.2451 114.082 94.8251 115.692C95.1207 115.879 95.3311 116.143 95.4151 116.432C95.7884 117.712 95.5517 118.582 94.7051 119.042C91.1917 120.949 88.6417 123.176 87.0551 125.722C86.9718 125.852 86.8593 125.96 86.727 126.037C86.5947 126.113 86.4465 126.156 86.2951 126.162C80.8951 126.282 76.5751 126.952 71.3551 123.702C67.9351 121.592 65.2651 119.402 61.8151 123.202C61.5667 123.475 61.4274 123.831 61.4238 124.201C61.4201 124.571 61.5522 124.931 61.7951 125.212C64.3951 128.199 67.5084 130.496 71.1351 132.102C73.8251 133.292 75.1651 131.882 77.5451 135.202C77.6724 135.382 77.7585 135.588 77.7972 135.805C77.8359 136.023 77.8263 136.245 77.769 136.458C77.7117 136.671 77.6081 136.869 77.4657 137.037C77.3233 137.206 77.1456 137.341 76.9451 137.432C73.2151 139.132 71.4351 137.102 68.2851 136.882C63.2651 136.532 58.7051 136.272 53.9751 138.282C53.819 138.348 53.6565 138.382 53.4991 138.382C53.3418 138.382 53.1936 138.348 53.0651 138.282C52.1717 137.816 51.2251 136.849 50.2251 135.382C50.0649 135.146 49.8445 134.966 49.6041 134.874C49.3636 134.783 49.1191 134.785 48.9151 134.882C46.6817 135.956 44.4517 136.002 42.2251 135.022C42.1041 134.97 41.96 134.968 41.8142 135.016C41.6683 135.065 41.5284 135.162 41.4151 135.292C36.7451 140.872 41.1851 143.352 45.0751 146.512C45.2894 146.686 45.4761 146.863 45.6075 147.016C45.739 147.169 45.8082 147.29 45.8051 147.362C45.7384 148.642 45.1284 149.632 43.9751 150.332C43.9039 150.377 43.7779 150.38 43.6147 150.341C43.4515 150.302 43.2593 150.222 43.0651 150.112C37.0917 146.779 30.8151 144.126 24.2351 142.152C24.1314 142.122 24.0316 142.078 23.9426 142.024C23.8536 141.97 23.7775 141.908 23.7195 141.84C23.6615 141.773 23.6231 141.702 23.6068 141.634C23.5905 141.565 23.5967 141.5 23.6251 141.442C24.5051 139.596 26.1284 138.819 28.4951 139.112C28.8717 139.161 29.292 139.07 29.7134 138.851C30.1349 138.631 30.5425 138.29 30.8951 137.862C32.1151 136.362 24.8151 134.032 23.9751 133.862C23.7525 133.815 23.5521 133.754 23.3879 133.684C23.2237 133.613 23.0999 133.534 23.0251 133.452C22.3117 132.699 21.4817 132.112 20.5351 131.692C20.3743 131.621 20.2339 131.517 20.1259 131.388C20.018 131.259 19.9456 131.109 19.9151 130.952C19.3551 128.092 22.0451 128.352 23.8851 128.922C26.0851 129.602 28.3551 129.889 30.6951 129.782C30.9832 129.77 31.2851 129.619 31.5351 129.362L35.6251 125.202C35.7363 125.09 35.8085 124.943 35.8318 124.782C35.8551 124.621 35.8283 124.453 35.7551 124.302C33.1951 118.902 37.8251 115.442 42.7551 117.842C43.0617 117.989 43.3784 118.052 43.7051 118.032C48.5584 117.692 53.4151 117.726 58.2751 118.132C58.6366 118.165 58.9729 118.09 59.2251 117.922C61.4451 116.392 59.1051 114.952 57.6851 114.312C53.8051 112.539 49.9051 110.766 45.9851 108.992C45.8802 108.945 45.788 108.873 45.7158 108.783C45.6435 108.693 45.5933 108.588 45.569 108.475C45.5447 108.363 45.5471 108.246 45.5759 108.134C45.6048 108.023 45.6593 107.919 45.7351 107.832C48.8551 104.292 51.8851 107.892 55.3051 105.792C55.4397 105.708 55.5535 105.6 55.6383 105.475C55.723 105.351 55.7766 105.213 55.7951 105.072C56.2817 101.239 57.1917 97.4924 58.5251 93.8324C58.9984 92.5324 59.7884 92.2858 60.8951 93.0924L66.5251 97.2124C66.7084 97.3493 66.905 97.4452 67.0865 97.4866C67.268 97.5279 67.425 97.5125 67.5351 97.4424L72.4851 94.2724C72.6727 94.1543 72.8535 94.0442 72.9973 93.9604C73.141 93.8767 73.2391 93.8245 73.2751 93.8124C75.3417 93.7724 76.5484 93.2158 76.8951 92.1424C77.4084 90.5558 76.8484 89.5958 75.2151 89.2624C71.1851 88.4224 66.5451 87.8424 63.5851 85.1324C62.6117 84.2391 61.5684 83.4391 60.4551 82.7324L91.9551 43.7324Z" fill="#68B5CB"/>
<path d="M19.5017 238.802C19.6279 238.806 19.7503 238.843 19.8575 238.91C19.9647 238.978 20.0532 239.073 20.115 239.188C20.1767 239.302 20.2097 239.432 20.2109 239.566C20.2121 239.699 20.1814 239.832 20.1217 239.952L16.2217 247.772C15.6883 248.839 15.7683 249.829 16.4617 250.742L20.0317 255.442C20.113 255.55 20.1515 255.686 20.1406 255.827C20.1296 255.967 20.0699 256.104 19.9717 256.212C15.7317 260.992 -2.53834 243.932 5.20166 237.662C5.86166 237.122 6.255 237.269 6.38166 238.102C6.68833 240.122 7.88166 241.269 9.96166 241.542C10.2891 241.587 10.6287 241.502 10.9117 241.302C13.5183 239.516 16.3817 238.682 19.5017 238.802Z" fill="#F8573B"/>
</svg>
