<svg width="88" height="80" viewBox="0 0 88 80" fill="none" xmlns="http://www.w3.org/2000/svg">
<path d="M39.6262 0.907728C59.9362 -3.23227 75.1362 7.17772 83.9462 24.2177C89.3462 34.6577 88.3262 45.0577 81.7662 55.0277C69.8329 73.1544 53.0396 81.3811 31.3862 79.7077C28.9529 79.5211 24.7296 78.4511 18.7162 76.4977C4.88623 72.0077 -1.10376 61.3877 0.166236 47.0877C0.466236 43.6377 0.066237 40.0677 0.966237 36.8777C4.63624 23.8077 12.7862 11.4677 26.1962 6.87773C26.5629 6.75106 26.8562 6.56773 27.0762 6.32773C28.6962 4.56106 30.7296 3.72106 33.1762 3.80773C33.4482 3.81439 33.7607 3.71256 34.0662 3.51773C36.2462 2.0844 38.0996 1.21439 39.6262 0.907728ZM49.5862 7.37773C49.1796 8.29106 49.4129 8.67106 50.2862 8.51773L52.6162 8.10773C52.7286 8.08768 52.8367 8.04818 52.9333 7.9919C53.0299 7.93561 53.1127 7.86384 53.1762 7.78142C53.2397 7.69899 53.2823 7.60782 53.3013 7.51404C53.3203 7.42026 53.3152 7.32605 53.2862 7.23773C52.2462 4.11773 51.0129 4.1644 49.5862 7.37773ZM42.1182 8.67463C42.2127 8.76209 42.3446 8.80712 42.5067 8.80717C42.6687 8.80721 42.8576 8.76226 43.0625 8.67488C43.2675 8.58749 43.4845 8.4594 43.7012 8.2979C43.9178 8.1364 44.1299 7.94466 44.3253 7.73363C44.5208 7.5226 44.6957 7.29642 44.8401 7.06799C44.9845 6.83956 45.0955 6.61336 45.1669 6.4023C45.2383 6.19125 45.2687 5.99948 45.2562 5.83794C45.2437 5.6764 45.1887 5.54826 45.0942 5.46083C44.9998 5.37337 44.8678 5.32834 44.7058 5.32829C44.5438 5.32825 44.3549 5.3732 44.15 5.46058C43.945 5.54797 43.728 5.67606 43.5113 5.83756C43.2947 5.99906 43.0825 6.1908 42.8871 6.40183C42.6917 6.61286 42.5168 6.83904 42.3724 7.06747C42.228 7.2959 42.1169 7.5221 42.0455 7.73315C41.9741 7.9442 41.9438 8.13597 41.9563 8.29751C41.9688 8.45905 42.0238 8.5872 42.1182 8.67463Z" fill="#72689E"/>
</svg>
