<svg width="75" height="72" viewBox="0 0 75 72" fill="none" xmlns="http://www.w3.org/2000/svg">
<path d="M24.833 11.7637L27.473 28.4637C27.4837 28.5323 27.4789 28.6024 27.4586 28.6689C27.4384 28.7353 27.4035 28.7963 27.3563 28.8473C27.3092 28.8983 27.2511 28.938 27.1864 28.9633C27.1218 28.9887 27.0522 28.999 26.983 28.9937C19.863 28.3937 12.7163 28.3037 5.54297 28.7237" stroke="#A9AECB" stroke-width="2"/>
<path d="M5.54498 28.7233C4.10498 28.5633 2.77165 28.7533 1.54498 29.2933C1.39625 29.3598 1.26849 29.4609 1.17521 29.5859C1.08192 29.7108 1.02656 29.8551 1.01498 30.0033C0.944981 31.0033 1.19498 31.4033 2.10498 31.8733C14.045 38.1533 25.325 46.5433 36.065 54.6833C43.365 60.2233 65.215 74.0233 72.495 69.6533C72.7631 69.4934 72.9661 69.2434 73.0685 68.9472C73.1709 68.651 73.1661 68.3275 73.055 68.0333C70.895 62.4133 68.405 57.6933 64.735 52.4033C55.4883 39.07 46.2583 25.7266 37.045 12.3733C33.875 7.77329 30.475 4.66328 26.155 1.63328C24.555 0.506613 23.8416 0.883285 24.015 2.76328L24.835 11.7633" stroke="#A3A8C5" stroke-width="2"/>
<path d="M5.54297 28.7232C6.76297 28.6299 7.58964 29.1132 8.02297 30.1732C8.09988 30.3613 8.19655 30.5261 8.3046 30.6533C8.41264 30.7805 8.52879 30.8663 8.64297 30.9032C9.8163 31.2832 10.8196 31.9566 11.653 32.9232C11.7187 33.0001 11.8343 33.0686 11.9895 33.1227C12.1447 33.1768 12.3348 33.2147 12.543 33.2332L16.293 33.5532C16.6456 33.5853 16.9431 33.7071 17.123 33.8932C19.7496 36.5399 22.4063 39.1599 25.093 41.7532C26.783 43.3832 29.493 43.5932 31.503 44.9632C38.3763 49.6299 45.3063 54.2033 52.293 58.6833C53.563 59.5033 54.973 59.5432 55.813 58.2232C55.8589 58.1502 55.894 58.0697 55.9153 57.9882C55.9367 57.9067 55.9438 57.8266 55.936 57.7544C55.9282 57.6822 55.9057 57.62 55.8705 57.5729C55.8352 57.5257 55.788 57.495 55.733 57.4832C54.953 57.2966 54.1396 57.3232 53.293 57.5632C53.1665 57.598 53.0211 57.5694 52.881 57.482C52.7409 57.3947 52.6145 57.2539 52.523 57.0832C51.3763 54.9232 51.1863 52.7332 51.953 50.5132C52.0261 50.3027 52.1484 50.113 52.3105 49.959C52.4726 49.8049 52.67 49.6906 52.8876 49.6248C53.1052 49.559 53.3371 49.5436 53.5652 49.5798C53.7933 49.6159 54.0115 49.7027 54.203 49.8332L57.033 51.7632C57.1673 51.857 57.2791 51.9737 57.3603 52.1051C57.4416 52.2365 57.4903 52.3793 57.503 52.5232L57.703 55.0632C57.7174 55.2276 57.7815 55.3824 57.886 55.5048C57.9904 55.6273 58.1296 55.7109 58.283 55.7432C59.3696 55.9699 60.213 55.6499 60.813 54.7832C60.8629 54.7087 60.8594 54.5798 60.803 54.418C60.7466 54.2561 60.6407 54.0709 60.503 53.8932C57.8363 50.4199 55.4163 46.7799 53.243 42.9732C52.563 41.7832 51.203 40.5232 50.833 38.7632C50.393 36.6832 49.143 35.9332 47.083 36.5132" stroke="#4C5791" stroke-width="2"/>
<path d="M47.083 36.5127L45.543 34.9727" stroke="#5A679A" stroke-width="2"/>
<path d="M45.5439 34.9737C45.4706 33.847 45.8506 32.967 46.6839 32.3337C46.8713 32.196 47.0274 32.0425 47.1311 31.8941C47.2349 31.7456 47.2812 31.6094 47.2639 31.5037C47.1572 30.8503 46.7539 30.607 46.0539 30.7737C45.7472 30.847 45.4739 30.9903 45.2339 31.2037L43.2239 32.9337C43.1733 32.9777 43.1116 33.007 43.0427 33.0197C42.9738 33.0324 42.8993 33.0283 42.8239 33.0076C42.7486 32.9868 42.6741 32.95 42.6052 32.8994C42.5363 32.8487 42.4745 32.7855 42.4239 32.7137L39.7539 29.0137" stroke="#4C5791" stroke-width="2"/>
<path d="M39.7539 29.0126C40.0806 28.1793 40.5606 27.4493 41.1939 26.8226C41.2491 26.7707 41.296 26.7104 41.3316 26.646C41.3671 26.5815 41.3904 26.5142 41.3999 26.4488C41.4094 26.3834 41.4048 26.3213 41.3865 26.2668C41.3682 26.2122 41.3367 26.1665 41.2939 26.1326C41.1672 26.026 41.0006 25.9727 40.7939 25.9727" stroke="#576298" stroke-width="2"/>
<path d="M40.7959 25.9735C39.7293 24.8868 39.1426 23.5668 39.0359 22.0134C39.0234 21.8669 38.9728 21.7215 38.8879 21.5881C38.803 21.4547 38.6861 21.3369 38.5459 21.2434L33.4559 17.8534C33.3036 17.7512 33.1856 17.6123 33.1233 17.462C33.0609 17.3116 33.0583 17.1596 33.116 17.0335L33.8559 15.4334C33.9256 15.2831 33.9642 15.129 33.966 14.994C33.9678 14.859 33.9328 14.7502 33.866 14.6834L27.9359 8.63344C26.9826 7.66011 26.5193 7.85344 26.5459 9.21344C26.5726 10.5468 26.0026 11.3968 24.8359 11.7634" stroke="#4C5791" stroke-width="2"/>
<path d="M40.7925 25.9736L37.5626 26.9536C37.4383 26.991 37.3011 26.9692 37.1798 26.8927C37.0585 26.8162 36.9627 26.691 36.9125 26.5436C36.4025 25.1536 33.6525 17.6236 32.0825 17.7236C32.0064 17.7284 31.9317 17.7463 31.863 17.7763C31.7943 17.8062 31.733 17.8476 31.6826 17.898C31.6323 17.9483 31.5939 18.0066 31.5698 18.0695C31.5458 18.1323 31.5365 18.1983 31.5425 18.2636C31.6225 19.1503 31.4559 19.9836 31.0425 20.7636C31.0062 20.8233 31.022 20.9455 31.0873 21.1106C31.1526 21.2757 31.2637 21.4741 31.4025 21.6736L34.2425 25.8136C34.3184 25.9273 34.3699 26.072 34.394 26.2388C34.4181 26.4056 34.4142 26.591 34.3825 26.7836C34.0425 28.7103 34.0926 30.6203 34.5326 32.5136C34.5552 32.6099 34.604 32.6972 34.6743 32.767C34.7446 32.8368 34.8339 32.8866 34.9336 32.9118C35.0332 32.937 35.1399 32.9366 35.2431 32.9106C35.3463 32.8846 35.4426 32.834 35.5225 32.7636L39.7526 29.0136" stroke="#5D689D" stroke-width="2"/>
<path d="M45.5429 34.9738C42.9929 34.1438 44.8029 38.1538 46.1329 38.8838C46.1911 38.9174 46.2558 38.9384 46.3229 38.9455C46.39 38.9526 46.458 38.9456 46.5227 38.9249C46.5874 38.9043 46.6475 38.8704 46.6991 38.8255C46.7508 38.7806 46.7929 38.7256 46.8229 38.6638C47.1429 37.9772 47.2295 37.2605 47.0829 36.5139" stroke="#606DA0" stroke-width="2"/>
<path d="M5.54107 28.7243C6.76107 28.6309 7.58774 29.1143 8.02108 30.1743C8.09798 30.3623 8.19465 30.5271 8.3027 30.6544C8.41075 30.7816 8.5269 30.8674 8.64107 30.9043C9.81441 31.2843 10.8177 31.9576 11.6511 32.9243C11.7168 33.0011 11.8324 33.0697 11.9876 33.1237C12.1429 33.1778 12.3329 33.2158 12.5411 33.2343L16.2911 33.5543C16.6437 33.5863 16.9412 33.7081 17.1211 33.8943C19.7477 36.5409 22.4044 39.1609 25.0911 41.7543C26.7811 43.3843 29.4911 43.5943 31.5011 44.9643C38.3744 49.6309 45.3044 54.2043 52.2911 58.6843C53.5611 59.5043 54.9711 59.5443 55.8111 58.2243C55.857 58.1512 55.8921 58.0707 55.9134 57.9892C55.9348 57.9077 55.9419 57.8276 55.9341 57.7554C55.9263 57.6832 55.9038 57.621 55.8686 57.5739C55.8333 57.5268 55.7862 57.4961 55.7311 57.4843C54.9511 57.2976 54.1377 57.3242 53.2911 57.5643C53.1646 57.599 53.0192 57.5704 52.8791 57.483C52.739 57.3957 52.6126 57.255 52.5211 57.0843C51.3744 54.9243 51.1844 52.7343 51.9511 50.5143C52.0242 50.3037 52.1465 50.1141 52.3086 49.96C52.4707 49.8059 52.6681 49.6916 52.8857 49.6258C53.1033 49.5601 53.3352 49.5446 53.5633 49.5808C53.7914 49.6169 54.0096 49.7037 54.2011 49.8343L57.0311 51.7643C57.1654 51.858 57.2772 51.9748 57.3584 52.1062C57.4397 52.2375 57.4884 52.3803 57.5011 52.5243L57.7011 55.0643C57.7155 55.2286 57.7796 55.3834 57.8841 55.5059C57.9885 55.6283 58.1277 55.7119 58.2811 55.7443C59.3677 55.9709 60.2111 55.6509 60.8111 54.7843C60.861 54.7098 60.8575 54.5809 60.8011 54.419C60.7447 54.2571 60.6388 54.0719 60.5011 53.8943C57.8344 50.4209 55.4144 46.7809 53.2411 42.9743C52.5611 41.7843 51.2011 40.5243 50.8311 38.7643C50.3911 36.6843 49.1411 35.9343 47.0811 36.5143L45.5411 34.9743C45.4677 33.8476 45.8477 32.9676 46.6811 32.3343C46.8685 32.1965 47.0246 32.0431 47.1283 31.8946C47.232 31.7462 47.2784 31.6099 47.2611 31.5043C47.1544 30.8509 46.7511 30.6076 46.0511 30.7743C45.7444 30.8476 45.4711 30.9909 45.2311 31.2043L43.2211 32.9343C43.1705 32.9782 43.1087 33.0076 43.0399 33.0203C42.971 33.033 42.8965 33.0289 42.8211 33.0081C42.7458 32.9874 42.6712 32.9506 42.6024 32.8999C42.5335 32.8493 42.4717 32.7861 42.4211 32.7143L39.7511 29.0143C40.0777 28.1809 40.5577 27.4509 41.1911 26.8243C41.2463 26.7723 41.2932 26.7121 41.3288 26.6476C41.3643 26.5831 41.3876 26.5158 41.3971 26.4504C41.4066 26.385 41.402 26.3229 41.3837 26.2684C41.3654 26.2138 41.3338 26.1681 41.2911 26.1343C41.1644 26.0276 40.9977 25.9743 40.7911 25.9743C39.7244 24.8876 39.1377 23.5676 39.0311 22.0143C39.0185 21.8678 38.9679 21.7223 38.883 21.5889C38.7982 21.4556 38.6812 21.3377 38.5411 21.2443L33.4511 17.8543C33.2987 17.752 33.1807 17.6132 33.1184 17.4628C33.056 17.3124 33.0535 17.1604 33.1111 17.0343L33.8511 15.4343C33.9208 15.2839 33.9594 15.1299 33.9612 14.9949C33.963 14.8598 33.9279 14.751 33.8611 14.6843L27.9311 8.63426C26.9777 7.66092 26.5144 7.85426 26.5411 9.21426C26.5677 10.5476 25.9977 11.3976 24.8311 11.7643L24.0111 2.76426C23.8377 0.884261 24.5511 0.50759 26.1511 1.63426C30.4711 4.66426 33.8711 7.77426 37.0411 12.3743C46.2544 25.7276 55.4844 39.0709 64.7311 52.4043C68.4011 57.6943 70.8911 62.4142 73.0511 68.0342C73.1622 68.3285 73.167 68.652 73.0646 68.9482C72.9622 69.2444 72.7592 69.4943 72.4911 69.6543C65.2111 74.0243 43.3611 60.2243 36.0611 54.6843C25.3211 46.5443 14.0411 38.1543 2.10107 31.8743C1.19107 31.4043 0.941074 31.0043 1.01107 30.0043C1.02266 29.856 1.07801 29.7118 1.1713 29.5868C1.26459 29.4619 1.39234 29.3608 1.54107 29.2943C2.76774 28.7543 4.10107 28.5643 5.54107 28.7243Z" fill="#46518B"/>
<path d="M40.793 25.9735L37.563 26.9534C37.4387 26.9908 37.3015 26.969 37.1802 26.8925C37.0589 26.816 36.9631 26.6908 36.913 26.5434C36.403 25.1534 33.653 17.6235 32.083 17.7235C32.0068 17.7282 31.9321 17.7461 31.8634 17.7761C31.7948 17.806 31.7334 17.8474 31.683 17.8978C31.6327 17.9481 31.5943 18.0064 31.5703 18.0693C31.5462 18.1321 31.5369 18.1981 31.543 18.2634C31.623 19.1501 31.4563 19.9834 31.043 20.7634C31.0066 20.8231 31.0224 20.9453 31.0877 21.1104C31.153 21.2755 31.2641 21.4739 31.403 21.6735L34.243 25.8134C34.3188 25.9272 34.3703 26.0718 34.3944 26.2386C34.4185 26.4054 34.4146 26.5908 34.383 26.7835C34.043 28.7101 34.093 30.6201 34.533 32.5134C34.5556 32.6097 34.6045 32.697 34.6747 32.7668C34.745 32.8366 34.8343 32.8865 34.934 32.9116C35.0337 32.9368 35.1403 32.9364 35.2435 32.9104C35.3467 32.8844 35.443 32.8338 35.523 32.7634L39.753 29.0134L42.423 32.7134C42.4736 32.7853 42.5354 32.8485 42.6042 32.8991C42.6731 32.9497 42.7477 32.9866 42.823 33.0073C42.8984 33.028 42.9729 33.0322 43.0418 33.0195C43.1106 33.0067 43.1724 32.9774 43.223 32.9334L45.233 31.2034C45.473 30.9901 45.7463 30.8468 46.053 30.7734C46.753 30.6068 47.1563 30.8501 47.263 31.5035C47.2803 31.6091 47.2339 31.7454 47.1302 31.8938C47.0265 32.0423 46.8704 32.1957 46.683 32.3335C45.8496 32.9668 45.4696 33.8468 45.543 34.9734C42.993 34.1434 44.803 38.1534 46.133 38.8834C46.1912 38.917 46.2559 38.938 46.323 38.9451C46.39 38.9522 46.4581 38.9452 46.5228 38.9245C46.5875 38.9039 46.6476 38.87 46.6992 38.8251C46.7509 38.7802 46.793 38.7252 46.823 38.6634C47.143 37.9768 47.2296 37.2601 47.083 36.5134C49.143 35.9334 50.393 36.6834 50.833 38.7634C51.203 40.5234 52.563 41.7834 53.243 42.9734C55.4163 46.7801 57.8363 50.4201 60.503 53.8935C60.6407 54.0711 60.7466 54.2563 60.803 54.4182C60.8594 54.5801 60.8629 54.7089 60.813 54.7834C60.213 55.6501 59.3696 55.9701 58.283 55.7435C58.1296 55.7111 57.9904 55.6275 57.886 55.5051C57.7815 55.3826 57.7174 55.2278 57.703 55.0634L57.503 52.5235C57.4903 52.3795 57.4416 52.2367 57.3603 52.1053C57.2791 51.974 57.1673 51.8572 57.033 51.7634L54.203 49.8335C54.0115 49.7029 53.7933 49.6161 53.5652 49.58C53.3371 49.5438 53.1052 49.5593 52.8876 49.625C52.67 49.6908 52.4726 49.8051 52.3105 49.9592C52.1484 50.1133 52.0261 50.3029 51.953 50.5134C51.1863 52.7334 51.3763 54.9235 52.523 57.0835C52.6145 57.2542 52.7409 57.3949 52.881 57.4822C53.0211 57.5696 53.1665 57.5982 53.293 57.5634C54.1396 57.3234 54.953 57.2968 55.733 57.4834C55.788 57.4952 55.8352 57.5259 55.8705 57.5731C55.9057 57.6202 55.9282 57.6824 55.936 57.7546C55.9438 57.8268 55.9367 57.9069 55.9153 57.9884C55.894 58.0699 55.8589 58.1504 55.813 58.2234C54.973 59.5434 53.563 59.5035 52.293 58.6835C45.3063 54.2035 38.3763 49.6301 31.503 44.9635C29.493 43.5935 26.783 43.3834 25.093 41.7534C22.4063 39.1601 19.7496 36.5401 17.123 33.8935C16.9431 33.7073 16.6456 33.5855 16.293 33.5535L12.543 33.2334C12.3348 33.2149 12.1447 33.177 11.9895 33.1229C11.8343 33.0688 11.7187 33.0003 11.653 32.9235C10.8196 31.9568 9.8163 31.2834 8.64297 30.9034C8.52879 30.8665 8.41264 30.7808 8.3046 30.6535C8.19655 30.5263 8.09988 30.3615 8.02297 30.1735C7.58964 29.1135 6.76297 28.6301 5.54297 28.7235C12.7163 28.3035 19.863 28.3934 26.983 28.9934C27.0522 28.9988 27.1218 28.9884 27.1864 28.9631C27.2511 28.9377 27.3092 28.8981 27.3563 28.8471C27.4035 28.7961 27.4384 28.7351 27.4586 28.6687C27.4789 28.6022 27.4837 28.5321 27.473 28.4634L24.833 11.7634C25.9996 11.3968 26.5696 10.5468 26.543 9.21344C26.5163 7.85344 26.9796 7.66011 27.933 8.63344L33.863 14.6834C33.9298 14.7502 33.9649 14.859 33.9631 14.994C33.9613 15.129 33.9227 15.2831 33.853 15.4334L33.113 17.0335C33.0554 17.1596 33.0579 17.3116 33.1203 17.462C33.1826 17.6123 33.3006 17.7512 33.453 17.8534L38.543 21.2434C38.6831 21.3369 38.8001 21.4547 38.8849 21.5881C38.9698 21.7215 39.0204 21.8669 39.033 22.0134C39.1396 23.5668 39.7263 24.8868 40.793 25.9735Z" fill="#525D96"/>
<path d="M40.7925 25.9736C40.9992 25.9736 41.1659 26.027 41.2925 26.1336C41.3353 26.1675 41.3669 26.2132 41.3852 26.2678C41.4035 26.3223 41.408 26.3844 41.3986 26.4498C41.3891 26.5152 41.3658 26.5824 41.3302 26.6469C41.2947 26.7114 41.2477 26.7717 41.1925 26.8236C40.5592 27.4503 40.0792 28.1803 39.7526 29.0136L35.5225 32.7636C35.4426 32.834 35.3463 32.8846 35.2431 32.9106C35.1399 32.9366 35.0332 32.937 34.9336 32.9118C34.8339 32.8866 34.7446 32.8368 34.6743 32.767C34.604 32.6972 34.5552 32.6099 34.5326 32.5136C34.0926 30.6203 34.0425 28.7103 34.3825 26.7836C34.4142 26.591 34.4181 26.4056 34.394 26.2388C34.3699 26.072 34.3184 25.9273 34.2425 25.8136L31.4025 21.6736C31.2637 21.4741 31.1526 21.2757 31.0873 21.1106C31.022 20.9455 31.0062 20.8233 31.0425 20.7636C31.4559 19.9836 31.6225 19.1503 31.5425 18.2636C31.5365 18.1983 31.5458 18.1323 31.5698 18.0695C31.5939 18.0066 31.6323 17.9483 31.6826 17.898C31.733 17.8476 31.7943 17.8062 31.863 17.7763C31.9317 17.7463 32.0064 17.7284 32.0825 17.7236C33.6525 17.6236 36.4025 25.1536 36.9125 26.5436C36.9627 26.691 37.0585 26.8162 37.1798 26.8927C37.3011 26.9692 37.4383 26.991 37.5626 26.9536L40.7925 25.9736Z" fill="#6873A4"/>
<path d="M45.5429 34.9738L47.0829 36.5139C47.2295 37.2605 47.1429 37.9772 46.8229 38.6638C46.7929 38.7256 46.7508 38.7806 46.6991 38.8255C46.6475 38.8704 46.5874 38.9043 46.5227 38.9249C46.458 38.9456 46.39 38.9526 46.3229 38.9455C46.2558 38.9384 46.1911 38.9174 46.1329 38.8838C44.8029 38.1538 42.9929 34.1438 45.5429 34.9738Z" fill="#6D7CA9"/>
</svg>
