<svg width="187" height="208" viewBox="0 0 187 208" fill="none" xmlns="http://www.w3.org/2000/svg">
<path d="M36.5223 9.48157C28.6023 17.2116 21.8423 29.4216 23.4923 40.5716C24.2723 45.8616 30.1523 52.1916 35.7423 52.1616C43.4623 52.1216 49.8423 48.9016 52.1923 41.3116C54.4623 34.0016 49.0623 26.8516 41.6623 32.7316C41.5424 32.8261 41.4425 32.9475 41.3686 33.0884C41.2947 33.2294 41.2483 33.387 41.2323 33.5516C41.0523 35.6216 41.2323 38.0616 39.8223 39.5616C38.0523 41.4116 35.3723 40.4716 34.4323 38.3116C33.839 36.9516 33.9056 35.3683 34.6323 33.5616C39.1823 22.2616 49.3723 11.7216 62.3123 13.6216C75.0223 15.4816 78.8523 27.8516 78.1823 39.2616C77.2323 55.3416 78.2023 65.1016 81.1123 81.8616C82.9623 92.5316 86.5123 103.742 97.1923 108.522C99.6323 109.612 102.042 109.592 104.282 108.312C105.829 107.425 105.939 106.388 104.612 105.202C95.4723 96.9515 93.3423 85.7316 92.5423 73.7316C91.7823 62.1916 90.5356 47.3416 88.8023 29.1816C87.809 18.8416 82.939 10.8149 74.1923 5.10156" stroke="#8D8F9C" stroke-width="2"/>
<path d="M74.1934 5.10172C60.6201 -1.56495 48.0634 -0.104941 36.5234 9.48173" stroke="#85868F" stroke-width="2"/>
<path d="M74.1934 5.10135L72.2234 6.32138C71.9526 6.48886 71.6249 6.54941 71.3034 6.49136C67.9434 5.86136 64.9234 4.19133 61.5534 4.27133C53.6434 4.44133 44.4134 4.77137 38.6234 10.3714C38.4971 10.4976 38.3534 10.5938 38.205 10.6514C38.0567 10.709 37.9084 10.7261 37.7734 10.7013C37.1401 10.5947 36.7234 10.188 36.5234 9.48135" stroke="#13172F" stroke-width="2"/>
<path d="M110.592 79.5618C112.539 79.6418 113.199 78.4451 112.572 75.9717C110.622 68.2317 107.922 59.8117 109.832 52.4517C114.642 33.9317 136.412 25.9118 152.752 35.1718C155.562 36.7618 159.612 42.2117 160.072 44.4717C163.242 60.0517 160.162 70.4118 156.342 89.5518C155.502 93.7618 152.652 98.1917 150.572 102.772C145.025 114.952 137.345 126.762 127.532 138.202C122.012 144.635 110.502 157.292 93.0021 176.172C87.0921 182.552 81.2321 187.252 72.8521 192.702C67.8521 195.955 63.1321 199.592 58.6921 203.612C56.5121 205.592 58.4821 207.602 60.8821 206.622C77.5721 199.832 94.9321 191.492 108.782 179.202C119.575 169.628 129.919 159.595 139.812 149.102C152.502 135.642 162.432 121.072 172.602 105.022C177.432 97.4017 183.702 87.8717 184.542 79.3917C185.822 66.6817 186.792 42.6318 177.962 32.1718C175.415 29.1584 174.102 27.5984 174.022 27.4918C165.292 16.1018 151.542 10.0718 137.302 9.56177C132.562 9.3951 128.799 9.7584 126.012 10.6517C106.359 16.9384 97.4688 30.6684 99.3421 51.8417C99.7221 56.1317 103.792 79.2918 110.592 79.5618Z" stroke="#8D8F9C" stroke-width="2"/>
<path d="M120.994 60.9414C127.704 57.6214 142.134 56.5114 139.964 68.5414C139.754 69.7014 139.944 71.2114 139.594 72.2414C136.554 81.1614 133.391 87.9114 130.104 92.4914C117.604 109.941 99.9643 129.621 83.2543 149.631C73.8343 160.911 65.0443 168.321 55.6743 177.591C52.8343 180.401 46.3843 188.081 51.0443 190.741C51.1722 190.816 51.3199 190.852 51.4704 190.845C51.6209 190.838 51.7679 190.788 51.8943 190.701C53.0477 189.928 54.4943 188.741 56.2343 187.141C59.2876 184.328 67.4176 177.878 80.6243 167.791C90.4543 160.271 96.9743 152.081 104.474 143.141C120.044 124.581 137.004 108.211 145.994 87.4214C150.984 75.9014 161.044 47.4614 140.044 45.4814C131.394 44.6714 118.574 47.5914 118.244 58.5514C118.164 61.098 119.081 61.8947 120.994 60.9414Z" stroke="#8D8F9C" stroke-width="2"/>
<path d="M33.0216 128.981C23.9816 134.101 7.96156 140.731 7.60156 153.231" stroke="#85868F" stroke-width="2"/>
<path d="M7.60473 153.232C6.32473 159.605 7.87141 164.845 12.2447 168.952C13.0647 169.719 13.9481 169.809 14.8948 169.222C15.0139 169.147 15.1084 169.032 15.1669 168.892C15.2254 168.752 15.2454 168.593 15.2247 168.432C14.3947 161.612 25.3447 154.292 29.8748 151.582C31.6048 150.542 32.7148 148.992 34.5648 147.912C41.4948 143.822 47.0347 138.752 51.9347 132.322C60.3547 121.272 60.9748 102.012 61.0948 89.3221C61.2248 74.8221 40.9548 68.712 29.3748 71.722C16.1147 75.172 1.67478 84.212 1.02478 99.672C0.778108 105.665 2.71812 111.002 6.84478 115.682C13.4448 123.162 30.6347 118.522 32.7347 108.672C33.8147 103.622 33.1248 97.882 27.3148 96.442C27.154 96.4017 26.9918 96.3951 26.842 96.4229C26.6922 96.4508 26.5593 96.5123 26.4548 96.602C25.1614 97.702 23.7014 98.502 22.0748 99.002C21.9226 99.0467 21.7854 99.139 21.6791 99.2683C21.5729 99.3976 21.502 99.5584 21.4747 99.732C21.0547 102.522 22.0747 108.422 16.8647 107.152C15.0781 106.719 14.2247 105.582 14.3047 103.742C14.6447 95.922 23.0247 88.182 30.0447 85.952C33.9547 84.702 37.4748 85.312 41.3248 86.372C46.3948 87.762 49.1547 91.042 50.2347 95.982C53.4447 110.752 44.3148 121.172 33.0248 128.982" stroke="#8D8F9C" stroke-width="2"/>
<path d="M7.60156 153.231C9.06156 152.765 10.0382 151.661 10.5316 149.921C11.8016 145.461 16.2916 141.741 20.6616 138.651C22.0416 137.681 23.8716 135.841 26.0516 135.101C29.3316 133.991 30.5416 133.121 32.8316 131.121C32.9682 131.006 33.075 130.868 33.1416 130.72C33.2082 130.573 33.2324 130.422 33.2116 130.281L33.0216 128.981" stroke="#13172F" stroke-width="2"/>
<path d="M129.444 146.342C129.311 145.675 128.961 145.189 128.394 144.882C128.283 144.824 128.148 144.81 128.008 144.84C127.868 144.871 127.731 144.945 127.614 145.052C127.301 145.352 127.201 145.749 127.314 146.242C127.398 146.618 127.391 146.963 127.294 147.222L126.894 148.302C126.853 148.41 126.752 148.515 126.604 148.605C126.456 148.695 126.265 148.767 126.054 148.812C123.284 149.412 121.254 153.302 119.704 156.032C116.114 162.362 111.324 166.342 105.584 171.752C104.317 172.939 104.454 173.642 105.994 173.862C106.144 173.883 106.299 173.869 106.448 173.818C106.597 173.768 106.736 173.684 106.854 173.572C110.044 170.542 112.574 167.202 115.864 164.172C116.877 163.239 117.861 162.009 118.814 160.482C120.654 157.532 125.244 154.852 127.614 150.892C127.707 150.739 127.825 150.613 127.951 150.532C128.076 150.451 128.204 150.419 128.314 150.442C129.781 150.749 130.921 150.319 131.734 149.152C131.897 148.911 132.169 148.698 132.514 148.542C134.294 147.732 144.504 142.762 137.774 142.392C137.445 142.372 137.098 142.482 136.794 142.702L131.154 146.812C131.002 146.923 130.825 147 130.641 147.036C130.457 147.073 130.271 147.067 130.101 147.02C129.931 146.973 129.781 146.887 129.666 146.768C129.552 146.65 129.475 146.503 129.444 146.342Z" stroke="#222742" stroke-width="2"/>
<path d="M74.1934 5.10172L72.2234 6.32175C71.9526 6.48924 71.6249 6.54978 71.3034 6.49174C67.9434 5.86174 64.9234 4.1917 61.5534 4.2717C53.6434 4.4417 44.4134 4.77174 38.6234 10.3717C38.4971 10.498 38.3534 10.5942 38.205 10.6518C38.0567 10.7094 37.9084 10.7265 37.7734 10.7017C37.1401 10.595 36.7234 10.1884 36.5234 9.48173C48.0634 -0.104941 60.6201 -1.56495 74.1934 5.10172Z" fill="#0B0E21"/>
<path d="M74.1923 5.10135C82.939 10.8147 87.809 18.8414 88.8023 29.1814C90.5356 47.3414 91.7823 62.1914 92.5423 73.7314C93.3423 85.7314 95.4723 96.9513 104.612 105.201C105.939 106.388 105.829 107.425 104.282 108.311C102.042 109.591 99.6323 109.611 97.1923 108.521C86.5123 103.741 82.9623 92.5314 81.1123 81.8614C78.2023 65.1014 77.2323 55.3414 78.1823 39.2614C78.8523 27.8514 75.0223 15.4814 62.3123 13.6214C49.3723 11.7214 39.1823 22.2614 34.6323 33.5614C33.9056 35.368 33.839 36.9514 34.4323 38.3114C35.3723 40.4714 38.0523 41.4114 39.8223 39.5614C41.2323 38.0614 41.0523 35.6214 41.2323 33.5514C41.2483 33.3867 41.2947 33.2292 41.3686 33.0882C41.4425 32.9473 41.5424 32.8259 41.6623 32.7314C49.0623 26.8514 54.4623 34.0014 52.1923 41.3114C49.8423 48.9014 43.4623 52.1213 35.7423 52.1613C30.1523 52.1913 24.2723 45.8614 23.4923 40.5714C21.8423 29.4214 28.6023 17.2114 36.5223 9.48135C36.7223 10.188 37.139 10.5947 37.7723 10.7013C37.9072 10.7261 38.0555 10.709 38.2039 10.6514C38.3523 10.5938 38.496 10.4976 38.6223 10.3714C44.4123 4.77137 53.6423 4.44133 61.5523 4.27133C64.9223 4.19133 67.9423 5.86136 71.3023 6.49136C71.6238 6.54941 71.9515 6.48886 72.2223 6.32138L74.1923 5.10135Z" fill="#1B203C"/>
<path d="M110.592 79.5618C103.792 79.2918 99.7221 56.1317 99.3421 51.8417C97.4688 30.6684 106.359 16.9384 126.012 10.6517C128.799 9.7584 132.562 9.3951 137.302 9.56177C151.542 10.0718 165.292 16.1018 174.022 27.4918C174.102 27.5984 175.415 29.1584 177.962 32.1718C186.792 42.6318 185.822 66.6817 184.542 79.3917C183.702 87.8717 177.432 97.4017 172.602 105.022C162.432 121.072 152.502 135.642 139.812 149.102C129.919 159.595 119.575 169.628 108.782 179.202C94.9321 191.492 77.5721 199.832 60.8821 206.622C58.4821 207.602 56.5121 205.592 58.6921 203.612C63.1321 199.592 67.8521 195.955 72.8521 192.702C81.2321 187.252 87.0921 182.552 93.0021 176.172C110.502 157.292 122.012 144.635 127.532 138.202C137.345 126.762 145.025 114.952 150.572 102.772C152.652 98.1917 155.502 93.7618 156.342 89.5518C160.162 70.4118 163.242 60.0517 160.072 44.4717C159.612 42.2117 155.562 36.7618 152.752 35.1718C136.412 25.9118 114.642 33.9317 109.832 52.4517C107.922 59.8117 110.622 68.2317 112.572 75.9717C113.199 78.4451 112.539 79.6418 110.592 79.5618ZM129.442 146.342C129.309 145.675 128.959 145.188 128.392 144.882C128.281 144.824 128.146 144.809 128.006 144.84C127.866 144.87 127.729 144.944 127.612 145.052C127.299 145.352 127.199 145.748 127.312 146.242C127.396 146.618 127.389 146.963 127.292 147.222L126.892 148.302C126.851 148.41 126.75 148.515 126.602 148.605C126.454 148.695 126.264 148.766 126.052 148.812C123.282 149.412 121.252 153.302 119.702 156.032C116.112 162.362 111.322 166.342 105.582 171.752C104.315 172.938 104.452 173.642 105.992 173.862C106.142 173.883 106.297 173.868 106.446 173.818C106.595 173.768 106.734 173.684 106.852 173.572C110.042 170.542 112.572 167.202 115.862 164.172C116.875 163.238 117.859 162.008 118.812 160.482C120.652 157.532 125.242 154.852 127.612 150.892C127.705 150.738 127.823 150.612 127.949 150.531C128.075 150.451 128.202 150.419 128.312 150.442C129.779 150.748 130.919 150.318 131.732 149.152C131.895 148.911 132.167 148.698 132.512 148.542C134.292 147.732 144.502 142.762 137.772 142.392C137.443 142.372 137.096 142.482 136.792 142.702L131.152 146.812C131 146.922 130.823 147 130.639 147.036C130.455 147.072 130.269 147.067 130.099 147.02C129.929 146.973 129.779 146.887 129.664 146.768C129.55 146.65 129.473 146.503 129.442 146.342Z" fill="#1B203C"/>
<path d="M139.964 68.5414C142.134 56.5114 127.704 57.6214 120.994 60.9414C119.081 61.8947 118.164 61.098 118.244 58.5514C118.574 47.5914 131.394 44.6714 140.044 45.4814C161.044 47.4614 150.984 75.9014 145.994 87.4214C137.004 108.211 120.044 124.581 104.474 143.141C96.9743 152.081 90.4543 160.271 80.6243 167.791C67.4176 177.878 59.2876 184.328 56.2343 187.141C54.4943 188.741 53.0477 189.928 51.8943 190.701C51.7679 190.788 51.6209 190.838 51.4704 190.845C51.3199 190.852 51.1722 190.816 51.0443 190.741C46.3843 188.081 52.8343 180.401 55.6743 177.591C65.0443 168.321 73.8343 160.911 83.2543 149.631C99.9643 129.621 117.604 109.941 130.104 92.4914C133.391 87.9114 136.554 81.1614 139.594 72.2414C139.944 71.2114 139.754 69.7014 139.964 68.5414Z" fill="#1B203C"/>
<path d="M7.60082 153.231C9.06083 152.764 10.0375 151.661 10.5308 149.921C11.8008 145.461 16.2908 141.741 20.6608 138.651C22.0408 137.681 23.8708 135.841 26.0508 135.101C29.3308 133.991 30.5409 133.121 32.8309 131.121C32.9675 131.005 33.0743 130.867 33.1409 130.72C33.2075 130.573 33.2316 130.421 33.2109 130.281L33.0209 128.981C44.3109 121.171 53.4408 110.751 50.2308 95.9811C49.1508 91.041 46.3909 87.7611 41.3209 86.3711C37.4709 85.3111 33.9508 84.701 30.0408 85.951C23.0208 88.181 14.6408 95.9211 14.3008 103.741C14.2208 105.581 15.0742 106.718 16.8608 107.151C22.0708 108.421 21.0508 102.521 21.4708 99.7311C21.498 99.5574 21.569 99.3966 21.6752 99.2673C21.7815 99.138 21.9187 99.0457 22.0709 99.0011C23.6975 98.5011 25.1575 97.701 26.4509 96.601C26.5554 96.5113 26.6883 96.4498 26.8381 96.422C26.9879 96.3941 27.1501 96.4007 27.3108 96.4411C33.1208 97.8811 33.8108 103.621 32.7308 108.671C30.6308 118.521 13.4409 123.161 6.84088 115.681C2.71421 111.001 0.774202 105.664 1.02087 99.6711C1.67087 84.2111 16.1108 75.171 29.3708 71.721C40.9508 68.711 61.2209 74.8211 61.0909 89.3211C60.9709 102.011 60.3508 121.271 51.9308 132.321C47.0308 138.751 41.4908 143.821 34.5608 147.911C32.7108 148.991 31.6008 150.541 29.8708 151.581C25.3408 154.291 14.3908 161.611 15.2208 168.431C15.2415 168.592 15.2215 168.751 15.163 168.891C15.1045 169.031 15.01 169.146 14.8909 169.221C13.9442 169.808 13.0608 169.718 12.2408 168.951C7.86751 164.844 6.32082 159.604 7.60082 153.231Z" fill="#1B203C"/>
<path d="M33.0216 128.981L33.2116 130.281C33.2324 130.422 33.2082 130.573 33.1416 130.72C33.075 130.868 32.9682 131.006 32.8316 131.121C30.5416 133.121 29.3316 133.991 26.0516 135.101C23.8716 135.841 22.0416 137.681 20.6616 138.651C16.2916 141.741 11.8016 145.461 10.5316 149.921C10.0382 151.661 9.06156 152.765 7.60156 153.231C7.96156 140.731 23.9816 134.101 33.0216 128.981Z" fill="#0B0E21"/>
<path d="M129.444 146.342C129.475 146.503 129.552 146.65 129.666 146.768C129.781 146.887 129.931 146.973 130.101 147.02C130.271 147.067 130.457 147.073 130.641 147.036C130.825 147 131.002 146.923 131.154 146.812L136.794 142.702C137.098 142.482 137.445 142.372 137.774 142.392C144.504 142.762 134.294 147.732 132.514 148.542C132.169 148.698 131.897 148.911 131.734 149.152C130.921 150.319 129.781 150.749 128.314 150.442C128.204 150.419 128.076 150.451 127.951 150.532C127.825 150.613 127.707 150.739 127.614 150.892C125.244 154.852 120.654 157.532 118.814 160.482C117.861 162.009 116.877 163.239 115.864 164.172C112.574 167.202 110.044 170.542 106.854 173.572C106.736 173.684 106.597 173.768 106.448 173.818C106.299 173.869 106.144 173.883 105.994 173.862C104.454 173.642 104.317 172.939 105.584 171.752C111.324 166.342 116.114 162.362 119.704 156.032C121.254 153.302 123.284 149.412 126.054 148.812C126.265 148.767 126.456 148.695 126.604 148.605C126.752 148.515 126.853 148.41 126.894 148.302L127.294 147.222C127.391 146.963 127.398 146.618 127.314 146.242C127.201 145.749 127.301 145.352 127.614 145.052C127.731 144.945 127.868 144.871 128.008 144.84C128.148 144.81 128.283 144.824 128.394 144.882C128.961 145.189 129.311 145.675 129.444 146.342Z" fill="#292D47"/>
</svg>
