<svg width="162" height="178" viewBox="0 0 162 178" fill="none" xmlns="http://www.w3.org/2000/svg">
<path d="M98.1955 139.556L92.7829 142.681C92.6375 142.765 92.5117 142.872 92.4129 142.997C92.3141 143.121 92.2445 143.26 92.2081 143.405C91.1188 147.798 98.6908 145.494 100.357 145.259C101.725 145.069 102.834 145.676 103.683 147.08L108.847 155.645C108.919 155.764 109.045 155.847 109.201 155.876C109.357 155.906 109.531 155.881 109.69 155.805C111.008 155.168 111.194 154.163 110.249 152.792C108.012 149.558 106.158 145.847 104.641 142.52C104.563 142.352 104.524 142.168 104.527 141.983C104.529 141.798 104.574 141.615 104.657 141.45C104.74 141.284 104.86 141.139 105.007 141.026C105.153 140.913 105.324 140.835 105.506 140.797C107.527 140.358 116.43 139.259 114.243 135.971C114.159 135.848 114.04 135.748 113.898 135.682C113.757 135.616 113.598 135.586 113.437 135.594C109.927 135.796 107.315 136.065 105.6 136.401C100.596 137.373 98.6991 129.808 97.2221 126.25C96.5936 124.734 95.9173 124.763 95.1933 126.336C93.5068 130.034 96.4516 135.655 98.2916 138.842C98.3672 138.973 98.3995 139.122 98.3815 139.256C98.3635 139.389 98.2966 139.497 98.1955 139.556Z" stroke="#8D8D90" stroke-width="2"/>
<path d="M142.003 104.229C140.324 100.66 136.228 101.466 133.415 100.954C133.261 100.924 133.115 100.859 132.989 100.765C132.862 100.67 132.758 100.548 132.683 100.407C131.523 98.2363 128.345 89.7131 125.102 93.2948C124.974 93.4335 124.883 93.5942 124.843 93.7558C124.802 93.9174 124.813 94.0723 124.874 94.2L128.702 102.532C128.866 102.889 128.93 103.272 128.883 103.619C128.837 103.967 128.683 104.258 128.446 104.447L123.1 108.688C122.955 108.801 122.834 108.929 122.746 109.063C122.659 109.197 122.606 109.335 122.591 109.467C122.048 114.145 130.206 110.716 131.941 109.981C132.262 109.844 132.612 109.809 132.933 109.883C133.253 109.957 133.524 110.134 133.699 110.386L137.828 116.397C137.966 116.597 138.123 116.767 138.273 116.876C138.422 116.986 138.555 117.029 138.648 116.997C139.306 116.779 139.879 116.417 140.366 115.913C140.477 115.794 140.541 115.625 140.549 115.428C140.557 115.231 140.509 115.017 140.412 114.813L137.324 108.305C137.229 108.108 137.177 107.902 137.179 107.727C137.181 107.552 137.236 107.422 137.335 107.363L141.682 104.853C141.814 104.777 141.92 104.671 141.98 104.555C142.039 104.439 142.048 104.323 142.003 104.229Z" stroke="#8A8C90" stroke-width="2"/>
<path d="M50.736 117.454C48.8667 118.257 38.0887 121.489 44.2957 125.18C44.452 125.274 44.6226 125.336 44.7963 125.361C44.97 125.386 45.1429 125.374 45.3035 125.325L53.2817 122.844C54.5748 122.443 55.5629 122.808 56.246 123.938L62.1779 133.792C62.2695 133.947 62.4052 134.067 62.5608 134.132C62.7164 134.196 62.8819 134.201 63.0279 134.145C63.7552 133.871 64.3436 133.423 64.7932 132.802C64.8755 132.686 64.9173 132.531 64.9139 132.356C64.9105 132.181 64.862 131.991 64.7738 131.809L60.3437 122.715C60.2484 122.516 60.1886 122.302 60.1681 122.087C60.1476 121.871 60.1668 121.659 60.2247 121.464C60.2825 121.268 60.3776 121.094 60.504 120.952C60.6303 120.811 60.785 120.704 60.9584 120.64C62.7565 119.995 66.0787 118.989 66.8002 116.678C66.8649 116.476 66.8761 116.26 66.8326 116.052C66.7892 115.844 66.6927 115.65 66.5521 115.488C66.4115 115.327 66.2314 115.203 66.029 115.129C65.8265 115.055 65.6084 115.033 65.3951 115.065L58.1465 116.19C57.9747 116.218 57.8012 116.198 57.6508 116.131C57.5004 116.065 57.3808 115.955 57.3089 115.819L51.7369 105.468C51.6771 105.361 51.5705 105.285 51.4399 105.257C51.3093 105.229 51.1651 105.251 51.038 105.317C46.9246 107.473 50.2727 113.392 51.0716 116.776C51.1045 116.912 51.0889 117.055 51.0274 117.179C50.9659 117.303 50.8627 117.401 50.736 117.454Z" stroke="#8A8C90" stroke-width="2"/>
<path d="M78.5873 86.6523C77.528 88.0375 74.5349 90.7933 76.1542 92.6181C77.2637 93.8597 81.1954 92.7097 82.3953 92.2479C82.7714 92.1035 83.1951 92.1235 83.5787 92.304C83.9623 92.4845 84.2764 92.8115 84.4561 93.2174L87.3796 99.9011C87.4382 100.04 87.5346 100.167 87.6619 100.274C87.7891 100.38 87.944 100.463 88.1154 100.516C92.2142 101.775 87.7566 92.0739 87.3867 90.9134C87.3065 90.6528 87.3233 90.3654 87.4343 90.0934C87.5454 89.8215 87.745 89.5792 88.0039 89.4023L92.2097 86.5469C92.334 86.4614 92.4223 86.3267 92.4605 86.1643C92.4987 86.0019 92.4845 85.8213 92.4203 85.6517C92.1869 85.0474 91.7886 84.5576 91.2254 84.1822C91.0422 84.0579 90.8566 83.9651 90.6832 83.911C90.5098 83.8569 90.3531 83.843 90.2256 83.8704L86.1661 84.7592C84.9542 85.0201 83.9737 84.6085 83.2247 83.5245L79.1024 77.5445C78.988 77.3759 78.8543 77.2364 78.7185 77.1439C78.5828 77.0513 78.4512 77.0102 78.341 77.0257C77.2701 77.1975 76.494 77.7533 76.0128 78.6932C75.996 78.7255 76.0195 78.8461 76.0792 79.0337C76.1388 79.2212 76.2307 79.4635 76.3386 79.7175L78.9098 85.831C78.9439 85.9051 78.9311 86.0242 78.8732 86.1716C78.8153 86.3189 78.7153 86.4871 78.5873 86.6523Z" stroke="#8A8C90" stroke-width="2"/>
<path d="M109.31 60.3095C107.177 57.4149 105.516 54.2515 104.328 50.8193C103.786 49.2539 102.93 48.8051 101.76 49.4726C100.805 50.0168 100.469 50.942 100.753 52.248L102.895 62.0969C102.925 62.2443 102.902 62.4049 102.83 62.5594C102.757 62.714 102.637 62.856 102.485 62.9682L98.0336 66.2775C97.8956 66.3793 97.7801 66.5003 97.6941 66.6333C97.6081 66.7664 97.5535 66.9085 97.5334 67.0512C97.0067 71.0388 103.742 67.7045 105.221 67.2663C105.374 67.2212 105.533 67.22 105.672 67.2627C105.812 67.3054 105.924 67.3897 105.992 67.5022L111.035 75.8373C111.719 76.9671 112.595 77.6657 113.666 77.933C117.705 78.9495 111.228 67.0312 110.746 65.9356C110.694 65.8111 110.691 65.6709 110.737 65.5417C110.784 65.4125 110.877 65.3033 110.999 65.2349C112.464 64.4122 115.635 62.7435 116.264 61.1331C117.853 57.0862 111.064 60.3476 110.103 60.6024C109.96 60.638 109.808 60.6291 109.667 60.577C109.526 60.5249 109.402 60.4319 109.31 60.3095Z" stroke="#8A8C90" stroke-width="2"/>
<path d="M23.0073 68.0474L18.8807 58.04C18.2404 56.4775 17.4985 56.3592 16.6552 57.6852C14.3949 61.2303 16.7395 66.0312 17.806 69.6186C17.8553 69.7842 17.8674 69.9511 17.8407 70.0953C17.8139 70.2394 17.7496 70.3533 17.6571 70.4205L14.7754 72.5692C14.6056 72.6963 14.4589 72.8248 14.3444 72.9465C14.2299 73.0683 14.1501 73.1807 14.1099 73.2767C13.5884 74.6401 13.9384 75.6929 15.1597 76.4349C15.2479 76.4868 15.3819 76.512 15.5494 76.5082C15.7168 76.5045 15.9122 76.4718 16.1172 76.4133L19.8621 75.3597C19.9752 75.3287 20.1065 75.3551 20.2343 75.4346C20.3621 75.5141 20.4787 75.6419 20.5648 75.7969C22.3171 78.9652 23.8764 82.2527 25.2427 85.6592C25.9212 87.3344 27.2631 88.4187 28.3818 86.1563C28.5487 85.8153 28.591 85.4524 28.5001 85.1412L25.2661 74.4798C25.1158 73.9875 25.1121 73.4731 25.2555 73.0225C25.3989 72.5718 25.6807 72.2124 26.0539 72.0042C27.666 71.0966 35.3112 69.3385 31.3009 66.4923C31.1829 66.4074 31.0341 66.3478 30.8635 66.3172C30.693 66.2866 30.5043 66.2856 30.3091 66.3144C28.0489 66.6263 25.8915 67.2829 23.8369 68.2843C23.7591 68.3234 23.6751 68.3483 23.5901 68.3575C23.5051 68.3667 23.4209 68.3599 23.343 68.3376C23.265 68.3154 23.195 68.2781 23.1372 68.2282C23.0794 68.1782 23.0352 68.1166 23.0073 68.0474Z" stroke="#8A8C90" stroke-width="2"/>
<path d="M60.4768 50.491L65.0414 60.2571C65.1168 60.4239 65.2138 60.5678 65.3209 60.6718C65.428 60.7758 65.5408 60.8354 65.6456 60.8436C66.6175 60.9137 67.4469 60.6235 68.1336 59.9729C68.2369 59.8803 68.3058 59.7428 68.3318 59.5778C68.3577 59.4128 68.3396 59.2276 68.2796 59.0458L65.0772 49.059C64.995 48.802 65.0092 48.5239 65.1173 48.2766C65.2253 48.0293 65.4197 47.8299 65.6641 47.7156L71.5696 44.9642C71.8266 44.8414 72.0568 44.7015 72.2195 44.5696C72.3821 44.4377 72.4667 44.3221 72.4582 44.2433C72.3299 43.3012 71.8693 42.5433 71.0762 41.9697C70.9211 41.8558 70.7649 41.7681 70.6212 41.7142C70.4774 41.6604 70.3505 41.6421 70.2512 41.6608L64.2719 42.8844C63.0269 43.1413 62.1642 42.7002 61.6836 41.5613C60.6323 39.0736 59.5947 36.6897 58.5707 34.4096C56.9435 30.8111 53.7212 31.6899 54.8642 35.7297C55.4405 37.7679 56.0929 39.8778 56.8212 42.0592C57.2511 43.3506 56.9309 44.4092 55.8604 45.2351C54.1831 46.5499 52.1328 48.5188 53.8586 50.848C53.9721 50.9967 54.1119 51.114 54.262 51.1866C54.4121 51.2591 54.5665 51.284 54.7076 51.2584L59.6636 50.3024C59.852 50.2655 60.0363 50.2641 60.1847 50.2985C60.3331 50.3329 60.4364 50.401 60.4768 50.491Z" stroke="#8A8C90" stroke-width="2"/>
<path d="M79.4298 16.9165L75.8536 19.3623C75.6748 19.4853 75.5271 19.6299 75.433 19.7739C75.3389 19.9179 75.3036 20.0534 75.3325 20.1596C75.6727 21.3489 76.2985 22.3463 77.2101 23.1517C77.2858 23.2176 77.4328 23.2556 77.633 23.2611C77.8332 23.2666 78.0778 23.2393 78.3364 23.1827L83.5495 22.032C83.6786 22.0033 83.8256 22.0386 83.9675 22.1322C84.1094 22.2259 84.238 22.3727 84.3333 22.5494C85.0386 23.8512 89.0326 32.769 91.3283 29.6653C91.4165 29.5413 91.4717 29.4006 91.4877 29.2589C91.5037 29.1172 91.4799 28.9799 91.419 28.8623L87.7138 21.8448C87.5813 21.5926 87.5367 21.3071 87.5892 21.0456C87.6416 20.784 87.7871 20.5657 87.9965 20.4344C89.8469 19.266 91.8326 18.4853 93.9535 18.0922C94.3607 18.0131 94.6821 17.8814 94.8499 17.7248C102.157 11.0005 86.3197 14.8901 85.0201 14.9591C84.8795 14.9673 84.74 14.9274 84.6239 14.8459C84.5077 14.7643 84.4216 14.6458 84.3793 14.5092C83.4415 11.3248 82.629 8.9842 81.9417 7.48725C79.6421 2.46411 77.8373 6.35821 78.0567 8.81811C78.2827 11.2896 78.7606 13.7041 79.4905 16.0616C79.5488 16.254 79.5745 16.4434 79.5635 16.5988C79.5525 16.7542 79.5053 16.8662 79.4298 16.9165Z" stroke="#8A8C90" stroke-width="2"/>
<path d="M98.2916 138.842C96.4516 135.655 93.5068 130.034 95.1933 126.336C95.9173 124.763 96.5936 124.734 97.2221 126.25C98.6991 129.808 100.596 137.373 105.6 136.401C107.315 136.065 109.927 135.796 113.437 135.594C113.598 135.586 113.757 135.616 113.898 135.682C114.04 135.748 114.159 135.848 114.243 135.971C116.43 139.259 107.527 140.358 105.506 140.797C105.324 140.835 105.153 140.913 105.007 141.026C104.86 141.139 104.74 141.284 104.657 141.45C104.574 141.615 104.529 141.798 104.527 141.983C104.524 142.168 104.563 142.352 104.641 142.52C106.158 145.847 108.012 149.558 110.249 152.792C111.194 154.163 111.008 155.168 109.69 155.805C109.531 155.881 109.357 155.906 109.201 155.876C109.045 155.847 108.919 155.764 108.847 155.645L103.683 147.08C102.834 145.676 101.725 145.069 100.357 145.259C98.6908 145.494 91.1188 147.798 92.2081 143.405C92.2445 143.26 92.3141 143.121 92.4129 142.997C92.5117 142.872 92.6375 142.765 92.7829 142.681L98.1955 139.556C98.2966 139.497 98.3635 139.389 98.3815 139.256C98.3995 139.122 98.3672 138.973 98.2916 138.842Z" fill="#1C2030"/>
<path d="M133.415 100.954C136.228 101.466 140.324 100.66 142.003 104.229C142.048 104.323 142.039 104.439 141.98 104.555C141.92 104.671 141.814 104.777 141.682 104.853L137.335 107.363C137.236 107.422 137.181 107.552 137.179 107.727C137.177 107.902 137.229 108.108 137.324 108.305L140.412 114.813C140.509 115.017 140.557 115.231 140.549 115.428C140.541 115.625 140.477 115.794 140.366 115.913C139.879 116.417 139.306 116.779 138.648 116.997C138.555 117.029 138.422 116.986 138.273 116.876C138.123 116.767 137.966 116.597 137.828 116.397L133.699 110.386C133.524 110.134 133.253 109.957 132.933 109.883C132.612 109.809 132.262 109.844 131.941 109.981C130.206 110.716 122.048 114.145 122.591 109.467C122.606 109.335 122.659 109.197 122.746 109.063C122.834 108.929 122.955 108.801 123.1 108.688L128.446 104.447C128.683 104.258 128.837 103.967 128.883 103.619C128.93 103.272 128.866 102.889 128.702 102.532L124.874 94.2C124.813 94.0723 124.802 93.9174 124.843 93.7558C124.883 93.5942 124.974 93.4335 125.102 93.2948C128.345 89.7131 131.523 98.2363 132.683 100.407C132.758 100.548 132.862 100.67 132.989 100.765C133.115 100.859 133.261 100.924 133.415 100.954Z" fill="#151E30"/>
<path d="M51.0716 116.776C50.2727 113.392 46.9246 107.473 51.038 105.317C51.1651 105.251 51.3093 105.229 51.4399 105.257C51.5705 105.285 51.6771 105.361 51.7369 105.468L57.3089 115.819C57.3808 115.955 57.5004 116.065 57.6508 116.131C57.8012 116.198 57.9747 116.218 58.1465 116.19L65.3951 115.065C65.6084 115.033 65.8265 115.055 66.029 115.129C66.2314 115.203 66.4115 115.327 66.5521 115.488C66.6927 115.65 66.7892 115.844 66.8326 116.052C66.8761 116.26 66.8649 116.476 66.8002 116.678C66.0787 118.989 62.7565 119.995 60.9584 120.64C60.785 120.704 60.6303 120.811 60.504 120.952C60.3776 121.094 60.2825 121.268 60.2247 121.464C60.1668 121.659 60.1476 121.871 60.1681 122.087C60.1886 122.302 60.2484 122.516 60.3437 122.715L64.7738 131.809C64.862 131.991 64.9105 132.181 64.9139 132.356C64.9173 132.531 64.8755 132.686 64.7932 132.802C64.3436 133.423 63.7552 133.871 63.0279 134.145C62.8819 134.201 62.7164 134.196 62.5608 134.132C62.4052 134.067 62.2695 133.947 62.1779 133.792L56.246 123.938C55.5629 122.808 54.5748 122.443 53.2817 122.844L45.3035 125.325C45.1429 125.374 44.97 125.386 44.7963 125.361C44.6226 125.336 44.452 125.274 44.2957 125.18C38.0887 121.489 48.8667 118.257 50.736 117.454C50.8627 117.401 50.9659 117.303 51.0274 117.179C51.0889 117.055 51.1045 116.912 51.0716 116.776Z" fill="#151E30"/>
<path d="M78.9098 85.831L76.3386 79.7175C76.2307 79.4635 76.1388 79.2212 76.0792 79.0337C76.0195 78.8461 75.996 78.7255 76.0128 78.6932C76.494 77.7533 77.2701 77.1975 78.341 77.0257C78.4512 77.0102 78.5828 77.0513 78.7185 77.1439C78.8543 77.2364 78.988 77.3759 79.1024 77.5445L83.2247 83.5245C83.9737 84.6085 84.9542 85.0201 86.1661 84.7592L90.2256 83.8704C90.3531 83.843 90.5098 83.8569 90.6832 83.911C90.8566 83.9651 91.0422 84.0579 91.2254 84.1822C91.7886 84.5576 92.1869 85.0474 92.4203 85.6517C92.4845 85.8213 92.4987 86.0019 92.4605 86.1643C92.4223 86.3267 92.334 86.4614 92.2097 86.5469L88.0039 89.4023C87.745 89.5792 87.5454 89.8215 87.4343 90.0934C87.3233 90.3654 87.3065 90.6528 87.3867 90.9134C87.7566 92.0739 92.2142 101.775 88.1154 100.516C87.944 100.463 87.7891 100.38 87.6619 100.274C87.5346 100.167 87.4382 100.04 87.3796 99.9011L84.4561 93.2174C84.2764 92.8115 83.9623 92.4845 83.5787 92.304C83.1951 92.1235 82.7714 92.1035 82.3953 92.2479C81.1954 92.7097 77.2637 93.8597 76.1542 92.6181C74.5349 90.7933 77.528 88.0375 78.5873 86.6523C78.7153 86.4871 78.8153 86.3189 78.8732 86.1716C78.9311 86.0242 78.9439 85.9051 78.9098 85.831Z" fill="#151E30"/>
<path d="M110.103 60.6024C111.064 60.3476 117.853 57.0862 116.264 61.1331C115.635 62.7435 112.464 64.4122 110.999 65.2349C110.877 65.3033 110.784 65.4125 110.737 65.5417C110.691 65.6709 110.694 65.8111 110.746 65.9356C111.228 67.0312 117.705 78.9495 113.666 77.933C112.595 77.6657 111.719 76.9671 111.035 75.8373L105.992 67.5022C105.924 67.3897 105.812 67.3054 105.672 67.2627C105.533 67.22 105.374 67.2212 105.221 67.2663C103.742 67.7045 97.0067 71.0388 97.5334 67.0512C97.5535 66.9085 97.6081 66.7664 97.6941 66.6333C97.7801 66.5003 97.8956 66.3793 98.0336 66.2775L102.485 62.9682C102.637 62.856 102.757 62.714 102.83 62.5594C102.902 62.4049 102.925 62.2443 102.895 62.0969L100.753 52.248C100.469 50.942 100.805 50.0168 101.76 49.4726C102.93 48.8051 103.786 49.2539 104.328 50.8193C105.516 54.2515 107.177 57.4149 109.31 60.3095C109.402 60.4319 109.526 60.5249 109.667 60.577C109.808 60.6291 109.96 60.638 110.103 60.6024Z" fill="#151E30"/>
<path d="M23.8369 68.2843C25.8915 67.2829 28.0489 66.6263 30.3091 66.3144C30.5043 66.2856 30.693 66.2866 30.8635 66.3172C31.0341 66.3478 31.1829 66.4074 31.3009 66.4923C35.3112 69.3385 27.666 71.0966 26.0539 72.0042C25.6807 72.2124 25.3989 72.5718 25.2555 73.0225C25.1121 73.4731 25.1158 73.9875 25.2661 74.4798L28.5001 85.1412C28.591 85.4524 28.5487 85.8153 28.3818 86.1563C27.2631 88.4187 25.9212 87.3344 25.2427 85.6592C23.8764 82.2527 22.3171 78.9652 20.5648 75.7969C20.4787 75.6419 20.3621 75.5141 20.2343 75.4346C20.1065 75.3551 19.9752 75.3287 19.8621 75.3597L16.1172 76.4133C15.9122 76.4718 15.7168 76.5045 15.5494 76.5082C15.3819 76.512 15.2479 76.4868 15.1597 76.4349C13.9384 75.6929 13.5884 74.6401 14.1099 73.2767C14.1501 73.1807 14.2299 73.0683 14.3444 72.9465C14.4589 72.8248 14.6056 72.6963 14.7754 72.5692L17.6571 70.4205C17.7496 70.3533 17.8139 70.2394 17.8407 70.0953C17.8674 69.9511 17.8553 69.7842 17.806 69.6186C16.7395 66.0312 14.3949 61.2303 16.6552 57.6852C17.4985 56.3592 18.2404 56.4775 18.8807 58.04L23.0073 68.0474C23.0352 68.1166 23.0794 68.1782 23.1372 68.2282C23.195 68.2781 23.265 68.3154 23.343 68.3376C23.4209 68.3599 23.5051 68.3667 23.5901 68.3575C23.6751 68.3483 23.7591 68.3234 23.8369 68.2843Z" fill="#151E30"/>
<path d="M59.6636 50.3024L54.7076 51.2584C54.5665 51.284 54.4121 51.2591 54.262 51.1866C54.1119 51.114 53.9721 50.9967 53.8586 50.848C52.1328 48.5188 54.1831 46.5499 55.8604 45.2351C56.9309 44.4092 57.2511 43.3506 56.8212 42.0592C56.0929 39.8778 55.4405 37.7679 54.8642 35.7297C53.7212 31.6899 56.9435 30.8111 58.5707 34.4096C59.5947 36.6897 60.6323 39.0736 61.6836 41.5613C62.1642 42.7003 63.0269 43.1413 64.2719 42.8844L70.2512 41.6608C70.3505 41.6421 70.4774 41.6604 70.6212 41.7142C70.7649 41.7681 70.9211 41.8558 71.0762 41.9697C71.8693 42.5433 72.3299 43.3012 72.4582 44.2433C72.4667 44.3221 72.3821 44.4377 72.2195 44.5696C72.0568 44.7015 71.8266 44.8414 71.5696 44.9642L65.6641 47.7156C65.4197 47.8299 65.2253 48.0293 65.1173 48.2766C65.0092 48.5239 64.995 48.802 65.0772 49.059L68.2796 59.0458C68.3396 59.2276 68.3577 59.4128 68.3318 59.5778C68.3058 59.7428 68.2369 59.8803 68.1336 59.9729C67.4469 60.6235 66.6175 60.9137 65.6456 60.8436C65.5408 60.8354 65.428 60.7758 65.3209 60.6718C65.2138 60.5678 65.1168 60.4239 65.0414 60.2571L60.4768 50.491C60.4364 50.401 60.3331 50.3329 60.1847 50.2985C60.0363 50.2641 59.852 50.2655 59.6636 50.3024Z" fill="#151E30"/>
<path d="M79.4905 16.0626C78.7606 13.705 78.2827 11.2905 78.0567 8.81908C77.8373 6.35919 79.6421 2.46509 81.9417 7.48823C82.629 8.98517 83.4415 11.3258 84.3793 14.5102C84.4216 14.6468 84.5077 14.7653 84.6239 14.8468C84.74 14.9284 84.8795 14.9683 85.0201 14.9601C86.3197 14.891 102.157 11.0015 94.8499 17.7257C94.6821 17.8824 94.3607 18.0141 93.9535 18.0931C91.8326 18.4863 89.8469 19.267 87.9965 20.4354C87.7871 20.5667 87.6416 20.785 87.5892 21.0465C87.5367 21.3081 87.5813 21.5935 87.7138 21.8457L91.419 28.8633C91.4799 28.9809 91.5037 29.1181 91.4877 29.2599C91.4717 29.4016 91.4165 29.5423 91.3283 29.6662C89.0326 32.7699 85.0386 23.8521 84.3333 22.5504C84.238 22.3736 84.1094 22.2269 83.9675 22.1332C83.8256 22.0395 83.6786 22.0043 83.5495 22.033L78.3364 23.1836C78.0778 23.2403 77.8332 23.2675 77.633 23.262C77.4328 23.2565 77.2858 23.2185 77.2101 23.1527C76.2985 22.3472 75.6727 21.3499 75.3325 20.1606C75.3036 20.0544 75.3389 19.9189 75.433 19.7749C75.5271 19.6309 75.6748 19.4863 75.8536 19.3632L79.4298 16.9174C79.5053 16.8672 79.5525 16.7551 79.5635 16.5998C79.5745 16.4444 79.5488 16.255 79.4905 16.0626Z" fill="#151E30"/>
</svg>
