<svg width="55" height="36" viewBox="0 0 55 36" fill="none" xmlns="http://www.w3.org/2000/svg">
<path d="M27.7527 20.5594C31.3027 14.4294 43.1127 8.9994 52.2327 4.2894C52.8327 3.97607 53.186 3.4461 53.2927 2.69944C53.3114 2.56494 53.2738 2.42791 53.1879 2.31766C53.1019 2.20741 52.9744 2.13265 52.8327 2.10941C43.1627 0.399409 31.5627 2.32941 21.9127 3.91941C15.7727 4.92941 9.55269 3.20943 3.75269 1.50943C3.04602 1.2961 2.33268 1.37609 1.61268 1.74942C1.55168 1.78111 1.49938 1.82702 1.45942 1.88394C1.41945 1.94087 1.39279 2.00746 1.38135 2.07895C1.36991 2.15045 1.37396 2.22512 1.39319 2.29776C1.41242 2.37041 1.44639 2.43925 1.49268 2.49942L12.3027 16.7194C12.4505 16.9123 12.5412 17.135 12.5594 17.3499C12.5776 17.5648 12.5223 17.7589 12.4027 17.8994L4.0727 27.8094C2.9527 29.1428 3.15267 30.1628 4.67267 30.8694C8.13267 32.4994 15.6727 27.2395 18.9027 25.5295C19.0866 25.4297 19.2994 25.3853 19.5179 25.4012C19.7365 25.417 19.9526 25.4925 20.1427 25.6194C23.9494 28.1728 27.4227 31.1128 30.5627 34.4394C30.6784 34.564 30.8251 34.6562 30.9881 34.7071C31.1511 34.7579 31.325 34.7656 31.4927 34.7294C32.9027 34.4294 32.9527 33.0994 32.3627 31.9594C30.6093 28.5461 29.046 25.0461 27.6727 21.4594C27.6194 21.3151 27.599 21.1598 27.6128 21.0043C27.6266 20.8488 27.6744 20.697 27.7527 20.5594Z" stroke="#FBB5A0" stroke-width="2"/>
<path d="M27.6688 21.4599C29.0421 25.0466 30.6054 28.5466 32.3588 31.9599C32.9488 33.0999 32.8988 34.4299 31.4888 34.7299C31.3211 34.7661 31.1472 34.7584 30.9842 34.7076C30.8212 34.6567 30.6745 34.5645 30.5588 34.4399C27.4188 31.1132 23.9455 28.1732 20.1388 25.6199C19.9486 25.493 19.7326 25.4175 19.514 25.4016C19.2955 25.3858 19.0827 25.4302 18.8988 25.5299C15.6688 27.2399 8.12877 32.4999 4.66877 30.8699C3.14877 30.1632 2.94879 29.1432 4.06879 27.8099L12.3988 17.8999C12.5184 17.7594 12.5737 17.5653 12.5555 17.3504C12.5373 17.1355 12.4466 16.9128 12.2988 16.7199L1.48877 2.49991C1.44248 2.43974 1.40852 2.3709 1.38929 2.29825C1.37006 2.2256 1.36601 2.15093 1.37745 2.07944C1.38888 2.00795 1.41555 1.94136 1.45551 1.88443C1.49547 1.82751 1.54778 1.7816 1.60877 1.74991C2.32877 1.37658 3.04212 1.29659 3.74878 1.50992C9.54878 3.20992 15.7688 4.92989 21.9088 3.91989C31.5588 2.32989 43.1588 0.399897 52.8288 2.1099C52.9705 2.13314 53.098 2.2079 53.184 2.31815C53.2699 2.4284 53.3075 2.56543 53.2888 2.69992C53.1821 3.44659 52.8288 3.97656 52.2288 4.28989C43.1088 8.99989 31.2988 14.4299 27.7488 20.5599C27.6705 20.6975 27.6227 20.8493 27.6089 21.0048C27.5951 21.1603 27.6155 21.3156 27.6688 21.4599Z" fill="#F76A40"/>
</svg>
