<svg width="91" height="60" viewBox="0 0 91 60" fill="none" xmlns="http://www.w3.org/2000/svg">
<path d="M69.9424 1.14454C69.7981 1.05186 69.6299 1.00182 69.4568 1.00005C69.2837 0.998282 69.1124 1.04486 68.9624 1.13454C67.1157 2.24788 65.4557 3.72121 63.9824 5.55454C60.6024 9.76787 56.9424 13.7345 53.0024 17.4545C48.7924 21.4445 51.4224 24.2845 56.1124 25.0545C65.959 26.6812 75.7124 28.7679 85.3724 31.3145C98.0624 34.6645 74.8624 5.97454 72.7024 3.39454C72.129 2.70787 71.209 1.95787 69.9424 1.14454Z" stroke="#89898C" stroke-width="2"/>
<path d="M5.62248 51.1347C16.2958 53.9947 27.0691 56.3813 37.9425 58.2947C41.6725 58.9447 43.2125 57.1147 41.5025 53.5947C38.8758 48.1947 34.1958 39.118 27.4625 26.3647C24.1425 20.0747 19.6325 22.1147 16.0925 26.5847C11.5858 32.278 7.02248 37.898 2.40248 43.4447C-0.627518 47.0847 1.62248 50.0647 5.62248 51.1347Z" stroke="#8C8A91" stroke-width="2"/>
<path d="M62.9758 19.3946L76.3558 22.2746C77.8758 22.6013 78.1591 22.1446 77.2058 20.9046L69.6958 11.1646C69.6431 11.0968 69.5808 11.0374 69.5124 10.9901C69.444 10.9427 69.371 10.9083 69.2976 10.8888C69.2241 10.8692 69.1516 10.865 69.0844 10.8763C69.0171 10.8876 68.9564 10.9142 68.9058 10.9546C66.3391 12.9946 64.1625 15.4013 62.3758 18.1746C62.3069 18.2828 62.268 18.4066 62.2624 18.5355C62.2568 18.6643 62.2848 18.7943 62.3438 18.9143C62.4028 19.0343 62.4911 19.1407 62.6012 19.2243C62.7113 19.308 62.8399 19.3664 62.9758 19.3946Z" stroke="#89898C" stroke-width="2"/>
<path d="M22.9042 33.2344C22.8182 33.0782 22.6944 32.946 22.5443 32.8498C22.3942 32.7536 22.2223 32.6964 22.0445 32.6835C21.8666 32.6706 21.6884 32.7023 21.5259 32.7758C21.3634 32.8493 21.2219 32.9623 21.1142 33.1044L13.5142 43.1244C13.4083 43.2658 13.3391 43.4313 13.3128 43.606C13.2864 43.7806 13.3037 43.9591 13.3631 44.1255C13.4225 44.2919 13.5222 44.4409 13.6533 44.5594C13.7843 44.6779 13.9427 44.762 14.1142 44.8044L29.2942 48.4344C29.4958 48.4816 29.7068 48.4693 29.9016 48.3989C30.0963 48.3286 30.2665 48.2032 30.3914 48.0381C30.5163 47.8729 30.5906 47.6751 30.6053 47.4685C30.62 47.262 30.5745 47.0556 30.4742 46.8744L22.9042 33.2344Z" stroke="#8C8A91" stroke-width="2"/>
<path d="M69.9424 1.14454C71.209 1.95787 72.129 2.70787 72.7024 3.39454C74.8624 5.97454 98.0624 34.6645 85.3724 31.3145C75.7124 28.7679 65.959 26.6812 56.1124 25.0545C51.4224 24.2845 48.7924 21.4445 53.0024 17.4545C56.9424 13.7345 60.6024 9.76787 63.9824 5.55454C65.4557 3.72121 67.1157 2.24788 68.9624 1.13454C69.1124 1.04486 69.2837 0.998282 69.4568 1.00005C69.6299 1.00182 69.7981 1.05186 69.9424 1.14454ZM62.9724 19.3945L76.3524 22.2745C77.8724 22.6012 78.1557 22.1445 77.2024 20.9045L69.6924 11.1645C69.6397 11.0967 69.5773 11.0373 69.509 10.99C69.4406 10.9426 69.3676 10.9082 69.2941 10.8887C69.2207 10.8691 69.1482 10.8649 69.081 10.8762C69.0137 10.8875 68.953 10.9141 68.9024 10.9545C66.3357 12.9945 64.159 15.4012 62.3724 18.1745C62.3035 18.2827 62.2646 18.4065 62.259 18.5354C62.2534 18.6642 62.2813 18.7942 62.3403 18.9142C62.3994 19.0342 62.4877 19.1406 62.5978 19.2243C62.7079 19.3079 62.8364 19.3664 62.9724 19.3945Z" fill="#14131B"/>
<path d="M62.9719 19.3946C62.8359 19.3664 62.7074 19.308 62.5973 19.2243C62.4872 19.1407 62.3989 19.0343 62.3399 18.9143C62.2809 18.7943 62.2529 18.6643 62.2585 18.5355C62.2641 18.4066 62.303 18.2828 62.3719 18.1746C64.1586 15.4013 66.3352 12.9946 68.9019 10.9546C68.9525 10.9142 69.0132 10.8876 69.0805 10.8763C69.1477 10.865 69.2202 10.8692 69.2936 10.8888C69.3671 10.9083 69.4401 10.9427 69.5085 10.9901C69.5769 11.0374 69.6392 11.0968 69.6919 11.1646L77.2019 20.9046C78.1552 22.1446 77.8719 22.6013 76.3519 22.2746L62.9719 19.3946Z" fill="#FEFEFC"/>
<path d="M5.62248 51.1347C1.62248 50.0647 -0.627518 47.0847 2.40248 43.4447C7.02248 37.898 11.5858 32.278 16.0925 26.5847C19.6325 22.1147 24.1425 20.0747 27.4625 26.3647C34.1958 39.118 38.8758 48.1947 41.5025 53.5947C43.2125 57.1147 41.6725 58.9447 37.9425 58.2947C27.0691 56.3813 16.2958 53.9947 5.62248 51.1347ZM22.9025 33.2347C22.8164 33.0785 22.6927 32.9463 22.5426 32.85C22.3924 32.7538 22.2206 32.6967 22.0428 32.6838C21.8649 32.6708 21.6866 32.7026 21.5242 32.7761C21.3617 32.8496 21.2202 32.9626 21.1125 33.1047L13.5125 43.1247C13.4066 43.2661 13.3374 43.4315 13.311 43.6062C13.2847 43.7809 13.302 43.9594 13.3614 44.1258C13.4208 44.2921 13.5205 44.4412 13.6516 44.5597C13.7826 44.6781 13.941 44.7623 14.1125 44.8047L29.2925 48.4347C29.4941 48.4819 29.7051 48.4695 29.8998 48.3992C30.0946 48.3288 30.2648 48.2035 30.3897 48.0383C30.5146 47.8732 30.5889 47.6753 30.6036 47.4688C30.6183 47.2622 30.5728 47.0558 30.4725 46.8747L22.9025 33.2347Z" fill="#1A1526"/>
<path d="M22.9042 33.2344L30.4742 46.8744C30.5745 47.0556 30.62 47.262 30.6053 47.4685C30.5906 47.6751 30.5163 47.8729 30.3914 48.0381C30.2665 48.2032 30.0963 48.3286 29.9016 48.3989C29.7068 48.4693 29.4958 48.4816 29.2942 48.4344L14.1142 44.8044C13.9427 44.762 13.7843 44.6779 13.6533 44.5594C13.5222 44.4409 13.4225 44.2919 13.3631 44.1255C13.3037 43.9591 13.2864 43.7806 13.3128 43.606C13.3391 43.4313 13.4083 43.2658 13.5142 43.1244L21.1142 33.1044C21.2219 32.9623 21.3634 32.8493 21.5259 32.7758C21.6884 32.7023 21.8666 32.6706 22.0445 32.6835C22.2223 32.6964 22.3942 32.7536 22.5443 32.8498C22.6944 32.946 22.8182 33.0782 22.9042 33.2344Z" fill="#FEFEFC"/>
</svg>
