<svg width="101" height="124" viewBox="0 0 101 124" fill="none" xmlns="http://www.w3.org/2000/svg">
<path d="M31.424 16.21C31.424 12.176 29.8214 8.30732 26.969 5.4549C24.1166 2.60247 20.2479 1 16.2139 1C14.2165 1 12.2387 1.3934 10.3933 2.15778C8.54795 2.92215 6.87118 4.04252 5.4588 5.4549C4.04642 6.86727 2.92612 8.54398 2.16174 10.3893C1.39737 12.2347 1.00391 14.2126 1.00391 16.21C1.00391 18.2074 1.39737 20.1852 2.16174 22.0306C2.92612 23.8759 4.04642 25.5527 5.4588 26.9651C6.87118 28.3775 8.54795 29.4978 10.3933 30.2622C12.2387 31.0266 14.2165 31.42 16.2139 31.42C20.2479 31.42 24.1166 29.8175 26.969 26.9651C29.8214 24.1127 31.424 20.2439 31.424 16.21Z" stroke="#8C8A91" stroke-width="2"/>
<path d="M52.3955 25.8099C47.3455 45.2999 65.9355 60.8999 84.2755 54.0899C109.956 44.5399 100.256 4.86991 74.1756 6.46991C63.3056 7.12991 55.0855 15.4299 52.3955 25.8099Z" stroke="#8C8A91" stroke-width="2"/>
<path d="M46.9544 106.873C46.8336 104.898 46.3135 102.967 45.4239 101.189C44.5342 99.4118 43.2925 97.8233 41.7695 96.5145C40.2465 95.2056 38.4721 94.202 36.5476 93.561C34.6232 92.9199 32.5863 92.654 30.5533 92.7783C28.5202 92.9026 26.531 93.4148 24.6989 94.2856C22.8669 95.1564 21.2281 96.3688 19.8759 97.8535C18.5238 99.3382 17.4849 101.066 16.8185 102.939C16.1521 104.811 15.8713 106.792 15.9922 108.767C16.113 110.742 16.6331 112.674 17.5227 114.451C18.4123 116.229 19.6541 117.817 21.177 119.126C22.7 120.435 24.4744 121.438 26.3989 122.079C28.3234 122.72 30.3603 122.986 32.3933 122.862C34.4263 122.738 36.4156 122.226 38.2476 121.355C40.0796 120.484 41.7185 119.272 43.0707 117.787C44.4228 116.302 45.4616 114.574 46.128 112.702C46.7944 110.829 47.0752 108.849 46.9544 106.873Z" stroke="#8C8A91" stroke-width="2"/>
<path d="M72.0642 38.0908C73.3401 38.4422 74.7269 38.1871 75.9194 37.3815C77.112 36.5759 78.0126 35.2859 78.4232 33.7952C78.8338 32.3045 78.7207 30.7353 78.1089 29.4327C77.497 28.1301 76.4365 27.2009 75.1606 26.8494C73.8847 26.498 72.4979 26.7531 71.3054 27.5587C70.1128 28.3643 69.2122 29.6543 68.8016 31.145C68.391 32.6357 68.504 34.2049 69.1159 35.5075C69.7278 36.8101 70.7883 37.7394 72.0642 38.0908Z" stroke="#3E5E6D" stroke-width="2"/>
<path d="M16.21 31.4205C24.6103 31.4205 31.42 24.6107 31.42 16.2104C31.42 7.8102 24.6103 1.00049 16.21 1.00049C7.80977 1.00049 1 7.8102 1 16.2104C1 24.6107 7.80977 31.4205 16.21 31.4205Z" fill="#1A1526"/>
<path d="M84.2716 54.0904C65.9316 60.9004 47.3416 45.3004 52.3916 25.8104C55.0816 15.4304 63.3017 7.1304 74.1717 6.4704C100.252 4.8704 109.952 44.5404 84.2716 54.0904ZM72.0634 38.0911C73.3394 38.4426 74.7261 38.1874 75.9187 37.3818C77.1112 36.5763 78.0119 35.2862 78.4225 33.7955C78.8331 32.3048 78.72 30.7356 78.1081 29.433C77.4963 28.1304 76.4357 27.2012 75.1598 26.8497C73.8839 26.4983 72.4971 26.7534 71.3046 27.559C70.1121 28.3646 69.2114 29.6546 68.8008 31.1453C68.3902 32.636 68.5033 34.2052 69.1151 35.5078C69.727 36.8104 70.7875 37.7397 72.0634 38.0911Z" fill="#1A1526"/>
<path d="M68.7989 31.1452C67.9438 34.2494 69.4046 37.3592 72.0615 38.091C74.7185 38.8229 77.5655 36.8997 78.4206 33.7955C79.2756 30.6913 77.8149 27.5815 75.1579 26.8497C72.501 26.1178 69.6539 28.041 68.7989 31.1452Z" fill="#62A7B3"/>
<path d="M32.3914 122.863C40.9413 122.34 47.4606 115.181 46.9525 106.874C46.4444 98.5663 39.1013 92.2558 30.5514 92.7787C22.0014 93.3017 15.4822 100.46 15.9903 108.767C16.4984 117.075 23.8414 123.385 32.3914 122.863Z" fill="#1A1526"/>
</svg>
