<svg width="225" height="84" viewBox="0 0 225 84" fill="none" xmlns="http://www.w3.org/2000/svg">
<path d="M49.1284 12.2684C49.0893 12.43 49.0113 12.5793 48.9004 12.7047C48.7894 12.8302 48.6485 12.9285 48.4883 12.9922C48.3281 13.0559 48.153 13.0832 47.9762 13.0722C47.7995 13.0611 47.6257 13.0119 47.4684 12.9283L37.2984 7.54835C37.1377 7.4632 36.961 7.42011 36.7868 7.42363C36.6126 7.42715 36.4474 7.47713 36.3084 7.56834C34.3084 8.90834 45.3084 17.0083 47.0984 18.5383C47.3948 18.7948 47.5788 19.157 47.6106 19.5463C47.6424 19.9357 47.5195 20.3208 47.2685 20.6183C44.4351 23.9983 41.4318 27.595 38.2584 31.4084C37.3284 32.5284 38.4184 32.9983 39.3584 32.4283C42.6984 30.395 45.7184 27.9417 48.4184 25.0683C49.8518 23.535 51.2918 23.5284 52.7384 25.0484C55.0784 27.4984 61.4184 35.6883 64.6984 35.6983C65.8917 35.6983 66.1484 35.1983 65.4684 34.1983L58.6084 24.0883C57.6418 22.6617 57.8484 21.5184 59.2284 20.6584C59.6884 20.3784 66.5584 17.9683 65.8384 16.9183C65.7543 16.7963 65.6405 16.6944 65.5055 16.62C65.3705 16.5455 65.2177 16.5006 65.0584 16.4884L55.9085 15.8284C54.3485 15.715 53.605 14.845 53.6784 13.2184C53.825 9.97835 54.0218 6.75835 54.2685 3.55835C54.4785 0.828346 51.9484 -0.28166 51.2284 3.09834C50.5284 6.41167 49.8284 9.46835 49.1284 12.2684Z" stroke="#A0C0C2" stroke-width="2"/>
<path d="M202.742 73.1087C201.255 75.7487 199.298 77.982 196.872 79.8087C196.082 80.3987 194.862 81.9887 196.632 82.3087C197.492 82.4687 198.435 82.162 199.462 81.3887L206.452 76.1187C206.721 75.9163 207.057 75.8119 207.41 75.8209C207.763 75.8299 208.114 75.9518 208.412 76.1687C211.392 78.3487 214.558 80.3954 217.912 82.3087C219.512 83.2187 221.252 82.5187 219.912 80.4387C218.685 78.5453 217.398 76.6854 216.052 74.8587C212.592 70.1687 219.781 68.5487 222.681 67.1187C225.071 65.9487 223.712 64.8987 221.842 65.1187C218.722 65.4854 215.608 65.8887 212.502 66.3287C212.319 66.3552 212.133 66.3346 211.961 66.2688C211.789 66.2031 211.636 66.0944 211.518 65.9531C211.4 65.8117 211.32 65.6425 211.285 65.4614C211.251 65.2804 211.263 65.0935 211.322 64.9187C212.908 60.0787 214.775 55.2687 216.922 50.4887C217.322 49.6187 217.452 47.9087 215.982 48.2787C215.827 48.3195 215.68 48.3946 215.549 48.4994C215.419 48.6042 215.307 48.7366 215.222 48.8887L206.882 63.8487C206.115 65.2287 205.098 65.502 203.832 64.6687C202.045 63.4954 200.215 62.372 198.342 61.2987C196.192 60.0687 191.192 60.1987 195.452 64.2487C198.052 66.722 200.461 69.3954 202.681 72.2687C202.773 72.3872 202.828 72.5302 202.838 72.6796C202.849 72.8291 202.815 72.9784 202.742 73.1087Z" stroke="#A6C3C7" stroke-width="2"/>
<path d="M13.1181 68.9885C16.0515 71.5085 18.7848 74.2218 21.3181 77.1285C22.2581 78.2085 24.7081 80.4185 24.9681 77.1985C24.9939 76.8605 24.9026 76.5129 24.7081 76.2085L19.1081 67.2685C19.014 67.1165 18.9552 66.9533 18.9424 66.8084C18.9295 66.6635 18.9635 66.5465 19.0381 66.4785L24.8381 61.2785C24.955 61.1745 25.0528 61.0507 25.1247 60.9152C25.1967 60.7797 25.2413 60.6357 25.2555 60.4928C25.2697 60.3498 25.2532 60.2113 25.2071 60.0864C25.161 59.9615 25.0863 59.8531 24.9881 59.7685C22.5281 57.6385 18.3081 60.2385 16.1281 61.4885C15.8842 61.6266 15.6047 61.6881 15.3263 61.6649C15.0479 61.6417 14.7836 61.5349 14.5681 61.3585C10.9881 58.4385 7.53811 55.3851 4.21811 52.1985C3.42811 51.4485 1.98812 50.6785 1.66812 52.3985C1.48812 53.3852 2.03815 54.7018 3.31815 56.3485L9.44815 64.2085C9.63174 64.4464 9.72796 64.7402 9.72068 65.0406C9.71339 65.341 9.60302 65.6298 9.40812 65.8585C7.52145 68.0785 5.18149 69.9118 2.38816 71.3585C-0.421843 72.8185 1.54816 74.5085 3.76816 73.3985C6.63483 71.9585 9.48147 70.4618 12.3081 68.9085C12.4341 68.8377 12.5791 68.8075 12.7239 68.8218C12.8686 68.8361 13.0061 68.8942 13.1181 68.9885Z" stroke="#A6C3C7" stroke-width="2"/>
<path d="M49.1284 12.2688C49.8284 9.46884 50.5284 6.41216 51.2284 3.09883C51.9484 -0.281172 54.4785 0.828835 54.2685 3.55883C54.0218 6.75883 53.825 9.97884 53.6784 13.2188C53.605 14.8455 54.3485 15.7155 55.9085 15.8288L65.0584 16.4888C65.2177 16.5011 65.3705 16.546 65.5055 16.6205C65.6405 16.6949 65.7543 16.7968 65.8384 16.9188C66.5584 17.9688 59.6884 20.3788 59.2284 20.6588C57.8484 21.5188 57.6418 22.6622 58.6084 24.0888L65.4684 34.1988C66.1484 35.1988 65.8917 35.6988 64.6984 35.6988C61.4184 35.6888 55.0784 27.4988 52.7384 25.0488C51.2918 23.5288 49.8518 23.5355 48.4184 25.0688C45.7184 27.9422 42.6984 30.3955 39.3584 32.4288C38.4184 32.9988 37.3284 32.5288 38.2584 31.4088C41.4318 27.5955 44.4351 23.9988 47.2685 20.6188C47.5195 20.3213 47.6424 19.9361 47.6106 19.5468C47.5788 19.1575 47.3948 18.7953 47.0984 18.5388C45.3084 17.0088 34.3084 8.90883 36.3084 7.56883C36.4474 7.47762 36.6126 7.42763 36.7868 7.42411C36.961 7.4206 37.1377 7.46368 37.2984 7.54884L47.4684 12.9288C47.6257 13.0124 47.7995 13.0616 47.9762 13.0726C48.153 13.0837 48.3281 13.0564 48.4883 12.9927C48.6485 12.929 48.7894 12.8307 48.9004 12.7052C49.0113 12.5798 49.0893 12.4305 49.1284 12.2688Z" fill="#418188"/>
<path d="M202.678 72.2692C200.458 69.3958 198.048 66.7225 195.448 64.2492C191.188 60.1992 196.188 60.0692 198.338 61.2992C200.211 62.3725 202.041 63.4958 203.828 64.6692C205.094 65.5025 206.111 65.2292 206.878 63.8492L215.218 48.8892C215.303 48.7371 215.415 48.6047 215.545 48.4999C215.676 48.3951 215.823 48.32 215.978 48.2792C217.448 47.9092 217.318 49.6192 216.918 50.4892C214.771 55.2692 212.904 60.0792 211.318 64.9192C211.259 65.094 211.247 65.2808 211.281 65.4619C211.316 65.643 211.396 65.8122 211.514 65.9535C211.632 66.0949 211.785 66.2036 211.957 66.2693C212.129 66.3351 212.315 66.3557 212.498 66.3292C215.604 65.8892 218.718 65.4859 221.838 65.1192C223.708 64.8992 225.068 65.9492 222.678 67.1192C219.778 68.5492 212.588 70.1692 216.048 74.8592C217.394 76.6858 218.681 78.5458 219.908 80.4392C221.248 82.5192 219.508 83.2192 217.908 82.3092C214.554 80.3959 211.388 78.3492 208.408 76.1692C208.11 75.9523 207.759 75.8304 207.406 75.8214C207.054 75.8124 206.717 75.9168 206.448 76.1192L199.458 81.3892C198.431 82.1625 197.488 82.4692 196.628 82.3092C194.858 81.9892 196.078 80.3992 196.868 79.8092C199.294 77.9825 201.251 75.7492 202.738 73.1092C202.812 72.9788 202.845 72.8296 202.835 72.6801C202.824 72.5306 202.769 72.3877 202.678 72.2692Z" fill="#4E8791"/>
<path d="M12.3081 68.909C9.48147 70.4623 6.63483 71.959 3.76816 73.399C1.54816 74.509 -0.421843 72.819 2.38816 71.359C5.18149 69.9123 7.52145 68.079 9.40812 65.859C9.60302 65.6303 9.71339 65.3415 9.72068 65.0411C9.72796 64.7407 9.63174 64.4469 9.44815 64.209L3.31815 56.349C2.03815 54.7023 1.48812 53.3856 1.66812 52.399C1.98812 50.679 3.42811 51.449 4.21811 52.199C7.53811 55.3856 10.9881 58.439 14.5681 61.359C14.7836 61.5353 15.0479 61.6421 15.3263 61.6653C15.6047 61.6885 15.8842 61.6271 16.1281 61.489C18.3081 60.239 22.5281 57.639 24.9881 59.769C25.0863 59.8536 25.161 59.962 25.2071 60.0869C25.2532 60.2118 25.2697 60.3503 25.2555 60.4933C25.2413 60.6362 25.1967 60.7802 25.1247 60.9157C25.0528 61.0512 24.955 61.175 24.8381 61.279L19.0381 66.479C18.9635 66.547 18.9295 66.664 18.9424 66.8089C18.9552 66.9538 19.014 67.117 19.1081 67.269L24.7081 76.209C24.9026 76.5134 24.9939 76.861 24.9681 77.199C24.7081 80.419 22.2582 78.209 21.3181 77.129C18.7848 74.2223 16.0515 71.509 13.1181 68.989C13.0061 68.8947 12.8686 68.8366 12.7239 68.8223C12.5791 68.808 12.4341 68.8382 12.3081 68.909Z" fill="#4E8791"/>
</svg>
