<svg width="148" height="210" viewBox="0 0 148 210" fill="none" xmlns="http://www.w3.org/2000/svg">
<path d="M82.0114 63.6426C80.5014 65.4126 67.9414 65.3326 64.2714 65.3726C63.9626 65.3788 63.6561 65.2648 63.4114 65.0526L61.9414 63.7726" stroke="#FAE9CD" stroke-width="2"/>
<path d="M61.9379 63.7715C57.9646 56.8781 55.8513 49.7881 55.598 42.5015C55.218 31.7515 53.9279 21.1315 53.6479 10.3315C53.6414 9.99421 53.5322 9.68071 53.338 9.44147C47.158 1.88147 41.8479 22.8015 41.1979 26.8015C39.1279 39.6015 37.938 52.4115 35.918 65.3615" stroke="#FEA999" stroke-width="2"/>
<path d="M35.9197 65.3626C31.3397 66.2892 26.843 66.1326 22.4297 64.8926" stroke="#FAE9CD" stroke-width="2"/>
<path d="M22.4279 64.8921C19.4745 52.5921 16.5211 40.5021 13.5678 28.6221C12.8411 25.6954 11.9179 22.8521 10.7979 20.0921C9.20785 16.1521 6.25786 17.2321 5.24786 20.5521C4.5012 23.0254 3.99785 25.2221 3.73785 27.1421C1.97119 39.9687 1.06115 53.4687 1.00781 67.6421" stroke="#FEA999" stroke-width="2"/>
<path d="M1.00879 67.6426C0.915456 72.0759 1.56547 76.0792 2.9588 79.6526C11.2521 100.959 18.1855 120.233 23.7588 137.473" stroke="#FAE9CD" stroke-width="2"/>
<path d="M23.7578 137.472C27.0178 153.262 33.1578 168.892 37.8878 184.172C38.3878 185.792 38.9145 185.802 39.4678 184.202C44.0945 170.862 49.6545 157.858 56.1478 145.192" stroke="#FEA999" stroke-width="2"/>
<path d="M56.1484 145.191C57.5351 146.971 58.9618 148.288 60.4285 149.141" stroke="#FAE9CD" stroke-width="2"/>
<path d="M60.4297 149.142C64.7697 160.972 69.8496 172.752 74.1896 184.302C75.7296 188.402 82.8996 208.292 85.1396 208.302C85.2811 208.302 85.4205 208.252 85.5375 208.158C85.6545 208.065 85.7429 207.933 85.7897 207.782C91.0197 191.132 95.4697 171.002 98.7897 161.462C100.543 156.416 102.383 151.119 104.31 145.572" stroke="#FEA999" stroke-width="2"/>
<path d="M104.309 145.573C105.262 145.433 106.112 144.903 106.859 143.983C107.072 143.718 107.351 143.537 107.649 143.473L109.179 143.143" stroke="#FAE9CD" stroke-width="2"/>
<path d="M109.18 143.142C116.893 152.729 125.2 161.769 134.1 170.262C134.846 170.969 135.97 171.552 137.47 172.012C137.531 172.03 137.596 172.034 137.659 172.025C137.723 172.017 137.784 171.995 137.84 171.961C137.895 171.927 137.943 171.883 137.981 171.829C138.019 171.776 138.045 171.716 138.06 171.652C138.406 169.972 138.58 168.136 138.58 166.142C138.58 153.396 138.17 141.262 137.35 129.742" stroke="#FCAB9D" stroke-width="2"/>
<path d="M137.352 129.742C143.885 108.935 146.828 87.6454 146.182 65.8721" stroke="#FAE9CD" stroke-width="2"/>
<path d="M146.179 65.8726C145.093 58.3726 144.366 53.8759 143.999 52.3826C142.566 46.5493 139.999 39.5292 136.299 31.3226C135.239 28.9826 126.019 8.92258 123.239 20.4026C122.826 22.1226 122.886 25.8626 123.419 31.6226C124.379 41.9492 125.346 52.5759 126.319 63.5026" stroke="#FEA999" stroke-width="2"/>
<path d="M126.318 63.5026C121.631 64.2226 117.208 64.1626 113.048 63.3226C112.055 63.1226 111.374 62.4792 111.008 61.3926" stroke="#FAE9CD" stroke-width="2"/>
<path d="M111.009 61.3919C103.719 35.8219 99.4695 21.8119 88.7495 3.8019C87.8828 2.34856 86.6295 1.4419 84.9895 1.0819C83.3761 0.728562 82.5494 1.51856 82.5094 3.45189C82.4394 7.77189 82.3595 12.0319 82.7995 16.3719C83.5895 24.1719 84.9695 32.3419 84.6795 39.7719C84.3795 47.5252 83.3795 55.2052 81.6795 62.8119C81.661 62.8868 81.6648 62.9762 81.6908 63.0731C81.7168 63.1701 81.7642 63.2722 81.8294 63.3719L82.0094 63.6419" stroke="#FEA999" stroke-width="2"/>
<path d="M111.008 61.3926C111.014 61.7259 110.934 62.0059 110.768 62.2326C110.694 62.3339 110.577 62.418 110.427 62.4773C110.277 62.5367 110.098 62.5694 109.908 62.5726C102.001 62.7592 94.1045 63.1992 86.2178 63.8926C84.7978 64.0192 83.3945 63.9359 82.0078 63.6426" stroke="#F99367" stroke-width="2"/>
<path d="M137.35 129.742C128.096 133.436 118.983 137.492 110.01 141.912C109.663 142.079 109.386 142.489 109.18 143.142" stroke="#F6956B" stroke-width="2"/>
<path d="M104.31 145.572C101.51 145.312 98.7501 145.499 96.0301 146.132C93.6968 146.672 91.7868 146.946 90.3001 146.952C80.7735 146.986 71.2568 147.232 61.7501 147.692C61.0001 147.722 60.2801 148.342 60.4301 149.142" stroke="#F99367" stroke-width="2"/>
<path d="M56.1478 145.192C45.8945 140.805 35.0978 138.232 23.7578 137.472" stroke="#F99367" stroke-width="2"/>
<path d="M22.4279 64.8926L1.00781 67.6426" stroke="#F99367" stroke-width="2"/>
<path d="M146.18 65.8719C139.44 65.8519 132.82 65.062 126.32 63.502" stroke="#F99367" stroke-width="2"/>
<path d="M61.9379 63.7715C53.3713 65.9582 44.698 66.4881 35.918 65.3615" stroke="#F99367" stroke-width="2"/>
<path d="M103.199 92.6016L99.9688 92.9316" stroke="#84765C" stroke-width="2"/>
<path d="M99.9692 92.9313C94.9092 92.2646 89.9859 92.5913 85.1992 93.9113" stroke="#FAE9CD" stroke-width="2"/>
<path d="M85.1987 93.912C79.4087 93.202 85.9987 104.492 86.9487 106.122C89.9687 111.329 94.5587 114.682 100.719 116.182" stroke="#89795E" stroke-width="2"/>
<path d="M100.719 116.183C100.445 118.023 101.275 118.863 103.209 118.703C106.569 118.423 110.659 118.703 113.519 116.853C121.145 111.913 124.315 104.659 123.029 95.0927C122.862 93.886 122.105 93.6527 120.759 94.3927" stroke="#F3D8A6" stroke-width="2"/>
<path d="M120.758 94.3919C121.071 91.7919 120.071 91.1253 117.758 92.3919" stroke="#89795E" stroke-width="2"/>
<path d="M117.759 92.3922C112.839 91.0789 107.986 91.1488 103.199 92.6022" stroke="#FAE9CD" stroke-width="2"/>
<path d="M117.759 92.3926C116.659 101.483 110.899 115.283 99.7592 111.753C92.2992 109.393 87.5592 101.263 85.1992 93.9126" stroke="#8F8F90" stroke-width="2"/>
<path d="M99.968 92.9316C99.108 97.4716 99.3014 101.955 100.548 106.382C100.592 106.546 100.664 106.697 100.761 106.826C100.857 106.955 100.975 107.059 101.108 107.132C104.958 109.232 103.738 96.0116 103.198 92.6016" stroke="#8A8C8F" stroke-width="2"/>
<path d="M120.759 94.3926C120.619 107.503 116.189 118.023 100.719 116.183" stroke="#887E69" stroke-width="2"/>
<path d="M26.9715 94.102C26.1449 93.8953 25.5582 94.012 25.2115 94.452C25.1281 94.553 25.0735 94.6907 25.0526 94.853C25.0316 95.0152 25.045 95.1969 25.0915 95.382C26.6182 101.649 29.8415 106.902 34.7615 111.142" stroke="#8C7961" stroke-width="2"/>
<path d="M34.7601 111.142L34.7502 113.112C34.7471 113.25 34.7865 113.395 34.8649 113.532C34.9434 113.67 35.0584 113.797 35.2001 113.902C46.8201 122.632 64.5101 118.732 66.7701 102.702C67.2368 99.395 67.4135 97.375 67.3002 96.6417C66.4202 90.8717 62.9302 93.3317 59.4302 92.9917C55.7835 92.6384 52.1301 92.5351 48.4701 92.6817" stroke="#F8E5C7" stroke-width="2"/>
<path d="M48.4688 92.6816L46.7188 92.9316" stroke="#8C7961" stroke-width="2"/>
<path d="M46.7211 92.9322C44.5811 92.5522 26.4711 90.7922 26.9711 94.1022" stroke="#FAE9CD" stroke-width="2"/>
<path d="M46.7188 92.9316L42.8688 110.202C42.8457 110.306 42.8024 110.405 42.7415 110.493C42.6806 110.58 42.6034 110.654 42.5145 110.71C42.4257 110.766 42.327 110.803 42.2246 110.819C42.1222 110.835 42.0181 110.829 41.9188 110.802C34.5288 108.812 32.0488 102.792 28.4288 95.1316C28.3846 95.037 28.3003 94.9338 28.1815 94.8287C28.0626 94.7236 27.9118 94.619 27.7388 94.5216L26.9688 94.1016" stroke="#918F94" stroke-width="2"/>
<path d="M34.7578 111.142C48.1878 120.442 66.7078 114.252 63.7678 95.3516C63.7164 95.0043 63.5589 94.7071 63.3278 94.5216C61.1278 92.7916 59.4778 99.9716 58.5978 102.892C57.1312 107.712 53.9479 110.302 49.0479 110.662C48.9859 110.665 48.9239 110.654 48.8661 110.631C48.8084 110.608 48.756 110.572 48.7126 110.527C48.6691 110.482 48.6356 110.428 48.6141 110.368C48.5926 110.308 48.5836 110.245 48.5878 110.182C49.0378 102.532 49.5478 95.4916 48.4678 92.6816" stroke="#8F8B8E" stroke-width="2"/>
<path d="M111.009 61.3919C111.016 61.7252 110.936 62.0052 110.769 62.2319C110.696 62.3333 110.578 62.4173 110.428 62.4767C110.278 62.536 110.1 62.5687 109.909 62.5719C102.003 62.7586 94.1061 63.1986 86.2194 63.8919C84.7994 64.0186 83.3961 63.9352 82.0094 63.6419L81.8294 63.3719C81.7642 63.2723 81.7168 63.1701 81.6908 63.0731C81.6648 62.9762 81.661 62.8868 81.6795 62.8119C83.3795 55.2052 84.3795 47.5252 84.6795 39.7719C84.9695 32.3419 83.5895 24.1719 82.7995 16.3719C82.3595 12.0319 82.4394 7.77189 82.5094 3.45189C82.5494 1.51856 83.3761 0.728562 84.9895 1.0819C86.6295 1.4419 87.8828 2.34856 88.7495 3.8019C99.4695 21.8119 103.719 35.8219 111.009 61.3919Z" fill="#FD5333"/>
<path d="M61.9379 63.7715C53.3713 65.9581 44.698 66.4881 35.918 65.3615C37.938 52.4115 39.1279 39.6015 41.1979 26.8015C41.8479 22.8015 47.158 1.88147 53.338 9.44147C53.5322 9.68071 53.6414 9.99421 53.6479 10.3315C53.9279 21.1315 55.218 31.7515 55.598 42.5015C55.8513 49.7881 57.9646 56.8781 61.9379 63.7715Z" fill="#FD5333"/>
<path d="M146.179 65.8726C139.439 65.8526 132.819 65.0626 126.319 63.5026C125.346 52.5759 124.379 41.9492 123.419 31.6226C122.886 25.8626 122.826 22.1226 123.239 20.4026C126.019 8.92258 135.239 28.9826 136.299 31.3226C139.999 39.5292 142.566 46.5493 143.999 52.3826C144.366 53.8759 145.093 58.3726 146.179 65.8726Z" fill="#FD5333"/>
<path d="M22.4279 64.8921L1.00781 67.6421C1.06115 53.4687 1.97119 39.9687 3.73785 27.1421C3.99785 25.2221 4.5012 23.0254 5.24786 20.5521C6.25786 17.2321 9.20785 16.1521 10.7979 20.0921C11.9179 22.8521 12.8411 25.6954 13.5678 28.6221C16.5211 40.5021 19.4745 52.5921 22.4279 64.8921Z" fill="#FD5333"/>
<path d="M111.009 61.3926C111.375 62.4792 112.055 63.1226 113.049 63.3226C117.209 64.1626 121.632 64.2226 126.319 63.5026C132.819 65.0626 139.439 65.8526 146.179 65.8726C146.826 87.6459 143.882 108.936 137.349 129.743C128.095 133.436 118.982 137.493 110.009 141.913C109.662 142.079 109.385 142.489 109.179 143.143L107.649 143.473C107.351 143.537 107.072 143.718 106.859 143.983C106.112 144.903 105.262 145.433 104.309 145.573C101.509 145.313 98.7488 145.499 96.0288 146.133C93.6955 146.673 91.7855 146.946 90.2988 146.953C80.7722 146.986 71.2555 147.233 61.7488 147.693C60.9988 147.723 60.2788 148.343 60.4288 149.143C58.9622 148.289 57.5355 146.973 56.1488 145.193C45.8955 140.806 35.0988 138.233 23.7588 137.473C18.1855 120.233 11.2521 100.959 2.9588 79.6526C1.56547 76.0792 0.915456 72.0759 1.00879 67.6426L22.4288 64.8926C26.8422 66.1326 31.3388 66.2892 35.9188 65.3626C44.6988 66.4892 53.3721 65.9592 61.9388 63.7726L63.4088 65.0526C63.6535 65.2648 63.96 65.3788 64.2688 65.3726C67.9388 65.3326 80.4988 65.4126 82.0088 63.6426C83.3955 63.9359 84.7988 64.0192 86.2188 63.8926C94.1055 63.1992 102.002 62.7592 109.909 62.5726C110.099 62.5694 110.278 62.5367 110.428 62.4773C110.578 62.418 110.695 62.3339 110.769 62.2326C110.935 62.0059 111.015 61.7259 111.009 61.3926ZM103.199 92.6026L99.9688 92.9326C94.9088 92.2659 89.9855 92.5926 85.1988 93.9126C79.4088 93.2026 85.9988 104.493 86.9488 106.123C89.9688 111.329 94.5588 114.683 100.719 116.183C100.445 118.023 101.275 118.863 103.209 118.703C106.569 118.423 110.659 118.703 113.519 116.853C121.145 111.913 124.315 104.659 123.029 95.0926C122.862 93.8859 122.105 93.6526 120.759 94.3926C121.072 91.7926 120.072 91.1259 117.759 92.3926C112.839 91.0792 107.985 91.1492 103.199 92.6026ZM26.9688 94.1026C26.1421 93.8959 25.5555 94.0126 25.2088 94.4526C25.1254 94.5536 25.0708 94.6913 25.0499 94.8535C25.0289 95.0158 25.0423 95.1975 25.0888 95.3826C26.6155 101.649 29.8388 106.903 34.7588 111.143L34.7488 113.113C34.7458 113.251 34.7851 113.395 34.8636 113.533C34.942 113.671 35.0571 113.798 35.1988 113.903C46.8188 122.633 64.5088 118.733 66.7688 102.703C67.2355 99.3959 67.4122 97.3759 67.2988 96.6426C66.4188 90.8726 62.9288 93.3326 59.4288 92.9926C55.7822 92.6393 52.1288 92.5359 48.4688 92.6826L46.7188 92.9326C44.5788 92.5526 26.4688 90.7926 26.9688 94.1026Z" fill="#F4D39A"/>
<path d="M117.759 92.3922C116.659 101.482 110.899 115.282 99.7592 111.752C92.2992 109.392 87.5592 101.262 85.1992 93.9122C89.9859 92.5922 94.9092 92.2655 99.9692 92.9322C99.1092 97.4722 99.3026 101.956 100.549 106.382C100.593 106.547 100.666 106.698 100.762 106.827C100.858 106.956 100.976 107.06 101.109 107.132C104.959 109.232 103.739 96.0122 103.199 92.6022C107.986 91.1488 112.839 91.0789 117.759 92.3922Z" fill="white"/>
<path d="M120.759 94.3919C120.619 107.502 116.189 118.022 100.719 116.182C94.5587 114.682 89.9687 111.329 86.9487 106.122C85.9987 104.492 79.4087 93.2019 85.1987 93.9119C87.5587 101.262 92.2987 109.392 99.7587 111.752C110.899 115.282 116.659 101.482 117.759 92.3919C120.072 91.1253 121.072 91.7919 120.759 94.3919Z" fill="#1E1E21"/>
<path d="M46.7172 92.9322L42.8672 110.202C42.8442 110.307 42.8009 110.406 42.74 110.493C42.6791 110.581 42.6018 110.655 42.513 110.711C42.4241 110.767 42.3255 110.804 42.2231 110.82C42.1206 110.835 42.0166 110.829 41.9172 110.802C34.5272 108.812 32.0472 102.792 28.4272 95.1322C28.3831 95.0376 28.2988 94.9344 28.1799 94.8293C28.061 94.7242 27.9102 94.6196 27.7372 94.5222L26.9672 94.1022C26.4672 90.7922 44.5772 92.5522 46.7172 92.9322Z" fill="white"/>
<path d="M34.7601 111.142C48.1901 120.442 66.7101 114.252 63.7701 95.3517C63.7187 95.0044 63.5612 94.7072 63.3301 94.5217C61.1301 92.7917 59.4801 99.9717 58.6001 102.892C57.1335 107.712 53.9502 110.302 49.0502 110.662C48.9882 110.665 48.9262 110.654 48.8685 110.631C48.8107 110.608 48.7583 110.573 48.7149 110.527C48.6714 110.482 48.6379 110.428 48.6164 110.368C48.5949 110.309 48.5859 110.245 48.5901 110.182C49.0401 102.532 49.5501 95.4917 48.4701 92.6817C52.1301 92.5351 55.7835 92.6384 59.4302 92.9917C62.9302 93.3317 66.4202 90.8717 67.3002 96.6417C67.4135 97.375 67.2368 99.395 66.7701 102.702C64.5101 118.732 46.8201 122.632 35.2001 113.902C35.0584 113.797 34.9434 113.67 34.8649 113.532C34.7865 113.395 34.7471 113.25 34.7502 113.112L34.7601 111.142Z" fill="#FBF7F3"/>
<path d="M48.4676 92.6816C49.5476 95.4916 49.0376 102.532 48.5876 110.182C48.5834 110.245 48.5924 110.308 48.6139 110.368C48.6354 110.428 48.6689 110.482 48.7124 110.527C48.7558 110.572 48.8082 110.608 48.8659 110.631C48.9237 110.654 48.9856 110.665 49.0476 110.662C53.9476 110.302 57.131 107.712 58.5976 102.892C59.4776 99.9716 61.1276 92.7916 63.3276 94.5216C63.5587 94.7071 63.7162 95.0043 63.7676 95.3516C66.7076 114.252 48.1876 120.442 34.7576 111.142C29.8376 106.902 26.6143 101.648 25.0876 95.3816C25.0411 95.1966 25.0277 95.0148 25.0487 94.8526C25.0696 94.6904 25.1242 94.5526 25.2076 94.4516C25.5543 94.0116 26.141 93.895 26.9676 94.1016L27.7376 94.5216C27.9106 94.619 28.0615 94.7236 28.1803 94.8287C28.2992 94.9338 28.3835 95.037 28.4276 95.1316C32.0476 102.792 34.5276 108.812 41.9176 110.802C42.017 110.829 42.1211 110.835 42.2235 110.819C42.3259 110.803 42.4245 110.766 42.5134 110.71C42.6023 110.654 42.6795 110.58 42.7404 110.493C42.8013 110.405 42.8446 110.306 42.8676 110.202L46.7176 92.9316L48.4676 92.6816Z" fill="#231F28"/>
<path d="M103.198 92.6016C103.738 96.0116 104.958 109.232 101.108 107.132C100.975 107.059 100.857 106.955 100.761 106.826C100.664 106.697 100.592 106.546 100.548 106.382C99.3014 101.955 99.108 97.4716 99.968 92.9316L103.198 92.6016Z" fill="#14181E"/>
<path d="M100.719 116.183C116.189 118.023 120.619 107.503 120.759 94.3927C122.105 93.6527 122.862 93.886 123.029 95.0927C124.315 104.659 121.145 111.913 113.519 116.853C110.659 118.703 106.569 118.423 103.209 118.703C101.275 118.863 100.445 118.023 100.719 116.183Z" fill="#F1DDB1"/>
<path d="M137.35 129.742C138.17 141.262 138.58 153.396 138.58 166.142C138.58 168.136 138.406 169.972 138.06 171.652C138.045 171.716 138.019 171.776 137.981 171.829C137.943 171.883 137.895 171.927 137.84 171.961C137.784 171.995 137.723 172.017 137.659 172.025C137.596 172.034 137.531 172.03 137.47 172.012C135.97 171.552 134.846 170.969 134.1 170.262C125.2 161.769 116.893 152.729 109.18 143.142C109.386 142.489 109.663 142.079 110.01 141.912C118.983 137.492 128.096 133.436 137.35 129.742Z" fill="#F8573B"/>
<path d="M56.1478 145.193C49.6545 157.859 44.0945 170.863 39.4678 184.203C38.9145 185.803 38.3878 185.793 37.8878 184.173C33.1578 168.893 27.0178 153.263 23.7578 137.473C35.0978 138.233 45.8945 140.806 56.1478 145.193Z" fill="#FD5333"/>
<path d="M104.31 145.572C102.383 151.119 100.543 156.416 98.7901 161.463C95.4701 171.003 91.0201 191.133 85.7901 207.783C85.7433 207.933 85.6549 208.065 85.5379 208.159C85.4209 208.252 85.2815 208.303 85.1401 208.303C82.9001 208.293 75.7301 188.403 74.1901 184.303C69.8501 172.753 64.7701 160.972 60.4301 149.142C60.2801 148.342 61.0001 147.722 61.7501 147.692C71.2568 147.232 80.7735 146.986 90.3001 146.952C91.7868 146.946 93.6968 146.672 96.0301 146.132C98.7501 145.499 101.51 145.312 104.31 145.572Z" fill="#FD5333"/>
</svg>
