<svg width="33" height="20" viewBox="0 0 33 20" fill="none" xmlns="http://www.w3.org/2000/svg">
<path d="M13.816 3.5332C9.30601 6.7732 5.73598 11.4032 1.65598 15.1032C0.65598 16.0099 0.799306 16.6699 2.08597 17.0832C5.68597 18.2232 9.196 17.8865 12.616 16.0732" stroke="#B6BED4" stroke-width="2"/>
<path d="M12.6172 16.0739L15.9072 18.4638C16.0106 18.5383 16.1499 18.5733 16.308 18.5644C16.466 18.5555 16.636 18.5032 16.7972 18.4139C20.2772 16.4739 23.9338 14.9839 27.7672 13.9439C31.6672 12.8905 32.2972 11.7605 29.6572 10.5538C27.6472 9.62384 25.2372 10.5339 23.4672 11.5739C23.1005 11.7939 22.9239 11.6738 22.9372 11.2138C23.0772 7.70718 22.0172 4.58385 19.7572 1.84385C19.4377 1.45198 19.0151 1.17155 18.5717 1.05698C18.1282 0.942415 17.6953 1.00189 17.3572 1.22385L13.8172 3.53385" stroke="#AFB5CF" stroke-width="2"/>
<path d="M12.6172 16.0732C13.3305 14.1865 13.5705 12.0765 13.3372 9.74319C13.323 9.61225 13.3597 9.4797 13.4404 9.3696C13.5212 9.2595 13.6406 9.17915 13.7772 9.14319C16.2072 8.48319 14.8772 4.9232 13.8172 3.5332" stroke="#6674A4" stroke-width="2"/>
<path d="M12.6172 16.0739C13.3305 14.1872 13.5705 12.0772 13.3372 9.74384C13.323 9.61289 13.3597 9.48034 13.4404 9.37024C13.5212 9.26015 13.6406 9.1798 13.7772 9.14384C16.2072 8.48384 14.8772 4.92385 13.8172 3.53385L17.3572 1.22385C17.6953 1.00189 18.1282 0.942415 18.5717 1.05698C19.0151 1.17155 19.4377 1.45198 19.7572 1.84385C22.0172 4.58385 23.0772 7.70718 22.9372 11.2138C22.9239 11.6738 23.1005 11.7939 23.4672 11.5739C25.2372 10.5339 27.6472 9.62384 29.6572 10.5538C32.2972 11.7605 31.6672 12.8905 27.7672 13.9439C23.9338 14.9839 20.2772 16.4739 16.7972 18.4139C16.636 18.5032 16.466 18.5555 16.308 18.5644C16.1499 18.5733 16.0106 18.5383 15.9072 18.4638L12.6172 16.0739Z" fill="#5E6B9E"/>
<path d="M13.816 3.53418C14.876 4.92418 16.206 8.48417 13.776 9.14417C13.6395 9.18013 13.52 9.26048 13.4392 9.37057C13.3585 9.48067 13.3219 9.61322 13.336 9.74417C13.5693 12.0775 13.3293 14.1875 12.616 16.0742C9.196 17.8875 5.68597 18.2242 2.08597 17.0842C0.799306 16.6708 0.65598 16.0109 1.65598 15.1042C5.73598 11.4042 9.30601 6.77418 13.816 3.53418Z" fill="#6D7CA9"/>
</svg>
