<svg width="107" height="174" viewBox="0 0 107 174" fill="none" xmlns="http://www.w3.org/2000/svg">
<path d="M76.2288 11.7592C67.4126 21.4192 52.5246 32.2992 42.8338 42.4192C21.2808 64.9392 6.58382 90.7692 2.17069 122.089C1.00458 130.339 -0.0811556 141.359 3.06534 149.069C10.0922 166.249 29.0315 176.039 47.0861 171.889C55.3997 169.979 66.7089 167.109 73.0924 161.389C91.1169 145.219 98.013 124.139 97.4702 100.199C97.3395 94.4192 95.8416 88.9492 94.3538 83.2992C93.9852 81.8992 94.2098 80.5992 95.0274 79.3992C106.397 62.7192 107.131 42.7592 103.452 23.3792C102.014 15.8192 102.074 2.17915 92.0919 1.03915C86.6233 0.409147 79.9986 7.62918 76.2288 11.7592Z" stroke="#F6B1A6" stroke-width="2"/>
<path d="M50.2653 112.569C51.0192 102.319 51.4013 91.899 54.8795 82.019C54.9898 81.7027 55.1685 81.4143 55.403 81.1741C55.6375 80.934 55.922 80.7479 56.2366 80.629C65.1835 77.279 75.6885 71.039 81.7302 63.519C83.6904 61.079 81.4286 59.359 79.026 61.299C73.3161 65.899 67.1304 69.7423 60.4688 72.829C59.3295 73.3557 59.048 73.099 59.6243 72.059C65.3007 61.8056 71.0275 51.5823 76.8044 41.389C77.297 40.529 81.0667 33.019 78.0911 33.519C77.9444 33.5445 77.7996 33.6044 77.6649 33.6954C77.5303 33.7864 77.4086 33.9066 77.307 34.049C76.4961 35.1556 75.5512 36.7256 74.4722 38.759C68.2931 50.4323 62.0806 62.0956 55.8345 73.749C54.9499 75.4023 53.9814 75.4523 52.9293 73.899C49.3103 68.559 51.4314 60.489 52.1753 54.339C52.2691 53.5257 51.9273 52.9823 51.1499 52.709C51.0231 52.6617 50.8806 52.6683 50.7504 52.7275C50.6202 52.7868 50.5117 52.8943 50.4462 53.029C45.4199 63.389 44.2236 69.999 51.6526 79.669C51.7454 79.7924 51.8068 79.9362 51.8313 80.0878C51.8558 80.2394 51.8428 80.3942 51.7933 80.5389C48.4089 90.6856 46.8239 101.116 47.0384 111.829C47.0585 112.949 46.6162 113.166 45.7114 112.479C40.9733 108.912 37.3543 104.439 34.8546 99.059C34.7752 98.8887 34.6709 98.7388 34.5481 98.6184C34.4254 98.4979 34.2867 98.4096 34.1408 98.359C31.2054 97.349 31.7382 99.989 32.281 101.569C34.8277 108.962 39.3816 114.499 45.9426 118.179C46.2754 118.367 46.547 118.645 46.7252 118.98C46.9034 119.315 46.9807 119.693 46.9479 120.069L45.1082 141.069C44.9943 142.422 44.3007 142.882 43.0273 142.449C33.9598 139.349 29.4261 132.549 26.6515 123.559C26.5823 123.338 26.4934 123.141 26.3953 122.992C26.2972 122.843 26.1943 122.748 26.0986 122.719C25.4352 122.506 24.8052 122.606 24.2087 123.019C24.0869 123.103 23.9846 123.225 23.9097 123.374C23.8347 123.523 23.7892 123.696 23.7765 123.879C23.0326 135.069 33.2863 144.779 43.1882 147.649C43.3836 147.706 43.5563 147.803 43.6798 147.924C43.8033 148.045 43.8707 148.184 43.8718 148.319V154.319C43.872 154.486 43.9129 154.649 43.9904 154.791C44.068 154.933 44.1796 155.05 44.3141 155.129C45.5137 155.822 46.5626 155.659 47.4606 154.639C47.5328 154.558 47.5883 154.443 47.6231 154.301C47.6578 154.159 47.671 153.995 47.6617 153.819L47.4103 148.569C47.3992 148.268 47.492 147.967 47.6758 147.709C47.8597 147.451 48.1254 147.248 48.4357 147.129C55.4022 144.499 67.3247 138.779 71.7278 132.659C71.8205 132.531 71.8793 132.382 71.8986 132.228C71.918 132.074 71.8972 131.92 71.8384 131.779C71.2151 130.326 70.1796 130.086 68.7321 131.059C62.4525 135.252 55.9049 138.999 49.0891 142.299C48.5597 142.559 48.3184 142.399 48.3653 141.819L50.3055 119.559C50.3276 119.325 50.4131 119.09 50.5557 118.872C50.6984 118.654 50.8946 118.458 51.1298 118.299C57.2686 114.146 63.2668 109.832 69.1241 105.359C71.2553 103.729 72.2606 98.999 67.7771 101.749C62.0069 105.282 56.4511 109.039 51.1097 113.019C50.4932 113.479 50.2117 113.329 50.2653 112.569Z" stroke="#8D5353" stroke-width="2"/>
<path d="M76.2288 11.7587C79.9986 7.62869 86.6233 0.408659 92.0919 1.03866C102.074 2.17866 102.014 15.8187 103.452 23.3787C107.131 42.7587 106.397 62.7187 95.0274 79.3987C94.2097 80.5987 93.9852 81.8987 94.3538 83.2987C95.8416 88.9487 97.3395 94.4187 97.4702 100.199C98.013 124.139 91.1169 145.219 73.0924 161.389C66.7089 167.109 55.3997 169.979 47.0861 171.889C29.0315 176.039 10.0922 166.249 3.06534 149.069C-0.0811555 141.359 1.00458 130.339 2.17069 122.089C6.58382 90.7687 21.2808 64.9387 42.8338 42.4187C52.5246 32.2987 67.4126 21.4187 76.2288 11.7587ZM50.2627 112.569C51.0167 102.319 51.3987 91.8987 54.8769 82.0187C54.9872 81.7024 55.166 81.414 55.4004 81.1739C55.6349 80.9337 55.9194 80.7476 56.234 80.6287C65.1809 77.2787 75.686 71.0387 81.7276 63.5187C83.6879 61.0787 81.426 59.3587 79.0234 61.2987C73.3135 65.8987 67.1278 69.742 60.4662 72.8287C59.3269 73.3554 59.0454 73.0987 59.6218 72.0587C65.2982 61.8053 71.0249 51.582 76.8018 41.3887C77.2944 40.5287 81.0641 33.0187 78.0886 33.5187C77.9419 33.5442 77.797 33.6042 77.6624 33.6952C77.5277 33.7862 77.4061 33.9063 77.3045 34.0487C76.4936 35.1553 75.5486 36.7254 74.4696 38.7587C68.2906 50.432 62.078 62.0953 55.8319 73.7487C54.9473 75.402 53.9789 75.452 52.9267 73.8987C49.3077 68.5587 51.4289 60.4887 52.1728 54.3387C52.2666 53.5254 51.9248 52.982 51.1474 52.7087C51.0205 52.6614 50.878 52.6681 50.7478 52.7273C50.6176 52.7865 50.5091 52.894 50.4437 53.0287C45.4173 63.3887 44.2211 69.9987 51.65 79.6687C51.7429 79.7921 51.8042 79.9359 51.8287 80.0875C51.8532 80.2391 51.8402 80.3939 51.7907 80.5387C48.4063 90.6853 46.8214 101.115 47.0358 111.829C47.056 112.949 46.6136 113.165 45.7089 112.479C40.9707 108.912 37.3518 104.439 34.852 99.0587C34.7727 98.8885 34.6684 98.7385 34.5456 98.6181C34.4228 98.4977 34.2841 98.4093 34.1382 98.3587C31.2028 97.3487 31.7356 99.9887 32.2784 101.569C34.8251 108.962 39.379 114.499 45.9401 118.179C46.2729 118.367 46.5445 118.645 46.7227 118.98C46.9009 119.315 46.9782 119.693 46.9453 120.069L45.1057 141.069C44.9918 142.422 44.2981 142.882 43.0248 142.449C33.9572 139.349 29.4235 132.549 26.649 123.559C26.5798 123.337 26.4908 123.141 26.3927 122.992C26.2947 122.843 26.1917 122.748 26.0961 122.719C25.4326 122.505 24.8026 122.605 24.2062 123.019C24.0844 123.103 23.982 123.224 23.9071 123.373C23.8322 123.523 23.7866 123.695 23.7739 123.879C23.03 135.069 33.2838 144.779 43.1856 147.649C43.3811 147.706 43.5537 147.803 43.6772 147.924C43.8007 148.045 43.8682 148.183 43.8692 148.319V154.319C43.8694 154.486 43.9103 154.649 43.9879 154.791C44.0654 154.933 44.177 155.049 44.3115 155.129C45.5112 155.822 46.56 155.659 47.458 154.639C47.5303 154.558 47.5858 154.443 47.6205 154.301C47.6553 154.159 47.6685 153.994 47.6591 153.819L47.4078 148.569C47.3966 148.268 47.4894 147.967 47.6733 147.709C47.8571 147.451 48.1228 147.248 48.4331 147.129C55.3996 144.499 67.3222 138.779 71.7252 132.659C71.8179 132.53 71.8767 132.382 71.8961 132.228C71.9154 132.074 71.8947 131.919 71.8358 131.779C71.2125 130.325 70.1771 130.085 68.7295 131.059C62.4499 135.252 55.9023 138.999 49.0866 142.299C48.5571 142.559 48.3158 142.399 48.3627 141.819L50.303 119.559C50.325 119.325 50.4105 119.09 50.5532 118.872C50.6959 118.654 50.892 118.458 51.1272 118.299C57.2661 114.145 63.2642 109.832 69.1216 105.359C71.2527 103.729 72.258 98.9987 67.7745 101.749C62.0043 105.282 56.4485 109.039 51.1072 113.019C50.4906 113.479 50.2091 113.329 50.2627 112.569Z" fill="#ED6A5B"/>
<path d="M50.388 113.074C50.3346 113.834 50.6147 113.984 51.228 113.524C56.5413 109.544 62.068 105.787 67.808 102.254C72.268 99.5039 71.268 104.234 69.148 105.864C63.3213 110.337 57.3546 114.651 51.248 118.804C51.014 118.963 50.8188 119.159 50.6769 119.377C50.535 119.595 50.4499 119.83 50.428 120.064L48.498 142.324C48.4513 142.904 48.6913 143.064 49.218 142.804C55.998 139.504 62.5113 135.757 68.758 131.564C70.198 130.591 71.228 130.831 71.848 132.284C71.9066 132.424 71.9272 132.579 71.9079 132.733C71.8887 132.887 71.8302 133.035 71.738 133.164C67.358 139.284 55.498 145.004 48.568 147.634C48.2593 147.753 47.995 147.956 47.8121 148.214C47.6292 148.472 47.5369 148.773 47.548 149.074L47.798 154.324C47.8073 154.5 47.7942 154.664 47.7596 154.806C47.725 154.948 47.6699 155.063 47.598 155.144C46.7047 156.164 45.6613 156.327 44.468 155.634C44.3342 155.555 44.2232 155.438 44.146 155.296C44.0689 155.154 44.0282 154.991 44.028 154.824V148.824C44.0269 148.689 43.9598 148.55 43.837 148.429C43.7142 148.308 43.5424 148.211 43.348 148.154C33.498 145.284 23.298 135.574 24.038 124.384C24.0506 124.201 24.096 124.028 24.1705 123.879C24.245 123.73 24.3468 123.608 24.468 123.524C25.0613 123.111 25.688 123.011 26.348 123.224C26.4431 123.253 26.5456 123.348 26.6431 123.497C26.7406 123.646 26.8291 123.843 26.898 124.064C29.658 133.054 34.168 139.854 43.188 142.954C44.4546 143.387 45.1446 142.927 45.258 141.574L47.088 120.574C47.1206 120.198 47.0437 119.82 46.8665 119.485C46.6892 119.15 46.419 118.872 46.088 118.684C39.5613 115.004 35.0313 109.467 32.498 102.074C31.958 100.494 31.428 97.8538 34.348 98.8638C34.4931 98.9145 34.6311 99.0028 34.7532 99.1232C34.8753 99.2437 34.9791 99.3936 35.058 99.5639C37.5447 104.944 41.1447 109.417 45.858 112.984C46.758 113.671 47.198 113.454 47.178 112.334C46.9647 101.621 48.5413 91.1905 51.908 81.0438C51.9572 80.8991 51.9702 80.7442 51.9458 80.5927C51.9214 80.4411 51.8603 80.2973 51.768 80.1738C44.378 70.5038 45.568 63.8939 50.568 53.5339C50.6331 53.3992 50.741 53.2916 50.8705 53.2324C51 53.1732 51.1418 53.1666 51.268 53.2139C52.0413 53.4872 52.3813 54.0305 52.288 54.8439C51.548 60.9939 49.438 69.0639 53.038 74.4039C54.0847 75.9572 55.048 75.9072 55.928 74.2539C62.1413 62.6005 68.3213 50.9372 74.468 39.2639C75.5413 37.2305 76.4813 35.6605 77.288 34.5538C77.3891 34.4115 77.5101 34.2913 77.644 34.2003C77.7779 34.1093 77.922 34.0493 78.068 34.0239C81.028 33.5239 77.278 41.0339 76.788 41.8939C71.0413 52.0872 65.3446 62.3105 59.698 72.5639C59.1246 73.6039 59.4047 73.8605 60.538 73.3339C67.1647 70.2472 73.318 66.4038 78.998 61.8038C81.388 59.8638 83.638 61.5839 81.688 64.0239C75.678 71.5439 65.228 77.7839 56.328 81.1339C56.015 81.2528 55.732 81.4389 55.4987 81.679C55.2655 81.9192 55.0877 82.2076 54.978 82.5239C51.518 92.4039 51.138 102.824 50.388 113.074Z" fill="#2D3B4B"/>
</svg>
