<svg width="26" height="27" viewBox="0 0 26 27" fill="none" xmlns="http://www.w3.org/2000/svg">
<path d="M8.77737 16.3838C8.66737 19.0038 7.43735 22.3938 8.50735 24.8138C8.53543 24.8746 8.578 24.9276 8.63132 24.9682C8.68463 25.0088 8.74706 25.0356 8.81317 25.0465C8.87928 25.0573 8.94704 25.0518 9.01053 25.0304C9.07401 25.009 9.13131 24.9724 9.17737 24.9238C12.3107 21.6105 15.404 18.4404 18.4574 15.4138C20.2174 13.6638 22.7074 12.5738 24.4874 10.5238C25.2474 9.65712 25.0374 9.17378 23.8574 9.07378L14.6074 8.34377C14.4281 8.32856 14.2568 8.26781 14.111 8.16768C13.9652 8.06755 13.8501 7.93163 13.7774 7.77379C12.9874 6.05379 12.5873 3.83379 11.1873 2.58379C6.78735 -1.35621 9.05736 7.68379 9.26736 8.80379C9.29624 8.94682 9.27753 9.09505 9.2142 9.22533C9.15087 9.3556 9.04649 9.46057 8.91736 9.52379C7.26736 10.3338 -0.71264 12.0238 1.96736 15.0638C2.06555 15.1742 2.19447 15.2641 2.34596 15.3278C2.49745 15.3915 2.66819 15.4276 2.84736 15.4338L8.42737 15.6438C8.5279 15.6472 8.62119 15.727 8.6868 15.8657C8.7524 16.0044 8.78498 16.1907 8.77737 16.3838Z" stroke="#8D94AE" stroke-width="2"/>
<path d="M8.43127 15.6438L2.85127 15.4338C2.6721 15.4276 2.50135 15.3915 2.34987 15.3278C2.19838 15.2641 2.06946 15.1742 1.97127 15.0638C-0.708734 12.0238 7.27126 10.3338 8.92126 9.52379C9.0504 9.46057 9.15478 9.3556 9.21811 9.22533C9.28144 9.09505 9.30014 8.94682 9.27127 8.80379C9.06127 7.68379 6.79125 -1.35621 11.1913 2.58379C12.5913 3.83379 12.9913 6.05379 13.7813 7.77379C13.854 7.93163 13.9691 8.06755 14.1149 8.16768C14.2607 8.26781 14.432 8.32856 14.6113 8.34377L23.8613 9.07378C25.0413 9.17378 25.2513 9.65712 24.4913 10.5238C22.7113 12.5738 20.2213 13.6638 18.4613 15.4138C15.4079 18.4404 12.3146 21.6105 9.18127 24.9238C9.13522 24.9724 9.07792 25.009 9.01443 25.0304C8.95095 25.0518 8.88319 25.0574 8.81708 25.0465C8.75097 25.0356 8.68854 25.0088 8.63522 24.9682C8.58191 24.9276 8.53934 24.8746 8.51126 24.8138C7.44126 22.3938 8.67128 19.0038 8.78128 16.3838C8.78889 16.1907 8.75631 16.0044 8.6907 15.8657C8.6251 15.727 8.5318 15.6472 8.43127 15.6438Z" fill="#1A285D"/>
</svg>
