<svg width="23" height="22" viewBox="0 0 23 22" fill="none" xmlns="http://www.w3.org/2000/svg">
<path d="M6.22619 8.4499C4.49619 9.3199 1.67618 10.0999 1.27618 12.3199C1.24664 12.4854 1.26261 12.6523 1.32177 12.7976C1.38093 12.9428 1.48034 13.0589 1.60619 13.1299C4.73286 14.8232 7.63956 16.8566 10.3262 19.2299C11.9796 20.6899 13.4028 20.4099 14.5962 18.3899L21.4462 6.78993C21.4877 6.71916 21.5162 6.64163 21.5301 6.56233C21.5441 6.48302 21.543 6.4037 21.527 6.32935C21.511 6.25501 21.4804 6.18728 21.4372 6.13056C21.3941 6.07384 21.3392 6.02933 21.2762 5.99989L12.1262 1.79993C10.8329 1.2066 9.88619 1.55325 9.28619 2.83991L6.99621 7.74989C6.8738 8.00723 6.5993 8.25677 6.22619 8.4499Z" stroke="#B5E7D9" stroke-width="2"/>
<path d="M7.00011 7.74989L9.29009 2.83991C9.89009 1.55325 10.8368 1.2066 12.1301 1.79993L21.2801 5.99989C21.3431 6.02933 21.398 6.07384 21.4412 6.13056C21.4843 6.18728 21.5149 6.25501 21.5309 6.32935C21.5469 6.4037 21.548 6.48302 21.534 6.56233C21.5201 6.64163 21.4916 6.71916 21.4501 6.78993L14.6001 18.3899C13.4068 20.4099 11.9835 20.6899 10.3301 19.2299C7.64346 16.8566 4.73677 14.8232 1.6101 13.1299C1.48425 13.0589 1.38483 12.9428 1.32567 12.7976C1.26652 12.6523 1.25055 12.4854 1.28008 12.3199C1.68008 10.0999 4.50009 9.3199 6.23009 8.4499C6.60321 8.25677 6.87771 8.00723 7.00011 7.74989Z" fill="#6BCEB3"/>
</svg>
