<svg width="44" height="107" viewBox="0 0 44 107" fill="none" xmlns="http://www.w3.org/2000/svg">
<path d="M4.25294 81.5273C11.5729 87.9373 15.6629 84.1273 23.5329 82.1773C24.8329 81.8573 26.0863 81.9806 27.2929 82.5473C33.7829 85.6073 40.1729 88.6373 37.6029 97.4873C37.1962 98.8873 36.2629 99.5573 34.8029 99.4973C32.6929 99.4173 28.2729 98.8873 26.6429 100.397C25.3763 101.577 25.6563 102.697 27.4829 103.757C29.1563 104.724 30.7229 105.247 32.1829 105.327C39.0129 105.707 42.7029 101.757 42.4429 95.0073C42.2429 89.5773 40.683 86.1173 36.403 82.4473C31.663 78.3973 28.5929 74.4473 21.5629 74.9773C19.9729 75.0973 9.63293 80.5973 9.34293 75.4073C9.13293 71.4473 14.0029 68.4673 14.1129 64.0573C14.2829 57.1373 9.61294 52.6073 7.28294 46.6973C7.1655 46.3976 7.14111 46.0667 7.21293 45.7473C8.05959 41.9673 9.17293 38.2673 10.5529 34.6473C12.7229 28.9273 18.6529 25.9773 20.1529 20.2673C21.7596 14.1606 21.4829 8.04062 19.3229 1.90728C19.2669 1.75139 19.1813 1.61129 19.0723 1.49713C18.9634 1.38296 18.8338 1.2976 18.6929 1.24728C16.7663 0.533947 15.8129 1.36394 15.8329 3.73727C15.8729 9.70727 17.9529 14.6273 14.5729 20.5273C14.4244 20.7981 14.1685 21.0114 13.8529 21.1273C5.69294 24.1573 8.84294 31.5273 5.32294 37.4673C2.82961 41.6739 2.6696 46.1773 4.84293 50.9773C5.79293 53.0773 7.38292 55.4973 7.80292 57.5073C9.77292 66.9473 -5.42706 73.0573 4.25294 81.5273Z" stroke="#9296AC" stroke-width="2"/>
<path d="M4.25294 81.5273C-5.42706 73.0573 9.77292 66.9473 7.80292 57.5073C7.38292 55.4973 5.79293 53.0773 4.84293 50.9773C2.6696 46.1773 2.82961 41.6739 5.32294 37.4673C8.84294 31.5273 5.69294 24.1573 13.8529 21.1273C14.1685 21.0114 14.4244 20.7981 14.5729 20.5273C17.9529 14.6273 15.8729 9.70727 15.8329 3.73727C15.8129 1.36394 16.7663 0.533947 18.6929 1.24728C18.8338 1.2976 18.9634 1.38296 19.0723 1.49713C19.1813 1.61129 19.2669 1.75139 19.3229 1.90728C21.4829 8.04062 21.7596 14.1606 20.1529 20.2673C18.6529 25.9773 12.7229 28.9273 10.5529 34.6473C9.17292 38.2673 8.0596 41.9673 7.21293 45.7473C7.14111 46.0667 7.1655 46.3976 7.28294 46.6973C9.61294 52.6073 14.2829 57.1373 14.1129 64.0573C14.0029 68.4673 9.13293 71.4473 9.34293 75.4073C9.63293 80.5973 19.9729 75.0973 21.5629 74.9773C28.5929 74.4473 31.663 78.3973 36.403 82.4473C40.683 86.1173 42.2429 89.5773 42.4429 95.0073C42.7029 101.757 39.0129 105.707 32.1829 105.327C30.7229 105.247 29.1563 104.724 27.4829 103.757C25.6563 102.697 25.3763 101.577 26.6429 100.397C28.2729 98.8873 32.6929 99.4173 34.8029 99.4973C36.2629 99.5573 37.1962 98.8873 37.6029 97.4873C40.1729 88.6373 33.7829 85.6073 27.2929 82.5473C26.0863 81.9806 24.8329 81.8573 23.5329 82.1773C15.6629 84.1273 11.5729 87.9373 4.25294 81.5273Z" fill="#242C58"/>
</svg>
