<svg width="91" height="241" viewBox="0 0 91 241" fill="none" xmlns="http://www.w3.org/2000/svg">
<path d="M1.11573 14.1962C1.03933 14.34 0.999583 14.5004 1 14.6632C1.00042 14.826 1.04103 14.9863 1.11817 15.1297C1.19531 15.2731 1.30663 15.3952 1.44226 15.4853C1.5779 15.5754 1.73366 15.6307 1.89576 15.6462L12.8257 16.6962C12.9871 16.7112 13.1497 16.6863 13.2993 16.6238C13.4488 16.5613 13.5807 16.463 13.6834 16.3377C13.786 16.2123 13.8564 16.0636 13.8882 15.9046C13.92 15.7457 13.9123 15.5814 13.8657 15.4262L9.66577 1.69616C9.60775 1.50946 9.49573 1.34414 9.34387 1.22101C9.19202 1.09789 9.0071 1.02247 8.81244 1.00429C8.61779 0.986109 8.4221 1.02597 8.25006 1.11884C8.07803 1.21171 7.93737 1.35344 7.84577 1.52616L1.11573 14.1962Z" stroke="#8E8FA1" stroke-width="2"/>
<path d="M53.4863 36.8559L46.9263 50.2659C46.8904 50.3388 46.8728 50.4197 46.8752 50.5009C46.8776 50.582 46.8998 50.6608 46.9398 50.7299C46.9798 50.7989 47.0363 50.8558 47.1039 50.8954C47.1715 50.9349 47.2481 50.9557 47.3263 50.9559C51.5263 50.9559 55.6896 50.6159 59.8163 49.9359C59.9812 49.9091 60.1376 49.8448 60.2738 49.7478C60.4099 49.6509 60.5223 49.5239 60.6023 49.3765C60.6822 49.229 60.7278 49.065 60.7354 48.8968C60.7431 48.7287 60.7126 48.5608 60.6463 48.4059L55.8063 36.9559C55.073 35.2225 54.2996 35.1892 53.4863 36.8559Z" stroke="#8E8FA1" stroke-width="2"/>
<path d="M76.7754 77.3658C76.6997 77.5216 76.6646 77.694 76.6731 77.8669C76.6817 78.0399 76.7337 78.2079 76.8244 78.3555C76.9152 78.503 77.0416 78.6253 77.1921 78.711C77.3426 78.7967 77.5122 78.8431 77.6854 78.8459L88.8754 79.0158C89.0475 79.0184 89.2176 78.9777 89.3699 78.8976C89.5223 78.8175 89.6521 78.7005 89.7476 78.5573C89.8431 78.4141 89.9011 78.2492 89.9165 78.0778C89.9318 77.9063 89.904 77.7338 89.8354 77.5759L84.4354 65.3258C84.3548 65.1464 84.2246 64.9938 84.06 64.8861C83.8955 64.7783 83.7035 64.7199 83.5068 64.7178C83.3101 64.7157 83.1169 64.77 82.9501 64.8742C82.7833 64.9784 82.6498 65.1282 82.5654 65.3058L76.7754 77.3658Z" stroke="#8E8FA1" stroke-width="2"/>
<path d="M27.7934 103.616C27.7435 103.469 27.6534 103.338 27.533 103.24C27.4127 103.141 27.267 103.078 27.1127 103.059C26.9585 103.039 26.8017 103.063 26.6604 103.128C26.519 103.193 26.3988 103.296 26.3134 103.426L16.3234 118.296C16.238 118.424 16.1898 118.573 16.1842 118.726C16.1785 118.88 16.2156 119.032 16.2913 119.166C16.367 119.299 16.4782 119.41 16.6128 119.484C16.7474 119.558 16.8999 119.593 17.0534 119.586L32.0834 118.906C32.2138 118.901 32.3412 118.866 32.4553 118.802C32.5694 118.739 32.6669 118.649 32.7399 118.541C32.813 118.433 32.8596 118.309 32.8758 118.18C32.892 118.05 32.8775 117.919 32.8334 117.796L27.7934 103.616Z" stroke="#9091A3" stroke-width="2"/>
<path d="M20.5859 165.066C20.5199 165.242 20.4974 165.432 20.5205 165.619C20.5437 165.806 20.6116 165.985 20.7187 166.14C20.8257 166.295 20.9686 166.422 21.1353 166.51C21.302 166.598 21.4874 166.645 21.6759 166.646L32.2659 166.736C32.4537 166.737 32.6389 166.693 32.8061 166.607C32.9732 166.522 33.1173 166.397 33.2261 166.244C33.335 166.091 33.4054 165.914 33.4315 165.728C33.4576 165.542 33.4385 165.353 33.3759 165.176L28.2159 150.496C28.1361 150.269 27.9883 150.072 27.7928 149.933C27.5972 149.793 27.3633 149.717 27.1229 149.714C26.8825 149.712 26.6473 149.784 26.4492 149.92C26.2511 150.057 26.0998 150.251 26.0159 150.476L20.5859 165.066Z" stroke="#9091A3" stroke-width="2"/>
<path d="M51.5465 188.976C51.489 189.145 51.4738 189.325 51.5022 189.501C51.5305 189.677 51.6016 189.843 51.7091 189.985C51.8167 190.127 51.9576 190.241 52.1192 190.316C52.2809 190.391 52.4585 190.425 52.6365 190.416L67.8565 189.616C68.0335 189.606 68.2053 189.553 68.357 189.461C68.5088 189.37 68.636 189.243 68.7276 189.091C68.8192 188.939 68.8725 188.768 68.8827 188.591C68.893 188.414 68.86 188.237 68.7865 188.076L60.1665 169.086C60.0762 168.885 59.9272 168.717 59.7394 168.603C59.5515 168.488 59.3334 168.434 59.1138 168.445C58.8942 168.457 58.6834 168.535 58.509 168.669C58.3345 168.803 58.2047 168.987 58.1365 169.196L51.5465 188.976Z" stroke="#8E8FA1" stroke-width="2"/>
<path d="M49.6536 224.226C49.5594 223.994 49.4019 223.793 49.1992 223.645C48.9964 223.498 48.7565 223.411 48.5065 223.393C48.2566 223.375 48.0067 223.428 47.7852 223.545C47.5638 223.662 47.3795 223.839 47.2536 224.056L39.4536 237.306C39.328 237.52 39.2644 237.765 39.2699 238.013C39.2753 238.261 39.3495 238.503 39.4843 238.711C39.6191 238.92 39.8092 239.087 40.0333 239.193C40.2574 239.3 40.5068 239.343 40.7536 239.316L53.5136 237.906C53.7208 237.883 53.9199 237.812 54.095 237.699C54.2701 237.586 54.4164 237.434 54.5222 237.254C54.6281 237.074 54.6905 236.873 54.7047 236.665C54.7188 236.457 54.6842 236.248 54.6036 236.056L49.6536 224.226Z" stroke="#9091A3" stroke-width="2"/>
<path d="M7.59659 12.1261C8.18659 8.29613 4.0666 13.3761 7.0366 12.7461C7.18058 12.7142 7.31145 12.6377 7.4116 12.5268C7.51174 12.4159 7.57632 12.2761 7.59659 12.1261Z" stroke="#606386" stroke-width="2"/>
<path d="M54.1255 43.4659C53.0855 45.3459 53.5489 46.0693 55.5155 45.6359C55.6072 45.6157 55.6965 45.5805 55.7758 45.5332C55.8551 45.4859 55.9221 45.4279 55.9712 45.3641C56.0202 45.3004 56.0499 45.2327 56.0576 45.1669C56.0653 45.1011 56.0509 45.039 56.0155 44.9859L54.7655 43.2459C54.7334 43.2018 54.6881 43.172 54.6336 43.1593C54.5791 43.1466 54.5172 43.1514 54.4536 43.1732C54.39 43.1951 54.3266 43.2333 54.2693 43.2845C54.212 43.3356 54.1626 43.398 54.1255 43.4659Z" stroke="#4F5378" stroke-width="2"/>
<path d="M84.6531 75.0861C85.1065 75.2195 85.2398 75.0861 85.0531 74.6861L83.6931 71.8461C83.3731 71.1795 83.0498 71.1895 82.7231 71.8761L81.3131 74.8361C81.0798 75.3428 81.1931 75.4928 81.6531 75.2861C82.6131 74.8595 83.6131 74.7928 84.6531 75.0861Z" stroke="#2F345E" stroke-width="2"/>
<path d="M25.3841 111.469C25.4579 111.497 25.5434 111.491 25.6357 111.452C25.728 111.413 25.8253 111.342 25.9221 111.242C26.0188 111.142 26.1131 111.016 26.1996 110.871C26.286 110.726 26.3629 110.565 26.4259 110.396C26.5532 110.056 26.616 109.707 26.6006 109.427C26.5851 109.147 26.4928 108.959 26.3437 108.903C26.2699 108.875 26.1844 108.881 26.0921 108.92C25.9998 108.959 25.9026 109.03 25.8058 109.13C25.7091 109.23 25.6148 109.356 25.5284 109.501C25.4419 109.646 25.365 109.807 25.302 109.976C25.1747 110.316 25.1119 110.665 25.1273 110.945C25.1427 111.225 25.2351 111.413 25.3841 111.469Z" stroke="#393E66" stroke-width="2"/>
<path d="M26.3755 114.686C26.3222 115.719 26.7022 116.399 27.5156 116.726C27.5738 116.751 27.6383 116.758 27.7049 116.747C27.7715 116.736 27.8388 116.707 27.9026 116.662C27.9665 116.617 28.0255 116.557 28.0759 116.485C28.1263 116.414 28.167 116.332 28.1955 116.246C28.7155 114.596 26.4855 113.486 25.3655 112.476C25.2593 112.382 25.124 112.328 24.9844 112.324C24.8447 112.32 24.7103 112.367 24.6056 112.456C23.0456 113.749 23.4322 114.356 25.7656 114.276C25.8463 114.274 25.9267 114.283 26.0018 114.303C26.077 114.322 26.1452 114.352 26.2024 114.391C26.2596 114.429 26.3044 114.475 26.3342 114.526C26.364 114.577 26.3781 114.631 26.3755 114.686Z" stroke="#464B71" stroke-width="2"/>
<path d="M27.1145 156.756C26.3745 156.506 26.0746 161.596 26.0746 161.706C26.0601 161.926 26.0828 162.136 26.139 162.301C26.1952 162.466 26.2817 162.577 26.3846 162.616C26.8379 162.803 27.2179 162.723 27.5246 162.376C27.5851 162.304 27.6032 162.173 27.5761 162.001C27.549 161.83 27.4782 161.628 27.3746 161.426C26.6546 160.006 26.6346 158.593 27.3146 157.186C27.3327 157.147 27.3419 157.104 27.3415 157.06C27.3411 157.017 27.3311 156.973 27.3123 156.933C27.2935 156.892 27.2661 156.856 27.2321 156.825C27.198 156.795 27.158 156.771 27.1145 156.756Z" stroke="#51557A" stroke-width="2"/>
<path d="M57.7259 180.576L55.5759 183.656C54.5692 185.089 55.0659 186.003 57.0659 186.396C59.5859 186.889 62.0926 186.949 64.5859 186.576C64.6424 186.569 64.6957 186.547 64.7421 186.511C64.7885 186.475 64.8269 186.426 64.8545 186.367C64.8821 186.308 64.8984 186.24 64.9021 186.169C64.9057 186.098 64.8968 186.025 64.8759 185.956C63.7359 182.346 61.1359 179.886 60.5859 176.936C60.2726 175.256 59.7025 175.103 58.8759 176.476C58.2359 177.536 57.9859 178.669 58.1259 179.876C58.1311 179.904 58.0942 179.989 58.0214 180.116C57.9486 180.244 57.8443 180.406 57.7259 180.576Z" stroke="#242954" stroke-width="2"/>
<path d="M47.1755 232.316C46.4022 232.723 45.9755 233.409 45.8955 234.376C45.8912 234.44 45.9008 234.505 45.9238 234.566C45.9468 234.626 45.9825 234.682 46.0288 234.728C46.075 234.774 46.1307 234.81 46.1922 234.834C46.2536 234.858 46.3195 234.869 46.3855 234.866C49.4455 234.793 49.9956 233.979 48.0356 232.426C47.9112 232.325 47.7634 232.26 47.6105 232.241C47.4576 232.221 47.3063 232.247 47.1755 232.316Z" stroke="#626588" stroke-width="2"/>
<path d="M1.11573 14.1962L7.84577 1.52616C7.93737 1.35344 8.07803 1.21171 8.25006 1.11884C8.4221 1.02597 8.61779 0.986109 8.81244 1.00429C9.0071 1.02247 9.19202 1.09789 9.34387 1.22101C9.49573 1.34414 9.60775 1.50946 9.66577 1.69616L13.8657 15.4262C13.9123 15.5814 13.92 15.7457 13.8882 15.9046C13.8564 16.0636 13.786 16.2123 13.6834 16.3377C13.5807 16.463 13.4488 16.5613 13.2993 16.6238C13.1497 16.6863 12.9871 16.7112 12.8257 16.6962L1.89576 15.6462C1.73366 15.6307 1.5779 15.5754 1.44226 15.4853C1.30663 15.3952 1.19531 15.2731 1.11817 15.1297C1.04103 14.9863 1.00042 14.826 1 14.6632C0.999583 14.5004 1.03933 14.34 1.11573 14.1962ZM7.59577 12.1262C8.18577 8.29616 4.06577 13.3762 7.03577 12.7462C7.17975 12.7143 7.31063 12.6377 7.41077 12.5268C7.51091 12.416 7.57549 12.2761 7.59577 12.1262Z" fill="#1E2048"/>
<path d="M7.03269 12.7461C4.06269 13.3761 8.18269 8.29613 7.59269 12.1261C7.57241 12.2761 7.50783 12.4159 7.40769 12.5268C7.30755 12.6377 7.17667 12.7142 7.03269 12.7461Z" fill="#A2A5C3"/>
<path d="M53.4824 36.8559C54.2957 35.1892 55.0691 35.2225 55.8024 36.9559L60.6424 48.4059C60.7087 48.5608 60.7392 48.7287 60.7315 48.8968C60.7239 49.065 60.6783 49.229 60.5984 49.3765C60.5184 49.5239 60.406 49.6509 60.2699 49.7478C60.1337 49.8448 59.9772 49.9091 59.8124 49.9359C55.6857 50.6159 51.5224 50.9559 47.3224 50.9559C47.2442 50.9557 47.1676 50.9349 47.1 50.8954C47.0324 50.8558 46.9759 50.7989 46.9359 50.7299C46.8959 50.6608 46.8737 50.582 46.8713 50.5009C46.8689 50.4197 46.8865 50.3388 46.9224 50.2659L53.4824 36.8559ZM54.1224 43.4659C53.0824 45.3459 53.5458 46.0692 55.5124 45.6359C55.6041 45.6157 55.6934 45.5804 55.7727 45.5331C55.852 45.4858 55.919 45.4278 55.968 45.364C56.0171 45.3003 56.0467 45.2326 56.0545 45.1668C56.0622 45.101 56.0478 45.0389 56.0124 44.9859L54.7624 43.2459C54.7303 43.2017 54.6849 43.1719 54.6305 43.1592C54.576 43.1465 54.5141 43.1513 54.4505 43.1732C54.3869 43.195 54.3235 43.2333 54.2662 43.2844C54.2089 43.3355 54.1595 43.3979 54.1224 43.4659Z" fill="#1E2048"/>
<path d="M54.1255 43.4659C54.1626 43.398 54.212 43.3356 54.2693 43.2845C54.3266 43.2333 54.39 43.1951 54.4536 43.1732C54.5172 43.1514 54.5791 43.1466 54.6336 43.1593C54.6881 43.172 54.7334 43.2018 54.7655 43.2459L56.0155 44.9859C56.0509 45.039 56.0653 45.1011 56.0576 45.1669C56.0499 45.2327 56.0202 45.3004 55.9712 45.3641C55.9221 45.4279 55.8551 45.4859 55.7758 45.5332C55.6965 45.5805 55.6072 45.6157 55.5155 45.6359C53.5489 46.0693 53.0855 45.3459 54.1255 43.4659Z" fill="#8085A7"/>
<path d="M76.7754 77.3658L82.5654 65.3058C82.6498 65.1282 82.7833 64.9784 82.9501 64.8742C83.1169 64.77 83.3101 64.7157 83.5068 64.7178C83.7035 64.7199 83.8955 64.7783 84.06 64.8861C84.2246 64.9938 84.3548 65.1464 84.4354 65.3258L89.8354 77.5759C89.904 77.7338 89.9318 77.9063 89.9165 78.0778C89.9011 78.2492 89.8431 78.4141 89.7476 78.5573C89.6521 78.7005 89.5223 78.8175 89.3699 78.8976C89.2176 78.9777 89.0475 79.0184 88.8754 79.0158L77.6854 78.8459C77.5122 78.8431 77.3426 78.7967 77.1921 78.711C77.0416 78.6253 76.9152 78.503 76.8244 78.3555C76.7337 78.2079 76.6817 78.0399 76.6731 77.8669C76.6646 77.694 76.6997 77.5216 76.7754 77.3658ZM84.6554 75.0858C85.1088 75.2192 85.2421 75.0858 85.0554 74.6859L83.6954 71.8459C83.3754 71.1792 83.0521 71.1892 82.7254 71.8759L81.3154 74.8358C81.0821 75.3425 81.1954 75.4925 81.6554 75.2859C82.6154 74.8592 83.6154 74.7925 84.6554 75.0858Z" fill="#1E2048"/>
<path d="M84.6531 75.0861C83.6131 74.7928 82.6131 74.8595 81.6531 75.2861C81.1931 75.4928 81.0798 75.3428 81.3131 74.8361L82.7231 71.8761C83.0498 71.1895 83.3731 71.1795 83.6931 71.8461L85.0531 74.6861C85.2398 75.0861 85.1065 75.2195 84.6531 75.0861Z" fill="#3F4773"/>
<path d="M27.7934 103.616L32.8334 117.796C32.8775 117.919 32.892 118.05 32.8758 118.18C32.8596 118.309 32.813 118.433 32.7399 118.541C32.6669 118.649 32.5694 118.739 32.4553 118.802C32.3412 118.866 32.2138 118.901 32.0834 118.906L17.0534 119.586C16.8999 119.593 16.7474 119.558 16.6128 119.484C16.4782 119.41 16.367 119.299 16.2913 119.166C16.2156 119.032 16.1785 118.88 16.1842 118.726C16.1898 118.573 16.238 118.424 16.3234 118.296L26.3134 103.426C26.3988 103.296 26.519 103.193 26.6604 103.128C26.8017 103.063 26.9585 103.039 27.1127 103.059C27.267 103.078 27.4127 103.141 27.533 103.24C27.6534 103.338 27.7435 103.469 27.7934 103.616ZM25.3836 111.469C25.4574 111.497 25.5429 111.491 25.6351 111.452C25.7274 111.413 25.8248 111.342 25.9215 111.242C26.0183 111.142 26.1125 111.016 26.199 110.871C26.2854 110.726 26.3624 110.565 26.4254 110.396C26.5526 110.056 26.6154 109.707 26.6 109.427C26.5846 109.147 26.4922 108.959 26.3432 108.903C26.2694 108.875 26.1839 108.881 26.0916 108.92C25.9993 108.959 25.902 109.03 25.8053 109.13C25.7085 109.23 25.6142 109.356 25.5278 109.501C25.4413 109.646 25.3644 109.807 25.3014 109.976C25.1742 110.316 25.1113 110.665 25.1267 110.945C25.1421 111.225 25.2345 111.413 25.3836 111.469ZM26.3734 114.686C26.32 115.719 26.7 116.399 27.5134 116.726C27.5717 116.751 27.6361 116.758 27.7027 116.747C27.7693 116.736 27.8366 116.707 27.9005 116.662C27.9643 116.617 28.0233 116.557 28.0737 116.485C28.1241 116.414 28.1648 116.332 28.1934 116.246C28.7134 114.596 26.4834 113.486 25.3634 112.476C25.2572 112.382 25.1218 112.328 24.9822 112.324C24.8426 112.32 24.7081 112.367 24.6034 112.456C23.0434 113.749 23.43 114.356 25.7634 114.276C25.8441 114.274 25.9245 114.283 25.9997 114.303C26.0748 114.322 26.143 114.352 26.2002 114.391C26.2574 114.429 26.3023 114.475 26.332 114.526C26.3618 114.577 26.3759 114.631 26.3734 114.686Z" fill="#21244C"/>
<path d="M25.3025 109.976C25.0375 110.684 25.0743 111.353 25.3847 111.469C25.6951 111.585 26.1615 111.105 26.4265 110.396C26.6914 109.687 26.6546 109.019 26.3442 108.903C26.0339 108.787 25.5674 109.267 25.3025 109.976Z" fill="#50577F"/>
<path d="M25.7656 114.276C23.4322 114.356 23.0456 113.749 24.6056 112.456C24.7103 112.367 24.8447 112.32 24.9844 112.324C25.124 112.328 25.2593 112.382 25.3655 112.476C26.4855 113.486 28.7155 114.596 28.1955 116.246C28.167 116.332 28.1263 116.414 28.0759 116.485C28.0255 116.557 27.9665 116.617 27.9026 116.662C27.8388 116.707 27.7715 116.736 27.7049 116.747C27.6383 116.758 27.5738 116.751 27.5156 116.726C26.7022 116.399 26.3222 115.719 26.3755 114.686C26.3781 114.631 26.364 114.577 26.3342 114.526C26.3044 114.475 26.2596 114.429 26.2024 114.391C26.1452 114.352 26.077 114.322 26.0018 114.303C25.9267 114.283 25.8463 114.274 25.7656 114.276Z" fill="#6B7296"/>
<path d="M20.5859 165.066L26.0159 150.476C26.0998 150.251 26.2511 150.057 26.4492 149.92C26.6473 149.784 26.8825 149.712 27.1229 149.714C27.3633 149.717 27.5972 149.793 27.7928 149.933C27.9883 150.072 28.1361 150.269 28.2159 150.496L33.3759 165.176C33.4385 165.353 33.4576 165.542 33.4315 165.728C33.4054 165.914 33.335 166.091 33.2261 166.244C33.1173 166.397 32.9732 166.522 32.8061 166.607C32.6389 166.693 32.4537 166.737 32.2659 166.736L21.6759 166.646C21.4874 166.645 21.302 166.598 21.1353 166.51C20.9686 166.422 20.8257 166.295 20.7187 166.14C20.6116 165.985 20.5437 165.806 20.5205 165.619C20.4974 165.432 20.5199 165.242 20.5859 165.066ZM27.1159 156.756C26.3759 156.506 26.0759 161.596 26.0759 161.706C26.0614 161.926 26.0841 162.136 26.1404 162.301C26.1966 162.466 26.2831 162.577 26.3859 162.616C26.8392 162.803 27.2193 162.723 27.5259 162.376C27.5864 162.304 27.6045 162.173 27.5774 162.001C27.5504 161.83 27.4796 161.628 27.3759 161.426C26.6559 160.006 26.6359 158.593 27.3159 157.186C27.334 157.147 27.3432 157.104 27.3428 157.06C27.3424 157.017 27.3325 156.973 27.3136 156.933C27.2948 156.892 27.2675 156.856 27.2334 156.825C27.1994 156.795 27.1593 156.771 27.1159 156.756Z" fill="#21244C"/>
<path d="M26.0746 161.706C26.0746 161.596 26.3745 156.506 27.1145 156.756C27.158 156.771 27.198 156.795 27.2321 156.825C27.2661 156.856 27.2935 156.892 27.3123 156.933C27.3311 156.973 27.3411 157.017 27.3415 157.06C27.3419 157.104 27.3327 157.147 27.3146 157.186C26.6346 158.593 26.6546 160.006 27.3746 161.426C27.4782 161.628 27.549 161.83 27.5761 162.001C27.6032 162.173 27.5851 162.304 27.5246 162.376C27.2179 162.723 26.8379 162.803 26.3846 162.616C26.2817 162.577 26.1952 162.466 26.139 162.301C26.0828 162.136 26.0601 161.926 26.0746 161.706Z" fill="#8085A7"/>
<path d="M51.5426 188.976L58.1326 169.196C58.2008 168.987 58.3306 168.803 58.505 168.669C58.6795 168.535 58.8903 168.457 59.1099 168.445C59.3295 168.434 59.5476 168.488 59.7355 168.603C59.9233 168.717 60.0723 168.885 60.1626 169.086L68.7826 188.076C68.8561 188.237 68.8891 188.414 68.8788 188.591C68.8686 188.768 68.8153 188.939 68.7237 189.091C68.6321 189.243 68.5049 189.37 68.3531 189.461C68.2013 189.553 68.0296 189.606 67.8526 189.616L52.6326 190.416C52.4546 190.425 52.277 190.391 52.1153 190.316C51.9537 190.241 51.8128 190.127 51.7052 189.985C51.5977 189.843 51.5266 189.677 51.4983 189.501C51.4699 189.325 51.4851 189.145 51.5426 188.976ZM57.7226 180.576L55.5726 183.656C54.5659 185.089 55.0626 186.003 57.0626 186.396C59.5826 186.889 62.0893 186.949 64.5826 186.576C64.6392 186.569 64.6925 186.547 64.7389 186.511C64.7853 186.475 64.8236 186.426 64.8512 186.367C64.8789 186.308 64.8951 186.24 64.8988 186.169C64.9025 186.098 64.8935 186.026 64.8726 185.956C63.7326 182.346 61.1326 179.886 60.5826 176.936C60.2693 175.256 59.6993 175.103 58.8726 176.476C58.2326 177.536 57.9826 178.669 58.1226 179.876C58.1278 179.904 58.0909 179.989 58.0181 180.116C57.9453 180.244 57.841 180.406 57.7226 180.576Z" fill="#1E2048"/>
<path d="M58.1259 179.876C57.9859 178.669 58.2359 177.536 58.8759 176.476C59.7025 175.103 60.2726 175.256 60.5859 176.936C61.1359 179.886 63.7359 182.346 64.8759 185.956C64.8968 186.025 64.9057 186.098 64.9021 186.169C64.8984 186.24 64.8821 186.308 64.8545 186.367C64.8269 186.426 64.7885 186.475 64.7421 186.511C64.6957 186.547 64.6424 186.569 64.5859 186.576C62.0926 186.949 59.5859 186.889 57.0659 186.396C55.0659 186.003 54.5692 185.089 55.5759 183.656L57.7259 180.576C57.8443 180.406 57.9486 180.244 58.0214 180.116C58.0942 179.989 58.1311 179.904 58.1259 179.876Z" fill="#2A315F"/>
<path d="M49.6536 224.226L54.6036 236.056C54.6842 236.248 54.7188 236.457 54.7047 236.665C54.6905 236.873 54.6281 237.074 54.5222 237.254C54.4164 237.434 54.2701 237.586 54.095 237.699C53.9199 237.812 53.7208 237.883 53.5136 237.906L40.7536 239.316C40.5068 239.343 40.2574 239.3 40.0333 239.193C39.8092 239.087 39.6191 238.92 39.4843 238.711C39.3495 238.503 39.2753 238.261 39.2699 238.013C39.2644 237.765 39.328 237.52 39.4536 237.306L47.2536 224.056C47.3795 223.839 47.5638 223.662 47.7852 223.545C48.0067 223.428 48.2566 223.375 48.5065 223.393C48.7565 223.411 48.9964 223.498 49.1992 223.645C49.4019 223.793 49.5594 223.994 49.6536 224.226ZM47.1735 232.316C46.4002 232.723 45.9736 233.409 45.8936 234.376C45.8892 234.44 45.8989 234.505 45.9218 234.566C45.9448 234.626 45.9806 234.682 46.0268 234.728C46.0731 234.774 46.1287 234.81 46.1902 234.834C46.2517 234.858 46.3175 234.869 46.3836 234.866C49.4436 234.793 49.9936 233.979 48.0336 232.426C47.9093 232.325 47.7614 232.26 47.6085 232.241C47.4556 232.221 47.3043 232.247 47.1735 232.316Z" fill="#21244C"/>
<path d="M48.0356 232.426C49.9956 233.979 49.4455 234.793 46.3855 234.866C46.3195 234.869 46.2536 234.858 46.1922 234.834C46.1307 234.81 46.075 234.774 46.0288 234.728C45.9825 234.682 45.9468 234.626 45.9238 234.566C45.9008 234.505 45.8912 234.44 45.8955 234.376C45.9755 233.409 46.4022 232.723 47.1755 232.316C47.3063 232.247 47.4576 232.221 47.6105 232.241C47.7634 232.26 47.9112 232.325 48.0356 232.426Z" fill="#A2A5C3"/>
</svg>
