<svg width="98" height="102" viewBox="0 0 98 102" fill="none" xmlns="http://www.w3.org/2000/svg">
<path d="M75.5543 14.2977L71.9344 8.4477C71.7277 8.11437 71.5477 7.90102 71.3943 7.80768C67.7043 5.64768 66.8743 8.7977 67.2443 11.6677C67.8443 16.3577 68.6243 24.5177 72.3843 25.5077C77.2243 26.781 82.2077 27.5977 87.3343 27.9577C88.7677 28.0643 89.5043 27.3977 89.5443 25.9577C89.6243 23.0777 84.3543 21.0877 82.1643 20.1977C82.0542 20.1537 81.9569 20.0829 81.8812 19.9916C81.8055 19.9004 81.7539 19.7916 81.731 19.6753C81.7081 19.5589 81.7147 19.4387 81.7503 19.3256C81.7858 19.2125 81.8491 19.1101 81.9344 19.0277C85.981 15.081 89.9643 11.0644 93.8843 6.9777C95.5443 5.2477 97.9143 2.02768 93.9543 1.08768C92.9077 0.841017 91.871 1.1177 90.8444 1.9177C85.8044 5.83103 80.981 10.011 76.3744 14.4577C76.3195 14.5094 76.2529 14.5467 76.1792 14.5669C76.1055 14.5871 76.0266 14.5896 75.9482 14.5743C75.8698 14.559 75.7939 14.5262 75.7258 14.4784C75.6577 14.4306 75.5991 14.3689 75.5543 14.2977Z" stroke="#9390A2" stroke-width="2"/>
<path d="M60.0519 40.0267C60.2301 40.0815 60.4326 40.0515 60.6476 39.9383C60.8627 39.8252 61.0862 39.6311 61.3053 39.3672C61.5244 39.1034 61.7349 38.7748 61.9248 38.4004C62.1147 38.0259 62.2802 37.6129 62.4118 37.1849C62.6778 36.3205 62.7898 35.4475 62.7233 34.758C62.6568 34.0684 62.4172 33.6188 62.0573 33.5081C61.8791 33.4533 61.6767 33.4833 61.4616 33.5964C61.2465 33.7095 61.0231 33.9036 60.8039 34.1675C60.5848 34.4314 60.3743 34.7599 60.1844 35.1344C59.9946 35.5088 59.8291 35.9219 59.6974 36.3499C59.4315 37.2143 59.3194 38.0873 59.3859 38.7768C59.4524 39.4663 59.692 39.9159 60.0519 40.0267Z" stroke="#95979F" stroke-width="2"/>
<path d="M67.6125 53.6154C67.805 53.6776 68.0271 53.6414 68.2663 53.509C68.5054 53.3766 68.7568 53.1505 69.0062 52.8437C69.2556 52.5368 69.4981 52.1552 69.7198 51.7206C69.9414 51.2861 70.138 50.807 70.2982 50.3109C70.4585 49.8148 70.5793 49.3113 70.6537 48.8292C70.728 48.3471 70.7546 47.8957 70.7318 47.501C70.7091 47.1062 70.6374 46.7758 70.5209 46.5285C70.4044 46.2812 70.2454 46.122 70.0529 46.0598C69.8605 45.9976 69.6384 46.0338 69.3993 46.1662C69.1601 46.2987 68.9087 46.5248 68.6593 46.8316C68.4099 47.1385 68.1675 47.5201 67.9458 47.9546C67.7241 48.3892 67.5275 48.8682 67.3672 49.3643C67.207 49.8604 67.0863 50.3639 67.0119 50.8461C66.9375 51.3282 66.9109 51.7795 66.9337 52.1743C66.9565 52.569 67.0281 52.8995 67.1446 53.1467C67.2611 53.394 67.4201 53.5533 67.6125 53.6154Z" stroke="#95979F" stroke-width="2"/>
<path d="M52.5863 54.7681C52.7763 54.8092 52.9788 54.7831 53.1824 54.6914C53.3859 54.5996 53.5865 54.4441 53.7726 54.2335C53.9587 54.0229 54.1268 53.7615 54.2672 53.4641C54.4076 53.1668 54.5175 52.8394 54.5908 52.5005C54.6641 52.1616 54.6992 51.818 54.6942 51.4892C54.6892 51.1604 54.6442 50.8529 54.5616 50.5842C54.4791 50.3156 54.3607 50.091 54.2132 49.9234C54.0658 49.7557 53.8921 49.6483 53.7021 49.6073C53.5121 49.5662 53.3096 49.5923 53.1061 49.684C52.9025 49.7757 52.702 49.9313 52.5158 50.1419C52.3297 50.3524 52.1616 50.6139 52.0212 50.9112C51.8808 51.2086 51.7709 51.536 51.6976 51.8749C51.6243 52.2137 51.5892 52.5574 51.5942 52.8862C51.5992 53.215 51.6443 53.5225 51.7268 53.7911C51.8093 54.0598 51.9277 54.2844 52.0752 54.452C52.2227 54.6196 52.3963 54.727 52.5863 54.7681Z" stroke="#94908E" stroke-width="2"/>
<path d="M42.0997 63.3698C42.525 63.431 42.9881 63.1061 43.3873 62.4663C43.7864 61.8266 44.0888 60.9244 44.228 59.9584C44.3673 58.9924 44.3318 58.0416 44.1296 57.3152C43.9273 56.5888 43.5748 56.1463 43.1496 56.085C42.7243 56.0237 42.2612 56.3487 41.862 56.9884C41.4629 57.6281 41.1604 58.5302 41.0212 59.4962C40.882 60.4623 40.9175 61.413 41.1197 62.1395C41.322 62.8659 41.6745 63.3084 42.0997 63.3698Z" stroke="#95979F" stroke-width="2"/>
<path d="M60.0821 70.2976C62.4821 70.1776 62.7521 65.8176 62.6521 64.0176C62.6431 63.8576 62.5945 63.705 62.5117 63.5762C62.4288 63.4475 62.3148 63.3477 62.1821 63.2877C58.5821 61.5777 59.1321 67.9877 59.4821 69.7877C59.5089 69.9346 59.5843 70.067 59.6946 70.1607C59.8048 70.2544 59.9424 70.303 60.0821 70.2976Z" stroke="#8D929C" stroke-width="2"/>
<path d="M29.5611 73.6244C30.0434 73.6446 30.5222 73.2755 30.8921 72.5984C31.2621 71.9213 31.493 70.9916 31.534 70.0138C31.5543 69.5296 31.5273 69.0482 31.4547 68.5971C31.3821 68.146 31.2652 67.7339 31.1106 67.3845C30.9561 67.0351 30.7671 66.7551 30.5542 66.5606C30.3414 66.366 30.1089 66.2608 29.8701 66.2508C29.3878 66.2306 28.909 66.5996 28.539 67.2768C28.169 67.9539 27.9382 68.8836 27.8972 69.8614C27.8769 70.3455 27.9038 70.8269 27.9765 71.2781C28.0491 71.7292 28.166 72.1412 28.3205 72.4907C28.475 72.8401 28.6641 73.1201 28.877 73.3146C29.0898 73.5091 29.3223 73.6144 29.5611 73.6244Z" stroke="#95979F" stroke-width="2"/>
<path d="M47.7101 78.9031C47.9242 78.971 48.1603 78.9621 48.405 78.8768C48.6497 78.7915 48.8982 78.6316 49.1364 78.4061C49.3745 78.1806 49.5975 77.894 49.7928 77.5626C49.9881 77.2313 50.1517 76.8616 50.2744 76.4748C50.3972 76.088 50.4765 75.6916 50.5079 75.3083C50.5394 74.9249 50.5223 74.5622 50.4577 74.2406C50.3931 73.9191 50.2822 73.6451 50.1314 73.4344C49.9806 73.2236 49.7928 73.0802 49.5787 73.0123C49.3647 72.9444 49.1286 72.9534 48.8838 73.0387C48.6391 73.1239 48.3906 73.2839 48.1525 73.5094C47.9144 73.7349 47.6913 74.0215 47.4961 74.3528C47.3008 74.6842 47.1371 75.0538 47.0144 75.4406C46.8917 75.8274 46.8124 76.2239 46.7809 76.6072C46.7495 76.9906 46.7666 77.3533 46.8312 77.6749C46.8958 77.9964 47.0067 78.2704 47.1575 78.4811C47.3083 78.6919 47.4961 78.8353 47.7101 78.9031Z" stroke="#95979F" stroke-width="2"/>
<path d="M2.85138 88.9649C3.27015 88.9503 3.65731 88.5214 3.92764 87.7726C4.19797 87.0239 4.32934 86.0165 4.29287 84.9722C4.25641 83.9279 4.05509 82.9322 3.73318 82.2041C3.41128 81.476 2.99517 81.0751 2.57638 81.0897C2.1576 81.1044 1.77048 81.5333 1.50015 82.282C1.22982 83.0308 1.09842 84.0382 1.13488 85.0824C1.17135 86.1268 1.37267 87.1225 1.69458 87.8506C2.01648 88.5787 2.43259 88.9795 2.85138 88.9649Z" stroke="#8D929C" stroke-width="2"/>
<path d="M20.0525 88.3753C20.2664 88.3671 20.4751 88.279 20.6668 88.1163C20.8584 87.9535 21.0293 87.7192 21.1695 87.4267C21.3097 87.1341 21.4166 86.7891 21.4841 86.4113C21.5516 86.0336 21.5783 85.6304 21.5627 85.2249C21.5312 84.406 21.3294 83.6273 21.0017 83.06C20.674 82.4926 20.2473 82.1833 19.8153 82.1999C19.6014 82.2081 19.3927 82.2961 19.201 82.4588C19.0093 82.6216 18.8385 82.8559 18.6983 83.1485C18.558 83.441 18.4512 83.786 18.3837 84.1638C18.3162 84.5415 18.2895 84.9447 18.3051 85.3502C18.3366 86.1691 18.5383 86.9478 18.866 87.5151C19.1937 88.0824 19.6205 88.3919 20.0525 88.3753Z" stroke="#94908E" stroke-width="2"/>
<path d="M33.0571 89.9461C33.4781 90.1415 34.0353 89.9983 34.6061 89.5479C35.177 89.0975 35.7148 88.3769 36.1012 87.5445C36.4875 86.7122 36.6908 85.8363 36.6663 85.1096C36.6419 84.3828 36.3916 83.8647 35.9707 83.6693C35.5497 83.4739 34.9924 83.6172 34.4216 84.0675C33.8507 84.5179 33.3129 85.2386 32.9266 86.0709C32.5402 86.9033 32.3369 87.7792 32.3614 88.5059C32.3858 89.2326 32.6361 89.7507 33.0571 89.9461Z" stroke="#94908E" stroke-width="2"/>
<path d="M17.4662 99.2523C17.5124 98.8866 17.1856 98.4889 16.5578 98.1469C15.93 97.8049 15.0525 97.5464 14.1185 97.4284C13.1844 97.3104 12.2702 97.3425 11.577 97.5177C10.8839 97.6929 10.4685 97.9968 10.4223 98.3625C10.3761 98.7282 10.7029 99.1258 11.3307 99.4679C11.9585 99.8099 12.836 100.068 13.77 100.186C14.7041 100.304 15.6183 100.272 16.3115 100.097C17.0047 99.9219 17.42 99.6181 17.4662 99.2523Z" stroke="#8D8B8D" stroke-width="2"/>
<path d="M70.5934 14.0673C70.4067 15.6607 70.54 17.234 70.9934 18.7873C71.0563 18.9985 71.1576 19.1871 71.2777 19.3164C71.3978 19.4458 71.5281 19.5066 71.6434 19.4873L74.4034 19.0273C74.4451 19.0189 74.478 18.9902 74.4995 18.9431C74.5211 18.896 74.5307 18.8318 74.5279 18.7551C74.525 18.6785 74.5096 18.5913 74.4829 18.5C74.4562 18.4087 74.4188 18.3156 74.3734 18.2273L72.0934 13.7873C71.2934 12.2407 70.7934 12.334 70.5934 14.0673Z" stroke="#303263" stroke-width="2"/>
<path d="M76.3744 14.4572C80.981 10.0105 85.8044 5.83055 90.8444 1.91721C91.871 1.11721 92.9077 0.840528 93.9543 1.0872C97.9143 2.0272 95.5443 5.24721 93.8843 6.97721C89.9643 11.0639 85.981 15.0805 81.9344 19.0272C81.8491 19.1096 81.7858 19.212 81.7503 19.3251C81.7147 19.4382 81.7081 19.5584 81.731 19.6748C81.7539 19.7911 81.8055 19.8999 81.8812 19.9911C81.9569 20.0824 82.0542 20.1532 82.1643 20.1972C84.3543 21.0872 89.6243 23.0772 89.5443 25.9572C89.5043 27.3972 88.7677 28.0639 87.3343 27.9572C82.2077 27.5972 77.2243 26.7805 72.3843 25.5072C68.6243 24.5172 67.8443 16.3572 67.2443 11.6672C66.8743 8.79721 67.7043 5.6472 71.3943 7.8072C71.5477 7.90053 71.7277 8.11388 71.9344 8.44721L75.5543 14.2972C75.5991 14.3684 75.6577 14.4301 75.7258 14.4779C75.7939 14.5257 75.8698 14.5585 75.9482 14.5738C76.0266 14.5891 76.1055 14.5866 76.1792 14.5664C76.2529 14.5463 76.3195 14.5089 76.3744 14.4572ZM70.5944 14.0672C70.4077 15.6605 70.541 17.2339 70.9943 18.7872C71.0573 18.9984 71.1586 19.187 71.2787 19.3163C71.3987 19.4456 71.5291 19.5065 71.6443 19.4872L74.4044 19.0272C74.4461 19.0188 74.4789 18.99 74.5005 18.9429C74.522 18.8958 74.5317 18.8316 74.5288 18.755C74.526 18.6783 74.5106 18.5912 74.4839 18.4999C74.4572 18.4086 74.4197 18.3154 74.3744 18.2272L72.0944 13.7872C71.2944 12.2405 70.7944 12.3339 70.5944 14.0672Z" fill="#282455"/>
<path d="M70.5934 14.0673C70.7934 12.334 71.2934 12.2407 72.0934 13.7873L74.3734 18.2273C74.4188 18.3156 74.4562 18.4087 74.4829 18.5C74.5096 18.5913 74.525 18.6785 74.5279 18.7551C74.5307 18.8318 74.5211 18.896 74.4995 18.9431C74.478 18.9902 74.4451 19.0189 74.4034 19.0273L71.6434 19.4873C71.5281 19.5066 71.3978 19.4458 71.2777 19.3164C71.1576 19.1871 71.0563 18.9985 70.9934 18.7873C70.54 17.234 70.4067 15.6607 70.5934 14.0673Z" fill="#374070"/>
<path d="M59.6969 36.35C59.1432 38.15 59.3019 39.7962 60.0515 40.0268C60.8011 40.2574 61.8576 38.9851 62.4114 37.185C62.9651 35.385 62.8064 33.7388 62.0568 33.5082C61.3073 33.2776 60.2507 34.5499 59.6969 36.35Z" fill="#2D3250"/>
<path d="M67.3684 49.3639C66.6945 51.4503 66.8043 53.3536 67.6137 53.615C68.423 53.8765 69.6254 52.397 70.2993 50.3105C70.9732 48.2241 70.8634 46.3208 70.0541 46.0594C69.2447 45.798 68.0423 47.2774 67.3684 49.3639Z" fill="#2D3250"/>
<path d="M51.6974 51.8743C51.3893 53.2994 51.7871 54.5947 52.5861 54.7674C53.385 54.9402 54.2824 53.9249 54.5905 52.4998C54.8987 51.0747 54.5008 49.7794 53.7019 49.6067C52.9029 49.4339 52.0055 50.4492 51.6974 51.8743Z" fill="#2A252E"/>
<path d="M41.0222 59.4962C40.7323 61.5078 41.2152 63.242 42.1007 63.3696C42.9863 63.4972 43.9392 61.9699 44.229 59.9583C44.5189 57.9467 44.036 56.2125 43.1505 56.0849C42.2649 55.9572 41.312 57.4845 41.0222 59.4962Z" fill="#2D3250"/>
<path d="M59.486 69.7872C59.136 67.9872 58.586 61.5772 62.186 63.2872C62.3187 63.3472 62.4327 63.447 62.5156 63.5757C62.5984 63.7045 62.647 63.8572 62.656 64.0171C62.756 65.8171 62.486 70.1771 60.086 70.2971C59.9463 70.3026 59.8087 70.2539 59.6985 70.1602C59.5882 70.0665 59.5128 69.9341 59.486 69.7872Z" fill="#1D2849"/>
<path d="M27.8962 69.861C27.8108 71.8971 28.5558 73.5819 29.5601 73.624C30.5643 73.6661 31.4476 72.0496 31.533 70.0134C31.6183 67.9773 30.8734 66.2925 29.8691 66.2504C28.8648 66.2084 27.9815 67.8249 27.8962 69.861Z" fill="#2D3250"/>
<path d="M47.0128 75.4401C46.4968 77.0667 46.8082 78.6169 47.7084 78.9025C48.6086 79.188 49.7567 78.1008 50.2727 76.4742C50.7887 74.8475 50.4773 73.2973 49.5771 73.0118C48.6769 72.7262 47.5288 73.8134 47.0128 75.4401Z" fill="#2D3250"/>
<path d="M1.13568 85.0826C1.21162 87.2572 1.98014 88.9955 2.85222 88.965C3.7243 88.9346 4.3697 87.1469 4.29375 84.9723C4.21781 82.7976 3.44929 81.0594 2.57721 81.0898C1.70513 81.1203 1.05974 82.9079 1.13568 85.0826Z" fill="#1D2849"/>
<path d="M18.3063 85.3501C18.3718 87.0554 19.1542 88.4098 20.0538 88.3752C20.9533 88.3407 21.6294 86.9302 21.5639 85.2249C21.4984 83.5196 20.7161 82.1652 19.8165 82.1998C18.917 82.2343 18.2408 83.6448 18.3063 85.3501Z" fill="#2A252E"/>
<path d="M32.9272 86.0705C32.1226 87.8038 32.181 89.5388 33.0577 89.9457C33.9344 90.3526 35.2973 89.2774 36.1018 87.5441C36.9064 85.8109 36.8479 84.0759 35.9713 83.6689C35.0946 83.262 33.7317 84.3372 32.9272 86.0705Z" fill="#2A252E"/>
<path d="M13.7712 100.186C15.7164 100.432 17.3712 100.014 17.4675 99.2523C17.5637 98.4907 16.0648 97.6741 14.1197 97.4283C12.1745 97.1826 10.5197 97.6008 10.4234 98.3624C10.3272 99.1241 11.8261 99.9407 13.7712 100.186Z" fill="#1D1B2B"/>
</svg>
