<svg width="121" height="81" viewBox="0 0 121 81" fill="none" xmlns="http://www.w3.org/2000/svg">
<path d="M54.3768 46.2749C53.7768 35.8249 51.5268 7.9849 43.1068 1.6349C41.8002 0.648236 40.6568 0.811559 39.6768 2.12489C37.9568 4.43823 37.3401 6.90826 37.8268 9.53493C40.3368 23.1049 42.9168 37.0249 43.1268 50.8449C43.1535 52.6449 42.5901 52.8583 41.4368 51.4849C34.1768 42.8516 25.0501 36.8049 14.0568 33.3449C8.75678 31.6649 -0.423217 32.7349 1.18678 40.8649C1.50012 42.4449 2.45015 43.3783 4.03682 43.6649C15.2168 45.6649 24.7435 50.5282 32.6168 58.2549C36.5168 62.0949 39.3468 67.4349 42.0968 72.3549C43.3068 74.5149 44.9568 75.8149 47.3368 75.8649C56.9968 76.0849 65.9668 71.1349 75.1468 70.0349C87.5368 68.5449 97.3768 72.9149 108.467 77.5749C113.287 79.5949 118.437 80.9449 119.767 74.2949C121.057 67.8249 116.947 65.0749 111.637 61.7149C99.4701 54.0149 86.1835 52.6349 71.7768 57.5749C71.3501 57.7216 71.0701 57.6483 70.9368 57.3549C70.8828 57.2378 70.8749 57.0876 70.9138 56.9215C70.9527 56.7553 71.0368 56.5799 71.1568 56.4149C78.4035 46.6616 87.3335 38.8549 97.9468 32.9949C99.7068 32.0216 100.133 30.8649 99.2268 29.5249L96.2868 25.1449C96.2056 25.0267 96.0703 24.9424 95.901 24.9046C95.7316 24.8667 95.5373 24.8773 95.3468 24.9349C82.6568 28.7349 75.1568 37.0949 66.5168 46.4449C63.2168 50.0249 64.3368 46.2749 65.1868 44.8049C68.0334 39.9049 70.5035 34.8383 72.5968 29.6049C73.7835 26.6316 73.0968 24.3516 70.5368 22.7649C70.4166 22.6884 70.2725 22.6557 70.1276 22.672C69.9827 22.6883 69.8452 22.7527 69.7368 22.8549C63.1068 29.0249 58.8568 38.5649 55.6868 46.3249C55.5668 46.6149 55.1968 46.8349 54.8968 46.8549C54.8322 46.8581 54.7675 46.8456 54.7063 46.8181C54.6451 46.7906 54.5888 46.7486 54.5404 46.6947C54.4921 46.6408 54.4527 46.576 54.4246 46.5039C54.3966 46.4319 54.3803 46.354 54.3768 46.2749Z" stroke="#8B8EA0" stroke-width="2"/>
<path d="M54.9007 46.8549C55.2007 46.8349 55.5707 46.6149 55.6907 46.3249C58.8607 38.5649 63.1107 29.0249 69.7407 22.8549C69.8491 22.7527 69.9866 22.6883 70.1315 22.672C70.2765 22.6557 70.4205 22.6884 70.5407 22.7649C73.1007 24.3516 73.7874 26.6316 72.6007 29.6049C70.5074 34.8383 68.0374 39.9049 65.1907 44.8049C64.3407 46.2749 63.2207 50.0249 66.5207 46.4449C75.1607 37.0949 82.6607 28.7349 95.3507 24.9349C95.5412 24.8773 95.7355 24.8667 95.9049 24.9046C96.0742 24.9424 96.2095 25.0267 96.2907 25.1449L99.2307 29.5249C100.137 30.8649 99.7107 32.0216 97.9507 32.9949C87.3374 38.8549 78.4074 46.6616 71.1607 56.4149C71.0408 56.5798 70.9566 56.7553 70.9177 56.9215C70.8788 57.0876 70.8867 57.2378 70.9407 57.3549C71.074 57.6483 71.354 57.7216 71.7807 57.5749C86.1874 52.6349 99.474 54.0149 111.641 61.7149C116.951 65.0749 121.061 67.8249 119.771 74.2949C118.441 80.9449 113.291 79.5949 108.471 77.5749C97.3807 72.9149 87.5407 68.5449 75.1507 70.0349C65.9707 71.1349 57.0007 76.0849 47.3407 75.8649C44.9607 75.8149 43.3107 74.5149 42.1007 72.3549C39.3507 67.4349 36.5207 62.0949 32.6207 58.2549C24.7474 50.5282 15.2207 45.6649 4.04073 43.6649C2.45406 43.3783 1.50402 42.4449 1.19069 40.8649C-0.419311 32.7349 8.76068 31.6649 14.0607 33.3449C25.054 36.8049 34.1807 42.8516 41.4407 51.4849C42.594 52.8583 43.1574 52.6449 43.1307 50.8449C42.9207 37.0249 40.3407 23.1049 37.8307 9.53493C37.344 6.90826 37.9607 4.43823 39.6807 2.12489C40.6607 0.811559 41.8041 0.648236 43.1107 1.6349C51.5307 7.9849 53.7807 35.8249 54.3807 46.2749C54.3842 46.354 54.4005 46.4319 54.4285 46.5039C54.4566 46.576 54.496 46.6408 54.5443 46.6947C54.5927 46.7486 54.6491 46.7906 54.7102 46.8181C54.7714 46.8456 54.8361 46.8581 54.9007 46.8549Z" fill="#181D42"/>
</svg>
