<svg width="114" height="104" viewBox="0 0 114 104" fill="none" xmlns="http://www.w3.org/2000/svg">
<path d="M2.67229 47.2803C2.18229 47.8903 1.74229 48.1603 1.61229 49.0003C-0.654377 63.7736 3.37228 76.4536 13.6923 87.0403" stroke="#FBB5A0" stroke-width="2"/>
<path d="M13.6914 87.041C21.3781 94.0543 30.3581 98.7844 40.6314 101.231" stroke="#C3EBD9" stroke-width="2"/>
<path d="M40.6328 101.23C52.7395 103.603 63.8495 102.613 73.9628 98.2599C89.5161 91.5665 101.046 80.0032 108.553 63.5699C109.166 62.2165 109.546 60.6398 109.693 58.8398" stroke="#9CA2BF" stroke-width="2"/>
<path d="M109.691 58.8402C112.798 50.3202 113.625 41.3736 112.171 32.0002C112.045 31.2002 111.551 30.8536 110.691 30.9602" stroke="#C3EBD9" stroke-width="2"/>
<path d="M110.692 30.9601L109.672 28.5801" stroke="#D6E9D9" stroke-width="2"/>
<path d="M109.672 28.5809C104.432 15.4209 90.9323 5.86089 77.8423 2.13089C76.4957 1.74423 75.4323 1.72089 74.6523 2.06089" stroke="#FBB5A0" stroke-width="2"/>
<path d="M74.6531 2.06051C69.2598 1.05384 62.9165 0.763846 55.6231 1.19051C32.9231 2.52051 13.7931 14.8805 4.22314 35.2905C2.38981 39.2039 1.87315 43.2005 2.67315 47.2805" stroke="#C8EDDD" stroke-width="2"/>
<path d="M74.6519 2.06055C55.0785 10.3005 36.8285 20.7639 19.9019 33.4506C15.1719 37.0006 8.99188 43.2205 2.67188 47.2805" stroke="#C4A27E" stroke-width="2"/>
<path d="M109.671 28.5801C105.591 31.9201 101.238 34.6968 96.6114 36.9101C77.0714 46.2368 58.1481 56.6768 39.8414 68.2301C31.9014 73.2401 23.8114 80.2501 15.4414 85.9601" stroke="#D29F79" stroke-width="2"/>
<path d="M15.4414 85.9609L13.6914 87.0409" stroke="#BFA179" stroke-width="2"/>
<path d="M110.691 30.9609C96.4914 40.9109 81.8514 47.6209 66.1114 56.7409C65.8581 56.8876 65.5481 56.9676 65.1814 56.981L64.4414 57.011C64.1444 57.0173 63.844 57.1374 63.5914 57.351C60.6714 59.731 58.1914 61.921 54.7314 63.671C47.1514 67.491 37.8714 72.2109 31.7314 78.6009C31.5314 78.8143 31.2714 78.9809 30.9514 79.1009C30.7314 79.1809 30.5914 79.261 30.5314 79.341C29.1914 81.081 27.5281 82.3176 25.5414 83.0509C22.2214 84.2809 18.9714 88.571 15.4414 85.961" stroke="#9AD5B2" stroke-width="2"/>
<path d="M109.693 58.8398C95.2061 63.8798 81.5428 70.4532 68.7028 78.5598C60.5628 83.6898 51.9928 90.6398 43.8828 96.9398C42.5561 97.9665 41.4728 99.3965 40.6328 101.23" stroke="#608E98" stroke-width="2"/>
<path d="M16.8928 43.1208C15.0128 43.4541 13.8695 44.6008 13.4628 46.5608C13.2495 47.5941 13.6395 47.8075 14.6328 47.2008C16.7395 45.9075 18.5228 44.2775 19.9828 42.3108C20.2838 41.9028 20.6539 41.5649 21.068 41.3199C21.4821 41.0749 21.9305 40.9285 22.3828 40.8908C24.9895 40.6708 26.6862 39.3941 27.4728 37.0608C27.5195 36.919 27.6104 36.7944 27.7335 36.7034C27.8566 36.6124 28.0063 36.5592 28.1628 36.5508C29.0628 36.5008 29.5928 36.4608 30.3428 35.8508C33.6428 33.1175 37.4328 31.4942 41.7128 30.9808C42.0913 30.9359 42.3964 30.8282 42.5628 30.6808C44.3228 29.1408 46.3628 28.4041 48.6828 28.4708C48.9685 28.4773 49.2981 28.3722 49.6228 28.1708L52.9928 26.0608C53.1356 25.9699 53.2493 25.848 53.3162 25.7142C53.3831 25.5803 53.3995 25.442 53.3628 25.3208C53.2495 24.9408 53.0295 24.6641 52.7028 24.4908C52.6336 24.451 52.5124 24.4609 52.3586 24.5188C52.2047 24.5767 52.0268 24.6795 51.8528 24.8108C49.2028 26.8008 46.1028 26.9908 43.5928 28.3008C42.3462 28.9475 41.0962 29.6141 39.8428 30.3008C39.5507 30.4563 39.2345 30.516 38.9428 30.4708C35.7762 29.9775 33.4728 31.0941 32.0328 33.8208C31.9642 33.9491 31.8571 34.0647 31.719 34.1597C31.5808 34.2547 31.4149 34.3267 31.2328 34.3708C29.1028 34.9108 27.0328 34.7208 26.3028 37.2408C26.2067 37.574 26.013 37.8431 25.7628 37.9908C24.1128 38.9808 18.4328 41.5308 17.6028 42.7408C17.5438 42.8314 17.4493 42.9126 17.3263 42.9784C17.2034 43.0442 17.0553 43.0929 16.8928 43.1208Z" stroke="#F2865E" stroke-width="2"/>
<path d="M80.6509 27.4307C82.1709 28.0607 86.0909 28.3107 87.7209 28.2707C87.9321 28.2648 88.1306 28.2175 88.2821 28.1372C88.4337 28.0569 88.5287 27.9485 88.5509 27.8307L88.9109 26.0007C89.0309 25.4074 88.7909 25.2441 88.1909 25.5108L84.7209 27.0607C84.5639 27.1291 84.397 27.1561 84.2418 27.1383C84.0867 27.1204 83.9505 27.0586 83.8509 26.9607C83.2709 26.4007 79.4809 24.1907 80.0309 26.7507C80.0613 26.8925 80.1336 27.0285 80.2417 27.147C80.3497 27.2655 80.4902 27.3629 80.6509 27.4307Z" stroke="#F37047" stroke-width="2"/>
<path d="M28.0929 31.0702C31.4129 35.7102 31.8329 29.4802 28.3229 30.4402C28.2594 30.4573 28.201 30.4894 28.1525 30.5339C28.104 30.5783 28.067 30.6337 28.0444 30.6955C28.0219 30.7573 28.0145 30.8236 28.0229 30.8888C28.0314 30.954 28.0554 31.0162 28.0929 31.0702Z" stroke="#F2865E" stroke-width="2"/>
<path d="M53.9447 45.7402C54.5247 45.4336 55.1047 45.4436 55.6847 45.7702C55.8601 45.8668 56.0386 45.9307 56.2019 45.9553C56.3653 45.9799 56.5077 45.9644 56.6147 45.9103C57.988 45.1769 59.458 44.8469 61.0247 44.9203C61.1737 44.9288 61.3214 44.8799 61.4408 44.7825C61.5602 44.6852 61.6433 44.5459 61.6747 44.3903C62.0747 42.3036 63.3214 41.4302 65.4147 41.7702C65.6539 41.8075 65.8818 41.8097 66.08 41.7767C66.2781 41.7437 66.4408 41.6763 66.5547 41.5802C67.5347 40.7469 67.398 40.0569 66.1447 39.5103C65.8628 39.3882 65.5083 39.3882 65.1547 39.5103C62.8947 40.3236 61.0213 41.6836 59.5347 43.5903C59.3521 43.8249 59.1654 44.0291 59.0017 44.173C58.838 44.3169 58.7059 44.3931 58.6247 44.3903C56.6047 44.2703 56.358 43.3303 57.8847 41.5703C57.9041 41.5494 57.8776 41.4694 57.8107 41.3468C57.7438 41.2241 57.6415 41.0679 57.5247 40.9103L55.1847 37.7903C54.1047 36.3503 52.988 36.1436 51.8347 37.1703C49.6547 39.1203 44.8247 39.5803 43.3947 41.5703C43.3177 41.6804 43.2846 41.8174 43.301 41.9578C43.3174 42.0982 43.3823 42.2334 43.4847 42.3403C45.6747 44.6103 45.0547 47.0703 45.3347 49.5903C45.3427 49.6729 45.3679 49.7537 45.4082 49.8256C45.4484 49.8975 45.5025 49.9583 45.5657 50.0028C45.6289 50.0472 45.6992 50.0738 45.7705 50.0804C45.8418 50.0869 45.9119 50.0731 45.9747 50.0403L50.3847 47.6903C50.5645 47.5947 50.737 47.5204 50.8822 47.4762C51.0273 47.4319 51.1392 47.4195 51.2047 47.4403C52.558 47.8603 53.2647 47.4469 53.3247 46.2003C53.3274 46.1605 53.3906 46.0931 53.5036 46.0093C53.6165 45.9255 53.7723 45.8304 53.9447 45.7402Z" stroke="#F17B55" stroke-width="2"/>
<path d="M6.85404 50.2898C5.55404 54.1098 6.0307 54.8232 8.28403 52.4298C8.39942 52.3048 8.48233 52.1586 8.52445 52.0059C8.56658 51.8532 8.56643 51.6994 8.52402 51.5598L8.06403 50.1198C7.69737 48.9398 7.29404 48.9965 6.85404 50.2898Z" stroke="#F2865E" stroke-width="2"/>
<path d="M74.6531 2.06051C55.0798 10.3005 36.8298 20.7639 19.9031 33.4505C15.1731 37.0005 8.99315 43.2205 2.67315 47.2805C1.87315 43.2005 2.38981 39.2039 4.22314 35.2905C13.7931 14.8805 32.9231 2.52051 55.6231 1.19051C62.9165 0.763846 69.2598 1.05384 74.6531 2.06051Z" fill="#91DABB"/>
<path d="M74.6523 2.06089C75.4323 1.72089 76.4956 1.74423 77.8423 2.13089C90.9323 5.86089 104.432 15.4209 109.672 28.5809C105.592 31.9209 101.239 34.6976 96.6123 36.9109C77.0723 46.2376 58.1489 56.6776 39.8423 68.2309C31.9023 73.2409 23.8123 80.2509 15.4423 85.9609L13.6923 87.0409C3.37228 76.4542 -0.654377 63.7742 1.61229 49.0009C1.74229 48.1609 2.18229 47.8909 2.67229 47.2809C8.99229 43.2209 15.1723 37.0009 19.9023 33.4509C36.8289 20.7642 55.0789 10.3009 74.6523 2.06089ZM16.8923 43.1209C15.0123 43.4542 13.8689 44.6009 13.4623 46.5609C13.2489 47.5942 13.6389 47.8076 14.6323 47.2009C16.7389 45.9076 18.5223 44.2776 19.9823 42.3109C20.2832 41.9029 20.6533 41.565 21.0674 41.32C21.4815 41.0749 21.93 40.9286 22.3823 40.8909C24.9889 40.6709 26.6856 39.3942 27.4723 37.0609C27.519 36.9191 27.6098 36.7945 27.7329 36.7035C27.856 36.6125 28.0057 36.5593 28.1623 36.5509C29.0623 36.5009 29.5923 36.4609 30.3423 35.8509C33.6423 33.1176 37.4323 31.4942 41.7123 30.9809C42.0908 30.936 42.3959 30.8283 42.5623 30.6809C44.3223 29.1409 46.3623 28.4042 48.6823 28.4709C48.968 28.4774 49.2975 28.3722 49.6223 28.1709L52.9923 26.0609C53.135 25.97 53.2487 25.8481 53.3156 25.7143C53.3825 25.5804 53.399 25.4421 53.3623 25.3209C53.249 24.9409 53.029 24.6642 52.7023 24.4909C52.633 24.4511 52.5119 24.461 52.358 24.5189C52.2042 24.5768 52.0263 24.6795 51.8523 24.8109C49.2023 26.8009 46.1023 26.9909 43.5923 28.3009C42.3456 28.9475 41.0956 29.6142 39.8423 30.3009C39.5501 30.4563 39.234 30.5161 38.9423 30.4709C35.7756 29.9776 33.4723 31.0942 32.0323 33.8209C31.9637 33.9492 31.8566 34.0648 31.7184 34.1598C31.5802 34.2547 31.4144 34.3268 31.2323 34.3709C29.1023 34.9109 27.0323 34.7209 26.3023 37.2409C26.2062 37.574 26.0124 37.8432 25.7623 37.9909C24.1123 38.9809 18.4323 41.5309 17.6023 42.7409C17.5432 42.8315 17.4487 42.9127 17.3258 42.9785C17.2029 43.0443 17.0547 43.0929 16.8923 43.1209ZM80.6523 27.4309C82.1723 28.0609 86.0923 28.3109 87.7223 28.2709C87.9334 28.2649 88.1319 28.2177 88.2835 28.1374C88.435 28.057 88.53 27.9486 88.5523 27.8309L88.9123 26.0009C89.0323 25.4076 88.7923 25.2442 88.1923 25.5109L84.7223 27.0609C84.5652 27.1292 84.3983 27.1562 84.2432 27.1384C84.088 27.1206 83.9519 27.0587 83.8523 26.9609C83.2723 26.4009 79.4823 24.1909 80.0323 26.7509C80.0626 26.8926 80.135 27.0287 80.243 27.1472C80.351 27.2657 80.4915 27.3631 80.6523 27.4309ZM28.0923 31.0709C31.4123 35.7109 31.8323 29.4809 28.3223 30.4409C28.2588 30.458 28.2003 30.4901 28.1518 30.5345C28.1034 30.579 28.0663 30.6344 28.0437 30.6962C28.0212 30.7579 28.0138 30.8243 28.0223 30.8895C28.0307 30.9547 28.0547 31.0169 28.0923 31.0709ZM53.9423 45.7409C54.5223 45.4342 55.1023 45.4442 55.6823 45.7709C55.8577 45.8675 56.0362 45.9313 56.1995 45.9559C56.3629 45.9805 56.5053 45.965 56.6123 45.9109C57.9856 45.1776 59.4556 44.8476 61.0223 44.9209C61.1713 44.9294 61.319 44.8805 61.4384 44.7831C61.5578 44.6858 61.6409 44.5465 61.6723 44.3909C62.0723 42.3042 63.3189 41.4309 65.4123 41.7709C65.6514 41.8081 65.8794 41.8103 66.0776 41.7773C66.2757 41.7443 66.4383 41.677 66.5523 41.5809C67.5323 40.7475 67.3956 40.0576 66.1423 39.5109C65.8604 39.3889 65.5059 39.3889 65.1523 39.5109C62.8923 40.3242 61.0189 41.6842 59.5323 43.5909C59.3497 43.8255 59.163 44.0297 58.9993 44.1736C58.8356 44.3176 58.7035 44.3937 58.6223 44.3909C56.6023 44.2709 56.3556 43.3309 57.8823 41.5709C57.9017 41.55 57.8752 41.4701 57.8083 41.3474C57.7414 41.2247 57.6391 41.0686 57.5223 40.9109L55.1823 37.7909C54.1023 36.3509 52.9856 36.1442 51.8323 37.1709C49.6523 39.1209 44.8223 39.5809 43.3923 41.5709C43.3153 41.681 43.2822 41.818 43.2986 41.9584C43.315 42.0988 43.3799 42.234 43.4823 42.3409C45.6723 44.6109 45.0523 47.0709 45.3323 49.5909C45.3403 49.6735 45.3655 49.7543 45.4057 49.8262C45.446 49.8981 45.5001 49.959 45.5633 50.0034C45.6265 50.0478 45.6968 50.0745 45.7681 50.081C45.8394 50.0875 45.9095 50.0738 45.9723 50.0409L50.3823 47.6909C50.5621 47.5953 50.7346 47.5211 50.8797 47.4768C51.0249 47.4325 51.1368 47.4201 51.2023 47.4409C52.5556 47.8609 53.2623 47.4476 53.3223 46.2009C53.325 46.1611 53.3882 46.0937 53.5011 46.0099C53.6141 45.9261 53.7699 45.8311 53.9423 45.7409ZM6.85228 50.2909C5.55228 54.1109 6.02894 54.8242 8.28227 52.4309C8.39766 52.3059 8.48056 52.1597 8.52269 52.007C8.56482 51.8543 8.56467 51.7004 8.52226 51.5609L8.06227 50.1209C7.6956 48.9409 7.29228 48.9976 6.85228 50.2909Z" fill="#F76A40"/>
<path d="M17.6028 42.7408C18.4328 41.5308 24.1128 38.9808 25.7628 37.9908C26.013 37.8431 26.2067 37.574 26.3028 37.2408C27.0328 34.7208 29.1028 34.9108 31.2328 34.3708C31.4149 34.3267 31.5808 34.2547 31.719 34.1597C31.8571 34.0647 31.9642 33.9491 32.0328 33.8208C33.4728 31.0941 35.7762 29.9775 38.9428 30.4708C39.2345 30.516 39.5507 30.4563 39.8428 30.3008C41.0962 29.6141 42.3462 28.9475 43.5928 28.3008C46.1028 26.9908 49.2028 26.8008 51.8528 24.8108C52.0268 24.6795 52.2047 24.5767 52.3586 24.5188C52.5124 24.4609 52.6336 24.451 52.7028 24.4908C53.0295 24.6641 53.2495 24.9408 53.3628 25.3208C53.3995 25.442 53.3831 25.5803 53.3162 25.7142C53.2493 25.848 53.1356 25.9699 52.9928 26.0608L49.6228 28.1708C49.2981 28.3722 48.9685 28.4773 48.6828 28.4708C46.3628 28.4041 44.3228 29.1408 42.5628 30.6808C42.3964 30.8282 42.0913 30.9359 41.7128 30.9808C37.4328 31.4942 33.6428 33.1175 30.3428 35.8508C29.5928 36.4608 29.0628 36.5008 28.1628 36.5508C28.0063 36.5592 27.8566 36.6124 27.7335 36.7034C27.6104 36.7944 27.5195 36.919 27.4728 37.0608C26.6862 39.3941 24.9895 40.6708 22.3828 40.8908C21.9305 40.9285 21.4821 41.0749 21.068 41.3199C20.6539 41.5649 20.2838 41.9028 19.9828 42.3108C18.5228 44.2775 16.7395 45.9075 14.6328 47.2008C13.6395 47.8075 13.2495 47.5941 13.4628 46.5608C13.8695 44.6008 15.0128 43.4541 16.8928 43.1208C17.0553 43.0929 17.2034 43.0442 17.3263 42.9784C17.4493 42.9126 17.5438 42.8314 17.6028 42.7408Z" fill="#ECA27C"/>
<path d="M87.7209 28.2707C86.0909 28.3107 82.1709 28.0607 80.6509 27.4307C80.4902 27.3629 80.3497 27.2655 80.2417 27.147C80.1336 27.0285 80.0613 26.8925 80.0309 26.7507C79.4809 24.1907 83.2709 26.4007 83.8509 26.9607C83.9505 27.0586 84.0867 27.1204 84.2418 27.1383C84.397 27.1561 84.5639 27.1291 84.7209 27.0607L88.1909 25.5108C88.7909 25.2441 89.0309 25.4074 88.9109 26.0007L88.5509 27.8307C88.5287 27.9485 88.4337 28.0569 88.2821 28.1372C88.1306 28.2175 87.9321 28.2648 87.7209 28.2707Z" fill="#EE754E"/>
<path d="M109.671 28.5811L110.691 30.9611C96.4914 40.9111 81.8514 47.6211 66.1114 56.7411C65.8581 56.8877 65.5481 56.9677 65.1814 56.9811L64.4414 57.0111C64.1444 57.0174 63.844 57.1376 63.5914 57.3511C60.6714 59.7311 58.1914 61.9211 54.7314 63.6711C47.1514 67.4911 37.8714 72.211 31.7314 78.601C31.5314 78.8144 31.2714 78.981 30.9514 79.101C30.7314 79.181 30.5914 79.2611 30.5314 79.3411C29.1914 81.0811 27.5281 82.3177 25.5414 83.0511C22.2214 84.2811 18.9714 88.5711 15.4414 85.9611C23.8114 80.2511 31.9014 73.2411 39.8414 68.2311C58.1481 56.6777 77.0714 46.2377 96.6114 36.9111C101.238 34.6977 105.591 31.9211 109.671 28.5811Z" fill="#ADD3B2"/>
<path d="M28.0929 31.0712C28.0554 31.0172 28.0314 30.955 28.0229 30.8898C28.0145 30.8246 28.0219 30.7582 28.0444 30.6965C28.067 30.6347 28.104 30.5793 28.1525 30.5349C28.201 30.4904 28.2594 30.4583 28.3229 30.4412C31.8329 29.4812 31.4129 35.7112 28.0929 31.0712Z" fill="#ECA27C"/>
<path d="M110.691 30.9612C111.551 30.8545 112.045 31.2012 112.171 32.0012C113.625 41.3745 112.798 50.3212 109.691 58.8412C95.2047 63.8812 81.5414 70.4545 68.7014 78.5612C60.5614 83.6912 51.9914 90.6412 43.8814 96.9412C42.5547 97.9679 41.4714 99.3979 40.6314 101.231C30.3581 98.7845 21.3781 94.0545 13.6914 87.0412L15.4414 85.9612C18.9714 88.5712 22.2214 84.2812 25.5414 83.0512C27.5281 82.3179 29.1914 81.0812 30.5314 79.3412C30.5914 79.2612 30.7314 79.1812 30.9514 79.1012C31.2714 78.9812 31.5314 78.8145 31.7314 78.6012C37.8714 72.2112 47.1514 67.4912 54.7314 63.6712C58.1914 61.9212 60.6714 59.7312 63.5914 57.3512C63.844 57.1377 64.1444 57.0176 64.4414 57.0112L65.1814 56.9812C65.5481 56.9679 65.8581 56.8879 66.1114 56.7412C81.8514 47.6212 96.4914 40.9112 110.691 30.9612Z" fill="#86D7B2"/>
<path d="M53.3208 46.2012C53.2608 47.4479 52.5541 47.8612 51.2008 47.4412C51.1353 47.4204 51.0234 47.4329 50.8782 47.4772C50.7331 47.5214 50.5606 47.5957 50.3808 47.6912L45.9708 50.0412C45.908 50.0741 45.8379 50.0879 45.7666 50.0813C45.6953 50.0748 45.625 50.0482 45.5618 50.0037C45.4986 49.9593 45.4445 49.8985 45.4043 49.8266C45.364 49.7546 45.3388 49.6738 45.3308 49.5912C45.0508 47.0712 45.6708 44.6112 43.4808 42.3412C43.3784 42.2343 43.3135 42.0992 43.2971 41.9588C43.2807 41.8183 43.3138 41.6814 43.3908 41.5712C44.8208 39.5812 49.6508 39.1212 51.8308 37.1712C52.9841 36.1446 54.1008 36.3512 55.1808 37.7912L57.5208 40.9112C57.6376 41.0689 57.7399 41.2251 57.8068 41.3477C57.8737 41.4704 57.9002 41.5504 57.8808 41.5712C56.3541 43.3312 56.6008 44.2712 58.6208 44.3912C58.702 44.394 58.8341 44.3179 58.9978 44.174C59.1615 44.0301 59.3482 43.8259 59.5308 43.5912C61.0174 41.6846 62.8908 40.3246 65.1508 39.5112C65.5044 39.3892 65.8589 39.3892 66.1408 39.5112C67.3941 40.0579 67.5308 40.7479 66.5508 41.5812C66.4368 41.6773 66.2742 41.7446 66.0761 41.7777C65.8779 41.8107 65.6499 41.8085 65.4108 41.7712C63.3174 41.4312 62.0708 42.3046 61.6708 44.3912C61.6394 44.5469 61.5563 44.6861 61.4369 44.7835C61.3175 44.8808 61.1698 44.9298 61.0208 44.9212C59.4541 44.8479 57.9841 45.1779 56.6108 45.9112C56.5038 45.9653 56.3614 45.9809 56.198 45.9563C56.0347 45.9317 55.8562 45.8678 55.6808 45.7712C55.1008 45.4446 54.5208 45.4346 53.9408 45.7412C53.7684 45.8314 53.6126 45.9264 53.4996 46.0102C53.3867 46.094 53.3235 46.1615 53.3208 46.2012Z" fill="#EB8B69"/>
<path d="M6.85014 50.2908C7.29014 48.9975 7.69346 48.9408 8.06013 50.1208L8.52012 51.5608C8.56252 51.7004 8.56267 51.8542 8.52055 52.0069C8.47842 52.1596 8.39551 52.3058 8.28013 52.4308C6.02679 54.8241 5.55014 54.1108 6.85014 50.2908Z" fill="#ECA27C"/>
<path d="M109.693 58.8408C109.546 60.6408 109.166 62.2175 108.553 63.5708C101.046 80.0042 89.5161 91.5675 73.9628 98.2608C63.8495 102.614 52.7395 103.604 40.6328 101.231C41.4728 99.3975 42.5561 97.9675 43.8828 96.9408C51.9928 90.6408 60.5628 83.6908 68.7028 78.5608C81.5428 70.4542 95.2061 63.8808 109.693 58.8408Z" fill="#39457E"/>
</svg>
