<svg width="59" height="204" viewBox="0 0 59 204" fill="none" xmlns="http://www.w3.org/2000/svg">
<path d="M1.50391 19.7617C2.96391 25.7817 3.14391 33.7917 3.63391 38.0417C5.45391 53.8317 7.70391 69.4917 10.0739 85.2117C11.1472 92.3051 11.8572 96.4984 12.2039 97.7917" stroke="#FFE99A" stroke-width="2"/>
<path d="M12.2015 97.792C11.0081 99.8653 11.2881 101.465 13.0415 102.592" stroke="#85868F" stroke-width="2"/>
<path d="M13.043 102.592C13.2763 103.885 13.613 105.285 14.053 106.792C14.943 109.812 15.073 112.742 15.303 115.772" stroke="#FFE99A" stroke-width="2"/>
<path d="M15.3027 115.771C14.8361 117.958 15.6561 119.221 17.7627 119.561" stroke="#88888D" stroke-width="2"/>
<path d="M17.7617 119.562C17.7884 122.968 18.1951 125.992 18.9817 128.632" stroke="#FFE99A" stroke-width="2"/>
<path d="M18.9844 128.632L19.4944 133.432" stroke="#88888D" stroke-width="2"/>
<path d="M19.4922 133.432C22.4122 152.039 27.0855 170.319 33.5122 188.272C36.7822 197.422 38.9822 204.112 49.4422 201.682C58.5722 199.572 57.6422 192.142 56.5522 184.962C53.7655 166.496 50.7722 148.252 47.5722 130.232" stroke="#FFE99A" stroke-width="2"/>
<path d="M47.5713 130.232C47.6579 128.585 47.3946 127.178 46.7812 126.012" stroke="#88888D" stroke-width="2"/>
<path d="M46.7817 126.012L43.7617 118.062" stroke="#FFE99A" stroke-width="2"/>
<path d="M43.7617 118.062C45.3817 116.855 45.615 115.265 44.4617 113.292" stroke="#88888D" stroke-width="2"/>
<path d="M44.4625 113.292C43.1358 109.092 42.4192 104.818 42.3125 100.472" stroke="#FFE99A" stroke-width="2"/>
<path d="M42.3123 100.472C42.7457 98.3916 42.5257 96.6016 41.6523 95.1016" stroke="#85868F" stroke-width="2"/>
<path d="M41.6517 95.102C40.5117 89.1687 39.6584 83.222 39.0917 77.262C37.1717 57.062 33.8717 37.122 31.0117 17.042" stroke="#FFE99A" stroke-width="2"/>
<path d="M31.0128 17.0417C31.7528 12.295 30.7728 8.08503 28.0728 4.4117C24.0728 -1.0383 13.6228 1.45166 8.05282 2.37166C0.492825 3.63166 0.412822 14.1017 1.50282 19.7617" stroke="#8D8F9C" stroke-width="2"/>
<path d="M31.0117 17.042C29.4584 18.1687 27.7084 18.9253 25.7617 19.312" stroke="#8D7A3A" stroke-width="2"/>
<path d="M25.7617 19.3123C24.3351 19.0923 23.0017 19.3157 21.7617 19.9824" stroke="#625450" stroke-width="2"/>
<path d="M21.7639 19.9818C14.9506 21.8484 8.19724 21.7751 1.50391 19.7617" stroke="#8D7A3A" stroke-width="2"/>
<path d="M41.6531 95.1016L12.2031 97.7916" stroke="#85712C" stroke-width="2"/>
<path d="M21.7617 19.9816C23.1617 20.1349 24.4951 19.9115 25.7617 19.3115" stroke="#D4AE4D" stroke-width="2"/>
<path d="M42.313 100.472C32.593 102.445 22.8363 103.152 13.043 102.592" stroke="#85712C" stroke-width="2"/>
<path d="M44.4608 113.292C36.8808 112.525 31.3341 112.369 27.8208 112.822C23.2674 113.402 19.9941 113.612 18.0008 113.452C16.8408 113.352 15.9408 114.125 15.3008 115.772" stroke="#89732A" stroke-width="2"/>
<path d="M43.7617 118.062C35.1284 119.115 26.4617 119.615 17.7617 119.562" stroke="#89732A" stroke-width="2"/>
<path d="M46.7844 126.012L18.9844 128.632" stroke="#89732A" stroke-width="2"/>
<path d="M47.5722 130.232C38.3255 132.612 28.9655 133.679 19.4922 133.432" stroke="#89732A" stroke-width="2"/>
<path d="M31.0128 17.0417C29.4595 18.1684 27.7095 18.925 25.7628 19.3117C24.3362 19.0917 23.0028 19.315 21.7628 19.9817C14.9495 21.8484 8.19615 21.775 1.50282 19.7617C0.412822 14.1017 0.492825 3.63166 8.05282 2.37166C13.6228 1.45166 24.0728 -1.0383 28.0728 4.4117C30.7728 8.08503 31.7528 12.295 31.0128 17.0417Z" fill="#1B203C"/>
<path d="M31.01 17.041C33.87 37.121 37.17 57.061 39.09 77.261C39.6567 83.221 40.51 89.1677 41.65 95.101L12.2 97.791C11.8533 96.4977 11.1433 92.3043 10.07 85.211C7.7 69.491 5.45001 53.831 3.63 38.041C3.14 33.791 2.96 25.781 1.5 19.761C8.19333 21.7743 14.9467 21.8477 21.76 19.981C23.16 20.1344 24.4933 19.911 25.76 19.311C27.7067 18.9243 29.4567 18.1677 31.01 17.041Z" fill="#FFD437"/>
<path d="M25.7617 19.3114C24.4951 19.9114 23.1617 20.1347 21.7617 19.9814C23.0017 19.3147 24.3351 19.0914 25.7617 19.3114Z" fill="#A98863"/>
<path d="M41.6515 95.1016C42.5248 96.6016 42.7448 98.3916 42.3115 100.472C32.5915 102.445 22.8348 103.152 13.0415 102.592C11.2881 101.465 11.0081 99.8649 12.2015 97.7916L41.6515 95.1016Z" fill="#0B0E21"/>
<path d="M42.313 100.472C42.4196 104.818 43.1363 109.092 44.463 113.292C36.883 112.525 31.3363 112.368 27.823 112.822C23.2696 113.402 19.9963 113.612 18.003 113.452C16.843 113.352 15.943 114.125 15.303 115.772C15.073 112.742 14.943 109.812 14.053 106.792C13.613 105.285 13.2763 103.885 13.043 102.592C22.8363 103.152 32.593 102.445 42.313 100.472Z" fill="#FFD437"/>
<path d="M44.4627 113.291C45.6161 115.264 45.3827 116.854 43.7627 118.061C35.1294 119.114 26.4627 119.614 17.7627 119.561C15.6561 119.221 14.8361 117.958 15.3027 115.771C15.9427 114.124 16.8427 113.351 18.0027 113.451C19.9961 113.611 23.2694 113.401 27.8227 112.821C31.3361 112.368 36.8827 112.524 44.4627 113.291Z" fill="#12111D"/>
<path d="M43.7617 118.062L46.7817 126.012L18.9817 128.632C18.1951 125.992 17.7884 122.968 17.7617 119.562C26.4617 119.615 35.1284 119.115 43.7617 118.062Z" fill="#FFD437"/>
<path d="M46.7805 126.012C47.3938 127.178 47.6571 128.585 47.5705 130.232C38.3238 132.612 28.9638 133.678 19.4905 133.432L18.9805 128.632L46.7805 126.012Z" fill="#12111D"/>
<path d="M47.5722 130.231C50.7722 148.251 53.7655 166.495 56.5522 184.961C57.6422 192.141 58.5722 199.571 49.4422 201.681C38.9822 204.111 36.7822 197.421 33.5122 188.271C27.0855 170.318 22.4122 152.038 19.4922 133.431C28.9655 133.678 38.3255 132.611 47.5722 130.231Z" fill="#FFD437"/>
</svg>
