<svg width="46" height="51" viewBox="0 0 46 51" fill="none" xmlns="http://www.w3.org/2000/svg">
<path d="M1.5204 40.4406C15.4071 42.3606 29.0804 45.294 42.5404 49.2406C44.0871 49.694 44.6405 49.1106 44.2005 47.4906C39.9871 31.9373 34.9404 16.6706 29.0604 1.69059C28.9879 1.50813 28.8678 1.34941 28.7118 1.22996C28.5558 1.11051 28.3693 1.03446 28.1707 1.00926C27.972 0.984048 27.768 1.01054 27.5786 1.08616C27.3893 1.16178 27.2211 1.28391 27.0905 1.44059C17.0405 13.3406 8.97045 26.3406 1.07045 39.6006C1.02485 39.6802 1.00069 39.7699 1.00001 39.8619C0.999343 39.9539 1.02213 40.0454 1.06654 40.1283C1.11095 40.2112 1.17565 40.283 1.25478 40.3374C1.3339 40.3919 1.42504 40.4273 1.5204 40.4406Z" stroke="#9FA3AA" stroke-width="2"/>
<path d="M1.5204 40.4411C1.42504 40.4278 1.3339 40.3924 1.25478 40.3379C1.17565 40.2835 1.11095 40.2117 1.06654 40.1288C1.02213 40.0459 0.999343 39.9544 1.00001 39.8624C1.00069 39.7704 1.02485 39.6807 1.07045 39.6011C8.97045 26.3411 17.0405 13.3411 27.0905 1.44108C27.2211 1.28439 27.3893 1.16227 27.5786 1.08665C27.768 1.01103 27.972 0.984536 28.1707 1.00974C28.3693 1.03495 28.5558 1.111 28.7118 1.23045C28.8678 1.3499 28.9879 1.50861 29.0604 1.69108C34.9404 16.6711 39.9871 31.9378 44.2005 47.4911C44.6405 49.1111 44.0871 49.6945 42.5404 49.2411C29.0804 45.2945 15.4071 42.3611 1.5204 40.4411Z" fill="#404860"/>
</svg>
