<svg width="99" height="131" viewBox="0 0 99 131" fill="none" xmlns="http://www.w3.org/2000/svg">
<path d="M62.0899 47.902C62.0843 47.8458 62.0925 47.789 62.1136 47.7368C62.1347 47.6845 62.1682 47.6385 62.2108 47.6027C62.2535 47.567 62.3042 47.5427 62.3581 47.5321C62.4121 47.5215 62.4677 47.5249 62.5199 47.5421C70.4199 50.1021 81.4599 50.922 88.5699 46.642C95.8199 42.292 100.15 32.4021 96.2899 24.4821C90.6099 12.8321 70.8199 12.422 60.2299 15.202C60.0737 15.2427 59.9119 15.2494 59.7563 15.2217C59.6007 15.1941 59.4551 15.1327 59.3299 15.0421C57.9565 14.0554 55.2899 11.882 51.3299 8.52203C44.6765 2.8687 36.6365 0.402007 27.2099 1.12201C13.1499 2.20201 2.14986 6.09204 1.07986 22.342C0.499861 31.182 4.39986 36.882 12.3899 39.572C18.8099 41.742 28.2499 39.512 36.1499 37.332C38.8232 36.592 40.7032 37.1854 41.7899 39.1121C47.0899 48.5221 47.5999 64.562 48.8199 75.632C50.5065 90.8987 53.4432 105.909 57.6298 120.662C58.2365 122.782 59.0632 124.822 60.1099 126.782C62.6999 131.612 68.5098 128.352 70.6898 125.002C72.3165 122.495 72.7532 119.105 71.9998 114.832C70.4998 106.342 68.4999 97.672 67.3999 89.442C65.5399 75.602 63.7699 61.7554 62.0899 47.902Z" stroke="#B8DAD7" stroke-width="2"/>
<path d="M20.5801 18.5421C20.5801 17.4918 20.1629 16.4845 19.4203 15.7419C18.6776 14.9992 17.6704 14.582 16.6202 14.582C16.1001 14.582 15.5852 14.6845 15.1047 14.8835C14.6243 15.0825 14.1877 15.3742 13.82 15.7419C13.4523 16.1096 13.1606 16.5462 12.9616 17.0266C12.7626 17.5071 12.6602 18.022 12.6602 18.5421C12.6602 19.5923 13.0774 20.5995 13.82 21.3422C14.5627 22.0848 15.5699 22.502 16.6202 22.502C17.6704 22.502 18.6776 22.0848 19.4203 21.3422C20.1629 20.5995 20.5801 19.5923 20.5801 18.5421Z" stroke="#416368" stroke-width="2"/>
<path d="M18.4799 30.7221C19.1599 33.3821 26.2599 31.3221 27.6199 30.7021C32.5999 28.4121 36.3998 23.9822 37.0098 18.2922C37.1398 17.0322 36.7498 15.6621 35.1298 16.5921C35.0063 16.6633 34.9001 16.7702 34.8202 16.9041C34.7402 17.038 34.6887 17.195 34.6699 17.3622C33.7599 25.6822 26.5099 29.3921 18.9299 30.1821C18.8589 30.1897 18.7899 30.2104 18.7274 30.2427C18.665 30.2749 18.6107 30.3181 18.568 30.3692C18.5254 30.4204 18.4955 30.4784 18.4802 30.5393C18.465 30.6002 18.4649 30.6625 18.4799 30.7221Z" stroke="#416B71" stroke-width="2"/>
<path d="M72.3711 26.3318C72.4967 26.4463 72.6729 26.5107 72.8753 26.516C73.0777 26.5214 73.2963 26.4676 73.5011 26.3619C76.8077 24.6685 77.1911 22.7385 74.6511 20.5718C74.4713 20.4161 74.2663 20.3049 74.0561 20.2488C73.8458 20.1928 73.6374 20.1938 73.4511 20.2518C69.5377 21.4718 69.1778 23.4985 72.3711 26.3318Z" stroke="#416368" stroke-width="2"/>
<path d="M63.4683 34.142C66.9883 36.472 74.5283 36.422 76.3583 31.582C76.485 31.2553 76.375 31.1487 76.0283 31.262C68.8783 33.642 65.0283 34.802 60.7983 27.452C60.2683 26.512 58.8083 25.682 58.5583 27.322C58.2383 29.412 61.9883 33.172 63.4683 34.142Z" stroke="#416B71" stroke-width="2"/>
<path d="M66.7103 124.602C67.517 124.455 67.8804 123.862 67.8004 122.822C66.3337 103.315 63.7437 82.9853 60.0303 61.832C59.0003 56.012 57.6903 47.542 54.5103 42.552C54.4502 42.4546 54.354 42.3642 54.2282 42.2866C54.1023 42.209 53.9496 42.1461 53.7803 42.102C53.1537 41.9354 52.7404 42.092 52.5404 42.572C52.3861 42.9446 52.343 43.2965 52.4204 43.552C53.6337 47.6987 54.897 54.0454 56.2103 62.592C60.3903 89.892 63.087 109.202 64.3004 120.522C64.4537 121.962 64.9803 123.212 65.8803 124.272C65.9899 124.399 66.1245 124.497 66.2703 124.555C66.4161 124.613 66.5679 124.629 66.7103 124.602Z" stroke="#416B71" stroke-width="2"/>
<path d="M17.9092 17.8521C17.9092 17.5921 17.858 17.3346 17.7585 17.0944C17.659 16.8541 17.5131 16.6359 17.3293 16.452C17.1454 16.2682 16.9272 16.1223 16.687 16.0228C16.4467 15.9233 16.1893 15.8721 15.9293 15.8721C15.6692 15.8721 15.4117 15.9233 15.1715 16.0228C14.9313 16.1223 14.713 16.2682 14.5292 16.452C14.3453 16.6359 14.1995 16.8541 14.1 17.0944C14.0005 17.3346 13.9492 17.5921 13.9492 17.8521C13.9492 18.3772 14.1579 18.8808 14.5292 19.2521C14.9005 19.6235 15.4041 19.8321 15.9293 19.8321C16.4544 19.8321 16.958 19.6235 17.3293 19.2521C17.7006 18.8808 17.9092 18.3772 17.9092 17.8521Z" stroke="#6B7587" stroke-width="2"/>
<path d="M73.0159 23.3212C73.1433 23.3168 73.2683 23.2842 73.384 23.2253C73.4998 23.1665 73.6038 23.0825 73.6903 22.9782C73.7768 22.8739 73.844 22.7513 73.8881 22.6175C73.9322 22.4836 73.9523 22.341 73.9473 22.198C73.9372 21.9091 73.8255 21.6356 73.6365 21.4377C73.4476 21.2398 73.197 21.1337 72.94 21.1426C72.8126 21.1471 72.6876 21.1796 72.5719 21.2384C72.4561 21.2973 72.3521 21.3813 72.2656 21.4856C72.1791 21.5899 72.1119 21.7125 72.0678 21.8464C72.0237 21.9802 72.0036 22.1227 72.0086 22.2658C72.0187 22.5547 72.1305 22.8282 72.3194 23.0261C72.5083 23.224 72.7589 23.3302 73.0159 23.3212Z" stroke="#646980" stroke-width="2"/>
<path d="M62.0899 47.902C63.7699 61.7554 65.5399 75.602 67.3999 89.442C68.4999 97.672 70.4998 106.342 71.9998 114.832C72.7532 119.105 72.3165 122.495 70.6898 125.002C68.5098 128.352 62.6999 131.612 60.1099 126.782C59.0632 124.822 58.2365 122.782 57.6298 120.662C53.4432 105.909 50.5065 90.8987 48.8199 75.632C47.5998 64.562 47.0899 48.5221 41.7899 39.1121C40.7032 37.1854 38.8232 36.592 36.1499 37.332C28.2499 39.512 18.8099 41.742 12.3899 39.572C4.39986 36.882 0.499861 31.182 1.07986 22.342C2.14986 6.09204 13.1499 2.20201 27.2099 1.12201C36.6365 0.402007 44.6765 2.8687 51.3299 8.52203C55.2899 11.882 57.9565 14.0554 59.3299 15.0421C59.4551 15.1327 59.6007 15.1941 59.7563 15.2217C59.9119 15.2494 60.0737 15.2427 60.2299 15.202C70.8199 12.422 90.6099 12.8321 96.2899 24.4821C100.15 32.4021 95.8199 42.292 88.5699 46.642C81.4599 50.922 70.4199 50.1021 62.5199 47.5421C62.4677 47.5249 62.4121 47.5215 62.3581 47.5321C62.3042 47.5427 62.2535 47.567 62.2108 47.6027C62.1682 47.6385 62.1347 47.6845 62.1136 47.7368C62.0925 47.789 62.0843 47.8458 62.0899 47.902ZM20.5799 18.5421C20.5799 17.4918 20.1627 16.4845 19.42 15.7419C18.6774 14.9992 17.6702 14.582 16.6199 14.582C16.0999 14.582 15.5849 14.6845 15.1045 14.8835C14.624 15.0825 14.1874 15.3742 13.8197 15.7419C13.452 16.1096 13.1603 16.5462 12.9613 17.0266C12.7623 17.5071 12.6599 18.022 12.6599 18.5421C12.6599 19.5923 13.0771 20.5995 13.8197 21.3422C14.5624 22.0848 15.5696 22.502 16.6199 22.502C17.6702 22.502 18.6774 22.0848 19.42 21.3422C20.1627 20.5995 20.5799 19.5923 20.5799 18.5421ZM18.4799 30.722C19.1599 33.382 26.2599 31.322 27.6199 30.702C32.5999 28.412 36.3999 23.9821 37.0099 18.2921C37.1399 17.0321 36.7498 15.662 35.1298 16.592C35.0063 16.6632 34.9001 16.7701 34.8202 16.904C34.7402 17.0379 34.6887 17.1949 34.6699 17.3621C33.7599 25.6821 26.5099 29.392 18.9299 30.182C18.8589 30.1896 18.7899 30.2103 18.7274 30.2426C18.665 30.2748 18.6107 30.318 18.568 30.3691C18.5254 30.4203 18.4955 30.4783 18.4803 30.5392C18.465 30.6001 18.4649 30.6624 18.4799 30.722ZM72.3699 26.332C72.4955 26.4465 72.6716 26.5109 72.8741 26.5162C73.0765 26.5216 73.2951 26.4678 73.4998 26.3621C76.8065 24.6687 77.1899 22.7387 74.6499 20.572C74.47 20.4164 74.2651 20.3051 74.0548 20.249C73.8446 20.193 73.6362 20.194 73.4499 20.252C69.5365 21.472 69.1766 23.4987 72.3699 26.332ZM63.4699 34.142C66.9899 36.472 74.5299 36.422 76.3599 31.582C76.4866 31.2554 76.3765 31.1487 76.0299 31.262C68.8799 33.642 65.0299 34.802 60.7999 27.452C60.2699 26.512 58.8099 25.682 58.5599 27.322C58.2399 29.412 61.9899 33.172 63.4699 34.142ZM66.7099 124.602C67.5165 124.455 67.8799 123.862 67.7999 122.822C66.3332 103.315 63.7432 82.9854 60.0299 61.832C58.9999 56.012 57.6899 47.542 54.5099 42.552C54.4497 42.4547 54.3535 42.3642 54.2277 42.2866C54.1018 42.209 53.9492 42.1461 53.7799 42.1021C53.1532 41.9354 52.7399 42.092 52.5399 42.572C52.3857 42.9446 52.3426 43.2965 52.4199 43.552C53.6332 47.6987 54.8965 54.0454 56.2099 62.592C60.3899 89.892 63.0866 109.202 64.2999 120.522C64.4532 121.962 64.9799 123.212 65.8799 124.272C65.9895 124.399 66.124 124.497 66.2698 124.555C66.4156 124.613 66.5675 124.629 66.7099 124.602Z" fill="#72B5B0"/>
<path d="M20.5801 18.5421C20.5801 19.5923 20.1629 20.5995 19.4203 21.3422C18.6776 22.0848 17.6704 22.502 16.6202 22.502C15.5699 22.502 14.5627 22.0848 13.82 21.3422C13.0774 20.5995 12.6602 19.5923 12.6602 18.5421C12.6602 18.022 12.7626 17.5071 12.9616 17.0266C13.1606 16.5462 13.4523 16.1096 13.82 15.7419C14.1877 15.3742 14.6243 15.0825 15.1047 14.8835C15.5852 14.6845 16.1001 14.582 16.6202 14.582C17.6704 14.582 18.6776 14.9992 19.4203 15.7419C20.1629 16.4845 20.5801 17.4918 20.5801 18.5421ZM17.9102 17.8521C17.9102 17.592 17.859 17.3345 17.7595 17.0943C17.66 16.8541 17.5141 16.6358 17.3302 16.452C17.1463 16.2681 16.9281 16.1223 16.6879 16.0228C16.4476 15.9233 16.1902 15.872 15.9302 15.872C15.6702 15.872 15.4126 15.9233 15.1724 16.0228C14.9322 16.1223 14.714 16.2681 14.5301 16.452C14.3462 16.6358 14.2004 16.8541 14.1009 17.0943C14.0014 17.3345 13.9501 17.592 13.9501 17.8521C13.9501 18.3772 14.1588 18.8808 14.5301 19.2521C14.9014 19.6234 15.405 19.832 15.9302 19.832C16.4553 19.832 16.9589 19.6234 17.3302 19.2521C17.7015 18.8808 17.9102 18.3772 17.9102 17.8521Z" fill="#0F101F"/>
<path d="M27.6199 30.7021C26.2599 31.3221 19.1599 33.3821 18.4799 30.7221C18.4649 30.6625 18.465 30.6002 18.4802 30.5393C18.4955 30.4784 18.5254 30.4204 18.568 30.3692C18.6107 30.3181 18.665 30.2749 18.7274 30.2427C18.7899 30.2104 18.8589 30.1897 18.9299 30.1821C26.5099 29.3921 33.7599 25.6822 34.6699 17.3622C34.6887 17.195 34.7402 17.038 34.8202 16.9041C34.9001 16.7702 35.0063 16.6633 35.1298 16.5921C36.7498 15.6621 37.1398 17.0322 37.0098 18.2922C36.3998 23.9822 32.5999 28.4121 27.6199 30.7021Z" fill="#0F2031"/>
<path d="M72.3711 26.3318C69.1778 23.4985 69.5377 21.4718 73.4511 20.2518C73.6374 20.1938 73.8458 20.1928 74.0561 20.2488C74.2663 20.3049 74.4713 20.4161 74.6511 20.5718C77.1911 22.7385 76.8077 24.6685 73.5011 26.3619C73.2963 26.4676 73.0777 26.5214 72.8753 26.516C72.6729 26.5107 72.4967 26.4463 72.3711 26.3318ZM73.0191 23.3211C73.1464 23.3167 73.2715 23.2841 73.3872 23.2253C73.5029 23.1664 73.607 23.0824 73.6934 22.9781C73.7799 22.8738 73.8472 22.7513 73.8913 22.6174C73.9354 22.4835 73.9555 22.341 73.9505 22.1979C73.9404 21.909 73.8286 21.6356 73.6397 21.4377C73.4508 21.2397 73.2002 21.1336 72.9431 21.1426C72.8158 21.147 72.6907 21.1795 72.575 21.2384C72.4593 21.2972 72.3553 21.3812 72.2688 21.4855C72.1823 21.5898 72.1151 21.7124 72.071 21.8463C72.0268 21.9802 72.0067 22.1227 72.0117 22.2657C72.0218 22.5546 72.1336 22.8281 72.3225 23.026C72.5115 23.224 72.762 23.3301 73.0191 23.3211Z" fill="#0F101F"/>
<path d="M63.4683 34.142C61.9883 33.172 58.2383 29.412 58.5583 27.322C58.8083 25.682 60.2683 26.512 60.7983 27.452C65.0283 34.802 68.8783 33.642 76.0283 31.262C76.375 31.1487 76.485 31.2553 76.3583 31.582C74.5283 36.422 66.9883 36.472 63.4683 34.142Z" fill="#0F2031"/>
<path d="M65.8803 124.272C64.9803 123.212 64.4537 121.962 64.3004 120.522C63.087 109.202 60.3903 89.892 56.2103 62.592C54.897 54.0454 53.6337 47.6987 52.4204 43.552C52.343 43.2965 52.3861 42.9446 52.5404 42.572C52.7404 42.092 53.1537 41.9354 53.7803 42.102C53.9496 42.1461 54.1023 42.209 54.2282 42.2866C54.354 42.3642 54.4502 42.4546 54.5103 42.552C57.6903 47.542 59.0003 56.012 60.0303 61.832C63.7437 82.9854 66.3337 103.315 67.8004 122.822C67.8804 123.862 67.517 124.455 66.7103 124.602C66.5679 124.629 66.4161 124.613 66.2703 124.555C66.1245 124.497 65.9899 124.399 65.8803 124.272Z" fill="#0F2031"/>
<path d="M17.9131 17.8521C17.9131 18.3772 17.7045 18.8808 17.3332 19.2521C16.9619 19.6235 16.4583 19.8321 15.9332 19.8321C15.408 19.8321 14.9044 19.6235 14.5331 19.2521C14.1618 18.8808 13.9531 18.3772 13.9531 17.8521C13.9531 17.5921 14.0044 17.3346 14.1039 17.0944C14.2034 16.8541 14.3492 16.6359 14.5331 16.452C14.7169 16.2682 14.9352 16.1223 15.1754 16.0228C15.4156 15.9233 15.6731 15.8721 15.9332 15.8721C16.1932 15.8721 16.4506 15.9233 16.6909 16.0228C16.9311 16.1223 17.1493 16.2682 17.3332 16.452C17.5171 16.6359 17.6629 16.8541 17.7625 17.0944C17.862 17.3346 17.9131 17.5921 17.9131 17.8521Z" fill="#C7DAEF"/>
<path d="M73.0198 23.3212C72.7628 23.3302 72.5122 23.224 72.3233 23.0261C72.1344 22.8282 72.0226 22.5547 72.0125 22.2658C72.0075 22.1227 72.0276 21.9802 72.0717 21.8464C72.1158 21.7125 72.1831 21.5899 72.2695 21.4856C72.356 21.3813 72.4601 21.2973 72.5758 21.2384C72.6915 21.1796 72.8166 21.1471 72.9439 21.1426C73.2009 21.1337 73.4515 21.2398 73.6405 21.4377C73.8294 21.6356 73.9411 21.9091 73.9512 22.198C73.9562 22.341 73.9361 22.4836 73.892 22.6175C73.8479 22.7513 73.7807 22.8739 73.6942 22.9782C73.6077 23.0825 73.5037 23.1665 73.388 23.2253C73.2722 23.2842 73.1472 23.3168 73.0198 23.3212Z" fill="#B9C2E1"/>
</svg>
