<svg width="114" height="92" viewBox="0 0 114 92" fill="none" xmlns="http://www.w3.org/2000/svg">
<path d="M25.5917 29.9395L25.1517 32.7295C25.1286 32.8819 25.0666 33.0226 24.9739 33.1333C24.8811 33.2439 24.7619 33.3192 24.6317 33.3495C22.5117 33.8228 21.3051 32.9261 21.0117 30.6595" stroke="#98842E" stroke-width="2"/>
<path d="M21.0115 30.6595C20.6515 25.9595 20.9148 21.2862 21.8015 16.6395C21.8481 16.4062 21.7782 16.3395 21.5915 16.4395C14.2315 20.4262 9.95481 26.5795 8.76147 34.8995C8.70956 35.2358 8.76589 35.5703 8.92148 35.8495C10.6715 39.0895 9.12148 40.1295 7.99148 42.7895C3.99148 52.2162 6.31482 59.8095 14.9615 65.5695" stroke="#93833F" stroke-width="2"/>
<path d="M14.9586 65.5693C17.2053 67.7693 16.8219 69.386 13.8086 70.4193" stroke="#98842E" stroke-width="2"/>
<path d="M13.8095 70.4194C12.5895 69.2594 11.2529 68.5794 9.79952 68.3794C9.48506 68.3411 9.16234 68.4308 8.89952 68.6294C5.35952 71.3694 0.959515 78.2494 6.60952 81.8294C10.9162 84.5694 15.7162 85.746 21.0095 85.3594C22.2628 85.2727 22.9462 84.5394 23.0595 83.1594C23.1395 82.1194 23.4028 81.1394 23.8495 80.2194C24.5562 78.7527 25.3695 78.736 26.2895 80.1694C30.2095 86.2994 38.9895 87.4993 45.3495 85.4293C47.9595 84.5793 49.4795 82.0594 51.4595 80.1394C51.5645 80.0365 51.6988 79.9688 51.8438 79.9455C51.9889 79.9222 52.1377 79.9446 52.2695 80.0094C60.9095 84.0594 67.4795 86.6694 77.3495 83.1894C79.3895 82.4794 80.6095 82.4794 82.0095 80.4794C82.0866 80.3673 82.2016 80.2875 82.3314 80.2559C82.4612 80.2244 82.5962 80.2435 82.7095 80.3093C90.1695 84.6093 98.0795 83.3494 103.88 76.9794C109.72 70.566 110.523 62.7927 106.29 53.6594C106.211 53.4904 106.121 53.3423 106.024 53.2249C105.928 53.1076 105.827 53.0238 105.73 52.9794L101.96 51.2694C100.313 50.5227 99.7529 49.396 100.28 47.8894C104.56 35.6694 97.1495 30.8694 86.3095 29.2794C84.2695 28.9794 82.9528 27.8427 82.3595 25.8694C79.9895 18.0094 73.2995 10.1994 64.8795 8.61936C62.5795 8.18936 59.7895 9.12936 57.7495 9.95936C57.2857 10.1451 56.7842 10.2176 56.2868 10.1706C55.7894 10.1236 55.3104 9.95865 54.8895 9.68935C47.9395 5.26935 42.7295 3.32935 34.9495 7.38935C26.7762 11.6627 23.6562 19.1794 25.5895 29.9394" stroke="#93833F" stroke-width="2"/>
<path d="M13.8089 70.4193L12.2088 71.7092C12.1137 71.7879 11.9858 71.8204 11.8517 71.7999C11.7176 71.7794 11.5876 71.7076 11.4888 71.5993C8.98885 68.8893 6.19886 76.5692 6.21886 78.3692C6.22219 78.5072 6.25354 78.6406 6.31062 78.76C6.3677 78.8793 6.44907 78.9816 6.54884 79.0592C10.4888 82.0926 14.8989 83.3092 19.7789 82.7092C19.9334 82.691 20.0796 82.6387 20.205 82.5569C20.3304 82.475 20.4313 82.366 20.4989 82.2392C21.4489 80.4392 21.7189 78.4893 23.4689 77.4793C26.7689 75.5793 28.6388 78.8293 30.6488 80.7893C33.7388 83.7993 39.0889 83.8593 43.0589 83.2293C48.4289 82.3793 47.2688 74.8993 55.2288 78.4393C58.5288 79.9126 61.8889 81.2359 65.3089 82.4093C66.9222 82.9626 68.5388 82.9859 70.1588 82.4793C72.1788 81.8526 74.3022 81.2226 76.5289 80.5892C78.7989 79.9492 80.3788 78.1293 83.0488 77.6993C83.1927 77.6743 83.3443 77.6846 83.493 77.7296C83.6417 77.7745 83.7837 77.853 83.9088 77.9592C91.4988 84.2992 98.6988 79.4493 103.409 72.9393C105.142 70.5393 106.176 67.9993 106.509 65.3193C106.919 61.9793 105.899 53.3592 101.039 53.6092C100.875 53.6155 100.714 53.5912 100.566 53.5379C100.418 53.4846 100.286 53.4034 100.179 53.2992C97.4088 50.5592 97.7488 47.5692 98.7088 43.6092C100.509 36.0992 95.1489 33.8892 89.0289 32.4192C86.6622 31.8592 85.8322 32.5293 86.5388 34.4293C87.2588 36.3593 89.0788 37.2793 89.4888 39.0093C90.1388 41.7593 87.3288 43.7093 86.5088 46.0093C86.4467 46.1827 86.3464 46.3329 86.2245 46.4347C86.1027 46.5366 85.9666 46.5841 85.8389 46.5693C84.4389 46.4093 83.4189 45.6893 82.7789 44.4093C82.6165 44.0783 82.3706 43.8183 82.0788 43.6692C81.2655 43.2559 80.2155 42.4959 78.9288 41.3892C72.5955 35.9226 65.8155 35.6359 58.5889 40.5292C58.1422 40.8359 56.9255 41.3559 54.9389 42.0892C52.1789 43.0992 49.3889 42.0893 47.0589 42.8993C43.9322 43.9793 40.3089 46.0559 36.1889 49.1293C36.0528 49.2338 35.9039 49.3116 35.7511 49.3579C35.5982 49.4043 35.4445 49.4184 35.2988 49.3993C34.0588 49.2526 33.5588 48.5192 33.7988 47.1992" stroke="#F8DC49" stroke-width="2"/>
<path d="M33.8008 47.1992C38.4808 44.2992 44.9708 40.3292 50.5708 40.0792C56.5908 39.8192 59.3808 36.3392 63.5608 34.9492C70.7508 32.5392 79.4708 37.7392 84.4108 42.6292C84.5318 42.7506 84.6717 42.8437 84.8193 42.901C84.9669 42.9583 85.118 42.9782 85.2608 42.9592C88.0808 42.5292 85.8808 37.9792 84.6508 36.7992C79.4708 31.8792 73.3741 29.4225 66.3608 29.4292C62.1608 29.4392 57.7808 32.3292 53.9508 34.0892C52.5441 34.7292 50.5075 35.3592 47.8408 35.9792C41.4608 37.4492 35.6208 40.2692 31.8008 45.6992" stroke="#988737" stroke-width="2"/>
<path d="M31.7998 45.6995C31.2065 46.2062 30.5632 46.3962 29.8698 46.2695C29.7339 46.2462 29.6126 46.1669 29.5308 46.0479C29.449 45.9289 29.4129 45.7792 29.4298 45.6295C29.9432 41.5028 32.2932 39.1495 36.4798 38.5695C38.9698 38.2195 41.8098 35.1795 44.7198 34.4495C47.4898 33.7595 50.5298 33.9595 52.9498 32.7795C56.2798 31.1395 59.4598 28.1795 62.9498 27.5195C70.9098 25.9995 74.3698 28.8395 81.3398 31.2995C82.2398 31.6195 82.5532 31.3228 82.2798 30.4095C81.7865 28.7362 80.9532 27.2362 79.7798 25.9095C79.4798 25.5762 79.2965 25.3028 79.2298 25.0895C77.1098 18.3495 70.0198 10.5395 62.0998 11.1795C61.8076 11.2054 61.5068 11.3383 61.2398 11.5595C55.0498 16.6195 51.1098 8.4995 44.8398 8.3295C32.8798 7.9995 29.4598 14.4295 27.0298 24.9495C26.9587 25.2471 26.9975 25.5752 27.1398 25.8795C28.1132 28.0595 27.5965 29.4128 25.5898 29.9395" stroke="#F8DC49" stroke-width="2"/>
<path d="M31.7985 45.6992C31.1852 47.6326 31.8519 48.1326 33.7985 47.1992" stroke="#9C8726" stroke-width="2"/>
<path d="M14.9613 65.5695L15.9913 64.0695C16.0274 64.018 16.0516 63.959 16.0626 63.8962C16.0735 63.8333 16.071 63.7677 16.0552 63.7034C16.0393 63.6391 16.0104 63.5772 15.9703 63.5216C15.9301 63.466 15.8795 63.4176 15.8213 63.3795C10.6413 60.0795 7.60133 54.1095 9.15133 47.9995C10.4213 42.9595 14.2913 39.7995 11.2713 34.2795C11.1944 34.1409 11.1515 33.9875 11.1462 33.8324C11.141 33.6773 11.1737 33.5253 11.2413 33.3895C12.4113 31.0495 14.5213 24.0495 17.5713 22.9995C17.7198 22.9485 17.878 22.9394 18.0269 22.9731C18.1759 23.0067 18.3093 23.0819 18.4113 23.1895C19.6713 24.5995 18.3013 28.5795 18.6613 30.7695C18.6702 30.8273 18.6924 30.8822 18.7266 30.9307C18.7608 30.9793 18.8061 31.0204 18.8597 31.0515C18.9134 31.0825 18.9742 31.1029 19.0381 31.1111C19.1021 31.1194 19.1679 31.1154 19.2313 31.0995L21.0113 30.6595" stroke="#F8DC49" stroke-width="2"/>
<path d="M87.6 23.9791C91.26 24.9991 95.53 25.6491 98.58 27.5391C105.107 31.5858 107.53 37.8224 105.85 46.2491C105.82 46.3942 105.831 46.5461 105.882 46.6887C105.933 46.8313 106.022 46.9592 106.14 47.0591C108.11 48.7391 110.09 50.2591 111.2 52.6491C119.88 71.2691 105.46 91.6491 84.5 86.6891C84.1875 86.6177 83.8559 86.6456 83.55 86.7691C78.61 88.8391 73.81 90.4391 68.26 90.0391C62.8 89.6491 59.74 89.6391 53.73 86.7791C53.5929 86.715 53.4415 86.6877 53.2907 86.7C53.1399 86.7122 52.9949 86.7636 52.87 86.8491C44.3 92.6891 35.85 92.8091 26.75 87.8191C26.6173 87.7447 26.4689 87.7031 26.3175 87.6979C26.1661 87.6927 26.016 87.724 25.88 87.7891C18.73 91.1091 4.13998 89.4891 0.799979 81.4391C-1.95002 74.8091 2.96999 69.7391 6.77999 64.8591C6.86717 64.7496 6.91201 64.612 6.90652 64.471C6.90102 64.3299 6.84555 64.1946 6.74999 64.0891C1.08999 57.7891 0.739984 51.8791 2.42998 43.5591C3.72998 37.1591 4.31999 30.2291 7.05999 24.8591C10.34 18.4291 15.07 13.8491 22.51 12.6791C22.8342 12.6271 23.1268 12.472 23.34 12.2391C25.09 10.3791 26.65 7.99909 28.32 6.44909C36.4 -1.04091 50.75 -3.1309 58.49 6.2891C58.5918 6.41272 58.7191 6.51068 58.8616 6.57499C59.0041 6.6393 59.1578 6.66812 59.31 6.6591C61.73 6.5191 64.21 5.53909 66.37 5.57909C77.41 5.75909 83.5 13.7791 86.95 23.3791C87.0023 23.5239 87.0886 23.654 87.2017 23.7584C87.3149 23.8629 87.4515 23.9385 87.6 23.9791ZM25.59 29.9391L25.15 32.7291C25.1269 32.8816 25.0649 33.0223 24.9721 33.1329C24.8794 33.2435 24.7601 33.3189 24.63 33.3491C22.51 33.8224 21.3033 32.9258 21.01 30.6591C20.65 25.9591 20.9133 21.2858 21.8 16.6391C21.8466 16.4058 21.7767 16.3391 21.59 16.4391C14.23 20.4258 9.9533 26.5791 8.75997 34.8991C8.70806 35.2354 8.76439 35.5699 8.91997 35.8491C10.67 39.0891 9.11998 40.1291 7.98998 42.7891C3.98998 52.2158 6.31332 59.8091 14.96 65.5691C17.2066 67.7691 16.8233 69.3858 13.81 70.4191C12.59 69.2591 11.2533 68.5791 9.79998 68.3791C9.48552 68.3409 9.16281 68.4305 8.89999 68.6291C5.35999 71.3691 0.959976 78.2491 6.60998 81.8291C10.9166 84.5691 15.7166 85.7458 21.01 85.3591C22.2633 85.2724 22.9467 84.5391 23.06 83.1591C23.14 82.1191 23.4033 81.1391 23.85 80.2191C24.5566 78.7524 25.37 78.7358 26.29 80.1691C30.21 86.2991 38.99 87.4991 45.35 85.4291C47.96 84.5791 49.48 82.0591 51.46 80.1391C51.5649 80.0363 51.6992 79.9685 51.8443 79.9453C51.9894 79.922 52.1381 79.9443 52.27 80.0091C60.91 84.0591 67.48 86.6691 77.35 83.1891C79.39 82.4791 80.61 82.4791 82.01 80.4791C82.0871 80.367 82.202 80.2872 82.3318 80.2557C82.4616 80.2242 82.5967 80.2432 82.71 80.3091C90.17 84.6091 98.08 83.3491 103.88 76.9791C109.72 70.5658 110.523 62.7924 106.29 53.6591C106.212 53.4902 106.121 53.342 106.025 53.2246C105.928 53.1073 105.828 53.0235 105.73 52.9791L101.96 51.2691C100.313 50.5224 99.7533 49.3958 100.28 47.8891C104.56 35.6691 97.15 30.8691 86.31 29.2791C84.27 28.9791 82.9533 27.8424 82.36 25.8691C79.99 18.0091 73.3 10.1991 64.88 8.6191C62.58 8.1891 59.79 9.1291 57.75 9.9591C57.2862 10.1449 56.7847 10.2173 56.2873 10.1703C55.7899 10.1234 55.3108 9.9584 54.89 9.68909C47.94 5.26909 42.73 3.32909 34.95 7.38909C26.7766 11.6624 23.6567 19.1791 25.59 29.9391Z" fill="#E9C408"/>
<path d="M13.8095 70.4194L12.2095 71.7093C12.1144 71.788 11.9864 71.8205 11.8523 71.8C11.7183 71.7795 11.5883 71.7077 11.4895 71.5994C8.98952 68.8894 6.19953 76.5693 6.21953 78.3693C6.22287 78.5073 6.25422 78.6407 6.3113 78.7601C6.36838 78.8794 6.44975 78.9817 6.54952 79.0593C10.4895 82.0927 14.8995 83.3093 19.7795 82.7093C19.9341 82.6911 20.0803 82.6388 20.2057 82.557C20.3311 82.4751 20.4319 82.3661 20.4995 82.2393C21.4495 80.4393 21.7195 78.4894 23.4695 77.4794C26.7695 75.5794 28.6395 78.8294 30.6495 80.7894C33.7395 83.7994 39.0895 83.8594 43.0595 83.2294C48.4295 82.3794 47.2695 74.8994 55.2295 78.4394C58.5295 79.9127 61.8895 81.236 65.3095 82.4094C66.9229 82.9627 68.5395 82.986 70.1595 82.4794C72.1795 81.8527 74.3029 81.2227 76.5295 80.5893C78.7995 79.9493 80.3795 78.1294 83.0495 77.6994C83.1933 77.6744 83.345 77.6847 83.4937 77.7297C83.6424 77.7747 83.7844 77.8531 83.9095 77.9593C91.4995 84.2993 98.6995 79.4494 103.41 72.9394C105.143 70.5394 106.176 67.9994 106.51 65.3194C106.92 61.9794 105.9 53.3594 101.04 53.6094C100.875 53.6156 100.714 53.5913 100.566 53.538C100.419 53.4847 100.287 53.4035 100.18 53.2994C97.4095 50.5594 97.7495 47.5694 98.7095 43.6094C100.51 36.0994 95.1495 33.8893 89.0295 32.4193C86.6629 31.8594 85.8328 32.5294 86.5395 34.4294C87.2595 36.3594 89.0795 37.2794 89.4895 39.0094C90.1395 41.7594 87.3295 43.7094 86.5095 46.0094C86.4474 46.1828 86.3471 46.333 86.2252 46.4348C86.1033 46.5367 85.9672 46.5842 85.8395 46.5694C84.4395 46.4094 83.4195 45.6894 82.7795 44.4094C82.6172 44.0784 82.3712 43.8184 82.0795 43.6693C81.2662 43.256 80.2162 42.496 78.9295 41.3894C72.5962 35.9227 65.8162 35.636 58.5895 40.5294C58.1429 40.836 56.9262 41.356 54.9395 42.0893C52.1795 43.0993 49.3895 42.0894 47.0595 42.8994C43.9329 43.9794 40.3095 46.056 36.1895 49.1294C36.0535 49.2339 35.9046 49.3117 35.7517 49.358C35.5989 49.4044 35.4451 49.4185 35.2995 49.3994C34.0595 49.2527 33.5595 48.5193 33.7995 47.1993C38.4795 44.2993 44.9695 40.3294 50.5695 40.0794C56.5895 39.8194 59.3795 36.3393 63.5595 34.9493C70.7495 32.5393 79.4695 37.7394 84.4095 42.6294C84.5305 42.7508 84.6704 42.8438 84.818 42.9011C84.9656 42.9584 85.1168 42.9784 85.2595 42.9594C88.0795 42.5294 85.8795 37.9794 84.6495 36.7994C79.4695 31.8794 73.3728 29.4227 66.3595 29.4294C62.1595 29.4394 57.7795 32.3293 53.9495 34.0893C52.5428 34.7293 50.5062 35.3594 47.8395 35.9794C41.4595 37.4494 35.6195 40.2693 31.7995 45.6993C31.2062 46.206 30.5629 46.396 29.8695 46.2694C29.7336 46.246 29.6123 46.1667 29.5305 46.0477C29.4487 45.9287 29.4126 45.779 29.4295 45.6294C29.9429 41.5027 32.2928 39.1494 36.4795 38.5694C38.9695 38.2194 41.8095 35.1793 44.7195 34.4493C47.4895 33.7593 50.5295 33.9594 52.9495 32.7794C56.2795 31.1394 59.4595 28.1794 62.9495 27.5194C70.9095 25.9994 74.3695 28.8394 81.3395 31.2994C82.2395 31.6194 82.5529 31.3227 82.2795 30.4094C81.7862 28.736 80.9529 27.236 79.7795 25.9094C79.4795 25.576 79.2962 25.3027 79.2295 25.0893C77.1095 18.3493 70.0195 10.5394 62.0995 11.1794C61.8073 11.2053 61.5065 11.3382 61.2395 11.5594C55.0495 16.6194 51.1095 8.49935 44.8395 8.32935C32.8795 7.99935 29.4595 14.4293 27.0295 24.9493C26.9584 25.2469 26.9972 25.5751 27.1395 25.8794C28.1128 28.0594 27.5962 29.4127 25.5895 29.9394C23.6562 19.1794 26.7762 11.6627 34.9495 7.38935C42.7295 3.32935 47.9395 5.26935 54.8895 9.68935C55.3104 9.95865 55.7894 10.1236 56.2868 10.1706C56.7842 10.2176 57.2857 10.1451 57.7495 9.95936C59.7895 9.12936 62.5795 8.18936 64.8795 8.61936C73.2995 10.1994 79.9895 18.0094 82.3595 25.8694C82.9528 27.8427 84.2695 28.9794 86.3095 29.2794C97.1495 30.8694 104.56 35.6693 100.28 47.8894C99.7529 49.396 100.313 50.5227 101.96 51.2694L105.73 52.9794C105.827 53.0238 105.928 53.1076 106.024 53.2249C106.121 53.3423 106.211 53.4904 106.29 53.6594C110.523 62.7927 109.719 70.566 103.88 76.9794C98.0795 83.3494 90.1695 84.6094 82.7095 80.3093C82.5962 80.2435 82.4612 80.2244 82.3314 80.2559C82.2016 80.2875 82.0866 80.3673 82.0095 80.4794C80.6095 82.4794 79.3895 82.4794 77.3495 83.1894C67.4795 86.6694 60.9095 84.0594 52.2695 80.0094C52.1376 79.9445 51.9889 79.9222 51.8438 79.9455C51.6988 79.9688 51.5645 80.0365 51.4595 80.1394C49.4795 82.0594 47.9595 84.5793 45.3495 85.4293C38.9895 87.4993 30.2095 86.2994 26.2895 80.1694C25.3695 78.736 24.5562 78.7527 23.8495 80.2194C23.4028 81.1394 23.1395 82.1194 23.0595 83.1594C22.9462 84.5394 22.2628 85.2727 21.0095 85.3594C15.7162 85.746 10.9162 84.5694 6.60952 81.8294C0.959515 78.2494 5.35952 71.3694 8.89952 68.6294C9.16234 68.4308 9.48506 68.3411 9.79952 68.3794C11.2529 68.5794 12.5895 69.2594 13.8095 70.4194Z" fill="#F3DB5A"/>
<path d="M31.7988 45.699C31.1855 47.6323 31.8522 48.1323 33.7988 47.199C33.5588 48.519 34.0588 49.2524 35.2988 49.399C35.4445 49.4181 35.5982 49.4041 35.7511 49.3577C35.9039 49.3113 36.0528 49.2336 36.1889 49.129C40.3089 46.0557 43.9322 43.979 47.0589 42.899C49.3889 42.089 52.1789 43.099 54.9389 42.089C56.9255 41.3557 58.1422 40.8357 58.5889 40.529C65.8155 35.6357 72.5955 35.9223 78.9288 41.389C80.2155 42.4957 81.2655 43.2557 82.0788 43.669C82.3706 43.8181 82.6165 44.078 82.7789 44.409C83.4189 45.689 84.4389 46.409 85.8389 46.569C85.9666 46.5838 86.1027 46.5364 86.2245 46.4345C86.3464 46.3326 86.4467 46.1825 86.5088 46.009C87.3288 43.709 90.1388 41.759 89.4888 39.009C89.0788 37.279 87.2588 36.359 86.5388 34.429C85.8322 32.529 86.6622 31.859 89.0289 32.419C95.1489 33.889 100.509 36.099 98.7088 43.609C97.7488 47.569 97.4089 50.559 100.179 53.299C100.286 53.4032 100.418 53.4844 100.566 53.5377C100.714 53.591 100.875 53.6152 101.039 53.609C105.899 53.359 106.919 61.979 106.509 65.319C106.175 67.999 105.142 70.539 103.409 72.939C98.6988 79.449 91.4988 84.299 83.9088 77.959C83.7837 77.8527 83.6417 77.7743 83.493 77.7294C83.3443 77.6844 83.1927 77.6741 83.0488 77.699C80.3788 78.129 78.7989 79.949 76.5289 80.589C74.3022 81.2223 72.1788 81.8524 70.1588 82.479C68.5388 82.9857 66.9222 82.9624 65.3089 82.409C61.8889 81.2357 58.5288 79.9124 55.2288 78.439C47.2688 74.899 48.4289 82.379 43.0589 83.229C39.0889 83.859 33.7388 83.799 30.6488 80.789C28.6388 78.829 26.7689 75.579 23.4689 77.479C21.7189 78.489 21.4489 80.439 20.4989 82.239C20.4313 82.3658 20.3304 82.4748 20.205 82.5566C20.0796 82.6385 19.9334 82.6908 19.7789 82.709C14.8989 83.309 10.4888 82.0923 6.54884 79.059C6.44907 78.9813 6.3677 78.8791 6.31062 78.7598C6.25354 78.6404 6.22219 78.5069 6.21886 78.369C6.19886 76.569 8.98885 68.889 11.4888 71.599C11.5876 71.7073 11.7176 71.7792 11.8517 71.7997C11.9858 71.8202 12.1137 71.7877 12.2088 71.709L13.8089 70.419C16.8222 69.3857 17.2055 67.769 14.9588 65.569L15.9888 64.069C16.0249 64.0175 16.0491 63.9586 16.0601 63.8957C16.071 63.8328 16.0685 63.7673 16.0527 63.7029C16.0368 63.6386 16.008 63.5768 15.9678 63.5211C15.9276 63.4655 15.877 63.4172 15.8188 63.379C10.6388 60.079 7.59885 54.109 9.14885 47.999C10.4188 42.959 14.2888 39.799 11.2688 34.279C11.1919 34.1405 11.149 33.987 11.1438 33.832C11.1385 33.6769 11.1712 33.5249 11.2388 33.389C12.4088 31.049 14.5188 24.049 17.5688 22.999C17.7173 22.9481 17.8755 22.9389 18.0245 22.9726C18.1734 23.0063 18.3068 23.0814 18.4088 23.189C19.6688 24.599 18.2988 28.579 18.6588 30.769C18.6677 30.8268 18.6899 30.8817 18.7241 30.9303C18.7583 30.9788 18.8036 31.02 18.8573 31.051C18.9109 31.0821 18.9717 31.1024 19.0357 31.1107C19.0996 31.1189 19.1654 31.115 19.2288 31.099L21.0088 30.659C21.3022 32.9257 22.5088 33.8224 24.6288 33.349C24.759 33.3188 24.8782 33.2434 24.971 33.1328C25.0638 33.0222 25.1258 32.8815 25.1488 32.729L25.5889 29.939C27.5955 29.4123 28.1122 28.059 27.1388 25.879C26.9965 25.5747 26.9577 25.2466 27.0289 24.949C29.4589 14.429 32.8789 7.99902 44.8389 8.32902C51.1089 8.49902 55.0488 16.619 61.2388 11.559C61.5058 11.3378 61.8066 11.2049 62.0988 11.179C70.0188 10.539 77.1088 18.349 79.2288 25.089C79.2955 25.3023 79.4789 25.5757 79.7789 25.909C80.9522 27.2357 81.7855 28.7357 82.2789 30.409C82.5522 31.3224 82.2389 31.619 81.3389 31.299C74.3689 28.839 70.9088 25.999 62.9488 27.519C59.4588 28.179 56.2788 31.139 52.9488 32.779C50.5288 33.959 47.4889 33.759 44.7189 34.449C41.8089 35.179 38.9688 38.219 36.4788 38.569C32.2922 39.149 29.9422 41.5024 29.4288 45.629C29.4119 45.7787 29.448 45.9284 29.5298 46.0474C29.6116 46.1664 29.7329 46.2457 29.8689 46.269C30.5622 46.3957 31.2055 46.2057 31.7988 45.699Z" fill="#FCDC38"/>
<path d="M21.0115 30.659L19.2315 31.099C19.1681 31.115 19.1023 31.119 19.0383 31.1107C18.9743 31.1024 18.9135 31.0821 18.8599 31.051C18.8062 31.02 18.7609 30.9789 18.7267 30.9303C18.6926 30.8817 18.6703 30.8268 18.6615 30.769C18.3015 28.579 19.6715 24.599 18.4115 23.189C18.3095 23.0814 18.176 23.0063 18.0271 22.9726C17.8781 22.9389 17.72 22.9481 17.5715 22.999C14.5215 24.049 12.4115 31.049 11.2415 33.389C11.1738 33.5249 11.1412 33.6769 11.1464 33.832C11.1516 33.9871 11.1946 34.1405 11.2715 34.279C14.2915 39.799 10.4215 42.959 9.15149 47.999C7.60149 54.109 10.6415 60.079 15.8215 63.379C15.8796 63.4172 15.9303 63.4655 15.9704 63.5212C16.0106 63.5768 16.0395 63.6386 16.0553 63.703C16.0712 63.7673 16.0737 63.8329 16.0627 63.8957C16.0517 63.9586 16.0275 64.0176 15.9915 64.069L14.9615 65.569C6.31482 59.8091 3.99148 52.2157 7.99148 42.789C9.12148 40.129 10.6715 39.089 8.92148 35.849C8.76589 35.5698 8.70956 35.2354 8.76147 34.899C9.95481 26.5791 14.2315 20.4257 21.5915 16.439C21.7782 16.339 21.8481 16.4057 21.8015 16.639C20.9148 21.2857 20.6515 25.959 21.0115 30.659Z" fill="#F3DB5A"/>
<path d="M33.8024 47.1992C31.8558 48.1325 31.1891 47.6325 31.8024 45.6992C35.6224 40.2692 41.4625 37.4492 47.8425 35.9792C50.5091 35.3592 52.5458 34.7292 53.9524 34.0892C57.7824 32.3292 62.1624 29.4392 66.3624 29.4292C73.3758 29.4225 79.4725 31.8792 84.6525 36.7992C85.8825 37.9792 88.0824 42.5292 85.2624 42.9592C85.1197 42.9782 84.9685 42.9583 84.8209 42.901C84.6734 42.8437 84.5335 42.7506 84.4124 42.6292C79.4724 37.7392 70.7525 32.5392 63.5625 34.9492C59.3825 36.3392 56.5924 39.8192 50.5724 40.0792C44.9724 40.3292 38.4824 44.2992 33.8024 47.1992Z" fill="#E9C408"/>
</svg>
