<svg width="145" height="141" viewBox="0 0 145 141" fill="none" xmlns="http://www.w3.org/2000/svg">
<path d="M1.18106 126.793C0.867723 129.386 0.961085 131.89 1.46109 134.303C3.30109 143.153 16.6211 139.423 22.8111 137.223" stroke="#A8B0C1" stroke-width="2"/>
<path d="M22.8097 137.223C44.1997 128.803 62.9697 117.773 82.3097 105.563C90.083 100.657 95.4497 97.0568 98.4097 94.7634C115.303 81.7101 128.43 65.5601 137.79 46.3134C143.47 34.6268 145.01 22.2268 142.41 9.11342C140.77 0.853419 133.26 0.0234149 126.33 1.73341C103.31 7.40341 81.1797 20.2534 64.0297 36.1534C54.9297 44.6001 49.4664 49.6368 47.6397 51.2634C38.7464 59.1768 30.3597 69.3734 22.4797 81.8534C12.7463 97.2667 5.64635 112.247 1.17969 126.793" stroke="#989EB4" stroke-width="2"/>
<path d="M22.8097 137.223C15.3597 138.423 10.1597 140.323 4.6897 133.433C4.49408 133.185 4.21982 132.994 3.89972 132.883C-0.760281 131.293 4.32969 128.343 1.17969 126.793" stroke="#415077" stroke-width="2"/>
<path d="M28.1401 107.264C27.8534 103.824 26.8734 100.597 25.2001 97.584C25.1201 97.4454 25.006 97.3289 24.868 97.2451C24.7301 97.1613 24.5726 97.1127 24.4101 97.1039C20.7701 96.8939 23.0201 108.224 23.5101 109.764C24.0834 111.551 23.6567 113.054 22.2301 114.274C21.2501 115.104 11.2201 124.664 13.7801 125.144C13.9402 125.173 14.1095 125.163 14.2768 125.117C14.444 125.07 14.6054 124.987 14.7501 124.874L26.3701 115.754C26.5134 115.639 26.676 115.563 26.8355 115.536C26.995 115.51 27.1434 115.533 27.2601 115.604C30.6301 117.624 32.2301 120.124 37.0801 121.874C37.2789 121.946 37.4758 121.984 37.6402 121.982C37.8047 121.981 37.9277 121.939 37.9901 121.864L40.5701 118.934C40.618 118.877 40.6448 118.807 40.6484 118.729C40.6519 118.651 40.6322 118.568 40.5906 118.485C40.5491 118.402 40.4868 118.321 40.4087 118.25C40.3306 118.179 40.2387 118.119 40.1401 118.074C36.8134 116.587 33.8434 114.567 31.2301 112.014C31.1333 111.919 31.0561 111.806 31.003 111.683C30.9498 111.559 30.9219 111.426 30.921 111.294C30.9201 111.161 30.9461 111.03 30.9975 110.91C31.0489 110.79 31.1246 110.682 31.2201 110.594L50.2801 92.9039C50.3873 92.8019 50.531 92.7461 50.6816 92.7479C50.8322 92.7498 50.9784 92.8092 51.0901 92.9139C54.3835 96.0606 58.0168 98.7573 61.9901 101.004C62.1169 101.077 62.2574 101.116 62.3966 101.118C62.5358 101.12 62.6683 101.084 62.7801 101.014C66.2801 98.754 56.4801 91.8139 54.8401 90.3039C54.7852 90.2543 54.7386 90.1959 54.7036 90.1328C54.6686 90.0697 54.6461 90.0035 54.6375 89.9388C54.6289 89.874 54.6346 89.8123 54.654 89.7579C54.6735 89.7035 54.7062 89.6578 54.7501 89.6239L70.6601 76.7939C70.7528 76.7189 70.882 76.6927 71.0224 76.7204C71.1629 76.7481 71.3046 76.8278 71.4201 76.944C73.3601 78.824 79.7401 84.2839 82.5101 83.8739C87.2101 83.1639 76.4801 75.594 75.7901 75.014C75.7134 74.9485 75.6531 74.8662 75.6136 74.7734C75.5742 74.6805 75.5566 74.5795 75.5624 74.4781C75.5682 74.3768 75.5971 74.2777 75.647 74.1886C75.6969 74.0995 75.7663 74.0227 75.8501 73.964C83.9501 68.1506 91.6501 61.8506 98.9501 55.0639C99.0946 54.9281 99.2777 54.8393 99.4756 54.809C99.6735 54.7787 99.8771 54.8083 100.06 54.894C103.027 56.2806 106.113 57.2539 109.32 57.8139C117.11 59.1639 104.64 51.5539 104.47 51.4239C104.416 51.3852 104.371 51.3359 104.337 51.2796C104.302 51.2233 104.281 51.1614 104.273 51.0983C104.266 51.0352 104.272 50.9725 104.292 50.9147C104.312 50.8569 104.346 50.8054 104.39 50.764L117.32 38.444C117.494 38.2769 117.674 38.1431 117.847 38.0542C118.019 37.9654 118.178 37.9241 118.31 37.9339L128.82 38.5939C128.98 38.6033 129.136 38.5768 129.272 38.517C129.407 38.4572 129.517 38.3664 129.59 38.254C132.12 34.474 126.04 33.4739 123.62 33.2339C123.531 33.2255 123.446 33.194 123.373 33.1425C123.301 33.091 123.243 33.0213 123.205 32.9403C123.168 32.8593 123.152 32.77 123.16 32.6811C123.168 32.5923 123.199 32.507 123.25 32.4339C125.61 28.9339 134.92 16.5039 134.35 12.8739C134.057 11.0073 133.383 10.8773 132.33 12.4839C127.817 19.3506 122.967 25.9906 117.78 32.4039C117.213 33.1039 116.793 33.034 116.52 32.194C115.71 29.734 113.86 20.4239 109.66 22.6639C109.536 22.7312 109.438 22.8398 109.38 22.9733C109.322 23.1067 109.308 23.2579 109.34 23.4039C109.973 26.4239 110.653 29.4406 111.38 32.454C112.15 35.624 112.03 36.9839 109.84 39.2239C104.64 44.5439 99.1501 49.4973 93.3701 54.084C93.3102 54.1308 93.2405 54.1637 93.1664 54.1802C93.0923 54.1966 93.0157 54.1961 92.9424 54.1788C92.8691 54.1614 92.801 54.1276 92.7434 54.08C92.6859 54.0324 92.6403 53.9721 92.6101 53.9039C91.5801 51.6939 87.4801 42.3239 85.2901 41.9339C83.8434 41.6739 83.3534 42.2573 83.8201 43.6839L88.4701 57.9739C88.5499 58.2212 88.5497 58.4899 88.4695 58.745C88.3892 59.0001 88.2326 59.2297 88.0201 59.4039C81.8935 64.4639 75.4601 69.104 68.7201 73.324C68.6731 73.3538 68.6199 73.3736 68.5652 73.3816C68.5105 73.3895 68.456 73.3854 68.4066 73.3696C68.3571 73.3538 68.3142 73.3267 68.2817 73.2908C68.2492 73.2549 68.228 73.2114 68.2201 73.1639C67.3067 68.4373 65.4368 64.1106 62.6101 60.1839C60.6101 57.4039 59.6101 59.494 60.2601 61.774C61.5201 66.174 62.7701 70.5873 64.0101 75.014C64.0963 75.3266 64.0844 75.6616 63.9761 75.9778C63.8677 76.294 63.6675 76.5776 63.4001 76.7939L51.4701 86.5939C51.4147 86.6388 51.3484 86.6688 51.2751 86.6821C51.2019 86.6953 51.1232 86.6915 51.0439 86.671C50.9645 86.6505 50.8861 86.6136 50.8133 86.5625C50.7405 86.5115 50.6747 86.4473 50.6201 86.3739L44.1801 77.574C44.0862 77.4446 43.9543 77.3444 43.799 77.2843C43.6436 77.2243 43.4709 77.2069 43.3001 77.2339C39.0701 77.8539 45.4101 86.794 46.8901 89.084C46.9672 89.2045 47.0022 89.3468 46.9895 89.4881C46.9768 89.6295 46.9172 89.7618 46.8201 89.8639C41.1134 96.0306 35.0901 101.841 28.7501 107.294C28.3701 107.627 28.1668 107.617 28.1401 107.264Z" stroke="#212A51" stroke-width="2"/>
<path d="M22.8136 137.223C15.3636 138.423 10.1636 140.323 4.6936 133.433C4.49799 133.185 4.22372 132.994 3.90363 132.883C-0.756374 131.293 4.33359 128.343 1.18359 126.793C5.65026 112.247 12.7502 97.2667 22.4836 81.8534C30.3636 69.3734 38.7503 59.1768 47.6436 51.2634C49.4703 49.6368 54.9336 44.6001 64.0336 36.1534C81.1836 20.2534 103.314 7.40341 126.334 1.73341C133.264 0.0234149 140.774 0.853419 142.414 9.11342C145.014 22.2268 143.474 34.6268 137.794 46.3134C128.434 65.5601 115.307 81.7101 98.4136 94.7634C95.4536 97.0568 90.0869 100.657 82.3136 105.563C62.9736 117.773 44.2036 128.803 22.8136 137.223ZM28.1436 107.263C27.8569 103.823 26.8769 100.597 25.2036 97.5835C25.1236 97.4449 25.0095 97.3284 24.8715 97.2446C24.7336 97.1608 24.5761 97.1122 24.4136 97.1034C20.7736 96.8934 23.0236 108.223 23.5136 109.763C24.0869 111.55 23.6602 113.053 22.2336 114.273C21.2536 115.103 11.2236 124.663 13.7836 125.143C13.9437 125.172 14.113 125.163 14.2803 125.116C14.4475 125.07 14.6089 124.987 14.7536 124.873L26.3736 115.753C26.5169 115.639 26.6795 115.563 26.839 115.536C26.9985 115.509 27.1469 115.533 27.2636 115.603C30.6336 117.623 32.2336 120.123 37.0836 121.873C37.2824 121.946 37.4793 121.984 37.6437 121.982C37.8082 121.98 37.9312 121.938 37.9936 121.863L40.5736 118.933C40.6215 118.877 40.6483 118.807 40.6519 118.729C40.6554 118.651 40.6357 118.567 40.5941 118.484C40.5526 118.401 40.4903 118.321 40.4122 118.25C40.3341 118.178 40.2422 118.118 40.1436 118.073C36.8169 116.587 33.8469 114.567 31.2336 112.013C31.1369 111.919 31.0596 111.806 31.0065 111.682C30.9533 111.558 30.9254 111.426 30.9245 111.293C30.9236 111.16 30.9496 111.03 31.001 110.91C31.0524 110.789 31.1281 110.682 31.2236 110.593L50.2836 92.9034C50.3908 92.8013 50.5345 92.7455 50.6851 92.7474C50.8357 92.7493 50.9819 92.8087 51.0936 92.9134C54.387 96.0601 58.0203 98.7568 61.9936 101.003C62.1204 101.076 62.2609 101.116 62.4001 101.117C62.5393 101.119 62.6718 101.083 62.7836 101.013C66.2836 98.7534 56.4836 91.8134 54.8436 90.3034C54.7887 90.2537 54.7421 90.1954 54.7071 90.1323C54.6721 90.0692 54.6496 90.003 54.641 89.9382C54.6324 89.8735 54.6381 89.8118 54.6575 89.7574C54.677 89.703 54.7097 89.6573 54.7536 89.6234L70.6636 76.7934C70.7563 76.7183 70.8855 76.6921 71.0259 76.7199C71.1664 76.7476 71.3081 76.8273 71.4236 76.9434C73.3636 78.8234 79.7436 84.2834 82.5136 83.8734C87.2136 83.1634 76.4836 75.5934 75.7936 75.0134C75.7169 74.948 75.6566 74.8657 75.6171 74.7728C75.5777 74.68 75.5601 74.579 75.5659 74.4776C75.5717 74.3763 75.6006 74.2772 75.6505 74.1881C75.7004 74.0989 75.7698 74.0221 75.8536 73.9635C83.9536 68.1501 91.6536 61.8501 98.9536 55.0634C99.0981 54.9276 99.2812 54.8388 99.4791 54.8085C99.677 54.7782 99.8806 54.8078 100.064 54.8934C103.03 56.2801 106.117 57.2534 109.324 57.8134C117.114 59.1634 104.644 51.5534 104.474 51.4234C104.42 51.3847 104.374 51.3354 104.34 51.2791C104.306 51.2228 104.284 51.1609 104.277 51.0978C104.269 51.0347 104.276 50.9719 104.296 50.9141C104.316 50.8563 104.349 50.8049 104.394 50.7634L117.324 38.4434C117.497 38.2763 117.678 38.1426 117.85 38.0537C118.023 37.9649 118.182 37.9236 118.314 37.9334L128.824 38.5934C128.984 38.6028 129.14 38.5763 129.275 38.5165C129.411 38.4567 129.521 38.3659 129.594 38.2534C132.124 34.4734 126.044 33.4734 123.624 33.2334C123.535 33.225 123.45 33.1935 123.377 33.142C123.304 33.0905 123.246 33.0207 123.209 32.9398C123.171 32.8588 123.156 32.7695 123.164 32.6806C123.171 32.5918 123.202 32.5065 123.254 32.4334C125.614 28.9334 134.924 16.5034 134.354 12.8734C134.06 11.0068 133.387 10.8767 132.334 12.4834C127.82 19.3501 122.97 25.9901 117.784 32.4034C117.217 33.1034 116.797 33.0334 116.524 32.1934C115.714 29.7334 113.864 20.4234 109.664 22.6634C109.539 22.7307 109.441 22.8393 109.383 22.9727C109.326 23.1062 109.312 23.2573 109.344 23.4034C109.977 26.4234 110.657 29.4401 111.384 32.4534C112.154 35.6234 112.034 36.9834 109.844 39.2234C104.644 44.5434 99.1536 49.4968 93.3736 54.0835C93.3137 54.1303 93.244 54.1632 93.1699 54.1796C93.0958 54.1961 93.0192 54.1956 92.9459 54.1782C92.8726 54.1609 92.8045 54.1271 92.7469 54.0795C92.6894 54.0319 92.6438 53.9716 92.6136 53.9034C91.5836 51.6934 87.4836 42.3234 85.2936 41.9334C83.8469 41.6734 83.3569 42.2568 83.8236 43.6834L88.4736 57.9734C88.5534 58.2207 88.5532 58.4894 88.473 58.7445C88.3927 58.9995 88.2361 59.2292 88.0236 59.4034C81.897 64.4634 75.4636 69.1034 68.7236 73.3234C68.6766 73.3533 68.6234 73.3731 68.5687 73.3811C68.514 73.389 68.4595 73.3849 68.4101 73.3691C68.3606 73.3533 68.3177 73.3262 68.2852 73.2903C68.2527 73.2544 68.2315 73.2108 68.2236 73.1634C67.3102 68.4367 65.4403 64.1101 62.6136 60.1834C60.6136 57.4034 59.6136 59.4935 60.2636 61.7735C61.5236 66.1735 62.7736 70.5868 64.0136 75.0134C64.0998 75.3261 64.0879 75.661 63.9796 75.9772C63.8712 76.2935 63.671 76.5771 63.4036 76.7934L51.4736 86.5934C51.4182 86.6383 51.3519 86.6683 51.2786 86.6815C51.2054 86.6948 51.1267 86.691 51.0474 86.6705C50.968 86.6499 50.8896 86.6131 50.8168 86.562C50.744 86.511 50.6782 86.4468 50.6236 86.3734L44.1836 77.5734C44.0897 77.4441 43.9578 77.3438 43.8025 77.2838C43.6471 77.2238 43.4744 77.2064 43.3036 77.2334C39.0736 77.8534 45.4136 86.7934 46.8936 89.0835C46.9707 89.2039 47.0057 89.3462 46.993 89.4876C46.9803 89.629 46.9207 89.7613 46.8236 89.8634C41.1169 96.0301 35.0936 101.84 28.7536 107.293C28.3736 107.627 28.1703 107.617 28.1436 107.263Z" fill="#313E6A"/>
<path d="M1.18106 126.793C4.33106 128.343 -0.758912 131.293 3.90109 132.883C4.22118 132.994 4.49545 133.185 4.69107 133.433C10.1611 140.323 15.3611 138.423 22.8111 137.223C16.6211 139.423 3.30109 143.153 1.46109 134.303C0.961085 131.89 0.867723 129.386 1.18106 126.793Z" fill="#516184"/>
<path d="M28.754 107.294C35.094 101.841 41.1173 96.0306 46.824 89.8639C46.9211 89.7618 46.9807 89.6295 46.9934 89.4881C47.0061 89.3468 46.9711 89.2045 46.894 89.084C45.414 86.794 39.074 77.8539 43.304 77.2339C43.4748 77.2069 43.6476 77.2243 43.8029 77.2843C43.9582 77.3444 44.0901 77.4446 44.184 77.574L50.624 86.3739C50.6786 86.4473 50.7444 86.5115 50.8172 86.5625C50.89 86.6136 50.9684 86.6505 51.0478 86.671C51.1271 86.6915 51.2058 86.6953 51.279 86.6821C51.3523 86.6688 51.4186 86.6388 51.474 86.5939L63.404 76.7939C63.6714 76.5776 63.8716 76.294 63.98 75.9778C64.0883 75.6616 64.1002 75.3266 64.014 75.014C62.774 70.5873 61.524 66.174 60.264 61.774C59.614 59.494 60.614 57.4039 62.614 60.1839C65.4407 64.1106 67.3106 68.4373 68.224 73.1639C68.2319 73.2114 68.2531 73.2549 68.2856 73.2908C68.3182 73.3267 68.361 73.3538 68.4105 73.3696C68.46 73.3854 68.5144 73.3895 68.5691 73.3816C68.6238 73.3736 68.677 73.3538 68.724 73.324C75.464 69.104 81.8974 64.4639 88.024 59.4039C88.2365 59.2297 88.3931 59.0001 88.4734 58.745C88.5536 58.4899 88.5538 58.2212 88.474 57.9739L83.824 43.6839C83.3573 42.2573 83.8473 41.6739 85.294 41.9339C87.484 42.3239 91.584 51.6939 92.614 53.9039C92.6442 53.9721 92.6898 54.0324 92.7474 54.08C92.8049 54.1276 92.873 54.1614 92.9463 54.1788C93.0196 54.1961 93.0962 54.1966 93.1703 54.1802C93.2444 54.1637 93.3141 54.1308 93.374 54.084C99.154 49.4973 104.644 44.5439 109.844 39.2239C112.034 36.9839 112.154 35.624 111.384 32.454C110.657 29.4406 109.977 26.4239 109.344 23.4039C109.312 23.2579 109.326 23.1067 109.384 22.9733C109.442 22.8398 109.54 22.7312 109.664 22.6639C113.864 20.4239 115.714 29.734 116.524 32.194C116.797 33.034 117.217 33.1039 117.784 32.4039C122.971 25.9906 127.821 19.3506 132.334 12.4839C133.387 10.8773 134.061 11.0073 134.354 12.8739C134.924 16.5039 125.614 28.9339 123.254 32.4339C123.203 32.507 123.172 32.5923 123.164 32.6811C123.156 32.77 123.172 32.8593 123.209 32.9403C123.247 33.0213 123.305 33.091 123.377 33.1425C123.45 33.194 123.535 33.2255 123.624 33.2339C126.044 33.4739 132.124 34.474 129.594 38.254C129.521 38.3664 129.411 38.4572 129.276 38.517C129.14 38.5768 128.984 38.6033 128.824 38.5939L118.314 37.9339C118.182 37.9241 118.023 37.9654 117.851 38.0542C117.678 38.1431 117.497 38.2769 117.324 38.444L104.394 50.764C104.35 50.8054 104.316 50.8568 104.296 50.9147C104.276 50.9725 104.269 51.0352 104.277 51.0983C104.285 51.1614 104.306 51.2233 104.34 51.2796C104.374 51.3359 104.42 51.3852 104.474 51.4239C104.644 51.5539 117.114 59.1639 109.324 57.8139C106.117 57.2539 103.031 56.2806 100.064 54.894C99.881 54.8083 99.6774 54.7787 99.4795 54.809C99.2816 54.8393 99.0985 54.9281 98.954 55.0639C91.654 61.8506 83.954 68.1506 75.854 73.964C75.7702 74.0227 75.7008 74.0995 75.6509 74.1886C75.6011 74.2777 75.5721 74.3768 75.5663 74.4781C75.5605 74.5795 75.5781 74.6805 75.6175 74.7734C75.657 74.8662 75.7173 74.9485 75.794 75.014C76.484 75.594 87.214 83.1639 82.514 83.8739C79.744 84.284 73.364 78.824 71.424 76.944C71.3085 76.8278 71.1668 76.7481 71.0263 76.7204C70.8859 76.6927 70.7567 76.7189 70.664 76.7939L54.754 89.6239C54.7102 89.6578 54.6774 89.7036 54.6579 89.7579C54.6385 89.8123 54.6328 89.874 54.6414 89.9388C54.65 90.0035 54.6725 90.0697 54.7075 90.1328C54.7425 90.1959 54.7891 90.2543 54.844 90.3039C56.484 91.8139 66.284 98.754 62.784 101.014C62.6722 101.084 62.5397 101.12 62.4005 101.118C62.2613 101.116 62.1208 101.077 61.994 101.004C58.0207 98.7573 54.3874 96.0606 51.094 92.9139C50.9823 92.8092 50.8361 92.7498 50.6855 92.7479C50.5349 92.746 50.3913 92.8019 50.284 92.9039L31.224 110.594C31.1285 110.682 31.0529 110.79 31.0014 110.91C30.95 111.03 30.924 111.161 30.9249 111.294C30.9258 111.426 30.9537 111.559 31.0069 111.683C31.06 111.806 31.1373 111.919 31.234 112.014C33.8473 114.567 36.8174 116.587 40.144 118.074C40.2426 118.119 40.3345 118.179 40.4126 118.25C40.4907 118.321 40.553 118.402 40.5945 118.485C40.6361 118.568 40.6558 118.651 40.6523 118.729C40.6487 118.807 40.6219 118.877 40.574 118.934L37.994 121.864C37.9316 121.939 37.8086 121.981 37.6441 121.982C37.4797 121.984 37.2828 121.946 37.084 121.874C32.234 120.124 30.634 117.624 27.264 115.604C27.1473 115.533 26.9989 115.51 26.8394 115.536C26.6799 115.563 26.5173 115.639 26.374 115.754L14.754 124.874C14.6093 124.987 14.4479 125.07 14.2807 125.117C14.1134 125.163 13.9441 125.173 13.784 125.144C11.224 124.664 21.254 115.104 22.234 114.274C23.6607 113.054 24.0873 111.551 23.514 109.764C23.024 108.224 20.774 96.8939 24.414 97.1039C24.5765 97.1127 24.734 97.1613 24.8719 97.2451C25.0099 97.3289 25.124 97.4454 25.204 97.584C26.8773 100.597 27.8574 103.824 28.144 107.264C28.1707 107.617 28.374 107.627 28.754 107.294Z" fill="#101638"/>
</svg>
