<svg width="147" height="366" viewBox="0 0 147 366" fill="none" xmlns="http://www.w3.org/2000/svg">
<path d="M82.5391 297.276C83.9391 296.33 84.6624 294.996 84.7091 293.276" stroke="#FAE9CD" stroke-width="2"/>
<path d="M84.7109 293.276C86.9809 288.376 88.9609 282.786 90.8509 278.306C95.9242 266.3 100.268 254.02 103.881 241.466" stroke="#FDD886" stroke-width="2"/>
<path d="M103.883 241.466C107.776 233.713 110.483 225.58 112.003 217.066" stroke="#F8EED8" stroke-width="2"/>
<path d="M112.001 217.066C113.631 212.346 114.691 207.616 116.261 202.756C117.261 199.689 118.178 196.279 119.011 192.526C125.358 164.039 130.881 137.273 135.581 112.226C137.471 102.166 139.151 89.466 140.511 81.276C141.551 74.936 142.131 67.826 142.791 62.876C144.478 50.236 145.424 37.536 145.631 24.776C145.721 19.296 144.161 5.84598 140.391 1.65598C139.484 0.655977 138.831 0.79931 138.431 2.08598C133.761 17.126 129.361 31.586 123.721 46.636C110.591 81.686 101.051 118.256 83.901 151.626C75.271 168.436 61.9709 184.076 41.3209 182.956C36.9309 182.716 30.6209 180.786 25.5009 181.526C0.390944 185.166 0.310922 216.056 1.29092 234.536C1.61092 240.543 2.72763 245.679 4.64096 249.946C5.44096 251.726 5.38095 253.896 6.07095 255.456C12.8643 270.909 18.1843 282.009 22.031 288.756C25.2376 294.369 27.0776 298.289 27.5509 300.516C30.7709 315.706 24.3509 324.886 15.3109 339.606C5.62094 355.386 20.071 369.776 35.951 361.716C61.371 348.836 72.5909 322.966 82.5409 297.276" stroke="#FDD886" stroke-width="2"/>
<path d="M111.999 217.066C110.999 218.573 110.259 220.183 109.779 221.896C108.609 226.086 107.569 229.066 106.449 232.656C105.729 234.986 103.769 237.966 103.879 241.466" stroke="#F6C75F" stroke-width="2"/>
<path d="M84.7091 293.276L82.5391 297.276" stroke="#F8C254" stroke-width="2"/>
<path d="M75.0106 206.356C72.0973 208.336 71.2739 211.143 72.5406 214.776" stroke="#93680D" stroke-width="2"/>
<path d="M72.54 214.776L71.75 215.736" stroke="#F4B221" stroke-width="2"/>
<path d="M71.7491 215.736C55.9091 213.196 40.3691 212.076 23.0391 208.526" stroke="#FDD886" stroke-width="2"/>
<path d="M20.2096 210.776C18.503 210.936 17.5963 211.596 17.4896 212.756C16.8596 220.036 16.8596 231.116 18.2696 239.246C21.1096 255.676 27.7596 266.336 44.1496 272.166C52.7896 275.236 60.9696 273.606 68.7896 269.336C75.9796 265.406 82.4396 260.096 86.0796 253.356C90.1896 245.736 95.3496 237.936 96.3396 229.116C97.0296 223.016 98.9596 208.896 92.7996 205.056C91.0729 203.976 89.6929 204.326 88.6596 206.106C87.2729 208.499 86.5929 211.059 86.6196 213.786C86.6195 213.917 86.5852 214.049 86.5194 214.174C86.4536 214.299 86.3579 214.412 86.2396 214.506L84.8296 215.616C84.6607 215.751 84.4881 215.858 84.3407 215.919C84.1934 215.981 84.08 215.994 84.0196 215.956C82.9796 215.343 81.8296 215.096 80.5696 215.216C79.2296 215.349 78.5329 214.536 78.4796 212.776L78.3296 207.016C78.3238 206.879 78.2585 206.75 78.1471 206.653C78.0358 206.557 77.8866 206.501 77.7296 206.496L75.0096 206.356" stroke="#F4B221" stroke-width="2"/>
<path d="M20.2095 210.776C18.2895 223.556 19.2162 236.093 22.9895 248.386C26.1195 258.606 32.7495 263.976 42.3095 268.746C57.6395 276.386 75.5995 264.226 83.7495 251.346C91.9395 238.376 95.4895 225.476 93.1695 209.846C93.0463 209.035 92.6641 208.284 92.0795 207.706C89.8695 205.526 87.5795 215.146 86.9595 216.526" stroke="#846A37" stroke-width="2"/>
<path d="M86.96 216.526C81.8734 216.626 76.8033 216.363 71.75 215.736" stroke="#F6D99A" stroke-width="2"/>
<path d="M72.5391 214.776C73.8057 215.529 74.9891 215.546 76.0891 214.826C76.3526 214.659 76.5491 214.38 76.6391 214.046C77.4058 211.193 76.8624 208.629 75.0091 206.356" stroke="#8B6A21" stroke-width="2"/>
<path d="M23.0391 208.526C24.2491 213.596 26.2391 242.706 37.2191 234.586C39.4191 232.966 40.9691 229.376 42.5991 226.836C43.8191 224.93 44.7958 225.003 45.5291 227.056C47.0991 231.456 50.0291 244.246 55.8891 243.816C61.9491 243.356 63.3491 230.626 64.3891 226.366C64.7891 224.726 65.3657 224.663 66.1191 226.176C67.5491 229.076 68.9191 233.356 71.4991 234.956C78.4291 239.246 85.5891 221.776 86.9591 216.526" stroke="#8E909C" stroke-width="2"/>
<path d="M25.9112 245.076C24.5412 247.426 30.0612 256.966 32.0712 259.126C32.3046 259.373 32.4112 259.33 32.3912 258.996C32.1012 254.866 28.3212 248.976 26.6912 245.126C26.4646 244.6 26.2045 244.583 25.9112 245.076Z" stroke="#2F3248" stroke-width="2"/>
<path d="M37.959 246.836C38.1657 247.989 38.929 248.366 40.249 247.966C40.3037 247.949 40.3544 247.921 40.3982 247.884C40.442 247.848 40.478 247.803 40.5041 247.752C40.5302 247.702 40.5459 247.647 40.5501 247.591C40.5544 247.535 40.5472 247.479 40.529 247.426C40.089 246.126 39.4523 245.643 38.619 245.976C38.4076 246.061 38.2268 246.192 38.1068 246.349C37.9867 246.505 37.9346 246.677 37.959 246.836Z" stroke="#40455D" stroke-width="2"/>
<path d="M45.2502 259.016L41.0102 257.996C40.9535 257.983 40.8953 257.988 40.8407 258.011C40.7862 258.034 40.737 258.075 40.6974 258.129C40.6579 258.184 40.6293 258.25 40.614 258.323C40.5988 258.395 40.5975 258.472 40.6102 258.546C41.8102 266.006 45.7302 260.976 48.6502 259.726C49.9969 259.146 51.3302 258.543 52.6502 257.916C53.1402 257.686 53.7602 256.696 52.7402 256.756C51.3535 256.836 49.1969 257.583 46.2702 258.996C46.1531 259.05 46.0026 259.079 45.8275 259.083C45.6525 259.086 45.4563 259.063 45.2502 259.016Z" stroke="#212841" stroke-width="2"/>
<path d="M61.0158 260.654C60.8974 260.414 60.109 260.515 58.8239 260.937C57.5389 261.358 55.8625 262.064 54.1635 262.9C53.3222 263.314 52.5007 263.748 51.7458 264.176C50.9909 264.604 50.3175 265.018 49.764 265.395C49.2106 265.772 48.7878 266.104 48.52 266.372C48.2521 266.64 48.1444 266.84 48.203 266.959C48.3214 267.199 49.1099 267.097 50.3949 266.676C51.6799 266.255 53.3563 265.549 55.0553 264.713C55.8966 264.299 56.7182 263.865 57.473 263.437C58.2279 263.009 58.9013 262.595 59.4548 262.218C60.0083 261.841 60.431 261.509 60.6988 261.241C60.9666 260.972 61.0744 260.773 61.0158 260.654Z" stroke="#2A2C41" stroke-width="2"/>
<path d="M112.001 217.066C111.001 218.573 110.261 220.183 109.781 221.896C108.611 226.086 107.571 229.066 106.451 232.656C105.731 234.986 103.771 237.966 103.881 241.466C100.268 254.02 95.9243 266.3 90.8509 278.306C88.9609 282.786 86.981 288.376 84.711 293.276L82.5409 297.276C72.5909 322.966 61.371 348.836 35.951 361.716C20.071 369.776 5.62094 355.386 15.3109 339.606C24.3509 324.886 30.7709 315.706 27.5509 300.516C27.0776 298.29 25.2376 294.37 22.031 288.756C18.1843 282.01 12.8643 270.91 6.07095 255.456C5.38095 253.896 5.44096 251.726 4.64096 249.946C2.72763 245.68 1.61092 240.543 1.29092 234.536C0.310922 216.056 0.390944 185.166 25.5009 181.526C30.6209 180.786 36.931 182.716 41.3209 182.956C61.9709 184.076 75.271 168.436 83.901 151.626C101.051 118.256 110.591 81.6865 123.721 46.6365C129.361 31.5865 133.761 17.1265 138.431 2.08647C138.831 0.799798 139.484 0.656465 140.391 1.65646C144.161 5.84647 145.721 19.2965 145.631 24.7765C145.424 37.5365 144.478 50.2365 142.791 62.8765C142.131 67.8265 141.551 74.9365 140.511 81.2765C139.151 89.4665 137.471 102.166 135.581 112.226C130.881 137.273 125.358 164.04 119.011 192.526C118.178 196.28 117.261 199.69 116.261 202.756C114.691 207.616 113.631 212.346 112.001 217.066ZM75.011 206.356C72.0976 208.336 71.2743 211.143 72.5409 214.776L71.7509 215.736C55.9109 213.196 40.3709 212.076 23.0409 208.526C21.3876 208.18 20.4443 208.93 20.211 210.776C18.5043 210.936 17.5976 211.596 17.4909 212.756C16.8609 220.036 16.861 231.116 18.271 239.246C21.111 255.676 27.761 266.336 44.151 272.166C52.791 275.236 60.9709 273.606 68.7909 269.336C75.9809 265.406 82.441 260.096 86.081 253.356C90.191 245.736 95.351 237.936 96.341 229.116C97.031 223.016 98.9609 208.896 92.8009 205.056C91.0743 203.976 89.6943 204.326 88.6609 206.106C87.2743 208.5 86.5943 211.06 86.6209 213.786C86.6208 213.917 86.5866 214.05 86.5207 214.174C86.4549 214.299 86.3592 214.413 86.2409 214.506L84.831 215.616C84.662 215.751 84.4895 215.858 84.3421 215.92C84.1947 215.982 84.0814 215.995 84.021 215.956C82.981 215.343 81.831 215.096 80.571 215.216C79.231 215.35 78.5343 214.536 78.4809 212.776L78.331 207.016C78.3251 206.88 78.2598 206.75 78.1485 206.654C78.0371 206.557 77.8879 206.501 77.7309 206.496L75.011 206.356Z" fill="#FBB00D"/>
<path d="M20.2096 210.777C18.2896 223.557 19.2163 236.093 22.9896 248.387C26.1196 258.607 32.7496 263.977 42.3096 268.747C57.6396 276.387 75.5996 264.227 83.7496 251.347C91.9396 238.377 95.4896 225.477 93.1696 209.847C93.0464 209.035 92.6642 208.285 92.0796 207.707C89.8696 205.527 87.5796 215.147 86.9596 216.527C81.873 216.627 76.803 216.363 71.7496 215.737L72.5396 214.777C73.8063 215.53 74.9896 215.547 76.0896 214.827C76.3532 214.66 76.5497 214.381 76.6396 214.047C77.4063 211.193 76.863 208.63 75.0096 206.357L77.7296 206.497C77.8866 206.501 78.0358 206.557 78.1471 206.654C78.2585 206.75 78.3237 206.88 78.3296 207.017L78.4796 212.777C78.5329 214.537 79.2296 215.35 80.5696 215.217C81.8296 215.097 82.9796 215.343 84.0196 215.957C84.08 215.995 84.1934 215.982 84.3407 215.92C84.4881 215.858 84.6607 215.751 84.8296 215.617L86.2396 214.507C86.3579 214.413 86.4536 214.299 86.5194 214.175C86.5852 214.05 86.6195 213.917 86.6196 213.787C86.5929 211.06 87.2729 208.5 88.6596 206.107C89.6929 204.327 91.0729 203.977 92.7996 205.057C98.9596 208.897 97.0296 223.017 96.3396 229.117C95.3496 237.937 90.1896 245.737 86.0796 253.357C82.4396 260.097 75.9796 265.407 68.7896 269.337C60.9696 273.607 52.7896 275.237 44.1496 272.167C27.7596 266.337 21.1096 255.677 18.2696 239.247C16.8596 231.117 16.8596 220.037 17.4896 212.757C17.5963 211.597 18.503 210.937 20.2096 210.777Z" fill="#ECB335"/>
<path d="M75.0106 206.356C76.864 208.63 77.4073 211.193 76.6406 214.046C76.5507 214.381 76.3542 214.66 76.0906 214.826C74.9906 215.546 73.8073 215.53 72.5406 214.776C71.2739 211.143 72.0973 208.336 75.0106 206.356Z" fill="#2A200D"/>
<path d="M20.2095 210.776C20.4429 208.93 21.3862 208.18 23.0395 208.526C24.2495 213.596 26.2395 242.706 37.2195 234.586C39.4195 232.966 40.9695 229.376 42.5995 226.836C43.8195 224.93 44.7962 225.003 45.5295 227.056C47.0995 231.456 50.0295 244.246 55.8895 243.816C61.9495 243.356 63.3495 230.626 64.3895 226.366C64.7895 224.726 65.3662 224.663 66.1195 226.176C67.5495 229.076 68.9195 233.356 71.4995 234.956C78.4295 239.246 85.5895 221.776 86.9595 216.526C87.5795 215.146 89.8695 205.526 92.0795 207.706C92.6641 208.284 93.0463 209.035 93.1695 209.846C95.4895 225.476 91.9395 238.376 83.7495 251.346C75.5995 264.226 57.6395 276.386 42.3095 268.746C32.7495 263.976 26.1195 258.606 22.9895 248.386C19.2162 236.093 18.2895 223.556 20.2095 210.776ZM25.9095 245.076C24.5395 247.426 30.0595 256.966 32.0695 259.126C32.3028 259.373 32.4095 259.33 32.3895 258.996C32.0995 254.866 28.3195 248.976 26.6895 245.126C26.4628 244.6 26.2028 244.583 25.9095 245.076ZM37.9595 246.836C38.1662 247.99 38.9295 248.366 40.2495 247.966C40.3042 247.949 40.3549 247.921 40.3987 247.884C40.4426 247.848 40.4785 247.803 40.5046 247.753C40.5307 247.702 40.5464 247.648 40.5507 247.591C40.5549 247.535 40.5478 247.479 40.5295 247.426C40.0895 246.126 39.4528 245.643 38.6195 245.976C38.4081 246.061 38.2274 246.192 38.1073 246.349C37.9872 246.505 37.9351 246.677 37.9595 246.836ZM45.2495 259.016L41.0095 257.996C40.9528 257.983 40.8946 257.988 40.84 258.011C40.7855 258.035 40.7363 258.075 40.6967 258.13C40.6572 258.184 40.6286 258.25 40.6133 258.323C40.5981 258.396 40.5968 258.472 40.6095 258.546C41.8095 266.006 45.7295 260.976 48.6495 259.726C49.9962 259.146 51.3295 258.543 52.6495 257.916C53.1395 257.686 53.7595 256.696 52.7395 256.756C51.3528 256.836 49.1962 257.583 46.2695 258.996C46.1524 259.05 46.0019 259.08 45.8268 259.083C45.6518 259.086 45.4555 259.064 45.2495 259.016ZM61.0159 260.654C60.8975 260.414 60.1091 260.515 58.824 260.937C57.539 261.358 55.8626 262.064 54.1636 262.9C53.3223 263.314 52.5008 263.747 51.7459 264.175C50.991 264.603 50.3176 265.018 49.7642 265.395C49.2107 265.772 48.7879 266.104 48.5201 266.372C48.2522 266.64 48.1445 266.84 48.2031 266.959C48.3215 267.199 49.11 267.097 50.395 266.676C51.6801 266.255 53.3564 265.549 55.0554 264.712C55.8967 264.299 56.7183 263.865 57.4731 263.437C58.228 263.009 58.9014 262.595 59.4549 262.218C60.0084 261.841 60.4311 261.509 60.6989 261.241C60.9668 260.972 61.0745 260.773 61.0159 260.654Z" fill="#1C2038"/>
<path d="M23.0391 208.526C40.3691 212.076 55.9091 213.196 71.7491 215.736C76.8024 216.363 81.8724 216.626 86.9591 216.526C85.5891 221.776 78.4291 239.246 71.4991 234.956C68.9191 233.356 67.5491 229.076 66.1191 226.176C65.3657 224.663 64.7891 224.726 64.3891 226.366C63.3491 230.626 61.9491 243.356 55.8891 243.816C50.0291 244.246 47.0991 231.456 45.5291 227.056C44.7958 225.003 43.8191 224.93 42.5991 226.836C40.9691 229.376 39.4191 232.966 37.2191 234.586C26.2391 242.706 24.2491 213.596 23.0391 208.526Z" fill="white"/>
<path d="M111.999 217.066C110.479 225.58 107.773 233.713 103.879 241.466C103.769 237.966 105.729 234.986 106.449 232.656C107.569 229.066 108.609 226.086 109.779 221.896C110.259 220.183 110.999 218.573 111.999 217.066Z" fill="#F1DDB1"/>
<path d="M25.9112 245.076C26.2045 244.583 26.4646 244.6 26.6912 245.126C28.3212 248.976 32.1012 254.866 32.3912 258.996C32.4112 259.33 32.3046 259.373 32.0712 259.126C30.0612 256.966 24.5412 247.426 25.9112 245.076Z" fill="#414357"/>
<path d="M38.619 245.977C39.4523 245.643 40.089 246.127 40.529 247.427C40.5472 247.48 40.5544 247.536 40.5501 247.592C40.5459 247.648 40.5302 247.703 40.5041 247.753C40.478 247.803 40.442 247.848 40.3982 247.885C40.3544 247.921 40.3037 247.949 40.249 247.967C38.929 248.367 38.1657 247.99 37.959 246.837C37.9346 246.678 37.9867 246.506 38.1068 246.349C38.2268 246.193 38.4076 246.061 38.619 245.977Z" fill="#636A81"/>
<path d="M46.2702 258.997C49.1969 257.583 51.3535 256.837 52.7402 256.757C53.7602 256.697 53.1402 257.687 52.6502 257.917C51.3302 258.543 49.9969 259.147 48.6502 259.727C45.7302 260.977 41.8102 266.006 40.6102 258.546C40.5975 258.473 40.5988 258.396 40.614 258.323C40.6293 258.251 40.6579 258.184 40.6974 258.13C40.737 258.075 40.7862 258.035 40.8407 258.012C40.8953 257.988 40.9535 257.983 41.0102 257.997L45.2502 259.017C45.4563 259.064 45.6525 259.087 45.8275 259.083C46.0026 259.08 46.1531 259.05 46.2702 258.997Z" fill="#262F49"/>
<path d="M55.0561 264.713C58.5942 262.972 61.2629 261.155 61.0166 260.654C60.7703 260.154 57.7024 261.159 54.1642 262.9C50.6261 264.641 47.9575 266.458 48.2037 266.959C48.45 267.459 51.5179 266.454 55.0561 264.713Z" fill="#383749"/>
<path d="M84.7091 293.276C84.6624 294.996 83.9391 296.33 82.5391 297.276L84.7091 293.276Z" fill="#F4D39A"/>
</svg>
