<svg width="128" height="156" viewBox="0 0 128 156" fill="none" xmlns="http://www.w3.org/2000/svg">
<path d="M107.089 153.634C105.849 152.294 105.655 150.824 106.509 149.224C109.789 143.604 111.569 137.337 111.849 130.424C111.929 128.471 112.222 123.821 112.729 116.474C112.741 116.273 112.729 116.085 112.692 115.923C112.656 115.76 112.597 115.628 112.519 115.534L111.129 113.924C112.422 98.7572 113.712 83.5872 114.999 68.4139C116.099 55.4739 116.838 42.4839 114.948 29.5639C114.558 26.8739 112.909 25.7639 110.619 24.8439C98.5985 20.0239 86.9685 17.6739 73.0685 15.8139C52.4018 13.0406 31.6552 11.1906 10.8285 10.2639C10.5685 10.2506 10.2552 10.1639 9.88851 10.0039C9.31518 9.75726 8.45851 9.53722 7.31851 9.34389C5.81851 8.51056 5.70518 6.86723 6.97851 4.4139C7.79851 2.8339 9.03184 1.70723 10.6785 1.03389C12.7718 0.187226 15.3285 -0.139421 18.3485 0.053912C33.5752 1.04058 48.7652 2.44059 63.9185 4.25392C83.1885 6.55392 103.239 10.5439 119.029 19.9539C129.389 26.1239 127.859 38.7139 127.489 50.7439C126.915 69.4372 126.318 88.1306 125.698 106.824C125.218 121.304 124.198 133.034 121.858 146.014C120.479 153.624 113.849 155.324 107.089 153.634Z" fill="#151E30"/>
<path d="M7.32063 9.34375C8.46063 9.53708 9.3173 9.75712 9.89063 10.0038C10.2573 10.1638 10.5706 10.2505 10.8306 10.2638C31.6573 11.1905 52.404 13.0404 73.0706 15.8138C86.9706 17.6738 98.6006 20.0238 110.621 24.8438C112.911 25.7638 114.561 26.8738 114.951 29.5638C116.841 42.4838 116.101 55.4738 115.001 68.4138C113.714 83.5871 112.424 98.7571 111.131 113.924C110.071 125.697 108.531 137.464 106.511 149.224C105.657 150.824 105.851 152.294 107.091 153.634C78.3006 156.164 49.2606 158.034 21.2706 151.664C6.20062 148.234 0.630631 141.964 0.230631 126.414C-0.789369 87.1871 1.57396 48.1637 7.32063 9.34375ZM20.5206 41.2438C21.094 41.7971 21.784 42.1138 22.5906 42.1938C22.6516 42.1994 22.7127 42.1816 22.7701 42.1415C22.8276 42.1014 22.8801 42.0399 22.9243 41.9609C22.9685 41.8819 23.0034 41.7871 23.0269 41.6826C23.0504 41.578 23.0619 41.4661 23.0606 41.3538C22.8806 26.6138 41.3506 22.7738 52.1406 28.1838C61.4306 32.8538 59.4906 43.6938 52.1906 48.7438C51.2106 49.4238 48.9906 50.3538 49.9806 51.9238C50.8006 53.2104 51.884 53.5004 53.2306 52.7938C61.5506 48.4438 67.2606 36.1637 59.2506 28.5237C50.0606 19.7437 34.7506 19.7238 25.1106 27.9338C21.2906 31.1871 19.6206 35.2071 20.1006 39.9938C20.1286 40.28 20.1809 40.541 20.2536 40.7574C20.3263 40.9738 20.4176 41.1401 20.5206 41.2438ZM67.5306 35.9838C68.1773 37.0438 69.2706 36.8371 70.8106 35.3638C75.5806 30.7838 83.7606 33.6838 89.3906 36.1338C95.4406 38.7738 96.8306 41.4038 98.9206 48.1638C98.9699 48.325 99.0658 48.4645 99.1885 48.5538C99.3112 48.643 99.4515 48.6752 99.5806 48.6437C100.694 48.3704 101.624 47.8071 102.371 46.9538C102.464 46.8414 102.528 46.6908 102.56 46.5139C102.591 46.3369 102.588 46.1384 102.551 45.9338C100.261 34.0738 86.2206 28.6538 75.6606 28.3138C72.5606 28.2138 65.1106 32.0538 67.5306 35.9838ZM45.3838 42.3957C45.8756 41.8055 46.2367 41.1162 46.4467 40.3672C46.6566 39.6183 46.7112 38.8244 46.6073 38.0308C46.5034 37.2372 46.2431 36.4595 45.8413 35.742C45.4394 35.0245 44.9039 34.3813 44.2652 33.8492C42.9754 32.7746 41.3439 32.2176 39.7297 32.3006C38.1154 32.3836 36.6506 33.0999 35.6574 34.2919C35.1657 34.8821 34.8045 35.5713 34.5946 36.3203C34.3847 37.0692 34.3301 37.8631 34.434 38.6567C34.5378 39.4503 34.7981 40.2281 35.2 40.9456C35.6018 41.663 36.1374 42.3062 36.776 42.8383C38.0658 43.9129 39.6973 44.47 41.3116 44.387C42.9259 44.304 44.3907 43.5877 45.3838 42.3957ZM87.6306 45.5938C87.6306 43.9521 86.9785 42.3776 85.8176 41.2168C84.6568 40.0559 83.0823 39.4037 81.4406 39.4037C79.7989 39.4037 78.2245 40.0559 77.0636 41.2168C75.9028 42.3776 75.2506 43.9521 75.2506 45.5938C75.2506 47.2354 75.9028 48.8099 77.0636 49.9708C78.2245 51.1316 79.7989 51.7838 81.4406 51.7838C83.0823 51.7838 84.6568 51.1316 85.8176 49.9708C86.9785 48.8099 87.6306 47.2354 87.6306 45.5938ZM32.2806 110.234C34.8873 118.08 39.6673 123.41 46.6206 126.224C56.9606 130.404 74.2106 128.154 81.0606 118.134C81.8206 117.024 81.5406 115.744 81.9306 114.744C87.7006 99.9438 82.4306 82.2438 65.3206 78.9538C58.7906 77.6938 48.1206 76.4038 42.6406 80.7038C33.654 87.7638 30.074 97.2538 31.9006 109.174C31.6606 109.734 31.7873 110.087 32.2806 110.234Z" fill="#FE6E59"/>
<path d="M111.128 113.924L112.518 115.534C112.596 115.627 112.655 115.76 112.692 115.922C112.728 116.085 112.74 116.273 112.728 116.474C112.221 123.82 111.928 128.47 111.848 130.424C111.568 137.337 109.788 143.604 106.508 149.224C108.528 137.464 110.068 125.697 111.128 113.924Z" fill="#22171C"/>
<path d="M20.5199 41.2438C20.4169 41.1401 20.3256 40.9739 20.2529 40.7575C20.1802 40.5411 20.1279 40.28 20.0999 39.9938C19.6199 35.2071 21.2899 31.1871 25.1099 27.9338C34.7499 19.7238 50.0599 19.7438 59.2499 28.5238C67.2599 36.1638 61.5499 48.4438 53.2299 52.7938C51.8832 53.5004 50.7999 53.2104 49.9799 51.9238C48.9899 50.3538 51.2099 49.4238 52.1899 48.7438C59.4899 43.6938 61.4299 32.8538 52.1399 28.1838C41.3499 22.7738 22.8799 26.6138 23.0599 41.3538C23.0611 41.4661 23.0497 41.578 23.0262 41.6826C23.0027 41.7871 22.9677 41.8819 22.9235 41.9609C22.8793 42.0399 22.8269 42.1014 22.7694 42.1415C22.712 42.1816 22.6508 42.1994 22.5899 42.1938C21.7832 42.1138 21.0932 41.7971 20.5199 41.2438Z" fill="#421414"/>
<path d="M67.5302 35.9839C65.1102 32.0539 72.5602 28.2139 75.6602 28.3139C86.2202 28.6539 100.26 34.0739 102.55 45.9339C102.587 46.1385 102.59 46.337 102.559 46.514C102.528 46.691 102.463 46.8416 102.37 46.9539C101.623 47.8073 100.693 48.3705 99.5802 48.6439C99.4511 48.6754 99.3107 48.6432 99.188 48.5539C99.0653 48.4647 98.9694 48.3251 98.9202 48.1639C96.8302 41.4039 95.4402 38.7739 89.3902 36.1339C83.7602 33.6839 75.5801 30.7839 70.8101 35.3639C69.2701 36.8372 68.1768 37.0439 67.5302 35.9839Z" fill="#381414"/>
<path d="M45.3839 42.3957C44.3907 43.5877 42.9259 44.3039 41.3116 44.387C39.6974 44.47 38.0659 43.9128 36.7761 42.8382C36.1374 42.3061 35.6019 41.663 35.2 40.9455C34.7982 40.2281 34.5379 39.4503 34.434 38.6567C34.3301 37.8631 34.3847 37.0692 34.5946 36.3202C34.8046 35.5713 35.1657 34.8821 35.6575 34.2919C36.6506 33.0999 38.1154 32.3836 39.7297 32.3006C41.344 32.2176 42.9755 32.7746 44.2653 33.8492C44.9039 34.3813 45.4395 35.0245 45.8413 35.742C46.2432 36.4595 46.5035 37.2372 46.6073 38.0308C46.7112 38.8244 46.6566 39.6183 46.4467 40.3672C46.2368 41.1162 45.8756 41.8055 45.3839 42.3957Z" fill="#281A21"/>
<path d="M87.63 45.5938C87.63 47.2355 86.9778 48.81 85.817 49.9708C84.6561 51.1317 83.0817 51.7838 81.44 51.7838C79.7983 51.7838 78.2239 51.1317 77.063 49.9708C75.9022 48.81 75.25 47.2355 75.25 45.5938C75.25 43.9521 75.9022 42.3777 77.063 41.2169C78.2239 40.056 79.7983 39.4038 81.44 39.4038C83.0817 39.4038 84.6561 40.056 85.817 41.2169C86.9778 42.3777 87.63 43.9521 87.63 45.5938Z" fill="#281A21"/>
<path d="M32.2804 110.234C31.787 110.087 31.6604 109.734 31.9004 109.174C30.0737 97.2538 33.6537 87.7639 42.6404 80.7039C48.1204 76.4039 58.7904 77.6939 65.3204 78.9539C82.4304 82.2439 87.7004 99.9438 81.9304 114.744C81.5404 115.744 81.8204 117.024 81.0604 118.134C74.2104 128.154 56.9604 130.404 46.6204 126.224C39.667 123.41 34.887 118.08 32.2804 110.234ZM50.6037 114.05C51.7997 114.254 53.028 114.2 54.2183 113.89C55.4086 113.58 56.5376 113.021 57.5409 112.243C58.5442 111.466 59.4021 110.487 60.0657 109.361C60.7292 108.235 61.1855 106.984 61.4083 105.681C61.8582 103.048 61.3302 100.359 59.9403 98.2059C58.5505 96.0525 56.4126 94.6107 53.9971 94.1978C52.801 93.9934 51.5728 94.0477 50.3825 94.3576C49.1922 94.6675 48.0631 95.2271 47.0598 96.0042C46.0565 96.7814 45.1986 97.761 44.535 98.887C43.8715 100.013 43.4153 101.264 43.1925 102.567C42.7425 105.2 43.2705 107.888 44.6604 110.042C46.0503 112.195 48.1881 113.637 50.6037 114.05Z" fill="#FEF9EF"/>
<path d="M50.6031 114.05C48.1875 113.637 46.0497 112.195 44.6598 110.041C43.2699 107.888 42.7419 105.199 43.1919 102.567C43.4147 101.263 43.8709 100.013 44.5345 98.8867C45.198 97.7607 46.056 96.7811 47.0593 96.0039C48.0626 95.2268 49.1916 94.6673 50.3819 94.3573C51.5722 94.0474 52.8004 93.9931 53.9965 94.1975C56.412 94.6104 58.5499 96.0522 59.9398 98.2056C61.3296 100.359 61.8576 103.048 61.4077 105.68C61.1849 106.984 60.7287 108.234 60.0651 109.36C59.4015 110.486 58.5436 111.466 57.5403 112.243C56.537 113.02 55.408 113.58 54.2177 113.89C53.0274 114.2 51.7991 114.254 50.6031 114.05Z" fill="#151E30"/>
</svg>
