<svg width="59" height="219" viewBox="0 0 59 219" fill="none" xmlns="http://www.w3.org/2000/svg">
<path d="M1.74609 193.553C4.18609 211.383 22.2561 218.883 38.3861 217.793C47.9161 217.153 56.0561 211.033 57.1261 201.253C57.8061 195.063 55.1361 190.513 49.1661 188.743" stroke="#FBAFA3" stroke-width="2"/>
<path d="M49.1645 188.743C44.8712 188.383 40.5378 188.18 36.1645 188.133C23.8345 187.993 22.4345 169.533 22.2545 160.543C21.8145 137.983 24.1845 116.963 30.0445 95.4029C37.4645 68.1029 44.4245 39.2928 46.8345 11.0728C47.1545 7.32284 45.2045 -1.67715 39.6145 1.77285C39.3472 1.93587 39.1276 2.19034 38.9845 2.50286C37.6445 5.49619 36.7945 8.42951 36.4345 11.3028C35.6345 17.7628 34.7045 26.2828 33.6445 36.8628C32.7045 46.3028 30.0745 56.5329 27.5645 65.6529C15.2545 110.413 6.0045 139.603 1.4145 176.793C0.767832 182.039 0.877819 187.626 1.74449 193.553" stroke="#FFB5A8" stroke-width="2"/>
<path d="M49.1661 188.743C50.4928 191.39 52.0628 193.786 53.8761 195.933C54.0659 196.162 54.1973 196.463 54.2561 196.803L54.9461 201.053C54.9981 201.35 54.9269 201.68 54.7461 201.983C53.0661 204.813 51.5761 207.983 49.3361 210.163C41.9661 217.343 26.5761 215.033 17.1161 211.403C14.1294 210.256 10.8961 207.56 7.41611 203.313C6.79611 202.56 5.66944 200.253 4.0361 196.393C3.5361 195.193 4.06609 193.293 1.74609 193.553" stroke="#FB654C" stroke-width="2"/>
<path d="M49.1684 188.743C50.4951 191.39 52.0651 193.786 53.8784 195.933C54.0682 196.162 54.1996 196.462 54.2584 196.803L54.9484 201.053C55.0003 201.349 54.9292 201.68 54.7484 201.983C53.0684 204.813 51.5784 207.983 49.3384 210.163C41.9684 217.343 26.5784 215.033 17.1184 211.403C14.1317 210.256 10.8984 207.56 7.41841 203.313C6.79841 202.56 5.67173 200.253 4.0384 196.393C3.5384 195.193 4.06839 193.293 1.74839 193.553C0.881725 187.626 0.771738 182.04 1.4184 176.793C6.00841 139.603 15.2584 110.413 27.5684 65.6529C30.0784 56.5329 32.7084 46.3028 33.6484 36.8628C34.7084 26.2828 35.6384 17.7628 36.4384 11.3028C36.7984 8.42951 37.6484 5.49619 38.9884 2.50286C39.1315 2.19034 39.3511 1.93587 39.6184 1.77285C45.2084 -1.67715 47.1584 7.32284 46.8384 11.0728C44.4284 39.2928 37.4684 68.1029 30.0484 95.4029C24.1884 116.963 21.8184 137.983 22.2584 160.543C22.4384 169.533 23.8384 187.993 36.1684 188.133C40.5417 188.18 44.8751 188.383 49.1684 188.743Z" fill="#FF6A51"/>
<path d="M49.17 188.743C55.14 190.513 57.81 195.063 57.13 201.253C56.06 211.033 47.92 217.153 38.39 217.793C22.26 218.883 4.19 211.383 1.75 193.553C4.07 193.293 3.54001 195.193 4.04001 196.393C5.67334 200.253 6.80001 202.56 7.42001 203.313C10.9 207.56 14.1333 210.256 17.12 211.403C26.58 215.033 41.97 217.343 49.34 210.163C51.58 207.983 53.07 204.813 54.75 201.983C54.9308 201.68 55.002 201.35 54.95 201.053L54.26 196.803C54.2012 196.463 54.0698 196.162 53.88 195.933C52.0667 193.786 50.4967 191.39 49.17 188.743Z" fill="#F75F46"/>
</svg>
