<svg width="13" height="15" viewBox="0 0 13 15" fill="none" xmlns="http://www.w3.org/2000/svg">
<path d="M11.6313 5.1221C11.5972 4.58082 11.4569 4.05154 11.2183 3.56449C10.9797 3.07743 10.6475 2.64215 10.2406 2.28348C9.8338 1.92481 9.36032 1.6498 8.8472 1.47412C8.33408 1.29845 7.79138 1.22556 7.2501 1.25962L5.77311 1.35251C5.23181 1.38656 4.70249 1.52689 4.21543 1.76549C3.72836 2.00409 3.29307 2.33629 2.93439 2.74312C2.57571 3.14995 2.30069 3.62346 2.125 4.13658C1.94932 4.64971 1.87644 5.19241 1.9105 5.73371L2.1843 10.0851C2.21836 10.6264 2.35869 11.1557 2.59729 11.6427C2.8359 12.1298 3.16812 12.5651 3.57495 12.9237C3.98179 13.2824 4.45527 13.5574 4.96839 13.7331C5.48151 13.9088 6.02421 13.9817 6.56549 13.9476L8.04248 13.8547C8.58378 13.8207 9.11307 13.6803 9.60013 13.4417C10.0872 13.2031 10.5225 12.8709 10.8812 12.4641C11.2398 12.0573 11.5149 11.5838 11.6906 11.0706C11.8663 10.5575 11.9392 10.0148 11.9051 9.47351L11.6313 5.1221Z" stroke="#FEE8A1" stroke-width="2"/>
<path d="M7.25127 1.25956L5.77419 1.35249C3.49776 1.49571 1.76845 3.45723 1.91167 5.73367L2.18544 10.0851C2.32866 12.3615 4.29018 14.0908 6.56661 13.9476L8.04369 13.8547C10.3201 13.7114 12.0494 11.7499 11.9062 9.47348L11.6324 5.12209C11.4892 2.84565 9.52771 1.11634 7.25127 1.25956Z" fill="#FDD043"/>
</svg>
