<svg width="145" height="200" viewBox="0 0 145 200" fill="none" xmlns="http://www.w3.org/2000/svg">
<path d="M106.781 111.945C116.728 104.852 126.088 97.0487 134.861 88.5353C140.831 82.7453 149.611 69.6953 137.581 64.3853C128.171 60.2353 107.591 64.9854 97.6512 67.7054C96.0512 68.1454 94.9512 67.5887 94.3512 66.0353C93.3812 63.5353 92.8912 60.8754 91.9012 58.6454C87.5412 48.8354 83.4512 39.9253 79.6212 29.0953C77.3745 22.7487 74.4479 16.7153 70.8412 10.9953C68.7012 7.61533 56.3012 -6.30467 53.3912 5.96533C52.8978 8.03866 52.9145 10.182 53.4412 12.3954C57.0612 27.702 60.5045 43.0487 63.7712 58.4353C64.7812 63.1653 65.1612 67.6953 65.4812 72.4053C65.5074 72.8162 65.3763 73.2216 65.1144 73.5392C64.8525 73.8568 64.4795 74.0628 64.0712 74.1154C59.6712 74.6754 55.1512 75.052 50.5112 75.2453C38.2212 75.7553 26.1012 72.5054 13.7812 72.5554C-3.98881 72.6254 -0.508803 87.0254 7.8812 95.8054C9.31453 97.3054 12.0345 99.3487 16.0412 101.935C26.2212 108.502 35.9279 115.805 45.1612 123.845C45.2103 123.886 45.25 123.937 45.2776 123.994C45.3052 124.052 45.32 124.114 45.321 124.178C45.3219 124.242 45.309 124.305 45.2831 124.363C45.2573 124.421 45.2191 124.473 45.1712 124.515C36.4012 132.355 27.4312 142.195 22.2412 152.825C18.1612 161.195 13.0212 179.125 17.2312 188.845C18.0312 190.679 19.1878 190.945 20.7012 189.645C26.4878 184.659 32.0379 179.439 37.3512 173.985C47.6412 163.405 55.2412 156.785 66.4812 150.225C66.7718 150.057 67.1118 149.997 67.4399 150.056C67.768 150.115 68.0628 150.288 68.2712 150.545C77.9178 162.312 87.7545 173.902 97.7812 185.315C103.061 191.325 111.371 195.335 119.031 198.135C127.101 201.085 129.751 195.605 126.631 189.425C120.311 176.915 118.401 165.105 113.481 146.815C110.461 135.605 108.681 124.105 106.511 112.615C106.487 112.49 106.5 112.36 106.548 112.241C106.596 112.122 106.677 112.02 106.781 111.945Z" stroke="#FFB5A6" stroke-width="2"/>
<path d="M96.1986 107.939C96.2601 107.865 96.3064 107.78 96.3351 107.689C96.3638 107.597 96.3741 107.501 96.3656 107.406C96.3571 107.31 96.3298 107.217 96.2854 107.132C96.241 107.047 96.1803 106.972 96.1068 106.91L96.0761 106.885C96.0026 106.823 95.9177 106.777 95.8262 106.748C95.7347 106.72 95.6385 106.709 95.543 106.718C95.4475 106.726 95.3546 106.753 95.2697 106.798C95.1847 106.842 95.1094 106.903 95.0479 106.977L87.9278 115.492C87.8663 115.566 87.8199 115.651 87.7912 115.742C87.7626 115.834 87.7522 115.93 87.7607 116.025C87.7692 116.121 87.7965 116.214 87.8409 116.299C87.8853 116.384 87.946 116.459 88.0196 116.52L88.0501 116.546C88.1237 116.608 88.2087 116.654 88.3001 116.683C88.3916 116.711 88.4878 116.722 88.5833 116.713C88.6788 116.705 88.7716 116.677 88.8566 116.633C88.9415 116.589 89.017 116.528 89.0785 116.454L96.1986 107.939Z" stroke="#FF6E54" stroke-width="2"/>
<path d="M50.9587 109.129C50.7482 108.836 50.2538 108.765 49.5841 108.933C48.9144 109.1 48.1244 109.491 47.3878 110.02C46.6512 110.55 46.0285 111.173 45.6564 111.755C45.2844 112.336 45.1937 112.827 45.4041 113.12C45.6146 113.413 46.1091 113.484 46.7788 113.317C47.4485 113.15 48.2385 112.758 48.975 112.229C49.7116 111.7 50.3344 111.076 50.7064 110.494C51.0784 109.913 51.1692 109.422 50.9587 109.129Z" stroke="#FF6E54" stroke-width="2"/>
<path d="M103.313 121.466C103.74 120.272 103.386 119.976 102.253 120.576C101.566 120.942 100.813 121.676 99.993 122.776C99.713 123.142 99.7896 123.349 100.223 123.396C101.763 123.556 102.793 122.912 103.313 121.466Z" stroke="#FF7158" stroke-width="2"/>
<path d="M76.4827 147.336C75.8827 147.006 74.2327 145.036 73.2827 145.756C73.2148 145.806 73.158 145.871 73.1156 145.945C73.0732 146.019 73.0461 146.101 73.0359 146.187C73.0256 146.272 73.0325 146.36 73.0559 146.443C73.0794 146.527 73.1191 146.606 73.1727 146.676L76.2127 150.616C76.2506 150.664 76.3046 150.697 76.3712 150.712C76.4378 150.727 76.5154 150.723 76.5988 150.701C76.6821 150.68 76.7694 150.64 76.8546 150.586C76.9398 150.531 77.021 150.463 77.0927 150.386C82.4461 144.532 88.0427 138.922 93.8827 133.556C94.876 132.636 95.4727 131.549 95.6727 130.296C95.7861 129.569 95.5561 129.439 94.9827 129.906C88.8561 134.806 83.4761 140.416 78.8427 146.736C78.5668 147.112 78.1744 147.38 77.7396 147.491C77.3048 147.601 76.8577 147.546 76.4827 147.336Z" stroke="#FF6E54" stroke-width="2"/>
<path d="M66.5506 132.924C66.3426 132.701 65.8673 132.744 65.2292 133.044C64.5911 133.345 63.8425 133.877 63.1481 134.525C62.8043 134.845 62.4841 135.184 62.2058 135.523C61.9275 135.861 61.6967 136.193 61.5264 136.497C61.3561 136.802 61.2497 137.075 61.2133 137.3C61.1769 137.524 61.2112 137.697 61.3142 137.807C61.5223 138.03 61.9976 137.987 62.6357 137.687C63.2738 137.387 64.0223 136.854 64.7167 136.207C65.0606 135.886 65.3808 135.547 65.6591 135.208C65.9373 134.87 66.1682 134.539 66.3385 134.234C66.5088 133.929 66.6151 133.656 66.6515 133.432C66.6879 133.207 66.6537 133.034 66.5506 132.924Z" stroke="#FF6E54" stroke-width="2"/>
<path d="M68.7744 140.108C68.8466 140.033 68.9033 139.945 68.9415 139.849C68.9797 139.752 68.9986 139.649 68.9969 139.546C68.9953 139.442 68.9732 139.34 68.932 139.244C68.8908 139.149 68.8313 139.063 68.7568 138.991L68.7281 138.963C68.6536 138.891 68.5656 138.834 68.4691 138.796C68.3726 138.758 68.2696 138.739 68.1659 138.74C68.0621 138.742 67.9597 138.764 67.8645 138.805C67.7693 138.846 67.6832 138.906 67.611 138.98L59.4688 147.382C59.3966 147.457 59.3397 147.545 59.3016 147.641C59.2634 147.738 59.2446 147.841 59.2462 147.945C59.2478 148.048 59.2699 148.151 59.3111 148.246C59.3523 148.341 59.4119 148.427 59.4864 148.5L59.5151 148.527C59.5896 148.6 59.6776 148.656 59.774 148.695C59.8705 148.733 59.9735 148.752 60.0772 148.75C60.181 148.748 60.2834 148.726 60.3786 148.685C60.4738 148.644 60.56 148.584 60.6321 148.51L68.7744 140.108Z" stroke="#FF7158" stroke-width="2"/>
<path d="M106.781 111.944C106.677 112.019 106.596 112.121 106.548 112.24C106.5 112.359 106.487 112.489 106.511 112.614C108.681 124.104 110.461 135.604 113.481 146.814C118.401 165.104 120.311 176.914 126.631 189.424C129.751 195.604 127.101 201.084 119.031 198.134C111.371 195.334 103.061 191.324 97.7812 185.314C87.7545 173.901 77.9178 162.311 68.2712 150.544C68.0628 150.287 67.768 150.114 67.4399 150.055C67.1118 149.996 66.7718 150.056 66.4812 150.224C55.2412 156.784 47.6412 163.404 37.3512 173.984C32.0379 179.438 26.4878 184.658 20.7012 189.644C19.1878 190.944 18.0312 190.678 17.2312 188.844C13.0212 179.124 18.1612 161.194 22.2412 152.824C27.4312 142.194 36.4012 132.354 45.1712 124.514C45.2191 124.472 45.2573 124.42 45.2831 124.362C45.309 124.304 45.3219 124.241 45.321 124.177C45.32 124.113 45.3052 124.051 45.2776 123.993C45.25 123.936 45.2103 123.885 45.1612 123.844C35.9279 115.804 26.2212 108.501 16.0412 101.934C12.0345 99.3477 9.31453 97.3044 7.8812 95.8044C-0.508803 87.0244 -3.98881 72.6244 13.7812 72.5544C26.1012 72.5044 38.2212 75.7544 50.5112 75.2444C55.1512 75.051 59.6712 74.6744 64.0712 74.1144C64.4795 74.0619 64.8525 73.8559 65.1144 73.5382C65.3763 73.2206 65.5074 72.8152 65.4812 72.4044C65.1612 67.6944 64.7812 63.1644 63.7712 58.4344C60.5045 43.0477 57.0612 27.701 53.4412 12.3944C52.9145 10.181 52.8978 8.03769 53.3912 5.96435C56.3012 -6.30565 68.7012 7.61435 70.8412 10.9944C74.4479 16.7144 77.3745 22.7477 79.6212 29.0944C83.4512 39.9244 87.5412 48.8344 91.9012 58.6444C92.8912 60.8744 93.3812 63.5344 94.3512 66.0344C94.9512 67.5877 96.0512 68.1444 97.6512 67.7044C107.591 64.9844 128.171 60.2344 137.581 64.3844C149.611 69.6944 140.831 82.7444 134.861 88.5344C126.088 97.0477 116.728 104.851 106.781 111.944ZM96.1966 107.938C96.2581 107.864 96.3045 107.779 96.3331 107.688C96.3618 107.596 96.3722 107.5 96.3636 107.405C96.3551 107.309 96.3279 107.216 96.2834 107.131C96.239 107.046 96.1783 106.971 96.1048 106.909L96.0742 106.884C96.0006 106.822 95.9157 106.776 95.8242 106.747C95.7327 106.718 95.6365 106.708 95.541 106.717C95.4455 106.725 95.3527 106.752 95.2677 106.797C95.1827 106.841 95.1074 106.902 95.0459 106.975L87.9258 115.491C87.8643 115.565 87.8179 115.65 87.7892 115.741C87.7606 115.833 87.7502 115.929 87.7587 116.024C87.7673 116.12 87.7945 116.213 87.8389 116.298C87.8833 116.383 87.944 116.458 88.0176 116.519L88.0482 116.545C88.1217 116.606 88.2067 116.653 88.2982 116.682C88.3896 116.71 88.4858 116.721 88.5813 116.712C88.6768 116.704 88.7697 116.676 88.8546 116.632C88.9396 116.588 89.015 116.527 89.0765 116.453L96.1966 107.938ZM50.9585 109.129C50.748 108.836 50.2535 108.765 49.5838 108.932C48.9142 109.099 48.1242 109.491 47.3876 110.02C46.651 110.549 46.0282 111.173 45.6562 111.755C45.2842 112.336 45.1934 112.827 45.4039 113.12C45.6144 113.413 46.1089 113.484 46.7785 113.316C47.4482 113.149 48.2382 112.758 48.9748 112.229C49.7114 111.7 50.3342 111.075 50.7062 110.494C51.0782 109.913 51.169 109.422 50.9585 109.129ZM103.311 121.464C103.738 120.271 103.384 119.974 102.251 120.574C101.564 120.941 100.811 121.674 99.9912 122.774C99.7112 123.141 99.7879 123.348 100.221 123.394C101.761 123.554 102.791 122.911 103.311 121.464ZM76.4812 147.334C75.8812 147.004 74.2312 145.034 73.2812 145.754C73.2132 145.805 73.1564 145.87 73.114 145.944C73.0717 146.018 73.0446 146.1 73.0343 146.185C73.0241 146.271 73.0309 146.358 73.0544 146.442C73.0779 146.526 73.1176 146.605 73.1712 146.674L76.2112 150.614C76.249 150.663 76.3031 150.696 76.3697 150.711C76.4362 150.726 76.5139 150.722 76.5972 150.7C76.6806 150.678 76.7678 150.639 76.853 150.585C76.9382 150.53 77.0194 150.462 77.0912 150.384C82.4445 144.531 88.0412 138.921 93.8812 133.554C94.8745 132.634 95.4712 131.548 95.6712 130.294C95.7845 129.568 95.5545 129.438 94.9812 129.904C88.8545 134.804 83.4745 140.414 78.8412 146.734C78.5652 147.11 78.1729 147.379 77.7381 147.49C77.3033 147.6 76.8562 147.545 76.4812 147.334ZM66.5494 132.923C66.3414 132.7 65.866 132.743 65.2279 133.043C64.5898 133.343 63.8413 133.876 63.1469 134.523C62.803 134.844 62.4828 135.183 62.2046 135.522C61.9263 135.86 61.6954 136.191 61.5252 136.496C61.3549 136.801 61.2485 137.074 61.2121 137.298C61.1757 137.523 61.21 137.696 61.313 137.806C61.521 138.029 61.9963 137.986 62.6344 137.686C63.2725 137.385 64.0211 136.853 64.7155 136.205C65.0593 135.885 65.3795 135.546 65.6578 135.207C65.9361 134.869 66.1669 134.537 66.3372 134.233C66.5075 133.928 66.6139 133.655 66.6503 133.43C66.6867 133.206 66.6524 133.033 66.5494 132.923ZM68.774 140.107C68.8462 140.033 68.903 139.945 68.9412 139.848C68.9793 139.752 68.9982 139.649 68.9966 139.545C68.9949 139.441 68.9728 139.339 68.9316 139.244C68.8904 139.148 68.8309 139.062 68.7564 138.99L68.7277 138.962C68.6532 138.89 68.5652 138.833 68.4687 138.795C68.3723 138.757 68.2692 138.738 68.1655 138.74C68.0618 138.741 67.9593 138.763 67.8641 138.804C67.7689 138.846 67.6828 138.905 67.6106 138.98L59.4684 147.382C59.3962 147.456 59.3394 147.544 59.3012 147.641C59.263 147.737 59.2442 147.84 59.2458 147.944C59.2475 148.048 59.2695 148.15 59.3107 148.245C59.3519 148.34 59.4115 148.427 59.486 148.499L59.5147 148.527C59.5892 148.599 59.6772 148.656 59.7737 148.694C59.8701 148.732 59.9731 148.751 60.0769 148.749C60.1806 148.748 60.283 148.726 60.3782 148.684C60.4734 148.643 60.5596 148.584 60.6318 148.509L68.774 140.107Z" fill="#FF6B50"/>
<path d="M96.1063 106.91L96.0757 106.884C95.7664 106.626 95.306 106.667 95.0474 106.976L87.9273 115.492C87.6687 115.801 87.7098 116.261 88.019 116.52L88.0497 116.546C88.359 116.804 88.8194 116.763 89.078 116.454L96.1981 107.938C96.4567 107.629 96.4156 107.169 96.1063 106.91Z" fill="#FF7157"/>
<path d="M48.9739 112.229C50.5078 111.127 51.3959 109.739 50.9576 109.129C50.5193 108.519 48.9206 108.918 47.3867 110.02C45.8528 111.122 44.9647 112.51 45.403 113.12C45.8413 113.73 47.4401 113.331 48.9739 112.229Z" fill="#FF7157"/>
<path d="M103.309 121.465C102.789 122.911 101.759 123.555 100.219 123.395C99.7857 123.348 99.7091 123.141 99.9891 122.775C100.809 121.675 101.562 120.941 102.249 120.575C103.382 119.975 103.736 120.271 103.309 121.465Z" fill="#FF7760"/>
<path d="M76.4827 147.335C76.8577 147.545 77.3048 147.6 77.7396 147.49C78.1744 147.379 78.5668 147.111 78.8427 146.735C83.4761 140.415 88.8561 134.805 94.9827 129.905C95.5561 129.438 95.7861 129.568 95.6727 130.295C95.4727 131.548 94.876 132.635 93.8827 133.555C88.0427 138.921 82.4461 144.531 77.0927 150.385C77.021 150.462 76.9398 150.53 76.8546 150.585C76.7694 150.639 76.6821 150.679 76.5988 150.701C76.5154 150.722 76.4378 150.726 76.3712 150.711C76.3046 150.696 76.2506 150.663 76.2127 150.615L73.1727 146.675C73.1191 146.605 73.0794 146.526 73.0559 146.443C73.0325 146.359 73.0256 146.271 73.0359 146.186C73.0461 146.1 73.0732 146.018 73.1156 145.944C73.158 145.87 73.2148 145.805 73.2827 145.755C74.2327 145.035 75.8827 147.005 76.4827 147.335Z" fill="#FF7157"/>
<path d="M64.7142 136.205C66.1602 134.857 66.9813 133.387 66.5481 132.923C66.115 132.458 64.5916 133.175 63.1456 134.523C61.6996 135.872 60.8785 137.341 61.3116 137.806C61.7448 138.27 63.2682 137.554 64.7142 136.205Z" fill="#FF7157"/>
<path d="M68.7562 138.991L68.7275 138.963C68.4142 138.659 67.914 138.667 67.6104 138.98L59.4682 147.382C59.1646 147.696 59.1724 148.196 59.4858 148.5L59.5145 148.527C59.8278 148.831 60.3279 148.823 60.6316 148.51L68.7737 140.108C69.0774 139.794 69.0695 139.294 68.7562 138.991Z" fill="#FF7760"/>
</svg>
