<svg width="151" height="154" viewBox="0 0 151 154" fill="none" xmlns="http://www.w3.org/2000/svg">
<path d="M75.0862 1.58845C41.8962 5.79845 18.5662 21.2984 5.54624 52.6084C-6.56376 81.7484 6.20619 123.708 35.6862 137.608C42.2062 140.688 49.5362 143.618 57.6762 146.398C69.1562 150.318 78.4962 153.408 88.6762 151.368C98.3096 149.442 107.38 145.235 115.886 138.748C129.236 128.568 140.976 117.498 145.796 100.818C150.286 85.3185 150.476 70.6285 148.776 54.4384C146.616 33.9785 135.436 20.8284 118.516 10.6384C105.216 2.62511 90.7395 -0.391547 75.0862 1.58845Z" stroke="#FFB5A6" stroke-width="2"/>
<path d="M99.4454 66.5687C99.3857 66.6436 99.3419 66.73 99.317 66.8223C99.292 66.9147 99.2865 67.0109 99.3006 67.105C99.3147 67.1991 99.3482 67.2889 99.399 67.3687C99.4497 67.4486 99.5166 67.5167 99.5954 67.5687C104.365 70.7487 113.025 73.4387 116.375 66.8987C116.517 66.6096 116.546 66.2779 116.455 65.9688C114.145 58.5388 103.225 61.8287 99.4454 66.5687Z" stroke="#8D4646" stroke-width="2"/>
<path d="M135.975 65.4882C128.855 70.0582 120.305 80.1082 116.145 85.1482C116.013 85.3072 115.925 85.491 115.899 85.6621C115.873 85.8331 115.911 85.9784 116.005 86.0682C116.345 86.3816 116.748 86.4783 117.215 86.3583C118.382 86.0716 119.445 85.3883 120.405 84.3083C125.705 78.3949 131.242 72.7149 137.015 67.2682C138.465 65.9082 138.015 64.1782 135.975 65.4882Z" stroke="#FF6E54" stroke-width="2"/>
<path d="M43.2841 67.6584C40.3641 70.6784 40.9241 73.7384 45.0541 74.7784C49.0675 75.7918 53.2308 75.0918 57.5441 72.6784C58.6908 72.0384 59.0574 71.0984 58.6441 69.8584C57.1041 65.2384 50.2141 64.5984 46.3541 65.7784C45.1675 66.1384 44.1441 66.7651 43.2841 67.6584Z" stroke="#8D4646" stroke-width="2"/>
<path d="M89.5249 95.6783C89.9249 95.1916 89.9649 94.5849 89.6449 93.8583C89.5873 93.7234 89.4884 93.6069 89.3594 93.5221C89.2304 93.4372 89.0764 93.3874 88.9149 93.3783C86.8082 93.2849 84.7249 93.4783 82.6649 93.9583C79.4849 94.7083 77.6349 93.9383 74.7149 93.6183C73.1816 93.4449 72.6649 94.0883 73.1649 95.5483C73.7049 97.1483 74.7082 98.2483 76.1749 98.8483C81.5616 101.062 86.0115 100.005 89.5249 95.6783Z" stroke="#8D4646" stroke-width="2"/>
<path d="M136.367 98.2686C132.933 101.322 129.557 104.449 126.237 107.649C121.617 112.109 115.977 115.859 110.987 120.289C110.868 120.398 110.779 120.531 110.728 120.675C110.677 120.819 110.666 120.969 110.697 121.109C111.727 125.929 118.727 115.449 119.277 115.169C123.037 113.229 126.417 111.559 129.287 108.119C131.913 104.952 135.027 102.312 138.627 100.199C138.765 100.115 138.88 100.002 138.962 99.8696C139.044 99.7369 139.091 99.5888 139.097 99.4386C139.183 96.9653 138.273 96.5752 136.367 98.2686Z" stroke="#FF765E" stroke-width="2"/>
<path d="M125.043 124.494C125.307 124.715 126.094 124.29 127.229 123.312C128.363 122.335 129.754 120.885 131.095 119.282C131.759 118.488 132.39 117.681 132.953 116.905C133.516 116.13 134 115.402 134.377 114.763C134.754 114.124 135.016 113.587 135.149 113.182C135.282 112.777 135.283 112.512 135.152 112.403C134.887 112.182 134.101 112.607 132.966 113.584C131.831 114.561 130.441 116.011 129.1 117.614C128.436 118.408 127.805 119.216 127.242 119.991C126.678 120.767 126.195 121.495 125.818 122.133C125.441 122.772 125.179 123.309 125.046 123.714C124.913 124.119 124.912 124.384 125.043 124.494Z" stroke="#FF765E" stroke-width="2"/>
<path d="M67.5051 112.934C67.397 112.812 67.0859 112.873 66.5896 113.112C66.0933 113.352 65.4214 113.766 64.6124 114.33C63.8033 114.894 62.8729 115.598 61.8743 116.401C60.8757 117.205 59.8286 118.091 58.7925 119.011C57.7564 119.931 56.7518 120.866 55.836 121.762C54.9202 122.659 54.1112 123.499 53.455 124.236C52.7989 124.972 52.3085 125.591 52.0119 126.055C51.7153 126.52 51.6183 126.821 51.7264 126.943C51.8345 127.065 52.1456 127.004 52.6419 126.765C53.1382 126.525 53.8101 126.112 54.6191 125.547C55.4282 124.983 56.3586 124.279 57.3572 123.476C58.3558 122.673 59.403 121.786 60.4391 120.866C61.4751 119.946 62.4797 119.011 63.3955 118.115C64.3113 117.218 65.1203 116.378 65.7765 115.641C66.4326 114.905 66.923 114.287 67.2196 113.822C67.5162 113.358 67.6132 113.056 67.5051 112.934Z" stroke="#FF6E54" stroke-width="2"/>
<path d="M79.9665 113.368V113.108C79.9598 112.875 79.8298 112.898 79.5765 113.178C78.4365 114.432 76.2698 116.285 73.0765 118.738C71.8698 119.658 68.5065 122.932 62.9865 128.558C62.4265 129.138 59.3465 134.858 64.0765 130.758C69.7865 125.798 75.7064 119.828 81.0064 115.608C81.1201 115.517 81.2135 115.407 81.2807 115.284C81.3478 115.162 81.3872 115.031 81.3965 114.898C81.4631 113.938 81.0798 113.508 80.2465 113.608C80.2111 113.613 80.1752 113.61 80.1412 113.6C80.1072 113.589 80.0759 113.572 80.0494 113.55C80.0228 113.527 80.0017 113.499 79.9874 113.468C79.9731 113.436 79.966 113.403 79.9665 113.368Z" stroke="#FF6E54" stroke-width="2"/>
<path d="M5.54624 52.6084C18.5662 21.2984 41.8962 5.79845 75.0862 1.58845C90.7395 -0.391547 105.216 2.62511 118.516 10.6384C135.436 20.8284 146.616 33.9785 148.776 54.4384C150.476 70.6284 150.286 85.3185 145.796 100.818C140.976 117.498 129.236 128.568 115.886 138.748C107.38 145.235 98.3096 149.442 88.6762 151.368C78.4962 153.408 69.1562 150.318 57.6762 146.398C49.5362 143.618 42.2062 140.688 35.6862 137.608C6.20619 123.708 -6.56376 81.7484 5.54624 52.6084ZM99.4462 66.5685C99.3864 66.6433 99.3427 66.7297 99.3178 66.8221C99.2928 66.9144 99.2872 67.0107 99.3014 67.1047C99.3155 67.1988 99.349 67.2886 99.3997 67.3685C99.4505 67.4483 99.5174 67.5164 99.5962 67.5685C104.366 70.7485 113.026 73.4385 116.376 66.8985C116.518 66.6093 116.547 66.2776 116.456 65.9685C114.146 58.5385 103.226 61.8285 99.4462 66.5685ZM135.976 65.4884C128.856 70.0584 120.306 80.1085 116.146 85.1485C116.014 85.3074 115.926 85.4912 115.9 85.6623C115.874 85.8333 115.912 85.9786 116.006 86.0685C116.346 86.3818 116.75 86.4785 117.216 86.3585C118.383 86.0718 119.446 85.3885 120.406 84.3085C125.706 78.3951 131.243 72.7151 137.016 67.2684C138.466 65.9084 138.016 64.1784 135.976 65.4884ZM43.2862 67.6584C40.3662 70.6784 40.9262 73.7385 45.0562 74.7785C49.0696 75.7918 53.2329 75.0918 57.5462 72.6785C58.6929 72.0385 59.0595 71.0985 58.6462 69.8585C57.1062 65.2385 50.2162 64.5985 46.3562 65.7785C45.1696 66.1385 44.1462 66.7651 43.2862 67.6584ZM89.5262 95.6785C89.9262 95.1918 89.9662 94.5851 89.6462 93.8585C89.5886 93.7236 89.4898 93.6071 89.3607 93.5222C89.2317 93.4374 89.0777 93.3876 88.9162 93.3784C86.8096 93.2851 84.7262 93.4784 82.6662 93.9585C79.4862 94.7085 77.6362 93.9385 74.7162 93.6185C73.1829 93.4451 72.6662 94.0884 73.1662 95.5484C73.7062 97.1484 74.7096 98.2485 76.1762 98.8484C81.5629 101.062 86.0129 100.005 89.5262 95.6785ZM136.366 98.2684C132.933 101.322 129.556 104.448 126.236 107.648C121.616 112.108 115.976 115.858 110.986 120.288C110.868 120.398 110.778 120.531 110.727 120.675C110.677 120.819 110.666 120.968 110.696 121.108C111.726 125.928 118.726 115.448 119.276 115.168C123.036 113.228 126.416 111.558 129.286 108.118C131.913 104.952 135.026 102.312 138.626 100.198C138.765 100.115 138.88 100.002 138.962 99.8695C139.044 99.7368 139.09 99.5887 139.096 99.4385C139.183 96.9651 138.273 96.5751 136.366 98.2684ZM125.042 124.494C125.306 124.715 126.092 124.29 127.227 123.313C128.362 122.335 129.753 120.886 131.094 119.282C131.757 118.488 132.389 117.681 132.952 116.905C133.515 116.13 133.999 115.402 134.376 114.763C134.752 114.125 135.015 113.587 135.148 113.182C135.281 112.777 135.282 112.513 135.151 112.403C134.886 112.182 134.1 112.607 132.965 113.584C131.83 114.562 130.439 116.011 129.099 117.615C128.435 118.408 127.804 119.216 127.24 119.992C126.677 120.767 126.194 121.495 125.817 122.134C125.44 122.772 125.178 123.31 125.045 123.715C124.912 124.119 124.911 124.384 125.042 124.494ZM67.5055 112.934C67.3975 112.812 67.0864 112.873 66.5901 113.112C66.0937 113.352 65.4219 113.765 64.6128 114.33C63.8038 114.894 62.8734 115.598 61.8748 116.401C60.8762 117.204 59.829 118.091 58.7929 119.011C57.7569 119.931 56.7523 120.866 55.8365 121.762C54.9207 122.659 54.1116 123.499 53.4555 124.236C52.7993 124.972 52.3089 125.59 52.0124 126.055C51.7158 126.519 51.6188 126.821 51.7269 126.943C51.8349 127.065 52.146 127.004 52.6424 126.765C53.1387 126.525 53.8106 126.111 54.6196 125.547C55.4286 124.983 56.3591 124.279 57.3576 123.476C58.3562 122.673 59.4035 121.786 60.4395 120.866C61.4756 119.946 62.4802 119.011 63.396 118.115C64.3118 117.218 65.1208 116.378 65.7769 115.641C66.4331 114.905 66.9235 114.287 67.2201 113.822C67.5166 113.358 67.6136 113.056 67.5055 112.934ZM79.9662 113.368V113.108C79.9595 112.875 79.8295 112.898 79.5762 113.178C78.4362 114.432 76.2695 116.285 73.0762 118.738C71.8695 119.658 68.5062 122.932 62.9862 128.558C62.4262 129.138 59.3462 134.858 64.0762 130.758C69.7862 125.798 75.7062 119.828 81.0062 115.608C81.1199 115.517 81.2133 115.407 81.2804 115.284C81.3476 115.162 81.387 115.031 81.3962 114.898C81.4629 113.938 81.0796 113.508 80.2462 113.608C80.2109 113.613 80.175 113.61 80.141 113.6C80.107 113.59 80.0756 113.573 80.0491 113.55C80.0226 113.527 80.0014 113.499 79.9872 113.468C79.9729 113.437 79.9657 113.403 79.9662 113.368Z" fill="#FF6B50"/>
<path d="M99.4454 66.5678C103.225 61.8278 114.145 58.5378 116.455 65.9678C116.546 66.2769 116.517 66.6086 116.375 66.8978C113.025 73.4378 104.365 70.7478 99.5954 67.5678C99.5166 67.5157 99.4497 67.4476 99.399 67.3678C99.3482 67.2879 99.3147 67.1981 99.3006 67.104C99.2865 67.01 99.292 66.9137 99.317 66.8214C99.3419 66.729 99.3857 66.6427 99.4454 66.5678Z" fill="#1B203C"/>
<path d="M116.145 85.1482C120.305 80.1082 128.855 70.0582 135.975 65.4882C138.015 64.1782 138.465 65.9082 137.015 67.2682C131.242 72.7149 125.705 78.3949 120.405 84.3083C119.445 85.3883 118.382 86.0716 117.215 86.3583C116.748 86.4783 116.345 86.3816 116.005 86.0682C115.911 85.9784 115.873 85.8331 115.899 85.6621C115.925 85.491 116.013 85.3072 116.145 85.1482Z" fill="#FF7157"/>
<path d="M43.2841 67.6584C44.1441 66.7651 45.1675 66.1384 46.3541 65.7784C50.2141 64.5984 57.1041 65.2384 58.6441 69.8584C59.0574 71.0984 58.6908 72.0384 57.5441 72.6784C53.2308 75.0918 49.0675 75.7918 45.0541 74.7784C40.9241 73.7384 40.3641 70.6784 43.2841 67.6584Z" fill="#1B203C"/>
<path d="M89.5249 95.6783C86.0115 100.005 81.5616 101.062 76.1749 98.8483C74.7082 98.2483 73.7049 97.1483 73.1649 95.5483C72.6649 94.0883 73.1816 93.4449 74.7149 93.6183C77.6349 93.9383 79.4849 94.7083 82.6649 93.9583C84.7249 93.4783 86.8082 93.2849 88.9149 93.3783C89.0764 93.3874 89.2304 93.4372 89.3594 93.5221C89.4884 93.6069 89.5873 93.7234 89.6449 93.8583C89.9649 94.5849 89.9249 95.1916 89.5249 95.6783Z" fill="#1B203C"/>
<path d="M136.367 98.2686C138.273 96.5752 139.183 96.9653 139.097 99.4386C139.091 99.5888 139.044 99.7369 138.962 99.8696C138.88 100.002 138.765 100.115 138.627 100.199C135.027 102.312 131.913 104.952 129.287 108.119C126.417 111.559 123.037 113.229 119.277 115.169C118.727 115.449 111.727 125.929 110.697 121.109C110.666 120.969 110.677 120.819 110.728 120.675C110.779 120.531 110.868 120.398 110.987 120.289C115.977 115.859 121.617 112.109 126.237 107.649C129.557 104.449 132.933 101.322 136.367 98.2686Z" fill="#FF806B"/>
<path d="M129.099 117.614C126.308 120.953 124.491 124.032 125.042 124.493C125.593 124.954 128.302 122.62 131.094 119.282C133.885 115.943 135.702 112.863 135.151 112.402C134.6 111.942 131.891 114.275 129.099 117.614Z" fill="#FF806B"/>
<path d="M60.4382 120.866C64.7953 116.997 67.9588 113.446 67.5042 112.934C67.0495 112.422 63.1487 115.143 58.7916 119.011C54.4345 122.88 51.2709 126.431 51.7256 126.943C52.1803 127.455 56.081 124.734 60.4382 120.866Z" fill="#FF7157"/>
<path d="M80.2465 113.608C81.0798 113.508 81.4631 113.938 81.3965 114.898C81.3872 115.031 81.3478 115.162 81.2807 115.284C81.2135 115.407 81.1201 115.517 81.0064 115.608C75.7064 119.828 69.7865 125.798 64.0765 130.758C59.3465 134.858 62.4265 129.138 62.9865 128.558C68.5065 122.932 71.8698 119.658 73.0765 118.738C76.2698 116.285 78.4365 114.432 79.5765 113.178C79.8298 112.898 79.9598 112.875 79.9665 113.108V113.368C79.966 113.403 79.9731 113.436 79.9874 113.468C80.0017 113.499 80.0228 113.527 80.0494 113.55C80.0759 113.572 80.1072 113.589 80.1412 113.6C80.1752 113.61 80.2111 113.613 80.2465 113.608Z" fill="#FF7157"/>
</svg>
