<svg width="55" height="51" viewBox="0 0 55 51" fill="none" xmlns="http://www.w3.org/2000/svg">
<path d="M7.32394 9.86854C8.52394 7.86188 8.29728 7.54521 6.64395 8.91855C5.63395 9.75855 4.24397 12.5885 3.41397 13.8085C3.33397 13.9185 3.02395 15.0985 3.64395 14.2485C4.05728 13.6752 4.52063 13.1452 5.03396 12.6585" stroke="#F8DBCF" stroke-width="2"/>
<path d="M5.03442 12.6585C3.38776 15.1852 2.67775 17.8552 2.90442 20.6686C3.21442 24.4986 2.8444 27.8186 3.8844 31.3286C4.55107 33.5819 5.6144 35.6252 7.0744 37.4585C9.6244 40.6585 14.4244 45.3986 19.0544 46.7586C19.3281 46.8371 19.6002 47.022 19.8344 47.2886C20.4611 48.0019 21.3577 48.4386 22.5244 48.5986C30.9344 49.7486 35.9044 48.5886 43.0444 44.5586C46.7744 42.4386 48.9444 39.4786 51.2644 36.1286C52.2044 34.7752 52.7211 33.2752 52.8145 31.6285C53.2745 23.9285 54.2944 17.2386 48.3344 11.3086C46.9944 9.98189 45.6444 8.67188 44.2844 7.37855C41.4744 4.70855 38.3844 3.57855 34.9244 2.11855C31.0944 0.508551 26.6444 1.09855 22.5744 1.13855C22.1186 1.13827 21.7398 1.22046 21.5144 1.36855C20.4744 2.06188 19.3178 2.30521 18.0444 2.09855C17.7538 2.05392 17.4133 2.13194 17.0844 2.31855C13.4844 4.40521 10.2311 6.92188 7.3244 9.86855" stroke="#FEE39D" stroke-width="2"/>
<path d="M5.03516 12.6582L7.32513 9.86816" stroke="#F8C57D" stroke-width="2"/>
<path d="M2.93326 10.7183C1.34659 13.0983 0.736574 15.715 1.10324 18.5683C1.14991 18.9016 1.17659 18.905 1.18326 18.5783C1.28326 14.9683 3.14326 12.5183 4.24326 8.8483C4.43659 8.19497 4.33988 8.08831 3.95322 8.52831C3.61988 8.91497 3.41322 9.36831 3.33322 9.88831C3.29989 10.0883 3.16659 10.365 2.93326 10.7183Z" stroke="#FDF6ED" stroke-width="2"/>
<path d="M26.7636 15.6386C25.1036 18.012 25.467 19.0386 27.8536 18.7186C33.1436 18.0186 34.5736 21.4486 36.9636 24.9486C38.5103 27.2086 39.4703 26.8553 39.8436 23.8886C40.7703 16.542 37.587 13.122 30.2936 13.6286C28.807 13.7353 27.6303 14.4053 26.7636 15.6386Z" stroke="#957828" stroke-width="2"/>
<path d="M20.2231 24.7982C15.5531 32.6082 25.6731 40.0382 30.7931 33.0082C30.8365 32.9481 30.8662 32.8789 30.8796 32.8063C30.8931 32.7337 30.8899 32.6597 30.8704 32.5904C30.8509 32.5211 30.8156 32.4585 30.7674 32.4077C30.7192 32.3569 30.6594 32.3194 30.5931 32.2982C26.6997 31.0849 23.9331 28.6149 22.2931 24.8882C21.6931 23.5282 21.0031 23.4982 20.2231 24.7982Z" stroke="#957828" stroke-width="2"/>
<path d="M5.03442 12.6581L7.3244 9.86806C10.2311 6.9214 13.4844 4.40473 17.0844 2.31806C17.4133 2.13145 17.7538 2.05343 18.0444 2.09806C19.3178 2.30472 20.4744 2.0614 21.5144 1.36806C21.7398 1.21997 22.1186 1.13778 22.5744 1.13807C26.6444 1.09807 31.0944 0.508062 34.9244 2.11806C38.3844 3.57806 41.4744 4.70806 44.2844 7.37806C45.6444 8.67139 46.9944 9.9814 48.3344 11.3081C54.2944 17.2381 53.2745 23.9281 52.8145 31.6281C52.7211 33.2747 52.2044 34.7747 51.2644 36.1281C48.9444 39.4781 46.7744 42.4381 43.0444 44.5581C35.9044 48.5881 30.9344 49.7481 22.5244 48.5981C21.3577 48.4381 20.4611 48.0014 19.8344 47.2881C19.6002 47.0215 19.3281 46.8366 19.0544 46.7581C14.4244 45.3981 9.6244 40.6581 7.0744 37.4581C5.6144 35.6247 4.55107 33.5814 3.8844 31.3281C2.8444 27.8181 3.21442 24.4981 2.90442 20.6681C2.67775 17.8547 3.38776 15.1847 5.03442 12.6581ZM26.7644 15.6381C25.1044 18.0114 25.4678 19.0381 27.8544 18.7181C33.1444 18.0181 34.5744 21.4481 36.9644 24.9481C38.5111 27.2081 39.4711 26.8547 39.8444 23.8881C40.7711 16.5414 37.5878 13.1214 30.2944 13.6281C28.8078 13.7347 27.6311 14.4047 26.7644 15.6381ZM20.2244 24.7981C15.5544 32.6081 25.6744 40.0381 30.7944 33.0081C30.8379 32.948 30.8675 32.8788 30.881 32.8061C30.8944 32.7335 30.8913 32.6595 30.8718 32.5902C30.8522 32.5209 30.8169 32.4584 30.7687 32.4076C30.7205 32.3568 30.6608 32.3192 30.5944 32.2981C26.7011 31.0847 23.9344 28.6147 22.2944 24.8881C21.6944 23.5281 21.0044 23.4981 20.2244 24.7981Z" fill="#FDCD4A"/>
<path d="M7.32394 9.86805L5.03396 12.658C4.52063 13.1447 4.05728 13.6747 3.64395 14.2481C3.02395 15.0981 3.33397 13.9181 3.41397 13.8081C4.24397 12.5881 5.63395 9.75806 6.64395 8.91806C8.29728 7.54472 8.52394 7.86139 7.32394 9.86805Z" fill="#F2BDAF"/>
<path d="M3.33322 9.88831C3.41322 9.36831 3.61988 8.91497 3.95322 8.52831C4.33988 8.08831 4.43659 8.19497 4.24326 8.8483C3.14326 12.5183 1.28326 14.9683 1.18326 18.5783C1.17659 18.905 1.14991 18.9016 1.10324 18.5683C0.736574 15.715 1.34659 13.0983 2.93326 10.7183C3.16659 10.365 3.29989 10.0883 3.33322 9.88831Z" fill="#FCF3EB"/>
<path d="M26.7675 15.6381C27.6342 14.4048 28.8109 13.7348 30.2975 13.6281C37.5909 13.1215 40.7742 16.5415 39.8475 23.8881C39.4742 26.8548 38.5142 27.2081 36.9675 24.9481C34.5775 21.4481 33.1475 18.0181 27.8575 18.7181C25.4709 19.0381 25.1075 18.0115 26.7675 15.6381Z" fill="#2D2206"/>
<path d="M20.227 24.7982C21.007 23.4982 21.697 23.5282 22.297 24.8882C23.937 28.6149 26.7036 31.0849 30.597 32.2982C30.6633 32.3194 30.7231 32.3569 30.7713 32.4077C30.8195 32.4585 30.8548 32.5211 30.8743 32.5904C30.8938 32.6597 30.897 32.7337 30.8835 32.8063C30.8701 32.8789 30.8405 32.9481 30.797 33.0082C25.677 40.0382 15.557 32.6082 20.227 24.7982Z" fill="#2D2206"/>
</svg>
