<svg width="167" height="186" viewBox="0 0 167 186" fill="none" xmlns="http://www.w3.org/2000/svg">
<path d="M96.3921 5.66513L104.592 6.56516C104.985 6.60368 105.323 6.74591 105.542 6.96518C108.262 9.68518 111.522 11.4185 115.322 12.1651C116.762 12.4451 117.195 11.9185 116.622 10.5852C113.642 3.55851 108.115 0.395124 100.042 1.09512C97.7921 1.28512 96.6721 1.21517 95.5121 3.01517C94.4921 4.6085 94.7854 5.4918 96.3921 5.66513Z" stroke="#F7A89C" stroke-width="2"/>
<path d="M55.528 7.98376C55.3953 7.74048 55.2161 7.52568 55.0004 7.35168C54.7848 7.17768 54.537 7.04783 54.2712 6.9696C54.0053 6.89136 53.7267 6.8663 53.4512 6.89575C53.1757 6.92519 52.9087 7.00859 52.6654 7.14123L29.4164 19.8169C29.1731 19.9496 28.9583 20.1288 28.7843 20.3445C28.6103 20.5601 28.4805 20.8079 28.4023 21.0737C28.324 21.3395 28.2989 21.6182 28.3284 21.8937C28.3578 22.1693 28.4412 22.4363 28.5739 22.6796L28.6218 22.7673C28.7544 23.0106 28.9337 23.2254 29.1493 23.3994C29.3649 23.5734 29.6128 23.7033 29.8786 23.7815C30.1444 23.8597 30.423 23.8848 30.6986 23.8553C30.9741 23.8259 31.2411 23.7425 31.4844 23.6099L54.7334 10.9341C54.9767 10.8015 55.1914 10.6223 55.3654 10.4066C55.5394 10.191 55.6692 9.94312 55.7475 9.6773C55.8257 9.41148 55.8508 9.13288 55.8214 8.85735C55.7919 8.58183 55.7085 8.31481 55.5759 8.07153L55.528 7.98376Z" stroke="#F5A193" stroke-width="2"/>
<path d="M119.904 113.485C117.544 123.395 110.174 126.435 102.574 131.035C88.5938 139.505 78.2638 150.995 60.5738 140.475C47.4538 132.675 29.1737 114.155 28.1237 98.3654C27.1304 83.4654 30.6238 69.6253 38.6038 56.8454C45.8338 45.2453 57.2638 39.7654 68.5038 33.1354C69.6904 32.4287 70.4838 31.4121 70.8838 30.0854C72.2038 25.6854 67.6738 24.7454 64.3838 25.5654C43.9338 30.6554 28.2537 50.8154 22.9337 70.4154C20.2737 80.2154 18.0338 93.1854 21.1438 103.095C27.2838 122.665 41.7438 138.975 60.0838 147.685C71.6838 153.185 82.7538 149.955 93.0338 143.365C108.134 133.675 128.134 126.755 129.644 105.625C130.464 94.2754 128.454 84.4854 120.764 75.4854C114.504 68.1587 108.487 62.102 102.714 57.3154C93.0138 49.2754 80.6938 50.3454 68.9138 52.8554C53.1538 56.2254 41.4338 68.4954 39.7338 84.4254C39.0038 91.2054 38.4538 100.695 42.2538 106.735C47.5538 115.149 53.9671 122.532 61.4938 128.885C68.7738 135.015 75.6238 136.775 85.0338 133.925C94.6038 131.025 101.444 129.345 107.534 124.405C111.347 121.319 115.39 117.632 119.664 113.345C119.897 113.112 119.977 113.159 119.904 113.485Z" stroke="#FBAFA3" stroke-width="2"/>
<path d="M91.1712 31.5056C110.391 37.6356 123.351 49.3556 132.751 67.2556C141.981 84.8556 142.111 105.276 138.441 124.646C135.981 137.626 116.741 146.816 107.011 154.266C104.771 155.986 101.401 160.436 101.141 162.506C100.501 167.626 100.481 173.536 96.7713 175.636C94.5779 176.882 90.6413 178.392 84.9613 180.166C84.8009 180.216 84.6539 180.296 84.53 180.401C84.406 180.506 84.3076 180.634 84.2413 180.776C82.7713 183.926 85.2812 184.666 87.7912 184.136C94.3212 182.756 99.2312 182.316 103.611 176.676C108.171 170.816 105.741 161.856 111.981 157.576C124.721 148.846 142.521 139.506 144.821 122.986C146.211 112.996 145.651 102.556 144.901 91.0056C144.175 79.8189 140.675 69.6022 134.401 60.3556C126.371 48.5356 106.441 21.1856 89.4613 25.6756C89.3068 25.7196 89.1641 25.793 89.0419 25.891C88.9198 25.9891 88.8208 26.1098 88.7512 26.2456C87.3612 28.9556 88.3412 30.6056 91.1712 31.5056Z" stroke="#F7A89C" stroke-width="2"/>
<path d="M152.362 57.3654C151.392 53.7254 142.172 25.3753 134.992 31.1553C134.889 31.2393 134.824 31.3629 134.811 31.5005C134.798 31.6382 134.838 31.7795 134.922 31.8954C140.922 40.4154 144.392 49.3353 148.372 58.8453C149.942 62.5953 153.372 61.1854 152.362 57.3654Z" stroke="#F5A193" stroke-width="2"/>
<path d="M3.31259 83.9256C5.16592 84.5256 6.16927 83.8622 6.3226 81.9356C6.7826 76.2856 8.39259 70.4556 10.3426 65.1356C11.1159 63.0223 11.2393 61.3656 10.7126 60.1656C9.96595 58.4789 8.7326 57.8656 7.0126 58.3256C6.76156 58.3968 6.51485 58.5971 6.3226 58.8856C2.0526 65.2556 1.25259 73.2456 1.00259 80.6356C0.949258 82.3156 1.71926 83.4122 3.31259 83.9256Z" stroke="#F9AB9F" stroke-width="2"/>
<path d="M164.734 87.3254C159.324 85.7154 157.004 97.1754 156.294 100.935C155.554 104.845 153.124 112.625 154.634 116.215C154.827 116.677 155.178 117.052 155.618 117.265C156.057 117.478 156.552 117.514 157.004 117.365C158.31 116.925 159.474 116.255 160.494 115.355C160.573 115.287 160.643 115.162 160.697 114.992C160.752 114.822 160.788 114.614 160.804 114.385C161.374 105.675 164.044 97.2753 165.564 88.6653C165.612 88.3792 165.555 88.0851 165.402 87.8383C165.249 87.5915 165.012 87.4091 164.734 87.3254Z" stroke="#F9AB9F" stroke-width="2"/>
<path d="M2.14164 104.595C2.67164 112.365 6.44162 133.085 17.2816 131.925C17.4541 131.907 17.6146 131.85 17.7441 131.762C17.8736 131.673 17.9665 131.556 18.0116 131.425C18.2416 130.745 17.8716 130.026 17.2916 129.526C9.39163 122.666 8.86163 114.265 6.82163 105.055C6.44163 103.315 5.28163 102.135 3.47163 102.675C3.06365 102.797 2.70944 103.054 2.4676 103.403C2.22576 103.752 2.11078 104.173 2.14164 104.595Z" stroke="#F6A598" stroke-width="2"/>
<path d="M134.911 169.816C135.234 169.957 135.579 170.023 135.915 170.007C136.252 169.992 136.57 169.895 136.841 169.726L153.181 159.576C154.029 159.054 154.697 158.317 155.101 157.456C155.628 156.316 155.108 155.866 153.541 156.106C145.975 157.266 139.495 160.506 134.101 165.826C132.501 167.416 132.961 168.966 134.911 169.816Z" stroke="#F6A598" stroke-width="2"/>
<path d="M40.1741 160.825C42.0141 163.055 49.6841 164.025 52.5141 164.385C54.1841 164.595 64.9041 169.245 63.8641 164.035C63.6974 163.209 63.1507 162.442 62.2241 161.735C56.4507 157.315 49.9374 155.802 42.6841 157.195C41.0341 157.515 38.6441 158.975 40.1741 160.825Z" stroke="#F7A89C" stroke-width="2"/>
<path d="M48.6012 106.875C53.4612 114.865 65.1912 126.485 75.4212 130.095C76.4412 130.455 77.4646 130.472 78.4913 130.146C84.6446 128.179 90.7679 126.149 96.8612 124.055C103.521 121.765 108.741 116.445 113.541 111.175C122.791 101.025 120.531 84.7255 113.091 74.6555C105.491 64.3555 95.6512 57.7155 82.8512 57.9355C69.3512 58.1655 57.8312 61.9555 51.3912 74.1855C47.8212 80.9655 44.4712 100.085 48.6012 106.875Z" stroke="#FBAFA3" stroke-width="2"/>
<path d="M62.6844 112.425C69.5944 119.335 72.5944 119.595 83.3444 119.695C87.9144 119.745 91.1644 118.535 94.4544 115.745C103.821 107.778 106.971 97.5618 103.904 85.0951C101.914 77.0451 90.4944 68.7652 82.4044 68.5152C68.2544 68.0952 57.4644 79.4651 57.3444 93.2251C57.2744 101.245 56.8244 106.575 62.6844 112.425Z" stroke="#FFB5A8" stroke-width="2"/>
<path d="M70.2042 91.2953C68.2509 91.0419 67.9242 90.172 69.2242 88.6853C72.9742 84.4053 78.0342 80.6353 83.4542 85.0953C87.9475 88.7886 88.3942 93.6353 84.7942 99.6353C84.7003 99.7934 84.6467 99.9723 84.6383 100.156C84.6299 100.34 84.6669 100.523 84.7459 100.689C84.825 100.855 84.9438 100.999 85.0917 101.108C85.2396 101.217 85.4122 101.289 85.5942 101.315C91.2042 102.155 95.5742 94.2753 95.0042 89.4253C94.994 89.3434 94.9679 89.2634 94.9282 89.192C94.8884 89.1206 94.8362 89.0601 94.7761 89.0158C94.716 88.9714 94.6498 88.9445 94.5832 88.9375C94.5167 88.9304 94.4518 88.9434 94.3942 88.9753C93.2675 89.6086 92.0942 89.7753 90.8742 89.4753C90.7914 89.4567 90.7031 89.3571 90.6234 89.1923C90.5437 89.0275 90.4771 88.8068 90.4342 88.5653C89.6008 83.712 86.8975 80.3186 82.3242 78.3853C76.7742 76.0453 70.5642 80.8153 67.6442 85.2053C62.5742 92.8353 65.1542 110.725 74.6742 114.435C76.4675 115.135 78.2642 115.132 80.0642 114.425C84.6508 112.612 88.5375 109.829 91.7242 106.075C92.2575 105.449 92.1275 105.252 91.3342 105.485C81.8742 108.205 70.1342 104.605 74.7442 92.2653C74.7951 92.1285 74.8099 91.981 74.7872 91.8368C74.7645 91.6927 74.7051 91.5568 74.6147 91.4423C74.5242 91.3278 74.4059 91.2384 74.2709 91.1829C74.136 91.1274 73.989 91.1076 73.8442 91.1253C72.1842 91.3386 70.9709 91.3953 70.2042 91.2953Z" stroke="#FFB2A5" stroke-width="2"/>
<path d="M96.396 5.66513C94.7893 5.4918 94.496 4.6085 95.516 3.01517C96.676 1.21517 97.796 1.28512 100.046 1.09512C108.119 0.395124 113.646 3.55851 116.626 10.5852C117.199 11.9185 116.766 12.4451 115.326 12.1651C111.526 11.4185 108.266 9.68518 105.546 6.96518C105.326 6.74591 104.989 6.60368 104.596 6.56516L96.396 5.66513Z" fill="#EF5138"/>
<path d="M55.5759 8.07153C55.7085 8.31481 55.7919 8.58183 55.8214 8.85735C55.8508 9.13288 55.8257 9.41148 55.7475 9.6773C55.6692 9.94312 55.5394 10.191 55.3654 10.4066C55.1914 10.6223 54.9767 10.8015 54.7334 10.9341L31.4844 23.6099C31.2411 23.7425 30.9741 23.8259 30.6986 23.8553C30.423 23.8848 30.1444 23.8597 29.8786 23.7815C29.6128 23.7033 29.3649 23.5734 29.1493 23.3994C28.9337 23.2254 28.7544 23.0106 28.6218 22.7673L28.5739 22.6796C28.4412 22.4363 28.3578 22.1693 28.3284 21.8937C28.2989 21.6182 28.324 21.3395 28.4023 21.0737C28.4805 20.8079 28.6103 20.5601 28.7843 20.3445C28.9583 20.1288 29.1731 19.9496 29.4164 19.8169L52.6654 7.14123C52.9087 7.00859 53.1757 6.92519 53.4512 6.89575C53.7267 6.8663 54.0053 6.89136 54.2712 6.9696C54.537 7.04783 54.7848 7.17768 55.0004 7.35168C55.2161 7.52568 55.3953 7.74048 55.528 7.98376L55.5759 8.07153Z" fill="#EA4227"/>
<path d="M119.664 113.345C115.39 117.632 111.347 121.319 107.534 124.405C101.444 129.345 94.6038 131.025 85.0338 133.925C75.6238 136.775 68.7738 135.015 61.4938 128.885C53.9671 122.532 47.5538 115.149 42.2538 106.735C38.4538 100.695 39.0038 91.2054 39.7338 84.4254C41.4338 68.4954 53.1538 56.2254 68.9138 52.8554C80.6938 50.3454 93.0138 49.2754 102.714 57.3154C108.487 62.102 114.504 68.1587 120.764 75.4854C128.454 84.4854 130.464 94.2754 129.644 105.625C128.134 126.755 108.134 133.675 93.0338 143.365C82.7538 149.955 71.6838 153.185 60.0838 147.685C41.7438 138.975 27.2838 122.665 21.1438 103.095C18.0338 93.1853 20.2737 80.2154 22.9337 70.4154C28.2537 50.8154 43.9338 30.6554 64.3838 25.5654C67.6738 24.7454 72.2038 25.6854 70.8838 30.0854C70.4838 31.4121 69.6904 32.4287 68.5038 33.1354C57.2638 39.7654 45.8338 45.2453 38.6038 56.8454C30.6238 69.6254 27.1304 83.4654 28.1237 98.3654C29.1737 114.155 47.4538 132.675 60.5738 140.475C78.2638 150.995 88.5938 139.505 102.574 131.035C110.174 126.435 117.544 123.395 119.904 113.485C119.977 113.159 119.897 113.112 119.664 113.345ZM48.6038 106.875C53.4638 114.865 65.1938 126.485 75.4238 130.095C76.4438 130.455 77.4671 130.472 78.4938 130.145C84.6471 128.179 90.7704 126.149 96.8638 124.055C103.524 121.765 108.744 116.445 113.544 111.175C122.794 101.025 120.534 84.7253 113.094 74.6553C105.494 64.3553 95.6538 57.7154 82.8538 57.9354C69.3538 58.1654 57.8338 61.9554 51.3938 74.1854C47.8238 80.9654 44.4738 100.085 48.6038 106.875Z" fill="#F75F46"/>
<path d="M91.1752 31.5056C88.3452 30.6056 87.3651 28.9556 88.7551 26.2456C88.8247 26.1098 88.9237 25.9891 89.0458 25.891C89.168 25.793 89.3107 25.7196 89.4652 25.6756C106.445 21.1856 126.375 48.5356 134.405 60.3556C140.679 69.6022 144.179 79.8189 144.905 91.0056C145.655 102.556 146.215 112.996 144.825 122.986C142.525 139.506 124.725 148.846 111.985 157.576C105.745 161.856 108.175 170.816 103.615 176.676C99.2352 182.316 94.3251 182.756 87.7951 184.136C85.2851 184.666 82.7752 183.926 84.2452 180.776C84.3116 180.634 84.4099 180.506 84.5339 180.401C84.6578 180.296 84.8048 180.216 84.9652 180.166C90.6452 178.392 94.5818 176.882 96.7752 175.636C100.485 173.536 100.505 167.626 101.145 162.506C101.405 160.436 104.775 155.986 107.015 154.266C116.745 146.816 135.985 137.626 138.445 124.646C142.115 105.276 141.985 84.8556 132.755 67.2556C123.355 49.3556 110.395 37.6356 91.1752 31.5056Z" fill="#EF5138"/>
<path d="M134.996 31.1553C142.176 25.3753 151.396 53.7254 152.366 57.3654C153.376 61.1854 149.946 62.5953 148.376 58.8453C144.396 49.3353 140.926 40.4154 134.926 31.8954C134.842 31.7795 134.802 31.6382 134.815 31.5005C134.828 31.3629 134.893 31.2393 134.996 31.1553Z" fill="#EA4227"/>
<path d="M3.31649 83.9251C1.72316 83.4118 0.953164 82.3151 1.0065 80.6351C1.2565 73.2451 2.0565 65.2551 6.3265 58.8851C6.51876 58.5966 6.76547 58.3963 7.01651 58.3251C8.73651 57.8651 9.96985 58.4784 10.7165 60.1651C11.2432 61.3651 11.1198 63.0218 10.3465 65.1351C8.39649 70.4551 6.7865 76.2851 6.3265 81.9351C6.17317 83.8618 5.16983 84.5251 3.31649 83.9251Z" fill="#F2573F"/>
<path d="M164.737 87.3254C165.015 87.4091 165.253 87.5915 165.406 87.8383C165.559 88.0851 165.616 88.3792 165.567 88.6653C164.047 97.2753 161.377 105.675 160.807 114.385C160.792 114.614 160.755 114.822 160.701 114.992C160.647 115.162 160.577 115.287 160.497 115.355C159.477 116.255 158.314 116.925 157.007 117.365C156.556 117.514 156.061 117.478 155.622 117.265C155.182 117.052 154.831 116.677 154.637 116.215C153.127 112.625 155.557 104.845 156.297 100.935C157.007 97.1754 159.327 85.7154 164.737 87.3254Z" fill="#F2573F"/>
<path d="M17.2855 131.925C6.44553 133.085 2.67555 112.365 2.14555 104.595C2.11468 104.173 2.22966 103.752 2.4715 103.403C2.71335 103.054 3.06755 102.797 3.47553 102.675C5.28553 102.135 6.44554 103.315 6.82554 105.055C8.86554 114.265 9.39554 122.666 17.2955 129.526C17.8755 130.026 18.2455 130.745 18.0155 131.425C17.9704 131.556 17.8775 131.673 17.748 131.762C17.6186 131.85 17.458 131.907 17.2855 131.925Z" fill="#EC4B30"/>
<path d="M134.915 169.815C132.965 168.965 132.505 167.415 134.105 165.825C139.498 160.505 145.978 157.265 153.545 156.105C155.112 155.865 155.632 156.315 155.105 157.455C154.7 158.316 154.033 159.053 153.185 159.575L136.845 169.725C136.573 169.894 136.255 169.991 135.919 170.007C135.583 170.023 135.238 169.957 134.915 169.815Z" fill="#EC4B30"/>
<path d="M40.1741 160.825C38.6441 158.975 41.0341 157.515 42.6841 157.195C49.9374 155.802 56.4507 157.315 62.2241 161.735C63.1507 162.442 63.6974 163.209 63.8641 164.035C64.9041 169.245 54.1841 164.595 52.5141 164.385C49.6841 164.025 42.0141 163.055 40.1741 160.825Z" fill="#EF5138"/>
<path d="M75.4251 130.095C65.1952 126.485 53.4651 114.865 48.6051 106.875C44.4751 100.085 47.8252 80.9655 51.3952 74.1855C57.8351 61.9555 69.3551 58.1655 82.8551 57.9355C95.6551 57.7155 105.495 64.3555 113.095 74.6555C120.535 84.7255 122.795 101.025 113.545 111.175C108.745 116.445 103.525 121.765 96.8652 124.055C90.7718 126.149 84.6485 128.179 78.4952 130.146C77.4685 130.472 76.4452 130.455 75.4251 130.095ZM62.6851 112.425C69.5951 119.335 72.5951 119.595 83.3451 119.695C87.9151 119.745 91.1651 118.535 94.4551 115.745C103.822 107.779 106.972 97.5621 103.905 85.0955C101.915 77.0455 90.4951 68.7655 82.4051 68.5155C68.2551 68.0955 57.4651 79.4655 57.3451 93.2255C57.2751 101.245 56.8251 106.575 62.6851 112.425Z" fill="white"/>
<path d="M62.6844 112.426C56.8244 106.576 57.2744 101.246 57.3444 93.2256C57.4644 79.4656 68.2544 68.0957 82.4044 68.5157C90.4944 68.7657 101.914 77.0456 103.904 85.0956C106.971 97.5623 103.821 107.779 94.4544 115.746C91.1644 118.536 87.9144 119.746 83.3444 119.696C72.5944 119.596 69.5944 119.336 62.6844 112.426ZM70.2044 91.2956C68.2511 91.0423 67.9244 90.1723 69.2244 88.6857C72.9744 84.4057 78.0344 80.6356 83.4544 85.0956C87.9478 88.789 88.3944 93.6357 84.7944 99.6357C84.7005 99.7938 84.647 99.9726 84.6386 100.156C84.6302 100.34 84.6671 100.523 84.7462 100.689C84.8252 100.855 84.944 100.999 85.0919 101.108C85.2399 101.218 85.4124 101.289 85.5944 101.316C91.2044 102.156 95.5744 94.2756 95.0044 89.4256C94.9942 89.3438 94.9682 89.2637 94.9284 89.1924C94.8887 89.121 94.8365 89.0605 94.7764 89.0162C94.7162 88.9718 94.65 88.9449 94.5835 88.9378C94.5169 88.9308 94.452 88.9438 94.3944 88.9756C93.2678 89.609 92.0944 89.7756 90.8744 89.4756C90.7916 89.4571 90.7034 89.3575 90.6237 89.1927C90.544 89.0278 90.4774 88.8072 90.4344 88.5657C89.6011 83.7123 86.8978 80.319 82.3244 78.3857C76.7744 76.0457 70.5644 80.8157 67.6444 85.2057C62.5744 92.8357 65.1544 110.726 74.6744 114.436C76.4678 115.136 78.2644 115.132 80.0644 114.426C84.6511 112.612 88.5377 109.829 91.7244 106.076C92.2577 105.449 92.1278 105.252 91.3344 105.486C81.8744 108.206 70.1344 104.606 74.7444 92.2657C74.7953 92.1289 74.8101 91.9813 74.7874 91.8372C74.7647 91.6931 74.7053 91.5572 74.6149 91.4427C74.5245 91.3281 74.4061 91.2388 74.2712 91.1833C74.1362 91.1278 73.9892 91.1079 73.8444 91.1257C72.1844 91.339 70.9711 91.3956 70.2044 91.2956Z" fill="#FF6A51"/>
<path d="M70.2042 91.2958C70.9709 91.3958 72.1842 91.3391 73.8442 91.1258C73.989 91.108 74.136 91.1279 74.2709 91.1834C74.4059 91.2389 74.5242 91.3283 74.6147 91.4428C74.7051 91.5573 74.7645 91.6932 74.7872 91.8373C74.8099 91.9815 74.7951 92.129 74.7442 92.2658C70.1342 104.606 81.8742 108.206 91.3342 105.486C92.1275 105.252 92.2575 105.449 91.7242 106.076C88.5375 109.829 84.6508 112.612 80.0642 114.426C78.2642 115.132 76.4675 115.136 74.6742 114.436C65.1542 110.726 62.5742 92.8358 67.6442 85.2058C70.5642 80.8158 76.7742 76.0458 82.3242 78.3858C86.8975 80.3191 89.6008 83.7124 90.4342 88.5658C90.4771 88.8073 90.5437 89.028 90.6234 89.1928C90.7031 89.3576 90.7914 89.4572 90.8742 89.4758C92.0942 89.7758 93.2675 89.6091 94.3942 88.9758C94.4518 88.9439 94.5167 88.9309 94.5832 88.938C94.6498 88.945 94.716 88.9719 94.7761 89.0163C94.8362 89.0606 94.8884 89.1211 94.9282 89.1925C94.9679 89.2639 94.994 89.3439 95.0042 89.4258C95.5742 94.2758 91.2042 102.156 85.5942 101.316C85.4122 101.289 85.2396 101.218 85.0917 101.109C84.9438 100.999 84.825 100.855 84.7459 100.689C84.6669 100.523 84.6299 100.34 84.6383 100.156C84.6467 99.9728 84.7003 99.7939 84.7942 99.6358C88.3942 93.6358 87.9475 88.7891 83.4542 85.0958C78.0342 80.6358 72.9742 84.4058 69.2242 88.6858C67.9242 90.1724 68.2509 91.0424 70.2042 91.2958Z" fill="#FEFAF8"/>
</svg>
