<svg width="122" height="225" viewBox="0 0 122 225" fill="none" xmlns="http://www.w3.org/2000/svg">
<path d="M42.3637 37.9152L30.4038 37.4252C30.3314 37.4213 30.259 37.4303 30.1909 37.4516C30.1229 37.473 30.0607 37.5062 30.0082 37.5493C29.9557 37.5924 29.914 37.6445 29.8858 37.7023C29.8575 37.76 29.8432 37.8223 29.8438 37.8852C29.8504 38.2852 30.0471 38.5885 30.4337 38.7952C43.2637 45.6352 54.4238 51.5152 62.9738 62.1052" stroke="#9498AC" stroke-width="2"/>
<path d="M62.9727 62.1055L65.7326 67.3855" stroke="#898C9B" stroke-width="2"/>
<path d="M65.7302 67.385C55.3435 64.7717 44.9335 62.415 34.5002 60.315C33.5102 60.115 31.7002 60.455 33.3402 61.815C41.8402 68.905 49.7502 74.585 50.4802 86.215" stroke="#FEBBB1" stroke-width="2"/>
<path d="M50.4801 86.2153C48.5534 91.882 46.0134 96.5287 42.8601 100.155C30.9401 113.869 20.9801 127.322 12.9801 140.515C4.30007 154.815 0.300069 173.445 1.10007 190.455C1.2934 194.602 2.16679 198.699 3.72013 202.745" stroke="#898C9B" stroke-width="2"/>
<path d="M3.72309 202.745C3.52309 206.212 4.57974 209.348 6.89307 212.155C6.93265 212.206 6.98235 212.247 7.03925 212.278C7.09616 212.308 7.15911 212.327 7.22437 212.332C7.28964 212.338 7.35587 212.331 7.4192 212.31C7.48253 212.29 7.54167 212.258 7.59309 212.215C10.4731 209.765 12.3431 206.875 16.6931 206.755" stroke="#9498AC" stroke-width="2"/>
<path d="M16.6901 206.755C16.7501 212.985 15.7701 223.705 22.5701 223.115C24.8001 222.915 28.2301 222.245 30.1501 220.725C31.1101 219.965 31.5468 218.962 31.4601 217.715L30.9001 209.465C30.8876 209.276 30.9043 209.096 30.9491 208.936C30.9939 208.775 31.0658 208.639 31.1601 208.535L32.1901 207.425" stroke="#BFE6DB" stroke-width="2"/>
<path d="M32.1914 207.425C35.1414 207.795 37.4514 208.025 40.2014 206.455C44.5014 204.005 47.1314 202.335 51.6714 201.805" stroke="#9498AC" stroke-width="2"/>
<path d="M51.6707 201.805C51.8107 202.625 51.7341 204.429 51.4407 207.215C51.3074 208.489 51.5607 211.022 52.2007 214.815C53.1107 220.245 61.9908 218.985 65.5308 217.825C66.8308 217.399 67.4807 216.502 67.4807 215.135C67.4874 210.769 66.8074 206.309 65.4407 201.755" stroke="#BAE2D8" stroke-width="2"/>
<path d="M65.4414 201.755C74.6814 206.105 79.5014 199.775 85.9914 196.875" stroke="#9498AC" stroke-width="2"/>
<path d="M85.9922 196.875C87.7855 203.502 88.9389 210.202 89.4522 216.975C89.5989 218.915 90.6222 220.089 92.5222 220.495C96.7522 221.395 107.562 220.875 107.202 213.945C106.942 208.885 106.249 203.899 105.122 198.985C104.822 197.692 105.179 196.922 106.192 196.675" stroke="#BFE6DB" stroke-width="2"/>
<path d="M106.191 196.675C110.471 197.655 114.738 197.695 118.991 196.795" stroke="#9498AC" stroke-width="2"/>
<path d="M118.993 196.795C119.633 196.015 120.273 195.285 120.283 194.215C120.343 178.135 117.34 163.279 111.273 149.645C101.803 128.345 95.0833 111.275 92.6533 89.2352C92.2433 85.5352 92.5533 80.1952 93.4333 77.2152C97.3933 63.7852 101.993 50.4452 97.9633 36.5152C93.7233 21.8652 80.6933 9.32523 67.3633 1.65523C65.2033 0.415228 64.63 0.935225 65.6433 3.21523C66.8233 5.88856 67.6066 8.97189 67.9933 12.4652C69.8133 29.2052 59.8433 39.4952 42.3633 37.9152" stroke="#878997" stroke-width="2"/>
<path d="M118.993 196.795C118.14 196.582 117.77 196.222 117.883 195.715C118.55 192.882 118.727 190.025 118.413 187.145C116.8 172.272 112.887 158.115 106.673 144.675C103.627 138.075 101.667 133.545 100.793 131.085C97.6201 122.179 95.0035 113.109 92.9435 103.875C92.3635 101.245 92.0735 98.0853 91.4735 95.1853C89.2335 84.4453 91.9135 75.5152 94.6235 66.1452C97.7235 55.4252 98.8535 44.1153 94.6835 33.7453C89.4435 20.7253 80.8135 13.6353 70.0735 5.55525C69.5835 5.18525 67.9135 4.62526 68.3735 5.98526C69.1535 8.25193 69.5668 9.74858 69.6135 10.4753C70.0335 16.9453 69.9535 24.7553 65.7835 30.2453C60.7135 36.9353 52.3035 39.5353 43.9735 40.0953C43.5681 40.1234 43.1621 40.0556 42.7885 39.8975C42.4148 39.7393 42.0842 39.4953 41.8235 39.1853C41.4768 38.7653 41.6568 38.3419 42.3635 37.9153" stroke="#1D224A" stroke-width="2"/>
<path d="M106.192 196.675C99.2789 193.228 92.5455 193.295 85.9922 196.875" stroke="#557F8E" stroke-width="2"/>
<path d="M65.4419 201.755C60.6419 201.095 56.0519 201.112 51.6719 201.805" stroke="#507B8B" stroke-width="2"/>
<path d="M32.1914 207.425C27.1114 205.785 21.9447 205.562 16.6914 206.755" stroke="#557F8E" stroke-width="2"/>
<path d="M3.72011 202.745C2.94678 193.859 2.96343 185.009 3.7701 176.195C5.1301 161.355 9.01009 150.065 16.9501 137.945C24.4568 126.485 31.6634 116.375 38.5701 107.615C42.5101 102.625 51.6701 93.4455 51.9501 86.9155C51.956 86.7679 52.006 86.6257 52.0935 86.5079C52.181 86.39 52.3019 86.302 52.4401 86.2555C56.8901 84.6955 62.6301 83.1854 65.6001 79.6754C69.0667 75.5688 69.4401 70.6788 66.7201 65.0055C66.4068 64.3521 65.1568 63.3855 62.9701 62.1055" stroke="#1F264E" stroke-width="2"/>
<path d="M65.7305 67.3853C68.9905 74.5053 63.5205 81.2652 56.6805 82.9652C53.9405 83.6519 51.8738 84.7352 50.4805 86.2152" stroke="#894953" stroke-width="2"/>
<path d="M84.8231 142.585C85.4764 144.565 86.7498 145.992 88.6431 146.865C94.3531 149.495 100.093 145.445 98.8031 139.135C98.3764 137.035 97.0931 135.979 94.9531 135.965C91.9831 135.955 87.9631 135.875 85.9431 138.375C84.7498 139.849 84.3764 141.252 84.8231 142.585Z" stroke="#322E49" stroke-width="2"/>
<path d="M67.3234 150.495C71.9168 152.875 75.5367 151.965 78.1834 147.765C85.5134 136.135 67.9734 135.385 64.3334 142.495C64.1775 142.807 64.1249 143.151 64.1834 143.475L64.9034 147.225C65.1901 148.719 65.9968 149.809 67.3234 150.495Z" stroke="#322E49" stroke-width="2"/>
<path d="M24.941 143.675C18.9277 146.235 18.3177 149.885 23.111 154.625" stroke="#917745" stroke-width="2"/>
<path d="M23.1133 154.625C26.2133 154.985 28.4933 153.995 29.9533 151.655C32.5033 147.565 30.7333 143.165 25.9433 142.135C25.6014 142.058 25.263 142.097 24.9933 142.245C24.1666 142.679 24.15 143.155 24.9433 143.675" stroke="#222844" stroke-width="2"/>
<path d="M23.1133 154.625C26.1333 153.785 28.1333 152.249 29.1133 150.015C30.5733 146.675 28.4633 143.895 24.9433 143.675" stroke="#896E2A" stroke-width="2"/>
<path d="M52.0751 147.478C52.0284 146.871 51.8284 146.281 51.4865 145.743C51.1447 145.204 50.6678 144.728 50.0829 144.341C49.4981 143.954 48.8168 143.663 48.0779 143.486C47.3391 143.309 46.5571 143.249 45.7767 143.309C44.2007 143.43 42.7268 144.034 41.6791 144.988C40.6315 145.941 40.096 147.166 40.1903 148.393C40.2371 149 40.4371 149.59 40.7789 150.128C41.1207 150.667 41.5977 151.143 42.1825 151.53C42.7674 151.917 43.4487 152.208 44.1875 152.385C44.9264 152.562 45.7084 152.622 46.4887 152.562C48.0648 152.441 49.5387 151.837 50.5863 150.883C51.634 149.93 52.1695 148.705 52.0751 147.478Z" stroke="#937842" stroke-width="2"/>
<path d="M86.9909 165.745C87.2309 169.495 91.7609 174.165 95.6909 173.185C101.151 171.815 108.331 161.325 97.4509 160.475C92.9376 160.122 89.5376 161.578 87.2509 164.845C87.063 165.111 86.9713 165.429 86.9909 165.745Z" stroke="#322E49" stroke-width="2"/>
<path d="M79.5131 170.475C79.5131 169.009 78.9305 167.602 77.8934 166.565C76.8564 165.528 75.4497 164.945 73.9831 164.945C72.5164 164.945 71.1099 165.528 70.0728 166.565C69.0357 167.602 68.4531 169.009 68.4531 170.475C68.4531 171.942 69.0357 173.349 70.0728 174.386C71.1099 175.423 72.5164 176.005 73.9831 176.005C75.4497 176.005 76.8564 175.423 77.8934 174.386C78.9305 173.349 79.5131 171.942 79.5131 170.475Z" stroke="#937842" stroke-width="2"/>
<path d="M51.8561 172.678C51.6736 171.234 50.8839 169.926 49.6609 169.043C48.4378 168.16 46.8816 167.773 45.3344 167.969C43.7872 168.164 42.3759 168.925 41.4109 170.085C40.446 171.245 40.0064 172.708 40.1889 174.152C40.3714 175.597 41.161 176.905 42.3841 177.788C43.6071 178.671 45.1635 179.057 46.7106 178.862C48.2578 178.667 49.6691 177.905 50.634 176.746C51.599 175.586 52.0386 174.123 51.8561 172.678Z" stroke="#937842" stroke-width="2"/>
<path d="M29.7583 173.57C29.6238 172.844 29.3322 172.155 28.9001 171.542C28.468 170.928 27.9039 170.403 27.24 169.995C26.576 169.587 25.8253 169.306 25.0306 169.166C24.2359 169.026 23.4129 169.03 22.6084 169.179C20.9838 169.481 19.5336 170.351 18.5769 171.601C17.6202 172.85 17.2353 174.375 17.5069 175.841C17.6414 176.566 17.933 177.255 18.3651 177.869C18.7972 178.482 19.3614 179.008 20.0253 179.416C20.6892 179.823 21.44 180.105 22.2346 180.245C23.0293 180.385 23.8524 180.38 24.6568 180.231C26.2814 179.93 27.7317 179.059 28.6884 177.81C29.6451 176.561 30.0299 175.036 29.7583 173.57Z" stroke="#322E49" stroke-width="2"/>
<path d="M88.842 144.245C89.582 144.999 90.4787 145.412 91.532 145.485C97.002 145.855 99.202 137.585 93.372 137.475C91.6587 137.449 90.042 137.839 88.522 138.645C86.2554 139.852 86.362 141.719 88.842 144.245Z" stroke="#99742E" stroke-width="2"/>
<path d="M70.2417 149.365C77.2317 150.355 80.1617 140.025 74.7017 140.305C72.6517 140.405 69.1117 140.125 67.6317 141.195C64.5017 143.455 66.3417 148.815 70.2417 149.365Z" stroke="#9A752B" stroke-width="2"/>
<path d="M91.5601 169.955C92.8401 171.215 94.2767 171.595 95.8701 171.095C99.0767 170.095 100.763 167.882 100.93 164.455C100.94 164.245 100.903 164.036 100.821 163.838C100.739 163.64 100.614 163.458 100.453 163.303C100.293 163.148 100.099 163.022 99.8838 162.933C99.6687 162.844 99.4363 162.794 99.2001 162.785C95.5701 162.635 84.2901 162.795 91.5601 169.955Z" stroke="#99742E" stroke-width="2"/>
<path d="M27.9696 173.894C27.8643 173.377 27.6456 172.888 27.3257 172.455C27.0059 172.023 26.5913 171.655 26.1056 171.373C25.6198 171.091 25.0725 170.9 24.4949 170.811C23.9172 170.723 23.3205 170.738 22.7388 170.856C21.5641 171.095 20.5219 171.739 19.8416 172.647C19.1612 173.555 18.8985 174.652 19.111 175.697C19.2162 176.214 19.435 176.703 19.7549 177.136C20.0747 177.568 20.4893 177.936 20.975 178.218C21.4607 178.5 22.0081 178.691 22.5857 178.78C23.1634 178.868 23.7601 178.853 24.3418 178.735C25.5165 178.496 26.5586 177.852 27.239 176.944C27.9193 176.036 28.1821 174.939 27.9696 173.894Z" stroke="#957835" stroke-width="2"/>
<path d="M118.99 196.795C118.136 196.582 117.766 196.222 117.88 195.715C118.546 192.882 118.723 190.025 118.41 187.145C116.796 172.272 112.883 158.115 106.67 144.675C103.623 138.075 101.663 133.545 100.79 131.085C97.6162 122.179 94.9996 113.109 92.9396 103.875C92.3596 101.245 92.0696 98.0852 91.4696 95.1852C89.2296 84.4452 91.9096 75.5152 94.6196 66.1452C97.7196 55.4252 98.8496 44.1152 94.6796 33.7452C89.4396 20.7252 80.8096 13.6352 70.0696 5.55522C69.5796 5.18522 67.9096 4.62523 68.3696 5.98523C69.1496 8.2519 69.5629 9.74855 69.6096 10.4752C70.0296 16.9452 69.9496 24.7552 65.7796 30.2452C60.7096 36.9352 52.2996 39.5352 43.9696 40.0952C43.5642 40.1234 43.1582 40.0556 42.7845 39.8974C42.4109 39.7393 42.0803 39.4953 41.8196 39.1852C41.4729 38.7652 41.6529 38.3419 42.3596 37.9152C59.8396 39.4952 69.8096 29.2052 67.9896 12.4652C67.6029 8.97189 66.8196 5.88856 65.6396 3.21523C64.6263 0.935225 65.1996 0.415228 67.3596 1.65523C80.6896 9.32523 93.7196 21.8652 97.9596 36.5152C101.99 50.4452 97.3896 63.7852 93.4296 77.2152C92.5496 80.1952 92.2396 85.5352 92.6496 89.2352C95.0796 111.275 101.8 128.345 111.27 149.645C117.336 163.279 120.34 178.135 120.28 194.215C120.27 195.285 119.63 196.015 118.99 196.795Z" fill="#0F1334"/>
<path d="M118.99 196.795C114.737 197.695 110.47 197.655 106.19 196.675C99.2768 193.229 92.5434 193.295 85.9901 196.875C79.5001 199.775 74.6801 206.105 65.4401 201.755C60.6401 201.095 56.0501 201.112 51.6701 201.805C47.1301 202.335 44.5001 204.005 40.2001 206.455C37.4501 208.025 35.1401 207.795 32.1901 207.425C27.1101 205.785 21.9434 205.562 16.6901 206.755C12.3401 206.875 10.4701 209.765 7.59011 212.215C7.5387 212.258 7.47955 212.29 7.41622 212.311C7.35289 212.331 7.28666 212.338 7.2214 212.333C7.15613 212.327 7.09318 212.308 7.03628 212.278C6.97937 212.248 6.92967 212.206 6.8901 212.155C4.57676 209.349 3.52011 206.212 3.72011 202.745C2.94678 193.859 2.96343 185.009 3.7701 176.195C5.1301 161.355 9.01009 150.065 16.9501 137.945C24.4568 126.485 31.6634 116.375 38.5701 107.615C42.5101 102.625 51.6701 93.4453 51.9501 86.9153C51.956 86.7677 52.006 86.6255 52.0935 86.5077C52.181 86.3898 52.3019 86.3018 52.4401 86.2553C56.8901 84.6953 62.6301 83.1852 65.6001 79.6752C69.0667 75.5686 69.4401 70.6786 66.7201 65.0053C66.4068 64.3519 65.1568 63.3853 62.9701 62.1053C54.4201 51.5153 43.2601 45.6352 30.4301 38.7952C30.0434 38.5886 29.8468 38.2853 29.8401 37.8853C29.8395 37.8224 29.8538 37.7601 29.8821 37.7023C29.9104 37.6445 29.9521 37.5925 30.0045 37.5494C30.057 37.5062 30.1192 37.473 30.1873 37.4516C30.2553 37.4303 30.3277 37.4213 30.4001 37.4252L42.3601 37.9153C41.6534 38.3419 41.4734 38.7653 41.8201 39.1853C42.0808 39.4953 42.4114 39.7393 42.7851 39.8975C43.1587 40.0556 43.5647 40.1234 43.9701 40.0953C52.3001 39.5353 60.7101 36.9353 65.7801 30.2453C69.9501 24.7553 70.0301 16.9453 69.6101 10.4753C69.5634 9.74858 69.1501 8.25193 68.3701 5.98526C67.9101 4.62526 69.5801 5.18525 70.0701 5.55525C80.8101 13.6353 89.4401 20.7253 94.6801 33.7453C98.8501 44.1153 97.7201 55.4252 94.6201 66.1452C91.9101 75.5153 89.2301 84.4453 91.4701 95.1853C92.0701 98.0853 92.3601 101.245 92.9401 103.875C95.0001 113.109 97.6167 122.179 100.79 131.085C101.663 133.545 103.623 138.075 106.67 144.675C112.883 158.115 116.797 172.272 118.41 187.145C118.723 190.025 118.547 192.882 117.88 195.715C117.767 196.222 118.137 196.582 118.99 196.795ZM84.8201 142.585C85.4734 144.565 86.7468 145.992 88.6401 146.865C94.3501 149.495 100.09 145.445 98.8001 139.135C98.3734 137.035 97.0901 135.979 94.9501 135.965C91.9801 135.955 87.9601 135.875 85.9401 138.375C84.7467 139.849 84.3734 141.252 84.8201 142.585ZM67.3201 150.495C71.9134 152.875 75.5334 151.965 78.1801 147.765C85.5101 136.135 67.9701 135.385 64.3301 142.495C64.1742 142.807 64.1215 143.151 64.1801 143.475L64.9001 147.225C65.1868 148.719 65.9934 149.809 67.3201 150.495ZM24.9401 143.675C18.9268 146.235 18.3167 149.885 23.1101 154.625C26.2101 154.985 28.4901 153.995 29.9501 151.655C32.5001 147.565 30.7301 143.165 25.9401 142.135C25.5982 142.058 25.2598 142.097 24.9901 142.245C24.1634 142.679 24.1468 143.155 24.9401 143.675ZM52.0725 147.478C52.0257 146.87 51.8257 146.281 51.4839 145.742C51.1421 145.204 50.6651 144.728 50.0803 144.341C49.4954 143.954 48.8141 143.663 48.0753 143.486C47.3364 143.309 46.5544 143.249 45.7741 143.309C44.1981 143.43 42.7241 144.034 41.6765 144.987C40.6288 145.941 40.0933 147.165 40.1877 148.392C40.2344 149 40.4344 149.59 40.7763 150.128C41.1181 150.666 41.595 151.143 42.1799 151.53C42.7648 151.917 43.446 152.207 44.1849 152.384C44.9238 152.561 45.7057 152.622 46.4861 152.562C48.0621 152.44 49.536 151.837 50.5837 150.883C51.6313 149.93 52.1669 148.705 52.0725 147.478ZM86.9901 165.745C87.2301 169.495 91.7601 174.165 95.6901 173.185C101.15 171.815 108.33 161.325 97.4501 160.475C92.9368 160.122 89.5368 161.579 87.2501 164.845C87.0622 165.111 86.9704 165.429 86.9901 165.745ZM79.5101 170.475C79.5101 169.009 78.9275 167.602 77.8904 166.565C76.8533 165.528 75.4467 164.945 73.9801 164.945C72.5134 164.945 71.1069 165.528 70.0698 166.565C69.0327 167.602 68.4501 169.009 68.4501 170.475C68.4501 171.942 69.0327 173.348 70.0698 174.386C71.1069 175.423 72.5134 176.005 73.9801 176.005C75.4467 176.005 76.8533 175.423 77.8904 174.386C78.9275 173.348 79.5101 171.942 79.5101 170.475ZM51.8537 172.678C51.6712 171.234 50.8815 169.926 49.6585 169.043C48.4354 168.16 46.8792 167.773 45.332 167.969C43.7848 168.164 42.3735 168.925 41.4085 170.085C40.4436 171.245 40.004 172.708 40.1865 174.152C40.369 175.597 41.1586 176.905 42.3817 177.788C43.6047 178.671 45.161 179.057 46.7082 178.862C48.2554 178.666 49.6666 177.905 50.6316 176.746C51.5966 175.586 52.0362 174.123 51.8537 172.678ZM29.7558 173.57C29.6213 172.844 29.3296 172.155 28.8975 171.542C28.4654 170.928 27.9013 170.403 27.2374 169.995C26.5735 169.587 25.8227 169.305 25.028 169.166C24.2334 169.026 23.4103 169.03 22.6059 169.179C20.9812 169.48 19.5311 170.351 18.5744 171.601C17.6176 172.85 17.2327 174.375 17.5044 175.841C17.6388 176.566 17.9305 177.255 18.3626 177.869C18.7947 178.482 19.3588 179.008 20.0227 179.415C20.6867 179.823 21.4374 180.105 22.2321 180.245C23.0268 180.385 23.8498 180.38 24.6543 180.231C26.2789 179.93 27.7291 179.059 28.6858 177.81C29.6425 176.561 30.0274 175.036 29.7558 173.57Z" fill="#2A315F"/>
<path d="M65.7302 67.3855C68.9902 74.5055 63.5202 81.2655 56.6802 82.9655C53.9402 83.6522 51.8735 84.7355 50.4802 86.2155C49.7502 74.5855 41.8402 68.9055 33.3402 61.8155C31.7002 60.4555 33.5102 60.1155 34.5002 60.3155C44.9335 62.4155 55.3435 64.7722 65.7302 67.3855Z" fill="#FE7769"/>
<path d="M3.72013 202.745C2.16679 198.699 1.2934 194.602 1.10007 190.455C0.300069 173.445 4.30007 154.815 12.9801 140.515C20.9801 127.322 30.9401 113.869 42.8601 100.155C46.0134 96.5288 48.5534 91.8821 50.4801 86.2155C51.8734 84.7355 53.9401 83.6521 56.6801 82.9655C63.5201 81.2655 68.9901 74.5055 65.7301 67.3855L62.9701 62.1055C65.1568 63.3855 66.4068 64.3521 66.7201 65.0055C69.4401 70.6788 69.0667 75.5688 65.6001 79.6754C62.6301 83.1854 56.8901 84.6955 52.4401 86.2555C52.3019 86.302 52.181 86.39 52.0935 86.5079C52.006 86.6257 51.9561 86.7679 51.9501 86.9155C51.6701 93.4455 42.5101 102.625 38.5701 107.615C31.6634 116.375 24.4568 126.485 16.9501 137.945C9.01011 150.065 5.13011 161.355 3.77011 176.195C2.96345 185.009 2.94679 193.859 3.72013 202.745Z" fill="#141A3C"/>
<path d="M84.8231 142.585C84.3764 141.252 84.7498 139.849 85.9431 138.375C87.9631 135.875 91.9831 135.955 94.9531 135.965C97.0931 135.979 98.3764 137.035 98.8031 139.135C100.093 145.445 94.3531 149.495 88.6431 146.865C86.7498 145.992 85.4764 144.565 84.8231 142.585ZM88.8431 144.245C89.5831 144.999 90.4798 145.412 91.5331 145.485C97.0031 145.855 99.2031 137.585 93.3731 137.475C91.6598 137.449 90.0431 137.839 88.5231 138.645C86.2565 139.852 86.3631 141.719 88.8431 144.245Z" fill="#392B32"/>
<path d="M88.842 144.245C86.362 141.719 86.2554 139.852 88.522 138.645C90.042 137.839 91.6587 137.449 93.372 137.475C99.202 137.585 97.002 145.855 91.532 145.485C90.4787 145.412 89.582 144.999 88.842 144.245Z" fill="#F8BD2A"/>
<path d="M67.3195 150.495C65.9929 149.809 65.1862 148.719 64.8995 147.225L64.1795 143.475C64.121 143.151 64.1736 142.807 64.3295 142.495C67.9695 135.385 85.5095 136.135 78.1795 147.765C75.5328 151.965 71.9129 152.875 67.3195 150.495ZM70.2395 149.365C77.2295 150.355 80.1595 140.025 74.6995 140.305C72.6495 140.405 69.1095 140.125 67.6295 141.195C64.4995 143.455 66.3395 148.815 70.2395 149.365Z" fill="#392B32"/>
<path d="M70.2417 149.365C66.3417 148.815 64.5017 143.455 67.6317 141.195C69.1117 140.125 72.6517 140.405 74.7017 140.305C80.1617 140.025 77.2317 150.355 70.2417 149.365Z" fill="#FBBF24"/>
<path d="M23.1133 154.625C26.1333 153.785 28.1333 152.249 29.1133 150.015C30.5733 146.675 28.4633 143.895 24.9433 143.675C24.15 143.155 24.1666 142.679 24.9933 142.245C25.263 142.097 25.6014 142.058 25.9433 142.135C30.7333 143.165 32.5033 147.565 29.9533 151.655C28.4933 153.995 26.2133 154.985 23.1133 154.625Z" fill="#1A1F29"/>
<path d="M46.4864 152.562C49.7683 152.309 52.2695 150.033 52.0729 147.478C51.8763 144.923 49.0564 143.056 45.7745 143.309C42.4925 143.561 39.9914 145.837 40.188 148.392C40.3846 150.947 43.2045 152.814 46.4864 152.562Z" fill="#FBBF24"/>
<path d="M24.941 143.675C28.461 143.895 30.571 146.675 29.111 150.015C28.131 152.249 26.131 153.785 23.111 154.625C18.3177 149.885 18.9277 146.235 24.941 143.675Z" fill="#F8BD2A"/>
<path d="M95.6909 173.186C91.7609 174.166 87.2309 169.496 86.9909 165.746C86.9713 165.429 87.063 165.112 87.2509 164.846C89.5376 161.579 92.9376 160.122 97.4509 160.476C108.331 161.326 101.151 171.816 95.6909 173.186ZM91.5609 169.956C92.8409 171.216 94.2776 171.596 95.8709 171.096C99.0776 170.096 100.764 167.882 100.931 164.456C100.941 164.246 100.904 164.036 100.822 163.838C100.74 163.64 100.615 163.459 100.454 163.303C100.293 163.148 100.1 163.022 99.8846 162.934C99.6695 162.845 99.4372 162.794 99.2009 162.786C95.5709 162.636 84.2909 162.796 91.5609 169.956Z" fill="#392B32"/>
<path d="M91.5601 169.955C84.2901 162.795 95.5701 162.635 99.2001 162.785C99.4363 162.794 99.6687 162.844 99.8838 162.933C100.099 163.022 100.293 163.148 100.453 163.303C100.614 163.458 100.739 163.64 100.821 163.838C100.903 164.036 100.94 164.245 100.93 164.455C100.763 167.882 99.0767 170.095 95.8701 171.095C94.2767 171.595 92.8401 171.215 91.5601 169.955Z" fill="#F8BD2A"/>
<path d="M73.9831 176.005C77.0372 176.005 79.5131 173.529 79.5131 170.475C79.5131 167.421 77.0372 164.945 73.9831 164.945C70.929 164.945 68.4531 167.421 68.4531 170.475C68.4531 173.529 70.929 176.005 73.9831 176.005Z" fill="#FBBF24"/>
<path d="M46.7098 178.862C49.9316 178.455 52.2354 175.686 51.8553 172.678C51.4753 169.67 48.5555 167.562 45.3336 167.969C42.1118 168.376 39.8081 171.144 40.1881 174.152C40.5681 177.16 43.488 179.269 46.7098 178.862Z" fill="#FBBF24"/>
<path d="M29.7583 173.57C30.0299 175.036 29.6451 176.561 28.6884 177.81C27.7317 179.059 26.2814 179.93 24.6568 180.231C23.8524 180.38 23.0293 180.385 22.2346 180.245C21.44 180.105 20.6892 179.823 20.0253 179.416C19.3614 179.008 18.7972 178.482 18.3651 177.869C17.933 177.255 17.6414 176.566 17.5069 175.841C17.2353 174.375 17.6202 172.85 18.5769 171.601C19.5336 170.351 20.9838 169.481 22.6084 169.179C23.4129 169.03 24.2359 169.026 25.0306 169.166C25.8253 169.306 26.576 169.587 27.24 169.995C27.9039 170.403 28.468 170.928 28.9001 171.542C29.3322 172.155 29.6238 172.844 29.7583 173.57ZM27.9719 173.894C27.8667 173.377 27.6479 172.888 27.3281 172.455C27.0083 172.023 26.5937 171.655 26.1079 171.373C25.6222 171.09 25.0749 170.9 24.4972 170.811C23.9195 170.722 23.3228 170.738 22.7412 170.856C21.5665 171.095 20.5243 171.739 19.844 172.647C19.1636 173.555 18.9008 174.652 19.1134 175.696C19.2186 176.214 19.4374 176.703 19.7572 177.135C20.0771 177.568 20.4917 177.936 20.9774 178.218C21.4631 178.5 22.0104 178.691 22.5881 178.78C23.1658 178.868 23.7625 178.853 24.3441 178.735C25.5188 178.496 26.561 177.851 27.2414 176.944C27.9217 176.036 28.1845 174.939 27.9719 173.894Z" fill="#392B32"/>
<path d="M24.3447 178.735C26.7909 178.237 28.4151 176.07 27.9725 173.894C27.5298 171.719 25.188 170.358 22.7418 170.856C20.2955 171.354 18.6713 173.521 19.114 175.697C19.5566 177.872 21.8985 179.232 24.3447 178.735Z" fill="#F0C437"/>
<path d="M106.192 196.675C105.179 196.922 104.822 197.692 105.122 198.985C106.249 203.898 106.942 208.885 107.202 213.945C107.562 220.875 96.7522 221.395 92.5222 220.495C90.6222 220.088 89.5989 218.915 89.4522 216.975C88.9389 210.202 87.7855 203.502 85.9922 196.875C92.5455 193.295 99.2789 193.228 106.192 196.675Z" fill="#7FCDBC"/>
<path d="M65.4407 201.755C66.8074 206.309 67.4874 210.769 67.4807 215.135C67.4807 216.502 66.8308 217.399 65.5308 217.825C61.9908 218.985 53.1107 220.245 52.2007 214.815C51.5607 211.022 51.3074 208.489 51.4407 207.215C51.7341 204.429 51.8107 202.625 51.6707 201.805C56.0507 201.112 60.6407 201.095 65.4407 201.755Z" fill="#76C5B7"/>
<path d="M32.1901 207.425L31.1601 208.535C31.0658 208.639 30.9939 208.775 30.9491 208.936C30.9043 209.096 30.8876 209.276 30.9001 209.465L31.4601 217.715C31.5468 218.962 31.1101 219.965 30.1501 220.725C28.2301 222.245 24.8001 222.915 22.5701 223.115C15.7701 223.705 16.7501 212.985 16.6901 206.755C21.9435 205.562 27.1101 205.785 32.1901 207.425Z" fill="#7FCDBC"/>
</svg>
