<svg width="36" height="34" viewBox="0 0 36 34" fill="none" xmlns="http://www.w3.org/2000/svg">
<path d="M34.1873 13.2002C33.6958 11.2141 32.7917 9.35067 31.5269 7.71641C30.262 6.08215 28.6611 4.70902 26.8154 3.67539C24.9697 2.64176 22.9155 1.96787 20.77 1.69224C18.6246 1.4166 16.4298 1.54463 14.3112 2.06895C12.1925 2.59327 10.1914 3.50364 8.42208 4.74808C6.65279 5.99253 5.14998 7.54669 3.99942 9.32182C2.84885 11.0969 2.07307 13.0582 1.7164 15.0938C1.35972 17.1293 1.42917 19.1993 1.92068 21.1853C2.41218 23.1714 3.31615 25.0348 4.58102 26.669C5.84589 28.3033 7.44684 29.6764 9.29251 30.7101C11.1382 31.7437 13.1924 32.4176 15.3379 32.6932C17.4834 32.9689 19.6781 32.8409 21.7968 32.3166C23.9154 31.7922 25.9165 30.8819 27.6858 29.6374C29.4551 28.393 30.9579 26.8388 32.1085 25.0637C33.2591 23.2886 34.0348 21.3272 34.3915 19.2917C34.7482 17.2561 34.6788 15.1863 34.1873 13.2002Z" stroke="#8D94AE" stroke-width="2"/>
<path d="M26.4419 7.76235C25.8019 7.41568 25.7152 7.49901 26.1819 8.01235L27.992 9.99233C28.1358 10.1507 28.2868 10.2817 28.4235 10.3662C28.5601 10.4507 28.6751 10.4843 28.7519 10.4624C30.3319 10.0524 26.8819 8.00235 26.4419 7.76235Z" stroke="#313D6B" stroke-width="2"/>
<path d="M34.1873 13.2002C34.6788 15.1863 34.7482 17.2561 34.3915 19.2917C34.0348 21.3272 33.2591 23.2886 32.1085 25.0637C30.9579 26.8388 29.4551 28.393 27.6858 29.6374C25.9165 30.8819 23.9154 31.7922 21.7968 32.3166C19.6781 32.8409 17.4834 32.9689 15.3379 32.6932C13.1924 32.4176 11.1382 31.7437 9.29251 30.7101C7.44684 29.6764 5.84589 28.3033 4.58102 26.669C3.31615 25.0348 2.41218 23.1714 1.92068 21.1853C1.42917 19.1993 1.35972 17.1293 1.7164 15.0938C2.07307 13.0582 2.84885 11.0969 3.99942 9.32182C5.14998 7.54669 6.65279 5.99253 8.42208 4.74808C10.1914 3.50364 12.1925 2.59327 14.3112 2.06895C16.4298 1.54463 18.6246 1.4166 20.77 1.69224C22.9155 1.96787 24.9697 2.64176 26.8154 3.67539C28.6611 4.70902 30.262 6.08215 31.5269 7.71641C32.7917 9.35067 33.6958 11.2141 34.1873 13.2002ZM26.4439 7.76273C25.8039 7.41607 25.7173 7.4994 26.1839 8.01273L27.994 9.99271C28.1378 10.1511 28.2889 10.2821 28.4255 10.3666C28.5621 10.451 28.6772 10.4847 28.7539 10.4627C30.3339 10.0527 26.8839 8.00273 26.4439 7.76273Z" fill="#1A285D"/>
<path d="M26.4458 7.76235C26.8858 8.00235 30.3358 10.0524 28.7558 10.4624C28.679 10.4843 28.564 10.4507 28.4274 10.3662C28.2908 10.2817 28.1397 10.1507 27.9959 9.99233L26.1858 8.01235C25.7191 7.49901 25.8058 7.41568 26.4458 7.76235Z" fill="#475179"/>
</svg>
