<svg width="50" height="121" viewBox="0 0 50 121" fill="none" xmlns="http://www.w3.org/2000/svg">
<path d="M13.6872 68.8824C21.9139 73.7357 30.1205 78.5223 38.3072 83.2423C43.0172 85.9523 45.4572 88.6923 44.8972 94.0923C44.7105 95.859 43.7272 96.3023 41.9472 95.4223C37.6872 93.2923 33.6672 90.1624 29.5972 88.6924C24.4372 86.8224 20.0672 86.2824 14.6072 87.4424C14.234 87.5194 13.9176 87.7042 13.7172 87.9623C12.6905 89.3023 11.3405 90.119 9.6672 90.4123C9.18053 90.499 8.87388 90.589 8.74721 90.6824C4.34721 93.9624 -2.46277 101.752 3.07723 106.502C6.01723 109.012 11.2572 108.742 15.1072 108.692C16.8139 108.666 18.3872 109.109 19.8272 110.022C23.0972 112.082 32.6972 119.682 35.9172 119.882C36.7305 119.929 36.8439 119.672 36.2572 119.112C33.0172 115.986 29.7706 112.866 26.5172 109.752C20.1372 103.632 14.4472 104.362 6.52718 104.562C6.38892 104.565 6.25482 104.515 6.15249 104.422C6.05016 104.329 5.98741 104.2 5.97719 104.062C5.62386 99.949 7.01719 96.8823 10.1572 94.8623C20.2072 88.4023 28.5972 93.8223 37.6772 98.7923C37.9696 98.9549 38.2988 99.0214 38.6172 98.9823C46.0972 98.0223 53.4572 89.0223 45.2272 83.0323C38.6872 78.2623 31.1972 74.6223 24.0572 70.8523C17.6772 67.4823 13.6572 59.5924 12.1072 52.8824C11.5405 50.4357 11.4739 47.2924 11.9072 43.4524C12.8872 34.6424 12.9272 25.3724 18.4472 17.7024C23.0772 11.2524 27.6472 6.79233 35.7272 7.16233C41.1472 7.41233 43.6272 14.3623 46.2572 19.8523C46.5906 20.5457 47.1805 21.199 48.0272 21.8124C48.3005 22.0124 48.3905 21.9457 48.2972 21.6123C47.3505 18.179 46.5305 14.709 45.8372 11.2023C44.4972 4.46234 39.2072 0.492344 32.3472 1.05234C27.6172 1.43234 24.1572 4.67232 20.5272 7.78232C10.1072 16.7023 7.4172 32.8923 9.5472 46.1023C9.59931 46.4205 9.54679 46.7529 9.39718 47.0523C5.76718 54.1423 8.06719 60.5423 11.7272 66.9023C12.2072 67.7357 12.8605 68.3957 13.6872 68.8824Z" stroke="#88888D" stroke-width="2"/>
<path d="M13.6872 68.8824C12.8605 68.3957 12.2072 67.7357 11.7272 66.9023C8.06719 60.5423 5.76718 54.1423 9.39718 47.0523C9.54679 46.7529 9.59931 46.4205 9.5472 46.1023C7.4172 32.8923 10.1072 16.7023 20.5272 7.78232C24.1572 4.67232 27.6172 1.43234 32.3472 1.05234C39.2072 0.492344 44.4972 4.46234 45.8372 11.2023C46.5305 14.709 47.3505 18.179 48.2972 21.6123C48.3905 21.9457 48.3005 22.0124 48.0272 21.8124C47.1805 21.199 46.5906 20.5457 46.2572 19.8523C43.6272 14.3623 41.1472 7.41233 35.7272 7.16233C27.6472 6.79233 23.0772 11.2524 18.4472 17.7024C12.9272 25.3724 12.8872 34.6424 11.9072 43.4524C11.4739 47.2924 11.5405 50.4357 12.1072 52.8824C13.6572 59.5924 17.6772 67.4823 24.0572 70.8523C31.1972 74.6223 38.6872 78.2623 45.2272 83.0323C53.4572 89.0223 46.0972 98.0223 38.6172 98.9823C38.2988 99.0214 37.9696 98.9549 37.6772 98.7923C28.5972 93.8223 20.2072 88.4023 10.1572 94.8623C7.01719 96.8823 5.62386 99.949 5.97719 104.062C5.98741 104.2 6.05016 104.329 6.15249 104.422C6.25482 104.515 6.38892 104.565 6.52718 104.562C14.4472 104.362 20.1372 103.632 26.5172 109.752C29.7706 112.866 33.0172 115.986 36.2572 119.112C36.8439 119.672 36.7305 119.929 35.9172 119.882C32.6972 119.682 23.0972 112.082 19.8272 110.022C18.3872 109.109 16.8139 108.666 15.1072 108.692C11.2572 108.742 6.01723 109.012 3.07723 106.502C-2.46277 101.752 4.34721 93.9623 8.74721 90.6824C8.87388 90.589 9.18053 90.499 9.6672 90.4123C11.3405 90.119 12.6905 89.3023 13.7172 87.9623C13.9176 87.7042 14.234 87.5194 14.6072 87.4424C20.0672 86.2824 24.4372 86.8224 29.5972 88.6924C33.6672 90.1624 37.6872 93.2923 41.9472 95.4223C43.7272 96.3023 44.7105 95.859 44.8972 94.0923C45.4572 88.6923 43.0172 85.9523 38.3072 83.2423C30.1205 78.5223 21.9139 73.7357 13.6872 68.8824Z" fill="#12111D"/>
</svg>
