<svg width="137" height="106" viewBox="0 0 137 106" fill="none" xmlns="http://www.w3.org/2000/svg">
<path d="M131.75 9.15819C110.93 -14.4918 81.0703 19.2981 68.2203 34.4481C68.0767 34.6191 67.899 34.7582 67.6983 34.8566C67.4975 34.955 67.278 35.0106 67.0536 35.02C66.8291 35.0294 66.6047 34.9923 66.3942 34.9111C66.1837 34.8299 65.9917 34.7064 65.8303 34.5482C56.4703 25.2682 49.4803 17.1581 37.2703 8.58813C15.5603 -6.65187 0.920326 11.3382 1.00033 32.6182C1.07366 51.0048 1.56363 64.5915 2.4703 73.3782C3.07696 79.2982 4.90701 89.3782 7.96035 103.618" stroke="#BBE5DA" stroke-width="2"/>
<path d="M133.69 105.618C134.617 101.298 135.103 96.3815 135.15 90.8682C135.41 59.9682 135.507 37.4481 135.44 23.3081C135.407 17.6348 134.177 12.9182 131.75 9.1582" stroke="#BBE8E2" stroke-width="2"/>
<path d="M8.69092 105.618L7.96094 103.618" stroke="#BBE8E2" stroke-width="2"/>
<path d="M79.1178 56.1788C80.4778 71.0188 96.1478 78.6687 108.988 72.7087C119.828 67.6787 125.648 48.5687 119.298 38.5287C113.328 29.0887 99.8078 27.4588 90.7278 33.2988C82.0945 38.8521 78.2245 46.4788 79.1178 56.1788Z" stroke="#BBE5DA" stroke-width="2"/>
<path d="M21.0299 49.158C4.57986 71.048 40.5998 84.968 51.9298 64.978C56.3098 57.258 55.5298 45.588 48.1698 39.798C37.5098 31.408 27.1899 40.968 21.0299 49.158Z" stroke="#BAE6DE" stroke-width="2"/>
<path d="M55.7302 93.8883C61.4202 85.2283 71.2102 84.6183 78.8602 91.0783C78.9843 91.1841 79.1274 91.2609 79.2783 91.3025C79.4292 91.3442 79.5838 91.3495 79.7302 91.3183C81.5368 90.9316 81.8569 90.0616 80.6902 88.7083C74.5169 81.5416 67.2035 80.4884 58.7502 85.5484C55.8169 87.3017 53.8335 89.9383 52.8002 93.4583C52.5502 94.2983 52.7002 95.9083 53.9902 95.3483C54.7009 95.0419 55.3058 94.5343 55.7302 93.8883Z" stroke="#467C7D" stroke-width="2"/>
<path d="M114.081 51.3365C115.477 49.0593 115.865 46.2929 115.16 43.646C114.455 40.9991 112.715 38.6885 110.322 37.2223C109.137 36.4964 107.828 35.9996 106.469 35.7604C105.11 35.5212 103.728 35.5443 102.402 35.8283C101.076 36.1123 99.8314 36.6515 98.7397 37.4154C97.648 38.1794 96.7305 39.1529 96.0396 40.2804C94.6441 42.5576 94.2562 45.324 94.9612 47.9709C95.6662 50.6178 97.4064 52.9284 99.7988 54.3946C100.983 55.1205 102.293 55.6173 103.651 55.8565C105.01 56.0957 106.392 56.0726 107.719 55.7886C109.045 55.5046 110.289 54.9654 111.381 54.2015C112.473 53.4375 113.39 52.464 114.081 51.3365Z" stroke="#8A8C90" stroke-width="2"/>
<path d="M32.9797 61.0555C33.8626 61.799 34.8981 62.3439 36.0268 62.6591C37.1556 62.9744 38.3556 63.0538 39.5583 62.8927C40.7611 62.7316 41.943 62.3331 43.0366 61.7202C44.1302 61.1073 45.1141 60.2919 45.932 59.3205C47.584 57.3588 48.4599 54.8809 48.367 52.432C48.2742 49.983 47.2203 47.7635 45.4371 46.2619C44.5541 45.5184 43.5187 44.9735 42.3899 44.6583C41.2611 44.3431 40.0611 44.2638 38.8583 44.4249C37.6556 44.586 36.4736 44.9844 35.38 45.5973C34.2864 46.2102 33.3026 47.0255 32.4847 47.9969C30.8327 49.9587 29.9568 52.4366 30.0497 54.8856C30.1425 57.3345 31.1964 59.5539 32.9797 61.0555Z" stroke="#898D94" stroke-width="2"/>
<path d="M131.75 9.15819C134.177 12.9182 135.407 17.6348 135.44 23.3081C135.507 37.4481 135.41 59.9682 135.15 90.8682C135.104 96.3815 134.617 101.298 133.69 105.618H8.69033L7.96035 103.618C4.90701 89.3782 3.07696 79.2982 2.4703 73.3782C1.56363 64.5915 1.07366 51.0048 1.00033 32.6182C0.920326 11.3382 15.5603 -6.65187 37.2703 8.58813C49.4803 17.1581 56.4703 25.2682 65.8303 34.5482C65.9917 34.7064 66.1837 34.8299 66.3942 34.9111C66.6047 34.9923 66.8291 35.0294 67.0536 35.02C67.278 35.0106 67.4975 34.955 67.6983 34.8566C67.899 34.7582 68.0767 34.6191 68.2203 34.4481C81.0703 19.2981 110.93 -14.4918 131.75 9.15819ZM79.1203 56.1782C80.4803 71.0182 96.1503 78.6681 108.99 72.7081C119.83 67.6781 125.65 48.5682 119.3 38.5282C113.33 29.0882 99.8103 27.4582 90.7303 33.2982C82.097 38.8515 78.227 46.4782 79.1203 56.1782ZM21.0304 49.1582C4.58035 71.0482 40.6003 84.9681 51.9303 64.9781C56.3103 57.2581 55.5303 45.5882 48.1703 39.7982C37.5103 31.4082 27.1904 40.9682 21.0304 49.1582ZM55.7303 93.8882C61.4203 85.2282 71.2103 84.6181 78.8603 91.0781C78.9844 91.184 79.1275 91.2607 79.2784 91.3024C79.4293 91.344 79.584 91.3493 79.7303 91.3181C81.537 90.9314 81.857 90.0615 80.6903 88.7081C74.517 81.5415 67.2037 80.4882 58.7503 85.5482C55.817 87.3015 53.8336 89.9381 52.8003 93.4581C52.5503 94.2981 52.7003 95.9081 53.9903 95.3481C54.701 95.0417 55.306 94.5341 55.7303 93.8882Z" fill="#77D0C4"/>
<path d="M108.988 72.7087C96.1478 78.6687 80.4778 71.0188 79.1178 56.1788C78.2245 46.4788 82.0945 38.8521 90.7278 33.2988C99.8078 27.4588 113.328 29.0887 119.298 38.5287C125.648 48.5687 119.828 67.6787 108.988 72.7087ZM114.079 51.3367C115.474 49.0596 115.862 46.2932 115.157 43.6463C114.452 40.9994 112.712 38.6887 110.319 37.2226C109.135 36.4966 107.826 35.9999 106.467 35.7607C105.108 35.5215 103.726 35.5446 102.4 35.8285C101.073 36.1125 99.8288 36.6518 98.7371 37.4157C97.6454 38.1796 96.7279 39.1531 96.037 40.2807C94.6415 42.5578 94.2536 45.3242 94.9586 47.9711C95.6636 50.618 97.4038 52.9287 99.7962 54.3948C100.981 55.1208 102.29 55.6175 103.649 55.8567C105.008 56.0959 106.39 56.0728 107.716 55.7889C109.042 55.5049 110.287 54.9656 111.379 54.2017C112.47 53.4378 113.388 52.4643 114.079 51.3367Z" fill="#FEF9EF"/>
<path d="M51.9298 64.979C40.5998 84.969 4.57986 71.049 21.0299 49.159C27.1899 40.969 37.5098 31.409 48.1698 39.799C55.5298 45.589 56.3098 57.259 51.9298 64.979ZM32.9812 61.0557C33.8641 61.7993 34.8996 62.3442 36.0283 62.6594C37.1571 62.9746 38.3571 63.054 39.5598 62.8929C40.7626 62.7318 41.9445 62.3333 43.0381 61.7204C44.1317 61.1075 45.1156 60.2921 45.9335 59.3207C47.5855 57.359 48.4614 54.8812 48.3685 52.4322C48.2757 49.9832 47.2218 47.7638 45.4386 46.2622C44.5556 45.5186 43.5202 44.9737 42.3914 44.6585C41.2626 44.3433 40.0626 44.264 38.8598 44.4251C37.6571 44.5862 36.4751 44.9846 35.3815 45.5975C34.288 46.2104 33.3041 47.0258 32.4862 47.9971C30.8342 49.9589 29.9583 52.4369 30.0512 54.8858C30.144 57.3348 31.1979 59.5541 32.9812 61.0557Z" fill="#FCFCF8"/>
<path d="M78.8602 91.0783C71.2102 84.6183 61.4202 85.2283 55.7302 93.8883C55.3058 94.5343 54.7009 95.0419 53.9902 95.3483C52.7002 95.9083 52.5502 94.2983 52.8002 93.4583C53.8335 89.9383 55.8169 87.3017 58.7502 85.5484C67.2035 80.4884 74.5169 81.5416 80.6902 88.7083C81.8569 90.0616 81.5368 90.9316 79.7302 91.3183C79.5838 91.3495 79.4292 91.3442 79.2783 91.3025C79.1274 91.2609 78.9843 91.1841 78.8602 91.0783Z" fill="#142735"/>
<path d="M114.081 51.3365C113.39 52.464 112.473 53.4375 111.381 54.2015C110.289 54.9654 109.045 55.5046 107.719 55.7886C106.392 56.0726 105.01 56.0957 103.651 55.8565C102.293 55.6173 100.983 55.1205 99.7988 54.3946C97.4064 52.9284 95.6662 50.6178 94.9612 47.9709C94.2562 45.324 94.6441 42.5576 96.0396 40.2804C96.7305 39.1529 97.648 38.1794 98.7397 37.4154C99.8314 36.6515 101.076 36.1123 102.402 35.8283C103.728 35.5443 105.11 35.5212 106.469 35.7604C107.828 35.9996 109.137 36.4964 110.322 37.2223C112.715 38.6885 114.455 40.9991 115.16 43.646C115.865 46.2929 115.477 49.0593 114.081 51.3365Z" fill="#151E30"/>
<path d="M32.9797 61.0555C31.1964 59.5539 30.1425 57.3345 30.0497 54.8856C29.9568 52.4366 30.8327 49.9587 32.4847 47.9969C33.3026 47.0255 34.2864 46.2102 35.38 45.5973C36.4736 44.9844 37.6556 44.586 38.8583 44.4249C40.0611 44.2638 41.2611 44.3431 42.3899 44.6583C43.5187 44.9735 44.5541 45.5184 45.4371 46.2619C47.2203 47.7635 48.2742 49.983 48.367 52.432C48.4599 54.8809 47.584 57.3588 45.932 59.3205C45.1141 60.2919 44.1302 61.1073 43.0366 61.7202C41.943 62.3331 40.7611 62.7316 39.5583 62.8927C38.3556 63.0538 37.1556 62.9744 36.0268 62.6591C34.8981 62.3439 33.8626 61.799 32.9797 61.0555Z" fill="#151E30"/>
</svg>
