<svg width="114" height="280" viewBox="0 0 114 280" fill="none" xmlns="http://www.w3.org/2000/svg">
<path d="M78.8302 275.985C101.09 290.965 101.41 230.105 101.23 220.925C101.12 215.645 102.08 210.675 101.68 205.265C101.15 197.865 101.06 188.305 99.8502 180.015C99.3702 176.755 99.0669 173.978 98.9402 171.685C98.2469 159.598 97.4602 147.515 96.5802 135.435C95.8202 124.985 96.2502 114.505 95.3702 104.025C95.0302 99.9649 94.9802 96.9349 95.2202 94.9349C97.1002 78.8749 98.0102 62.7449 100.02 46.7049C100.7 41.2349 102.67 34.1049 104.66 29.0249C107.17 22.6049 113.04 8.7649 112.08 2.1649C112.052 1.9757 111.985 1.79444 111.883 1.63293C111.781 1.47143 111.646 1.33332 111.488 1.22763C111.329 1.12193 111.15 1.05103 110.963 1.01954C110.776 0.988058 110.584 0.996687 110.4 1.04489C97.6135 4.32489 85.0369 8.26157 72.6702 12.8549C72.5165 12.9119 72.3813 13.0072 72.2792 13.1304C72.1771 13.2537 72.1118 13.4004 72.0902 13.5549C71.3402 19.3849 72.9202 24.3849 74.8702 32.5349C79.4602 51.7149 76.9702 71.7749 75.2602 91.1549C74.7202 97.2682 73.9602 103.552 72.9802 110.005C71.0935 122.518 69.2469 135.038 67.4402 147.565C66.9269 151.138 66.5969 155.572 66.4502 160.865C65.9102 180.595 66.0802 199.175 67.5302 218.525C69.2402 241.315 70.0502 255.335 76.5002 273.015C76.9535 274.262 77.7302 275.252 78.8302 275.985Z" stroke="#CBECD6" stroke-width="2"/>
<path d="M16.2406 10.545C21.0606 15.875 32.5306 24.685 30.1106 32.905C28.4806 38.455 25.8506 43.8551 24.3106 49.055C22.5506 55.035 20.4406 60.895 19.2306 66.915C17.964 73.1817 16.7273 79.4517 15.5206 85.725C12.0906 103.515 6.30063 123.395 4.24063 139.175C2.6073 151.688 1.69063 164.252 1.49063 176.865C1.27063 191.125 0.430623 206.615 1.65062 219.845C2.95729 233.885 5.83063 247.632 10.2706 261.085C11.644 265.238 14.1673 269.765 17.8406 274.665C20.5673 278.305 23.5606 278.588 26.8206 275.515C29.914 272.602 32.0306 269.952 33.1706 267.565C38.1006 257.335 42.7006 244.155 44.2806 231.995C48.0206 203.148 50.074 177.688 50.4406 155.615C50.6106 145.165 49.0506 128.375 49.2106 115.365C49.4373 97.3851 50.0873 78.7184 51.1606 59.365C51.5806 51.835 53.1706 43.005 53.5906 37.455C54.1773 29.675 54.0773 21.8884 53.2906 14.095C53.2462 13.6366 53.0442 13.208 52.7193 12.8831C52.3944 12.5582 51.967 12.3573 51.5106 12.315C40.6106 11.305 29.6106 8.06504 19.0706 5.04504C17.8106 4.67837 16.6906 4.57172 15.7106 4.72505C10.3406 5.58505 14.7406 8.90504 16.2406 10.545Z" stroke="#ACDADF" stroke-width="2"/>
<path d="M96.7799 11.8842C97.7066 11.6508 97.9899 11.9742 97.6299 12.8542C96.6366 15.2942 96.8333 16.3441 98.2199 16.0041C98.6333 15.9046 99.0008 15.6875 99.261 15.389C99.5213 15.0905 99.6586 14.7288 99.6499 14.3641C99.6299 13.2041 99.8699 12.1008 100.37 11.0542C100.418 10.9569 100.515 10.8444 100.655 10.7249C100.796 10.6055 100.975 10.4822 101.18 10.3641L104.35 8.52415C104.526 8.42232 104.669 8.27138 104.763 8.08897C104.857 7.90657 104.898 7.70025 104.88 7.49415C104.793 6.24082 104.04 5.76082 102.62 6.05415C102.481 6.08311 102.356 6.13656 102.262 6.20671C102.169 6.27686 102.112 6.36005 102.1 6.44415C101.873 8.07082 100.873 9.11081 99.0999 9.56415C98.6838 9.66831 98.2985 9.67182 97.9999 9.57416C95.8399 8.87416 94.7799 8.94082 94.8199 9.77415C91.6532 12.4142 88.2199 14.6742 84.5199 16.5542C84.2099 16.7155 83.9661 16.977 83.8299 17.2941L81.9699 21.6642C81.9194 21.7869 81.8117 21.8865 81.6644 21.9465C81.5171 22.0065 81.3392 22.0233 81.1599 21.9942C77.9933 21.4875 76.5866 22.8675 76.9399 26.1342C77.1733 28.3008 77.9632 28.5075 79.3099 26.7541C81.4232 24.0008 84.0199 21.8508 87.0999 20.3042C87.3979 20.1554 87.6473 19.899 87.8099 19.5742C89.8499 15.4742 92.8399 12.9108 96.7799 11.8842Z" stroke="#A2DFB6" stroke-width="2"/>
<path d="M100.48 31.1744C100.734 31.1344 100.91 31.0477 101.01 30.9144C101.038 30.8796 101.05 30.8364 101.047 30.7881C101.044 30.7399 101.024 30.6878 100.991 30.6358C100.957 30.5838 100.91 30.5332 100.853 30.488C100.795 30.4427 100.73 30.4039 100.66 30.3744L99.4202 29.8444C99.3297 29.8028 99.1917 29.8132 99.0252 29.874C98.8587 29.9349 98.6719 30.0433 98.4903 30.1844C96.9036 31.3977 95.1336 32.2211 93.1802 32.6544C93.034 32.6877 92.9 32.755 92.7913 32.8496C92.6826 32.9443 92.603 33.0631 92.5602 33.1944C91.6202 36.0644 92.2203 39.3044 87.6103 38.2544C86.7303 38.0544 86.1803 37.3044 85.1903 37.1644C85.0246 37.1426 84.8575 37.1767 84.7185 37.2609C84.5794 37.345 84.4774 37.4738 84.4302 37.6244L83.6502 40.0944C83.5946 40.2749 83.5907 40.464 83.6392 40.6345C83.6877 40.8051 83.786 40.9485 83.9203 41.0444C84.4269 41.4044 85.4536 41.4144 87.0003 41.0744C87.1613 41.0372 87.3305 41.0543 87.4821 41.1228C87.6337 41.1914 87.7594 41.3078 87.8402 41.4544C89.0802 43.7344 90.4102 44.9244 91.5902 41.7244C93.2902 37.1344 94.4102 34.8044 98.4002 31.7944C98.7136 31.5544 99.4069 31.3477 100.48 31.1744Z" stroke="#A2DFB6" stroke-width="2"/>
<path d="M81.2397 31.9142C79.5497 32.3842 75.8397 36.8041 78.5897 37.5441C78.7227 37.5789 78.8683 37.5628 79.005 37.498C79.1418 37.4332 79.2626 37.3232 79.3496 37.1842C80.1096 35.9542 80.2996 35.6442 81.7596 35.0342C83.313 34.3808 83.4263 33.4142 82.0996 32.1342C81.987 32.0271 81.8488 31.9507 81.6983 31.9122C81.5478 31.8737 81.3899 31.8744 81.2397 31.9142Z" stroke="#A2DFB6" stroke-width="2"/>
<path d="M95.2481 46.5546C92.3381 46.4746 89.2281 52.0846 86.6781 54.0846C85.1181 55.3146 84.6581 56.5646 83.7081 58.2146C83.5867 58.4291 83.5048 58.6475 83.4743 58.8381C83.4437 59.0287 83.466 59.1816 83.5381 59.2746C84.8447 60.9346 85.7047 60.6046 86.1181 58.2846C86.137 58.183 86.2094 58.0581 86.3283 57.9217C86.4472 57.7853 86.6089 57.6418 86.7981 57.5046C90.4514 54.8246 93.4414 51.5479 95.7681 47.6746C95.8343 47.5626 95.8733 47.4355 95.8811 47.3057C95.889 47.176 95.8655 47.0481 95.8129 46.9349C95.7603 46.8217 95.6806 46.7271 95.5815 46.6603C95.4824 46.5936 95.3675 46.5571 95.2481 46.5546Z" stroke="#A2DFB6" stroke-width="2"/>
<path d="M90.6571 61.0651C86.6971 60.6151 86.6871 63.8151 86.5071 66.5551C86.4404 67.5884 86.8438 67.7884 87.7171 67.1551C89.5971 65.7884 90.7138 63.9317 91.0671 61.5851C91.0768 61.5245 91.0738 61.4626 91.0581 61.4031C91.0425 61.3436 91.0147 61.2878 90.9763 61.2391C90.9379 61.1904 90.8897 61.1498 90.8349 61.1199C90.78 61.09 90.7195 61.0713 90.6571 61.0651Z" stroke="#A2DFB6" stroke-width="2"/>
<path d="M89.299 73.215C89.184 73.4951 88.9864 73.7531 88.7213 73.9697C88.4563 74.1863 88.1306 74.3556 87.769 74.465C85.7157 75.085 84.869 76.4449 85.229 78.5449C85.2548 78.6973 85.3374 78.8377 85.464 78.9444C85.5905 79.0511 85.754 79.1181 85.929 79.1349C89.449 79.4549 91.669 73.955 92.889 71.305C93.369 70.2716 93.129 69.9549 92.169 70.3549C90.809 70.9149 89.8523 71.8683 89.299 73.215Z" stroke="#A2DFB6" stroke-width="2"/>
<path d="M89.8079 88.5646C90.1945 86.3046 90.9312 84.118 92.0179 82.0046C92.0954 81.8524 92.1394 81.6899 92.1463 81.5302C92.1533 81.3704 92.123 81.2178 92.0579 81.0846C91.1779 79.2746 90.2879 81.2946 89.9679 82.1146C89.2612 83.9146 88.0445 85.2946 86.3179 86.2546C84.8245 87.0813 84.7379 87.8113 86.0579 88.4446L88.4279 89.5846C88.6549 89.6936 88.8577 89.8037 89.0157 89.9038C89.1737 90.0039 89.2814 90.0904 89.3279 90.1546C89.8412 90.9213 89.6512 91.6113 88.7579 92.2246C86.4912 93.7779 84.9212 95.7446 84.0479 98.1246C83.9915 98.2775 83.9775 98.4396 84.0079 98.5896C84.0382 98.7395 84.1114 98.8703 84.2179 98.9646C84.7845 99.4513 85.2912 99.3546 85.7379 98.6746C87.4779 96.048 89.5045 93.6013 91.8179 91.3346C91.9096 91.2454 91.9769 91.1348 92.0141 91.0119C92.0514 90.889 92.0576 90.7575 92.0321 90.6283C92.0067 90.4991 91.9503 90.3759 91.8678 90.2692C91.7853 90.1624 91.6791 90.0751 91.5579 90.0146L90.1679 89.3146C90.0378 89.2473 89.9328 89.1383 89.8681 89.0035C89.8034 88.8687 89.7823 88.715 89.8079 88.5646Z" stroke="#A2DFB6" stroke-width="2"/>
<path d="M77.23 95.5089C77.5671 95.6513 78.0442 95.4239 78.5562 94.8768C79.0683 94.3297 79.5734 93.5076 79.9604 92.5915C80.3474 91.6753 80.5846 90.7401 80.6198 89.9916C80.6551 89.2431 80.4855 88.7425 80.1484 88.6001C79.8112 88.4577 79.3341 88.6851 78.8221 89.2322C78.31 89.7793 77.805 90.6014 77.418 91.5175C77.031 92.4337 76.7937 93.3689 76.7585 94.1174C76.7232 94.8659 76.8928 95.3665 77.23 95.5089Z" stroke="#A2DFB6" stroke-width="2"/>
<path d="M83.1419 112.243C83.2356 112.303 83.3995 112.254 83.6242 112.096C83.849 111.939 84.1301 111.677 84.4516 111.325C84.7731 110.973 85.1286 110.539 85.498 110.047C85.8673 109.554 86.2432 109.014 86.6041 108.456C86.9651 107.898 87.304 107.334 87.6016 106.795C87.8992 106.256 88.1496 105.754 88.3386 105.317C88.5275 104.879 88.6513 104.515 88.7028 104.246C88.7544 103.976 88.7327 103.806 88.6389 103.746C88.5452 103.685 88.3813 103.735 88.1566 103.892C87.9319 104.05 87.6508 104.312 87.3293 104.664C87.0078 105.015 86.6522 105.45 86.2829 105.942C85.9136 106.434 85.5377 106.975 85.1767 107.533C84.8158 108.09 84.4769 108.655 84.1793 109.194C83.8817 109.732 83.6313 110.235 83.4423 110.672C83.2534 111.109 83.1296 111.473 83.078 111.743C83.0265 112.012 83.0482 112.182 83.1419 112.243Z" stroke="#A2DFB6" stroke-width="2"/>
<path d="M79.6277 111.495C78.0277 110.145 76.6677 112.235 77.2577 113.665C77.291 113.746 77.3399 113.822 77.4002 113.884C77.4604 113.946 77.5303 113.994 77.6039 114.024C77.6775 114.053 77.7527 114.063 77.8229 114.053C77.8932 114.043 77.9566 114.013 78.0077 113.965L79.8477 112.285C79.8906 112.246 79.9191 112.194 79.9312 112.132C79.9434 112.07 79.9389 111.999 79.9181 111.924C79.8973 111.85 79.8607 111.773 79.8107 111.699C79.7606 111.625 79.6983 111.556 79.6277 111.495Z" stroke="#A2DFB6" stroke-width="2"/>
<path d="M85.1207 117.844L88.8007 114.734C88.9682 114.591 89.1182 114.316 89.2207 113.964C89.4541 113.164 89.2207 112.718 88.5207 112.624C88.45 112.62 88.3453 112.713 88.2258 112.888C88.1063 113.063 87.9802 113.306 87.8707 113.574C87.0907 115.461 85.9174 115.654 84.3507 114.154C84.2838 114.09 84.2086 114.036 84.1296 113.995C84.0507 113.953 83.9696 113.926 83.8912 113.914C83.8128 113.901 83.7388 113.905 83.6734 113.924C83.608 113.943 83.5527 113.977 83.5107 114.024C83.1907 114.398 83.3707 115.114 84.0507 116.174C84.1784 116.373 84.2529 116.6 84.2669 116.835C84.2809 117.07 84.234 117.304 84.1307 117.514C82.4607 120.934 80.8007 122.104 80.4507 126.324C80.4448 126.377 80.4563 126.437 80.4842 126.498C80.512 126.559 80.5554 126.619 80.6107 126.674L80.7307 126.804C80.9974 127.078 81.2107 126.924 81.3707 126.344C81.824 124.698 82.6407 123.244 83.8207 121.984C84.0542 121.738 84.1984 121.435 84.2307 121.124L84.5207 118.534C84.5299 118.475 84.5918 118.377 84.6986 118.254C84.8055 118.132 84.9524 117.989 85.1207 117.844Z" stroke="#A2DFB6" stroke-width="2"/>
<path d="M91.4095 122.865C91.3828 122.012 90.9728 121.682 90.1795 121.875C89.8577 121.959 89.5909 122.133 89.4295 122.365L83.6895 130.635C82.9828 131.655 83.2495 132.115 84.4895 132.015C84.9628 131.975 85.6261 131.595 86.4795 130.875C86.7131 130.674 86.8815 130.383 86.9595 130.045C87.5461 127.512 89.1095 125.522 91.6495 124.075C92.1161 123.808 92.1828 123.595 91.8495 123.435C91.7218 123.368 91.6138 123.279 91.5365 123.179C91.4592 123.079 91.4154 122.971 91.4095 122.865Z" stroke="#A2DFB6" stroke-width="2"/>
<path d="M78.7298 128.673C78.7568 128.388 78.6693 128.104 78.4868 127.883C78.3042 127.662 78.0414 127.523 77.7562 127.496L76.9398 127.419C76.6547 127.392 76.3705 127.479 76.1498 127.662C75.9291 127.845 75.79 128.107 75.763 128.392L75.411 132.116C75.3841 132.401 75.4715 132.685 75.6541 132.906C75.8367 133.127 76.0995 133.266 76.3846 133.293L77.201 133.37C77.4862 133.397 77.7704 133.309 77.9911 133.127C78.2118 132.944 78.3509 132.681 78.3778 132.396L78.7298 128.673Z" stroke="#A2DFB6" stroke-width="2"/>
<path d="M84.1881 152.575L82.6281 149.115C82.6081 149.063 82.6408 148.95 82.7209 148.793C82.8009 148.637 82.9234 148.447 83.0681 148.255C84.5547 146.315 86.5114 145.121 88.9381 144.675C90.0181 144.475 90.7614 143.285 91.1681 141.105C91.2414 140.711 91.0747 140.545 90.6681 140.605C90.4081 140.641 90.1659 140.682 89.9807 140.722C89.7956 140.762 89.6783 140.798 89.6481 140.825C87.0414 143.311 84.2147 145.498 81.1681 147.385C81.044 147.46 80.9422 147.58 80.8736 147.731C80.8049 147.883 80.7719 148.06 80.7781 148.245C80.8681 151.245 83.4881 153.615 84.3181 156.675C84.4981 157.341 84.7914 157.415 85.1981 156.895L88.2781 152.965C88.6847 152.445 88.5614 152.245 87.9081 152.365L85.1681 152.875C84.9476 152.917 84.7298 152.91 84.5513 152.856C84.3728 152.801 84.2446 152.702 84.1881 152.575Z" stroke="#A2DFB6" stroke-width="2"/>
<path d="M91.5794 204.555C91.5035 204.481 91.4438 204.392 91.4042 204.294C91.3646 204.196 91.3459 204.091 91.3494 203.985L91.4694 200.175C91.4799 199.985 91.4185 199.797 91.2975 199.65C91.1764 199.503 91.0046 199.407 90.8159 199.38C90.6272 199.354 90.4355 199.399 90.2787 199.508C90.122 199.616 90.0115 199.779 89.9694 199.965L89.0194 203.655C88.9928 203.757 88.9453 203.852 88.8798 203.935C88.8144 204.017 88.7325 204.086 88.6394 204.135L85.2894 205.945C85.1277 206.035 85.0043 206.18 84.9424 206.355C84.8804 206.529 84.8841 206.72 84.9528 206.891C85.0215 207.063 85.1504 207.204 85.3155 207.287C85.4805 207.371 85.6703 207.391 85.8494 207.345L89.5194 206.325C89.621 206.295 89.7278 206.287 89.8328 206.3C89.9379 206.314 90.0389 206.35 90.1294 206.405L93.3694 208.415C93.5285 208.512 93.7181 208.548 93.9018 208.515C94.0856 208.482 94.2507 208.382 94.3657 208.235C94.4806 208.088 94.5374 207.904 94.5252 207.717C94.513 207.531 94.4326 207.356 94.2994 207.225L91.5794 204.555Z" stroke="#A2DFB6" stroke-width="2"/>
<path d="M81.32 216.525C80.1867 218.245 78.6333 219.395 76.66 219.975C76.4476 220.036 76.2586 220.129 76.1189 220.242C75.9793 220.355 75.8958 220.482 75.88 220.605L75.4 224.115C75.2667 225.088 75.6667 225.222 76.6 224.515C77.94 223.495 78.84 222.168 79.3 220.535C79.3377 220.393 79.4192 220.246 79.5395 220.103C79.6598 219.961 79.8165 219.825 80 219.705C80.9667 219.078 81.7567 218.278 82.37 217.305C82.4375 217.199 82.4711 217.062 82.4676 216.908C82.4641 216.754 82.4236 216.588 82.35 216.425C82.0967 215.845 81.7533 215.878 81.32 216.525Z" stroke="#A2DFB6" stroke-width="2"/>
<path d="M88.5993 223.995C85.8793 225.115 82.6194 227.755 84.0194 231.305C84.0429 231.365 84.0788 231.419 84.1248 231.464C84.1707 231.509 84.2256 231.545 84.2859 231.567C84.3463 231.59 84.4107 231.599 84.475 231.596C84.5394 231.592 84.6022 231.574 84.6594 231.545C86.946 230.351 88.6827 228.611 89.8693 226.325C90.3993 225.295 90.4593 223.235 88.5993 223.995Z" stroke="#A2DFB6" stroke-width="2"/>
<path d="M74.9983 243.825C75.0856 243.856 75.1813 243.857 75.2689 243.826C75.3565 243.795 75.4305 243.734 75.4783 243.655C76.4317 242.181 77.3983 240.725 78.3783 239.285C78.865 238.565 78.3117 237.765 76.7183 236.885C76.5883 236.812 76.4433 236.77 76.2947 236.762C76.1462 236.754 75.998 236.78 75.8616 236.838C75.7253 236.896 75.6044 236.985 75.5085 237.097C75.4125 237.209 75.344 237.342 75.3083 237.485C74.9283 238.995 72.9283 243.055 74.9983 243.825Z" stroke="#A2DFB6" stroke-width="2"/>
<path d="M76.7088 247.085C76.3155 246.765 76.1121 246.861 76.0988 247.375C76.0321 249.635 75.7955 251.968 75.3888 254.375C75.2188 255.345 76.3088 256.725 77.1388 255.075C78.3888 252.595 79.3288 249.195 76.7088 247.085Z" stroke="#A2DFB6" stroke-width="2"/>
<path d="M26.2398 216.073C26.4487 216.223 26.8427 216.097 27.3352 215.724C27.8276 215.35 28.3781 214.759 28.8657 214.081C29.3531 213.402 29.7377 212.692 29.9347 212.106C30.1317 211.52 30.125 211.107 29.9162 210.956C29.7072 210.806 29.3132 210.932 28.8207 211.305C28.3283 211.679 27.7778 212.27 27.2903 212.949C26.8028 213.627 26.4182 214.337 26.2212 214.923C26.0242 215.509 26.0309 215.922 26.2398 216.073Z" stroke="#5EBCC4" stroke-width="2"/>
<path d="M11.8926 216.787C11.982 216.842 12.1135 216.826 12.2794 216.742C12.4452 216.658 12.6423 216.506 12.8594 216.295C13.0764 216.084 13.3091 215.818 13.5443 215.512C13.7794 215.207 14.0123 214.868 14.2298 214.514C14.4472 214.161 14.6449 213.8 14.8116 213.452C14.9782 213.105 15.1106 212.777 15.2011 212.488C15.2915 212.199 15.3384 211.955 15.3389 211.769C15.3395 211.583 15.2937 211.459 15.2042 211.404C15.1147 211.349 14.9833 211.364 14.8174 211.448C14.6515 211.532 14.4544 211.684 14.2374 211.895C14.0204 212.106 13.7876 212.372 13.5525 212.678C13.3174 212.983 13.0844 213.322 12.867 213.676C12.6495 214.029 12.4518 214.39 12.2852 214.738C12.1185 215.085 11.9862 215.413 11.8957 215.702C11.8052 215.991 11.7584 216.235 11.7578 216.421C11.7573 216.607 11.8031 216.732 11.8926 216.787Z" stroke="#63C3C5" stroke-width="2"/>
<path d="M14.6676 231.525C12.6976 228.295 12.0576 234.325 11.9776 234.815C11.8642 235.542 12.0909 235.725 12.6576 235.365C13.7376 234.685 14.4675 233.748 14.8475 232.555C14.8941 232.408 14.9021 232.239 14.871 232.061C14.8399 231.883 14.7705 231.7 14.6676 231.525Z" stroke="#5FBEC5" stroke-width="2"/>
<path d="M20.44 249.015C22.26 249.495 22.6966 248.618 21.75 246.385C21.6874 246.242 21.5938 246.119 21.4803 246.033C21.3668 245.946 21.2382 245.898 21.11 245.895C19.61 245.875 19.1333 246.648 19.68 248.215C19.7506 248.417 19.8572 248.596 19.9899 248.736C20.1226 248.876 20.2773 248.972 20.44 249.015Z" stroke="#5FBEC5" stroke-width="2"/>
<path d="M22.9207 251.145C22.2707 253.455 20.0207 256.165 18.3107 257.835C18.1613 257.979 18.0516 258.151 18.0035 258.316C17.9553 258.481 17.9722 258.627 18.0507 258.725C18.6974 259.565 19.4674 259.658 20.3607 259.005C20.6207 258.809 20.8091 258.579 20.9007 258.345C21.9474 255.631 23.6107 253.385 25.8907 251.605C26.3774 251.225 26.3474 250.941 25.8007 250.755C24.1141 250.175 23.1541 250.305 22.9207 251.145Z" stroke="#5FBEC5" stroke-width="2"/>
<path d="M21.6708 265.295L16.8308 268.495C16.7057 268.577 16.6079 268.698 16.5493 268.842C16.4907 268.986 16.4738 269.147 16.5008 269.305C17.3508 274.505 22.1008 266.335 22.8108 265.425C22.9081 265.3 23.0381 265.204 23.1874 265.147C23.3367 265.089 23.5001 265.071 23.6608 265.095C24.6808 265.261 25.2774 264.851 25.4508 263.865C25.4873 263.638 25.4843 263.42 25.442 263.233C25.3997 263.046 25.3198 262.898 25.2108 262.805C22.9974 260.905 21.9774 261.518 22.1508 264.645C22.1561 264.741 22.1137 264.853 22.0286 264.968C21.9436 265.083 21.8194 265.197 21.6708 265.295Z" stroke="#5FBEC5" stroke-width="2"/>
<path d="M78.8263 275.984C77.7263 275.251 76.9496 274.261 76.4963 273.014C70.0463 255.334 69.2363 241.314 67.5263 218.524C66.0763 199.174 65.9063 180.594 66.4463 160.864C66.593 155.571 66.923 151.137 67.4363 147.564C69.243 135.037 71.0896 122.517 72.9763 110.004C73.9563 103.551 74.7163 97.2673 75.2563 91.1539C76.9663 71.7739 79.4563 51.7139 74.8663 32.5339C72.9163 24.3839 71.3363 19.3839 72.0863 13.5539C72.1078 13.3994 72.1732 13.2527 72.2753 13.1294C72.3774 13.0062 72.5125 12.911 72.6663 12.8539C85.033 8.26059 97.6096 4.32391 110.396 1.04391C110.58 0.995711 110.772 0.987082 110.959 1.01857C111.146 1.05005 111.325 1.12096 111.484 1.22665C111.642 1.33235 111.777 1.47045 111.879 1.63196C111.981 1.79346 112.048 1.97472 112.076 2.16392C113.036 8.76392 107.166 22.6039 104.656 29.0239C102.666 34.1039 100.696 41.2339 100.016 46.7039C98.0063 62.7439 97.0963 78.8739 95.2163 94.9339C94.9763 96.9339 95.0263 99.9639 95.3663 104.024C96.2463 114.504 95.8163 124.984 96.5763 135.434C97.4563 147.514 98.243 159.597 98.9363 171.684C99.063 173.977 99.3663 176.754 99.8463 180.014C101.056 188.304 101.146 197.864 101.676 205.264C102.076 210.674 101.116 215.644 101.226 220.924C101.406 230.104 101.086 290.964 78.8263 275.984ZM96.7763 11.8839C97.703 11.6506 97.9863 11.9739 97.6263 12.8539C96.633 15.2939 96.8296 16.3439 98.2163 16.0039C98.6297 15.9044 98.9972 15.6873 99.2574 15.3888C99.5177 15.0903 99.6549 14.7285 99.6463 14.3639C99.6263 13.2039 99.8663 12.1006 100.366 11.0539C100.414 10.9567 100.512 10.8442 100.652 10.7247C100.792 10.6053 100.971 10.482 101.176 10.3639L104.346 8.52392C104.522 8.4221 104.666 8.27115 104.76 8.08874C104.853 7.90634 104.894 7.70002 104.876 7.49393C104.79 6.24059 104.036 5.76059 102.616 6.05392C102.478 6.08288 102.352 6.13633 102.259 6.20648C102.165 6.27663 102.108 6.35982 102.096 6.44392C101.87 8.07059 100.87 9.11058 99.0963 9.56392C98.6801 9.66808 98.2949 9.67159 97.9963 9.57393C95.8363 8.87393 94.7763 8.94059 94.8163 9.77392C91.6496 12.4139 88.2163 14.6739 84.5163 16.5539C84.2062 16.7153 83.9625 16.9767 83.8263 17.2939L81.9663 21.6639C81.9158 21.7867 81.808 21.8863 81.6608 21.9463C81.5135 22.0063 81.3355 22.0231 81.1563 21.9939C77.9896 21.4873 76.583 22.8673 76.9363 26.1339C77.1696 28.3006 77.9596 28.5073 79.3063 26.7539C81.4196 24.0006 84.0163 21.8506 87.0963 20.3039C87.3943 20.1552 87.6436 19.8988 87.8063 19.5739C89.8463 15.4739 92.8363 12.9106 96.7763 11.8839ZM100.476 31.1739C100.73 31.1339 100.906 31.0473 101.006 30.9139C101.034 30.8791 101.047 30.8359 101.043 30.7876C101.04 30.7394 101.021 30.6873 100.987 30.6353C100.953 30.5833 100.906 30.5328 100.849 30.4875C100.791 30.4422 100.726 30.4034 100.656 30.3739L99.4163 29.8439C99.3257 29.8023 99.1877 29.8127 99.0212 29.8735C98.8548 29.9344 98.6679 30.0428 98.4863 30.1839C96.8996 31.3973 95.1296 32.2206 93.1763 32.6539C93.0301 32.6872 92.896 32.7545 92.7873 32.8491C92.6786 32.9438 92.599 33.0626 92.5563 33.1939C91.6163 36.0639 92.2163 39.3039 87.6063 38.2539C86.7263 38.0539 86.1763 37.3039 85.1863 37.1639C85.0206 37.1421 84.8535 37.1763 84.7145 37.2604C84.5755 37.3446 84.4734 37.4733 84.4263 37.6239L83.6463 40.0939C83.5906 40.2745 83.5868 40.4635 83.6352 40.6341C83.6837 40.8046 83.7821 40.9481 83.9163 41.0439C84.423 41.4039 85.4496 41.4139 86.9963 41.0739C87.1574 41.0368 87.3265 41.0538 87.4781 41.1223C87.6297 41.1909 87.7554 41.3073 87.8363 41.4539C89.0763 43.7339 90.4063 44.9239 91.5863 41.7239C93.2863 37.1339 94.4063 34.8039 98.3963 31.7939C98.7096 31.5539 99.403 31.3473 100.476 31.1739ZM81.2363 31.9139C79.5463 32.3839 75.8363 36.8039 78.5863 37.5439C78.7193 37.5787 78.8649 37.5625 79.0017 37.4977C79.1385 37.4329 79.2592 37.323 79.3463 37.1839C80.1063 35.9539 80.2963 35.6439 81.7563 35.0339C83.3096 34.3806 83.423 33.4139 82.0963 32.1339C81.9836 32.0269 81.8455 31.9505 81.6949 31.9119C81.5444 31.8734 81.3865 31.8741 81.2363 31.9139ZM95.2463 46.5539C92.3363 46.4739 89.2263 52.0839 86.6763 54.0839C85.1163 55.3139 84.6563 56.5639 83.7063 58.2139C83.585 58.4284 83.5031 58.6468 83.4725 58.8374C83.4419 59.028 83.4643 59.1809 83.5363 59.2739C84.843 60.9339 85.703 60.6039 86.1163 58.2839C86.1353 58.1823 86.2076 58.0575 86.3265 57.921C86.4454 57.7846 86.6071 57.6411 86.7963 57.5039C90.4496 54.8239 93.4396 51.5472 95.7663 47.6739C95.8325 47.562 95.8715 47.4348 95.8794 47.3051C95.8872 47.1753 95.8637 47.0475 95.8111 46.9343C95.7586 46.8211 95.6788 46.7264 95.5797 46.6597C95.4806 46.593 95.3657 46.5565 95.2463 46.5539ZM90.6563 61.0639C86.6963 60.6139 86.6863 63.8139 86.5063 66.5539C86.4396 67.5873 86.843 67.7873 87.7163 67.1539C89.5963 65.7873 90.713 63.9306 91.0663 61.5839C91.076 61.5234 91.073 61.4614 91.0573 61.4019C91.0417 61.3424 91.0138 61.2866 90.9755 61.2379C90.9371 61.1892 90.8889 61.1487 90.834 61.1187C90.7792 61.0888 90.7187 61.0702 90.6563 61.0639ZM89.2963 73.2139C89.1813 73.494 88.9837 73.7521 88.7186 73.9687C88.4536 74.1853 88.1279 74.3546 87.7663 74.4639C85.713 75.0839 84.8663 76.4439 85.2263 78.5439C85.2521 78.6963 85.3347 78.8367 85.4613 78.9434C85.5878 79.0501 85.7513 79.117 85.9263 79.1339C89.4463 79.4539 91.6663 73.9539 92.8863 71.3039C93.3663 70.2706 93.1263 69.9539 92.1663 70.3539C90.8063 70.9139 89.8496 71.8673 89.2963 73.2139ZM89.8063 88.5639C90.193 86.3039 90.9296 84.1173 92.0163 82.0039C92.0938 81.8517 92.1378 81.6892 92.1447 81.5294C92.1517 81.3697 92.1214 81.2171 92.0563 81.0839C91.1763 79.2739 90.2863 81.2939 89.9663 82.1139C89.2596 83.9139 88.043 85.2939 86.3163 86.2539C84.823 87.0806 84.7363 87.8106 86.0563 88.4439L88.4263 89.5839C88.6534 89.6929 88.8561 89.803 89.0141 89.9031C89.1721 90.0032 89.2798 90.0897 89.3263 90.1539C89.8396 90.9206 89.6496 91.6106 88.7563 92.2239C86.4896 93.7772 84.9196 95.7439 84.0463 98.1239C83.9899 98.2768 83.9759 98.4389 84.0063 98.5889C84.0366 98.7388 84.1098 98.8696 84.2163 98.9639C84.783 99.4506 85.2896 99.3539 85.7363 98.6739C87.4763 96.0473 89.503 93.6006 91.8163 91.3339C91.908 91.2447 91.9753 91.1341 92.0126 91.0112C92.0498 90.8883 92.056 90.7568 92.0306 90.6276C92.0051 90.4984 91.9488 90.3752 91.8663 90.2685C91.7838 90.1617 91.6775 90.0744 91.5563 90.0139L90.1663 89.3139C90.0362 89.2466 89.9312 89.1376 89.8665 89.0028C89.8018 88.868 89.7807 88.7143 89.8063 88.5639ZM77.2271 95.5083C77.5643 95.6507 78.0413 95.4234 78.5534 94.8763C79.0654 94.3291 79.5705 93.5071 79.9575 92.5909C80.3445 91.6748 80.5817 90.7396 80.617 89.991C80.6522 89.2425 80.4826 88.742 80.1455 88.5995C79.8083 88.4571 79.3313 88.6845 78.8192 89.2316C78.3072 89.7787 77.8021 90.6008 77.4151 91.5169C77.0281 92.4331 76.7909 93.3683 76.7556 94.1168C76.7204 94.8653 76.89 95.3659 77.2271 95.5083ZM83.1378 112.242C83.2315 112.303 83.3954 112.253 83.6201 112.096C83.8448 111.938 84.1259 111.676 84.4474 111.325C84.7689 110.973 85.1245 110.539 85.4938 110.046C85.8632 109.554 86.239 109.014 86.6 108.456C86.9609 107.898 87.2999 107.333 87.5975 106.795C87.8951 106.256 88.1455 105.754 88.3344 105.316C88.5234 104.879 88.6472 104.515 88.6987 104.246C88.7502 103.976 88.7285 103.806 88.6348 103.745C88.5411 103.685 88.3772 103.735 88.1525 103.892C87.9278 104.05 87.6467 104.312 87.3252 104.663C87.0037 105.015 86.6481 105.449 86.2788 105.941C85.9094 106.434 85.5335 106.974 85.1726 107.532C84.8117 108.09 84.4727 108.655 84.1751 109.193C83.8775 109.732 83.6271 110.234 83.4382 110.672C83.2492 111.109 83.1254 111.473 83.0739 111.742C83.0224 112.012 83.0441 112.182 83.1378 112.242ZM79.6263 111.494C78.0263 110.144 76.6663 112.234 77.2563 113.664C77.2896 113.745 77.3385 113.82 77.3988 113.883C77.4591 113.945 77.5289 113.993 77.6025 114.023C77.6761 114.052 77.7513 114.062 77.8216 114.052C77.8918 114.042 77.9552 114.012 78.0063 113.964L79.8463 112.284C79.8892 112.245 79.9177 112.193 79.9298 112.131C79.942 112.068 79.9375 111.998 79.9167 111.923C79.896 111.849 79.8594 111.772 79.8093 111.698C79.7592 111.624 79.6969 111.554 79.6263 111.494ZM85.1163 117.844L88.7963 114.734C88.9638 114.591 89.1138 114.316 89.2163 113.964C89.4496 113.164 89.2163 112.717 88.5163 112.624C88.4456 112.619 88.3409 112.713 88.2214 112.888C88.1019 113.062 87.9758 113.306 87.8663 113.574C87.0863 115.461 85.913 115.654 84.3463 114.154C84.2793 114.09 84.2041 114.036 84.1252 113.994C84.0463 113.953 83.9652 113.925 83.8868 113.913C83.8084 113.901 83.7343 113.905 83.669 113.924C83.6036 113.943 83.5483 113.977 83.5063 114.024C83.1863 114.397 83.3663 115.114 84.0463 116.174C84.174 116.372 84.2485 116.6 84.2625 116.835C84.2765 117.069 84.2296 117.303 84.1263 117.514C82.4563 120.934 80.7963 122.104 80.4463 126.324C80.4404 126.377 80.4519 126.437 80.4797 126.497C80.5076 126.558 80.551 126.619 80.6063 126.674L80.7263 126.804C80.993 127.077 81.2063 126.924 81.3663 126.344C81.8196 124.697 82.6363 123.244 83.8163 121.984C84.0498 121.737 84.194 121.435 84.2263 121.124L84.5163 118.534C84.5255 118.474 84.5874 118.377 84.6942 118.254C84.801 118.131 84.948 117.989 85.1163 117.844ZM91.4063 122.864C91.3796 122.011 90.9696 121.681 90.1763 121.874C89.8545 121.958 89.5878 122.132 89.4263 122.364L83.6863 130.634C82.9796 131.654 83.2463 132.114 84.4863 132.014C84.9596 131.974 85.623 131.594 86.4763 130.874C86.7099 130.673 86.8783 130.382 86.9563 130.044C87.543 127.511 89.1063 125.521 91.6463 124.074C92.113 123.807 92.1796 123.594 91.8463 123.434C91.7186 123.367 91.6107 123.278 91.5334 123.178C91.4561 123.078 91.4122 122.97 91.4063 122.864ZM78.7257 128.672C78.7526 128.387 78.6652 128.103 78.4826 127.882C78.3 127.662 78.0373 127.523 77.7521 127.496L76.9357 127.418C76.6505 127.391 76.3664 127.479 76.1457 127.661C75.925 127.844 75.7858 128.107 75.7589 128.392L75.4069 132.115C75.38 132.401 75.4674 132.685 75.65 132.905C75.8326 133.126 76.0953 133.265 76.3805 133.292L77.1969 133.369C77.482 133.396 77.7662 133.309 77.9869 133.126C78.2076 132.944 78.3467 132.681 78.3737 132.396L78.7257 128.672ZM84.1863 152.574L82.6263 149.114C82.6063 149.062 82.6391 148.949 82.7191 148.793C82.7991 148.636 82.9216 148.446 83.0663 148.254C84.553 146.314 86.5096 145.121 88.9363 144.674C90.0163 144.474 90.7596 143.284 91.1663 141.104C91.2396 140.711 91.073 140.544 90.6663 140.604C90.4063 140.64 90.1641 140.681 89.979 140.721C89.7938 140.761 89.6766 140.797 89.6463 140.824C87.0396 143.311 84.213 145.497 81.1663 147.384C81.0422 147.459 80.9405 147.579 80.8718 147.731C80.8032 147.882 80.7702 148.059 80.7763 148.244C80.8663 151.244 83.4863 153.614 84.3163 156.674C84.4963 157.341 84.7896 157.414 85.1963 156.894L88.2763 152.964C88.683 152.444 88.5596 152.244 87.9063 152.364L85.1663 152.874C84.9458 152.916 84.7281 152.909 84.5496 152.855C84.3711 152.8 84.2428 152.701 84.1863 152.574ZM91.5763 204.554C91.5004 204.48 91.4407 204.391 91.4011 204.293C91.3615 204.195 91.3428 204.09 91.3463 203.984L91.4663 200.174C91.4768 199.984 91.4154 199.796 91.2944 199.649C91.1734 199.502 91.0015 199.406 90.8128 199.379C90.6241 199.353 90.4324 199.398 90.2757 199.507C90.1189 199.615 90.0085 199.778 89.9663 199.964L89.0163 203.654C88.9897 203.756 88.9422 203.851 88.8768 203.934C88.8113 204.017 88.7295 204.085 88.6363 204.134L85.2863 205.944C85.1246 206.034 85.0012 206.179 84.9393 206.354C84.8773 206.528 84.881 206.719 84.9497 206.891C85.0184 207.062 85.1473 207.203 85.3124 207.287C85.4774 207.37 85.6673 207.39 85.8463 207.344L89.5163 206.324C89.6179 206.294 89.7247 206.286 89.8297 206.299C89.9348 206.313 90.0358 206.349 90.1263 206.404L93.3663 208.414C93.5254 208.512 93.715 208.547 93.8987 208.514C94.0825 208.481 94.2476 208.381 94.3626 208.234C94.4775 208.087 94.5343 207.903 94.5221 207.716C94.5099 207.53 94.4295 207.355 94.2963 207.224L91.5763 204.554ZM81.3163 216.524C80.183 218.244 78.6296 219.394 76.6563 219.974C76.4439 220.035 76.2549 220.128 76.1152 220.241C75.9756 220.354 75.8921 220.481 75.8763 220.604L75.3963 224.114C75.263 225.087 75.663 225.221 76.5963 224.514C77.9363 223.494 78.8363 222.167 79.2963 220.534C79.334 220.392 79.4154 220.245 79.5358 220.102C79.6561 219.96 79.8128 219.824 79.9963 219.704C80.963 219.077 81.753 218.277 82.3663 217.304C82.4338 217.198 82.4674 217.061 82.4639 216.907C82.4604 216.753 82.4199 216.586 82.3463 216.424C82.093 215.844 81.7496 215.877 81.3163 216.524ZM88.5963 223.994C85.8763 225.114 82.6163 227.754 84.0163 231.304C84.0399 231.364 84.0758 231.418 84.1217 231.463C84.1676 231.509 84.2225 231.544 84.2829 231.566C84.3432 231.589 84.4076 231.599 84.472 231.595C84.5363 231.591 84.5991 231.574 84.6563 231.544C86.943 230.351 88.6796 228.611 89.8663 226.324C90.3963 225.294 90.4563 223.234 88.5963 223.994ZM74.9963 243.824C75.0836 243.856 75.1792 243.856 75.2668 243.825C75.3544 243.794 75.4285 243.734 75.4763 243.654C76.4296 242.181 77.3963 240.724 78.3763 239.284C78.863 238.564 78.3096 237.764 76.7163 236.884C76.5862 236.811 76.4413 236.77 76.2927 236.761C76.1441 236.753 75.9959 236.779 75.8596 236.837C75.7232 236.895 75.6024 236.984 75.5064 237.096C75.4105 237.208 75.342 237.341 75.3063 237.484C74.9263 238.994 72.9263 243.054 74.9963 243.824ZM76.7063 247.084C76.313 246.764 76.1096 246.861 76.0963 247.374C76.0296 249.634 75.793 251.967 75.3863 254.374C75.2163 255.344 76.3063 256.724 77.1363 255.074C78.3863 252.594 79.3263 249.194 76.7063 247.084Z" fill="#97DAB0"/>
<path d="M30.1067 32.9041C32.5267 24.6841 21.0567 15.8741 16.2367 10.5441C14.7367 8.90406 10.3367 5.58407 15.7067 4.72407C16.6867 4.57074 17.8067 4.6774 19.0667 5.04406C29.6067 8.06406 40.6067 11.3041 51.5067 12.3141C51.9631 12.3563 52.3905 12.5572 52.7154 12.8821C53.0403 13.207 53.2423 13.6356 53.2867 14.0941C54.0734 21.8874 54.1734 29.6741 53.5867 37.4541C53.1667 43.0041 51.5767 51.8341 51.1567 59.3641C50.0834 78.7174 49.4334 97.3841 49.2067 115.364C49.0467 128.374 50.6067 145.164 50.4367 155.614C50.0701 177.687 48.0167 203.147 44.2767 231.994C42.6967 244.154 38.0967 257.334 33.1667 267.564C32.0267 269.951 29.91 272.601 26.8167 275.514C23.5567 278.587 20.5634 278.304 17.8367 274.664C14.1634 269.764 11.6401 265.237 10.2667 261.084C5.82673 247.631 2.95338 233.884 1.64672 219.844C0.426716 206.614 1.26673 191.124 1.48673 176.864C1.68673 164.251 2.60339 151.687 4.23673 139.174C6.29673 123.394 12.0867 103.514 15.5167 85.7241C16.7234 79.4507 17.9601 73.1807 19.2267 66.9141C20.4367 60.8941 22.5467 55.0341 24.3067 49.0541C25.8467 43.8541 28.4767 38.4541 30.1067 32.9041ZM26.2385 216.072C26.4474 216.222 26.8415 216.097 27.3339 215.723C27.8264 215.35 28.3769 214.759 28.8644 214.08C29.3519 213.402 29.7365 212.691 29.9335 212.105C30.1305 211.52 30.1238 211.106 29.9149 210.956C29.706 210.806 29.312 210.931 28.8195 211.305C28.3271 211.679 27.7765 212.27 27.289 212.948C26.8015 213.627 26.417 214.337 26.22 214.923C26.023 215.509 26.0296 215.922 26.2385 216.072ZM11.8909 216.786C11.9804 216.841 12.1118 216.826 12.2777 216.741C12.4436 216.657 12.6407 216.505 12.8577 216.294C13.0747 216.083 13.3075 215.817 13.5426 215.511C13.7777 215.206 14.0107 214.867 14.2281 214.513C14.4456 214.16 14.6433 213.799 14.8099 213.451C14.9766 213.104 15.1089 212.776 15.1994 212.487C15.2899 212.198 15.3367 211.954 15.3373 211.768C15.3378 211.582 15.292 211.458 15.2025 211.403C15.113 211.348 14.9816 211.363 14.8157 211.447C14.6498 211.531 14.4528 211.683 14.2357 211.894C14.0187 212.105 13.786 212.371 13.5508 212.677C13.3157 212.982 13.0828 213.321 12.8653 213.675C12.6479 214.028 12.4502 214.389 12.2835 214.737C12.1169 215.084 11.9845 215.412 11.894 215.701C11.8035 215.99 11.7567 216.234 11.7562 216.42C11.7556 216.606 11.8014 216.731 11.8909 216.786ZM14.6667 231.524C12.6967 228.294 12.0567 234.324 11.9767 234.814C11.8634 235.541 12.0901 235.724 12.6567 235.364C13.7367 234.684 14.4667 233.747 14.8467 232.554C14.8933 232.407 14.9013 232.238 14.8702 232.06C14.8391 231.882 14.7697 231.699 14.6667 231.524ZM20.4367 249.014C22.2567 249.494 22.6934 248.617 21.7467 246.384C21.6842 246.241 21.5905 246.119 21.477 246.032C21.3635 245.945 21.235 245.897 21.1067 245.894C19.6067 245.874 19.13 246.647 19.6767 248.214C19.7474 248.416 19.8539 248.595 19.9866 248.735C20.1194 248.875 20.2741 248.971 20.4367 249.014ZM22.9167 251.144C22.2667 253.454 20.0167 256.164 18.3067 257.834C18.1573 257.979 18.0476 258.151 17.9995 258.315C17.9513 258.48 17.9682 258.626 18.0467 258.724C18.6934 259.564 19.4634 259.657 20.3567 259.004C20.6167 258.809 20.8051 258.579 20.8967 258.344C21.9434 255.631 23.6067 253.384 25.8867 251.604C26.3734 251.224 26.3434 250.941 25.7967 250.754C24.1101 250.174 23.1501 250.304 22.9167 251.144ZM21.6667 265.294L16.8267 268.494C16.7016 268.577 16.6038 268.697 16.5452 268.841C16.4866 268.985 16.4698 269.146 16.4967 269.304C17.3467 274.504 22.0967 266.334 22.8067 265.424C22.9041 265.3 23.034 265.204 23.1834 265.146C23.3327 265.088 23.496 265.07 23.6567 265.094C24.6767 265.261 25.2734 264.851 25.4467 263.864C25.4832 263.638 25.4802 263.419 25.4379 263.232C25.3957 263.046 25.3157 262.898 25.2067 262.804C22.9934 260.904 21.9734 261.517 22.1467 264.644C22.152 264.74 22.1096 264.852 22.0246 264.967C21.9395 265.082 21.8154 265.196 21.6667 265.294Z" fill="#5AB6C1"/>
<path d="M96.7799 11.8842C92.8399 12.9108 89.8499 15.4742 87.8099 19.5742C87.6473 19.899 87.3979 20.1554 87.0999 20.3042C84.0199 21.8508 81.4232 24.0008 79.3099 26.7541C77.9632 28.5075 77.1733 28.3008 76.9399 26.1342C76.5866 22.8675 77.9933 21.4875 81.1599 21.9942C81.3392 22.0233 81.5171 22.0065 81.6644 21.9465C81.8117 21.8865 81.9194 21.7869 81.9699 21.6642L83.8299 17.2941C83.9661 16.977 84.2099 16.7155 84.5199 16.5542C88.2199 14.6742 91.6532 12.4142 94.8199 9.77415C94.7799 8.94082 95.8399 8.87416 97.9999 9.57416C98.2985 9.67182 98.6838 9.66831 99.0999 9.56415C100.873 9.11081 101.873 8.07082 102.1 6.44415C102.112 6.36005 102.169 6.27686 102.262 6.20671C102.356 6.13656 102.481 6.08311 102.62 6.05415C104.04 5.76082 104.793 6.24082 104.88 7.49415C104.898 7.70025 104.857 7.90657 104.763 8.08897C104.669 8.27138 104.526 8.42232 104.35 8.52415L101.18 10.3641C100.975 10.4822 100.796 10.6055 100.655 10.7249C100.515 10.8444 100.418 10.9569 100.37 11.0542C99.8699 12.1008 99.6299 13.2041 99.6499 14.3641C99.6586 14.7288 99.5213 15.0905 99.261 15.389C99.0008 15.6875 98.6333 15.9046 98.2199 16.0041C96.8333 16.3441 96.6366 15.2942 97.6299 12.8542C97.9899 11.9742 97.7066 11.6508 96.7799 11.8842Z" fill="#ACE3BB"/>
<path d="M100.476 31.1744C99.403 31.3477 98.7097 31.5544 98.3963 31.7944C94.4063 34.8044 93.2863 37.1344 91.5863 41.7244C90.4063 44.9244 89.0763 43.7344 87.8363 41.4544C87.7555 41.3078 87.6298 41.1914 87.4782 41.1228C87.3266 41.0543 87.1574 41.0372 86.9963 41.0744C85.4497 41.4144 84.423 41.4044 83.9163 41.0444C83.7821 40.9485 83.6838 40.8051 83.6353 40.6345C83.5868 40.464 83.5907 40.2749 83.6463 40.0944L84.4263 37.6244C84.4735 37.4738 84.5755 37.345 84.7146 37.2609C84.8536 37.1767 85.0207 37.1426 85.1863 37.1644C86.1763 37.3044 86.7263 38.0544 87.6063 38.2544C92.2163 39.3044 91.6163 36.0644 92.5563 33.1944C92.599 33.0631 92.6787 32.9443 92.7874 32.8496C92.8961 32.755 93.0301 32.6877 93.1763 32.6544C95.1297 32.2211 96.8997 31.3977 98.4864 30.1844C98.668 30.0433 98.8548 29.9349 99.0213 29.874C99.1878 29.8132 99.3257 29.8028 99.4163 29.8444L100.656 30.3744C100.726 30.4039 100.791 30.4427 100.849 30.488C100.906 30.5332 100.953 30.5838 100.987 30.6358C101.021 30.6878 101.04 30.7399 101.043 30.7881C101.047 30.8364 101.034 30.8796 101.006 30.9144C100.906 31.0477 100.73 31.1344 100.476 31.1744Z" fill="#ACE3BB"/>
<path d="M82.0996 32.1342C83.4263 33.4142 83.313 34.3808 81.7596 35.0342C80.2996 35.6442 80.1096 35.9542 79.3496 37.1842C79.2626 37.3232 79.1418 37.4332 79.005 37.498C78.8683 37.5628 78.7227 37.5789 78.5897 37.5441C75.8397 36.8041 79.5497 32.3842 81.2397 31.9142C81.3899 31.8744 81.5478 31.8737 81.6983 31.9122C81.8488 31.9507 81.987 32.0271 82.0996 32.1342Z" fill="#ACE3BB"/>
<path d="M95.2481 46.5546C95.3675 46.5571 95.4824 46.5936 95.5815 46.6603C95.6806 46.7271 95.7603 46.8217 95.8129 46.9349C95.8655 47.0481 95.889 47.176 95.8811 47.3057C95.8733 47.4355 95.8343 47.5626 95.7681 47.6746C93.4414 51.5479 90.4514 54.8246 86.7981 57.5046C86.6089 57.6418 86.4472 57.7853 86.3283 57.9217C86.2094 58.0581 86.137 58.183 86.1181 58.2846C85.7047 60.6046 84.8447 60.9346 83.5381 59.2746C83.466 59.1816 83.4437 59.0287 83.4743 58.8381C83.5048 58.6475 83.5867 58.4291 83.7081 58.2146C84.6581 56.5646 85.1181 55.3146 86.6781 54.0846C89.2281 52.0846 92.3381 46.4746 95.2481 46.5546Z" fill="#ACE3BB"/>
<path d="M86.5071 66.5541C86.6871 63.8141 86.6971 60.6141 90.6571 61.0641C90.7195 61.0704 90.78 61.089 90.8349 61.1189C90.8897 61.1488 90.9379 61.1894 90.9763 61.2381C91.0147 61.2868 91.0425 61.3426 91.0581 61.4021C91.0738 61.4616 91.0768 61.5235 91.0671 61.5841C90.7138 63.9308 89.5971 65.7874 87.7171 67.1541C86.8438 67.7874 86.4404 67.5874 86.5071 66.5541Z" fill="#ACE3BB"/>
<path d="M89.299 73.214C89.8523 71.8673 90.809 70.914 92.169 70.354C93.129 69.954 93.369 70.2706 92.889 71.304C91.669 73.954 89.449 79.454 85.929 79.134C85.754 79.1171 85.5905 79.0501 85.464 78.9434C85.3374 78.8368 85.2548 78.6963 85.229 78.544C84.869 76.444 85.7157 75.084 87.769 74.464C88.1306 74.3547 88.4563 74.1853 88.7213 73.9687C88.9864 73.7522 89.184 73.4941 89.299 73.214Z" fill="#ACE3BB"/>
<path d="M90.1679 89.3146L91.5579 90.0146C91.6791 90.0751 91.7853 90.1624 91.8678 90.2692C91.9503 90.3759 92.0067 90.4991 92.0321 90.6283C92.0576 90.7575 92.0514 90.889 92.0141 91.0119C91.9769 91.1348 91.9096 91.2454 91.8179 91.3346C89.5045 93.6013 87.4779 96.048 85.7379 98.6746C85.2912 99.3546 84.7845 99.4513 84.2179 98.9646C84.1114 98.8703 84.0382 98.7395 84.0079 98.5896C83.9775 98.4396 83.9915 98.2775 84.0479 98.1246C84.9212 95.7446 86.4912 93.7779 88.7579 92.2246C89.6512 91.6113 89.8412 90.9213 89.3279 90.1546C89.2814 90.0904 89.1737 90.0039 89.0157 89.9038C88.8577 89.8037 88.6549 89.6936 88.4279 89.5846L86.0579 88.4446C84.7379 87.8113 84.8245 87.0813 86.3179 86.2546C88.0445 85.2946 89.2612 83.9146 89.9679 82.1146C90.2879 81.2946 91.1779 79.2746 92.0579 81.0846C92.123 81.2178 92.1533 81.3704 92.1463 81.5302C92.1394 81.6899 92.0954 81.8524 92.0179 82.0046C90.9312 84.118 90.1945 86.3046 89.8079 88.5646C89.7823 88.715 89.8034 88.8687 89.8681 89.0035C89.9328 89.1383 90.0378 89.2473 90.1679 89.3146Z" fill="#ACE3BB"/>
<path d="M77.4163 91.5172C76.6104 93.425 76.5262 95.212 77.2283 95.5086C77.9304 95.8052 79.1529 94.499 79.9588 92.5912C80.7647 90.6833 80.8488 88.8963 80.1467 88.5997C79.4446 88.3032 78.2222 89.6093 77.4163 91.5172Z" fill="#ACE3BB"/>
<path d="M85.1757 107.532C83.6578 109.878 82.7468 111.987 83.141 112.242C83.5351 112.497 85.0852 110.802 86.6031 108.456C88.121 106.109 89.032 104 88.6379 103.745C88.2437 103.49 86.6937 105.186 85.1757 107.532Z" fill="#ACE3BB"/>
<path d="M77.2577 113.664C76.6677 112.234 78.0277 110.144 79.6277 111.494C79.6983 111.555 79.7606 111.624 79.8107 111.698C79.8607 111.772 79.8973 111.849 79.9181 111.923C79.9389 111.998 79.9434 112.069 79.9312 112.131C79.9191 112.193 79.8906 112.245 79.8477 112.284L78.0077 113.964C77.9566 114.012 77.8932 114.042 77.8229 114.052C77.7527 114.062 77.6775 114.052 77.6039 114.023C77.5303 113.993 77.4604 113.945 77.4002 113.883C77.3399 113.821 77.291 113.745 77.2577 113.664Z" fill="#ACE3BB"/>
<path d="M84.5168 118.534L84.2268 121.124C84.1945 121.435 84.0503 121.738 83.8168 121.984C82.6368 123.244 81.8201 124.698 81.3668 126.344C81.2068 126.924 80.9935 127.078 80.7268 126.804L80.6068 126.674C80.5515 126.619 80.5081 126.559 80.4803 126.498C80.4524 126.437 80.4409 126.377 80.4468 126.324C80.7968 122.104 82.4568 120.934 84.1268 117.514C84.2301 117.304 84.277 117.07 84.263 116.835C84.249 116.6 84.1745 116.373 84.0468 116.174C83.3668 115.114 83.1868 114.398 83.5068 114.024C83.5488 113.977 83.6041 113.943 83.6695 113.924C83.7349 113.905 83.8089 113.901 83.8873 113.914C83.9657 113.926 84.0468 113.953 84.1257 113.995C84.2047 114.036 84.2798 114.09 84.3468 114.154C85.9135 115.654 87.0868 115.461 87.8668 113.574C87.9763 113.306 88.1024 113.063 88.2219 112.888C88.3414 112.713 88.4461 112.62 88.5168 112.624C89.2168 112.718 89.4501 113.164 89.2168 113.964C89.1143 114.316 88.9643 114.591 88.7968 114.734L85.1168 117.844C84.9485 117.989 84.8016 118.132 84.6947 118.254C84.5879 118.377 84.526 118.475 84.5168 118.534Z" fill="#ACE3BB"/>
<path d="M91.8495 123.434C92.1828 123.594 92.1161 123.807 91.6495 124.074C89.1095 125.521 87.5461 127.511 86.9595 130.044C86.8815 130.382 86.7131 130.673 86.4795 130.874C85.6261 131.594 84.9628 131.974 84.4895 132.014C83.2495 132.114 82.9828 131.654 83.6895 130.634L89.4295 122.364C89.5909 122.132 89.8577 121.958 90.1795 121.874C90.9728 121.681 91.3828 122.011 91.4095 122.864C91.4154 122.97 91.4592 123.078 91.5365 123.178C91.6138 123.278 91.7218 123.367 91.8495 123.434Z" fill="#ACE3BB"/>
<path d="M77.7548 127.496L76.9385 127.419C76.3447 127.363 75.8178 127.799 75.7616 128.393L75.4097 132.116C75.3535 132.71 75.7894 133.237 76.3832 133.293L77.1996 133.37C77.7934 133.426 78.3203 132.99 78.3765 132.396L78.7284 128.673C78.7846 128.079 78.3487 127.552 77.7548 127.496Z" fill="#ACE3BB"/>
<path d="M85.1681 152.875L87.9081 152.365C88.5614 152.245 88.6847 152.445 88.2781 152.965L85.1981 156.895C84.7914 157.415 84.4981 157.341 84.3181 156.675C83.4881 153.615 80.8681 151.245 80.7781 148.245C80.7719 148.06 80.8049 147.883 80.8736 147.731C80.9422 147.58 81.044 147.46 81.1681 147.385C84.2147 145.498 87.0414 143.311 89.6481 140.825C89.6783 140.798 89.7956 140.762 89.9807 140.722C90.1659 140.682 90.4081 140.641 90.6681 140.605C91.0747 140.545 91.2414 140.711 91.1681 141.105C90.7614 143.285 90.0181 144.475 88.9381 144.675C86.5114 145.121 84.5547 146.315 83.0681 148.255C82.9234 148.447 82.8009 148.637 82.7209 148.793C82.6408 148.95 82.6081 149.063 82.6281 149.115L84.1881 152.575C84.2446 152.702 84.3728 152.801 84.5513 152.856C84.7298 152.91 84.9476 152.917 85.1681 152.875Z" fill="#ACE3BB"/>
<path d="M91.5794 204.554L94.2994 207.224C94.4326 207.355 94.513 207.53 94.5252 207.716C94.5374 207.903 94.4806 208.087 94.3657 208.234C94.2507 208.381 94.0856 208.481 93.9018 208.514C93.7181 208.547 93.5285 208.511 93.3694 208.414L90.1294 206.404C90.0389 206.349 89.9379 206.313 89.8328 206.299C89.7278 206.286 89.621 206.294 89.5194 206.324L85.8494 207.344C85.6703 207.39 85.4805 207.37 85.3155 207.286C85.1504 207.203 85.0215 207.062 84.9528 206.89C84.8841 206.719 84.8804 206.528 84.9424 206.354C85.0043 206.179 85.1277 206.034 85.2894 205.944L88.6394 204.134C88.7325 204.085 88.8144 204.016 88.8798 203.934C88.9453 203.851 88.9928 203.756 89.0194 203.654L89.9694 199.964C90.0115 199.778 90.122 199.615 90.2787 199.507C90.4355 199.398 90.6272 199.353 90.8159 199.379C91.0046 199.406 91.1764 199.502 91.2975 199.649C91.4185 199.796 91.4799 199.984 91.4694 200.174L91.3494 203.984C91.3459 204.09 91.3646 204.195 91.4042 204.293C91.4438 204.391 91.5035 204.48 91.5794 204.554Z" fill="#ACE3BB"/>
<path d="M27.2895 212.948C26.2743 214.361 25.804 215.76 26.2391 216.073C26.6741 216.385 27.8498 215.493 28.865 214.081C29.8802 212.668 30.3505 211.269 29.9154 210.956C29.4804 210.644 28.3047 211.536 27.2895 212.948Z" fill="#61C1C6"/>
<path d="M12.8682 213.675C11.9537 215.162 11.5174 216.554 11.8937 216.786C12.2701 217.018 13.3165 216 14.2309 214.514C15.1454 213.027 15.5817 211.635 15.2053 211.403C14.829 211.172 13.7826 212.189 12.8682 213.675Z" fill="#6BD0C9"/>
<path d="M81.3161 216.524C81.7494 215.877 82.0928 215.844 82.3461 216.424C82.4197 216.587 82.4602 216.753 82.4637 216.907C82.4672 217.061 82.4336 217.198 82.3661 217.304C81.7528 218.277 80.9628 219.077 79.9961 219.704C79.8126 219.824 79.6559 219.96 79.5356 220.102C79.4153 220.245 79.3338 220.392 79.2961 220.534C78.8361 222.167 77.9361 223.494 76.5961 224.514C75.6628 225.221 75.2628 225.087 75.3961 224.114L75.8761 220.604C75.8919 220.481 75.9754 220.354 76.115 220.241C76.2547 220.128 76.4437 220.035 76.6561 219.974C78.6294 219.394 80.1828 218.244 81.3161 216.524Z" fill="#ACE3BB"/>
<path d="M84.0194 231.305C82.6194 227.755 85.8793 225.115 88.5993 223.995C90.4593 223.235 90.3993 225.295 89.8693 226.325C88.6827 228.611 86.946 230.351 84.6594 231.545C84.6022 231.574 84.5394 231.592 84.475 231.596C84.4107 231.599 84.3463 231.59 84.2859 231.567C84.2256 231.545 84.1707 231.509 84.1248 231.464C84.0788 231.419 84.0429 231.365 84.0194 231.305Z" fill="#ACE3BB"/>
<path d="M11.9776 234.814C12.0576 234.324 12.6976 228.294 14.6676 231.524C14.7705 231.699 14.8399 231.882 14.871 232.06C14.9021 232.238 14.8941 232.407 14.8475 232.554C14.4675 233.747 13.7376 234.684 12.6576 235.364C12.0909 235.724 11.8642 235.541 11.9776 234.814Z" fill="#63C6C8"/>
<path d="M74.9983 243.825C72.9283 243.055 74.9283 238.995 75.3083 237.485C75.344 237.342 75.4125 237.209 75.5085 237.097C75.6044 236.985 75.7253 236.896 75.8616 236.838C75.998 236.78 76.1462 236.754 76.2947 236.762C76.4433 236.77 76.5883 236.812 76.7183 236.885C78.3117 237.765 78.865 238.565 78.3783 239.285C77.3983 240.725 76.4317 242.181 75.4783 243.655C75.4305 243.734 75.3565 243.795 75.2689 243.826C75.1813 243.857 75.0856 243.856 74.9983 243.825Z" fill="#ACE3BB"/>
<path d="M19.6761 248.214C19.1294 246.647 19.6061 245.874 21.1061 245.894C21.2343 245.897 21.3629 245.945 21.4764 246.032C21.5899 246.118 21.6835 246.241 21.7461 246.384C22.6927 248.617 22.2561 249.494 20.4361 249.014C20.2734 248.971 20.1187 248.875 19.986 248.735C19.8533 248.595 19.7467 248.416 19.6761 248.214Z" fill="#63C6C8"/>
<path d="M76.7088 247.085C79.3288 249.195 78.3888 252.595 77.1388 255.075C76.3088 256.725 75.2188 255.345 75.3888 254.375C75.7955 251.968 76.0321 249.635 76.0988 247.375C76.1121 246.861 76.3155 246.765 76.7088 247.085Z" fill="#ACE3BB"/>
<path d="M22.9168 251.145C23.1502 250.305 24.1102 250.175 25.7968 250.755C26.3435 250.941 26.3735 251.225 25.8868 251.605C23.6068 253.385 21.9435 255.631 20.8968 258.345C20.8052 258.579 20.6168 258.809 20.3568 259.005C19.4635 259.658 18.6935 259.565 18.0468 258.725C17.9683 258.627 17.9514 258.481 17.9996 258.316C18.0477 258.151 18.1574 257.979 18.3068 257.835C20.0168 256.165 22.2668 253.455 22.9168 251.145Z" fill="#63C6C8"/>
<path d="M22.1469 264.644C21.9735 261.517 22.9935 260.904 25.2069 262.804C25.3159 262.897 25.3958 263.045 25.4381 263.232C25.4803 263.419 25.4834 263.637 25.4469 263.864C25.2735 264.85 24.6769 265.26 23.6569 265.094C23.4962 265.07 23.3328 265.088 23.1835 265.146C23.0342 265.204 22.9042 265.3 22.8069 265.424C22.0969 266.334 17.3469 274.504 16.4969 269.304C16.4699 269.146 16.4868 268.985 16.5454 268.841C16.604 268.697 16.7018 268.576 16.8269 268.494L21.6669 265.294C21.8155 265.196 21.9397 265.082 22.0247 264.967C22.1098 264.852 22.1522 264.74 22.1469 264.644Z" fill="#63C6C8"/>
</svg>
