<svg width="196" height="145" viewBox="0 0 196 145" fill="none" xmlns="http://www.w3.org/2000/svg">
<path d="M4.25077 71.1622C11.0308 84.1222 23.6408 94.5922 37.1208 99.1922C43.3141 101.306 50.8541 103.215 59.7408 104.922C66.8508 106.282 72.3008 108.222 76.8308 114.662C95.7408 141.552 127.141 147.652 157.871 140.682C177.191 136.292 190.531 116.712 194.061 97.9822C197.591 79.2022 180.051 75.2822 173.451 61.6622C171.611 57.8622 172.571 50.4222 173.051 46.0522C174.091 36.4922 177.351 23.0621 168.091 16.0921C159.571 9.68215 148.871 12.5522 143.621 21.7622C137.981 31.6422 131.961 48.6021 119.391 51.5821C105.981 54.7721 103.111 36.0822 101.251 27.3722C98.6808 15.3922 95.1308 5.59215 82.7708 2.06215C66.7208 -2.52785 60.6207 8.53214 53.7907 20.4021C45.2407 35.2521 33.7908 25.9322 20.3208 29.4822C3.00077 34.0522 -3.52924 56.2722 4.25077 71.1622Z" stroke="#FEBBB1" stroke-width="2"/>
<path d="M81.0077 23.372C81.0077 22.4888 80.6568 21.6418 80.0323 21.0173C79.4079 20.3928 78.5608 20.042 77.6777 20.042C76.7945 20.042 75.9475 20.3928 75.323 21.0173C74.6985 21.6418 74.3477 22.4888 74.3477 23.372C74.3477 23.8093 74.4338 24.2423 74.6011 24.6463C74.7685 25.0503 75.0138 25.4174 75.323 25.7267C75.6322 26.0359 75.9993 26.2812 76.4033 26.4485C76.8073 26.6159 77.2404 26.702 77.6777 26.702C78.115 26.702 78.548 26.6159 78.952 26.4485C79.356 26.2812 79.7231 26.0359 80.0323 25.7267C80.3416 25.4174 80.5869 25.0503 80.7542 24.6463C80.9216 24.2423 81.0077 23.8093 81.0077 23.372Z" stroke="#9B4C4E" stroke-width="2"/>
<path d="M39.0329 37.315C38.8825 35.2173 37.7137 33.2789 35.7836 31.9262C33.8535 30.5736 31.3201 29.9176 28.7409 30.1025C26.1617 30.2874 23.7478 31.298 22.0304 32.9121C20.3129 34.5262 19.4326 36.6115 19.5829 38.7093C19.7333 40.807 20.9021 42.7454 22.8322 44.0981C24.7623 45.4507 27.2957 46.1067 29.8749 45.9219C32.4542 45.737 34.868 44.7263 36.5854 43.1122C38.3029 41.4981 39.1833 39.4128 39.0329 37.315Z" stroke="#FDB7AE" stroke-width="2"/>
<path d="M161.805 33.9599C161.85 33.3409 161.646 32.7296 161.24 32.2605C160.834 31.7914 160.258 31.503 159.639 31.4586L159.399 31.4415C158.78 31.3972 158.169 31.6005 157.7 32.0068C157.231 32.4132 156.942 32.9892 156.898 33.6082L156.213 43.1637C156.169 43.7827 156.372 44.394 156.778 44.8631C157.185 45.3322 157.761 45.6206 158.38 45.665L158.619 45.6821C159.238 45.7265 159.849 45.5231 160.318 45.1168C160.788 44.7104 161.076 44.1344 161.12 43.5154L161.805 33.9599Z" stroke="#984847" stroke-width="2"/>
<path d="M30.8401 55.4121C34.0901 62.5521 43.01 66.4921 50.28 66.7621C65.62 67.3321 72.87 53.6321 73.29 40.3621C73.2967 40.0005 73.2013 39.6718 73.0201 39.4321C72.0001 38.0921 71.2801 39.4921 70.9601 40.4121C68.2601 48.4621 64.8 62.0621 54.3 63.0621C45.72 63.8821 38.4001 60.8921 32.3401 54.0921C30.2701 51.7621 30.3501 54.3421 30.8401 55.4121Z" stroke="#A85355" stroke-width="2"/>
<path d="M141.575 57.5213C142.251 57.5307 142.91 56.8339 143.406 55.5843C143.901 54.3346 144.194 52.6343 144.219 50.8576C144.231 49.9778 144.177 49.1057 144.06 48.2911C143.943 47.4765 143.766 46.7353 143.538 46.1099C143.31 45.4845 143.035 44.9871 142.731 44.6462C142.426 44.3052 142.097 44.1273 141.762 44.1227C141.086 44.1132 140.428 44.81 139.932 46.0597C139.436 47.3094 139.144 49.0096 139.119 50.7863C139.107 51.6661 139.16 52.5382 139.277 53.3528C139.394 54.1674 139.571 54.9086 139.8 55.534C140.028 56.1594 140.302 56.6568 140.607 56.9978C140.911 57.3388 141.24 57.5166 141.575 57.5213Z" stroke="#984847" stroke-width="2"/>
<path d="M129.84 74.1688C130.52 74.2258 131.23 73.5802 131.815 72.3741C132.4 71.1679 132.811 69.5 132.959 67.7372C133.033 66.8644 133.039 65.9945 132.978 65.1773C132.917 64.3601 132.79 63.6115 132.604 62.9744C132.418 62.3372 132.177 61.8239 131.894 61.4638C131.611 61.1037 131.293 60.9038 130.957 60.8756C130.277 60.8185 129.567 61.4641 128.982 62.6702C128.397 63.8764 127.985 65.5443 127.837 67.3071C127.764 68.1799 127.758 69.0498 127.819 69.867C127.88 70.6842 128.007 71.4328 128.193 72.07C128.379 72.7072 128.62 73.2205 128.903 73.5806C129.185 73.9407 129.504 74.1405 129.84 74.1688Z" stroke="#9B4C4E" stroke-width="2"/>
<path d="M164.882 76.0987C165.253 76.1207 165.631 75.9559 165.995 75.6135C166.36 75.2712 166.703 74.7581 167.005 74.1035C167.307 73.4488 167.562 72.6655 167.756 71.7983C167.95 70.9311 168.079 69.997 168.135 69.0492C168.249 67.1351 168.061 65.2816 167.611 63.8967C167.162 62.5117 166.489 61.7086 165.739 61.6641C165.368 61.642 164.99 61.8069 164.626 62.1492C164.261 62.4916 163.918 63.0047 163.616 63.6593C163.314 64.3139 163.059 65.0972 162.865 65.9644C162.671 66.8316 162.542 67.7658 162.485 68.7136C162.372 70.6277 162.56 72.4811 163.01 73.8661C163.459 75.2511 164.132 76.0542 164.882 76.0987Z" stroke="#9B4C4E" stroke-width="2"/>
<path d="M114.308 81.192C114.481 81.2782 114.671 81.3279 114.864 81.3382C115.058 81.3484 115.252 81.3189 115.433 81.2514C115.615 81.184 115.781 81.08 115.921 80.9459C116.061 80.8119 116.172 80.6506 116.248 80.4719C117.708 77.0519 120.828 67.672 114.428 66.882C114.184 66.8509 113.938 66.9115 113.736 67.0519C113.535 67.1923 113.393 67.4026 113.338 67.6419C112.698 70.4119 111.258 79.682 114.308 81.192Z" stroke="#9B4C4E" stroke-width="2"/>
<path d="M151.89 87.0361C152.241 87.0768 152.609 86.9363 152.974 86.6229C153.339 86.3094 153.693 85.8292 154.016 85.2094C154.339 84.5897 154.625 83.8425 154.858 83.0108C155.09 82.1791 155.264 81.279 155.37 80.3619C155.476 79.4449 155.512 78.5288 155.476 77.666C155.44 76.8032 155.332 76.0105 155.159 75.3333C154.986 74.6561 154.751 74.1076 154.467 73.7192C154.183 73.3307 153.857 73.1099 153.506 73.0693C153.155 73.0287 152.787 73.1691 152.422 73.4826C152.057 73.796 151.703 74.2763 151.38 74.8961C151.057 75.5158 150.771 76.2629 150.538 77.0946C150.306 77.9263 150.132 78.8265 150.026 79.7435C149.92 80.6606 149.884 81.5767 149.92 82.4395C149.956 83.3023 150.064 84.095 150.237 84.7722C150.41 85.4493 150.645 85.9978 150.929 86.3862C151.212 86.7747 151.539 86.9956 151.89 87.0361Z" stroke="#9B4C4E" stroke-width="2"/>
<path d="M102.586 93.0078C102.954 93.0188 103.324 92.8256 103.675 92.4393C104.026 92.0531 104.352 91.4813 104.634 90.7567C104.915 90.0321 105.147 89.1689 105.316 88.2162C105.486 87.2635 105.588 86.2401 105.619 85.2044C105.65 84.1687 105.608 83.1411 105.496 82.1801C105.383 81.2191 105.203 80.3435 104.965 79.6035C104.727 78.8634 104.435 78.2734 104.108 77.867C103.78 77.4605 103.422 77.2457 103.054 77.2348C102.687 77.2239 102.317 77.4171 101.966 77.8033C101.614 78.1895 101.288 78.7613 101.007 79.4859C100.725 80.2105 100.493 81.0738 100.324 82.0265C100.155 82.9792 100.052 84.0025 100.021 85.0382C99.9908 86.0739 100.033 87.1016 100.145 88.0626C100.257 89.0236 100.438 89.8991 100.676 90.6392C100.914 91.3792 101.205 91.9693 101.533 92.3757C101.861 92.7822 102.219 92.9969 102.586 93.0078Z" stroke="#9C514E" stroke-width="2"/>
<path d="M179.031 97.5933C179.385 97.6388 179.76 97.4965 180.134 97.1745C180.508 96.8526 180.874 96.3573 181.21 95.7171C181.547 95.0768 181.848 94.304 182.096 93.4428C182.344 92.5817 182.535 91.649 182.656 90.6981C182.902 88.7777 182.854 86.8996 182.522 85.4769C182.19 84.0542 181.602 83.2034 180.886 83.1118C180.532 83.0664 180.157 83.2087 179.783 83.5306C179.409 83.8525 179.043 84.3478 178.707 84.9881C178.37 85.6283 178.069 86.4011 177.821 87.2623C177.573 88.1234 177.382 89.0561 177.26 90.007C177.014 91.9274 177.063 93.8055 177.395 95.2282C177.727 96.651 178.315 97.5017 179.031 97.5933Z" stroke="#A85355" stroke-width="2"/>
<path d="M139.052 99.9737C139.364 99.9977 139.685 99.8608 139.997 99.5708C140.308 99.2808 140.605 98.8434 140.87 98.2836C141.135 97.7237 141.362 97.0524 141.539 96.3079C141.717 95.5635 141.84 94.7604 141.903 93.9447C142.03 92.2973 141.901 90.6981 141.546 89.499C141.191 88.2998 140.637 87.599 140.008 87.5505C139.696 87.5265 139.375 87.6634 139.064 87.9534C138.752 88.2434 138.455 88.6808 138.19 89.2407C137.925 89.8005 137.698 90.4719 137.521 91.2163C137.343 91.9608 137.22 92.7638 137.157 93.5795C137.03 95.2269 137.159 96.8261 137.514 98.0253C137.869 99.2244 138.423 99.9253 139.052 99.9737Z" stroke="#9B4C4E" stroke-width="2"/>
<path d="M91.4841 108.025C92.241 108.074 93.02 107.3 93.6497 105.873C94.2794 104.446 94.7083 102.483 94.842 100.416C94.9757 98.349 94.8032 96.3472 94.3625 94.851C93.9218 93.3548 93.249 92.4867 92.492 92.4377C91.7351 92.3888 90.9561 93.163 90.3263 94.59C89.6966 96.0169 89.2677 97.9798 89.134 100.047C89.0003 102.114 89.1729 104.116 89.6136 105.612C90.0543 107.108 90.7271 107.976 91.4841 108.025Z" stroke="#9B4C4E" stroke-width="2"/>
<path d="M162.208 111.627C162.545 111.666 162.898 111.53 163.248 111.228C163.598 110.925 163.938 110.462 164.249 109.864C164.559 109.266 164.834 108.546 165.057 107.743C165.28 106.941 165.448 106.073 165.55 105.189C165.757 103.402 165.685 101.658 165.351 100.339C165.016 99.0206 164.446 98.2356 163.767 98.1569C163.43 98.118 163.077 98.2537 162.727 98.5561C162.376 98.8586 162.037 99.322 161.726 99.9199C161.416 100.518 161.141 101.238 160.918 102.041C160.694 102.843 160.527 103.711 160.424 104.596C160.218 106.382 160.29 108.126 160.624 109.445C160.959 110.763 161.528 111.548 162.208 111.627Z" stroke="#9B4C4E" stroke-width="2"/>
<path d="M129.742 103.27C129.757 103.008 129.72 102.746 129.634 102.497C129.548 102.249 129.413 102.021 129.239 101.825C129.064 101.629 128.852 101.469 128.616 101.355C128.379 101.24 128.123 101.174 127.86 101.158L127.641 101.146C127.379 101.131 127.116 101.167 126.868 101.254C126.62 101.34 126.391 101.475 126.195 101.649C125.999 101.824 125.839 102.036 125.725 102.272C125.611 102.509 125.544 102.765 125.529 103.027L125.078 110.854C125.062 111.117 125.099 111.379 125.185 111.627C125.272 111.875 125.406 112.104 125.581 112.3C125.756 112.496 125.967 112.656 126.204 112.77C126.44 112.885 126.697 112.951 126.959 112.966L127.179 112.979C127.441 112.994 127.704 112.957 127.952 112.871C128.2 112.785 128.428 112.65 128.624 112.476C128.82 112.301 128.98 112.089 129.095 111.853C129.209 111.616 129.275 111.36 129.291 111.097L129.742 103.27Z" stroke="#984847" stroke-width="2"/>
<path d="M105.175 128.769C105.892 128.81 106.63 127.983 107.227 126.469C107.823 124.956 108.229 122.88 108.355 120.698C108.417 119.618 108.409 118.544 108.33 117.538C108.252 116.532 108.105 115.614 107.898 114.836C107.69 114.057 107.427 113.434 107.123 113.002C106.818 112.57 106.479 112.336 106.123 112.316C105.406 112.275 104.668 113.102 104.071 114.615C103.475 116.129 103.069 118.205 102.944 120.386C102.881 121.467 102.89 122.54 102.968 123.546C103.046 124.552 103.193 125.47 103.401 126.249C103.608 127.027 103.871 127.65 104.176 128.083C104.48 128.515 104.82 128.748 105.175 128.769Z" stroke="#9B4C4E" stroke-width="2"/>
<path d="M143.177 130.202C143.538 130.257 143.923 130.132 144.31 129.834C144.696 129.537 145.077 129.072 145.431 128.467C145.785 127.861 146.105 127.127 146.371 126.306C146.638 125.486 146.847 124.594 146.987 123.683C147.269 121.843 147.249 120.033 146.933 118.653C146.617 117.273 146.03 116.435 145.301 116.323C144.94 116.268 144.555 116.393 144.168 116.691C143.782 116.988 143.401 117.453 143.047 118.058C142.693 118.664 142.373 119.398 142.106 120.218C141.84 121.039 141.63 121.931 141.491 122.842C141.209 124.682 141.229 126.492 141.545 127.872C141.861 129.252 142.448 130.09 143.177 130.202Z" stroke="#9C514E" stroke-width="2"/>
<path d="M33.338 37.502C33.338 36.4518 32.9207 35.4445 32.1781 34.7018C31.4355 33.9592 30.4282 33.542 29.378 33.542C28.3277 33.542 27.3205 33.9592 26.5778 34.7018C25.8352 35.4445 25.418 36.4518 25.418 37.502C25.418 38.5523 25.8352 39.5595 26.5778 40.3021C27.3205 41.0448 28.3277 41.462 29.378 41.462C30.4282 41.462 31.4355 41.0448 32.1781 40.3021C32.9207 39.5595 33.338 38.5523 33.338 37.502Z" stroke="#8B8B8E" stroke-width="2"/>
<path d="M37.1169 99.1922C23.6369 94.5922 11.0269 84.1222 4.24686 71.1622C-3.53314 56.2722 2.99687 34.0522 20.3169 29.4822C33.7869 25.9322 45.2368 35.2521 53.7868 20.4021C60.6168 8.53214 66.7169 -2.52785 82.7669 2.06215C95.1269 5.59215 98.6769 15.3922 101.247 27.3722C103.107 36.0822 105.977 54.7721 119.387 51.5821C131.957 48.6021 137.977 31.6422 143.617 21.7622C148.867 12.5522 159.567 9.68215 168.087 16.0921C177.347 23.0621 174.087 36.4922 173.047 46.0522C172.567 50.4222 171.607 57.8622 173.447 61.6622C180.047 75.2822 197.587 79.2022 194.057 97.9822C190.527 116.712 177.187 136.292 157.867 140.682C127.137 147.652 95.7369 141.552 76.8269 114.662C72.2969 108.222 66.8468 106.282 59.7369 104.922C50.8502 103.215 43.3102 101.306 37.1169 99.1922ZM81.0069 23.3721C81.0069 22.489 80.656 21.642 80.0315 21.0175C79.407 20.393 78.56 20.0422 77.6768 20.0422C76.7937 20.0422 75.9467 20.393 75.3222 21.0175C74.6977 21.642 74.3468 22.489 74.3468 23.3721C74.3468 23.8094 74.433 24.2425 74.6003 24.6465C74.7677 25.0505 75.013 25.4176 75.3222 25.7268C75.6314 26.036 75.9985 26.2813 76.4025 26.4487C76.8065 26.616 77.2395 26.7021 77.6768 26.7021C78.1142 26.7021 78.5472 26.616 78.9512 26.4487C79.3552 26.2813 79.7223 26.036 80.0315 25.7268C80.3407 25.4176 80.586 25.0505 80.7534 24.6465C80.9207 24.2425 81.0069 23.8094 81.0069 23.3721ZM39.0318 37.315C38.8815 35.2173 37.7127 33.2789 35.7826 31.9263C33.8524 30.5736 31.3191 29.9176 28.7398 30.1025C26.1606 30.2874 23.7468 31.298 22.0293 32.9121C20.3119 34.5262 19.4315 36.6115 19.5819 38.7093C19.7323 40.807 20.901 42.7454 22.8311 44.0981C24.7613 45.4507 27.2946 46.1067 29.8739 45.9219C32.4531 45.737 34.8669 44.7263 36.5844 43.1122C38.3018 41.4981 39.1822 39.4128 39.0318 37.315ZM161.803 33.9602C161.847 33.3412 161.644 32.7299 161.238 32.2608C160.831 31.7918 160.255 31.5033 159.636 31.459L159.397 31.4419C158.778 31.3975 158.167 31.6009 157.698 32.0072C157.229 32.4135 156.94 32.9895 156.896 33.6086L156.211 43.164C156.166 43.7831 156.37 44.3944 156.776 44.8634C157.182 45.3325 157.758 45.621 158.377 45.6653L158.617 45.6825C159.236 45.7268 159.847 45.5234 160.316 45.1171C160.785 44.7108 161.074 44.1347 161.118 43.5157L161.803 33.9602ZM30.8369 55.4122C34.0869 62.5522 43.0068 66.4921 50.2768 66.7621C65.6168 67.3321 72.8668 53.6322 73.2868 40.3622C73.2935 40.0005 73.1981 39.6718 73.0169 39.4322C71.9969 38.0922 71.2769 39.4922 70.9569 40.4122C68.2569 48.4622 64.7968 62.0622 54.2968 63.0622C45.7169 63.8822 38.3969 60.8921 32.3369 54.0921C30.2669 51.7621 30.3469 54.3422 30.8369 55.4122ZM141.573 57.5215C142.25 57.5309 142.908 56.8341 143.404 55.5845C143.899 54.3348 144.192 52.6345 144.217 50.8578C144.229 49.978 144.175 49.1059 144.058 48.2913C143.942 47.4767 143.764 46.7355 143.536 46.1101C143.308 45.4847 143.034 44.9873 142.729 44.6463C142.424 44.3054 142.095 44.1275 141.76 44.1228C141.084 44.1134 140.426 44.8102 139.93 46.0599C139.434 47.3095 139.142 49.0098 139.117 50.7865C139.105 51.6663 139.159 52.5384 139.275 53.353C139.392 54.1676 139.57 54.9088 139.798 55.5342C140.026 56.1596 140.3 56.657 140.605 56.998C140.909 57.3389 141.238 57.5168 141.573 57.5215ZM129.839 74.1687C130.518 74.2258 131.228 73.5802 131.813 72.3741C132.398 71.1679 132.81 69.5 132.958 67.7372C133.031 66.8644 133.037 65.9945 132.976 65.1773C132.915 64.3601 132.788 63.6115 132.602 62.9743C132.416 62.3372 132.175 61.8239 131.893 61.4638C131.61 61.1037 131.291 60.9038 130.955 60.8755C130.276 60.8185 129.566 61.4641 128.981 62.6702C128.396 63.8763 127.984 65.5443 127.836 67.3071C127.763 68.1799 127.756 69.0498 127.817 69.867C127.878 70.6842 128.005 71.4328 128.191 72.07C128.377 72.7072 128.618 73.2204 128.901 73.5806C129.184 73.9407 129.502 74.1405 129.839 74.1687ZM164.878 76.0995C165.249 76.1215 165.627 75.9566 165.992 75.6143C166.356 75.272 166.699 74.7588 167.001 74.1042C167.303 73.4496 167.559 72.6663 167.753 71.7991C167.947 70.9319 168.076 69.9978 168.132 69.05C168.246 67.1358 168.057 65.2824 167.608 63.8974C167.158 62.5125 166.485 61.7094 165.736 61.6648C165.365 61.6428 164.986 61.8077 164.622 62.15C164.258 62.4923 163.915 63.0055 163.613 63.6601C163.31 64.3147 163.055 65.098 162.861 65.9652C162.667 66.8324 162.538 67.7665 162.482 68.7143C162.368 70.6285 162.557 72.4819 163.006 73.8669C163.455 75.2518 164.129 76.0549 164.878 76.0995ZM114.307 81.1922C114.48 81.2784 114.67 81.3281 114.864 81.3384C115.057 81.3486 115.251 81.3191 115.433 81.2516C115.614 81.1842 115.78 81.0802 115.92 80.9462C116.06 80.8121 116.172 80.6508 116.247 80.4722C117.707 77.0522 120.827 67.6722 114.427 66.8822C114.183 66.8511 113.937 66.9117 113.735 67.0521C113.534 67.1926 113.392 67.4028 113.337 67.6421C112.697 70.4121 111.257 79.6822 114.307 81.1922ZM151.889 87.0356C152.24 87.0762 152.608 86.9357 152.973 86.6223C153.338 86.3089 153.692 85.8286 154.015 85.2088C154.338 84.5891 154.624 83.842 154.856 83.0102C155.089 82.1785 155.263 81.2785 155.369 80.3614C155.475 79.4443 155.511 78.5282 155.475 77.6654C155.439 76.8026 155.331 76.0099 155.158 75.3327C154.985 74.6556 154.75 74.1071 154.466 73.7186C154.182 73.3302 153.856 73.1094 153.505 73.0688C153.154 73.0282 152.786 73.1685 152.421 73.482C152.056 73.7954 151.702 74.2757 151.379 74.8955C151.055 75.5153 150.77 76.2623 150.537 77.094C150.305 77.9258 150.131 78.8259 150.025 79.743C149.919 80.66 149.883 81.5761 149.919 82.4389C149.955 83.3018 150.063 84.0944 150.236 84.7716C150.409 85.4488 150.644 85.9972 150.928 86.3857C151.211 86.7741 151.538 86.995 151.889 87.0356ZM102.583 93.0087C102.95 93.0196 103.32 92.8264 103.672 92.4402C104.023 92.0539 104.349 91.4822 104.63 90.7576C104.912 90.0329 105.144 89.1697 105.313 88.217C105.482 87.2644 105.585 86.2409 105.616 85.2052C105.646 84.1696 105.604 83.1419 105.492 82.1809C105.38 81.2199 105.2 80.3443 104.961 79.6043C104.723 78.8643 104.432 78.2742 104.104 77.8678C103.776 77.4614 103.418 77.2466 103.051 77.2356C102.683 77.2247 102.313 77.4179 101.962 77.8041C101.611 78.1904 101.285 78.7621 101.003 79.4867C100.722 80.2114 100.49 81.0747 100.321 82.0273C100.152 82.98 100.049 84.0034 100.018 85.039C99.9873 86.0747 100.029 87.1024 100.142 88.0634C100.254 89.0244 100.434 89.9 100.672 90.64C100.91 91.38 101.202 91.9702 101.53 92.3766C101.857 92.783 102.215 92.9977 102.583 93.0087ZM179.029 97.5929C179.384 97.6384 179.758 97.4961 180.132 97.1741C180.506 96.8522 180.872 96.3569 181.209 95.7167C181.545 95.0764 181.846 94.3036 182.094 93.4424C182.343 92.5813 182.533 91.6486 182.655 90.6977C182.901 88.7774 182.852 86.8992 182.52 85.4765C182.188 84.0538 181.6 83.203 180.884 83.1114C180.53 83.066 180.155 83.2083 179.781 83.5302C179.407 83.8521 179.042 84.3474 178.705 84.9877C178.368 85.6279 178.067 86.4007 177.819 87.2619C177.571 88.123 177.381 89.0557 177.259 90.0066C177.013 91.927 177.061 93.8051 177.393 95.2278C177.725 96.6506 178.314 97.5013 179.029 97.5929ZM139.049 99.9737C139.36 99.9977 139.681 99.8608 139.993 99.5708C140.305 99.2808 140.602 98.8435 140.867 98.2836C141.132 97.7238 141.359 97.0524 141.536 96.308C141.714 95.5635 141.837 94.7605 141.9 93.9447C142.027 92.2973 141.898 90.6982 141.543 89.499C141.187 88.2999 140.634 87.599 140.005 87.5506C139.693 87.5266 139.372 87.6635 139.06 87.9535C138.748 88.2435 138.452 88.6809 138.187 89.2407C137.922 89.8006 137.695 90.4719 137.517 91.2164C137.34 91.9608 137.217 92.7638 137.154 93.5796C137.027 95.227 137.156 96.8262 137.511 98.0253C137.866 99.2245 138.419 99.9253 139.049 99.9737ZM91.4829 108.026C92.2398 108.075 93.0188 107.301 93.6485 105.874C94.2783 104.447 94.7072 102.484 94.8409 100.417C94.9745 98.3497 94.802 96.3479 94.3613 94.8517C93.9206 93.3555 93.2478 92.4874 92.4909 92.4385C91.7339 92.3895 90.9549 93.1637 90.3252 94.5907C89.6954 96.0177 89.2665 97.9805 89.1328 100.048C88.9992 102.115 89.1717 104.116 89.6124 105.613C90.0531 107.109 90.726 107.977 91.4829 108.026ZM162.208 111.627C162.544 111.666 162.898 111.531 163.248 111.228C163.598 110.926 163.938 110.462 164.248 109.864C164.558 109.266 164.833 108.546 165.056 107.744C165.28 106.941 165.447 106.073 165.55 105.189C165.756 103.402 165.685 101.658 165.35 100.339C165.016 99.0207 164.446 98.2357 163.766 98.157C163.43 98.1181 163.076 98.2538 162.726 98.5563C162.376 98.8587 162.036 99.3222 161.726 99.92C161.415 100.518 161.141 101.239 160.917 102.041C160.694 102.843 160.526 103.711 160.424 104.596C160.217 106.382 160.289 108.126 160.624 109.445C160.958 110.764 161.528 111.549 162.208 111.627ZM129.739 103.27C129.754 103.008 129.717 102.745 129.631 102.497C129.545 102.249 129.41 102.021 129.236 101.825C129.061 101.628 128.849 101.469 128.613 101.354C128.376 101.24 128.12 101.173 127.857 101.158L127.638 101.146C127.376 101.131 127.113 101.167 126.865 101.254C126.617 101.34 126.388 101.474 126.192 101.649C125.996 101.824 125.836 102.035 125.722 102.272C125.608 102.508 125.541 102.765 125.526 103.027L125.075 110.854C125.06 111.116 125.096 111.379 125.183 111.627C125.269 111.875 125.403 112.104 125.578 112.3C125.753 112.496 125.964 112.656 126.201 112.77C126.437 112.884 126.694 112.951 126.956 112.966L127.176 112.979C127.438 112.994 127.701 112.957 127.949 112.871C128.197 112.784 128.425 112.65 128.621 112.475C128.818 112.301 128.977 112.089 129.092 111.853C129.206 111.616 129.273 111.359 129.288 111.097L129.739 103.27ZM105.173 128.768C105.89 128.81 106.628 127.983 107.225 126.469C107.821 124.956 108.227 122.88 108.352 120.698C108.415 119.618 108.406 118.544 108.328 117.538C108.249 116.532 108.102 115.614 107.895 114.836C107.688 114.057 107.425 113.434 107.12 113.002C106.816 112.569 106.476 112.336 106.121 112.316C105.404 112.274 104.666 113.102 104.069 114.615C103.473 116.129 103.067 118.204 102.941 120.386C102.879 121.466 102.887 122.54 102.966 123.546C103.044 124.552 103.191 125.47 103.398 126.249C103.606 127.027 103.869 127.65 104.173 128.083C104.478 128.515 104.817 128.748 105.173 128.768ZM143.175 130.201C143.536 130.257 143.921 130.132 144.307 129.834C144.694 129.536 145.075 129.072 145.429 128.466C145.783 127.861 146.102 127.127 146.369 126.306C146.636 125.485 146.845 124.594 146.985 123.683C147.266 121.842 147.247 120.033 146.931 118.653C146.615 117.273 146.028 116.435 145.299 116.323C144.938 116.268 144.553 116.393 144.166 116.69C143.78 116.988 143.398 117.453 143.045 118.058C142.691 118.663 142.371 119.397 142.104 120.218C141.837 121.039 141.628 121.93 141.489 122.842C141.207 124.682 141.227 126.491 141.543 127.872C141.859 129.252 142.446 130.09 143.175 130.201Z" fill="#FE7769"/>
<path d="M77.6777 26.702C79.5168 26.702 81.0077 25.2111 81.0077 23.372C81.0077 21.5329 79.5168 20.042 77.6777 20.042C75.8386 20.042 74.3477 21.5329 74.3477 23.372C74.3477 25.2111 75.8386 26.702 77.6777 26.702Z" fill="#372133"/>
<path d="M39.0329 37.315C39.1833 39.4128 38.3029 41.4981 36.5854 43.1122C34.868 44.7263 32.4542 45.737 29.8749 45.9219C27.2957 46.1067 24.7623 45.4507 22.8322 44.0981C20.9021 42.7454 19.7333 40.807 19.5829 38.7093C19.4326 36.6115 20.3129 34.5262 22.0304 32.9121C23.7478 31.298 26.1617 30.2874 28.7409 30.1025C31.3201 29.9176 33.8535 30.5736 35.7836 31.9262C37.7137 33.2789 38.8825 35.2173 39.0329 37.315ZM33.3379 37.5022C33.3379 36.4519 32.9207 35.4446 32.178 34.702C31.4354 33.9594 30.4282 33.5422 29.3779 33.5422C28.3277 33.5422 27.3204 33.9594 26.5777 34.702C25.8351 35.4446 25.4179 36.4519 25.4179 37.5022C25.4179 38.5524 25.8351 39.5596 26.5777 40.3023C27.3204 41.0449 28.3277 41.4621 29.3779 41.4621C30.4282 41.4621 31.4354 41.0449 32.178 40.3023C32.9207 39.5596 33.3379 38.5524 33.3379 37.5022Z" fill="#FBF7F3"/>
<path d="M159.64 31.4589L159.4 31.4417C158.111 31.3493 156.992 32.3194 156.899 33.6084L156.214 43.1639C156.122 44.4529 157.092 45.5728 158.381 45.6652L158.62 45.6824C159.909 45.7748 161.029 44.8047 161.122 43.5157L161.807 33.9602C161.899 32.6712 160.929 31.5513 159.64 31.4589Z" fill="#321925"/>
<path d="M29.378 41.462C31.565 41.462 33.338 39.6891 33.338 37.502C33.338 35.315 31.565 33.542 29.378 33.542C27.1909 33.542 25.418 35.315 25.418 37.502C25.418 39.6891 27.1909 41.462 29.378 41.462Z" fill="#1A1F29"/>
<path d="M50.28 66.7621C43.01 66.4921 34.0901 62.5521 30.8401 55.4121C30.3501 54.3421 30.2701 51.7621 32.3401 54.0921C38.4001 60.8921 45.72 63.8821 54.3 63.0621C64.8 62.0621 68.2601 48.4621 70.9601 40.4121C71.2801 39.4921 72.0001 38.0921 73.0201 39.4321C73.2013 39.6718 73.2967 40.0005 73.29 40.3621C72.87 53.6321 65.62 67.3321 50.28 66.7621Z" fill="#522E40"/>
<path d="M139.119 50.7863C139.068 54.4863 140.167 57.5016 141.576 57.5213C142.984 57.541 144.167 54.5575 144.219 50.8575C144.271 47.1576 143.171 44.1423 141.763 44.1226C140.355 44.1029 139.171 47.0864 139.119 50.7863Z" fill="#321925"/>
<path d="M127.839 67.3063C127.531 70.9772 128.428 74.0492 129.842 74.168C131.257 74.2868 132.653 71.4073 132.961 67.7365C133.27 64.0656 132.373 60.9936 130.959 60.8748C129.544 60.756 128.148 63.6355 127.839 67.3063Z" fill="#372133"/>
<path d="M162.484 68.7136C162.247 72.6996 163.32 76.006 164.88 76.0987C166.44 76.1914 167.897 73.0353 168.134 69.0493C168.371 65.0633 167.298 61.7569 165.737 61.6642C164.177 61.5715 162.72 64.7276 162.484 68.7136Z" fill="#372133"/>
<path d="M114.308 81.192C111.258 79.682 112.698 70.4119 113.338 67.6419C113.393 67.4026 113.535 67.1923 113.736 67.0519C113.938 66.9115 114.184 66.8509 114.428 66.882C120.828 67.672 117.708 77.0519 116.248 80.4719C116.172 80.6506 116.061 80.8119 115.921 80.9459C115.781 81.08 115.615 81.184 115.433 81.2514C115.252 81.3189 115.058 81.3484 114.864 81.3382C114.671 81.3279 114.481 81.2782 114.308 81.192Z" fill="#372133"/>
<path d="M150.027 79.743C149.581 83.5998 150.416 86.8648 151.891 87.0356C153.367 87.2063 154.925 84.2182 155.372 80.3613C155.818 76.5045 154.983 73.2395 153.508 73.0687C152.032 72.898 150.474 75.8861 150.027 79.743Z" fill="#372133"/>
<path d="M100.02 85.0388C99.8907 89.3944 101.039 92.9625 102.585 93.0083C104.13 93.0542 105.488 89.5605 105.617 85.2049C105.747 80.8493 104.599 77.2812 103.053 77.2353C101.507 77.1894 100.149 80.6831 100.02 85.0388Z" fill="#392B32"/>
<path d="M177.262 90.0066C176.75 94.0056 177.543 97.4022 179.033 97.5931C180.523 97.784 182.146 94.6969 182.658 90.6979C183.171 86.6989 182.378 83.3023 180.888 83.1114C179.398 82.9205 177.775 86.0076 177.262 90.0066Z" fill="#522E40"/>
<path d="M137.155 93.5789C136.891 97.0095 137.739 99.8723 139.05 99.9731C140.361 100.074 141.637 97.3747 141.901 93.9441C142.165 90.5135 141.316 87.6507 140.006 87.5498C138.695 87.449 137.419 90.1483 137.155 93.5789Z" fill="#372133"/>
<path d="M89.1356 100.048C88.8572 104.352 89.9094 107.924 91.4856 108.026C93.0619 108.128 94.5653 104.721 94.8437 100.417C95.122 96.1124 94.0699 92.5404 92.4936 92.4385C90.9174 92.3366 89.4139 95.7433 89.1356 100.048Z" fill="#372133"/>
<path d="M160.427 104.595C159.997 108.315 160.795 111.463 162.211 111.627C163.626 111.79 165.122 108.908 165.553 105.188C165.983 101.469 165.185 98.3204 163.769 98.1566C162.354 97.9928 160.857 100.875 160.427 104.595Z" fill="#372133"/>
<path d="M127.861 101.158L127.641 101.145C126.538 101.082 125.593 101.924 125.529 103.027L125.078 110.854C125.015 111.957 125.857 112.902 126.96 112.966L127.179 112.978C128.282 113.042 129.228 112.2 129.291 111.097L129.742 103.27C129.806 102.167 128.964 101.222 127.861 101.158Z" fill="#321925"/>
<path d="M102.943 120.386C102.681 124.929 103.68 128.682 105.174 128.768C106.668 128.855 108.092 125.241 108.354 120.698C108.616 116.155 107.617 112.402 106.123 112.316C104.628 112.23 103.205 115.843 102.943 120.386Z" fill="#372133"/>
<path d="M141.489 122.841C140.903 126.674 141.657 129.969 143.175 130.201C144.693 130.433 146.399 127.515 146.985 123.682C147.571 119.85 146.817 116.555 145.299 116.323C143.781 116.09 142.075 119.009 141.489 122.841Z" fill="#392B32"/>
</svg>
