<svg width="90" height="110" viewBox="0 0 90 110" fill="none" xmlns="http://www.w3.org/2000/svg">
<path d="M60.7428 28.5788C62.3128 18.5488 61.8828 7.32879 51.6828 2.44879C42.1528 -2.11121 32.0028 4.7188 29.8228 14.2088C28.1628 21.3988 31.2128 28.8588 33.3528 35.5488C37.6328 48.8488 27.2828 61.8688 16.7828 68.5688C6.46278 75.1588 -1.09723 81.8688 1.52277 95.4288C3.92277 107.819 16.8628 112.379 27.1828 106.139C36.3228 100.619 36.8428 88.0088 39.6028 79.9088C42.0828 72.6488 46.6328 67.4555 53.2528 64.3288C60.2528 61.0288 69.8128 64.0988 76.8428 61.7688C90.4128 57.2588 93.2228 38.3888 81.2428 30.4488C75.2561 26.4755 68.5528 25.9555 61.1328 28.8888C60.8261 29.0088 60.6961 28.9055 60.7428 28.5788Z" stroke="#FFDD9D" stroke-width="2"/>
<path d="M61.1328 28.8893C68.5528 25.956 75.2561 26.476 81.2428 30.4493C93.2228 38.3893 90.4128 57.2593 76.8428 61.7693C69.8128 64.0993 60.2528 61.0293 53.2528 64.3293C46.6328 67.456 42.0828 72.6493 39.6028 79.9093C36.8428 88.0093 36.3228 100.619 27.1828 106.139C16.8628 112.379 3.92277 107.819 1.52277 95.4293C-1.09723 81.8693 6.46278 75.1593 16.7828 68.5693C27.2828 61.8693 37.6328 48.8493 33.3528 35.5493C31.2128 28.8593 28.1628 21.3993 29.8228 14.2093C32.0028 4.71929 42.1528 -2.11072 51.6828 2.44928C61.8828 7.32928 62.3128 18.5493 60.7428 28.5793C60.6961 28.906 60.8261 29.0093 61.1328 28.8893Z" fill="#FFBC3D"/>
</svg>
