<svg width="53" height="268" viewBox="0 0 53 268" fill="none" xmlns="http://www.w3.org/2000/svg">
<path d="M13.6985 6.24143C8.33852 -3.66857 3.62852 2.23143 2.44852 9.49144C1.19518 17.2714 0.755192 25.1014 1.12853 32.9814C2.23853 56.2414 4.23852 79.8514 8.61852 102.731C13.6185 128.821 19.1985 150.751 27.0485 178.171C31.6485 194.241 37.5385 209.301 41.1585 225.931C44.0119 239.045 46.9652 252.145 50.0185 265.231C50.0566 265.399 50.1213 265.554 50.2088 265.688C50.2963 265.822 50.405 265.932 50.5285 266.011C51.4952 266.618 51.8719 265.995 51.6585 264.141C50.5919 254.695 49.8919 245.225 49.5585 235.731C48.9985 219.611 50.1485 199.851 50.1785 185.341C50.2452 156.195 47.2618 127.371 41.2285 98.8714C35.1985 70.3714 29.1685 34.8014 13.6985 6.24143Z" stroke="#FEA9A0" stroke-width="2"/>
<path d="M2.45242 9.49144C3.63242 2.23143 8.34242 -3.66857 13.7024 6.24143C29.1724 34.8014 35.2024 70.3714 41.2324 98.8714C47.2658 127.371 50.2491 156.195 50.1824 185.341C50.1524 199.851 49.0024 219.611 49.5624 235.731C49.8958 245.225 50.5958 254.695 51.6624 264.141C51.8758 265.995 51.4991 266.618 50.5324 266.011C50.4089 265.932 50.3003 265.822 50.2127 265.688C50.1252 265.554 50.0605 265.399 50.0224 265.231C46.9691 252.145 44.0158 239.045 41.1624 225.931C37.5424 209.301 31.6524 194.241 27.0524 178.171C19.2024 150.751 13.6224 128.821 8.62242 102.731C4.24242 79.8514 2.24243 56.2414 1.13243 32.9814C0.759099 25.1014 1.19909 17.2714 2.45242 9.49144Z" fill="#FD5441"/>
</svg>
