<svg width="190" height="209" viewBox="0 0 190 209" fill="none" xmlns="http://www.w3.org/2000/svg">
<path d="M12.6919 39.2285C10.3519 48.6485 8.23854 58.1152 6.35188 67.6285C1.93188 89.9085 -4.04811 113.859 8.61189 134.969C15.9519 147.219 23.9519 157.209 38.5819 159.909C40.6486 160.289 42.3786 160.002 43.7719 159.049C45.1119 158.135 45.5152 156.912 44.9819 155.379C44.3419 153.539 43.5919 151.799 42.4619 150.109C37.5685 142.835 33.8786 136.539 31.3919 131.219C21.1619 109.329 27.5419 74.3985 42.0619 55.3185" stroke="#FFDA9B" stroke-width="2"/>
<path d="M42.0598 55.3183C54.7098 45.5183 71.0997 40.2283 86.9297 38.5983C102.19 37.0283 118.06 33.7683 133.33 35.0583C134.75 35.1783 135.926 35.775 136.86 36.8483C138.866 39.1416 141.04 41.1583 143.38 42.8983C154.22 50.9883 173.55 46.7383 177.25 32.9083C178.35 28.8016 177.74 24.8083 175.42 20.9283C168.33 9.06829 150.82 6.12829 138.98 12.1983C134.41 14.5483 131.71 15.1483 126.43 13.7383C116.65 11.1183 107.66 8.18828 96.9198 7.11828C88.1998 6.23828 80.4398 4.48829 72.1298 2.94829C62.3298 1.12829 53.7397 0.658285 44.2598 1.22828C32.8598 1.91828 14.6097 7.28829 11.4897 19.9283C10.0497 25.7683 10.4498 32.2016 12.6898 39.2283" stroke="#8C8A91" stroke-width="2"/>
<path d="M42.0614 55.3185C29.4614 55.1985 19.6714 49.8352 12.6914 39.2285" stroke="#8D6530" stroke-width="2"/>
<path d="M121.115 96.5065C122.802 95.7798 124.325 94.7158 125.596 93.3751C126.866 92.0345 127.86 90.4435 128.521 88.693C129.181 86.9425 129.496 85.0668 129.446 83.1729C129.395 81.2791 128.982 79.4042 128.229 77.6553C127.476 75.9064 126.397 74.3178 125.056 72.9802C123.714 71.6425 122.136 70.582 120.41 69.8592C118.684 69.1364 116.845 68.7655 114.998 68.7676C113.151 68.7697 111.332 69.1448 109.644 69.8715C107.957 70.5982 106.434 71.6622 105.164 73.0029C103.893 74.3435 102.899 75.9345 102.238 77.685C101.578 79.4355 101.264 81.3112 101.314 83.2051C101.364 85.0989 101.777 86.9738 102.531 88.7227C103.284 90.4716 104.362 92.0602 105.703 93.3979C107.045 94.7355 108.624 95.796 110.35 96.5188C112.075 97.2416 113.914 97.6126 115.761 97.6104C117.608 97.6083 119.428 97.2332 121.115 96.5065Z" stroke="#FFDA9B" stroke-width="2"/>
<path d="M58.1114 110.468C57.3914 110.048 50.7914 105.048 50.1314 107.318C50.023 107.696 50.0475 108.13 50.2025 108.574C50.3575 109.017 50.637 109.454 51.0114 109.838L55.8514 114.738C55.9032 114.792 55.9429 114.856 55.9678 114.925C55.9927 114.995 56.0021 115.07 55.9955 115.143C55.9888 115.216 55.9662 115.287 55.9292 115.35C55.8922 115.413 55.8418 115.467 55.7814 115.508L49.8514 119.578C49.6893 119.688 49.5547 119.834 49.458 120.004C49.3614 120.175 49.3055 120.364 49.2949 120.559C49.2842 120.753 49.319 120.946 49.3965 121.123C49.474 121.3 49.5921 121.456 49.7414 121.578C51.4314 122.958 57.7814 120.268 59.8614 119.598C60.0522 119.54 60.2445 119.523 60.4185 119.548C60.5925 119.572 60.7419 119.638 60.8514 119.738L67.4614 125.878C67.664 126.066 67.8614 126.227 68.0274 126.339C68.1935 126.452 68.3204 126.51 68.3914 126.508C69.4848 126.515 70.2914 126.015 70.8114 125.008C70.9025 124.829 70.9542 124.642 70.9612 124.465C70.9682 124.287 70.9303 124.126 70.8514 123.998L67.7214 119.068C67.6351 118.934 67.5828 118.781 67.5689 118.622C67.555 118.463 67.5799 118.302 67.6415 118.154C67.7031 118.005 67.7997 117.872 67.9232 117.767C68.0467 117.662 68.1935 117.587 68.3514 117.548C71.0581 116.901 73.7848 116.295 76.5314 115.728C81.9114 114.618 77.7514 112.838 75.3314 113.038C72.3248 113.285 69.7314 113.208 67.5514 112.808C65.7848 112.488 65.1848 111.478 65.7514 109.778C66.3114 108.108 67.5514 102.588 66.2014 101.228C63.8414 98.8581 61.2314 108.028 60.8314 109.398C60.3781 110.918 59.4714 111.275 58.1114 110.468Z" stroke="#9CB1BA" stroke-width="2"/>
<path d="M115.751 205.839C118.461 208.909 125.711 209.099 124.061 203.279C121.188 193.166 119.528 184.169 119.081 176.289C118.571 167.259 125.731 161.689 133.451 158.779C139.345 156.566 143.465 155.386 145.811 155.239C156.318 154.586 166.735 153.282 177.061 151.329C179.541 150.859 184.441 148.219 186.261 145.629C193.881 134.799 182.841 128.709 173.441 128.139C155.691 127.049 90.4014 128.219 88.8714 156.039C88.3414 165.799 90.9714 172.509 96.7414 181.039C103.108 190.439 109.445 198.706 115.751 205.839Z" stroke="#8C8A91" stroke-width="2"/>
<path d="M42.0598 55.3183C29.4598 55.1983 19.6698 49.8349 12.6898 39.2283C10.4498 32.2016 10.0497 25.7683 11.4897 19.9283C14.6097 7.28829 32.8598 1.91828 44.2598 1.22828C53.7397 0.658285 62.3298 1.12829 72.1298 2.94829C80.4398 4.48829 88.1998 6.23828 96.9198 7.11828C107.66 8.18828 116.65 11.1183 126.43 13.7383C131.71 15.1483 134.41 14.5483 138.98 12.1983C150.82 6.12829 168.33 9.06829 175.42 20.9283C177.74 24.8083 178.35 28.8016 177.25 32.9083C173.55 46.7383 154.22 50.9883 143.38 42.8983C141.04 41.1583 138.866 39.1416 136.86 36.8483C135.926 35.775 134.75 35.1783 133.33 35.0583C118.06 33.7683 102.19 37.0283 86.9297 38.5983C71.0997 40.2283 54.7098 45.5183 42.0598 55.3183Z" fill="#1A1526"/>
<path d="M12.688 39.2285C19.668 49.8352 29.458 55.1985 42.058 55.3185C27.538 74.3985 21.158 109.329 31.388 131.219C33.8746 136.539 37.5646 142.835 42.458 150.109C43.588 151.799 44.338 153.539 44.978 155.379C45.5113 156.912 45.108 158.135 43.768 159.049C42.3746 160.002 40.6446 160.289 38.578 159.909C23.948 157.209 15.948 147.219 8.60798 134.969C-4.05202 113.859 1.92797 89.9085 6.34797 67.6285C8.23464 58.1152 10.348 48.6485 12.688 39.2285Z" fill="#FFB53A"/>
<path d="M102.529 88.7227C105.697 96.0778 114.018 99.5627 121.114 96.5065C128.21 93.4503 131.395 85.0104 128.228 77.6554C125.06 70.3003 116.739 66.8154 109.643 69.8716C102.547 72.9277 99.3619 81.3677 102.529 88.7227Z" fill="#FFB53A"/>
<path d="M58.1075 110.469C59.4675 111.276 60.3742 110.919 60.8275 109.399C61.2275 108.029 63.8375 98.8591 66.1975 101.229C67.5475 102.589 66.3075 108.109 65.7475 109.779C65.1809 111.479 65.7809 112.489 67.5475 112.809C69.7275 113.209 72.3209 113.286 75.3275 113.039C77.7475 112.839 81.9075 114.619 76.5275 115.729C73.7809 116.296 71.0542 116.902 68.3475 117.549C68.1896 117.588 68.0428 117.663 67.9193 117.768C67.7958 117.873 67.6992 118.006 67.6376 118.155C67.576 118.303 67.551 118.464 67.5649 118.623C67.5788 118.782 67.6312 118.935 67.7175 119.069L70.8475 123.999C70.9264 124.127 70.9643 124.288 70.9573 124.466C70.9502 124.643 70.8986 124.83 70.8075 125.009C70.2875 126.016 69.4809 126.516 68.3875 126.509C68.3165 126.511 68.1895 126.453 68.0235 126.34C67.8575 126.228 67.6601 126.067 67.4575 125.879L60.8475 119.739C60.738 119.639 60.5886 119.573 60.4146 119.549C60.2406 119.524 60.0483 119.541 59.8575 119.599C57.7775 120.269 51.4275 122.959 49.7375 121.579C49.5882 121.457 49.4701 121.301 49.3926 121.124C49.3151 120.947 49.2803 120.754 49.2909 120.56C49.3016 120.365 49.3575 120.176 49.4541 120.005C49.5507 119.835 49.6854 119.689 49.8475 119.579L55.7775 115.509C55.8379 115.468 55.8883 115.414 55.9253 115.351C55.9623 115.288 55.9849 115.217 55.9916 115.144C55.9982 115.071 55.9888 114.996 55.9639 114.926C55.939 114.856 55.8993 114.793 55.8475 114.739L51.0075 109.839C50.6331 109.455 50.3536 109.018 50.1986 108.575C50.0436 108.131 50.0191 107.697 50.1275 107.319C50.7875 105.049 57.3875 110.049 58.1075 110.469Z" fill="#3A6477"/>
<path d="M115.747 205.839C109.441 198.706 103.104 190.439 96.7375 181.039C90.9675 172.509 88.3375 165.799 88.8675 156.039C90.3975 128.219 155.687 127.049 173.437 128.139C182.837 128.709 193.877 134.799 186.257 145.629C184.437 148.219 179.537 150.859 177.057 151.329C166.731 153.282 156.314 154.586 145.807 155.239C143.461 155.386 139.341 156.566 133.447 158.779C125.727 161.689 118.567 167.259 119.077 176.289C119.524 184.169 121.184 193.166 124.057 203.279C125.707 209.099 118.457 208.909 115.747 205.839Z" fill="#1A1526"/>
</svg>
