<svg width="17" height="16" viewBox="0 0 17 16" fill="none" xmlns="http://www.w3.org/2000/svg">
<path d="M2.06641 8.88438L9.27643 14.6844C9.40732 14.7878 9.57171 14.8477 9.74939 14.8565C9.92707 14.8654 10.1103 14.823 10.2764 14.7344C14.6698 12.381 16.0431 9.04771 14.3964 4.73438C11.7264 -2.28562 3.76643 3.19437 1.77643 6.91437C1.59375 7.25561 1.52272 7.63939 1.57568 7.99918C1.62865 8.35898 1.80224 8.67211 2.06641 8.88438Z" stroke="#FEE8A1" stroke-width="2"/>
<path d="M2.07031 8.88438C1.80615 8.67211 1.63256 8.35897 1.57959 7.99918C1.52663 7.63939 1.59765 7.25561 1.78034 6.91437C3.77034 3.19437 11.7303 -2.28562 14.4003 4.73438C16.047 9.04771 14.6737 12.381 10.2803 14.7344C10.1142 14.823 9.93097 14.8654 9.7533 14.8565C9.57562 14.8477 9.41123 14.7878 9.28034 14.6844L2.07031 8.88438Z" fill="#FDD043"/>
</svg>
