<svg width="106" height="173" viewBox="0 0 106 173" fill="none" xmlns="http://www.w3.org/2000/svg">
<path d="M4.16251 66.2773C3.00251 70.4307 2.12251 74.644 1.52251 78.9173C0.822511 83.864 0.825846 88.134 1.53251 91.7273C3.53251 101.894 9.63918 109.341 19.8525 114.067" stroke="#AFE3E0" stroke-width="2"/>
<path d="M19.8516 114.068C28.7016 123.688 38.7016 129.668 43.5916 142.548C46.5016 150.218 51.9116 169.658 60.6716 171.068C66.8649 172.068 71.7916 169.735 75.4516 164.068" stroke="#9FD7D3" stroke-width="2"/>
<path d="M75.4518 164.067C93.8618 138.277 65.4018 114.607 49.6018 97.6274C44.2285 91.8541 40.3418 85.4208 37.9418 78.3275C35.3918 70.7875 38.5319 66.7175 43.4819 60.5275C51.0819 51.0208 60.6418 44.0474 72.1618 39.6074" stroke="#AFE3E0" stroke-width="2"/>
<path d="M72.1641 39.6078C81.8641 36.4378 103.694 27.9078 104.304 16.0978C104.614 10.1078 99.3841 4.77781 94.3541 2.57781C81.9541 -2.82219 62.8041 6.91781 50.4441 12.5778C47.8141 13.7778 43.4641 16.4778 40.8341 19.1278C34.1674 25.8478 27.3274 32.3978 20.3141 38.7778C10.6641 47.5578 5.67406 53.9378 4.16406 66.2778" stroke="#A2DBD8" stroke-width="2"/>
<path d="M72.1641 39.6073C71.3907 39.4873 71.1507 39.1139 71.4441 38.4873C71.5039 38.3609 71.5985 38.2427 71.7221 38.1396C71.8458 38.0366 71.996 37.9508 72.1641 37.8873C80.6241 34.5773 106.094 25.0773 102.414 13.5773C99.1741 3.41731 91.8641 2.3473 82.4141 3.0673C82.1213 3.08659 81.8068 3.2159 81.5141 3.4373C80.2407 4.41063 78.7874 4.77399 77.1541 4.52732C77.0125 4.50491 76.8584 4.51822 76.7017 4.56645C76.545 4.61467 76.3891 4.6967 76.2441 4.80729C72.7641 7.43729 67.4041 9.22729 63.3941 11.1173C61.6741 11.9173 59.1074 12.8306 55.6941 13.8573C48.4407 16.0239 42.1674 19.8339 36.8741 25.2873C29.1841 33.2173 21.5341 38.9373 14.1541 47.5673C12.1674 49.8873 10.6607 52.0607 9.63406 54.0873C7.95406 57.4073 8.17406 61.9873 6.85406 65.7473C6.27406 67.4206 5.3774 67.5973 4.16406 66.2773" stroke="#51BEB9" stroke-width="2"/>
<path d="M75.4527 164.068L74.0527 162.808C73.9489 162.716 73.8108 162.668 73.6627 162.671C73.5146 162.675 73.366 162.73 73.2427 162.828C71.7627 164.038 70.8927 165.718 69.3327 166.648C57.8227 173.518 53.1227 163.978 49.9927 154.848C46.2627 143.958 43.3727 135.928 37.5927 129.378C33.2661 124.464 27.4361 119.311 20.1027 113.918C19.6294 113.571 19.5461 113.621 19.8527 114.068" stroke="#4EBAB4" stroke-width="2"/>
<path d="M12.5045 87.218C13.3845 100.908 23.3845 107.028 33.9445 113.868C43.6345 120.148 52.1346 129.348 56.4046 139.858C58.0179 143.831 59.5746 147.831 61.0746 151.858C62.3546 155.288 66.2145 161.838 68.1145 152.468C70.1079 142.615 67.6812 134.045 60.8345 126.758C53.2345 118.668 45.9646 110.178 38.5746 101.888C35.1812 98.0813 32.5379 94.4613 30.6446 91.028C26.1746 82.918 25.2646 70.268 29.4146 62.308C34.5546 52.4146 41.4146 44.4447 49.9946 38.398C63.2746 29.028 82.3745 27.638 90.8945 15.298C92.0345 13.658 90.5546 12.448 88.9046 12.508C77.4446 12.948 65.0745 19.988 54.5645 24.828C43.5945 29.868 34.1745 41.868 27.2945 47.198C21.5945 51.6113 18.1279 56.6413 16.8946 62.288C15.1646 70.238 12.0345 80.078 12.5045 87.218Z" stroke="#AFE3E0" stroke-width="2"/>
<path d="M72.1641 39.6078C71.3907 39.4878 71.1507 39.1144 71.4441 38.4878C71.5039 38.3614 71.5985 38.2432 71.7221 38.1401C71.8458 38.0371 71.996 37.9513 72.1641 37.8878C80.6241 34.5778 106.094 25.0778 102.414 13.5778C99.1741 3.41781 91.8641 2.3478 82.4141 3.0678C82.1213 3.08709 81.8068 3.2164 81.5141 3.43779C80.2407 4.41113 78.7874 4.77449 77.1541 4.52782C77.0125 4.5054 76.8584 4.51872 76.7017 4.56694C76.545 4.61517 76.3891 4.6972 76.2441 4.80779C72.7641 7.43779 67.4041 9.22779 63.3941 11.1178C61.6741 11.9178 59.1074 12.8311 55.6941 13.8578C48.4407 16.0244 42.1674 19.8344 36.8741 25.2878C29.1841 33.2178 21.5341 38.9378 14.1541 47.5678C12.1674 49.8878 10.6607 52.0611 9.63406 54.0878C7.95406 57.4078 8.17407 61.9878 6.85406 65.7478C6.27407 67.4211 5.3774 67.5978 4.16406 66.2778C5.67406 53.9378 10.6641 47.5578 20.3141 38.7778C27.3274 32.3978 34.1674 25.8478 40.8341 19.1278C43.4641 16.4778 47.8141 13.7778 50.4441 12.5778C62.8041 6.91781 81.9541 -2.82219 94.3541 2.57781C99.3841 4.77781 104.614 10.1078 104.304 16.0978C103.694 27.9078 81.8641 36.4378 72.1641 39.6078Z" fill="#44B6B1"/>
<path d="M72.1664 39.6073C60.6464 44.0473 51.0864 51.0207 43.4864 60.5273C38.5364 66.7173 35.3964 70.7873 37.9464 78.3273C40.3464 85.4206 44.2331 91.854 49.6064 97.6273C65.4064 114.607 93.8664 138.277 75.4564 164.067L74.0564 162.807C73.9526 162.716 73.8145 162.667 73.6664 162.671C73.5183 162.675 73.3697 162.73 73.2464 162.827C71.7664 164.037 70.8964 165.717 69.3364 166.647C57.8264 173.517 53.1264 163.977 49.9964 154.847C46.2664 143.957 43.3764 135.927 37.5964 129.377C33.2697 124.464 27.4398 119.311 20.1064 113.917C19.6331 113.571 19.5498 113.621 19.8564 114.067C9.64309 109.341 3.53642 101.894 1.53642 91.7273C0.829753 88.1339 0.826417 83.8639 1.52642 78.9173C2.12642 74.6439 3.00642 70.4307 4.16642 66.2773C5.37975 67.5973 6.27642 67.4206 6.85642 65.7473C8.17642 61.9873 7.95642 57.4073 9.63642 54.0873C10.6631 52.0607 12.1697 49.8873 14.1564 47.5673C21.5364 38.9373 29.1864 33.2173 36.8764 25.2873C42.1698 19.8339 48.4431 16.0239 55.6964 13.8573C59.1097 12.8306 61.6764 11.9173 63.3964 11.1173C67.4064 9.22729 72.7664 7.43729 76.2464 4.80729C76.3914 4.6967 76.5473 4.61467 76.7041 4.56645C76.8608 4.51822 77.0149 4.50491 77.1564 4.52732C78.7898 4.77399 80.2431 4.41063 81.5164 3.4373C81.8091 3.2159 82.1237 3.08659 82.4164 3.0673C91.8664 2.3473 99.1764 3.41731 102.416 13.5773C106.096 25.0773 80.6264 34.5773 72.1664 37.8873C71.9984 37.9508 71.8481 38.0366 71.7245 38.1396C71.6008 38.2427 71.5063 38.3609 71.4464 38.4873C71.1531 39.1139 71.3931 39.4873 72.1664 39.6073ZM12.5064 87.2173C13.3864 100.907 23.3864 107.027 33.9464 113.867C43.6364 120.147 52.1364 129.347 56.4064 139.857C58.0198 143.831 59.5764 147.831 61.0764 151.857C62.3564 155.287 66.2164 161.837 68.1164 152.467C70.1097 142.614 67.6831 134.044 60.8364 126.757C53.2364 118.667 45.9664 110.177 38.5764 101.887C35.1831 98.0806 32.5398 94.4607 30.6464 91.0273C26.1764 82.9173 25.2664 70.2673 29.4164 62.3073C34.5564 52.414 41.4164 44.444 49.9964 38.3973C63.2764 29.0273 82.3764 27.6373 90.8964 15.2973C92.0364 13.6573 90.5564 12.4473 88.9064 12.5073C77.4464 12.9473 65.0764 19.9873 54.5664 24.8273C43.5964 29.8673 34.1764 41.8673 27.2964 47.1973C21.5964 51.6106 18.1298 56.6406 16.8964 62.2873C15.1664 70.2373 12.0364 80.0773 12.5064 87.2173Z" fill="#5EC6C0"/>
<path d="M75.4566 164.068C71.7966 169.734 66.87 172.068 60.6766 171.068C51.9166 169.658 46.5066 150.218 43.5966 142.548C38.7066 129.668 28.7066 123.688 19.8566 114.068C19.55 113.621 19.6333 113.571 20.1066 113.918C27.44 119.311 33.27 124.464 37.5966 129.378C43.3766 135.928 46.2666 143.958 49.9966 154.848C53.1266 163.978 57.8266 173.518 69.3366 166.648C70.8966 165.718 71.7666 164.038 73.2466 162.828C73.3699 162.73 73.5186 162.675 73.6666 162.671C73.8147 162.668 73.9528 162.716 74.0566 162.808L75.4566 164.068Z" fill="#3EAEA7"/>
</svg>
