<svg width="16" height="18" viewBox="0 0 16 18" fill="none" xmlns="http://www.w3.org/2000/svg">
<path d="M14.3105 7.04654C14.204 5.44287 13.4648 3.94716 12.2555 2.88852C11.0462 1.82988 9.46591 1.295 7.86224 1.40152L6.72475 1.47702C5.12108 1.58355 3.6254 2.32278 2.56676 3.53207C1.50811 4.74136 0.973224 6.32165 1.07974 7.92532L1.29714 11.1981C1.40367 12.8018 2.14288 14.2975 3.35217 15.3561C4.56146 16.4148 6.14177 16.9496 7.74544 16.8431L8.88293 16.7676C10.4866 16.6611 11.9823 15.9218 13.0409 14.7126C14.0996 13.5033 14.6345 11.923 14.5279 10.3193L14.3105 7.04654Z" stroke="#FDB0A3" stroke-width="2"/>
<path d="M7.86386 1.40173L6.72636 1.47729C3.38688 1.69909 0.859499 4.5861 1.08131 7.92558L1.29869 11.1984C1.52049 14.5379 4.40749 17.0652 7.74698 16.8434L8.88448 16.7679C12.224 16.5461 14.7513 13.6591 14.5295 10.3196L14.3122 7.04679C14.0903 3.7073 11.2033 1.17993 7.86386 1.40173Z" fill="#FA6046"/>
</svg>
