<svg width="168" height="166" viewBox="0 0 168 166" fill="none" xmlns="http://www.w3.org/2000/svg">
<path d="M1.53516 75.4087C2.06849 88.8154 4.1985 101.065 7.92517 112.159C21.2052 151.749 59.6052 171.699 99.9952 162.569C111.162 160.042 122.159 156.879 132.985 153.079C140.735 150.369 144.675 145.429 148.535 138.159" stroke="#FDDF8F" stroke-width="2"/>
<path d="M148.536 138.159C167.866 110.809 174.396 76.2688 154.296 47.0788C144.522 32.8922 132.159 20.8488 117.206 10.9488C108.306 5.06885 97.8756 3.46885 86.9956 1.92885C61.949 -1.63115 40.709 5.04218 23.2757 21.9488C8.38567 36.3988 -1.45438 54.2488 1.53562 75.4088" stroke="#BFE6DB" stroke-width="2"/>
<path d="M148.538 138.159L147.148 134.779" stroke="#BDC670" stroke-width="2"/>
<path d="M147.146 134.778C134.54 116.965 126.876 105.952 124.156 101.738C115.636 88.5185 110.716 73.5685 105.476 58.8885C104.206 55.3385 103.496 52.1685 101.166 48.9285C101.103 48.8398 101.057 48.7164 101.032 48.5665C101.006 48.4165 101 48.2433 101.016 48.0585C101.246 45.5685 95.8263 42.7985 93.6562 42.4185" stroke="#AFC88B" stroke-width="2"/>
<path d="M93.6552 42.4187C85.6752 39.9587 78.6885 41.5287 72.6952 47.1287C66.9285 52.522 61.4752 58.682 56.3352 65.6087C50.1652 73.8987 44.5952 78.0887 34.2452 78.6087C26.8518 78.982 19.6952 78.5387 12.7752 77.2787C9.77521 76.7287 6.33517 75.4387 2.98517 74.7487C2.78496 74.7094 2.5927 74.7017 2.42767 74.7262C2.26265 74.7508 2.13069 74.8069 2.04517 74.8887L1.53516 75.4087" stroke="#BDC670" stroke-width="2"/>
<path d="M93.6562 42.4185C100.406 47.8485 104.076 60.6085 107.016 69.9385C109.703 78.4851 113.886 88.0585 119.566 98.6585C121.286 101.888 123.676 105.208 125.686 108.508C129.826 115.288 135.246 121.068 139.706 127.688C141.213 129.922 143.693 132.285 147.146 134.778" stroke="#EDC13F" stroke-width="2"/>
<path d="M65.6058 7.19871C55.8958 5.65871 69.3458 26.8187 70.7158 29.1187C70.8004 29.2566 70.9115 29.3739 71.0411 29.462C71.1708 29.5502 71.3158 29.6071 71.4658 29.6287C73.6592 29.9287 74.4059 28.9287 73.7059 26.6287C72.0059 20.9987 70.6458 12.6287 66.4258 7.67871C66.2057 7.42013 65.9151 7.25 65.6058 7.19871Z" stroke="#4F7F8E" stroke-width="2"/>
<path d="M88.6075 28.3088C93.0275 25.0188 94.7375 3.99877 87.0275 11.0588C86.7948 11.2657 86.6392 11.5592 86.5875 11.8888C85.9342 16.2221 85.7675 20.5354 86.0875 24.8288C86.2075 26.3588 85.8175 30.3788 88.6075 28.3088Z" stroke="#4F7F8E" stroke-width="2"/>
<path d="M105.985 33.3786C108.605 28.7052 110.859 23.8719 112.745 18.8786C113.405 17.1252 112.929 15.8152 111.315 14.9486C108.795 13.5952 107.005 14.3752 105.945 17.2886C105.275 19.1386 100.315 35.6286 104.715 34.4586C104.958 34.3954 105.197 34.2668 105.415 34.0809C105.634 33.895 105.828 33.6559 105.985 33.3786Z" stroke="#4E7C8B" stroke-width="2"/>
<path d="M39.6369 19.6586C39.3544 20.0666 39.2031 20.5518 39.2031 21.05C39.2031 21.5482 39.3544 22.0359 39.6369 22.4486C43.8269 28.5986 50.8469 33.4886 56.6969 38.2186C57.6902 39.0186 58.3602 38.8152 58.7069 37.6086C58.7479 37.4628 58.7566 37.3061 58.7325 37.1479C58.7084 36.9898 58.6521 36.8335 58.5669 36.6886C56.7269 33.6586 44.1169 13.1786 39.6369 19.6586Z" stroke="#4F7F8E" stroke-width="2"/>
<path d="M27.8562 33.5785C25.9562 36.4285 27.0562 38.2385 29.6362 40.0685C35.7629 44.4085 42.3028 48.0218 49.2562 50.9085C50.9428 51.6018 51.4428 51.1785 50.7562 49.6385C48.0862 43.6085 36.3562 36.0085 30.8062 32.8785C29.6062 32.2051 28.6228 32.4385 27.8562 33.5785Z" stroke="#4F7F8E" stroke-width="2"/>
<path d="M124.265 35.6686C120.225 39.5286 114.515 44.2786 113.135 48.2986C112.295 50.7386 113.585 51.1286 115.285 50.0386C123.325 44.8986 128.295 41.5153 130.195 39.8886C135.165 35.6386 129.075 31.0786 124.265 35.6686Z" stroke="#4F7F8E" stroke-width="2"/>
<path d="M8.9551 56.4684C7.8951 58.1684 8.33839 59.3351 10.2851 59.9684C20.2717 63.2084 30.5084 64.3851 40.9951 63.4984C42.6284 63.3584 43.6251 62.9117 43.9851 62.1584C44.2851 61.5184 44.4418 60.8717 44.4551 60.2184C44.4595 60.1249 44.3648 60.0278 44.1912 59.9475C44.0177 59.8672 43.7787 59.8102 43.5251 59.7884C33.4051 58.9417 23.4684 57.1951 13.715 54.5484C11.675 53.9951 10.0884 54.6351 8.9551 56.4684Z" stroke="#4F7F8E" stroke-width="2"/>
<path d="M153.329 60.4087C153.442 58.6087 152.865 57.0754 151.599 55.8087C151.445 55.6546 151.234 55.549 150.989 55.5032C150.745 55.4574 150.475 55.4731 150.209 55.5487C140.249 58.3487 130.575 61.952 121.188 66.3587C120.815 66.5391 120.54 66.7716 120.419 67.0087C119.049 69.6887 121.319 70.6987 123.649 70.2287C133.162 68.3087 142.455 65.642 151.529 62.2287C152.037 62.0361 152.48 61.76 152.801 61.4359C153.122 61.1117 153.305 60.7541 153.329 60.4087Z" stroke="#557F8E" stroke-width="2"/>
<path d="M158.676 82.2186C161.096 77.2386 156.986 76.5486 153.336 76.6786C144.929 76.9719 136.553 77.6886 128.206 78.8286C124.466 79.3386 125.386 81.7886 128.366 82.2886C137.173 83.7819 146.116 84.4919 155.196 84.4186C156.809 84.4053 157.97 83.6719 158.676 82.2186Z" stroke="#557F8E" stroke-width="2"/>
<path d="M158.216 108.489C160.816 104.489 162.366 99.4288 155.996 97.9088C144.989 95.2955 136.496 93.3755 130.516 92.1488C130.335 92.1107 130.159 92.1008 129.998 92.1197C129.836 92.1386 129.692 92.1859 129.576 92.2588C126.686 94.0988 151.696 109.839 156.106 109.689C156.528 109.676 156.941 109.56 157.309 109.351C157.676 109.142 157.988 108.846 158.216 108.489Z" stroke="#557F8E" stroke-width="2"/>
<path d="M92.8459 52.7985C92.8459 51.3716 92.2791 50.0032 91.2701 48.9942C90.2612 47.9853 88.8927 47.4185 87.4659 47.4185C86.039 47.4185 84.6706 47.9853 83.6617 48.9942C82.6527 50.0032 82.0859 51.3716 82.0859 52.7985C82.0859 54.2253 82.6527 55.5937 83.6617 56.6027C84.6706 57.6116 86.039 58.1785 87.4659 58.1785C88.8927 58.1785 90.2612 57.6116 91.2701 56.6027C92.2791 55.5937 92.8459 54.2253 92.8459 52.7985Z" stroke="#937842" stroke-width="2"/>
<path d="M148.536 138.159L147.146 134.779C134.539 116.966 126.876 105.952 124.156 101.739C115.636 88.5188 110.716 73.5688 105.476 58.8889C104.206 55.3389 103.496 52.1688 101.166 48.9288C101.103 48.8402 101.057 48.7168 101.031 48.5669C101.005 48.4169 101 48.2437 101.016 48.0588C101.246 45.5688 95.8256 42.7989 93.6556 42.4188C85.6756 39.9589 78.689 41.5289 72.6957 47.1288C66.929 52.5222 61.4757 58.6822 56.3357 65.6088C50.1657 73.8988 44.5956 78.0888 34.2456 78.6088C26.8523 78.9822 19.6957 78.5388 12.7757 77.2788C9.77567 76.7288 6.33563 75.4388 2.98563 74.7488C2.78542 74.7095 2.59316 74.7018 2.42814 74.7264C2.26311 74.751 2.13115 74.807 2.04563 74.8888L1.53562 75.4088C-1.45438 54.2488 8.38567 36.3988 23.2757 21.9488C40.709 5.04218 61.949 -1.63115 86.9956 1.92885C97.8756 3.46885 108.306 5.06885 117.206 10.9488C132.159 20.8488 144.522 32.8922 154.296 47.0788C174.396 76.2688 167.866 110.809 148.536 138.159ZM65.6056 7.19885C55.8956 5.65885 69.3456 26.8188 70.7156 29.1188C70.8002 29.2568 70.9113 29.374 71.0409 29.4621C71.1706 29.5503 71.3156 29.6072 71.4656 29.6288C73.659 29.9288 74.4057 28.9288 73.7057 26.6288C72.0057 20.9988 70.6456 12.6288 66.4256 7.67885C66.2055 7.42027 65.9149 7.25013 65.6056 7.19885ZM88.6056 28.3088C93.0256 25.0188 94.7357 3.99885 87.0257 11.0588C86.793 11.2658 86.6374 11.5593 86.5857 11.8888C85.9323 16.2222 85.7657 20.5355 86.0857 24.8288C86.2057 26.3588 85.8156 30.3788 88.6056 28.3088ZM105.986 33.3788C108.606 28.7055 110.859 23.8722 112.746 18.8788C113.406 17.1255 112.929 15.8155 111.316 14.9488C108.796 13.5955 107.006 14.3755 105.946 17.2888C105.276 19.1388 100.316 35.6288 104.716 34.4588C104.959 34.3957 105.197 34.2671 105.415 34.0812C105.634 33.8953 105.828 33.6561 105.986 33.3788ZM39.6357 19.6588C39.3531 20.0669 39.2019 20.5521 39.2019 21.0503C39.2019 21.5485 39.3531 22.0362 39.6357 22.4488C43.8257 28.5988 50.8457 33.4888 56.6957 38.2188C57.689 39.0188 58.359 38.8155 58.7057 37.6088C58.7466 37.4631 58.7553 37.3064 58.7312 37.1482C58.7072 36.9901 58.6508 36.8338 58.5656 36.6888C56.7256 33.6588 44.1157 13.1788 39.6357 19.6588ZM27.8556 33.5788C25.9556 36.4288 27.0557 38.2388 29.6357 40.0689C35.7623 44.4089 42.3023 48.0222 49.2556 50.9088C50.9423 51.6022 51.4423 51.1789 50.7556 49.6389C48.0856 43.6089 36.3556 36.0088 30.8056 32.8788C29.6056 32.2055 28.6223 32.4388 27.8556 33.5788ZM124.266 35.6688C120.226 39.5288 114.516 44.2788 113.136 48.2988C112.296 50.7388 113.586 51.1288 115.286 50.0388C123.326 44.8988 128.296 41.5155 130.196 39.8888C135.166 35.6388 129.076 31.0788 124.266 35.6688ZM8.95566 56.4688C7.89566 58.1688 8.33895 59.3355 10.2856 59.9688C20.2723 63.2088 30.509 64.3855 40.9956 63.4988C42.629 63.3588 43.6256 62.9122 43.9856 62.1588C44.2856 61.5188 44.4423 60.8722 44.4557 60.2188C44.46 60.1254 44.3654 60.0282 44.1918 59.948C44.0182 59.8677 43.7793 59.8106 43.5257 59.7888C33.4057 58.9422 23.4689 57.1955 13.7156 54.5488C11.6756 53.9955 10.089 54.6355 8.95566 56.4688ZM153.326 60.4088C153.439 58.6088 152.862 57.0755 151.596 55.8088C151.442 55.6547 151.231 55.5491 150.986 55.5033C150.742 55.4575 150.472 55.4733 150.206 55.5488C140.246 58.3488 130.572 61.9522 121.186 66.3588C120.812 66.5392 120.537 66.7717 120.416 67.0088C119.046 69.6888 121.316 70.6988 123.646 70.2288C133.159 68.3088 142.452 65.6422 151.526 62.2288C152.035 62.0362 152.478 61.7602 152.798 61.436C153.119 61.1118 153.302 60.7542 153.326 60.4088ZM158.676 82.2188C161.096 77.2388 156.986 76.5488 153.336 76.6788C144.929 76.9722 136.552 77.6888 128.206 78.8288C124.466 79.3388 125.386 81.7888 128.366 82.2888C137.172 83.7822 146.116 84.4922 155.196 84.4188C156.809 84.4055 157.969 83.6722 158.676 82.2188ZM158.216 108.489C160.816 104.489 162.366 99.4288 155.996 97.9088C144.989 95.2955 136.496 93.3755 130.516 92.1488C130.335 92.1107 130.159 92.1008 129.998 92.1197C129.836 92.1386 129.693 92.186 129.576 92.2588C126.686 94.0988 151.696 109.839 156.106 109.689C156.528 109.676 156.941 109.56 157.309 109.351C157.676 109.142 157.988 108.846 158.216 108.489Z" fill="#7FCDBC"/>
<path d="M70.7158 29.1187C69.3458 26.8187 55.8958 5.65871 65.6058 7.19871C65.9151 7.25 66.2057 7.42013 66.4258 7.67871C70.6458 12.6287 72.0059 20.9987 73.7059 26.6287C74.4059 28.9287 73.6592 29.9287 71.4658 29.6287C71.3158 29.6071 71.1708 29.5502 71.0411 29.462C70.9115 29.3739 70.8004 29.2566 70.7158 29.1187Z" fill="#1F3160"/>
<path d="M88.6075 28.3088C85.8175 30.3788 86.2075 26.3588 86.0875 24.8288C85.7675 20.5354 85.9342 16.2221 86.5875 11.8888C86.6392 11.5592 86.7948 11.2657 87.0275 11.0588C94.7375 3.99877 93.0275 25.0188 88.6075 28.3088Z" fill="#1F3160"/>
<path d="M105.985 33.3786C105.828 33.6559 105.634 33.895 105.415 34.0809C105.197 34.2668 104.958 34.3954 104.715 34.4586C100.315 35.6286 105.275 19.1386 105.945 17.2886C107.005 14.3752 108.795 13.5952 111.315 14.9486C112.929 15.8152 113.405 17.1252 112.745 18.8786C110.859 23.8719 108.605 28.7052 105.985 33.3786Z" fill="#1C2B59"/>
<path d="M39.6369 19.6586C44.1169 13.1786 56.7269 33.6586 58.5669 36.6886C58.6521 36.8335 58.7084 36.9898 58.7325 37.1479C58.7566 37.3061 58.7479 37.4628 58.7069 37.6086C58.3602 38.8152 57.6902 39.0186 56.6969 38.2186C50.8469 33.4886 43.8269 28.5986 39.6369 22.4486C39.3544 22.0359 39.2031 21.5482 39.2031 21.05C39.2031 20.5518 39.3544 20.0666 39.6369 19.6586Z" fill="#1F3160"/>
<path d="M27.8562 33.5785C28.6228 32.4385 29.6062 32.2051 30.8062 32.8785C36.3562 36.0085 48.0862 43.6085 50.7562 49.6385C51.4428 51.1785 50.9428 51.6018 49.2562 50.9085C42.3028 48.0218 35.7629 44.4085 29.6362 40.0685C27.0562 38.2385 25.9562 36.4285 27.8562 33.5785Z" fill="#1F3160"/>
<path d="M113.135 48.2986C114.515 44.2786 120.225 39.5286 124.265 35.6686C129.075 31.0786 135.165 35.6386 130.195 39.8886C128.295 41.5153 123.325 44.8986 115.285 50.0386C113.585 51.1286 112.295 50.7386 113.135 48.2986Z" fill="#1F3160"/>
<path d="M93.6552 42.4187C100.405 47.8487 104.075 60.6087 107.015 69.9387C109.702 78.4854 113.885 88.0587 119.565 98.6587C121.285 101.889 123.675 105.209 125.685 108.509C129.825 115.289 135.245 121.069 139.705 127.689C141.212 129.922 143.692 132.285 147.145 134.779L148.535 138.159C144.675 145.429 140.735 150.369 132.985 153.079C122.159 156.879 111.162 160.042 99.9952 162.569C59.6052 171.699 21.2052 151.749 7.92517 112.159C4.1985 101.065 2.06849 88.8154 1.53516 75.4087L2.04517 74.8887C2.13069 74.8069 2.26265 74.7508 2.42767 74.7262C2.5927 74.7017 2.78496 74.7094 2.98517 74.7487C6.33517 75.4387 9.77521 76.7287 12.7752 77.2787C19.6952 78.5387 26.8518 78.982 34.2452 78.6087C44.5952 78.0887 50.1652 73.8987 56.3352 65.6087C61.4752 58.682 66.9285 52.522 72.6952 47.1287C78.6885 41.5287 85.6751 39.9587 93.6552 42.4187ZM92.8452 52.7987C92.8452 51.3718 92.2784 50.0034 91.2694 48.9945C90.2605 47.9855 88.892 47.4187 87.4651 47.4187C86.0383 47.4187 84.6699 47.9855 83.6609 48.9945C82.652 50.0034 82.0852 51.3718 82.0852 52.7987C82.0852 54.2256 82.652 55.594 83.6609 56.6029C84.6699 57.6119 86.0383 58.1787 87.4651 58.1787C88.892 58.1787 90.2605 57.6119 91.2694 56.6029C92.2784 55.594 92.8452 54.2256 92.8452 52.7987Z" fill="#FBBF24"/>
<path d="M93.6562 42.4185C95.8263 42.7985 101.246 45.5685 101.016 48.0585C101 48.2433 101.006 48.4165 101.032 48.5665C101.057 48.7164 101.103 48.8398 101.166 48.9285C103.496 52.1685 104.206 55.3385 105.476 58.8885C110.716 73.5685 115.636 88.5185 124.156 101.738C126.876 105.952 134.54 116.965 147.146 134.778C143.693 132.285 141.213 129.922 139.706 127.688C135.246 121.068 129.826 115.288 125.686 108.508C123.676 105.208 121.286 101.888 119.566 98.6585C113.886 88.0585 109.703 78.4851 107.016 69.9385C104.076 60.6085 100.406 47.8485 93.6562 42.4185Z" fill="#DEC35A"/>
<path d="M87.4659 58.1785C90.4372 58.1785 92.8459 55.7697 92.8459 52.7985C92.8459 49.8272 90.4372 47.4185 87.4659 47.4185C84.4946 47.4185 82.0859 49.8272 82.0859 52.7985C82.0859 55.7697 84.4946 58.1785 87.4659 58.1785Z" fill="#2A315F"/>
<path d="M8.9551 56.4689C10.0884 54.6355 11.675 53.9955 13.715 54.5489C23.4684 57.1955 33.4051 58.9422 43.5251 59.7889C43.7788 59.8107 44.0177 59.8677 44.1912 59.948C44.3648 60.0283 44.4595 60.1254 44.4551 60.2189C44.4418 60.8722 44.2851 61.5189 43.9851 62.1589C43.6251 62.9122 42.6284 63.3589 40.9951 63.4989C30.5084 64.3855 20.2717 63.2089 10.2851 59.9689C8.33839 59.3355 7.8951 58.1689 8.9551 56.4689Z" fill="#1F3160"/>
<path d="M153.325 60.4087C153.301 60.7541 153.118 61.1117 152.797 61.4359C152.477 61.76 152.034 62.0361 151.525 62.2287C142.451 65.642 133.158 68.3087 123.645 70.2287C121.315 70.6987 119.045 69.6887 120.415 67.0087C120.536 66.7716 120.811 66.5391 121.185 66.3587C130.571 61.952 140.245 58.3487 150.205 55.5487C150.471 55.4731 150.741 55.4574 150.985 55.5032C151.23 55.549 151.441 55.6546 151.595 55.8087C152.861 57.0754 153.438 58.6087 153.325 60.4087Z" fill="#2A315F"/>
<path d="M158.676 82.2186C157.97 83.6719 156.809 84.4053 155.196 84.4186C146.116 84.4919 137.173 83.7819 128.366 82.2886C125.386 81.7886 124.466 79.3386 128.206 78.8286C136.553 77.6886 144.929 76.9719 153.336 76.6786C156.986 76.5486 161.096 77.2386 158.676 82.2186Z" fill="#2A315F"/>
<path d="M158.216 108.489C157.988 108.846 157.676 109.142 157.309 109.351C156.941 109.56 156.528 109.676 156.106 109.689C151.696 109.839 126.686 94.0988 129.576 92.2588C129.692 92.1859 129.836 92.1386 129.998 92.1197C130.159 92.1008 130.335 92.1107 130.516 92.1488C136.496 93.3755 144.989 95.2955 155.996 97.9088C162.366 99.4288 160.816 104.489 158.216 108.489Z" fill="#2A315F"/>
</svg>
