<svg width="48" height="177" viewBox="0 0 48 177" fill="none" xmlns="http://www.w3.org/2000/svg">
<path d="M10.5414 1.04818C9.69139 0.828175 9.12139 1.38819 8.88139 2.18819C5.44139 13.7282 2.81806 25.3882 1.0114 37.1682C0.992505 37.2899 0.997144 37.4142 1.02499 37.5326C1.05284 37.651 1.10323 37.7606 1.17267 37.8538C1.24211 37.947 1.32893 38.0216 1.42714 38.0725C1.52534 38.1233 1.63257 38.1491 1.74139 38.1482C8.77472 38.0882 15.7781 37.6149 22.7514 36.7282C22.8963 36.7103 23.0349 36.659 23.1569 36.5781C23.279 36.4972 23.3813 36.3888 23.4562 36.2609C23.5312 36.1331 23.5769 35.9892 23.5899 35.8398C23.6029 35.6904 23.5829 35.5394 23.5314 35.3982L10.9014 1.39818C10.8672 1.31163 10.8169 1.23495 10.7544 1.17421C10.6919 1.11348 10.619 1.07033 10.5414 1.04818Z" stroke="#B4D6D1" stroke-width="2"/>
<path d="M29.322 62.1187L4.99203 61.7287C4.79606 61.726 4.60154 61.7625 4.42008 61.836C4.23862 61.9096 4.07393 62.0187 3.93582 62.1568C3.7977 62.2949 3.68901 62.4592 3.6162 62.6399C3.5434 62.8206 3.50797 63.014 3.51203 63.2087C3.58537 66.7553 3.8987 70.6586 4.45204 74.9186C5.00204 79.1486 7.81203 77.8487 10.662 77.4687C17.5287 76.5553 24.3787 75.462 31.212 74.1887C31.3641 74.1604 31.5015 74.0878 31.6002 73.9836C31.6989 73.8794 31.7527 73.7502 31.752 73.6187C31.772 69.932 31.1954 66.3453 30.022 62.8587C29.9497 62.647 29.8428 62.4612 29.7169 62.3281C29.591 62.195 29.4527 62.1217 29.322 62.1187Z" stroke="#B4D6D1" stroke-width="2"/>
<path d="M10.2509 132.568C20.7243 132.175 31.1376 131.182 41.4909 129.588C42.6643 129.408 43.2909 128.692 43.3709 127.438C43.7643 121.105 43.5009 114.812 42.5809 108.558C42.5608 108.445 42.4802 108.342 42.3536 108.269C42.227 108.195 42.0628 108.156 41.8909 108.158C35.7309 108.265 29.5876 108.602 23.4609 109.168C17.9509 109.678 10.8209 109.858 4.60093 110.818C4.4563 110.841 4.31781 110.893 4.19405 110.971C4.07029 111.049 3.96388 111.152 3.8814 111.273C3.79891 111.394 3.74211 111.53 3.71451 111.674C3.68691 111.818 3.68909 111.965 3.72092 112.108C4.85425 117.128 5.93759 122.152 6.97092 127.178C7.34425 129.005 7.86092 130.458 8.52092 131.538C8.7179 131.862 8.98226 132.128 9.2865 132.309C9.59075 132.491 9.92375 132.58 10.2509 132.568Z" stroke="#B4D6D1" stroke-width="2"/>
<path d="M18.6304 160.418C20.9404 165.528 32.5904 182.318 39.2804 172.688C42.627 167.861 44.957 162.585 46.2704 156.858C46.3083 156.69 46.3014 156.517 46.2503 156.353C46.1992 156.188 46.1056 156.039 45.9781 155.919C45.8506 155.798 45.6933 155.71 45.5206 155.663C45.348 155.615 45.1656 155.61 44.9904 155.648C36.5904 157.481 28.0904 158.621 19.4904 159.068C19.3312 159.078 19.1763 159.125 19.0389 159.205C18.9014 159.285 18.7855 159.397 18.7011 159.529C18.6166 159.662 18.566 159.812 18.5537 159.967C18.5414 160.121 18.5677 160.276 18.6304 160.418Z" stroke="#B4D6D1" stroke-width="2"/>
<path d="M10.5414 1.04818C10.619 1.07033 10.6919 1.11348 10.7544 1.17421C10.8169 1.23495 10.8672 1.31163 10.9014 1.39818L23.5314 35.3982C23.5829 35.5394 23.6029 35.6904 23.5899 35.8398C23.5769 35.9892 23.5312 36.1331 23.4562 36.2609C23.3813 36.3888 23.279 36.4972 23.1569 36.5781C23.0349 36.659 22.8963 36.7103 22.7514 36.7282C15.7781 37.6148 8.77472 38.0882 1.74139 38.1482C1.63257 38.1491 1.52534 38.1233 1.42714 38.0725C1.32893 38.0216 1.24211 37.947 1.17267 37.8538C1.10323 37.7606 1.05284 37.651 1.02499 37.5326C0.997144 37.4142 0.992505 37.2899 1.0114 37.1682C2.81806 25.3882 5.44139 13.7282 8.88139 2.18819C9.12139 1.38819 9.69139 0.828175 10.5414 1.04818Z" fill="#6AAFAE"/>
<path d="M29.322 62.1187C29.4527 62.1217 29.591 62.195 29.7169 62.3281C29.8428 62.4612 29.9497 62.647 30.022 62.8587C31.1954 66.3453 31.772 69.932 31.752 73.6187C31.7527 73.7502 31.6989 73.8794 31.6002 73.9836C31.5015 74.0878 31.3641 74.1604 31.212 74.1887C24.3787 75.462 17.5287 76.5553 10.662 77.4687C7.81203 77.8487 5.00204 79.1486 4.45204 74.9186C3.8987 70.6586 3.58537 66.7553 3.51203 63.2087C3.50797 63.014 3.5434 62.8206 3.6162 62.6399C3.68901 62.4592 3.7977 62.2949 3.93582 62.1568C4.07393 62.0187 4.23862 61.9096 4.42008 61.836C4.60154 61.7625 4.79606 61.726 4.99203 61.7287L29.322 62.1187Z" fill="#6AAFAE"/>
<path d="M10.2509 132.568C9.92375 132.58 9.59075 132.491 9.2865 132.309C8.98226 132.128 8.7179 131.862 8.52092 131.538C7.86092 130.458 7.34425 129.005 6.97092 127.178C5.93759 122.152 4.85425 117.128 3.72092 112.108C3.68909 111.965 3.68691 111.818 3.71451 111.674C3.74211 111.53 3.79891 111.394 3.8814 111.273C3.96388 111.152 4.07029 111.049 4.19405 110.971C4.31781 110.893 4.4563 110.841 4.60093 110.818C10.8209 109.858 17.9509 109.678 23.4609 109.168C29.5876 108.602 35.7309 108.265 41.8909 108.158C42.0628 108.156 42.227 108.195 42.3536 108.269C42.4802 108.342 42.5608 108.445 42.5809 108.558C43.5009 114.812 43.7643 121.105 43.3709 127.438C43.2909 128.692 42.6643 129.408 41.4909 129.588C31.1376 131.182 20.7243 132.175 10.2509 132.568Z" fill="#6AAFAE"/>
<path d="M39.2804 172.689C32.5904 182.319 20.9404 165.529 18.6304 160.419C18.5677 160.277 18.5414 160.122 18.5537 159.968C18.566 159.813 18.6166 159.663 18.7011 159.53C18.7855 159.398 18.9014 159.286 19.0389 159.206C19.1763 159.126 19.3312 159.079 19.4904 159.069C28.0904 158.622 36.5904 157.482 44.9904 155.649C45.1656 155.611 45.348 155.616 45.5206 155.664C45.6933 155.711 45.8506 155.799 45.9781 155.92C46.1056 156.04 46.1992 156.189 46.2503 156.353C46.3014 156.518 46.3083 156.691 46.2704 156.859C44.957 162.586 42.627 167.862 39.2804 172.689Z" fill="#6AAFAE"/>
</svg>
