<svg width="26" height="27" viewBox="0 0 26 27" fill="none" xmlns="http://www.w3.org/2000/svg">
<path d="M15.2936 7.66739C13.8136 -0.112612 11.6936 -0.57593 8.93359 6.2774C8.32026 7.81074 5.8236 12.0174 1.4436 18.8974C1.35603 19.0347 1.29891 19.1867 1.27643 19.3424C1.25395 19.498 1.26665 19.6534 1.3136 19.7974C2.5536 23.6574 5.86358 21.8074 7.91358 20.0674C8.60691 19.4807 8.98692 19.6507 9.05359 20.5774C9.18692 22.4374 9.87024 24.0607 11.1036 25.4474C11.2767 25.6407 11.467 25.7974 11.6433 25.8919C11.8195 25.9864 11.9712 26.013 12.0736 25.9674C14.0136 25.0741 15.3303 23.6141 16.0236 21.5874C16.0739 21.4363 16.1612 21.3008 16.2791 21.1909C16.397 21.081 16.5425 20.9995 16.7048 20.9524C16.8671 20.9054 17.042 20.894 17.2166 20.9191C17.3912 20.9442 17.5611 21.0051 17.7136 21.0974C19.4336 22.1474 24.2836 26.3174 23.9636 20.5874C23.9378 20.1915 23.8397 19.8551 23.6836 19.6274L19.9836 14.3274C19.6985 13.9208 19.5705 13.4258 19.624 12.9369C19.6775 12.4481 19.9087 11.9997 20.2736 11.6774C28.2036 4.7474 22.0836 1.35738 16.0236 7.87738C15.637 8.29738 15.3936 8.22739 15.2936 7.66739Z" stroke="#F5B6A0" stroke-width="2"/>
<path d="M15.2936 7.66788C15.3936 8.22788 15.637 8.29787 16.0236 7.87787C22.0836 1.35787 28.2036 4.74789 20.2736 11.6779C19.9087 12.0002 19.6775 12.4486 19.624 12.9374C19.5705 13.4262 19.6985 13.9213 19.9836 14.3279L23.6836 19.6279C23.8397 19.8556 23.9378 20.192 23.9636 20.5879C24.2836 26.3179 19.4336 22.1479 17.7136 21.0979C17.5611 21.0056 17.3912 20.9446 17.2166 20.9196C17.042 20.8945 16.8671 20.9059 16.7048 20.9529C16.5425 21 16.397 21.0815 16.2791 21.1914C16.1612 21.3013 16.0739 21.4368 16.0236 21.5879C15.3303 23.6146 14.0136 25.0746 12.0736 25.9679C11.9712 26.0135 11.8195 25.9868 11.6433 25.8924C11.467 25.7979 11.2767 25.6411 11.1036 25.4479C9.87024 24.0612 9.18692 22.4379 9.05359 20.5779C8.98692 19.6512 8.60691 19.4812 7.91358 20.0679C5.86357 21.8079 2.5536 23.6579 1.3136 19.7979C1.26665 19.6539 1.25395 19.4985 1.27643 19.3429C1.29891 19.1872 1.35603 19.0352 1.4436 18.8979C5.8236 12.0179 8.32026 7.81123 8.93359 6.27789C11.6936 -0.575441 13.8136 -0.112124 15.2936 7.66788Z" fill="#EA6D41"/>
</svg>
