<svg width="159" height="111" viewBox="0 0 159 111" fill="none" xmlns="http://www.w3.org/2000/svg">
<path d="M53 45.1161C51.8133 44.4761 50.4433 44.1361 48.89 44.0961C39.57 43.8428 29.6367 42.6994 19.09 40.6661C16.72 40.2061 13.87 40.2861 10.88 39.6461C8.02 39.0261 5.13667 39.0361 2.23 39.6761C2.05479 39.7136 1.89575 39.7734 1.76433 39.8512C1.63292 39.929 1.5324 40.0229 1.47 40.1261C0.843333 41.1861 0.843333 42.2461 1.47 43.3061C1.50151 43.3549 1.6186 43.4078 1.80306 43.4567C1.98753 43.5055 2.22903 43.5475 2.49 43.5761C6.58334 44.0161 13.2167 45.1161 22.39 46.8761C26.83 47.7294 36.81 49.1061 52.33 51.0061" stroke="#85868F" stroke-width="2"/>
<path d="M52.3281 51.0059C52.3748 51.8792 52.7481 52.5225 53.4481 52.9359C53.7295 53.1062 53.9543 53.3414 54.0981 53.6159L54.6081 54.6059" stroke="#FFE99A" stroke-width="2"/>
<path d="M54.6084 54.6064C42.3751 58.5331 31.8684 62.5531 23.0884 66.6664C22.0618 67.1464 21.7884 67.8698 22.2684 68.8364C22.3289 68.9619 22.4345 69.0649 22.5706 69.1312C22.7067 69.1974 22.8667 69.2238 23.0284 69.2065C34.0684 67.9665 44.8784 64.2964 57.5384 59.7164" stroke="#88888D" stroke-width="2"/>
<path d="M57.5391 59.7158L59.8091 63.8258" stroke="#FFE99A" stroke-width="2"/>
<path d="M59.8081 63.8262C58.1148 65.2862 56.6014 66.3962 55.2681 67.1562C49.2181 70.6062 35.1081 77.9562 32.2581 82.6662C32.0848 82.9662 32.1614 83.0662 32.4881 82.9662C43.9681 79.4662 53.6981 73.7462 64.0781 68.6762" stroke="#88878A" stroke-width="2"/>
<path d="M64.0781 68.6758C65.7381 69.5858 70.0281 69.8058 70.6181 70.9658" stroke="#FFE99A" stroke-width="2"/>
<path d="M70.6193 70.9658C58.6293 80.3958 44.7993 88.7458 34.1493 99.0358C33.336 99.8225 33.2393 100.806 33.8593 101.986C33.9234 102.108 34.032 102.202 34.1658 102.252C34.2995 102.301 34.4497 102.303 34.5893 102.256C36.3093 101.662 38.186 100.686 40.2193 99.3258C54.026 90.0858 66.016 81.6358 76.1893 73.9758" stroke="#88888D" stroke-width="2"/>
<path d="M76.1875 73.9766C77.3142 74.2832 78.3875 74.5366 79.4075 74.7366C81.8075 75.2166 83.3875 76.5566 85.7875 77.2166" stroke="#FFE99A" stroke-width="2"/>
<path d="M85.7888 77.2158C81.3688 85.7158 77.0654 94.2591 72.8788 102.846C69.3388 110.099 69.6121 111.376 73.6988 106.676C80.9788 98.3058 87.4688 86.6558 92.8288 76.9258" stroke="#8D8D94" stroke-width="2"/>
<path d="M92.8281 76.9258C96.4415 77.9124 100.108 78.1891 103.828 77.7558" stroke="#FFE99A" stroke-width="2"/>
<path d="M103.828 77.7565C100.268 87.3098 96.758 96.8732 93.298 106.447C92.8447 107.713 93.118 108.533 94.118 108.907C94.2531 108.958 94.4034 108.967 94.5518 108.934C94.7002 108.9 94.8409 108.825 94.9581 108.717C96.7981 107.07 98.5281 104.923 100.148 102.277C105.475 93.5899 109.635 84.8932 112.628 76.1865" stroke="#8D8D94" stroke-width="2"/>
<path d="M112.629 76.1863C115.362 75.4197 118.069 75.2063 120.749 75.5463" stroke="#FFE99A" stroke-width="2"/>
<path d="M120.749 75.5466C120.476 80.5399 119.842 85.3899 118.849 90.0966C118.519 91.6966 116.839 100.727 118.079 101.347C118.194 101.405 118.333 101.406 118.472 101.351C118.61 101.295 118.738 101.187 118.829 101.047C123.489 93.9166 125.819 81.2066 126.969 72.4766" stroke="#88878A" stroke-width="2"/>
<path d="M126.969 72.4763C128.879 71.6563 129.549 69.4763 132.539 70.2163" stroke="#FFE99A" stroke-width="2"/>
<path d="M132.539 70.2158C132.799 73.2425 133.522 76.1325 134.709 78.8858C136.339 82.6258 136.489 88.2658 139.519 91.0458C140.759 92.1858 141.329 91.9158 141.229 90.2358C140.796 82.9825 139.816 75.8092 138.289 68.7158" stroke="#88888D" stroke-width="2"/>
<path d="M138.289 68.716C139.542 65.6426 141.799 63.696 145.059 62.876" stroke="#FFE99A" stroke-width="2"/>
<path d="M145.059 62.8761C146.859 66.3661 148.399 69.8261 151.139 72.7761C152.319 74.0461 155.339 79.5761 157.329 77.1561C157.422 77.0418 157.485 76.8998 157.512 76.7415C157.54 76.5833 157.532 76.4135 157.489 76.2461C155.802 70.0261 153.065 64.2061 149.279 58.7861" stroke="#88888D" stroke-width="2"/>
<path d="M149.279 58.7861C147.252 59.4128 145.845 60.7761 145.059 62.8761" stroke="#89732A" stroke-width="2"/>
<path d="M138.289 68.7163C136.689 65.9963 133.429 68.0663 132.539 70.2163" stroke="#89732A" stroke-width="2"/>
<path d="M126.97 72.4763C123.457 71.7163 121.383 72.7397 120.75 75.5463" stroke="#887228" stroke-width="2"/>
<path d="M112.628 76.1862L105.638 75.7162C105.49 75.7069 105.337 75.7447 105.197 75.8257C105.056 75.9067 104.932 76.0279 104.838 76.1762L103.828 77.7562" stroke="#8D7831" stroke-width="2"/>
<path d="M92.8291 76.9263C93.9091 73.0763 90.7291 72.2263 88.3491 74.2463C87.3491 75.0929 86.4957 76.0829 85.7891 77.2163" stroke="#8D7831" stroke-width="2"/>
<path d="M76.1872 73.9766C77.0739 72.9033 77.4772 71.7867 77.3972 70.6267C77.3812 70.3802 77.3147 70.1385 77.2031 69.9208C77.0915 69.7031 76.9378 69.5154 76.7542 69.3726C76.5707 69.2299 76.3624 69.136 76.1459 69.0985C75.9294 69.061 75.7107 69.0809 75.5072 69.1567L70.6172 70.9666" stroke="#89732A" stroke-width="2"/>
<path d="M64.0786 68.6766C66.3386 64.2166 64.9153 62.5999 59.8086 63.8266" stroke="#887228" stroke-width="2"/>
<path d="M57.5394 59.7164C58.3194 56.6964 57.3427 54.9931 54.6094 54.6064" stroke="#89732A" stroke-width="2"/>
<path d="M52.3281 51.0062C53.5215 49.1062 53.7448 47.1429 52.9981 45.1162" stroke="#85712C" stroke-width="2"/>
<path d="M149.278 58.786C147.251 59.4127 145.845 60.776 145.058 62.876C141.798 63.696 139.541 65.6426 138.288 68.716C136.688 65.996 133.428 68.066 132.538 70.216C129.548 69.476 128.878 71.656 126.968 72.476C123.455 71.716 121.381 72.7393 120.748 75.546C118.068 75.206 115.361 75.4193 112.628 76.186L105.638 75.716C105.49 75.7066 105.337 75.7445 105.197 75.8255C105.056 75.9065 104.932 76.0276 104.838 76.176L103.828 77.756C100.108 78.1893 96.4415 77.9127 92.8281 76.926C93.9081 73.076 90.7281 72.226 88.3481 74.246C87.3481 75.0926 86.4948 76.0826 85.7881 77.216C83.3881 76.556 81.8081 75.216 79.4081 74.736C78.3881 74.536 77.3148 74.2826 76.1881 73.976C77.0748 72.9026 77.4781 71.786 77.3981 70.626C77.3821 70.3796 77.3157 70.1379 77.204 69.9201C77.0924 69.7024 76.9387 69.5147 76.7552 69.372C76.5716 69.2292 76.3633 69.1353 76.1468 69.0978C75.9303 69.0603 75.7116 69.0803 75.5081 69.156L70.6181 70.966C70.0281 69.806 65.7381 69.586 64.0781 68.676C66.3381 64.216 64.9148 62.5993 59.8081 63.826L57.5381 59.716C58.3181 56.696 57.3415 54.9926 54.6081 54.606L54.0981 53.616C53.9543 53.3415 53.7295 53.1063 53.4481 52.936C52.7481 52.5226 52.3748 51.8793 52.3281 51.006C53.5215 49.106 53.7448 47.1426 52.9981 45.116C54.4915 43.0093 55.9015 40.8426 57.2281 38.616C68.1781 20.156 103.978 -8.08402 127.088 2.18598C143.388 9.42598 154.028 26.386 153.908 44.266C153.895 45.8793 153.495 47.596 152.708 49.416C151.361 52.5293 150.218 55.6526 149.278 58.786Z" fill="#FFD437"/>
<path d="M53 45.1161C53.7467 47.1428 53.5233 49.1061 52.33 51.0061C36.81 49.1061 26.83 47.7294 22.39 46.8761C13.2167 45.1161 6.58334 44.0161 2.49 43.5761C2.22903 43.5475 1.98752 43.5055 1.80306 43.4567C1.6186 43.4078 1.50151 43.3549 1.47 43.3061C0.843333 42.2461 0.843333 41.1861 1.47 40.1261C1.5324 40.0229 1.63292 39.929 1.76433 39.8512C1.89575 39.7734 2.05479 39.7136 2.23 39.6761C5.13667 39.0361 8.02 39.0261 10.88 39.6461C13.87 40.2861 16.72 40.2061 19.09 40.6661C29.6367 42.6994 39.57 43.8428 48.89 44.0961C50.4433 44.1361 51.8133 44.4761 53 45.1161Z" fill="#0B0E21"/>
<path d="M54.6084 54.6055C57.3418 54.9921 58.3184 56.6955 57.5384 59.7155C44.8784 64.2955 34.0684 67.9655 23.0284 69.2055C22.8667 69.2228 22.7067 69.1965 22.5706 69.1302C22.4345 69.0639 22.3289 68.961 22.2684 68.8355C21.7884 67.8688 22.0618 67.1455 23.0884 66.6655C31.8684 62.5521 42.3751 58.5321 54.6084 54.6055Z" fill="#12111D"/>
<path d="M149.279 58.7861C153.065 64.2061 155.802 70.0261 157.489 76.2461C157.532 76.4135 157.54 76.5833 157.512 76.7415C157.485 76.8998 157.422 77.0418 157.329 77.1561C155.339 79.5761 152.319 74.0461 151.139 72.7761C148.399 69.8261 146.859 66.3661 145.059 62.8761C145.845 60.7761 147.252 59.4128 149.279 58.7861Z" fill="#12111D"/>
<path d="M64.0781 68.6756C53.6981 73.7456 43.9681 79.4656 32.4881 82.9656C32.1614 83.0656 32.0848 82.9656 32.2581 82.6656C35.1081 77.9556 49.2181 70.6056 55.2681 67.1556C56.6014 66.3956 58.1148 65.2856 59.8081 63.8256C64.9148 62.5989 66.3381 64.2156 64.0781 68.6756Z" fill="#111018"/>
<path d="M138.289 68.7154C139.816 75.8087 140.796 82.982 141.229 90.2354C141.329 91.9154 140.759 92.1854 139.519 91.0454C136.489 88.2654 136.339 82.6254 134.709 78.8854C133.522 76.132 132.799 73.242 132.539 70.2154C133.429 68.0654 136.689 65.9954 138.289 68.7154Z" fill="#12111D"/>
<path d="M76.1893 73.9757C66.016 81.6357 54.026 90.0857 40.2193 99.3257C38.186 100.686 36.3093 101.662 34.5893 102.256C34.4497 102.302 34.2995 102.301 34.1658 102.251C34.032 102.202 33.9234 102.108 33.8593 101.986C33.2393 100.806 33.336 99.8223 34.1493 99.0357C44.7993 88.7457 58.6293 80.3957 70.6193 70.9657L75.5093 69.1557C75.7128 69.0799 75.9315 69.06 76.148 69.0975C76.3645 69.135 76.5728 69.2289 76.7563 69.3716C76.9399 69.5144 77.0936 69.7021 77.2052 69.9198C77.3168 70.1375 77.3833 70.3792 77.3993 70.6257C77.4793 71.7857 77.076 72.9023 76.1893 73.9757Z" fill="#12111D"/>
<path d="M126.969 72.4753C125.819 81.2053 123.489 93.9153 118.829 101.045C118.738 101.186 118.61 101.294 118.472 101.349C118.333 101.405 118.194 101.403 118.079 101.345C116.839 100.725 118.519 91.6953 118.849 90.0953C119.842 85.3887 120.476 80.5387 120.749 75.5453C121.382 72.7387 123.456 71.7153 126.969 72.4753Z" fill="#111018"/>
<path d="M92.8288 76.9263C87.4688 86.6563 80.9788 98.3063 73.6988 106.676C69.6121 111.376 69.3388 110.1 72.8788 102.846C77.0654 94.2596 81.3688 85.7163 85.7888 77.2163C86.4954 76.0829 87.3488 75.0929 88.3488 74.2463C90.7288 72.2263 93.9088 73.0763 92.8288 76.9263Z" fill="#1B1C2B"/>
<path d="M112.628 76.1862C109.635 84.8929 105.475 93.5896 100.148 102.276C98.5281 104.923 96.7981 107.07 94.9581 108.716C94.8409 108.825 94.7002 108.9 94.5518 108.933C94.4034 108.967 94.2531 108.958 94.118 108.906C93.118 108.533 92.8447 107.713 93.298 106.446C96.758 96.8729 100.268 87.3096 103.828 77.7562L104.838 76.1762C104.932 76.0279 105.056 75.9067 105.196 75.8257C105.337 75.7447 105.49 75.7069 105.638 75.7162L112.628 76.1862Z" fill="#1B1C2B"/>
</svg>
