<svg width="74" height="77" viewBox="0 0 74 77" fill="none" xmlns="http://www.w3.org/2000/svg">
<path d="M31.4188 55.8714C41.1788 63.6048 51.7422 70.0514 63.1088 75.2114C64.2622 75.7381 64.6922 75.3848 64.3989 74.1514L55.8989 38.6115C55.8167 38.2648 55.8 37.9149 55.8499 37.5843C55.8999 37.2536 56.0153 36.9495 56.1888 36.6914C63.4288 26.1181 68.8888 14.6681 72.5688 2.34143C72.9222 1.1681 72.5155 0.764775 71.3488 1.13144C63.5188 3.60144 56.5188 8.19143 49.4188 12.2114C44.6788 14.9014 41.7489 17.0214 37.4489 15.3414C28.5222 11.8414 19.9055 7.67811 11.5988 2.85144C10.6921 2.32478 10.3655 2.57143 10.6188 3.59143C10.7722 4.1981 11.0055 4.84811 11.3188 5.54145C15.1522 13.9548 18.9555 22.3848 22.7288 30.8315C23.5688 32.7048 24.0322 34.3915 24.1188 35.8915C24.1286 36.0466 24.1052 36.2044 24.0503 36.3555C23.9953 36.5067 23.9098 36.6481 23.7988 36.7714C19.4588 41.6181 15.0188 46.3681 10.4788 51.0214C6.56882 55.0214 2.14885 59.6115 1.13885 64.3315C0.625521 66.6915 1.5355 67.5548 3.86883 66.9214C12.7488 64.5114 21.4889 59.8314 29.6489 55.6214C29.9109 55.4851 30.2177 55.4361 30.532 55.4805C30.8464 55.5249 31.1545 55.6607 31.4188 55.8714Z" stroke="#FEE8A1" stroke-width="2"/>
<path d="M31.4227 55.8709C31.1584 55.6602 30.8503 55.5244 30.5359 55.48C30.2216 55.4356 29.9148 55.4846 29.6528 55.6209C21.4928 59.8309 12.7527 64.511 3.87274 66.921C1.53941 67.5543 0.629427 66.691 1.14276 64.331C2.15276 59.611 6.57273 55.0209 10.4827 51.0209C15.0227 46.3676 19.4627 41.6176 23.8027 36.7709C23.9137 36.6476 23.9992 36.5062 24.0542 36.355C24.1092 36.2039 24.1325 36.0461 24.1227 35.891C24.0361 34.391 23.5727 32.7043 22.7327 30.831C18.9594 22.3843 15.1561 13.9543 11.3228 5.54096C11.0094 4.84762 10.7761 4.19761 10.6227 3.59095C10.3694 2.57095 10.6961 2.32429 11.6027 2.85095C19.9094 7.67762 28.5261 11.8409 37.4528 15.3409C41.7528 17.0209 44.6827 14.9009 49.4227 12.2109C56.5227 8.19094 63.5227 3.60095 71.3527 1.13095C72.5194 0.764287 72.9261 1.16761 72.5728 2.34095C68.8928 14.6676 63.4327 26.1176 56.1927 36.691C56.0192 36.949 55.9038 37.2531 55.8538 37.5838C55.8039 37.9144 55.8206 38.2643 55.9028 38.611L64.4028 74.1509C64.6961 75.3843 64.2661 75.7376 63.1127 75.2109C51.7461 70.0509 41.1827 63.6043 31.4227 55.8709Z" fill="#FDD043"/>
</svg>
