<svg width="37" height="33" viewBox="0 0 37 33" fill="none" xmlns="http://www.w3.org/2000/svg">
<path d="M18.5303 10.9624C15.7103 9.88242 12.2803 7.86243 9.24031 8.84243C9.10437 8.88771 8.95729 8.89395 8.81465 8.86049C8.67202 8.82703 8.53917 8.75513 8.43032 8.65243C6.23031 6.60243 1.81033 7.81242 1.82033 11.1424C1.82052 11.2976 1.85424 11.4536 1.91951 11.6013C1.98478 11.7491 2.08029 11.8855 2.20033 12.0024C8.66033 18.1324 13.5303 22.0424 16.6303 30.9324C16.6863 31.0977 16.7713 31.2457 16.8787 31.3653C16.9862 31.4849 17.1133 31.5728 17.2503 31.6224C19.1803 32.3324 21.4703 25.3224 21.9903 23.9324C22.0786 23.6975 22.2292 23.4891 22.4273 23.3277C22.6255 23.1664 22.8643 23.0577 23.1203 23.0124C27.0137 22.3124 30.767 21.1491 34.3803 19.5224C36.0937 18.7424 36.0703 17.9658 34.3103 17.1924L29.4703 15.0624C27.717 14.2891 26.647 12.9224 26.2603 10.9624C25.6803 8.01576 24.6237 5.24576 23.0903 2.65243C22.0037 0.812427 21.147 0.909095 20.5203 2.94243C19.7337 5.50243 19.3003 8.10909 19.2203 10.7624C19.2191 10.8151 19.1987 10.8635 19.1604 10.9039C19.1222 10.9443 19.0673 10.9754 19.0001 10.9949C18.933 11.0143 18.8555 11.0215 18.7739 11.0159C18.6923 11.0103 18.6089 10.9919 18.5303 10.9624Z" stroke="#8D94AE" stroke-width="2"/>
<path d="M19.2242 10.7619C19.3042 8.10861 19.7376 5.50194 20.5242 2.94194C21.1509 0.908606 22.0076 0.811939 23.0943 2.65194C24.6276 5.24527 25.6842 8.01527 26.2642 10.9619C26.6509 12.9219 27.7209 14.2886 29.4742 15.0619L34.3142 17.1919C36.0742 17.9653 36.0976 18.7419 34.3842 19.5219C30.7709 21.1486 27.0176 22.3119 23.1242 23.0119C22.8682 23.0572 22.6294 23.1659 22.4312 23.3272C22.2331 23.4886 22.0825 23.697 21.9942 23.9319C21.4742 25.3219 19.1842 32.3319 17.2542 31.6219C17.1172 31.5723 16.9901 31.4844 16.8826 31.3648C16.7752 31.2452 16.6903 31.0972 16.6342 30.9319C13.5342 22.0419 8.66424 18.1319 2.20424 12.0019C2.08419 11.885 1.98869 11.7486 1.92342 11.6009C1.85814 11.4531 1.82442 11.2971 1.82424 11.1419C1.81424 7.81194 6.23422 6.60194 8.43422 8.65194C8.54308 8.75464 8.67593 8.82655 8.81856 8.86C8.96119 8.89346 9.10828 8.88722 9.24422 8.84194C12.2842 7.86194 15.7142 9.88194 18.5342 10.9619C18.6128 10.9915 18.6962 11.0098 18.7778 11.0154C18.8595 11.021 18.9369 11.0138 19.004 10.9944C19.0712 10.9749 19.1261 10.9438 19.1643 10.9034C19.2026 10.863 19.223 10.8146 19.2242 10.7619Z" fill="#1A285D"/>
</svg>
