<svg width="53" height="145" viewBox="0 0 53 145" fill="none" xmlns="http://www.w3.org/2000/svg">
<path d="M41.4483 143.936C40.695 128.13 40.075 112.32 39.5884 96.5063C39.5284 94.5063 40.5883 92.5563 42.3883 92.0663C43.5883 91.7396 44.1883 90.953 44.1883 89.7063C44.175 80.2263 43.305 70.8197 41.5783 61.4863" stroke="#808080" stroke-width="2"/>
<path d="M41.5776 61.4873C41.5843 57.694 41.1743 53.7639 40.3477 49.6973" stroke="#CBECE7" stroke-width="2"/>
<path d="M40.3477 49.6973C39.9343 43.1439 38.7677 36.7273 36.8477 30.4473" stroke="#D0F0EA" stroke-width="2"/>
<path d="M36.8477 30.4473L37.3477 29.6973" stroke="#838284" stroke-width="2"/>
<path d="M37.3477 29.6974L39.6476 27.5273" stroke="#D0F0EA" stroke-width="2"/>
<path d="M39.6497 27.5264C43.6897 21.9064 47.2597 15.9498 50.3597 9.65644C52.4397 5.44644 51.4997 -0.673537 45.0397 1.42646C43.2664 1.9998 41.7964 3.00983 40.6297 4.45649C37.4364 8.40316 33.5364 12.1498 28.9297 15.6965" stroke="#808080" stroke-width="2"/>
<path d="M28.9306 15.6973C27.7839 16.4239 26.604 16.4939 25.3906 15.9072" stroke="#D0F0EA" stroke-width="2"/>
<path d="M25.3906 15.9069C20.5572 11.8603 15.7106 7.79032 10.8506 3.69698C8.3106 1.56365 6.02061 1.18698 3.98061 2.56698C-3.94939 7.94698 5.9206 20.1169 10.7206 26.5269C11.3706 27.3969 12.0106 27.4169 12.8906 26.9069" stroke="#808080" stroke-width="2"/>
<path d="M12.8906 26.9062L14.1006 27.6963" stroke="#D0F0EA" stroke-width="2"/>
<path d="M14.0977 27.6973L15.4276 28.9473" stroke="#838284" stroke-width="2"/>
<path d="M15.4279 28.9473C14.7279 29.8673 14.148 30.5673 14.128 31.8173C13.9946 41.6373 14.3013 51.4339 15.0479 61.2073" stroke="#CBECE7" stroke-width="2"/>
<path d="M15.0508 61.207C15.8841 71.667 16.3508 82.1503 16.4508 92.657C16.4543 92.7745 16.4996 92.8878 16.5795 92.9786C16.6594 93.0694 16.7691 93.1323 16.8908 93.157C18.6641 93.5436 20.2342 94.3171 21.6008 95.4771C21.6737 95.5399 21.7333 95.6543 21.7737 95.8088C21.8141 95.9633 21.8338 96.1524 21.8308 96.3571C21.6308 112.23 21.7775 128.097 22.2708 143.957" stroke="#808080" stroke-width="2"/>
<path d="M39.6497 27.5272L28.9297 15.6973" stroke="#51706B" stroke-width="2"/>
<path d="M44.3611 5.77652C40.8611 6.94652 36.2412 12.6565 33.5412 14.8865C33.3212 15.0741 33.1592 15.363 33.0812 15.7066L32.7912 16.9866C32.755 17.1378 32.7573 17.293 32.7978 17.4357C32.8383 17.5784 32.9155 17.7032 33.0212 17.7965L37.4612 21.6465C38.5745 22.6132 39.4445 22.5233 40.0712 21.3766L46.8611 8.93655C47.6478 7.48989 47.7745 6.30328 47.2411 5.37662C46.5745 4.22995 45.8512 4.14662 45.0712 5.12662C44.9349 5.30027 44.7991 5.45007 44.6755 5.56326C44.5518 5.67645 44.444 5.74957 44.3611 5.77652Z" stroke="#0E101B" stroke-width="2"/>
<path d="M25.3906 15.9062C21.1306 19.6163 16.4506 22.3263 12.8906 26.9062" stroke="#51706B" stroke-width="2"/>
<path d="M20.7395 15.5975C17.5995 12.6375 10.1896 4.45749 6.47957 4.98749C5.16624 5.17415 4.4662 5.92415 4.37953 7.23749C3.93953 14.0042 6.55624 19.2207 12.2296 22.8874C12.3385 22.9579 12.4727 22.989 12.614 22.9765C12.7552 22.964 12.8968 22.9085 13.0195 22.8174L20.5495 17.1374C20.6739 17.0421 20.7791 16.9238 20.8577 16.7905C20.9362 16.6572 20.9863 16.5121 21.0044 16.3655C21.0224 16.219 21.0081 16.0744 20.9624 15.9417C20.9166 15.8091 20.8406 15.6916 20.7395 15.5975Z" stroke="#0E101B" stroke-width="2"/>
<path d="M37.3477 29.6973C34.1977 30.6673 30.3677 34.7173 27.5377 36.7473C27.42 36.8306 27.2784 36.8729 27.1354 36.8674C26.9924 36.862 26.8559 36.8092 26.7476 36.7173C23.4576 33.9373 18.2477 28.3273 14.0977 27.6973" stroke="#54736F" stroke-width="2"/>
<path d="M36.8489 30.4473C34.5289 33.2139 31.8789 35.6406 28.8989 37.7273C28.8201 37.7817 28.7542 37.8529 28.7052 37.9368C28.6563 38.0207 28.6253 38.1154 28.6141 38.2153C28.6029 38.3153 28.6117 38.4184 28.64 38.5184C28.6683 38.6184 28.7156 38.7132 28.7789 38.7972C30.6722 41.3572 32.9656 43.4772 35.6589 45.1572C35.9189 45.3239 36.1489 45.5739 36.3489 45.9072L37.5689 47.9873" stroke="#54736F" stroke-width="2"/>
<path d="M37.5708 47.9873L27.5808 39.5372C27.5136 39.4777 27.4341 39.4382 27.3557 39.4254C27.2774 39.4127 27.205 39.4275 27.1509 39.4673L15.4009 48.4773C15.3942 48.484 15.3908 48.3906 15.3908 48.1973V47.9473C15.3872 47.8473 15.4305 47.7245 15.5165 47.5911C15.6025 47.4577 15.7282 47.3184 15.8808 47.1873L25.7309 38.5372C25.7782 38.4947 25.8163 38.4431 25.8431 38.3854C25.8698 38.3277 25.8846 38.2651 25.8864 38.2015C25.8883 38.138 25.8772 38.0747 25.8539 38.0155C25.8306 37.9563 25.7955 37.9025 25.7508 37.8573C22.5308 34.6173 19.0908 31.6473 15.4308 28.9473" stroke="#4F6F6C" stroke-width="2"/>
<path d="M37.5703 47.9868C38.7836 47.9335 39.7103 48.5034 40.3503 49.6968" stroke="#9CDDD2" stroke-width="2"/>
<path d="M41.5808 61.4871C32.8341 62.3671 23.9908 62.2737 15.0508 61.207" stroke="#4C6D68" stroke-width="2"/>
<path d="M33.33 143.947C32.31 143.24 32.3433 142.743 33.43 142.457C33.7023 142.385 34.0324 142.413 34.37 142.537C36.7167 143.443 37.82 142.583 37.68 139.957C37.1466 130.257 37.0233 120.553 37.31 110.847C37.46 105.707 35.36 96.2167 38.58 92.8167C38.84 92.5434 39.03 92.2534 39.15 91.9467L41.61 85.6466C41.741 85.313 41.786 84.9774 41.74 84.6767L39.03 67.1667C38.8034 65.7333 37.84 65.0001 36.14 64.9667L19.38 64.6466C19.1923 64.6436 19.0063 64.6827 18.8339 64.7613C18.6614 64.8398 18.5062 64.9562 18.3782 65.1029C18.2503 65.2497 18.1523 65.4238 18.0906 65.6138C18.0289 65.8039 18.0049 66.0058 18.02 66.2067C18.6533 74.6067 18.9133 83.02 18.8 91.4467C18.7949 91.7556 18.8959 92.0563 19.0857 92.2972C19.2755 92.538 19.5422 92.704 19.84 92.7666C23.2733 93.5 24.79 95.72 24.39 99.4267C23.74 105.547 24.5 114.567 24.64 121.447C24.7867 128.973 25.2 136.49 25.88 143.997" stroke="#0E101B" stroke-width="2"/>
<path d="M39.6497 27.5264L28.9297 15.6965C33.5364 12.1498 37.4364 8.40316 40.6297 4.45649C41.7964 3.00983 43.2664 1.9998 45.0397 1.42646C51.4997 -0.673537 52.4397 5.44644 50.3597 9.65644C47.2597 15.9498 43.6897 21.9064 39.6497 27.5264ZM44.3597 5.77644C40.8597 6.94644 36.2397 12.6564 33.5397 14.8864C33.3197 15.074 33.1577 15.3629 33.0797 15.7065L32.7897 16.9865C32.7535 17.1377 32.7558 17.2929 32.7963 17.4356C32.8369 17.5783 32.9141 17.7031 33.0197 17.7965L37.4597 21.6464C38.5731 22.6131 39.443 22.5232 40.0697 21.3765L46.8597 8.93647C47.6463 7.48981 47.773 6.3032 47.2397 5.37654C46.573 4.22987 45.8497 4.14654 45.0697 5.12654C44.9334 5.30019 44.7977 5.44999 44.674 5.56318C44.5504 5.67637 44.4425 5.74949 44.3597 5.77644Z" fill="black"/>
<path d="M25.3906 15.9069C21.1306 19.6169 16.4506 22.3269 12.8906 26.9069C12.0106 27.4169 11.3706 27.3969 10.7206 26.5269C5.9206 20.1169 -3.94939 7.94698 3.98061 2.56698C6.02061 1.18698 8.3106 1.56365 10.8506 3.69698C15.7106 7.79032 20.5572 11.8603 25.3906 15.9069ZM20.7406 15.597C17.6006 12.637 10.1906 4.45702 6.48061 4.98702C5.16727 5.17369 4.46724 5.92369 4.38057 7.23702C3.94057 14.0037 6.55727 19.2203 12.2306 22.8869C12.3396 22.9574 12.4737 22.9886 12.615 22.976C12.7563 22.9635 12.8978 22.908 13.0206 22.817L20.5506 17.1369C20.675 17.0416 20.7802 16.9233 20.8587 16.79C20.9373 16.6567 20.9873 16.5116 21.0054 16.3651C21.0235 16.2185 21.0091 16.0739 20.9634 15.9412C20.9177 15.8086 20.8416 15.6912 20.7406 15.597Z" fill="black"/>
<path d="M28.9306 15.6973L39.6506 27.5272L37.3506 29.6973C34.2006 30.6673 30.3706 34.7173 27.5406 36.7473C27.4229 36.8306 27.2814 36.8729 27.1384 36.8674C26.9953 36.862 26.8589 36.8092 26.7506 36.7173C23.4606 33.9373 18.2506 28.3273 14.1006 27.6973L12.8906 26.9072C16.4506 22.3272 21.1306 19.6172 25.3906 15.9072C26.604 16.4939 27.7839 16.4239 28.9306 15.6973Z" fill="#A1E0D5"/>
<path d="M37.3477 29.6973L36.8477 30.4473C34.5277 33.2139 31.8776 35.6406 28.8976 37.7273C28.8188 37.7817 28.7529 37.8529 28.704 37.9368C28.655 38.0207 28.6241 38.1154 28.6129 38.2153C28.6016 38.3153 28.6104 38.4184 28.6387 38.5184C28.6671 38.6184 28.7143 38.7132 28.7776 38.7972C30.671 41.3572 32.9643 43.4772 35.6577 45.1572C35.9177 45.3239 36.1477 45.5739 36.3477 45.9072L37.5676 47.9873L27.5776 39.5372C27.5104 39.4777 27.4309 39.4382 27.3525 39.4254C27.2742 39.4127 27.2018 39.4275 27.1476 39.4673L15.3976 48.4773C15.391 48.484 15.3876 48.3906 15.3876 48.1973V47.9473C15.384 47.8473 15.4273 47.7245 15.5133 47.5911C15.5993 47.4577 15.725 47.3184 15.8776 47.1873L25.7277 38.5372C25.775 38.4947 25.8131 38.4431 25.8398 38.3854C25.8666 38.3277 25.8814 38.2651 25.8832 38.2015C25.8851 38.138 25.874 38.0747 25.8507 38.0155C25.8274 37.9563 25.7923 37.9025 25.7476 37.8573C22.5276 34.6173 19.0876 31.6473 15.4276 28.9473L14.0977 27.6973C18.2477 28.3273 23.4576 33.9373 26.7476 36.7173C26.8559 36.8092 26.9924 36.862 27.1354 36.8674C27.2784 36.8729 27.42 36.8306 27.5377 36.7473C30.3677 34.7173 34.1977 30.6673 37.3477 29.6973Z" fill="#060509"/>
<path d="M15.4279 28.9473C19.0879 31.6473 22.528 34.6173 25.748 37.8573C25.7927 37.9025 25.8277 37.9563 25.851 38.0155C25.8744 38.0747 25.8854 38.138 25.8836 38.2015C25.8817 38.2651 25.8669 38.3277 25.8402 38.3854C25.8134 38.4431 25.7753 38.4947 25.728 38.5372L15.878 47.1873C15.7253 47.3184 15.5997 47.4577 15.5136 47.5911C15.4276 47.7245 15.3843 47.8473 15.388 47.9473V48.1973C15.388 48.3906 15.3913 48.484 15.398 48.4773L27.148 39.4673C27.2021 39.4275 27.2745 39.4127 27.3529 39.4254C27.4312 39.4382 27.5108 39.4777 27.578 39.5372L37.568 47.9873C38.7813 47.934 39.708 48.5039 40.348 49.6973C41.1747 53.7639 41.5846 57.694 41.578 61.4873C32.8313 62.3673 23.9879 62.2739 15.0479 61.2073C14.3013 51.4339 13.9946 41.6373 14.128 31.8173C14.148 30.5673 14.7279 29.8673 15.4279 28.9473Z" fill="#97D9CF"/>
<path d="M36.8489 30.4473C38.7689 36.7273 39.9356 43.1439 40.3489 49.6973C39.7089 48.5039 38.7822 47.934 37.5689 47.9873L36.3489 45.9072C36.1489 45.5739 35.9189 45.3239 35.6589 45.1572C32.9656 43.4772 30.6722 41.3572 28.7789 38.7972C28.7156 38.7132 28.6683 38.6184 28.64 38.5184C28.6117 38.4184 28.6029 38.3153 28.6141 38.2153C28.6253 38.1154 28.6563 38.0207 28.7052 37.9368C28.7542 37.8529 28.8201 37.7817 28.8989 37.7273C31.8789 35.6406 34.5289 33.2139 36.8489 30.4473Z" fill="#A1E0D5"/>
<path d="M15.0508 61.207C23.9908 62.2737 32.8341 62.3671 41.5808 61.4871C43.3075 70.8204 44.1775 80.227 44.1908 89.707C44.1908 90.9537 43.5908 91.7404 42.3908 92.067C40.5908 92.557 39.5308 94.5071 39.5908 96.5071C40.0775 112.32 40.6975 128.13 41.4508 143.937L33.3308 143.947C32.3108 143.24 32.3441 142.744 33.4308 142.457C33.7031 142.385 34.0332 142.413 34.3708 142.537C36.7175 143.444 37.8208 142.584 37.6808 139.957C37.1475 130.257 37.0241 120.554 37.3108 110.847C37.4608 105.707 35.3608 96.217 38.5808 92.817C38.8408 92.5437 39.0308 92.2537 39.1508 91.947L41.6108 85.647C41.7418 85.3134 41.7868 84.9778 41.7408 84.677L39.0308 67.167C38.8042 65.7337 37.8408 65.0004 36.1408 64.967L19.3808 64.647C19.1931 64.6439 19.0071 64.683 18.8347 64.7616C18.6622 64.8402 18.507 64.9565 18.379 65.1033C18.2511 65.2501 18.1531 65.4241 18.0914 65.6141C18.0298 65.8042 18.0057 66.0061 18.0208 66.207C18.6541 74.607 18.9141 83.0204 18.8008 91.447C18.7957 91.7559 18.8967 92.0566 19.0865 92.2975C19.2763 92.5384 19.543 92.7043 19.8408 92.767C23.2742 93.5003 24.7908 95.7203 24.3908 99.427C23.7408 105.547 24.5008 114.567 24.6408 121.447C24.7875 128.974 25.2008 136.49 25.8808 143.997L22.2708 143.957C21.7775 128.097 21.6308 112.23 21.8308 96.3571C21.8338 96.1524 21.8141 95.9633 21.7737 95.8088C21.7333 95.6543 21.6737 95.5399 21.6008 95.4771C20.2342 94.3171 18.6641 93.5436 16.8908 93.157C16.7691 93.1323 16.6594 93.0694 16.5795 92.9786C16.4996 92.8878 16.4543 92.7745 16.4508 92.657C16.3508 82.1503 15.8841 71.667 15.0508 61.207Z" fill="black"/>
<path d="M33.33 143.947L25.88 143.997C25.2 136.49 24.7867 128.973 24.64 121.447C24.5 114.567 23.74 105.547 24.39 99.4267C24.79 95.72 23.2733 93.5 19.84 92.7666C19.5422 92.704 19.2755 92.538 19.0857 92.2972C18.8959 92.0563 18.7949 91.7556 18.8 91.4467C18.9133 83.02 18.6533 74.6067 18.02 66.2067C18.0049 66.0058 18.0289 65.8039 18.0906 65.6138C18.1523 65.4238 18.2503 65.2497 18.3782 65.1029C18.5062 64.9562 18.6614 64.8398 18.8339 64.7613C19.0063 64.6827 19.1923 64.6436 19.38 64.6466L36.14 64.9667C37.84 65.0001 38.8034 65.7333 39.03 67.1667L41.74 84.6767C41.786 84.9774 41.741 85.313 41.61 85.6466L39.15 91.9467C39.03 92.2534 38.84 92.5434 38.58 92.8167C35.36 96.2167 37.46 105.707 37.31 110.847C37.0233 120.553 37.1467 130.257 37.68 139.957C37.82 142.583 36.7167 143.443 34.37 142.537C34.0324 142.413 33.7023 142.385 33.43 142.457C32.3433 142.743 32.31 143.24 33.33 143.947Z" fill="#1B2035"/>
<path d="M45.0712 5.12662C45.8512 4.14662 46.5745 4.22995 47.2411 5.37662C47.7745 6.30328 47.6478 7.48989 46.8611 8.93655L40.0712 21.3766C39.4445 22.5233 38.5745 22.6132 37.4612 21.6465L33.0212 17.7965C32.9155 17.7032 32.8383 17.5784 32.7978 17.4357C32.7573 17.293 32.755 17.1378 32.7912 16.9866L33.0812 15.7066C33.1592 15.363 33.3212 15.0741 33.5412 14.8865C36.2412 12.6565 40.8611 6.94652 44.3611 5.77652C44.444 5.74957 44.5518 5.67645 44.6755 5.56326C44.7991 5.45007 44.9349 5.30027 45.0712 5.12662Z" fill="#1B2035"/>
<path d="M20.7395 15.5975C20.8406 15.6916 20.9166 15.8091 20.9624 15.9417C21.0081 16.0744 21.0224 16.219 21.0044 16.3655C20.9863 16.5121 20.9362 16.6572 20.8577 16.7905C20.7791 16.9238 20.6739 17.0421 20.5495 17.1374L13.0195 22.8174C12.8968 22.9085 12.7552 22.964 12.614 22.9765C12.4727 22.989 12.3385 22.9579 12.2296 22.8874C6.55624 19.2207 3.93953 14.0042 4.37953 7.23749C4.4662 5.92415 5.16624 5.17415 6.47957 4.98749C10.1896 4.45749 17.5995 12.6375 20.7395 15.5975Z" fill="#1B2035"/>
</svg>
