<svg width="29" height="29" viewBox="0 0 29 29" fill="none" xmlns="http://www.w3.org/2000/svg">
<path d="M20.7825 8.91825C21.2625 8.60825 29.7925 2.28824 24.0325 2.71824C21.5525 2.89824 19.2292 3.62824 17.0625 4.90824" stroke="#9FA0A2" stroke-width="2"/>
<path d="M17.064 4.90893C16.6374 3.26893 15.4874 2.01893 13.6141 1.15893C13.4059 1.06265 13.1803 1.00871 12.9534 1.00097C12.7266 0.99323 12.5042 1.0319 12.3023 1.11419C12.1004 1.19648 11.9241 1.32033 11.786 1.4768C11.648 1.63327 11.5517 1.81843 11.5041 2.01894C10.9574 4.36561 9.65071 4.79562 7.58404 3.30895C7.44269 3.20979 7.26811 3.15547 7.07939 3.15194C6.89067 3.14841 6.69509 3.1958 6.51404 3.28893C2.24404 5.49893 7.24405 8.70894 8.50405 10.7289C8.53461 10.7778 8.55263 10.8333 8.55669 10.8911C8.56075 10.9489 8.55073 11.0073 8.52743 11.0616C8.50412 11.116 8.46818 11.1649 8.42245 11.2043C8.37673 11.2438 8.32249 11.2728 8.26404 11.2889C6.42404 11.8189 4.30405 11.879 2.90405 12.869C-0.255949 15.119 0.524045 19.9289 5.19404 18.8589C14.364 16.7489 6.05405 30.5089 12.134 27.2289C12.4245 27.0743 12.6721 26.7878 12.834 26.4189L16.894 17.339C16.9228 17.2751 16.9663 17.2187 17.022 17.1733C17.0777 17.1279 17.1444 17.0944 17.2182 17.0748C17.292 17.0552 17.3713 17.0499 17.4513 17.0592C17.5314 17.0685 17.6105 17.0922 17.684 17.1289C19.844 18.2189 32.364 20.1689 24.744 14.5389C22.8174 13.1189 21.4974 11.2456 20.784 8.91894" stroke="#919396" stroke-width="2"/>
<path d="M17.0636 4.90918C15.8436 6.33918 19.7936 7.68919 20.7836 8.91919" stroke="#313439" stroke-width="2"/>
<path d="M17.064 4.90893C15.844 6.33893 19.794 7.68894 20.784 8.91894C21.4974 11.2456 22.8174 13.1189 24.744 14.5389C32.364 20.1689 19.844 18.2189 17.684 17.1289C17.6105 17.0922 17.5314 17.0685 17.4513 17.0592C17.3713 17.0499 17.292 17.0552 17.2182 17.0748C17.1444 17.0944 17.0777 17.1279 17.022 17.1733C16.9663 17.2187 16.9228 17.2751 16.894 17.339L12.834 26.4189C12.6721 26.7878 12.4245 27.0743 12.134 27.2289C6.05405 30.5089 14.364 16.7489 5.19404 18.8589C0.524045 19.9289 -0.255949 15.119 2.90405 12.869C4.30405 11.879 6.42404 11.8189 8.26404 11.2889C8.32248 11.2728 8.37673 11.2438 8.42245 11.2043C8.46818 11.1649 8.50412 11.116 8.52743 11.0616C8.55073 11.0073 8.56075 10.9489 8.55669 10.8911C8.55263 10.8333 8.53461 10.7778 8.50405 10.7289C7.24405 8.70894 2.24404 5.49893 6.51404 3.28893C6.69509 3.1958 6.89067 3.14841 7.07939 3.15194C7.26811 3.15547 7.44269 3.20979 7.58404 3.30895C9.65071 4.79562 10.9574 4.36561 11.5041 2.01894C11.5517 1.81843 11.648 1.63327 11.786 1.4768C11.9241 1.32033 12.1004 1.19648 12.3023 1.11419C12.5042 1.0319 12.7266 0.99323 12.9534 1.00097C13.1803 1.00871 13.4059 1.06265 13.6141 1.15893C15.4874 2.01893 16.6374 3.26893 17.064 4.90893Z" fill="#22262C"/>
<path d="M20.7836 8.91923C19.7936 7.68923 15.8436 6.33922 17.0636 4.90922C19.2303 3.62922 21.5536 2.89922 24.0336 2.71922C29.7936 2.28922 21.2636 8.60923 20.7836 8.91923Z" fill="#3F4145"/>
</svg>
