<svg width="147" height="134" viewBox="0 0 147 134" fill="none" xmlns="http://www.w3.org/2000/svg">
<path d="M98.4779 39.6853C98.4202 39.7024 98.3592 39.7051 98.3003 39.6933C98.2414 39.6815 98.1866 39.6555 98.1409 39.6177C98.0951 39.5799 98.0599 39.5315 98.0384 39.4769C98.0169 39.4223 98.0099 39.3633 98.0179 39.3053C99.1379 29.5853 100.868 20.1753 101.028 10.3253C101.128 3.6353 97.3479 -0.0747149 90.3879 1.27529C72.5979 4.73529 57.7279 16.7353 48.7979 32.2453C39.3579 48.6453 33.0779 66.192 29.9579 84.8853C27.0579 102.275 18.2079 114.335 3.2379 123.185C1.29123 124.339 0.614567 125.655 1.2079 127.135L3.34788 132.485C3.37874 132.557 3.48541 132.612 3.64864 132.64C3.81186 132.667 4.02087 132.666 4.2379 132.635C13.2579 131.435 20.6679 123.445 26.9279 117.415C32.6979 111.845 40.7479 109.425 48.6879 107.135C83.0079 97.2153 118.608 89.8053 140.088 57.3053C142.998 52.9053 149.308 40.7953 142.178 37.5153C130.088 31.9553 110.728 35.9353 98.4779 39.6853Z" stroke="#8B8EA0" stroke-width="2"/>
<path d="M68.2578 62.6752C68.6678 67.7952 74.7578 69.1952 79.2478 68.4652C91.2278 66.4952 103.668 72.6552 113.438 62.8852C118.211 58.1119 123.581 53.8752 129.548 50.1752C130.734 49.4352 130.864 48.5419 129.938 47.4952C125.898 42.9252 112.068 56.7652 109.128 59.6252C104.778 63.8552 99.4278 63.6752 93.6378 63.3152C87.0878 62.9152 81.7178 63.3752 75.4778 63.8152C73.5044 63.9552 73.0078 63.1685 73.9878 61.4552C80.4778 50.1152 86.4378 32.7252 85.5478 19.1152C85.4145 17.0685 84.4645 16.0885 82.6978 16.1752C82.4345 16.1868 82.1849 16.2942 81.9966 16.4769C81.8084 16.6596 81.6949 16.9047 81.6778 17.1652C80.7111 31.5919 76.7778 45.0919 69.8778 57.6652C68.6978 59.8186 68.1578 61.4885 68.2578 62.6752Z" stroke="#7A849B" stroke-width="2"/>
<path d="M50.3069 81.9455C49.8469 80.6455 50.8369 78.2655 51.0369 77.2955C53.0469 67.5855 55.6269 60.3755 60.3769 50.3755C62.2569 46.4355 63.8702 42.3588 65.2168 38.1455C65.3435 37.7588 65.2302 37.6188 64.8769 37.7255L60.5268 39.0455C60.4047 39.08 60.2789 39.1569 60.158 39.2709C60.037 39.3849 59.9241 39.5332 59.8269 39.7055C52.9469 51.5922 48.2302 64.2622 45.6769 77.7155C44.3169 84.8455 48.6969 88.2955 55.6669 87.5255C64.1535 86.5988 72.3502 84.4722 80.2569 81.1455C80.4022 81.0838 80.5299 80.9897 80.6291 80.8712C80.7284 80.7528 80.7963 80.6136 80.8269 80.4655C81.6569 76.2755 78.4768 77.1355 76.0268 77.9055C68.4535 80.2922 60.4569 81.9955 52.0369 83.0155C51.6702 83.0579 51.2999 82.9753 50.986 82.7811C50.672 82.5869 50.4327 82.2925 50.3069 81.9455Z" stroke="#7A849B" stroke-width="2"/>
<path d="M98.4779 39.6853C110.728 35.9353 130.088 31.9553 142.178 37.5153C149.308 40.7953 142.998 52.9053 140.088 57.3053C118.608 89.8053 83.0079 97.2153 48.6879 107.135C40.7479 109.425 32.6979 111.845 26.9279 117.415C20.6679 123.445 13.2579 131.435 4.2379 132.635C4.02087 132.666 3.81186 132.667 3.64864 132.64C3.48541 132.612 3.37874 132.557 3.34788 132.485L1.2079 127.135C0.614567 125.655 1.29123 124.339 3.2379 123.185C18.2079 114.335 27.0579 102.275 29.9579 84.8853C33.0779 66.192 39.3579 48.6453 48.7979 32.2453C57.7279 16.7353 72.5979 4.73529 90.3879 1.27529C97.3479 -0.0747149 101.128 3.6353 101.028 10.3253C100.868 20.1753 99.1379 29.5853 98.0179 39.3053C98.0099 39.3633 98.0169 39.4223 98.0384 39.4769C98.0599 39.5315 98.0951 39.5799 98.1409 39.6177C98.1866 39.6555 98.2414 39.6815 98.3003 39.6933C98.3592 39.7051 98.4202 39.7024 98.4779 39.6853ZM68.2579 62.6753C68.6679 67.7953 74.7579 69.1953 79.2479 68.4653C91.2279 66.4953 103.668 72.6553 113.438 62.8853C118.211 58.112 123.581 53.8753 129.548 50.1753C130.735 49.4353 130.865 48.542 129.938 47.4953C125.898 42.9253 112.068 56.7653 109.128 59.6253C104.778 63.8553 99.4279 63.6753 93.6379 63.3153C87.0879 62.9153 81.7179 63.3753 75.4779 63.8153C73.5046 63.9553 73.0079 63.1686 73.9879 61.4553C80.4779 50.1153 86.4379 32.7253 85.5479 19.1153C85.4146 17.0686 84.4646 16.0886 82.6979 16.1753C82.4347 16.1869 82.185 16.2943 81.9967 16.477C81.8085 16.6597 81.695 16.9048 81.6779 17.1653C80.7112 31.592 76.7779 45.092 69.8779 57.6653C68.6979 59.8186 68.1579 61.4886 68.2579 62.6753ZM50.3079 81.9453C49.8479 80.6453 50.8379 78.2653 51.0379 77.2953C53.0479 67.5853 55.6279 60.3753 60.3779 50.3753C62.2579 46.4353 63.8712 42.3586 65.2179 38.1453C65.3445 37.7586 65.2312 37.6186 64.8779 37.7253L60.5279 39.0453C60.4058 39.0798 60.2799 39.1567 60.159 39.2707C60.0381 39.3847 59.9251 39.533 59.8279 39.7053C52.9479 51.5919 48.2312 64.262 45.6779 77.7153C44.3179 84.8453 48.6979 88.2953 55.6679 87.5253C64.1546 86.5986 72.3512 84.4719 80.2579 81.1453C80.4032 81.0836 80.5309 80.9895 80.6302 80.871C80.7295 80.7526 80.7973 80.6133 80.8279 80.4653C81.6579 76.2753 78.4779 77.1353 76.0279 77.9053C68.4545 80.292 60.4579 81.9953 52.0379 83.0153C51.6712 83.0576 51.3009 82.9751 50.987 82.7809C50.673 82.5867 50.4338 82.2923 50.3079 81.9453Z" fill="#181D42"/>
</svg>
