<svg width="83" height="188" viewBox="0 0 83 188" fill="none" xmlns="http://www.w3.org/2000/svg">
<path d="M17.5103 33.3873C15.0976 32.4773 8.81471 21.3873 6.95497 18.6373C5.94299 17.1507 4.76346 17.004 3.4164 18.1973C-2.44432 23.4173 4.02967 42.3173 5.35662 49.0673C5.84585 51.514 6.38197 53.964 6.96503 56.4173C7.36714 58.1073 8.36241 59.2573 8.65393 61.1373C10.0412 69.8673 13.0671 78.9373 15.8215 87.3473C21.3505 104.237 23.743 112.687 29.9154 124.597C34.5195 133.487 37.5353 140.467 41.104 148.607C46.7134 161.457 48.8546 171.007 46.653 184.057C46.5947 184.404 46.6485 184.735 46.8038 184.987C48.4324 187.667 50.9155 186.627 53.2879 185.957C53.6472 185.856 53.9596 185.633 54.1708 185.328C54.382 185.023 54.4785 184.655 54.4438 184.287C54.0082 179.041 54.779 173.977 56.756 169.097C59.8925 161.377 63.0356 153.654 66.1854 145.927C67.0902 143.707 67.2208 141.387 67.8039 139.357C76.2884 110.067 84.0289 78.6273 81.375 47.5473C81.0332 43.4973 79.8772 37.9973 79.6158 33.1073C79.455 30.0073 78.9826 27.3373 78.4297 24.4873C77.9337 21.954 76.6201 21.334 74.489 22.6273C74.3611 22.7056 74.2565 22.8191 74.1859 22.9561C74.1152 23.0932 74.0811 23.2489 74.0868 23.4073C74.308 28.6673 74.2879 33.7074 74.9614 39.0574C78.6105 68.2474 74.0365 100.377 65.6426 127.877C65.3075 128.971 64.8351 129.184 64.2252 128.517C64.0245 128.291 63.9101 127.971 63.9035 127.617C63.8431 123.047 65.0093 118.487 65.0998 114.257C65.2204 108.607 65.8034 102.787 65.7934 97.3773C65.78 87.3307 65.9207 77.2874 66.2156 67.2474C66.2659 65.2774 65.7331 63.0973 65.8437 60.9473C66.2156 53.6673 65.2707 46.1374 64.6876 38.8674C64.4463 35.8407 63.9974 32.864 63.3406 29.9373C61.7623 22.9373 60.9681 16.0873 55.3788 10.9173C55.2579 10.8036 55.1178 10.7157 54.9673 10.6589C54.8169 10.6021 54.6592 10.5778 54.5042 10.5874C49.116 10.9474 46.9848 32.3274 45.3462 37.3974C45.3266 37.4569 45.2941 37.5115 45.2513 37.557C45.2084 37.6025 45.1564 37.6377 45.0991 37.66C45.0418 37.6822 44.9809 37.6908 44.9209 37.6851C44.8609 37.6795 44.8036 37.6597 44.7532 37.6273C44.0629 37.1807 43.6339 36.6273 43.4664 35.9673C40.9465 26.0607 37.2336 16.6273 32.3279 7.66734C30.5386 4.38734 23.7833 -3.66266 21.1294 4.63734C19.2394 10.5473 18.1336 14.1973 18.5256 20.5773C18.7401 24.1107 18.5156 27.6207 17.8522 31.1073C17.8066 31.3523 17.777 31.5825 17.768 31.7642C17.7589 31.9459 17.7708 32.0696 17.8019 32.1174C18.0163 32.4174 18.1068 32.744 18.0733 33.0973C18.0682 33.1544 18.0482 33.2088 18.0149 33.2563C17.9816 33.3039 17.9358 33.3432 17.8812 33.3713C17.8267 33.3994 17.7649 33.4154 17.7005 33.4182C17.6361 33.421 17.571 33.4104 17.5103 33.3873Z" stroke="#88868B" stroke-width="2"/>
<path d="M27.2503 11.7175C27.0455 11.6249 26.8216 11.5814 26.5968 11.5906C26.3719 11.5997 26.1524 11.6613 25.9558 11.7702C25.7593 11.8792 25.5912 12.0325 25.4651 12.2179C25.339 12.4032 25.2584 12.6155 25.2297 12.8375C23.9229 22.7908 23.7553 32.7875 24.7271 42.8275C25.7123 53.0175 29.4216 64.5075 31.3115 75.4575C32.2498 80.9042 33.1847 85.6242 34.1163 89.6175C35.2087 94.3175 36.2474 99.0275 37.2326 103.748C40.168 117.758 43.4653 129.737 47.1145 142.667C47.1815 142.887 47.2786 142.901 47.4059 142.707C50.5826 137.887 49.5271 134.267 50.08 129.697C50.8942 122.937 50.653 117.537 50.5927 111.407C50.5424 105.977 49.507 100.497 49.2758 94.9775C49.1552 92.1775 48.3207 89.4575 48.0594 86.5875C47.3858 79.3875 45.134 72.6175 44.5409 65.2875C44.4303 63.9875 43.0933 62.0675 42.8018 60.2275C41.4447 51.7875 39.6554 47.8475 38.067 40.8775C36.3246 33.2375 33.3757 24.6641 29.2206 15.1575C28.6677 13.9075 29.1201 12.5675 27.2503 11.7175Z" stroke="#88868B" stroke-width="2"/>
<path d="M54.1801 23.2777C51.0236 32.3177 50.4808 42.1277 48.9931 51.5477C48.8054 52.7477 48.8858 54.1077 49.2343 55.6277C49.9078 58.5577 49.6263 61.5777 50.2194 64.3477C54.4114 83.7977 54.9442 102.848 54.3209 122.538C54.2606 124.518 53.4966 126.618 53.5971 128.798C53.9791 136.728 52.612 145.888 52.029 156.108C51.9151 158.041 52.106 159.731 52.6019 161.178C52.7159 161.504 52.8432 161.511 52.9839 161.198C56.7637 152.784 58.925 144.254 59.4679 135.608C60.5737 117.718 61.0964 108.898 60.6038 89.1077C60.5837 88.0977 61.4383 87.0477 61.4584 85.8277C61.7399 63.5677 60.8652 43.5877 55.8791 23.3577C55.4033 21.4377 54.8369 21.4111 54.1801 23.2777Z" stroke="#88868B" stroke-width="2"/>
<path d="M7.36406 30.5073C8.29561 36.4873 9.57236 42.2706 11.1942 47.8573C11.7169 49.6473 11.566 51.9073 12.2195 53.9273C13.0304 56.4073 13.4761 57.8606 13.5566 58.2873C15.0779 65.9406 16.9611 73.5006 19.2062 80.9673C20.5633 85.4673 22.5034 90.2973 23.8606 96.0973C26.481 107.304 31.0449 118.664 37.5523 130.177C37.9678 130.924 38.4972 131.421 39.1406 131.667C39.4757 131.794 39.5929 131.677 39.4924 131.317C32.2143 106.517 27.7509 83.0873 22.3023 58.8873C21.7394 56.3773 22.041 54.1473 20.8548 51.7373C17.2023 44.3106 13.1142 37.0806 8.59046 30.0473C7.45115 28.2806 7.04238 28.434 7.36406 30.5073Z" stroke="#88868B" stroke-width="2"/>
<path d="M18.0733 33.0973C18.1068 32.744 18.0163 32.4174 17.8019 32.1174C17.7708 32.0696 17.7589 31.9459 17.768 31.7642C17.777 31.5825 17.8066 31.3523 17.8522 31.1073C18.5156 27.6207 18.7401 24.1107 18.5256 20.5773C18.1336 14.1973 19.2394 10.5473 21.1294 4.63734C23.7833 -3.66266 30.5386 4.38734 32.3279 7.66734C37.2336 16.6273 40.9465 26.0607 43.4664 35.9673C43.6339 36.6273 44.0629 37.1807 44.7532 37.6273C44.8036 37.6597 44.8609 37.6795 44.9209 37.6851C44.9809 37.6908 45.0418 37.6822 45.0991 37.66C45.1564 37.6377 45.2084 37.6025 45.2513 37.557C45.2941 37.5115 45.3266 37.4569 45.3462 37.3974C46.9848 32.3274 49.116 10.9474 54.5042 10.5874C54.6592 10.5778 54.8169 10.6021 54.9673 10.6589C55.1178 10.7157 55.2579 10.8036 55.3788 10.9173C60.9681 16.0873 61.7623 22.9373 63.3406 29.9373C63.9974 32.864 64.4463 35.8407 64.6876 38.8674C65.2707 46.1374 66.2156 53.6673 65.8437 60.9473C65.7331 63.0973 66.2659 65.2774 66.2156 67.2474C65.9207 77.2874 65.78 87.3307 65.7934 97.3773C65.8034 102.787 65.2204 108.607 65.0998 114.257C65.0093 118.487 63.8431 123.047 63.9035 127.617C63.9101 127.971 64.0245 128.291 64.2252 128.517C64.8351 129.184 65.3075 128.971 65.6426 127.877C74.0365 100.377 78.6105 68.2474 74.9614 39.0574C74.2879 33.7074 74.308 28.6673 74.0868 23.4073C74.0811 23.2489 74.1152 23.0932 74.1859 22.9561C74.2565 22.8191 74.3611 22.7056 74.489 22.6273C76.6201 21.334 77.9337 21.954 78.4297 24.4873C78.9826 27.3373 79.455 30.0073 79.6158 33.1073C79.8772 37.9973 81.0332 43.4973 81.375 47.5473C84.0289 78.6273 76.2884 110.067 67.8039 139.357C67.2208 141.387 67.0902 143.707 66.1854 145.927C63.0356 153.654 59.8925 161.377 56.756 169.097C54.779 173.977 54.0082 179.041 54.4438 184.287C54.4785 184.655 54.382 185.023 54.1708 185.328C53.9596 185.633 53.6472 185.856 53.2879 185.957C50.9155 186.627 48.4324 187.667 46.8038 184.987C46.6485 184.735 46.5947 184.404 46.653 184.057C48.8546 171.007 46.7134 161.457 41.104 148.607C37.5353 140.467 34.5195 133.487 29.9154 124.597C23.743 112.687 21.3505 104.237 15.8215 87.3473C13.0671 78.9373 10.0412 69.8673 8.65393 61.1373C8.36241 59.2573 7.36714 58.1073 6.96503 56.4173C6.38197 53.964 5.84585 51.514 5.35662 49.0673C4.02967 42.3173 -2.44432 23.4173 3.4164 18.1973C4.76346 17.004 5.94299 17.1507 6.95497 18.6373C8.81471 21.3873 15.0976 32.4773 17.5103 33.3873C17.571 33.4104 17.6361 33.421 17.7005 33.4182C17.7649 33.4154 17.8267 33.3994 17.8812 33.3713C17.9358 33.3432 17.9816 33.3039 18.0149 33.2563C18.0482 33.2088 18.0682 33.1544 18.0733 33.0973ZM27.2514 11.7173C27.0465 11.6247 26.8227 11.5812 26.5978 11.5904C26.373 11.5996 26.1535 11.6611 25.9569 11.7701C25.7603 11.879 25.5923 12.0324 25.4662 12.2177C25.34 12.4031 25.2594 12.6153 25.2308 12.8374C23.924 22.7907 23.7564 32.7873 24.7282 42.8273C25.7133 53.0173 29.4227 64.5074 31.3126 75.4574C32.2509 80.904 33.1858 85.624 34.1173 89.6174C35.2097 94.3174 36.2485 99.0274 37.2337 103.747C40.169 117.757 43.4664 129.737 47.1155 142.667C47.1825 142.887 47.2796 142.901 47.407 142.707C50.5836 137.887 49.5281 134.267 50.081 129.697C50.8953 122.937 50.654 117.537 50.5937 111.407C50.5434 105.977 49.5081 100.497 49.2769 94.9773C49.1562 92.1773 48.3218 89.4574 48.0604 86.5874C47.3869 79.3874 45.1351 72.6173 44.542 65.2873C44.4314 63.9873 43.0944 62.0673 42.8029 60.2273C41.4458 51.7873 39.6564 47.8473 38.0681 40.8773C36.3256 33.2373 33.3768 24.664 29.2217 15.1573C28.6688 13.9073 29.1212 12.5673 27.2514 11.7173ZM54.1825 23.2774C51.0259 32.3174 50.4832 42.1273 48.9954 51.5473C48.8077 52.7473 48.8881 54.1073 49.2366 55.6273C49.9102 58.5573 49.6287 61.5773 50.2218 64.3473C54.4137 83.7973 54.9465 102.847 54.3232 122.537C54.2629 124.517 53.4989 126.617 53.5995 128.797C53.9815 136.727 52.6144 145.887 52.0313 156.107C51.9174 158.041 52.1083 159.731 52.6043 161.177C52.7182 161.504 52.8455 161.511 52.9863 161.197C56.7661 152.784 58.9273 144.254 59.4702 135.607C60.576 117.717 61.0987 108.897 60.6062 89.1073C60.586 88.0973 61.4406 87.0473 61.4607 85.8273C61.7422 63.5673 60.8676 43.5873 55.8814 23.3573C55.4056 21.4373 54.8392 21.4107 54.1825 23.2774ZM7.36716 30.5073C8.29871 36.4873 9.57546 42.2707 11.1973 47.8573C11.72 49.6473 11.5691 51.9073 12.2226 53.9273C13.0335 56.4073 13.4792 57.8607 13.5596 58.2873C15.081 65.9407 16.9642 73.5007 19.2093 80.9673C20.5664 85.4673 22.5065 90.2973 23.8637 96.0973C26.4841 107.304 31.048 118.664 37.5554 130.177C37.9709 130.924 38.5003 131.421 39.1437 131.667C39.4788 131.794 39.596 131.677 39.4955 131.317C32.2174 106.517 27.754 83.0873 22.3054 58.8873C21.7425 56.3773 22.0441 54.1473 20.8579 51.7373C17.2054 44.3107 13.1173 37.0807 8.59356 30.0473C7.45425 28.2807 7.04547 28.434 7.36716 30.5073Z" fill="#121426"/>
<path d="M27.6675 11.7175C29.5275 12.5675 29.0774 13.9075 29.6274 15.1575C33.7607 24.6641 36.6941 33.2375 38.4275 40.8775C40.0075 47.8475 41.7874 51.7875 43.1374 60.2275C43.4274 62.0675 44.7574 63.9875 44.8674 65.2875C45.4574 72.6175 47.6974 79.3875 48.3674 86.5875C48.6274 89.4575 49.4575 92.1775 49.5775 94.9775C49.8075 100.497 50.8374 105.977 50.8874 111.407C50.9474 117.537 51.1874 122.937 50.3774 129.697C49.8274 134.267 50.8774 137.887 47.7174 142.707C47.5907 142.901 47.4941 142.887 47.4275 142.667C43.7975 129.737 40.5174 117.758 37.5974 103.748C36.6174 99.0275 35.5841 94.3175 34.4974 89.6175C33.5707 85.6242 32.6407 80.9042 31.7074 75.4575C29.8274 64.5075 26.1374 53.0175 25.1574 42.8275C24.1908 32.7875 24.3574 22.7908 25.6574 12.8375C25.6859 12.6155 25.7661 12.4032 25.8916 12.2179C26.017 12.0325 26.1842 11.8792 26.3797 11.7702C26.5753 11.6613 26.7937 11.5997 27.0173 11.5906C27.241 11.5814 27.4637 11.6249 27.6675 11.7175Z" fill="#FEF8F0"/>
<path d="M54.4571 23.2777C55.1105 21.4111 55.6739 21.4377 56.1472 23.3577C61.1072 43.5877 61.9772 63.5677 61.6972 85.8277C61.6772 87.0477 60.8271 88.0977 60.8471 89.1077C61.3371 108.898 60.8171 117.718 59.7171 135.608C59.1771 144.254 57.0272 152.784 53.2672 161.198C53.1272 161.511 53.0005 161.504 52.8872 161.178C52.3939 159.731 52.2039 158.041 52.3172 156.108C52.8972 145.888 54.2572 136.728 53.8772 128.798C53.7772 126.618 54.5371 124.518 54.5971 122.538C55.2171 102.848 54.6872 83.7977 50.5172 64.3477C49.9272 61.5777 50.2072 58.5577 49.5372 55.6277C49.1905 54.1077 49.1106 52.7477 49.2972 51.5477C50.7772 42.1277 51.3171 32.3177 54.4571 23.2777Z" fill="#FEF8F0"/>
<path d="M7.88694 30.5073C7.56694 28.434 7.97358 28.2806 9.10691 30.0473C13.6069 37.0806 17.6737 44.3106 21.307 51.7373C22.487 54.1473 22.1869 56.3773 22.7469 58.8873C28.1669 83.0873 32.6069 106.517 39.8469 131.317C39.9469 131.677 39.8303 131.794 39.4969 131.667C38.8569 131.421 38.3303 130.924 37.917 130.177C31.4436 118.664 26.9036 107.304 24.297 96.0973C22.947 90.2973 21.017 85.4673 19.667 80.9673C17.4336 73.5006 15.5603 65.9406 14.047 58.2873C13.967 57.8606 13.5236 56.4073 12.7169 53.9273C12.0669 51.9073 12.217 49.6473 11.697 47.8573C10.0837 42.2706 8.81361 36.4873 7.88694 30.5073Z" fill="#FEF8F0"/>
</svg>
