<svg width="44" height="31" viewBox="0 0 44 31" fill="none" xmlns="http://www.w3.org/2000/svg">
<path d="M18.0839 16.8677C19.4839 17.3811 19.6005 18.1011 18.4339 19.0277C14.4472 22.1877 10.3705 25.0577 6.20387 27.6377C5.16387 28.2777 4.97052 28.9777 5.62385 29.7377C5.71538 29.8458 5.84254 29.9212 5.98768 29.9534C6.13283 29.9857 6.28876 29.9732 6.43385 29.9177C12.3139 27.6777 16.3939 24.3977 21.5139 21.6877C21.6335 21.6224 21.7678 21.5913 21.9048 21.5973C22.0418 21.6034 22.1774 21.6462 22.2998 21.7222C22.4222 21.7982 22.5276 21.905 22.6068 22.0332C22.6859 22.1615 22.7364 22.3072 22.7539 22.4577L23.3439 27.9477C23.3623 28.12 23.4231 28.285 23.5208 28.4281C23.6185 28.5712 23.7501 28.6879 23.9039 28.7677C26.1539 29.9077 28.3539 23.4177 28.9439 21.8777C28.9875 21.7673 29.057 21.6692 29.1467 21.5911C29.2365 21.513 29.3439 21.4571 29.4606 21.4279C29.5772 21.3988 29.6998 21.3971 29.8184 21.4231C29.9371 21.4492 30.0485 21.5021 30.1439 21.5777L38.0839 27.8977C39.2905 28.8511 39.8572 28.5311 39.7839 26.9377C39.6539 23.7877 32.9939 19.1777 30.5439 17.1677C29.5639 16.3677 29.6905 15.7411 30.9238 15.2877C34.3438 14.0211 37.8839 13.2177 41.5439 12.8777C41.7134 12.8622 41.8758 12.8141 42.0205 12.7365C42.1652 12.659 42.289 12.5538 42.3839 12.4277C45.4939 8.26773 32.7738 9.92773 31.6138 10.0377C29.7938 10.2177 29.1639 9.4344 29.7239 7.68773C30.1039 6.53773 33.7839 1.39772 30.7939 1.00772C30.6287 0.986715 30.4603 1.00874 30.3046 1.07172C30.1489 1.13469 30.0111 1.23656 29.9039 1.36772L23.7239 8.92773C22.9039 9.94107 22.0172 10.1277 21.0639 9.48773C17.7839 7.30773 14.2939 4.86105 10.5939 2.14772C9.74389 1.52772 8.06386 0.747731 7.94386 2.51773C7.9281 2.70846 7.94684 2.89359 7.99873 3.05965C8.05063 3.22571 8.13436 3.36852 8.24385 3.47772L15.8638 11.3677C16.4505 11.9811 16.3572 12.3744 15.5839 12.5477C11.4905 13.4677 7.32388 14.3177 3.08388 15.0977C0.133876 15.6477 0.403854 17.8777 3.37385 17.7777C6.80385 17.6577 15.3539 15.8677 18.0839 16.8677Z" stroke="#F9A9A2" stroke-width="2"/>
<path d="M18.08 16.8677C15.35 15.8677 6.79995 17.6577 3.36995 17.7777C0.399948 17.8777 0.12997 15.6477 3.07997 15.0977C7.31997 14.3177 11.4866 13.4677 15.58 12.5477C16.3533 12.3744 16.4466 11.9811 15.8599 11.3677L8.23994 3.47772C8.13045 3.36852 8.04672 3.22571 7.99483 3.05965C7.94293 2.89359 7.92419 2.70846 7.93995 2.51773C8.05995 0.747731 9.73998 1.52772 10.59 2.14772C14.29 4.86105 17.7799 7.30773 21.0599 9.48773C22.0133 10.1277 22.9 9.94107 23.72 8.92773L29.9 1.36772C30.0071 1.23656 30.145 1.13469 30.3007 1.07172C30.4564 1.00874 30.6248 0.986715 30.79 1.00772C33.78 1.39772 30.1 6.53773 29.72 7.68773C29.16 9.4344 29.7899 10.2177 31.6099 10.0377C32.7699 9.92774 45.49 8.26773 42.38 12.4277C42.2851 12.5538 42.1613 12.659 42.0166 12.7365C41.8719 12.8141 41.7095 12.8622 41.54 12.8777C37.88 13.2177 34.3399 14.0211 30.9199 15.2877C29.6866 15.7411 29.56 16.3677 30.54 17.1677C32.99 19.1777 39.65 23.7877 39.78 26.9377C39.8533 28.5311 39.2866 28.8511 38.08 27.8977L30.14 21.5777C30.0446 21.5021 29.9332 21.4492 29.8145 21.4231C29.6959 21.3971 29.5733 21.3988 29.4567 21.4279C29.34 21.4571 29.2326 21.513 29.1428 21.5911C29.0531 21.6692 28.9836 21.7673 28.94 21.8777C28.35 23.4177 26.15 29.9077 23.9 28.7677C23.7462 28.6879 23.6146 28.5712 23.5169 28.4281C23.4192 28.285 23.3584 28.12 23.34 27.9477L22.75 22.4577C22.7325 22.3072 22.682 22.1615 22.6029 22.0332C22.5237 21.905 22.4183 21.7982 22.2959 21.7222C22.1735 21.6462 22.0379 21.6033 21.9009 21.5973C21.7639 21.5913 21.6296 21.6224 21.51 21.6877C16.39 24.3977 12.3099 27.6777 6.42994 29.9177C6.28485 29.9732 6.12892 29.9857 5.98378 29.9534C5.83863 29.9212 5.71148 29.8458 5.61995 29.7377C4.96661 28.9777 5.15996 28.2777 6.19996 27.6377C10.3666 25.0577 14.4433 22.1877 18.4299 19.0277C19.5966 18.1011 19.48 17.3811 18.08 16.8677Z" fill="#F45447"/>
</svg>
