<svg width="54" height="29" viewBox="0 0 54 29" fill="none" xmlns="http://www.w3.org/2000/svg">
<path d="M21.1814 6.47323L15.9814 18.6332C15.228 20.3799 15.7413 21.5465 17.5213 22.1332C22.1313 23.6532 43.0113 29.7932 46.1513 26.2632C48.3113 23.8432 50.3081 20.2066 52.1414 15.3532C52.1981 15.2067 52.2072 15.0482 52.167 14.9056C52.1267 14.763 52.0398 14.6453 51.9214 14.5732C50.8214 13.9132 49.9013 14.5932 49.3413 15.6532C47.3013 19.5232 45.4414 25.8232 39.8614 24.6732C33.1414 23.2932 26.7614 22.3432 20.6814 20.3932C19.228 19.9265 18.7613 18.9299 19.2813 17.4032C20.808 12.9366 22.7047 8.64656 24.9713 4.53323C26.378 1.97989 25.708 1.21986 22.9613 2.2532C15.548 5.0532 8.4147 8.42324 1.56137 12.3632C1.44878 12.4254 1.34462 12.5285 1.25644 12.6651C1.16825 12.8017 1.09822 12.9684 1.05136 13.1532C0.898025 13.7932 1.08803 14.1899 1.62137 14.3432C1.86019 14.4075 2.16643 14.3683 2.48135 14.2332C8.12135 11.7832 14.9414 7.4132 20.7414 6.0732C21.1947 5.96654 21.3414 6.09989 21.1814 6.47323Z" stroke="#A6B5C4" stroke-width="2"/>
<path d="M20.7414 6.07272C14.9414 7.41272 8.12135 11.7827 2.48135 14.2327C2.16643 14.3678 1.86019 14.407 1.62137 14.3427C1.08803 14.1894 0.898025 13.7927 1.05136 13.1527C1.09822 12.9679 1.16825 12.8012 1.25644 12.6646C1.34462 12.528 1.44878 12.4249 1.56137 12.3628C8.4147 8.42275 15.548 5.05271 22.9613 2.25271C25.708 1.21937 26.378 1.9794 24.9713 4.53274C22.7047 8.64607 20.808 12.9361 19.2813 17.4027C18.7613 18.9294 19.228 19.9261 20.6814 20.3927C26.7614 22.3427 33.1414 23.2928 39.8614 24.6728C45.4414 25.8228 47.3013 19.5227 49.3413 15.6527C49.9013 14.5927 50.8214 13.9127 51.9214 14.5727C52.0398 14.6448 52.1267 14.7625 52.167 14.9051C52.2072 15.0477 52.1981 15.2062 52.1414 15.3527C50.3081 20.2061 48.3113 23.8427 46.1513 26.2627C43.0113 29.7927 22.1313 23.6527 17.5213 22.1327C15.7413 21.546 15.228 20.3794 15.9814 18.6327L21.1814 6.47274C21.3414 6.09941 21.1947 5.96605 20.7414 6.07272Z" fill="#4E6E9A"/>
</svg>
