<svg width="126" height="147" viewBox="0 0 126 147" fill="none" xmlns="http://www.w3.org/2000/svg">
<path d="M104.816 5.49927C103.089 5.17927 102.209 5.83925 102.176 7.47925" stroke="#5B6D7A" stroke-width="2"/>
<path d="M102.177 7.47949C93.6705 11.8128 87.8605 15.1395 84.7471 17.4595C79.2538 21.5595 73.6538 25.5062 67.9472 29.2995C67.8363 29.3733 67.7446 29.4801 67.6802 29.6108C67.6157 29.7416 67.5803 29.8922 67.5772 30.0495V30.5495C67.5776 30.6604 67.531 30.78 67.4426 30.8949C67.3543 31.0098 67.2277 31.1153 67.0772 31.1995C64.9572 32.4195 63.0472 34.0095 60.8572 34.9595C58.0972 36.1595 55.3472 37.3795 52.6072 38.6195C46.9872 41.1495 41.8871 44.7995 36.4971 48.0095C36.2905 48.1295 35.9771 48.2062 35.5571 48.2395C34.9971 48.2795 34.3172 48.5295 33.5172 48.9895C24.6172 54.1595 15.5871 58.2395 11.8771 65.8595C9.44715 70.8395 6.06715 73.3895 4.84715 79.1395C3.90715 83.5595 4.72715 89.7195 5.06715 94.7395C5.06985 94.7791 5.0653 94.8188 5.05382 94.8561C5.04233 94.8934 5.02417 94.9273 5.00053 94.9557C4.97689 94.9841 4.94831 95.0062 4.9167 95.0206C4.88509 95.0351 4.85115 95.0415 4.81715 95.0395L4.54716 95.0295C4.48475 95.024 4.4102 95.0885 4.33809 95.2106C4.26597 95.3326 4.20146 95.5034 4.15715 95.6895C2.51048 102.716 1.48383 107.493 1.07716 110.019C0.743828 112.039 1.49048 113.143 3.31715 113.329" stroke="#9FC9C9" stroke-width="2"/>
<path d="M3.31621 113.329C3.22288 116.702 4.88955 118.036 8.31621 117.329" stroke="#597279" stroke-width="2"/>
<path d="M8.31641 117.329C9.34974 117.589 10.3897 117.466 11.4364 116.959C11.5321 116.913 11.6498 116.909 11.7722 116.947C11.8946 116.985 12.0152 117.063 12.1164 117.169L12.9264 118.029C13.2597 118.389 13.4464 118.639 13.4864 118.779C15.4764 125.419 20.7064 131.439 25.4664 136.109C29.3764 139.949 28.6164 143.629 35.1264 145.369C35.1776 145.38 35.2705 145.352 35.3923 145.289C35.5141 145.226 35.6588 145.132 35.8064 145.019C36.1597 144.752 36.5831 144.672 37.0764 144.779C37.5831 144.892 37.9364 144.936 38.1364 144.909C41.8864 144.439 44.6164 144.149 46.7564 141.389C46.8512 141.269 46.9138 141.127 46.9383 140.975C46.9628 140.822 46.9483 140.666 46.8964 140.519L46.5664 139.579" stroke="#9FC9C9" stroke-width="2"/>
<path d="M46.5664 139.579L47.8164 139.079" stroke="#7DA2A8" stroke-width="2"/>
<path d="M47.8164 139.079C53.6164 141.899 58.4164 136.369 63.4664 134.629C66.4464 133.609 76.1364 129.699 78.7864 130.559C79.0664 130.652 79.0764 130.736 78.8164 130.809L73.0664 132.549C72.3264 132.769 72.3198 132.859 73.0464 132.819L91.0464 131.849" stroke="#9FC9C9" stroke-width="2"/>
<path d="M91.0469 131.849C92.5169 136.149 96.4069 135.459 100.067 135.579" stroke="#5B6D7A" stroke-width="2"/>
<path d="M100.066 135.579C100.22 137.553 101.373 138.349 103.526 137.969C114.186 136.099 119.306 129.369 123.276 119.989C123.33 119.869 123.363 119.753 123.376 119.639C123.656 117.639 123.796 117.589 123.796 119.489C123.796 119.636 123.826 119.636 123.886 119.489C128.476 107.719 116.996 102.819 113.916 93.2992C111.986 87.3292 113.306 77.3992 114.486 71.1992C115.696 64.7992 116.616 52.2392 113.886 46.3092C110.706 39.4193 108.916 31.3992 113.666 24.6592C118.136 18.3092 121.496 13.1093 118.416 5.93925C116.586 1.66925 111.356 0.819221 107.316 1.02922C106.183 1.08922 105.63 1.99258 105.656 3.73924C105.67 4.43258 105.39 5.01925 104.816 5.49925" stroke="#9FC9C9" stroke-width="2"/>
<path d="M100.067 135.579C106.997 135.539 102.407 125.029 93.8568 127.169C91.6834 127.716 90.7468 129.276 91.0468 131.849" stroke="#566B78" stroke-width="2"/>
<path d="M47.8164 139.08C49.1764 138.306 49.3297 137.293 48.2764 136.04" stroke="#77A0A6" stroke-width="2"/>
<path d="M48.2777 136.039C47.4977 130.349 40.0877 131.179 36.3777 132.829C34.8644 133.496 34.5277 134.556 35.3677 136.009C36.281 137.602 37.6811 138.542 39.5677 138.829" stroke="#526B72" stroke-width="2"/>
<path d="M39.5664 138.829C41.6164 141.619 43.8664 140.089 46.5664 139.579" stroke="#77A0A6" stroke-width="2"/>
<path d="M8.31641 117.329C11.3164 116.616 12.5431 115.196 11.9964 113.069C11.6697 111.789 10.8464 111.146 9.5264 111.139C6.03973 111.113 3.96974 111.843 3.31641 113.329" stroke="#546F77" stroke-width="2"/>
<path d="M102.176 7.47949C102.609 7.79949 102.946 8.32618 103.186 9.05951C103.269 9.32903 103.233 9.6582 103.086 9.97949C102.366 11.4862 102.859 12.3262 104.566 12.4995" stroke="#566B78" stroke-width="2"/>
<path d="M104.566 12.4995C106.846 13.5728 108.843 13.9995 110.556 13.7795C114.016 13.3395 115.016 11.7462 113.556 8.99951" stroke="#658690" stroke-width="2"/>
<path d="M113.556 8.99941C113.756 7.85275 113.596 6.92605 113.076 6.21939C112.903 5.98875 112.609 5.8237 112.256 5.75936C109.79 5.3127 107.31 5.22608 104.816 5.49941" stroke="#566B78" stroke-width="2"/>
<path d="M48.2764 136.04C45.5097 137.406 42.6064 138.336 39.5664 138.83" stroke="#304552" stroke-width="2"/>
<path d="M113.556 8.99951L112.316 10.2495" stroke="#222A42" stroke-width="2"/>
<path d="M112.317 10.2495L105.707 11.0195" stroke="#3D5062" stroke-width="2"/>
<path d="M105.706 11.019L104.566 12.4991" stroke="#222A42" stroke-width="2"/>
<path d="M105.707 11.0195C107.734 11.8395 109.824 12.1928 111.977 12.0795C112.317 12.06 112.624 11.9278 112.837 11.7095C113.57 10.9761 113.397 10.4895 112.317 10.2495" stroke="#4D6B7A" stroke-width="2"/>
<path d="M90.1055 38.0396C93.1588 39.8329 96.3155 40.0529 99.5755 38.6995C99.6532 38.6638 99.7553 38.5765 99.8724 38.4454C99.9895 38.3144 100.118 38.1438 100.245 37.9495C100.692 37.2695 100.562 36.7029 99.8555 36.2496C99.7327 36.1706 99.6266 36.0632 99.544 35.9341C99.4614 35.8051 99.404 35.6571 99.3755 35.4996L99.1055 34.0396" stroke="#77A0A6" stroke-width="2"/>
<path d="M99.1083 34.0393C98.5783 30.3693 91.7482 30.2792 89.1182 30.6492C87.4382 30.8826 86.5716 31.8459 86.5183 33.5393C86.4516 35.7593 87.6483 37.2593 90.1083 38.0393" stroke="#566B78" stroke-width="2"/>
<path d="M99.1055 34.0396C98.9255 38.6096 93.3955 38.5796 90.1055 38.0396" stroke="#344457" stroke-width="2"/>
<path d="M60.8794 49.1601C60.8961 48.4761 60.6404 47.8134 60.1685 47.3179C59.6966 46.8224 59.0473 46.5346 58.3632 46.5179L53.6646 46.4031C52.9806 46.3864 52.3179 46.6421 51.8224 47.1139C51.3268 47.5858 51.0391 48.2352 51.0223 48.9192L50.9734 50.9187C50.9567 51.6027 51.2124 52.2654 51.6843 52.7609C52.1562 53.2564 52.8056 53.5442 53.4896 53.5609L58.1882 53.6757C58.8723 53.6924 59.5349 53.4367 60.0305 52.9649C60.526 52.493 60.8138 51.8436 60.8305 51.1596L60.8794 49.1601Z" stroke="#526B72" stroke-width="2"/>
<path d="M75.5664 59.5795C77.3731 60.0595 79.5697 60.0162 82.1564 59.4495C82.3586 59.4036 82.5327 59.2708 82.6412 59.08C82.7497 58.8892 82.7839 58.6556 82.7364 58.4296L82.2764 56.2896" stroke="#658690" stroke-width="2"/>
<path d="M82.2777 56.2891L81.7377 53.1991C81.7096 53.0372 81.627 52.8904 81.5045 52.7844C81.382 52.6783 81.2274 52.6199 81.0677 52.6191L72.9977 52.5791C72.8869 52.5797 72.772 52.6435 72.672 52.7599C72.5719 52.8763 72.4928 53.0383 72.4477 53.2191C71.6877 56.2591 72.7277 58.3791 75.5677 59.5791" stroke="#516573" stroke-width="2"/>
<path d="M82.2764 56.2896L75.5664 59.5795" stroke="#1D253D" stroke-width="2"/>
<path d="M30.8034 64.7976C30.817 64.3894 30.6993 63.9808 30.4572 63.5952C30.215 63.2097 29.8531 62.8547 29.3922 62.5504C28.9312 62.2462 28.3802 61.9987 27.7706 61.8221C27.161 61.6455 26.5047 61.5432 25.8393 61.5211C24.4954 61.4766 23.1957 61.7613 22.2261 62.3127C21.2564 62.8641 20.6964 63.637 20.669 64.4613C20.6555 64.8695 20.7731 65.2781 21.0153 65.6637C21.2574 66.0492 21.6193 66.4042 22.0802 66.7085C22.5412 67.0127 23.0922 67.2602 23.7018 67.4368C24.3114 67.6134 24.9677 67.7157 25.6331 67.7378C26.977 67.7823 28.2767 67.4976 29.2463 66.9462C30.216 66.3948 30.7761 65.6219 30.8034 64.7976Z" stroke="#5C727A" stroke-width="2"/>
<path d="M91.8365 63.8594C90.8265 68.8394 94.7165 72.3794 99.5665 70.6094C99.8505 70.5065 100.095 70.2975 100.257 70.0194L102.107 66.8094C102.673 65.8294 102.417 64.9128 101.337 64.0594C98.5432 61.8594 95.5399 61.4961 92.3265 62.9694C92.2232 63.0189 92.1233 63.1276 92.0371 63.2841C91.9509 63.4406 91.8816 63.6393 91.8365 63.8594Z" stroke="#56717D" stroke-width="2"/>
<path d="M73.9249 78.6458C74.2159 77.461 73.9518 76.1913 73.1905 75.116C72.4292 74.0407 71.2332 73.2479 69.8656 72.9119C69.1884 72.7456 68.4894 72.6964 67.8086 72.7673C67.1279 72.8381 66.4786 73.0275 65.8978 73.3247C65.3171 73.6219 64.8163 74.0211 64.424 74.4994C64.0317 74.9777 63.7557 75.5259 63.6116 76.1125C63.3206 77.2973 63.5847 78.567 64.346 79.6423C65.1073 80.7176 66.3033 81.5104 67.6709 81.8463C68.3481 82.0126 69.0471 82.0618 69.7279 81.991C70.4086 81.9201 71.058 81.7307 71.6387 81.4335C72.2194 81.1363 72.7202 80.7372 73.1125 80.2588C73.5048 79.7805 73.7809 79.2324 73.9249 78.6458Z" stroke="#546F77" stroke-width="2"/>
<path d="M45.8444 78.6498C45.8762 78.1834 45.7748 77.7125 45.546 77.2639C45.3172 76.8154 44.9654 76.398 44.5107 76.0357C44.0561 75.6733 43.5075 75.3731 42.8963 75.1521C42.285 74.9311 41.6232 74.7937 40.9484 74.7477C40.2737 74.7017 39.5993 74.748 38.9637 74.884C38.3282 75.02 37.7439 75.243 37.2443 75.5403C36.7447 75.8376 36.3396 76.2033 36.052 76.6167C35.7644 77.03 35.6 77.4828 35.5682 77.9492C35.5364 78.4157 35.6378 78.8866 35.8666 79.3351C36.0955 79.7836 36.4472 80.201 36.9019 80.5633C37.3565 80.9257 37.9051 81.2259 38.5164 81.4469C39.1276 81.6679 39.7894 81.8053 40.4642 81.8513C41.1389 81.8973 41.8134 81.851 42.4489 81.715C43.0845 81.579 43.6687 81.356 44.1683 81.0587C44.6679 80.7614 45.0731 80.3957 45.3607 79.9824C45.6482 79.5691 45.8126 79.1162 45.8444 78.6498Z" stroke="#546F77" stroke-width="2"/>
<path d="M91.9812 87.8087C91.4468 86.7179 90.4546 85.9067 89.2229 85.5537C87.9911 85.2007 86.6208 85.3347 85.4133 85.9263C84.8153 86.2192 84.2754 86.6156 83.8243 87.0929C83.3731 87.5702 83.0196 88.1191 82.7839 88.7081C82.5482 89.2972 82.435 89.9149 82.4506 90.526C82.4663 91.1371 82.6106 91.7296 82.8752 92.2698C83.4096 93.3606 84.4018 94.1717 85.6335 94.5248C86.8652 94.8778 88.2355 94.7438 89.4431 94.1522C90.041 93.8593 90.5809 93.4629 91.0321 92.9856C91.4832 92.5083 91.8367 91.9594 92.0724 91.3703C92.3081 90.7813 92.4213 90.1636 92.4057 89.5525C92.39 88.9414 92.2458 88.3488 91.9812 87.8087Z" stroke="#596D79" stroke-width="2"/>
<path d="M61.9166 98.6614C61.9875 97.6215 61.5425 96.5892 60.6796 95.7917C59.8167 94.9941 58.6065 94.4966 57.3152 94.4086C56.6759 94.365 56.0358 94.4232 55.4317 94.58C54.8276 94.7368 54.2712 94.989 53.7942 95.3223C53.3173 95.6556 52.9292 96.0634 52.6521 96.5224C52.375 96.9814 52.2143 97.4827 52.1792 97.9976C52.1083 99.0375 52.5533 100.07 53.4162 100.867C54.2791 101.665 55.4894 102.162 56.7806 102.25C57.42 102.294 58.06 102.236 58.6641 102.079C59.2683 101.922 59.8247 101.67 60.3016 101.337C60.7785 101.003 61.1666 100.596 61.4437 100.137C61.7208 99.6776 61.8815 99.1763 61.9166 98.6614Z" stroke="#546F77" stroke-width="2"/>
<path d="M31.5764 104.459C21.2364 104.689 27.3564 117.11 33.0664 111.75" stroke="#526B72" stroke-width="2"/>
<path d="M33.0681 111.75C38.4681 108.223 37.9715 105.793 31.5781 104.459" stroke="#7BB2B3" stroke-width="2"/>
<path d="M33.0681 111.75C34.9548 108.95 34.4581 106.519 31.5781 104.459" stroke="#34575F" stroke-width="2"/>
<path d="M78.4068 109.609C78.7868 108.796 78.9201 107.943 78.8068 107.049C78.7913 106.925 78.7114 106.804 78.5794 106.705C78.4474 106.605 78.2708 106.533 78.0768 106.499C75.5035 106.046 73.0168 106.323 70.6168 107.329C70.5051 107.376 70.4015 107.461 70.3146 107.578C70.2276 107.694 70.1598 107.839 70.1168 107.999C68.4668 113.939 74.8068 112.999 78.1768 113.299C78.3814 113.319 78.58 113.297 78.7349 113.238C78.8897 113.179 78.99 113.087 79.0168 112.979C79.2168 112.033 78.9735 111.223 78.2868 110.549C78.2243 110.486 78.2022 110.358 78.224 110.188C78.2458 110.017 78.3102 109.813 78.4068 109.609Z" stroke="#546F77" stroke-width="2"/>
<path d="M109.806 114.549L108.626 114.459C108.254 114.433 107.911 114.492 107.636 114.629C107.469 114.716 107.359 114.852 107.306 115.039C107.287 115.101 107.292 115.168 107.321 115.234C107.351 115.3 107.404 115.365 107.477 115.424C107.55 115.483 107.641 115.534 107.745 115.575C107.848 115.615 107.961 115.644 108.076 115.659C112.423 116.232 116.756 116.132 121.076 115.359C121.209 115.336 121.334 115.27 121.435 115.171C121.537 115.071 121.61 114.942 121.646 114.799C122.586 111.199 120.746 109.369 117.186 109.009C115.096 108.789 104.696 107.239 106.856 112.329C106.906 112.443 106.995 112.555 107.115 112.66C107.235 112.765 107.385 112.86 107.556 112.939L109.826 113.969C110.839 114.436 110.833 114.629 109.806 114.549Z" stroke="#516870" stroke-width="2"/>
<path d="M60.1355 126.397C60.1369 125.599 59.6494 124.833 58.7802 124.267C57.911 123.701 56.7314 123.382 55.5008 123.379C54.8914 123.378 54.2879 123.455 53.7247 123.605C53.1615 123.756 52.6496 123.977 52.2182 124.255C51.7868 124.534 51.4445 124.865 51.2107 125.23C50.9768 125.595 50.8562 125.986 50.8555 126.381C50.8541 127.18 51.3416 127.946 52.2108 128.512C53.0799 129.078 54.2596 129.397 55.4902 129.399C56.0995 129.4 56.703 129.324 57.2662 129.173C57.8295 129.023 58.3414 128.802 58.7727 128.524C59.2041 128.245 59.5464 127.914 59.7802 127.549C60.0141 127.184 60.1348 126.793 60.1355 126.397Z" stroke="#546F77" stroke-width="2"/>
<path d="M70.0575 78.6095C72.2075 79.1295 74.4575 76.4095 73.0475 75.8595C72.9097 75.8044 72.7474 75.793 72.5758 75.8262C72.4043 75.8595 72.2293 75.9363 72.0675 76.0495L69.8575 77.5695C69.1375 78.0628 69.2042 78.4095 70.0575 78.6095Z" stroke="#4A6770" stroke-width="2"/>
<path d="M99.6946 133.168C99.6831 133.094 99.6281 133.027 99.5326 132.972C99.437 132.917 99.303 132.874 99.138 132.846C98.9729 132.818 98.7802 132.805 98.5708 132.809C98.3614 132.812 98.1394 132.832 97.9175 132.866C97.6956 132.9 97.478 132.949 97.2774 133.009C97.0767 133.069 96.8969 133.139 96.7481 133.216C96.5992 133.292 96.4844 133.374 96.41 133.455C96.3357 133.537 96.3033 133.617 96.3147 133.691C96.3262 133.765 96.3812 133.831 96.4767 133.886C96.5722 133.942 96.7063 133.984 96.8714 134.013C97.0364 134.041 97.2291 134.053 97.4385 134.05C97.6479 134.046 97.8699 134.027 98.0918 133.992C98.3138 133.958 98.5313 133.91 98.7319 133.849C98.9326 133.789 99.1124 133.719 99.2613 133.643C99.4101 133.566 99.5249 133.485 99.5993 133.403C99.6736 133.322 99.706 133.242 99.6946 133.168Z" stroke="#2D4051" stroke-width="2"/>
<path d="M100.067 135.58C106.997 135.54 102.407 125.03 93.8572 127.17C91.6838 127.716 90.7472 129.276 91.0472 131.85L73.0472 132.82C72.3205 132.86 72.3272 132.77 73.0672 132.55L78.8172 130.81C79.0772 130.736 79.0672 130.653 78.7872 130.56C76.1372 129.7 66.4471 133.61 63.4671 134.63C58.4171 136.37 53.6171 141.9 47.8172 139.08C49.1772 138.306 49.3305 137.293 48.2771 136.04C47.4971 130.35 40.0871 131.18 36.3771 132.83C34.8638 133.496 34.5271 134.556 35.3671 136.01C36.2805 137.603 37.6805 138.543 39.5672 138.83C41.6171 141.62 43.8671 140.09 46.5672 139.58L46.8971 140.52C46.9491 140.666 46.9635 140.823 46.939 140.975C46.9146 141.127 46.852 141.27 46.7572 141.39C44.6172 144.15 41.8872 144.44 38.1372 144.91C37.9372 144.936 37.5838 144.893 37.0772 144.78C36.5838 144.673 36.1605 144.753 35.8071 145.02C35.6595 145.133 35.5149 145.227 35.3931 145.29C35.2713 145.352 35.1784 145.38 35.1271 145.37C28.6171 143.63 29.3771 139.95 25.4671 136.11C20.7071 131.44 15.4772 125.42 13.4872 118.78C13.4472 118.64 13.2605 118.39 12.9271 118.03L12.1171 117.17C12.016 117.063 11.8953 116.985 11.7729 116.948C11.6505 116.91 11.5328 116.914 11.4371 116.96C10.3905 117.466 9.35048 117.59 8.31715 117.33C11.3172 116.616 12.5438 115.196 11.9971 113.07C11.6705 111.79 10.8471 111.146 9.52714 111.14C6.04048 111.113 3.97048 111.843 3.31715 113.33C1.49048 113.143 0.743828 112.04 1.07716 110.02C1.48383 107.493 2.51048 102.716 4.15715 95.6897C4.20146 95.5036 4.26597 95.3328 4.33809 95.2108C4.4102 95.0888 4.48475 95.0242 4.54716 95.0297L4.81715 95.0397C4.85115 95.0417 4.88509 95.0353 4.9167 95.0209C4.94831 95.0064 4.97689 94.9843 5.00053 94.9559C5.02417 94.9276 5.04233 94.8936 5.05382 94.8563C5.0653 94.819 5.06985 94.7793 5.06715 94.7397C4.72715 89.7197 3.90715 83.5597 4.84715 79.1397C6.06715 73.3897 9.44715 70.8397 11.8771 65.8597C15.5871 58.2397 24.6172 54.1597 33.5172 48.9897C34.3172 48.5297 34.9971 48.2797 35.5571 48.2397C35.9771 48.2064 36.2905 48.1297 36.4971 48.0097C41.8871 44.7997 46.9872 41.1497 52.6072 38.6197C55.3472 37.3797 58.0972 36.1597 60.8572 34.9597C63.0472 34.0097 64.9572 32.4197 67.0772 31.1997C67.2277 31.1155 67.3543 31.01 67.4426 30.8951C67.531 30.7803 67.5776 30.6606 67.5772 30.5497V30.0497C67.5803 29.8924 67.6157 29.7418 67.6802 29.6111C67.7446 29.4804 67.8363 29.3735 67.9472 29.2997C73.6538 25.5064 79.2538 21.5597 84.7471 17.4597C87.8605 15.1397 93.6705 11.8131 102.177 7.47972C102.61 7.79972 102.947 8.3264 103.187 9.05974C103.27 9.32926 103.235 9.65843 103.087 9.97972C102.367 11.4864 102.86 12.3264 104.567 12.4997C106.847 13.5731 108.844 13.9997 110.557 13.7797C114.017 13.3397 115.017 11.7464 113.557 8.99974C113.757 7.85307 113.597 6.92638 113.077 6.21971C112.904 5.98907 112.61 5.82403 112.257 5.75969C109.79 5.31302 107.31 5.22641 104.817 5.49974C105.39 5.01974 105.67 4.43306 105.657 3.73973C105.63 1.99306 106.184 1.08971 107.317 1.02971C111.357 0.819709 116.587 1.66974 118.417 5.93974C121.497 13.1097 118.137 18.3097 113.667 24.6597C108.917 31.3997 110.707 39.4197 113.887 46.3097C116.617 52.2397 115.697 64.7997 114.487 71.1997C113.307 77.3997 111.987 87.3297 113.917 93.2997C116.997 102.82 128.477 107.72 123.887 119.49C123.827 119.636 123.797 119.636 123.797 119.49C123.797 117.59 123.657 117.64 123.377 119.64C123.364 119.753 123.33 119.87 123.277 119.99C119.307 129.37 114.187 136.1 103.527 137.97C101.374 138.35 100.22 137.553 100.067 135.58ZM90.1072 38.0397C93.1605 39.8331 96.3172 40.053 99.5772 38.6997C99.6549 38.664 99.757 38.5767 99.8741 38.4456C99.9912 38.3146 100.119 38.144 100.247 37.9497C100.694 37.2697 100.564 36.7031 99.8572 36.2497C99.7344 36.1708 99.6283 36.0634 99.5457 35.9343C99.4631 35.8052 99.4057 35.6573 99.3772 35.4997L99.1072 34.0397C98.5772 30.3697 91.7471 30.2797 89.1171 30.6497C87.4371 30.883 86.5705 31.8464 86.5172 33.5397C86.4505 35.7597 87.6472 37.2597 90.1072 38.0397ZM60.8801 49.1604C60.8968 48.4764 60.6411 47.8137 60.1693 47.3182C59.6974 46.8227 59.048 46.535 58.364 46.5182L53.6654 46.4034C52.9813 46.3867 52.3186 46.6424 51.8231 47.1142C51.3276 47.5861 51.0398 48.2355 51.0231 48.9195L50.9742 50.919C50.9575 51.603 51.2132 52.2657 51.685 52.7612C52.1569 53.2567 52.8063 53.5445 53.4903 53.5612L58.1889 53.676C58.873 53.6927 59.5357 53.4371 60.0312 52.9652C60.5267 52.4933 60.8145 51.8439 60.8312 51.1599L60.8801 49.1604ZM75.5672 59.5797C77.3738 60.0597 79.5705 60.0164 82.1572 59.4497C82.3593 59.4037 82.5335 59.271 82.642 59.0802C82.7505 58.8894 82.7847 58.6558 82.7372 58.4297L82.2771 56.2897L81.7372 53.1997C81.709 53.0378 81.6265 52.891 81.504 52.785C81.3815 52.6789 81.2268 52.6204 81.0672 52.6197L72.9971 52.5797C72.8864 52.5803 72.7715 52.6441 72.6714 52.7605C72.5714 52.8769 72.4923 53.0389 72.4472 53.2197C71.6872 56.2597 72.7272 58.3797 75.5672 59.5797ZM30.8044 64.7978C30.8179 64.3896 30.7003 63.9811 30.4581 63.5955C30.216 63.2099 29.8541 62.8549 29.3931 62.5507C28.9321 62.2465 28.3812 61.999 27.7716 61.8224C27.162 61.6458 26.5057 61.5435 25.8403 61.5214C24.4963 61.4768 23.1966 61.7616 22.227 62.313C21.2574 62.8644 20.6973 63.6372 20.67 64.4616C20.6564 64.8698 20.7741 65.2784 21.0162 65.6639C21.2584 66.0495 21.6202 66.4045 22.0812 66.7087C22.5422 67.013 23.0932 67.2605 23.7028 67.4371C24.3124 67.6137 24.9686 67.716 25.634 67.738C26.978 67.7826 28.2777 67.4978 29.2473 66.9465C30.2169 66.3951 30.777 65.6222 30.8044 64.7978ZM91.8371 63.8597C90.8271 68.8397 94.7172 72.3797 99.5672 70.6097C99.8511 70.5068 100.095 70.2978 100.257 70.0197L102.107 66.8097C102.674 65.8297 102.417 64.9131 101.337 64.0597C98.5438 61.8597 95.5405 61.4964 92.3272 62.9697C92.2238 63.0192 92.1239 63.1279 92.0377 63.2844C91.9515 63.4409 91.8823 63.6396 91.8371 63.8597ZM73.9238 78.6463C74.2148 77.4616 73.9507 76.1919 73.1894 75.1166C72.4281 74.0413 71.2321 73.2485 69.8645 72.9125C69.1873 72.7462 68.4883 72.697 67.8075 72.7679C67.1268 72.8387 66.4774 73.0281 65.8967 73.3253C65.316 73.6225 64.8152 74.0217 64.4229 74.5C64.0306 74.9783 63.7545 75.5265 63.6105 76.1131C63.3195 77.2979 63.5836 78.5676 64.3449 79.6429C65.1062 80.7182 66.3022 81.511 67.6698 81.8469C68.347 82.0132 69.046 82.0624 69.7268 81.9916C70.4075 81.9207 71.0569 81.7313 71.6376 81.4341C72.2183 81.1369 72.7191 80.7378 73.1114 80.2594C73.5037 79.7811 73.7797 79.233 73.9238 78.6463ZM45.8453 78.65C45.8771 78.1836 45.7757 77.7127 45.5468 77.2641C45.318 76.8156 44.9662 76.3982 44.5116 76.0359C44.0569 75.6735 43.5083 75.3733 42.8971 75.1523C42.2859 74.9313 41.624 74.7939 40.9493 74.7479C40.2745 74.7019 39.6001 74.7483 38.9646 74.8843C38.329 75.0203 37.7448 75.2432 37.2452 75.5405C36.7456 75.8378 36.3404 76.2036 36.0528 76.6169C35.7652 77.0302 35.6008 77.483 35.569 77.9494C35.5372 78.4159 35.6386 78.8868 35.8675 79.3353C36.0963 79.7838 36.4481 80.2012 36.9027 80.5635C37.3574 80.9259 37.906 81.2261 38.5172 81.4471C39.1284 81.6681 39.7903 81.8055 40.465 81.8515C41.1398 81.8975 41.8142 81.8512 42.4497 81.7152C43.0853 81.5792 43.6695 81.3562 44.1691 81.0589C44.6687 80.7616 45.0739 80.3959 45.3615 79.9826C45.6491 79.5693 45.8135 79.1164 45.8453 78.65ZM91.9801 87.8092C91.4458 86.7184 90.4536 85.9072 89.2218 85.5542C87.9901 85.2011 86.6198 85.3352 85.4122 85.9267C84.8143 86.2197 84.2744 86.6161 83.8233 87.0934C83.3721 87.5707 83.0186 88.1196 82.7829 88.7086C82.5472 89.2977 82.434 89.9154 82.4496 90.5265C82.4653 91.1376 82.6096 91.7301 82.8742 92.2702C83.4085 93.3611 84.4007 94.1722 85.6325 94.5253C86.8642 94.8783 88.2345 94.7442 89.4421 94.1527C90.04 93.8598 90.5799 93.4634 91.0311 92.9861C91.4822 92.5088 91.8357 91.9599 92.0714 91.3708C92.3071 90.7818 92.4203 90.1641 92.4047 89.553C92.389 88.9419 92.2448 88.3493 91.9801 87.8092ZM61.9158 98.6616C61.9867 97.6217 61.5418 96.5895 60.6788 95.7919C59.8159 94.9944 58.6057 94.4968 57.3145 94.4088C56.6751 94.3652 56.0351 94.4235 55.4309 94.5802C54.8268 94.737 54.2704 94.9893 53.7935 95.3226C53.3165 95.6558 52.9285 96.0636 52.6513 96.5226C52.3742 96.9817 52.2135 97.4829 52.1784 97.9978C52.1076 99.0377 52.5525 100.07 53.4154 100.868C54.2784 101.665 55.4886 102.163 56.7799 102.251C57.4192 102.294 58.0592 102.236 58.6634 102.079C59.2675 101.922 59.8239 101.67 60.3008 101.337C60.7777 101.004 61.1658 100.596 61.4429 100.137C61.72 99.6778 61.8807 99.1765 61.9158 98.6616ZM31.5772 104.46C21.2372 104.69 27.3572 117.11 33.0672 111.75C38.4672 108.223 37.9705 105.793 31.5772 104.46ZM78.4072 109.61C78.7871 108.796 78.9205 107.943 78.8071 107.05C78.7916 106.926 78.7117 106.805 78.5798 106.705C78.4478 106.606 78.2712 106.534 78.0772 106.5C75.5038 106.046 73.0171 106.323 70.6171 107.33C70.5055 107.377 70.4019 107.462 70.3149 107.578C70.228 107.695 70.1601 107.839 70.1171 108C68.4671 113.94 74.8071 113 78.1771 113.3C78.3818 113.319 78.5804 113.297 78.7352 113.238C78.8901 113.179 78.9904 113.087 79.0172 112.98C79.2172 112.033 78.9738 111.223 78.2872 110.55C78.2247 110.486 78.2026 110.359 78.2243 110.188C78.2461 110.018 78.3105 109.814 78.4072 109.61ZM109.807 114.55L108.627 114.46C108.255 114.434 107.912 114.493 107.637 114.63C107.47 114.716 107.36 114.853 107.307 115.04C107.288 115.102 107.293 115.168 107.323 115.235C107.352 115.301 107.405 115.366 107.478 115.425C107.551 115.483 107.642 115.535 107.746 115.575C107.849 115.616 107.962 115.645 108.077 115.66C112.424 116.233 116.757 116.133 121.077 115.36C121.211 115.336 121.335 115.271 121.437 115.171C121.538 115.072 121.611 114.943 121.647 114.8C122.587 111.2 120.747 109.37 117.187 109.01C115.097 108.79 104.697 107.24 106.857 112.33C106.908 112.443 106.996 112.556 107.116 112.661C107.236 112.766 107.386 112.861 107.557 112.94L109.827 113.97C110.84 114.436 110.834 114.63 109.807 114.55ZM60.1372 126.398C60.1386 125.6 59.651 124.833 58.7819 124.267C57.9127 123.701 56.7331 123.382 55.5025 123.38C54.8931 123.379 54.2896 123.455 53.7264 123.606C53.1632 123.756 52.6512 123.977 52.2199 124.256C51.7885 124.534 51.4462 124.866 51.2124 125.23C50.9785 125.595 50.8578 125.986 50.8572 126.382C50.8558 127.18 51.3433 127.946 52.2124 128.512C53.0816 129.078 54.2613 129.398 55.4919 129.4C56.1012 129.401 56.7047 129.324 57.2679 129.174C57.8311 129.023 58.343 128.803 58.7744 128.524C59.2058 128.245 59.5481 127.914 59.7819 127.549C60.0158 127.184 60.1365 126.793 60.1372 126.398Z" fill="#99C6C6"/>
<path d="M113.556 8.99941L112.316 10.2494L105.706 11.0194L104.566 12.4994C102.859 12.3261 102.366 11.4861 103.086 9.9794C103.233 9.6581 103.269 9.32893 103.186 9.05941C102.946 8.32608 102.609 7.7994 102.176 7.4794C102.209 5.8394 103.089 5.17941 104.816 5.49941C107.309 5.22608 109.789 5.3127 112.256 5.75936C112.609 5.8237 112.903 5.98875 113.076 6.21939C113.596 6.92605 113.756 7.85275 113.556 8.99941Z" fill="#120F29"/>
<path d="M113.556 8.99951C115.016 11.7462 114.016 13.3395 110.556 13.7795C108.843 13.9995 106.846 13.5728 104.566 12.4995L105.706 11.0195C107.733 11.8395 109.823 12.1928 111.976 12.0795C112.317 12.06 112.624 11.9278 112.836 11.7095C113.57 10.9761 113.396 10.4895 112.316 10.2495L113.556 8.99951Z" fill="#31455A"/>
<path d="M112.317 10.2495C113.397 10.4895 113.57 10.9761 112.837 11.7095C112.624 11.9278 112.317 12.06 111.977 12.0795C109.824 12.1928 107.734 11.8395 105.707 11.0195L112.317 10.2495Z" fill="#68919A"/>
<path d="M99.1083 34.0397C98.9283 38.6097 93.3983 38.5797 90.1083 38.0397C87.6483 37.2597 86.4516 35.7597 86.5183 33.5397C86.5716 31.8464 87.4382 30.8831 89.1182 30.6497C91.7482 30.2797 98.5783 30.3697 99.1083 34.0397Z" fill="#120F29"/>
<path d="M99.1055 34.0396L99.3755 35.4996C99.404 35.6571 99.4614 35.8051 99.544 35.9341C99.6266 36.0632 99.7327 36.1706 99.8555 36.2496C100.562 36.7029 100.692 37.2695 100.245 37.9495C100.118 38.1438 99.9895 38.3144 99.8724 38.4454C99.7553 38.5765 99.6532 38.6638 99.5755 38.6995C96.3155 40.0529 93.1588 39.8329 90.1055 38.0396C93.3955 38.5796 98.9255 38.6096 99.1055 34.0396Z" fill="#557985"/>
<path d="M58.3638 46.5182L53.6652 46.4034C52.2407 46.3686 51.0577 47.4951 51.0229 48.9196L50.974 50.919C50.9392 52.3434 52.0658 53.5264 53.4902 53.5612L58.1888 53.6761C59.6133 53.7109 60.7963 52.5843 60.8311 51.1599L60.88 49.1605C60.9148 47.736 59.7882 46.553 58.3638 46.5182Z" fill="#0B101E"/>
<path d="M82.2777 56.2896L75.5677 59.5796C72.7277 58.3796 71.6877 56.2596 72.4477 53.2196C72.4928 53.0388 72.5719 52.8768 72.672 52.7604C72.772 52.644 72.8869 52.5802 72.9977 52.5796L81.0677 52.6196C81.2274 52.6203 81.382 52.6788 81.5045 52.7849C81.627 52.8909 81.7096 53.0377 81.7377 53.1996L82.2777 56.2896Z" fill="#080420"/>
<path d="M82.2764 56.2896L82.7364 58.4296C82.7839 58.6556 82.7497 58.8892 82.6412 59.08C82.5327 59.2708 82.3586 59.4036 82.1564 59.4495C79.5697 60.0162 77.3731 60.0595 75.5664 59.5795L82.2764 56.2896Z" fill="#31455A"/>
<path d="M25.6344 67.7377C28.433 67.8305 30.7478 66.5142 30.8048 64.7975C30.8617 63.0808 28.6392 61.614 25.8407 61.5211C23.0421 61.4283 20.7273 62.7447 20.6703 64.4613C20.6134 66.178 22.8359 67.6449 25.6344 67.7377Z" fill="#1E1D2D"/>
<path d="M99.5665 70.6094C94.7165 72.3794 90.8265 68.8394 91.8365 63.8594C91.8816 63.6393 91.9509 63.4406 92.0371 63.2841C92.1233 63.1276 92.2232 63.0189 92.3265 62.9694C95.5399 61.4961 98.5432 61.8594 101.337 64.0594C102.417 64.9128 102.673 65.8294 102.107 66.8094L100.257 70.0194C100.095 70.2975 99.8505 70.5065 99.5665 70.6094Z" fill="#131B33"/>
<path d="M73.9249 78.6462C73.7809 79.2329 73.5048 79.781 73.1125 80.2593C72.7202 80.7377 72.2194 81.1368 71.6387 81.434C71.058 81.7312 70.4086 81.9206 69.7279 81.9915C69.0471 82.0623 68.3481 82.0131 67.6709 81.8468C66.3033 81.5109 65.1073 80.7181 64.346 79.6428C63.5847 78.5675 63.3206 77.2978 63.6116 76.113C63.7557 75.5264 64.0317 74.9782 64.424 74.4999C64.8163 74.0215 65.3171 73.6224 65.8978 73.3252C66.4786 73.028 67.1279 72.8386 67.8086 72.7678C68.4894 72.6969 69.1884 72.7461 69.8656 72.9124C71.2332 73.2484 72.4292 74.0412 73.1905 75.1165C73.9518 76.1917 74.2159 77.4615 73.9249 78.6462ZM70.0582 78.6096C72.2082 79.1296 74.4583 76.4096 73.0483 75.8596C72.9105 75.8046 72.7481 75.7931 72.5766 75.8264C72.4051 75.8596 72.2301 75.9365 72.0683 76.0496L69.8583 77.5696C69.1383 78.063 69.2049 78.4096 70.0582 78.6096Z" fill="#0E1827"/>
<path d="M40.4624 81.8513C43.3001 82.0447 45.7089 80.6114 45.8426 78.6498C45.9763 76.6882 43.7843 74.9412 40.9467 74.7477C38.109 74.5543 35.7002 75.9876 35.5665 77.9492C35.4327 79.9108 37.6247 81.6578 40.4624 81.8513Z" fill="#0E1827"/>
<path d="M70.0575 78.6095C69.2042 78.4095 69.1375 78.0628 69.8575 77.5695L72.0675 76.0495C72.2293 75.9363 72.4043 75.8595 72.5758 75.8262C72.7474 75.793 72.9097 75.8044 73.0475 75.8595C74.4575 76.4095 72.2075 79.1295 70.0575 78.6095Z" fill="#86B6B8"/>
<path d="M89.4422 94.1527C91.9568 92.9208 93.0931 90.0807 91.9803 87.8092C90.8675 85.5377 87.9269 84.6949 85.4124 85.9267C82.8978 87.1586 81.7615 89.9987 82.8743 92.2702C83.9871 94.5417 86.9277 95.3845 89.4422 94.1527Z" fill="#18132B"/>
<path d="M56.7794 102.25C59.4683 102.434 61.7678 100.827 61.9154 98.6614C62.063 96.4959 60.0029 94.5919 57.314 94.4086C54.6251 94.2253 52.3256 95.8321 52.178 97.9976C52.0304 100.163 54.0905 102.067 56.7794 102.25Z" fill="#0E1827"/>
<path d="M33.0681 111.75C34.9548 108.95 34.4581 106.519 31.5781 104.459C37.9715 105.793 38.4681 108.223 33.0681 111.75Z" fill="#5D9D9F"/>
<path d="M31.5764 104.459C34.4564 106.519 34.9531 108.95 33.0664 111.75C27.3564 117.11 21.2364 104.689 31.5764 104.459Z" fill="#0B101E"/>
<path d="M78.2868 110.55C78.9735 111.223 79.2168 112.033 79.0168 112.98C78.99 113.087 78.8897 113.179 78.7349 113.238C78.58 113.297 78.3814 113.319 78.1768 113.3C74.8068 113 68.4668 113.94 70.1168 108C70.1598 107.839 70.2276 107.695 70.3146 107.578C70.4015 107.462 70.5051 107.376 70.6168 107.33C73.0168 106.323 75.5035 106.046 78.0768 106.5C78.2708 106.534 78.4474 106.606 78.5794 106.705C78.7114 106.805 78.7913 106.926 78.8068 107.05C78.9201 107.943 78.7868 108.796 78.4068 109.61C78.3102 109.814 78.2458 110.018 78.224 110.188C78.2022 110.359 78.2243 110.486 78.2868 110.55Z" fill="#0E1827"/>
<path d="M109.826 113.97L107.556 112.94C107.385 112.86 107.235 112.766 107.115 112.661C106.995 112.556 106.906 112.443 106.856 112.33C104.696 107.24 115.096 108.79 117.186 109.01C120.746 109.37 122.586 111.2 121.646 114.8C121.61 114.943 121.537 115.072 121.435 115.171C121.334 115.271 121.209 115.336 121.076 115.36C116.756 116.133 112.423 116.233 108.076 115.66C107.961 115.645 107.848 115.616 107.745 115.575C107.641 115.535 107.55 115.483 107.477 115.424C107.404 115.366 107.351 115.301 107.321 115.234C107.292 115.168 107.287 115.102 107.306 115.04C107.359 114.853 107.469 114.716 107.636 114.63C107.911 114.492 108.254 114.433 108.626 114.46L109.806 114.55C110.833 114.63 110.839 114.436 109.826 113.97Z" fill="#090A1A"/>
<path d="M8.31621 117.329C4.88955 118.036 3.22288 116.703 3.31621 113.329C3.96955 111.843 6.03954 111.113 9.5262 111.139C10.8462 111.146 11.6695 111.789 11.9962 113.069C12.5429 115.196 11.3162 116.616 8.31621 117.329Z" fill="#0E1827"/>
<path d="M55.4928 129.4C58.0554 129.404 60.1351 128.06 60.138 126.398C60.1409 124.735 58.0659 123.384 55.5033 123.38C52.9407 123.375 50.8609 124.719 50.858 126.382C50.8551 128.044 52.9302 129.395 55.4928 129.4Z" fill="#0E1827"/>
<path d="M100.067 135.58C96.4068 135.46 92.5168 136.15 91.0468 131.85C90.7468 129.276 91.6834 127.716 93.8568 127.17C102.407 125.03 106.997 135.54 100.067 135.58ZM99.6967 133.168C99.6852 133.094 99.6302 133.028 99.5347 132.972C99.4392 132.917 99.3051 132.874 99.1401 132.846C98.975 132.818 98.7823 132.806 98.5729 132.809C98.3635 132.813 98.1415 132.832 97.9196 132.866C97.6977 132.901 97.4801 132.949 97.2795 133.009C97.0789 133.069 96.899 133.14 96.7502 133.216C96.6013 133.293 96.4865 133.374 96.4121 133.456C96.3378 133.537 96.3054 133.617 96.3169 133.691C96.3283 133.765 96.3833 133.832 96.4788 133.887C96.5743 133.942 96.7084 133.985 96.8735 134.013C97.0385 134.041 97.2312 134.054 97.4406 134.05C97.65 134.047 97.872 134.027 98.0939 133.993C98.3159 133.959 98.5334 133.91 98.734 133.85C98.9347 133.79 99.1145 133.72 99.2634 133.643C99.4122 133.566 99.5271 133.485 99.6014 133.404C99.6757 133.322 99.7081 133.242 99.6967 133.168Z" fill="#120F29"/>
<path d="M48.2777 136.04C45.511 137.406 42.6077 138.336 39.5677 138.83C37.6811 138.543 36.281 137.603 35.3677 136.01C34.5277 134.556 34.8644 133.496 36.3777 132.83C40.0877 131.18 47.4977 130.35 48.2777 136.04Z" fill="#0B101E"/>
<path d="M98.0947 133.993C99.028 133.848 99.7456 133.479 99.6974 133.168C99.6493 132.857 98.8536 132.722 97.9203 132.866C96.987 133.011 96.2695 133.38 96.3177 133.691C96.3658 134.002 97.1615 134.137 98.0947 133.993Z" fill="#477179"/>
<path d="M48.2764 136.04C49.3297 137.293 49.1764 138.306 47.8164 139.08L46.5664 139.58C43.8664 140.09 41.6164 141.62 39.5664 138.83C42.6064 138.336 45.5097 137.406 48.2764 136.04Z" fill="#557985"/>
</svg>
