<svg width="69" height="73" viewBox="0 0 69 73" fill="none" xmlns="http://www.w3.org/2000/svg">
<path d="M27.5027 32.6209V32.8709C27.5037 32.9921 27.4556 33.1117 27.3665 33.2099C27.2774 33.3081 27.1525 33.379 27.0127 33.4109C16.5993 35.6642 9.01266 41.8876 4.25266 52.081C2.77266 55.241 2.96935 57.5843 4.84269 59.1109C10.0527 63.3609 20.5126 54.6009 24.5426 51.6309C25.596 50.8576 25.9427 51.1009 25.5827 52.3609C24.2627 57.0409 23.8827 63.4609 25.5827 68.2209C27.1427 72.5909 31.4126 73.781 33.4826 68.521C35.0526 64.561 34.6026 56.3009 36.8526 50.4109C37.686 48.2242 38.5293 46.1143 39.3827 44.081C39.9493 42.7276 40.9193 42.3043 42.2926 42.8109C46.1726 44.2209 55.7327 51.471 49.0127 55.651C48.8848 55.7286 48.7371 55.7743 48.581 55.7848C48.4249 55.7952 48.2646 55.7699 48.1126 55.711C45.066 54.5443 42.5594 52.6609 40.5927 50.0609C39.4427 48.5409 39.0127 49.6909 39.4327 50.7309C40.9727 54.4509 48.4427 67.231 53.8127 64.211C57.326 62.2376 58.756 59.4609 58.1026 55.8809C57.4226 52.1409 51.8127 47.5209 49.1427 44.6909C49.0062 44.548 48.9009 44.393 48.8376 44.2419C48.7744 44.0908 48.7554 43.949 48.7827 43.831C48.9927 42.921 53.4027 43.7709 54.2127 43.8109C62.0027 44.2009 74.8527 27.0209 63.1527 24.2809C54.3727 22.2209 47.6027 26.6309 41.7127 32.7909C41.6071 32.8987 41.4858 32.9794 41.3693 33.0194C41.2528 33.0595 41.148 33.0565 41.0727 33.011C39.8227 32.291 48.1427 20.7809 49.1327 19.6009C50.0727 18.4809 50.5726 15.241 47.6726 18.581C44.586 22.1276 41.7726 25.8843 39.2326 29.8509C38.5526 30.9243 38.1227 30.8309 37.9427 29.5709C37.2693 24.8976 37.0893 20.0743 37.4027 15.1009C37.5627 12.6109 38.5927 8.61091 38.0827 5.09091C36.4327 -6.07909 23.9227 8.57092 27.0127 14.1009C27.1065 14.2689 27.2412 14.4098 27.4073 14.5136C27.5734 14.6175 27.7668 14.6816 27.9739 14.7017C28.181 14.7217 28.3966 14.6971 28.6055 14.6295C28.8144 14.562 29.0114 14.4533 29.1827 14.3109C30.7893 12.9843 32.626 12.3843 34.6927 12.511C34.7886 12.5153 34.8788 12.6023 34.9441 12.7534C35.0094 12.9046 35.0448 13.1081 35.0426 13.3209C35.0126 19.3909 34.5726 27.4009 36.3526 32.1609C36.4098 32.3082 36.4178 32.4677 36.3749 32.6057C36.332 32.7437 36.2415 32.8496 36.1227 32.901C35.5927 33.131 20.5927 23.3909 18.7627 22.2909C18.4946 22.1277 18.2697 21.8821 18.1126 21.581C15.3626 16.371 8.59267 8.70093 2.07267 12.9909C1.66552 13.257 1.35021 13.6425 1.16953 14.0951C0.98885 14.5477 0.95154 15.0455 1.06266 15.521C2.48266 21.691 21.4626 29.9209 27.2326 32.3409C27.3117 32.3764 27.3799 32.4222 27.4282 32.4723C27.4765 32.5223 27.5024 32.5742 27.5027 32.6209Z" stroke="#FBDE92" stroke-width="2"/>
<path d="M52.523 17.3812C53.823 18.1546 54.9963 17.9979 56.043 16.9112C58.333 14.5212 61.743 5.47121 55.643 5.56121C52.843 5.60121 51.013 7.85123 49.933 10.2012C48.473 13.3912 49.713 15.7112 52.523 17.3812Z" stroke="#FBDE92" stroke-width="2"/>
<path d="M43.1329 38.6906C48.6029 43.0706 56.0029 38.3305 58.6929 33.2805C59.8129 31.1739 59.2796 29.6372 57.093 28.6706C50.293 25.6706 45.1629 30.8406 42.6329 36.7006C42.487 37.0401 42.4568 37.4185 42.5471 37.7779C42.6374 38.1373 42.8432 38.4579 43.1329 38.6906Z" stroke="#FBDE8A" stroke-width="2"/>
<path d="M34.6333 39.1508C27.7466 35.2975 21.2933 35.8874 15.2733 40.9208C13.7 42.2274 13.4433 43.6941 14.5033 45.3208L16.7833 48.8208C16.8708 48.9585 17.0135 49.0558 17.1847 49.0945C17.3559 49.1331 17.5438 49.1104 17.7133 49.0307L34.5233 41.1508C35.8633 40.5241 35.9 39.8575 34.6333 39.1508Z" stroke="#FBDE8A" stroke-width="2"/>
<path d="M29.1443 61.2608C30.2976 61.9408 31.0976 61.6475 31.5442 60.3808C32.7142 57.0608 34.0042 54.1808 34.6742 50.5608C35.0676 48.4608 35.6009 46.3974 36.2743 44.3708C36.4543 43.8241 36.2709 43.6408 35.7242 43.8208C29.0842 46.0608 26.2109 50.7308 27.1042 57.8308C27.3042 59.4241 27.9843 60.5675 29.1443 61.2608Z" stroke="#FBDE8A" stroke-width="2"/>
<path d="M27.2326 32.3409C21.4626 29.9209 2.48266 21.691 1.06266 15.521C0.95154 15.0455 0.98885 14.5477 1.16953 14.0951C1.35021 13.6425 1.66552 13.257 2.07267 12.9909C8.59267 8.70093 15.3626 16.371 18.1126 21.581C18.2697 21.8821 18.4946 22.1277 18.7627 22.2909C20.5927 23.3909 35.5927 33.131 36.1227 32.901C36.2415 32.8496 36.332 32.7437 36.3749 32.6057C36.4178 32.4677 36.4098 32.3082 36.3526 32.1609C34.5726 27.4009 35.0126 19.3909 35.0426 13.3209C35.0448 13.1081 35.0094 12.9046 34.9441 12.7534C34.8788 12.6023 34.7886 12.5153 34.6927 12.511C32.626 12.3843 30.7893 12.9843 29.1827 14.3109C29.0114 14.4533 28.8144 14.562 28.6055 14.6295C28.3966 14.6971 28.181 14.7217 27.9739 14.7017C27.7668 14.6816 27.5734 14.6175 27.4073 14.5136C27.2412 14.4098 27.1065 14.2689 27.0127 14.1009C23.9227 8.57092 36.4327 -6.07909 38.0827 5.09091C38.5927 8.61091 37.5627 12.6109 37.4027 15.1009C37.0894 20.0743 37.2693 24.8976 37.9427 29.5709C38.1227 30.8309 38.5526 30.9243 39.2326 29.8509C41.7726 25.8843 44.586 22.1276 47.6726 18.581C50.5726 15.241 50.0727 18.4809 49.1327 19.6009C48.1427 20.7809 39.8227 32.291 41.0727 33.011C41.148 33.0565 41.2528 33.0595 41.3693 33.0194C41.4858 32.9794 41.6071 32.8987 41.7127 32.7909C47.6027 26.6309 54.3727 22.2209 63.1527 24.2809C74.8527 27.0209 62.0027 44.2009 54.2127 43.8109C53.4027 43.7709 48.9927 42.921 48.7827 43.831C48.7554 43.949 48.7744 44.0908 48.8376 44.2419C48.9009 44.393 49.0062 44.548 49.1427 44.6909C51.8127 47.5209 57.4226 52.1409 58.1026 55.8809C58.756 59.4609 57.326 62.2376 53.8127 64.211C48.4427 67.231 40.9727 54.4509 39.4327 50.7309C39.0127 49.6909 39.4427 48.5409 40.5927 50.0609C42.5594 52.6609 45.066 54.5443 48.1126 55.711C48.2646 55.7699 48.4249 55.7952 48.581 55.7848C48.7371 55.7743 48.8848 55.7286 49.0127 55.651C55.7327 51.471 46.1726 44.2209 42.2926 42.8109C40.9193 42.3043 39.9493 42.7276 39.3827 44.081C38.5293 46.1143 37.686 48.2242 36.8526 50.4109C34.6026 56.3009 35.0526 64.561 33.4826 68.521C31.4126 73.781 27.1427 72.5909 25.5827 68.2209C23.8827 63.4609 24.2627 57.0409 25.5827 52.3609C25.9427 51.1009 25.596 50.8576 24.5426 51.6309C20.5126 54.6009 10.0527 63.3609 4.84269 59.1109C2.96935 57.5843 2.77266 55.241 4.25266 52.081C9.01266 41.8876 16.5993 35.6642 27.0127 33.4109C27.1525 33.379 27.2774 33.3081 27.3665 33.2099C27.4556 33.1117 27.5037 32.9921 27.5027 32.8709V32.6209C27.5024 32.5742 27.4765 32.5223 27.4282 32.4723C27.3799 32.4222 27.3117 32.3764 27.2326 32.3409ZM43.1327 38.6909C48.6027 43.0709 56.0027 38.3309 58.6927 33.2809C59.8127 31.1742 59.2794 29.6376 57.0927 28.6709C50.2927 25.6709 45.1627 30.841 42.6327 36.701C42.4867 37.0404 42.4565 37.4188 42.5468 37.7782C42.6371 38.1376 42.8429 38.4582 43.1327 38.6909ZM34.6327 39.151C27.746 35.2976 21.2927 35.8876 15.2727 40.9209C13.6993 42.2276 13.4427 43.6943 14.5027 45.3209L16.7827 48.8209C16.8702 48.9587 17.0129 49.056 17.1841 49.0946C17.3553 49.1333 17.5432 49.1106 17.7127 49.0309L34.5227 41.151C35.8627 40.5243 35.8993 39.8576 34.6327 39.151ZM29.1427 61.261C30.296 61.941 31.096 61.6476 31.5426 60.3809C32.7126 57.0609 34.0026 54.1809 34.6726 50.5609C35.066 48.4609 35.5993 46.3976 36.2727 44.3709C36.4527 43.8243 36.2693 43.6409 35.7226 43.8209C29.0826 46.061 26.2093 50.731 27.1026 57.831C27.3026 59.4243 27.9827 60.5676 29.1427 61.261Z" fill="#F8BD2A"/>
<path d="M52.523 17.3812C49.713 15.7112 48.473 13.3912 49.933 10.2012C51.013 7.85123 52.843 5.60121 55.643 5.56121C61.743 5.47121 58.333 14.5212 56.043 16.9112C54.9963 17.9979 53.823 18.1546 52.523 17.3812Z" fill="#F8BD2A"/>
</svg>
