<svg width="114" height="60" viewBox="0 0 114 60" fill="none" xmlns="http://www.w3.org/2000/svg">
<path d="M92.9323 4.33281C92.5152 3.54173 91.9169 2.8561 91.1714 2.31508C90.426 1.77406 89.5481 1.38827 88.5878 1.17968C87.6275 0.971089 86.6037 0.943817 85.5748 1.09942C84.5459 1.25502 83.532 1.59044 82.5911 2.08654C80.6908 3.08846 79.2029 4.684 78.4549 6.52218C77.7068 8.36035 77.7597 10.2906 78.6021 11.8882C79.0192 12.6793 79.6175 13.3649 80.3629 13.906C81.1083 14.447 81.9862 14.8328 82.9465 15.0414C83.9068 15.25 84.9306 15.2772 85.9595 15.1216C86.9884 14.966 88.0023 14.6306 88.9433 14.1345C90.8435 13.1326 92.3314 11.5371 93.0795 9.6989C93.8276 7.86073 93.7746 5.93047 92.9323 4.33281Z" stroke="#8B8EA0" stroke-width="2"/>
<path d="M34.0368 9.10596C32.6716 6.96312 30.3974 5.52279 27.7144 5.10184C25.0314 4.6809 22.1595 5.31382 19.7303 6.86136C18.5275 7.62764 17.4696 8.5954 16.617 9.70939C15.7644 10.8234 15.1339 12.0618 14.7613 13.3539C14.3888 14.646 14.2816 15.9665 14.4458 17.24C14.61 18.5135 15.0424 19.7151 15.7184 20.7762C17.0835 22.919 19.3578 24.3593 22.0407 24.7803C24.7237 25.2012 27.5957 24.5683 30.0249 23.0208C31.2277 22.2545 32.2856 21.2867 33.1382 20.1727C33.9907 19.0587 34.6213 17.8203 34.9938 16.5282C35.3664 15.2361 35.4736 13.9156 35.3094 12.6421C35.1452 11.3686 34.7127 10.167 34.0368 9.10596Z" stroke="#8B8EA0" stroke-width="2"/>
<path d="M112.335 11.4509C112.335 9.72967 111.652 8.07893 110.435 6.86182C109.217 5.64471 107.567 4.96094 105.845 4.96094C104.124 4.96094 102.473 5.64471 101.256 6.86182C100.039 8.07893 99.3555 9.72967 99.3555 11.4509C99.3555 13.1722 100.039 14.823 101.256 16.0401C102.473 17.2572 104.124 17.9409 105.845 17.9409C107.567 17.9409 109.217 17.2572 110.435 16.0401C111.652 14.823 112.335 13.1722 112.335 11.4509Z" stroke="#8B8EA0" stroke-width="2"/>
<path d="M59.7967 18.3854C59.4591 17.4211 58.9072 16.5425 58.1726 15.7996C57.438 15.0567 56.5351 14.4642 55.5154 14.0558C54.4958 13.6474 53.3794 13.4312 52.2299 13.4194C51.0804 13.4077 49.9203 13.6007 48.816 13.9875C47.7117 14.3742 46.6847 14.9471 45.7936 15.6734C44.9026 16.3997 44.165 17.2652 43.6229 18.2205C43.0808 19.1758 42.7448 20.2022 42.6342 21.241C42.5236 22.2799 42.6404 23.3109 42.9781 24.2752C43.3158 25.2394 43.8677 26.1181 44.6023 26.861C45.3369 27.6039 46.2398 28.1964 47.2594 28.6048C48.2791 29.0132 49.3955 29.2294 50.545 29.2411C51.6945 29.2528 52.8545 29.0598 53.9588 28.6731C55.0632 28.2864 56.0902 27.7135 56.9812 26.9872C57.8722 26.2609 58.6099 25.3954 59.152 24.4401C59.6941 23.4848 60.03 22.4584 60.1407 21.4195C60.2513 20.3806 60.1344 19.3497 59.7967 18.3854Z" stroke="#8B8EA0" stroke-width="2"/>
<path d="M82.1465 25.2908C82.0166 24.4007 81.6966 23.5472 81.2047 22.7791C80.7128 22.011 80.0585 21.3433 79.2794 20.8141C78.5003 20.2849 77.6115 19.9047 76.6638 19.6951C75.7161 19.4854 74.728 19.4505 73.756 19.5923C72.784 19.7341 71.8471 20.0498 70.9987 20.5215C70.1504 20.9931 69.4073 21.6114 68.8118 22.3411C68.2163 23.0708 67.7801 23.8976 67.5281 24.7742C67.2761 25.6509 67.2133 26.5603 67.3431 27.4504C67.473 28.3406 67.793 29.194 68.2849 29.9621C68.7769 30.7303 69.4311 31.398 70.2102 31.9271C70.9893 32.4563 71.8781 32.8365 72.8258 33.0462C73.7736 33.2558 74.7616 33.2907 75.7336 33.1489C76.7056 33.0071 77.6425 32.6914 78.4909 32.2197C79.3392 31.7481 80.0823 31.1298 80.6778 30.4001C81.2733 29.6704 81.7095 28.8436 81.9615 27.967C82.2135 27.0903 82.2764 26.181 82.1465 25.2908Z" stroke="#8B8EA0" stroke-width="2"/>
<path d="M13.5069 31.0601C13.5069 29.4078 12.8505 27.8232 11.6822 26.6548C10.5138 25.4865 8.92915 24.8301 7.27686 24.8301C5.62456 24.8301 4.03993 25.4865 2.87158 26.6548C1.70323 27.8232 1.04688 29.4078 1.04688 31.0601C1.04688 32.7124 1.70323 34.297 2.87158 35.4654C4.03993 36.6337 5.62456 37.2901 7.27686 37.2901C8.92915 37.2901 10.5138 36.6337 11.6822 35.4654C12.8505 34.297 13.5069 32.7124 13.5069 31.0601Z" stroke="#8B8EA0" stroke-width="2"/>
<path d="M98.1885 36.7548C98.0526 35.8111 97.7195 34.9053 97.2083 34.089C96.6972 33.2727 96.0181 32.562 95.2096 31.9974C94.4011 31.4328 93.4792 31.0253 92.4965 30.7983C91.5138 30.5713 90.4896 30.5292 89.4822 30.6744C88.4749 30.8195 87.5042 31.1491 86.6256 31.6443C85.7469 32.1396 84.9776 32.7908 84.3614 33.5607C83.7453 34.3306 83.2944 35.2042 83.0345 36.1315C82.7747 37.0589 82.7109 38.0219 82.8469 38.9656C82.9829 39.9092 83.316 40.815 83.8271 41.6313C84.3382 42.4476 85.0174 43.1583 85.8259 43.7229C86.6343 44.2875 87.5562 44.695 88.5389 44.922C89.5216 45.149 90.5459 45.1911 91.5532 45.046C92.5606 44.9008 93.5313 44.5712 94.4099 44.076C95.2885 43.5808 96.0579 42.9296 96.674 42.1597C97.2902 41.3898 97.741 40.5162 98.0009 39.5888C98.2607 38.6614 98.3245 37.6984 98.1885 36.7548Z" stroke="#8B8EA0" stroke-width="2"/>
<path d="M39.0378 34.4581C38.4477 33.7549 37.7078 33.1893 36.8601 32.7935C36.0123 32.3978 35.0735 32.1796 34.0972 32.1515C33.1208 32.1235 32.1261 32.286 31.1698 32.6299C30.2135 32.9738 29.3143 33.4922 28.5236 34.1557C27.7329 34.8192 27.0661 35.6147 26.5614 36.4968C26.0567 37.3788 25.7239 38.3302 25.582 39.2966C25.4401 40.263 25.4919 41.2254 25.7345 42.129C25.977 43.0326 26.4055 43.8595 26.9956 44.5627C27.5856 45.2659 28.3256 45.8315 29.1733 46.2273C30.0211 46.623 30.9599 46.8412 31.9362 46.8693C32.9126 46.8973 33.9073 46.7348 34.8636 46.3909C35.8199 46.047 36.7191 45.5286 37.5098 44.8651C38.3005 44.2016 38.9672 43.4061 39.472 42.5241C39.9767 41.642 40.3095 40.6906 40.4514 39.7242C40.5932 38.7578 40.5415 37.7954 40.2989 36.8918C40.0564 35.9883 39.6278 35.1613 39.0378 34.4581Z" stroke="#8B8EA0" stroke-width="2"/>
<path d="M15.478 47.8698C15.478 46.9795 15.3026 46.0978 14.9619 45.2752C14.6212 44.4527 14.1217 43.7052 13.4922 43.0757C12.8626 42.4461 12.1152 41.9467 11.2926 41.6059C10.47 41.2652 9.58833 41.0898 8.69797 41.0898C6.8998 41.0898 5.17527 41.8042 3.90378 43.0757C2.63228 44.3471 1.91797 46.0717 1.91797 47.8698C1.91797 49.668 2.63228 51.3925 3.90378 52.664C5.17527 53.9355 6.8998 54.6498 8.69797 54.6498C9.58833 54.6498 10.47 54.4745 11.2926 54.1337C12.1152 53.793 12.8626 53.2936 13.4922 52.664C14.1217 52.0345 14.6212 51.287 14.9619 50.4644C15.3026 49.6418 15.478 48.7602 15.478 47.8698Z" stroke="#8B8EA0" stroke-width="2"/>
<path d="M58.2591 47.6421C57.5019 46.4673 56.271 45.6658 54.8371 45.4141C53.4032 45.1625 51.8838 45.4811 50.6131 46.3C49.3424 47.119 48.4245 48.371 48.0613 49.7808C47.6982 51.1906 47.9195 52.6427 48.6767 53.8175C49.4338 54.9924 50.6647 55.7938 52.0986 56.0455C53.5325 56.2972 55.0519 55.9785 56.3227 55.1596C57.5934 54.3407 58.5113 53.0886 58.8744 51.6788C59.2376 50.269 59.0162 48.817 58.2591 47.6421Z" stroke="#8B8EA0" stroke-width="2"/>
<path d="M83.9511 49.141C83.2017 47.6953 81.8713 46.6258 80.2525 46.1679C78.6337 45.7101 76.8592 45.9013 75.3192 46.6995C74.5567 47.0947 73.8748 47.6271 73.3123 48.2662C72.7499 48.9053 72.3179 49.6386 72.0412 50.4243C71.7644 51.21 71.6482 52.0326 71.6992 52.8452C71.7502 53.6578 71.9675 54.4445 72.3385 55.1604C73.0879 56.6061 74.4184 57.6756 76.0372 58.1334C77.6559 58.5913 79.4305 58.4001 80.9704 57.6019C81.7329 57.2067 82.4149 56.6743 82.9773 56.0352C83.5398 55.3961 83.9717 54.6628 84.2485 53.8771C84.5253 53.0914 84.6415 52.2688 84.5905 51.4562C84.5394 50.6436 84.3222 49.8569 83.9511 49.141Z" stroke="#8B8EA0" stroke-width="2"/>
<path d="M92.9323 4.33281C93.7746 5.93047 93.8276 7.86073 93.0795 9.6989C92.3314 11.5371 90.8435 13.1326 88.9433 14.1345C88.0023 14.6306 86.9884 14.966 85.9595 15.1216C84.9306 15.2772 83.9068 15.25 82.9465 15.0414C81.9862 14.8328 81.1083 14.447 80.3629 13.906C79.6175 13.3649 79.0192 12.6793 78.6021 11.8882C77.7597 10.2906 77.7068 8.36035 78.4549 6.52218C79.2029 4.684 80.6908 3.08846 82.5911 2.08654C83.532 1.59044 84.5459 1.25502 85.5748 1.09942C86.6037 0.943817 87.6275 0.971089 88.5878 1.17968C89.5481 1.38827 90.426 1.77406 91.1714 2.31508C91.9169 2.8561 92.5152 3.54173 92.9323 4.33281Z" fill="#181D42"/>
<path d="M34.0368 9.10596C34.7127 10.167 35.1452 11.3686 35.3094 12.6421C35.4736 13.9156 35.3664 15.2361 34.9938 16.5282C34.6213 17.8203 33.9907 19.0587 33.1382 20.1727C32.2856 21.2867 31.2277 22.2545 30.0249 23.0208C27.5957 24.5683 24.7237 25.2012 22.0407 24.7803C19.3578 24.3593 17.0835 22.919 15.7184 20.7762C15.0424 19.7151 14.61 18.5135 14.4458 17.24C14.2816 15.9665 14.3888 14.646 14.7613 13.3539C15.1339 12.0618 15.7644 10.8234 16.617 9.70939C17.4696 8.5954 18.5275 7.62764 19.7303 6.86136C22.1595 5.31382 25.0314 4.6809 27.7144 5.10184C30.3974 5.52279 32.6716 6.96312 34.0368 9.10596Z" fill="#181D42"/>
<path d="M112.339 11.4509C112.339 13.1722 111.656 14.823 110.439 16.0401C109.221 17.2572 107.571 17.9409 105.849 17.9409C104.128 17.9409 102.477 17.2572 101.26 16.0401C100.043 14.823 99.3594 13.1722 99.3594 11.4509C99.3594 9.72967 100.043 8.07893 101.26 6.86182C102.477 5.64471 104.128 4.96094 105.849 4.96094C107.571 4.96094 109.221 5.64471 110.439 6.86182C111.656 8.07893 112.339 9.72967 112.339 11.4509Z" fill="#181D42"/>
<path d="M59.7967 18.3864C60.1344 19.3506 60.2513 20.3816 60.1407 21.4205C60.03 22.4594 59.6941 23.4858 59.152 24.4411C58.6099 25.3964 57.8722 26.2619 56.9812 26.9882C56.0902 27.7145 55.0632 28.2873 53.9588 28.6741C52.8545 29.0608 51.6945 29.2538 50.545 29.2421C49.3955 29.2304 48.2791 29.0141 47.2594 28.6058C46.2398 28.1974 45.3369 27.6048 44.6023 26.862C43.8677 26.1191 43.3158 25.2404 42.9781 24.2761C42.6404 23.3119 42.5236 22.2809 42.6342 21.242C42.7448 20.2032 43.0808 19.1768 43.6229 18.2215C44.165 17.2661 44.9026 16.4006 45.7936 15.6743C46.6847 14.948 47.7117 14.3752 48.816 13.9884C49.9203 13.6017 51.0804 13.4087 52.2299 13.4204C53.3794 13.4321 54.4958 13.6484 55.5154 14.0567C56.5351 14.4651 57.438 15.0577 58.1726 15.8006C58.9072 16.5434 59.4591 17.4221 59.7967 18.3864Z" fill="#181D42"/>
<path d="M82.1504 25.2908C82.2803 26.181 82.2174 27.0903 81.9654 27.967C81.7134 28.8436 81.2772 29.6704 80.6817 30.4001C80.0862 31.1298 79.3431 31.7481 78.4948 32.2197C77.6464 32.6914 76.7095 33.0071 75.7375 33.1489C74.7655 33.2907 73.7775 33.2558 72.8298 33.0462C71.882 32.8365 70.9933 32.4563 70.2141 31.9271C69.435 31.398 68.7808 30.7303 68.2888 29.9621C67.7969 29.194 67.4769 28.3406 67.347 27.4504C67.2172 26.5603 67.28 25.6509 67.532 24.7742C67.784 23.8976 68.2202 23.0708 68.8157 22.3411C69.4112 21.6114 70.1543 20.9931 71.0026 20.5215C71.851 20.0498 72.7879 19.7341 73.7599 19.5923C74.7319 19.4505 75.72 19.4854 76.6677 19.6951C77.6154 19.9047 78.5042 20.2849 79.2833 20.8141C80.0624 21.3433 80.7167 22.011 81.2086 22.7791C81.7005 23.5472 82.0205 24.4007 82.1504 25.2908Z" fill="#181D42"/>
<path d="M13.5069 31.0601C13.5069 32.7124 12.8505 34.297 11.6822 35.4654C10.5138 36.6337 8.92915 37.2901 7.27686 37.2901C5.62456 37.2901 4.03993 36.6337 2.87158 35.4654C1.70323 34.297 1.04688 32.7124 1.04688 31.0601C1.04688 29.4078 1.70323 27.8232 2.87158 26.6548C4.03993 25.4865 5.62456 24.8301 7.27686 24.8301C8.92915 24.8301 10.5138 25.4865 11.6822 26.6548C12.8505 27.8232 13.5069 29.4078 13.5069 31.0601Z" fill="#181D42"/>
<path d="M98.1885 36.7548C98.3245 37.6984 98.2607 38.6614 98.0009 39.5888C97.741 40.5162 97.2902 41.3898 96.674 42.1597C96.0579 42.9296 95.2885 43.5808 94.4099 44.076C93.5313 44.5712 92.5606 44.9008 91.5532 45.046C90.5459 45.1911 89.5216 45.149 88.5389 44.922C87.5562 44.695 86.6343 44.2875 85.8259 43.7229C85.0174 43.1583 84.3382 42.4476 83.8271 41.6313C83.316 40.815 82.9829 39.9092 82.8469 38.9656C82.7109 38.0219 82.7747 37.0589 83.0345 36.1315C83.2944 35.2042 83.7453 34.3306 84.3614 33.5607C84.9776 32.7908 85.7469 32.1396 86.6256 31.6443C87.5042 31.1491 88.4749 30.8195 89.4822 30.6744C90.4896 30.5292 91.5138 30.5713 92.4965 30.7983C93.4792 31.0253 94.4011 31.4328 95.2096 31.9974C96.0181 32.562 96.6972 33.2727 97.2083 34.089C97.7195 34.9053 98.0526 35.8111 98.1885 36.7548Z" fill="#181D42"/>
<path d="M39.0378 34.4581C39.6278 35.1613 40.0564 35.9883 40.2989 36.8918C40.5415 37.7954 40.5932 38.7578 40.4514 39.7242C40.3095 40.6906 39.9767 41.642 39.472 42.5241C38.9672 43.4061 38.3005 44.2016 37.5098 44.8651C36.7191 45.5286 35.8199 46.047 34.8636 46.3909C33.9073 46.7348 32.9126 46.8973 31.9362 46.8693C30.9599 46.8412 30.0211 46.623 29.1733 46.2273C28.3256 45.8315 27.5856 45.2659 26.9956 44.5627C26.4055 43.8595 25.977 43.0326 25.7345 42.129C25.4919 41.2254 25.4401 40.263 25.582 39.2966C25.7239 38.3302 26.0567 37.3788 26.5614 36.4968C27.0661 35.6147 27.7329 34.8192 28.5236 34.1557C29.3143 33.4922 30.2135 32.9738 31.1698 32.6299C32.1261 32.286 33.1208 32.1235 34.0972 32.1515C35.0735 32.1796 36.0123 32.3978 36.8601 32.7935C37.7078 33.1893 38.4477 33.7549 39.0378 34.4581Z" fill="#181D42"/>
<path d="M15.478 47.8698C15.478 48.7602 15.3026 49.6418 14.9619 50.4644C14.6212 51.287 14.1217 52.0345 13.4922 52.664C12.8626 53.2936 12.1152 53.793 11.2926 54.1337C10.47 54.4745 9.58833 54.6498 8.69797 54.6498C6.8998 54.6498 5.17527 53.9355 3.90378 52.664C2.63228 51.3925 1.91797 49.668 1.91797 47.8698C1.91797 46.0717 2.63228 44.3471 3.90378 43.0757C5.17527 41.8042 6.8998 41.0898 8.69797 41.0898C9.58833 41.0898 10.47 41.2652 11.2926 41.6059C12.1152 41.9467 12.8626 42.4461 13.4922 43.0757C14.1217 43.7052 14.6212 44.4527 14.9619 45.2752C15.3026 46.0978 15.478 46.9795 15.478 47.8698Z" fill="#181D42"/>
<path d="M58.2591 47.6421C59.0162 48.817 59.2376 50.269 58.8744 51.6788C58.5113 53.0886 57.5934 54.3407 56.3227 55.1596C55.0519 55.9785 53.5325 56.2972 52.0986 56.0455C50.6647 55.7938 49.4338 54.9924 48.6767 53.8175C47.9195 52.6427 47.6982 51.1906 48.0613 49.7808C48.4245 48.371 49.3424 47.119 50.6131 46.3C51.8838 45.4811 53.4032 45.1625 54.8371 45.4141C56.271 45.6658 57.5019 46.4673 58.2591 47.6421Z" fill="#181D42"/>
<path d="M83.955 49.141C84.3261 49.8569 84.5433 50.6436 84.5944 51.4562C84.6454 52.2688 84.5292 53.0914 84.2524 53.8771C83.9756 54.6628 83.5437 55.3961 82.9812 56.0352C82.4188 56.6743 81.7368 57.2067 80.9743 57.6019C79.4344 58.4001 77.6599 58.5913 76.0411 58.1334C74.4223 57.6756 73.0919 56.6061 72.3425 55.1604C71.9714 54.4445 71.7541 53.6578 71.7031 52.8452C71.6521 52.0326 71.7683 51.21 72.0451 50.4243C72.3218 49.6386 72.7538 48.9053 73.3162 48.2662C73.8787 47.6271 74.5606 47.0947 75.3231 46.6995C76.8631 45.9013 78.6376 45.7101 80.2564 46.1679C81.8752 46.6258 83.2056 47.6953 83.955 49.141Z" fill="#181D42"/>
</svg>
