<svg width="300" height="300" viewBox="0 0 300 300" fill="none" xmlns="http://www.w3.org/2000/svg">
<path d="M208.092 35.3649C206.225 35.6315 201.159 36.5649 196.759 37.3649C192.359 38.0315 185.025 39.8982 180.492 41.3649C171.159 44.4315 150.625 56.2982 141.159 64.1649L134.892 69.3649L125.425 66.4315C116.892 63.8982 113.692 63.6315 95.0254 64.1649C78.0921 64.6982 72.0921 65.4982 63.4254 68.0315C51.2921 71.7649 38.0921 78.6982 29.6921 85.8982C20.3588 94.0315 9.55878 118.698 11.1588 128.298C12.6254 137.098 16.2254 151.098 19.5588 160.965C21.4254 166.565 24.4921 176.165 26.2254 182.165C27.9588 188.298 31.5588 198.698 34.2254 205.498C36.8921 212.165 40.7588 223.765 42.7588 231.098C46.6254 244.965 52.8921 263.632 56.4921 271.898C57.8254 274.965 60.4921 277.632 64.4921 279.765L70.4921 282.965L79.5588 277.632C108.359 260.698 130.492 253.232 152.492 253.232C159.159 253.232 166.092 254.032 169.425 255.232C178.092 258.298 180.359 257.765 189.559 250.298C206.225 236.832 230.759 227.632 256.359 225.232C274.892 223.365 277.425 222.032 284.092 210.298C289.292 200.965 289.559 200.165 289.025 191.232C288.359 181.765 287.559 179.098 269.425 127.898C264.892 115.098 259.425 99.4982 257.292 93.2315C248.492 66.6982 238.759 40.6982 237.159 39.6315C232.359 36.5649 215.425 34.0315 208.092 35.3649ZM225.025 52.9649C226.359 53.8982 241.825 94.9649 260.759 148.698C265.425 161.898 270.492 175.765 271.959 179.498L274.625 186.165L262.359 187.098C234.492 188.965 198.492 202.432 182.625 216.832C177.559 221.365 177.292 221.498 173.025 219.765C169.959 218.432 162.359 217.898 145.425 218.032H122.092L106.892 223.098C98.4921 225.898 88.8921 229.898 85.4254 232.032C81.9588 234.165 78.4921 235.898 77.8254 235.898C77.1588 235.898 75.5588 232.698 74.4921 228.832C62.2254 188.698 55.4254 167.098 45.2921 136.032C34.2254 102.032 33.5588 99.3649 35.6921 97.7649C41.6921 93.3649 58.8921 85.2315 66.7588 83.0982C79.2921 79.6315 113.959 79.6315 123.425 83.0982C133.025 86.5648 135.425 86.2982 141.292 80.4315C148.225 73.3649 181.825 56.4315 193.425 54.0315C202.892 52.0315 222.492 51.3649 225.025 52.9649Z" fill="black"/>
<path d="M138.092 93.7648C128.092 96.9648 119.425 102.298 112.625 109.498C103.958 118.698 100.492 125.365 98.4918 137.098C93.4251 166.698 113.158 193.765 143.158 198.565C167.825 202.431 194.092 188.031 202.892 165.631C207.292 154.698 207.292 135.765 203.025 124.965C199.692 116.565 190.225 105.365 182.625 100.431C170.225 92.6981 150.758 89.7648 138.092 93.7648ZM167.425 109.765C182.758 116.965 191.958 132.965 190.225 149.765C189.158 160.431 185.292 167.898 177.158 175.231C157.958 192.431 129.025 186.165 116.358 161.898C111.825 152.965 111.425 138.298 115.558 129.098C119.558 120.431 126.358 113.231 134.092 109.765C143.425 105.365 158.092 105.365 167.425 109.765Z" fill="black"/>
<path d="M167.425 109.765C182.758 116.965 191.958 132.965 190.225 149.765C189.158 160.432 185.292 167.898 177.158 175.232C157.958 192.432 129.025 186.165 116.358 161.898C111.825 152.965 111.425 138.298 115.558 129.098C119.558 120.432 126.358 113.232 134.092 109.765C143.425 105.365 158.092 105.365 167.425 109.765Z" fill="#FF9363"/>
<path d="M169.795 135.235C172.802 135.819 174.063 139.428 172.075 141.758L152.796 164.348C150.788 166.7 146.984 165.982 145.973 163.059L136.207 134.825C135.199 131.913 137.725 129.003 140.75 129.591L169.795 135.235Z" fill="white"/>
</svg>
