<svg width="300" height="300" viewBox="0 0 300 300" fill="none" xmlns="http://www.w3.org/2000/svg">
<path d="M184.141 27.875L52.1984 117.269L59.0748 148.213L197.464 62.6872L202.192 49.364L184.141 27.875Z" fill="#88B5FE"/>
<path d="M180.731 21.3386C176.949 22.1408 143.025 44.604 79.9909 87.6966C73.1144 92.3956 65.3211 97.6675 62.6851 99.5013C56.7255 103.513 48.8175 112.108 47.213 116.234C44.6916 122.767 46.0669 134.227 54.0895 171.475C73.3436 260.296 73.802 262.015 79.7617 267.517C82.5123 270.153 102.912 278.061 106.809 278.061C111.05 278.061 124.344 270.153 158.497 247.46C178.325 234.166 198.725 220.871 203.768 217.891C222.563 206.66 242.505 192.563 247.204 187.406C252.591 181.446 254.768 175.716 254.768 167.349C254.768 160.817 243.766 120.475 231.273 81.5078C226.575 66.9526 221.99 52.3974 221.073 48.9591C220.042 45.5209 217.864 40.4781 216.26 37.6129C213.624 33.1432 211.905 31.8825 202.278 27.2982C189.785 21.4532 185.774 20.3071 180.731 21.3386ZM187.722 38.0714C189.212 38.9882 190.702 40.7073 191.161 41.7388C192.421 44.7186 195.287 56.0648 194.943 56.294C194.714 56.4086 187.608 61.1076 179.127 66.6087C170.646 72.2245 155.403 82.0808 145.317 88.7281C135.232 95.3754 118.728 106.149 108.643 112.796C98.5574 119.443 84.346 128.841 77.1257 133.654C69.9054 138.468 63.3727 142.708 62.5705 143.167C60.7367 144.313 57.6423 133.196 57.6423 125.403C57.6423 117.724 59.2468 115.432 67.6132 110.733C73.4582 107.409 127.553 71.6515 165.947 45.6355C173.511 40.4781 180.846 36.2376 182.336 36.2376C183.711 36.2376 186.118 37.0399 187.722 38.0714ZM204.799 86.8944C207.664 97.2091 213.165 116.119 216.947 128.956C220.73 141.906 224.397 156.347 225.085 161.275C226.689 172.507 225.314 175.601 215.572 181.561C200.902 190.5 117.238 246.658 109.216 252.847C100.735 259.494 92.5978 261.557 88.3573 258.233C87.2112 257.431 85.3775 251.471 83.4291 242.532C81.8246 234.624 78.9594 221.788 77.1257 213.88C67.8424 173.653 64.0604 154.972 65.0918 154.628C65.7795 154.398 71.9683 150.616 78.8448 146.032C85.8359 141.562 94.7753 135.717 98.9012 133.081C122.281 118.068 157.237 95.2608 176.262 82.7685C188.181 74.8605 198.381 68.3279 198.725 68.3279C199.183 68.3279 201.819 76.6943 204.799 86.8944Z" fill="black"/>
<path d="M89.0446 101.335C84.3457 104.43 84.5749 112.911 89.2738 116.005C93.0559 118.526 97.2964 117.266 100.047 112.681C102.454 108.785 102.225 105.805 99.1301 102.367C97.411 100.418 91.3368 99.7307 89.0446 101.335ZM95.9211 107.524C96.7234 108.899 96.6087 109.931 95.5773 111.191C93.5143 113.598 92.3683 113.484 90.8783 110.618C89.8469 108.899 89.9615 107.868 90.993 106.607C92.5975 104.659 94.202 105.003 95.9211 107.524Z" fill="black"/>
<path d="M69.2174 115.202C65.8937 118.525 66.1229 123.912 69.6758 127.35C72.9994 130.788 76.3231 131.018 79.4175 127.923C82.6265 124.714 83.5434 120.015 81.595 116.577C79.3029 112.566 72.541 111.878 69.2174 115.202ZM77.6984 119.901C78.386 122.193 76.6669 125.631 74.7185 125.631C74.2601 125.631 72.9994 124.829 72.0826 123.797C70.7073 122.422 70.5927 121.505 71.3949 119.786C72.9994 116.921 76.7815 117.035 77.6984 119.901Z" fill="black"/>
<path d="M172.594 152.107C166.405 156.118 163.655 166.433 166.978 174.112C169.614 180.415 173.969 183.51 180.273 183.51C186.232 183.51 190.358 180.759 193.567 174.685C195.63 170.674 195.63 161.963 193.453 157.723C189.327 149.815 180.044 147.294 172.594 152.107ZM186.003 160.015C189.556 163.568 189.212 171.705 185.315 174.8C181.648 177.665 179.356 177.779 176.032 175.487C172.594 173.08 171.563 167.006 173.855 162.536C176.605 157.265 182.106 156.118 186.003 160.015Z" fill="black"/>
<path d="M180.044 163.108C177.637 164.254 176.835 165.629 176.835 167.921C176.835 172.506 180.044 173.423 183.367 169.87C186.347 166.546 186.576 165.744 184.628 163.337C183.367 161.733 182.68 161.733 180.044 163.108Z" fill="black"/>
<path d="M110.821 196.804C103.142 198.982 97.7555 208.265 99.36 216.631C100.391 221.903 105.893 228.207 110.935 229.926C116.093 231.645 121.594 229.238 125.949 223.508C128.7 219.955 129.273 218.121 129.273 212.735C129.158 201.045 120.906 193.939 110.821 196.804ZM118.385 204.712C122.74 207.119 123.657 217.663 119.646 221.101C116.207 224.196 113.228 224.425 110.019 221.789C105.778 218.465 105.663 210.443 109.789 206.431C112.769 203.337 115.061 202.879 118.385 204.712Z" fill="black"/>
<path d="M143.882 172.916C136.204 175.093 130.817 184.376 132.422 192.743C133.453 198.015 138.954 204.318 143.997 206.037C149.154 207.756 154.656 205.35 159.011 199.619C161.761 196.066 162.334 194.233 162.334 188.846C162.22 177.156 153.968 170.05 143.882 172.916ZM151.446 180.824C155.802 183.23 156.718 193.774 152.707 197.213C149.269 200.307 146.289 200.536 143.08 197.9C138.84 194.577 138.725 186.554 142.851 182.543C145.831 179.448 148.123 178.99 151.446 180.824Z" fill="#FF9363"/>
<path d="M110.591 208.951C109.331 211.358 110.018 214.109 112.196 215.369C113.113 215.828 113.8 217.318 113.8 218.464C113.8 219.724 114.488 220.756 115.405 220.756C117.582 220.756 118.728 218.808 117.582 216.974C117.124 216.286 116.665 213.765 116.665 211.587C116.665 208.378 116.207 207.461 114.144 207.232C112.654 207.003 111.279 207.691 110.591 208.951Z" fill="black"/>
<path d="M144.8 186.94C143.539 189.346 144.227 192.097 146.404 193.358C147.321 193.816 148.732 192.657 149.186 192.211C149.641 191.765 149.186 192.208 149.186 192.208C149.186 192.208 150.874 191.753 150.874 189.576C150.874 186.367 150.415 185.45 148.353 185.22C146.863 184.991 145.487 185.679 144.8 186.94Z" fill="#FF9363"/>
</svg>
