<svg width="300" height="300" viewBox="0 0 300 300" fill="none" xmlns="http://www.w3.org/2000/svg">
<path d="M157.134 63.6783C192.067 70.8783 222.6 90.6116 241.4 118.212C268.067 157.545 262.467 206.345 227.934 234.345C199.667 257.145 164.6 263.545 118.467 254.345C107.4 252.078 96.8669 250.612 95.1336 251.012C93.2669 251.545 87.0003 253.812 81.1336 256.212C62.7336 263.812 64.4669 264.612 64.4669 248.612C64.3336 229.545 63.4002 226.078 54.8669 217.145C35.9336 197.012 26.4669 176.745 24.8669 152.745C23.2669 129.012 31.2669 108.478 49.0002 90.8783C61.9336 78.2116 74.8669 70.4783 91.8003 65.5449C112.467 59.5449 133.8 59.0116 157.134 63.6783Z" fill="#88B5FE"/>
<path d="M123 22.3462C103.4 25.1462 80.8667 34.7462 65.1333 46.7462C54.6 54.8796 35 77.1462 28.0667 89.0129C13 114.48 9 127.013 9 149.013C9 177.146 19.4 202.346 40.3333 224.746L48.3333 233.28L47.9333 251.146C47.2667 276.613 49.4 281.013 60.6 278.88C63.1333 278.48 73.4 275.013 83.4 271.413L101.533 264.746L115 268.213C131.667 272.613 159.4 274.08 176.867 271.546C198.2 268.346 219.267 259.68 235.533 247.146C244.867 239.946 259.667 222.213 272.067 203.146C283.533 185.813 287.133 177.813 289.8 163.946C296.6 128.213 283.667 92.6129 253.533 63.4129C224.467 35.4129 186.067 20.4796 144.6 21.0129C137.133 21.1462 127.4 21.6796 123 22.3462ZM156.333 63.6796C191.267 70.8796 221.8 90.6129 240.6 118.213C267.267 157.546 261.667 206.346 227.133 234.346C198.867 257.146 163.8 263.546 117.667 254.346C106.6 252.08 96.0667 250.613 94.3333 251.013C92.4667 251.546 86.2 253.813 80.3333 256.213C61.9333 263.813 63.6667 264.613 63.6667 248.613C63.5333 229.546 62.6 226.08 54.0667 217.146C35.1333 197.013 25.6667 176.746 24.0667 152.746C22.4667 129.013 30.4667 108.48 48.2 90.8796C61.1333 78.2129 74.0667 70.4796 91 65.5462C111.667 59.5462 133 59.0129 156.333 63.6796Z" fill="black"/>
<path d="M70.467 123.813C60.467 128.747 56.6004 142.613 62.7337 151.547C69.8004 162.08 84.867 163.947 93.667 155.547C101.934 147.547 102.734 138.08 96.067 129.013C89.8004 120.88 80.3337 118.88 70.467 123.813Z" fill="black"/>
<path d="M124.067 144.88C115.133 150.213 111.8 163.813 117.133 172.48C120.2 177.413 129.133 182.213 135.133 182.213C143.4 182.213 152.867 174.48 155 166.08C156.467 160.08 153.4 152.213 147.667 147.013C143 142.746 141.533 142.213 135.267 142.213C130.733 142.213 126.867 143.146 124.067 144.88Z" fill="black"/>
<path d="M178.334 166.48C171 171.546 168.467 175.946 168.467 184.08C168.334 190.346 168.867 191.946 172.2 195.413C180.6 204.213 192.867 205.546 201 198.613C209.4 191.546 211.134 182.746 205.934 173.546C200.467 163.813 187.267 160.48 178.334 166.48Z" fill="black"/>
</svg>
