<svg width="300" height="300" viewBox="0 0 300 300" fill="none" xmlns="http://www.w3.org/2000/svg">
<path d="M52.997 238.669C8.2638 190.246 11.2546 114.729 59.6771 69.9956L77.3303 53.6874C125.753 8.95423 201.271 11.945 246.004 60.3675C290.737 108.79 287.746 184.308 239.324 229.041L221.67 245.349C173.248 290.082 97.7302 287.092 52.997 238.669Z" fill="black"/>
<ellipse cx="160.184" cy="139.478" rx="103.442" ry="105.597" fill="#FFC309"/>
<ellipse cx="178.789" cy="92.7016" rx="16.1628" ry="23.7055" transform="rotate(-37.3198 178.789 92.7016)" fill="black"/>
<ellipse cx="116.293" cy="131.493" rx="16.1628" ry="23.7055" transform="rotate(-37.3198 116.293 131.493)" fill="black"/>
<path d="M130.069 181.608L215.284 128.474C217.034 127.382 219.311 127.813 220.407 129.56C226.939 139.969 244.846 175.252 207.595 201.975C165.556 232.134 136.694 197.958 128.898 186.883C127.655 185.117 128.236 182.75 130.069 181.608Z" fill="black"/>
</svg>
