<svg width="300" height="300" viewBox="0 0 300 300" fill="none" xmlns="http://www.w3.org/2000/svg">
<path d="M114.471 48.3926C121.908 51.1125 126.604 54.4153 137.368 64.9066C140.89 68.4037 144.804 71.3179 145.978 71.3179C146.957 71.3179 147.935 72.2893 147.935 73.455C147.935 75.0093 152.828 75.2036 165.157 74.2322C201.948 71.3179 211.929 73.0665 223.28 83.9463C228.172 88.4147 232.086 94.049 232.086 96.1861C232.086 98.5175 233.065 100.849 234.043 101.432C235.217 102.015 236 107.843 236 114.254C236 120.666 235.217 125.717 234.043 125.717C233.065 125.717 232.086 128.826 232.086 132.517C232.086 136.208 231.303 139.317 230.129 139.317C229.151 139.317 228.172 141.065 228.172 143.202C228.172 145.34 227.389 147.088 226.215 147.088C225.237 147.088 224.258 148.837 224.258 150.974C224.258 153.111 223.475 154.859 222.301 154.859C221.323 154.859 220.344 156.025 220.344 157.191C220.344 163.796 177.29 207.316 170.832 207.316C169.462 207.316 167.114 209.064 165.548 211.201C163.983 213.338 161.243 215.087 159.286 215.087C157.329 215.087 155.763 215.864 155.763 217.03C155.763 218.001 154.002 218.973 151.849 218.973C149.697 218.973 147.935 219.75 147.935 220.915C147.935 221.887 145.783 222.858 143.239 222.858C140.499 222.858 137.759 223.635 137.172 224.801C136.585 225.772 133.845 226.744 131.301 226.744C128.757 226.744 126.017 227.521 125.43 228.687C124.843 229.658 121.32 230.629 117.994 230.824C114.471 230.824 109.97 231.601 107.817 232.378C105.665 233.349 102.142 233.155 99.9892 231.989C93.5312 228.687 82.1806 215.087 77.2882 205.178C74.9398 199.933 72.2 195.659 71.2215 195.659C70.4387 195.659 69.6559 194.299 69.6559 192.744C69.6559 191.19 68.8731 188.276 67.8946 186.333C62.4151 175.842 57.914 160.688 57.914 153.305C57.914 149.808 57.1312 147.088 55.957 147.088C54.7828 147.088 54 136.985 54 120.86C54 104.734 54.7828 94.6318 55.957 94.6318C57.1312 94.6318 57.914 92.689 57.914 90.3576C57.914 86.0834 61.828 73.6493 64.1763 70.3465C79.8323 48.7812 95.4882 41.787 114.471 48.3926Z" fill="#FF8E63"/>
<path d="M89.2768 28.3387C84.7789 28.7127 81.2181 29.8347 81.2181 30.9567C81.2181 31.8917 79.5314 32.6397 77.4699 32.6397C75.4084 32.6397 73.7217 33.3877 73.7217 34.5098C73.7217 35.4447 72.7846 36.3797 71.8476 36.3797C69.2238 36.3797 53.1064 52.4618 53.1064 55.0798C53.1064 56.0148 52.5442 56.9498 51.6071 56.9498C50.8575 56.9498 49.1708 59.7548 47.8589 62.9338C46.3596 66.2998 44.6729 70.7878 43.7359 72.8448C34.5527 94.5368 32.4912 123.148 38.1135 152.32C39.238 157.93 40.5499 165.41 41.2995 168.589C41.8618 171.955 42.9862 174.76 43.9233 174.76C44.8603 174.76 45.61 177.191 45.61 180.183C45.61 183.362 46.547 186.354 47.4841 186.915C48.6086 187.476 49.3582 189.72 49.3582 191.777C49.3582 193.647 50.2953 195.33 51.2323 195.33C52.3568 195.33 53.1064 197.013 53.1064 199.07C53.1064 201.127 54.0435 202.81 54.9805 202.81C56.105 202.81 56.8547 204.493 56.8547 206.55C56.8547 208.607 57.7917 210.29 58.7288 210.29C59.8532 210.29 60.6029 211.973 60.6029 214.03C60.6029 216.087 61.5399 217.77 62.477 217.77C63.6015 217.77 64.3511 219.079 64.3511 220.575C64.3511 222.071 65.1008 223.38 65.8504 223.38C66.6 223.38 68.6616 225.811 70.5357 228.803C72.2224 231.795 75.9706 236.657 78.7818 239.836C81.7804 242.828 85.3412 247.316 86.8405 249.56C91.3383 256.105 95.6488 260.78 97.1481 260.78C97.8977 260.78 99.9593 262.276 101.646 264.146C106.893 270.13 112.328 272 125.072 272C137.816 272 154.309 268.634 154.309 266.016C154.309 265.268 156.932 264.52 159.931 264.52C163.117 264.52 165.553 263.585 165.553 262.65C165.553 261.528 167.24 260.78 169.301 260.78C171.363 260.78 173.05 259.845 173.05 258.91C173.05 257.788 175.111 257.04 177.735 257.04C180.359 257.04 182.42 256.105 182.42 255.17C182.42 254.048 184.107 253.3 186.168 253.3C188.23 253.3 189.917 252.365 189.917 251.43C189.917 250.308 190.666 249.56 191.791 249.56C193.477 249.56 197.601 246.568 203.785 241.145C204.91 240.023 208.658 237.031 212.219 234.6C227.774 223.754 255.698 195.517 260.946 185.419C262.445 182.614 264.319 180.37 265.256 180.37C266.006 180.37 266.755 178.687 266.755 176.63C266.755 174.573 267.692 172.89 268.629 172.89C269.754 172.89 270.504 171.207 270.504 169.337C270.504 167.28 271.441 165.036 272.378 164.475C273.502 163.914 274.252 161.67 274.252 159.613C274.252 157.743 275.189 156.06 276.126 156.06C277.25 156.06 278 148.019 278 135.49C278 122.961 277.25 114.92 276.126 114.92C275.189 114.92 274.252 111.928 274.252 108.375C274.252 104.822 273.502 101.83 272.378 101.83C271.441 101.83 270.504 100.521 270.504 99.0248C270.504 93.9758 246.702 69.1048 237.519 64.4298C234.521 62.9338 231.709 61.2508 231.147 60.6898C229.086 58.6328 216.154 55.2668 201.349 53.2098C188.792 51.3398 183.17 51.3398 173.05 53.2098L160.493 55.6408L154.309 49.6568C150.935 46.4778 147.374 43.8598 146.437 43.8598C145.5 43.8598 143.064 42.1768 140.815 40.1198C138.566 38.0627 135.567 36.3797 134.256 36.3797C132.944 36.3797 131.819 35.4447 131.819 34.5098C131.819 33.3877 129.758 32.6397 127.321 32.6397C124.885 32.6397 122.449 31.8917 122.074 30.9567C121.324 29.0867 100.147 27.2167 89.2768 28.3387ZM114.765 49.8438C121.886 52.4618 126.384 55.6408 136.692 65.7388C140.065 69.1048 143.813 71.9098 144.938 71.9098C145.875 71.9098 146.812 72.8448 146.812 73.9668C146.812 75.4628 151.497 75.6498 163.304 74.7148C198.538 71.9098 208.096 73.5928 218.965 84.0648C223.651 88.3658 227.399 93.7888 227.399 95.8458C227.399 98.0898 228.336 100.334 229.273 100.895C230.398 101.456 231.147 107.066 231.147 113.237C231.147 119.408 230.398 124.27 229.273 124.27C228.336 124.27 227.399 127.262 227.399 130.815C227.399 134.368 226.649 137.36 225.525 137.36C224.588 137.36 223.651 139.043 223.651 141.1C223.651 143.157 222.901 144.84 221.777 144.84C220.84 144.84 219.902 146.523 219.902 148.58C219.902 150.637 219.153 152.32 218.028 152.32C217.091 152.32 216.154 153.442 216.154 154.564C216.154 160.922 174.924 202.81 168.739 202.81C167.427 202.81 165.178 204.493 163.679 206.55C162.18 208.607 159.556 210.29 157.682 210.29C155.808 210.29 154.309 211.038 154.309 212.16C154.309 213.095 152.622 214.03 150.56 214.03C148.499 214.03 146.812 214.778 146.812 215.9C146.812 216.835 144.751 217.77 142.314 217.77C139.69 217.77 137.067 218.518 136.504 219.64C135.942 220.575 133.318 221.51 130.882 221.51C128.446 221.51 125.822 222.258 125.26 223.38C124.698 224.315 121.324 225.25 118.138 225.437C114.765 225.437 110.454 226.185 108.393 226.933C106.331 227.868 102.958 227.681 100.896 226.559C94.7117 223.38 83.8419 210.29 79.1566 200.753C76.9077 195.704 74.2839 191.59 73.3469 191.59C72.5972 191.59 71.8476 190.281 71.8476 188.785C71.8476 187.289 71.0979 184.484 70.1609 182.614C64.9133 172.516 60.6029 157.93 60.6029 150.824C60.6029 147.458 59.8532 144.84 58.7288 144.84C57.6043 144.84 56.8547 135.116 56.8547 119.595C56.8547 104.074 57.6043 94.3498 58.7288 94.3498C59.8532 94.3498 60.6029 92.4798 60.6029 90.2358C60.6029 86.1218 64.3511 74.1538 66.6 70.9748C81.593 50.2178 96.5858 43.4857 114.765 49.8438Z" fill="black"/>
</svg>
