<svg width="300" height="300" viewBox="0 0 300 300" fill="none" xmlns="http://www.w3.org/2000/svg">
<path d="M89.4139 25.183C86.5228 26.5707 83.4005 29.2305 81.6658 31.8903C78.1966 37.3255 72.6457 53.7467 69.9859 66.9299C68.8295 72.2495 67.4418 78.0316 66.8636 79.6506C64.5507 85.8953 54.0273 122.67 42.81 164.07C36.4496 187.892 29.7423 212.061 28.1234 217.843C23.7289 232.993 23.8446 237.387 29.2798 244.788C35.987 253.924 48.1295 265.026 52.9865 266.529C68.8295 271.501 117.168 279.712 146.888 282.603C157.412 283.644 169.785 284.916 174.411 285.61C187.479 287.229 190.832 286.882 198.465 283.297C209.566 278.093 211.532 274.739 218.355 250.455C223.906 230.333 229.457 209.633 233.158 194.715C234.198 190.899 235.933 185.117 237.089 181.879C238.246 178.525 241.715 167.655 244.606 157.594C247.613 147.417 251.776 132.962 254.089 125.329C262.068 98.5003 266 82.5417 266 76.7595C266 69.821 261.952 61.1478 255.014 53.2841C246.688 43.8014 228.994 37.5567 202.975 35.0126C193.492 34.0875 175.452 31.7746 163.078 29.9243C138.562 26.2238 108.495 22.9858 99.7061 22.9858C96.6994 22.9858 92.0737 24.0266 89.4139 25.183ZM154.405 44.4953C194.764 50.0461 226.566 55.8282 231.539 58.3724C237.899 61.726 237.436 68.5489 229.341 88.902C223.097 104.398 219.28 115.731 211.648 141.519C208.988 150.424 204.825 164.185 202.397 172.165C199.852 180.144 195.227 195.756 191.873 206.857C188.635 217.959 184.356 229.755 182.506 233.108C179.152 239.006 173.486 244.904 170.826 245.135C170.017 245.135 165.275 245.598 160.187 246.06C152.786 246.754 146.657 246.291 128.964 243.747C116.937 242.013 102.597 239.815 97.1619 238.775C91.7267 237.734 77.9653 235.652 66.6323 234.149C48.0139 231.72 45.5854 231.142 43.6194 228.714C42.1161 226.748 41.5379 224.782 41.8848 221.313C42.3474 217.381 52.6396 180.953 64.782 140.941C66.6323 134.928 72.0675 114.806 76.9245 96.4188C91.6111 40.7947 91.4954 41.026 99.7061 39.1757C105.257 38.0193 113.468 38.8288 154.405 44.4953Z" fill="black"/>
<ellipse cx="146.552" cy="119.368" rx="48.8988" ry="51.6055" transform="rotate(19.4069 146.552 119.368)" fill="#A1DE6E"/>
<path d="M123.183 130.494V137.414C123.18 138.056 123.312 138.692 123.57 139.281C123.828 139.869 124.206 140.398 124.68 140.832C125.155 141.266 125.715 141.597 126.325 141.803C126.934 142.009 127.58 142.085 128.221 142.027C135.334 141.256 142.165 138.831 148.168 134.946C153.752 131.404 158.487 126.679 162.035 121.106C165.941 115.088 168.372 108.237 169.131 101.107C169.188 100.469 169.112 99.8261 168.908 99.2192C168.703 98.6122 168.374 98.0545 167.941 97.5814C167.508 97.1084 166.982 96.7305 166.395 96.4717C165.808 96.2129 165.173 96.079 164.531 96.0783H157.598C156.476 96.0673 155.388 96.4637 154.538 97.1937C153.687 97.9237 153.132 98.9373 152.975 100.046C152.682 102.26 152.14 104.435 151.357 106.528C151.046 107.353 150.979 108.25 151.163 109.113C151.348 109.976 151.776 110.768 152.397 111.395L155.332 114.324C152.042 120.099 147.251 124.881 141.465 128.164L138.53 125.235C137.901 124.615 137.108 124.187 136.244 124.003C135.379 123.819 134.48 123.886 133.653 124.197C131.556 124.978 129.377 125.519 127.158 125.811C126.036 125.969 125.01 126.534 124.277 127.397C123.544 128.261 123.155 129.363 123.183 130.494Z" fill="black"/>
<path d="M70.7956 216.805C69.4079 217.73 68.2515 219.812 68.2515 221.431C68.2515 226.635 71.3738 228.254 85.0196 229.757C92.0738 230.567 106.76 232.533 117.746 234.152C139.372 237.158 141.684 236.927 142.957 231.608C143.882 227.907 140.875 224.438 136.018 223.628C133.011 223.166 74.1492 214.955 73.571 214.955C73.4554 214.955 72.1833 215.765 70.7956 216.805Z" fill="black"/>
</svg>
