<svg width="300" height="300" viewBox="0 0 300 300" fill="none" xmlns="http://www.w3.org/2000/svg">
<path d="M37.149 167.26C33.2174 160.904 31.7143 153.342 32.9162 145.966L33.4836 142.484C34.8956 133.819 39.9157 126.159 47.2974 121.406L176.344 38.3134C187.473 31.1475 202.302 34.3448 209.49 45.4597L265.523 132.108C270.181 139.311 271.411 148.208 268.883 156.405C266.949 162.673 262.948 168.101 257.532 171.802L116.656 268.067C110.089 272.555 101.106 270.652 96.9218 263.888L37.149 167.26Z" fill="#0C0C0A"/>
<rect x="44.5664" y="136.312" width="180.443" height="127.88" rx="13.9501" transform="rotate(-33.3684 44.5664 136.312)" fill="#F8F4F0"/>
<path d="M122.256 178.893C120.843 176.748 121.437 173.865 123.582 172.452L144.298 158.808C146.443 157.396 149.327 157.989 150.739 160.134L162.335 177.741L133.852 196.5L122.256 178.893Z" fill="#8AB2F5" stroke="black" stroke-width="6.97503"/>
<path d="M137.586 147.651C136.173 145.506 136.767 142.622 138.912 141.21L159.628 127.566C161.773 126.154 164.657 126.747 166.07 128.892L187.47 161.387L158.987 180.146L137.586 147.651Z" fill="#F59772" stroke="black" stroke-width="6.97503"/>
<path d="M147.104 110.887C145.691 108.743 146.285 105.859 148.43 104.446L169.147 90.8025C171.291 89.39 174.175 89.9836 175.588 92.1284L210.999 145.897L182.515 164.656L147.104 110.887Z" fill="#F7C30E" stroke="black" stroke-width="6.97503"/>
<line x1="119.485" y1="208.851" x2="226.023" y2="138.101" stroke="black" stroke-width="6.97503"/>
</svg>
