<svg width="300" height="300" viewBox="0 0 300 300" fill="none" xmlns="http://www.w3.org/2000/svg">
<path d="M182.412 233.534L53.1629 178.649C45.9282 174.797 46.5311 169.019 47.7369 166.611C59.5938 137.117 84.2064 73.9218 92.3512 59.4709C101.5 43.2388 111.443 45.2256 116.467 47.4327L268.157 110.284C268.635 110.482 268.883 111.011 268.729 111.505L226.5 205.5C210.316 253.099 206.141 232.988 190.727 234.988C187.886 235.357 185.05 234.654 182.412 233.534Z" fill="white"/>
<path d="M182.412 233.534L53.1629 178.649C45.9282 174.797 46.5311 169.019 47.7369 166.611C59.5938 137.117 84.2064 73.9218 92.3512 59.4709C101.5 43.2388 111.443 45.2256 116.467 47.4327L268.157 110.284C268.635 110.482 268.883 111.011 268.729 111.505L226.5 205.5C210.316 253.099 206.141 232.988 190.727 234.988C187.886 235.357 185.05 234.654 182.412 233.534Z" fill="white"/>
<path d="M266.018 120.238L271 105.738C271.603 103.75 271.431 102.507 269.5 101.738L126.323 43.8441C119.213 41.0134 111.269 41.4749 104.584 44.9989C102.87 45.9023 101.42 47.2153 100.099 48.6324L100 48.7383L94.682 55.7383M53.1629 178.649L182.412 233.534C185.05 234.654 187.886 235.357 190.727 234.988C206.141 232.988 210.316 253.099 226.5 205.5L268.729 111.505C268.883 111.011 268.635 110.482 268.157 110.284L116.467 47.4327C111.443 45.2256 101.5 43.2388 92.3512 59.4709C84.2064 73.9218 59.5938 137.117 47.7369 166.611C46.5311 169.019 45.9282 174.797 53.1629 178.649Z" stroke="black" stroke-width="11"/>
<path d="M121.5 101.738L138 137.738L173 163.238" stroke="black" stroke-width="10"/>
<circle cx="122" cy="95.2383" r="10" fill="#FF8E63" stroke="black" stroke-width="8"/>
<circle cx="136" cy="132.238" r="10" fill="#FF8E63" stroke="black" stroke-width="8"/>
<circle cx="170" cy="160.238" r="10" fill="#FF8E63" stroke="black" stroke-width="8"/>
<circle cx="194.412" cy="217.826" r="9.8823" fill="white"/>
<path d="M171.45 221.943L184.701 241.812L145.905 267.686C137.26 273.452 125.577 271.118 119.811 262.472C118.258 260.144 118.887 256.999 121.215 255.447L171.45 221.943Z" fill="#0A0A0A"/>
<path d="M176.055 229.049L178.941 233.165L155.539 249.33L134.415 262.918C133.237 263.676 131.669 263.349 130.892 262.184C130.103 261.001 130.403 259.406 131.567 258.59L151.833 244.389L176.055 229.049Z" fill="#FEC409"/>
<path d="M210.882 217.826C210.882 226.922 203.508 234.296 194.411 234.296C185.315 234.296 177.941 226.922 177.941 217.826C177.941 208.73 185.315 201.355 194.411 201.355C203.508 201.355 210.882 208.73 210.882 217.826ZM184.501 217.826C184.501 223.299 188.938 227.736 194.411 227.736C199.885 227.736 204.322 223.299 204.322 217.826C204.322 212.353 199.885 207.916 194.411 207.916C188.938 207.916 184.501 212.353 184.501 217.826Z" fill="#0B0B0B"/>
<path d="M218.294 217.826C218.294 231.015 207.601 241.708 194.412 241.708C181.222 241.708 170.529 231.015 170.529 217.826C170.529 204.636 181.222 193.943 194.412 193.943C207.601 193.943 218.294 204.636 218.294 217.826ZM177.907 217.826C177.907 226.941 185.297 234.33 194.412 234.33C203.526 234.33 210.916 226.941 210.916 217.826C210.916 208.711 203.526 201.321 194.412 201.321C185.297 201.321 177.907 208.711 177.907 217.826Z" fill="#88B5FC"/>
<path d="M229 217.826C229 236.929 213.514 252.414 194.412 252.414C175.309 252.414 159.824 236.929 159.824 217.826C159.824 198.724 175.309 183.238 194.412 183.238C213.514 183.238 229 198.724 229 217.826ZM170.509 217.826C170.509 231.027 181.211 241.729 194.412 241.729C207.613 241.729 218.314 231.027 218.314 217.826C218.314 204.625 207.613 193.924 194.412 193.924C181.211 193.924 170.509 204.625 170.509 217.826Z" fill="#0A0A0A"/>
</svg>
