<svg width="300" height="300" viewBox="0 0 300 300" fill="none" xmlns="http://www.w3.org/2000/svg">
<path d="M113.449 44.2117C108.334 48.2147 106.555 54.2192 100.772 85.5761L95.6575 112.93L83.2037 120.936C52.9588 140.284 39.8378 153.85 44.2856 161.188C47.6214 166.748 71.1947 178.757 84.538 181.871C100.55 185.429 100.772 185.651 98.5485 197.215C95.4351 212.56 95.8799 236.578 99.4381 244.807C106.332 261.486 119.453 266.156 131.462 256.148C135.02 253.257 143.249 240.804 149.92 228.35C161.04 207.89 162.374 206.111 167.489 207.223C183.056 210.559 216.415 213.227 223.976 211.893L232.649 210.336L231.315 198.105C230.425 189.209 226.867 179.647 217.304 162.3C207.519 143.62 205.295 137.838 207.074 135.169C217.082 120.714 229.98 96.4731 229.091 94.0269C227.534 90.2462 204.406 86.0208 185.503 86.0208C169.935 86.0208 168.379 84.9089 148.808 60.6685C135.243 43.7669 122.122 37.7624 113.449 44.2117ZM127.682 52.8849C130.128 53.9968 138.134 62.8924 145.695 72.2327C153.034 81.5731 160.595 90.2462 162.374 91.1358C164.153 92.2477 176.385 93.3597 189.728 93.5821C203.071 93.5821 214.636 94.4716 215.303 95.3612C217.082 97.1403 205.74 118.267 197.067 130.054L191.507 137.393L196.845 147.845C199.958 153.627 205.962 165.191 210.41 173.42C215.303 182.538 218.639 191.656 218.639 196.326V203.887H203.739C195.288 203.887 182.834 202.553 175.718 200.774C155.925 196.103 152.589 198.105 137.689 225.236C130.573 237.69 123.679 248.587 121.899 249.254C117.229 251.034 112.337 243.695 109.446 231.019C107.222 221.456 107.444 216.341 110.558 200.551C112.559 190.099 113.671 180.536 113.226 179.647C112.559 178.535 106.999 177.2 100.772 176.533C89.8754 175.199 73.4186 169.194 63.4111 162.523C58.7409 159.409 58.7409 158.742 61.632 153.182C66.0797 144.732 75.1977 136.726 91.8769 126.496L106.332 117.822L112.337 89.1343C121.677 45.1013 120.12 48.6595 127.682 52.8849Z" fill="black"/>
<path d="M113.449 44.2117C108.334 48.2147 106.555 54.2192 100.772 85.5761L95.6575 112.93L83.2037 120.936C52.9588 140.284 39.8378 153.85 44.2856 161.188C47.6214 166.748 71.1947 178.757 84.538 181.871C100.55 185.429 100.772 185.651 98.5485 197.215C95.4351 212.56 95.8799 236.578 99.4381 244.807C106.332 261.486 119.453 266.156 131.462 256.149C135.02 253.257 143.249 240.804 149.92 228.35C161.04 207.89 162.374 206.111 167.489 207.223C183.056 210.559 216.415 213.227 223.976 211.893L232.649 210.336L231.315 198.105C230.425 189.209 226.867 179.647 217.304 162.3C207.519 143.62 205.295 137.838 207.074 135.169C217.082 120.714 229.98 96.4731 229.091 94.0269C227.534 90.2462 204.406 86.0209 185.503 86.0209C169.935 86.0209 168.379 84.9089 148.808 60.6685C135.243 43.7669 122.122 37.7624 113.449 44.2117Z" fill="black"/>
<path d="M136.799 40.8758C131.684 44.8788 129.905 50.8833 124.123 82.2401L119.008 109.594L106.554 117.6C76.3095 136.948 63.1886 150.514 67.6364 157.852C70.9722 163.412 94.5455 175.421 107.889 178.535C123.901 182.093 124.123 182.315 121.899 193.879C118.786 209.224 119.231 233.242 122.789 241.471C129.683 258.15 142.804 262.82 154.813 252.813C158.371 249.922 166.6 237.468 173.271 225.014C184.391 204.554 185.725 202.775 190.84 203.887C206.407 207.223 239.766 209.891 247.327 208.557L256 207L254.666 194.769C253.776 185.873 250.218 176.311 240.655 158.964C230.87 140.284 228.646 134.502 230.425 131.833C240.433 117.378 253.331 93.1372 252.442 90.6909C250.885 86.9103 227.757 82.6849 208.853 82.6849C193.286 82.6849 191.729 81.573 172.159 57.3326C158.594 40.431 145.473 34.4265 136.799 40.8758Z" fill="#F7C30E"/>
<path d="M148.67 94.6339C146.1 96.6093 145.206 99.5723 142.3 115.046L139.73 128.544L133.473 132.495C118.276 142.043 111.683 148.737 113.918 152.359C115.594 155.102 127.438 161.028 134.143 162.565C142.189 164.321 142.3 164.43 141.183 170.137C139.618 177.709 139.842 189.561 141.63 193.622C145.094 201.853 151.687 204.157 157.721 199.219C159.509 197.792 163.643 191.646 166.996 185.501C172.583 175.405 173.253 174.527 175.823 175.075C183.645 176.721 200.407 178.038 204.206 177.38L208.564 176.612L207.894 170.576C207.447 166.186 205.659 161.467 200.854 152.907C195.937 143.689 194.82 140.836 195.714 139.519C200.742 132.385 207.223 120.423 206.776 119.216C205.994 117.351 194.373 115.266 184.874 115.266C177.052 115.266 176.27 114.717 166.437 102.755C159.621 94.4144 153.028 91.4514 148.67 94.6339Z" fill="white"/>
</svg>
