<svg width="300" height="300" viewBox="0 0 300 300" fill="none" xmlns="http://www.w3.org/2000/svg">
<path fill-rule="evenodd" clip-rule="evenodd" d="M132.961 65.0697C136.367 56.7205 145.416 52.1697 154.149 54.414L268.591 83.8239C273.828 85.1696 278.184 88.7934 280.461 93.6971L282.324 97.7111C284.199 101.75 284.514 106.34 283.207 110.597L259.801 186.854C256.886 196.35 246.843 201.701 237.336 198.824L229.521 196.459L218.616 216.244C216.822 219.499 212.279 219.842 210.016 216.895L183.676 182.584L114.821 161.745C104.652 158.667 99.3332 147.509 103.346 137.671L132.961 65.0697ZM147.822 74.2917C149.518 70.1408 154.007 67.8671 158.357 68.9553L261.184 94.6768C266.317 95.9608 269.247 101.368 267.519 106.369L243.282 176.53C241.699 181.11 236.78 183.621 232.142 182.215L127.35 150.445C122.266 148.904 119.609 143.323 121.619 138.404L147.822 74.2917Z" fill="black"/>
<path d="M194.55 138.419C196.144 129.544 190.937 120.856 182.359 118.076L69.9536 81.6485C64.8105 79.9818 59.1909 80.7102 54.6428 83.6333L50.9199 86.026C47.1738 88.4336 44.4509 92.142 43.2754 96.4372L22.2197 173.376C19.5979 182.957 25.2162 192.854 34.7864 195.514L158.116 229.785C168.353 232.629 178.819 226.053 180.696 215.595L194.55 138.419Z" fill="black"/>
<path d="M177.062 138.249C177.852 133.834 175.278 129.511 171.021 128.101L70.4008 94.7768C65.3778 93.1132 60.0087 96.1118 58.7905 101.261L41.7007 173.496C40.585 178.212 43.396 182.966 48.0657 184.261L153.584 213.529C158.703 214.95 163.935 211.658 164.87 206.427L177.062 138.249Z" fill="#FFC309"/>
<path d="M48.185 225.4L91.1102 209.676L42.8553 194.369L41.2694 220.247C41.0421 223.956 44.6959 226.678 48.185 225.4Z" fill="black"/>
</svg>
