<svg width="300" height="300" viewBox="0 0 300 300" fill="none" xmlns="http://www.w3.org/2000/svg">
<path d="M219.905 53.7155L225.957 135.413C226.614 144.293 231.369 152.359 238.819 157.235L243.662 160.405C257.037 169.158 260.643 187.175 251.667 200.402L207.735 265.145C202.882 272.297 195.054 276.872 186.44 277.59L168.787 279.061C161.329 279.682 153.924 277.356 148.161 272.581L50.8315 191.937C39.9884 182.952 37.2965 167.413 44.4857 155.305L84.9982 87.0732C93.1944 73.2692 111.143 68.9112 124.756 77.4198L134.425 83.4627C147.209 91.4527 164 88.1501 172.805 75.9137L194.031 46.4176C201.833 35.5765 218.918 40.3955 219.905 53.7155Z" fill="#020202"/>
<path d="M240.501 175.881L230.775 169.397C227.595 167.277 223.309 168.032 221.046 171.112L171.72 238.233C169.189 241.677 170.224 246.557 173.935 248.677L186.295 255.74C189.521 257.583 193.621 256.65 195.73 253.591L242.421 185.891C244.688 182.603 243.824 178.096 240.501 175.881Z" fill="white"/>
<path d="M71.7879 174.022L145.65 225.526C152.039 229.981 160.818 228.505 165.399 222.206L210.035 160.832C212.751 157.096 213.497 152.279 212.036 147.896L211.602 146.595C211.064 144.979 210.818 143.281 210.877 141.579L213.568 63.5375C213.81 56.5122 204.833 53.3896 200.663 59.0487L177.13 90.9864C169.541 101.286 156.036 105.294 144.057 100.802L118.423 91.1893C111.882 88.7365 104.526 91.3673 101.025 97.4118L67.5927 155.12C63.8656 161.554 65.6891 169.77 71.7879 174.022Z" fill="#A1DE6E"/>
</svg>
