<svg width="222" height="40" viewBox="0 0 222 40" fill="none" xmlns="http://www.w3.org/2000/svg">
<path d="M221.793 10.6648C222.882 15.3146 219.486 18.1156 215.889 20.0344C212.45 21.8831 208.437 23.2556 204.554 23.6617C186.784 25.4684 168.842 26.0566 151.201 28.6336C134.979 31.0005 118.957 34.964 103.036 38.9415C93.0334 41.4345 86.3267 39.7818 82.5004 31.2106C80.9671 27.7793 81.1104 23.5917 80.7378 19.7122C80.4942 17.1913 80.6948 14.6283 80.6948 11.155C73.7731 13.0317 67.3674 14.1661 61.4489 16.491C44.5962 23.1295 27.9441 30.2442 11.206 37.1768C6.8782 38.9695 1.69055 37.4009 0.386467 33.9136C-0.974934 30.2862 1.33228 27.149 6.176 25.2163C18.5146 20.3144 30.5522 14.6003 43.1201 10.3707C55.4587 6.22512 68.2129 3.11593 80.9527 0.32887C88.6339 -1.35177 93.363 3.5641 93.062 11.5331C92.9187 15.4686 92.6321 19.3901 92.5461 23.3256C92.4602 27.2331 94.2801 28.3675 98.2497 27.3731C126.839 20.1744 155.844 15.7767 185.394 14.5303C197.374 14.0261 209.297 12.0513 221.779 10.6788L221.793 10.6648Z" fill="black"/>
</svg>
