<svg width="212" height="52" viewBox="0 0 212 52" fill="none" xmlns="http://www.w3.org/2000/svg">
<path d="M162.773 32.5003C149.071 33.2458 135.554 32.7927 122.478 35.0439C110.77 37.0466 99.5316 42.0168 88.1083 45.7152C85.459 46.5777 82.9094 47.8203 80.2316 48.5658C71.3009 51.0655 65.3472 46.0661 65.9311 36.6519C66.0166 35.2632 66.2587 33.8744 66.5863 31.2431C57.1998 34.0791 48.3689 36.4034 39.7942 39.444C29.5959 43.0547 19.5969 47.294 9.51247 51.2556C5.29639 52.9074 0.952095 51.738 0.239918 48.4635C-0.785617 43.7272 1.53612 41.6221 6.06556 41.0959C8.05966 40.862 9.89706 39.4294 11.8769 38.7569C30.7211 32.4564 49.5368 26.0829 68.4665 20.0894C71.1015 19.2561 75.1325 19.2269 77.0411 20.7618C80.0322 23.1738 81.2145 27.1792 78.6506 31.3454C77.796 32.7342 77.8245 34.7223 77.1693 37.7044C84.4477 35.0585 90.9428 32.895 97.2954 30.3806C111.596 24.7234 126.252 21.7997 141.692 22.326C148.928 22.5745 156.235 21.1126 163.485 20.1771C167.003 19.7239 168.527 14.5636 166.448 10.7775C165.679 9.38876 164.026 8.13159 163.998 6.78671C163.969 4.84247 164.511 2.26965 165.807 1.1148C167.032 0.0184293 169.695 -0.259316 171.405 0.237706C180.193 2.83976 188.867 5.86575 197.613 8.61399C200.091 9.40338 202.669 10.0466 205.247 10.2951C208.979 10.6606 210.645 12.8387 211.685 16.274C212.867 20.1624 210.517 22.0336 207.996 23.6416C199.863 28.8019 191.602 33.7575 183.455 38.8739C181.546 40.0726 179.908 41.7391 177.999 42.9378C175.678 44.3996 172.316 47.3086 170.963 46.5777C167.217 44.5458 162.531 42.4554 162.388 36.7981C162.346 35.2339 162.673 33.6698 162.787 32.5003H162.773Z" fill="black"/>
</svg>
