<svg width="265" height="47" viewBox="0 0 265 47" fill="none" xmlns="http://www.w3.org/2000/svg">
<path d="M209.385 39.7731C182.683 40.4812 155.967 40.8495 129.294 41.9684C99.976 43.2006 70.687 45.1126 41.3981 46.7131C38.2364 46.8831 35.0603 47.0247 31.8986 46.9964C30.5334 46.9822 28.6363 46.9539 27.9178 46.1324C22.0255 39.5181 12.9428 39.9855 5.7858 36.2039C1.79055 34.0936 0.267193 30.9918 0.0228788 27.0261C-0.163949 24.1368 0.755819 21.899 4.17621 20.7376C22.8734 14.3782 42.1455 10.7099 61.7049 8.44379C82.7447 6.0077 103.799 3.58577 124.91 1.87201C135.675 0.993881 146.582 1.92866 157.404 1.63123C164.805 1.41878 172.192 -0.0683681 179.579 0.00244853C200.533 0.214898 221.429 1.65956 241.434 8.42963C247.628 10.5258 253.463 13.925 259.053 17.3809C261.352 18.8113 263.106 21.7573 264.155 24.3917C266.325 29.8021 264.27 34.391 258.521 35.5382C249.97 37.252 241.232 38.3142 232.523 38.9374C224.849 39.4898 217.103 39.0507 209.4 39.0507V39.7872L209.385 39.7731ZM11.132 28.9098C21.9249 33.6828 32.7609 37.2237 44.876 36.5013C66.7637 35.1842 88.6944 34.391 110.625 33.6262C131.464 32.8897 152.317 32.4506 173.17 31.9124C185.802 31.5867 198.463 31.7141 211.067 30.9776C224.174 30.2128 237.223 28.7115 250.286 27.3518C251.637 27.2102 252.859 25.8788 254.138 25.0999C253.276 23.9243 252.629 22.4372 251.494 21.6298C249.367 20.1427 247.096 18.4431 244.638 17.9049C229.75 14.6757 214.875 9.9451 199.814 9.15196C174.808 7.84893 149.658 8.64208 124.594 9.53437C110.05 10.0442 95.5639 12.3529 81.0776 14.0241C57.3791 16.7577 33.8819 20.5393 11.1464 28.9098H11.132Z" fill="black"/>
</svg>
