<svg width="394" height="104" viewBox="0 0 394 104" fill="none" xmlns="http://www.w3.org/2000/svg">
<path d="M393.684 9.72238C375.052 8.86947 356.435 7.90085 337.804 7.22142C327.475 6.84556 317.147 7.01911 306.818 6.84563C297.682 6.68662 288.546 6.36858 279.41 6.12283C277.126 6.06501 274.856 5.97826 272.572 6.02163C257.029 6.36857 241.471 6.42633 225.957 7.22142C214.781 7.78521 203.663 9.37544 192.515 10.4452C186.008 11.0668 179.472 11.4571 172.979 12.2088C168.281 12.7581 163.627 13.7267 158.958 14.5507C156.229 15.0277 153.528 15.6927 150.785 16.0252C145.599 16.6468 140.399 17.0949 135.198 17.6154C134.322 17.7021 133.446 17.6587 132.584 17.7888C128.188 18.4972 123.793 19.1911 119.411 19.9717C115.504 20.6656 111.625 21.504 107.718 22.2124C102.719 23.1087 97.6913 23.8893 92.6778 24.7711C89.1297 25.3927 85.5671 25.971 82.0764 26.7806C76 28.1973 69.8661 29.4693 63.9333 31.3486C44.684 37.4491 25.5354 43.8388 6.28613 49.9248C5.13692 50.2862 2.46501 49.2743 2.23516 48.4069C1.76112 46.6866 2.01969 44.388 2.86723 42.8268C3.47057 41.7137 5.49602 41.2221 6.97563 40.7451C18.6545 37.0299 30.3045 33.1556 42.0839 29.8018C54.8258 26.1733 67.6251 22.6606 80.5537 19.8127C91.7441 17.3407 103.15 15.8951 114.455 13.958C125.488 12.0643 136.477 9.78015 147.567 8.30563C159.792 6.67209 172.102 5.67462 184.399 4.60487C191.481 3.99771 198.735 4.53266 205.674 3.23161C214.566 1.56916 223.328 1.8293 232.235 1.98832C239.087 2.11843 245.939 0.239197 252.82 0.065724C262.358 -0.18003 271.911 0.325884 281.464 0.557182C288.819 0.730655 296.159 0.947471 303.514 1.16431C309.418 1.33779 315.322 1.36672 321.212 1.72812C330.004 2.263 338.795 2.9135 347.572 3.69413C355.516 4.40248 363.431 5.5301 371.375 6.18062C376.949 6.62876 382.565 6.49866 388.153 6.81669C390.122 6.93234 392.046 7.61173 394 8.03096C393.899 8.59474 393.785 9.15859 393.684 9.72238Z" fill="black"/>
<path d="M240 33.7751C226.682 35.395 213.335 36.8159 200.06 38.6631C172.632 42.4712 145.219 46.4073 117.834 50.4996C105.883 52.29 93.8612 53.9951 82.1557 56.8654C67.3835 60.5031 52.8271 65.0785 38.2997 69.6539C28.1059 72.8653 18.1426 76.7728 8.06404 80.3536C4.69493 81.5472 1.29702 81.334 0.231578 77.597C-0.761878 74.073 1.54182 72.2542 5.21329 71.1317C20.8206 66.3431 36.2119 60.8298 51.8769 56.2544C64.0863 52.6878 76.5549 49.9596 88.9803 47.1604C92.8102 46.2936 96.9423 46.8051 100.83 46.0947C109.641 44.5032 118.323 42.1302 127.164 40.894C135.586 39.7146 144.168 39.7288 152.648 38.9757C161.575 38.1942 170.472 36.9296 179.399 36.2049C198.217 34.6845 217.05 33.3772 235.868 32.0273C237.192 31.9278 238.546 32.1268 239.87 32.1978C239.899 32.7236 239.942 33.2494 239.971 33.7609L240 33.7751Z" fill="black"/>
<path d="M3.01425 101.863C9.41994 95.177 17.5765 91.5094 26.1601 88.6458C37.6761 84.8089 49.1352 80.7603 60.8078 77.4735C68.0961 75.414 75.7117 74.4266 83.2135 73.2699C95.3416 71.3937 107.498 69.7574 119.641 68.0505C120.651 67.9094 121.69 68.0364 123 68.7841C122.103 69.2637 121.249 69.9549 120.295 70.1947C110.217 72.7479 100.125 75.287 90.0178 77.7416C64.3096 83.9624 39.0996 91.6504 14.9857 102.625C10.2598 104.783 6.1032 104.304 3 101.863H3.01425Z" fill="black"/>
</svg>
