<svg width="173" height="69" viewBox="0 0 173 69" fill="none" xmlns="http://www.w3.org/2000/svg">
<path d="M161.986 7.35352C155.284 7.83741 149.882 8.30746 144.48 8.62545C125.988 9.69001 107.482 10.3536 89.0192 11.8053C61.6246 13.9483 34.7445 19.0776 8.37884 26.6125C3.63445 27.9674 -0.152471 25.6862 0.00472266 21.0684C0.0475937 19.8518 2.10539 18.0268 3.563 17.6535C15.6812 14.5013 27.8137 11.2523 40.0748 8.72224C66.3976 3.2888 93.1491 1.27023 120.001 0.302441C128.175 0.0121046 136.477 -0.333521 144.551 0.661919C150.082 1.33937 156.527 1.29793 162 7.35352H161.986Z" fill="black"/>
<path d="M172.986 29.8815C170.754 30.4676 168.55 31.3906 166.276 31.5957C145.544 33.5151 124.741 34.7898 104.081 37.2952C89.0157 39.1266 74.0788 42.2474 59.1991 45.3242C47.7818 47.6978 36.5362 50.921 25.219 53.7634C21.1271 54.789 19.2386 52.3569 18.5232 48.8552C17.908 45.8223 16.8921 42.5551 21.8854 41.6174C39.927 38.2329 57.8542 34.1745 75.9244 31.0391C90.1603 28.5776 104.539 26.6582 118.918 25.2956C130.493 24.1968 142.182 23.8598 153.814 24.0503C160.166 24.1528 166.504 26.0575 172.843 27.1564C172.9 28.0648 172.943 28.9731 173 29.8669L172.986 29.8815Z" fill="black"/>
<path d="M161.957 48.1168C155.076 48.8536 148.209 49.841 141.299 50.2684C113.056 52.0221 84.957 54.9989 57.4037 61.8958C49.948 63.7674 42.7364 66.6116 35.3237 68.6305C33.1689 69.22 28.8879 69.102 28.6437 68.2915C27.7817 65.5505 27.8536 62.2642 28.457 59.3757C28.7156 58.1084 30.9709 56.7084 32.5224 56.3695C48.0804 53.0684 63.6528 49.9442 79.2539 46.8789C84.1957 45.9063 89.1805 44.8748 94.1941 44.5211C109.494 43.4305 124.807 42.1042 140.121 42.001C147.405 41.9421 154.702 44.4178 162 45.7442L161.943 48.1021L161.957 48.1168Z" fill="black"/>
</svg>
