<svg width="197" height="87" viewBox="0 0 197 87" fill="none" xmlns="http://www.w3.org/2000/svg">
<path d="M133.684 52.0004C117.548 54.9526 102.374 58.0633 88.4352 65.7391C83.1667 68.6337 77.1804 70.5202 71.309 71.9459C62.4803 74.0917 55.9485 69.6417 51.2542 62.614C48.2252 58.0921 44.9378 55.6295 39.5113 57.7896C30.4099 61.4043 21.3371 65.0478 12.2643 68.7201C8.57495 70.2178 4.98612 72.7668 1.48336 68.2448C-0.985809 65.0622 -0.397251 60.6987 3.4357 59.1578C14.1019 54.8806 24.7107 50.3731 35.6641 46.9888C46.4595 43.6622 53.307 46.6432 59.925 55.6583C64.3752 61.7355 66.1122 62.3836 73.2039 59.7194C77.4675 58.1209 81.5733 56.0759 85.7364 54.1894C97.5798 48.8178 109.595 44.0078 122.63 42.3949C122.803 42.3661 122.975 42.3517 123.147 42.3085C133.34 39.9611 135.507 37.7001 136.641 27.533C137.273 21.8157 138.063 16.0553 137.876 10.3381C137.646 3.18071 141.695 -1.39884 148.815 0.3869C157.73 2.61907 166.401 5.83051 175.114 8.82594C180.971 10.8421 186.642 13.3911 192.528 15.3064C196.389 16.5593 198.083 19.0939 196.275 22.3918C193.289 27.8354 189.915 33.207 185.924 37.9449C175.272 50.5891 164.161 62.83 153.366 75.3446C150.983 78.1096 149.073 81.2922 147.006 84.3165C144.953 87.3263 142.8 87.7871 139.484 85.7854C134.301 82.6603 131.531 78.772 132.249 72.4356C132.995 65.8255 133.21 59.1434 133.698 51.986L133.684 52.0004Z" fill="black"/>
</svg>
