<svg width="451" height="130" viewBox="0 0 451 130" fill="none" xmlns="http://www.w3.org/2000/svg">
<path d="M155.502 130C120.714 130.029 86.4286 125.499 52.5305 118.474C39.973 115.878 27.4012 111.565 15.9488 105.824C-2.70809 96.4766 -5.06173 79.9458 9.23229 64.2805C17.6853 55.0198 28.2623 48.5286 39.3846 43.3645C55.0707 36.0656 70.9721 29.0407 87.3327 23.4872C101.282 18.7414 115.964 16.1305 130.387 12.8128C139.457 10.7356 148.556 8.49979 157.77 7.38908C179.928 4.70607 202.115 1.99421 224.374 0.494032C248.958 -1.16482 273.241 1.37394 297.237 7.8074C305.905 10.1298 315.434 9.16333 324.576 9.69705C329.068 9.9567 333.56 10.1875 338.052 10.4616C342.845 10.7645 347.668 10.8799 352.432 11.5001C364.904 13.1013 377.404 14.5726 389.789 16.7508C408.159 19.9819 425.624 25.9105 440.177 38.1716C455.92 51.4424 453.739 67.6415 438.483 79.1236C423.673 90.274 406.279 95.0486 389.071 100.386C364.1 108.146 338.54 113.209 312.679 116.513C279.627 120.725 246.547 124.821 213.396 127.908C194.208 129.697 174.833 129.365 155.545 130H155.502ZM199.245 12.0483C199.202 11.6877 199.173 11.3126 199.13 10.952C190.921 11.5002 182.597 11.428 174.503 12.7263C148.384 16.9094 122.25 21.0205 96.9195 29.1994C74.9762 36.282 53.2337 43.8261 33.8163 56.5632C26.4109 61.4244 19.4074 67.1943 13.1502 73.4835C6.11803 80.5372 7.32355 88.4276 15.3029 94.1543C18.1302 96.1882 21.1153 98.3374 24.3587 99.4049C37.0166 103.516 49.6602 107.742 62.5622 110.959C90.6336 117.941 119.351 120.35 148.154 121.013C166.438 121.432 184.793 120.725 203.063 119.657C225.149 118.373 247.265 116.844 269.223 114.219C293.218 111.334 317.113 107.425 340.951 103.3C365.636 99.0298 389.947 92.9137 413.024 83.0039C421.764 79.2534 429.93 73.6999 437.507 67.8578C443.506 63.2419 443.722 57.6451 439.459 51.428C437.019 47.8651 433.862 44.6339 430.504 41.9076C419.152 32.6613 405.432 28.5214 391.569 25.348C363.569 18.9578 335.081 16.2892 306.407 15.4237C301.011 15.265 295.601 15.0487 290.233 14.5438C278.939 13.5052 267.701 11.8752 256.392 11.1828C245.729 10.5337 235.023 10.8366 224.331 10.5914C222.466 10.5481 220.557 9.32201 218.749 9.50953C212.233 10.1586 205.761 11.1684 199.274 12.0339L199.245 12.0483Z" fill="black"/>
</svg>
