<svg width="239" height="48" viewBox="0 0 239 48" fill="none" xmlns="http://www.w3.org/2000/svg">
<path d="M77.4271 34.5947C68.8063 40.0368 65.3637 39.8082 56.1834 33.1092C53.7593 35.7517 51.3638 38.4656 48.8392 41.0652C43.8045 46.2787 39.1714 46.2644 34.0506 40.9223C32.3866 39.1797 31.0095 37.1372 29.6899 35.1089C28.3846 33.1092 27.323 30.9524 25.5013 27.7101C22.5751 33.1664 20.3519 37.9228 17.5405 42.2935C16.02 44.6503 12.5774 48.4069 11.5876 47.9641C8.27413 46.5072 3.72702 43.8362 3.13891 40.9223C1.24549 31.6237 0.858239 22.0252 0.0406245 12.5267C-0.21757 9.48427 0.700394 6.49901 4.37249 6.67041C8.07327 6.82753 11.1716 8.69868 11.3293 12.998C11.5015 17.6402 11.3724 22.2966 11.3724 27.4815C16.5793 23.5536 19.0466 15.8404 27.1797 16.9831C35.5279 18.1544 36.2739 25.639 39.4009 31.838C44.7082 29.5384 46.6304 24.382 49.6857 20.4112C52.9992 16.0976 58.5502 14.6692 62.1363 18.3258C64.001 20.2255 64.503 23.4393 65.8944 26.6817C67.6014 25.2962 69.4948 24.1106 70.9579 22.5394C74.9026 18.2686 81.8738 18.6543 84.0541 23.8821C86.0336 28.6528 88.5724 27.9957 91.6851 25.7104C93.349 24.482 95.1708 23.0251 96.0027 21.2396C98.3408 16.2261 102.701 15.669 106.617 17.3259C112.312 19.7256 116.816 17.6116 121.535 15.4119C123.902 14.3121 126.111 12.8695 128.32 11.4554C134.101 7.75597 139.537 9.14147 143.137 14.912C143.797 15.969 146.308 16.8974 147.469 16.4832C153.408 14.3692 159.361 12.141 164.955 9.2843C170.334 6.52758 174.565 8.51299 179.758 13.2408C181.135 14.4978 183.76 15.6119 185.395 15.1834C194.877 12.7124 204.114 9.56998 212.018 3.39949C213.28 2.41392 215.231 2.05683 216.909 1.87114C223.077 1.17125 229.288 0.657043 236.303 0C241.854 4.78498 238.038 10.2699 232.071 11.1983C218.803 13.2551 207.959 21.0968 195.58 25.1962C188.135 27.6672 180.92 27.7386 174.451 23.4679C170.879 21.1111 168.512 21.6538 164.941 23.0536C157.883 25.8103 151.012 30.1811 142.793 27.91C141.445 27.5387 139.81 27.4815 138.834 26.6531C134.129 22.668 129.769 24.8962 124.92 26.5102C119.871 28.1814 114.392 28.5671 109.128 29.6812C107.607 30.0097 106.058 30.7382 104.767 31.638C99.0723 35.6231 93.8369 40.9366 85.8902 38.437C83.0931 37.5514 80.4968 36.0231 77.4702 34.6376L77.4271 34.5947Z" fill="black"/>
</svg>
