<svg width="387" height="58" viewBox="0 0 387 58" fill="none" xmlns="http://www.w3.org/2000/svg">
<path d="M338.535 33.6681C353.994 35.7642 368.132 35.5604 381.637 28.7046C383.074 27.9768 385.057 28.3698 386.795 28.2388C386.795 30.1748 387.341 32.3435 386.651 33.9884C383.964 40.4803 377.801 42.8383 371.925 43.9591C358.003 46.6083 343.908 48.6607 330.101 42.6637C328.693 42.0523 326.193 42.6054 324.828 43.5515C316.007 49.6068 306.165 52.1395 295.72 53.1147C286.798 53.9444 277.919 55.7784 269.011 55.793C263.293 55.793 257.589 53.2458 251.856 51.9503C250.046 51.5427 248.006 50.8877 246.339 51.368C231.685 55.5019 216.699 55.1671 201.815 54.4248C192.692 53.959 183.683 51.3389 174.574 50.0726C171.93 49.7087 168.971 50.2327 166.399 51.0915C149.517 56.7391 132.104 58.4858 114.49 57.889C105.639 57.5834 96.7603 56.4043 88.0249 54.876C84.6773 54.2937 81.2148 52.1249 78.6431 49.7523C75.9276 47.2342 73.2409 46.6665 69.7784 46.2444C51.3163 43.9737 32.8972 41.2663 14.4782 38.6462C11.8921 38.2823 9.306 37.6419 6.79171 36.8995C0.240176 34.9636 -1.62756 30.5969 1.4327 23.057C23.5298 30.7715 46.4314 34.687 70.468 35.5895C70.468 31.0044 70.1375 26.9579 70.5398 22.9987C71.5024 13.3773 76.2581 6.59431 85.9273 4.41094C95.1656 2.32946 104.433 0.087844 114.001 2.57689C124.547 5.31339 127.952 14.5564 122.219 24.0613C116.688 33.2315 107.622 36.9577 98.5706 40.815C96.5017 41.6884 94.2892 42.2124 92.0479 44.061C94.8639 44.6724 97.6654 45.7786 100.496 45.7932C113.829 45.8805 127.205 46.2007 140.495 45.3419C148.311 44.847 156.026 42.4599 163.698 40.553C164.919 40.2474 166.615 37.933 166.485 36.7103C164.761 19.3307 171.988 11.6743 186.427 3.98881C193.553 0.189737 207.188 9.88393 206.886 17.9624C206.815 19.8547 206.829 21.7469 206.915 23.6392C207.332 32.591 201.326 36.6375 194.674 40.2037C193.769 40.6841 192.864 41.1644 192.031 42.8092C196.599 43.0566 201.183 43.6534 205.737 43.4933C215.895 43.144 226.038 42.3143 236.21 41.9067C240.535 41.7321 241.943 39.6651 241.842 35.5458C241.569 24.0176 246.684 15.2259 256.382 9.651C260.477 7.29296 265.735 5.0077 270.117 5.56082C277.617 6.5215 284.125 17.9624 276.037 26.1428C270.836 31.3974 265.793 36.8122 260.376 42.4744C261.425 42.9839 262.589 44.0173 263.753 44.0173C280.131 44.1483 296.395 43.2022 311.797 36.7685C316.308 34.8763 318.65 32.1834 317.587 26.1864C316.05 17.5403 319.397 9.81115 325.834 3.72681C332.788 -2.83787 342.227 -0.465277 345 8.76312C348.247 19.5781 348.678 22.2127 338.549 33.6827L338.535 33.6681ZM84.117 32.8676C88.0824 31.7031 91.7748 31.1209 95.0218 29.5634C100.927 26.7396 107.306 24.3815 110.136 17.4093C111.731 13.4792 110.266 11.8926 106.645 12.0091C103.24 12.1255 99.8636 12.897 96.4586 13.2754C85.6399 14.4545 82.12 18.4136 84.1314 32.8676H84.117ZM179.502 34.8617C183.18 32.7074 186.24 30.7133 189.487 29.0685C193.97 26.8124 194.243 22.7949 193.611 18.7339C193.453 17.715 190.752 16.0847 189.645 16.3758C183.051 18.1516 178.353 26.4484 179.502 34.8617Z" fill="black"/>
</svg>
