<svg width="340" height="38" viewBox="0 0 340 38" fill="none" xmlns="http://www.w3.org/2000/svg">
<path d="M42.7009 9.74074C48.056 9.50278 52.3488 11.7633 54.89 16.5522C56.8138 20.2107 58.9817 20.8354 62.571 19.4969C71.7882 16.0614 81.0485 12.7449 90.3662 9.65151C96.1377 7.733 101.306 8.75916 105.542 13.8603C106.561 15.0798 109.045 15.8829 110.61 15.5558C118.649 13.8603 126.618 11.7187 134.615 9.75558C143.602 7.5545 152.561 5.16013 161.62 3.28624C167.205 2.12621 172.488 4.40163 175.92 8.65506C180.916 14.827 187.032 14.5295 193.206 13.1018C204.849 10.4248 216.292 6.88529 227.906 4.07446C233.85 2.64673 239.966 1.59077 246.054 1.24872C248.839 1.08512 252.084 2.51285 254.51 4.17853C259.65 7.68835 265.335 7.43552 270.748 6.82577C285.751 5.13034 300.754 3.21187 315.585 0.401038C323.725 -1.14566 330.344 2.08155 337.221 4.96675C338.585 5.54676 340.365 8.68481 339.934 9.54739C338.915 11.5849 336.905 13.5629 334.838 14.4255C333.086 15.1691 330.502 14.8419 328.635 14.0983C318.944 10.2166 309.555 13.8454 300.079 14.9906C288.421 16.3886 276.821 18.2922 265.149 19.3779C261.631 19.705 257.224 19.125 254.496 17.1024C247.03 11.57 239.493 13.3993 231.812 15.288C219.536 18.3071 207.319 21.5343 195.072 24.6575C184.979 27.2304 176.121 25.3713 168.483 17.4891C166.846 15.7937 163.199 14.827 160.902 15.3921C149.833 18.0542 138.893 21.3261 127.91 24.4195C120.516 26.4868 113.266 29.8776 105.369 26.7842C104.393 26.3975 103.201 26.2191 102.484 25.5349C94.7881 18.1584 87.2794 22.1738 79.6415 25.6837C74.3581 28.1078 69.046 30.532 63.5473 32.3017C56.6415 34.5326 51.3869 31.7664 46.3188 24.2262C44.5386 21.5641 42.9736 20.4784 39.9012 21.1179C30.8994 22.9621 23.1035 27.3493 16.0829 33.2238C9.72277 38.5629 4.85571 39.6188 0.807033 35.41C-0.111816 34.4582 -0.298432 31.0376 0.519919 30.2643C10.1822 21.0287 28.4443 10.5141 42.7296 9.75558L42.7009 9.74074Z" fill="black"/>
</svg>
