<svg width="372" height="32" viewBox="0 0 372 32" fill="none" xmlns="http://www.w3.org/2000/svg">
<path d="M372 7.00869C367.41 7.91433 363.135 9.09965 358.773 9.55247C330.304 12.5091 301.848 15.6256 273.321 18.0761C248.312 20.2336 223.217 21.5521 198.164 23.3368C188.398 24.0293 178.618 24.7086 168.908 25.8806C159.628 26.9993 151.149 25.5609 143.313 20.8463C129.443 12.4958 113.756 10.3382 98.0415 11.9497C77.279 14.0807 56.6166 17.5833 36.1544 21.5388C26.9315 23.3235 18.309 27.7052 9.32911 30.7017C6.64086 31.6074 2.98029 33.6717 1.49317 29.3833C-0.651712 23.2569 -1.03778 21.6321 4.09564 19.954C34.9247 9.79219 66.5832 3.29292 99.2426 1.6681C115.901 0.842373 131.916 3.47936 146.587 11.7233C154.223 16.0118 163.003 15.7454 171.639 15.1861C190.457 13.9741 209.318 13.0818 228.107 11.5502C257.449 9.15292 286.762 6.34279 316.09 3.66583C325.814 2.78683 335.508 1.72137 345.232 0.869001C350.48 0.416183 355.742 0.083236 361.004 0.00332681C365.766 -0.0765823 369.841 1.25522 372 7.022V7.00869Z" fill="black"/>
</svg>
