<svg width="319" height="28" viewBox="0 0 319 28" fill="none" xmlns="http://www.w3.org/2000/svg">
<path d="M318.986 1.05231C317.542 7.80123 312.666 8.15202 308.619 8.65714C290.259 10.9302 271.9 13.4838 253.454 14.6344C227.831 16.2479 202.136 17.202 176.469 17.4967C153.892 17.7633 131.571 19.2646 109.337 23.3476C98.9413 25.2558 88.203 24.9191 77.536 22.5759C54.8295 17.5949 32.4376 19.1804 10.5604 27.3184C5.41282 29.2266 0.594131 26.9957 0.022179 22.2813C-0.220901 20.2327 1.58078 16.3461 3.13935 15.9673C12.6052 13.6381 22.2139 11.73 31.8799 10.3409C46.5505 8.23623 61.2783 8.86762 75.763 11.8282C89.833 14.7045 103.588 12.8524 117.43 10.5653C141.695 6.55247 166.189 6.8331 190.697 6.45426C218.665 6.0193 246.605 4.36364 274.545 2.9465C287.4 2.30107 300.226 0.912009 313.08 0.0140231C314.953 -0.112256 316.898 0.645435 319 1.0383L318.986 1.05231Z" fill="black"/>
</svg>
