<svg width="67" height="40" viewBox="0 0 67 40" fill="none" xmlns="http://www.w3.org/2000/svg">
<path d="M59.6585 13.1867C59.4303 21.3046 57.1198 23.5172 49.2898 24.2352C39.2349 25.1584 29.1942 26.272 19.1679 27.4442C18.1267 27.5615 17.1854 28.6605 15.1459 29.9792C26.4987 31.2687 35.4126 34.9613 44.2124 39.1375C35.3841 40.764 26.898 40.0606 18.5831 37.2765C14.7893 36.0017 10.9956 34.7562 7.1305 33.7744C3.89296 32.9539 0.313104 31.7376 1.04048 28.0011C1.45409 25.891 4.83427 23.3267 7.21607 22.8871C18.5261 20.821 29.9358 19.4143 41.3171 17.7438C42.7291 17.5387 44.1268 17.231 45.5245 16.9672C45.5245 16.513 45.5102 16.0587 45.496 15.5898C42.8717 15.2235 40.2475 14.7839 37.6232 14.4908C26.1706 13.1867 14.7037 11.9851 3.26539 10.5198C2.0531 10.3586 0.327391 8.8054 0.084932 7.63314C-0.214576 6.15317 0.298875 3.53025 1.29723 2.94413C3.75035 1.52277 6.65985 0.43843 9.45526 0.218633C14.661 -0.191657 19.9237 0.101404 25.5288 0.101404C25.7428 1.63999 25.9567 3.14927 26.1706 4.65855C26.4702 4.68785 26.7554 4.7025 27.0549 4.73181C27.4257 3.33975 27.8108 1.93305 27.9819 1.30297C40.1191 1.30297 51.9426 1.21504 63.7517 1.43484C64.9213 1.44949 67.1746 3.77935 66.9892 4.27756C66.3759 5.91872 64.907 8.42441 63.7089 8.45372C56.9486 8.6149 50.1598 8.14601 43.3852 7.91156C42.3726 7.88225 41.36 7.91156 39.948 7.91156C40.3188 9.03985 40.6041 9.91904 40.8465 10.6664C35.2557 10.0216 29.6649 9.37687 24.0741 8.73213C24.017 9.31826 23.9742 9.88974 23.9172 10.4759C35.6836 11.3697 47.4642 12.2636 59.6442 13.1867H59.6585ZM8.65657 23.9714L8.89901 25.9057C15.1744 25.1144 21.4641 24.3231 27.7395 23.5465C27.6539 22.8578 27.5683 22.1838 27.4827 21.4951C21.2073 22.3156 14.932 23.1509 8.65657 23.9714Z" fill="black"/>
</svg>
