<svg width="401" height="52" viewBox="0 0 401 52" fill="none" xmlns="http://www.w3.org/2000/svg">
<path d="M401 12.6966C397.197 12.9839 393.379 13.6447 389.59 13.4867C363.541 12.4094 337.492 10.5708 311.429 10.1542C285.165 9.73764 258.843 10.0249 232.593 11.2315C209.63 12.2801 186.681 14.4203 163.861 17.2213C144.4 19.6058 125.139 23.7139 105.764 26.8883C77.1461 31.5998 49.2601 39.2702 21.5463 47.6158C17.6856 48.7793 13.9684 50.3881 10.1077 51.5516C6.59146 52.6146 3.6493 51.8676 1.48214 48.4489C-1.02947 44.4701 -0.45539 42.3585 4.02245 41.1807C30.6455 34.2428 57.1968 26.9458 83.9633 20.5825C97.3969 17.3936 111.232 15.7993 124.924 13.7165C135.846 12.0502 146.797 10.0249 157.79 9.47904C164.694 9.14866 171.138 7.18081 177.811 6.46261C192.809 4.86819 207.893 4.17869 222.934 3.02956C231.632 2.36881 240.3 1.36332 248.997 0.87494C256.776 0.429652 264.598 0.242908 272.391 0.415277C276.668 0.515826 280.916 1.72242 285.208 2.12461C287.03 2.29698 289.298 2.29695 290.719 1.37765C296.761 -2.51503 302.416 3.28808 309.19 1.29147C317.241 -1.09298 326.728 1.29152 335.583 1.70808C340.233 1.93791 344.912 2.18211 349.519 2.79977C355.619 3.60416 361.647 4.88254 367.732 5.73002C369.626 5.98858 371.722 5.06924 373.573 5.42834C376.831 6.06036 379.931 7.55427 383.203 8.15756C389.102 9.23487 395.058 9.92436 401 10.7718C401 11.4039 400.986 12.0359 400.971 12.6679L401 12.6966Z" fill="black"/>
</svg>
