<svg width="328" height="32" viewBox="0 0 328 32" fill="none" xmlns="http://www.w3.org/2000/svg">
<path d="M328 9.70526C325.624 10.0651 323.362 10.7294 321.086 10.7017C297.825 10.3972 274.564 9.20703 251.332 9.8021C223.749 10.5079 196.193 12.39 168.667 14.4105C147.238 15.9882 125.838 18.2163 104.496 20.735C78.9587 23.7519 53.5078 27.4884 27.9853 30.7129C21.229 31.5709 14.3724 31.9722 7.57305 31.9999C1.31767 32.0276 -1.88875 27.0455 1.17453 22.617C1.90456 21.5514 3.57933 20.5827 4.88194 20.472C21.5582 19.1573 38.2774 18.3408 54.9106 16.7355C72.8179 15.0056 90.6393 12.4592 108.518 10.4387C126.912 8.36288 145.277 5.96874 163.728 4.65403C191.928 2.64738 220.17 0.792923 248.426 0.12865C271.473 -0.411071 294.562 0.889814 317.622 1.40186C322.833 1.51257 326.783 3.31163 327.957 9.69141L328 9.70526Z" fill="black"/>
</svg>
