<svg width="191" height="58" viewBox="0 0 191 58" fill="none" xmlns="http://www.w3.org/2000/svg">
<path d="M137.257 36.9372C123.354 35.7277 109.94 37.974 96.5974 41.4585C91.1857 42.8697 85.6157 44.0504 80.06 44.396C75.0369 44.7128 70.6758 42.7257 67.5382 38.1179C66.4731 36.5628 63.3931 35.5837 61.2917 35.6845C48.0503 36.3324 35.9747 41.3289 23.9566 46.383C18.5881 48.6437 13.3203 51.1492 7.85099 53.1075C6.16703 53.7122 2.94297 53.597 2.22333 52.5459C0.740865 50.4148 -0.151447 47.4054 0.021267 44.8423C0.0932314 43.7336 3.31724 42.6393 5.24589 41.8761C9.96675 40.0186 14.8603 38.5643 19.5236 36.5772C32.837 30.9472 46.2224 25.6915 60.8887 24.8995C66.9193 24.5683 72.3022 25.5763 76.7209 30.4432C78.1314 31.9983 81.4562 32.7903 83.687 32.4591C91.157 31.3791 98.4685 29.1617 105.953 28.2545C116.747 26.9586 127.643 26.5266 138.481 25.4899C140.05 25.3459 142.295 24.266 142.856 23.0132C144.612 19.0247 145.562 14.6761 147.131 10.5868C148.397 7.28937 149.779 3.93437 151.808 1.11214C152.571 0.0754019 156.011 -0.39977 157.119 0.406583C164.82 5.97905 173.7 7.69255 182.71 9.52124C185.56 10.0972 189.302 12.0843 190.338 14.4313C191.835 17.8295 190.842 21.5301 186.855 24.338C176.089 31.9119 165.669 39.9754 155.292 48.0966C152.283 50.4436 150.168 53.9282 147.188 56.3329C145.663 57.5568 142.727 58.4351 141.143 57.7728C139.416 57.0384 137.631 54.4466 137.416 52.4883C136.897 47.5638 137.243 42.5529 137.243 36.9084L137.257 36.9372Z" fill="black"/>
</svg>
