<svg width="124" height="74" viewBox="0 0 124 74" fill="none" xmlns="http://www.w3.org/2000/svg">
<path d="M110.435 8.24175C97.0948 10.4795 83.697 12.0574 70.6004 15.0698C52.2107 19.3014 34.0792 24.6089 15.8042 29.3856C13.1075 30.0885 10.3246 30.6766 7.55612 30.8344C3.16668 31.0926 0.584657 28.5393 0.111286 24.3794C-0.390774 19.9756 2.99453 19.8321 6.27943 19.0719C20.5953 15.7583 34.8394 12.1578 49.0979 8.58601C67.1577 4.06747 85.3037 0.165748 104.109 1.05511C108.528 1.25593 111.023 3.12074 110.421 8.24175H110.435Z" fill="black"/>
<path d="M22.6607 62.0479C38.8413 60.2548 55.0077 58.3757 71.2027 56.6831C87.4121 54.9904 103.636 53.4555 119.859 51.9494C120.892 51.849 122.714 52.351 122.915 52.9821C123.288 54.1297 123.202 56.138 122.456 56.7835C120.663 58.3183 118.497 59.9823 116.273 60.3553C96.9942 63.5971 77.6864 66.6812 58.3643 69.5501C46.4296 71.3145 34.4519 72.792 22.4455 73.9395C19.9783 74.1834 16.5355 73.1649 14.9576 71.4292C13.3941 69.7079 12.7629 66.1362 13.3654 63.798C13.6953 62.4783 17.2815 61.8615 19.4762 61.1873C20.4229 60.9004 21.5562 61.259 22.6177 61.3307C22.6464 61.5745 22.675 61.8184 22.6894 62.0479H22.6607Z" fill="black"/>
<path d="M12.8203 60.2265C10.8838 57.8023 8.45956 55.708 7.28331 53.0542C5.83451 49.798 8.30175 47.6751 11.1993 46.8C25.0419 42.6114 38.8413 38.179 52.8559 34.6359C60.2577 32.7711 68.0756 32.6276 75.6782 31.5805C78.9774 31.1214 81.2726 32.4555 81.875 35.5109C82.5062 38.6954 79.9385 39.2692 77.3708 39.929C62.1656 43.8164 46.946 47.7181 31.8412 51.9928C27.0071 53.3555 22.5029 55.8945 17.8552 57.9171C16.6216 58.4478 15.4167 59.0359 12.8203 60.2265Z" fill="black"/>
</svg>
