<svg width="264" height="41" viewBox="0 0 264 41" fill="none" xmlns="http://www.w3.org/2000/svg">
<path d="M263.452 8.25982C260.87 8.98672 258.159 10.6543 255.736 10.298C236.065 7.46165 218.239 14.5596 200.111 19.99C186.496 24.0663 173.56 25.8621 159.672 18.8497C153.989 15.9849 145.004 17.909 137.995 19.5623C126.732 22.2134 115.742 26.1899 104.825 30.1095C94.5132 33.801 85.5571 31.1072 79.0816 23.5246C71.9716 15.201 63.6646 14.9302 54.723 17.3817C38.9021 21.7003 24.8984 29.8102 11.8898 39.6019C7.83718 42.652 0.62619 40.4571 0.0204678 35.4828C-0.210284 33.5587 1.54921 30.2805 3.32311 29.3968C14.5867 23.7669 25.98 18.3081 37.6041 13.4194C47.9879 9.05798 58.8332 4.68233 70.2699 8.10302C75.9088 9.79911 81.3892 13.3766 85.8311 17.3104C91.4701 22.3132 97.1668 21.8143 103.455 20.0897C117.675 16.1701 131.779 11.7803 146.173 8.57339C151.206 7.44741 157.523 7.91777 162.167 10.0129C172.55 14.6879 182.574 14.5026 193.044 11.3669C205.519 7.61843 217.907 3.44233 230.584 0.534745C236.122 -0.73376 242.309 0.606036 248.194 0.962358C251.179 1.14765 254.251 1.38992 257.063 2.2736C259.529 3.04325 261.692 4.75363 264 6.05064C263.827 6.77754 263.654 7.51866 263.466 8.24555L263.452 8.25982Z" fill="black"/>
</svg>
