<svg width="249" height="71" viewBox="0 0 249 71" fill="none" xmlns="http://www.w3.org/2000/svg">
<path d="M66.313 54.6128C54.0635 53.7795 41.713 53.6502 29.608 51.8686C21.1721 50.6187 13.025 47.2278 4.86354 44.4692C3.2168 43.9233 1.68561 42.1561 0.790018 40.5756C0.038873 39.2538 -0.307806 37.0268 0.342223 35.8343C0.790021 35.001 3.36126 34.728 4.77688 35.0728C14.1951 37.3285 23.4544 40.5038 32.9881 42.0124C41.6263 43.3773 50.5389 43.2049 59.336 43.248C60.8671 43.248 63.4095 41.1791 63.7706 39.6561C66.4285 28.3631 72.2788 19.0528 81.7692 12.6735C88.5584 8.10458 96.1709 4.5558 103.784 1.40928C111.396 -1.73725 119.485 0.59032 124.368 6.35177C127.387 9.92933 128.658 13.8948 126.737 18.5643C121.06 32.4004 109.533 39.3975 96.3154 44.3112C90.5952 46.4376 84.6582 48.0324 78.2446 50.0439C81.6392 55.8772 87.1717 58.0324 93.0075 59.0813C105.459 61.337 117.636 58.6646 129.64 55.7479C140.59 53.0755 151.438 49.9578 162.243 46.7825C166.461 45.5469 170.592 43.8514 174.492 41.8543C175.792 41.1934 177.006 38.9377 177.006 37.4147C177.006 20.9781 181.325 14.2683 196.535 8.004C200.927 6.19367 205.405 4.54143 209.883 2.93225C214.144 1.40927 218.131 2.42939 221.005 5.63338C223.649 8.57876 224.342 12.1707 223.302 16.4235C220.558 27.7166 212.541 34.1677 203.224 39.6849C199.612 41.8256 196.073 44.0957 191.956 46.6532C198.746 55.8629 207.947 59.4261 218.304 58.8945C226.133 58.4922 233.862 55.9635 241.662 54.5985C243.872 54.2106 246.198 54.541 249 54.541C247.267 63.0467 240.42 64.5984 235.292 66.7392C217.495 74.1673 193.748 68.6645 183.939 54.4118C182.163 51.8256 180.126 51.7825 177.555 52.975C164.467 59.0813 150.485 62.1559 136.502 65.518C123.776 68.5926 111.179 71.7679 98.0488 70.834C86.955 70.0438 76.4534 67.2277 69.3031 57.6301C68.2775 56.2508 67.3964 54.7566 66.443 53.3198L66.3418 54.6416L66.313 54.6128ZM115.73 12.9896C103.581 7.83163 76.6123 26.3947 77.0167 38.7797C92.5452 34.182 108.132 29.7711 115.73 12.9896ZM187.811 34.8572C202.183 27.6303 209.16 21.2654 209.565 14.8862C199.713 18.6362 188.908 21.0068 187.811 34.8572Z" fill="black"/>
</svg>
