<svg width="372" height="48" viewBox="0 0 372 48" fill="none" xmlns="http://www.w3.org/2000/svg">
<path d="M280.748 22.8111C294.739 23.9226 308.515 23.2645 321.474 17.1807C327.022 14.5629 331.953 10.4973 337.572 8.14275C345.256 4.91073 353.269 2.40993 361.297 0.187001C363.533 -0.427229 366.615 0.567234 368.794 1.78107C370.385 2.68779 372.292 5.4372 371.962 6.85578C371.604 8.43523 368.866 10.5119 367.146 10.5265C357.169 10.5704 348.897 15.0894 340.64 19.9447C335.537 22.9574 330.577 26.438 325.101 28.5001C318.765 30.8985 312.027 32.9167 305.332 33.4285C289.492 34.6277 273.709 33.8819 257.912 31.0886C248.379 29.3922 239.935 26.0724 231.363 21.8313C226.403 19.3744 220.139 19.6376 214.462 18.7017C202.607 16.742 191.124 19.6522 180.115 23.0597C161.293 28.8657 143.001 36.4851 124.222 42.4665C116.323 44.9819 107.751 45.3329 99.4651 46.576C96.3543 47.044 93.1289 47.863 90.1042 47.4389C85.2445 46.7515 80.4996 45.1867 75.726 43.929C62.6093 40.4776 49.6503 36.0171 36.3329 33.9989C30.8139 33.1653 24.3774 37.0993 18.672 39.6294C14.2854 41.5744 10.4866 44.8649 6.2434 47.2049C4.88155 47.9507 1.94283 48.331 1.48411 47.629C0.43764 46.0788 -0.494083 43.0807 0.294351 41.8815C2.45896 38.591 5.08229 35.125 8.35071 33.1799C14.0561 29.8017 20.3923 27.5202 26.456 24.8001C32.0324 22.2993 37.5228 22.621 43.3572 24.3467C57.7067 28.6171 72.1422 32.6242 86.6351 36.295C90.0755 37.1724 93.946 36.3973 97.6158 36.2072C111.363 35.4906 124.48 31.9368 137.21 26.8183C143.402 24.3175 149.337 20.9977 155.688 19.0965C168.718 15.2064 181.849 11.4917 195.124 8.65457C212.512 4.95457 228.969 8.7277 244.809 16.6542C249.253 18.8771 254.4 19.9301 259.345 20.6906C266.412 21.7874 273.609 22.1238 280.748 22.7673V22.8111Z" fill="black"/>
</svg>
