<svg width="273" height="66" viewBox="0 0 273 66" fill="none" xmlns="http://www.w3.org/2000/svg">
<path d="M273 36.5776C271.109 37.1024 269.233 37.9251 267.3 38.0953C255.412 39.145 243.509 39.996 231.621 41.0173C207.774 43.0599 183.912 45.0882 160.079 47.301C143.522 48.8329 126.964 50.3931 110.464 52.4357C87.0323 55.3293 63.6431 58.5917 40.2682 61.8683C32.6485 62.9321 25.1147 64.5349 17.5379 65.9392C14.4298 66.5207 7.21115 62.7903 8.07052 60.7477C9.13041 58.2513 12.1525 55.3435 14.7306 54.9038C27.306 52.7478 39.9961 51.301 52.6575 49.6839C68.9569 47.5847 85.2276 45.3719 101.556 43.5563C114.604 42.1095 127.709 41.1591 140.786 40.0528C159.635 38.4783 178.484 36.8046 197.361 35.528C204.15 35.0741 211.011 35.7691 217.828 35.6982C231.077 35.5563 244.326 35.2301 257.589 35.0315C262.616 34.9606 267.643 35.0315 272.671 35.0315C272.771 35.5563 272.885 36.067 272.986 36.5918L273 36.5776Z" fill="black"/>
<path d="M254 13.1416C248.418 14.5626 242.907 16.5663 237.224 17.2911C220.491 19.4227 203.687 20.9006 186.939 22.9043C170.665 24.8511 154.418 27.1106 138.172 29.2848C108.227 33.2922 78.2684 37.2143 48.3524 41.4207C35.613 43.2112 22.9738 45.627 10.263 47.6875C8.73145 47.9291 6.64166 48.3128 5.654 47.5454C3.47829 45.8828 1.84649 43.5096 0 41.4349C1.84649 39.9996 3.54988 37.5554 5.58245 37.2712C30.8465 33.6048 56.1105 29.9669 81.4461 26.869C109.587 23.43 137.8 20.5453 165.97 17.4048C175.832 16.3105 185.665 15.0174 195.542 14.0795C199.421 13.71 203.372 14.25 207.265 14.0226C209.341 13.909 211.345 12.63 213.406 12.559C223.669 12.2463 233.932 12.1611 244.195 12.0189C247.401 11.9763 250.593 12.0189 253.8 12.0189C253.871 12.3884 253.928 12.7721 254 13.1416Z" fill="black"/>
<path d="M240 1.64147C217.607 7.08869 194.613 7.45674 171.862 9.82702C150.671 12.0354 129.423 13.6842 108.246 16.0251C80.788 19.0726 53.3869 22.5765 25.9573 25.889C20.2482 26.5809 14.5391 27.4053 8.81562 27.9353C7.14152 28.0973 4.98091 28.009 3.80761 27.0373C2.37675 25.8595 1.21772 23.7101 1.00309 21.8551C0.902926 21.0159 3.26385 19.1609 4.66609 18.9548C16.5852 17.2029 28.5186 15.5098 40.4806 14.2143C65.8641 11.4612 91.2476 8.79647 116.66 6.42619C135.103 4.70369 153.605 3.37869 172.091 2.21564C178.888 1.78869 185.756 2.64258 192.567 2.33342C202.998 1.84758 213.386 0.743425 223.803 0.154536C229.168 -0.15463 234.563 0.0956348 239.943 0.0956348C239.957 0.610912 239.971 1.12619 240 1.64147Z" fill="black"/>
</svg>
