<svg width="395" height="117" viewBox="0 0 395 117" fill="none" xmlns="http://www.w3.org/2000/svg">
<path d="M9.35971 61.3766C1.03428 59.6958 0.0582145 53.863 0.000797821 48.3176C-0.0709731 41.1056 4.70893 35.9337 10.5511 32.9167C21.6182 27.2132 32.8144 21.1938 44.6566 17.6453C61.1065 12.7319 78.1162 9.39887 95.0685 6.46812C110.198 3.83906 125.542 2.0289 140.873 1.00889C156.591 -0.0254989 172.423 -0.226685 188.17 0.233041C207.074 0.793333 225.993 2.07195 244.84 3.73846C257.228 4.83031 269.544 6.89907 281.816 8.93911C299.616 11.913 317.501 14.5995 335.056 18.6508C351.52 22.4436 367.382 28.4919 380.774 39.3242C391.626 48.0877 397.339 59.9257 394.095 73.6169C392.3 81.188 387.119 86.1301 380.544 88.7879C368.559 93.615 356.358 98.2841 343.855 101.416C315.735 108.484 286.869 110.912 258.06 113.627C215.629 117.621 173.112 117.147 130.581 116.731C102.303 116.458 74.1257 114.303 46.3073 109.131C37.8384 107.55 28.8814 106.487 21.733 100.655C20.7856 99.8788 19.5512 99.1748 19.1062 98.1548C18.4603 96.6607 17.8574 94.7355 18.3024 93.342C18.5607 92.5518 21.0871 91.8335 22.3502 92.1209C27.4747 93.2846 32.4412 95.1953 37.5943 96.1866C46.8815 97.9824 56.2261 99.534 65.5994 100.77C77.5851 102.35 89.5852 103.801 101.628 104.735C111.863 105.525 122.169 105.712 132.432 105.798C150.246 105.956 168.074 105.999 185.887 105.755C202.51 105.525 219.146 105.18 235.739 104.289C246.979 103.686 258.161 102.019 269.371 100.899C277.668 100.066 286.022 99.6776 294.261 98.4852C303.749 97.1204 313.08 94.2902 322.582 93.5863C331.066 92.9542 339.377 91.6468 347.3 89.0608C358.224 85.4979 369.061 81.3604 379.353 76.289C384.822 73.5881 388.898 64.5229 384.047 57.0667C377.358 46.7803 367.568 40.4304 356.645 36.8962C338.357 30.9916 319.711 25.7191 300.85 22.1419C268.079 15.9068 234.878 12.0854 201.519 11.0654C179.27 10.3758 156.921 10.62 134.7 11.9705C105.949 13.7376 77.3985 17.9469 49.9964 27.3139C39.1016 31.0348 28.7809 36.5227 18.3598 41.551C15.7617 42.8008 13.5224 45.1139 11.599 47.3551C9.34535 49.9841 7.264 52.8717 9.23052 56.8369C9.80469 58.0006 9.31665 59.6814 9.31665 61.391L9.35971 61.3766Z" fill="black"/>
</svg>
