<svg width="407" height="102" viewBox="0 0 407 102" fill="none" xmlns="http://www.w3.org/2000/svg">
<path d="M58.6755 65.0747C50.3488 66.931 42.3534 68.7873 34.3292 70.4593C32.4565 70.8419 30.4252 70.8844 28.5236 70.6294C21.0756 69.6375 13.6277 68.5889 6.22298 67.2995C4.42222 66.9877 2.56383 65.9674 1.18085 64.7771C0.330891 64.0545 -0.259744 62.1699 0.114814 61.1922C0.417341 60.3987 2.34769 59.676 3.47137 59.7752C9.66598 60.3278 15.8462 61.2488 22.0408 61.8581C34.7038 63.1051 46.3295 58.8541 57.9552 54.8723C58.7043 54.6173 59.0356 52.9452 59.3813 51.8825C63.6023 38.8319 67.0742 25.2712 78.0372 15.7631C84.1886 10.421 90.9307 5.51817 98.0329 1.47971C104.66 -2.27534 112.453 1.49385 115.767 8.53635C119.772 17.0525 119.239 24.3643 112.814 32.0161C103.032 43.6638 91.3196 52.2509 77.2305 57.9047C68.6301 61.348 67.3335 65.3581 72.635 73.18C77.4322 80.2508 84.52 82.3763 92.7603 82.0788C106.518 81.5828 118.763 76.9492 130.634 69.51C123.762 56.842 125.332 44.5424 131.311 32.7529C137.995 19.589 149.78 13.1416 164.171 11.1862C172.21 10.0951 179.182 17.3218 179.629 25.257C180.407 39.1153 175.725 50.0829 164.819 58.5282C158.077 63.7428 151.033 68.5747 144.075 73.6192C154.923 92.5929 187.062 97.1273 211.87 83.5666C209.248 76.5383 205.531 69.8642 204.335 62.7792C201.541 46.1294 211.077 19.2347 232.298 9.82583C238.996 6.85013 246.055 5.31977 253.186 8.01207C255.246 8.79142 257.292 10.8319 258.358 12.8015C265.864 26.6315 260.591 53.9654 249.181 65.3156C242.555 71.9047 236.951 79.4856 230.612 86.9391C239.126 97.9775 275.573 94.7043 291.679 78.1112C290.224 76.1982 288.049 74.4128 287.271 72.1598C281.293 54.8582 279.045 37.5566 290.685 21.5161C295.194 15.2955 302.383 12.4757 309.946 11.9372C317.884 11.3704 325.217 20.2125 324.323 30.4007C323.56 39.0586 321.486 47.7873 318.59 56.0059C316.011 63.346 311.502 70.0342 307.526 77.6435C312.9 81.016 319.656 84.4593 327.853 85.0403C344.564 86.2305 359.532 80.8318 373.592 73.0383C381.775 68.5039 389.108 62.4249 396.57 56.7286C398.702 55.099 399.984 52.3926 401.857 49.9411C403.384 50.3662 405.012 50.8197 407 51.3723C405.819 60.1011 400.244 66.265 393.833 70.7852C375.479 83.7224 355.599 93.769 332.391 94.5342C323.416 94.8318 314.585 92.9897 306.734 87.9168C303.319 85.7063 300.395 84.5444 295.713 88.016C277.086 101.789 244.456 108.888 222.573 92.6355C220.917 91.4027 217.114 91.8278 214.823 92.7347C203.111 97.4249 191.197 100.755 178.404 100.046C162.846 99.182 149.29 93.8682 138.644 82.433C135.892 79.4715 133.976 78.7347 129.798 80.676C120.622 84.9553 111.099 88.6678 101.404 91.6152C88.3232 95.5969 66.6132 87.3217 61.0525 72.9675C60.0585 70.4169 59.4678 67.7104 58.6899 65.0747H58.6755ZM221.205 78.267C223.049 76.8075 224.648 75.7448 226.017 74.4411C232.96 67.8379 240.667 61.7873 246.545 54.3622C254.685 44.0606 254.008 31.6193 251.602 19.4756C250.507 13.9918 245.969 12.7165 240.61 15.3097C229.171 20.8501 221.262 29.423 217.085 41.2408C212.59 53.9513 210.933 66.4634 221.219 78.267H221.205ZM138.744 65.7832C145.775 60.9371 152.272 56.6152 158.596 52.0525C167.499 45.6193 171 36.3663 171.302 25.9655C171.461 20.5809 168.435 18.6396 162.976 19.4331C156.003 20.4392 150.543 24.0809 146.192 29.3096C137.506 39.7529 132.91 51.1598 138.744 65.7974V65.7832ZM299.041 71.1254C305.898 62.6659 311.934 53.7671 313.735 42.9837C314.758 36.8339 314.412 30.3582 313.908 24.095C313.62 20.51 310.551 20.0283 307.483 21.6153C302.052 24.4351 297.557 28.0768 295.267 34.0141C292.443 41.3541 291.924 48.8359 293.019 56.5444C293.739 61.6739 293.884 66.9736 299.041 71.1254ZM70.402 49.0768C70.9207 49.346 71.4537 49.6011 71.9723 49.8703C85.6437 45.1375 99.56 34.425 106.994 22.919C109.068 19.7024 108.837 10.3926 106.23 9.95335C103.277 9.47157 99.1998 10.5627 96.8804 12.4757C91.0315 17.3076 85.0386 22.4088 80.7024 28.4878C76.2797 34.6659 73.7586 42.1618 70.402 49.0768Z" fill="black"/>
</svg>
