<svg width="153" height="43" viewBox="0 0 153 43" fill="none" xmlns="http://www.w3.org/2000/svg">
<path d="M35.6971 17.6448C30.6412 22.3035 25.7286 26.7285 20.9448 31.2995C17.6363 34.4686 14.5856 37.9151 11.2771 41.0842C8.05453 44.1656 1.86719 43.4792 0.27738 39.3901C-0.467394 37.4624 0.363294 33.68 1.86716 32.278C6.55065 27.8968 11.9789 24.348 16.9489 20.2589C21.1597 16.7832 25.0124 12.8547 29.2376 9.40817C34.7231 4.93935 42.4716 6.42896 46.3387 12.4458C47.771 14.6802 49.3035 16.8416 50.6642 19.1052C53.7865 24.3042 56.207 25.3119 61.6926 22.727C67.5648 19.9668 73.2509 16.7978 79.0085 13.804C87.3729 9.45198 95.5225 8.56114 103.715 14.5342C109.716 18.9154 115.674 15.498 121.103 13.0592C127.132 10.3428 132.733 6.575 138.419 3.09925C141.942 0.937861 145.365 -1.13591 149.662 0.7188C153.257 2.26682 154.259 5.91782 151.123 8.12302C139.736 16.126 127.977 23.6032 114.314 26.9037C108.341 28.3495 102.412 27.1812 97.1839 23.6909C93.1019 20.9745 89.1919 20.9599 84.9811 23.355C79.9396 26.232 74.7977 28.9483 69.6129 31.5478C59.2147 36.776 49.547 36.0458 43.0732 29.0505C40.2803 26.0275 38.49 22.0552 35.6827 17.6448H35.6971Z" fill="black"/>
</svg>
