<svg width="353" height="31" viewBox="0 0 353 31" fill="none" xmlns="http://www.w3.org/2000/svg">
<path d="M45.6257 17.7286C38.5096 15.3489 32.7851 18.7895 27.0176 21.542C21.6375 24.1081 16.4152 27.0327 11.2072 29.9429C7.41963 32.0646 4.17718 30.7743 1.76688 28.0075C-0.514302 25.384 -0.973431 21.8287 2.7281 19.9364C10.7624 15.822 18.7681 11.3778 27.2616 8.51063C33.9473 6.24555 41.336 5.50006 48.4378 5.3567C51.422 5.28502 54.9943 7.96586 57.3329 10.3456C59.2554 12.2953 60.3888 12.8544 63.0143 12.1233C71.4073 9.75784 79.8291 6.73295 88.4086 6.03049C94.1044 5.57174 100.259 8.22389 105.883 10.3313C109.025 11.5068 111.421 11.8366 114.721 10.876C125.123 7.87984 135.639 5.08432 146.27 3.07729C149.527 2.46085 153.616 4.06648 156.801 5.68644C160.804 7.73648 164.319 7.43542 168.408 6.25987C179.957 2.93393 192.295 -0.449337 203.041 6.36023C209.914 10.7184 215.093 8.9837 220.731 6.61827C229.497 2.96261 238.579 3.26368 247.689 3.192C249.224 3.192 251.118 3.39268 252.223 4.28151C256.857 7.99451 261.204 6.11655 266.068 4.68295C272.768 2.70459 279.769 1.78705 286.598 0.296116C290.429 -0.535368 293.657 0.33914 295.91 3.49305C298.564 7.22039 301.921 6.77597 305.723 6.04484C315.364 4.20984 325.02 2.4322 334.718 1.04161C340.529 0.210129 344.073 2.74757 346.425 7.87984C347.014 9.17007 348.692 9.92989 349.639 11.1198C350.959 12.7684 352.882 14.5174 352.997 16.3237C353.097 17.6713 351.016 19.8934 349.438 20.4955C342.796 23.033 338.262 21.3126 335.852 14.9618C334.503 11.4208 332.466 11.5212 329.783 12.1663C320.759 14.3167 311.792 16.7681 302.71 18.6174C297.301 19.7213 292.022 19.5493 288.392 13.8292C287.502 12.4243 283.944 11.6359 282.05 12.152C275.809 13.8436 269.741 16.166 263.658 18.4168C259.899 19.8074 255.924 20.8395 252.754 18.001C244.734 10.833 236.183 13.0408 227.747 16.2664C221.563 18.6318 215.667 21.8 209.727 24.7676C205.337 26.961 199.426 24.4235 197.962 18.7895C196.858 14.5891 194.505 13.8149 190.803 13.8579C181.377 13.9583 172.468 15.8506 164.017 20.1944C157.848 23.3626 153.53 21.8287 148.853 16.0226C147.92 14.8614 145.237 14.0587 143.788 14.4887C133.932 17.4133 123.975 20.2088 114.463 24.0795C106.715 27.2334 104.133 26.9896 98.7958 20.5958C97.1029 18.5744 93.5592 16.4671 91.278 16.8685C82.7272 18.3451 74.3484 20.7965 65.9267 22.9756C64.9655 23.2193 63.9899 23.8788 63.2869 24.6099C55.7547 32.509 48.8681 28.6813 46.1996 20.051C45.9413 19.2482 45.7979 18.4024 45.6257 17.7V17.7286Z" fill="black"/>
</svg>
