<svg width="1208" height="900" viewBox="0 0 1208 900" fill="none" xmlns="http://www.w3.org/2000/svg">
<path d="M900.031 451.347C902.821 452.327 905.285 452.309 906.924 454.302C912.042 455.443 915.159 460.203 920.133 461.605C921.869 463.987 924.824 464.914 926.706 467.151C927.862 468.526 929.037 470.338 930.565 470.826C932.173 471.34 932.156 473.081 933.828 473.526C935.412 473.947 935.739 476.169 936.616 477.868C937.855 478.39 938.928 479.239 939.722 480.324C940.516 481.409 941.001 482.689 941.125 484.027C941.262 485.56 941.903 487.005 942.947 488.136C944.61 489.418 944.376 491.312 945.003 492.778C946.452 499.222 946.805 505.864 946.047 512.425C945.033 515.492 945.459 518.938 943.528 521.695C943.289 522.016 943.139 522.395 943.095 522.793C943.051 523.191 943.113 523.594 943.276 523.96C944.925 525.561 942.96 527.549 944.011 529.125C943.096 533.135 941.564 536.978 939.47 540.518C936.281 544.539 934.46 549.474 934.272 554.603L932.533 556.342C931.985 560.599 930.505 564.682 928.198 568.301C927.004 570.571 925.878 572.942 924.532 575.167C922.478 578.563 920.723 582.145 918.566 585.471C915.949 589.508 912.965 593.305 910.294 597.308C907.943 600.832 904.46 603.357 902.019 606.695C899.084 610.333 895.908 613.77 892.511 616.982C888.239 620.95 883.705 624.626 878.938 627.983C874.069 631.492 868.906 634.573 863.506 637.192C862.571 637.705 861.406 637.857 860.756 638.898C860.431 639.326 860.023 639.685 859.556 639.952C859.09 640.219 858.574 640.389 858.04 640.452C854.773 640.259 852.542 642.387 849.91 643.57C844.654 645.956 839.224 647.939 833.667 649.502C830.385 650.168 827.218 651.306 824.263 652.882C822.401 654.053 819.981 652.358 818.475 654.383C815.381 653.956 812.955 656.426 809.942 656.35C808.53 658.277 805.799 656.465 804.362 658.318C801.908 657.729 799.828 659.693 797.388 659.315C795.19 659.347 793.012 659.731 790.936 660.452C786.362 661.564 781.676 662.149 776.969 662.196C775.546 662.1 774.768 663.294 773.437 663.286C772.221 663.279 770.879 662.747 769.751 663.901C769.403 664.257 768.559 664.204 767.941 664.208C764.358 663.81 760.739 663.883 757.176 664.426C753.725 665.085 750.208 665.331 746.698 665.16C743.102 665.362 739.457 664.931 735.886 665.292C733.06 665.578 730.696 664.001 727.916 664.123C725.394 664.767 722.727 664.511 720.373 663.401C720.197 663.279 719.445 663.992 718.892 664.363C716.862 662.843 714.367 662.076 711.834 662.193C709.98 662.101 708.154 661.695 706.436 660.993C703.772 660.299 701.025 659.948 698.398 659.078C695.802 658.219 693.395 656.945 690.734 656.167C685.797 655.029 681.176 652.807 677.206 649.662C674.445 649.642 672.907 647.363 670.781 646.173C668.617 644.961 666.591 643.374 664.51 642.234C662.295 641.02 660.05 639.651 657.697 638.569C652.505 636.235 647.6 633.31 643.079 629.851C642.562 629.449 642.207 629.278 642.022 628.602C641.869 628.044 641.298 627.205 640.873 627.18C637.733 626.998 636.051 624.471 633.905 622.831C631.554 620.81 629.313 618.664 627.192 616.402C625.588 614.876 623.359 614.115 622.036 612.225C621.499 611.097 620.815 610.044 620.003 609.095C619.598 608.697 619.099 608.41 618.552 608.259C618.005 608.109 617.429 608.101 616.878 608.236C616.645 607.57 616.618 606.79 616.219 606.461C612.698 603.561 610.455 599.53 607.209 596.394C606.64 595.844 605.88 595.26 605.711 594.568C605.017 591.725 602.748 590.137 600.725 587.905C601.524 585.261 599.6 583.095 598.398 580.879C597.549 578.271 596.428 575.759 595.053 573.386C594.824 572.967 594.752 572.481 594.851 572.014C595.31 568.302 593.188 564.827 593.861 561.109C594.038 560.136 592.868 559.896 592.848 559.293C592.924 557.956 594.528 557.15 593.806 556.049C592.339 553.81 593.046 551.393 592.871 549.049C592.951 547.475 592.659 545.904 592.019 544.463C591.633 543.753 591.537 542.921 591.751 542.142C591.965 541.362 592.473 540.696 593.167 540.283L591.807 538.603C592.811 536.909 593.183 534.915 592.858 532.974C592.457 529.588 594.475 526.459 593.86 523.05C593.558 521.376 594.513 519.531 592.928 517.985C592.728 517.626 592.622 517.222 592.621 516.811C592.621 516.4 592.724 515.995 592.923 515.635C595.144 512.851 592.549 509.228 594.657 506.494C594.164 505.732 593.9 504.845 593.895 503.937C593.89 503.03 594.145 502.14 594.63 501.373C595.233 499.668 595.276 497.816 594.754 496.085C594.443 494.48 597.319 493.055 594.894 491.499C596.695 490.144 594.991 487.842 596.023 486.591C597.391 484.933 595.941 482.787 597.07 481.629C598.502 480.16 596.761 477.905 598.72 476.852C598.136 474.551 600.14 472.698 599.788 470.39C599.485 468.408 601.023 466.962 601.789 465.339C602.939 462.899 602.179 460.083 603.625 457.721C603.927 457.182 604.266 456.664 604.639 456.171C604.775 453.082 605.642 450.069 607.168 447.379C608.541 444.34 609.714 441.214 610.679 438.021C611.496 435.527 613.152 433.31 612.457 430.485C615.565 428.006 617.647 424.466 618.303 420.545C619.685 416.021 621.506 411.665 622.86 407.192C624.412 404.218 625.573 401.055 626.313 397.783C626.371 396.408 627.684 396.067 628.29 395.129V391.359C630.285 389.137 631.672 386.439 632.319 383.524C632.78 381.441 633.684 379.482 634.971 377.781C636.134 375.964 636.869 373.907 637.121 371.765C637.927 368.69 638.284 365.516 638.181 362.339C637.97 359.238 638.135 356.112 638.135 352.73L636.163 351.178C636.163 349.222 636.163 347.584 636.161 345.946C635.332 345.046 634.724 343.967 634.385 342.792C634.046 341.616 633.986 340.379 634.208 339.176C632.669 337.231 631.175 335.553 629.748 333.913C627.326 331.011 624.405 328.566 621.121 326.694C616.168 323.996 610.933 321.972 605.867 319.557C603.795 318.57 601.442 318.705 599.404 317.261C597.333 316.344 595.206 315.559 593.036 314.91C588.833 313.358 584.449 312.347 579.99 311.902C576.488 311.073 572.888 311.691 569.593 310.85C566.464 310.308 563.294 310.03 560.118 310.019C559.637 310.024 559.164 310.134 558.73 310.34C558.296 310.547 557.912 310.845 557.605 311.215C556.741 310.458 555.678 309.965 554.542 309.793C553.407 309.62 552.246 309.777 551.196 310.243C549.045 311.372 546.74 310.119 545.199 311.177C543.113 312.608 541.106 311.92 539.114 311.943C535.927 311.98 532.989 313.267 529.883 313.442C526.59 313.627 523.232 315.034 519.966 313.047C519.371 312.685 518.366 312.995 517.592 312.995C516.461 311.82 515.583 310.427 515.009 308.9C516.944 306.487 519.577 304.731 522.548 303.871C527.517 301.94 532.624 300.387 537.827 299.226C539.269 298.985 539.975 297.642 541.36 297.065C544.096 295.924 547.464 297.144 549.709 294.652C552.435 293.995 555.21 293.563 558.007 293.362C559.28 293.497 560.052 292.538 560.983 292.17C562.735 291.433 564.651 291.171 566.537 291.409C569.068 291.462 571.585 291.028 573.952 290.131C576.733 289.467 579.601 289.243 582.451 289.468C586.358 289.76 589.993 288.184 593.859 288.362C597.622 288.535 601.4 288.399 605.153 288.399C605.669 288.767 605.923 289.518 606.992 289.34L608.443 288.291C610.706 290.24 613.798 288.519 616.095 289.716C617.506 290.452 619.168 287.852 619.946 290.367C621.663 290.335 623.369 290.648 624.962 291.289C626.594 291.44 628.235 291.464 629.871 291.359C630.787 291.441 631.688 291.65 632.547 291.98C634.586 292.598 636.634 293.948 638.882 293.273C640.413 292.814 641.21 294.067 642.409 294.361C646.717 295.337 650.947 296.628 655.066 298.224C659.132 299.614 662.951 301.638 666.383 304.224C668.873 306.311 671.841 307.813 674.294 310.025C677.017 312.326 679.386 315.018 681.322 318.012C682.737 320.293 684.417 322.398 686.329 324.281L685.522 325.16L688.29 330.616C687.703 333.814 689.885 336.924 690.647 340.372C691.496 342.863 692.069 345.439 692.358 348.054C693.653 348.801 694.652 347.737 695.747 347.58C698.227 347.084 700.785 347.125 703.249 347.7C705.712 348.274 708.024 349.37 710.028 350.912C711.8 352.692 712.826 355.081 712.899 357.591C713.118 358.813 712.474 360.247 713.846 360.719C714.046 361.924 713.294 362.177 712.825 362.836C713.16 364.348 714.702 365.779 713.317 368.101C711.667 369.391 711.417 372.233 710.017 374.434C708.738 375.977 707.67 377.684 706.841 379.509C706.476 380.254 705.882 380.862 705.145 381.244C700.751 384.581 695.82 387.146 690.565 388.829C688.737 389.019 687.005 389.741 685.582 390.904C685.941 392.967 684.231 394.933 684.442 397.862C689.786 395.79 695.548 395.027 701.247 395.637C704.451 397.325 706.102 400.497 708.701 402.706L710.609 412.175C711.117 412.866 710.177 413.247 710.163 413.709C709.998 419.001 705.984 422.202 703.475 426.205C702.362 427.529 700.905 428.522 699.265 429.072C696.149 430.657 692.995 432.169 689.321 433.974C685.681 434.265 682.094 435.033 678.654 436.258C677.779 442.136 677.413 448.078 677.559 454.019C677.712 455.259 676.552 455.609 676.511 456.569C676.307 457.625 677.727 457.847 677.586 459.122C677.413 461.739 677.385 464.363 677.5 466.982C677.096 469.402 677.163 471.876 677.697 474.271C678.703 476.487 677.539 479.116 679.468 480.922C679.516 486.358 680.942 491.692 683.614 496.426C684.732 499.424 686.633 502.066 689.119 504.08C691.605 506.093 694.586 507.404 697.75 507.875C702.838 508.913 707.996 509.576 713.182 509.857C719.256 509.857 725.186 508 730.174 504.534C733.684 501.871 736.237 498.143 737.449 493.907C737.991 491.964 738.398 489.985 738.669 487.986C739.541 480.438 739.822 472.834 739.508 465.242C739.615 464.623 739.58 463.987 739.406 463.382C739.232 462.778 738.923 462.221 738.504 461.752C739.874 458.495 740.9 455.103 741.564 451.632C741.798 448.262 742.889 445.007 744.734 442.176C745.191 441.376 745.426 440.469 745.413 439.549C747.018 436.896 750.286 436.864 752.356 434.986C755.032 432.556 758.983 432.54 761.637 430.073C763.836 430.969 764.527 428.072 766.228 428.168C767.952 428.188 769.631 427.613 770.982 426.54C772.367 425.594 774.35 427.023 775.363 425.205C778.439 425.743 781.175 423.647 784.286 424.135C787.807 424.686 791.091 422.714 794.706 423.099C798.307 423.33 801.917 423.355 805.521 423.172C807.622 423.133 809.717 423.43 811.724 424.053C813.981 424.771 816.462 423.264 818.746 425.001C819.581 425.635 821.288 425.229 822.585 425.131C825.876 425.083 829.147 425.641 832.236 426.777C833.899 427.105 835.592 427.259 837.287 427.235C842.187 429.289 847.33 430.707 852.59 431.455L853.914 432.923H857.987L860.055 434.99C861.19 434.787 862.355 434.823 863.476 435.095C864.596 435.367 865.647 435.87 866.563 436.571C867.489 437.491 869.299 436.269 869.93 437.939C873.671 438.66 877.289 439.912 880.676 441.656C884.381 443.465 888.25 444.918 892.229 445.994C894.431 446.266 896.427 448.41 898.451 449.803C899.036 450.254 899.566 450.773 900.031 451.347V451.347ZM896.568 455.74C893.702 456.742 893.683 456.778 891.583 455.676C889.163 454.406 886.655 453.334 884.169 452.208C881.267 450.893 878.298 449.771 875.286 448.721C871.51 447.952 867.96 446.329 864.909 443.976C863.306 442.572 861.342 441.645 859.24 441.3C856.943 440.933 855.297 439.266 853.277 439.043C850.425 438.459 847.635 437.605 844.945 436.493C839.265 434.662 833.494 433.126 827.655 431.893C825.323 431.853 823.007 431.501 820.768 430.848C818.628 429.694 816.372 430.962 814.778 429.888C812.71 428.496 810.692 429.18 808.69 429.137C802.302 429 795.907 429.139 789.517 429.064C786.372 429.2 783.25 429.656 780.198 430.426C776.162 431.195 772.215 432.372 768.417 433.939C764.9 435.245 761.771 437.419 759.32 440.26C757.772 443.418 756.731 446.801 756.235 450.284C756.21 453.885 756.228 457.486 756.228 461.001C757.947 463.384 759.437 465.925 760.678 468.588C762.554 473.78 767.814 476.179 770.157 480.889C773.789 482.308 775.475 485.964 778.564 488.119C779.228 488.277 780.01 487.88 780.773 488.513C784.053 491.226 787.494 493.755 790.662 496.59C791.542 497.477 792.62 498.142 793.807 498.53C798.336 499.916 802.358 502.6 805.376 506.251C805.642 506.48 805.924 506.69 806.219 506.879H808.965C811.654 510.384 816.205 509.23 819.531 511.314C821.548 512.648 824.003 513.149 826.381 512.711C827.418 513.515 828.117 514.507 828.931 514.612C834.152 515.287 838.721 518.035 843.804 519.113C847.683 519.934 850.928 522.859 855.152 522.572C857.189 524.389 860.534 523.017 862.11 525.651C863.348 525.428 864.619 525.475 865.836 525.788C867.054 526.102 868.19 526.675 869.165 527.469C873.117 527.469 876.887 527.467 880.656 527.469C884.531 528.369 888.541 528.525 892.474 527.929C892.078 528.124 892.291 527.305 893.456 527.54L895.837 529.658C897.527 528.765 899.356 529.774 901.378 528.755C902.4 528.274 903.525 528.053 904.654 528.109C905.783 528.166 906.88 528.498 907.85 529.079C908.171 529.316 908.548 529.467 908.945 529.518C909.342 529.569 909.745 529.519 910.116 529.371C912.326 527.614 914.966 529.204 917.097 528.355C919.311 527.657 921.63 527.354 923.949 527.46C925.001 526.828 925.504 525.876 926.699 525.42C928.753 524.491 930.568 523.104 932.004 521.365C933.44 519.626 934.459 517.582 934.984 515.389C935.427 514.096 934.682 512.419 935.325 510.931C936.444 506.241 936.78 501.397 936.319 496.597C934.265 493.674 934.683 489.812 932.439 486.879C930.495 484.338 929.412 481.079 927.267 478.77C924.958 476.284 922.233 474.16 920.12 471.443C919.844 471.035 919.487 470.688 919.071 470.423C914.277 467.826 909.815 464.661 905.78 460.995C905.034 460.336 904.248 460.713 902.988 460.446L900.573 457.446C898.475 458.201 897.637 456.815 896.568 455.74V455.74ZM704.033 366.939C704.244 364.431 703.413 362.103 705.047 360.314L702.757 354.291C700.575 354.606 699.164 353.276 697.619 352.486C697.215 352.779 696.773 353.35 696.463 353.286C693.614 353.198 690.771 353.586 688.049 354.432C685.892 354.478 683.76 354.897 681.746 355.67C677.638 357.239 673.678 359.172 669.914 361.445C668.929 362.21 668.199 363.314 667.199 363.39C666.367 364.4 665.818 365.614 665.608 366.906C665.398 368.198 665.534 369.522 666.002 370.745C667.005 373.455 667.782 376.216 668.657 378.956C669.124 380.698 670.172 382.228 671.627 383.292C673.083 384.357 674.858 384.892 676.659 384.809C679.754 384.833 682.849 384.814 685.91 384.814C687.533 383.096 689.48 381.718 691.64 380.76C694.593 379.712 697.166 377.806 699.03 375.286C699.844 374.137 700.719 373.032 701.652 371.977C701.824 371.728 701.954 371.449 702.102 371.184V368.481L704.033 366.939ZM696.878 400.701C693.643 399.804 690.894 402.212 687.818 401.554C684.126 403.369 680.528 405.37 677.039 407.549C674.45 409.488 672.319 411.973 670.8 414.829C670.233 417.756 671.26 420.476 670.123 422.64C670.557 424.436 671.609 426.021 673.095 427.119C675.175 426.74 677.311 426.792 679.369 427.273C680.654 427.827 682.043 428.095 683.442 428.058C684.84 428.021 686.213 427.681 687.467 427.06C691.586 426.102 695.312 423.902 698.14 420.757C700.67 417.771 702.103 414.01 702.203 410.098C702.191 407.606 700.862 405.662 700.798 403.514C699.326 402.346 697.555 402.116 696.878 400.701V400.701Z" fill="#212222"/>
<path d="M337.963 595.688C338.823 589.331 341.161 583.905 342.009 578.082C342.748 574.022 343.79 570.022 345.126 566.117C346.475 562.52 347.352 558.763 347.736 554.941C347.786 553.555 349.028 552.788 348.839 551.413C348.751 550.27 348.74 549.121 348.807 547.976C350.081 546.393 350.783 544.427 350.801 542.395C350.772 541.619 350.935 540.848 351.274 540.15C353.582 533.879 355.089 527.346 357.525 521.1C357.83 519.513 357.857 517.885 357.606 516.288C358.316 515.523 359.342 514.916 359.573 514.087C361.128 508.517 363.151 503.122 365.209 497.728C365.914 495.88 365.501 493.305 366.658 491.999C368.488 489.933 368.307 487.38 369.403 485.197C370.281 483.094 371.023 480.938 371.625 478.74C373.133 473.809 374.921 468.968 376.983 464.241C377.816 461.769 378.436 459.23 378.836 456.652C379.652 453.727 381.494 451.081 382.106 448.207C382.553 445.169 383.557 442.24 385.069 439.567C385.285 433.781 389.113 428.663 388.155 422.989C389.587 419.224 391.535 415.677 393.945 412.449H396.634C396.508 415.11 395.936 417.731 394.943 420.202C397.068 423.191 397.918 426.962 399.924 430.239C401.62 433.446 404.163 436.127 407.276 437.989C409.202 439.028 410.484 440.927 412.398 442.19C417.021 445.241 422.106 447.49 426.605 450.719C427.68 451.306 428.848 451.707 430.057 451.904C432.041 452.663 433.958 453.586 435.789 454.662C437.695 455.598 440.168 455.323 441.555 457.366C444.293 457.242 446.157 460.049 448.997 459.585C453.459 462.001 458.685 462.214 463.383 464.783L464.827 462.675H470.744L470.903 466.107C473.749 467.343 476.753 468.175 479.828 468.58C483.637 468.967 487.385 470.14 491.217 470.73C491.842 470.826 492.557 471.512 493.374 471.381C497.682 471.515 501.98 471.866 506.252 472.433C510.663 472.167 515.102 472.375 519.53 472.375C520.13 470.743 521.256 469.358 522.732 468.438C523.553 468.439 524.372 468.439 525.62 468.439L529.151 472.769C529.96 471.627 530.6 471.316 531.517 471.373C535.13 471.604 538.748 471.001 542.09 469.609C544.071 468.799 546.572 470.107 548.492 468.439C551.314 468.675 554.138 467.996 556.546 466.505C559.093 465.499 561.723 464.718 564.406 464.171C568.403 462.593 572.235 460.624 575.845 458.292C576.024 457.203 577.546 456.291 577.057 455.051C576.401 453.387 577.018 451.521 575.897 449.946C574.931 448.589 574.557 446.644 573.349 445.669C571.913 444.511 571.012 442.964 569.662 441.806C568.352 440.683 567.452 439.119 565.571 438.6C565.117 438.417 564.735 438.091 564.482 437.672C564.229 437.254 564.118 436.764 564.168 436.277C563.468 435.647 562.269 436.391 561.901 435.908C559.982 433.818 557.615 432.188 554.977 431.141C551.181 429.166 547.703 426.562 543.785 424.928C540.432 423.528 537.029 422.272 533.716 420.729C530.53 419.296 527.214 418.171 523.814 417.368C522.218 416.834 520.667 416.172 519.177 415.391C516.274 415.157 512.966 413.942 509.696 413.597C505.609 413.166 501.73 411.953 497.794 411.17C493.027 410.719 488.314 409.802 483.725 408.434C483.565 408.396 483.398 408.394 483.236 408.428C478.238 408.876 473.411 406.66 468.397 407.452C465.797 407.863 463.553 406.243 460.929 406.354C458.609 406.453 456.074 407.351 453.861 405.722C451.02 406.724 448.299 405.064 445.424 405.395C442.316 405.602 439.198 405.627 436.087 405.471C435.773 405.439 435.456 405.47 435.154 405.564C434.853 405.657 434.573 405.81 434.332 406.014C432.914 407.258 431.741 405.997 430.555 405.463C429.443 405.638 428.75 406.734 427.465 406.501C426.325 406.355 425.172 406.345 424.03 406.471C421.625 406.619 419.016 405.734 416.859 406.931C414.66 408.152 411.962 406.322 410.077 408.416C410.004 408.498 409.761 408.427 409.597 408.427C407.957 408.427 406.309 408.528 404.681 408.397C403.185 408.277 402.26 409.958 400.647 409.449C399.916 409.324 399.17 409.311 398.435 409.411C397.63 408.322 398.069 407.62 398.79 407.189C400.939 405.358 403.698 404.401 406.519 404.509C408.077 404.505 409.617 404.182 411.044 403.557C414.1 402.669 417.288 402.314 420.465 402.509C421.588 402.653 422.748 402.675 423.112 401.606C424.306 401.404 424.569 402.144 425.337 402.704C426.718 401.199 428.67 401.559 430.553 401.543C432.193 401.529 433.843 401.654 435.469 401.505C436.897 401.667 438.343 401.482 439.685 400.967C440.539 400.494 442.345 402.42 443.646 400.682C446.802 402.514 450.228 401.281 453.519 401.491C456.948 401.709 460.405 401.622 463.844 401.506C465.632 401.446 466.99 402.736 468.854 402.621C470.517 402.519 472.362 401.827 474.008 403.167C474.758 403.778 475.396 401.801 476.329 402.653C476.592 402.949 476.92 403.181 477.288 403.332C477.655 403.482 478.052 403.546 478.448 403.519C481.94 403.627 485.417 404.029 488.842 404.719C491.809 405.139 494.799 405.371 497.795 405.414C498.953 405.36 499.366 406.517 500.341 406.448C502.107 406.324 503.526 407.988 505.341 407.43C507.061 406.902 508.244 408.561 509.856 408.432C511.927 408.266 513.65 409.949 515.851 409.449C518.104 408.938 519.997 410.476 522.088 410.951C523.971 411.64 525.915 412.148 527.895 412.466C529.805 412.547 531.318 414.205 533.414 414.559C536.101 415.066 538.687 416.011 541.068 417.356C543.516 418.586 546.076 419.578 548.713 420.317C550.219 421.103 551.643 422.038 552.962 423.109C556.656 425.251 560.49 427.162 564.107 429.422C567.871 431.772 571.342 434.559 574.449 437.725C576.286 439.597 578.117 441.477 580.021 443.281C581.075 444.072 581.904 445.125 582.425 446.336C582.946 447.547 583.141 448.873 582.991 450.183C584.026 451.382 586.017 449.741 586.419 452.628C584.901 457.702 583.753 462.878 582.981 468.118C582.756 469.472 582.328 470.784 581.712 472.01C581.372 472.866 581.149 473.764 581.049 474.68C580.479 481.002 579.239 487.246 577.349 493.306C577.207 493.752 577.133 494.218 577.129 494.686C577.029 498.428 576.395 502.137 575.247 505.699C574.732 507.817 574.443 509.982 574.383 512.16C574.112 515.477 573.653 518.775 573.009 522.04C572.105 527.538 571.199 533.052 570.219 538.546C570.084 539.3 568.94 539.612 569.288 540.659L570.335 542.079L568.531 545.606C568.952 546.107 569.234 546.711 569.346 547.355C569.459 548 569.398 548.663 569.17 549.277C568.693 550.557 568.06 551.772 567.283 552.896C567.12 553.714 567.858 553.986 568.286 554.636C567.846 556.902 566.449 558.996 566.077 561.466C565.965 562.208 565.26 563.078 565.308 564.061C565.427 567.19 564.804 570.302 563.491 573.144C563.327 573.394 563.222 573.679 563.184 573.975C563.147 574.272 563.178 574.574 563.274 574.857C563.371 575.14 563.531 575.397 563.742 575.609C563.953 575.821 564.21 575.982 564.493 576.079L562.656 577.695C562.417 582.763 561.331 587.756 559.442 592.466C560.204 597.467 556.439 602.229 556.292 607.732C556.277 608.327 555.209 608.893 554.557 609.545V614.342C551.099 617.186 552.417 622.529 548.688 625.167L549.648 626.776C547.08 630.379 545.043 634.333 543.601 638.516C543.035 640.121 542.113 641.577 540.903 642.774C539.73 643.966 538.839 645.406 538.295 646.987C537.751 648.568 537.568 650.251 537.76 651.913L533.437 656.099C529.735 657.706 526.282 653.823 522.529 656.082C521.4 655.731 520.367 655.126 519.507 654.314C516.876 654.515 514.231 654.2 511.721 653.386C509.23 653.089 506.534 654.338 504.298 652.191L502.697 653.402C502.38 653.374 501.935 653.468 501.769 653.294C499.954 651.865 497.793 650.942 495.506 650.619C493.574 650.147 491.696 649.481 489.899 648.63C489.106 648.206 488.305 647.188 486.931 647.426C486.04 647.592 485.118 647.458 484.311 647.043C483.504 646.629 482.857 645.958 482.473 645.137C481.789 644.063 479.468 643.858 477.831 643.604C475.359 643.409 473.036 642.347 471.273 640.604C468.497 641.427 465.826 639.058 462.568 639.694L460.442 637.13C457.184 636.242 453.975 635.181 450.829 633.951C446.508 631.771 441.719 630.683 436.879 630.783L435.075 628.924H432.4C430.567 627.167 428.184 626.095 425.653 625.887C420.484 625.037 415.479 623.379 410.824 620.975C407.454 620.889 404.144 620.061 401.13 618.55C398.585 617.363 395.769 616.881 392.974 617.153C391.609 615.918 389.986 615.002 388.223 614.472C386.46 613.942 384.602 613.812 382.782 614.09C380.861 611.6 377.729 612.004 375.168 611.231C370.536 610.306 366.042 608.785 361.799 606.708C360.313 605.795 358.447 607.117 357.395 605.417C354.997 606.11 354.128 602.959 351.91 603.229C349.852 603.48 348.517 601.906 346.839 601.216C345.019 600.466 343.412 599.147 341.56 598.539C340.128 597.928 338.886 596.943 337.963 595.688ZM559.386 554.946C557.564 555.619 555.969 556.792 554.782 558.329C553.921 557.589 552.907 557.048 551.814 556.744C550.733 553.737 549.447 550.794 548.663 547.723C548.228 546.017 546.693 544.817 546.668 543.149C546.162 539.97 545.093 536.906 543.51 534.103C542.5 531.404 541.316 528.814 540.547 525.978C539.766 523.097 537.66 520.567 536.932 517.683C536.469 516.346 535.735 515.12 534.777 514.08V509.24C533.94 508.282 533.332 507.147 532.999 505.919C532.666 504.692 532.616 503.404 532.854 502.155C530.063 496.246 527.601 490.186 525.482 484.003C524.851 484.975 524.361 486.032 524.028 487.141C523.511 491.296 521.227 494.874 520.4 498.951C519.779 501.458 518.733 503.841 517.309 505.996C515.971 508.212 514.962 510.61 514.311 513.116C513.425 516.431 509.972 518.475 510.07 522.187C507.733 523.846 507.327 526.57 506.162 528.921C504.096 531.959 502.213 535.119 500.526 538.383C499.243 542.07 496.177 544.73 495.439 548.581C492.655 550.35 492.392 555.112 488.477 554.916L484.409 551.319C485.952 548.682 482.482 547.61 482.616 545.281C482.744 543.055 481.154 541.278 480.718 539.205C480.272 537.082 479.091 535.069 479.662 533.239L476.677 527.444C476.477 526.621 477.394 524.923 476.414 523.791C474.92 521.542 474.333 518.811 474.769 516.146C472.125 513.775 473.498 509.703 470.879 507.345C470.908 505.473 470.596 503.61 469.959 501.849C468.649 499.151 468.91 495.809 466.9 493.29C467.611 490.04 465.519 487.095 465.893 483.861C466.04 482.895 465.909 481.907 465.514 481.013C465.119 480.119 464.478 479.356 463.665 478.813C460.75 484.553 457.142 489.913 452.92 494.773C450.476 498.07 447.683 501.138 445.393 504.468C442.122 509.226 438.42 513.643 435.173 518.396C433.222 521.251 431.21 524.023 429.031 526.719C427.437 528.249 426.026 529.958 424.825 531.812C423.626 534.092 421.888 536.045 419.762 537.501C417.946 538.907 416.12 541.291 413.179 540.131C411.63 538.994 410.485 537.393 409.909 535.56C410.59 533.9 410.932 532.121 410.914 530.327C410.896 528.533 410.52 526.761 409.807 525.115C411.702 523.241 410.803 521.382 409.877 519.627L411.852 514.28C409.052 512.772 412.397 510.133 410.806 508.284C412.971 504.551 410.496 500.097 412.837 496.636L411.756 495.315C412.513 494.042 412.905 492.586 412.889 491.105C412.873 489.624 412.449 488.176 411.665 486.921C412.412 485.958 412.828 484.78 412.851 483.561C412.874 482.342 412.501 481.149 411.79 480.16C413.123 474.64 413.288 468.902 412.276 463.314C410.81 463.819 409.446 464.583 408.25 465.57C402.685 471.24 396.249 475.98 390.903 481.895C388.378 484.689 385.605 487.259 382.924 489.911C381.187 491.704 379.335 493.384 377.382 494.941C375.501 496.378 374.221 498.525 371.711 499.253C371.241 499.413 370.815 499.68 370.464 500.031C370.114 500.382 369.849 500.81 369.69 501.28C369.22 504.677 366.874 507.37 366.452 510.8C366.139 513.227 365.478 515.595 364.489 517.833C363.131 520.475 362.47 523.42 362.57 526.39C362.516 526.757 362.407 527.114 362.245 527.449L360.654 528.857C360.431 530.101 361.021 531.281 359.549 533.228L358.503 533.832C359.469 538.963 356.015 543.129 356.713 547.851L354.686 549.568V555.001L352.83 556.316C352.933 557.743 352.827 559.176 352.517 560.572C350.738 565.653 349.566 570.926 349.025 576.281C347.978 581.547 346.591 586.74 344.871 591.826C346.822 594.296 349.561 596.023 352.632 596.718C354.239 597.165 355.801 597.76 357.298 598.495C362.136 601.073 367.315 602.949 372.682 604.067C378.048 605.872 383.512 607.369 389.049 608.552C392.698 609.077 396.058 610.701 399.762 611.296C402.548 611.234 405.258 612.214 407.359 614.045C412.783 614.039 418.115 615.443 422.832 618.119H427.329L428.954 619.942C433.232 619.623 436.696 623.149 440.411 621.981C444.033 623.665 447.811 624.993 451.691 625.943C455.361 626.943 458.641 629.334 462.459 628.79C463.16 629.492 463.659 629.926 464.079 630.426C464.615 631.066 465.312 630.613 465.908 630.775C468.935 631.151 471.88 632.027 474.621 633.366C477.776 635.617 481.986 634.814 484.697 637.657C488.277 638.412 491.725 639.689 494.932 641.449C497.585 643.05 500.677 643.77 503.765 643.503C504.824 644.743 506.299 644.878 507.452 645.563L509.116 644.428C511.046 646.034 513.842 644.666 515.423 645.708C517.638 647.167 519.93 645.634 521.872 646.868C523.975 648.204 526.282 647.112 528.61 647.602C530.259 644.55 532.047 641.649 533.833 638.792C535.51 635.916 537.016 632.944 538.344 629.892C539.502 626.77 540.897 623.741 542.516 620.831C544.481 617.931 543.872 614.087 546.463 611.726C547.162 609.707 545.687 607.5 547.555 605.649C549.05 604.168 548.731 601.844 549.172 599.977C550.858 595.675 551.982 591.173 552.516 586.583C554.231 584.925 552.729 582.412 553.9 580.78C555.443 577.562 556.248 574.04 556.258 570.471C556.658 568.534 556.993 566.416 557.568 564.568C558.754 561.529 559.377 558.299 559.405 555.036C560.72 554.98 560.493 553.933 560.354 553.261C559.949 550.736 560.371 548.148 561.558 545.882C562.452 544 561.959 541.905 563.238 540.143C563.53 539.573 563.609 538.917 563.461 538.294C563.313 537.67 562.948 537.12 562.432 536.741L564.184 534.99C564.299 533.891 564.015 532.436 564.612 531.766C565.87 530.354 563.75 529.698 564.286 528.472C565.384 525.423 566.134 522.26 566.52 519.042C567.532 515.948 568.101 512.727 568.212 509.474C568.648 504.65 569.484 499.871 570.711 495.186C570.597 492.841 571.407 490.545 572.966 488.79C573.06 488.666 573.127 488.524 573.161 488.372C573.195 488.22 573.197 488.063 573.165 487.911C573.017 485.38 573.437 482.848 574.395 480.501C575.055 477.628 574.484 474.142 577.118 471.837C577.273 469.082 579.173 466.441 577.622 463.493C575.963 465.989 572.527 465.911 570.829 468.332C568.38 467.413 567.617 470.986 565.296 470.407C561.261 472.283 556.687 472.312 552.595 474.192C551.195 474.83 549.689 475.201 548.153 475.287C546.124 475.395 544.111 475.691 542.137 476.171C540.195 476.599 538.16 476.734 536.159 477.191C534.598 477.548 532.89 478.708 530.956 477.271C531.26 480.333 532.112 483.315 533.474 486.074C535.181 489.299 536.626 492.657 537.795 496.114C539.58 501.752 541.687 507.282 544.106 512.678C544.343 513.067 544.52 513.49 544.633 513.932C544.783 517.505 546.052 520.941 548.26 523.756C548.405 523.939 548.506 524.152 548.556 524.381C548.605 524.609 548.602 524.845 548.547 525.072C548.031 526.684 549.14 527.883 549.755 529.01C551.055 531.251 552.136 533.611 552.984 536.058C554.232 539.906 555.954 543.673 557.591 547.405C558.414 549.281 557.897 551.458 559.357 553.092C559.683 553.457 559.405 554.361 559.386 554.946ZM471.318 473.254L470.22 473.843C473.217 477.369 471.356 481.47 472.285 485.352C473.175 489.072 475.503 492.519 474.818 496C476.774 499.67 478.086 503.65 478.695 507.764C479.075 509.549 479.636 511.29 480.369 512.961C480.695 514.155 481.676 514.983 481.711 516.36C482.056 519.556 482.865 522.684 484.114 525.646C486.138 529.764 487.325 534.243 487.607 538.823C489.2 540.311 489.235 542.405 489.94 544.192C492.752 542.168 493.233 538.726 495.438 536.488C495.241 533.287 498.694 531.624 498.789 528.546C500.468 527.703 499.818 525.556 500.908 524.538C503.738 521.896 504.255 518.004 506.373 514.979C507.575 513.262 507.996 510.97 509.291 509.356C510.81 507.463 509.467 504.376 512.168 503.153C511.833 500.947 513.345 499.288 514.265 497.658C515.006 495.649 515.581 493.583 515.984 491.48C516.729 489.52 518.407 487.904 518.137 485.46C517.608 483.215 517.966 480.852 519.138 478.865C518.911 478.55 518.581 478.324 518.205 478.226C517.829 478.128 517.43 478.165 517.079 478.331C515.523 479.57 513.714 478.977 512.051 479.309C509.237 479.872 506.822 478.132 504.098 478.251C501.321 478.372 498.534 478.278 495.75 478.278C495.588 478.303 495.423 478.3 495.262 478.271C491.293 476.761 487.054 476.094 482.814 476.313C481.9 476.219 481.014 475.942 480.21 475.499C477.334 474.499 474.295 473.965 471.318 473.254V473.254ZM452.539 467.339C450.695 467.504 448.837 467.251 447.105 466.599C444.552 465.875 442.402 464.351 439.975 463.609C435.877 462.356 432.173 460.258 428.204 458.758C425.796 457.848 423.442 456.798 420.969 455.771C419.404 460.48 418.622 465.413 418.651 470.374C418.801 473.317 418.639 476.274 418.699 479.223C418.721 480.296 418.228 481.523 419.346 482.389C418.515 484.694 420.578 486.928 418.983 489.552C417.62 491.797 419.393 495.088 417.96 497.727C418.553 498.839 418.843 500.087 418.8 501.346C418.757 502.606 418.382 503.831 417.714 504.9C417.129 506.115 418.653 506.815 418.685 508C417.342 509.017 417.708 510.535 417.701 511.942C417.681 515.876 417.694 519.809 417.694 523.743C415.777 526.126 416.856 528.231 418.378 530.493C420.66 526.963 423.415 523.762 426.566 520.979C426.142 517.841 429.292 517.181 430.472 514.955C430.437 514.043 430.22 512.672 431.537 512.219C433.327 511.604 434.041 509.966 434.826 508.685C435.751 507.219 436.84 505.864 438.074 504.646C438.971 504.001 439.722 503.174 440.278 502.218C440.833 501.263 441.181 500.2 441.297 499.101C441.286 498.694 441.408 498.294 441.643 497.962C441.879 497.63 442.216 497.383 442.603 497.259C443.955 497.036 443.982 495.864 444.657 495.186C446.795 492.69 448.794 490.077 450.643 487.36C454.596 482.115 458.158 476.587 461.3 470.821C458.101 470.042 454.777 470.166 452.539 467.339V467.339ZM415.726 452.424C410.442 449.833 405.617 446.395 401.443 442.247C396.511 440.844 396.168 435.291 392.459 433.168C390.009 434.844 391.626 437.398 391.087 439.253C389.762 441.552 388.769 444.028 388.138 446.606C387.096 449.781 387.755 453.476 385.219 456.187C384.078 461.38 382.41 466.442 380.239 471.295C378.915 476.593 376.977 481.718 374.467 486.567C374.957 488.441 373.499 490.045 373.388 491.651C374.679 492.431 375.417 491.853 375.718 491.164C377.069 488.801 378.851 486.713 380.972 485.007C385.33 480.576 389.751 476.207 394.146 471.813C395.418 470.541 396.794 469.353 397.933 467.972C398.971 466.712 400.978 466.465 401.373 464.588C406.673 461.054 410.799 456.18 415.726 452.424V452.424Z" fill="#232323"/>
<path d="M790.447 254.823C786.851 257.953 783.043 260.831 779.052 263.439C780.4 264.438 782.065 264.916 783.738 264.781C785.307 264.484 786.355 265.622 787.592 266.174C793.545 268.831 799.42 271.633 805.625 273.735C808.591 275.05 811.436 276.625 814.125 278.442H817.413C817.821 278.777 818.194 279.055 818.536 279.368C819.697 280.433 820.533 281.78 822.577 281.591C824.48 281.416 824.588 284.328 826.669 284.518C827.531 284.584 828.367 284.839 829.118 285.265C829.869 285.692 830.516 286.279 831.014 286.985C831.902 288.288 833.561 288.257 834.477 289.383C836.454 288.58 835.413 291.281 837.009 291.46C839.401 291.727 840.915 293.887 842.473 295.428C844.881 294.922 847.063 293.655 848.695 291.814C851.742 288.879 855.178 286.375 858.906 284.375C861.157 282.898 863.262 281.209 865.192 279.331C867.017 277.855 869.677 277.398 870.636 274.865C874.317 272.279 877.837 269.474 881.18 266.464C881.327 265.046 881.397 263.629 880.114 263.281C877.69 262.623 876.626 260.269 874.388 259.276C871.89 258.166 870.774 255.271 869.223 253.116C866.705 249.488 864.796 245.474 863.572 241.231C863.554 236.578 864.793 232.007 867.157 227.999C869.687 223.423 873.926 223.17 878.157 222.484C878.778 222.428 879.395 222.328 880.002 222.183C880.423 222.049 880.538 221.299 881.507 221.658C882.789 223.06 884.825 222.288 885.599 222.388C888.895 223.495 890.695 225.434 893.266 225.46C898.457 228.912 902.507 233.826 904.905 239.58C905.103 240.79 904.177 243.149 905.828 245.113C904.184 247.037 905.066 249.385 904.787 251.524C904.106 252.102 903.575 252.836 903.239 253.664C902.903 254.492 902.772 255.388 902.856 256.277C900.099 259.942 896.006 261.623 893.357 264.93C891.566 267.166 889.433 269.094 887.606 271.328C885.779 273.308 883.751 275.092 881.555 276.653C879.487 278.285 877.232 279.647 875.258 281.459C873.207 283.341 870.711 284.727 868.499 286.445C862.823 290.853 856.461 294.295 851.1 299.177C848.593 301.074 845.915 302.732 843.099 304.13H839.381C836.834 301.319 833.848 298.941 830.539 297.086C828.659 295.769 826.996 294.166 825.609 292.336C824.297 292.336 822.985 292.336 821.673 292.336C820.05 290.713 818.427 289.088 816.757 287.416C816.153 287.416 815.157 287.687 814.911 287.372C813.184 285.166 810.012 285.383 808.215 283.044C807.255 281.795 805.012 281.471 803.297 280.877C799.816 279.672 796.885 277.255 793.476 276.093C788.411 274.366 783.975 271.349 778.917 269.639C776.296 269.229 773.863 268.028 771.942 266.198C772.018 264.511 772.559 262.877 773.506 261.479C774.454 260.081 775.769 258.972 777.308 258.276C780.102 256.274 782.773 254.105 785.306 251.783C791.486 247.473 796.624 241.778 803.203 237.926C803.702 237.669 804.146 237.315 804.509 236.886C804.871 236.457 805.145 235.961 805.316 235.426C805.481 233.866 806.957 234.685 807.338 233.868C807.059 233.088 806.255 233.473 805.781 233.153C804.375 232.202 803.799 230.169 801.524 230.298C799.953 230.388 799.511 228.077 797.411 228.197C796.239 228.264 795.081 226.159 793.694 225.499C792.076 224.442 790.627 223.147 789.397 221.658C788.201 220.586 786.688 219.935 785.891 218.294C784.741 216.635 783.493 215.046 782.152 213.537C781.453 212.463 782.502 210.773 780.829 210.141V200.452C781.526 199.803 782.062 199 782.395 198.107C782.727 197.214 782.846 196.256 782.743 195.309C784.671 194.98 785.412 193.27 786.758 192.576C788.023 191.903 789.177 191.04 790.179 190.017C791.306 190.072 792.435 190.066 793.56 190C800.698 190.14 807.665 192.2 813.732 195.963C814.087 196.139 814.4 196.388 814.653 196.694C814.906 196.999 815.092 197.354 815.199 197.736C815.248 198.136 815.4 198.516 815.639 198.841C815.878 199.165 816.197 199.422 816.565 199.587C819.625 200.42 820.309 203.049 821.363 205.445C822.959 208.041 824.366 210.748 825.573 213.545C826.317 216.171 826.936 218.828 827.927 221.414C828.334 223.524 828.38 225.687 828.066 227.813C826.608 229.647 824.558 230.919 822.267 231.412C819.147 232.098 817.101 234.773 814.599 236.566C812.324 238.198 810.713 240.687 807.728 241.444C807.491 241.486 807.265 241.578 807.068 241.716C806.87 241.854 806.705 242.034 806.585 242.242C806.465 242.451 806.392 242.683 806.371 242.923C806.35 243.163 806.383 243.405 806.466 243.631C802.425 245.425 798.843 248.11 795.986 251.484C798.919 252.214 800.79 254.343 803.673 254C804.421 253.911 804.928 254.745 805.692 255.03C809.389 256.408 813.235 257.338 816.862 258.94C820.197 260.399 823.605 261.684 827.072 262.791C833.348 264.587 839.446 266.953 845.29 269.861C848.541 271.188 851.694 272.744 854.726 274.516C856.88 275.787 858.839 277.363 860.542 279.195C860.887 282.587 858.038 282.601 855.896 283.801C854.379 282.477 852.596 281.494 850.666 280.917C849.579 280.699 848.602 280.109 847.901 279.25C847.446 278.603 846.822 277.792 846.139 277.632C841.766 276.609 838.511 273.207 834.093 272.216C830.775 271.142 827.54 269.826 824.414 268.279C821.091 267.221 817.823 265.997 814.623 264.611C811.492 263.025 808.038 262.136 804.958 260.633C800.847 258.627 796.55 257.143 792.417 255.246C791.777 255.037 791.117 254.895 790.447 254.823V254.823Z" fill="#212222"/>
<path d="M275 353.389V349.159C276.744 346.204 277.815 343.118 281.067 341.433C283.859 339.986 287.05 340.12 289.729 338.575C292.718 340.373 296.026 339.16 299.151 339.606C300.462 339.793 300.836 338.284 302.206 338.481C303.353 338.646 303.889 339.762 305.234 339.631C308.497 339.586 311.726 340.302 314.664 341.722C317.604 342.529 320.404 343.782 322.964 345.438C323.127 345.568 323.559 345.361 323.893 345.306C324.191 344.823 324.367 344.275 324.406 343.709C324.445 343.143 324.346 342.576 324.118 342.057C322.386 337.986 321.041 333.761 320.103 329.437C318.578 326.133 317.249 322.742 316.121 319.282C315.979 318.634 315.236 318.036 315.344 317.16C315.594 315.786 315.472 314.371 314.991 313.06C314.51 311.75 313.688 310.591 312.609 309.705C312.361 309.071 312.344 308.37 312.563 307.725C312.781 307.08 313.22 306.533 313.802 306.18C314.54 305.996 315.309 305.972 316.057 306.109C316.806 306.247 317.516 306.542 318.141 306.976C320.865 306.451 323.445 305.353 325.711 303.754C328.049 302.387 330.314 300.627 332.736 299.243C335.191 297.839 337.116 295.086 339.59 294.532C342.959 293.778 343.969 290.868 346.489 289.42C349.688 289.625 351.595 286.933 354.083 285.506C358.67 282.401 364.048 280.668 369.586 280.512C372.213 281.488 370.602 284.415 372.598 285.07C374.23 285.729 375.642 286.837 376.671 288.265C378.942 290.891 381.174 293.567 383.2 296.382C384.039 297.546 385.723 297.435 386.241 298.958C386.489 300.331 387.144 301.598 388.121 302.594C389.701 303.82 388.814 306.267 390.844 307.438C391.633 307.971 392.259 308.711 392.656 309.576C393.052 310.441 393.203 311.398 393.093 312.343C395.287 313.681 394.625 316.833 396.976 318.289V322.183C398.956 324.869 400.715 327.712 402.236 330.683C403.076 332.672 405.672 334.928 402.941 337.172C402.86 338.944 404.871 339.129 404.903 340.563C405.028 341.369 404.134 341.531 403.834 342.405C405.528 344.085 404.709 346.418 404.961 348.672C404.638 348.999 404.345 349.356 404.086 349.736C400.695 355.741 396.924 355.546 391.14 356.297C386.5 356.632 381.836 356.22 377.327 355.076C373.503 354.747 369.849 353.345 366.787 351.031C363.545 348.674 360.978 345.507 359.344 341.847C359.171 341.085 358.848 340.365 358.393 339.729C357.937 339.094 357.36 338.556 356.693 338.148V327.329C359.528 324.404 363.197 322.425 367.199 321.663C372.33 320.83 377.567 320.893 382.676 321.85C384.823 323.103 387.105 324.108 389.479 324.846C390.306 324.364 390.316 323.611 390.105 323.4C388.679 321.59 387.592 319.537 386.896 317.341C384.556 311.682 381.608 306.294 378.105 301.271C374.976 297.158 372.05 292.892 368.632 288.996C368.361 288.688 368.379 288.127 368.228 287.553C366.776 287.39 365.306 287.556 363.927 288.039C362.548 288.522 361.295 289.31 360.262 290.343C358.672 291.565 356.966 292.627 355.168 293.515C352.786 294.664 350.554 296.099 348.52 297.788C346.33 299.544 343.433 300.47 341.022 302.139C336.873 305.011 332.088 306.79 327.88 309.636C326.338 310.68 324.053 310.682 322.543 312.168C321.925 313.222 322.352 314.372 322.276 315.203C324.082 317.777 325.53 320.584 326.579 323.548C326.841 324.59 327.029 325.649 327.142 326.717C327.29 329.648 327.446 330.073 330.125 333.219C329.748 336.397 330.508 339.606 332.272 342.276C333.318 345.429 334.668 348.473 336.304 351.364H338.44C339.169 351.73 338.707 352.649 339.181 353.022C341.107 354.535 339.148 356.949 340.743 358.848C341.729 360.022 340.86 362.384 340.09 364.25C339.78 365.285 339.251 366.24 338.539 367.053C337.129 368.424 335.707 369.787 334.371 371.229C332.274 373.348 329.869 375.138 327.237 376.538C323.221 378.99 318.555 380.167 313.856 379.911C312.222 379.818 310.578 379.884 308.939 379.898C303.048 379.776 297.26 378.334 292.001 375.676C290.566 375.028 289.267 374.112 288.174 372.978C284.444 369.472 281.063 365.611 278.079 361.451C277.427 358.635 276.391 355.922 275 353.389V353.389Z" fill="#222222"/>
<path d="M865.483 359.507C866.471 358.861 867.621 358.505 868.802 358.478C869.983 358.452 871.148 358.757 872.164 359.358C872.128 362.061 875.776 364.282 873.55 367.727C874.533 368.312 874.301 369.908 875.359 370.771C874.903 372.041 874.478 373.387 873.991 374.616C873.609 375.46 873.388 376.369 873.34 377.294C873.289 380.436 873.928 383.724 871.368 386.317C871.353 389.937 869.707 393.273 869.47 396.82C869.449 398.703 868.774 400.519 867.56 401.959C867.432 403.371 867.789 405.163 867.057 406.136C866.02 407.514 867.045 409.035 866.122 410.227C864.895 409.991 864.37 408.755 863.142 408.269C862.296 407.968 861.571 407.398 861.079 406.646C860.587 405.893 860.355 405.001 860.418 404.104C860.47 402.932 858.755 401.719 858.711 400.493C858.667 399.305 857.07 398.197 858.415 396.952C857.506 394.818 857.461 392.415 858.291 390.249C858.963 388.002 859.397 385.69 859.585 383.351C859.582 382.587 859.216 381.744 859.891 381.027C862.133 378.648 861.408 375.663 861.544 372.821C862.942 371.134 863.631 368.971 863.467 366.787C863.073 365.014 864.185 363.733 864.869 362.442C865.283 361.52 865.493 360.519 865.483 359.507V359.507Z" fill="#232323"/>
<path d="M960.797 417.795C957.679 421.127 954.056 423.946 950.059 426.149C948.13 427.466 946.281 428.902 944.438 430.34C944.025 430.581 943.681 430.924 943.438 431.336C943.195 431.748 943.061 432.215 943.049 432.694C939.986 433.285 937.159 434.747 934.905 436.903H929.984C928.083 435.936 928.298 434.178 928.578 432.369C929.131 432.151 929.894 432.09 930.222 431.681C932.769 428.51 936.537 426.741 939.22 423.737C940.812 421.956 943.053 420.995 944.809 419.348C945.927 418.299 948.305 418.712 949.596 418.042C951.271 417.006 953.193 416.437 955.163 416.393C957.132 416.35 959.077 416.834 960.797 417.795Z" fill="#242524"/>
<path d="M895.987 399.867C899.763 397.292 900.752 392.298 905.762 390.848H910.64C909.783 395.22 907.838 399.307 904.985 402.729C904.055 403.983 903.772 405.676 902.293 406.571C901.442 407.086 902.044 408.078 901.803 409.036C898.532 411.435 897.045 415.679 893.504 418.132H889.473C888.742 417.588 888.244 416.787 888.079 415.891C887.913 414.995 888.092 414.069 888.58 413.299C890.287 409.499 892.541 405.969 895.273 402.823C895.844 401.949 896.096 400.906 895.987 399.867V399.867Z" fill="#242424"/>
</svg>
