<svg width="1208" height="900" viewBox="0 0 1208 900" fill="none" xmlns="http://www.w3.org/2000/svg">
<path d="M754.187 710.461L752.564 708.744C747.333 709.157 742.072 708.577 737.056 707.036L735.646 705.044C734.36 703.229 736.287 701.471 736.251 699.235C736.926 698.303 737.784 697.518 738.773 696.928C739.761 696.338 740.859 695.954 742 695.801C743.537 695.651 743.968 694.411 744.274 693.135C746.065 692.238 748.041 691.776 750.044 691.787C752.046 691.797 754.018 692.281 755.798 693.197C756.843 693.937 757.723 694.885 758.385 695.98C759.047 697.076 759.476 698.296 759.645 699.565C758.686 701.145 758.531 703.541 757.061 705.344C757.945 706.41 759.938 704.721 760.191 706.411C764.464 704.892 768.421 702.599 771.863 699.646C777.264 696.433 782.442 692.859 787.362 688.949C791.54 685.137 796.109 681.779 800.994 678.93C801.896 678.219 802.734 677.431 803.497 676.573C805.055 675.217 806.796 673.935 808.205 672.572C811.978 669.186 815.063 665.106 817.294 660.554C818.965 657.329 820.328 653.954 821.364 650.473V642.897C818.566 640.854 815.079 639.851 812.316 637.623C811.408 636.89 810.25 637.107 809.221 636.72C801.781 633.917 794.18 631.542 786.699 628.838C784.618 628.085 782.386 628.639 780.278 627.554C779.193 626.932 778.161 626.222 777.193 625.432C773.561 625.753 769.925 624.865 766.851 622.905C765.29 622.241 763.637 621.819 761.949 621.654C758.177 620.778 754.609 619.214 750.819 618.555C749.186 618.196 747.646 617.496 746.301 616.501C743.53 617.338 740.828 614.623 737.936 615.608C736.945 615.183 737.253 614.394 736.968 613.864C731.556 612.721 726.267 611.058 721.174 608.898C717.565 607.506 713.825 606.688 710.163 605.554C704.742 604.407 699.405 602.895 694.188 601.029C691.277 600.009 688.283 599.241 685.241 598.733C682.21 598.163 679.249 597.272 676.407 596.076C674.528 595.337 672.551 594.877 670.539 594.711C664.81 594.113 659.162 592.895 653.695 591.079C651.781 590.322 649.811 591.067 647.187 590.402C645.303 589.128 643.045 588.526 640.776 588.693C637.499 588.573 634.259 587.947 631.173 586.838C627.881 585.865 624.514 585.168 621.107 584.754C618.044 584.236 615.018 583.516 612.05 582.598C610.212 582.203 608.348 581.938 606.473 581.805C605.505 581.749 604.341 582.013 603.607 581.569C601.467 580.274 598.451 581.233 596.86 578.798L595.484 580.074C594.227 578.541 592.424 578.831 590.678 578.831C588.86 578.831 586.531 579.527 585.35 578.66C583.771 577.5 581.968 580.128 580.984 577.886C579.172 577.871 577.361 577.849 575.549 577.841C573.732 577.834 571.913 577.813 570.096 577.853C569.461 577.853 568.846 577.63 568.357 577.224C568.088 577.038 567.784 576.908 567.464 576.841C567.143 576.774 566.813 576.772 566.492 576.835C566.171 576.898 565.865 577.025 565.594 577.208C565.322 577.39 565.09 577.626 564.911 577.9C563.577 577.676 562.485 576.757 560.916 576.776C549.845 576.912 538.771 576.896 527.7 576.794C526.307 576.949 524.942 577.298 523.646 577.831C519.328 578.925 515.197 580.633 510.898 581.748C508.318 582.417 506.339 584.172 503.775 584.966C501.359 585.684 499.171 587.015 497.422 588.829C495.139 590.684 492.586 592.178 489.851 593.26C486.228 595.356 482.744 597.684 479.419 600.227C476.755 602.202 473.23 602.655 471.096 605.363C468.269 605.355 465.687 607.276 462.236 606.265C463.801 604.761 465.475 603.375 467.246 602.119C471.698 599.109 475.976 595.847 480.057 592.349C483.695 589.418 487.665 586.923 491.885 584.917C493.995 583.86 495.929 582.482 497.617 580.833C501.419 581.524 503.281 577.779 507.799 577.014C510.342 576.972 512.819 576.203 514.939 574.799C516.867 573.828 518.965 573.24 521.117 573.067C526.208 571.827 531.406 571.076 536.639 570.822C541.904 571.178 547.229 570.642 552.492 571.008C555.149 571.192 557.767 572.006 560.518 571.961C561.766 571.941 562.52 571.117 563.577 570.895C564.641 571.093 565.357 572.06 566.641 571.944C568.772 571.75 570.973 572.148 573.072 571.826C575.752 571.416 578.013 573.047 580.605 572.91C583.055 572.518 585.556 572.558 587.993 573.028C590.884 573.966 593.831 573.24 596.523 573.985C601.333 574.469 606.086 575.408 610.719 576.79C612.084 577.454 613.982 576.115 615.357 577.55C619.407 577.948 623.401 578.787 627.269 580.053C632.56 580.519 637.804 581.419 642.947 582.746C644.085 582.938 645.246 582.955 646.388 582.796L648.15 584.558C648.285 584.631 648.417 584.766 648.554 584.77C650.451 584.832 652.347 585.451 654.107 585.584C659.188 585.968 664.03 587.701 669.135 587.818C670.659 588.017 672.142 588.458 673.527 589.125C677.852 590.876 682.482 591.755 687.149 591.71L688.739 593.874C692.661 592.846 695.712 595.061 698.998 595.903C702.647 597.195 706.399 598.175 710.214 598.833C713.653 599.557 717.008 600.636 720.224 602.053C722.268 602.767 724.38 603.268 726.526 603.548C728.521 603.826 730.463 604.4 732.288 605.251C735.124 606.743 738.085 607.985 741.137 608.963C745.538 609.894 749.295 613.062 754.057 612.539C758.387 615.051 763.843 614.154 768.014 617.145C771.159 617.304 773.896 619.266 776.967 619.38C779.016 619.768 781.002 620.439 782.867 621.372C786.102 620.539 789.419 623.119 793.165 623.452C798.353 626.111 803.85 628.117 809.531 629.425C811.857 630.316 813.913 632.044 816.529 631.297C818.645 632.956 820.952 634.356 823.401 635.467C825.844 636.215 826.297 639.836 829.255 640.329C829.747 646.059 828.66 651.814 826.112 656.97C824.616 660.684 822.763 664.244 820.581 667.601C818.56 670.467 816.229 673.101 813.629 675.455C810.538 678.551 807.267 681.462 803.833 684.172C799.264 687.226 795.359 691.116 790.601 694.029C787.275 695.855 784.156 698.033 781.297 700.526C778.48 702.973 775.347 705.031 771.981 706.643C770.076 707.465 768.364 708.678 766.958 710.204C768.525 711.873 770.55 713.041 772.78 713.562C778.468 715.786 784.176 717.962 789.864 720.193C791.496 721.133 793.351 721.612 795.233 721.582C797.211 721.278 798.716 722.94 800.785 722.672C801.719 722.392 802.704 722.323 803.669 722.468C804.633 722.614 805.553 722.971 806.364 723.515C806.851 723.921 807.965 723.576 808.791 723.576C811.435 723.576 814.085 723.68 816.722 723.549C819.627 723.932 822.578 723.75 825.413 723.012C827.938 721.868 830.93 723.614 833.254 721.594C836.491 722.496 838.947 720.081 841.77 719.339C844.019 718.748 846.838 718.88 848.594 716.735C851.123 717.108 853.015 715.285 855.099 714.476C858.925 712.834 862.539 710.734 865.861 708.224C867.01 707.413 868.291 706.797 869.416 705.92C871.417 704.361 874.342 704.097 875.33 701.062C875.635 700.125 877.295 699.644 878.307 698.917C879.245 698.243 879.315 697.033 879.992 696.125C883.677 691.889 886.783 687.183 889.23 682.13C890.153 680.347 891.183 678.621 892.316 676.963C893.273 675.225 893.511 673.216 894.649 671.456C895.278 670.484 896.468 669.118 895.839 667.52C897.551 665.793 896.202 662.623 898.772 661.3C898.485 659.225 900.494 657.953 900.675 656.166C900.778 654.281 901.127 652.418 901.714 650.624C902.176 648.035 902.789 645.475 903.55 642.958C901.549 640.882 903.95 638.949 903.982 636.919C903.94 634.745 904.51 632.604 905.627 630.739C906.442 629.505 904.903 627.898 905.545 626.105C905.846 625.266 905.951 624.369 905.85 623.483C905.749 622.597 905.445 621.747 904.963 620.997C903.943 619.398 905.4 616.848 903.495 615.322L904.709 614.015C904.193 613.659 903.763 613.192 903.45 612.649C903.137 612.106 902.948 611.5 902.898 610.875C902.942 608.255 900.859 606.02 901.816 603.573C901.406 602.231 900.065 601.931 899.737 600.712C898.467 596.403 896.378 592.379 893.586 588.86C891.927 586.64 890.713 584.059 888.89 581.898C888.645 581.608 888.856 580.935 888.856 580.33C886.092 578.189 883.944 575.354 882.631 572.112C879.655 569.988 877.949 566.66 875.105 564.31C873.419 563.025 871.874 561.565 870.496 559.955C869.274 558.399 867.347 557.693 866.256 555.868C865.025 553.809 862.286 553.27 860.746 551.296C859.373 549.309 857.374 547.84 855.068 547.123C854.007 546.848 853.539 545.948 852.86 545.29C851.29 543.487 849.336 542.06 847.141 541.114C845.242 540.449 844.318 538.464 842.678 537.219H840.729C836.773 533.379 832.343 530.058 827.548 527.336C825.178 526.079 823.033 524.439 821.2 522.48C820.017 520.741 817.519 522.073 816.694 520.074C811.737 517.601 808.067 513.335 803.325 510.506C801.25 509.426 799.245 508.217 797.32 506.888C795.57 505.529 794.688 503.119 792.282 502.618C789.814 502.103 788.789 499.531 786.465 498.699C784.163 497.876 782.788 495.605 780.832 494.294C778.928 493.111 777.211 491.65 775.739 489.96C774.277 488.257 772.457 486.898 770.409 485.98C767.842 484.664 765.518 482.918 763.539 480.819L761.309 480.568C759.016 477.656 755.853 475.552 752.28 474.563C752.197 473.841 751.93 473.154 751.505 472.565C751.081 471.976 750.512 471.505 749.854 471.198C742.854 468.004 737.887 461.72 730.715 458.766C730.007 458.512 729.389 458.059 728.934 457.46C728.479 456.862 728.208 456.145 728.152 455.396C723.726 453.418 719.949 450.23 717.256 446.199C714.502 443.187 712.057 439.905 709.958 436.405C708.415 434.434 707.492 432.05 707.307 429.555C704.572 427.006 704.392 423.146 702.476 420.143C701.033 417.881 701.265 417.733 702.419 415.053C702.372 414.907 702.367 414.721 702.273 414.622C701.702 414.024 701.111 413.447 700.589 412.926C699.874 409.741 701.475 406.362 699.443 403.398C699.536 403.106 699.644 402.82 699.766 402.54C700.904 400.222 700.206 396.924 703.41 395.708C704.503 393.165 705.812 390.719 707.323 388.4C707.918 387.245 708.815 386.273 709.918 385.588C711.976 384.429 713.769 382.811 715.783 381.788C717.896 380.752 719.852 379.42 721.59 377.832C722.424 377.145 723.448 376.729 724.525 376.64C726.106 376.433 727.581 375.732 728.74 374.637C731.272 374.794 733.812 374.483 736.232 373.721C738.113 372.803 740.224 374.318 741.971 375.163C743.182 375.749 744.245 375.093 745.365 375.658C747.458 377.773 749.056 380.327 750.041 383.135C751.027 385.943 751.377 388.935 751.065 391.895C749.786 392.828 749.004 394.07 747.202 394.613C745.085 395.011 743.002 395.572 740.971 396.292C739.361 396.655 737.696 396.696 736.07 396.413C733.429 396.537 730.783 396.516 728.144 396.351C725.329 396.04 722.207 396.297 720.785 392.613C720.079 390.784 717.527 389.971 717.002 387.635C715.193 388.255 713.598 389.376 712.4 390.866C711.201 392.356 710.45 394.155 710.232 396.055L706.591 399.34C705.804 405.425 706.923 411.604 709.794 417.027C710.784 419.037 709.676 420.906 710.82 423.153C710.983 423.316 711.997 423.842 712.084 424.493C713.34 428.974 715.565 433.125 718.601 436.653C720.361 439.49 721.97 442.966 725.764 444.04C727.097 446.123 728.811 447.937 730.817 449.386C734.19 452.661 738.405 454.684 741.803 457.9C744.925 460.484 748.263 462.796 751.78 464.809C754.237 466.432 756.665 468.092 759.183 469.636C762.885 472.002 766.461 474.559 769.898 477.296C773.092 480.091 776.549 482.569 780.222 484.696C781.196 485.326 782.035 486.142 782.693 487.098C784.82 489.243 787.427 490.851 790.299 491.791C791.492 489.291 788.826 487.391 789.687 485.185C787.901 483.791 788.986 481.832 788.694 480.144C788.347 478.136 789.211 476.114 787.813 474.037C786.583 472.209 788.667 470.176 788.807 468.086C788.936 466.156 786.258 464.571 788.487 462.298C788.724 462.001 788.894 461.657 788.987 461.289C789.08 460.92 789.093 460.536 789.025 460.162C788.958 459.789 788.811 459.434 788.595 459.121C788.379 458.809 788.098 458.546 787.772 458.351C787.568 457.093 788.661 456.882 788.655 456.339C789.17 450.929 790.44 445.618 792.428 440.56C793.057 438.215 793.233 435.626 794.025 433.265C795.573 429.762 797.316 426.348 799.247 423.039C802.112 417.68 805.912 412.875 810.466 408.851C814.005 407.783 816.311 403.972 820.497 404.343C823.696 401.8 828.019 402.714 831.421 400.793C831.687 400.642 831.971 400.388 832.24 400.397C836.17 400.258 840.065 399.595 843.821 398.428C844.419 398.293 845.039 398.281 845.642 398.395L859.494 393.144L863.834 388.815L858.465 386.242C857.174 382.901 853.662 381.264 851.205 377.735C850.379 375.264 850.011 372.663 850.118 370.06C850.019 367.131 852.075 364.528 851.071 361.672C853.085 359.117 854.115 355.846 858.87 354.812H869.557C871.092 356.853 873.284 358.303 875.762 358.918C875.911 360.758 876.366 362.56 877.109 364.25C877.761 366.886 878.045 369.599 877.955 372.313C878.008 374.04 877.458 375.9 878.938 377.355C878.87 380.792 877.825 384.139 875.925 387.005C871.728 391.37 866.958 395.147 861.747 398.232C858.463 398.146 856.363 401.258 853.132 401.387C850.156 401.505 847.646 403.343 844.543 403.524C841.896 403.678 839.346 405.317 836.545 405.663C836.066 405.722 835.59 406.365 834.858 406.343C830.211 406.772 825.628 407.726 821.195 409.187C819.111 409.823 817.183 410.89 815.538 412.319C811.935 414.556 808.903 417.603 806.684 421.217C804.831 424.214 803.186 427.334 801.76 430.555C799.462 436.214 797.652 442.071 795.637 447.846C796.373 451.124 794.035 454.095 794.665 457.344C794.781 458.664 794.383 459.978 793.553 461.011L794.645 462.471C793.649 465.363 793.305 468.439 793.637 471.479C793.211 476.198 795.406 480.712 794.646 485.444C795.657 487.461 796 489.747 795.626 491.972C795.633 494.156 797.949 495.296 797.63 497.78C799.434 496.454 797.857 494.651 799.253 493.45C800.049 495.376 799.254 497.362 799.872 499.563C805.543 501.945 809.756 507.16 816.772 510.369C820.746 513.763 825.022 516.788 829.546 519.404C831.093 520.481 833.084 521.259 833.81 523.307C834.47 523.309 835.13 523.309 835.813 523.309C838.733 525.936 841.878 528.303 845.212 530.382C848.707 532.416 852.084 534.648 855.325 537.067C860.604 541.042 865.634 545.335 870.389 549.924C871.602 551.398 873.664 551.835 874.903 553.416C876.015 554.837 877.92 555.803 878.601 557.354C879.459 559.309 881.363 559.688 882.595 561.025C886.824 565.361 890.597 570.121 893.853 575.229C894.708 576.382 895.683 577.442 896.761 578.39C896.607 581.047 898.215 582.168 900.69 583.115C901.013 584.577 900.376 586.611 902.357 588.065C903.557 589.266 904.361 590.804 904.662 592.475C905.577 594.915 906.703 597.272 908.026 599.518C908.721 601.048 909.309 602.626 909.787 604.238C911.404 607.947 912.383 611.903 912.683 615.939C912.557 620.066 912.727 624.201 912.619 628.328C912.894 629.925 912.606 631.568 911.806 632.977C910.952 634.167 912.258 636.135 911.78 638.031C910.305 643.884 909.694 649.952 907.679 655.683C906.008 660.437 904.218 665.151 902.407 669.855C901.468 672.294 900.061 674.552 898.977 676.871C897.95 679.066 896.798 681.254 895.877 683.506C895.25 685.457 894.114 687.205 892.587 688.57C891.593 689.348 891.888 690.305 891.831 691.234C888.022 695.242 884.73 699.68 880.729 703.529C873.373 710.805 864.452 716.306 854.647 719.611C852.987 721.703 849.829 720.976 848.147 723.097C847.191 724.304 845.71 723.306 844.472 723.766C839.288 725.693 833.746 726.459 828.597 728.533C824.679 727.832 821.014 730.042 817.108 729.537C816.457 729.453 815.517 729.805 815.174 729.475C813.942 728.287 811.869 727.977 811.216 728.667C810.133 729.813 809.019 728.135 808.192 729.264C807.937 729.612 806.91 729.677 806.37 729.489C802.909 728.516 799.382 727.796 795.817 727.333C793.764 726.934 791.08 727.231 789.363 724.909C788.529 723.78 786.145 725.257 785.025 723.576C781.73 723.763 779.239 721.559 776.316 720.675C771.225 719.021 766.413 716.608 762.043 713.516C756.946 716.955 751.9 720.081 747.17 723.626C742.048 727.465 736.274 730.219 731.037 733.887C727.23 736.157 723.162 737.957 718.922 739.249C713.87 741.175 708.362 741.482 703.285 743.39C702.961 743.468 702.624 743.471 702.299 743.399C699.816 743.083 697.168 744.21 694.837 742.557C693.798 743.218 692.618 743.626 691.393 743.746C690.167 743.866 688.93 743.696 687.783 743.249C683.598 742.387 679.346 743.022 675.305 742.241C671.988 741.693 668.632 741.42 665.271 741.424C663.69 741.379 662.436 740.261 660.719 740.335C658.97 740.724 657.142 740.544 655.501 739.821C653.956 739.344 652.323 739.218 650.723 739.451C649.854 739.428 649.683 738.071 648.325 738.659L647.038 739.478C645.903 738.716 644.394 738.605 643.429 737.472C638.401 737.87 633.553 736.162 628.479 736.296C625.267 735.93 622.115 735.154 619.101 733.985C616.106 732.842 612.897 732.366 609.698 732.59L607.979 730.536C601.977 730.085 596.095 728.617 590.585 726.195C587.779 725.513 584.979 724.636 582.212 723.729C580.693 723.511 579.224 723.032 577.869 722.312C576.586 721.232 575.344 721.976 573.578 721.193L572.196 719.439C568.552 720.48 565.464 717.892 562.169 718.677C561.527 717.925 560.706 717.347 559.782 716.995C558.859 716.642 557.861 716.528 556.881 716.661C555.627 716.855 554.806 715.79 553.813 715.721C551.97 715.47 550.194 714.861 548.584 713.929C546.919 713.123 544.921 714.653 543.532 712.95C540.378 713.339 538.213 710.71 535.156 710.292C532.274 709.861 529.468 709.021 526.823 707.799C523.036 706.61 519.312 705.227 515.667 703.657C513.681 702.805 511.591 702.219 509.451 701.915C507.073 701.295 504.74 700.516 502.468 699.581C499.238 697.792 495.752 696.509 492.132 695.78C491.577 695.715 491.085 695.147 490.554 694.827C484.996 691.91 479.132 689.616 473.069 687.988C471.213 687.274 469.4 686.453 467.639 685.53C465.76 684.652 463.677 684.955 461.858 683.903C458.438 681.85 454.91 679.982 451.291 678.306C445.29 675.668 439.741 672.103 434.847 667.743C433.906 666.903 432.486 666.887 431.708 665.669C431.099 664.718 430.053 663.271 429.308 663.332C427.383 663.491 427.828 661.655 426.846 661.002C424.453 658.862 422.966 655.889 422.69 652.689C422.564 651.397 423.807 650.177 423.238 649.37C422.416 648.202 423.212 647.1 422.411 645.867C425.218 644.688 424.198 641.115 426.729 639.781C426.427 638.526 427.468 637.999 428.166 637.418C431.301 634.361 434.195 631.066 436.821 627.562C438.037 626.184 439.511 625.186 440.724 623.861C442.173 622.278 443.685 620.741 445.283 619.31C446.615 617.951 448.137 616.793 449.802 615.871C451.473 615.097 452.249 613.489 453.792 612.593C455.263 611.738 456.838 611.099 458.27 610.213C461.237 608.22 464.861 607.456 468.38 608.081L468.379 609.23C464.558 610.382 460.954 612.157 457.712 614.484C455.739 616.26 453.381 617.603 451.283 619.251C449.015 621.034 447.561 623.772 444.68 624.869C444.447 624.962 444.236 625.102 444.059 625.28C443.882 625.457 443.744 625.669 443.652 625.903C442.739 628.07 441.351 630.004 439.59 631.563C438.044 633.457 436.269 635.168 434.559 636.924C431.668 640.559 429.388 644.64 427.811 649.008C427.486 650.459 427.455 651.961 427.721 653.425C429.625 656.204 431.774 658.808 434.143 661.203C436.151 663.285 438.432 665.084 440.924 666.552C443.056 667.837 444.922 670.093 447.868 670.107C448.935 670.113 449.603 671.427 450.457 672.1C454.601 674.756 459.052 676.901 463.712 678.487C465.975 679.523 468.704 679.997 471.012 681.178C473.214 682.304 475.965 681.837 477.891 683.847C478.364 684.342 479.794 683.921 480.813 683.921C482.816 686.15 485.6 687.525 488.588 687.761C491.285 688.391 493.903 689.318 496.396 690.525C500.347 692.618 504.587 694.114 508.977 694.964C511.674 695.525 514.254 696.548 516.602 697.987C518.983 699.338 521.715 699.943 524.444 699.724L526.015 701.654C530.872 701.958 535.597 703.352 539.841 705.733C541.15 705.483 542.499 705.532 543.787 705.875C545.075 706.218 546.269 706.846 547.28 707.714C551.972 708.041 556.105 711.084 560.915 710.62C562.273 710.489 562.944 711.44 563.945 711.784C568.497 712.652 572.878 714.252 576.916 716.524C578.338 716.482 579.76 716.614 581.15 716.918C587.332 718.082 593.351 719.987 599.078 722.59C600.997 722.428 602.927 722.753 604.688 723.534C607.313 724.992 610.557 724.306 613.249 725.588C615.849 726.605 618.553 727.336 621.312 727.768C623.159 728.133 625.025 728.393 626.902 728.548C628.003 728.59 629.096 728.745 630.166 729.009C633.733 730.073 637.368 730.897 641.046 731.478C644.898 732.163 648.809 732.343 652.643 733.381C655.027 734.026 657.769 733.086 660.135 734.483C664.661 734.483 669.181 734.816 673.658 735.48C676.137 735.45 678.616 735.474 681.095 735.474C682.617 737.731 685.672 735.26 687.214 737.457C690.616 737.8 694.05 737.611 697.393 736.896C698.643 736.374 699.201 738.476 700.162 737.208C701.05 736.037 702.261 736.472 703.334 736.492C707.1 736.328 710.822 735.618 714.384 734.383C718.817 733.599 722.97 731.678 726.439 728.809C730.756 727.552 734.745 725.363 738.124 722.396C741.526 720.708 744.653 718.516 747.399 715.893C748.743 714.582 750.301 713.51 752.006 712.724C752.977 712.251 753.75 711.449 754.187 710.461V710.461Z" fill="#222323"/>
<path d="M341.75 352.853C337.548 352.487 337.036 348.532 334.524 346.391V342.403L332.569 340.449C332.3 337.039 331.636 333.672 330.59 330.415C330.005 327.128 331.299 323.619 329.701 320.415C329.113 319.278 330.726 318.99 330.559 317.861C330.617 313.796 331.456 309.781 333.031 306.034C333.717 303.515 334.553 301.039 335.535 298.619C336.379 295.973 337.738 293.519 339.534 291.4C341.329 289.28 343.526 287.537 345.998 286.269C349.142 284.677 352.209 282.924 355.401 281.439C359.261 279.96 363.194 278.677 367.183 277.595C370.926 276.294 374.945 275.619 378.833 274.646C381.525 273.972 384.226 273.377 386.925 272.608C390.776 271.476 394.419 269.734 397.717 267.448C398.686 266.979 399.553 266.323 400.267 265.518C400.981 264.712 401.529 263.773 401.878 262.755C402.18 261.441 403.224 260.976 403.916 260.123C405.136 258.039 405.91 255.725 406.188 253.326C407.121 249.851 406.424 246.359 407.2 242.966C407.262 242.693 407.645 242.493 407.877 242.261C407.545 241.907 407.216 241.552 406.872 241.181C406.767 239.339 408.836 239.116 409.178 237.905C411.308 237.674 413.462 237.954 415.461 238.723C417.411 239.253 419.46 238.49 421.555 239.634C423.211 240.539 425.724 239.088 427.514 240.763C430.805 240.811 434.059 241.456 437.12 242.665C440.192 243.26 442.935 244.701 445.887 245.451C451.737 246.767 457.488 248.488 463.1 250.6C464.561 250.888 466.061 250.914 467.531 250.677C468.805 251.54 470.543 251.716 471.333 253.299C469.337 256.094 466.871 258.52 464.044 260.47C462.952 261.14 463.777 262.352 463.304 263.131C462.744 263.85 462.107 264.505 461.405 265.087C461.768 267.119 460.82 269.401 461.993 271.554C461.99 278.965 460.359 286.284 457.213 292.993C455.383 295.751 453.409 298.411 451.301 300.962C449.334 303.281 447.069 305.33 444.566 307.057C441.727 309.261 438.673 311.174 435.452 312.768C432.907 313.86 430.263 314.707 427.556 315.296C423.514 316.433 419.128 315.468 415.25 317.924C413.615 318.96 411.016 318.093 408.779 318.973C404.742 320.208 401.071 322.417 398.09 325.407C397.527 327.065 398.75 329.017 397.062 330.502C396.896 330.785 396.805 331.106 396.799 331.434C396.793 331.762 396.871 332.086 397.027 332.376C398.75 334.357 398.411 337.071 399.696 339.231C401.198 341.818 402.993 344.224 405.045 346.402C406.103 347.84 407.463 349.031 409.029 349.89C410.418 350.464 410.249 352.656 411.944 353.104L410.468 354.936C413.498 354.369 416.091 355.728 418.425 353.805C418.622 353.643 419.075 353.74 419.398 353.79C423.639 354.449 427.645 352.131 431.876 352.806C433.402 353.05 434.295 351.439 435.944 351.711C437.25 351.927 438.852 352.364 440.073 350.951C440.366 350.613 441.315 350.82 441.963 350.814C443.45 350.8 444.942 350.876 446.424 350.789C447.711 350.714 449.236 351.373 450.239 350.502C451.778 349.167 452.535 351.274 454.061 350.944C459.303 350.362 464.608 351.052 469.527 352.956C473.873 353.92 478.155 355.156 482.346 356.657C486.838 357.952 490.966 360.279 494.4 363.452C495.606 364.71 497.04 365.729 498.625 366.454C501.722 368.399 504.613 370.655 507.25 373.189C511.504 376.867 515.147 381.197 518.044 386.018C518.903 387.247 519.81 388.216 519.147 389.864C519.012 390.201 519.553 390.973 519.966 391.337C521.999 393.135 521.684 395.916 522.879 398.08C524.055 400.209 524.117 402.863 525.837 404.78C525.936 409.215 528.731 413.183 527.942 417.821C527.744 419.96 527.724 422.112 527.882 424.254C527.882 427.063 527.723 429.883 527.926 432.676C528.128 435.455 526.137 437.852 526.88 440.256C523.678 446.875 519.383 452.906 514.175 458.096C514.087 458.44 514.031 458.792 514.007 459.146C514.14 462.183 511.577 464.996 513.856 468.325C515.118 470.924 516.244 473.587 517.231 476.303C517.652 477.09 517.601 478.223 518.448 478.717C522.006 480.895 525.861 482.543 529.894 483.609C530.371 483.812 530.715 484.344 531.066 484.324C535.732 484.056 539.818 487.017 544.509 486.667C546.22 486.539 548.091 486.158 549.549 487.625C550.674 487.617 551.308 486.507 552.611 486.573C559.619 486.314 566.422 484.141 572.281 480.288C573.642 479.575 574.626 478.149 576.538 478.782C576.238 477.672 575.318 477.523 575.483 476.723C575.47 475.47 576.86 475.527 576.946 474.869C578.348 474.401 578.465 475.925 579.383 475.737C579.695 475.62 580.058 475.59 580.255 475.393C581.914 473.422 583.923 471.773 586.18 470.53C588.022 469.552 589.661 468.231 591.008 466.638C594.821 463.07 599.032 459.951 603.557 457.344C606.004 456.09 608.514 454.962 611.078 453.965C613.225 454.729 615.689 453.408 617.991 452.723C620.48 452.176 623.023 451.911 625.572 451.934C628.119 451.935 630.659 451.672 633.152 451.15C635.661 450.48 638.324 450.686 640.699 451.736C643.213 452.28 645.807 452.347 648.345 451.932C648.958 452.276 649.43 452.826 649.676 453.485C649.923 454.144 649.928 454.869 649.69 455.531C648.8 456.91 646.445 457.913 646.158 460.426C645.465 463.095 646.745 466.104 644.952 468.801C644.71 469.166 644.886 469.963 645.182 470.635C646.042 472.588 646.138 475.123 647.471 476.557C649.067 478.274 648.448 481.122 650.847 482.165C652.553 486.158 653.561 490.414 653.827 494.747C652.668 497.185 650.774 496.296 649.273 496.632C648.69 497.218 648.106 497.802 647.284 498.624L646.304 496.355C639.391 496.708 632.531 497.758 625.829 499.488C622.27 500.614 618.989 502.476 616.198 504.954C613.703 506.934 611.515 509.335 608.895 511.115C606.183 512.958 604.175 515.555 601.59 517.423C597.184 521.408 592.224 524.736 586.864 527.301C584.58 529.669 581.656 531.321 578.449 532.055C575.672 533.379 572.817 534.529 569.898 535.501C567.038 536.218 564.139 536.769 561.215 537.151C556.593 537.307 551.957 537.309 547.337 537.138C545.322 537.063 543.307 537.794 541.204 536.349C539.654 535.285 537.002 537.167 535.266 535.209C531.605 535.262 528.191 533.649 524.673 533.394C521.58 532.995 518.552 532.203 515.661 531.036C512.931 530.555 510.271 529.739 507.741 528.606C505.4 527.023 502.622 526.212 499.797 526.287C496.534 523.604 492.131 522.996 488.868 520.404C486.888 518.833 484.745 517.582 482.696 516.165C481.082 515.047 479.633 513.706 478.394 512.183C476.466 510.269 474.417 508.479 472.262 506.825C469.389 504.112 466.656 501.251 464.001 498.591C463.025 498.378 462.208 498.8 461.479 498.101C459.8 496.493 457.187 497.173 455.473 495.917C453.766 494.886 451.964 494.019 450.092 493.33C448.282 492.453 446.61 493.02 445.038 492.491C444.266 491.796 443.359 491.267 442.374 490.938C441.389 490.608 440.347 490.485 439.312 490.575C436.51 490.385 433.697 490.419 430.9 490.677C421.312 491.588 411.678 491.919 402.051 491.669C399.205 491.883 396.75 490.401 394.029 490.616C391.564 490.352 389.138 489.808 386.796 488.994C382.127 488.375 377.87 486.265 373.263 485.744C371.646 485.561 370.476 483.913 368.728 484.648C366.749 482.087 362.767 483.596 360.902 480.801C357.922 481.119 356.417 478.269 353.814 477.532C350.521 476.712 347.677 474.64 345.889 471.755C345.726 471.48 345.396 471.054 345.203 471.083C342.095 471.557 341.338 468.447 339.535 467.098C337.521 465.589 335.485 463.979 333.494 462.378C330.371 460.466 327.752 457.835 325.854 454.703C325.478 453.888 324.565 453.879 323.847 453.813C323.163 452.06 324.494 449.983 322.064 448.973C323.419 447.202 322.753 444.661 325.607 444.86C324.8 443.445 324.098 441.973 323.507 440.456C323.254 438.44 322.421 436.541 321.11 434.988C319.931 433.915 320.44 432.633 321.571 431.647C320.216 429.908 319.506 427.752 319.561 425.548C319.528 421.232 319.973 416.926 320.888 412.708C322.577 409.354 324.581 406.169 326.873 403.195C329.021 400.576 330.623 397.555 331.587 394.309C332.208 392.694 332.99 391.147 333.922 389.689C334.868 389.52 335.716 389.005 336.303 388.244C336.979 386.019 335.549 383.781 337.418 381.913C337.601 381.54 337.698 381.131 337.7 380.716C337.702 380.301 337.61 379.891 337.43 379.517C336.777 378.43 336.417 377.192 336.385 375.924C336.352 374.656 336.649 373.401 337.245 372.282C337.586 371.68 336.604 371.109 336.405 370.339C336.051 367.569 335.447 364.836 334.602 362.174C333.846 360.51 335.162 358.794 336.289 357.524C337.753 355.592 339.616 353.999 341.751 352.851C342.752 352.771 343.735 352.542 344.669 352.173C348.922 350.267 353.491 349.164 358.146 348.919C362.266 348.676 366.396 348.642 370.519 348.819C373.331 348.797 376.096 349.542 378.516 350.973C380.859 352.102 383.258 353.109 385.705 353.989C388.285 355.242 391.295 353.485 393.172 356.011C393.95 355.195 394.972 354.652 396.084 354.464C397.196 354.276 398.339 354.453 399.342 354.969C401.982 356.239 404.323 355.363 407.729 355.972C404.301 353.705 401.078 351.142 398.097 348.313C395.871 344.954 393.843 341.469 392.021 337.875C392.021 337.142 392.547 335.405 391.904 334.605C390.788 333.215 391.234 331.85 391.006 330.469C390.83 329.403 392.246 328.633 391.178 327.212C390.654 326.517 392.364 324.841 392.19 323.644C394.609 319.996 398.63 318.746 401.685 316.22C402.058 315.81 402.521 315.491 403.038 315.289C403.555 315.088 404.111 315.008 404.663 315.057C406.572 315.428 408.143 313.958 409.943 313.531C411.427 313.178 412.838 312.509 414.325 312.173C415.992 311.797 417.687 312.53 419.451 311.286C420.674 310.423 422.958 311.719 424.396 310.162C429.433 310.148 434.317 308.429 438.252 305.283C438.858 304.845 439.768 304.972 439.586 303.691C437.379 302.118 435.008 300.788 432.515 299.725C428.229 298.375 424.561 295.804 420.4 294.262C419.263 293.842 418.312 292.456 417.241 292.415C414.49 291.946 411.887 290.844 409.635 289.197C407.065 288.151 404.566 286.937 402.155 285.564C400.306 283.934 398.057 282.826 395.639 282.353L391.848 278.498C392.155 278.479 392.454 278.387 392.718 278.23C392.983 278.072 393.206 277.853 393.369 277.592C395.644 278.796 398.069 279.692 400.58 280.259C405.329 283.067 410.42 285.255 415.726 286.767C419.426 288.931 423.321 290.742 427.36 292.179C431.691 294.791 436.321 296.87 441.151 298.372C442.34 298.593 442.504 300.196 443.106 301.271C444.653 299.541 445.986 297.974 447.255 296.335C448.324 294.679 449.631 293.189 451.134 291.914C452.439 290.963 452.619 288.468 453.296 286.668C451.448 284.99 448.926 285.964 446.987 285.162C443.811 283.848 440.385 283.702 437.211 282.454C433.958 281.604 430.765 280.54 427.653 279.27C425.632 278.138 423.64 278.885 421.72 277.982C415.275 275.029 408.516 272.819 401.572 271.394C399.377 274.055 395.877 274.5 393.272 276.454C392.417 276.259 391.527 276.277 390.68 276.507C389.834 276.737 389.057 277.172 388.418 277.772C386.906 279.117 384.639 277.385 383.601 279.418C380.138 279.55 377.17 282.185 373.527 281.411C371.165 283.443 368.106 282.176 365.36 283.204C360.344 285.084 355.408 287.068 350.531 289.286C346.932 290.909 344.033 293.766 342.358 297.341C340.665 300.658 339.907 304.259 338.448 307.615C337.037 309.894 336.353 312.547 336.487 315.223C336.484 320.836 336.64 326.455 336.424 332.06C336.31 335.002 338.009 337.597 337.596 340.518C338.937 341.186 338.158 342.592 338.651 343.547C340.481 346.324 341.55 349.533 341.75 352.853V352.853ZM341.813 358.622C340.92 361.123 342.426 362.692 342.317 364.307C342.192 366.158 344.279 367.47 343.262 369.284C342.334 370.937 343.974 372.35 343.476 374.003C342.985 375.63 344.199 377.626 342.463 379.039C344.416 380.787 342.963 383.063 343.604 385.297L341.459 386.876C341.635 388.423 341.234 389.979 340.333 391.249C338.564 393.396 337.11 395.785 336.015 398.343C333.801 402.458 331.213 406.359 328.283 409.998C326.805 412.183 325.878 414.692 325.581 417.313C325.567 420.451 325.708 423.596 325.545 426.726C325.571 430.668 326.211 434.582 327.443 438.326C327.961 440.313 329.036 442.111 330.541 443.507C330.48 445.081 330.952 446.771 328.985 448.03C331.063 449.483 331.812 451.499 333.694 452.75C335.582 454.006 336.758 456.51 338.729 457.416C340.816 458.375 341.933 460.332 344.08 461.231C345.913 461.999 346.995 464.397 348.753 465.552C350.641 466.624 352.449 467.832 354.162 469.166C355.833 470.579 357.663 471.792 359.615 472.781C361.601 473.61 363.527 474.575 365.38 475.669C367.209 476.822 369.123 477.836 371.105 478.701C372.532 478.701 374.536 478.105 375.385 478.841C376.643 479.931 378.236 479.143 379.323 480.311C380.341 481.406 381.949 480.578 383.376 481.264C386.666 482.847 390.432 483.203 393.913 484.51C396.174 485.032 398.522 485.063 400.796 484.603C403.266 484.369 405.324 485.931 407.831 485.703C413.46 485.19 419.093 485.627 424.793 484.864C431.711 484.352 438.655 484.271 445.583 484.623C446.64 484.616 447.372 485.393 448.164 485.546C453.216 486.522 457.39 489.684 462.281 491.028C462.899 491.198 463.266 492.28 463.409 492.475C466.635 492.749 469.274 492.082 471.627 493.572C476.082 493.158 480.592 493.038 484.974 492.232C487.961 491.284 491.059 490.73 494.189 490.582C496.543 490.719 498.885 490.169 500.931 488.999C502.304 488.207 503.947 488.091 505.106 487.06C506.462 485.855 507.693 484.51 508.695 483.507C510.338 478.559 507.133 475.483 505.074 472.041C505.375 470.242 505.329 468.401 504.937 466.619C504.049 464.658 505.727 463.212 505.134 461.412C504.952 460.553 505.014 459.661 505.314 458.836C505.614 458.012 506.139 457.288 506.83 456.747C509.423 454.272 510.943 450.918 513.766 448.669C514.254 448.28 514.974 447.654 514.926 447.21C514.658 444.745 516.905 444.017 518.018 442.346C517.209 440.615 519.331 438.741 517.965 436.868C519.35 435.583 518.426 433.662 519.073 432.382C519.891 430.762 518.828 429.565 518.967 428.19C519.029 427.569 518.719 426.918 519.261 426.327C519.491 426.107 519.674 425.843 519.8 425.551C519.925 425.258 519.99 424.944 519.991 424.625C519.991 424.307 519.927 423.992 519.802 423.7C519.678 423.407 519.495 423.142 519.266 422.922C518.449 421.823 518.902 420.358 519.003 419.103C519.416 416.181 518.957 413.202 517.683 410.54C516.833 408.896 516.207 407.145 515.823 405.334C515.535 403.027 514.609 400.845 513.149 399.035C513.23 397.619 513.024 396.202 512.545 394.867C512.065 393.532 511.322 392.308 510.359 391.268C510.031 390.764 509.94 390.112 509.636 389.589C506.544 382.769 501.305 377.149 494.72 373.585C494.157 373.241 493.672 372.782 493.299 372.238C490.951 369.675 488.024 367.711 484.763 366.509C483.738 366.138 482.777 365.612 481.912 364.948C478.773 363.034 475.374 361.583 471.821 360.639C469.22 359.785 466.191 360.022 463.968 357.803C459.709 358.117 455.405 355.142 450.899 357.604C450.684 357.409 450.333 356.81 449.967 356.801C446.846 356.456 443.695 356.486 440.58 356.891C436.566 357.797 432.431 357.82 428.513 358.853C425.841 359.068 423.183 359.428 420.551 359.934C418.429 360.664 416.169 360.904 413.942 360.635C411.475 360.553 409.443 362.147 406.903 361.795C404.279 361.436 401.618 361.435 398.993 361.79C396.146 362.178 393.693 360.554 390.967 360.732C385.746 361.134 380.543 359.762 376.199 356.839C375.409 356.386 374.592 355.983 373.752 355.633C371.869 354.747 369.631 355.404 367.966 354.025C365.878 355.998 363.974 353.489 361.946 353.769C361.298 353.858 360.377 353.503 360.008 353.831C358.299 355.351 356.299 354.736 354.428 354.743C349.984 355.065 345.67 356.391 341.813 358.622V358.622ZM595.142 514.021L592.917 509.514C590.763 509.758 590.899 507.666 590.484 506.647C589.943 505.319 587.311 505.296 588.374 503.15C584.76 500.072 585.116 494.768 581.84 491.5C582.059 489.239 579.525 488.149 579.48 486.053C579.449 484.629 578.59 484.104 577.142 483.465C576.641 484.949 575.022 485.023 573.821 485.51C571.415 486.485 569.256 487.937 566.729 488.744C564.282 489.524 561.836 490.461 559.383 491.298C556.839 492.168 553.945 490.875 551.465 492.536C551.17 492.69 550.841 492.771 550.508 492.77C550.175 492.769 549.847 492.687 549.552 492.532C547.83 491.133 545.859 491.612 543.982 491.619C542.932 491.728 541.871 491.598 540.878 491.239C539.886 490.88 538.987 490.302 538.25 489.546C534.303 490.397 531.309 487.474 527.721 486.602C524.354 485.652 521.098 484.341 518.011 482.694C513.829 484.615 513.711 489.34 510.426 491.588C509.951 491.588 509.349 491.403 508.978 491.618C506.112 493.065 503.13 494.269 500.062 495.216C494.233 497.014 488.201 498.077 482.109 498.38C478.483 498.601 474.885 499.15 471.358 500.018C474.866 501.417 476.764 504.826 479.909 506.8C482.532 508.448 484.899 510.632 487.504 512.428C489.801 514.269 492.353 515.767 495.08 516.875C497.962 517.831 499.935 521.049 503.55 520.373C503.739 520.337 504.035 520.772 504.254 521.012C505.895 522.489 508.035 523.288 510.242 523.247C513.229 523.66 516.1 524.676 518.682 526.235C521.761 526.165 524.825 526.695 527.701 527.796C530.681 528.849 533.827 529.348 536.986 529.269C538.306 529.228 539.926 528.78 540.88 529.372C541.554 529.803 542.307 530.096 543.095 530.234C543.884 530.372 544.692 530.352 545.472 530.176C547.428 529.759 548.793 531.104 550.522 531.274C556.555 531.866 562.411 529.608 568.438 530.238C568.749 530.25 569.055 530.154 569.304 529.967C572.213 528.268 575.293 526.885 578.495 525.838C582.359 523.843 586.033 521.5 589.472 518.837C591.553 517.349 594.05 516.434 595.142 514.021ZM426.185 246.699C423.19 243.009 418.483 246.193 415.172 243.46C415 245.093 413.569 246.067 414.653 247.383C413.09 248.693 413.785 250.494 413.929 251.989C414.083 253.594 412.972 254.645 412.768 256.086C414.18 256.374 415.058 257.718 416.604 257.632C419.094 257.768 421.545 258.311 423.861 259.237C426.227 259.879 428.994 259.171 430.939 261.299C431.116 261.494 431.504 261.52 431.803 261.579C437.258 262.654 442.855 262.466 448.337 263.465C450.222 263.658 452.038 264.278 453.648 265.278C453.07 266.248 454.077 267.5 453.044 268.489C452.425 268.414 451.798 268.468 451.201 268.648C450.604 268.827 450.051 269.127 449.576 269.53C448.474 269.281 447.742 268.275 446.461 268.481C445.342 268.776 444.163 268.745 443.061 268.39C439.458 266.978 435.697 266.007 431.861 265.496C430.571 264.949 429.197 264.624 427.799 264.535C421.973 264.42 416.228 263.147 410.899 260.79C409.886 262.509 408.891 264.453 407.632 266.209C407.142 266.892 405.141 266.468 406.309 268.544C410.284 268.74 414.197 269.614 417.877 271.128C419.812 271.512 422.075 271.391 423.364 273.46C423.457 273.608 424.011 273.412 424.321 273.49C429.557 274.798 434.86 275.899 439.985 277.551C442.119 278.441 444.343 279.101 446.618 279.519C447.769 279.639 448.901 280.97 450.157 280.371C451.846 279.564 452.607 282.062 454.489 281.101C454.023 278.906 455.802 277.306 456.482 275.26C455.885 274.626 455.516 273.81 455.435 272.942C455.354 272.074 455.566 271.204 456.036 270.47C456.227 270.263 456.376 270.019 456.471 269.753C456.567 269.488 456.609 269.205 456.594 268.923C456.578 268.641 456.507 268.365 456.383 268.111C456.259 267.858 456.085 267.631 455.872 267.446C455.636 267.215 455.476 266.917 455.415 266.593C455.354 266.268 455.394 265.932 455.53 265.631C456.883 262.197 457.797 258.4 461.595 256.658C462.684 256.158 462.569 255.622 462.049 254.597C457.756 255.122 453.417 254.081 449.829 251.667C447.067 251.789 444.325 251.144 441.908 249.801C441.07 249.362 440.264 248.476 438.904 248.629C434.661 249.105 430.98 246.593 426.905 246.045L426.185 246.699ZM614.088 459.04C614.796 459.777 615.193 460.758 615.196 461.78C615.13 462.707 614.768 463.766 615.456 464.616C617.659 467.589 619.23 470.981 620.074 474.584C620.14 475.051 620.359 475.483 620.698 475.811C622.009 476.829 622.227 478.497 623.094 479.771C624.919 482.452 624.93 486.206 628.042 488.12C627.832 489.526 629.44 490.181 629.433 491.425C631.618 492.395 633.323 490.401 635.435 490.555C637.897 490.735 640.383 490.607 642.859 490.584C643.191 490.521 643.513 490.411 643.815 490.257V487.02C641.292 484.229 639.665 480.744 639.145 477.018C638.602 475.588 637.848 474.248 636.908 473.041C639.106 469.174 637.214 464.978 638.185 461.136C638.864 460.223 640.196 459.783 639.893 458.248C638.524 457.802 637.071 457.683 635.648 457.898C634.167 457.819 632.678 457.881 631.193 457.881C629.707 457.881 628.221 457.853 626.736 457.889C625.28 457.924 623.431 457.5 622.465 458.225C621.123 459.233 620.106 456.662 618.82 458.489C618.012 459.637 616.04 458.637 614.088 459.04ZM610.098 500.976C609.476 499.956 608.677 499.27 608.107 498.241C603.738 490.356 600.886 481.748 596.38 473.93C595.781 472.892 595.439 471.978 593.864 471.684C592.795 473.565 590.369 473.926 588.871 475.667C588.115 476.777 587.147 477.727 586.023 478.462C584.899 479.198 583.641 479.704 582.321 479.952C582.608 481.007 582.005 481.95 582.819 482.545C584.669 484.256 586.097 486.373 586.99 488.729C587.645 490.468 588.582 492.088 589.764 493.522C590.873 494.802 591.654 496.331 592.042 497.98C592.59 499.679 595.025 500.32 594.325 502.485C596.478 504.881 596.984 508.452 599.969 510.413C602.677 506.631 607.13 504.821 610.098 500.975L610.098 500.976ZM612.17 470.805C613.045 467.33 610.795 463.781 611.075 460.197C606.242 462.113 601.81 464.917 598.008 468.463C599.142 470.894 600.438 473.247 601.888 475.505C603.01 477.335 603.95 479.336 605.203 481.099C606.362 482.911 607.366 484.817 608.205 486.798C610.108 490.727 611.99 494.667 614.042 498.938C616.884 496.453 620.896 496.27 622.772 493.404C622.081 490.32 620.876 487.374 619.209 484.689C618.657 483.478 617.36 483.011 617.09 481.599C615.861 477.828 614.21 474.207 612.17 470.805H612.17Z" fill="#222323"/>
<path d="M579.058 592.849C583.498 592.713 587.941 592.999 592.327 593.703C594.813 594.922 597.646 595.238 600.34 594.597C602.227 594.507 603.563 595.783 605.388 595.772C607.072 595.762 608.933 594.955 610.557 596.44C611.023 596.867 612.107 596.65 612.909 596.673C618.393 596.938 623.82 597.904 629.059 599.547C631.392 600.174 633.49 601.468 635.096 603.272C634.315 606.4 633.022 609.377 631.269 612.083C629.28 614.995 625.972 616.795 624.786 620.256C621.279 621.664 619.687 625.601 616.127 626.874C614.803 627.422 613.628 628.28 612.702 629.374C608.9 633.538 604.59 637.209 599.873 640.3C596.799 645.536 590.65 645.9 586.095 648.795C583.532 649.844 580.847 650.567 578.103 650.946C574.841 651.951 571.491 652.646 568.098 653.021C564.815 653.749 561.47 654.16 558.109 654.248C553.11 653.439 548.049 653.085 542.986 653.188C541.146 652.182 539.015 651.839 536.952 652.217C534.924 651.941 532.915 651.548 530.933 651.037C528.44 650.799 525.966 650.196 523.396 650.174C520.875 649.961 518.372 649.575 515.904 649.02C513.02 648.528 510.179 647.816 507.404 646.891C506.401 646.46 505.315 646.258 504.224 646.3C501.856 646.286 499.514 645.799 497.336 644.87C496.812 644.753 496.321 644.147 495.617 644.266C491.431 644.372 487.246 643.996 483.145 643.144C480.14 642.542 477.173 641.757 474.262 640.795C470.549 639.633 466.744 638.785 462.888 638.262C462.086 637.461 461.268 636.644 460.45 635.828L460.449 632.776C462.189 631.998 462.363 629.975 463.573 628.682C465.559 626.812 467.698 625.112 469.967 623.599C472.017 621.943 473.886 620.076 475.544 618.028C477.904 614.737 480.552 611.661 483.457 608.839C484.129 608.176 484.95 607.683 485.852 607.402C487.415 607.022 488.105 605.304 489.546 604.585C491.203 603.758 493.049 603.538 494.762 602.804C496.273 602.075 497.831 601.451 499.428 600.936C505.395 598.836 511.012 595.848 516.089 592.074C519.785 590.206 523.667 588.734 527.672 587.682C533.78 586.834 539.949 586.502 546.113 586.69C548.639 586.461 550.629 588.172 553.156 587.828C555.577 587.255 558.103 587.294 560.505 587.941C562.88 588.641 565.306 589.155 567.76 589.478C570.153 590.354 572.677 590.817 575.225 590.849C575.973 590.877 576.704 591.071 577.367 591.416C578.03 591.762 578.608 592.252 579.058 592.849V592.849Z" fill="#212222"/>
<path d="M694.719 203.089L696.247 202.077C698.962 203.339 701.901 204.046 704.893 204.158C708.301 204.493 711.659 205.218 714.901 206.319C718.413 206.806 721.85 207.732 725.132 209.073C728.229 210.58 731.858 210.182 734.826 212.012C740.768 212.979 746.599 214.533 752.234 216.651C756.495 217.347 760.601 218.785 764.364 220.9C767.275 219.734 768.876 222.726 771.379 223.237C773.73 223.667 775.845 224.939 777.327 226.815C777.552 227.127 778.582 226.858 779.138 226.858C780.778 227.928 781.507 230.257 783.957 229.857C785.938 232.063 789.388 232.93 789.762 236.649C790.186 238.101 790.83 239.479 791.67 240.737C791.534 243.395 791.559 246.059 791.747 248.714C791.923 250.936 791.465 253.163 790.427 255.136C789.078 257.927 788.182 260.833 787.129 263.694C786.123 266.426 783.841 268.61 783.737 271.71C780.27 275.517 780.704 281.024 777.856 285.156C777.072 286.85 776.05 288.424 774.823 289.83C773.794 290.796 773.126 292.086 772.93 293.484C772.756 294.865 772.16 296.158 771.223 297.188C769.915 298.569 769.144 300.372 769.049 302.272C768.5 305.155 767.501 307.934 766.087 310.506C765.867 311.225 765.767 311.974 765.788 312.726L762.74 315.274C763.614 318.122 761.917 320.229 761.635 322.599C761.37 323.58 760.895 324.492 760.244 325.272C759.592 326.053 758.779 326.682 757.861 327.118C753.529 329.488 748.576 330.476 743.666 329.95C743.282 329.923 742.935 329.34 742.578 329.022L741.526 330.001C738.414 328.805 734.991 328.682 731.802 329.653C729.306 330.711 726.6 331.179 723.894 331.019C722.828 330.829 721.662 331.617 720.796 331.709C719.289 331.868 718.257 333 716.789 332.99C715.387 332.981 713.805 332.47 712.737 333.954C708.002 333.142 703.939 336.512 699.168 336.058C697.264 335.878 695.281 337.361 693.144 336.928C691.382 338.778 689.121 337.589 687.109 337.919C685.418 338.197 683.555 337.219 682.001 338.849C681.636 339.046 681.228 339.149 680.813 339.15C680.398 339.151 679.99 339.05 679.624 338.855C677.211 337.271 674.582 338.177 672.064 337.917C666.433 337.512 660.855 336.554 655.411 335.059C653.979 334.619 653.343 333.633 652.271 332.95C645.999 333.003 639.794 331.648 634.115 328.984C630.89 327.584 627.396 326.914 623.882 327.021C619.853 324.541 615.368 322.89 610.693 322.166C609.637 321.92 608.633 321.489 607.727 320.892C600.677 317.497 593.27 314.896 585.644 313.139C585.487 313.102 585.277 313.198 585.155 313.125C580.376 310.266 574.788 309.288 569.942 306.803C567.017 305.304 563.855 304.456 561.146 302.93C558.34 301.349 555.427 299.899 552.63 298.273C552.513 298.205 552.312 298.281 552.041 298.296C551.472 299.582 552.953 299.683 553.357 300.37C553.858 301.035 554.439 301.637 555.086 302.161C558.253 301.841 560.24 304.27 562.466 305.765C565.281 307.046 568.03 308.468 570.701 310.027C571.352 310.562 572.833 310.682 573.425 311.632C574.303 312.782 575.546 313.598 576.95 313.946C579.89 315.294 582.695 316.918 585.327 318.797C586.631 319.611 588.056 320.212 589.548 320.579C594.421 321.554 598.649 324.437 603.601 325.031C605.095 326.894 608.32 325.028 609.423 327.733C611.584 327.916 613.703 328.432 615.707 329.262C617.589 330.401 619.681 329.7 621.528 330.881C623.466 331.791 625.495 332.493 627.581 332.975C630.923 334.619 634.542 335.624 638.253 335.936C640.83 339.064 644.914 338.135 648.161 339.554C651.376 341.007 654.764 342.045 658.241 342.642C662.011 343.453 665.735 344.459 669.4 345.658C671.829 346.352 674.343 346.71 676.869 346.721C679.897 346.89 682.905 347.313 685.862 347.986C690.853 348.873 695.961 348.864 700.948 347.961C704.217 347.462 707.348 346.669 710.535 345.919C714.148 345.07 717.571 343.737 721.059 342.565C725.2 340.889 729.519 339.689 733.931 338.987C736.524 338.734 738.372 336.953 740.881 336.481C743.322 335.975 745.595 334.857 747.485 333.231C749.992 331.763 752.727 330.726 755.577 330.165C756.918 329.866 758.218 329.406 759.448 328.795C760.677 328.081 762.124 327.835 763.52 328.103C765.637 331.04 765.401 331.842 762.458 332.991C760.574 334.001 758.631 334.897 756.64 335.675C752.23 337.435 747.937 339.475 743.787 341.783C740.84 343.059 737.767 344.021 734.618 344.653C729.638 345.731 724.75 347.195 719.998 349.033C715.755 350.388 711.362 351.176 707.167 352.714C704.434 353.716 701.412 353.81 698.559 354.649C697.073 355.085 694.931 355.649 693.848 353.597C692.013 354.701 690.443 355.399 688.665 354.399C688.526 354.321 688.428 354.068 688.311 354.068C683.86 354.072 679.673 352.279 675.351 351.95C671.156 351.429 667.01 350.577 662.95 349.403C656.069 347.78 649.454 345.103 642.452 343.871C641.979 343.868 641.512 343.766 641.082 343.57C636.532 341.311 631.694 339.684 626.703 338.735C623.868 337.566 620.956 336.592 617.987 335.822C615.005 335.41 612.48 333.194 609.411 332.648C609.144 332.601 608.896 331.972 608.712 332.006C604.764 332.744 601.94 329.971 598.612 328.806C595.151 327.594 591.783 326.062 588.254 325.116C586.102 324.539 584.544 323.016 582.416 322.388C580.415 321.551 578.527 320.464 576.8 319.152C573.345 317.293 570.138 315.005 567.255 312.344C564.858 312.824 563.775 310.481 561.846 309.828C556.641 307.012 551.69 303.749 547.05 300.076C546.615 298.094 544.833 296.894 544.442 294.675C543.91 291.661 543.037 288.708 542.756 285.987C543.38 285.186 544.189 284.547 545.114 284.125C546.038 283.703 547.051 283.511 548.065 283.564C552.847 282.79 557.682 282.38 562.526 282.339C565.985 282.657 569.466 282.645 572.923 282.302C574.726 282.125 575.764 283.715 577.488 283.44C578.96 283.308 580.439 283.292 581.914 283.392C582.437 283.773 582.701 284.521 583.766 284.341L585.088 283.393C589.296 285.262 593.869 283.511 598.023 284.551C600.985 285.246 604.035 285.497 607.071 285.295C609.394 285.188 611.235 286.823 613.617 286.438C615.742 286.075 617.913 286.079 620.036 286.449C622.414 286.9 624.626 288.178 626.996 288.737C631.647 289.833 635.831 292.344 640.501 293.193C642.166 293.496 642.479 295.612 644.114 295.254C646.232 294.791 646.646 298.001 648.75 297.261C650.843 296.524 651.575 298.59 652.834 299.349C656.523 300.874 660.315 302.135 664.182 303.123C665.283 303.597 666.755 303.213 667.566 304.545C667.728 304.81 668.036 305.176 668.276 305.175C672.425 305.749 676.495 306.788 680.411 308.272C684.511 308.953 688.49 310.23 692.221 312.063C695.035 313.381 698.079 314.141 701.183 314.301L702.619 316.348C705.904 315.262 708.553 317.213 711.443 317.1C715.218 319.221 719.371 320.583 723.669 321.109C724.362 321.333 724.764 322.18 725.753 322.081C730.453 321.608 734.927 324.25 738.979 322.931C742.751 325.1 747.056 326.165 751.404 326.006C752.693 325.098 753.591 323.736 753.916 322.194C754.27 320.222 754.762 318.277 755.386 316.374C756.595 314.756 757.508 312.937 758.084 311.001C758.382 309.457 760.756 308.121 760.71 306.742C760.608 303.685 762.683 301.513 763.114 298.704C763.576 296.598 764.552 294.638 765.954 292.999C767.542 290.986 767.5 288.363 769.194 286.341C770.694 284.38 771.729 282.105 772.221 279.686C772.583 278.669 773.094 277.712 773.739 276.846C775.255 274.357 776.396 271.658 777.127 268.836C778.364 265.184 780.269 261.792 782.744 258.835C782.409 255.655 783.117 252.453 784.76 249.711C785.491 248.485 785.83 247.065 785.731 245.641C785.685 243.832 785.72 242.021 785.72 240.698C784.337 238.077 782.328 235.838 779.872 234.18C776.514 231.945 773.017 229.928 769.401 228.142C765.973 226.484 762.457 225.013 758.87 223.735C755.606 222.182 752.015 221.984 748.869 220.316C747.211 219.437 745.335 220.167 743.51 219.88L741.619 217.989C739.651 218.036 737.692 217.718 735.84 217.051C731.968 215.583 728.008 214.359 723.983 213.389C720.061 212.074 715.856 211.614 711.926 210.162C711.129 209.998 710.311 209.953 709.5 210.029C707.545 210.139 705.622 209.486 704.138 208.207C701.685 207.594 699.411 208.694 697.203 207.375C695.11 206.125 692.504 207.838 690.181 206.351C688.355 205.183 685.647 207.018 683.885 205.111C682.78 204.74 682.59 206.111 681.693 206.069C680.711 206.397 680.595 204.872 679.603 205.076C678.776 204.53 678.612 206.622 677.767 205.659C676.761 204.512 676.567 206.088 675.924 206.069C675.098 206.045 674.271 206.063 673.445 206.063C670.449 207.875 669.051 211.334 666.076 213.191C665.251 213.706 665.935 214.737 665.681 215.506C664.665 215.775 663.72 216.264 662.912 216.938C662.105 217.612 661.456 218.455 661.01 219.408C659.468 223.654 655.771 225.858 653.125 229.213C652.6 231.61 651.381 233.799 649.619 235.508C647.662 237.15 646.303 239.394 645.753 241.889C645.259 243.546 644.273 245.014 642.925 246.097C642.021 246.967 641.381 248.074 641.078 249.292C639.885 254.544 638.301 259.699 636.339 264.715C635.718 266.797 635.646 268.992 635.094 271.125C634.121 273.497 633.733 276.069 633.963 278.623C634.285 280.128 632.774 281.064 632.492 282.381H630.386C628.887 277.048 631.669 271.972 630.986 266.816L632.668 266.377C632.779 266.093 632.999 265.802 632.984 265.525C632.983 262.377 633.526 259.253 634.587 256.289C635.38 252.998 636.344 249.75 637.476 246.559C639.279 242.817 641.308 239.188 643.55 235.691C646.342 232.147 648.805 228.354 650.906 224.36C650.954 224.22 651.119 224.106 651.25 224.009C654.757 220.492 657.893 216.624 660.609 212.465C662.524 210.338 664.328 208.066 666.304 205.957C667.952 204.492 669.753 203.208 671.676 202.129C672.695 201.371 673.945 200.99 675.213 201.049C678.841 201.223 682.533 200.737 686.103 201.223C689.058 201.364 691.97 201.995 694.719 203.089V203.089ZM662.477 310.243C661.25 309.538 660.73 308.382 659.202 308.065C656.529 307.415 653.935 306.477 651.464 305.268C648.959 304.14 646.461 302.977 643.993 301.771C637.923 298.524 631.571 295.833 625.016 293.729C620.089 292.34 614.932 291.99 610.07 290.333C608.196 291.85 606.354 289.593 604.439 290.309C602.439 291.057 600.37 288.994 598.331 290.333C594.983 288.411 591.338 289.561 587.835 289.408C586.168 289.45 584.521 289.038 583.071 288.217C582.369 288.867 582.015 289.493 581.212 289.333C580.701 289.011 580.136 288.345 579.66 288.403C575.644 288.356 571.638 288.014 567.673 287.38C563.545 287.288 559.411 287.427 555.283 287.33C554.316 287.206 553.334 287.291 552.403 287.58C551.472 287.869 550.614 288.356 549.887 289.006C552.481 291.762 555.629 293.939 559.123 295.393C561.548 296.294 563.897 297.389 566.145 298.668C569.246 300.366 572.47 301.83 575.789 303.048C581.958 305.719 588.271 308.045 594.699 310.013C601.068 312.201 607.564 314.038 613.855 316.422C616.756 317.522 619.801 317.962 622.663 319.082C625.165 320.22 627.738 321.193 630.366 321.996C635.006 323.136 639.526 324.733 644.187 325.709C646.929 326.283 649.502 327.554 652.19 327.851C654.111 328.064 655.867 329.234 657.696 328.921C659.932 328.538 661.699 329.8 663.738 330.025C667.182 331.018 670.707 331.708 674.272 332.088C676.258 334.394 678.925 331.466 681.017 332.963C682.42 331.221 684.361 332.216 686.058 331.972C687.94 331.703 689.893 332.489 691.738 331.305C693.334 330.281 695.658 331.817 697.132 329.989C700.793 329.755 704.328 328.561 707.899 328.193C710.905 327.285 714.042 326.886 717.181 327.011L717.334 325.24C715.432 325.514 713.93 324.348 712.101 323.95C707.757 323.004 703.527 321.546 699.23 320.371C694.774 319.233 690.387 317.837 686.092 316.191C683.477 314.742 680.518 314.028 677.53 314.126C675.762 312.487 672.584 313.914 671.285 311.256C668.459 310.276 665.452 309.93 662.477 310.243V310.243Z" fill="#242424"/>
<path d="M989 439.383V448.562C985.734 455.02 980.229 460.067 973.512 462.76H968.652L966.542 465.492C966.481 465.379 966.64 465.595 966.721 465.837C967.98 469.626 970.641 472.849 971.542 476.711C972.956 480.173 973.85 483.825 974.195 487.549C974.158 488.206 974.839 488.905 975.169 489.546C971.358 496.545 971.358 496.545 962.973 496.545C957.968 494.004 953.335 490.787 949.206 486.985C945.23 485.622 943.41 481.18 939.281 480.036C938.222 478.235 936.505 478.698 934.905 478.766C933.421 479.625 933.396 481.508 932.142 482.608C931.109 483.589 930.193 484.686 929.413 485.878C925.307 491.341 919.584 495.371 913.056 497.394C910.267 497.882 907.418 497.931 904.613 497.537C903.57 496.683 901.966 496.661 901.1 495.403C900.945 495.14 900.834 494.853 900.772 494.554C900.734 493.399 900.855 492.232 900.738 491.087C900.78 486.86 901.784 482.697 903.675 478.916C904.63 476.174 906.47 473.829 908.905 472.248C910.572 471.043 912.153 469.722 913.637 468.296V465.189C911.149 463.31 908.034 462.461 904.937 462.816L891.667 457.176L889.848 455.069C889.478 452.419 889.91 449.72 891.09 447.32C894.454 445.239 898.278 444.019 902.225 443.766C906.328 442.881 910.58 442.947 914.654 443.96C914.575 441.606 914.301 439.262 913.835 436.954C912.972 433.012 913.456 428.895 915.209 425.261C915.902 423.772 914.746 421.966 916.44 420.754C916.877 420.441 916.774 419.168 917.555 418.808C920.74 417.339 921.463 413.215 925.093 412.049C926.095 411.638 927.154 411.383 928.233 411.292C930.712 411.268 933.191 411.285 935.757 411.285C937.738 412.488 938.931 414.687 941.261 415.729C943.484 416.724 944.354 419.332 945.81 421.221C947.208 423.037 948.061 425.263 949.382 427.149C950.828 429.214 950.15 431.488 950.374 433.637C951.511 434.488 952.355 435.671 952.79 437.022C953.917 437.433 954.251 436.36 954.959 436.071C956.43 436.797 958.051 437.167 959.691 437.149C961.331 437.131 962.944 436.726 964.398 435.968C965.162 435.742 965.468 437.696 966.607 437.044C968.846 435.761 970.981 436.635 973.245 436.978C975.668 437.346 978.234 436.773 980.658 437.138C983.48 437.722 986.266 438.472 989 439.383V439.383ZM940.553 472.757C943.398 474.612 945.529 476.923 948.002 478.579C952.099 481.262 956.01 484.218 959.709 487.427C960.611 488.426 961.715 489.223 962.948 489.764C964.181 490.305 965.515 490.578 966.861 490.565C967.097 489.801 968.209 489.652 968.201 488.141C967.8 487.486 967.435 486.809 967.106 486.115C965.688 480.95 963.736 475.947 961.283 471.186C959.511 468.544 958.769 465.344 959.198 462.192L961.69 458.776C966.005 458.829 970.283 457.962 974.236 456.231C977.076 455.419 979.536 453.627 981.179 451.172C979.837 448.641 984.519 445.545 980.44 443.01H970.13C967.333 440.249 963.686 445.356 961.185 441.818C960.852 442.203 960.445 442.517 959.987 442.74C959.529 442.962 959.031 443.089 958.523 443.113C958.014 443.136 957.506 443.056 957.03 442.877C956.554 442.698 956.119 442.423 955.752 442.07C953.815 443.021 953.815 443.021 948.807 442.972C947.262 441.361 945.202 440.012 944.675 437.759C944.016 435.224 942.927 432.821 941.453 430.656C942.181 427.418 939.008 425.713 938.426 422.986C938.36 422.777 938.247 422.586 938.094 422.428C935.248 421.442 934.119 418.8 932.053 417.379C930.969 417.109 929.838 417.076 928.74 417.283C927.642 417.49 926.601 417.932 925.689 418.578C925.16 420.549 924.079 422.328 922.573 423.704C922.573 424.887 922.641 426.049 922.551 427.199C922.478 428.138 923.013 429.207 922.176 430.004C920.952 431.169 923.388 431.675 922.591 432.835C920.324 436.132 922.35 439.029 923.549 442.004C923.778 442.573 923.263 443.322 923.886 443.838L925.651 444.298C924.842 445.59 925.993 446.638 926.396 447.941C923.994 448.204 921.655 448.883 919.486 449.948C918.534 449.455 917.583 448.961 916.634 448.468C916.552 448.011 916.836 447.459 915.994 446.967C909.859 446.463 903.683 446.942 897.699 448.384C897.259 449.838 894.929 450.23 894.726 452.533C897.414 453.021 899.021 455.546 901.585 456.185C906.222 457.342 910.678 459.17 915.435 459.867C915.685 459.911 915.932 459.968 916.176 460.037C918.054 461.403 919.532 463.246 920.458 465.375C919.391 472.264 913.857 475.337 909.65 479.106C909.741 480.003 909.629 480.91 909.321 481.758C909.014 482.606 908.519 483.374 907.874 484.004C907.218 485.77 908.316 487.558 906.804 489.246C905.924 490.228 906.983 491.693 908.17 492.536C910.366 492.608 912.552 492.214 914.584 491.379C916.616 490.543 918.448 489.287 919.959 487.692C925.243 483.296 928.669 477.11 934.182 472.752C936.173 472.752 938.321 472.752 940.47 472.754C940.63 472.753 940.791 472.774 940.553 472.757H940.553Z" fill="#232323"/>
<path d="M777.17 643.394C783.425 642.085 789.798 641.419 796.188 641.408C796.595 642.35 797.845 642.045 798.576 642.738C798.925 644.619 796.774 644.843 796.35 646.384C787.761 645.404 779.083 647.192 771.58 651.486C769.593 653.303 766.788 654.37 764.772 656.249C759.726 660.208 755.048 664.614 750.793 669.412C747.193 674.294 742.801 678.54 737.8 681.973C735.602 683.56 733.494 685.27 731.488 687.094C729.137 689.176 726.456 690.852 723.555 692.054C723.148 692.992 722.978 694.424 721.833 694.678C719.254 695.546 716.985 697.15 715.305 699.291C710.243 704.252 703.56 707.218 696.485 707.643C695.076 707.651 694.295 708.824 692.927 708.755C691.705 708.693 690.427 708.317 689.229 709.405C688.151 710.384 686.388 708.694 685.997 709.008C685.046 709.643 683.885 709.884 682.759 709.68C674 709.709 665.205 710.172 656.497 709.51C651.462 709.586 646.456 708.748 641.72 707.035C640.187 706.325 638.499 706.905 636.748 706.664C635.192 706.038 633.846 704.494 631.763 704.726C629.879 704.937 628.691 703.386 627.135 702.752C624.926 701.851 622.378 702.234 620.312 701.284C618.975 700.67 617.692 701.266 616.599 700.672C615.617 699.902 614.565 699.226 613.456 698.653C610.107 698.127 606.839 697.173 603.732 695.816C599.656 696.098 596.435 693.44 592.697 692.467C589.445 691.619 586.212 690.522 582.886 689.916C580.999 689.573 579.652 688.27 577.796 687.778C572.426 686.506 567.157 684.839 562.033 682.79C558.327 681.186 554.447 680.351 550.743 678.92C547.043 677.491 543.347 675.853 539.646 674.634C533.248 672.525 527.025 669.908 520.546 668.037C516.094 666.888 511.718 665.467 507.441 663.78C505.79 663.358 504.103 663.09 502.403 662.979L500.959 661.147C495.726 660.635 490.563 659.559 485.561 657.938C485.141 657.86 484.753 657.149 484.41 657.194C480.821 657.656 477.521 655.713 473.902 656.102C470.556 656.463 467.352 654.596 463.9 655.113C463.486 655.166 463.088 655.301 462.727 655.509C462.365 655.717 462.049 655.995 461.795 656.325C460.463 655.452 458.88 655.043 457.292 655.163C454.182 655.862 451.32 654.25 448.287 654.111C447.684 654.084 447.121 653.201 445.924 652.195H451.458C458.399 652.195 465.35 652.422 472.277 652.109C476.292 652.264 480.29 652.705 484.241 653.431C487.51 653.479 490.742 654.13 493.775 655.351C496.582 656.765 500.059 655.851 502.554 658.104C507.449 657.513 511.384 661.258 516.179 661.118C519.441 662.809 522.871 664.156 526.413 665.135C526.966 665.359 527.197 666.184 528.007 666.079C532.312 665.522 535.557 668.763 539.554 669.317C541.358 671.392 544.19 670.75 546.422 671.913C549.114 673.023 551.89 673.916 554.724 674.586C557.48 675.495 560.182 676.744 562.893 677.553C567.901 679.047 572.722 681.006 577.646 682.687C579.224 683.226 580.762 682.787 582.364 683.216C585.067 683.939 587.452 685.351 590.046 686.274C591.531 686.657 592.985 687.154 594.395 687.76C595.553 688.377 597.302 687.886 598.789 687.887C600.854 690.169 604.055 689.505 606.493 690.839C606.881 691.051 607.529 690.826 607.878 691.065C612.517 693.528 617.553 695.156 622.756 695.874C625.247 696.344 627.607 697.345 629.676 698.809C631.669 698.683 633.666 699 635.523 699.736C641.155 701.441 646.873 702.842 652.655 703.933C656.145 704.453 659.668 704.726 663.197 704.752C664.897 704.958 666.811 703.977 668.281 705.697C668.49 705.942 669.34 705.916 669.712 705.702C672.716 704.43 676.042 704.128 679.226 704.837C684.638 705.249 689.824 703.396 695.183 703.748C700.519 701.408 706.853 701.157 710.815 695.93C712.271 694.025 714.238 692.572 716.487 691.741C718.809 690.844 720.168 688.373 722.469 687.065C730.362 682.32 737.397 676.275 743.276 669.186C747.531 664.311 752.516 660.267 757.055 655.734C761.937 651.382 767.49 647.847 773.499 645.266C774.733 644.652 776.205 644.508 777.17 643.394Z" fill="#232423"/>
<path d="M394.495 604.643C387.505 608.913 379.261 610.65 371.142 609.565C366.597 607.533 361.345 608.198 356.858 605.766C355.846 605.217 354.284 605.685 352.776 605.685C351.766 603.282 349.181 603.397 347.223 602.787C345.663 602.562 344.203 601.888 343.021 600.845C342.478 600.322 341.79 599.974 341.046 599.847C337.811 600.054 335.887 597.793 333.566 596.256C332.673 595.665 331.686 594.766 330.75 594.775C327.573 594.806 325.993 592.457 324.015 590.688H321.111C320.518 590.329 320.637 589.81 320.615 589.238C318.487 587.829 315.663 587.647 313.734 585.767C310.567 582.68 306.611 580.617 303.284 577.771C299.981 575.262 297.672 571.664 296.766 567.616C296.457 566.577 295.91 565.624 295.168 564.833C294.393 563.859 295.269 563.025 294.763 562.316C295.831 561.843 296.473 561.856 296.808 562.548C299.212 567.606 302.722 572.059 307.078 575.577C310.439 578.834 314.484 581.3 318.918 582.797C322.604 585.879 326.785 588.315 331.284 590.003C334.828 591.822 338.309 593.761 341.853 595.579C344.49 596.788 347.23 597.759 350.04 598.48C352.557 599.244 354.901 600.378 357.322 601.282C360.627 602.684 364.156 603.487 367.742 603.652C369.443 603.667 371.334 602.943 372.817 604.573C373.041 604.82 373.837 604.762 374.254 604.582C376.644 603.552 379.218 605.469 381.301 604.469C382.903 603.763 384.661 603.486 386.403 603.666C387.611 603.713 388.162 603.008 388.847 602.301C386.451 600.275 383.546 598.945 380.447 598.455C377.287 597.222 374.322 595.538 371.643 593.456C370.852 593.041 370.475 591.321 369.344 590.399V585.13C370.859 584.983 371.7 583.73 372.788 582.69C376.449 583.662 379.99 581.764 383.869 582.598C387.838 583.544 391.712 584.851 395.444 586.501C397.088 588.342 398.582 590.313 399.911 592.393V598.346C401.329 598.626 402.582 599.449 403.402 600.641C407.109 600.127 410.885 600.774 414.209 602.495C414.854 601.9 415.664 601.514 416.533 601.389C417.402 601.263 418.288 601.404 419.075 601.792C421.017 603.001 422.85 602.425 424.71 602.59C426.511 602.75 428.338 602.625 430.154 602.625C432.135 602.625 434.674 603.384 435.96 602.439C437.692 601.167 439.904 602.561 441.312 600.713C441.672 600.24 443.179 600.642 444.114 600.642C444.582 601.383 445.557 601.637 445.567 602.134L440.866 606.793C434.256 608.481 427.421 609.108 420.614 608.651C418.544 608.784 416.534 607.225 414.497 608.573C413.016 606.478 410.338 608.604 408.735 606.941C404.053 605.814 399.293 605.046 394.495 604.643V604.643ZM377.103 589.245C377.841 589.989 378.709 589.743 379.371 590.386C382.975 593.262 387.114 595.393 391.549 596.655C391.787 596.765 392.057 596.784 392.308 596.709C392.559 596.633 392.774 596.469 392.912 596.246V592.464C390.486 593.055 390.599 589.972 388.342 589.655C386.584 589.408 384.979 588.15 383.217 587.825C382.158 587.565 381.053 587.557 379.99 587.804C378.928 588.051 377.939 588.545 377.103 589.245V589.245Z" fill="#232423"/>
<path d="M717.714 631.385C718.843 633.327 719.444 634.698 720.348 636.002C722.236 638.503 723.251 641.555 723.235 644.689C723.608 648.051 723.279 651.453 722.267 654.681C720.772 657.903 720.204 661.63 717.012 663.896C716.016 664.689 715.275 665.757 714.879 666.966C714.349 668.281 712.671 667.991 711.779 669.046C707.178 673.485 701.566 676.738 695.427 678.523C695.146 678.641 694.855 678.985 694.625 678.939C691.021 678.217 687.71 680.2 684.135 680.001C680.522 680.255 676.894 680.171 673.297 679.75C670.458 679.022 667.603 679.489 664.885 678.62C662.359 677.521 659.778 676.554 657.152 675.723C656.402 675.576 655.701 675.241 655.116 674.749C651.508 671.679 648.135 668.343 645.024 664.771C642.991 662.007 642.086 658.682 640.205 655.854C639.924 655.103 639.836 654.293 639.951 653.5C639.922 651.355 639.931 649.21 639.944 647.065C640.016 644.534 640.285 642.014 640.749 639.525C641.19 636.821 644.013 635.584 643.908 632.867C646.584 628.893 650.159 625.605 654.342 623.269C658.525 620.933 663.2 619.615 667.987 619.422C671.764 619.695 675.575 619.458 679.371 619.487C682.285 619.072 685.251 619.202 688.118 619.871C690.905 621.083 693.836 619.408 696.457 621.353C697.826 622.37 700.343 620.551 701.911 622.443C704.908 622.076 706.447 624.883 708.972 625.742C711.569 626.497 713.876 628.022 715.588 630.115C716.126 630.834 716.656 631.918 717.714 631.385ZM672.792 623.28C671.73 624.102 670.414 624.529 669.072 624.487C666.532 624.427 663.994 624.692 661.522 625.276C657.846 626.078 654.43 627.79 651.588 630.254C648.745 632.718 646.566 635.857 645.251 639.382C643.636 644.705 643.476 650.363 644.789 655.769C645.147 657.379 646.622 657.803 646.981 659.358C647.935 662.543 649.978 665.29 652.753 667.12C655.886 669.691 659.293 671.908 662.913 673.73C663.436 673.979 663.715 674.739 664.079 675.225C667.341 674.175 669.973 676.129 672.88 676.037C674.113 675.997 675.456 675.532 676.647 676.473C677.705 677.308 678.31 675.574 679.51 675.914C680.733 676.26 682.164 675.802 683.446 676.027C686.808 675.999 690.159 675.621 693.443 674.898C694.672 674.865 695.822 673.255 697.094 673.11C699.151 672.936 701.068 671.995 702.465 670.474C703.157 669.732 704.004 670.192 705.201 669.93C707.286 667.553 709.512 665.304 711.865 663.193C714.465 661.08 714.752 657.525 717.285 655.598C717.406 653.849 717.673 652.112 718.083 650.407C718.593 647.402 718.369 644.318 717.431 641.418C716.833 639.147 715.554 637.113 713.765 635.591C712.778 634.738 711.553 633.863 710.479 632.958C709.418 632.167 708.484 631.217 707.712 630.143C706.826 628.719 705.35 629.568 704.196 628.919C702.917 628.201 701.975 627.176 700.757 626.655C694.642 625.159 688.379 624.589 681.813 623.639C680.378 624.255 678.823 624.543 677.262 624.481C675.701 624.419 674.174 624.008 672.792 623.28V623.28Z" fill="#252525"/>
<path d="M287 536.271V533.523C290.123 530.73 294.748 530.982 297.664 527.94C300.803 525.185 303.52 521.984 305.728 518.44C306.123 516.076 304.25 515.587 302.807 514.834V513.231L306.478 509.127C311.364 512.636 316.736 515.411 322.425 517.365C325.093 517.365 329.203 517.397 333.311 517.345C334.579 517.442 335.849 517.186 336.981 516.605C337.366 516.359 337.802 516.203 338.256 516.149C338.709 516.096 339.17 516.146 339.602 516.296C340.033 516.446 340.426 516.692 340.749 517.015C341.072 517.338 341.317 517.731 341.467 518.163C341.484 519.49 340.312 520.092 339.49 520.74C335.34 524.377 332.489 529.267 331.369 534.67C330.713 538.969 330.436 543.318 330.542 547.666C330.366 550.045 332.457 552.145 331.346 554.678L328.211 556.208C325.82 553.847 324.829 550.365 322.197 547.98C319.566 545.595 316.492 543.766 314.101 541.158H311.199C310.726 540.686 310.162 539.689 309.354 539.418C308.228 538.953 307.067 538.576 305.881 538.29C299.692 536.857 293.352 536.179 287 536.271V536.271ZM325.365 540.215C325.789 534.066 327.493 528.073 330.369 522.621C329.043 521.673 328.618 523.174 327.79 523.323C326.04 522.574 324.381 521.555 322.475 522.918C321.462 523.642 320.575 523.27 319.421 522.732C316.533 521.387 313.45 520.459 310.202 519.275C306.819 524.081 302.678 528.307 297.942 531.788C298.518 532.325 298.884 533.321 300.086 533.239C302.482 533.074 304.609 534.903 307.087 534.219C314.105 536.261 320.542 539.933 325.872 544.935C325.203 542.555 326.375 540.917 325.365 540.215Z" fill="#232424"/>
<path d="M661.845 260.81L668.303 254.798C668.953 254.405 669.629 254.058 670.326 253.76C673.256 252.757 676.291 252.092 679.371 251.777C680.924 251.632 682.446 251.251 683.885 250.647C686.967 249.382 690.365 249.881 693.472 248.72C697.539 247.202 701.997 247.5 706.15 245.902C708.405 245.23 710.745 244.882 713.098 244.87C715.824 244.698 718.295 243.506 720.992 243.509C721.476 241.606 722.734 244.761 723.526 243.084C723.934 242.22 725.337 242.835 726.286 242.758C728.998 242.921 731.719 242.618 734.33 241.864C736.564 240.914 738.84 242.649 741.052 243.07C741.352 244.452 740.24 245.556 739.712 245.51C737.545 245.32 735.816 246.954 733.723 246.704C729.056 246.357 724.364 246.743 719.817 247.848C716.028 248.588 712.186 249.33 708.399 249.964C703.099 250.852 697.912 252.289 692.511 252.852C688.031 253.277 683.597 254.1 679.262 255.311C676.476 256.12 673.566 256.471 670.755 257.483C668.934 257.881 667.247 258.744 665.858 259.987C664.85 261.117 663.838 260.307 661.845 260.81Z" fill="#2F2D2C"/>
<path d="M694.819 263.577C694.435 262.788 694.371 262.341 694.738 261.842C695.857 260.983 697.444 262.142 698.745 260.919C699.818 259.91 701.88 261.221 703.052 259.736C703.918 261.963 705.3 259.661 706.538 260.042C707.754 260.416 709.326 259.365 710.865 259.578C712.305 259.777 713.257 258.183 714.918 258.535C716.554 258.735 718.207 258.757 719.848 258.602C721.267 258.586 722.273 257.22 723.901 257.555C725.373 257.761 726.864 257.775 728.339 257.596C729.929 257.497 731.643 258.141 733.086 257.151C734.46 256.209 735.916 256.743 737.328 256.65C738.969 256.54 740.623 256.624 742.272 256.624H746.548L747.404 257.48L744.216 260.696C742.801 260.858 739.781 259.706 737.347 261.045C734.88 262.404 732.101 260.32 729.945 262.317C727.884 260.943 725.87 262.506 723.956 262.409C719.049 262.159 714.373 263.801 709.521 263.577C707.721 263.747 705.906 263.704 704.116 263.45C702.574 262.981 701.632 264.893 699.85 263.733C698.605 262.923 696.405 263.577 694.819 263.577Z" fill="#322E2D"/>
<path d="M488.214 422.432C487.23 423.787 486.524 425.324 486.137 426.953C485.565 428.554 484.742 430.054 483.699 431.396C483.073 432.981 482.211 434.463 481.14 435.789C479.789 437.099 479.006 439.06 477.548 440.181C474.092 443.649 470.133 446.575 465.805 448.862C464.087 449.504 463.468 451.381 462.043 451.717C456.744 452.968 453.039 457.959 447.233 457.881C443.904 459.772 440.371 461.278 436.701 462.369C434.946 462.944 433.139 463.352 431.307 463.587C429.361 464.003 427.24 464.405 425.368 464.962C422.399 465.626 419.361 465.921 416.32 465.841C414.615 465.927 412.773 465.153 411.214 466.742C410.849 466.939 410.441 467.043 410.027 467.043C409.612 467.044 409.203 466.942 408.838 466.746C406.59 465.224 404.125 466.088 401.777 465.795C399.085 465.458 396.367 466.432 393.646 465.079C391.411 463.967 388.521 465.693 386.204 463.875C385.795 463.554 384.914 463.778 384.258 463.838C380.178 463.756 376.144 462.959 372.34 461.482C368.12 460.625 364.069 459.084 360.347 456.92C359.998 456.694 359.376 456.89 358.734 456.89C357.388 455.134 355.635 453.734 353.625 452.811C351.743 451.758 350.229 450.154 349.286 448.214C347.987 446.327 346.846 444.335 345.875 442.26C345.053 440.242 343.279 438.439 342.208 436.348C341.089 434.163 339.917 432.006 338.739 429.851C338.325 429.205 339.248 429.251 339.374 428.77C339.095 427.026 337.409 425.151 338.772 423.511C340.154 421.847 339.017 420.071 339.693 418.411C340.615 416.149 341.019 413.68 341.873 411.385C344.651 403.443 350.132 396.731 357.358 392.422C359.359 390.971 361.591 389.867 363.959 389.157C366.148 388.679 367.841 386.893 370.246 386.373C372.874 385.804 375.127 384 377.844 383.213C384.511 381.474 391.05 379.279 397.417 376.644C401.935 376.768 406.46 374.418 410.811 375.758C414.041 376.809 417.484 377.031 420.822 376.404C426.455 375.746 432.125 375.463 437.795 375.56C440.015 375.395 442.206 376.701 444.41 375.594C446.593 377.048 449.329 375.854 451.385 376.706C458.513 378.58 465.345 381.442 471.68 385.208C473.741 386.822 475.474 388.688 477.394 390.382C479.222 392.086 480.804 394.034 482.096 396.173C483.279 398.017 485.181 399.235 485.99 401.465C487.067 403.679 487.815 406.037 488.211 408.467C488.222 413.092 488.214 417.716 488.214 422.432ZM346.428 431.838C347.383 432.382 348.217 433.114 348.881 433.989C349.546 434.864 350.026 435.864 350.293 436.93C351.771 441.032 354.035 444.806 356.959 448.041C359.065 450.377 361.766 452.098 364.773 453.022C369.782 455.412 375.097 457.101 380.568 458.041C382.917 458.09 385.251 458.444 387.51 459.093C389.515 460.134 391.527 459.096 393.102 459.961C395.016 460.786 397.115 461.089 399.185 460.838C404.635 460.891 410.101 460.601 415.53 460.945C419.153 461.174 422.47 459.579 426.025 459.864C427.135 457.881 429.252 459.041 430.865 458.396C435.397 456.585 440.005 455.007 444.512 453.057C449.673 451.123 454.671 448.779 459.458 446.05C463.797 443.375 467.816 440.213 471.437 436.627C473.95 434.08 475.692 430.951 478.293 428.565C480.018 414.507 484.072 417.657 473.09 396.666C471.931 396.233 470.877 395.561 469.995 394.694C469.113 393.827 468.424 392.783 467.972 391.632C465.623 390.517 462.942 390.366 461.396 387.986C460.781 387.281 459.931 386.821 459.004 386.692C455.331 385.99 451.977 383.608 448.565 384.48C444.807 382.481 440.586 381.513 436.332 381.675C430.835 381.284 425.312 381.509 419.864 382.345C414.939 382.872 409.974 382.932 405.037 382.524C404.681 382.468 404.332 382.369 403.999 382.23L402.411 380.49C398.862 380.942 395.38 381.823 392.042 383.113C387.581 384.193 383.234 385.698 379.06 387.607C375.703 389.213 371.975 389.625 368.758 391.459C367.073 392.535 365.329 393.516 363.534 394.397C359.758 396.382 356.303 398.926 353.286 401.942C352.897 402.229 352.585 402.608 352.376 403.044C351.718 404.616 350.876 406.104 349.867 407.478C348.886 408.95 348.647 410.88 347.751 412.532C346.847 413.985 346.419 415.683 346.527 417.39C347.029 420.168 343.453 422.809 346.577 425.271L345.111 427.264C346.849 428.347 346.322 430.05 346.428 431.838V431.838Z" fill="#232323"/>
<path d="M480.022 376.496C482.029 377.491 484.01 374.633 485.727 375.795C487.676 377.113 489.543 375.988 491.984 377.097L495.036 381.145V388.169C492.553 390.132 490.038 391.661 486.609 389.563C485.556 388.92 483.732 389.837 482.646 388.482C480.081 388.867 479.193 386.413 477.759 385.204C477.072 384.572 476.579 383.757 476.339 382.855C476.099 381.953 476.122 381.001 476.405 380.111L480.022 376.496Z" fill="#292827"/>
<path d="M670.447 655.166C667.48 653.412 664.869 651.115 662.75 648.395C662.424 647.288 663.71 646.965 663.841 645.852C663.89 644.671 664.173 643.512 664.674 642.442C665.175 641.372 665.885 640.412 666.76 639.618C667.636 638.825 668.661 638.214 669.775 637.82C670.889 637.427 672.07 637.259 673.25 637.326C675.227 637.316 677.205 637.295 679.182 637.331C681.033 637.31 682.87 637.654 684.588 638.344C686.305 639.033 687.87 640.055 689.193 641.349C690.588 644.335 688.055 646.747 688.495 649.224L682.625 655.088C680.792 654.373 678.752 657.087 676.695 656.055C674.696 655.33 672.569 655.027 670.447 655.166V655.166ZM678.429 651.153C679.758 650.93 680.976 650.278 681.9 649.298C682.823 648.317 683.4 647.062 683.543 645.722C680.945 642.899 676.76 642.969 674.191 640.561C672.019 641.439 670.142 642.917 668.777 644.821V648.846C671.838 650.164 675.103 650.945 678.429 651.153V651.153Z" fill="#282726"/>
<path d="M392.93 401.062C393.196 399.252 394.569 398.404 395.059 397.021V392.821C397.64 391.117 397.64 391.117 399.935 393.018C400.008 393.339 399.974 393.675 399.839 393.976C399.704 394.276 399.475 394.525 399.187 394.684C399.986 397.782 402.921 399.703 403.126 403.354C403.298 406.42 406.794 408.869 405.744 412.517L410 416.341C409.209 419.069 410.659 421.331 411.068 423.922C411.482 424.525 412.725 423.782 413.098 425.091C413.562 424.57 414.18 424.209 414.863 424.063C415.545 423.916 416.257 423.991 416.894 424.276C418.941 425.257 421.251 425.547 423.477 425.103C429.192 424.646 434.696 426.709 440.423 426.27C441.805 426.164 443.278 427.371 444.963 427.185C446.585 427.083 448.212 427.07 449.836 427.146L451.41 428.393C451.678 429.67 451.015 429.999 450.667 430.521C450.485 430.909 450.371 431.325 450.329 431.752C449.03 432.272 447.779 432.904 446.59 433.639C446.136 433.987 445.596 434.204 445.027 434.265C444.458 434.326 443.884 434.228 443.367 433.984C442.539 433.474 441.615 433.14 440.652 433.002C439.689 432.864 438.708 432.926 437.77 433.184C435.537 433.507 433.764 432.304 431.73 432.067C429.875 431.852 427.88 432.893 426.146 431.157C425.006 430.017 423.435 432.816 422.057 431.112C416.842 431.807 411.843 429.148 406.573 430.299C404.871 428.876 403.49 427.108 402.52 425.112C401.55 423.116 401.013 420.938 400.945 418.72C399.424 416.707 400.119 414.055 398.319 411.813C396.131 408.439 394.324 404.834 392.93 401.062V401.062Z" fill="#232423"/>
<path d="M454.084 400.379L455.489 401.978C455.489 403.247 454.46 404.194 451.193 406.187C442.87 406.622 434.708 408.652 427.151 412.166C426.348 411.259 425.098 410.596 424.651 409.065C427.333 406.705 430.762 405.367 434.334 405.284C435.713 405.203 437.051 404.784 438.231 404.065C441.674 402.236 445.709 402.482 449.115 400.494C450.341 399.778 452.336 400.379 454.084 400.379Z" fill="#2B2A29"/>
<path d="M470.876 411.285C471.344 411.983 472.26 412.266 472.349 413.19C472.251 413.479 472.239 413.922 472.043 414.03C470.256 415.04 468.202 415.479 466.158 415.287C465.369 415.056 464.533 415.031 463.732 415.215C462.93 415.399 462.189 415.786 461.58 416.339C459.016 414.441 456.033 415.559 453.16 415.195C452.207 414.262 450.585 414.208 449.738 412.972C450.857 411.834 452.251 411.004 453.784 410.559C455.317 410.115 456.939 410.072 458.493 410.435C460.93 411.152 463.475 411.432 466.01 411.262C467.633 411.385 469.273 411.285 470.876 411.285Z" fill="#2A2828"/>
<path d="M401.735 443.603C403.449 443.154 404.638 441.431 406.563 442.143C406.857 442.528 407.012 443 407.004 443.484C406.997 443.967 406.827 444.434 406.522 444.81C405.499 445.758 404.728 446.946 404.278 448.266C403.829 449.586 403.714 450.998 403.946 452.373L402.446 453.916H399.308C398.871 452.127 398.862 450.261 399.284 448.468C399.706 446.676 400.546 445.009 401.735 443.603V443.603Z" fill="#302D2C"/>
<path d="M369.275 442.577C369.615 441.918 370.581 441.546 370.201 440.555C372.655 439 375.76 438.529 377.577 436.07H380.618L382.017 437.47C381.847 437.697 381.725 438.019 381.496 438.141C378.639 439.666 376.47 442.161 373.382 443.468C372.714 443.876 371.915 444.012 371.15 443.846C370.385 443.68 369.713 443.226 369.275 442.577V442.577Z" fill="#34302F"/>
<path d="M355.36 425.695C358.152 422.605 361.689 420.28 365.634 418.943C366.592 420.389 366.088 421.559 366.237 422.659C361.479 427.314 358.579 428.127 355.36 425.695Z" fill="#34302F"/>
</svg>
