<svg width="1208" height="900" viewBox="0 0 1208 900" fill="none" xmlns="http://www.w3.org/2000/svg">
<path d="M564.695 175.028L569.581 169.48C571.7 168.84 573.685 168.41 575.532 167.648C579.453 165.855 583.892 165.547 588.023 166.784C590.635 167.203 593.292 167.272 595.922 166.986C598.24 166.839 600.349 167.96 602.499 167.91C604.694 167.86 606.529 168.913 608.58 169.01C610.726 169.369 612.8 170.069 614.725 171.08C616.73 171.955 618.686 172.937 620.584 174.024C622.943 173.931 625.273 174.583 627.241 175.888C629.583 177.13 632.175 177.828 634.824 177.93C637.511 177.912 640.145 178.667 642.416 180.103C644.127 181.413 646.068 181 647.831 181.515C650.371 182.257 652.764 183.428 655.171 184.352C657.441 185.223 659.874 184.416 662.026 185.93C664.176 187.073 666.647 187.458 669.042 187.02C670.152 187.003 671.244 187.31 672.183 187.903C674.218 189.033 676.47 189.717 678.79 189.91C682.502 190.472 686.148 191.405 689.674 192.693C691.118 193.046 692.146 193.206 693.087 192.039C697.548 193.544 702.165 194.539 706.849 195.004C710.266 195.549 713.65 196.28 716.986 197.194C718.592 197.375 720.124 199.109 722.173 199.021C724.157 198.936 726.146 199.003 727.944 199.003C730.362 200.885 733.35 201.886 736.414 201.842C742.043 202.59 747.614 203.727 753.087 205.243C755.963 205.689 758.769 206.837 761.799 207.074C763.818 207.232 765.734 208.081 767.883 208.087C770.075 208.224 772.238 208.642 774.323 209.332C776.255 209.866 778.158 210.506 780.021 211.246C781.188 211.73 782.44 211.973 783.704 211.962C786.859 212.028 789.967 212.736 792.839 214.044C794.864 214.876 796.966 215.402 798.969 216.141C801.384 216.703 803.696 217.642 805.817 218.927C807.656 220.352 810.372 220.25 812.222 221.427C814.274 222.617 816.639 223.156 819.004 222.973C820.636 225.199 823.799 225.409 824.531 227.555C827.621 228.47 830.158 229.199 832.681 229.973C835.031 230.694 835.024 230.715 836.513 233.444C839.428 234.57 842.172 236.096 844.666 237.98C846.197 239.494 847.965 240.565 849.5 241.973C853.377 245.529 858.734 247.032 862.174 251.173C862.274 251.294 862.357 251.43 862.488 251.615V253.521L868.118 256.227C868.678 257.388 869.099 259.044 871.113 259.108C871.428 260.845 872.847 261.767 873.931 262.931H875.975L877.996 267.047C879.651 268.004 881.234 268.992 882.882 269.856C885.495 271.226 886.556 274.11 888.818 275.808C889.839 276.594 890.578 277.688 890.924 278.928C891.318 280.215 893.702 279.352 893.422 281.304C895.955 283.493 897.773 286.393 898.641 289.627C902.285 291.577 902.714 296.372 906.379 298.129V300.264C907.088 301.234 908.56 300.97 909.288 302.454V306.264C910.053 307.027 910.855 307.516 911.189 308.224C912.04 310.028 912.461 312.061 913.468 313.756C914.431 315.378 916.055 316.597 917.108 318.18C917.586 318.897 917.388 320.065 917.538 321.405L920.405 323.716C920.147 326.426 922.192 328.147 921.179 330.497C923.695 331.181 923.707 333.641 924.052 335.223C924.639 337.847 926.037 340.218 928.047 342.003C929.942 349.896 931.799 357.26 934.385 364.848C934.217 365.824 932.959 366.904 933.357 368.512C933.7 369.901 932.898 371.492 933.89 372.785C934.118 373.022 934.29 373.308 934.395 373.619C934.499 373.931 934.534 374.262 934.496 374.589C934.458 374.916 934.348 375.23 934.174 375.509C934 375.788 933.766 376.026 933.49 376.205C934.694 377.35 934.368 378.837 934.385 380.242C934.536 381.731 934.513 383.234 934.314 384.718C934.009 386.026 936.116 387.123 934.465 388.369C935.906 389.284 935.474 390.762 935.331 391.974C935.146 393.546 936.292 394.708 936.311 396.061C936.272 397.395 936.69 398.703 937.495 399.767C937.11 400.946 936.349 400.708 935.667 400.913C934.315 403.65 936.88 406.016 936.513 408.812C935.774 411.547 936.108 414.46 937.445 416.957C935.882 418.969 935.126 421.493 935.328 424.033C935.437 425.395 936.019 427.044 934.487 428.148C935.635 429.112 935.364 430.44 935.386 431.688C935.401 432.52 935.744 433.67 935.331 434.132C932.614 437.169 933.598 440.849 933.352 444.266L931.36 446.26C932.18 449.874 929.001 452.008 927.694 454.978C927.275 455.752 928.43 455.79 928.374 456.381C928.775 457.556 927.021 457.868 927.454 459.161L928.23 460.081C927.982 460.951 927.579 461.77 927.04 462.498C924.686 464.807 922.865 467.602 921.702 470.687C920.538 473.773 920.061 477.075 920.304 480.364C917.754 482.017 917.001 485.38 914.378 487.113L915.418 488.28C914.4 491.371 913.045 494.339 911.375 497.131C911.143 497.551 910.285 497.628 909.639 497.894C909.586 498.992 909.313 500.066 908.839 501.057C908.365 502.048 907.698 502.934 906.876 503.663C904.487 505.603 903.06 508.617 899.916 509.754C899.384 509.946 899.289 511.139 898.816 511.729C894.726 516.644 890.033 521.025 884.849 524.768C883.667 525.653 882.589 526.667 881.635 527.792C878.568 531.528 874.736 534.563 870.396 536.691C867.514 538.101 864.981 540.133 862.98 542.64C860.25 542.218 858.976 544.549 857.111 545.587C853.157 547.788 849.48 550.482 845.643 552.899C844.146 553.691 842.583 554.35 840.971 554.869C839.523 555.46 838.143 556.811 836.594 557.571C835.494 558.111 834.487 559.049 833.024 558.622C831.11 558.063 830.659 560.38 828.903 560.773C825.993 561.744 823.196 563.024 820.56 564.592C818.638 564.501 816.72 564.823 814.933 565.537C812.467 566.443 809.847 566.928 807.293 567.592C806.771 567.727 806.388 567.961 806.495 568.591C802.546 568.556 798.652 569.526 795.181 571.41C792.323 572.491 789.366 573.287 786.353 573.788C784.097 575.745 781.992 577.804 779.651 579.545C776.486 581.808 773.728 584.591 771.492 587.775C770.667 589.201 769.517 590.412 768.137 591.312C767.187 591.679 766.343 592.277 765.682 593.053C765.022 593.829 764.565 594.757 764.354 595.754C763.962 597.413 761.909 598.679 760.598 600.12C760.904 600.324 761.157 600.599 761.337 600.92C761.516 601.242 761.617 601.602 761.63 601.97C761.643 602.338 761.57 602.704 761.414 603.037C761.258 603.371 761.024 603.663 760.734 603.889C759.057 605.753 757.818 607.969 757.108 610.374C756.493 612.404 756.783 614.936 754.539 616.289C755.217 617.896 753.411 618.814 753.482 620.371C753.633 623.711 754.18 627.212 751.096 629.578L752.405 630.886C750.732 632.535 749.432 634.524 748.595 636.719C747.758 638.913 747.402 641.262 747.551 643.606C746.311 646.852 744.236 649.714 741.536 651.901C741.788 654.482 740.212 656.557 739.939 658.785C739.649 661.15 737.766 662.856 737.72 664.838C737.655 667.633 735.194 668.785 734.716 671.152C735.026 671.537 735.746 671.839 735.479 672.83L731.558 676.357V679.901C730.434 681.414 728.254 682.566 727.609 684.867V688.984C725.652 690.788 724.079 692.968 722.986 695.394C721.681 697.47 719.169 698.516 717.535 700.457C714.03 704.25 709.779 707.276 705.046 709.346C702.953 709.897 700.891 710.561 698.868 711.333C697.957 711.776 697.129 712.374 696.422 713.099C697.155 714.144 697.601 715.364 697.714 716.635C697.827 717.906 697.604 719.183 697.067 720.341C696.475 721.645 698.164 722.043 697.654 723.254C697.297 724.102 697.675 725.232 697.565 726.218C697.391 727.775 697.928 729.305 696.779 730.912C696.437 731.65 696.332 732.476 696.477 733.276C696.623 734.077 697.012 734.813 697.592 735.385C697.72 736.426 696.748 737.017 696.409 737.888C695.242 740.884 693.988 743.878 692.7 746.834C690.931 750.571 690.217 754.722 690.635 758.836C690.08 759.39 689.443 759.779 689.165 760.344C687.267 764.213 685.354 768.081 683.673 772.046C683.35 772.759 682.936 773.426 682.44 774.032C680.148 777.071 677.757 780.048 675.676 783.226C675.032 784.21 674.702 785.197 673.402 785.357C673.305 785.368 669.212 790.195 669.138 790.314C667.445 793.198 665.441 795.887 663.162 798.335C662.129 799.393 660.431 799.346 659.652 800.774C658.159 803.512 655.342 805.121 653.63 807.682C653.337 808.122 652.871 808.146 652.505 808.367C649.433 810.158 646.687 812.457 644.382 815.165C642.157 815.151 640.008 815.977 638.364 817.478C636.342 819.156 633.467 819.124 631.895 821.31C629.245 821.14 627.26 823.032 624.926 823.811C622.869 824.497 620.994 823.577 618.522 824.937L617.284 826.189C614.008 825.886 610.741 828.891 607.167 826.481C604.977 827.503 602.839 829.854 600.064 827.324C599.882 827.158 599.417 827.299 599.085 827.304C592.377 827.394 585.763 825.644 579.025 826.292C578.05 826.385 577.059 826.304 576.185 826.304L574.31 824.43C572.861 824.313 571.044 824.695 570.048 823.962C568.52 822.839 567.911 824.56 566.687 824.419C565.468 824.381 564.27 824.092 563.167 823.573C562.063 823.054 561.079 822.314 560.272 821.399H554.252L551.884 818.314H546.206L544.343 816.433H541.268C539.899 814.255 537.184 813.88 535.217 812.319C532.064 812.949 531.319 809.129 528.69 808.789C527.722 806.503 525.329 805.651 523.787 803.928C522.085 802.027 519.974 800.44 519.573 797.676C516.856 796.186 514.247 794.51 511.763 792.659C511.601 789.067 507.659 786.585 507.551 782.489L505.071 782.214C503.746 778.869 504.184 774.897 501.167 772.283C500.402 769.957 499.918 767.547 499.725 765.106C497.466 762.018 496.1 758.368 495.776 754.556C495.621 753.243 495.781 751.896 495.744 750.566C495.707 749.266 496.05 747.643 495.408 746.751C494.66 745.711 496.391 744.394 494.752 743.821C495.857 741.934 494.304 740.032 494.784 738.167C495.023 737.617 495.351 737.111 495.755 736.668C495.773 735.434 494.554 734.818 494.688 733.489C494.834 731.164 494.855 728.833 494.747 726.506C494.773 724.76 494.473 723.024 493.864 721.387C492.178 716.984 492.402 716.9 493.754 709.778C492.67 708.39 493.805 707.002 493.764 705.613C493.719 704.117 493.754 702.618 493.754 700.875C489.734 698.369 489.536 692.882 485.589 689.854C486.754 685.336 484.18 680.98 484.761 676.392C484.42 676.074 484.151 675.687 483.972 675.256C483.794 674.826 483.71 674.362 483.726 673.897C483.742 673.431 483.858 672.975 484.065 672.557C484.273 672.14 484.568 671.772 484.929 671.478L483.737 669.706C485.271 666.174 485.963 662.335 485.759 658.49C485.595 655.919 485.897 653.339 486.652 650.875C487.216 649.8 487.924 648.808 488.757 647.925C488.757 646.206 488.638 644.222 488.783 642.258C489.397 638.427 489.763 634.56 489.878 630.681C489.902 629.972 490.084 629.276 490.411 628.646C490.739 628.016 491.202 627.467 491.769 627.04C492.366 626.58 492.779 625.919 492.93 625.181C493.081 624.442 492.961 623.674 492.592 623.016C492.005 621.892 491.707 620.641 491.726 619.373C491.745 618.105 492.08 616.862 492.7 615.756C493.845 613.378 493.252 610.458 494.7 608.099C492.956 606.532 494.071 605.052 494.693 603.434C494.886 602.969 494.985 602.471 494.983 601.968C494.982 601.465 494.88 600.968 494.684 600.504C493.038 597.888 493.99 595.088 493.779 592.385C493.679 591.097 493.894 589.775 492.611 588.732C495.866 584.589 491.669 580.371 492.849 576.232L490.755 574.032C490.497 572.627 492.618 571.932 491.275 569.609L489.808 568.685V564.288C486.682 561.474 486.654 557.175 484.381 553.734H481.538C479.698 552.709 479.557 550.893 478.439 549.691C475.119 545.794 470.708 542.982 465.773 541.62C464.175 539.246 461.059 540.168 459.064 538.483C457.174 536.886 454.136 537.217 452.571 534.911C449.372 534.883 446.647 532.859 443.524 532.683C442.565 532.719 441.61 532.557 440.715 532.208C439.821 531.859 439.008 531.33 438.327 530.654H433.389C432.465 529.659 431.338 528.875 430.083 528.356C428.829 527.836 427.476 527.594 426.12 527.644C419.843 527.348 413.681 525.845 407.973 523.219C406.428 522.573 404.241 522.945 403.595 520.468C400.645 521.569 398.26 519.202 395.403 519.656L393.291 517.636H389.451C387.521 516.08 384.807 515.924 383.456 513.608C382.109 513.823 380.731 513.727 379.426 513.33C378.122 512.933 376.923 512.244 375.924 511.316C375.207 510.598 374.316 510.077 373.338 509.806C372.359 509.535 371.326 509.523 370.341 509.769L366.344 505.632C364.917 506.613 363.528 503.957 362.141 505.659C359.957 504.799 357.462 504.291 357.666 501.03C357.693 500.606 356.856 499.967 356.29 499.695C354.121 498.533 351.858 497.556 349.525 496.774C348.621 496.497 347.788 496.027 347.083 495.397C344.301 493.132 341.33 491.111 338.201 489.357C337.342 488.925 336.397 488.689 335.436 488.665C334.735 487.356 334.301 485.244 333.241 484.861C332.567 484.607 331.965 484.19 331.491 483.648C331.016 483.105 330.683 482.455 330.52 481.753L328.556 481.659C325.866 479.732 324.151 476.526 320.896 475.139C319.493 472.296 317.544 469.756 315.162 467.664C312.078 464.386 309.272 460.856 306.774 457.112C305.014 454.415 303.996 451.303 303.823 448.087L301.029 445.591V440.306C299.453 439.07 298.361 437.319 297.944 435.359C297.993 434.703 299.396 434.022 298.519 431.687C298.169 431.162 296.265 430.351 296.26 428.296C295.36 425.623 296.81 422.573 294.976 419.869C294.624 419.352 295.249 418.369 295.415 417.637C296.475 414.398 296.3 410.881 294.923 407.764C296.204 406.465 295.507 404.327 296.918 403.095C295.62 398.693 295.323 394.057 296.05 389.526C296.279 386.88 297.238 384.348 298.82 382.214C298.14 381.497 297.701 380.585 297.566 379.606C297.431 378.627 297.606 377.63 298.067 376.755C299.344 372.231 300.276 367.616 300.856 362.951C301.074 362.052 301.473 361.207 302.027 360.466C304.33 356.837 305.638 352.666 305.82 348.372C306.061 346.102 307.121 343.997 308.803 342.454C308.873 339.78 309.175 337.117 309.707 334.496C310.237 332.896 313.102 332.755 311.904 330.482C313.506 329.407 312.293 326.866 314.276 325.955C314.694 325.763 314.732 325.149 314.948 324.76C317.058 320.947 317.635 316.196 321.701 313.569C322.973 309.851 325.012 306.441 327.687 303.562C328.181 302.78 328.576 301.939 328.864 301.06C328.954 300.488 328.963 299.907 328.891 299.334C332.105 296.342 334.709 292.754 336.557 288.77C338.519 284.434 341.376 280.563 344.94 277.41V275.315C345.285 275.164 345.599 274.89 345.844 274.942C347.213 275.232 348.764 274.281 348.626 273.551C348.209 271.343 350.43 271.03 350.994 269.535C351.515 268.152 353.191 267.404 354.588 266.544C356.649 265.274 356.763 262.525 358.301 260.35C359.229 260.03 360.084 259.526 360.814 258.87C361.545 258.213 362.137 257.416 362.555 256.527C363.606 254.119 365.331 252.066 367.523 250.618C369.505 249.189 371.136 247.328 372.291 245.175C373.461 242.861 376.347 241.835 377.777 239.535C377.973 239.269 378.249 239.071 378.563 238.969C378.878 238.867 379.216 238.865 379.531 238.966C379.948 239.01 380.366 238.914 380.722 238.693C381.077 238.472 381.348 238.139 381.493 237.747C382.857 235.013 385.08 232.801 387.82 231.449C388.196 231.281 388.504 230.99 388.694 230.624C388.884 230.258 388.944 229.837 388.865 229.432C390.447 228.759 391.961 227.934 393.384 226.968C394.519 225.601 395.914 224.472 397.488 223.646C398.974 222.732 400.358 221.663 401.62 220.458C402.86 219.561 404.887 219.135 405.197 217.051H407.112C408.085 215.281 409.397 213.721 410.974 212.46C412.552 211.199 414.363 210.264 416.304 209.705C417.921 207.872 419.77 206.256 421.804 204.901C423.694 203.384 426.144 203.18 427.944 201.477C430.085 199.452 433.225 198.922 435.578 197.039C437.865 195.447 440.284 194.053 442.809 192.874C445.416 191.763 447.825 190.238 449.945 188.357C453.113 188.373 454.727 184.624 458.049 185.016C460.398 182.369 463.914 182.204 466.93 181.157C469.106 180.402 470.743 177.972 473.466 178.828C475.448 177.236 478.147 178.523 480.271 177.118C480.834 176.745 481.626 176.45 482.31 176.056C484.299 174.854 486.472 173.985 488.742 173.485C493.369 171.795 498.268 170.968 503.193 171.049C504.948 171.29 506.731 170.89 508.214 169.923C509.104 169.379 509.963 168.672 510.831 169.088C512.641 169.955 514.3 168.965 516.024 169.019C518.02 169.081 520.019 169.033 522.017 169.033C524.014 169.033 526.015 168.958 528.008 169.059C528.631 169.142 529.265 169.095 529.87 168.921C530.474 168.747 531.036 168.451 531.52 168.049C532.404 167.892 532.697 168.609 533.29 169.074C535.868 167.971 538.767 167.878 541.41 168.814C544.645 169.392 547.95 169.467 551.207 169.033L552.705 170.531V175.027C551.653 175.755 550.395 176.121 549.116 176.072C547.828 175.868 546.074 175.546 545.236 176.194C543.674 177.121 541.81 177.393 540.049 176.951C538.199 176.878 536.87 178.218 534.961 178.101C529.424 177.761 523.984 179.739 518.394 179.039C517.918 179.012 517.441 179.091 517 179.271C514.227 180.45 511.245 181.055 508.233 181.051C507.432 180.954 506.62 181.045 505.861 181.317C503.016 182.616 499.9 183.21 496.776 183.049C495.413 183.883 493.94 184.521 492.4 184.945C488.068 185.499 483.874 186.844 480.027 188.911C479.249 189.287 478.596 190.059 477.492 190.056C474.375 190.273 471.377 191.338 468.822 193.137C465.101 195.353 461.212 197.273 457.191 198.882C456.261 199.456 455.262 199.906 454.215 200.22C453.137 200.386 452.648 202.388 450.989 201.991C449.219 201.568 450.248 203.698 448.925 204.068C442.333 205.906 438.481 212.623 431.568 213.999C431.291 214.054 430.844 214.334 430.84 214.518C430.793 216.617 428.328 216.11 427.616 217.601C426.898 219.107 424.925 219.148 423.762 220.376C422.567 221.357 421.191 222.094 419.712 222.545C418.036 223.107 416.641 224.295 415.818 225.859C415.181 227.248 414.116 228.396 412.78 229.136C411.443 229.875 409.905 230.168 408.39 229.97C406.359 232.072 404.598 234.418 403.15 236.957H401.102C399.991 239.469 397.092 240.213 395.06 242.086C392.985 243.999 391.236 246.195 389.176 248.095C387.735 249.853 385.967 251.315 383.97 252.4C383.502 252.579 383.079 252.859 382.73 253.218C382.38 253.577 382.114 254.008 381.947 254.48C381.708 256.247 380.353 257.001 379.301 257.863C377.985 258.861 376.813 260.036 375.819 261.355C374.635 262.969 373.214 264.394 371.603 265.582C370.385 266.501 371.298 267.8 370.584 268.694C368.861 269.489 367.35 270.677 366.17 272.162C364.989 273.647 364.174 275.39 363.789 277.247C363.044 280.639 357.512 279.885 357.849 284.431C354.926 287.227 352.566 290.558 350.897 294.243C348.632 296.516 346.73 299.125 345.259 301.978C344.303 303.947 343.099 305.786 341.676 307.449C339.872 309.114 338.671 311.331 338.261 313.751L338.771 314.422C337.689 315.813 336.541 317.151 335.471 318.519C333.983 320.423 333.61 322.973 331.719 324.5C330.279 325.77 329.173 327.376 328.5 329.175C327.827 330.974 327.607 332.911 327.859 334.815L325.809 336.294V339.594L321.926 343.294C321.677 344.648 322.473 346.092 321.137 347.096C321.773 349.395 319.175 350.252 318.888 352.16C318.252 356.383 317.566 360.598 316.9 364.817C315.76 367.225 315.053 369.814 314.813 372.467C314.871 373.749 314.64 375.028 314.136 376.209C313.632 377.389 312.869 378.44 311.903 379.286V386.694C311.903 388.024 311.937 389.356 311.893 390.685C311.853 391.948 312.331 393.372 310.918 394.269C312.759 395.33 310.668 396.334 310.827 397.438C310.977 398.48 311.384 399.721 310.455 400.736C309.431 401.856 310.009 403.178 310.015 404.381L311.86 406.227L310.936 407.263C311.241 407.783 312.046 408.01 311.906 408.828C311.265 409.651 310.877 410.642 310.789 411.681C310.701 412.72 310.916 413.763 311.409 414.681C311.973 415.862 312.131 417.196 311.856 418.475C311.504 421.873 312.205 425.297 313.865 428.283C313.608 428.418 313.383 428.605 313.202 428.832C313.021 429.059 312.889 429.321 312.815 429.601C312.741 429.881 312.726 430.174 312.771 430.46C312.816 430.747 312.919 431.02 313.075 431.265C314.667 432.987 313.217 435.403 314.862 437.073C316.038 438.706 316.867 440.563 317.299 442.529C317.98 444.28 318.479 446.054 319.057 447.799C320.169 450.771 321.947 453.448 324.254 455.626C325.727 456.657 326.74 458.222 327.078 459.988C327.536 461.859 328.703 463.479 330.333 464.506C334.35 467.197 338.076 470.299 341.45 473.761C344.239 477.316 347.925 480.064 352.129 481.721C352.695 481.882 353.065 482.738 353.629 482.893C355.28 483.345 355.923 484.957 357.3 485.819C360.6 487.886 364.675 488.625 367.376 491.675C371.414 492.256 373.848 495.78 377.581 497.175C380.401 498.449 383.127 499.924 385.735 501.591C388.946 503.38 392.681 504.203 395.943 505.807C399.451 507.409 403.115 508.648 406.876 509.502C409.289 510.128 411.187 512.496 413.994 511.653C417.382 513.336 421.289 513.243 424.7 514.717C426.31 515.406 428.055 515.724 429.805 515.648C430.181 516.316 430.744 516.858 431.423 517.211C432.103 517.563 432.871 517.71 433.633 517.633C436.317 517.908 438.985 518.319 441.627 518.864C442.72 518.755 443.82 518.958 444.802 519.45C445.784 519.941 446.607 520.701 447.174 521.641H454.765C458.117 523.147 460.737 525.414 463.49 524.793C468.329 526.366 471.607 529.35 475.767 530.631C480.628 532.366 485.11 535.022 488.964 538.456C490.452 539.761 492.121 540.843 493.92 541.67C496.637 544.992 499.559 548.143 502.667 551.102L502.863 553.334L504.668 553.804C504.675 556.251 505.333 558.653 506.575 560.762C508.769 564.532 510.167 568.713 510.682 573.045C511.129 575.2 510.305 577.522 511.691 579.633C512.424 580.749 510.792 581.564 510.734 582.681C511.326 583.608 511.685 584.664 511.78 585.761C511.658 589.248 511.729 592.744 511.743 596.235C511.587 597.207 511.645 598.201 511.914 599.148C512.662 600.762 512.971 602.543 512.81 604.314C512.65 606.085 512.024 607.783 510.999 609.236C511.291 609.726 511.912 609.902 511.737 610.543C511.826 610.946 511.812 611.364 511.699 611.76C511.586 612.157 511.377 612.52 511.089 612.815C511.721 614.687 511.935 616.675 511.715 618.638L508.739 624.414C508.643 626.086 508.663 627.761 508.798 629.43C508.971 630.756 507.927 631.444 507.741 632.518C508.222 634.218 506.21 635.274 506.686 637.1C507.152 639.158 506.793 641.317 505.686 643.114C504.8 644.835 504.482 646.794 504.782 648.707C504.886 651.027 504.188 653.311 502.803 655.175C503.899 655.755 503.65 656.628 503.765 657.428C504.212 660.544 501.983 663.343 502.744 666.481C502.823 667.714 502.321 669.113 503.738 669.963C503.152 670.675 502.804 671.554 502.744 672.474C502.401 674.64 503.548 677.032 501.798 678.995C502.149 679.313 502.462 679.669 502.731 680.059C503.801 682.928 505.122 685.697 506.679 688.334C508.969 691.256 511.044 694.167 515.166 694.48C515.746 694.524 515.909 695.587 516.732 695.448C517.795 695.262 518.482 695.91 519.348 696.394C523.327 699.499 528.184 701.268 533.228 701.45C534.808 703.361 537.175 701.66 538.757 702.537C540.687 703.371 542.804 703.677 544.89 703.422C549.718 703.479 554.547 703.432 559.375 703.445C560.357 703.38 561.343 703.431 562.313 703.593C567.089 704.659 572.032 704.749 576.843 703.855C575.257 699.981 575.202 695.648 576.691 691.735C577.3 690.241 575.708 689.43 575.662 688.084C577.936 686.096 576.217 684.041 575.567 682.122C576.019 681.628 576.501 681.32 576.657 680.894C577.335 679.036 575.424 677.749 575.557 675.816C575.681 674.006 577.317 672.625 576.679 670.746C576.595 670.291 576.412 669.861 576.143 669.486C575.559 668.937 575.695 668.297 575.687 667.664C575.671 666.332 575.225 664.744 575.792 663.729C576.608 662.269 575.27 660.487 575.775 660.136C577.568 658.887 575.489 657.825 575.969 656.465C577.312 652.371 577.208 647.941 575.675 643.915L577.846 642.217L576.709 640.967C578.002 640.204 577.652 638.963 577.677 637.847C577.591 635.535 577.658 633.22 577.879 630.917C578.132 629.313 579.216 628.085 578.965 626.054C578.743 624.255 579.877 622.125 579.679 620.028C579.544 619.482 579.559 618.909 579.724 618.37C579.889 617.832 580.197 617.348 580.615 616.972C580.111 616.662 579.743 616.174 579.583 615.604C579.423 615.035 579.482 614.425 579.751 613.898C580.698 610.485 581.044 606.933 580.773 603.402C576.788 604.441 574.311 600.735 570.955 601.389C569.512 600.13 569.678 598.268 567.875 597.487C567.435 597.369 566.554 597.901 565.855 597.223C561.34 589.206 562.649 592.543 562.826 577.257C563.986 575.065 565.61 573.153 567.586 571.654C569.561 570.155 571.84 569.105 574.263 568.578C580.23 566.983 586.341 565.983 592.505 565.592C596.125 564.922 599.448 567.384 603.009 566.506C603.688 567.102 604.926 567.448 605.042 567.659C605.898 569.217 607.663 568.029 608.566 569.011C610.367 570.639 611.941 572.502 613.245 574.551C614.393 576.737 614.273 579.604 616.649 581.14C616.089 582.389 617.672 583.483 617.125 584.496C616.577 585.861 616.431 587.354 616.704 588.799C616.758 590.322 614.943 591.266 615.686 592.936C612.657 596.863 608.431 599.696 603.648 601.005C599.782 601.837 595.82 602.217 591.909 602.797C591.423 603.914 592.047 605.352 590.851 606.228C593.028 609.083 589.806 611.068 589.867 613.977C590.568 615.51 591.14 617.205 590.556 618.069C589.859 619.377 589.442 620.815 589.331 622.293C589.221 623.77 589.419 625.256 589.913 626.653C590.389 628.894 590.386 631.08 590.7 633.276C590.862 634.416 589.243 634.708 589.696 635.897L590.919 637.556C590.249 638.047 589.77 638.754 589.563 639.558C589.357 640.363 589.436 641.214 589.788 641.967C591.617 645.479 590.118 649.092 590.67 652.597C588.888 654.931 590.005 657.602 589.638 659.954L591.663 661.978C591.403 663.589 591.947 665.212 590.875 667.034C590.48 667.849 590.291 668.749 590.325 669.655C590.359 670.56 590.615 671.444 591.071 672.228C591.552 673.066 591.756 674.034 591.653 674.995C591.691 679.489 591.565 683.988 591.735 688.475C591.784 689.78 590.727 690.442 590.667 691.552C592.292 693.556 590.991 696.118 591.796 698.084C592.693 700.272 590.823 702.217 591.924 704.193C595.393 705.99 599.177 707.102 603.067 707.468C604.781 707.556 606.572 706.829 608.236 708.334C608.759 708.598 609.334 708.738 609.92 708.743C610.505 708.748 611.083 708.619 611.61 708.364C615.403 706.48 619.389 708.003 623.209 707.377C624.482 707.168 624.685 708.762 626.178 708.323C626.512 707.121 627.757 707.441 628.884 707.438C632.714 707.429 636.548 707.569 640.37 707.398C644.264 707.78 648.195 707.5 651.996 706.569C652.833 706.199 653.756 706.07 654.662 706.199C655.568 706.327 656.42 706.707 657.12 707.295C657.546 707.546 658.03 707.684 658.524 707.694C659.019 707.705 659.508 707.588 659.944 707.355C660.584 706.831 661.345 706.478 662.158 706.329C662.971 706.181 663.81 706.241 664.594 706.504C668.414 707.061 671.905 704.926 675.682 705.397C676.04 705.441 676.434 704.815 676.865 704.694C680.286 703.732 683.641 702.344 687.041 701.593C693.64 699.835 699.61 696.255 704.268 691.261C704.574 689.151 706.703 688.345 707.686 686.532V683.74C711.448 681.053 711.914 676.375 714.685 672.676V666.846C715.385 666.222 716.679 666.846 716.566 665.481C717.72 664.148 717.622 662.523 717.531 660.068L720.685 657.941V653.643L723.549 651.055C723.689 648.643 724.611 646.343 726.173 644.501C728.474 640.983 729.917 636.974 730.386 632.797C730.789 629.133 732.121 625.757 732.606 622.164C732.72 621.319 733.498 620.562 734.01 619.697C734.531 619.624 735.028 619.431 735.46 619.132C735.893 618.834 736.249 618.438 736.503 617.977C737.173 616.445 735.76 615.553 735.536 614.349C738.131 610.705 739.546 606.353 739.589 601.88C742.685 600.269 741.756 596.018 744.525 594.077L743.961 593.455C743.962 592.512 744.231 591.589 744.736 590.794C745.242 589.998 745.963 589.363 746.815 588.961C749.572 588.017 749.831 585.607 750.949 583.659C751.445 583.706 751.943 583.59 752.368 583.33C752.793 583.07 753.123 582.679 753.307 582.216C753.766 581.434 753.615 580.228 755.067 580.543C757.947 576.911 762.233 574.773 764.913 570.829C768.072 567.015 772.202 564.124 776.868 562.463C780.411 561.357 783.784 559.761 786.886 557.722C788.343 557.812 789.805 557.666 791.216 557.29C795.772 555.813 800.469 554.812 805.232 554.303C807.186 552.895 809.465 552.008 811.857 551.725C815.097 551.245 818.236 550.234 821.148 548.732C823.896 547.003 826.747 545.443 829.685 544.061C833.422 542.877 836.358 540.125 840.223 539.302C841.392 539.053 841.162 537.365 842.014 536.625C845.388 536.239 847.126 532.239 850.899 532.636C853.498 530.339 855.515 527.204 859.22 526.39C859.39 525.783 859.64 525.201 859.965 524.66C861.099 523.25 863.02 523.168 864.288 522.261C864.578 521.298 865.056 520.402 865.695 519.625C866.333 518.848 867.119 518.206 868.007 517.734C870.893 515.83 874.277 514.63 875.624 511.002C875.695 510.81 876.171 510.77 876.455 510.653C879.096 509.565 879.693 506.959 880.756 504.907L886.312 502.282L886.578 500.034C888.828 499.549 888.792 497.003 890.422 496.087C890.27 493.341 893.521 494.074 894.482 491.852V487.957C895.28 487.869 896.013 487.481 896.533 486.87C897.053 486.26 897.321 485.474 897.28 484.673C897.268 481.544 899.356 479.483 900.416 476.924C900.499 472.99 901.544 469.137 903.461 465.701C905.256 461.924 906.611 457.955 907.499 453.869C907.533 453.024 907.833 452.211 908.358 451.549C908.883 450.887 909.605 450.408 910.419 450.182V447.817L912.404 446.332C912.436 441.858 911.854 437.543 915.402 434.221C915.056 431.597 915.098 428.937 915.525 426.325C917.707 419.479 915.423 417.83 914.429 412.682C916.854 408.621 914.057 403.978 916.117 400.078C915.455 398.615 913.626 397.116 914.506 395.79C917.004 392.021 914.076 388.662 914.01 385.136C913.545 382.221 913.64 379.243 914.293 376.365C914.575 375.1 914.935 373.27 914.294 372.498C912.62 370.479 913.874 368.332 913.146 365.802L911.285 364.338C911.815 361.841 910.587 359.328 912.235 357.166C910.354 355.347 908.853 353.172 907.822 350.767C906.791 348.362 906.25 345.776 906.231 343.159C905.641 342.571 905.052 341.983 904.479 341.41C904.181 340.635 904.786 339.744 904.143 339.06C902.384 338.551 900.777 337.618 899.463 336.344V328.09L894.36 323.311C892.67 319.667 891.269 315.895 890.171 312.031C888.737 307.999 884.232 305.744 884.275 301.24C882.256 299.503 880.59 297.393 879.368 295.027C878.502 292.976 876.217 292 874.932 290.071C873.561 288.014 872.205 285.915 870.75 283.92C869.966 283.788 869.177 284.111 868.429 283.432C864.147 278.674 859.473 274.287 854.453 270.316C853.099 267.445 849.777 266.596 848.013 264.099C847.706 263.666 846.508 263.863 845.811 263.779C844.199 262.169 842.617 260.686 841.152 259.094C839.816 257.641 836.979 257.703 837.232 254.898C836.633 255 836.018 254.976 835.43 254.824C834.841 254.673 834.292 254.399 833.817 254.02C832.995 253.439 831.568 254.374 830.811 253.762L827.974 247.831C825.865 248.788 824.187 246.591 821.947 246.964C820.363 245.003 817.941 243.682 817.063 241.002H811.056C809.324 239.41 807.902 237.051 805.286 237.045C803.364 237.039 802.064 235.749 800.426 235.468C797.775 235.013 795.768 233.028 792.987 232.749C792.125 232.663 790.988 231.888 789.874 231.989C788.239 232.136 788.005 230.244 786.232 229.859H780.765L778.003 226.923C776.324 227.735 775.366 225.964 773.873 225.925C770.593 225.724 767.383 224.886 764.423 223.457C762.429 222.495 760.257 221.958 758.045 221.88C755.343 221.731 752.659 221.341 750.026 220.718C747.875 220.461 745.778 219.867 743.812 218.956C741.571 218.031 739.13 217.696 736.721 217.981C736.555 217.979 736.315 218.053 736.232 217.97C734.507 216.256 732.059 216.782 730.005 216.144C727.545 215.734 725.038 215.68 722.562 215.983C721.602 214.199 718.687 215.354 718.331 213.158C716.225 212.547 714.27 213.606 712.36 212.372C710.647 211.265 708.442 211.875 706.397 211.165C702.317 209.749 697.928 209.208 693.691 208.12C689.2 206.38 684.382 205.649 679.577 205.977C678.781 206.119 678.084 205.604 677.352 205.368C673.44 203.883 669.382 202.811 665.247 202.169C662.383 201.908 659.538 201.465 656.73 200.845C654.898 200.35 653.016 200.064 651.119 199.992C650.648 199.98 650.183 199.881 649.749 199.699C646.326 198.377 643.003 196.808 639.807 195.005C637.365 195.779 634.924 193.596 632.129 194.009C630.424 191.346 626.804 192.17 624.956 189.921C621.735 190.241 618.492 189.582 615.652 188.029C613.133 186.563 610.241 185.869 607.332 186.034C604.959 184.172 602.046 184.154 599.927 182.665C598.078 181.388 595.838 180.804 593.601 181.016C592.937 181.048 592.105 181.28 591.631 180.979C588.73 179.137 585.555 180.392 582.536 180.023C579.388 179.356 576.181 179.005 572.964 178.976C570.209 179.135 567.448 179.131 564.694 178.965L564.695 175.028ZM587.724 734.413C588.71 734.429 589.065 732.839 590.298 733.401C590.848 733.744 591.483 733.926 592.131 733.927C592.78 733.928 593.415 733.749 593.966 733.408C595.189 734.998 596.382 733.241 597.639 733.326C601.12 733.563 604.628 733.408 608.125 733.408C611.618 733.244 615.118 733.271 618.607 733.491C622.118 733.882 625.266 732.235 628.694 732.376C632.313 732.948 636.005 732.877 639.6 732.167C643.045 730.984 646.681 732.5 649.887 730.475C651.19 729.651 652.575 731.046 653.916 731.467C654.865 730.153 656.231 730.428 657.511 730.414C658.672 730.311 659.841 730.326 660.999 730.46C662.101 730.681 663.082 728.627 664.158 730.365C664.906 729.118 666.139 729.433 667.26 729.417C668.577 729.397 669.895 729.412 670.891 729.412L674.468 731.575V735.475L671.167 739.387C668.712 739.489 666.376 738.882 664.524 740.509L662.849 739.38C660.866 740.318 658.77 740.993 656.613 741.388C652.887 741.248 649.157 741.533 645.496 742.238C644.139 742.705 642.699 742.887 641.268 742.772C639.851 742.562 638.235 742.565 636.698 742.427C635.211 742.294 633.697 742.489 632.207 742.372C630.698 742.253 629.792 743.651 628.113 743.499C624.479 743.169 620.796 743.397 617.133 743.397C613.333 742.946 609.488 743.022 605.709 743.622C602.337 744.436 598.812 744.368 595.474 743.425C594.686 743.188 593.839 743.25 593.095 743.6C592.275 744.279 591.9 744.276 591.257 743.506C590.286 742.342 589.687 745.083 588.461 743.768C587.631 742.878 586.265 743.515 585.145 743.402C581.952 743.081 578.654 744.132 575.529 742.473C575.088 742.236 574.582 742.144 574.086 742.211C573.59 742.278 573.128 742.501 572.766 742.847C572.546 743.088 572.264 743.267 571.951 743.362C571.638 743.457 571.305 743.466 570.988 743.388C567.641 742.924 564.129 744.433 560.877 742.45C560.076 742.203 559.221 742.19 558.413 742.413C556.083 742.647 553.733 742.285 551.581 741.362C549.32 743.502 547.584 742.119 546.259 740.44C541.918 740.658 537.568 740.343 533.305 739.5C532.119 739.157 531.202 738.226 529.745 738.341C527.527 738.551 525.29 738.322 523.162 737.666C521.033 737.01 519.056 735.94 517.341 734.518C515.532 734.108 513.674 734.215 511.769 733.628C509.833 733.031 508.324 731.387 505.939 731.409C508.19 734.39 504.567 737.038 506.002 740.084C506.498 740.945 507.15 742.011 507.719 743.118C507.836 743.345 507.645 743.731 507.603 743.999C507.404 744.41 506.751 744.498 506.947 745.105C507.863 746.002 508.898 746.818 508.964 748.175C514.744 750.646 516.961 752.12 517.93 754.003C524.36 757.939 532.052 757.897 538.912 761.477H545.313L547.356 763.519C549.321 762.992 551.298 764.153 553.253 764.231C558.245 764.429 563.063 765.572 567.936 766.113C573.222 766.701 578.616 767.16 583.98 767.346C587.472 767.467 590.98 767.233 594.468 767.413C597.612 767.644 600.774 767.391 603.84 766.659C604.729 766.365 605.692 766.383 606.569 766.711C610.66 767.866 615.002 767.786 619.048 766.482L620.756 767.597C621.911 765.797 623.804 766.418 625.543 766.384C628.207 766.332 630.876 766.27 633.534 766.399C636.145 766.525 638.455 764.695 641.115 765.372C642.648 763.096 645.29 764.845 647.415 763.601C649.275 762.512 652.282 763.275 654.773 763.4C656.254 763.322 657.733 763.601 659.085 764.213C660.436 764.824 661.621 765.749 662.542 766.913V770.215C660.514 771.193 659.473 773.311 657.357 774.502C655.469 775.565 653.293 774.931 651.552 776.282C650.928 776.766 649.606 776.282 648.617 776.382C647.657 776.479 647.52 775.08 646.256 775.453C645.398 776.207 644.382 776.761 643.283 777.072C642.183 777.382 641.027 777.443 639.901 777.25C638.674 777.018 637.412 777.042 636.195 777.319C632.203 777.52 628.204 777.511 624.213 777.29C620.083 776.961 616.229 778.69 612.129 778.396C609.353 777.835 606.487 777.901 603.739 778.586C602.83 778.996 601.834 779.18 600.839 779.124C599.843 779.067 598.876 778.772 598.019 778.263C596.237 777.538 594.311 777.23 592.391 777.363C590.893 777.34 589.394 777.358 587.896 777.358C586.563 777.358 585.231 777.368 583.899 777.356C582.529 777.573 581.126 777.312 579.924 776.617C578.74 778.064 577.134 777.148 575.731 777.328C574.585 777.475 573.097 777.81 572.299 777.268C570.334 776.308 568.214 775.707 566.038 775.491C563.727 775.26 561.402 775.202 559.082 775.316C555.464 775.06 551.885 774.416 548.405 773.396C546.19 772.674 543.752 772.563 541.618 771.685C537.043 769.765 532.295 768.287 527.439 767.271C524.216 766.786 521.169 765.49 518.585 763.502C517.044 762.156 515.52 762.746 514.304 762.299C512.752 761.325 512.21 759.394 510.31 759.323C509.341 760.186 509.757 761.144 509.943 762.075C511.279 762.582 512.415 762.995 512.833 764.806C513.254 767.239 514.224 769.545 515.669 771.548C516.968 773.091 516.329 774.649 517.218 775.8L519.215 778.521C523.443 777.915 527.746 778.891 531.298 781.263L532.603 780.066C534.963 782.379 539.011 781.246 541.183 784.332H547.144L549.359 786.434C552.625 785.686 555.594 788.151 558.905 787.346C560.791 789.25 563.451 787.538 565.363 788.618C567.851 790.024 570.731 788.786 573.192 790.274C574.302 790.944 575.285 789.079 576.741 789.29C578.372 789.526 580.074 789.227 581.725 789.381C583.127 789.512 584.602 788.777 585.952 790.048C587.565 791.565 588.817 789.082 590.392 789.345C590.704 789.396 591.171 789.334 591.303 789.517C592.303 790.892 593.731 790.268 594.974 790.325C600.695 790.587 606.288 788.61 612.05 789.298C612.376 789.337 612.784 788.703 613.154 788.383C613.698 788.98 614.438 789.36 615.241 789.454C616.043 789.548 616.853 789.35 617.52 788.894C618.054 788.559 618.666 788.367 619.296 788.337C621.607 788.632 623.949 788.589 626.248 788.209C627.305 787.72 628.458 787.475 629.623 787.493C630.788 787.51 631.934 787.789 632.976 788.309C633.206 788.377 633.447 788.393 633.684 788.357C633.921 788.321 634.148 788.232 634.347 788.099C637.513 786.493 641.092 785.885 644.611 786.355C646.856 787.276 648.838 788.742 650.374 790.621C652.69 786.896 655.537 783.528 658.827 780.626C659.148 780.28 659.412 779.886 659.608 779.457C661.544 775.595 664.157 772.112 667.323 769.174C667.741 768.815 668.191 768.497 668.667 768.222V762.864L671.607 760.469C671.607 759.787 671.326 758.899 671.65 758.49C673.938 754.674 675.927 750.688 677.604 746.567C676.898 743.48 679.448 740.361 678.539 737.074C681.268 733.76 681.056 729.583 682.658 726.065L681.646 724.937C683.013 723.522 682.442 721.379 683.764 720.094C683.038 719.366 682.568 718.893 682.096 718.424C679.315 718.044 676.846 720.037 674.043 719.485C672.433 721.343 670.293 720.035 668.435 720.419C666.446 720.965 664.413 721.33 662.358 721.51C655.152 721.041 647.915 721.309 640.763 722.311C637.794 722.761 634.775 722.784 631.799 722.379C628.767 722.189 625.584 723.331 622.698 721.453C622.222 721.281 621.703 721.274 621.223 721.434C618.221 722.25 615.06 722.276 612.045 721.51C608.776 720.847 605.402 720.906 602.158 721.683C598.325 722.505 594.381 722.691 590.487 722.232C589.16 722.244 587.614 721.176 585.713 721.685C584.824 723.464 582.838 724.236 581.47 725.104C580.031 724.847 578.656 724.308 577.427 723.517C576.198 722.726 575.137 721.699 574.307 720.496C571.467 720.605 568.623 720.454 565.811 720.044C562.823 718.956 559.668 718.395 556.488 718.384C552.102 718.718 547.692 718.438 543.383 717.554C542.278 717.273 541.589 716.204 540.33 716.409C535.238 717.239 530.335 714.984 525.314 715.429C522.847 713.331 519.31 713.582 517.108 711.426C512.398 711.72 507.73 710.388 503.884 707.651C503.379 708.91 504.245 709.344 504.712 709.941L503.783 710.962C503.35 712.011 504.485 712.327 504.599 713.024L503.829 714.014L505.891 716.076V721.237C507.877 722.544 510.004 723.624 512.233 724.453C514.984 725.576 517.933 726.045 520.667 727.025C524.239 728.187 527.936 728.913 531.682 729.191C534.634 729.993 537.679 730.403 540.737 730.41C543.139 732.624 546.267 730.941 549.07 731.982C552.135 732.624 555.283 732.767 558.394 732.404C565.391 733.135 572.424 733.461 579.458 733.38C580.586 733.266 580.883 734.848 582.045 734.406C583.934 732.516 585.823 733.363 587.724 734.413Z" fill="#212222"/>
<path d="M179.014 342.842C179.014 343.008 178.976 343.308 179.021 343.321C181.966 344.323 185.182 344.168 188.016 342.885C188.268 342.919 188.513 342.992 188.742 343.102C189.018 343.269 189.262 343.79 189.45 343.757C193.264 343.087 196.361 346.005 200.065 345.848C201.391 345.746 202.722 345.753 204.046 345.868C206.433 346.163 208.885 345.095 211.247 346.525C213.163 347.685 215.595 346.192 217.764 347.701C218.883 348.479 220.991 347.856 222.651 347.833C226.585 347.844 230.448 348.878 233.862 350.833C234.679 350.973 234.952 350.231 235.585 349.76C237.974 351.415 240.787 350.686 243.486 350.858L246.807 354.178V359.388C245.565 360.843 244.023 362.014 242.287 362.82C241.213 362.82 240.045 362.753 238.89 362.842C237.947 362.915 236.886 362.39 236.072 363.228C234.914 364.421 234.439 362.133 233.22 362.783C229.369 364.16 225.218 364.475 221.204 363.693C218.396 363.103 215.529 362.831 212.659 362.881C210.706 363.258 209.485 361.287 207.575 361.793C206.047 362.197 204.464 361.788 202.806 362.25C202.107 362.617 201.34 362.834 200.552 362.886C199.765 362.939 198.976 362.826 198.234 362.556L196.501 360.823C195.904 360.86 195.305 360.854 194.709 360.809C193.317 360.627 191.77 361.389 190.546 359.963C190.266 359.794 189.947 359.698 189.62 359.681C189.293 359.664 188.967 359.728 188.67 359.866C186.979 360.562 185.168 360.915 183.339 360.908C181.511 360.9 179.701 360.532 178.016 359.824C178.093 358.836 177.074 358.544 176.781 358.873C174.953 360.924 173.05 359.518 171.61 358.744C167.072 356.655 161.969 356.136 157.104 357.271C156.972 357.29 156.866 357.494 156.623 357.737C155.642 356.939 154.499 356.364 153.273 356.053C152.048 355.741 150.769 355.7 149.526 355.933L148.016 353.876C146.358 354.004 144.69 353.782 143.123 353.226C141.556 352.669 140.124 351.79 138.918 350.645C136.212 348.842 133.861 346.556 131.983 343.902C130.031 340.043 127.014 336.823 123.289 334.626C121.309 333.473 119.524 332.013 118 330.302C120.154 328.968 121.842 330.532 123.109 331.548C126.28 334.173 130.22 335.692 134.332 335.877C136.041 336.101 137.722 336.501 139.349 337.072C140.85 337.545 142.41 337.797 143.984 337.82C146.06 337.499 148.179 338.011 149.879 339.245C151.092 340.329 152.423 339.865 153.634 339.788C156.507 339.579 159.384 340.132 161.973 341.393C162.84 341.828 163.825 341.968 164.779 341.791C166.511 341.496 167.839 342.508 169.367 342.826C170.849 343.135 171.787 341.179 173.454 341.81C174.31 342.134 175.369 341.508 176.195 342.469C176.935 343.331 178.073 342.658 179.014 342.842Z" fill="#212222"/>
<path d="M963.365 595.562C963.096 593.538 960.839 593.835 959.854 592.537C958.04 592.768 956.199 592.631 954.439 592.136C952.679 591.641 951.037 590.797 949.61 589.655C949.043 589.05 948.297 588.643 947.481 588.496C946.665 588.349 945.823 588.469 945.081 588.838L942.339 585.565H938.997C936.464 583.407 933.615 581.651 930.55 580.355C926.95 578.266 923.109 576.624 919.111 575.468L912.26 568.618H910.026C908.342 566.894 906.761 565.073 905.29 563.164C903.51 561.893 901.558 560.884 899.493 560.166V552.023C901.392 549.695 903.811 547.845 906.556 546.621H913.974C915.053 548.117 917.016 549.003 917.63 551.425C918.027 551.966 918.931 551.476 920.12 551.691L922.504 554.64C923.609 554.64 924.707 554.398 924.861 554.678C926.177 557.059 929.082 556.676 930.966 558.333C932.801 559.794 935.078 560.589 937.424 560.588C937.756 560.6 938.078 560.712 938.345 560.911C938.613 561.109 938.813 561.385 938.92 561.7C940.007 564.756 942.577 564.669 945.043 564.581C945.131 565.169 945.334 565.733 945.641 566.241C945.949 566.75 946.353 567.192 946.833 567.543C947.404 567.304 947.591 566.438 948.404 566.593C949.837 566.967 950.317 568.113 950.657 569.373C952.641 569.947 954.431 571.051 955.835 572.565H959.012C960.578 575.859 962.787 578.441 967.359 577.363C967.27 580.49 970.57 580.381 971.525 582.806C972.307 584.793 974.525 586.233 976.161 587.859C977.589 589.748 979.472 591.245 981.634 592.211C982.927 593.99 982.178 596.52 984.347 597.559C984.417 598.839 985.886 599.087 986.449 600.673C982.649 599.538 978.664 599.154 974.717 599.542L972.386 596.696C969.005 596.214 966.014 597.326 963.365 595.562Z" fill="#212222"/>
<path d="M298.916 201C299.403 201.729 300.089 202.304 300.892 202.656C301.695 203.009 302.582 203.124 303.449 202.989L306.871 206.946V208.343C307.114 208.627 307.318 208.877 307.535 209.115C309.028 210.752 311.794 210.485 312.902 212.691C313.928 214.733 316.192 215.425 317.62 217.097C319.678 219.613 322.126 221.784 324.869 223.528C325.605 223.853 326.403 224.011 327.208 223.989C329.606 225.455 330.864 228.094 333.092 229.845C333.846 230.513 334.406 231.373 334.709 232.334C335.012 233.295 335.049 234.32 334.815 235.3C333.983 236.745 332.634 237.821 331.04 238.31C327.941 239.589 324.586 240.118 321.245 239.855C320.612 236.747 317.93 236.568 315.277 236.223C314.715 235.623 314.207 234.975 313.756 234.288C311.362 230.579 307.899 227.683 303.824 225.985C303.324 225.762 302.881 225.428 302.531 225.007C302.181 224.586 301.932 224.092 301.804 223.559C301.702 223.243 301.54 222.95 301.323 222.699C301.106 222.447 300.841 222.241 300.543 222.095C300.245 221.948 299.921 221.863 299.589 221.844C299.258 221.825 298.925 221.873 298.613 221.985C295.167 218.532 290.847 216.082 286.115 214.897C284.43 213.145 282.535 211.069 280.521 209.114C279.821 208.347 278.951 207.756 277.98 207.388C277.01 207.019 275.968 206.884 274.936 206.993C273.739 202.986 269.8 201.607 267.081 199.117C265.802 197.947 264.35 197.163 263.787 195.372C262.901 193.473 261.587 191.806 259.948 190.499C259.948 188.842 259.948 187.185 259.948 185.527C260.744 184.209 262.28 183.929 263.291 183.293C267.743 181.789 271.292 185.336 275.487 185.068L277.402 186.983H280.483C284.317 190.493 288.325 193.807 292.493 196.913C293.037 197.44 293.729 197.792 294.476 197.921C296.876 197.768 297.977 199.201 298.916 201Z" fill="#222222"/>
<path d="M221.979 512.652C224.284 511.296 226.926 510.623 229.599 510.711C231.379 511.021 232.479 509.211 234.171 509.657C238.791 506.719 244.62 506.978 249.24 503.966C250.151 503.635 251.128 503.535 252.087 503.674C254.232 503.638 256.379 503.663 258.406 503.663C259.668 504.643 261.099 505.381 262.628 505.842C263.005 507.5 264.827 508.773 264.002 510.24C263.774 512.301 261.211 512.368 261.925 514.082C258.595 516.594 254.148 516.346 251.499 519.601C247.729 519.881 244.343 522.207 240.488 521.59C239.318 523.244 236.872 522.781 235.968 524.64C230.62 524.869 225.344 525.95 220.338 527.844C214.619 529.796 208.805 531.457 202.918 532.818C200.219 532.854 197.616 533.83 195.559 535.578C193.184 535.512 190.814 535.829 188.54 536.517C186.413 537.424 183.922 536.315 181.435 537.433C178.852 537.968 176.193 538.03 173.587 537.618C177.475 533.631 181.88 530.184 186.685 527.37C191.041 524.353 196.028 522.368 201.267 521.567C202.505 521.316 203.615 520.635 204.399 519.643C206.194 517.616 208.667 516.313 211.353 515.976C214.624 515.055 217.84 513.949 220.986 512.665C221.315 512.616 221.649 512.611 221.979 512.652V512.652Z" fill="#222222"/>
<path d="M507.742 632.519C507.929 631.445 508.973 630.758 508.8 629.432C508.665 627.763 508.646 626.087 508.742 624.415L511.717 618.639C511.937 616.676 511.723 614.688 511.091 612.816C511.379 612.521 511.589 612.159 511.702 611.763C511.815 611.366 511.828 610.947 511.739 610.544C512.549 610.377 512.703 611.293 513.37 611.496C514.293 608.049 518.484 606.136 517.611 601.09L520.732 598.896V596.108L522.705 594.04V590.6L520.784 589.219C520.234 584.662 522.924 581.443 524.102 577.776C524.431 576.996 525.051 576.374 525.83 576.042C529.037 574.742 530.555 571.294 533.779 570.242C533.525 568.89 534.155 567.689 533.254 566.571C532.317 566.91 531.813 566.209 531.248 565.607H525.289L523.142 563.561H520.362C518.806 562.32 517.572 560.724 516.765 558.905C518.26 558.286 517.935 556.984 517.532 555.981C517.043 554.823 516.336 553.768 515.452 552.873C513.264 550.208 510.608 547.963 507.615 546.249V543.008C505.834 541.482 504.333 539.656 503.182 537.612C502.227 535.398 501.525 532.888 498.768 532.01C498.602 531.958 498.889 531.058 498.062 530.569C496.055 530.404 494.034 530.553 492.072 531.009C491.377 531.357 490.613 531.542 489.836 531.55C489.059 531.559 488.291 531.391 487.589 531.058C486.021 530.356 484.168 530.276 483.322 528.625C480.518 528.756 477.671 527.956 475.769 530.632C471.609 529.351 468.332 526.367 463.493 524.794C460.74 525.415 458.12 523.149 454.768 521.643H447.176C446.609 520.703 445.786 519.942 444.804 519.451C443.822 518.959 442.722 518.756 441.629 518.865C438.987 518.32 436.319 517.91 433.635 517.635C432.873 517.712 432.105 517.566 431.425 517.213C430.745 516.86 430.183 516.317 429.807 515.649V514.132C425.414 512.325 420.329 512.153 417.03 508.573C415.754 508.789 415.327 510.313 414.132 509.458L412.426 505.687C408.588 506.198 406.082 503.231 402.958 502.364C402.181 499.66 400.517 497.294 398.234 495.648H394.898L390.025 491.349C389.651 490.232 390.2 489.319 389.344 488.689H387.271C386.627 488.019 385.938 487.302 385.247 486.587C384.111 485.147 382.683 483.963 381.057 483.115C379.43 482.267 377.642 481.773 375.811 481.666C374.526 481.666 374.255 480.065 372.952 479.62H369.288L366.286 476.621C364.951 476.86 363.575 476.683 362.343 476.113C361.112 475.544 360.084 474.609 359.401 473.436C357.807 471.379 355.962 469.627 354.309 467.574C352.2 468.465 351.478 466.416 350.092 465.618H345.161C344.601 462.485 340.916 461.692 340.511 458.868C336.939 458.679 335.948 455.601 333.439 453.971C335.011 451.534 332.713 449.644 332.893 447.178C330.965 445.282 329.259 443.175 327.806 440.896V434.004C325.99 433.226 326.043 431.484 325.594 429.963C323.282 422.125 320.687 419.214 322.895 412.473C322.163 408.211 324.512 404.257 323.9 400.402C325.17 398.653 327.259 397.947 326.815 395.209L324.031 392.423C323.925 391.151 323.724 389.888 323.43 388.646C322.473 387.213 321.954 385.532 321.938 383.808C322.286 381.768 320.674 380.232 320.854 378.23C321.046 376.087 320.904 373.915 320.896 371.755C320.888 369.844 319.631 368.237 319.675 366.223C319.694 365.357 318.268 364.464 316.9 364.818C317.566 360.6 318.253 356.384 318.889 352.161C319.176 350.253 321.774 349.396 321.137 347.097C322.474 346.093 321.679 344.651 321.928 343.296L325.811 339.596V336.295L327.86 334.816C327.607 332.912 327.829 330.975 328.502 329.176C329.175 327.377 330.28 325.771 331.721 324.501C333.612 322.975 333.984 320.424 335.472 318.52C336.542 317.152 337.69 315.814 338.773 314.423L338.262 313.752C338.672 311.332 339.873 309.115 341.677 307.45C343.1 305.787 344.304 303.948 345.26 301.979C346.731 299.126 348.632 296.517 350.898 294.244C352.566 290.559 354.926 287.229 357.85 284.433C357.513 279.888 363.044 280.64 363.79 277.248C364.175 275.391 364.991 273.65 366.171 272.164C367.351 270.679 368.863 269.49 370.585 268.695C371.3 267.801 370.387 266.504 371.605 265.585C373.215 264.396 374.637 262.97 375.821 261.356C376.815 260.037 377.986 258.863 379.301 257.865C380.354 257.004 381.709 256.248 381.948 254.481C382.114 254.009 382.381 253.578 382.73 253.219C383.08 252.86 383.503 252.58 383.97 252.401C385.968 251.316 387.737 249.854 389.178 248.096C391.238 246.196 392.986 244 395.061 242.087C397.092 240.214 399.992 239.471 401.103 236.959H403.15C404.599 234.421 406.36 232.073 408.391 229.971C409.905 230.169 411.445 229.878 412.781 229.138C414.118 228.398 415.183 227.249 415.82 225.86C416.642 224.296 418.036 223.109 419.713 222.548C421.192 222.096 422.568 221.358 423.763 220.377C424.926 219.149 426.898 219.109 427.617 217.604C428.328 216.112 430.794 216.618 430.841 214.519C430.845 214.335 431.291 214.055 431.568 214C438.482 212.624 442.335 205.907 448.927 204.069C450.25 203.699 449.22 201.569 450.991 201.992C452.651 202.389 453.138 200.387 454.216 200.221C455.262 199.907 456.263 199.458 457.193 198.884C461.214 197.275 465.102 195.354 468.823 193.138C471.378 191.339 474.376 190.274 477.493 190.057C478.597 190.06 479.25 189.288 480.028 188.912C483.875 186.845 488.069 185.502 492.401 184.947C493.941 184.523 495.414 183.885 496.777 183.052C499.9 183.213 503.016 182.618 505.861 181.319C506.62 181.047 507.433 180.956 508.233 181.053C511.246 181.057 514.229 180.452 517.001 179.274C517.443 179.093 517.918 179.014 518.394 179.042C523.985 179.741 529.424 177.762 534.962 178.102C536.87 178.219 538.201 176.879 540.051 176.952C541.812 177.394 543.676 177.122 545.238 176.195C546.076 175.547 547.829 175.87 549.117 176.074C550.395 176.123 551.655 175.756 552.707 175.028C554.113 174.55 554.877 176.166 556.24 176.061C558.04 175.88 559.854 175.888 561.652 176.086C562.972 176.264 563.629 175.192 564.697 175.028V178.965C567.451 179.13 570.214 179.135 572.968 178.976C576.186 179.005 579.392 179.356 582.54 180.023C585.559 180.392 588.734 179.137 591.635 180.979C592.109 181.28 592.94 181.048 593.604 181.016C595.841 180.803 598.082 181.388 599.931 182.665C602.051 184.154 604.962 184.172 607.335 186.034C610.244 185.869 613.138 186.563 615.656 188.028C618.496 189.582 621.739 190.241 624.96 189.921C626.809 192.171 630.427 191.346 632.132 194.009C634.927 193.596 637.369 195.778 639.811 195.005C643.007 196.808 646.329 198.377 649.752 199.698C650.186 199.881 650.651 199.98 651.123 199.991C653.019 200.064 654.902 200.35 656.734 200.845C659.542 201.465 662.387 201.908 665.251 202.169C669.386 202.811 673.443 203.883 677.355 205.367C678.087 205.604 678.785 206.119 679.581 205.976C684.386 205.648 689.205 206.38 693.696 208.12C697.932 209.208 702.322 209.748 706.401 211.164C708.447 211.874 710.65 211.265 712.363 212.372C714.273 213.606 716.229 212.547 718.336 213.158C718.692 215.354 721.606 214.198 722.567 215.983C722.684 216.267 722.794 216.794 722.919 216.798C726.056 217.01 729.071 218.099 731.619 219.941C733.512 221.37 735.823 222.135 738.194 222.117C740.246 224.715 743.675 225.064 746.163 227.008C748.062 228.629 750.21 229.931 752.525 230.865C755.555 232.005 758.493 233.374 761.314 234.961C764.325 235.327 767.378 234.837 770.123 233.547C770.815 234.415 771.523 235.903 772.032 235.839C774.524 235.522 775.921 237.821 778.199 238.027C780.575 238.243 781.471 241.659 784.321 241.26C789.651 244.745 795.362 247.623 800.673 251.088C803.776 252.775 806.485 255.101 808.625 257.91C810.188 260.058 812.296 261.749 814.731 262.81C817.403 264.037 818.545 266.428 820.284 268.351C820.438 268.536 820.553 268.751 820.62 268.983C820.686 269.215 820.704 269.457 820.672 269.696C820.64 269.935 820.558 270.164 820.433 270.37C820.307 270.575 820.14 270.753 819.942 270.891C819.13 271.089 818.682 270.264 818.204 270.218C816.214 270.028 815.54 267.436 813.129 267.839C811.05 268.187 809.966 265.248 807.629 265.515C807.322 265.55 806.815 264.605 806.433 264.961C804.807 266.475 803.354 264.52 801.726 264.847C799.909 265.063 798.075 265.086 796.253 264.919C795.121 265.083 793.966 265.003 792.867 264.686C789.699 263.009 786.389 264.416 783.194 263.928C781.241 265.822 778.639 264.177 776.667 265.032C774.546 265.778 772.294 266.081 770.051 265.922C768.554 265.95 767.043 265.796 765.563 265.958C763.499 265.9 761.494 266.65 759.974 268.048C758.459 269.686 756.372 270.678 754.145 270.819C752.719 270.834 751.329 271.27 750.15 272.071C748.97 272.873 748.054 274.005 747.515 275.326C747.221 275.891 746.766 276.355 746.207 276.661C745.648 276.967 745.01 277.1 744.376 277.043C742.022 280.325 739.426 283.427 736.611 286.322C736.386 289.328 735.145 292.168 733.093 294.376L736.591 297.212C736.552 298.431 736.813 299.641 737.349 300.736C737.886 301.831 738.682 302.778 739.67 303.494V308.35C744.308 312.875 748.018 318.264 750.587 324.214L749.57 325.377C751.569 326.99 752.2 329.759 754.423 331.238C754.175 333.212 757.251 333.663 756.539 335.85C755.745 335.869 754.964 335.645 754.299 335.211C751.66 333.616 749.659 330.761 745.946 330.843C745.128 329.586 744.06 328.51 742.808 327.684C741.556 326.858 740.148 326.3 738.67 326.042C732.92 325.037 728.038 321.635 722.291 320.835C721.03 320.659 720.786 318.654 719.116 318.85C716.441 319.164 714.711 317.366 712.852 315.832C709.059 315.821 705.313 314.982 701.878 313.371C698.882 312.555 695.822 310.708 692.821 310.123C689.579 309.492 686.658 307.418 683.204 307.88C681.742 306.003 679.33 306.718 677.459 306.134C675.388 305.295 673.185 304.822 670.952 304.736C669.09 304.805 667.199 303.086 665.285 303.006C662.999 302.911 660.89 302.069 658.707 301.997C657.289 301.95 656.486 300.809 655.126 300.86C650.52 300.66 645.944 300.015 641.461 298.935C639.742 298.67 638.34 297.559 636.375 297.808C632.339 298.318 628.419 296.21 624.31 296.892C623.258 295.379 621.864 297.507 621.214 296.819C619.921 295.449 618.457 295.932 617.059 295.919C610.731 295.861 604.4 295.769 598.076 295.929C591.863 295.625 585.636 295.899 579.475 296.75C575.669 297.181 571.83 297.231 568.015 296.898C567.039 296.765 566.046 296.823 565.092 297.069C561.562 298.615 557.693 299.232 553.857 298.861C550.577 298.605 547.58 300.571 544.271 299.923C544.08 299.886 543.795 300.522 543.553 300.522C540.309 301.026 537.128 301.873 534.063 303.05C530.792 303.262 527.592 304.102 524.638 305.525C522.765 306.669 520.557 307.142 518.38 306.865C515.635 308.406 512.765 309.712 509.801 310.769C508.178 311.97 506.434 312.998 504.597 313.834C501.445 314.825 499.063 317.248 495.921 318.231C494.726 318.605 495.155 320.285 494.106 320.868C490.116 322.117 486.668 324.683 484.324 328.144C481.741 330.886 480.342 334.806 477.828 337.869C476.686 339.26 475.062 340.689 475.709 343.005C475.821 343.409 475.103 344.042 474.772 344.571C472.721 347.859 471.747 351.662 469.658 354.922L471.008 356.915C468.872 357.865 470.582 360.285 469.455 361.475C468.11 362.894 469.418 364.613 468.201 366.028C466.888 367.555 467.886 369.344 468.715 370.792C468.884 371.53 468.296 371.709 468.005 372.078C466.844 373.552 469.509 375.211 467.778 376.652C468.903 380.742 469.235 385.01 468.754 389.225C468.855 390.363 468.579 391.557 469.776 392.305C469.188 394.766 471.681 396.172 471.823 398.467C472.005 400.297 472.59 402.064 473.537 403.641C474.484 405.218 475.768 406.566 477.298 407.588C477.956 408.079 478.528 408.677 478.991 409.355C479.908 410.395 480.688 411.549 481.311 412.788C482.289 412.633 483.289 412.858 484.106 413.419L486.911 411.244C486.117 409.899 485.679 408.375 485.634 406.814L481.677 403.216L482.086 402.982L477.742 393.714C477.624 392.079 477.834 390.436 478.361 388.883C476.448 387.408 479.397 385.574 478.005 384.06C479.585 382.852 477.194 382.065 477.678 380.759C478.112 379.588 477.433 378.018 477.832 376.819C478.64 373.18 478.976 369.453 478.831 365.729C478.806 363.693 479.336 361.69 480.363 359.933C481.84 357.544 482.748 354.849 483.017 352.054C484.266 351.269 485.232 350.107 485.775 348.735C486.593 346.049 487.942 343.554 489.741 341.398C491.389 339.854 492.804 338.08 493.945 336.131C495.388 333.884 497.248 331.932 499.423 330.382C501.872 328.932 504.227 327.331 506.474 325.585C509.109 322.977 513.035 322.516 515.609 319.867C519.824 319.337 523.326 316.726 527.431 315.824C528.888 315.613 530.231 314.914 531.239 313.84C536.029 314.455 540.31 310.945 545.163 311.941C546.13 310.828 547.483 310.122 548.948 309.964C551.846 310.109 554.746 309.743 557.517 308.879C564.903 309.231 572.164 307.418 579.589 307.794C587.23 308.181 594.906 307.807 602.564 307.919C605.302 307.429 608.124 307.734 610.694 308.798C611.149 308.987 611.642 309.065 612.133 309.025C612.624 308.984 613.098 308.825 613.515 308.563C615.74 307.578 618.258 307.479 620.554 308.287C623.095 309.082 625.722 309.571 628.38 309.745C631.711 309.568 634.689 311.343 637.965 310.876C641.67 312.61 645.779 313.297 649.847 312.862C651.512 314.242 653.63 314.955 655.79 314.861C658.023 314.615 660.276 315.083 662.226 316.197C663.996 317.138 665.862 317.887 667.791 318.431C670.491 319.652 673.353 320.471 676.29 320.864C678.639 320.988 680.937 321.604 683.033 322.672C686.305 324.095 689.697 325.223 693.17 326.042C695.032 326.185 696.86 326.628 698.582 327.352C702.634 329.244 706.944 330.524 711.372 331.15L715.004 334.781C716.521 335.056 718.28 334.362 719.434 336.162C720.526 337.864 722.802 336.093 724.32 337.745C725.005 338.305 725.811 338.697 726.674 338.89C727.538 339.084 728.434 339.074 729.293 338.86C729.609 338.859 729.923 338.908 730.223 339.006L733.059 341.842C733.714 341.842 734.534 341.588 735.018 341.883C738.008 343.589 740.881 345.491 743.62 347.577C744.528 348.442 745.629 349.081 746.831 349.441C748.738 349.832 750.447 350.881 751.66 352.405C752.208 352.745 752.805 353.003 753.43 353.169C753.927 355.336 755.146 357.268 756.887 358.651C759.517 360.677 760.802 363.824 763.192 366.067C763.977 366.832 764.428 367.876 764.448 368.972C764.602 371.186 765.028 373.374 765.715 375.485L768.36 378.137C768.789 379.788 767.192 379.877 767.525 380.874C767.425 381.798 768.864 381.962 768.54 382.93C768.48 383.807 767.195 384.047 767.545 385.083C768.51 386.296 769.182 387.715 769.508 389.231C769.67 390.369 768.777 391.487 768.712 392.324C768.078 394.545 768.262 396.92 769.229 399.017C769.901 400.017 769.492 401.229 769.436 402.867L767.43 404.217V412.292C766.701 413.508 765.443 413.568 764.565 414.226C763.239 419.317 760.409 423.891 756.446 427.351C755.692 427.968 755.062 428.722 754.589 429.574C754.241 430.643 753.537 431.559 752.596 432.174C751.655 432.788 750.532 433.063 749.414 432.952C748.88 434.479 747.946 435.836 746.711 436.881C745.476 437.926 743.984 438.622 742.39 438.895C739.899 439.412 737.663 440.772 736.059 442.746H732.042C730.68 444.33 728.823 445.405 726.772 445.798C722.808 446.568 718.905 447.627 715.093 448.962C710.099 450.432 704.973 451.415 699.79 451.898C695.943 452.398 692.07 452.668 688.192 452.706C687.505 452.71 686.932 453.224 686.448 453.273C684.248 453.494 682.078 455.483 680.133 454.498C678.8 453.97 677.376 453.707 675.943 453.725C673.057 453.717 670.179 454.018 667.358 454.624C663.641 454.967 659.893 454.692 656.267 453.808C652.096 452.778 647.983 455.179 643.71 454.751C641.732 454.552 639.718 454.717 637.719 454.717C635.554 454.717 633.375 454.87 631.229 454.673C629.22 454.489 627.647 456.283 625.646 455.705C623.44 455.068 621.59 456.416 619.575 456.78C615.561 457.324 611.622 458.322 607.834 459.755C605.693 460.673 603.082 461.082 602.1 463.689C601.295 463.878 600.393 463.322 599.705 464.161V466.164L594.775 470.865C595.042 473.451 591.985 475.769 594.986 478.473L592.611 480.115C592.666 483.517 592.006 486.892 590.675 490.023C591.259 490.482 591.666 491.13 591.826 491.855C591.985 492.581 591.887 493.34 591.549 494.001C590.21 495.741 590.814 497.462 590.705 499.181C590.579 501.169 590.676 503.172 590.676 505.747L588.742 507.003V512.815L590.551 513.894V524.322L588.687 526.107V528.525C589.704 531.121 591.451 533.367 593.717 534.991C597.061 532.927 601.501 533.715 603.67 529.87C603.213 526.562 605.38 523.561 604.664 520.26C606.665 518.826 604.872 516.432 606.01 514.829C607.623 511.412 608.49 507.69 608.554 503.912C608.612 501.842 609.332 499.844 610.605 498.21C610.887 495.55 609.981 492.7 611.802 490.366L610.723 489.184C612.563 485.467 613.242 481.282 612.674 477.174L614.77 475.079V471.913C616.819 471.078 618.911 470.356 621.038 469.748C623.556 469.163 626.196 470.298 628.789 469.138C631.203 468.413 633.698 467.991 636.217 467.881C640.156 467.15 644.197 467.156 648.134 467.9C650.827 468.67 653.69 468.604 656.343 467.71C656.507 467.68 656.675 467.677 656.84 467.703C661.336 467.703 665.854 467.422 670.322 467.781C674.952 468.152 679.345 466.388 683.901 466.728C690.644 467.233 697.231 465.007 703.973 465.701C704.303 465.734 704.813 465.846 704.945 465.683C706.879 463.285 710.243 466.147 712.137 463.707C714.697 463.731 717.247 463.422 719.727 462.788C722.688 462.326 725.542 461.332 728.15 459.856C732.974 459.608 737.682 458.289 741.933 455.995C744.285 454.371 747.109 453.571 749.963 453.718C753.216 450.697 756.853 448.119 760.781 446.05C764.945 444.001 768.463 440.843 770.947 436.922C771.532 435.86 772.269 434.243 773.057 433.905C775.961 432.66 777.264 429.871 779.777 428.132C778.15 425.456 782.917 425.014 781.197 422.241L784.757 419.386C785.541 415.779 786.815 412.295 788.543 409.033C787.773 405.675 789.721 402.356 789.61 398.734C789.403 395.265 788.696 391.845 787.512 388.578C788.254 387.693 788.805 386.663 789.129 385.554C789.453 384.445 789.544 383.282 789.395 382.136C787.753 381.307 787.439 379.29 786.457 377.601L787.528 376.053C787.406 374.819 786.608 373.813 786.352 372.527C786.123 370.205 785.512 367.937 784.544 365.814C782.916 361.638 780.906 357.619 778.541 353.811C778.377 353.616 778.52 353.164 778.52 352.831C781.513 355.321 784.378 357.96 787.106 360.737C787.705 360.081 788.25 359.427 789.379 360.124V363.122C794.096 368.361 799.428 373.01 805.261 376.968C805.951 378.28 804.788 379.778 806.064 380.818H810.013C811.487 382.447 813.535 383.441 815.727 383.592C817.919 383.744 820.084 383.041 821.768 381.631L822.889 382.655L826.646 380.705C828.102 382.854 830.788 380.718 832.144 382.847L832.917 380.602C835.775 381.77 837.749 378.949 840.502 379.104C841.195 379.143 842.797 379.439 843.571 378.23C843.961 377.731 844.403 377.278 844.892 376.876C846.338 376.588 847.953 377.405 849 375.828C849.265 376.25 849.663 376.573 850.131 376.744C850.6 376.916 851.112 376.927 851.588 376.776C852.921 376.368 852.042 375.339 852.822 374.974C854.234 374.905 855.601 374.457 856.78 373.677C857.96 372.897 858.906 371.813 859.522 370.541C860.498 368.381 863.197 367.357 863.902 364.862C867.505 363.797 868.858 360.441 870.865 357.829C873.695 353.669 875.281 348.789 875.438 343.76C875.441 342.144 875.439 340.528 875.439 339.199C877.646 338.171 878.746 339.904 880.214 340.127C880.82 342.574 880.956 345.175 884.061 346.058C884.9 346.297 885.518 347.377 886.184 348.12C886.367 348.325 886.354 348.707 886.435 349.025C886.17 350.321 884.213 350.563 884.393 351.927C884.388 354.315 886.717 355.616 886.429 357.839C886.376 358.995 886.582 360.148 887.031 361.214C887.48 362.281 888.162 363.234 889.025 364.004C889.326 370.058 889.126 376.128 888.427 382.15C888.488 382.82 888.005 383.376 887.9 383.912C887.268 385.807 887.07 387.82 887.321 389.801C887.573 391.782 888.266 393.681 889.351 395.358L886.708 398C886.421 404.24 886.657 410.492 887.414 416.692L884.442 419.082C884.392 420.833 884.744 422.289 883.571 423.423C884.796 424.007 884.156 425.713 885.296 426.175C886.184 429.039 884.209 431.497 884.287 434.27C884.303 434.844 882.829 435.46 882.387 435.796C882.056 438.746 882.413 441.733 883.432 444.521C881.596 447.309 882.921 450.544 882.134 453.966L878.349 457.39C878.544 458.417 878.529 459.473 878.304 460.493C878.079 461.514 877.65 462.478 877.042 463.328C875.954 465.441 877.518 468.001 875.461 469.698C875.297 469.833 875.51 470.358 875.427 470.669C874.971 472.379 877.183 473.492 876.437 475.25C875.692 476.768 875.044 478.332 874.497 479.932C874.329 481.062 874.31 482.21 874.44 483.346C873.199 485.759 870.505 487.122 870.228 490.21C869.938 491.629 869.129 492.889 867.958 493.743C866.294 495.102 864.706 496.553 863.201 498.087C862.358 499.925 864.619 500.58 864.448 501.953C862.762 504.383 861.032 506.861 859.208 509.188C857.417 511.475 853.979 512.327 853.128 515.412C848.542 518.065 843.687 520.221 838.643 521.843C837.569 524.14 834.58 524.712 832.622 526.754H828.677C826.647 530.394 822.671 530.843 819.395 532.018C814.903 533.154 810.524 534.697 806.312 536.626C804.085 536.532 801.906 537.291 800.22 538.75C798.193 539.91 795.941 539.488 793.964 540.593C788.117 544.052 782.059 547.138 775.823 549.834C774.947 550.161 774.136 550.642 773.428 551.254C771.972 552.444 770.266 553.29 768.437 553.729C766.659 554.08 765.003 554.885 763.627 556.066C762.252 557.246 761.205 558.761 760.588 560.465C760.337 561.232 759.857 561.903 759.212 562.388C756.581 564.58 754.348 567.211 752.612 570.162C750.918 573.368 747.886 575.314 746.002 578.367C744.475 580.686 742.381 582.578 739.92 583.865C735.678 586.436 732.237 590.139 729.982 594.557C729.688 595.353 729.53 596.192 729.516 597.041L726.522 600.179C726.529 603.214 729.657 604.277 729.584 606.223C727.425 612.369 726.03 618.757 725.432 625.244C723.87 626.305 723.195 628.317 721.778 629.442C719.471 631.566 716.803 633.262 713.9 634.448C712.936 634.792 712.105 635.43 711.523 636.271C710.941 637.112 710.638 638.114 710.655 639.137C710.175 641.425 710.198 643.791 710.723 646.069C711.369 648.123 711.634 650.291 712.382 652.349C712.8 653.606 713.468 654.765 714.346 655.757C715.46 658.475 712.684 660.497 713.759 663.129C714.678 663.729 715.124 665.206 716.571 665.482C716.684 666.848 715.39 666.224 714.689 666.848V672.678C711.919 676.377 711.452 681.054 707.69 683.741V686.534C706.708 688.347 704.578 689.152 704.272 691.262C699.615 696.256 693.645 699.838 687.047 701.595C683.646 702.347 680.291 703.734 676.87 704.696C676.438 704.817 676.044 705.444 675.687 705.399C671.909 704.929 668.418 707.064 664.598 706.506C663.814 706.243 662.977 706.183 662.164 706.332C661.351 706.48 660.588 706.832 659.948 707.356C659.512 707.589 659.023 707.706 658.529 707.695C658.034 707.685 657.551 707.548 657.125 707.297C656.424 706.709 655.572 706.33 654.666 706.201C653.761 706.073 652.837 706.2 652 706.57C648.199 707.501 644.269 707.781 640.374 707.399C636.553 707.57 632.718 707.431 628.889 707.44C627.761 707.443 626.516 707.123 626.182 708.325C624.689 708.764 624.486 707.169 623.214 707.378C619.394 708.004 615.407 706.481 611.614 708.365C611.087 708.62 610.509 708.75 609.924 708.745C609.339 708.74 608.763 708.6 608.24 708.336C606.577 706.831 604.785 707.558 603.071 707.471C599.181 707.104 595.398 705.992 591.928 704.195C590.827 702.219 592.697 700.274 591.8 698.086C590.995 696.12 592.295 693.557 590.671 691.553C590.732 690.443 591.788 689.781 591.739 688.476C591.57 683.989 591.695 679.491 591.657 674.997C591.76 674.036 591.556 673.067 591.075 672.229C590.619 671.445 590.364 670.562 590.33 669.657C590.296 668.751 590.484 667.85 590.88 667.035C591.951 665.213 591.407 663.59 591.667 661.979L589.642 659.955C590.009 657.603 588.892 654.934 590.675 652.599C590.123 649.094 591.621 645.481 589.792 641.969C589.441 641.216 589.361 640.365 589.567 639.56C589.774 638.756 590.254 638.048 590.925 637.557L589.7 635.898C589.248 634.709 590.867 634.417 590.704 633.277C590.39 631.081 590.393 628.895 589.918 626.654C589.423 625.257 589.225 623.773 589.335 622.295C589.446 620.817 589.863 619.378 590.56 618.07C591.144 617.206 590.572 615.51 589.871 613.978C589.81 611.069 593.032 609.084 590.855 606.229C592.051 605.353 591.427 603.916 591.914 602.799C595.824 602.219 599.787 601.838 603.653 601.006C608.436 599.697 612.661 596.865 615.69 592.938C614.947 591.268 616.763 590.323 616.71 588.8C616.436 587.355 616.582 585.862 617.13 584.497C617.676 583.484 616.093 582.39 616.654 581.141C614.278 579.605 614.397 576.74 613.249 574.553C611.945 572.505 610.372 570.64 608.57 569.012C607.668 568.03 605.902 569.218 605.046 567.66C604.93 567.45 603.693 567.104 603.013 566.509C599.452 567.386 596.129 564.925 592.509 565.594C586.345 565.985 580.234 566.985 574.267 568.58C571.844 569.107 569.565 570.157 567.59 571.656C565.615 573.155 563.99 575.068 562.83 577.259C562.653 592.545 561.344 589.208 565.859 597.225C566.559 597.903 567.44 597.371 567.88 597.489C569.684 598.27 569.516 600.133 570.959 601.391C574.315 600.737 576.792 604.444 580.777 603.404C581.048 606.936 580.703 610.487 579.757 613.9C579.487 614.427 579.427 615.036 579.587 615.605C579.747 616.175 580.115 616.664 580.62 616.974C580.202 617.351 579.895 617.833 579.73 618.371C579.565 618.91 579.549 619.483 579.683 620.029C579.881 622.126 578.747 624.256 578.969 626.055C579.22 628.086 578.136 629.314 577.883 630.918C577.663 633.221 577.595 635.536 577.681 637.848C577.656 638.964 578.006 640.205 576.713 640.968L577.85 642.218L575.679 643.917C577.212 647.943 577.316 652.374 575.974 656.467C575.493 657.827 577.573 658.888 575.78 660.137C575.274 660.488 576.612 662.271 575.797 663.732C575.23 664.747 575.676 666.333 575.692 667.665C575.699 668.298 575.563 668.938 576.147 669.487C576.417 669.863 576.6 670.293 576.683 670.748C577.322 672.628 575.686 674.007 575.561 675.817C575.428 677.75 577.339 679.037 576.661 680.895C576.505 681.321 576.023 681.629 575.571 682.123C576.221 684.043 577.94 686.097 575.666 688.085C575.712 689.431 577.304 690.242 576.695 691.736C575.206 695.649 575.261 699.982 576.848 703.856C572.036 704.75 567.094 704.66 562.318 703.594C561.347 703.432 560.361 703.383 559.379 703.447C554.551 703.435 549.722 703.48 544.895 703.423C542.808 703.678 540.691 703.372 538.762 702.538C537.179 701.661 534.812 703.364 533.232 701.453C528.188 701.27 523.332 699.501 519.353 696.396C518.486 695.912 517.8 695.264 516.738 695.45V692.041C514.194 686.179 509.093 683.87 505.718 679.857V674.923C504.621 674.211 504.185 672.741 502.749 672.475C502.808 671.555 503.156 670.678 503.742 669.966C502.325 669.115 502.828 667.715 502.749 666.482C503.559 666.317 503.713 667.227 504.821 667.578C506.864 661.868 512.391 659.492 516.755 656.036C517.001 653.19 514.846 651.348 514.398 648.828C513.664 646.627 513.086 644.376 512.67 642.093C512.558 639.637 509.99 637.748 510.836 635.052C509.627 634.266 509.185 632.791 507.742 632.519ZM744.637 391.545C741.155 393.077 742.532 397.549 739.427 399.35C740.385 402.469 737.739 405.226 738.679 408.397L740.031 409.748C742.186 407.658 745.626 407.702 747.556 405.201V402.091C750.75 400.13 753.6 397.656 755.989 394.768C752.639 391.842 749.687 388.489 747.209 384.795C746.289 384.936 745.439 384.487 744.636 385.188L744.637 391.545ZM487.436 491.974C485.6 488.779 486.632 485.531 484.761 484.082C482.875 483.333 482.751 484.851 481.369 484.599C478.021 482.742 474.143 482.072 470.366 482.7L467.79 485.141V487.522C470.758 488.239 473.609 489.378 476.253 490.904C479.955 491.49 483.69 491.847 487.436 491.974V491.974Z" fill="#F7DB85"/>
<path d="M946.379 175.028C944.036 175.935 941.865 177.237 939.96 178.876C939.469 179.243 938.888 179.472 938.278 179.541C934.107 180.741 930.145 182.572 926.529 184.972C923.027 186.573 919.392 187.864 915.665 188.833C913.449 189.622 911.522 190.929 909.399 191.81C908.169 192.321 906.813 192.799 905.549 193.363C902.53 194.508 899.581 195.827 896.715 197.314C892.462 199.487 888.075 201.385 883.58 202.997C881.343 202.07 880.703 204.634 878.955 205.129C874.467 206.657 869.714 207.251 864.989 206.875C863.269 206.208 863.768 204.167 862.243 203.404L864.852 198.14C866.843 197.544 868.79 196.809 870.677 195.939C872.152 195.351 873.5 194.481 874.643 193.379C876.512 191.202 878.984 189.628 881.748 188.856C883.368 188.374 884.783 186.761 886.535 185.996C890.283 184.597 893.911 182.898 897.386 180.915C900.8 178.705 905.191 178.319 907.951 175.028C910.849 174.483 913.674 173.604 916.368 172.407C920.908 170.955 925.349 169.212 929.665 167.189C930.567 166.801 932.166 167.958 932.391 166.039C932.67 165.408 933.145 164.883 933.745 164.543C934.345 164.204 935.039 164.066 935.723 164.152C939.743 164.767 942.935 161.614 946.829 162.043C948.047 160.347 949.838 161.133 951.383 161.077C954.358 160.967 957.344 161.132 960.318 161.008C961.858 160.944 963.426 161.524 964.958 160.142C965.911 159.282 967.874 160.357 969.598 162.142C966.212 165.017 962.356 167.285 958.199 168.85C954.499 171.338 950.534 173.41 946.379 175.028V175.028Z" fill="#212222"/>
<path d="M1054.29 413.764C1052.76 411.835 1050.85 412.536 1049.27 413.39C1047.61 414.293 1046.59 413.298 1045.33 412.73C1044.29 413.475 1043.03 413.855 1041.75 413.812C1039.43 413.63 1037.09 413.823 1034.76 413.746C1032.49 413.672 1030.56 415.44 1028.17 414.824C1027.75 414.717 1027.13 415.427 1026.3 415.949C1024.52 413.494 1021.67 415.172 1019.2 414.37C1017.29 413.75 1014.8 415.876 1012.77 413.762C1011.42 413.51 1010.71 414.991 1009.18 414.88C1007.3 414.675 1005.43 414.305 1003.61 413.776C1001.79 413.324 1000.44 414.971 998.527 414.856C997.283 414.692 996.084 414.277 995.004 413.637C993.925 412.996 992.986 412.143 992.246 411.129C992.707 409.731 993.885 408.773 993.378 407.471C995.053 403.954 999.256 404.437 1002.11 401.807C1006.61 401.69 1011.1 401.315 1015.56 400.682C1017.54 400.772 1019.47 399.325 1021.64 399.768C1023.02 400.049 1024.62 399.176 1025.79 400.678C1026 400.807 1026.23 400.881 1026.48 400.892C1026.72 400.904 1026.97 400.853 1027.19 400.743C1029.77 398.597 1033.35 401.026 1036.03 398.771C1037.29 399.419 1038.67 399.8 1040.09 399.888C1041.5 399.976 1042.92 399.77 1044.25 399.284C1045.2 398.814 1046.27 398.621 1047.33 398.729C1048.4 398.837 1049.4 399.241 1050.25 399.894C1051.84 398.754 1053.56 397.947 1055.11 399.928C1055.93 399.2 1056.95 398.725 1058.04 398.558C1059.13 398.392 1060.24 398.541 1061.25 398.988C1062.87 399.86 1064.23 398.91 1065.71 399.541C1067.31 399.944 1068.98 400.02 1070.61 399.763C1073.29 399.845 1075.93 400.431 1078.39 401.491C1079.34 401.668 1080.3 401.764 1081.27 401.777C1084.55 402.955 1086.84 405.791 1090.5 407.258C1088.77 408 1086.69 407.629 1086.15 409.522C1081.86 409.965 1077.6 410.679 1073.41 411.658C1070.94 412.038 1068.42 412.067 1065.95 411.744C1064.83 411.586 1063.7 411.687 1062.63 412.037C1061.56 412.388 1060.59 412.979 1059.78 413.766C1057.95 413.763 1056.12 413.763 1054.29 413.764Z" fill="#212222"/>
<path d="M731.557 101.111C730.005 101.779 730.042 103.79 728.604 104.574C727.093 105.399 726.673 107.077 725.817 108.394C724.606 110.749 723.189 112.992 721.584 115.098C721.092 115.697 720.752 116.407 720.59 117.166C720.429 117.924 720.452 118.71 720.657 119.458C718.403 121.958 715.8 123.805 715.405 127.499C715.232 129.114 713.299 130.572 712.086 132.035C711.348 132.925 710.44 133.671 709.642 134.513C702.959 141.567 703.238 139.974 696.075 140.023C694.565 139.338 694.768 137.46 693.588 136.563C693.588 134.905 693.589 133.248 693.588 131.59C695.63 129.615 697.122 127.143 697.917 124.417C698.155 123.63 698.259 121.751 700.196 121.906C700.619 121.94 701.375 121.114 701.541 120.554C703.341 116.633 705.378 112.826 707.641 109.153C708.175 107.919 708.454 106.451 710.229 105.681C711.156 105.279 711.231 102.936 711.712 101.476C712.164 100.105 714.29 100.554 714.497 99.2556C714.731 97.7785 716.532 97.5649 716.569 96.116V94.6169C717.812 93.8085 719.814 93.6807 719.553 91.481C719.432 90.4652 720.283 90.116 720.699 89.4583C721.51 88.1769 723.298 88.2156 723.969 86.4236C724.552 84.8697 726.401 83.7906 727.69 82.5015L731.207 78.9858C732.379 77.814 733.602 76.6876 734.711 75.4592C736.533 73.8029 738.498 72.3112 740.582 71C742.195 71.7416 741.59 72.9534 741.473 73.7478C741.072 74.9468 741.07 76.2434 741.466 77.4441C741.604 77.9046 741.64 78.3887 741.574 78.865C741.508 79.3412 741.34 79.7985 741.082 80.2041C739.727 82.7686 739.027 85.7221 737.447 88.1118C736.245 89.9299 737.074 92.0717 735.541 93.8674C734.126 95.324 732.979 97.0201 732.156 98.8772C731.818 99.5771 731.614 100.335 731.557 101.111V101.111Z" fill="#212222"/>
<path d="M469.774 105.107C469.796 105.437 469.794 105.768 469.767 106.098C469.522 107.7 472.536 106.668 471.81 108.641C473.126 108.954 472.18 111.441 474.177 111.099C474.86 112.448 475.367 113.878 475.688 115.355C475.851 117.09 477.366 117.979 477.649 119.515V127.685C476.716 128.683 475.538 129.421 474.232 129.824C472.926 130.227 471.538 130.282 470.205 129.984C467.76 128.084 465.86 125.573 464.697 122.703C464.432 121.731 463.2 121.009 462.384 120.201C460.845 119.038 459.659 117.472 458.955 115.677C458.886 115.126 458.674 114.604 458.34 114.161C458.005 113.718 457.561 113.37 457.05 113.153C455.68 112.691 455.263 111.799 454.61 110.623C453.927 109.393 452.886 107.664 450.791 108.104C449.997 105.291 447.424 103.655 446.084 101.175C445.904 100.842 445.087 100.634 444.721 99.7724C443.276 96.2888 440.957 93.2367 437.988 90.9113C437.391 89.1585 438.288 87.5396 437.215 85.9712C436.099 84.3317 435.322 82.4859 434.931 80.5415C434.54 78.5971 434.542 76.5939 434.937 74.6504L436.77 71.5669C438.028 70.8284 439.194 71.2709 440.305 71.1518C440.989 72.9763 442.23 74.54 443.851 75.622C445.278 76.9071 446.411 78.4838 447.174 80.2461C447.617 81.1451 448.237 81.9452 448.997 82.5984C449.758 83.2515 450.643 83.7447 451.599 84.0473C452.333 84.4417 453.031 84.8992 453.686 85.4145L453.868 88.7055L466.646 101.48L466.875 103.707L469.774 105.107Z" fill="#222222"/>
<path d="M756.536 335.849C757.559 336.152 758.52 336.632 759.375 337.269C763.564 341.111 768.061 344.603 772.822 347.709C774.184 348.581 775.209 349.892 775.726 351.425C775.914 351.979 776.312 352.437 776.834 352.7C777.356 352.962 777.962 353.009 778.519 352.83C778.519 353.163 778.375 353.616 778.539 353.812C780.904 357.62 782.914 361.637 784.543 365.814C785.511 367.936 786.122 370.204 786.351 372.526C786.606 373.812 787.406 374.819 787.527 376.053L786.456 377.602C787.437 379.29 787.751 381.306 789.394 382.136C789.542 383.281 789.452 384.445 789.128 385.554C788.803 386.662 788.253 387.692 787.51 388.577C788.694 391.844 789.401 395.265 789.609 398.733C789.719 402.356 787.771 405.675 788.542 409.033C786.814 412.295 785.541 415.778 784.756 419.385L781.196 422.241C782.916 425.013 778.149 425.456 779.776 428.132C777.263 429.87 775.96 432.66 773.056 433.904C772.267 434.243 771.53 435.859 770.945 436.922C768.462 440.842 764.944 444.001 760.779 446.049C756.851 448.118 753.215 450.697 749.961 453.718C747.107 453.571 744.284 454.371 741.932 455.994C737.681 458.288 732.973 459.607 728.149 459.855C725.541 461.332 722.687 462.325 719.726 462.787C717.246 463.422 714.695 463.732 712.136 463.708C710.242 466.148 706.878 463.286 704.943 465.684C704.812 465.847 704.301 465.735 703.971 465.701C697.23 465.008 690.642 467.232 683.899 466.728C679.344 466.387 674.951 468.152 670.32 467.78C665.853 467.422 661.335 467.703 656.839 467.703C656.674 467.678 656.506 467.68 656.342 467.711C653.688 468.604 650.825 468.67 648.133 467.9C644.196 467.155 640.155 467.149 636.215 467.88C633.697 467.991 631.201 468.413 628.787 469.138C626.194 470.298 623.555 469.162 621.037 469.748C618.91 470.356 616.817 471.078 614.769 471.912V475.08L612.673 477.175C613.24 481.283 612.561 485.467 610.722 489.184L611.801 490.366C609.98 492.7 610.885 495.55 610.604 498.211C609.33 499.845 608.611 501.842 608.553 503.913C608.489 507.691 607.622 511.411 606.009 514.828C604.87 516.431 606.664 518.827 604.662 520.261C605.379 523.562 603.211 526.561 603.669 529.87C601.5 533.714 597.059 532.927 593.715 534.992C591.449 533.367 589.703 531.121 588.686 528.525V526.108L590.55 524.322V513.893L588.741 512.814V507.002L590.674 505.746C590.674 503.171 590.577 501.169 590.704 499.18C590.813 497.462 590.209 495.74 591.547 494.001C591.885 493.339 591.984 492.58 591.824 491.855C591.665 491.129 591.258 490.481 590.673 490.023C592.005 486.892 592.664 483.516 592.609 480.114L594.985 478.472C591.983 475.768 595.041 473.451 594.773 470.866L599.704 466.164V464.162C600.391 463.322 601.293 463.877 602.099 463.688C603.08 461.081 605.692 460.672 607.833 459.754C611.621 458.321 615.56 457.324 619.573 456.78C621.589 456.417 623.439 455.067 625.645 455.705C627.646 456.283 629.218 454.488 631.227 454.672C633.374 454.869 635.553 454.716 637.718 454.716C639.716 454.716 641.731 454.552 643.709 454.75C647.981 455.179 652.095 452.779 656.265 453.809C659.892 454.692 663.64 454.968 667.356 454.625C670.178 454.019 673.056 453.717 675.942 453.725C677.375 453.707 678.799 453.969 680.131 454.498C682.076 455.482 684.247 453.494 686.447 453.272C686.93 453.223 687.503 452.71 688.19 452.706C692.069 452.667 695.941 452.398 699.788 451.899C704.972 451.415 710.097 450.431 715.092 448.962C718.903 447.626 722.806 446.569 726.771 445.799C728.821 445.406 730.679 444.329 732.04 442.746H736.058C737.662 440.772 739.898 439.411 742.388 438.895C743.983 438.621 745.474 437.927 746.709 436.882C747.945 435.837 748.878 434.48 749.412 432.952C750.531 433.063 751.653 432.789 752.594 432.175C753.536 431.56 754.239 430.642 754.588 429.573C755.061 428.721 755.69 427.967 756.445 427.35C760.407 423.89 763.237 419.317 764.563 414.227C765.441 413.569 766.7 413.508 767.428 412.293V404.217L769.434 402.867C769.491 401.228 769.9 400.018 769.228 399.018C768.261 396.92 768.077 394.545 768.71 392.324C768.775 391.487 769.669 390.368 769.506 389.23C769.181 387.715 768.509 386.295 767.543 385.082C767.194 384.046 768.478 383.808 768.538 382.93C768.862 381.962 767.423 381.797 767.524 380.873C767.191 379.877 768.788 379.789 768.359 378.138L765.713 375.484C765.027 373.373 764.601 371.186 764.446 368.972C764.427 367.875 763.976 366.831 763.19 366.066C760.801 363.823 759.515 360.677 756.885 358.652C755.145 357.269 753.926 355.335 753.428 353.168C752.804 353.002 752.207 352.745 751.658 352.404C750.446 350.881 748.737 349.831 746.829 349.44C745.627 349.08 744.527 348.441 743.619 347.576C740.88 345.49 738.007 343.589 735.016 341.884C734.533 341.588 733.712 341.841 733.057 341.841L730.221 339.007C729.921 338.909 729.607 338.858 729.291 338.859C728.433 339.073 727.536 339.084 726.673 338.891C725.809 338.697 725.003 338.305 724.318 337.745C722.801 336.092 720.525 337.863 719.433 336.161C718.278 334.361 716.521 335.056 715.004 334.782L711.37 331.149C706.942 330.523 702.633 329.244 698.581 327.353C696.859 326.628 695.031 326.186 693.168 326.043C689.695 325.223 686.304 324.095 683.032 322.671C680.935 321.604 678.638 320.989 676.288 320.865C673.352 320.472 670.489 319.651 667.79 318.431C665.861 317.886 663.995 317.137 662.225 316.197C660.275 315.082 658.022 314.614 655.789 314.86C653.629 314.954 651.51 314.242 649.845 312.862C645.778 313.297 641.669 312.611 637.963 310.877C634.687 311.344 631.71 309.568 628.378 309.744C625.721 309.571 623.094 309.082 620.552 308.288C618.257 307.48 615.739 307.578 613.514 308.563C613.096 308.825 612.623 308.983 612.132 309.024C611.641 309.065 611.147 308.987 610.693 308.797C608.123 307.733 605.301 307.429 602.563 307.919C594.904 307.808 587.229 308.18 579.588 307.794C572.162 307.418 564.903 309.23 557.516 308.879C554.746 309.742 551.845 310.11 548.947 309.965C547.481 310.122 546.128 310.828 545.162 311.941C540.309 310.946 536.027 314.454 531.237 313.84C530.229 314.913 528.887 315.612 527.43 315.823C523.325 316.725 519.822 319.336 515.607 319.866C513.034 322.516 509.108 322.976 506.473 325.584C504.226 327.33 501.87 328.933 499.422 330.383C497.246 331.933 495.387 333.884 493.943 336.132C492.803 338.081 491.387 339.854 489.739 341.398C487.941 343.554 486.592 346.049 485.773 348.735C485.23 350.106 484.265 351.269 483.016 352.054C482.746 354.849 481.838 357.545 480.362 359.933C479.335 361.691 478.805 363.694 478.83 365.729C478.974 369.454 478.638 373.181 477.83 376.819C477.432 378.019 478.11 379.589 477.676 380.76C477.192 382.066 479.583 382.851 478.003 384.059C479.396 385.573 476.447 387.407 478.36 388.882C477.833 390.435 477.622 392.078 477.741 393.714L482.084 402.982L481.675 403.216L485.633 406.813C485.677 408.374 486.116 409.898 486.91 411.243L484.105 413.42C483.288 412.859 482.288 412.632 481.309 412.787C480.687 411.549 479.907 410.395 478.99 409.355C478.527 408.676 477.955 408.08 477.297 407.588C475.767 406.567 474.482 405.219 473.536 403.642C472.589 402.065 472.004 400.297 471.822 398.466C471.679 396.172 469.186 394.766 469.775 392.304C468.577 391.557 468.854 390.362 468.753 389.224C469.234 385.009 468.902 380.741 467.776 376.651C469.508 375.21 466.843 373.551 468.003 372.077C468.293 371.708 468.882 371.53 468.714 370.792C467.885 369.343 466.887 367.554 468.2 366.027C469.416 364.612 468.109 362.893 469.454 361.474C470.581 360.284 468.871 357.864 471.006 356.915L469.656 354.921C471.745 351.662 472.72 347.86 474.771 344.572C475.101 344.042 475.82 343.408 475.707 343.005C475.061 340.689 476.684 339.261 477.826 337.869C480.34 334.807 481.739 330.885 484.323 328.144C486.667 324.682 490.115 322.117 494.105 320.867C495.153 320.284 494.724 318.605 495.92 318.232C499.061 317.249 501.444 314.825 504.595 313.834C506.433 312.997 508.177 311.97 509.799 310.768C512.764 309.711 515.634 308.406 518.378 306.865C520.556 307.142 522.763 306.67 524.637 305.525C527.59 304.103 530.79 303.261 534.062 303.05C537.126 301.873 540.308 301.025 543.552 300.522C543.793 300.522 544.078 299.885 544.269 299.922C547.578 300.57 550.575 298.605 553.855 298.86C557.692 299.232 561.56 298.614 565.091 297.068C566.045 296.823 567.037 296.764 568.013 296.898C571.829 297.23 575.668 297.182 579.473 296.751C585.635 295.9 591.862 295.624 598.074 295.928C604.398 295.768 610.73 295.86 617.057 295.919C618.456 295.931 619.92 295.448 621.213 296.818C621.863 297.507 623.256 295.38 624.308 296.893C628.418 296.211 632.337 298.317 636.374 297.807C638.338 297.559 639.741 298.669 641.459 298.935C645.942 300.014 650.518 300.659 655.125 300.86C656.484 300.808 657.287 301.949 658.705 301.996C660.889 302.069 662.998 302.911 665.284 303.006C667.197 303.086 669.088 304.804 670.95 304.736C673.184 304.821 675.386 305.294 677.458 306.133C679.328 306.717 681.741 306.004 683.202 307.88C686.657 307.419 689.578 309.491 692.819 310.123C695.821 310.708 698.88 312.555 701.877 313.371C705.312 314.981 709.057 315.822 712.851 315.833C714.71 317.367 716.44 319.165 719.114 318.851C720.785 318.655 721.029 320.659 722.289 320.834C728.036 321.634 732.918 325.037 738.669 326.042C740.146 326.299 741.555 326.859 742.807 327.685C744.059 328.511 745.126 329.586 745.944 330.843C749.658 330.76 751.659 333.617 754.297 335.212C754.962 335.646 755.742 335.868 756.536 335.849Z" fill="#212222"/>
</svg>
