<svg width="1208" height="900" viewBox="0 0 1208 900" fill="none" xmlns="http://www.w3.org/2000/svg">
<path d="M332.501 617.039C333.746 617.945 334.785 619.105 335.552 620.441C336.319 621.777 336.795 623.259 336.95 624.792C337.193 626.671 338.041 628.42 339.366 629.774C340.395 630.9 340.609 632.445 341.834 633.421V637.62L338.077 640.994C335.947 640.865 333.889 643.382 331.245 642.107L328.746 639.573C329.036 636.462 326.756 633.627 327.755 630.66C324.499 626.977 323.338 622.105 319.565 619.329C319.663 618.4 319.539 617.461 319.203 616.589C318.868 615.718 318.33 614.938 317.634 614.315C315.378 612.026 313.895 609.087 313.394 605.912C312.692 604.074 311.705 602.357 310.47 600.825V597.01L305.428 591.999V589.56L302.462 587.178C302.223 585.915 302.656 585.052 301.883 584.357C299.571 582.277 299.28 578.747 296.535 576.916C295.985 576.36 295.632 575.638 295.532 574.862C294.663 571.625 293.036 568.642 290.784 566.159C290.402 565.543 290.07 564.898 289.789 564.229C275.235 563.009 260.625 562.575 246.024 562.93C245.627 561.873 244.242 562.368 243.589 561.556V559.545C245.331 558.403 247.392 557.847 249.473 557.957C259.944 558.04 270.416 557.995 280.888 557.995H284.69C285.732 556.531 284.643 555.949 283.959 555.336C282.144 553.94 280.802 552.02 280.112 549.837C279.568 547.58 277.235 546.462 276.95 544.025C276.725 542.1 275.15 541.055 273.09 540.535C273.447 538.589 271.341 537.185 272.025 535.198C270.793 534.455 268.925 534.367 268.988 532.862C268.714 530.299 267.534 527.918 265.662 526.147C263.179 522.495 261.115 518.576 259.509 514.462C258.252 511.934 257.241 509.291 256.488 506.57C253.92 504.358 252.067 501.433 251.163 498.167C250.464 495.379 250.016 492.529 249.378 489.31L246.723 486.926V483.902C245.187 481.672 244.059 479.186 243.394 476.561C242.143 474.363 241.516 471.866 241.58 469.338C239.663 467.828 238.243 465.777 237.505 463.451V460.186L235.552 458.425V454.267C233.509 451.922 232.092 449.098 231.435 446.058C230.706 442.336 227.747 439.253 228.378 435.195C227.305 432.564 224.933 430.475 225.306 427.304C225.283 426.99 225.17 426.689 224.979 426.437C222.809 422.921 221.533 418.926 221.262 414.802C221.233 414.646 221.156 414.502 221.041 414.392C218.935 411.251 217.473 407.724 216.74 404.014C215.916 401.823 213.411 400.293 214.175 397.477C211.796 396.183 212.639 392.804 210.297 391.485C208.525 387.364 207.824 382.861 208.261 378.397C207.071 376.912 205.547 378.117 204.356 377.432C203.787 377.07 203.36 376.523 203.148 375.883C202.936 375.243 202.952 374.55 203.192 373.92L206.118 371.767C207.274 372.326 208.561 370.968 209.705 370.42C214.266 368.234 219.494 368.058 223.876 365.471C226.261 366.443 226.931 363.223 229.121 363.387C231.155 363.179 233.129 362.578 234.934 361.618C236.772 361.205 238.574 360.644 240.321 359.939C242.329 358.893 244.27 359.866 246.239 359.256L247.985 357.511C253.294 356.668 258.54 355.466 263.687 353.914C264.242 353.794 264.653 353.007 265.391 352.269C268.776 353.395 271.527 350.782 274.689 349.869C277.755 349.193 280.705 348.07 283.445 346.538C284.541 345.835 286.325 346.204 287.377 346.119L295.199 342.155H299.834L302.887 339.102C303.983 339.266 305.102 339.173 306.156 338.831C307.21 338.49 308.17 337.908 308.962 337.132C312.6 336.94 316.153 335.952 319.369 334.24C322.72 333.401 326.02 332.373 329.254 331.158C332.383 329.494 336.301 329.501 339.299 327.035H343.458L345.147 324.827C350.049 324.949 354.921 324.03 359.443 322.131C362.09 321.487 364.647 319.968 367.578 321.214L369.39 318.88C371.947 319.253 374.557 318.886 376.912 317.823C379.622 316.002 383.079 317.758 385.717 315.821C390.405 315.088 395.018 313.94 399.503 312.391C399.912 312.305 400.149 311.661 400.759 311.762C404.924 312.449 408.828 309.938 413.642 310.986C414.343 311.302 414.926 313.053 416.758 312.943V317.445C415.252 319.797 410.929 320.441 410.767 324.475C407.699 325.983 406.774 329.041 405.431 331.821L403.719 332.41V334.469C400.313 337.008 397.767 340.531 396.425 344.562C396.043 345.582 394.47 344.923 394.194 346.135C393.24 350.311 389.708 352.681 387.351 355.856C386.779 356.814 386.443 357.895 386.372 359.009C382.977 360.138 382.324 362.811 382.431 365.975C380.866 366.568 379.497 367.585 378.477 368.913C378.787 369.487 379.258 370.01 379.147 370.207C378.227 372.044 377.148 373.798 375.924 375.448C373.986 377.813 371.551 379.817 371.28 383.166C368.685 383.994 368.273 386.622 367.394 388.567C366.873 389.718 366.173 390.792 365.724 391.921C363.544 395.674 360.999 399.203 358.125 402.455C356.654 405.108 354.964 407.632 353.07 410.001C352.818 410.279 353.036 410.983 353.036 411.562C350.343 413.908 348.127 416.749 346.508 419.931C345.746 421.805 343.543 423.092 341.938 424.696V427.627C339.9 428.57 338.262 430.206 337.316 432.243C336.392 434.223 333.273 434.903 333.828 438.165C330.605 438.012 330.099 441.117 329.015 442.935C325.992 448.144 322.593 453.126 318.847 457.841C317.315 459.723 316.335 461.907 314.913 463.816C314.309 464.627 314.688 465.416 314.496 466.208C312.255 467.141 310.452 468.891 309.451 471.103C307.615 475.032 305.091 478.601 301.998 481.641C299.614 484.352 298.273 487.741 295.66 490.213C295.524 495.187 290.025 497.136 289.158 501.709C289.105 501.986 288.751 502.235 288.491 502.437C285.572 504.702 284.005 508.144 281.337 510.628C280.86 511.071 280.101 511.634 280.119 512.118C280.254 515.705 275.335 516.786 276.144 520.977C278.621 523.032 278.855 527.17 282.114 529.028V531.172L286.112 535.168V537.144C288.807 540.142 291.171 543.421 293.162 546.927C295.6 550.026 296.869 553.964 299.72 556.981C301.37 556.981 303.043 557.011 304.714 556.974C306.878 556.926 309.467 557.539 311.096 556.566C313.086 555.377 315.608 557.207 317.05 554.958C320.068 555.629 322.772 553.938 325.744 553.805C329.403 553.634 333.012 552.894 336.444 551.612C339.408 550.497 342.536 550.064 345.433 548.861C347.739 547.904 350.133 547.261 352.42 546.133C355.89 544.421 359.7 543.372 363.332 541.925C366.693 540.66 369.935 539.096 373.018 537.252C375.932 536.012 378.726 534.505 381.363 532.749C383.898 530.858 386.548 529.128 389.299 527.568C391.299 526.177 394.27 525.848 394.865 522.672L397.35 522.418C399.109 519.583 402.344 518.318 404.74 516.037C407.32 513.991 409.473 511.459 411.076 508.584C415.116 508.406 413.945 503.02 417.653 501.953C418.267 498.681 419.396 495.526 420.997 492.606C422.551 489.679 423.521 486.478 423.851 483.18C424.132 481.586 424.814 480.127 424.975 478.555C425.4 475.64 424.909 472.665 423.571 470.041C423.132 469.443 422.936 468.701 423.024 467.964C423.112 467.227 423.477 466.552 424.046 466.075C422.591 463.22 421.865 460.05 421.933 456.846C422.225 453.231 420.326 449.8 420.897 446.116C420.98 445.582 419.82 445.335 419.927 444.382C421.355 443.013 421.021 441.128 420.916 439.366C420.443 435.159 421.37 430.914 423.554 427.286C424.497 425.846 423.07 423.828 424.938 422.783C426.274 419.519 428.245 416.554 430.736 414.059C431.397 413.133 431.885 412.155 432.485 411.223C433.58 409.522 434.118 407.377 436.679 406.867C437.643 406.674 438.372 405.299 439.208 404.464L443.149 400.523C444.325 399.087 445.664 397.792 447.14 396.666C448.696 395.725 449.319 394.106 450.621 393.075C454.171 390.261 457.809 387.556 461.325 384.7C462.952 383.378 464.123 381.4 466.18 380.716C468.584 379.916 469.709 377.773 471.416 376.259C473.141 374.836 475.005 373.59 476.98 372.54C481.418 370.064 485.543 367.064 489.267 363.605C491.865 363.243 494.326 362.216 496.411 360.623C498.331 359.274 500.418 358.18 502.619 357.368C508.817 354.368 515.264 351.914 521.888 350.032C522.7 349.874 523.466 349.537 524.131 349.045C524.796 348.553 525.343 347.919 525.731 347.189C528.329 347.377 530.918 346.72 533.112 345.315C537.749 343.037 542.653 341.345 547.709 340.278C549.861 339.685 551.62 338.346 553.879 337.885C555.351 337.585 556.956 337.263 558.294 337.089L560.418 334.965C563.81 336.322 566.357 333.407 569.499 332.826C572.832 331.99 576.073 330.825 579.176 329.349C580.986 328.618 582.815 329.37 584.885 328.758L586.179 327.37C593.458 325.461 600.752 324.818 607.676 322.327C610.216 321.269 612.952 320.765 615.702 320.849C619.563 320.806 623.4 320.239 627.108 319.162C629.723 318.299 632.459 317.861 635.213 317.865C640.722 318.566 646.025 316.247 651.516 316.834C654.896 314.652 659.009 316.966 662.433 315.055C665.395 317.332 668.17 313.661 671.127 314.786C672.334 315.245 673.222 314.19 674.245 313.792C676.268 314.48 678.049 315.737 679.376 317.412C679.378 318.944 679.865 320.724 677.881 321.812C676.023 322.535 673.886 321.202 671.769 322.733C670.204 323.865 667.582 322.005 665.642 323.85C665.11 324.356 663.67 324.051 662.678 323.906C658.071 323.965 653.472 324.308 648.907 324.933C648.006 324.91 647.8 326.246 646.589 325.876L645.187 324.94C644.056 324.613 643.75 326.09 642.562 326.01C639.872 325.83 637.16 326.004 634.459 325.938C631.998 325.879 629.836 327.589 627.27 327.002C626.152 326.747 625.063 327.64 624.121 327.807C621.809 328.577 619.398 329.004 616.962 329.073C613.141 329.326 609.37 330.086 605.748 331.331C602.415 332.141 599.037 332.753 595.631 333.164L594.265 334.724C593.74 334.887 593.425 335.093 593.143 335.055C590.723 334.917 588.312 335.461 586.185 336.625C582.658 338.346 578.773 339.205 574.849 339.132C572.185 340.341 570.179 342.404 567.196 342.193C566.727 342.241 566.278 342.408 565.891 342.678C563.389 343.997 560.737 345.007 557.991 345.684C555.803 345.983 553.674 346.618 551.679 347.565C549.779 348.779 547.558 349.395 545.304 349.334C544.359 349.445 543.482 349.885 542.829 350.578C541.976 351.275 540.988 351.789 539.927 352.087C538.866 352.385 537.755 352.46 536.663 352.309C532.317 354.17 528.516 355.627 524.871 357.404C520.789 358.555 516.868 360.216 513.202 362.349C510.489 363.894 507.677 365.259 504.785 366.434C501.802 367.79 498.916 369.35 496.148 371.103C494.436 372.545 492.487 373.679 490.387 374.453C488.417 375.145 486.63 376.276 485.16 377.759C482.415 380.53 478.588 381.873 475.873 384.707C475.574 385.019 474.831 384.981 474.636 385.308C472.517 388.873 468.64 390.412 465.734 393.068C462.259 396.244 458.131 398.627 454.662 401.867C453.77 402.701 452.499 402.923 452.248 404.494C452.159 405.048 451.268 405.666 450.448 406.051C448.386 407.356 446.605 409.059 445.207 411.06C440.708 415.68 436.958 420.974 434.093 426.751C433.76 427.47 432.935 427.961 432.081 428.815C432.287 432.972 431.943 437.138 431.059 441.205C430.903 445.317 431.306 449.43 432.259 453.433C432.528 457.664 433.516 461.819 435.18 465.719C435.042 466.965 433.081 468.238 434.835 470.276C435.2 471.01 435.375 471.825 435.342 472.644C435.31 473.463 435.071 474.26 434.649 474.963C434.124 476.068 433.894 477.29 433.98 478.511C434.066 479.731 434.466 480.909 435.142 481.929C433.825 484.963 433.111 488.224 433.04 491.53C430.79 494.657 431.089 498.639 428.754 501.581C425.642 504.901 423.173 508.771 421.472 512.993C420.823 513.162 420.219 513.472 419.703 513.9C419.186 514.327 418.77 514.863 418.482 515.469C416.182 518.965 412.99 521.783 409.237 523.634C406.573 525.43 404.073 527.466 401.447 529.321C400.657 529.88 400.818 530.771 400.349 531.571C397.444 531.354 396.217 535.101 393.105 534.703C389.724 537.866 385.811 540.405 381.546 542.205C374.109 546.203 366.342 549.556 358.331 552.226C353.694 553.633 349.124 555.414 344.486 556.635C341.01 557.551 337.335 558.19 333.801 559.085C329.915 559.783 326.074 560.711 322.298 561.864C322.001 561.985 321.682 562.044 321.361 562.038C316.299 562.749 311.185 563.031 306.075 562.881L303.97 564.814C306.026 567.173 307.082 569.969 309.2 571.376C309.876 575.542 312.833 577.877 314.375 580.937C315.946 584.055 317.853 586.919 319.587 590.213V593.981C319.819 594.208 320.021 594.57 320.308 594.659C321.363 595.029 322.311 595.652 323.069 596.475C323.827 597.297 324.372 598.293 324.655 599.374C325.311 601.639 326.351 603.774 327.729 605.686C328.808 606.982 328.688 608.395 328.725 610.894C329.539 611.316 330.286 611.855 330.942 612.495C331.753 613.414 332.972 613.46 333.78 614.251C333.52 615.154 334.439 616.366 332.501 617.039Z" fill="#212222"/>
<path d="M623.873 535.776L626.022 535.676C627.764 534.768 628.545 532.023 631.271 532.638C631.359 532.658 631.529 532.432 631.622 532.295C632.619 530.824 634.773 530.232 634.85 528.061C636.57 527.684 637.532 526.286 638.735 525.202C640.082 523.989 640.539 522.171 641.76 520.811C642.176 520.432 642.502 519.965 642.714 519.445C642.927 518.924 643.02 518.362 642.987 517.801C642.916 516.746 643.113 515.69 643.558 514.73C644.004 513.771 644.683 512.939 645.534 512.312C646.853 511.119 647.724 509.513 648.004 507.758C648.454 504.881 650.91 502.969 651.725 500.174C652.061 499.379 652.681 498.738 653.465 498.377C654.249 498.016 655.14 497.962 655.962 498.224C657.784 494.097 661.285 490.877 661.161 486.033C661.157 485.866 661.098 485.633 661.184 485.542C663.114 482.856 664.679 479.925 665.836 476.827C667.437 473.922 669.666 471.411 672.359 469.475C674.305 468.024 676.158 466.454 677.908 464.773C678.432 464.856 678.967 464.847 679.488 464.748C681.435 464.167 683.488 464.042 685.491 464.382C687.493 464.722 689.391 465.518 691.036 466.709C691.517 467.01 692.348 466.75 693.18 466.75C694.647 468.264 696.169 469.837 697.695 471.405C698.712 472.45 699.981 473.37 700.181 474.929C700.497 477.4 703.592 478.025 703.784 480.534C708.105 484.128 708.66 489.682 710.651 494.407C711.581 497.181 713.335 499.605 715.679 501.356C718.703 503.317 721.884 505.023 725.191 506.457C728.218 507.211 731.342 507.506 734.457 507.331C735.998 505.594 738.407 505.984 740.262 505.557C742.377 505.07 743.329 502.642 745.98 503.115C747.71 503.424 749.294 501.492 750.899 500.462C751.619 500 752.544 498.735 753.901 499.213C754.884 499.559 755.351 498.661 756.015 498.219C763.715 494.19 770.803 489.087 777.066 483.062H780.488L783.098 479.973H784.836L787.968 476.52C791.2 478.5 792.446 474.639 794.993 474.906C799.037 472.281 804.069 472.435 808.231 470.182C808.634 469.908 809.126 469.793 809.609 469.861C812.217 470.196 814.866 469.783 817.248 468.671C825.803 466.807 834.58 466.177 843.314 466.8C845.087 468.457 847.544 467.162 849.351 468.106C851.049 468.993 852.917 469.399 854.541 470.253C857.782 471.957 861.438 472.343 864.694 473.893C867.259 474.781 869.61 476.194 871.599 478.04C872.826 479.43 874.011 481.345 875.578 481.815C877.271 482.323 877.541 483.853 878.896 484.6C882.428 486.545 883.123 490.825 885.194 494.016C886.162 495.507 885.649 497.536 887.147 498.756C886.494 499.299 886.052 500.054 885.899 500.89C885.745 501.725 885.89 502.588 886.307 503.328C888.616 506.853 886.547 510.075 885.775 513.078C884.747 517.533 882.854 521.743 880.204 525.469C878.476 527.792 875.943 528.732 874.047 530.624C870 534.662 864.745 537.215 860.756 541.338C860.172 541.942 859.559 542.486 859.817 543.408C857.425 544.11 855.304 545.529 853.742 547.473C855.937 548.79 857.856 547.122 859.548 546.436C863.368 545.557 867.102 544.339 870.706 542.796C874.668 542.736 878.629 542.957 882.561 543.456C885.471 544.138 888.325 545.044 891.096 546.167C892.55 546.95 893.785 548.083 894.691 549.464C895.596 550.845 896.143 552.43 896.281 554.075C896.38 554.877 896.389 555.687 896.308 556.49C894.815 557.762 894.742 559.677 893.74 561.119C892.35 563.119 892.128 565.935 889.132 566.767C887.599 567.193 887.504 569.298 886.101 570.2C884.644 571.424 882.913 572.279 881.055 572.692C878.991 572.891 878.371 575.509 876.004 575.304C874.616 575.184 874.118 577.038 872.282 578.02C875.141 578.279 878.013 578.356 880.882 578.25C883.414 578.297 885.948 578.26 888.481 578.26C891.184 578.26 893.89 578.354 896.586 578.233C898.999 578.124 901.584 579.071 903.547 577L904.974 578.274L906.677 576.331H915.956C916.691 575.504 917.626 574.879 918.671 574.516C919.716 574.152 920.837 574.062 921.926 574.254C924.203 574.39 926.478 573.959 928.547 573C931.101 572.426 933.711 572.139 936.329 572.143L940.009 576.012L937.851 580.106C932.788 581.126 927.673 581.863 922.528 582.314C918.817 584.346 914.39 583.467 910.573 585.266C910.004 585.578 909.342 585.678 908.706 585.548C908.07 585.419 907.5 585.068 907.099 584.558C902.604 586.732 897.474 583.849 893.035 586.412C892.553 586.03 892.042 585.686 891.507 585.381C891.274 585.267 890.889 585.46 890.574 585.513C890.119 585.753 890.129 585.986 890.596 586.231C893.553 587.782 895.623 590.619 898.976 591.709C899.684 591.998 900.327 592.427 900.867 592.969C901.406 593.512 901.831 594.157 902.117 594.867C902.787 596.762 904.411 597.623 905.424 599.111C905.611 600.802 904.878 602.695 906.355 604.189C904.717 605.487 905.713 607.305 905.39 608.928C903.593 611.867 901.345 614.503 898.727 616.742C897.175 615.99 896.217 617.926 894.686 617.805C893.171 617.66 891.646 617.661 890.131 617.809C887.128 618.157 884.466 616.242 881.482 616.636C879.804 614.876 877.649 616.199 875.419 615.542C874.54 614.766 873.479 614.224 872.336 613.964C871.192 613.704 870.002 613.736 868.874 614.055C871.014 616.241 873.421 618.149 876.037 619.736C876.499 620.094 877.101 620.431 877.573 620.85C879.945 623.305 882.642 625.424 885.589 627.148C888.502 628.853 891.229 630.858 893.725 633.129C896.394 635.291 899.032 637.556 901.598 639.865C904.17 642.179 906.924 644.279 909.543 646.527C914.146 650.48 919.05 654.088 923.293 658.459C924.33 659.827 925.472 661.111 926.708 662.302C928.323 663.388 929.706 664.783 930.779 666.407C931.591 667.954 932.56 669.413 933.673 670.76C935.239 672.948 936.295 675.458 936.765 678.107C936.968 678.753 937.265 679.366 937.647 679.926C935.449 683.75 934.518 688.172 934.989 692.557C935.679 695.947 936.584 699.289 937.699 702.564C938.375 703.796 938.798 705.151 938.945 706.55C939.091 707.948 938.957 709.362 938.551 710.708C937.156 712.163 936.096 713.906 935.444 715.814C931.65 717.618 927.761 719.214 923.792 720.592C923.197 720.805 922.661 721.247 921.996 721.125C918.319 720.448 914.936 722.788 911.268 722.148C906.598 723.268 901.774 723.607 896.994 723.151C893.296 723.317 889.622 722.468 886.372 720.696C885.497 720.276 884.53 720.085 883.56 720.14C881.205 720.084 878.847 720.121 876.535 720.121C875.814 719.324 874.904 718.721 873.887 718.371C872.871 718.021 871.783 717.934 870.724 718.118C866.544 718.146 862.373 717.745 858.276 716.921C856.507 714.382 853.293 714.516 850.595 714.214C848.58 713.654 846.524 713.252 844.447 713.011C843.619 713.046 843.339 711.942 842.332 711.981C837.437 712.172 833.011 708.89 828.148 710.141C826.437 708.879 824.48 707.992 822.402 707.538C817.813 705.976 813.047 704.951 808.6 702.94C807.78 702.71 806.914 702.7 806.089 702.912C800.922 702.975 795.784 702.137 790.904 700.438C787.32 699.123 783.599 698.218 779.811 697.742C778.671 697.775 777.61 696.385 776.186 696.801C773.999 694.121 770.695 694.535 767.814 693.77C765.847 693.247 764.324 691.452 762.066 691.749C759.228 689.141 755.166 689.797 751.993 687.91C748.85 686.165 745.613 684.596 742.298 683.209C738.588 681.979 734.992 680.429 731.551 678.576C729.747 679.083 728.973 677.305 727.708 676.867C725.74 676.188 724.664 673.719 722.2 674.243C716.155 670.9 710.239 667.282 704.013 664.319C700.287 662.546 696.856 660.379 693.337 658.308C689.805 656.23 686.239 654.205 682.774 652.019C679.276 649.813 675.985 647.266 672.413 645.198C669.99 643.796 668.464 641.439 665.946 640.082C664.176 639.128 662.327 638.092 660.557 637.112C657.21 635.257 655.073 632.103 651.849 630.093C646.605 626.544 641.658 622.574 637.058 618.222C634.733 616.149 632.687 613.783 630.973 611.182C630.143 609.795 629.12 608.533 627.935 607.434C624.22 604.292 621.919 599.919 618.325 596.678C617.499 595.926 616.908 594.95 616.623 593.87C616.149 591.809 614.695 591.022 612.644 590.011C612.823 587.329 610.357 584.942 610.476 581.802L605.233 576.561C607.784 573.03 607.297 568.13 610.418 564.642C610.387 561.275 611.415 557.983 613.358 555.233C615.055 553.153 616.154 550.65 616.538 547.992C616.595 546.973 617.451 546.672 617.902 546.015C620.289 542.85 622.293 539.413 623.873 535.776ZM655.014 519.146C657.763 520.875 660.225 522.548 662.931 523.934C665.812 524.877 668.455 526.434 670.676 528.498C674.71 529.043 676.691 532.686 679.685 534.762C682.042 536.398 684.604 537.826 686.803 539.657C689.712 542.079 692.555 544.643 695.278 547.237C700.593 552.3 706.617 556.594 711.454 562.162C711.847 562.714 712.335 563.192 712.895 563.574C716.705 566.25 720.163 569.396 723.186 572.938C724.371 574.005 724.574 575.888 726.074 576.794C730.333 579.584 733.994 583.195 736.843 587.415C737.929 589.305 739.644 590.754 741.689 591.511C742.164 591.696 742.596 591.976 742.959 592.333C743.323 592.689 743.611 593.116 743.806 593.587C744.828 595.664 746.338 597.463 748.205 598.831C750.081 600.505 750.856 602.952 752.788 604.586C754.431 605.976 755.594 607.854 757.371 609.204C758.641 610.236 759.728 611.476 760.585 612.87C762.964 616.536 765.639 620 768.585 623.228C772.213 626.553 775.334 630.392 777.849 634.623C779.94 637.939 781.733 641.434 783.21 645.066C783.43 646.202 783.877 647.283 784.525 648.242C785.173 649.202 786.009 650.021 786.981 650.649V658.438C789.318 657.803 790.722 659.306 792.83 660.347C794.25 660.511 796.379 659.789 797.967 661.366C799.489 662.877 801.845 661.636 803.323 663.134C805.803 662.404 806.832 665.039 808.934 665.551C811.823 666.743 814.791 667.731 817.819 668.505C819.897 671.426 823.951 670.149 826.299 672.496C829.483 672.068 831.988 674.367 835.079 674.617C838.072 674.932 841.019 675.598 843.857 676.6C847.614 677.834 851.567 678.072 855.355 679.374C857.798 680.467 860.396 681.172 863.056 681.463C867.31 681.989 871.479 683.061 875.46 684.651C876.042 684.364 876.244 683.497 877.084 683.642C878.493 684.317 879.916 685.59 881.308 685.557C885.409 685.696 889.5 686.047 893.564 686.609C897.761 686.939 902.008 686.567 906.223 686.737C907.803 686.734 909.354 686.32 910.727 685.538C911.015 685.803 911.317 686.052 911.633 686.284C911.923 686.445 912.223 686.586 912.531 686.708C915.002 685.775 917.271 683.176 920.134 685.478C923.279 683.709 922.66 679.413 925.56 678.133C926.189 675.903 923.932 674.779 924.706 672.964C922.152 670.665 920.259 667.654 917.675 665.523C914.827 663.175 912.527 660.307 909.668 658.038C907.114 656.011 904.371 654.223 901.532 652.202C901.329 654.995 900.524 657.712 899.172 660.164C897.819 662.617 895.952 664.747 893.697 666.409C892.077 666.555 890.563 667.277 889.429 668.443C887.742 668.359 886.052 668.374 884.367 668.487C883.646 668.54 882.922 668.441 882.242 668.198C881.561 667.955 880.939 667.572 880.415 667.074C875.806 663.131 871.905 658.429 868.883 653.17C867.903 650.162 866.314 647.387 864.214 645.02C862.267 646.29 859.524 645.769 858.351 648.352H853.608L852.359 650.146H847.091C846.114 649.313 844.964 648.706 843.724 648.369C842.485 648.032 841.186 647.972 839.921 648.195C838.902 646.815 837.497 645.768 835.883 645.186C830.554 642.704 826.304 638.376 823.919 633.003C822.811 630.235 821.961 627.37 821.381 624.445C821.106 623.437 821.063 622.38 821.256 621.353C821.448 620.326 821.871 619.355 822.493 618.515C817.225 619.383 813.509 623.129 808.542 623.033C807.473 623.013 806.379 624.231 804.956 625.083C802.75 624.819 800.519 624.865 798.326 625.22C796.38 625.78 794.311 625.746 792.385 625.121C789.724 624.133 787.205 622.802 784.89 621.16C782.542 619.639 780.72 617.431 779.672 614.836C778.265 612.059 777.561 608.98 777.62 605.868C778.967 600.173 782.814 597.886 783.935 593.905C778.773 593.341 773.808 591.605 769.419 588.829C765.031 586.053 761.334 582.311 758.613 577.889C757.499 575.34 759.552 573.183 759.487 570.44C760.895 569.367 762.169 568.129 763.281 566.751C765.199 563.781 768.876 563.457 771.105 561.062C774.075 561.332 776.73 559.614 779.804 559.934C783.575 559.927 787.338 560.281 791.042 560.991C795.601 561.479 800.015 562.884 804.018 565.12C805.344 566.188 807.285 565.525 808.361 566.871C810.434 569.464 813.725 570.561 815.707 573.239C816.816 571.973 815.955 570.577 816.499 569.304C817.632 566.313 819.353 563.579 821.561 561.265C824.342 558.813 826.922 556.142 829.274 553.276C830.045 551.901 831.146 550.74 832.478 549.898C834.003 549.143 834.15 547.311 835.435 546.294C836.378 545.547 837.404 546.233 838.23 545.641C838.362 545.019 838.634 544.436 839.024 543.935C839.415 543.433 839.914 543.027 840.484 542.746C843.343 541.502 845.834 539.545 847.721 537.063C849.713 534.39 852.485 532.4 855.655 531.368C855.744 530.618 856.039 529.906 856.505 529.312C858.003 527.44 860.488 527.276 862.162 525.768C863.98 524.13 865.34 521.947 867.824 521.092C868.364 520.885 868.883 520.627 869.373 520.321L874.112 513.364V510.774L876.072 508.814C876.088 506.749 876.382 504.695 876.946 502.708C877.412 499.611 876.987 496.445 875.719 493.581C874.452 490.717 872.395 488.274 869.789 486.536C865.926 483.784 861.906 481.258 857.751 478.97C856.713 478.178 855.419 477.797 854.118 477.901C852.816 478.26 851.435 478.216 850.159 477.774C846.47 475.956 842.305 475.333 838.246 475.994C836.636 476.061 835.511 475.127 834.128 474.844C831.821 477.538 828.105 474.308 825.822 476.933C822.875 476.679 819.907 476.992 817.077 477.854C814.635 478.974 812.017 479.66 809.339 479.88C806.311 480.147 804.149 482.647 801.474 482.841C798.32 483.069 796.956 486.875 793.38 485.887L790.872 489.007C789.202 489.262 787.989 488.67 787.08 489.371C786.921 490.204 786.552 490.984 786.006 491.634C785.46 492.284 784.757 492.784 783.963 493.086C778.02 495.121 774.099 500.574 768.028 502.328C765.704 504.864 761.56 504.937 760.179 508.253C759.099 508.51 758.344 508.255 757.496 508.722C755.038 510.078 752.274 510.932 749.954 512.47C747.609 514.096 744.725 514.748 741.909 514.287L740.908 516.35C739.631 516.605 739.265 515.974 738.747 515.488C738.406 515.796 738.096 516.322 737.711 516.385C732.545 516.789 727.361 515.869 722.651 513.71C720.117 512.635 718.171 510.725 715.698 509.703C712.282 508.511 709.321 506.289 707.221 503.343C705.875 501.699 704.351 500.209 702.676 498.901V494.84C701.091 492.208 699.985 489.316 699.411 486.298C697.6 484.424 695.068 482.849 694.712 480.168C694.53 478.703 694.01 477.3 693.195 476.069C692.38 474.838 691.29 473.812 690.012 473.073C688.894 472.106 687.563 471.418 686.127 471.064C684.692 470.71 683.193 470.701 681.753 471.038L680.029 472.762L677.815 473.004C674.23 476.151 671.097 479.779 668.506 483.784C669.062 484.183 669.428 484.702 669.116 486.048L666.196 488.392C666.358 491.886 665.455 495.345 663.606 498.313C662.263 500.449 661.751 503.003 662.167 505.491C662.168 505.979 662.277 506.649 662.012 506.928C659.401 510.835 657.063 514.918 655.014 519.146V519.146ZM696.094 648.146C697.65 649.797 699.447 651.202 701.424 652.314C703.517 653.4 705.697 654.256 707.792 655.303C710.939 657.402 714.242 659.258 717.671 660.856C720.723 662.09 723.644 663.629 726.389 665.449C730.739 667.988 735.547 669.526 739.944 671.859C745.624 674.874 751.656 677.063 757.387 679.94C759.921 681.185 762.621 682.06 765.404 682.539C767.735 682.923 769.988 683.681 772.078 684.784C775.427 686.87 779.336 687.88 783.277 687.678L785.321 689.722C786.814 689.823 788.312 689.806 789.802 689.672C791.254 689.656 792.677 690.08 793.883 690.889C797.299 692.406 801.039 693.046 804.764 692.751C806.586 692.741 808.341 693.434 809.665 694.686C811.084 695.244 812.877 694.098 814.314 695.398C815.588 696.55 817.769 694.859 818.793 696.815C822.016 698.026 825.322 699.005 828.685 699.742C834.385 699.956 839.339 703.605 845.148 702.935C845.252 702.923 845.366 703.188 845.507 703.272C848.042 704.646 850.933 705.224 853.803 704.931L859.564 707.905C862.923 707.578 866.31 709.693 870.008 709.032C870.469 708.949 871.106 709.989 871.599 709.934C876.298 709.887 880.978 710.538 885.487 711.864C887.381 712.151 889.252 712.573 891.085 713.128C892.769 713.652 894.51 713.972 896.27 714.081C902.612 714.686 908.772 712.479 915.012 713.059C918.627 709.757 923.76 710.232 927.588 707.872C927.993 705.454 927.855 702.976 927.186 700.618C926.517 698.259 925.333 696.078 923.719 694.233C923.272 694.977 922.574 695.537 921.75 695.812C920.926 696.086 920.031 696.056 919.227 695.728C917.24 695.315 915.981 697.48 914.053 696.829C913.75 696.726 913.225 696.96 913.069 696.792C912.229 696.084 911.204 695.629 910.114 695.481C909.025 695.333 907.916 695.498 906.917 695.956C904.022 696.822 900.937 696.818 898.046 695.944C895.557 695.437 892.995 695.405 890.495 695.85C887.97 696.076 885.848 694.185 883.308 694.78C879.963 695.563 876.922 693.26 873.596 693.774C872.158 691.703 869.692 693.61 868.097 692.387C866.256 690.975 864.19 692.22 862.709 691.764C860.261 690.401 857.648 689.361 854.933 688.67C851.619 688.253 848.343 687.578 845.135 686.651C843.252 685.816 841.186 685.481 839.136 685.679C838.62 685.267 838.257 684.93 837.848 684.661C835.785 683.3 833.298 684.173 831.211 683.533C827.755 682.474 824.163 681.805 820.821 680.505C817.433 679.326 814.106 677.975 810.855 676.458C807.083 674.525 803.223 672.876 799.33 671.236C795.243 669.514 790.84 669.03 786.646 667.65C781.307 665.892 775.913 664.092 770.429 662.741C766.981 661.712 763.647 660.334 760.477 658.629C752.35 655.438 744.667 651.212 737.62 646.056C735.994 643.457 738.335 641.576 738.324 639.27C738.313 636.907 736.373 634.996 737.294 632.536C735.403 631.219 733.976 629.339 733.217 627.163C732.665 624.86 729.047 624.365 730.173 621.434C726.228 617.684 723.401 613.102 719.387 609.548C716.232 606.754 713.393 603.604 710.392 600.635C708.562 598.321 706.163 596.52 703.43 595.408C702.794 595.201 702.219 594.841 701.754 594.36C701.289 593.88 700.949 593.292 700.763 592.65C700.491 591.514 699.657 591.047 699.046 590.312C695.407 585.929 690.296 583.142 686.574 578.845C686.464 578.717 686.358 578.548 686.214 578.494C683.312 577.193 680.881 575.031 679.248 572.303C676.806 569.29 673.954 566.633 670.775 564.411C668.09 562.189 665.73 559.671 663.128 557.397C660.479 555.478 657.951 553.397 655.56 551.164C654.012 549.445 651.819 548.063 650.024 546.39C649.634 546.129 649.199 545.943 648.742 545.838C646.728 544.895 644.895 543.606 643.327 542.03C640.383 540.97 637.252 540.53 634.131 540.737C630.719 542.266 630.195 545.283 628.118 546.891C624.512 549.683 623.348 554.121 620.62 557.485C621.246 560.129 618.165 561.66 618.59 564.243C618.645 566.335 617.92 568.374 616.555 569.961C616.422 571.362 616.968 573.315 616.063 574.631C616.999 578.439 618.862 581.958 621.486 584.873C623.458 588.192 625.901 591.208 628.737 593.827V596.011C631.641 597.55 634.087 599.831 635.827 602.621C636.998 604.339 638.211 606.031 639.441 607.709C640.43 609.059 642.651 608.791 643.119 611.202C643.47 613.014 646.067 613.564 647.548 614.82C652.177 618.746 656.736 622.756 661.42 626.614C664.503 629.222 667.719 631.668 671.055 633.942C674.457 636.195 678.408 637.683 681.599 640.171C684.903 642.747 689.255 643.561 692.076 646.954C692.552 647.529 693.188 647.949 693.904 648.162C694.619 648.374 695.382 648.369 696.094 648.146V648.146ZM830.425 582.802C830.425 582.991 830.355 583.21 830.435 583.321C833.805 587.765 837.977 591.54 842.735 594.449C843.954 595.434 845.402 596.096 846.945 596.375C848.696 596.539 850.374 597.156 851.815 598.166C855.75 599.684 859.578 601.467 863.274 603.5C867.23 603.821 871.033 605.172 874.305 607.419C874.595 607.55 874.906 607.625 875.222 607.642C880.997 608.887 886.881 609.557 892.787 609.642L897.311 604.751V600.73C896.713 599.075 895.732 597.585 894.448 596.381C893.164 595.178 891.613 594.296 889.923 593.806C887.821 593.184 885.783 592.364 883.837 591.358C881.227 589.506 878.131 588.461 874.933 588.353C874.57 588.396 874.171 587.743 873.736 587.64C869.968 586.272 866.021 585.458 862.019 585.224C859.161 585.064 856.334 584.548 853.603 583.689C851.063 582.953 848.362 582.979 845.837 583.766C843.664 584.572 841.295 584.686 839.054 584.093C837.845 583.741 836.61 583.489 835.361 583.337C834.52 583.284 833.499 583.026 832.869 583.393C831.709 584.068 831.509 581.65 830.426 582.802H830.425ZM841.192 605.495C838.886 607.317 836.844 609.448 835.121 611.828C834.025 613.882 832.978 616.02 831.686 617.952C830.571 619.948 830.136 622.253 830.448 624.518C830.476 625.903 832.344 627.257 831.207 628.516C829.762 630.115 832.733 631.039 831.223 632.571C835.012 635.657 839.019 638.466 843.212 640.976H851.253C855.879 638.681 860.131 635.699 863.865 632.13V628.288C864.93 627.831 864.6 626.663 865.148 626.214C866.139 625.402 865.842 624.425 865.918 623.182C858.537 616.234 849.033 611.992 841.192 605.495ZM818.447 589.207C816.161 590.333 813.584 590.286 811.226 591.364C809.088 592.354 806.846 593.103 804.542 593.596C801.922 594.066 799.365 594.838 796.923 595.897C793.455 597.704 790.375 600.172 787.855 603.161C788.114 605.203 786.704 606.637 786.001 608.324L786.716 609.039L785.742 610.573C787.02 613.384 788.97 615.836 791.42 617.715C793.522 617.715 795.947 618.419 797.448 617.542C799.482 616.354 801.629 617.612 803.145 616.644C804.717 615.639 806.713 616.47 807.69 615.485C809.179 613.984 810.923 614.17 812.506 613.538C813.973 612.953 815.351 611.39 816.921 610.783C818.706 609.778 820.612 609.006 822.594 608.487C824.183 608.158 825.601 607.268 826.588 605.979C827.611 604.428 828.96 603.117 830.54 602.137C832.139 601.366 832.545 600.081 833.516 598.508C827.83 596.639 822.666 593.452 818.447 589.207V589.207ZM888.367 551.485C885.297 550.274 882.014 549.697 878.715 549.789C876.808 550.037 874.921 550.416 873.066 550.925C867.159 551.837 861.473 553.838 856.296 556.825C855.02 557.434 853.677 557.893 852.295 558.192C850.354 558.708 848.007 558.279 846.429 559.786C844.416 561.351 842.283 562.757 840.051 563.988C837.982 565.428 835.664 566.46 833.585 567.981C832.402 568.847 831.545 570.694 829.425 570.331C829.898 572.093 828.456 573.335 828.375 574.845C829.445 575.379 829.472 574.181 830.213 574.243C831.168 573.782 831.397 575.138 832.206 575.214C836.937 574.843 841.696 575.113 846.355 576.016C851.196 573.988 856.954 575.571 861.449 572.181C864.635 572.704 866.568 569.671 869.347 569.346C871.29 569.118 871.761 566.805 874.021 566.995C876.146 567.175 875.865 564.197 877.487 563.174C880.11 562.793 882.578 561.699 884.622 560.012C887.578 557.932 886.741 554.171 888.367 551.485V551.485ZM806.452 581.162C809.181 581.412 811.928 580.942 814.419 579.799C812.917 578.391 816.578 578.028 814.727 576.253H811.518C806.374 573.775 801.742 570.497 795.968 568.202C793.725 568.9 791.279 566.853 788.447 567.071C785.757 567.268 783.057 567.271 780.367 567.078C777.208 567.339 774.151 568.319 771.428 569.943C768.086 571.217 766.725 574.342 765.297 578.172C765.961 578.478 766.576 578.879 767.124 579.364C768.983 581.607 771.325 583.4 773.975 584.611C776.625 585.821 779.515 586.417 782.427 586.354C783.497 586.329 784.563 588.054 785.631 586.367C786.698 586.974 787.766 587.427 788.833 586.367C791.205 588.089 793.926 587.123 796.667 587.447C797.312 585.032 800.104 585.985 801.346 584.486C802.759 582.78 805.724 583.772 806.452 581.162ZM885.217 661.965C888.112 658.492 891.729 656.306 893.213 652.425C892.53 650.395 891.87 648.481 891.243 646.556C890.473 643.413 888.678 640.615 886.14 638.606C882.67 636.444 879.466 633.882 876.596 630.971C874.697 632.417 874.81 635.346 872.08 635.305C871.437 639.365 872.113 643.524 874.01 647.17C877.126 652.542 880.89 657.511 885.217 661.965V661.965Z" fill="#212222"/>
<path d="M720.065 349.883C719.971 348.46 719.549 347.077 718.834 345.843C718.118 344.609 717.127 343.557 715.939 342.769C715.41 339.519 713.83 336.532 711.441 334.266C709.048 331.233 706.338 328.463 703.357 326.005C701.529 324.848 700.131 323.123 699.378 321.095C694.985 317.431 690.877 313.44 687.087 309.156C682.966 305.973 679.317 302.221 676.248 298.014C675.819 297.276 675.205 296.664 674.467 296.237C670.012 293 666.222 288.937 663.302 284.268C662.093 282.843 662.411 281.266 661.432 279.876C660.521 278.056 659.419 276.339 658.146 274.751V263.907C661.177 258.6 662.177 252.725 665.428 247.785C664.555 245.837 664.115 243.723 664.138 241.589C664.74 237.249 664.123 232.827 662.357 228.818C657.874 226.074 653.885 222.595 650.559 218.525C647.382 213.139 644.832 207.407 642.959 201.441C642.837 200.503 642.467 199.302 643.218 198.552C644.388 197.384 643.735 196.033 643.944 194.692L646.53 192.227H650.427C652.326 187.574 657.008 186.374 660.753 184.234C662.709 183.289 664.524 182.08 666.15 180.64C669.852 179.446 673.687 178.711 677.568 178.45C680.795 177.329 684.21 176.85 687.621 177.041C692.979 177.596 698.118 179.458 702.589 182.463C703.444 183.181 704.368 183.812 705.349 184.346C707.471 185.408 709.195 187.123 710.27 189.238C711.272 190.879 712.467 192.392 713.831 193.747V202.809C713.204 203.962 711.289 204.277 712.019 206.117C713.013 206.38 713.409 205.227 714.526 205.282C719.584 204.846 724.676 205.523 729.444 207.267C736.65 207.329 742.377 212.092 749.167 213.459C750.442 213.868 751.518 214.737 752.184 215.898C752.81 216.985 753.69 217.904 754.748 218.577C755.807 219.25 757.012 219.658 758.262 219.765C759.704 221.713 760.638 224.25 763.438 225.085C765.332 225.65 765.259 228.16 767.253 229.09C768.122 229.406 768.892 229.947 769.485 230.658C770.077 231.368 770.471 232.223 770.625 233.135C772.846 233.847 773.264 235.955 774.052 237.708C776.337 242.566 780.093 246.583 784.788 249.188V251.377C785.056 251.594 785.27 251.896 785.544 251.967C787.748 252.752 789.621 254.262 790.856 256.249C793.431 259.931 797.339 262.465 801.752 263.315C803.725 266.11 807.284 267.176 810.203 269.129C811.34 269.793 812.324 270.688 813.093 271.757C815.445 275.656 818.906 278.766 823.033 280.689C827.764 283.048 832.181 285.991 836.179 289.45C838.278 291.659 840.824 293.394 843.648 294.538C843.803 294.583 844.031 294.498 844.133 294.583C847.035 297.026 849.056 300.469 852.678 302.095C852.476 303.54 853.896 303.956 854.441 304.915C855.016 306.053 855.529 307.221 855.977 308.414C856.822 308.642 857.606 309.057 858.269 309.63C858.932 310.202 859.457 310.917 859.805 311.72C860.717 313.6 861.895 315.338 863.303 316.881C865.392 319.471 867.019 322.428 868.961 325.145C870.297 327.452 871.232 329.969 871.726 332.589C872.298 336.08 872.383 339.634 871.977 343.148C872.293 345.423 871.945 347.741 870.974 349.823C869.417 352.885 868.053 356.041 866.89 359.273C865.548 361.776 863.571 363.881 861.159 365.379C858.531 367.003 856.334 369.237 854.754 371.891C854.317 372.77 853.684 373.536 852.904 374.132C852.124 374.728 851.218 375.138 850.256 375.33C848.199 375.689 846.305 376.678 844.833 378.159C841.55 380.952 837.635 382.901 833.428 383.839C831.237 384.312 829.427 386.333 827.284 387.294C823.488 389.29 819.334 390.515 815.062 390.899C812.832 390.995 810.629 391.429 808.528 392.186C807.132 392.573 805.692 392.783 804.243 392.81C801.84 393.095 799.376 392.326 797.016 393.764C795.913 394.436 794.46 393.193 793.005 393.245C792.067 393.174 791.136 393.035 790.218 392.831C787.766 392.978 785.308 392.689 782.959 391.975C780.617 391.394 778.216 391.089 775.804 391.069C773.289 390.48 770.74 390.047 768.171 389.774C765.145 389.579 762.243 388.495 759.83 386.657C756.827 385.068 754.114 382.983 751.806 380.49C749.68 377.746 747.031 375.453 744.012 373.743C741.589 371.978 739.428 369.88 737.592 367.51C735.455 364.916 732.873 362.688 730.484 360.3L720.065 349.883ZM768.508 247.541C768.587 247.025 768.507 246.496 768.276 246.027C765.821 242.062 763.062 238.295 760.022 234.759C758.75 233.3 756.69 232.435 756.421 230.183C753.715 228.506 752.076 225.307 748.673 224.667C747.958 224.532 747.25 224.39 747.03 223.789C746.26 221.68 743.923 221.227 742.669 219.434C741.648 219.631 740.595 219.583 739.596 219.293C738.596 219.004 737.68 218.482 736.922 217.77C736.267 217.322 735.883 216.648 734.914 216.472C729.913 215.56 724.974 214.248 719.947 213.555C715.907 213.312 712.122 211.499 709.401 208.502C705.789 211.964 700.01 212.083 696.95 216.26C694.795 217.969 691.951 218.043 689.786 219.785C684.145 224.523 677.38 227.729 670.142 229.095C671.719 232.825 672.468 236.852 672.339 240.9C671.975 243.011 672.301 245.184 673.266 247.096C673.636 247.701 673.323 248.722 673.323 249.451L671.476 251.297C670.831 252.524 672.065 254.1 670.709 255.085C668.423 256.744 668.647 259.652 667.273 261.779C666.15 264.346 665.789 267.181 666.233 269.947C666.206 271.275 666.228 272.604 666.228 273.78C667.154 274.501 667.909 275.418 668.439 276.465C668.969 277.512 669.261 278.663 669.294 279.836C671.919 282.096 674.198 284.729 676.058 287.651C676.72 289.088 678.242 288.033 679.362 288.877C682.673 292.016 685.747 295.396 688.557 298.99C689.767 300.761 691.432 302.173 693.377 303.078C695.978 304.509 698.286 306.416 700.181 308.7C701.857 310.854 703.727 312.85 705.768 314.662C709.339 317.334 711.562 321.512 715.803 323.33C717.286 326.126 718.432 329.21 721.83 330.368C723.696 333.632 724.837 337.27 727.026 340.374C727.561 341.134 728.363 341.84 728.077 342.986C728.058 343.216 728.106 343.448 728.214 343.653C729.492 345.428 730.901 347.106 732.428 348.672C733.737 350.217 734.725 352.513 736.875 353.28C739.081 354.083 740.88 355.725 741.881 357.848C742.563 359.404 744.558 359.163 744.741 361.185C744.864 362.545 747.082 363.195 748.39 364.137C749.936 364.989 751.335 366.085 752.531 367.382C754.481 370.089 756.814 372.499 759.455 374.537C760.894 375.788 764.072 377.659 765.477 378.71C768.267 380.94 771.78 382.067 775.346 381.874C775.571 381.861 775.856 382.55 776.055 382.521C777.618 382.292 778.754 383.822 780.136 383.66C785.421 383.636 790.701 384.027 795.926 384.829C799.129 384.95 802.05 383.587 805.131 383.753C812.343 383.797 819.447 381.993 825.763 378.511C829.208 376.856 832.945 376.288 836.308 374.6C836.529 374.508 836.763 374.451 837.001 374.431C838.844 373.238 839.684 371.276 841.698 370.495C843.539 369.504 845.198 368.208 846.605 366.662C847.923 365.525 849.356 364.266 850.676 363.006C852.198 361.552 853.328 359.569 855.602 359.075C856.028 356.421 858.268 354.789 859.202 352.431C860.122 350.11 859.744 347.296 861.544 345.929C861.873 340.997 861.646 336.043 860.868 331.162C860.897 330.16 859.651 329.963 859.83 329.051C860.166 327.334 857.412 328.625 857.8 326.939C858.124 325.532 856.923 324.939 856.397 323.963C854.794 321.809 853.461 319.466 852.426 316.988C851.599 316.901 850.815 316.579 850.166 316.06C849.517 315.54 849.031 314.846 848.765 314.058C847.674 310.967 844.542 309.615 843.191 306.828C842.952 306.375 842.581 306.003 842.129 305.762C838.308 303.553 834.841 300.78 831.846 297.538C830.694 296.398 829.453 295.352 828.135 294.409C824.975 292.025 821.513 290.073 817.838 288.604C817.078 288.375 816.369 288.004 815.746 287.511C814.312 286.244 812.801 285.067 811.222 283.986C807.111 280.88 803.302 277.395 799.844 273.575C799.457 273.148 799.108 272.689 798.8 272.202H795.54C793.971 271.663 794.254 269.899 793.299 269.249L791.395 269.14C788.891 266.629 786.235 264.274 783.442 262.089C781.073 259.895 778.818 257.581 776.688 255.156C774.047 252.843 771.803 250.152 768.508 247.541ZM665.165 218.442C664.157 215.53 662.766 212.764 661.029 210.217C658.715 207.584 658.733 203.85 656.004 201.525V197.643C655.247 197.162 654.988 196.127 653.579 196.285C652.507 196.942 651.829 198.762 650.039 198.522V203.881L653.09 206.931C652.225 210.404 656.306 211.344 657.064 214.078C657.955 217.292 661.888 218.122 662.437 221.468C663.262 221.558 664.036 221.91 664.645 222.472C665.68 223.238 666.931 223.657 668.218 223.669C669.505 223.681 670.764 223.287 671.813 222.541C675.542 220.821 678.94 218.459 681.852 215.562C682.846 215.341 683.761 215.889 684.384 215.109C682.112 210.548 678.563 206.894 676.122 202.376C673.769 198.021 671.766 193.495 669.765 189.026C666.043 190.004 662.684 192.041 660.097 194.89C660.235 196.299 661.166 196.785 661.281 197.935C661.62 199.938 662.229 201.887 663.094 203.726C663.904 205.769 665.752 207.132 666.383 209.472C667.327 211.451 668.405 213.364 669.61 215.196C669.913 215.674 670.103 216.215 670.164 216.778C670.226 217.341 670.158 217.91 669.965 218.442L665.165 218.442ZM698.022 206.437C696.127 206.864 695.353 205.69 694.502 204.729C693.19 203.246 691.203 202.286 690.591 200.281C690.038 198.467 688.304 197.553 687.598 196.026C686.64 194.567 685.574 193.18 684.41 191.879C683.441 190.367 681.953 189.282 682.37 187.091C682.551 186.144 681.467 185.473 680.147 184.943C678.946 187.504 676.334 185.296 674.392 186.492L677.726 189.362C680.264 196.202 685.087 201.591 687.879 208.159C688.379 209.334 688.503 211.201 690.862 211.511C692.332 209.147 695.743 209.214 698.022 206.437ZM699.605 200.743C699.957 202.352 699.072 204.063 700.518 205.842L704.734 201.845C704.781 200.159 704.434 198.708 705.287 197.864C703.667 194.366 701.252 191.295 698.235 188.895C695.217 186.496 691.681 184.835 687.908 184.045C687.486 184.871 687.379 185.822 687.607 186.721L691.517 190.63C691.785 191.417 691.191 192.31 691.534 192.674L699.605 200.743Z" fill="#222323"/>
<path d="M902.922 553.792C900.765 552.311 901.517 550.714 901.438 549.327C903.096 547.769 905.284 546.899 907.559 546.892C908.897 546.68 910.26 546.675 911.6 546.876C916.61 547.552 921.398 545.322 926.383 545.836C929.139 544.267 932.281 545.422 935.048 544.692C937.743 544.06 940.507 543.764 943.275 543.81C944.903 543.66 946.427 542.942 947.579 541.781C950.541 541.781 953.58 541.781 956.619 541.78C958.729 539.447 961.871 539.716 964.516 538.851C968.059 538.097 971.473 536.83 974.65 535.091C976.092 534.112 978.256 534.084 980.064 532.666C982.693 532.74 985.308 532.26 987.739 531.259C989.83 530.212 992.002 529.334 994.233 528.634C996.284 527.847 998.255 526.866 1000.12 525.704C1000.79 525.525 1001.48 525.466 1002.18 525.532C1003.2 524.573 1004.18 522.894 1005.41 522.691C1007.1 522.412 1006.57 519.875 1008.45 520.359C1011.87 516.935 1014.73 512.99 1016.92 508.672C1016.35 507.032 1017.51 505.678 1018.23 504.689C1019.76 502.593 1018.87 501.036 1017.93 499.309C1019.25 496.462 1018.99 494.802 1015.36 483.063C1014.39 483.926 1013.65 485.02 1013.21 486.243C1012.77 487.467 1012.65 488.781 1012.85 490.065C1011.37 493.437 1008.21 495.191 1007.47 499.05C1005.64 500.703 1004.12 503.418 1001.98 505.278C999.754 507.205 997.545 509.173 995.119 511.314L993.131 511.433L990.725 514.402H986.629L984.119 517.522C982.02 517.156 980.83 518.477 979.378 519.05C977.917 519.628 976.657 520.778 974.914 520.512C974.584 520.461 974.052 520.363 973.93 520.525C971.732 523.459 968.226 523.082 965.269 524.137C963.402 524.803 961.633 524.079 959.198 525.029L958.051 526.578C951.521 526.264 945.516 528.338 939.35 527.598C936.573 528.628 933.588 528.971 930.65 528.598C929.878 528.733 929.129 528.976 928.425 529.32C924.347 530.808 920.043 531.581 915.702 531.604C909.853 531.092 904.211 533.176 898.381 532.72C897.719 532.668 896.997 533.38 896.293 533.744C895.799 533.319 895.225 532.999 894.605 532.801C893.985 532.604 893.331 532.534 892.683 532.596C892.028 531.748 891.597 530.748 891.431 529.689C891.266 528.63 891.37 527.546 891.734 526.538C893.427 525.142 895.596 524.459 897.783 524.633C902.561 524.546 907.326 524.107 912.04 523.321C917.321 522.866 922.634 522.07 927.945 521.586C929.441 521.45 930.411 520.142 932.093 520.416C933.43 520.633 935.122 521.132 936.281 519.601C936.414 519.426 936.917 519.452 937.23 519.503C941.903 520.264 946.347 518.06 950.999 518.455C952.271 518.437 953.526 518.159 954.687 517.638C957.009 516.554 959.581 516.12 962.13 516.38C964.683 515.048 967.375 514.001 970.157 513.257C972.58 512.644 974.884 511.629 976.972 510.255C978.923 509.259 980.888 508.252 982.786 507.205C984.153 506.561 985.655 506.253 987.166 506.307C988.261 504.041 991.802 503.909 992.432 501.604C993.173 498.901 995.801 498.563 997.104 496.557C998.642 494.682 1000.06 492.715 1001.36 490.666C1002.08 488.413 1003.23 486.32 1004.74 484.504V478.438L1003.3 476.99C1001.28 476.504 999.705 478.158 997.654 478.042C995.548 477.508 993.323 477.72 991.355 478.642C989.715 479.736 987.304 477.948 985.932 479.918C981.43 478.507 976.61 478.464 972.083 479.795C970.275 478.359 967.727 479.061 965.307 478.979C962.81 479.345 960.268 479.273 957.796 478.766C955.264 477.63 952.906 478.405 950.618 477.689C946.35 475.573 941.873 473.91 937.258 472.726C935.507 471.755 934.489 469.703 932.97 468.181C931.594 466.802 929.772 465.776 929.19 464.887C927.998 462.52 929.787 461.714 929.775 460.427L928.786 459.053C928.602 457.961 929.368 457.693 929.85 457.028C928.746 453.966 931.26 451.158 930.727 448.055C934.153 446.205 934.219 446.125 934.919 442.698L937.916 440.29C937.742 439.663 937.749 438.999 937.937 438.375C938.125 437.752 938.486 437.195 938.978 436.768C941.502 434.981 943.283 432.33 943.983 429.317C944.871 427.137 945.618 424.902 946.222 422.626C947.277 419.856 947.205 416.783 946.02 414.065C944.836 411.348 942.634 409.203 939.886 408.09C939.251 407.794 938.884 407.29 938.276 407.017H933.241C931.384 407.017 929.512 407.159 927.672 406.976C926.072 407.074 924.509 407.497 923.077 408.219C919.638 408.714 916.268 409.601 913.031 410.862C911.078 411.935 909.072 413.821 906.369 413.123C906.138 413.063 905.745 413.302 905.541 413.512C901.516 417.643 895.651 419.614 892.703 425.136C891.107 428.125 887.567 429.47 884.671 431.243C883.63 431.983 884.487 433.183 883.853 434.256C883.179 435.814 879.89 435.102 880.09 437.9C879.246 438.13 878.476 438.574 877.854 439.189C877.232 439.804 876.779 440.57 876.54 441.411C876.08 442.757 874.404 442.972 873.347 443.388C868.664 445.235 864.395 447.87 859.893 450.045C857.54 451.322 854.987 452.189 852.343 452.61C852.009 452.649 851.537 452.469 851.35 452.637C847.975 455.654 843.863 454.486 840.01 454.615C836.299 454.74 832.58 454.623 828.865 454.648C825.499 454.515 822.168 453.917 818.966 452.87C817.648 452.617 816.309 452.498 814.967 452.514C807.391 449.023 799.003 447.675 790.714 448.614C788.908 449.451 787.052 450.177 785.156 450.787C782.67 451.405 779.301 451.773 778.534 455.34C776.772 456.044 775.111 456.98 773.596 458.123C772.188 459.215 769.775 459.247 768.729 460.511C767.488 462.01 765.396 462.397 764.565 464.791V471.318C766.497 473.375 767.922 475.854 768.726 478.559C766.449 481.696 766.313 481.71 761.252 479.338L758.809 474.609C759.415 473.208 759.721 471.695 759.706 470.168C759.692 468.641 759.358 467.134 758.727 465.744C757.864 464.282 760.408 463.175 758.553 462.151C759.89 461.885 758.831 459.676 760.493 459.725C761.347 459.75 761.648 459.07 762.042 458.604C762.282 458.336 762.436 458.001 762.482 457.644L782.591 443.515C786.293 444.388 790.143 442.158 794.31 442.424C798.515 442.692 802.75 442.462 806.972 442.493C808.729 442.576 810.47 442.863 812.161 443.347C818.274 445.419 824.678 446.507 831.133 446.571C832.895 446.56 834.649 446.821 836.332 447.344C839.224 448.096 842.288 447.826 845.004 446.579C847.525 445.361 850.29 444.65 852.815 443.438C854.126 442.602 855.335 441.617 856.418 440.502H860.327C862.788 437.718 865.754 435.425 869.067 433.743C870.811 428.883 876.925 427.975 878.678 423.123C882.853 419.071 887.712 415.762 891.513 411.305C895.601 410.089 898.41 406.149 902.967 405.934C906.329 402.983 910.877 403.024 914.718 401.282C915.002 401.153 915.316 400.923 915.587 400.959C919.413 401.463 922.955 399.298 926.83 399.874C929.41 400.258 931.803 398.733 934.511 398.822C940.621 399.078 946.453 401.442 951.017 405.512C952.436 406.699 953.661 408.119 955.004 409.462C954.615 412.996 958.729 415.084 958.038 418.728C957.96 419.139 957.413 419.462 957.142 419.761C956.836 421.104 959.02 421.905 958.071 422.926C956.46 424.659 957.896 427.118 956.2 428.793C954.825 429.909 953.796 431.393 953.231 433.072C952.951 434.664 951.64 435.976 952.021 437.552C948.708 442.024 945.259 446.3 942.272 450.878C940.721 453.11 939.888 455.763 939.885 458.482C939.913 459.473 940.068 460.529 939.021 461.104C941.318 465.176 946.106 465.852 949.348 468.659C951.336 468.466 953.066 469.875 954.934 469.775C958.263 469.597 961.274 471.292 964.658 470.933C968.028 470.705 971.409 470.686 974.782 470.876C976.211 470.902 977.803 470.319 978.967 471.835C979.155 472.079 980.045 472.058 980.425 471.839C983.535 470.042 986.947 471.358 990.146 470.805C993.968 470.418 997.762 469.794 1001.51 468.935C1004.4 468.604 1007.33 469.147 1009.91 470.494C1012.12 471.415 1014.17 472.701 1015.96 474.299C1020.1 478.144 1023.5 482.709 1026.01 487.772C1026.65 489.363 1025.06 491.749 1026.93 493.531C1024.78 495.477 1027.55 497.24 1027.15 499.244C1026.91 501.424 1026.88 503.623 1027.06 505.809C1025.76 506.854 1026.06 509.071 1024.1 509.496V513.372C1023.55 514.629 1022.79 515.785 1021.85 516.792C1018.46 521.307 1014.42 525.297 1009.87 528.636C1004.86 532.2 999.396 535.061 993.617 537.14C991.74 537.975 989.738 538.494 987.692 538.675C985.806 538.899 983.989 539.522 982.362 540.503C980.32 541.553 978.02 541.994 975.735 541.771C974.871 543.44 973.227 543.532 971.66 544.068C966.883 546.228 961.758 547.516 956.527 547.869C956.198 547.862 955.786 547.784 955.551 547.943C951.731 549.865 947.405 550.54 943.181 549.873C940.327 550.205 937.502 550.755 934.731 551.517C932.111 552.223 929.425 552.66 926.715 552.819C921.695 552.517 916.889 554.09 911.93 553.945C908.814 556.179 905.789 553.71 902.922 553.792Z" fill="#232323"/>
<path d="M497.87 652.657C497.941 652.102 498.052 651.103 498.886 650.857C502.893 649.677 505.105 645.173 509.892 645.031L515.862 639.063C516.822 639.108 517.781 638.93 518.661 638.543C519.541 638.155 520.319 637.568 520.934 636.829C522.714 634.667 524.91 632.885 527.393 631.589C530.057 630.468 531.168 627.536 534.011 626.748C534.861 626.512 535.43 625.35 536.188 624.68C538.272 622.836 539.781 620.322 542.56 619.272C543.01 619.03 543.383 618.664 543.633 618.217C544.967 616.24 545.969 613.943 548.6 613.271C548.762 610.465 551.765 609.755 552.869 607.451C554.089 605.357 555.499 603.381 557.082 601.547C559.051 598.906 560.544 595.889 562.474 593.151C563.49 591.709 562.733 589.417 564.657 587.945C566.122 586.825 566.086 584.504 566.71 582.784C567.842 579.659 569.637 576.898 570.652 573.592C569.83 572.743 569.369 571.669 570.961 570.677C570.148 565.668 571.03 560.531 573.469 556.081C573.579 551.869 570.811 548.275 572.632 544.072C570.913 540.208 569.897 536.069 569.631 531.849L567.939 530.157V525.042C566.755 524.096 565.793 522.901 565.123 521.541C564.452 520.181 564.089 518.69 564.06 517.174C563.482 514.103 562.383 511.154 560.81 508.454C560.581 505.234 560.05 502.042 559.225 498.921C558.962 495.749 556.711 492.626 558.685 489.173C559.106 487.706 559.131 486.154 558.758 484.675C558.65 483.422 560.42 482.192 558.789 480.952C558.899 477.102 559.648 473.298 561.006 469.693C561.498 468.14 561.471 466.55 562.078 464.95L563.581 464.637C563.946 461.873 564.918 459.223 566.426 456.877C569.918 450.358 574.201 444.295 579.177 438.825C579.868 438.157 580.39 437.159 581.62 437.388C582.616 435.882 583.212 434.148 583.35 432.348C585.592 431.349 587.559 429.823 589.082 427.898C590.558 426.173 592.309 424.703 594.264 423.546C594.687 420.832 597.504 420.615 599.005 419.017C600.562 417.236 602.243 415.567 604.035 414.023C609.503 409.784 614.718 405.228 619.653 400.378C620.349 399.572 621.214 398.929 622.187 398.494C623.159 398.059 624.215 397.843 625.28 397.861C627.801 394.895 630.947 392.522 634.492 390.915C635.891 390.201 635.939 388.224 637.855 388.21C639.442 388.199 640.182 386.18 641.409 385.886C643.318 385.426 644.071 383.945 645.223 382.852C647.001 381.531 648.957 380.469 651.034 379.698C657.021 376.538 663.025 373.477 668.741 369.774C672.34 367.252 676.414 365.486 680.716 364.585C682.756 364.244 683.549 361.452 685.936 362.431C686.986 360.748 689.086 361.251 690.617 360.142C693.116 358.859 695.776 357.919 698.526 357.349C701.616 356.252 704.719 355.165 707.71 353.834C710.169 352.74 712.664 353.816 714.858 353.188C716.669 354.294 718.039 355.994 718.735 357.998C718.065 358.925 717.216 359.709 716.239 360.303C715.262 360.897 714.176 361.289 713.045 361.457C710.042 361.758 707.746 363.964 704.735 364.709C701.858 365.012 699.185 366.338 697.204 368.447C695.285 368.424 693.4 368.953 691.773 369.972C685.444 373.811 678.19 375.617 671.855 379.465C668.201 381.363 664.695 383.531 661.365 385.953C659.505 387.11 657.485 387.989 655.369 388.56C653.994 388.961 652.735 389.685 651.696 390.671C650.017 392.212 648.258 393.663 646.427 395.02C645.395 395.998 644.29 395.654 643.029 396.094C640.219 399.389 636.744 402.053 632.831 403.909C632.297 404.246 631.452 404.511 631.315 404.998C630.355 408.399 627.008 409.212 624.667 410.957C622.361 412.677 620.866 415.606 617.723 416.101C616.353 416.317 615.924 417.492 615.034 418.186C613.107 420.217 610.988 422.058 608.707 423.681C606.969 424.59 606.246 426.997 604.767 428.569C602.704 430.764 599.969 432.062 597.957 434.241C594.349 438.034 590.983 442.049 587.879 446.264C586.515 448.086 585.045 449.826 583.479 451.477C581.041 454.159 580.188 457.898 577.208 460.131C576.854 460.396 577.048 461.389 576.959 462.356C573.368 464.407 572.829 468.468 572.136 472.14C571.446 473.95 571.01 475.846 570.841 477.776C570.968 479.619 571.885 481.82 570.002 483.454C572.002 485.98 570.691 488.901 570.888 491.625C571.17 494.315 571.783 496.96 572.715 499.5C572.986 500.276 573.065 501.106 572.945 501.919C572.796 504.683 573.291 507.444 574.391 509.985C574.837 511.637 574.684 513.199 575.061 514.825C576.185 516.074 577.036 517.544 577.558 519.142C578.081 520.739 578.265 522.427 578.098 524.099L581.083 527.084C581.168 529.863 580.521 532.959 583.207 535.296C582.997 538.035 583.32 540.789 584.157 543.406C584.444 545.972 583.02 548.769 585.785 551.24L582.964 552.58C583.365 555.568 582.46 557.946 584.13 559.968C584.374 561.105 581.457 561.982 583.443 562.971C584.162 563.533 583.903 563.667 583.717 564.027C582.432 566.73 581.493 569.584 580.922 572.522C580.208 576.562 579.262 580.557 578.086 584.487C577.034 587.431 575.605 590.206 574.583 593.18C573.461 596.243 571.515 598.937 568.96 600.964V604.082C565.267 607.31 562.128 611.121 559.667 615.363C559.524 615.675 559.271 615.925 558.956 616.063C555.952 616.866 555.074 619.762 553.297 621.761C550.663 624.451 547.735 626.837 544.568 628.872C544.2 629.135 543.783 629.224 543.576 629.717C542.649 631.922 540.623 632.911 538.866 634.334C534.588 637.798 529.688 640.389 525.651 644.199C523.489 646.093 521.092 647.701 518.519 648.983C514.837 650.961 511.965 654.001 508.214 655.831C506.699 656.57 505.196 657.51 503.697 658.374C500.002 660.502 496.34 662.706 492.701 664.933C489.63 666.813 486.414 668.496 483.304 670.356C480.395 672.215 477.349 673.847 474.191 675.239C468.661 677.462 463.837 681.027 458.049 682.809C454.509 684.062 451.129 685.729 447.979 687.774C443.763 690.303 438.561 690.474 434.707 693.694C428.136 694.116 422.547 698.052 416.074 698.919C414.602 699.106 413.25 699.824 412.27 700.937C407.661 700.062 403.575 702.926 399.039 703.006C397.724 704.604 395.919 703.844 394.345 703.851C392.822 703.858 391.869 705.46 390.194 704.954C388.418 704.676 386.6 705.03 385.058 705.954C383.217 706.513 381.322 706.874 379.404 707.031C374.156 707.577 368.95 708.472 363.821 709.71C361.607 710.058 359.355 710.092 357.131 709.811C356.91 707.945 357.931 706.952 359.544 707.025C360.846 707.118 362.134 706.713 363.148 705.892C365.329 704.095 368.077 705.145 370.52 704.063C374.139 702.778 377.913 701.978 381.742 701.682C386.696 700.936 391.636 699.622 396.553 698.423C402.367 697.005 408.117 695.283 413.824 693.568C417.907 693.059 421.791 691.513 425.106 689.076C425.549 688.633 426.013 688.793 426.481 688.701C431.441 687.726 435.458 684.117 440.599 683.641C443.456 681.392 446.722 679.718 450.215 678.712C457.744 675.394 464.452 670.674 471.74 667.041C475.543 664.541 479.593 662.44 483.828 660.771C484.601 660.604 485.315 660.231 485.894 659.693C489.559 656.831 493.586 654.465 497.87 652.657V652.657Z" fill="#222322"/>
<path d="M489.417 514.591C491.106 514.223 492.869 514.407 494.445 515.117C496.021 515.827 497.328 517.025 498.171 518.533C495.778 522.008 494.284 525.989 491.922 529.521C489.678 532.592 487.008 535.327 483.992 537.644C483.476 538.078 482.558 538.367 482.068 538.971C479.227 542.476 474.951 544.387 472.161 547.904C471.362 548.911 470.148 548.793 469.266 549.586C468.428 550.34 467.073 549.888 466.023 549.8C464.101 548.723 464.555 546.948 464.54 545.734C467.31 541.117 471.638 538.201 474.126 533.747C474.513 533.054 475.56 532.961 476.116 532.572C479.418 529.448 482.294 525.903 484.67 522.027C485.172 521.434 484.457 519.922 484.863 519.116C485.846 517.167 486.936 515.167 489.417 514.591Z" fill="#242424"/>
<path d="M429.559 571.168H435.699L438.179 574.001C438.149 574.434 437.996 574.849 437.739 575.198C436.993 576.706 435.955 578.051 434.685 579.157C433.416 580.262 431.941 581.105 430.344 581.637C429.352 581.921 428.623 583.197 427.823 584.063C426.778 585.29 425.309 586.08 423.709 586.276C421.503 586.633 419.428 587.557 417.687 588.959C414.605 590.793 411.318 592.261 407.894 593.331C406.543 593.721 405.226 594.223 403.959 594.833C400.61 596.665 396.84 597.586 393.024 597.504C392.538 596.727 391.525 596.473 391.548 595.465C391.647 595.168 391.775 594.882 391.931 594.612C395.881 590.382 400.864 587.253 406.389 585.533C409.25 584.649 411.922 583.243 414.271 581.386C419.467 578.97 424.299 575.84 428.628 572.086C428.966 571.809 429.278 571.502 429.559 571.168Z" fill="#252524"/>
<path d="M494.289 431.203L492.355 428.5C493.364 427.87 492.793 426.414 492.907 425.144C493.02 424.852 493.169 424.576 493.35 424.321C495.769 422.4 497.414 419.671 497.983 416.635C500.539 414.82 500.281 411.509 501.968 409.171C503.603 406.904 504.596 404.184 506.113 401.818C507.386 399.749 509.155 398.03 511.258 396.816C513.362 395.602 515.735 394.93 518.163 394.862C520.088 394.747 522.144 395.395 523.469 393.51C524.569 394.548 524.492 395.207 523.78 395.924C521.946 397.558 520.361 399.452 519.076 401.545C518.369 402.885 517.309 404.006 516.01 404.786C515.376 405.176 514.859 405.73 514.514 406.389C514.169 407.049 514.008 407.79 514.049 408.533C514.025 409.537 512.475 410.323 511.919 411.637C511.389 413.174 510.455 414.54 509.214 415.591C507.636 416.745 506.532 418.435 506.11 420.344C505.603 422.633 503.241 423.772 502.767 426.039C499.507 426.875 498.466 431.026 494.289 431.203Z" fill="#252524"/>
<path d="M575.793 360.126L578.437 357.483C581.464 357.301 584.433 356.57 587.199 355.326C588.692 355.879 590.053 356.736 591.195 357.844C591.662 359.414 590.646 360.618 589.761 362.251C588.76 362.958 586.873 363.112 585.599 364.496C581.737 364.135 577.867 365.111 574.639 367.262C573.305 368.172 571.716 368.635 570.101 368.582C568.348 368.485 567.642 371.471 565.375 370.541C559.946 373.024 553.966 374.054 548.019 373.531C547.33 372.316 547.744 371.138 547.667 370.003C550.937 368.077 554.589 366.887 558.368 366.517C558.983 366.371 559.567 366.112 560.089 365.754C563.628 364.12 567.337 362.817 570.756 360.973C572.442 360.064 574.031 360.913 575.793 360.126Z" fill="#262625"/>
<path d="M495.499 450.506C496.311 452.645 496.834 454.882 497.054 457.159C496.983 459.175 496.004 461.498 497.895 463.227C495.939 465.679 497.942 468.456 497.326 470.767C496.664 473.254 498.215 476.126 495.667 477.991L496.842 479.394C495.522 481.884 493.221 480.751 491.226 480.99C489.158 476.958 488.201 472.447 488.454 467.922L487.229 466.697C488.631 462.136 485.574 457.695 486.999 453.388C486.458 452.607 485.676 452.357 485.824 451.446C486.293 450.443 487.31 450.095 488.193 449.456C491.285 447.218 493.271 449.349 495.499 450.506Z" fill="#252525"/>
<path d="M675.957 345.463L673.593 342.379C674.041 339.143 678.282 338.915 679.737 336.088L681.653 337.466C684.86 332.585 690.884 333.031 694.814 329.586L699.475 332.027V336.837C695.597 338.164 691.887 339.939 688.42 342.124C684.774 344.713 680.091 343.713 675.957 345.463Z" fill="#272626"/>
<path d="M630.209 343.225C637.714 343.137 637.714 343.137 639.705 344.534L638.489 347.118C634.772 348.35 630.921 349.131 627.019 349.446L625.202 351.262H619.683L616.654 348.878C616.466 347.824 616.74 347.477 617.218 347.232C619.906 346.314 622.68 345.672 625.497 345.313C627.231 345.068 628.863 344.345 630.209 343.225V343.225Z" fill="#353130"/>
<path d="M626.558 569.42L629.12 564.235C630.256 563.441 632.42 563.72 632.995 561.224C634.245 560.446 636.507 561.934 637.597 559.832C640.099 561.772 642.841 560.742 645.459 561.094C647.622 563.208 650.188 564.866 653.005 565.968C658.155 568.877 663.014 572.275 667.512 576.116C668.35 576.848 669.329 577.403 670.387 577.747C674.857 579.425 678.985 581.9 682.57 585.051C684.921 586.521 686.097 589.495 688.969 590.421C691.945 594.245 696.705 595.845 699.991 599.312C703.243 602.742 706.654 606.022 710.008 609.354C710.377 609.862 710.672 610.419 710.886 611.009C712.359 614.183 714.228 617.157 716.45 619.861C717.98 621.39 717.411 623.856 718.713 625.214C717.944 628.259 714.849 629.593 714.158 632.345C705.923 635.455 703.775 633.664 695.793 631.481C690.87 629.468 686.097 627.109 681.507 624.421C674.813 621.143 668.472 617.188 662.584 612.618C656.643 608.872 651.192 604.4 646.358 599.305C641.155 593.884 636.342 588.101 631.958 581.998C630.078 579.292 628.686 576.277 627.845 573.091C627.566 571.814 626.299 570.904 626.558 569.42ZM635.789 570.664C635.756 572.281 636.065 573.888 636.696 575.378C637.327 576.868 638.266 578.207 639.45 579.309C641.553 581.575 643.052 584.274 644.992 586.621C647.942 590.254 651.274 593.559 654.932 596.478C658.409 598.778 661.741 601.288 664.912 603.994C668.017 607.049 671.626 609.547 675.58 611.376C676.608 611.875 677.764 612.165 678.346 613.208C679.144 614.637 680.717 614.96 681.929 615.619C685.484 617.553 689.316 618.977 692.889 620.884C694.404 621.692 696.278 622.164 696.988 623.652H705.839C705.493 623.201 705.216 622.99 705.145 622.725C703.618 617.454 700.676 612.702 696.639 608.985C694.865 607.226 691.708 606.842 691.239 603.774C688.261 602.773 687.216 599.605 684.66 597.959C682.677 596.958 680.767 595.819 678.944 594.55C673.479 588.907 667.425 583.865 660.887 579.51C658.293 576.577 655.152 574.178 651.639 572.448C649.88 570.751 647.741 569.497 645.4 568.791C643.059 568.086 640.584 567.948 638.179 568.391L635.789 570.664Z" fill="#232323"/>
<path d="M768.598 248.766V254.52C767.801 255.26 767.2 256.186 766.848 257.214C766.496 258.243 766.404 259.342 766.58 260.415C763.869 263.525 760.926 266.426 757.777 269.093C755.533 270.794 753.08 272.2 750.479 273.277C748.979 273.811 747.592 274.622 746.391 275.667C745.795 276.436 745.047 277.075 744.194 277.543C743.342 278.011 742.402 278.3 741.434 278.391C740.346 278.555 739.316 278.986 738.437 279.647C735.71 281.537 732.621 282.842 729.365 283.48C727.423 283.851 725.872 285.495 723.874 286.079C717.858 287.84 711.952 290.124 705.83 291.314C702.898 292.379 699.77 292.793 696.662 292.526C696.342 292.45 695.882 292.374 695.668 292.537C693.228 294.397 691.401 292.692 689.187 291.814C688.028 291.258 687.001 290.461 686.174 289.475C685.348 288.49 684.742 287.339 684.396 286.1C684.756 283.114 687.827 281.079 687.531 277.91C688.897 275.995 690.962 274.849 691.917 272.543C692.581 270.942 694.772 270.591 696.107 269.335C699.821 265.502 704.124 262.287 708.853 259.812C713.099 256.823 717.74 254.438 722.643 252.727C727.457 251.378 732.172 249.701 736.757 247.707C738.856 247.044 740.989 246.444 743.109 245.999C744.937 245.758 746.647 244.963 748.009 243.721C752.658 244.902 757.26 242.414 762.064 242.918C763.905 245.029 766.801 245.764 768.598 248.766ZM757.551 248.388C755.985 250.675 753.695 249.329 752.003 250.036C745.651 251.699 739.392 253.702 733.255 256.037C729.648 256.032 726.966 258.953 723.422 259.148C720.987 262.249 716.87 261.954 713.768 263.998C707.439 267.847 701.509 272.317 696.066 277.341C694.516 278.756 693.322 280.516 692.58 282.479L694.065 285.388C697.869 285.761 701.445 283.748 705.272 284.357C705.468 284.388 705.723 283.734 705.985 283.705C708.834 283.383 711.419 282.009 714.15 281.5C716.806 281.146 719.368 280.28 721.693 278.948C724.212 277.309 727.303 277.782 729.652 276.162C731.175 275.021 732.97 274.299 734.859 274.066C736.937 273.864 737.87 271.847 739.648 271.006C740.828 270.448 742.236 270.717 743.199 269.787C744.636 267.991 746.443 266.527 748.498 265.495C753.122 263.451 756.962 259.968 759.446 255.565C759.634 254.303 759.563 253.015 759.237 251.781C758.911 250.547 758.337 249.393 757.55 248.388H757.551Z" fill="#242424"/>
</svg>
