<svg width="1208" height="900" viewBox="0 0 1208 900" fill="none" xmlns="http://www.w3.org/2000/svg">
<path d="M720.887 396.757C724.077 396.597 726.284 394.265 729.231 393.385C729.535 389.014 728.514 384.653 726.301 380.872C727.017 376.831 724.801 372.656 725.266 368.208C726.085 363.438 727.19 358.721 728.577 354.084C728.733 353.398 729.693 352.895 730.291 352.298V348.327C733.601 345.479 736.379 342.064 738.495 338.244C738.761 337.639 739.16 337.103 739.662 336.673C740.163 336.244 740.755 335.932 741.393 335.762C742.096 335.595 743.2 334.806 743.188 334.322C743.123 331.729 746.656 332.169 746.75 329.854C750.544 328.351 754.021 326.148 756.999 323.358C759.604 321.576 762.57 320.574 765.116 318.672C767.522 317.009 770.209 315.794 773.047 315.086C775.307 314.464 776.818 311.506 779.645 312.862C781.502 311.239 783.997 311.32 786.12 310.418C786.539 310.239 786.835 309.853 787.39 309.854C791.934 309.864 796.341 308.371 800.959 308.809C804.258 309.122 807.61 308.823 810.937 308.887C813.022 308.644 815.135 308.949 817.066 309.771C818.653 310.643 821.004 308.971 822.608 310.821C826.583 310.068 829.828 313.304 833.742 312.854C834.496 312.767 834.917 313.481 835.428 313.579C837.747 314.021 839.918 315.505 842.393 314.831C843.616 314.498 844.067 315.666 845.035 315.875C846.338 315.815 846.698 314.442 847.399 314.02C852.237 313.584 857.096 314.588 861.364 316.906C867.001 319.479 872.426 322.494 877.587 325.923C878.265 326.369 878.797 327.004 879.119 327.749C880.309 329.858 882.027 331.621 884.104 332.865C887.284 334.897 889.963 337.622 891.941 340.836C893.605 343.846 896.947 345.811 897.316 349.575C899.97 351.77 899.992 355.648 902.614 357.858C903.586 358.678 902.503 360.072 903.618 360.98C904.175 361.434 903.151 362.467 903.896 363.527C904.522 364.417 904.128 366.108 903.993 367.425C903.959 368.492 904.256 369.543 904.843 370.434C903.549 371.08 905.383 372.316 904.154 373.406C903.295 374.167 905.978 375.844 904.663 377.707C903.772 378.976 903.233 380.459 903.101 382.005C902.917 385.044 901.666 387.809 901.23 390.686C900.941 392.602 899.031 393.159 899.06 394.819C898.909 396.223 898.366 397.556 897.494 398.666C896.125 400.96 895.286 403.531 895.036 406.191C892.344 408.885 890.133 412.02 888.497 415.459C888.382 415.517 887.33 415.689 887.074 416.234C885.485 419.609 881.677 420.678 879.677 423.566C879.062 424.454 878.06 424.505 877.258 424.977C875.411 425.805 873.696 426.898 872.166 428.222C870.665 429.634 868.867 430.691 866.903 431.316C863.95 432.622 861.049 434.078 858.012 435.148C855.398 436.069 852.654 436.579 850.031 437.575C846.309 439.162 842.41 440.295 838.418 440.951C837.803 441.028 837.065 441.732 836.232 441.613C832.624 441.1 829.278 443.267 825.662 442.619C818.667 443.685 811.588 444.095 804.517 443.845C803.154 445.336 801.352 446.355 799.372 446.755C799.242 449.908 796.132 450.046 794.411 451.46C792.91 452.693 790.749 453.247 789.411 454.905C788.949 455.478 788.31 455.434 787.713 455.644C784.728 456.661 782.009 458.332 779.752 460.534C775.311 465.995 769.493 470.172 762.899 472.634C760.791 473.668 758.765 474.86 756.837 476.2C755.318 477.255 753.922 479.192 751.475 478.919C751.011 478.978 750.563 479.129 750.157 479.362C749.751 479.595 749.395 479.905 749.109 480.276C747.522 481.82 745.648 483.039 743.593 483.863C742.91 484.204 742.043 484.282 741.501 484.842C736.466 490.048 729.785 493.094 724.417 497.866C723.557 498.531 722.614 499.082 721.611 499.503C719.662 500.325 717.992 501.693 716.801 503.441C715.949 504.801 714.707 506.045 712.822 505.461C707.222 510.748 701.1 515.451 694.548 519.498C691.124 522.065 687.455 524.261 684.154 527.039C680.818 529.675 677.321 532.099 673.682 534.298C671.837 535.492 670.685 537.601 668.298 538.115C666.65 538.47 665.239 539.771 663.365 539.452C662.886 539.371 662.219 539.254 661.906 539.497C658.248 542.335 654.738 540.658 651.022 539.512C646.89 538.236 642.851 536.621 638.875 535.065C635.311 533.51 631.9 531.623 628.689 529.431C623.013 532.735 617.508 536.324 612.195 540.184C609.287 542.271 606.005 543.782 602.528 544.633C599.913 545.691 597.138 546.302 594.321 546.442C590.107 546.061 586.076 544.544 582.656 542.053C581.411 541.166 581.42 539.541 580.52 538.497C582.036 535.424 584.213 532.724 586.894 530.59C589.279 530.88 588.37 527.287 591.002 527.284C592.42 527.282 593.714 524.976 595.282 524.587C597.358 524.073 597.685 521.39 600.002 521.404C600.471 521.407 600.938 520.527 601.417 520.066C602.712 518.661 604.359 517.627 606.188 517.071C608.782 516.343 610.851 514.067 613.452 513.05C613.595 512.256 613.54 511.44 613.292 510.673C613.044 509.905 612.611 509.211 612.03 508.652C610.278 506.399 609.725 503.568 607.98 501.281C607.029 499.845 606.499 498.172 606.451 496.45C606.538 494.405 607.071 492.403 608.011 490.584C610.714 484.64 614.006 478.982 617.837 473.694C618.717 472.293 620.915 472.056 621.344 470.753C622.044 468.625 623.541 468.884 625.041 468.372C626.484 467.88 626.937 465.664 628.868 465.576C629.192 464.046 630.632 463.689 631.648 462.854C636.34 458.998 641.273 455.448 646.043 451.694C649.677 448.833 652.69 445.408 656.151 442.431C659.598 439.312 663.236 436.411 667.044 433.744C669.037 432.501 670.93 431.105 672.707 429.57C674.732 427.704 677.941 427.466 679.138 424.653C684.1 422.276 688.713 419.231 692.848 415.602C696.742 413.472 700.365 410.882 703.64 407.887C708.332 405.748 712.757 403.068 716.826 399.901C718.422 398.977 719.433 397.549 720.887 396.757ZM792.026 441.303C789.284 439.188 786.138 439.765 783.282 438.791C780.544 437.858 778.005 435.458 775.083 436.638C770.663 434.296 766.604 432.022 762.558 429.747C758.23 427.17 754.096 424.28 750.19 421.099C748.354 419.68 747.684 417.089 745.872 416.018C744.369 415.13 743.803 413.872 742.765 412.833C741.58 411.645 741.367 409.947 740.043 408.911C736.757 406.236 734.276 402.702 732.878 398.702C732.054 398.702 731.323 398.487 731.093 398.736C729.052 400.468 726.772 401.896 724.323 402.976C721.031 404.952 718.329 407.616 715.161 409.694C709.791 413.215 704.451 416.78 699.139 420.389C694.717 423.394 690.381 426.525 685.96 429.532C683.118 431.465 680.147 433.307 677.448 435.339C673.433 438.286 669.579 441.443 665.899 444.799C663.163 446.827 660.57 449.041 658.138 451.426C657.101 452.704 654.952 452.55 654.456 454.289C653.954 456.046 652.208 456.444 651.078 457.186C649.754 458.067 648.512 459.064 647.365 460.166C646.429 461.332 645.348 462.375 644.15 463.27C640.907 464.996 638.492 467.837 635.286 469.553C632.062 471.279 630.269 474.77 626.607 476.105C624.773 476.923 623.336 478.433 622.61 480.306C621.345 482.889 619.596 485.206 617.458 487.131C618.065 490.621 615.151 492.876 614.465 495.968C614.959 496.525 615.768 496.99 615.443 498.023L614.648 498.899C616.173 502.423 618.645 505.302 620.387 508.598C620.993 509.745 621.998 510.44 622.584 511.66C625.589 517.29 630.012 522.038 635.416 525.433C636.943 526.779 638.714 527.818 640.634 528.495C643.029 529.079 645.355 529.917 647.573 530.995C650.07 532.232 652.769 533.013 655.541 533.301C658.307 532.985 660.964 532.036 663.306 530.529C665.252 529.643 666.019 527.24 668.336 527.023C669.087 524.428 671.999 524.464 673.469 522.82C675.184 521.188 677.193 519.896 679.39 519.013C679.357 518.324 679.221 517.613 679.936 517.52L682.367 517.385L685.838 513.487H687.881C690.097 511.058 692.626 508.934 695.4 507.169C702.089 501.962 709.193 497.277 716.27 492.592C717.804 491.549 719.07 490.159 719.965 488.535C720.291 488.497 720.68 488.566 720.914 488.407C723.773 486.21 726.786 484.222 729.929 482.457C732.186 481.353 733.488 478.731 735.56 478.027C738.784 476.932 740.678 474.077 744.013 473.057C747.14 472.018 749.977 470.252 752.291 467.905C752.898 467.376 753.611 466.982 754.383 466.751C755.155 466.52 755.967 466.457 756.765 466.566C757.695 465.709 758.722 464.963 759.825 464.345C762.459 462.897 764.939 461.185 767.225 459.234C770.941 456.041 774.888 453.129 779.035 450.52C783.796 448.105 788.174 444.999 792.026 441.303V441.303ZM788.844 348.619C781.609 353.695 774.873 359.448 768.727 365.799C767.913 365.58 767.072 366.089 766.34 365.381C762.513 361.675 757.792 359.032 754.116 355.141C753.562 354.554 752.984 354.621 752.336 355.17C754.081 358.193 756.45 360.81 759.285 362.848C761.706 364.763 764.933 365.888 766.516 369.103C762.268 373.026 758.487 377.427 755.248 382.219C754.111 380.938 752.886 379.738 751.582 378.628C750.252 377.643 750.463 375.373 748.333 374.835C747.877 379.114 751.32 380.834 753.322 383.428C753.084 384.183 753.643 385.138 752.769 385.705C751.198 386.724 750.899 388.649 749.737 390.007C749.143 390.7 747.428 392.021 748.603 393.639C751.749 391.624 753.188 388.171 755.654 385.801L770.64 397.479L763.289 404.826C763.447 405.252 762.825 406.215 764.316 406.883C766.681 403.768 769.388 400.928 772.386 398.415C779.839 402.25 786.573 407.746 794.41 411.75C791.2 412.739 788.626 414.632 785.638 415.727C782.163 416.484 778.834 417.801 775.781 419.625C775.635 419.776 775.524 419.956 775.455 420.154L776.584 421.582C777.589 421.825 777.978 421.088 778.519 420.927C783.556 419.481 788.511 417.762 793.362 415.78C794.84 415.163 796.478 413.974 798.396 414.66C800.053 415.022 801.664 415.567 803.201 416.283C807.118 418.821 811.144 421.144 815.27 423.313C815.643 423.509 815.759 423.749 816.004 423.307C816.5 423.044 816.888 422.615 817.1 422.095C817.313 421.576 817.337 420.998 817.168 420.463C814.838 418.911 812.425 417.487 809.94 416.198C807.735 414.839 804.866 414.535 803.047 411.842L824.176 400.57C827.533 402.318 831.031 403.779 834.633 404.939C838.469 406.468 842.307 408.102 846.098 409.779C850.279 410.876 854.297 412.522 858.048 414.672C859.465 414.203 860.268 415.731 861.628 415.718C863.461 415.701 864.799 415.306 865.175 413.185C862.163 411.468 858.703 411.06 855.658 409.638C852.69 408.252 849.259 407.929 846.555 406.371C843.341 405.256 840.206 403.924 837.172 402.383C834.571 400.401 830.723 400.625 827.912 398.007C836.333 393.208 844.372 387.767 851.957 381.733C854.952 382.539 857.766 383.909 860.248 385.77C861.447 386.602 862.923 386.935 864.363 386.697C864.604 386.697 864.845 386.345 865.062 386.176V384.155C862.695 383.012 860.34 381.868 857.979 380.737C856.916 380.228 855.97 379.646 856.083 378.426C857.892 375.617 861.234 374.736 863.058 372.219C864.931 369.635 868.074 368.825 870.242 366.48C872.325 364.37 874.553 362.409 876.909 360.61C878.867 361.631 880.305 363.026 882.395 362.767C883.07 362.135 884.127 361.782 884.062 360.612C883.552 358.423 881.484 359.045 880.164 358.508L879.913 355.803C878.224 355.921 876.537 355.215 875.132 356.292C874.236 356.978 874.138 355.965 873.686 355.929C869.271 355.09 865.023 353.534 861.111 351.322C858.987 350.427 857.207 348.642 854.671 348.795C852.504 346.584 848.335 347.365 846.917 343.411L850.615 340.834C855.267 339.367 859.535 335.117 865.011 333.333C865.337 333.24 865.622 333.039 865.818 332.763C866.014 332.486 866.109 332.151 866.088 331.813C866.086 330.837 865.09 330.589 864.619 329.831C863.684 329.831 862.697 329.821 861.71 329.843C861.579 329.846 861.451 330.01 861.379 330.06C856.397 335.72 848.671 337.009 843.432 341.852C842.133 341.624 841.112 341.905 839.946 341.24C833.727 338.467 827.739 335.203 822.038 331.48C823.538 329.624 825.978 329.554 827.309 328.071C829.748 325.35 833.346 324.815 836.27 323.031C838.696 321.729 840.978 320.178 843.082 318.403L841.664 316.864C840.696 316.779 839.721 316.933 838.825 317.312C837.93 317.691 837.141 318.284 836.527 319.038C835.016 320.669 833.075 321.841 830.927 322.417C827.122 324.158 823.514 326.302 820.165 328.812H815.663C813.634 326.64 810.902 325.408 808.853 323.264C808.305 322.69 806.836 320.934 805.136 322.294C808.268 325.811 811.847 328.902 815.781 331.489C811.738 332.948 809.37 335.978 805.68 337.214L792.038 346.444C784.09 342.287 776.386 337.677 768.965 332.637C767.832 333.628 768.262 334.588 768.466 335.682C775.096 339.803 782.137 343.515 788.844 348.619V348.619Z" fill="#212222"/>
<path d="M408.584 519.467C408.2 519.627 407.527 519.194 406.951 519.819C402.311 523.641 397.433 527.165 392.347 530.369C390.839 531.456 389.067 532.118 387.216 532.288C383 533.316 378.838 534.555 374.746 536C370.464 537.85 365.646 538.037 361.234 536.526C360.473 536.149 359.172 536.861 357.573 537.179C356.36 535.958 354.187 536.434 352.121 536.463C350.375 536.683 348.601 536.531 346.918 536.017C345.234 535.503 343.679 534.638 342.353 533.479C340.719 531.86 337.936 533.169 336.224 531.453C333.139 532.132 330.869 529.856 328.22 529.054C322.14 527.213 317.271 522.76 311.394 520.32C310.4 519.908 309.756 518.695 308.894 517.915C305.825 514.514 302.433 511.418 298.767 508.671C297.211 507.72 295.948 506.358 295.117 504.736C294.601 503.742 293.903 502.854 293.058 502.119C287.79 497.193 283.35 491.451 279.909 485.112C278.616 482.667 276.254 480.881 274.813 478.259C273.77 475.846 272.538 473.521 271.126 471.305C269.773 469.222 268.748 466.945 268.087 464.551C266.423 460.498 265.4 456.21 265.055 451.842C264.955 450.185 265.221 448.493 265 446.86C265.059 443.812 265.394 440.775 265.999 437.787C265.664 434.756 266.382 431.701 268.034 429.137C268.574 424.65 270.139 420.347 272.609 416.563C274.876 412.44 277.492 408.52 280.429 404.845C281.384 403.414 283.038 402.474 283.585 400.698C285.888 400.884 285.783 398.692 286.651 397.51C287.754 396.007 289.67 395.732 290.881 394.382C291.943 392.926 293.309 391.719 294.884 390.843C296.55 390.176 296.451 388.429 297.534 387.781C301.285 385.536 304.868 382.887 308.689 380.956C312.454 379.195 316.369 377.773 320.387 376.707C324.743 375.424 329.13 374.429 333.595 373.573C336.2 372.753 338.955 372.518 341.662 372.885C346.859 374.319 352.573 372.703 357.425 375.745C359.485 375.776 361.532 376.08 363.513 376.649C367.902 377.592 372.204 378.902 376.374 380.566C377.904 381.05 378.632 382.216 379.93 382.838C383.747 385.028 387.397 387.498 390.849 390.228C391.34 392.677 394.338 392.849 395.231 395.323C395.516 396.4 396.191 397.334 397.125 397.942C398.06 398.55 399.186 398.79 400.287 398.615L403.764 402.59C402.824 404.911 404.952 406.819 406.342 408.433C407.705 410.015 408.771 411.77 410.099 413.304C411.595 414.747 412.815 416.451 413.697 418.332C414.312 420.074 415.842 420.742 416.811 422.341C416.602 423.235 416.621 424.166 416.866 425.051C417.11 425.935 417.573 426.744 418.211 427.403C420.27 430.146 421.781 433.26 422.66 436.575C423.104 437.558 423.482 438.57 423.791 439.603C424.129 440.992 425.532 442.036 425.294 443.572C425.037 445.231 426.288 446.205 426.782 447.515C426.919 448.336 426.162 448.598 425.583 449.4C427.24 450.516 426.235 452.878 427.798 454.298C427.664 455.714 425.937 456.808 427.241 458.661C427.782 459.59 428.019 460.665 427.92 461.735C427.821 462.806 427.39 463.818 426.687 464.632C428.245 466.147 427.079 468.561 427.944 469.964C428.687 471.581 428.965 473.374 428.746 475.141C428.862 477.134 428.866 479.132 428.759 481.125C428.689 482.828 429.3 484.672 427.895 486.153C430.266 487.941 427.325 489.52 427.598 491.387C427.803 492.783 426.346 494.422 425.62 495.974C437.262 499.663 448.159 505.387 457.805 512.878C461.134 513.986 464.378 515.338 467.51 516.92C470.555 518.754 473.749 520.33 477.056 521.631C480.838 523.466 484.446 525.638 487.838 528.12C491.332 531.04 495.151 533.547 499.219 535.593C500.21 535.94 500.838 537.231 501.724 537.981C504.322 540.181 506.052 543.371 509.41 544.711C509.724 544.842 509.973 545.092 510.102 545.406C511.094 548.719 513.981 550.738 515.657 553.582C516.012 554.359 516.552 555.036 517.231 555.554C517.909 556.072 518.705 556.415 519.547 556.553C519.378 558.249 519.758 559.954 520.632 561.418C522.923 564.076 522.639 567.596 523.485 570.693C523.832 573.527 523.126 576.39 521.5 578.737C520.351 580.899 518.526 582.757 517.426 585.047C516.89 586.163 515.485 586.093 514.69 586.832C512.182 588.672 509.405 590.114 506.458 591.109C503.645 592.355 500.544 592.805 497.494 592.408C495.01 592.224 492.518 592.202 490.032 592.339C484.678 589.875 479.534 586.977 474.652 583.673C473.033 582.504 471.592 581.107 470.374 579.525C469.239 579.583 468.122 579.224 467.233 578.517C466.344 577.809 465.744 576.802 465.545 575.683C461.975 574.126 458.633 572.093 455.609 569.639C450.748 566.565 446.158 563.082 441.889 559.228C439.136 556.692 436.773 553.721 433.815 551.49C430.57 548.964 427.607 546.094 424.978 542.931C422.778 540.365 420.293 538.074 418.165 535.433C415.845 532.823 413.394 530.332 410.824 527.968C408.984 526.623 407.623 524.723 406.941 522.548C406.696 521.097 408.783 520.934 408.584 519.468C409.974 519.476 411.137 519.476 412.089 519.476C420.621 526.987 427.511 535.993 436.585 542.707C437.986 543.743 438.353 545.726 439.954 546.379C441.852 547.153 441.449 549.881 443.221 550.275C445.276 550.731 446.184 552.331 447.31 553.591C449.292 555.727 451.581 557.556 454.103 559.017C459.232 562.089 463.957 565.686 468.85 569.061C469.664 569.622 470.447 569.175 471.254 569.426C472.639 570.59 473.903 571.89 475.027 573.306C476.107 574.946 478.545 573.616 479.147 575.395C479.487 576.163 479.979 576.854 480.595 577.425C481.211 577.996 481.937 578.436 482.728 578.717C485.138 580.404 487.758 581.768 490.521 582.775C493.608 583.444 496.771 585.239 499.781 584.223C505.096 583.499 510.174 581.564 514.624 578.569C515.713 577.269 515.503 575.06 516.747 573.189C516.414 572.451 515.52 571.904 515.586 570.772C515.667 569.381 514.196 568.29 514.512 566.757C512.068 565.016 511.68 561.895 509.71 559.71C507.84 557.95 506.185 555.975 504.779 553.827C503.506 551.356 501.606 549.262 499.27 547.756C494.821 545.031 491.007 541.494 486.688 538.606C481.742 535.297 476.638 532.372 471.515 529.402C468.296 527.535 464.663 526.419 461.669 524.346C458.945 522.46 455.257 522.364 453.185 519.475C450.985 520.32 450.242 517.853 448.544 517.416C447.761 517.158 447.039 516.74 446.424 516.191C445.809 515.641 445.314 514.97 444.969 514.221C444.809 513.93 444.557 513.7 444.253 513.567C443.95 513.433 443.61 513.403 443.288 513.481C442.659 513.494 442.035 513.369 441.46 513.115C440.885 512.86 440.373 512.483 439.96 512.008C437.826 510.611 435.449 509.628 432.951 509.112C430.346 505.388 425.706 505.12 421.316 504.416C417.729 509.953 413.45 515.011 408.584 519.467V519.467ZM368.863 386.126C365.285 385.571 361.798 384.532 358.498 383.04C356.998 382.211 355.301 381.805 353.588 381.867C348.824 382.086 344.305 380.411 339.53 380.621C335.911 380.781 332.134 378.713 328.809 381.733C325.187 381.942 321.614 382.674 318.202 383.907C315.44 384.304 312.778 385.218 310.355 386.601C305.514 389.279 301.007 392.52 296.927 396.256C295.773 397.436 294.691 399.285 293.34 399.531C291.22 399.917 291.543 402.141 290.187 402.632C288.673 403.267 287.394 404.359 286.53 405.756C281.159 412.232 277.06 419.666 274.451 427.665C274.054 429.477 273.371 431.215 272.429 432.813C271.334 434.555 272.772 437.025 271.029 438.703C270.552 444.684 271.082 450.703 272.598 456.508C272.933 457.529 271.777 457.701 272.257 458.301C274.351 460.924 274.393 464.375 275.957 467.249C277.567 470.208 279.022 473.297 280.531 476.298C282.119 479.425 284.147 482.309 286.553 484.86C289.014 486.954 291.136 489.416 292.843 492.159C295.501 497.966 301.502 500.831 304.32 506.342C309.187 509.425 312.797 514.11 317.868 516.954C318.686 517.414 319.234 517.727 319.957 516.989C318.126 515.196 316.451 513.251 314.95 511.174C313.413 509.195 312.03 507.102 310.813 504.912C309.607 502.582 309.527 499.602 306.64 497.944C308.173 495.443 305.747 493.406 305.925 490.98C303.188 488.368 304.186 485.024 303.938 481.898C306.796 480.012 308.471 477.181 311.405 475.411C316.507 471.901 322.072 469.118 327.941 467.142C331.574 465.391 335.446 464.186 339.432 463.568C341.595 461.694 345.276 463.025 346.89 459.898V455.133C342.701 449.205 341.511 441.962 337.898 435.696C338.228 433.343 337.883 430.946 336.903 428.782C335.347 425.816 334.659 422.47 334.917 419.13C334.95 418.666 335.071 418.156 334.557 417.784C332.846 416.546 335.501 414.665 333.929 413.392C335.706 411.883 334.463 409.681 335.074 408.038C336.711 406.551 338.261 404.972 339.716 403.308C340.642 402.2 341.879 401.396 343.268 401C346.761 399.735 350.067 398.004 353.096 395.855C358.3 392.586 363.39 389.135 368.863 386.126ZM351.239 528.458C352.513 528.622 353.805 528.596 355.072 528.382C356.563 527.907 357.278 530.526 359.018 528.986C359.763 528.326 361.092 529.519 362.338 529.535C369.387 530.102 376.472 529.039 383.044 526.428C386.18 525.648 389.173 524.373 391.909 522.653C394.701 520.544 397.959 519.399 400.766 517.298C404.224 514.711 406.981 511.521 410.108 508.669C414.653 504.675 417.896 499.411 419.418 493.556C420.587 488.181 421.031 482.674 420.739 477.181C420.732 476.512 419.467 476.109 419.706 475.429C421.739 472.61 420.293 469.712 420.794 467.427L418.558 463.147C418.907 463.004 419.22 462.784 419.473 462.504C419.725 462.223 419.911 461.889 420.017 461.527C420.123 461.164 420.146 460.783 420.084 460.41C420.022 460.038 419.877 459.684 419.66 459.375C418.896 457.594 418.596 455.649 418.788 453.72C418.686 452.76 419.131 451.728 418.521 450.841C416.541 447.962 416.954 444.292 415.17 441.224C414.145 439.522 413.416 437.659 413.014 435.714C412.511 432.48 408.865 430.618 409.693 427.046C409.713 426.96 409.475 426.814 409.357 426.697C408.849 425.723 407.737 425.781 406.948 425.286C405.896 422.369 404.407 419.628 402.534 417.156C401.093 414.403 397.899 412.666 396.671 410C395.077 409.561 393.393 409.572 391.805 410.032C390.217 410.493 388.788 411.385 387.677 412.609C386.389 413.748 384.79 413.05 383.878 414.145V421.187L385.971 423.279C384.837 426.525 387.672 429.273 387.793 432.558C388.194 435.825 388.947 439.04 390.039 442.146C390.817 445.211 392.777 447.949 393.897 451.005C394.938 454.027 396.578 456.808 398.72 459.181C397.059 460.691 398.166 462.468 397.817 463.86L392.335 469.52C391.531 469.58 390.701 469.386 390.261 469.714C387.344 472.6 383.791 474.761 379.888 476.024C375.222 479.365 370.117 482.045 364.718 483.989C361.854 485.3 358.937 487.532 355.548 486.484C354.975 486.936 354.571 487.209 354.221 487.539C352.391 489.26 349.941 488.196 347.838 488.993C344.67 490.193 341.305 490.872 337.948 491.793C337.799 495.449 338.604 499.08 340.285 502.33C341.686 505.757 343.309 509.09 345.142 512.307C346.045 513.686 345.985 515.785 347.032 516.964C349.419 520.36 350.87 524.324 351.239 528.458V528.458Z" fill="#212222"/>
<path d="M454.171 339.812H456.295C458.403 337.263 461.089 335.253 464.13 333.95C464.662 333.67 465.338 333.792 465.836 333.235C469.807 329.689 474.581 327.164 479.747 325.878C482.763 324.712 485.918 323.89 489.042 323.025C490.005 322.84 490.988 322.781 491.966 322.85C495.958 322.834 499.951 322.818 503.944 322.849C510.732 322.942 517.3 325.268 522.633 329.469C525.548 331.677 528.495 333.904 531.258 336.253C533.234 337.901 534.908 339.88 536.204 342.102C537.634 344.269 539.349 346.233 541.303 347.941C543.68 350.295 545.65 353.027 547.133 356.026C548.067 358.086 549.017 360.232 549.761 362.418C549.857 362.7 550.213 362.894 550.634 363.316C549.832 366.099 552.135 368.679 551.583 371.64C553.683 373.819 551.524 377.106 553.625 379.616C553.513 380.719 551.812 381.885 552.631 383.345C552.896 384.012 553.023 384.726 553.004 385.444C552.984 386.162 552.819 386.869 552.517 387.52C551.694 390.472 551.386 393.543 551.607 396.599C551.877 398.871 549.675 400.133 549.548 402.258C549.677 404.186 549.474 406.122 548.949 407.982C547.362 412.008 547.085 416.454 545.653 420.586C545.346 421.471 545.596 422.536 544.603 423.149C543.177 424.029 543.659 425.455 543.574 427.161C541.952 428.697 540.701 430.582 539.913 432.672C538.55 436.039 536.547 439.11 534.016 441.716C532.084 446.233 528.859 450.078 524.747 452.768C519.15 458.35 513.105 463.462 506.671 468.054C504.609 470.517 501.975 472.436 498.999 473.643C492.124 477.778 484.796 481.108 477.161 483.569C472.796 484.587 468.5 485.884 464.3 487.451C464.151 487.506 463.994 487.533 463.835 487.531C462.338 487.537 460.834 487.625 459.346 487.509C457.839 487.391 456.869 488.629 455.27 488.678C452.582 488.76 450.358 487.436 447.896 487.414C447.66 485.798 447.489 484.463 449.949 483.575C455.181 483.719 460.352 482.422 464.896 479.826C466.235 479.393 467.618 479.109 469.019 478.98C472.908 477.845 476.497 476.078 480.248 474.732C484.083 473.356 487.451 471.153 491.173 469.776C493.271 469 494.084 466.97 496.231 466.269C497.66 465.802 498.998 464.265 500.61 463.629C501.07 463.513 501.485 463.266 501.806 462.917C506.551 457.938 511.632 453.29 517.014 449.007C519.575 446.666 522.005 444.187 524.294 441.58C525.618 439.535 526.78 437.391 527.769 435.166C526.449 434.261 525.264 434.787 524.255 434.556C521.729 433.852 522.032 431.087 520.47 429.574C519.147 427.892 517.909 426.145 516.76 424.339C515.272 422.561 513.502 421.017 511.855 419.37L507.066 414.582C504.049 415.652 501.208 417.167 498.638 419.076C495.631 420.631 492.46 421.849 489.184 422.705C487.304 423.554 485.22 423.847 483.18 423.549C477.041 417.421 471.598 410.634 466.949 403.311C466.427 402.616 466.331 401.327 465.455 401.002C463.496 400.274 462.835 397.646 459.596 397.717C455.114 400.329 450.198 403.603 445.185 406.72C440.405 410.323 435.269 413.426 429.856 415.98V425.141C429.008 425.669 428.759 426.668 427.767 426.652C427.482 426.529 427.002 426.465 426.947 426.277C425.864 422.563 424.769 418.85 423.82 415.101C423.491 413.801 423.865 412.952 424.839 410.919C424.064 409.724 423.647 408.331 423.638 406.907C423.628 405.482 424.026 404.084 424.785 402.878C424.785 402.711 424.85 402.501 424.774 402.387C424.506 401.987 424.189 401.619 423.838 401.173C423.495 400.283 424.145 399.751 424.706 399.316C425.144 396.693 423.949 393.967 425.903 391.582L424.787 390.063C424.826 389.597 424.97 389.145 425.208 388.741C426.93 384.452 428.199 379.991 429.872 375.696C430.756 373.427 430.723 370.852 432.678 368.826C434.173 367.047 435.31 364.996 436.026 362.786C438.967 357.586 442.325 352.634 446.069 347.979C448.413 346.532 450.54 344.76 452.385 342.714C453.166 341.874 453.773 340.887 454.171 339.812ZM541.637 395.296C541.145 392.462 542.983 390.216 542.67 387.512C542.862 382.965 542.527 378.412 541.672 373.942C541.364 372.473 541.348 370.957 541.625 369.481C541.742 367.975 540.761 366.803 540.426 365.446C539.775 362.262 538.614 359.204 536.988 356.39C534.906 353.05 531.599 350.947 529.642 347.513C527.663 344.76 525.391 342.229 522.865 339.966C520.454 337.425 517.692 335.243 514.663 333.485C510.747 330.564 506.022 328.928 501.138 328.802C498.32 328.97 495.484 328.792 492.658 328.852C491.549 328.826 490.446 329.028 489.417 329.444C485.892 330.953 482.163 331.796 478.664 333.642C475.73 335.332 472.71 336.867 469.615 338.24C467.425 339.113 466.396 341.179 464.218 342.079C462.605 342.762 461.151 343.773 459.948 345.048C458.649 346.462 456.952 347.492 455.57 348.735C454.24 349.688 453.043 350.812 452.008 352.08C449.061 355.359 446.594 359.04 444.683 363.013C444.111 364.891 442.504 366.439 441.83 368.304C441.138 370.215 439.285 371.544 439.276 373.735C436.427 374.64 438.696 377.716 436.928 379.329C436.313 379.89 436.673 381.767 435.409 382.62C434.623 383.151 434.452 383.896 435.011 384.48C440.985 381.096 446.017 376.508 451.593 372.644C454.929 370.333 458.303 368.152 461.824 366.165C464.392 365.032 466.84 363.646 469.133 362.028C470.768 360.861 472.665 360.111 474.657 359.846C475.754 359.568 476.903 359.573 477.997 359.862C479.092 360.151 480.094 360.713 480.911 361.496C484.312 364.3 487.229 367.645 489.545 371.396C490.382 373.1 492.302 373.817 492.64 375.582C493.91 380.024 495.831 384.254 498.341 388.132C505.275 383.823 513.163 381.286 521.309 380.742C521.967 384.513 526.484 384.593 527.784 387.506C529.15 390.568 532.115 392.136 533.739 394.993C535.534 397.522 537.599 399.848 539.898 401.93C541.647 399.97 539.574 398.744 539.528 397.233L541.637 395.296Z" fill="#212222"/>
<path d="M963.001 473.364C965.407 475.451 968.076 473.914 970.319 474.633C972.494 475.329 974.401 476.829 976.555 477.631C978.867 478.491 979.994 480.968 982.642 481.792C983.253 484.543 985.9 486.739 986.037 490.078C986.061 490.643 986.968 491.251 986.914 492.187C987.093 494.15 986.992 496.13 986.615 498.065C986.178 499.221 986.639 500.284 986.036 501.496C984.524 504.174 983.22 506.965 982.136 509.843C981.618 511.2 980.729 512.384 979.571 513.26C978.662 514.09 979.004 515.058 978.892 515.991C977.821 516.348 976.836 516.921 975.995 517.674C975.154 518.426 974.477 519.343 974.004 520.368C973.204 522.466 971.853 524.311 970.094 525.707C968.509 526.949 967.658 528.744 966.036 530.029C962.974 532.592 960.123 535.398 957.513 538.42C954.413 541.16 951.46 544.063 948.668 547.116C947.835 548.07 946.776 548.798 945.587 549.232C943.539 550.181 941.749 551.607 940.367 553.391C937.644 556.334 934.491 558.848 931.015 560.846C927.991 562.628 925.19 564.762 922.669 567.204C921.153 569.083 919.171 570.533 916.921 571.408C915.442 571.933 914.125 572.835 913.101 574.025C910.712 576.393 907.934 578.334 904.889 579.763C902.158 581.327 899.867 583.49 897.056 584.888C896.774 585.113 896.428 585.243 896.068 585.261C895.708 585.279 895.351 585.184 895.048 584.989C896.137 583.162 898.253 582.515 899.738 581.422C901.431 580.176 902.684 578.53 904.362 577.299C906.275 575.714 908.071 573.993 909.735 572.149C911.478 570.602 913.116 568.943 914.641 567.182C918.503 562.194 924.189 559.231 928.344 554.587C928.724 554.161 929.651 554.594 930.005 553.757V551.879C930.255 551.683 930.538 551.532 930.84 551.432C931.624 551.334 932.438 551.604 933.096 550.819C936.152 546.988 939.801 543.669 943.904 540.989C944.602 538.434 946.814 537.475 948.691 535.991C950.369 534.665 951.35 532.433 952.979 530.835C953.807 530.06 954.789 529.469 955.862 529.101V526.919C957.958 526.396 959.07 524.517 960.692 523.272C962.433 521.937 963.033 519.834 964.506 518.316C966.135 516.743 967.663 515.068 969.082 513.303C970.251 511.752 970.459 509.767 972.085 508.379C973.508 506.998 974.457 505.203 974.796 503.249C975.224 500.995 977.41 500.06 977.797 497.942C977.595 495.918 978.56 493.673 977.515 491.704C976.536 489.858 977.197 487.593 975.397 485.816L966.242 480.547C962.193 480.547 957.86 480.308 953.571 480.635C950.934 480.956 948.323 481.46 945.756 482.145C942.711 482.819 939.706 483.488 936.723 484.46C933.581 486.212 930.096 487.261 926.509 487.534C925.456 488.963 923.946 489.988 922.23 490.439C916.706 492.207 912.232 495.991 906.908 498.052C904.98 498.799 903.924 500.438 902.644 501.332C899.47 502.234 896.621 504.027 894.434 506.498H892.535C890.508 509.114 886.992 510.413 884.747 513.263C884.355 513.778 883.844 514.189 883.257 514.461C878.55 516.763 874.236 519.792 870.472 523.437C868.24 525.343 865.407 526.537 863.045 528.387C862.523 528.732 862.025 529.111 861.552 529.52C859.309 532.034 856.592 534.081 853.558 535.545C851.54 536.425 850.807 538.714 849.133 540.17C843.956 543.803 839.113 547.89 834.662 552.383C830.91 553.794 829.401 558.084 825.606 559.44C824.479 563.213 820.535 564.163 818.236 566.773C816.798 568.389 815.266 569.92 813.648 571.356C812.247 572.611 810.579 573.576 809.232 574.879C807.961 575.889 806.891 577.13 806.08 578.538C805.452 579.862 803.598 580.247 802.502 581.442C801.178 583.304 799.403 584.799 797.342 585.788C796.87 585.959 796.442 586.233 796.089 586.591C795.736 586.948 795.467 587.379 795.3 587.853C795.136 588.664 794.78 589.425 794.262 590.071C793.743 590.716 793.079 591.229 792.322 591.566C789.382 593.626 786.701 596.033 784.337 598.735C779.605 603.283 774.231 607.139 769.906 612.124C769.58 612.5 769.256 613.052 768.842 613.151C764.912 614.09 762.764 617.325 760.184 619.926C757.743 622.259 755.097 624.369 752.278 626.228C750.187 628.204 747.927 629.993 745.525 631.577C745.256 631.704 745.27 632.434 745.174 632.802C743.754 633.451 742.382 634.199 741.067 635.041C739.873 635.917 739.092 637.611 737.819 638.057C736.103 638.656 735.421 640.436 734.003 640.889C732.496 641.372 731.822 643.07 730.47 643.157C728.519 643.282 727.407 643.921 727.161 645.879C725.855 646.342 724.602 646.945 723.425 647.677C714.872 654.318 705.168 659.158 696.172 665.111C692.22 667.82 687.929 669.999 683.41 671.594C680.736 672.486 678.917 674.759 675.941 675.347C673.518 676.341 671.195 677.563 669.003 678.996C665.326 680.554 661.598 682.019 657.855 683.426C654.145 684.819 650.53 686.645 646.816 688.089C642.232 689.871 637.374 690.931 632.937 693.149C629.326 693.295 625.777 694.135 622.483 695.623C619.021 696.452 615.697 697.731 612.293 698.713C610.129 699.694 607.768 700.161 605.393 700.079C603.611 699.759 602.401 700.989 600.814 701.197C596.257 701.795 591.696 702.552 587.198 703.36C584.018 703.445 580.852 703.831 577.745 704.514C574.492 705.777 571.128 704.325 568.04 705.208C561.942 706.533 555.658 706.772 549.477 705.914C544.455 705.566 539.419 705.446 534.409 705.037C530.817 704.8 527.283 704.005 523.936 702.681C522.321 702.003 520.446 702.931 518.977 701.226C517.986 700.076 515.923 699.902 514.432 699.116C511.522 697.509 508.81 695.564 506.354 693.323C499.605 687.406 500.617 688.721 497.66 681.134C497.025 679.504 495.136 678.676 494.988 676.729C494.134 672.476 493.652 668.157 493.549 663.821C493.573 661.634 494.875 659.892 494.709 657.745C494.408 655.599 494.424 653.421 494.759 651.28C495.621 647.843 496.766 644.484 498.181 641.235C499.065 639.09 500.081 637.009 501.134 634.951C502.191 632.888 502.488 630.218 503.687 628.05C505.937 624.702 507.948 621.199 509.705 617.568C511.982 611.535 517.655 607.854 519.826 601.787C520.72 600.097 521.924 598.592 523.377 597.349C524.334 596.031 525.478 594.859 526.772 593.869C528.412 592.971 529.043 591.436 530.129 590.239C535.212 584.861 540.685 579.866 546.504 575.294C552.917 569.67 559.834 564.647 567.166 560.289C569.541 557.082 573.594 556.394 576.639 554.103C578.916 552.527 581.418 551.303 584.06 550.472C584.436 550.297 584.854 550.23 585.266 550.279C585.678 550.327 586.069 550.49 586.394 550.748C586.627 551.644 586.396 551.938 585.479 552.486C578.981 556.381 572.749 560.704 566.825 565.426C562.604 568.782 558.107 571.821 554.014 575.369C552.094 574.866 552.786 576.861 552.001 577.501C548.869 580.054 545.924 582.844 542.704 585.273C541.795 585.958 540.941 586.324 540.532 587.536C540.115 588.422 539.473 589.183 538.67 589.742C534.923 593.127 531.497 596.852 528.436 600.869C525.139 604.741 522.124 608.846 519.415 613.151C516.988 616.227 514.803 619.488 512.881 622.904C511.284 626.759 509.488 630.504 507.586 634.178C505.511 638.187 504.926 642.72 502.744 646.651C502.88 649.538 502.454 652.423 501.49 655.147C500.999 656.808 500.737 658.527 500.71 660.258C500.74 660.804 501.324 661.319 501.659 661.856C499.858 665.226 501.008 668.888 500.578 672.762L502.561 673.802C502.711 678.19 504.514 682.361 507.608 685.477C509.315 688.156 511.61 690.412 514.318 692.073C518.108 694.011 521.348 697.533 526.18 697.162C527.607 697.052 528.641 698.611 530.227 698.29C530.528 698.229 531.024 699.147 531.332 699.09C534.807 698.443 537.948 700.331 541.413 700.216C549.224 699.959 557.051 700.067 564.87 700.158C570.493 700.443 576.123 699.76 581.514 698.139C584.739 698.305 587.97 697.932 591.073 697.038C593.663 696.764 596.28 695.912 598.846 695.487C602.424 694.895 605.84 693.659 609.405 693.224C611.154 693.012 612.585 691.744 614.481 692.112C616.221 692.18 617.948 691.786 619.486 690.97C622.375 689.944 625.321 688.981 628.147 687.806C630.07 687.007 632.111 687.158 634.013 686.289C635.068 685.715 636.053 685.02 636.948 684.219H640.681C641.763 683.367 642.584 682.198 643.271 682.272C645.74 682.537 647.395 680.853 649.443 680.169C649.732 680.067 650.016 679.946 650.29 679.807C652.23 678.872 654.459 678.988 656.301 677.3C658.111 676.148 660.09 675.284 662.166 674.74C664.491 673.53 666.896 672.478 669.363 671.592C671.841 670.897 674.007 669.158 676.45 668.257C678.56 667.478 680.039 665.816 682.033 664.875C682.925 664.456 683.894 664.225 684.879 664.195C686.501 662.259 688.614 660.794 690.997 659.956C692.575 659.527 693.839 657.516 695.353 657.374C697.4 657.182 697.926 655.219 699.334 654.841C704.056 653.573 706.833 649.117 711.377 647.751C713.811 647.019 714.726 644.271 717.242 643.819C717.807 641.14 720.045 641.341 722.046 641.187C722.463 639.074 723.482 637.832 725.787 638.285C729.035 634.293 733.204 631.148 737.935 629.12C739.298 628.657 738.821 626.629 740.173 626.315C741.638 625.975 742.209 624.717 743.143 623.861C745.034 622.128 747.146 620.699 749.134 619.141C751.752 617.089 755.2 615.97 757.008 612.988C758.31 610.841 761.171 610.664 762.292 608.285C763.35 606.039 766.335 605.791 767.648 604.126C768.919 602.514 771.168 601.902 771.769 599.465C772.16 597.879 775.419 598.127 775.448 595.609C777.574 595.341 778.293 593.051 780.099 592.381C780.561 592.284 780.986 592.055 781.322 591.724C784.087 588.175 787.805 585.535 790.664 582.149C791.844 580.863 793.285 579.843 794.89 579.158C795.945 576.549 797.847 574.372 800.291 572.976C803.397 570.797 805.457 567.593 808.559 565.511C810.463 564.45 812.043 562.891 813.129 561.002C814.254 558.74 816.948 557.957 818.396 555.8C819.99 553.801 822.099 552.275 824.496 551.386C825.017 551.163 825.464 550.798 825.786 550.331C826.108 549.865 826.291 549.317 826.314 548.75C827.911 547.462 830.806 547.884 831.195 544.938C831.295 544.618 831.471 544.326 831.709 544.089C831.946 543.851 832.237 543.674 832.557 543.573C834.735 543.154 835.64 541.244 837.052 539.964C839.271 537.833 841.598 535.817 844.024 533.924C848.164 530.876 851.87 527.237 856.012 524.191C857.741 522.919 859.621 521.797 861.358 520.486C863.195 519.1 865.689 518.517 866.353 515.776C866.635 514.609 868.246 514.726 869.054 513.989C872.586 510.769 877.583 509.539 880.529 505.531C884.292 504.035 887.809 501.984 890.964 499.445C896.987 494.927 903.984 492.104 910.157 487.888C913.246 488.034 914.647 484.611 917.75 484.448C920.361 484.311 922.176 481.596 924.999 481.523C926.095 481.495 926.494 480.347 927.538 479.569C929.494 479.616 931.442 479.299 933.283 478.633C937.03 476.831 941.367 476.646 945.159 474.841C946.27 474.311 947.418 474.709 948.536 474.554C950.569 474.272 952.7 475.181 954.69 473.661C955.209 473.414 955.787 473.315 956.36 473.374C956.932 473.434 957.477 473.65 957.935 474C959.58 475.202 961.24 474.642 963.001 473.364Z" fill="#222323"/>
<path d="M366.876 225.99C366.462 228.413 366.527 230.894 367.067 233.291C367.768 235.268 368.029 237.373 367.834 239.461C367.722 241.781 367.772 244.106 367.981 246.418C368.75 248.598 368.769 250.971 368.036 253.162C367.582 255.442 367.527 257.784 367.875 260.083C367.875 262.577 368.049 265.088 367.81 267.559C367.645 269.098 367.132 270.579 366.308 271.889C365.654 272.916 366.234 273.742 365.803 274.452C366.949 275.294 367.578 274.888 368.112 274.155C370.901 276.059 375.024 273.333 377.146 277.062C381.087 276.113 384.541 278.828 388.192 277.765C390.422 280.217 393.518 279.918 396.116 280.825C399.156 282.143 402.422 282.861 405.735 282.939C406.817 283.029 407.852 283.417 408.727 284.06C411.591 285.787 415.165 285.471 417.807 287.476C419.171 288.512 421.21 287.004 422.236 288.855C424.648 287.787 425.271 291.184 427.376 290.907C429.45 290.634 430.809 292.324 432.554 292.84C436.667 294.719 440.903 296.317 445.232 297.624C442.264 293.3 442.185 288.095 438.769 284.423C439.502 282.801 437.977 281.746 437.664 280.372C437.237 277.926 436.306 275.596 434.929 273.529C433.801 271.993 434.128 269.84 433.384 268.198C432.525 266.303 433.114 263.991 431.683 262.431C429.927 260.515 431.283 258.291 430.741 256.314C430.129 254.086 429.26 251.929 428.293 249.136C426.773 248.082 424.903 247.661 423.079 247.96C421.315 248.258 419.502 247.947 417.939 247.079C417.401 246.846 416.823 246.722 416.238 246.715C415.652 246.708 415.071 246.818 414.529 247.038C409.427 248.225 404.157 248.513 398.956 247.89C395.031 247.887 391.359 249.402 387.387 249.057C383.424 248.713 379.409 248.982 375.419 248.981C373.957 248.08 373.641 246.431 372.819 244.997C373.114 243.638 374.542 243.142 375.221 242.128C378.425 241.524 381.711 242.722 384.846 241.083C385.553 240.826 386.321 240.793 387.048 240.987C387.775 241.181 388.424 241.594 388.909 242.169L390.407 241.035C391.449 240.714 391.841 241.676 392.742 242.154C394.377 240.513 396.575 241.25 398.607 240.944C400.366 240.679 402.056 242.275 403.777 240.997C405.627 242.016 407.771 242.367 409.85 241.991C412.012 242.01 414.185 242.125 416.334 241.957C418.326 241.801 419.903 243.502 421.912 242.993C423.381 244.799 425.935 243.232 427.78 245.068C427.92 244.025 427.903 242.967 427.729 241.93C426.994 239.894 425.16 238.138 425.827 235.767C426.376 233.819 424.375 231.982 425.783 230.096C423.881 227.072 425.267 223.705 424.672 220.647L426.131 219.188C427.768 218.441 428.868 219.84 430.601 220.357C430.592 218.884 430.943 217.431 431.623 216.125C432.304 214.818 433.294 213.698 434.507 212.862C435.257 212.049 435.84 211.096 436.224 210.058C436.873 208.946 438.185 209.125 439.046 208.348C440.838 206.765 443.176 205.943 445.564 206.057C446.893 206.148 448.226 206.142 449.553 206.037C457.153 205.813 464.632 207.975 470.941 212.22C474.068 213.815 476.654 216.679 479.738 218.689C482.568 221.141 485.059 223.959 487.147 227.067C487.86 228.074 488.376 229.208 488.666 230.407C489.517 232.885 490.158 235.441 491.106 237.879C491.597 238.824 491.807 239.89 491.711 240.95C491.615 242.011 491.218 243.022 490.565 243.863C493.309 246.808 490.952 249.885 490.25 252.711C489.359 256.297 485.543 257.334 482.597 259.102L481.025 257.98C480.229 257.806 479.797 258.316 479.259 258.926C478.562 257.128 476.744 258.415 475.529 257.438C474.971 256.864 474.287 256.43 473.53 256.171C472.773 255.912 471.966 255.835 471.174 255.946C470.938 255.988 470.696 255.981 470.463 255.926C470.23 255.871 470.01 255.769 469.817 255.626C464.298 252.183 458.461 249.291 452.862 245.983C449.058 243.786 445.401 241.345 441.914 238.675C439.42 236.725 436.855 234.865 434.286 232.938C432.556 235.593 435.346 237.794 434.844 240.373C434.532 241.628 434.545 242.943 434.881 244.192C435.218 245.441 435.866 246.584 436.767 247.513C436.765 248.844 436.821 250.177 436.756 251.504C436.932 257.672 438.022 263.781 439.989 269.63C440.749 272.945 441.715 276.21 442.883 279.405C443.817 283.394 445.463 287.181 447.744 290.585C447.851 292.589 447.22 294.928 448.878 296.206C448.546 298.092 447.304 298.516 446.731 299.528C448.399 300.129 450.658 299.659 450.794 302.248C449.803 303.264 448.925 302.876 447.757 302.461C439.487 299.525 431.048 297.026 422.906 293.778C418.581 292.053 414.06 291.102 409.736 289.441C406.569 288.225 403.076 287.886 399.816 286.872C394.592 286.008 389.438 284.756 384.4 283.125C382.116 282.487 379.755 282.161 377.384 282.158C374.924 281.472 372.398 281.048 369.849 280.892C367.363 281.02 364.864 280.92 362.56 280.92C359.805 279.647 361.818 276.477 359.883 275.095C359.883 273.743 361.305 273.634 361.884 272.684C361.984 272.06 361.973 271.424 361.85 270.804C361.339 268.75 361.047 266.647 360.979 264.531C360.67 262.221 360.648 259.881 360.912 257.566C361.305 251.833 359.121 246.266 359.887 240.519C358.655 236.111 358.347 231.496 358.982 226.964C358.964 224.493 356.876 222.442 358.119 219.808L354.659 217.064C355.55 214.01 353.384 212.215 353.024 209.969C352.834 208.78 351.877 208.047 351.903 206.911C351.988 203.185 349.892 199.658 351.414 195.067C354.076 192.109 357.543 189.993 361.391 188.978C365.489 187.686 369.767 187.054 374.063 187.104C378.525 187.606 382.879 188.817 386.959 190.69C388.149 192.249 389.779 193.417 391.637 194.043C392.278 194.188 392.875 194.481 393.382 194.9C393.888 195.318 394.288 195.849 394.551 196.451C395.759 198.796 397.091 201.076 398.54 203.28C399.559 205.707 400.312 208.238 400.785 210.827C400.988 212.89 400.508 214.963 399.419 216.727C399.076 217.946 398.877 219.2 398.824 220.466C389.528 230.036 392.241 228.449 383.36 231.939C382.252 230.767 380.727 230.08 379.115 230.025C374.741 229.838 370.504 228.441 366.876 225.99V225.99Z" fill="#212222"/>
<path d="M769.261 211.841C773.332 212.958 777.057 215.08 780.093 218.013C783.362 220.196 784.847 224.006 788.087 226.264V231.4C786.903 232.825 786.245 234.614 786.225 236.467C781.152 242.914 774.477 247.918 766.865 250.978C764.077 250.64 761.255 250.699 758.483 251.154C757.407 251.574 756.258 251.778 755.103 251.754C753.949 251.73 752.81 251.479 751.752 251.015C751.06 250.875 750.349 250.863 749.653 250.978C749.001 249.357 747.289 248.824 745.916 248.236C743.392 247.147 741.174 245.455 739.456 243.309C737.739 241.162 736.575 238.627 736.066 235.925C734.847 230.213 735.633 224.256 738.292 219.056C738.528 218.369 738.915 217.745 739.426 217.229C739.936 216.713 740.557 216.319 741.241 216.077C745.349 213.828 749.882 212.463 754.549 212.07C755.957 212.189 756.738 210.862 758.359 210.774C755.894 208.407 755.097 204.787 751.418 203.771C751.326 203.013 751.518 201.958 751.081 201.492C749.755 200.076 748.845 198.249 747.516 197.01C744.959 194.36 742.742 191.402 740.916 188.203C738.969 185.202 737.088 182.152 735.314 179.046C734.455 178.03 733.844 176.828 733.527 175.536C733.21 174.244 733.197 172.896 733.488 171.598C732.952 171.311 732.348 171.175 731.74 171.206C731.132 171.236 730.545 171.432 730.04 171.771C726.611 173.833 722.938 175.456 719.105 176.604C715.953 177.334 713.519 179.32 710.534 180.079C707.68 180.806 704.974 182.054 702.144 182.692C698.433 183.739 694.801 185.052 691.277 186.619C688.534 187.684 685.698 188.492 682.806 189.034C679.24 189.599 675.708 190.353 672.222 191.293C668.807 192.292 665.243 192.59 661.838 193.859C659.339 194.791 656.177 194.178 653.317 195.558C657.307 197.704 661.115 200.17 664.705 202.933C670.003 205.992 674.423 210.395 679.955 213.127C681.025 215.311 683.235 216.353 684.85 217.992C687.761 221.345 691.104 224.295 694.792 226.767C696.835 225.784 699.024 224.767 701.178 223.68C702.678 222.595 704.335 221.746 706.091 221.162C708.412 220.84 707.756 217.597 710.118 217.752L724.657 207.06C726.823 202.385 732.438 202.085 735.57 198.5C736.255 197.799 737.126 197.308 738.08 197.083C739.034 196.859 740.033 196.911 740.959 197.234C742.2 198.175 742.451 199.839 743.456 201.381C741.042 204.13 736.675 204.809 734.759 208.834C730.984 210.459 727.616 212.9 724.897 215.983C724.045 216.252 723.225 215.735 722.451 216.374C718.939 220.015 714.551 222.694 709.706 224.152C705.978 226.666 701.812 228.462 697.424 229.444C698.551 230.812 698.692 233.127 701.098 233.265C703.124 235.795 706.112 237.425 707.531 240.579C708.106 241.855 709.557 242.745 710.631 243.787C712.131 244.978 713.113 246.702 713.372 248.599C713.001 250.73 711.594 251.173 709.645 251.003C708.411 253.912 711.519 256.708 710.232 259.351C708.939 262.008 709.645 264.992 707.715 267.986C703.585 272.821 698.322 276.557 692.396 278.86C690.153 278.166 687.612 279.636 684.967 280.069C680.635 281.147 676.1 281.101 671.791 279.936C671.294 279.878 670.793 279.874 670.296 279.924C662.669 279.783 655.345 276.911 649.656 271.829C647.444 270.086 645.37 268.706 645.43 265.224L642.305 262.716C642.472 261.546 642.388 260.353 642.058 259.218C641.728 258.082 641.16 257.03 640.393 256.131C641.522 254.674 641.241 252.639 642.68 251.115C644.28 249.129 646.455 247.687 648.907 246.985C649.608 245.209 651.528 246.31 652.774 245.366C654.121 244.768 655.634 244.657 657.055 245.052C658.814 245.334 659.934 243.786 661.649 243.921C662.358 244.123 663.104 244.164 663.832 244.041C664.559 243.919 665.251 243.636 665.855 243.213C666.535 242.628 668.072 243.074 669.216 242.986C673.763 243.417 678.351 243.093 682.793 242.027C683.427 241.786 684.127 241.787 684.761 242.029C688.519 243.122 692.462 243.426 696.344 242.922C697.437 242.94 698.204 243.782 699.192 243.721C699.77 242.311 698.5 241.952 698.048 241.164C697.167 239.629 695.298 239.286 694.312 237.821C693.322 236.516 692.223 235.299 691.024 234.184C689.824 232.802 688.517 231.516 687.117 230.336C685.231 228.912 684.779 226.22 682.861 225.155C679.766 223.435 678.782 219.654 675.855 218.183C672.738 216.616 671.26 213.165 667.916 212.069C663.091 207.076 656.713 204.006 651.806 199.104C651.557 198.855 650.832 199.183 650.506 198.644L650.31 195.134C648.56 196.179 646.989 196.794 645.618 194.699C645.661 194.341 645.811 194.005 646.047 193.733C646.283 193.461 646.594 193.265 646.942 193.172C649.753 193.311 652.046 191.55 654.62 191.197C657.137 191.091 659.597 190.406 661.806 189.194C667.809 188.197 673.744 186.83 679.578 185.101C682.739 183.472 686.118 182.306 689.612 181.64C694.829 179.792 699.932 177.561 705.291 176.064C707.94 175.254 710.508 174.202 712.962 172.92C714.481 172.159 716.051 171.506 717.661 170.966C719.612 170.402 721.44 169.478 723.051 168.241C725.805 166.035 729.079 164.575 732.56 164C733.682 165.687 735.998 165.931 737.255 167.666L735.461 169.459C735.537 169.7 735.652 169.925 735.803 170.127C740.2 174.576 744.126 179.467 747.518 184.722C749.356 187.344 751.955 189.395 753.849 192.087C757.501 197.277 762.013 201.834 765.255 207.345C765.462 207.778 765.761 208.16 766.13 208.466C766.5 208.771 766.932 208.992 767.396 209.114C767.994 209.249 768.518 209.606 768.864 210.111C769.21 210.617 769.351 211.235 769.261 211.841V211.841Z" fill="#212222"/>
<path d="M361.907 587.823C363.912 590.646 366.684 592.836 369.895 594.131C373.106 595.427 376.621 595.775 380.024 595.134C383.49 594.194 386.731 592.563 389.552 590.34C393.629 586.689 397.106 582.419 399.854 577.686C402.744 572.388 404.734 566.648 405.742 560.699C405.983 559.801 406.377 558.951 406.909 558.189C409.5 553.628 411.474 548.744 412.781 543.665C413.298 541.623 414.556 541.172 416.397 541.529C417.109 543.314 418.707 544.786 416.932 547.116C416.135 548.162 416.797 550.32 416.797 551.922C416.036 552.652 415.459 553.551 415.111 554.547C414.763 555.542 414.655 556.605 414.796 557.65C414.751 561.043 413.713 564.349 411.809 567.157V571.995C409.531 573.17 409.084 575.757 408.054 577.793C406.434 581.225 404.26 584.366 401.619 587.091C400.933 587.763 400.311 588.496 399.759 589.281C396.389 593.872 391.466 597.082 385.907 598.314C383.799 599.059 381.575 599.418 379.34 599.373C377.033 599.163 374.692 599.327 372.366 599.327C371.796 599.919 371.284 600.628 369.354 600.038C364.578 598.375 360.294 595.542 356.893 591.799C356.748 589.583 357.503 587.229 355.567 585.074C356.936 583.973 357.865 582.418 358.185 580.691C359.074 577.661 360.737 574.915 363.012 572.726C366.211 569.166 369.146 565.377 371.79 561.388C372.477 560.496 373.219 559.659 373.966 558.837C375.193 557.485 376.656 556.334 377.79 554.915C378.745 553.569 379.91 552.385 381.24 551.407C382.796 550.161 384.229 548.77 385.52 547.252L389.398 543.375C390.69 542.082 391.963 540.769 393.28 539.502C396.478 536.952 399.831 534.601 403.319 532.463C404.369 533.329 405.258 534.277 404.797 535.837C402.148 538.366 398.016 539.21 396.502 543.168C396.122 544.16 394.923 544.838 394.1 545.66C391.397 548.362 388.672 551.043 385.996 553.771C379.599 560.314 373.771 567.391 368.576 574.924C366.583 577.531 364.89 580.354 363.529 583.339C362.948 584.788 363.326 586.623 361.907 587.823Z" fill="#252525"/>
<path d="M793.176 381.386C796.259 377.097 801.418 375.866 805.108 372.502C808.599 368.948 812.671 366.017 817.149 363.834C820.835 365.277 824.331 367.163 827.561 369.451C829.148 370.717 831.044 371.537 833.053 371.825C835.113 371.98 836.512 373.817 838.287 374.778C841.217 376.672 844.394 378.152 847.729 379.176C844.118 384.299 838.453 386.061 835.036 390.394C830.981 391.323 827.336 393.541 824.645 396.714C821.056 396.783 819.129 393.533 815.955 393.711C813.641 391.868 810.982 390.508 808.134 389.709C805.828 388.114 803.403 386.7 800.878 385.481C798.124 384.502 795.528 383.122 793.176 381.386V381.386Z" fill="#222222"/>
<path d="M851.266 377.972C846.125 375.241 841.056 372.297 835.773 369.811C830.452 367.307 825.516 364.146 819.835 361.598C823.382 359.13 826.441 356.806 829.692 354.792C833.038 352.719 836.202 350.417 839.41 348.157C840.111 347.488 840.988 347.035 841.939 346.852C842.89 346.668 843.873 346.761 844.772 347.121C848.303 350.517 854.002 350.838 858.353 353.691C862.675 356.526 868.106 356.846 872.155 360.167C865.093 365.994 857.884 371.43 851.266 377.972Z" fill="#222222"/>
<path d="M792.481 349.996C796.064 352.166 799.502 354 802.75 356.075C806.064 358.192 809.924 358.976 813.218 361.411C812.401 365.115 808.289 365.564 806.003 367.894C803.864 370.406 801.209 372.428 798.219 373.821C795.115 375.026 793.159 378.038 790.178 379.822C784.283 375.333 777.486 372.21 771.233 368.188C777.023 360.759 784.249 354.572 792.481 349.996V349.996Z" fill="#222322"/>
<path d="M815.687 359.851C813.875 357.843 811.455 356.485 808.797 355.984C806.529 355.044 804.475 353.653 802.76 351.896C799.67 351.869 798.243 348.718 794.747 349.398C797.114 346.554 800.097 344.286 803.47 342.766C804.998 342.005 806.198 340.251 807.744 339.946C809.913 339.517 810.396 337.292 812.399 336.676C813.902 336.214 815.842 335.64 816.499 333.743C817.951 333.653 819.406 333.864 820.773 334.362C822.141 334.86 823.391 335.633 824.446 336.635C825.125 337.288 825.946 337.776 826.844 338.062C830.09 339.454 833.233 341.065 836.343 342.75C837.132 343.177 837.449 344.705 839.092 343.768C837.091 346.27 834.7 348.432 832.009 350.171C829.377 352.094 826.635 353.862 823.797 355.467C821.367 357.386 818.624 358.869 815.687 359.851V359.851Z" fill="#222323"/>
<path d="M789.914 383.383C793.617 384.828 796.719 386.913 800.097 388.392C803.343 389.839 806.448 391.583 809.371 393.604C812.461 395.724 816.129 396.43 819.85 398.626C813.14 402.902 806.117 406.663 798.839 409.879C793.679 407.7 788.739 405.035 784.085 401.92C782.252 400.757 780.344 399.717 778.374 398.807C776.727 398.043 776.087 397.197 776.225 395.538C777.661 392.605 781.058 391.843 782.974 389.451C784.923 387.017 788.113 386.138 789.914 383.383Z" fill="#222222"/>
<path d="M757.381 383.105C761.608 379.061 764.878 374.026 768.814 369.543L787.967 381.653C782.899 385.672 778.147 390.073 773.752 394.818C770.08 394.528 767.707 391.675 764.998 389.775C762.017 388.114 759.421 385.841 757.381 383.105V383.105Z" fill="#232323"/>
</svg>
