<svg width="1208" height="900" viewBox="0 0 1208 900" fill="none" xmlns="http://www.w3.org/2000/svg">
<path d="M453.218 454.852C451.635 454.903 449.444 455.719 448.507 453.129C448.499 452.721 448.625 452.323 448.866 451.995C449.108 451.667 449.451 451.429 449.843 451.317C452.447 451.083 454.173 449.019 456.585 448.377C458.947 447.749 461.26 446.945 463.502 445.973C467.251 444.161 470.843 442.039 474.238 439.629C475.325 438.917 476.087 437.761 477.614 438.185C479.832 435.743 483.819 436.992 485.879 434.223C488.816 433.943 491.706 433.293 494.479 432.287C497.072 431.264 499.791 430.595 502.562 430.299C503.552 430.338 503.929 429.518 504.639 429.303C506.102 428.763 507.619 428.384 509.163 428.172C512.49 428.123 515.734 427.131 518.52 425.311C520.341 425.208 522.147 424.931 523.915 424.483C526.604 423.435 529.505 423.048 532.374 423.354C534.12 423.779 535.222 422.047 536.93 422.293C538.407 422.463 539.9 422.468 541.379 422.308C542.485 422.286 543.566 422.647 544.437 423.329C545.543 423.647 545.83 422.284 546.998 422.262C553.977 422.319 560.924 423.222 567.687 424.95C570.608 425.987 573.706 426.435 576.801 426.268C577.672 427.108 576.665 427.136 576.632 427.481C580.18 430.312 583.393 433.539 586.208 437.1C588.807 440.545 589.568 444.998 592.147 448.646V452.593L594.195 454.292C593.856 456.445 594.212 458.649 595.211 460.586C595.946 462.343 596.277 464.243 596.18 466.145C596.423 468.641 596.829 471.118 597.395 473.561C598.592 477.531 598.48 481.782 597.073 485.683C595.892 488.311 594.111 490.625 591.874 492.441C591.101 493.069 590.014 492.237 589.19 493.134C587.769 494.683 585.511 494.891 583.941 495.859C582.198 496.933 580.052 495.709 578.639 497.651C577.532 499.172 575.322 499.288 573.546 499.515C571.74 499.908 569.98 500.49 568.295 501.249C566.497 501.534 564.678 501.67 562.858 501.656L561.166 503.434H556.306C553.813 506.102 549.672 504.947 546.989 507.599C543.67 506.677 540.578 509.215 537.265 508.45C536.685 509.137 535.952 509.678 535.125 510.031C534.299 510.383 533.401 510.537 532.504 510.481C531.548 510.385 530.582 510.51 529.682 510.848C528.782 511.185 527.972 511.725 527.315 512.426L526.044 511.278C524.641 512.841 522.62 512.185 520.783 512.532C517.673 512.803 514.598 513.376 511.6 514.244C510.833 514.508 510.012 514.572 509.214 514.429C505.193 514.28 501.17 514.69 497.262 515.648C495.105 516.083 492.916 516.33 490.717 516.387C489.586 516.324 489.065 517.247 488.118 517.616C485.72 515.076 483.873 517.204 481.639 518.183C481.052 517.978 480.351 516.881 479.411 517.457C477.014 518.925 474.402 518.207 471.881 518.44C470.18 518.598 468.364 517.76 466.765 519.331C466.336 519.572 465.853 519.697 465.361 519.695C464.87 519.693 464.387 519.563 463.961 519.318C462.95 518.235 462.513 519.09 461.697 519.338C461.238 519.508 460.75 519.585 460.262 519.564C459.774 519.542 459.294 519.423 458.853 519.212C456.876 517.654 454.797 518.81 452.955 518.376C450.239 522.186 450.239 522.186 447.795 523.53C446.197 527.306 444.231 530.917 441.926 534.308C440.365 537.287 438.969 540.35 437.747 543.483C437.29 544.564 436.718 545.696 436.323 546.859C435.279 548.952 434.708 551.249 434.65 553.588C434.764 554.752 434.025 555.702 433.8 556.676C433.056 558.934 432.648 561.289 432.592 563.665C432.858 568.271 432.645 572.904 432.677 577.525C432.601 580.069 432.889 582.612 433.534 585.074C434.52 589.025 435.207 593.044 435.588 597.098C435.71 598.009 436.328 598.494 436.57 599.178C437.135 600.776 438.183 602.317 437.557 604.032L439.616 606.091V610.052L441.563 611.999V615.9C443.833 618.466 445.516 621.497 446.494 624.781C448.13 628.577 449.509 632.479 450.622 636.46C451.206 638.031 451.978 639.525 452.923 640.909C453.778 642.431 452.539 644.348 454.161 645.358C455.758 646.353 455.279 647.878 455.522 649.283C455.64 649.967 456.546 650.48 456.931 651.162C457.553 651.944 457.996 652.853 458.227 653.824C458.458 654.796 458.472 655.807 458.269 656.785L460.997 658.975C461.611 661.486 462.573 663.899 463.857 666.143C466.634 670.186 468.84 674.62 471.316 678.872C472.558 681.006 473.96 683.051 475.109 685.231C475.352 685.965 475.719 686.652 476.195 687.261C477.681 688.703 479.583 689.998 479.982 692.102C480.346 694.025 483.026 694.806 482.208 697.141C485.224 700.178 486.227 704.606 489.48 707.525C490.827 708.867 492.008 710.366 492.996 711.991C493.937 713.382 496.125 713.459 496.462 715.416C499.825 717.258 501.719 720.945 505.337 722.48C505.759 722.659 506.031 723.173 506.446 723.395C508.256 724.361 508.565 726.614 510.505 727.687C511.403 728.078 512.196 728.677 512.818 729.434C513.44 730.191 513.873 731.085 514.083 732.042C518.813 735.393 522.502 740.557 528.251 742.003C532.232 743.533 536.463 744.308 540.727 744.287C542.519 744.076 544.359 744.323 546.171 744.235C548.594 744.117 551.221 744.983 553.393 743.778C555.607 742.549 558.255 744.321 560.269 742.331C560.687 741.919 561.861 742.283 562.686 742.269C564.74 742.273 566.784 741.992 568.76 741.435C570.738 741.076 572.675 740.522 574.544 739.781C576.554 738.756 579.21 739.356 581.339 738.284C583.944 737.275 586.682 736.653 589.467 736.439C591.391 736.33 593.226 735.592 594.691 734.339C595.767 734.547 596.874 734.534 597.944 734.3C599.015 734.065 600.026 733.615 600.917 732.977C601.812 732.122 602.731 732.411 603.655 732.384C605.628 732.326 607.603 732.366 609.529 732.366C611.645 730.021 614.808 730.648 617.301 729.433C619.242 728.826 621.241 728.42 623.265 728.221C625.121 727.745 626.724 726.269 628.932 726.373C629.949 726.42 630.4 725.203 631.263 724.527H636.327C637.309 721.299 640.585 722.613 642.818 721.69C644.562 720.765 646.429 720.091 648.362 719.691C650.24 719.585 652.08 719.12 653.782 718.32C656.034 717.111 658.582 717.024 660.679 715.806C662.949 714.865 665.301 714.134 667.705 713.625C673.013 711.69 678.328 709.796 683.554 707.636C686.408 706.193 689.393 705.027 692.47 704.153C694.767 703.7 696.058 701.858 698.375 701.446C700.532 701.25 702.581 700.416 704.261 699.05C704.984 698.343 705.83 698.883 706.723 698.626C709.42 695.917 712.046 692.914 715.055 690.362C717.967 687.893 718.446 684.003 720.893 681.431C721.371 679.722 720.501 678.006 721.872 676.273C723.024 674.816 721.198 672.964 720.782 671.375C720.243 668.881 719.974 666.336 719.98 663.785C718.889 662.487 717.977 661.048 717.268 659.508C716.868 658.059 716.123 656.729 715.096 655.632C715.677 654.014 715.393 653.402 713.203 650.961C711.321 651.924 710.18 653.799 708.47 655.164C706.916 654.794 705.502 655.766 704.011 655.975C701.906 656.27 700.585 658.231 698.409 658.089C696.143 657.941 694.771 659.644 693.005 660.614C691.194 661.609 688.667 661.092 687.006 662.831C684.607 661.373 683.184 664.249 680.887 664.203C678.649 664.63 676.484 665.378 674.46 666.424C671.374 667.372 668.222 668.103 665.115 668.984C662.7 669.969 660.216 670.778 657.684 671.403C655.15 672.174 652.547 672.694 649.912 672.956C649.124 672.902 648.335 673.049 647.62 673.385C644.16 674.78 640.498 675.612 636.774 675.847C635.036 676.037 633.606 677.307 631.737 676.924C629.846 676.822 627.955 677.133 626.197 677.836C624.534 678.213 622.616 677.359 621.171 678.879C616.739 678.762 612.32 679.414 608.11 680.805C606.649 680.998 605.171 681.016 603.706 680.86C603.134 680.592 602.61 680.232 602.155 679.794C600.647 678.588 598.337 679.358 597.128 677.444C596.092 675.803 593.987 675.217 592.731 673.864C589.706 670.605 587.498 666.649 584.268 663.534C584.264 660.018 580.768 658.084 580.275 654.638C578.974 654.18 577.832 653.359 576.984 652.272C574.783 648.772 572.176 645.545 569.215 642.659C567.9 641.533 569.067 639.762 567.547 638.818C566.427 637.995 565.39 637.066 564.449 636.044C564.536 631.965 561.58 630.17 559.476 627.814V625.862C557.717 625.178 556.272 623.868 555.42 622.183C554.377 619.729 552.971 617.446 551.25 615.409C550.245 613.887 549.368 612.285 548.627 610.618C546.075 606.601 544.163 602.22 541.81 598.076C539.349 594.372 537.285 590.42 535.651 586.284C535.532 585.909 534.582 585.798 533.844 585.493V581.404C531.774 579.784 530.308 577.515 529.683 574.962C529.223 572.64 528.89 570.295 528.686 567.936C528.492 565.282 530.321 563.059 529.795 560.483C533.101 557.177 536.355 553.894 539.644 550.646C542.572 547.587 546.268 545.37 550.345 544.225C551.251 543.991 551.636 543.331 552.307 542.956C554.3 541.472 556.629 540.502 559.087 540.133C560.285 539.887 561.424 539.411 562.441 538.731C567.586 536.346 572.973 534.518 578.508 533.28C581.657 532.498 584.893 531.983 587.939 530.917C588.807 530.581 589.72 530.377 590.648 530.31C592.529 530.216 594.395 529.929 596.217 529.455C600.618 528.345 605.212 528.006 609.723 527.323C612.047 527.043 614.346 526.582 616.598 525.945C617.97 525.595 619.378 525.407 620.794 525.385C622.215 525.429 623.621 525.088 624.865 524.399C627.395 523.197 630.157 522.56 632.958 522.535C635.256 522.143 637.523 521.592 639.744 520.885C640.154 520.683 640.585 520.526 641.029 520.416C643.202 520.651 645.401 520.425 647.482 519.753C647.575 519.705 648.398 520.537 649.122 520.396C650.73 520.081 651.073 521.845 652.537 522.401C652.777 519.935 650.9 518.407 650.123 516.551C649.467 514.984 647.45 514.22 646.68 512.529C645.967 511.303 645.021 510.228 643.895 509.365C639.762 505.596 634.783 502.877 629.379 501.435C627.009 500.748 624.536 500.523 622.164 499.834C619.732 499.163 617.25 498.688 614.742 498.413C610.268 498.095 605.913 496.826 601.969 494.69C601.441 494.344 600.947 493.948 600.493 493.508C600.286 493.325 600.233 492.966 600.089 492.638C600.536 491.288 601.381 490.482 602.711 490.652C604.29 490.714 604.65 492.072 605.509 492.605C606.963 493.651 608.102 491.203 609.804 492.553C610.878 493.405 612.958 492.005 614.369 493.455C614.643 493.625 614.954 493.728 615.276 493.755C615.598 493.782 615.922 493.733 616.221 493.61C618.396 493.02 620.696 493.086 622.833 493.799C625.181 494.023 627.515 494.37 629.826 494.837C631.348 495.054 632.814 495.562 634.143 496.335C634.968 496.99 635.946 497.426 636.985 497.6C638.024 497.775 639.09 497.683 640.084 497.332L642.661 500.499C643.59 500.921 644.464 500.393 645.222 500.62C645.691 500.956 646.089 501.383 646.391 501.874C646.694 502.365 646.895 502.912 646.984 503.483L648.965 503.589C649.085 503.603 649.201 503.646 649.301 503.715C651.405 505.81 654.283 507.569 655.401 510.104C657.035 513.036 659.115 515.697 661.565 517.992C661.565 518.611 661.284 519.585 661.61 519.874C663.486 522.157 665.002 524.714 666.105 527.455C666.421 527.968 666.424 528.848 666.844 529.095C669.683 530.764 669.202 534.772 672.071 536.371C672.544 539.461 674.947 541.459 676.345 544.017C677.772 546.625 679.801 548.918 680.968 551.51C681.783 553.32 683.297 554.625 683.815 556.25C684.291 558.093 685.334 559.74 686.797 560.958C687.871 561.802 686.931 563.058 687.767 564.063C689.113 565.752 690.216 567.621 691.045 569.616C691.907 571.586 692.908 573.493 694.041 575.321C695.875 578.675 697.245 582.262 698.115 585.984C698.351 588.465 699.276 590.83 700.786 592.812C700.743 596.007 703.328 598.505 703.174 602.062C706.408 605.53 708.43 609.953 708.935 614.668C709.458 616.3 709.894 617.958 710.242 619.635C710.49 621.168 712.442 622.208 712.761 624.192L712.07 624.951C712.041 625.188 712.059 625.428 712.123 625.658C712.187 625.888 712.297 626.103 712.444 626.291C715.077 629.099 715.221 633.052 716.889 636.338C717.439 637.927 718.198 639.435 719.144 640.824C720.139 641.819 720.754 643.131 720.884 644.532C720.908 646.239 722.391 646.573 722.981 648.048C723.413 650.975 724.288 653.819 725.574 656.484C726.369 658.757 728.872 660.592 727.924 663.446C728.964 664.628 729.231 666.366 730.684 667.216C731.116 670.191 730.676 673.228 729.417 675.958C728.563 677.614 728.057 679.427 727.929 681.286C728.105 683.312 726.171 684.198 725.345 685.637C724.053 687.891 722.143 689.824 720.897 692.234C720.225 693.579 719.128 694.665 717.776 695.324C715.767 696.366 714.017 697.847 712.658 699.657C709.876 702.674 706.324 704.876 702.385 706.025C698.772 707.255 695.271 708.789 691.917 710.611C690.263 711.796 688.308 712.489 686.277 712.609C685.254 712.537 684.299 713.351 683.261 713.667C680.501 714.508 678.081 716.077 675.102 716.767C672.353 717.664 669.702 718.84 667.192 720.277C666.365 720.673 665.489 721.48 664.724 721.386C663.001 721.173 661.698 722.215 660.167 722.433C659.114 722.513 658.056 722.521 657.001 722.459L655.502 724.293C652.681 724.224 649.897 724.932 647.453 726.341C645.203 728.012 641.954 726.812 640.331 729.385H635.464C631.574 731.286 627.545 732.887 623.411 734.175C621.874 734.536 620.278 734.571 618.726 734.278C617.504 735.029 616.458 736.22 615.394 736.236C609.668 736.325 604.575 739.678 598.565 739.254L596.955 741.3C595.562 741.203 594.302 741.705 593.721 740.09C592.929 741.642 591.592 741.052 590.586 741.411C587.423 742.54 584.248 743.647 581.158 744.953C580.389 745.159 579.594 745.253 578.799 745.232C577.104 745.491 575.393 744.815 573.683 746.129C572.566 746.987 570.627 745.636 569.073 746.934C567.752 748.039 565.808 746.868 564.03 747.904C562.099 749.03 559.28 747.621 557.162 749.203C553.596 748.783 550.266 750.986 546.68 750.174C545.393 749.882 544.69 751.012 543.62 751.187C541.921 750.179 540.215 749.342 538.316 750.963C537.211 750.625 536.189 750.059 535.315 749.303C534.805 749.6 534.193 750.243 533.803 750.129C532.621 749.783 531.334 749.504 530.281 749.08C524.517 747.808 519.112 745.26 514.462 741.623C512.204 739.283 509.894 736.913 507.534 734.677C505.228 732.492 502.764 730.381 500.336 728.276C499.214 727.305 499.23 725.523 497.31 725.023C495.921 724.662 495.322 722.504 493.486 722.344C487.665 716.192 482.251 709.666 477.28 702.808C477.076 702.42 477.254 701.832 477.254 700.953L474.253 698.544V696.211C473.908 695.659 473.405 695.716 472.919 695.719C471.459 691.817 469.213 688.256 466.319 685.259C466.82 683.453 464.958 682.273 465.426 680.347C463.096 678.957 462.557 675.653 459.776 674.983C459.039 673.208 459.704 671.618 458.505 670.126C456.393 667.498 455.627 663.987 453.337 661.4C453.025 661.048 452.444 660.525 452.533 660.288C453.435 657.914 450.519 657.33 450.324 655.164C450.029 651.881 447.659 649.053 447.225 645.567C447.123 644.78 446.829 644.03 446.367 643.385C445.905 642.739 445.291 642.218 444.579 641.868C444.359 637.951 443.357 634.119 441.632 630.595C439.457 627.213 438.085 623.378 437.622 619.383C436.058 616.926 434.85 614.259 434.036 611.463C432.573 608.27 431.28 605.002 430.162 601.673C429.855 601.13 429.699 600.514 429.711 599.89C430.119 597.488 428.604 595.739 427.711 593.776C428.176 592.983 428.461 592.096 428.544 591.18C428.626 590.264 428.506 589.341 428.19 588.477C427.254 585.798 426.751 582.988 426.7 580.152C426.782 575.201 426.66 570.248 426.741 565.297C427.047 560.595 427.828 555.935 429.072 551.39C429.209 550.481 429.434 549.588 429.743 548.723C430.552 546.912 430.532 544.857 432.035 543.205C433.892 540.217 435.406 537.029 436.548 533.701C439.56 528.026 443.243 522.733 447.516 517.935V515.921L449.382 514.175V509.887C447.242 507.678 445.616 505.023 444.621 502.112C443.626 499.201 443.286 496.107 443.626 493.05L441.65 492.248V486.176C439.374 485.146 439.78 482.52 438.659 480.681C438.536 480.481 439.05 479.892 439.401 479.237C438.08 477.446 437.435 475.245 437.58 473.024C437.582 471.779 437.339 470.546 436.864 469.395C435.858 466.302 437.97 463.706 439.769 461.386C441.374 459.534 443.093 457.785 444.918 456.149H447.243C447.601 456.958 447.663 457.868 447.417 458.718C447.171 459.568 446.634 460.305 445.899 460.798C443.645 461.995 444.124 464.111 443.25 465.72C442.515 467.438 442.482 469.375 443.158 471.117C443.648 474.17 444.453 477.164 445.561 480.051C445.747 480.395 445.977 480.713 446.244 480.998C447.692 488.2 449.532 495.317 451.756 502.318C455.404 505.435 457.739 509.816 458.293 514.582C460.858 514.14 463.164 515.264 465.124 513.461C466.441 513.317 467.103 515.518 468.748 514.525L470.36 512.854C469.078 509.631 468.159 506.407 466.852 503.29C465.582 500.257 465.289 496.653 463.757 493.689C462.176 490.627 462.321 487.132 460.46 484.13C458.936 480.825 457.787 477.359 457.034 473.799L454.485 471.752C454.324 468.285 453.293 464.915 451.488 461.951C451.146 459.451 451.764 456.914 453.219 454.852C454.394 455.301 455.59 455.882 455.455 457.43L454.503 458.476C454.788 459.003 455.57 459.215 455.463 460.031C455.381 461.057 455.53 462.088 455.898 463.049C456.267 464.01 456.845 464.877 457.592 465.585C457.949 465.897 458.227 466.288 458.403 466.728C459.666 470.82 461.337 474.775 463.391 478.533C466.069 484.531 468.41 490.674 470.404 496.934C471.001 498.974 471.727 501.011 472.408 503.034C473.561 506.452 472.912 510.228 474.686 513.319C477.552 514.177 480.075 512.621 482.76 512.491C485.417 512.819 488.114 512.444 490.581 511.403C491.179 512.034 491.559 512.617 492.36 512.463C493.954 510.852 496.002 511.539 497.874 511.523C498.497 511.621 499.134 511.507 499.685 511.201C500.236 510.896 500.669 510.414 500.915 509.834C500.356 509.247 499.431 509.59 498.824 508.841C496.495 506.438 494.34 503.872 492.377 501.162C490.687 498.317 489.62 495.054 488.13 492.049C486.567 488.9 485.12 485.664 483.708 482.482C481.965 479.935 480.662 477.112 479.856 474.132C479.841 473.575 479.686 473.031 479.406 472.549C479.125 472.068 478.729 471.664 478.252 471.376C478.25 470.387 478.25 469.398 478.25 468.258C474.127 465.883 474.415 460.579 471.514 457.54V449.179L473.457 449.005C472.379 451.394 474.268 452.377 475.489 453.795C476.075 454.512 476.548 455.315 476.894 456.175C477.796 458.161 478.948 460.025 480.323 461.719C482.252 464.311 483.859 467.127 485.109 470.106C486.014 472.881 487.212 475.552 488.684 478.072C490.023 480.917 491.53 483.679 493.198 486.345V490.331C494.598 491.475 495.588 493.044 496.02 494.8C496.174 495.558 496.448 496.285 496.834 496.955C499.033 499.976 500.915 503.239 503.244 506.148C504.527 507.75 503.781 508.905 503.169 510.454L524.663 507.158C526.02 505.079 526.007 505.089 525.226 503.466C523.512 501.129 522.674 498.263 522.86 495.371L520.848 494.266C520.848 492.734 521.331 491.182 520.764 490.493C518.495 487.733 519.287 483.838 516.995 481.078C516.347 480.408 515.947 479.537 515.861 478.609C515.381 475.571 514.539 472.602 513.354 469.765C512.548 466.283 509.988 463.493 509.515 459.973C508.803 456.985 507.767 454.083 506.424 451.321C505.561 449.18 505.078 446.906 504.998 444.599C503.891 443.815 503.035 442.727 502.532 441.467C502.029 440.207 501.901 438.829 502.163 437.498L505.353 436.122C507.938 438.09 507.105 441.688 508.982 443.921C510.614 446.161 511.805 448.691 512.492 451.376C513.406 454.111 515.824 456.469 514.838 459.603L517.282 460.472C515.841 462.358 517.215 464.057 517.998 465.344C519.273 468.624 520.759 471.819 522.447 474.907C522.735 475.29 522.87 475.766 522.828 476.243C522.863 478.962 523.952 481.561 525.864 483.494V487.289C528.452 489.468 528.476 492.568 529.051 495.692L530.793 497.073V501.127C531.971 502.056 531.799 503.912 533.511 504.613C537.761 504.09 541.948 503.145 546.011 501.792C550.317 501.068 554.523 499.84 558.542 498.133C558.443 496.404 556.805 496.106 556.565 495.082C555.336 489.842 552.681 484.97 551.743 479.78C549.293 472.575 547.564 465.145 546.581 457.598C546.585 457.359 546.072 457.144 545.996 456.865C544.996 453.953 544.24 450.963 543.735 447.926C543.217 444.327 542.513 440.758 541.627 437.232L543.196 434.222H544.948C545.954 435.09 547.182 435.867 547.616 437.132C547.573 438.195 546.277 438.42 546.776 439.904L548.574 441.176C548.288 444.497 550.391 447 549.498 449.937L551.562 451.448C551.434 452.693 551.451 453.948 551.615 455.188C552.08 456.947 552.906 458.608 553.537 460.326C554.012 461.938 554.578 463.521 555.233 465.068C556.111 466.805 555.259 468.668 556.307 470.596C557.533 472.48 557.978 474.767 557.547 476.973C561.066 483.467 562.068 490.421 565.109 496.81C568.133 496.355 570.801 494.234 573.928 494.571L575.81 492.689H580.699C583.039 489.874 587.117 490.301 589.621 487.798C589.932 486.463 591.108 485.55 591.238 484.018C591.261 478.524 590.915 473.035 590.203 467.588C588.469 465.809 590.08 463.203 589.087 461.64C587.578 458.451 586.372 455.129 585.483 451.715C584.444 449.166 583.883 446.421 582.805 442.711L579.311 439.794C579.391 439.259 579.358 438.712 579.213 438.191C579.069 437.669 578.816 437.183 578.472 436.765C576.674 434.974 574.612 433.469 572.357 432.303C569.738 431.052 566.994 430.081 564.17 429.406C559.833 428.089 555.139 428.34 550.65 427.371C548.357 427.047 546.032 427.03 543.735 427.319C541.65 427.066 539.536 427.25 537.527 427.86C535.32 428.416 533.028 428.558 530.769 428.277C530.605 428.29 530.338 428.213 530.289 428.288C528.86 430.484 526.393 428.668 524.452 429.848C522.866 430.811 520.36 430.259 519.082 430.332C513.996 432.543 508.584 433.912 503.058 434.385L501.548 436.301C500.402 436.179 499.242 436.288 498.139 436.623C497.036 436.958 496.011 437.512 495.127 438.251C491.859 438.054 488.599 438.739 485.687 440.235C485.012 440.442 484.412 440.962 483.621 441.224C479.28 442.689 475.115 444.631 471.201 447.012C465.598 450.445 459.546 453.083 453.218 454.852ZM581.355 586.271C582.819 588.436 583.609 590.938 585.067 592.758C586.735 594.84 585.438 598.089 588.222 599.426C589.193 604.012 591.683 608.137 595.289 611.133V613.913L600.499 619.326C602.223 619.826 603.879 618.767 605.385 620.155C605.855 620.483 606.411 620.668 606.985 620.685C607.558 620.702 608.124 620.551 608.613 620.252C610.596 619.008 613.287 619.659 614.974 617.526C615.4 617.045 615.95 616.69 616.564 616.5C617.178 616.31 617.832 616.292 618.456 616.448C619.588 616.706 620.648 615.721 621.519 615.64C624.321 615.377 626.585 613.115 629.524 613.553C633.321 618.77 633.78 625.726 638.813 629.932C638.589 631.233 638.761 632.572 639.307 633.775C639.853 634.977 640.747 635.988 641.874 636.677C646.314 639.794 651.798 641.051 657.152 640.178C660.172 638.474 663.668 637.809 667.103 638.285C670.128 636.813 672.823 634.742 675.025 632.198C677.391 626.816 673.178 622.762 673.426 617.624L670.162 615C670.555 614.169 670.673 613.235 670.501 612.332C670.329 611.429 669.874 610.604 669.203 609.976C666.846 607.695 667.552 604.666 666.283 602.161C668.228 600.822 669.742 598.998 671.981 598.697C673.63 598.606 675.236 598.142 676.679 597.339C678.122 596.537 679.364 595.417 680.311 594.065V586.985C679.311 583.871 677.247 581.209 674.48 579.464C673.615 574.789 672.25 570.221 670.408 565.837L663.596 559.019C663.05 558.865 662.269 559.225 661.508 558.563C660.994 558.174 660.379 557.941 659.737 557.89C659.094 557.839 658.45 557.972 657.881 558.275C653.044 560.163 648.088 561.729 643.044 562.962C642.511 560.363 641.403 557.917 639.799 555.804C638.158 553.731 636.768 551.472 635.657 549.073C634.742 546.491 631.972 545.099 630.357 543.157C627.535 542.919 624.694 543.253 622.004 544.138C618.98 545.593 615.862 546.844 612.671 547.882C608.217 549.907 603.651 551.675 598.994 553.175C598.222 553.279 597.481 553.55 596.824 553.97C596.168 554.39 595.611 554.948 595.192 555.606V561.307C596.227 562.864 598.288 563.415 598.861 564.459C600.822 568.031 604.307 570.029 606.71 573.069C606.863 573.335 606.977 573.622 607.05 573.919C607.011 574.876 606.051 575.138 605.535 575.943C602.602 575.983 599.695 576.501 596.929 577.479C592.906 578.779 588.737 579.572 584.517 579.837C584.216 579.813 583.904 579.937 584.554 579.821L581.355 582.115L581.355 586.271Z" fill="#212222"/>
<path d="M779.955 273.709C780.954 275.154 782.431 276.198 784.126 276.658C788.254 278.555 792.056 281.095 795.389 284.183C796.794 285.399 798.194 286.643 799.734 287.74C801.538 288.841 802.916 290.52 803.645 292.503C804.433 294.255 805.627 295.794 807.129 296.992C807.514 298.194 806.815 299.444 807.793 300.708C809.786 303.476 810.646 306.901 810.196 310.282C810.06 312.755 810.061 315.233 810.201 317.706C810.213 318.085 810.783 318.446 811.118 318.842C809.367 320.417 807.99 322.362 807.086 324.536C805.76 327.679 803.494 330.335 800.599 332.139C795.755 335.431 790.724 338.438 785.531 341.145C782.837 343.15 779.544 344.182 776.188 344.074C774.852 345.048 773.338 345.752 771.732 346.144C767.108 347.243 762.56 348.671 758.002 350.037C752.149 351.799 746.41 353.919 740.818 356.386C738.589 357.365 736.116 357.776 733.788 358.549C731.617 359.269 729.498 360.149 727.337 360.905C726.907 361.055 726.451 360.94 726.011 361.314C722.943 363.353 719.569 364.89 716.018 365.868C712.489 367.326 708.798 368.316 705.246 369.757C699.938 371.962 694.32 373.326 688.592 373.799C688.428 373.811 688.224 373.737 688.102 373.81C682.842 375.815 677.171 376.505 671.583 375.82C670.323 375.914 669.551 375.094 668.435 374.76C664.999 377.651 661.502 374.456 657.943 374.635C654.53 374.575 651.196 373.599 648.29 371.809C645.021 370.474 641.955 368.688 639.182 366.502C636.806 364.127 635.327 360.775 632.807 358.477V353.482L630.045 351.672C629.746 349.017 629.619 347.43 630.591 346.373C629.835 341.843 629.569 337.245 629.798 332.659C629.307 328.246 631.117 324.085 630.931 320.331C632.969 316.119 635.447 312.136 638.326 308.447C640.752 304.168 645.896 303.639 649.759 301.259L649.015 300.36C653.873 295.101 660.37 291.643 667.446 290.55C671.913 289.484 676.112 287.428 680.676 286.636C683.514 283.226 688.297 284.409 691.654 281.967C693.176 280.859 695.775 282.246 697.535 280.695C697.895 280.378 698.284 280.094 698.824 279.663C703.196 280.473 707.196 277.711 711.635 277.661C712.706 276.097 714.39 276.595 715.692 276.82C717.346 277.105 718.259 275.615 719.757 275.715C722.637 275.906 725.319 274.045 728.257 274.768C729.419 275.053 730.052 274.148 730.791 273.705C732.816 272.56 735.106 271.965 737.433 271.981C741.669 271.98 745.688 270.593 749.903 270.752C754.19 270.913 758.494 270.925 762.778 270.734C765.161 270.65 767.537 271.028 769.776 271.849C772.99 273.213 776.466 273.848 779.955 273.709ZM727.673 352.193C729.006 346.581 724.425 345.364 721.999 342.603C722.093 340.526 721.7 338.456 720.852 336.557C720.005 334.659 718.725 332.984 717.116 331.667C717.213 330.291 717.092 328.907 716.759 327.568C715.031 323.763 714.477 319.623 713.146 315.709C712.76 314.575 711.517 313.732 712.023 312.174C712.32 310.283 711.972 308.348 711.037 306.678C709.615 302.993 708.946 299.06 709.071 295.112C709.216 292.354 709.098 289.582 709.098 286.274C708.65 286.819 708.063 287.232 707.399 287.47C706.735 287.709 706.019 287.762 705.326 287.627C703.906 287.548 702.491 287.867 701.242 288.549C697.533 290.939 693.152 292.068 688.749 291.766C687.132 291.929 686.076 293.161 684.571 293.692C681.276 294.369 678.058 295.38 674.968 296.71C672.836 297.999 670.396 298.689 667.905 298.71C665.692 299.275 664.529 301.125 662.984 302.499H658.053C656.511 304.726 653.457 304.506 651.754 306.446C649.486 305.655 648.204 307.508 646.658 308.463C643.663 310.06 641.325 312.661 640.055 315.809C639.526 317.418 638.724 318.924 637.684 320.261C636.437 321.909 637.48 324.084 636.024 325.546C635.837 325.735 635.856 326.127 635.83 326.228C638.321 331.527 635.134 337.337 637.804 342.369L637.05 343.408C637.282 347.488 638.448 351.459 640.459 355.016C642.47 358.572 645.273 361.619 648.649 363.92C648.857 363.92 649.686 363.658 650.144 363.959C655.119 366.641 660.711 367.969 666.36 367.811C669.809 368.175 673.288 368.152 676.732 367.741C680.093 367.219 683.494 366.739 686.849 366.028C689.735 365.417 692.564 364.67 695.405 363.914C697.436 363.055 699.655 362.735 701.846 362.986C702.922 360.387 706.061 361.349 707.365 359.255C707.836 358.499 708.9 358.975 709.68 358.973C710.416 358.972 710.811 358.523 711.364 358.218C713.862 356.454 716.621 355.094 719.541 354.187C722.349 353.689 724.435 350.946 727.673 352.193V352.193Z" fill="#212222"/>
<path d="M853.264 181.645C855.246 181.644 857.226 181.644 859.059 181.644C862.813 183.813 866.834 185.482 871.02 186.609C875.455 187.875 879.64 189.891 883.395 192.569C884.855 194.224 886.823 195.346 888.989 195.76C889.907 195.858 891.1 197.372 891.575 198.997C891.798 199.997 892.29 200.917 893 201.657C893.709 202.397 894.607 202.928 895.597 203.192C898.588 203.914 899.227 206.3 899.398 208.975C901.364 210.818 903.051 212.937 904.405 215.267C905.472 217.115 907.155 218.466 907.553 220.872C907.777 221.625 908.259 222.275 908.915 222.709C909.57 223.142 910.356 223.332 911.137 223.245C911.395 225.097 910.698 227.366 912.932 228.422C914.507 232.404 916.316 236.289 918.349 240.058C919.089 242.556 920.228 244.918 921.721 247.053C922.334 247.853 921.878 248.629 922.556 250.157L925.164 252.25C924.908 253.507 925.653 254.693 924.353 255.076C925.935 258.612 926.858 262.409 927.074 266.277C927.751 267.777 929.592 267.623 930.517 268.787H936.29C937.901 270.163 939.365 271.538 940.961 272.738C942.3 274.082 943.857 275.188 945.566 276.011C946.553 277.354 947.118 279.282 948.447 280.904C951.868 284.606 953.782 289.452 953.815 294.492C953.762 295.91 954.084 297.317 954.75 298.571C955.371 299.789 954.171 301.439 955.497 302.73C956.253 303.466 955.751 304.605 955.786 305.556C955.853 307.369 955.814 309.187 955.803 311.002C955.792 312.643 956.37 314.707 955.595 315.828C954.385 317.575 955.266 319.315 954.698 320.908C953.042 322.682 951.583 324.604 950.027 326.388C946.351 330.245 941.848 333.22 936.857 335.087C936.035 335.438 935.158 335.699 934.314 336.126C930.806 337.758 927.026 338.725 923.165 338.98C920.546 339.651 917.865 340.052 915.165 340.179C912.529 339.995 909.883 339.981 907.246 340.138C903.235 340.607 899.179 339.793 895.659 337.814C894.821 337.383 893.893 337.157 892.951 337.153C891.632 335.771 890.122 334.585 888.468 333.632C885.803 332.111 883.44 330.116 881.494 327.744C879.809 326.041 878.494 324.009 877.631 321.774C876.769 319.539 876.377 317.15 876.482 314.757L874.739 313.27C873.464 311.743 876.255 310.06 874.513 308.626C875.246 307.46 875.371 305.965 876.581 304.934C876.678 299.573 877.304 294.236 878.45 288.999C878.686 286.572 880.609 285.573 881.773 284.027C885.973 278.986 891.164 274.861 897.022 271.907C898.75 270.92 901.1 270.725 903.09 269.86C903.731 269.621 904.315 269.252 904.806 268.776C908.107 269.59 911.138 266.632 914.514 268.078L916.125 266.226C916.09 266.001 916.044 265.555 915.94 265.123C915.907 264.986 915.631 264.897 915.616 264.768C915.079 261.247 914.318 257.765 913.337 254.342C913.095 251.708 912.188 249.18 910.7 246.994C910.591 246.871 910.355 246.747 910.367 246.645C910.849 242.368 906.214 240.082 906.195 235.955C906.193 235.337 905.367 234.537 904.724 234.146C904.122 233.758 903.611 233.246 903.223 232.644C902.836 232.042 902.583 231.364 902.48 230.656C902.37 228.07 899.907 226.717 899.768 224.258C899.666 223.896 899.434 223.585 899.115 223.385C898.797 223.185 898.416 223.11 898.046 223.176C893.757 215.845 888.776 208.942 883.171 202.561L880.926 202.302C879.445 201.414 879.755 199.465 879.283 199.28C877.249 198.139 875.986 198.587 874.825 197.471C873.01 196.072 871.028 194.906 868.923 193.999C866.973 192.916 864.914 192.445 862.978 191.541C860.343 190.311 857.73 189.038 854.691 187.585C854.05 187.585 852.89 187.525 851.739 187.596C848.272 187.61 844.827 187.041 841.548 185.913C838.315 185.113 834.999 184.697 831.669 184.673C827.557 184.693 823.469 184.053 819.56 182.778C818.738 182.356 817.8 182.216 816.891 182.379C815.982 182.543 815.151 183.001 814.528 183.682C813.149 183.61 812.114 182.535 810.527 182.551C796.495 182.691 782.461 182.632 768.427 182.632C763.682 184.003 758.695 182.941 754.017 183.829C750.692 184.292 747.343 184.554 743.987 184.612C741.917 184.428 739.834 184.735 737.905 185.507C736.333 186.371 734 184.72 732.401 186.554C732.327 186.64 732.084 186.618 731.93 186.589C728.013 185.873 724.374 188.065 720.447 187.638C718.228 187.455 715.996 187.723 713.884 188.425C711.127 189.19 708.289 189.619 705.43 189.704C702.039 190.04 698.701 190.78 695.485 191.908C694.774 192.119 694.057 192.717 693.288 192.51C690.777 191.834 688.702 193.591 686.264 193.642C684.188 193.685 682.122 195.238 680.069 195.202C676.013 195.13 672.634 197.931 668.586 197.49C666.245 199.071 663.595 198.295 661.046 198.503C658.964 200.645 655.807 200.097 653.387 201.452C648.646 200.839 644.772 204.056 640.254 204.424C638.462 206.456 635.454 204.43 633.645 206.405C630.571 206.065 627.787 207.94 624.634 207.467C622.92 207.539 621.234 207.928 619.662 208.614C618.187 209.127 616.631 209.37 615.07 209.33C610.49 208.744 606.135 210.703 601.607 210.348C599.902 210.214 598.165 210.89 596.484 209.475C595.646 208.768 594.036 209.453 593.303 210.634L591.231 209.232C590.911 209.598 590.513 209.888 590.067 210.082C589.62 210.276 589.136 210.369 588.65 210.353C588.163 210.338 587.686 210.215 587.253 209.992C586.82 209.77 586.442 209.455 586.145 209.069C585.717 209.771 585.036 210.281 584.242 210.495C583.448 210.708 582.602 210.608 581.88 210.215C580.657 209.418 579.169 209.136 577.739 209.43C573.388 209.568 569.037 209.171 564.784 208.247C561.68 207.579 558.658 206.572 555.775 205.243C555.026 203.457 555.811 202.358 557.216 201.376C559.614 202.895 562.61 202.282 565.211 203.414C568.411 204.535 571.836 204.859 575.189 204.358C577.986 204.163 580.41 205.744 583.209 205.469C585.825 205.212 588.491 205.504 591.127 205.38C592.665 205.307 594.421 206.11 595.714 204.457C595.902 204.217 596.714 204.284 597.149 204.445C602.171 206.31 607.157 204.068 612.193 204.243C616.417 204.176 620.604 203.442 624.598 202.068C626.84 201.406 629.151 201.336 631.393 200.599C633.94 200.016 636.451 199.284 638.913 198.407C641.14 197.369 643.546 197.855 645.753 196.975C647.922 196.111 650.38 195.98 652.514 195.313C655.597 194.349 659.136 194.971 661.831 192.742C668.296 192.562 673.928 188.672 680.412 188.576C683.574 186.188 687.75 187.432 691.068 185.604C693.616 185.928 696.204 185.548 698.55 184.505C701.318 183.698 704.213 183.421 707.083 183.689C709.256 183.865 710.97 182.128 713.117 182.633C715.174 182.827 717.242 182.394 719.049 181.39C720.787 180.726 722.815 181.344 724.383 179.857C725.582 178.719 727.202 180.628 728.962 179.801C730.386 179.132 732.28 179.507 733.977 178.77C735.329 178.183 737.136 179.039 738.523 177.729C738.872 177.399 739.806 177.609 740.457 177.691C745.955 177.905 751.461 177.507 756.871 176.505C759.691 176.237 762.53 175.824 765.391 175.658C766.485 175.748 767.539 176.106 768.462 176.698C771.993 174.21 776.449 177.062 780.262 174.804C784.136 176.138 788.325 176.263 792.272 175.162C793.908 174.603 795.687 174.617 797.314 175.202C798.266 175.603 799.289 175.806 800.322 175.797C801.355 175.789 802.375 175.569 803.32 175.151C805.463 174.431 807.776 174.386 809.946 175.024C810.358 175.114 810.511 175.784 811.151 175.711C816.024 175.154 820.715 177.283 825.6 176.698C828.632 176.557 831.669 176.879 834.604 177.652C837.534 178.028 840.428 178.641 843.259 179.484C844.535 179.782 845.855 179.835 847.151 179.642C848.255 179.479 849.383 179.575 850.444 179.923C851.505 180.271 852.47 180.86 853.264 181.645V181.645ZM895.875 331.209C896.386 331.209 897.182 330.963 897.647 331.252C899.53 332.338 901.602 333.058 903.753 333.372C905.915 333.815 908.108 334.09 910.313 334.193C915.376 334.044 920.417 333.443 925.373 332.396C928.235 331.739 931.045 330.875 933.781 329.81C936.539 328.888 939.163 327.604 941.584 325.993C942.708 325.339 943.563 324.305 943.993 323.077C944.806 321.161 945.771 319.313 946.879 317.551C947.108 316.081 946.277 314.122 947.29 312.577C947.769 311.816 948.057 310.952 948.13 310.056C948.203 309.16 948.059 308.26 947.71 307.432C947.11 305.287 946.821 303.067 946.854 300.84C946.837 299.555 946.56 298.287 946.039 297.112C945.518 295.937 944.764 294.88 943.823 294.004C944.75 289.432 941.274 285.944 940.683 282.084C938.003 280.752 935.854 278.551 934.587 275.839L927.42 272.914L924.644 275.689C923.083 275.796 921.519 275.511 920.095 274.86C918.548 274.561 916.961 274.524 915.402 274.749C915.11 273.844 915.339 273.091 914.646 272.798H909.812C908.527 273.736 907.082 274.431 905.547 274.849C902.059 275.605 898.798 277.174 896.029 279.427C894.571 280.564 892.982 281.521 891.296 282.279C889.206 283.896 887.251 285.679 885.45 287.612C883.855 290.249 882.741 293.148 882.158 296.174C881.046 300.144 881.466 304.388 883.335 308.063L882.343 309.133C884.199 311.478 883.201 314.322 883.516 316.659C884.681 318.244 885.433 320.094 885.705 322.041C887.915 322.825 889.021 324.734 890.533 326.333C892.11 328 894.046 329.45 895.875 331.209Z" fill="#222323"/>
<path d="M353.241 278.512C355.986 280.372 359.128 279.21 361.597 280.818C363.204 281.721 364.173 283.496 366.159 284.087C367.999 284.635 367.901 287.201 369.917 287.949C370.868 288.303 371.352 289.897 372.06 290.921C374.607 294.05 376.758 297.48 378.466 301.135C378.966 302.454 379.52 303.428 378.552 304.534C377.975 305.192 378.719 305.259 378.81 305.609C379.303 307.434 379.322 309.356 378.866 311.191C378.409 313.026 377.492 314.714 376.202 316.096C376.054 316.878 376.592 317.283 377.146 317.753L376.246 318.815L377.169 319.828C376.657 320.191 376.229 320.66 375.915 321.202C375.6 321.745 375.406 322.349 375.345 322.973C374.721 325.886 373.27 328.556 371.166 330.665C368.101 334.593 365.363 338.767 362.979 343.143C362.255 344.541 360.792 344.869 360.204 346.349C359.81 347.341 359.744 349.348 357.714 349.187C356.739 352.799 353.397 354.673 351.59 357.57C350.536 359.26 347.798 359.383 347.979 361.891C344.588 365.151 342.207 369.32 338.536 372.332C335.039 374.815 331.689 377.499 328.503 380.371C325.716 381.187 323.028 382.311 320.488 383.72C320.047 383.954 319.632 384.236 319.25 384.559C314.362 385.315 309.423 385.698 304.476 385.707C301.338 385.492 298.279 384.632 295.488 383.181C292.698 381.73 290.236 379.72 288.257 377.275C287.102 375.978 286.027 374.612 285.039 373.184C285.039 371.732 285.115 370.243 285.026 368.764C284.793 363.416 286.126 358.116 288.861 353.515C289.843 351.074 291.124 348.764 292.672 346.637C294.289 344.85 295.435 342.537 296.926 340.52C300.181 336.572 302.932 332.233 305.115 327.604C306.33 324.756 307.981 322.113 310.007 319.771C311.507 317.795 312.749 315.636 313.705 313.346C314.033 312.817 314.39 312.306 314.775 311.817C316.485 309.072 317.944 306.168 319.756 303.498C321.533 300.879 323.796 298.543 325.55 295.962C329.205 291.6 333.485 287.801 338.25 284.689C341.636 281.681 345.957 279.932 350.482 279.739C351.002 279.74 351.517 279.631 351.992 279.42C352.468 279.208 352.893 278.899 353.241 278.512V278.512ZM374.069 302.06C373.377 298.161 370.504 296.992 369.247 294.564C367.849 292.155 365.898 290.112 363.556 288.606C362.013 287.321 360.294 286.265 358.451 285.47C355.479 284.807 352.435 284.532 349.393 284.655C348.187 286.04 346.239 285.571 344.738 286.66C343.051 287.885 341.66 289.448 339.945 290.553C337.141 292.016 334.611 293.954 332.468 296.28C330.419 298.971 328.176 301.509 325.757 303.874C325.863 305.86 323.511 306.363 323.231 308.292C322.872 310.76 320.6 312.582 319.977 314.82C319.103 317.142 317.865 319.31 316.31 321.243C315.273 322.859 315.527 323.859 317.355 325.293H321.235C322.022 326.341 323.069 327.164 324.274 327.68C325.478 328.195 326.796 328.386 328.097 328.232C329.753 329.909 331.558 331.431 333.49 332.781C335.362 333.983 337.157 335.3 338.865 336.725C340.355 337.923 341.415 339.953 343.745 340.195C344.578 340.281 344.971 341.631 345.56 342.144C347.707 344.013 348.928 346.845 351.817 348.397C358.093 339.883 363.94 331.06 369.334 321.961C371.959 320.09 372.636 315.397 375.01 312.002C376.15 308.12 373.859 304.655 374.069 302.06Z" fill="#212222"/>
<path d="M424.262 275.799C424.512 272.952 427.611 272.91 428.95 271.037C434.017 268.447 439.746 267.441 445.392 268.151L448.488 271.5C449.04 273.204 447.498 275.523 449.408 277.17C447.921 279.333 448.64 282.105 446.652 284.643C446.403 284.755 445.516 285.367 444.604 285.968C443.621 286.879 442.375 287.456 441.044 287.615C439.713 287.774 438.366 287.507 437.196 286.854C434.44 285.854 431.582 285.161 428.673 284.789C426.909 284.278 425.217 283.543 423.64 282.599C419.237 279.769 414.673 277.198 409.969 274.901C408.726 274.311 409.487 272.573 407.976 272.769C404.094 269.418 401.199 265.073 399.602 260.2C399.318 259.161 399.117 258.1 399.002 257.029C398.945 253.4 398.972 249.769 398.983 246.139C398.768 243.912 399.081 241.666 399.897 239.583C400.207 238.481 400.439 237.358 400.589 236.223C400.73 234.828 401.146 233.476 401.812 232.243C402.528 231.301 401.953 229.379 401.953 227.598L404.001 226.04C403.667 222.163 404.59 218.282 406.633 214.97C408.424 211.809 409.378 208.115 411.088 204.969C412.924 201.59 414.534 198.127 416.126 194.655C418.18 190.826 420.577 187.192 423.288 183.796C424.243 182.43 424.46 180.944 425.252 179.622C428.881 172.443 433.077 165.564 437.802 159.053C439.932 156.556 441.81 153.854 443.408 150.987C444.346 149.257 446.665 149.227 446.991 147.11C447.066 146.624 447.562 146.047 447.594 145.414C453.052 142.91 455.912 136.804 461.794 134.986L463.048 136.24L463.877 133.362L464.757 134.208C466.07 133.754 467.441 133.903 468.859 133.374C470.795 132.241 473.058 131.796 475.28 132.111C476.962 132.615 478.02 130.608 479.837 131.054C480.535 131.271 481.276 131.306 481.991 131.157C482.706 131.008 483.372 130.679 483.924 130.201C484.385 129.791 485.516 130.135 486.341 130.135C489.642 130.135 492.945 130.199 496.244 130.121C501.495 129.916 506.743 130.57 511.783 132.057C513.283 132.519 515.14 131.894 516.592 132.424C519.736 133.573 522.714 135.167 525.777 136.54C528.476 137.748 530.453 140.135 533.297 141.095C535.66 145.508 540.526 148.09 541.789 153.444C542.162 156.421 543.508 159.191 545.618 161.325C545.618 168.354 545.777 175.445 545.549 182.523C545.673 185.965 544.847 189.375 543.16 192.377C541.985 194.162 543.771 196.388 541.846 197.794C541.174 201.753 538.926 205.176 538.172 209.183C537.744 211.457 538.094 213.666 537.653 215.664C536.128 217.872 535.147 220.409 534.79 223.068C534.44 225.878 533.034 228.318 532.543 231.115C532.105 233.61 530.174 235.86 530.807 238.545L528.901 240.451L529.013 246.282C529.06 248.546 528.271 250.748 526.797 252.467L527.754 253.424L525.798 255.498C525.989 256.746 525.219 258.173 526.55 259.138L526.669 259.5C524.238 260.696 525.394 264.247 522.833 265.244C521.881 269.626 520.598 273.928 518.994 278.115C516.906 282.028 514.894 285.982 512.806 290.008C509.661 291.552 508.715 295.48 505.709 297.245C503.031 299.298 500.133 301.047 497.069 302.46H483.773C478.278 300.55 476.681 295.899 473.303 293.065V284.705C478.616 282.094 484.456 280.733 490.376 280.727C492.863 281.564 495.043 283.126 496.635 285.213C498.227 287.299 499.159 289.813 499.31 292.433C500.498 292.069 501.588 291.442 502.5 290.599C503.412 289.756 504.123 288.718 504.579 287.563C505.364 285.164 506.797 283.028 508.72 281.393C509.473 278.521 509.727 275.966 511.931 274.257C511.931 273.278 511.53 271.725 511.997 271.394C514.812 269.4 514.082 265.363 516.97 263.319C516.12 260.627 518.283 258.207 517.876 255.448C519.42 254.396 518.942 252.779 518.825 251.406C518.935 247.723 519.93 244.12 521.725 240.902C520.891 237.928 523.255 234.49 522.876 231.356C525.644 225.744 527.443 219.704 528.198 213.492C529.126 212.665 529.843 211.628 530.29 210.468C530.737 209.308 530.902 208.058 530.77 206.822C530.919 203.223 531.606 199.667 532.808 196.272C532.955 195.446 533.981 194.778 534.719 193.898C534.719 192.113 533.971 189.618 534.898 188.294C536.222 186.4 534.781 184.253 536.101 182.825C537.622 181.181 535.588 178.843 537.454 177.421C538.088 174.1 537.905 170.675 536.921 167.441C536.819 167.225 537.297 166.734 537.65 166.118L536.198 165.171C534.982 161.693 534.5 158.001 534.783 154.328C532.664 153.088 532.741 150.186 531.04 149.09C529.279 147.956 529.144 145.434 526.912 144.993H525.392C523.55 143.525 522.23 141.435 519.866 140.486C517.745 139.634 515.851 138.184 513.702 137.449C511.669 136.754 509.395 136.944 507.324 136.099C503.931 135.086 500.373 134.744 496.849 135.092C492.888 135.073 488.913 135.299 484.969 135.037C479.603 135.026 474.273 135.918 469.203 137.675C468.173 138.103 467.055 138.277 465.943 138.18C464.832 138.084 463.76 137.72 462.819 137.121C462.026 137.728 462.539 138.624 462.339 139.607C460.556 141.574 458.521 143.297 456.287 144.732C454.194 146.249 452.547 148.299 451.516 150.669C449.928 153.273 447.039 154.799 446.108 157.805C442.616 161.6 439.747 165.925 437.609 170.618C435.247 174.601 432.885 178.593 430.293 182.425C429.528 183.583 428.92 184.838 428.487 186.156C427.583 188.61 426.301 190.908 424.688 192.967C423.985 193.768 423.453 194.704 423.125 195.718C422.796 196.732 422.678 197.802 422.778 198.863C422.334 199.615 421.801 199.436 421.079 199.493C418.765 205.17 416.203 210.865 413.328 216.425C412.206 218.776 411.406 221.267 410.949 223.832C410.673 225.158 409.705 225.653 408.882 226.795C408.838 229.337 409.391 232.344 406.965 234.575C407.153 241.554 405.657 248.42 405.762 255.435C405.914 259.674 407.632 263.707 410.583 266.755C412.27 268.651 414.214 270.3 416.36 271.656C418.762 273.44 421.428 274.838 424.262 275.799V275.799ZM440.917 272.63C437.285 274.149 433.385 274.352 430.686 277.234V279.426L440.128 282.777C441.067 281.299 441.218 279.466 442.535 278.239L441.596 277.216C443.425 275.549 442.693 274.138 440.917 272.63ZM482.547 286.657C478.777 290.872 484.337 292.564 484.588 295.528C485.918 295.512 487.224 295.169 488.391 294.53C489.558 293.891 490.549 292.975 491.279 291.862C489.982 290.226 490.639 287.726 488.543 286.657H482.547Z" fill="#232323"/>
<path d="M804.246 521.129C800.988 522.01 799.992 525.174 797.509 526.279C795.216 527.632 792.598 528.338 789.936 528.321C788.897 527.577 788.03 526.618 787.395 525.509C786.761 524.399 786.373 523.166 786.258 521.894C789.426 519.258 792.755 516.82 796.224 514.596C797.719 513.741 797.063 511.557 799.272 511.353C800.073 511.212 800.804 510.81 801.354 510.212C801.904 509.613 802.241 508.85 802.314 508.04C802.41 507.456 803.408 506.735 804.096 506.601C804.884 506.396 805.562 505.893 805.987 505.198C806.762 504.225 808.155 503.788 808.228 502.157C808.302 500.492 810.981 501.311 811.149 499.509C811.272 498.185 813.739 498.83 813.252 496.999C816.927 494.069 820.097 490.557 822.636 486.602C822.89 486.311 823.198 486.074 823.544 485.902C823.89 485.731 824.267 485.63 824.652 485.604C825.605 484.847 824.471 483.648 825.38 482.87C827.929 480.327 829.858 477.232 831.019 473.824C832.738 470.748 834.184 467.527 835.338 464.198C835.644 463.155 835.833 462.08 835.899 460.995C835.956 457.86 835.919 454.723 835.919 451.568C834.151 450.169 832.778 448.334 831.934 446.244C824.802 445.594 817.672 447.511 811.828 451.651C808.066 454.086 804.078 456.143 800.445 458.87C798.609 460.248 797.225 462.033 795.391 463.324C790.956 467.037 787.214 471.506 784.337 476.523C783.015 478.416 782.566 480.923 780.295 482.232C781.147 484.184 779.534 485.883 780.292 487.98C780.679 490.01 780.728 492.089 780.435 494.134C779.294 495.25 777.884 496.052 776.341 496.46C774.798 496.869 773.176 496.871 771.632 496.466C770.323 494.19 769.102 491.668 767.511 489.405C765.943 486.788 763.994 484.419 761.726 482.378C761.567 478.998 756.419 479.806 756.64 476.025C752.959 475.525 751.045 472.205 747.869 470.808C744.973 469.375 741.864 468.418 738.663 467.975C735.037 467.758 731.401 467.738 727.773 467.913C724.521 468.417 721.306 469.136 718.15 470.065V474.531C719.232 479.222 723.044 481.431 724.115 485.374C724.73 485.496 725.313 485.742 725.829 486.098C726.345 486.453 726.782 486.911 727.114 487.442C728.463 489.269 730.069 490.891 731.881 492.258C733.245 493.142 734.307 494.42 734.926 495.923C735.527 497.884 737.818 498.315 739.302 499.387C742.46 501.903 745.451 504.622 748.257 507.526C748.816 507.389 749.402 507.417 749.945 507.605C750.489 507.794 750.966 508.135 751.32 508.589C754.203 511.738 757.737 514.221 761.676 515.866C763.125 516.649 763.623 518.282 765.336 518.782C766.906 519.529 768.333 520.545 769.553 521.784C772.228 523.919 775.048 525.866 777.992 527.611C781.948 529.958 786.15 531.865 790.521 533.298C792.199 533.797 792.586 535.172 792.253 536.858C788.48 538.534 785.444 535.187 781.9 535.234C780.757 532.948 778.333 533.177 776.46 532.885C772.812 532.316 770.633 529.463 767.765 527.779C764.637 525.521 761.264 523.622 757.712 522.117C755.498 521.42 754.909 519.508 753.459 518.312C750.29 515.698 746.423 514.249 743.26 511.642C742.338 510.882 741.112 510.713 740.739 509.229C740.527 508.384 739.601 507.924 738.692 507.447C735.703 505.91 733.022 503.835 730.785 501.327C728.251 498.627 725.494 496.146 722.544 493.908C721.45 493.042 720.322 492.659 719.778 491.101C719.386 489.978 718.084 489.114 717.069 488.278C713.661 485.051 711.207 480.948 709.976 476.419C709.33 473.74 709.032 470.989 709.087 468.234C712.163 465.636 715.794 463.78 719.7 462.806C722.147 462.092 724.702 461.826 727.243 462.022C730.594 461.81 733.931 461.431 737.244 460.885C740.662 461.234 744.039 461.916 747.325 462.922C750.519 463.543 753.546 464.831 756.208 466.704C758.705 468.455 761.498 469.867 764.111 471.549C765.81 472.85 767.098 474.613 767.822 476.626C769.189 476.669 769.955 477.759 771.204 478.966L779.129 467.157C781.057 467.15 781.582 463.944 784.144 463.78C784.566 462.103 785.378 460.549 786.513 459.244C787.649 457.939 789.076 456.921 790.678 456.271C792.451 455.531 793.637 454.015 795.423 453.373C796.255 453.074 796.282 452.116 796.443 451.372C799.49 450.257 802.332 448.644 804.852 446.599C807.207 444.928 809.972 444.444 812.276 442.742C814.586 441.561 817.042 440.689 819.579 440.148C824.3 438.408 829.357 437.77 834.362 438.284C838.129 439.93 840.463 443.618 843.625 446.316C843.889 448.31 844.641 450.207 845.814 451.84C845.982 452.688 845.284 452.993 844.733 453.719C845.256 455.182 846.441 456.59 845.007 458.692C844.135 459.97 844.727 462.412 844.97 464.378L842.865 466.481C842.862 469.725 842.033 472.915 840.458 475.751C838.559 478.897 837.038 482.256 835.926 485.758C835.665 487.199 833.131 486.686 833.507 488.635C827.956 495.605 821.998 502.24 815.665 508.508C813.904 509.673 812.542 511.351 811.764 513.315C811.711 513.473 811.622 513.617 811.504 513.735C811.386 513.853 811.241 513.941 811.082 513.993C808.787 514.252 808.137 516.838 806.064 517.451C804.403 517.943 803.953 519.284 804.246 521.129Z" fill="#222323"/>
<path d="M524.68 380.116C524.923 380.939 525.349 381.696 525.926 382.331C526.504 382.965 527.217 383.461 528.013 383.781C531.177 385.24 534.028 387.3 536.408 389.846C538.436 391.592 540.76 392.96 543.271 393.885C544.825 396.168 546.172 398.585 547.295 401.108C546.723 402.019 546.491 403.458 545.181 404.411H540.065C538.688 403.032 537.05 401.436 535.461 399.792C531.819 396.48 527.944 393.433 523.867 390.674C519.786 387.505 515.479 384.628 511.304 381.579C508.798 379.749 505.934 378.5 503.286 376.941C499.313 374.601 495.277 372.365 491.355 369.905C489.214 368.423 486.764 367.448 484.19 367.053C482.221 366.878 481.747 364.841 480.075 364.911C478.525 364.976 477.441 363.971 476.185 363.542C473.31 361.952 470.1 361.064 466.817 360.952C466.457 361.278 466.236 361.729 466.197 362.213C466.158 362.697 466.305 363.177 466.609 363.556C468.666 365.897 466.849 367.806 465.977 369.639C464.079 373.311 460.894 376.155 457.031 377.627C456.315 377.941 455.429 377.862 455.096 378.754C452.699 378.754 450.388 378.65 448.089 378.776C443.861 378.708 439.749 377.386 436.272 374.979C431.849 372.475 430.718 367.825 428.808 363.763C428.239 362.815 427.863 361.764 427.702 360.671C427.54 359.577 427.596 358.462 427.866 357.39C428.774 355.37 430.284 353.68 432.189 352.55C434.093 351.42 436.3 350.905 438.508 351.075C442.62 350.816 446.761 351.02 450.889 351.02C451.549 351.02 452.21 351.01 452.87 351.023C453.436 351.035 453.46 352.255 454.355 351.694C454.866 349.743 453.09 349.109 452.127 348.292C449.006 345.643 445.987 342.887 442.647 340.454C439.603 338.236 436.254 336.516 433.319 334.226C430.368 332.268 427.226 330.616 423.94 329.296C421.084 327.176 417.764 325.767 414.256 325.184C412.182 323.113 409.514 325.003 407.59 324.254L405.945 322.881C405.71 321.495 406.803 321.079 407.403 320.304C410.919 320.183 414.437 320.472 417.887 321.166C419.878 321.688 421.292 323.44 423.469 323.298C425.509 323.164 426.865 324.603 428.53 325.437C432.741 327.952 437.081 330.244 441.532 332.304C443.724 333.224 445.691 334.608 447.298 336.361C448.234 337.675 449.532 338.689 451.033 339.28C453.349 340.071 455.299 341.677 456.518 343.799C459.048 347.087 461.826 350.177 464.827 353.041C466.449 352.61 467.969 353.537 469.617 353.962C476.199 355.953 482.646 358.369 488.916 361.195C490.654 362.148 492.441 363.008 494.27 363.771C496.254 364.272 498.058 365.32 499.474 366.797C505.279 368.537 510.642 371.505 515.2 375.5C518.048 377.246 521.224 378.459 524.68 380.116ZM459.492 357.752C455.033 358.687 451.45 356.475 447.507 356.877C443.61 357.102 439.703 357.131 435.803 356.963C435.615 358.299 435.708 359.66 436.075 360.958C437.404 364.311 439.427 367.344 442.013 369.859C443.806 371.644 446.179 372.727 448.703 372.912C451.226 373.096 453.733 372.371 455.767 370.866C456.632 370.367 457.891 370.251 458.156 369.152C460.262 365.671 459.179 361.944 459.492 357.752V357.752Z" fill="#232323"/>
<path d="M494.129 143.68L495.826 145.194C496.679 146.881 495.172 149.144 497.092 150.587C496.956 152.042 495.852 153.048 496.404 154.974C497.454 158.03 498.336 161.141 499.048 164.293C499.126 164.752 498.903 165.234 499.379 165.648C500.771 167.303 501.785 169.241 502.351 171.328C503.415 173.233 504.631 175.049 505.987 176.758C507.601 179.611 509.528 182.275 511.732 184.701C514.432 187.819 517.648 190.449 521.24 192.476C523.61 193.754 526.079 194.839 528.623 195.721C529.167 197.209 527.993 197.605 527.438 198.333C523.943 198.631 520.423 198.36 517.015 197.531C515.545 197.346 515.006 196.067 513.937 195.419C509.014 192.303 504.952 188 502.127 182.905C501.187 181.625 500.18 180.396 499.111 179.223C496.402 174.1 494.078 168.782 492.159 163.314C491.975 161.352 492.115 159.36 492.115 157.381C489.961 156.503 492.215 154.954 491.612 153.964C490.758 152.562 491.259 151.12 491.14 149.705C491.033 148.522 491.255 147.333 491.783 146.27C492.31 145.206 493.122 144.309 494.129 143.68V143.68Z" fill="#262625"/>
<path d="M905.724 317.067C902.31 315.571 899.171 313.514 896.437 310.98C896.078 309.643 896.808 308.168 895.425 306.917C893.448 304.54 892.113 301.696 891.547 298.657C890.802 296.497 892.59 294.208 893.483 292.142C895.365 288.945 898.428 286.616 902.012 285.659C904.13 284.724 906.336 284.001 908.596 283.5C911.593 282.753 914.733 282.806 917.702 283.654C918.03 283.694 918.362 283.697 918.691 283.664H921.076C925.043 286.169 928.631 289.227 931.732 292.748C932.58 294.447 933.038 296.315 933.072 298.214C933.107 300.114 932.717 301.997 931.931 303.726L933 305.011C930.687 307.393 928.531 309.922 926.545 312.583C924.429 314.428 921.864 315.685 919.109 316.227C916.824 316.554 914.507 316.6 912.211 316.363C910.014 316.412 908.08 318.382 905.724 317.067Z" fill="#212222"/>
</svg>
