<svg width="1208" height="900" viewBox="0 0 1208 900" fill="none" xmlns="http://www.w3.org/2000/svg">
<path d="M930.727 379.785C922.35 380.577 914.441 378.063 906.396 378.917C904.357 379.133 902.863 377.517 900.802 377.815C898.81 377.955 896.811 377.983 894.816 377.896C894.195 377.914 894.008 377.384 893.591 377.214C891.108 376.081 888.37 375.622 885.652 375.882C880.062 376.603 874.659 374.303 869.081 374.879C867.02 373.95 864.746 373.597 862.502 373.858C859.941 373.244 857.515 372.163 855.345 370.67C853.702 369.946 852.211 368.918 850.952 367.639V363.255L852.315 361.893C854.14 361.996 855.97 361.978 857.793 361.839C859.531 361.606 860.614 363.616 862.389 362.91C862.542 362.848 862.707 362.821 862.871 362.83C863.035 362.84 863.196 362.887 863.34 362.966C864.714 363.983 866.299 364.676 867.978 364.996C869.657 365.316 871.387 365.253 873.039 364.813C878.649 364.36 884.054 366.215 889.615 365.876C890.423 365.827 890.687 366.631 891.237 366.784C891.773 367.009 892.37 367.041 892.927 366.876C893.484 366.71 893.967 366.357 894.293 365.876C894.517 366.217 894.827 366.492 895.192 366.674C895.556 366.857 895.962 366.94 896.369 366.916C898.697 366.827 901.03 366.887 903.362 366.887C905.193 366.887 907.339 366.286 908.779 367.037C910.654 368.014 912.095 366.004 913.487 366.944C914.715 367.774 916.035 367.186 917.343 367.733C918.902 368.384 920.972 367.691 922.762 367.963C923.756 367.995 924.74 368.171 925.683 368.482C926.753 368.871 927.899 369 929.028 368.861C930.35 368.723 931.683 368.755 932.997 368.955C936.435 369.959 940.042 370.25 943.597 369.809C945.009 369.946 946.379 370.37 947.622 371.056C949.308 371.59 951.065 371.867 952.834 371.876C954.742 372.569 956.396 373.822 957.58 375.471V379.521L954.314 382.786L952.568 382.906C951.263 384.512 949.648 385.84 947.819 386.809C946.289 387.414 945.03 388.551 944.273 390.012C943.246 392.994 940.541 393.93 938.467 395.451C936.006 396.915 933.96 398.983 932.524 401.461C931.875 402.834 930.761 403.932 929.379 404.56C927.511 405.222 926.651 406.799 925.22 407.807L924.251 406.839C921.459 409.302 918.654 411.799 915.821 414.266C914.219 415.898 912.535 417.447 910.775 418.907C909.275 420.266 907.907 421.765 906.691 423.382C905.131 425.116 903.477 426.762 901.734 428.311C898.16 431.567 895.149 435.39 892.819 439.626C892.602 439.984 892.691 440.622 892.184 440.78C891.742 440.917 891.188 440.699 890.824 441.3V443.354C885.939 447.685 881.88 452.867 878.845 458.647C878.457 459.213 878.793 460.276 878.793 461.108C878.122 462.018 877.475 462.965 876.043 462.922C875.335 465.13 874.142 467.151 872.553 468.839L873.788 470.341C871.532 472.441 869.539 474.806 867.853 477.385V481.292C863.226 484.431 862.327 490.528 857.911 494.071V498.575C857.078 500.795 855.663 502.75 853.816 504.237C853.814 505.204 853.59 506.159 853.161 507.026C852.03 509.406 851.185 511.913 850.644 514.492C850.069 516.773 850.155 519.467 847.935 521.417C847.312 522.003 846.892 522.772 846.736 523.613C846.579 524.454 846.695 525.322 847.066 526.092L843.565 528.442C844.547 532.601 841.958 535.714 842.915 539.109C841.203 540.657 841.131 542.82 840.428 544.588L839.086 544.864C838.34 546.159 839.419 546.732 839.734 547.061C839.971 548.334 839.283 548.65 838.861 549.157L839.825 550.213C839.711 552.574 837.753 553.99 836.76 555.911C835.735 558.011 835.134 560.291 834.991 562.623C834.803 564.889 833.007 566.813 833.985 569.237L832.103 569.886C834.358 573.447 830.751 575.414 830.06 578.339L830.959 579.332C828.591 584.812 827.05 590.614 826.387 596.547L824.818 598.198C825.601 599.371 825.953 600.779 825.814 602.182C825.675 603.586 825.055 604.898 824.057 605.894C824.057 611.101 824.047 616.213 824.087 621.324C824.089 621.561 824.528 621.795 824.763 622.031C822.523 624.671 822.393 625.161 822.654 629.911C821.113 632.427 822.658 636.005 819.652 638.165C820.839 640.28 821.243 642.745 820.793 645.128C820.031 645.848 819.457 646.744 819.12 647.736C818.783 648.729 818.693 649.789 818.859 650.824C818.942 651.459 818.895 652.104 818.721 652.721C818.546 653.337 818.249 653.911 817.845 654.409C816.752 655.775 817.332 657.864 815.347 659.481C819.662 659.168 823.49 660.573 827.283 658.697C828.243 658.453 829.242 658.408 830.22 658.567C833.717 658.557 837.227 658.744 840.707 658.497C842.897 658.342 844.611 659.77 846.797 659.654C848.629 659.557 850.758 658.703 852.41 660.526C852.635 660.774 853.439 660.406 853.859 660.589C855.116 661.137 856.051 659.236 857.639 660.428C858.597 661.148 860.598 660.288 862.026 660.606C869.839 661.634 877.73 661.954 885.601 661.563C886.389 661.596 887.27 661.292 887.862 662.133C888.34 662.812 889.062 662.476 889.684 662.558C891.49 662.797 892.931 661.521 894.756 661.407C896.357 661.307 897.587 662.734 899.531 661.755C900.432 661.345 901.425 661.18 902.41 661.278C903.394 661.375 904.336 661.73 905.14 662.308C905.796 662.796 907.041 662.462 908.01 662.566C910.544 662.836 913.233 661.821 915.614 663.525C915.843 663.631 916.093 663.685 916.345 663.686C916.598 663.688 916.848 663.635 917.078 663.532C920.848 662.13 924.989 662.087 928.787 663.411C930.605 663.869 932.818 663.75 934.69 664.168C936.934 664.571 939.222 664.67 941.493 664.463C943.023 664.396 944.491 665.796 945.79 664.898C947.516 663.705 948.175 666.124 949.776 665.653C951.419 665.394 953.091 665.361 954.743 665.555C956.222 665.322 957.73 665.357 959.197 665.658C960.939 666.349 962.781 666.755 964.653 666.86C966.783 667.005 969.083 668.869 971.222 666.639C971.506 666.471 971.829 666.38 972.159 666.373C972.489 666.366 972.815 666.445 973.106 666.601C974.947 668.533 977.234 667.051 979.336 667.697C980.266 668.706 981.544 669.326 982.912 669.433C984.76 669.552 985.312 671.003 986.565 671.861C986.61 674.879 986.942 677.885 987.558 680.839C988.547 683.516 986.742 686.427 986.276 689.233C986.008 690.455 985.831 691.697 985.749 692.945C985.755 693.347 985.664 693.744 985.483 694.102C985.302 694.461 985.037 694.769 984.71 695.002L985.666 696.058L982.759 698.964V702.815C980.415 704.985 980.261 708.196 978.719 710.702C978.645 710.822 978.757 711.047 978.703 711.193C977.631 714.124 975.043 716.126 974.21 719.34C973.252 722.433 971.295 725.12 968.645 726.98C969.255 728.83 967.987 729.76 966.709 730.958C966.883 733.429 966.256 735.89 964.92 737.976C963.939 739.234 963.244 740.69 962.883 742.243C962.522 743.797 962.503 745.411 962.828 746.972C959.564 749.592 960.21 754.046 957.786 756.986L958.693 757.985C956.609 759.469 954.955 761.479 953.901 763.811C952.848 766.142 952.432 768.712 952.696 771.257C950.481 778.289 945.736 784.249 939.378 787.982C942.338 788.332 942.715 790.607 943.73 792.277C943.869 792.873 943.26 793.132 943.15 793.541C941.609 799.225 936.603 800.328 932.036 801.264C927.578 802.453 923.011 803.185 918.405 803.451C917.9 803.451 917.394 804.13 916.744 804.599C916.131 803.925 915.325 803.457 914.435 803.26C913.545 803.064 912.616 803.148 911.776 803.502C908.203 804.867 904.4 805.528 900.576 805.448C900.058 805.432 899.521 806.065 899.047 806.364C897.998 806.691 897.69 805.179 896.922 805.439C894.329 806.317 891.53 806.03 888.989 806.805C887.965 807.234 886.862 807.446 885.752 807.428C884.641 807.409 883.546 807.16 882.537 806.696C881.977 806.367 881.332 806.209 880.683 806.242C880.034 806.275 879.409 806.497 878.885 806.882C877.955 807.647 877.018 807.291 876.083 807.387C874.53 807.547 872.989 806.379 871.384 807.345C871.253 807.424 870.674 806.759 870.226 806.374C868.836 806.214 867.91 807.657 866.24 807.476C857.695 806.55 849.228 808.661 840.686 808.38C838.794 808.317 836.814 808.927 835.052 807.459C834.673 807.283 834.26 807.191 833.841 807.19C833.423 807.188 833.01 807.279 832.629 807.453C831.492 807.929 830.515 809.239 829.407 807.47C828.331 808.717 827.405 808.587 826.206 807.464C825.762 807.049 824.59 807.302 823.774 807.418C822.236 807.824 820.623 807.85 819.072 807.496C817.468 806.988 815.529 807.741 814.002 806.422C813.856 806.34 813.691 806.297 813.523 806.297C813.356 806.297 813.191 806.34 813.045 806.422C811.781 807.66 810.521 806.196 809.364 806.444C806.05 807.481 802.496 807.476 799.186 806.425C798.191 806.322 797.19 806.313 796.194 806.399C788.201 806.399 780.207 806.446 772.215 806.362C770.431 806.512 768.634 806.405 766.88 806.045C765.263 805.932 763.638 806.041 762.051 806.367C761.413 806.509 760.752 806.509 760.115 806.367C759.477 806.225 758.879 805.944 758.362 805.544C757.663 804.895 756.152 805.246 755.389 806.394C755.153 806.156 754.924 805.723 754.681 805.715C751.479 805.609 748.497 804.204 745.22 804.31C743.671 804.599 742.15 805.015 740.669 805.553C739.133 805.837 737.998 803.777 736.404 805.302C735.496 806.17 734.916 804.327 733.888 804.389C731.481 804.043 729.024 804.394 726.81 805.4C719.65 805.4 712.488 805.37 705.328 805.426C703.986 805.436 703.166 803.514 701.772 804.441C701.378 804.73 700.902 804.887 700.414 804.887C699.925 804.888 699.448 804.733 699.054 804.444C698.357 804.084 697.967 804.972 697.427 805.4C695.98 805.641 695.08 803.844 693.39 804.333C692.161 804.688 690.42 803.93 689.507 804.55C688.36 805.33 686.977 804.172 686.163 805.393C685.143 805.735 684.957 804.343 684.076 804.395C682.983 805.062 681.741 805.444 680.463 805.507C679.185 805.571 677.911 805.313 676.758 804.758C676.026 804.414 675.225 804.241 674.416 804.25C673.607 804.26 672.81 804.453 672.085 804.814C671.669 805.01 671.176 805.716 670.868 805.365C669.712 804.044 668.496 805.699 667.699 805.319C666.183 804.59 664.52 804.218 662.839 804.232C661.157 804.246 659.5 804.646 657.997 805.4C656.607 803.753 655.255 805.671 653.82 805.462C652.002 805.525 650.181 805.463 648.371 805.276C647.095 804.89 645.775 805.256 644.502 804.558C643.422 804.099 642.208 804.062 641.101 804.455C635.3 805.489 629.394 805.814 623.514 805.426C622.534 805.524 621.829 804.401 621.502 804.56C620.799 804.903 620.273 805.584 619.344 805.401C618.251 805.186 617.191 805.552 616.008 805.003C613.27 803.857 610.202 803.778 607.408 804.78C605.564 805.388 603.852 804.901 602.197 805.431C600.652 805.925 599.405 804.289 597.869 805.04C596.296 805.494 594.644 805.611 593.022 805.38C591.194 805.465 589.36 805.4 587.528 805.4H582.532C580.867 805.4 579.201 805.37 577.536 805.41C576.426 805.437 575.121 804.955 574.478 806.974C572.948 805.108 571.131 805.4 569.372 805.4C567.374 805.4 565.374 805.349 563.378 805.416C561.819 805.468 560.399 804.654 558.67 805.293C557.112 805.868 555.111 804.994 553.891 806.648L552.56 805.424L551.425 806.467C549.884 806.259 548.375 804.124 546.725 806.241C542.95 806.534 539.157 806.51 535.386 806.169C534.993 806.126 534.652 805.61 534.331 805.349C532.72 806.053 530.094 806.811 529.683 806.355C528.157 804.658 526.257 805.471 524.552 805.44C518.559 805.334 512.56 805.511 506.569 805.363C502.072 806.009 497.537 806.354 492.994 806.399C491.938 807.733 490.874 806.42 489.827 806.455C488.553 806.467 487.303 806.109 486.227 805.427C484.817 804.637 484.023 806.498 482.658 806.452C482.268 806.434 481.886 806.334 481.536 806.161C481.186 805.987 480.877 805.741 480.627 805.442C480.237 805.77 479.826 806.391 479.496 806.351C476.143 805.941 472.648 807.414 469.375 805.465C468.914 805.259 468.415 805.152 467.91 805.151C467.405 805.15 466.906 805.254 466.443 805.457C463.008 806.481 459.398 806.793 455.838 806.373C453.347 806.506 450.814 806.156 448.353 806.453C444.054 806.973 440.023 805.022 435.767 805.355C435.424 805.382 435.031 804.759 434.659 804.437C434.319 804.746 433.973 805.34 433.599 805.359C430.202 805.192 426.799 805.511 423.492 806.307C421.559 806.96 419.673 805.109 417.435 805.312C413.801 805.642 410.114 805.324 406.453 805.42C401.966 805.339 397.501 804.769 393.138 803.719C392.028 803.505 392.081 804.559 391.202 804.454C386.45 804.622 381.692 804.418 376.971 803.846C376.007 803.581 374.424 804.419 373.052 804.411C368.722 804.387 364.393 804.401 359.958 804.401C358.056 803.015 355.749 802.295 353.396 802.356C346.405 802.496 339.409 802.456 332.416 802.375C330.002 802.779 327.523 802.476 325.278 801.5C324.742 801.323 324.172 801.272 323.613 801.351C323.054 801.43 322.52 801.635 322.054 801.953C320.255 802.719 318.228 802.754 316.405 802.049C313.591 800.97 310.606 800.406 307.593 800.384C306.908 800.555 306.193 800.573 305.5 800.435C304.808 800.298 304.155 800.008 303.587 799.588C302.62 800.99 301.173 800.288 299.927 800.387C298.764 800.468 297.597 800.471 296.433 800.393C295.181 800.32 293.732 800.906 292.828 799.459C291.913 801.137 291.07 799.345 290.179 799.391C288.851 799.458 287.515 799.408 286.183 799.408C285.035 799.609 283.858 799.585 282.718 799.338C279.776 798.414 276.677 798.099 273.609 798.41C271.446 797.865 269.241 797.5 267.018 797.319C265.917 797.624 264.766 797.702 263.634 797.55C262.502 797.397 261.413 797.018 260.431 796.433C260.225 796.271 259.778 796.375 259.45 796.416C253.531 797.151 247.771 794.99 241.88 795.44C239.73 795.605 238.036 793.945 235.785 794.342C233.833 794.816 231.792 794.798 229.849 794.288C227.527 793.663 225.13 793.358 222.726 793.382C220.629 793.2 218.558 792.726 216.47 792.426C215.698 792.317 214.938 792.137 214.198 791.889C212.428 790.983 210.486 790.465 208.5 790.367C206.513 790.269 204.529 790.595 202.679 791.323C202.001 791.649 201.257 791.816 200.505 791.809C199.753 791.802 199.013 791.621 198.342 791.281C196.844 790.033 195.518 791.467 194.305 790.835C192.938 790.271 191.428 790.146 189.987 790.481C188.075 790.457 186.192 790.022 184.463 789.206C182.292 788.657 180.058 788.396 177.818 788.43C176.064 788.084 174.272 787.968 172.488 788.083C170.188 788.768 169.067 786.996 167.327 786.727C166.349 786.576 166.231 787.548 165.928 787.357C165.255 786.93 164.787 786.243 163.813 786.402C163.164 786.509 162.481 786.385 161.818 786.429C158.143 786.686 154.459 786.075 151.065 784.643C150.288 784.398 149.465 784.329 148.658 784.442C143.743 784.392 138.874 783.491 134.266 781.779C133.972 781.698 133.683 781.417 133.415 781.447C128.566 781.475 123.723 781.081 118.942 780.271C117.098 779.006 114.907 778.346 112.671 778.382C108.675 778.959 104.598 778.298 100.99 776.488C98.5883 776.604 96.1893 776.215 93.9476 775.345C89.0216 774.637 84.1965 773.348 79.5739 771.505C78.8548 771.099 78.177 770.625 77.5505 770.088V765.814C78.6659 764.584 79.9197 763.487 81.2871 762.545C82.1644 762.049 83.1949 761.593 83.3782 760.775C83.6022 759.982 83.9908 759.246 84.5189 758.614C85.047 757.982 85.7025 757.468 86.4427 757.107C89.3802 755.399 91.2758 752.459 94.3578 750.94C95.4185 750.29 96.5337 749.733 97.6909 749.277C99.0356 748.862 101.239 748.583 101.509 746.201C101.603 745.37 102.564 744.822 103.564 744.414C108.454 741.874 112.775 738.364 116.262 734.098C116.546 733.812 116.519 733.219 116.637 732.769C117.767 732.283 118.897 731.795 120.077 731.285C120.115 729.697 121.891 729.123 122.371 727.824C123.488 725.658 125.159 723.826 127.214 722.514C127.833 722.126 128.304 721.541 128.548 720.852C128.792 720.162 128.796 719.411 128.559 718.719C131.651 717.034 134.226 714.539 136.008 711.501C137.206 709.14 140.414 708.648 141.822 706.48C143.149 704.343 144.935 702.529 147.051 701.169C149.591 699.535 151.37 696.809 154.12 695.263C156.158 694.117 158.04 692.69 160.083 691.555C161.984 690.651 163.637 689.301 164.901 687.618C165.743 686.405 166.838 685.39 168.111 684.643C169.385 683.897 170.806 683.437 172.275 683.296C172.711 681.889 173.59 680.662 174.782 679.798C175.974 678.934 177.414 678.48 178.885 678.504C182.92 674.617 187.431 671.256 192.311 668.502C195.085 666.877 197.626 664.884 199.864 662.575C201.441 660.993 203.203 659.608 205.112 658.448C207.784 656.697 210.981 655.514 212.493 652.076C213.849 650.656 215.563 649.628 217.453 649.1C219.344 648.572 221.342 648.565 223.237 649.078C224.06 649.471 224.978 649.618 225.882 649.5C226.786 649.383 227.637 649.006 228.332 648.416C228.993 649.117 229.859 649.589 230.805 649.768C231.751 649.946 232.73 649.821 233.6 649.409C235.382 648.626 237.347 648.351 239.275 648.617C247.766 648.522 256.259 648.586 264.752 648.562C265.847 648.559 267.152 649.038 267.712 647.422C267.94 647.799 268.265 648.108 268.653 648.316C269.042 648.524 269.48 648.624 269.92 648.603C273.582 648.537 277.247 648.598 280.91 648.558C281.712 648.697 282.537 648.562 283.253 648.176C284.008 647.717 284.872 647.465 285.755 647.445C286.639 647.425 287.513 647.637 288.288 648.061C289.39 648.557 290.597 648.77 291.801 648.682C293.005 648.595 294.169 648.208 295.187 647.558C296.031 648.161 297.017 648.534 298.048 648.645C299.079 648.755 300.122 648.598 301.075 648.188C301.652 647.949 302.113 647.506 302.82 647.57C307.726 647.234 312.654 647.485 317.499 648.319C318.127 647.85 318.861 647.546 319.635 647.432C320.41 647.319 321.201 647.402 321.936 647.671C325.725 648.653 329.661 648.943 333.553 648.527C334.927 648.604 336.419 649.055 337.743 647.73C338.249 647.224 339.745 647.313 340.613 647.624C345.978 648.68 351.461 649.005 356.913 648.592C357.619 645.736 358.734 642.997 360.221 640.459C360.221 639.224 360.319 637.387 360.197 635.564C360.16 633.164 360.492 630.773 361.18 628.474C361.693 626.325 360.382 623.869 362.22 621.905C361.651 616.53 365.144 611.673 364.218 606.252C365.22 603.68 365.54 600.892 365.149 598.16L366.919 596.516C367.054 596.191 367.149 595.853 367.204 595.506C367.302 593.844 367.296 592.177 367.185 590.516C366.74 586.576 368.627 582.904 368.365 579.002C370.231 577.986 367.966 577.3 368.108 576.257C368.361 573.773 368.385 571.27 368.182 568.781C368.105 567.227 368.732 565.605 367.335 564.099C367.046 563.599 366.915 563.024 366.96 562.448C367.004 561.873 367.221 561.324 367.583 560.875C367.987 560.46 368.253 559.932 368.347 559.361C368.441 558.79 368.357 558.203 368.107 557.682C367.383 556.404 368.228 555.444 368.107 554.466C367.849 552.393 370.124 550.749 369.131 548.918C368.177 547.157 369.579 545.763 369.213 544.207C368.987 543.245 369.605 542.687 370.297 542.155C369.574 540.612 369.188 538.932 369.165 537.227C369.142 535.523 369.482 533.833 370.162 532.27C371.046 529.644 372.059 527.062 372.958 524.441C373.231 523.855 373.306 523.195 373.17 522.563C371.218 518.101 373.927 514.053 374.303 509.812C374.637 507.947 375.674 506.281 377.201 505.16C377.406 503.45 375.433 503.217 375.2 501.903C376.143 499.017 377.363 496.23 378.844 493.58C378.183 490.417 379.961 487.432 379.054 484.29L381.091 482.662C380.856 480.78 381.091 478.869 381.775 477.1C382.458 475.332 383.569 473.76 385.008 472.525C385.79 470.391 384.151 468.025 386.176 466.3L385.239 465.245C386.654 463.733 388.327 462.537 388.575 460.08C388.923 458.871 389.563 457.765 390.439 456.862C391.207 456.221 391.762 455.363 392.031 454.4C392.301 453.437 392.271 452.414 391.948 451.468C395.46 447.806 398.238 443.506 400.132 438.798V435.529C400.944 434.679 401.322 433.336 402.739 433.855C404.631 430.236 405.543 426.152 409.831 424.62C410.134 424.487 410.407 424.292 410.632 424.047C410.856 423.803 411.027 423.515 411.135 423.202C411.909 421.197 413.344 419.517 415.203 418.44C418.178 415.867 420.837 412.949 423.121 409.746C423.665 408.999 424.323 408.342 425.072 407.8C426.803 406.646 428.9 405.974 429.866 403.742C430.427 402.446 432.256 402.113 433.175 401.15C434.087 400.193 435.81 400.282 436.097 399.012C436.537 397.072 438.422 397.781 439.368 396.862C440.21 395.862 441.198 394.995 442.299 394.29C444.94 392.993 447.455 391 450.779 391.993C451.029 393.323 452.509 394.264 452.007 396.474C449.344 398.714 447.708 402.776 443.439 404.112C442.829 404.404 442.335 404.891 442.034 405.496C439.142 409.477 435.812 413.12 432.106 416.357C430.354 417.773 429.008 419.628 428.206 421.734C427.83 422.825 427.08 423.748 426.089 424.338C423.026 426.901 420.621 430.158 419.071 433.839C417.354 437.055 414.995 439.884 412.14 442.151C412.314 443.723 412.036 445.312 411.338 446.732C410.641 448.151 409.553 449.342 408.202 450.164C408.191 451.327 407.921 452.473 407.412 453.518C406.903 454.563 406.168 455.481 405.26 456.207V461.359L402.172 463.842V467.693L400.282 469.096C400.176 469.488 400.2 469.903 400.35 470.279C400.5 470.656 400.768 470.974 401.114 471.185C398.655 473.174 399.077 476.61 396.961 478.772L398.05 480.223C396.066 482.699 396.806 486.077 395.543 488.881C394.32 491.831 393.864 495.042 394.219 498.215L392.378 500.057C393.182 501.963 392.082 503.725 391.777 505.504C391.513 506.226 391.317 506.971 391.192 507.729C391.217 510.292 390.935 512.85 390.35 515.345C389.623 517.551 389.012 519.792 388.521 522.061C387.538 526.316 387.089 530.677 387.182 535.042C387.29 537.593 386.643 540.119 385.322 542.303L386.162 543.211C386.733 544.485 384.873 544.756 385.165 545.752C385.165 547.728 386.684 548.918 387.09 550.793C386.423 551.683 386.091 552.778 386.152 553.888C386.212 554.997 386.662 556.051 387.421 556.862C384.949 558.316 387.251 561.226 385.342 563.082C386.959 563.925 385.395 566.171 387.105 567.072C386.467 567.765 386.097 568.662 386.061 569.603C386.024 570.544 386.325 571.467 386.908 572.207C386.046 574.515 385.457 576.917 385.152 579.362C385.123 580.519 386.207 581.908 385.882 582.26C385.534 582.72 385.296 583.254 385.184 583.819C385.072 584.385 385.089 584.968 385.236 585.526C385.296 586.613 385.126 587.701 384.739 588.718C384.351 589.735 383.753 590.659 382.985 591.43C386.428 594.61 381.813 597.902 383.267 601.062L381.203 603.126C381.46 604.901 381.415 606.706 381.07 608.466C380.787 610.163 380.188 611.791 379.303 613.266C379.132 613.505 379.023 613.782 378.984 614.073C378.946 614.364 378.98 614.66 379.084 614.935C379.188 615.21 379.358 615.454 379.58 615.647C379.801 615.839 380.067 615.975 380.353 616.04C379.599 617.683 379.414 619.302 378.28 620.064C378.057 621.236 378.729 621.563 379.165 622.071L378.146 623.194C378.952 627.214 376.213 631.02 377.206 634.704L374.195 640.549C374.526 646.17 373.924 651.805 372.412 657.229C372.677 657.394 372.902 657.618 373.068 657.883C373.234 658.148 373.338 658.447 373.372 658.758C373.406 659.069 373.368 659.384 373.262 659.679C373.156 659.973 372.986 660.24 372.762 660.459C370.233 663.751 368.977 667.844 369.226 671.988C369.143 673.315 369.213 674.65 369.213 675.982C365.55 678.637 363.044 682.596 362.209 687.042L357.265 691.877V693.847C354.996 697.006 351.432 698.574 348.825 701.295C346.595 704.137 343.921 706.6 340.907 708.592C339.96 709.1 339.718 710.682 338.729 711.562C334.392 715.774 329.572 719.456 324.369 722.533C321.071 724.304 317.898 726.299 314.874 728.505C313.865 729.248 312.776 729.875 311.626 730.374C307.491 732.1 304.585 735.631 300.582 737.476H297.767C296.971 738.627 295.928 739.584 294.714 740.28C293.5 740.976 292.146 741.393 290.751 741.499L288.011 744.238C282.833 745.457 277.832 747.334 273.13 749.825C274.276 750.948 275.499 750.43 276.593 750.435C285.085 750.482 293.579 750.454 302.071 750.467C303.502 750.469 305.04 750.115 306.084 751.502C307.284 750.815 308.623 750.407 310.002 750.307C311.381 750.207 312.765 750.417 314.051 750.924C315.099 751.288 316.205 751.456 317.314 751.418C318.588 751.363 320.035 752.044 321.125 751.041C322.361 749.905 322.766 752.042 324.018 751.556C325.304 751.17 326.672 751.155 327.966 751.513C330.208 752.034 331.87 750.272 334.062 750.396C340.227 751.106 346.426 751.485 352.632 751.528C358.778 751.219 364.951 751.476 371.112 751.443C371.933 751.438 372.199 752.075 372.72 752.454C372.94 752.115 373.249 751.842 373.612 751.662C373.975 751.483 374.379 751.404 374.783 751.435C376.225 751.328 377.666 751.66 378.916 752.387C380.284 753.392 381.728 750.792 382.887 751.549C385.461 753.227 387.711 751.637 390.114 751.566C392.618 751.491 395.337 750.53 397.722 752.419C398.303 752.879 400.272 752.211 401.805 751.444C403.129 751.212 403.787 753.116 405.377 752.518C406.359 752.333 407.364 752.313 408.353 752.459H414.847C416.988 752.155 419.164 752.205 421.288 752.607C423.414 753.389 425.06 752.005 427.025 752.371C429.177 752.596 431.345 752.626 433.503 752.459C435.663 752.595 437.831 752.576 439.99 752.403C443.645 751.872 446.987 753.85 450.572 753.443C452.34 753.571 454.113 753.302 455.763 752.656C456.667 752.268 457.652 752.109 458.632 752.191C459.612 752.273 460.557 752.593 461.384 753.126C462.017 753.516 462.739 753.735 463.482 753.762C464.225 753.788 464.962 753.622 465.621 753.278C468.396 751.175 471.201 753.512 473.879 752.71C475.06 754.155 476.675 753.395 478.066 753.416C484.226 753.511 490.4 753.698 496.546 753.385C501.816 753.115 506.858 755.108 512.128 754.505C513.131 754.481 514.087 754.07 514.794 753.357C516.471 753.913 517.958 755.098 520.15 754.113C521.389 753.557 523.3 754.733 524.952 754.443C526.816 754.116 528.95 755.355 530.553 753.485C530.878 753.833 531.276 754.105 531.719 754.281C532.162 754.456 532.639 754.53 533.115 754.498C535.319 754.703 537.734 753.62 539.699 755.455C541.801 753.965 544.403 756.804 546.557 754.61C547.055 754.102 548.46 754.461 549.448 754.46C555.609 754.453 561.77 754.44 567.931 754.471C568.571 754.353 569.228 754.368 569.861 754.517C570.494 754.667 571.09 754.946 571.609 755.338C572.3 755.958 573.843 755.632 574.695 754.286C576.085 755.01 577.615 755.426 579.181 755.505C585.173 755.379 591.167 755.373 597.164 755.488C600.563 755.206 603.985 755.477 607.297 756.29C608.278 756.744 609.364 756.919 610.438 756.797C611.511 756.674 612.53 756.259 613.384 755.597C613.51 755.504 613.664 755.456 613.821 755.461C618.016 755.554 622.182 756.189 626.213 757.352C629.744 756.052 633.611 755.985 637.184 757.163C639.18 755.845 642.008 756.52 644.724 756.491C646.163 756.476 647.346 758.539 649.094 756.904C650.39 755.691 652.299 757.026 653.761 756.156C654.025 755.954 654.263 755.721 654.471 755.462C656.231 757.434 658.533 756.354 660.554 756.375C662.609 756.539 664.648 756.872 666.648 757.373C668.803 757.558 670.968 757.589 673.128 757.467C675.019 757.517 676.906 754.894 678.634 757.525C679.987 757.11 681.237 755.58 682.306 756.534C683.823 757.887 685.4 757.328 686.961 757.429C688.624 757.533 690.291 757.537 691.954 757.44C703.836 756.767 715.63 759.098 727.511 758.465C728.972 758.532 730.42 758.166 731.674 757.414C732.935 758.01 734.289 758.382 735.677 758.514C740.834 758.348 745.999 758.439 751.161 758.459C752.91 758.466 754.774 757.973 755.931 759.648C760.06 758.707 762.093 755.293 765.185 753.495C768.51 751.442 771.708 749.192 774.762 746.755V744.096C778.216 742.146 778.105 738.655 779.171 735.725C779.726 735.614 780.253 735.389 780.719 735.067C781.185 734.745 781.579 734.331 781.879 733.851C781.524 730.959 782.153 728.03 783.664 725.539C783.215 725.774 783.481 725.611 783.765 725.494C784.05 725.377 784.353 725.306 784.638 725.217C785.545 724.022 784.07 723.57 783.865 722.751C783.935 722.414 783.89 721.966 784.078 721.823C787.053 719.56 786.593 715.857 787.844 712.879C788.141 712.173 787.774 711.375 788.26 710.548C791.273 705.448 793.227 699.794 794.008 693.923C794.461 691.915 794.745 689.873 794.857 687.818C794.881 685.841 794.862 683.862 794.862 682.157C795.345 681.319 795.902 681.607 796.691 681.473C796.858 677.151 798.947 673.078 798.874 668.582C798.901 668.272 799.013 667.976 799.197 667.725C800.822 664.553 801.389 660.943 800.817 657.425C800.597 654.391 801.149 651.35 802.421 648.586C802.752 648.041 802.898 647.403 802.835 646.768C802.594 643.741 803.316 640.715 804.897 638.122C805.214 637.427 805.945 636.997 805.879 636.018C805.657 632.724 807.234 629.586 806.811 626.279C806.741 625.736 806.124 625.261 805.8 624.812C807.622 621.822 806.465 618.63 806.879 615.617C807.282 612.679 807.9 609.771 808.526 606.273C807.021 604.101 807.787 601.566 809.861 599.028C809.518 597.489 810.597 595.605 808.917 594.052C808.623 593.781 808.677 592.588 809.173 591.754C811.047 588.996 811.987 585.71 811.855 582.379C811.8 581.733 812.26 581.093 812.298 580.599C812.45 578.636 815.224 578.094 814.777 576.145C814.357 574.311 816.104 573.272 815.952 571.539C815.89 570.829 817.015 570.015 817.686 569.137C817.496 568.914 816.909 568.46 816.984 568.275C818.194 565.276 817.484 561.768 819.791 559.006C821.586 556.439 822.642 553.427 822.842 550.301C822.913 549.836 822.861 549.231 823.133 548.938C825.536 546.353 824.675 543.154 824.86 540.188C825.194 539.672 825.686 539.677 826.606 539.714C826.158 537.539 829.247 535.771 826.995 533.294C827.886 532.491 827.425 530.541 829.465 530.492C830.136 530.475 830.283 529.046 830.406 528.487C831.01 525.76 831.809 523.078 832.797 520.465C833.041 519.215 833.185 517.948 833.226 516.674C834.056 513.346 835.701 510.277 838.014 507.744L836.827 505.98C836.827 505.813 836.758 505.552 836.837 505.494C839.668 503.437 838.459 499.533 840.809 497.096C842.623 495.323 843.701 492.931 843.826 490.398C843.874 488.252 846.25 487.195 846.348 484.892C846.559 484.211 847.005 483.626 847.605 483.241C848.205 482.855 848.922 482.695 849.629 482.786C849.212 479.964 852.184 478.202 851.807 475.25L854.784 472.409V469.179L858.827 465.272V463.278C859.168 462.769 859.651 462.746 860.538 462.833C860.543 460.301 862.29 458.402 863.041 456.015C865.782 455.637 866.006 453.196 867.071 451.197C869.98 450.546 870.616 447.625 871.727 445.356C873.909 441.884 876.284 438.537 878.84 435.33C879.11 434.905 879.937 434.834 880.505 434.598C881.352 433.08 881.617 431.394 883.548 430.343C885.199 429.073 886.5 427.404 887.327 425.493C888.227 424.069 889.491 422.91 890.989 422.138C892.112 421.6 893.116 420.843 893.943 419.912C894.769 418.98 895.402 417.892 895.803 416.714C896.359 414.596 898.714 414.331 900.165 413.224C901.413 412.271 902.602 411.19 903.89 410.269C904.782 409.632 904.476 408.056 905.301 407.942C906.469 407.78 906.967 407.018 907.73 406.389L906.784 405.33C907.313 404.766 907.692 404.078 907.884 403.328C908.93 400.857 909.419 400.52 911.998 399.129C912.265 398.985 912.645 399.016 912.871 398.838C913.839 398.251 914.694 397.497 915.395 396.609C915.797 395.665 916.55 394.915 917.496 394.517C918.349 394.184 919.462 393.224 919.526 392.463C919.631 391.229 921.088 390.706 920.755 389.423C922.053 388.656 923.836 388.354 923.823 386.297C926.29 385.326 928.613 384.024 930.729 382.426L930.727 379.785Z" fill="#212222"/>
<path d="M628.762 400.859C628.975 398.72 630.985 398.431 631.706 397.352C632.51 396.146 633.487 395.125 634.36 393.975C636.061 394.136 637.768 393.732 639.217 392.826C640.665 391.92 641.775 390.563 642.374 388.963L645.782 388.77C648.059 386.052 650.725 383.684 653.695 381.746C655.182 380.438 657.39 380.202 659.022 378.934C659.341 378.686 660.035 378.522 660.148 378.156C661.316 374.376 665.542 373.752 667.426 370.848H670.478C672.179 369.448 672.381 366.692 674.962 366.236C674.547 364.57 676.103 364.96 676.793 364.61C681.383 362.567 685.304 359.272 688.109 355.103C689.039 353.798 692.03 354.843 690.891 351.974H694.116C696.589 349.986 698.708 347.596 700.385 344.903C704.942 345.571 707.173 342.005 709.903 339.457C710.589 338.553 711.494 339.065 712.469 338.871C713.933 337.04 715.881 335.656 718.092 334.876C719.203 334.629 719.665 333.6 720.08 332.428C720.377 331.587 722.089 331.684 722.738 330.628C723.389 329.567 724.502 330.034 725.474 329.91C726.077 327.914 727.131 326.454 729.537 326.948C730.653 325.229 732.812 324.483 733.12 321.973C736.299 322.404 737.57 317.799 741.3 319.113C743.298 316.768 744.937 313.936 748.496 313.853C748.784 310.914 752.66 312.498 753.32 310.029C755.487 309.729 756.793 307.834 758.592 307.077C760.748 306.17 761.653 303.84 763.999 303.206C764.938 302.952 765.619 301.774 766.968 301.918C767.898 301.867 768.77 301.449 769.392 300.755C771.977 297.73 776.291 297.423 778.855 294.489C781.62 294.155 783.517 292.078 785.846 290.883C787.605 290.132 789.526 289.84 791.43 290.033C793.055 290.386 794.536 291.221 795.678 292.43C796.82 293.638 797.569 295.165 797.829 296.807C796.626 299.171 795.956 301.771 795.867 304.422C794.639 305.366 794.064 307.214 792.223 307.028C791.488 308.154 792.144 309.32 791.092 310.336C787.736 313.577 785.98 318.147 782.257 321.17C781.402 321.864 781.191 323.35 780.625 324.604C779.066 325.345 777.225 326.044 776.875 328.304C776.779 329.174 776.422 329.994 775.851 330.657C775.28 331.321 774.522 331.796 773.676 332.021C768.488 339.828 762.355 346.36 756.894 353.917L756.893 355.403L752.342 359.952C751.34 360.803 752.48 362.269 751.262 363.085C750.49 363.603 750.166 365.07 749.748 365.341C745.719 367.951 744.499 372.558 741.723 375.931C739.24 379.718 736.293 383.182 732.952 386.24C733.644 388.188 731.026 389.388 732.053 391.235L728.72 394.507L716.467 419.441C715.619 421.226 716.671 423.498 714.685 425L715.879 426.299C712.578 430.139 714.468 434.759 713.861 438.87C714.798 440.643 716.184 442.088 715.907 444.34C717.994 446.049 719.679 448.197 720.839 450.633C722.563 453.817 725.686 455.245 728.134 457.504C732.881 457.753 736.734 461.55 741.77 460.831C744.219 460.399 746.592 459.613 748.812 458.494C750.627 457.635 752.382 456.67 754.174 455.776C757.936 453.503 761.228 450.531 763.873 447.021C764.054 446.82 763.905 446.269 764.091 446.137C766.772 444.752 768.863 442.447 769.982 439.645C770.807 436.93 773.797 435.74 775.815 433.934C777.112 432.673 777.899 430.978 778.024 429.173C780.143 427.054 782.263 424.935 784.381 422.815C785.229 422.196 784.688 421.281 784.976 420.39C787.79 417.457 790.129 414.103 791.906 410.447C792.187 409.737 792.999 409.235 793.568 408.639C795.039 407.157 796.374 405.545 797.556 403.824C798.695 402.104 799.311 399.654 801.972 399.156C802.37 399.023 802.733 398.799 803.03 398.501C803.327 398.204 803.551 397.842 803.685 397.443C804.225 395.146 804.275 392.655 807.169 391.861C807.744 389.438 810.694 388.64 811.109 386.108C813.681 385.791 813.909 383.465 814.841 381.745C814.912 381.613 814.849 381.378 814.942 381.293C819.038 377.672 822.398 373.297 824.838 368.405C830.138 365.74 831.895 359.536 836.802 356.727V354.52C837.367 353.513 838.292 354.041 839.045 353.901C841.6 352.561 842.629 349.699 845.018 348.078C847.175 346.193 848.906 343.871 850.095 341.264C851.083 339.507 852.543 338.061 854.309 337.089C857.478 335.62 859.054 332.618 861.591 330.593C861.883 330.36 861.85 329.72 862.053 328.945C863.621 329.368 864.854 328.156 866.507 327.765C867.189 327.205 866.631 326.304 866.878 325.259C869.36 325.673 868.604 321.632 871.157 321.982C873.37 322.285 873.764 318.457 876.525 320.325C876.392 317.203 879.174 317.204 880.514 315.752C881.98 314.163 883.561 312.679 885.205 311.034L886.346 311.924C886.544 311.126 886.95 310.394 887.523 309.804C888.097 309.214 888.816 308.786 889.609 308.565C892.058 307.881 893.438 305.66 895.276 303.991H897.352C900.771 300.327 904.482 296.947 908.448 293.884C909.445 292.599 910.348 293.124 910.841 293.021C915.248 289.269 919.973 285.909 924.962 282.977C926.904 282.055 927.862 280.005 929.752 278.898C931.363 277.955 933.32 277.262 934.174 275.151C934.55 274.429 935.087 273.804 935.742 273.323C936.398 272.842 937.155 272.518 937.956 272.377C942.196 271.379 945.851 268.187 950.558 268.997C951.926 268.4 953.4 268.081 954.893 268.058C956.386 268.035 957.868 268.308 959.254 268.863C961.057 269.284 961.589 271.724 963.91 271.066C965.533 270.606 966.751 272.121 968.15 272.784C969.02 273.147 969.822 273.656 970.52 274.289C973.85 277.786 976.888 281.551 979.603 285.545C980.985 287.955 981.932 290.589 982.401 293.327C983.604 297.665 984.101 302.198 985.675 306.47C985.797 307.238 985.807 308.019 985.705 308.79L987.951 310.549L985.697 314.853C985.588 315.362 985.941 315.706 986.433 316.161C984.863 318.924 986.687 321.201 987.675 323.693C986.94 325.366 986.566 327.176 986.577 329.003C986.589 330.831 986.985 332.636 987.741 334.3L986.753 335.405C989.005 336.924 986.383 340.017 989.013 341.713C987.6 342.922 988.065 344.921 986.889 346.355C988.102 350.296 988.038 354.519 986.707 358.421C989.125 360.412 988.153 363.744 989.743 366.043L988.719 367.635C988.552 368.493 989.201 368.837 989.657 369.345L988.571 370.563C990.121 373.469 990.869 376.735 990.738 380.026C990.538 381.966 992.572 383.277 992.572 385.241L991.648 386.708C992.518 388.945 994.347 390.805 993.609 393.355C996.221 394.407 998.356 396.38 999.61 398.902C1000.26 400.177 1001.82 400.731 1001.93 402.468C1002.07 402.949 1002.32 403.388 1002.68 403.744C1003.03 404.1 1003.47 404.362 1003.95 404.505C1007.47 404.953 1009.43 408.059 1012.52 409.207C1015.4 410.28 1018.13 411.831 1021.08 412.621C1023.3 413.554 1025.69 413.992 1028.09 413.904C1029.52 413.722 1030.98 413.982 1032.25 414.651C1034 415.47 1036.04 413.774 1037.94 413.111C1039.55 412.552 1040.95 411.009 1042.72 411.971C1045 410.624 1046 408.006 1048.61 407.41V405.477C1050.7 404.253 1052.99 403.244 1052.76 400.315C1054.49 398.12 1057.17 396.755 1058.04 393.945C1059.36 389.945 1061.4 386.22 1064.06 382.952C1064.3 382.726 1064.48 382.449 1064.6 382.144C1064.71 381.839 1064.76 381.512 1064.74 381.186C1064.71 380.86 1064.62 380.544 1064.46 380.259C1064.29 379.975 1064.07 379.729 1063.81 379.54C1065.75 376.949 1067.11 373.971 1067.81 370.807C1068.45 367.143 1068.71 363.422 1068.58 359.704C1068.55 358.548 1069.27 357.967 1069.73 356.932C1068.45 355.783 1069.17 353.645 1067.69 352.457C1070.89 348.343 1065.61 343.744 1068.36 339.507C1067.96 337.256 1065.48 335.117 1067.41 332.299C1065.79 331.064 1067.07 329.056 1066.51 327.305C1065.84 326.65 1065.32 325.854 1064.99 324.974C1064.66 324.093 1064.53 323.151 1064.62 322.215C1064.8 319.644 1064.51 317.063 1063.76 314.598C1062.93 312.256 1064.4 309.399 1062.64 307.061C1063.38 303.757 1061.17 300.787 1061.61 297.481C1061.93 295.08 1060.08 292.937 1060.57 290.394C1060.78 289.654 1061.14 288.966 1061.63 288.371C1061.92 287.097 1060.23 286.613 1060.58 285.226C1060.85 284.178 1060.99 282.861 1059.75 282.527C1059.31 281.043 1060.89 280.818 1060.72 279.566C1060.55 278.854 1060.53 278.115 1060.67 277.396C1060.8 276.676 1061.08 275.992 1061.49 275.387C1061.81 274.719 1061.96 273.982 1061.92 273.243C1061.88 272.503 1061.66 271.786 1061.28 271.153C1060.77 270.125 1060.48 269.007 1060.41 267.863C1060.34 266.719 1060.5 265.574 1060.89 264.494C1061.26 263.035 1062.06 262.069 1060.88 260.634C1060.67 260.282 1060.54 259.888 1060.51 259.48C1060.48 259.073 1060.55 258.663 1060.7 258.284C1061.25 257.376 1061.56 256.343 1061.6 255.282C1061.64 254.222 1061.42 253.167 1060.94 252.217C1062.16 250.479 1061.66 248.263 1062.58 246.396C1062.34 243.372 1063.07 240.352 1064.65 237.765C1064.61 234.433 1065.27 231.13 1066.59 228.071C1067.91 225.011 1069.86 222.265 1072.32 220.011C1076.03 216.28 1078.81 211.749 1082.85 208.351C1084.31 207.119 1085.29 205.361 1087.35 204.733C1087.88 204.542 1088.31 204.163 1088.57 203.67C1088.84 203.177 1088.91 202.603 1088.77 202.061H1091.24C1093.39 198.963 1097.04 197.37 1099.26 194.128C1100.4 192.456 1103.22 192.243 1104.79 190.944C1106.11 189.858 1107.84 190.83 1108.72 189.451C1109.09 188.9 1109.61 188.472 1110.22 188.221C1110.83 187.97 1111.5 187.909 1112.14 188.045C1112.06 186.117 1113.91 185.917 1114.96 185.367C1117.68 183.928 1119.84 181.361 1123.33 181.414C1124.53 180.834 1125.24 182.9 1126.9 181.999C1128.9 183.449 1130.44 185.453 1131.33 187.765C1130.49 190.056 1128.03 191.848 1127.54 194.358C1125.02 196.286 1122.21 197.797 1119.21 198.835C1116.58 200.062 1114.64 203.201 1111.25 201.928C1110.16 202.834 1109.18 203.849 1108.3 204.957C1107.64 206.116 1106.68 207.08 1105.52 207.754C1104.94 208.028 1104.43 208.453 1104.06 208.985C1103.69 209.517 1103.47 210.138 1103.42 210.783C1101.49 211.509 1099.7 212.577 1098.15 213.94C1094.75 216.998 1092.31 221.12 1088 223.167C1085.93 227.739 1081.27 230.638 1080.09 235.899C1079.98 237.509 1079.78 239.112 1079.49 240.699C1078.22 241.86 1077.23 243.31 1076.63 244.927C1076.5 245.746 1077.27 245.999 1077.61 246.519C1078.28 247.512 1076.24 248.099 1077.08 248.881C1078.08 249.826 1076.43 250.206 1076.84 250.661C1077.58 251.494 1078.1 252.188 1077.04 253.102C1076.27 253.768 1077.04 254.958 1076.58 255.37C1075.36 256.449 1075.65 257.739 1075.64 259.012C1075.47 261.67 1075.49 264.337 1075.7 266.993C1075.93 269.888 1075.47 272.796 1074.36 275.479C1073.78 276.948 1073.58 278.537 1073.77 280.103C1073.95 281.669 1074.53 283.165 1075.43 284.456C1074.01 285.341 1075.27 287.572 1073.64 288.492C1075.67 289.973 1074.78 292.447 1075.61 294.338C1075.68 294.664 1075.69 295 1075.63 295.329C1075.47 298.154 1075.5 300.987 1075.72 303.808C1076.36 306.296 1076.65 308.863 1076.56 311.432L1078.66 313.343C1078.3 315.354 1079.46 317.668 1077.61 319.664C1077.68 320.917 1078.55 321.929 1078.85 323.174C1079.1 324.257 1079.15 325.816 1079.96 326.633C1080.92 327.609 1079.07 328.926 1080.61 329.599C1080.73 329.652 1080.76 330.308 1080.61 330.547C1079.94 331.472 1079.52 332.549 1079.39 333.678C1079.25 334.808 1079.41 335.954 1079.83 337.009C1081.18 339.126 1079.43 341.726 1081.55 343.335C1081.9 346.91 1081.72 350.516 1081.02 354.039C1080.34 356.213 1080.32 358.543 1080.98 360.726C1081.06 361.005 1081.41 361.212 1081.81 361.648C1081 362.786 1080.56 364.147 1080.56 365.545C1080.55 366.942 1080.98 368.306 1081.79 369.446C1080.97 370.845 1080.83 372.34 1079.66 373.342V380.251C1078.51 381.459 1077.63 382.907 1077.1 384.491C1076.57 386.076 1076.39 387.758 1076.59 389.418C1074.63 391.716 1072.99 394.262 1071.7 396.989C1069.76 399.77 1068.34 402.914 1066.62 405.854C1066.15 406.837 1065.49 407.717 1064.68 408.44C1063.86 409.164 1062.91 409.716 1061.88 410.065C1061.85 412.388 1061.02 414.302 1058.04 413.853C1057.74 414.574 1057.66 415.462 1057.24 415.662C1053.34 418.503 1049.16 420.942 1044.76 422.946C1041.9 423.725 1038.99 424.311 1036.05 424.699C1033.16 424.94 1030.26 424.725 1027.44 424.062C1024.17 423.696 1020.98 422.824 1017.98 421.478C1016.8 421.008 1015.54 420.789 1014.27 420.832C1013.51 420.485 1013.78 419.708 1013.51 419.065C1005.91 417.585 998.947 413.792 993.584 408.205C990.23 405.321 987.254 402.025 984.726 398.396C984.489 397.979 983.717 397.633 983.756 397.325C984.266 393.277 980.007 391.172 980.153 386.961L980.838 386.183C980.27 385.366 979.886 384.435 979.715 383.455C979.543 382.475 979.587 381.469 979.844 380.507L977.719 378.383C978.549 376.685 976.595 375.078 977.589 372.931C978.362 371.263 976.397 369.49 976.582 367.397C976.517 365.68 976.144 363.988 975.479 362.404C975.026 360.929 974.249 359.948 975.483 358.545C975.664 358.278 975.776 357.969 975.807 357.647C975.839 357.325 975.789 357.001 975.663 356.703C973.963 354.65 974.99 352.285 974.716 350.084C974.561 348.838 975.223 347.389 973.787 346.462C973.7 346.405 973.678 346.14 973.723 346.005C974.581 342.742 974.79 339.343 974.339 335.999C974.182 333.398 975.149 330.771 973.764 328.154C973.202 327.092 974.175 326.058 974.73 325.076C974.37 323.906 973.034 322.877 973.761 321.541C974.298 320.553 975.44 319.893 974.03 318.693C973.476 318.222 974.45 317.561 974.067 316.539C973.486 314.473 973.387 312.302 973.777 310.192C974.077 307.799 973.557 305.375 972.302 303.316C971.071 300.973 970.247 298.438 969.863 295.82C968.405 289.885 965.469 284.417 961.328 279.922C960.479 279.922 959.568 280.2 959.209 279.872C957.878 278.659 956.91 279.145 955.343 279.636C953.468 280.223 951.629 281.812 949.303 280.798C947.94 282.626 946.139 284.083 944.065 285.033C942.154 286.021 940.891 288.093 938.3 288.129C937.473 288.141 936.532 289.868 935.67 290.813C934.788 291.998 933.669 292.986 932.385 293.716C931.102 294.447 929.681 294.904 928.212 295.058C927.458 296.016 927.47 297.875 925.622 297.948C923.264 298.042 922.351 299.625 921.508 301.645C919.322 302.282 917.33 303.457 915.717 305.064C914.161 306.547 912.801 308.35 911.286 309.941C909.932 310.023 908.615 310.411 907.434 311.076C906.252 311.741 905.237 312.666 904.464 313.78C904.101 314.257 903.607 314.618 903.042 314.819C902.476 315.019 901.865 315.05 901.282 314.909L897.749 318.84L895.351 318.986C894.504 322.056 890.904 322.491 889.179 324.933C885.555 326.355 882.43 328.814 880.196 332.001C877.725 334.84 874.299 336.572 871.725 339.368C869.245 341.943 866.618 344.373 863.859 346.647C859.65 350.306 855.761 354.316 852.235 358.637C849.97 362.346 846.919 365.513 843.296 367.912C842.474 371.078 839.185 372.291 837.705 375.071C837.144 376.252 836.354 377.31 835.382 378.183C834.41 379.056 833.274 379.728 832.041 380.159C831.404 380.945 832.353 382.133 831.351 382.862C829.918 383.904 829.304 385.688 828.043 386.805C826.865 387.703 826.045 388.991 825.728 390.439C825.666 390.595 825.573 390.736 825.456 390.856C825.338 390.976 825.197 391.071 825.042 391.136C821.194 392.953 820.113 396.988 817.843 400.066C817.56 400.45 817.351 401.012 816.971 401.181C813.215 402.847 812.094 406.8 809.695 409.622C807.375 412.352 805.762 415.671 803.573 418.527C802.025 420.545 799.97 422.056 799.737 424.987C799.638 426.235 798.167 427.236 796.737 427.854C793.895 429.083 793.426 432.552 791.004 434.271C790.667 434.51 790.876 435.517 790.8 436.64L787.826 439.025V441.354C787.129 442.192 786.227 441.627 785.451 441.814C783.794 444.966 781.407 447.676 778.49 449.716C777.132 450.52 777.435 452.288 775.883 452.839C774.531 453.318 773.877 454.806 772.646 455.625C771.291 456.6 770.095 457.778 769.099 459.117C767.339 461.336 764.382 461.586 762.399 463.605C760.011 466.038 756.141 466.25 753.501 468.588C752.564 469.418 751.024 468.993 749.812 469.189C743.942 470.495 737.831 470.218 732.103 468.386C730.405 467.61 728.624 467.031 726.795 466.659C724.345 466.197 722.066 465.081 720.2 463.428C717.624 461.274 714.691 459.566 712.244 457.376C709.804 454.883 707.697 452.083 705.976 449.048C704.172 446.661 703.085 443.81 702.841 440.828C702.805 439.571 701.674 438.346 700.904 436.835C701.627 435.981 702.019 434.895 702.007 433.776C701.995 432.657 701.582 431.58 700.841 430.741C701.365 429.424 702.788 429.1 702.939 427.824C703.085 426.995 702.185 426.824 701.865 426.021C702.043 424.663 704.243 423.164 701.865 421.316C703.847 420.101 704.122 417.654 705.905 416.344L704.937 415.229C704.893 412.693 707.902 411.646 707.841 409.405C707.783 407.232 709.845 405.56 708.823 403.478C710.341 401.808 711.975 400.625 712.267 398.171C712.45 396.637 714.181 395.349 714.891 393.802C716.404 390.04 718.418 386.502 720.878 383.279C721.204 382.891 720.923 381.995 720.923 381.37C721.585 380.558 722.779 380.936 723.404 379.942C725.159 377.152 727.032 374.434 728.934 371.741C729.664 370.72 730.057 369.496 730.059 368.24L734.675 363.626C735.146 363.155 735.791 362.767 736.062 362.2C738.853 356.368 744.275 352.506 747.456 346.952C748.005 345.994 747.561 345.035 748.24 343.917C751.434 343.69 751.475 339.286 754.621 338.626C755.846 333.126 760.517 330.28 763.881 326.313V324.434L767.822 320.539V318.143C769.03 316.918 770.317 315.775 771.676 314.721C772.409 314.325 773.055 313.785 773.575 313.134C774.095 312.483 774.479 311.735 774.704 310.933C772.378 310.951 770.873 313.324 768.354 312.908C766.551 315.548 763.374 316.791 761.184 319.184C760.532 319.897 759.676 319.684 759.014 319.997C756.916 320.986 754.268 321.41 753.018 323.458C751.868 325.34 748.553 323.922 748.457 326.873C744.837 327.725 742.524 330.867 739.163 332.173C738.686 333.306 738.209 334.44 737.709 335.629C736.898 336.424 735.671 336.08 734.629 336.485C731.909 337.322 729.452 338.847 727.493 340.912C726.427 342.111 725.086 343.035 723.585 343.604C722.405 344.099 721.357 344.864 720.526 345.838C719.01 347.556 716.6 348.44 715.415 350.16C713.905 351.831 712.116 353.226 710.128 354.284C708.608 355.926 706.727 357.193 704.635 357.988C703.665 358.21 702.881 359.414 702.1 360.252C700.569 361.917 698.454 362.926 696.196 363.068C695.768 365.983 692.192 366.755 691.655 369.755C691.21 369.796 690.646 369.687 690.283 369.908C688.156 371.203 685.695 371.825 683.581 372.994C681.036 374.416 678.778 376.299 676.923 378.548C673.745 381.707 670.214 384.491 666.4 386.844C666.19 387.007 665.54 386.772 665.463 386.917C663.072 391.431 657.697 391.689 654.213 394.726C652.944 395.832 652.307 397.496 650.344 398.305C648.328 399.136 646.741 401.204 644.392 402.034C642.832 402.586 643.052 404.934 641.488 405.816H639.428C636.672 409.723 631.984 410.826 628.205 413.32C624.804 414.867 621.546 416.71 618.469 418.829C617.173 418.336 616.634 419.804 615.405 419.969C613.273 420.409 611.258 421.298 609.495 422.576C607.325 424.172 604.662 424.952 601.973 424.782C599.299 424.399 597.051 426.296 594.43 425.918C593.623 427.448 592.951 425.959 592.218 425.822C591.423 425.673 591.076 426.322 590.571 426.777L589.532 425.846L588.475 426.822C582.933 425.694 577.69 423.411 573.09 420.121V418.617C572.759 417.655 571.887 418.042 571.444 417.69C570.126 416.547 569.06 415.143 568.316 413.565C567.572 411.987 567.165 410.272 567.122 408.528C566.798 405.062 567.04 401.542 567.06 398.046C567.065 397.261 566.798 396.402 567.614 395.776C567.929 395.5 568.138 395.125 568.206 394.712C568.274 394.3 568.197 393.876 567.987 393.514C565.492 390.28 568.57 388.676 570 386.036C569.35 381.141 573.255 377.297 574.806 372.618C574.847 372.5 574.959 372.324 574.918 372.273C574.708 372.017 574.459 371.793 573.975 371.309C574.353 369.886 575.037 368.564 575.98 367.433C577.175 366.392 578.147 365.119 578.837 363.692C579.527 362.265 579.921 360.713 579.995 359.129C580.024 358.155 580.718 357.724 581.083 357.071C584.041 350.897 588.051 345.288 592.935 340.491C593.936 339.618 594.828 338.617 595.77 337.675C596.223 335.578 596.927 333.855 598.27 333.266C599.143 332.919 599.937 332.4 600.606 331.74C601.274 331.08 601.802 330.291 602.16 329.422C602.883 327.814 604.901 327.465 606.796 326.594C607.229 326.052 607.289 324.823 608.299 324.135C611.209 321.873 613.95 319.4 616.5 316.739C619.487 313.993 623.299 312.465 626.074 309.484C626.844 308.657 628.326 308.536 629.39 307.93C631.281 306.852 631.353 304.043 633.944 303.417C634.999 303.112 635.974 302.577 636.798 301.852C637.623 301.127 638.277 300.23 638.715 299.223C638.826 298.998 637.765 298.81 637.452 299.051C634.526 301.683 630.881 303.383 626.983 303.932C626.163 303.996 625.968 304.699 625.429 305.024C621.711 307.262 618.093 309.612 614.14 311.515C609.745 313.036 605.783 315.596 602.591 318.976H598.621C597.669 319.553 598.441 320.539 597.263 320.898H595.23L592.572 323.934H589.528C587.698 325.737 585.823 328.117 582.549 327.929C580.721 329.716 577.706 329.994 576.605 332.782C576.268 333.636 575.253 334.221 574.556 334.922H571.581C567.06 337.759 562.545 340.549 558.093 343.436C557.548 343.763 556.921 343.929 556.284 343.915C554.399 344.039 552.418 344.023 551.955 346.518C549.258 347.647 546.569 348.793 543.858 349.887C543.429 350.06 542.64 349.821 542.468 350.076C540.571 352.887 536.895 353.231 534.774 355.698C534.077 356.332 533.229 356.777 532.31 356.988C526.676 358.862 521.443 361.775 516.883 365.578C513.991 367.73 510.667 369.23 507.14 369.977L504.888 372.782C501.191 373.911 497.7 375.632 494.553 377.878C493.358 377.692 492.136 377.759 490.968 378.075C489.8 378.392 488.712 378.95 487.774 379.715C486.15 380.362 484.107 379.013 482.717 380.773C480.46 380.04 478.404 382.953 476.366 381.471C474.279 379.955 471.764 382.029 469.869 380.169C469.236 379.548 469.069 380.931 468.65 380.875C465.756 380.815 464.489 378.031 461.698 377.682C459.466 377.403 457.638 375.187 456.085 373.296C455.31 372.353 454.125 373.386 453.08 372.314C450.19 368.089 448.136 363.349 447.031 358.35L449.067 357.421C449.168 354.731 449.451 352.052 449.914 349.4C450.266 347.614 451.838 348.331 452.266 346.899C454.938 340.91 458.357 335.283 462.442 330.153C462.968 329.455 463.635 328.874 464.398 328.447C465.161 328.02 466.004 327.757 466.875 327.674C468.035 326.387 468.889 324.852 469.372 323.188C470.325 322.992 471.431 322.692 471.734 321.772C472.897 318.247 476.267 316.696 478.576 314.278C480.385 312.383 483.145 311.312 484.671 308.904C484.749 308.754 484.872 308.633 485.023 308.558C489.461 307.198 491.121 302.74 494.614 300.066L496.765 299.833L498.352 296.285C500.168 296.063 501.02 294.294 502.674 293.045L505.766 292.894C507.038 291.256 508.288 289.629 509.563 288.021C509.871 287.632 510.335 287.355 510.603 286.946C511.671 285.322 514.564 286.531 514.997 284.465C515.453 282.289 517.937 282.744 518.637 281.044C518.732 280.811 519.882 281.012 520.515 281.012C523.073 278.198 526.469 276.439 529.054 273.67C529.653 273.042 530.382 272.553 531.19 272.238C531.999 271.923 532.866 271.787 533.732 271.844C533.883 271.241 534.131 270.667 534.467 270.145C537.072 267.311 540.156 264.958 543.576 263.193C545.609 262.151 546.637 260.31 548.828 259.037C551.302 259.794 553.294 257.853 554.948 256.175C556.135 254.97 557.75 254.39 558.75 252.922C559.823 251.344 562.424 252.106 563.576 250.092C564.454 248.557 566.536 248.483 568.365 247.347C563.766 246.709 559.087 247.632 555.075 249.969C550.292 250.129 545.616 251.436 541.444 253.78L540.371 252.897C536.1 255.335 531.341 256.793 526.438 257.167C525.855 257.503 526.19 258.071 525.913 258.891C524.066 258.502 522.208 260.274 520.103 259.004C519.014 260.074 517.488 259.933 516.177 260.373C514.117 261.064 512.153 262.477 509.866 261.951C508.474 261.631 507.755 262.713 506.819 263.112C504.554 264.18 502.105 264.799 499.605 264.937C496.735 264.81 493.872 265.31 491.215 266.403L490.853 268.057C486.454 268.022 482.089 268.827 477.992 270.43C474.433 271.648 470.762 272.511 467.033 273.006C465.153 273.128 463.306 273.556 461.565 274.275C457.687 275.478 453.733 276.419 449.729 277.093C446.645 277.816 443.486 278.318 440.493 279.308C439.658 279.74 438.73 279.959 437.791 279.948C434.64 279.379 431.791 281.179 428.706 280.981C428.16 282.668 426.767 280.748 425.803 281.713C424.832 282.685 422.835 281.227 421.811 282.839C420.711 281.494 419.707 283.371 418.711 282.953C417.058 282.26 415.825 284.684 414.712 283.835C413.16 282.65 412.25 284.361 410.932 284.052C409.447 283.851 407.944 283.828 406.453 283.982C405.332 283.999 404.063 283.613 403.739 284.848C402.355 285.311 402.189 283.877 401.261 283.973C400.465 283.839 400.2 284.595 399.696 284.96C397.938 283.004 395.651 284.217 393.617 284.019C391.644 283.827 389.638 283.976 387.7 283.976L385.671 281.949C383.216 282.024 380.771 281.617 378.472 280.751C375.929 280.323 375.144 277.257 372.589 276.862C371.774 275.326 371.304 273.629 371.212 271.893C371.121 270.156 371.41 268.42 372.059 266.806C372.575 265.468 373.393 264.267 374.45 263.298C376.803 261.466 378.537 258.957 379.417 256.108C381.697 256.266 382.857 254.729 384.282 253.084C387.232 249.681 390.416 246.501 393.05 242.803C393.765 241.799 395.465 241.482 396.662 240.844C397.521 240.387 397.495 238.41 399.347 238.997C399.502 238.996 399.656 238.955 399.791 238.879C399.927 238.802 400.041 238.693 400.123 238.56C401.253 235.655 404.303 235 406.478 233.466C408.663 231.925 410.651 230.105 412.919 228.654C413.913 228.018 414.766 228.228 415.778 227.962C416.135 227.716 416.219 227.253 416.164 226.657C426.636 222.058 436.671 216.52 446.145 210.112C447.352 210.225 448.567 210.02 449.669 209.516C450.771 209.012 451.721 208.226 452.424 207.239C454.62 204.942 457.566 203.509 460.728 203.199C461.97 203.046 463.167 202.644 464.249 202.017C467.01 200.297 469.988 198.956 473.106 198.032C474.84 197.414 476.002 195.826 478.293 195.884C479.683 195.919 480.884 193.742 483.723 193.135C488.612 193.222 493.345 191.412 496.928 188.084C497.922 188.142 499.074 187.681 499.419 189.231C500.757 187.399 503.691 188.824 504.188 186.194H509.14C510.702 185.08 512.573 184.738 513.559 182.983C517.253 183.953 520.242 181.483 523.66 180.925C526.817 180.571 529.921 179.846 532.908 178.764L533.307 177.236H539.657L540.316 175.354C540.834 175.056 541.444 174.96 542.028 175.086C542.613 175.212 543.129 175.551 543.478 176.037C545.608 174.845 547.965 174.112 550.395 173.886C552.78 173.178 554.886 171.559 557.149 172.149C560.96 169.649 565.398 168.275 569.954 168.182C571.412 168.242 572.301 167.326 573.519 167.021C577.262 166.068 580.91 164.779 584.421 163.168H591.593L593.207 161.117C595.714 161.116 598.212 160.834 600.656 160.278C602.782 159.784 604.88 159.165 607.003 158.652C610.029 157.471 613.282 156.984 616.521 157.226L617.896 155.456C622.948 154.632 627.659 153.343 632.384 152.515C636.392 150.968 640.646 150.151 644.942 150.104C645.721 150.085 646.487 149.896 647.185 149.551C650.845 149.269 654.379 148.094 657.479 146.13C658.619 146.309 659.783 146.288 660.916 146.069C664.471 144.667 668.391 145.114 671.918 143.687C674.501 143.084 677.041 142.309 679.52 141.365C683.046 143.878 685.366 140.234 688.802 139.452C689.117 139.544 689.863 140.757 690.745 140.098C693.53 138.72 696.511 137.777 699.582 137.302C701.675 136.538 703.871 136.093 706.096 135.983C710.174 135.875 714.183 134.91 717.863 133.15C719.682 134.044 720.009 134.05 721.491 133.212C721.727 133.448 721.953 133.694 722.204 133.912C722.286 133.984 722.433 133.982 722.551 134.013L724.318 132.248L725.575 133.094C726.678 133.287 726.902 132.477 727.425 132.181L728.659 133.274C729.234 130.638 732.09 131.826 733.321 130.24C735.647 130.749 737.536 128.675 739.865 129.134C740.346 129.228 741.084 129.364 741.326 129.114C743.829 126.542 747.412 127.499 750.399 126.471C753.397 125.44 756.805 125.209 759.963 124.206C761.049 124.022 762.157 124.004 763.249 124.153L769.412 120.223C773.011 120.233 776.559 119.372 779.753 117.712C780.261 117.326 780.89 117.136 781.527 117.173C783.607 117.369 785.703 117.015 787.603 116.146C791.771 114.777 796.43 115.549 800.368 113.185C800.612 113.038 801.022 113.166 801.355 113.166C805.68 113.72 810.072 113.026 814.016 111.167C814.898 111.354 815.816 111.232 816.617 110.82C817.418 110.407 818.052 109.731 818.411 108.906C820.24 110.688 821.767 108.879 823.36 109.115C824.987 109.357 827.193 109.822 828.229 109.014C830.002 107.632 831.763 108.687 833.379 107.98C837.3 106.046 841.159 103.724 845.788 106.188C847.504 105.567 849.039 104.528 850.252 103.165C851.49 103.388 852.763 103.33 853.975 102.995C855.188 102.66 856.31 102.058 857.258 101.231C859.967 104.11 862.612 100.03 865.186 101.296L867.215 99.2681C867.521 99.5181 867.986 100.071 868.138 99.9956C871.557 98.2892 875.773 99.974 878.97 97.4846C879.828 96.8851 880.796 96.4626 881.82 96.2432C882.843 96.0237 883.9 96.0114 884.928 96.2066C889.855 96.7092 894.56 94.8486 899.509 95.0335C902.324 95.043 905.085 94.2656 907.481 92.7898C909.241 91.7352 911.26 91.1959 913.311 91.2322C915.362 91.2685 917.362 91.8788 919.083 92.9949C919.522 93.1496 919.971 93.2754 920.426 93.3709C920.568 93.4183 920.665 93.5951 921.278 94.207C922.008 95.1645 922.505 96.2796 922.73 97.4627C922.954 98.6457 922.899 99.8639 922.57 101.022C919.95 102.615 917.025 103.638 913.983 104.026C912.634 104.223 911.718 105.31 910.425 105.153C909.164 105 907.452 106.07 907.075 105.744C905.692 104.551 905.341 106.971 904.138 106.226C902.832 105.417 901.812 107.017 900.585 107.142C899.266 107.276 897.918 107.109 896.594 107.211C896.191 107.242 895.86 107.876 895.433 107.985C894.681 108.267 893.866 108.34 893.076 108.194C892.286 108.048 891.55 107.689 890.949 107.156C887.877 108.698 884.587 109.76 881.193 110.303C876.805 110.915 872.475 111.861 868.027 112.298C865.099 112.927 862.253 113.891 859.546 115.173L858.216 114.256C854.941 116.008 851.195 116.676 847.517 116.164C846.407 116.056 845.287 116.175 844.225 116.515C843.163 116.856 842.183 117.408 841.342 118.141L840.593 117.433C838.784 117.519 837.494 119.803 835.626 119.086C833.752 118.367 832.168 121.744 830.402 119.228C829.128 120.732 827.221 119.617 825.894 120.252C824.361 120.984 822.447 120.584 821.384 121.343C819.441 122.732 817.352 121.404 815.736 122.253C814.139 123.013 812.364 123.32 810.604 123.136C809.472 122.97 808.316 123.067 807.228 123.422C806.14 123.777 805.149 124.379 804.332 125.181C798.298 124.909 792.269 125.836 786.596 127.909C786.155 128.092 785.677 128.167 785.2 128.128C781.57 127.467 778.24 129.813 774.619 129.15C773.723 128.986 773.112 129.843 772.475 129.954C767.378 130.843 762.522 132.847 757.17 133.423C754.813 135.142 751.954 136.035 749.037 135.964C745.278 136.358 741.583 137.22 738.037 138.53C733.266 140.082 728.305 140.977 723.292 141.188C722.234 143.458 719.659 143.683 717.686 143.985C713.971 144.515 710.328 145.462 706.826 146.808C706.413 147.043 705.939 147.146 705.467 147.106C703.056 146.836 700.618 147.246 698.429 148.289C695.837 148.897 693.181 149.189 690.519 149.158C688.269 151.814 683.97 150.369 681.456 153.118C679.132 153.118 676.804 153.118 674.47 153.117C673.75 153.873 672.862 154.448 671.877 154.797C670.893 155.145 669.84 155.257 668.804 155.123C667.496 155.026 666.115 156.015 665.239 155.933C662.676 155.695 660.565 157.497 658.147 157.084C655.615 156.652 653.745 159.277 651.327 157.864L650.831 159.764C650.569 159.926 650.28 160.038 649.977 160.096C648.219 159.953 646.456 160.293 644.876 161.077C641.96 162.136 638.837 162.502 635.755 162.145C634.175 163.44 632.191 164.138 630.149 164.12C629.148 163.971 628.246 164.831 627.53 164.91C625.463 165.139 623.651 166.849 621.497 166.076C620.202 165.611 619.997 167.377 618.621 167.038L617.296 166.091C615.891 165.995 615.534 167.406 614.357 168.14C610.624 167.842 606.881 168.585 603.545 170.287C600.369 171.444 597.019 172.053 593.639 172.087C590.794 175.01 586.134 173.5 583.137 176.352L581.567 175.275C578.678 176.463 575.688 177.389 572.634 178.04C569.894 179.084 566.923 179.517 564.174 180.54C561.716 181.454 559.102 181.289 556.649 182.078C552.054 182.956 547.648 184.626 543.624 187.013C541.976 186.831 540.308 187.014 538.738 187.549C537.168 188.085 535.737 188.96 534.544 190.112C530.265 189.247 526.361 191.849 522.05 192.627C516.071 194.19 510.183 196.08 504.411 198.287C503.981 198.414 503.606 199.062 503.242 199.031C496.782 198.48 491.968 203.494 485.836 204.17C484.468 204.322 483.643 206.641 481.657 206.063C480.427 207.933 478.333 207.637 476.579 208.29C473.582 209.135 470.754 210.496 468.224 212.311C466.43 213.51 464.463 214.428 462.392 215.032C460.579 215.605 458.947 216.642 457.659 218.041C456.533 218.206 455.352 217.693 454.294 218.398C452.037 220.048 449.504 221.283 446.813 222.044C445.952 224.524 443.105 223.78 441.719 225.12C439.949 226.421 438.086 227.59 436.144 228.616C435.345 229.201 434.58 228.895 433.58 229.1C431.557 231.722 428.709 233.586 425.497 234.393C424.246 234.608 421.819 235.208 422.116 237.865C417.822 238.385 413.875 240.486 411.047 243.759C406.326 248.179 401.143 251.994 396.081 255.97C394.807 256.97 394.71 258.924 392.543 259.328C391.083 259.6 390.982 261.883 390.171 263.201C389.844 263.929 389.352 264.571 388.735 265.077C388.118 265.584 387.392 265.94 386.614 266.119L383.146 273.172C383.798 273.862 384.607 274.383 385.505 274.692C386.403 275 387.362 275.087 388.3 274.943C390.079 274.539 391.253 276.186 392.892 275.981C395.257 275.685 397.623 276.415 400.034 275.099C401.908 274.077 404.439 275.744 406.668 274.19C407.286 273.785 408.033 273.63 408.761 273.755C409.488 273.881 410.141 274.278 410.587 274.866C412.981 273.153 415.797 274.651 418.184 273.893C420.564 273.489 422.809 272.511 424.726 271.043C425.764 270.84 426.116 271.477 426.584 271.908C429.872 271.63 432.891 269.108 436.861 270.625C439.794 269.342 442.859 268.385 446.001 267.77C449.153 267.033 452.265 266.132 455.323 265.071C458.585 263.994 462.041 263.502 465.999 262.624L467.094 261.003H474.888C478.489 259.894 480.797 256.444 484.709 258.87C486.147 257.032 488.866 257.56 490.725 255.987C492.568 254.428 495.157 254.687 497.381 254.014C499.352 253.394 501.391 253.017 503.453 252.89C505.614 252.694 507.707 252.026 509.582 250.933C511.451 249.898 513.542 250.339 515.438 249.335C517.165 248.421 519.879 249.017 521.247 247.865C522.963 246.42 525.12 247.884 526.673 246.157C527.267 245.497 529.209 246.049 530.681 246.049C531.571 243.802 534.116 244.343 535.761 243.222C535.867 243.15 536.454 243.784 536.843 244.112C538.064 243.293 539.584 243.18 540.561 242.033H545.42C549.851 238.76 555.853 239.585 559.801 235.894C561.758 236.983 563.29 237.694 565.356 236.342C568.088 234.869 571.065 233.904 574.141 233.49C575.456 233.2 576.664 234.818 578.338 233.433C579.821 232.57 581.501 232.104 583.216 232.081C584.876 231.958 586.543 231.942 588.206 232.034H593.244C594.679 232.323 594.803 234.765 596.574 234.04L599.115 239.222C596.08 242.693 592.682 245.829 588.979 248.576C588.25 249.184 587.284 249.275 586.489 249.888C585.866 250.369 584.574 249.985 583.857 249.985C579.786 253.624 575.266 256.726 570.405 259.214C568.438 260.046 567.21 262.169 564.92 262.66C562.509 263.178 561.37 265.401 559.682 266.883C557.622 268.296 555.417 269.485 553.104 270.431V272.57C549.758 273.808 546.67 275.654 543.997 278.017C541.327 280.308 537.498 281.19 535.619 284.524C527.871 287.248 523.094 294.119 515.85 298.924C515.343 298.851 514.826 298.94 514.373 299.179C513.921 299.417 513.555 299.793 513.328 300.252C512.271 302.726 509.353 303.271 508.071 305.481C504.356 305.979 503.332 310.625 499.543 311.01C497.376 313.64 494.167 315.356 492.806 318.709C492.633 319.135 492.124 319.425 491.729 319.82L489.914 320.021C487.295 323.871 483.884 327.117 479.909 329.542C478.484 330.14 477.347 331.268 476.738 332.688C476.381 333.92 475.688 335.027 474.738 335.887C471.754 338.797 469.103 342.028 466.831 345.523C465.866 346.663 466.926 348.707 465.465 348.782C463.598 348.878 464.362 350.493 463.512 351.146C462.546 351.887 463.714 353.812 462.138 354.526C462.786 356.544 460.867 357.333 460.081 358.592C461.425 360.914 459.267 363.136 460.518 365.757L465.524 370.688C467.782 371.078 469.965 371.816 471.995 372.876C473.105 373.185 473.294 371.539 474.59 371.828C478.566 372.215 482.565 371.362 486.038 369.388C487.865 369.03 489.608 368.328 491.174 367.32C492.183 366.396 493.396 367.105 494.73 366.822C495.917 364.819 498.636 364.285 500.07 362.342C501.474 360.44 504.594 360.86 505.343 358.023H509.632L511.419 354.079C513.38 353.972 515.298 353.454 517.047 352.56C518.796 351.666 520.338 350.414 521.574 348.887L522.575 349.888C523.581 348.752 525.069 348.038 525.257 346.076H529.401C530.382 344.899 531.634 343.977 533.05 343.39C537.055 342.174 540.447 339.561 544.37 338.169C547.035 337.224 548.228 334.726 550.676 333.006C551.973 333.09 553.272 332.857 554.459 332.327C555.647 331.798 556.688 330.987 557.492 329.965H560.412C561.727 327.677 563.824 325.941 566.317 325.075C568.882 324.378 569.926 321.202 572.888 321.591C574.777 319.617 577.071 318.075 579.612 317.071L580.553 317.925L584.41 314.056C587.288 313.832 590.272 313.822 591.274 310.127C595.877 309.305 600.152 307.19 603.599 304.03L604.307 304.738C604.425 304.762 604.575 304.846 604.655 304.802C605.225 304.487 604.959 303.927 605.025 303.454C606.844 302.552 608.593 301.515 610.257 300.35C611.914 298.77 614.875 299.261 616.369 297.103C618.894 297.364 620.224 295.167 622.172 294.236C624.925 293.198 627.606 291.976 630.196 290.58C632.632 289.007 635.285 287.635 637.794 286.066C638.38 285.7 639.068 284.816 639.807 285.018C642.11 285.645 643.305 283.215 644.995 283.123C647.455 282.989 647.984 280.707 649.023 280.276C652.18 279.646 655.303 278.859 658.381 277.917C661.264 276.874 663.852 274.94 666.771 274.091C669.623 273.331 672.275 271.959 674.543 270.071L675.463 270.99C677.341 268.575 680.414 268.827 682.963 268.194C685.993 267.44 688.849 266.186 691.89 265.539C694.021 265.085 695.91 263.706 698.245 263.982C700.141 264.207 701.289 262.51 702.911 261.999C706.064 263.393 709.751 263.9 711.643 267.399C711.801 267.674 711.904 267.978 711.944 268.293C711.983 268.607 711.96 268.927 711.875 269.233C711.79 269.538 711.646 269.823 711.449 270.073C711.253 270.322 711.009 270.529 710.731 270.683C709.342 271.971 707.772 273.05 706.072 273.886C703.934 274.801 702.027 276.181 700.488 277.927C699.495 278.112 698.743 277.848 697.942 278.423C694.274 281.034 690.141 282.918 685.765 283.975C683.111 287.051 678.68 287.69 676.497 290.967H673.675C673.407 291.137 673.152 291.324 672.91 291.529C671.126 293.827 668.605 295.441 665.77 296.098C664.119 296.654 662.65 297.647 661.521 298.974C660.1 300.247 658.28 300.985 656.374 301.06C655.079 302.355 653.783 303.651 652.488 304.947C651.823 304.949 651.158 304.948 650.46 304.948C649.179 305.997 648.028 307.196 647.035 308.521C646.21 309.92 643.661 309.337 643.899 311.586C642.781 312.275 641.602 311.801 640.379 311.963C639.561 313.643 637.587 313.852 636.232 314.941C634.933 315.827 633.715 316.829 632.594 317.933C631.617 319.066 631.51 321.012 629.426 321.008C628.889 322.662 627.758 324.059 626.251 324.93H624.484C621.901 327.387 619.455 329.984 617.155 332.708C616.249 332.479 615.046 333.785 613.314 334.053C612.199 338.716 608.334 340.892 604.102 343.359C604.171 344.989 603.784 346.855 601.389 347.089C599.411 350.66 597.242 354.122 594.89 357.459C594.675 357.876 593.801 357.955 593.073 358.256L593.878 359.291C593.366 361.567 591.424 362.845 590.033 364.416C590.033 365.027 590.245 365.717 589.997 365.995C588.764 367.626 587.982 369.553 587.731 371.581C586.823 374.724 585.288 377.651 583.22 380.186C582.57 382.375 583.855 384.872 582.472 386.857C580.485 389.71 581.643 393.938 577.921 396.232C578.205 397.949 578.156 399.705 577.778 401.403C577.114 402.915 579.235 404.722 577.074 405.512C577.618 408.361 579.465 410.426 580.379 413.608C581.901 415.575 583.982 417.036 586.35 417.798C590.88 418.473 595.501 417.479 599.353 415.002C603.362 414.427 607.215 413.055 610.685 410.969C612.072 410.251 612.077 408.405 613.988 408.238C615.411 408.113 616.679 406.737 618.129 406.274C621.339 405.072 624.345 403.382 627.041 401.264C627.546 400.924 628.158 400.78 628.762 400.859V400.859Z" fill="#212222"/>
<path d="M618.288 525.45L619.973 527.242L619.232 527.984C621.688 532.571 625.062 536.603 629.143 539.831C633.37 542.827 638.261 544.749 643.397 545.432C644.243 544.343 646.098 544.879 647.824 544.649C650.026 544.355 652.238 545.355 654.519 543.878C655.804 543.046 657.769 543.619 659.325 542.11C660.335 541.13 662.422 540.989 663.977 540.251C665.916 538.81 668.206 537.917 670.608 537.664C672.605 534.994 675.335 532.961 678.465 531.813C681.759 530.318 684.136 527.366 687.71 526.387C688.009 526.259 688.272 526.061 688.478 525.81C688.684 525.559 688.826 525.261 688.893 524.943C689.03 522.973 690.862 523.094 691.9 522.258C692.029 522.154 692.119 521.951 692.257 521.918C698.811 519.764 705.017 516.669 710.681 512.731C715.831 513.086 721.057 511.365 726.507 511.596C731.088 511.844 735.612 512.732 739.947 514.234C743.744 515.806 747.8 516.658 751.908 516.747C754.699 516.396 757.439 515.716 760.071 514.724C762.871 515.86 761.643 518.289 761.72 520.086C761.197 524.42 756.686 524.11 754.341 526.71C753.075 526.71 751.307 526.205 750.197 526.844C748.946 527.563 747.731 526.501 746.729 527.381C745.576 528.394 744.974 526.693 744.293 526.787C740.324 527.329 736.637 525.216 732.545 525.737C730.486 523.81 727.998 522.401 725.287 521.623C720.891 521.73 716.563 522.739 712.574 524.59C708.263 525.964 705.103 529.633 700.129 531.072C698.554 533.26 695.222 534.311 693.211 536.933C692.769 537.393 692.177 537.681 691.542 537.744C687.892 538.721 684.569 540.656 681.918 543.349C679.071 546.082 675.469 547.895 671.578 548.557C668.811 549.003 666.158 549.985 663.766 551.446C661.689 552.499 659.447 553.189 657.137 553.485C654.428 554.549 651.507 554.964 648.608 554.697C646.49 554.27 644.769 556.147 642.519 555.749C640.589 555.555 638.646 555.531 636.712 555.678C633.791 553.628 630.285 552.579 626.718 552.69C624.233 550.286 620.832 549.175 618.189 546.79C616.29 545.141 614.523 543.346 612.904 541.42C610.481 538.444 608.245 535.365 605.978 532.281C605.419 531.519 605.097 530.61 605.053 529.666C605.008 528.722 605.243 527.787 605.728 526.976C602.302 523.102 602.5 517.326 599.995 512.593C599.638 511.823 601.682 511.69 600.246 510.507C596.932 513.738 592.311 513.494 588.164 514.711C587.56 514.889 586.756 514.687 586.3 515.015C583.224 516.578 579.857 517.486 576.411 517.68C572.029 519.208 567.399 519.899 562.762 519.717C560.794 521.534 558.385 520.458 556.18 520.698C555.385 520.755 554.591 520.574 553.9 520.179C553.101 519.824 552.234 519.652 551.36 519.676C550.487 519.7 549.629 519.919 548.851 520.317C544.748 522.094 540.5 523.519 536.155 524.577C533.826 525.096 532.327 527.941 529.538 526.754C527.936 528.618 525.783 527.261 523.586 527.906L518.213 530.705C516.554 530.959 514.147 529.925 512.376 531.088C510.326 532.435 507.983 530.69 506.295 532.097C504.509 533.585 501.935 531.581 500.446 533.703C497.449 533.703 494.448 533.604 491.457 533.736C489.365 533.394 487.219 533.69 485.297 534.583C484.617 534.921 483.839 535.009 483.102 534.83C482.364 534.65 481.713 534.215 481.264 533.603C480.156 534.299 478.908 534.746 477.61 534.91C476.311 535.075 474.991 534.953 473.744 534.555C471.22 534.031 468.937 537.46 466.549 534.702C463.735 534.994 460.897 534.943 458.095 534.551C455.473 533.879 453.294 537.401 450.82 534.875C448.187 534.67 445.544 534.638 442.907 534.777C440.204 535.076 438.058 533.001 435.514 533.77C435.121 532.6 435.025 531.35 435.238 530.134C436.061 529.251 437.077 528.57 438.206 528.143C439.336 527.716 440.548 527.554 441.75 527.672C446.241 527.81 450.742 527.654 455.236 527.736C457.164 527.373 459.158 527.684 460.885 528.616C461.407 528.884 461.986 529.024 462.572 529.025C463.159 529.027 463.738 528.888 464.262 528.624C466.582 527.185 469.024 527.98 471.391 527.697C472.789 527.53 474.192 528.079 475.598 526.912C475.834 526.727 476.108 526.598 476.4 526.534C476.692 526.469 476.995 526.471 477.286 526.54C477.577 526.609 477.849 526.742 478.082 526.931C478.314 527.119 478.501 527.358 478.629 527.629C480.13 527.923 480.36 526.501 481.649 526.622C484.62 526.9 487.665 526.448 490.624 526.783C493.638 527.124 496.3 525.619 499.211 525.707C502.055 525.705 504.865 525.082 507.445 523.882C509.37 523.071 511.431 524.008 513.595 523.033C515.294 521.972 517.166 521.218 519.126 520.807C521.008 520.637 522.819 520.006 524.398 518.969C525.734 518.192 527.505 519.127 528.962 517.824C529.689 517.326 530.362 516.754 530.973 516.119C527.151 514.661 523.635 512.5 520.608 509.748C520.425 508.636 520.012 507.575 519.394 506.633C518.776 505.691 517.967 504.889 517.02 504.279C518.426 502.879 515.119 501.814 516.875 500.456C515.362 499.013 517.017 497.737 517.07 496.379C517.129 494.86 517.675 493.274 517.585 491.943C517.479 490.381 518.539 489.177 518.176 487.613C517.957 486.671 519.402 486.203 519.936 485.399C523.963 479.332 523.937 479.289 528.71 476.822C529.24 476.548 529.968 476.558 530.351 475.985C531.383 474.439 533.857 474.809 534.315 472.617C536.922 472.986 539.58 472.546 541.929 471.356C546.198 469.653 550.748 468.763 555.344 468.732C559.831 468.926 564.334 468.812 568.83 468.762C571.866 468.435 574.926 469.114 577.539 470.694C577.98 471.005 578.83 470.738 579.626 470.738C580.58 471.627 581.473 472.579 582.3 473.587C583.132 474.512 583.706 475.639 583.963 476.856C584.41 479.473 584.271 482.157 583.557 484.714C582.842 487.271 581.57 489.637 579.831 491.644C577.913 493.515 576.537 495.869 575.846 498.458C572.468 499.248 571.508 502.51 569.601 504.767C567.728 506.984 564.755 507.86 562.847 510.723C564.636 510.723 566.532 511.314 567.475 510.617C570.792 508.164 575.372 509.717 578.637 506.707C583.58 506.482 588.437 505.333 592.958 503.321C595.298 502.543 597.598 501.647 599.848 500.637C602.843 499.626 606.084 499.604 609.092 500.574C610.931 501.089 611.735 502.326 612.972 503.201C613.424 506.928 614.422 510.567 615.934 514.003C617.018 517.606 617.483 521.395 618.288 525.45ZM549.682 508.692C549.989 507.797 550.476 506.975 551.112 506.275C551.748 505.575 552.52 505.013 553.382 504.622C555.245 503.747 557.733 503.075 558.058 500.331C560.922 498.076 562.212 494.267 565.636 492.817C566.146 489.8 567.474 486.98 569.474 484.665C570.287 483.912 570.836 482.919 571.042 481.83C571.248 480.742 571.099 479.616 570.617 478.619C566.917 479.84 563.153 475.772 559.245 478.763C555.082 478.512 550.911 479.064 546.957 480.39C543.298 481.565 539.677 482.857 536.54 483.926C535.803 486.162 533.926 486.952 533.002 488.613V492.421L529.226 496.077C530.338 499.031 531.123 502.099 531.565 505.224C536.414 506.291 539.873 511.073 545.668 510.75C546.038 510.03 546.624 509.445 547.344 509.075C548.064 508.706 548.882 508.572 549.682 508.692V508.692Z" fill="#212222"/>
<path d="M340.218 276.508L339.249 277.477L340.482 278.799C337.935 280.746 340.284 284.018 338.502 286.355C339.854 287.307 338.497 289.511 340.182 290.414C339.451 291.247 338.901 292.222 338.567 293.278C338.233 294.334 338.122 295.448 338.242 296.55C338.434 297.788 337.863 299.061 338.901 300.312C339.295 300.786 337.885 302.061 338.24 303.208C339.185 307.494 339.535 311.889 339.28 316.27C339.3 316.979 340.556 317.347 340.177 318.451L339.357 319.332C341.493 322.328 338.983 326.202 341.237 329.091C341.162 332.413 341.625 335.724 342.61 338.897C344.293 339.116 344.747 337.526 346.389 336.622L344.015 345.562C342.67 346.041 341.482 347.406 339.711 346.882C339.533 345.456 337.84 345.143 337.482 344.388C336.874 343.329 336.151 342.341 335.327 341.44C335.052 337.013 334.009 332.668 332.244 328.599L333.34 327.093C332.15 325.022 331.381 322.736 331.077 320.367C331.039 318.471 330.383 316.64 329.208 315.152C330.195 313.138 331.16 310.999 329.609 308.902C328.962 308.027 330.952 307.608 329.599 306.662C328.693 306.028 329.085 304.427 329.328 303.394C329.576 302.337 327.743 301.842 328.755 301.034C329.813 300.19 327.685 299.741 328.77 298.793C329.578 298.087 327.726 297.126 328.22 295.948C328.625 295.105 328.706 294.143 328.446 293.244C328.029 292.251 327.886 291.164 328.035 290.097C328.184 289.03 328.618 288.024 329.291 287.183C328.568 286.006 328.438 284.504 327.349 283.575C326.515 279.919 328.754 276.588 328.275 272.984C328.049 271.668 328.063 270.322 328.315 269.01C328.607 267.804 327 267.047 327.707 266.121C328.039 265.556 328.253 264.93 328.337 264.28C328.42 263.63 328.372 262.97 328.194 262.339C327.86 258.24 329.833 254.404 329.362 250.258C329.385 249.522 329.571 248.801 329.908 248.146C330.245 247.492 330.724 246.922 331.31 246.476C330.519 243.127 333.108 240.015 332.15 236.62L334.259 234.533C334.448 230.536 335.048 226.569 336.051 222.696C336.297 220.823 338.895 221.526 338.239 219.642C340.641 216.176 340.993 211.763 344.219 208.023C344.732 207.805 345.191 207.477 345.563 207.062C345.935 206.648 346.211 206.156 346.372 205.623C347.824 202.608 349.764 199.854 352.114 197.471C354.588 195.157 356.87 192.647 358.938 189.964C360.485 188.098 362.4 186.573 364.564 185.481C368.168 183.072 371.521 180.305 374.571 177.225C377.634 176.539 380.475 175.088 382.827 173.01C385.58 171.925 388.24 170.621 390.783 169.109H396.696L399.172 171.604V175.616C398.528 175.94 397.521 176.108 397.224 176.658C396.276 178.416 394.371 178.065 392.994 178.604C391.451 179.208 391.303 181.425 389.105 181.199C387.648 181.049 387.052 183.382 384.942 183.285C383.382 183.584 381.983 184.441 381.009 185.696C379.211 188.202 376.701 190.109 373.806 191.169C372.725 191.629 371.85 192.469 371.346 193.531C370.332 195.051 369 196.335 367.442 197.291C362.277 201.894 357.896 207.306 354.468 213.316C354.932 215.478 352.705 216.15 352.007 217.699C351.481 219.466 350.857 221.202 350.139 222.9C347.797 226.754 346.801 231.233 344.214 235.015C343.829 236.211 345.02 236.96 345.156 237.625L342.087 240.666C342.894 242.665 342.874 244.903 342.031 246.888C341.536 248.893 341.269 250.947 341.237 253.012C341.207 255.089 339.75 256.85 340.166 259.102C340.502 260.925 338.451 262.656 339.386 264.601C340.345 266.596 338.695 268.377 339.204 270.335C339.722 272.321 338.329 274.629 340.218 276.508Z" fill="#212222"/>
<path d="M274.676 279.129C275.318 278.387 275.792 277.515 276.064 276.572C276.336 275.63 276.4 274.639 276.253 273.67C275.856 271.615 277.53 270.135 277.398 268.08C277.282 266.266 276.367 264.087 278.283 262.51C276.739 260.592 278.83 259.293 279.07 257.685C279.332 255.926 279.302 254.125 279.393 252.464C280.533 250.54 282.251 250.998 284.26 251.12C283.922 253.087 285.414 255.219 283.12 256.671C283.882 258.387 285.1 259.58 283.599 261.321C282.758 262.297 282.936 263.817 284.633 264.634C283.634 265.983 283.14 267.64 283.238 269.315C283.354 275.801 283.294 282.289 283.279 288.777C283.276 290.206 283.631 291.744 282.316 292.732C282.002 293.954 283.748 294.155 283.34 295.453C283.179 296.438 283.16 297.441 283.286 298.43V301.425C283.286 302.589 283.344 303.758 283.268 304.917C283.178 305.394 283.223 305.887 283.397 306.341C283.57 306.794 283.867 307.19 284.252 307.486C283.074 308.127 283.625 308.866 284.132 309.602C283.069 310.233 283.236 311.281 283.303 312.245C283.354 312.975 285.543 313.673 283.409 314.217C285.718 318.655 287.412 323.387 288.445 328.283C288.681 332.412 290.367 336.325 293.207 339.331V343.073C295.432 345.571 297.159 348.473 298.294 351.62C299.486 353.722 301.068 355.577 302.956 357.085C303.06 357.208 303.25 357.329 303.254 357.455C303.281 358.286 303.268 359.118 303.268 360.143C305.345 362.667 306.656 366.094 310.219 367.431L309.212 368.436C311.303 369.093 312.959 370.139 312.173 372.667C313.705 373.189 315.036 374.177 315.978 375.493C316.92 376.81 317.427 378.387 317.427 380.006C317.962 382.421 319.051 384.679 320.609 386.601C321.079 387.447 321.303 388.408 321.256 389.375L319.766 390.811H315.757C314.565 389.379 312.949 388.362 311.141 387.908C307.816 386.044 304.998 383.394 302.935 380.188C302.171 378.332 299.859 377.504 299.055 375.303C298.44 373.621 295.69 372.998 296.307 370.34C293.638 368.472 292.472 365.267 290.045 363.028C287.862 361.012 287.944 357.663 286.245 355.125C284.805 352.309 283.712 349.328 282.989 346.249C280.389 344.862 279.6 343.332 279.264 338.285L277.101 336.753L278.088 335.592C276.771 334.09 277.495 332.161 277.23 330.363C276.64 329.775 276.051 329.187 275.425 328.561C274.972 326.786 275.555 324.887 274.404 323.026C273.465 321.509 275.182 319.133 273.383 317.461C273.256 317.248 273.184 317.007 273.174 316.759C273.164 316.512 273.217 316.266 273.326 316.044C275.461 312.906 272.607 310.055 272.835 307.035C272.857 306.74 272.471 306.542 272.714 305.958C274.359 302.014 272.072 297.537 274.302 293.642C274.575 293.236 274.878 292.852 275.209 292.493C272.209 288.412 276.599 283.892 274.676 279.129Z" fill="#212222"/>
<path d="M549.682 508.693C548.882 508.573 548.064 508.707 547.344 509.076C546.624 509.445 546.038 510.031 545.668 510.751C539.873 511.073 536.414 506.292 531.565 505.225C531.123 502.1 530.339 499.032 529.227 496.078L533.002 492.423V488.614C533.926 486.954 535.804 486.163 536.54 483.927C539.677 482.857 543.298 481.565 546.957 480.391C550.911 479.065 555.082 478.512 559.245 478.764C563.153 475.773 566.918 479.841 570.617 478.62C571.099 479.617 571.248 480.743 571.042 481.831C570.837 482.92 570.287 483.913 569.474 484.666C567.474 486.981 566.146 489.801 565.636 492.818C562.213 494.268 560.922 498.078 558.058 500.334C557.733 503.078 555.245 503.748 553.382 504.623C552.521 505.014 551.748 505.576 551.112 506.276C550.476 506.976 549.989 507.798 549.682 508.693V508.693Z" fill="white"/>
</svg>
