<svg width="1208" height="900" viewBox="0 0 1208 900" fill="none" xmlns="http://www.w3.org/2000/svg">
<path d="M291.938 663.342C304.422 659.032 316.744 654.318 329.797 648.326C325.277 648.766 323.009 646.053 320.503 645.124C316.711 643.484 313.063 641.53 309.596 639.283C304.292 636.265 299.315 632.676 294.15 629.407C288.772 626.46 283.943 622.606 279.877 618.014C277.159 614.597 272.23 613.292 268.875 609.911C263.354 604.349 257.792 598.913 252.502 593.079C246.159 584.731 240.683 575.759 236.16 566.301C230.439 555.793 225.978 544.646 222.872 533.093C218.03 518.91 214.416 504.339 212.068 489.538C210.174 475.58 207.368 461.782 206.579 447.637C206.036 437.894 203.754 428.258 202.698 418.526C202.227 414.174 201.703 409.825 201.246 405.472C199.816 391.837 200.719 378.1 199.532 364.432C198.783 355.802 199.167 347.19 197.6 338.476C196.262 330.916 195.478 323.268 195.253 315.594C195.187 313.482 193.855 311.967 193.419 310.138C193.104 308.819 192.348 307.15 194.227 305.754C196.012 304.428 197.34 305.275 198.629 305.99C207.311 311.424 216.583 315.854 226.265 319.194C239.08 323.199 252.282 325.841 265.652 327.076C274.663 327.981 283.717 328.406 292.773 328.348C302.601 328.835 312.453 328.354 322.186 326.91C331.489 325.063 340.691 322.742 349.757 319.958C361.671 315.811 373.489 311.548 385.081 306.498C395.129 302.12 404.85 297.018 415.333 293.465C423.767 290.607 431.812 286.399 440.205 283.227C451.688 278.887 463.074 274.175 474.81 270.646C489.702 266.168 504.77 262.124 519.818 258.299C535.389 254.022 551.387 251.491 567.518 250.754C579.93 249.93 592.378 251.67 604.088 255.866C607.432 257.19 609.396 259.065 606.668 262.344C605.015 264.33 606.514 265.542 607.197 266.625C611.949 274.158 616.544 281.836 621.931 288.903C625.203 293.197 628.783 297.303 632.09 301.611C634.197 304.355 634.021 306.845 631.276 308.63C628.569 310.39 625.502 311.27 623.021 307.917C612.945 294.705 604.133 280.576 596.7 265.716C596.157 264.606 595.33 263.659 594.303 262.972C593.276 262.285 592.085 261.882 590.851 261.803C572.426 259.582 553.749 260.77 535.753 265.308C517.417 269.436 499.181 273.84 481.182 279.306C464.428 284.2 447.979 290.082 431.921 296.921C411.943 305.675 391.987 314.533 371.671 322.447C352.348 330.45 331.775 335.013 310.881 335.928C297.009 336.134 283.137 335.58 269.326 334.269C257.104 333.126 244.971 331.177 233.006 328.434C221.993 325.705 211.475 321.268 201.835 315.285C203.215 322.641 204.66 329.022 205.558 335.479C206.634 343.218 207.264 351.022 208.046 358.801C209.239 370.655 208.826 382.574 209.885 394.479C211.087 407.982 213.121 421.371 214.385 434.856C215.44 446.116 217.792 457.254 219.503 468.455C221.013 478.341 222.724 488.279 225.115 497.892C226.93 508.488 229.729 518.891 233.475 528.967C235.438 533.277 235.848 539.031 237.907 543.155C241.664 552.884 246.038 562.364 251.005 571.535C255.085 579.869 260.378 587.553 266.713 594.334C272.184 598.754 277.023 603.979 282.91 608.09C286.831 610.829 291.004 613.739 294.888 616.778C305.203 624.724 316.32 631.569 328.058 637.204C336.614 641.382 345.427 645.462 354.443 648.935C361.698 651.73 369.021 654.541 376.198 657.641C382.293 659.943 388.532 661.842 394.876 663.328C403.354 665.726 411.97 667.695 420.317 670.478C424.619 671.402 428.966 672.096 433.342 672.557C446.36 675.83 459.717 677.57 473.14 677.74C478.372 677.898 483.59 678.363 488.767 679.135C495.696 679.869 502.779 678.996 509.764 679.389C522.374 680.099 535.018 680.222 547.625 680.755C552.58 680.964 558.106 681.014 563.215 680.917C569.003 680.329 574.839 680.397 580.612 681.122C587.219 682.486 594.104 680.929 600.92 682.187C610.344 683.926 619.903 684.459 629.36 686.711C636.425 688.393 643.462 690.227 650.284 692.536C655.556 694.444 660.516 697.121 665.005 700.48C668.844 703.255 673.291 704.569 677.275 706.954C682.191 709.895 686.82 713.172 691.401 716.532C697.782 720.192 703.799 724.451 709.373 729.251C710.926 730.915 712.424 730.052 713.977 728.548C723.231 719.581 733.679 711.871 742.333 702.295C749.934 693.885 759.426 687.634 767.26 679.461C772.377 673.049 778.135 667.176 784.443 661.932C790.266 657.986 792.989 651.739 798.776 647.798C803.809 644.488 807.951 639.991 810.836 634.703C811.52 633.355 813.048 632.442 814.157 631.301C819.931 625.356 825.817 619.483 831.664 613.658C836.018 608.468 840.817 603.668 846.006 599.313C848.243 597.741 849.334 593.884 851.843 592.089C857.752 587.861 860.738 580.671 867.288 577.212C870.319 575.612 869.185 571.61 872.55 569.695C878.24 565.314 883.311 560.184 887.628 554.445C891.741 550.514 895.587 546.312 899.139 541.867C905.318 534.452 911.992 527.464 919.116 520.951C924.025 514.887 929.758 509.539 936.148 505.062C939.147 502.732 941.728 499.909 943.782 496.714C948.239 491.389 954.269 487.538 958.591 482.344C964.12 476.318 969.955 470.581 976.072 465.153C978.303 462.875 980.322 460.399 982.106 457.757C985.031 453.546 990.348 452.922 992.987 448.586C997.223 441.624 1005.92 438.946 1009.8 431.265C1011.47 427.97 1016.47 428.106 1019.46 425.373C1022.57 421.769 1026.21 418.655 1030.25 416.133C1032.94 414.835 1033.27 412.39 1030.21 410.689C1024.58 407.558 1020.46 402.291 1014.52 399.633C1005.64 395.007 996.04 391.912 986.13 390.479C980.575 389.913 974.986 389.734 969.406 389.942L964.463 389.96C953.025 391.306 941.736 393.711 930.743 397.144C923.13 399.796 915.141 400.9 907.569 403.636C903.661 405.048 899.52 405.817 895.485 406.877C893.659 406.649 891.805 406.885 890.095 407.564L866.515 410.867C864.381 410.997 862.133 410.077 860.146 411.559L848.532 411.869L842.639 412.11C839.57 411.528 836.433 411.394 833.326 411.713C820.386 411.605 807.484 410.771 794.582 409.899L787.627 409.859C777.981 409.696 768.403 408.211 759.161 405.445C746.726 402.58 735.05 397.079 724.923 389.314C723.696 388.449 721.878 387.253 722.831 385.298C723.038 384.883 723.336 384.52 723.703 384.236C724.07 383.952 724.496 383.755 724.949 383.659C725.403 383.563 725.873 383.57 726.323 383.681C726.774 383.792 727.193 384.002 727.551 384.297C734.308 388.378 741.926 390.599 748.83 394.347C753.513 396.114 758.421 397.213 763.411 397.61C778.171 400.684 793.232 402.078 808.306 401.766C816.029 401.737 823.778 402.91 831.476 402.591C848.824 402.379 866.132 400.889 883.261 398.134C901.356 394.697 918.671 388.831 936.4 384.314C946.146 381.332 956.207 379.498 966.379 378.849C986.063 377.241 1005.83 380.762 1023.75 389.068C1033.41 394.022 1042.03 400.785 1049.15 408.991C1050.72 410.877 1051.11 413.472 1053.7 414.928C1054.42 415.746 1054.88 416.753 1055.04 417.829C1055.2 418.905 1055.04 420.004 1054.59 420.993C1053.32 423.819 1050.42 426.193 1048.38 425.37C1041.63 422.65 1039.38 428.736 1035.64 431.268C1030.26 434.906 1025.7 439.733 1020.64 443.857C1019.14 445.073 1017.72 445.771 1017.03 448.006C1016.16 450.189 1014.49 451.962 1012.37 452.975C1005.86 456.025 1002.25 462.181 996.951 466.459C990.661 471.542 985.917 478.118 979.544 483.167C970.493 490.339 963.395 499.803 953.745 506.293C951.643 507.707 953.256 509.587 951.732 510.851C949.474 512.725 947.21 514.638 945.057 516.607C937.047 523.933 929.978 532.264 922.18 539.738C915.641 546.006 909.916 553.093 902.547 559.441C909.087 560.817 915.388 562.288 921.746 563.447C932.331 565.432 942.776 568.104 953.014 571.445C959.855 573.636 966.804 575.65 973.646 577.795C983.491 580.88 993.589 582.705 1003.51 585.318C1005.35 585.857 1007.16 586.514 1008.92 587.286C1012.3 588.652 1011.98 590.65 1010.27 593.027C1005.48 600.054 999.822 606.445 993.424 612.045C988.898 615.816 985.167 620.525 980.775 624.474C969.645 634.482 958.664 644.706 946.944 653.985C942.135 657.176 937.576 660.731 933.309 664.617C927.165 671.338 919.119 675.313 912.518 681.331C905.328 687.603 897.782 693.455 889.918 698.858C882.564 704.142 874.579 708.554 867.686 714.515C865.031 716.615 862.193 718.472 859.205 720.063C842.926 729.621 828.926 742.495 812.514 751.891C801.239 758.346 789.739 764.347 778.307 770.494C769.124 775.431 760.147 780.883 751.295 786.42C740.807 792.98 730.378 799.644 719.855 806.159C710.171 811.894 701.269 818.858 693.373 826.879C688.872 831.624 685.008 831.777 681.011 826.739C673.578 818.822 664.857 812.223 655.217 807.222C646.123 800.661 637.4 793.602 629.087 786.076C624.693 782.53 619.926 779.433 615.217 776.297C609.104 772.333 602.688 768.857 596.029 765.901C588.348 761.474 580.117 758.077 571.549 755.798C567.767 755.132 563.835 753.341 559.923 752.239C549.384 749.83 538.727 747.969 527.995 746.664C519.419 745.184 510.677 743.723 501.873 743.029C494.541 742.48 487.266 741.343 480.117 739.628C472.805 737.834 465.331 738.156 458.057 736.353C447.802 733.812 437.365 732.058 427.067 729.592C420.409 727.997 413.271 726.666 407.014 724.665C396.567 723.023 386.32 720.301 376.436 716.542C374.57 715.492 371.876 716.012 369.832 715.165C358.836 710.857 347.629 707.109 336.253 703.936C330.117 702.095 323.914 700.476 317.797 698.577C307.432 695.359 297.114 692.04 287.053 687.884C277.447 684.254 267.57 681.387 257.515 679.308C251.282 677.821 245.083 676.188 238.865 674.639C236.744 673.821 234.501 673.36 232.229 673.276C231.732 673.347 231.226 673.309 230.745 673.166C230.264 673.022 229.819 672.776 229.442 672.444C229.065 672.113 228.765 671.703 228.562 671.244C228.359 670.785 228.257 670.288 228.264 669.786C228.162 667.189 230.347 667.345 232.2 667.328C235.191 667.301 238.182 667.223 241.174 667.167L246.115 667.454C248.125 667.242 250.199 668.363 252.163 667.168C255.589 667.224 259.032 667.524 262.435 667.271C266.693 666.954 271.088 668.507 275.214 666.396L275.16 666.448C277.803 665.738 280.768 667.465 283.229 665.381C283.927 665.468 284.636 665.404 285.308 665.196C285.98 664.987 286.601 664.638 287.128 664.172C288.743 663.965 290.635 665.356 291.938 663.342Z" fill="#212222"/>
<path d="M647.523 461.537C642.083 465.84 637.072 470.66 632.562 475.929C630.517 478.28 627.339 478.409 624.668 479.446C621.535 480.202 618.769 482.038 616.856 484.632C615.328 487.135 611.938 487.163 609.894 488.98C597.282 498.354 584.097 506.932 570.416 514.663C564.714 518.589 558.851 522.218 552.836 525.622C552.032 525.489 551.207 525.589 550.458 525.911C549.709 526.233 549.068 526.762 548.61 527.437C541.86 530.535 534.934 533.235 527.869 535.525C522.22 535.553 521.996 535.286 522.042 528.582C525.529 518.98 529.072 509.398 532.487 499.771C535.272 491.921 539.566 484.681 541.776 476.604C545.078 466.107 549.185 455.881 554.06 446.015C555.769 442.144 558.199 438.633 561.22 435.671C563.177 433.555 564.632 431.025 565.476 428.268C570.789 412.791 579.144 398.533 590.048 386.331C596.86 378.571 603.347 370.427 609.663 362.189C613.479 357.211 617.005 352.013 620.639 346.91C622.07 344.272 623.79 341.801 625.769 339.545L628.623 335.793C632.404 328.727 637.228 322.271 642.932 316.642C645.647 314.192 646.79 310.088 649.743 307.526C651.063 305.597 651.734 303.182 653.941 301.916C657.047 302.641 654.928 298.965 656.738 298.598L660.535 294.848C661.502 293.548 662.167 291.958 663.875 291.369C664.678 289.566 665.946 288.01 667.55 286.86C670.126 283.2 673.172 279.893 676.608 277.026C681.099 273.49 685.157 269.438 688.7 264.953C690.743 264.918 692.447 264.459 692.478 261.919C694.526 260.523 696.296 258.758 697.699 256.714L701.393 252.903C701.944 251.164 703.119 249.69 704.692 248.766C706.002 248.18 707.099 247.204 707.835 245.972C709.021 245.423 709.239 244.192 709.79 243.195L712.384 239.922C713.612 236.969 715.89 234.576 718.779 233.205L725.908 223.033C726.493 223.207 726.751 222.934 726.802 222.378L732.633 215.957C732.888 214 734.746 213.206 735.69 211.748C738.506 210.841 739.039 207.847 740.891 206.06C743.695 201.796 748.709 199.821 751.641 195.69L754.641 192.986C759.759 190.465 762.07 184.935 766.629 181.814C768.453 180.909 770.051 179.607 771.307 178.005C773.006 176.535 775.341 175.663 775.9 173.122C776.543 171.573 779.588 172.687 779.275 170.079C782.848 166.497 788.07 167.067 792.272 164.882C799.746 160.561 807.886 157.514 816.359 155.866C822.258 155.291 828.185 155.054 834.11 155.155C835.794 156.338 837.712 155.76 839.537 155.883L840.506 156.061C841.924 157.251 843.671 157.98 845.514 158.15C848.993 159.381 852.167 161.346 854.822 163.91C857.477 166.474 859.55 169.579 860.901 173.013C861.881 175.532 861.954 178.313 861.108 180.879C861.691 184.564 861.837 188.303 861.543 192.022C859.946 193.703 860.361 196.047 859.574 197.995L859.553 198.022C858.148 200.144 857.092 202.479 856.428 204.936C854.453 207.917 851.168 210.036 850.52 213.891L847.592 218.965C845.738 221.394 842.79 222.862 841.554 225.834C837.306 225.749 839.886 228.209 840.081 229.779C825.598 238.292 812.855 249.466 802.522 262.712L799.597 266.885L796.469 270.472C794.344 271.154 794.88 273.651 793.491 274.836C790.33 276.862 787.899 279.845 786.554 283.35C785.324 286.658 780.373 286.373 780.486 290.49L778.178 294.715C771.775 298.071 768.909 304.589 764.638 309.851L759.544 315.783C757.708 316.325 759.135 318.725 757.498 319.38C756.335 320.355 754.434 320.709 754.62 322.813C751.05 326.413 747.844 330.357 745.048 334.587C740.744 339.315 736.958 344.49 733.756 350.024C729.718 356.51 725.049 362.581 719.816 368.149C717.935 370.275 718.148 373.295 716.622 375.57C714.094 375.808 713.816 378.113 712.792 379.733C708.43 384.881 704.391 390.294 700.697 395.94C698.744 396.39 699.145 398.386 698.311 399.571C696.975 400.584 696.045 402.041 695.69 403.68L693.281 406.564C691.703 406.383 691.223 407.556 690.69 408.664C689.22 410.011 688.145 411.731 687.58 413.643C682.936 418.676 678.632 424.015 674.7 429.622C673.497 431.241 671.031 431.417 670.251 433.517L666.649 437.431C664.842 437.717 664.546 439.5 663.533 440.572L650.686 457.48C649.435 458.677 647.857 459.622 647.523 461.537ZM824.385 225.148C825.662 222.696 827.57 220.628 829.911 219.158C837.537 212.791 843.408 204.579 846.967 195.304C848.878 190.246 849.532 184.8 848.872 179.433C849.072 177.489 848.869 175.524 848.276 173.663C847.683 171.801 846.712 170.081 845.423 168.611C844.135 167.142 842.557 165.955 840.788 165.124C839.02 164.292 837.099 163.835 835.145 163.78C826.152 162.372 816.944 163.464 808.529 166.935C804 168.161 799.67 170.031 795.673 172.488C786.023 179.997 776.801 188.039 768.049 196.578C785.141 209.431 806.164 214.569 824.385 225.148V225.148ZM592.479 429.6C592.214 428.344 593.249 426.741 591.891 425.904C590.243 424.886 589.259 426.781 588.132 427.448C583.149 430.397 578.279 433.541 573.429 436.707C567.524 440.561 561.419 444.194 559.642 451.896C556.633 464.197 552.527 476.203 547.372 487.77C546.632 489.492 547.559 490.379 548.786 490.918C554.024 493.477 559.061 496.429 563.851 499.75C568.233 502.534 572.31 503.909 576.037 498.759C576.561 498.034 577.722 497.764 578.597 497.3C582.429 495.827 586.047 493.85 589.357 491.42C597.165 483.916 607.897 480.299 614.819 471.73C617.626 468.256 624.436 467.701 622.646 460.884C622.152 459.684 621.943 458.385 622.036 457.09C623.341 451.964 620.154 453.721 618.139 454.631C611.386 458.121 604.066 460.382 596.521 461.305C592.851 461.575 587.689 458.67 588.625 456.457C590.787 451.349 588.858 445.879 590.741 440.602C591.909 437.052 592.496 433.337 592.479 429.6V429.6Z" fill="#212222"/>
<path d="M448.954 413.523C445.236 416.106 440.976 417.805 436.5 418.49C432.024 419.174 427.451 418.825 423.13 417.47C421.371 417.149 419.737 416.342 418.413 415.14C417.088 413.938 416.127 412.39 415.636 410.67C413.76 404.025 414.033 396.956 416.415 390.476C418.798 383.995 423.168 378.434 428.901 374.587C433.48 370.411 439.236 367.749 445.384 366.965C451.531 366.181 457.771 367.313 463.251 370.206C466.358 372.28 468.849 375.151 470.465 378.519C472.08 381.887 472.76 385.627 472.433 389.348C471.577 392.671 473.343 391.967 474.78 391.563C477.453 390.812 479.968 389.506 482.636 388.731C494.658 385.591 507.381 386.531 518.81 391.405C524.579 392.947 530.686 392.646 536.275 390.544C541.865 388.442 546.656 384.645 549.98 379.683C554.987 372.6 558.831 364.762 561.366 356.466C563.562 349.124 566.486 342.1 568.899 334.875C569.449 333.227 569.873 330.656 572.535 330.87C575.013 331.069 575.343 333.44 575.783 335.216C577.241 343.175 576.793 351.366 574.477 359.12C572.59 365.757 569.795 372.101 566.172 377.973C561.824 385.649 555.344 391.9 547.517 395.969C541.01 400.192 533.297 402.164 525.562 401.583C519.321 401.075 513.174 399.754 507.277 397.651C497.098 394.711 486.215 395.388 476.479 399.566C468.116 402.032 466.94 410.091 462.574 415.548C456.729 423.03 449.589 429.402 441.493 434.362C433.992 439.298 426.019 443.477 417.693 446.838C406.032 451.488 394.104 455.438 381.974 458.669C376.122 460.004 370.408 461.929 364.591 463.431C346.215 468.178 327.851 472.985 309.41 477.47C304.118 478.534 298.765 479.263 293.381 479.651C292.011 479.804 290.216 480.004 290.117 477.68C290.028 475.587 291.114 474.935 293.069 474.539C319.376 469.208 344.813 460.552 370.84 454.143C386.965 450.007 402.671 444.384 417.755 437.342C428.61 432.155 438.647 425.407 447.547 417.312C448.065 416.857 448.112 415.866 448.954 413.523ZM448.694 376.751C446.624 376.755 444.585 377.253 442.747 378.205C438.358 380.525 434.563 383.828 431.658 387.854C428.753 391.88 426.816 396.521 425.997 401.418C424.736 406.577 426.954 409.233 432.379 409.731C437.491 410.015 442.546 408.549 446.714 405.575C452.034 402.17 459.501 401.222 459.747 391.9C460.022 381.471 458.198 377.327 448.694 376.751Z" fill="#212222"/>
<path d="M523.818 536.539C523.453 537.919 529.967 537.496 524.831 540.016C515.431 545.548 506.72 552.176 498.88 559.76C490.702 566.51 482.982 573.8 475.042 580.764C464.963 589.547 453.449 596.531 441.002 601.41C432.339 604.833 423.127 606.654 413.813 606.783C411.847 606.822 409.538 606.955 409.423 604.846C409.312 602.814 412.055 602.783 413.58 602.533C423.931 600.782 433.989 597.605 443.468 593.093C455.438 586.578 466.406 578.369 476.03 568.719C482.259 563.202 488.269 557.437 494.483 551.902C497.873 548.882 501.661 546.309 504.923 543.104C507.069 540.788 509.704 538.98 512.636 537.812C515.569 536.644 518.725 536.145 521.875 536.352L523.818 536.539Z" fill="#212222"/>
<path d="M275.214 666.398C271.088 668.509 266.693 666.957 262.435 667.273C259.032 667.526 255.588 667.225 252.163 667.17C259.806 666.194 267.523 665.936 275.214 666.398V666.398Z" fill="white"/>
<path d="M725.909 223.033L718.781 233.205C719.057 231.06 719.851 229.013 721.092 227.241C722.334 225.469 723.987 224.026 725.909 223.033V223.033Z" fill="white"/>
<path d="M523.818 536.537L521.876 536.351C521.551 533.753 519.424 531.117 522.042 528.582C521.996 535.286 522.22 535.553 527.869 535.525C526.801 536.993 525.21 536.37 523.818 536.537Z" fill="white"/>
<path d="M732.634 215.959L726.803 222.379C728.07 219.625 728.898 216.473 732.634 215.959Z" fill="white"/>
<path d="M759.547 315.783L764.641 309.852C764.705 313.341 762.292 314.704 759.547 315.783Z" fill="white"/>
<path d="M740.892 206.061C739.04 207.848 738.507 210.841 735.691 211.749C737.255 209.697 737.575 206.51 740.892 206.061Z" fill="white"/>
<path d="M840.084 229.779C839.888 228.209 837.309 225.749 841.556 225.834C841.016 227.131 844.221 229.824 840.084 229.779Z" fill="white"/>
<path d="M861.11 180.88C861.956 178.313 861.882 175.532 860.902 173.014C861.494 173.477 861.977 174.065 862.315 174.736C862.653 175.408 862.838 176.146 862.858 176.898C862.878 177.649 862.731 178.396 862.429 179.084C862.127 179.773 861.677 180.386 861.11 180.88Z" fill="white"/>
<path d="M856.43 204.936C857.094 202.479 858.149 200.146 859.555 198.023C859.563 200.802 859.323 203.468 856.43 204.936Z" fill="white"/>
<path d="M653.942 301.916C651.736 303.183 651.065 305.597 649.744 307.526C649.608 304.509 650.364 302.157 653.942 301.916Z" fill="white"/>
<path d="M771.309 178.006C770.053 179.608 768.454 180.91 766.631 181.816C767.512 179.714 768.708 177.998 771.309 178.006Z" fill="white"/>
<path d="M859.575 197.996C860.363 196.049 859.947 193.705 861.544 192.023C860.874 194.01 863.125 196.959 859.575 197.996Z" fill="white"/>
<path d="M283.229 665.383C280.768 667.467 277.803 665.74 275.16 666.45C277.602 664.224 280.548 665.807 283.229 665.383Z" fill="white"/>
<path d="M787.626 409.861L794.581 409.902C793.52 410.505 792.319 410.818 791.099 410.811C789.878 410.804 788.681 410.476 787.626 409.861V409.861Z" fill="white"/>
<path d="M779.277 170.08C779.59 172.689 776.545 171.576 775.902 173.125C775.039 169.907 778.561 171.548 779.277 170.08Z" fill="white"/>
<path d="M687.584 413.645C688.149 411.733 689.225 410.011 690.694 408.664C690.68 409.699 690.382 410.711 689.834 411.589C689.286 412.467 688.507 413.177 687.584 413.645V413.645Z" fill="white"/>
<path d="M847.594 218.965L850.522 213.891C850.539 216.155 850.921 218.63 847.594 218.965Z" fill="white"/>
<path d="M701.394 252.903L697.699 256.714C698.124 254.661 698.657 252.715 701.394 252.903Z" fill="white"/>
<path d="M670.255 433.518C671.035 431.418 673.501 431.242 674.704 429.623C674.564 432.455 672.365 432.936 670.255 433.518Z" fill="white"/>
<path d="M667.551 286.859C665.948 288.01 664.68 289.567 663.877 291.369C663.465 288.534 664.287 286.702 667.551 286.859Z" fill="white"/>
<path d="M660.536 294.848L656.739 298.598C657.177 296.511 657.802 294.612 660.536 294.848Z" fill="white"/>
<path d="M712.794 379.733C713.818 378.113 714.096 375.807 716.625 375.57C715.819 377.391 715.415 379.581 712.794 379.733Z" fill="white"/>
<path d="M628.623 335.793L625.77 339.546C625.685 337.507 625.648 335.506 628.623 335.793Z" fill="white"/>
<path d="M793.494 274.837C794.883 273.652 794.347 271.155 796.471 270.473C795.668 272.056 796.292 274.613 793.494 274.837Z" fill="white"/>
<path d="M647.523 461.537C647.857 459.622 649.435 458.676 650.689 457.479C650.704 458.415 650.398 459.328 649.822 460.066C649.246 460.805 648.435 461.323 647.523 461.537V461.537Z" fill="white"/>
<path d="M799.599 266.886L802.524 262.713C802.725 264.928 802.304 266.707 799.599 266.886Z" fill="white"/>
<path d="M692.48 261.92C692.449 264.46 690.744 264.918 688.701 264.953L692.48 261.92Z" fill="white"/>
<path d="M842.638 412.112L848.531 411.871C847.66 412.435 846.654 412.755 845.617 412.798C844.581 412.84 843.552 412.603 842.638 412.112Z" fill="white"/>
<path d="M754.643 192.988L751.644 195.691C752.1 194.187 752.36 192.466 754.643 192.988Z" fill="white"/>
<path d="M845.516 158.151C843.673 157.981 841.926 157.254 840.508 156.064C841.454 155.925 842.419 156.046 843.301 156.414C844.183 156.782 844.949 157.382 845.516 158.151Z" fill="white"/>
<path d="M860.146 411.562C862.132 410.079 864.381 411 866.515 410.87C864.531 412.384 862.284 411.469 860.146 411.562Z" fill="white"/>
<path d="M890.093 407.566C891.804 406.887 893.658 406.651 895.484 406.879C893.838 408.291 891.914 407.521 890.093 407.566Z" fill="white"/>
<path d="M693.284 406.564L695.693 403.68C696.878 406.3 695.323 406.633 693.284 406.564Z" fill="white"/>
<path d="M663.537 440.573C664.55 439.501 664.846 437.717 666.652 437.432C666.087 438.947 665.723 440.663 663.537 440.573Z" fill="white"/>
<path d="M698.313 399.572C699.147 398.387 698.747 396.391 700.7 395.941C700.738 397.699 700.445 399.239 698.313 399.572Z" fill="white"/>
<path d="M964.462 389.962L969.404 389.943C968.702 390.502 967.833 390.808 966.936 390.811C966.039 390.815 965.168 390.515 964.462 389.962V389.962Z" fill="white"/>
<path d="M548.61 527.436C549.067 526.762 549.709 526.232 550.458 525.911C551.207 525.589 552.032 525.489 552.836 525.621C552.313 526.222 551.662 526.697 550.93 527.012C550.199 527.326 549.405 527.471 548.61 527.436V527.436Z" fill="white"/>
<path d="M839.54 155.883C837.715 155.76 835.796 156.338 834.112 155.156C835.942 155.239 837.894 154.416 839.54 155.883Z" fill="white"/>
<path d="M778.18 294.715L780.488 290.49C780.68 292.423 780.672 294.247 778.18 294.715Z" fill="white"/>
<path d="M291.938 663.343C290.635 665.357 288.743 663.967 287.128 664.175C288.537 662.776 290.323 663.552 291.938 663.343Z" fill="white"/>
<path d="M707.836 245.972C707.1 247.204 706.003 248.18 704.693 248.766C704.68 248.365 704.756 247.967 704.914 247.598C705.073 247.229 705.31 246.899 705.61 246.633C705.91 246.366 706.265 246.168 706.649 246.054C707.034 245.94 707.439 245.912 707.836 245.972Z" fill="white"/>
<path d="M246.115 667.456L241.174 667.17C241.508 666.846 241.905 666.594 242.341 666.431C242.778 666.269 243.242 666.199 243.707 666.226C244.171 666.253 244.626 666.376 245.04 666.588C245.455 666.799 245.821 667.095 246.115 667.456V667.456Z" fill="white"/>
<path d="M712.385 239.922L709.791 243.195C709.706 242.804 709.709 242.4 709.8 242.01C709.89 241.621 710.065 241.258 710.313 240.945C710.562 240.632 710.876 240.377 711.234 240.2C711.593 240.023 711.986 239.928 712.385 239.922V239.922Z" fill="white"/>
<path d="M754.623 322.813C754.437 320.71 756.338 320.355 757.5 319.381C757.351 320.15 757.009 320.869 756.505 321.469C756.002 322.07 755.354 322.532 754.623 322.813V322.813Z" fill="white"/>
<path d="M824.385 225.148C806.164 214.57 785.141 209.431 768.049 196.577C776.801 188.038 786.023 179.996 795.673 172.487C799.67 170.03 804 168.16 808.529 166.934C816.944 163.463 826.152 162.371 835.145 163.779C837.099 163.834 839.02 164.291 840.788 165.123C842.557 165.954 844.135 167.141 845.423 168.61C846.712 170.08 847.682 171.8 848.276 173.662C848.869 175.524 849.072 177.488 848.872 179.432C849.532 184.799 848.878 190.245 846.967 195.304C843.407 204.579 837.537 212.79 829.911 219.157C827.569 220.628 825.662 222.696 824.385 225.148V225.148Z" fill="white"/>
<path d="M592.479 429.6C592.496 433.337 591.909 437.052 590.741 440.602C588.858 445.879 590.787 451.349 588.625 456.457C587.689 458.669 592.851 461.573 596.521 461.304C604.066 460.38 611.387 458.121 618.139 454.63C620.154 453.72 623.341 451.963 622.036 457.09C621.943 458.385 622.152 459.683 622.646 460.883C624.436 467.699 617.626 468.254 614.819 471.729C607.897 480.298 597.165 483.915 589.357 491.419C586.047 493.848 582.429 495.826 578.597 497.3C577.722 497.763 576.562 498.034 576.037 498.759C572.311 503.909 568.233 502.534 563.852 499.75C559.061 496.429 554.024 493.475 548.786 490.917C547.559 490.377 546.632 489.491 547.372 487.769C552.527 476.202 556.633 464.197 559.642 451.896C561.419 444.194 567.524 440.561 573.429 436.707C578.279 433.541 583.149 430.397 588.132 427.448C589.259 426.78 590.242 424.886 591.891 425.904C593.249 426.741 592.214 428.343 592.479 429.6Z" fill="white"/>
<path d="M448.691 376.744C458.197 377.326 460.022 381.47 459.747 391.899C459.501 401.22 452.034 402.169 446.713 405.573C442.546 408.547 437.49 410.014 432.379 409.73C426.953 409.231 424.735 406.576 425.997 401.417C426.815 396.52 428.752 391.878 431.657 387.853C434.562 383.827 438.357 380.524 442.747 378.204C444.585 377.254 446.622 376.754 448.691 376.744V376.744Z" fill="white"/>
</svg>
