<svg width="1208" height="900" viewBox="0 0 1208 900" fill="none" xmlns="http://www.w3.org/2000/svg">
<path d="M427.081 820.79C422.732 822.36 418.212 823.407 413.615 823.908C412.644 824.219 412.197 823.313 411.283 822.739C409.432 824.256 406.634 823.987 404.601 825.944C401.311 825.662 398.005 826.255 395.018 827.663C393.341 828.358 391.336 826.941 389.939 828.668C386.07 828.698 382.983 831.22 379.316 832.018C377.581 832.743 375.982 833.759 374.588 835.023C371.99 836.813 368.939 837.832 365.786 837.961C364.832 836.668 363.071 836.091 363.163 834.007C363.232 832.461 361.831 832.005 360.529 831.713C359.66 825.546 357.559 819.617 354.35 814.279V810.551C353.82 810.021 353.443 809.688 353.118 809.311C351.566 807.509 351.777 804.931 350.035 803.047C348.403 801.357 347.252 799.261 346.7 796.977C345.86 793.739 344.03 790.844 341.465 788.697C340.854 787.229 341.493 785.641 340.317 784.122C337.841 780.558 336.052 776.565 335.043 772.344C334.611 770.684 333.752 769.166 332.553 767.94C331.033 766.565 331.346 765.026 331.228 763.461C330.793 762.949 330.309 762.482 329.782 762.065C329.255 761.872 328.699 761.768 328.137 761.755C328.474 760.014 328.149 758.21 327.226 756.697C326.138 754.803 325.471 752.697 325.271 750.522C325.254 749.882 325.014 749.269 324.592 748.788C322.028 744.489 320.496 739.653 320.116 734.661C319.949 733.838 319.17 734.111 318.572 733.863C317.723 732.917 319.018 731.114 317.261 730.489C317.71 730.243 318.054 729.843 318.229 729.362C318.405 728.882 318.399 728.353 318.214 727.877C317.607 725.97 316.87 724.109 316.006 722.304C314.619 719.901 314.009 717.128 314.26 714.365C312.718 712.873 313.908 710.549 312.694 709.034C311.804 707.922 312.722 706.762 311.497 704.831C311.637 704.941 310.859 704.329 310.186 703.799C310.605 699.717 309.571 695.617 307.266 692.221C307.472 691.038 307.4 689.824 307.057 688.674C306.714 687.523 306.109 686.467 305.289 685.59V681.509C303.569 680.708 303.437 678.679 302.28 677.391C302.144 676.621 302.568 676.146 303.349 675.644C301.994 670.332 300.297 665.112 298.271 660.019C298.308 659.109 299.968 658.286 299.012 656.298L297.274 654.994C297.274 652.798 297.218 650.968 297.292 649.144C297.413 647.707 297.062 646.27 296.291 645.052C295.507 644.033 295.132 642.758 295.239 641.476C295.333 638.946 294.649 636.446 293.278 634.317C293.992 632.429 295.127 630.745 293.426 628.543C292.566 627.4 292.125 625.996 292.176 624.566C292.885 620.082 292.262 615.49 290.384 611.358C289.617 609.992 290.794 607.797 289.304 606.363C288.991 605.343 289.996 604.955 290.347 604.289C291.21 602.654 288.201 601.805 289.656 600.345C290.592 599.405 288.659 598.214 290.106 597.491C288.704 596.527 289.72 594.957 289.218 593.865C288.535 592.381 290.593 591.452 289.655 590.009C289.053 588.646 288.941 587.117 289.336 585.68C289.58 583.036 287.908 580.769 288.221 578.091C288.589 575.616 288.579 573.098 288.19 570.626C287.394 567.351 286.419 564.123 285.269 560.955C285.547 560.04 286.303 560.265 287.16 560.044C287.088 559.003 286 558.7 285.436 557.776C285.136 556.756 285.1 555.677 285.332 554.639C285.563 553.601 286.054 552.639 286.758 551.843L284.04 550.119L285.237 548.731C283.764 544.225 282.737 539.586 282.173 534.878C280.347 532.573 279.332 529.729 279.283 526.789C278.705 522.503 277.379 518.352 275.365 514.526V509.78C274.112 508.782 273.161 507.457 272.617 505.95C272.074 504.444 271.96 502.816 272.287 501.248C268.563 495.651 266.125 489.299 265.146 482.648C264.228 482.166 263.048 481.981 262.43 480.917C263.953 479.5 261.463 478.259 262.277 476.79C263.141 475.23 261.17 474.23 261.277 472.721C261.395 471.073 261.304 469.409 261.304 467.787C259.442 466.231 259.757 463.709 258.469 461.897C257.701 460.819 259.284 459.177 258.883 458.609C257.846 457.141 258.409 455.711 258.368 454.314C258.331 453.053 257.824 451.683 258.668 450.472C258.841 450.223 259.053 450.001 259.247 449.767C258.102 448.79 257.964 447.294 257.283 446.143C258.378 442.763 258.378 442.763 257.305 439.899L258.144 438.987C257.068 437.042 256.444 434.877 256.321 432.657C255.888 429.1 256.218 425.493 257.289 422.075C257.425 421.811 257.248 421.405 257.317 421.087C257.849 418.635 255.381 417.116 255.359 414.92C255.34 413.003 257.496 411.163 255.579 409.144C255.484 404.194 252.699 399.657 253.319 394.603C253.328 392.458 252.638 390.369 251.354 388.652C250.463 380.989 248.473 373.495 245.444 366.401C245.361 362.124 243.833 358.003 241.107 354.706C240.574 353.946 239.793 353.121 239.757 352.298C239.421 350.433 238.473 348.732 237.061 347.468L238.263 345.886C235.124 343.91 236.638 339.374 233.384 337.064V333.108C231.225 331.053 229.709 328.415 229.019 325.514C228.739 325.109 227.146 325.731 226.944 324.54C226.52 322.032 224.454 320.57 223.38 318.511C222.2 316.248 221.226 314.024 218.512 313.08C217.121 312.596 217.328 310.143 215.358 310.016V308.001C212.976 305.439 210.829 302.666 208.944 299.719C206.52 297.13 205.118 293.75 205 290.206L206.801 286.515C208.851 286.622 210.901 286.311 212.827 285.601C214.658 284.793 216.969 286.322 218.947 284.604C219.611 284.027 221.203 284.448 222.364 284.523C230.422 285.045 238.361 282.752 246.428 283.514C249.529 282.584 252.774 282.232 256.003 282.475C257.381 282.222 258.738 281.863 260.061 281.401C265.395 280.89 270.682 279.962 275.871 278.625C277.059 278.158 277.616 277.248 279.375 276.537C280.424 276.684 281.492 276.62 282.515 276.347C283.539 276.074 284.498 275.599 285.335 274.949C286.329 274.058 288.095 275.167 288.756 273.549C291.844 274.366 293.964 271.602 296.9 271.387C299.48 270.926 301.98 270.092 304.32 268.912C304.771 268.735 305.201 268.434 305.655 268.548C308.064 268.802 310.498 268.403 312.699 267.391C315.517 266.701 318.418 266.415 321.317 266.544C323.719 266.441 326.053 265.716 328.09 264.438V255.175C328.798 254.484 329.358 253.657 329.738 252.743C330.117 251.83 330.307 250.848 330.296 249.859C330.686 243.534 331.681 237.26 333.269 231.126C333.393 230.709 333.892 230.404 334.124 230.148C331.572 226.815 335.719 223.602 333.728 219.809C334.625 219.105 335.558 218.448 336.523 217.841C337.483 217.354 338.474 216.93 339.49 216.575C340.825 215.993 341.353 217.869 343.074 217.474L345.329 214.665C349.666 214.56 353.114 212.585 356.916 212.4C358.424 210.775 360.381 211.637 362.076 211.667C365.254 211.648 368.402 211.042 371.36 209.878C371.791 209.681 372.263 209.59 372.737 209.611C378.448 209.655 384.154 209.264 389.806 208.442C393.771 208.515 397.718 207.886 401.464 206.583C401.946 206.307 402.395 205.978 402.802 205.6C405.078 205.6 407.573 205.464 410.045 205.645C411.892 205.78 413.231 204.383 415.135 204.494C416.084 204.746 417.073 204.809 418.047 204.678C419.02 204.547 419.957 204.226 420.806 203.732C422.006 202.838 424.17 203.976 425.894 202.75C426.457 202.35 428.137 203.154 429.488 202.689C430.799 202.463 432.136 202.433 433.455 202.599C435.538 202.826 437.643 202.495 439.556 201.641C441.761 200.625 444.211 200.265 446.614 200.606C447.77 200.659 448.947 200.794 449.775 199.466C450.794 200.028 451.923 200.362 453.084 200.446C454.245 200.53 455.41 200.361 456.499 199.95C460.676 198.627 465.077 198.158 469.438 198.572C470.78 198.873 472.17 198.888 473.517 198.614C474.865 198.34 476.139 197.783 477.256 196.982C477.635 196.662 478.101 196.462 478.594 196.41C479.087 196.358 479.585 196.456 480.022 196.69C482.237 198.803 484.402 197.091 486.206 196.447C487.706 195.951 489.267 195.666 490.845 195.602C496.501 194.83 502.209 194.499 507.916 194.612C510.452 193.493 513.267 193.159 515.994 193.658C517.799 193.655 519.182 192.32 521.084 192.536C522.592 192.707 524.418 193.284 525.671 191.625C525.731 191.545 525.994 191.591 526.156 191.619C530.433 192.352 534.489 190.09 538.727 190.649C541.227 190.979 543.29 189.314 545.818 189.526C548.213 190.111 550.739 189.81 552.929 188.677C553.499 188.29 554.554 188.619 555.387 188.619C557.052 188.619 559.18 189.261 560.277 188.472C562.057 187.192 563.065 189.01 564.574 188.774C566.369 188.129 568.238 187.714 570.137 187.54C571.086 187.781 572.073 187.832 573.041 187.69C574.01 187.548 574.941 187.216 575.781 186.713C576.524 186.153 578.042 186.622 579.208 186.622C581.023 186.846 582.861 186.805 584.665 186.501C586.146 186.034 587.858 187.071 588.677 186.283C590.161 184.856 592.481 186.683 593.572 184.642C593.646 184.503 594.212 184.576 594.536 184.631C598.755 184.902 602.991 184.497 607.082 183.431C610.925 182.882 614.804 182.626 618.686 182.665C619.669 182.667 620.011 181.826 620.753 181.62C622.66 182.323 624.294 183.376 626.546 181.802C627.301 181.072 628.28 180.619 629.325 180.516C630.369 180.412 631.419 180.665 632.301 181.233C632.847 181.628 634.759 179.894 635.541 180.837C636.865 182.433 637.327 180.31 638.376 180.518C638.999 180.72 639.657 180.785 640.307 180.71C640.956 180.634 641.582 180.419 642.141 180.08C643.526 179.116 645.455 179.63 647.076 178.735C647.721 178.428 648.458 178.375 649.14 178.587C649.823 178.799 650.4 179.259 650.759 179.877C652.337 177.979 655.043 179.32 656.766 177.63C657.876 177.321 658.206 179.151 659.344 178.617C661.397 177.654 663.772 178.027 665.745 177.188C666.772 176.745 667.895 176.567 669.01 176.669C672.394 176.647 675.769 176.324 679.096 175.705C682.417 175.43 685.754 175.431 689.075 175.706C690.411 175.795 691.009 174.698 692.16 174.604C695.028 174.369 697.92 173.927 700.709 173.45C704.934 172.728 709.252 173.359 713.275 172.457C717.611 171.773 722.003 171.513 726.39 171.68C728.652 171.61 730.573 170.159 732.981 170.564C735.102 171.053 737.308 171.037 739.421 170.517C742.4 169.774 745.473 169.478 748.539 169.639C749.472 169.556 750.386 169.325 751.246 168.954C754.21 168.004 757.23 167.234 760.288 166.653C762.202 166.404 764.138 166.893 765.705 168.019C766.274 168.334 766.692 168.865 767.332 168.62C768.632 169.523 766.85 171.593 769.07 171.938C767.013 173.492 768.364 175.502 767.683 177.33L765.883 177.955C765.834 179.541 766.257 181.414 764.589 182.587L765.829 184.159C763.167 186.379 764.586 190.394 762.103 192.902C761.801 193.642 762.933 193.711 762.883 194.328C762.83 198.439 762.035 202.506 760.535 206.334C759.796 207.904 759.626 208.951 760.85 210.135L758.869 212.116C758.832 214.265 759.122 216.407 759.728 218.47C760.15 219.633 760.196 220.9 759.859 222.09C759.523 223.281 758.821 224.336 757.853 225.107C758.124 225.297 758.367 225.523 758.576 225.781C759.309 227.007 758.255 228.74 758.984 229.561C760.325 231.071 758.792 232.081 758.846 233.312C758.9 234.547 759.425 236 758.015 236.941C757.749 242.383 757.796 247.837 758.155 253.273C758.19 253.663 758.702 254.01 758.96 254.336C758.001 256.012 757.083 257.713 758.301 259.346C758.651 259.802 758.881 260.337 758.972 260.904C759.062 261.471 759.01 262.051 758.82 262.592C757.335 266.349 757.361 270.535 758.892 274.274C757.694 276.828 759.565 279.39 758.862 281.928C758.745 282.35 758.237 282.666 757.955 282.979C761.315 287.284 759.899 291.587 758.06 296.286L760.206 297.807C759.553 298.144 759.059 298.725 758.831 299.424C758.604 300.123 758.663 300.884 758.993 301.54C759.977 303.782 760.27 306.266 759.833 308.675C759.902 311.229 760.52 313.739 761.648 316.032C760.846 316.702 760.362 318.414 760.966 318.804C762.872 320.036 760.802 321.437 761.395 322.365C762.22 323.655 761.734 324.915 761.866 326.172C762.01 327.538 761.6 328.997 762.683 330.167C760.834 331.372 762.746 332.34 762.89 333.418C762.87 334.534 763.064 335.645 763.463 336.688C763.983 337.555 764.196 338.572 764.068 339.576C763.941 340.579 763.479 341.511 762.758 342.221C763.676 343.507 764.076 345.091 763.879 346.658C763.47 348.221 764.711 349.364 764.849 350.745C765.012 352.394 764.368 354.327 765.029 355.665C765.733 357.091 765.297 358.824 766.013 359.714C766.385 360.23 766.605 360.839 766.649 361.474C766.693 362.109 766.559 362.743 766.262 363.305C765.521 364.977 765.733 366.069 766.809 366.866C767.035 368.038 766.374 368.372 765.986 368.814C765.594 369.832 766.245 370.365 766.876 370.854C766.896 378.996 766.896 378.995 768.982 383.26C768.202 384.781 766.923 386.503 768.861 388.127C769.032 389.03 768.356 389.355 767.977 389.8C767.595 390.822 768.255 391.349 768.882 391.836C768.67 394.262 769 396.704 769.848 398.986C770.633 400.514 771.037 402.208 771.026 403.925C771.014 405.643 770.587 407.333 769.782 408.849C770.309 410.785 771.389 412.524 772.89 413.854C771.726 417.074 772.187 419.962 774.778 425.752C774.538 426.459 773.484 426.806 773.966 428C775.054 428.133 776.049 428.679 776.748 429.523C777.446 430.368 777.795 431.448 777.722 432.542C777.682 435.841 779.453 438.773 778.902 441.862L780.681 443.642C781.244 452.392 783.223 460.993 786.542 469.109C786.626 469.019 786.407 469.254 786.187 469.489C787.141 473.144 788.506 476.679 790.256 480.026C790.981 481.808 791.092 482.999 789.301 484.313C790.538 485.094 791.522 486.217 792.136 487.544C792.75 488.872 792.966 490.349 792.759 491.797L795.033 493.567C793.777 498.15 797.253 500.763 798.859 504.101C798.859 504.267 798.926 504.482 798.847 504.592C798.563 504.983 798.23 505.339 797.917 505.709C799.88 506.806 798.558 508.921 799.418 510.55C800.933 513.234 802.209 516.047 803.228 518.956C803.634 519.802 803.833 520.733 803.809 521.672C803.702 522.307 803.745 522.96 803.934 523.576C804.124 524.192 804.454 524.755 804.899 525.221C806.655 527.201 804.899 530.09 806.852 531.926C806.24 534.713 808.343 536.637 809.149 538.968C809.595 540.259 810.82 541.267 810.833 542.756C810.846 544.211 812.362 545.195 811.891 546.849C811.494 548.243 813.075 548.659 813.771 549.688V553.526C816.863 556.702 819.09 560.62 820.237 564.902C821.304 565.161 822.245 565.792 822.89 566.681C823.535 567.571 823.843 568.66 823.759 569.755C823.82 571.041 824.35 572.26 825.249 573.18C827.262 575.569 826.686 578.859 828.949 582.509C831.05 584.696 832.379 587.509 832.735 590.521C832.917 591.436 833.311 592.297 833.885 593.033C835.186 594.628 836.113 596.494 836.598 598.494C837.083 600.494 837.114 602.577 836.689 604.59C838.126 605.77 839.21 607.322 839.825 609.076C839.962 609.901 839.175 610.142 838.721 610.837C839.833 612.659 840.515 614.711 840.717 616.836C840.92 618.962 840.636 621.104 839.888 623.104C841.123 625.553 841.77 628.258 841.776 631.002L844.746 633.388C845.165 635.799 842.552 637.754 843.946 639.285C845.477 640.968 843.738 643.379 845.794 644.582C844.301 645.658 844.61 647.292 844.901 648.621C846.092 652.105 846.137 655.877 845.029 659.388C844.901 659.674 844.836 659.985 844.837 660.298C845.56 663.93 843.172 667.31 843.901 670.859C844.231 672.464 842.647 673.121 842.805 674.485L843.936 675.732C841.515 677.214 838.736 678.012 835.898 678.039C833.656 677.992 831.423 678.313 829.286 678.989C827.434 679.76 825.134 678.294 823.176 679.997C822.42 680.655 820.821 679.128 820.255 679.327C815.949 680.837 811.32 680.818 807.029 682.344C804.772 683.473 802.277 684.047 799.754 684.017C797.553 683.727 795.872 685.392 793.658 685.143C792.717 684.864 791.724 684.797 790.753 684.948C789.782 685.099 788.857 685.464 788.044 686.016C787.665 686.346 786.749 686.121 786.089 686.054C783.213 685.698 780.305 686.407 777.914 688.047C777.286 688.477 776.485 689.088 775.849 689.001C772.518 689.017 769.226 689.716 766.177 691.054C765.872 691.134 765.552 691.156 765.215 691.208C764.455 691.889 765.196 692.801 764.814 693.46C766.39 695.552 769.259 695.032 770.833 696.468C770.943 697.331 770.796 697.761 770.312 698.058C769.055 698.635 768.634 696.336 767.017 697.315C767.077 698.255 768.169 698.557 768.867 699.705C768.721 701.944 769.137 704.185 770.077 706.222L767.804 708.74C768.273 710.072 769.192 711.01 768.941 712.486C768.934 713.195 769.086 713.897 769.384 714.54C769.682 715.184 770.12 715.752 770.666 716.205C771.54 717.187 771.814 718.476 772.892 719.662C772.711 721.271 772.893 722.899 773.425 724.428C773.957 725.957 774.825 727.345 775.965 728.494C776.717 729.388 777.275 730.429 777.6 731.551C777.926 732.673 778.014 733.851 777.857 735.009C780.887 739.089 783.656 743.356 786.147 747.786C785.508 749.025 784.547 750.069 783.364 750.806C782.181 751.544 780.822 751.947 779.428 751.976C779.108 751.96 778.788 752.011 778.488 752.125C778.188 752.238 777.916 752.413 777.687 752.637C776.404 753.813 775.145 755.546 773.646 755.827C771.512 756.227 770.512 758.314 768.132 758.46C766.358 758.907 764.638 759.55 763.006 760.378C757.616 762.222 752.482 764.723 747.054 766.513C745.444 767.044 743.309 766.004 742.176 767.973C738.096 767.515 734.544 770.132 730.515 769.971C729.834 771.619 728.275 769.697 727.14 770.851C726.492 771.51 724.627 770.97 723.42 770.97L721.492 772.898C721.029 772.951 720.563 772.971 720.097 772.958C716.913 772.876 713.746 773.439 710.787 774.614C710.495 774.707 710.195 774.987 709.937 774.944C705.49 774.206 701.291 776.588 696.963 775.915C694.88 776.862 693.123 778.336 690.689 777.999C690.137 777.815 689.544 777.793 688.98 777.935C688.417 778.077 687.905 778.376 687.506 778.799C687.226 779.141 686.255 778.874 685.614 778.97C684.045 779.207 682.776 776.695 681.196 778.301C679.936 779.582 678.147 778.211 677.133 779.351C675.865 780.778 674.024 779.291 672.586 780.623C671.986 781.071 671.235 781.266 670.493 781.169C669.75 781.071 669.075 780.689 668.611 780.102C667.69 780.893 666.202 780.707 665.578 781.977L664.624 781.142C663.44 782.291 661.858 781.81 660.367 781.987C659.366 782.105 658.981 781.279 658.386 780.994C657.504 780.796 657.062 781.75 656.634 781.733C653.381 781.604 650.392 783.552 647.122 782.938C644.939 782.528 643.218 784.149 641.034 784.052C639.206 783.971 637.089 783.081 635.407 784.907C635.101 785.238 634.112 785.042 633.462 784.939C629.349 784.29 625.483 786.504 621.385 785.953C619.497 786.863 617.388 787.217 615.306 786.972C613.27 787.089 611.299 787.73 609.583 788.832C609.128 789.026 608.621 789.062 608.143 788.935C604.188 788.225 600.504 790.548 596.566 789.948C595.857 789.84 595.361 790.428 594.83 790.549C593.204 790.917 591.652 791.989 589.773 791.028C589.312 790.877 588.823 790.831 588.343 790.895C587.862 790.959 587.401 791.131 586.996 791.397C583.815 793.172 580.211 794.05 576.57 793.937C575.405 793.901 574.222 794.777 573.492 794.754C571.593 794.695 570.347 796.397 568.39 796.025C566.93 795.986 565.47 796.102 564.035 796.373C563.815 796.381 563.501 795.916 563.341 796.171C562.259 797.902 560.044 796.023 558.917 797.575C558.81 797.702 558.693 797.821 558.567 797.93C558.031 797.315 557.287 796.919 556.477 796.817C555.667 796.715 554.848 796.916 554.176 797.38C551.508 798.84 548.329 798.364 545.69 799.816C543.77 797.699 542.03 800.426 540.054 800.031C538.061 799.632 536.231 801.323 533.979 801.044C532.203 801.124 530.443 801.418 528.738 801.921C524.178 802.54 519.778 803.935 515.088 804.122C512.611 804.291 510.189 804.931 507.951 806.006C505.096 806.862 502.162 807.427 499.193 807.692C496.287 808.824 493.298 809.728 490.252 810.397C487.473 810.663 484.828 812.349 481.935 811.866C480.146 811.567 478.885 812.671 477.364 813.013C473.788 813.34 470.284 814.222 466.979 815.627C466.559 815.862 466.076 815.961 465.598 815.911C460.761 815.745 456.303 818.038 451.499 818.065C450.487 819.929 449.678 817.104 448.784 817.934C448.458 818.291 448.053 818.567 447.602 818.741C447.151 818.914 446.666 818.981 446.184 818.934C443.788 818.869 441.395 819.165 439.087 819.813C436.945 820.211 434.852 820.835 432.843 821.678C431.874 821.945 430.86 822.005 429.867 821.852C428.873 821.699 427.924 821.337 427.081 820.79V820.79ZM762.733 428.01C760.514 423.96 759.207 419.475 758.905 414.867C758.957 412.47 758.644 410.078 757.973 407.775C756.63 403.526 755.897 399.108 755.797 394.653C755.721 393.141 756.926 392.362 756.914 391.042C754.341 388.112 755.58 384.068 753.874 380.948C754.367 380.368 755.044 380.043 754.89 379.225C753.269 378.117 754.475 375.906 753.091 374.7C754.225 374.014 753.723 372.914 753.918 371.994C754.445 369.519 752.012 368.059 751.819 365.81C753.094 363.204 753.316 360.208 752.437 357.443C751.52 355.44 750.985 353.284 750.859 351.085C751.344 348.708 750.966 346.237 749.793 344.114L751.09 342.719C749.321 340.978 750.541 338.191 748.813 336.458C750.495 332.737 750.304 330.694 747.832 325.368C748.445 324.852 748.867 324.146 749.032 323.362C749.196 322.579 749.094 321.763 748.741 321.044C747.96 319.614 747.676 317.965 747.935 316.357C747.818 313.543 747.902 310.721 747.902 307.988L745.868 305.954C745.491 302.3 745.849 298.607 746.92 295.093C746.596 294.746 745.995 294.405 745.971 294.029C746.323 286.663 745.966 279.28 744.904 271.983C745.512 270.883 745.837 269.651 745.852 268.395C745.867 267.139 745.571 265.899 744.99 264.786C744.753 264.168 744.644 263.508 744.669 262.847C744.695 262.186 744.855 261.537 745.14 260.939C747.218 257.527 744.322 255.007 744.259 251.681L745.972 248.534C745.304 247.593 744.921 246.48 744.868 245.328C745.19 243.187 745.155 241.008 744.766 238.879C744.395 237.497 744.469 236.032 744.976 234.694C745.602 232.721 746.8 230.943 744.952 228.963C744.798 228.673 744.721 228.347 744.73 228.018C744.738 227.69 744.831 227.369 744.999 227.087C746.486 225.884 745.921 224.308 745.86 222.93C746.486 218.599 746.839 214.232 746.917 209.856C746.864 209.54 746.924 209.217 747.084 208.94C748.713 206.525 747.849 203.819 747.819 201.285C747.654 200.125 747.761 198.942 748.132 197.83C748.503 196.719 749.128 195.71 749.958 194.882V186.052C752.757 183.934 752.218 180.456 753.702 177.779C752.722 177.646 751.723 177.75 750.792 178.084C749.09 178.744 747.009 180.475 745.537 179.479C743.569 178.148 742.315 178.907 740.77 179.634C739.008 180.411 737.104 180.814 735.178 180.816C733.253 180.818 731.347 180.42 729.583 179.648C729.08 179.964 728.503 180.642 728.031 180.575C723.745 179.972 719.668 181.803 715.451 181.589C713.303 181.479 711.608 183.051 709.357 182.704C707.044 182.383 704.698 182.38 702.385 182.697C700.603 183.086 698.863 183.646 697.19 184.371C697.042 184.223 696.828 183.815 696.567 183.783C695.616 183.525 694.617 183.49 693.65 183.683C690.705 184.579 687.615 184.898 684.55 184.625C684.217 184.629 683.754 184.481 683.57 184.647C681.574 186.448 679.156 185.58 676.972 185.543C674.504 185.5 672.451 187.09 669.882 186.685C664.998 185.915 660.246 188.29 655.32 187.625C655.156 187.603 654.915 187.549 654.831 187.632C652.806 189.636 649.993 188.421 647.568 189.404C644.812 190.053 641.948 190.109 639.168 189.566C637.593 189.593 636.049 190.005 634.669 190.766C633.816 189.482 632.239 189.077 631.584 189.708C629.953 191.278 627.806 189.826 626.518 190.778C624.962 191.708 623.103 191.988 621.342 191.558C615.802 191.572 610.267 191.909 604.766 192.569C603.282 192.646 602.343 194.004 600.67 193.707C599.36 193.474 597.658 192.974 596.582 194.56C593.896 194.265 591.031 195.493 588.406 193.719C588.013 194.155 587.51 194.479 586.95 194.656C582.32 195.856 577.566 196.517 572.784 196.628C571.325 196.39 569.831 196.48 568.411 196.891C566.147 197.761 563.668 197.9 561.321 197.288C560.852 197.166 560.366 197.125 559.883 197.166C556.477 198.061 552.979 198.561 549.459 198.655C546.815 198.426 544.126 198.746 541.473 198.574C538.757 198.778 536.062 199.2 533.414 199.837C531.248 200.308 529.038 200.543 526.822 200.539C524.447 200.24 522.527 201.886 520.233 201.612C514.652 200.944 509.246 203.258 503.663 202.61C503.334 202.572 502.834 202.462 502.689 202.627C501.068 204.479 498.917 203.621 497.09 203.506C495.043 203.378 493.53 204.907 491.499 204.636C486.262 203.938 481.189 206.291 475.932 205.607C475.604 205.565 475.136 205.459 474.954 205.624C474.162 206.208 473.241 206.592 472.269 206.745C471.297 206.898 470.303 206.816 469.37 206.503C467.233 206.124 465.762 207.669 463.772 207.67C460.05 207.229 456.278 207.517 452.666 208.52C451.067 209.153 448.912 207.984 447.382 208.99C445.909 209.722 444.224 209.912 442.625 209.524C440.902 209.717 439.199 210.052 437.533 210.527C434.883 210.833 432.207 210.83 429.558 210.519C426.848 210.153 424.578 211.944 421.97 211.589C419.612 211.412 417.274 212.127 415.42 213.593H402.315C401.483 213.593 400.334 213.238 399.87 213.652C397.314 215.374 394.206 216.079 391.156 215.628C390.101 215.671 389.061 217.345 388.127 216.526C385.693 214.391 383.644 216.62 381.519 216.959C380.634 217.224 379.734 217.434 378.823 217.587C375.447 217.749 372.099 217.935 368.718 218.361C364.217 219.539 359.543 219.909 354.913 219.455C351.105 222.913 346.609 220.994 342.57 221.742C341.93 222.262 342.552 223.126 342.207 223.575C340.299 226.602 339.613 230.24 340.286 233.754C340.134 235.928 339.363 238.013 338.065 239.762C338.414 245.187 338.104 250.633 337.143 255.983C337.077 257.893 335.405 259.737 337.206 261.684C337.314 261.902 337.363 262.144 337.35 262.387C337.337 262.63 337.261 262.866 337.131 263.072C335.936 263.927 336.253 265.12 336.25 266.232C336.235 272.891 336.355 279.551 336.156 286.204C336.112 287.686 337.154 288.526 337.258 289.766C336.374 290.99 335.463 292.083 336.818 293.647C337.822 294.804 337.413 296.053 336.268 297.027C336.503 297.262 336.943 297.496 336.944 297.732C337.606 301.355 338.035 305.016 338.228 308.693C338.082 311.108 338.832 313.492 340.335 315.387C339.772 317.196 341.174 319.36 339.266 320.949C339.59 321.307 340.235 321.715 340.188 322.013C339.821 324.341 341.514 326.577 341.06 328.558C340.512 330.951 341.797 332.993 341.303 335.276C341.076 336.315 341.14 337.394 341.487 338.399C341.834 339.404 342.45 340.294 343.269 340.971C342.878 343.519 343.231 346.125 344.285 348.477C345.973 352.126 346.649 356.161 346.242 360.16C346.262 360.475 346.314 360.787 346.396 361.092C347.163 362.036 347.722 363.132 348.037 364.307C348.352 365.483 348.415 366.712 348.223 367.913C348.986 368.676 349.74 369.073 349.883 369.628C351.085 374.307 352.176 379.015 353.434 384.273C358.028 386.676 357.251 391.489 357.219 395.944C359.143 397.237 359.375 399.707 361.225 400.839V403.813C362.242 405.037 362.952 406.486 363.296 408.04C363.891 410.422 365.582 412.49 365.467 415.119C368.021 416.746 367.714 419.729 368.047 421.995C369.047 426.867 370.464 431.644 372.281 436.274C372.877 437.561 373.195 438.958 373.214 440.377C373.162 443.228 373.728 446.056 374.871 448.669C375.724 450.544 376.22 452.562 376.333 454.62C376.356 456.647 376.899 458.635 377.91 460.392C378.871 462.139 379.325 464.12 379.222 466.111C381.031 469.144 382.062 472.577 382.224 476.105C382.034 477.066 382.122 478.061 382.476 478.974C384.414 481.885 385.383 485.334 385.243 488.829C387.03 491.811 387.722 495.323 387.199 498.76C388.018 499.723 388.619 500.851 388.962 502.067C389.305 503.283 389.381 504.559 389.185 505.807C390.346 506.745 391.235 507.977 391.759 509.374C392.284 510.772 392.425 512.284 392.168 513.754C393.447 514.847 393.602 516.326 394.268 517.569L393.25 518.738L394.193 519.777V524.804C396.603 526.61 396.148 529.326 396.193 531.741L398.132 533.68C397.838 534.012 397.242 534.591 397.288 534.648C399.07 536.838 397.812 539.395 398.188 541.739C398.366 542.848 397.86 544.006 398.54 545.091C399.96 547.613 400.541 550.522 400.202 553.397C400.046 554.202 400.101 555.034 400.363 555.812C401.392 558.441 402.073 561.192 402.39 563.997C402.925 566.867 403.208 569.778 403.236 572.697L405.185 574.744C405.391 575.908 405.363 577.101 405.102 578.254C404.285 579.925 403.579 581.486 404.701 583.152C405.718 584.663 404.617 586.632 406.128 588.096C406.612 588.634 406.96 589.28 407.144 589.98C407.327 590.68 407.34 591.414 407.182 592.12C407.042 592.939 407.859 593.154 408.147 593.693C406.72 595.009 407.128 596.48 407.579 598.115C408.711 600.738 409.243 603.582 409.136 606.437C408.864 608.036 409.887 609.331 409.655 610.997C409.47 612.327 410.88 613.803 411.113 615.287C411.27 617.111 411.294 618.943 411.184 620.77C411.191 621.756 410.842 623.141 411.351 623.648C411.818 624.12 412.135 624.72 412.264 625.372C412.392 626.023 412.326 626.698 412.073 627.313C411.658 628.554 413.848 629.191 412.345 630.638C411.393 631.554 413.289 632.686 413.263 634.098C412.711 637.644 413.024 641.271 414.177 644.67C413.51 650.411 415.944 655.952 415.183 661.185L417.309 665.312C415.601 666.457 417.166 667.537 417.248 668.563C417.254 669.884 416.847 671.174 416.084 672.253C416.356 672.601 416.829 672.936 416.9 673.342C417.693 677.852 418.454 682.368 419.154 686.893C419.353 688.174 418.833 689.898 419.503 690.705C420.87 692.352 418.828 693.136 418.946 694.571C419.122 696.694 420.388 698.483 420.199 700.632C420.242 704.467 420.741 708.283 421.686 712C421.873 713.255 420.48 714.253 421.202 715.348C423.006 718.085 421.785 721.092 422.174 723.943C422.205 724.174 422.157 724.407 422.037 724.606C421.918 724.805 421.735 724.959 421.518 725.041C422.071 728.708 422.317 732.415 422.252 736.124C424.277 738.416 426.01 735.175 427.745 736.933C427.765 736.953 428.409 736.096 428.806 736.052C431.178 735.786 433.414 734.959 435.877 734.888C438.567 734.778 441.237 734.37 443.838 733.675C447.168 732.62 450.63 732.044 454.122 731.965C455.561 732.079 457.007 731.909 458.38 731.464C461.791 730.326 465.306 729.527 468.873 729.079C471.713 728.657 474.724 729.568 477.442 728.022C482.938 728.248 488.032 725.387 493.603 725.98C495.677 726.2 497.026 724.037 499.258 723.918C501.567 723.794 503.413 726.078 505.815 724.821C506.529 724.257 506.974 723.279 507.902 723.054C510.824 722.957 513.737 722.687 516.627 722.242C519.616 721.775 522.552 721.015 525.392 719.975C526.248 720.717 527.309 721.182 528.435 721.308C529.56 721.434 530.698 721.215 531.696 720.68C533.182 720.26 534.645 719.762 536.079 719.192C537.83 718.62 539.713 718.592 541.479 719.112C543.315 719.497 544.349 717.836 546.082 717.979C551.034 718.05 555.967 717.347 560.702 715.894C563.037 715.363 565.42 715.074 567.814 715.036C569.735 715.2 571.668 714.884 573.436 714.114C574.159 713.606 574.978 713.251 575.844 713.069C576.709 712.888 577.602 712.885 578.469 713.06C580.394 713.669 581.619 711.529 583.567 711.996C586.112 712.272 588.682 711.768 590.934 710.551C591.478 710.239 592.091 710.065 592.719 710.048C598.13 710.717 603.318 708.418 608.497 709.063L610.775 706.785C613.232 708.45 615.382 705.494 618.04 706.037C620.83 706.606 623.318 704.526 626.116 705.048C628.122 702.854 631.309 705.281 633.344 703.201C636.849 703.138 640.105 701.332 643.448 701.226C647.253 700.42 651.132 700.023 655.02 700.041C655.503 700.177 656.015 700.161 656.489 699.997C659.364 698.408 662.706 699.098 665.678 698.052C668.811 696.951 672.262 697.409 675.342 696.059C677.265 695.259 679.343 694.903 681.423 695.018C683.667 695.196 685.925 694.937 688.071 694.256C689.466 693.525 691.008 693.119 692.582 693.067C694.963 692.972 697.333 692.687 699.669 692.215C702.228 692.147 704.765 691.729 707.21 690.973C709.85 690.257 712.584 689.946 715.318 690.048C716.111 690.025 716.926 690.305 717.709 689.8C719.765 688.476 722.412 689.39 724.481 688.067C729.287 689.126 733.503 686.351 738.118 685.866C741.984 685.46 745.832 684.209 749.801 684.1C751.565 683.863 753.232 683.154 754.627 682.048H762.414L764.262 680.201C765.696 680.193 767.128 680.081 768.546 679.866C770.706 679.659 772.8 679.008 774.698 677.956C776.854 676.308 779.682 678.238 781.456 676.08C784.003 676.257 786.68 675.445 788.956 677.132C789.832 676.96 790.133 675.906 791.12 676.066C793.85 676.233 796.587 675.894 799.193 675.065C802.116 674.578 805.004 673.891 807.834 673.01C810.159 672.116 812.548 671.4 814.982 670.866C817.688 670.34 820.491 669.869 823.199 669.129C825.82 668.189 828.616 667.842 831.387 668.11L832.897 666.409C832.127 665.145 831.719 663.694 831.717 662.214C831.716 660.733 832.121 659.281 832.889 658.016C832.23 657.41 831.784 656.606 831.618 655.726C831.452 654.845 831.575 653.936 831.969 653.132C834.089 650.028 831.505 647.723 831.185 645.107C831.034 643.867 831.141 642.192 829.832 641.208C830.563 636.933 828.388 632.89 828.833 628.638C827.9 627.581 827.23 626.318 826.879 624.953C826.403 623.819 828.383 622.527 826.835 621.304C826.966 617.939 826.526 614.575 825.535 611.356C824.99 610.576 823.87 610.222 823.824 608.931L824.633 607.653L822.882 604.389C823.126 601.829 822.791 599.247 821.902 596.834C821.013 594.421 819.592 592.24 817.745 590.451V585.599C815.696 583.765 815.075 580.982 812.695 579.675C812.909 578.787 812.922 577.862 812.733 576.968C812.544 576.075 812.157 575.235 811.601 574.51C809.215 570.364 807.052 566.093 805.122 561.717C804.469 559.669 803.633 557.685 802.623 555.788C801.613 554.402 800.863 552.845 800.407 551.192C799.984 548.9 799.093 546.719 797.791 544.786C797.218 543.91 796.636 543.173 796.881 542.164C797.341 540.27 795.385 539.792 794.865 538.491C795.426 532.184 790.443 527.587 789.601 521.653C789.482 520.849 789.169 520.085 788.69 519.428C788.21 518.771 787.577 518.241 786.847 517.884C787.188 517.646 787.466 517.33 787.658 516.961C787.849 516.592 787.949 516.184 787.947 515.768C787.946 515.353 787.844 514.943 787.65 514.576C787.455 514.208 787.175 513.894 786.832 513.659C785.835 511.805 785.489 509.67 785.846 507.596L783.862 506.163V501.395L781.78 499.81C782.611 495.286 778.859 491.831 779.948 487.571L776.646 484.643C776.975 483.814 777.055 482.908 776.874 482.034C776.694 481.161 776.262 480.359 775.632 479.728C774.301 478.023 775.424 476.198 774.59 474.424C772.296 473.574 773.307 470.78 771.874 469.257C772.366 468.622 772.703 467.882 772.861 467.095C773.019 466.308 772.993 465.496 772.784 464.721L770.867 462.803C771.101 461.571 771.046 460.303 770.706 459.096C770.366 457.889 769.75 456.777 768.907 455.849C768.917 451.353 767.502 446.971 764.865 443.331C764.954 438.362 763.909 433.438 761.81 428.934L762.733 428.01Z" fill="#212222"/>
<path d="M980.302 223.724L981.445 224.658C982.678 223.904 984.18 223.771 985.212 222.564C988.063 222.84 990.929 222.204 993.394 220.745C995.7 219.869 998.064 219.158 1000.47 218.615C1002.61 217.73 1004.53 216.034 1007.13 216.555C1007.32 216.593 1007.58 216.092 1007.85 215.936C1010.5 214.027 1013.38 212.455 1016.41 211.253C1017.96 210.82 1018.12 208.69 1019.18 207.447C1022.58 203.924 1025.34 199.844 1027.35 195.385C1027.92 193.913 1027.77 192.128 1029.54 191.368C1029.84 188.066 1030.51 184.809 1031.54 181.658C1032.38 178.446 1031.03 174.848 1032.56 171.149C1032.1 170.337 1031.77 169.458 1031.57 168.544C1031.47 167.086 1032.8 166.351 1032.73 164.953C1032.67 163.75 1030.9 163.067 1031.71 161.905C1033 160.07 1031.31 158.47 1031.6 156.699C1031.81 154.878 1031.82 153.041 1031.64 151.218C1031.6 150.849 1031.66 150.475 1031.81 150.139C1031.97 149.802 1032.22 149.515 1032.53 149.311C1029.71 143.203 1031.4 136.531 1029.18 129.891C1027.49 129.099 1027.48 126.612 1026.75 124.624C1025.61 120.685 1023.51 117.09 1020.65 114.157C1017.84 110.968 1014.65 108.127 1011.16 105.697C1003.75 100.877 996.054 96.4981 988.124 92.5825C984.134 90.9689 980.447 88.5864 976.428 87.0637C973.047 85.5069 969.481 84.3866 965.817 83.7288C965.507 83.7013 965.208 83.6023 964.942 83.4407C960.306 80.9726 955.377 79.098 950.273 77.8608C946.929 76.6843 943.391 76.1715 940.015 74.8958C937.551 74.2623 935.017 73.9434 932.474 73.9473C926.89 73.4165 921.41 72.2061 915.869 71.5107C910.296 70.8114 904.797 70.9877 899.268 70.7942C898.521 70.734 897.825 70.3937 897.32 69.8408C893.133 70.9068 888.843 71.5171 884.525 71.6609C880.159 71.7501 876.082 73.4193 871.862 73.6042C867.493 73.7957 863.659 76.4078 859.48 75.7234C858.236 76.831 856.695 77.5487 855.047 77.7888C851.622 78.1126 848.978 81.1376 845.303 80.7588C841.469 83.7377 836.903 85.4812 832.873 88.1465C827.08 91.9775 821.759 96.4543 815.934 100.25C813.673 101.723 812.207 104.337 809.581 105.455C809.012 105.631 808.424 105.738 807.829 105.773C807.098 105.537 806.489 105.022 806.136 104.339C805.783 103.657 805.713 102.862 805.943 102.128C807.617 100.804 809.104 99.2575 810.363 97.5325C811.577 95.7368 813.207 94.2603 815.114 93.2283C817.052 91.9334 818.379 90.0334 820.282 88.8936C822.25 87.4902 824.117 85.9482 825.866 84.2793C827.619 82.9788 829.5 81.8612 831.481 80.9443C833.255 79.6967 835.146 78.6244 837.128 77.7424C837.797 75.2444 840.992 76.0965 842.093 73.885H846.183L848.126 71.9429C849.401 71.2936 851.159 72.4967 852.182 70.8845C855.347 70.7245 857.865 67.8018 861.289 68.7532C863.619 66.5978 866.899 67.1708 869.598 65.8821C871.333 65.0538 873.622 66.0214 875.674 64.8555C877.247 63.9615 879.612 65.6746 881.225 63.8252C883.13 65.9863 884.893 63.295 886.886 63.6201C887.895 63.9741 888.969 64.102 890.033 63.9949C891.097 63.8877 892.124 63.5481 893.042 63C894.406 63.7567 895.988 64.0226 897.524 63.752C903.518 63.7708 909.512 63.7856 915.506 63.7483C918.406 64.0839 921.265 64.706 924.042 65.605C924.808 65.2261 926.355 63.9017 927.14 64.8506C928.575 66.5854 930.864 64.7531 932.015 66.5205C933.44 65.4144 934.699 66.8431 936.085 66.8464C937.802 66.9991 939.493 67.3635 941.12 67.9304C943.453 68.4865 945.844 68.7651 948.242 68.7605L950.124 70.6404C954.577 71.1551 958.952 72.2049 963.154 73.7678C963.75 73.8999 963.911 74.7918 964.743 74.7627C968.784 75.1532 972.68 76.4669 976.133 78.6018C981.214 80.7978 986.394 82.7761 991.598 84.6663C992.466 84.9332 993.289 85.3294 994.038 85.8418C995.979 87.9718 998.756 88.2968 1001.05 89.593C1005.08 91.5844 1008.96 93.8637 1012.67 96.4131C1015.56 98.6631 1019.06 99.6951 1021.84 102.213C1027.52 107.197 1032.22 113.196 1035.71 119.903C1036.14 121.264 1036.91 122.492 1037.94 123.472C1039.65 124.662 1037.6 127.195 1039.66 128.255C1039.11 130.227 1040.69 131.179 1041.58 132.062C1041.68 132.673 1041.65 133.298 1041.49 133.895C1041.33 134.492 1041.04 135.047 1040.64 135.522C1040.97 136.702 1042.06 137.607 1041.72 139.097C1041.53 140.049 1041.7 141.038 1042.21 141.864C1043.31 143.832 1044.85 145.967 1042.72 148.382C1042.52 148.752 1042.42 149.165 1042.42 149.584C1042.42 150.004 1042.52 150.417 1042.72 150.787C1044.25 153.051 1043.39 155.533 1043.67 157.901C1043.84 159.298 1042.99 160.923 1044.54 162.032C1043.42 163.003 1043.63 164.323 1043.68 165.563C1043.71 166.391 1043.02 166.637 1042.67 167.15C1044.04 167.752 1043.16 169.781 1044.87 170.083C1042.91 173.009 1043.94 176.026 1043.57 179.311L1041.59 180.722C1041.97 182.773 1040.86 184.724 1042.49 186.027C1040.85 190.267 1039.84 194.723 1039.5 199.255C1037.66 200.118 1037.37 202.986 1034.95 203.859C1034.78 203.923 1034.69 204.416 1034.68 204.714C1034.56 205.831 1034.21 206.91 1033.64 207.879C1033.07 208.848 1032.31 209.683 1031.39 210.33C1030.45 211.143 1030.73 212.099 1030.67 213.095C1027.48 214.436 1024.54 216.315 1021.99 218.651C1019.68 221.219 1015.88 221.843 1013.41 224.357C1008.81 225.658 1004.34 227.342 1000.03 229.39C997.728 230.081 994.909 229.72 992.528 230.631C989.761 231.546 986.828 231.851 983.932 231.523C981.755 231.599 979.648 232.313 977.873 233.576C976.263 234.091 973.917 232.534 972.12 234.643C970.275 234.266 968.516 232.414 966.373 234.294C965.791 234.805 964.492 234.541 963.521 234.56C961.857 234.593 960.19 234.606 958.527 234.558C957.141 234.546 955.756 234.622 954.38 234.785C952.192 234.808 950.027 235.235 947.994 236.044C946.825 236.661 945.394 235.928 944.416 237.24C943.993 237.807 942.894 235.686 941.706 237.044C940.707 238.186 939.199 237.32 937.947 237.568C936.864 237.782 935.764 237.23 934.656 238.095C931.335 240.689 926.643 241.026 924.268 244.559H922.054C919.897 249.849 916.381 254.476 911.862 257.972C911.504 260.166 910.767 262.282 909.684 264.223C908.097 266.904 907.113 269.899 906.804 272.999C906.657 275.988 906.772 278.989 906.772 282.303L904.918 283.762C904.439 285.168 905.555 285.488 905.778 286.221C904.455 289.971 903.778 293.918 903.775 297.894C902.599 299.035 901.163 299.871 899.59 300.33C898.018 300.79 896.357 300.859 894.752 300.531C892.1 300.348 889.424 300.43 886.763 300.511C881.22 300.332 875.727 299.413 870.428 297.778C864.227 296.425 858.2 294.371 852.465 291.654C849.315 291.953 846.868 289.865 844.019 289.105C841.386 288.232 838.835 287.13 836.395 285.811C834.837 285.082 832.775 285.05 831.061 284.24C830.301 282.896 830.205 281.21 828.942 280.125C829.241 279.612 829.735 279.122 829.803 278.58C830.136 275.888 829.122 273.045 830.817 270.498C831.295 269.78 828.956 269.17 830.617 268.25C830.78 265.555 831.911 263.009 833.803 261.082C835.163 259.12 835.241 256.101 838.325 255.546C840.925 250.016 846.918 246.661 848.028 240.051C848.357 238.366 849.166 236.813 850.359 235.579C851.692 234.233 852.642 232.554 853.109 230.717C854.794 226.073 857.64 221.938 861.375 218.706C864.705 215.318 868.619 212.559 872.929 210.562C874.612 209.774 876.001 208.168 877.729 207.72C879.325 207.142 880.888 206.476 882.41 205.725C883.496 205.158 884.496 204.442 885.38 203.594C887.965 203.666 890.533 203.148 892.889 202.082C896.55 200.623 900.421 199.76 904.355 199.526C906.866 199.4 909.345 198.904 911.711 198.054C912.88 197.671 913.726 199.764 914.911 198.055C915.799 196.774 917.766 198.34 918.942 196.984C919.787 196.011 921.372 197.02 922.485 195.727C923.049 195.073 924.999 195.614 925.258 195.614C930.677 194.451 935.675 191.83 939.713 188.033C940.08 186.453 938.919 184.486 940.657 183.151C939.296 180.884 938.159 178.489 937.263 176C936.438 173.136 934.954 170.505 932.929 168.317C931.936 167.115 931.181 165.735 930.704 164.25C929.421 160.673 926.792 157.737 923.378 156.069C920.302 155.031 917.505 153.382 914.347 152.448C909.823 150.932 905.465 148.958 901.342 146.557C898.149 144.837 894.684 144.118 891.439 142.696C888.466 140.961 885.136 139.928 881.703 139.675C878.515 137.263 874.34 138.443 870.938 136.715C869.811 136.142 868.896 137.33 867.852 137.69C866.614 137.15 865.536 136.051 863.927 137.015C861.771 138.341 859.243 138.931 856.723 138.696L850.954 141.669C847.443 141.559 843.974 142.454 840.954 144.249C838.158 145.386 835.209 145.593 832.525 146.885C831.39 147.817 829.698 148.495 829.733 150.509C827.827 150.633 825.997 151.302 824.46 152.436C821.979 153.606 819.845 151.63 817.42 151.634C815.964 150.766 815.306 148.719 813.016 148.552C813.08 146.849 812.509 145.184 811.414 143.878C809.098 141.107 807.529 137.789 806.854 134.241C806.229 131.852 804.768 129.573 806.769 127.012C807.335 126.289 806.875 124.748 806.849 123.583C806.75 123.126 806.806 122.65 807.01 122.229C807.213 121.807 807.551 121.465 807.971 121.258C806.513 120.092 805.44 118.513 804.89 116.729C804.455 115.596 806.931 115.589 805.671 114.274C809.453 112.546 809.886 112.492 812.846 113.714C814.386 114.535 815.596 115.861 816.271 117.47C816.718 118.323 816.912 119.285 816.83 120.244C816.879 123.072 816.914 125.905 816.815 128.731C816.79 129.21 816.869 129.69 817.048 130.135C817.226 130.58 817.5 130.981 817.849 131.309C816.35 135.154 817.34 137.67 822.298 142.626C830.256 138.497 838.728 135.446 847.491 133.553C849.622 132.985 851.663 131.536 853.941 131.103C856.335 130.283 858.83 129.798 861.356 129.659C862.318 129.797 863.296 129.576 864.106 129.04C864.809 128.629 865.63 128.471 866.435 128.591C867.24 128.71 867.98 129.101 868.533 129.698C869.964 129.506 871.253 127.521 872.854 129.262C873.408 129.865 874.061 129.676 874.684 129.674C876.597 129.617 878.502 129.937 880.291 130.617C883.743 131.984 887.605 132.025 891.026 133.648C891.554 133.898 892.265 133.606 892.81 134.18C895.174 136.281 898.184 137.512 901.343 137.672C901.664 137.723 902.216 137.594 902.29 137.739C903.636 140.375 906.682 139.198 908.634 140.617C910.615 142.057 913.253 142.177 915.398 143.587C917.457 144.621 919.59 145.499 921.779 146.217C925.005 148.033 928.329 149.669 931.736 151.118C934.96 152.179 936.017 155.188 937.658 157.609C938.097 158.257 938.475 159.455 938.875 160.043C940.31 162.151 943.235 163.556 943.501 166.097C943.772 168.684 946.335 169.972 946.218 172.548C946.198 172.997 947.09 173.487 947.737 174.134V177.131L949.698 179.091C950.128 183.148 947.667 186.994 948.929 190.939C946.569 193.146 945.727 196.557 942.435 197.391C939.566 198.118 937.472 200.758 934.274 200.606C931.436 203.58 927.345 202.177 923.991 203.514C921.621 204.553 919.015 204.934 916.447 204.619C914.664 204.342 913.836 206.278 911.796 206.135L911.281 205.657C910.189 205.28 909.817 206.518 909.111 206.552C906.62 206.673 904.119 206.6 901.099 206.6L900.009 208.394C895.553 208.515 891.217 209.866 887.481 212.298C885.41 213.642 883.187 214.738 880.859 215.561C877.314 217.568 873.901 219.8 870.641 222.244C870.023 224.646 867.813 225.46 866.108 226.772C864.261 228.194 864.433 230.89 862.583 232.308C862.321 232.509 861.896 232.781 861.904 233.007C861.768 234.769 861.258 236.482 860.407 238.031C859.556 239.579 858.384 240.928 856.97 241.987C856.621 242.354 856.827 243.246 856.741 244.356L853.964 246.585C853.791 247.023 853.783 247.51 853.944 247.952C854.105 248.395 854.422 248.764 854.836 248.989C852.588 252.526 849.87 255.743 846.756 258.548C846.041 259.078 845.486 259.793 845.149 260.616C844.812 261.439 844.706 262.339 844.844 263.217C841.613 263.318 840.967 266.446 840.062 268.43C839.157 270.411 838.983 272.91 838.056 274.992L840.165 279.284C845.788 281.095 851.316 283.189 856.729 285.557C862.554 287.865 868.504 289.846 874.55 291.489C876.048 291.373 877.545 291.73 878.832 292.507C879.878 292.232 880.656 291.128 882.305 291.625L884.68 293.756C887.864 291.529 891.249 292.748 894.727 293.627C893.769 289.999 893.511 288.989 894.911 286.152C895.499 285.029 895.795 283.775 895.772 282.508C895.948 279.357 896.534 276.243 897.515 273.244C897.856 271.98 897.925 270.66 897.717 269.367C897.425 267.869 898.794 267.17 898.878 265.778C899.393 262.41 900.403 259.137 901.877 256.065C902.466 254.384 903.536 252.913 904.953 251.834C905.751 251.255 906.751 250.564 907.025 249.718C908.291 245.809 911.923 244.108 914.434 241.375C914.969 240.795 915.44 240.159 915.842 239.479C916.853 237.762 918.207 236.272 919.82 235.101C921.433 233.93 923.27 233.103 925.217 232.674C926.551 232.358 927.039 231.411 928.728 230.601C931.641 230.813 934.552 230.181 937.115 228.78C937.89 228.528 938.714 228.461 939.52 228.583C943.522 229.045 947.572 228.371 951.207 226.636C951.521 226.535 951.856 226.516 952.179 226.582C956.844 225.964 961.543 225.633 966.249 225.59C970.118 225.538 973.979 225.203 977.8 224.588C978.688 224.612 978.887 223.293 980.302 223.724Z" fill="#212222"/>
<path d="M893.659 360.043C891.856 361.887 890.182 363.852 888.647 365.925C885.327 369.337 881.542 372.265 877.404 374.621C872.525 377.289 867.437 379.558 862.192 381.407C857.243 381.132 852.447 382.93 847.464 382.464C846.678 382.334 845.943 381.993 845.335 381.479C844.066 381.269 843.829 382.062 843.295 382.403C840.348 381.346 837.277 380.671 834.159 380.396C830.355 379.778 826.65 378.66 823.138 377.072C822.08 375.11 820.025 375.531 818.526 374.766C817.151 374.065 815.27 374.141 814.509 372.521C813.677 370.749 811.784 371.936 810.654 370.837C809.562 370.086 808.363 369.504 807.097 369.109C806.481 368.322 806.584 366.294 804.623 366.465C804.044 366.537 803.458 366.414 802.957 366.116C802.456 365.818 802.069 365.361 801.856 364.819C800.982 362.582 798.551 361.943 797.415 359.781C796.468 357.767 795.339 355.844 794.041 354.035C794.713 353.095 795.554 352.023 793.966 351.043C795.168 349.899 794.84 348.414 794.858 347.011C794.876 345.681 794.862 344.351 794.862 342.804C797.154 342.013 796.421 339.275 797.86 337.779C797.96 333.147 801.493 329.981 802.977 325.931C803.118 325.54 803.364 325.196 803.687 324.936C804.011 324.676 804.4 324.51 804.812 324.457C805.913 324.365 806.453 323.535 806.844 322.635C807.669 320.738 808.761 319.245 811.138 319.476C812.813 317.337 815.599 317.373 817.73 316.114C820.588 314.468 823.817 313.575 827.115 313.519C829.606 312.95 832.139 312.58 834.689 312.41C840.527 312.762 846.308 313.77 851.92 315.414C853.274 315.769 854.685 315.856 856.072 315.669C859.256 315.571 862.437 315.942 865.514 316.768C869.205 317.443 872.664 319.047 875.564 321.43C877.274 323.28 879.328 324.781 881.61 325.85C882.114 326.033 882.431 326.793 882.784 327.32C883.924 329.692 885.678 331.717 887.864 333.183C890.314 334.473 890.29 337.421 890.962 340.123C892.54 341.396 893.839 342.98 894.78 344.776C894.78 346.25 894.797 347.724 894.775 349.197C895.028 350.571 894.758 351.99 894.017 353.174C895.594 354.381 892.996 355.223 893.755 356.449C894.468 357.602 892.237 358.796 893.659 360.043ZM882.242 343.379C880.847 341.664 878.892 339.758 877.168 337.598C875.133 334.143 872.307 331.219 868.923 329.069C868.045 328.751 867.236 328.266 866.542 327.642C864.424 325.729 861.727 324.581 858.88 324.383C855.44 323.637 851.55 323.696 849.633 320.884C844.873 319.576 840.509 319.881 836.405 318.494C834.454 320.313 832.038 319.157 829.846 319.466C827.656 319.774 825.627 321.089 823.977 320.567C820.908 321.567 818.931 323.553 816.623 323.664C814.236 325.644 812.002 327.804 809.942 330.124C808.572 331.904 808.087 334.295 806.716 336.26C805.409 338.173 804.568 340.365 804.261 342.662C803.867 345.785 802.129 348.872 803.824 352.181C805.667 355.775 807.134 359.616 811.654 360.687C811.682 361.784 812.268 362.961 813.065 363.05C815.754 363.35 817.459 365.348 819.645 366.473C822.248 367.812 825.371 368.133 827.534 370.47H831.368C836.376 373.467 842.08 375.106 847.916 375.224C848.853 375.434 849.173 374.189 850.444 374.345C853.909 374.339 857.348 373.734 860.608 372.557C865.037 372.273 869.23 370.458 872.468 367.422C875.507 366.288 878.139 364.274 880.028 361.637C881.128 360.532 881.366 358.734 882.382 358.165C883.861 353.34 883.812 348.175 882.242 343.379V343.379Z" fill="#212222"/>
<path d="M762.734 428.01L761.812 428.932C763.911 433.436 764.955 438.359 764.866 443.327C767.503 446.968 768.919 451.352 768.909 455.847C769.752 456.775 770.367 457.886 770.708 459.093C771.048 460.3 771.103 461.57 770.869 462.801L772.786 464.718C772.995 465.493 773.021 466.306 772.863 467.093C772.705 467.88 772.367 468.62 771.876 469.255C773.309 470.778 772.297 473.572 774.591 474.422C775.426 476.196 774.303 478.021 775.634 479.726C776.264 480.357 776.696 481.159 776.876 482.032C777.056 482.906 776.977 483.812 776.647 484.641L779.949 487.568C778.861 491.828 782.613 495.283 781.781 499.807L783.864 501.391V506.161L785.848 507.593C785.49 509.667 785.837 511.803 786.834 513.657C787.176 513.892 787.457 514.206 787.651 514.574C787.845 514.941 787.948 515.35 787.949 515.765C787.95 516.181 787.851 516.59 787.659 516.959C787.468 517.328 787.19 517.644 786.849 517.882C787.579 518.239 788.211 518.769 788.691 519.426C789.171 520.083 789.484 520.846 789.602 521.65C790.444 527.584 795.427 532.181 794.865 538.489C795.386 539.789 797.343 540.267 796.882 542.16C796.637 543.17 797.22 543.907 797.792 544.783C799.095 546.716 799.985 548.898 800.409 551.19C800.864 552.843 801.615 554.399 802.625 555.785C803.635 557.682 804.471 559.667 805.124 561.715C807.054 566.091 809.217 570.361 811.603 574.507C812.159 575.232 812.546 576.071 812.735 576.965C812.924 577.859 812.911 578.785 812.696 579.673C815.076 580.98 815.698 583.763 817.746 585.597V590.448C819.593 592.237 821.014 594.419 821.904 596.832C822.793 599.245 823.128 601.827 822.884 604.387L824.635 607.65L823.826 608.928C823.872 610.219 824.992 610.573 825.538 611.352C826.528 614.572 826.967 617.935 826.836 621.301C828.385 622.523 826.405 623.816 826.881 624.95C827.232 626.315 827.902 627.578 828.835 628.635C828.389 632.887 830.565 636.932 829.834 641.206C831.143 642.19 831.035 643.864 831.187 645.104C831.506 647.72 834.09 650.024 831.971 653.128C831.577 653.933 831.454 654.843 831.62 655.724C831.785 656.604 832.231 657.407 832.891 658.012C832.123 659.278 831.717 660.73 831.719 662.21C831.72 663.691 832.129 665.143 832.899 666.407L831.388 668.106C828.617 667.838 825.822 668.187 823.201 669.127C820.493 669.867 817.69 670.337 814.983 670.863C812.55 671.396 810.161 672.113 807.835 673.006C805.005 673.888 802.118 674.575 799.194 675.062C796.588 675.891 793.852 676.23 791.122 676.063C790.135 675.902 789.833 676.958 788.958 677.13C786.681 675.443 784.004 676.255 781.458 676.078C779.684 678.236 776.855 676.305 774.7 677.953C772.802 679.005 770.708 679.656 768.548 679.863C767.13 680.078 765.698 680.191 764.263 680.199L762.415 682.046H754.629C753.234 683.152 751.567 683.86 749.803 684.096C745.834 684.205 741.986 685.458 738.12 685.864C733.505 686.349 729.288 689.123 724.483 688.064C722.413 689.387 719.767 688.473 717.71 689.797C716.927 690.302 716.112 690.021 715.319 690.045C712.585 689.942 709.852 690.255 707.211 690.971C704.766 691.727 702.229 692.145 699.671 692.213C697.335 692.685 694.965 692.969 692.583 693.064C691.01 693.116 689.468 693.522 688.073 694.253C685.927 694.934 683.669 695.193 681.424 695.014C679.345 694.9 677.266 695.257 675.344 696.057C672.264 697.407 668.812 696.948 665.679 698.049C662.707 699.094 659.366 698.406 656.491 699.995C656.017 700.159 655.504 700.174 655.022 700.038C651.133 700.02 647.254 700.417 643.45 701.223C640.106 701.328 636.851 703.136 633.345 703.199C631.311 705.279 628.124 702.851 626.118 705.045C623.319 704.522 620.832 706.603 618.042 706.034C615.383 705.491 613.233 708.448 610.776 706.783L608.498 709.061C603.319 708.416 598.132 710.715 592.72 710.046C592.093 710.063 591.48 710.235 590.936 710.548C588.683 711.765 586.114 712.27 583.569 711.994C581.621 711.527 580.396 713.666 578.471 713.056C577.604 712.882 576.711 712.885 575.845 713.066C574.98 713.248 574.161 713.604 573.438 714.112C571.669 714.882 569.737 715.198 567.816 715.034C565.422 715.072 563.038 715.36 560.704 715.891C555.969 717.344 551.036 718.048 546.083 717.977C544.351 717.834 543.317 719.494 541.481 719.109C539.714 718.589 537.831 718.618 536.081 719.19C534.646 719.76 533.183 720.257 531.698 720.677C530.699 721.212 529.562 721.431 528.436 721.305C527.311 721.179 526.25 720.715 525.394 719.973C522.553 721.013 519.617 721.772 516.628 722.239C513.739 722.684 510.826 722.956 507.904 723.052C506.976 723.277 506.531 724.255 505.816 724.819C503.414 726.076 501.569 723.792 499.26 723.916C497.028 724.035 495.678 726.197 493.605 725.976C488.033 725.384 482.939 728.246 477.444 728.02C474.726 729.566 471.714 728.655 468.875 729.077C465.307 729.526 461.793 730.325 458.382 731.462C457.009 731.907 455.562 732.077 454.124 731.963C450.632 732.042 447.169 732.618 443.839 733.673C441.238 734.368 438.569 734.775 435.879 734.885C433.416 734.956 431.179 735.784 428.808 736.05C428.411 736.094 427.767 736.952 427.747 736.931C426.012 735.173 424.279 738.414 422.253 736.122C422.318 732.413 422.073 728.705 421.519 725.038C421.737 724.956 421.92 724.803 422.039 724.604C422.158 724.405 422.207 724.172 422.176 723.941C421.787 721.09 423.007 718.083 421.203 715.346C420.481 714.251 421.875 713.253 421.688 711.998C420.743 708.281 420.243 704.465 420.2 700.63C420.389 698.481 419.123 696.691 418.948 694.568C418.829 693.132 420.871 692.35 419.505 690.703C418.835 689.896 419.355 688.171 419.156 686.889C418.456 682.364 417.695 677.848 416.902 673.338C416.83 672.933 416.357 672.599 416.085 672.251C416.848 671.172 417.255 669.882 417.25 668.561C417.168 667.535 415.602 666.455 417.311 665.31L415.185 661.183C415.946 655.95 413.511 650.408 414.179 644.667C413.026 641.268 412.713 637.641 413.265 634.095C413.291 632.683 411.394 631.551 412.347 630.635C413.85 629.188 411.659 628.551 412.075 627.309C412.328 626.695 412.394 626.021 412.265 625.37C412.137 624.718 411.819 624.118 411.352 623.646C410.844 623.139 411.193 621.754 411.185 620.768C411.296 618.941 411.272 617.108 411.115 615.284C410.881 613.8 409.472 612.325 409.657 610.995C409.888 609.329 408.865 608.033 409.137 606.434C409.244 603.578 408.712 600.735 407.58 598.111C407.13 596.477 406.722 595.008 408.149 593.691C407.861 593.152 407.044 592.936 407.183 592.116C407.342 591.411 407.329 590.678 407.145 589.978C406.962 589.278 406.614 588.632 406.129 588.094C404.618 586.63 405.72 584.661 404.703 583.15C403.58 581.484 404.287 579.922 405.103 578.251C405.364 577.098 405.393 575.906 405.186 574.742L403.237 572.695C403.209 569.776 402.926 566.864 402.392 563.994C402.075 561.189 401.394 558.439 400.365 555.81C400.103 555.032 400.047 554.199 400.203 553.393C400.543 550.519 399.961 547.612 398.542 545.089C397.862 544.004 398.368 542.844 398.19 541.736C397.814 539.392 399.071 536.836 397.29 534.646C397.244 534.589 397.84 534.009 398.134 533.677L396.195 531.738C396.15 529.323 396.605 526.606 394.195 524.801V519.774L393.251 518.736L394.27 517.566C393.603 516.323 393.449 514.845 392.17 513.752C392.427 512.282 392.286 510.77 391.761 509.372C391.236 507.975 390.348 506.743 389.187 505.805C389.383 504.557 389.306 503.28 388.964 502.064C388.621 500.848 388.02 499.721 387.201 498.758C387.723 495.321 387.031 491.809 385.244 488.827C385.384 485.332 384.416 481.883 382.477 478.972C382.123 478.059 382.036 477.064 382.225 476.103C382.064 472.575 381.033 469.142 379.223 466.109C379.327 464.118 378.873 462.137 377.911 460.39C376.901 458.633 376.358 456.645 376.335 454.618C376.222 452.56 375.725 450.542 374.872 448.667C373.729 446.054 373.164 443.226 373.215 440.375C373.197 438.956 372.879 437.558 372.283 436.271C370.466 431.641 369.049 426.865 368.049 421.993C367.716 419.727 368.023 416.743 365.468 415.116C365.584 412.487 363.892 410.42 363.297 408.038C362.953 406.484 362.243 405.034 361.227 403.81V400.837C359.377 399.705 359.145 397.234 357.221 395.941C357.252 391.486 358.029 386.674 353.435 384.271C352.178 379.013 351.087 374.305 349.884 369.626C349.742 369.071 348.987 368.673 348.224 367.91C348.417 366.708 348.354 365.481 348.039 364.305C347.724 363.13 347.164 362.034 346.397 361.09C346.315 360.785 346.264 360.473 346.244 360.158C346.651 356.159 345.975 352.123 344.287 348.474C343.233 346.122 342.88 343.517 343.271 340.969C342.452 340.292 341.835 339.402 341.488 338.397C341.142 337.392 341.078 336.311 341.305 335.273C341.799 332.99 340.514 330.949 341.062 328.556C341.515 326.575 339.822 324.338 340.19 322.01C340.237 321.711 339.592 321.304 339.267 320.946C341.175 319.357 339.773 317.194 340.336 315.386C338.833 313.49 338.083 311.106 338.229 308.691C338.036 305.014 337.607 301.353 336.945 297.73C336.945 297.494 336.505 297.259 336.269 297.024C337.414 296.05 337.823 294.802 336.82 293.645C335.464 292.082 336.376 290.988 337.26 289.764C337.156 288.524 336.113 287.684 336.157 286.202C336.357 279.55 336.237 272.888 336.252 266.229C336.255 265.117 335.938 263.925 337.132 263.07C337.263 262.864 337.338 262.628 337.351 262.385C337.365 262.142 337.315 261.9 337.208 261.682C335.406 259.735 337.079 257.891 337.144 255.981C338.106 250.631 338.416 245.184 338.066 239.759C339.365 238.01 340.136 235.925 340.287 233.751C339.614 230.237 340.301 226.598 342.209 223.572C342.553 223.123 341.932 222.26 342.571 221.741C346.611 220.992 351.107 222.911 354.915 219.453C359.545 219.907 364.219 219.536 368.72 218.358C372.101 217.932 375.449 217.746 378.825 217.584C379.735 217.43 380.636 217.22 381.52 216.955C383.645 216.617 385.694 214.389 388.129 216.524C389.062 217.343 390.102 215.669 391.157 215.626C394.207 216.077 397.315 215.372 399.872 213.65C400.335 213.236 401.485 213.591 402.317 213.591H415.421C417.276 212.125 419.614 211.409 421.971 211.585C424.58 211.941 426.849 210.151 429.559 210.517C432.208 210.828 434.885 210.831 437.534 210.525C439.201 210.05 440.904 209.714 442.626 209.521C444.225 209.908 445.91 209.719 447.384 208.987C448.914 207.981 451.068 209.151 452.667 208.518C456.279 207.515 460.052 207.226 463.774 207.667C465.764 207.666 467.235 206.121 469.372 206.5C470.305 206.812 471.299 206.896 472.271 206.743C473.242 206.59 474.163 206.206 474.955 205.622C475.137 205.457 475.606 205.563 475.933 205.605C481.19 206.289 486.263 203.936 491.5 204.634C493.532 204.904 495.045 203.374 497.091 203.503C498.918 203.618 501.069 204.477 502.691 202.626C502.835 202.461 503.336 202.57 503.664 202.608C509.248 203.256 514.653 200.942 520.234 201.61C522.528 201.884 524.448 200.237 526.823 200.536C529.039 200.54 531.249 200.306 533.415 199.835C536.063 199.198 538.758 198.774 541.474 198.57C544.127 198.743 546.816 198.424 549.461 198.653C552.981 198.559 556.479 198.059 559.885 197.164C560.367 197.123 560.854 197.164 561.322 197.286C563.669 197.898 566.149 197.759 568.412 196.889C569.832 196.478 571.326 196.388 572.785 196.626C577.567 196.515 582.321 195.853 586.952 194.653C587.512 194.476 588.014 194.153 588.407 193.717C591.033 195.491 593.897 194.263 596.583 194.558C597.659 192.972 599.362 193.472 600.672 193.705C602.345 194.002 603.283 192.644 604.767 192.567C610.268 191.907 615.803 191.57 621.344 191.556C623.104 191.986 624.964 191.706 626.52 190.776C627.808 189.824 629.955 191.275 631.586 189.706C632.241 189.076 633.818 189.479 634.671 190.763C636.05 190.002 637.595 189.59 639.17 189.563C641.949 190.106 644.813 190.05 647.57 189.4C649.994 188.418 652.808 189.634 654.833 187.63C654.917 187.547 655.158 187.6 655.321 187.622C660.248 188.288 664.999 185.912 669.884 186.682C672.453 187.087 674.505 185.498 676.974 185.541C679.158 185.578 681.575 186.446 683.572 184.645C683.755 184.479 684.218 184.627 684.551 184.623C687.617 184.897 690.707 184.577 693.652 183.681C694.619 183.488 695.617 183.523 696.569 183.782C696.829 183.814 697.044 184.221 697.191 184.369C698.865 183.645 700.604 183.084 702.386 182.695C704.7 182.378 707.046 182.381 709.359 182.702C711.61 183.049 713.304 181.477 715.452 181.587C719.67 181.801 723.746 179.97 728.032 180.574C728.504 180.64 729.082 179.962 729.585 179.646C731.349 180.418 733.254 180.816 735.18 180.814C737.105 180.812 739.009 180.409 740.771 179.632C742.316 178.905 743.571 178.146 745.538 179.477C747.01 180.473 749.091 178.742 750.793 178.082C751.725 177.748 752.723 177.644 753.703 177.777C752.219 180.454 752.758 183.932 749.959 186.05V194.879C749.13 195.707 748.505 196.717 748.133 197.828C747.762 198.94 747.655 200.123 747.821 201.283C747.851 203.817 748.715 206.522 747.086 208.937C746.925 209.214 746.866 209.538 746.918 209.855C746.84 214.23 746.488 218.597 745.862 222.928C745.922 224.306 746.488 225.882 745 227.085C744.832 227.367 744.739 227.688 744.731 228.016C744.723 228.345 744.8 228.669 744.954 228.96C746.802 230.94 745.604 232.719 744.977 234.692C744.47 236.03 744.397 237.493 744.767 238.876C745.157 241.005 745.191 243.185 744.869 245.326C744.922 246.478 745.306 247.591 745.973 248.532L744.26 251.679C744.323 255.005 747.219 257.525 745.141 260.937C744.857 261.535 744.697 262.184 744.671 262.845C744.645 263.506 744.754 264.166 744.991 264.784C745.572 265.897 745.868 267.137 745.853 268.393C745.839 269.649 745.513 270.881 744.906 271.981C745.968 279.278 746.325 286.66 745.973 294.026C745.996 294.402 746.598 294.743 746.921 295.09C745.85 298.604 745.492 302.297 745.869 305.951L747.904 307.986C747.904 310.719 747.819 313.54 747.937 316.354C747.677 317.962 747.961 319.612 748.742 321.042C749.095 321.761 749.198 322.577 749.033 323.36C748.868 324.144 748.446 324.85 747.834 325.366C750.306 330.691 750.496 332.735 748.814 336.456C750.542 338.189 749.322 340.976 751.091 342.717L749.795 344.111C750.968 346.234 751.346 348.705 750.861 351.081C750.986 353.281 751.521 355.438 752.439 357.441C753.317 360.206 753.096 363.202 751.821 365.808C752.014 368.057 754.446 369.517 753.92 371.992C753.724 372.912 754.226 374.01 753.092 374.697C754.476 375.903 753.27 378.115 754.891 379.223C755.045 380.041 754.368 380.364 753.875 380.945C755.581 384.065 754.343 388.109 756.915 391.039C756.927 392.359 755.722 393.139 755.798 394.651C755.898 399.106 756.631 403.524 757.975 407.773C758.645 410.076 758.959 412.468 758.906 414.866C759.208 419.474 760.514 423.96 762.734 428.01V428.01ZM524.055 321.682C524.138 322.023 524.13 322.378 524.03 322.715C523.931 323.051 523.744 323.356 523.49 323.597C519.124 327.252 514.493 330.576 509.633 333.542C508.871 334.114 507.954 334.439 507.003 334.476C506.687 334.405 506.359 334.402 506.041 334.468C505.724 334.533 505.424 334.667 505.163 334.858C502.623 336.654 499.727 337.88 496.67 338.454L495.587 337.458C494.863 338.72 493.607 338.613 492.519 338.408C491.264 338.172 490.297 339.057 489.124 339.204V337.809C492.728 336.24 496.029 334.051 498.878 331.341C500.625 329.237 502.699 327.428 505.021 325.984C505.3 325.822 505.544 325.607 505.74 325.351C505.935 325.095 506.078 324.803 506.161 324.492C506.861 322.45 508.772 321.152 509.255 318.756C509.662 316.741 511.539 315.061 511.436 312.684C511.421 312.324 512.265 312.115 511.958 310.98C511.699 310.847 511.472 310.66 511.293 310.431C511.113 310.202 510.986 309.937 510.918 309.654C510.851 309.371 510.846 309.078 510.903 308.793C510.961 308.507 511.079 308.238 511.251 308.003C513.084 305.853 511.731 304.13 511.101 302.237C510.338 300.191 509.195 298.306 507.732 296.683C505.688 295.917 503.773 294.844 502.052 293.5C500.962 292.863 499.734 292.498 498.473 292.436C494.423 292.375 490.378 292.747 486.407 293.545C484.905 293.998 483.374 294.352 481.826 294.607C479.646 294.71 478.577 297.615 476.071 297.518C475.759 297.542 475.465 297.676 475.245 297.899C472.376 300.67 469.983 303.895 468.161 307.444C467.957 307.837 468.134 308.427 468.134 309.547L464.208 312.903C463.902 316.131 464.786 319.129 463.111 321.808C463.747 322.335 464.164 323.08 464.283 323.897C464.401 324.715 464.211 325.547 463.751 326.233C462.668 327.841 463.398 329.417 463.157 330.981C465.194 332.032 463.757 334.221 464.741 335.851C465.68 337.406 467.364 338.433 467.761 339.607C466.56 340.793 465.134 341.726 463.566 342.351C461.998 342.976 460.321 343.279 458.634 343.243C454.844 344.115 450.962 344.524 447.074 344.46C446.6 344.375 445.872 344.278 445.635 344.532C443.963 346.329 441.641 344.665 440.054 345.542C438.122 346.365 436.009 346.67 433.923 346.428C430.934 346.613 427.935 346.577 424.951 346.322C423.771 346.173 422.846 348.408 421.74 346.512C417.089 346.49 412.438 346.442 407.788 346.476C407.196 346.48 407.019 347.564 406.271 347.456C400.318 344.442 394.473 348.561 388.857 347.394C388.179 347.755 387.651 348.344 387.365 349.056C387.08 349.769 387.055 350.56 387.296 351.289C387.73 351.243 388.169 351.31 388.569 351.485C388.968 351.661 389.316 351.937 389.576 352.287C394.106 353.123 398.785 351.293 403.175 353.41C403.58 353.606 404.409 353.65 404.62 353.403C406.1 351.673 408.033 352.49 409.739 352.475C418.893 352.395 428.051 352.291 437.2 352.508C440.977 352.598 444.484 350.681 448.272 351.439C449.935 350.009 451.975 350.7 453.843 350.395C456.504 349.962 459.218 349.695 461.814 349.12C464.688 348.149 467.681 347.574 470.711 347.413C471.346 346.55 472.159 345.834 473.094 345.311C474.029 344.789 475.066 344.473 476.134 344.385C476.978 344.048 477.273 345.657 478.421 345.483C479.58 345.512 480.739 345.479 481.894 345.384C483.158 345.041 484.152 346.826 485.203 345.794C486.687 344.338 487.075 346.692 488.163 346.46C488.638 346.358 489.383 346.633 489.607 346.382C491.107 344.705 493.022 345.65 494.738 345.467C496.046 345.328 497.59 345.809 498.648 345.268C500.631 344.255 502.804 343.996 504.779 343.174C506.903 342.289 509.531 342.517 511.141 340.451C513.894 341.445 515.169 338.811 517.043 337.848C521.171 336.123 524.868 333.511 527.873 330.196C528.36 329.524 528.965 328.947 529.658 328.49C532.284 327.444 534.54 325.641 536.138 323.31C537.447 320.805 540.435 319.401 541.064 316.36C541.313 315.57 541.861 314.908 542.59 314.515C544.77 312.92 545.327 310.278 546.844 308.282C547.515 307.4 546.143 305.792 547.796 305.498C548.865 305.425 548.789 306.391 549.12 306.62C550.698 307.71 549.61 309.66 550.907 310.968C553.037 313.116 554.023 316.307 556.919 317.835C558.228 321.233 561.494 322.355 564.205 324.139C567.242 325.684 570.472 326.817 573.809 327.507C577.611 328.061 581.067 326.111 584.599 326.405C585.254 325.75 585.675 324.941 586.203 324.863C590.155 324.283 592.694 321.211 596.002 319.54C597.054 319.102 597.936 318.339 598.521 317.362C599.883 315.148 601.578 313.156 603.547 311.459C605.399 309.65 607.09 307.687 608.605 305.588C610.166 303.339 611.956 301.257 613.945 299.376C615.52 297.708 617.615 296.292 619.438 294.593C620.915 294.968 622.006 293.698 623.374 293.434C624.916 295.823 627.728 293.509 629.664 295.395C631.68 296.742 633.889 297.777 636.214 298.463C637.782 298.271 639.374 298.46 640.854 299.012C642.334 299.565 643.659 300.465 644.718 301.637C646.307 301.008 647.363 299.819 648.964 300.924C651.107 302.403 653.224 301.277 655.257 300.476C655.822 300.831 656.322 301.384 656.884 301.457C660.239 301.959 663.668 301.46 666.741 300.024C668.371 299.167 670.529 300.543 671.616 298.497C674.301 298.557 673.554 295.329 675.386 294.548C675.638 294.441 675.773 294.06 675.954 293.816C676.043 292.11 675.59 290.329 676.762 288.81C675.063 287.407 676.557 285.337 675.704 283.757L674.554 282.607H669.235C666.849 285.438 667.544 289.696 665.094 291.918C661.199 293.563 656.922 294.086 652.745 293.43C649.132 293.386 645.569 292.578 642.291 291.057C639.85 289.721 636.969 290.137 634.864 288.475C632.381 286.515 629.048 288.598 626.676 286.511C620.302 285.865 613.916 287.603 608.747 291.388C607.865 292.078 606.648 292.134 605.977 293.185V295.079C605.254 295.228 604.57 295.528 603.971 295.959C603.372 296.39 602.871 296.943 602.5 297.582C599.285 302.274 595.124 306.145 591.489 310.47C589.676 312.626 587.537 314.509 585.573 316.488C582.758 316.083 581.587 318.982 579.575 319.377H573.554C571.23 317.923 569.242 315.993 567.719 313.714C567.403 313.07 566.469 312.806 565.821 312.397C564.498 311.515 563.368 310.374 562.497 309.044C561.626 307.714 561.033 306.221 560.753 304.656C560.011 304.472 559.144 304.439 558.708 303.636C557.253 300.498 555.351 297.587 553.063 294.992C553.461 291.248 550.17 290.9 547.829 289.19C546.278 291.927 542.398 291.166 541.107 294.147C541.191 296.931 539.773 299.425 539.809 302.185C539.819 302.948 538.931 304.368 538.427 304.381C536.111 304.44 537.094 306.646 536.197 307.621C535.764 308.092 535.86 309.423 535.003 310.06C533.533 311.15 533.089 312.946 532.055 314.322C529.951 317.123 528.593 320.752 524.055 321.682ZM592.955 568.978C593.257 566.802 593.929 564.692 594.942 562.743C596.09 561.267 597.007 559.611 598.026 558.034C596.876 555.507 600.252 554.63 600.073 552.37C599.97 551.083 600.93 550.349 602.566 550.172C603.757 552.478 605.635 554.356 607.94 555.549C609.538 556.31 610.94 557.427 612.037 558.816C613.055 560.225 614.541 560.07 615.944 560.492L618.128 563.921C619.129 564.576 620.329 563.664 621.004 564.725C621.065 565.19 620.814 565.741 621.715 566.258C622.531 566.066 623.384 566.102 624.18 566.363C624.976 566.625 625.685 567.101 626.228 567.739C627.234 568.436 628.349 568.96 629.528 569.289C635.215 570.625 640.979 571.607 646.787 572.226C648.746 572.76 650.091 571.111 651.874 571.188C656.099 570.963 660.217 569.779 663.916 567.727C666.465 566.646 668.867 565.188 671.462 564.254C674.124 562.815 676.53 560.946 678.583 558.722C681.073 556.78 684.669 555.965 686.035 552.634C689.857 550.258 693.405 547.466 696.614 544.31C698.938 542.69 700.902 540.606 702.383 538.191C704.515 535.51 706.208 532.507 707.397 529.294C707.562 528.04 708.068 526.854 708.86 525.866C709.651 524.879 710.698 524.128 711.886 523.692C712.477 523.475 712.72 522.315 712.825 522.126H716.515C717.671 520.991 718.507 519.571 718.94 518.01L717.334 515.321H709.629C705.018 516.293 700.681 518.28 696.934 521.137C696.688 523.436 695.948 525.652 694.765 527.638C693.582 529.623 691.983 531.33 690.079 532.639C690.083 533.442 689.928 534.238 689.624 534.981C688.683 536.309 686.53 536.704 686.268 538.492C685.99 540.391 684.176 540.816 683.276 542.132C682.512 543.607 681.372 544.855 679.972 545.749C678.572 546.644 676.962 547.154 675.302 547.229C672.863 550.229 669.941 552.803 666.657 554.845C663.075 557.561 659.037 559.616 654.733 560.914C652.882 561.774 650.848 562.169 648.809 562.064C644.321 560.958 639.748 560.689 635.352 559.964C631.927 556.682 626.386 556.178 624.45 551.201H621.491C620.724 550.314 619.886 549.492 618.984 548.742C617.273 547.386 615.403 546.243 613.415 545.339C612.514 545.024 611.711 544.479 611.088 543.756C609.977 541.924 608.237 540.56 606.193 539.919C604.15 539.278 601.942 539.404 599.985 540.273C597.014 541.395 593.591 542.709 592.406 545.648C591.627 547.466 590.536 549.134 589.182 550.576C588.973 553.686 586.532 555.657 585.943 558.465C585.231 560.593 583.847 562.432 582 563.706V567.738C581.671 568.137 581.298 568.499 580.889 568.817C580.372 569.091 579.832 569.322 579.277 569.509C575.05 578.909 567.708 586.561 558.491 591.173C556.885 591.173 555.22 591.158 553.556 591.175C551.015 591.233 548.49 590.761 546.141 589.789C543.793 588.817 541.673 587.366 539.916 585.53C538.471 584.018 536.855 582.681 535.099 581.545C533.544 580.277 532.158 578.813 530.977 577.19C529.211 575.277 526.732 574.021 525.343 571.841C524.154 569.774 523.115 567.623 522.236 565.406C519.184 563.202 516.574 560.443 514.543 557.273C514.023 557.117 513.513 556.929 513.016 556.71C509.609 554.993 507.526 551.367 503.604 550.394C501.826 550.156 500.029 550.109 498.241 550.254C496.098 550.225 493.971 550.635 491.992 551.459C490.013 552.282 488.223 553.502 486.733 555.043C485.905 556.185 484.024 556.78 483.488 557.654C482.695 559.042 481.655 560.275 480.42 561.29C479.427 562.108 478.745 563.242 478.487 564.503C477.78 567.71 475.23 569.804 474.129 573.428C474.39 576.423 473.723 579.427 472.219 582.031C473.75 586.188 473.212 590.821 476.468 594.024C477.168 594.3 477.948 594.288 478.639 593.99C479.33 593.693 479.875 593.134 480.156 592.436C479.818 590.462 480.707 588.34 479.216 586.35C478.942 585.833 478.799 585.255 478.8 584.67C478.801 584.085 478.945 583.509 479.22 582.993C480.12 581.439 480.429 579.612 480.092 577.848C480.059 575.8 481.605 574.482 482.221 572.72C483.243 568.021 485.968 563.866 489.871 561.057C491.9 559.643 493.808 558.063 495.575 556.333C496.13 556.694 496.501 557.115 496.929 557.184C499.714 557.633 503.841 559.286 504.561 561.365C505.386 563.745 507.623 563.967 508.988 565.609C508.651 567.988 510.927 569.227 511.755 571.195C515.757 573.837 518.982 577.5 521.1 581.803C522.877 584.721 525.13 587.32 527.765 589.494C531.4 591.495 534.675 594.09 537.454 597.171H539.934L541.331 598.979C544.101 599.609 546.613 598.359 548.889 600.089C549.342 600.309 549.839 600.425 550.343 600.427C550.846 600.429 551.344 600.319 551.799 600.104C554.921 599.163 558.194 598.83 561.441 599.121C563.361 597.297 565.726 596.008 568.3 595.384C571.182 594.469 572.279 591.819 574.824 590.621C577.155 589.025 579.211 587.061 580.913 584.807C582.834 582.885 585.004 581.137 585.181 578.425C588.407 577.532 588.643 575.107 589.193 572.524L592.955 568.978ZM532.06 451.571C528.633 448.658 525.965 444.957 524.284 440.785C521.541 437.27 519.313 433.382 517.669 429.238C513.934 427.269 513.212 421.912 507.664 420.362C506.482 420.362 504.323 420.405 502.165 420.348C500.726 420.154 499.268 420.519 498.091 421.369C497.52 421.815 496.859 422.132 496.154 422.3C495.449 422.467 494.716 422.48 494.005 422.339C491.618 422.178 489.238 422.728 487.162 423.917C484.828 425.077 482.209 423.31 480.092 424.929C479.164 425.639 478.198 425.339 477.265 425.329C474.355 425.299 471.664 427.026 468.688 426.355C467.633 428.418 465.411 426.827 463.807 427.932C462.535 428.808 460.347 428.353 458.486 428.495C456.309 430.869 453.27 430.29 450.672 430.346C449.509 431.409 448.857 432.566 447.193 432.398C446.254 432.325 445.309 432.444 444.418 432.749C443.526 433.054 442.706 433.538 442.009 434.172C439.676 436.07 437.066 437.597 434.269 438.701C434.039 440.622 433.772 442.565 436.346 443.485L444.21 440.804C445.51 439.157 447.284 437.948 449.292 437.339C452.516 436.691 455.76 436.116 458.945 435.312C461.575 434.649 464.392 434.767 466.855 433.899C468.369 433.365 469.871 433.933 471.075 433.28C472.495 432.539 474.096 432.212 475.693 432.339C476.67 432.529 477.678 432.497 478.641 432.246C481.632 431.272 484.728 430.654 487.864 430.408C491.694 429.504 495.667 429.196 499.478 428.233C500.547 427.676 501.736 427.393 502.941 427.408C502.171 430.092 505.625 429.009 506.038 430.82C506.353 432.201 506.788 433.859 507.962 434.237C510.128 434.933 508.16 437.525 510.1 438.044C511.795 441.337 513.48 444.635 515.189 447.921C517.254 451.796 520.372 455.009 524.182 457.191C525.286 457.846 524.557 459.131 525.522 459.283H537.532C538 458.916 538.359 458.586 538.764 458.325C541.647 456.466 545.276 456.467 548.167 454.43C549.154 453.734 550.151 452.883 551.183 452.208C556.577 449.081 560.849 444.333 563.392 438.64C565.061 435.377 566.521 432.011 567.763 428.563C570.451 431.557 573.326 434.379 576.37 437.01C579.141 438.871 582.052 440.514 585.078 441.924C590.419 443.2 595.977 443.267 601.348 442.12C605.574 440.256 609.51 438.481 613.284 436.363C617.548 433.326 621.14 429.441 623.834 424.951C624.25 424.413 624.068 423.412 624.143 422.793C625.585 421.596 626.854 420.206 627.916 418.662C629.705 416.139 631.056 413.333 631.915 410.362C632.328 407.017 635.625 404.772 635.078 401.117C634.999 400.594 636.015 399.908 636.702 399.084C638.749 401.089 641.317 400.074 643.485 400.454C646.473 403.173 651.3 401.696 653.444 405.45C656.909 404.803 659.891 407.148 663.198 406.378C665.348 408.192 667.933 406.956 670.272 407.394C675.965 409.08 682.063 408.77 687.555 406.515C688.963 406.285 690.253 405.59 691.22 404.541C691.952 403.553 693.298 403.741 694.036 402.649C695.007 398.413 697.521 394.506 698.087 390.238C696.825 388.479 695.063 387.142 693.029 386.401C691.786 386.401 690.122 386.401 688.457 386.4C687.233 387.638 686.301 389.135 685.731 390.781C684.821 393.608 685.258 396.771 683.494 399.331C681.001 399.725 678.277 398.6 675.96 400.384C672.945 398.514 669.577 399.825 666.814 399.363L659.082 395.384C655.722 396.373 652.237 393.951 648.388 394.402C647.547 392.696 645.582 392.477 644.334 391.482C642.659 391.596 640.976 391.48 639.333 391.136C637.588 390.312 635.628 390.058 633.731 390.408C631.833 390.757 630.093 391.695 628.757 393.087C628.345 393.369 627.873 393.547 627.378 393.608C626.294 396.465 624.929 399.206 623.302 401.792C621.8 404.305 620.543 406.957 619.551 409.712C618.466 412.341 616.93 414.76 615.013 416.861V419.741C614.077 421.257 612.335 422.012 611.811 423.959C611.2 425.501 610.401 426.962 609.43 428.308C606.394 428.269 605.168 430.947 603.077 432.261C600.81 433.451 598.44 434.433 595.995 435.196L586.117 431.886C582.567 428.143 578.8 424.612 574.833 421.313C571.913 414.424 570.733 413.418 565.368 413.556L560.071 418.851C557.629 422.314 558.447 427.208 555.062 430.046V433.205L551.931 435.72C552.746 437.913 550.907 438.727 550.098 439.872L551.198 440.973L538.283 450.342C536.13 450.078 533.95 450.508 532.06 451.571H532.06Z" fill="white"/>
<path d="M882.242 343.377C883.812 348.173 883.861 353.338 882.383 358.163C881.366 358.732 881.128 360.53 880.029 361.635C878.14 364.272 875.508 366.287 872.469 367.42C869.231 370.456 865.037 372.269 860.608 372.553C857.349 373.731 853.91 374.336 850.444 374.342C849.173 374.186 848.854 375.432 847.916 375.222C842.081 375.104 836.377 373.465 831.368 370.469H827.535C825.372 368.132 822.249 367.81 819.646 366.471C817.46 365.346 815.754 363.346 813.066 363.047C812.269 362.958 811.683 361.782 811.655 360.685C807.134 359.614 805.667 355.774 803.825 352.179C802.129 348.871 803.867 345.783 804.261 342.66C804.569 340.363 805.409 338.17 806.717 336.257C808.088 334.291 808.573 331.902 809.943 330.122C812.003 327.802 814.236 325.643 816.624 323.662C818.932 323.551 820.909 321.565 823.978 320.565C825.628 321.087 827.657 319.772 829.847 319.464C832.039 319.155 834.455 320.311 836.405 318.492C840.509 319.879 844.874 319.575 849.634 320.882C851.55 323.695 855.44 323.635 858.88 324.381C861.727 324.579 864.425 325.727 866.542 327.64C867.237 328.264 868.045 328.749 868.923 329.067C872.308 331.217 875.134 334.14 877.168 337.595C878.893 339.755 880.847 341.662 882.242 343.377Z" fill="white"/>
<path d="M524.055 321.681C528.593 320.751 529.952 317.122 532.056 314.321C533.089 312.944 533.533 311.149 535.003 310.058C535.86 309.421 535.764 308.09 536.198 307.619C537.094 306.644 536.111 304.44 538.427 304.38C538.932 304.368 539.82 302.946 539.81 302.183C539.773 299.423 541.192 296.93 541.107 294.145C542.398 291.164 546.278 291.926 547.829 289.189C550.171 290.898 553.461 291.246 553.063 294.991C555.352 297.585 557.253 300.498 558.708 303.636C559.144 304.438 560.011 304.47 560.753 304.654C561.033 306.219 561.626 307.712 562.497 309.042C563.368 310.373 564.499 311.513 565.821 312.396C566.469 312.804 567.403 313.069 567.719 313.713C569.242 315.992 571.231 317.921 573.554 319.375H579.575C581.588 318.981 582.758 316.081 585.573 316.486C587.538 314.507 589.676 312.625 591.489 310.469C595.124 306.145 599.285 302.274 602.501 297.581C602.871 296.943 603.373 296.389 603.972 295.958C604.571 295.526 605.254 295.227 605.977 295.079V293.183C606.649 292.132 607.866 292.077 608.747 291.386C613.916 287.601 620.303 285.865 626.677 286.51C629.049 288.597 632.381 286.513 634.864 288.473C636.969 290.136 639.85 289.719 642.291 291.055C645.569 292.576 649.132 293.386 652.745 293.429C656.922 294.085 661.199 293.561 665.094 291.916C667.544 289.695 666.85 285.437 669.236 282.605H674.554L675.705 283.755C676.557 285.335 675.063 287.406 676.762 288.809C675.59 290.329 676.042 292.109 675.955 293.815C675.773 294.059 675.638 294.44 675.386 294.548C673.554 295.329 674.301 298.557 671.616 298.497C670.529 300.542 668.372 299.165 666.742 300.022C663.668 301.458 660.24 301.957 656.884 301.456C656.322 301.382 655.823 300.829 655.257 300.474C653.224 301.275 651.107 302.403 648.964 300.923C647.363 299.818 646.307 301.006 644.719 301.635C643.659 300.463 642.334 299.563 640.854 299.01C639.374 298.458 637.782 298.27 636.214 298.461C633.889 297.775 631.68 296.741 629.664 295.394C627.728 293.507 624.916 295.823 623.374 293.433C622.006 293.698 620.915 294.966 619.438 294.592C617.615 296.29 615.52 297.706 613.945 299.374C611.956 301.256 610.166 303.337 608.605 305.586C607.091 307.685 605.399 309.649 603.548 311.457C601.579 313.154 599.883 315.146 598.521 317.36C597.937 318.337 597.054 319.101 596.002 319.539C592.694 321.211 590.155 324.281 586.204 324.861C585.675 324.939 585.254 325.749 584.599 326.404C581.068 326.11 577.612 328.059 573.809 327.505C570.472 326.815 567.242 325.682 564.205 324.137C561.494 322.354 558.228 321.232 556.919 317.834C554.023 316.305 553.038 313.114 550.907 310.966C549.61 309.658 550.698 307.708 549.12 306.618C548.789 306.39 548.865 305.425 547.797 305.497C546.143 305.792 547.515 307.4 546.844 308.282C545.327 310.277 544.771 312.919 542.59 314.515C541.861 314.908 541.314 315.569 541.064 316.359C540.436 319.4 537.447 320.803 536.138 323.309C534.54 325.64 532.284 327.443 529.658 328.488C528.965 328.945 528.36 329.523 527.873 330.195C524.868 333.509 521.171 336.121 517.043 337.846C515.169 338.809 513.894 341.443 511.142 340.45C509.531 342.515 506.903 342.288 504.779 343.172C502.805 343.994 500.632 344.254 498.648 345.267C497.59 345.807 496.046 345.326 494.738 345.466C493.022 345.648 491.107 344.703 489.608 346.38C489.383 346.631 488.639 346.357 488.163 346.458C487.076 346.69 486.687 344.337 485.204 345.793C484.152 346.825 483.158 345.04 481.895 345.383C480.739 345.477 479.58 345.51 478.422 345.481C477.273 345.655 476.978 344.047 476.134 344.383C475.066 344.472 474.03 344.788 473.094 345.311C472.159 345.833 471.346 346.55 470.711 347.413C467.682 347.574 464.688 348.147 461.815 349.118C459.219 349.694 456.504 349.961 453.843 350.395C451.975 350.699 449.935 350.008 448.272 351.437C444.484 350.678 440.977 352.598 437.2 352.508C428.051 352.29 418.893 352.395 409.739 352.475C408.034 352.49 406.101 351.671 404.621 353.401C404.41 353.648 403.58 353.605 403.175 353.41C398.785 351.292 394.106 353.122 389.576 352.287C389.316 351.936 388.969 351.66 388.569 351.485C388.169 351.31 387.73 351.241 387.296 351.287C387.055 350.558 387.08 349.768 387.365 349.056C387.651 348.343 388.179 347.754 388.857 347.393C394.473 348.561 400.319 344.44 406.272 347.454C407.019 347.563 407.196 346.48 407.788 346.475C412.438 346.441 417.09 346.489 421.74 346.512C422.846 348.408 423.772 346.171 424.951 346.32C427.935 346.575 430.934 346.611 433.923 346.426C436.009 346.669 438.122 346.363 440.054 345.54C441.641 344.664 443.964 346.328 445.636 344.531C445.873 344.276 446.601 344.375 447.074 344.46C450.963 344.524 454.844 344.115 458.634 343.243C460.321 343.278 461.999 342.974 463.566 342.349C465.134 341.724 466.56 340.791 467.761 339.605C467.364 338.431 465.68 337.406 464.741 335.85C463.757 334.221 465.194 332.03 463.158 330.979C463.398 329.415 462.668 327.839 463.751 326.231C464.212 325.545 464.401 324.713 464.283 323.896C464.165 323.078 463.747 322.333 463.111 321.806C464.786 319.127 463.902 316.129 464.208 312.901L468.134 309.546C468.134 308.426 467.958 307.836 468.161 307.442C469.983 303.894 472.376 300.669 475.245 297.898C475.465 297.676 475.759 297.54 476.071 297.516C478.577 297.613 479.646 294.71 481.826 294.606C483.374 294.352 484.905 293.996 486.407 293.543C490.378 292.746 494.423 292.374 498.473 292.435C499.734 292.497 500.962 292.861 502.053 293.498C503.773 294.842 505.688 295.916 507.732 296.683C509.195 298.305 510.338 300.189 511.101 302.236C511.731 304.128 513.084 305.851 511.251 308.001C511.08 308.236 510.961 308.506 510.904 308.791C510.846 309.076 510.851 309.37 510.919 309.653C510.986 309.936 511.114 310.201 511.293 310.43C511.472 310.659 511.699 310.847 511.958 310.979C512.265 312.115 511.421 312.323 511.436 312.682C511.539 315.059 509.662 316.74 509.256 318.754C508.773 321.15 506.861 322.448 506.161 324.49C506.078 324.802 505.935 325.094 505.74 325.35C505.544 325.606 505.3 325.82 505.022 325.982C502.699 327.427 500.625 329.236 498.878 331.341C496.03 334.05 492.728 336.239 489.124 337.808V339.202C490.297 339.055 491.264 338.17 492.519 338.406C493.607 338.611 494.863 338.72 495.587 337.458L496.67 338.454C499.727 337.879 502.623 336.652 505.163 334.856C505.425 334.665 505.724 334.533 506.042 334.467C506.359 334.401 506.687 334.404 507.003 334.476C507.954 334.439 508.871 334.113 509.633 333.542C514.493 330.576 519.124 327.251 523.49 323.595C523.744 323.355 523.931 323.05 524.03 322.714C524.13 322.378 524.138 322.022 524.055 321.681V321.681ZM474.181 311.657C474.684 312.585 475.204 313.194 475.084 313.375C473.107 316.333 473.841 320.077 472.195 323.15C471.842 324.087 471.871 325.126 472.278 326.042C473.179 329.027 473.872 332.072 474.353 335.153L477.293 336.485C478.239 335.459 479.897 335.879 480.714 335.223C485.4 332.339 489.907 329.174 494.21 325.744C495.474 324.449 498.257 324.71 498.11 322.005C499.803 320.996 499.575 318.704 500.663 317.66C502.102 316.281 501.549 314.214 503.159 312.961C502.872 312.819 502.62 312.614 502.423 312.361C502.226 312.109 502.087 311.815 502.019 311.502C501.95 311.189 501.953 310.865 502.026 310.553C502.1 310.242 502.243 309.949 502.444 309.7C504.214 307.111 502.575 305.194 501.312 303.248C500.64 302.333 499.889 301.48 499.068 300.698C495.845 300.013 492.993 301.418 490.529 299.678C487.85 301.867 484.214 302.011 481.431 304.347C478.706 306.635 477.319 310.048 474.181 311.657H474.181Z" fill="#222323"/>
<path d="M592.955 568.978L589.193 572.524C588.643 575.106 588.406 577.531 585.18 578.425C585.004 581.136 582.834 582.884 580.913 584.806C579.21 587.06 577.154 589.024 574.824 590.621C572.279 591.819 571.181 594.468 568.3 595.384C565.726 596.008 563.361 597.296 561.441 599.12C558.193 598.829 554.92 599.163 551.799 600.103C551.343 600.318 550.846 600.429 550.342 600.427C549.838 600.424 549.342 600.308 548.888 600.088C546.612 598.358 544.1 599.609 541.33 598.979L539.933 597.171H537.453C534.675 594.089 531.4 591.495 527.764 589.494C525.129 587.32 522.876 584.72 521.099 581.802C518.982 577.499 515.756 573.837 511.754 571.194C510.927 569.227 508.65 567.987 508.987 565.608C507.622 563.966 505.385 563.744 504.561 561.364C503.841 559.285 499.713 557.633 496.928 557.183C496.5 557.114 496.129 556.694 495.574 556.332C493.807 558.062 491.899 559.643 489.87 561.056C485.967 563.866 483.242 568.02 482.22 572.719C481.605 574.482 480.058 575.799 480.091 577.847C480.429 579.611 480.119 581.438 479.219 582.992C478.944 583.509 478.8 584.084 478.799 584.67C478.799 585.255 478.942 585.832 479.216 586.349C480.707 588.339 479.817 590.462 480.155 592.436C479.875 593.134 479.33 593.692 478.639 593.99C477.948 594.287 477.167 594.3 476.467 594.024C473.212 590.82 473.75 586.187 472.219 582.031C473.723 579.426 474.39 576.423 474.129 573.427C475.229 569.803 477.78 567.71 478.486 564.502C478.744 563.242 479.427 562.108 480.419 561.29C481.655 560.274 482.695 559.042 483.488 557.653C484.023 556.78 485.904 556.184 486.733 555.042C488.223 553.501 490.012 552.282 491.991 551.458C493.97 550.634 496.097 550.224 498.24 550.253C500.028 550.109 501.826 550.155 503.603 550.394C507.526 551.367 509.609 554.992 513.016 556.709C513.512 556.929 514.022 557.116 514.542 557.272C516.573 560.442 519.183 563.201 522.236 565.406C523.115 567.623 524.153 569.773 525.342 571.84C526.732 574.021 529.211 575.277 530.977 577.189C532.158 578.812 533.543 580.276 535.099 581.545C536.854 582.681 538.47 584.018 539.915 585.529C541.672 587.366 543.792 588.816 546.141 589.788C548.489 590.76 551.015 591.232 553.556 591.175C555.22 591.158 556.884 591.172 558.49 591.172C567.708 586.561 575.05 578.908 579.276 569.509C579.832 569.322 580.371 569.091 580.889 568.816C581.298 568.499 581.67 568.137 582 567.737V563.705C583.847 562.432 585.23 560.592 585.943 558.465C586.531 555.657 588.973 553.686 589.181 550.575C590.536 549.134 591.627 547.466 592.406 545.647C593.591 542.709 597.013 541.395 599.984 540.273C601.942 539.404 604.149 539.278 606.193 539.919C608.237 540.56 609.977 541.924 611.087 543.755C611.711 544.478 612.513 545.024 613.415 545.339C615.402 546.242 617.272 547.385 618.983 548.742C619.885 549.491 620.724 550.313 621.49 551.2H624.45C626.385 556.178 631.927 556.681 635.352 559.964C639.748 560.688 644.32 560.957 648.809 562.063C650.848 562.169 652.881 561.774 654.732 560.914C659.037 559.616 663.075 557.561 666.657 554.844C669.941 552.803 672.862 550.229 675.301 547.228C676.961 547.154 678.572 546.643 679.972 545.749C681.372 544.854 682.511 543.607 683.276 542.132C684.176 540.815 685.989 540.39 686.268 538.492C686.529 536.704 688.682 536.309 689.624 534.981C689.927 534.238 690.082 533.441 690.078 532.638C691.983 531.329 693.581 529.623 694.765 527.637C695.948 525.652 696.688 523.435 696.933 521.137C700.681 518.279 705.017 516.292 709.629 515.32H717.334L718.94 518.01C718.507 519.571 717.67 520.991 716.515 522.126H712.825C712.72 522.315 712.476 523.475 711.885 523.692C710.697 524.127 709.65 524.878 708.859 525.866C708.068 526.854 707.562 528.039 707.396 529.294C706.207 532.506 704.515 535.509 702.383 538.19C700.902 540.606 698.937 542.689 696.613 544.31C693.404 547.465 689.856 550.257 686.034 552.634C684.668 555.964 681.072 556.78 678.582 558.721C676.53 560.946 674.124 562.815 671.461 564.253C668.866 565.187 666.465 566.646 663.916 567.726C660.216 569.779 656.098 570.962 651.874 571.187C650.09 571.111 648.746 572.759 646.787 572.226C640.978 571.606 635.214 570.625 629.527 569.289C628.349 568.96 627.233 568.435 626.227 567.739C625.684 567.1 624.976 566.624 624.18 566.363C623.383 566.101 622.53 566.065 621.715 566.258C620.814 565.74 621.064 565.189 621.005 564.723C620.329 563.663 619.128 564.575 618.128 563.92L615.943 560.491C614.54 560.069 613.054 560.224 612.036 558.815C610.939 557.426 609.537 556.309 607.939 555.549C605.634 554.356 603.756 552.477 602.565 550.171C600.929 550.349 599.969 551.082 600.072 552.37C600.252 554.63 596.876 555.506 598.025 558.034C597.006 559.61 596.09 561.266 594.941 562.742C593.928 564.692 593.257 566.801 592.955 568.978V568.978Z" fill="#212222"/>
<path d="M532.06 451.571C533.949 450.509 536.13 450.078 538.282 450.342L551.197 440.972L550.097 439.872C550.906 438.727 552.745 437.914 551.93 435.72L555.062 433.205V430.047C558.446 427.209 557.628 422.315 560.07 418.852L565.367 413.556C570.733 413.419 571.912 414.424 574.832 421.314C578.799 424.613 582.566 428.143 586.116 431.886L595.994 435.197C598.438 434.434 600.809 433.45 603.076 432.26C605.167 430.947 606.393 428.269 609.429 428.308C610.4 426.962 611.199 425.501 611.81 423.958C612.334 422.011 614.076 421.258 615.012 419.741V416.862C616.929 414.761 618.465 412.341 619.55 409.711C620.543 406.956 621.799 404.304 623.3 401.791C624.928 399.206 626.293 396.465 627.377 393.609C627.871 393.547 628.344 393.369 628.756 393.087C630.092 391.695 631.832 390.758 633.73 390.408C635.627 390.058 637.587 390.313 639.332 391.137C640.975 391.48 642.658 391.596 644.333 391.482C645.581 392.478 647.546 392.697 648.388 394.402C652.236 393.951 655.721 396.373 659.081 395.384L666.813 399.362C669.576 399.824 672.944 398.514 675.959 400.384C678.276 398.599 681.001 399.725 683.494 399.331C685.258 396.772 684.82 393.607 685.731 390.78C686.301 389.135 687.232 387.638 688.456 386.4C690.121 386.401 691.785 386.402 693.029 386.402C695.062 387.143 696.824 388.48 698.086 390.238C697.52 394.506 695.006 398.414 694.035 402.649C693.297 403.741 691.951 403.554 691.219 404.541C690.252 405.59 688.962 406.285 687.554 406.515C682.062 408.77 675.964 409.081 670.272 407.394C667.932 406.957 665.347 408.193 663.197 406.378C659.89 407.148 656.908 404.804 653.443 405.451C651.299 401.697 646.472 403.173 643.484 400.454C641.316 400.074 638.748 401.089 636.701 399.085C636.014 399.909 634.999 400.595 635.077 401.117C635.624 404.772 632.327 407.017 631.914 410.363C631.056 413.334 629.704 416.138 627.915 418.661C626.853 420.205 625.583 421.596 624.142 422.793C624.067 423.413 624.249 424.413 623.833 424.951C621.139 429.441 617.547 433.326 613.283 436.364C609.509 438.482 605.573 440.257 601.347 442.121C595.976 443.267 590.418 443.2 585.077 441.924C582.052 440.514 579.14 438.871 576.369 437.011C573.325 434.38 570.45 431.557 567.762 428.563C566.52 432.012 565.06 435.377 563.392 438.64C560.848 444.333 556.576 449.081 551.182 452.208C550.15 452.883 549.153 453.734 548.166 454.43C545.276 456.468 541.646 456.467 538.762 458.325C538.358 458.586 537.999 458.916 537.531 459.284H525.521C524.556 459.131 525.285 457.847 524.181 457.191C520.371 455.009 517.253 451.795 515.188 447.92C513.479 444.635 511.794 441.337 510.099 438.045C508.159 437.526 510.127 434.933 507.961 434.237C506.787 433.86 506.352 432.202 506.037 430.821C505.623 429.009 502.17 430.093 502.94 427.409C501.735 427.393 500.545 427.677 499.477 428.234C495.666 429.196 491.693 429.504 487.863 430.408C484.727 430.654 481.631 431.272 478.641 432.246C477.677 432.498 476.669 432.529 475.692 432.339C474.095 432.213 472.495 432.539 471.074 433.28C469.871 433.933 468.368 433.365 466.854 433.899C464.392 434.768 461.575 434.649 458.944 435.313C455.758 436.116 452.515 436.692 449.291 437.339C447.283 437.948 445.509 439.158 444.209 440.805L436.345 443.485C433.77 442.565 434.038 440.623 434.268 438.701C437.065 437.597 439.675 436.07 442.008 434.173C442.705 433.539 443.525 433.054 444.417 432.749C445.308 432.444 446.253 432.324 447.192 432.398C448.856 432.566 449.508 431.41 450.671 430.347C453.268 430.29 456.308 430.869 458.485 428.495C460.346 428.353 462.535 428.808 463.806 427.932C465.41 426.828 467.632 428.418 468.687 426.355C471.663 427.027 474.354 425.299 477.264 425.33C478.197 425.34 479.163 425.639 480.091 424.929C482.208 423.311 484.827 425.077 487.161 423.917C489.236 422.728 491.617 422.179 494.004 422.339C494.715 422.48 495.448 422.467 496.153 422.3C496.858 422.133 497.519 421.815 498.09 421.37C499.267 420.52 500.725 420.154 502.164 420.348C504.321 420.406 506.481 420.363 507.663 420.363C513.211 421.913 513.933 427.27 517.668 429.239C519.312 433.383 521.54 437.271 524.283 440.785C525.964 444.957 528.633 448.658 532.06 451.571V451.571Z" fill="#222222"/>
<path d="M474.18 311.656C477.318 310.047 478.706 306.634 481.43 304.347C484.213 302.01 487.849 301.866 490.529 299.678C492.992 301.417 495.844 300.012 499.067 300.697C499.889 301.479 500.64 302.333 501.311 303.247C502.575 305.194 504.214 307.11 502.444 309.7C502.242 309.949 502.1 310.241 502.026 310.553C501.952 310.865 501.95 311.188 502.018 311.501C502.087 311.814 502.225 312.108 502.423 312.361C502.62 312.613 502.871 312.818 503.159 312.96C501.548 314.213 502.101 316.281 500.663 317.66C499.575 318.703 499.802 320.995 498.109 322.004C498.256 324.709 495.473 324.448 494.209 325.743C489.907 329.174 485.4 332.339 480.714 335.222C479.896 335.878 478.239 335.459 477.292 336.484L474.352 335.153C473.872 332.071 473.179 329.027 472.277 326.041C471.871 325.126 471.841 324.086 472.195 323.149C473.84 320.077 473.107 316.332 475.083 313.374C475.204 313.194 474.683 312.584 474.18 311.656Z" fill="white"/>
</svg>
