<svg width="1208" height="900" viewBox="0 0 1208 900" fill="none" xmlns="http://www.w3.org/2000/svg">
<path d="M1008.79 785.613C1011.98 787.435 1014.88 788.969 1013.98 792.59C1012.9 796.96 1008.61 797.737 1005.2 798.193C990.455 800.167 975.64 801.467 960.779 802.517C944.401 803.675 928.144 806.458 911.801 808.223C905.944 808.855 899.993 807.935 894.072 808.611C886.654 809.458 879.158 809.925 871.795 810.874C868.298 811.325 865.043 810.27 861.468 810.967C856.542 811.836 851.548 812.266 846.546 812.251C837.517 812.41 828.503 813.062 819.544 814.199C814.624 814.794 809.569 814.167 804.584 814.336C786.928 814.934 769.328 816.424 751.624 816.589C738.981 816.708 726.293 817.963 713.6 818.486C699.527 819.067 685.485 820.602 671.41 821.541C658.241 822.419 645.076 824.057 631.932 825.498C623.724 826.398 615.439 826.871 607.231 827.852C601.56 828.631 595.828 828.868 590.111 828.565C582.93 828.603 575.761 829.144 568.655 830.183C565.011 830.44 561.336 830.204 557.677 830.298C545.936 830.6 534.169 830.563 522.464 831.384C508.067 832.395 493.675 832.084 479.278 832.302C462.484 832.557 445.684 833.384 428.9 833.113C419.608 832.963 410.394 834.514 401.233 834.055C391.042 833.545 381.06 835.086 370.986 835.471C355.131 836.078 339.334 838.078 323.49 839.146C319.575 839.21 315.669 838.746 311.878 837.766C310.858 837.477 309.98 836.821 309.412 835.925C308.844 835.029 308.626 833.954 308.8 832.908C308.936 826.429 308.861 819.939 309.251 813.477C309.109 811.608 308.812 809.757 308.363 807.937C307.868 802.609 310.42 797.788 310.022 792.454C309.784 789.266 313.597 786.883 314.312 783.44C314.623 781.942 315.612 780.118 313.066 780.442C307.317 780.316 301.565 780.542 295.844 781.118C293.253 781.761 292.943 782.46 292.716 784.736C292.324 788.677 286.359 794.741 283 794.019C281.504 793.696 280.167 792.857 279.225 791.651C278.282 790.444 277.793 788.945 277.842 787.415C278.255 784.47 277.636 781.473 276.089 778.933C275.757 778.344 275.658 777.651 275.811 776.992C275.964 776.333 276.358 775.756 276.916 775.374C278.003 774.233 278.816 772.861 279.294 771.36C279.771 769.859 279.902 768.268 279.675 766.709C279.54 758.622 279.975 750.538 280.975 742.512C281.797 737.357 282.364 732.16 282.666 727.022C283.154 718.739 283.007 710.516 284.266 702.182C284.594 697.672 284.468 693.141 283.889 688.656C283.466 684.377 283.719 680.058 284.641 675.858C284.822 671.52 284.764 667.176 284.468 662.844C284.459 655.292 284.922 647.746 285.854 640.252C287.111 632.661 287.433 624.944 286.813 617.274C286.789 604.069 287.853 590.9 288.073 577.695C288.19 570.665 288.107 563.664 288.197 556.674C288.228 552.477 288.508 548.284 289.036 544.12C290.24 535.172 290.462 526.223 291.011 517.257C291.456 512.593 292.134 507.954 293.042 503.358C294.108 496.861 293.08 490.29 294.738 483.843C296.27 475.216 297.162 466.488 297.408 457.73C298.173 450.422 298.411 442.681 299.494 435.575C299.568 428.602 300.333 421.652 301.776 414.829C304.225 408.027 301.527 400.888 302.823 393.994C304.579 382.114 305.169 370.091 304.584 358.096C304.514 350.415 304.809 342.682 304.317 334.935C303.894 328.264 304.484 321.108 304.281 314.336C304.623 308.438 304.549 302.523 304.059 296.635C303.476 293.384 303.676 290.04 304.645 286.882C305.031 282.966 304.757 279.012 303.835 275.187C303.427 264.629 302.667 254.052 302.945 243.507C302.421 233.023 302.501 222.517 303.186 212.042C303.054 207.106 302.137 202.222 300.469 197.575C299.475 192.114 300.452 186.702 299.974 181.353C299.435 175.326 302.625 169.356 299.884 163.38C298.753 160.914 300.548 158.508 300.305 155.874C300.009 152.645 300.226 149.329 299.969 146.018C299.854 145.451 299.864 144.866 299.998 144.303C300.131 143.74 300.386 143.214 300.743 142.759C301.1 142.304 301.552 141.931 302.067 141.668C302.582 141.404 303.148 141.256 303.726 141.233C304.217 141.21 305.008 141.329 305.154 141.083C310.61 131.873 320.228 135.98 327.82 134.561C338.937 132.483 350.334 131.944 361.502 129.557C367.99 128.38 374.597 127.995 381.178 128.411C385.541 128.562 388.014 126.379 387.474 123.096C386.402 116.583 390.281 111.947 392.01 106.486C395.787 97.1508 401.373 88.6547 408.447 81.487C411.485 77.6339 415.061 74.2379 419.066 71.4015C425.116 66.9074 432.278 64.1496 439.781 63.4254C445.455 62.2805 451.347 62.9782 456.597 65.4176C461.889 68.4366 466.421 72.6257 469.845 77.6649C471.65 80.7049 475.622 82.3239 475.655 86.6115C476.302 92.3423 477.439 98.0077 479.055 103.544C479.566 106.541 480.264 109.503 481.144 112.412C482.417 116.425 481.8 118.188 479.557 120.265C496.247 120.265 513.59 119.846 530.893 120.497C536.788 120.719 538.312 117.844 539.539 113.666C542.629 102.845 548.953 93.2285 557.664 86.1049C567.107 78.1898 578.318 72.6658 590.347 69.9989C595.397 68.5424 600.698 68.1727 605.901 68.9137C611.104 69.6548 616.09 71.4898 620.533 74.2982C623.855 76.4801 624.701 80.4501 627.55 83.0104C632.044 87.3738 635.036 93.0512 636.095 99.225C636.784 102.201 638.188 104.964 640.185 107.276C641.491 108.31 642.385 109.779 642.702 111.415C643.02 113.051 642.741 114.747 641.917 116.195C639.839 119.593 636.137 119.155 632.664 118.947C627.177 118.617 625.484 115.148 624.35 110.348C622.509 104.426 619.591 98.8935 615.742 94.0309C614.569 92.3158 612.816 90.8591 612.541 88.7111C611.94 84.0147 606.898 83.6338 604.639 80.3175C602.089 76.5743 597.741 78.4552 593.843 79.1688C585.114 81.2824 576.987 85.373 570.089 91.1244C564.292 95.3613 559.772 101.111 557.025 107.746C555.987 110.099 553.327 112.177 552.24 115.042C550.374 119.962 551.125 120.957 556.094 121.311C581.473 123.118 606.896 121.541 632.267 122.475C640.019 122.76 647.797 121.887 655.352 122.559C668.855 123.76 682.373 122.395 695.86 123.844C699.503 123.707 703.15 123.839 706.773 124.238C711.029 125.305 712.964 122.755 713.308 119.147C714.129 110.478 716.346 101.999 719.873 94.037C723.966 84.1094 731.219 75.8091 740.509 70.4225C746.125 66.4065 752.344 63.3088 758.933 61.2453C766.366 59.3655 774.232 60.3243 780.996 63.9333C788.032 68.2459 793.622 74.5568 797.055 82.0607C801.144 90.6635 804.719 99.5009 807.761 108.527C808.002 109.213 808.086 109.944 808.009 110.668C807.932 111.391 807.694 112.089 807.313 112.709C806.932 113.329 806.418 113.856 805.808 114.252C805.198 114.648 804.506 114.903 803.785 114.999C799.901 115.766 795.885 115.506 792.132 114.245C789.311 113.301 789.84 110.341 789.73 108.817C788.856 102.456 786.721 96.3338 783.45 90.8083C780.83 85.237 777.47 80.0453 773.46 75.3737C767.47 68.6152 767.248 67.7641 759.155 71.4552C748.753 75.4003 740.001 82.7667 734.34 92.3439C730.064 99.6965 727.357 107.854 726.387 116.304C726.428 117.127 726.35 117.951 726.153 118.751C724.039 124.343 724.593 124.639 730.705 124.35C740.271 123.992 749.85 124.184 759.395 124.922C764.778 125.283 770.359 125.172 775.853 125.214C792.238 125.337 808.638 124.867 825.009 125.368C841.601 125.875 858.175 126.887 874.731 128.405C885.731 129.421 896.781 130.012 907.755 131.884C912.546 132.701 917.798 132.806 922.831 133.281C928.649 133.831 930.494 136.892 929.321 142.948C928.387 147.769 930.89 152.634 929.435 157.558C929.848 158.12 930.403 158.562 931.043 158.838C931.684 159.114 932.386 159.215 933.078 159.129C937.19 158.244 941.353 157.615 945.542 157.247C954.452 155.521 963.45 154.294 972.497 153.572C979.988 152.774 987.536 152.662 995.048 153.236C996.08 153.343 997.08 153.653 997.991 154.149C998.901 154.646 999.705 155.318 1000.35 156.127C1001 156.936 1001.48 157.866 1001.77 158.862C1002.06 159.859 1002.15 160.902 1002.03 161.933C1002.05 165.372 1000.51 168.78 1002 172.354C1003.29 175.459 1000.97 178.56 1000.93 181.934C1001.46 187.065 1001.6 192.232 1001.34 197.384C999.535 207.772 998.801 218.316 999.149 228.853C999.549 237.518 998.642 246.349 999.561 254.78C1000.56 263.982 1001.06 273.259 1002.28 282.444C1003.85 294.258 1005.1 306.137 1007.25 317.847C1009.37 325.28 1011.02 332.837 1012.2 340.476C1014.46 351.67 1015.03 363.14 1013.87 374.502C1013.8 374.793 1013.26 375.175 1013.32 375.264C1017.99 382.325 1012.69 389.707 1014 396.917C1014.24 398.439 1014.16 399.994 1013.79 401.488C1013.41 402.982 1012.73 404.384 1011.8 405.611C1010.52 407.361 1011.7 408.925 1011.67 410.57C1011.54 418.316 1008.65 425.758 1008.44 433.417C1008.15 444.22 1005.48 454.801 1006.05 465.664C1006.4 472.358 1004.99 479.019 1005.33 485.789C1005.43 487.714 1006.18 489.399 1006.23 491.305C1006.1 496.023 1005.67 500.73 1004.97 505.398C1004.42 511.291 1005.91 516.959 1005.69 522.838C1004.91 529.165 1004.67 535.544 1004.95 541.912C1005.6 548.341 1004.98 554.834 1003.15 561.029C1002.32 564.141 1003.89 567.161 1003.29 570.471C1002.91 578.324 1003.19 586.196 1004.13 594.002C1004.38 596.614 1004.01 599.247 1003.05 601.69C1001.99 603.916 1001.84 606.466 1002.64 608.8C1003.48 611.659 1003.68 614.672 1003.21 617.617C1002.82 626.873 1003.58 636.142 1005.48 645.209C1005.49 650.934 1005.79 656.656 1006.37 662.351C1007.59 669.882 1005.9 677.261 1006.55 684.758C1006.71 689.067 1007.62 693.314 1009.25 697.309C1009.86 700.038 1009.87 702.868 1009.29 705.604C1009.06 710.66 1013.03 714.464 1012.15 719.37C1012.05 719.91 1012.98 720.766 1012.78 721.139C1009.23 727.978 1013.39 734.665 1013.49 741.414C1013.61 750.472 1012.55 759.481 1012.88 768.53C1012.72 769.988 1012.91 771.463 1013.42 772.837C1016.92 777.483 1015.2 780.767 1011.22 783.738C1010.54 784.236 1009.89 784.758 1008.79 785.613ZM308.618 143.972C309.694 149.017 310.198 154.168 310.121 159.326C308.636 171.721 309.86 184.116 309.022 196.445C308.755 200.374 312.161 201.802 312.118 205.354C311.987 216.113 313.615 226.87 312.863 237.637C312.218 246.874 315.22 255.836 314.677 264.96C313.978 276.695 315.31 288.368 315.359 300.075C315.391 307.557 314.626 315.064 315.367 322.654C316.492 334.174 315.978 345.841 316.028 357.448C316.077 369.039 316.478 380.619 315.682 392.2C315.338 397.199 314.855 402.188 314.554 407.189C314.43 416.81 313.801 426.417 312.668 435.972C311.666 441.944 311.788 447.9 311.01 453.833C309.659 464.143 309.476 474.601 308.307 484.94C306.209 499.719 304.934 514.603 304.488 529.523C304.216 535.696 303.616 541.849 302.69 547.958C302.259 550.748 302.034 553.566 302.015 556.389C302.277 563.816 301.623 571.248 301.559 578.683C301.472 588.808 299.707 598.935 299.389 609.141C299.931 612.905 299.889 616.729 299.263 620.48C297.415 625.546 296.804 630.982 297.482 636.332C298.86 654.013 297.605 671.628 297.624 689.264C296.983 693.773 296.711 698.329 296.812 702.882C297.404 708.343 297.437 713.848 296.911 719.315C296.731 726.186 295.128 733.04 295.199 739.89C295.286 748.24 293.441 756.372 293.347 764.661C292.859 767.22 292.907 769.853 293.489 772.393C294.477 774.405 297.364 772.368 299.414 772.312C308.847 772.055 318.328 772.004 327.685 770.94C338.637 769.695 349.591 768.699 360.592 768.369C369.972 768.088 379.38 768.574 388.748 768.13C396.575 767.581 404.425 767.438 412.266 767.7C423.487 768.345 434.674 767.896 445.858 768.098C462.262 768.394 478.698 767.692 495.102 767.005C506.778 766.515 518.501 766.88 530.106 766.101C544.457 765.137 558.838 764.72 573.188 763.682C584.878 762.836 596.625 762.598 608.341 761.753C622.498 760.732 636.722 760.62 650.878 759.583C675.232 757.798 699.646 757.09 723.993 755.039C738.633 753.806 753.365 753.366 768.054 752.603C780.74 751.944 793.451 752.147 806.114 750.523C814.962 749.387 823.981 749.544 832.811 748.316C846.391 746.426 860.081 746.401 873.683 745.088C881.109 744.402 888.566 744.098 896.023 744.18C897.425 744.189 899.548 744.396 898.718 741.968C897.182 735.454 896.579 728.756 896.926 722.073C896.122 718.047 895.913 713.924 896.308 709.838C897.004 706.037 896.523 702.113 894.93 698.593C894.506 697.717 894.198 696.79 894.014 695.834C893.934 684.439 891.592 673.239 891.615 661.769C890.253 653.561 889.781 645.23 890.206 636.92C891.968 628.665 887.629 620.439 890.417 612.13C892.207 606.794 890.67 600.876 892.587 595.497C894.299 588.952 894.855 582.158 894.227 575.421C893.139 569.065 893.063 562.577 894.002 556.196C897.224 547.861 893.803 540.093 895.309 532.044C896.703 524.595 893.966 516.43 897.844 509.009C898.027 508.545 898.103 508.045 898.066 507.548C898.088 501.143 897.769 494.718 898.178 488.34C898.764 479.224 897.899 470.102 898.51 461.027C898.875 455.611 898.431 450.274 898.49 444.923C898.566 438.102 898.591 431.289 898.379 424.473C898.177 418.025 899.785 411.742 900.121 405.366C900.513 397.933 904.471 391.373 904.526 383.784C904.799 378.015 905.682 372.291 907.161 366.708C908.243 355.861 908.608 344.955 908.252 334.06C908.272 328.69 907.858 323.327 907.014 318.024C905.946 307.462 906.179 296.81 907.71 286.305C909.441 276.507 910.824 266.663 912.522 256.868C914.301 244.341 914.664 231.654 913.607 219.046C913.397 214.994 912.412 213.766 908.267 213.836C905.162 214.066 902.045 214.083 898.937 213.888C879.349 211.472 859.613 212.681 839.985 211.204C824.305 210.024 808.568 209.616 792.865 208.725C779.043 207.939 765.208 207.362 751.388 206.564C724.409 205.005 697.354 204.756 670.33 203.985C657.725 203.625 645.08 204.501 632.536 204.113C606.875 203.318 581.226 203.838 555.584 203.842C530.784 203.846 505.989 205.672 481.181 206.132C469.029 206.357 456.824 205.984 444.681 206.171C422.025 206.52 399.339 205.453 376.707 207.284C367.348 208.041 357.959 207.69 348.569 208.746C339.528 209.353 330.463 209.506 321.407 209.204C319.902 209.221 318.664 208.745 318.483 207.163C318.421 206.789 318.441 206.405 318.54 206.039C318.64 205.673 318.817 205.331 319.059 205.039C319.302 204.747 319.605 204.512 319.948 204.347C320.29 204.183 320.663 204.093 321.043 204.086C324.162 203.703 327.195 202.922 330.385 202.772C338.592 202.386 347.011 202.659 354.96 201.471C372.147 198.902 389.42 198.491 406.649 197.45C424.948 196.345 443.326 196.459 461.671 196.222C476.263 196.034 490.86 196.422 505.436 195.213C510.558 194.788 515.738 195.113 520.887 194.96C533.519 194.585 546.146 194.067 558.778 193.731C567.138 193.508 575.516 193.182 583.862 193.508C589.458 193.727 595.028 193.219 600.652 193.623C605.325 194.133 610.034 194.25 614.727 193.972C624.587 192.974 634.408 193.787 644.218 193.599C652.87 193.432 661.672 194.052 670.336 194.144C687.874 194.332 705.333 196.075 722.847 196.034C734.464 196.007 745.963 197.468 757.529 197.905C773.659 198.515 789.787 198.948 805.917 199.738C826.765 200.759 847.637 202.453 868.558 201.871C870.551 201.791 872.547 201.882 874.524 202.144C887.136 203.553 899.83 204.104 912.518 203.79C914.442 203.809 914.935 203.167 915.203 201.265C915.72 197.588 914.314 194.006 914.574 190.587C915.165 182.802 914.819 175.046 914.739 167.298C914.657 159.373 914.888 151.475 915.064 143.353C907.561 142.383 899.892 141.15 892.175 140.44C872.592 138.636 852.939 137.923 833.306 136.868C828.476 136.608 823.763 137.405 818.925 136.985C809.71 136.186 800.43 136.033 791.172 135.86C773.475 135.527 755.773 135.435 738.076 135.087C734.086 135.008 730.144 135.205 726.176 135.457C724.115 135.587 723.497 136.168 723.189 138.306C721.818 147.411 721.86 156.673 723.314 165.766C723.971 169.756 722.574 173.472 719.5 173.533C715.498 173.613 714.16 170.802 713.465 167.205C711.726 157.506 710.999 147.653 711.295 137.804C711.327 135.804 710.677 135.201 708.65 134.688C704.216 134.208 699.74 134.264 695.32 134.852C686.59 134.689 677.866 134.172 669.136 134.049C659.037 133.908 648.934 134.123 638.834 134.022C623.161 133.866 607.487 133.683 591.819 133.289C584.705 133.459 577.586 133.249 570.494 132.661C564.024 131.809 557.449 131.774 550.928 131.268C549.008 131.12 548.228 131.54 548.338 133.661C548.686 137.532 548.705 141.425 548.393 145.299C547.639 153.778 547.925 162.316 549.245 170.725C549.873 175.794 548.402 178.548 544.575 178.911C539.593 179.384 539.017 175.48 538.595 172.09C537.173 165.741 536.29 159.282 535.953 152.785C536.164 147.142 534.853 141.284 535.531 135.486C535.988 131.585 534.612 130.023 530.564 130.282C523.572 130.973 516.541 131.191 509.52 130.935C497.568 130.075 485.708 131.563 473.813 131.729C452.902 132.02 432.049 134.429 411.215 136.496C407.914 136.823 404.581 136.818 401.268 137.044C400.182 137.118 398.517 136.991 398.806 138.701C399.469 142.622 397.765 146.329 398.451 150.382C399.423 157.683 400.764 164.929 402.47 172.094C402.795 173.231 402.728 174.444 402.28 175.538C401.831 176.633 401.028 177.543 399.998 178.125C397.732 179.36 396.156 177.599 394.998 176.016C390.995 170.302 388.345 163.751 387.249 156.861C386.376 151.913 386.385 146.641 385.755 141.486C385.304 137.793 383.977 137.845 381.709 137.973C374.119 138.043 366.542 138.61 359.027 139.669C342.397 142.836 325.533 142.171 308.618 143.972H308.618ZM468.469 121.422C465.954 120.432 465.353 118.822 464.274 116.807C461.929 112.427 463.678 107.457 461.2 103.179C458.306 98.1834 458.322 92.1058 455.122 86.8874C453.806 84.7418 452.81 81.1252 451.501 78.362C450.671 76.5991 449.34 75.1197 447.675 74.1078C446.01 73.096 444.084 72.5956 442.137 72.671C435.75 73.7091 429.866 76.7734 425.354 81.4113C417.582 88.2927 410.983 96.3938 405.814 105.396C402.334 112.133 399.914 119.365 398.639 126.84C422.22 125.068 445.098 121.267 468.469 121.421L468.469 121.422Z" fill="#212222"/>
<path d="M308.618 143.973C325.533 142.171 342.397 142.836 359.026 139.669C366.542 138.609 374.119 138.042 381.709 137.972C383.977 137.844 385.304 137.792 385.755 141.485C386.385 146.64 386.376 151.912 387.248 156.86C388.344 163.75 390.994 170.301 394.998 176.015C396.156 177.598 397.731 179.359 399.998 178.124C401.027 177.542 401.831 176.632 402.279 175.538C402.727 174.444 402.795 173.23 402.47 172.093C400.763 164.928 399.422 157.682 398.451 150.381C397.765 146.329 399.468 142.621 398.806 138.7C398.516 136.99 400.182 137.117 401.268 137.043C404.581 136.817 407.914 136.822 411.215 136.495C432.049 134.428 452.901 132.021 473.813 131.729C485.708 131.563 497.567 130.074 509.519 130.934C516.541 131.19 523.571 130.973 530.564 130.281C534.611 130.023 535.987 131.584 535.53 135.485C534.852 141.283 536.164 147.141 535.952 152.784C536.289 159.282 537.173 165.74 538.594 172.089C539.017 175.479 539.593 179.384 544.574 178.91C548.401 178.547 549.873 175.793 549.244 170.724C547.924 162.316 547.638 153.777 548.393 145.298C548.704 141.424 548.686 137.531 548.338 133.66C548.228 131.539 549.008 131.119 550.928 131.268C557.448 131.773 564.023 131.808 570.493 132.66C577.585 133.248 584.704 133.458 591.818 133.288C607.486 133.681 623.161 133.865 638.833 134.022C648.933 134.122 659.037 133.907 669.136 134.048C677.866 134.171 686.589 134.688 695.319 134.852C699.74 134.263 704.215 134.209 708.65 134.688C710.676 135.202 711.327 135.803 711.295 137.803C710.998 147.652 711.726 157.506 713.465 167.205C714.16 170.802 715.498 173.612 719.5 173.532C722.573 173.471 723.97 169.755 723.314 165.765C721.859 156.672 721.817 147.41 723.188 138.305C723.497 136.167 724.115 135.586 726.175 135.456C730.143 135.205 734.086 135.008 738.076 135.086C755.773 135.434 773.474 135.526 791.172 135.859C800.429 136.032 809.71 136.185 818.925 136.984C823.763 137.404 828.476 136.607 833.306 136.867C852.938 137.922 872.591 138.635 892.175 140.439C899.892 141.149 907.561 142.382 915.063 143.353C914.887 151.475 914.657 159.372 914.739 167.297C914.819 175.045 915.165 182.801 914.574 190.586C914.314 194.005 915.719 197.587 915.202 201.264C914.934 203.166 914.441 203.808 912.517 203.79C899.83 204.103 887.136 203.552 874.523 202.143C872.546 201.881 870.55 201.79 868.557 201.871C847.636 202.452 826.765 200.758 805.917 199.737C789.787 198.947 773.658 198.515 757.528 197.905C745.962 197.467 734.463 196.006 722.847 196.033C705.333 196.074 687.873 194.331 670.336 194.144C661.671 194.051 652.87 193.432 644.218 193.598C634.408 193.787 624.587 192.974 614.727 193.971C610.033 194.249 605.325 194.132 600.651 193.622C595.027 193.218 589.457 193.726 583.862 193.508C575.516 193.182 567.138 193.507 558.778 193.73C546.146 194.066 533.518 194.584 520.887 194.959C515.738 195.112 510.557 194.787 505.435 195.212C490.859 196.42 476.263 196.033 461.67 196.221C443.325 196.458 424.948 196.344 406.649 197.449C389.42 198.49 372.146 198.902 354.96 201.47C347.011 202.658 338.592 202.386 330.384 202.772C327.194 202.922 324.162 203.702 321.042 204.085C320.663 204.092 320.289 204.182 319.947 204.346C319.605 204.511 319.302 204.746 319.059 205.038C318.816 205.33 318.639 205.672 318.54 206.038C318.44 206.405 318.421 206.788 318.483 207.162C318.664 208.744 319.901 209.22 321.407 209.203C330.463 209.505 339.528 209.352 348.568 208.746C357.959 207.689 367.348 208.04 376.707 207.283C399.338 205.452 422.025 206.519 444.68 206.17C456.824 205.983 469.028 206.356 481.18 206.131C505.988 205.672 530.783 203.845 555.583 203.841C581.226 203.837 606.874 203.317 632.535 204.112C645.08 204.5 657.725 203.624 670.329 203.984C697.353 204.755 724.408 205.004 751.387 206.563C765.208 207.361 779.043 207.938 792.865 208.724C808.568 209.616 824.305 210.023 839.985 211.203C859.612 212.68 879.348 211.471 898.936 213.887C902.044 214.082 905.161 214.065 908.267 213.835C912.412 213.765 913.397 214.993 913.607 219.045C914.664 231.653 914.3 244.34 912.521 256.867C910.824 266.662 909.441 276.506 907.71 286.304C906.179 296.809 905.945 307.461 907.013 318.023C907.858 323.326 908.272 328.689 908.252 334.059C908.607 344.954 908.243 355.86 907.161 366.707C905.682 372.29 904.799 378.014 904.526 383.783C904.47 391.372 900.512 397.933 900.12 405.367C899.784 411.743 898.177 418.024 898.378 424.472C898.591 431.288 898.565 438.101 898.49 444.922C898.431 450.272 898.874 455.611 898.51 461.026C897.899 470.101 898.764 479.223 898.178 488.339C897.768 494.718 898.088 501.143 898.065 507.547C898.103 508.044 898.027 508.544 897.843 509.008C893.965 516.429 896.702 524.594 895.308 532.043C893.803 540.093 897.223 547.86 894.002 556.196C893.062 562.576 893.138 569.064 894.226 575.42C894.854 582.157 894.299 588.951 892.586 595.496C890.669 600.875 892.206 606.793 890.416 612.129C887.628 620.438 891.968 628.664 890.206 636.919C889.781 645.229 890.253 653.56 891.614 661.768C891.592 673.238 893.934 684.438 894.014 695.833C894.198 696.789 894.506 697.716 894.93 698.592C896.523 702.113 897.003 706.036 896.307 709.837C895.913 713.924 896.121 718.046 896.926 722.072C896.579 728.755 897.182 735.455 898.718 741.968C899.548 744.397 897.424 744.19 896.022 744.18C888.565 744.099 881.109 744.4 873.683 745.086C860.081 746.399 846.39 746.424 832.81 748.314C823.98 749.542 814.961 749.387 806.113 750.523C793.451 752.148 780.74 751.944 768.053 752.603C753.365 753.366 738.632 753.804 723.992 755.037C699.645 757.087 675.232 757.799 650.877 759.583C636.721 760.62 622.498 760.732 608.34 761.753C596.625 762.599 584.878 762.836 573.187 763.682C558.838 764.721 544.456 765.135 530.106 766.099C518.501 766.878 506.777 766.513 495.102 767.002C478.697 767.69 462.262 768.392 445.858 768.096C434.674 767.894 423.487 768.343 412.266 767.698C404.424 767.436 396.575 767.581 388.748 768.13C379.38 768.575 369.971 768.089 360.591 768.37C349.59 768.699 338.637 769.695 327.684 770.94C318.327 772.004 308.846 772.053 299.414 772.31C297.364 772.366 294.477 774.405 293.488 772.393C292.907 769.853 292.858 767.221 293.347 764.661C293.441 756.372 295.285 748.241 295.199 739.891C295.128 733.04 296.731 726.185 296.911 719.314C297.437 713.847 297.404 708.342 296.812 702.881C296.711 698.328 296.982 693.773 297.624 689.263C297.604 671.627 298.86 654.012 297.481 636.331C296.804 630.981 297.415 625.547 299.263 620.48C299.889 616.729 299.931 612.904 299.388 609.14C299.707 598.935 301.472 588.807 301.559 578.682C301.622 571.247 302.277 563.815 302.015 556.388C302.034 553.565 302.259 550.747 302.689 547.957C303.616 541.848 304.216 535.695 304.487 529.522C304.934 514.602 306.209 499.718 308.306 484.939C309.475 474.599 309.659 464.142 311.01 453.832C311.788 447.899 311.666 441.943 312.668 435.971C313.8 426.416 314.43 416.809 314.553 407.188C314.855 402.187 315.338 397.198 315.682 392.199C316.478 380.619 316.076 369.039 316.027 357.448C315.978 345.842 316.492 334.174 315.367 322.654C314.626 315.064 315.39 307.556 315.359 300.074C315.309 288.367 313.977 276.694 314.676 264.959C315.219 255.836 312.218 246.874 312.863 237.637C313.615 226.87 311.986 216.112 312.117 205.353C312.16 201.801 308.755 200.375 309.022 196.446C309.86 184.117 308.635 171.72 310.12 159.325C310.198 154.168 309.694 149.018 308.618 143.973V143.973ZM545.438 473.516C546.417 475.841 545.943 477.755 544.16 478.509C535.45 483.068 528.045 489.77 522.643 497.983C514.338 508.85 509.439 521.935 508.564 535.584C507.897 539.129 508.078 542.78 509.091 546.242C510.105 549.704 511.923 552.877 514.397 555.502C517.844 558.637 520.454 563.138 525.042 564.502C534.171 567.95 543.712 570.193 553.421 571.174C562.599 572.047 571.835 572.124 581.026 571.407C598.392 569.07 614.843 562.222 628.739 551.546C633.212 548.333 636.911 544.161 639.565 539.335C642.219 534.509 643.761 529.15 644.079 523.652C644.397 518.153 643.482 512.653 641.402 507.553C639.322 502.453 636.129 497.883 632.056 494.175C629.616 491.966 627.116 489.191 630.209 485.37C635.031 479.413 637.395 471.982 642.343 465.938C648.147 458.847 652.323 450.523 658.249 443.361C665.836 434.192 672.977 424.634 681.253 416.072C683.246 414.01 685.671 411.965 684.188 409.588C683.423 407.997 682.075 406.761 680.423 406.138C678.772 405.515 676.943 405.553 675.318 406.242C669.587 409.777 664.354 414.061 659.758 418.981C655.263 422.81 653.343 428.839 648.972 432.586C644.509 437.119 640.549 442.123 637.162 447.508C630.259 457.497 623.972 467.899 618.339 478.655C617.191 480.627 616.152 480.515 614.389 479.433C609.119 475.565 603.064 472.902 596.652 471.63C588.468 469.055 579.672 469.178 571.564 471.983C567.773 473.975 563.29 471.697 559.337 473.46C558.735 473.729 557.945 472.841 558.103 472.248C558.993 468.89 556.211 465.862 557.221 462.601C557.768 459.554 557.722 456.43 557.086 453.4C556.933 451.288 555.737 448.109 552.786 447.997C549.744 447.883 548.077 450.243 547.738 453.135C547.388 459.969 546.62 466.776 545.438 473.516ZM444.983 388.881C452.071 389.515 459.214 388.841 466.059 386.893C473.3 384.919 480.042 381.436 485.842 376.673C491.642 371.91 496.37 365.974 499.714 359.255C504.049 349.945 507.333 340.182 509.506 330.145C509.972 327.865 508.551 326.189 509.003 323.956C509.953 318.832 509.532 313.547 507.783 308.638C506.035 303.729 503.021 299.369 499.046 295.999C496.134 292.536 492.883 289.373 489.342 286.557C484.048 281.527 476.987 278.784 469.687 278.923C468.615 278.955 467.58 279.324 466.73 279.979C465.879 280.633 465.257 281.539 464.951 282.568C464.819 283.728 465.083 284.897 465.7 285.888C466.317 286.879 467.251 287.633 468.35 288.027C479.649 293.519 489.096 302.195 495.529 312.986C495.986 313.57 496.322 314.238 496.519 314.953C496.715 315.668 496.767 316.415 496.672 317.15C495.309 320.576 497.056 323.985 496.287 327.239C495.623 330.049 497.268 332.442 496.732 335.34C494.962 341.678 492.617 347.842 489.725 353.753C487.759 358.743 484.801 363.282 481.031 367.096C477.26 370.911 472.755 373.92 467.788 375.943C455.003 381.222 440.678 381.383 427.778 376.393C415.425 373.004 403.917 367.07 393.991 358.973C390.22 356.355 387.384 352.602 385.896 348.26C384.407 343.918 384.344 339.213 385.716 334.832C388.38 326.332 392.133 318.213 396.881 310.676C401.959 303.007 407.828 295.892 414.391 289.449C419.88 283.774 426.69 279.548 434.211 277.147C435.947 276.559 438.053 277.011 437.805 274.285C437.558 271.576 435.358 272.173 433.622 271.94C427.659 271.956 421.89 274.06 417.316 277.885C408.528 282.631 400.924 289.298 395.07 297.389C388.054 306.714 382.019 316.737 377.06 327.299C373.353 333.938 372.364 341.754 374.299 349.107C376.234 356.46 380.943 362.776 387.437 366.73C396.261 373.078 405.847 378.293 415.97 382.253C425.205 386.062 435.01 388.303 444.983 388.881V388.881ZM599.586 277.851C596.707 278.744 593.478 277.985 590.141 278.663C582.263 281.126 575.002 285.243 568.842 290.737C566.318 292.437 564.023 294.453 562.012 296.736C555.431 305.261 551.492 315.526 550.68 326.264C547.746 347.058 558.859 359.397 574.122 368.897C580.627 372.968 587.879 375.698 595.454 376.927C603.492 378.822 611.822 379.138 619.981 377.857C624.425 376.86 628.729 375.247 633.101 373.929C635.649 373.358 638.091 372.384 640.333 371.044C652.073 362.806 661.204 351.374 666.644 338.104C670.341 329.95 670.973 320.737 668.424 312.155C667.267 308.309 665.37 304.726 662.84 301.607C657.396 294.472 650.677 288.406 643.023 283.72C633.605 278.22 622.75 275.678 611.869 276.425C607.837 277.339 603.719 277.817 599.586 277.851V277.851ZM761.814 375.906C772.9 375.53 783.805 372.984 793.91 368.411C801.225 365.378 807.532 360.334 812.099 353.865C816.666 347.396 819.307 339.766 819.717 331.857C819.969 329.391 818.92 326.567 819.776 324.43C820.404 322.176 820.515 319.809 820.1 317.505C819.685 315.202 818.755 313.022 817.379 311.128C814.468 305.543 810.927 300.308 806.826 295.528C802.446 290.242 796.801 286.151 790.415 283.633C784.029 281.116 777.11 280.255 770.302 281.131C767.982 281.327 765.646 281.195 763.362 280.74C757.877 278.855 751.955 278.64 746.347 280.121C735.906 283.382 726.392 289.083 718.594 296.753C712.81 304.014 708.871 312.568 707.115 321.684C706.307 327.656 706.319 333.711 707.152 339.679C707.469 346.524 709.808 353.12 713.874 358.635C717.941 364.149 723.551 368.335 729.996 370.661C740.069 374.794 750.948 376.587 761.814 375.906V375.906ZM734.341 560.575C748.639 560.826 762.791 557.67 775.627 551.368C783.84 548.7 791.137 543.776 796.685 537.159C802.233 530.541 805.807 522.497 807 513.945C807.395 509.65 806.932 505.318 805.637 501.204C804.342 497.09 802.243 493.274 799.459 489.979C794.996 484.142 789.341 479.323 782.87 475.842C774.649 470.984 765.589 467.713 756.161 466.198C745.592 465.571 734.99 465.769 724.452 466.79C722.475 466.658 720.49 466.855 718.578 467.374C709.815 470.148 701.907 475.117 695.605 481.81C689.304 488.502 684.819 496.694 682.576 505.608C680.181 513.055 679.612 520.968 680.914 528.681C682.318 535.166 685.498 541.132 690.099 545.912C694.7 550.693 700.54 554.098 706.967 555.749C715.764 558.852 725.013 560.483 734.341 560.575V560.575ZM426.304 574.583C432.28 574.728 438.192 573.337 443.477 570.544C456.291 565.166 466.615 555.167 472.399 542.531C473.903 539.478 474.784 536.139 476.076 533.146C477.614 529.586 475.788 526.638 476.457 523.355C478.705 515.534 478.066 507.165 474.658 499.775C471.36 493.349 466.897 487.592 461.495 482.798C456.19 478.78 450.499 475.3 444.505 472.408C438.487 469.058 431.609 471.941 425.985 467.885C424.455 466.782 421.227 468.307 418.802 468.598C397.367 471.169 382.857 484.987 368.939 499.419C364.158 504.737 360.711 511.114 358.88 518.027C357.111 523.804 356.696 529.911 357.668 535.875C359.403 542.395 363.305 548.131 368.733 552.139C376.383 559.48 385.406 565.24 395.284 569.091C405.163 572.942 415.704 574.809 426.304 574.583V574.583Z" fill="white"/>
<path d="M468.469 121.422C445.097 121.268 422.22 125.069 398.639 126.84C399.914 119.366 402.334 112.133 405.814 105.396C410.983 96.3943 417.582 88.2931 425.354 81.4117C429.866 76.7739 435.75 73.7095 442.137 72.6715C444.084 72.5961 446.01 73.0952 447.675 74.1071C449.34 75.1189 450.67 76.5996 451.5 78.3624C452.81 81.1256 453.806 84.7422 455.122 86.8878C458.322 92.1062 458.305 98.1826 461.199 103.178C463.678 107.456 461.929 112.428 464.273 116.807C465.352 118.823 465.954 120.432 468.469 121.422Z" fill="white"/>
<path d="M545.438 473.517C546.62 466.777 547.388 459.97 547.738 453.136C548.077 450.244 549.745 447.883 552.786 447.998C555.738 448.109 556.934 451.289 557.087 453.401C557.722 456.43 557.768 459.555 557.221 462.601C556.211 465.863 558.994 468.891 558.103 472.249C557.946 472.842 558.735 473.729 559.338 473.461C563.291 471.698 567.773 473.976 571.565 471.984C579.673 469.179 588.468 469.055 596.652 471.631C603.064 472.903 609.119 475.566 614.389 479.434C616.152 480.515 617.191 480.628 618.339 478.656C623.973 467.899 630.259 457.498 637.162 447.509C640.549 442.124 644.509 437.12 648.972 432.587C653.344 428.84 655.263 422.811 659.758 418.982C664.355 414.062 669.588 409.778 675.318 406.243C676.943 405.553 678.772 405.516 680.423 406.139C682.075 406.762 683.423 407.998 684.188 409.589C685.671 411.965 683.246 414.011 681.253 416.073C672.977 424.635 665.836 434.193 658.25 443.362C652.323 450.524 648.148 458.848 642.343 465.939C637.396 471.983 635.032 479.414 630.209 485.371C627.116 489.192 629.616 491.967 632.056 494.176C636.129 497.884 639.322 502.454 641.402 507.554C643.483 512.654 644.397 518.154 644.079 523.652C643.761 529.151 642.219 534.51 639.565 539.336C636.911 544.162 633.212 548.333 628.739 551.547C614.843 562.223 598.393 569.07 581.026 571.408C571.835 572.125 562.599 572.047 553.421 571.174C543.712 570.194 534.172 567.951 525.042 564.503C520.454 563.139 517.845 558.638 514.397 555.503C511.923 552.878 510.106 549.704 509.092 546.243C508.078 542.781 507.897 539.13 508.565 535.585C509.439 521.935 514.338 508.851 522.643 497.983C528.045 489.77 535.451 483.069 544.16 478.51C545.943 477.755 546.417 475.841 545.438 473.517ZM545.408 486.637C541.842 488.964 538.616 491.776 535.824 494.992C525.224 506.974 519.434 522.456 519.57 538.453C519.393 542.206 520.391 545.92 522.423 549.08C524.456 552.239 527.423 554.687 530.912 556.082C537.882 559.335 545.311 561.497 552.938 562.492C559.319 563.231 565.744 563.517 572.165 563.347C582.679 563.218 593.042 560.819 602.542 556.312C615.013 550.269 626.57 544.049 631.527 529.616C632.739 524.837 632.665 519.823 631.313 515.082C629.961 510.341 627.379 506.043 623.829 502.622C621.542 501.041 620.267 501.54 619.499 503.683C615.583 512.411 610.33 520.475 603.928 527.583C600.475 532.421 595.555 536.015 589.898 537.836C585.455 539.292 580.744 539.749 576.104 539.171C571.464 538.594 567.009 536.996 563.059 534.495C558.688 532.197 555.083 528.673 552.688 524.354C547.491 512.479 545.003 499.594 545.408 486.637H545.408ZM568.984 479.734C565.176 479.433 561.364 480.247 558.012 482.075C556.751 483.025 558.047 486.93 557.499 489.336C556.017 500.512 558.981 511.824 565.754 520.836C567.32 523.861 569.806 526.309 572.854 527.83C575.901 529.35 579.353 529.863 582.711 529.296C588.792 528.437 592.707 522.752 595.33 517.046C597.209 512.012 600.106 507.42 603.842 503.557C607.761 500.161 606.888 494.547 611.099 491.797C611.785 491.349 611.19 490.526 610.647 490.191C605.692 486.434 600.071 483.65 594.08 481.986C585.934 480.579 577.568 480.443 568.983 479.734H568.984Z" fill="#212222"/>
<path d="M444.983 388.882C435.01 388.304 425.205 386.063 415.97 382.254C405.847 378.294 396.261 373.079 387.437 366.731C380.943 362.777 376.234 356.461 374.299 349.108C372.364 341.755 373.353 333.939 377.06 327.3C382.019 316.738 388.054 306.715 395.07 297.391C400.924 289.299 408.528 282.633 417.316 277.886C421.89 274.061 427.659 271.957 433.622 271.941C435.358 272.174 437.558 271.577 437.805 274.286C438.053 277.012 435.947 276.56 434.211 277.148C426.689 279.549 419.88 283.775 414.391 289.45C407.828 295.894 401.959 303.009 396.881 310.677C392.133 318.214 388.38 326.333 385.715 334.833C384.344 339.214 384.407 343.919 385.896 348.261C387.384 352.603 390.221 356.356 393.991 358.974C403.917 367.071 415.425 373.005 427.778 376.395C440.678 381.385 455.003 381.223 467.788 375.944C472.755 373.921 477.26 370.912 481.031 367.098C484.801 363.284 487.759 358.744 489.725 353.754C492.617 347.843 494.962 341.679 496.732 335.341C497.268 332.443 495.623 330.05 496.287 327.24C497.056 323.986 495.309 320.577 496.672 317.151C496.767 316.416 496.715 315.669 496.519 314.954C496.323 314.239 495.986 313.571 495.529 312.988C489.096 302.196 479.649 293.52 468.35 288.028C467.251 287.634 466.317 286.88 465.7 285.889C465.084 284.898 464.819 283.729 464.951 282.569C465.257 281.541 465.879 280.634 466.729 279.98C467.58 279.326 468.615 278.956 469.687 278.924C476.987 278.785 484.049 281.529 489.342 286.558C492.883 289.375 496.134 292.538 499.046 296C503.021 299.37 506.035 303.73 507.783 308.639C509.532 313.549 509.953 318.833 509.003 323.957C508.552 326.19 509.972 327.865 509.505 330.146C507.333 340.183 504.049 349.946 499.714 359.256C496.37 365.975 491.642 371.911 485.842 376.674C480.042 381.437 473.3 384.92 466.059 386.894C459.214 388.842 452.07 389.516 444.983 388.882V388.882Z" fill="#212222"/>
<path d="M599.585 277.852C603.719 277.817 607.837 277.339 611.869 276.425C622.75 275.678 633.605 278.22 643.024 283.721C650.678 288.407 657.397 294.471 662.84 301.606C665.371 304.725 667.267 308.309 668.424 312.156C670.973 320.737 670.341 329.95 666.644 338.103C661.204 351.374 652.073 362.807 640.333 371.045C638.091 372.385 635.649 373.358 633.101 373.928C628.729 375.247 624.425 376.859 619.982 377.856C611.823 379.137 603.493 378.821 595.454 376.926C587.88 375.698 580.627 372.968 574.122 368.896C558.859 359.396 547.746 347.058 550.68 326.265C551.492 315.526 555.431 305.261 562.012 296.737C564.023 294.453 566.318 292.436 568.842 290.736C575.002 285.243 582.263 281.127 590.141 278.663C593.478 277.986 596.706 278.745 599.585 277.852ZM605.906 369.236C613.913 370.11 622.006 368.724 629.267 365.236C636.528 361.747 642.666 356.295 646.988 349.497C653.249 342.409 656.646 333.243 656.516 323.787C656.232 321.845 658.166 320.067 656.885 317.709C653.383 309.966 648.212 303.094 641.744 297.583C636.527 292.896 630.321 289.444 623.588 287.484C618.063 286.104 612.377 285.478 606.685 285.623C598.011 285.47 589.512 288.062 582.399 293.029C575.783 297.141 570.372 302.931 566.718 309.812C563.064 316.693 561.296 324.418 561.594 332.203C561.992 336.877 563.335 341.421 565.542 345.56C567.748 349.7 570.771 353.348 574.429 356.284C583.15 364.044 594.249 368.611 605.906 369.236V369.236Z" fill="#212222"/>
<path d="M761.813 375.906C750.947 376.587 740.068 374.793 729.996 370.661C723.551 368.335 717.94 364.15 713.874 358.635C709.808 353.121 707.468 346.524 707.152 339.679C706.319 333.711 706.306 327.655 707.115 321.683C708.871 312.568 712.81 304.014 718.594 296.753C726.392 289.083 735.906 283.381 746.346 280.121C751.954 278.639 757.876 278.854 763.361 280.74C765.645 281.195 767.981 281.328 770.301 281.132C777.109 280.256 784.028 281.117 790.414 283.634C796.8 286.151 802.446 290.242 806.825 295.527C810.927 300.308 814.468 305.542 817.379 311.128C818.754 313.022 819.684 315.202 820.099 317.505C820.514 319.808 820.404 322.175 819.776 324.43C818.92 326.567 819.969 329.39 819.717 331.857C819.307 339.765 816.665 347.396 812.098 353.865C807.531 360.334 801.225 365.378 793.91 368.411C783.804 372.984 772.899 375.53 761.813 375.906V375.906ZM760.118 366.676C770.874 366.762 781.461 363.998 790.802 358.665C795.18 356.261 798.926 352.857 801.737 348.729C804.548 344.602 806.343 339.868 806.976 334.915C807.26 328.448 806.315 321.987 804.19 315.873C802.511 309.894 799.212 304.496 794.656 300.276C790.101 296.056 784.467 293.178 778.377 291.961C773.961 291.348 769.566 290.538 765.135 290.082C761.998 289.759 760.152 286.931 756.64 286.859C747.496 287.292 738.877 291.254 732.597 297.914C727.32 302.697 723.291 308.697 720.862 315.392C718.433 322.087 717.676 329.275 718.659 336.329C719.033 341.638 720.808 346.752 723.803 351.151C726.798 355.55 730.907 359.077 735.709 361.371C743.426 364.7 751.715 366.502 760.118 366.676V366.676Z" fill="#212222"/>
<path d="M734.341 560.575C725.012 560.482 715.764 558.851 706.966 555.748C700.54 554.097 694.699 550.692 690.098 545.912C685.497 541.131 682.317 535.165 680.914 528.68C679.611 520.967 680.181 513.054 682.575 505.608C684.818 496.693 689.304 488.501 695.605 481.809C701.906 475.116 709.814 470.147 718.578 467.373C720.49 466.855 722.475 466.657 724.451 466.789C734.99 465.768 745.591 465.57 756.16 466.197C765.588 467.712 774.648 470.984 782.87 475.841C789.341 479.322 794.996 484.141 799.459 489.978C802.242 493.273 804.342 497.089 805.637 501.203C806.931 505.318 807.395 509.647 807 513.943C805.807 522.495 802.232 530.54 796.685 537.158C791.137 543.776 783.84 548.699 775.627 551.367C762.79 557.669 748.638 560.825 734.341 560.575ZM739.439 551.53C746.999 552.394 754.649 551.09 761.496 547.769C775.614 541.173 790.296 535.481 794.636 518.104C795.842 515.011 796.277 511.671 795.905 508.372C795.532 505.074 794.363 501.916 792.497 499.17C784.711 488.819 773.638 481.423 761.095 478.194C752.778 475.984 744.106 475.437 735.577 476.583C730.274 477.348 724.539 480.397 719.948 474.668C719.839 474.532 719.011 474.779 718.678 475.046C715.362 477.705 711.133 478.757 707.912 481.742C702.756 486.306 698.558 491.849 695.562 498.049C692.566 504.249 690.83 510.982 690.457 517.857C689.592 523.238 690.521 528.753 693.101 533.553C695.68 538.353 699.766 542.172 704.73 544.421C715.601 549.422 727.477 551.855 739.439 551.532V551.53Z" fill="#212222"/>
<path d="M426.304 574.583C415.703 574.808 405.162 572.942 395.284 569.091C385.405 565.24 376.382 559.48 368.732 552.139C363.304 548.131 359.402 542.395 357.667 535.874C356.695 529.911 357.11 523.804 358.879 518.026C360.71 511.114 364.157 504.736 368.938 499.418C382.856 484.986 397.367 471.168 418.802 468.597C421.226 468.306 424.454 466.78 425.984 467.884C431.609 471.939 438.486 469.056 444.504 472.406C450.498 475.298 456.189 478.779 461.494 482.797C466.896 487.591 471.36 493.347 474.657 499.773C478.065 507.163 478.704 515.532 476.456 523.354C475.787 526.636 477.613 529.586 476.075 533.146C474.783 536.139 473.902 539.478 472.398 542.531C466.614 555.167 456.29 565.166 443.476 570.544C438.192 573.337 432.279 574.728 426.304 574.583V574.583ZM464.1 512.375C463.787 510.237 465.225 507.862 463.423 505.952C462.492 505.066 461.751 504 461.246 502.818C460.74 501.636 460.481 500.364 460.482 499.079C460.367 498.187 460.053 497.332 459.564 496.579C459.075 495.825 458.423 495.191 457.656 494.723C450.09 488.788 441.709 483.975 432.769 480.434C430.184 479.558 425.861 479.969 424.966 476.353C424.178 473.166 422.508 473.649 420.38 474.008C412.367 475.713 404.808 479.102 398.203 483.949C390.639 488.23 384.024 494.003 378.758 500.917C373.493 507.831 369.686 515.743 367.57 524.173C366.468 528.737 366.821 533.531 368.577 537.885C370.334 542.239 373.407 545.936 377.367 548.459C383.212 552.307 389.254 555.845 395.47 559.059C404.873 563.774 415.23 566.275 425.748 566.372C431.3 566.127 436.727 564.651 441.638 562.051C446.549 559.451 450.82 555.793 454.144 551.339C456.753 549.041 458.865 546.232 460.348 543.086C464.095 533.311 465.384 522.765 464.1 512.375V512.375Z" fill="#212222"/>
<path d="M545.408 486.637C545.003 499.593 547.49 512.479 552.688 524.354C555.083 528.673 558.687 532.197 563.059 534.494C567.009 536.996 571.464 538.592 576.104 539.17C580.744 539.747 585.454 539.292 589.897 537.835C595.555 536.015 600.475 532.42 603.927 527.583C610.329 520.475 615.583 512.411 619.499 503.684C620.267 501.54 621.542 501.042 623.829 502.623C627.379 506.044 629.961 510.342 631.313 515.083C632.665 519.824 632.739 524.838 631.527 529.616C626.569 544.05 615.013 550.269 602.543 556.312C593.042 560.818 582.679 563.219 572.165 563.348C565.744 563.518 559.318 563.23 552.938 562.491C545.31 561.496 537.882 559.335 530.912 556.081C527.423 554.687 524.456 552.24 522.423 549.081C520.391 545.921 519.393 542.207 519.57 538.454C519.434 522.457 525.224 506.975 535.824 494.992C538.616 491.777 541.842 488.964 545.408 486.637V486.637Z" fill="white"/>
<path d="M568.983 479.733C577.568 480.441 585.933 480.578 594.079 481.986C600.071 483.65 605.692 486.434 610.647 490.191C611.19 490.526 611.785 491.349 611.099 491.797C606.887 494.547 607.761 500.162 603.842 503.559C600.106 507.421 597.208 512.012 595.329 517.046C592.707 522.751 588.792 528.437 582.711 529.296C579.353 529.863 575.901 529.35 572.853 527.83C569.806 526.309 567.32 523.861 565.753 520.836C558.98 511.824 556.016 500.512 557.498 489.336C558.046 486.93 556.75 483.025 558.011 482.075C561.364 480.246 565.176 479.432 568.983 479.733V479.733Z" fill="white"/>
<path d="M605.906 369.235C594.249 368.61 583.15 364.044 574.429 356.283C570.772 353.347 567.748 349.699 565.542 345.56C563.336 341.42 561.993 336.876 561.594 332.203C561.296 324.418 563.064 316.692 566.718 309.811C570.372 302.931 575.783 297.14 582.4 293.028C589.512 288.061 598.012 285.469 606.685 285.622C612.377 285.477 618.064 286.104 623.588 287.483C630.322 289.443 636.527 292.894 641.744 297.581C648.213 303.092 653.383 309.965 656.885 317.708C658.166 320.067 656.232 321.844 656.516 323.786C656.646 333.242 653.25 342.408 646.989 349.496C642.667 356.294 636.528 361.746 629.267 365.235C622.006 368.724 613.914 370.109 605.906 369.235Z" fill="white"/>
<path d="M760.119 366.676C751.716 366.502 743.426 364.7 735.709 361.371C730.907 359.077 726.799 355.552 723.804 351.153C720.808 346.753 719.033 341.638 718.66 336.33C717.677 329.276 718.433 322.088 720.863 315.393C723.292 308.698 727.32 302.698 732.598 297.915C738.878 291.256 747.497 287.292 756.64 286.859C760.153 286.931 761.998 289.759 765.135 290.082C769.567 290.538 773.961 291.348 778.378 291.961C784.467 293.178 790.101 296.056 794.657 300.276C799.212 304.496 802.512 309.894 804.19 315.873C806.315 321.987 807.26 328.449 806.976 334.915C806.344 339.868 804.549 344.602 801.738 348.729C798.927 352.857 795.18 356.262 790.803 358.666C781.462 363.999 770.875 366.762 760.119 366.676Z" fill="white"/>
<path d="M739.439 551.533C727.477 551.857 715.602 549.424 704.731 544.424C699.767 542.175 695.681 538.356 693.101 533.556C690.522 528.756 689.593 523.239 690.458 517.859C690.831 510.983 692.567 504.25 695.563 498.051C698.559 491.851 702.757 486.308 707.912 481.743C711.134 478.759 715.362 477.707 718.678 475.048C719.012 474.781 719.84 474.534 719.949 474.669C724.54 480.399 730.275 477.349 735.578 476.584C744.107 475.438 752.778 475.985 761.095 478.196C773.638 481.425 784.712 488.821 792.498 499.171C794.363 501.917 795.533 505.077 795.905 508.375C796.278 511.674 795.843 515.013 794.637 518.105C790.296 535.482 775.614 541.175 761.496 547.771C754.649 551.091 746.999 552.396 739.439 551.533V551.533Z" fill="white"/>
<path d="M464.1 512.375C465.383 522.765 464.095 533.311 460.348 543.087C458.865 546.232 456.753 549.041 454.143 551.34C450.82 555.793 446.548 559.453 441.638 562.053C436.727 564.653 431.299 566.128 425.748 566.373C415.23 566.276 404.873 563.774 395.47 559.059C389.254 555.845 383.211 552.307 377.367 548.459C373.407 545.937 370.333 542.241 368.577 537.886C366.82 533.532 366.468 528.737 367.57 524.173C369.686 515.743 373.492 507.832 378.758 500.917C384.024 494.003 390.639 488.23 398.203 483.95C404.808 479.102 412.367 475.714 420.38 474.008C422.507 473.649 424.178 473.166 424.966 476.353C425.861 479.97 430.184 479.559 432.769 480.434C441.708 483.976 450.09 488.788 457.655 494.724C458.422 495.192 459.075 495.826 459.564 496.58C460.053 497.334 460.367 498.188 460.482 499.079C460.48 500.364 460.74 501.636 461.245 502.818C461.751 504 462.491 505.067 463.422 505.954C465.225 507.864 463.788 510.237 464.1 512.375Z" fill="white"/>
</svg>
