<svg width="1208" height="900" viewBox="0 0 1208 900" fill="none" xmlns="http://www.w3.org/2000/svg">
<path d="M70.923 65.0846C71.6791 65.0119 72.4408 65.0197 73.1953 65.1078C74.0954 65.3034 75.0355 65.1816 75.8561 64.7631C76.6767 64.3445 77.3273 63.655 77.6975 62.8115C81.371 57.5589 86.2027 53.2208 91.8193 50.1323C93.2305 48.9192 94.7752 47.8707 96.4236 47.007C100.735 45.8572 104.955 44.3869 109.048 42.6082C110.758 41.8682 112.586 41.439 114.447 41.341C116.173 41.2222 117.865 40.8061 119.45 40.1112C121.231 39.4113 123.138 39.0872 125.051 39.159C127.57 39.0908 130.065 38.6392 132.448 37.8195C133.807 37.3444 135.246 37.1468 136.682 37.2381C138.918 37.301 141.148 36.9786 143.274 36.2851C145.122 35.5147 147.404 36.9801 149.379 35.298C150.052 34.7246 151.626 35.2071 152.788 35.2071C161.918 35.2071 171.049 35.2413 180.179 35.1772C181.952 35.496 183.777 35.3643 185.486 34.7943C186.742 34.1251 188.25 36.0234 189.482 34.2682C189.756 33.878 191.131 33.9981 191.879 34.2448C197.659 35.2908 203.545 35.6211 209.406 35.2281C210.853 35.0432 212.324 35.2143 213.691 35.7266C214.445 36.1471 216.056 35.4554 216.993 35.0712C218.806 34.3284 220.107 37.8072 221.775 35.3832C223.28 36.622 225.071 36.1529 226.768 36.1928C228.593 36.2357 230.42 36.2027 232.246 36.2027H242.704C244.531 36.2027 246.357 36.1866 248.183 36.2102C248.98 36.1421 249.779 36.3216 250.471 36.7241C251.062 37.1501 251.778 37.3657 252.505 37.3365C253.232 37.3072 253.929 37.0348 254.483 36.5628C254.71 36.3767 255.183 36.1356 255.306 36.2295C258.874 38.9487 262.409 35.3768 265.957 36.1973C267.781 36.6191 269.115 34.8776 271.032 35.119C271.812 35.3777 272.643 35.4472 273.455 35.3218C274.267 35.1964 275.038 34.8797 275.704 34.3977C276.262 33.8935 277.597 34.2199 278.578 34.2167C282.396 34.2042 286.216 34.2857 290.032 34.1845C292.433 34.5982 294.904 34.2749 297.118 33.2573C298.757 32.1715 300.278 34.8083 301.992 33.8262C302.624 33.3138 303.419 33.0466 304.232 33.0737C305.045 33.1007 305.821 33.4201 306.417 33.9733C306.537 34.0747 306.678 34.1468 306.831 34.1841C306.983 34.2215 307.142 34.2229 307.295 34.1884C311.345 32.0568 315.668 33.5356 319.847 33.278C324.312 33.0027 328.808 33.216 333.29 33.216C337.606 33.216 341.924 33.2811 346.239 33.189C348.448 33.1418 350.8 33.8239 352.802 32.2236C354.006 31.2611 354.908 33.8004 356.583 32.3685C357.542 31.5488 359.777 32.1801 361.436 32.2323C362.85 32.2768 364.421 31.7737 365.506 33.216L375.436 33.1433C376.217 31.657 376.937 33.2373 377.623 33.1617C379.498 32.9549 381.524 33.9826 383.283 32.3721C383.622 32.1384 384.029 32.024 384.44 32.047C384.851 32.0699 385.242 32.2288 385.553 32.4987C386.425 33.3588 387.163 33.5898 387.977 32.5456C388.365 32.0471 388.882 32.1944 389.339 32.2352C390.898 32.3748 392.197 33.4158 393.913 33.2875C395.53 33.1666 396.707 31.7929 398.488 32.1603C399.949 32.5087 401.473 32.4958 402.928 32.1228C404.162 31.7373 404.751 33.7379 406.266 32.4399C407.135 31.6953 409.124 32.3161 410.599 32.2092C420.957 31.4588 431.217 33.4332 441.564 33.2553C452.02 33.0758 462.481 33.2154 472.94 33.2154C473.438 33.2154 474.084 33.0129 474.408 33.2503C475.852 34.308 477.22 33.3428 478.586 33.371C482.091 33.4434 485.784 32.0705 489.146 34.1917C489.383 34.3412 489.838 34.1119 490.123 34.228C491.598 34.8285 492.76 32.7697 493.627 33.3307C494.914 33.9616 496.332 34.2763 497.765 34.2488C499.181 34.4628 500.173 33.6439 501.36 33.2717C502.343 33.1101 503.343 33.0911 504.331 33.2153C510.639 33.2153 516.95 33.1093 523.255 33.2732C525.437 33.3301 527.667 32.5916 529.911 34.0672C530.899 34.717 532.68 33.0802 534.386 33.1555C538.528 33.3394 542.684 33.2153 546.834 33.2153C553.641 33.2153 560.448 33.2631 567.253 33.1754C568.636 33.1576 570.223 33.8871 571.443 32.454C571.634 32.3394 571.849 32.2742 572.071 32.2645C572.293 32.2547 572.513 32.3007 572.713 32.3982C573.58 33.5923 574.842 32.9556 575.879 33.2544C577.422 33.6989 578.7 32.1316 580.199 32.8436C581.768 33.289 583.41 33.4089 585.027 33.1961C586.682 33.2844 588.346 33.216 590.006 33.216C591.666 33.216 593.328 33.1761 594.986 33.2252C597.727 33.307 600.191 31.7573 603.051 32.1451C605.659 32.4989 608.362 32.0871 611.006 32.2674C612.73 32.3851 614.643 31.4087 616.182 32.9575C617.722 32.2144 619.452 31.9596 621.141 32.2274C622.966 32.1954 624.793 32.2201 626.619 32.2201H632.097C633.923 32.2201 635.756 32.3216 637.574 32.1949C639.943 32.0299 642.454 32.9091 644.658 31.2577C644.879 31.1382 645.127 31.0757 645.378 31.0759C645.629 31.076 645.877 31.1388 646.098 31.2586C648.112 33.0289 650.496 32.1459 652.688 32.1758C660.821 32.2872 668.955 32.2905 677.091 32.1858C679.655 32.6721 682.306 32.3562 684.684 31.2813C685.472 30.9906 686.336 30.9794 687.132 31.2496C690.096 32.2599 693.314 32.2417 696.266 31.198C698.29 30.9851 700.335 31.1273 702.31 31.6182C707.532 32.4403 712.86 32.3164 718.039 31.2526C718.512 31.1461 719.052 31.324 719.52 31.2074C721.525 30.7082 723.394 33.0946 724.988 32.0513C726.549 31.1539 728.394 30.8902 730.143 31.3148C732.348 31.7272 734.612 31.716 736.814 31.2816C737.273 31.0931 737.776 31.04 738.264 31.1285C738.753 31.217 739.205 31.4435 739.569 31.7811C740.013 32.158 740.561 32.3928 741.14 32.455C741.72 32.5172 742.305 32.404 742.819 32.1301C744.087 31.4672 745.497 31.1243 746.927 31.1312C748.357 31.1382 749.764 31.4948 751.025 32.1699C751.405 32.347 751.82 32.4382 752.239 32.4368C752.658 32.4355 753.072 32.3417 753.451 32.1622C755.661 31.1169 758.146 30.7985 760.548 31.2527C769.18 31.1798 777.816 31.0983 786.445 31.266C792.656 31.3868 798.715 29.7914 804.963 30.1488C811.251 30.5085 817.575 30.228 823.884 30.228C825.464 31.5254 826.397 27.981 828.27 29.7494C829.502 30.9124 831.425 30.2203 833.018 30.1781C834.56 30.1374 836.267 30.8816 837.659 29.2984C838.021 28.8864 839.353 28.9801 840.059 29.2742C843.69 30.4135 847.574 30.4747 851.239 29.4503C854.108 29.5221 856.98 29.4492 859.842 29.2318C861.559 31.0356 863.275 29.1881 864.993 29.2044C871.955 28.8664 878.93 28.9476 885.882 29.4476C891.382 29.9852 896.906 30.2345 902.432 30.1948C907.907 30.3455 913.39 30.1708 918.866 30.2592C920.789 29.9141 922.773 30.2149 924.507 31.1147C925.37 31.7172 927.103 31.3587 928.356 31.0669C931.213 30.2308 934.244 30.1973 937.118 30.9699C939.921 31.5437 942.754 31.9588 945.604 32.2132C947.43 32.2483 949.603 31.5971 950.998 32.372C952.889 33.4219 954.24 32.1726 955.724 32.063C958.431 32.3307 961.123 32.7371 963.789 33.2805C966.31 33.3292 968.91 32.5116 971.409 34.114C972.349 34.7175 974.007 34.1369 975.329 34.2284C977.739 33.9591 980.178 34.2505 982.457 35.0799C983.141 35.3404 983.877 35.4397 984.606 35.3702C985.335 35.3007 986.038 35.0642 986.661 34.6791C987.533 34.2488 988.488 34.0168 989.46 33.9998C990.432 33.9827 991.395 34.1811 992.282 34.5806C993.108 35.0534 994.047 35.2925 994.998 35.2725C995.95 35.2525 996.878 34.9741 997.684 34.467C999.214 33.3814 999.723 35.7189 1001.18 35.2983C1001.71 35.0605 1002.3 34.9697 1002.87 35.0357C1003.45 35.1018 1004 35.322 1004.46 35.6734C1004.77 35.9656 1005.45 36.304 1005.7 36.162C1006.79 35.5232 1008.03 35.178 1009.3 35.1598C1010.57 35.1417 1011.82 35.4513 1012.93 36.0586C1015.24 37.064 1018.12 35.339 1020.56 36.8686C1022.3 36.237 1024.15 36.0079 1025.99 36.1986C1029.63 36.171 1033.26 36.7803 1036.69 37.999C1037.82 38.1757 1038.96 38.2458 1040.1 38.2084C1043.12 38.5574 1046.29 37.2765 1049.18 39.1433C1049.59 39.4039 1050.43 39.0925 1051.03 38.9191C1054.08 37.946 1057.36 37.9286 1060.41 38.8692C1060.71 38.9564 1061.01 39.2133 1061.27 39.1713C1065.7 38.4668 1069.89 40.6076 1074.31 40.2209C1078.44 39.8483 1082.58 40.7425 1086.18 42.7842C1086.88 43.1984 1087.71 43.3213 1088.5 43.1264C1090.72 42.5611 1092.45 44.4953 1094.57 44.1703C1097.43 46.3946 1101.16 46.7027 1104.19 48.6516C1106.22 49.9577 1108.75 50.4633 1110.93 51.5691C1114.37 53.3114 1117.7 55.259 1121.09 57.1102C1121.22 57.1811 1121.48 57.0919 1121.55 57.179C1125.47 62.5564 1132.91 64.1244 1135.95 70.4578C1140.91 72.5256 1141.93 78.1248 1145.66 81.299C1146.9 83.4544 1147.68 85.8467 1147.94 88.3206C1148.49 91.88 1149.27 95.4036 1149.86 98.9576C1149.95 99.4356 1150.22 99.8606 1150.62 100.142C1151.39 100.86 1151.89 101.826 1152.03 102.874C1152.17 103.921 1151.94 104.984 1151.37 105.879C1151.03 106.503 1150.86 107.205 1150.87 107.916C1150.88 108.628 1151.07 109.324 1151.43 109.938C1152.29 111.297 1151.41 112.942 1151.98 114.189C1152.51 115.358 1153.69 116.654 1153.39 117.696C1152.94 119.218 1154.38 120.078 1154.01 121.573C1153.71 122.784 1155.17 124.036 1154.93 125.618C1154.7 127.077 1154.98 128.607 1154.85 130.089C1154.74 131.321 1156.54 132.529 1154.88 133.748C1155.27 134.185 1155.48 134.747 1155.49 135.33C1155.49 135.914 1155.29 136.48 1154.91 136.925C1154.26 138.058 1156.56 139.343 1154.88 140.562C1155.43 141.857 1155.81 143.22 1156 144.614C1156.36 145.661 1156.35 146.797 1155.98 147.84C1155.7 148.43 1156.79 149.356 1155.98 150.521C1155.71 151.037 1155.56 151.611 1155.56 152.194C1155.56 152.777 1155.7 153.352 1155.96 153.87C1157.39 155.858 1156.68 157.954 1156.86 159.995C1156.72 163.712 1157 167.433 1157.69 171.089C1158.16 172.23 1158.34 173.473 1158.21 174.702C1158.07 175.931 1157.63 177.106 1156.91 178.116C1156.83 178.259 1156.79 178.421 1156.78 178.587C1156.78 178.752 1156.82 178.916 1156.89 179.063C1158.86 181.029 1157.53 183.46 1157.82 185.649C1158.04 187.279 1157.26 189.355 1158.01 190.53C1159.13 192.271 1157.17 193.491 1157.9 194.757C1160.02 198.419 1157.59 202.795 1159.84 206.41C1159.92 206.559 1159.96 206.725 1159.96 206.893C1159.96 207.061 1159.92 207.226 1159.84 207.375C1157.17 210.405 1161.94 214.088 1158.97 217.066C1160.76 218.883 1159.63 221.133 1159.82 223.174C1160.19 224.863 1159.93 226.63 1159.09 228.141C1160.42 229.568 1159.61 230.961 1159.41 232.56C1159.02 234.023 1158.82 235.531 1158.82 237.046C1159.03 238.679 1158.74 240.372 1158.91 242.015C1159.02 243.154 1157.49 243.545 1157.9 244.581C1158.24 245.439 1159.38 246.196 1158.82 247.143C1157.49 249.414 1158.41 251.982 1157.73 254.181C1157.09 255.871 1157.09 257.733 1157.73 259.424C1158.3 261.076 1157 263.061 1156.54 264.831C1156.24 266.041 1156.02 267.269 1155.87 268.507C1155.99 270.12 1155.84 271.74 1155.42 273.303C1154.91 274.431 1155.74 275.896 1156.02 277.11C1156.39 278.732 1153.62 279.682 1155.55 281.462C1157.18 282.971 1154.72 284.29 1154.85 285.865C1154.98 287.514 1154.88 289.182 1154.88 290.842C1155.07 292.491 1155.04 294.157 1154.81 295.8C1154.4 299.06 1153.76 302.286 1152.9 305.455C1152.07 307.362 1151.71 309.44 1151.85 311.514C1151.94 312.905 1152.28 314.361 1150.98 315.662C1150.75 316.106 1150.63 316.597 1150.62 317.096C1150.62 317.596 1150.73 318.089 1150.96 318.536C1151.49 319.976 1151.69 321.521 1151.53 323.049C1151.38 324.578 1150.87 326.05 1150.05 327.352C1151.45 330.808 1148.71 334.366 1150.28 337.751C1150.62 338.465 1150.47 338.607 1150.23 339.216C1149.6 341.266 1149.53 343.447 1150.01 345.535C1150.31 347.341 1148.34 348.987 1149.9 350.703C1150.22 357.764 1150.01 364.839 1149.27 371.868C1149.04 372.984 1150.14 373.229 1149.97 374.287C1149.87 377.168 1149.58 380.039 1149.12 382.885C1148.23 385.332 1148.1 387.992 1148.75 390.514C1149.09 392.583 1149.03 394.699 1148.58 396.746C1148.53 398.698 1148.65 400.65 1148.93 402.582C1149.05 404.132 1148.27 405.837 1149.81 407.23C1150.13 407.517 1149.98 408.683 1149.62 409.526C1148.91 411.732 1148.66 414.063 1148.89 416.37C1148.98 416.862 1148.98 417.366 1148.89 417.858C1148.11 420.914 1146.81 423.947 1148.78 427.055C1148.85 427.168 1148.01 427.699 1147.95 428.086C1147.69 429.985 1145.68 431.818 1147.66 433.824C1147.22 434.294 1146.98 434.914 1146.98 435.557C1146.98 436.201 1147.23 436.819 1147.68 437.285C1145.98 439.514 1147.33 442.07 1146.91 444.436C1146.64 445.971 1147.49 447.616 1146.02 449.102C1145.74 449.604 1145.62 450.178 1145.67 450.749C1145.72 451.321 1145.94 451.864 1146.3 452.31C1146.96 453.017 1146.36 453.231 1146.21 453.769C1145.52 455.369 1145.37 457.154 1145.8 458.845C1146.15 459.511 1146.26 460.28 1146.11 461.018C1145.96 461.757 1145.56 462.42 1144.97 462.895C1146.28 463.814 1145.89 465.19 1145.91 466.443C1145.93 467.937 1145.91 469.431 1145.91 470.924C1146.01 472.248 1146 473.578 1145.87 474.899C1145.3 476.537 1144.96 478.246 1144.85 479.977C1145.19 481.732 1144.91 483.552 1144.06 485.125C1143.53 485.983 1145.23 487.525 1144.96 489.113C1144.95 490.741 1144.85 492.367 1144.65 493.983C1144.14 495.701 1145.36 497.073 1144.99 498.752C1144.72 500.393 1144.71 502.066 1144.95 503.712C1145.15 505.854 1143.72 507.581 1143.74 509.776C1143.75 511.153 1145.37 512.292 1144.03 514.013C1143.04 515.276 1144.28 517.067 1144.95 518.48C1145.62 519.917 1143.73 520.93 1144.52 522.316C1145.03 523.697 1145.15 525.187 1144.88 526.633C1144.9 528.03 1145.46 529.625 1143.94 530.692C1145.55 531.813 1142.77 533.942 1144.92 534.94V541.911C1144.92 543.902 1144.89 545.894 1144.92 547.885C1144.66 549.573 1144.91 551.302 1145.65 552.842C1144.23 554.579 1145.03 556.622 1144.97 558.514C1144.69 560.297 1144.52 562.096 1144.46 563.9C1144.65 565.798 1145.42 567.551 1144.12 569.308C1145.73 572.854 1143.28 576.252 1143.8 579.867C1144.19 583.667 1144.2 587.495 1143.84 591.297C1143.78 592.361 1145.21 592.938 1144.54 593.697C1143.61 594.753 1143.93 595.87 1143.96 596.948C1143.99 598.025 1143.01 598.859 1143.04 599.518C1143.16 601.728 1142.03 604.115 1143.71 606.175C1143.89 606.391 1143.99 606.989 1143.9 607.046C1142.15 608.142 1144.5 609.469 1143.86 610.181C1142.13 612.103 1143 614.282 1143.01 616.296C1143.01 618.31 1142.08 620.506 1143.87 622.408C1144.49 623.07 1143.15 623.722 1142.96 624.442C1142.64 625.643 1143.51 627.115 1142.12 628.081C1143.5 630.279 1142.43 632.804 1143.04 635.028C1143.37 636.254 1144.42 636.975 1143.03 638.323C1142.75 638.822 1142.62 639.395 1142.67 639.967C1142.72 640.539 1142.94 641.083 1143.3 641.527C1144.46 642.709 1143.33 644.257 1143.99 645.225C1145.01 646.717 1142.29 647.448 1143.63 649.092C1144.05 649.705 1144.22 650.452 1144.11 651.185C1144 651.918 1143.62 652.582 1143.04 653.047C1144.13 656.605 1144.41 660.363 1143.84 664.04C1143.91 666.033 1144.92 668.351 1142.92 670.097C1144.57 672.692 1143.2 675.847 1144.42 678.436C1144.88 679.282 1145.04 680.26 1144.86 681.208C1144.33 683.399 1144.34 685.685 1144.89 687.872C1145.43 690.186 1143.97 692.793 1145.86 694.942C1144.06 696.363 1145.15 697.41 1146.34 698.393C1146.94 698.886 1146.84 699.509 1146.93 700.154C1147.3 703.018 1145.98 706.04 1147.72 708.789C1147.79 708.9 1147.55 709.36 1147.36 709.46C1144.86 710.74 1147.7 712.51 1146.93 713.934L1147.36 717.454C1146.57 718.099 1147.18 719.048 1146.88 719.746C1146.29 721.123 1149.16 721.904 1147.3 723.623C1146.22 724.623 1146.99 726.448 1146.93 727.897C1146.87 729.293 1146.58 730.795 1147.82 731.929C1145.99 733.244 1147.2 734.649 1147.7 736.033C1145.36 736.881 1148.74 738.637 1147.03 740.011C1146.3 740.599 1146.91 742.847 1146.91 744.341C1146.91 746 1146.79 747.671 1146.94 749.317C1147.11 751.189 1146.39 753.102 1147.8 754.965C1148.08 755.56 1148.22 756.214 1148.2 756.872C1148.18 757.531 1148.01 758.177 1147.7 758.757C1146.97 759.948 1146.63 760.567 1147.73 761.617C1148.23 762.087 1147.73 762.712 1147.38 763.304C1146.94 763.987 1146.7 764.778 1146.68 765.589C1146.66 766.4 1146.87 767.2 1147.28 767.9C1148.24 769.282 1145.58 770.839 1147.8 771.782C1146.07 772.737 1149.4 774.714 1147.01 775.67C1146.58 775.839 1147.43 776.829 1147.46 777.3C1147.59 779.131 1149.94 780.772 1147.95 782.839C1147.82 783.136 1147.76 783.461 1147.78 783.787C1147.79 784.113 1147.89 784.429 1148.06 784.709C1148.69 785.544 1149.04 786.561 1149.05 787.61C1149.05 788.658 1148.72 789.679 1148.09 790.52C1147.86 791.043 1147.75 791.607 1147.76 792.176C1147.76 792.746 1147.89 793.307 1148.13 793.825C1148.15 795.209 1147.96 796.589 1147.54 797.912C1146.98 798.246 1146.56 796.277 1145.94 797.757C1145.71 798.322 1146.03 799.136 1145.76 799.669C1144.5 803.183 1142.56 806.416 1140.06 809.188C1138.55 810.495 1139.67 812.408 1138.08 813.455C1136.93 814.409 1135.86 815.446 1134.86 816.557C1134.32 817.15 1133.7 817.656 1133 818.053C1132.09 818.371 1131.27 818.885 1130.58 819.559C1129.89 820.233 1129.36 821.049 1129.03 821.951C1128.88 822.401 1128.64 822.812 1128.31 823.155C1127.98 823.498 1127.58 823.763 1127.14 823.932C1125.78 824.486 1124.62 825.45 1123.82 826.691C1119.02 831.938 1112.91 835.809 1106.12 837.905C1105.82 837.978 1105.53 838.086 1105.26 838.227C1103.13 840.042 1100.56 841.265 1097.8 841.775C1094.99 841.953 1093.05 844.158 1090.31 844.287C1089.86 844.308 1089.2 845.164 1088.6 844.847C1085.53 843.214 1082.54 845.376 1079.44 844.966C1076.3 844.732 1073.14 844.702 1069.99 844.877C1066.67 844.877 1063.35 844.804 1060.03 844.911C1058.64 844.956 1057.04 844.243 1055.88 845.711C1055.75 845.808 1055.6 845.872 1055.45 845.896C1055.29 845.921 1055.13 845.905 1054.98 845.851C1051.43 843.874 1047.59 845.362 1043.92 844.863C1042.69 844.695 1041.69 846.231 1040.19 844.961C1039.19 844.111 1037.51 845.842 1036.43 845.322C1035.2 844.922 1033.91 844.78 1032.62 844.905C1031.13 844.779 1029.63 844.779 1028.14 844.906C1026.63 845.043 1025.71 843.572 1024.06 843.777C1022.74 843.94 1021.96 845.253 1020.49 844.931C1019.67 844.75 1018.84 843.226 1017.76 844.82C1017.49 845.206 1016.09 845.106 1015.37 844.825C1014.26 844.245 1013.03 843.907 1011.78 843.833C1006.15 843.468 1000.5 843.558 994.886 844.101C989.223 844.761 983.519 844.989 977.822 844.784C975.795 844.859 973.77 843.945 971.666 844.847C969.931 845.591 968.296 842.326 966.403 844.576C964.684 843.958 963.093 845.222 961.373 844.895C959.805 844.597 958.208 845.182 956.577 844.43C955.426 843.9 954.138 845.26 952.734 844.897C950.647 844.088 948.411 843.739 946.178 843.874C944.479 844.159 942.559 843.162 941.074 844.843C940.856 845.09 940.083 844.763 939.625 844.898C937.739 845.451 936.386 843.785 934.553 843.795C932.862 843.805 931.087 844.49 929.364 843.125C927.734 841.833 926.264 844.179 924.411 843.975C922.834 843.801 921.391 841.509 919.62 843.532C918.962 844.282 917.979 843.989 917.304 843.796C916.671 843.614 916.374 842.588 915.478 843.62C915.17 843.893 914.778 844.051 914.367 844.066C913.956 844.082 913.553 843.954 913.226 843.704C911.788 842.281 910.076 843.242 908.564 842.852C907.483 842.573 906.667 844.027 906.151 843.559C905.092 842.596 903.99 842.929 902.906 842.917C901.94 842.939 900.999 842.599 900.27 841.964C899.772 841.558 898.671 841.89 897.841 841.89C894.022 841.89 890.202 841.818 886.387 841.923C884.733 841.969 883.185 841.045 881.828 841.109C880.562 841.168 879.45 842.288 878.111 840.943C877.781 840.611 876.742 840.685 876.184 840.929C874.763 841.647 873.193 842.021 871.601 842.02C870.009 842.019 868.439 841.642 867.019 840.922C866.625 840.719 865.788 840.682 865.58 840.928C864.104 842.664 862.173 841.814 860.473 841.849C854.997 841.959 849.499 842.163 844.044 841.812C838.779 841.473 833.732 843.227 828.514 842.886C826.477 844.204 824.155 843.632 821.965 843.952C820.463 844.172 819.866 842.505 818.369 842.822C817.276 843.054 816.646 844.285 815.301 843.912C813.486 843.409 811.653 844.043 809.633 843.139C807.454 842.504 805.127 842.604 803.011 843.425C799.53 844.314 795.882 844.328 792.393 843.467C791.996 843.385 791.729 842.828 791.146 842.876C784.601 843.413 778.187 841.099 771.642 841.922C769.013 842.607 766.302 842.929 763.585 842.881C762.036 842.66 760.29 843.546 758.942 842.01C758.777 841.82 757.897 841.928 757.665 842.184C756.571 843.394 755.037 842.409 753.987 842.956C752.461 843.75 751.455 841.295 749.699 842.771C748.532 843.752 746.717 842.43 745.214 841.933C744.396 841.795 743.561 841.78 742.738 841.89C740.77 842.179 738.767 842.131 736.815 841.751C734.866 841.008 733.329 842.334 731.61 841.89C723.835 840.731 715.958 840.415 708.115 840.946C706.433 840.879 704.546 840.183 702.986 841.828C702.62 842.026 702.21 842.13 701.794 842.13C701.377 842.131 700.967 842.029 700.6 841.833C698.179 840.206 695.525 841.22 693.008 840.878C691.452 840.666 689.73 841.622 688.331 840.115C687.847 839.593 687.115 839.82 686.664 840.414C686.467 840.683 686.181 840.874 685.857 840.954C685.533 841.034 685.192 840.997 684.892 840.85C682.639 839.504 680.022 840.478 677.864 839.738C676.066 839.122 674.25 840.213 673.282 839.663C671.825 838.96 670.189 838.714 668.59 838.957C666.389 839.023 664.017 838.125 661.999 839.864C661.778 839.985 661.531 840.048 661.28 840.048C661.029 840.048 660.782 839.985 660.561 839.864C658.373 838.071 655.832 839.007 653.475 838.945C643.844 838.118 634.175 837.795 624.51 837.978C623.434 838.062 622.908 836.582 622.113 837.301C621.061 838.252 619.933 837.896 618.857 837.862C617.773 837.828 617.025 838.757 616.275 838.792C614.518 839.212 612.676 839.091 610.99 838.444C610.596 838.215 610.12 838.125 609.724 837.898C608.335 837.103 607.514 840.086 605.847 838.36C604.774 837.25 603.665 838.06 602.423 838.785C601.433 839.363 599.822 838.785 598.511 838.934C597.109 839.092 596.006 836.864 594.25 838.81C593.208 839.964 591.782 837.853 590.282 837.873C583.975 837.953 577.652 837.683 571.367 838.074C569.978 838.155 568.583 838.082 567.21 837.855C565.623 837.604 564.711 839.203 563.122 838.965C562.183 838.963 561.278 838.611 560.585 837.976C559.972 839.001 558.976 838.994 557.981 838.897C550.267 838.139 542.692 840.198 534.984 839.952C527.355 839.707 519.707 840.069 512.079 839.809C509.254 839.713 506.779 841.08 504.021 840.913C502.505 841.061 500.976 840.817 499.581 840.204C498.017 841.686 496.116 840.663 494.384 840.855C492.744 841.037 491.061 840.794 489.41 840.916C486.348 840.711 483.272 840.982 480.293 841.718C479.309 842.145 478.233 842.316 477.166 842.214C476.098 842.111 475.074 841.74 474.19 841.133C473.84 840.929 473.445 840.815 473.04 840.801C472.635 840.786 472.233 840.873 471.87 841.052C471.443 841.197 471.051 841.9 470.733 841.844C467.271 841.238 464.039 843.25 460.692 842.792C458.738 842.525 457.102 843.775 454.976 843.042C452.692 842.629 450.358 842.576 448.057 842.886H414.689C410.207 842.886 405.7 842.6 401.25 842.984C398.161 843.25 395.314 841.847 392.06 842.709C388.775 843.18 385.445 843.24 382.146 842.886H372.683C369.363 842.886 366.043 842.899 362.722 842.88C361.246 842.871 359.259 843.373 358.411 842.621C357.037 841.402 355.741 844.244 354.834 842.28C353.237 842.722 351.586 842.935 349.929 842.912C342.459 842.851 334.988 842.923 327.518 842.857C325.803 842.842 324.008 843.398 322.384 841.968C321.932 841.752 321.439 841.638 320.938 841.633C320.437 841.629 319.942 841.734 319.487 841.942C315.558 842.997 311.467 843.306 307.425 842.852C303.447 843.005 299.457 842.842 295.474 842.911C294.237 842.932 292.902 842.424 291.784 843.68C291.462 843.936 291.062 844.072 290.651 844.066C290.241 844.061 289.844 843.912 289.531 843.647C288.903 843.097 288.129 842.742 287.302 842.626C286.476 842.511 285.634 842.639 284.88 842.996C280.047 843.71 275.164 844.031 270.28 843.956C259.485 844.929 248.642 845.239 237.81 844.883C237.331 844.808 236.843 844.83 236.373 844.949C235.904 845.068 235.463 845.28 235.078 845.574C234.255 846.318 232.888 846.01 231.801 845.736C229.295 844.846 226.562 844.829 224.045 845.69C222.172 846.293 220.139 846.151 218.369 845.293C217.031 844.644 215.498 844.517 214.072 844.938C208.434 846.212 202.583 846.199 196.951 844.9C196.145 844.666 195.288 844.674 194.486 844.921C190.073 846.949 185.757 844.33 181.335 844.774C176.734 845.237 172.04 844.713 167.406 844.977C166.002 845.056 165.108 842.845 163.992 844.176C162.353 846.128 161.521 843.493 160.157 843.818C158.857 844.133 157.502 844.138 156.2 843.834C151.12 842.405 145.854 841.747 140.579 841.881C139.951 841.91 139.235 841.505 138.789 841.516C137.543 841.547 136.975 839.306 135.254 840.768C134.282 841.593 133.199 839.72 131.766 839.823C130.658 840.105 129.497 840.11 128.387 839.835C127.277 839.56 126.253 839.014 125.405 838.247C124.154 836.966 121.549 837.67 119.509 837.098C115.645 836.013 111.879 834.535 107.889 833.733C105.527 833.083 103.201 832.306 100.923 831.405C97.3037 829.997 94.2001 827.519 92.0261 824.302C91.0735 823.077 89.9371 821.999 89.05 820.687C87.9413 819.325 86.5774 818.191 85.0348 817.351C83.7072 816.48 81.6656 815.426 82.0492 813.234C82.2442 812.119 83.0641 811.118 81.9874 810.065C83.617 808.68 81.555 807.317 81.9657 805.905C82.3581 804.555 81.2888 802.91 82.7743 801.75C82.8098 801.703 82.833 801.648 82.842 801.59C82.851 801.531 82.8454 801.472 82.8258 801.416C81.8696 800.591 81.0391 798.81 81.3835 798.401C82.5215 797.053 81.1653 796.395 81.1423 795.522C81.0224 794.265 80.6186 793.051 79.9613 791.972C79.3969 790.797 80.8375 790.314 80.5724 789.075C79.6174 786.054 79.0823 782.916 78.9822 779.749C79.0109 779.276 78.9152 778.804 78.7048 778.38C76.7421 774.674 77.6043 770.331 76.0074 766.55C75.4901 765.325 77.209 763.619 76.4345 763.341C74.2799 762.568 76.4046 760.922 75.3498 759.98C74.3276 759.067 75.6636 757.352 74.5876 756.353C74.2502 755.99 74.0224 755.539 73.9308 755.052C73.8392 754.564 73.8875 754.061 74.07 753.6C74.6231 751.071 72.8841 748.954 73.0185 746.533C73.1596 743.992 71.3364 742.251 70.3773 740.16C69.4329 738.511 68.9547 736.636 68.9937 734.736C69.258 731.688 67.4359 728.812 68.0396 725.692C68.2346 724.685 67.4033 724.26 66.8525 723.7C66.3839 723.224 66.2817 722.533 65.9751 722.087C65.1376 720.867 67.7763 720.489 66.4364 719.186C65.7583 718.346 65.2942 717.354 65.084 716.294C64.7808 715.258 65.4996 714 64.3045 713.101C64.1599 712.912 64.0645 712.69 64.0269 712.454C63.9892 712.219 64.0104 711.978 64.0887 711.753C64.5594 710.476 64.7168 709.104 64.5476 707.752C64.3784 706.401 63.8876 705.111 63.1164 703.988C62.6844 703.066 63.9938 702.446 63.9149 701.964C63.8052 701.299 62.7285 700.85 62.3182 700.158C62.0211 699.658 61.8297 698.607 62.1118 698.329C64.1846 696.285 62.3013 694.562 61.7835 692.746C61.6606 692.315 61.0457 691.9 61.1071 691.558C62.0044 686.542 57.7048 682.752 57.9287 677.914C55.6818 676.401 58.5169 674.381 57.413 672.754C58.4404 671.919 57.9302 671.312 57.4108 670.311C56.6243 669.314 56.1521 668.105 56.054 666.839C55.9559 665.572 56.2364 664.306 56.86 663.199C57.2321 662.559 57.4201 661.829 57.4034 661.089C57.3866 660.349 57.1657 659.628 56.7651 659.006C55.6502 657.694 58.2344 656.709 56.4928 655.334C55.3425 654.425 56.0672 652.217 56.1363 650.611C56.1962 649.22 55.3898 647.613 56.8378 646.439C56.116 645.07 55.8522 643.505 56.0852 641.974C56.2135 640.535 55.9132 639.089 55.2222 637.82C54.7579 637.104 56.9642 635.508 56.0075 634.403C54.8335 633.047 55.7346 631.008 54.9752 630.414C53.6455 629.374 55.2891 628.349 54.3708 627.355C53.7767 626.712 54.1973 625.169 54.0851 624.036C53.8458 621.624 54.0873 619.214 53.7625 616.76C53.5917 614.643 53.7308 612.513 54.1753 610.436C54.4732 608.758 52.424 607.322 53.2293 606.476C54.3601 605.288 52.6362 603.986 53.9098 603.186C52.4127 602.044 53.2626 600.432 53.1298 599.038C53.2663 597.556 53.229 596.063 53.0187 594.589C51.7965 591.266 52.9794 587.608 51.8986 584.589C50.6187 581.016 52.2618 577.163 50.1401 573.871C49.9479 573.401 49.9444 572.876 50.1302 572.403C50.8553 570.717 51.241 568.903 51.2651 567.067C51.2892 565.231 50.9512 563.409 50.2705 561.703C52.9276 559.41 48.1469 556.306 51.1056 554.046C51.4564 551.334 50.3528 548.493 51.829 545.881C50.9583 542.987 50.7303 539.938 51.161 536.946C51.1501 534.752 50.4514 532.445 52.025 530.331C52.2067 529.88 52.2828 529.393 52.2476 528.908C52.2123 528.422 52.0666 527.951 51.8215 527.531C51.4945 526.829 51.2335 526.098 51.0419 525.348C50.566 524.084 52.4471 523.334 51.464 522.007C50.5593 520.786 51.0951 519.588 52.102 518.595C50.6201 516.499 53.4402 513.913 51.2368 511.783C50.3036 510.881 52.2281 510.263 52.0913 509.293C51.644 506.122 53.1091 502.766 51.1367 499.726C51.0273 499.499 50.9703 499.25 50.97 498.998C50.9697 498.746 51.0261 498.497 51.135 498.269C52.9804 495.047 51.8755 491.561 52.0596 488.207C52.2503 484.732 52.1517 481.238 52.0777 477.754C52.0478 476.357 50.9339 475.264 50.9891 473.681C51.0303 472.5 52.1969 471.549 51.5294 470.352C50.8455 469.126 51.1226 467.617 50.1769 466.406C49.7743 465.89 50.1097 464.799 50.1097 463.969V456.998C47.8554 455.465 49.9331 452.728 48.277 450.721C47.3806 449.634 48.2543 447.189 48.0859 445.379C47.8202 442.524 48.9557 439.536 47.1811 436.788C47.009 436.413 46.9579 435.994 47.0349 435.589C47.1118 435.183 47.313 434.812 47.6105 434.527C47.8202 434.332 47.9862 434.096 48.0977 433.832C48.2091 433.569 48.2635 433.285 48.2571 432.999C48.2508 432.713 48.1839 432.432 48.0608 432.174C47.9378 431.916 47.7614 431.687 47.5433 431.502C47.431 431.38 47.2201 431.277 47.2053 431.148C47.0222 429.542 48.1209 428.248 48.28 426.628C48.4316 425.085 46.0255 424.196 47.5427 422.731C48.7033 421.61 46.8735 421.341 47.048 420.368C47.363 418.612 46.6438 416.424 47.4527 415.071C48.3033 413.649 45.5799 411.944 48.1156 411.162C47.6848 407.954 49.0507 404.603 47.3878 401.511C47.1522 401.098 47.0804 400.612 47.1866 400.149C48.3223 397.015 48.3357 393.584 47.2245 390.441C46.7958 388.883 48.5395 388.366 48.1926 386.905C47.8353 385.646 47.9332 384.301 48.4691 383.106C48.9646 382.283 49.1825 381.322 49.091 380.365C49.0292 378.962 49.6765 377.356 48.1233 376.298C49.8655 375.59 48.4024 373.377 49.8839 372.546C49.4536 371.897 49.1683 371.162 49.0473 370.392C48.9263 369.622 48.9724 368.835 49.1826 368.085C49.4259 366.647 50.5485 365.359 49.1669 363.87C48.9987 363.584 48.9327 363.25 48.9798 362.921C49.0269 362.593 49.1843 362.29 49.4262 362.062C50.546 361.165 49.963 359.939 50.1093 358.855C50.3617 356.984 48.9634 355.153 49.9754 353.263C47.6699 351.307 50.9648 349.65 50.2477 347.514C49.9222 345.388 49.8656 343.229 50.0793 341.089C50.2153 339.644 50.0653 338.186 49.6378 336.799C49.2091 335.819 50.2647 334.335 50.14 332.948C50.0067 331.466 50.1892 329.958 50.0892 328.471C49.9736 326.752 50.5616 325.002 49.1719 323.357C47.9195 321.873 50.3906 320.137 49.2389 318.182C48.7136 317.29 51.2698 315.626 49.7928 314.36C47.844 312.689 50.6792 311.854 50.137 310.52C49.9633 310.093 50.1619 309.529 50.1016 309.039C49.5799 304.79 51.729 300.759 51.1157 296.503C51.0774 296.183 51.1075 295.857 51.2039 295.549C52.1741 291.242 52.3867 286.799 51.832 282.419C51.8178 282.351 52.4331 274.388 52.4966 274.338C53.9645 273.168 51.9354 271.914 52.1987 271.589C54.2444 269.066 51.7748 266.754 52.0883 264.367C52.2523 263.119 51.9157 261.901 52.9781 260.699C53.2766 260.206 53.4121 259.632 53.3654 259.057C53.3187 258.483 53.092 257.938 52.7178 257.5C51.4056 256.318 53.275 256.064 53.1629 255.143C52.6085 250.596 54.863 246.213 54.0944 241.622C55.2583 230.348 55.5782 219.001 55.0515 207.679C55.339 206.237 55.1763 204.742 54.5856 203.397C54.0423 202.457 56.0773 201.037 54.1298 199.895C53.05 199.261 55.9765 198.46 54.3481 197.13C53.6182 196.534 53.8044 194.996 54.9517 194.147C55.1283 194.017 55.0727 193.543 55.0851 193.227C55.1044 192.73 55.0902 192.231 55.0902 191.733C55.0902 191.235 55.2842 190.435 55.0579 190.29C53.8404 189.509 55.1497 188.438 54.689 187.758C54.2962 187.179 53.8434 186.615 54.1207 186.012C55.1311 182.422 55.4628 178.674 55.0988 174.962C55.1559 174.184 54.7838 173.322 55.5574 172.661C56.3295 172.002 56.1442 171.402 55.586 170.593C55.1127 169.822 54.836 168.946 54.7802 168.043C54.7245 167.14 54.8914 166.237 55.2662 165.414C56.0472 163.824 56.3009 162.027 55.9903 160.283C55.6712 158.454 57.4828 157.416 57.1069 155.694C57.0171 154.274 57.3333 152.858 58.0188 151.61C58.7217 149.501 59.1135 147.3 59.1818 145.078C59.3022 142.426 60.052 139.789 60.4096 137.12C60.5181 136.31 60.1947 135.853 60.2145 135.343C60.306 132.988 59.2064 130.473 61.021 128.263C61.1775 127.968 61.258 127.639 61.2554 127.306C61.2527 126.972 61.1669 126.644 61.0057 126.352C60.3132 125.463 59.9377 124.368 59.939 123.242C59.9403 122.115 60.3184 121.021 61.013 120.134C61.3662 119.501 61.0549 118.504 61.0699 117.675C60.9943 115.279 61.2874 112.885 61.9389 110.578C62.6841 107.973 63.1188 105.288 63.234 102.58C63.6696 100.246 63.945 97.8839 64.0584 95.5116C64.0395 95.1807 63.9294 94.6342 64.0747 94.5481C66.2163 93.2826 65.3044 90.4204 66.6104 89.1822C68.0383 87.8287 67.3608 86.3386 67.9501 85.0017C68.9364 81.647 69.6261 78.2122 70.0114 74.7369C70.967 71.6146 71.2772 68.3306 70.923 65.0846V65.0846ZM1054.26 125.835C1054.33 124.951 1053.75 124.837 1053.07 124.838C1051.81 124.84 1050.55 124.84 1049.28 124.838H1045.3C1044.03 124.838 1042.77 124.838 1041.51 124.838C1040.83 124.837 1040.25 124.951 1040.32 125.835H1028.36C1024.46 125.835 1020.56 125.835 1016.66 125.835C1015.98 125.835 1015.34 125.888 1015.41 126.831C1013.28 127.104 1011.12 127.065 1009 126.716C1006.06 125.579 1002.79 125.62 999.869 126.831C993.175 126.112 986.642 128.253 979.941 127.883C974.831 127.6 969.691 127.918 964.568 127.801C959.556 127.919 954.543 127.655 949.571 127.012C944.635 126.53 939.668 126.47 934.722 126.831C934.786 125.947 934.21 125.833 933.531 125.834C932.268 125.836 931.004 125.836 929.741 125.834C928.95 125.835 928.135 125.663 927.564 126.497C927.108 127.163 926.36 126.706 925.756 126.83C925.821 125.947 925.244 125.832 924.565 125.833C923.302 125.836 922.039 125.836 920.775 125.834C917.667 125.408 914.511 125.487 911.428 126.069C909.367 126.968 907.067 127.163 904.883 126.624C902.244 125.915 899.504 125.66 896.78 125.871C892.648 125.73 888.508 125.834 884.371 125.834C880.235 125.834 876.098 125.832 871.961 125.835C867.935 125.838 864.072 127.254 859.957 126.906C855.85 126.559 851.682 126.998 847.556 126.786C842.709 127.34 837.802 127.026 833.065 125.858C832.647 125.684 831.835 125.643 831.636 125.889C830.326 127.506 828.571 126.785 827.034 126.796C817.438 126.864 807.841 126.83 798.244 126.83C798.312 125.921 797.707 125.834 797.029 125.834C795.11 125.835 793.19 125.835 791.271 125.834C785.781 126.294 780.254 125.959 774.86 124.838C770.393 125.358 765.787 123.781 761.398 125.791C760.716 126.103 759.395 126.184 759.01 125.773C757.464 124.123 755.606 124.952 753.912 124.878C750.782 124.717 747.646 124.726 744.518 124.903C743.213 124.987 742.531 124.018 741.462 123.843H685.676C679.837 123.635 673.991 123.916 668.199 124.684C664.361 124.816 660.535 125.201 656.747 125.835C647.432 125.31 638.177 126.491 628.893 126.831C628.963 125.906 628.341 125.835 627.663 125.835C625.085 125.834 622.506 125.834 619.927 125.835H618.931C617.668 125.835 616.404 125.835 615.141 125.834C614.462 125.833 613.886 125.947 613.95 126.831C606.978 126.831 600.004 126.718 593.035 126.863C586.181 126.678 579.323 126.94 572.503 127.647C567.117 128.459 561.591 126.296 556.004 126.756C554.905 127.08 553.751 127.169 552.615 127.019C551.479 126.869 550.387 126.482 549.41 125.884C549.117 125.753 548.794 125.699 548.474 125.729C548.154 125.758 547.847 125.87 547.583 126.053C546.491 127.339 545.128 126.741 543.886 126.809C542.229 126.921 540.567 126.918 538.91 126.801C537.196 126.657 535.261 127.585 533.817 125.895C532.561 127.457 530.812 126.633 529.275 126.831H524.294C521.652 126.831 518.997 126.676 516.37 126.876C513.811 126.661 511.234 126.917 508.767 127.63C506.183 128.13 503.534 128.205 500.926 127.852C498.075 127.981 495.094 127.122 492.419 128.823C487.379 128.285 482.524 130.521 477.473 129.819C476.21 129.819 474.946 129.819 473.683 129.818C473.004 129.817 472.427 129.931 472.492 130.815C470.344 130.815 468.195 130.834 466.047 130.811C462.19 131.174 458.298 130.838 454.561 129.819H448.584C440.268 129.967 431.951 129.682 423.665 128.967C415.466 127.8 407.083 129.589 398.761 127.958C393.905 127.006 388.828 127.793 383.786 127.011C377.088 125.972 370.157 127.497 363.362 125.922C360.898 125.62 358.408 125.59 355.938 125.835C356.006 124.926 355.401 124.839 354.723 124.839C352.804 124.839 350.884 124.839 348.965 124.839C343.127 124.831 337.294 124.495 331.493 123.833C326.692 123.883 321.889 123.843 317.086 123.843H312.105C306.989 123.843 301.858 123.602 296.76 123.91C291.536 124.225 286.548 122.302 281.316 122.762C279.526 122.919 277.391 123.709 275.745 121.918C275.534 121.794 275.286 121.749 275.044 121.793C274.803 121.836 274.586 121.966 274.432 122.156C273.242 123.517 271.647 122.561 270.266 122.847C270.338 121.908 269.7 121.852 269.023 121.852C265.452 121.851 261.882 121.85 258.311 121.851C257.012 121.632 255.683 121.665 254.396 121.948C252.989 122.681 251.397 122.986 249.819 122.824C248.102 122.904 246.404 123.224 244.775 123.773C241.087 123.51 237.381 123.871 233.813 124.839C227.166 124.749 220.616 126.439 213.931 125.869C211.474 125.659 208.984 125.835 206.51 125.835H201.529C197.831 125.857 194.142 126.191 190.5 126.831C188.167 128.86 185.164 127.101 182.632 128.252C179.808 129.106 176.823 129.281 173.918 128.764C165.416 129.128 156.899 128.861 148.437 127.965C143.988 127.413 139.49 127.386 135.036 127.882C130.453 128.146 126.026 126.898 121.517 126.871C104.604 126.77 87.691 126.817 70.7782 126.859C69.5384 126.862 68.1698 126.362 66.9978 127.349C67.578 132.919 65.401 138.295 66.0082 143.868C66.3111 145.462 66.0107 147.112 65.1652 148.498C64.5235 149.478 65.3389 151.25 64.2403 152.411C64.8468 153.059 65.173 153.921 65.1483 154.809C65.1235 155.697 64.7497 156.539 64.1079 157.154C64.661 160.104 62.5512 162.726 63.0597 165.671C62.176 165.606 62.0616 166.182 62.0627 166.861C62.0649 168.124 62.0651 169.387 62.0633 170.65C61.9008 170.625 61.7351 170.63 61.5741 170.663C61.4335 170.721 61.2125 170.934 61.2362 170.99C61.7265 172.146 62.957 173.57 62.6344 174.385C61.4218 177.445 62.5604 180.532 62.0234 183.53C61.7866 184.852 62.8858 185.517 63.0595 186.585C62.1502 186.517 62.0631 187.122 62.0632 187.799C62.0636 189.718 62.0636 191.637 62.0632 193.556C62.419 195.254 61.7486 196.948 62.537 198.782C62.9336 199.704 62 201.565 62.0493 203.076C62.1082 204.881 62.0632 206.688 62.0632 208.495V216.462C62.0079 217.281 62.0159 218.103 62.087 218.921C62.2802 220.147 61.7108 221.37 62.5939 222.678C63.0173 223.305 61.6019 224.774 62.0832 225.973C62.8624 227.983 62.8759 230.21 62.1212 232.23C61.7049 233.316 61.7205 234.52 62.1648 235.595C62.8855 236.727 62.0864 237.443 62.1531 238.275C62.2892 239.973 61.2894 241.266 61.0621 242.795C60.8115 244.48 61.4834 246.158 60.2282 247.907C59.4767 248.954 61.587 250.631 61.0671 252.314C60.1578 252.246 60.0705 252.851 60.0707 253.529C60.0707 255.448 60.0707 257.367 60.0707 259.286C59.8238 260.645 61.0089 262.21 60.5626 263.074C59.6044 264.927 58.8037 266.506 60.0707 268.448C58.0608 269.465 61.0691 271.047 59.5488 272.356C57.8991 273.776 61.0582 274.979 60.1092 276.65C59.7437 277.293 60.4872 278.419 59.7777 278.94C57.9532 280.28 60.0796 281.111 60.0707 282.192C59.1615 282.124 59.0743 282.729 59.0744 283.406C59.0748 285.325 59.0748 287.244 59.0744 289.163C60.2592 291.374 56.8948 293.514 58.9725 295.738C56.5735 297.133 59.2254 299.18 58.2608 301.086C57.3945 302.797 58.1046 305.294 58.0674 307.443C58.0481 308.569 58.3566 310.174 57.7524 310.723C56.1067 312.221 58.0561 312.975 58.0783 314.06C57.7391 314.38 57.4689 314.766 57.2842 315.194C57.0995 315.622 57.0042 316.084 57.0042 316.55C57.0042 317.016 57.0995 317.478 57.2842 317.906C57.4689 318.334 57.7391 318.72 58.0783 319.04V322.028C57.1947 321.963 57.0801 322.539 57.0813 323.218C57.0837 324.481 57.0839 325.744 57.082 327.007C57.3391 329.701 56.3973 332.519 58.0352 335.089C58.1862 335.388 58.2646 335.719 58.2643 336.055C58.2639 336.391 58.1847 336.722 58.0331 337.021C56.4621 339.253 57.3822 341.752 57.0516 344.104C56.8106 345.818 57.7345 347.603 56.3482 349.317C55.7885 350.008 58.3588 350.586 57.695 351.657C57.3213 352.072 57.0969 352.599 57.0575 353.156C57.018 353.713 57.1659 354.267 57.4774 354.731C57.8813 355.298 58.3564 355.836 57.9859 356.441C57.3311 357.532 56.9852 358.781 56.9851 360.054C56.985 361.327 57.3307 362.576 57.9853 363.668C58.2572 364.184 58.3607 364.773 58.281 365.35C58.2014 365.928 57.9428 366.466 57.5414 366.89C56.7555 367.611 57.0314 368.24 57.6654 368.954C58.0125 369.302 58.2127 369.77 58.2246 370.261C58.2366 370.753 58.0594 371.23 57.7297 371.595C57.3168 371.995 57.0413 372.517 56.9428 373.083C56.8443 373.65 56.9278 374.234 57.1813 374.751C58.5389 376.37 57.35 377.976 56.9077 378.904C56.287 380.372 56.009 381.962 56.0949 383.553C56.0587 385.544 56.0861 387.536 56.0861 389.528C56.0861 391.519 56.0551 393.511 56.0948 395.502C55.7872 397.516 56.0407 399.576 56.8273 401.456C55.4015 403.191 56.1547 405.237 56.1263 407.124C56.024 413.927 56.0864 420.732 56.0864 427.536C56.0864 428.698 56.565 430.432 55.9929 430.909C54.5282 432.131 56.1862 432.791 56.0918 433.682C56.0415 440.196 56.3738 446.708 57.087 453.183C56.912 455.098 57.2296 457.025 58.0096 458.782C58.9834 460.809 59.361 463.071 59.0985 465.305C58.8363 466.945 58.8633 468.619 59.1782 470.251C59.7471 471.518 59.8443 472.946 59.4521 474.279C61.4519 475.181 58.9374 476.403 59.7598 477.833C60.8748 479.773 59.5285 482.576 61.0299 484.759C61.217 485.031 61.0221 485.749 60.7744 486.097C60.2632 486.731 59.7064 487.326 59.1083 487.878C60.117 488.485 60.1053 489.45 60.0829 490.466C60.1541 492.289 60.1319 494.115 60.0164 495.936C59.8369 497.355 61.0216 498.478 60.2194 500.167C59.8053 501.94 59.7562 503.78 60.075 505.573C59.8403 507.096 60.0924 508.655 60.7955 510.026C59.2781 512.111 60.4505 514.488 60.0713 516.696C62.2616 518.745 59.0236 520.791 60.0627 522.846C60.1295 522.978 60.0028 523.225 60.0826 523.331C60.7578 524.232 60.5449 524.978 60.1772 526.036C59.9367 526.638 59.8315 527.286 59.8693 527.933C59.907 528.581 60.0866 529.212 60.3955 529.782C61.8881 531.205 59.2688 531.529 60.0226 532.675C60.7516 533.783 59.1153 535.084 59.571 535.999C60.2206 537.303 60.4945 539.063 59.8614 539.622C58.3934 540.919 61.1774 542.015 59.5631 543.289C58.4106 544.198 59.1221 546.071 59.0969 547.508C59.0328 551.157 58.9853 554.813 59.1249 558.458C59.1732 559.721 58.1977 560.975 58.5408 561.842C59.1947 563.491 59.5784 564.814 58.3365 566.299C58.0852 566.624 57.9412 567.019 57.9244 567.429C57.9077 567.839 58.0191 568.245 58.2432 568.589C59.328 570.025 59.1737 571.867 60.0717 573.325C58.3715 574.876 59.0174 576.426 60.0717 577.977C57.639 580.688 61.0667 583.401 60.0717 586.113C61.4396 587.409 60.8802 589.117 61.1058 590.674C61.2759 591.848 60.0044 593.058 60.4149 593.571C60.7797 594.114 61.0215 594.731 61.1233 595.378C61.2251 596.025 61.1846 596.686 61.0044 597.315C60.8461 598.747 62.1727 599.946 61.9083 600.847C61.6895 601.359 61.5883 601.913 61.6121 602.469C61.6359 603.026 61.7841 603.569 62.0459 604.061C62.3101 605.588 62.3073 607.149 62.0375 608.675C60.7122 609.957 62.1823 611.146 62.0486 612.356C61.8949 613.748 64.0558 614.893 62.1897 616.645C61.8735 617.305 61.7408 618.038 61.8054 618.767C61.8701 619.495 62.1297 620.193 62.557 620.787C62.9101 621.433 63.1295 622.142 63.202 622.875C63.2745 623.607 63.1987 624.346 62.9791 625.048C62.6991 626.827 64.6031 628.149 63.9724 629.59C63.4091 630.53 63.1143 631.606 63.1201 632.702C63.1258 633.798 63.4319 634.871 64.0051 635.805C64.1675 636.097 64.2242 636.437 64.1658 636.766C64.1074 637.095 63.9374 637.395 63.6844 637.613C62.9477 638.212 62.6923 638.941 63.5067 639.648C64.434 640.454 63.9985 641.484 64.0371 642.415C64.1059 644.072 63.9828 645.738 64.0788 647.392C64.1618 648.82 63.4234 650.533 64.5996 651.618C66.0524 652.958 63.1868 654.375 64.9669 655.728C65.2263 656.237 65.3103 656.818 65.2057 657.38C65.1012 657.942 64.8139 658.453 64.3886 658.835C63.7987 659.339 64.0445 659.883 64.4124 660.536C65.3499 661.68 65.8685 663.11 65.8822 664.588C65.8959 666.067 65.4039 667.506 64.4878 668.667C64.5139 670.605 64.8505 672.526 65.4848 674.356C66.7269 677.546 67.5856 680.871 68.0428 684.263C69.3756 688.134 70.1402 692.177 70.3127 696.267C71.7521 697.456 70.444 699.216 71.0971 700.415C71.9329 701.791 72.2483 703.422 71.9862 705.01C71.499 707.533 72.9545 709.658 73.1864 712.024C73.2352 712.521 74.1853 712.875 74.0139 713.652C73.2861 716.947 75.2144 719.957 75.0301 723.198C74.9123 723.831 74.9994 724.484 75.2787 725.064C76.486 726.926 77.1361 729.094 77.1524 731.313C77.3418 732.623 78.2806 733.983 77.9569 735.391C77.7425 736.985 78.1699 738.599 79.1451 739.877C80.595 742.203 79.4159 744.835 80.8927 747.171C82.6103 750.837 83.649 754.784 83.9584 758.82C84.2465 760.228 83.485 761.846 84.425 763.102C85.5563 764.612 84.1044 766.905 85.1914 767.679C87.087 769.03 85.141 770.088 85.445 771.304C86.3942 773.986 86.8937 776.807 86.9235 779.651C86.8053 781.4 87.2088 783.145 88.083 784.664C88.5563 785.387 88.7591 786.253 88.6555 787.11C88.4915 789.01 89.3676 791.001 88.2727 792.899C89.7077 795.003 88.239 797.516 89.056 799.546C89.7383 801.846 90.051 804.24 89.9825 806.638C90.2043 809.387 90.7017 812.114 90.9209 814.864C91.0401 816.36 92.348 816.978 93.0479 817.945C95.6419 821.53 98.0383 825.609 103.244 825.953C105.771 828.226 109.178 827.593 112.113 828.571C116.383 829.984 120.755 831.068 125.19 831.815C126.905 832.107 128.556 832.618 130.246 832.857C131.816 833.08 133.368 833.552 134.827 833.714C136.279 833.874 137.825 835.528 139.401 834.054C144.32 835.889 149.672 835.407 154.653 836.908C163.681 836.275 172.594 838.555 181.635 837.965C183.451 837.846 185.544 837.161 187.162 838.822C188.779 837.007 190.905 837.963 192.758 837.955C212.179 837.872 231.602 837.907 251.024 837.898C252.667 837.898 254.725 838.417 255.853 837.634C257.547 836.46 258.623 838.903 260.086 837.691C261.422 836.586 262.859 838.015 264.312 838.036C266.333 838.065 267.88 836.829 269.878 836.829C274.246 836.961 278.617 836.72 282.945 836.11C288.49 835.169 294.261 836.094 299.952 835.044C303.754 834.746 307.569 834.68 311.379 834.846C312.968 834.754 314.402 836.337 315.389 835.796C318.4 834.149 321.551 835.551 324.474 834.807C325.67 834.503 325.851 835.972 327.347 835.364C330.339 834.427 333.532 834.332 336.575 835.089C340.084 836.116 343.813 836.114 347.32 835.084C347.747 834.992 348.421 834.913 348.632 835.145C350.021 836.668 351.761 835.719 353.319 835.871C354.223 835.959 355.217 836.222 356.086 835.338C356.681 834.733 357.842 836.32 358.515 835.003C359.132 836.035 360.162 835.792 361.121 835.946C363.132 836.27 364.827 835.169 366.693 834.942C368.778 834.688 370.572 836.505 372.755 835.923C373.384 835.866 374.009 835.766 374.625 835.625C378.404 834.494 382.402 834.303 386.272 835.07C389.316 835.367 392.382 835.37 395.427 835.077C399.97 834.482 404.582 834.654 409.068 835.587C412.759 836.491 416.613 836.495 420.306 835.6C422.218 835.07 424.239 835.071 426.15 835.603C427.78 836.057 430.019 834.612 432.11 834.943C432.377 834.986 432.557 835.511 432.833 835.577C435.007 836.238 437.333 836.198 439.482 835.461C440.276 835.141 440.848 834.567 441.552 835.374C442.515 836.478 442.7 834.808 443.414 834.895C444.232 834.994 445.445 834.573 445.827 834.987C446.75 835.985 448.021 834.817 448.34 835.309C449.204 836.644 449.811 834.38 450.556 835.36C451.411 836.483 452.709 835.771 453.801 835.891C454.792 835.837 455.785 835.861 456.772 835.964C458.151 836.359 458.627 834.757 459.862 834.899C464.758 835.461 469.451 833.434 474.394 833.847C478.68 834.206 483.068 833.523 487.322 834.034C491.59 834.546 495.743 832.076 499.968 833.896C500.36 834.066 500.845 833.755 501.305 833.573C503.544 832.967 505.868 832.737 508.182 832.894C511.647 833.261 515.143 833.203 518.594 832.721C520.488 832.304 522.631 831.253 523.985 832.34C526.381 834.265 527.872 831.012 529.858 831.916C530.134 832.041 530.648 831.835 530.801 832.006C531.468 832.633 532.309 833.042 533.213 833.182C534.117 833.321 535.042 833.184 535.866 832.788C538.308 831.975 540.866 833.238 543.141 831.931C551.999 832.436 560.794 831.281 569.621 830.943C571.112 830.886 572.608 830.935 574.102 830.935C575.366 830.935 576.629 830.935 577.893 830.935C578.572 830.937 579.148 830.822 579.083 829.938C583.309 829.685 587.333 831.513 591.627 830.997C594.443 830.809 597.267 830.788 600.086 830.934H616.521C619.148 831.31 621.818 831.25 624.425 830.758C627.246 829.721 629.581 831.558 632.132 830.937C635.506 830.115 638.882 832.476 642.27 830.951C642.546 830.826 643.094 830.792 643.233 830.956C644.684 832.673 646.618 831.889 648.324 831.897C660.443 831.959 672.562 831.93 684.68 831.93C684.616 832.814 685.192 832.928 685.871 832.927C687.134 832.925 688.398 832.925 689.661 832.927H694.642C694.575 833.824 695.168 833.924 695.847 833.923C697.437 833.922 699.028 833.922 700.619 833.923H734.489C736.139 834.025 737.795 834.008 739.443 833.872C741.17 833.619 742.237 835.054 744.002 835.018C754.086 834.813 764.181 835.094 774.265 834.869C784.248 834.647 794.126 836.485 804.124 835.974C810.392 835.654 816.691 835.971 822.975 835.886C825.374 836.224 827.82 835.935 830.074 835.047C830.751 834.764 831.488 834.655 832.218 834.73C832.948 834.804 833.648 835.061 834.253 835.475C834.933 835.919 835.725 836.16 836.537 836.168C837.348 836.177 838.146 835.953 838.835 835.524C840.295 834.526 841.691 835.216 843.073 834.919C844.336 834.919 845.6 834.919 846.863 834.92C847.542 834.921 848.118 834.806 848.054 833.923H850.046C850.892 834.606 851.947 834.979 853.035 834.979C854.122 834.979 855.177 834.606 856.023 833.923C857.304 833.766 858.597 834.093 859.65 834.838C860.976 835.932 862.144 833.739 863.641 833.913C868.288 834.455 873.082 832.822 877.646 834.88C877.945 835.005 878.27 835.057 878.593 835.033C878.916 835.009 879.229 834.909 879.506 834.741C879.853 834.398 880.277 834.144 880.743 834.001C881.21 833.858 881.703 833.831 882.183 833.921C884.301 833.568 886.467 833.625 888.563 834.087C890.754 835.081 892.392 833.758 894.269 833.92C894.433 833.935 894.648 833.855 894.758 833.932C895.653 834.479 896.648 834.841 897.685 834.997C898.722 835.154 899.78 835.101 900.796 834.843C903.035 834.472 904.784 835.912 906.852 835.913C912.811 835.917 918.789 836.207 924.724 835.833C930.795 835.451 936.674 837.113 942.691 836.91H947.672C953.301 836.91 958.933 836.786 964.557 836.945C970.233 836.467 975.947 836.782 981.536 837.88C984.46 838.787 987.129 836.775 990.056 836.866C995.184 837.024 1000.32 836.91 1005.45 836.91H1013.42C1017.06 836.91 1020.72 837.185 1024.33 836.834C1028.12 836.465 1031.63 837.999 1035.34 837.906H1040.32C1043.99 837.482 1047.78 838.795 1051.4 836.981C1051.92 836.737 1052.5 836.618 1053.08 836.632C1053.66 836.647 1054.23 836.795 1054.74 837.065C1056.27 838.353 1057.86 837.76 1059.42 837.892C1068.61 838.671 1077.71 836.609 1086.9 836.839C1089.26 836.861 1091.61 836.444 1093.83 835.609C1099.31 833.55 1104.58 830.978 1109.57 827.925C1113.15 825.769 1116.05 822.614 1119.44 820.384C1123.13 817.965 1125.46 814.169 1129.32 812.1C1130.32 811.491 1131.16 810.652 1131.77 809.651C1132.43 808.642 1132.65 807.36 1133.25 806.295C1133.77 805.349 1135.2 804.945 1134.95 803.513C1134.66 801.851 1136.57 801.58 1136.93 800.349C1136.99 800.035 1136.94 799.708 1136.78 799.429C1136.52 798.971 1135.64 798.734 1136.5 798.001C1137.36 797.077 1138.01 795.976 1138.4 794.775C1138.8 793.574 1138.92 792.302 1138.77 791.048C1139.56 786.368 1139.28 781.571 1137.97 777.011C1137.87 776.779 1137.82 776.53 1137.82 776.278C1137.82 776.026 1137.87 775.777 1137.97 775.545C1139.21 773.297 1138.36 771.194 1138.13 768.866C1137.56 762.947 1138 756.933 1137.9 750.96C1138.05 749.724 1138.36 748.514 1138.84 747.364C1139.14 746.09 1139.09 744.757 1138.7 743.507C1137.8 740.115 1137.73 736.553 1138.51 733.129C1138.95 731.502 1139.1 729.806 1138.94 728.125C1138.45 725.91 1136.9 723.704 1138.91 721.458C1139.02 721.343 1138.81 720.857 1138.65 720.609C1138.12 719.702 1137.83 718.683 1137.78 717.637C1137.73 716.591 1137.94 715.55 1138.38 714.6C1138.64 713.865 1138.63 713.684 1138.22 713.13C1137.87 712.651 1136.37 712.383 1137.5 711.431C1138.45 710.629 1136.37 710.198 1137.53 709.215C1139.07 707.918 1136.36 705.875 1137.91 704.246C1138.01 704.027 1138.05 703.786 1138.03 703.545C1138.01 703.305 1137.92 703.075 1137.79 702.876C1136.35 701.681 1137.11 700.11 1136.97 698.716C1136.84 697.501 1134.73 696.296 1136.9 695.042C1135.43 693.961 1136.3 692.319 1135.9 691.01C1135.38 689.321 1137.5 688.269 1136.88 686.956C1135.71 684.468 1136.53 681.766 1135.81 679.412C1135.26 678.285 1134.98 677.046 1134.98 675.791C1134.98 674.537 1135.28 673.3 1135.83 672.176C1136.2 671.558 1135.64 671.049 1135.4 670.465C1134.58 668.44 1135.22 666.061 1133.98 664.099C1135.21 663.356 1134.65 662.028 1135.03 661.048C1135.46 659.958 1133.11 659.509 1134.72 658.188C1135.31 657.704 1134.83 656.002 1134.98 654.873C1135.12 653.781 1133.37 653.272 1134 652.325C1134.79 651.21 1135.29 649.919 1135.46 648.565C1135.63 647.211 1135.47 645.836 1134.98 644.561C1134.92 644.363 1135.19 643.967 1135.41 643.771C1135.66 643.57 1135.83 643.292 1135.9 642.981C1135.98 642.67 1135.94 642.344 1135.81 642.054C1134.83 638.395 1134.21 634.65 1133.95 630.871C1134.05 629.271 1133.78 627.669 1133.16 626.192C1132.77 625.375 1132.59 624.477 1132.63 623.574C1132.66 622.672 1132.92 621.791 1133.37 621.008C1134.02 619.941 1134.09 619.406 1133.24 618.534C1132.97 618.224 1132.81 617.833 1132.79 617.423C1132.77 617.013 1132.89 616.608 1133.12 616.272C1134.15 615.192 1133.82 614.624 1133.23 613.396C1132.84 612.676 1132.66 611.86 1132.72 611.045C1132.78 610.229 1133.07 609.447 1133.56 608.791C1133.92 608.35 1134.16 607.725 1133.93 607.486C1131.92 605.455 1133.24 604.107 1134.66 602.565C1134.88 602.225 1135.01 601.839 1135.05 601.438C1135.09 601.036 1135.04 600.631 1134.89 600.254C1134.13 598.619 1134.84 597.099 1134.8 595.578C1135.51 590.062 1135.23 584.464 1133.99 579.045C1133.74 578.415 1133.74 577.713 1134 577.087C1135.81 573.849 1134.59 570.365 1134.96 567.021C1135.85 567.087 1135.95 566.495 1135.95 565.816C1135.95 564.226 1135.95 562.636 1135.95 561.045C1136.64 558.609 1134.67 556.258 1135.72 553.81C1134.84 551.255 1134.59 548.528 1134.98 545.856C1134.66 544.328 1134.92 542.734 1135.72 541.39C1134.53 538.071 1134.61 534.429 1135.95 531.168C1135.95 529.905 1135.95 528.642 1135.95 527.379C1135.95 526.7 1135.84 526.124 1134.96 526.189C1134.96 524.538 1134.86 522.88 1134.98 521.238C1135.09 519.859 1134.04 518.33 1134.47 517.411C1135.25 515.757 1134.65 514.198 1134.97 512.654C1135.2 511.588 1133.34 510.763 1134.86 509.409C1135.44 508.897 1134.96 507.202 1134.96 506.046C1134.76 504.743 1134.8 503.415 1135.06 502.124C1135.29 501.708 1135.4 501.239 1135.39 500.765C1135.37 500.291 1135.23 499.829 1134.98 499.428C1134.39 498.424 1133.51 497.283 1135.3 496.433C1135.46 496.373 1135.6 496.28 1135.71 496.16C1135.83 496.04 1135.91 495.897 1135.97 495.74C1136.02 495.583 1136.04 495.416 1136.02 495.251C1136 495.086 1135.95 494.927 1135.86 494.786C1135.18 493.991 1134.79 492.982 1134.77 491.932C1134.75 490.883 1135.1 489.861 1135.75 489.04C1134.39 487.492 1137.43 485.356 1135.04 483.844C1134.59 483.563 1135.09 482.707 1135.59 482.195C1136.39 481.389 1135.77 480.317 1135.95 479.381C1136.64 478.536 1137.01 477.481 1137.01 476.393C1137.01 475.306 1136.64 474.251 1135.95 473.406C1136 472.158 1135.58 470.781 1136.9 469.876C1134.66 468.902 1137.83 466.708 1135.95 465.65C1137.19 463.982 1136.12 462.634 1135.27 461.321C1135.03 460.95 1134.91 460.901 1135.31 460.588C1135.78 460.285 1136.19 459.88 1136.49 459.401C1136.79 458.923 1136.98 458.384 1137.04 457.823C1137.11 457.262 1137.05 456.693 1136.87 456.158C1136.69 455.623 1136.39 455.135 1136 454.729C1135.12 453.433 1137.46 451.916 1136.85 451.311C1134.71 449.182 1136.66 447.335 1137.1 445.637C1137.61 443.992 1137.89 442.287 1137.95 440.566C1137.93 438.256 1138.11 435.93 1137.88 433.641C1137.75 432.327 1138.76 431.65 1138.94 430.582V416.648C1136.52 413.939 1139.22 411.255 1139.12 408.514C1139.01 405.335 1137.49 402.117 1138.9 398.882C1139.02 398.6 1138.66 397.967 1138.35 397.663C1138.06 397.37 1137.88 396.993 1137.81 396.587C1137.75 396.18 1137.82 395.765 1138.01 395.4C1139.42 393.994 1138.93 392.323 1138.89 390.773C1138.86 389.393 1139.94 387.579 1139.42 386.976C1137.77 385.058 1140.99 384.171 1139.96 382.543C1138.81 380.732 1140.01 378.799 1139.95 376.917C1139.89 374.763 1139.93 372.606 1139.94 370.451C1139.94 369.327 1139.68 368.113 1140.9 367.37C1139.77 366.607 1139.91 365.456 1139.93 364.313C1139.81 362.66 1139.84 361.001 1140.01 359.353C1140.33 357.74 1141.01 356.361 1140.02 354.643C1139.79 354.107 1139.67 353.529 1139.67 352.944C1139.66 352.36 1139.78 351.78 1140.01 351.242C1140.59 350.045 1140.9 348.729 1140.9 347.395C1140.9 346.061 1140.6 344.745 1140.01 343.548C1139.87 343.085 1139.84 342.598 1139.92 342.122C1140 341.646 1140.18 341.193 1140.46 340.798C1141.36 339.215 1140.88 337.107 1141.91 335.458C1139.89 333.526 1140.75 330.937 1141.15 328.944C1141.27 327.403 1141.61 325.886 1142.14 324.435C1142.89 322.985 1141.97 321.611 1142.72 320.009C1143.33 317.769 1143.39 315.413 1142.88 313.147C1142.63 310.664 1144.67 308.595 1143.92 306.093C1144.8 306.158 1144.92 305.582 1144.92 304.903C1144.92 303.64 1144.92 302.377 1144.92 301.114C1144.74 298.55 1145.04 295.976 1145.82 293.528C1146.27 292.089 1146.27 290.547 1145.82 289.109C1145.48 287.868 1147.27 287.268 1146.21 285.766C1145.5 284.758 1146.11 282.895 1145.87 281.455C1145.69 280.367 1145.06 279.544 1145.81 278.234C1146.55 276.963 1145.47 275.201 1146.8 273.636C1147.72 272.557 1145.97 270.804 1146.78 269.02C1147.14 267.403 1147.18 265.734 1146.91 264.1C1146.92 263.286 1146.66 262.153 1147.08 261.717C1148.65 260.114 1147.85 258.236 1147.82 256.551C1147.79 254.715 1149.42 253.384 1148.94 251.477C1148.71 250.54 1149.12 249.429 1148.84 248.52C1148.55 247.563 1150.66 247.228 1149.26 246.183C1148.46 245.581 1150.49 244.959 1149.22 243.969C1148.63 243.503 1148.95 241.825 1148.91 240.694C1148.81 239.703 1148.82 238.704 1148.94 237.715C1149.26 236.056 1150.58 234.56 1149.72 232.72C1148.89 230.943 1150.24 229.308 1149.98 227.487C1149.69 225.18 1149.68 222.846 1149.95 220.536C1150.17 218.346 1148.85 215.901 1150.89 213.975C1148.85 212.049 1149.92 209.565 1150.02 207.425C1150.12 205.023 1148.3 202.661 1149.9 200.282C1148.91 198.903 1148.07 197.523 1149.84 196.105C1148.27 194.851 1149.1 193.102 1148.9 191.565V185.59C1148.9 184.761 1148.59 183.726 1148.97 183.148C1149.73 181.991 1146.99 181.556 1148.6 180.267C1149.03 179.917 1147.78 178.926 1147.82 177.876C1147.87 176.658 1148.91 175.668 1148.77 174.834C1148.6 173.431 1147.95 172.131 1146.92 171.159C1147.85 170.089 1149.7 169.12 1148.81 167.567C1147.88 165.861 1147.58 163.877 1147.99 161.974C1148.36 159.73 1146.69 158.087 1146.83 155.906C1147.19 153.51 1146.94 151.059 1146.08 148.792C1145.7 147.969 1145.54 147.061 1145.61 146.157C1145.68 145.253 1145.99 144.384 1146.5 143.633C1147.02 142.946 1145.5 141.794 1146.9 141.139C1146.94 141.066 1146.96 140.986 1146.95 140.904C1146.95 140.823 1146.94 140.743 1146.9 140.67C1145.6 139.35 1145.94 137.682 1145.92 136.101C1145.72 134.29 1145.75 132.461 1146.01 130.657C1146.39 129.122 1144.75 128.072 1145.69 126.377C1146.37 125.13 1144.33 121.982 1143.12 121.897C1141.52 121.556 1139.86 121.656 1138.31 122.188C1136.59 123.226 1134.64 122.572 1132.93 123.733C1131.6 124.644 1129.55 123.322 1127.77 124.439C1126.07 125.51 1123.93 124.775 1121.98 124.815C1118.01 124.898 1114.03 124.84 1110.05 124.84H1095.11C1093.7 124.357 1092.93 125.939 1091.56 125.879C1089.34 125.478 1087.04 125.796 1085.01 126.788C1084.72 126.938 1084.39 127.016 1084.05 127.016C1083.72 127.016 1083.39 126.938 1083.09 126.787C1080.91 125.719 1078.43 125.395 1076.05 125.865C1068.79 125.784 1061.53 125.835 1054.26 125.835H1054.26ZM1142.92 114.768C1143.13 113.51 1143.1 112.226 1142.84 110.979C1142.52 110.502 1142.36 109.938 1142.37 109.365C1142.39 108.793 1142.58 108.239 1142.92 107.78C1142.32 106.812 1141.93 105.73 1141.77 104.602C1141.61 103.475 1141.69 102.326 1142 101.229C1141.98 94.4549 1140.22 87.799 1136.89 81.9005C1136 80.2331 1134.92 78.6747 1133.68 77.2568C1132.55 75.6908 1130.99 74.5167 1129.8 72.9429C1128.74 71.5585 1127.54 70.2917 1126.21 69.1642C1123.41 66.812 1120.51 64.547 1117.62 62.289C1115.03 59.6922 1111.57 58.1393 1107.91 57.9263C1105.56 58.1138 1103.22 57.4611 1101.3 56.0842C1099.36 54.4164 1096.69 54.2621 1094.76 52.485C1093.74 51.8118 1092.61 51.3218 1091.42 51.0371C1086.4 49.3492 1081.09 48.8703 1076.1 47.1588C1071.74 47.092 1067.39 46.7547 1063.07 46.1489C1061.08 46.231 1059.08 46.247 1057.09 46.1324C1055.81 46.32 1054.49 46.1881 1053.27 45.7484C1052.05 45.0781 1050.78 46.8645 1049.46 46.1457C1046.06 44.297 1042.42 45.4943 1038.9 45.1857C1037.59 45.07 1035.64 45.7232 1035.04 45.0619C1033.28 43.1421 1030.97 44.9244 1029.07 43.58C1028.13 43.1359 1027.09 42.9533 1026.06 43.0516C1025.02 43.1498 1024.03 43.5253 1023.19 44.1383C1022.97 44.2326 1022.73 44.2709 1022.49 44.2501C1022.24 44.2293 1022.01 44.15 1021.81 44.019C1020.62 42.5434 1019.03 43.2135 1017.65 43.2287C1016.05 42.9337 1014.4 43.1855 1012.96 43.9438C1011.74 44.7749 1010.23 42.9305 1008.51 43.1104C1002.97 43.6878 997.566 41.4031 991.994 42.1837C991.671 42.2455 991.337 42.2111 991.034 42.0847C990.731 41.9583 990.472 41.7456 990.289 41.4729C990.138 41.2765 989.917 41.1465 989.672 41.1105C989.427 41.0744 989.178 41.1352 988.977 41.2799C988.769 41.5881 988.491 41.8417 988.165 42.0192C987.838 42.1967 987.474 42.2929 987.103 42.2995C986.732 42.3062 986.364 42.2232 986.032 42.0576C985.699 41.8919 985.412 41.6485 985.194 41.348C983.862 42.5318 982.197 41.9291 980.703 42.2217C977.539 42.8416 974.751 40.7913 971.642 41.161C970.497 41.2972 969.308 41.0732 968.162 41.2108C966.785 41.3767 965.96 40.179 964.601 40.0494C963.321 39.9273 962.503 39.155 960.827 39.9749C959.867 40.4448 958.789 40.6211 957.73 40.4816C956.67 40.3421 955.675 39.893 954.869 39.1907C954.026 39.8322 953.032 40.2473 951.983 40.3964C950.934 40.5455 949.864 40.4237 948.876 40.0426C945.382 38.3876 941.45 40.3081 938.178 38.1949C931.8 38.6764 925.579 36.7653 919.165 37.116C912.379 37.487 905.557 37.2028 898.751 37.1958C897.601 37.286 896.445 37.2504 895.304 37.0896C892.5 35.9754 889.379 35.9593 886.563 37.0444C885.776 37.2638 884.756 37.5368 884.269 36.9607C883.305 35.8205 882.092 36.5114 881.076 36.1668C879.54 35.6453 878.315 37.3234 876.763 36.5523C875.198 36.0707 873.544 35.9586 871.929 36.2249C865.953 36.1708 859.977 36.1716 854.001 36.2275C852.393 35.9186 850.731 36.0487 849.191 36.6042C847.921 37.352 846.488 35.3465 845.162 37.112C844.743 37.6698 842.617 37.6604 841.859 37.1074C840.15 36.1448 838.149 35.8379 836.23 36.2441C832.352 36.1209 828.471 36.3661 824.64 36.9764C823.164 37.4915 821.597 37.697 820.038 37.58C818.479 37.463 816.961 37.0261 815.578 36.2965C815.059 36.0401 814.48 35.9313 813.904 35.982C813.328 36.0328 812.777 36.2411 812.311 36.5841C811.736 37.0204 811.04 37.2686 810.319 37.295C809.598 37.3214 808.886 37.1246 808.28 36.7315C807.855 36.5142 807.705 36.2875 807.187 36.6738C805.744 37.7506 804.027 37.0775 802.433 37.1764C800.779 37.2789 799.083 37.0017 797.463 37.2553C795.871 37.5045 794.357 39.3045 792.791 37.2247C791.555 38.8783 789.777 38.0906 788.233 38.1636C785.748 38.281 783.254 38.1952 780.764 38.1952H772.796C770.306 38.1952 767.811 38.1014 765.327 38.2209C762.723 38.3459 759.861 37.3392 757.574 38.6775C754.938 40.2201 753.106 37.2105 750.691 38.1414C749.258 38.6942 747.653 37.9267 746.007 38.9172C745.204 39.3313 744.312 39.5428 743.408 39.5332C742.505 39.5236 741.618 39.2933 740.824 38.8624C739.846 38.3037 738.712 38.0819 737.595 38.2312C734.537 37.8258 731.426 38.1277 728.502 39.1136C728.065 39.3559 727.564 39.4593 727.067 39.4099C726.57 39.3606 726.099 39.1608 725.718 38.8373C724.838 37.8785 723.667 39.581 722.687 38.2877C722.188 38.0085 721.611 37.8989 721.044 37.9754C720.477 38.0519 719.95 38.3104 719.543 38.7119C718.101 40.4044 717.168 37.3659 716.218 38.2527C715.631 38.8282 714.883 39.2113 714.073 39.3512C713.263 39.491 712.43 39.381 711.684 39.0356C710.128 38.1639 708.705 38.7774 707.261 38.4656C705.359 37.916 703.348 37.8631 701.42 38.312C699.969 38.9538 698.398 39.2829 696.811 39.2777C695.224 39.2726 693.655 38.9333 692.208 38.2821C691.998 38.1507 691.749 38.0989 691.504 38.1359C691.259 38.173 691.036 38.2965 690.875 38.4841C690.001 39.6328 688.761 39.1631 687.678 39.1548C686.737 39.1476 685.582 39.6868 684.861 38.8226C683.706 37.4367 683.086 40.241 682.08 39.0752C681.419 38.4387 680.575 38.0251 679.667 37.8923C678.759 37.7596 677.832 37.9144 677.017 38.335C673.205 39.0998 669.316 39.407 665.432 39.2503C663.801 39.4818 662.383 37.6727 661.429 38.3076C658.752 40.0898 655.955 39.1528 653.31 39.0978C645.793 39.3712 638.267 39.1314 630.783 38.3799C624.442 38.3242 618.103 38.6375 611.798 39.3181C607.283 38.507 602.639 38.7979 598.261 40.1661C598.027 40.2734 597.651 40.0845 597.345 40.0165C594.508 39.0433 591.423 39.0681 588.603 40.0869C588.073 40.3047 587.501 40.3965 586.93 40.3551C586.36 40.3137 585.806 40.1402 585.314 39.8483C584.577 39.2083 583.853 39.3299 583.081 39.1598C581.36 38.78 580.281 40.3953 578.502 40.3332C576.654 40.2687 575.355 38.5977 573.43 39.1523C572.515 39.416 571.093 38.8745 570.577 39.3834C569.245 40.6973 567.774 40.1012 566.382 40.1547C563.564 40.2628 560.739 40.1869 557.918 40.1869H435.903C433.19 37.739 430.486 40.9473 427.76 40.2035C426.664 40.0837 425.574 39.9076 424.496 39.6758C423.141 39.1121 421.688 38.8227 420.22 38.8244C418.753 38.8261 417.3 39.1189 415.946 39.6858C413.137 41.12 410.534 38.6123 407.973 40.1415C407.677 40.2699 407.353 40.3218 407.032 40.2926C406.71 40.2635 406.401 40.1541 406.133 39.9745C405.201 38.8198 404.023 39.2114 402.935 39.2077C394.136 39.1786 385.334 39.3263 376.544 39.0549C375.126 39.0111 373.771 41.0032 372.382 39.1985C367.735 39.1961 363.087 39.2131 358.44 39.1778C357.348 39.2485 356.282 39.5428 355.309 40.0425C354.622 40.3054 353.886 40.4183 353.152 40.3738C352.418 40.3293 351.702 40.1283 351.051 39.7844C350.039 39.2569 348.923 38.9571 347.782 38.9062C346.641 38.8553 345.503 39.0544 344.447 39.4896C342.856 40.231 341.053 40.3853 339.358 39.9251C337.625 39.3982 335.844 41.2599 334.694 40.1014C333.009 38.405 331.785 41.3948 330.491 40.1139C329.213 38.8494 328.017 38.6637 326.724 40.0142C325.121 38.0715 323.715 40.4306 322.136 40.2435C320.149 40.1082 318.155 40.0895 316.166 40.1876C313.842 40.1876 311.506 40.3246 309.2 40.1198C308.286 40.0386 308.342 41.2605 307.244 40.8875C305.686 40.2434 304.011 39.9334 302.326 39.9773C300.641 40.0212 298.984 40.4182 297.462 41.1426C297.164 41.2732 296.839 41.3296 296.514 41.307C296.189 41.2844 295.875 41.1835 295.598 41.013C294.522 39.7231 293.161 40.2154 291.92 40.2138C289.196 40.1077 286.471 40.383 283.824 41.032C280.973 41.8251 277.842 41.1809 274.775 42.0297C271.996 42.5546 269.146 42.5865 266.356 42.124C263.382 41.8477 260.79 43.4539 257.793 43.262C252.824 42.9102 247.835 42.9089 242.865 43.2583C237.755 43.6543 232.899 41.963 227.83 42.0833C225.127 42.5021 222.383 42.5945 219.658 42.3585C215.872 41.8452 212.038 41.7993 208.242 42.2218C204.487 42.4112 200.99 40.8659 197.191 41.0474C194.741 41.1647 192.536 42.1709 190.14 42.1758C184.828 42.1867 179.516 42.1879 174.204 42.1792C168.892 42.1792 163.558 42.4772 158.274 42.0954C153.001 41.7143 147.977 43.6308 142.741 43.2033C140.506 42.9899 138.252 43.2917 136.151 44.0855C134.291 44.6268 132.392 45.0232 130.471 45.2711C128.33 45.8744 126.115 46.1762 123.89 46.1679C123.394 46.1339 122.788 45.9771 122.412 46.1911C117.817 48.8032 112.164 47.4233 107.612 50.1464C103.267 50.638 99.1483 52.3397 95.7234 55.0577C91.4424 57.7712 87.3628 60.79 83.5162 64.0906C82.9053 64.6127 82.3924 65.2395 82.0015 65.9415C80.9056 68.1614 79.6143 70.2794 78.143 72.2705C76.5242 74.3785 75.4143 76.8321 74.8999 79.4398C74.2431 81.5823 74.6823 84.046 73.5411 85.8117C71.9858 88.2187 72.7037 91.0659 71.238 93.5478C70.3467 95.0565 70.8072 97.5067 70.1333 99.5226C69.7895 100.551 70.796 101.759 70.1276 103.189C69.1165 104.836 68.7389 106.794 69.0653 108.699C69.6564 110.776 67.6374 112.295 68.0505 114.267C68.3751 115.817 67.3451 117.147 67.5598 118.77C67.83 120.813 68.2917 121.826 70.0545 121.845C72.3381 122.258 74.6819 122.199 76.9421 121.674C78.0167 121.243 79.168 121.035 80.3254 121.065C81.4828 121.094 82.6221 121.36 83.6733 121.845C83.8307 121.906 84.0055 121.905 84.1618 121.841C86.3328 120.161 88.8619 120.911 91.2277 120.89C100.523 120.805 109.823 120.697 119.115 120.9C128.276 121.099 137.412 120.796 146.613 121.618C157.647 122.604 168.836 121.86 179.959 121.832C180.886 121.83 181.971 122.268 182.698 121.253C183.756 119.778 184.397 121.894 185.473 121.533C188.055 120.327 190.893 119.766 193.74 119.901C196.787 119.868 199.823 119.512 202.795 118.84C212.132 119.324 221.493 119.004 230.774 117.883C233.424 117.304 236.104 118.346 238.915 117.076C241.412 115.948 244.702 117.619 247.376 115.875C252.953 115.872 258.525 115.57 264.07 114.971C268.26 114.286 272.553 114.596 276.602 115.875C281.957 115.928 287.306 116.269 292.625 116.895C296.771 116.775 300.925 116.925 305.074 116.841C306.406 116.853 307.727 117.075 308.99 117.496C309.958 115.679 311.099 118.079 312.097 117.372C313.437 116.424 314.965 117.135 316.37 116.858C320.252 116.092 324.106 118.717 328.018 116.917C328.309 116.748 328.649 116.684 328.981 116.735C329.313 116.787 329.618 116.95 329.844 117.199C330.58 118.258 331.637 117.835 332.565 117.845C334 117.974 335.441 117.684 336.715 117.01C337.698 116.441 339.215 117.83 340.68 118.036C342.045 118.227 342.878 116.48 344.489 117.654C345.47 118.37 347.391 118.036 348.835 117.816C350.567 117.553 351.6 119.211 353.423 118.956C356.028 118.591 358.802 119.26 361.356 118.75C363.842 118.252 366.082 121.477 368.483 118.955C373.312 121.348 378.806 118.44 383.633 120.855C390.814 120.732 397.995 121.081 405.131 121.899C413.643 121.638 422.164 121.893 430.646 122.663C437.843 123.791 445.268 122.928 452.634 123.639C461.516 124.497 470.543 123.843 479.508 123.841C480.334 123.841 481.56 124.165 481.913 123.751C483.154 122.297 484.736 122.729 486.054 122.93C487.834 123.203 488.935 121.736 490.636 121.778C493.688 122.241 496.806 121.949 499.718 120.926C500.827 120.53 502.039 120.527 503.15 120.919C504.718 121.415 505.822 119.242 506.64 119.973C507.693 120.914 508.487 119.804 509.233 120.262C510.483 121.03 511.321 119.597 512.573 119.783C514.556 119.953 516.55 119.978 518.538 119.859C520.254 122.191 521.966 119.189 523.692 119.848C524.124 120.013 524.773 119.886 525.037 120.164C525.907 121.079 526.578 121.105 527.496 120.191C528.273 119.417 529.385 119.885 530.333 119.88C537.969 119.842 545.608 119.966 553.24 119.778C554.97 119.735 556.675 121.316 558.393 119.859C559.024 120.46 559.858 120.802 560.73 120.818C561.602 120.834 562.448 120.522 563.101 119.945C563.549 119.74 564.042 119.651 564.534 119.684C565.026 119.718 565.502 119.874 565.919 120.137C566.97 120.744 568.155 121.079 569.368 121.111C570.581 121.144 571.782 120.873 572.864 120.323C573.908 119.853 574.691 121.776 575.55 120.111C575.814 119.6 577.688 119.869 578.825 119.867C588.122 119.853 597.418 119.867 606.714 119.852C608.403 119.849 610.172 119.293 611.681 119.323C613.337 119.355 614.92 120.415 616.435 118.869C617.839 120.649 619.793 119.757 621.5 119.822C624.815 119.949 628.138 119.859 631.458 119.859C634.945 119.859 638.45 119.629 641.911 119.925C645.216 120.208 648.166 118.437 651.468 118.829C658.672 119.685 665.76 117.596 672.967 117.781C675.109 117.836 677.243 116.061 679.49 117.578C681.048 116.942 682.72 116.637 684.402 116.68C686.084 116.723 687.739 117.113 689.263 117.828C689.562 117.968 689.89 118.036 690.219 118.024C690.549 118.013 690.872 117.924 691.161 117.764C692.545 116.275 694.255 116.909 695.802 116.902C708.418 116.847 721.034 116.849 733.651 116.909C735.847 116.923 738.186 116.141 740.261 117.804C740.627 118.002 741.051 118.065 741.458 117.981C741.866 117.898 742.231 117.674 742.49 117.348C742.957 116.756 743.677 116.577 744.159 117.125C745.398 118.535 746.959 117.739 748.352 117.827C750.667 117.974 752.998 117.867 755.322 117.867H769.764C772.075 117.635 774.405 117.675 776.707 117.986C778.707 118.746 780.921 118.714 782.898 117.896C783.127 117.793 783.384 117.775 783.625 117.843C783.866 117.912 784.075 118.064 784.214 118.271C784.939 119.282 786.022 118.786 786.954 118.852C791.66 118.601 796.379 118.906 801.013 119.762C804.192 120.741 807.846 118.806 811.045 120.83C811.196 120.868 811.354 120.867 811.505 120.827C811.656 120.788 811.794 120.711 811.908 120.604C812.944 119.298 814.36 119.901 815.597 119.886C821.074 119.823 826.552 119.822 832.03 119.884C833.405 119.899 834.852 119.047 835.925 119.326C840.304 119.896 844.725 120.07 849.135 119.847C850.069 119.922 850.654 118.101 851.618 119.026C853.075 120.424 854.723 119.667 856.278 119.848C861.633 119.86 866.984 119.539 872.299 118.888C883.919 118.808 895.545 119.098 907.158 118.797C918.841 118.494 930.457 119.55 942.105 119.895C947.132 119.336 952.217 119.661 957.132 120.855C964.436 120.855 971.749 121.05 979.038 120.715C980.863 120.268 982.726 119.994 984.603 119.899C986.482 120.061 988.371 120.097 990.256 120.009C997.954 120.048 1005.6 119.445 1013.25 118.864C1019.44 119.315 1025.66 118.985 1031.77 117.88C1032.07 117.781 1032.59 117.726 1032.73 117.889C1034.19 119.591 1036.11 118.722 1037.83 118.837C1039.65 118.949 1041.48 118.95 1043.3 118.84C1044.85 118.754 1046.59 119.495 1047.85 117.925C1049.42 119.311 1050.91 117.571 1052.53 117.778C1055.18 118.091 1057.84 118.102 1060.49 117.809C1063.31 117.517 1065.7 119.157 1068.55 118.945C1077.52 118.278 1086.51 119.248 1095.55 118.063C1103 117.558 1110.47 117.48 1117.93 117.829C1120.66 117.92 1123.38 117.68 1126.05 117.116C1128.58 116.101 1131.32 115.681 1134.04 115.885C1137.02 116.494 1139.66 114.724 1142.92 114.768L1142.92 114.768Z" fill="#212222"/>
<path d="M991.312 82.1238C990.793 82.1506 990.272 82.1074 989.764 81.9953C988.139 81.358 987.206 83.035 985.693 83.1214C984.084 83.2132 983.204 81.777 981.609 81.934C980.25 82.0678 978.673 82.5921 977.396 81.3719C976.505 80.5214 974.162 81.7918 974.356 79.3107C973.765 79.073 973.13 78.9617 972.494 78.9839C971.857 79.0061 971.232 79.1613 970.659 79.4396C968.177 80.656 965.632 81.7497 963.188 83.0361C962.777 83.2888 962.424 83.6235 962.149 84.0192C961.875 84.4149 961.685 84.8632 961.592 85.3358C961.499 85.8084 961.504 86.2951 961.608 86.7654C961.712 87.2357 961.913 87.6795 962.196 88.0687C964.461 92.0349 965.637 96.5293 965.605 101.096C965.108 102.951 964.249 104.689 963.078 106.211C961.906 107.732 960.445 109.006 958.779 109.96C954.666 111.43 950.411 112.468 946.084 113.056C940.438 113.899 934.719 114.146 929.021 113.793C926.473 113.793 924.028 112.781 922.226 110.979C919.574 108.472 917.563 105.363 916.365 101.915C915.301 99.1095 915.128 96.0229 914.197 93.1244C913.712 91.6149 913.806 89.5264 913.342 89.0647C912.853 88.6476 912.455 88.1344 912.173 87.5571C911.891 86.9798 911.73 86.3506 911.702 85.7086C911.638 84.4461 910.082 84.927 909.276 85.1364C908.622 85.3059 908.547 86.2461 909.109 86.7468C910.503 87.9892 909.614 89.5519 909.784 90.9503C909.914 92.0271 911.997 92.9653 910.073 94.2096C911.714 96.7792 910.202 99.2246 909.868 101.75C909.68 102.954 909.213 104.097 908.504 105.087C907.794 106.077 906.863 106.887 905.783 107.452C901.856 109.962 897.163 110.64 893.022 112.744C891.23 113.653 888.708 112.92 886.491 113.768C884.811 114.41 882.816 113.868 880.912 114.752C879.463 115.424 877.574 114.988 875.845 115.735C875.182 116.09 874.424 116.226 873.679 116.124C872.934 116.023 872.24 115.689 871.696 115.17C871.513 115.037 871.3 114.952 871.076 114.923C870.852 114.894 870.625 114.921 870.414 115.003C868.232 117.319 866.633 114.917 864.96 114.233C863.994 113.839 863.412 112.559 862.026 112.865C861.726 112.866 861.436 112.759 861.21 112.563C861.503 110.529 859.588 109.539 859.055 107.96C857.025 102.906 855.666 97.6069 855.013 92.1991C854.924 90.8605 853.131 89.8579 854.272 88.2252C855.275 86.7895 853.606 85.495 853.961 83.9593C854.161 82.4789 854.183 80.9799 854.027 79.4944C853.983 77.0863 855.684 74.9281 855.027 72.4384C854.797 69.8747 855.206 67.2938 856.218 64.9272C856.58 62.6405 857.177 60.3971 857.998 58.2324C858.746 56.822 859.778 55.5822 861.03 54.5915C862.356 53.4664 863.234 51.8797 865.502 52.0324C867.059 52.06 868.582 51.5758 869.837 50.6541C871.929 49.4871 874.314 48.95 876.704 49.1075C882.125 48.5292 887.589 48.3918 892.978 47.5343C894.029 47.367 894.938 49.0636 896.163 47.4931C896.846 46.6176 898.495 46.8801 899.432 47.2375C901.838 47.6829 904.274 47.9471 906.719 48.0277C909.354 48.3584 912.016 48.4001 914.66 48.1522C916.087 48.0943 917.505 48.4113 918.772 49.0717C920.645 50.0728 922.447 51.6263 924.882 51.1675C925.037 51.1773 925.188 51.2197 925.326 51.2919C925.464 51.3642 925.585 51.4647 925.681 51.5869C926.101 52.2233 926.665 52.7515 927.328 53.1284C927.991 53.5052 928.734 53.72 929.495 53.7554C930.815 53.361 932.071 52.782 933.228 52.0354C936.854 50.1426 940.89 49.1727 944.98 49.2114C947.838 49.0933 950.668 48.5967 953.396 47.7345C954.319 47.69 955.226 47.4736 956.069 47.0964C957.549 46.0754 958.314 48.705 959.945 47.5077C960.582 47.1768 961.299 47.0316 962.015 47.0885C962.73 47.1454 963.415 47.4022 963.992 47.8296C965.269 48.5369 967.634 47.4972 968.704 48.306C970.012 49.2942 971.453 48.8478 972.71 49.629C973.849 50.4444 975.153 51.0008 976.53 51.2591C978.527 51.5329 979.365 53.8288 981.083 55.0378C981.785 53.323 982.585 51.804 985.034 52.0772C987.495 52.5165 990.016 52.4999 992.471 52.0281C997.269 51.1353 1002.16 50.8457 1007.03 51.1661C1011.84 51.0542 1016.66 51.151 1021.47 51.139C1026.34 51.1269 1031.08 52.3763 1036 52.3248C1039.07 52.643 1042.03 53.632 1044.68 55.2219C1045.56 55.4937 1046.31 56.0778 1046.79 56.8645C1047.27 57.6512 1047.45 58.5864 1047.29 59.4947C1048.11 60.4758 1048.71 61.6195 1049.06 62.8504C1049.41 64.0814 1049.49 65.3718 1049.3 66.6367C1049.23 68.7392 1048.6 70.7845 1047.48 72.5644C1046.36 74.3442 1044.78 75.795 1042.92 76.769C1041.35 77.4525 1039.67 77.8405 1037.96 77.9134C1034.76 78.0972 1031.57 78.4589 1028.41 78.9969C1024.33 79.4811 1022.68 81.9945 1024.08 86.1255C1024.26 86.5583 1024.36 87.0216 1024.37 87.4907C1024.29 89.0623 1022.61 90.5316 1023.47 92.0079C1024.07 93.2981 1024.39 94.7001 1024.41 96.1223C1024.61 97.7012 1024.48 99.3054 1024.02 100.829C1023.56 102.352 1022.78 103.76 1021.73 104.96C1020.96 106.289 1019.89 107.425 1018.61 108.281C1017.34 109.137 1015.88 109.691 1014.36 109.901C1010.51 112.858 1006.01 111.679 1001.74 111.887C1000.82 111.766 999.931 111.532 999.077 111.189C997.646 110.936 996.49 109.881 995.092 109.935C992.581 110.033 991.421 108.672 990.467 106.569C988.917 102.8 988.587 98.6406 989.524 94.6749C989.781 94.1141 990.515 93.5746 990.455 93.0976C990.001 89.4878 992.245 86.1644 991.312 82.1238ZM865.373 108.921C869.032 108.816 872.541 108.478 876.057 108.131C880.16 107.209 884.362 106.797 888.567 106.906C889.057 106.978 889.463 106.605 889.878 106.494C893.531 105.517 896.262 102.762 899.758 101.481C901.042 101.01 900.822 99.6517 900.894 98.4864C900.89 98.0895 900.798 97.6985 900.624 97.3415C900.451 96.9845 900.2 96.6704 899.891 96.422C900.233 96.199 900.506 95.8851 900.68 95.5155C900.853 95.146 900.92 94.7354 900.874 94.3298C900.775 93.5122 901.185 92.4402 900.794 91.8853C899.783 89.8433 899.465 87.5276 899.887 85.2886C899.833 80.9229 901.006 79.1445 905.112 78.103C907.516 77.493 909.725 76.3816 912.208 75.9096C914.492 75.4775 916.605 74.4056 918.302 72.8189C919.977 71.1469 922.492 69.1566 921.634 66.3998C921.153 64.5676 920.848 62.6937 920.722 60.8036C920.619 59.9454 920.126 58.6967 919.471 58.4179C916.795 57.2778 914.859 54.7643 911.37 55.0237C906.07 55.3818 900.753 55.3943 895.451 55.061C890.038 54.7553 884.842 56.8257 879.431 56.1323C874.896 56.3203 870.489 57.6894 866.646 60.1041C865.839 60.4154 866.196 61.1988 865.949 61.7103C864.805 64.0882 865.239 67.0119 863.41 69.1111C862.876 69.7238 863.356 69.8842 863.622 70.1836C863.935 70.5694 864.129 71.038 864.18 71.5322C864.231 72.0264 864.136 72.5248 863.909 72.9663C862.721 74.9437 863.806 77.5547 862.817 78.9462C861.335 81.03 864.256 83.2286 862.001 84.8044C864.081 86.8519 861.91 88.9188 862.062 90.9422C862.347 93.9258 862.795 96.8917 863.404 99.8264C863.948 102.742 864.652 105.627 865.373 108.921ZM940.201 106.823C943.832 107.857 947.496 105.695 951.416 105.842C953.613 105.925 954.172 102.725 956.5 102.57C956.694 100.459 957.473 97.7268 956.264 96.3922C955.59 95.5852 955.1 94.6411 954.827 93.6256C954.554 92.6101 954.506 91.5474 954.685 90.5112C954.676 90.1081 954.576 89.7122 954.391 89.3538C954.206 88.9953 953.942 88.6837 953.619 88.4428C953.113 88.0464 952.76 87.4877 952.618 86.861C952.303 84.4766 952.884 82.0604 954.247 80.0791C955.61 78.0978 957.659 76.6921 959.998 76.1336C961.41 75.9464 962.738 75.3602 963.828 74.4438C964.87 73.6199 966.531 74.0421 967.581 72.6592C969.226 70.4924 972.648 70.3178 973.767 67.4093C973.986 66.8379 974.644 67.0671 975.106 67.0894C976.47 67.1549 977.125 66.4496 976.275 65.3945C975.412 64.1038 974.895 62.6134 974.773 61.0657C974.667 60.2571 974.364 59.4869 973.889 58.8235C973.415 58.16 972.784 57.6238 972.053 57.2623C968.93 55.9482 965.694 54.9209 962.385 54.1932C960.666 53.7825 958.116 54.7516 957.125 53.8284C955.016 51.8643 953.977 54.4691 952.254 54.2776C945.147 54.0673 938.075 55.3694 931.509 58.0976C930.629 58.3773 930.452 59.2911 930.793 59.5609C932.285 60.7419 931.622 62.2928 931.713 63.6903C931.809 65.1774 931.735 66.6756 931.735 68.169V74.3132C931.191 75.097 930.733 75.9064 929.601 76.0569C925.485 76.6034 923.266 80.5127 919.541 81.8168C918.772 82.086 918.53 82.8663 919.071 83.8399C921.367 87.9421 922.634 92.5395 922.764 97.2385C922.784 97.8889 922.702 98.5237 923.318 99.0071C925.132 100.432 925.551 102.746 926.636 104.617C927.121 105.452 927.881 106.883 928.221 106.793C930.044 106.309 931.32 108.716 932.774 107.833C935.103 106.419 937.513 107.174 940.201 106.823V106.823ZM1039.32 71.1868C1039.32 68.9564 1039.19 67.144 1039.36 65.3614C1039.45 64.415 1039.35 63.4594 1039.07 62.5517C1038.79 61.644 1038.32 60.8028 1037.71 60.0782C1037.04 59.4077 1036.24 58.8937 1035.36 58.574C1034.47 58.2542 1033.53 58.1368 1032.59 58.2303C1026.03 58.5567 1019.59 57.2983 1013.09 57.1307C1010.1 57.0539 1007.12 57.1177 1004.13 57.1177C997.826 57.1177 991.522 57.1019 985.218 57.1276C983.391 57.135 983.316 57.3036 983.96 59.0357C984.821 61.4033 985.021 63.9603 984.539 66.4328C984.51 66.7636 984.509 67.0961 984.534 67.4271C984.701 68.5013 984.496 69.6005 983.953 70.5423C983.41 71.4842 982.561 72.2122 981.548 72.6057C980.881 72.8771 980.538 73.3535 981.217 74.3953C981.862 75.3857 982.084 76.1278 983.515 76.0831C987.492 75.9589 991.478 76.1022 995.457 76.0084C996.098 75.9187 996.75 76.0573 997.299 76.3999C997.847 76.7425 998.258 77.2673 998.459 77.8823C998.885 79.0365 999.788 79.9678 999.535 81.4528C999.218 83.3104 999.017 85.1959 998.71 87.039C998.375 89.055 997.857 91.0782 997.365 93.0265C996.947 94.6859 997.239 96.5318 995.964 98.0972C995.522 98.7787 995.278 99.5691 995.257 100.381C995.237 101.193 995.442 101.995 995.849 102.698C996.369 103.796 996.639 105.55 998.789 104.981C999.898 104.672 1001.08 104.744 1002.14 105.186C1003.91 105.883 1005.82 106.123 1007.7 105.884C1009.58 105.645 1011.38 104.934 1012.91 103.817C1013.83 103.318 1014.62 102.607 1015.21 101.744C1015.81 100.881 1016.19 99.8892 1016.33 98.8507C1016.9 96.2485 1016.87 93.5504 1016.25 90.9602C1015.71 87.7939 1015.4 84.5927 1015.33 81.3819C1014.77 78.8296 1018.04 78.2459 1017.55 75.6932C1017.29 74.3543 1019.38 75.1947 1020.38 74.7208C1022.83 73.42 1025.49 72.5595 1028.24 72.1784C1031.85 71.228 1035.6 70.8928 1039.32 71.1868V71.1868Z" fill="#212222"/>
<path d="M132.759 109.9C130.604 109.9 128.448 109.94 126.294 109.89C124.107 109.775 121.996 109.046 120.204 107.787C119.204 107.057 118.127 106.44 116.991 105.947C112.691 103.874 109.271 100.335 107.346 95.9671C107.035 95.3937 106.842 94.7642 106.777 94.1153C106.712 93.4665 106.777 92.8112 106.968 92.1877C107.756 88.5769 108.893 85.0427 109.869 81.4719C109.991 81.0248 109.807 80.5563 110.248 80.1273C114.68 74.4092 120.685 70.1084 127.526 67.7519C129.876 67.0802 132.338 66.8858 134.765 67.1801C137.192 67.4744 139.535 68.2514 141.657 69.4655C146.828 70.2266 147.881 75.5665 151.356 78.2304C152.347 78.9902 151.075 80.9423 152.716 81.6196C151.444 82.9171 154.592 84.0204 152.879 85.3373C153.291 85.7664 153.523 86.3371 153.527 86.932C153.531 87.5269 153.306 88.1005 152.9 88.5349C151.826 90.1169 153.292 92.4644 151.883 94.5827C151.065 95.8131 151.549 97.7951 150.095 99.3431C149.176 100.559 148.473 101.923 148.016 103.376C146.776 106.633 143.568 107.39 141.581 109.583C141.035 110.185 140.34 109.872 139.722 109.883C137.402 109.925 135.08 109.9 132.759 109.9ZM145.74 87.8579C145.489 84.8627 144.741 81.9303 143.525 79.1815C143.207 78.214 142.648 77.3433 141.9 76.6513C141.153 75.9592 140.242 75.4684 139.253 75.2251C137.268 74.8105 136.1 74.367 135.475 72.3411C135.131 71.2244 133.859 70.9668 132.591 71.035C129.01 71.2792 125.583 72.5882 122.752 74.7937C119.817 77.2189 117.102 79.8993 114.64 82.8036C113.616 83.7831 112.99 85.1059 112.88 86.5187C112.76 88.832 112.776 91.1503 112.928 93.4617C113.077 94.9549 113.416 97.2679 114.344 97.675C116.452 98.599 117.422 100.539 119.135 101.692C121.047 102.979 123.713 102.665 125.361 104.788C125.835 105.397 127.614 104.821 128.568 105.269C130.165 106.019 131.33 104.654 132.865 104.842C138.181 105.493 140.873 101.862 143.299 97.9394C143.511 97.5974 143.784 97.389 143.515 97.2343C141.873 96.2872 144.102 95.7866 143.758 94.972C143.218 93.6903 144.302 92.7896 144.826 91.9636C145.545 90.7217 145.865 89.2879 145.74 87.8579V87.8579Z" fill="#212222"/>
<path d="M879.54 83.0061C878.341 83.2086 877.112 83.1591 875.933 82.8608C874.754 82.5625 873.65 82.0218 872.691 81.2734C870.882 79.6512 870.308 78.4936 871.423 76.2128C872.093 74.8427 871.617 72.8618 873.44 72.0721C873.843 68.8899 876.586 67.3807 878.292 65.1142C879.7 63.2437 881.887 63.2438 883.597 62.173C884.289 61.7397 886.048 61.7626 886.406 62.25C888.44 65.0195 892.176 64.6377 894.484 67.0043C896.403 68.9724 896.901 69.5759 895.902 72.0526C895.578 72.8558 894.515 73.6962 895.821 74.7545C896.277 75.1245 895.573 75.9099 895.065 76.3481C893.079 78.4718 890.673 80.16 888.001 81.3061C885.329 82.4521 882.448 83.031 879.54 83.0061V83.0061ZM888.944 72.7338C887.095 70.5969 884.198 71.8043 882.349 70.099C882.114 69.8831 881.149 69.8822 881.093 70.4487C880.985 71.5402 880.239 72.1038 879.662 72.8636C879.15 73.4765 878.868 74.2483 878.863 75.0467C878.859 75.845 879.132 76.62 879.637 77.2388C880.306 77.8073 881.164 78.1044 882.041 78.0714C882.919 78.0384 883.752 77.6778 884.376 77.0607C885.946 75.6225 887.469 74.1349 888.944 72.7338Z" fill="#212222"/>
<path d="M949.054 61.1859C951.918 60.7391 954.468 60.9925 955.592 64.0104C955.96 64.9994 957.389 65.9186 956.582 66.9953C955.512 68.421 956.12 70.3872 954.614 71.6613C953.181 73.1436 951.223 74.0024 949.162 74.0522C947.646 76.2976 944.667 73.8661 943.101 75.9489C941.425 74.8222 939.48 74.1596 937.465 74.0284C936.955 73.9885 936.806 73.5786 936.682 73.0274C936.014 70.0572 937.776 67.4378 937.901 64.558C937.934 63.7923 939.304 62.0263 940.674 62.1705C943.633 62.4815 946.208 60.3164 949.054 61.1859ZM944.065 71.0585C945.166 71.2605 946.301 71.1823 947.364 70.8313C948.427 70.4803 949.385 69.8676 950.149 69.0497C950.449 68.7022 950.617 68.2608 950.625 67.8022C950.609 67.3099 950.171 67.167 949.635 67.0417C946.688 66.3527 944.109 68.3086 941.221 68.1384C940.577 68.1005 940.702 69.1708 940.702 69.7958C940.703 70.4653 940.725 71.1137 941.688 71.0646C942.339 71.0317 942.993 71.0585 944.065 71.0585V71.0585Z" fill="#222222"/>
<path d="M888.944 72.7332C887.469 74.1343 885.946 75.6219 884.377 77.0602C883.752 77.6773 882.919 78.0379 882.041 78.0709C881.164 78.1039 880.306 77.8068 879.637 77.2383C879.132 76.6195 878.859 75.8445 878.863 75.0462C878.868 74.2478 879.15 73.476 879.662 72.8631C880.239 72.1032 880.985 71.5397 881.093 70.4482C881.149 69.8817 882.115 69.8826 882.349 70.0985C884.199 71.8036 887.095 70.5963 888.944 72.7332Z" fill="#FAFAFA"/>
<path d="M944.063 71.0588C942.992 71.0588 942.337 71.032 941.686 71.0652C940.723 71.1143 940.701 70.4659 940.7 69.7964C940.7 69.1714 940.575 68.1015 941.219 68.139C944.107 68.3085 946.686 66.353 949.633 67.0423C950.169 67.1676 950.607 67.3105 950.623 67.8028C950.615 68.2614 950.447 68.7028 950.148 69.0503C949.383 69.8682 948.425 70.4807 947.362 70.8317C946.299 71.1827 945.164 71.2608 944.063 71.0588V71.0588Z" fill="#FCFCFD"/>
</svg>
