<svg width="1208" height="900" viewBox="0 0 1208 900" fill="none" xmlns="http://www.w3.org/2000/svg">
<path d="M408.556 509.783H412.568L414.02 508.136C414.355 507.973 414.714 507.863 415.083 507.81C417.728 507.751 420.343 507.243 422.816 506.305C426.419 504.918 430.216 504.099 434.071 503.877C434.761 503.917 435.239 503.442 435.784 503.283C438.812 502.214 441.945 501.47 445.131 501.062C447.298 500.786 449.443 500.353 451.548 499.767C455.119 498.689 458.82 498.102 462.549 498.022C464.514 498.137 466.039 496.792 468.04 496.907C469.843 497.011 471.947 497.793 473.529 496.027C473.602 495.946 473.849 495.994 474.008 496.02C478.37 496.73 482.519 494.429 486.849 495.064C489.628 495.472 491.981 493.611 494.801 493.977C497.556 494.416 500.363 494.415 503.118 493.973C512.77 492.981 522.481 492.681 532.176 493.077C533.736 492.995 535.387 493.382 536.638 492.081C537.756 492.203 538.436 493.18 539.708 493.133C543.956 492.974 548.224 493.263 552.464 493.024C557.629 492.732 562.597 494.808 567.766 494.054C570.313 494.926 573.01 495.279 575.695 495.091C579.691 495.496 583.64 496.274 587.491 497.416C589.145 497.964 590.637 497.607 592.091 498.029C594.21 495.479 594.947 492.109 597.387 489.882C598.583 488.472 599.502 486.85 600.098 485.101C601.853 481.655 605.514 479.768 607.087 476.224C610.7 474.35 612.606 470.597 615.882 468.293C617.829 466.923 618.218 463.789 621.078 463.218C621.702 459.718 625.764 459.655 627.265 457.033C629.602 457.207 628.978 454.091 631.211 453.641C632.702 453.341 633.863 451.404 635.417 449.974L638.447 449.807C639.097 449.302 638.648 448.291 639.45 447.765C642.545 445.731 645.627 443.672 648.628 441.504C649.373 440.966 650.894 441.292 650.792 439.511C650.76 438.946 652.595 438.252 653.042 438.266C656.876 438.388 659.107 435.381 662.126 433.981C667.018 431.203 672.313 429.205 677.821 428.058C679.562 424.847 683.474 424.762 686.705 423.416C687.389 423.131 688.158 423.295 688.959 422.927C693.256 420.66 698.032 419.451 702.889 419.398C705.671 417.904 708.683 416.886 711.8 416.384C714.803 415.886 717.871 415.569 720.883 414.774C723.487 414.236 726.117 413.836 728.763 413.576C730.759 413.28 732.737 413.885 734.811 412.725C736.441 411.815 738.938 413.288 740.719 411.619C740.806 411.537 741.04 411.587 741.2 411.612C745.885 412.343 750.358 410.151 755.027 410.623C759.852 411.111 764.481 409.206 769.35 409.569C774.068 409.921 778.833 409.649 783.578 409.643C784.695 409.642 785.875 409.412 786.53 410.513C787.648 409.913 788.885 409.569 790.153 409.504C791.42 409.438 792.686 409.654 793.86 410.136C794.418 410.379 795.007 410.547 795.609 410.633C798.288 410.627 800.96 410.902 803.581 411.455C806.197 411.682 808.754 412.358 811.141 413.453C812.22 413.862 813.406 413.887 814.502 413.526C816.848 412.974 818.826 414.3 820.937 414.729C822.07 414.96 823.324 416.155 824.599 416.435C826.221 416.633 827.86 416.661 829.489 416.516C830.954 417.656 832.717 418.349 834.567 418.512C836.779 418.411 838.203 421 840.612 420.469C842.56 422.417 845.454 422.271 847.627 423.646C848.249 424.122 849.011 424.378 849.794 424.374C850.858 424.412 851.899 424.689 852.841 425.184C853.783 425.679 854.602 426.379 855.236 427.234H859.159L864.146 432.219C865.241 433.022 864.425 434.272 865.154 435.322C868.251 439.485 870.81 444.021 872.774 448.823C874.597 452.867 876.836 456.71 879.456 460.29C880.2 461.261 880.815 462.324 881.286 463.452C882.793 468.453 882.739 468.469 884.991 470.857C885.638 475.245 890.001 476.671 891.338 480.403C892.479 483.588 894.965 486.351 896.116 489.699L899.942 493.524C899.304 495.376 901.655 496.612 900.974 498.482C903.798 502.482 904.331 507.752 907.952 511.271C909.129 512.416 908.672 513.638 908.86 515.209C911.281 517.267 912.983 520.043 913.718 523.135C913.802 523.434 913.662 523.878 913.834 524.058C915.196 525.229 916.44 526.531 917.548 527.945C918.199 529.185 918.966 530.36 919.84 531.455C921.472 533.612 922.737 536.023 923.585 538.591C924.288 540.272 924.166 542.258 925.717 543.908C924.194 545.236 925.073 547.808 922.913 549.081C919.376 548.322 915.985 547 912.867 545.166C909.254 545.076 905.412 543.652 901.317 543.433C899.843 543.879 897.938 544.882 896.534 543.911C894.784 542.7 893.079 543.54 891.435 543.107C889.815 542.68 888.333 541.5 886.054 542.573C887.805 543.471 889.527 544.208 890.116 545.937C890.353 546.634 890.532 546.887 891.266 547.103C892.609 547.496 892.919 548.598 893.216 549.991C893.638 551.769 894.45 553.431 895.594 554.856C898.868 559.291 901.677 564.05 903.975 569.06C904.405 569.92 905.078 570.609 904.879 571.629C904.663 572.737 905.324 573.357 905.923 574.16C907.672 576.516 908.681 579.34 908.822 582.272C908.803 583.521 909.081 584.756 909.633 585.877C910.518 587.523 909.229 589.623 908.327 591.045C906.754 594.1 904.157 596.505 900.99 597.84C897.573 599.106 894.078 600.149 890.527 600.964C888.099 601.618 885.611 602.019 883.1 602.161C880.096 602.26 877.098 601.807 874.257 600.823C871.653 600.09 868.932 599.863 866.243 600.154C863.608 600.174 860.814 599.141 858.243 600.934C857.814 601.171 857.333 601.298 856.842 601.302C856.352 601.307 855.868 601.19 855.434 600.962C853.511 599.02 850.902 600.612 848.692 599.269C846.792 598.45 844.735 598.063 842.667 598.137C840.371 597.906 838.125 597.313 836.013 596.38C833.925 595.604 831.803 596.452 829.565 595.329C823.484 593.821 817.175 593.466 810.963 594.282C808.013 594.845 805.019 595.157 802.016 595.215C795.958 595.897 789.866 596.244 783.769 596.252C780.135 596.7 776.588 597.691 773.247 599.19C771.871 599.714 770.414 599.996 768.941 600.024C765.224 601.968 761.225 603.318 757.091 604.025C753.621 605.889 750.018 607.494 746.311 608.824C742.871 610.705 739.007 611.832 735.641 613.818C732.201 615.848 728.433 616.994 724.928 618.829C723.261 620.917 721.042 622.497 718.524 623.391C715.39 624.178 714.494 627.035 712.158 628.262C709.831 629.508 707.689 631.073 705.794 632.91C703.791 634.562 701.895 636.339 700.116 638.23C698.331 640.221 696.221 641.895 693.876 643.18C691.461 644.623 690.088 647.019 687.731 648.629C689.65 649.449 688.155 651.654 689.793 652.445C688.845 653.474 688.308 654.517 689.867 655.472C689.01 656.321 688.216 657.166 689.794 658.318C689.012 659.316 688.454 660.471 688.159 661.705C687.864 662.939 687.84 664.221 688.087 665.466L684.294 668.589C683.567 670.526 685.276 670.837 684.86 672.34C681.753 673.391 678.975 675.239 676.806 677.699C674.612 679.828 672.13 681.464 669.882 683.436C668.323 684.804 666.243 684.887 664.594 686.277C662.994 687.671 661.076 688.651 659.008 689.132C656.912 689.502 655.431 690.92 653.497 691.31C651.554 691.691 649.678 692.358 647.93 693.288C647.772 693.334 647.604 693.336 647.445 693.295C641.308 692.599 635.251 695.047 629.223 694.129C625.073 693.497 620.936 693.728 616.861 693.187C613.089 692.64 609.404 691.603 605.9 690.104C604.528 689.532 603.008 689.049 601.646 688.536C598.946 687.736 596.505 686.237 594.57 684.19C593.154 682.871 591.434 681.725 590.046 680.342C588.136 681.517 585.963 682.198 583.723 682.323C580.722 683.048 577.483 682.838 574.327 683.264C571.517 683.553 568.726 684.002 565.967 684.611C561.642 685.724 556.901 684.869 552.916 687.408C548.146 687.125 543.784 689.504 539.004 689.447C536.162 689.942 533.386 690.756 530.726 691.872C527.584 692.559 524.991 695.28 521.542 694.192C519.988 695.795 517.904 696.777 515.679 696.955C509.753 698.377 503.918 700.155 498.205 702.277C495.5 703.187 492.337 702.95 490.051 705.075C487.884 704.239 487.188 706.777 485.47 707.068C483.972 707.351 482.496 707.744 481.055 708.244C479.475 708.758 477.922 709.364 476.381 709.99C473.392 711.783 470.229 713.269 466.941 714.425C463.585 715.054 461.082 717.768 457.592 717.977C457.206 718 456.864 718.753 456.477 718.778C454.127 718.932 453.064 721.462 450.828 721.757C448.882 722.278 447.104 723.292 445.666 724.702C443.411 725.942 441.091 727.057 438.714 728.044C434.604 730.39 430.435 732.631 426.432 735.191C423.726 736.922 420.445 737.757 418.53 740.341C417.552 740.562 416.8 740.235 416.011 740.809C411.019 744.442 406.026 748.077 400.73 751.273C399.934 751.852 399.228 752.546 398.637 753.333C395.529 756.636 391.751 759.235 387.556 760.958C386.933 761.241 386.557 761.69 385.889 762H381.011C380.553 760.734 380 759.504 379.358 758.321C376.406 753.666 374.468 748.44 373.674 742.985C373.097 739.691 372.098 736.485 370.702 733.445C370.079 731.83 369.777 730.108 369.812 728.377C368.97 726.793 367.613 725.373 367.86 723.356C367.563 722.569 366.799 722.837 366.02 722.516C366.031 719.011 363.357 716.229 362.954 712.691C360.917 710.999 362.565 709.307 363.068 707.694C362.002 706.668 360.903 706.59 360.039 707.548C358.654 709.022 356.862 710.051 354.891 710.505C352.972 710.974 352.398 713.55 349.955 713.049C349.245 712.903 348.242 714.249 347.356 714.886C343.502 717.659 339.008 719.278 334.716 721.754H331.057C330.331 721.059 329.751 720.228 329.351 719.307C328.95 718.387 328.737 717.396 328.723 716.392C328.207 714.162 327.498 711.982 326.602 709.876C325.545 706.558 324.276 703.312 322.803 700.157C321.334 697.204 321.39 693.654 319.841 690.59C319.434 689.333 319.425 687.981 319.817 686.719C320.086 685.476 318.666 684.581 319.361 683.436C319.574 683.086 319.692 683.016 319.508 682.713C318.631 681.27 317.259 679.831 317.865 678.053C318.37 676.571 316.146 675.3 317.794 673.935C315.412 670.238 318.197 665.722 315.874 661.965C315.215 660.901 316.57 659.999 316.815 658.972C314.96 656.332 316.311 653.318 315.765 650.55C315.56 649.51 317.218 649.122 316.343 648.205C315.383 647.198 315.972 646.045 315.853 644.97C315.747 644 316.235 642.624 315.745 642.11C314.789 641.109 315.854 640.086 315.232 639.156C314.369 637.865 314.96 636.329 314.867 634.905C314.791 633.599 314.788 632.289 314.858 630.982C315.176 624.215 313.051 617.559 313.911 610.785C314.111 609.21 312.167 608.25 312.932 606.795C313.538 605.643 314.367 604.448 313.815 603.276C312.682 599.929 312.399 596.352 312.992 592.868C313.088 590.392 311.532 588.387 311.839 585.902C312.026 583.456 312.043 580.999 311.891 578.55C311.798 578.079 311.841 577.59 312.016 577.142C312.19 576.694 312.489 576.305 312.877 576.02L311.738 574.798C312.501 573.53 312.953 572.1 313.059 570.624H315.31C315.477 570.856 315.811 571.104 315.808 571.347C315.997 575.422 316.55 579.471 317.46 583.447C317.636 584.511 316.627 584.812 316.696 585.837C316.77 586.945 317.957 587.344 317.79 588.366C317.08 592.728 319.438 596.884 318.727 601.2C318.288 603.861 319.741 606.116 319.794 608.651C319.844 610.988 319.093 613.472 320.738 615.606C321.66 616.802 319.082 617.755 320.614 619.33C320.984 619.977 321.095 620.739 320.928 621.464C320.76 622.189 320.324 622.824 319.708 623.242L321.659 628.583C320.981 629.619 320.562 630.804 320.44 632.036C320.317 633.269 320.494 634.512 320.955 635.662C321.479 637.467 321.726 639.341 321.686 641.22C321.821 643.994 321.768 646.78 321.696 649.559C321.666 649.976 321.759 650.393 321.963 650.758C322.168 651.123 322.475 651.42 322.846 651.612C319.979 652.876 323.508 655.317 321.649 656.824L323.726 660.876C323.016 661.753 322.565 662.811 322.424 663.93C322.282 665.05 322.456 666.186 322.925 667.212C323.629 668.986 323.871 670.91 323.626 672.803C323.734 677.94 324.762 683.016 326.659 687.79L325.823 688.715C327.65 697.091 330.975 705.069 335.637 712.263L334.578 713.322L335.954 715.089C339.877 712.443 344.049 710.185 348.41 708.347C349.63 706.759 351.338 705.616 353.271 705.094C355.508 704.723 356.506 702.074 358.918 702.145C359.155 702.137 359.387 702.075 359.598 701.966C359.809 701.857 359.993 701.702 360.136 701.514C363.89 697.977 369.269 697.065 373.026 693.533C377.677 692.928 381.027 689.14 385.618 688.389C385.773 688.364 385.98 688.407 386.078 688.322C390.786 685.248 395.86 682.774 401.181 680.957C403.889 679.594 406.701 678.449 409.592 677.535C412.906 676.452 415.737 674.247 419.03 673.079C422.264 671.366 425.755 670.19 429.367 669.597C430.044 668.071 431.853 669.351 432.732 668.22C433.507 667.467 434.47 666.935 435.52 666.679C439.776 664.897 444.383 664.477 448.676 662.896C452.793 661.38 457.074 660.344 461.109 658.546C462.886 657.64 464.842 657.14 466.835 657.082C470.728 657.248 473.917 654.857 477.658 654.568C478.258 654.522 479.066 654.075 479.853 654.033C484.454 653.587 488.993 652.638 493.388 651.203C495.271 650.679 497.35 650.323 499.295 649.932C502.79 649.23 506.284 649.534 509.707 649.028C513.033 648.536 516.339 647.677 519.623 646.9C520.638 646.573 521.679 646.333 522.735 646.183C524.758 646.05 526.839 646.613 528.74 645.245C529.694 644.558 530.889 646.32 531.545 645.803C532.352 645.277 533.325 645.069 534.277 645.219C535.911 645.162 538.012 645.837 539.079 645.058C540.832 643.778 541.784 645.862 543.316 645.305C544.816 644.759 546.709 645.594 548.197 644.4C549.844 646.78 551.149 643.828 552.878 644.06C556.791 644.325 560.716 644.389 564.635 644.251C567.477 643.759 570.401 644.091 573.06 645.21C574.211 645.949 575.089 643.445 576.269 644.982C579.594 644.924 582.707 646.799 586.071 646.151C587.481 646.081 588.879 646.45 590.071 647.207C593.303 648.925 596.86 649.944 600.511 650.198C604.184 651.443 606.669 653.86 610.295 654.185C611.911 654.33 613.435 656.023 614.906 657.14C615.673 657.816 616.575 658.324 617.552 658.629C618.529 658.934 619.559 659.03 620.575 658.911C622.432 660.475 623.822 662.818 626.617 662.855C627.442 661.893 626.813 661.4 626.389 660.674C625.114 657.877 624.381 654.864 624.228 651.794C624.117 650.413 623.715 649.07 623.048 647.855C621 643.724 618.72 639.711 616.22 635.836C616.58 634.261 616.498 632.616 615.984 631.084C615.47 629.552 614.543 628.192 613.305 627.153C613.305 625.81 613.3 624.365 613.307 622.92C613.311 621.883 611.637 620.845 613.508 619.683C610.878 616.806 609.388 613.067 609.318 609.169C609.138 607.813 608.709 606.503 608.053 605.303C607.628 604.474 607.415 603.553 607.432 602.622C607.118 598.451 606.313 594.332 605.032 590.351C604.344 586.204 603.317 582.109 602.373 578.019C602.174 575.856 601.838 573.707 601.367 571.587C600.744 569.529 600.459 567.384 600.523 565.236C597.982 562.97 598.633 559.685 598.575 556.278L596.618 554.755V548.519L594.853 546.791C594.412 543.44 593.49 540.142 592.978 536.838C592.274 533.24 591.241 529.714 589.892 526.305C589.469 525.087 588.344 523.961 588.698 522.334C588.869 520.963 588.89 519.578 588.761 518.203C588.324 517.427 587.779 517.675 587.313 517.589C585.85 513.645 585.32 509.416 585.764 505.233L575.136 503.234C574.424 502.738 574.085 503.373 573.621 503.79C572.255 504.272 571.55 502.541 570.122 502.827C569.522 503.071 568.859 503.117 568.231 502.958C567.603 502.8 567.042 502.445 566.63 501.945C565.561 503.928 564.542 501.793 563.503 501.775C554.965 501.626 546.466 500.614 537.892 500.826C534.61 500.362 531.306 500.065 527.994 499.934C525.307 499.932 522.626 500.188 519.988 500.697C518.799 501.232 517.49 501.446 516.192 501.318C514.894 501.189 513.653 500.722 512.592 499.963C512.409 499.8 511.934 499.863 511.633 499.953C504.796 501.12 497.84 501.419 490.928 500.843C489.132 500.918 487.829 502.288 485.928 501.976C485.079 501.745 484.191 501.703 483.325 501.853C482.458 502.003 481.636 502.342 480.914 502.844C480.234 503.384 479.203 501.051 478.321 502.877C474.672 502.912 471.032 503.264 467.444 503.931C464.189 504.056 460.967 504.624 457.866 505.62C456.933 505.856 455.964 505.919 455.007 505.807C452.065 505.998 449.151 506.5 446.315 507.303C441.977 507.77 438.071 510.331 433.487 509.727C431.515 510.898 429.311 511.624 427.03 511.857C423.945 511.824 420.903 512.582 418.193 514.057C416.817 515.037 415.457 514.443 414.116 514.93C411.593 515.964 409.008 516.843 406.376 517.56C403.663 518.023 401.074 519.042 398.773 520.552C395.581 519.932 393.285 522.338 390.483 523.083C387.687 523.778 385.029 524.944 382.623 526.529C379.324 528.813 374.959 529.102 372.241 532.33C367.976 531.948 366.365 536.833 362.495 537.238C359.861 539.977 356.255 541.396 353.502 544.072C350.935 546.311 348.145 548.281 345.176 549.951C344.266 550.594 343.424 551.329 342.666 552.145C339.347 555.835 335.651 559.168 331.64 562.09C330.173 563.003 330.885 564.428 330.224 565.641C328.11 566.832 326.315 568.517 324.991 570.55C324.376 571.689 323.541 572.693 322.534 573.505C321.527 574.316 320.368 574.919 319.125 575.278C317.366 573.09 317.353 573.065 318.725 571.154C321.261 567.622 323.77 564.068 326.392 560.601C326.991 559.864 327.717 559.241 328.535 558.76C330.896 557.385 332.961 555.557 334.612 553.38C336.746 551.135 339.013 549.019 341.399 547.044C343.54 544.752 345.848 542.622 348.304 540.671C350.075 539.632 351.724 538.399 353.221 536.995C354.526 535.395 357.076 535.225 358.497 533.446C358.767 533.109 359.725 533.321 360.566 533.267C365.428 528.826 371.01 525.245 377.074 522.678C381.353 520.064 386.406 519.17 390.827 516.785C395.223 514.737 399.79 513.078 404.476 511.826C406.001 511.323 407.038 510.13 408.556 509.783ZM600.413 531.05C603.894 539.429 606.046 548.3 606.79 557.343L608.487 558.258C608.218 561.806 608.807 565.366 610.202 568.639C610.944 569.993 611.309 571.521 611.259 573.064C610.885 574.74 612.347 575.624 612.381 577.091C612.617 578.609 612.991 580.102 613.498 581.552C613.502 582.844 613.739 584.125 614.199 585.332C615.323 587.795 615.672 590.54 615.201 593.206L618.289 595.747C617.076 598.585 617.052 598.596 618.221 600.995C619.662 603.05 620.358 605.536 620.194 608.04C620.066 608.509 620.103 609.008 620.297 609.453C621.832 612.031 622.483 615.039 622.152 618.021C622.057 620.109 623.457 621.208 625.078 622.126V626.845C627.097 630.767 628.537 634.96 629.353 639.295L631.838 641.289C631.926 645.31 635.314 646.313 636.797 648.69L635.762 649.832C637.282 650.182 637.462 652.354 639.356 652.041C640.354 651.348 639.361 650.142 640.052 649.375C641.297 649.272 641.694 648.389 642.111 647.368C642.51 646.39 643.645 645.519 643.636 644.609C643.618 643.971 643.748 643.337 644.017 642.757C644.286 642.178 644.685 641.668 645.184 641.269C645.971 640.533 645.84 639.129 646.94 638.577C648.288 637.901 647.188 636.415 647.967 635.57C649.053 635.375 650.036 634.807 650.746 633.962C651.456 633.118 651.848 632.052 651.853 630.949L656.912 627.646C657.965 626.512 656.868 625.032 658.207 624.345C659.286 623.792 659.2 622.439 659.951 621.646C661.35 621.859 661.976 620.219 663.27 620.258C663.418 619.109 663.884 618.024 664.615 617.126C665.346 616.227 666.313 615.551 667.408 615.172C669.09 614.589 669.927 613.02 671.162 611.932C671.473 611.658 671.642 610.691 672.16 610.458C674.883 608.761 677.317 606.638 679.366 604.169C680.457 603.184 681.297 601.796 682.541 601.135C683.956 600.383 685.345 600.104 686.348 598.43C687.068 597.228 689.13 596.685 690.702 596.198C691.577 595.927 692.432 595.416 692.539 594.855C693.015 592.346 695.241 592.166 696.905 591.215C699.033 589.739 701.3 588.473 703.673 587.436C705.042 586.982 704.493 585.764 705.544 585.12C706.824 584.334 709.024 585.514 709.682 582.956C710.035 581.583 712.479 581.34 713.942 580.585C716.424 579.734 718.726 578.427 720.73 576.733C721.992 575.628 723.532 574.889 725.183 574.593C727.49 573.82 729.703 572.79 731.781 571.524C734.479 570.177 736.519 567.351 739.993 567.664C742.302 565.851 745.706 566.184 747.506 563.605H750.491L750.877 562.136C752.761 561.561 754.661 561.02 756.534 560.4C759.186 559.691 761.691 558.52 763.935 556.939C766.955 557.631 769.062 555.028 771.888 554.692C773.149 554.542 774.343 552.865 776.023 552.955C776.888 552.988 777.749 552.835 778.55 552.505C779.35 552.176 780.07 551.679 780.661 551.047C782.044 550.727 783.505 551.341 784.916 550.708C786.793 549.623 788.918 549.041 791.086 549.016C792.521 546.699 795.268 547.263 797.324 546.284C799.686 545.218 802.202 544.536 804.779 544.261C808.976 543.77 812.821 542.103 816.88 541.443C820.861 540.796 824.497 538.313 828.744 539.201C830.917 537.872 833.502 538.786 835.65 538.073C837.931 537.186 840.314 536.587 842.743 536.29C845.413 536.165 848.073 535.876 850.708 535.425C854.355 535.413 857.991 535.034 861.562 534.293C868.025 535.016 874.356 533.162 880.79 533.312C881.907 533.338 883.072 533.529 883.801 532.348C884.498 533.048 885.403 533.503 886.381 533.646C887.359 533.789 888.356 533.611 889.225 533.139C891.798 532.449 894.467 532.186 897.125 532.36C899.53 533.557 901.286 535.029 903.888 533.941C902.666 532.7 902.865 530.304 900.376 530.271C899.491 528.655 899.209 526.59 897.107 525.88C897.519 525.413 898.165 525.081 897.942 523.934C895.605 522.647 896.168 519.417 894.401 517.455C892.803 515.364 891.954 512.795 891.991 510.163C890.56 508.422 888.64 507.205 887.774 504.979C886.862 502.916 885.844 500.902 884.724 498.944C883.425 499.221 883.076 498.041 882.177 497.408C882.453 497.317 882.705 497.163 882.912 496.959C883.119 496.754 883.276 496.505 883.371 496.229C883.466 495.954 883.495 495.661 883.458 495.372C883.42 495.083 883.316 494.807 883.154 494.565C882.537 493.301 881.777 492.111 880.888 491.021C879.369 489.688 878.212 487.993 877.525 486.093C877.201 483.653 876.319 481.322 874.947 479.279C873.348 477.421 873.17 474.848 871.677 472.745C869.72 470.361 868.061 467.748 866.736 464.963L867.656 464.044C864.937 462.358 864.261 459.013 861.689 457.313C862.062 454.436 858.937 453.376 858.772 450.989C858.82 449.721 858.43 448.477 857.669 447.462C856.908 446.448 855.822 445.726 854.592 445.417C854.872 445.019 854.984 444.526 854.903 444.045C854.821 443.565 854.554 443.136 854.158 442.852C852.322 441.536 850.945 442.702 850.032 441.416C850.862 440.546 852.087 441.614 852.817 440.594C853.155 438.996 851.294 438.662 850.936 437.544C850.212 435.282 848.643 434.773 846.521 433.993C842.644 433.128 838.968 431.532 835.689 429.29H830.845C830.107 428.615 829.464 427.506 828.67 427.384C823.041 426.518 818.131 422.692 812.146 423.39C811.444 423.471 810.893 422.816 810.456 422.796C807.751 422.672 805.867 420.22 803.055 420.416C797.922 420.775 792.926 418.718 787.755 419.451C787.115 419.542 786.574 419.133 786.005 418.966C783.443 418.067 780.643 418.117 778.115 419.106C777.57 419.431 776.947 419.599 776.313 419.592C775.679 419.584 775.06 419.401 774.523 419.063C774.129 418.793 773.684 418.604 773.216 418.506C772.748 418.409 772.265 418.406 771.795 418.497C768.786 418.359 765.772 418.641 762.841 419.335C760.419 419.75 757.946 419.781 755.514 419.427C753.258 419.298 751.015 420.55 749.081 420.234C746.755 419.854 744.707 420.907 742.488 420.488C740.929 420.333 739.358 420.6 737.938 421.261C737.018 421.805 736.013 422.187 734.966 422.393C730.821 422.308 726.678 422.593 722.584 423.244C720.571 423.414 718.584 423.809 716.659 424.422C714.041 425.307 711.331 425.89 708.581 426.159C706.684 426.905 704.67 427.308 702.632 427.348C700.498 427.022 699.072 428.954 697.146 429.485C696.477 429.669 695.852 430.516 695.031 430.23C693.129 429.565 691.66 430.888 690.053 431.323C686.993 432.178 684.015 433.301 681.152 434.679C680.056 435.197 678.97 435.769 677.902 436.295C675.368 437.656 672.718 438.791 669.984 439.685C668.342 440.157 668.379 442.446 666.099 442.198C664.704 442.046 663.031 443.369 661.669 444.301C660.414 445.161 658.163 444.661 657.926 446.94C653.838 448.708 650.028 451.059 646.615 453.921C643.584 455.41 640.683 457.151 637.944 459.125C635.257 461.759 632.616 464.44 629.955 467.1L628.582 468.472C627.819 468.757 626.942 468.16 626.585 468.502C624.815 472.425 620.898 473.834 619.026 477.045C615.645 477.958 614.724 481.722 611.857 483.231C608.824 488.114 605.077 492.516 600.741 496.289C599.656 497.517 598.873 498.982 598.455 500.567C598.991 501.26 599.352 502.073 599.508 502.935C599.664 503.798 599.61 504.685 599.351 505.522C598.04 507.133 596.016 507.28 594.526 508.568L597.376 518.301L596.426 519.371L598.608 520.953C598.644 524.169 599.616 527.305 601.405 529.977L600.413 531.05Z" fill="#212222"/>
<path d="M703.864 398.841C703.016 398.819 702.172 398.972 701.386 399.292C700.6 399.612 699.889 400.092 699.298 400.701C697.062 402.638 694.682 404.402 692.179 405.978C690.59 407.281 689.322 408.932 688.473 410.803C686.65 413.159 684.677 415.395 682.565 417.496C674.905 418.383 667.158 416.868 660.397 413.16C660.271 411 660.578 408.837 661.302 406.798C662.28 404.935 660.645 402.472 662.225 400.29C662.613 399.659 662.745 398.904 662.594 398.179C662.444 397.454 662.023 396.814 661.417 396.389L663.153 394.655C664.056 389.661 664.957 384.667 665.985 378.971C666.06 379.186 665.178 379.021 665.222 378.801L668.357 375.683C667.864 372.498 668.398 369.238 669.883 366.377C670.801 364.869 669.849 363.266 670.469 361.71C670.887 360.66 672.857 360.003 671.49 358.296C671.039 357.731 672.185 357.466 672.393 356.941C673.223 355.5 673.793 353.923 674.075 352.283C674.283 348.739 675.427 345.312 677.39 342.353C677.787 341.717 677.976 340.973 677.93 340.224C677.884 339.476 677.607 338.76 677.135 338.177C676.996 337.563 677.664 337.251 677.675 336.904C678.496 332.663 680.461 328.728 683.359 325.524C686.396 320.572 689.275 315.523 692.359 310.609C694.507 306.395 697.32 302.554 700.688 299.233C700.651 297.536 700.405 295.672 702.346 294.618C702.194 292.191 704.422 291.202 705.367 289.479C706.333 287.719 707.625 286.096 708.363 284.355C708.995 282.863 710.791 282.961 711.136 281.134C711.386 279.808 713.271 278.789 714.427 277.632C714.427 276.978 714.143 276.05 714.47 275.712C717.995 271.028 721.203 266.114 724.074 261.004C725.532 259.033 726.809 256.899 728.206 254.861C729.504 252.968 729.94 250.485 732.108 249.286V247.206C733.094 245.632 735.257 245.653 736.229 244.071C737.046 242.591 737.971 241.174 738.995 239.83C742.398 235.776 745.309 231.371 748.43 227.116C748.603 226.881 749.377 227.184 749.731 226.601V224.628C752.856 221.603 755.445 218.068 757.385 214.175C759.774 210.172 763.439 207.011 765.593 202.841C766.846 200.417 769.53 198.746 769.44 195.595C769.429 195.216 769.863 194.784 770.166 194.443C771.429 193.458 772.273 192.033 772.531 190.453C772.722 189.688 773.156 189.007 773.768 188.511C774.38 188.014 775.137 187.731 775.924 187.703C776.728 186.75 776.085 185.611 776.955 184.548C779.073 181.123 781.418 177.845 783.976 174.736C785.588 173.466 786.688 171.657 787.075 169.642C787.134 169.182 786.887 168.61 787.447 168.329C788.967 167.566 789.224 165.749 790.725 164.726C791.963 163.882 792.339 161.593 793.567 160.125C794.497 158.737 795.3 157.268 795.965 155.735C797.158 153.606 799.797 152.907 800.579 150.531C802.734 150.884 800.847 147.783 802.922 148.301C801.527 144.721 801.53 144.722 803.337 140.653C804.336 139.287 804.808 137.607 804.669 135.921L807.534 133.535C808.266 128.57 811.715 126.329 815.349 123.277C816.444 121.191 817.649 119.165 818.96 117.208H820.821C823.466 114.88 825.816 112.302 828.7 110.218C831.347 108.305 833.941 106.291 836.579 104.339C838.883 102.128 841.748 100.59 844.864 99.8894C847.98 99.189 851.228 99.3537 854.257 100.366C855.366 100.642 856.523 100.663 857.64 100.427C859.842 100.048 862.106 100.481 864.013 101.644C866.991 103.254 870.149 104.262 873.207 105.566C874.921 106.398 876.43 107.598 877.627 109.08C878.95 110.63 880.718 111.736 882.69 112.248C885.577 115.133 885.25 120 889.277 122.421C888.839 125.695 889.228 129.028 890.406 132.114C890.98 135.043 888.05 138.205 891.387 140.483C890.928 140.985 890.577 141.576 890.355 142.218C890.133 142.861 890.044 143.542 890.094 144.22L887.303 147.011C887.253 148.11 886.792 149.328 888.113 149.857C886.934 152.895 881.875 152.475 882.328 157.001C878.579 159.027 878.816 163.596 876.554 166.723C877.558 167.42 877.475 168.536 877.399 169.65C873.78 171.126 874.534 174.314 874.453 177.174C872.9 180.756 869.56 183.162 868.238 186.743C867.15 187.127 866.64 186.461 865.931 185.623C864.035 190.395 861.349 194.815 857.987 198.697C856.62 200.929 856.378 203.59 854.376 205.612C851.558 208.457 850.183 212.451 847.414 215.465C846.329 216.938 845.422 218.534 844.712 220.22C843.846 222.214 842.643 224.043 841.158 225.63C840.834 225.925 841.111 226.877 841.111 227.645C837.99 230.444 835.607 233.969 834.173 237.909C833.359 240.31 831.805 242.391 829.734 243.854C829.512 243.97 829.41 244.358 829.298 244.638C828.738 246.042 828.3 247.507 827.61 248.841C827.019 249.985 825.404 249.924 824.741 251.494C824.276 252.596 822.994 253.874 822.629 255.023C821.743 257.385 820.262 259.479 818.331 261.102C817.236 261.878 816.327 262.887 815.668 264.057C815.009 265.226 814.618 266.527 814.521 267.866C811.77 270.491 810.611 274.34 807.602 276.789C806.51 277.677 805.161 278.595 805.806 280.585C801.206 283.681 801.468 290.196 796.928 293.24C795.871 296.748 793.822 299.876 791.03 302.248C790.845 303.031 791.271 303.83 790.601 304.568C787.777 307.261 785.529 310.499 783.994 314.087C782.135 314.039 782.228 315.943 781.327 316.851C780.986 317.194 781.196 318.084 781.152 318.78C779.289 321.154 776.469 322.817 776.13 326.491C775.967 328.251 773.649 329.151 771.666 329.967C771.509 331.44 771.058 332.866 770.339 334.161C769.62 335.456 768.648 336.593 767.48 337.505C764.179 340.86 761.214 344.532 758.629 348.466C757.701 349.856 757.116 351.446 756.923 353.106C755.974 356.836 753.672 360.079 750.464 362.204C748.105 364.195 745.543 365.93 742.82 367.382C741.595 368.088 741.677 369.411 740.696 370.251C738.231 372.402 735.903 374.704 733.723 377.143C729.853 380.843 725.68 384.213 721.247 387.216C717.298 390.319 712.561 391.832 708.606 394.819C707.095 396.239 705.512 397.582 703.864 398.841V398.841ZM840.135 211.635C841.303 208.957 843.091 208.103 844.114 206.327C846.649 201.933 849.814 197.905 852.435 193.555C853.923 191.085 855.08 188.435 856.604 185.939C858.026 182.891 859.789 180.014 861.86 177.363C862.313 176.897 862.817 176.486 862.673 175.735C862.356 174.089 863.921 173.624 864.632 172.59C864.486 171.255 864.727 169.907 865.326 168.705L866.762 167.735C865.526 166.761 864.557 165.927 864.409 164.536C860.832 162.21 857.102 160.129 853.244 158.306C850.101 157.73 847.039 156.775 844.127 155.46C841.84 153.821 839.021 153.098 836.227 153.434C828.513 150.682 820.519 148.787 812.39 147.784L807.684 151.659C807.764 152.542 808.718 152.79 809.149 153.482C813.622 152.986 817.558 155.89 822.02 155.529C824.407 157.407 827.532 157.103 830.195 158.301C833.017 159.392 835.901 160.318 838.831 161.074C841.747 161.993 844.289 163.661 847.289 164.47C851.873 166.047 856.323 167.988 860.599 170.272V173.71L857.555 175.157C855.48 173.653 853.039 172.734 850.488 172.497C847.55 171.954 845.711 169.824 843.039 168.98C840.602 168.149 838.243 167.107 835.987 165.866C833.439 164.558 830.766 163.512 828.007 162.744C825.202 161.511 822.218 160.735 819.168 160.446C816.584 160.567 815.011 158.562 812.631 158.269C810.325 158.2 808.069 157.573 806.058 156.441C805.835 156.288 805.418 156.42 804.72 156.42L801.782 157.874C801.359 159.699 798.977 160.667 799.917 162.806L795.921 166.709C794.974 169.987 792.854 172.802 789.964 174.617C790.231 175.601 790.211 176.641 789.905 177.613C789.6 178.586 789.023 179.451 788.242 180.106C787.155 180.883 786.234 181.87 785.533 183.007C784.832 184.145 784.365 185.411 784.16 186.732C783.849 188.501 782.224 188.535 781.154 189.363C781.154 189.996 781.435 190.94 781.111 191.249C777.782 194.423 776.923 199.389 773.154 202.184C772.341 202.913 771.8 203.897 771.62 204.974C771.227 206.305 770.601 207.555 769.773 208.668C767.946 211.705 765.954 214.64 763.805 217.459C763.206 218.189 763.727 219.026 763.392 219.914C760.286 222.08 758.952 226.022 755.79 228.34L755.486 231.152L750.574 235.593C750.744 235.881 750.843 236.206 750.863 236.54C750.883 236.874 750.824 237.208 750.691 237.514C750.557 237.821 750.353 238.092 750.095 238.305C749.837 238.518 749.532 238.667 749.205 238.74C748.572 238.855 747.976 239.124 747.47 239.522C746.964 239.92 746.563 240.436 746.301 241.024C745.565 242.928 743.827 243.876 742.926 245.408L742.816 247.591C738.526 249.876 737.602 255.017 734.061 258.03C734.122 258.971 733.892 259.909 733.401 260.714C728.45 267.175 724.067 274.052 720.301 281.268C719.688 282.583 718.607 283.623 717.269 284.184C714.83 286.167 716.282 289.848 712.592 290.103C712.491 291.583 712.098 293.028 711.434 294.354C710.77 295.68 709.849 296.861 708.724 297.828C706.517 300.662 705 303.971 704.294 307.493C701.851 309.498 699.793 311.931 698.219 314.672C696.272 317.169 695.567 320.6 692.909 322.742C692.741 322.878 692.858 323.356 692.825 323.673C692.691 325.234 691.969 326.687 690.804 327.736C689.93 328.759 689.418 330.041 689.346 331.385C690.349 329.243 692.867 331.175 693.823 329.254C694.673 327.546 696.259 327.15 698.432 327.21C699.227 326.365 700.047 324.728 701.248 324.369C703.945 323.261 706.322 321.496 708.161 319.235C710.054 320.178 711.574 318.189 713.87 318.399L715.955 321.262C716.683 322.465 716.043 323.856 715.475 325.353C714.902 326.865 716.591 328.1 716.524 329.831C716.47 331.239 715.531 332.114 715.392 333.317C716.466 335.341 717.233 337.513 717.668 339.763C720.239 340.19 722.879 339.892 725.291 338.902C730.634 334.389 736.554 330.607 742.896 327.657C742.703 324.377 746.383 326.106 747.305 324.263C749.311 325.412 750.975 327.076 752.122 329.082C753.27 331.089 753.861 333.367 753.834 335.678C754.331 336.392 755.326 336.73 755.437 337.455C755.097 338.116 754.733 338.516 754.714 338.932C754.686 339.534 754.396 340.235 755.022 340.796C755.503 340.999 755.588 341.872 756.375 341.72C756.657 339.962 758.23 339.183 759.12 337.912C760.152 336.597 760.7 334.966 760.671 333.295C764.616 332.673 764.004 327.748 767.359 326.789C768.186 323.862 770.424 321.518 770.638 318.177C773.665 319.363 772.442 315.087 774.876 315.272C775.545 315.323 775.192 313.911 775.87 313.289C776.792 312.442 776.113 311.14 776.281 310.034C777.757 308.614 779.061 307.025 780.167 305.301C780.684 304.361 781.055 303.347 781.268 302.295C781.565 301.047 783.024 300.683 783.46 300.481C788.117 293.424 791.783 286.494 796.919 279.662V277.42L802.813 271.696V268.928C803.133 268.184 803.911 268.526 804.096 268.281C806.352 265.953 808.224 263.28 809.64 260.364C809.838 259.794 809.411 258.639 810.064 258.652C812.348 258.696 811.73 256.286 813.044 255.392C814.158 254.347 814.898 252.965 815.151 251.458C815.865 248.569 817.48 245.983 819.762 244.073C820.873 243.123 819.986 241.872 820.789 240.974C821.529 240.82 822.223 240.495 822.815 240.025C823.942 239.168 822.831 237.754 823.878 236.924C826.546 234.159 829.818 231.67 829.346 227.158C830.521 227.106 830.995 226.999 831.329 225.939C832.393 223.177 834.126 220.723 836.372 218.796C838.515 216.993 839.865 214.422 840.135 211.635V211.635ZM746.28 333.077C745.577 333.292 744.788 332.806 744.008 333.415C741.121 335.746 738.067 337.861 734.869 339.742C731.003 341.933 727.781 345.465 722.756 344.881C721.171 345.681 719.411 346.072 717.636 346.019C715.861 345.966 714.128 345.47 712.594 344.577C712.151 343.206 711.543 341.894 710.783 340.671C710.194 339.265 709.784 337.791 709.56 336.283C709.377 335.105 707.325 333.908 709.455 332.661C707.814 331.572 709.043 329.648 708.253 328.296C702.052 332.258 695.468 335.586 688.601 338.229L685.033 341.34C684.962 342.906 685.376 344.518 684.757 345.427C683.114 348.356 681.997 351.55 681.455 354.865C680.504 357.595 679.753 360.39 679.208 363.23C678.736 365.571 678.123 367.881 677.372 370.148C678.421 370.806 678.033 371.861 678.133 373.238L675.246 375.56C675.046 376.737 675.311 377.946 675.986 378.931C675.78 379.027 675.601 379.171 675.462 379.351C675.324 379.531 675.231 379.741 675.191 379.964C675.151 380.188 675.166 380.417 675.233 380.634C675.301 380.851 675.419 381.048 675.579 381.209C679.106 381.12 682.624 381.59 686.003 382.602C689.315 383.938 692.806 384.782 696.362 385.105C697.182 386.774 699.117 386.985 700.412 388.022C702.623 388.339 704.872 387.807 706.707 386.533C709.162 384.697 711.772 383.078 714.507 381.694C715.927 381.011 717.186 380.033 718.199 378.826C719.565 377.15 721.997 377.14 723.233 375.659C724.402 373.98 725.711 372.404 727.146 370.946C727.513 370.676 727.935 370.488 728.382 370.395C730.434 369.844 729.902 367.867 730.274 366.845C734.392 362.991 738.952 359.637 743.859 356.856V355.14C745.798 355.096 745.748 353.025 746.908 352.156C748.153 351.222 749.438 350.342 750.773 349.39C748.238 347.136 751.015 343.861 748.88 341.317C747.016 339.096 748.354 335.501 746.28 333.077Z" fill="#212222"/>
<path d="M917.825 87.5944C917.517 87.0628 917.101 86.6014 916.604 86.2398C916.107 85.8783 915.54 85.6244 914.939 85.4946C913.903 83.1039 913.205 80.5101 910.166 79.6482C909.671 79.4824 909.255 79.1375 909.001 78.6812C908.747 78.2249 908.673 77.6902 908.793 77.182C907.29 77.0593 905.851 76.5176 904.641 75.6184C903.43 74.7192 902.496 73.4985 901.944 72.095C902.045 70.9966 902.893 70.5391 903.783 70C907.47 70.9021 910.944 72.5201 914.008 74.7622C917.925 77.1833 921.219 80.4899 923.625 84.4161C924.643 86.2028 925.94 87.8152 927.467 89.1923L926.714 89.9456C926.551 91.2187 927.982 90.2432 928.383 91.3645C927.89 96.3855 932.788 100.391 932.379 105.873C932.956 106.45 933.535 107.027 934.321 107.809C933.686 109.61 934.92 111.399 934.578 113.596C934.283 115.496 935.526 117.784 935.325 120.016C937.428 121.762 935.167 124.816 937.289 126.556C937.551 130.723 937.327 134.905 936.62 139.019C936.217 139.994 936.045 141.048 936.117 142.1C936.19 143.152 936.506 144.173 937.041 145.082C936.523 145.956 936.383 147.212 935.404 148.002C938.375 151.992 933.82 155.912 935.546 159.661C934.587 160.314 933.802 161.19 933.257 162.215C932.713 163.239 932.426 164.381 932.422 165.541C932.536 166.679 931.776 167.278 931.369 168.065C928.609 173.585 924.543 178.347 919.524 181.938C918.945 181.938 918.529 181.601 918.657 181.076C918.959 178.505 919.674 176 920.774 173.657C922.006 171.926 922.645 169.844 922.595 167.72C925.12 162.522 926.443 156.823 926.467 151.044L928.452 149.06C928.685 147.379 928.64 145.671 928.318 144.005C927.873 142.742 928.512 141.391 927.57 140.209C927.169 139.707 927.525 138.633 927.461 137.825C927.322 136.064 929.27 134.488 928.366 132.887C927.415 131.207 927.927 129.426 927.382 127.884C926.39 125.082 927.078 122.118 926.325 119.482C925.64 117.083 927.385 115.076 925.959 112.215L924.522 111.079C924.522 109.135 924.522 107.501 924.52 105.868C923.594 104.944 922.67 104.019 921.543 102.893C922.414 99.0268 920.019 95.6172 919.324 91.8421L917.825 91.4514L917.825 87.5944Z" fill="#222222"/>
<path d="M446.941 605.874C450.429 606.935 453.434 604.62 456.667 603.774C459.434 603.05 462.27 602.378 465.049 601.605C467.73 600.844 470.459 600.267 473.219 599.879C475.525 599.823 477.799 599.328 479.92 598.422C481.911 597.301 484.499 599.255 486.246 597.11C489.168 597.765 491.798 596.165 494.658 595.978C497.666 595.783 500.748 594.912 503.744 594.489C507.116 593.644 510.575 593.191 514.052 593.14C516.604 593.722 519.261 593.66 521.785 592.961C524.023 591.849 526.685 593.331 528.464 591.242C528.602 591.081 529.093 591.211 529.42 591.223C539.92 591.611 550.339 589.148 560.851 590.528L563.223 592.623L560.805 595.147C555.186 595.147 549.627 595.209 544.07 595.115C542.005 595.081 539.913 596.107 538.162 595.842C536.141 595.536 534.462 596.546 532.523 596.209C530.444 595.715 528.277 595.732 526.207 596.26C523.684 597.143 520.918 596.333 518.802 597.291C516.353 598.401 513.949 597.362 511.8 598.172C508.706 598.851 505.544 599.175 502.376 599.138C497.808 600.199 493.151 600.835 488.466 601.036C485.357 602.518 481.936 603.226 478.495 603.099C475.306 603.292 472.277 604.697 469.031 605.165C467.245 605.422 465.396 605.826 463.506 605.97C461.733 608.356 458.51 607.248 456.405 608.887C453.112 608.451 449.772 609.217 446.999 611.045C442.964 612.338 439.006 613.861 435.145 615.605C431.456 617.632 427.162 618.6 423.586 620.776C419.504 622.581 415.704 624.966 412.304 627.857C411.2 629.069 409.708 628.201 408.461 629.447C405.05 632.854 400.142 634.412 396.913 638.184C396.727 638.403 396.061 638.212 395.246 638.212C395.733 636.317 396.848 634.642 398.408 633.46C402.29 630.054 406.861 627.491 410.46 623.723C410.799 623.369 411.093 622.849 411.509 622.71C415.385 620.965 419.156 618.993 422.802 616.806C425.053 615.919 427.23 614.854 429.311 613.62C433.719 611.258 438.353 609.343 443.143 607.906C444.561 607.563 445.868 606.863 446.941 605.874Z" fill="#222222"/>
<path d="M348.042 484.29C348.172 485.374 348.347 486.136 349.116 486.594C348.867 487.284 347.841 487.63 348.343 488.88C343.549 489.386 339.684 492.457 334.951 493.273C333.464 493.58 332.081 494.264 330.935 495.26C327.364 498.574 322.494 499.712 318.832 502.859C314.612 505.597 310.661 508.727 307.029 512.207C305.296 514.369 302.704 515.461 300.843 517.411C296.014 521.945 291.8 527.093 288.31 532.724C287.255 534.646 284.732 535.492 284.236 537.907C282.008 538.342 282.236 540.67 281.112 541.894C280.103 543.252 279.225 544.703 278.49 546.227C277.537 548.327 276.362 550.32 274.985 552.17C273.413 553.803 273.946 556.724 271.809 558.182C270.979 563.191 267.657 567.678 268.836 572.931L266.341 575.427C263.392 573.982 265.268 572.012 265.887 570.309L264.873 569.197C266.652 566.677 265.298 563.818 266.002 561.275C267.884 557.481 269.435 553.531 270.637 549.47C270.655 548.838 270.92 548.238 271.377 547.8C272.841 546.486 273.011 544.561 273.757 542.911C275.203 539.423 277.487 536.347 280.407 533.954C280.505 532.779 280.836 531.636 281.381 530.591C281.926 529.547 282.673 528.621 283.581 527.869C286.415 525.345 288.749 522.31 290.46 518.922C290.932 517.595 292.754 518.032 293.256 516.731C294.422 513.71 297.762 512.724 299.429 510.066C301.473 507.619 303.937 505.555 306.704 503.97C309.757 501.624 312.994 499.411 316.02 497.059C319.72 494.048 323.894 491.672 328.371 490.027C331.341 488.986 333.888 486.801 336.78 485.463C339.05 484.605 341.362 483.862 343.707 483.238C345.312 482.687 346.292 484.289 348.042 484.29Z" fill="#222222"/>
<path d="M424.656 566.499C424.807 565.851 424.91 565.406 424.9 565.449L444.796 555.92H447.919L449.498 554.061C453.581 553.433 457.581 552.349 461.422 550.828C462.576 550.438 463.764 550.16 464.971 549.998C465.298 549.994 465.73 550.135 465.937 549.977C469.226 547.466 473.372 548.269 477.011 547.088C481.221 545.606 485.566 544.538 489.984 543.898C494.818 543.136 499.602 542.082 504.31 540.742C506.75 539.727 509.37 539.216 512.013 539.239C513.718 539.5 514.797 537.507 516.518 538.221C518.252 538.94 519.322 537.005 521.026 537.165C522.52 537.306 524.287 537.875 525.546 536.278C525.671 536.119 526.173 536.256 526.5 536.256C529.608 536.256 532.723 536.393 535.821 536.216C538.619 536.056 541.554 537.071 544.202 535.387C546.173 537.285 549.331 535.198 551.503 538.131C551.571 539.009 551.527 539.891 551.371 540.757L549.828 542.298C546.652 539.682 542.372 542.521 538.724 540.133C537.481 540.954 535.997 541.33 534.514 541.2C533.21 541.083 531.899 541.074 530.594 541.172C529.505 541.199 528.278 540.799 527.517 542.029C526.446 540.758 525.5 542.302 524.45 542.176C523.341 541.869 522.168 541.887 521.07 542.23C519.104 543.423 516.869 542.539 515.103 543.265C513.214 544.041 511.104 543.438 509.637 544.241C506.913 545.733 503.876 544.177 501.374 545.642C499.068 546.993 496.162 546.313 494.018 548.034C490.154 548.401 486.327 549.091 482.578 550.096C477.734 550.764 472.99 552.155 468.203 553.233C466.674 555.037 463.934 552.722 462.516 554.905C459.74 554.536 457.922 557.28 454.976 556.992C452.446 556.744 450.086 558.474 447.489 558.981C444.292 559.886 441.189 561.095 438.224 562.594C435.899 563.251 433.674 564.221 431.611 565.479C429.629 566.624 427.564 567.617 425.433 568.452C420.803 570.667 416.551 573.6 412.836 577.142C412.338 577.704 411.937 578.554 410.941 578.458C410.787 578.443 410.637 578.404 410.462 578.371C410.334 578.277 410.228 578.155 410.153 578.015C410.077 577.875 410.034 577.72 410.025 577.561C410.016 577.402 410.043 577.243 410.103 577.095C410.163 576.948 410.255 576.815 410.373 576.708C414.044 571.993 419.006 568.446 424.656 566.499V566.499Z" fill="#222322"/>
<path d="M956.493 145.686C957.191 146.337 956.811 147.62 957.881 148.055L956.922 149.111C956.675 150.444 958.864 151.408 957.838 152.57C956.558 154.02 958.112 155.025 957.918 156.235C957.722 157.451 958.415 158.884 956.998 159.783C957.049 161.963 956.551 164.121 955.549 166.058C953.621 170.351 951.437 174.525 949.009 178.557C948.927 178.701 948.809 178.82 948.666 178.903C946.03 180.913 942.977 182.304 939.731 182.973C938.742 181.819 939.989 180.076 938.293 179.451C939.953 178.332 938.61 174.942 941.746 175.031C942.231 173.046 943.98 172.02 945.148 170.585C945.158 169.71 945.368 168.848 945.763 168.067C946.157 167.286 946.726 166.605 947.424 166.077C949.254 164.042 950.451 161.517 950.867 158.812C951.415 156.705 951.762 154.552 951.902 152.379C951.864 150.665 952.967 149.477 953.051 147.879C953.159 145.802 954.686 145.394 956.493 145.686Z" fill="#232323"/>
<path d="M264.706 522.516V525.903C264.226 526.99 262.297 527.491 262.815 529.329C260.958 533.288 259.315 537.345 257.894 541.481C257.608 541.924 257.281 542.34 256.918 542.723C257.16 544.704 256.826 546.714 255.955 548.51C255.225 550.402 254.862 552.417 254.887 554.445C254.463 559.563 253.707 564.647 252.627 569.667C251.795 568.946 251.137 568.046 250.705 567.034C250.272 566.021 250.075 564.924 250.129 563.824C249.857 560.093 250.115 556.325 250.02 552.576C249.983 551.102 250.902 549.987 251.193 548.612C252.158 544.177 253.518 539.838 255.259 535.647C255.825 534.267 255.684 532.64 256.848 531.374C257.461 530.708 256.376 529.094 257.556 528.291C258.794 527.447 258.72 526.205 259.037 524.96C259.281 524.007 260.532 523.311 261.32 522.516L264.706 522.516Z" fill="#2B2A29"/>
<path d="M691.521 523.497H689.468C686.534 526.557 683.14 529.141 679.41 531.156C675.559 533.199 673.205 536.929 669.284 538.69V541.067L666.314 543.854C666.598 545.254 665.97 546.258 664.487 547.192C663.992 543.787 664.453 540.311 665.819 537.152C666.374 536.376 668.3 535.803 669.146 534.505C670.14 532.978 670.974 531.651 672.817 531.233C673.689 527.179 678.021 527.13 680.43 524.807C681.615 523.597 682.916 522.507 684.316 521.553C685.734 520.646 687.17 519.476 688.558 518.659C692.675 515.468 697.152 512.772 701.898 510.626C703.432 510.145 704.548 508.33 706.558 506.48C706.69 506.373 707.894 507.177 708.875 506.093C711.072 503.667 714.837 503.531 716.999 500.923C720.495 501.42 722.646 498.669 725.298 497.291C730.967 494.408 736.86 491.988 742.919 490.054C744.898 489.402 746.781 488.353 748.786 487.648C751.217 486.793 754.201 487.616 756.128 485.243C758.616 485.282 761.062 484.606 763.177 483.297C763.809 483.112 764.479 483.101 765.116 483.266C767.932 483.382 770.741 482.894 773.353 481.834C775.653 480.929 778.098 480.453 780.569 480.429C784.552 480.574 788.536 480.146 792.398 479.16C798.463 478.488 804.565 478.201 810.667 478.301C812.823 478.093 814.513 479.852 816.987 479.224L819.45 482.459V483.773L818.042 485.18C811.917 485.74 805.952 483.821 799.808 484.104C797.383 484.216 795.3 485.391 792.859 485.305C790.654 485.052 788.42 485.283 786.314 485.982C784.08 486.646 781.766 487.002 779.436 487.041C777.064 487.24 774.942 488.753 772.495 488.163C770.717 490.163 767.715 488.085 765.95 490.126C762.864 489.433 760.149 491.871 757.47 491.117C754.922 492.804 751.982 493.805 748.934 494.021C746.513 494.39 744.191 495.243 742.106 496.528C736.073 498.904 730.119 501.537 724.198 504.224C718.39 506.858 713.053 510.355 707.144 512.784C704.341 514.045 701.726 515.686 699.373 517.662C696.685 519.79 692.888 520.296 691.521 523.497Z" fill="#222222"/>
<path d="M771.989 448.024C772.362 448.292 772.618 449.038 773.681 448.86L774.981 447.922C778.965 449.934 783.24 448.273 787.928 449.228L789.927 452.189V453.534C787.72 453.716 785.751 455.59 783.568 454.735C779.507 453.861 775.346 453.537 771.198 453.77C767.47 453.576 763.773 452.981 760.172 451.994C759.242 451.69 758.246 451.653 757.296 451.887C754.382 452.944 751.195 452.975 748.261 451.975C747.189 451.607 746.052 451.469 744.924 451.569C743.795 451.669 742.7 452.005 741.71 452.556C740.962 453.099 740.145 452.788 739.368 452.811C737.406 452.867 735.439 452.753 733.481 452.849C731.083 452.966 728.498 452.113 726.33 453.314C724.143 454.525 721.447 452.701 719.572 454.792C716.805 454.136 714.367 455.796 711.643 455.919C708.58 456.019 705.579 456.814 702.868 458.243C700.603 459.345 698.095 459.85 695.581 459.712C691.945 461.557 688.215 463.207 684.406 464.658C680.715 466.408 676.878 467.798 673.234 469.722C669.964 471.449 667.164 473.849 663.835 475.417C660.705 477.089 657.716 479.014 654.9 481.173C653.95 481.682 653.079 482.327 652.315 483.088C650.204 485.796 646.327 486.645 644.987 490.126C641.778 491.591 640.048 494.698 637.496 496.896C635.981 498.201 634.051 498.874 632.85 500.741C631.612 502.24 630.184 503.571 628.602 504.702H626.297C626.2 504.256 625.977 503.857 626.093 503.672C626.887 502.083 628.191 500.806 629.798 500.048C631.566 499.476 631.18 497.312 633.306 496.763C635.218 496.268 636.717 493.877 638.225 492.171C643.289 486.95 648.625 482 654.21 477.342C657.485 474.539 661.108 472.17 664.99 470.295C667.697 468.878 670.08 466.805 672.847 465.553C676.296 463.992 679.474 461.89 683.087 460.658C687.954 458.998 692.841 457.352 697.561 455.329C699.305 454.581 701.129 454.778 702.91 454.018C704.759 453.323 706.647 452.739 708.566 452.268C710.92 451.489 713.356 450.978 715.825 450.744C718.442 450.63 721.026 450.108 723.482 449.198C725.216 448.833 726.995 448.735 728.759 448.906C735.428 448.417 742.104 448.002 748.763 447.4C750.132 447.276 751.355 448.83 752.865 447.391C753.47 446.976 754.172 446.725 754.902 446.661C755.633 446.597 756.367 446.723 757.035 447.026C761.966 447.926 766.983 448.26 771.989 448.024V448.024Z" fill="#222323"/>
</svg>
