<svg width="1208" height="900" viewBox="0 0 1208 900" fill="none" xmlns="http://www.w3.org/2000/svg">
<path d="M496.297 645.691L498.276 644.703C498.968 644.807 499.674 644.774 500.353 644.604C501.032 644.434 501.671 644.132 502.232 643.714C503.861 643.993 504.776 642.679 505.996 641.736H498.276C495.715 641.736 493.154 641.736 490.594 641.736C489.921 641.736 489.304 641.807 489.373 642.725H487.395C487.464 641.814 486.854 641.736 486.181 641.736C483.948 641.736 481.715 641.736 479.482 641.736C478.839 641.806 478.19 641.798 477.55 641.71C476.111 641.333 476.226 644.487 474.275 643.021C473.206 642.218 471.777 642.729 470.534 642.77C469.028 642.819 467.352 642.103 466.022 643.651C465.674 643.85 465.271 643.93 464.874 643.879C464.477 643.827 464.107 643.648 463.821 643.368C462.928 642.298 461.743 642.877 460.688 642.725H451.786C450.183 642.865 448.57 642.839 446.972 642.646C445.702 642.371 444.901 644.029 443.311 642.902C442.238 642.14 440.202 642.732 438.596 642.726C437.308 642.72 436.018 642.684 434.733 642.745C434.613 642.741 434.494 642.766 434.386 642.817C434.278 642.867 434.183 642.943 434.11 643.038C434.037 643.132 433.987 643.243 433.965 643.36C433.942 643.478 433.948 643.599 433.982 643.713C429.343 643.323 424.671 643.656 420.134 644.702H418.156C418.268 644.091 417.858 643.671 417.399 643.744C414.676 644.179 411.967 644.706 409.257 645.224L409.253 645.691H408.264C407.925 643.773 406.149 644.516 405.571 644.798C403.003 645.667 400.277 645.97 397.58 645.686C396.763 645.721 395.642 645.349 395.18 645.755C393.764 646.999 392.172 646.557 390.621 646.694C389.413 646.8 388.222 648.843 387.012 646.694C385.804 648.366 384.03 647.608 382.513 647.619C380.822 647.63 379.129 649.529 377.436 647.669C375.884 649.269 373.794 648.314 372.02 648.837C371.839 648.891 371.781 649.367 371.666 649.646H368.699C366.138 649.646 363.578 649.646 361.018 649.646C360.344 649.646 359.727 649.717 359.797 650.635H358.808C357.553 650.635 356.299 650.635 355.044 650.634C354.37 650.633 353.798 650.747 353.862 651.624C353.184 652.237 352.303 652.577 351.389 652.577C350.475 652.577 349.594 652.237 348.916 651.624C347.662 651.624 346.407 651.624 345.153 651.624C344.479 651.622 343.906 651.736 343.971 652.614C342.716 652.614 341.462 652.613 340.207 652.613C339.533 652.612 338.961 652.725 339.025 653.603C337.956 653.455 336.899 653.816 335.808 653.001C335.08 652.457 334.139 653.864 332.958 653.648C330.579 653.214 328.473 655.291 326.007 654.592C324.893 656.415 322.238 654.512 321.221 656.569C319.061 656.236 316.851 656.588 314.902 657.577C314.16 658.177 313.463 658.83 312.818 659.531C312.56 659.128 312.183 658.816 311.738 658.639C311.293 658.462 310.804 658.43 310.34 658.547C306.709 658.295 306.369 657.89 306.344 654.741C306.433 653.645 306.877 652.608 307.609 651.788C309.364 649.788 310.34 647.222 310.359 644.56C310.292 643.958 310.118 643.238 310.784 642.778C312.131 641.848 312.091 640.444 312.411 639.002C313.099 635.898 314.296 632.908 315.286 629.871V628.882C315.398 628.911 315.515 628.914 315.629 628.892C315.743 628.87 315.85 628.823 315.944 628.755C316.037 628.686 316.115 628.597 316.17 628.495C316.225 628.393 316.256 628.28 316.262 628.164C316.663 625.702 317.331 623.29 318.253 620.971V619.982C319.644 618.467 320.665 616.65 321.235 614.673C321.305 614.445 321.46 614.252 321.669 614.135C321.877 614.018 322.123 613.986 322.354 614.046C322.47 614.048 322.585 614.073 322.692 614.121C322.798 614.168 322.894 614.236 322.974 614.321C323.053 614.406 323.115 614.506 323.155 614.615C323.196 614.725 323.214 614.841 323.208 614.957C323.158 619.116 322.139 623.207 320.231 626.903V628.881C319.614 628.768 319.528 629.281 319.218 629.629C317.649 631.383 319.081 633.958 317.917 635.42C316.735 636.906 317.937 638.533 316.752 639.914C316.167 640.438 315.728 641.104 315.477 641.848C315.226 642.592 315.173 643.388 315.321 644.159C315.897 645.939 313.821 646.984 314.297 648.657C312.216 649.444 313.169 651.326 313.591 652.206C314.191 653.458 315.053 651.985 315.845 651.681C316.638 651.525 317.453 651.506 318.253 651.624H319.242C321.086 651.758 322.459 650.354 324.185 650.093L324.188 649.646C325.657 649.646 327.136 649.537 328.591 649.679C329.947 649.811 330.705 648.181 332.101 648.658C333.716 648.865 335.352 648.83 336.956 648.553C338.338 647.831 339.906 647.54 341.455 647.721C343.246 648.231 344.278 646.205 345.949 646.68H346.938C347.908 646.68 349.102 647.045 349.807 646.613C352.189 645.157 355.069 646.556 357.115 645.525C359.847 644.149 362.433 645.131 365.037 644.726C365.984 644.579 366.977 644.75 367.942 644.682C368.062 644.686 368.181 644.662 368.29 644.611C368.398 644.561 368.493 644.485 368.567 644.39C368.641 644.296 368.691 644.185 368.714 644.068C368.737 643.95 368.732 643.829 368.699 643.713C372.268 643.8 375.649 642.176 379.255 642.523C379.337 642.531 379.47 642.01 379.58 641.736H384.525C386.431 641.736 388.337 641.736 390.243 641.736C390.916 641.736 391.517 641.649 391.449 640.747C393.407 640.65 395.368 640.671 397.323 640.807C398.63 640.964 399.292 639.927 400.351 639.757H401.341C403.246 639.757 405.152 639.757 407.058 639.757C407.731 639.757 408.332 639.671 408.265 638.768C410.068 638.768 411.872 638.792 413.675 638.762C415.564 639.099 417.511 638.751 419.167 637.78C420.697 639.456 422.223 637.855 423.758 637.808C426.867 637.598 429.987 637.614 433.094 637.856C436.265 637.756 439.421 637.377 442.526 636.723C445.833 636.55 449.302 637.843 452.466 635.83C452.825 635.602 453.323 636.076 453.747 636.218C454.682 636.703 455.732 636.921 456.782 636.847C457.832 636.774 458.842 636.412 459.7 635.802C462.831 636.264 466.154 634.808 469.137 636.75C470.718 634.919 472.82 635.964 474.666 635.863C476.514 635.762 478.551 635.2 480.193 636.767C480.34 636.822 480.498 636.839 480.653 636.817C480.808 636.794 480.955 636.732 481.08 636.638C482.408 635.125 484.145 635.86 485.68 635.837C491.596 635.75 497.516 635.813 503.433 635.788C504.146 635.785 505.187 636.171 505.2 634.813C505.561 635.044 505.937 635.251 506.325 635.432C507.394 635.854 508.554 636.567 509.156 634.813H513.113C513.813 637.157 516.584 634.627 517.462 636.643C517.586 636.733 517.729 636.791 517.88 636.813C518.031 636.834 518.185 636.819 518.329 636.768C520.196 634.917 522.642 636.326 524.693 635.605C524.925 632.195 524.985 632.046 522.121 630.899C519.188 629.724 516.121 628.88 513.113 627.891C512.421 627.996 511.715 627.963 511.036 627.793C510.356 627.623 509.718 627.32 509.156 626.902C507.211 625.22 504.792 624.184 502.232 623.936C502.124 623.663 502.061 623.182 501.901 623.147C498.391 622.391 494.87 621.685 491.352 620.969C491.247 620.7 491.118 620.188 491.041 620.196C489.031 620.394 487.386 618.922 485.417 618.992H483.438C483.551 618.371 483.175 618.081 482.661 618.013C480.495 617.725 478.281 617.32 476.223 616.847C470.977 616.335 465.781 615.399 460.687 614.047C455.349 614.733 450.183 612.66 444.862 613.058H440.906C440.973 612.156 440.372 612.069 439.699 612.069C437.793 612.07 435.888 612.07 433.982 612.069C433.181 612.179 432.367 612.164 431.571 612.026C430.211 611.563 429.727 613.806 428.614 612.997C428.279 612.672 427.879 612.421 427.44 612.261C427.002 612.101 426.534 612.036 426.069 612.069C426.144 611.108 425.478 611.111 424.807 611.077C420.669 611.486 416.491 611.153 412.471 610.092C405.53 610.816 398.724 608.884 391.8 609.073C386.411 609.221 381.015 609.103 375.623 609.103H373.644C373.714 608.185 373.096 608.115 372.424 608.115C369.863 608.114 367.302 608.114 364.742 608.115H362.764C361.689 608.113 361.017 606.203 359.473 607.773C358.879 608.195 358.174 608.435 357.446 608.462C356.717 608.49 355.997 608.304 355.372 607.928C353.971 607.153 352.346 606.881 350.769 607.158C346.526 607.066 342.28 607.126 338.035 607.126H336.057C336.127 606.208 335.509 606.137 334.836 606.137C332.276 606.137 329.715 606.137 327.155 606.137H324.188C323.96 605.826 323.662 605.573 323.319 605.399C322.975 605.225 322.595 605.134 322.21 605.134C321.824 605.134 321.444 605.225 321.101 605.399C320.757 605.573 320.459 605.826 320.231 606.137C318.696 606.605 317.776 604.849 316.207 605.099C314.737 605.231 313.26 605.247 311.788 605.148H305.394C305.465 604.225 304.841 604.16 304.168 604.16C301.28 604.159 298.391 604.159 295.503 604.16H294.514C293.049 604.199 291.303 604.415 290.73 602.75C290.365 602.015 290.275 601.173 290.476 600.376C290.678 599.58 291.158 598.882 291.829 598.409C292.194 598.164 292.694 597.862 292.536 597.238L295.503 593.282C296.994 593.148 297.279 590.933 299.027 591.243C300.296 589.364 302.204 587.856 302.428 585.372C304.65 584.484 305.202 582.164 306.26 580.43C307.006 579.205 309.081 578.492 308.362 576.472C309.002 576.036 309.519 575.444 309.866 574.752C310.212 574.059 310.375 573.29 310.341 572.517C314.004 571.167 314.306 567.267 316.166 564.578C316.955 563.437 318.97 562.664 318.254 560.65C319.93 559.83 319.253 557.709 320.703 556.502C321.829 555.091 322.676 553.479 323.199 551.751C323.172 551.615 323.178 551.474 323.218 551.342C323.258 551.209 323.33 551.088 323.428 550.99C323.526 550.892 323.647 550.82 323.779 550.78C323.912 550.74 324.053 550.734 324.188 550.762C325.865 549.941 325.188 547.82 326.637 546.614C327.764 545.203 328.611 543.59 329.134 541.862C330.805 540.306 331.858 538.199 332.102 535.929C332.919 536.048 333.29 535.353 333.59 534.884C334.845 532.997 335.981 531.035 336.993 529.007C337.429 528.091 338.532 527.311 338.036 526.041C338.854 523.771 340.212 521.735 341.993 520.107C343.404 518.19 344.718 516.201 345.928 514.151C346.089 513.957 345.949 513.513 345.949 513.185C347.001 510.505 348.7 508.127 350.895 506.263C352.214 504.777 353.572 503.323 354.817 501.776C355.057 501.478 354.852 500.822 354.852 500.33C354.766 499.643 354.848 498.946 355.092 498.298C355.336 497.65 355.734 497.072 356.252 496.612C358.234 494.271 360.026 491.775 361.612 489.148C361.859 488.79 362.158 488.311 362.765 488.464C365.669 485.82 367.733 482.382 368.7 478.575C370.231 477.723 371.673 476.871 371.692 474.756C371.711 472.672 374.813 472.447 374.636 470.161C374.624 470 374.634 469.837 374.634 469.676C374.61 469.349 374.613 469.02 374.642 468.694C374.885 467.26 376.151 466.549 377.115 465.836C378.278 464.976 376.519 462.965 378.59 462.754C380.625 461.544 382.326 459.844 383.536 457.809C385.228 457.247 385.971 456.406 384.21 455.052C383.41 454.436 383.529 453.663 383.536 452.865C383.508 452.729 383.515 452.589 383.555 452.456C383.594 452.323 383.667 452.203 383.765 452.105C383.863 452.007 383.983 451.935 384.116 451.895C384.249 451.855 384.389 451.849 384.525 451.876C388.052 452.441 390.199 448.845 393.578 448.857C394.071 448.859 394.599 448.182 395.049 447.754C395.219 447.505 395.34 447.227 395.406 446.933C396.66 446.933 397.915 446.933 399.169 446.933C399.843 446.935 400.416 446.821 400.351 445.944H401.341C402.268 446.134 403.231 446.049 404.11 445.697C404.989 445.346 405.746 444.744 406.286 443.966C408.192 443.966 410.098 443.966 412.004 443.966C412.677 443.966 413.278 443.88 413.21 442.977C415.461 443.485 417.253 441.501 419.58 441.944C423.641 442.082 427.703 441.699 431.667 440.805C431.796 440.797 431.892 440.287 432.004 440.01H434.971C436.551 440.01 438.13 440.01 439.71 440.01C440.383 440.01 440.972 439.913 440.906 439.021C442.16 439.021 443.415 439.021 444.669 439.022C445.344 439.023 445.916 438.909 445.852 438.032C446.891 438.969 447.854 438.331 448.987 438.126C450.894 437.782 452.919 438.16 454.874 437.994C456.612 437.846 458.311 437.24 460.05 437.08C461.84 436.914 463.656 437.043 465.461 437.043C467.423 436.889 469.395 436.918 471.352 437.128C472.974 437.438 474.429 435.527 475.98 437.003C477.55 435.208 479.637 436.393 481.46 436.054H482.449C482.458 437.387 483.473 437.003 484.188 437.033C486.7 436.734 489.248 437.062 491.602 437.988C491.916 438.165 492.453 437.655 492.341 437.043H493.33C493.999 438.808 495.223 438.185 496.213 437.555C496.956 437.083 497.476 436.781 498.209 437.46C499.406 438.569 500.894 437.808 502.232 438.032H505.199C505.663 439.937 507.193 438.644 508.167 439.021C508.098 439.932 508.708 440.01 509.381 440.01C511.614 440.01 513.847 440.01 516.08 440.01C516.043 440.122 516.034 440.243 516.053 440.36C516.073 440.477 516.121 440.588 516.193 440.682C516.265 440.777 516.359 440.852 516.467 440.902C516.575 440.952 516.693 440.976 516.812 440.97C520.604 441.071 524.36 441.747 527.949 442.976L527.952 443.433C530.867 444.208 533.845 444.717 536.852 444.954C538.261 447.319 540.599 446.9 542.786 446.932C542.825 447.413 543.03 447.867 543.366 448.214C543.702 448.561 544.149 448.781 544.629 448.835C545.426 448.732 546.237 448.832 546.985 449.127C547.733 449.422 548.394 449.902 548.905 450.523C549.608 451.381 550.759 450.709 551.689 450.887C552.125 451.527 552.717 452.044 553.41 452.39C554.102 452.736 554.872 452.9 555.645 452.865L555.648 453.312C557.374 453.573 558.747 454.977 560.591 454.843C563.523 457.137 566.887 458.818 570.482 459.787C572.257 462.311 574.928 461.701 577.406 461.765C579.074 460.848 580.446 459.476 581.363 457.809C583.284 456.707 586.284 457.76 587.298 454.843C587.433 454.87 587.574 454.864 587.707 454.824C587.839 454.784 587.96 454.712 588.058 454.614C588.156 454.516 588.228 454.396 588.268 454.263C588.308 454.13 588.314 453.99 588.287 453.854C589.975 453.933 591.689 454.064 592.243 451.876C593.007 452.049 593.802 452.034 594.559 451.832C595.316 451.63 596.013 451.247 596.589 450.716C597.82 449.587 599.824 450.676 600.361 449.122C601.041 447.152 603.634 448.927 604.112 446.932C605.332 445.229 607.483 445.078 609.058 443.966C610.43 443.668 611.772 444.226 613.263 443.372C615.775 441.841 618.63 440.962 621.569 440.816C621.691 440.813 621.801 440.291 621.917 440.01C622.996 439.974 624.065 439.794 625.096 439.474C626.824 438.448 628.812 437.947 630.819 438.032L632.797 437.043C635.205 437.479 637.238 435.31 639.69 436.055C641.106 434.564 643.263 435.537 644.873 434.435C646.522 433.305 648.732 434.831 650.402 433.726C652.219 432.523 654.151 433.428 655.983 433.063C656.562 432.947 656.715 431.965 657.526 432.099H659.504C665.461 432.553 671.27 430.457 677.249 431.057C677.89 431.121 678.605 430.451 679.287 430.121H682.254C682.972 432.222 685.185 431.309 685.693 430.902C687.179 429.712 688.694 430.35 690.167 430.121H696.102C696.032 431.045 696.656 431.109 697.328 431.11C700.217 431.11 703.105 431.11 705.993 431.11C706.362 431.313 706.746 431.494 707.096 431.725C707.99 432.314 708.719 432.466 708.961 431.11C710.357 430.633 711.115 432.263 712.471 432.131C713.926 431.989 715.405 432.099 716.874 432.099H719.841C719.806 432.216 719.8 432.34 719.824 432.461C719.848 432.581 719.9 432.694 719.977 432.789C720.054 432.885 720.153 432.961 720.265 433.01C720.377 433.059 720.5 433.08 720.622 433.071C726.389 433.44 732.097 434.44 737.646 436.054H739.624C739.965 436.706 740.495 437.24 741.144 437.587C741.794 437.933 742.533 438.075 743.264 437.994C745.392 437.964 747.509 438.312 749.515 439.02C750.077 439.439 750.715 439.741 751.395 439.911C752.074 440.081 752.78 440.114 753.472 440.009C753.36 440.618 753.768 441.037 754.224 440.966C756.229 440.652 757.716 441.949 759.452 442.439C762.048 443.172 762.995 446.494 766.145 446.347C766.823 446.316 767.455 447.522 767.373 448.676C767.32 449.438 766.683 450.727 768.308 450.887C768.308 451.672 768.478 452.48 767.65 453.047C766.988 453.5 767.442 454.243 767.319 454.842C767.319 456.284 767.37 457.728 767.307 459.167C767.227 460.991 767.719 462.876 766.406 464.582C766.112 464.964 765.712 466.559 767.319 466.708V472.641C767.203 472.603 767.078 472.595 766.958 472.617C766.837 472.639 766.724 472.691 766.628 472.768C766.532 472.844 766.457 472.944 766.409 473.057C766.362 473.17 766.343 473.293 766.354 473.415C767.059 480.706 765.109 487.856 765.257 495.137C765.933 499.605 765.635 504.166 764.383 508.507C764.256 508.81 764.235 509.147 764.323 509.464C764.411 509.781 764.603 510.058 764.868 510.253C765.458 510.708 765.636 511.44 765.093 511.896C763.824 512.962 764.444 514.319 764.378 515.544C764.273 517.344 764.273 519.149 764.378 520.95C764.483 522.651 762.447 524.339 764.353 526.033C762.44 529.352 763.709 532.973 763.38 536.443C763.273 537.58 763.363 538.736 763.363 539.883V540.872C762.435 540.801 762.375 541.43 762.375 542.102C762.374 545.318 762.374 548.534 762.375 551.749C761.096 551.749 761.411 552.715 761.395 553.427C761.363 554.852 760.849 556.636 761.507 557.623C762.581 559.234 760.971 560.327 761.386 561.638V562.627C761.899 563.914 760.35 564.58 760.429 565.662C760.521 566.922 759.94 568.242 760.779 569.449C761.666 570.726 759.499 571.86 760.559 573.145C760.73 573.351 761.105 573.389 761.386 573.504C761.377 574.568 761.208 575.624 760.882 576.637C760.332 577.523 760.084 578.564 760.175 579.604C760.266 580.643 760.69 581.626 761.386 582.404C761.251 584.348 761.844 586.378 760.444 588.173C760.116 588.593 760.499 589.391 761.386 589.326V590.315C761.519 591.89 760.71 593.874 761.761 594.959C763.293 596.541 761.357 597.155 761.386 598.225C761.25 598.198 761.109 598.204 760.976 598.244C760.844 598.283 760.723 598.356 760.625 598.454C760.527 598.552 760.455 598.672 760.415 598.805C760.375 598.938 760.369 599.078 760.396 599.214C759.246 599.214 758.095 599.235 756.945 599.21C754.099 599.149 753.543 598.761 753.527 595.901C753.195 594.075 752.719 592.279 752.101 590.53C752.065 590.293 751.478 590.822 751.494 591.303H749.516C748.548 591.345 748.194 590.485 747.713 589.937C747.07 589.205 746.328 589.335 745.559 589.325H742.592C742.626 589.209 742.633 589.085 742.609 588.966C742.586 588.846 742.535 588.734 742.459 588.639C742.383 588.544 742.286 588.468 742.174 588.419C742.063 588.369 741.942 588.347 741.82 588.355C739.697 588.31 737.574 588.31 735.45 588.355C735.328 588.347 735.207 588.369 735.096 588.419C734.984 588.468 734.887 588.544 734.811 588.639C734.735 588.734 734.684 588.846 734.661 588.966C734.638 589.085 734.644 589.209 734.678 589.325H733.689C733.725 589.208 733.731 589.083 733.708 588.963C733.685 588.842 733.632 588.729 733.555 588.634C733.478 588.538 733.379 588.462 733.267 588.413C733.154 588.365 733.031 588.344 732.909 588.353C722.878 588.33 712.848 588.33 702.818 588.353C702.695 588.344 702.572 588.365 702.46 588.413C702.347 588.462 702.248 588.538 702.171 588.634C702.094 588.729 702.042 588.842 702.019 588.963C701.995 589.083 702.002 589.208 702.037 589.325H700.059C698.153 589.325 696.247 589.325 694.341 589.325C693.668 589.325 693.067 589.412 693.135 590.314H691.157C689.251 590.314 687.345 590.314 685.439 590.314C684.766 590.314 684.165 590.401 684.233 591.303H680.276C678.264 591.595 676.27 592.003 674.304 592.525C672.689 592.73 670.947 593.021 669.269 593.334C667.48 593.359 665.764 594.044 664.45 595.259C662.856 595.259 661.261 595.239 659.667 595.264C658.725 595.218 657.784 595.37 656.905 595.71C656.025 596.05 655.226 596.569 654.559 597.236C653.422 597.325 652.279 597.311 651.144 597.195C649.891 597.128 648.653 597.491 647.635 598.225C646.943 598.12 646.237 598.154 645.558 598.323C644.878 598.493 644.24 598.796 643.678 599.214H642.689C640.018 598.946 637.325 599.448 634.93 600.661C634.256 601.054 633.476 601.228 632.699 601.158C630.647 601 628.592 601.415 626.762 602.356C625.442 602.788 624.077 603.067 622.694 603.186C622.573 603.18 622.451 603.202 622.34 603.252C622.229 603.302 622.132 603.377 622.056 603.473C621.98 603.568 621.927 603.68 621.903 603.799C621.879 603.918 621.884 604.042 621.917 604.159C620.944 604.535 619.414 603.242 618.95 605.147C617.361 605.147 615.771 605.17 614.183 605.141C613.377 605.053 612.563 605.193 611.832 605.543C611.101 605.894 610.483 606.442 610.048 607.125C609.582 607.017 609.095 607.05 608.649 607.221C608.202 607.391 607.817 607.691 607.543 608.083C606.816 606.729 606.196 607.773 605.406 608.071C604.058 608.857 602.507 609.228 600.948 609.137C599.706 608.898 598.575 609.652 597.424 609.944C595.58 610.751 593.601 611.201 591.589 611.272C591.51 611.262 591.367 611.791 591.254 612.069C589.993 611.586 589.338 612.916 588.286 613.058C586.443 612.924 585.07 614.328 583.343 614.589L583.341 615.036H582.351C580.656 614.503 579.299 615.67 577.86 616.111C575.229 616.555 572.717 617.535 570.482 618.992C569.708 618.957 568.939 619.12 568.247 619.467C567.554 619.813 566.962 620.33 566.525 620.97L564.547 621.958C562.625 623.061 559.626 622.008 558.612 624.925C557.839 624.89 557.069 625.053 556.377 625.4C555.684 625.746 555.092 626.263 554.656 626.903C553.906 627.052 552.762 626.412 552.677 627.891C550.563 628.58 548.562 629.58 546.743 630.858C545.492 631.741 543.662 631.853 542.707 633.778C543.79 633.926 544.892 633.829 545.933 633.495C546.974 633.161 547.926 632.598 548.721 631.847C551.847 631.422 554.867 630.416 557.623 628.88C560.101 628.817 562.772 629.427 564.547 626.903H568.504C570.392 627.07 571.908 625.206 573.896 625.914C574.993 624.339 577.184 625.252 578.395 623.936H580.373C582.1 624.015 583.823 623.707 585.417 623.037C587.07 622.307 589.303 623.737 590.875 621.958C593.342 622.64 595.479 620.695 597.842 621.01C600.311 621.339 602.356 619.403 604.826 619.958C605.463 620.101 606.167 619.962 606.091 618.992H608.069C607.958 619.58 608.487 620.096 608.769 619.936C611.05 618.997 613.536 618.672 615.982 618.992H616.971C618.603 619.433 619.848 618.123 621.345 618.018C623.071 617.897 624.806 617.908 626.534 617.8C626.659 617.792 626.754 617.288 626.862 617.014H628.841C631.401 617.014 633.962 617.014 636.522 617.014C637.195 617.014 637.813 616.943 637.743 616.025H644.652C646.296 616.025 647.947 616.122 649.581 615.996C650.954 615.89 652.462 616.933 653.392 616.502C654.928 616.039 656.54 615.887 658.135 616.054C659.769 615.928 661.43 616.14 663.061 615.996C665.077 615.819 667.236 616.739 669.12 615.101C669.484 614.913 669.899 614.849 670.302 614.916C670.706 614.984 671.077 615.18 671.36 615.476C671.688 615.804 672.132 615.99 672.596 615.994C674.192 616.166 675.807 616.026 677.35 615.582C678.661 614.966 680.405 617.188 681.815 615.116C682.165 614.914 682.57 614.83 682.971 614.876C683.372 614.921 683.747 615.094 684.043 615.369C684.969 616.441 686.157 615.988 687.233 616.005C690.848 616.06 694.464 616.026 698.08 616.026C698.045 616.141 698.039 616.263 698.061 616.382C698.083 616.5 698.134 616.612 698.208 616.707C698.282 616.802 698.379 616.878 698.488 616.928C698.598 616.978 698.718 617.001 698.839 616.995C702.074 617.144 705.316 617.129 708.55 616.951C711.775 616.66 714.648 618.734 717.863 618.003C719.981 617.498 721.681 619.497 723.798 618.992C723.767 619.109 723.763 619.232 723.788 619.35C723.812 619.469 723.864 619.58 723.939 619.675C724.014 619.77 724.11 619.846 724.22 619.897C724.329 619.948 724.449 619.973 724.57 619.97C727.915 620.489 731.221 621.235 734.465 622.202C737.809 623.087 741.229 623.915 744.57 624.925C745.622 625.068 746.277 626.398 747.537 625.914C748.744 627.463 750.634 627.159 752.365 627.726C750.88 627.233 752.293 625.064 750.505 624.925C750.522 623.628 750.266 622.342 749.755 621.149C749.244 619.957 748.489 618.885 747.537 618.003C747.56 615.748 745.705 614.62 744.57 613.059L742.592 610.092C742.348 607.822 741.295 605.716 739.624 604.159C739.815 603.232 739.729 602.269 739.378 601.39C739.026 600.511 738.424 599.755 737.646 599.215V595.26C738.891 595.32 740.11 595.002 741.175 596.244C743.208 598.614 745.893 600.442 746.726 603.751C746.839 604.145 747.074 604.493 747.398 604.744C747.722 604.995 748.117 605.137 748.527 605.148C749.64 606.722 749.79 608.873 751.494 610.092C751.466 610.228 751.473 610.369 751.512 610.501C751.552 610.634 751.624 610.755 751.722 610.853C751.82 610.951 751.941 611.023 752.074 611.063C752.207 611.103 752.347 611.109 752.483 611.081C752.555 612.714 753.048 614.301 753.915 615.687C754.782 617.074 755.992 618.212 757.429 618.992C757.025 620.497 758.094 621.323 759.041 622.025C760.085 622.799 758.371 624.725 760.396 624.925C760.545 625.675 759.906 626.818 761.385 626.903C761.542 628.425 761.604 629.955 761.572 631.485C761.611 632.579 761.335 633.661 760.775 634.602C760.216 635.543 759.398 636.303 758.418 636.792H756.44C756.551 636.205 756.142 635.761 755.725 635.839C754.823 635.96 753.905 635.891 753.031 635.636C752.158 635.381 751.347 634.945 750.652 634.358C749.573 633.579 748.564 634.007 747.537 633.825C747.605 632.927 747.009 632.838 746.335 632.835C745.729 632.923 745.111 632.884 744.52 632.721C743.929 632.558 743.378 632.275 742.902 631.889C741.355 630.866 739.465 630.495 737.646 630.858C736.708 630.039 735.602 629.437 734.405 629.095C733.208 628.753 731.95 628.68 730.722 628.88C730.615 628.608 730.588 628.217 730.388 628.082C728.038 626.933 725.396 626.522 722.809 626.903C722.694 626.624 722.552 626.092 722.469 626.101C719.737 626.405 717.305 624.674 714.602 624.94C713.121 625.086 712.244 623.514 710.578 623.843C709.306 624.094 707.627 624.561 706.562 623.021C702.915 623.352 699.237 622.991 695.723 621.959C693.871 624.341 692.02 621.724 690.168 621.959H677.309C670.636 621.959 663.963 621.95 657.29 621.972C656.577 621.974 655.557 621.612 655.547 622.948C654.379 623.43 653.244 624.926 651.997 622.977C651.857 622.759 651.082 622.948 650.602 622.948C643.991 622.566 637.359 622.897 630.819 623.936H616.642C614.742 625.808 612.353 624.52 610.231 624.939C607.993 625.62 605.664 625.958 603.325 625.941C601.865 625.837 600.401 625.835 598.942 625.934C598.821 625.928 598.701 625.951 598.591 626.001C598.481 626.051 598.384 626.126 598.31 626.221C598.235 626.316 598.184 626.428 598.161 626.546C598.138 626.665 598.144 626.787 598.178 626.903C595.434 626.383 593.009 628.412 590.265 627.892C588.389 627.823 586.52 628.139 584.771 628.82C582.882 629.463 580.8 628.318 578.719 629.708C577.365 630.407 575.859 630.758 574.335 630.73C568.99 631.417 563.725 632.628 558.616 634.343L558.613 634.814C556.865 634.65 555.483 636.311 553.667 635.803C550.406 635.59 547.382 637.316 544.099 636.995C544.017 636.987 543.885 637.507 543.776 637.781C543.183 637.654 542.564 637.753 542.041 638.06C541.518 638.367 541.129 638.858 540.95 639.437C541.878 640.022 542.853 639.647 543.776 639.758C545.937 639.073 547.707 640.747 549.755 640.747C552.048 640.747 554.342 640.747 556.635 640.747H557.624C562.61 640.484 567.448 642.428 572.461 641.736C572.427 641.852 572.42 641.975 572.443 642.094C572.465 642.213 572.516 642.325 572.591 642.42C572.666 642.515 572.763 642.591 572.873 642.641C572.984 642.69 573.104 642.713 573.225 642.706C578.087 642.156 583.01 642.828 587.546 644.661C587.87 644.835 588.4 644.326 588.287 643.714C592.198 644.388 596.159 644.72 600.127 644.706C600.286 644.679 600.54 644.633 600.604 644.713C602.353 646.9 604.989 644.805 606.925 646.031C609.176 647.456 611.657 646.333 614.005 646.68H614.993C614.881 647.303 615.258 647.58 615.773 647.658C616.539 647.774 617.32 647.492 618.035 648.187C618.936 649.061 619.571 646.897 620.337 647.702C622.008 649.457 624.043 648.31 625.874 648.658H626.863C626.802 649.515 627.351 649.651 628.026 649.648C628.957 649.644 629.888 649.647 630.819 649.647C630.786 649.761 630.781 649.881 630.803 649.998C630.825 650.115 630.874 650.225 630.947 650.319C631.019 650.414 631.113 650.489 631.22 650.541C631.328 650.592 631.445 650.617 631.564 650.615C632.683 650.681 634.082 650.211 634.875 650.722C636.527 651.623 638.44 651.926 640.29 651.58C642.215 651.441 643.714 653.12 645.656 652.613H646.645C646.581 653.49 647.153 653.604 647.827 653.603C649.082 653.601 650.336 653.601 651.591 653.603C651.525 654.494 652.113 654.593 652.787 654.592C654.366 654.591 655.946 654.591 657.525 654.592C658.325 655.312 659.265 655.86 660.287 656.2C661.308 656.54 662.388 656.666 663.46 656.57H664.45C664.565 656.85 664.644 657.352 664.803 657.379C668.158 657.952 671.468 658.714 674.788 659.456C677.158 660.395 679.716 660.761 682.254 660.525C682.142 661.126 682.509 661.402 683.001 661.507C687.898 662.929 692.982 663.598 698.08 663.491C698.016 664.368 698.588 664.482 699.262 664.481C700.517 664.479 701.771 664.478 703.026 664.48C702.991 664.598 702.986 664.722 703.01 664.842C703.034 664.962 703.087 665.075 703.164 665.17C703.241 665.266 703.34 665.341 703.452 665.39C703.565 665.438 703.687 665.459 703.81 665.45C705.29 665.502 707.214 664.897 708.146 665.613C709.319 666.514 710.824 664.756 711.475 666.457C714.167 665.913 716.719 667.533 719.601 666.61C721.547 665.986 722.896 665.734 722.833 663.408C722.808 662.471 723.635 661.755 724.022 660.955C724.581 659.028 725.513 657.229 726.765 655.66C726.062 653.486 727.73 651.702 727.754 649.647C729.648 649.332 728.657 647.86 728.685 646.968C728.742 645.179 729.143 643.931 731.175 643.68C731.733 643.61 731.895 642.596 732.7 642.725C734.516 642.217 735.898 643.878 737.645 643.714C739.268 644.437 740.359 646.491 742.591 645.692C742.479 646.302 742.855 646.547 743.352 646.678C744.138 646.793 744.866 647.159 745.426 647.721C745.987 648.284 746.35 649.013 746.462 649.8C747.143 653.028 747.52 656.312 747.588 659.61C747.3 661.512 747.711 663.515 747.476 665.432C747.316 666.736 748.369 667.379 748.525 668.435C747.627 668.368 747.535 668.964 747.536 669.637C747.537 671.696 748.194 674.109 747.335 675.707C746.605 677.067 747.585 677.487 747.536 678.323C746.197 678.333 746.564 679.356 746.56 680.068C746.535 684.957 746.549 689.845 746.545 694.734C746.712 695.693 746.679 696.675 746.446 697.62C745.135 700.439 744.474 703.515 744.511 706.623C744.415 708.017 743.788 709.321 742.759 710.266C741.098 711.86 739.354 713.367 737.645 714.911C736.872 714.876 736.102 715.039 735.41 715.385C734.717 715.731 734.125 716.249 733.689 716.888C732.956 716.858 732.255 716.995 731.596 716.339C730.843 715.589 729.995 715.491 729.732 716.888H727.754L727.752 716.433C725.151 715.752 722.508 715.243 719.841 714.91C719.731 714.636 719.636 714.13 719.51 714.123C717.782 713.946 716.044 713.893 714.309 713.962C712.39 714.118 710.897 712.427 708.96 712.933H707.971C707.967 712.54 707.835 712.159 707.596 711.847C707.357 711.535 707.024 711.309 706.646 711.202C704.039 711.19 701.723 709.505 699.069 709.966H698.08C698.147 709.068 697.551 708.979 696.878 708.976C696.271 709.064 695.653 709.025 695.062 708.862C694.472 708.7 693.921 708.417 693.445 708.031C691.897 707.007 690.008 706.636 688.188 706.999C686.782 705.94 685.125 705.266 683.379 705.044C679.316 704.822 675.289 704.151 671.373 703.044C670.442 703.044 669.51 703.041 668.579 703.045C667.904 703.048 667.355 702.912 667.416 702.055C667.303 701.777 667.237 701.289 667.068 701.251C663.745 700.752 660.466 699.99 657.264 698.97C654.132 697.691 650.807 697.382 647.648 696.278C645.478 695.166 643.13 694.443 640.71 694.144H638.732C638.809 693.17 638.13 693.182 637.46 693.151C636.335 693.1 634.879 693.455 634.148 692.886C631.363 690.723 627.858 691.425 624.884 690.188C622.681 689.207 620.35 688.541 617.96 688.211C615.499 688.956 613.452 686.8 611.037 687.222C611.025 686.812 610.883 686.417 610.632 686.093C610.381 685.769 610.033 685.534 609.639 685.42C605.971 684.454 602.359 683.245 598.679 682.412C597.096 681.838 595.437 681.501 593.755 681.414C591.699 681.612 590.196 680.13 588.286 680.299C587.214 680.396 586.134 680.27 585.113 679.93C584.091 679.59 583.152 679.042 582.352 678.322C582.428 677.348 581.732 677.439 581.082 677.317C577.707 676.863 574.371 676.156 571.103 675.202C569.956 674.744 568.746 674.462 567.514 674.366C566.765 674.217 565.62 674.857 565.536 673.378C565.427 673.104 565.334 672.6 565.207 672.591C563.641 672.449 562.069 672.389 560.497 672.413C558.774 672.475 557.449 670.813 555.645 671.4C553.034 669.555 549.937 668.523 546.743 668.433C545.769 668.057 544.239 669.35 543.775 667.444C543.775 667.284 543.828 667.008 543.768 666.981C541.206 665.827 538.203 665.701 536.048 663.536C535.714 663.201 534.803 663.558 534.873 664.478C533.293 664.478 531.714 664.478 530.134 664.478C529.461 664.478 528.872 664.575 528.938 665.467C528.802 665.439 528.662 665.445 528.529 665.485C528.396 665.525 528.275 665.597 528.177 665.695C528.079 665.793 528.007 665.914 527.967 666.047C527.927 666.179 527.921 666.32 527.949 666.456C523.946 667.104 520.19 668.811 517.068 671.4C516.469 671.523 515.726 671.069 515.273 671.731C514.707 672.558 513.897 672.388 513.112 672.389C511.538 673.502 509.386 673.652 508.166 675.355C505.481 675.542 505.481 675.542 500.253 679.311L495.308 681.288C494.38 681.098 493.417 681.184 492.538 681.535C491.659 681.887 490.902 682.489 490.362 683.266C486.833 683.909 483.469 685.254 480.471 687.222C480.335 687.194 480.194 687.2 480.061 687.24C479.929 687.28 479.808 687.352 479.71 687.45C479.612 687.548 479.54 687.669 479.5 687.801C479.46 687.934 479.454 688.075 479.481 688.21C478.708 688.176 477.939 688.339 477.246 688.685C476.554 689.031 475.961 689.549 475.525 690.188L473.547 691.177C471.791 691.014 470.401 692.664 468.574 692.17C467.968 692.007 467.751 692.575 467.402 692.874C466.148 693.951 464.904 695.038 463.655 696.121H462.666C461.739 695.931 460.776 696.016 459.896 696.368C459.017 696.72 458.261 697.322 457.72 698.099C453.66 698.55 449.849 700.281 446.84 703.043C443.925 703.714 441.212 705.07 438.927 706.999C437.239 706.92 435.524 706.788 434.97 708.977C432.906 709.343 430.907 710.009 429.036 710.954C427.461 712.067 425.31 712.217 424.09 713.921L422.112 714.91C421.184 714.719 420.221 714.805 419.342 715.156C418.463 715.508 417.706 716.11 417.166 716.887C416.392 716.853 415.623 717.016 414.931 717.362C414.238 717.708 413.646 718.226 413.209 718.865C412.282 718.674 411.319 718.76 410.44 719.112C409.561 719.463 408.804 720.065 408.264 720.843C406.966 720.826 405.68 721.081 404.487 721.592C403.295 722.103 402.222 722.858 401.34 723.809H400.352C399.578 723.775 398.809 723.938 398.116 724.284C397.424 724.63 396.831 725.148 396.395 725.787C395.468 725.596 394.505 725.682 393.625 726.034C392.746 726.385 391.99 726.987 391.449 727.765C389.578 728.71 387.579 729.376 385.515 729.742C385.188 729.696 384.856 729.7 384.531 729.756C381.097 730.858 377.412 730.905 373.952 729.892C370.623 729.308 368.708 726.631 365.732 725.787C365.904 725.235 365.855 724.638 365.595 724.122C365.335 723.605 364.885 723.21 364.339 723.019C363.655 722.892 363.025 722.56 362.534 722.067C362.042 721.575 361.711 720.945 361.584 720.261C361.475 719.867 361.242 719.52 360.92 719.268C360.599 719.017 360.205 718.876 359.797 718.865C359.797 718.373 360.003 717.716 359.763 717.418C358.518 715.872 357.159 714.418 355.841 712.932V711.943L354.851 709.907C354.419 708.464 353.721 707.115 352.794 705.927C351.48 704.799 352.802 702.662 350.895 702.054C350.825 700.669 350.528 699.304 350.015 698.016C349.741 695.903 349.71 693.766 349.921 691.646C349.993 689.414 348.646 687.522 348.824 685.164C349.183 680.387 349.121 675.612 349.712 670.804C350.211 666.749 350.957 662.815 351.801 658.845C352.13 657.295 352.91 657.546 353.818 657.574C354.431 657.592 355.126 657.277 355.841 658.059C355.841 659.15 355.803 660.439 355.86 661.723C355.852 661.844 355.874 661.966 355.923 662.077C355.972 662.189 356.048 662.287 356.143 662.363C356.238 662.439 356.35 662.491 356.47 662.515C356.589 662.539 356.713 662.533 356.83 662.499V664.477C355.888 664.404 355.595 665.197 355.888 665.692C356.728 667.107 357.594 668.381 355.972 669.823C355.88 669.95 355.822 670.098 355.803 670.253C355.784 670.408 355.805 670.566 355.863 670.711C357.725 673.325 356.461 676.284 356.818 679.058C356.904 679.719 356.878 680.372 357.819 680.299C357.819 684.865 357.82 689.431 357.823 693.997C357.697 694.698 357.716 695.417 357.879 696.11C358.042 696.803 358.345 697.455 358.77 698.026C358.99 698.258 359.337 699.001 359.353 698.949C359.878 697.147 362.481 699.22 362.765 697.109H364.743C368.275 697.21 371.233 695.035 374.632 694.598L374.635 694.142C374.719 692.663 375.863 693.303 376.613 693.154C378.457 693.288 379.83 691.884 381.556 691.622L381.559 691.176L386.504 689.198C388.348 689.332 389.721 687.928 391.447 687.667L391.45 687.22C391.534 685.741 392.678 686.38 393.428 686.232C397.075 686.059 400.559 684.666 403.32 682.276C407.15 681.604 410.832 680.265 414.2 678.321C415.009 678.321 416.111 678.661 416.577 678.261C418.545 676.577 421.177 676.894 423.331 675.723C425.554 674.513 428.233 674.126 430.498 673.129C432.374 672.304 435.125 672.041 435.961 669.42H436.95C438.042 669.424 439.126 669.229 440.149 668.846C441.99 667.465 444.167 666.602 446.454 666.346C446.699 665.036 448.83 666.109 448.819 664.476C452.09 663.989 455.168 662.622 457.722 660.521C459.411 660.598 461.094 660.28 462.64 659.594C464.185 658.907 465.549 657.87 466.624 656.565C467.884 657.049 468.54 655.719 469.591 655.576C470.519 655.767 471.482 655.681 472.361 655.33C473.24 654.978 473.997 654.376 474.537 653.599C476.643 653.24 478.695 652.618 480.645 651.746C481.667 651.017 482.891 650.625 484.147 650.625C484.816 650.655 485.494 650.615 485.418 649.643L487.396 648.654C490.637 648.799 493.137 646.3 496.297 646.142L496.297 645.691ZM298.27 600.532C304.771 600.108 311.297 600.335 317.753 601.209C318.858 601.228 319.943 600.91 320.863 600.298C321.941 599.617 322.782 601.706 324.372 601.277C325.785 600.822 327.311 600.872 328.69 601.42C330.361 602.34 331.475 600.946 332.934 601.035C334.469 601.128 335.381 602.513 336.974 602.235C338.45 602.091 339.936 602.074 341.415 602.182C342.898 602.182 344.771 601.619 345.774 602.312C347.327 603.385 348.281 601.957 349.5 602.175C351.822 602.59 354.305 601.379 356.547 603.117C357.465 603.83 358.346 601.297 359.431 602.411C360.449 603.455 361.528 603.073 362.608 603.164C368.754 602.713 374.932 603.038 380.996 604.13C381.463 604.188 381.935 604.087 382.338 603.844C382.748 603.651 382.962 602.919 383.536 603.186C387.927 604.285 392.476 604.611 396.979 604.148C397.951 604.249 399.089 603.887 399.894 604.273C404.887 606.669 410.502 603.597 415.441 606.137C418.464 604.297 421.482 605.912 424.512 605.932C428.904 605.959 433.105 607.202 437.45 607.131C439.258 607.253 441.072 607.227 442.875 607.052C444.481 606.754 445.875 609.457 447.457 607.248C447.875 607.765 448.456 608.123 449.106 608.264C449.755 608.404 450.432 608.318 451.026 608.021C452.503 607.581 453.351 610.397 454.855 608.517C456.303 606.708 456.802 609.639 458.261 609.204C459.843 608.689 461.549 608.691 463.131 609.209C466.59 610.201 470.154 610.787 473.749 610.955C475.94 611.125 478.11 611.51 480.226 612.107C481.87 612.586 483.548 612.939 485.246 613.162C488.619 613.596 491.944 614.343 495.178 615.395C497.132 616.58 499.277 617.416 501.518 617.864C505.821 618.385 509.977 619.759 513.742 621.906C517.374 623.472 521.178 624.654 524.952 625.865C525.708 626.108 527.359 626.285 526.867 624.712C526.482 623.485 528.561 622.937 527.357 621.886C525.614 620.366 527.931 619.667 528.109 618.522C528.545 614.336 530.327 610.404 533.188 607.317C533.515 606.991 533.994 606.756 533.893 606.125C533.566 604.094 535.074 602.619 535.516 600.89C536.241 598.059 538.955 595.747 537.84 592.441C539.539 590.756 538.169 588.333 539.172 586.573C541.103 583.187 541.237 579.157 543.088 575.847C544.022 574.18 543.277 572.626 543.833 571.195C544.625 569.887 545.274 568.498 545.771 567.052C546.533 563.459 547.689 559.961 549.217 556.62C550.898 553.333 552.122 549.831 552.855 546.212C553.185 543.576 555.047 541.112 554.875 538.196C554.869 538.087 555.075 537.934 555.212 537.851C556.727 536.943 556.355 535.386 556.712 534.009C557.02 531.565 557.667 529.177 558.634 526.912C559.411 525.899 559.756 524.621 559.595 523.355C559.332 522.131 560.311 521.293 560.5 520.287C560.686 519.297 561.709 518.885 561.634 517.744C561.51 515.871 561.093 513.815 562.586 512.242C564.014 510.736 563.552 508.704 564.158 506.961C565.785 503.214 566.599 499.164 566.547 495.079C566.62 494.006 566.87 492.952 567.287 491.961C568.451 488.402 569.191 484.718 569.492 480.986C569.492 479.416 569.067 477.876 568.263 476.527C567.557 475.21 565.126 473.363 567.41 471.19C567.869 470.753 567.283 470.087 566.926 469.514C566.25 468.428 564.874 468.832 564.1 467.829C563.509 466.984 562.751 466.27 561.872 465.732C560.993 465.193 560.013 464.842 558.993 464.698C556.781 464.423 555.745 461.642 553.297 461.788C552.895 461.82 552.492 461.746 552.128 461.573C551.763 461.4 551.451 461.134 551.223 460.802C550.369 459.88 549.338 459.14 548.192 458.627C547.045 458.114 545.806 457.838 544.55 457.817C543.925 457.742 543.339 457.845 542.763 457.328C538.857 454.918 534.624 453.085 530.195 451.883C526.567 450.618 522.859 449.597 519.094 448.828C517.845 448.177 516.442 447.877 515.036 447.962C513.582 448.273 512.858 446.742 511.477 446.894C510.192 447.035 508.493 447.367 507.643 446.728C505.554 445.158 503.096 446.03 500.842 445.181C497.954 444.478 494.947 444.424 492.035 445.021C488.902 445.357 486.158 443.453 483.037 443.922C481.395 444.057 479.744 444.072 478.099 443.965H463.268C461.627 444.116 459.975 444.092 458.34 443.892C456.529 443.487 455.178 445.801 453.862 444.852C452.185 443.642 451.049 445.07 449.662 445.035C446.629 444.747 443.569 444.994 440.622 445.764C438.87 446.421 437.026 446.797 435.157 446.877C430.799 446.82 426.601 448.034 422.218 448.094C418.093 448.992 413.912 449.61 409.704 449.942C407.807 450.979 405.714 451.609 403.56 451.791C401.436 452.354 399.279 452.786 397.102 453.083C395.048 453.266 393.147 454.246 391.806 455.814C390.78 457.678 389.096 459.094 387.083 459.786C386.797 461.566 384.686 461.6 384.024 462.839C382.658 465.805 380.875 468.56 378.728 471.02C379.777 473.539 376.515 474.234 376.433 476.563C376.377 478.163 374.201 479.592 373.754 481.301C372.984 483.164 371.938 484.901 370.651 486.454C368.881 489.711 366.881 492.839 364.667 495.813C362.832 498.157 361.146 500.613 359.62 503.169C358.153 505.553 356.088 507.479 354.855 509.984C353.165 513.42 350.85 516.468 349.196 519.985C347.805 522.944 345.465 525.628 343.687 528.564C342.099 530.485 340.746 532.588 339.654 534.828C338.829 537.376 335.645 538.557 335.791 541.633C331.51 548.029 328.065 554.914 324.25 561.579C321.038 567.191 317.742 572.741 314.295 578.207C311.85 581.407 309.678 584.807 307.802 588.371C307.625 588.792 307.081 589.045 306.784 589.434C304.355 592.659 301.671 595.684 298.759 598.481C298.488 598.736 298.539 599.331 298.27 600.532ZM761.385 450.064C759.48 450.184 757.568 450.011 755.716 449.549C749.562 447.184 743.246 445.263 736.818 443.8C734.449 443.106 731.7 443.756 729.693 441.972C727.915 440.391 725.554 440.998 723.517 440.155C721.222 439.205 718.465 440.069 715.85 439.687C713.604 439.139 711.293 438.9 708.982 438.974C707.94 439.103 706.716 439.436 705.793 438.356C705.694 438.224 705.566 438.119 705.417 438.048C705.269 437.978 705.106 437.945 704.942 437.952C704.778 437.96 704.618 438.007 704.477 438.09C704.335 438.173 704.216 438.289 704.13 438.428C703.829 438.817 703.391 439.077 702.906 439.156C702.421 439.234 701.924 439.126 701.515 438.852C700.211 437.548 698.735 438.039 697.365 438.067C686.284 437.78 675.195 438.051 664.141 438.878C659.746 439.887 655.229 440.268 650.727 440.01C649.033 441.16 646.606 440.287 645.302 441.147C641.784 443.469 637.158 442.022 633.99 444.954C631.631 444.767 629.269 445.273 627.194 446.41C625.112 447.376 622.915 448.072 620.656 448.48C618.551 448.949 616.54 449.769 614.709 450.908C613.898 451.338 613.049 451.691 612.172 451.964C608.886 452.804 605.79 454.265 603.052 456.267C601.915 457.038 600.649 457.599 599.314 457.923C597.048 458.351 594.894 459.236 592.981 460.524C589.555 463.693 585.525 466.139 581.132 467.715C579.273 468.356 577.97 469.303 578.321 471.778C578.536 474.24 578.555 476.716 578.377 479.181C578.491 479.973 578.362 480.781 578.008 481.499C576.368 485.037 575.506 488.885 575.479 492.785C575.182 494.989 575.967 497.447 573.45 498.878C573.699 500.22 572.266 500.937 572.382 502.428C572.147 507.861 570.967 513.213 568.896 518.242C567.523 521.714 566.733 525.39 566.558 529.12C566.608 529.603 566.525 530.089 566.32 530.528C566.114 530.967 565.793 531.342 565.39 531.612C565.078 531.865 564.835 532.192 564.684 532.564C564.533 532.936 564.478 533.341 564.526 533.739C564.522 535.68 561.956 537.182 563.53 539.418C561.778 541.117 563.194 544.309 560.608 545.647C560.474 545.717 560.546 546.28 560.598 546.601C560.707 547.161 560.644 547.741 560.419 548.265C560.194 548.789 559.816 549.234 559.336 549.541C559.062 549.718 558.847 549.972 558.717 550.27C558.587 550.569 558.549 550.899 558.606 551.22C558.639 553.096 558.135 554.943 557.153 556.542C556.335 558.345 557.209 560.889 554.819 562.043C554.595 562.151 554.654 562.945 554.664 563.419C554.442 565.884 553.632 568.261 552.301 570.348C550.849 573.395 549.93 576.646 548.548 579.662C547.873 581.135 548.69 582.69 548.265 583.107C547.271 584.322 546.603 585.771 546.326 587.317C544.891 591.024 543.75 594.839 542.913 598.725C542.465 601.63 541.749 604.488 540.773 607.261C539.876 610.508 539.553 613.886 539.82 617.243C540.337 620.727 539.678 624.284 537.946 627.351C537.87 627.564 537.849 627.793 537.884 628.017C537.92 628.24 538.012 628.451 538.151 628.63C538.266 628.743 538.405 628.828 538.558 628.879C538.712 628.93 538.874 628.944 539.034 628.921C539.194 628.899 539.346 628.839 539.479 628.748C539.612 628.657 539.722 628.536 539.801 628.395C542.236 625.71 545.299 623.672 548.717 622.463C549.295 622.272 549.855 622.032 550.392 621.746C556.416 617.792 562.784 614.39 569.419 611.58C569.973 611.3 570.574 611.128 571.191 611.071C573.765 610.637 576.249 609.782 578.545 608.542C580.264 607.543 582.08 606.723 583.964 606.092C587.111 605.415 590.179 604.385 593.306 603.61C596.569 602.123 600.094 601.297 603.679 601.18C604.145 601.186 604.606 601.073 605.018 600.853C607.214 600.005 608.947 597.397 611.81 598.937C614.02 596.759 616.829 597.252 619.509 597.259C620.132 597.187 620.72 596.933 621.198 596.528C623.745 594.971 626.665 594.13 629.65 594.094C631.335 594.004 632.992 593.621 634.547 592.962C638.343 591.065 642.556 590.154 646.797 590.313C646.959 590.331 647.166 590.38 647.285 590.306C650.249 588.458 654.331 590.351 656.965 587.415C658.969 587.962 660.548 586.219 662.459 586.372C666.339 586.681 670.012 584.75 673.917 585.358C674.384 585.371 674.847 585.255 675.253 585.023C677.436 584.255 679.67 583.64 681.939 583.181C684.026 583.064 686.073 582.561 687.977 581.698C690.309 583.844 692.422 581.293 694.692 581.345C699.193 581.762 703.732 581.481 708.147 580.514C710.104 580.221 712.09 580.192 714.054 580.427H725.919C727.881 580.658 729.865 580.618 731.816 580.31C733.53 580.118 735.262 580.16 736.964 580.432C741.24 580.076 745.539 580.738 749.51 582.363C750.818 582.936 751.648 582.237 751.453 580.662C750.887 576.097 753.02 571.771 752.501 567.227C752.405 566.762 752.496 566.278 752.753 565.879C753.989 564.805 753.193 563.405 753.502 562.21C753.808 561.024 752.365 560.641 752.499 559.649C752.643 558.585 753.815 557.893 753.498 556.59C753.008 554.581 755.195 552.53 753.472 550.497C755.481 547.514 754.039 544.172 754.438 541.019C754.582 539.885 753.978 538.261 754.554 537.65C756.159 535.945 754.644 533.698 755.798 532.203C757.461 530.049 755.632 528.344 755.469 526.435C755.386 525.465 755.098 524.116 755.595 523.569C756.935 522.099 756.361 520.48 756.409 518.938C756.51 515.646 756.41 512.349 756.457 509.055C756.384 507.949 756.618 506.845 757.134 505.864C757.913 504.487 759.82 502.664 757.478 500.873C759.906 500.027 757.456 498.427 758.041 497.024C759.308 493.986 757.617 490.365 759.307 487.159C759.51 486.773 758.017 485.695 758.439 484.664C759.521 479.937 759.844 475.067 759.395 470.238C759.476 469.257 758.991 467.849 759.486 467.352C760.921 465.91 760.339 464.279 760.355 462.741C760.373 460.971 761.646 459.583 761.448 457.708C761.297 455.163 761.276 452.611 761.385 450.064V450.064Z" fill="#212222"/>
<path d="M243.079 284.759C242.752 284.787 242.426 284.698 242.159 284.508C241.891 284.319 241.7 284.04 241.618 283.723C241.488 280.343 237.726 278.419 238.133 274.871C238.133 273.282 238.111 271.693 238.14 270.105C238.228 269.299 238.088 268.485 237.738 267.754C237.387 267.024 236.839 266.406 236.155 265.971V263.004C236.155 261.75 236.156 260.496 236.156 259.242C236.157 258.568 236.044 257.996 235.166 258.06C234.454 255.293 236.268 252.842 236.155 250.15L236.611 250.148C237.291 247.548 237.8 244.906 238.133 242.239C237.883 240.365 238.31 238.463 239.337 236.875C240.361 234.586 241.615 232.407 243.079 230.372C245.638 228.225 247.668 225.518 249.014 222.461C250.034 221.712 249.313 219.804 250.992 219.495C252.581 218.625 254.108 217.711 253.96 215.539C256.088 215.03 256.413 212.718 257.916 211.584C258.239 211.584 258.669 211.72 258.869 211.563C261.332 209.766 263.658 207.79 265.83 205.651C267.404 204.538 269.555 204.388 270.775 202.684C272.695 202.544 274.543 201.896 276.131 200.806C276.895 200.266 278.453 201.546 278.689 199.718C279.287 199.596 279.893 199.903 280.508 199.421C281.251 198.741 282.139 198.239 283.105 197.954C284.07 197.669 285.088 197.607 286.082 197.774C287.257 198.025 287.591 196.68 288.58 196.751C289.575 196.8 290.027 195.783 291.112 195.663C293.167 195.309 295.053 194.304 296.493 192.796H299.46C302.362 191.562 305.215 190.048 308.119 189.041C310.896 187.707 313.903 186.919 316.977 186.72C317.78 186.783 318.587 186.648 319.327 186.329C320.066 186.009 320.716 185.513 321.221 184.885C322.675 183.585 324.457 183.922 326.166 183.896C328.581 182.926 331.193 182.468 333.567 181.628C335.429 180.969 337.478 181.329 339.304 180.059C341.227 179.004 343.423 178.553 345.607 178.764C345.717 178.766 345.834 178.242 345.949 177.963H348.916C349.988 178.059 351.069 177.933 352.09 177.593C353.111 177.253 354.051 176.705 354.851 175.985H355.84C358.706 176.084 361.573 175.814 364.37 175.182C365.625 174.57 366.971 174.164 368.355 173.981C373.718 173.737 379.057 173.115 384.333 172.121C385.145 172.037 385.613 170.325 386.625 171.653C387.268 172.496 388.104 170.216 388.718 171.772C389.99 170.383 392.369 172.026 393.427 170.052C394.504 170.065 395.245 172.021 396.734 170.383C397.278 169.784 398.867 170.067 399.98 170.063C406.368 170.041 412.757 170.052 419.145 170.052C419.074 170.985 419.707 171.04 420.38 171.041C423.925 171.042 427.47 171.042 431.015 171.041C431.127 171.318 431.237 171.836 431.352 171.837C435.422 171.958 439.481 172.336 443.504 172.969C445.602 173.127 447.708 173.143 449.808 173.019C451.438 175.052 454.121 174.862 456.242 175.7C458.048 176.413 459.803 177.374 461.677 177.963C461.929 180.062 464.033 178.342 465.029 179.584C465.456 180.1 466.01 180.495 466.636 180.731C467.263 180.968 467.94 181.036 468.601 180.93C470.229 182.711 472.266 184.068 474.536 184.886C474.972 185.525 475.565 186.042 476.257 186.388C476.95 186.735 477.719 186.898 478.493 186.863C479.78 188.632 480.741 190.811 483.438 190.819C483.523 191.312 483.759 191.767 484.113 192.122C484.468 192.476 484.923 192.711 485.416 192.796C485.899 193.964 487.395 195.099 485.446 196.346C485.228 196.485 485.416 197.26 485.416 197.741C483.177 199.688 480.314 200.772 477.346 200.796C476.096 200.729 474.874 200.401 473.757 199.834C472.641 199.267 471.656 198.473 470.864 197.503C469.555 195.749 467.717 194.462 465.621 193.832C464.744 193.447 463.992 192.824 463.451 192.034C462.442 190.865 460.613 190.275 460.658 188.316C459.961 188.156 459.304 187.858 458.726 187.438C458.148 187.019 457.66 186.487 457.293 185.874C456.287 184.568 455.009 184.946 453.764 184.886C453.317 184.116 452.633 183.512 451.814 183.164C450.995 182.816 450.085 182.743 449.221 182.956C448.016 182.981 446.834 182.617 445.851 181.919C445.715 181.947 445.575 181.94 445.442 181.901C445.309 181.861 445.188 181.789 445.09 181.691C444.992 181.593 444.92 181.472 444.88 181.339C444.84 181.206 444.834 181.066 444.862 180.93C444.75 180.654 444.642 180.137 444.527 180.136C439.393 179.418 434.219 179.023 429.036 178.952L425.13 177.963C422.503 177.847 419.871 177.867 417.246 178.025C414.873 178.275 412.697 176.651 410.334 177.56C409.428 175.646 407.837 178.824 406.906 177.099C405.101 178.615 402.951 177.804 400.954 177.938C399.153 178.058 397.332 177.87 395.532 177.991C393.994 178.095 392.487 177.636 390.91 178.804C389.66 179.731 387.368 178.142 385.997 179.928C385.109 178.093 384.258 180.093 383.354 179.976C382.216 179.783 381.053 179.784 379.914 179.978C376.41 180.741 372.809 180.741 369.296 181.669C366.843 182.317 364.014 181.477 361.517 182.037C359.419 182.976 357.194 183.597 354.913 183.882C350.089 184.119 345.318 185.001 340.728 186.503C336.317 187.89 331.831 189.023 327.29 189.895C325.801 190.208 324.368 190.745 323.04 191.488C322.199 191.846 321.141 192.722 320.633 192.677C315.872 192.251 312.27 196.106 307.641 196.06C307.226 196.056 306.706 196.945 305.988 196.742C302.984 195.893 301.283 199.061 298.58 199.114C297.875 200.998 295.361 200.034 294.514 201.695C292.141 201.291 289.702 201.793 287.682 203.102C287.357 203.452 286.908 203.661 286.432 203.686C281.814 204.106 277.338 205.499 273.298 207.775C272.548 208.089 270.925 208.145 270.58 209.954C270.429 210.739 268.54 211.949 267.374 212.352C265.275 213.25 263.509 214.782 262.322 216.732C259.727 220.555 256.754 224.107 253.447 227.334C251.56 229.014 250.168 231.178 249.424 233.593C248.514 236.569 246.908 239.156 245.755 241.975C244.485 244.593 243.623 247.39 243.197 250.269C242.998 252.752 241.637 255.278 243.023 257.874C243.217 258.242 243.274 258.666 243.184 259.072C243.094 259.478 242.863 259.838 242.532 260.089C242.265 260.286 242.078 260.573 242.006 260.897C241.934 261.221 241.981 261.56 242.139 261.851C243.145 263.38 242.508 265.476 243.492 266.703C244.735 268.253 243.345 269.62 243.818 271.196C244.315 272.85 245.9 273.484 246.152 275.231C246.721 277.452 247.637 279.57 248.864 281.507C252.767 288.828 258.422 295.068 265.323 299.672C268.245 301.791 271.888 302.27 274.761 304.453C275.492 305.009 277.693 304.097 278.027 304.62C278.944 306.057 280.061 304.36 281.054 305.231C281.722 305.818 283.225 305.412 284.346 305.534C287.702 305.668 291.059 305.336 294.323 304.546C295.547 304.341 296.993 305.05 297.899 303.624C299.134 305.257 300.256 303.331 301.508 303.412C302.536 303.479 303.578 302.118 304.726 301.807C306.908 301.217 308.46 298.88 310.337 298.806C311.374 298.701 312.378 298.38 313.284 297.864C314.19 297.348 314.978 296.648 315.598 295.81C316.926 294.836 318.074 293.638 318.989 292.269C319.575 290.799 320.633 289.565 321.997 288.762C323.442 287.974 324.021 286.514 324.899 285.382C327.19 282.836 329.12 279.985 330.635 276.912C331.204 275.524 331.25 273.96 332.589 272.721C333.765 271.632 332.783 269.369 334.045 267.927C334.403 267.518 333.808 266.682 334.414 266.114C337.143 263.553 336.495 259.946 336.889 256.808C337.152 254.707 334.908 252.265 338.018 250.609C338.155 250.536 338.036 249.982 338.036 249.653V245.698C338.24 244.232 338.204 242.742 337.929 241.287C337.714 240.781 337.608 240.235 337.618 239.684C337.628 239.134 337.755 238.592 337.988 238.094C338.575 236.65 337.168 235.41 337.11 234.071C337.041 231.425 336.182 228.861 334.643 226.708C333.029 224.57 332.908 221.476 330.244 220.054C329.692 219.721 329.282 219.196 329.091 218.58C327.987 215.506 324.466 214.564 322.942 211.821C321.017 211.333 319.191 210.513 317.548 209.398C315.312 208.14 312.969 209.045 310.72 207.841C308.797 206.813 305.889 207.628 303.416 207.628C303.45 207.512 303.456 207.39 303.433 207.271C303.411 207.153 303.36 207.041 303.285 206.946C303.21 206.851 303.114 206.776 303.003 206.726C302.893 206.676 302.773 206.653 302.652 206.659C301.029 206.606 299.4 206.574 297.779 206.658C296.128 206.744 296.398 205.586 296.536 204.718C296.754 203.999 297.072 203.314 297.481 202.684C298.412 202.503 299.328 202.839 300.322 202.388C302.296 201.505 304.496 201.258 306.618 201.679C307.602 201.76 308.592 201.763 309.577 201.688C315.447 201.283 321.285 202.852 326.162 206.144C331.417 209.983 336.159 214.478 340.274 219.519C342.104 222.151 343.333 225.152 343.876 228.31C344.436 230.4 345.418 232.314 345.911 234.382C346.418 236.507 345.197 238.87 346.873 240.924C347.064 241.287 347.133 241.701 347.069 242.106C347.006 242.511 346.812 242.884 346.518 243.17C345.396 244.239 345.964 245.653 346.009 246.873C345.995 247.194 346.051 247.514 346.172 247.81C346.294 248.107 346.479 248.374 346.714 248.592C346.95 248.81 347.23 248.975 347.535 249.074C347.84 249.173 348.163 249.205 348.481 249.167C349.796 249.135 351.118 249.234 352.428 249.146C355.451 249.048 358.473 249.365 361.409 250.087C362.324 250.276 362.738 250.895 363.41 251.251C366.894 253.095 369.594 256.022 372.945 258.027C373.669 258.46 373.463 259.063 373.718 259.57C374.779 261.249 375.718 263.003 376.527 264.817C377.047 266.389 379.06 266.914 378.916 268.768C380.648 268.243 380.833 266.459 381.442 265.21C381.89 264.384 382.452 263.625 383.111 262.955C384.712 261.625 386.027 259.985 386.979 258.135C387.254 257.525 387.74 257.034 388.347 256.753C391.354 254.855 394.032 252.481 396.278 249.725C398.061 247.84 399.959 246.067 401.96 244.415C404.215 242.776 405.777 240.45 408.083 239.057C410.327 237.77 412.694 236.711 415.149 235.895C418.872 233.848 423.143 233.02 427.361 233.527C431.719 234.827 436.289 233.206 440.44 235.271C441.099 235.599 442.062 235.317 442.884 235.317C444.399 236.27 446.075 236.94 447.83 237.295H448.819C451.437 238.628 454.214 239.623 457.083 240.255C460.833 240.272 464.583 240.262 468.334 240.26C469.005 240.26 469.665 240.229 469.591 239.272C471.127 239.315 472.664 240.422 474.2 239.272C479.341 239.2 484.476 238.862 489.583 238.262C489.705 238.273 489.828 238.254 489.942 238.206C490.055 238.158 490.155 238.083 490.232 237.987C490.309 237.891 490.361 237.778 490.384 237.657C490.407 237.536 490.4 237.411 490.363 237.294C490.893 237.808 491.603 238.095 492.341 238.095C493.079 238.095 493.789 237.808 494.319 237.294H501.243C503.149 237.294 505.055 237.294 506.961 237.294C507.634 237.294 508.235 237.208 508.167 236.305H511.135C512.066 236.305 512.997 236.302 513.928 236.306C514.603 236.309 515.152 236.173 515.091 235.316C516.154 235.498 516.842 236.451 518.14 236.369C521.252 236.171 524.386 236.335 527.51 236.284C528.278 236.271 529.075 236.575 529.837 235.943C530.061 235.717 530.33 235.54 530.626 235.423C530.922 235.306 531.24 235.251 531.558 235.263C531.876 235.274 532.188 235.35 532.476 235.488C532.763 235.625 533.019 235.821 533.227 236.061C533.836 236.605 534.779 236.576 534.874 235.316H535.863C536.181 235.652 536.564 235.921 536.989 236.104C537.414 236.287 537.872 236.382 538.335 236.382C538.799 236.382 539.257 236.287 539.682 236.104C540.107 235.921 540.49 235.652 540.808 235.316C541.831 235.502 542.838 235.074 543.922 235.834C544.192 236.084 544.513 236.271 544.864 236.382C545.214 236.493 545.585 236.525 545.95 236.475C546.314 236.426 546.663 236.296 546.971 236.096C547.279 235.895 547.539 235.629 547.732 235.316C548.332 235.439 549.074 234.985 549.527 235.647C550.094 236.474 550.904 236.304 551.689 236.305H552.678C553.703 236.947 554.872 237.326 556.079 237.405C557.286 237.485 558.494 237.263 559.595 236.76C559.651 236.736 559.602 236.462 559.602 236.305C560.662 236.476 561.328 237.484 562.632 237.356C564.899 237.132 567.204 237.293 569.493 237.293C569.603 237.568 569.702 238.078 569.825 238.084C573.622 238.861 577.487 239.258 581.363 239.271C581.467 239.883 581.802 240.43 582.3 240.801C582.798 241.171 583.419 241.335 584.034 241.259C585.45 241.213 586.869 241.249 588.287 241.249C588.226 242.106 588.775 242.242 589.45 242.239C590.381 242.235 591.312 242.238 592.243 242.238L592.247 242.693C594.789 243.606 597.457 244.119 600.157 244.215C600.096 245.072 600.645 245.208 601.32 245.205C602.251 245.201 603.182 245.204 604.113 245.204C606.695 247.104 609.81 248.142 613.015 248.171C614.966 249.36 617.171 250.069 619.449 250.238C621.677 250.123 623.546 252.066 625.874 252.126C626.414 252.904 627.171 253.506 628.05 253.857C628.929 254.209 629.892 254.295 630.82 254.104C633.574 255.976 635.418 259.104 638.854 260.008C639.746 260.243 639.452 261 639.769 261.368C641.43 262.916 642.979 264.578 644.405 266.344C645.606 268.231 647.527 269.331 648.705 271.284C649.879 273.225 651.561 274.807 653.57 275.859C653.99 276.923 654.984 277.777 654.602 279.144C654.504 279.495 654.986 279.924 655.548 279.814C655.548 280.962 655.958 282.36 655.447 283.197C654.774 284.299 654.503 286.674 652.268 285.697C650.802 285.056 649.972 286.597 648.46 286.214C647.236 285.937 646.086 285.399 645.09 284.635C644.094 283.872 643.275 282.902 642.689 281.792C642.724 281.019 642.561 280.249 642.214 279.557C641.868 278.865 641.351 278.272 640.711 277.836C640.217 277.752 639.762 277.516 639.408 277.162C639.054 276.808 638.818 276.352 638.733 275.859C637.268 274.327 636.98 271.855 634.776 270.914C634.289 270.914 633.409 271.027 633.372 270.898C632.632 268.318 629.862 267.313 628.842 264.981C627.972 263.394 627.057 261.867 624.885 262.016C624.512 261.372 623.967 260.845 623.31 260.495C622.653 260.145 621.912 259.986 621.169 260.035C620.497 260.049 619.868 259.977 619.939 259.049C620.052 258.426 619.666 258.199 619.16 258.06C615.161 256.962 611.155 255.888 607.08 255.094C603.654 255.586 601.019 253.358 598.024 252.388C597.422 252.262 596.813 252.175 596.2 252.127C596.311 251.541 595.912 251.36 595.483 251.129C592.924 249.753 589.905 250.312 587.298 249.161C587.365 248.258 586.765 248.171 586.091 248.172C584.185 248.172 582.28 248.172 580.374 248.172C577.609 248.208 574.883 247.527 572.461 246.194H567.515C564.458 246.675 561.701 244.45 558.613 245.205C558.646 245.091 558.652 244.971 558.63 244.854C558.608 244.737 558.559 244.627 558.487 244.532C558.415 244.438 558.321 244.361 558.214 244.31C558.107 244.258 557.99 244.232 557.871 244.234C554.609 244.557 551.315 244.225 548.183 243.256C546.902 242.652 545.855 243.701 544.765 244.216H543.776C543.091 243.887 542.409 243.28 541.719 243.271C535.972 243.012 530.215 243.046 524.472 243.373C521.384 243.649 518.435 245.053 515.401 243.249C515.253 243.192 515.093 243.172 514.935 243.192C514.778 243.213 514.628 243.272 514.499 243.365C513.178 244.884 511.443 244.133 509.905 244.182C506.456 244.291 503.001 244.214 499.549 244.218C498.878 244.219 498.2 244.231 498.276 245.205C495 245.205 491.716 245.335 488.451 245.141C487.157 245.064 486.478 246.02 485.417 246.194C484.794 246.352 484.422 245.462 484.255 245.55C482.429 246.353 480.36 246.408 478.493 245.702V246.194H469.591C468.669 246.306 467.694 245.931 466.765 246.515C466.944 247.094 467.333 247.586 467.856 247.892C468.379 248.199 468.998 248.299 469.591 248.172C469.7 248.446 469.735 248.879 469.93 248.971C474.043 250.897 476.04 255.572 480.472 257.071C480.678 259.287 481.223 259.831 483.439 260.038C482.956 262.262 485.779 262.875 485.789 264.859C488.087 264.792 487.88 267.351 489.186 268.121C490.42 268.848 489.774 270.806 491.759 271.076C492.639 271.195 492.645 273.601 494.319 273.882C494.336 274.045 494.335 274.21 494.315 274.373C493.89 276.175 495.74 276.822 496.467 277.864C497.358 279.141 496.391 281.158 498.276 281.793C497.872 283.297 498.941 284.123 499.889 284.826C500.932 285.6 499.218 287.525 501.243 287.726C501.243 288.98 501.243 290.234 501.243 291.488C501.241 292.162 501.355 292.734 502.233 292.67C502.89 294.696 500.783 296.565 501.663 298.431C502.25 300.582 502.434 302.822 502.205 305.039C502.29 306.502 502.299 307.968 502.231 309.432C502.284 309.821 502.258 310.218 502.154 310.597C502.05 310.976 501.87 311.33 501.625 311.638C500.31 313.622 499.818 316.04 500.254 318.38C499.573 318.812 499.026 319.426 498.676 320.153C498.325 320.88 498.185 321.691 498.271 322.493C498.298 323.758 498.276 325.025 498.276 326.291C497.721 326.391 497.202 326.637 496.772 327.003C496.343 327.37 496.018 327.844 495.832 328.377C495.469 330.869 493.23 332.602 493.33 335.19C492.945 335.193 492.57 335.321 492.263 335.555C491.957 335.789 491.734 336.116 491.63 336.487C491.59 337.236 491.363 337.962 490.969 338.6C490.574 339.237 490.026 339.765 489.374 340.135C487.593 341.762 486.235 343.798 485.417 346.068C485.282 346.04 485.141 346.046 485.008 346.086C484.876 346.126 484.755 346.198 484.657 346.296C484.559 346.394 484.487 346.515 484.447 346.647C484.407 346.78 484.4 346.921 484.428 347.057C483.759 347.326 483.152 347.728 482.642 348.237C482.132 348.747 481.73 349.354 481.461 350.023C480.967 350.108 480.512 350.344 480.158 350.698C479.803 351.052 479.568 351.507 479.483 352.001C477.31 351.852 476.396 353.379 475.526 354.967C473.812 355.462 472.56 357.113 470.58 356.945L466.908 359.134C466.671 360.384 464.575 359.256 464.646 360.901C463.632 360.728 462.593 360.764 461.594 361.006C460.594 361.247 459.653 361.69 458.83 362.306C457.108 363.748 454.619 361.877 453.004 363.821C452.724 364.157 451.711 363.883 451.787 364.856H427.058C427.127 363.937 426.507 363.833 425.837 363.873C423.375 363.918 420.919 363.629 418.534 363.015C416.775 362.647 415.149 361.383 413.21 361.889C411.966 361.828 410.791 362.085 409.667 360.926C408.128 359.34 405.779 358.714 404.308 356.945C402.141 355.38 400.407 353.056 397.384 352.99C396.186 351.146 394.421 349.744 392.354 348.994C390.077 348.255 389.92 345.62 388.482 344.09C388.212 343.421 387.81 342.814 387.301 342.304C386.791 341.794 386.183 341.393 385.514 341.123L380.569 334.201C380.537 332.014 380.956 329.677 378.59 328.268C377.428 327.915 376.577 327.277 376.617 325.932C376.415 323.631 375.74 321.396 374.634 319.368C374.52 318.193 374.875 317.035 373.787 315.934C372.769 314.905 375.431 314.095 374.436 312.773C374.288 312.577 373.914 312.551 373.645 312.447C373.645 310.214 373.645 307.982 373.645 305.75C373.645 305.077 373.567 304.467 372.656 304.536C371.298 304.294 371.451 303.566 372.04 302.672C372.271 302.321 372.452 301.938 372.656 301.569C371.765 299.728 374.927 297.886 372.656 296.045C373.599 294.22 373.943 292.144 373.641 290.112C373.659 287.998 373.645 285.884 373.645 283.769C375.559 283.201 374.545 281.636 374.569 280.587C374.361 279.419 374.559 278.214 375.13 277.174C375.701 276.134 376.612 275.321 377.709 274.87H373.645C372.135 275.105 370.772 274.32 370.767 273.041C370.75 269.022 367.193 267.291 365.447 264.44C364.208 262.127 362.361 260.197 360.105 258.858C358.187 257.872 355.921 257.457 354.647 255.412C354.232 254.747 353.44 255.122 352.828 255.109C350.866 255.065 348.902 255.093 346.938 255.093C346.314 254.98 346.08 255.364 345.95 255.872C344.36 260.068 343.361 264.465 342.982 268.936V269.925C342.104 269.861 341.99 270.433 341.992 271.107C341.994 272.361 341.994 273.615 341.992 274.87C341.289 275.015 340.09 274.399 340.058 275.644C340.008 276.665 339.744 277.665 339.283 278.579C338.822 279.492 338.174 280.298 337.381 280.944C336.774 281.51 337.178 282.175 337.047 282.78C336.717 282.834 336.401 282.956 336.12 283.137C335.839 283.318 335.598 283.555 335.412 283.834C335.227 284.112 335.1 284.425 335.041 284.755C334.982 285.084 334.991 285.422 335.068 285.747C333.88 287.1 332.172 288.277 331.641 289.851C331.037 291.646 328.649 292.409 329.134 294.647C328.998 294.619 328.857 294.625 328.724 294.665C328.592 294.705 328.471 294.777 328.373 294.875C328.275 294.973 328.203 295.094 328.163 295.227C328.123 295.359 328.117 295.5 328.144 295.636C325.972 295.487 325.057 297.014 324.188 298.602C321.686 300.588 319.058 302.409 316.32 304.052C315.851 304.295 315.167 304.714 315.286 305.524H314.297C312.932 306.183 311.571 306.851 310.2 307.499C309.748 307.642 309.342 307.899 309.019 308.246C308.697 308.594 308.471 309.018 308.362 309.48C307.097 309.319 305.815 309.341 304.556 309.545C302.529 310.179 300.171 309.812 298.471 311.457C295.582 311.457 292.694 311.457 289.805 311.457C289.133 311.457 288.509 311.522 288.579 312.446H286.601C286.671 311.524 286.049 311.47 285.376 311.455C284.267 311.43 282.782 311.831 282.125 311.27C280.518 309.897 278.435 311.247 277.227 310.314C275.394 308.898 273.549 309.849 271.764 309.479C270.589 309.66 269.387 309.472 268.324 308.941C267.261 308.409 266.389 307.561 265.829 306.513C265.393 305.873 264.8 305.356 264.108 305.01C263.415 304.663 262.646 304.5 261.873 304.535C261.271 304.408 260.463 304.898 260.078 304.193C259.104 302.407 256.856 302.153 255.808 300.218C254.994 298.715 252.95 297.914 251.57 296.671C250.001 295.258 248.618 293.638 247.044 292.232C246.663 291.941 246.369 291.552 246.193 291.106C246.017 290.66 245.967 290.175 246.046 289.702C244.933 288.13 244.783 285.978 243.079 284.759ZM437.182 356.945C441.204 357.219 445.245 356.891 449.171 355.973C452.068 354.99 455.036 354.221 457.934 353.244C459.754 352.403 461.499 351.409 463.151 350.274C465.049 349.276 466.895 348.182 468.682 346.997C470.207 345.969 471.195 344.155 473.258 343.885C473.317 341.763 476.212 341.574 476.331 340.357C476.543 338.175 478.049 337.334 479.154 336.034C480.33 334.917 481.417 333.71 482.405 332.423C484.92 328.584 486.855 324.395 488.148 319.991C488.903 317.007 490.859 314.244 490.324 311.012C490.16 308.632 490.587 306.247 491.565 304.071C491.993 302.908 492.25 301.69 492.326 300.453C492.229 298.478 492.25 296.5 492.391 294.528C493.028 290.317 490.453 287.062 489.274 283.421C488.684 281.599 485.909 280.794 486.306 278.231C483.703 277.888 483.976 275.275 482.775 273.888C481.012 271.397 479.069 269.039 476.961 266.832C474.14 263.942 471.119 261.255 467.919 258.792C465.884 257.253 463.965 255.567 462.176 253.748C460.037 252.156 457.758 250.763 455.367 249.584C453.368 248.168 451.207 246.995 448.93 246.089C444.118 244.522 439.103 243.9 434.291 242.423C433.129 243.952 432.29 241.758 431.051 242.155C429.855 242.539 428.331 241.905 427.14 242.295C421.588 243.501 416.114 245.04 410.746 246.903C407.417 248.183 404.316 249.993 401.564 252.262C399.648 254.037 397.834 255.918 396.128 257.896C393.434 261.007 390.861 264.236 388.422 267.551C386.287 270.005 384.666 272.863 383.655 275.955C382.645 279.047 382.264 282.31 382.537 285.552C382.541 285.851 382.496 286.341 382.322 286.424C380.795 287.151 381.956 288.809 381.057 289.926C380.53 290.581 381.972 291.955 380.718 293.434C379.824 294.486 381.674 296.692 380.6 298.44C380.485 298.662 380.426 298.907 380.426 299.157C380.427 299.406 380.487 299.651 380.603 299.872C382.148 301.547 381.33 303.566 381.571 305.426C381.769 306.96 380.921 308.649 382.476 310.035C382.679 310.391 382.785 310.794 382.787 311.204C382.788 311.614 382.683 312.018 382.482 312.375C381.204 313.776 382.384 314.86 382.708 316.004C382.86 316.541 383.721 316.868 383.528 317.631C383.367 318.882 383.473 320.153 383.84 321.361C384.206 322.568 384.825 323.684 385.655 324.634C387.011 326.753 387.199 329.251 388.881 331.27C392.456 336.866 397.039 341.75 402.397 345.674C403.547 346.497 403.99 348.235 404.96 348.924C407.691 350.867 411.042 351.844 413.713 353.979C415.587 353.353 416.86 355.577 418.716 355.034C420.313 356.865 422.416 355.695 424.273 355.917C425.988 356.123 427.368 357.336 429.312 357.029C431.93 356.816 434.56 356.788 437.182 356.945V356.945Z" fill="#212222"/>
<path d="M889.973 282.782C889.223 282.931 888.079 282.291 887.994 283.771C884.795 283.994 882.8 286.853 879.8 287.513C879.365 289.567 876.589 287.697 876.125 289.703C875.525 289.827 874.783 289.373 874.33 290.034C873.763 290.862 872.954 290.692 872.168 290.692C869.898 290.935 867.791 291.989 866.234 293.659C865.448 293.659 864.639 293.489 864.072 294.317C863.619 294.979 862.876 294.525 862.277 294.648C861.17 294.459 860.037 294.481 858.938 294.711C855.713 296.154 852.192 296.812 848.665 296.63C847.993 296.598 847.37 296.692 847.44 297.614H846.451C845.73 298.414 845.183 299.353 844.842 300.374C844.502 301.395 844.376 302.475 844.473 303.547C843.615 303.486 843.422 304.042 843.495 304.709C843.653 306.051 843.296 307.403 842.494 308.492C842.378 308.458 842.255 308.454 842.136 308.477C842.017 308.501 841.905 308.553 841.81 308.628C841.714 308.703 841.639 308.8 841.588 308.91C841.538 309.021 841.514 309.142 841.519 309.263C840.773 313.143 839.434 316.885 837.549 320.358C835.719 320.593 837 322.151 836.46 322.915C835.37 324.502 834.722 326.349 834.581 328.269C832.491 328.635 834.534 331.23 832.542 331.885C831.077 332.367 831.728 334.015 831.614 335.191C830.974 335.627 830.457 336.219 830.11 336.911C829.764 337.604 829.601 338.373 829.635 339.146C827.956 339.455 828.676 341.364 827.657 342.113C826.908 342.906 825.974 343.502 824.938 343.847C823.903 344.192 822.798 344.276 821.722 344.09C821.757 343.317 821.594 342.548 821.247 341.855C820.901 341.163 820.384 340.571 819.744 340.135L816.777 336.18C816.71 333.157 814.386 331.424 812.82 329.258C811.685 327.697 809.83 326.568 809.853 324.313C808.74 322.739 808.589 320.588 806.885 319.369C806.92 318.596 806.757 317.826 806.41 317.134C806.064 316.442 805.547 315.85 804.907 315.414C804.764 314.362 803.434 313.707 803.918 312.447C803.803 312.168 803.693 311.646 803.573 311.644C800.836 311.598 798.098 311.598 795.36 311.644C795.241 311.646 795.13 312.167 795.016 312.447H794.027C792.997 311.774 791.794 311.416 790.565 311.416C789.335 311.416 788.132 311.774 787.103 312.447C783.826 312.447 780.543 312.577 777.278 312.382C775.983 312.305 775.305 313.262 774.244 313.436C772.984 313.92 772.328 312.589 771.276 312.447C770.303 312.823 768.773 311.53 768.309 313.436H763.364C762.109 313.436 760.855 313.436 759.6 313.435C758.926 313.434 758.354 313.548 758.418 314.425C754.156 315.016 749.862 315.346 745.559 315.414C744.08 315.329 744.719 314.186 744.57 313.436C743.876 311.288 745.549 309.534 745.559 307.503C745.889 307.449 746.205 307.328 746.486 307.147C746.767 306.965 747.008 306.728 747.194 306.45C747.379 306.172 747.506 305.858 747.565 305.529C747.624 305.2 747.615 304.862 747.538 304.537C749.126 303.667 750.654 302.753 750.505 300.581C750.477 300.445 750.484 300.305 750.523 300.172C750.563 300.039 750.636 299.918 750.734 299.821C750.832 299.723 750.952 299.65 751.085 299.611C751.218 299.571 751.358 299.564 751.494 299.592C753.666 299.741 754.581 298.214 755.451 296.626C755.72 295.957 756.122 295.35 756.632 294.84C757.142 294.33 757.749 293.928 758.418 293.659C759.962 293.238 760.602 291.493 762.314 291.162C763.343 290.963 763.517 289.76 763.363 288.715C764.398 287.43 764.257 285.265 766.331 284.759C766.958 284.919 767.234 284.406 767.51 284.051C768.553 282.704 770.878 281.978 770.229 279.79C769.558 277.529 767.405 277.122 765.342 276.849C764.592 275.83 762.683 276.55 762.374 274.871C761.505 273.283 760.59 271.756 758.418 271.904C758.043 271.694 757.488 271.577 757.325 271.259C756.62 269.961 755.644 268.832 754.461 267.949C752.241 264.925 749.573 262.257 746.548 260.038C746.412 260.066 746.272 260.06 746.139 260.02C746.006 259.98 745.885 259.908 745.787 259.81C745.689 259.712 745.617 259.591 745.577 259.458C745.537 259.326 745.531 259.185 745.559 259.049C744.689 257.461 743.774 255.934 741.602 256.083C741.467 256.11 741.326 256.104 741.193 256.064C741.061 256.025 740.94 255.952 740.842 255.854C740.744 255.756 740.672 255.636 740.632 255.503C740.592 255.37 740.585 255.23 740.613 255.094C740.344 254.425 739.942 253.818 739.432 253.308C738.922 252.798 738.315 252.397 737.646 252.127C737.152 252.042 736.697 251.807 736.343 251.452C735.988 251.098 735.753 250.643 735.668 250.15C735.461 247.934 734.916 247.39 732.7 247.183C731.393 245.977 731.847 244.099 730.847 242.622C729.82 241.104 730.917 239.464 732.952 238.296C733.38 238.05 733.801 237.895 733.689 237.294H736.657C736.831 238.946 738.157 238.316 738.913 238.237C743.172 238.103 747.416 238.814 751.4 240.329C752.67 240.917 754.05 241.231 755.45 241.249L755.453 241.722C758.584 242.411 761.619 243.481 764.489 244.909C765.802 245.44 767.053 244.965 768.309 245.205C771.319 246.977 774.712 247.994 778.2 248.171C778.966 248.876 779.869 249.415 780.852 249.756C781.836 250.096 782.879 250.23 783.916 250.15C787.143 250.328 790.335 250.906 793.419 251.872C795.136 252.27 797.394 253.27 798.972 251.138C801.188 250.931 801.733 250.386 801.94 248.171C802.608 247.902 803.216 247.5 803.726 246.991C804.236 246.481 804.637 245.873 804.907 245.205C804.879 245.069 804.885 244.928 804.925 244.796C804.965 244.663 805.037 244.542 805.135 244.444C805.233 244.346 805.354 244.274 805.487 244.234C805.62 244.194 805.76 244.188 805.896 244.216C808.595 242.336 810.939 239.992 812.82 237.294C813.489 237.024 814.096 236.623 814.606 236.113C815.116 235.603 815.518 234.996 815.787 234.327C815.76 234.191 815.766 234.051 815.806 233.918C815.846 233.785 815.918 233.665 816.016 233.567C816.114 233.469 816.235 233.397 816.367 233.357C816.5 233.317 816.641 233.311 816.777 233.338C818.949 233.487 819.864 231.96 820.733 230.372C820.705 230.236 820.712 230.095 820.752 229.963C820.791 229.83 820.864 229.709 820.962 229.611C821.06 229.513 821.18 229.441 821.313 229.401C821.446 229.361 821.586 229.355 821.722 229.383C823.682 228.453 825.764 227.677 826.668 225.428C828.924 225.45 830.052 223.595 831.614 222.461C833.315 220.727 835.741 220.08 837.548 218.506C839.804 218.528 840.933 216.673 842.494 215.539H845.461C846.284 217.338 849.013 218.794 846.473 221.218C846.346 221.339 846.438 221.922 846.617 222.097C847.937 223.386 847.464 224.385 846.683 225.893C846.296 226.605 846.125 227.414 846.19 228.222C846.256 229.03 846.556 229.801 847.053 230.441C847.428 230.876 847.632 231.525 847.406 231.728C845.773 233.193 846.603 235.072 846.474 236.766C846.311 238.233 846.32 239.715 846.499 241.181C846.75 242.75 844.993 243.669 845.461 245.204C843.095 246.613 843.515 248.95 843.483 251.137C842.591 251.071 842.493 251.66 842.494 252.333C842.495 253.912 842.495 255.491 842.494 257.07C840.182 260.011 840.182 260.011 836.559 260.037C836.677 259.204 835.809 259.035 835.519 258.486C835.292 258.056 834.514 258.056 834.993 257.065C836.879 253.165 836.859 248.706 838.436 244.656C839.099 242.954 840.586 241.615 840.555 239.581C840.533 238.17 839.893 236.46 841.041 235.38C842.637 233.878 840.258 232.609 841.101 231.249C841.561 230.506 840.793 229.756 841.33 228.689C841.767 226.703 841.826 224.651 841.505 222.643C839.046 224.206 837.382 225.593 835.47 226.535C833.151 227.678 831.427 229.949 828.789 230.723C828.583 232.341 827.626 233.012 826.082 233.547C824.653 234.042 823.726 235.531 822.383 236.447C819.086 238.696 816.839 242.297 813.234 244.295C810.412 248.477 806.967 252.204 803.02 255.347C802.037 256.572 800.675 257.436 799.147 257.802C797.619 258.168 796.013 258.014 794.582 257.366C792.852 256.685 791.036 256.248 789.185 256.066C787.648 255.887 786.146 256.392 784.532 255.265C783.631 254.636 781.449 254.92 780.295 254.448C778.815 253.842 777.308 254.2 775.761 253.419C772.533 251.79 768.49 252.221 765.258 250.158C765.141 250.083 764.929 250.176 764.771 250.145C759.822 249.105 754.98 247.61 750.306 245.679C746.341 243.612 741.819 242.868 737.402 243.556C739.827 245.952 742.076 248.117 744.257 250.347C746.427 252.566 749.915 253.466 750.848 256.92C753.841 256.991 754.097 260.263 756.243 261.539C758.468 263.236 760.492 265.182 762.274 267.34C763.079 268.352 764.064 269.208 765.18 269.864C769.176 271.473 771.302 275.804 775.633 276.867C776.136 276.99 776.059 277.633 776.261 278.016C777.299 279.986 777.254 281.214 775.23 283.215C772.9 285.392 770.915 287.913 769.345 290.689C769.117 291.117 769.05 291.539 768.541 291.679C766.671 292.193 765.982 293.681 765.082 295.243C764.294 296.613 762.454 297.335 761.428 298.622C759.725 300.939 757.653 302.962 755.296 304.609C754.129 305.592 753.186 306.814 752.531 308.192C752.447 308.335 752.406 308.499 752.412 308.665C752.419 308.831 752.473 308.991 752.568 309.127C752.663 309.263 752.795 309.369 752.949 309.432C753.102 309.495 753.27 309.513 753.433 309.483C754.257 309.466 755.444 309.831 755.843 309.419C757.55 307.658 759.615 308.506 761.426 308.587C763.587 308.684 765.318 307.474 767.446 307.418C775.732 307.829 784.038 307.57 792.282 306.642C796.385 306.316 800.505 306.251 804.616 306.446C805.43 306.338 806.257 306.512 806.958 306.939C807.66 307.365 808.196 308.018 808.476 308.79C809.009 311.389 810.947 313.05 811.87 315.328C812.67 317.302 814.658 319.164 814.601 321.03C814.514 323.901 817.305 324.428 817.952 326.674C818.637 328.387 819.619 329.966 820.85 331.339C821.786 332.798 822.95 334.097 824.296 335.188C826.99 331.229 829.07 326.885 830.464 322.303C831.261 320.319 832.896 318.779 833.149 316.462C833.535 314.808 834.269 313.255 835.302 311.907C836.643 310.189 837.469 308.126 837.684 305.958C837.948 303.516 838.577 301.128 839.551 298.874C840.467 296.141 841.608 293.513 845.165 293.461C846.131 292.081 847.581 292.659 848.791 292.725C850.165 292.8 850.923 291.194 852.341 291.678C853.74 292.157 854.534 290.595 855.888 290.645C857.141 290.672 858.39 290.49 859.583 290.107C863.262 289.01 866.63 287.085 870.325 286.181C873.796 285.015 877.185 283.619 880.469 282.001C881.493 281.724 882.373 281.067 882.93 280.164C881.884 279.445 880.588 280.22 879.63 279.77C875.676 278.116 871.567 276.856 867.365 276.011C860.081 274.231 853.024 271.628 846.328 268.253C845.729 268.057 845.103 267.954 844.472 267.949C843.474 266.349 841.862 266.259 840.194 265.896C837.282 265.599 834.412 264.981 831.636 264.054C830.915 263.724 830.553 263.487 830.638 262.78C830.748 261.871 831.477 262.01 832.116 262.012C834.403 262.165 836.699 262.141 838.982 261.942C841.345 261.58 843.177 263.512 845.461 263.004C846.002 263.782 846.758 264.384 847.637 264.736C848.517 265.087 849.48 265.173 850.407 264.982L850.41 265.432C852.671 265.952 854.846 266.798 856.865 267.941C857.019 267.973 857.176 267.975 857.331 267.949C857.218 268.567 857.624 268.744 858.1 268.946C862.697 270.569 867.397 271.887 872.168 272.893C874.59 274.226 877.316 274.907 880.081 274.871C880.093 276.226 881.141 275.885 881.843 275.837C885.148 275.666 888.398 276.732 890.961 278.826C890.838 279.425 891.292 280.168 890.63 280.621C889.803 281.187 889.974 281.997 889.973 282.782Z" fill="#222222"/>
<path d="M678.298 320.358H677.309C676.382 320.167 675.419 320.253 674.54 320.604C673.66 320.956 672.904 321.558 672.364 322.336H670.385C669.458 322.145 668.495 322.231 667.616 322.582C666.737 322.934 665.98 323.536 665.44 324.313H664.451C661.249 325.07 658.264 326.554 655.728 328.65C655.117 329.129 654.342 329.348 653.57 329.257C652.386 329.304 652.404 330.117 652.73 330.843C653.044 331.545 653.851 331.264 654.417 331.206C655.196 331.125 656.409 331.813 656.538 330.246C657.031 330.246 657.631 330.43 658.001 330.216C660.064 329.022 662.792 330.061 664.407 329.072C666.872 327.564 668.509 329.686 670.633 329.403C671.892 329.365 673.127 329.744 674.149 330.481C675.17 331.218 675.919 332.271 676.279 333.478C676.366 337.896 677.113 342.524 673.353 346.068C673.217 346.04 673.077 346.047 672.944 346.086C672.811 346.126 672.69 346.198 672.592 346.296C672.494 346.394 672.422 346.515 672.382 346.648C672.342 346.78 672.336 346.921 672.364 347.057C670.768 347.676 669.842 349.722 667.714 349.26C667.594 349.506 667.495 349.761 667.418 350.023C665.743 349.548 664.704 351.587 662.912 351.06C661.36 350.604 659.894 351.655 658.416 351.891C654.671 352.298 650.887 351.649 647.491 350.018C647.036 349.886 646.624 349.633 646.301 349.286C645.978 348.939 645.755 348.51 645.657 348.046C644.127 345.894 643.424 343.263 643.676 340.635C643.798 339.722 643.603 339.05 642.458 339.142C639.828 339.942 637.261 340.935 634.777 342.113C632.345 343.184 629.203 342.594 627.57 345.672C627.101 346.557 624.969 346.067 623.896 347.057C622.063 346.893 620.649 348.59 618.655 348.146C618.07 348.015 617.09 348.976 616.972 350.023C615.999 350.4 614.469 349.107 614.005 351.012C613.231 350.977 612.462 351.141 611.769 351.487C611.077 351.833 610.485 352.351 610.048 352.99C609.912 352.962 609.772 352.968 609.639 353.008C609.506 353.048 609.386 353.12 609.288 353.218C609.19 353.316 609.117 353.437 609.077 353.57C609.038 353.703 609.031 353.843 609.059 353.979C606.323 353.452 604.896 355.544 603.124 356.945C599.006 358.266 595.226 360.473 592.053 363.412C591.592 363.944 591.008 364.354 590.351 364.606C589.694 364.857 588.985 364.944 588.287 364.856C586.115 364.708 585.2 366.235 584.331 367.823L582.352 368.812C580.821 370.277 578.348 370.564 577.407 372.767C575.738 373.052 575.803 375.301 574.837 375.581C573.411 375.993 572.792 377.021 571.915 377.83C570.932 378.737 570.146 379.184 569.215 377.917C568.668 377.173 567.584 376.846 567.515 375.734C567.639 375.134 567.185 374.392 567.846 373.939C568.674 373.372 568.504 372.563 568.505 371.778C568.715 371.404 568.832 370.848 569.15 370.686C570.448 369.982 571.577 369.005 572.461 367.823C574.633 367.971 575.548 366.444 576.418 364.856C577.63 364.663 578.176 363.598 578.879 362.824C579.174 362.463 579.559 362.186 579.995 362.022C580.432 361.858 580.904 361.812 581.363 361.89C583.377 360.833 585.33 359.665 587.214 358.392C587.885 357.894 589.376 358.471 589.277 356.945C590.982 355.258 592.998 353.915 595.212 352.99C596.9 353.069 598.614 353.201 599.168 351.012L606.092 348.046C608.363 347.803 610.47 346.749 612.027 345.079C614.298 344.836 616.404 343.783 617.962 342.113C618.523 341.694 619.162 341.392 619.841 341.222C620.52 341.052 621.226 341.019 621.918 341.124C623.492 340.011 625.644 339.861 626.864 338.157C632.175 336.774 637.414 335.125 642.56 333.217C643.896 332.693 644.996 331.701 645.654 330.426C647.734 327.752 650.458 325.65 653.57 324.313C655.603 323.963 657.619 323.588 658.516 321.346C659.567 321.206 660.205 319.913 661.486 320.335C661.921 320.478 662.674 320.565 662.888 320.326C665.207 318.328 668.133 317.172 671.192 317.047C671.589 316.964 671.758 316.25 672.364 316.402C674.062 316.939 675.325 315.576 676.883 315.375C681.538 314.774 686.17 314.005 690.804 313.256C690.962 313.231 691.042 312.727 691.158 312.446C692.429 312.446 693.701 312.467 694.971 312.442C695.91 312.486 696.848 312.333 697.724 311.993C698.6 311.653 699.396 311.134 700.06 310.469H703.027V313.435C701.493 313.104 700.409 314.204 699.278 314.838C698.616 315.226 697.86 315.425 697.092 315.413C696.02 315.317 694.94 315.442 693.919 315.783C692.897 316.123 691.957 316.67 691.158 317.391C689.903 317.391 688.649 317.39 687.394 317.39C686.72 317.389 686.148 317.502 686.212 318.38C683.418 318.417 680.518 318.025 678.298 320.358ZM658.585 346.122C662.138 346.321 665.647 345.245 668.478 343.087C669.745 342.375 670.724 341.245 671.248 339.889C671.772 338.533 671.808 337.038 671.348 335.659C671.017 334.72 665.163 332.79 664.673 333.605C663.476 335.592 662.004 333.906 660.746 334.221C657.024 335.155 653.331 336.212 649.606 337.133C649.043 337.272 648.661 337.437 648.643 337.951C648.482 339.424 648.501 340.912 648.702 342.38C648.928 343.416 650.602 343.69 651.088 344.303C653.024 346.746 655.513 345.896 658.585 346.122Z" fill="#222323"/>
<path d="M703.026 280.804C701.766 281.288 701.111 279.958 700.059 279.815C700.221 278.186 701.517 278.82 702.277 278.881C703.482 278.98 702.89 280.103 703.026 280.804Z" fill="#88807B"/>
<path d="M469.591 246.193V248.171C468.998 248.298 468.379 248.198 467.856 247.891C467.333 247.585 466.944 247.093 466.765 246.514C467.694 245.93 468.669 246.305 469.591 246.193Z" fill="#C9C4C1"/>
<path d="M736.658 641.735L737.647 643.713C735.899 643.877 734.517 642.216 732.701 642.724C732.554 641.652 733.152 640.413 732.01 639.568C731.66 639.309 731.659 639.06 732.113 638.882C732.397 638.771 732.845 638.655 733.032 638.794C733.776 639.348 734.594 639.813 734.713 640.959C734.843 642.212 735.954 641.59 736.658 641.735Z" fill="#B3ACA9"/>
<path d="M546.743 630.859C546.828 632.339 547.972 631.699 548.721 631.848C547.927 632.599 546.974 633.162 545.934 633.496C544.893 633.831 543.791 633.927 542.708 633.78C543.662 631.854 545.492 631.743 546.743 630.859Z" fill="#AEA7A4"/>
<path d="M502.233 643.714V641.736H505.997C504.777 642.679 503.862 643.994 502.233 643.714Z" fill="#CFCBC8"/>
<path d="M543.776 637.78V639.758C542.854 639.646 541.879 640.021 540.95 639.437C541.129 638.858 541.518 638.366 542.041 638.06C542.564 637.753 543.183 637.653 543.776 637.78V637.78Z" fill="#D3CECC"/>
<path d="M658.585 346.123C655.514 345.898 653.024 346.747 651.088 344.304C650.602 343.691 648.928 343.417 648.702 342.382C648.501 340.913 648.482 339.425 648.643 337.952C648.661 337.438 649.043 337.274 649.606 337.134C653.332 336.214 657.023 335.157 660.746 334.223C662.004 333.907 663.476 335.593 664.673 333.606C665.163 332.791 671.017 334.721 671.348 335.66C671.808 337.039 671.772 338.535 671.248 339.89C670.724 341.246 669.745 342.377 668.478 343.088C665.647 345.246 662.139 346.322 658.585 346.123V346.123Z" fill="#FEFEFE"/>
<path d="M653.57 329.258C654.033 331.163 655.564 329.87 656.537 330.247C656.408 331.813 655.195 331.125 654.416 331.206C653.85 331.265 653.043 331.545 652.729 330.843C652.404 330.117 652.385 329.304 653.57 329.258Z" fill="#706763"/>
<path d="M419.444 518.129C422.16 517.822 424.905 517.875 427.607 518.288C429.744 518.57 431.829 519.158 433.798 520.034C435.232 520.952 440.873 523.655 441.824 524.471C443.121 525.582 443.922 527.55 446.2 527.061C446.396 527.019 446.779 527.372 446.923 527.627C449.024 531.368 452.958 531.796 456.487 532.972C457.88 533.435 459.088 534.285 460.687 533.063C461.282 532.609 462.696 532.952 463.851 533.497C465.965 534.298 468.291 534.337 470.43 533.607C474.678 532.044 479.144 531.156 483.666 530.974C484.143 530.998 484.62 530.945 485.078 530.815C487.613 530.092 489.946 527.599 492.816 529.977C494.741 528.044 497.147 529.285 499.317 529.038C505.428 528.761 511.49 530.25 516.778 533.325C518.701 534.365 520.846 534.928 523.031 534.969C525.175 534.951 525.838 535.722 525.979 537.807C526.061 539.029 525.903 539.725 524.398 540.159C523.548 540.405 522.692 541.013 521.753 540.85C518.507 540.637 515.363 539.628 512.599 537.912C509.155 535.512 505.106 534.129 500.913 533.922C499.656 533.898 498.419 534.242 497.355 534.911C495.996 535.552 495.164 533.9 493.827 533.902C492.492 533.904 491.586 534.821 490.306 535.052C485.901 535.847 481.456 536.379 477.08 537.562C474.2 538.406 471.219 538.857 468.218 538.903C464.926 538.871 461.625 538.757 458.343 538.95C457.489 539.093 456.614 539.065 455.771 538.867C454.927 538.67 454.131 538.306 453.429 537.799C451.858 536.17 449.863 537.287 448.123 536.013C445.376 534.001 442.497 532.1 439.83 529.962C437.262 527.901 433.863 527.095 431.733 524.367C431.071 523.721 430.235 523.281 429.328 523.101C424.127 521.977 418.782 521.673 413.487 522.2C411.008 522.687 408.499 523.013 405.978 523.176C403.468 523.751 400.916 523.703 398.49 524.201C395.523 524.413 392.577 524.854 389.678 525.523C388.096 526.123 387.898 524.99 387.616 524.545C387.142 523.797 387.687 523.364 388.683 522.999C390.971 522.091 393.36 521.464 395.798 521.131C397.424 520.952 399.523 521.712 400.619 520.936C401.898 520.029 403.557 520.738 404.507 519.447C404.617 519.339 404.749 519.255 404.893 519.201C405.037 519.148 405.191 519.125 405.345 519.135C410.36 519.48 415.193 517.143 419.444 518.129Z" fill="#242424"/>
<path d="M512.926 483.45C513.471 486.32 513.082 488.117 510.399 488.796C509.837 488.938 509.558 489.525 508.965 488.804C508.352 488.059 507.4 488.426 506.651 488.498C501.782 488.451 496.954 487.597 492.363 485.971C488.881 485.245 485.294 485.175 481.786 485.763C478.326 486.448 474.929 487.416 471.628 488.658C468.437 489.662 465.143 490.473 462.055 491.734C461.051 492.162 459.973 492.39 458.882 492.404C455.426 492.451 451.967 492.476 448.511 492.404C447.171 492.466 445.835 492.23 444.598 491.714C443.36 491.197 442.253 490.413 441.355 489.418C439.532 487.621 437.857 485.68 436.346 483.614C435.152 481.689 433.408 480.165 431.34 479.241C430.003 478.641 429.09 478.36 427.916 479.198C426.308 480.345 423.942 478.526 422.552 480.554C418.522 480.757 414.611 481.985 411.187 484.12C410.784 484.351 410.332 484.483 409.868 484.505C408.754 484.427 407.639 484.64 406.632 485.121C405.625 485.603 404.76 486.338 404.121 487.253C403.647 487.816 403.017 488.226 402.312 488.433C401.606 488.64 400.854 488.635 400.151 488.418C399.805 488.37 399.478 488.225 399.21 488C398.941 487.775 398.741 487.479 398.633 487.146C398.525 486.813 398.513 486.456 398.598 486.117C398.683 485.777 398.862 485.468 399.114 485.225C401.315 482.759 404.183 480.983 407.371 480.111C411.536 478.632 415.408 476.51 419.73 475.295C423.761 473.848 428.068 473.332 432.327 473.784C434.21 473.913 436.04 474.465 437.68 475.4C439.32 476.335 440.728 477.628 441.799 479.183C443.504 481.522 445.421 483.699 447.526 485.686C447.695 485.963 447.939 486.186 448.23 486.329C448.521 486.472 448.847 486.529 449.17 486.493C452.482 486.024 455.935 487.439 459.187 485.611C459.939 485.187 461.115 485.497 462.095 485.504C463.193 485.5 464.27 485.202 465.213 484.64C466.511 483.722 468.1 483.312 469.68 483.487C469.984 483.611 470.318 483.642 470.639 483.577C470.961 483.512 471.256 483.354 471.488 483.122C473.567 480.688 476.512 481.019 479.259 480.347C481.913 479.874 484.6 479.608 487.295 479.549C489.092 479.385 490.456 480.755 492.326 480.652C494.223 480.174 496.231 480.447 497.931 481.415C499.134 482.286 501.432 480.957 502.861 482.532C506.289 481.801 509.365 484.143 512.926 483.45Z" fill="#232424"/>
<path d="M440.906 574.495C439.09 575.002 437.708 573.341 435.96 573.506C435.926 573.389 435.92 573.266 435.943 573.147C435.966 573.028 436.018 572.916 436.093 572.821C436.169 572.726 436.266 572.65 436.377 572.601C436.488 572.551 436.609 572.529 436.73 572.536C438.36 572.484 439.993 572.519 441.625 572.516C442.297 572.514 442.959 572.487 442.884 571.528C446.415 571.7 449.738 570.137 453.342 570.471C456.768 570.788 460.247 570.541 463.703 570.539C466.045 570.563 468.323 571.302 470.233 572.657C470.768 573.017 470.607 573.55 470.541 573.991C470.511 574.192 470.052 574.486 469.802 574.472C464.44 574.759 459.063 574.587 453.73 573.959C452.455 573.667 451.296 575.569 450.019 574.189C448.774 572.843 447.224 573.814 445.851 573.506C444.597 573.506 443.342 573.506 442.088 573.505C441.414 573.504 440.842 573.617 440.906 574.495Z" fill="#3F3937"/>
<path d="M442.885 571.528C442.959 572.487 442.298 572.514 441.626 572.516C439.994 572.519 438.361 572.484 436.731 572.536C436.609 572.529 436.488 572.551 436.378 572.601C436.267 572.65 436.169 572.726 436.094 572.821C436.019 572.916 435.967 573.028 435.944 573.147C435.921 573.266 435.927 573.389 435.961 573.506C434.001 573.149 431.645 574.489 429.952 571.834C434.254 571.489 438.571 571.387 442.885 571.528V571.528Z" fill="#5F5753"/>
<path d="M440.906 574.494C440.842 573.617 441.414 573.503 442.088 573.504C443.343 573.506 444.597 573.507 445.852 573.505C445.916 574.382 445.344 574.495 444.669 574.494C443.415 574.492 442.161 574.492 440.906 574.494Z" fill="#5B5350"/>
<path d="M680.774 521.095C677.047 521.095 674.078 521.024 671.115 521.126C669.734 521.174 668.17 520.502 666.991 521.946C666.782 522.202 665.948 521.875 665.612 522.113C664.01 523.245 663.165 520.04 661.7 521.421C660.385 522.661 658.899 521.966 657.509 522.045C655.046 522.185 652.57 522.089 650.099 522.092C648.572 524.322 645.537 521.88 643.993 524.061C641.128 523.893 638.254 524.225 635.502 525.042C630.152 525.865 624.864 527.054 619.677 528.601C616.998 529.606 614.026 529.987 611.345 531.175C607.554 532.957 604.025 535.25 600.855 537.99C600.248 538.476 599.773 539.107 599.476 539.826C599.178 540.545 599.068 541.328 599.156 542.101C599.323 543.204 599.131 543.959 597.649 543.873C595.73 543.762 594.383 543.199 594.244 541.946C594.063 540.929 594.085 539.886 594.31 538.878C594.534 537.87 594.957 536.916 595.552 536.073C599.168 532.33 603.426 529.268 608.125 527.033C608.266 526.975 608.538 527.062 608.588 526.981C610.385 524.049 613.754 524.046 616.444 523.294C620.837 521.78 625.368 520.701 629.971 520.071C631.988 519.914 633.845 518.594 635.991 519.116C637.85 517.217 640.665 519.101 642.327 517.8C644.187 516.344 646.707 518.359 648.13 516.173C648.181 516.095 648.446 516.127 648.604 516.153C652.998 516.874 657.154 514.77 661.548 515.093C663.369 515.226 665.418 515.826 667.112 514.219C667.459 513.89 668.452 513.99 669.033 514.204C671.424 515.081 673.771 516.034 676.135 514.172C677.692 516.461 679.816 513.591 681.961 514.949C683.904 516.178 686.693 514.148 689.126 513.65C689.684 513.535 690.392 512.851 690.786 513.379C692.06 515.085 692.958 513.35 694.035 513.213C696.527 512.895 698.389 511.104 700.925 510.64C703.347 509.937 705.521 508.567 707.199 506.685C708.39 505.87 709.748 505.331 711.174 505.11C712.6 504.889 714.058 504.991 715.44 505.408C716.808 505.568 716.761 507.44 717.529 508.429C718.201 509.293 717.01 509.722 716.761 510.297C716.08 511.87 715.059 513.476 712.824 513.192C711.961 513.083 711.31 513.885 710.829 514.257C705.938 517.174 700.555 519.174 694.946 520.158C690.276 521.037 685.518 521.352 680.774 521.095V521.095Z" fill="#232323"/>
<path d="M716.849 470.079C715.62 471.533 714.095 472.707 712.375 473.522C710.655 474.337 708.78 474.774 706.877 474.804C703.241 475.313 699.575 475.583 695.903 475.612C694.177 475.654 692.802 477.065 690.872 476.64C686.775 475.738 682.581 475.244 678.528 474.193C677.648 473.91 676.739 473.726 675.818 473.647C673.846 473.539 671.869 473.545 669.898 473.667C667.688 473.864 665.409 472.977 663.25 474.289C661.329 475.458 658.768 473.661 656.832 475.547C656.41 475.959 655.229 475.713 654.425 475.59C649.869 474.895 645.529 476.935 641.008 476.597C639.177 478.554 636.283 476.64 634.357 478.45C633.486 479.269 632.263 476.715 631.292 478.574C627.556 477.934 624.099 479.871 620.341 479.676C617.725 479.54 615.119 480.952 612.362 480.565C611.714 480.474 610.969 480.579 611.052 479.616C611.113 478.895 610.876 478.247 611.705 477.518C613.331 476.088 615.321 476.756 617.085 476.146C619.328 475.01 621.838 474.501 624.347 474.676C626.28 475.074 627.459 473.24 629.394 473.538C630.235 473.848 631.143 473.93 632.027 473.777C632.91 473.623 633.737 473.239 634.424 472.663C634.577 472.499 635.06 472.623 635.388 472.644C638.843 472.744 642.279 472.096 645.461 470.745C645.983 470.503 646.564 470.415 647.135 470.492C647.706 470.569 648.243 470.807 648.682 471.18C649.605 472.06 650.108 470.637 651.021 470.565C655.867 469.586 660.779 468.961 665.716 468.697C664.419 466.765 662.657 466.148 661.682 464.546C659.988 461.766 660.955 458.066 664.108 457.94C667.632 457.416 671.226 457.599 674.679 458.48C676.647 459.185 678.944 459.197 681.069 459.734C682.153 460.008 683.145 460.709 683.151 461.431C683.606 463.825 683.464 466.294 682.737 468.619C681.989 470.077 681.923 470.869 683.752 470.613C684.937 470.447 685.277 471.814 686.311 471.649C687.229 471.502 687.724 470.534 688.868 470.605C690.55 471.021 692.3 471.079 694.006 470.775C695.64 470.24 697.637 470.928 699.39 470.612C704.066 470.439 708.687 469.547 713.091 467.97C714.065 467.465 714.553 467.806 715.149 468.433C715.71 469.025 716.32 469.57 716.849 470.079ZM668.754 463.742C669.692 464.318 670.496 465.088 671.111 466.002C672.277 467.927 674.074 467.745 675.869 467.692C676.139 467.693 676.405 467.625 676.641 467.493C676.877 467.362 677.075 467.173 677.217 466.943C677.359 466.713 677.44 466.451 677.452 466.181C677.464 465.911 677.406 465.643 677.285 465.402C677.077 464.875 676.707 464.428 676.23 464.124C675.752 463.82 675.19 463.675 674.625 463.709C672.676 463.838 670.712 463.742 668.754 463.742Z" fill="#242424"/>
<path d="M668.754 463.742C670.712 463.742 672.676 463.839 674.624 463.71C675.19 463.676 675.751 463.821 676.229 464.125C676.706 464.429 677.076 464.876 677.284 465.403C677.405 465.644 677.463 465.912 677.451 466.182C677.439 466.452 677.359 466.714 677.217 466.944C677.075 467.174 676.876 467.363 676.64 467.494C676.404 467.626 676.138 467.694 675.868 467.693C674.073 467.746 672.277 467.928 671.11 466.003C670.495 465.089 669.692 464.319 668.754 463.742Z" fill="#EDEBEA"/>
</svg>
