<svg width="1208" height="900" viewBox="0 0 1208 900" fill="none" xmlns="http://www.w3.org/2000/svg">
<path d="M1031.42 560.398C1032.38 560.738 1033.22 561.327 1033.87 562.104C1034.52 562.88 1034.96 563.815 1035.12 564.813C1035.33 566.391 1036 567.872 1037.04 569.068C1037.5 569.47 1037.32 570.576 1037.43 571.319C1039.4 572.861 1040.96 574.875 1041.96 577.174C1040.94 579.94 1041.48 583.424 1039.38 586.262C1037.2 587.392 1035.08 588.68 1032.81 589.607C1030.39 590.598 1028.28 587.846 1025.61 588.874C1025.47 589.258 1025.44 590.024 1025.03 590.379C1019.37 592.522 1013.57 594.31 1007.68 595.731C1006.95 597.077 1007.49 598.586 1007.31 599.982C1007.55 600.507 1008.02 600.511 1008.44 600.709C1010.97 601.689 1013.08 603.523 1014.41 605.893C1015.41 607.611 1016.79 609.073 1018.45 610.16C1019.35 610.874 1020.17 611.683 1020.89 612.576C1022.47 614.264 1022.96 616.738 1025.58 617.807C1027.58 618.619 1029 620.85 1030.76 622.537L1033.02 622.785C1032.8 625.118 1036.72 625.541 1035.24 628.097C1038.18 631.44 1041.56 634.378 1045.27 636.833C1045.48 638.007 1045.44 639.213 1045.15 640.37C1044.86 641.527 1044.33 642.61 1043.59 643.545C1039.55 646.273 1035.26 648.609 1030.78 650.52C1026.29 652.728 1021.55 654.369 1016.65 655.407L1015.81 654.621C1014.44 656.473 1012.41 655.162 1010.69 655.74C1009.78 656.803 1008.15 656.791 1007.11 657.659C1006.14 658.471 1003.97 658.013 1004.23 660.197C1002.86 660.497 1001.93 661.807 1000.31 661.643C998.668 661.54 997.021 661.525 995.377 661.601C990.724 663.414 987.591 667.148 982.822 667.613C979.559 670.977 974.823 670.897 970.967 672.738C966.356 674.94 961.571 676.626 956.964 678.736C955.58 679.369 953.657 678.961 952.725 680.58C948.842 680.978 945.077 682.149 941.652 684.024C934.692 686.481 927.703 688.919 920.833 691.627C912.95 694.735 904.81 697.088 896.934 700.252C892.423 702.341 887.639 703.779 882.724 704.523C882.405 704.55 882.095 704.641 881.812 704.792C881.529 704.942 881.28 705.148 881.079 705.397C879.172 707.027 876.846 708.089 874.365 708.46C869.925 709.305 865.683 710.973 861.857 713.379C859.201 714.959 856.266 716.015 853.211 716.491C848.816 717.441 844.618 719.149 840.808 721.538C838.812 722.391 836.727 723.019 834.592 723.411C831.163 724.759 827.573 725.659 824.165 727.198C821.797 728.454 819.085 728.904 816.439 728.479C812.577 730.928 808.295 732.638 803.809 733.524C801.921 733.749 800.554 735.168 798.673 735.645C796.119 736.293 793.639 737.172 791.045 737.791C788.66 738.36 786.237 739.744 783.723 740.507C783.571 740.553 783.338 740.444 783.233 740.524C780.469 742.238 777.446 743.494 774.281 744.246C769.629 745.876 765.044 747.726 760.324 749.124C756.649 750.166 753.104 751.621 749.756 753.461H745.14C744.766 753.812 744.467 754.301 744.044 754.46C736.116 757.433 728.224 760.521 720.198 763.203C718.19 763.875 715.811 763.746 713.74 764.522C711.869 765.223 710.107 766.216 707.757 767.339H703.816C700.787 768.641 698.485 770.873 695.229 770.48C693.027 772.335 690.043 772.45 687.651 773.896C685.39 775.276 682.857 776.149 680.225 776.453C679.605 776.534 679.005 776.731 678.457 777.034C675.433 778.582 672.26 779.821 668.987 780.733C666.348 781.587 663.801 782.702 661.383 784.06C658.431 785.796 655.196 786.998 651.828 787.614C649.409 788.083 647.059 788.859 644.835 789.922C638.28 792.172 631.875 794.837 625.659 797.902C622.817 799.525 619.417 799.454 616.438 800.988C613.175 802.71 609.745 804.093 606.2 805.115C602.459 806.138 598.709 807.199 595.089 808.527C591.892 809.421 588.828 810.735 585.977 812.434C583.196 812.317 580.437 812.982 578.015 814.353C575.686 815.568 573.191 816.432 570.609 816.918C567.202 817.597 564.659 820.231 561.103 820.592C558.777 821.073 556.478 821.674 554.213 822.392C551.714 823.278 549.16 824.006 546.568 824.568C544.531 825.171 542.616 826.123 540.907 827.383H537.274C536.369 828.573 535.144 829.479 533.742 829.997C532.34 830.514 530.819 830.62 529.359 830.303C526.906 832.696 523.337 832.08 521.219 834.409C518.33 834.267 516.368 836.366 513.97 837.41C508.186 839.928 502.366 842.374 496.657 845.054C494.533 846.051 493.021 844.642 490.945 844.208C491.29 842.43 489.407 841.019 489.759 838.924C487.811 836.889 485.32 835.1 485.719 831.867C484.87 831.075 483.989 831.606 483.18 831.367C480.359 825.036 475.264 819.995 468.904 817.242C469.052 815.67 468.552 813.731 467.69 813.305C465.709 812.325 464.939 810.218 463.273 809.021C462.85 808.37 462.667 807.592 462.755 806.82C462.842 806.049 463.196 805.332 463.754 804.793L461.8 804.084V800.839C459.013 800.226 459.162 796.283 455.916 796.314V791.99C452.915 789.474 450.502 786.331 448.848 782.781C447.418 780.036 444.792 778.543 442.891 775.918C443.266 774.222 441.417 772.778 441.599 770.924C438.58 769.217 435.984 766.853 434.004 764.005C432.21 761.858 430.824 759.302 428.936 757.167C428.563 756.858 428.262 756.47 428.055 756.032C427.848 755.593 427.74 755.115 427.738 754.63C427.775 753.908 425.251 751.114 424.476 750.497C423.968 750.093 423.032 749.576 423.081 749.22C423.545 745.882 420.151 745.819 418.818 744.018V741.934C415.564 739.703 414.294 735.62 411.224 733.543C410.652 732.599 411.601 732.651 411.45 731.813L408.959 726.961C408.126 726.001 406.921 726.927 406.292 726.463C405.634 725.961 405.083 725.331 404.674 724.611C404.264 723.891 404.004 723.096 403.909 722.273C403.554 720.207 402.453 718.343 400.816 717.034C400.226 716.447 399.671 715.821 399.044 715.275C394.364 710.832 390.24 705.837 386.763 700.399C385.781 699.005 384.272 698.066 383.762 696.204C383.543 695.615 383.136 695.114 382.604 694.779C382.072 694.445 381.445 694.294 380.819 694.351V691.869C377.665 689.159 375.069 685.86 373.176 682.157C372.107 680.564 370.85 679.105 369.434 677.81C368.144 676.729 368.017 674.866 366.07 674.146C363.927 673.354 362.832 670.784 362.067 668.913C361.362 667.169 360.222 665.635 358.755 664.458C357.627 663.351 356.768 661.999 356.247 660.507C354.493 657.75 352.349 655.262 349.88 653.123V651.155C347.003 650.8 347.968 646.653 344.897 646.334V643.058C343.907 642.52 342.903 642.465 342.292 641.574C341.32 640.155 341.669 637.728 339.19 637.447C338.931 635.722 338.134 634.124 336.912 632.88C335.742 631.437 335.042 629.608 333.847 628.191C332.693 626.823 332.4 625.085 331.416 623.687C329.891 621.29 328.22 618.989 326.412 616.798C324.987 615.231 324.676 612.498 321.942 612.212C322.437 610.9 320.602 610.521 320.824 609.143C321.121 607.293 319.514 606.836 318.147 606.476C317.846 605.769 318.551 605.702 318.595 605.595C319.578 603.758 316.829 602.933 317.907 601.349C317.84 601.195 317.749 601.053 317.638 600.927C313.841 597.701 310.841 593.642 308.871 589.066C307.914 587.128 305.504 585.926 305.944 583.011C301.811 581.851 303.514 576.018 299.334 574.628C297.807 571.08 296.052 567.634 294.082 564.312C292.354 560.998 289.102 558.607 288.792 554.766C287.902 554.673 287.358 554.888 286.973 554.226V550.459C285.164 548.353 283.918 545.969 282.383 543.793C281.001 542.264 280.115 540.351 279.845 538.307C279.707 537.56 279.354 536.871 278.83 536.321C275.407 533.549 275.202 529.063 272.93 525.716C270.827 522.616 269.955 518.736 266.93 516.215V513.314C265.196 512.24 264.895 509.717 262.973 508.321V504.6L254.962 493.305L255.942 492.19C255.89 489.1 252.516 488.022 251.936 485.293C251.402 482.786 248.901 481.335 248.595 478.848C247.931 478.725 247.357 479.032 247.059 478.296L247.623 477.637C244.116 470.925 241.065 463.985 238.49 456.864L235.277 453.653C234.688 451.241 233.775 448.92 232.564 446.753C231.631 445.808 230.918 444.67 230.475 443.418C230.033 442.166 229.872 440.832 230.004 439.511C228.932 438.315 226.982 437.037 227.146 436.153C227.624 433.584 223.802 432.987 225.155 430.349C221.237 428.186 221.02 424.097 220.07 420.511C219.612 418.782 218.885 418.021 217.409 417.799C216.765 415.71 215.736 413.759 214.374 412.049C212.863 410.787 213.991 407.966 211.378 407.785C211.242 406.053 210.176 404.623 209.885 402.886C209.377 401.221 208.459 399.71 207.214 398.493C206.249 397.295 206.332 395.529 204.459 394.616C203.611 394.202 203.072 392.318 201.951 391.433L202.791 390.595C200.62 386.825 198.152 383.233 195.411 379.855C194.527 378.856 195.643 377.091 194.009 376.436C194.888 374.394 191.184 375.46 191.955 373.347C192.425 372.061 190.33 371.308 190.92 369.751C191.039 369.438 190.293 368.679 189.816 368.28C188.59 367.042 187.626 365.57 186.98 363.952C185.049 359.669 182.573 355.652 179.614 352.003C178.907 351.174 178.369 350.214 178.029 349.179C176.25 344.18 172.624 340.157 170.711 335.226C170.439 334.526 169.553 334.065 168.927 333.469C169.192 330.637 168.572 327.792 167.152 325.326C167.467 325.134 167.714 324.847 167.857 324.507C167.999 324.167 168.031 323.79 167.947 323.43C167.268 322.169 165.225 323.714 164.275 321.925C163.659 320.765 162.761 319.879 163.059 318.456C164.633 318.23 165.469 316.953 166.523 315.983C167.521 315.981 168.519 315.982 169.493 315.982C173.148 313.039 177.438 310.988 182.024 309.992C185.536 307.726 189.38 306.022 193.417 304.94C196.311 303.729 199.045 302.168 201.558 300.291C204.539 298.674 207.768 297.564 211.113 297.006C213.022 296.398 214.93 295.783 216.817 295.178C215.729 291.395 214.133 287.776 212.075 284.42L212.84 283.656C210.092 280.619 213.82 277.492 212.849 274.346C209.431 273.592 209.431 273.593 208.983 270.612C209.318 269.964 209.808 269.407 210.41 268.994C211.011 268.582 211.705 268.324 212.431 268.245C218.599 267.805 224.135 263.687 230.716 265.261C231.26 265.61 231.672 266.132 231.886 266.742C232.1 267.352 232.104 268.016 231.897 268.628C230.251 270.104 228.161 270.989 225.957 271.144C221.877 271.377 217.85 272.173 213.988 273.507C216.799 277.081 219.28 280.904 221.401 284.926C225.542 290.025 229.087 295.579 231.969 301.482V303.484C232.604 304.654 233.871 304.931 234.949 305.504L233.845 306.608L236.215 308.144L234.707 309.81C237.41 312.067 238.083 315.592 239.839 318.562L239.244 319.195C238.969 320.567 240.396 319.609 240.708 320.222C240.926 320.976 241.258 321.691 241.693 322.344C242.134 322.827 241.979 323.854 242.092 324.656C243.884 324.904 244.738 326.416 245.942 327.433V333.202C246.953 335.022 247.932 336.613 248.743 338.286C249.521 340.658 250.723 342.867 252.293 344.807C254.054 346.5 253.809 349.119 255.333 351.089C256.33 353.155 256.945 355.385 257.147 357.67L259.824 360.16V364.153C261.357 365.997 263.141 367.693 262.952 370.366C262.878 370.837 262.992 371.317 263.269 371.704C265.164 373.814 266.417 376.419 266.882 379.215C267.807 381.739 269.647 383.697 270.7 386.127C271.132 387.126 270.777 387.636 269.966 388.335C271.759 391.157 273.604 393.98 275.355 396.859C276.001 397.911 276.52 399.036 276.898 400.21C278.279 404.313 280.079 408.263 282.269 411.997C284.095 414.86 285.59 417.921 286.725 421.121C287.316 423.8 288.923 426.146 291.208 427.665C291.842 428.192 292.448 428.753 292.683 428.961C293.057 432.569 294.383 436.011 296.524 438.938C299 441.639 300.098 445.22 302.498 447.965C303.854 449.515 303.413 452.479 306.315 452.834C307.038 454.684 307.923 456.466 308.96 458.162C310.134 459.508 311.446 460.728 312.874 461.802V465.175C313.388 466.031 313.943 465.746 314.231 465.802C316.399 468.061 315.802 472.168 319.805 473.151C319.395 475.795 323.162 476.381 322.883 479.129C324.906 480.353 324.579 483.843 327.046 483.949C332.136 492.952 338.032 501.474 344.662 509.411C344.749 510.491 345.103 511.533 345.692 512.443C346.281 513.352 347.086 514.1 348.037 514.621C349.463 515.476 349.388 517.419 350.639 517.661C352.549 518.031 352.418 519.723 353.327 520.692C354.289 521.56 354.886 522.761 354.995 524.052C355.339 525.431 356.123 526.661 357.229 527.555C360.311 530.335 362.692 533.803 364.18 537.677C364.729 539.239 366.745 539.442 366.787 540.989C366.827 542.482 368.277 543.423 368.005 545.094C367.932 545.546 370.053 546.076 370.144 547.527C372.886 548.008 373.234 550.339 373.814 552.41C374.203 553.799 374.849 554.713 376.504 554.771C377.896 559.765 383.316 562.597 384.025 568.39C385.639 570.158 387.901 571.78 387.995 574.987C388.014 575.657 389.82 577.406 390.528 577.514C391.328 577.68 392.048 578.111 392.572 578.737C393.097 579.363 393.395 580.147 393.418 580.963C393.993 583.878 396.369 585.724 397.164 588.443C397.381 588.911 397.74 589.3 398.189 589.555C398.638 589.81 399.154 589.919 399.668 589.866C399.947 592.851 402.393 595.012 402.99 598.129C406.32 602.119 408.877 606.958 412.603 610.957C412.935 611.745 411.565 611.665 411.888 612.467C412.503 613.882 412.828 615.638 414.784 616.111V618.273C415.746 619.362 416.817 620.35 417.979 621.222C419.036 621.882 418.262 624.177 420.354 623.694C421.007 625.091 421.468 626.57 421.723 628.091C421.723 629.301 422.021 630.492 422.592 631.558C423.163 632.624 423.988 633.533 424.995 634.203C427.145 635.645 428.543 637.863 430.74 639.146L429.76 640.275L431.695 640.962V643.78C434.674 647.476 437.185 651.391 440.38 654.795C441.245 655.889 441.853 657.163 442.158 658.524C443.092 660.864 444.539 662.964 446.394 664.669C447.227 665.431 447.751 666.473 447.868 667.595C447.996 669.375 449.57 669.719 451.273 669.582C452.939 672.155 453.018 675.446 455.622 678.555L458.567 679.896C458.946 680.452 458.104 680.484 457.997 680.9C459.543 684.636 462.286 687.753 465.795 689.762V693.147C467.045 693.761 468.149 694.633 469.037 695.705C469.925 696.776 470.575 698.024 470.945 699.366C472.483 699.63 473.92 700.309 475.102 701.328C476.284 702.348 477.167 703.668 477.655 705.15C477.983 706.23 478.672 707.166 479.605 707.801C481.036 708.707 480.544 710.121 481.016 711.436C484.54 710.928 484.861 713.822 486.103 716.365C487.414 716.792 489.822 716.314 489.793 719.286C489.771 721.583 492.417 721.917 493.627 723.39C494.638 724.387 495.714 725.317 496.847 726.173C498.214 727.387 499.397 728.808 500.767 730.02C501.989 731.327 503.321 732.528 504.748 733.609C506.088 734.656 507.219 735.947 508.081 737.414C509.036 738.762 511.002 739.01 511.634 740.348C512.462 741.746 513.531 742.986 514.791 744.012C515.701 744.941 515.6 746.889 517.525 746.808C517.277 748.688 519.969 748.326 520.018 750.216C520.053 751.559 522.345 750.996 522.729 752.473C523.127 754.006 524.653 754.647 525.519 755.813C526.267 756.821 526.719 758.426 527.689 758.825C530.667 760.05 531.48 762.797 533.069 765.323H537.379C540.35 763.46 543.635 762.151 547.073 761.463C549.228 761.033 551.264 760.139 553.038 758.843C553.988 757.908 556.038 757.833 557.265 757.173C559.174 756.147 561.442 757.011 563.093 755.504C564.735 754.326 566.603 753.501 568.58 753.083C571.926 751.922 575.194 750.477 578.61 749.599C580.186 749.194 581.437 748.32 582.887 747.836C585.228 747.054 587.126 744.904 589.918 745.506C595.39 742.62 601.521 741.428 607.106 738.741C609.814 737.27 612.646 736.042 615.57 735.07C618.398 734.28 621.216 733.441 623.998 732.504C628.301 731.282 632.526 729.8 636.648 728.064C638.87 727.002 641.422 726.873 643.769 725.971C648.224 724.259 652.487 721.986 657.057 720.686C663.059 718.716 668.956 716.439 674.724 713.865C677.184 712.885 679.788 712.485 682.291 711.656C686.548 710.244 690.485 708.08 694.786 706.818C701.006 704.992 706.699 701.619 712.898 699.969C717.019 698.871 720.638 696.867 724.565 695.491C729.787 693.662 734.949 691.624 740.13 689.671C744.446 688.043 748.977 686.891 753.402 685.508C757.651 684.18 761.639 681.98 765.916 680.786C771.599 679.2 776.837 676.566 782.359 674.636C782.981 674.383 783.556 674.024 784.057 673.576C786.41 673.787 788.768 673.219 790.767 671.961C794.084 669.744 798.246 669.117 801.649 666.93C805.082 667.177 807.292 664.475 810.139 663.305C812.983 662.135 815.903 660.902 818.761 660.05C824.162 658.441 828.846 655.39 834.066 653.538C837.872 651.497 841.868 649.832 845.996 648.567C850.884 645.594 856.147 643.288 861.646 641.71C864.377 639.864 867.56 638.797 870.852 638.625C871.591 636.896 873.812 638.379 874.627 636.907C875.414 635.487 877.076 636.07 877.998 635.426C881.9 633.19 886.137 631.601 890.546 630.718C892.845 630.024 894.694 628.615 896.837 627.798C898.969 627.364 901.04 626.671 903.005 625.736C903.583 625.348 904.455 625.158 904.981 624.549C905.871 623.109 907.098 621.906 908.556 621.046C910.014 620.186 911.659 619.693 913.35 619.611C914.373 619.266 915.356 618.812 916.281 618.257C916.373 617.471 916.462 616.685 916.549 615.93C916.931 615.82 917.384 615.565 917.503 615.674C920.13 618.083 922.832 616.16 925.043 615.286C928.644 613.862 932.163 612.438 935.91 611.314C939.383 610.272 942.789 608.643 946.371 607.708C947.112 607.514 947.413 606.988 947.936 606.648C952.516 604.086 957.253 601.814 962.116 599.842C965.508 598.196 969.298 597.125 972.862 595.664C974.873 594.84 976.064 592.445 978.618 592.675C983.118 590.25 987.955 588.515 992.97 587.523C997.551 586.056 1002.18 584.776 1006.83 583.561C1008.76 583.036 1010.75 582.743 1012.75 582.686C1015.24 580.376 1019.02 580.98 1021.27 578.179C1021.2 576.553 1020.64 574.987 1019.65 573.695C1018.66 572.404 1017.29 571.449 1015.74 570.963C1015.48 569.401 1014.94 567.9 1014.14 566.532L1015.2 565.266C1014.99 564.455 1014.2 564.832 1013.62 564.556C1013.02 563.263 1013.66 561.12 1011.48 560.734C1009.9 560.454 1009.54 559.375 1009.14 558.074C1007.91 555.417 1006.86 552.683 1005.99 549.892L1004.41 549.48C1004.63 547.92 1003.65 546.611 1003.14 545.098C1000.89 544.407 998.971 542.932 997.721 540.943C996.47 538.953 995.975 536.582 996.326 534.258C995.383 533.187 994.131 532.369 993.846 530.785C993.604 529.441 991.501 530.312 991.182 528.448C990.973 527.228 989.334 526.25 988.305 525.131V521.217C987.401 520.534 987.008 519.118 985.424 519.875L985.311 517.471C982.434 514.767 980.367 511.316 979.341 507.503C976.683 505.733 977.835 501.37 974.345 500.167C972.68 497.028 971.153 493.804 969.304 490.778C967.646 488.626 966.614 486.058 966.322 483.357L962.487 479.867C962.611 476.03 959.283 473.953 958.732 470.677C958.19 467.452 954.744 465.794 953.927 461.759L951.336 459.672V455.178L949.285 454.452C950.49 451.424 947.162 449.451 947.348 446.295L943.628 442.945C943.241 438.292 938.907 435.727 938.522 431.731C938.111 427.462 933.312 425.037 934.437 420.576C934.035 419.679 933.233 420.005 932.746 419.722C931.248 416.466 931.475 412.564 928.806 409.832C928.239 409.251 928.461 408.623 928.381 408.001C928.3 407.371 928.432 406.538 928.079 406.146C925.815 402.62 923.848 398.91 922.199 395.058C920.58 392.116 919.193 389.052 918.051 385.894H916.881C915.781 384.919 916.86 383.64 915.62 381.708L914.245 380.635C914.544 377.944 914.075 375.224 912.893 372.788C912.697 372.542 911.794 373.08 910.844 372.87C909.049 369.932 908.218 366.507 908.466 363.073C905.301 362.049 904.161 359.548 902.86 356.99C901.177 353.681 899.953 350.122 898.211 346.948C896.89 343.473 895.321 340.096 893.518 336.844C892.899 336.014 892.177 336.244 891.504 335.543V331.715C889.69 329.46 889.617 326.582 887.52 325.562C887.263 324.194 888.117 323.998 888.372 323.43C887.981 323.126 887.633 322.77 887.34 322.37C886.461 320.742 883.683 321.206 883.477 319.081C883.297 317.227 881.799 315.878 881.61 314.396C881.336 312.885 880.576 311.505 879.445 310.467L880.172 309.74L875.28 304.856L876.231 303.66C874.441 300.065 872.405 296.597 870.138 293.283C868.971 291.282 868.069 289.139 867.454 286.906C867.142 285.029 866.253 283.297 864.911 281.948C861.276 277.194 857.934 272.222 854.901 267.062H852.621C853.005 264.282 850.225 262.49 850.428 259.541C849.619 259.31 848.882 258.882 848.28 258.294C847.679 257.706 847.233 256.978 846.983 256.175C846.511 254.796 846.085 252.96 843.545 253.046C843.729 252.208 843.639 251.333 843.286 250.551C842.933 249.769 842.337 249.122 841.587 248.706C841.288 247.255 842.197 247.093 842.464 246.265C840.575 246.062 838.457 246.006 838.281 243.386C836.364 243.46 836.531 241.459 835.532 240.604C834.523 239.741 833.115 238.89 832.788 237.769C831.818 234.443 829.531 231.795 828.247 228.521C826.743 228.068 825.467 227.063 824.674 225.708C822.17 221.975 818.854 218.929 816.21 215.327C815.383 213.867 814.232 212.616 812.846 211.671C810.956 210.569 810.05 207.898 808.438 206.168C807.126 204.623 805.951 202.967 804.925 201.219C803.445 199.574 802.257 197.69 801.411 195.646C801.189 194.811 800.089 194.2 799.373 193.505C796.216 190.735 793.561 187.442 791.524 183.769C791.064 182.835 789.6 183.447 789.614 182.678C789.655 180.419 786.894 181.242 786.474 179.535C786.094 178.04 785.6 176.577 784.995 175.158C783.411 172.042 781.275 169.24 778.691 166.886C777.42 165.836 777.566 163.68 775.828 163.192C774.053 162.694 774.208 160.653 772.786 159.886C771.307 159.086 771.497 156.923 769.948 156.085C769.423 155.801 769.656 155.203 769.49 154.781C768.889 153.25 768.97 151.254 767.682 150.25C766.421 149.267 766.076 147.652 764.712 146.85C762.805 145.728 762.441 143.372 760.846 141.947C759.193 140.638 757.838 138.994 756.869 137.122C756.653 136.286 756.514 135.431 756.454 134.569C752.576 131.673 751.529 126.899 749.118 122.35C748.669 121.98 747.372 121.978 746.846 121.076C747.015 120.588 747.083 120.07 747.046 119.555C747.009 119.039 746.867 118.538 746.63 118.079C746.392 117.62 746.064 117.214 745.665 116.886C745.266 116.558 744.804 116.316 744.307 116.172C742.329 115.375 742.182 113.222 741.369 111.577C740.937 110.763 739.537 111.797 739.48 110.515L724.3 113.579C727.731 115.713 726.301 120.13 729.414 122.521V126.56L732.505 129.65L731.19 131.081H727.522C727.191 131.265 726.87 131.466 726.56 131.684C724.444 133.565 721.819 134.781 719.016 135.18C717.123 135.843 715.295 136.679 713.557 137.68C709.911 138.443 706.441 139.881 703.324 141.92C699.959 142.094 697.218 144.484 694.126 144.932C689.701 145.8 685.461 147.428 681.593 149.744C680.763 150.039 679.891 150.202 679.01 150.227L675.988 153.607C667.908 155.258 660.131 158.144 652.93 162.165C649.065 161.997 645.239 163.003 641.956 165.05C638.96 167.112 635.398 168.194 631.762 168.147C626.68 169.622 621.758 171.601 617.071 174.055C610.005 173.942 603.725 178.611 596.785 178.156C591.86 180.725 586.527 182.423 581.022 183.172C577.967 183.686 575.003 184.644 572.226 186.016C569.399 187.449 566.271 188.182 563.103 188.157C560.355 187.854 558.209 190.272 555.441 190.122C549.141 193.611 541.689 193.737 535.314 197.008C531.87 197.197 528.512 198.157 525.489 199.818C524.874 199.977 524.245 200.074 523.611 200.109C521.99 200.034 520.365 200.162 518.775 200.492C516.039 201.391 513.422 202.616 510.977 204.138C508.112 203.277 505.364 205.938 502.321 205.02L500.227 207.113C498.973 206.895 497.685 206.966 496.463 207.323C495.241 207.68 494.118 208.312 493.178 209.171C491.004 208.793 488.765 209.148 486.814 210.18C481.562 211.477 476.394 213.092 471.338 215.017C467.696 214.414 464.7 216.966 461.207 217.094C460.726 217.045 460.243 217.178 459.856 217.467C456.747 219.637 452.94 220.566 449.181 220.073L447.778 221.989C443.239 222.31 438.818 223.585 434.805 225.73C432.195 226.137 429.658 226.918 427.271 228.048C425.02 229.633 422.041 228.72 419.589 230.001C418.687 230.473 417.331 230.078 416.41 230.078C413.646 232.287 410.295 233.638 406.771 233.963C404.891 234.174 403.031 234.542 401.212 235.064C395.642 237.389 389.86 239.174 383.948 240.392C377.978 241.558 372.427 244.249 366.381 245.009C365.177 245.318 364.033 245.824 362.994 246.508C360.418 248.004 357.528 248.876 354.555 249.055C353.924 249.067 353.306 249.247 352.768 249.577C349.203 251.411 345.067 252.265 341.757 254.251C337.29 256.932 332.027 256.452 327.721 259.046C326.503 258.997 325.291 259.246 324.19 259.77C323.089 260.293 322.132 261.076 321.402 262.052C319.054 262.06 316.736 262.582 314.612 263.582C310.046 265.938 305.081 267.421 299.972 267.956C297.588 268.032 296.207 270.429 293.808 270.033C288.404 272.73 282.615 274.573 276.647 275.498C271.062 277.485 265.319 278.998 259.48 280.022C256.133 281.925 252.234 282.625 248.434 282.003C247.301 280.943 246.497 279.471 244.683 280.047C240.951 276.714 237.746 272.834 235.177 268.54C233.783 266.511 232.744 264.257 232.107 261.879C231.181 259.131 230.767 256.236 230.886 253.339C231.08 251.264 230.834 249.172 230.164 247.199C229.646 245.904 229.539 244.48 229.858 243.122C230.177 241.764 230.907 240.537 231.947 239.608V235.624C234.057 233.241 236.93 231.448 237.043 227.692C237.077 226.571 239.191 226.155 238.996 224.514L244.522 221.817C245.24 218.407 249.786 218.517 250.791 215.808C251.848 214.518 252.982 215.553 253.85 214.738C257.186 212.193 260.963 210.284 264.991 209.108C265.133 209.049 265.325 209.124 265.487 209.097C268.389 208.606 270.133 205.932 272.834 205.138C275.593 204.641 278.22 203.582 280.552 202.027C282.22 200.844 284.199 200.18 286.242 200.117C288.141 200.049 289.961 199.344 291.409 198.114L294.406 198.113C294.814 196.117 296.61 195.718 298.09 195.157C300.968 194.064 303.761 192.773 306.663 191.719C311.127 190.025 315.475 188.04 319.679 185.777C325.583 182.705 331.355 179.379 337.158 176.117C337.828 175.653 338.444 175.114 338.994 174.513C340.746 172.601 342.729 170.915 344.898 169.492C346.715 168.502 347.566 166.335 348.887 164.738C351.557 162.407 353.718 159.552 355.236 156.349C355.51 155.456 356.596 155.057 357.8 154.904C357.784 152.865 358.11 150.838 358.765 148.908C360.649 144.849 360.999 140.235 362.852 136.121C361.488 133.778 364.614 134.614 365.006 133.079C365.637 130.603 367.572 128.483 368.402 126.026C369.233 123.671 370.449 121.47 372.002 119.513C372.619 118.876 373.101 118.118 373.415 117.288C373.73 116.458 373.871 115.572 373.831 114.685C375.114 113.858 375.587 111.876 377.549 112.16C377.786 111.176 378.218 110.249 378.82 109.435C379.421 108.621 380.18 107.936 381.051 107.421C381.734 107.112 382.286 106.57 382.608 105.893C382.929 105.215 383.001 104.446 382.808 103.721C384.948 102.924 386.711 101.354 387.751 99.3215C388.037 98.5779 388.531 97.9319 389.172 97.4587C390.79 96.5852 392.894 96.3233 394.138 95.126C395.308 93.8223 396.737 92.7762 398.333 92.0535C399.369 91.6426 400.94 91.2788 401.246 89.4253C401.44 88.2512 402.931 88.0572 404.146 88.2449C407.267 85.6259 410.753 83.476 414.495 81.863C418.506 80.1789 422.354 78.1292 425.991 75.7412C428.505 74.248 431.202 73.0856 434.014 72.2817C434.605 72.0983 435.206 71.9473 435.814 71.8289C437.941 71.2609 438.948 68.769 441.773 69.0847C443.724 69.3031 445.495 67.179 447.914 67.0974C449.407 67.0474 450.47 64.8615 452.282 64.4302C454.986 64.6564 457.694 64.0356 460.029 62.6528C461.59 61.4246 464.215 62.9805 465.918 61.2649C470.957 61.0272 475.931 60.0163 480.663 58.2681C483.81 59.0321 486.621 56.8366 489.743 57.2561C491.524 57.4955 492.937 55.9567 494.831 56.21C496.398 56.2148 497.956 55.964 499.444 55.4678C502.749 55.1342 506.076 55.0565 509.394 55.2358C511.483 55.5931 513.632 55.2889 515.539 54.3655C516.923 53.424 518.894 54.5724 520.488 54.7976C521.866 54.9923 522.528 53.7866 523.83 54.2178C529.422 56.0698 535.66 54.2663 541.098 57.1633C544.17 57.034 546.943 59.353 549.912 58.0435L552.226 60.2456C552.568 60.3424 552.933 60.3073 553.249 60.1467C553.566 59.9862 553.81 59.7115 553.933 59.3789C555.836 60.3241 557.801 61.1412 559.813 61.8228C562.578 62.9447 565.114 64.5613 567.297 66.5945C570.382 68.7871 573.758 70.4867 576.846 72.6797C579.646 74.9201 582.702 76.8203 585.951 78.3389C588.126 79.2138 589.142 81.9818 591.629 82.7188C592.215 82.8927 592.768 83.1813 593.433 83.4573C593.481 84.0945 593.697 84.7078 594.059 85.2346C594.421 85.7615 594.915 86.1837 595.492 86.4578C596.894 87.1199 597.33 88.8467 598.759 89.1909C600.567 89.6267 600.334 91.4831 601.355 92.4002C602.067 93.0402 602.522 93.9427 603.581 94.2483C607.155 95.2801 610.306 97.825 614.335 97.2244C621.297 98.3551 628.367 98.6786 635.404 98.1887C637.5 98.2687 639.278 99.7243 641.493 99.2691C642.587 99.044 643.79 99.3333 644.119 98.345C645.179 98.0705 645.382 98.755 645.795 98.865C650.469 99.4315 655.202 99.3146 659.843 98.5195C662.098 97.8083 664.438 97.403 666.801 97.3135C671.053 96.9319 675.255 96.1145 679.34 94.8733C683.111 94.1242 686.993 94.1355 690.759 94.9063C693.779 95.5201 696.904 95.3662 699.848 94.4583L712.294 98.4634L718.852 105.08C724.523 105.305 730.188 104.5 735.572 102.702C738.021 102.155 740.479 101.625 742.957 101.242C745.79 101.294 748.569 102.018 751.069 103.352C751.731 103.559 752.288 104.328 753.204 104.302C753.471 106.46 755.54 107.299 756.272 108.459C757.007 111.224 757.23 113.564 760.136 114.402C761.56 114.813 761.698 116.362 761.564 117.666C764.368 121.15 769.137 123.294 768.549 128.762C769.535 129.088 770.427 129.651 771.146 130.399C771.865 131.148 772.391 132.061 772.677 133.059C772.927 134.317 773.459 135.503 774.231 136.527C775.002 137.552 775.995 138.389 777.135 138.977C778.86 139.568 778.947 140.936 779.321 141.698C780.282 144.418 782.035 146.788 784.354 148.501C784.815 148.852 785.167 149.326 785.369 149.868C785.571 150.411 785.615 150.999 785.496 151.565C786.543 152.194 788.19 152.46 788.401 153.714C788.626 155.045 788.588 155.921 790.175 156.536C790.967 156.843 790.875 159.047 791.72 159.702C792.739 160.492 794.052 160.742 793.476 162.45C794.801 164.467 797.294 165.556 797.94 168.12H799.881C801.048 168.787 800.12 169.992 800.647 170.799C801.234 170.984 801.802 171.226 802.342 171.52C804.424 172.914 803.763 176.208 806.795 177.271C809.291 178.146 809.284 181.396 810.528 183.507C811.696 185.489 812.462 188.018 815.34 188.36L815.611 190.86C817.423 191.293 819.876 191.076 819.447 194.033C819.195 195.77 821.103 194.743 821.629 196.059C822.131 197.267 822.879 198.357 823.823 199.263C824.767 200.168 825.888 200.87 827.116 201.321C827.61 202.657 828.925 203.856 828.479 205.619C831.023 206.702 833.111 208.636 834.385 211.089C835.052 212.288 837.413 212.52 836.485 214.618C837.715 215.82 838.77 217.235 840.369 217.464C840.606 218.677 839.979 219.036 839.502 219.538C839.773 219.91 840.089 220.249 840.443 220.543C841.087 220.961 841.833 221.221 842.485 221.629C844.665 222.992 844.568 226.043 846.442 227.412C848.252 228.735 850.222 229.721 850.896 232.036C851.42 233.382 852.269 234.578 853.366 235.518C853.791 235.967 854.541 236.221 854.448 237.061C854.125 239.953 856.342 239.939 858.355 240.357L858.493 242.527L861.718 245.116L860.853 246.14C860.066 246.851 860.981 246.96 861.173 247.255C861.44 247.664 861.939 247.927 862.187 248.343C862.416 248.727 862.358 249.282 862.587 249.666C862.854 250.091 863.213 250.451 863.637 250.719C864.089 250.939 864.564 251.107 865.054 251.221C866.184 253.979 867.624 256.599 869.347 259.031C869.532 259.227 869.921 259.232 870.219 259.326C870.447 259.94 869.771 260.015 869.586 260.424C869.648 261.42 870.53 260.831 871.13 261.304C871.859 263.602 873.054 265.723 874.641 267.538C876.725 270.447 878.344 273.662 879.438 277.069C879.482 277.387 879.592 277.692 879.759 277.965C879.926 278.239 880.147 278.476 880.41 278.66C880.672 278.844 880.97 278.973 881.284 279.037C881.598 279.102 881.922 279.101 882.235 279.035C882.379 283.719 886.036 285.813 888.359 288.473C888.445 288.833 888.41 289.21 888.261 289.549C888.112 289.887 887.856 290.167 887.533 290.347C888.115 292.107 890.278 291.82 891.117 293.207C891.685 294.116 891.3 295.124 891.445 296.336C893.176 297.939 893.933 300.573 896.066 302.14C896.588 302.523 896.255 303.074 896.429 303.493C897.934 307.546 899.826 311.444 902.08 315.133C902.985 316.495 902.097 318.101 903.327 319.671C904.847 321.42 906.548 323.004 908.4 324.397L907.348 325.581L909.307 326.262V330.55C913.65 336.473 917.169 342.957 919.769 349.826L922.435 352.431C921.359 355.931 924.41 358.024 925.821 360.731C926.854 362.712 925.921 364.613 926.513 366.537C927.175 367.066 927.614 368.146 928.88 367.915C929.848 370.338 931.952 372.377 931.381 375.334C933.812 377.093 933.818 380.554 936.29 382.29C936.118 382.419 935.979 382.586 935.882 382.777C935.786 382.969 935.735 383.18 935.734 383.395C935.734 383.61 935.784 383.822 935.88 384.014C935.975 384.206 936.115 384.373 936.286 384.502C936.78 385.071 936.377 386.418 936.377 387.412C939.668 388.04 938.761 391.399 940.177 393.266C941.723 395.303 940.869 398.207 942.984 400.554C943.997 400.94 944.863 401.633 945.463 402.536C946.062 403.438 946.365 404.507 946.328 405.59C946.519 407.528 946.588 409.253 948.902 410.008C949.679 410.261 950.121 411.76 950.196 412.364C950.368 414.439 951.305 416.377 952.826 417.799C953.124 418.087 953.329 418.456 953.416 418.86C953.503 419.264 953.467 419.684 953.314 420.069C952.906 421.441 954.002 422.293 954.462 423.111C957.237 428.044 957.338 427.987 957.362 431.496C961.052 433.274 960.187 438.753 964.349 440.336C964.351 441.001 964.351 441.666 964.351 442.344L967.252 445.214C967.242 445.672 967.281 446.129 967.366 446.579C967.572 448.764 968.352 450.857 969.625 452.646C971.013 454.523 971.905 456.721 972.216 459.035C972.741 460.892 973.438 461.89 975.421 461.947L974.677 463.019C975.231 466.81 979.173 468.661 980.062 472.516L979.348 473.343C983.296 476.71 985.873 481.407 986.591 486.547L990.294 490.248V492.398C992.506 493.256 992.558 496.408 995.196 497.119L995.433 499.276C995.84 500.209 996.882 499.302 997.188 500.302L996.411 501.233C997.095 502.391 998.545 502.998 998.446 504.853C998.601 506.097 999.23 507.234 1000.2 508.029C1001.17 508.922 1002.42 509.393 1002.96 510.834C1003.27 512.263 1003.4 513.724 1003.34 515.185C1005.45 516.426 1007.01 518.42 1007.71 520.766C1008.58 522.898 1009.49 525.021 1010.61 527.271C1012.41 527.884 1013.64 529.658 1015.17 531.095C1015.3 532.811 1015.91 534.453 1016.93 535.838C1017.37 536.495 1017.86 537.12 1018.39 537.708C1019.48 539.282 1018.7 542.016 1020.83 542.627C1023.06 543.266 1022.96 545.554 1024.57 546.635C1025.61 547.323 1026.42 548.301 1026.9 549.447C1027.39 550.594 1027.52 551.858 1027.29 553.08C1027.79 553.934 1028.35 553.646 1028.93 553.749C1028.14 555.491 1029.89 556.848 1029.2 558.542L1031.97 558.843C1032.55 559.638 1031.54 559.64 1031.42 560.398ZM372.365 232.035C375.466 232.105 378.538 231.412 381.31 230.019C381.988 229.829 382.601 229.291 383.387 229.014C390.98 226.335 398.787 224.383 406.468 222.017C409.594 221.054 412.834 220.748 415.95 219.621C419.293 218.411 422.45 216.797 425.736 215.492C429.212 214.112 433.329 214.872 436.347 212.134C436.621 211.886 437.317 212.112 437.816 212.1C439.04 211.922 440.248 211.645 441.428 211.275C444.836 210.674 447.8 208.185 451.26 209.138C452.635 207.429 454.628 206.331 456.808 206.082C460.849 205.705 464.794 204.626 468.463 202.891C473.582 200.655 478.968 199.088 484.487 198.227C487.117 197.841 489.71 197.226 492.233 196.391C493.727 195.856 495.301 194.609 497.219 195.089C498.583 195.431 499.651 194.267 500.557 193.626C501.807 192.741 503.38 192.627 504.352 191.963C506.541 190.468 509.208 192.061 511.184 190.23C513.148 188.411 516.267 190.041 518.29 188.128C520.926 189.253 522.255 186.457 524.447 186.082C528.719 184.532 533.173 183.541 537.699 183.134C539.092 181.813 541.007 182.343 542.62 181.753C545.187 180.691 547.837 179.843 550.543 179.214C553.471 178.664 555.924 176.162 559.191 177.14C561.009 175.432 563.629 176.06 565.73 174.785C567.952 173.688 570.33 172.943 572.78 172.577C577.589 170.695 582.646 169.521 587.792 169.092C593.958 165.727 600.654 165.159 606.654 162.179C611.932 162.504 616.612 158.556 622.103 159.201C623.057 158.327 624.202 157.691 625.447 157.34C626.692 156.99 628.001 156.936 629.27 157.183C630.836 154.708 633.615 154.643 635.796 153.474C640.333 151.149 645.129 149.37 650.084 148.174C652.861 147.882 655.566 147.115 658.083 145.907C660.61 144.074 663.57 143.606 666.01 142.066C668.026 140.793 670.122 139.889 672.158 138.815C674.425 137.619 676.786 137.01 678.993 135.991C680.68 135.582 682.277 134.866 683.704 133.878C685.162 132.673 687.027 132.069 688.915 132.193C690.978 132.252 693.015 131.719 694.784 130.656C697.298 129.363 699.478 127.595 702.272 126.313C706.222 125.499 710.263 125.222 714.287 125.489C713.635 125.046 713.126 124.424 712.822 123.698C712.518 122.971 712.431 122.173 712.573 121.398C712.695 120.434 712.533 119.455 712.109 118.582C711.685 117.708 711.016 116.977 710.183 116.476C706.88 114.989 706.316 111.897 704.976 109.136C701.604 110.078 701.94 106.403 699.954 105.182C696.88 105.921 693.944 103.992 690.63 104.096C687.532 104.193 684.72 105.902 681.552 105.243C678.665 105.019 675.765 105.467 673.079 106.551C670.164 107.304 667.11 107.531 664.391 108.435C661.228 109.156 657.974 109.398 654.74 109.153C649.087 109.374 643.419 109.129 637.76 109.243C633.427 108.616 629.058 108.26 624.681 108.178C623.62 108.329 622.825 106.577 621.619 107.245C618.208 109.134 614.57 107.745 611.243 108.251C609.704 107.032 607.843 106.284 605.888 106.101C602.104 106.033 598.44 104.768 595.419 102.488C594.677 101.714 593.418 102.787 593.289 102.603C591.776 99.5058 591.454 96.6123 588.05 97.1023C584.8 94.4773 582.186 91.151 580.404 87.3721C577.958 86.8398 576.35 84.927 573.859 85.104L570.256 81.3076C569.33 81.0747 568.354 81.6714 567.79 80.8254C566.284 79.1334 564.483 77.7301 562.475 76.6836C559.718 74.1028 556.471 72.1027 552.926 70.8023C548.606 69.6994 544.504 67.8096 540.036 66.9436C537.626 66.4766 535.382 64.876 532.772 65.2957C530.104 65.7251 527.792 64.3148 525.195 64.1677C516.618 63.6822 508.163 65.4296 499.631 65.2163C496.613 65.2879 493.625 65.8182 490.767 66.7898C488.337 67.2871 485.947 67.9655 483.618 68.8186C481.203 69.5362 478.708 69.9503 476.19 70.0527C473.376 70.4458 470.59 71.0143 467.848 71.7556C465.033 72.615 462.121 73.0315 459.314 74.0274C457.082 74.6408 454.896 75.4059 452.769 76.3174C450.408 77.0814 448.096 77.9906 445.847 79.0408C443.696 80.472 440.629 80.6628 438.224 82.2427C435.665 83.3643 433.192 84.6705 430.822 86.1514C430.513 86.5154 430.128 86.8068 429.694 87.0059C429.26 87.205 428.788 87.307 428.31 87.3037C427.601 87.2972 426.9 87.449 426.257 87.7493C425.614 88.0496 425.047 88.49 424.597 89.0383C423.024 90.3422 421.224 91.3461 419.289 91.9998C418.056 92.6006 416.812 93.3203 415.562 93.8235C412.497 95.058 410.198 97.5849 407.019 98.5244C406.902 98.975 406.934 99.6041 406.643 99.8477C404.224 101.87 401.292 103.134 398.79 105.092C398.116 105.62 396.073 105.669 396.094 106.581C396.137 108.447 394.429 108.129 393.749 109.054C391.419 112.864 388.762 116.463 385.806 119.811V122.145C385.497 122.047 385.171 122.017 384.849 122.058C384.527 122.099 384.218 122.21 383.944 122.383C383.669 122.556 383.436 122.787 383.26 123.059C383.084 123.332 382.97 123.639 382.925 123.96C382.477 127.523 379.593 129.901 378.775 133.263C378.534 134.256 377.509 135.058 376.856 135.929C376.658 140.048 375.249 144.018 372.806 147.34L373.697 148.777C371.706 150.81 370.243 153.298 369.436 156.027C369.079 157.912 368.119 159.63 366.701 160.922C365.894 161.862 365.27 162.945 364.86 164.114C364.365 165.071 364.166 166.313 363.433 166.994C358.837 171.931 353.951 176.589 348.8 180.945C347.297 182.042 345.615 182.068 344.127 183.137C341.119 185.3 337.66 186.873 334.674 189.14C332.528 190.363 330.262 191.363 327.912 192.121C323.833 194.292 319.646 196.25 315.366 197.99C312.439 199.041 309.905 200.878 306.883 201.648C302.869 202.211 299.023 203.635 295.609 205.822C294.416 206.763 292.684 206.124 291.104 206.995C283.28 211.308 274.651 213.886 266.655 217.873C264.333 217.169 263.487 219.747 261.59 220.132C258.499 220.758 256.203 223.175 253.289 224.181C250.769 225.051 250.205 227.628 248.41 229.082C246.614 230.239 245.153 231.846 244.173 233.743C243.193 235.64 242.728 237.762 242.824 239.895C239.91 240.673 241.678 243.845 240.119 245.613C239.78 246.182 239.642 246.849 239.728 247.506C239.814 248.163 240.119 248.773 240.594 249.235C241.42 250.015 240.896 251.122 240.93 252.071C241.008 254.232 241.057 256.404 240.925 258.56C240.95 260.451 241.497 262.298 242.504 263.898C243.281 265.385 244.79 266.699 244.862 268.395C244.951 270.472 247.914 271.197 246.967 273.549C248.125 274.468 247.973 276.32 249.499 277.03C249.699 276.814 249.882 276.43 250.152 276.354C254.183 275.223 258.218 274.107 262.272 273.062C262.896 272.994 263.5 272.795 264.043 272.479C267.67 270.44 271.439 268.666 275.321 267.169C276.455 266.579 277.733 267.123 279.06 266.548C283.188 264.458 287.5 262.751 291.94 261.449C293.86 261.006 295.693 259.817 297.495 259.265C299.324 258.466 301.235 257.868 303.195 257.484C306.134 257.344 308.025 255.294 310.596 254.594C311.957 254.224 313.51 254.667 314.707 253.738C316.596 252.272 319.135 252.293 321.066 251.023C323.038 249.727 325.688 249.972 327.353 248.091C330.068 248.73 331.716 246.556 333.795 245.565C334.371 245.331 334.969 245.153 335.581 245.034C337.107 244.786 338.606 244.391 340.056 243.856C341.568 243.035 343.693 243.691 344.743 241.761C345.655 240.082 348.023 241.992 349.11 240.325C354.76 238.761 360.311 236.86 365.734 234.633C367.9 233.85 370.498 234.17 372.365 232.035Z" fill="#212222"/>
<path d="M577.177 444.726C576.401 443.372 575.343 442.201 574.074 441.292C572.806 440.383 571.356 439.759 569.824 439.46L564.374 433.856C563.569 434.027 562.733 433.984 561.95 433.731C561.167 433.478 560.464 433.024 559.911 432.414C556.49 428.804 551.376 426.905 549.298 421.965C547.17 420.779 545.276 419.216 543.706 417.354V415.11C537.894 413.777 534.531 409.013 530.409 405.096C529.571 404.458 528.251 405.373 527.357 404.13C526.705 403.224 526.798 401.944 525.67 401.293C524.865 400.828 523.925 400.743 523.202 399.948C521.439 398.552 520.224 396.58 519.773 394.377C519.683 392.977 518.616 392.492 517.807 391.439C517.377 388.651 518.568 385.442 516.21 382.944L520.712 378.979H522.149C522.629 377.648 523.464 376.474 524.565 375.584C530.463 371.352 536.357 367.116 542.298 362.945C545.117 360.965 548.038 359.131 550.908 357.225C551.954 356.53 552.988 355.817 554.192 355.001C558.397 354.829 562.527 356.147 565.855 358.723C567.263 359.994 569.049 360.77 570.939 360.93C573.988 362.865 575.512 366.549 579.033 367.925C580.717 370.924 584.741 371.849 585.915 375.76C587.532 375.979 589.097 376.485 590.536 377.253L590.785 379.544C591.548 380.229 592.405 379.768 593.186 379.89C594.598 378.477 596.01 377.065 597.509 375.567C597.59 374.876 597.384 373.791 597.823 373.351C600.577 370.121 602.888 366.539 604.697 362.7C605.893 360.818 607.242 359.039 608.73 357.38C610.398 355.601 611.408 353.306 611.592 350.875C614.695 347.225 617.127 343.054 618.775 338.555C619.728 335.746 621.259 333.166 623.267 330.983C625.384 328.509 625.712 325.28 627.492 322.676C627.984 321.716 628.553 320.796 629.192 319.926C629.645 319.439 630.451 319.042 630.55 318.503C631.375 314.024 634.856 310.997 636.728 307.078C638.385 303.611 640.78 300.378 642.111 296.828C644.374 290.794 648.593 285.923 651.137 280.096C651.868 278.421 653.721 277.236 654.453 275.562C655.306 273.61 657.639 272.109 656.657 269.488C657.884 267.7 658.882 265.765 659.629 263.729C659.881 263.275 660.2 262.861 660.573 262.501V258.591C663.029 256.475 665.154 254.003 666.877 251.257C667.651 249.738 669.136 250.253 670.302 249.852C672.944 248.784 675.837 248.499 678.636 249.03C680.131 249.135 681.631 249.144 683.126 249.056C686.45 249.123 689.74 249.727 692.871 250.844C693.159 250.97 693.468 251.037 693.781 251.043C697.929 250.586 701.939 252.131 706.018 251.951C707.94 251.867 709.161 253.531 711.115 253.122C712.802 252.932 714.503 252.91 716.194 253.055C716.564 253.778 717.144 254.372 717.858 254.758C718.572 255.144 719.387 255.304 720.194 255.217C724.166 258.898 721.957 262.558 720.988 266.055C719.923 269.429 718.675 272.742 717.251 275.981C716.278 279.066 715.044 282.062 713.561 284.937C712.051 287.057 710.792 289.345 709.811 291.756L710.236 292.182C708.119 296.546 706.083 300.839 703.96 305.091C701.87 309.275 701.445 314.001 698.934 318.952L695.678 321.884V327.486C693.702 328.244 692.097 329.737 691.197 331.652C690.222 333.46 691.478 336.178 688.857 337.188C688.556 339.06 687.053 340.752 686.939 342.315C686.722 345.314 684.782 347.136 683.689 349.564C683.995 349.967 684.728 350.249 684.641 350.745L680.75 354.51C680.84 357.685 679.829 360.794 677.889 363.309C676.648 364.724 676.683 367.217 675.515 368.745C673.558 371.304 673.548 374.654 671.334 376.931L672.448 378.329C672.327 378.519 672.232 378.829 672.022 378.967C671.17 379.694 670.555 380.661 670.256 381.74C668.728 385.102 667.207 388.468 665.588 391.787C664.033 394.974 662.094 398.001 660.824 401.292C660.045 403.345 658.833 405.208 657.271 406.751C655.295 411.19 652.359 415.135 648.676 418.304V420.353C643.339 424.843 640.211 431.297 635.04 436.089C631.195 440.2 626.823 443.784 622.038 446.747C617.711 447.992 613.855 450.35 609.525 451.548C608.583 451.76 607.618 451.847 606.652 451.808C603.492 451.876 600.315 451.658 597.17 451.891C594.945 451.989 592.739 451.443 590.818 450.318C589.016 449.352 586.665 449.503 585.344 447.914C584.004 446.301 581.434 447.391 580.343 445.2C580.066 444.643 578.239 444.858 577.177 444.726Z" fill="#212222"/>
<path d="M558.904 308.017C560.344 307.811 561.81 308.113 563.051 308.871C566.331 307.439 569.689 306.193 573.11 305.139C574.21 304.852 574.847 303.463 576.156 303.997C579.457 300.122 584.47 299.11 588.531 296.524C590.089 295.533 592.769 295.842 593.047 293.125C594.456 292.983 595.468 291.407 597.082 292.01C601.582 289.971 606.256 288.338 611.047 287.131C611.335 287.018 611.875 286.91 611.969 287.038C613.062 288.542 614.375 286.408 615.096 287.099C615.524 287.471 616.028 287.746 616.573 287.904C617.118 288.062 617.69 288.1 618.251 288.015C619.24 288.013 620.229 288.015 621.14 288.015L623.486 290.362V293.661L620.779 296.367C617.331 297.695 613.643 298.288 609.953 298.109C607.299 298.309 604.729 299.125 602.446 300.492C597.934 303.469 593.099 305.924 588.033 307.81C585.451 308.846 582.997 310.174 580.715 311.767C579.2 312.74 577.158 312.372 576.095 313.987C571.151 314.058 566.874 317.296 561.849 316.985C561.683 316.975 561.458 316.913 561.359 316.994C558.184 318.898 554.863 320.547 551.428 321.926C549.696 322.959 547.873 323.949 546.112 324.848C543.945 325.955 541.558 326.678 539.412 327.948C536.704 329.418 533.894 330.693 531.005 331.764C528.884 332.639 526.786 333.643 524.661 334.541C519.533 337.028 514.251 339.185 508.848 341.001C507.576 341.563 506.344 342.21 505.159 342.937C501.777 344.418 498.296 345.684 494.966 347.27C489.538 350.018 484.327 353.175 479.379 356.716C477.296 358.244 475.319 359.911 473.461 361.705C471.401 363.772 469.223 365.718 466.94 367.535C464.831 369.203 463.382 371.566 462.85 374.201C462.534 375.759 461.841 377.215 460.831 378.442C460.528 383.811 461.174 389.273 460.438 394.701C460.405 394.945 459.974 395.135 459.75 395.332C460.403 396.352 460.768 397.53 460.808 398.741C460.848 399.952 460.56 401.151 459.976 402.213C460.972 403.861 460.517 406.314 462.684 407.181C464.073 414.488 465.98 421.686 468.389 428.723L467.767 429.409C467.767 429.575 467.697 429.792 467.776 429.901C469.631 432.436 469.667 435.82 471.678 438.382C472.401 440.57 470.611 443.243 472.748 445.326C472.148 447.82 474.364 449.891 473.808 452.379C475.922 453.799 476.186 456.441 477.718 458.43C477.817 461.431 477.436 464.847 481.536 466.103C481.818 466.709 481.092 466.768 481.03 466.928C480.046 468.715 482.828 469.536 481.628 471.275C483.792 472.921 485.385 475.204 486.181 477.804C486.502 478.704 486.312 479.749 486.686 480.763C486.901 481.357 487.274 481.882 487.765 482.28C488.256 482.678 488.846 482.936 489.472 483.023C489.753 485.262 490.526 487.412 491.734 489.317C492.942 491.223 494.557 492.838 496.462 494.048C497.192 494.464 497.796 495.071 498.207 495.805C499.171 497.678 500.108 499.493 502.422 499.964C503.05 501.831 504.316 503.415 505.997 504.442C507.769 506.227 510.003 507.484 512.449 508.071C512.409 511.288 516.982 511.113 517.985 514.566C518.634 515.281 520.383 514.196 521.147 515.667C521.795 516.918 522.997 516.87 524.183 516.759C525.004 517.524 525.053 518.713 525.926 519.533C529.186 522.982 532.72 526.16 536.494 529.038C536.882 529.3 537.065 529.783 537.7 529.767C541.106 529.678 542.477 532.317 544.022 534.727C546.917 534.845 549.987 534.15 552.202 536.739C554.533 536.739 556.875 536.604 559.193 536.781C561.22 536.935 563.465 535.858 565.25 537.674C566.798 535.377 569.963 538.254 571.124 535.814C572.234 535.586 572.611 536.185 573.317 536.877C575.559 535.058 578.518 535.669 581.234 534.887C585.933 533.534 597.123 529.884 602.315 527.851C606.234 525.995 610.359 524.609 614.604 523.722C615.368 523.577 616.082 523.237 616.675 522.734C619.024 521.222 621.612 520.121 624.33 519.478C628.515 517.95 632.533 515.973 636.651 514.255C641.49 512.632 646.137 510.488 650.512 507.86C651.046 507.486 651.648 506.663 652.534 506.779C655.693 506.689 658.731 505.539 661.157 503.514C664.929 500.753 669.228 498.797 673.787 497.765C675.107 497.62 675.827 496.305 676.858 495.632C679.235 494.078 682.171 493.915 684.375 491.876C686.614 490.195 688.983 488.694 691.459 487.387C693.828 485.821 696.18 484.206 698.377 482.414C699.299 481.663 700.209 481.955 701.12 481.754C702.049 481.427 700.971 479.453 702.626 479.815C704.122 479.759 703.144 481.239 703.914 481.64C704.157 481.558 704.383 481.432 704.583 481.272C708.471 477.229 712.972 473.822 717.918 471.175C719.469 470.458 720.952 469.601 722.349 468.617C723.652 467.474 725.421 466.881 726.451 465.29L725.334 464.05C727.573 461.331 729.332 458.252 730.536 454.942C730.696 454.313 730.219 454.039 729.902 453.683C730.38 452.81 730.645 451.837 730.674 450.843C730.704 449.849 730.498 448.863 730.072 447.964C728.823 446.104 730.173 443.94 728.693 441.977C727.613 440.546 729.456 437.921 727.59 436.313L728.507 435.396C727.784 434.554 726.396 434.717 725.826 433.618C725.862 432.77 725.816 431.922 725.687 431.084C725.497 427.763 724.241 424.592 722.106 422.042C720.668 420.355 719.747 418.29 719.454 416.092C719.31 414.612 718.591 413.247 717.452 412.291C718.571 409.277 715.851 407.006 715.652 404.248C715.419 401.021 712.743 399.448 711.564 396.92C711.405 396.107 712.283 395.926 712.511 395.345L709.728 392.563C709.504 391.898 710.953 391.769 710.258 391.139C707.974 389.066 709.388 384.831 705.767 383.536C705.563 383.463 705.715 382.608 705.557 382.169C704.714 378.918 703.036 375.944 700.69 373.542C700.001 371.623 701.673 370.667 701.761 369.203C702.808 368.534 704.501 369.523 705.204 367.87C706.678 368.515 707.993 369.473 709.057 370.678C713.102 374.539 716.357 379.15 718.641 384.255C718.952 385.036 719.468 385.718 720.134 386.23C720.801 386.742 721.593 387.066 722.427 387.165V390.341C725.439 392.076 725.365 395.647 726.297 398.458C727.022 401.136 728.182 403.677 729.733 405.977C731.75 408.54 731.743 412.047 734.309 414.139C734.383 416.362 736.199 418.202 735.417 420.615L737.12 420.964C738.215 422.574 738.454 424.804 740.575 426.3C740.557 430.947 741.633 435.533 743.715 439.688C743.682 439.508 742.76 439.769 742.64 440.315C742.478 441.052 742.154 442.009 742.868 442.63C743.552 443.225 743.374 443.492 742.852 444.096C742.253 444.79 743.552 444.913 743.542 445.534C743.465 446.363 743.478 447.198 743.58 448.023C743.828 448.638 744.173 449.209 744.6 449.715C742.584 452.638 743.951 456.007 743.477 459.201C741.532 461.641 739.853 464.282 738.469 467.079C738.088 468.386 737.405 469.586 736.476 470.582C735.546 471.578 734.396 472.341 733.117 472.811C727.351 477.402 721.138 481.4 714.572 484.747C714.193 484.98 713.624 485.1 713.404 485.486C710.422 490.716 704.832 492.58 700.3 495.844C693.435 500.371 686.208 504.325 678.694 507.667C676.066 509.618 673.12 511.097 669.985 512.039C666.225 512.95 662.654 514.516 659.438 516.666C652.689 520.387 645.582 523.42 638.224 525.717C637.626 525.877 637.041 526.082 636.474 526.33C633.344 528.007 630.045 529.349 626.632 530.33C621.819 531.973 617.182 534.092 612.79 536.656C608.273 537.082 603.865 538.292 599.764 540.233C595.789 541.913 591.685 543.273 587.493 544.298C583.94 544.874 580.425 545.667 576.969 546.673C575.011 547.214 572.945 546.489 570.828 547.579C569.145 548.445 566.699 547.262 564.788 548.679C564.486 548.828 564.154 548.907 563.818 548.908C563.481 548.91 563.149 548.834 562.846 548.687C559.43 546.835 555.775 548.035 552.246 547.756C550.26 547.599 547.984 548.313 546.331 547.558C544.802 546.834 543.199 546.277 541.55 545.899C539.698 545.586 537.925 544.913 536.332 543.917C535.85 543.602 535.068 543.747 534.131 543.652C532.667 541.867 530.755 540.503 528.591 539.699C526.367 539.101 526.093 536.19 523.381 535.526C521.3 535.016 520.458 532.044 519.364 529.841H516.519C513.025 527.441 511.764 523.11 507.883 520.785H506.346C503.748 518.62 501.864 515.747 498.35 514.624C496.826 514.137 495.793 512.112 494.677 510.934C492.574 510.777 491.316 510.493 490.566 508.171C489.885 506.059 489.186 503.158 486.063 502.623C485.227 501.662 486.508 499.879 484.792 499.254C485.207 498.729 485.935 498.434 485.813 497.956C485.46 495.704 482.96 496.088 482.309 494.109C482.139 493.362 481.791 492.667 481.294 492.085C480.797 491.502 480.165 491.05 479.454 490.765C477.746 490.3 477.928 487.686 475.894 487.451L476.769 485.963C476.676 485.638 476.681 485.254 476.491 485.056C474.719 483.204 472.669 481.562 472.706 478.601C472.712 478.106 471.852 477.654 471.579 477.092C470.333 475.129 469.354 473.008 468.666 470.787C467.899 467.027 465.262 463.888 464.467 460.056C464.381 459.643 463.727 459.481 463.757 458.851C463.161 452.949 461.616 447.181 459.182 441.771C458.798 440.356 458.718 440.377 459.761 438.368C457.678 436.286 457.985 433.087 456.233 430.852C455.583 430.872 454.874 430.987 454.786 430.041C454.622 429.214 455.327 428.908 455.728 428.379L454.802 427.361L455.641 426.434C452.774 421.55 451.922 415.846 448.715 411.078C449.539 409.885 449.897 408.431 449.72 406.992C449.544 405.553 448.846 404.229 447.759 403.27C448.142 401.737 447.124 399.925 448.701 398.281C449.347 397.607 448.796 396.141 447.868 395.312C449.133 394.555 448.756 393.307 448.776 392.195C448.892 390.7 448.882 389.198 448.748 387.705C448.762 383.486 449.169 379.278 449.963 375.134C450.564 372.347 452.073 369.838 454.254 368.003C456.146 365.567 457.858 362.996 459.375 360.31C460.72 360.506 461.166 358.237 462.8 357.948C464.26 357.689 463.732 355.121 465.702 355.508C465.261 353.459 467.48 353.423 468.154 353.253C470.524 352.655 471.194 349.791 473.645 349.565C473.986 346.982 476.279 346.806 478.052 345.94C482.209 343.907 486.307 341.756 490.477 339.752C494.342 337.836 498.313 336.142 502.37 334.677C504.209 334.21 505.919 333.333 507.372 332.112C509.212 330.988 511.266 330.261 513.403 329.975C516.796 328.932 520.171 327.71 523.444 326.461C526.709 325.035 529.852 323.346 532.842 321.411C534.156 320.638 535.47 319.531 537.241 319.974C537.961 320.154 538.399 319.669 538.956 319.282C541.809 317.426 544.876 315.924 548.09 314.808C551.626 313.279 555.08 311.569 558.439 309.684C558.714 309.542 558.695 308.821 558.904 308.017Z" fill="#212222"/>
<path d="M372.365 232.035C370.498 234.17 367.9 233.852 365.734 234.634C360.311 236.861 354.76 238.761 349.11 240.325C348.023 241.992 345.655 240.082 344.743 241.76C343.693 243.69 341.568 243.034 340.057 243.856C338.606 244.391 337.107 244.786 335.581 245.034C334.97 245.152 334.371 245.33 333.795 245.565C331.716 246.555 330.068 248.73 327.353 248.091C325.688 249.972 323.038 249.727 321.067 251.023C319.135 252.293 316.596 252.272 314.707 253.738C313.51 254.667 311.957 254.223 310.596 254.594C308.024 255.294 306.134 257.345 303.194 257.486C301.235 257.869 299.324 258.466 297.495 259.265C295.694 259.817 293.86 261.006 291.94 261.449C287.5 262.751 283.188 264.458 279.06 266.548C277.733 267.123 276.454 266.579 275.321 267.169C271.438 268.665 267.669 270.441 264.043 272.481C263.5 272.796 262.897 272.994 262.272 273.062C258.218 274.107 254.182 275.223 250.151 276.354C249.881 276.43 249.699 276.814 249.499 277.03C247.973 276.32 248.125 274.469 246.967 273.55C247.914 271.199 244.951 270.472 244.862 268.395C244.79 266.699 243.281 265.385 242.505 263.898C241.497 262.298 240.951 260.451 240.926 258.56C241.057 256.404 241.008 254.231 240.931 252.07C240.896 251.122 241.42 250.015 240.594 249.235C240.119 248.772 239.814 248.163 239.728 247.506C239.642 246.849 239.78 246.183 240.119 245.614C241.679 243.846 239.91 240.673 242.824 239.895C242.728 237.762 243.193 235.64 244.173 233.743C245.154 231.845 246.614 230.238 248.41 229.082C250.205 227.628 250.77 225.051 253.289 224.181C256.203 223.175 258.499 220.758 261.59 220.132C263.487 219.747 264.333 217.169 266.656 217.872C274.651 213.886 283.279 211.308 291.103 206.995C292.684 206.123 294.416 206.763 295.609 205.822C299.023 203.635 302.868 202.211 306.883 201.648C309.905 200.878 312.439 199.041 315.366 197.99C319.646 196.25 323.833 194.292 327.912 192.121C330.262 191.363 332.529 190.364 334.674 189.141C337.66 186.874 341.119 185.3 344.127 183.137C345.614 182.068 347.297 182.042 348.8 180.945C353.951 176.589 358.837 171.931 363.433 166.994C364.166 166.313 364.365 165.071 364.86 164.114C365.27 162.945 365.894 161.862 366.701 160.922C368.119 159.63 369.079 157.913 369.435 156.028C370.243 153.299 371.706 150.81 373.697 148.777L372.806 147.34C375.249 144.017 376.657 140.048 376.856 135.929C377.508 135.058 378.534 134.257 378.775 133.264C379.594 129.902 382.478 127.523 382.925 123.96C382.97 123.639 383.084 123.332 383.26 123.059C383.436 122.787 383.669 122.556 383.944 122.383C384.218 122.21 384.527 122.099 384.849 122.058C385.171 122.017 385.498 122.047 385.807 122.145V119.811C388.762 116.463 391.419 112.864 393.749 109.054C394.429 108.129 396.137 108.448 396.094 106.582C396.073 105.671 398.116 105.62 398.791 105.092C401.292 103.134 404.224 101.872 406.643 99.8488C406.934 99.6054 406.902 98.9759 407.02 98.5256C410.198 97.5856 412.497 95.0579 415.562 93.8234C416.812 93.32 418.056 92.6005 419.289 91.9997C421.225 91.3461 423.024 90.3433 424.597 89.0395C425.047 88.4912 425.614 88.0507 426.257 87.7504C426.9 87.4501 427.601 87.2971 428.31 87.3036C428.788 87.3069 429.26 87.2049 429.694 87.0058C430.128 86.8067 430.513 86.5153 430.822 86.1513C433.191 84.6704 435.665 83.3642 438.224 82.2426C440.629 80.6626 443.696 80.4719 445.847 79.0407C448.096 77.9905 450.407 77.0813 452.769 76.3173C454.896 75.4058 457.083 74.6407 459.314 74.0273C462.121 73.0314 465.033 72.6162 467.848 71.7568C470.591 71.0154 473.377 70.4457 476.19 70.0527C478.708 69.9503 481.203 69.5361 483.619 68.8185C485.948 67.9655 488.337 67.287 490.767 66.7897C493.625 65.8181 496.614 65.2878 499.631 65.2162C508.163 65.4295 516.618 63.6821 525.195 64.1676C527.793 64.3147 530.104 65.7262 532.773 65.2968C535.382 64.8768 537.627 66.4766 540.036 66.9435C544.505 67.8095 548.607 69.6993 552.926 70.8022C556.471 72.1026 559.718 74.1027 562.474 76.6835C564.483 77.73 566.284 79.1333 567.789 80.8254C568.353 81.6714 569.331 81.0746 570.256 81.3075L573.859 85.1039C576.35 84.9269 577.958 86.8397 580.404 87.372C582.186 91.1509 584.8 94.4772 588.05 97.1022C591.454 96.6122 591.776 99.5054 593.289 102.603C593.418 102.787 594.677 101.714 595.419 102.488C598.44 104.768 602.105 106.034 605.888 106.102C607.844 106.286 609.704 107.032 611.243 108.251C614.57 107.745 618.208 109.134 621.619 107.245C622.826 106.577 623.62 108.329 624.681 108.178C629.059 108.26 633.427 108.616 637.76 109.243C643.418 109.13 649.087 109.376 654.74 109.154C657.975 109.399 661.228 109.156 664.391 108.435C667.11 107.53 670.164 107.304 673.079 106.55C675.765 105.467 678.665 105.019 681.552 105.243C684.72 105.902 687.532 104.193 690.63 104.096C693.944 103.992 696.88 105.921 699.954 105.182C701.94 106.403 701.604 110.078 704.977 109.136C706.317 111.897 706.88 114.99 710.183 116.477C711.016 116.978 711.685 117.709 712.109 118.583C712.533 119.457 712.695 120.434 712.574 121.398C712.431 122.172 712.517 122.971 712.821 123.698C713.126 124.424 713.635 125.046 714.286 125.488C710.263 125.222 706.222 125.499 702.272 126.312C699.478 127.595 697.299 129.362 694.784 130.656C693.015 131.719 690.978 132.252 688.915 132.193C687.027 132.069 685.163 132.673 683.704 133.878C682.277 134.866 680.68 135.582 678.993 135.991C676.786 137.01 674.424 137.619 672.157 138.815C670.122 139.889 668.026 140.793 666.01 142.066C663.57 143.606 660.61 144.074 658.083 145.907C655.566 147.115 652.861 147.882 650.085 148.174C645.129 149.37 640.332 151.15 635.796 153.476C633.614 154.644 630.836 154.708 629.27 157.183C628.001 156.936 626.692 156.99 625.447 157.34C624.202 157.691 623.057 158.329 622.103 159.202C616.612 158.557 611.932 162.504 606.654 162.179C600.654 165.159 593.958 165.727 587.792 169.092C582.646 169.521 577.589 170.695 572.78 172.577C570.33 172.943 567.952 173.688 565.73 174.785C563.629 176.06 561.009 175.432 559.191 177.14C555.924 176.162 553.471 178.663 550.543 179.214C547.837 179.843 545.187 180.692 542.62 181.754C541.007 182.345 539.092 181.814 537.699 183.134C533.173 183.541 528.719 184.532 524.447 186.082C522.255 186.457 520.926 189.253 518.29 188.128C516.268 190.041 513.148 188.411 511.184 190.23C509.208 192.06 506.541 190.468 504.352 191.963C503.38 192.627 501.808 192.741 500.558 193.626C499.651 194.267 498.584 195.431 497.22 195.089C495.301 194.609 493.727 195.856 492.233 196.391C489.709 197.226 487.118 197.841 484.487 198.226C478.968 199.087 473.582 200.655 468.463 202.891C464.794 204.626 460.849 205.706 456.808 206.083C454.629 206.332 452.635 207.429 451.26 209.138C447.8 208.185 444.836 210.675 441.428 211.276C440.248 211.646 439.039 211.922 437.815 212.1C437.316 212.112 436.621 211.885 436.347 212.134C433.329 214.872 429.212 214.112 425.736 215.492C422.45 216.797 419.293 218.411 415.95 219.621C412.835 220.748 409.594 221.054 406.468 222.017C398.787 224.383 390.98 226.335 383.387 229.014C382.601 229.291 381.988 229.829 381.31 230.018C378.538 231.412 375.467 232.105 372.365 232.035ZM490.799 104.138C490.136 104.144 489.475 104.068 488.831 103.911C487.111 103.267 485.5 101.975 483.553 102.256C481.328 102.312 479.121 101.846 477.109 100.896C476.248 100.537 475.337 100.314 474.409 100.232C471.262 100.004 468.102 100.04 464.961 100.341C461.99 100.434 459.066 101.1 456.347 102.299C454.701 103.139 452.997 103.858 451.246 104.448C449.46 105.225 447.134 105.398 445.993 107.465C445.715 107.85 445.296 108.112 444.828 108.194C440.762 108.93 437.969 112.432 433.94 113.184C433.472 113.29 433.036 113.504 432.666 113.809C432.296 114.113 432.002 114.499 431.808 114.937C430.563 117.211 428.864 119.205 426.815 120.794C425.881 121.359 425.07 122.107 424.43 122.991C423.789 123.875 423.332 124.878 423.085 125.941C424.553 127.319 423.47 129.089 423.599 129.612L426.256 133.19C427.526 133.19 428.591 132.855 429.148 133.245C432.407 135.015 436.147 135.695 439.82 135.186C442.312 135.197 444.807 135.267 447.293 135.156C448.652 135.096 449.439 136.765 450.866 136.182C455.223 134.966 459.655 134.038 464.134 133.405C469.383 132.12 474.517 130.403 479.482 128.27C481.9 126.587 484.676 125.487 487.591 125.058C489.295 122.031 492.889 121.241 494.753 118.567C494.333 115.37 496.699 112.884 496.776 109.768L490.799 104.138Z" fill="white"/>
<path d="M490.799 104.137L496.777 109.766C496.699 112.882 494.333 115.368 494.754 118.565C492.889 121.239 489.295 122.029 487.591 125.055C484.676 125.484 481.901 126.585 479.483 128.268C474.517 130.401 469.383 132.118 464.134 133.402C459.655 134.036 455.223 134.964 450.866 136.179C449.44 136.763 448.652 135.094 447.294 135.154C444.807 135.265 442.312 135.195 439.821 135.183C436.147 135.693 432.407 135.013 429.149 133.242C428.591 132.852 427.526 133.187 426.256 133.187L423.599 129.61C423.47 129.087 424.554 127.317 423.085 125.939C423.332 124.875 423.789 123.873 424.43 122.988C425.071 122.104 425.882 121.357 426.815 120.791C428.864 119.203 430.564 117.21 431.808 114.936C432.003 114.498 432.297 114.111 432.667 113.806C433.037 113.502 433.473 113.288 433.94 113.181C437.969 112.43 440.763 108.928 444.828 108.191C445.297 108.109 445.715 107.848 445.994 107.462C447.134 105.396 449.46 105.223 451.246 104.446C452.997 103.855 454.702 103.137 456.347 102.296C459.066 101.097 461.99 100.432 464.96 100.338C468.101 100.038 471.262 100.002 474.409 100.23C475.338 100.311 476.248 100.535 477.108 100.894C479.121 101.844 481.328 102.31 483.552 102.254C485.5 101.973 487.112 103.265 488.831 103.909C489.475 104.066 490.136 104.143 490.799 104.137V104.137Z" fill="#212222"/>
</svg>
