<svg width="1208" height="900" viewBox="0 0 1208 900" fill="none" xmlns="http://www.w3.org/2000/svg">
<path d="M889.105 253.533C892.949 257.492 897.154 261.084 901.665 264.264C906.271 268.066 910.215 272.606 913.336 277.699C913.131 280.963 915.758 283.146 916.553 286.09C917.479 288.775 918.712 291.344 920.229 293.745C921.085 295.315 920.088 296.971 920.852 298.604C921.88 300.403 922.421 302.438 922.423 304.51C922.124 307.075 925.594 307.808 924.62 310.323C925.82 311.383 926.128 312.454 924.66 313.547C925.883 314.202 925.254 314.963 924.784 315.715C925.889 316.36 925.342 317.554 925.695 318.403C926.66 320.872 926.977 323.546 926.616 326.171C926.392 328.244 928.868 329.709 927.703 331.901L925.912 333.64C925.564 334.339 926.405 334.393 926.461 334.782C926.919 337.105 926.834 339.502 926.212 341.786C925.59 344.07 924.449 346.179 922.876 347.949C920.803 350.245 919.743 353.259 917.512 355.464C917.171 355.8 917.464 356.777 917.464 357.456C916.602 358.196 914.717 358.189 914.743 359.261C914.795 361.459 912.93 362.249 912.082 363.729C911.211 365.248 909.331 366.119 908.909 368.048C906.571 368.533 906.628 371.64 904.593 372.197C902.588 372.746 901.117 374.677 898.816 374.313C897.941 376.042 896.034 376.659 894.809 378.023C894.056 378.861 893.458 380.055 892.039 379.436C891.577 382.09 891.776 384.816 892.62 387.374C893.464 389.932 894.927 392.243 896.877 394.1C895.56 397.397 895.58 397.542 897.998 402.461L896.094 404.364V407.598L892.872 409.946C892.159 409.942 891.46 410.146 890.862 410.533C890.263 410.92 889.789 411.473 889.5 412.125C886.226 412.125 882.988 411.939 879.784 412.192C877.7 412.356 876.105 410.914 874.066 411.06C872.101 411.352 870.093 411.05 868.299 410.195C867.416 409.856 866.555 409.463 865.721 409.02C863.807 407.593 861.644 406.537 859.342 405.906C858.039 405.599 856.239 405.219 855.655 403.883C855.193 402.929 854.467 402.127 853.562 401.573C852.658 401.019 851.614 400.737 850.554 400.759C847.695 396.413 843.709 392.925 839.023 390.668H837.097C835.119 389.885 833.367 388.622 831.998 386.993C830.63 385.363 829.689 383.42 829.259 381.336C826.047 384.004 824.003 387.754 819.767 388.694C817.933 390.873 815.36 392.228 813.407 394.195C811.595 395.878 809.618 397.375 807.506 398.663C805.368 399.896 803.47 401.505 801.903 403.412C800.861 404.679 799.558 405.706 798.083 406.424C795.417 407.959 792.917 409.765 790.621 411.814C789.507 412.744 788.264 413.508 786.93 414.081C783.962 415.108 781.362 416.987 779.457 419.484C779.028 420.277 778.423 420.961 777.689 421.483C776.954 422.004 776.109 422.35 775.219 422.494C773.472 422.924 771.917 423.92 770.795 425.327C768.981 427.686 766.562 429.51 763.794 430.605C761.682 431.274 761.093 433.784 759.749 435.543L756.424 435.694C755.189 436.665 754.394 437.698 755.052 439.164C754.598 439.413 754.325 439.688 754.042 439.699C752.728 439.71 751.446 440.097 750.346 440.816C749.246 441.534 748.376 442.553 747.838 443.752C747.161 445.141 746.039 445.29 744.998 445.974C742.108 447.871 738.446 449.08 737.119 453.056C735.834 452.943 734.54 453.121 733.333 453.577C732.126 454.034 731.038 454.757 730.149 455.693C726.756 458.418 723.182 460.91 719.452 463.152C717.033 464.382 714.857 466.042 713.032 468.05C712.863 468.283 712.915 468.677 712.863 468.996C709.533 470.109 706.401 471.745 703.586 473.844C700.54 475.427 697.682 477.349 695.067 479.574H693.015C691.181 481.863 688.873 483.728 686.25 485.042C684.038 486.542 681.632 487.735 679.099 488.588C677.728 489.075 676.48 489.854 675.441 490.871C670.365 494.826 664.377 497.276 659.145 500.973C657.487 502.143 656.57 504.555 654.064 504.1C653.964 504.775 653.695 505.414 653.282 505.957C652.868 506.5 652.324 506.929 651.7 507.205C648.07 508.751 644.834 511.094 642.233 514.061C636.992 514.822 634.365 519.761 629.626 520.524C628.932 521.571 628.856 522.999 627.382 523.547C625.911 524.093 624.578 525.029 623.093 525.52C622.48 525.728 621.938 526.104 621.528 526.605C621.118 527.107 620.857 527.713 620.775 528.355C618.591 528.808 617.06 531.009 614.466 530.656C610.198 534.578 605.418 537.904 600.256 540.542C598.594 541.491 597.021 542.623 595.459 543.654C593.863 544.707 592.471 546.453 590.661 546.904C588.538 547.435 588.095 549.915 585.84 550.188C584.837 550.31 584.097 551.598 583.997 552.859C581.6 554.095 578.563 554.198 576.956 556.833C573.553 557.346 571.867 560.539 568.945 561.939C566.101 563.478 563.445 565.341 561.028 567.49C556.876 570.852 551.289 572.147 548.022 576.65H545.887L540.881 581.734H538.682C535.558 586.083 529.682 586.838 526.517 590.918C523.899 591.373 521.502 592.669 519.688 594.61C518.752 595.192 517.764 595.686 516.737 596.085C514.164 597.042 511.813 598.513 509.827 600.408C508.203 601.975 506.07 602.908 503.817 603.037C500.002 603.745 496.555 605.387 492.887 606.404C489.259 606.879 485.718 607.875 482.373 609.362C478.032 609.593 473.678 609.36 469.385 608.667C467.146 608.293 464.864 608.254 462.614 608.55C461.227 607.433 459.612 607.29 458.596 605.854V602.596C458.86 602.42 459.154 602.294 459.464 602.225C463.041 602.199 466.624 602.098 470.193 602.263C471.545 602.266 472.865 601.854 473.974 601.081L475.699 602.373C477.522 600.524 479.949 601.393 482.233 601.129L487.931 598.129H491.67C493.421 595.559 497.6 596.43 498.343 593.32C503.705 592.613 508.619 589.957 512.147 585.857C513.11 585.772 514.223 586.207 514.91 585.131C516.124 583.23 518.539 582.856 519.915 581.162C520.575 580.35 521.508 580.928 522.409 580.695C524.98 577.907 527.823 575.383 530.896 573.162C532.261 572.291 534.715 572.97 535.014 571.025C535.241 569.547 536.286 569.843 536.832 569.251C538.004 567.98 539.373 568.698 540.686 568.467C541.306 567.412 541.622 565.593 542.861 565.52C545.808 565.347 547.252 562.806 549.562 561.874C551.847 560.653 553.94 559.104 555.775 557.277C559.742 554.165 564.232 551.989 568.388 549.259C569.797 548.332 571.298 547.584 571.868 546.099C572.432 544.628 573.458 544.301 574.66 543.723C577.265 542.885 579.747 541.703 582.04 540.209C582.323 539.204 582.984 538.349 583.885 537.822C585.314 537.158 586.698 536.385 588.158 535.802C589.029 535.5 589.806 534.978 590.414 534.286C591.022 533.594 591.44 532.755 591.627 531.853C594.359 532.066 596.009 529.572 598.548 528.967C599.183 528.74 599.733 528.324 600.126 527.776C600.518 527.228 600.734 526.573 600.745 525.899C601.275 525.192 602.039 525.814 601.58 526.088C604.965 524.594 605.821 521.668 608.509 521.202C608.972 517.809 612.536 519.283 614.097 517.644C615.833 515.823 618.298 515.436 620.687 513.776C621.165 511.649 623.254 510.649 625.745 510.122C626.392 508.378 627.099 506.676 629.841 507.25L632.296 504.194C636.795 502.776 640.881 500.286 644.203 496.938C644.776 497.046 645.368 496.993 645.914 496.785C646.459 496.576 646.935 496.22 647.29 495.757C648.927 493.944 650.959 492.531 653.229 491.626C655.795 490.826 657.97 489.098 659.33 486.779C659.567 486.321 659.946 485.953 660.411 485.73C661.917 485.043 663.91 485.153 664.912 483.716C665.792 482.423 667.045 481.428 668.505 480.866C672.241 479.818 674.497 476.667 677.853 475.041C680.787 473.619 683.738 471.956 686.662 470.364C687.263 469.976 687.837 469.546 688.378 469.078L688.574 466.506H692.047C696.609 464.296 699.117 460.73 703.563 459.699C705.11 459.202 706.522 458.356 707.688 457.225C708.855 456.095 709.746 454.711 710.291 453.18C711.234 452.321 712.92 453.623 714.234 452.378C716.615 450.121 719.839 448.816 721.816 445.873H723.711C725.929 443.641 728.29 441.556 730.779 439.63C732.179 438.613 733.779 438.753 735.19 437.737C737.085 436.372 737.897 434.204 739.728 432.968C741.444 431.81 743.258 430.799 745.011 429.695C746.089 429.016 745.627 427.891 745.736 426.933C746.597 426.202 747.911 426.2 748.571 425.131C749.244 424.044 750.36 424.464 751.251 424.395C754.407 421.333 758.13 419.024 761.111 415.813C761.681 415.187 762.397 414.713 763.195 414.432C763.992 414.151 764.847 414.072 765.683 414.202C768.357 411.229 771.337 408.547 774.575 406.202C779.463 403.496 784.067 400.305 788.316 396.677C792.764 394.055 796.711 390.664 799.974 386.662C802.878 387.556 803.901 383.619 806.568 384.515L811.775 379.309C813.179 377.599 814.775 376.055 816.532 374.709C818.421 373.554 820.322 372.329 822.287 371.355C824.051 370.48 823.639 366.444 826.828 368.385C827.736 367.312 827.723 365.976 829.069 365.197L832.204 365.044C832.734 364.168 834.184 363.913 833.267 362.008C837.261 362.925 838.948 358.773 842.409 358.903L845.481 355.833H852.722C853.89 353.6 852.318 352.599 851.15 351.478C850.528 349.176 851.796 347.439 852.625 345.514C853.021 344.597 854.527 343.861 853.404 342.284C853.01 341.73 854.642 340.358 854.032 339.334C853.297 338.099 855.81 337.503 854.275 335.907C853.406 335.004 855.025 333.024 855.254 331.397C855.876 328.749 856.764 326.17 857.904 323.701C855.757 321.108 858.556 317.329 856.212 314.504C856.421 313.989 857.313 313.801 857.15 312.97C857.364 311.993 855.775 311.881 856.132 310.963C856.054 309.927 857.494 309.744 857.141 308.69C857.114 307.364 855.664 308.292 855.095 307.245C855.235 305.271 854.98 303.289 854.346 301.414C853.712 299.539 852.711 297.81 851.402 296.326C849.604 293.34 847.45 290.583 844.989 288.116L844.784 284.535C841.704 284.329 839.997 281.643 837.494 280.216C835.573 279.121 832.92 278.813 832.076 276.205C828.494 275.492 825.08 274.105 822.015 272.117C819.191 272.784 817.507 269.43 814.698 270.043C813.934 268.781 812.685 269.055 811.531 269.054C806.774 269.049 802.021 269.048 797.273 269.051C796.893 271.563 794.085 272.425 793.333 274.946C791.604 275.804 789.819 276.548 787.992 277.172C786.089 277.716 783.982 277.684 782.539 279.298C781.037 280.979 778.822 280.559 777.073 281.519C774.745 284.245 771.615 286.165 768.131 287.006C766.385 287.373 765.999 289.358 764.306 289.918C762.693 290.452 761.011 291.241 760.666 293.388C760.59 293.859 759.752 294.435 759.176 294.563C754.826 295.531 752.195 299.107 748.715 301.382C747.599 302.172 746.626 303.146 745.838 304.264C745.214 305.096 743.092 304.33 743.683 306.337L737.53 308.31C737.126 309.677 736.294 310.877 735.155 311.735C734.017 312.592 732.633 313.06 731.208 313.07C730.57 313.077 729.928 314.04 729.314 314.591C725.316 318.375 720.752 321.512 715.786 323.888C712.805 325.221 710.838 327.913 707.784 329.032C707.322 329.193 706.842 329.302 706.355 329.354C705.173 330.341 706.835 332.688 704.376 333.174C703.015 333.143 701.666 333.42 700.428 333.985C699.19 334.549 698.096 335.387 697.227 336.435C696.68 337.06 696.151 337.788 695.126 337.523C694.702 339.594 691.911 337.452 691.583 339.448C691.295 341.204 689.554 341.278 688.698 341.452C687.071 341.784 686.811 343.8 684.976 343.771C684.257 343.76 683.158 344.937 682.853 345.793C681.818 348.7 679.29 348.895 676.944 349.943C674.188 351.175 670.706 351.985 669.676 355.747C669.198 357.49 666.865 357.595 665.945 359.209C665.091 360.707 663.143 360.334 661.737 360.939C658.59 362.416 655.797 364.55 653.545 367.198C650.466 368.255 647.176 371.149 643.305 372.977C642.473 375.072 639.621 373.516 638.732 375.506C632.689 378.722 627.369 383.206 621.049 385.87C619.211 386.645 617.958 388.034 616.24 388.845C614.252 389.42 612.404 390.4 610.815 391.724C609.016 393.562 606.817 394.958 604.388 395.804C603.784 396.016 603.27 396.427 602.93 396.969C602.591 397.512 602.446 398.154 602.519 398.79C601.477 398.637 600.414 398.723 599.41 399.04C598.406 399.357 597.486 399.897 596.721 400.62C595.604 403.942 591.706 404.015 588.387 405.372C586.929 406.587 586.911 409.943 583.607 409.154C578.891 413.373 572.595 415.648 568.892 421.106C568.753 421.457 568.668 421.828 568.642 422.204C564.927 422.597 562.353 425.616 558.808 426.753L558.511 429.358C555.743 428.52 554.666 432.314 551.971 431.605C550.234 433.422 548.307 435.047 546.224 436.453C544.655 437.447 543.271 438.708 542.137 440.178C540.914 441.698 538.58 442.267 537.001 443.576C535.515 444.85 533.925 445.996 532.247 447.004C526.018 450.553 521.182 455.973 514.926 459.421C512.105 463.013 507.793 464.914 505.029 468.333H503.257C500.099 472.179 496.457 475.6 492.421 478.511C486.683 481.968 481.322 486.014 476.424 490.584C475.157 492.054 473.662 493.31 471.997 494.307C470.012 495.476 468.886 497.888 466.748 498.953C464.958 500.18 463.328 501.626 461.895 503.257C460.687 504.329 459.34 505.233 457.89 505.945C456.588 506.649 455.424 507.583 454.454 508.702C452.933 510.09 452.703 512.739 450.29 513.273C448.221 513.732 448.452 516.654 446.234 516.852C444.128 521.058 439.645 523.348 437.573 527.572C436.803 529.141 436.905 531.171 435.035 532.144C433.323 533.034 433.664 535.077 433.129 536.455C432.36 538.431 430.358 539.141 429.699 541.185C429.198 542.738 428.638 545.133 426.06 545.196C425.55 546.759 424.533 548.107 423.169 549.026C422.231 547.845 420.331 548.005 419.519 546.198C421.299 542.243 423.392 538.435 425.778 534.813V532.068L427.673 531.41V528.682C429.215 526.913 430.291 524.786 430.803 522.496C435.236 519.056 437.674 514.099 442.108 510.99V507.483C443.614 507.315 445.044 506.734 446.24 505.804C447.1 504.941 446.512 503.053 448.539 502.991C449.701 502.955 449.232 500.96 450.401 500.384C451.249 499.966 452.323 499.949 452.926 499.013C453.025 498.86 453.567 498.991 454.085 498.991C453.986 495.997 457.62 496.335 458.4 494.275C459.234 492.065 460.867 490.247 462.975 489.182C464.962 488.24 465.727 485.701 468.166 485.706C468.441 483.244 472.252 483.6 471.961 480.813C474.694 480.255 474.694 480.255 476.092 477.674C477.606 477.473 479.038 476.868 480.236 475.922C481.6 475.033 482.88 474.021 484.06 472.899C485.159 471.831 486.057 470.379 487.36 469.743C488.923 468.98 490.199 468.281 490.412 466.488C491.691 466.43 492.934 466.046 494.022 465.373C495.111 464.699 496.009 463.757 496.63 462.638C498.401 460.161 500.512 457.946 502.902 456.058H506.031C506.465 454.11 509.298 453.935 509.416 452.482C509.578 450.495 512.381 450.383 511.582 448.362C514.557 446.923 517.288 445.029 519.677 442.747C521.725 440.216 524.509 438.386 527.644 437.509C528.969 434.308 532.447 433.585 534.619 431.425C537.091 429.374 539.445 427.187 541.673 424.873C544.469 423.024 548.375 422.598 549.697 418.488C550.346 417.637 551.641 418.877 552.391 417.894C552.698 417.492 553.045 416.96 553.475 416.835C558.291 415.428 561.187 411.185 565.379 408.805C567.564 407.176 569.529 405.271 571.225 403.138C573.785 402.908 576.203 401.862 578.124 400.154C581.744 396.878 585.707 394.002 589.944 391.577C590.408 389.562 592.258 389.371 593.719 388.578C595.116 387.819 595.984 386.007 598.006 386.577C599.672 384.457 602.623 383.885 603.98 381.496H607.095C607.26 381.366 607.438 381.291 607.51 381.159C609.311 378.602 611.968 376.774 615 376.006C617.176 375.134 618.826 372.798 621.536 373.284C622.259 372.411 622.26 371.084 623.658 370.269H627.654C630.22 366.757 633.862 364.178 638.027 362.926C638.335 361.137 639.814 360.214 640.931 358.999H645.084C646.955 356.772 648.496 354.308 651.96 353.699C653.928 352.997 655.601 351.649 656.706 349.874C657.185 349.046 657.827 348.323 658.592 347.749C659.358 347.175 660.231 346.761 661.16 346.533C662.98 346.107 664.389 343.984 666.556 343.538C667.14 339.737 672.035 340.95 673.298 337.885C675.909 336.569 678.283 334.828 680.323 332.733C683.061 331.042 685.517 328.931 687.599 326.477C690.38 326.628 692.039 324.332 694.304 323.21C696.262 322.239 697.28 319.489 700.42 320.292L703.031 317.039H705.419C706.194 314.913 708.527 314.084 709.155 312.017H712.38C713.218 310.689 713.621 309.263 715.57 308.727C716.97 308.342 717.711 306.052 719.865 307.033C721.757 303.156 726.297 302.568 728.573 299.326C730.23 298.987 731.79 298.284 733.143 297.268C734.337 296.108 736.112 295.804 736.945 293.887C737.779 291.965 740.288 291.608 742.531 291.275L742.753 288.889C744.425 287.97 746.112 286.937 747.771 286.179C749.436 285.419 749.603 282.48 752.17 283.508C755.565 280.509 759.227 277.827 763.11 275.494C764.139 273.667 761.823 272.769 761.14 271.637C761.044 271.308 761.058 270.956 761.179 270.635C761.301 270.314 761.523 270.042 761.812 269.858C761 267.465 759.03 265.228 760.243 262.587C757.615 260.216 757.802 257.04 757.138 254.359C756.569 251.724 755.687 249.166 754.509 246.741C753.257 244.349 753.448 241.464 751.39 239.298C750.384 237.662 749.894 235.76 749.983 233.841C749.26 227.492 750.348 221.067 753.124 215.31C753.947 213.569 753.58 211.405 755.18 209.94L757.596 209.668C757.097 207.571 760.601 208.303 759.952 205.741C762.734 206.441 764.862 203.995 767.524 204.793L769.804 202.625C773.241 202.625 776.672 202.88 780.05 202.563C784.777 202.12 789.224 204.518 793.818 203.544C797.122 205.771 800.933 206.477 804.252 208.394C810.332 211.314 816.043 214.947 821.266 219.215C823.52 221.346 826.994 221.944 829.427 224.083C831.733 226.111 834.956 226.709 837.121 229.011C837.463 229.375 838.397 229.181 839.398 229.277C842.535 232.74 846.192 235.694 850.237 238.033C852.554 239.377 855.038 240.414 857.623 241.117C859.548 242.22 861.63 243.022 863.798 243.493C866.007 243.793 868.149 244.465 870.133 245.481C872.095 246.509 874.161 247.328 876.295 247.923C879.606 248.613 882.679 250.157 885.21 252.401C886.02 253.086 887.421 254.758 889.105 253.533Z" fill="#212222"/>
<path d="M1051.41 604.593C1051.12 606.018 1052.2 606.491 1052.82 607.229C1053.9 608.502 1055.76 608.642 1056.77 610.099C1057.39 611.426 1058.23 612.644 1059.24 613.705C1060.02 614.307 1060.64 615.087 1061.05 615.98C1061.46 616.873 1061.66 617.852 1061.61 618.834C1061.59 621.192 1064.09 622.161 1064.61 625.313C1064.63 628.038 1065.24 630.727 1066.4 633.195C1067.32 637.529 1068.8 641.725 1070.8 645.677C1070.49 650.335 1074.06 654.069 1073.91 658.713C1073.89 659.442 1074.65 660.067 1074.98 660.804C1076.85 665.004 1077.41 669.614 1079.4 673.796C1080.57 676.745 1081.45 679.8 1082.03 682.917C1082.59 685.117 1082.84 687.41 1083.26 689.604C1083.77 691.65 1084.04 693.75 1084.05 695.858C1084 696.878 1084.85 697.242 1085.11 697.991C1086.16 702.796 1087.5 707.529 1089.14 712.164C1089.37 713.161 1089.39 714.195 1089.2 715.2C1089.29 718.598 1089.9 721.962 1091.02 725.172C1091.26 726.145 1091.33 727.15 1091.23 728.147C1091.17 730.883 1091.87 733.581 1093.27 735.938C1093.58 736.997 1092.36 737.195 1092.2 738.106C1091.95 739.602 1093.37 740.379 1093.35 741.781C1093.34 743.17 1091.82 743.82 1092.2 745.46C1093.24 749.962 1090.46 754.272 1091.38 758.774C1089.24 761.923 1086.85 764.89 1084.22 767.647C1081.35 770.508 1077.21 770.203 1074.38 772.859C1071.95 772.58 1069.49 772.932 1067.24 773.882C1065.35 774.914 1063.16 775.269 1061.03 774.888C1058.33 774.552 1056 776.652 1053.28 775.941C1051.41 777.5 1049.08 776.506 1047.08 777.028C1042.5 777.925 1037.83 778.24 1033.17 777.964C1032.36 777.967 1032.04 778.817 1031.51 778.869C1030.09 779.012 1028.46 779.607 1027.63 778.387C1024.33 779.111 1020.94 779.31 1017.58 778.977C1014.01 779.11 1010.42 779.124 1006.85 778.972C1003.51 779.487 1000.1 779.144 996.929 777.974L995.908 778.677C987.847 778.062 979.825 777.019 971.874 775.552C970.628 773.692 968.044 773.59 965.772 772.891C962.574 772.51 959.493 771.46 956.728 769.811H954.894C950.572 768.375 948.889 764.96 945.583 763.644C944.258 763.117 944.337 761.214 943.353 760.559C941.589 759.384 941.417 756.996 939.174 756.098C937.173 755.298 937.257 752.542 935.943 750.864C934.435 748.651 932.677 746.618 930.704 744.807C931.008 742.211 930.325 739.597 928.793 737.481C928.263 736.788 927.892 735.986 927.708 735.133C927.524 734.281 927.53 733.397 927.727 732.547L925.643 730.464C925.643 729.748 925.648 728.912 925.642 728.077C925.868 726.598 925.523 725.089 924.677 723.854C924.349 723.517 924.115 723.1 923.998 722.644C923.463 719.169 922.648 715.743 921.563 712.399C920.697 709.036 920.346 705.562 920.522 702.094C920.586 701.769 920.573 701.433 920.483 701.115C920.393 700.796 920.229 700.503 920.005 700.259C918.641 698.789 920.041 697.584 920.533 696.314C918.713 693.368 920.567 689.756 919.307 687.113C917.932 684.231 919.006 681.358 917.901 678.493C916.47 675.603 916.019 672.325 916.615 669.156L914.446 667.59C914.435 666.667 914.266 666.198 914.705 665.754C915.205 665.198 915.506 664.491 915.561 663.745C915.616 662.998 915.421 662.255 915.008 661.631C914.146 659.662 914.086 657.435 914.839 655.422C915.313 654.13 915.52 652.755 915.446 651.38C915.372 650.006 915.019 648.66 914.409 647.427C914.248 646.594 914.858 646.208 915.476 645.61C915.043 643.648 913.042 641.553 915.386 639.438C915.64 639.209 915.312 638.425 915.44 637.949C915.869 636.342 913.758 635.285 914.446 633.791C915.076 632.422 915.887 631.183 915.315 629.764C916.545 627.904 918.141 626.313 920.006 625.088C921.87 623.864 923.964 623.032 926.16 622.643C927.655 622.299 929.205 622.015 929.752 620.216C929.809 620.069 929.9 619.937 930.017 619.831C930.134 619.726 930.275 619.649 930.427 619.607C933.437 619.366 935.254 617.207 937.466 615.551C939.589 613.957 941.295 611.873 942.438 609.477C942.864 608.889 943.373 608.366 943.948 607.924V603.746C942.324 602.14 941.123 600.157 940.454 597.973C939.784 595.79 939.666 593.474 940.111 591.234C940.715 589.908 942.612 590.112 943.573 588.959C948.124 591.201 948.808 591.565 950.044 596.799C950.664 599.427 952.266 601.351 953.243 604.651C953.243 605.388 953.149 607.092 953.27 608.779C953.381 610.323 951.449 611.287 952.244 612.977C950.068 615.02 948.106 617.28 946.388 619.721C945.631 620.967 944.56 621.991 943.282 622.691C942.004 623.391 940.563 623.742 939.106 623.708L938.697 625.694C936.775 625.13 935.467 627.127 933.336 626.687C931.148 628.968 928.884 631.516 925.241 630.76C924.039 631.604 925.142 632.884 924.341 633.65C923.739 634.227 923.11 634.776 922.515 635.318L923.55 636.475C923.94 637.623 922.8 637.95 922.701 638.273C924.098 643.444 924.07 648.897 922.621 654.054C922.436 654.82 922.876 655.129 923.221 655.483C923.459 655.727 923.702 655.965 923.974 656.236C925.126 655.029 926.63 655.376 928.051 655.354C929.413 655.334 930.783 655.436 932.137 655.326C933.568 655.21 935.241 656.008 936.333 654.371C937.602 656.494 938.81 654.5 940.071 654.366C941.597 654.202 943.136 654.204 944.661 654.37C945.764 654.493 946.667 652.567 947.824 654.125C948.051 653.821 948.35 653.577 948.693 653.415C949.037 653.253 949.415 653.176 949.794 653.193C950.173 653.21 950.543 653.318 950.871 653.51C951.199 653.702 951.475 653.971 951.675 654.294C952.041 653.965 952.398 653.357 952.77 653.348C957.368 652.653 962.009 652.283 966.659 652.242C968.868 652.419 971.087 652.424 973.296 652.257C974.568 652.201 975.968 652.825 977.102 651.52C977.418 651.157 978.403 651.462 978.998 651.238C981.091 650.452 982.738 653.428 985.025 651.761C986.766 650.492 988.975 651.594 990.931 651.236C992.237 650.998 993.025 651.983 994.181 652.315C994.821 651.984 995.6 651.217 996.206 651.335C998.345 651.75 1000.31 650.291 1002.57 651.164C1004.15 651.778 1005.56 650.313 1006.88 649.359C1008.66 651.121 1010.97 649.827 1013.37 650.42C1013.55 652.712 1014.26 654.932 1015.42 656.916C1016.65 659.142 1017.38 661.611 1017.56 664.149C1017.86 666.857 1018.51 669.515 1019.49 672.059C1019.73 672.859 1019.8 673.703 1019.67 674.53C1019.47 678.485 1020.53 682.402 1022.68 685.725C1022.9 686.679 1022.3 686.876 1021.96 687.341C1023.9 689.536 1021.5 692.793 1023.86 695.058C1021.78 698.074 1023.18 701.52 1022.75 704.393C1020.6 708.988 1016.12 709.459 1012.4 710.344C1008.3 711.968 1003.91 712.728 999.496 712.579C996.718 714.181 993.362 712.702 990.791 713.77C986.823 715.419 982.482 713.296 978.792 715.644C973.087 715.089 967.551 717.281 961.838 716.687C961.125 716.613 960.492 716.584 960.162 715.729L956.474 717.678C952.312 715.677 947.864 717.237 943.614 716.599C941.944 715.989 940.183 715.664 938.405 715.637C937.458 715.797 936.546 715.488 935.583 716.305C934.559 717.174 933.15 716.948 932.097 715.267C931.732 716.432 931.612 717.659 931.744 718.872C931.877 720.085 932.258 721.258 932.866 722.316C934.134 725.386 935.159 728.55 935.932 731.78C936.505 733.773 937.359 735.675 938.468 737.427C939.618 738.91 939.584 741.359 941.143 742.91C941.482 743.248 941.996 743.722 941.955 744.079C941.477 748.214 944.906 750.489 946.752 753.311C948.633 756.331 951.246 758.828 954.348 760.571C955.761 761.312 956.523 762.635 957.927 763.676C958.544 763.676 959.534 763.382 960.184 763.727C962.87 765.154 966.083 765.301 968.578 766.858C970.488 768.05 972.915 766.97 974.447 768.786C979.65 769.237 984.82 770.005 989.929 771.085C994.747 771.537 999.538 771.741 1004.35 771.831C1009.29 771.923 1014.23 771.786 1019.17 771.887C1020.92 771.922 1022.89 771.103 1024.41 772.838C1024.63 772.96 1024.89 773.024 1025.14 773.024C1025.4 773.025 1025.65 772.962 1025.88 772.841C1028.66 770.963 1031.74 772.085 1034.68 771.895C1036.84 771.756 1038.98 771.406 1041.08 770.852C1043.27 770.273 1045.81 771.892 1047.82 769.83C1047.99 769.66 1048.49 769.763 1048.82 769.814C1052.97 770.027 1057.12 769.613 1061.15 768.589C1067.88 768.114 1074.32 765.669 1079.67 761.559C1082.13 758.774 1083.67 755.294 1084.08 751.598C1085.24 744.653 1085.59 737.594 1085.1 730.568C1085.09 730.084 1085 729.606 1084.82 729.157C1083.93 727.47 1083.33 725.641 1083.07 723.752C1083.08 721.885 1083.07 720.018 1083.07 718.187C1082.24 717.481 1081.63 716.566 1081.28 715.539C1080.93 714.512 1080.86 713.411 1081.08 712.349C1081.43 710.519 1080.21 709.255 1079.91 707.669C1079.36 704.699 1078.5 701.78 1077.82 698.822C1076.25 691.922 1075.78 684.816 1073.8 678.026C1073.13 675.597 1072.29 673.218 1071.29 670.907C1069.89 667.816 1069.64 664.471 1068.25 661.428C1066.88 658.425 1065.9 655.253 1064.65 652.19C1062.93 647.926 1062.11 643.385 1060.63 639.045C1060.34 638.456 1059.98 637.908 1059.55 637.412V632.34C1057.62 628.021 1056.17 623.519 1054.24 619.199C1052.56 617.658 1051.25 615.766 1050.39 613.658C1050.29 613.095 1050.02 612.573 1049.63 612.162C1049.23 611.75 1048.72 611.467 1048.16 611.349C1047.44 611.13 1046.38 610.363 1046.37 609.825C1046.34 608.541 1045.23 607.417 1044.81 607.498C1042.97 607.856 1041.9 606.055 1040.12 606.236C1037.76 606.476 1035.36 606.256 1032.97 606.304C1029.38 606.534 1025.85 605.338 1023.14 602.976C1022.12 602.049 1020.21 602.692 1019.79 600.875V597.052C1018.55 594.783 1016.86 592.838 1017.96 590.018C1020.1 589.445 1020.48 592.652 1022.47 592.114L1025.09 599.05C1027.05 598.646 1028.5 600.503 1030.63 600.23C1031.51 599.95 1032.44 599.891 1033.35 600.058C1034.25 600.225 1035.1 600.613 1035.82 601.187C1037.92 599.918 1040.01 601.726 1042.13 601.207C1043.02 601.032 1043.93 601.075 1044.79 601.334C1045.65 601.594 1046.44 602.06 1047.08 602.694C1048.35 603.657 1049.84 604.307 1051.41 604.593V604.593Z" fill="#212222"/>
<path d="M747.75 736.183C746.943 732.808 749.716 729.248 748.604 725.465C749.814 724.869 749.888 723.749 750.174 722.89C751.441 719.32 753.02 715.868 754.892 712.574C757.669 707.449 759.468 701.871 761.98 696.604C763.384 693.165 765.525 690.076 768.251 687.553V685.445C768.566 685.28 768.865 684.983 769.123 685.014C770.261 685.019 771.392 685.191 772.48 685.525C777.006 687.353 781.707 688.745 786.332 690.333C788.656 691.429 791.184 692.022 793.753 692.075C795.24 691.945 796.012 693.35 797.427 693.195C798.764 693.111 800.105 693.1 801.443 693.163C803.625 695.58 806.891 694.925 809.453 696.205C813.746 698.351 818.723 698.125 823.127 700.214C826.944 701.725 830.846 703.011 834.814 704.065C838.832 704.95 842.703 706.405 846.31 708.385C848.521 707.93 850.326 709.763 852.484 709.495C852.897 709.46 853.312 709.539 853.684 709.721C854.057 709.904 854.372 710.185 854.598 710.533L856.128 709.003C856.287 707.342 856.261 705.668 856.052 704.013C855.624 702.138 857.57 701.066 857.179 699.304C857.098 698.491 857.314 697.676 857.788 697.011C859.242 694.329 859.742 691.233 859.205 688.23C859.137 687.384 859.195 686.528 859.195 685.535C856.79 684.306 854.542 682.791 852.501 681.023C850.045 678.634 847.339 676.518 844.428 674.711C842.657 673.803 841.87 671.782 840.775 670.155C839.258 667.214 837.898 664.195 836.7 661.11C836.69 658.829 837.019 656.559 837.673 654.374C838.101 652.462 839.142 650.742 840.639 649.477C841.938 648.281 842.893 646.759 843.404 645.069C843.704 643.257 845.252 642.399 846.299 641.101H850.634L853.117 644.088C853.876 646.515 850.994 651.571 847.122 653.624C847.07 654.394 846.866 655.146 846.523 655.836C846.179 656.527 845.702 657.143 845.12 657.648C846.729 662.592 849.326 667.157 852.754 671.066C856.182 674.975 860.369 678.147 865.061 680.387C866.521 681.943 867.549 683.853 868.042 685.928C868.535 688.003 868.477 690.172 867.872 692.218L866.352 695.001C866.315 695.246 866.348 695.497 866.448 695.724C866.548 695.951 866.71 696.145 866.916 696.283C867.233 696.566 867.444 696.947 867.515 697.366C867.587 697.784 867.514 698.215 867.308 698.586C864.955 700.989 865.27 704.264 864.191 707.042C863.548 710.087 863.171 713.183 863.066 716.293C862.916 716.993 861.928 717.512 861.282 718.158V723.165C860.405 723.493 859.645 724.076 859.102 724.839C858.559 725.603 858.257 726.511 858.236 727.448C858.132 728.747 857.624 729.981 856.783 730.977C855.245 732.833 854.299 735.108 854.067 737.507C854.087 737.975 854.063 738.654 853.775 738.891C851.348 740.887 851.719 743.913 851.151 746.485C850.849 747.592 850.245 748.594 849.407 749.378C848.021 757.723 844.833 765.665 840.064 772.652L840.806 773.504C840.765 775.809 838.157 776.25 837.594 778.388C837.164 780.827 835.806 783.004 833.804 784.462C833.999 787.241 831.169 788.192 830.304 790.168C828.57 793.337 826.358 796.221 823.746 798.716C822.714 799.918 821.005 800.105 820.266 801.756C819.946 802.425 819.497 803.023 818.944 803.517C818.391 804.011 817.746 804.389 817.045 804.631C815.62 805.37 814.272 806.251 813.023 807.259C812.557 807.486 812.069 807.664 811.566 807.789C810.978 811.232 807.503 811.956 805.11 812.521C800.472 814.125 795.584 814.88 790.679 814.749C785.788 814.139 781.135 816.05 776.276 815.86C774.065 815.373 771.786 815.283 769.544 815.594C767.645 813.433 764.515 816.134 762.572 813.834C762.285 813.494 761.273 813.772 760.596 813.753C758.633 813.882 756.665 813.567 754.839 812.832C753.169 812.021 750.814 813.545 749.179 811.71C743.711 811.299 738.309 810.259 733.079 808.61C730.002 807.723 726.876 807.012 723.718 806.483C723.09 806.456 722.509 805.361 721.689 804.541C717.084 804.677 712.522 803.628 708.44 801.495C703.673 799.432 698.912 797.353 694.093 795.418C693.049 795.222 691.98 795.206 690.93 795.368C690.565 794.634 690.026 793.999 689.36 793.519C688.695 793.039 687.923 792.728 687.11 792.614C682.169 791.745 679.282 787.672 675.157 785.615C674.34 782.971 670.996 781.864 671.003 778.608C671.004 777.87 669.74 777.13 669.059 776.39C669.059 774.516 668.409 772.267 669.221 770.864C670.268 769.057 668.513 767.926 669.06 766.508C669.492 764.039 670.249 761.638 671.313 759.368L670.088 758.041C671.901 757.449 671.103 755.681 671.408 754.548C672.485 750.55 674.843 747.041 675.779 743.072C677.416 737.965 679.337 732.952 681.533 728.059C683.062 724.412 684.919 720.911 687.08 717.6C688.482 715.222 689.339 712.563 689.59 709.814L691.134 709.372C692.244 705.822 693.858 702.449 695.925 699.357C697.313 697.104 698.141 694.508 699.663 692.224C701.555 688.505 703.845 685.003 706.492 681.778C706.701 681.575 706.678 681.119 706.894 680.939C708.194 679.857 707.083 677.459 708.802 676.886C710.652 676.27 710.128 674.543 710.953 673.495C711.962 672.259 712.665 670.802 713.003 669.243C713.405 667.232 716.048 666.86 716.159 664.476C716.267 662.168 718.505 660.772 719.487 658.737C720.203 656.774 721.251 654.948 722.586 653.341C723.469 652.419 724.029 651.237 724.183 649.971C724.259 649.042 724.586 648.152 725.128 647.395C725.67 646.638 726.408 646.042 727.262 645.671C727.756 645.38 728.13 644.923 728.316 644.382C728.503 643.84 728.491 643.25 728.282 642.716C731.786 638.95 735.788 635.68 740.179 632.999C742.551 631.668 745.221 630.961 747.941 630.944C750.906 630.528 753.925 630.773 756.784 631.66C759.455 632.185 762.196 632.249 764.888 631.85C765.876 631.854 766.965 631.603 767.691 632.956C769.374 630.185 771.555 627.75 774.126 625.775C775.193 625.589 776.29 625.665 777.322 625.996L777.474 628.228C775.612 629.7 774.183 631.65 773.339 633.869C772.415 636.986 769.419 637.233 767.126 637.813C766.101 638.201 765.001 638.352 763.909 638.255C762.818 638.157 761.762 637.812 760.822 637.248C760.567 637.053 760.249 636.955 759.928 636.973C755.724 637.608 751.786 635.121 747.061 636.137C745.639 637.913 743.743 639.25 741.593 639.993C740.493 640.298 740.045 641.226 739.303 641.865C734.981 646.1 731.311 650.954 728.413 656.266C728.08 656.79 727.421 657.373 727.428 657.862C727.288 659.292 726.84 660.675 726.116 661.916C725.391 663.157 724.407 664.226 723.231 665.051L724.431 666.251L720.889 668.969C722.08 671.447 719.831 672.119 719.128 673.527C717.642 676.506 715.716 679.245 714.077 682.141C712.515 685.105 710.699 687.927 708.648 690.576C705.871 694.675 703.433 698.994 701.36 703.49C699.336 707.055 697.736 710.845 696.593 714.783C695.951 716.861 694.333 718.633 693.656 720.707C692.452 724.298 690.828 727.735 688.817 730.944C686.122 735.31 684.801 740.215 682.397 744.667C680.173 748.668 679.098 753.206 679.291 757.78C677.868 759.725 677.128 762.086 677.188 764.495C677.377 768.403 677.237 772.327 677.237 776.244C677.62 777.377 678.764 777.865 679.354 778.933C681.599 782.324 684.891 784.888 688.728 786.235C691.592 787.531 694.346 789.059 697.238 790.361C704.307 793.546 712.033 794.871 718.972 798.365C719.589 798.627 720.16 798.987 720.662 799.431C723.418 799.165 726.192 799.719 728.634 801.024C730.688 801.927 732.91 802.387 735.154 802.373C738.222 802.775 741.202 804.118 744.062 804.188C748.747 804.303 752.858 806.392 757.441 806.82C761.388 807.188 765.425 808.008 769.407 808.521C773.654 808.804 777.914 808.849 782.167 808.656C787 808.73 791.689 807.417 796.564 807.415C799.554 807.069 802.396 805.922 804.789 804.096C807.07 802.923 809.187 801.457 811.086 799.733C812.06 798.627 814.097 799.334 814.372 797.121C814.524 795.896 816.243 794.866 817.302 793.695V791.752C818.038 791.598 818.733 791.29 819.341 790.849C819.95 790.407 820.458 789.841 820.832 789.189C823.534 785.237 826.218 781.27 828.562 777.079C830.117 774.297 831.988 771.692 833.806 768.87C832.565 765.824 828.725 767.03 827.07 764.698C825.558 764.57 824.037 764.587 822.528 764.748C819.442 765.356 816.742 763.385 813.743 763.676C812.334 761.763 810.259 763.111 808.452 762.511L806.754 760.813C800.286 759.916 793.971 758.143 787.983 755.541C785.041 754.285 781.912 753.525 778.721 753.292L777.081 751.175C776.027 751.493 774.914 751.567 773.827 751.39C772.74 751.214 771.708 750.792 770.808 750.156C767.701 749.018 764.655 747.72 761.683 746.266C758.234 744.616 754.879 742.776 751.632 740.755C750.019 739.534 748.693 737.973 747.75 736.183V736.183Z" fill="#212222"/>
<path d="M408.937 573.598C411.272 574.505 412.173 571.529 414.299 571.26C415.427 568.051 418.652 567.239 420.998 565.428C423.302 563.649 424.955 561.143 428.032 560.177C429.632 559.675 430.804 557.809 432.291 556.447C434.172 555.947 436.488 555.982 437.412 553.339C437.84 552.117 439.209 551.994 440.66 552.16C442.671 548.613 447.596 548.615 449.65 544.968C450.32 545.298 450.528 546.128 451.369 546.012C451.867 545.944 452.468 546.151 452.874 545.943C455.52 544.866 458.359 544.344 461.215 544.41C464.071 544.475 466.884 545.126 469.478 546.323C474.158 547.793 478.344 550.519 481.581 554.204H483.573C484.272 555.661 484.704 557.355 486.767 557.42C487.38 558.284 487.812 559.263 488.038 560.298C488.265 561.333 488.281 562.403 488.085 563.444L484.732 566.485L486.039 567.966C481.512 572.85 475.959 576.671 469.779 579.154L470.378 579.875C467.112 582.488 467.112 582.488 464.573 582.884L461.717 585.869C460.783 585.963 459.229 585.303 459.491 587.399C454.922 591.357 450.125 595.045 445.125 598.443C441.636 600.571 438.891 603.654 435.267 605.423C429.089 608.439 423.77 612.835 417.683 616.005C414.496 617.865 411.41 619.894 408.44 622.085C408.935 624.224 406.716 624.04 405.913 624.43C400.271 627.169 395.278 630.903 389.965 634.116C384.265 638.465 377.713 641.564 370.735 643.213C368.342 643.536 366.153 645.32 363.547 645.551C363.164 645.585 362.873 646.159 362.278 646.177C360.452 646.233 359.081 644.655 357.062 645.046C355.36 645.375 353.36 645.735 352.227 643.806C349.728 646.155 346.619 647.753 343.254 648.418L339.661 652.01C335.811 652.909 332.249 654.762 329.301 657.396C328.345 658.24 327.225 658.876 326.011 659.267C323.494 659.92 321.186 661.206 319.307 663.004C316.341 665.441 313.054 667.46 309.54 669.006C307.599 669.746 305.776 670.765 304.129 672.03C301.991 673.689 299.666 675.093 297.202 676.211C296.531 676.484 295.506 676.462 295.068 677.199C293.775 679.374 291.333 679.681 289.395 680.805C286.869 682.144 284.416 683.616 282.045 685.214C281.162 685.808 280.106 686.091 279.043 686.021C276.609 689.256 273.035 691.444 269.047 692.141C267.345 694.222 264.529 694.578 262.598 696.327C260.702 698.055 258.28 699.097 255.721 699.283C254.866 699.614 255.221 700.455 254.888 700.962C254.51 701.423 254.093 701.85 253.64 702.238H250.563C246.537 706.468 240.846 707.79 236.887 711.558H235.03C233.03 715.068 228.128 715.09 226.069 718.695H222.904C221.286 722.981 216.614 723.288 213.627 725.787C213.247 726.106 212.414 725.992 211.917 726.555C208.427 729.919 204.341 732.605 199.868 734.475C197.176 735.856 194.619 737.487 192.233 739.348C186.072 744.033 179.676 748.402 173.069 752.436C170.659 756.208 165.741 756.696 163.02 760.084C162.765 760.402 162.154 760.423 161.724 760.615C158.091 762.204 154.905 764.663 152.447 767.774C151.726 767.571 150.962 767.569 150.24 767.769C149.517 767.969 148.864 768.363 148.349 768.908C145.288 771.275 142.007 773.344 138.551 775.085C135.407 777.216 131.996 778.925 128.406 780.169C125.918 780.868 123.917 783.129 121.153 783.589C120.266 785.586 117.673 784.497 116.569 786.132C115.936 785.421 114.833 785.036 115.021 783.614C117.413 782.741 119.553 781.294 121.254 779.4C123.837 779.543 124.731 777.194 126.398 775.969C128.309 774.852 130.29 773.859 132.329 772.995C135.412 771.224 138.3 769.133 140.944 766.755C141.366 766.362 141.869 766.066 142.418 765.888C142.967 765.709 143.548 765.653 144.121 765.723C149.004 760.941 154.574 756.917 160.648 753.782C161.433 751.36 164.68 750.909 166.741 749.083C169.096 746.996 171.637 745.193 174.067 743.231C176.193 741.514 179.207 741.013 181.127 738.22L183.087 738.035C183.905 737.363 183.227 736.426 183.665 735.514C183.736 735.457 184.067 735.04 184.21 735.097C185.732 735.702 186.756 734.458 187.85 733.957C189.753 733.088 190.712 730.762 192.946 730.212C194.811 729.754 195.574 727.902 197.092 726.918C198.775 725.694 200.555 724.609 202.414 723.674C206.168 722.008 209.335 719.11 213.26 717.791C214.592 717.344 213.576 715.21 215.358 715.646C217.663 713.384 220.431 711.649 223.472 710.562C224.733 710.13 224.315 707.838 226.653 708.326C228.074 708.622 228.783 706.021 230.443 705.386C231.736 704.78 232.984 704.084 234.179 703.302C235.933 702.223 237.743 701.24 239.602 700.355C241.639 699.733 243.45 698.529 244.811 696.89C245.987 695.721 247.68 695.933 249.051 694.852C250.576 693.648 252.055 692.348 253.599 691.098H256.617C257.582 689.295 259.146 687.886 261.04 687.115C264.962 684.991 268.71 682.468 272.629 680.526C277.359 678.183 281.614 675.112 286.317 672.875C287.978 672.085 288.952 669.589 291.514 670.428C291.885 670.549 293.147 669.314 292.907 668.006C295.217 667.468 296.904 665.267 299.54 665.549C300.716 664.566 301.787 663.464 302.737 662.261C303.675 660.809 305.157 661.683 306.344 660.951C310.014 658.687 313.808 656.691 317.315 654.09C320.342 651.846 324.013 650.478 327.147 648.258C327.846 647.763 329.002 648.442 329.916 647.522C332.091 645.329 335.638 644.951 337.205 642.066L339.386 642.064C339.605 641.899 339.767 641.67 339.849 641.409C339.932 641.148 339.931 640.867 339.846 640.607L343.97 638.518C341.851 636.849 341.533 633.707 338.911 632.733V628.186C341.045 626.562 342.39 623.814 345.139 622.675C346.344 622.176 346.012 619.885 348.32 620.458C349.444 620.737 350.48 618.814 351.845 618.133C353.003 617.282 354.229 616.526 355.509 615.873C357.075 615.409 357.769 614.001 359.12 613.456C361.46 612.514 363.078 609.978 366.008 610.342C368.936 606.656 373.91 605.793 377.014 602.37C377.746 601.745 378.581 601.25 379.481 600.908C382.074 599.439 383.806 596.909 386.239 595.216C388.788 593.824 391.133 592.086 393.207 590.052C395.074 588.254 396.81 586.324 398.399 584.277C399.443 582.779 400.81 581.535 402.399 580.635C405.205 578.962 407.474 576.52 408.937 573.598V573.598ZM432.491 564.429C429.618 567.284 426.312 569.666 422.695 571.488C421.851 571.866 421.474 572.606 420.751 572.962C419.544 573.557 419.947 575.116 418.951 575.803C417.839 576.449 416.78 577.183 415.785 577.996C412.594 581.066 409.647 584.405 406.323 587.316C402.864 589.631 399.739 592.408 397.035 595.571C395.773 597.467 393.208 598.037 391.703 599.919C387.684 603.997 383.189 607.576 378.315 610.58C375.546 612.724 372.211 613.348 369.503 615.415C367.716 616.778 366.407 618.998 364.038 619.386C362.69 619.835 361.387 620.412 360.148 621.108C357.253 622.072 355.5 624.529 352.867 625.757C350.437 626.739 348.389 628.48 347.03 630.72C347.055 631.156 347.207 631.575 347.469 631.925C347.731 632.274 348.091 632.539 348.502 632.685C349.572 633.174 348.412 635 350.355 634.896C353.721 631.743 359.103 631.064 361.711 626.776H365.625L370.645 629.36C370.231 632.004 369.695 634.518 366.597 635.294C364.351 636.077 362.262 637.251 360.426 638.762C361.937 638.641 363.222 639.154 364.984 638.13C369.814 635.113 374.96 632.634 380.33 630.74C381.125 629.298 382.237 628.055 383.581 627.104C384.925 626.153 386.467 625.518 388.091 625.248L390.038 622.897C393.227 622.192 395.793 621.727 396.566 618.625L398.924 618.473C399.043 617.954 399.009 617.484 399.202 617.356C401.409 615.571 403.767 613.983 406.249 612.607C410.758 610.722 414.796 607.868 418.076 604.247H420.153C420.355 602.313 422.186 601.786 423.403 601.164C425.135 600.28 426.198 598.244 428.265 598.172C429.591 598.201 430.875 597.704 431.835 596.789C432.803 595.721 434.007 594.894 435.352 594.375C437.072 594.083 436.632 592.17 437.902 592.01C439.774 591.774 439.778 589.999 440.633 588.909H441.637C447.198 586.273 450.008 581.496 455.054 579.344C457.141 578.353 459.008 576.954 460.545 575.229C461.869 573.584 463.645 572.362 465.655 571.715C468.283 571.209 469.145 569.593 470.075 567.592L472.995 567.275C473.186 564.444 475.875 563.562 477.819 562.012C472.89 558.366 467.715 555.066 462.331 552.134C460.739 552.134 458.359 552.095 455.982 552.155C455.177 552.176 454.356 551.881 453.545 552.432C451.889 553.393 450.072 554.042 448.182 554.347C446.27 555.209 444.524 556.399 443.023 557.863C442.787 558.077 442.489 558.21 442.172 558.244C439.868 557.996 438.928 559.666 438.06 561.26C437.245 562.758 435.413 562.914 434.477 564.264C434.241 564.603 433.205 564.387 432.491 564.429Z" fill="#212222"/>
<path d="M612.803 454.505L616.832 458.533C615.95 459.941 618.793 461.263 616.933 462.722C618.711 463.453 617.444 465.481 618.672 466.642C619.769 467.68 619.612 469.672 620.917 470.788C620.926 474.212 622.602 477.407 622.824 480.633C623.051 483.926 624.872 487.01 623.869 490.294C623.095 492.319 621.757 494.08 620.012 495.367V498.203C616.721 501.836 613.123 505.177 609.257 508.19C606.765 508.444 605.979 511.296 603.608 511.834C601.379 512.34 600.377 514.719 598.558 515.687C595.235 517.659 592.047 519.85 589.016 522.248C585.893 524.486 582.47 526.323 579.442 528.675C575.357 531.847 570.109 533.272 566.657 537.399C566.015 538.167 564.717 538.39 563.713 538.846C561.963 539.691 560.341 540.778 558.895 542.077C555.942 544.612 552.802 546.92 549.502 548.981C548.035 549.886 547.182 551.345 545.615 551.955C542.436 553.419 539.432 555.237 536.661 557.374C533.689 558.951 530.8 560.679 528.006 562.553C525.168 564.718 522.203 566.711 519.126 568.52C518.345 566.567 519.105 564.584 518.688 562.703C520.95 562.281 521.374 559.983 523.216 559.425C524.966 558.895 526.813 558.358 527.435 556.264C535.435 553.589 540.427 546.268 547.988 542.975C549.586 542.279 548.907 540.515 550.588 539.652C552.569 539.039 554.425 538.079 556.07 536.816C557.653 535.11 560.429 535.279 561.723 533.205C562.827 531.436 565.142 531.027 566.115 528.991C566.475 528.237 568.032 528.065 569.032 527.603C569.611 527.43 570.115 527.066 570.461 526.57C570.807 526.074 570.975 525.475 570.936 524.871C573.157 524.585 575.241 523.641 576.92 522.161C578.232 520.741 581.019 521.174 581.498 518.598C581.559 518.437 581.653 518.29 581.774 518.168C581.895 518.045 582.041 517.949 582.201 517.887C588.256 514.516 593.989 510.598 599.328 506.18C599.677 505.964 600.261 506.088 600.532 505.572L592.749 501.766C592.45 500.549 591.695 499.494 590.64 498.819C589.506 497.83 588.431 496.775 587.419 495.661C584.141 492.506 581.624 488.646 580.057 484.374C579.362 482.801 577.722 481.369 577.258 479.931C576.558 477.766 573.902 477.272 573.845 474.629C573.602 472.737 572.789 470.964 571.513 469.546C569.418 466.939 569.37 463.523 567.748 460.887C566.139 458.27 565.976 455.089 564.005 452.705C563.763 450.291 563.646 447.866 563.655 445.441C563.71 442.05 563.782 438.657 563.716 435.268C563.706 434.744 563.02 434.233 562.725 433.824C563.535 431.308 565.007 429.056 566.986 427.305C568.545 425.57 570.475 424.284 571.019 421.669C571.506 421.499 572.115 421.328 572.69 421.081C577.306 419.1 577.475 418.73 581.158 420.457C582.945 421.104 584.781 421.611 586.647 421.973C590.71 423.196 592.464 427.243 596.158 428.667C597.367 431.505 601.271 432.056 601.876 435.406C605.423 438.022 606.747 442.403 609.818 445.4C610.333 445.975 610.723 446.651 610.964 447.384C611.204 448.117 611.29 448.892 611.217 449.66C611.274 451.19 613.117 452.588 612.803 454.505Z" fill="#212222"/>
<path d="M977.311 175.15C981.116 175.164 984.886 173.729 988.943 173.894C993.096 174.063 997.095 175.167 1001.28 175.265C1002.74 175.297 1004.18 175.645 1005.49 176.286C1006.8 176.926 1007.96 177.843 1008.88 178.974C1009.65 179.957 1010.39 181.291 1012.04 181.197L1014.58 186.13C1014.4 187.323 1014.47 188.541 1014.8 189.702C1015.13 190.863 1015.7 191.94 1016.48 192.86C1015.71 193.819 1015.15 194.927 1014.84 196.114C1014.52 197.301 1014.45 198.54 1014.64 199.754C1014.05 201.032 1012.38 200.537 1011.88 201.742C1010.96 202.873 1012.05 204.39 1011.16 205.526C1010.17 206.082 1009.63 205.388 1008.96 204.66C1008.78 204.89 1008.5 205.096 1008.46 205.339C1008.39 205.837 1008.66 206.554 1008.41 206.837C1005.7 210.946 1002.67 214.834 999.351 218.464C996.761 220.648 993.944 222.548 990.949 224.131C988.298 225.086 986.01 226.844 984.403 229.159C984.233 229.441 984.006 229.686 983.737 229.876C983.467 230.067 983.162 230.2 982.839 230.267C978.627 231.368 976.306 235.99 971.66 236.35C971.49 236.363 971.319 236.351 971.123 236.351L967.252 240.286C966.366 240.423 965.235 240.253 964.819 240.72C962.471 243.355 958.851 243.881 956.279 246.088C951.447 246.653 948.72 251.261 944.038 252.365C941.75 253.152 939.689 254.485 938.034 256.25C934.617 258.892 930.875 261.086 926.901 262.779C923.316 264.305 919.994 266.386 917.057 268.946H913.74C913.022 268.199 913.306 267.271 913.412 266.512C913.596 265.07 914.247 263.727 915.266 262.69C916.285 261.652 917.616 260.977 919.055 260.768C919.533 257.742 922.486 257.034 924.556 255.878C930.393 252.615 936.151 249.248 941.719 245.549C944.6 243.842 947.259 241.785 949.636 239.425H952.76C955.513 236.504 958.677 233.999 962.152 231.99C963.85 230.982 964.945 229.243 966.621 228.052C968.897 226.434 971.611 225.972 973.853 224.449C976.005 222.786 978.311 221.335 980.741 220.114C982.338 219.435 982.998 216.61 985.356 218.131C986.229 216.583 986.514 214.742 988.648 214.75C988.966 212.97 990.501 212.093 991.516 210.821C992.469 209.628 992.483 207.532 994.842 207.744C995.556 204.199 998.377 202.013 1000.23 199.223C1001.57 197.196 1001.48 194.589 1003.26 192.852C1001.85 191.028 1004.87 188.574 1002.42 186.898C1003.95 185.774 1001.8 184.792 1002.38 183.765C1001.2 182.572 999.487 183.898 998.564 182.934C997.707 182.038 996.206 182.435 995.673 181.166C993.297 181.166 990.915 181.2 988.533 181.159C983.701 181.252 978.96 182.489 974.698 184.767C969.067 187.587 963.296 190.122 957.409 192.36C955.822 192.933 955.243 194.951 953.336 194.867C947.914 199.401 941.979 203.284 935.652 206.436C933.059 208.034 931.001 210.405 928.239 211.769C924.97 213.501 921.869 215.532 918.974 217.835C916.169 219.91 913.099 221.601 909.847 222.863C907.599 223.742 906.739 225.848 904.159 227.061C899.688 227.739 896.725 233.244 891.272 233.367C888.863 236.534 885.361 238.69 881.449 239.417C878.779 241.381 875.908 243.056 872.884 244.414C871.992 243.618 871.035 242.852 871.535 241.208C872.793 238.962 874.846 237.269 877.291 236.463C879.441 235.718 880.238 233.525 882.458 232.85C884.205 232.024 885.768 230.856 887.056 229.416C889.377 227.373 892.906 227.046 894.027 224.504C897.387 223.286 900.499 221.468 903.21 219.139C906.163 217.637 908.734 215.48 910.727 212.833H912.859C913.37 212.495 913.401 212.003 913.348 211.13C915.82 210.987 916.932 208.225 919.3 207.791C922.23 207.255 923.497 204.283 926.237 203.53C928.599 202.469 930.728 200.952 932.502 199.065C935.166 196.709 938.178 194.78 941.432 193.346C941.734 193.285 942.019 193.156 942.264 192.97C942.509 192.783 942.709 192.544 942.848 192.269C942.987 191.994 943.062 191.691 943.068 191.383C943.074 191.075 943.009 190.77 942.88 190.49H946.407L948.81 187.473C951.169 187.113 953.087 187.854 954.092 185.917C954.563 185.008 955.567 185.106 956.233 184.926C957.926 184.439 959.446 183.48 960.613 182.16C962.809 179.812 965.889 180.043 968.571 179.125C971.726 178.414 974.701 177.061 977.311 175.15V175.15Z" fill="#212222"/>
<path d="M1053.25 219.66L1051.4 221.505V225.669C1049.73 227.209 1048.27 228.972 1047.08 230.907C1043.85 234.766 1040.06 238.114 1035.82 240.834C1032.1 243.525 1028.03 245.695 1023.72 247.283C1021.86 247.888 1019.57 246.491 1018.15 248.61C1016.22 247.175 1014.34 249.185 1012.34 248.675C1010.48 248.202 1008.52 248.274 1006.59 247.855C1004.37 247.222 1002.1 246.773 999.807 246.514C997.529 244.804 995.737 242.417 993.169 240.744C991.527 239.675 990.902 237.046 990.011 235.454C990.664 232.673 993.376 233.928 994.534 232.35C996.264 233.746 998.606 233.88 1000.41 235.037C1003.7 237.013 1007.38 238.239 1011.2 238.628C1011.47 238.665 1011.69 239.083 1011.93 239.325C1012.64 239.042 1013 237.989 1014.02 238.395L1015.12 239.385C1017.3 237.017 1020.17 237.35 1023.17 237.382C1024.74 236.126 1026.44 235.041 1028.24 234.143C1029.76 233.187 1031.61 233.404 1033.07 231.952C1034.19 230.569 1035.73 229.599 1037.46 229.196C1039.72 225.893 1042.05 222.642 1044.15 219.245C1044.61 218.506 1044.14 217.237 1044.23 216.223C1044.42 214.129 1043.53 211.876 1045.21 209.974C1045.32 209.742 1045.38 209.488 1045.38 209.23C1045.38 208.973 1045.32 208.718 1045.21 208.485C1043.93 205.828 1045.08 202.624 1044 200.312C1042.8 197.717 1043.95 195.327 1042.62 192.353L1041.22 190.857L1042.1 189.78L1040.21 187.892C1041.7 186.951 1040.05 186.104 1040.14 185.21C1040.26 184.096 1039.64 182.804 1041.26 181.721C1039.79 180.553 1038.81 178.871 1038.53 177.012C1037.96 175.195 1037.38 173.38 1036.64 171.054C1033.09 168.998 1032.29 164.043 1028.97 160.991C1028.48 160.54 1028.31 159.957 1027.45 159.609C1026.81 159.392 1026.29 158.936 1025.98 158.338C1025.67 157.741 1025.61 157.047 1025.8 156.404C1022.64 154.172 1019.63 151.769 1016.35 149.807C1012.42 147.458 1008.28 145.464 1004.2 143.381C1003.67 143.108 1003 143.346 1002.34 142.933C998.411 140.512 994.053 138.872 989.504 138.102C987.494 137.447 985.378 137.177 983.267 137.305C981.438 137.6 979.937 136.547 978.039 136.854C974.741 137.185 971.542 138.17 968.63 139.751C967.461 140.897 966.173 141.915 964.786 142.786C963.97 143.521 963.348 144.447 962.975 145.482C962.039 147.197 960.82 148.742 959.368 150.052C959.557 152.282 957.614 154.039 958.406 156.074L956.395 158.083C956.983 158.656 957.359 159.412 957.459 160.227C957.559 161.042 957.377 161.866 956.944 162.564C956.289 163.728 957.647 165.124 956.308 166.059C957.552 166.828 956.221 168.153 956.952 169.031C957.061 169.162 957.294 169.272 957.296 169.394C957.382 171.092 957.382 172.793 957.296 174.492C957.166 176.036 959.312 176.952 958.178 178.683C957.54 179.575 955.877 178.731 955.737 180.253L951.359 175.493C951.533 173.221 950.929 170.957 949.646 169.074C948.777 167.563 948.215 165.896 947.991 164.168C947.768 162.439 947.887 160.684 948.343 159.002C948.976 156.235 948.832 153.489 949.28 150.8C950.073 150.668 950.792 150.256 951.307 149.639C951.822 149.023 952.1 148.242 952.089 147.438C952.232 146 952.816 144.641 953.761 143.548C954.816 142.544 955.585 141.278 955.989 139.878C956.187 138.065 958.209 138.675 958.357 137.311C958.557 135.459 960.46 135.526 961.46 134.586C965.741 130.783 971.336 128.797 977.058 129.05C979.442 129.019 981.841 129.205 984.207 129C986.487 129.066 988.75 129.401 990.951 129.999C991.897 130.134 992.128 131.261 993.072 131.086C996.105 130.525 998.778 132.908 1001.71 132.027L1004.3 134.616C1009.81 136.191 1015.02 138.664 1019.73 141.937C1021.83 143.776 1024.75 144.244 1026.58 146.418C1028.99 146.229 1030.16 147.709 1030.92 149.695C1031.12 150.202 1031.42 150.338 1031.93 150.551C1035.34 151.972 1036.41 155.976 1039.62 157.664C1039.84 159.674 1041.45 161.03 1042.1 162.766C1043.78 165.984 1045.2 169.332 1046.33 172.779C1046.67 174.674 1047.71 176.373 1049.23 177.543C1049.49 179.116 1047.97 179.257 1048.49 180.815L1050.35 181.534C1050.35 183.571 1049.94 184.981 1050.44 185.492C1051.42 186.488 1050.24 187.558 1050.76 188.106C1051.65 189.027 1051.3 189.995 1051.36 190.95C1051.43 191.96 1051.38 192.977 1051.38 193.938L1053.25 195.808C1053.06 196.533 1052.65 196.962 1053.18 198.052C1053.67 199.846 1053.75 201.73 1053.4 203.557C1053.3 205.402 1054.52 206.855 1054.55 208.753C1054.5 211.848 1053.93 214.913 1052.86 217.819C1052.51 218.875 1053.47 219.028 1053.25 219.66Z" fill="#212222"/>
<path d="M1022.81 581.134C1020.42 584.972 1019.77 585.347 1014.38 586.919C1013.08 587.464 1011.83 588.136 1010.65 588.924C1009.07 588.924 1006.46 588.144 1005.15 589.114C1003.36 590.435 1000.94 588.884 999.726 590.968C994.279 590.767 989.225 593.745 983.727 592.982C982.124 592.76 980.695 594.274 979.598 593.896C977.34 593.119 975.36 594.346 973.246 594.055C971.093 593.758 968.58 594.863 966.818 593.615C964.874 592.238 962.295 594.261 960.82 591.99C958.71 591.978 956.614 591.66 954.595 591.047C949.748 590.585 945.2 588.491 941.696 585.109C938.249 581.9 935.436 578.07 933.406 573.819C932.591 572.358 933.312 570.467 931.479 569.635L932.798 567.76C932.32 566.817 932.045 565.784 931.991 564.728C931.938 563.672 932.107 562.617 932.487 561.63C932.867 560.644 933.45 559.748 934.199 559.001C934.947 558.255 935.844 557.674 936.832 557.296C941.25 554.633 946.295 553.189 951.452 553.112C952.719 553.163 954.162 553.697 955.308 552.614C956.066 551.899 956.954 553.607 957.989 552.25C958.49 551.593 960.564 552.094 961.924 552.146C963.021 552.001 964.092 551.705 965.108 551.267C967.472 551.032 969.849 550.971 972.222 551.084C975.495 550.885 978.896 551.935 982.03 550.12C982.265 550.013 982.521 549.957 982.779 549.957C983.038 549.957 983.293 550.012 983.529 550.119C986.507 551.705 989.806 550.524 992.802 551.203C998.428 551.658 1004 552.639 1009.44 554.135C1010.32 554.307 1011.21 554.321 1012.09 554.178C1013.57 555.844 1014.76 557.74 1015.62 559.791C1019.41 566.359 1021.85 573.613 1022.81 581.134V581.134ZM945.294 560.469C944.787 563.208 940.488 561.307 939.875 564.852C941.647 567.735 942.355 571.147 941.874 574.497C945.178 574.866 942.806 579.601 946.391 579.726C947.532 582.153 950.443 582.691 951.69 584.966C954.816 584.743 957.942 585.406 960.708 586.88L962.198 585.821C964.899 586.952 967.759 587.656 970.676 587.908C972.037 587.871 973.414 588.023 974.759 587.869C976.193 587.704 977.696 588.47 979.09 587.191C980.204 586.17 982.104 587.89 982.421 587.613C983.841 586.375 985.347 587.053 986.777 586.902C988.885 586.782 990.98 586.5 993.045 586.059C995.814 584.964 998.803 584.538 1001.77 584.816C1002.43 585.011 1003.13 585.005 1003.79 584.799C1007.56 583.021 1011.83 582.974 1014.79 581.623C1015.81 580.65 1016.44 579.337 1016.56 577.931C1016.69 576.526 1016.29 575.123 1015.46 573.985C1015.26 573.553 1014.65 573.227 1014.61 572.814C1013.19 567.503 1011.4 562.299 1009.24 557.243C1005.74 557.243 1002.5 557.082 999.284 557.326C998.079 557.417 997.451 556.346 996.284 556.592C991.98 557.827 987.4 557.711 983.164 556.258C982.854 556.136 982.52 556.088 982.188 556.116C981.856 556.145 981.535 556.249 981.25 556.422C979.97 557.849 978.345 557.321 976.967 557.185C970.226 556.521 963.66 558.682 956.95 558.28C956.467 558.203 955.972 558.303 955.558 558.562C954.101 560.042 951.914 558.489 950.826 559.398C949.063 560.872 947.26 559.906 945.294 560.469L945.294 560.469Z" fill="#212222"/>
<path d="M775.46 619.149C774.975 615.562 775.42 611.91 776.754 608.545C776.982 608.12 777.317 607.762 777.728 607.509C778.138 607.256 778.608 607.116 779.09 607.103C782.074 601.666 785.68 596.594 789.834 591.989C793.724 591.989 797.446 592.062 801.163 591.963C803.654 591.897 805.794 593.432 808.41 593.109C810.691 592.528 813.106 592.831 815.172 593.958C815.877 594.43 817.165 594.032 818.186 594.032C819.037 594.032 820.169 593.677 820.692 594.09C823.977 596.09 827.672 597.32 831.501 597.688C833.119 597.768 834.726 597.996 836.302 598.369C838.674 599.655 841.183 600.668 843.782 601.39C846.127 601.74 848.458 603.15 850.947 603.685C854.721 604.915 858.263 606.763 861.43 609.155C865.396 611.526 865.258 611.756 867.371 618.292C867.724 619.44 866.131 619.742 866.278 620.94C866.361 621.614 865.003 622.031 865.39 623.165L866.182 624.02C863.182 628.379 859.664 632.356 855.704 635.866C854.705 636.091 853.871 635.657 853.11 636.363C851.655 637.656 849.956 638.646 848.114 639.275C846.271 639.904 844.322 640.16 842.38 640.028C839.828 639.986 837.271 639.926 834.723 640.038C827.084 640.19 819.488 638.857 812.357 636.113C806.112 633.925 799.85 631.781 793.772 629.189C790.738 627.895 787.812 626.378 784.726 625.137C781.89 623.591 779.231 621.737 776.799 619.611C776.46 619.374 775.791 619.7 775.46 619.149ZM859.367 617.872C856.749 612.602 851.142 611.728 847.226 608.33C845.035 608.453 842.849 608.006 840.883 607.032C837.732 605.246 834.292 604.025 830.72 603.425C827.347 603.22 824.07 602.216 821.162 600.496C820.746 600.244 820.26 600.136 819.777 600.188C817.086 600.602 814.756 598.433 812.039 599.142C806.065 596.596 799.442 597.014 793.343 594.838L781.717 612.28V617.595C785.306 619.66 789.02 621.5 792.838 623.104C796.693 624.481 800.533 625.81 804.302 627.447C807.998 629.323 811.993 630.54 816.107 631.042L817.741 632.867C819.139 632.928 820.538 632.916 821.934 632.832C822.963 632.723 823.37 633.798 824.067 633.836C827.84 633.575 831.631 633.891 835.309 634.773C835.815 632.847 836.988 635.439 837.895 634.346C838.839 633.209 840.443 634.046 841.746 633.914C842.924 633.795 844.123 633.889 845.332 633.889C846.799 632.355 849.025 631.793 850.481 630.542C852.193 629.202 853.775 627.704 855.207 626.068C854.353 622.175 857.259 620.083 859.367 617.872Z" fill="#222323"/>
</svg>
