<svg width="1208" height="900" viewBox="0 0 1208 900" fill="none" xmlns="http://www.w3.org/2000/svg">
<path d="M118.263 487.915C116.009 485.109 117.669 482.878 119.235 480.453V475.653C120.326 474.707 121.187 473.524 121.753 472.194C123.575 467.931 125.742 463.824 128.232 459.913C128.585 459.371 129.004 458.874 129.477 458.432C131.069 456.838 132.525 455.114 133.83 453.277C135.155 451.439 136.875 449.92 138.862 448.831C141.058 447.479 143.1 445.892 144.953 444.099C148.657 440.283 152.768 436.882 157.212 433.959C161.13 431.608 164.554 428.459 168.592 426.54C172.491 424.688 176.13 422.289 180.174 420.794C182.566 420.176 184.899 419.35 187.146 418.323C188.009 417.823 188.969 418.492 189.507 419.05C192.067 418.16 194.017 416.018 196.944 416.264C197.259 416.28 197.57 416.195 197.832 416.022C202.437 413.494 207.371 411.62 212.492 410.452C216.488 409.176 220.557 408.139 224.676 407.347C226.577 406.944 227.498 405.147 229.718 404.883C232.425 404.28 234.998 403.18 237.304 401.639C239.871 400.238 242.597 399.15 245.422 398.396C247.433 397.851 248.66 396.116 250.886 395.835C256.942 395.071 261.221 390.395 266.631 388.122C267.341 387.823 267.826 386.987 268.412 386.397C270.025 384.191 272.395 382.658 275.067 382.09C276.372 379.832 277.909 377.717 279.652 375.778C281.076 373.723 282.446 371.629 284.067 369.667C285.437 368.01 285.826 365.603 287.064 363.985C288.674 361.884 287.187 359.777 288.531 357.343C289.105 356.618 289.526 355.785 289.771 354.894C290.015 354.003 290.078 353.071 289.954 352.155C289.627 350.38 289.732 348.552 290.26 346.825C291.208 345.149 290.614 343.633 291.057 341.722L292.856 340.307C293.742 331.676 295.182 323.11 297.168 314.663L298.982 313.236C298.682 310.125 299.236 306.99 300.583 304.169C301.044 303.16 302.175 301.535 301.286 300.53C299.787 298.834 302.235 298.416 302.027 297.052C301.748 296.278 301.651 295.45 301.743 294.632C301.835 293.814 302.113 293.028 302.557 292.335C303.587 291.101 302.932 289.391 303.695 287.814C304.226 285.598 304.299 283.297 303.909 281.052L305.759 279.203C306.443 277.36 305.671 275.456 306.356 273.47C307.937 269.08 310.868 265.303 314.727 262.68C316.209 261.605 317.579 260.76 318.061 258.889C322.447 257.265 326.5 254.858 330.024 251.784C331.562 250.49 333.477 250.461 335.065 249.241C336.372 248.238 337.604 246.167 339.906 246.605C340.241 246.627 340.573 246.529 340.843 246.329C341.113 246.129 341.303 245.839 341.379 245.512C341.723 243.604 343.393 243.108 344.677 242.712C347.914 241.655 350.957 240.076 353.686 238.037C356.383 236.087 359.619 235.25 362.197 233.026C363.696 231.639 365.604 230.777 367.634 230.569C368.884 230.467 370.047 229.887 370.88 228.95C372.949 226.747 375.698 225.302 378.686 224.847C379.873 224.511 380.85 223.424 382.214 223.662C383.851 223.948 384.243 222.192 385.384 221.683C389.113 219.863 392.934 218.239 396.832 216.818C398.012 216.381 399.104 215.736 400.056 214.913C400.925 214.263 402.105 214.457 403.166 213.999C404.976 213.218 406.093 211.162 408.719 211.515C410.738 211.498 412.69 210.789 414.25 209.507C415.89 208.319 417.794 207.547 419.798 207.255C423.758 205.987 427.833 205.111 431.964 204.641C434.745 202.682 438.086 201.678 441.485 201.778C443.564 202.058 445.081 200.583 447.072 200.646C448.835 201.068 450.692 200.781 452.246 199.848C453.191 199.126 455.156 199.847 456.635 199.686C458.836 199.447 461.238 200.547 463.233 198.741C463.415 198.575 463.886 198.767 464.209 198.711C465.57 198.474 466.209 200.22 467.815 199.817C469.085 199.592 470.39 199.689 471.613 200.1C476.058 201.232 480.097 203.591 483.267 206.908C483.533 207.193 483.856 207.419 484.216 207.571C484.575 207.723 484.963 207.798 485.353 207.79C485.367 208.586 485.572 209.368 485.952 210.068C486.332 210.768 486.874 211.367 487.534 211.813C488.755 212.366 489.788 213.264 490.506 214.395C491.225 215.526 491.598 216.842 491.581 218.182C492.706 218.717 493.995 219.072 494.57 220.337C496.041 223.577 497.888 226.616 499.59 229.731C500.208 230.861 500.199 232.396 500.805 233.181C502.205 234.994 501.03 237.292 502.513 239.025C503.471 240.594 504.235 242.275 504.788 244.029C505.707 245.864 505.106 247.54 505.693 249.252L507.599 251.158C506.495 255.141 509.613 258.463 509.864 262.403C511.482 263.822 510.172 265.78 510.843 267.485C512.273 271.492 514.575 275.133 517.582 278.144V280.202C519.818 281.279 522.182 282.066 524.618 282.543C526.497 282.768 528.536 281.944 530.224 283.514C530.507 283.777 531.231 283.102 531.482 283.136C533.656 283.436 536.005 281.202 538.022 283.547C539.914 283.268 541.85 284.018 543.748 282.887C544.456 282.479 545.281 282.324 546.088 282.447C546.895 282.569 547.636 282.962 548.191 283.561C549.625 283.394 550.665 281.777 552.585 283.004C554.709 284.363 557.403 283.546 559.824 283.476C561.571 283.475 563.298 283.855 564.885 284.588C565.583 284.876 566.01 285.571 566.984 285.589C569.427 285.632 572.12 284.766 574.255 286.022C576.388 287.277 578.914 285.362 580.718 287.331C581.33 286.832 582.065 286.506 582.846 286.387C583.627 286.268 584.425 286.36 585.159 286.654C587.261 287.484 589.537 287.774 591.78 287.495C593.928 287.362 595.655 289.209 597.865 288.562C598.098 288.481 598.348 288.465 598.589 288.515C598.83 288.565 599.053 288.68 599.234 288.847C601.752 291.137 605.171 290.511 608.123 291.448C612.165 292.501 616.044 294.101 619.652 296.204C621.915 297.512 624.418 298.351 627.012 298.671C629.633 302.98 636.014 302.825 638.961 307.499H640.797C641.519 307.878 641.158 308.693 641.499 309.191C642.782 309.544 643.981 310.153 645.023 310.981C646.065 311.81 646.929 312.841 647.562 314.012C648.546 316.137 650.929 317.62 652.704 319.373C654.681 321.024 656.259 323.1 657.32 325.447C657.824 326.813 659.226 327.531 660.115 328.67C663.773 333.896 666.277 339.84 667.462 346.108L669.248 347.894V350.844C671.247 351.27 671.4 353.173 672.279 354.503C673.232 356.644 674.422 358.672 675.828 360.548C676.582 361.337 677.063 362.346 677.203 363.428C677.842 366.624 679.028 369.685 680.71 372.477C682.145 375.059 683.345 377.764 684.295 380.56L683.245 382.07C684.075 384.918 686.775 386.821 686.603 390.51L685.963 391.233C687.936 392.784 688.028 395.229 688.866 397.379C689.751 399.517 690.805 401.582 692.018 403.552C693.197 405.555 692.736 408.387 695.348 409.691C695.055 412.421 695.381 415.182 696.301 417.769C696.404 418.432 697.404 418.957 698.169 419.721V424.651C698.942 425.71 700.662 424.617 700.728 426.474C701.19 430.381 703.094 433.974 706.067 436.549L705.188 438.123C705.239 439.447 706.623 439.793 707.172 440.759C706.005 441.517 705.677 443.157 706.365 443.717C708.966 445.832 708.951 449.117 709.94 451.767C710.869 454.259 712.15 456.517 713.19 458.912C713.554 460.04 712.089 460.348 712.127 461.495C712.175 462.983 713.932 463.948 713.193 465.57C716.144 467.837 715.823 471.878 718.203 474.825C718.253 480.544 719.611 486.176 722.171 491.291C722.51 492.148 723.275 492.735 723.22 493.871C723.172 497.676 723.81 501.46 725.102 505.039C725.343 506.517 725.367 508.023 725.172 509.508C724.924 511.317 724.969 513.154 725.307 514.948C725.817 516.373 726.153 517.9 726.765 519.328C727.619 521.459 727.606 523.84 726.727 525.962C726.243 526.891 726.029 527.937 726.113 528.981C726.196 530.025 726.572 531.025 727.198 531.865C726.486 533.014 726.356 534.517 725.094 535.595C726.05 538.959 722.888 542.01 724.245 544.958C721.74 550.186 718.233 554.872 713.924 558.75C712.671 560.282 711.298 561.711 709.819 563.023C708.257 564.338 706.489 565.385 704.585 566.123C704.306 566.204 704.083 566.552 703.877 566.81C699.813 570.643 695.4 574.087 690.695 577.098C689.659 577.997 688.614 577.764 687.568 578.087C686.896 579.152 687.754 580.648 687.147 581.368C686.511 582.294 686.179 583.394 686.196 584.517C686.002 585.689 687.66 586.144 687.181 587.075C686.877 587.501 686.73 588.019 686.765 588.542C686.801 589.064 687.017 589.558 687.376 589.939C686.102 592.205 685.008 594.568 684.103 597.005L685.373 598.778C683.64 600.946 684.623 604.281 682.268 606.368C682.687 609.403 682.103 612.493 680.607 615.167C679.416 616.73 680.481 619.092 679.357 621.121C677.579 624.333 676.599 627.94 674.618 631.139C673.549 633.178 672.64 635.298 671.899 637.478C670.505 641.123 668.541 644.525 666.079 647.554C665.437 648.205 664.945 648.99 664.639 649.852C664.333 650.714 664.22 651.633 664.307 652.544C660.001 654.801 658.819 659.806 655.554 663.191C653.855 664.864 652.284 666.662 650.855 668.571C649.191 670.649 647.322 672.554 645.276 674.259C643.498 676.138 641.536 677.835 639.42 679.323C636.709 681.33 634.129 683.506 631.694 685.839C628.857 688.151 625.95 690.377 622.975 692.516C622.411 692.923 621.436 692.759 620.82 692.836C619.973 693.295 620.79 694.298 619.591 694.664H617.613L615.172 697.706H612.843C611.143 701.096 607.099 701.416 604.052 703.292C601.044 705.17 597.822 706.68 594.456 707.791C591.213 708.807 588.168 710.367 585.449 712.404C584.054 713.481 582.156 712.963 581.25 714.392C580.222 716.013 578.482 715.17 577.311 715.759C574.413 717.219 571.36 718.292 568.451 719.686C559.005 724.184 549.258 728.021 539.281 731.169C536.34 732.105 533.457 733.227 530.545 734.225C529.295 734.527 528.009 734.652 526.725 734.596C525.574 734.677 524.831 735.524 523.67 735.747C520.146 736.331 516.675 737.194 513.288 738.329C512.356 738.599 511.381 738.692 510.414 738.605C506.582 738.412 502.753 739.02 499.17 740.392C498.367 740.802 497.459 740.96 496.566 740.845C495.672 740.729 494.833 740.347 494.161 739.747C492.277 740.405 490.758 742.882 488.335 740.868C484.857 742.932 480.739 740.275 477.198 742.428C475.975 743.171 473.736 742.538 471.719 741.62C469.026 743.424 466.007 742.426 463.139 742.581C460.319 742.734 457.484 742.615 454.656 742.615C451.661 742.615 448.666 742.615 445.671 742.615C444.563 742.484 444.172 741.428 443.287 740.772C442.007 740.729 440.529 740.027 439.351 741.436C432.275 738.45 424.811 736.485 417.182 735.601L415.243 733.663L414.005 734.794C412.567 734.288 411.243 733.505 410.107 732.488C408.558 730.902 406.65 729.711 404.545 729.015C398.563 726.251 392.988 722.68 387.975 718.402C384.386 715.048 382.812 714.964 379.131 716.863C377.607 717.605 376.044 718.262 374.448 718.832C372.317 719.411 370.378 720.547 368.83 722.122C367.543 723.719 366.267 725.323 364.968 726.947C365.181 727.962 366.718 728.623 366.002 730.136L363.815 731.488V737.097C360.449 739.878 357.69 743.32 355.71 747.212C351.662 750.375 349.787 755.676 344.909 758.065C343.12 758.941 342.667 761.177 340.776 762.301C337.02 764.636 333.418 767.211 329.994 770.01C328.647 771.08 327.151 771.947 325.552 772.582C324.523 772.944 323.573 773.503 322.756 774.226C319.776 776.466 316.517 778.31 313.061 779.71C310.097 781.382 306.877 782.554 303.531 783.177C300.294 784.412 296.918 785.244 293.478 785.658C292.873 785.634 291.867 786.352 290.92 786.597C289.012 787.088 287.439 788.376 285.123 787.624C283.178 786.993 281.286 789.006 279.071 788.568C277.639 788.345 276.175 788.655 274.956 789.439C273.779 790.1 272.213 789.687 270.752 790.038C266.765 790.988 262.601 790.904 258.656 789.792C257.346 790.489 255.848 790.751 254.379 790.541C252.911 790.33 251.547 789.658 250.486 788.621L249.42 789.562C245.719 787.982 241.693 787.311 237.679 787.607L235.012 784.243C232.091 785.308 229.981 783.409 227.558 783.528C224.849 783.662 222.964 781.778 220.728 780.739C218.672 779.597 216.699 778.314 214.822 776.897C212.225 775.058 209.822 772.962 207.647 770.639L205.511 770.49C203.481 768.07 201.206 765.866 198.723 763.913C196.353 762.38 195.826 758.9 192.299 758.462C192.466 755.795 190.86 754.244 188.293 753.135C188.063 752.175 187.646 751.27 187.066 750.471C184.475 748.018 183.694 744.291 180.966 742.008C179.701 740.949 180.857 738.219 178.225 738.223C177.99 736.516 176.222 735.143 177.411 733.345C174.547 731.354 172.346 728.55 171.093 725.294C169.895 722.291 169.491 718.827 166.641 716.658C166.51 716.559 166.34 716.446 166.296 716.305C165.918 714.336 165.29 712.424 164.425 710.615C163.041 709.081 162.239 707.111 162.158 705.046C162.265 703.724 160.389 702.967 161.252 701.317L158.023 698.626C158.965 692.94 155.504 688.534 155.162 683.491C155.134 683.339 155.077 683.194 154.993 683.064C152.077 679.052 150.719 674.117 151.172 669.177C151.171 668.853 151.136 668.529 151.115 668.205C150.525 667.617 149.937 667.029 149.247 666.339C148.931 664.445 149.803 662.199 147.954 660.631L148.865 659.598C146.832 655.699 145.612 651.428 145.277 647.043C145.213 645.62 144.788 644.236 144.041 643.022C142.685 639.202 141.679 635.266 141.036 631.263C140.539 628.989 140.255 626.674 140.185 624.347L138.195 622.357C138.377 620.005 137.842 617.652 136.661 615.609C135.869 613.571 135.42 611.416 135.331 609.231C134.9 607.544 134.264 605.916 133.436 604.384C133.777 603.955 134.02 603.455 134.147 602.921C134.274 602.387 134.282 601.832 134.171 601.294L132.63 600.029C132.454 599.651 132.316 599.256 132.219 598.85C132.177 597.269 131.89 595.705 131.368 594.213C130.403 591.83 129.978 589.264 130.121 586.698C130.264 585.451 130.122 584.187 129.703 583.004C129.285 581.82 128.602 580.747 127.707 579.867C126.221 575.973 126.59 572.257 125.28 568.79C124.375 566.908 124 564.814 124.195 562.735C124.404 558.594 123.728 554.456 122.213 550.596C122.058 549.99 121.011 549.816 121.241 549.014C121.917 546.654 120.153 544.71 120.207 542.438C120.127 537.481 119.221 532.572 117.525 527.914C117.363 527.473 117.267 527.011 117.242 526.543C117.11 524.718 117.128 522.885 117.295 521.064C117.57 519.301 115.995 518.062 116.278 516.485C116.619 514.593 115.548 513.098 115.255 511.399C115.195 510.797 115.189 510.191 115.237 509.588L117.209 507.617C116.239 506.556 115.556 505.264 115.226 503.864C114.895 502.465 114.928 501.004 115.322 499.621C115.697 495.591 116.689 491.643 118.263 487.915V487.915ZM378.829 617.517C381.574 620.327 384.173 623.276 386.615 626.352C387.925 627.559 390.203 627.641 390.689 629.51C391.16 631.318 392.723 631.997 393.688 633.265C395.113 635.136 397.91 635.392 398.817 638.046C399.639 640.449 402.452 641.065 404.257 642.612C407.954 645.714 412.15 648.168 416.666 649.868C420.816 651.482 424.742 653.63 429.07 654.878C430.49 655.465 431.875 656.134 433.217 656.882C435.299 657.765 437.585 658.055 439.821 657.72C442.352 657.383 444.419 659.088 446.905 658.821C449.933 658.398 453.016 658.952 455.707 660.402C456.113 660.649 456.578 660.779 457.053 660.779C459.548 660.783 462.048 660.881 464.536 660.754C467.143 660.62 469.418 662.217 472.117 661.85C474.601 661.602 477.103 661.588 479.59 661.808C482.2 661.949 484.475 660.006 486.992 660.86C487.565 660.148 488.306 659.588 489.149 659.232C489.991 658.875 490.908 658.733 491.819 658.817C494.637 659.25 497.072 657.056 499.893 657.788C501.389 655.685 504.01 657.735 505.72 656.168C506.62 655.533 507.639 655.085 508.716 654.851C509.792 654.616 510.905 654.6 511.988 654.803C516.209 652.273 521.02 650.893 525.94 650.802C526.94 649.997 528.09 649.4 529.324 649.047C530.557 648.693 531.849 648.589 533.123 648.741C534.241 646.956 535.959 645.628 537.969 644.995C540.711 644.358 543.244 643.031 545.328 641.139C547.699 639.892 549.94 638.41 552.016 636.716C554.009 634.538 557.524 634.662 559.002 631.84C563.798 629.538 568.284 626.636 572.351 623.206C579.255 618.485 584.859 612.061 591.635 607.07C593.569 605.361 595.273 603.407 596.702 601.257C599.412 597.85 603.76 595.857 605.382 591.434C605.433 591.292 605.599 591.184 605.727 591.08C608.81 588.599 610.339 584.744 613.482 582.312C613.76 582.143 613.99 581.904 614.148 581.619C614.307 581.335 614.388 581.013 614.384 580.688C614.281 577.704 616.77 576.307 618.364 574.383C618.229 573.82 618.263 573.23 618.461 572.686C618.659 572.143 619.013 571.669 619.479 571.326C621.908 569.583 621.959 566.156 624.349 564.37C624.2 563.501 624.229 562.612 624.433 561.755C624.637 560.898 625.013 560.091 625.537 559.383C627.395 555.494 628.965 551.473 630.234 547.353C630.616 546.396 631.565 545.679 631.401 544.309C630.896 540.092 633.018 536.026 632.341 531.758C632.254 531.434 632.257 531.092 632.351 530.769C633.922 525.659 633.692 520.165 631.699 515.204C632.067 514.857 632.46 514.537 632.318 513.903C630.824 511.03 629.867 507.908 629.492 504.692C628.878 501.618 627.798 498.648 627.402 495.564C626.974 492.233 623.685 490.006 624.322 486.234C622.196 486.384 621.578 484.582 620.336 483.579V481.611C617.44 480.884 617.863 478.061 617.12 476.58C614.731 475.552 612.712 473.82 611.334 471.614C610.886 470.536 610.195 469.576 609.316 468.808C608.437 468.04 607.392 467.485 606.264 467.187C605.862 467.101 605.487 466.917 605.173 466.651C604.86 466.385 604.617 466.045 604.467 465.662C603.964 463.784 602.229 462.986 601.164 461.66C599.703 460.243 598.019 459.076 596.179 458.207C594.71 457.367 593.587 456.034 593.008 454.445C589.385 452.275 585.577 450.43 581.629 448.931C581.596 448.363 581.415 447.813 581.106 447.336C580.797 446.858 580.369 446.468 579.865 446.205C575.674 444.174 571.623 441.866 567.739 439.297C567.118 438.823 565.824 439.231 564.952 439.231C563.548 437.826 562.254 436.533 560.96 435.242C559.849 435.084 558.659 435.611 557.615 434.885C556.082 433.818 554.125 433.516 552.772 432.088C552.121 431.401 551.642 430.289 550.554 430.282C548.671 430.269 547.405 428.671 545.866 428.399C543.897 428.051 542.312 426.33 540.745 426.446C538.435 426.617 538.319 424.482 536.843 423.821C535.402 423.176 533.939 423.822 532.698 422.966C529.446 420.724 525.48 421.147 521.086 419.742L520.214 418.273H514.685C512.855 418.273 510.548 417.581 509.308 418.436C507.484 419.695 506.475 417.977 505.019 418.082C503.189 418.215 501.866 419.933 499.952 419.287C498.927 418.941 497.847 421.044 496.792 419.271C495.877 420.571 494.49 419.679 493.391 419.83C489.331 420.392 485.687 422.979 481.395 422.265C480.008 423.699 478.388 421.505 477.284 422.333C475.425 423.502 473.256 424.082 471.061 423.997C469.055 424.09 467.061 426.462 464.977 424.411C460.863 425.941 456.558 426.898 452.183 427.255C451.123 428.805 449.507 428.274 448.107 428.218C445.747 428.294 443.437 428.914 441.357 430.031C437.605 431.061 434.097 432.831 431.041 435.238C428.704 434.312 427.968 437.129 425.905 437.418C423.912 437.92 422.146 439.079 420.892 440.709C419.501 442.368 417.472 442.18 415.898 443.34C413.013 445.465 410.107 447.626 407.095 449.609C404.997 450.807 403.08 452.295 401.401 454.032C399.438 456.137 397.128 457.89 394.572 459.214C393.687 459.634 392.936 460.292 392.404 461.114C390.628 463.847 388.472 466.312 386.001 468.437C382.722 472.191 378.157 474.876 376.446 479.946C376.303 480.37 375.736 480.635 375.42 481.018C370.657 486.263 366.713 492.197 363.72 498.619C362.372 501.885 360.303 504.85 358.896 508.097C358.36 509.334 356.723 509.711 356.822 511.224C356.455 514.504 355.698 517.729 354.566 520.83C354.183 524.222 353.306 527.539 351.963 530.676C351.57 531.592 351.465 532.607 351.662 533.584C351.86 534.562 352.351 535.456 353.069 536.148C350.268 538.476 353.265 542.019 351.049 544.47C350.968 544.56 351.967 545.86 350.836 546.503C352.791 548.261 351.883 550.596 351.709 552.561C351.51 554.799 353.073 556.5 352.852 558.645C352.586 560.121 352.61 561.634 352.921 563.101C353.293 564.297 353.512 565.59 353.964 566.648C354.485 567.868 353.844 569.025 354.445 570.116C354.936 571.406 355.551 572.647 356.279 573.82C357.577 575.343 356.523 576.399 355.991 577.626C358.797 579.772 358.52 583.667 360.809 586.106C360.838 588.002 361.467 589.841 362.607 591.357C364.065 594.118 365.682 596.792 367.45 599.367C369.109 601.847 371.926 603.97 371.869 607.466C374.544 609.65 375.658 613.191 378.698 615.14L378.829 617.517ZM330.657 650.892C328.823 650.737 328.409 649.702 327.802 648.449C325.984 644.699 323.963 641.038 321.84 637.449C320.716 635.549 318.516 634.048 318.018 632.062C316.651 626.617 313.999 621.728 312.167 616.511C311.783 614.69 311.278 612.897 310.656 611.143C308.667 606.562 307.4 601.7 306.899 596.731C306.896 596.249 306.853 595.767 306.831 595.343L305.367 593.879C304.106 589.201 303.612 584.348 303.905 579.511C303.923 579.18 304.052 578.693 303.885 578.537C301.974 576.741 303.595 574.33 302.826 572.475C302.108 570.523 301.796 568.445 301.91 566.368C301.913 560.381 302.11 554.385 301.855 548.409C301.895 542.575 302.443 536.755 303.492 531.016C303.425 528.738 303.68 526.463 304.249 524.258C305.661 520.163 306.854 515.995 307.822 511.773C308.277 508.541 309.319 505.419 310.896 502.561C310.462 498.875 313.167 496.175 313.967 492.843C315.443 488.961 317.173 485.181 319.147 481.527C319.803 479.636 320.555 477.78 321.4 475.967C323.312 472.204 325.849 468.833 327.772 465.134C329.819 461.29 332.086 457.567 334.561 453.984C337.015 450.351 339.465 446.714 341.821 443.017C342.987 441.188 345.434 440.13 345.206 437.412C345.179 437.092 345.889 436.385 346.208 436.413C347.855 436.56 347.768 435.116 348.246 434.288C350.045 431.578 352.19 429.114 354.627 426.959C356.028 425.546 357.48 424.184 358.776 422.929C359.283 419.837 360.048 418.929 366.753 413.283H368.275C370.401 410.863 372.918 408.818 375.722 407.231C378.818 405.844 380.364 402.305 383.604 400.955C383.888 400.837 384.097 400.334 384.334 400.339C388.095 400.415 389.909 397.457 392.28 395.322H396.428C398.273 391.98 402.169 391.969 405.156 390.333C408.4 388.556 412.518 388.557 415.246 385.27H419.337C420.661 383.268 423.228 383.234 424.182 381.281H429.653C434.501 378.666 439.789 376.967 445.254 376.27C450.519 373.877 456.205 372.547 461.985 372.357C463.239 371.508 463.572 370.353 464.744 370.364C465.31 370.754 465.956 371.014 466.635 371.124C467.314 371.233 468.01 371.191 468.67 370.999C472.63 369.465 476.822 368.618 481.067 368.492C482.7 368.542 483.631 367.112 485.085 367.384C485.62 367.811 485.92 368.518 486.932 368.335C487.642 368.171 488.125 367.275 489.314 367.305C493.031 367.508 496.759 367.249 500.412 366.534C503.871 366.016 507.386 365.98 510.855 366.427C514.38 366.651 518.05 365.376 521.441 367.347C521.814 367.564 522.679 367.588 522.881 367.343C524.685 365.163 526.502 366.883 528.031 367.505C530.592 368.732 533.398 369.363 536.238 369.351C539.097 369.297 541.938 369.816 544.594 370.875C548.961 373.431 554.002 374.596 559.046 374.215C560.565 376.593 562.956 378.281 565.706 378.915C568.24 379.666 570.129 382.094 573.143 381.676C574.061 381.819 574.906 382.259 575.551 382.928C578.534 386.332 583.076 387.409 586.538 390.217C589.064 391.882 591.458 393.739 593.7 395.77C596.062 398.319 599.024 400.489 601.578 402.991C601.693 403.103 601.819 403.284 601.947 403.291C603.854 403.392 604.533 405.632 606.38 405.821C606.7 408.056 608.536 408.676 610.172 409.707C611.626 410.818 612.941 412.099 614.089 413.525C614.717 414.028 615.184 414.704 615.436 415.468C615.635 416.094 615.976 416.665 616.43 417.139C616.885 417.614 617.441 417.977 618.058 418.203C620.011 419.073 621.655 420.514 622.773 422.336C624.932 425.732 627.83 428.596 631.25 430.715C631.735 430.994 632.424 431.398 632.339 432.236C632.114 434.451 633.684 435.443 635.302 436.201C636.931 436.985 638.282 438.247 639.176 439.818C639.678 440.799 640.331 441.694 641.112 442.472C644.023 445.116 645.674 448.863 648.859 451.248C649.843 451.984 648.832 453.184 650.003 454.436C653.06 456.505 654.915 460.54 658.051 463.398C661.078 466.157 661.34 470.712 664.145 473.282C667.414 476.276 666.797 481.17 670.324 483.724V487.445C671.35 488.759 672.038 490.304 672.329 491.946C672.351 493.347 672.803 494.708 673.625 495.843C675.615 498.309 676.589 501.442 676.345 504.602C677.336 506.313 678.934 507.886 679.03 509.545C679.144 511.536 680.42 513.145 680.246 515.087C680.421 516.964 680.719 518.827 681.138 520.665C681.931 527.483 682.313 534.342 682.281 541.206C682.153 543.532 682.149 545.862 682.269 548.188C682.273 548.457 682.567 548.721 682.733 548.997H683.741C684.624 546.14 685.191 543.195 685.431 540.214C686.023 537.334 686.646 534.399 687.132 531.504C687.389 528.523 687.429 525.528 687.252 522.542C687.163 519.506 686.715 516.492 685.917 513.561C685.31 510.827 685.909 507.396 682.9 505.295C684.303 502.218 682.332 499.561 682.041 496.689C681.881 495.102 680.188 493.551 680.222 491.507C680.255 489.544 677.484 488.812 677.929 486.408C678.064 485.678 676.256 485.102 676.226 483.682C676.122 478.63 672.505 474.926 670.832 470.455C670.274 469.023 669.604 467.637 668.827 466.311C667.93 465.006 666.96 463.754 665.921 462.561C663.997 459.98 663.375 456.794 661.66 454.348C659.822 451.729 659.554 448.413 657.291 446.133C658.008 443.987 654.934 443.585 655.239 441.463C655.264 440.338 655.008 439.224 654.494 438.222C653.98 437.221 653.225 436.363 652.296 435.726V433.32C651.271 430.498 649.205 428.724 649.305 425.99C647.342 424.855 649.032 422.579 647.734 421.138C646.111 418.869 644.96 416.298 644.348 413.576C642.618 408.478 640.606 403.481 638.321 398.607C637.118 396.11 635.959 393.587 634.631 391.157C631.874 387.546 629.381 383.741 627.171 379.772C626.675 378.711 625.791 377.881 624.7 377.454C623.802 377.122 623.731 376.568 623.266 376.027C620.811 372.576 618.021 369.377 614.936 366.477C613.004 365.32 611.256 363.879 609.751 362.203C609.131 361.315 608.946 360.165 607.961 359.453C604.751 357.135 601.507 354.854 598.423 352.376C595.924 350.369 592.57 350.361 590.053 348.439C588.58 347.28 586.99 346.28 585.308 345.453C580.128 343.488 575.065 341.225 570.146 338.676C568.647 337.744 566.507 339.316 565.11 337.594C560.386 337.272 556.387 333.811 551.443 334.443C550.555 333.868 549.555 333.488 548.51 333.329C547.464 333.17 546.397 333.234 545.378 333.518C543.156 333.809 541.392 332.465 539.295 332.403C537.047 332.637 534.775 332.367 532.644 331.612C530.791 330.741 528.17 331.891 526.305 330.33L524.704 331.537C517.358 329.95 509.76 329.926 502.404 331.467C501.778 330.85 500.958 330.465 500.082 330.379C499.207 330.293 498.328 330.509 497.592 330.993C497.068 331.37 496.416 331.529 495.777 331.435C489.697 330.712 483.783 332.878 477.722 332.461C477.365 332.509 477.017 332.609 476.69 332.759L475.093 334.508C469.878 334.098 464.632 334.584 459.581 335.944L454.541 338.539C453.795 338.782 452.191 337.869 450.89 338.737C447.978 340.679 444.085 339.845 441.332 342.213C441.03 342.474 440.407 342.427 439.936 342.417C434.857 343.187 429.898 344.609 425.183 346.648C423.461 347.047 422.158 349.569 419.876 349.368C417.456 349.154 416.003 351.207 413.732 351.539C411.152 352.006 408.681 352.944 406.441 354.307C404.005 355.707 401.242 356.494 398.978 357.921C396.363 359.593 393.62 361.056 390.774 362.297C387.777 363.503 384.856 364.889 382.027 366.449C379.218 367.71 376.604 369.366 374.264 371.367C375.338 371.455 376.417 371.447 377.489 371.343C383.608 369.758 389.585 367.671 395.361 365.104C399.061 363.202 402.91 361.607 406.871 360.336C408.031 359.892 409.119 359.277 410.097 358.511C410.636 358.182 410.849 357.349 411.631 357.404C413.849 357.503 416.038 356.878 417.868 355.624C419.804 354.633 421.905 354.004 424.066 353.766C426.545 353.211 428.674 351.892 431.038 351.171C433.446 350.438 436.475 350.707 438.354 348.414C441.326 348.781 443.737 346.414 446.507 346.52C449.692 346.641 451.945 343.651 455.16 344.407C461.243 342.306 467.578 341.018 473.999 340.579C476.269 340.168 478.468 339.435 480.529 338.402C481.678 338.707 482.641 340.074 483.675 339.376C485.797 337.941 488.072 338.574 490.288 338.452C492.592 338.325 494.905 338.339 497.214 338.292C499.508 335.783 501.645 339.512 503.949 338.472C504.502 338.222 505.581 338.719 505.878 338.388C507.685 336.372 509.36 338.082 510.799 338.527C511.592 338.052 511.848 337.275 512.779 337.462C513.216 338.039 513.844 338.442 514.551 338.596C515.259 338.751 515.998 338.647 516.635 338.304C518.094 336.998 518.895 338.762 519.91 338.413C521.535 337.855 522.55 339.453 523.935 339.489L525.033 338.475C525.407 338.475 525.792 338.365 526.048 338.5C526.416 338.746 526.753 339.035 527.052 339.361C529.268 338.425 530.923 337.916 532.11 338.689C532.483 338.992 532.917 339.211 533.382 339.331C533.847 339.45 534.333 339.467 534.805 339.381C535.901 339.093 536.73 340.66 537.207 340.086C538.413 338.633 538.684 340.61 539.575 340.486C544.831 340.772 550.057 341.457 555.209 342.534C557.525 342.753 559.779 343.408 561.852 344.463C564.318 345.838 567.077 346.604 569.899 346.698C574.481 348.15 578.43 350.879 582.885 352.722C587.325 354.604 591.555 356.947 595.506 359.712C597.712 361.234 599.491 363.244 601.869 364.646C604.858 366.409 606.85 369.736 610.03 371.523C610.037 374.133 613.438 374.054 613.851 376.341C618.224 378.073 619.81 382.367 622.169 385.809C624.405 389.779 627.131 393.454 630.282 396.746C630.524 397.638 630.175 398.397 630.691 399.226C632.862 402.248 634.699 405.496 636.168 408.914C637.081 411.55 638.304 414.069 639.811 416.417C641.12 417.959 641.965 419.841 642.247 421.844C642.355 422.787 642.764 423.67 643.413 424.362C644.983 426.674 646.302 429.146 647.349 431.737C648.348 434.312 649.727 436.737 650.82 439.28C651.464 440.779 651.875 442.377 652.391 443.93L651.467 444.438C649.457 439.694 644.359 437.356 642.923 432.475C638.244 430.814 637.965 424.065 632.579 424.17C632.335 423.378 632.2 422.933 632.06 422.49C631.458 420.59 629.22 420.245 628.351 418.622C626.871 415.948 624.68 413.736 622.02 412.23C620.534 411.476 619.318 410.28 618.54 408.807C617.53 406.554 615.859 404.661 613.749 403.379C611.061 401.278 608.516 399.001 606.129 396.564C605.82 396.171 605.461 395.821 605.06 395.524C601.397 393.496 598.104 390.862 595.32 387.734C594.505 386.669 593.462 385.801 592.267 385.192C591.073 384.583 589.757 384.25 588.416 384.218C588.481 383.6 588.332 382.979 587.996 382.457C587.66 381.934 587.156 381.543 586.567 381.345C585.023 380.585 583.59 379.572 582.124 378.774C580.201 377.726 578.869 375.537 576.567 375.416C574.35 375.114 572.311 374.042 570.804 372.388C570.611 372.224 570.157 372.355 569.825 372.367C567.926 372.254 566.122 371.495 564.713 370.216C562.418 368.23 559.449 367.198 556.416 367.332C555.324 367.321 554.239 367.142 553.201 366.803C550.695 366.306 549.18 364.404 546.449 363.4C542.953 364.211 539.169 361.331 535.135 362.515C532.201 359.401 528.026 361.041 524.781 359.419C523.738 358.897 523.355 360.784 522.185 360.373C521.185 359.543 519.992 358.647 518.791 359.718C518.308 360.168 517.701 360.463 517.049 360.562C516.396 360.662 515.729 360.562 515.134 360.277C512.79 358.655 510.344 359.612 507.979 359.44C505.327 359.296 502.67 359.315 500.02 359.495C499.519 359.52 499.222 360.534 498.323 360.37C495.756 357.951 493.832 360.471 491.67 361.389C490.848 361.525 490.591 360.763 490.494 360.694C485.469 359.398 481.123 361.845 476.518 361.505C475.53 361.575 474.549 361.715 473.581 361.924C471.328 362.582 469.028 363.071 466.701 363.384C464.79 363.301 462.883 363.623 461.105 364.329C457.258 365.208 453.525 366.532 449.984 368.276C449.495 367.542 448.699 366.987 448.264 367.419C447.132 368.3 445.824 368.929 444.43 369.265C443.035 369.601 441.585 369.635 440.176 369.366L438.141 371.401C435.587 371.301 433.042 371.743 430.671 372.697C430.703 373.514 430.709 374.006 430.216 374.324C427.456 374.017 425.003 376.11 422.678 375.393C420.116 376.864 417.332 377.913 414.435 378.497C412.082 378.635 410.081 380.611 407.712 381.434C404.234 382.674 400.87 384.217 397.661 386.044C396.255 387.016 394.745 387.828 393.159 388.464C389.164 390.116 385.316 392.101 381.655 394.4C379.653 395.234 377.782 396.352 376.1 397.72C372.496 401.211 367.911 403.208 364.141 406.389C362.741 407.571 360.758 408.046 360.298 410.235C360.186 410.552 360.005 410.84 359.767 411.078C359.53 411.316 359.243 411.498 358.926 411.61C357.068 412.153 356.68 414.019 355.481 415.135C354.199 416.164 352.995 417.286 351.877 418.49C350.848 420.109 349.714 421.657 348.483 423.127C344.925 426.509 342.428 430.868 338.579 433.977C337.606 434.763 337.911 435.733 337.84 436.791C335.244 439.111 333.157 441.944 331.711 445.111C329.686 449.078 327.04 452.696 323.873 455.829C323.813 456.789 324.091 457.742 323.098 458.539C322.239 459.23 320.954 459.91 320.934 461.087C320.88 464.203 318.578 465.85 317.099 467.452C316.365 470.161 315.204 472.735 313.661 475.078C312.408 477.504 311.759 480.197 311.771 482.927C308.718 484.267 308.992 487.885 307.363 490.082C306.564 490.203 306.165 490.008 305.899 489.517C305.366 488.337 307.092 488.089 306.925 486.95C306.134 481.541 308.334 476.31 307.949 470.899C307.812 469.466 308.041 468.023 308.616 466.704C309.347 464.976 309.374 463.03 308.69 461.283C308.274 458.412 310.896 456.807 309.034 454.565C310.864 452.556 308.955 449.837 310.019 448.008C311.43 445.584 310.531 443.219 310.888 440.865C310.938 440.54 310.76 440.108 310.916 439.882C313.006 436.853 311.3 433.575 312.056 430.341H308.963C308.689 431.371 308.647 432.514 308.322 433.521C307.422 435.545 306.917 437.722 306.832 439.936C307.127 445.558 305.068 450.962 304.906 456.568C303.433 457.845 304.154 459.595 303.867 461.136C303.623 462.449 304.776 463.131 304.865 463.851C303.975 465.769 303.349 467.798 303.003 469.884C302.257 475.202 301.886 480.566 301.891 485.936C301.967 486.555 302.006 487.531 301.658 487.783C300.515 488.611 302.205 489.713 301.017 490.795C299.801 491.902 302.144 493.26 301.809 495.409L299.916 498.994C299.988 501.865 299.72 504.735 299.118 507.543C298.362 509.121 297.909 510.828 297.784 512.573C297.885 513.847 299.216 514.255 299.013 515.656C298.661 516.853 298.233 518.027 297.734 519.171C297.006 521.895 297.402 524.674 296.745 527.243C296.189 528.539 295.93 529.942 295.987 531.351C296.365 533.145 294.885 534.285 294.881 535.941C295.126 541.148 294.849 546.367 294.053 551.519C293.706 554.992 293.657 558.489 293.906 561.97C294.522 565.46 294.863 568.992 294.927 572.535C294.889 572.698 294.89 572.868 294.93 573.031C296.369 577.432 297.043 582.047 296.921 586.675C297.053 587.59 297.306 588.484 297.67 589.334C298.827 593.063 299.603 596.901 299.985 600.787L301.933 602.321C301.947 605.706 302.802 609.034 304.42 612.007C305.62 615.009 305.689 618.504 307.099 621.367C308.538 624.288 309.458 627.387 310.884 630.288C312.308 633.185 313.602 636.155 314.994 639.056C316.567 641.788 318.37 644.382 320.381 646.811C321.941 649.698 323.71 652.467 325.674 655.096C328.265 657.391 330.628 659.931 332.731 662.679C334.668 665.289 336.967 667.609 339.56 669.569C341.879 672.061 344.648 674.092 347.721 675.554H352.794C352 673.546 349.485 673.888 348.787 672.17C348.161 670.63 345.972 671.131 345.496 669.102C345.17 667.716 343.225 666.63 341.999 665.956C340.482 665.122 340.812 663.201 338.979 662.636C338.221 662.292 337.556 661.772 337.039 661.12C336.522 660.468 336.169 659.701 336.008 658.885C335.668 656.74 333.528 657.317 332.749 655.801C331.722 654.325 331.01 652.654 330.657 650.892V650.892ZM319.466 363.641C320.454 363.244 321.337 362.625 322.048 361.833C322.759 361.04 323.279 360.095 323.567 359.07C324.694 355.547 326.161 352.142 327.946 348.902C328.421 348.278 328.749 347.556 328.908 346.788C329.296 344.183 330.132 341.666 331.377 339.346C333.132 336.805 334.542 334.043 335.571 331.132C336.306 327.782 337.712 324.616 339.703 321.823C341.246 317.93 343.309 314.264 345.835 310.925C345.013 308.573 348.012 307.844 347.997 305.836C350.337 304.9 349.284 301.882 351.424 300.504C352.653 300.729 353.918 300.665 355.118 300.315C356.317 299.965 357.419 299.34 358.334 298.49C360.436 298.659 362.547 298.291 364.467 297.42C366.388 296.549 368.055 295.204 369.312 293.511C370.843 293.514 372.359 293.215 373.773 292.629C378.002 291.639 382.035 289.947 385.705 287.625C386.466 287.107 387.301 286.705 388.181 286.434C392.501 285.698 396.536 283.792 399.849 280.922C400.26 280.453 400.779 280.711 401.191 280.534C404.158 279.718 406.956 278.383 409.456 276.589C410.935 276.328 412.333 276.792 413.808 276.058C417.241 274.348 420.876 273.046 424.329 271.372C425.853 270.631 427.418 269.975 429.016 269.408C430.812 268.771 433.245 268.759 434.09 266.533H438.222L440.063 264.692H443.193C444.435 265.422 444.45 266.707 445.143 267.56C446.071 267.691 446.98 267.425 447.881 268.223C449.56 269.916 451.482 271.351 453.583 272.481C457.102 274.002 460.231 276.299 462.737 279.201C463.876 279.86 464.785 279.132 465.789 280.225C466.669 283.966 470.698 284.884 473.714 286.316C476.438 287.437 478.967 288.985 481.205 290.901C482.515 292.046 484.12 292.8 485.837 293.079C487.676 293.53 488.199 295.81 490.344 295.581C491.65 295.441 492.723 297.421 494.411 296.213C494.452 295.779 494.546 295.352 494.69 294.941C494.923 294.568 495.204 294.226 495.525 293.924C494.399 292.974 493.514 291.771 492.94 290.414C492.425 289.145 491.506 288.081 490.325 287.387C484.917 283.738 479.265 280.465 473.409 277.589C471.99 277.003 471.843 275.71 471.475 275.092C469.276 273.392 466.367 273.597 465.4 270.846C462.845 270.148 461.316 267.214 458.145 267.598C456.328 265.401 453.826 263.877 451.04 263.269C449.499 262.992 446.645 262.067 447.915 258.675C450.597 256.703 452.786 254.135 454.308 251.174C456.662 246.862 458.772 242.422 460.628 237.873C462.509 233.645 464.021 229.263 465.146 224.774C465.479 222.369 465.634 219.944 465.61 217.517L463.244 214.735H461.09C460.282 215.408 459.639 216.258 459.211 217.218C458.782 218.178 458.58 219.224 458.619 220.275C458.675 221.229 458.45 222.178 457.97 223.004C457.108 224.59 457.494 227.268 456.329 228.187C454.267 229.813 454.72 232.033 454.151 233.859C453.488 235.633 452.495 237.265 451.224 238.669C450.023 240.234 449.964 242.381 448.776 244.138C446.41 247.637 444.083 251.17 441.766 254.702C440.722 256.492 439.04 257.822 437.058 258.425C434.845 259.12 432.705 260.029 430.667 261.139C428.972 261.865 427.384 263.378 425.689 263.473C420.855 264.568 416.151 266.177 411.659 268.272C407.794 269.247 404.199 271.078 401.137 273.63H396.971L394.321 276.532C393.501 276.568 392.645 276.341 392.224 276.67C390.466 278.046 388.129 277.953 386.31 279.362C384.523 280.746 381.884 280.594 380.12 282.495C378.582 284.154 375.992 283.373 373.976 284.46C370.336 286.422 366.439 287.916 362.617 289.526C350.193 294.76 353.23 294.805 341.091 294.448C340.912 292.99 339.276 293.699 338.429 292.765C337.683 291.942 336.239 291.751 335.104 291.281C332.08 286.748 328.033 282.99 323.289 280.308C322.609 279.935 321.861 279.7 321.09 279.618C320.318 279.536 319.538 279.607 318.794 279.829C318.894 280.832 319.216 281.801 319.736 282.666C320.256 283.53 320.962 284.268 321.801 284.827C323.855 285.775 324.395 287.827 325.885 289.143C327.223 290.324 327.614 292.21 329.685 293.065C331.412 293.777 331.592 296.689 333.74 297.518C335.449 298.056 336.994 299.02 338.229 300.318C340.235 300.866 342.083 300.057 344.23 301.059C341.199 304.815 340.773 309.916 336.857 312.993C336.592 315.665 335.454 318.174 333.617 320.132C332.831 321.288 332.175 322.528 331.662 323.828C330.881 325.872 330.416 328.058 329.564 329.925C328.714 331.788 327.221 333.604 326.331 335.58C325.669 336.628 325.154 337.762 324.801 338.951C324.662 340.35 324.225 341.704 323.521 342.921C322.816 344.138 321.86 345.191 320.716 346.008C321.493 349.094 319.106 350.888 318.514 353.284C317.645 355.511 317.082 357.845 316.841 360.223L319.466 363.641ZM167.591 481.185C170.628 481.481 173.687 480.925 176.424 479.579C178.992 478.531 181.642 477.699 184.347 477.091C186.682 475.604 189.156 474.347 191.733 473.339C194.4 472.706 196.8 471.247 198.588 469.17H201.565C204.382 466.666 207.464 464.479 210.757 462.647C214.785 460.98 218.299 458.276 220.943 454.81C223.033 453.705 224.874 452.183 226.352 450.338C227.87 446.989 228.439 443.288 227.999 439.637C226.786 438.644 226.384 436.957 225.586 436.528C224.444 435.845 223.38 435.04 222.413 434.126C220.135 434.867 218.357 433.4 216.589 432.434C215.523 433.066 214.323 433.437 213.087 433.518C211.851 433.599 210.613 433.388 209.474 432.901C207.123 432.265 204.673 432.071 202.251 432.327C201.71 432.302 201.171 432.402 200.675 432.62C200.18 432.838 199.742 433.168 199.395 433.584C198.254 435.833 195.628 436.279 194.609 438.332C191.66 437.831 188.633 438.507 186.178 440.214C185.549 440.641 184.764 441.238 184.112 441.17C180.345 441.37 176.694 442.543 173.515 444.573C170.797 445.689 168.028 446.589 165.274 447.587C165.06 448.137 165.325 448.911 164.403 449.249H161.562C159.473 451.185 157.188 452.897 154.743 454.358C152.748 455.88 151.218 458.14 149.148 459.797V461.715L145.13 465.732C145.294 468.699 144.621 471.653 143.189 474.257C144.302 477.403 146.323 480.147 148.997 482.143C151.883 481.565 154.766 484.905 157.681 482.18C159.654 484.396 161.722 482.607 163.528 482.106L164.765 483.093C165.378 481.808 167.077 482.438 167.591 481.185ZM128.269 502.532C129.544 504.392 131.321 505.851 133.393 506.739C138.244 509.073 143.583 510.211 148.964 510.059C150.505 509.978 152.034 510.372 153.345 511.187C154.063 510.743 154.607 510.11 155.122 510.133C162.418 510.286 169.715 509.825 176.934 508.756C178.613 506.359 182.144 507.994 184.479 506.276C184.569 506.21 184.939 506.5 185.162 506.649C185.278 506.74 185.383 506.843 185.477 506.956L187.034 505.288C192.279 504.325 197.44 502.953 202.471 501.185C207.496 499.897 211.506 496.497 217.329 494.52L219.21 492.181C220.333 492.114 221.308 492.333 221.582 491.992C222.694 490.846 224.145 490.088 225.721 489.829C227.166 489.373 228.017 487.793 229.457 486.918C231.464 485.891 233.285 484.536 234.846 482.909C236.281 480.935 238.183 479.347 240.382 478.288C241.059 475.359 243.721 474.854 245.639 473.552C248.92 470.436 251.1 466.431 254.369 463.307C256.452 463.315 257.046 461.597 257.403 460.175C257.854 458.374 259.472 457.504 260.092 455.784C260.832 453.162 261.136 450.436 260.992 447.715C259.719 446.75 260.015 444.496 257.68 444.178C256.051 445.066 255.701 446.986 254.872 448.405C255.289 449.216 256.133 449.42 255.909 450.744C254.69 451.781 253.913 453.245 253.738 454.836C253.617 455.456 253.374 456.046 253.022 456.57C252.67 457.095 252.218 457.545 251.69 457.892C249.107 459.569 247.938 462.546 245.445 464.244C243.92 468.974 238.925 470.397 236.059 474.002C233.243 477.545 228.771 479.761 225.594 483.094C224.745 483.337 223.938 482.856 223.161 483.499C216.86 488.036 210.113 491.917 203.023 495.081C201.593 496.007 200.036 496.721 198.401 497.201C193.411 498.281 188.46 499.617 183.595 501.167C180.823 502.05 177.645 501.894 175.553 504.088C172.016 504.252 168.469 503.301 165.679 506.066C161.542 504.69 157.067 504.716 152.947 506.141L151.445 505.08C150.198 505.149 149.169 506.991 147.937 506.037C146.136 504.642 144.208 505.213 142.319 505.117C140.88 505.277 139.432 504.922 138.23 504.116C137.062 503.255 135.605 502.885 134.168 503.083C133.531 503.216 132.872 503.203 132.241 503.046C131.61 502.888 131.023 502.59 130.523 502.173C130.161 501.974 129.743 501.902 129.335 501.967C128.927 502.032 128.552 502.231 128.269 502.532V502.532Z" fill="#212222"/>
<path d="M876.832 265.794C878.021 265.635 879.128 265.102 879.993 264.271C880.858 263.44 881.435 262.355 881.642 261.174C882.635 256.433 886.239 253.678 888.864 249.852C888.73 248.703 888.884 247.54 889.313 246.466C889.741 245.393 890.431 244.443 891.319 243.702C892.916 242.168 893.912 240.113 894.126 237.908C897.53 235.973 897.678 231.902 898.841 228.358C899.032 227.775 898.809 227.083 899.419 226.592C899.922 226.147 900.401 225.675 900.854 225.179V221.075C903.19 219.988 903.228 217.429 903.698 215.43C904.062 213.92 904.534 212.438 905.109 210.995C906.153 209.067 906.749 206.927 906.852 204.736C907.117 200.863 908.125 197.077 909.821 193.585C909.111 192.567 908.082 190.833 908.953 189.493C910.18 187.609 909.628 185.734 909.865 183.856C910.06 182.307 909.227 180.609 910.772 179.205C911.188 178.827 910.787 177.609 910.866 176.787C910.945 175.971 909.794 175.613 909.971 175.258C910.311 174.575 911.224 174.102 910.733 173.171C909.433 169.637 909.239 165.792 910.175 162.144C910.339 160.439 908.741 159.017 910.035 157.564L907.467 154.796C909.045 152.77 911.66 152.141 911.927 149.968C913.491 149.581 914.276 150.348 914.425 150.976C914.887 152.387 915.628 153.692 916.603 154.811C917.579 155.931 918.769 156.844 920.104 157.495C922.559 159.089 924.54 161.637 927.795 161.767C928.039 161.774 928.278 161.845 928.488 161.971C928.697 162.098 928.871 162.277 928.991 162.49C931.607 165.723 935.024 168.215 938.902 169.718C940.232 170.404 940.45 172.259 941.152 172.439C943.624 173.483 945.888 174.965 947.833 176.814C950.453 178.78 953.267 180.475 956.23 181.873C958.212 182.69 959.596 184.76 961.391 186.144C964.159 187.786 966.64 189.868 968.739 192.308C972.298 193.39 975.464 195.486 977.851 198.34C978.531 199.072 979.417 198.544 980.218 198.726C981.976 200.817 984.146 202.524 986.592 203.741C989.194 204.689 990.547 207.33 993 208.699C995.014 209.823 997.633 210.536 998.7 213.049C998.908 213.541 999.439 213.516 999.828 213.726C1005.64 216.871 1010.22 221.859 1016.23 224.731C1017.99 227.457 1021.39 227.716 1023.68 229.646C1023.91 229.836 1024.29 229.838 1024.51 230.032C1026.97 232.805 1029.9 235.118 1033.16 236.864C1036.42 238.405 1039.46 240.393 1042.17 242.773C1044.91 244.651 1047.55 246.685 1050.06 248.864C1052.99 251.817 1057 252.619 1059.97 255.343C1062.72 257.862 1066.36 259.234 1069.35 261.552C1074.13 264.656 1078.75 268 1083.19 271.57C1084.74 272.691 1086.22 273.899 1087.63 275.186C1088.7 276.444 1090.53 276.735 1091.2 278.61C1091.81 280.326 1094.11 280.461 1095.3 281.801C1097.13 283.838 1100.18 284.455 1101.73 286.505C1103.01 288.184 1104.82 289.001 1106.08 290.544C1107.34 292.079 1108.87 293.393 1110.32 294.838C1110.36 295.913 1109.49 295.371 1108.85 295.595C1107.88 297.933 1106.17 300.301 1108.47 302.968C1107.88 305.93 1109.82 308.546 1109.55 311.522C1109.05 315.53 1109.55 319.599 1111.01 323.365C1111.39 324.254 1110.76 324.357 1110.7 324.814C1110.34 326.383 1110.44 328.022 1110.99 329.535C1111.98 331.81 1111.73 332.407 1110.53 334.908C1110.86 335.144 1111.12 335.451 1111.3 335.806C1111.48 336.16 1111.58 336.552 1111.58 336.951C1111.59 337.349 1111.5 337.743 1111.33 338.102C1111.16 338.461 1110.9 338.775 1110.59 339.02L1112.13 340.56C1110.32 348.227 1107.78 355.702 1104.53 362.88L1101.53 365.803V368.779C1097.37 371.139 1097.34 376.386 1093.59 378.651V381.52C1092.56 383.732 1090.21 384.113 1088.58 385.774C1089 388.067 1087.47 390.073 1087.25 392.405C1084.18 393.993 1080.91 395.11 1079.55 398.644V402.008C1078.63 402.138 1077.76 402.502 1077.02 403.064C1076.28 403.625 1075.7 404.366 1075.33 405.217C1074.12 408.313 1070.78 410.152 1070.57 413.727C1067.81 417.74 1064.44 421.296 1060.58 424.265C1057.51 426.428 1054.82 429.102 1052.64 432.171C1050.41 435.198 1047.78 437.898 1044.8 440.195C1040.52 443.399 1036.48 446.903 1032.7 450.679C1032.53 450.861 1032.65 451.313 1032.63 451.704C1029.84 452.564 1027.89 455.189 1024.81 455.538C1023.18 458.311 1020.09 459.421 1017.93 461.538C1015.73 463.708 1012.73 464.783 1011.18 467.173H1009.14L1006.47 470.053H1003.3C1001.34 471.992 999.464 474.363 996.188 474.172C995.219 475.786 993.36 476.222 991.979 477.302C988.729 479.703 984.994 481.367 981.036 482.178C979.857 482.539 978.73 483.052 977.684 483.705C971.943 486.748 965.756 488.858 959.352 489.957C956.632 490.472 955.163 492.741 952.26 493.178C950.098 491.601 947.288 492.235 944.311 492.095L941.742 488.993C940.705 489.236 939.625 489.217 938.598 488.938C937.571 488.659 936.629 488.13 935.857 487.397C935.127 486.244 934.719 484.916 934.675 483.553C933.87 482.563 932.833 482.374 932.151 481.841C930.997 480.939 929.183 481.02 928.646 478.913C928.35 477.75 925.808 477.438 925.223 475.956C924.589 474.35 922.937 473.49 922.459 472.119C921.891 470.49 920.361 470.421 919.599 469.38C918.902 468.359 918.317 467.267 917.855 466.121C917.295 464.848 916.605 463.844 914.954 464.208C914.876 462.551 914.424 460.932 913.631 459.475C911.717 458.846 910.035 457.661 908.799 456.07C907.563 454.479 906.831 452.555 906.695 450.545C905.773 450.306 904.929 449.83 904.248 449.162C903.567 448.495 903.073 447.661 902.815 446.743C902.135 443.922 900.407 441.464 897.983 439.868C896.369 438.308 895.027 436.49 894.011 434.488C893.183 432.888 891.794 431.649 890.109 431.008C890.036 429.779 889.686 428.582 889.087 427.505C888.488 426.429 887.654 425.502 886.648 424.792C885.343 423.771 884.19 422.57 883.223 421.225C882.356 419.834 881.069 418.755 879.549 418.143C878.487 417.8 878.614 415.467 876.84 415.292C876.248 415.234 876.086 414.933 875.888 414.428C875.131 413.045 874.203 411.762 873.126 410.608C872.194 409.289 871.065 408.172 870.039 406.974C869.374 406.3 868.902 405.46 868.672 404.542C867.391 404.194 866.197 403.586 865.162 402.756C864.128 401.925 863.276 400.89 862.659 399.715C861.24 396.538 857.733 394.917 855.429 392.325C853.542 392.613 853.199 389.924 851.321 390.196C851.197 389.414 850.83 388.692 850.27 388.132C849.71 387.573 848.987 387.205 848.206 387.082C848.099 384.407 845.318 384.42 843.978 382.959C842.621 381.64 841.173 380.418 839.645 379.302C837.475 377.525 835.618 375.373 833.554 373.46C832.153 372.161 829.709 371.704 829.149 369.885C828.22 366.865 825.722 367.092 823.733 366.193C822.641 366.048 823.314 364.827 822.519 364.394C819.486 362.741 817.871 359.506 814.924 357.678C813.456 356.766 811.629 355.941 811.043 353.938C810.476 352.001 808.464 351.435 807.226 350.123C805.972 348.793 804.647 347.528 803.177 346.059V343.782C800.26 343.755 800.051 340.58 797.853 339.658C795.835 338.812 796.117 335.392 793.303 335.189C792.342 332.853 790.1 332.104 788.098 330.998V328.001C788.914 326.536 790.625 326.304 791.934 325.456C793.051 325.488 793.725 326.503 795.003 326.531C801.066 326.843 807.121 325.796 812.727 323.465C815.17 324.377 815.927 320.509 818.387 321.469C820.957 319.444 823.916 317.969 827.08 317.137C828.564 316.446 828.826 314.958 830.31 314.325C831.725 313.641 833.041 312.767 834.22 311.728C836.691 309.681 839.782 308.401 841.56 305.476C842.413 304.073 844.319 304.152 845.53 303.261C846.351 301.627 847.491 300.173 848.881 298.985C850.272 297.797 851.886 296.898 853.628 296.342C854.13 294.937 854.875 293.632 855.831 292.487C858.652 289.928 859.874 285.828 863.726 284.207C863.89 284.138 863.762 283.512 863.949 283.338C865.168 282.208 865.628 280.444 867.118 279.556C868.399 278.793 868.05 276.315 870.281 276.56C870.926 275.024 872.51 273.851 871.852 272.007L875.567 270.328C876.001 269.033 877.373 267.853 876.832 265.794ZM955.516 484.278C959.456 482.016 963.899 481.188 967.976 479.291C971.06 478.217 973.867 476.469 976.192 474.176C979.31 474.499 981.257 471.012 984.294 472.254C985.899 470.151 988.123 468.605 990.653 467.833C990.418 466.539 991.416 466.045 992.206 465.161H995.446C995.734 462.584 998.054 462.799 999.512 461.873C999.849 461.354 999.5 460.544 1000.27 460.178H1002.23C1003.99 458.081 1006.16 456.369 1008.61 455.149C1011.63 453.862 1013.28 450.463 1016.66 449.623C1019.06 445.493 1024.68 444.622 1026.5 439.9C1026.57 439.748 1026.66 439.611 1026.79 439.5C1026.91 439.388 1027.05 439.304 1027.21 439.254C1029.66 438.744 1031.87 437.413 1033.46 435.481C1035.02 433.75 1036.42 431.88 1037.64 429.895C1038.8 427.857 1041.19 427.043 1042.51 425.037C1042.96 424.487 1043.51 424.037 1044.14 423.719C1044.77 423.4 1045.46 423.22 1046.17 423.191C1046.3 423.183 1046.41 422.97 1046.16 423.212C1047.61 419.658 1051.62 418.331 1051.67 414.936C1054.1 413.488 1056.14 411.488 1057.65 409.099C1059.07 406.836 1059.06 403.382 1062.53 402.928C1062.77 401.97 1062.19 401.071 1062.94 400.433C1063.49 400.185 1064.28 400.576 1064.48 399.677C1064.14 399.475 1063.89 399.172 1063.74 398.812C1063.59 398.452 1063.57 398.055 1063.67 397.679C1065.53 397.424 1066.53 395.339 1068.57 394.825C1068.57 394.494 1068.44 394.056 1068.6 393.847C1070.85 391.459 1072.62 388.665 1073.83 385.614C1073.95 385.195 1074.47 384.854 1074.86 384.555C1076.73 383.057 1077.97 380.922 1078.34 378.563C1078.83 375.391 1081.78 373.643 1081.99 370.513C1082.12 370.113 1082.39 369.773 1082.75 369.557C1083.1 369.341 1083.53 369.263 1083.94 369.338C1084.11 369.361 1084.34 368.919 1084.61 368.62V366.871C1085 366.19 1085.55 366.435 1086.44 366.323C1085.7 365.119 1087.3 364.752 1087.31 363.626C1087.01 363.468 1086.78 363.216 1086.65 362.911C1086.51 362.606 1086.48 362.265 1086.56 361.941C1087.72 361.354 1088.74 360.518 1089.53 359.493C1090.33 358.468 1090.89 357.279 1091.18 356.011C1092.01 352.31 1094.33 349.309 1095.08 345.58C1095.47 343.625 1094.83 341.571 1095.67 339.881C1096.44 338.234 1096.75 336.407 1096.55 334.599C1096.35 332.791 1095.66 331.072 1094.55 329.631C1094.4 327.362 1095.02 325.027 1093.36 323.202L1094.56 321.897C1093.87 320.555 1093.48 319.076 1093.44 317.568C1093.39 316.059 1093.68 314.559 1094.29 313.178C1094.46 312.9 1094.56 312.59 1094.59 312.269C1094.62 311.948 1094.58 311.625 1094.48 311.32C1092.83 309.089 1093.69 306.584 1093.56 304.212C1093.42 301.42 1093.53 298.614 1093.53 295.52C1090.71 294.219 1088.25 292.264 1086.34 289.817C1084.89 287.991 1083.21 286.367 1081.34 284.988C1077.51 282.722 1074.06 279.884 1071.1 276.573C1069.91 276.514 1068.72 276.889 1068.25 275.705C1067.09 272.813 1063.9 272.407 1062.02 270.457C1059.88 268.649 1057.43 267.231 1054.8 266.267C1053.71 262.098 1049.84 262.476 1046.86 261.253C1046.6 259.395 1044.5 258.492 1044.05 256.602C1038.63 255.666 1038.2 255.399 1036.28 251.832C1029.69 249.251 1024.84 244.063 1018.64 241.077V239.006C1014.03 237.088 1010.5 233.316 1005.84 231.225C1005.89 228.714 1002.5 228.826 1002.01 226.539C1001.89 225.996 1000.96 225.906 1000.45 225.602C997.215 223.703 994.075 221.64 991.045 219.422C989.512 217.801 987.656 216.52 985.596 215.662C984.21 215.313 983.676 213.459 982.014 213.462C981.918 213.462 981.822 213.225 981.693 213.056V211.17C980.321 209.447 978.138 209.149 976.479 207.97C970.963 204.051 965.419 200.171 959.846 196.33C958.703 195.798 957.655 195.081 956.745 194.207C953.606 190.428 949.612 187.451 945.093 185.523C944.155 181.665 940.043 182.273 937.831 180.128C937.944 178.671 936.663 177.854 935.671 177.209C929.308 173.07 923.913 167.612 917.592 163.643C917.323 163.775 917.105 163.991 916.969 164.259C916.834 164.526 916.789 164.831 916.842 165.126C916.697 171.166 916.966 177.208 917.647 183.211C918.204 187.834 918.264 192.502 917.824 197.137C917.855 197.61 917.75 198.082 917.522 198.497C916.541 200.277 915.91 202.229 915.662 204.246C915.181 206.197 914.903 208.193 914.834 210.201C914 211.167 913.391 212.305 913.05 213.534C912.709 214.764 912.645 216.053 912.862 217.31C911.592 218.367 910.64 219.755 910.114 221.321C909.587 222.888 909.506 224.569 909.881 226.179C909.514 226.373 909.25 226.538 908.965 226.656C908.681 226.773 908.377 226.841 907.972 226.965C908.278 230.049 904.727 232.071 905.933 235.276L904.005 235.955C903.979 237.126 903.812 238.289 903.509 239.42C903.08 241.072 902.217 242.58 901.01 243.787C898.891 245.214 900.579 247.489 899.075 249.109C897.644 251.116 896.41 253.257 895.391 255.502C895.182 255.845 894.106 255.436 893.811 256.622V259.396C888.869 262.469 888.037 269.104 882.899 272.213C882.923 276.24 877.462 277.213 877.615 281.417C876.825 281.535 876.086 281.875 875.484 282.398C874.334 283.259 875.526 284.726 874.44 285.523C873.496 285.31 872.97 285.958 872.399 286.552C870.037 289.008 867.778 291.553 865.543 294.119C864.196 295.665 862.894 297.832 860.527 298.426C859.994 300.886 857.331 301.882 856.563 304.275C856.093 305.361 855.233 306.232 854.152 306.715C850.038 308.573 847.86 313.027 843.493 314.502C842.992 314.672 843.152 315.536 842.932 315.708C840.98 317.487 838.812 319.015 836.481 320.256C835.168 320.73 833.911 321.346 832.732 322.094C831.65 322.864 830.068 322.598 828.961 323.877C827.757 325.267 825.627 325.382 824.148 326.687C822.792 327.884 820.507 327.736 819.337 329.453C816.199 329.019 813.735 331.62 810.686 331.41C809.294 331.314 808.563 332.706 807.096 332.522C805.733 332.14 804.278 332.271 803.005 332.889C806.208 335.647 809.193 338.65 811.931 341.87C814.257 344.894 816.987 347.584 820.045 349.866C823.746 353.454 827.693 356.781 831.856 359.823C832.48 360.177 833.023 360.659 833.45 361.236C833.877 361.813 834.178 362.473 834.334 363.174C837.278 364.089 839.846 365.932 841.655 368.428H843.492C846.142 370.881 848.204 373.943 851.772 374.636C852.771 378.839 857.512 378.773 859.33 382.05C861.498 384.908 864.244 387.276 867.391 389C870.35 391.181 872.435 394.416 875.894 395.887C876.362 397.585 877.232 399.146 878.428 400.439C879.625 401.732 881.114 402.72 882.771 403.318C885.748 406.1 886.082 409.618 889.543 410.444C889.187 412.399 891.818 411.905 892.158 413.814C892.421 415.291 894.419 416.594 895.858 417.699C898.997 420.394 901.879 423.373 904.469 426.6C905.905 428.2 908.224 429.802 907.842 432.764C909.605 434.109 910.964 435.911 911.773 437.975C911.948 438.761 912.416 439.45 913.081 439.903C916.327 441.596 917.628 445.139 920.336 447.377C920.934 447.978 921.388 448.706 921.665 449.506C921.943 450.307 922.036 451.16 921.938 452.001L928.847 458.746V461.747C930.995 461.806 931.576 464.497 933.343 464.547C934.679 466.142 935.092 467.968 936.427 469.46C937.54 470.704 939.541 470.703 940.091 472.819C940.623 474.871 943.892 473.535 944.7 475.72C945.136 476.763 944.333 477.978 945.132 478.987C948.729 480.167 951.352 483.147 955.516 484.278V484.278Z" fill="#212222"/>
<path d="M811.456 527.985L809.999 526.529C811.378 522.762 806.595 520.928 806.892 517.313L805.132 516.854C805.295 513.081 802.405 511.038 800.084 508.631C800.103 507.594 799.891 506.566 799.463 505.622C799.035 504.678 798.401 503.84 797.609 503.172C795.836 501.775 794.585 499.824 794.056 497.63C792.482 497.215 791.137 496.192 790.316 494.787C788.74 491.737 786.45 489.114 783.64 487.141C782.147 486.246 781.609 484.141 780.301 483.268C778.68 482.187 778.519 480.588 777.647 479.199H775.501C774.777 477.94 775.332 475.491 773.54 475.275C771.363 475.014 772.449 472.768 771.058 472.283C771.882 470.886 772.112 469.07 773.916 468.64C773.195 466.352 770.103 467.946 769.163 465.682L770.366 464.383C773.822 464.101 777.231 463.409 780.522 462.32C781.652 462.08 782.816 462.035 783.961 462.188C785.125 462.175 786.29 462.185 787.454 462.185C788.765 461.97 790.104 462.005 791.402 462.288C792.654 462.841 792.961 460.569 794.349 461.749C794.751 462.09 796.443 460.927 797.694 461.185C798.906 461.436 800.313 460.12 800.701 460.326C802.743 461.405 804.547 459.645 806.435 460.189C808.019 458.325 810.224 459.752 811.997 459.152C816.657 457.576 821.843 458.832 826.327 456.397C826.768 456.196 827.259 456.132 827.737 456.214C832.17 456.865 836.056 454.132 840.388 454.201C841.8 452.156 844.23 454.044 845.803 452.83C847.61 451.434 849.652 452.68 851.586 452.072L853.39 450.268C856.37 449.915 859.839 451.076 862.411 448.226C865.544 448.098 868.909 448.843 871.518 446.217C874.679 445.748 877.908 446.253 880.775 447.665C881.266 448.394 880.749 449.577 880.903 450.689C879.733 451.866 878.565 453.042 877.397 454.217C874.989 453.893 872.538 454.239 870.313 455.215C868.487 456.226 866.401 455.128 864.534 456.155C862.7 457.19 860.56 457.544 858.49 457.156C857.286 456.922 856.809 457.947 855.922 458.254C852.771 459.344 849.393 459.05 846.232 460.145C841.428 460.835 836.674 461.841 832.003 463.157C831.52 463.304 831.006 463.309 830.52 463.171C827.065 462.563 823.886 464.548 820.467 464.22C818.953 465.862 816.56 462.681 815.203 465.179C811.581 464.464 808.202 466.64 804.641 466.139C801.324 465.672 798.33 467.37 795.066 467.209C791.926 466.832 788.75 466.876 785.622 467.34C783.303 467.842 780.942 468.125 778.571 468.183C777.377 469.304 778.364 469.934 779.042 470.631L778.136 471.652C779.633 473.874 782.316 474.623 784.093 476.581C785.633 478.693 787.64 480.419 789.958 481.625C790.799 481.968 791.874 482.94 791.95 483.712C792.06 484.366 792.328 484.982 792.731 485.508C793.134 486.034 793.659 486.453 794.261 486.729C797.223 489.271 799.891 492.137 802.214 495.273C804.441 497.139 806.241 499.463 807.49 502.087C808.583 504.894 811.612 506.464 812.163 509.649C812.278 510.319 813.213 510.913 813.871 511.408C814.37 511.8 814.74 512.33 814.936 512.933C815.131 513.536 815.143 514.183 814.968 514.792L816.688 515.201C817.571 516.554 816.561 518.1 817.093 519.499C817.351 520.254 818.149 519.934 818.769 520.281C819.351 522.946 820.192 525.548 821.28 528.049H822.879C822.529 530.921 824.76 533.395 823.892 536.379C825.034 537.061 826.318 537.372 826.966 538.591C824.955 539.478 827.242 540.301 827.047 541.251C826.919 542.251 826.902 543.261 826.995 544.265C827.484 545.464 828.537 544.529 829.003 546.05C829.293 548.634 828.008 552.276 830.854 554.423C831.185 555.805 830.203 555.922 830.093 556.595L831.891 558.394V563.562L833.716 564.503C834.373 567.613 833.477 569.882 834.553 572.13C835.472 574.05 835.499 576.252 836.557 578.3C837.168 580.515 837.345 582.828 837.08 585.11C839.643 590.283 841.392 595.82 842.266 601.527C842.977 603.566 844.439 605.372 845.047 607.71C845.574 609.734 846.194 612.1 848.976 612.176C848.898 613.428 849.288 614.507 848.079 615.209C849.731 617.833 849.474 621.094 851.003 623.889C848.337 626.696 852.23 629.534 850.817 632.309C854.498 633.78 858.489 634.303 862.424 633.828C875.9 633.849 889.376 633.854 902.851 633.843C904.122 633.844 905.537 633.428 906.617 635.148C907.937 633.555 909.749 633.835 911.507 633.836C922.487 633.837 933.468 633.877 944.448 633.8C946.537 634.175 948.692 633.883 950.606 632.966C950.96 632.749 951.361 632.618 951.775 632.583C952.189 632.548 952.606 632.611 952.991 632.767C953.377 632.922 953.721 633.166 953.995 633.479C954.269 633.791 954.467 634.163 954.571 634.566C956.5 631.421 959.839 634.174 961.56 631.796C962.827 632.048 963.751 633.497 964.802 632.783C966.691 631.836 968.832 631.514 970.915 631.864C973.263 631.729 975.546 631.038 977.574 629.847C978.383 629.699 978.696 630.389 979.417 630.985C981.37 629.307 984.269 630.704 986.125 629.655C988.618 628.245 990.978 629.477 993.312 628.714C994.771 627.529 996.574 626.846 998.452 626.766C1005.26 625.656 1012.01 624.238 1018.76 622.812C1020.11 622.31 1021.4 621.651 1022.59 620.848C1024.45 620.947 1026.32 620.632 1028.05 619.927C1031.31 617.982 1035.16 617.245 1038.92 617.843C1041.74 616.111 1044.72 614.651 1047.82 613.484C1050.76 612.02 1053.96 611.153 1057.23 610.934C1058.37 610.972 1058.88 610.102 1059.79 609.804C1063.65 608.767 1067.43 607.416 1071.07 605.764C1071.85 605.229 1072.77 604.925 1073.72 604.888C1074.53 604.925 1075.35 604.896 1075.82 604.896C1081.2 601.969 1086.78 599.423 1092.52 597.277C1094.35 596.542 1096.58 598.037 1097.97 595.968C1102.62 595.47 1107.13 594.108 1111.28 591.953C1111.93 591.827 1112.6 591.817 1113.26 591.922C1114 588.811 1112.63 585.567 1114.49 582.796C1113.14 579.655 1115.94 576.126 1113.55 573.015C1113.15 572.493 1113.6 571.379 1113.47 570.567C1113.25 569.185 1114.61 568.408 1114.61 566.986C1114.62 565.85 1113.43 565.169 1113.91 564.078C1114.09 563.78 1114.3 563.503 1114.55 563.253C1113.92 562.059 1113.75 560.589 1112.5 559.501C1112.79 553.474 1111.91 547.448 1109.9 541.758C1109.41 540.067 1109.18 538.311 1109.21 536.551C1107.17 532.247 1105.49 527.786 1104.16 523.213L1102.5 521.555C1102.62 520.413 1102.48 519.26 1102.11 518.176C1101.73 517.092 1101.12 516.105 1100.31 515.284C1098.91 513.657 1098.89 511.294 1097.57 509.421C1096.37 507.728 1094.14 506.343 1094.53 503.73C1091.36 500.369 1090.35 495.47 1086.54 492.753V489.622C1083.62 486.717 1081.39 483.186 1080.03 479.296C1078.55 475.999 1076.36 473.072 1073.61 470.725C1073.44 470.053 1073.49 469.341 1073.78 468.707C1074.06 468.073 1074.55 467.553 1075.17 467.234C1075.81 466.875 1076.97 467.267 1078.06 467.208C1080.86 469.639 1083.16 472.586 1084.84 475.887C1085.35 477.179 1086.25 478.28 1087.41 479.034C1088.71 479.638 1089.3 480.802 1090.46 481.515V484.655C1093.93 487.196 1096.68 490.607 1098.42 494.546C1100.17 498.604 1102.81 502.215 1106.14 505.109C1106.92 508.34 1108.21 511.427 1109.96 514.253C1111.55 516.995 1112.83 519.907 1113.76 522.934L1115.21 523.231C1115.61 527.727 1117.09 532.061 1119.52 535.867V542.192L1122.47 547.924C1122.29 549.117 1122.38 550.337 1122.74 551.49C1123.09 552.644 1123.71 553.7 1124.54 554.58C1124.14 556.74 1125.09 559.098 1123.78 561.487C1124.39 562.189 1124.23 563.571 1125.45 564.352C1125.13 564.724 1124.59 565.066 1124.61 565.379C1124.03 569.241 1124.31 573.185 1125.43 576.927C1125.88 577.813 1125.37 578.839 1124.27 579.625C1126.09 581.66 1125.26 584.151 1125.51 586.305C1124.27 587.659 1124.1 589.504 1122.57 590.248L1124.54 593.839C1124.1 595.494 1121.94 596.01 1122.34 598.157C1122.47 598.844 1121.09 600.365 1120.18 600.589C1116.42 601.515 1113.37 604.721 1109.05 603.949C1107.11 603.603 1105.83 605.59 1103.91 605.972C1100.28 606.698 1096.76 607.97 1093.14 608.827C1092.42 609.095 1091.72 609.42 1091.04 609.802C1084.88 612.185 1078.61 614.32 1072.51 616.871C1070.26 616.16 1069.7 619.842 1067.35 618.867C1063.88 620.238 1060.27 621.205 1056.58 621.748C1055.21 622.006 1053.91 622.554 1052.77 623.356C1051.62 624.166 1050.32 624.752 1048.96 625.084C1042.42 627.495 1035.71 629.419 1028.89 630.843C1027.13 632.791 1024.44 631.004 1022.56 632.44C1021.81 633.014 1020.63 632.81 1020.14 633.875C1016.49 633.882 1012.86 634.41 1009.37 635.443C1005.52 636.191 1001.75 637.311 997.854 637.901C995.377 638.539 992.828 638.851 990.271 638.827C988.379 641.265 985.019 638.406 983.086 640.802C982.955 640.964 982.446 640.813 982.114 640.824C974.221 641.912 966.277 642.577 958.314 642.819C954.555 643.868 950.635 644.214 946.75 643.839C946.258 643.88 945.763 643.804 945.305 643.616C944.848 643.429 944.441 643.136 944.119 642.762C942.815 643.269 941.467 643.655 940.093 643.916C936.886 644.033 933.535 642.864 930.46 644.669C926.006 642.175 920.789 645.562 916.364 642.844C915.787 644.42 914.575 642.594 913.913 643.286C913.684 643.518 913.4 643.687 913.087 643.779C912.774 643.87 912.444 643.88 912.126 643.807C909.452 643.477 906.826 641.828 904.083 643.539C903.842 643.267 903.542 643.054 903.207 642.915C902.871 642.776 902.508 642.715 902.146 642.738C901.783 642.76 901.43 642.865 901.114 643.044C900.798 643.223 900.527 643.472 900.322 643.771C899.42 642.329 897.942 643.079 896.73 642.791C894.322 642.219 892.067 643.571 889.532 642.953C886.893 642.647 884.231 642.591 881.581 642.785C880.307 642.664 879.037 643.041 878.035 643.836C876.801 643.074 875.379 642.67 873.929 642.669C872.478 642.668 871.056 643.069 869.82 643.829L866.442 642.071C865.629 642.638 864.666 642.952 863.675 642.973C862.684 642.994 861.709 642.722 860.872 642.19C860.22 641.768 859.623 641.968 859.022 641.81C857.312 641.36 855.903 643.908 854.523 642.723C852.959 641.38 851.413 641.948 849.862 641.852C847.086 641.736 844.368 641.018 841.896 639.748C840.384 641.316 838.37 640.755 836.465 640.81C835.183 640.009 837.05 637.906 834.799 637.557C836.235 636.548 836.072 635.195 835.924 633.869C839.938 632.773 841.152 629.756 842.048 626.117C840.826 623.743 839.401 621.182 838.185 618.526C837.586 617.09 837.127 615.6 836.813 614.077C836.626 612.197 835.891 610.412 834.699 608.946C833.887 608.14 832.725 606.77 833.793 605.205C832.375 603.009 832.526 599.963 829.967 598.491L830.998 597.285C831.094 595.793 829.685 595.435 829.094 594.488C829.364 592.516 829.074 590.508 828.258 588.693C827.621 586.8 826.766 584.987 825.71 583.291C824.324 581.524 825.327 580.367 826.025 578.978C825.416 577.291 824.402 575.778 823.073 574.573C822.751 571.162 823.789 567.403 821.94 564.205C820.162 561.127 822.343 556.991 819.001 554.545L820.162 553.234L817.177 547.441L817.618 546.906C816.007 540.463 813.948 534.141 811.456 527.985V527.985Z" fill="#212222"/>
<path d="M605.738 231.718C605.194 232.664 604.398 232.67 603.544 232.662C600.384 232.634 597.222 232.682 594.063 232.632C593.101 232.783 592.116 232.603 591.269 232.123C590.559 231.739 589.77 231.526 588.963 231.501C588.157 231.475 587.355 231.638 586.623 231.976C586.203 232.111 586.044 232.724 585.406 232.666C582.844 232.376 580.249 232.737 577.864 233.716L574.517 237.061C574.095 238.838 574.366 240.709 575.273 242.293C573.597 243.78 574.284 245.822 574.54 247.419C574.988 251.463 576.714 255.259 579.468 258.255C576.724 263.974 576.597 264.026 568.994 262.576C567.297 258.256 562.791 255.938 561.011 251.622H558.992C558.576 249.77 556.619 249.197 555.727 247.598C554.649 246.239 553.197 245.226 551.551 244.682C549.631 243.823 548.749 241.956 546.84 240.689L545.218 240.609C539.265 236.001 532.155 233.128 524.672 232.306L521.651 229.114C523.251 228.175 521.848 225.48 524.475 224.667C526.137 224.667 528.296 224.732 530.449 224.648C532.401 224.572 533.971 226.353 536.03 225.679C536.728 225.451 537.174 226.078 537.743 226.343C544.989 229.153 551.811 232.955 558.012 237.641C560.864 238.254 561.761 241.195 564.395 242.776C563.4 238.512 566.435 235.196 566.566 231.026C566.73 230.746 567.416 230.848 567.638 230.617C570.211 228.312 573.252 226.591 576.553 225.574C577.6 225.153 578.73 225.674 579.477 225.037C580.426 224.227 581.671 225.129 582.625 224.074C583.582 223.014 585.141 223.729 586.415 223.704C590.905 223.615 595.399 223.751 599.888 223.643C603.289 223.561 606.449 225.742 610.36 224.205C611.092 223.513 610.065 222.897 609.409 222.207C611.502 220.103 609.596 217.436 611.093 214.286C610.795 214.665 611.565 214.356 611.349 213.565C611.159 213.112 610.913 212.684 610.616 212.292C610.91 211.59 611.024 210.515 611.62 210.028C615.541 206.825 617.289 201.282 622.714 199.712C622.866 199.669 623.002 199.58 623.102 199.457C626.826 195.325 631.762 192.476 637.204 191.32C637.628 191.176 637.919 190.642 638.268 190.293C637.908 189.531 637.211 189.752 636.608 189.742C632.604 190.266 628.533 189.62 624.889 187.881C623.59 187.06 621.831 187.763 620.182 187.267C617.657 186.508 615.71 184.603 612.775 184.471C610.141 184.353 608.652 181.257 606.236 179.962C604.772 179.094 603.263 178.303 601.717 177.591C600.881 174.714 598.075 173.493 596.354 171.094C597.652 168.738 594.142 168.087 594.207 165.648C594.253 163.961 592.426 162.225 594.262 160.436C591.86 158.699 595.718 156.737 594.04 154.843C587.295 159.085 581.081 164.001 574.156 167.956C567.311 171.923 560.226 175.461 552.942 178.548L550.366 181.754H547.093C545.078 184.219 541.557 184.673 538.994 186.744C537.111 185.979 535.844 188.537 533.886 187.645C533.127 187.035 533.672 186.134 533.5 185.376C536.683 180.918 542.634 180.079 545.89 175.787H549.114C550.461 172.718 553.974 172.627 556.411 170.879C559.553 168.923 562.794 167.131 566.122 165.51C569.517 163.527 572.758 161.291 575.817 158.821C577.69 157.342 579.689 156.11 581.618 154.749C583.36 153.816 584.856 152.484 585.985 150.862C586.644 149.674 588.378 149.105 589.21 148.197C589.872 147.228 590.724 146.403 591.712 145.771C594.108 144.106 596.021 141.837 597.257 139.194C598.436 137.742 599.459 136.169 600.307 134.501C601.659 131.056 605.582 130.007 607.603 127H614.017L616.454 130.168C615.453 134.688 611.387 137.339 607.503 140.585C607.998 143.752 603.232 145.522 604.475 149.227L602.508 151.194C605.393 153.57 600.365 156.433 602.996 158.911C602.601 160.781 601.712 162.522 603.311 164.47C604.256 165.952 604.995 167.556 605.508 169.237C608.995 171.011 610.845 174.317 614.081 176.725C616.603 175.934 618.592 178.257 621.1 179.022C623.56 180.064 626.187 180.657 628.857 180.773L630.621 182.537C630.918 182.63 631.222 182.7 631.53 182.746C634.923 182.373 638.356 182.702 641.615 183.712C641.923 183.849 642.256 183.92 642.592 183.919C642.929 183.918 643.261 183.846 643.568 183.707C644.44 182.986 645.537 182.592 646.669 182.594C647.801 182.595 648.897 182.991 649.768 183.714C653.337 184.107 656.947 183.88 660.438 183.042C661.356 182.704 662.348 182.617 663.31 182.791C666.207 182.966 669.11 182.606 671.876 181.731C674.401 180.947 676.993 180.401 679.619 180.1C684.451 179.677 689.699 178.262 694.139 181.983V185.15C692.931 186.845 691.195 188.091 689.202 188.693C685.284 187.872 680.952 190.248 676.376 189.738C674.675 191.777 672.073 190.082 670.034 191.335C668.191 192.467 665.668 191.081 663.767 191.831C660.166 192.707 656.637 193.856 653.21 195.267C650.605 197.042 647.489 197.914 644.34 197.747C639.95 199.477 636.881 202.504 632.806 203.84C631.151 204.476 629.693 205.535 628.576 206.912C626.933 208.782 625.07 210.459 623.316 212.233C622.067 213.496 620.65 214.609 620.888 216.76C621.052 218.24 619.37 219.887 621.308 221.221L620.553 222.07C621.147 223.582 622.057 224.95 623.223 226.081C624.389 227.212 625.783 228.081 627.312 228.629C630.144 228.441 632.96 229.171 635.344 230.71C639.648 232.508 643.643 234.97 647.183 238.006C647.769 240.672 645.805 241.297 644.943 242.488C637.911 242.785 630.914 241.344 624.571 238.294C624.447 237.548 624.07 236.868 623.504 236.368C622.938 235.867 622.216 235.576 621.461 235.545C616.67 234.864 611.953 233.662 607.214 232.63C606.682 232.396 606.185 232.09 605.738 231.718Z" fill="#212222"/>
<path d="M891.868 712.054V715.187L890.429 716.626C885.664 717.091 880.866 716.183 876.6 714.009C875.04 713.556 873.407 713.407 871.79 713.572C868.311 711.607 864.651 709.979 860.862 708.712C860.098 708.564 859.776 708.011 859.343 707.568C857.663 705.869 855.445 704.805 853.067 704.558C850.513 703.793 848.187 702.411 846.294 700.535C845.973 700.289 845.662 700.031 845.369 699.798L844.52 700.646C843.349 699.593 841.976 698.696 841.703 696.868L839.362 696.602C839.151 695.208 837.943 694.871 837.03 694.106C835.58 693.197 834.246 692.117 833.055 690.889C832.068 689.513 830.074 689.442 829.52 688.532C827.524 685.25 823.479 684.648 821.343 681.664C820.744 680.827 820.117 679.725 818.682 679.708C817.541 679.694 818.498 677.399 816.588 677.63C815.967 677.706 814.861 676.51 814.52 675.675C813.315 673.359 811.588 671.356 809.474 669.823C807.872 668.383 807.265 665.997 805.003 665.245C802.602 659.648 797.853 654.807 799.252 647.951L800.513 647.791L804.343 656.022C805.495 658.063 807.735 659.327 808.554 661.769C808.696 662.193 809.261 662.459 809.576 662.842C810.513 663.981 812.149 663.997 813.109 665.257C813.873 666.26 813.891 668.037 815.804 668.138C816.29 668.163 815.855 669.386 816.972 669.857C820.3 671.261 822.577 674.368 825.988 675.778C828.149 676.672 830.41 677.536 831.067 680.264C831.175 680.583 831.354 680.872 831.592 681.11C831.83 681.348 832.12 681.527 832.438 681.634C836.334 682.348 838.419 686.106 842.009 687.233C844 687.857 845.035 689.566 846.438 690.638C850.13 690.532 851.234 695.07 854.579 694.78C855.117 695.522 854.743 696.341 855.478 696.711L857.944 696.71C858.241 696.789 858.524 696.912 858.785 697.076C859.771 697.931 860.591 699.303 861.714 699.616C865.305 700.618 868.115 703.316 871.99 703.796C875.194 703.935 878.213 705.334 880.391 707.688C881.666 707.688 883.248 707.226 884.253 707.79C886.05 708.673 887.892 709.46 889.772 710.148C890.63 710.518 891.239 711.46 891.868 712.054Z" fill="#222222"/>
<path d="M878.219 730.587L881.979 734.075C880.732 734.876 880.161 736.483 877.933 736.79C876.268 737.019 874.892 738.241 873.197 736.69C872.745 736.277 871.593 736.628 870.762 736.628C868.768 736.628 866.764 736.502 864.784 736.666C863.05 736.809 861.344 735.374 859.626 736.628C855.851 735.717 851.966 735.351 848.088 735.541C845.679 735.03 843.333 734.257 841.091 733.237C839.101 732.033 836.95 731.118 834.702 730.52C833.725 730.43 832.873 728.989 831.236 727.502C835.102 728.133 838.011 728.57 840.906 729.091C843.483 729.747 846.099 730.242 848.739 730.571C853.552 730.818 858.374 730.819 863.188 730.574C866.206 730.419 869.288 728.812 872.188 729.818C873.595 730.307 874.683 729.041 875.337 729.713C875.716 730.073 876.174 730.34 876.674 730.491C877.175 730.643 877.704 730.676 878.219 730.587Z" fill="#232323"/>
<path d="M553.972 194.729H558.266L561.333 197.933L560.122 200.546C557.209 201.317 554.209 201.708 551.196 201.709C548.245 201.135 545.608 202.873 542.683 202.762C539.65 202.647 536.887 200.858 533.9 201.789C533.453 200.482 533.345 199.082 533.586 197.722C535.173 197.622 536.765 197.635 538.35 197.759C542.445 198.344 546.253 196.326 550.345 196.599C551.046 196.555 551.73 196.367 552.355 196.045C552.979 195.723 553.53 195.274 553.972 194.729V194.729Z" fill="#242424"/>
<path d="M576.432 555.463C575.218 556.732 574.494 558.391 574.387 560.144C573.815 562.703 572.832 565.153 571.477 567.398C569.832 569.839 568.457 572.451 567.377 575.189C567.199 576.019 566.193 576.701 565.503 577.386C562.903 580.021 560.501 582.845 558.317 585.833C557.028 588.021 555.21 589.849 553.029 591.149C550.489 592.861 548.141 594.839 546.023 597.051C542.532 600.255 538.57 602.904 534.275 604.905C532.849 605.478 532.216 607.723 530.116 606.744C526.118 610.98 520.696 613.591 514.892 614.076C514.313 614.762 513.626 615.347 512.858 615.809C512.035 616.163 510.85 615.552 510.224 616.707C509.149 616.182 507.906 615.158 506.869 616.147C504.614 618.297 501.366 617.331 499.026 618.935C496.648 620.565 493.449 619.803 491.205 621.737C489.953 620.349 488.661 621.779 487.634 622.025C486.342 622.592 484.939 622.861 483.529 622.815C482.061 622.507 481.334 624.039 479.939 623.897C478.504 623.707 477.046 623.999 475.795 624.727C475.114 625.06 474.339 625.146 473.602 624.968C472.866 624.791 472.214 624.362 471.76 623.756C470.734 624.521 469.494 624.941 468.215 624.958C466.936 624.975 465.684 624.587 464.639 623.849C463.604 623.734 463.25 624.876 462.069 624.96C456.868 625.403 451.63 624.949 446.582 623.62C440.131 622.488 434.065 619.76 428.937 615.685C428.318 615.038 427.56 614.541 426.721 614.23C425.881 613.92 424.982 613.803 424.092 613.891C419.666 609.314 414.98 604.994 410.058 600.955C408.286 599.192 405.904 597.858 404.267 595.882C400.526 592.167 397.266 587.998 394.564 583.471C393.667 581.597 391.464 580.172 391.24 577.875C390.768 574.8 389.917 571.797 388.705 568.932C387.731 565.842 387.443 562.576 387.863 559.363C388.006 557.698 386.733 556.775 386.722 555.28C386.93 552.124 387.477 548.999 388.352 545.96C388.698 544.29 388.834 544.318 387.759 542.06C388.043 541.016 388.424 540.001 388.899 539.029C389.48 537.238 388.762 534.956 390.674 533.623C390.145 531.298 392.134 529.425 391.797 527.084C391.592 525.658 393.3 525.216 393.844 523.969C395.67 519.836 397.946 515.917 400.629 512.283C401.257 511.375 401.942 510.509 402.679 509.688C404.851 507.396 407.171 505.246 409.348 502.959C413.719 498.78 418.553 495.114 423.757 492.034C426.432 489.88 429.406 488.124 432.585 486.823C435.319 485.993 437.406 484.1 440.002 483.037C442.245 482.119 443.234 479.466 445.253 477.928C448.066 475.407 451.535 473.733 455.258 473.098C457.347 472.381 459.365 471.475 461.289 470.392C461.567 470.556 462.352 471.249 462.556 471.107C464.622 469.668 467.322 470.973 469.057 469.97C470.976 469.046 473.151 468.8 475.228 469.271C479.199 469.633 482.93 467.408 486.778 468.241C492.117 469.396 497.571 468.515 502.802 469.384C506.196 469.948 510.24 469.178 513.059 472.172H517.795C519.064 472.91 520.111 474.004 521.223 474.075C524.746 474.67 528.146 475.845 531.284 477.552C533.307 478.377 535.452 478.494 537.497 479.424C540.45 480.547 543.142 482.262 545.409 484.464C546.267 485.371 547.429 485.931 548.674 486.036C549.335 486.045 549.979 486.243 550.531 486.605C551.083 486.968 551.52 487.48 551.791 488.082C552.43 489.265 553.424 490.216 554.633 490.803C558.264 493.336 561.32 496.608 563.599 500.404C565.506 503.077 567.203 505.894 568.676 508.829C570.229 511.506 570.454 514.696 572.128 517.386C573.178 519.074 572.198 521.355 573.288 523.39C573.846 524.834 574.532 526.225 575.338 527.547L574.796 528.195C575.449 530.676 575.961 533.191 576.329 535.729C577.152 538.844 578.776 542.137 576.552 545.396C578.09 546.975 577.069 548.37 576.546 550.043C576.247 551.835 576.208 553.66 576.432 555.463V555.463ZM467.111 515.147C465.786 516.216 464.197 516.908 462.512 517.15C459.354 517.396 456.391 518.776 454.171 521.037C453.159 522.023 451.887 522.703 450.504 522.996C448.418 523.687 447.558 525.818 445.661 526.635C445.828 528.289 444.32 528.812 443.46 529.692C442.015 530.942 440.839 532.472 440.002 534.189C439.166 535.907 438.687 537.776 438.594 539.685C438.456 541.226 437.941 542.709 437.094 544.004C436.825 544.411 436.654 544.874 436.595 545.358C436.535 545.841 436.588 546.332 436.75 546.792C437.713 549.891 438.03 553.155 437.682 556.382C437.754 557.319 437.926 558.245 438.194 559.146C439.732 564.601 442.935 569.439 447.357 572.984C449.31 572.156 451.388 573.412 453.079 574.121C458.579 577.007 464.971 577.69 470.957 576.033C471.799 575.707 472.722 575.654 473.596 575.879C474.47 576.105 475.252 576.599 475.831 577.292C477.866 574.438 481.021 577.172 483.272 575.092C484.166 574.266 486.461 574.956 487.728 574.956L493.808 571.828C494.268 572.235 494.62 572.563 494.996 572.859C495.04 572.894 495.221 572.755 495.339 572.696C500.576 570.83 505.163 567.492 508.551 563.083V560.496C510.327 559.08 511.703 557.226 512.545 555.117C513.113 548.722 512.452 542.277 510.596 536.13C509.337 531.719 506.925 527.723 503.609 524.554C502.326 523.127 500.649 522.111 498.79 521.636C497.238 521.415 495.956 519.45 494.389 519.165C489.493 517.698 484.398 517 479.288 517.097C475.833 517.535 472.694 515.413 469.224 516.031C468.688 516.126 468.458 514.968 467.111 515.147Z" fill="#212222"/>
<path d="M205.703 439.279C206.799 439.094 207.064 439.844 207.567 440.211C209.77 440.424 212.14 439.567 214.163 441.376L215.846 440.119L220.909 442.629V445.996C217.99 448.017 215.921 451.187 212.717 453.359C209.679 455.12 206.776 457.103 204.032 459.293C201.42 461.905 198.078 463.662 194.446 464.334C192.893 466.429 190.587 467.84 188.014 468.269C187.101 468.308 186.285 469.584 185.34 470.153C182.617 471.617 179.663 472.604 176.607 473.07C175.253 473.348 174.818 474.385 173.168 475.118C170.398 474.859 167.613 475.422 165.161 476.738C164.107 477.158 162.96 477.291 161.838 477.125C158.518 477.205 155.196 477.154 151.74 477.154L148.776 474.349C150.419 473.091 150.284 471.232 150.991 469.67C152.978 465.137 156.089 461.187 160.03 458.193C162.152 456.638 164.453 455.342 166.883 454.333C169.465 453.577 171.455 451.761 174.065 451.168C176.615 450.589 178.423 448.201 181.301 448.124C182.071 448.104 182.812 447.002 183.812 446.2C186.369 446.8 188.621 444.962 191.148 444.399C193.729 443.873 196.247 443.075 198.661 442.02C201.057 440.916 204.02 441.366 205.703 439.279Z" fill="#212222"/>
<path d="M502.537 538.493C502.56 541.502 502.853 544.502 503.412 547.458C503.781 550.101 503.506 552.793 502.61 555.306C501.714 557.819 500.224 560.079 498.267 561.892C495.297 562.513 492.437 563.572 489.778 565.034C485.842 566.52 481.734 567.502 477.551 567.956C474.82 567.771 472.078 568.086 469.46 568.885C467.338 569.914 465.231 567.812 462.942 567.936C460.644 568.061 458.33 567.892 456.023 567.852C455.804 566.503 453.56 567.663 453.641 565.832C453.617 564.963 454.317 564.893 454.971 564.997C455.255 565.054 455.547 565.055 455.832 564.999C456.116 564.943 456.387 564.832 456.628 564.672C456.869 564.511 457.077 564.305 457.238 564.064C457.4 563.824 457.512 563.553 457.569 563.269C458.427 558.748 462.099 556.13 464.547 552.728C465.871 550.208 467.901 548.129 470.388 546.745C474.22 542.805 477.039 537.994 478.604 532.725C480.41 530.887 479.842 527.824 482.232 525.979C483.592 526.576 485.036 526.962 486.513 527.122C491.009 527.582 495.294 529.256 498.911 531.964C499.417 532.233 499.844 532.628 500.152 533.112C500.459 533.595 500.636 534.149 500.665 534.721C500.712 535.442 500.902 536.147 501.223 536.795C501.544 537.442 501.991 538.02 502.537 538.493V538.493Z" fill="#212222"/>
</svg>
